<?xml version="1.0" encoding="utf-8" standalone="no"?>
<!DOCTYPE svg PUBLIC "-//W3C//DTD SVG 1.1//EN"
  "http://www.w3.org/Graphics/SVG/1.1/DTD/svg11.dtd">
<!-- Created with matplotlib (https://matplotlib.org/) -->
<svg height="345.6pt" version="1.1" viewBox="0 0 460.8 345.6" width="460.8pt" xmlns="http://www.w3.org/2000/svg" xmlns:xlink="http://www.w3.org/1999/xlink">
 <defs>
  <style type="text/css">
*{stroke-linecap:butt;stroke-linejoin:round;}
  </style>
 </defs>
 <g id="figure_1">
  <g id="patch_1">
   <path d="M 0 345.6 
L 460.8 345.6 
L 460.8 0 
L 0 0 
z
" style="fill:#ffffff;"/>
  </g>
  <g id="axes_1">
   <g id="patch_2">
    <path d="M 57.6 307.584 
L 414.72 307.584 
L 414.72 41.472 
L 57.6 41.472 
z
" style="fill:#ffffff;"/>
   </g>
   <g id="line2d_1">
    <path clip-path="url(#pd805aee7c7)" d="M 73.832727 252.988595 
L 76.680574 252.988595 
L 78.104498 295.488 
L 79.528421 285.985336 
L 80.952344 285.985336 
L 82.376268 241.502664 
L 83.800191 241.502664 
L 85.224115 200.826363 
L 86.648038 200.826363 
L 88.071962 159.358814 
L 89.495885 159.358814 
L 90.919809 119.658903 
L 93.767656 119.658903 
L 95.191579 164.870576 
L 96.615502 164.870576 
L 98.039426 211.129397 
L 102.311196 211.129397 
L 103.73512 167.481352 
L 106.582967 167.481352 
L 108.00689 153.474677 
L 109.430813 153.474677 
L 110.854737 168.499281 
L 113.702584 168.499281 
L 115.126507 183.185933 
L 116.550431 183.185933 
L 117.974354 169.086931 
L 120.822201 169.086931 
L 122.246124 156.22596 
L 125.093971 156.22596 
L 126.517895 142.92273 
L 127.941818 157.030988 
L 130.789665 157.030988 
L 132.213589 145.198996 
L 133.637512 145.198996 
L 135.061435 131.598457 
L 136.485359 130.24817 
L 139.333206 130.24817 
L 140.757129 116.723413 
L 142.181053 116.723413 
L 143.604976 131.910841 
L 145.0289 131.910841 
L 146.452823 146.561691 
L 147.876746 134.057705 
L 149.30067 134.057705 
L 150.724593 119.907033 
L 152.148517 119.907033 
L 153.57244 106.544909 
L 156.420287 106.544909 
L 157.844211 92.893194 
L 160.692057 92.893194 
L 162.115981 90.776448 
L 163.539904 90.776448 
L 164.963828 96.296665 
L 166.387751 96.296665 
L 167.811675 110.945562 
L 170.659522 110.945562 
L 172.083445 98.013913 
L 173.507368 98.013913 
L 174.931292 111.501389 
L 176.355215 111.501389 
L 177.779139 116.733458 
L 180.626986 116.733458 
L 182.050909 104.037468 
L 183.474833 104.037468 
L 184.898756 92.319338 
L 186.322679 92.319338 
L 187.746603 80.61114 
L 189.170526 80.779059 
L 194.86622 80.779059 
L 196.290144 67.46081 
L 197.714067 82.665361 
L 203.409761 82.665361 
L 204.833684 97.732646 
L 206.257608 97.732646 
L 207.681531 85.391577 
L 209.105455 85.391577 
L 210.529378 99.560156 
L 213.377225 99.560156 
L 214.801148 87.150603 
L 216.225072 87.150603 
L 217.648995 101.477589 
L 219.072919 101.477589 
L 220.496842 116.18876 
L 223.344689 116.18876 
L 224.768612 100.931104 
L 226.192536 117.634551 
L 227.616459 117.634551 
L 229.040383 133.300009 
L 231.88823 133.300009 
L 233.312153 119.866389 
L 244.703541 119.866389 
L 246.127464 125.649546 
L 247.551388 111.733278 
L 248.975311 111.733278 
L 250.399234 99.622494 
L 251.823158 99.622494 
L 253.247081 88.05491 
L 256.094928 88.05491 
L 257.518852 85.555596 
L 258.942775 102.108793 
L 260.366699 102.108793 
L 261.790622 89.101786 
L 263.214545 89.101786 
L 264.638469 76.325616 
L 266.062392 76.325616 
L 267.486316 92.337642 
L 270.334163 92.337642 
L 271.758086 95.894137 
L 273.18201 95.894137 
L 274.605933 110.751533 
L 276.029856 110.751533 
L 277.45378 96.984713 
L 278.877703 96.984713 
L 280.301627 84.361771 
L 281.72555 84.361771 
L 283.149474 72.467948 
L 284.573397 87.022134 
L 285.997321 87.022134 
L 287.421244 74.633333 
L 288.845167 74.633333 
L 290.269091 60.383228 
L 291.693014 60.383228 
L 293.116938 65.644883 
L 295.964785 65.644883 
L 297.388708 53.568 
L 298.812632 53.568 
L 300.236555 66.427229 
L 301.660478 66.427229 
L 303.084402 82.422791 
L 304.508325 82.422791 
L 305.932249 69.989045 
L 307.356172 87.323364 
L 310.204019 87.323364 
L 311.627943 101.821924 
L 313.051866 89.871299 
L 315.899713 89.871299 
L 317.323636 95.444641 
L 318.74756 95.444641 
L 320.171483 83.590032 
L 321.595407 83.590032 
L 323.01933 85.428468 
L 325.867177 85.428468 
L 327.2911 102.665333 
L 328.715024 102.665333 
L 330.138947 88.906381 
L 331.562871 103.480798 
L 332.986794 103.480798 
L 334.410718 115.766292 
L 335.834641 115.766292 
L 337.258565 116.035956 
L 398.487273 116.035956 
L 398.487273 116.035956 
" style="fill:none;stroke:#ff0000;stroke-linecap:square;stroke-width:12;"/>
    <defs>
     <path d="M 0 3 
C 0.795609 3 1.55874 2.683901 2.12132 2.12132 
C 2.683901 1.55874 3 0.795609 3 0 
C 3 -0.795609 2.683901 -1.55874 2.12132 -2.12132 
C 1.55874 -2.683901 0.795609 -3 0 -3 
C -0.795609 -3 -1.55874 -2.683901 -2.12132 -2.12132 
C -2.683901 -1.55874 -3 -0.795609 -3 0 
C -3 0.795609 -2.683901 1.55874 -2.12132 2.12132 
C -1.55874 2.683901 -0.795609 3 0 3 
z
" id="m79488cb5f6" style="stroke:#ff0000;"/>
    </defs>
    <g clip-path="url(#pd805aee7c7)">
     <use style="fill:#ff0000;stroke:#ff0000;" x="73.832727" xlink:href="#m79488cb5f6" y="252.988595"/>
     <use style="fill:#ff0000;stroke:#ff0000;" x="75.256651" xlink:href="#m79488cb5f6" y="252.988595"/>
     <use style="fill:#ff0000;stroke:#ff0000;" x="76.680574" xlink:href="#m79488cb5f6" y="252.988595"/>
     <use style="fill:#ff0000;stroke:#ff0000;" x="78.104498" xlink:href="#m79488cb5f6" y="295.488"/>
     <use style="fill:#ff0000;stroke:#ff0000;" x="79.528421" xlink:href="#m79488cb5f6" y="285.985336"/>
     <use style="fill:#ff0000;stroke:#ff0000;" x="80.952344" xlink:href="#m79488cb5f6" y="285.985336"/>
     <use style="fill:#ff0000;stroke:#ff0000;" x="82.376268" xlink:href="#m79488cb5f6" y="241.502664"/>
     <use style="fill:#ff0000;stroke:#ff0000;" x="83.800191" xlink:href="#m79488cb5f6" y="241.502664"/>
     <use style="fill:#ff0000;stroke:#ff0000;" x="85.224115" xlink:href="#m79488cb5f6" y="200.826363"/>
     <use style="fill:#ff0000;stroke:#ff0000;" x="86.648038" xlink:href="#m79488cb5f6" y="200.826363"/>
     <use style="fill:#ff0000;stroke:#ff0000;" x="88.071962" xlink:href="#m79488cb5f6" y="159.358814"/>
     <use style="fill:#ff0000;stroke:#ff0000;" x="89.495885" xlink:href="#m79488cb5f6" y="159.358814"/>
     <use style="fill:#ff0000;stroke:#ff0000;" x="90.919809" xlink:href="#m79488cb5f6" y="119.658903"/>
     <use style="fill:#ff0000;stroke:#ff0000;" x="92.343732" xlink:href="#m79488cb5f6" y="119.658903"/>
     <use style="fill:#ff0000;stroke:#ff0000;" x="93.767656" xlink:href="#m79488cb5f6" y="119.658903"/>
     <use style="fill:#ff0000;stroke:#ff0000;" x="95.191579" xlink:href="#m79488cb5f6" y="164.870576"/>
     <use style="fill:#ff0000;stroke:#ff0000;" x="96.615502" xlink:href="#m79488cb5f6" y="164.870576"/>
     <use style="fill:#ff0000;stroke:#ff0000;" x="98.039426" xlink:href="#m79488cb5f6" y="211.129397"/>
     <use style="fill:#ff0000;stroke:#ff0000;" x="99.463349" xlink:href="#m79488cb5f6" y="211.129397"/>
     <use style="fill:#ff0000;stroke:#ff0000;" x="100.887273" xlink:href="#m79488cb5f6" y="211.129397"/>
     <use style="fill:#ff0000;stroke:#ff0000;" x="102.311196" xlink:href="#m79488cb5f6" y="211.129397"/>
     <use style="fill:#ff0000;stroke:#ff0000;" x="103.73512" xlink:href="#m79488cb5f6" y="167.481352"/>
     <use style="fill:#ff0000;stroke:#ff0000;" x="105.159043" xlink:href="#m79488cb5f6" y="167.481352"/>
     <use style="fill:#ff0000;stroke:#ff0000;" x="106.582967" xlink:href="#m79488cb5f6" y="167.481352"/>
     <use style="fill:#ff0000;stroke:#ff0000;" x="108.00689" xlink:href="#m79488cb5f6" y="153.474677"/>
     <use style="fill:#ff0000;stroke:#ff0000;" x="109.430813" xlink:href="#m79488cb5f6" y="153.474677"/>
     <use style="fill:#ff0000;stroke:#ff0000;" x="110.854737" xlink:href="#m79488cb5f6" y="168.499281"/>
     <use style="fill:#ff0000;stroke:#ff0000;" x="112.27866" xlink:href="#m79488cb5f6" y="168.499281"/>
     <use style="fill:#ff0000;stroke:#ff0000;" x="113.702584" xlink:href="#m79488cb5f6" y="168.499281"/>
     <use style="fill:#ff0000;stroke:#ff0000;" x="115.126507" xlink:href="#m79488cb5f6" y="183.185933"/>
     <use style="fill:#ff0000;stroke:#ff0000;" x="116.550431" xlink:href="#m79488cb5f6" y="183.185933"/>
     <use style="fill:#ff0000;stroke:#ff0000;" x="117.974354" xlink:href="#m79488cb5f6" y="169.086931"/>
     <use style="fill:#ff0000;stroke:#ff0000;" x="119.398278" xlink:href="#m79488cb5f6" y="169.086931"/>
     <use style="fill:#ff0000;stroke:#ff0000;" x="120.822201" xlink:href="#m79488cb5f6" y="169.086931"/>
     <use style="fill:#ff0000;stroke:#ff0000;" x="122.246124" xlink:href="#m79488cb5f6" y="156.22596"/>
     <use style="fill:#ff0000;stroke:#ff0000;" x="123.670048" xlink:href="#m79488cb5f6" y="156.22596"/>
     <use style="fill:#ff0000;stroke:#ff0000;" x="125.093971" xlink:href="#m79488cb5f6" y="156.22596"/>
     <use style="fill:#ff0000;stroke:#ff0000;" x="126.517895" xlink:href="#m79488cb5f6" y="142.92273"/>
     <use style="fill:#ff0000;stroke:#ff0000;" x="127.941818" xlink:href="#m79488cb5f6" y="157.030988"/>
     <use style="fill:#ff0000;stroke:#ff0000;" x="129.365742" xlink:href="#m79488cb5f6" y="157.030988"/>
     <use style="fill:#ff0000;stroke:#ff0000;" x="130.789665" xlink:href="#m79488cb5f6" y="157.030988"/>
     <use style="fill:#ff0000;stroke:#ff0000;" x="132.213589" xlink:href="#m79488cb5f6" y="145.198996"/>
     <use style="fill:#ff0000;stroke:#ff0000;" x="133.637512" xlink:href="#m79488cb5f6" y="145.198996"/>
     <use style="fill:#ff0000;stroke:#ff0000;" x="135.061435" xlink:href="#m79488cb5f6" y="131.598457"/>
     <use style="fill:#ff0000;stroke:#ff0000;" x="136.485359" xlink:href="#m79488cb5f6" y="130.24817"/>
     <use style="fill:#ff0000;stroke:#ff0000;" x="137.909282" xlink:href="#m79488cb5f6" y="130.24817"/>
     <use style="fill:#ff0000;stroke:#ff0000;" x="139.333206" xlink:href="#m79488cb5f6" y="130.24817"/>
     <use style="fill:#ff0000;stroke:#ff0000;" x="140.757129" xlink:href="#m79488cb5f6" y="116.723413"/>
     <use style="fill:#ff0000;stroke:#ff0000;" x="142.181053" xlink:href="#m79488cb5f6" y="116.723413"/>
     <use style="fill:#ff0000;stroke:#ff0000;" x="143.604976" xlink:href="#m79488cb5f6" y="131.910841"/>
     <use style="fill:#ff0000;stroke:#ff0000;" x="145.0289" xlink:href="#m79488cb5f6" y="131.910841"/>
     <use style="fill:#ff0000;stroke:#ff0000;" x="146.452823" xlink:href="#m79488cb5f6" y="146.561691"/>
     <use style="fill:#ff0000;stroke:#ff0000;" x="147.876746" xlink:href="#m79488cb5f6" y="134.057705"/>
     <use style="fill:#ff0000;stroke:#ff0000;" x="149.30067" xlink:href="#m79488cb5f6" y="134.057705"/>
     <use style="fill:#ff0000;stroke:#ff0000;" x="150.724593" xlink:href="#m79488cb5f6" y="119.907033"/>
     <use style="fill:#ff0000;stroke:#ff0000;" x="152.148517" xlink:href="#m79488cb5f6" y="119.907033"/>
     <use style="fill:#ff0000;stroke:#ff0000;" x="153.57244" xlink:href="#m79488cb5f6" y="106.544909"/>
     <use style="fill:#ff0000;stroke:#ff0000;" x="154.996364" xlink:href="#m79488cb5f6" y="106.544909"/>
     <use style="fill:#ff0000;stroke:#ff0000;" x="156.420287" xlink:href="#m79488cb5f6" y="106.544909"/>
     <use style="fill:#ff0000;stroke:#ff0000;" x="157.844211" xlink:href="#m79488cb5f6" y="92.893194"/>
     <use style="fill:#ff0000;stroke:#ff0000;" x="159.268134" xlink:href="#m79488cb5f6" y="92.893194"/>
     <use style="fill:#ff0000;stroke:#ff0000;" x="160.692057" xlink:href="#m79488cb5f6" y="92.893194"/>
     <use style="fill:#ff0000;stroke:#ff0000;" x="162.115981" xlink:href="#m79488cb5f6" y="90.776448"/>
     <use style="fill:#ff0000;stroke:#ff0000;" x="163.539904" xlink:href="#m79488cb5f6" y="90.776448"/>
     <use style="fill:#ff0000;stroke:#ff0000;" x="164.963828" xlink:href="#m79488cb5f6" y="96.296665"/>
     <use style="fill:#ff0000;stroke:#ff0000;" x="166.387751" xlink:href="#m79488cb5f6" y="96.296665"/>
     <use style="fill:#ff0000;stroke:#ff0000;" x="167.811675" xlink:href="#m79488cb5f6" y="110.945562"/>
     <use style="fill:#ff0000;stroke:#ff0000;" x="169.235598" xlink:href="#m79488cb5f6" y="110.945562"/>
     <use style="fill:#ff0000;stroke:#ff0000;" x="170.659522" xlink:href="#m79488cb5f6" y="110.945562"/>
     <use style="fill:#ff0000;stroke:#ff0000;" x="172.083445" xlink:href="#m79488cb5f6" y="98.013913"/>
     <use style="fill:#ff0000;stroke:#ff0000;" x="173.507368" xlink:href="#m79488cb5f6" y="98.013913"/>
     <use style="fill:#ff0000;stroke:#ff0000;" x="174.931292" xlink:href="#m79488cb5f6" y="111.501389"/>
     <use style="fill:#ff0000;stroke:#ff0000;" x="176.355215" xlink:href="#m79488cb5f6" y="111.501389"/>
     <use style="fill:#ff0000;stroke:#ff0000;" x="177.779139" xlink:href="#m79488cb5f6" y="116.733458"/>
     <use style="fill:#ff0000;stroke:#ff0000;" x="179.203062" xlink:href="#m79488cb5f6" y="116.733458"/>
     <use style="fill:#ff0000;stroke:#ff0000;" x="180.626986" xlink:href="#m79488cb5f6" y="116.733458"/>
     <use style="fill:#ff0000;stroke:#ff0000;" x="182.050909" xlink:href="#m79488cb5f6" y="104.037468"/>
     <use style="fill:#ff0000;stroke:#ff0000;" x="183.474833" xlink:href="#m79488cb5f6" y="104.037468"/>
     <use style="fill:#ff0000;stroke:#ff0000;" x="184.898756" xlink:href="#m79488cb5f6" y="92.319338"/>
     <use style="fill:#ff0000;stroke:#ff0000;" x="186.322679" xlink:href="#m79488cb5f6" y="92.319338"/>
     <use style="fill:#ff0000;stroke:#ff0000;" x="187.746603" xlink:href="#m79488cb5f6" y="80.61114"/>
     <use style="fill:#ff0000;stroke:#ff0000;" x="189.170526" xlink:href="#m79488cb5f6" y="80.779059"/>
     <use style="fill:#ff0000;stroke:#ff0000;" x="190.59445" xlink:href="#m79488cb5f6" y="80.779059"/>
     <use style="fill:#ff0000;stroke:#ff0000;" x="192.018373" xlink:href="#m79488cb5f6" y="80.779059"/>
     <use style="fill:#ff0000;stroke:#ff0000;" x="193.442297" xlink:href="#m79488cb5f6" y="80.779059"/>
     <use style="fill:#ff0000;stroke:#ff0000;" x="194.86622" xlink:href="#m79488cb5f6" y="80.779059"/>
     <use style="fill:#ff0000;stroke:#ff0000;" x="196.290144" xlink:href="#m79488cb5f6" y="67.46081"/>
     <use style="fill:#ff0000;stroke:#ff0000;" x="197.714067" xlink:href="#m79488cb5f6" y="82.665361"/>
     <use style="fill:#ff0000;stroke:#ff0000;" x="199.13799" xlink:href="#m79488cb5f6" y="82.665361"/>
     <use style="fill:#ff0000;stroke:#ff0000;" x="200.561914" xlink:href="#m79488cb5f6" y="82.665361"/>
     <use style="fill:#ff0000;stroke:#ff0000;" x="201.985837" xlink:href="#m79488cb5f6" y="82.665361"/>
     <use style="fill:#ff0000;stroke:#ff0000;" x="203.409761" xlink:href="#m79488cb5f6" y="82.665361"/>
     <use style="fill:#ff0000;stroke:#ff0000;" x="204.833684" xlink:href="#m79488cb5f6" y="97.732646"/>
     <use style="fill:#ff0000;stroke:#ff0000;" x="206.257608" xlink:href="#m79488cb5f6" y="97.732646"/>
     <use style="fill:#ff0000;stroke:#ff0000;" x="207.681531" xlink:href="#m79488cb5f6" y="85.391577"/>
     <use style="fill:#ff0000;stroke:#ff0000;" x="209.105455" xlink:href="#m79488cb5f6" y="85.391577"/>
     <use style="fill:#ff0000;stroke:#ff0000;" x="210.529378" xlink:href="#m79488cb5f6" y="99.560156"/>
     <use style="fill:#ff0000;stroke:#ff0000;" x="211.953301" xlink:href="#m79488cb5f6" y="99.560156"/>
     <use style="fill:#ff0000;stroke:#ff0000;" x="213.377225" xlink:href="#m79488cb5f6" y="99.560156"/>
     <use style="fill:#ff0000;stroke:#ff0000;" x="214.801148" xlink:href="#m79488cb5f6" y="87.150603"/>
     <use style="fill:#ff0000;stroke:#ff0000;" x="216.225072" xlink:href="#m79488cb5f6" y="87.150603"/>
     <use style="fill:#ff0000;stroke:#ff0000;" x="217.648995" xlink:href="#m79488cb5f6" y="101.477589"/>
     <use style="fill:#ff0000;stroke:#ff0000;" x="219.072919" xlink:href="#m79488cb5f6" y="101.477589"/>
     <use style="fill:#ff0000;stroke:#ff0000;" x="220.496842" xlink:href="#m79488cb5f6" y="116.18876"/>
     <use style="fill:#ff0000;stroke:#ff0000;" x="221.920766" xlink:href="#m79488cb5f6" y="116.18876"/>
     <use style="fill:#ff0000;stroke:#ff0000;" x="223.344689" xlink:href="#m79488cb5f6" y="116.18876"/>
     <use style="fill:#ff0000;stroke:#ff0000;" x="224.768612" xlink:href="#m79488cb5f6" y="100.931104"/>
     <use style="fill:#ff0000;stroke:#ff0000;" x="226.192536" xlink:href="#m79488cb5f6" y="117.634551"/>
     <use style="fill:#ff0000;stroke:#ff0000;" x="227.616459" xlink:href="#m79488cb5f6" y="117.634551"/>
     <use style="fill:#ff0000;stroke:#ff0000;" x="229.040383" xlink:href="#m79488cb5f6" y="133.300009"/>
     <use style="fill:#ff0000;stroke:#ff0000;" x="230.464306" xlink:href="#m79488cb5f6" y="133.300009"/>
     <use style="fill:#ff0000;stroke:#ff0000;" x="231.88823" xlink:href="#m79488cb5f6" y="133.300009"/>
     <use style="fill:#ff0000;stroke:#ff0000;" x="233.312153" xlink:href="#m79488cb5f6" y="119.866389"/>
     <use style="fill:#ff0000;stroke:#ff0000;" x="234.736077" xlink:href="#m79488cb5f6" y="119.866389"/>
     <use style="fill:#ff0000;stroke:#ff0000;" x="236.16" xlink:href="#m79488cb5f6" y="119.866389"/>
     <use style="fill:#ff0000;stroke:#ff0000;" x="237.583923" xlink:href="#m79488cb5f6" y="119.866389"/>
     <use style="fill:#ff0000;stroke:#ff0000;" x="239.007847" xlink:href="#m79488cb5f6" y="119.866389"/>
     <use style="fill:#ff0000;stroke:#ff0000;" x="240.43177" xlink:href="#m79488cb5f6" y="119.866389"/>
     <use style="fill:#ff0000;stroke:#ff0000;" x="241.855694" xlink:href="#m79488cb5f6" y="119.866389"/>
     <use style="fill:#ff0000;stroke:#ff0000;" x="243.279617" xlink:href="#m79488cb5f6" y="119.866389"/>
     <use style="fill:#ff0000;stroke:#ff0000;" x="244.703541" xlink:href="#m79488cb5f6" y="119.866389"/>
     <use style="fill:#ff0000;stroke:#ff0000;" x="246.127464" xlink:href="#m79488cb5f6" y="125.649546"/>
     <use style="fill:#ff0000;stroke:#ff0000;" x="247.551388" xlink:href="#m79488cb5f6" y="111.733278"/>
     <use style="fill:#ff0000;stroke:#ff0000;" x="248.975311" xlink:href="#m79488cb5f6" y="111.733278"/>
     <use style="fill:#ff0000;stroke:#ff0000;" x="250.399234" xlink:href="#m79488cb5f6" y="99.622494"/>
     <use style="fill:#ff0000;stroke:#ff0000;" x="251.823158" xlink:href="#m79488cb5f6" y="99.622494"/>
     <use style="fill:#ff0000;stroke:#ff0000;" x="253.247081" xlink:href="#m79488cb5f6" y="88.05491"/>
     <use style="fill:#ff0000;stroke:#ff0000;" x="254.671005" xlink:href="#m79488cb5f6" y="88.05491"/>
     <use style="fill:#ff0000;stroke:#ff0000;" x="256.094928" xlink:href="#m79488cb5f6" y="88.05491"/>
     <use style="fill:#ff0000;stroke:#ff0000;" x="257.518852" xlink:href="#m79488cb5f6" y="85.555596"/>
     <use style="fill:#ff0000;stroke:#ff0000;" x="258.942775" xlink:href="#m79488cb5f6" y="102.108793"/>
     <use style="fill:#ff0000;stroke:#ff0000;" x="260.366699" xlink:href="#m79488cb5f6" y="102.108793"/>
     <use style="fill:#ff0000;stroke:#ff0000;" x="261.790622" xlink:href="#m79488cb5f6" y="89.101786"/>
     <use style="fill:#ff0000;stroke:#ff0000;" x="263.214545" xlink:href="#m79488cb5f6" y="89.101786"/>
     <use style="fill:#ff0000;stroke:#ff0000;" x="264.638469" xlink:href="#m79488cb5f6" y="76.325616"/>
     <use style="fill:#ff0000;stroke:#ff0000;" x="266.062392" xlink:href="#m79488cb5f6" y="76.325616"/>
     <use style="fill:#ff0000;stroke:#ff0000;" x="267.486316" xlink:href="#m79488cb5f6" y="92.337642"/>
     <use style="fill:#ff0000;stroke:#ff0000;" x="268.910239" xlink:href="#m79488cb5f6" y="92.337642"/>
     <use style="fill:#ff0000;stroke:#ff0000;" x="270.334163" xlink:href="#m79488cb5f6" y="92.337642"/>
     <use style="fill:#ff0000;stroke:#ff0000;" x="271.758086" xlink:href="#m79488cb5f6" y="95.894137"/>
     <use style="fill:#ff0000;stroke:#ff0000;" x="273.18201" xlink:href="#m79488cb5f6" y="95.894137"/>
     <use style="fill:#ff0000;stroke:#ff0000;" x="274.605933" xlink:href="#m79488cb5f6" y="110.751533"/>
     <use style="fill:#ff0000;stroke:#ff0000;" x="276.029856" xlink:href="#m79488cb5f6" y="110.751533"/>
     <use style="fill:#ff0000;stroke:#ff0000;" x="277.45378" xlink:href="#m79488cb5f6" y="96.984713"/>
     <use style="fill:#ff0000;stroke:#ff0000;" x="278.877703" xlink:href="#m79488cb5f6" y="96.984713"/>
     <use style="fill:#ff0000;stroke:#ff0000;" x="280.301627" xlink:href="#m79488cb5f6" y="84.361771"/>
     <use style="fill:#ff0000;stroke:#ff0000;" x="281.72555" xlink:href="#m79488cb5f6" y="84.361771"/>
     <use style="fill:#ff0000;stroke:#ff0000;" x="283.149474" xlink:href="#m79488cb5f6" y="72.467948"/>
     <use style="fill:#ff0000;stroke:#ff0000;" x="284.573397" xlink:href="#m79488cb5f6" y="87.022134"/>
     <use style="fill:#ff0000;stroke:#ff0000;" x="285.997321" xlink:href="#m79488cb5f6" y="87.022134"/>
     <use style="fill:#ff0000;stroke:#ff0000;" x="287.421244" xlink:href="#m79488cb5f6" y="74.633333"/>
     <use style="fill:#ff0000;stroke:#ff0000;" x="288.845167" xlink:href="#m79488cb5f6" y="74.633333"/>
     <use style="fill:#ff0000;stroke:#ff0000;" x="290.269091" xlink:href="#m79488cb5f6" y="60.383228"/>
     <use style="fill:#ff0000;stroke:#ff0000;" x="291.693014" xlink:href="#m79488cb5f6" y="60.383228"/>
     <use style="fill:#ff0000;stroke:#ff0000;" x="293.116938" xlink:href="#m79488cb5f6" y="65.644883"/>
     <use style="fill:#ff0000;stroke:#ff0000;" x="294.540861" xlink:href="#m79488cb5f6" y="65.644883"/>
     <use style="fill:#ff0000;stroke:#ff0000;" x="295.964785" xlink:href="#m79488cb5f6" y="65.644883"/>
     <use style="fill:#ff0000;stroke:#ff0000;" x="297.388708" xlink:href="#m79488cb5f6" y="53.568"/>
     <use style="fill:#ff0000;stroke:#ff0000;" x="298.812632" xlink:href="#m79488cb5f6" y="53.568"/>
     <use style="fill:#ff0000;stroke:#ff0000;" x="300.236555" xlink:href="#m79488cb5f6" y="66.427229"/>
     <use style="fill:#ff0000;stroke:#ff0000;" x="301.660478" xlink:href="#m79488cb5f6" y="66.427229"/>
     <use style="fill:#ff0000;stroke:#ff0000;" x="303.084402" xlink:href="#m79488cb5f6" y="82.422791"/>
     <use style="fill:#ff0000;stroke:#ff0000;" x="304.508325" xlink:href="#m79488cb5f6" y="82.422791"/>
     <use style="fill:#ff0000;stroke:#ff0000;" x="305.932249" xlink:href="#m79488cb5f6" y="69.989045"/>
     <use style="fill:#ff0000;stroke:#ff0000;" x="307.356172" xlink:href="#m79488cb5f6" y="87.323364"/>
     <use style="fill:#ff0000;stroke:#ff0000;" x="308.780096" xlink:href="#m79488cb5f6" y="87.323364"/>
     <use style="fill:#ff0000;stroke:#ff0000;" x="310.204019" xlink:href="#m79488cb5f6" y="87.323364"/>
     <use style="fill:#ff0000;stroke:#ff0000;" x="311.627943" xlink:href="#m79488cb5f6" y="101.821924"/>
     <use style="fill:#ff0000;stroke:#ff0000;" x="313.051866" xlink:href="#m79488cb5f6" y="89.871299"/>
     <use style="fill:#ff0000;stroke:#ff0000;" x="314.475789" xlink:href="#m79488cb5f6" y="89.871299"/>
     <use style="fill:#ff0000;stroke:#ff0000;" x="315.899713" xlink:href="#m79488cb5f6" y="89.871299"/>
     <use style="fill:#ff0000;stroke:#ff0000;" x="317.323636" xlink:href="#m79488cb5f6" y="95.444641"/>
     <use style="fill:#ff0000;stroke:#ff0000;" x="318.74756" xlink:href="#m79488cb5f6" y="95.444641"/>
     <use style="fill:#ff0000;stroke:#ff0000;" x="320.171483" xlink:href="#m79488cb5f6" y="83.590032"/>
     <use style="fill:#ff0000;stroke:#ff0000;" x="321.595407" xlink:href="#m79488cb5f6" y="83.590032"/>
     <use style="fill:#ff0000;stroke:#ff0000;" x="323.01933" xlink:href="#m79488cb5f6" y="85.428468"/>
     <use style="fill:#ff0000;stroke:#ff0000;" x="324.443254" xlink:href="#m79488cb5f6" y="85.428468"/>
     <use style="fill:#ff0000;stroke:#ff0000;" x="325.867177" xlink:href="#m79488cb5f6" y="85.428468"/>
     <use style="fill:#ff0000;stroke:#ff0000;" x="327.2911" xlink:href="#m79488cb5f6" y="102.665333"/>
     <use style="fill:#ff0000;stroke:#ff0000;" x="328.715024" xlink:href="#m79488cb5f6" y="102.665333"/>
     <use style="fill:#ff0000;stroke:#ff0000;" x="330.138947" xlink:href="#m79488cb5f6" y="88.906381"/>
     <use style="fill:#ff0000;stroke:#ff0000;" x="331.562871" xlink:href="#m79488cb5f6" y="103.480798"/>
     <use style="fill:#ff0000;stroke:#ff0000;" x="332.986794" xlink:href="#m79488cb5f6" y="103.480798"/>
     <use style="fill:#ff0000;stroke:#ff0000;" x="334.410718" xlink:href="#m79488cb5f6" y="115.766292"/>
     <use style="fill:#ff0000;stroke:#ff0000;" x="335.834641" xlink:href="#m79488cb5f6" y="115.766292"/>
     <use style="fill:#ff0000;stroke:#ff0000;" x="337.258565" xlink:href="#m79488cb5f6" y="116.035956"/>
     <use style="fill:#ff0000;stroke:#ff0000;" x="338.682488" xlink:href="#m79488cb5f6" y="116.035956"/>
     <use style="fill:#ff0000;stroke:#ff0000;" x="340.106411" xlink:href="#m79488cb5f6" y="116.035956"/>
     <use style="fill:#ff0000;stroke:#ff0000;" x="341.530335" xlink:href="#m79488cb5f6" y="116.035956"/>
     <use style="fill:#ff0000;stroke:#ff0000;" x="342.954258" xlink:href="#m79488cb5f6" y="116.035956"/>
     <use style="fill:#ff0000;stroke:#ff0000;" x="344.378182" xlink:href="#m79488cb5f6" y="116.035956"/>
     <use style="fill:#ff0000;stroke:#ff0000;" x="345.802105" xlink:href="#m79488cb5f6" y="116.035956"/>
     <use style="fill:#ff0000;stroke:#ff0000;" x="347.226029" xlink:href="#m79488cb5f6" y="116.035956"/>
     <use style="fill:#ff0000;stroke:#ff0000;" x="348.649952" xlink:href="#m79488cb5f6" y="116.035956"/>
     <use style="fill:#ff0000;stroke:#ff0000;" x="350.073876" xlink:href="#m79488cb5f6" y="116.035956"/>
     <use style="fill:#ff0000;stroke:#ff0000;" x="351.497799" xlink:href="#m79488cb5f6" y="116.035956"/>
     <use style="fill:#ff0000;stroke:#ff0000;" x="352.921722" xlink:href="#m79488cb5f6" y="116.035956"/>
     <use style="fill:#ff0000;stroke:#ff0000;" x="354.345646" xlink:href="#m79488cb5f6" y="116.035956"/>
     <use style="fill:#ff0000;stroke:#ff0000;" x="355.769569" xlink:href="#m79488cb5f6" y="116.035956"/>
     <use style="fill:#ff0000;stroke:#ff0000;" x="357.193493" xlink:href="#m79488cb5f6" y="116.035956"/>
     <use style="fill:#ff0000;stroke:#ff0000;" x="358.617416" xlink:href="#m79488cb5f6" y="116.035956"/>
     <use style="fill:#ff0000;stroke:#ff0000;" x="360.04134" xlink:href="#m79488cb5f6" y="116.035956"/>
     <use style="fill:#ff0000;stroke:#ff0000;" x="361.465263" xlink:href="#m79488cb5f6" y="116.035956"/>
     <use style="fill:#ff0000;stroke:#ff0000;" x="362.889187" xlink:href="#m79488cb5f6" y="116.035956"/>
     <use style="fill:#ff0000;stroke:#ff0000;" x="364.31311" xlink:href="#m79488cb5f6" y="116.035956"/>
     <use style="fill:#ff0000;stroke:#ff0000;" x="365.737033" xlink:href="#m79488cb5f6" y="116.035956"/>
     <use style="fill:#ff0000;stroke:#ff0000;" x="367.160957" xlink:href="#m79488cb5f6" y="116.035956"/>
     <use style="fill:#ff0000;stroke:#ff0000;" x="368.58488" xlink:href="#m79488cb5f6" y="116.035956"/>
     <use style="fill:#ff0000;stroke:#ff0000;" x="370.008804" xlink:href="#m79488cb5f6" y="116.035956"/>
     <use style="fill:#ff0000;stroke:#ff0000;" x="371.432727" xlink:href="#m79488cb5f6" y="116.035956"/>
     <use style="fill:#ff0000;stroke:#ff0000;" x="372.856651" xlink:href="#m79488cb5f6" y="116.035956"/>
     <use style="fill:#ff0000;stroke:#ff0000;" x="374.280574" xlink:href="#m79488cb5f6" y="116.035956"/>
     <use style="fill:#ff0000;stroke:#ff0000;" x="375.704498" xlink:href="#m79488cb5f6" y="116.035956"/>
     <use style="fill:#ff0000;stroke:#ff0000;" x="377.128421" xlink:href="#m79488cb5f6" y="116.035956"/>
     <use style="fill:#ff0000;stroke:#ff0000;" x="378.552344" xlink:href="#m79488cb5f6" y="116.035956"/>
     <use style="fill:#ff0000;stroke:#ff0000;" x="379.976268" xlink:href="#m79488cb5f6" y="116.035956"/>
     <use style="fill:#ff0000;stroke:#ff0000;" x="381.400191" xlink:href="#m79488cb5f6" y="116.035956"/>
     <use style="fill:#ff0000;stroke:#ff0000;" x="382.824115" xlink:href="#m79488cb5f6" y="116.035956"/>
     <use style="fill:#ff0000;stroke:#ff0000;" x="384.248038" xlink:href="#m79488cb5f6" y="116.035956"/>
     <use style="fill:#ff0000;stroke:#ff0000;" x="385.671962" xlink:href="#m79488cb5f6" y="116.035956"/>
     <use style="fill:#ff0000;stroke:#ff0000;" x="387.095885" xlink:href="#m79488cb5f6" y="116.035956"/>
     <use style="fill:#ff0000;stroke:#ff0000;" x="388.519809" xlink:href="#m79488cb5f6" y="116.035956"/>
     <use style="fill:#ff0000;stroke:#ff0000;" x="389.943732" xlink:href="#m79488cb5f6" y="116.035956"/>
     <use style="fill:#ff0000;stroke:#ff0000;" x="391.367656" xlink:href="#m79488cb5f6" y="116.035956"/>
     <use style="fill:#ff0000;stroke:#ff0000;" x="392.791579" xlink:href="#m79488cb5f6" y="116.035956"/>
     <use style="fill:#ff0000;stroke:#ff0000;" x="394.215502" xlink:href="#m79488cb5f6" y="116.035956"/>
     <use style="fill:#ff0000;stroke:#ff0000;" x="395.639426" xlink:href="#m79488cb5f6" y="116.035956"/>
     <use style="fill:#ff0000;stroke:#ff0000;" x="397.063349" xlink:href="#m79488cb5f6" y="116.035956"/>
     <use style="fill:#ff0000;stroke:#ff0000;" x="398.487273" xlink:href="#m79488cb5f6" y="116.035956"/>
    </g>
   </g>
   <g id="patch_3">
    <path d="M 57.6 307.584 
L 57.6 41.472 
" style="fill:none;stroke:#000000;stroke-linecap:square;stroke-linejoin:miter;stroke-width:0.8;"/>
   </g>
   <g id="patch_4">
    <path d="M 414.72 307.584 
L 414.72 41.472 
" style="fill:none;stroke:#000000;stroke-linecap:square;stroke-linejoin:miter;stroke-width:0.8;"/>
   </g>
   <g id="patch_5">
    <path d="M 57.6 307.584 
L 414.72 307.584 
" style="fill:none;stroke:#000000;stroke-linecap:square;stroke-linejoin:miter;stroke-width:0.8;"/>
   </g>
   <g id="patch_6">
    <path d="M 57.6 41.472 
L 414.72 41.472 
" style="fill:none;stroke:#000000;stroke-linecap:square;stroke-linejoin:miter;stroke-width:0.8;"/>
   </g>
  </g>
 </g>
 <defs>
  <clipPath id="pd805aee7c7">
   <rect height="266.112" width="357.12" x="57.6" y="41.472"/>
  </clipPath>
 </defs>
</svg>
