<?xml version="1.0" encoding="utf-8" standalone="no"?>
<!DOCTYPE svg PUBLIC "-//W3C//DTD SVG 1.1//EN"
  "http://www.w3.org/Graphics/SVG/1.1/DTD/svg11.dtd">
<!-- Created with matplotlib (https://matplotlib.org/) -->
<svg height="345.6pt" version="1.1" viewBox="0 0 460.8 345.6" width="460.8pt" xmlns="http://www.w3.org/2000/svg" xmlns:xlink="http://www.w3.org/1999/xlink">
 <defs>
  <style type="text/css">
*{stroke-linecap:butt;stroke-linejoin:round;}
  </style>
 </defs>
 <g id="figure_1">
  <g id="patch_1">
   <path d="M 0 345.6 
L 460.8 345.6 
L 460.8 0 
L 0 0 
z
" style="fill:#ffffff;"/>
  </g>
  <g id="axes_1">
   <g id="patch_2">
    <path d="M 57.6 307.584 
L 414.72 307.584 
L 414.72 41.472 
L 57.6 41.472 
z
" style="fill:#ffffff;"/>
   </g>
   <g id="line2d_1">
    <path clip-path="url(#p81e077da75)" d="M 73.832727 252.988595 
L 75.484913 252.988595 
L 76.311006 295.488 
L 77.137099 285.985336 
L 77.963192 285.985336 
L 78.789285 241.502664 
L 79.615378 241.502664 
L 80.441471 200.826363 
L 81.267564 200.826363 
L 82.093657 159.358814 
L 82.91975 159.358814 
L 83.745843 119.658903 
L 85.398029 119.658903 
L 86.224122 164.870576 
L 87.050215 164.870576 
L 87.876308 211.129397 
L 90.354587 211.129397 
L 91.18068 167.481352 
L 92.832866 167.481352 
L 93.658959 153.474677 
L 94.485052 153.474677 
L 95.311145 168.499281 
L 96.963331 168.499281 
L 97.789424 183.185933 
L 98.615517 183.185933 
L 99.44161 169.086931 
L 101.093796 169.086931 
L 101.919889 156.22596 
L 103.572075 156.22596 
L 104.398168 142.92273 
L 105.224261 157.030988 
L 106.876447 157.030988 
L 107.70254 145.198996 
L 108.528633 145.198996 
L 109.354726 131.598457 
L 110.180819 130.24817 
L 111.833005 130.24817 
L 112.659098 116.723413 
L 113.485191 116.723413 
L 114.311284 131.910841 
L 115.137377 131.910841 
L 115.96347 146.561691 
L 116.789563 134.057705 
L 117.615656 134.057705 
L 118.441749 119.907033 
L 119.267842 119.907033 
L 120.093935 106.544909 
L 121.746121 106.544909 
L 122.572214 92.893194 
L 124.2244 92.893194 
L 125.050493 90.776448 
L 125.876586 90.776448 
L 126.702679 96.296665 
L 127.528772 96.296665 
L 128.354865 110.945562 
L 130.007051 110.945562 
L 130.833144 98.013913 
L 131.659237 98.013913 
L 132.48533 111.501389 
L 133.311423 111.501389 
L 134.137516 116.733458 
L 135.789702 116.733458 
L 136.615795 104.037468 
L 137.441888 104.037468 
L 138.267981 92.319338 
L 139.094074 92.319338 
L 139.920167 80.61114 
L 140.74626 80.779059 
L 144.050632 80.779059 
L 144.876724 67.46081 
L 145.702817 82.665361 
L 149.007189 82.665361 
L 149.833282 97.732646 
L 150.659375 97.732646 
L 151.485468 85.391577 
L 152.311561 85.391577 
L 153.137654 99.560156 
L 154.78984 99.560156 
L 155.615933 87.150603 
L 156.442026 87.150603 
L 157.268119 101.477589 
L 158.094212 101.477589 
L 158.920305 116.18876 
L 160.572491 116.18876 
L 161.398584 100.931104 
L 162.224677 117.634551 
L 163.05077 117.634551 
L 163.876863 133.300009 
L 165.529049 133.300009 
L 166.355142 119.866389 
L 172.963886 119.866389 
L 173.789979 125.649546 
L 174.616072 111.733278 
L 175.442165 111.733278 
L 176.268258 99.622494 
L 177.094351 99.622494 
L 177.920444 88.05491 
L 179.57263 88.05491 
L 180.398723 85.555596 
L 181.224816 102.108793 
L 182.050909 102.108793 
L 182.877002 89.101786 
L 183.703095 89.101786 
L 184.529188 76.325616 
L 185.355281 76.325616 
L 186.181374 92.337642 
L 187.83356 92.337642 
L 188.659653 95.894137 
L 189.485746 95.894137 
L 190.311839 110.751533 
L 191.137932 110.751533 
L 191.964025 96.984713 
L 192.790118 96.984713 
L 193.616211 84.361771 
L 194.442304 84.361771 
L 195.268397 72.467948 
L 196.09449 87.022134 
L 196.920583 87.022134 
L 197.746676 74.633333 
L 198.572769 74.633333 
L 199.398862 60.383228 
L 200.224955 60.383228 
L 201.051048 65.644883 
L 202.703234 65.644883 
L 203.529327 53.568 
L 204.35542 53.568 
L 205.181513 66.427229 
L 206.007606 66.427229 
L 206.833699 82.422791 
L 207.659792 82.422791 
L 208.485885 69.989045 
L 209.311978 87.323364 
L 210.964164 87.323364 
L 211.790257 101.821924 
L 212.61635 89.871299 
L 214.268536 89.871299 
L 215.094629 95.444641 
L 215.920722 95.444641 
L 216.746815 83.590032 
L 217.572908 83.590032 
L 218.399001 85.428468 
L 220.051187 85.428468 
L 220.87728 102.665333 
L 221.703373 102.665333 
L 222.529466 88.906381 
L 223.355559 103.480798 
L 224.181652 103.480798 
L 225.007745 115.766292 
L 225.833838 115.766292 
L 226.659931 116.035956 
L 398.487273 116.035956 
L 398.487273 116.035956 
" style="fill:none;stroke:#ff0000;stroke-linecap:square;stroke-width:12;"/>
    <defs>
     <path d="M 0 3 
C 0.795609 3 1.55874 2.683901 2.12132 2.12132 
C 2.683901 1.55874 3 0.795609 3 0 
C 3 -0.795609 2.683901 -1.55874 2.12132 -2.12132 
C 1.55874 -2.683901 0.795609 -3 0 -3 
C -0.795609 -3 -1.55874 -2.683901 -2.12132 -2.12132 
C -2.683901 -1.55874 -3 -0.795609 -3 0 
C -3 0.795609 -2.683901 1.55874 -2.12132 2.12132 
C -1.55874 2.683901 -0.795609 3 0 3 
z
" id="m671eb1495b" style="stroke:#ff0000;"/>
    </defs>
    <g clip-path="url(#p81e077da75)">
     <use style="fill:#ff0000;stroke:#ff0000;" x="73.832727" xlink:href="#m671eb1495b" y="252.988595"/>
     <use style="fill:#ff0000;stroke:#ff0000;" x="74.65882" xlink:href="#m671eb1495b" y="252.988595"/>
     <use style="fill:#ff0000;stroke:#ff0000;" x="75.484913" xlink:href="#m671eb1495b" y="252.988595"/>
     <use style="fill:#ff0000;stroke:#ff0000;" x="76.311006" xlink:href="#m671eb1495b" y="295.488"/>
     <use style="fill:#ff0000;stroke:#ff0000;" x="77.137099" xlink:href="#m671eb1495b" y="285.985336"/>
     <use style="fill:#ff0000;stroke:#ff0000;" x="77.963192" xlink:href="#m671eb1495b" y="285.985336"/>
     <use style="fill:#ff0000;stroke:#ff0000;" x="78.789285" xlink:href="#m671eb1495b" y="241.502664"/>
     <use style="fill:#ff0000;stroke:#ff0000;" x="79.615378" xlink:href="#m671eb1495b" y="241.502664"/>
     <use style="fill:#ff0000;stroke:#ff0000;" x="80.441471" xlink:href="#m671eb1495b" y="200.826363"/>
     <use style="fill:#ff0000;stroke:#ff0000;" x="81.267564" xlink:href="#m671eb1495b" y="200.826363"/>
     <use style="fill:#ff0000;stroke:#ff0000;" x="82.093657" xlink:href="#m671eb1495b" y="159.358814"/>
     <use style="fill:#ff0000;stroke:#ff0000;" x="82.91975" xlink:href="#m671eb1495b" y="159.358814"/>
     <use style="fill:#ff0000;stroke:#ff0000;" x="83.745843" xlink:href="#m671eb1495b" y="119.658903"/>
     <use style="fill:#ff0000;stroke:#ff0000;" x="84.571936" xlink:href="#m671eb1495b" y="119.658903"/>
     <use style="fill:#ff0000;stroke:#ff0000;" x="85.398029" xlink:href="#m671eb1495b" y="119.658903"/>
     <use style="fill:#ff0000;stroke:#ff0000;" x="86.224122" xlink:href="#m671eb1495b" y="164.870576"/>
     <use style="fill:#ff0000;stroke:#ff0000;" x="87.050215" xlink:href="#m671eb1495b" y="164.870576"/>
     <use style="fill:#ff0000;stroke:#ff0000;" x="87.876308" xlink:href="#m671eb1495b" y="211.129397"/>
     <use style="fill:#ff0000;stroke:#ff0000;" x="88.702401" xlink:href="#m671eb1495b" y="211.129397"/>
     <use style="fill:#ff0000;stroke:#ff0000;" x="89.528494" xlink:href="#m671eb1495b" y="211.129397"/>
     <use style="fill:#ff0000;stroke:#ff0000;" x="90.354587" xlink:href="#m671eb1495b" y="211.129397"/>
     <use style="fill:#ff0000;stroke:#ff0000;" x="91.18068" xlink:href="#m671eb1495b" y="167.481352"/>
     <use style="fill:#ff0000;stroke:#ff0000;" x="92.006773" xlink:href="#m671eb1495b" y="167.481352"/>
     <use style="fill:#ff0000;stroke:#ff0000;" x="92.832866" xlink:href="#m671eb1495b" y="167.481352"/>
     <use style="fill:#ff0000;stroke:#ff0000;" x="93.658959" xlink:href="#m671eb1495b" y="153.474677"/>
     <use style="fill:#ff0000;stroke:#ff0000;" x="94.485052" xlink:href="#m671eb1495b" y="153.474677"/>
     <use style="fill:#ff0000;stroke:#ff0000;" x="95.311145" xlink:href="#m671eb1495b" y="168.499281"/>
     <use style="fill:#ff0000;stroke:#ff0000;" x="96.137238" xlink:href="#m671eb1495b" y="168.499281"/>
     <use style="fill:#ff0000;stroke:#ff0000;" x="96.963331" xlink:href="#m671eb1495b" y="168.499281"/>
     <use style="fill:#ff0000;stroke:#ff0000;" x="97.789424" xlink:href="#m671eb1495b" y="183.185933"/>
     <use style="fill:#ff0000;stroke:#ff0000;" x="98.615517" xlink:href="#m671eb1495b" y="183.185933"/>
     <use style="fill:#ff0000;stroke:#ff0000;" x="99.44161" xlink:href="#m671eb1495b" y="169.086931"/>
     <use style="fill:#ff0000;stroke:#ff0000;" x="100.267703" xlink:href="#m671eb1495b" y="169.086931"/>
     <use style="fill:#ff0000;stroke:#ff0000;" x="101.093796" xlink:href="#m671eb1495b" y="169.086931"/>
     <use style="fill:#ff0000;stroke:#ff0000;" x="101.919889" xlink:href="#m671eb1495b" y="156.22596"/>
     <use style="fill:#ff0000;stroke:#ff0000;" x="102.745982" xlink:href="#m671eb1495b" y="156.22596"/>
     <use style="fill:#ff0000;stroke:#ff0000;" x="103.572075" xlink:href="#m671eb1495b" y="156.22596"/>
     <use style="fill:#ff0000;stroke:#ff0000;" x="104.398168" xlink:href="#m671eb1495b" y="142.92273"/>
     <use style="fill:#ff0000;stroke:#ff0000;" x="105.224261" xlink:href="#m671eb1495b" y="157.030988"/>
     <use style="fill:#ff0000;stroke:#ff0000;" x="106.050354" xlink:href="#m671eb1495b" y="157.030988"/>
     <use style="fill:#ff0000;stroke:#ff0000;" x="106.876447" xlink:href="#m671eb1495b" y="157.030988"/>
     <use style="fill:#ff0000;stroke:#ff0000;" x="107.70254" xlink:href="#m671eb1495b" y="145.198996"/>
     <use style="fill:#ff0000;stroke:#ff0000;" x="108.528633" xlink:href="#m671eb1495b" y="145.198996"/>
     <use style="fill:#ff0000;stroke:#ff0000;" x="109.354726" xlink:href="#m671eb1495b" y="131.598457"/>
     <use style="fill:#ff0000;stroke:#ff0000;" x="110.180819" xlink:href="#m671eb1495b" y="130.24817"/>
     <use style="fill:#ff0000;stroke:#ff0000;" x="111.006912" xlink:href="#m671eb1495b" y="130.24817"/>
     <use style="fill:#ff0000;stroke:#ff0000;" x="111.833005" xlink:href="#m671eb1495b" y="130.24817"/>
     <use style="fill:#ff0000;stroke:#ff0000;" x="112.659098" xlink:href="#m671eb1495b" y="116.723413"/>
     <use style="fill:#ff0000;stroke:#ff0000;" x="113.485191" xlink:href="#m671eb1495b" y="116.723413"/>
     <use style="fill:#ff0000;stroke:#ff0000;" x="114.311284" xlink:href="#m671eb1495b" y="131.910841"/>
     <use style="fill:#ff0000;stroke:#ff0000;" x="115.137377" xlink:href="#m671eb1495b" y="131.910841"/>
     <use style="fill:#ff0000;stroke:#ff0000;" x="115.96347" xlink:href="#m671eb1495b" y="146.561691"/>
     <use style="fill:#ff0000;stroke:#ff0000;" x="116.789563" xlink:href="#m671eb1495b" y="134.057705"/>
     <use style="fill:#ff0000;stroke:#ff0000;" x="117.615656" xlink:href="#m671eb1495b" y="134.057705"/>
     <use style="fill:#ff0000;stroke:#ff0000;" x="118.441749" xlink:href="#m671eb1495b" y="119.907033"/>
     <use style="fill:#ff0000;stroke:#ff0000;" x="119.267842" xlink:href="#m671eb1495b" y="119.907033"/>
     <use style="fill:#ff0000;stroke:#ff0000;" x="120.093935" xlink:href="#m671eb1495b" y="106.544909"/>
     <use style="fill:#ff0000;stroke:#ff0000;" x="120.920028" xlink:href="#m671eb1495b" y="106.544909"/>
     <use style="fill:#ff0000;stroke:#ff0000;" x="121.746121" xlink:href="#m671eb1495b" y="106.544909"/>
     <use style="fill:#ff0000;stroke:#ff0000;" x="122.572214" xlink:href="#m671eb1495b" y="92.893194"/>
     <use style="fill:#ff0000;stroke:#ff0000;" x="123.398307" xlink:href="#m671eb1495b" y="92.893194"/>
     <use style="fill:#ff0000;stroke:#ff0000;" x="124.2244" xlink:href="#m671eb1495b" y="92.893194"/>
     <use style="fill:#ff0000;stroke:#ff0000;" x="125.050493" xlink:href="#m671eb1495b" y="90.776448"/>
     <use style="fill:#ff0000;stroke:#ff0000;" x="125.876586" xlink:href="#m671eb1495b" y="90.776448"/>
     <use style="fill:#ff0000;stroke:#ff0000;" x="126.702679" xlink:href="#m671eb1495b" y="96.296665"/>
     <use style="fill:#ff0000;stroke:#ff0000;" x="127.528772" xlink:href="#m671eb1495b" y="96.296665"/>
     <use style="fill:#ff0000;stroke:#ff0000;" x="128.354865" xlink:href="#m671eb1495b" y="110.945562"/>
     <use style="fill:#ff0000;stroke:#ff0000;" x="129.180958" xlink:href="#m671eb1495b" y="110.945562"/>
     <use style="fill:#ff0000;stroke:#ff0000;" x="130.007051" xlink:href="#m671eb1495b" y="110.945562"/>
     <use style="fill:#ff0000;stroke:#ff0000;" x="130.833144" xlink:href="#m671eb1495b" y="98.013913"/>
     <use style="fill:#ff0000;stroke:#ff0000;" x="131.659237" xlink:href="#m671eb1495b" y="98.013913"/>
     <use style="fill:#ff0000;stroke:#ff0000;" x="132.48533" xlink:href="#m671eb1495b" y="111.501389"/>
     <use style="fill:#ff0000;stroke:#ff0000;" x="133.311423" xlink:href="#m671eb1495b" y="111.501389"/>
     <use style="fill:#ff0000;stroke:#ff0000;" x="134.137516" xlink:href="#m671eb1495b" y="116.733458"/>
     <use style="fill:#ff0000;stroke:#ff0000;" x="134.963609" xlink:href="#m671eb1495b" y="116.733458"/>
     <use style="fill:#ff0000;stroke:#ff0000;" x="135.789702" xlink:href="#m671eb1495b" y="116.733458"/>
     <use style="fill:#ff0000;stroke:#ff0000;" x="136.615795" xlink:href="#m671eb1495b" y="104.037468"/>
     <use style="fill:#ff0000;stroke:#ff0000;" x="137.441888" xlink:href="#m671eb1495b" y="104.037468"/>
     <use style="fill:#ff0000;stroke:#ff0000;" x="138.267981" xlink:href="#m671eb1495b" y="92.319338"/>
     <use style="fill:#ff0000;stroke:#ff0000;" x="139.094074" xlink:href="#m671eb1495b" y="92.319338"/>
     <use style="fill:#ff0000;stroke:#ff0000;" x="139.920167" xlink:href="#m671eb1495b" y="80.61114"/>
     <use style="fill:#ff0000;stroke:#ff0000;" x="140.74626" xlink:href="#m671eb1495b" y="80.779059"/>
     <use style="fill:#ff0000;stroke:#ff0000;" x="141.572353" xlink:href="#m671eb1495b" y="80.779059"/>
     <use style="fill:#ff0000;stroke:#ff0000;" x="142.398446" xlink:href="#m671eb1495b" y="80.779059"/>
     <use style="fill:#ff0000;stroke:#ff0000;" x="143.224539" xlink:href="#m671eb1495b" y="80.779059"/>
     <use style="fill:#ff0000;stroke:#ff0000;" x="144.050632" xlink:href="#m671eb1495b" y="80.779059"/>
     <use style="fill:#ff0000;stroke:#ff0000;" x="144.876724" xlink:href="#m671eb1495b" y="67.46081"/>
     <use style="fill:#ff0000;stroke:#ff0000;" x="145.702817" xlink:href="#m671eb1495b" y="82.665361"/>
     <use style="fill:#ff0000;stroke:#ff0000;" x="146.52891" xlink:href="#m671eb1495b" y="82.665361"/>
     <use style="fill:#ff0000;stroke:#ff0000;" x="147.355003" xlink:href="#m671eb1495b" y="82.665361"/>
     <use style="fill:#ff0000;stroke:#ff0000;" x="148.181096" xlink:href="#m671eb1495b" y="82.665361"/>
     <use style="fill:#ff0000;stroke:#ff0000;" x="149.007189" xlink:href="#m671eb1495b" y="82.665361"/>
     <use style="fill:#ff0000;stroke:#ff0000;" x="149.833282" xlink:href="#m671eb1495b" y="97.732646"/>
     <use style="fill:#ff0000;stroke:#ff0000;" x="150.659375" xlink:href="#m671eb1495b" y="97.732646"/>
     <use style="fill:#ff0000;stroke:#ff0000;" x="151.485468" xlink:href="#m671eb1495b" y="85.391577"/>
     <use style="fill:#ff0000;stroke:#ff0000;" x="152.311561" xlink:href="#m671eb1495b" y="85.391577"/>
     <use style="fill:#ff0000;stroke:#ff0000;" x="153.137654" xlink:href="#m671eb1495b" y="99.560156"/>
     <use style="fill:#ff0000;stroke:#ff0000;" x="153.963747" xlink:href="#m671eb1495b" y="99.560156"/>
     <use style="fill:#ff0000;stroke:#ff0000;" x="154.78984" xlink:href="#m671eb1495b" y="99.560156"/>
     <use style="fill:#ff0000;stroke:#ff0000;" x="155.615933" xlink:href="#m671eb1495b" y="87.150603"/>
     <use style="fill:#ff0000;stroke:#ff0000;" x="156.442026" xlink:href="#m671eb1495b" y="87.150603"/>
     <use style="fill:#ff0000;stroke:#ff0000;" x="157.268119" xlink:href="#m671eb1495b" y="101.477589"/>
     <use style="fill:#ff0000;stroke:#ff0000;" x="158.094212" xlink:href="#m671eb1495b" y="101.477589"/>
     <use style="fill:#ff0000;stroke:#ff0000;" x="158.920305" xlink:href="#m671eb1495b" y="116.18876"/>
     <use style="fill:#ff0000;stroke:#ff0000;" x="159.746398" xlink:href="#m671eb1495b" y="116.18876"/>
     <use style="fill:#ff0000;stroke:#ff0000;" x="160.572491" xlink:href="#m671eb1495b" y="116.18876"/>
     <use style="fill:#ff0000;stroke:#ff0000;" x="161.398584" xlink:href="#m671eb1495b" y="100.931104"/>
     <use style="fill:#ff0000;stroke:#ff0000;" x="162.224677" xlink:href="#m671eb1495b" y="117.634551"/>
     <use style="fill:#ff0000;stroke:#ff0000;" x="163.05077" xlink:href="#m671eb1495b" y="117.634551"/>
     <use style="fill:#ff0000;stroke:#ff0000;" x="163.876863" xlink:href="#m671eb1495b" y="133.300009"/>
     <use style="fill:#ff0000;stroke:#ff0000;" x="164.702956" xlink:href="#m671eb1495b" y="133.300009"/>
     <use style="fill:#ff0000;stroke:#ff0000;" x="165.529049" xlink:href="#m671eb1495b" y="133.300009"/>
     <use style="fill:#ff0000;stroke:#ff0000;" x="166.355142" xlink:href="#m671eb1495b" y="119.866389"/>
     <use style="fill:#ff0000;stroke:#ff0000;" x="167.181235" xlink:href="#m671eb1495b" y="119.866389"/>
     <use style="fill:#ff0000;stroke:#ff0000;" x="168.007328" xlink:href="#m671eb1495b" y="119.866389"/>
     <use style="fill:#ff0000;stroke:#ff0000;" x="168.833421" xlink:href="#m671eb1495b" y="119.866389"/>
     <use style="fill:#ff0000;stroke:#ff0000;" x="169.659514" xlink:href="#m671eb1495b" y="119.866389"/>
     <use style="fill:#ff0000;stroke:#ff0000;" x="170.485607" xlink:href="#m671eb1495b" y="119.866389"/>
     <use style="fill:#ff0000;stroke:#ff0000;" x="171.3117" xlink:href="#m671eb1495b" y="119.866389"/>
     <use style="fill:#ff0000;stroke:#ff0000;" x="172.137793" xlink:href="#m671eb1495b" y="119.866389"/>
     <use style="fill:#ff0000;stroke:#ff0000;" x="172.963886" xlink:href="#m671eb1495b" y="119.866389"/>
     <use style="fill:#ff0000;stroke:#ff0000;" x="173.789979" xlink:href="#m671eb1495b" y="125.649546"/>
     <use style="fill:#ff0000;stroke:#ff0000;" x="174.616072" xlink:href="#m671eb1495b" y="111.733278"/>
     <use style="fill:#ff0000;stroke:#ff0000;" x="175.442165" xlink:href="#m671eb1495b" y="111.733278"/>
     <use style="fill:#ff0000;stroke:#ff0000;" x="176.268258" xlink:href="#m671eb1495b" y="99.622494"/>
     <use style="fill:#ff0000;stroke:#ff0000;" x="177.094351" xlink:href="#m671eb1495b" y="99.622494"/>
     <use style="fill:#ff0000;stroke:#ff0000;" x="177.920444" xlink:href="#m671eb1495b" y="88.05491"/>
     <use style="fill:#ff0000;stroke:#ff0000;" x="178.746537" xlink:href="#m671eb1495b" y="88.05491"/>
     <use style="fill:#ff0000;stroke:#ff0000;" x="179.57263" xlink:href="#m671eb1495b" y="88.05491"/>
     <use style="fill:#ff0000;stroke:#ff0000;" x="180.398723" xlink:href="#m671eb1495b" y="85.555596"/>
     <use style="fill:#ff0000;stroke:#ff0000;" x="181.224816" xlink:href="#m671eb1495b" y="102.108793"/>
     <use style="fill:#ff0000;stroke:#ff0000;" x="182.050909" xlink:href="#m671eb1495b" y="102.108793"/>
     <use style="fill:#ff0000;stroke:#ff0000;" x="182.877002" xlink:href="#m671eb1495b" y="89.101786"/>
     <use style="fill:#ff0000;stroke:#ff0000;" x="183.703095" xlink:href="#m671eb1495b" y="89.101786"/>
     <use style="fill:#ff0000;stroke:#ff0000;" x="184.529188" xlink:href="#m671eb1495b" y="76.325616"/>
     <use style="fill:#ff0000;stroke:#ff0000;" x="185.355281" xlink:href="#m671eb1495b" y="76.325616"/>
     <use style="fill:#ff0000;stroke:#ff0000;" x="186.181374" xlink:href="#m671eb1495b" y="92.337642"/>
     <use style="fill:#ff0000;stroke:#ff0000;" x="187.007467" xlink:href="#m671eb1495b" y="92.337642"/>
     <use style="fill:#ff0000;stroke:#ff0000;" x="187.83356" xlink:href="#m671eb1495b" y="92.337642"/>
     <use style="fill:#ff0000;stroke:#ff0000;" x="188.659653" xlink:href="#m671eb1495b" y="95.894137"/>
     <use style="fill:#ff0000;stroke:#ff0000;" x="189.485746" xlink:href="#m671eb1495b" y="95.894137"/>
     <use style="fill:#ff0000;stroke:#ff0000;" x="190.311839" xlink:href="#m671eb1495b" y="110.751533"/>
     <use style="fill:#ff0000;stroke:#ff0000;" x="191.137932" xlink:href="#m671eb1495b" y="110.751533"/>
     <use style="fill:#ff0000;stroke:#ff0000;" x="191.964025" xlink:href="#m671eb1495b" y="96.984713"/>
     <use style="fill:#ff0000;stroke:#ff0000;" x="192.790118" xlink:href="#m671eb1495b" y="96.984713"/>
     <use style="fill:#ff0000;stroke:#ff0000;" x="193.616211" xlink:href="#m671eb1495b" y="84.361771"/>
     <use style="fill:#ff0000;stroke:#ff0000;" x="194.442304" xlink:href="#m671eb1495b" y="84.361771"/>
     <use style="fill:#ff0000;stroke:#ff0000;" x="195.268397" xlink:href="#m671eb1495b" y="72.467948"/>
     <use style="fill:#ff0000;stroke:#ff0000;" x="196.09449" xlink:href="#m671eb1495b" y="87.022134"/>
     <use style="fill:#ff0000;stroke:#ff0000;" x="196.920583" xlink:href="#m671eb1495b" y="87.022134"/>
     <use style="fill:#ff0000;stroke:#ff0000;" x="197.746676" xlink:href="#m671eb1495b" y="74.633333"/>
     <use style="fill:#ff0000;stroke:#ff0000;" x="198.572769" xlink:href="#m671eb1495b" y="74.633333"/>
     <use style="fill:#ff0000;stroke:#ff0000;" x="199.398862" xlink:href="#m671eb1495b" y="60.383228"/>
     <use style="fill:#ff0000;stroke:#ff0000;" x="200.224955" xlink:href="#m671eb1495b" y="60.383228"/>
     <use style="fill:#ff0000;stroke:#ff0000;" x="201.051048" xlink:href="#m671eb1495b" y="65.644883"/>
     <use style="fill:#ff0000;stroke:#ff0000;" x="201.877141" xlink:href="#m671eb1495b" y="65.644883"/>
     <use style="fill:#ff0000;stroke:#ff0000;" x="202.703234" xlink:href="#m671eb1495b" y="65.644883"/>
     <use style="fill:#ff0000;stroke:#ff0000;" x="203.529327" xlink:href="#m671eb1495b" y="53.568"/>
     <use style="fill:#ff0000;stroke:#ff0000;" x="204.35542" xlink:href="#m671eb1495b" y="53.568"/>
     <use style="fill:#ff0000;stroke:#ff0000;" x="205.181513" xlink:href="#m671eb1495b" y="66.427229"/>
     <use style="fill:#ff0000;stroke:#ff0000;" x="206.007606" xlink:href="#m671eb1495b" y="66.427229"/>
     <use style="fill:#ff0000;stroke:#ff0000;" x="206.833699" xlink:href="#m671eb1495b" y="82.422791"/>
     <use style="fill:#ff0000;stroke:#ff0000;" x="207.659792" xlink:href="#m671eb1495b" y="82.422791"/>
     <use style="fill:#ff0000;stroke:#ff0000;" x="208.485885" xlink:href="#m671eb1495b" y="69.989045"/>
     <use style="fill:#ff0000;stroke:#ff0000;" x="209.311978" xlink:href="#m671eb1495b" y="87.323364"/>
     <use style="fill:#ff0000;stroke:#ff0000;" x="210.138071" xlink:href="#m671eb1495b" y="87.323364"/>
     <use style="fill:#ff0000;stroke:#ff0000;" x="210.964164" xlink:href="#m671eb1495b" y="87.323364"/>
     <use style="fill:#ff0000;stroke:#ff0000;" x="211.790257" xlink:href="#m671eb1495b" y="101.821924"/>
     <use style="fill:#ff0000;stroke:#ff0000;" x="212.61635" xlink:href="#m671eb1495b" y="89.871299"/>
     <use style="fill:#ff0000;stroke:#ff0000;" x="213.442443" xlink:href="#m671eb1495b" y="89.871299"/>
     <use style="fill:#ff0000;stroke:#ff0000;" x="214.268536" xlink:href="#m671eb1495b" y="89.871299"/>
     <use style="fill:#ff0000;stroke:#ff0000;" x="215.094629" xlink:href="#m671eb1495b" y="95.444641"/>
     <use style="fill:#ff0000;stroke:#ff0000;" x="215.920722" xlink:href="#m671eb1495b" y="95.444641"/>
     <use style="fill:#ff0000;stroke:#ff0000;" x="216.746815" xlink:href="#m671eb1495b" y="83.590032"/>
     <use style="fill:#ff0000;stroke:#ff0000;" x="217.572908" xlink:href="#m671eb1495b" y="83.590032"/>
     <use style="fill:#ff0000;stroke:#ff0000;" x="218.399001" xlink:href="#m671eb1495b" y="85.428468"/>
     <use style="fill:#ff0000;stroke:#ff0000;" x="219.225094" xlink:href="#m671eb1495b" y="85.428468"/>
     <use style="fill:#ff0000;stroke:#ff0000;" x="220.051187" xlink:href="#m671eb1495b" y="85.428468"/>
     <use style="fill:#ff0000;stroke:#ff0000;" x="220.87728" xlink:href="#m671eb1495b" y="102.665333"/>
     <use style="fill:#ff0000;stroke:#ff0000;" x="221.703373" xlink:href="#m671eb1495b" y="102.665333"/>
     <use style="fill:#ff0000;stroke:#ff0000;" x="222.529466" xlink:href="#m671eb1495b" y="88.906381"/>
     <use style="fill:#ff0000;stroke:#ff0000;" x="223.355559" xlink:href="#m671eb1495b" y="103.480798"/>
     <use style="fill:#ff0000;stroke:#ff0000;" x="224.181652" xlink:href="#m671eb1495b" y="103.480798"/>
     <use style="fill:#ff0000;stroke:#ff0000;" x="225.007745" xlink:href="#m671eb1495b" y="115.766292"/>
     <use style="fill:#ff0000;stroke:#ff0000;" x="225.833838" xlink:href="#m671eb1495b" y="115.766292"/>
     <use style="fill:#ff0000;stroke:#ff0000;" x="226.659931" xlink:href="#m671eb1495b" y="116.035956"/>
     <use style="fill:#ff0000;stroke:#ff0000;" x="227.486024" xlink:href="#m671eb1495b" y="116.035956"/>
     <use style="fill:#ff0000;stroke:#ff0000;" x="228.312117" xlink:href="#m671eb1495b" y="116.035956"/>
     <use style="fill:#ff0000;stroke:#ff0000;" x="229.13821" xlink:href="#m671eb1495b" y="116.035956"/>
     <use style="fill:#ff0000;stroke:#ff0000;" x="229.964303" xlink:href="#m671eb1495b" y="116.035956"/>
     <use style="fill:#ff0000;stroke:#ff0000;" x="230.790396" xlink:href="#m671eb1495b" y="116.035956"/>
     <use style="fill:#ff0000;stroke:#ff0000;" x="231.616489" xlink:href="#m671eb1495b" y="116.035956"/>
     <use style="fill:#ff0000;stroke:#ff0000;" x="232.442582" xlink:href="#m671eb1495b" y="116.035956"/>
     <use style="fill:#ff0000;stroke:#ff0000;" x="233.268675" xlink:href="#m671eb1495b" y="116.035956"/>
     <use style="fill:#ff0000;stroke:#ff0000;" x="234.094768" xlink:href="#m671eb1495b" y="116.035956"/>
     <use style="fill:#ff0000;stroke:#ff0000;" x="234.920861" xlink:href="#m671eb1495b" y="116.035956"/>
     <use style="fill:#ff0000;stroke:#ff0000;" x="235.746954" xlink:href="#m671eb1495b" y="116.035956"/>
     <use style="fill:#ff0000;stroke:#ff0000;" x="236.573046" xlink:href="#m671eb1495b" y="116.035956"/>
     <use style="fill:#ff0000;stroke:#ff0000;" x="237.399139" xlink:href="#m671eb1495b" y="116.035956"/>
     <use style="fill:#ff0000;stroke:#ff0000;" x="238.225232" xlink:href="#m671eb1495b" y="116.035956"/>
     <use style="fill:#ff0000;stroke:#ff0000;" x="239.051325" xlink:href="#m671eb1495b" y="116.035956"/>
     <use style="fill:#ff0000;stroke:#ff0000;" x="239.877418" xlink:href="#m671eb1495b" y="116.035956"/>
     <use style="fill:#ff0000;stroke:#ff0000;" x="240.703511" xlink:href="#m671eb1495b" y="116.035956"/>
     <use style="fill:#ff0000;stroke:#ff0000;" x="241.529604" xlink:href="#m671eb1495b" y="116.035956"/>
     <use style="fill:#ff0000;stroke:#ff0000;" x="242.355697" xlink:href="#m671eb1495b" y="116.035956"/>
     <use style="fill:#ff0000;stroke:#ff0000;" x="243.18179" xlink:href="#m671eb1495b" y="116.035956"/>
     <use style="fill:#ff0000;stroke:#ff0000;" x="244.007883" xlink:href="#m671eb1495b" y="116.035956"/>
     <use style="fill:#ff0000;stroke:#ff0000;" x="244.833976" xlink:href="#m671eb1495b" y="116.035956"/>
     <use style="fill:#ff0000;stroke:#ff0000;" x="245.660069" xlink:href="#m671eb1495b" y="116.035956"/>
     <use style="fill:#ff0000;stroke:#ff0000;" x="246.486162" xlink:href="#m671eb1495b" y="116.035956"/>
     <use style="fill:#ff0000;stroke:#ff0000;" x="247.312255" xlink:href="#m671eb1495b" y="116.035956"/>
     <use style="fill:#ff0000;stroke:#ff0000;" x="248.138348" xlink:href="#m671eb1495b" y="116.035956"/>
     <use style="fill:#ff0000;stroke:#ff0000;" x="248.964441" xlink:href="#m671eb1495b" y="116.035956"/>
     <use style="fill:#ff0000;stroke:#ff0000;" x="249.790534" xlink:href="#m671eb1495b" y="116.035956"/>
     <use style="fill:#ff0000;stroke:#ff0000;" x="250.616627" xlink:href="#m671eb1495b" y="116.035956"/>
     <use style="fill:#ff0000;stroke:#ff0000;" x="251.44272" xlink:href="#m671eb1495b" y="116.035956"/>
     <use style="fill:#ff0000;stroke:#ff0000;" x="252.268813" xlink:href="#m671eb1495b" y="116.035956"/>
     <use style="fill:#ff0000;stroke:#ff0000;" x="253.094906" xlink:href="#m671eb1495b" y="116.035956"/>
     <use style="fill:#ff0000;stroke:#ff0000;" x="253.920999" xlink:href="#m671eb1495b" y="116.035956"/>
     <use style="fill:#ff0000;stroke:#ff0000;" x="254.747092" xlink:href="#m671eb1495b" y="116.035956"/>
     <use style="fill:#ff0000;stroke:#ff0000;" x="255.573185" xlink:href="#m671eb1495b" y="116.035956"/>
     <use style="fill:#ff0000;stroke:#ff0000;" x="256.399278" xlink:href="#m671eb1495b" y="116.035956"/>
     <use style="fill:#ff0000;stroke:#ff0000;" x="257.225371" xlink:href="#m671eb1495b" y="116.035956"/>
     <use style="fill:#ff0000;stroke:#ff0000;" x="258.051464" xlink:href="#m671eb1495b" y="116.035956"/>
     <use style="fill:#ff0000;stroke:#ff0000;" x="258.877557" xlink:href="#m671eb1495b" y="116.035956"/>
     <use style="fill:#ff0000;stroke:#ff0000;" x="259.70365" xlink:href="#m671eb1495b" y="116.035956"/>
     <use style="fill:#ff0000;stroke:#ff0000;" x="260.529743" xlink:href="#m671eb1495b" y="116.035956"/>
     <use style="fill:#ff0000;stroke:#ff0000;" x="261.355836" xlink:href="#m671eb1495b" y="116.035956"/>
     <use style="fill:#ff0000;stroke:#ff0000;" x="262.181929" xlink:href="#m671eb1495b" y="116.035956"/>
     <use style="fill:#ff0000;stroke:#ff0000;" x="263.008022" xlink:href="#m671eb1495b" y="116.035956"/>
     <use style="fill:#ff0000;stroke:#ff0000;" x="263.834115" xlink:href="#m671eb1495b" y="116.035956"/>
     <use style="fill:#ff0000;stroke:#ff0000;" x="264.660208" xlink:href="#m671eb1495b" y="116.035956"/>
     <use style="fill:#ff0000;stroke:#ff0000;" x="265.486301" xlink:href="#m671eb1495b" y="116.035956"/>
     <use style="fill:#ff0000;stroke:#ff0000;" x="266.312394" xlink:href="#m671eb1495b" y="116.035956"/>
     <use style="fill:#ff0000;stroke:#ff0000;" x="267.138487" xlink:href="#m671eb1495b" y="116.035956"/>
     <use style="fill:#ff0000;stroke:#ff0000;" x="267.96458" xlink:href="#m671eb1495b" y="116.035956"/>
     <use style="fill:#ff0000;stroke:#ff0000;" x="268.790673" xlink:href="#m671eb1495b" y="116.035956"/>
     <use style="fill:#ff0000;stroke:#ff0000;" x="269.616766" xlink:href="#m671eb1495b" y="116.035956"/>
     <use style="fill:#ff0000;stroke:#ff0000;" x="270.442859" xlink:href="#m671eb1495b" y="116.035956"/>
     <use style="fill:#ff0000;stroke:#ff0000;" x="271.268952" xlink:href="#m671eb1495b" y="116.035956"/>
     <use style="fill:#ff0000;stroke:#ff0000;" x="272.095045" xlink:href="#m671eb1495b" y="116.035956"/>
     <use style="fill:#ff0000;stroke:#ff0000;" x="272.921138" xlink:href="#m671eb1495b" y="116.035956"/>
     <use style="fill:#ff0000;stroke:#ff0000;" x="273.747231" xlink:href="#m671eb1495b" y="116.035956"/>
     <use style="fill:#ff0000;stroke:#ff0000;" x="274.573324" xlink:href="#m671eb1495b" y="116.035956"/>
     <use style="fill:#ff0000;stroke:#ff0000;" x="275.399417" xlink:href="#m671eb1495b" y="116.035956"/>
     <use style="fill:#ff0000;stroke:#ff0000;" x="276.22551" xlink:href="#m671eb1495b" y="116.035956"/>
     <use style="fill:#ff0000;stroke:#ff0000;" x="277.051603" xlink:href="#m671eb1495b" y="116.035956"/>
     <use style="fill:#ff0000;stroke:#ff0000;" x="277.877696" xlink:href="#m671eb1495b" y="116.035956"/>
     <use style="fill:#ff0000;stroke:#ff0000;" x="278.703789" xlink:href="#m671eb1495b" y="116.035956"/>
     <use style="fill:#ff0000;stroke:#ff0000;" x="279.529882" xlink:href="#m671eb1495b" y="116.035956"/>
     <use style="fill:#ff0000;stroke:#ff0000;" x="280.355975" xlink:href="#m671eb1495b" y="116.035956"/>
     <use style="fill:#ff0000;stroke:#ff0000;" x="281.182068" xlink:href="#m671eb1495b" y="116.035956"/>
     <use style="fill:#ff0000;stroke:#ff0000;" x="282.008161" xlink:href="#m671eb1495b" y="116.035956"/>
     <use style="fill:#ff0000;stroke:#ff0000;" x="282.834254" xlink:href="#m671eb1495b" y="116.035956"/>
     <use style="fill:#ff0000;stroke:#ff0000;" x="283.660347" xlink:href="#m671eb1495b" y="116.035956"/>
     <use style="fill:#ff0000;stroke:#ff0000;" x="284.48644" xlink:href="#m671eb1495b" y="116.035956"/>
     <use style="fill:#ff0000;stroke:#ff0000;" x="285.312533" xlink:href="#m671eb1495b" y="116.035956"/>
     <use style="fill:#ff0000;stroke:#ff0000;" x="286.138626" xlink:href="#m671eb1495b" y="116.035956"/>
     <use style="fill:#ff0000;stroke:#ff0000;" x="286.964719" xlink:href="#m671eb1495b" y="116.035956"/>
     <use style="fill:#ff0000;stroke:#ff0000;" x="287.790812" xlink:href="#m671eb1495b" y="116.035956"/>
     <use style="fill:#ff0000;stroke:#ff0000;" x="288.616905" xlink:href="#m671eb1495b" y="116.035956"/>
     <use style="fill:#ff0000;stroke:#ff0000;" x="289.442998" xlink:href="#m671eb1495b" y="116.035956"/>
     <use style="fill:#ff0000;stroke:#ff0000;" x="290.269091" xlink:href="#m671eb1495b" y="116.035956"/>
     <use style="fill:#ff0000;stroke:#ff0000;" x="291.095184" xlink:href="#m671eb1495b" y="116.035956"/>
     <use style="fill:#ff0000;stroke:#ff0000;" x="291.921277" xlink:href="#m671eb1495b" y="116.035956"/>
     <use style="fill:#ff0000;stroke:#ff0000;" x="292.74737" xlink:href="#m671eb1495b" y="116.035956"/>
     <use style="fill:#ff0000;stroke:#ff0000;" x="293.573463" xlink:href="#m671eb1495b" y="116.035956"/>
     <use style="fill:#ff0000;stroke:#ff0000;" x="294.399556" xlink:href="#m671eb1495b" y="116.035956"/>
     <use style="fill:#ff0000;stroke:#ff0000;" x="295.225649" xlink:href="#m671eb1495b" y="116.035956"/>
     <use style="fill:#ff0000;stroke:#ff0000;" x="296.051742" xlink:href="#m671eb1495b" y="116.035956"/>
     <use style="fill:#ff0000;stroke:#ff0000;" x="296.877835" xlink:href="#m671eb1495b" y="116.035956"/>
     <use style="fill:#ff0000;stroke:#ff0000;" x="297.703928" xlink:href="#m671eb1495b" y="116.035956"/>
     <use style="fill:#ff0000;stroke:#ff0000;" x="298.530021" xlink:href="#m671eb1495b" y="116.035956"/>
     <use style="fill:#ff0000;stroke:#ff0000;" x="299.356114" xlink:href="#m671eb1495b" y="116.035956"/>
     <use style="fill:#ff0000;stroke:#ff0000;" x="300.182207" xlink:href="#m671eb1495b" y="116.035956"/>
     <use style="fill:#ff0000;stroke:#ff0000;" x="301.0083" xlink:href="#m671eb1495b" y="116.035956"/>
     <use style="fill:#ff0000;stroke:#ff0000;" x="301.834393" xlink:href="#m671eb1495b" y="116.035956"/>
     <use style="fill:#ff0000;stroke:#ff0000;" x="302.660486" xlink:href="#m671eb1495b" y="116.035956"/>
     <use style="fill:#ff0000;stroke:#ff0000;" x="303.486579" xlink:href="#m671eb1495b" y="116.035956"/>
     <use style="fill:#ff0000;stroke:#ff0000;" x="304.312672" xlink:href="#m671eb1495b" y="116.035956"/>
     <use style="fill:#ff0000;stroke:#ff0000;" x="305.138765" xlink:href="#m671eb1495b" y="116.035956"/>
     <use style="fill:#ff0000;stroke:#ff0000;" x="305.964858" xlink:href="#m671eb1495b" y="116.035956"/>
     <use style="fill:#ff0000;stroke:#ff0000;" x="306.790951" xlink:href="#m671eb1495b" y="116.035956"/>
     <use style="fill:#ff0000;stroke:#ff0000;" x="307.617044" xlink:href="#m671eb1495b" y="116.035956"/>
     <use style="fill:#ff0000;stroke:#ff0000;" x="308.443137" xlink:href="#m671eb1495b" y="116.035956"/>
     <use style="fill:#ff0000;stroke:#ff0000;" x="309.26923" xlink:href="#m671eb1495b" y="116.035956"/>
     <use style="fill:#ff0000;stroke:#ff0000;" x="310.095323" xlink:href="#m671eb1495b" y="116.035956"/>
     <use style="fill:#ff0000;stroke:#ff0000;" x="310.921416" xlink:href="#m671eb1495b" y="116.035956"/>
     <use style="fill:#ff0000;stroke:#ff0000;" x="311.747509" xlink:href="#m671eb1495b" y="116.035956"/>
     <use style="fill:#ff0000;stroke:#ff0000;" x="312.573602" xlink:href="#m671eb1495b" y="116.035956"/>
     <use style="fill:#ff0000;stroke:#ff0000;" x="313.399695" xlink:href="#m671eb1495b" y="116.035956"/>
     <use style="fill:#ff0000;stroke:#ff0000;" x="314.225788" xlink:href="#m671eb1495b" y="116.035956"/>
     <use style="fill:#ff0000;stroke:#ff0000;" x="315.051881" xlink:href="#m671eb1495b" y="116.035956"/>
     <use style="fill:#ff0000;stroke:#ff0000;" x="315.877974" xlink:href="#m671eb1495b" y="116.035956"/>
     <use style="fill:#ff0000;stroke:#ff0000;" x="316.704067" xlink:href="#m671eb1495b" y="116.035956"/>
     <use style="fill:#ff0000;stroke:#ff0000;" x="317.53016" xlink:href="#m671eb1495b" y="116.035956"/>
     <use style="fill:#ff0000;stroke:#ff0000;" x="318.356253" xlink:href="#m671eb1495b" y="116.035956"/>
     <use style="fill:#ff0000;stroke:#ff0000;" x="319.182346" xlink:href="#m671eb1495b" y="116.035956"/>
     <use style="fill:#ff0000;stroke:#ff0000;" x="320.008439" xlink:href="#m671eb1495b" y="116.035956"/>
     <use style="fill:#ff0000;stroke:#ff0000;" x="320.834532" xlink:href="#m671eb1495b" y="116.035956"/>
     <use style="fill:#ff0000;stroke:#ff0000;" x="321.660625" xlink:href="#m671eb1495b" y="116.035956"/>
     <use style="fill:#ff0000;stroke:#ff0000;" x="322.486718" xlink:href="#m671eb1495b" y="116.035956"/>
     <use style="fill:#ff0000;stroke:#ff0000;" x="323.312811" xlink:href="#m671eb1495b" y="116.035956"/>
     <use style="fill:#ff0000;stroke:#ff0000;" x="324.138904" xlink:href="#m671eb1495b" y="116.035956"/>
     <use style="fill:#ff0000;stroke:#ff0000;" x="324.964997" xlink:href="#m671eb1495b" y="116.035956"/>
     <use style="fill:#ff0000;stroke:#ff0000;" x="325.79109" xlink:href="#m671eb1495b" y="116.035956"/>
     <use style="fill:#ff0000;stroke:#ff0000;" x="326.617183" xlink:href="#m671eb1495b" y="116.035956"/>
     <use style="fill:#ff0000;stroke:#ff0000;" x="327.443276" xlink:href="#m671eb1495b" y="116.035956"/>
     <use style="fill:#ff0000;stroke:#ff0000;" x="328.269368" xlink:href="#m671eb1495b" y="116.035956"/>
     <use style="fill:#ff0000;stroke:#ff0000;" x="329.095461" xlink:href="#m671eb1495b" y="116.035956"/>
     <use style="fill:#ff0000;stroke:#ff0000;" x="329.921554" xlink:href="#m671eb1495b" y="116.035956"/>
     <use style="fill:#ff0000;stroke:#ff0000;" x="330.747647" xlink:href="#m671eb1495b" y="116.035956"/>
     <use style="fill:#ff0000;stroke:#ff0000;" x="331.57374" xlink:href="#m671eb1495b" y="116.035956"/>
     <use style="fill:#ff0000;stroke:#ff0000;" x="332.399833" xlink:href="#m671eb1495b" y="116.035956"/>
     <use style="fill:#ff0000;stroke:#ff0000;" x="333.225926" xlink:href="#m671eb1495b" y="116.035956"/>
     <use style="fill:#ff0000;stroke:#ff0000;" x="334.052019" xlink:href="#m671eb1495b" y="116.035956"/>
     <use style="fill:#ff0000;stroke:#ff0000;" x="334.878112" xlink:href="#m671eb1495b" y="116.035956"/>
     <use style="fill:#ff0000;stroke:#ff0000;" x="335.704205" xlink:href="#m671eb1495b" y="116.035956"/>
     <use style="fill:#ff0000;stroke:#ff0000;" x="336.530298" xlink:href="#m671eb1495b" y="116.035956"/>
     <use style="fill:#ff0000;stroke:#ff0000;" x="337.356391" xlink:href="#m671eb1495b" y="116.035956"/>
     <use style="fill:#ff0000;stroke:#ff0000;" x="338.182484" xlink:href="#m671eb1495b" y="116.035956"/>
     <use style="fill:#ff0000;stroke:#ff0000;" x="339.008577" xlink:href="#m671eb1495b" y="116.035956"/>
     <use style="fill:#ff0000;stroke:#ff0000;" x="339.83467" xlink:href="#m671eb1495b" y="116.035956"/>
     <use style="fill:#ff0000;stroke:#ff0000;" x="340.660763" xlink:href="#m671eb1495b" y="116.035956"/>
     <use style="fill:#ff0000;stroke:#ff0000;" x="341.486856" xlink:href="#m671eb1495b" y="116.035956"/>
     <use style="fill:#ff0000;stroke:#ff0000;" x="342.312949" xlink:href="#m671eb1495b" y="116.035956"/>
     <use style="fill:#ff0000;stroke:#ff0000;" x="343.139042" xlink:href="#m671eb1495b" y="116.035956"/>
     <use style="fill:#ff0000;stroke:#ff0000;" x="343.965135" xlink:href="#m671eb1495b" y="116.035956"/>
     <use style="fill:#ff0000;stroke:#ff0000;" x="344.791228" xlink:href="#m671eb1495b" y="116.035956"/>
     <use style="fill:#ff0000;stroke:#ff0000;" x="345.617321" xlink:href="#m671eb1495b" y="116.035956"/>
     <use style="fill:#ff0000;stroke:#ff0000;" x="346.443414" xlink:href="#m671eb1495b" y="116.035956"/>
     <use style="fill:#ff0000;stroke:#ff0000;" x="347.269507" xlink:href="#m671eb1495b" y="116.035956"/>
     <use style="fill:#ff0000;stroke:#ff0000;" x="348.0956" xlink:href="#m671eb1495b" y="116.035956"/>
     <use style="fill:#ff0000;stroke:#ff0000;" x="348.921693" xlink:href="#m671eb1495b" y="116.035956"/>
     <use style="fill:#ff0000;stroke:#ff0000;" x="349.747786" xlink:href="#m671eb1495b" y="116.035956"/>
     <use style="fill:#ff0000;stroke:#ff0000;" x="350.573879" xlink:href="#m671eb1495b" y="116.035956"/>
     <use style="fill:#ff0000;stroke:#ff0000;" x="351.399972" xlink:href="#m671eb1495b" y="116.035956"/>
     <use style="fill:#ff0000;stroke:#ff0000;" x="352.226065" xlink:href="#m671eb1495b" y="116.035956"/>
     <use style="fill:#ff0000;stroke:#ff0000;" x="353.052158" xlink:href="#m671eb1495b" y="116.035956"/>
     <use style="fill:#ff0000;stroke:#ff0000;" x="353.878251" xlink:href="#m671eb1495b" y="116.035956"/>
     <use style="fill:#ff0000;stroke:#ff0000;" x="354.704344" xlink:href="#m671eb1495b" y="116.035956"/>
     <use style="fill:#ff0000;stroke:#ff0000;" x="355.530437" xlink:href="#m671eb1495b" y="116.035956"/>
     <use style="fill:#ff0000;stroke:#ff0000;" x="356.35653" xlink:href="#m671eb1495b" y="116.035956"/>
     <use style="fill:#ff0000;stroke:#ff0000;" x="357.182623" xlink:href="#m671eb1495b" y="116.035956"/>
     <use style="fill:#ff0000;stroke:#ff0000;" x="358.008716" xlink:href="#m671eb1495b" y="116.035956"/>
     <use style="fill:#ff0000;stroke:#ff0000;" x="358.834809" xlink:href="#m671eb1495b" y="116.035956"/>
     <use style="fill:#ff0000;stroke:#ff0000;" x="359.660902" xlink:href="#m671eb1495b" y="116.035956"/>
     <use style="fill:#ff0000;stroke:#ff0000;" x="360.486995" xlink:href="#m671eb1495b" y="116.035956"/>
     <use style="fill:#ff0000;stroke:#ff0000;" x="361.313088" xlink:href="#m671eb1495b" y="116.035956"/>
     <use style="fill:#ff0000;stroke:#ff0000;" x="362.139181" xlink:href="#m671eb1495b" y="116.035956"/>
     <use style="fill:#ff0000;stroke:#ff0000;" x="362.965274" xlink:href="#m671eb1495b" y="116.035956"/>
     <use style="fill:#ff0000;stroke:#ff0000;" x="363.791367" xlink:href="#m671eb1495b" y="116.035956"/>
     <use style="fill:#ff0000;stroke:#ff0000;" x="364.61746" xlink:href="#m671eb1495b" y="116.035956"/>
     <use style="fill:#ff0000;stroke:#ff0000;" x="365.443553" xlink:href="#m671eb1495b" y="116.035956"/>
     <use style="fill:#ff0000;stroke:#ff0000;" x="366.269646" xlink:href="#m671eb1495b" y="116.035956"/>
     <use style="fill:#ff0000;stroke:#ff0000;" x="367.095739" xlink:href="#m671eb1495b" y="116.035956"/>
     <use style="fill:#ff0000;stroke:#ff0000;" x="367.921832" xlink:href="#m671eb1495b" y="116.035956"/>
     <use style="fill:#ff0000;stroke:#ff0000;" x="368.747925" xlink:href="#m671eb1495b" y="116.035956"/>
     <use style="fill:#ff0000;stroke:#ff0000;" x="369.574018" xlink:href="#m671eb1495b" y="116.035956"/>
     <use style="fill:#ff0000;stroke:#ff0000;" x="370.400111" xlink:href="#m671eb1495b" y="116.035956"/>
     <use style="fill:#ff0000;stroke:#ff0000;" x="371.226204" xlink:href="#m671eb1495b" y="116.035956"/>
     <use style="fill:#ff0000;stroke:#ff0000;" x="372.052297" xlink:href="#m671eb1495b" y="116.035956"/>
     <use style="fill:#ff0000;stroke:#ff0000;" x="372.87839" xlink:href="#m671eb1495b" y="116.035956"/>
     <use style="fill:#ff0000;stroke:#ff0000;" x="373.704483" xlink:href="#m671eb1495b" y="116.035956"/>
     <use style="fill:#ff0000;stroke:#ff0000;" x="374.530576" xlink:href="#m671eb1495b" y="116.035956"/>
     <use style="fill:#ff0000;stroke:#ff0000;" x="375.356669" xlink:href="#m671eb1495b" y="116.035956"/>
     <use style="fill:#ff0000;stroke:#ff0000;" x="376.182762" xlink:href="#m671eb1495b" y="116.035956"/>
     <use style="fill:#ff0000;stroke:#ff0000;" x="377.008855" xlink:href="#m671eb1495b" y="116.035956"/>
     <use style="fill:#ff0000;stroke:#ff0000;" x="377.834948" xlink:href="#m671eb1495b" y="116.035956"/>
     <use style="fill:#ff0000;stroke:#ff0000;" x="378.661041" xlink:href="#m671eb1495b" y="116.035956"/>
     <use style="fill:#ff0000;stroke:#ff0000;" x="379.487134" xlink:href="#m671eb1495b" y="116.035956"/>
     <use style="fill:#ff0000;stroke:#ff0000;" x="380.313227" xlink:href="#m671eb1495b" y="116.035956"/>
     <use style="fill:#ff0000;stroke:#ff0000;" x="381.13932" xlink:href="#m671eb1495b" y="116.035956"/>
     <use style="fill:#ff0000;stroke:#ff0000;" x="381.965413" xlink:href="#m671eb1495b" y="116.035956"/>
     <use style="fill:#ff0000;stroke:#ff0000;" x="382.791506" xlink:href="#m671eb1495b" y="116.035956"/>
     <use style="fill:#ff0000;stroke:#ff0000;" x="383.617599" xlink:href="#m671eb1495b" y="116.035956"/>
     <use style="fill:#ff0000;stroke:#ff0000;" x="384.443692" xlink:href="#m671eb1495b" y="116.035956"/>
     <use style="fill:#ff0000;stroke:#ff0000;" x="385.269785" xlink:href="#m671eb1495b" y="116.035956"/>
     <use style="fill:#ff0000;stroke:#ff0000;" x="386.095878" xlink:href="#m671eb1495b" y="116.035956"/>
     <use style="fill:#ff0000;stroke:#ff0000;" x="386.921971" xlink:href="#m671eb1495b" y="116.035956"/>
     <use style="fill:#ff0000;stroke:#ff0000;" x="387.748064" xlink:href="#m671eb1495b" y="116.035956"/>
     <use style="fill:#ff0000;stroke:#ff0000;" x="388.574157" xlink:href="#m671eb1495b" y="116.035956"/>
     <use style="fill:#ff0000;stroke:#ff0000;" x="389.40025" xlink:href="#m671eb1495b" y="116.035956"/>
     <use style="fill:#ff0000;stroke:#ff0000;" x="390.226343" xlink:href="#m671eb1495b" y="116.035956"/>
     <use style="fill:#ff0000;stroke:#ff0000;" x="391.052436" xlink:href="#m671eb1495b" y="116.035956"/>
     <use style="fill:#ff0000;stroke:#ff0000;" x="391.878529" xlink:href="#m671eb1495b" y="116.035956"/>
     <use style="fill:#ff0000;stroke:#ff0000;" x="392.704622" xlink:href="#m671eb1495b" y="116.035956"/>
     <use style="fill:#ff0000;stroke:#ff0000;" x="393.530715" xlink:href="#m671eb1495b" y="116.035956"/>
     <use style="fill:#ff0000;stroke:#ff0000;" x="394.356808" xlink:href="#m671eb1495b" y="116.035956"/>
     <use style="fill:#ff0000;stroke:#ff0000;" x="395.182901" xlink:href="#m671eb1495b" y="116.035956"/>
     <use style="fill:#ff0000;stroke:#ff0000;" x="396.008994" xlink:href="#m671eb1495b" y="116.035956"/>
     <use style="fill:#ff0000;stroke:#ff0000;" x="396.835087" xlink:href="#m671eb1495b" y="116.035956"/>
     <use style="fill:#ff0000;stroke:#ff0000;" x="397.66118" xlink:href="#m671eb1495b" y="116.035956"/>
     <use style="fill:#ff0000;stroke:#ff0000;" x="398.487273" xlink:href="#m671eb1495b" y="116.035956"/>
    </g>
   </g>
   <g id="patch_3">
    <path d="M 57.6 307.584 
L 57.6 41.472 
" style="fill:none;stroke:#000000;stroke-linecap:square;stroke-linejoin:miter;stroke-width:0.8;"/>
   </g>
   <g id="patch_4">
    <path d="M 414.72 307.584 
L 414.72 41.472 
" style="fill:none;stroke:#000000;stroke-linecap:square;stroke-linejoin:miter;stroke-width:0.8;"/>
   </g>
   <g id="patch_5">
    <path d="M 57.6 307.584 
L 414.72 307.584 
" style="fill:none;stroke:#000000;stroke-linecap:square;stroke-linejoin:miter;stroke-width:0.8;"/>
   </g>
   <g id="patch_6">
    <path d="M 57.6 41.472 
L 414.72 41.472 
" style="fill:none;stroke:#000000;stroke-linecap:square;stroke-linejoin:miter;stroke-width:0.8;"/>
   </g>
  </g>
 </g>
 <defs>
  <clipPath id="p81e077da75">
   <rect height="266.112" width="357.12" x="57.6" y="41.472"/>
  </clipPath>
 </defs>
</svg>
