<?xml version="1.0" encoding="utf-8" standalone="no"?>
<!DOCTYPE svg PUBLIC "-//W3C//DTD SVG 1.1//EN"
  "http://www.w3.org/Graphics/SVG/1.1/DTD/svg11.dtd">
<!-- Created with matplotlib (https://matplotlib.org/) -->
<svg height="345.6pt" version="1.1" viewBox="0 0 460.8 345.6" width="460.8pt" xmlns="http://www.w3.org/2000/svg" xmlns:xlink="http://www.w3.org/1999/xlink">
 <defs>
  <style type="text/css">
*{stroke-linecap:butt;stroke-linejoin:round;}
  </style>
 </defs>
 <g id="figure_1">
  <g id="patch_1">
   <path d="M 0 345.6 
L 460.8 345.6 
L 460.8 0 
L 0 0 
z
" style="fill:#ffffff;"/>
  </g>
  <g id="axes_1">
   <g id="patch_2">
    <path d="M 57.6 307.584 
L 414.72 307.584 
L 414.72 41.472 
L 57.6 41.472 
z
" style="fill:#ffffff;"/>
   </g>
   <g id="line2d_1">
    <path clip-path="url(#ped7eef9f5f)" d="M 73.832727 246.526415 
L 79.958285 260.142162 
L 86.083842 191.4756 
L 92.2094 191.4756 
L 98.334957 127.520057 
L 104.460515 127.520057 
L 110.586072 62.072376 
L 116.71163 62.072376 
L 122.837187 62.072376 
L 128.962744 62.072376 
L 135.088302 53.568 
L 141.213859 125.784675 
L 147.339417 125.784675 
L 153.464974 196.428581 
L 159.590532 196.428581 
L 165.716089 196.428581 
L 171.841647 196.428581 
L 177.967204 261.720329 
L 184.092762 261.720329 
L 190.218319 200.023078 
L 196.343877 200.023078 
L 202.469434 200.023078 
L 208.594991 200.023078 
L 214.720549 199.20685 
L 220.846106 199.20685 
L 226.971664 222.699147 
L 233.097221 222.699147 
L 239.222779 244.134657 
L 245.348336 244.134657 
L 251.473894 244.134657 
L 257.599451 248.713386 
L 263.725009 272.404894 
L 269.850566 272.404894 
L 275.976123 272.404894 
L 282.101681 295.488 
L 288.227238 295.488 
L 294.352796 272.620099 
L 300.478353 272.620099 
L 306.603911 275.048017 
L 312.729468 275.048017 
L 318.855026 270.814162 
L 324.980583 270.814162 
L 331.106141 270.814162 
L 337.231698 270.814162 
L 343.357256 270.814162 
L 349.482813 292.807098 
L 355.60837 269.792585 
L 361.733928 269.792585 
L 367.859485 269.792585 
L 373.985043 245.25416 
L 380.1106 245.25416 
L 386.236158 224.299452 
L 392.361715 247.08734 
L 398.487273 247.08734 
" style="fill:none;stroke:#ff0000;stroke-linecap:square;stroke-width:12;"/>
    <defs>
     <path d="M 0 3 
C 0.795609 3 1.55874 2.683901 2.12132 2.12132 
C 2.683901 1.55874 3 0.795609 3 0 
C 3 -0.795609 2.683901 -1.55874 2.12132 -2.12132 
C 1.55874 -2.683901 0.795609 -3 0 -3 
C -0.795609 -3 -1.55874 -2.683901 -2.12132 -2.12132 
C -2.683901 -1.55874 -3 -0.795609 -3 0 
C -3 0.795609 -2.683901 1.55874 -2.12132 2.12132 
C -1.55874 2.683901 -0.795609 3 0 3 
z
" id="m6b505576db" style="stroke:#ff0000;"/>
    </defs>
    <g clip-path="url(#ped7eef9f5f)">
     <use style="fill:#ff0000;stroke:#ff0000;" x="73.832727" xlink:href="#m6b505576db" y="246.526415"/>
     <use style="fill:#ff0000;stroke:#ff0000;" x="79.958285" xlink:href="#m6b505576db" y="260.142162"/>
     <use style="fill:#ff0000;stroke:#ff0000;" x="86.083842" xlink:href="#m6b505576db" y="191.4756"/>
     <use style="fill:#ff0000;stroke:#ff0000;" x="92.2094" xlink:href="#m6b505576db" y="191.4756"/>
     <use style="fill:#ff0000;stroke:#ff0000;" x="98.334957" xlink:href="#m6b505576db" y="127.520057"/>
     <use style="fill:#ff0000;stroke:#ff0000;" x="104.460515" xlink:href="#m6b505576db" y="127.520057"/>
     <use style="fill:#ff0000;stroke:#ff0000;" x="110.586072" xlink:href="#m6b505576db" y="62.072376"/>
     <use style="fill:#ff0000;stroke:#ff0000;" x="116.71163" xlink:href="#m6b505576db" y="62.072376"/>
     <use style="fill:#ff0000;stroke:#ff0000;" x="122.837187" xlink:href="#m6b505576db" y="62.072376"/>
     <use style="fill:#ff0000;stroke:#ff0000;" x="128.962744" xlink:href="#m6b505576db" y="62.072376"/>
     <use style="fill:#ff0000;stroke:#ff0000;" x="135.088302" xlink:href="#m6b505576db" y="53.568"/>
     <use style="fill:#ff0000;stroke:#ff0000;" x="141.213859" xlink:href="#m6b505576db" y="125.784675"/>
     <use style="fill:#ff0000;stroke:#ff0000;" x="147.339417" xlink:href="#m6b505576db" y="125.784675"/>
     <use style="fill:#ff0000;stroke:#ff0000;" x="153.464974" xlink:href="#m6b505576db" y="196.428581"/>
     <use style="fill:#ff0000;stroke:#ff0000;" x="159.590532" xlink:href="#m6b505576db" y="196.428581"/>
     <use style="fill:#ff0000;stroke:#ff0000;" x="165.716089" xlink:href="#m6b505576db" y="196.428581"/>
     <use style="fill:#ff0000;stroke:#ff0000;" x="171.841647" xlink:href="#m6b505576db" y="196.428581"/>
     <use style="fill:#ff0000;stroke:#ff0000;" x="177.967204" xlink:href="#m6b505576db" y="261.720329"/>
     <use style="fill:#ff0000;stroke:#ff0000;" x="184.092762" xlink:href="#m6b505576db" y="261.720329"/>
     <use style="fill:#ff0000;stroke:#ff0000;" x="190.218319" xlink:href="#m6b505576db" y="200.023078"/>
     <use style="fill:#ff0000;stroke:#ff0000;" x="196.343877" xlink:href="#m6b505576db" y="200.023078"/>
     <use style="fill:#ff0000;stroke:#ff0000;" x="202.469434" xlink:href="#m6b505576db" y="200.023078"/>
     <use style="fill:#ff0000;stroke:#ff0000;" x="208.594991" xlink:href="#m6b505576db" y="200.023078"/>
     <use style="fill:#ff0000;stroke:#ff0000;" x="214.720549" xlink:href="#m6b505576db" y="199.20685"/>
     <use style="fill:#ff0000;stroke:#ff0000;" x="220.846106" xlink:href="#m6b505576db" y="199.20685"/>
     <use style="fill:#ff0000;stroke:#ff0000;" x="226.971664" xlink:href="#m6b505576db" y="222.699147"/>
     <use style="fill:#ff0000;stroke:#ff0000;" x="233.097221" xlink:href="#m6b505576db" y="222.699147"/>
     <use style="fill:#ff0000;stroke:#ff0000;" x="239.222779" xlink:href="#m6b505576db" y="244.134657"/>
     <use style="fill:#ff0000;stroke:#ff0000;" x="245.348336" xlink:href="#m6b505576db" y="244.134657"/>
     <use style="fill:#ff0000;stroke:#ff0000;" x="251.473894" xlink:href="#m6b505576db" y="244.134657"/>
     <use style="fill:#ff0000;stroke:#ff0000;" x="257.599451" xlink:href="#m6b505576db" y="248.713386"/>
     <use style="fill:#ff0000;stroke:#ff0000;" x="263.725009" xlink:href="#m6b505576db" y="272.404894"/>
     <use style="fill:#ff0000;stroke:#ff0000;" x="269.850566" xlink:href="#m6b505576db" y="272.404894"/>
     <use style="fill:#ff0000;stroke:#ff0000;" x="275.976123" xlink:href="#m6b505576db" y="272.404894"/>
     <use style="fill:#ff0000;stroke:#ff0000;" x="282.101681" xlink:href="#m6b505576db" y="295.488"/>
     <use style="fill:#ff0000;stroke:#ff0000;" x="288.227238" xlink:href="#m6b505576db" y="295.488"/>
     <use style="fill:#ff0000;stroke:#ff0000;" x="294.352796" xlink:href="#m6b505576db" y="272.620099"/>
     <use style="fill:#ff0000;stroke:#ff0000;" x="300.478353" xlink:href="#m6b505576db" y="272.620099"/>
     <use style="fill:#ff0000;stroke:#ff0000;" x="306.603911" xlink:href="#m6b505576db" y="275.048017"/>
     <use style="fill:#ff0000;stroke:#ff0000;" x="312.729468" xlink:href="#m6b505576db" y="275.048017"/>
     <use style="fill:#ff0000;stroke:#ff0000;" x="318.855026" xlink:href="#m6b505576db" y="270.814162"/>
     <use style="fill:#ff0000;stroke:#ff0000;" x="324.980583" xlink:href="#m6b505576db" y="270.814162"/>
     <use style="fill:#ff0000;stroke:#ff0000;" x="331.106141" xlink:href="#m6b505576db" y="270.814162"/>
     <use style="fill:#ff0000;stroke:#ff0000;" x="337.231698" xlink:href="#m6b505576db" y="270.814162"/>
     <use style="fill:#ff0000;stroke:#ff0000;" x="343.357256" xlink:href="#m6b505576db" y="270.814162"/>
     <use style="fill:#ff0000;stroke:#ff0000;" x="349.482813" xlink:href="#m6b505576db" y="292.807098"/>
     <use style="fill:#ff0000;stroke:#ff0000;" x="355.60837" xlink:href="#m6b505576db" y="269.792585"/>
     <use style="fill:#ff0000;stroke:#ff0000;" x="361.733928" xlink:href="#m6b505576db" y="269.792585"/>
     <use style="fill:#ff0000;stroke:#ff0000;" x="367.859485" xlink:href="#m6b505576db" y="269.792585"/>
     <use style="fill:#ff0000;stroke:#ff0000;" x="373.985043" xlink:href="#m6b505576db" y="245.25416"/>
     <use style="fill:#ff0000;stroke:#ff0000;" x="380.1106" xlink:href="#m6b505576db" y="245.25416"/>
     <use style="fill:#ff0000;stroke:#ff0000;" x="386.236158" xlink:href="#m6b505576db" y="224.299452"/>
     <use style="fill:#ff0000;stroke:#ff0000;" x="392.361715" xlink:href="#m6b505576db" y="247.08734"/>
     <use style="fill:#ff0000;stroke:#ff0000;" x="398.487273" xlink:href="#m6b505576db" y="247.08734"/>
    </g>
   </g>
   <g id="patch_3">
    <path d="M 57.6 307.584 
L 57.6 41.472 
" style="fill:none;stroke:#000000;stroke-linecap:square;stroke-linejoin:miter;stroke-width:0.8;"/>
   </g>
   <g id="patch_4">
    <path d="M 414.72 307.584 
L 414.72 41.472 
" style="fill:none;stroke:#000000;stroke-linecap:square;stroke-linejoin:miter;stroke-width:0.8;"/>
   </g>
   <g id="patch_5">
    <path d="M 57.6 307.584 
L 414.72 307.584 
" style="fill:none;stroke:#000000;stroke-linecap:square;stroke-linejoin:miter;stroke-width:0.8;"/>
   </g>
   <g id="patch_6">
    <path d="M 57.6 41.472 
L 414.72 41.472 
" style="fill:none;stroke:#000000;stroke-linecap:square;stroke-linejoin:miter;stroke-width:0.8;"/>
   </g>
  </g>
 </g>
 <defs>
  <clipPath id="ped7eef9f5f">
   <rect height="266.112" width="357.12" x="57.6" y="41.472"/>
  </clipPath>
 </defs>
</svg>
