<?xml version="1.0" encoding="utf-8" standalone="no"?>
<!DOCTYPE svg PUBLIC "-//W3C//DTD SVG 1.1//EN"
  "http://www.w3.org/Graphics/SVG/1.1/DTD/svg11.dtd">
<!-- Created with matplotlib (https://matplotlib.org/) -->
<svg height="345.6pt" version="1.1" viewBox="0 0 460.8 345.6" width="460.8pt" xmlns="http://www.w3.org/2000/svg" xmlns:xlink="http://www.w3.org/1999/xlink">
 <defs>
  <style type="text/css">
*{stroke-linecap:butt;stroke-linejoin:round;}
  </style>
 </defs>
 <g id="figure_1">
  <g id="patch_1">
   <path d="M 0 345.6 
L 460.8 345.6 
L 460.8 0 
L 0 0 
z
" style="fill:#ffffff;"/>
  </g>
  <g id="axes_1">
   <g id="patch_2">
    <path d="M 57.6 307.584 
L 414.72 307.584 
L 414.72 41.472 
L 57.6 41.472 
z
" style="fill:#ffffff;"/>
   </g>
   <g id="line2d_1">
    <path clip-path="url(#p62b3628e89)" d="M 73.832727 224.122065 
L 75.126172 234.566173 
L 76.419616 181.894736 
L 77.71306 181.894736 
L 79.006505 132.836938 
L 80.299949 132.836938 
L 81.593394 82.634578 
L 85.473727 82.634578 
L 86.767171 76.111204 
L 88.060616 131.505794 
L 89.35406 131.505794 
L 90.647505 185.693975 
L 94.527838 185.693975 
L 95.821282 235.776724 
L 97.114727 235.776724 
L 98.408171 188.451173 
L 102.288504 188.451173 
L 103.581949 187.825076 
L 104.875393 187.825076 
L 106.168837 205.845099 
L 107.462282 205.845099 
L 108.755726 222.287442 
L 111.342615 222.287442 
L 112.636059 225.799606 
L 113.929504 243.972436 
L 116.516393 243.972436 
L 117.809837 261.678585 
L 119.103281 261.678585 
L 120.396726 244.137511 
L 121.69017 244.137511 
L 122.983615 245.999872 
L 124.277059 245.999872 
L 125.570503 242.752247 
L 130.744281 242.752247 
L 132.037725 259.622169 
L 133.33117 241.968636 
L 135.918059 241.968636 
L 137.211503 223.146168 
L 138.504947 223.146168 
L 139.798392 207.072631 
L 141.091836 224.552329 
L 143.678725 224.552329 
L 144.97217 206.608375 
L 147.559058 206.608375 
L 148.852503 210.590187 
L 150.145947 210.590187 
L 151.439392 230.243754 
L 154.02628 230.243754 
L 155.319725 247.314336 
L 156.613169 247.314336 
L 157.906614 229.834796 
L 161.786947 229.834796 
L 163.080391 245.861575 
L 164.373836 245.861575 
L 165.66728 262.497926 
L 166.960724 261.664874 
L 168.254169 261.664874 
L 169.547613 244.467411 
L 173.427946 244.467411 
L 174.721391 263.870169 
L 176.014835 263.870169 
L 177.30828 280.433038 
L 178.601724 261.521743 
L 182.482057 261.521743 
L 183.775502 277.993327 
L 185.068946 277.993327 
L 186.36239 295.488 
L 187.655835 295.488 
L 188.949279 278.784157 
L 191.536168 278.784157 
L 192.829612 262.426655 
L 194.123057 244.041999 
L 195.416501 244.041999 
L 196.709946 227.874933 
L 198.00339 227.874933 
L 199.296834 209.759964 
L 200.590279 209.759964 
L 201.883723 224.664167 
L 203.177168 206.83156 
L 204.470612 206.83156 
L 205.764057 188.034344 
L 207.057501 188.034344 
L 208.350945 207.467723 
L 210.937834 207.467723 
L 212.231279 226.30653 
L 213.524723 226.30653 
L 214.818167 209.44627 
L 216.111612 209.44627 
L 217.405056 211.482862 
L 218.698501 194.603081 
L 229.046056 194.603081 
L 230.3395 177.055684 
L 231.632945 177.055684 
L 232.926389 193.368897 
L 234.219833 193.368897 
L 235.513278 175.25688 
L 236.806722 175.25688 
L 238.100167 172.294633 
L 239.393611 156.715529 
L 240.687055 156.715529 
L 241.9805 175.618776 
L 243.273944 175.618776 
L 244.567389 160.042841 
L 247.154277 160.042841 
L 249.741166 127.230601 
L 252.328055 127.230601 
L 253.621499 146.829185 
L 254.914944 146.829185 
L 256.208388 131.343787 
L 257.501833 131.343787 
L 258.795277 114.607413 
L 261.382166 114.607413 
L 262.67561 100.359467 
L 265.262499 100.359467 
L 266.555943 83.249453 
L 267.849388 82.080919 
L 270.436277 82.080919 
L 271.729721 84.570992 
L 274.31661 84.570992 
L 275.610054 101.94861 
L 276.903499 84.395686 
L 278.196943 84.395686 
L 279.490388 67.770282 
L 283.370721 67.770282 
L 284.664165 86.018081 
L 285.95761 70.688377 
L 288.544498 70.688377 
L 289.837943 70.574758 
L 291.131387 70.574758 
L 292.424832 85.373202 
L 293.718276 85.373202 
L 295.01172 68.669635 
L 296.305165 65.448013 
L 297.598609 65.448013 
L 298.892054 82.97282 
L 300.185498 82.97282 
L 301.478942 100.24543 
L 302.772387 100.24543 
L 304.065831 84.415012 
L 305.359276 101.518249 
L 306.65272 101.518249 
L 307.946164 83.455514 
L 309.239609 83.455514 
L 310.533053 68.704189 
L 311.826498 68.704189 
L 313.119942 53.568 
L 398.487273 53.568 
L 398.487273 53.568 
" style="fill:none;stroke:#ff0000;stroke-linecap:square;stroke-width:12;"/>
    <defs>
     <path d="M 0 3 
C 0.795609 3 1.55874 2.683901 2.12132 2.12132 
C 2.683901 1.55874 3 0.795609 3 0 
C 3 -0.795609 2.683901 -1.55874 2.12132 -2.12132 
C 1.55874 -2.683901 0.795609 -3 0 -3 
C -0.795609 -3 -1.55874 -2.683901 -2.12132 -2.12132 
C -2.683901 -1.55874 -3 -0.795609 -3 0 
C -3 0.795609 -2.683901 1.55874 -2.12132 2.12132 
C -1.55874 2.683901 -0.795609 3 0 3 
z
" id="m9ed5ea21d3" style="stroke:#ff0000;"/>
    </defs>
    <g clip-path="url(#p62b3628e89)">
     <use style="fill:#ff0000;stroke:#ff0000;" x="73.832727" xlink:href="#m9ed5ea21d3" y="224.122065"/>
     <use style="fill:#ff0000;stroke:#ff0000;" x="75.126172" xlink:href="#m9ed5ea21d3" y="234.566173"/>
     <use style="fill:#ff0000;stroke:#ff0000;" x="76.419616" xlink:href="#m9ed5ea21d3" y="181.894736"/>
     <use style="fill:#ff0000;stroke:#ff0000;" x="77.71306" xlink:href="#m9ed5ea21d3" y="181.894736"/>
     <use style="fill:#ff0000;stroke:#ff0000;" x="79.006505" xlink:href="#m9ed5ea21d3" y="132.836938"/>
     <use style="fill:#ff0000;stroke:#ff0000;" x="80.299949" xlink:href="#m9ed5ea21d3" y="132.836938"/>
     <use style="fill:#ff0000;stroke:#ff0000;" x="81.593394" xlink:href="#m9ed5ea21d3" y="82.634578"/>
     <use style="fill:#ff0000;stroke:#ff0000;" x="82.886838" xlink:href="#m9ed5ea21d3" y="82.634578"/>
     <use style="fill:#ff0000;stroke:#ff0000;" x="84.180283" xlink:href="#m9ed5ea21d3" y="82.634578"/>
     <use style="fill:#ff0000;stroke:#ff0000;" x="85.473727" xlink:href="#m9ed5ea21d3" y="82.634578"/>
     <use style="fill:#ff0000;stroke:#ff0000;" x="86.767171" xlink:href="#m9ed5ea21d3" y="76.111204"/>
     <use style="fill:#ff0000;stroke:#ff0000;" x="88.060616" xlink:href="#m9ed5ea21d3" y="131.505794"/>
     <use style="fill:#ff0000;stroke:#ff0000;" x="89.35406" xlink:href="#m9ed5ea21d3" y="131.505794"/>
     <use style="fill:#ff0000;stroke:#ff0000;" x="90.647505" xlink:href="#m9ed5ea21d3" y="185.693975"/>
     <use style="fill:#ff0000;stroke:#ff0000;" x="91.940949" xlink:href="#m9ed5ea21d3" y="185.693975"/>
     <use style="fill:#ff0000;stroke:#ff0000;" x="93.234393" xlink:href="#m9ed5ea21d3" y="185.693975"/>
     <use style="fill:#ff0000;stroke:#ff0000;" x="94.527838" xlink:href="#m9ed5ea21d3" y="185.693975"/>
     <use style="fill:#ff0000;stroke:#ff0000;" x="95.821282" xlink:href="#m9ed5ea21d3" y="235.776724"/>
     <use style="fill:#ff0000;stroke:#ff0000;" x="97.114727" xlink:href="#m9ed5ea21d3" y="235.776724"/>
     <use style="fill:#ff0000;stroke:#ff0000;" x="98.408171" xlink:href="#m9ed5ea21d3" y="188.451173"/>
     <use style="fill:#ff0000;stroke:#ff0000;" x="99.701615" xlink:href="#m9ed5ea21d3" y="188.451173"/>
     <use style="fill:#ff0000;stroke:#ff0000;" x="100.99506" xlink:href="#m9ed5ea21d3" y="188.451173"/>
     <use style="fill:#ff0000;stroke:#ff0000;" x="102.288504" xlink:href="#m9ed5ea21d3" y="188.451173"/>
     <use style="fill:#ff0000;stroke:#ff0000;" x="103.581949" xlink:href="#m9ed5ea21d3" y="187.825076"/>
     <use style="fill:#ff0000;stroke:#ff0000;" x="104.875393" xlink:href="#m9ed5ea21d3" y="187.825076"/>
     <use style="fill:#ff0000;stroke:#ff0000;" x="106.168837" xlink:href="#m9ed5ea21d3" y="205.845099"/>
     <use style="fill:#ff0000;stroke:#ff0000;" x="107.462282" xlink:href="#m9ed5ea21d3" y="205.845099"/>
     <use style="fill:#ff0000;stroke:#ff0000;" x="108.755726" xlink:href="#m9ed5ea21d3" y="222.287442"/>
     <use style="fill:#ff0000;stroke:#ff0000;" x="110.049171" xlink:href="#m9ed5ea21d3" y="222.287442"/>
     <use style="fill:#ff0000;stroke:#ff0000;" x="111.342615" xlink:href="#m9ed5ea21d3" y="222.287442"/>
     <use style="fill:#ff0000;stroke:#ff0000;" x="112.636059" xlink:href="#m9ed5ea21d3" y="225.799606"/>
     <use style="fill:#ff0000;stroke:#ff0000;" x="113.929504" xlink:href="#m9ed5ea21d3" y="243.972436"/>
     <use style="fill:#ff0000;stroke:#ff0000;" x="115.222948" xlink:href="#m9ed5ea21d3" y="243.972436"/>
     <use style="fill:#ff0000;stroke:#ff0000;" x="116.516393" xlink:href="#m9ed5ea21d3" y="243.972436"/>
     <use style="fill:#ff0000;stroke:#ff0000;" x="117.809837" xlink:href="#m9ed5ea21d3" y="261.678585"/>
     <use style="fill:#ff0000;stroke:#ff0000;" x="119.103281" xlink:href="#m9ed5ea21d3" y="261.678585"/>
     <use style="fill:#ff0000;stroke:#ff0000;" x="120.396726" xlink:href="#m9ed5ea21d3" y="244.137511"/>
     <use style="fill:#ff0000;stroke:#ff0000;" x="121.69017" xlink:href="#m9ed5ea21d3" y="244.137511"/>
     <use style="fill:#ff0000;stroke:#ff0000;" x="122.983615" xlink:href="#m9ed5ea21d3" y="245.999872"/>
     <use style="fill:#ff0000;stroke:#ff0000;" x="124.277059" xlink:href="#m9ed5ea21d3" y="245.999872"/>
     <use style="fill:#ff0000;stroke:#ff0000;" x="125.570503" xlink:href="#m9ed5ea21d3" y="242.752247"/>
     <use style="fill:#ff0000;stroke:#ff0000;" x="126.863948" xlink:href="#m9ed5ea21d3" y="242.752247"/>
     <use style="fill:#ff0000;stroke:#ff0000;" x="128.157392" xlink:href="#m9ed5ea21d3" y="242.752247"/>
     <use style="fill:#ff0000;stroke:#ff0000;" x="129.450837" xlink:href="#m9ed5ea21d3" y="242.752247"/>
     <use style="fill:#ff0000;stroke:#ff0000;" x="130.744281" xlink:href="#m9ed5ea21d3" y="242.752247"/>
     <use style="fill:#ff0000;stroke:#ff0000;" x="132.037725" xlink:href="#m9ed5ea21d3" y="259.622169"/>
     <use style="fill:#ff0000;stroke:#ff0000;" x="133.33117" xlink:href="#m9ed5ea21d3" y="241.968636"/>
     <use style="fill:#ff0000;stroke:#ff0000;" x="134.624614" xlink:href="#m9ed5ea21d3" y="241.968636"/>
     <use style="fill:#ff0000;stroke:#ff0000;" x="135.918059" xlink:href="#m9ed5ea21d3" y="241.968636"/>
     <use style="fill:#ff0000;stroke:#ff0000;" x="137.211503" xlink:href="#m9ed5ea21d3" y="223.146168"/>
     <use style="fill:#ff0000;stroke:#ff0000;" x="138.504947" xlink:href="#m9ed5ea21d3" y="223.146168"/>
     <use style="fill:#ff0000;stroke:#ff0000;" x="139.798392" xlink:href="#m9ed5ea21d3" y="207.072631"/>
     <use style="fill:#ff0000;stroke:#ff0000;" x="141.091836" xlink:href="#m9ed5ea21d3" y="224.552329"/>
     <use style="fill:#ff0000;stroke:#ff0000;" x="142.385281" xlink:href="#m9ed5ea21d3" y="224.552329"/>
     <use style="fill:#ff0000;stroke:#ff0000;" x="143.678725" xlink:href="#m9ed5ea21d3" y="224.552329"/>
     <use style="fill:#ff0000;stroke:#ff0000;" x="144.97217" xlink:href="#m9ed5ea21d3" y="206.608375"/>
     <use style="fill:#ff0000;stroke:#ff0000;" x="146.265614" xlink:href="#m9ed5ea21d3" y="206.608375"/>
     <use style="fill:#ff0000;stroke:#ff0000;" x="147.559058" xlink:href="#m9ed5ea21d3" y="206.608375"/>
     <use style="fill:#ff0000;stroke:#ff0000;" x="148.852503" xlink:href="#m9ed5ea21d3" y="210.590187"/>
     <use style="fill:#ff0000;stroke:#ff0000;" x="150.145947" xlink:href="#m9ed5ea21d3" y="210.590187"/>
     <use style="fill:#ff0000;stroke:#ff0000;" x="151.439392" xlink:href="#m9ed5ea21d3" y="230.243754"/>
     <use style="fill:#ff0000;stroke:#ff0000;" x="152.732836" xlink:href="#m9ed5ea21d3" y="230.243754"/>
     <use style="fill:#ff0000;stroke:#ff0000;" x="154.02628" xlink:href="#m9ed5ea21d3" y="230.243754"/>
     <use style="fill:#ff0000;stroke:#ff0000;" x="155.319725" xlink:href="#m9ed5ea21d3" y="247.314336"/>
     <use style="fill:#ff0000;stroke:#ff0000;" x="156.613169" xlink:href="#m9ed5ea21d3" y="247.314336"/>
     <use style="fill:#ff0000;stroke:#ff0000;" x="157.906614" xlink:href="#m9ed5ea21d3" y="229.834796"/>
     <use style="fill:#ff0000;stroke:#ff0000;" x="159.200058" xlink:href="#m9ed5ea21d3" y="229.834796"/>
     <use style="fill:#ff0000;stroke:#ff0000;" x="160.493502" xlink:href="#m9ed5ea21d3" y="229.834796"/>
     <use style="fill:#ff0000;stroke:#ff0000;" x="161.786947" xlink:href="#m9ed5ea21d3" y="229.834796"/>
     <use style="fill:#ff0000;stroke:#ff0000;" x="163.080391" xlink:href="#m9ed5ea21d3" y="245.861575"/>
     <use style="fill:#ff0000;stroke:#ff0000;" x="164.373836" xlink:href="#m9ed5ea21d3" y="245.861575"/>
     <use style="fill:#ff0000;stroke:#ff0000;" x="165.66728" xlink:href="#m9ed5ea21d3" y="262.497926"/>
     <use style="fill:#ff0000;stroke:#ff0000;" x="166.960724" xlink:href="#m9ed5ea21d3" y="261.664874"/>
     <use style="fill:#ff0000;stroke:#ff0000;" x="168.254169" xlink:href="#m9ed5ea21d3" y="261.664874"/>
     <use style="fill:#ff0000;stroke:#ff0000;" x="169.547613" xlink:href="#m9ed5ea21d3" y="244.467411"/>
     <use style="fill:#ff0000;stroke:#ff0000;" x="170.841058" xlink:href="#m9ed5ea21d3" y="244.467411"/>
     <use style="fill:#ff0000;stroke:#ff0000;" x="172.134502" xlink:href="#m9ed5ea21d3" y="244.467411"/>
     <use style="fill:#ff0000;stroke:#ff0000;" x="173.427946" xlink:href="#m9ed5ea21d3" y="244.467411"/>
     <use style="fill:#ff0000;stroke:#ff0000;" x="174.721391" xlink:href="#m9ed5ea21d3" y="263.870169"/>
     <use style="fill:#ff0000;stroke:#ff0000;" x="176.014835" xlink:href="#m9ed5ea21d3" y="263.870169"/>
     <use style="fill:#ff0000;stroke:#ff0000;" x="177.30828" xlink:href="#m9ed5ea21d3" y="280.433038"/>
     <use style="fill:#ff0000;stroke:#ff0000;" x="178.601724" xlink:href="#m9ed5ea21d3" y="261.521743"/>
     <use style="fill:#ff0000;stroke:#ff0000;" x="179.895168" xlink:href="#m9ed5ea21d3" y="261.521743"/>
     <use style="fill:#ff0000;stroke:#ff0000;" x="181.188613" xlink:href="#m9ed5ea21d3" y="261.521743"/>
     <use style="fill:#ff0000;stroke:#ff0000;" x="182.482057" xlink:href="#m9ed5ea21d3" y="261.521743"/>
     <use style="fill:#ff0000;stroke:#ff0000;" x="183.775502" xlink:href="#m9ed5ea21d3" y="277.993327"/>
     <use style="fill:#ff0000;stroke:#ff0000;" x="185.068946" xlink:href="#m9ed5ea21d3" y="277.993327"/>
     <use style="fill:#ff0000;stroke:#ff0000;" x="186.36239" xlink:href="#m9ed5ea21d3" y="295.488"/>
     <use style="fill:#ff0000;stroke:#ff0000;" x="187.655835" xlink:href="#m9ed5ea21d3" y="295.488"/>
     <use style="fill:#ff0000;stroke:#ff0000;" x="188.949279" xlink:href="#m9ed5ea21d3" y="278.784157"/>
     <use style="fill:#ff0000;stroke:#ff0000;" x="190.242724" xlink:href="#m9ed5ea21d3" y="278.784157"/>
     <use style="fill:#ff0000;stroke:#ff0000;" x="191.536168" xlink:href="#m9ed5ea21d3" y="278.784157"/>
     <use style="fill:#ff0000;stroke:#ff0000;" x="192.829612" xlink:href="#m9ed5ea21d3" y="262.426655"/>
     <use style="fill:#ff0000;stroke:#ff0000;" x="194.123057" xlink:href="#m9ed5ea21d3" y="244.041999"/>
     <use style="fill:#ff0000;stroke:#ff0000;" x="195.416501" xlink:href="#m9ed5ea21d3" y="244.041999"/>
     <use style="fill:#ff0000;stroke:#ff0000;" x="196.709946" xlink:href="#m9ed5ea21d3" y="227.874933"/>
     <use style="fill:#ff0000;stroke:#ff0000;" x="198.00339" xlink:href="#m9ed5ea21d3" y="227.874933"/>
     <use style="fill:#ff0000;stroke:#ff0000;" x="199.296834" xlink:href="#m9ed5ea21d3" y="209.759964"/>
     <use style="fill:#ff0000;stroke:#ff0000;" x="200.590279" xlink:href="#m9ed5ea21d3" y="209.759964"/>
     <use style="fill:#ff0000;stroke:#ff0000;" x="201.883723" xlink:href="#m9ed5ea21d3" y="224.664167"/>
     <use style="fill:#ff0000;stroke:#ff0000;" x="203.177168" xlink:href="#m9ed5ea21d3" y="206.83156"/>
     <use style="fill:#ff0000;stroke:#ff0000;" x="204.470612" xlink:href="#m9ed5ea21d3" y="206.83156"/>
     <use style="fill:#ff0000;stroke:#ff0000;" x="205.764057" xlink:href="#m9ed5ea21d3" y="188.034344"/>
     <use style="fill:#ff0000;stroke:#ff0000;" x="207.057501" xlink:href="#m9ed5ea21d3" y="188.034344"/>
     <use style="fill:#ff0000;stroke:#ff0000;" x="208.350945" xlink:href="#m9ed5ea21d3" y="207.467723"/>
     <use style="fill:#ff0000;stroke:#ff0000;" x="209.64439" xlink:href="#m9ed5ea21d3" y="207.467723"/>
     <use style="fill:#ff0000;stroke:#ff0000;" x="210.937834" xlink:href="#m9ed5ea21d3" y="207.467723"/>
     <use style="fill:#ff0000;stroke:#ff0000;" x="212.231279" xlink:href="#m9ed5ea21d3" y="226.30653"/>
     <use style="fill:#ff0000;stroke:#ff0000;" x="213.524723" xlink:href="#m9ed5ea21d3" y="226.30653"/>
     <use style="fill:#ff0000;stroke:#ff0000;" x="214.818167" xlink:href="#m9ed5ea21d3" y="209.44627"/>
     <use style="fill:#ff0000;stroke:#ff0000;" x="216.111612" xlink:href="#m9ed5ea21d3" y="209.44627"/>
     <use style="fill:#ff0000;stroke:#ff0000;" x="217.405056" xlink:href="#m9ed5ea21d3" y="211.482862"/>
     <use style="fill:#ff0000;stroke:#ff0000;" x="218.698501" xlink:href="#m9ed5ea21d3" y="194.603081"/>
     <use style="fill:#ff0000;stroke:#ff0000;" x="219.991945" xlink:href="#m9ed5ea21d3" y="194.603081"/>
     <use style="fill:#ff0000;stroke:#ff0000;" x="221.285389" xlink:href="#m9ed5ea21d3" y="194.603081"/>
     <use style="fill:#ff0000;stroke:#ff0000;" x="222.578834" xlink:href="#m9ed5ea21d3" y="194.603081"/>
     <use style="fill:#ff0000;stroke:#ff0000;" x="223.872278" xlink:href="#m9ed5ea21d3" y="194.603081"/>
     <use style="fill:#ff0000;stroke:#ff0000;" x="225.165723" xlink:href="#m9ed5ea21d3" y="194.603081"/>
     <use style="fill:#ff0000;stroke:#ff0000;" x="226.459167" xlink:href="#m9ed5ea21d3" y="194.603081"/>
     <use style="fill:#ff0000;stroke:#ff0000;" x="227.752611" xlink:href="#m9ed5ea21d3" y="194.603081"/>
     <use style="fill:#ff0000;stroke:#ff0000;" x="229.046056" xlink:href="#m9ed5ea21d3" y="194.603081"/>
     <use style="fill:#ff0000;stroke:#ff0000;" x="230.3395" xlink:href="#m9ed5ea21d3" y="177.055684"/>
     <use style="fill:#ff0000;stroke:#ff0000;" x="231.632945" xlink:href="#m9ed5ea21d3" y="177.055684"/>
     <use style="fill:#ff0000;stroke:#ff0000;" x="232.926389" xlink:href="#m9ed5ea21d3" y="193.368897"/>
     <use style="fill:#ff0000;stroke:#ff0000;" x="234.219833" xlink:href="#m9ed5ea21d3" y="193.368897"/>
     <use style="fill:#ff0000;stroke:#ff0000;" x="235.513278" xlink:href="#m9ed5ea21d3" y="175.25688"/>
     <use style="fill:#ff0000;stroke:#ff0000;" x="236.806722" xlink:href="#m9ed5ea21d3" y="175.25688"/>
     <use style="fill:#ff0000;stroke:#ff0000;" x="238.100167" xlink:href="#m9ed5ea21d3" y="172.294633"/>
     <use style="fill:#ff0000;stroke:#ff0000;" x="239.393611" xlink:href="#m9ed5ea21d3" y="156.715529"/>
     <use style="fill:#ff0000;stroke:#ff0000;" x="240.687055" xlink:href="#m9ed5ea21d3" y="156.715529"/>
     <use style="fill:#ff0000;stroke:#ff0000;" x="241.9805" xlink:href="#m9ed5ea21d3" y="175.618776"/>
     <use style="fill:#ff0000;stroke:#ff0000;" x="243.273944" xlink:href="#m9ed5ea21d3" y="175.618776"/>
     <use style="fill:#ff0000;stroke:#ff0000;" x="244.567389" xlink:href="#m9ed5ea21d3" y="160.042841"/>
     <use style="fill:#ff0000;stroke:#ff0000;" x="245.860833" xlink:href="#m9ed5ea21d3" y="160.042841"/>
     <use style="fill:#ff0000;stroke:#ff0000;" x="247.154277" xlink:href="#m9ed5ea21d3" y="160.042841"/>
     <use style="fill:#ff0000;stroke:#ff0000;" x="248.447722" xlink:href="#m9ed5ea21d3" y="144.166591"/>
     <use style="fill:#ff0000;stroke:#ff0000;" x="249.741166" xlink:href="#m9ed5ea21d3" y="127.230601"/>
     <use style="fill:#ff0000;stroke:#ff0000;" x="251.034611" xlink:href="#m9ed5ea21d3" y="127.230601"/>
     <use style="fill:#ff0000;stroke:#ff0000;" x="252.328055" xlink:href="#m9ed5ea21d3" y="127.230601"/>
     <use style="fill:#ff0000;stroke:#ff0000;" x="253.621499" xlink:href="#m9ed5ea21d3" y="146.829185"/>
     <use style="fill:#ff0000;stroke:#ff0000;" x="254.914944" xlink:href="#m9ed5ea21d3" y="146.829185"/>
     <use style="fill:#ff0000;stroke:#ff0000;" x="256.208388" xlink:href="#m9ed5ea21d3" y="131.343787"/>
     <use style="fill:#ff0000;stroke:#ff0000;" x="257.501833" xlink:href="#m9ed5ea21d3" y="131.343787"/>
     <use style="fill:#ff0000;stroke:#ff0000;" x="258.795277" xlink:href="#m9ed5ea21d3" y="114.607413"/>
     <use style="fill:#ff0000;stroke:#ff0000;" x="260.088721" xlink:href="#m9ed5ea21d3" y="114.607413"/>
     <use style="fill:#ff0000;stroke:#ff0000;" x="261.382166" xlink:href="#m9ed5ea21d3" y="114.607413"/>
     <use style="fill:#ff0000;stroke:#ff0000;" x="262.67561" xlink:href="#m9ed5ea21d3" y="100.359467"/>
     <use style="fill:#ff0000;stroke:#ff0000;" x="263.969055" xlink:href="#m9ed5ea21d3" y="100.359467"/>
     <use style="fill:#ff0000;stroke:#ff0000;" x="265.262499" xlink:href="#m9ed5ea21d3" y="100.359467"/>
     <use style="fill:#ff0000;stroke:#ff0000;" x="266.555943" xlink:href="#m9ed5ea21d3" y="83.249453"/>
     <use style="fill:#ff0000;stroke:#ff0000;" x="267.849388" xlink:href="#m9ed5ea21d3" y="82.080919"/>
     <use style="fill:#ff0000;stroke:#ff0000;" x="269.142832" xlink:href="#m9ed5ea21d3" y="82.080919"/>
     <use style="fill:#ff0000;stroke:#ff0000;" x="270.436277" xlink:href="#m9ed5ea21d3" y="82.080919"/>
     <use style="fill:#ff0000;stroke:#ff0000;" x="271.729721" xlink:href="#m9ed5ea21d3" y="84.570992"/>
     <use style="fill:#ff0000;stroke:#ff0000;" x="273.023166" xlink:href="#m9ed5ea21d3" y="84.570992"/>
     <use style="fill:#ff0000;stroke:#ff0000;" x="274.31661" xlink:href="#m9ed5ea21d3" y="84.570992"/>
     <use style="fill:#ff0000;stroke:#ff0000;" x="275.610054" xlink:href="#m9ed5ea21d3" y="101.94861"/>
     <use style="fill:#ff0000;stroke:#ff0000;" x="276.903499" xlink:href="#m9ed5ea21d3" y="84.395686"/>
     <use style="fill:#ff0000;stroke:#ff0000;" x="278.196943" xlink:href="#m9ed5ea21d3" y="84.395686"/>
     <use style="fill:#ff0000;stroke:#ff0000;" x="279.490388" xlink:href="#m9ed5ea21d3" y="67.770282"/>
     <use style="fill:#ff0000;stroke:#ff0000;" x="280.783832" xlink:href="#m9ed5ea21d3" y="67.770282"/>
     <use style="fill:#ff0000;stroke:#ff0000;" x="282.077276" xlink:href="#m9ed5ea21d3" y="67.770282"/>
     <use style="fill:#ff0000;stroke:#ff0000;" x="283.370721" xlink:href="#m9ed5ea21d3" y="67.770282"/>
     <use style="fill:#ff0000;stroke:#ff0000;" x="284.664165" xlink:href="#m9ed5ea21d3" y="86.018081"/>
     <use style="fill:#ff0000;stroke:#ff0000;" x="285.95761" xlink:href="#m9ed5ea21d3" y="70.688377"/>
     <use style="fill:#ff0000;stroke:#ff0000;" x="287.251054" xlink:href="#m9ed5ea21d3" y="70.688377"/>
     <use style="fill:#ff0000;stroke:#ff0000;" x="288.544498" xlink:href="#m9ed5ea21d3" y="70.688377"/>
     <use style="fill:#ff0000;stroke:#ff0000;" x="289.837943" xlink:href="#m9ed5ea21d3" y="70.574758"/>
     <use style="fill:#ff0000;stroke:#ff0000;" x="291.131387" xlink:href="#m9ed5ea21d3" y="70.574758"/>
     <use style="fill:#ff0000;stroke:#ff0000;" x="292.424832" xlink:href="#m9ed5ea21d3" y="85.373202"/>
     <use style="fill:#ff0000;stroke:#ff0000;" x="293.718276" xlink:href="#m9ed5ea21d3" y="85.373202"/>
     <use style="fill:#ff0000;stroke:#ff0000;" x="295.01172" xlink:href="#m9ed5ea21d3" y="68.669635"/>
     <use style="fill:#ff0000;stroke:#ff0000;" x="296.305165" xlink:href="#m9ed5ea21d3" y="65.448013"/>
     <use style="fill:#ff0000;stroke:#ff0000;" x="297.598609" xlink:href="#m9ed5ea21d3" y="65.448013"/>
     <use style="fill:#ff0000;stroke:#ff0000;" x="298.892054" xlink:href="#m9ed5ea21d3" y="82.97282"/>
     <use style="fill:#ff0000;stroke:#ff0000;" x="300.185498" xlink:href="#m9ed5ea21d3" y="82.97282"/>
     <use style="fill:#ff0000;stroke:#ff0000;" x="301.478942" xlink:href="#m9ed5ea21d3" y="100.24543"/>
     <use style="fill:#ff0000;stroke:#ff0000;" x="302.772387" xlink:href="#m9ed5ea21d3" y="100.24543"/>
     <use style="fill:#ff0000;stroke:#ff0000;" x="304.065831" xlink:href="#m9ed5ea21d3" y="84.415012"/>
     <use style="fill:#ff0000;stroke:#ff0000;" x="305.359276" xlink:href="#m9ed5ea21d3" y="101.518249"/>
     <use style="fill:#ff0000;stroke:#ff0000;" x="306.65272" xlink:href="#m9ed5ea21d3" y="101.518249"/>
     <use style="fill:#ff0000;stroke:#ff0000;" x="307.946164" xlink:href="#m9ed5ea21d3" y="83.455514"/>
     <use style="fill:#ff0000;stroke:#ff0000;" x="309.239609" xlink:href="#m9ed5ea21d3" y="83.455514"/>
     <use style="fill:#ff0000;stroke:#ff0000;" x="310.533053" xlink:href="#m9ed5ea21d3" y="68.704189"/>
     <use style="fill:#ff0000;stroke:#ff0000;" x="311.826498" xlink:href="#m9ed5ea21d3" y="68.704189"/>
     <use style="fill:#ff0000;stroke:#ff0000;" x="313.119942" xlink:href="#m9ed5ea21d3" y="53.568"/>
     <use style="fill:#ff0000;stroke:#ff0000;" x="314.413386" xlink:href="#m9ed5ea21d3" y="53.568"/>
     <use style="fill:#ff0000;stroke:#ff0000;" x="315.706831" xlink:href="#m9ed5ea21d3" y="53.568"/>
     <use style="fill:#ff0000;stroke:#ff0000;" x="317.000275" xlink:href="#m9ed5ea21d3" y="53.568"/>
     <use style="fill:#ff0000;stroke:#ff0000;" x="318.29372" xlink:href="#m9ed5ea21d3" y="53.568"/>
     <use style="fill:#ff0000;stroke:#ff0000;" x="319.587164" xlink:href="#m9ed5ea21d3" y="53.568"/>
     <use style="fill:#ff0000;stroke:#ff0000;" x="320.880608" xlink:href="#m9ed5ea21d3" y="53.568"/>
     <use style="fill:#ff0000;stroke:#ff0000;" x="322.174053" xlink:href="#m9ed5ea21d3" y="53.568"/>
     <use style="fill:#ff0000;stroke:#ff0000;" x="323.467497" xlink:href="#m9ed5ea21d3" y="53.568"/>
     <use style="fill:#ff0000;stroke:#ff0000;" x="324.760942" xlink:href="#m9ed5ea21d3" y="53.568"/>
     <use style="fill:#ff0000;stroke:#ff0000;" x="326.054386" xlink:href="#m9ed5ea21d3" y="53.568"/>
     <use style="fill:#ff0000;stroke:#ff0000;" x="327.34783" xlink:href="#m9ed5ea21d3" y="53.568"/>
     <use style="fill:#ff0000;stroke:#ff0000;" x="328.641275" xlink:href="#m9ed5ea21d3" y="53.568"/>
     <use style="fill:#ff0000;stroke:#ff0000;" x="329.934719" xlink:href="#m9ed5ea21d3" y="53.568"/>
     <use style="fill:#ff0000;stroke:#ff0000;" x="331.228164" xlink:href="#m9ed5ea21d3" y="53.568"/>
     <use style="fill:#ff0000;stroke:#ff0000;" x="332.521608" xlink:href="#m9ed5ea21d3" y="53.568"/>
     <use style="fill:#ff0000;stroke:#ff0000;" x="333.815053" xlink:href="#m9ed5ea21d3" y="53.568"/>
     <use style="fill:#ff0000;stroke:#ff0000;" x="335.108497" xlink:href="#m9ed5ea21d3" y="53.568"/>
     <use style="fill:#ff0000;stroke:#ff0000;" x="336.401941" xlink:href="#m9ed5ea21d3" y="53.568"/>
     <use style="fill:#ff0000;stroke:#ff0000;" x="337.695386" xlink:href="#m9ed5ea21d3" y="53.568"/>
     <use style="fill:#ff0000;stroke:#ff0000;" x="338.98883" xlink:href="#m9ed5ea21d3" y="53.568"/>
     <use style="fill:#ff0000;stroke:#ff0000;" x="340.282275" xlink:href="#m9ed5ea21d3" y="53.568"/>
     <use style="fill:#ff0000;stroke:#ff0000;" x="341.575719" xlink:href="#m9ed5ea21d3" y="53.568"/>
     <use style="fill:#ff0000;stroke:#ff0000;" x="342.869163" xlink:href="#m9ed5ea21d3" y="53.568"/>
     <use style="fill:#ff0000;stroke:#ff0000;" x="344.162608" xlink:href="#m9ed5ea21d3" y="53.568"/>
     <use style="fill:#ff0000;stroke:#ff0000;" x="345.456052" xlink:href="#m9ed5ea21d3" y="53.568"/>
     <use style="fill:#ff0000;stroke:#ff0000;" x="346.749497" xlink:href="#m9ed5ea21d3" y="53.568"/>
     <use style="fill:#ff0000;stroke:#ff0000;" x="348.042941" xlink:href="#m9ed5ea21d3" y="53.568"/>
     <use style="fill:#ff0000;stroke:#ff0000;" x="349.336385" xlink:href="#m9ed5ea21d3" y="53.568"/>
     <use style="fill:#ff0000;stroke:#ff0000;" x="350.62983" xlink:href="#m9ed5ea21d3" y="53.568"/>
     <use style="fill:#ff0000;stroke:#ff0000;" x="351.923274" xlink:href="#m9ed5ea21d3" y="53.568"/>
     <use style="fill:#ff0000;stroke:#ff0000;" x="353.216719" xlink:href="#m9ed5ea21d3" y="53.568"/>
     <use style="fill:#ff0000;stroke:#ff0000;" x="354.510163" xlink:href="#m9ed5ea21d3" y="53.568"/>
     <use style="fill:#ff0000;stroke:#ff0000;" x="355.803607" xlink:href="#m9ed5ea21d3" y="53.568"/>
     <use style="fill:#ff0000;stroke:#ff0000;" x="357.097052" xlink:href="#m9ed5ea21d3" y="53.568"/>
     <use style="fill:#ff0000;stroke:#ff0000;" x="358.390496" xlink:href="#m9ed5ea21d3" y="53.568"/>
     <use style="fill:#ff0000;stroke:#ff0000;" x="359.683941" xlink:href="#m9ed5ea21d3" y="53.568"/>
     <use style="fill:#ff0000;stroke:#ff0000;" x="360.977385" xlink:href="#m9ed5ea21d3" y="53.568"/>
     <use style="fill:#ff0000;stroke:#ff0000;" x="362.270829" xlink:href="#m9ed5ea21d3" y="53.568"/>
     <use style="fill:#ff0000;stroke:#ff0000;" x="363.564274" xlink:href="#m9ed5ea21d3" y="53.568"/>
     <use style="fill:#ff0000;stroke:#ff0000;" x="364.857718" xlink:href="#m9ed5ea21d3" y="53.568"/>
     <use style="fill:#ff0000;stroke:#ff0000;" x="366.151163" xlink:href="#m9ed5ea21d3" y="53.568"/>
     <use style="fill:#ff0000;stroke:#ff0000;" x="367.444607" xlink:href="#m9ed5ea21d3" y="53.568"/>
     <use style="fill:#ff0000;stroke:#ff0000;" x="368.738051" xlink:href="#m9ed5ea21d3" y="53.568"/>
     <use style="fill:#ff0000;stroke:#ff0000;" x="370.031496" xlink:href="#m9ed5ea21d3" y="53.568"/>
     <use style="fill:#ff0000;stroke:#ff0000;" x="371.32494" xlink:href="#m9ed5ea21d3" y="53.568"/>
     <use style="fill:#ff0000;stroke:#ff0000;" x="372.618385" xlink:href="#m9ed5ea21d3" y="53.568"/>
     <use style="fill:#ff0000;stroke:#ff0000;" x="373.911829" xlink:href="#m9ed5ea21d3" y="53.568"/>
     <use style="fill:#ff0000;stroke:#ff0000;" x="375.205273" xlink:href="#m9ed5ea21d3" y="53.568"/>
     <use style="fill:#ff0000;stroke:#ff0000;" x="376.498718" xlink:href="#m9ed5ea21d3" y="53.568"/>
     <use style="fill:#ff0000;stroke:#ff0000;" x="377.792162" xlink:href="#m9ed5ea21d3" y="53.568"/>
     <use style="fill:#ff0000;stroke:#ff0000;" x="379.085607" xlink:href="#m9ed5ea21d3" y="53.568"/>
     <use style="fill:#ff0000;stroke:#ff0000;" x="380.379051" xlink:href="#m9ed5ea21d3" y="53.568"/>
     <use style="fill:#ff0000;stroke:#ff0000;" x="381.672495" xlink:href="#m9ed5ea21d3" y="53.568"/>
     <use style="fill:#ff0000;stroke:#ff0000;" x="382.96594" xlink:href="#m9ed5ea21d3" y="53.568"/>
     <use style="fill:#ff0000;stroke:#ff0000;" x="384.259384" xlink:href="#m9ed5ea21d3" y="53.568"/>
     <use style="fill:#ff0000;stroke:#ff0000;" x="385.552829" xlink:href="#m9ed5ea21d3" y="53.568"/>
     <use style="fill:#ff0000;stroke:#ff0000;" x="386.846273" xlink:href="#m9ed5ea21d3" y="53.568"/>
     <use style="fill:#ff0000;stroke:#ff0000;" x="388.139717" xlink:href="#m9ed5ea21d3" y="53.568"/>
     <use style="fill:#ff0000;stroke:#ff0000;" x="389.433162" xlink:href="#m9ed5ea21d3" y="53.568"/>
     <use style="fill:#ff0000;stroke:#ff0000;" x="390.726606" xlink:href="#m9ed5ea21d3" y="53.568"/>
     <use style="fill:#ff0000;stroke:#ff0000;" x="392.020051" xlink:href="#m9ed5ea21d3" y="53.568"/>
     <use style="fill:#ff0000;stroke:#ff0000;" x="393.313495" xlink:href="#m9ed5ea21d3" y="53.568"/>
     <use style="fill:#ff0000;stroke:#ff0000;" x="394.60694" xlink:href="#m9ed5ea21d3" y="53.568"/>
     <use style="fill:#ff0000;stroke:#ff0000;" x="395.900384" xlink:href="#m9ed5ea21d3" y="53.568"/>
     <use style="fill:#ff0000;stroke:#ff0000;" x="397.193828" xlink:href="#m9ed5ea21d3" y="53.568"/>
     <use style="fill:#ff0000;stroke:#ff0000;" x="398.487273" xlink:href="#m9ed5ea21d3" y="53.568"/>
    </g>
   </g>
   <g id="patch_3">
    <path d="M 57.6 307.584 
L 57.6 41.472 
" style="fill:none;stroke:#000000;stroke-linecap:square;stroke-linejoin:miter;stroke-width:0.8;"/>
   </g>
   <g id="patch_4">
    <path d="M 414.72 307.584 
L 414.72 41.472 
" style="fill:none;stroke:#000000;stroke-linecap:square;stroke-linejoin:miter;stroke-width:0.8;"/>
   </g>
   <g id="patch_5">
    <path d="M 57.6 307.584 
L 414.72 307.584 
" style="fill:none;stroke:#000000;stroke-linecap:square;stroke-linejoin:miter;stroke-width:0.8;"/>
   </g>
   <g id="patch_6">
    <path d="M 57.6 41.472 
L 414.72 41.472 
" style="fill:none;stroke:#000000;stroke-linecap:square;stroke-linejoin:miter;stroke-width:0.8;"/>
   </g>
  </g>
 </g>
 <defs>
  <clipPath id="p62b3628e89">
   <rect height="266.112" width="357.12" x="57.6" y="41.472"/>
  </clipPath>
 </defs>
</svg>
