<?xml version="1.0" encoding="utf-8" standalone="no"?>
<!DOCTYPE svg PUBLIC "-//W3C//DTD SVG 1.1//EN"
  "http://www.w3.org/Graphics/SVG/1.1/DTD/svg11.dtd">
<!-- Created with matplotlib (https://matplotlib.org/) -->
<svg height="345.6pt" version="1.1" viewBox="0 0 460.8 345.6" width="460.8pt" xmlns="http://www.w3.org/2000/svg" xmlns:xlink="http://www.w3.org/1999/xlink">
 <defs>
  <style type="text/css">
*{stroke-linecap:butt;stroke-linejoin:round;}
  </style>
 </defs>
 <g id="figure_1">
  <g id="patch_1">
   <path d="M 0 345.6 
L 460.8 345.6 
L 460.8 0 
L 0 0 
z
" style="fill:#ffffff;"/>
  </g>
  <g id="axes_1">
   <g id="patch_2">
    <path d="M 57.6 307.584 
L 414.72 307.584 
L 414.72 41.472 
L 57.6 41.472 
z
" style="fill:#ffffff;"/>
   </g>
   <g id="line2d_1">
    <path clip-path="url(#p8f166adce6)" d="M 73.832727 246.526415 
L 79.528421 260.142162 
L 85.224115 191.4756 
L 90.919809 191.4756 
L 96.615502 127.520057 
L 102.311196 127.520057 
L 108.00689 62.072376 
L 113.702584 62.072376 
L 119.398278 62.072376 
L 125.093971 62.072376 
L 130.789665 53.568 
L 136.485359 125.784675 
L 142.181053 125.784675 
L 147.876746 196.428581 
L 153.57244 196.428581 
L 159.268134 196.428581 
L 164.963828 196.428581 
L 170.659522 261.720329 
L 176.355215 261.720329 
L 182.050909 200.023078 
L 187.746603 200.023078 
L 193.442297 200.023078 
L 199.13799 200.023078 
L 204.833684 199.20685 
L 210.529378 199.20685 
L 216.225072 222.699147 
L 221.920766 222.699147 
L 227.616459 244.134657 
L 233.312153 244.134657 
L 239.007847 244.134657 
L 244.703541 248.713386 
L 250.399234 272.404894 
L 256.094928 272.404894 
L 261.790622 272.404894 
L 267.486316 295.488 
L 273.18201 295.488 
L 278.877703 272.620099 
L 284.573397 272.620099 
L 290.269091 275.048017 
L 295.964785 275.048017 
L 301.660478 270.814162 
L 307.356172 270.814162 
L 313.051866 270.814162 
L 318.74756 270.814162 
L 324.443254 270.814162 
L 330.138947 292.807098 
L 335.834641 269.792585 
L 341.530335 269.792585 
L 347.226029 269.792585 
L 352.921722 245.25416 
L 358.617416 245.25416 
L 364.31311 224.299452 
L 370.008804 247.08734 
L 375.704498 247.08734 
L 381.400191 247.08734 
L 387.095885 223.694213 
L 392.791579 223.694213 
L 398.487273 223.694213 
" style="fill:none;stroke:#ff0000;stroke-linecap:square;stroke-width:12;"/>
    <defs>
     <path d="M 0 3 
C 0.795609 3 1.55874 2.683901 2.12132 2.12132 
C 2.683901 1.55874 3 0.795609 3 0 
C 3 -0.795609 2.683901 -1.55874 2.12132 -2.12132 
C 1.55874 -2.683901 0.795609 -3 0 -3 
C -0.795609 -3 -1.55874 -2.683901 -2.12132 -2.12132 
C -2.683901 -1.55874 -3 -0.795609 -3 0 
C -3 0.795609 -2.683901 1.55874 -2.12132 2.12132 
C -1.55874 2.683901 -0.795609 3 0 3 
z
" id="mccebe2c51f" style="stroke:#ff0000;"/>
    </defs>
    <g clip-path="url(#p8f166adce6)">
     <use style="fill:#ff0000;stroke:#ff0000;" x="73.832727" xlink:href="#mccebe2c51f" y="246.526415"/>
     <use style="fill:#ff0000;stroke:#ff0000;" x="79.528421" xlink:href="#mccebe2c51f" y="260.142162"/>
     <use style="fill:#ff0000;stroke:#ff0000;" x="85.224115" xlink:href="#mccebe2c51f" y="191.4756"/>
     <use style="fill:#ff0000;stroke:#ff0000;" x="90.919809" xlink:href="#mccebe2c51f" y="191.4756"/>
     <use style="fill:#ff0000;stroke:#ff0000;" x="96.615502" xlink:href="#mccebe2c51f" y="127.520057"/>
     <use style="fill:#ff0000;stroke:#ff0000;" x="102.311196" xlink:href="#mccebe2c51f" y="127.520057"/>
     <use style="fill:#ff0000;stroke:#ff0000;" x="108.00689" xlink:href="#mccebe2c51f" y="62.072376"/>
     <use style="fill:#ff0000;stroke:#ff0000;" x="113.702584" xlink:href="#mccebe2c51f" y="62.072376"/>
     <use style="fill:#ff0000;stroke:#ff0000;" x="119.398278" xlink:href="#mccebe2c51f" y="62.072376"/>
     <use style="fill:#ff0000;stroke:#ff0000;" x="125.093971" xlink:href="#mccebe2c51f" y="62.072376"/>
     <use style="fill:#ff0000;stroke:#ff0000;" x="130.789665" xlink:href="#mccebe2c51f" y="53.568"/>
     <use style="fill:#ff0000;stroke:#ff0000;" x="136.485359" xlink:href="#mccebe2c51f" y="125.784675"/>
     <use style="fill:#ff0000;stroke:#ff0000;" x="142.181053" xlink:href="#mccebe2c51f" y="125.784675"/>
     <use style="fill:#ff0000;stroke:#ff0000;" x="147.876746" xlink:href="#mccebe2c51f" y="196.428581"/>
     <use style="fill:#ff0000;stroke:#ff0000;" x="153.57244" xlink:href="#mccebe2c51f" y="196.428581"/>
     <use style="fill:#ff0000;stroke:#ff0000;" x="159.268134" xlink:href="#mccebe2c51f" y="196.428581"/>
     <use style="fill:#ff0000;stroke:#ff0000;" x="164.963828" xlink:href="#mccebe2c51f" y="196.428581"/>
     <use style="fill:#ff0000;stroke:#ff0000;" x="170.659522" xlink:href="#mccebe2c51f" y="261.720329"/>
     <use style="fill:#ff0000;stroke:#ff0000;" x="176.355215" xlink:href="#mccebe2c51f" y="261.720329"/>
     <use style="fill:#ff0000;stroke:#ff0000;" x="182.050909" xlink:href="#mccebe2c51f" y="200.023078"/>
     <use style="fill:#ff0000;stroke:#ff0000;" x="187.746603" xlink:href="#mccebe2c51f" y="200.023078"/>
     <use style="fill:#ff0000;stroke:#ff0000;" x="193.442297" xlink:href="#mccebe2c51f" y="200.023078"/>
     <use style="fill:#ff0000;stroke:#ff0000;" x="199.13799" xlink:href="#mccebe2c51f" y="200.023078"/>
     <use style="fill:#ff0000;stroke:#ff0000;" x="204.833684" xlink:href="#mccebe2c51f" y="199.20685"/>
     <use style="fill:#ff0000;stroke:#ff0000;" x="210.529378" xlink:href="#mccebe2c51f" y="199.20685"/>
     <use style="fill:#ff0000;stroke:#ff0000;" x="216.225072" xlink:href="#mccebe2c51f" y="222.699147"/>
     <use style="fill:#ff0000;stroke:#ff0000;" x="221.920766" xlink:href="#mccebe2c51f" y="222.699147"/>
     <use style="fill:#ff0000;stroke:#ff0000;" x="227.616459" xlink:href="#mccebe2c51f" y="244.134657"/>
     <use style="fill:#ff0000;stroke:#ff0000;" x="233.312153" xlink:href="#mccebe2c51f" y="244.134657"/>
     <use style="fill:#ff0000;stroke:#ff0000;" x="239.007847" xlink:href="#mccebe2c51f" y="244.134657"/>
     <use style="fill:#ff0000;stroke:#ff0000;" x="244.703541" xlink:href="#mccebe2c51f" y="248.713386"/>
     <use style="fill:#ff0000;stroke:#ff0000;" x="250.399234" xlink:href="#mccebe2c51f" y="272.404894"/>
     <use style="fill:#ff0000;stroke:#ff0000;" x="256.094928" xlink:href="#mccebe2c51f" y="272.404894"/>
     <use style="fill:#ff0000;stroke:#ff0000;" x="261.790622" xlink:href="#mccebe2c51f" y="272.404894"/>
     <use style="fill:#ff0000;stroke:#ff0000;" x="267.486316" xlink:href="#mccebe2c51f" y="295.488"/>
     <use style="fill:#ff0000;stroke:#ff0000;" x="273.18201" xlink:href="#mccebe2c51f" y="295.488"/>
     <use style="fill:#ff0000;stroke:#ff0000;" x="278.877703" xlink:href="#mccebe2c51f" y="272.620099"/>
     <use style="fill:#ff0000;stroke:#ff0000;" x="284.573397" xlink:href="#mccebe2c51f" y="272.620099"/>
     <use style="fill:#ff0000;stroke:#ff0000;" x="290.269091" xlink:href="#mccebe2c51f" y="275.048017"/>
     <use style="fill:#ff0000;stroke:#ff0000;" x="295.964785" xlink:href="#mccebe2c51f" y="275.048017"/>
     <use style="fill:#ff0000;stroke:#ff0000;" x="301.660478" xlink:href="#mccebe2c51f" y="270.814162"/>
     <use style="fill:#ff0000;stroke:#ff0000;" x="307.356172" xlink:href="#mccebe2c51f" y="270.814162"/>
     <use style="fill:#ff0000;stroke:#ff0000;" x="313.051866" xlink:href="#mccebe2c51f" y="270.814162"/>
     <use style="fill:#ff0000;stroke:#ff0000;" x="318.74756" xlink:href="#mccebe2c51f" y="270.814162"/>
     <use style="fill:#ff0000;stroke:#ff0000;" x="324.443254" xlink:href="#mccebe2c51f" y="270.814162"/>
     <use style="fill:#ff0000;stroke:#ff0000;" x="330.138947" xlink:href="#mccebe2c51f" y="292.807098"/>
     <use style="fill:#ff0000;stroke:#ff0000;" x="335.834641" xlink:href="#mccebe2c51f" y="269.792585"/>
     <use style="fill:#ff0000;stroke:#ff0000;" x="341.530335" xlink:href="#mccebe2c51f" y="269.792585"/>
     <use style="fill:#ff0000;stroke:#ff0000;" x="347.226029" xlink:href="#mccebe2c51f" y="269.792585"/>
     <use style="fill:#ff0000;stroke:#ff0000;" x="352.921722" xlink:href="#mccebe2c51f" y="245.25416"/>
     <use style="fill:#ff0000;stroke:#ff0000;" x="358.617416" xlink:href="#mccebe2c51f" y="245.25416"/>
     <use style="fill:#ff0000;stroke:#ff0000;" x="364.31311" xlink:href="#mccebe2c51f" y="224.299452"/>
     <use style="fill:#ff0000;stroke:#ff0000;" x="370.008804" xlink:href="#mccebe2c51f" y="247.08734"/>
     <use style="fill:#ff0000;stroke:#ff0000;" x="375.704498" xlink:href="#mccebe2c51f" y="247.08734"/>
     <use style="fill:#ff0000;stroke:#ff0000;" x="381.400191" xlink:href="#mccebe2c51f" y="247.08734"/>
     <use style="fill:#ff0000;stroke:#ff0000;" x="387.095885" xlink:href="#mccebe2c51f" y="223.694213"/>
     <use style="fill:#ff0000;stroke:#ff0000;" x="392.791579" xlink:href="#mccebe2c51f" y="223.694213"/>
     <use style="fill:#ff0000;stroke:#ff0000;" x="398.487273" xlink:href="#mccebe2c51f" y="223.694213"/>
    </g>
   </g>
   <g id="patch_3">
    <path d="M 57.6 307.584 
L 57.6 41.472 
" style="fill:none;stroke:#000000;stroke-linecap:square;stroke-linejoin:miter;stroke-width:0.8;"/>
   </g>
   <g id="patch_4">
    <path d="M 414.72 307.584 
L 414.72 41.472 
" style="fill:none;stroke:#000000;stroke-linecap:square;stroke-linejoin:miter;stroke-width:0.8;"/>
   </g>
   <g id="patch_5">
    <path d="M 57.6 307.584 
L 414.72 307.584 
" style="fill:none;stroke:#000000;stroke-linecap:square;stroke-linejoin:miter;stroke-width:0.8;"/>
   </g>
   <g id="patch_6">
    <path d="M 57.6 41.472 
L 414.72 41.472 
" style="fill:none;stroke:#000000;stroke-linecap:square;stroke-linejoin:miter;stroke-width:0.8;"/>
   </g>
  </g>
 </g>
 <defs>
  <clipPath id="p8f166adce6">
   <rect height="266.112" width="357.12" x="57.6" y="41.472"/>
  </clipPath>
 </defs>
</svg>
