<?xml version="1.0" encoding="utf-8" standalone="no"?>
<!DOCTYPE svg PUBLIC "-//W3C//DTD SVG 1.1//EN"
  "http://www.w3.org/Graphics/SVG/1.1/DTD/svg11.dtd">
<!-- Created with matplotlib (https://matplotlib.org/) -->
<svg height="345.6pt" version="1.1" viewBox="0 0 460.8 345.6" width="460.8pt" xmlns="http://www.w3.org/2000/svg" xmlns:xlink="http://www.w3.org/1999/xlink">
 <defs>
  <style type="text/css">
*{stroke-linecap:butt;stroke-linejoin:round;}
  </style>
 </defs>
 <g id="figure_1">
  <g id="patch_1">
   <path d="M 0 345.6 
L 460.8 345.6 
L 460.8 0 
L 0 0 
z
" style="fill:#ffffff;"/>
  </g>
  <g id="axes_1">
   <g id="patch_2">
    <path d="M 57.6 307.584 
L 414.72 307.584 
L 414.72 41.472 
L 57.6 41.472 
z
" style="fill:#ffffff;"/>
   </g>
   <g id="line2d_1">
    <path clip-path="url(#p6eeb11b37b)" d="M 73.832727 224.122065 
L 74.847273 234.566173 
L 75.861818 181.894736 
L 76.876364 181.894736 
L 77.890909 132.836938 
L 78.905455 132.836938 
L 79.92 82.634578 
L 82.963636 82.634578 
L 83.978182 76.111204 
L 84.992727 131.505794 
L 86.007273 131.505794 
L 87.021818 185.693975 
L 90.065455 185.693975 
L 91.08 235.776724 
L 92.094545 235.776724 
L 93.109091 188.451173 
L 96.152727 188.451173 
L 97.167273 187.825076 
L 98.181818 187.825076 
L 99.196364 205.845099 
L 100.210909 205.845099 
L 101.225455 222.287442 
L 103.254545 222.287442 
L 104.269091 225.799606 
L 105.283636 243.972436 
L 107.312727 243.972436 
L 108.327273 261.678585 
L 109.341818 261.678585 
L 110.356364 244.137511 
L 111.370909 244.137511 
L 112.385455 245.999872 
L 113.4 245.999872 
L 114.414545 242.752247 
L 118.472727 242.752247 
L 119.487273 259.622169 
L 120.501818 241.968636 
L 122.530909 241.968636 
L 123.545455 223.146168 
L 124.56 223.146168 
L 125.574545 207.072631 
L 126.589091 224.552329 
L 128.618182 224.552329 
L 129.632727 206.608375 
L 131.661818 206.608375 
L 132.676364 210.590187 
L 133.690909 210.590187 
L 134.705455 230.243754 
L 136.734545 230.243754 
L 137.749091 247.314336 
L 138.763636 247.314336 
L 139.778182 229.834796 
L 142.821818 229.834796 
L 143.836364 245.861575 
L 144.850909 245.861575 
L 145.865455 262.497926 
L 146.88 261.664874 
L 147.894545 261.664874 
L 148.909091 244.467411 
L 151.952727 244.467411 
L 152.967273 263.870169 
L 153.981818 263.870169 
L 154.996364 280.433038 
L 156.010909 261.521743 
L 159.054545 261.521743 
L 160.069091 277.993327 
L 161.083636 277.993327 
L 162.098182 295.488 
L 163.112727 295.488 
L 164.127273 278.784157 
L 166.156364 278.784157 
L 167.170909 262.426655 
L 168.185455 244.041999 
L 169.2 244.041999 
L 170.214545 227.874933 
L 171.229091 227.874933 
L 172.243636 209.759964 
L 173.258182 209.759964 
L 174.272727 224.664167 
L 175.287273 206.83156 
L 176.301818 206.83156 
L 177.316364 188.034344 
L 178.330909 188.034344 
L 179.345455 207.467723 
L 181.374545 207.467723 
L 182.389091 226.30653 
L 183.403636 226.30653 
L 184.418182 209.44627 
L 185.432727 209.44627 
L 186.447273 211.482862 
L 187.461818 194.603081 
L 195.578182 194.603081 
L 196.592727 177.055684 
L 197.607273 177.055684 
L 198.621818 193.368897 
L 199.636364 193.368897 
L 200.650909 175.25688 
L 201.665455 175.25688 
L 202.68 172.294633 
L 203.694545 156.715529 
L 204.709091 156.715529 
L 205.723636 175.618776 
L 206.738182 175.618776 
L 207.752727 160.042841 
L 209.781818 160.042841 
L 211.810909 127.230601 
L 213.84 127.230601 
L 214.854545 146.829185 
L 215.869091 146.829185 
L 216.883636 131.343787 
L 217.898182 131.343787 
L 218.912727 114.607413 
L 220.941818 114.607413 
L 221.956364 100.359467 
L 223.985455 100.359467 
L 225 83.249453 
L 226.014545 82.080919 
L 228.043636 82.080919 
L 229.058182 84.570992 
L 231.087273 84.570992 
L 232.101818 101.94861 
L 233.116364 84.395686 
L 234.130909 84.395686 
L 235.145455 67.770282 
L 238.189091 67.770282 
L 239.203636 86.018081 
L 240.218182 70.688377 
L 242.247273 70.688377 
L 243.261818 70.574758 
L 244.276364 70.574758 
L 245.290909 85.373202 
L 246.305455 85.373202 
L 247.32 68.669635 
L 248.334545 65.448013 
L 249.349091 65.448013 
L 250.363636 82.97282 
L 251.378182 82.97282 
L 252.392727 100.24543 
L 253.407273 100.24543 
L 254.421818 84.415012 
L 255.436364 101.518249 
L 256.450909 101.518249 
L 257.465455 83.455514 
L 258.48 83.455514 
L 259.494545 68.704189 
L 260.509091 68.704189 
L 261.523636 53.568 
L 398.487273 53.568 
L 398.487273 53.568 
" style="fill:none;stroke:#ff0000;stroke-linecap:square;stroke-width:12;"/>
    <defs>
     <path d="M 0 3 
C 0.795609 3 1.55874 2.683901 2.12132 2.12132 
C 2.683901 1.55874 3 0.795609 3 0 
C 3 -0.795609 2.683901 -1.55874 2.12132 -2.12132 
C 1.55874 -2.683901 0.795609 -3 0 -3 
C -0.795609 -3 -1.55874 -2.683901 -2.12132 -2.12132 
C -2.683901 -1.55874 -3 -0.795609 -3 0 
C -3 0.795609 -2.683901 1.55874 -2.12132 2.12132 
C -1.55874 2.683901 -0.795609 3 0 3 
z
" id="m03fd795fdf" style="stroke:#ff0000;"/>
    </defs>
    <g clip-path="url(#p6eeb11b37b)">
     <use style="fill:#ff0000;stroke:#ff0000;" x="73.832727" xlink:href="#m03fd795fdf" y="224.122065"/>
     <use style="fill:#ff0000;stroke:#ff0000;" x="74.847273" xlink:href="#m03fd795fdf" y="234.566173"/>
     <use style="fill:#ff0000;stroke:#ff0000;" x="75.861818" xlink:href="#m03fd795fdf" y="181.894736"/>
     <use style="fill:#ff0000;stroke:#ff0000;" x="76.876364" xlink:href="#m03fd795fdf" y="181.894736"/>
     <use style="fill:#ff0000;stroke:#ff0000;" x="77.890909" xlink:href="#m03fd795fdf" y="132.836938"/>
     <use style="fill:#ff0000;stroke:#ff0000;" x="78.905455" xlink:href="#m03fd795fdf" y="132.836938"/>
     <use style="fill:#ff0000;stroke:#ff0000;" x="79.92" xlink:href="#m03fd795fdf" y="82.634578"/>
     <use style="fill:#ff0000;stroke:#ff0000;" x="80.934545" xlink:href="#m03fd795fdf" y="82.634578"/>
     <use style="fill:#ff0000;stroke:#ff0000;" x="81.949091" xlink:href="#m03fd795fdf" y="82.634578"/>
     <use style="fill:#ff0000;stroke:#ff0000;" x="82.963636" xlink:href="#m03fd795fdf" y="82.634578"/>
     <use style="fill:#ff0000;stroke:#ff0000;" x="83.978182" xlink:href="#m03fd795fdf" y="76.111204"/>
     <use style="fill:#ff0000;stroke:#ff0000;" x="84.992727" xlink:href="#m03fd795fdf" y="131.505794"/>
     <use style="fill:#ff0000;stroke:#ff0000;" x="86.007273" xlink:href="#m03fd795fdf" y="131.505794"/>
     <use style="fill:#ff0000;stroke:#ff0000;" x="87.021818" xlink:href="#m03fd795fdf" y="185.693975"/>
     <use style="fill:#ff0000;stroke:#ff0000;" x="88.036364" xlink:href="#m03fd795fdf" y="185.693975"/>
     <use style="fill:#ff0000;stroke:#ff0000;" x="89.050909" xlink:href="#m03fd795fdf" y="185.693975"/>
     <use style="fill:#ff0000;stroke:#ff0000;" x="90.065455" xlink:href="#m03fd795fdf" y="185.693975"/>
     <use style="fill:#ff0000;stroke:#ff0000;" x="91.08" xlink:href="#m03fd795fdf" y="235.776724"/>
     <use style="fill:#ff0000;stroke:#ff0000;" x="92.094545" xlink:href="#m03fd795fdf" y="235.776724"/>
     <use style="fill:#ff0000;stroke:#ff0000;" x="93.109091" xlink:href="#m03fd795fdf" y="188.451173"/>
     <use style="fill:#ff0000;stroke:#ff0000;" x="94.123636" xlink:href="#m03fd795fdf" y="188.451173"/>
     <use style="fill:#ff0000;stroke:#ff0000;" x="95.138182" xlink:href="#m03fd795fdf" y="188.451173"/>
     <use style="fill:#ff0000;stroke:#ff0000;" x="96.152727" xlink:href="#m03fd795fdf" y="188.451173"/>
     <use style="fill:#ff0000;stroke:#ff0000;" x="97.167273" xlink:href="#m03fd795fdf" y="187.825076"/>
     <use style="fill:#ff0000;stroke:#ff0000;" x="98.181818" xlink:href="#m03fd795fdf" y="187.825076"/>
     <use style="fill:#ff0000;stroke:#ff0000;" x="99.196364" xlink:href="#m03fd795fdf" y="205.845099"/>
     <use style="fill:#ff0000;stroke:#ff0000;" x="100.210909" xlink:href="#m03fd795fdf" y="205.845099"/>
     <use style="fill:#ff0000;stroke:#ff0000;" x="101.225455" xlink:href="#m03fd795fdf" y="222.287442"/>
     <use style="fill:#ff0000;stroke:#ff0000;" x="102.24" xlink:href="#m03fd795fdf" y="222.287442"/>
     <use style="fill:#ff0000;stroke:#ff0000;" x="103.254545" xlink:href="#m03fd795fdf" y="222.287442"/>
     <use style="fill:#ff0000;stroke:#ff0000;" x="104.269091" xlink:href="#m03fd795fdf" y="225.799606"/>
     <use style="fill:#ff0000;stroke:#ff0000;" x="105.283636" xlink:href="#m03fd795fdf" y="243.972436"/>
     <use style="fill:#ff0000;stroke:#ff0000;" x="106.298182" xlink:href="#m03fd795fdf" y="243.972436"/>
     <use style="fill:#ff0000;stroke:#ff0000;" x="107.312727" xlink:href="#m03fd795fdf" y="243.972436"/>
     <use style="fill:#ff0000;stroke:#ff0000;" x="108.327273" xlink:href="#m03fd795fdf" y="261.678585"/>
     <use style="fill:#ff0000;stroke:#ff0000;" x="109.341818" xlink:href="#m03fd795fdf" y="261.678585"/>
     <use style="fill:#ff0000;stroke:#ff0000;" x="110.356364" xlink:href="#m03fd795fdf" y="244.137511"/>
     <use style="fill:#ff0000;stroke:#ff0000;" x="111.370909" xlink:href="#m03fd795fdf" y="244.137511"/>
     <use style="fill:#ff0000;stroke:#ff0000;" x="112.385455" xlink:href="#m03fd795fdf" y="245.999872"/>
     <use style="fill:#ff0000;stroke:#ff0000;" x="113.4" xlink:href="#m03fd795fdf" y="245.999872"/>
     <use style="fill:#ff0000;stroke:#ff0000;" x="114.414545" xlink:href="#m03fd795fdf" y="242.752247"/>
     <use style="fill:#ff0000;stroke:#ff0000;" x="115.429091" xlink:href="#m03fd795fdf" y="242.752247"/>
     <use style="fill:#ff0000;stroke:#ff0000;" x="116.443636" xlink:href="#m03fd795fdf" y="242.752247"/>
     <use style="fill:#ff0000;stroke:#ff0000;" x="117.458182" xlink:href="#m03fd795fdf" y="242.752247"/>
     <use style="fill:#ff0000;stroke:#ff0000;" x="118.472727" xlink:href="#m03fd795fdf" y="242.752247"/>
     <use style="fill:#ff0000;stroke:#ff0000;" x="119.487273" xlink:href="#m03fd795fdf" y="259.622169"/>
     <use style="fill:#ff0000;stroke:#ff0000;" x="120.501818" xlink:href="#m03fd795fdf" y="241.968636"/>
     <use style="fill:#ff0000;stroke:#ff0000;" x="121.516364" xlink:href="#m03fd795fdf" y="241.968636"/>
     <use style="fill:#ff0000;stroke:#ff0000;" x="122.530909" xlink:href="#m03fd795fdf" y="241.968636"/>
     <use style="fill:#ff0000;stroke:#ff0000;" x="123.545455" xlink:href="#m03fd795fdf" y="223.146168"/>
     <use style="fill:#ff0000;stroke:#ff0000;" x="124.56" xlink:href="#m03fd795fdf" y="223.146168"/>
     <use style="fill:#ff0000;stroke:#ff0000;" x="125.574545" xlink:href="#m03fd795fdf" y="207.072631"/>
     <use style="fill:#ff0000;stroke:#ff0000;" x="126.589091" xlink:href="#m03fd795fdf" y="224.552329"/>
     <use style="fill:#ff0000;stroke:#ff0000;" x="127.603636" xlink:href="#m03fd795fdf" y="224.552329"/>
     <use style="fill:#ff0000;stroke:#ff0000;" x="128.618182" xlink:href="#m03fd795fdf" y="224.552329"/>
     <use style="fill:#ff0000;stroke:#ff0000;" x="129.632727" xlink:href="#m03fd795fdf" y="206.608375"/>
     <use style="fill:#ff0000;stroke:#ff0000;" x="130.647273" xlink:href="#m03fd795fdf" y="206.608375"/>
     <use style="fill:#ff0000;stroke:#ff0000;" x="131.661818" xlink:href="#m03fd795fdf" y="206.608375"/>
     <use style="fill:#ff0000;stroke:#ff0000;" x="132.676364" xlink:href="#m03fd795fdf" y="210.590187"/>
     <use style="fill:#ff0000;stroke:#ff0000;" x="133.690909" xlink:href="#m03fd795fdf" y="210.590187"/>
     <use style="fill:#ff0000;stroke:#ff0000;" x="134.705455" xlink:href="#m03fd795fdf" y="230.243754"/>
     <use style="fill:#ff0000;stroke:#ff0000;" x="135.72" xlink:href="#m03fd795fdf" y="230.243754"/>
     <use style="fill:#ff0000;stroke:#ff0000;" x="136.734545" xlink:href="#m03fd795fdf" y="230.243754"/>
     <use style="fill:#ff0000;stroke:#ff0000;" x="137.749091" xlink:href="#m03fd795fdf" y="247.314336"/>
     <use style="fill:#ff0000;stroke:#ff0000;" x="138.763636" xlink:href="#m03fd795fdf" y="247.314336"/>
     <use style="fill:#ff0000;stroke:#ff0000;" x="139.778182" xlink:href="#m03fd795fdf" y="229.834796"/>
     <use style="fill:#ff0000;stroke:#ff0000;" x="140.792727" xlink:href="#m03fd795fdf" y="229.834796"/>
     <use style="fill:#ff0000;stroke:#ff0000;" x="141.807273" xlink:href="#m03fd795fdf" y="229.834796"/>
     <use style="fill:#ff0000;stroke:#ff0000;" x="142.821818" xlink:href="#m03fd795fdf" y="229.834796"/>
     <use style="fill:#ff0000;stroke:#ff0000;" x="143.836364" xlink:href="#m03fd795fdf" y="245.861575"/>
     <use style="fill:#ff0000;stroke:#ff0000;" x="144.850909" xlink:href="#m03fd795fdf" y="245.861575"/>
     <use style="fill:#ff0000;stroke:#ff0000;" x="145.865455" xlink:href="#m03fd795fdf" y="262.497926"/>
     <use style="fill:#ff0000;stroke:#ff0000;" x="146.88" xlink:href="#m03fd795fdf" y="261.664874"/>
     <use style="fill:#ff0000;stroke:#ff0000;" x="147.894545" xlink:href="#m03fd795fdf" y="261.664874"/>
     <use style="fill:#ff0000;stroke:#ff0000;" x="148.909091" xlink:href="#m03fd795fdf" y="244.467411"/>
     <use style="fill:#ff0000;stroke:#ff0000;" x="149.923636" xlink:href="#m03fd795fdf" y="244.467411"/>
     <use style="fill:#ff0000;stroke:#ff0000;" x="150.938182" xlink:href="#m03fd795fdf" y="244.467411"/>
     <use style="fill:#ff0000;stroke:#ff0000;" x="151.952727" xlink:href="#m03fd795fdf" y="244.467411"/>
     <use style="fill:#ff0000;stroke:#ff0000;" x="152.967273" xlink:href="#m03fd795fdf" y="263.870169"/>
     <use style="fill:#ff0000;stroke:#ff0000;" x="153.981818" xlink:href="#m03fd795fdf" y="263.870169"/>
     <use style="fill:#ff0000;stroke:#ff0000;" x="154.996364" xlink:href="#m03fd795fdf" y="280.433038"/>
     <use style="fill:#ff0000;stroke:#ff0000;" x="156.010909" xlink:href="#m03fd795fdf" y="261.521743"/>
     <use style="fill:#ff0000;stroke:#ff0000;" x="157.025455" xlink:href="#m03fd795fdf" y="261.521743"/>
     <use style="fill:#ff0000;stroke:#ff0000;" x="158.04" xlink:href="#m03fd795fdf" y="261.521743"/>
     <use style="fill:#ff0000;stroke:#ff0000;" x="159.054545" xlink:href="#m03fd795fdf" y="261.521743"/>
     <use style="fill:#ff0000;stroke:#ff0000;" x="160.069091" xlink:href="#m03fd795fdf" y="277.993327"/>
     <use style="fill:#ff0000;stroke:#ff0000;" x="161.083636" xlink:href="#m03fd795fdf" y="277.993327"/>
     <use style="fill:#ff0000;stroke:#ff0000;" x="162.098182" xlink:href="#m03fd795fdf" y="295.488"/>
     <use style="fill:#ff0000;stroke:#ff0000;" x="163.112727" xlink:href="#m03fd795fdf" y="295.488"/>
     <use style="fill:#ff0000;stroke:#ff0000;" x="164.127273" xlink:href="#m03fd795fdf" y="278.784157"/>
     <use style="fill:#ff0000;stroke:#ff0000;" x="165.141818" xlink:href="#m03fd795fdf" y="278.784157"/>
     <use style="fill:#ff0000;stroke:#ff0000;" x="166.156364" xlink:href="#m03fd795fdf" y="278.784157"/>
     <use style="fill:#ff0000;stroke:#ff0000;" x="167.170909" xlink:href="#m03fd795fdf" y="262.426655"/>
     <use style="fill:#ff0000;stroke:#ff0000;" x="168.185455" xlink:href="#m03fd795fdf" y="244.041999"/>
     <use style="fill:#ff0000;stroke:#ff0000;" x="169.2" xlink:href="#m03fd795fdf" y="244.041999"/>
     <use style="fill:#ff0000;stroke:#ff0000;" x="170.214545" xlink:href="#m03fd795fdf" y="227.874933"/>
     <use style="fill:#ff0000;stroke:#ff0000;" x="171.229091" xlink:href="#m03fd795fdf" y="227.874933"/>
     <use style="fill:#ff0000;stroke:#ff0000;" x="172.243636" xlink:href="#m03fd795fdf" y="209.759964"/>
     <use style="fill:#ff0000;stroke:#ff0000;" x="173.258182" xlink:href="#m03fd795fdf" y="209.759964"/>
     <use style="fill:#ff0000;stroke:#ff0000;" x="174.272727" xlink:href="#m03fd795fdf" y="224.664167"/>
     <use style="fill:#ff0000;stroke:#ff0000;" x="175.287273" xlink:href="#m03fd795fdf" y="206.83156"/>
     <use style="fill:#ff0000;stroke:#ff0000;" x="176.301818" xlink:href="#m03fd795fdf" y="206.83156"/>
     <use style="fill:#ff0000;stroke:#ff0000;" x="177.316364" xlink:href="#m03fd795fdf" y="188.034344"/>
     <use style="fill:#ff0000;stroke:#ff0000;" x="178.330909" xlink:href="#m03fd795fdf" y="188.034344"/>
     <use style="fill:#ff0000;stroke:#ff0000;" x="179.345455" xlink:href="#m03fd795fdf" y="207.467723"/>
     <use style="fill:#ff0000;stroke:#ff0000;" x="180.36" xlink:href="#m03fd795fdf" y="207.467723"/>
     <use style="fill:#ff0000;stroke:#ff0000;" x="181.374545" xlink:href="#m03fd795fdf" y="207.467723"/>
     <use style="fill:#ff0000;stroke:#ff0000;" x="182.389091" xlink:href="#m03fd795fdf" y="226.30653"/>
     <use style="fill:#ff0000;stroke:#ff0000;" x="183.403636" xlink:href="#m03fd795fdf" y="226.30653"/>
     <use style="fill:#ff0000;stroke:#ff0000;" x="184.418182" xlink:href="#m03fd795fdf" y="209.44627"/>
     <use style="fill:#ff0000;stroke:#ff0000;" x="185.432727" xlink:href="#m03fd795fdf" y="209.44627"/>
     <use style="fill:#ff0000;stroke:#ff0000;" x="186.447273" xlink:href="#m03fd795fdf" y="211.482862"/>
     <use style="fill:#ff0000;stroke:#ff0000;" x="187.461818" xlink:href="#m03fd795fdf" y="194.603081"/>
     <use style="fill:#ff0000;stroke:#ff0000;" x="188.476364" xlink:href="#m03fd795fdf" y="194.603081"/>
     <use style="fill:#ff0000;stroke:#ff0000;" x="189.490909" xlink:href="#m03fd795fdf" y="194.603081"/>
     <use style="fill:#ff0000;stroke:#ff0000;" x="190.505455" xlink:href="#m03fd795fdf" y="194.603081"/>
     <use style="fill:#ff0000;stroke:#ff0000;" x="191.52" xlink:href="#m03fd795fdf" y="194.603081"/>
     <use style="fill:#ff0000;stroke:#ff0000;" x="192.534545" xlink:href="#m03fd795fdf" y="194.603081"/>
     <use style="fill:#ff0000;stroke:#ff0000;" x="193.549091" xlink:href="#m03fd795fdf" y="194.603081"/>
     <use style="fill:#ff0000;stroke:#ff0000;" x="194.563636" xlink:href="#m03fd795fdf" y="194.603081"/>
     <use style="fill:#ff0000;stroke:#ff0000;" x="195.578182" xlink:href="#m03fd795fdf" y="194.603081"/>
     <use style="fill:#ff0000;stroke:#ff0000;" x="196.592727" xlink:href="#m03fd795fdf" y="177.055684"/>
     <use style="fill:#ff0000;stroke:#ff0000;" x="197.607273" xlink:href="#m03fd795fdf" y="177.055684"/>
     <use style="fill:#ff0000;stroke:#ff0000;" x="198.621818" xlink:href="#m03fd795fdf" y="193.368897"/>
     <use style="fill:#ff0000;stroke:#ff0000;" x="199.636364" xlink:href="#m03fd795fdf" y="193.368897"/>
     <use style="fill:#ff0000;stroke:#ff0000;" x="200.650909" xlink:href="#m03fd795fdf" y="175.25688"/>
     <use style="fill:#ff0000;stroke:#ff0000;" x="201.665455" xlink:href="#m03fd795fdf" y="175.25688"/>
     <use style="fill:#ff0000;stroke:#ff0000;" x="202.68" xlink:href="#m03fd795fdf" y="172.294633"/>
     <use style="fill:#ff0000;stroke:#ff0000;" x="203.694545" xlink:href="#m03fd795fdf" y="156.715529"/>
     <use style="fill:#ff0000;stroke:#ff0000;" x="204.709091" xlink:href="#m03fd795fdf" y="156.715529"/>
     <use style="fill:#ff0000;stroke:#ff0000;" x="205.723636" xlink:href="#m03fd795fdf" y="175.618776"/>
     <use style="fill:#ff0000;stroke:#ff0000;" x="206.738182" xlink:href="#m03fd795fdf" y="175.618776"/>
     <use style="fill:#ff0000;stroke:#ff0000;" x="207.752727" xlink:href="#m03fd795fdf" y="160.042841"/>
     <use style="fill:#ff0000;stroke:#ff0000;" x="208.767273" xlink:href="#m03fd795fdf" y="160.042841"/>
     <use style="fill:#ff0000;stroke:#ff0000;" x="209.781818" xlink:href="#m03fd795fdf" y="160.042841"/>
     <use style="fill:#ff0000;stroke:#ff0000;" x="210.796364" xlink:href="#m03fd795fdf" y="144.166591"/>
     <use style="fill:#ff0000;stroke:#ff0000;" x="211.810909" xlink:href="#m03fd795fdf" y="127.230601"/>
     <use style="fill:#ff0000;stroke:#ff0000;" x="212.825455" xlink:href="#m03fd795fdf" y="127.230601"/>
     <use style="fill:#ff0000;stroke:#ff0000;" x="213.84" xlink:href="#m03fd795fdf" y="127.230601"/>
     <use style="fill:#ff0000;stroke:#ff0000;" x="214.854545" xlink:href="#m03fd795fdf" y="146.829185"/>
     <use style="fill:#ff0000;stroke:#ff0000;" x="215.869091" xlink:href="#m03fd795fdf" y="146.829185"/>
     <use style="fill:#ff0000;stroke:#ff0000;" x="216.883636" xlink:href="#m03fd795fdf" y="131.343787"/>
     <use style="fill:#ff0000;stroke:#ff0000;" x="217.898182" xlink:href="#m03fd795fdf" y="131.343787"/>
     <use style="fill:#ff0000;stroke:#ff0000;" x="218.912727" xlink:href="#m03fd795fdf" y="114.607413"/>
     <use style="fill:#ff0000;stroke:#ff0000;" x="219.927273" xlink:href="#m03fd795fdf" y="114.607413"/>
     <use style="fill:#ff0000;stroke:#ff0000;" x="220.941818" xlink:href="#m03fd795fdf" y="114.607413"/>
     <use style="fill:#ff0000;stroke:#ff0000;" x="221.956364" xlink:href="#m03fd795fdf" y="100.359467"/>
     <use style="fill:#ff0000;stroke:#ff0000;" x="222.970909" xlink:href="#m03fd795fdf" y="100.359467"/>
     <use style="fill:#ff0000;stroke:#ff0000;" x="223.985455" xlink:href="#m03fd795fdf" y="100.359467"/>
     <use style="fill:#ff0000;stroke:#ff0000;" x="225" xlink:href="#m03fd795fdf" y="83.249453"/>
     <use style="fill:#ff0000;stroke:#ff0000;" x="226.014545" xlink:href="#m03fd795fdf" y="82.080919"/>
     <use style="fill:#ff0000;stroke:#ff0000;" x="227.029091" xlink:href="#m03fd795fdf" y="82.080919"/>
     <use style="fill:#ff0000;stroke:#ff0000;" x="228.043636" xlink:href="#m03fd795fdf" y="82.080919"/>
     <use style="fill:#ff0000;stroke:#ff0000;" x="229.058182" xlink:href="#m03fd795fdf" y="84.570992"/>
     <use style="fill:#ff0000;stroke:#ff0000;" x="230.072727" xlink:href="#m03fd795fdf" y="84.570992"/>
     <use style="fill:#ff0000;stroke:#ff0000;" x="231.087273" xlink:href="#m03fd795fdf" y="84.570992"/>
     <use style="fill:#ff0000;stroke:#ff0000;" x="232.101818" xlink:href="#m03fd795fdf" y="101.94861"/>
     <use style="fill:#ff0000;stroke:#ff0000;" x="233.116364" xlink:href="#m03fd795fdf" y="84.395686"/>
     <use style="fill:#ff0000;stroke:#ff0000;" x="234.130909" xlink:href="#m03fd795fdf" y="84.395686"/>
     <use style="fill:#ff0000;stroke:#ff0000;" x="235.145455" xlink:href="#m03fd795fdf" y="67.770282"/>
     <use style="fill:#ff0000;stroke:#ff0000;" x="236.16" xlink:href="#m03fd795fdf" y="67.770282"/>
     <use style="fill:#ff0000;stroke:#ff0000;" x="237.174545" xlink:href="#m03fd795fdf" y="67.770282"/>
     <use style="fill:#ff0000;stroke:#ff0000;" x="238.189091" xlink:href="#m03fd795fdf" y="67.770282"/>
     <use style="fill:#ff0000;stroke:#ff0000;" x="239.203636" xlink:href="#m03fd795fdf" y="86.018081"/>
     <use style="fill:#ff0000;stroke:#ff0000;" x="240.218182" xlink:href="#m03fd795fdf" y="70.688377"/>
     <use style="fill:#ff0000;stroke:#ff0000;" x="241.232727" xlink:href="#m03fd795fdf" y="70.688377"/>
     <use style="fill:#ff0000;stroke:#ff0000;" x="242.247273" xlink:href="#m03fd795fdf" y="70.688377"/>
     <use style="fill:#ff0000;stroke:#ff0000;" x="243.261818" xlink:href="#m03fd795fdf" y="70.574758"/>
     <use style="fill:#ff0000;stroke:#ff0000;" x="244.276364" xlink:href="#m03fd795fdf" y="70.574758"/>
     <use style="fill:#ff0000;stroke:#ff0000;" x="245.290909" xlink:href="#m03fd795fdf" y="85.373202"/>
     <use style="fill:#ff0000;stroke:#ff0000;" x="246.305455" xlink:href="#m03fd795fdf" y="85.373202"/>
     <use style="fill:#ff0000;stroke:#ff0000;" x="247.32" xlink:href="#m03fd795fdf" y="68.669635"/>
     <use style="fill:#ff0000;stroke:#ff0000;" x="248.334545" xlink:href="#m03fd795fdf" y="65.448013"/>
     <use style="fill:#ff0000;stroke:#ff0000;" x="249.349091" xlink:href="#m03fd795fdf" y="65.448013"/>
     <use style="fill:#ff0000;stroke:#ff0000;" x="250.363636" xlink:href="#m03fd795fdf" y="82.97282"/>
     <use style="fill:#ff0000;stroke:#ff0000;" x="251.378182" xlink:href="#m03fd795fdf" y="82.97282"/>
     <use style="fill:#ff0000;stroke:#ff0000;" x="252.392727" xlink:href="#m03fd795fdf" y="100.24543"/>
     <use style="fill:#ff0000;stroke:#ff0000;" x="253.407273" xlink:href="#m03fd795fdf" y="100.24543"/>
     <use style="fill:#ff0000;stroke:#ff0000;" x="254.421818" xlink:href="#m03fd795fdf" y="84.415012"/>
     <use style="fill:#ff0000;stroke:#ff0000;" x="255.436364" xlink:href="#m03fd795fdf" y="101.518249"/>
     <use style="fill:#ff0000;stroke:#ff0000;" x="256.450909" xlink:href="#m03fd795fdf" y="101.518249"/>
     <use style="fill:#ff0000;stroke:#ff0000;" x="257.465455" xlink:href="#m03fd795fdf" y="83.455514"/>
     <use style="fill:#ff0000;stroke:#ff0000;" x="258.48" xlink:href="#m03fd795fdf" y="83.455514"/>
     <use style="fill:#ff0000;stroke:#ff0000;" x="259.494545" xlink:href="#m03fd795fdf" y="68.704189"/>
     <use style="fill:#ff0000;stroke:#ff0000;" x="260.509091" xlink:href="#m03fd795fdf" y="68.704189"/>
     <use style="fill:#ff0000;stroke:#ff0000;" x="261.523636" xlink:href="#m03fd795fdf" y="53.568"/>
     <use style="fill:#ff0000;stroke:#ff0000;" x="262.538182" xlink:href="#m03fd795fdf" y="53.568"/>
     <use style="fill:#ff0000;stroke:#ff0000;" x="263.552727" xlink:href="#m03fd795fdf" y="53.568"/>
     <use style="fill:#ff0000;stroke:#ff0000;" x="264.567273" xlink:href="#m03fd795fdf" y="53.568"/>
     <use style="fill:#ff0000;stroke:#ff0000;" x="265.581818" xlink:href="#m03fd795fdf" y="53.568"/>
     <use style="fill:#ff0000;stroke:#ff0000;" x="266.596364" xlink:href="#m03fd795fdf" y="53.568"/>
     <use style="fill:#ff0000;stroke:#ff0000;" x="267.610909" xlink:href="#m03fd795fdf" y="53.568"/>
     <use style="fill:#ff0000;stroke:#ff0000;" x="268.625455" xlink:href="#m03fd795fdf" y="53.568"/>
     <use style="fill:#ff0000;stroke:#ff0000;" x="269.64" xlink:href="#m03fd795fdf" y="53.568"/>
     <use style="fill:#ff0000;stroke:#ff0000;" x="270.654545" xlink:href="#m03fd795fdf" y="53.568"/>
     <use style="fill:#ff0000;stroke:#ff0000;" x="271.669091" xlink:href="#m03fd795fdf" y="53.568"/>
     <use style="fill:#ff0000;stroke:#ff0000;" x="272.683636" xlink:href="#m03fd795fdf" y="53.568"/>
     <use style="fill:#ff0000;stroke:#ff0000;" x="273.698182" xlink:href="#m03fd795fdf" y="53.568"/>
     <use style="fill:#ff0000;stroke:#ff0000;" x="274.712727" xlink:href="#m03fd795fdf" y="53.568"/>
     <use style="fill:#ff0000;stroke:#ff0000;" x="275.727273" xlink:href="#m03fd795fdf" y="53.568"/>
     <use style="fill:#ff0000;stroke:#ff0000;" x="276.741818" xlink:href="#m03fd795fdf" y="53.568"/>
     <use style="fill:#ff0000;stroke:#ff0000;" x="277.756364" xlink:href="#m03fd795fdf" y="53.568"/>
     <use style="fill:#ff0000;stroke:#ff0000;" x="278.770909" xlink:href="#m03fd795fdf" y="53.568"/>
     <use style="fill:#ff0000;stroke:#ff0000;" x="279.785455" xlink:href="#m03fd795fdf" y="53.568"/>
     <use style="fill:#ff0000;stroke:#ff0000;" x="280.8" xlink:href="#m03fd795fdf" y="53.568"/>
     <use style="fill:#ff0000;stroke:#ff0000;" x="281.814545" xlink:href="#m03fd795fdf" y="53.568"/>
     <use style="fill:#ff0000;stroke:#ff0000;" x="282.829091" xlink:href="#m03fd795fdf" y="53.568"/>
     <use style="fill:#ff0000;stroke:#ff0000;" x="283.843636" xlink:href="#m03fd795fdf" y="53.568"/>
     <use style="fill:#ff0000;stroke:#ff0000;" x="284.858182" xlink:href="#m03fd795fdf" y="53.568"/>
     <use style="fill:#ff0000;stroke:#ff0000;" x="285.872727" xlink:href="#m03fd795fdf" y="53.568"/>
     <use style="fill:#ff0000;stroke:#ff0000;" x="286.887273" xlink:href="#m03fd795fdf" y="53.568"/>
     <use style="fill:#ff0000;stroke:#ff0000;" x="287.901818" xlink:href="#m03fd795fdf" y="53.568"/>
     <use style="fill:#ff0000;stroke:#ff0000;" x="288.916364" xlink:href="#m03fd795fdf" y="53.568"/>
     <use style="fill:#ff0000;stroke:#ff0000;" x="289.930909" xlink:href="#m03fd795fdf" y="53.568"/>
     <use style="fill:#ff0000;stroke:#ff0000;" x="290.945455" xlink:href="#m03fd795fdf" y="53.568"/>
     <use style="fill:#ff0000;stroke:#ff0000;" x="291.96" xlink:href="#m03fd795fdf" y="53.568"/>
     <use style="fill:#ff0000;stroke:#ff0000;" x="292.974545" xlink:href="#m03fd795fdf" y="53.568"/>
     <use style="fill:#ff0000;stroke:#ff0000;" x="293.989091" xlink:href="#m03fd795fdf" y="53.568"/>
     <use style="fill:#ff0000;stroke:#ff0000;" x="295.003636" xlink:href="#m03fd795fdf" y="53.568"/>
     <use style="fill:#ff0000;stroke:#ff0000;" x="296.018182" xlink:href="#m03fd795fdf" y="53.568"/>
     <use style="fill:#ff0000;stroke:#ff0000;" x="297.032727" xlink:href="#m03fd795fdf" y="53.568"/>
     <use style="fill:#ff0000;stroke:#ff0000;" x="298.047273" xlink:href="#m03fd795fdf" y="53.568"/>
     <use style="fill:#ff0000;stroke:#ff0000;" x="299.061818" xlink:href="#m03fd795fdf" y="53.568"/>
     <use style="fill:#ff0000;stroke:#ff0000;" x="300.076364" xlink:href="#m03fd795fdf" y="53.568"/>
     <use style="fill:#ff0000;stroke:#ff0000;" x="301.090909" xlink:href="#m03fd795fdf" y="53.568"/>
     <use style="fill:#ff0000;stroke:#ff0000;" x="302.105455" xlink:href="#m03fd795fdf" y="53.568"/>
     <use style="fill:#ff0000;stroke:#ff0000;" x="303.12" xlink:href="#m03fd795fdf" y="53.568"/>
     <use style="fill:#ff0000;stroke:#ff0000;" x="304.134545" xlink:href="#m03fd795fdf" y="53.568"/>
     <use style="fill:#ff0000;stroke:#ff0000;" x="305.149091" xlink:href="#m03fd795fdf" y="53.568"/>
     <use style="fill:#ff0000;stroke:#ff0000;" x="306.163636" xlink:href="#m03fd795fdf" y="53.568"/>
     <use style="fill:#ff0000;stroke:#ff0000;" x="307.178182" xlink:href="#m03fd795fdf" y="53.568"/>
     <use style="fill:#ff0000;stroke:#ff0000;" x="308.192727" xlink:href="#m03fd795fdf" y="53.568"/>
     <use style="fill:#ff0000;stroke:#ff0000;" x="309.207273" xlink:href="#m03fd795fdf" y="53.568"/>
     <use style="fill:#ff0000;stroke:#ff0000;" x="310.221818" xlink:href="#m03fd795fdf" y="53.568"/>
     <use style="fill:#ff0000;stroke:#ff0000;" x="311.236364" xlink:href="#m03fd795fdf" y="53.568"/>
     <use style="fill:#ff0000;stroke:#ff0000;" x="312.250909" xlink:href="#m03fd795fdf" y="53.568"/>
     <use style="fill:#ff0000;stroke:#ff0000;" x="313.265455" xlink:href="#m03fd795fdf" y="53.568"/>
     <use style="fill:#ff0000;stroke:#ff0000;" x="314.28" xlink:href="#m03fd795fdf" y="53.568"/>
     <use style="fill:#ff0000;stroke:#ff0000;" x="315.294545" xlink:href="#m03fd795fdf" y="53.568"/>
     <use style="fill:#ff0000;stroke:#ff0000;" x="316.309091" xlink:href="#m03fd795fdf" y="53.568"/>
     <use style="fill:#ff0000;stroke:#ff0000;" x="317.323636" xlink:href="#m03fd795fdf" y="53.568"/>
     <use style="fill:#ff0000;stroke:#ff0000;" x="318.338182" xlink:href="#m03fd795fdf" y="53.568"/>
     <use style="fill:#ff0000;stroke:#ff0000;" x="319.352727" xlink:href="#m03fd795fdf" y="53.568"/>
     <use style="fill:#ff0000;stroke:#ff0000;" x="320.367273" xlink:href="#m03fd795fdf" y="53.568"/>
     <use style="fill:#ff0000;stroke:#ff0000;" x="321.381818" xlink:href="#m03fd795fdf" y="53.568"/>
     <use style="fill:#ff0000;stroke:#ff0000;" x="322.396364" xlink:href="#m03fd795fdf" y="53.568"/>
     <use style="fill:#ff0000;stroke:#ff0000;" x="323.410909" xlink:href="#m03fd795fdf" y="53.568"/>
     <use style="fill:#ff0000;stroke:#ff0000;" x="324.425455" xlink:href="#m03fd795fdf" y="53.568"/>
     <use style="fill:#ff0000;stroke:#ff0000;" x="325.44" xlink:href="#m03fd795fdf" y="53.568"/>
     <use style="fill:#ff0000;stroke:#ff0000;" x="326.454545" xlink:href="#m03fd795fdf" y="53.568"/>
     <use style="fill:#ff0000;stroke:#ff0000;" x="327.469091" xlink:href="#m03fd795fdf" y="53.568"/>
     <use style="fill:#ff0000;stroke:#ff0000;" x="328.483636" xlink:href="#m03fd795fdf" y="53.568"/>
     <use style="fill:#ff0000;stroke:#ff0000;" x="329.498182" xlink:href="#m03fd795fdf" y="53.568"/>
     <use style="fill:#ff0000;stroke:#ff0000;" x="330.512727" xlink:href="#m03fd795fdf" y="53.568"/>
     <use style="fill:#ff0000;stroke:#ff0000;" x="331.527273" xlink:href="#m03fd795fdf" y="53.568"/>
     <use style="fill:#ff0000;stroke:#ff0000;" x="332.541818" xlink:href="#m03fd795fdf" y="53.568"/>
     <use style="fill:#ff0000;stroke:#ff0000;" x="333.556364" xlink:href="#m03fd795fdf" y="53.568"/>
     <use style="fill:#ff0000;stroke:#ff0000;" x="334.570909" xlink:href="#m03fd795fdf" y="53.568"/>
     <use style="fill:#ff0000;stroke:#ff0000;" x="335.585455" xlink:href="#m03fd795fdf" y="53.568"/>
     <use style="fill:#ff0000;stroke:#ff0000;" x="336.6" xlink:href="#m03fd795fdf" y="53.568"/>
     <use style="fill:#ff0000;stroke:#ff0000;" x="337.614545" xlink:href="#m03fd795fdf" y="53.568"/>
     <use style="fill:#ff0000;stroke:#ff0000;" x="338.629091" xlink:href="#m03fd795fdf" y="53.568"/>
     <use style="fill:#ff0000;stroke:#ff0000;" x="339.643636" xlink:href="#m03fd795fdf" y="53.568"/>
     <use style="fill:#ff0000;stroke:#ff0000;" x="340.658182" xlink:href="#m03fd795fdf" y="53.568"/>
     <use style="fill:#ff0000;stroke:#ff0000;" x="341.672727" xlink:href="#m03fd795fdf" y="53.568"/>
     <use style="fill:#ff0000;stroke:#ff0000;" x="342.687273" xlink:href="#m03fd795fdf" y="53.568"/>
     <use style="fill:#ff0000;stroke:#ff0000;" x="343.701818" xlink:href="#m03fd795fdf" y="53.568"/>
     <use style="fill:#ff0000;stroke:#ff0000;" x="344.716364" xlink:href="#m03fd795fdf" y="53.568"/>
     <use style="fill:#ff0000;stroke:#ff0000;" x="345.730909" xlink:href="#m03fd795fdf" y="53.568"/>
     <use style="fill:#ff0000;stroke:#ff0000;" x="346.745455" xlink:href="#m03fd795fdf" y="53.568"/>
     <use style="fill:#ff0000;stroke:#ff0000;" x="347.76" xlink:href="#m03fd795fdf" y="53.568"/>
     <use style="fill:#ff0000;stroke:#ff0000;" x="348.774545" xlink:href="#m03fd795fdf" y="53.568"/>
     <use style="fill:#ff0000;stroke:#ff0000;" x="349.789091" xlink:href="#m03fd795fdf" y="53.568"/>
     <use style="fill:#ff0000;stroke:#ff0000;" x="350.803636" xlink:href="#m03fd795fdf" y="53.568"/>
     <use style="fill:#ff0000;stroke:#ff0000;" x="351.818182" xlink:href="#m03fd795fdf" y="53.568"/>
     <use style="fill:#ff0000;stroke:#ff0000;" x="352.832727" xlink:href="#m03fd795fdf" y="53.568"/>
     <use style="fill:#ff0000;stroke:#ff0000;" x="353.847273" xlink:href="#m03fd795fdf" y="53.568"/>
     <use style="fill:#ff0000;stroke:#ff0000;" x="354.861818" xlink:href="#m03fd795fdf" y="53.568"/>
     <use style="fill:#ff0000;stroke:#ff0000;" x="355.876364" xlink:href="#m03fd795fdf" y="53.568"/>
     <use style="fill:#ff0000;stroke:#ff0000;" x="356.890909" xlink:href="#m03fd795fdf" y="53.568"/>
     <use style="fill:#ff0000;stroke:#ff0000;" x="357.905455" xlink:href="#m03fd795fdf" y="53.568"/>
     <use style="fill:#ff0000;stroke:#ff0000;" x="358.92" xlink:href="#m03fd795fdf" y="53.568"/>
     <use style="fill:#ff0000;stroke:#ff0000;" x="359.934545" xlink:href="#m03fd795fdf" y="53.568"/>
     <use style="fill:#ff0000;stroke:#ff0000;" x="360.949091" xlink:href="#m03fd795fdf" y="53.568"/>
     <use style="fill:#ff0000;stroke:#ff0000;" x="361.963636" xlink:href="#m03fd795fdf" y="53.568"/>
     <use style="fill:#ff0000;stroke:#ff0000;" x="362.978182" xlink:href="#m03fd795fdf" y="53.568"/>
     <use style="fill:#ff0000;stroke:#ff0000;" x="363.992727" xlink:href="#m03fd795fdf" y="53.568"/>
     <use style="fill:#ff0000;stroke:#ff0000;" x="365.007273" xlink:href="#m03fd795fdf" y="53.568"/>
     <use style="fill:#ff0000;stroke:#ff0000;" x="366.021818" xlink:href="#m03fd795fdf" y="53.568"/>
     <use style="fill:#ff0000;stroke:#ff0000;" x="367.036364" xlink:href="#m03fd795fdf" y="53.568"/>
     <use style="fill:#ff0000;stroke:#ff0000;" x="368.050909" xlink:href="#m03fd795fdf" y="53.568"/>
     <use style="fill:#ff0000;stroke:#ff0000;" x="369.065455" xlink:href="#m03fd795fdf" y="53.568"/>
     <use style="fill:#ff0000;stroke:#ff0000;" x="370.08" xlink:href="#m03fd795fdf" y="53.568"/>
     <use style="fill:#ff0000;stroke:#ff0000;" x="371.094545" xlink:href="#m03fd795fdf" y="53.568"/>
     <use style="fill:#ff0000;stroke:#ff0000;" x="372.109091" xlink:href="#m03fd795fdf" y="53.568"/>
     <use style="fill:#ff0000;stroke:#ff0000;" x="373.123636" xlink:href="#m03fd795fdf" y="53.568"/>
     <use style="fill:#ff0000;stroke:#ff0000;" x="374.138182" xlink:href="#m03fd795fdf" y="53.568"/>
     <use style="fill:#ff0000;stroke:#ff0000;" x="375.152727" xlink:href="#m03fd795fdf" y="53.568"/>
     <use style="fill:#ff0000;stroke:#ff0000;" x="376.167273" xlink:href="#m03fd795fdf" y="53.568"/>
     <use style="fill:#ff0000;stroke:#ff0000;" x="377.181818" xlink:href="#m03fd795fdf" y="53.568"/>
     <use style="fill:#ff0000;stroke:#ff0000;" x="378.196364" xlink:href="#m03fd795fdf" y="53.568"/>
     <use style="fill:#ff0000;stroke:#ff0000;" x="379.210909" xlink:href="#m03fd795fdf" y="53.568"/>
     <use style="fill:#ff0000;stroke:#ff0000;" x="380.225455" xlink:href="#m03fd795fdf" y="53.568"/>
     <use style="fill:#ff0000;stroke:#ff0000;" x="381.24" xlink:href="#m03fd795fdf" y="53.568"/>
     <use style="fill:#ff0000;stroke:#ff0000;" x="382.254545" xlink:href="#m03fd795fdf" y="53.568"/>
     <use style="fill:#ff0000;stroke:#ff0000;" x="383.269091" xlink:href="#m03fd795fdf" y="53.568"/>
     <use style="fill:#ff0000;stroke:#ff0000;" x="384.283636" xlink:href="#m03fd795fdf" y="53.568"/>
     <use style="fill:#ff0000;stroke:#ff0000;" x="385.298182" xlink:href="#m03fd795fdf" y="53.568"/>
     <use style="fill:#ff0000;stroke:#ff0000;" x="386.312727" xlink:href="#m03fd795fdf" y="53.568"/>
     <use style="fill:#ff0000;stroke:#ff0000;" x="387.327273" xlink:href="#m03fd795fdf" y="53.568"/>
     <use style="fill:#ff0000;stroke:#ff0000;" x="388.341818" xlink:href="#m03fd795fdf" y="53.568"/>
     <use style="fill:#ff0000;stroke:#ff0000;" x="389.356364" xlink:href="#m03fd795fdf" y="53.568"/>
     <use style="fill:#ff0000;stroke:#ff0000;" x="390.370909" xlink:href="#m03fd795fdf" y="53.568"/>
     <use style="fill:#ff0000;stroke:#ff0000;" x="391.385455" xlink:href="#m03fd795fdf" y="53.568"/>
     <use style="fill:#ff0000;stroke:#ff0000;" x="392.4" xlink:href="#m03fd795fdf" y="53.568"/>
     <use style="fill:#ff0000;stroke:#ff0000;" x="393.414545" xlink:href="#m03fd795fdf" y="53.568"/>
     <use style="fill:#ff0000;stroke:#ff0000;" x="394.429091" xlink:href="#m03fd795fdf" y="53.568"/>
     <use style="fill:#ff0000;stroke:#ff0000;" x="395.443636" xlink:href="#m03fd795fdf" y="53.568"/>
     <use style="fill:#ff0000;stroke:#ff0000;" x="396.458182" xlink:href="#m03fd795fdf" y="53.568"/>
     <use style="fill:#ff0000;stroke:#ff0000;" x="397.472727" xlink:href="#m03fd795fdf" y="53.568"/>
     <use style="fill:#ff0000;stroke:#ff0000;" x="398.487273" xlink:href="#m03fd795fdf" y="53.568"/>
    </g>
   </g>
   <g id="patch_3">
    <path d="M 57.6 307.584 
L 57.6 41.472 
" style="fill:none;stroke:#000000;stroke-linecap:square;stroke-linejoin:miter;stroke-width:0.8;"/>
   </g>
   <g id="patch_4">
    <path d="M 414.72 307.584 
L 414.72 41.472 
" style="fill:none;stroke:#000000;stroke-linecap:square;stroke-linejoin:miter;stroke-width:0.8;"/>
   </g>
   <g id="patch_5">
    <path d="M 57.6 307.584 
L 414.72 307.584 
" style="fill:none;stroke:#000000;stroke-linecap:square;stroke-linejoin:miter;stroke-width:0.8;"/>
   </g>
   <g id="patch_6">
    <path d="M 57.6 41.472 
L 414.72 41.472 
" style="fill:none;stroke:#000000;stroke-linecap:square;stroke-linejoin:miter;stroke-width:0.8;"/>
   </g>
  </g>
 </g>
 <defs>
  <clipPath id="p6eeb11b37b">
   <rect height="266.112" width="357.12" x="57.6" y="41.472"/>
  </clipPath>
 </defs>
</svg>
