<?xml version="1.0" encoding="utf-8" standalone="no"?>
<!DOCTYPE svg PUBLIC "-//W3C//DTD SVG 1.1//EN"
  "http://www.w3.org/Graphics/SVG/1.1/DTD/svg11.dtd">
<!-- Created with matplotlib (https://matplotlib.org/) -->
<svg height="345.6pt" version="1.1" viewBox="0 0 460.8 345.6" width="460.8pt" xmlns="http://www.w3.org/2000/svg" xmlns:xlink="http://www.w3.org/1999/xlink">
 <defs>
  <style type="text/css">
*{stroke-linecap:butt;stroke-linejoin:round;}
  </style>
 </defs>
 <g id="figure_1">
  <g id="patch_1">
   <path d="M 0 345.6 
L 460.8 345.6 
L 460.8 0 
L 0 0 
z
" style="fill:#ffffff;"/>
  </g>
  <g id="axes_1">
   <g id="patch_2">
    <path d="M 57.6 307.584 
L 414.72 307.584 
L 414.72 41.472 
L 57.6 41.472 
z
" style="fill:#ffffff;"/>
   </g>
   <g id="line2d_1">
    <path clip-path="url(#pd8ec1ee425)" d="M 73.832727 224.122065 
L 75.185455 234.566173 
L 76.538182 181.894736 
L 77.890909 181.894736 
L 79.243636 132.836938 
L 80.596364 132.836938 
L 81.949091 82.634578 
L 86.007273 82.634578 
L 87.36 76.111204 
L 88.712727 131.505794 
L 90.065455 131.505794 
L 91.418182 185.693975 
L 95.476364 185.693975 
L 96.829091 235.776724 
L 98.181818 235.776724 
L 99.534545 188.451173 
L 103.592727 188.451173 
L 104.945455 187.825076 
L 106.298182 187.825076 
L 107.650909 205.845099 
L 109.003636 205.845099 
L 110.356364 222.287442 
L 113.061818 222.287442 
L 114.414545 225.799606 
L 115.767273 243.972436 
L 118.472727 243.972436 
L 119.825455 261.678585 
L 121.178182 261.678585 
L 122.530909 244.137511 
L 123.883636 244.137511 
L 125.236364 245.999872 
L 126.589091 245.999872 
L 127.941818 242.752247 
L 133.352727 242.752247 
L 134.705455 259.622169 
L 136.058182 241.968636 
L 138.763636 241.968636 
L 140.116364 223.146168 
L 141.469091 223.146168 
L 142.821818 207.072631 
L 144.174545 224.552329 
L 146.88 224.552329 
L 148.232727 206.608375 
L 150.938182 206.608375 
L 152.290909 210.590187 
L 153.643636 210.590187 
L 154.996364 230.243754 
L 157.701818 230.243754 
L 159.054545 247.314336 
L 160.407273 247.314336 
L 161.76 229.834796 
L 165.818182 229.834796 
L 167.170909 245.861575 
L 168.523636 245.861575 
L 169.876364 262.497926 
L 171.229091 261.664874 
L 172.581818 261.664874 
L 173.934545 244.467411 
L 177.992727 244.467411 
L 179.345455 263.870169 
L 180.698182 263.870169 
L 182.050909 280.433038 
L 183.403636 261.521743 
L 187.461818 261.521743 
L 188.814545 277.993327 
L 190.167273 277.993327 
L 191.52 295.488 
L 192.872727 295.488 
L 194.225455 278.784157 
L 196.930909 278.784157 
L 198.283636 262.426655 
L 199.636364 244.041999 
L 200.989091 244.041999 
L 202.341818 227.874933 
L 203.694545 227.874933 
L 205.047273 209.759964 
L 206.4 209.759964 
L 207.752727 224.664167 
L 209.105455 206.83156 
L 210.458182 206.83156 
L 211.810909 188.034344 
L 213.163636 188.034344 
L 214.516364 207.467723 
L 217.221818 207.467723 
L 218.574545 226.30653 
L 219.927273 226.30653 
L 221.28 209.44627 
L 222.632727 209.44627 
L 223.985455 211.482862 
L 225.338182 194.603081 
L 236.16 194.603081 
L 237.512727 177.055684 
L 238.865455 177.055684 
L 240.218182 193.368897 
L 241.570909 193.368897 
L 242.923636 175.25688 
L 244.276364 175.25688 
L 245.629091 172.294633 
L 246.981818 156.715529 
L 248.334545 156.715529 
L 249.687273 175.618776 
L 251.04 175.618776 
L 252.392727 160.042841 
L 255.098182 160.042841 
L 257.803636 127.230601 
L 260.509091 127.230601 
L 261.861818 146.829185 
L 263.214545 146.829185 
L 264.567273 131.343787 
L 265.92 131.343787 
L 267.272727 114.607413 
L 269.978182 114.607413 
L 271.330909 100.359467 
L 274.036364 100.359467 
L 275.389091 83.249453 
L 276.741818 82.080919 
L 279.447273 82.080919 
L 280.8 84.570992 
L 283.505455 84.570992 
L 284.858182 101.94861 
L 286.210909 84.395686 
L 287.563636 84.395686 
L 288.916364 67.770282 
L 292.974545 67.770282 
L 294.327273 86.018081 
L 295.68 70.688377 
L 298.385455 70.688377 
L 299.738182 70.574758 
L 301.090909 70.574758 
L 302.443636 85.373202 
L 303.796364 85.373202 
L 305.149091 68.669635 
L 306.501818 65.448013 
L 307.854545 65.448013 
L 309.207273 82.97282 
L 310.56 82.97282 
L 311.912727 100.24543 
L 313.265455 100.24543 
L 314.618182 84.415012 
L 315.970909 101.518249 
L 317.323636 101.518249 
L 318.676364 83.455514 
L 320.029091 83.455514 
L 321.381818 68.704189 
L 322.734545 68.704189 
L 324.087273 53.568 
L 398.487273 53.568 
L 398.487273 53.568 
" style="fill:none;stroke:#ff0000;stroke-linecap:square;stroke-width:12;"/>
    <defs>
     <path d="M 0 3 
C 0.795609 3 1.55874 2.683901 2.12132 2.12132 
C 2.683901 1.55874 3 0.795609 3 0 
C 3 -0.795609 2.683901 -1.55874 2.12132 -2.12132 
C 1.55874 -2.683901 0.795609 -3 0 -3 
C -0.795609 -3 -1.55874 -2.683901 -2.12132 -2.12132 
C -2.683901 -1.55874 -3 -0.795609 -3 0 
C -3 0.795609 -2.683901 1.55874 -2.12132 2.12132 
C -1.55874 2.683901 -0.795609 3 0 3 
z
" id="mccc14b7a27" style="stroke:#ff0000;"/>
    </defs>
    <g clip-path="url(#pd8ec1ee425)">
     <use style="fill:#ff0000;stroke:#ff0000;" x="73.832727" xlink:href="#mccc14b7a27" y="224.122065"/>
     <use style="fill:#ff0000;stroke:#ff0000;" x="75.185455" xlink:href="#mccc14b7a27" y="234.566173"/>
     <use style="fill:#ff0000;stroke:#ff0000;" x="76.538182" xlink:href="#mccc14b7a27" y="181.894736"/>
     <use style="fill:#ff0000;stroke:#ff0000;" x="77.890909" xlink:href="#mccc14b7a27" y="181.894736"/>
     <use style="fill:#ff0000;stroke:#ff0000;" x="79.243636" xlink:href="#mccc14b7a27" y="132.836938"/>
     <use style="fill:#ff0000;stroke:#ff0000;" x="80.596364" xlink:href="#mccc14b7a27" y="132.836938"/>
     <use style="fill:#ff0000;stroke:#ff0000;" x="81.949091" xlink:href="#mccc14b7a27" y="82.634578"/>
     <use style="fill:#ff0000;stroke:#ff0000;" x="83.301818" xlink:href="#mccc14b7a27" y="82.634578"/>
     <use style="fill:#ff0000;stroke:#ff0000;" x="84.654545" xlink:href="#mccc14b7a27" y="82.634578"/>
     <use style="fill:#ff0000;stroke:#ff0000;" x="86.007273" xlink:href="#mccc14b7a27" y="82.634578"/>
     <use style="fill:#ff0000;stroke:#ff0000;" x="87.36" xlink:href="#mccc14b7a27" y="76.111204"/>
     <use style="fill:#ff0000;stroke:#ff0000;" x="88.712727" xlink:href="#mccc14b7a27" y="131.505794"/>
     <use style="fill:#ff0000;stroke:#ff0000;" x="90.065455" xlink:href="#mccc14b7a27" y="131.505794"/>
     <use style="fill:#ff0000;stroke:#ff0000;" x="91.418182" xlink:href="#mccc14b7a27" y="185.693975"/>
     <use style="fill:#ff0000;stroke:#ff0000;" x="92.770909" xlink:href="#mccc14b7a27" y="185.693975"/>
     <use style="fill:#ff0000;stroke:#ff0000;" x="94.123636" xlink:href="#mccc14b7a27" y="185.693975"/>
     <use style="fill:#ff0000;stroke:#ff0000;" x="95.476364" xlink:href="#mccc14b7a27" y="185.693975"/>
     <use style="fill:#ff0000;stroke:#ff0000;" x="96.829091" xlink:href="#mccc14b7a27" y="235.776724"/>
     <use style="fill:#ff0000;stroke:#ff0000;" x="98.181818" xlink:href="#mccc14b7a27" y="235.776724"/>
     <use style="fill:#ff0000;stroke:#ff0000;" x="99.534545" xlink:href="#mccc14b7a27" y="188.451173"/>
     <use style="fill:#ff0000;stroke:#ff0000;" x="100.887273" xlink:href="#mccc14b7a27" y="188.451173"/>
     <use style="fill:#ff0000;stroke:#ff0000;" x="102.24" xlink:href="#mccc14b7a27" y="188.451173"/>
     <use style="fill:#ff0000;stroke:#ff0000;" x="103.592727" xlink:href="#mccc14b7a27" y="188.451173"/>
     <use style="fill:#ff0000;stroke:#ff0000;" x="104.945455" xlink:href="#mccc14b7a27" y="187.825076"/>
     <use style="fill:#ff0000;stroke:#ff0000;" x="106.298182" xlink:href="#mccc14b7a27" y="187.825076"/>
     <use style="fill:#ff0000;stroke:#ff0000;" x="107.650909" xlink:href="#mccc14b7a27" y="205.845099"/>
     <use style="fill:#ff0000;stroke:#ff0000;" x="109.003636" xlink:href="#mccc14b7a27" y="205.845099"/>
     <use style="fill:#ff0000;stroke:#ff0000;" x="110.356364" xlink:href="#mccc14b7a27" y="222.287442"/>
     <use style="fill:#ff0000;stroke:#ff0000;" x="111.709091" xlink:href="#mccc14b7a27" y="222.287442"/>
     <use style="fill:#ff0000;stroke:#ff0000;" x="113.061818" xlink:href="#mccc14b7a27" y="222.287442"/>
     <use style="fill:#ff0000;stroke:#ff0000;" x="114.414545" xlink:href="#mccc14b7a27" y="225.799606"/>
     <use style="fill:#ff0000;stroke:#ff0000;" x="115.767273" xlink:href="#mccc14b7a27" y="243.972436"/>
     <use style="fill:#ff0000;stroke:#ff0000;" x="117.12" xlink:href="#mccc14b7a27" y="243.972436"/>
     <use style="fill:#ff0000;stroke:#ff0000;" x="118.472727" xlink:href="#mccc14b7a27" y="243.972436"/>
     <use style="fill:#ff0000;stroke:#ff0000;" x="119.825455" xlink:href="#mccc14b7a27" y="261.678585"/>
     <use style="fill:#ff0000;stroke:#ff0000;" x="121.178182" xlink:href="#mccc14b7a27" y="261.678585"/>
     <use style="fill:#ff0000;stroke:#ff0000;" x="122.530909" xlink:href="#mccc14b7a27" y="244.137511"/>
     <use style="fill:#ff0000;stroke:#ff0000;" x="123.883636" xlink:href="#mccc14b7a27" y="244.137511"/>
     <use style="fill:#ff0000;stroke:#ff0000;" x="125.236364" xlink:href="#mccc14b7a27" y="245.999872"/>
     <use style="fill:#ff0000;stroke:#ff0000;" x="126.589091" xlink:href="#mccc14b7a27" y="245.999872"/>
     <use style="fill:#ff0000;stroke:#ff0000;" x="127.941818" xlink:href="#mccc14b7a27" y="242.752247"/>
     <use style="fill:#ff0000;stroke:#ff0000;" x="129.294545" xlink:href="#mccc14b7a27" y="242.752247"/>
     <use style="fill:#ff0000;stroke:#ff0000;" x="130.647273" xlink:href="#mccc14b7a27" y="242.752247"/>
     <use style="fill:#ff0000;stroke:#ff0000;" x="132" xlink:href="#mccc14b7a27" y="242.752247"/>
     <use style="fill:#ff0000;stroke:#ff0000;" x="133.352727" xlink:href="#mccc14b7a27" y="242.752247"/>
     <use style="fill:#ff0000;stroke:#ff0000;" x="134.705455" xlink:href="#mccc14b7a27" y="259.622169"/>
     <use style="fill:#ff0000;stroke:#ff0000;" x="136.058182" xlink:href="#mccc14b7a27" y="241.968636"/>
     <use style="fill:#ff0000;stroke:#ff0000;" x="137.410909" xlink:href="#mccc14b7a27" y="241.968636"/>
     <use style="fill:#ff0000;stroke:#ff0000;" x="138.763636" xlink:href="#mccc14b7a27" y="241.968636"/>
     <use style="fill:#ff0000;stroke:#ff0000;" x="140.116364" xlink:href="#mccc14b7a27" y="223.146168"/>
     <use style="fill:#ff0000;stroke:#ff0000;" x="141.469091" xlink:href="#mccc14b7a27" y="223.146168"/>
     <use style="fill:#ff0000;stroke:#ff0000;" x="142.821818" xlink:href="#mccc14b7a27" y="207.072631"/>
     <use style="fill:#ff0000;stroke:#ff0000;" x="144.174545" xlink:href="#mccc14b7a27" y="224.552329"/>
     <use style="fill:#ff0000;stroke:#ff0000;" x="145.527273" xlink:href="#mccc14b7a27" y="224.552329"/>
     <use style="fill:#ff0000;stroke:#ff0000;" x="146.88" xlink:href="#mccc14b7a27" y="224.552329"/>
     <use style="fill:#ff0000;stroke:#ff0000;" x="148.232727" xlink:href="#mccc14b7a27" y="206.608375"/>
     <use style="fill:#ff0000;stroke:#ff0000;" x="149.585455" xlink:href="#mccc14b7a27" y="206.608375"/>
     <use style="fill:#ff0000;stroke:#ff0000;" x="150.938182" xlink:href="#mccc14b7a27" y="206.608375"/>
     <use style="fill:#ff0000;stroke:#ff0000;" x="152.290909" xlink:href="#mccc14b7a27" y="210.590187"/>
     <use style="fill:#ff0000;stroke:#ff0000;" x="153.643636" xlink:href="#mccc14b7a27" y="210.590187"/>
     <use style="fill:#ff0000;stroke:#ff0000;" x="154.996364" xlink:href="#mccc14b7a27" y="230.243754"/>
     <use style="fill:#ff0000;stroke:#ff0000;" x="156.349091" xlink:href="#mccc14b7a27" y="230.243754"/>
     <use style="fill:#ff0000;stroke:#ff0000;" x="157.701818" xlink:href="#mccc14b7a27" y="230.243754"/>
     <use style="fill:#ff0000;stroke:#ff0000;" x="159.054545" xlink:href="#mccc14b7a27" y="247.314336"/>
     <use style="fill:#ff0000;stroke:#ff0000;" x="160.407273" xlink:href="#mccc14b7a27" y="247.314336"/>
     <use style="fill:#ff0000;stroke:#ff0000;" x="161.76" xlink:href="#mccc14b7a27" y="229.834796"/>
     <use style="fill:#ff0000;stroke:#ff0000;" x="163.112727" xlink:href="#mccc14b7a27" y="229.834796"/>
     <use style="fill:#ff0000;stroke:#ff0000;" x="164.465455" xlink:href="#mccc14b7a27" y="229.834796"/>
     <use style="fill:#ff0000;stroke:#ff0000;" x="165.818182" xlink:href="#mccc14b7a27" y="229.834796"/>
     <use style="fill:#ff0000;stroke:#ff0000;" x="167.170909" xlink:href="#mccc14b7a27" y="245.861575"/>
     <use style="fill:#ff0000;stroke:#ff0000;" x="168.523636" xlink:href="#mccc14b7a27" y="245.861575"/>
     <use style="fill:#ff0000;stroke:#ff0000;" x="169.876364" xlink:href="#mccc14b7a27" y="262.497926"/>
     <use style="fill:#ff0000;stroke:#ff0000;" x="171.229091" xlink:href="#mccc14b7a27" y="261.664874"/>
     <use style="fill:#ff0000;stroke:#ff0000;" x="172.581818" xlink:href="#mccc14b7a27" y="261.664874"/>
     <use style="fill:#ff0000;stroke:#ff0000;" x="173.934545" xlink:href="#mccc14b7a27" y="244.467411"/>
     <use style="fill:#ff0000;stroke:#ff0000;" x="175.287273" xlink:href="#mccc14b7a27" y="244.467411"/>
     <use style="fill:#ff0000;stroke:#ff0000;" x="176.64" xlink:href="#mccc14b7a27" y="244.467411"/>
     <use style="fill:#ff0000;stroke:#ff0000;" x="177.992727" xlink:href="#mccc14b7a27" y="244.467411"/>
     <use style="fill:#ff0000;stroke:#ff0000;" x="179.345455" xlink:href="#mccc14b7a27" y="263.870169"/>
     <use style="fill:#ff0000;stroke:#ff0000;" x="180.698182" xlink:href="#mccc14b7a27" y="263.870169"/>
     <use style="fill:#ff0000;stroke:#ff0000;" x="182.050909" xlink:href="#mccc14b7a27" y="280.433038"/>
     <use style="fill:#ff0000;stroke:#ff0000;" x="183.403636" xlink:href="#mccc14b7a27" y="261.521743"/>
     <use style="fill:#ff0000;stroke:#ff0000;" x="184.756364" xlink:href="#mccc14b7a27" y="261.521743"/>
     <use style="fill:#ff0000;stroke:#ff0000;" x="186.109091" xlink:href="#mccc14b7a27" y="261.521743"/>
     <use style="fill:#ff0000;stroke:#ff0000;" x="187.461818" xlink:href="#mccc14b7a27" y="261.521743"/>
     <use style="fill:#ff0000;stroke:#ff0000;" x="188.814545" xlink:href="#mccc14b7a27" y="277.993327"/>
     <use style="fill:#ff0000;stroke:#ff0000;" x="190.167273" xlink:href="#mccc14b7a27" y="277.993327"/>
     <use style="fill:#ff0000;stroke:#ff0000;" x="191.52" xlink:href="#mccc14b7a27" y="295.488"/>
     <use style="fill:#ff0000;stroke:#ff0000;" x="192.872727" xlink:href="#mccc14b7a27" y="295.488"/>
     <use style="fill:#ff0000;stroke:#ff0000;" x="194.225455" xlink:href="#mccc14b7a27" y="278.784157"/>
     <use style="fill:#ff0000;stroke:#ff0000;" x="195.578182" xlink:href="#mccc14b7a27" y="278.784157"/>
     <use style="fill:#ff0000;stroke:#ff0000;" x="196.930909" xlink:href="#mccc14b7a27" y="278.784157"/>
     <use style="fill:#ff0000;stroke:#ff0000;" x="198.283636" xlink:href="#mccc14b7a27" y="262.426655"/>
     <use style="fill:#ff0000;stroke:#ff0000;" x="199.636364" xlink:href="#mccc14b7a27" y="244.041999"/>
     <use style="fill:#ff0000;stroke:#ff0000;" x="200.989091" xlink:href="#mccc14b7a27" y="244.041999"/>
     <use style="fill:#ff0000;stroke:#ff0000;" x="202.341818" xlink:href="#mccc14b7a27" y="227.874933"/>
     <use style="fill:#ff0000;stroke:#ff0000;" x="203.694545" xlink:href="#mccc14b7a27" y="227.874933"/>
     <use style="fill:#ff0000;stroke:#ff0000;" x="205.047273" xlink:href="#mccc14b7a27" y="209.759964"/>
     <use style="fill:#ff0000;stroke:#ff0000;" x="206.4" xlink:href="#mccc14b7a27" y="209.759964"/>
     <use style="fill:#ff0000;stroke:#ff0000;" x="207.752727" xlink:href="#mccc14b7a27" y="224.664167"/>
     <use style="fill:#ff0000;stroke:#ff0000;" x="209.105455" xlink:href="#mccc14b7a27" y="206.83156"/>
     <use style="fill:#ff0000;stroke:#ff0000;" x="210.458182" xlink:href="#mccc14b7a27" y="206.83156"/>
     <use style="fill:#ff0000;stroke:#ff0000;" x="211.810909" xlink:href="#mccc14b7a27" y="188.034344"/>
     <use style="fill:#ff0000;stroke:#ff0000;" x="213.163636" xlink:href="#mccc14b7a27" y="188.034344"/>
     <use style="fill:#ff0000;stroke:#ff0000;" x="214.516364" xlink:href="#mccc14b7a27" y="207.467723"/>
     <use style="fill:#ff0000;stroke:#ff0000;" x="215.869091" xlink:href="#mccc14b7a27" y="207.467723"/>
     <use style="fill:#ff0000;stroke:#ff0000;" x="217.221818" xlink:href="#mccc14b7a27" y="207.467723"/>
     <use style="fill:#ff0000;stroke:#ff0000;" x="218.574545" xlink:href="#mccc14b7a27" y="226.30653"/>
     <use style="fill:#ff0000;stroke:#ff0000;" x="219.927273" xlink:href="#mccc14b7a27" y="226.30653"/>
     <use style="fill:#ff0000;stroke:#ff0000;" x="221.28" xlink:href="#mccc14b7a27" y="209.44627"/>
     <use style="fill:#ff0000;stroke:#ff0000;" x="222.632727" xlink:href="#mccc14b7a27" y="209.44627"/>
     <use style="fill:#ff0000;stroke:#ff0000;" x="223.985455" xlink:href="#mccc14b7a27" y="211.482862"/>
     <use style="fill:#ff0000;stroke:#ff0000;" x="225.338182" xlink:href="#mccc14b7a27" y="194.603081"/>
     <use style="fill:#ff0000;stroke:#ff0000;" x="226.690909" xlink:href="#mccc14b7a27" y="194.603081"/>
     <use style="fill:#ff0000;stroke:#ff0000;" x="228.043636" xlink:href="#mccc14b7a27" y="194.603081"/>
     <use style="fill:#ff0000;stroke:#ff0000;" x="229.396364" xlink:href="#mccc14b7a27" y="194.603081"/>
     <use style="fill:#ff0000;stroke:#ff0000;" x="230.749091" xlink:href="#mccc14b7a27" y="194.603081"/>
     <use style="fill:#ff0000;stroke:#ff0000;" x="232.101818" xlink:href="#mccc14b7a27" y="194.603081"/>
     <use style="fill:#ff0000;stroke:#ff0000;" x="233.454545" xlink:href="#mccc14b7a27" y="194.603081"/>
     <use style="fill:#ff0000;stroke:#ff0000;" x="234.807273" xlink:href="#mccc14b7a27" y="194.603081"/>
     <use style="fill:#ff0000;stroke:#ff0000;" x="236.16" xlink:href="#mccc14b7a27" y="194.603081"/>
     <use style="fill:#ff0000;stroke:#ff0000;" x="237.512727" xlink:href="#mccc14b7a27" y="177.055684"/>
     <use style="fill:#ff0000;stroke:#ff0000;" x="238.865455" xlink:href="#mccc14b7a27" y="177.055684"/>
     <use style="fill:#ff0000;stroke:#ff0000;" x="240.218182" xlink:href="#mccc14b7a27" y="193.368897"/>
     <use style="fill:#ff0000;stroke:#ff0000;" x="241.570909" xlink:href="#mccc14b7a27" y="193.368897"/>
     <use style="fill:#ff0000;stroke:#ff0000;" x="242.923636" xlink:href="#mccc14b7a27" y="175.25688"/>
     <use style="fill:#ff0000;stroke:#ff0000;" x="244.276364" xlink:href="#mccc14b7a27" y="175.25688"/>
     <use style="fill:#ff0000;stroke:#ff0000;" x="245.629091" xlink:href="#mccc14b7a27" y="172.294633"/>
     <use style="fill:#ff0000;stroke:#ff0000;" x="246.981818" xlink:href="#mccc14b7a27" y="156.715529"/>
     <use style="fill:#ff0000;stroke:#ff0000;" x="248.334545" xlink:href="#mccc14b7a27" y="156.715529"/>
     <use style="fill:#ff0000;stroke:#ff0000;" x="249.687273" xlink:href="#mccc14b7a27" y="175.618776"/>
     <use style="fill:#ff0000;stroke:#ff0000;" x="251.04" xlink:href="#mccc14b7a27" y="175.618776"/>
     <use style="fill:#ff0000;stroke:#ff0000;" x="252.392727" xlink:href="#mccc14b7a27" y="160.042841"/>
     <use style="fill:#ff0000;stroke:#ff0000;" x="253.745455" xlink:href="#mccc14b7a27" y="160.042841"/>
     <use style="fill:#ff0000;stroke:#ff0000;" x="255.098182" xlink:href="#mccc14b7a27" y="160.042841"/>
     <use style="fill:#ff0000;stroke:#ff0000;" x="256.450909" xlink:href="#mccc14b7a27" y="144.166591"/>
     <use style="fill:#ff0000;stroke:#ff0000;" x="257.803636" xlink:href="#mccc14b7a27" y="127.230601"/>
     <use style="fill:#ff0000;stroke:#ff0000;" x="259.156364" xlink:href="#mccc14b7a27" y="127.230601"/>
     <use style="fill:#ff0000;stroke:#ff0000;" x="260.509091" xlink:href="#mccc14b7a27" y="127.230601"/>
     <use style="fill:#ff0000;stroke:#ff0000;" x="261.861818" xlink:href="#mccc14b7a27" y="146.829185"/>
     <use style="fill:#ff0000;stroke:#ff0000;" x="263.214545" xlink:href="#mccc14b7a27" y="146.829185"/>
     <use style="fill:#ff0000;stroke:#ff0000;" x="264.567273" xlink:href="#mccc14b7a27" y="131.343787"/>
     <use style="fill:#ff0000;stroke:#ff0000;" x="265.92" xlink:href="#mccc14b7a27" y="131.343787"/>
     <use style="fill:#ff0000;stroke:#ff0000;" x="267.272727" xlink:href="#mccc14b7a27" y="114.607413"/>
     <use style="fill:#ff0000;stroke:#ff0000;" x="268.625455" xlink:href="#mccc14b7a27" y="114.607413"/>
     <use style="fill:#ff0000;stroke:#ff0000;" x="269.978182" xlink:href="#mccc14b7a27" y="114.607413"/>
     <use style="fill:#ff0000;stroke:#ff0000;" x="271.330909" xlink:href="#mccc14b7a27" y="100.359467"/>
     <use style="fill:#ff0000;stroke:#ff0000;" x="272.683636" xlink:href="#mccc14b7a27" y="100.359467"/>
     <use style="fill:#ff0000;stroke:#ff0000;" x="274.036364" xlink:href="#mccc14b7a27" y="100.359467"/>
     <use style="fill:#ff0000;stroke:#ff0000;" x="275.389091" xlink:href="#mccc14b7a27" y="83.249453"/>
     <use style="fill:#ff0000;stroke:#ff0000;" x="276.741818" xlink:href="#mccc14b7a27" y="82.080919"/>
     <use style="fill:#ff0000;stroke:#ff0000;" x="278.094545" xlink:href="#mccc14b7a27" y="82.080919"/>
     <use style="fill:#ff0000;stroke:#ff0000;" x="279.447273" xlink:href="#mccc14b7a27" y="82.080919"/>
     <use style="fill:#ff0000;stroke:#ff0000;" x="280.8" xlink:href="#mccc14b7a27" y="84.570992"/>
     <use style="fill:#ff0000;stroke:#ff0000;" x="282.152727" xlink:href="#mccc14b7a27" y="84.570992"/>
     <use style="fill:#ff0000;stroke:#ff0000;" x="283.505455" xlink:href="#mccc14b7a27" y="84.570992"/>
     <use style="fill:#ff0000;stroke:#ff0000;" x="284.858182" xlink:href="#mccc14b7a27" y="101.94861"/>
     <use style="fill:#ff0000;stroke:#ff0000;" x="286.210909" xlink:href="#mccc14b7a27" y="84.395686"/>
     <use style="fill:#ff0000;stroke:#ff0000;" x="287.563636" xlink:href="#mccc14b7a27" y="84.395686"/>
     <use style="fill:#ff0000;stroke:#ff0000;" x="288.916364" xlink:href="#mccc14b7a27" y="67.770282"/>
     <use style="fill:#ff0000;stroke:#ff0000;" x="290.269091" xlink:href="#mccc14b7a27" y="67.770282"/>
     <use style="fill:#ff0000;stroke:#ff0000;" x="291.621818" xlink:href="#mccc14b7a27" y="67.770282"/>
     <use style="fill:#ff0000;stroke:#ff0000;" x="292.974545" xlink:href="#mccc14b7a27" y="67.770282"/>
     <use style="fill:#ff0000;stroke:#ff0000;" x="294.327273" xlink:href="#mccc14b7a27" y="86.018081"/>
     <use style="fill:#ff0000;stroke:#ff0000;" x="295.68" xlink:href="#mccc14b7a27" y="70.688377"/>
     <use style="fill:#ff0000;stroke:#ff0000;" x="297.032727" xlink:href="#mccc14b7a27" y="70.688377"/>
     <use style="fill:#ff0000;stroke:#ff0000;" x="298.385455" xlink:href="#mccc14b7a27" y="70.688377"/>
     <use style="fill:#ff0000;stroke:#ff0000;" x="299.738182" xlink:href="#mccc14b7a27" y="70.574758"/>
     <use style="fill:#ff0000;stroke:#ff0000;" x="301.090909" xlink:href="#mccc14b7a27" y="70.574758"/>
     <use style="fill:#ff0000;stroke:#ff0000;" x="302.443636" xlink:href="#mccc14b7a27" y="85.373202"/>
     <use style="fill:#ff0000;stroke:#ff0000;" x="303.796364" xlink:href="#mccc14b7a27" y="85.373202"/>
     <use style="fill:#ff0000;stroke:#ff0000;" x="305.149091" xlink:href="#mccc14b7a27" y="68.669635"/>
     <use style="fill:#ff0000;stroke:#ff0000;" x="306.501818" xlink:href="#mccc14b7a27" y="65.448013"/>
     <use style="fill:#ff0000;stroke:#ff0000;" x="307.854545" xlink:href="#mccc14b7a27" y="65.448013"/>
     <use style="fill:#ff0000;stroke:#ff0000;" x="309.207273" xlink:href="#mccc14b7a27" y="82.97282"/>
     <use style="fill:#ff0000;stroke:#ff0000;" x="310.56" xlink:href="#mccc14b7a27" y="82.97282"/>
     <use style="fill:#ff0000;stroke:#ff0000;" x="311.912727" xlink:href="#mccc14b7a27" y="100.24543"/>
     <use style="fill:#ff0000;stroke:#ff0000;" x="313.265455" xlink:href="#mccc14b7a27" y="100.24543"/>
     <use style="fill:#ff0000;stroke:#ff0000;" x="314.618182" xlink:href="#mccc14b7a27" y="84.415012"/>
     <use style="fill:#ff0000;stroke:#ff0000;" x="315.970909" xlink:href="#mccc14b7a27" y="101.518249"/>
     <use style="fill:#ff0000;stroke:#ff0000;" x="317.323636" xlink:href="#mccc14b7a27" y="101.518249"/>
     <use style="fill:#ff0000;stroke:#ff0000;" x="318.676364" xlink:href="#mccc14b7a27" y="83.455514"/>
     <use style="fill:#ff0000;stroke:#ff0000;" x="320.029091" xlink:href="#mccc14b7a27" y="83.455514"/>
     <use style="fill:#ff0000;stroke:#ff0000;" x="321.381818" xlink:href="#mccc14b7a27" y="68.704189"/>
     <use style="fill:#ff0000;stroke:#ff0000;" x="322.734545" xlink:href="#mccc14b7a27" y="68.704189"/>
     <use style="fill:#ff0000;stroke:#ff0000;" x="324.087273" xlink:href="#mccc14b7a27" y="53.568"/>
     <use style="fill:#ff0000;stroke:#ff0000;" x="325.44" xlink:href="#mccc14b7a27" y="53.568"/>
     <use style="fill:#ff0000;stroke:#ff0000;" x="326.792727" xlink:href="#mccc14b7a27" y="53.568"/>
     <use style="fill:#ff0000;stroke:#ff0000;" x="328.145455" xlink:href="#mccc14b7a27" y="53.568"/>
     <use style="fill:#ff0000;stroke:#ff0000;" x="329.498182" xlink:href="#mccc14b7a27" y="53.568"/>
     <use style="fill:#ff0000;stroke:#ff0000;" x="330.850909" xlink:href="#mccc14b7a27" y="53.568"/>
     <use style="fill:#ff0000;stroke:#ff0000;" x="332.203636" xlink:href="#mccc14b7a27" y="53.568"/>
     <use style="fill:#ff0000;stroke:#ff0000;" x="333.556364" xlink:href="#mccc14b7a27" y="53.568"/>
     <use style="fill:#ff0000;stroke:#ff0000;" x="334.909091" xlink:href="#mccc14b7a27" y="53.568"/>
     <use style="fill:#ff0000;stroke:#ff0000;" x="336.261818" xlink:href="#mccc14b7a27" y="53.568"/>
     <use style="fill:#ff0000;stroke:#ff0000;" x="337.614545" xlink:href="#mccc14b7a27" y="53.568"/>
     <use style="fill:#ff0000;stroke:#ff0000;" x="338.967273" xlink:href="#mccc14b7a27" y="53.568"/>
     <use style="fill:#ff0000;stroke:#ff0000;" x="340.32" xlink:href="#mccc14b7a27" y="53.568"/>
     <use style="fill:#ff0000;stroke:#ff0000;" x="341.672727" xlink:href="#mccc14b7a27" y="53.568"/>
     <use style="fill:#ff0000;stroke:#ff0000;" x="343.025455" xlink:href="#mccc14b7a27" y="53.568"/>
     <use style="fill:#ff0000;stroke:#ff0000;" x="344.378182" xlink:href="#mccc14b7a27" y="53.568"/>
     <use style="fill:#ff0000;stroke:#ff0000;" x="345.730909" xlink:href="#mccc14b7a27" y="53.568"/>
     <use style="fill:#ff0000;stroke:#ff0000;" x="347.083636" xlink:href="#mccc14b7a27" y="53.568"/>
     <use style="fill:#ff0000;stroke:#ff0000;" x="348.436364" xlink:href="#mccc14b7a27" y="53.568"/>
     <use style="fill:#ff0000;stroke:#ff0000;" x="349.789091" xlink:href="#mccc14b7a27" y="53.568"/>
     <use style="fill:#ff0000;stroke:#ff0000;" x="351.141818" xlink:href="#mccc14b7a27" y="53.568"/>
     <use style="fill:#ff0000;stroke:#ff0000;" x="352.494545" xlink:href="#mccc14b7a27" y="53.568"/>
     <use style="fill:#ff0000;stroke:#ff0000;" x="353.847273" xlink:href="#mccc14b7a27" y="53.568"/>
     <use style="fill:#ff0000;stroke:#ff0000;" x="355.2" xlink:href="#mccc14b7a27" y="53.568"/>
     <use style="fill:#ff0000;stroke:#ff0000;" x="356.552727" xlink:href="#mccc14b7a27" y="53.568"/>
     <use style="fill:#ff0000;stroke:#ff0000;" x="357.905455" xlink:href="#mccc14b7a27" y="53.568"/>
     <use style="fill:#ff0000;stroke:#ff0000;" x="359.258182" xlink:href="#mccc14b7a27" y="53.568"/>
     <use style="fill:#ff0000;stroke:#ff0000;" x="360.610909" xlink:href="#mccc14b7a27" y="53.568"/>
     <use style="fill:#ff0000;stroke:#ff0000;" x="361.963636" xlink:href="#mccc14b7a27" y="53.568"/>
     <use style="fill:#ff0000;stroke:#ff0000;" x="363.316364" xlink:href="#mccc14b7a27" y="53.568"/>
     <use style="fill:#ff0000;stroke:#ff0000;" x="364.669091" xlink:href="#mccc14b7a27" y="53.568"/>
     <use style="fill:#ff0000;stroke:#ff0000;" x="366.021818" xlink:href="#mccc14b7a27" y="53.568"/>
     <use style="fill:#ff0000;stroke:#ff0000;" x="367.374545" xlink:href="#mccc14b7a27" y="53.568"/>
     <use style="fill:#ff0000;stroke:#ff0000;" x="368.727273" xlink:href="#mccc14b7a27" y="53.568"/>
     <use style="fill:#ff0000;stroke:#ff0000;" x="370.08" xlink:href="#mccc14b7a27" y="53.568"/>
     <use style="fill:#ff0000;stroke:#ff0000;" x="371.432727" xlink:href="#mccc14b7a27" y="53.568"/>
     <use style="fill:#ff0000;stroke:#ff0000;" x="372.785455" xlink:href="#mccc14b7a27" y="53.568"/>
     <use style="fill:#ff0000;stroke:#ff0000;" x="374.138182" xlink:href="#mccc14b7a27" y="53.568"/>
     <use style="fill:#ff0000;stroke:#ff0000;" x="375.490909" xlink:href="#mccc14b7a27" y="53.568"/>
     <use style="fill:#ff0000;stroke:#ff0000;" x="376.843636" xlink:href="#mccc14b7a27" y="53.568"/>
     <use style="fill:#ff0000;stroke:#ff0000;" x="378.196364" xlink:href="#mccc14b7a27" y="53.568"/>
     <use style="fill:#ff0000;stroke:#ff0000;" x="379.549091" xlink:href="#mccc14b7a27" y="53.568"/>
     <use style="fill:#ff0000;stroke:#ff0000;" x="380.901818" xlink:href="#mccc14b7a27" y="53.568"/>
     <use style="fill:#ff0000;stroke:#ff0000;" x="382.254545" xlink:href="#mccc14b7a27" y="53.568"/>
     <use style="fill:#ff0000;stroke:#ff0000;" x="383.607273" xlink:href="#mccc14b7a27" y="53.568"/>
     <use style="fill:#ff0000;stroke:#ff0000;" x="384.96" xlink:href="#mccc14b7a27" y="53.568"/>
     <use style="fill:#ff0000;stroke:#ff0000;" x="386.312727" xlink:href="#mccc14b7a27" y="53.568"/>
     <use style="fill:#ff0000;stroke:#ff0000;" x="387.665455" xlink:href="#mccc14b7a27" y="53.568"/>
     <use style="fill:#ff0000;stroke:#ff0000;" x="389.018182" xlink:href="#mccc14b7a27" y="53.568"/>
     <use style="fill:#ff0000;stroke:#ff0000;" x="390.370909" xlink:href="#mccc14b7a27" y="53.568"/>
     <use style="fill:#ff0000;stroke:#ff0000;" x="391.723636" xlink:href="#mccc14b7a27" y="53.568"/>
     <use style="fill:#ff0000;stroke:#ff0000;" x="393.076364" xlink:href="#mccc14b7a27" y="53.568"/>
     <use style="fill:#ff0000;stroke:#ff0000;" x="394.429091" xlink:href="#mccc14b7a27" y="53.568"/>
     <use style="fill:#ff0000;stroke:#ff0000;" x="395.781818" xlink:href="#mccc14b7a27" y="53.568"/>
     <use style="fill:#ff0000;stroke:#ff0000;" x="397.134545" xlink:href="#mccc14b7a27" y="53.568"/>
     <use style="fill:#ff0000;stroke:#ff0000;" x="398.487273" xlink:href="#mccc14b7a27" y="53.568"/>
    </g>
   </g>
   <g id="patch_3">
    <path d="M 57.6 307.584 
L 57.6 41.472 
" style="fill:none;stroke:#000000;stroke-linecap:square;stroke-linejoin:miter;stroke-width:0.8;"/>
   </g>
   <g id="patch_4">
    <path d="M 414.72 307.584 
L 414.72 41.472 
" style="fill:none;stroke:#000000;stroke-linecap:square;stroke-linejoin:miter;stroke-width:0.8;"/>
   </g>
   <g id="patch_5">
    <path d="M 57.6 307.584 
L 414.72 307.584 
" style="fill:none;stroke:#000000;stroke-linecap:square;stroke-linejoin:miter;stroke-width:0.8;"/>
   </g>
   <g id="patch_6">
    <path d="M 57.6 41.472 
L 414.72 41.472 
" style="fill:none;stroke:#000000;stroke-linecap:square;stroke-linejoin:miter;stroke-width:0.8;"/>
   </g>
  </g>
 </g>
 <defs>
  <clipPath id="pd8ec1ee425">
   <rect height="266.112" width="357.12" x="57.6" y="41.472"/>
  </clipPath>
 </defs>
</svg>
