<?xml version="1.0" encoding="utf-8" standalone="no"?>
<!DOCTYPE svg PUBLIC "-//W3C//DTD SVG 1.1//EN"
  "http://www.w3.org/Graphics/SVG/1.1/DTD/svg11.dtd">
<!-- Created with matplotlib (https://matplotlib.org/) -->
<svg height="345.6pt" version="1.1" viewBox="0 0 460.8 345.6" width="460.8pt" xmlns="http://www.w3.org/2000/svg" xmlns:xlink="http://www.w3.org/1999/xlink">
 <defs>
  <style type="text/css">
*{stroke-linecap:butt;stroke-linejoin:round;}
  </style>
 </defs>
 <g id="figure_1">
  <g id="patch_1">
   <path d="M 0 345.6 
L 460.8 345.6 
L 460.8 0 
L 0 0 
z
" style="fill:#ffffff;"/>
  </g>
  <g id="axes_1">
   <g id="patch_2">
    <path d="M 57.6 307.584 
L 414.72 307.584 
L 414.72 41.472 
L 57.6 41.472 
z
" style="fill:#ffffff;"/>
   </g>
   <g id="line2d_1">
    <path clip-path="url(#p318e539dfd)" d="M 73.832727 53.568 
L 86.672173 53.568 
L 88.506379 101.063417 
L 90.340586 101.063417 
L 92.174792 147.775714 
L 95.843205 147.775714 
L 97.677411 146.879693 
L 101.345824 146.879693 
L 103.180031 145.022402 
L 105.014237 157.586093 
L 108.68265 157.586093 
L 110.516857 207.838167 
L 112.351063 196.69471 
L 116.019476 196.69471 
L 117.853683 239.715635 
L 125.190508 239.715635 
L 127.024715 281.656895 
L 128.858921 263.405448 
L 138.029954 263.405448 
L 139.86416 245.813719 
L 141.698367 245.813719 
L 145.36678 211.512397 
L 147.200986 211.512397 
L 149.035193 195.04995 
L 150.869399 195.04995 
L 152.703606 209.689803 
L 154.537812 209.689803 
L 156.372018 225.848084 
L 158.206225 225.848084 
L 160.040431 208.92938 
L 161.874638 208.92938 
L 163.708844 222.458908 
L 165.543051 222.458908 
L 167.377257 237.157983 
L 169.211464 239.390035 
L 171.04567 239.390035 
L 172.879877 235.001354 
L 174.714083 235.001354 
L 176.54829 250.065956 
L 178.382496 250.065956 
L 180.216703 244.747099 
L 182.050909 245.015556 
L 185.719322 245.015556 
L 187.553529 226.834067 
L 189.387735 226.834067 
L 191.221941 240.073342 
L 198.558767 240.029087 
L 200.392974 255.371142 
L 202.22718 255.371142 
L 204.061387 269.163983 
L 205.895593 269.163983 
L 207.7298 263.234125 
L 211.398213 263.234125 
L 213.232419 245.144424 
L 215.066626 245.144424 
L 216.900832 258.425374 
L 218.735039 258.425374 
L 222.403451 226.391455 
L 229.740277 226.391455 
L 231.574484 240.400229 
L 233.40869 224.133345 
L 235.242897 224.133345 
L 237.077103 225.052088 
L 240.745516 225.052088 
L 242.579723 239.458203 
L 244.413929 239.458203 
L 246.248136 240.790597 
L 249.916549 240.790597 
L 251.750755 254.360038 
L 253.584961 254.360038 
L 255.419168 253.322156 
L 257.253374 266.76143 
L 259.087581 266.76143 
L 260.921787 281.876975 
L 262.755994 281.876975 
L 264.5902 295.488 
L 268.258613 295.488 
L 271.927026 257.804974 
L 273.761233 257.804974 
L 275.595439 239.173959 
L 293.937504 239.173959 
L 295.77171 252.437472 
L 297.605917 234.886569 
L 301.27433 234.886569 
L 303.108536 249.718971 
L 304.942743 249.718971 
L 306.776949 244.408267 
L 308.611156 244.408267 
L 310.445362 239.47313 
L 312.279569 251.590201 
L 314.113775 251.590201 
L 315.947982 266.000056 
L 317.782188 266.000056 
L 319.616394 263.313982 
L 323.284807 263.313982 
L 325.119014 245.075523 
L 326.95322 245.075523 
L 328.787427 228.081406 
L 330.621633 228.081406 
L 332.45584 242.242633 
L 334.290046 242.242633 
L 336.124253 227.094497 
L 337.958459 227.094497 
L 339.792666 222.179012 
L 341.626872 221.526242 
L 343.461079 221.526242 
L 345.295285 220.429066 
L 347.129492 220.429066 
L 348.963698 221.497678 
L 350.797904 238.440223 
L 352.632111 238.440223 
L 354.466317 239.369752 
L 356.300524 239.369752 
L 358.13473 252.134849 
L 359.968937 234.267207 
L 361.803143 234.267207 
L 363.63735 219.76071 
L 369.139969 219.76071 
L 370.974176 200.728077 
L 372.808382 200.728077 
L 374.642589 186.182608 
L 376.476795 202.511941 
L 378.311002 202.511941 
L 380.145208 217.158741 
L 381.979414 217.158741 
L 383.813621 200.32091 
L 385.647827 200.32091 
L 387.482034 213.337922 
L 389.31624 213.337922 
L 392.984653 240.692065 
L 394.81886 240.692065 
L 396.653066 225.56411 
L 398.487273 225.56411 
L 398.487273 225.56411 
" style="fill:none;stroke:#ff0000;stroke-linecap:square;stroke-width:12;"/>
    <defs>
     <path d="M 0 3 
C 0.795609 3 1.55874 2.683901 2.12132 2.12132 
C 2.683901 1.55874 3 0.795609 3 0 
C 3 -0.795609 2.683901 -1.55874 2.12132 -2.12132 
C 1.55874 -2.683901 0.795609 -3 0 -3 
C -0.795609 -3 -1.55874 -2.683901 -2.12132 -2.12132 
C -2.683901 -1.55874 -3 -0.795609 -3 0 
C -3 0.795609 -2.683901 1.55874 -2.12132 2.12132 
C -1.55874 2.683901 -0.795609 3 0 3 
z
" id="mb4bcf27d82" style="stroke:#ff0000;"/>
    </defs>
    <g clip-path="url(#p318e539dfd)">
     <use style="fill:#ff0000;stroke:#ff0000;" x="73.832727" xlink:href="#mb4bcf27d82" y="53.568"/>
     <use style="fill:#ff0000;stroke:#ff0000;" x="75.666934" xlink:href="#mb4bcf27d82" y="53.568"/>
     <use style="fill:#ff0000;stroke:#ff0000;" x="77.50114" xlink:href="#mb4bcf27d82" y="53.568"/>
     <use style="fill:#ff0000;stroke:#ff0000;" x="79.335347" xlink:href="#mb4bcf27d82" y="53.568"/>
     <use style="fill:#ff0000;stroke:#ff0000;" x="81.169553" xlink:href="#mb4bcf27d82" y="53.568"/>
     <use style="fill:#ff0000;stroke:#ff0000;" x="83.00376" xlink:href="#mb4bcf27d82" y="53.568"/>
     <use style="fill:#ff0000;stroke:#ff0000;" x="84.837966" xlink:href="#mb4bcf27d82" y="53.568"/>
     <use style="fill:#ff0000;stroke:#ff0000;" x="86.672173" xlink:href="#mb4bcf27d82" y="53.568"/>
     <use style="fill:#ff0000;stroke:#ff0000;" x="88.506379" xlink:href="#mb4bcf27d82" y="101.063417"/>
     <use style="fill:#ff0000;stroke:#ff0000;" x="90.340586" xlink:href="#mb4bcf27d82" y="101.063417"/>
     <use style="fill:#ff0000;stroke:#ff0000;" x="92.174792" xlink:href="#mb4bcf27d82" y="147.775714"/>
     <use style="fill:#ff0000;stroke:#ff0000;" x="94.008998" xlink:href="#mb4bcf27d82" y="147.775714"/>
     <use style="fill:#ff0000;stroke:#ff0000;" x="95.843205" xlink:href="#mb4bcf27d82" y="147.775714"/>
     <use style="fill:#ff0000;stroke:#ff0000;" x="97.677411" xlink:href="#mb4bcf27d82" y="146.879693"/>
     <use style="fill:#ff0000;stroke:#ff0000;" x="99.511618" xlink:href="#mb4bcf27d82" y="146.879693"/>
     <use style="fill:#ff0000;stroke:#ff0000;" x="101.345824" xlink:href="#mb4bcf27d82" y="146.879693"/>
     <use style="fill:#ff0000;stroke:#ff0000;" x="103.180031" xlink:href="#mb4bcf27d82" y="145.022402"/>
     <use style="fill:#ff0000;stroke:#ff0000;" x="105.014237" xlink:href="#mb4bcf27d82" y="157.586093"/>
     <use style="fill:#ff0000;stroke:#ff0000;" x="106.848444" xlink:href="#mb4bcf27d82" y="157.586093"/>
     <use style="fill:#ff0000;stroke:#ff0000;" x="108.68265" xlink:href="#mb4bcf27d82" y="157.586093"/>
     <use style="fill:#ff0000;stroke:#ff0000;" x="110.516857" xlink:href="#mb4bcf27d82" y="207.838167"/>
     <use style="fill:#ff0000;stroke:#ff0000;" x="112.351063" xlink:href="#mb4bcf27d82" y="196.69471"/>
     <use style="fill:#ff0000;stroke:#ff0000;" x="114.18527" xlink:href="#mb4bcf27d82" y="196.69471"/>
     <use style="fill:#ff0000;stroke:#ff0000;" x="116.019476" xlink:href="#mb4bcf27d82" y="196.69471"/>
     <use style="fill:#ff0000;stroke:#ff0000;" x="117.853683" xlink:href="#mb4bcf27d82" y="239.715635"/>
     <use style="fill:#ff0000;stroke:#ff0000;" x="119.687889" xlink:href="#mb4bcf27d82" y="239.715635"/>
     <use style="fill:#ff0000;stroke:#ff0000;" x="121.522096" xlink:href="#mb4bcf27d82" y="239.715635"/>
     <use style="fill:#ff0000;stroke:#ff0000;" x="123.356302" xlink:href="#mb4bcf27d82" y="239.715635"/>
     <use style="fill:#ff0000;stroke:#ff0000;" x="125.190508" xlink:href="#mb4bcf27d82" y="239.715635"/>
     <use style="fill:#ff0000;stroke:#ff0000;" x="127.024715" xlink:href="#mb4bcf27d82" y="281.656895"/>
     <use style="fill:#ff0000;stroke:#ff0000;" x="128.858921" xlink:href="#mb4bcf27d82" y="263.405448"/>
     <use style="fill:#ff0000;stroke:#ff0000;" x="130.693128" xlink:href="#mb4bcf27d82" y="263.405448"/>
     <use style="fill:#ff0000;stroke:#ff0000;" x="132.527334" xlink:href="#mb4bcf27d82" y="263.405448"/>
     <use style="fill:#ff0000;stroke:#ff0000;" x="134.361541" xlink:href="#mb4bcf27d82" y="263.405448"/>
     <use style="fill:#ff0000;stroke:#ff0000;" x="136.195747" xlink:href="#mb4bcf27d82" y="263.405448"/>
     <use style="fill:#ff0000;stroke:#ff0000;" x="138.029954" xlink:href="#mb4bcf27d82" y="263.405448"/>
     <use style="fill:#ff0000;stroke:#ff0000;" x="139.86416" xlink:href="#mb4bcf27d82" y="245.813719"/>
     <use style="fill:#ff0000;stroke:#ff0000;" x="141.698367" xlink:href="#mb4bcf27d82" y="245.813719"/>
     <use style="fill:#ff0000;stroke:#ff0000;" x="143.532573" xlink:href="#mb4bcf27d82" y="228.346107"/>
     <use style="fill:#ff0000;stroke:#ff0000;" x="145.36678" xlink:href="#mb4bcf27d82" y="211.512397"/>
     <use style="fill:#ff0000;stroke:#ff0000;" x="147.200986" xlink:href="#mb4bcf27d82" y="211.512397"/>
     <use style="fill:#ff0000;stroke:#ff0000;" x="149.035193" xlink:href="#mb4bcf27d82" y="195.04995"/>
     <use style="fill:#ff0000;stroke:#ff0000;" x="150.869399" xlink:href="#mb4bcf27d82" y="195.04995"/>
     <use style="fill:#ff0000;stroke:#ff0000;" x="152.703606" xlink:href="#mb4bcf27d82" y="209.689803"/>
     <use style="fill:#ff0000;stroke:#ff0000;" x="154.537812" xlink:href="#mb4bcf27d82" y="209.689803"/>
     <use style="fill:#ff0000;stroke:#ff0000;" x="156.372018" xlink:href="#mb4bcf27d82" y="225.848084"/>
     <use style="fill:#ff0000;stroke:#ff0000;" x="158.206225" xlink:href="#mb4bcf27d82" y="225.848084"/>
     <use style="fill:#ff0000;stroke:#ff0000;" x="160.040431" xlink:href="#mb4bcf27d82" y="208.92938"/>
     <use style="fill:#ff0000;stroke:#ff0000;" x="161.874638" xlink:href="#mb4bcf27d82" y="208.92938"/>
     <use style="fill:#ff0000;stroke:#ff0000;" x="163.708844" xlink:href="#mb4bcf27d82" y="222.458908"/>
     <use style="fill:#ff0000;stroke:#ff0000;" x="165.543051" xlink:href="#mb4bcf27d82" y="222.458908"/>
     <use style="fill:#ff0000;stroke:#ff0000;" x="167.377257" xlink:href="#mb4bcf27d82" y="237.157983"/>
     <use style="fill:#ff0000;stroke:#ff0000;" x="169.211464" xlink:href="#mb4bcf27d82" y="239.390035"/>
     <use style="fill:#ff0000;stroke:#ff0000;" x="171.04567" xlink:href="#mb4bcf27d82" y="239.390035"/>
     <use style="fill:#ff0000;stroke:#ff0000;" x="172.879877" xlink:href="#mb4bcf27d82" y="235.001354"/>
     <use style="fill:#ff0000;stroke:#ff0000;" x="174.714083" xlink:href="#mb4bcf27d82" y="235.001354"/>
     <use style="fill:#ff0000;stroke:#ff0000;" x="176.54829" xlink:href="#mb4bcf27d82" y="250.065956"/>
     <use style="fill:#ff0000;stroke:#ff0000;" x="178.382496" xlink:href="#mb4bcf27d82" y="250.065956"/>
     <use style="fill:#ff0000;stroke:#ff0000;" x="180.216703" xlink:href="#mb4bcf27d82" y="244.747099"/>
     <use style="fill:#ff0000;stroke:#ff0000;" x="182.050909" xlink:href="#mb4bcf27d82" y="245.015556"/>
     <use style="fill:#ff0000;stroke:#ff0000;" x="183.885116" xlink:href="#mb4bcf27d82" y="245.015556"/>
     <use style="fill:#ff0000;stroke:#ff0000;" x="185.719322" xlink:href="#mb4bcf27d82" y="245.015556"/>
     <use style="fill:#ff0000;stroke:#ff0000;" x="187.553529" xlink:href="#mb4bcf27d82" y="226.834067"/>
     <use style="fill:#ff0000;stroke:#ff0000;" x="189.387735" xlink:href="#mb4bcf27d82" y="226.834067"/>
     <use style="fill:#ff0000;stroke:#ff0000;" x="191.221941" xlink:href="#mb4bcf27d82" y="240.073342"/>
     <use style="fill:#ff0000;stroke:#ff0000;" x="193.056148" xlink:href="#mb4bcf27d82" y="240.073342"/>
     <use style="fill:#ff0000;stroke:#ff0000;" x="194.890354" xlink:href="#mb4bcf27d82" y="240.029087"/>
     <use style="fill:#ff0000;stroke:#ff0000;" x="196.724561" xlink:href="#mb4bcf27d82" y="240.029087"/>
     <use style="fill:#ff0000;stroke:#ff0000;" x="198.558767" xlink:href="#mb4bcf27d82" y="240.029087"/>
     <use style="fill:#ff0000;stroke:#ff0000;" x="200.392974" xlink:href="#mb4bcf27d82" y="255.371142"/>
     <use style="fill:#ff0000;stroke:#ff0000;" x="202.22718" xlink:href="#mb4bcf27d82" y="255.371142"/>
     <use style="fill:#ff0000;stroke:#ff0000;" x="204.061387" xlink:href="#mb4bcf27d82" y="269.163983"/>
     <use style="fill:#ff0000;stroke:#ff0000;" x="205.895593" xlink:href="#mb4bcf27d82" y="269.163983"/>
     <use style="fill:#ff0000;stroke:#ff0000;" x="207.7298" xlink:href="#mb4bcf27d82" y="263.234125"/>
     <use style="fill:#ff0000;stroke:#ff0000;" x="209.564006" xlink:href="#mb4bcf27d82" y="263.234125"/>
     <use style="fill:#ff0000;stroke:#ff0000;" x="211.398213" xlink:href="#mb4bcf27d82" y="263.234125"/>
     <use style="fill:#ff0000;stroke:#ff0000;" x="213.232419" xlink:href="#mb4bcf27d82" y="245.144424"/>
     <use style="fill:#ff0000;stroke:#ff0000;" x="215.066626" xlink:href="#mb4bcf27d82" y="245.144424"/>
     <use style="fill:#ff0000;stroke:#ff0000;" x="216.900832" xlink:href="#mb4bcf27d82" y="258.425374"/>
     <use style="fill:#ff0000;stroke:#ff0000;" x="218.735039" xlink:href="#mb4bcf27d82" y="258.425374"/>
     <use style="fill:#ff0000;stroke:#ff0000;" x="220.569245" xlink:href="#mb4bcf27d82" y="242.872377"/>
     <use style="fill:#ff0000;stroke:#ff0000;" x="222.403451" xlink:href="#mb4bcf27d82" y="226.391455"/>
     <use style="fill:#ff0000;stroke:#ff0000;" x="224.237658" xlink:href="#mb4bcf27d82" y="226.391455"/>
     <use style="fill:#ff0000;stroke:#ff0000;" x="226.071864" xlink:href="#mb4bcf27d82" y="226.391455"/>
     <use style="fill:#ff0000;stroke:#ff0000;" x="227.906071" xlink:href="#mb4bcf27d82" y="226.391455"/>
     <use style="fill:#ff0000;stroke:#ff0000;" x="229.740277" xlink:href="#mb4bcf27d82" y="226.391455"/>
     <use style="fill:#ff0000;stroke:#ff0000;" x="231.574484" xlink:href="#mb4bcf27d82" y="240.400229"/>
     <use style="fill:#ff0000;stroke:#ff0000;" x="233.40869" xlink:href="#mb4bcf27d82" y="224.133345"/>
     <use style="fill:#ff0000;stroke:#ff0000;" x="235.242897" xlink:href="#mb4bcf27d82" y="224.133345"/>
     <use style="fill:#ff0000;stroke:#ff0000;" x="237.077103" xlink:href="#mb4bcf27d82" y="225.052088"/>
     <use style="fill:#ff0000;stroke:#ff0000;" x="238.91131" xlink:href="#mb4bcf27d82" y="225.052088"/>
     <use style="fill:#ff0000;stroke:#ff0000;" x="240.745516" xlink:href="#mb4bcf27d82" y="225.052088"/>
     <use style="fill:#ff0000;stroke:#ff0000;" x="242.579723" xlink:href="#mb4bcf27d82" y="239.458203"/>
     <use style="fill:#ff0000;stroke:#ff0000;" x="244.413929" xlink:href="#mb4bcf27d82" y="239.458203"/>
     <use style="fill:#ff0000;stroke:#ff0000;" x="246.248136" xlink:href="#mb4bcf27d82" y="240.790597"/>
     <use style="fill:#ff0000;stroke:#ff0000;" x="248.082342" xlink:href="#mb4bcf27d82" y="240.790597"/>
     <use style="fill:#ff0000;stroke:#ff0000;" x="249.916549" xlink:href="#mb4bcf27d82" y="240.790597"/>
     <use style="fill:#ff0000;stroke:#ff0000;" x="251.750755" xlink:href="#mb4bcf27d82" y="254.360038"/>
     <use style="fill:#ff0000;stroke:#ff0000;" x="253.584961" xlink:href="#mb4bcf27d82" y="254.360038"/>
     <use style="fill:#ff0000;stroke:#ff0000;" x="255.419168" xlink:href="#mb4bcf27d82" y="253.322156"/>
     <use style="fill:#ff0000;stroke:#ff0000;" x="257.253374" xlink:href="#mb4bcf27d82" y="266.76143"/>
     <use style="fill:#ff0000;stroke:#ff0000;" x="259.087581" xlink:href="#mb4bcf27d82" y="266.76143"/>
     <use style="fill:#ff0000;stroke:#ff0000;" x="260.921787" xlink:href="#mb4bcf27d82" y="281.876975"/>
     <use style="fill:#ff0000;stroke:#ff0000;" x="262.755994" xlink:href="#mb4bcf27d82" y="281.876975"/>
     <use style="fill:#ff0000;stroke:#ff0000;" x="264.5902" xlink:href="#mb4bcf27d82" y="295.488"/>
     <use style="fill:#ff0000;stroke:#ff0000;" x="266.424407" xlink:href="#mb4bcf27d82" y="295.488"/>
     <use style="fill:#ff0000;stroke:#ff0000;" x="268.258613" xlink:href="#mb4bcf27d82" y="295.488"/>
     <use style="fill:#ff0000;stroke:#ff0000;" x="270.09282" xlink:href="#mb4bcf27d82" y="276.556852"/>
     <use style="fill:#ff0000;stroke:#ff0000;" x="271.927026" xlink:href="#mb4bcf27d82" y="257.804974"/>
     <use style="fill:#ff0000;stroke:#ff0000;" x="273.761233" xlink:href="#mb4bcf27d82" y="257.804974"/>
     <use style="fill:#ff0000;stroke:#ff0000;" x="275.595439" xlink:href="#mb4bcf27d82" y="239.173959"/>
     <use style="fill:#ff0000;stroke:#ff0000;" x="277.429646" xlink:href="#mb4bcf27d82" y="239.173959"/>
     <use style="fill:#ff0000;stroke:#ff0000;" x="279.263852" xlink:href="#mb4bcf27d82" y="239.173959"/>
     <use style="fill:#ff0000;stroke:#ff0000;" x="281.098059" xlink:href="#mb4bcf27d82" y="239.173959"/>
     <use style="fill:#ff0000;stroke:#ff0000;" x="282.932265" xlink:href="#mb4bcf27d82" y="239.173959"/>
     <use style="fill:#ff0000;stroke:#ff0000;" x="284.766471" xlink:href="#mb4bcf27d82" y="239.173959"/>
     <use style="fill:#ff0000;stroke:#ff0000;" x="286.600678" xlink:href="#mb4bcf27d82" y="239.173959"/>
     <use style="fill:#ff0000;stroke:#ff0000;" x="288.434884" xlink:href="#mb4bcf27d82" y="239.173959"/>
     <use style="fill:#ff0000;stroke:#ff0000;" x="290.269091" xlink:href="#mb4bcf27d82" y="239.173959"/>
     <use style="fill:#ff0000;stroke:#ff0000;" x="292.103297" xlink:href="#mb4bcf27d82" y="239.173959"/>
     <use style="fill:#ff0000;stroke:#ff0000;" x="293.937504" xlink:href="#mb4bcf27d82" y="239.173959"/>
     <use style="fill:#ff0000;stroke:#ff0000;" x="295.77171" xlink:href="#mb4bcf27d82" y="252.437472"/>
     <use style="fill:#ff0000;stroke:#ff0000;" x="297.605917" xlink:href="#mb4bcf27d82" y="234.886569"/>
     <use style="fill:#ff0000;stroke:#ff0000;" x="299.440123" xlink:href="#mb4bcf27d82" y="234.886569"/>
     <use style="fill:#ff0000;stroke:#ff0000;" x="301.27433" xlink:href="#mb4bcf27d82" y="234.886569"/>
     <use style="fill:#ff0000;stroke:#ff0000;" x="303.108536" xlink:href="#mb4bcf27d82" y="249.718971"/>
     <use style="fill:#ff0000;stroke:#ff0000;" x="304.942743" xlink:href="#mb4bcf27d82" y="249.718971"/>
     <use style="fill:#ff0000;stroke:#ff0000;" x="306.776949" xlink:href="#mb4bcf27d82" y="244.408267"/>
     <use style="fill:#ff0000;stroke:#ff0000;" x="308.611156" xlink:href="#mb4bcf27d82" y="244.408267"/>
     <use style="fill:#ff0000;stroke:#ff0000;" x="310.445362" xlink:href="#mb4bcf27d82" y="239.47313"/>
     <use style="fill:#ff0000;stroke:#ff0000;" x="312.279569" xlink:href="#mb4bcf27d82" y="251.590201"/>
     <use style="fill:#ff0000;stroke:#ff0000;" x="314.113775" xlink:href="#mb4bcf27d82" y="251.590201"/>
     <use style="fill:#ff0000;stroke:#ff0000;" x="315.947982" xlink:href="#mb4bcf27d82" y="266.000056"/>
     <use style="fill:#ff0000;stroke:#ff0000;" x="317.782188" xlink:href="#mb4bcf27d82" y="266.000056"/>
     <use style="fill:#ff0000;stroke:#ff0000;" x="319.616394" xlink:href="#mb4bcf27d82" y="263.313982"/>
     <use style="fill:#ff0000;stroke:#ff0000;" x="321.450601" xlink:href="#mb4bcf27d82" y="263.313982"/>
     <use style="fill:#ff0000;stroke:#ff0000;" x="323.284807" xlink:href="#mb4bcf27d82" y="263.313982"/>
     <use style="fill:#ff0000;stroke:#ff0000;" x="325.119014" xlink:href="#mb4bcf27d82" y="245.075523"/>
     <use style="fill:#ff0000;stroke:#ff0000;" x="326.95322" xlink:href="#mb4bcf27d82" y="245.075523"/>
     <use style="fill:#ff0000;stroke:#ff0000;" x="328.787427" xlink:href="#mb4bcf27d82" y="228.081406"/>
     <use style="fill:#ff0000;stroke:#ff0000;" x="330.621633" xlink:href="#mb4bcf27d82" y="228.081406"/>
     <use style="fill:#ff0000;stroke:#ff0000;" x="332.45584" xlink:href="#mb4bcf27d82" y="242.242633"/>
     <use style="fill:#ff0000;stroke:#ff0000;" x="334.290046" xlink:href="#mb4bcf27d82" y="242.242633"/>
     <use style="fill:#ff0000;stroke:#ff0000;" x="336.124253" xlink:href="#mb4bcf27d82" y="227.094497"/>
     <use style="fill:#ff0000;stroke:#ff0000;" x="337.958459" xlink:href="#mb4bcf27d82" y="227.094497"/>
     <use style="fill:#ff0000;stroke:#ff0000;" x="339.792666" xlink:href="#mb4bcf27d82" y="222.179012"/>
     <use style="fill:#ff0000;stroke:#ff0000;" x="341.626872" xlink:href="#mb4bcf27d82" y="221.526242"/>
     <use style="fill:#ff0000;stroke:#ff0000;" x="343.461079" xlink:href="#mb4bcf27d82" y="221.526242"/>
     <use style="fill:#ff0000;stroke:#ff0000;" x="345.295285" xlink:href="#mb4bcf27d82" y="220.429066"/>
     <use style="fill:#ff0000;stroke:#ff0000;" x="347.129492" xlink:href="#mb4bcf27d82" y="220.429066"/>
     <use style="fill:#ff0000;stroke:#ff0000;" x="348.963698" xlink:href="#mb4bcf27d82" y="221.497678"/>
     <use style="fill:#ff0000;stroke:#ff0000;" x="350.797904" xlink:href="#mb4bcf27d82" y="238.440223"/>
     <use style="fill:#ff0000;stroke:#ff0000;" x="352.632111" xlink:href="#mb4bcf27d82" y="238.440223"/>
     <use style="fill:#ff0000;stroke:#ff0000;" x="354.466317" xlink:href="#mb4bcf27d82" y="239.369752"/>
     <use style="fill:#ff0000;stroke:#ff0000;" x="356.300524" xlink:href="#mb4bcf27d82" y="239.369752"/>
     <use style="fill:#ff0000;stroke:#ff0000;" x="358.13473" xlink:href="#mb4bcf27d82" y="252.134849"/>
     <use style="fill:#ff0000;stroke:#ff0000;" x="359.968937" xlink:href="#mb4bcf27d82" y="234.267207"/>
     <use style="fill:#ff0000;stroke:#ff0000;" x="361.803143" xlink:href="#mb4bcf27d82" y="234.267207"/>
     <use style="fill:#ff0000;stroke:#ff0000;" x="363.63735" xlink:href="#mb4bcf27d82" y="219.76071"/>
     <use style="fill:#ff0000;stroke:#ff0000;" x="365.471556" xlink:href="#mb4bcf27d82" y="219.76071"/>
     <use style="fill:#ff0000;stroke:#ff0000;" x="367.305763" xlink:href="#mb4bcf27d82" y="219.76071"/>
     <use style="fill:#ff0000;stroke:#ff0000;" x="369.139969" xlink:href="#mb4bcf27d82" y="219.76071"/>
     <use style="fill:#ff0000;stroke:#ff0000;" x="370.974176" xlink:href="#mb4bcf27d82" y="200.728077"/>
     <use style="fill:#ff0000;stroke:#ff0000;" x="372.808382" xlink:href="#mb4bcf27d82" y="200.728077"/>
     <use style="fill:#ff0000;stroke:#ff0000;" x="374.642589" xlink:href="#mb4bcf27d82" y="186.182608"/>
     <use style="fill:#ff0000;stroke:#ff0000;" x="376.476795" xlink:href="#mb4bcf27d82" y="202.511941"/>
     <use style="fill:#ff0000;stroke:#ff0000;" x="378.311002" xlink:href="#mb4bcf27d82" y="202.511941"/>
     <use style="fill:#ff0000;stroke:#ff0000;" x="380.145208" xlink:href="#mb4bcf27d82" y="217.158741"/>
     <use style="fill:#ff0000;stroke:#ff0000;" x="381.979414" xlink:href="#mb4bcf27d82" y="217.158741"/>
     <use style="fill:#ff0000;stroke:#ff0000;" x="383.813621" xlink:href="#mb4bcf27d82" y="200.32091"/>
     <use style="fill:#ff0000;stroke:#ff0000;" x="385.647827" xlink:href="#mb4bcf27d82" y="200.32091"/>
     <use style="fill:#ff0000;stroke:#ff0000;" x="387.482034" xlink:href="#mb4bcf27d82" y="213.337922"/>
     <use style="fill:#ff0000;stroke:#ff0000;" x="389.31624" xlink:href="#mb4bcf27d82" y="213.337922"/>
     <use style="fill:#ff0000;stroke:#ff0000;" x="391.150447" xlink:href="#mb4bcf27d82" y="226.773553"/>
     <use style="fill:#ff0000;stroke:#ff0000;" x="392.984653" xlink:href="#mb4bcf27d82" y="240.692065"/>
     <use style="fill:#ff0000;stroke:#ff0000;" x="394.81886" xlink:href="#mb4bcf27d82" y="240.692065"/>
     <use style="fill:#ff0000;stroke:#ff0000;" x="396.653066" xlink:href="#mb4bcf27d82" y="225.56411"/>
     <use style="fill:#ff0000;stroke:#ff0000;" x="398.487273" xlink:href="#mb4bcf27d82" y="225.56411"/>
    </g>
   </g>
   <g id="patch_3">
    <path d="M 57.6 307.584 
L 57.6 41.472 
" style="fill:none;stroke:#000000;stroke-linecap:square;stroke-linejoin:miter;stroke-width:0.8;"/>
   </g>
   <g id="patch_4">
    <path d="M 414.72 307.584 
L 414.72 41.472 
" style="fill:none;stroke:#000000;stroke-linecap:square;stroke-linejoin:miter;stroke-width:0.8;"/>
   </g>
   <g id="patch_5">
    <path d="M 57.6 307.584 
L 414.72 307.584 
" style="fill:none;stroke:#000000;stroke-linecap:square;stroke-linejoin:miter;stroke-width:0.8;"/>
   </g>
   <g id="patch_6">
    <path d="M 57.6 41.472 
L 414.72 41.472 
" style="fill:none;stroke:#000000;stroke-linecap:square;stroke-linejoin:miter;stroke-width:0.8;"/>
   </g>
  </g>
 </g>
 <defs>
  <clipPath id="p318e539dfd">
   <rect height="266.112" width="357.12" x="57.6" y="41.472"/>
  </clipPath>
 </defs>
</svg>
