<?xml version="1.0" encoding="utf-8" standalone="no"?>
<!DOCTYPE svg PUBLIC "-//W3C//DTD SVG 1.1//EN"
  "http://www.w3.org/Graphics/SVG/1.1/DTD/svg11.dtd">
<!-- Created with matplotlib (https://matplotlib.org/) -->
<svg height="345.6pt" version="1.1" viewBox="0 0 460.8 345.6" width="460.8pt" xmlns="http://www.w3.org/2000/svg" xmlns:xlink="http://www.w3.org/1999/xlink">
 <defs>
  <style type="text/css">
*{stroke-linecap:butt;stroke-linejoin:round;}
  </style>
 </defs>
 <g id="figure_1">
  <g id="patch_1">
   <path d="M 0 345.6 
L 460.8 345.6 
L 460.8 0 
L 0 0 
z
" style="fill:#ffffff;"/>
  </g>
  <g id="axes_1">
   <g id="patch_2">
    <path d="M 57.6 307.584 
L 414.72 307.584 
L 414.72 41.472 
L 57.6 41.472 
z
" style="fill:#ffffff;"/>
   </g>
   <g id="line2d_1">
    <path clip-path="url(#p7b369f7cb8)" d="M 73.832727 53.568 
L 80.596364 53.568 
L 81.562597 101.063417 
L 82.528831 101.063417 
L 83.495065 147.775714 
L 85.427532 147.775714 
L 86.393766 146.879693 
L 88.326234 146.879693 
L 89.292468 145.022402 
L 90.258701 157.586093 
L 92.191169 157.586093 
L 93.157403 207.838167 
L 94.123636 196.69471 
L 96.056104 196.69471 
L 97.022338 239.715635 
L 100.887273 239.715635 
L 101.853506 281.656895 
L 102.81974 263.405448 
L 107.650909 263.405448 
L 108.617143 245.813719 
L 109.583377 245.813719 
L 111.515844 211.512397 
L 112.482078 211.512397 
L 113.448312 195.04995 
L 114.414545 195.04995 
L 115.380779 209.689803 
L 116.347013 209.689803 
L 117.313247 225.848084 
L 118.279481 225.848084 
L 119.245714 208.92938 
L 120.211948 208.92938 
L 121.178182 222.458908 
L 122.144416 222.458908 
L 123.110649 237.157983 
L 124.076883 239.390035 
L 125.043117 239.390035 
L 126.009351 235.001354 
L 126.975584 235.001354 
L 127.941818 250.065956 
L 128.908052 250.065956 
L 129.874286 244.747099 
L 130.840519 245.015556 
L 132.772987 245.015556 
L 133.739221 226.834067 
L 134.705455 226.834067 
L 135.671688 240.073342 
L 139.536623 240.029087 
L 140.502857 255.371142 
L 141.469091 255.371142 
L 142.435325 269.163983 
L 143.401558 269.163983 
L 144.367792 263.234125 
L 146.30026 263.234125 
L 147.266494 245.144424 
L 148.232727 245.144424 
L 149.198961 258.425374 
L 150.165195 258.425374 
L 152.097662 226.391455 
L 155.962597 226.391455 
L 156.928831 240.400229 
L 157.895065 224.133345 
L 158.861299 224.133345 
L 159.827532 225.052088 
L 161.76 225.052088 
L 162.726234 239.458203 
L 163.692468 239.458203 
L 164.658701 240.790597 
L 166.591169 240.790597 
L 167.557403 254.360038 
L 168.523636 254.360038 
L 169.48987 253.322156 
L 170.456104 266.76143 
L 171.422338 266.76143 
L 172.388571 281.876975 
L 173.354805 281.876975 
L 174.321039 295.488 
L 176.253506 295.488 
L 178.185974 257.804974 
L 179.152208 257.804974 
L 180.118442 239.173959 
L 189.780779 239.173959 
L 190.747013 252.437472 
L 191.713247 234.886569 
L 193.645714 234.886569 
L 194.611948 249.718971 
L 195.578182 249.718971 
L 196.544416 244.408267 
L 197.510649 244.408267 
L 198.476883 239.47313 
L 199.443117 251.590201 
L 200.409351 251.590201 
L 201.375584 266.000056 
L 202.341818 266.000056 
L 203.308052 263.313982 
L 205.240519 263.313982 
L 206.206753 245.075523 
L 207.172987 245.075523 
L 208.139221 228.081406 
L 209.105455 228.081406 
L 210.071688 242.242633 
L 211.037922 242.242633 
L 212.004156 227.094497 
L 212.97039 227.094497 
L 213.936623 222.179012 
L 214.902857 221.526242 
L 215.869091 221.526242 
L 216.835325 220.429066 
L 217.801558 220.429066 
L 218.767792 221.497678 
L 219.734026 238.440223 
L 220.70026 238.440223 
L 221.666494 239.369752 
L 222.632727 239.369752 
L 223.598961 252.134849 
L 224.565195 234.267207 
L 225.531429 234.267207 
L 226.497662 219.76071 
L 229.396364 219.76071 
L 230.362597 200.728077 
L 231.328831 200.728077 
L 232.295065 186.182608 
L 233.261299 202.511941 
L 234.227532 202.511941 
L 235.193766 217.158741 
L 236.16 217.158741 
L 237.126234 200.32091 
L 238.092468 200.32091 
L 239.058701 213.337922 
L 240.024935 213.337922 
L 241.957403 240.692065 
L 242.923636 240.692065 
L 243.88987 225.56411 
L 244.856104 225.56411 
L 245.822338 206.49447 
L 246.788571 206.49447 
L 247.754805 188.197349 
L 249.687273 188.197349 
L 250.653506 186.378614 
L 251.61974 186.378614 
L 252.585974 190.225251 
L 398.487273 190.225251 
L 398.487273 190.225251 
" style="fill:none;stroke:#ff0000;stroke-linecap:square;stroke-width:12;"/>
    <defs>
     <path d="M 0 3 
C 0.795609 3 1.55874 2.683901 2.12132 2.12132 
C 2.683901 1.55874 3 0.795609 3 0 
C 3 -0.795609 2.683901 -1.55874 2.12132 -2.12132 
C 1.55874 -2.683901 0.795609 -3 0 -3 
C -0.795609 -3 -1.55874 -2.683901 -2.12132 -2.12132 
C -2.683901 -1.55874 -3 -0.795609 -3 0 
C -3 0.795609 -2.683901 1.55874 -2.12132 2.12132 
C -1.55874 2.683901 -0.795609 3 0 3 
z
" id="mf49b2c957b" style="stroke:#ff0000;"/>
    </defs>
    <g clip-path="url(#p7b369f7cb8)">
     <use style="fill:#ff0000;stroke:#ff0000;" x="73.832727" xlink:href="#mf49b2c957b" y="53.568"/>
     <use style="fill:#ff0000;stroke:#ff0000;" x="74.798961" xlink:href="#mf49b2c957b" y="53.568"/>
     <use style="fill:#ff0000;stroke:#ff0000;" x="75.765195" xlink:href="#mf49b2c957b" y="53.568"/>
     <use style="fill:#ff0000;stroke:#ff0000;" x="76.731429" xlink:href="#mf49b2c957b" y="53.568"/>
     <use style="fill:#ff0000;stroke:#ff0000;" x="77.697662" xlink:href="#mf49b2c957b" y="53.568"/>
     <use style="fill:#ff0000;stroke:#ff0000;" x="78.663896" xlink:href="#mf49b2c957b" y="53.568"/>
     <use style="fill:#ff0000;stroke:#ff0000;" x="79.63013" xlink:href="#mf49b2c957b" y="53.568"/>
     <use style="fill:#ff0000;stroke:#ff0000;" x="80.596364" xlink:href="#mf49b2c957b" y="53.568"/>
     <use style="fill:#ff0000;stroke:#ff0000;" x="81.562597" xlink:href="#mf49b2c957b" y="101.063417"/>
     <use style="fill:#ff0000;stroke:#ff0000;" x="82.528831" xlink:href="#mf49b2c957b" y="101.063417"/>
     <use style="fill:#ff0000;stroke:#ff0000;" x="83.495065" xlink:href="#mf49b2c957b" y="147.775714"/>
     <use style="fill:#ff0000;stroke:#ff0000;" x="84.461299" xlink:href="#mf49b2c957b" y="147.775714"/>
     <use style="fill:#ff0000;stroke:#ff0000;" x="85.427532" xlink:href="#mf49b2c957b" y="147.775714"/>
     <use style="fill:#ff0000;stroke:#ff0000;" x="86.393766" xlink:href="#mf49b2c957b" y="146.879693"/>
     <use style="fill:#ff0000;stroke:#ff0000;" x="87.36" xlink:href="#mf49b2c957b" y="146.879693"/>
     <use style="fill:#ff0000;stroke:#ff0000;" x="88.326234" xlink:href="#mf49b2c957b" y="146.879693"/>
     <use style="fill:#ff0000;stroke:#ff0000;" x="89.292468" xlink:href="#mf49b2c957b" y="145.022402"/>
     <use style="fill:#ff0000;stroke:#ff0000;" x="90.258701" xlink:href="#mf49b2c957b" y="157.586093"/>
     <use style="fill:#ff0000;stroke:#ff0000;" x="91.224935" xlink:href="#mf49b2c957b" y="157.586093"/>
     <use style="fill:#ff0000;stroke:#ff0000;" x="92.191169" xlink:href="#mf49b2c957b" y="157.586093"/>
     <use style="fill:#ff0000;stroke:#ff0000;" x="93.157403" xlink:href="#mf49b2c957b" y="207.838167"/>
     <use style="fill:#ff0000;stroke:#ff0000;" x="94.123636" xlink:href="#mf49b2c957b" y="196.69471"/>
     <use style="fill:#ff0000;stroke:#ff0000;" x="95.08987" xlink:href="#mf49b2c957b" y="196.69471"/>
     <use style="fill:#ff0000;stroke:#ff0000;" x="96.056104" xlink:href="#mf49b2c957b" y="196.69471"/>
     <use style="fill:#ff0000;stroke:#ff0000;" x="97.022338" xlink:href="#mf49b2c957b" y="239.715635"/>
     <use style="fill:#ff0000;stroke:#ff0000;" x="97.988571" xlink:href="#mf49b2c957b" y="239.715635"/>
     <use style="fill:#ff0000;stroke:#ff0000;" x="98.954805" xlink:href="#mf49b2c957b" y="239.715635"/>
     <use style="fill:#ff0000;stroke:#ff0000;" x="99.921039" xlink:href="#mf49b2c957b" y="239.715635"/>
     <use style="fill:#ff0000;stroke:#ff0000;" x="100.887273" xlink:href="#mf49b2c957b" y="239.715635"/>
     <use style="fill:#ff0000;stroke:#ff0000;" x="101.853506" xlink:href="#mf49b2c957b" y="281.656895"/>
     <use style="fill:#ff0000;stroke:#ff0000;" x="102.81974" xlink:href="#mf49b2c957b" y="263.405448"/>
     <use style="fill:#ff0000;stroke:#ff0000;" x="103.785974" xlink:href="#mf49b2c957b" y="263.405448"/>
     <use style="fill:#ff0000;stroke:#ff0000;" x="104.752208" xlink:href="#mf49b2c957b" y="263.405448"/>
     <use style="fill:#ff0000;stroke:#ff0000;" x="105.718442" xlink:href="#mf49b2c957b" y="263.405448"/>
     <use style="fill:#ff0000;stroke:#ff0000;" x="106.684675" xlink:href="#mf49b2c957b" y="263.405448"/>
     <use style="fill:#ff0000;stroke:#ff0000;" x="107.650909" xlink:href="#mf49b2c957b" y="263.405448"/>
     <use style="fill:#ff0000;stroke:#ff0000;" x="108.617143" xlink:href="#mf49b2c957b" y="245.813719"/>
     <use style="fill:#ff0000;stroke:#ff0000;" x="109.583377" xlink:href="#mf49b2c957b" y="245.813719"/>
     <use style="fill:#ff0000;stroke:#ff0000;" x="110.54961" xlink:href="#mf49b2c957b" y="228.346107"/>
     <use style="fill:#ff0000;stroke:#ff0000;" x="111.515844" xlink:href="#mf49b2c957b" y="211.512397"/>
     <use style="fill:#ff0000;stroke:#ff0000;" x="112.482078" xlink:href="#mf49b2c957b" y="211.512397"/>
     <use style="fill:#ff0000;stroke:#ff0000;" x="113.448312" xlink:href="#mf49b2c957b" y="195.04995"/>
     <use style="fill:#ff0000;stroke:#ff0000;" x="114.414545" xlink:href="#mf49b2c957b" y="195.04995"/>
     <use style="fill:#ff0000;stroke:#ff0000;" x="115.380779" xlink:href="#mf49b2c957b" y="209.689803"/>
     <use style="fill:#ff0000;stroke:#ff0000;" x="116.347013" xlink:href="#mf49b2c957b" y="209.689803"/>
     <use style="fill:#ff0000;stroke:#ff0000;" x="117.313247" xlink:href="#mf49b2c957b" y="225.848084"/>
     <use style="fill:#ff0000;stroke:#ff0000;" x="118.279481" xlink:href="#mf49b2c957b" y="225.848084"/>
     <use style="fill:#ff0000;stroke:#ff0000;" x="119.245714" xlink:href="#mf49b2c957b" y="208.92938"/>
     <use style="fill:#ff0000;stroke:#ff0000;" x="120.211948" xlink:href="#mf49b2c957b" y="208.92938"/>
     <use style="fill:#ff0000;stroke:#ff0000;" x="121.178182" xlink:href="#mf49b2c957b" y="222.458908"/>
     <use style="fill:#ff0000;stroke:#ff0000;" x="122.144416" xlink:href="#mf49b2c957b" y="222.458908"/>
     <use style="fill:#ff0000;stroke:#ff0000;" x="123.110649" xlink:href="#mf49b2c957b" y="237.157983"/>
     <use style="fill:#ff0000;stroke:#ff0000;" x="124.076883" xlink:href="#mf49b2c957b" y="239.390035"/>
     <use style="fill:#ff0000;stroke:#ff0000;" x="125.043117" xlink:href="#mf49b2c957b" y="239.390035"/>
     <use style="fill:#ff0000;stroke:#ff0000;" x="126.009351" xlink:href="#mf49b2c957b" y="235.001354"/>
     <use style="fill:#ff0000;stroke:#ff0000;" x="126.975584" xlink:href="#mf49b2c957b" y="235.001354"/>
     <use style="fill:#ff0000;stroke:#ff0000;" x="127.941818" xlink:href="#mf49b2c957b" y="250.065956"/>
     <use style="fill:#ff0000;stroke:#ff0000;" x="128.908052" xlink:href="#mf49b2c957b" y="250.065956"/>
     <use style="fill:#ff0000;stroke:#ff0000;" x="129.874286" xlink:href="#mf49b2c957b" y="244.747099"/>
     <use style="fill:#ff0000;stroke:#ff0000;" x="130.840519" xlink:href="#mf49b2c957b" y="245.015556"/>
     <use style="fill:#ff0000;stroke:#ff0000;" x="131.806753" xlink:href="#mf49b2c957b" y="245.015556"/>
     <use style="fill:#ff0000;stroke:#ff0000;" x="132.772987" xlink:href="#mf49b2c957b" y="245.015556"/>
     <use style="fill:#ff0000;stroke:#ff0000;" x="133.739221" xlink:href="#mf49b2c957b" y="226.834067"/>
     <use style="fill:#ff0000;stroke:#ff0000;" x="134.705455" xlink:href="#mf49b2c957b" y="226.834067"/>
     <use style="fill:#ff0000;stroke:#ff0000;" x="135.671688" xlink:href="#mf49b2c957b" y="240.073342"/>
     <use style="fill:#ff0000;stroke:#ff0000;" x="136.637922" xlink:href="#mf49b2c957b" y="240.073342"/>
     <use style="fill:#ff0000;stroke:#ff0000;" x="137.604156" xlink:href="#mf49b2c957b" y="240.029087"/>
     <use style="fill:#ff0000;stroke:#ff0000;" x="138.57039" xlink:href="#mf49b2c957b" y="240.029087"/>
     <use style="fill:#ff0000;stroke:#ff0000;" x="139.536623" xlink:href="#mf49b2c957b" y="240.029087"/>
     <use style="fill:#ff0000;stroke:#ff0000;" x="140.502857" xlink:href="#mf49b2c957b" y="255.371142"/>
     <use style="fill:#ff0000;stroke:#ff0000;" x="141.469091" xlink:href="#mf49b2c957b" y="255.371142"/>
     <use style="fill:#ff0000;stroke:#ff0000;" x="142.435325" xlink:href="#mf49b2c957b" y="269.163983"/>
     <use style="fill:#ff0000;stroke:#ff0000;" x="143.401558" xlink:href="#mf49b2c957b" y="269.163983"/>
     <use style="fill:#ff0000;stroke:#ff0000;" x="144.367792" xlink:href="#mf49b2c957b" y="263.234125"/>
     <use style="fill:#ff0000;stroke:#ff0000;" x="145.334026" xlink:href="#mf49b2c957b" y="263.234125"/>
     <use style="fill:#ff0000;stroke:#ff0000;" x="146.30026" xlink:href="#mf49b2c957b" y="263.234125"/>
     <use style="fill:#ff0000;stroke:#ff0000;" x="147.266494" xlink:href="#mf49b2c957b" y="245.144424"/>
     <use style="fill:#ff0000;stroke:#ff0000;" x="148.232727" xlink:href="#mf49b2c957b" y="245.144424"/>
     <use style="fill:#ff0000;stroke:#ff0000;" x="149.198961" xlink:href="#mf49b2c957b" y="258.425374"/>
     <use style="fill:#ff0000;stroke:#ff0000;" x="150.165195" xlink:href="#mf49b2c957b" y="258.425374"/>
     <use style="fill:#ff0000;stroke:#ff0000;" x="151.131429" xlink:href="#mf49b2c957b" y="242.872377"/>
     <use style="fill:#ff0000;stroke:#ff0000;" x="152.097662" xlink:href="#mf49b2c957b" y="226.391455"/>
     <use style="fill:#ff0000;stroke:#ff0000;" x="153.063896" xlink:href="#mf49b2c957b" y="226.391455"/>
     <use style="fill:#ff0000;stroke:#ff0000;" x="154.03013" xlink:href="#mf49b2c957b" y="226.391455"/>
     <use style="fill:#ff0000;stroke:#ff0000;" x="154.996364" xlink:href="#mf49b2c957b" y="226.391455"/>
     <use style="fill:#ff0000;stroke:#ff0000;" x="155.962597" xlink:href="#mf49b2c957b" y="226.391455"/>
     <use style="fill:#ff0000;stroke:#ff0000;" x="156.928831" xlink:href="#mf49b2c957b" y="240.400229"/>
     <use style="fill:#ff0000;stroke:#ff0000;" x="157.895065" xlink:href="#mf49b2c957b" y="224.133345"/>
     <use style="fill:#ff0000;stroke:#ff0000;" x="158.861299" xlink:href="#mf49b2c957b" y="224.133345"/>
     <use style="fill:#ff0000;stroke:#ff0000;" x="159.827532" xlink:href="#mf49b2c957b" y="225.052088"/>
     <use style="fill:#ff0000;stroke:#ff0000;" x="160.793766" xlink:href="#mf49b2c957b" y="225.052088"/>
     <use style="fill:#ff0000;stroke:#ff0000;" x="161.76" xlink:href="#mf49b2c957b" y="225.052088"/>
     <use style="fill:#ff0000;stroke:#ff0000;" x="162.726234" xlink:href="#mf49b2c957b" y="239.458203"/>
     <use style="fill:#ff0000;stroke:#ff0000;" x="163.692468" xlink:href="#mf49b2c957b" y="239.458203"/>
     <use style="fill:#ff0000;stroke:#ff0000;" x="164.658701" xlink:href="#mf49b2c957b" y="240.790597"/>
     <use style="fill:#ff0000;stroke:#ff0000;" x="165.624935" xlink:href="#mf49b2c957b" y="240.790597"/>
     <use style="fill:#ff0000;stroke:#ff0000;" x="166.591169" xlink:href="#mf49b2c957b" y="240.790597"/>
     <use style="fill:#ff0000;stroke:#ff0000;" x="167.557403" xlink:href="#mf49b2c957b" y="254.360038"/>
     <use style="fill:#ff0000;stroke:#ff0000;" x="168.523636" xlink:href="#mf49b2c957b" y="254.360038"/>
     <use style="fill:#ff0000;stroke:#ff0000;" x="169.48987" xlink:href="#mf49b2c957b" y="253.322156"/>
     <use style="fill:#ff0000;stroke:#ff0000;" x="170.456104" xlink:href="#mf49b2c957b" y="266.76143"/>
     <use style="fill:#ff0000;stroke:#ff0000;" x="171.422338" xlink:href="#mf49b2c957b" y="266.76143"/>
     <use style="fill:#ff0000;stroke:#ff0000;" x="172.388571" xlink:href="#mf49b2c957b" y="281.876975"/>
     <use style="fill:#ff0000;stroke:#ff0000;" x="173.354805" xlink:href="#mf49b2c957b" y="281.876975"/>
     <use style="fill:#ff0000;stroke:#ff0000;" x="174.321039" xlink:href="#mf49b2c957b" y="295.488"/>
     <use style="fill:#ff0000;stroke:#ff0000;" x="175.287273" xlink:href="#mf49b2c957b" y="295.488"/>
     <use style="fill:#ff0000;stroke:#ff0000;" x="176.253506" xlink:href="#mf49b2c957b" y="295.488"/>
     <use style="fill:#ff0000;stroke:#ff0000;" x="177.21974" xlink:href="#mf49b2c957b" y="276.556852"/>
     <use style="fill:#ff0000;stroke:#ff0000;" x="178.185974" xlink:href="#mf49b2c957b" y="257.804974"/>
     <use style="fill:#ff0000;stroke:#ff0000;" x="179.152208" xlink:href="#mf49b2c957b" y="257.804974"/>
     <use style="fill:#ff0000;stroke:#ff0000;" x="180.118442" xlink:href="#mf49b2c957b" y="239.173959"/>
     <use style="fill:#ff0000;stroke:#ff0000;" x="181.084675" xlink:href="#mf49b2c957b" y="239.173959"/>
     <use style="fill:#ff0000;stroke:#ff0000;" x="182.050909" xlink:href="#mf49b2c957b" y="239.173959"/>
     <use style="fill:#ff0000;stroke:#ff0000;" x="183.017143" xlink:href="#mf49b2c957b" y="239.173959"/>
     <use style="fill:#ff0000;stroke:#ff0000;" x="183.983377" xlink:href="#mf49b2c957b" y="239.173959"/>
     <use style="fill:#ff0000;stroke:#ff0000;" x="184.94961" xlink:href="#mf49b2c957b" y="239.173959"/>
     <use style="fill:#ff0000;stroke:#ff0000;" x="185.915844" xlink:href="#mf49b2c957b" y="239.173959"/>
     <use style="fill:#ff0000;stroke:#ff0000;" x="186.882078" xlink:href="#mf49b2c957b" y="239.173959"/>
     <use style="fill:#ff0000;stroke:#ff0000;" x="187.848312" xlink:href="#mf49b2c957b" y="239.173959"/>
     <use style="fill:#ff0000;stroke:#ff0000;" x="188.814545" xlink:href="#mf49b2c957b" y="239.173959"/>
     <use style="fill:#ff0000;stroke:#ff0000;" x="189.780779" xlink:href="#mf49b2c957b" y="239.173959"/>
     <use style="fill:#ff0000;stroke:#ff0000;" x="190.747013" xlink:href="#mf49b2c957b" y="252.437472"/>
     <use style="fill:#ff0000;stroke:#ff0000;" x="191.713247" xlink:href="#mf49b2c957b" y="234.886569"/>
     <use style="fill:#ff0000;stroke:#ff0000;" x="192.679481" xlink:href="#mf49b2c957b" y="234.886569"/>
     <use style="fill:#ff0000;stroke:#ff0000;" x="193.645714" xlink:href="#mf49b2c957b" y="234.886569"/>
     <use style="fill:#ff0000;stroke:#ff0000;" x="194.611948" xlink:href="#mf49b2c957b" y="249.718971"/>
     <use style="fill:#ff0000;stroke:#ff0000;" x="195.578182" xlink:href="#mf49b2c957b" y="249.718971"/>
     <use style="fill:#ff0000;stroke:#ff0000;" x="196.544416" xlink:href="#mf49b2c957b" y="244.408267"/>
     <use style="fill:#ff0000;stroke:#ff0000;" x="197.510649" xlink:href="#mf49b2c957b" y="244.408267"/>
     <use style="fill:#ff0000;stroke:#ff0000;" x="198.476883" xlink:href="#mf49b2c957b" y="239.47313"/>
     <use style="fill:#ff0000;stroke:#ff0000;" x="199.443117" xlink:href="#mf49b2c957b" y="251.590201"/>
     <use style="fill:#ff0000;stroke:#ff0000;" x="200.409351" xlink:href="#mf49b2c957b" y="251.590201"/>
     <use style="fill:#ff0000;stroke:#ff0000;" x="201.375584" xlink:href="#mf49b2c957b" y="266.000056"/>
     <use style="fill:#ff0000;stroke:#ff0000;" x="202.341818" xlink:href="#mf49b2c957b" y="266.000056"/>
     <use style="fill:#ff0000;stroke:#ff0000;" x="203.308052" xlink:href="#mf49b2c957b" y="263.313982"/>
     <use style="fill:#ff0000;stroke:#ff0000;" x="204.274286" xlink:href="#mf49b2c957b" y="263.313982"/>
     <use style="fill:#ff0000;stroke:#ff0000;" x="205.240519" xlink:href="#mf49b2c957b" y="263.313982"/>
     <use style="fill:#ff0000;stroke:#ff0000;" x="206.206753" xlink:href="#mf49b2c957b" y="245.075523"/>
     <use style="fill:#ff0000;stroke:#ff0000;" x="207.172987" xlink:href="#mf49b2c957b" y="245.075523"/>
     <use style="fill:#ff0000;stroke:#ff0000;" x="208.139221" xlink:href="#mf49b2c957b" y="228.081406"/>
     <use style="fill:#ff0000;stroke:#ff0000;" x="209.105455" xlink:href="#mf49b2c957b" y="228.081406"/>
     <use style="fill:#ff0000;stroke:#ff0000;" x="210.071688" xlink:href="#mf49b2c957b" y="242.242633"/>
     <use style="fill:#ff0000;stroke:#ff0000;" x="211.037922" xlink:href="#mf49b2c957b" y="242.242633"/>
     <use style="fill:#ff0000;stroke:#ff0000;" x="212.004156" xlink:href="#mf49b2c957b" y="227.094497"/>
     <use style="fill:#ff0000;stroke:#ff0000;" x="212.97039" xlink:href="#mf49b2c957b" y="227.094497"/>
     <use style="fill:#ff0000;stroke:#ff0000;" x="213.936623" xlink:href="#mf49b2c957b" y="222.179012"/>
     <use style="fill:#ff0000;stroke:#ff0000;" x="214.902857" xlink:href="#mf49b2c957b" y="221.526242"/>
     <use style="fill:#ff0000;stroke:#ff0000;" x="215.869091" xlink:href="#mf49b2c957b" y="221.526242"/>
     <use style="fill:#ff0000;stroke:#ff0000;" x="216.835325" xlink:href="#mf49b2c957b" y="220.429066"/>
     <use style="fill:#ff0000;stroke:#ff0000;" x="217.801558" xlink:href="#mf49b2c957b" y="220.429066"/>
     <use style="fill:#ff0000;stroke:#ff0000;" x="218.767792" xlink:href="#mf49b2c957b" y="221.497678"/>
     <use style="fill:#ff0000;stroke:#ff0000;" x="219.734026" xlink:href="#mf49b2c957b" y="238.440223"/>
     <use style="fill:#ff0000;stroke:#ff0000;" x="220.70026" xlink:href="#mf49b2c957b" y="238.440223"/>
     <use style="fill:#ff0000;stroke:#ff0000;" x="221.666494" xlink:href="#mf49b2c957b" y="239.369752"/>
     <use style="fill:#ff0000;stroke:#ff0000;" x="222.632727" xlink:href="#mf49b2c957b" y="239.369752"/>
     <use style="fill:#ff0000;stroke:#ff0000;" x="223.598961" xlink:href="#mf49b2c957b" y="252.134849"/>
     <use style="fill:#ff0000;stroke:#ff0000;" x="224.565195" xlink:href="#mf49b2c957b" y="234.267207"/>
     <use style="fill:#ff0000;stroke:#ff0000;" x="225.531429" xlink:href="#mf49b2c957b" y="234.267207"/>
     <use style="fill:#ff0000;stroke:#ff0000;" x="226.497662" xlink:href="#mf49b2c957b" y="219.76071"/>
     <use style="fill:#ff0000;stroke:#ff0000;" x="227.463896" xlink:href="#mf49b2c957b" y="219.76071"/>
     <use style="fill:#ff0000;stroke:#ff0000;" x="228.43013" xlink:href="#mf49b2c957b" y="219.76071"/>
     <use style="fill:#ff0000;stroke:#ff0000;" x="229.396364" xlink:href="#mf49b2c957b" y="219.76071"/>
     <use style="fill:#ff0000;stroke:#ff0000;" x="230.362597" xlink:href="#mf49b2c957b" y="200.728077"/>
     <use style="fill:#ff0000;stroke:#ff0000;" x="231.328831" xlink:href="#mf49b2c957b" y="200.728077"/>
     <use style="fill:#ff0000;stroke:#ff0000;" x="232.295065" xlink:href="#mf49b2c957b" y="186.182608"/>
     <use style="fill:#ff0000;stroke:#ff0000;" x="233.261299" xlink:href="#mf49b2c957b" y="202.511941"/>
     <use style="fill:#ff0000;stroke:#ff0000;" x="234.227532" xlink:href="#mf49b2c957b" y="202.511941"/>
     <use style="fill:#ff0000;stroke:#ff0000;" x="235.193766" xlink:href="#mf49b2c957b" y="217.158741"/>
     <use style="fill:#ff0000;stroke:#ff0000;" x="236.16" xlink:href="#mf49b2c957b" y="217.158741"/>
     <use style="fill:#ff0000;stroke:#ff0000;" x="237.126234" xlink:href="#mf49b2c957b" y="200.32091"/>
     <use style="fill:#ff0000;stroke:#ff0000;" x="238.092468" xlink:href="#mf49b2c957b" y="200.32091"/>
     <use style="fill:#ff0000;stroke:#ff0000;" x="239.058701" xlink:href="#mf49b2c957b" y="213.337922"/>
     <use style="fill:#ff0000;stroke:#ff0000;" x="240.024935" xlink:href="#mf49b2c957b" y="213.337922"/>
     <use style="fill:#ff0000;stroke:#ff0000;" x="240.991169" xlink:href="#mf49b2c957b" y="226.773553"/>
     <use style="fill:#ff0000;stroke:#ff0000;" x="241.957403" xlink:href="#mf49b2c957b" y="240.692065"/>
     <use style="fill:#ff0000;stroke:#ff0000;" x="242.923636" xlink:href="#mf49b2c957b" y="240.692065"/>
     <use style="fill:#ff0000;stroke:#ff0000;" x="243.88987" xlink:href="#mf49b2c957b" y="225.56411"/>
     <use style="fill:#ff0000;stroke:#ff0000;" x="244.856104" xlink:href="#mf49b2c957b" y="225.56411"/>
     <use style="fill:#ff0000;stroke:#ff0000;" x="245.822338" xlink:href="#mf49b2c957b" y="206.49447"/>
     <use style="fill:#ff0000;stroke:#ff0000;" x="246.788571" xlink:href="#mf49b2c957b" y="206.49447"/>
     <use style="fill:#ff0000;stroke:#ff0000;" x="247.754805" xlink:href="#mf49b2c957b" y="188.197349"/>
     <use style="fill:#ff0000;stroke:#ff0000;" x="248.721039" xlink:href="#mf49b2c957b" y="188.197349"/>
     <use style="fill:#ff0000;stroke:#ff0000;" x="249.687273" xlink:href="#mf49b2c957b" y="188.197349"/>
     <use style="fill:#ff0000;stroke:#ff0000;" x="250.653506" xlink:href="#mf49b2c957b" y="186.378614"/>
     <use style="fill:#ff0000;stroke:#ff0000;" x="251.61974" xlink:href="#mf49b2c957b" y="186.378614"/>
     <use style="fill:#ff0000;stroke:#ff0000;" x="252.585974" xlink:href="#mf49b2c957b" y="190.225251"/>
     <use style="fill:#ff0000;stroke:#ff0000;" x="253.552208" xlink:href="#mf49b2c957b" y="190.225251"/>
     <use style="fill:#ff0000;stroke:#ff0000;" x="254.518442" xlink:href="#mf49b2c957b" y="190.225251"/>
     <use style="fill:#ff0000;stroke:#ff0000;" x="255.484675" xlink:href="#mf49b2c957b" y="190.225251"/>
     <use style="fill:#ff0000;stroke:#ff0000;" x="256.450909" xlink:href="#mf49b2c957b" y="190.225251"/>
     <use style="fill:#ff0000;stroke:#ff0000;" x="257.417143" xlink:href="#mf49b2c957b" y="190.225251"/>
     <use style="fill:#ff0000;stroke:#ff0000;" x="258.383377" xlink:href="#mf49b2c957b" y="190.225251"/>
     <use style="fill:#ff0000;stroke:#ff0000;" x="259.34961" xlink:href="#mf49b2c957b" y="190.225251"/>
     <use style="fill:#ff0000;stroke:#ff0000;" x="260.315844" xlink:href="#mf49b2c957b" y="190.225251"/>
     <use style="fill:#ff0000;stroke:#ff0000;" x="261.282078" xlink:href="#mf49b2c957b" y="190.225251"/>
     <use style="fill:#ff0000;stroke:#ff0000;" x="262.248312" xlink:href="#mf49b2c957b" y="190.225251"/>
     <use style="fill:#ff0000;stroke:#ff0000;" x="263.214545" xlink:href="#mf49b2c957b" y="190.225251"/>
     <use style="fill:#ff0000;stroke:#ff0000;" x="264.180779" xlink:href="#mf49b2c957b" y="190.225251"/>
     <use style="fill:#ff0000;stroke:#ff0000;" x="265.147013" xlink:href="#mf49b2c957b" y="190.225251"/>
     <use style="fill:#ff0000;stroke:#ff0000;" x="266.113247" xlink:href="#mf49b2c957b" y="190.225251"/>
     <use style="fill:#ff0000;stroke:#ff0000;" x="267.079481" xlink:href="#mf49b2c957b" y="190.225251"/>
     <use style="fill:#ff0000;stroke:#ff0000;" x="268.045714" xlink:href="#mf49b2c957b" y="190.225251"/>
     <use style="fill:#ff0000;stroke:#ff0000;" x="269.011948" xlink:href="#mf49b2c957b" y="190.225251"/>
     <use style="fill:#ff0000;stroke:#ff0000;" x="269.978182" xlink:href="#mf49b2c957b" y="190.225251"/>
     <use style="fill:#ff0000;stroke:#ff0000;" x="270.944416" xlink:href="#mf49b2c957b" y="190.225251"/>
     <use style="fill:#ff0000;stroke:#ff0000;" x="271.910649" xlink:href="#mf49b2c957b" y="190.225251"/>
     <use style="fill:#ff0000;stroke:#ff0000;" x="272.876883" xlink:href="#mf49b2c957b" y="190.225251"/>
     <use style="fill:#ff0000;stroke:#ff0000;" x="273.843117" xlink:href="#mf49b2c957b" y="190.225251"/>
     <use style="fill:#ff0000;stroke:#ff0000;" x="274.809351" xlink:href="#mf49b2c957b" y="190.225251"/>
     <use style="fill:#ff0000;stroke:#ff0000;" x="275.775584" xlink:href="#mf49b2c957b" y="190.225251"/>
     <use style="fill:#ff0000;stroke:#ff0000;" x="276.741818" xlink:href="#mf49b2c957b" y="190.225251"/>
     <use style="fill:#ff0000;stroke:#ff0000;" x="277.708052" xlink:href="#mf49b2c957b" y="190.225251"/>
     <use style="fill:#ff0000;stroke:#ff0000;" x="278.674286" xlink:href="#mf49b2c957b" y="190.225251"/>
     <use style="fill:#ff0000;stroke:#ff0000;" x="279.640519" xlink:href="#mf49b2c957b" y="190.225251"/>
     <use style="fill:#ff0000;stroke:#ff0000;" x="280.606753" xlink:href="#mf49b2c957b" y="190.225251"/>
     <use style="fill:#ff0000;stroke:#ff0000;" x="281.572987" xlink:href="#mf49b2c957b" y="190.225251"/>
     <use style="fill:#ff0000;stroke:#ff0000;" x="282.539221" xlink:href="#mf49b2c957b" y="190.225251"/>
     <use style="fill:#ff0000;stroke:#ff0000;" x="283.505455" xlink:href="#mf49b2c957b" y="190.225251"/>
     <use style="fill:#ff0000;stroke:#ff0000;" x="284.471688" xlink:href="#mf49b2c957b" y="190.225251"/>
     <use style="fill:#ff0000;stroke:#ff0000;" x="285.437922" xlink:href="#mf49b2c957b" y="190.225251"/>
     <use style="fill:#ff0000;stroke:#ff0000;" x="286.404156" xlink:href="#mf49b2c957b" y="190.225251"/>
     <use style="fill:#ff0000;stroke:#ff0000;" x="287.37039" xlink:href="#mf49b2c957b" y="190.225251"/>
     <use style="fill:#ff0000;stroke:#ff0000;" x="288.336623" xlink:href="#mf49b2c957b" y="190.225251"/>
     <use style="fill:#ff0000;stroke:#ff0000;" x="289.302857" xlink:href="#mf49b2c957b" y="190.225251"/>
     <use style="fill:#ff0000;stroke:#ff0000;" x="290.269091" xlink:href="#mf49b2c957b" y="190.225251"/>
     <use style="fill:#ff0000;stroke:#ff0000;" x="291.235325" xlink:href="#mf49b2c957b" y="190.225251"/>
     <use style="fill:#ff0000;stroke:#ff0000;" x="292.201558" xlink:href="#mf49b2c957b" y="190.225251"/>
     <use style="fill:#ff0000;stroke:#ff0000;" x="293.167792" xlink:href="#mf49b2c957b" y="190.225251"/>
     <use style="fill:#ff0000;stroke:#ff0000;" x="294.134026" xlink:href="#mf49b2c957b" y="190.225251"/>
     <use style="fill:#ff0000;stroke:#ff0000;" x="295.10026" xlink:href="#mf49b2c957b" y="190.225251"/>
     <use style="fill:#ff0000;stroke:#ff0000;" x="296.066494" xlink:href="#mf49b2c957b" y="190.225251"/>
     <use style="fill:#ff0000;stroke:#ff0000;" x="297.032727" xlink:href="#mf49b2c957b" y="190.225251"/>
     <use style="fill:#ff0000;stroke:#ff0000;" x="297.998961" xlink:href="#mf49b2c957b" y="190.225251"/>
     <use style="fill:#ff0000;stroke:#ff0000;" x="298.965195" xlink:href="#mf49b2c957b" y="190.225251"/>
     <use style="fill:#ff0000;stroke:#ff0000;" x="299.931429" xlink:href="#mf49b2c957b" y="190.225251"/>
     <use style="fill:#ff0000;stroke:#ff0000;" x="300.897662" xlink:href="#mf49b2c957b" y="190.225251"/>
     <use style="fill:#ff0000;stroke:#ff0000;" x="301.863896" xlink:href="#mf49b2c957b" y="190.225251"/>
     <use style="fill:#ff0000;stroke:#ff0000;" x="302.83013" xlink:href="#mf49b2c957b" y="190.225251"/>
     <use style="fill:#ff0000;stroke:#ff0000;" x="303.796364" xlink:href="#mf49b2c957b" y="190.225251"/>
     <use style="fill:#ff0000;stroke:#ff0000;" x="304.762597" xlink:href="#mf49b2c957b" y="190.225251"/>
     <use style="fill:#ff0000;stroke:#ff0000;" x="305.728831" xlink:href="#mf49b2c957b" y="190.225251"/>
     <use style="fill:#ff0000;stroke:#ff0000;" x="306.695065" xlink:href="#mf49b2c957b" y="190.225251"/>
     <use style="fill:#ff0000;stroke:#ff0000;" x="307.661299" xlink:href="#mf49b2c957b" y="190.225251"/>
     <use style="fill:#ff0000;stroke:#ff0000;" x="308.627532" xlink:href="#mf49b2c957b" y="190.225251"/>
     <use style="fill:#ff0000;stroke:#ff0000;" x="309.593766" xlink:href="#mf49b2c957b" y="190.225251"/>
     <use style="fill:#ff0000;stroke:#ff0000;" x="310.56" xlink:href="#mf49b2c957b" y="190.225251"/>
     <use style="fill:#ff0000;stroke:#ff0000;" x="311.526234" xlink:href="#mf49b2c957b" y="190.225251"/>
     <use style="fill:#ff0000;stroke:#ff0000;" x="312.492468" xlink:href="#mf49b2c957b" y="190.225251"/>
     <use style="fill:#ff0000;stroke:#ff0000;" x="313.458701" xlink:href="#mf49b2c957b" y="190.225251"/>
     <use style="fill:#ff0000;stroke:#ff0000;" x="314.424935" xlink:href="#mf49b2c957b" y="190.225251"/>
     <use style="fill:#ff0000;stroke:#ff0000;" x="315.391169" xlink:href="#mf49b2c957b" y="190.225251"/>
     <use style="fill:#ff0000;stroke:#ff0000;" x="316.357403" xlink:href="#mf49b2c957b" y="190.225251"/>
     <use style="fill:#ff0000;stroke:#ff0000;" x="317.323636" xlink:href="#mf49b2c957b" y="190.225251"/>
     <use style="fill:#ff0000;stroke:#ff0000;" x="318.28987" xlink:href="#mf49b2c957b" y="190.225251"/>
     <use style="fill:#ff0000;stroke:#ff0000;" x="319.256104" xlink:href="#mf49b2c957b" y="190.225251"/>
     <use style="fill:#ff0000;stroke:#ff0000;" x="320.222338" xlink:href="#mf49b2c957b" y="190.225251"/>
     <use style="fill:#ff0000;stroke:#ff0000;" x="321.188571" xlink:href="#mf49b2c957b" y="190.225251"/>
     <use style="fill:#ff0000;stroke:#ff0000;" x="322.154805" xlink:href="#mf49b2c957b" y="190.225251"/>
     <use style="fill:#ff0000;stroke:#ff0000;" x="323.121039" xlink:href="#mf49b2c957b" y="190.225251"/>
     <use style="fill:#ff0000;stroke:#ff0000;" x="324.087273" xlink:href="#mf49b2c957b" y="190.225251"/>
     <use style="fill:#ff0000;stroke:#ff0000;" x="325.053506" xlink:href="#mf49b2c957b" y="190.225251"/>
     <use style="fill:#ff0000;stroke:#ff0000;" x="326.01974" xlink:href="#mf49b2c957b" y="190.225251"/>
     <use style="fill:#ff0000;stroke:#ff0000;" x="326.985974" xlink:href="#mf49b2c957b" y="190.225251"/>
     <use style="fill:#ff0000;stroke:#ff0000;" x="327.952208" xlink:href="#mf49b2c957b" y="190.225251"/>
     <use style="fill:#ff0000;stroke:#ff0000;" x="328.918442" xlink:href="#mf49b2c957b" y="190.225251"/>
     <use style="fill:#ff0000;stroke:#ff0000;" x="329.884675" xlink:href="#mf49b2c957b" y="190.225251"/>
     <use style="fill:#ff0000;stroke:#ff0000;" x="330.850909" xlink:href="#mf49b2c957b" y="190.225251"/>
     <use style="fill:#ff0000;stroke:#ff0000;" x="331.817143" xlink:href="#mf49b2c957b" y="190.225251"/>
     <use style="fill:#ff0000;stroke:#ff0000;" x="332.783377" xlink:href="#mf49b2c957b" y="190.225251"/>
     <use style="fill:#ff0000;stroke:#ff0000;" x="333.74961" xlink:href="#mf49b2c957b" y="190.225251"/>
     <use style="fill:#ff0000;stroke:#ff0000;" x="334.715844" xlink:href="#mf49b2c957b" y="190.225251"/>
     <use style="fill:#ff0000;stroke:#ff0000;" x="335.682078" xlink:href="#mf49b2c957b" y="190.225251"/>
     <use style="fill:#ff0000;stroke:#ff0000;" x="336.648312" xlink:href="#mf49b2c957b" y="190.225251"/>
     <use style="fill:#ff0000;stroke:#ff0000;" x="337.614545" xlink:href="#mf49b2c957b" y="190.225251"/>
     <use style="fill:#ff0000;stroke:#ff0000;" x="338.580779" xlink:href="#mf49b2c957b" y="190.225251"/>
     <use style="fill:#ff0000;stroke:#ff0000;" x="339.547013" xlink:href="#mf49b2c957b" y="190.225251"/>
     <use style="fill:#ff0000;stroke:#ff0000;" x="340.513247" xlink:href="#mf49b2c957b" y="190.225251"/>
     <use style="fill:#ff0000;stroke:#ff0000;" x="341.479481" xlink:href="#mf49b2c957b" y="190.225251"/>
     <use style="fill:#ff0000;stroke:#ff0000;" x="342.445714" xlink:href="#mf49b2c957b" y="190.225251"/>
     <use style="fill:#ff0000;stroke:#ff0000;" x="343.411948" xlink:href="#mf49b2c957b" y="190.225251"/>
     <use style="fill:#ff0000;stroke:#ff0000;" x="344.378182" xlink:href="#mf49b2c957b" y="190.225251"/>
     <use style="fill:#ff0000;stroke:#ff0000;" x="345.344416" xlink:href="#mf49b2c957b" y="190.225251"/>
     <use style="fill:#ff0000;stroke:#ff0000;" x="346.310649" xlink:href="#mf49b2c957b" y="190.225251"/>
     <use style="fill:#ff0000;stroke:#ff0000;" x="347.276883" xlink:href="#mf49b2c957b" y="190.225251"/>
     <use style="fill:#ff0000;stroke:#ff0000;" x="348.243117" xlink:href="#mf49b2c957b" y="190.225251"/>
     <use style="fill:#ff0000;stroke:#ff0000;" x="349.209351" xlink:href="#mf49b2c957b" y="190.225251"/>
     <use style="fill:#ff0000;stroke:#ff0000;" x="350.175584" xlink:href="#mf49b2c957b" y="190.225251"/>
     <use style="fill:#ff0000;stroke:#ff0000;" x="351.141818" xlink:href="#mf49b2c957b" y="190.225251"/>
     <use style="fill:#ff0000;stroke:#ff0000;" x="352.108052" xlink:href="#mf49b2c957b" y="190.225251"/>
     <use style="fill:#ff0000;stroke:#ff0000;" x="353.074286" xlink:href="#mf49b2c957b" y="190.225251"/>
     <use style="fill:#ff0000;stroke:#ff0000;" x="354.040519" xlink:href="#mf49b2c957b" y="190.225251"/>
     <use style="fill:#ff0000;stroke:#ff0000;" x="355.006753" xlink:href="#mf49b2c957b" y="190.225251"/>
     <use style="fill:#ff0000;stroke:#ff0000;" x="355.972987" xlink:href="#mf49b2c957b" y="190.225251"/>
     <use style="fill:#ff0000;stroke:#ff0000;" x="356.939221" xlink:href="#mf49b2c957b" y="190.225251"/>
     <use style="fill:#ff0000;stroke:#ff0000;" x="357.905455" xlink:href="#mf49b2c957b" y="190.225251"/>
     <use style="fill:#ff0000;stroke:#ff0000;" x="358.871688" xlink:href="#mf49b2c957b" y="190.225251"/>
     <use style="fill:#ff0000;stroke:#ff0000;" x="359.837922" xlink:href="#mf49b2c957b" y="190.225251"/>
     <use style="fill:#ff0000;stroke:#ff0000;" x="360.804156" xlink:href="#mf49b2c957b" y="190.225251"/>
     <use style="fill:#ff0000;stroke:#ff0000;" x="361.77039" xlink:href="#mf49b2c957b" y="190.225251"/>
     <use style="fill:#ff0000;stroke:#ff0000;" x="362.736623" xlink:href="#mf49b2c957b" y="190.225251"/>
     <use style="fill:#ff0000;stroke:#ff0000;" x="363.702857" xlink:href="#mf49b2c957b" y="190.225251"/>
     <use style="fill:#ff0000;stroke:#ff0000;" x="364.669091" xlink:href="#mf49b2c957b" y="190.225251"/>
     <use style="fill:#ff0000;stroke:#ff0000;" x="365.635325" xlink:href="#mf49b2c957b" y="190.225251"/>
     <use style="fill:#ff0000;stroke:#ff0000;" x="366.601558" xlink:href="#mf49b2c957b" y="190.225251"/>
     <use style="fill:#ff0000;stroke:#ff0000;" x="367.567792" xlink:href="#mf49b2c957b" y="190.225251"/>
     <use style="fill:#ff0000;stroke:#ff0000;" x="368.534026" xlink:href="#mf49b2c957b" y="190.225251"/>
     <use style="fill:#ff0000;stroke:#ff0000;" x="369.50026" xlink:href="#mf49b2c957b" y="190.225251"/>
     <use style="fill:#ff0000;stroke:#ff0000;" x="370.466494" xlink:href="#mf49b2c957b" y="190.225251"/>
     <use style="fill:#ff0000;stroke:#ff0000;" x="371.432727" xlink:href="#mf49b2c957b" y="190.225251"/>
     <use style="fill:#ff0000;stroke:#ff0000;" x="372.398961" xlink:href="#mf49b2c957b" y="190.225251"/>
     <use style="fill:#ff0000;stroke:#ff0000;" x="373.365195" xlink:href="#mf49b2c957b" y="190.225251"/>
     <use style="fill:#ff0000;stroke:#ff0000;" x="374.331429" xlink:href="#mf49b2c957b" y="190.225251"/>
     <use style="fill:#ff0000;stroke:#ff0000;" x="375.297662" xlink:href="#mf49b2c957b" y="190.225251"/>
     <use style="fill:#ff0000;stroke:#ff0000;" x="376.263896" xlink:href="#mf49b2c957b" y="190.225251"/>
     <use style="fill:#ff0000;stroke:#ff0000;" x="377.23013" xlink:href="#mf49b2c957b" y="190.225251"/>
     <use style="fill:#ff0000;stroke:#ff0000;" x="378.196364" xlink:href="#mf49b2c957b" y="190.225251"/>
     <use style="fill:#ff0000;stroke:#ff0000;" x="379.162597" xlink:href="#mf49b2c957b" y="190.225251"/>
     <use style="fill:#ff0000;stroke:#ff0000;" x="380.128831" xlink:href="#mf49b2c957b" y="190.225251"/>
     <use style="fill:#ff0000;stroke:#ff0000;" x="381.095065" xlink:href="#mf49b2c957b" y="190.225251"/>
     <use style="fill:#ff0000;stroke:#ff0000;" x="382.061299" xlink:href="#mf49b2c957b" y="190.225251"/>
     <use style="fill:#ff0000;stroke:#ff0000;" x="383.027532" xlink:href="#mf49b2c957b" y="190.225251"/>
     <use style="fill:#ff0000;stroke:#ff0000;" x="383.993766" xlink:href="#mf49b2c957b" y="190.225251"/>
     <use style="fill:#ff0000;stroke:#ff0000;" x="384.96" xlink:href="#mf49b2c957b" y="190.225251"/>
     <use style="fill:#ff0000;stroke:#ff0000;" x="385.926234" xlink:href="#mf49b2c957b" y="190.225251"/>
     <use style="fill:#ff0000;stroke:#ff0000;" x="386.892468" xlink:href="#mf49b2c957b" y="190.225251"/>
     <use style="fill:#ff0000;stroke:#ff0000;" x="387.858701" xlink:href="#mf49b2c957b" y="190.225251"/>
     <use style="fill:#ff0000;stroke:#ff0000;" x="388.824935" xlink:href="#mf49b2c957b" y="190.225251"/>
     <use style="fill:#ff0000;stroke:#ff0000;" x="389.791169" xlink:href="#mf49b2c957b" y="190.225251"/>
     <use style="fill:#ff0000;stroke:#ff0000;" x="390.757403" xlink:href="#mf49b2c957b" y="190.225251"/>
     <use style="fill:#ff0000;stroke:#ff0000;" x="391.723636" xlink:href="#mf49b2c957b" y="190.225251"/>
     <use style="fill:#ff0000;stroke:#ff0000;" x="392.68987" xlink:href="#mf49b2c957b" y="190.225251"/>
     <use style="fill:#ff0000;stroke:#ff0000;" x="393.656104" xlink:href="#mf49b2c957b" y="190.225251"/>
     <use style="fill:#ff0000;stroke:#ff0000;" x="394.622338" xlink:href="#mf49b2c957b" y="190.225251"/>
     <use style="fill:#ff0000;stroke:#ff0000;" x="395.588571" xlink:href="#mf49b2c957b" y="190.225251"/>
     <use style="fill:#ff0000;stroke:#ff0000;" x="396.554805" xlink:href="#mf49b2c957b" y="190.225251"/>
     <use style="fill:#ff0000;stroke:#ff0000;" x="397.521039" xlink:href="#mf49b2c957b" y="190.225251"/>
     <use style="fill:#ff0000;stroke:#ff0000;" x="398.487273" xlink:href="#mf49b2c957b" y="190.225251"/>
    </g>
   </g>
   <g id="patch_3">
    <path d="M 57.6 307.584 
L 57.6 41.472 
" style="fill:none;stroke:#000000;stroke-linecap:square;stroke-linejoin:miter;stroke-width:0.8;"/>
   </g>
   <g id="patch_4">
    <path d="M 414.72 307.584 
L 414.72 41.472 
" style="fill:none;stroke:#000000;stroke-linecap:square;stroke-linejoin:miter;stroke-width:0.8;"/>
   </g>
   <g id="patch_5">
    <path d="M 57.6 307.584 
L 414.72 307.584 
" style="fill:none;stroke:#000000;stroke-linecap:square;stroke-linejoin:miter;stroke-width:0.8;"/>
   </g>
   <g id="patch_6">
    <path d="M 57.6 41.472 
L 414.72 41.472 
" style="fill:none;stroke:#000000;stroke-linecap:square;stroke-linejoin:miter;stroke-width:0.8;"/>
   </g>
  </g>
 </g>
 <defs>
  <clipPath id="p7b369f7cb8">
   <rect height="266.112" width="357.12" x="57.6" y="41.472"/>
  </clipPath>
 </defs>
</svg>
