<?xml version="1.0" encoding="utf-8" standalone="no"?>
<!DOCTYPE svg PUBLIC "-//W3C//DTD SVG 1.1//EN"
  "http://www.w3.org/Graphics/SVG/1.1/DTD/svg11.dtd">
<!-- Created with matplotlib (https://matplotlib.org/) -->
<svg height="345.6pt" version="1.1" viewBox="0 0 460.8 345.6" width="460.8pt" xmlns="http://www.w3.org/2000/svg" xmlns:xlink="http://www.w3.org/1999/xlink">
 <defs>
  <style type="text/css">
*{stroke-linecap:butt;stroke-linejoin:round;}
  </style>
 </defs>
 <g id="figure_1">
  <g id="patch_1">
   <path d="M 0 345.6 
L 460.8 345.6 
L 460.8 0 
L 0 0 
z
" style="fill:#ffffff;"/>
  </g>
  <g id="axes_1">
   <g id="patch_2">
    <path d="M 57.6 307.584 
L 414.72 307.584 
L 414.72 41.472 
L 57.6 41.472 
z
" style="fill:#ffffff;"/>
   </g>
   <g id="line2d_1">
    <path clip-path="url(#p79025bc91a)" d="M 73.832727 53.568 
L 81.834776 53.568 
L 82.977926 101.063417 
L 84.121076 101.063417 
L 85.264225 147.775714 
L 87.550525 147.775714 
L 88.693675 146.879693 
L 90.979974 146.879693 
L 92.123124 145.022402 
L 93.266274 157.586093 
L 95.552574 157.586093 
L 96.695723 207.838167 
L 97.838873 196.69471 
L 100.125173 196.69471 
L 101.268323 239.715635 
L 105.840922 239.715635 
L 106.984072 281.656895 
L 108.127222 263.405448 
L 113.842971 263.405448 
L 114.98612 245.813719 
L 116.12927 245.813719 
L 118.41557 211.512397 
L 119.55872 211.512397 
L 120.701869 195.04995 
L 121.845019 195.04995 
L 122.988169 209.689803 
L 124.131319 209.689803 
L 125.274469 225.848084 
L 126.417618 225.848084 
L 127.560768 208.92938 
L 128.703918 208.92938 
L 129.847068 222.458908 
L 130.990218 222.458908 
L 132.133367 237.157983 
L 133.276517 239.390035 
L 134.419667 239.390035 
L 135.562817 235.001354 
L 136.705967 235.001354 
L 137.849117 250.065956 
L 138.992266 250.065956 
L 140.135416 244.747099 
L 141.278566 245.015556 
L 143.564866 245.015556 
L 144.708015 226.834067 
L 145.851165 226.834067 
L 146.994315 240.073342 
L 151.566914 240.029087 
L 152.710064 255.371142 
L 153.853214 255.371142 
L 154.996364 269.163983 
L 156.139513 269.163983 
L 157.282663 263.234125 
L 159.568963 263.234125 
L 160.712113 245.144424 
L 161.855262 245.144424 
L 162.998412 258.425374 
L 164.141562 258.425374 
L 166.427862 226.391455 
L 171.000461 226.391455 
L 172.143611 240.400229 
L 173.286761 224.133345 
L 174.42991 224.133345 
L 175.57306 225.052088 
L 177.85936 225.052088 
L 179.00251 239.458203 
L 180.145659 239.458203 
L 181.288809 240.790597 
L 183.575109 240.790597 
L 184.718259 254.360038 
L 185.861408 254.360038 
L 187.004558 253.322156 
L 188.147708 266.76143 
L 189.290858 266.76143 
L 190.434008 281.876975 
L 191.577157 281.876975 
L 192.720307 295.488 
L 195.006607 295.488 
L 197.292907 257.804974 
L 198.436056 257.804974 
L 199.579206 239.173959 
L 211.010704 239.173959 
L 212.153854 252.437472 
L 213.297004 234.886569 
L 215.583303 234.886569 
L 216.726453 249.718971 
L 217.869603 249.718971 
L 219.012753 244.408267 
L 220.155903 244.408267 
L 221.299052 239.47313 
L 222.442202 251.590201 
L 223.585352 251.590201 
L 224.728502 266.000056 
L 225.871652 266.000056 
L 227.014802 263.313982 
L 229.301101 263.313982 
L 230.444251 245.075523 
L 231.587401 245.075523 
L 232.730551 228.081406 
L 233.8737 228.081406 
L 235.01685 242.242633 
L 236.16 242.242633 
L 237.30315 227.094497 
L 238.4463 227.094497 
L 239.589449 222.179012 
L 240.732599 221.526242 
L 241.875749 221.526242 
L 243.018899 220.429066 
L 244.162049 220.429066 
L 245.305198 221.497678 
L 246.448348 238.440223 
L 247.591498 238.440223 
L 248.734648 239.369752 
L 249.877798 239.369752 
L 251.020948 252.134849 
L 252.164097 234.267207 
L 253.307247 234.267207 
L 254.450397 219.76071 
L 257.879846 219.76071 
L 259.022996 200.728077 
L 260.166146 200.728077 
L 261.309296 186.182608 
L 262.452446 202.511941 
L 263.595595 202.511941 
L 264.738745 217.158741 
L 265.881895 217.158741 
L 267.025045 200.32091 
L 268.168195 200.32091 
L 269.311344 213.337922 
L 270.454494 213.337922 
L 272.740794 240.692065 
L 273.883944 240.692065 
L 275.027093 225.56411 
L 276.170243 225.56411 
L 277.313393 206.49447 
L 278.456543 206.49447 
L 279.599693 188.197349 
L 281.885992 188.197349 
L 283.029142 186.378614 
L 284.172292 186.378614 
L 285.315442 190.225251 
L 398.487273 190.225251 
L 398.487273 190.225251 
" style="fill:none;stroke:#ff0000;stroke-linecap:square;stroke-width:12;"/>
    <defs>
     <path d="M 0 3 
C 0.795609 3 1.55874 2.683901 2.12132 2.12132 
C 2.683901 1.55874 3 0.795609 3 0 
C 3 -0.795609 2.683901 -1.55874 2.12132 -2.12132 
C 1.55874 -2.683901 0.795609 -3 0 -3 
C -0.795609 -3 -1.55874 -2.683901 -2.12132 -2.12132 
C -2.683901 -1.55874 -3 -0.795609 -3 0 
C -3 0.795609 -2.683901 1.55874 -2.12132 2.12132 
C -1.55874 2.683901 -0.795609 3 0 3 
z
" id="m5783a6adb7" style="stroke:#ff0000;"/>
    </defs>
    <g clip-path="url(#p79025bc91a)">
     <use style="fill:#ff0000;stroke:#ff0000;" x="73.832727" xlink:href="#m5783a6adb7" y="53.568"/>
     <use style="fill:#ff0000;stroke:#ff0000;" x="74.975877" xlink:href="#m5783a6adb7" y="53.568"/>
     <use style="fill:#ff0000;stroke:#ff0000;" x="76.119027" xlink:href="#m5783a6adb7" y="53.568"/>
     <use style="fill:#ff0000;stroke:#ff0000;" x="77.262177" xlink:href="#m5783a6adb7" y="53.568"/>
     <use style="fill:#ff0000;stroke:#ff0000;" x="78.405327" xlink:href="#m5783a6adb7" y="53.568"/>
     <use style="fill:#ff0000;stroke:#ff0000;" x="79.548476" xlink:href="#m5783a6adb7" y="53.568"/>
     <use style="fill:#ff0000;stroke:#ff0000;" x="80.691626" xlink:href="#m5783a6adb7" y="53.568"/>
     <use style="fill:#ff0000;stroke:#ff0000;" x="81.834776" xlink:href="#m5783a6adb7" y="53.568"/>
     <use style="fill:#ff0000;stroke:#ff0000;" x="82.977926" xlink:href="#m5783a6adb7" y="101.063417"/>
     <use style="fill:#ff0000;stroke:#ff0000;" x="84.121076" xlink:href="#m5783a6adb7" y="101.063417"/>
     <use style="fill:#ff0000;stroke:#ff0000;" x="85.264225" xlink:href="#m5783a6adb7" y="147.775714"/>
     <use style="fill:#ff0000;stroke:#ff0000;" x="86.407375" xlink:href="#m5783a6adb7" y="147.775714"/>
     <use style="fill:#ff0000;stroke:#ff0000;" x="87.550525" xlink:href="#m5783a6adb7" y="147.775714"/>
     <use style="fill:#ff0000;stroke:#ff0000;" x="88.693675" xlink:href="#m5783a6adb7" y="146.879693"/>
     <use style="fill:#ff0000;stroke:#ff0000;" x="89.836825" xlink:href="#m5783a6adb7" y="146.879693"/>
     <use style="fill:#ff0000;stroke:#ff0000;" x="90.979974" xlink:href="#m5783a6adb7" y="146.879693"/>
     <use style="fill:#ff0000;stroke:#ff0000;" x="92.123124" xlink:href="#m5783a6adb7" y="145.022402"/>
     <use style="fill:#ff0000;stroke:#ff0000;" x="93.266274" xlink:href="#m5783a6adb7" y="157.586093"/>
     <use style="fill:#ff0000;stroke:#ff0000;" x="94.409424" xlink:href="#m5783a6adb7" y="157.586093"/>
     <use style="fill:#ff0000;stroke:#ff0000;" x="95.552574" xlink:href="#m5783a6adb7" y="157.586093"/>
     <use style="fill:#ff0000;stroke:#ff0000;" x="96.695723" xlink:href="#m5783a6adb7" y="207.838167"/>
     <use style="fill:#ff0000;stroke:#ff0000;" x="97.838873" xlink:href="#m5783a6adb7" y="196.69471"/>
     <use style="fill:#ff0000;stroke:#ff0000;" x="98.982023" xlink:href="#m5783a6adb7" y="196.69471"/>
     <use style="fill:#ff0000;stroke:#ff0000;" x="100.125173" xlink:href="#m5783a6adb7" y="196.69471"/>
     <use style="fill:#ff0000;stroke:#ff0000;" x="101.268323" xlink:href="#m5783a6adb7" y="239.715635"/>
     <use style="fill:#ff0000;stroke:#ff0000;" x="102.411472" xlink:href="#m5783a6adb7" y="239.715635"/>
     <use style="fill:#ff0000;stroke:#ff0000;" x="103.554622" xlink:href="#m5783a6adb7" y="239.715635"/>
     <use style="fill:#ff0000;stroke:#ff0000;" x="104.697772" xlink:href="#m5783a6adb7" y="239.715635"/>
     <use style="fill:#ff0000;stroke:#ff0000;" x="105.840922" xlink:href="#m5783a6adb7" y="239.715635"/>
     <use style="fill:#ff0000;stroke:#ff0000;" x="106.984072" xlink:href="#m5783a6adb7" y="281.656895"/>
     <use style="fill:#ff0000;stroke:#ff0000;" x="108.127222" xlink:href="#m5783a6adb7" y="263.405448"/>
     <use style="fill:#ff0000;stroke:#ff0000;" x="109.270371" xlink:href="#m5783a6adb7" y="263.405448"/>
     <use style="fill:#ff0000;stroke:#ff0000;" x="110.413521" xlink:href="#m5783a6adb7" y="263.405448"/>
     <use style="fill:#ff0000;stroke:#ff0000;" x="111.556671" xlink:href="#m5783a6adb7" y="263.405448"/>
     <use style="fill:#ff0000;stroke:#ff0000;" x="112.699821" xlink:href="#m5783a6adb7" y="263.405448"/>
     <use style="fill:#ff0000;stroke:#ff0000;" x="113.842971" xlink:href="#m5783a6adb7" y="263.405448"/>
     <use style="fill:#ff0000;stroke:#ff0000;" x="114.98612" xlink:href="#m5783a6adb7" y="245.813719"/>
     <use style="fill:#ff0000;stroke:#ff0000;" x="116.12927" xlink:href="#m5783a6adb7" y="245.813719"/>
     <use style="fill:#ff0000;stroke:#ff0000;" x="117.27242" xlink:href="#m5783a6adb7" y="228.346107"/>
     <use style="fill:#ff0000;stroke:#ff0000;" x="118.41557" xlink:href="#m5783a6adb7" y="211.512397"/>
     <use style="fill:#ff0000;stroke:#ff0000;" x="119.55872" xlink:href="#m5783a6adb7" y="211.512397"/>
     <use style="fill:#ff0000;stroke:#ff0000;" x="120.701869" xlink:href="#m5783a6adb7" y="195.04995"/>
     <use style="fill:#ff0000;stroke:#ff0000;" x="121.845019" xlink:href="#m5783a6adb7" y="195.04995"/>
     <use style="fill:#ff0000;stroke:#ff0000;" x="122.988169" xlink:href="#m5783a6adb7" y="209.689803"/>
     <use style="fill:#ff0000;stroke:#ff0000;" x="124.131319" xlink:href="#m5783a6adb7" y="209.689803"/>
     <use style="fill:#ff0000;stroke:#ff0000;" x="125.274469" xlink:href="#m5783a6adb7" y="225.848084"/>
     <use style="fill:#ff0000;stroke:#ff0000;" x="126.417618" xlink:href="#m5783a6adb7" y="225.848084"/>
     <use style="fill:#ff0000;stroke:#ff0000;" x="127.560768" xlink:href="#m5783a6adb7" y="208.92938"/>
     <use style="fill:#ff0000;stroke:#ff0000;" x="128.703918" xlink:href="#m5783a6adb7" y="208.92938"/>
     <use style="fill:#ff0000;stroke:#ff0000;" x="129.847068" xlink:href="#m5783a6adb7" y="222.458908"/>
     <use style="fill:#ff0000;stroke:#ff0000;" x="130.990218" xlink:href="#m5783a6adb7" y="222.458908"/>
     <use style="fill:#ff0000;stroke:#ff0000;" x="132.133367" xlink:href="#m5783a6adb7" y="237.157983"/>
     <use style="fill:#ff0000;stroke:#ff0000;" x="133.276517" xlink:href="#m5783a6adb7" y="239.390035"/>
     <use style="fill:#ff0000;stroke:#ff0000;" x="134.419667" xlink:href="#m5783a6adb7" y="239.390035"/>
     <use style="fill:#ff0000;stroke:#ff0000;" x="135.562817" xlink:href="#m5783a6adb7" y="235.001354"/>
     <use style="fill:#ff0000;stroke:#ff0000;" x="136.705967" xlink:href="#m5783a6adb7" y="235.001354"/>
     <use style="fill:#ff0000;stroke:#ff0000;" x="137.849117" xlink:href="#m5783a6adb7" y="250.065956"/>
     <use style="fill:#ff0000;stroke:#ff0000;" x="138.992266" xlink:href="#m5783a6adb7" y="250.065956"/>
     <use style="fill:#ff0000;stroke:#ff0000;" x="140.135416" xlink:href="#m5783a6adb7" y="244.747099"/>
     <use style="fill:#ff0000;stroke:#ff0000;" x="141.278566" xlink:href="#m5783a6adb7" y="245.015556"/>
     <use style="fill:#ff0000;stroke:#ff0000;" x="142.421716" xlink:href="#m5783a6adb7" y="245.015556"/>
     <use style="fill:#ff0000;stroke:#ff0000;" x="143.564866" xlink:href="#m5783a6adb7" y="245.015556"/>
     <use style="fill:#ff0000;stroke:#ff0000;" x="144.708015" xlink:href="#m5783a6adb7" y="226.834067"/>
     <use style="fill:#ff0000;stroke:#ff0000;" x="145.851165" xlink:href="#m5783a6adb7" y="226.834067"/>
     <use style="fill:#ff0000;stroke:#ff0000;" x="146.994315" xlink:href="#m5783a6adb7" y="240.073342"/>
     <use style="fill:#ff0000;stroke:#ff0000;" x="148.137465" xlink:href="#m5783a6adb7" y="240.073342"/>
     <use style="fill:#ff0000;stroke:#ff0000;" x="149.280615" xlink:href="#m5783a6adb7" y="240.029087"/>
     <use style="fill:#ff0000;stroke:#ff0000;" x="150.423764" xlink:href="#m5783a6adb7" y="240.029087"/>
     <use style="fill:#ff0000;stroke:#ff0000;" x="151.566914" xlink:href="#m5783a6adb7" y="240.029087"/>
     <use style="fill:#ff0000;stroke:#ff0000;" x="152.710064" xlink:href="#m5783a6adb7" y="255.371142"/>
     <use style="fill:#ff0000;stroke:#ff0000;" x="153.853214" xlink:href="#m5783a6adb7" y="255.371142"/>
     <use style="fill:#ff0000;stroke:#ff0000;" x="154.996364" xlink:href="#m5783a6adb7" y="269.163983"/>
     <use style="fill:#ff0000;stroke:#ff0000;" x="156.139513" xlink:href="#m5783a6adb7" y="269.163983"/>
     <use style="fill:#ff0000;stroke:#ff0000;" x="157.282663" xlink:href="#m5783a6adb7" y="263.234125"/>
     <use style="fill:#ff0000;stroke:#ff0000;" x="158.425813" xlink:href="#m5783a6adb7" y="263.234125"/>
     <use style="fill:#ff0000;stroke:#ff0000;" x="159.568963" xlink:href="#m5783a6adb7" y="263.234125"/>
     <use style="fill:#ff0000;stroke:#ff0000;" x="160.712113" xlink:href="#m5783a6adb7" y="245.144424"/>
     <use style="fill:#ff0000;stroke:#ff0000;" x="161.855262" xlink:href="#m5783a6adb7" y="245.144424"/>
     <use style="fill:#ff0000;stroke:#ff0000;" x="162.998412" xlink:href="#m5783a6adb7" y="258.425374"/>
     <use style="fill:#ff0000;stroke:#ff0000;" x="164.141562" xlink:href="#m5783a6adb7" y="258.425374"/>
     <use style="fill:#ff0000;stroke:#ff0000;" x="165.284712" xlink:href="#m5783a6adb7" y="242.872377"/>
     <use style="fill:#ff0000;stroke:#ff0000;" x="166.427862" xlink:href="#m5783a6adb7" y="226.391455"/>
     <use style="fill:#ff0000;stroke:#ff0000;" x="167.571012" xlink:href="#m5783a6adb7" y="226.391455"/>
     <use style="fill:#ff0000;stroke:#ff0000;" x="168.714161" xlink:href="#m5783a6adb7" y="226.391455"/>
     <use style="fill:#ff0000;stroke:#ff0000;" x="169.857311" xlink:href="#m5783a6adb7" y="226.391455"/>
     <use style="fill:#ff0000;stroke:#ff0000;" x="171.000461" xlink:href="#m5783a6adb7" y="226.391455"/>
     <use style="fill:#ff0000;stroke:#ff0000;" x="172.143611" xlink:href="#m5783a6adb7" y="240.400229"/>
     <use style="fill:#ff0000;stroke:#ff0000;" x="173.286761" xlink:href="#m5783a6adb7" y="224.133345"/>
     <use style="fill:#ff0000;stroke:#ff0000;" x="174.42991" xlink:href="#m5783a6adb7" y="224.133345"/>
     <use style="fill:#ff0000;stroke:#ff0000;" x="175.57306" xlink:href="#m5783a6adb7" y="225.052088"/>
     <use style="fill:#ff0000;stroke:#ff0000;" x="176.71621" xlink:href="#m5783a6adb7" y="225.052088"/>
     <use style="fill:#ff0000;stroke:#ff0000;" x="177.85936" xlink:href="#m5783a6adb7" y="225.052088"/>
     <use style="fill:#ff0000;stroke:#ff0000;" x="179.00251" xlink:href="#m5783a6adb7" y="239.458203"/>
     <use style="fill:#ff0000;stroke:#ff0000;" x="180.145659" xlink:href="#m5783a6adb7" y="239.458203"/>
     <use style="fill:#ff0000;stroke:#ff0000;" x="181.288809" xlink:href="#m5783a6adb7" y="240.790597"/>
     <use style="fill:#ff0000;stroke:#ff0000;" x="182.431959" xlink:href="#m5783a6adb7" y="240.790597"/>
     <use style="fill:#ff0000;stroke:#ff0000;" x="183.575109" xlink:href="#m5783a6adb7" y="240.790597"/>
     <use style="fill:#ff0000;stroke:#ff0000;" x="184.718259" xlink:href="#m5783a6adb7" y="254.360038"/>
     <use style="fill:#ff0000;stroke:#ff0000;" x="185.861408" xlink:href="#m5783a6adb7" y="254.360038"/>
     <use style="fill:#ff0000;stroke:#ff0000;" x="187.004558" xlink:href="#m5783a6adb7" y="253.322156"/>
     <use style="fill:#ff0000;stroke:#ff0000;" x="188.147708" xlink:href="#m5783a6adb7" y="266.76143"/>
     <use style="fill:#ff0000;stroke:#ff0000;" x="189.290858" xlink:href="#m5783a6adb7" y="266.76143"/>
     <use style="fill:#ff0000;stroke:#ff0000;" x="190.434008" xlink:href="#m5783a6adb7" y="281.876975"/>
     <use style="fill:#ff0000;stroke:#ff0000;" x="191.577157" xlink:href="#m5783a6adb7" y="281.876975"/>
     <use style="fill:#ff0000;stroke:#ff0000;" x="192.720307" xlink:href="#m5783a6adb7" y="295.488"/>
     <use style="fill:#ff0000;stroke:#ff0000;" x="193.863457" xlink:href="#m5783a6adb7" y="295.488"/>
     <use style="fill:#ff0000;stroke:#ff0000;" x="195.006607" xlink:href="#m5783a6adb7" y="295.488"/>
     <use style="fill:#ff0000;stroke:#ff0000;" x="196.149757" xlink:href="#m5783a6adb7" y="276.556852"/>
     <use style="fill:#ff0000;stroke:#ff0000;" x="197.292907" xlink:href="#m5783a6adb7" y="257.804974"/>
     <use style="fill:#ff0000;stroke:#ff0000;" x="198.436056" xlink:href="#m5783a6adb7" y="257.804974"/>
     <use style="fill:#ff0000;stroke:#ff0000;" x="199.579206" xlink:href="#m5783a6adb7" y="239.173959"/>
     <use style="fill:#ff0000;stroke:#ff0000;" x="200.722356" xlink:href="#m5783a6adb7" y="239.173959"/>
     <use style="fill:#ff0000;stroke:#ff0000;" x="201.865506" xlink:href="#m5783a6adb7" y="239.173959"/>
     <use style="fill:#ff0000;stroke:#ff0000;" x="203.008656" xlink:href="#m5783a6adb7" y="239.173959"/>
     <use style="fill:#ff0000;stroke:#ff0000;" x="204.151805" xlink:href="#m5783a6adb7" y="239.173959"/>
     <use style="fill:#ff0000;stroke:#ff0000;" x="205.294955" xlink:href="#m5783a6adb7" y="239.173959"/>
     <use style="fill:#ff0000;stroke:#ff0000;" x="206.438105" xlink:href="#m5783a6adb7" y="239.173959"/>
     <use style="fill:#ff0000;stroke:#ff0000;" x="207.581255" xlink:href="#m5783a6adb7" y="239.173959"/>
     <use style="fill:#ff0000;stroke:#ff0000;" x="208.724405" xlink:href="#m5783a6adb7" y="239.173959"/>
     <use style="fill:#ff0000;stroke:#ff0000;" x="209.867554" xlink:href="#m5783a6adb7" y="239.173959"/>
     <use style="fill:#ff0000;stroke:#ff0000;" x="211.010704" xlink:href="#m5783a6adb7" y="239.173959"/>
     <use style="fill:#ff0000;stroke:#ff0000;" x="212.153854" xlink:href="#m5783a6adb7" y="252.437472"/>
     <use style="fill:#ff0000;stroke:#ff0000;" x="213.297004" xlink:href="#m5783a6adb7" y="234.886569"/>
     <use style="fill:#ff0000;stroke:#ff0000;" x="214.440154" xlink:href="#m5783a6adb7" y="234.886569"/>
     <use style="fill:#ff0000;stroke:#ff0000;" x="215.583303" xlink:href="#m5783a6adb7" y="234.886569"/>
     <use style="fill:#ff0000;stroke:#ff0000;" x="216.726453" xlink:href="#m5783a6adb7" y="249.718971"/>
     <use style="fill:#ff0000;stroke:#ff0000;" x="217.869603" xlink:href="#m5783a6adb7" y="249.718971"/>
     <use style="fill:#ff0000;stroke:#ff0000;" x="219.012753" xlink:href="#m5783a6adb7" y="244.408267"/>
     <use style="fill:#ff0000;stroke:#ff0000;" x="220.155903" xlink:href="#m5783a6adb7" y="244.408267"/>
     <use style="fill:#ff0000;stroke:#ff0000;" x="221.299052" xlink:href="#m5783a6adb7" y="239.47313"/>
     <use style="fill:#ff0000;stroke:#ff0000;" x="222.442202" xlink:href="#m5783a6adb7" y="251.590201"/>
     <use style="fill:#ff0000;stroke:#ff0000;" x="223.585352" xlink:href="#m5783a6adb7" y="251.590201"/>
     <use style="fill:#ff0000;stroke:#ff0000;" x="224.728502" xlink:href="#m5783a6adb7" y="266.000056"/>
     <use style="fill:#ff0000;stroke:#ff0000;" x="225.871652" xlink:href="#m5783a6adb7" y="266.000056"/>
     <use style="fill:#ff0000;stroke:#ff0000;" x="227.014802" xlink:href="#m5783a6adb7" y="263.313982"/>
     <use style="fill:#ff0000;stroke:#ff0000;" x="228.157951" xlink:href="#m5783a6adb7" y="263.313982"/>
     <use style="fill:#ff0000;stroke:#ff0000;" x="229.301101" xlink:href="#m5783a6adb7" y="263.313982"/>
     <use style="fill:#ff0000;stroke:#ff0000;" x="230.444251" xlink:href="#m5783a6adb7" y="245.075523"/>
     <use style="fill:#ff0000;stroke:#ff0000;" x="231.587401" xlink:href="#m5783a6adb7" y="245.075523"/>
     <use style="fill:#ff0000;stroke:#ff0000;" x="232.730551" xlink:href="#m5783a6adb7" y="228.081406"/>
     <use style="fill:#ff0000;stroke:#ff0000;" x="233.8737" xlink:href="#m5783a6adb7" y="228.081406"/>
     <use style="fill:#ff0000;stroke:#ff0000;" x="235.01685" xlink:href="#m5783a6adb7" y="242.242633"/>
     <use style="fill:#ff0000;stroke:#ff0000;" x="236.16" xlink:href="#m5783a6adb7" y="242.242633"/>
     <use style="fill:#ff0000;stroke:#ff0000;" x="237.30315" xlink:href="#m5783a6adb7" y="227.094497"/>
     <use style="fill:#ff0000;stroke:#ff0000;" x="238.4463" xlink:href="#m5783a6adb7" y="227.094497"/>
     <use style="fill:#ff0000;stroke:#ff0000;" x="239.589449" xlink:href="#m5783a6adb7" y="222.179012"/>
     <use style="fill:#ff0000;stroke:#ff0000;" x="240.732599" xlink:href="#m5783a6adb7" y="221.526242"/>
     <use style="fill:#ff0000;stroke:#ff0000;" x="241.875749" xlink:href="#m5783a6adb7" y="221.526242"/>
     <use style="fill:#ff0000;stroke:#ff0000;" x="243.018899" xlink:href="#m5783a6adb7" y="220.429066"/>
     <use style="fill:#ff0000;stroke:#ff0000;" x="244.162049" xlink:href="#m5783a6adb7" y="220.429066"/>
     <use style="fill:#ff0000;stroke:#ff0000;" x="245.305198" xlink:href="#m5783a6adb7" y="221.497678"/>
     <use style="fill:#ff0000;stroke:#ff0000;" x="246.448348" xlink:href="#m5783a6adb7" y="238.440223"/>
     <use style="fill:#ff0000;stroke:#ff0000;" x="247.591498" xlink:href="#m5783a6adb7" y="238.440223"/>
     <use style="fill:#ff0000;stroke:#ff0000;" x="248.734648" xlink:href="#m5783a6adb7" y="239.369752"/>
     <use style="fill:#ff0000;stroke:#ff0000;" x="249.877798" xlink:href="#m5783a6adb7" y="239.369752"/>
     <use style="fill:#ff0000;stroke:#ff0000;" x="251.020948" xlink:href="#m5783a6adb7" y="252.134849"/>
     <use style="fill:#ff0000;stroke:#ff0000;" x="252.164097" xlink:href="#m5783a6adb7" y="234.267207"/>
     <use style="fill:#ff0000;stroke:#ff0000;" x="253.307247" xlink:href="#m5783a6adb7" y="234.267207"/>
     <use style="fill:#ff0000;stroke:#ff0000;" x="254.450397" xlink:href="#m5783a6adb7" y="219.76071"/>
     <use style="fill:#ff0000;stroke:#ff0000;" x="255.593547" xlink:href="#m5783a6adb7" y="219.76071"/>
     <use style="fill:#ff0000;stroke:#ff0000;" x="256.736697" xlink:href="#m5783a6adb7" y="219.76071"/>
     <use style="fill:#ff0000;stroke:#ff0000;" x="257.879846" xlink:href="#m5783a6adb7" y="219.76071"/>
     <use style="fill:#ff0000;stroke:#ff0000;" x="259.022996" xlink:href="#m5783a6adb7" y="200.728077"/>
     <use style="fill:#ff0000;stroke:#ff0000;" x="260.166146" xlink:href="#m5783a6adb7" y="200.728077"/>
     <use style="fill:#ff0000;stroke:#ff0000;" x="261.309296" xlink:href="#m5783a6adb7" y="186.182608"/>
     <use style="fill:#ff0000;stroke:#ff0000;" x="262.452446" xlink:href="#m5783a6adb7" y="202.511941"/>
     <use style="fill:#ff0000;stroke:#ff0000;" x="263.595595" xlink:href="#m5783a6adb7" y="202.511941"/>
     <use style="fill:#ff0000;stroke:#ff0000;" x="264.738745" xlink:href="#m5783a6adb7" y="217.158741"/>
     <use style="fill:#ff0000;stroke:#ff0000;" x="265.881895" xlink:href="#m5783a6adb7" y="217.158741"/>
     <use style="fill:#ff0000;stroke:#ff0000;" x="267.025045" xlink:href="#m5783a6adb7" y="200.32091"/>
     <use style="fill:#ff0000;stroke:#ff0000;" x="268.168195" xlink:href="#m5783a6adb7" y="200.32091"/>
     <use style="fill:#ff0000;stroke:#ff0000;" x="269.311344" xlink:href="#m5783a6adb7" y="213.337922"/>
     <use style="fill:#ff0000;stroke:#ff0000;" x="270.454494" xlink:href="#m5783a6adb7" y="213.337922"/>
     <use style="fill:#ff0000;stroke:#ff0000;" x="271.597644" xlink:href="#m5783a6adb7" y="226.773553"/>
     <use style="fill:#ff0000;stroke:#ff0000;" x="272.740794" xlink:href="#m5783a6adb7" y="240.692065"/>
     <use style="fill:#ff0000;stroke:#ff0000;" x="273.883944" xlink:href="#m5783a6adb7" y="240.692065"/>
     <use style="fill:#ff0000;stroke:#ff0000;" x="275.027093" xlink:href="#m5783a6adb7" y="225.56411"/>
     <use style="fill:#ff0000;stroke:#ff0000;" x="276.170243" xlink:href="#m5783a6adb7" y="225.56411"/>
     <use style="fill:#ff0000;stroke:#ff0000;" x="277.313393" xlink:href="#m5783a6adb7" y="206.49447"/>
     <use style="fill:#ff0000;stroke:#ff0000;" x="278.456543" xlink:href="#m5783a6adb7" y="206.49447"/>
     <use style="fill:#ff0000;stroke:#ff0000;" x="279.599693" xlink:href="#m5783a6adb7" y="188.197349"/>
     <use style="fill:#ff0000;stroke:#ff0000;" x="280.742843" xlink:href="#m5783a6adb7" y="188.197349"/>
     <use style="fill:#ff0000;stroke:#ff0000;" x="281.885992" xlink:href="#m5783a6adb7" y="188.197349"/>
     <use style="fill:#ff0000;stroke:#ff0000;" x="283.029142" xlink:href="#m5783a6adb7" y="186.378614"/>
     <use style="fill:#ff0000;stroke:#ff0000;" x="284.172292" xlink:href="#m5783a6adb7" y="186.378614"/>
     <use style="fill:#ff0000;stroke:#ff0000;" x="285.315442" xlink:href="#m5783a6adb7" y="190.225251"/>
     <use style="fill:#ff0000;stroke:#ff0000;" x="286.458592" xlink:href="#m5783a6adb7" y="190.225251"/>
     <use style="fill:#ff0000;stroke:#ff0000;" x="287.601741" xlink:href="#m5783a6adb7" y="190.225251"/>
     <use style="fill:#ff0000;stroke:#ff0000;" x="288.744891" xlink:href="#m5783a6adb7" y="190.225251"/>
     <use style="fill:#ff0000;stroke:#ff0000;" x="289.888041" xlink:href="#m5783a6adb7" y="190.225251"/>
     <use style="fill:#ff0000;stroke:#ff0000;" x="291.031191" xlink:href="#m5783a6adb7" y="190.225251"/>
     <use style="fill:#ff0000;stroke:#ff0000;" x="292.174341" xlink:href="#m5783a6adb7" y="190.225251"/>
     <use style="fill:#ff0000;stroke:#ff0000;" x="293.31749" xlink:href="#m5783a6adb7" y="190.225251"/>
     <use style="fill:#ff0000;stroke:#ff0000;" x="294.46064" xlink:href="#m5783a6adb7" y="190.225251"/>
     <use style="fill:#ff0000;stroke:#ff0000;" x="295.60379" xlink:href="#m5783a6adb7" y="190.225251"/>
     <use style="fill:#ff0000;stroke:#ff0000;" x="296.74694" xlink:href="#m5783a6adb7" y="190.225251"/>
     <use style="fill:#ff0000;stroke:#ff0000;" x="297.89009" xlink:href="#m5783a6adb7" y="190.225251"/>
     <use style="fill:#ff0000;stroke:#ff0000;" x="299.033239" xlink:href="#m5783a6adb7" y="190.225251"/>
     <use style="fill:#ff0000;stroke:#ff0000;" x="300.176389" xlink:href="#m5783a6adb7" y="190.225251"/>
     <use style="fill:#ff0000;stroke:#ff0000;" x="301.319539" xlink:href="#m5783a6adb7" y="190.225251"/>
     <use style="fill:#ff0000;stroke:#ff0000;" x="302.462689" xlink:href="#m5783a6adb7" y="190.225251"/>
     <use style="fill:#ff0000;stroke:#ff0000;" x="303.605839" xlink:href="#m5783a6adb7" y="190.225251"/>
     <use style="fill:#ff0000;stroke:#ff0000;" x="304.748988" xlink:href="#m5783a6adb7" y="190.225251"/>
     <use style="fill:#ff0000;stroke:#ff0000;" x="305.892138" xlink:href="#m5783a6adb7" y="190.225251"/>
     <use style="fill:#ff0000;stroke:#ff0000;" x="307.035288" xlink:href="#m5783a6adb7" y="190.225251"/>
     <use style="fill:#ff0000;stroke:#ff0000;" x="308.178438" xlink:href="#m5783a6adb7" y="190.225251"/>
     <use style="fill:#ff0000;stroke:#ff0000;" x="309.321588" xlink:href="#m5783a6adb7" y="190.225251"/>
     <use style="fill:#ff0000;stroke:#ff0000;" x="310.464738" xlink:href="#m5783a6adb7" y="190.225251"/>
     <use style="fill:#ff0000;stroke:#ff0000;" x="311.607887" xlink:href="#m5783a6adb7" y="190.225251"/>
     <use style="fill:#ff0000;stroke:#ff0000;" x="312.751037" xlink:href="#m5783a6adb7" y="190.225251"/>
     <use style="fill:#ff0000;stroke:#ff0000;" x="313.894187" xlink:href="#m5783a6adb7" y="190.225251"/>
     <use style="fill:#ff0000;stroke:#ff0000;" x="315.037337" xlink:href="#m5783a6adb7" y="190.225251"/>
     <use style="fill:#ff0000;stroke:#ff0000;" x="316.180487" xlink:href="#m5783a6adb7" y="190.225251"/>
     <use style="fill:#ff0000;stroke:#ff0000;" x="317.323636" xlink:href="#m5783a6adb7" y="190.225251"/>
     <use style="fill:#ff0000;stroke:#ff0000;" x="318.466786" xlink:href="#m5783a6adb7" y="190.225251"/>
     <use style="fill:#ff0000;stroke:#ff0000;" x="319.609936" xlink:href="#m5783a6adb7" y="190.225251"/>
     <use style="fill:#ff0000;stroke:#ff0000;" x="320.753086" xlink:href="#m5783a6adb7" y="190.225251"/>
     <use style="fill:#ff0000;stroke:#ff0000;" x="321.896236" xlink:href="#m5783a6adb7" y="190.225251"/>
     <use style="fill:#ff0000;stroke:#ff0000;" x="323.039385" xlink:href="#m5783a6adb7" y="190.225251"/>
     <use style="fill:#ff0000;stroke:#ff0000;" x="324.182535" xlink:href="#m5783a6adb7" y="190.225251"/>
     <use style="fill:#ff0000;stroke:#ff0000;" x="325.325685" xlink:href="#m5783a6adb7" y="190.225251"/>
     <use style="fill:#ff0000;stroke:#ff0000;" x="326.468835" xlink:href="#m5783a6adb7" y="190.225251"/>
     <use style="fill:#ff0000;stroke:#ff0000;" x="327.611985" xlink:href="#m5783a6adb7" y="190.225251"/>
     <use style="fill:#ff0000;stroke:#ff0000;" x="328.755134" xlink:href="#m5783a6adb7" y="190.225251"/>
     <use style="fill:#ff0000;stroke:#ff0000;" x="329.898284" xlink:href="#m5783a6adb7" y="190.225251"/>
     <use style="fill:#ff0000;stroke:#ff0000;" x="331.041434" xlink:href="#m5783a6adb7" y="190.225251"/>
     <use style="fill:#ff0000;stroke:#ff0000;" x="332.184584" xlink:href="#m5783a6adb7" y="190.225251"/>
     <use style="fill:#ff0000;stroke:#ff0000;" x="333.327734" xlink:href="#m5783a6adb7" y="190.225251"/>
     <use style="fill:#ff0000;stroke:#ff0000;" x="334.470883" xlink:href="#m5783a6adb7" y="190.225251"/>
     <use style="fill:#ff0000;stroke:#ff0000;" x="335.614033" xlink:href="#m5783a6adb7" y="190.225251"/>
     <use style="fill:#ff0000;stroke:#ff0000;" x="336.757183" xlink:href="#m5783a6adb7" y="190.225251"/>
     <use style="fill:#ff0000;stroke:#ff0000;" x="337.900333" xlink:href="#m5783a6adb7" y="190.225251"/>
     <use style="fill:#ff0000;stroke:#ff0000;" x="339.043483" xlink:href="#m5783a6adb7" y="190.225251"/>
     <use style="fill:#ff0000;stroke:#ff0000;" x="340.186633" xlink:href="#m5783a6adb7" y="190.225251"/>
     <use style="fill:#ff0000;stroke:#ff0000;" x="341.329782" xlink:href="#m5783a6adb7" y="190.225251"/>
     <use style="fill:#ff0000;stroke:#ff0000;" x="342.472932" xlink:href="#m5783a6adb7" y="190.225251"/>
     <use style="fill:#ff0000;stroke:#ff0000;" x="343.616082" xlink:href="#m5783a6adb7" y="190.225251"/>
     <use style="fill:#ff0000;stroke:#ff0000;" x="344.759232" xlink:href="#m5783a6adb7" y="190.225251"/>
     <use style="fill:#ff0000;stroke:#ff0000;" x="345.902382" xlink:href="#m5783a6adb7" y="190.225251"/>
     <use style="fill:#ff0000;stroke:#ff0000;" x="347.045531" xlink:href="#m5783a6adb7" y="190.225251"/>
     <use style="fill:#ff0000;stroke:#ff0000;" x="348.188681" xlink:href="#m5783a6adb7" y="190.225251"/>
     <use style="fill:#ff0000;stroke:#ff0000;" x="349.331831" xlink:href="#m5783a6adb7" y="190.225251"/>
     <use style="fill:#ff0000;stroke:#ff0000;" x="350.474981" xlink:href="#m5783a6adb7" y="190.225251"/>
     <use style="fill:#ff0000;stroke:#ff0000;" x="351.618131" xlink:href="#m5783a6adb7" y="190.225251"/>
     <use style="fill:#ff0000;stroke:#ff0000;" x="352.76128" xlink:href="#m5783a6adb7" y="190.225251"/>
     <use style="fill:#ff0000;stroke:#ff0000;" x="353.90443" xlink:href="#m5783a6adb7" y="190.225251"/>
     <use style="fill:#ff0000;stroke:#ff0000;" x="355.04758" xlink:href="#m5783a6adb7" y="190.225251"/>
     <use style="fill:#ff0000;stroke:#ff0000;" x="356.19073" xlink:href="#m5783a6adb7" y="190.225251"/>
     <use style="fill:#ff0000;stroke:#ff0000;" x="357.33388" xlink:href="#m5783a6adb7" y="190.225251"/>
     <use style="fill:#ff0000;stroke:#ff0000;" x="358.477029" xlink:href="#m5783a6adb7" y="190.225251"/>
     <use style="fill:#ff0000;stroke:#ff0000;" x="359.620179" xlink:href="#m5783a6adb7" y="190.225251"/>
     <use style="fill:#ff0000;stroke:#ff0000;" x="360.763329" xlink:href="#m5783a6adb7" y="190.225251"/>
     <use style="fill:#ff0000;stroke:#ff0000;" x="361.906479" xlink:href="#m5783a6adb7" y="190.225251"/>
     <use style="fill:#ff0000;stroke:#ff0000;" x="363.049629" xlink:href="#m5783a6adb7" y="190.225251"/>
     <use style="fill:#ff0000;stroke:#ff0000;" x="364.192778" xlink:href="#m5783a6adb7" y="190.225251"/>
     <use style="fill:#ff0000;stroke:#ff0000;" x="365.335928" xlink:href="#m5783a6adb7" y="190.225251"/>
     <use style="fill:#ff0000;stroke:#ff0000;" x="366.479078" xlink:href="#m5783a6adb7" y="190.225251"/>
     <use style="fill:#ff0000;stroke:#ff0000;" x="367.622228" xlink:href="#m5783a6adb7" y="190.225251"/>
     <use style="fill:#ff0000;stroke:#ff0000;" x="368.765378" xlink:href="#m5783a6adb7" y="190.225251"/>
     <use style="fill:#ff0000;stroke:#ff0000;" x="369.908528" xlink:href="#m5783a6adb7" y="190.225251"/>
     <use style="fill:#ff0000;stroke:#ff0000;" x="371.051677" xlink:href="#m5783a6adb7" y="190.225251"/>
     <use style="fill:#ff0000;stroke:#ff0000;" x="372.194827" xlink:href="#m5783a6adb7" y="190.225251"/>
     <use style="fill:#ff0000;stroke:#ff0000;" x="373.337977" xlink:href="#m5783a6adb7" y="190.225251"/>
     <use style="fill:#ff0000;stroke:#ff0000;" x="374.481127" xlink:href="#m5783a6adb7" y="190.225251"/>
     <use style="fill:#ff0000;stroke:#ff0000;" x="375.624277" xlink:href="#m5783a6adb7" y="190.225251"/>
     <use style="fill:#ff0000;stroke:#ff0000;" x="376.767426" xlink:href="#m5783a6adb7" y="190.225251"/>
     <use style="fill:#ff0000;stroke:#ff0000;" x="377.910576" xlink:href="#m5783a6adb7" y="190.225251"/>
     <use style="fill:#ff0000;stroke:#ff0000;" x="379.053726" xlink:href="#m5783a6adb7" y="190.225251"/>
     <use style="fill:#ff0000;stroke:#ff0000;" x="380.196876" xlink:href="#m5783a6adb7" y="190.225251"/>
     <use style="fill:#ff0000;stroke:#ff0000;" x="381.340026" xlink:href="#m5783a6adb7" y="190.225251"/>
     <use style="fill:#ff0000;stroke:#ff0000;" x="382.483175" xlink:href="#m5783a6adb7" y="190.225251"/>
     <use style="fill:#ff0000;stroke:#ff0000;" x="383.626325" xlink:href="#m5783a6adb7" y="190.225251"/>
     <use style="fill:#ff0000;stroke:#ff0000;" x="384.769475" xlink:href="#m5783a6adb7" y="190.225251"/>
     <use style="fill:#ff0000;stroke:#ff0000;" x="385.912625" xlink:href="#m5783a6adb7" y="190.225251"/>
     <use style="fill:#ff0000;stroke:#ff0000;" x="387.055775" xlink:href="#m5783a6adb7" y="190.225251"/>
     <use style="fill:#ff0000;stroke:#ff0000;" x="388.198924" xlink:href="#m5783a6adb7" y="190.225251"/>
     <use style="fill:#ff0000;stroke:#ff0000;" x="389.342074" xlink:href="#m5783a6adb7" y="190.225251"/>
     <use style="fill:#ff0000;stroke:#ff0000;" x="390.485224" xlink:href="#m5783a6adb7" y="190.225251"/>
     <use style="fill:#ff0000;stroke:#ff0000;" x="391.628374" xlink:href="#m5783a6adb7" y="190.225251"/>
     <use style="fill:#ff0000;stroke:#ff0000;" x="392.771524" xlink:href="#m5783a6adb7" y="190.225251"/>
     <use style="fill:#ff0000;stroke:#ff0000;" x="393.914673" xlink:href="#m5783a6adb7" y="190.225251"/>
     <use style="fill:#ff0000;stroke:#ff0000;" x="395.057823" xlink:href="#m5783a6adb7" y="190.225251"/>
     <use style="fill:#ff0000;stroke:#ff0000;" x="396.200973" xlink:href="#m5783a6adb7" y="190.225251"/>
     <use style="fill:#ff0000;stroke:#ff0000;" x="397.344123" xlink:href="#m5783a6adb7" y="190.225251"/>
     <use style="fill:#ff0000;stroke:#ff0000;" x="398.487273" xlink:href="#m5783a6adb7" y="190.225251"/>
    </g>
   </g>
   <g id="patch_3">
    <path d="M 57.6 307.584 
L 57.6 41.472 
" style="fill:none;stroke:#000000;stroke-linecap:square;stroke-linejoin:miter;stroke-width:0.8;"/>
   </g>
   <g id="patch_4">
    <path d="M 414.72 307.584 
L 414.72 41.472 
" style="fill:none;stroke:#000000;stroke-linecap:square;stroke-linejoin:miter;stroke-width:0.8;"/>
   </g>
   <g id="patch_5">
    <path d="M 57.6 307.584 
L 414.72 307.584 
" style="fill:none;stroke:#000000;stroke-linecap:square;stroke-linejoin:miter;stroke-width:0.8;"/>
   </g>
   <g id="patch_6">
    <path d="M 57.6 41.472 
L 414.72 41.472 
" style="fill:none;stroke:#000000;stroke-linecap:square;stroke-linejoin:miter;stroke-width:0.8;"/>
   </g>
  </g>
 </g>
 <defs>
  <clipPath id="p79025bc91a">
   <rect height="266.112" width="357.12" x="57.6" y="41.472"/>
  </clipPath>
 </defs>
</svg>
