<?xml version="1.0" encoding="utf-8" standalone="no"?>
<!DOCTYPE svg PUBLIC "-//W3C//DTD SVG 1.1//EN"
  "http://www.w3.org/Graphics/SVG/1.1/DTD/svg11.dtd">
<!-- Created with matplotlib (https://matplotlib.org/) -->
<svg height="345.6pt" version="1.1" viewBox="0 0 460.8 345.6" width="460.8pt" xmlns="http://www.w3.org/2000/svg" xmlns:xlink="http://www.w3.org/1999/xlink">
 <defs>
  <style type="text/css">
*{stroke-linecap:butt;stroke-linejoin:round;}
  </style>
 </defs>
 <g id="figure_1">
  <g id="patch_1">
   <path d="M 0 345.6 
L 460.8 345.6 
L 460.8 0 
L 0 0 
z
" style="fill:#ffffff;"/>
  </g>
  <g id="axes_1">
   <g id="patch_2">
    <path d="M 57.6 307.584 
L 414.72 307.584 
L 414.72 41.472 
L 57.6 41.472 
z
" style="fill:#ffffff;"/>
   </g>
   <g id="line2d_1">
    <path clip-path="url(#p7483296143)" d="M 73.832727 53.568 
L 80.740271 53.568 
L 87.647814 53.568 
L 94.555358 53.568 
L 101.462901 53.568 
L 108.370445 53.568 
L 115.277988 53.568 
L 122.185532 53.568 
L 129.093075 103.943496 
L 136.000619 103.943496 
L 142.908162 153.488385 
L 149.815706 153.488385 
L 156.72325 153.488385 
L 163.630793 152.53803 
L 170.538337 152.53803 
L 177.44588 152.53803 
L 184.353424 150.568114 
L 191.260967 163.893656 
L 198.168511 163.893656 
L 205.076054 163.893656 
L 211.983598 217.192971 
L 218.891141 205.373785 
L 225.798685 205.373785 
L 232.706228 205.373785 
L 239.613772 251.00346 
L 246.521315 251.00346 
L 253.428859 251.00346 
L 260.336402 251.00346 
L 267.243946 251.00346 
L 274.151489 295.488 
L 281.059033 276.129802 
L 287.966576 276.129802 
L 294.87412 276.129802 
L 301.781663 276.129802 
L 308.689207 276.129802 
L 315.59675 276.129802 
L 322.504294 257.471326 
L 329.411838 257.471326 
L 336.319381 238.944494 
L 343.226925 221.090003 
L 350.134468 221.090003 
L 357.042012 203.629288 
L 363.949555 203.629288 
L 370.857099 219.156888 
L 377.764642 219.156888 
L 384.672186 236.294993 
L 391.579729 236.294993 
L 398.487273 236.294993 
" style="fill:none;stroke:#ff0000;stroke-linecap:square;stroke-width:12;"/>
    <defs>
     <path d="M 0 3 
C 0.795609 3 1.55874 2.683901 2.12132 2.12132 
C 2.683901 1.55874 3 0.795609 3 0 
C 3 -0.795609 2.683901 -1.55874 2.12132 -2.12132 
C 1.55874 -2.683901 0.795609 -3 0 -3 
C -0.795609 -3 -1.55874 -2.683901 -2.12132 -2.12132 
C -2.683901 -1.55874 -3 -0.795609 -3 0 
C -3 0.795609 -2.683901 1.55874 -2.12132 2.12132 
C -1.55874 2.683901 -0.795609 3 0 3 
z
" id="m5057e73881" style="stroke:#ff0000;"/>
    </defs>
    <g clip-path="url(#p7483296143)">
     <use style="fill:#ff0000;stroke:#ff0000;" x="73.832727" xlink:href="#m5057e73881" y="53.568"/>
     <use style="fill:#ff0000;stroke:#ff0000;" x="80.740271" xlink:href="#m5057e73881" y="53.568"/>
     <use style="fill:#ff0000;stroke:#ff0000;" x="87.647814" xlink:href="#m5057e73881" y="53.568"/>
     <use style="fill:#ff0000;stroke:#ff0000;" x="94.555358" xlink:href="#m5057e73881" y="53.568"/>
     <use style="fill:#ff0000;stroke:#ff0000;" x="101.462901" xlink:href="#m5057e73881" y="53.568"/>
     <use style="fill:#ff0000;stroke:#ff0000;" x="108.370445" xlink:href="#m5057e73881" y="53.568"/>
     <use style="fill:#ff0000;stroke:#ff0000;" x="115.277988" xlink:href="#m5057e73881" y="53.568"/>
     <use style="fill:#ff0000;stroke:#ff0000;" x="122.185532" xlink:href="#m5057e73881" y="53.568"/>
     <use style="fill:#ff0000;stroke:#ff0000;" x="129.093075" xlink:href="#m5057e73881" y="103.943496"/>
     <use style="fill:#ff0000;stroke:#ff0000;" x="136.000619" xlink:href="#m5057e73881" y="103.943496"/>
     <use style="fill:#ff0000;stroke:#ff0000;" x="142.908162" xlink:href="#m5057e73881" y="153.488385"/>
     <use style="fill:#ff0000;stroke:#ff0000;" x="149.815706" xlink:href="#m5057e73881" y="153.488385"/>
     <use style="fill:#ff0000;stroke:#ff0000;" x="156.72325" xlink:href="#m5057e73881" y="153.488385"/>
     <use style="fill:#ff0000;stroke:#ff0000;" x="163.630793" xlink:href="#m5057e73881" y="152.53803"/>
     <use style="fill:#ff0000;stroke:#ff0000;" x="170.538337" xlink:href="#m5057e73881" y="152.53803"/>
     <use style="fill:#ff0000;stroke:#ff0000;" x="177.44588" xlink:href="#m5057e73881" y="152.53803"/>
     <use style="fill:#ff0000;stroke:#ff0000;" x="184.353424" xlink:href="#m5057e73881" y="150.568114"/>
     <use style="fill:#ff0000;stroke:#ff0000;" x="191.260967" xlink:href="#m5057e73881" y="163.893656"/>
     <use style="fill:#ff0000;stroke:#ff0000;" x="198.168511" xlink:href="#m5057e73881" y="163.893656"/>
     <use style="fill:#ff0000;stroke:#ff0000;" x="205.076054" xlink:href="#m5057e73881" y="163.893656"/>
     <use style="fill:#ff0000;stroke:#ff0000;" x="211.983598" xlink:href="#m5057e73881" y="217.192971"/>
     <use style="fill:#ff0000;stroke:#ff0000;" x="218.891141" xlink:href="#m5057e73881" y="205.373785"/>
     <use style="fill:#ff0000;stroke:#ff0000;" x="225.798685" xlink:href="#m5057e73881" y="205.373785"/>
     <use style="fill:#ff0000;stroke:#ff0000;" x="232.706228" xlink:href="#m5057e73881" y="205.373785"/>
     <use style="fill:#ff0000;stroke:#ff0000;" x="239.613772" xlink:href="#m5057e73881" y="251.00346"/>
     <use style="fill:#ff0000;stroke:#ff0000;" x="246.521315" xlink:href="#m5057e73881" y="251.00346"/>
     <use style="fill:#ff0000;stroke:#ff0000;" x="253.428859" xlink:href="#m5057e73881" y="251.00346"/>
     <use style="fill:#ff0000;stroke:#ff0000;" x="260.336402" xlink:href="#m5057e73881" y="251.00346"/>
     <use style="fill:#ff0000;stroke:#ff0000;" x="267.243946" xlink:href="#m5057e73881" y="251.00346"/>
     <use style="fill:#ff0000;stroke:#ff0000;" x="274.151489" xlink:href="#m5057e73881" y="295.488"/>
     <use style="fill:#ff0000;stroke:#ff0000;" x="281.059033" xlink:href="#m5057e73881" y="276.129802"/>
     <use style="fill:#ff0000;stroke:#ff0000;" x="287.966576" xlink:href="#m5057e73881" y="276.129802"/>
     <use style="fill:#ff0000;stroke:#ff0000;" x="294.87412" xlink:href="#m5057e73881" y="276.129802"/>
     <use style="fill:#ff0000;stroke:#ff0000;" x="301.781663" xlink:href="#m5057e73881" y="276.129802"/>
     <use style="fill:#ff0000;stroke:#ff0000;" x="308.689207" xlink:href="#m5057e73881" y="276.129802"/>
     <use style="fill:#ff0000;stroke:#ff0000;" x="315.59675" xlink:href="#m5057e73881" y="276.129802"/>
     <use style="fill:#ff0000;stroke:#ff0000;" x="322.504294" xlink:href="#m5057e73881" y="257.471326"/>
     <use style="fill:#ff0000;stroke:#ff0000;" x="329.411838" xlink:href="#m5057e73881" y="257.471326"/>
     <use style="fill:#ff0000;stroke:#ff0000;" x="336.319381" xlink:href="#m5057e73881" y="238.944494"/>
     <use style="fill:#ff0000;stroke:#ff0000;" x="343.226925" xlink:href="#m5057e73881" y="221.090003"/>
     <use style="fill:#ff0000;stroke:#ff0000;" x="350.134468" xlink:href="#m5057e73881" y="221.090003"/>
     <use style="fill:#ff0000;stroke:#ff0000;" x="357.042012" xlink:href="#m5057e73881" y="203.629288"/>
     <use style="fill:#ff0000;stroke:#ff0000;" x="363.949555" xlink:href="#m5057e73881" y="203.629288"/>
     <use style="fill:#ff0000;stroke:#ff0000;" x="370.857099" xlink:href="#m5057e73881" y="219.156888"/>
     <use style="fill:#ff0000;stroke:#ff0000;" x="377.764642" xlink:href="#m5057e73881" y="219.156888"/>
     <use style="fill:#ff0000;stroke:#ff0000;" x="384.672186" xlink:href="#m5057e73881" y="236.294993"/>
     <use style="fill:#ff0000;stroke:#ff0000;" x="391.579729" xlink:href="#m5057e73881" y="236.294993"/>
     <use style="fill:#ff0000;stroke:#ff0000;" x="398.487273" xlink:href="#m5057e73881" y="236.294993"/>
    </g>
   </g>
   <g id="patch_3">
    <path d="M 57.6 307.584 
L 57.6 41.472 
" style="fill:none;stroke:#000000;stroke-linecap:square;stroke-linejoin:miter;stroke-width:0.8;"/>
   </g>
   <g id="patch_4">
    <path d="M 414.72 307.584 
L 414.72 41.472 
" style="fill:none;stroke:#000000;stroke-linecap:square;stroke-linejoin:miter;stroke-width:0.8;"/>
   </g>
   <g id="patch_5">
    <path d="M 57.6 307.584 
L 414.72 307.584 
" style="fill:none;stroke:#000000;stroke-linecap:square;stroke-linejoin:miter;stroke-width:0.8;"/>
   </g>
   <g id="patch_6">
    <path d="M 57.6 41.472 
L 414.72 41.472 
" style="fill:none;stroke:#000000;stroke-linecap:square;stroke-linejoin:miter;stroke-width:0.8;"/>
   </g>
  </g>
 </g>
 <defs>
  <clipPath id="p7483296143">
   <rect height="266.112" width="357.12" x="57.6" y="41.472"/>
  </clipPath>
 </defs>
</svg>
