<?xml version="1.0" encoding="utf-8" standalone="no"?>
<!DOCTYPE svg PUBLIC "-//W3C//DTD SVG 1.1//EN"
  "http://www.w3.org/Graphics/SVG/1.1/DTD/svg11.dtd">
<!-- Created with matplotlib (https://matplotlib.org/) -->
<svg height="345.6pt" version="1.1" viewBox="0 0 460.8 345.6" width="460.8pt" xmlns="http://www.w3.org/2000/svg" xmlns:xlink="http://www.w3.org/1999/xlink">
 <defs>
  <style type="text/css">
*{stroke-linecap:butt;stroke-linejoin:round;}
  </style>
 </defs>
 <g id="figure_1">
  <g id="patch_1">
   <path d="M 0 345.6 
L 460.8 345.6 
L 460.8 0 
L 0 0 
z
" style="fill:#ffffff;"/>
  </g>
  <g id="axes_1">
   <g id="patch_2">
    <path d="M 57.6 307.584 
L 414.72 307.584 
L 414.72 41.472 
L 57.6 41.472 
z
" style="fill:#ffffff;"/>
   </g>
   <g id="line2d_1">
    <path clip-path="url(#p4ef71a5920)" d="M 73.832727 273.497892 
L 80.363135 273.497892 
L 81.29605 295.488 
L 82.228966 295.488 
L 83.161881 272.911535 
L 85.027712 272.911535 
L 85.960627 250.577072 
L 86.893542 250.577072 
L 87.826458 231.374219 
L 88.759373 231.374219 
L 89.692288 236.505499 
L 90.625204 215.741254 
L 92.491034 215.741254 
L 93.42395 193.37703 
L 94.356865 193.37703 
L 95.289781 173.863157 
L 96.222696 198.221021 
L 98.088527 198.221021 
L 99.021442 191.199235 
L 99.954357 191.199235 
L 100.887273 198.253521 
L 101.820188 198.253521 
L 102.753103 191.243146 
L 103.686019 190.604994 
L 104.618934 190.604994 
L 105.55185 183.901586 
L 106.484765 183.901586 
L 107.41768 177.245996 
L 108.350596 177.245996 
L 109.283511 185.320227 
L 111.149342 185.320227 
L 112.082257 192.922261 
L 113.015172 192.922261 
L 113.948088 186.174463 
L 114.881003 186.174463 
L 115.813918 185.731405 
L 116.746834 185.731405 
L 117.679749 192.752877 
L 118.612665 192.752877 
L 119.54558 186.65505 
L 120.478495 186.65505 
L 121.411411 180.222482 
L 122.344326 180.222482 
L 123.277241 173.728875 
L 124.210157 173.728875 
L 125.143072 181.877082 
L 126.075987 181.877082 
L 127.008903 174.981184 
L 127.941818 174.981184 
L 128.874734 174.860188 
L 129.807649 174.860188 
L 130.740564 168.521091 
L 131.67348 170.039393 
L 132.606395 170.039393 
L 133.53931 163.26183 
L 134.472226 163.26183 
L 135.405141 156.180446 
L 136.338056 156.180446 
L 137.270972 150.416563 
L 139.136803 150.416563 
L 140.069718 143.526964 
L 141.935549 143.526964 
L 142.868464 145.410122 
L 143.801379 145.410122 
L 144.734295 139.359079 
L 145.66721 139.359079 
L 146.600125 139.973857 
L 147.533041 139.973857 
L 148.465956 133.740199 
L 154.063448 133.740147 
L 154.996364 127.219694 
L 155.929279 127.219694 
L 156.862194 127.013821 
L 158.728025 127.013821 
L 159.66094 121.733206 
L 160.593856 121.733206 
L 161.526771 129.60799 
L 163.392602 129.60799 
L 164.325517 123.225987 
L 165.258433 123.225987 
L 166.191348 117.082999 
L 167.124263 117.082999 
L 168.057179 110.90647 
L 168.990094 119.032016 
L 169.923009 119.032016 
L 170.855925 113.026414 
L 171.78884 113.026414 
L 172.721755 120.820247 
L 173.654671 120.820247 
L 174.587586 114.123175 
L 183.91674 114.123175 
L 184.849655 122.109927 
L 185.782571 122.109927 
L 186.715486 122.778512 
L 187.648401 117.218867 
L 189.514232 117.218867 
L 190.447147 118.298604 
L 191.380063 118.298604 
L 192.312978 120.889795 
L 193.245893 120.889795 
L 194.178809 114.499193 
L 195.111724 109.037969 
L 196.044639 109.037969 
L 196.977555 102.464768 
L 197.91047 102.464768 
L 198.843386 96.424886 
L 199.776301 96.424886 
L 200.709216 90.102056 
L 201.642132 90.102056 
L 203.507962 78.403311 
L 204.440878 78.403311 
L 205.373793 79.971993 
L 208.172539 79.971993 
L 209.105455 82.287169 
L 210.03837 82.287169 
L 210.971285 82.744628 
L 211.904201 90.55854 
L 212.837116 90.55854 
L 213.770031 85.597066 
L 215.635862 85.597066 
L 216.568777 79.298992 
L 217.501693 79.298992 
L 218.434608 87.68057 
L 219.367524 87.68057 
L 220.300439 82.933468 
L 221.233354 82.933468 
L 222.16627 76.364787 
L 224.0321 76.364787 
L 224.965016 71.795966 
L 225.897931 71.795966 
L 226.830846 65.634447 
L 227.763762 65.634447 
L 228.696677 60.006197 
L 229.629592 60.006197 
L 230.562508 59.667398 
L 231.495423 53.568 
L 232.428339 53.568 
L 233.361254 62.062267 
L 234.294169 62.062267 
L 235.227085 55.518827 
L 238.958746 55.518827 
L 239.891661 63.729339 
L 240.824577 63.729339 
L 241.757492 58.921441 
L 242.690408 67.241257 
L 243.623323 67.241257 
L 244.556238 60.965648 
L 245.489154 60.965648 
L 246.422069 54.469088 
L 398.487273 54.469088 
L 398.487273 54.469088 
" style="fill:none;stroke:#ff0000;stroke-linecap:square;stroke-width:12;"/>
    <defs>
     <path d="M 0 3 
C 0.795609 3 1.55874 2.683901 2.12132 2.12132 
C 2.683901 1.55874 3 0.795609 3 0 
C 3 -0.795609 2.683901 -1.55874 2.12132 -2.12132 
C 1.55874 -2.683901 0.795609 -3 0 -3 
C -0.795609 -3 -1.55874 -2.683901 -2.12132 -2.12132 
C -2.683901 -1.55874 -3 -0.795609 -3 0 
C -3 0.795609 -2.683901 1.55874 -2.12132 2.12132 
C -1.55874 2.683901 -0.795609 3 0 3 
z
" id="m4850224d19" style="stroke:#ff0000;"/>
    </defs>
    <g clip-path="url(#p4ef71a5920)">
     <use style="fill:#ff0000;stroke:#ff0000;" x="73.832727" xlink:href="#m4850224d19" y="273.497892"/>
     <use style="fill:#ff0000;stroke:#ff0000;" x="74.765643" xlink:href="#m4850224d19" y="273.497892"/>
     <use style="fill:#ff0000;stroke:#ff0000;" x="75.698558" xlink:href="#m4850224d19" y="273.497892"/>
     <use style="fill:#ff0000;stroke:#ff0000;" x="76.631473" xlink:href="#m4850224d19" y="273.497892"/>
     <use style="fill:#ff0000;stroke:#ff0000;" x="77.564389" xlink:href="#m4850224d19" y="273.497892"/>
     <use style="fill:#ff0000;stroke:#ff0000;" x="78.497304" xlink:href="#m4850224d19" y="273.497892"/>
     <use style="fill:#ff0000;stroke:#ff0000;" x="79.430219" xlink:href="#m4850224d19" y="273.497892"/>
     <use style="fill:#ff0000;stroke:#ff0000;" x="80.363135" xlink:href="#m4850224d19" y="273.497892"/>
     <use style="fill:#ff0000;stroke:#ff0000;" x="81.29605" xlink:href="#m4850224d19" y="295.488"/>
     <use style="fill:#ff0000;stroke:#ff0000;" x="82.228966" xlink:href="#m4850224d19" y="295.488"/>
     <use style="fill:#ff0000;stroke:#ff0000;" x="83.161881" xlink:href="#m4850224d19" y="272.911535"/>
     <use style="fill:#ff0000;stroke:#ff0000;" x="84.094796" xlink:href="#m4850224d19" y="272.911535"/>
     <use style="fill:#ff0000;stroke:#ff0000;" x="85.027712" xlink:href="#m4850224d19" y="272.911535"/>
     <use style="fill:#ff0000;stroke:#ff0000;" x="85.960627" xlink:href="#m4850224d19" y="250.577072"/>
     <use style="fill:#ff0000;stroke:#ff0000;" x="86.893542" xlink:href="#m4850224d19" y="250.577072"/>
     <use style="fill:#ff0000;stroke:#ff0000;" x="87.826458" xlink:href="#m4850224d19" y="231.374219"/>
     <use style="fill:#ff0000;stroke:#ff0000;" x="88.759373" xlink:href="#m4850224d19" y="231.374219"/>
     <use style="fill:#ff0000;stroke:#ff0000;" x="89.692288" xlink:href="#m4850224d19" y="236.505499"/>
     <use style="fill:#ff0000;stroke:#ff0000;" x="90.625204" xlink:href="#m4850224d19" y="215.741254"/>
     <use style="fill:#ff0000;stroke:#ff0000;" x="91.558119" xlink:href="#m4850224d19" y="215.741254"/>
     <use style="fill:#ff0000;stroke:#ff0000;" x="92.491034" xlink:href="#m4850224d19" y="215.741254"/>
     <use style="fill:#ff0000;stroke:#ff0000;" x="93.42395" xlink:href="#m4850224d19" y="193.37703"/>
     <use style="fill:#ff0000;stroke:#ff0000;" x="94.356865" xlink:href="#m4850224d19" y="193.37703"/>
     <use style="fill:#ff0000;stroke:#ff0000;" x="95.289781" xlink:href="#m4850224d19" y="173.863157"/>
     <use style="fill:#ff0000;stroke:#ff0000;" x="96.222696" xlink:href="#m4850224d19" y="198.221021"/>
     <use style="fill:#ff0000;stroke:#ff0000;" x="97.155611" xlink:href="#m4850224d19" y="198.221021"/>
     <use style="fill:#ff0000;stroke:#ff0000;" x="98.088527" xlink:href="#m4850224d19" y="198.221021"/>
     <use style="fill:#ff0000;stroke:#ff0000;" x="99.021442" xlink:href="#m4850224d19" y="191.199235"/>
     <use style="fill:#ff0000;stroke:#ff0000;" x="99.954357" xlink:href="#m4850224d19" y="191.199235"/>
     <use style="fill:#ff0000;stroke:#ff0000;" x="100.887273" xlink:href="#m4850224d19" y="198.253521"/>
     <use style="fill:#ff0000;stroke:#ff0000;" x="101.820188" xlink:href="#m4850224d19" y="198.253521"/>
     <use style="fill:#ff0000;stroke:#ff0000;" x="102.753103" xlink:href="#m4850224d19" y="191.243146"/>
     <use style="fill:#ff0000;stroke:#ff0000;" x="103.686019" xlink:href="#m4850224d19" y="190.604994"/>
     <use style="fill:#ff0000;stroke:#ff0000;" x="104.618934" xlink:href="#m4850224d19" y="190.604994"/>
     <use style="fill:#ff0000;stroke:#ff0000;" x="105.55185" xlink:href="#m4850224d19" y="183.901586"/>
     <use style="fill:#ff0000;stroke:#ff0000;" x="106.484765" xlink:href="#m4850224d19" y="183.901586"/>
     <use style="fill:#ff0000;stroke:#ff0000;" x="107.41768" xlink:href="#m4850224d19" y="177.245996"/>
     <use style="fill:#ff0000;stroke:#ff0000;" x="108.350596" xlink:href="#m4850224d19" y="177.245996"/>
     <use style="fill:#ff0000;stroke:#ff0000;" x="109.283511" xlink:href="#m4850224d19" y="185.320227"/>
     <use style="fill:#ff0000;stroke:#ff0000;" x="110.216426" xlink:href="#m4850224d19" y="185.320227"/>
     <use style="fill:#ff0000;stroke:#ff0000;" x="111.149342" xlink:href="#m4850224d19" y="185.320227"/>
     <use style="fill:#ff0000;stroke:#ff0000;" x="112.082257" xlink:href="#m4850224d19" y="192.922261"/>
     <use style="fill:#ff0000;stroke:#ff0000;" x="113.015172" xlink:href="#m4850224d19" y="192.922261"/>
     <use style="fill:#ff0000;stroke:#ff0000;" x="113.948088" xlink:href="#m4850224d19" y="186.174463"/>
     <use style="fill:#ff0000;stroke:#ff0000;" x="114.881003" xlink:href="#m4850224d19" y="186.174463"/>
     <use style="fill:#ff0000;stroke:#ff0000;" x="115.813918" xlink:href="#m4850224d19" y="185.731405"/>
     <use style="fill:#ff0000;stroke:#ff0000;" x="116.746834" xlink:href="#m4850224d19" y="185.731405"/>
     <use style="fill:#ff0000;stroke:#ff0000;" x="117.679749" xlink:href="#m4850224d19" y="192.752877"/>
     <use style="fill:#ff0000;stroke:#ff0000;" x="118.612665" xlink:href="#m4850224d19" y="192.752877"/>
     <use style="fill:#ff0000;stroke:#ff0000;" x="119.54558" xlink:href="#m4850224d19" y="186.65505"/>
     <use style="fill:#ff0000;stroke:#ff0000;" x="120.478495" xlink:href="#m4850224d19" y="186.65505"/>
     <use style="fill:#ff0000;stroke:#ff0000;" x="121.411411" xlink:href="#m4850224d19" y="180.222482"/>
     <use style="fill:#ff0000;stroke:#ff0000;" x="122.344326" xlink:href="#m4850224d19" y="180.222482"/>
     <use style="fill:#ff0000;stroke:#ff0000;" x="123.277241" xlink:href="#m4850224d19" y="173.728875"/>
     <use style="fill:#ff0000;stroke:#ff0000;" x="124.210157" xlink:href="#m4850224d19" y="173.728875"/>
     <use style="fill:#ff0000;stroke:#ff0000;" x="125.143072" xlink:href="#m4850224d19" y="181.877082"/>
     <use style="fill:#ff0000;stroke:#ff0000;" x="126.075987" xlink:href="#m4850224d19" y="181.877082"/>
     <use style="fill:#ff0000;stroke:#ff0000;" x="127.008903" xlink:href="#m4850224d19" y="174.981184"/>
     <use style="fill:#ff0000;stroke:#ff0000;" x="127.941818" xlink:href="#m4850224d19" y="174.981184"/>
     <use style="fill:#ff0000;stroke:#ff0000;" x="128.874734" xlink:href="#m4850224d19" y="174.860188"/>
     <use style="fill:#ff0000;stroke:#ff0000;" x="129.807649" xlink:href="#m4850224d19" y="174.860188"/>
     <use style="fill:#ff0000;stroke:#ff0000;" x="130.740564" xlink:href="#m4850224d19" y="168.521091"/>
     <use style="fill:#ff0000;stroke:#ff0000;" x="131.67348" xlink:href="#m4850224d19" y="170.039393"/>
     <use style="fill:#ff0000;stroke:#ff0000;" x="132.606395" xlink:href="#m4850224d19" y="170.039393"/>
     <use style="fill:#ff0000;stroke:#ff0000;" x="133.53931" xlink:href="#m4850224d19" y="163.26183"/>
     <use style="fill:#ff0000;stroke:#ff0000;" x="134.472226" xlink:href="#m4850224d19" y="163.26183"/>
     <use style="fill:#ff0000;stroke:#ff0000;" x="135.405141" xlink:href="#m4850224d19" y="156.180446"/>
     <use style="fill:#ff0000;stroke:#ff0000;" x="136.338056" xlink:href="#m4850224d19" y="156.180446"/>
     <use style="fill:#ff0000;stroke:#ff0000;" x="137.270972" xlink:href="#m4850224d19" y="150.416563"/>
     <use style="fill:#ff0000;stroke:#ff0000;" x="138.203887" xlink:href="#m4850224d19" y="150.416563"/>
     <use style="fill:#ff0000;stroke:#ff0000;" x="139.136803" xlink:href="#m4850224d19" y="150.416563"/>
     <use style="fill:#ff0000;stroke:#ff0000;" x="140.069718" xlink:href="#m4850224d19" y="143.526964"/>
     <use style="fill:#ff0000;stroke:#ff0000;" x="141.002633" xlink:href="#m4850224d19" y="143.526964"/>
     <use style="fill:#ff0000;stroke:#ff0000;" x="141.935549" xlink:href="#m4850224d19" y="143.526964"/>
     <use style="fill:#ff0000;stroke:#ff0000;" x="142.868464" xlink:href="#m4850224d19" y="145.410122"/>
     <use style="fill:#ff0000;stroke:#ff0000;" x="143.801379" xlink:href="#m4850224d19" y="145.410122"/>
     <use style="fill:#ff0000;stroke:#ff0000;" x="144.734295" xlink:href="#m4850224d19" y="139.359079"/>
     <use style="fill:#ff0000;stroke:#ff0000;" x="145.66721" xlink:href="#m4850224d19" y="139.359079"/>
     <use style="fill:#ff0000;stroke:#ff0000;" x="146.600125" xlink:href="#m4850224d19" y="139.973857"/>
     <use style="fill:#ff0000;stroke:#ff0000;" x="147.533041" xlink:href="#m4850224d19" y="139.973857"/>
     <use style="fill:#ff0000;stroke:#ff0000;" x="148.465956" xlink:href="#m4850224d19" y="133.740199"/>
     <use style="fill:#ff0000;stroke:#ff0000;" x="149.398871" xlink:href="#m4850224d19" y="133.740199"/>
     <use style="fill:#ff0000;stroke:#ff0000;" x="150.331787" xlink:href="#m4850224d19" y="133.740199"/>
     <use style="fill:#ff0000;stroke:#ff0000;" x="151.264702" xlink:href="#m4850224d19" y="133.740199"/>
     <use style="fill:#ff0000;stroke:#ff0000;" x="152.197618" xlink:href="#m4850224d19" y="133.740199"/>
     <use style="fill:#ff0000;stroke:#ff0000;" x="153.130533" xlink:href="#m4850224d19" y="133.740147"/>
     <use style="fill:#ff0000;stroke:#ff0000;" x="154.063448" xlink:href="#m4850224d19" y="133.740147"/>
     <use style="fill:#ff0000;stroke:#ff0000;" x="154.996364" xlink:href="#m4850224d19" y="127.219694"/>
     <use style="fill:#ff0000;stroke:#ff0000;" x="155.929279" xlink:href="#m4850224d19" y="127.219694"/>
     <use style="fill:#ff0000;stroke:#ff0000;" x="156.862194" xlink:href="#m4850224d19" y="127.013821"/>
     <use style="fill:#ff0000;stroke:#ff0000;" x="157.79511" xlink:href="#m4850224d19" y="127.013821"/>
     <use style="fill:#ff0000;stroke:#ff0000;" x="158.728025" xlink:href="#m4850224d19" y="127.013821"/>
     <use style="fill:#ff0000;stroke:#ff0000;" x="159.66094" xlink:href="#m4850224d19" y="121.733206"/>
     <use style="fill:#ff0000;stroke:#ff0000;" x="160.593856" xlink:href="#m4850224d19" y="121.733206"/>
     <use style="fill:#ff0000;stroke:#ff0000;" x="161.526771" xlink:href="#m4850224d19" y="129.60799"/>
     <use style="fill:#ff0000;stroke:#ff0000;" x="162.459687" xlink:href="#m4850224d19" y="129.60799"/>
     <use style="fill:#ff0000;stroke:#ff0000;" x="163.392602" xlink:href="#m4850224d19" y="129.60799"/>
     <use style="fill:#ff0000;stroke:#ff0000;" x="164.325517" xlink:href="#m4850224d19" y="123.225987"/>
     <use style="fill:#ff0000;stroke:#ff0000;" x="165.258433" xlink:href="#m4850224d19" y="123.225987"/>
     <use style="fill:#ff0000;stroke:#ff0000;" x="166.191348" xlink:href="#m4850224d19" y="117.082999"/>
     <use style="fill:#ff0000;stroke:#ff0000;" x="167.124263" xlink:href="#m4850224d19" y="117.082999"/>
     <use style="fill:#ff0000;stroke:#ff0000;" x="168.057179" xlink:href="#m4850224d19" y="110.90647"/>
     <use style="fill:#ff0000;stroke:#ff0000;" x="168.990094" xlink:href="#m4850224d19" y="119.032016"/>
     <use style="fill:#ff0000;stroke:#ff0000;" x="169.923009" xlink:href="#m4850224d19" y="119.032016"/>
     <use style="fill:#ff0000;stroke:#ff0000;" x="170.855925" xlink:href="#m4850224d19" y="113.026414"/>
     <use style="fill:#ff0000;stroke:#ff0000;" x="171.78884" xlink:href="#m4850224d19" y="113.026414"/>
     <use style="fill:#ff0000;stroke:#ff0000;" x="172.721755" xlink:href="#m4850224d19" y="120.820247"/>
     <use style="fill:#ff0000;stroke:#ff0000;" x="173.654671" xlink:href="#m4850224d19" y="120.820247"/>
     <use style="fill:#ff0000;stroke:#ff0000;" x="174.587586" xlink:href="#m4850224d19" y="114.123175"/>
     <use style="fill:#ff0000;stroke:#ff0000;" x="175.520502" xlink:href="#m4850224d19" y="114.123175"/>
     <use style="fill:#ff0000;stroke:#ff0000;" x="176.453417" xlink:href="#m4850224d19" y="114.123175"/>
     <use style="fill:#ff0000;stroke:#ff0000;" x="177.386332" xlink:href="#m4850224d19" y="114.123175"/>
     <use style="fill:#ff0000;stroke:#ff0000;" x="178.319248" xlink:href="#m4850224d19" y="114.123175"/>
     <use style="fill:#ff0000;stroke:#ff0000;" x="179.252163" xlink:href="#m4850224d19" y="114.123175"/>
     <use style="fill:#ff0000;stroke:#ff0000;" x="180.185078" xlink:href="#m4850224d19" y="114.123175"/>
     <use style="fill:#ff0000;stroke:#ff0000;" x="181.117994" xlink:href="#m4850224d19" y="114.123175"/>
     <use style="fill:#ff0000;stroke:#ff0000;" x="182.050909" xlink:href="#m4850224d19" y="114.123175"/>
     <use style="fill:#ff0000;stroke:#ff0000;" x="182.983824" xlink:href="#m4850224d19" y="114.123175"/>
     <use style="fill:#ff0000;stroke:#ff0000;" x="183.91674" xlink:href="#m4850224d19" y="114.123175"/>
     <use style="fill:#ff0000;stroke:#ff0000;" x="184.849655" xlink:href="#m4850224d19" y="122.109927"/>
     <use style="fill:#ff0000;stroke:#ff0000;" x="185.782571" xlink:href="#m4850224d19" y="122.109927"/>
     <use style="fill:#ff0000;stroke:#ff0000;" x="186.715486" xlink:href="#m4850224d19" y="122.778512"/>
     <use style="fill:#ff0000;stroke:#ff0000;" x="187.648401" xlink:href="#m4850224d19" y="117.218867"/>
     <use style="fill:#ff0000;stroke:#ff0000;" x="188.581317" xlink:href="#m4850224d19" y="117.218867"/>
     <use style="fill:#ff0000;stroke:#ff0000;" x="189.514232" xlink:href="#m4850224d19" y="117.218867"/>
     <use style="fill:#ff0000;stroke:#ff0000;" x="190.447147" xlink:href="#m4850224d19" y="118.298604"/>
     <use style="fill:#ff0000;stroke:#ff0000;" x="191.380063" xlink:href="#m4850224d19" y="118.298604"/>
     <use style="fill:#ff0000;stroke:#ff0000;" x="192.312978" xlink:href="#m4850224d19" y="120.889795"/>
     <use style="fill:#ff0000;stroke:#ff0000;" x="193.245893" xlink:href="#m4850224d19" y="120.889795"/>
     <use style="fill:#ff0000;stroke:#ff0000;" x="194.178809" xlink:href="#m4850224d19" y="114.499193"/>
     <use style="fill:#ff0000;stroke:#ff0000;" x="195.111724" xlink:href="#m4850224d19" y="109.037969"/>
     <use style="fill:#ff0000;stroke:#ff0000;" x="196.044639" xlink:href="#m4850224d19" y="109.037969"/>
     <use style="fill:#ff0000;stroke:#ff0000;" x="196.977555" xlink:href="#m4850224d19" y="102.464768"/>
     <use style="fill:#ff0000;stroke:#ff0000;" x="197.91047" xlink:href="#m4850224d19" y="102.464768"/>
     <use style="fill:#ff0000;stroke:#ff0000;" x="198.843386" xlink:href="#m4850224d19" y="96.424886"/>
     <use style="fill:#ff0000;stroke:#ff0000;" x="199.776301" xlink:href="#m4850224d19" y="96.424886"/>
     <use style="fill:#ff0000;stroke:#ff0000;" x="200.709216" xlink:href="#m4850224d19" y="90.102056"/>
     <use style="fill:#ff0000;stroke:#ff0000;" x="201.642132" xlink:href="#m4850224d19" y="90.102056"/>
     <use style="fill:#ff0000;stroke:#ff0000;" x="202.575047" xlink:href="#m4850224d19" y="83.985756"/>
     <use style="fill:#ff0000;stroke:#ff0000;" x="203.507962" xlink:href="#m4850224d19" y="78.403311"/>
     <use style="fill:#ff0000;stroke:#ff0000;" x="204.440878" xlink:href="#m4850224d19" y="78.403311"/>
     <use style="fill:#ff0000;stroke:#ff0000;" x="205.373793" xlink:href="#m4850224d19" y="79.971993"/>
     <use style="fill:#ff0000;stroke:#ff0000;" x="206.306708" xlink:href="#m4850224d19" y="79.971993"/>
     <use style="fill:#ff0000;stroke:#ff0000;" x="207.239624" xlink:href="#m4850224d19" y="79.971993"/>
     <use style="fill:#ff0000;stroke:#ff0000;" x="208.172539" xlink:href="#m4850224d19" y="79.971993"/>
     <use style="fill:#ff0000;stroke:#ff0000;" x="209.105455" xlink:href="#m4850224d19" y="82.287169"/>
     <use style="fill:#ff0000;stroke:#ff0000;" x="210.03837" xlink:href="#m4850224d19" y="82.287169"/>
     <use style="fill:#ff0000;stroke:#ff0000;" x="210.971285" xlink:href="#m4850224d19" y="82.744628"/>
     <use style="fill:#ff0000;stroke:#ff0000;" x="211.904201" xlink:href="#m4850224d19" y="90.55854"/>
     <use style="fill:#ff0000;stroke:#ff0000;" x="212.837116" xlink:href="#m4850224d19" y="90.55854"/>
     <use style="fill:#ff0000;stroke:#ff0000;" x="213.770031" xlink:href="#m4850224d19" y="85.597066"/>
     <use style="fill:#ff0000;stroke:#ff0000;" x="214.702947" xlink:href="#m4850224d19" y="85.597066"/>
     <use style="fill:#ff0000;stroke:#ff0000;" x="215.635862" xlink:href="#m4850224d19" y="85.597066"/>
     <use style="fill:#ff0000;stroke:#ff0000;" x="216.568777" xlink:href="#m4850224d19" y="79.298992"/>
     <use style="fill:#ff0000;stroke:#ff0000;" x="217.501693" xlink:href="#m4850224d19" y="79.298992"/>
     <use style="fill:#ff0000;stroke:#ff0000;" x="218.434608" xlink:href="#m4850224d19" y="87.68057"/>
     <use style="fill:#ff0000;stroke:#ff0000;" x="219.367524" xlink:href="#m4850224d19" y="87.68057"/>
     <use style="fill:#ff0000;stroke:#ff0000;" x="220.300439" xlink:href="#m4850224d19" y="82.933468"/>
     <use style="fill:#ff0000;stroke:#ff0000;" x="221.233354" xlink:href="#m4850224d19" y="82.933468"/>
     <use style="fill:#ff0000;stroke:#ff0000;" x="222.16627" xlink:href="#m4850224d19" y="76.364787"/>
     <use style="fill:#ff0000;stroke:#ff0000;" x="223.099185" xlink:href="#m4850224d19" y="76.364787"/>
     <use style="fill:#ff0000;stroke:#ff0000;" x="224.0321" xlink:href="#m4850224d19" y="76.364787"/>
     <use style="fill:#ff0000;stroke:#ff0000;" x="224.965016" xlink:href="#m4850224d19" y="71.795966"/>
     <use style="fill:#ff0000;stroke:#ff0000;" x="225.897931" xlink:href="#m4850224d19" y="71.795966"/>
     <use style="fill:#ff0000;stroke:#ff0000;" x="226.830846" xlink:href="#m4850224d19" y="65.634447"/>
     <use style="fill:#ff0000;stroke:#ff0000;" x="227.763762" xlink:href="#m4850224d19" y="65.634447"/>
     <use style="fill:#ff0000;stroke:#ff0000;" x="228.696677" xlink:href="#m4850224d19" y="60.006197"/>
     <use style="fill:#ff0000;stroke:#ff0000;" x="229.629592" xlink:href="#m4850224d19" y="60.006197"/>
     <use style="fill:#ff0000;stroke:#ff0000;" x="230.562508" xlink:href="#m4850224d19" y="59.667398"/>
     <use style="fill:#ff0000;stroke:#ff0000;" x="231.495423" xlink:href="#m4850224d19" y="53.568"/>
     <use style="fill:#ff0000;stroke:#ff0000;" x="232.428339" xlink:href="#m4850224d19" y="53.568"/>
     <use style="fill:#ff0000;stroke:#ff0000;" x="233.361254" xlink:href="#m4850224d19" y="62.062267"/>
     <use style="fill:#ff0000;stroke:#ff0000;" x="234.294169" xlink:href="#m4850224d19" y="62.062267"/>
     <use style="fill:#ff0000;stroke:#ff0000;" x="235.227085" xlink:href="#m4850224d19" y="55.518827"/>
     <use style="fill:#ff0000;stroke:#ff0000;" x="236.16" xlink:href="#m4850224d19" y="55.518827"/>
     <use style="fill:#ff0000;stroke:#ff0000;" x="237.092915" xlink:href="#m4850224d19" y="55.518827"/>
     <use style="fill:#ff0000;stroke:#ff0000;" x="238.025831" xlink:href="#m4850224d19" y="55.518827"/>
     <use style="fill:#ff0000;stroke:#ff0000;" x="238.958746" xlink:href="#m4850224d19" y="55.518827"/>
     <use style="fill:#ff0000;stroke:#ff0000;" x="239.891661" xlink:href="#m4850224d19" y="63.729339"/>
     <use style="fill:#ff0000;stroke:#ff0000;" x="240.824577" xlink:href="#m4850224d19" y="63.729339"/>
     <use style="fill:#ff0000;stroke:#ff0000;" x="241.757492" xlink:href="#m4850224d19" y="58.921441"/>
     <use style="fill:#ff0000;stroke:#ff0000;" x="242.690408" xlink:href="#m4850224d19" y="67.241257"/>
     <use style="fill:#ff0000;stroke:#ff0000;" x="243.623323" xlink:href="#m4850224d19" y="67.241257"/>
     <use style="fill:#ff0000;stroke:#ff0000;" x="244.556238" xlink:href="#m4850224d19" y="60.965648"/>
     <use style="fill:#ff0000;stroke:#ff0000;" x="245.489154" xlink:href="#m4850224d19" y="60.965648"/>
     <use style="fill:#ff0000;stroke:#ff0000;" x="246.422069" xlink:href="#m4850224d19" y="54.469088"/>
     <use style="fill:#ff0000;stroke:#ff0000;" x="247.354984" xlink:href="#m4850224d19" y="54.469088"/>
     <use style="fill:#ff0000;stroke:#ff0000;" x="248.2879" xlink:href="#m4850224d19" y="54.469088"/>
     <use style="fill:#ff0000;stroke:#ff0000;" x="249.220815" xlink:href="#m4850224d19" y="54.469088"/>
     <use style="fill:#ff0000;stroke:#ff0000;" x="250.15373" xlink:href="#m4850224d19" y="54.469088"/>
     <use style="fill:#ff0000;stroke:#ff0000;" x="251.086646" xlink:href="#m4850224d19" y="54.469088"/>
     <use style="fill:#ff0000;stroke:#ff0000;" x="252.019561" xlink:href="#m4850224d19" y="54.469088"/>
     <use style="fill:#ff0000;stroke:#ff0000;" x="252.952476" xlink:href="#m4850224d19" y="54.469088"/>
     <use style="fill:#ff0000;stroke:#ff0000;" x="253.885392" xlink:href="#m4850224d19" y="54.469088"/>
     <use style="fill:#ff0000;stroke:#ff0000;" x="254.818307" xlink:href="#m4850224d19" y="54.469088"/>
     <use style="fill:#ff0000;stroke:#ff0000;" x="255.751223" xlink:href="#m4850224d19" y="54.469088"/>
     <use style="fill:#ff0000;stroke:#ff0000;" x="256.684138" xlink:href="#m4850224d19" y="54.469088"/>
     <use style="fill:#ff0000;stroke:#ff0000;" x="257.617053" xlink:href="#m4850224d19" y="54.469088"/>
     <use style="fill:#ff0000;stroke:#ff0000;" x="258.549969" xlink:href="#m4850224d19" y="54.469088"/>
     <use style="fill:#ff0000;stroke:#ff0000;" x="259.482884" xlink:href="#m4850224d19" y="54.469088"/>
     <use style="fill:#ff0000;stroke:#ff0000;" x="260.415799" xlink:href="#m4850224d19" y="54.469088"/>
     <use style="fill:#ff0000;stroke:#ff0000;" x="261.348715" xlink:href="#m4850224d19" y="54.469088"/>
     <use style="fill:#ff0000;stroke:#ff0000;" x="262.28163" xlink:href="#m4850224d19" y="54.469088"/>
     <use style="fill:#ff0000;stroke:#ff0000;" x="263.214545" xlink:href="#m4850224d19" y="54.469088"/>
     <use style="fill:#ff0000;stroke:#ff0000;" x="264.147461" xlink:href="#m4850224d19" y="54.469088"/>
     <use style="fill:#ff0000;stroke:#ff0000;" x="265.080376" xlink:href="#m4850224d19" y="54.469088"/>
     <use style="fill:#ff0000;stroke:#ff0000;" x="266.013292" xlink:href="#m4850224d19" y="54.469088"/>
     <use style="fill:#ff0000;stroke:#ff0000;" x="266.946207" xlink:href="#m4850224d19" y="54.469088"/>
     <use style="fill:#ff0000;stroke:#ff0000;" x="267.879122" xlink:href="#m4850224d19" y="54.469088"/>
     <use style="fill:#ff0000;stroke:#ff0000;" x="268.812038" xlink:href="#m4850224d19" y="54.469088"/>
     <use style="fill:#ff0000;stroke:#ff0000;" x="269.744953" xlink:href="#m4850224d19" y="54.469088"/>
     <use style="fill:#ff0000;stroke:#ff0000;" x="270.677868" xlink:href="#m4850224d19" y="54.469088"/>
     <use style="fill:#ff0000;stroke:#ff0000;" x="271.610784" xlink:href="#m4850224d19" y="54.469088"/>
     <use style="fill:#ff0000;stroke:#ff0000;" x="272.543699" xlink:href="#m4850224d19" y="54.469088"/>
     <use style="fill:#ff0000;stroke:#ff0000;" x="273.476614" xlink:href="#m4850224d19" y="54.469088"/>
     <use style="fill:#ff0000;stroke:#ff0000;" x="274.40953" xlink:href="#m4850224d19" y="54.469088"/>
     <use style="fill:#ff0000;stroke:#ff0000;" x="275.342445" xlink:href="#m4850224d19" y="54.469088"/>
     <use style="fill:#ff0000;stroke:#ff0000;" x="276.275361" xlink:href="#m4850224d19" y="54.469088"/>
     <use style="fill:#ff0000;stroke:#ff0000;" x="277.208276" xlink:href="#m4850224d19" y="54.469088"/>
     <use style="fill:#ff0000;stroke:#ff0000;" x="278.141191" xlink:href="#m4850224d19" y="54.469088"/>
     <use style="fill:#ff0000;stroke:#ff0000;" x="279.074107" xlink:href="#m4850224d19" y="54.469088"/>
     <use style="fill:#ff0000;stroke:#ff0000;" x="280.007022" xlink:href="#m4850224d19" y="54.469088"/>
     <use style="fill:#ff0000;stroke:#ff0000;" x="280.939937" xlink:href="#m4850224d19" y="54.469088"/>
     <use style="fill:#ff0000;stroke:#ff0000;" x="281.872853" xlink:href="#m4850224d19" y="54.469088"/>
     <use style="fill:#ff0000;stroke:#ff0000;" x="282.805768" xlink:href="#m4850224d19" y="54.469088"/>
     <use style="fill:#ff0000;stroke:#ff0000;" x="283.738683" xlink:href="#m4850224d19" y="54.469088"/>
     <use style="fill:#ff0000;stroke:#ff0000;" x="284.671599" xlink:href="#m4850224d19" y="54.469088"/>
     <use style="fill:#ff0000;stroke:#ff0000;" x="285.604514" xlink:href="#m4850224d19" y="54.469088"/>
     <use style="fill:#ff0000;stroke:#ff0000;" x="286.537429" xlink:href="#m4850224d19" y="54.469088"/>
     <use style="fill:#ff0000;stroke:#ff0000;" x="287.470345" xlink:href="#m4850224d19" y="54.469088"/>
     <use style="fill:#ff0000;stroke:#ff0000;" x="288.40326" xlink:href="#m4850224d19" y="54.469088"/>
     <use style="fill:#ff0000;stroke:#ff0000;" x="289.336176" xlink:href="#m4850224d19" y="54.469088"/>
     <use style="fill:#ff0000;stroke:#ff0000;" x="290.269091" xlink:href="#m4850224d19" y="54.469088"/>
     <use style="fill:#ff0000;stroke:#ff0000;" x="291.202006" xlink:href="#m4850224d19" y="54.469088"/>
     <use style="fill:#ff0000;stroke:#ff0000;" x="292.134922" xlink:href="#m4850224d19" y="54.469088"/>
     <use style="fill:#ff0000;stroke:#ff0000;" x="293.067837" xlink:href="#m4850224d19" y="54.469088"/>
     <use style="fill:#ff0000;stroke:#ff0000;" x="294.000752" xlink:href="#m4850224d19" y="54.469088"/>
     <use style="fill:#ff0000;stroke:#ff0000;" x="294.933668" xlink:href="#m4850224d19" y="54.469088"/>
     <use style="fill:#ff0000;stroke:#ff0000;" x="295.866583" xlink:href="#m4850224d19" y="54.469088"/>
     <use style="fill:#ff0000;stroke:#ff0000;" x="296.799498" xlink:href="#m4850224d19" y="54.469088"/>
     <use style="fill:#ff0000;stroke:#ff0000;" x="297.732414" xlink:href="#m4850224d19" y="54.469088"/>
     <use style="fill:#ff0000;stroke:#ff0000;" x="298.665329" xlink:href="#m4850224d19" y="54.469088"/>
     <use style="fill:#ff0000;stroke:#ff0000;" x="299.598245" xlink:href="#m4850224d19" y="54.469088"/>
     <use style="fill:#ff0000;stroke:#ff0000;" x="300.53116" xlink:href="#m4850224d19" y="54.469088"/>
     <use style="fill:#ff0000;stroke:#ff0000;" x="301.464075" xlink:href="#m4850224d19" y="54.469088"/>
     <use style="fill:#ff0000;stroke:#ff0000;" x="302.396991" xlink:href="#m4850224d19" y="54.469088"/>
     <use style="fill:#ff0000;stroke:#ff0000;" x="303.329906" xlink:href="#m4850224d19" y="54.469088"/>
     <use style="fill:#ff0000;stroke:#ff0000;" x="304.262821" xlink:href="#m4850224d19" y="54.469088"/>
     <use style="fill:#ff0000;stroke:#ff0000;" x="305.195737" xlink:href="#m4850224d19" y="54.469088"/>
     <use style="fill:#ff0000;stroke:#ff0000;" x="306.128652" xlink:href="#m4850224d19" y="54.469088"/>
     <use style="fill:#ff0000;stroke:#ff0000;" x="307.061567" xlink:href="#m4850224d19" y="54.469088"/>
     <use style="fill:#ff0000;stroke:#ff0000;" x="307.994483" xlink:href="#m4850224d19" y="54.469088"/>
     <use style="fill:#ff0000;stroke:#ff0000;" x="308.927398" xlink:href="#m4850224d19" y="54.469088"/>
     <use style="fill:#ff0000;stroke:#ff0000;" x="309.860313" xlink:href="#m4850224d19" y="54.469088"/>
     <use style="fill:#ff0000;stroke:#ff0000;" x="310.793229" xlink:href="#m4850224d19" y="54.469088"/>
     <use style="fill:#ff0000;stroke:#ff0000;" x="311.726144" xlink:href="#m4850224d19" y="54.469088"/>
     <use style="fill:#ff0000;stroke:#ff0000;" x="312.65906" xlink:href="#m4850224d19" y="54.469088"/>
     <use style="fill:#ff0000;stroke:#ff0000;" x="313.591975" xlink:href="#m4850224d19" y="54.469088"/>
     <use style="fill:#ff0000;stroke:#ff0000;" x="314.52489" xlink:href="#m4850224d19" y="54.469088"/>
     <use style="fill:#ff0000;stroke:#ff0000;" x="315.457806" xlink:href="#m4850224d19" y="54.469088"/>
     <use style="fill:#ff0000;stroke:#ff0000;" x="316.390721" xlink:href="#m4850224d19" y="54.469088"/>
     <use style="fill:#ff0000;stroke:#ff0000;" x="317.323636" xlink:href="#m4850224d19" y="54.469088"/>
     <use style="fill:#ff0000;stroke:#ff0000;" x="318.256552" xlink:href="#m4850224d19" y="54.469088"/>
     <use style="fill:#ff0000;stroke:#ff0000;" x="319.189467" xlink:href="#m4850224d19" y="54.469088"/>
     <use style="fill:#ff0000;stroke:#ff0000;" x="320.122382" xlink:href="#m4850224d19" y="54.469088"/>
     <use style="fill:#ff0000;stroke:#ff0000;" x="321.055298" xlink:href="#m4850224d19" y="54.469088"/>
     <use style="fill:#ff0000;stroke:#ff0000;" x="321.988213" xlink:href="#m4850224d19" y="54.469088"/>
     <use style="fill:#ff0000;stroke:#ff0000;" x="322.921129" xlink:href="#m4850224d19" y="54.469088"/>
     <use style="fill:#ff0000;stroke:#ff0000;" x="323.854044" xlink:href="#m4850224d19" y="54.469088"/>
     <use style="fill:#ff0000;stroke:#ff0000;" x="324.786959" xlink:href="#m4850224d19" y="54.469088"/>
     <use style="fill:#ff0000;stroke:#ff0000;" x="325.719875" xlink:href="#m4850224d19" y="54.469088"/>
     <use style="fill:#ff0000;stroke:#ff0000;" x="326.65279" xlink:href="#m4850224d19" y="54.469088"/>
     <use style="fill:#ff0000;stroke:#ff0000;" x="327.585705" xlink:href="#m4850224d19" y="54.469088"/>
     <use style="fill:#ff0000;stroke:#ff0000;" x="328.518621" xlink:href="#m4850224d19" y="54.469088"/>
     <use style="fill:#ff0000;stroke:#ff0000;" x="329.451536" xlink:href="#m4850224d19" y="54.469088"/>
     <use style="fill:#ff0000;stroke:#ff0000;" x="330.384451" xlink:href="#m4850224d19" y="54.469088"/>
     <use style="fill:#ff0000;stroke:#ff0000;" x="331.317367" xlink:href="#m4850224d19" y="54.469088"/>
     <use style="fill:#ff0000;stroke:#ff0000;" x="332.250282" xlink:href="#m4850224d19" y="54.469088"/>
     <use style="fill:#ff0000;stroke:#ff0000;" x="333.183197" xlink:href="#m4850224d19" y="54.469088"/>
     <use style="fill:#ff0000;stroke:#ff0000;" x="334.116113" xlink:href="#m4850224d19" y="54.469088"/>
     <use style="fill:#ff0000;stroke:#ff0000;" x="335.049028" xlink:href="#m4850224d19" y="54.469088"/>
     <use style="fill:#ff0000;stroke:#ff0000;" x="335.981944" xlink:href="#m4850224d19" y="54.469088"/>
     <use style="fill:#ff0000;stroke:#ff0000;" x="336.914859" xlink:href="#m4850224d19" y="54.469088"/>
     <use style="fill:#ff0000;stroke:#ff0000;" x="337.847774" xlink:href="#m4850224d19" y="54.469088"/>
     <use style="fill:#ff0000;stroke:#ff0000;" x="338.78069" xlink:href="#m4850224d19" y="54.469088"/>
     <use style="fill:#ff0000;stroke:#ff0000;" x="339.713605" xlink:href="#m4850224d19" y="54.469088"/>
     <use style="fill:#ff0000;stroke:#ff0000;" x="340.64652" xlink:href="#m4850224d19" y="54.469088"/>
     <use style="fill:#ff0000;stroke:#ff0000;" x="341.579436" xlink:href="#m4850224d19" y="54.469088"/>
     <use style="fill:#ff0000;stroke:#ff0000;" x="342.512351" xlink:href="#m4850224d19" y="54.469088"/>
     <use style="fill:#ff0000;stroke:#ff0000;" x="343.445266" xlink:href="#m4850224d19" y="54.469088"/>
     <use style="fill:#ff0000;stroke:#ff0000;" x="344.378182" xlink:href="#m4850224d19" y="54.469088"/>
     <use style="fill:#ff0000;stroke:#ff0000;" x="345.311097" xlink:href="#m4850224d19" y="54.469088"/>
     <use style="fill:#ff0000;stroke:#ff0000;" x="346.244013" xlink:href="#m4850224d19" y="54.469088"/>
     <use style="fill:#ff0000;stroke:#ff0000;" x="347.176928" xlink:href="#m4850224d19" y="54.469088"/>
     <use style="fill:#ff0000;stroke:#ff0000;" x="348.109843" xlink:href="#m4850224d19" y="54.469088"/>
     <use style="fill:#ff0000;stroke:#ff0000;" x="349.042759" xlink:href="#m4850224d19" y="54.469088"/>
     <use style="fill:#ff0000;stroke:#ff0000;" x="349.975674" xlink:href="#m4850224d19" y="54.469088"/>
     <use style="fill:#ff0000;stroke:#ff0000;" x="350.908589" xlink:href="#m4850224d19" y="54.469088"/>
     <use style="fill:#ff0000;stroke:#ff0000;" x="351.841505" xlink:href="#m4850224d19" y="54.469088"/>
     <use style="fill:#ff0000;stroke:#ff0000;" x="352.77442" xlink:href="#m4850224d19" y="54.469088"/>
     <use style="fill:#ff0000;stroke:#ff0000;" x="353.707335" xlink:href="#m4850224d19" y="54.469088"/>
     <use style="fill:#ff0000;stroke:#ff0000;" x="354.640251" xlink:href="#m4850224d19" y="54.469088"/>
     <use style="fill:#ff0000;stroke:#ff0000;" x="355.573166" xlink:href="#m4850224d19" y="54.469088"/>
     <use style="fill:#ff0000;stroke:#ff0000;" x="356.506082" xlink:href="#m4850224d19" y="54.469088"/>
     <use style="fill:#ff0000;stroke:#ff0000;" x="357.438997" xlink:href="#m4850224d19" y="54.469088"/>
     <use style="fill:#ff0000;stroke:#ff0000;" x="358.371912" xlink:href="#m4850224d19" y="54.469088"/>
     <use style="fill:#ff0000;stroke:#ff0000;" x="359.304828" xlink:href="#m4850224d19" y="54.469088"/>
     <use style="fill:#ff0000;stroke:#ff0000;" x="360.237743" xlink:href="#m4850224d19" y="54.469088"/>
     <use style="fill:#ff0000;stroke:#ff0000;" x="361.170658" xlink:href="#m4850224d19" y="54.469088"/>
     <use style="fill:#ff0000;stroke:#ff0000;" x="362.103574" xlink:href="#m4850224d19" y="54.469088"/>
     <use style="fill:#ff0000;stroke:#ff0000;" x="363.036489" xlink:href="#m4850224d19" y="54.469088"/>
     <use style="fill:#ff0000;stroke:#ff0000;" x="363.969404" xlink:href="#m4850224d19" y="54.469088"/>
     <use style="fill:#ff0000;stroke:#ff0000;" x="364.90232" xlink:href="#m4850224d19" y="54.469088"/>
     <use style="fill:#ff0000;stroke:#ff0000;" x="365.835235" xlink:href="#m4850224d19" y="54.469088"/>
     <use style="fill:#ff0000;stroke:#ff0000;" x="366.76815" xlink:href="#m4850224d19" y="54.469088"/>
     <use style="fill:#ff0000;stroke:#ff0000;" x="367.701066" xlink:href="#m4850224d19" y="54.469088"/>
     <use style="fill:#ff0000;stroke:#ff0000;" x="368.633981" xlink:href="#m4850224d19" y="54.469088"/>
     <use style="fill:#ff0000;stroke:#ff0000;" x="369.566897" xlink:href="#m4850224d19" y="54.469088"/>
     <use style="fill:#ff0000;stroke:#ff0000;" x="370.499812" xlink:href="#m4850224d19" y="54.469088"/>
     <use style="fill:#ff0000;stroke:#ff0000;" x="371.432727" xlink:href="#m4850224d19" y="54.469088"/>
     <use style="fill:#ff0000;stroke:#ff0000;" x="372.365643" xlink:href="#m4850224d19" y="54.469088"/>
     <use style="fill:#ff0000;stroke:#ff0000;" x="373.298558" xlink:href="#m4850224d19" y="54.469088"/>
     <use style="fill:#ff0000;stroke:#ff0000;" x="374.231473" xlink:href="#m4850224d19" y="54.469088"/>
     <use style="fill:#ff0000;stroke:#ff0000;" x="375.164389" xlink:href="#m4850224d19" y="54.469088"/>
     <use style="fill:#ff0000;stroke:#ff0000;" x="376.097304" xlink:href="#m4850224d19" y="54.469088"/>
     <use style="fill:#ff0000;stroke:#ff0000;" x="377.030219" xlink:href="#m4850224d19" y="54.469088"/>
     <use style="fill:#ff0000;stroke:#ff0000;" x="377.963135" xlink:href="#m4850224d19" y="54.469088"/>
     <use style="fill:#ff0000;stroke:#ff0000;" x="378.89605" xlink:href="#m4850224d19" y="54.469088"/>
     <use style="fill:#ff0000;stroke:#ff0000;" x="379.828966" xlink:href="#m4850224d19" y="54.469088"/>
     <use style="fill:#ff0000;stroke:#ff0000;" x="380.761881" xlink:href="#m4850224d19" y="54.469088"/>
     <use style="fill:#ff0000;stroke:#ff0000;" x="381.694796" xlink:href="#m4850224d19" y="54.469088"/>
     <use style="fill:#ff0000;stroke:#ff0000;" x="382.627712" xlink:href="#m4850224d19" y="54.469088"/>
     <use style="fill:#ff0000;stroke:#ff0000;" x="383.560627" xlink:href="#m4850224d19" y="54.469088"/>
     <use style="fill:#ff0000;stroke:#ff0000;" x="384.493542" xlink:href="#m4850224d19" y="54.469088"/>
     <use style="fill:#ff0000;stroke:#ff0000;" x="385.426458" xlink:href="#m4850224d19" y="54.469088"/>
     <use style="fill:#ff0000;stroke:#ff0000;" x="386.359373" xlink:href="#m4850224d19" y="54.469088"/>
     <use style="fill:#ff0000;stroke:#ff0000;" x="387.292288" xlink:href="#m4850224d19" y="54.469088"/>
     <use style="fill:#ff0000;stroke:#ff0000;" x="388.225204" xlink:href="#m4850224d19" y="54.469088"/>
     <use style="fill:#ff0000;stroke:#ff0000;" x="389.158119" xlink:href="#m4850224d19" y="54.469088"/>
     <use style="fill:#ff0000;stroke:#ff0000;" x="390.091034" xlink:href="#m4850224d19" y="54.469088"/>
     <use style="fill:#ff0000;stroke:#ff0000;" x="391.02395" xlink:href="#m4850224d19" y="54.469088"/>
     <use style="fill:#ff0000;stroke:#ff0000;" x="391.956865" xlink:href="#m4850224d19" y="54.469088"/>
     <use style="fill:#ff0000;stroke:#ff0000;" x="392.889781" xlink:href="#m4850224d19" y="54.469088"/>
     <use style="fill:#ff0000;stroke:#ff0000;" x="393.822696" xlink:href="#m4850224d19" y="54.469088"/>
     <use style="fill:#ff0000;stroke:#ff0000;" x="394.755611" xlink:href="#m4850224d19" y="54.469088"/>
     <use style="fill:#ff0000;stroke:#ff0000;" x="395.688527" xlink:href="#m4850224d19" y="54.469088"/>
     <use style="fill:#ff0000;stroke:#ff0000;" x="396.621442" xlink:href="#m4850224d19" y="54.469088"/>
     <use style="fill:#ff0000;stroke:#ff0000;" x="397.554357" xlink:href="#m4850224d19" y="54.469088"/>
     <use style="fill:#ff0000;stroke:#ff0000;" x="398.487273" xlink:href="#m4850224d19" y="54.469088"/>
    </g>
   </g>
   <g id="patch_3">
    <path d="M 57.6 307.584 
L 57.6 41.472 
" style="fill:none;stroke:#000000;stroke-linecap:square;stroke-linejoin:miter;stroke-width:0.8;"/>
   </g>
   <g id="patch_4">
    <path d="M 414.72 307.584 
L 414.72 41.472 
" style="fill:none;stroke:#000000;stroke-linecap:square;stroke-linejoin:miter;stroke-width:0.8;"/>
   </g>
   <g id="patch_5">
    <path d="M 57.6 307.584 
L 414.72 307.584 
" style="fill:none;stroke:#000000;stroke-linecap:square;stroke-linejoin:miter;stroke-width:0.8;"/>
   </g>
   <g id="patch_6">
    <path d="M 57.6 41.472 
L 414.72 41.472 
" style="fill:none;stroke:#000000;stroke-linecap:square;stroke-linejoin:miter;stroke-width:0.8;"/>
   </g>
  </g>
 </g>
 <defs>
  <clipPath id="p4ef71a5920">
   <rect height="266.112" width="357.12" x="57.6" y="41.472"/>
  </clipPath>
 </defs>
</svg>
