<?xml version="1.0" encoding="utf-8" standalone="no"?>
<!DOCTYPE svg PUBLIC "-//W3C//DTD SVG 1.1//EN"
  "http://www.w3.org/Graphics/SVG/1.1/DTD/svg11.dtd">
<!-- Created with matplotlib (https://matplotlib.org/) -->
<svg height="345.6pt" version="1.1" viewBox="0 0 460.8 345.6" width="460.8pt" xmlns="http://www.w3.org/2000/svg" xmlns:xlink="http://www.w3.org/1999/xlink">
 <defs>
  <style type="text/css">
*{stroke-linecap:butt;stroke-linejoin:round;}
  </style>
 </defs>
 <g id="figure_1">
  <g id="patch_1">
   <path d="M 0 345.6 
L 460.8 345.6 
L 460.8 0 
L 0 0 
z
" style="fill:#ffffff;"/>
  </g>
  <g id="axes_1">
   <g id="patch_2">
    <path d="M 57.6 307.584 
L 414.72 307.584 
L 414.72 41.472 
L 57.6 41.472 
z
" style="fill:#ffffff;"/>
   </g>
   <g id="line2d_1">
    <path clip-path="url(#p8d16e5d9df)" d="M 73.832727 273.497892 
L 80.008221 273.497892 
L 80.890435 295.488 
L 81.772648 295.488 
L 82.654862 272.911535 
L 84.419289 272.911535 
L 85.301502 250.577072 
L 86.183715 250.577072 
L 87.065929 231.374219 
L 87.948142 231.374219 
L 88.830356 236.505499 
L 89.712569 215.741254 
L 91.476996 215.741254 
L 92.359209 193.37703 
L 93.241423 193.37703 
L 94.123636 173.863157 
L 95.00585 198.221021 
L 96.770277 198.221021 
L 97.65249 191.199235 
L 98.534704 191.199235 
L 99.416917 198.253521 
L 100.29913 198.253521 
L 101.181344 191.243146 
L 102.063557 190.604994 
L 102.945771 190.604994 
L 103.827984 183.901586 
L 104.710198 183.901586 
L 105.592411 177.245996 
L 106.474625 177.245996 
L 107.356838 185.320227 
L 109.121265 185.320227 
L 110.003478 192.922261 
L 110.885692 192.922261 
L 111.767905 186.174463 
L 112.650119 186.174463 
L 113.532332 185.731405 
L 114.414545 185.731405 
L 115.296759 192.752877 
L 116.178972 192.752877 
L 117.061186 186.65505 
L 117.943399 186.65505 
L 118.825613 180.222482 
L 119.707826 180.222482 
L 120.59004 173.728875 
L 121.472253 173.728875 
L 122.354466 181.877082 
L 123.23668 181.877082 
L 124.118893 174.981184 
L 125.001107 174.981184 
L 125.88332 174.860188 
L 126.765534 174.860188 
L 127.647747 168.521091 
L 128.52996 170.039393 
L 129.412174 170.039393 
L 130.294387 163.26183 
L 131.176601 163.26183 
L 132.058814 156.180446 
L 132.941028 156.180446 
L 133.823241 150.416563 
L 135.587668 150.416563 
L 136.469881 143.526964 
L 138.234308 143.526964 
L 139.116522 145.410122 
L 139.998735 145.410122 
L 140.880949 139.359079 
L 141.763162 139.359079 
L 142.645375 139.973857 
L 143.527589 139.973857 
L 144.409802 133.740199 
L 149.703083 133.740147 
L 150.585296 127.219694 
L 151.46751 127.219694 
L 152.349723 127.013821 
L 154.11415 127.013821 
L 154.996364 121.733206 
L 155.878577 121.733206 
L 156.760791 129.60799 
L 158.525217 129.60799 
L 159.407431 123.225987 
L 160.289644 123.225987 
L 161.171858 117.082999 
L 162.054071 117.082999 
L 162.936285 110.90647 
L 163.818498 119.032016 
L 164.700711 119.032016 
L 165.582925 113.026414 
L 166.465138 113.026414 
L 167.347352 120.820247 
L 168.229565 120.820247 
L 169.111779 114.123175 
L 177.933913 114.123175 
L 178.816126 122.109927 
L 179.69834 122.109927 
L 180.580553 122.778512 
L 181.462767 117.218867 
L 183.227194 117.218867 
L 184.109407 118.298604 
L 184.991621 118.298604 
L 185.873834 120.889795 
L 186.756047 120.889795 
L 187.638261 114.499193 
L 188.520474 109.037969 
L 189.402688 109.037969 
L 190.284901 102.464768 
L 191.167115 102.464768 
L 192.049328 96.424886 
L 192.931542 96.424886 
L 193.813755 90.102056 
L 194.695968 90.102056 
L 196.460395 78.403311 
L 197.342609 78.403311 
L 198.224822 79.971993 
L 200.871462 79.971993 
L 201.753676 82.287169 
L 202.635889 82.287169 
L 203.518103 82.744628 
L 204.400316 90.55854 
L 205.28253 90.55854 
L 206.164743 85.597066 
L 207.92917 85.597066 
L 208.811383 79.298992 
L 209.693597 79.298992 
L 210.57581 87.68057 
L 211.458024 87.68057 
L 212.340237 82.933468 
L 213.222451 82.933468 
L 214.104664 76.364787 
L 215.869091 76.364787 
L 216.751304 71.795966 
L 217.633518 71.795966 
L 218.515731 65.634447 
L 219.397945 65.634447 
L 220.280158 60.006197 
L 221.162372 60.006197 
L 222.044585 59.667398 
L 222.926798 53.568 
L 223.809012 53.568 
L 224.691225 62.062267 
L 225.573439 62.062267 
L 226.455652 55.518827 
L 229.984506 55.518827 
L 230.866719 63.729339 
L 231.748933 63.729339 
L 232.631146 58.921441 
L 233.51336 67.241257 
L 234.395573 67.241257 
L 235.277787 60.965648 
L 236.16 60.965648 
L 237.042213 54.469088 
L 398.487273 54.469088 
L 398.487273 54.469088 
" style="fill:none;stroke:#ff0000;stroke-linecap:square;stroke-width:12;"/>
    <defs>
     <path d="M 0 3 
C 0.795609 3 1.55874 2.683901 2.12132 2.12132 
C 2.683901 1.55874 3 0.795609 3 0 
C 3 -0.795609 2.683901 -1.55874 2.12132 -2.12132 
C 1.55874 -2.683901 0.795609 -3 0 -3 
C -0.795609 -3 -1.55874 -2.683901 -2.12132 -2.12132 
C -2.683901 -1.55874 -3 -0.795609 -3 0 
C -3 0.795609 -2.683901 1.55874 -2.12132 2.12132 
C -1.55874 2.683901 -0.795609 3 0 3 
z
" id="mb1252036af" style="stroke:#ff0000;"/>
    </defs>
    <g clip-path="url(#p8d16e5d9df)">
     <use style="fill:#ff0000;stroke:#ff0000;" x="73.832727" xlink:href="#mb1252036af" y="273.497892"/>
     <use style="fill:#ff0000;stroke:#ff0000;" x="74.714941" xlink:href="#mb1252036af" y="273.497892"/>
     <use style="fill:#ff0000;stroke:#ff0000;" x="75.597154" xlink:href="#mb1252036af" y="273.497892"/>
     <use style="fill:#ff0000;stroke:#ff0000;" x="76.479368" xlink:href="#mb1252036af" y="273.497892"/>
     <use style="fill:#ff0000;stroke:#ff0000;" x="77.361581" xlink:href="#mb1252036af" y="273.497892"/>
     <use style="fill:#ff0000;stroke:#ff0000;" x="78.243794" xlink:href="#mb1252036af" y="273.497892"/>
     <use style="fill:#ff0000;stroke:#ff0000;" x="79.126008" xlink:href="#mb1252036af" y="273.497892"/>
     <use style="fill:#ff0000;stroke:#ff0000;" x="80.008221" xlink:href="#mb1252036af" y="273.497892"/>
     <use style="fill:#ff0000;stroke:#ff0000;" x="80.890435" xlink:href="#mb1252036af" y="295.488"/>
     <use style="fill:#ff0000;stroke:#ff0000;" x="81.772648" xlink:href="#mb1252036af" y="295.488"/>
     <use style="fill:#ff0000;stroke:#ff0000;" x="82.654862" xlink:href="#mb1252036af" y="272.911535"/>
     <use style="fill:#ff0000;stroke:#ff0000;" x="83.537075" xlink:href="#mb1252036af" y="272.911535"/>
     <use style="fill:#ff0000;stroke:#ff0000;" x="84.419289" xlink:href="#mb1252036af" y="272.911535"/>
     <use style="fill:#ff0000;stroke:#ff0000;" x="85.301502" xlink:href="#mb1252036af" y="250.577072"/>
     <use style="fill:#ff0000;stroke:#ff0000;" x="86.183715" xlink:href="#mb1252036af" y="250.577072"/>
     <use style="fill:#ff0000;stroke:#ff0000;" x="87.065929" xlink:href="#mb1252036af" y="231.374219"/>
     <use style="fill:#ff0000;stroke:#ff0000;" x="87.948142" xlink:href="#mb1252036af" y="231.374219"/>
     <use style="fill:#ff0000;stroke:#ff0000;" x="88.830356" xlink:href="#mb1252036af" y="236.505499"/>
     <use style="fill:#ff0000;stroke:#ff0000;" x="89.712569" xlink:href="#mb1252036af" y="215.741254"/>
     <use style="fill:#ff0000;stroke:#ff0000;" x="90.594783" xlink:href="#mb1252036af" y="215.741254"/>
     <use style="fill:#ff0000;stroke:#ff0000;" x="91.476996" xlink:href="#mb1252036af" y="215.741254"/>
     <use style="fill:#ff0000;stroke:#ff0000;" x="92.359209" xlink:href="#mb1252036af" y="193.37703"/>
     <use style="fill:#ff0000;stroke:#ff0000;" x="93.241423" xlink:href="#mb1252036af" y="193.37703"/>
     <use style="fill:#ff0000;stroke:#ff0000;" x="94.123636" xlink:href="#mb1252036af" y="173.863157"/>
     <use style="fill:#ff0000;stroke:#ff0000;" x="95.00585" xlink:href="#mb1252036af" y="198.221021"/>
     <use style="fill:#ff0000;stroke:#ff0000;" x="95.888063" xlink:href="#mb1252036af" y="198.221021"/>
     <use style="fill:#ff0000;stroke:#ff0000;" x="96.770277" xlink:href="#mb1252036af" y="198.221021"/>
     <use style="fill:#ff0000;stroke:#ff0000;" x="97.65249" xlink:href="#mb1252036af" y="191.199235"/>
     <use style="fill:#ff0000;stroke:#ff0000;" x="98.534704" xlink:href="#mb1252036af" y="191.199235"/>
     <use style="fill:#ff0000;stroke:#ff0000;" x="99.416917" xlink:href="#mb1252036af" y="198.253521"/>
     <use style="fill:#ff0000;stroke:#ff0000;" x="100.29913" xlink:href="#mb1252036af" y="198.253521"/>
     <use style="fill:#ff0000;stroke:#ff0000;" x="101.181344" xlink:href="#mb1252036af" y="191.243146"/>
     <use style="fill:#ff0000;stroke:#ff0000;" x="102.063557" xlink:href="#mb1252036af" y="190.604994"/>
     <use style="fill:#ff0000;stroke:#ff0000;" x="102.945771" xlink:href="#mb1252036af" y="190.604994"/>
     <use style="fill:#ff0000;stroke:#ff0000;" x="103.827984" xlink:href="#mb1252036af" y="183.901586"/>
     <use style="fill:#ff0000;stroke:#ff0000;" x="104.710198" xlink:href="#mb1252036af" y="183.901586"/>
     <use style="fill:#ff0000;stroke:#ff0000;" x="105.592411" xlink:href="#mb1252036af" y="177.245996"/>
     <use style="fill:#ff0000;stroke:#ff0000;" x="106.474625" xlink:href="#mb1252036af" y="177.245996"/>
     <use style="fill:#ff0000;stroke:#ff0000;" x="107.356838" xlink:href="#mb1252036af" y="185.320227"/>
     <use style="fill:#ff0000;stroke:#ff0000;" x="108.239051" xlink:href="#mb1252036af" y="185.320227"/>
     <use style="fill:#ff0000;stroke:#ff0000;" x="109.121265" xlink:href="#mb1252036af" y="185.320227"/>
     <use style="fill:#ff0000;stroke:#ff0000;" x="110.003478" xlink:href="#mb1252036af" y="192.922261"/>
     <use style="fill:#ff0000;stroke:#ff0000;" x="110.885692" xlink:href="#mb1252036af" y="192.922261"/>
     <use style="fill:#ff0000;stroke:#ff0000;" x="111.767905" xlink:href="#mb1252036af" y="186.174463"/>
     <use style="fill:#ff0000;stroke:#ff0000;" x="112.650119" xlink:href="#mb1252036af" y="186.174463"/>
     <use style="fill:#ff0000;stroke:#ff0000;" x="113.532332" xlink:href="#mb1252036af" y="185.731405"/>
     <use style="fill:#ff0000;stroke:#ff0000;" x="114.414545" xlink:href="#mb1252036af" y="185.731405"/>
     <use style="fill:#ff0000;stroke:#ff0000;" x="115.296759" xlink:href="#mb1252036af" y="192.752877"/>
     <use style="fill:#ff0000;stroke:#ff0000;" x="116.178972" xlink:href="#mb1252036af" y="192.752877"/>
     <use style="fill:#ff0000;stroke:#ff0000;" x="117.061186" xlink:href="#mb1252036af" y="186.65505"/>
     <use style="fill:#ff0000;stroke:#ff0000;" x="117.943399" xlink:href="#mb1252036af" y="186.65505"/>
     <use style="fill:#ff0000;stroke:#ff0000;" x="118.825613" xlink:href="#mb1252036af" y="180.222482"/>
     <use style="fill:#ff0000;stroke:#ff0000;" x="119.707826" xlink:href="#mb1252036af" y="180.222482"/>
     <use style="fill:#ff0000;stroke:#ff0000;" x="120.59004" xlink:href="#mb1252036af" y="173.728875"/>
     <use style="fill:#ff0000;stroke:#ff0000;" x="121.472253" xlink:href="#mb1252036af" y="173.728875"/>
     <use style="fill:#ff0000;stroke:#ff0000;" x="122.354466" xlink:href="#mb1252036af" y="181.877082"/>
     <use style="fill:#ff0000;stroke:#ff0000;" x="123.23668" xlink:href="#mb1252036af" y="181.877082"/>
     <use style="fill:#ff0000;stroke:#ff0000;" x="124.118893" xlink:href="#mb1252036af" y="174.981184"/>
     <use style="fill:#ff0000;stroke:#ff0000;" x="125.001107" xlink:href="#mb1252036af" y="174.981184"/>
     <use style="fill:#ff0000;stroke:#ff0000;" x="125.88332" xlink:href="#mb1252036af" y="174.860188"/>
     <use style="fill:#ff0000;stroke:#ff0000;" x="126.765534" xlink:href="#mb1252036af" y="174.860188"/>
     <use style="fill:#ff0000;stroke:#ff0000;" x="127.647747" xlink:href="#mb1252036af" y="168.521091"/>
     <use style="fill:#ff0000;stroke:#ff0000;" x="128.52996" xlink:href="#mb1252036af" y="170.039393"/>
     <use style="fill:#ff0000;stroke:#ff0000;" x="129.412174" xlink:href="#mb1252036af" y="170.039393"/>
     <use style="fill:#ff0000;stroke:#ff0000;" x="130.294387" xlink:href="#mb1252036af" y="163.26183"/>
     <use style="fill:#ff0000;stroke:#ff0000;" x="131.176601" xlink:href="#mb1252036af" y="163.26183"/>
     <use style="fill:#ff0000;stroke:#ff0000;" x="132.058814" xlink:href="#mb1252036af" y="156.180446"/>
     <use style="fill:#ff0000;stroke:#ff0000;" x="132.941028" xlink:href="#mb1252036af" y="156.180446"/>
     <use style="fill:#ff0000;stroke:#ff0000;" x="133.823241" xlink:href="#mb1252036af" y="150.416563"/>
     <use style="fill:#ff0000;stroke:#ff0000;" x="134.705455" xlink:href="#mb1252036af" y="150.416563"/>
     <use style="fill:#ff0000;stroke:#ff0000;" x="135.587668" xlink:href="#mb1252036af" y="150.416563"/>
     <use style="fill:#ff0000;stroke:#ff0000;" x="136.469881" xlink:href="#mb1252036af" y="143.526964"/>
     <use style="fill:#ff0000;stroke:#ff0000;" x="137.352095" xlink:href="#mb1252036af" y="143.526964"/>
     <use style="fill:#ff0000;stroke:#ff0000;" x="138.234308" xlink:href="#mb1252036af" y="143.526964"/>
     <use style="fill:#ff0000;stroke:#ff0000;" x="139.116522" xlink:href="#mb1252036af" y="145.410122"/>
     <use style="fill:#ff0000;stroke:#ff0000;" x="139.998735" xlink:href="#mb1252036af" y="145.410122"/>
     <use style="fill:#ff0000;stroke:#ff0000;" x="140.880949" xlink:href="#mb1252036af" y="139.359079"/>
     <use style="fill:#ff0000;stroke:#ff0000;" x="141.763162" xlink:href="#mb1252036af" y="139.359079"/>
     <use style="fill:#ff0000;stroke:#ff0000;" x="142.645375" xlink:href="#mb1252036af" y="139.973857"/>
     <use style="fill:#ff0000;stroke:#ff0000;" x="143.527589" xlink:href="#mb1252036af" y="139.973857"/>
     <use style="fill:#ff0000;stroke:#ff0000;" x="144.409802" xlink:href="#mb1252036af" y="133.740199"/>
     <use style="fill:#ff0000;stroke:#ff0000;" x="145.292016" xlink:href="#mb1252036af" y="133.740199"/>
     <use style="fill:#ff0000;stroke:#ff0000;" x="146.174229" xlink:href="#mb1252036af" y="133.740199"/>
     <use style="fill:#ff0000;stroke:#ff0000;" x="147.056443" xlink:href="#mb1252036af" y="133.740199"/>
     <use style="fill:#ff0000;stroke:#ff0000;" x="147.938656" xlink:href="#mb1252036af" y="133.740199"/>
     <use style="fill:#ff0000;stroke:#ff0000;" x="148.82087" xlink:href="#mb1252036af" y="133.740147"/>
     <use style="fill:#ff0000;stroke:#ff0000;" x="149.703083" xlink:href="#mb1252036af" y="133.740147"/>
     <use style="fill:#ff0000;stroke:#ff0000;" x="150.585296" xlink:href="#mb1252036af" y="127.219694"/>
     <use style="fill:#ff0000;stroke:#ff0000;" x="151.46751" xlink:href="#mb1252036af" y="127.219694"/>
     <use style="fill:#ff0000;stroke:#ff0000;" x="152.349723" xlink:href="#mb1252036af" y="127.013821"/>
     <use style="fill:#ff0000;stroke:#ff0000;" x="153.231937" xlink:href="#mb1252036af" y="127.013821"/>
     <use style="fill:#ff0000;stroke:#ff0000;" x="154.11415" xlink:href="#mb1252036af" y="127.013821"/>
     <use style="fill:#ff0000;stroke:#ff0000;" x="154.996364" xlink:href="#mb1252036af" y="121.733206"/>
     <use style="fill:#ff0000;stroke:#ff0000;" x="155.878577" xlink:href="#mb1252036af" y="121.733206"/>
     <use style="fill:#ff0000;stroke:#ff0000;" x="156.760791" xlink:href="#mb1252036af" y="129.60799"/>
     <use style="fill:#ff0000;stroke:#ff0000;" x="157.643004" xlink:href="#mb1252036af" y="129.60799"/>
     <use style="fill:#ff0000;stroke:#ff0000;" x="158.525217" xlink:href="#mb1252036af" y="129.60799"/>
     <use style="fill:#ff0000;stroke:#ff0000;" x="159.407431" xlink:href="#mb1252036af" y="123.225987"/>
     <use style="fill:#ff0000;stroke:#ff0000;" x="160.289644" xlink:href="#mb1252036af" y="123.225987"/>
     <use style="fill:#ff0000;stroke:#ff0000;" x="161.171858" xlink:href="#mb1252036af" y="117.082999"/>
     <use style="fill:#ff0000;stroke:#ff0000;" x="162.054071" xlink:href="#mb1252036af" y="117.082999"/>
     <use style="fill:#ff0000;stroke:#ff0000;" x="162.936285" xlink:href="#mb1252036af" y="110.90647"/>
     <use style="fill:#ff0000;stroke:#ff0000;" x="163.818498" xlink:href="#mb1252036af" y="119.032016"/>
     <use style="fill:#ff0000;stroke:#ff0000;" x="164.700711" xlink:href="#mb1252036af" y="119.032016"/>
     <use style="fill:#ff0000;stroke:#ff0000;" x="165.582925" xlink:href="#mb1252036af" y="113.026414"/>
     <use style="fill:#ff0000;stroke:#ff0000;" x="166.465138" xlink:href="#mb1252036af" y="113.026414"/>
     <use style="fill:#ff0000;stroke:#ff0000;" x="167.347352" xlink:href="#mb1252036af" y="120.820247"/>
     <use style="fill:#ff0000;stroke:#ff0000;" x="168.229565" xlink:href="#mb1252036af" y="120.820247"/>
     <use style="fill:#ff0000;stroke:#ff0000;" x="169.111779" xlink:href="#mb1252036af" y="114.123175"/>
     <use style="fill:#ff0000;stroke:#ff0000;" x="169.993992" xlink:href="#mb1252036af" y="114.123175"/>
     <use style="fill:#ff0000;stroke:#ff0000;" x="170.876206" xlink:href="#mb1252036af" y="114.123175"/>
     <use style="fill:#ff0000;stroke:#ff0000;" x="171.758419" xlink:href="#mb1252036af" y="114.123175"/>
     <use style="fill:#ff0000;stroke:#ff0000;" x="172.640632" xlink:href="#mb1252036af" y="114.123175"/>
     <use style="fill:#ff0000;stroke:#ff0000;" x="173.522846" xlink:href="#mb1252036af" y="114.123175"/>
     <use style="fill:#ff0000;stroke:#ff0000;" x="174.405059" xlink:href="#mb1252036af" y="114.123175"/>
     <use style="fill:#ff0000;stroke:#ff0000;" x="175.287273" xlink:href="#mb1252036af" y="114.123175"/>
     <use style="fill:#ff0000;stroke:#ff0000;" x="176.169486" xlink:href="#mb1252036af" y="114.123175"/>
     <use style="fill:#ff0000;stroke:#ff0000;" x="177.0517" xlink:href="#mb1252036af" y="114.123175"/>
     <use style="fill:#ff0000;stroke:#ff0000;" x="177.933913" xlink:href="#mb1252036af" y="114.123175"/>
     <use style="fill:#ff0000;stroke:#ff0000;" x="178.816126" xlink:href="#mb1252036af" y="122.109927"/>
     <use style="fill:#ff0000;stroke:#ff0000;" x="179.69834" xlink:href="#mb1252036af" y="122.109927"/>
     <use style="fill:#ff0000;stroke:#ff0000;" x="180.580553" xlink:href="#mb1252036af" y="122.778512"/>
     <use style="fill:#ff0000;stroke:#ff0000;" x="181.462767" xlink:href="#mb1252036af" y="117.218867"/>
     <use style="fill:#ff0000;stroke:#ff0000;" x="182.34498" xlink:href="#mb1252036af" y="117.218867"/>
     <use style="fill:#ff0000;stroke:#ff0000;" x="183.227194" xlink:href="#mb1252036af" y="117.218867"/>
     <use style="fill:#ff0000;stroke:#ff0000;" x="184.109407" xlink:href="#mb1252036af" y="118.298604"/>
     <use style="fill:#ff0000;stroke:#ff0000;" x="184.991621" xlink:href="#mb1252036af" y="118.298604"/>
     <use style="fill:#ff0000;stroke:#ff0000;" x="185.873834" xlink:href="#mb1252036af" y="120.889795"/>
     <use style="fill:#ff0000;stroke:#ff0000;" x="186.756047" xlink:href="#mb1252036af" y="120.889795"/>
     <use style="fill:#ff0000;stroke:#ff0000;" x="187.638261" xlink:href="#mb1252036af" y="114.499193"/>
     <use style="fill:#ff0000;stroke:#ff0000;" x="188.520474" xlink:href="#mb1252036af" y="109.037969"/>
     <use style="fill:#ff0000;stroke:#ff0000;" x="189.402688" xlink:href="#mb1252036af" y="109.037969"/>
     <use style="fill:#ff0000;stroke:#ff0000;" x="190.284901" xlink:href="#mb1252036af" y="102.464768"/>
     <use style="fill:#ff0000;stroke:#ff0000;" x="191.167115" xlink:href="#mb1252036af" y="102.464768"/>
     <use style="fill:#ff0000;stroke:#ff0000;" x="192.049328" xlink:href="#mb1252036af" y="96.424886"/>
     <use style="fill:#ff0000;stroke:#ff0000;" x="192.931542" xlink:href="#mb1252036af" y="96.424886"/>
     <use style="fill:#ff0000;stroke:#ff0000;" x="193.813755" xlink:href="#mb1252036af" y="90.102056"/>
     <use style="fill:#ff0000;stroke:#ff0000;" x="194.695968" xlink:href="#mb1252036af" y="90.102056"/>
     <use style="fill:#ff0000;stroke:#ff0000;" x="195.578182" xlink:href="#mb1252036af" y="83.985756"/>
     <use style="fill:#ff0000;stroke:#ff0000;" x="196.460395" xlink:href="#mb1252036af" y="78.403311"/>
     <use style="fill:#ff0000;stroke:#ff0000;" x="197.342609" xlink:href="#mb1252036af" y="78.403311"/>
     <use style="fill:#ff0000;stroke:#ff0000;" x="198.224822" xlink:href="#mb1252036af" y="79.971993"/>
     <use style="fill:#ff0000;stroke:#ff0000;" x="199.107036" xlink:href="#mb1252036af" y="79.971993"/>
     <use style="fill:#ff0000;stroke:#ff0000;" x="199.989249" xlink:href="#mb1252036af" y="79.971993"/>
     <use style="fill:#ff0000;stroke:#ff0000;" x="200.871462" xlink:href="#mb1252036af" y="79.971993"/>
     <use style="fill:#ff0000;stroke:#ff0000;" x="201.753676" xlink:href="#mb1252036af" y="82.287169"/>
     <use style="fill:#ff0000;stroke:#ff0000;" x="202.635889" xlink:href="#mb1252036af" y="82.287169"/>
     <use style="fill:#ff0000;stroke:#ff0000;" x="203.518103" xlink:href="#mb1252036af" y="82.744628"/>
     <use style="fill:#ff0000;stroke:#ff0000;" x="204.400316" xlink:href="#mb1252036af" y="90.55854"/>
     <use style="fill:#ff0000;stroke:#ff0000;" x="205.28253" xlink:href="#mb1252036af" y="90.55854"/>
     <use style="fill:#ff0000;stroke:#ff0000;" x="206.164743" xlink:href="#mb1252036af" y="85.597066"/>
     <use style="fill:#ff0000;stroke:#ff0000;" x="207.046957" xlink:href="#mb1252036af" y="85.597066"/>
     <use style="fill:#ff0000;stroke:#ff0000;" x="207.92917" xlink:href="#mb1252036af" y="85.597066"/>
     <use style="fill:#ff0000;stroke:#ff0000;" x="208.811383" xlink:href="#mb1252036af" y="79.298992"/>
     <use style="fill:#ff0000;stroke:#ff0000;" x="209.693597" xlink:href="#mb1252036af" y="79.298992"/>
     <use style="fill:#ff0000;stroke:#ff0000;" x="210.57581" xlink:href="#mb1252036af" y="87.68057"/>
     <use style="fill:#ff0000;stroke:#ff0000;" x="211.458024" xlink:href="#mb1252036af" y="87.68057"/>
     <use style="fill:#ff0000;stroke:#ff0000;" x="212.340237" xlink:href="#mb1252036af" y="82.933468"/>
     <use style="fill:#ff0000;stroke:#ff0000;" x="213.222451" xlink:href="#mb1252036af" y="82.933468"/>
     <use style="fill:#ff0000;stroke:#ff0000;" x="214.104664" xlink:href="#mb1252036af" y="76.364787"/>
     <use style="fill:#ff0000;stroke:#ff0000;" x="214.986877" xlink:href="#mb1252036af" y="76.364787"/>
     <use style="fill:#ff0000;stroke:#ff0000;" x="215.869091" xlink:href="#mb1252036af" y="76.364787"/>
     <use style="fill:#ff0000;stroke:#ff0000;" x="216.751304" xlink:href="#mb1252036af" y="71.795966"/>
     <use style="fill:#ff0000;stroke:#ff0000;" x="217.633518" xlink:href="#mb1252036af" y="71.795966"/>
     <use style="fill:#ff0000;stroke:#ff0000;" x="218.515731" xlink:href="#mb1252036af" y="65.634447"/>
     <use style="fill:#ff0000;stroke:#ff0000;" x="219.397945" xlink:href="#mb1252036af" y="65.634447"/>
     <use style="fill:#ff0000;stroke:#ff0000;" x="220.280158" xlink:href="#mb1252036af" y="60.006197"/>
     <use style="fill:#ff0000;stroke:#ff0000;" x="221.162372" xlink:href="#mb1252036af" y="60.006197"/>
     <use style="fill:#ff0000;stroke:#ff0000;" x="222.044585" xlink:href="#mb1252036af" y="59.667398"/>
     <use style="fill:#ff0000;stroke:#ff0000;" x="222.926798" xlink:href="#mb1252036af" y="53.568"/>
     <use style="fill:#ff0000;stroke:#ff0000;" x="223.809012" xlink:href="#mb1252036af" y="53.568"/>
     <use style="fill:#ff0000;stroke:#ff0000;" x="224.691225" xlink:href="#mb1252036af" y="62.062267"/>
     <use style="fill:#ff0000;stroke:#ff0000;" x="225.573439" xlink:href="#mb1252036af" y="62.062267"/>
     <use style="fill:#ff0000;stroke:#ff0000;" x="226.455652" xlink:href="#mb1252036af" y="55.518827"/>
     <use style="fill:#ff0000;stroke:#ff0000;" x="227.337866" xlink:href="#mb1252036af" y="55.518827"/>
     <use style="fill:#ff0000;stroke:#ff0000;" x="228.220079" xlink:href="#mb1252036af" y="55.518827"/>
     <use style="fill:#ff0000;stroke:#ff0000;" x="229.102292" xlink:href="#mb1252036af" y="55.518827"/>
     <use style="fill:#ff0000;stroke:#ff0000;" x="229.984506" xlink:href="#mb1252036af" y="55.518827"/>
     <use style="fill:#ff0000;stroke:#ff0000;" x="230.866719" xlink:href="#mb1252036af" y="63.729339"/>
     <use style="fill:#ff0000;stroke:#ff0000;" x="231.748933" xlink:href="#mb1252036af" y="63.729339"/>
     <use style="fill:#ff0000;stroke:#ff0000;" x="232.631146" xlink:href="#mb1252036af" y="58.921441"/>
     <use style="fill:#ff0000;stroke:#ff0000;" x="233.51336" xlink:href="#mb1252036af" y="67.241257"/>
     <use style="fill:#ff0000;stroke:#ff0000;" x="234.395573" xlink:href="#mb1252036af" y="67.241257"/>
     <use style="fill:#ff0000;stroke:#ff0000;" x="235.277787" xlink:href="#mb1252036af" y="60.965648"/>
     <use style="fill:#ff0000;stroke:#ff0000;" x="236.16" xlink:href="#mb1252036af" y="60.965648"/>
     <use style="fill:#ff0000;stroke:#ff0000;" x="237.042213" xlink:href="#mb1252036af" y="54.469088"/>
     <use style="fill:#ff0000;stroke:#ff0000;" x="237.924427" xlink:href="#mb1252036af" y="54.469088"/>
     <use style="fill:#ff0000;stroke:#ff0000;" x="238.80664" xlink:href="#mb1252036af" y="54.469088"/>
     <use style="fill:#ff0000;stroke:#ff0000;" x="239.688854" xlink:href="#mb1252036af" y="54.469088"/>
     <use style="fill:#ff0000;stroke:#ff0000;" x="240.571067" xlink:href="#mb1252036af" y="54.469088"/>
     <use style="fill:#ff0000;stroke:#ff0000;" x="241.453281" xlink:href="#mb1252036af" y="54.469088"/>
     <use style="fill:#ff0000;stroke:#ff0000;" x="242.335494" xlink:href="#mb1252036af" y="54.469088"/>
     <use style="fill:#ff0000;stroke:#ff0000;" x="243.217708" xlink:href="#mb1252036af" y="54.469088"/>
     <use style="fill:#ff0000;stroke:#ff0000;" x="244.099921" xlink:href="#mb1252036af" y="54.469088"/>
     <use style="fill:#ff0000;stroke:#ff0000;" x="244.982134" xlink:href="#mb1252036af" y="54.469088"/>
     <use style="fill:#ff0000;stroke:#ff0000;" x="245.864348" xlink:href="#mb1252036af" y="54.469088"/>
     <use style="fill:#ff0000;stroke:#ff0000;" x="246.746561" xlink:href="#mb1252036af" y="54.469088"/>
     <use style="fill:#ff0000;stroke:#ff0000;" x="247.628775" xlink:href="#mb1252036af" y="54.469088"/>
     <use style="fill:#ff0000;stroke:#ff0000;" x="248.510988" xlink:href="#mb1252036af" y="54.469088"/>
     <use style="fill:#ff0000;stroke:#ff0000;" x="249.393202" xlink:href="#mb1252036af" y="54.469088"/>
     <use style="fill:#ff0000;stroke:#ff0000;" x="250.275415" xlink:href="#mb1252036af" y="54.469088"/>
     <use style="fill:#ff0000;stroke:#ff0000;" x="251.157628" xlink:href="#mb1252036af" y="54.469088"/>
     <use style="fill:#ff0000;stroke:#ff0000;" x="252.039842" xlink:href="#mb1252036af" y="54.469088"/>
     <use style="fill:#ff0000;stroke:#ff0000;" x="252.922055" xlink:href="#mb1252036af" y="54.469088"/>
     <use style="fill:#ff0000;stroke:#ff0000;" x="253.804269" xlink:href="#mb1252036af" y="54.469088"/>
     <use style="fill:#ff0000;stroke:#ff0000;" x="254.686482" xlink:href="#mb1252036af" y="54.469088"/>
     <use style="fill:#ff0000;stroke:#ff0000;" x="255.568696" xlink:href="#mb1252036af" y="54.469088"/>
     <use style="fill:#ff0000;stroke:#ff0000;" x="256.450909" xlink:href="#mb1252036af" y="54.469088"/>
     <use style="fill:#ff0000;stroke:#ff0000;" x="257.333123" xlink:href="#mb1252036af" y="54.469088"/>
     <use style="fill:#ff0000;stroke:#ff0000;" x="258.215336" xlink:href="#mb1252036af" y="54.469088"/>
     <use style="fill:#ff0000;stroke:#ff0000;" x="259.097549" xlink:href="#mb1252036af" y="54.469088"/>
     <use style="fill:#ff0000;stroke:#ff0000;" x="259.979763" xlink:href="#mb1252036af" y="54.469088"/>
     <use style="fill:#ff0000;stroke:#ff0000;" x="260.861976" xlink:href="#mb1252036af" y="54.469088"/>
     <use style="fill:#ff0000;stroke:#ff0000;" x="261.74419" xlink:href="#mb1252036af" y="54.469088"/>
     <use style="fill:#ff0000;stroke:#ff0000;" x="262.626403" xlink:href="#mb1252036af" y="54.469088"/>
     <use style="fill:#ff0000;stroke:#ff0000;" x="263.508617" xlink:href="#mb1252036af" y="54.469088"/>
     <use style="fill:#ff0000;stroke:#ff0000;" x="264.39083" xlink:href="#mb1252036af" y="54.469088"/>
     <use style="fill:#ff0000;stroke:#ff0000;" x="265.273043" xlink:href="#mb1252036af" y="54.469088"/>
     <use style="fill:#ff0000;stroke:#ff0000;" x="266.155257" xlink:href="#mb1252036af" y="54.469088"/>
     <use style="fill:#ff0000;stroke:#ff0000;" x="267.03747" xlink:href="#mb1252036af" y="54.469088"/>
     <use style="fill:#ff0000;stroke:#ff0000;" x="267.919684" xlink:href="#mb1252036af" y="54.469088"/>
     <use style="fill:#ff0000;stroke:#ff0000;" x="268.801897" xlink:href="#mb1252036af" y="54.469088"/>
     <use style="fill:#ff0000;stroke:#ff0000;" x="269.684111" xlink:href="#mb1252036af" y="54.469088"/>
     <use style="fill:#ff0000;stroke:#ff0000;" x="270.566324" xlink:href="#mb1252036af" y="54.469088"/>
     <use style="fill:#ff0000;stroke:#ff0000;" x="271.448538" xlink:href="#mb1252036af" y="54.469088"/>
     <use style="fill:#ff0000;stroke:#ff0000;" x="272.330751" xlink:href="#mb1252036af" y="54.469088"/>
     <use style="fill:#ff0000;stroke:#ff0000;" x="273.212964" xlink:href="#mb1252036af" y="54.469088"/>
     <use style="fill:#ff0000;stroke:#ff0000;" x="274.095178" xlink:href="#mb1252036af" y="54.469088"/>
     <use style="fill:#ff0000;stroke:#ff0000;" x="274.977391" xlink:href="#mb1252036af" y="54.469088"/>
     <use style="fill:#ff0000;stroke:#ff0000;" x="275.859605" xlink:href="#mb1252036af" y="54.469088"/>
     <use style="fill:#ff0000;stroke:#ff0000;" x="276.741818" xlink:href="#mb1252036af" y="54.469088"/>
     <use style="fill:#ff0000;stroke:#ff0000;" x="277.624032" xlink:href="#mb1252036af" y="54.469088"/>
     <use style="fill:#ff0000;stroke:#ff0000;" x="278.506245" xlink:href="#mb1252036af" y="54.469088"/>
     <use style="fill:#ff0000;stroke:#ff0000;" x="279.388458" xlink:href="#mb1252036af" y="54.469088"/>
     <use style="fill:#ff0000;stroke:#ff0000;" x="280.270672" xlink:href="#mb1252036af" y="54.469088"/>
     <use style="fill:#ff0000;stroke:#ff0000;" x="281.152885" xlink:href="#mb1252036af" y="54.469088"/>
     <use style="fill:#ff0000;stroke:#ff0000;" x="282.035099" xlink:href="#mb1252036af" y="54.469088"/>
     <use style="fill:#ff0000;stroke:#ff0000;" x="282.917312" xlink:href="#mb1252036af" y="54.469088"/>
     <use style="fill:#ff0000;stroke:#ff0000;" x="283.799526" xlink:href="#mb1252036af" y="54.469088"/>
     <use style="fill:#ff0000;stroke:#ff0000;" x="284.681739" xlink:href="#mb1252036af" y="54.469088"/>
     <use style="fill:#ff0000;stroke:#ff0000;" x="285.563953" xlink:href="#mb1252036af" y="54.469088"/>
     <use style="fill:#ff0000;stroke:#ff0000;" x="286.446166" xlink:href="#mb1252036af" y="54.469088"/>
     <use style="fill:#ff0000;stroke:#ff0000;" x="287.328379" xlink:href="#mb1252036af" y="54.469088"/>
     <use style="fill:#ff0000;stroke:#ff0000;" x="288.210593" xlink:href="#mb1252036af" y="54.469088"/>
     <use style="fill:#ff0000;stroke:#ff0000;" x="289.092806" xlink:href="#mb1252036af" y="54.469088"/>
     <use style="fill:#ff0000;stroke:#ff0000;" x="289.97502" xlink:href="#mb1252036af" y="54.469088"/>
     <use style="fill:#ff0000;stroke:#ff0000;" x="290.857233" xlink:href="#mb1252036af" y="54.469088"/>
     <use style="fill:#ff0000;stroke:#ff0000;" x="291.739447" xlink:href="#mb1252036af" y="54.469088"/>
     <use style="fill:#ff0000;stroke:#ff0000;" x="292.62166" xlink:href="#mb1252036af" y="54.469088"/>
     <use style="fill:#ff0000;stroke:#ff0000;" x="293.503874" xlink:href="#mb1252036af" y="54.469088"/>
     <use style="fill:#ff0000;stroke:#ff0000;" x="294.386087" xlink:href="#mb1252036af" y="54.469088"/>
     <use style="fill:#ff0000;stroke:#ff0000;" x="295.2683" xlink:href="#mb1252036af" y="54.469088"/>
     <use style="fill:#ff0000;stroke:#ff0000;" x="296.150514" xlink:href="#mb1252036af" y="54.469088"/>
     <use style="fill:#ff0000;stroke:#ff0000;" x="297.032727" xlink:href="#mb1252036af" y="54.469088"/>
     <use style="fill:#ff0000;stroke:#ff0000;" x="297.914941" xlink:href="#mb1252036af" y="54.469088"/>
     <use style="fill:#ff0000;stroke:#ff0000;" x="298.797154" xlink:href="#mb1252036af" y="54.469088"/>
     <use style="fill:#ff0000;stroke:#ff0000;" x="299.679368" xlink:href="#mb1252036af" y="54.469088"/>
     <use style="fill:#ff0000;stroke:#ff0000;" x="300.561581" xlink:href="#mb1252036af" y="54.469088"/>
     <use style="fill:#ff0000;stroke:#ff0000;" x="301.443794" xlink:href="#mb1252036af" y="54.469088"/>
     <use style="fill:#ff0000;stroke:#ff0000;" x="302.326008" xlink:href="#mb1252036af" y="54.469088"/>
     <use style="fill:#ff0000;stroke:#ff0000;" x="303.208221" xlink:href="#mb1252036af" y="54.469088"/>
     <use style="fill:#ff0000;stroke:#ff0000;" x="304.090435" xlink:href="#mb1252036af" y="54.469088"/>
     <use style="fill:#ff0000;stroke:#ff0000;" x="304.972648" xlink:href="#mb1252036af" y="54.469088"/>
     <use style="fill:#ff0000;stroke:#ff0000;" x="305.854862" xlink:href="#mb1252036af" y="54.469088"/>
     <use style="fill:#ff0000;stroke:#ff0000;" x="306.737075" xlink:href="#mb1252036af" y="54.469088"/>
     <use style="fill:#ff0000;stroke:#ff0000;" x="307.619289" xlink:href="#mb1252036af" y="54.469088"/>
     <use style="fill:#ff0000;stroke:#ff0000;" x="308.501502" xlink:href="#mb1252036af" y="54.469088"/>
     <use style="fill:#ff0000;stroke:#ff0000;" x="309.383715" xlink:href="#mb1252036af" y="54.469088"/>
     <use style="fill:#ff0000;stroke:#ff0000;" x="310.265929" xlink:href="#mb1252036af" y="54.469088"/>
     <use style="fill:#ff0000;stroke:#ff0000;" x="311.148142" xlink:href="#mb1252036af" y="54.469088"/>
     <use style="fill:#ff0000;stroke:#ff0000;" x="312.030356" xlink:href="#mb1252036af" y="54.469088"/>
     <use style="fill:#ff0000;stroke:#ff0000;" x="312.912569" xlink:href="#mb1252036af" y="54.469088"/>
     <use style="fill:#ff0000;stroke:#ff0000;" x="313.794783" xlink:href="#mb1252036af" y="54.469088"/>
     <use style="fill:#ff0000;stroke:#ff0000;" x="314.676996" xlink:href="#mb1252036af" y="54.469088"/>
     <use style="fill:#ff0000;stroke:#ff0000;" x="315.559209" xlink:href="#mb1252036af" y="54.469088"/>
     <use style="fill:#ff0000;stroke:#ff0000;" x="316.441423" xlink:href="#mb1252036af" y="54.469088"/>
     <use style="fill:#ff0000;stroke:#ff0000;" x="317.323636" xlink:href="#mb1252036af" y="54.469088"/>
     <use style="fill:#ff0000;stroke:#ff0000;" x="318.20585" xlink:href="#mb1252036af" y="54.469088"/>
     <use style="fill:#ff0000;stroke:#ff0000;" x="319.088063" xlink:href="#mb1252036af" y="54.469088"/>
     <use style="fill:#ff0000;stroke:#ff0000;" x="319.970277" xlink:href="#mb1252036af" y="54.469088"/>
     <use style="fill:#ff0000;stroke:#ff0000;" x="320.85249" xlink:href="#mb1252036af" y="54.469088"/>
     <use style="fill:#ff0000;stroke:#ff0000;" x="321.734704" xlink:href="#mb1252036af" y="54.469088"/>
     <use style="fill:#ff0000;stroke:#ff0000;" x="322.616917" xlink:href="#mb1252036af" y="54.469088"/>
     <use style="fill:#ff0000;stroke:#ff0000;" x="323.49913" xlink:href="#mb1252036af" y="54.469088"/>
     <use style="fill:#ff0000;stroke:#ff0000;" x="324.381344" xlink:href="#mb1252036af" y="54.469088"/>
     <use style="fill:#ff0000;stroke:#ff0000;" x="325.263557" xlink:href="#mb1252036af" y="54.469088"/>
     <use style="fill:#ff0000;stroke:#ff0000;" x="326.145771" xlink:href="#mb1252036af" y="54.469088"/>
     <use style="fill:#ff0000;stroke:#ff0000;" x="327.027984" xlink:href="#mb1252036af" y="54.469088"/>
     <use style="fill:#ff0000;stroke:#ff0000;" x="327.910198" xlink:href="#mb1252036af" y="54.469088"/>
     <use style="fill:#ff0000;stroke:#ff0000;" x="328.792411" xlink:href="#mb1252036af" y="54.469088"/>
     <use style="fill:#ff0000;stroke:#ff0000;" x="329.674625" xlink:href="#mb1252036af" y="54.469088"/>
     <use style="fill:#ff0000;stroke:#ff0000;" x="330.556838" xlink:href="#mb1252036af" y="54.469088"/>
     <use style="fill:#ff0000;stroke:#ff0000;" x="331.439051" xlink:href="#mb1252036af" y="54.469088"/>
     <use style="fill:#ff0000;stroke:#ff0000;" x="332.321265" xlink:href="#mb1252036af" y="54.469088"/>
     <use style="fill:#ff0000;stroke:#ff0000;" x="333.203478" xlink:href="#mb1252036af" y="54.469088"/>
     <use style="fill:#ff0000;stroke:#ff0000;" x="334.085692" xlink:href="#mb1252036af" y="54.469088"/>
     <use style="fill:#ff0000;stroke:#ff0000;" x="334.967905" xlink:href="#mb1252036af" y="54.469088"/>
     <use style="fill:#ff0000;stroke:#ff0000;" x="335.850119" xlink:href="#mb1252036af" y="54.469088"/>
     <use style="fill:#ff0000;stroke:#ff0000;" x="336.732332" xlink:href="#mb1252036af" y="54.469088"/>
     <use style="fill:#ff0000;stroke:#ff0000;" x="337.614545" xlink:href="#mb1252036af" y="54.469088"/>
     <use style="fill:#ff0000;stroke:#ff0000;" x="338.496759" xlink:href="#mb1252036af" y="54.469088"/>
     <use style="fill:#ff0000;stroke:#ff0000;" x="339.378972" xlink:href="#mb1252036af" y="54.469088"/>
     <use style="fill:#ff0000;stroke:#ff0000;" x="340.261186" xlink:href="#mb1252036af" y="54.469088"/>
     <use style="fill:#ff0000;stroke:#ff0000;" x="341.143399" xlink:href="#mb1252036af" y="54.469088"/>
     <use style="fill:#ff0000;stroke:#ff0000;" x="342.025613" xlink:href="#mb1252036af" y="54.469088"/>
     <use style="fill:#ff0000;stroke:#ff0000;" x="342.907826" xlink:href="#mb1252036af" y="54.469088"/>
     <use style="fill:#ff0000;stroke:#ff0000;" x="343.79004" xlink:href="#mb1252036af" y="54.469088"/>
     <use style="fill:#ff0000;stroke:#ff0000;" x="344.672253" xlink:href="#mb1252036af" y="54.469088"/>
     <use style="fill:#ff0000;stroke:#ff0000;" x="345.554466" xlink:href="#mb1252036af" y="54.469088"/>
     <use style="fill:#ff0000;stroke:#ff0000;" x="346.43668" xlink:href="#mb1252036af" y="54.469088"/>
     <use style="fill:#ff0000;stroke:#ff0000;" x="347.318893" xlink:href="#mb1252036af" y="54.469088"/>
     <use style="fill:#ff0000;stroke:#ff0000;" x="348.201107" xlink:href="#mb1252036af" y="54.469088"/>
     <use style="fill:#ff0000;stroke:#ff0000;" x="349.08332" xlink:href="#mb1252036af" y="54.469088"/>
     <use style="fill:#ff0000;stroke:#ff0000;" x="349.965534" xlink:href="#mb1252036af" y="54.469088"/>
     <use style="fill:#ff0000;stroke:#ff0000;" x="350.847747" xlink:href="#mb1252036af" y="54.469088"/>
     <use style="fill:#ff0000;stroke:#ff0000;" x="351.72996" xlink:href="#mb1252036af" y="54.469088"/>
     <use style="fill:#ff0000;stroke:#ff0000;" x="352.612174" xlink:href="#mb1252036af" y="54.469088"/>
     <use style="fill:#ff0000;stroke:#ff0000;" x="353.494387" xlink:href="#mb1252036af" y="54.469088"/>
     <use style="fill:#ff0000;stroke:#ff0000;" x="354.376601" xlink:href="#mb1252036af" y="54.469088"/>
     <use style="fill:#ff0000;stroke:#ff0000;" x="355.258814" xlink:href="#mb1252036af" y="54.469088"/>
     <use style="fill:#ff0000;stroke:#ff0000;" x="356.141028" xlink:href="#mb1252036af" y="54.469088"/>
     <use style="fill:#ff0000;stroke:#ff0000;" x="357.023241" xlink:href="#mb1252036af" y="54.469088"/>
     <use style="fill:#ff0000;stroke:#ff0000;" x="357.905455" xlink:href="#mb1252036af" y="54.469088"/>
     <use style="fill:#ff0000;stroke:#ff0000;" x="358.787668" xlink:href="#mb1252036af" y="54.469088"/>
     <use style="fill:#ff0000;stroke:#ff0000;" x="359.669881" xlink:href="#mb1252036af" y="54.469088"/>
     <use style="fill:#ff0000;stroke:#ff0000;" x="360.552095" xlink:href="#mb1252036af" y="54.469088"/>
     <use style="fill:#ff0000;stroke:#ff0000;" x="361.434308" xlink:href="#mb1252036af" y="54.469088"/>
     <use style="fill:#ff0000;stroke:#ff0000;" x="362.316522" xlink:href="#mb1252036af" y="54.469088"/>
     <use style="fill:#ff0000;stroke:#ff0000;" x="363.198735" xlink:href="#mb1252036af" y="54.469088"/>
     <use style="fill:#ff0000;stroke:#ff0000;" x="364.080949" xlink:href="#mb1252036af" y="54.469088"/>
     <use style="fill:#ff0000;stroke:#ff0000;" x="364.963162" xlink:href="#mb1252036af" y="54.469088"/>
     <use style="fill:#ff0000;stroke:#ff0000;" x="365.845375" xlink:href="#mb1252036af" y="54.469088"/>
     <use style="fill:#ff0000;stroke:#ff0000;" x="366.727589" xlink:href="#mb1252036af" y="54.469088"/>
     <use style="fill:#ff0000;stroke:#ff0000;" x="367.609802" xlink:href="#mb1252036af" y="54.469088"/>
     <use style="fill:#ff0000;stroke:#ff0000;" x="368.492016" xlink:href="#mb1252036af" y="54.469088"/>
     <use style="fill:#ff0000;stroke:#ff0000;" x="369.374229" xlink:href="#mb1252036af" y="54.469088"/>
     <use style="fill:#ff0000;stroke:#ff0000;" x="370.256443" xlink:href="#mb1252036af" y="54.469088"/>
     <use style="fill:#ff0000;stroke:#ff0000;" x="371.138656" xlink:href="#mb1252036af" y="54.469088"/>
     <use style="fill:#ff0000;stroke:#ff0000;" x="372.02087" xlink:href="#mb1252036af" y="54.469088"/>
     <use style="fill:#ff0000;stroke:#ff0000;" x="372.903083" xlink:href="#mb1252036af" y="54.469088"/>
     <use style="fill:#ff0000;stroke:#ff0000;" x="373.785296" xlink:href="#mb1252036af" y="54.469088"/>
     <use style="fill:#ff0000;stroke:#ff0000;" x="374.66751" xlink:href="#mb1252036af" y="54.469088"/>
     <use style="fill:#ff0000;stroke:#ff0000;" x="375.549723" xlink:href="#mb1252036af" y="54.469088"/>
     <use style="fill:#ff0000;stroke:#ff0000;" x="376.431937" xlink:href="#mb1252036af" y="54.469088"/>
     <use style="fill:#ff0000;stroke:#ff0000;" x="377.31415" xlink:href="#mb1252036af" y="54.469088"/>
     <use style="fill:#ff0000;stroke:#ff0000;" x="378.196364" xlink:href="#mb1252036af" y="54.469088"/>
     <use style="fill:#ff0000;stroke:#ff0000;" x="379.078577" xlink:href="#mb1252036af" y="54.469088"/>
     <use style="fill:#ff0000;stroke:#ff0000;" x="379.960791" xlink:href="#mb1252036af" y="54.469088"/>
     <use style="fill:#ff0000;stroke:#ff0000;" x="380.843004" xlink:href="#mb1252036af" y="54.469088"/>
     <use style="fill:#ff0000;stroke:#ff0000;" x="381.725217" xlink:href="#mb1252036af" y="54.469088"/>
     <use style="fill:#ff0000;stroke:#ff0000;" x="382.607431" xlink:href="#mb1252036af" y="54.469088"/>
     <use style="fill:#ff0000;stroke:#ff0000;" x="383.489644" xlink:href="#mb1252036af" y="54.469088"/>
     <use style="fill:#ff0000;stroke:#ff0000;" x="384.371858" xlink:href="#mb1252036af" y="54.469088"/>
     <use style="fill:#ff0000;stroke:#ff0000;" x="385.254071" xlink:href="#mb1252036af" y="54.469088"/>
     <use style="fill:#ff0000;stroke:#ff0000;" x="386.136285" xlink:href="#mb1252036af" y="54.469088"/>
     <use style="fill:#ff0000;stroke:#ff0000;" x="387.018498" xlink:href="#mb1252036af" y="54.469088"/>
     <use style="fill:#ff0000;stroke:#ff0000;" x="387.900711" xlink:href="#mb1252036af" y="54.469088"/>
     <use style="fill:#ff0000;stroke:#ff0000;" x="388.782925" xlink:href="#mb1252036af" y="54.469088"/>
     <use style="fill:#ff0000;stroke:#ff0000;" x="389.665138" xlink:href="#mb1252036af" y="54.469088"/>
     <use style="fill:#ff0000;stroke:#ff0000;" x="390.547352" xlink:href="#mb1252036af" y="54.469088"/>
     <use style="fill:#ff0000;stroke:#ff0000;" x="391.429565" xlink:href="#mb1252036af" y="54.469088"/>
     <use style="fill:#ff0000;stroke:#ff0000;" x="392.311779" xlink:href="#mb1252036af" y="54.469088"/>
     <use style="fill:#ff0000;stroke:#ff0000;" x="393.193992" xlink:href="#mb1252036af" y="54.469088"/>
     <use style="fill:#ff0000;stroke:#ff0000;" x="394.076206" xlink:href="#mb1252036af" y="54.469088"/>
     <use style="fill:#ff0000;stroke:#ff0000;" x="394.958419" xlink:href="#mb1252036af" y="54.469088"/>
     <use style="fill:#ff0000;stroke:#ff0000;" x="395.840632" xlink:href="#mb1252036af" y="54.469088"/>
     <use style="fill:#ff0000;stroke:#ff0000;" x="396.722846" xlink:href="#mb1252036af" y="54.469088"/>
     <use style="fill:#ff0000;stroke:#ff0000;" x="397.605059" xlink:href="#mb1252036af" y="54.469088"/>
     <use style="fill:#ff0000;stroke:#ff0000;" x="398.487273" xlink:href="#mb1252036af" y="54.469088"/>
    </g>
   </g>
   <g id="patch_3">
    <path d="M 57.6 307.584 
L 57.6 41.472 
" style="fill:none;stroke:#000000;stroke-linecap:square;stroke-linejoin:miter;stroke-width:0.8;"/>
   </g>
   <g id="patch_4">
    <path d="M 414.72 307.584 
L 414.72 41.472 
" style="fill:none;stroke:#000000;stroke-linecap:square;stroke-linejoin:miter;stroke-width:0.8;"/>
   </g>
   <g id="patch_5">
    <path d="M 57.6 307.584 
L 414.72 307.584 
" style="fill:none;stroke:#000000;stroke-linecap:square;stroke-linejoin:miter;stroke-width:0.8;"/>
   </g>
   <g id="patch_6">
    <path d="M 57.6 41.472 
L 414.72 41.472 
" style="fill:none;stroke:#000000;stroke-linecap:square;stroke-linejoin:miter;stroke-width:0.8;"/>
   </g>
  </g>
 </g>
 <defs>
  <clipPath id="p8d16e5d9df">
   <rect height="266.112" width="357.12" x="57.6" y="41.472"/>
  </clipPath>
 </defs>
</svg>
