<?xml version="1.0" encoding="utf-8" standalone="no"?>
<!DOCTYPE svg PUBLIC "-//W3C//DTD SVG 1.1//EN"
  "http://www.w3.org/Graphics/SVG/1.1/DTD/svg11.dtd">
<!-- Created with matplotlib (https://matplotlib.org/) -->
<svg height="345.6pt" version="1.1" viewBox="0 0 460.8 345.6" width="460.8pt" xmlns="http://www.w3.org/2000/svg" xmlns:xlink="http://www.w3.org/1999/xlink">
 <defs>
  <style type="text/css">
*{stroke-linecap:butt;stroke-linejoin:round;}
  </style>
 </defs>
 <g id="figure_1">
  <g id="patch_1">
   <path d="M 0 345.6 
L 460.8 345.6 
L 460.8 0 
L 0 0 
z
" style="fill:#ffffff;"/>
  </g>
  <g id="axes_1">
   <g id="patch_2">
    <path d="M 57.6 307.584 
L 414.72 307.584 
L 414.72 41.472 
L 57.6 41.472 
z
" style="fill:#ffffff;"/>
   </g>
   <g id="line2d_1">
    <path clip-path="url(#p6e9ac36229)" d="M 73.832727 251.748194 
L 86.818909 251.748194 
L 99.805091 251.748194 
L 112.791273 251.748194 
L 125.777455 251.748194 
L 138.763636 251.748194 
L 151.749818 251.748194 
L 164.736 251.748194 
L 177.722182 295.488 
L 190.708364 295.488 
L 203.694545 250.58189 
L 216.680727 250.58189 
L 229.666909 250.58189 
L 242.653091 206.157142 
L 255.639273 206.157142 
L 268.625455 167.961374 
L 281.611636 167.961374 
L 294.597818 178.167835 
L 307.584 136.866354 
L 320.570182 136.866354 
L 333.556364 136.866354 
L 346.542545 92.382408 
L 359.528727 92.382408 
L 372.514909 53.568 
L 385.501091 102.017431 
L 398.487273 102.017431 
" style="fill:none;stroke:#ff0000;stroke-linecap:square;stroke-width:12;"/>
    <defs>
     <path d="M 0 3 
C 0.795609 3 1.55874 2.683901 2.12132 2.12132 
C 2.683901 1.55874 3 0.795609 3 0 
C 3 -0.795609 2.683901 -1.55874 2.12132 -2.12132 
C 1.55874 -2.683901 0.795609 -3 0 -3 
C -0.795609 -3 -1.55874 -2.683901 -2.12132 -2.12132 
C -2.683901 -1.55874 -3 -0.795609 -3 0 
C -3 0.795609 -2.683901 1.55874 -2.12132 2.12132 
C -1.55874 2.683901 -0.795609 3 0 3 
z
" id="mea9adf6b29" style="stroke:#ff0000;"/>
    </defs>
    <g clip-path="url(#p6e9ac36229)">
     <use style="fill:#ff0000;stroke:#ff0000;" x="73.832727" xlink:href="#mea9adf6b29" y="251.748194"/>
     <use style="fill:#ff0000;stroke:#ff0000;" x="86.818909" xlink:href="#mea9adf6b29" y="251.748194"/>
     <use style="fill:#ff0000;stroke:#ff0000;" x="99.805091" xlink:href="#mea9adf6b29" y="251.748194"/>
     <use style="fill:#ff0000;stroke:#ff0000;" x="112.791273" xlink:href="#mea9adf6b29" y="251.748194"/>
     <use style="fill:#ff0000;stroke:#ff0000;" x="125.777455" xlink:href="#mea9adf6b29" y="251.748194"/>
     <use style="fill:#ff0000;stroke:#ff0000;" x="138.763636" xlink:href="#mea9adf6b29" y="251.748194"/>
     <use style="fill:#ff0000;stroke:#ff0000;" x="151.749818" xlink:href="#mea9adf6b29" y="251.748194"/>
     <use style="fill:#ff0000;stroke:#ff0000;" x="164.736" xlink:href="#mea9adf6b29" y="251.748194"/>
     <use style="fill:#ff0000;stroke:#ff0000;" x="177.722182" xlink:href="#mea9adf6b29" y="295.488"/>
     <use style="fill:#ff0000;stroke:#ff0000;" x="190.708364" xlink:href="#mea9adf6b29" y="295.488"/>
     <use style="fill:#ff0000;stroke:#ff0000;" x="203.694545" xlink:href="#mea9adf6b29" y="250.58189"/>
     <use style="fill:#ff0000;stroke:#ff0000;" x="216.680727" xlink:href="#mea9adf6b29" y="250.58189"/>
     <use style="fill:#ff0000;stroke:#ff0000;" x="229.666909" xlink:href="#mea9adf6b29" y="250.58189"/>
     <use style="fill:#ff0000;stroke:#ff0000;" x="242.653091" xlink:href="#mea9adf6b29" y="206.157142"/>
     <use style="fill:#ff0000;stroke:#ff0000;" x="255.639273" xlink:href="#mea9adf6b29" y="206.157142"/>
     <use style="fill:#ff0000;stroke:#ff0000;" x="268.625455" xlink:href="#mea9adf6b29" y="167.961374"/>
     <use style="fill:#ff0000;stroke:#ff0000;" x="281.611636" xlink:href="#mea9adf6b29" y="167.961374"/>
     <use style="fill:#ff0000;stroke:#ff0000;" x="294.597818" xlink:href="#mea9adf6b29" y="178.167835"/>
     <use style="fill:#ff0000;stroke:#ff0000;" x="307.584" xlink:href="#mea9adf6b29" y="136.866354"/>
     <use style="fill:#ff0000;stroke:#ff0000;" x="320.570182" xlink:href="#mea9adf6b29" y="136.866354"/>
     <use style="fill:#ff0000;stroke:#ff0000;" x="333.556364" xlink:href="#mea9adf6b29" y="136.866354"/>
     <use style="fill:#ff0000;stroke:#ff0000;" x="346.542545" xlink:href="#mea9adf6b29" y="92.382408"/>
     <use style="fill:#ff0000;stroke:#ff0000;" x="359.528727" xlink:href="#mea9adf6b29" y="92.382408"/>
     <use style="fill:#ff0000;stroke:#ff0000;" x="372.514909" xlink:href="#mea9adf6b29" y="53.568"/>
     <use style="fill:#ff0000;stroke:#ff0000;" x="385.501091" xlink:href="#mea9adf6b29" y="102.017431"/>
     <use style="fill:#ff0000;stroke:#ff0000;" x="398.487273" xlink:href="#mea9adf6b29" y="102.017431"/>
    </g>
   </g>
   <g id="patch_3">
    <path d="M 57.6 307.584 
L 57.6 41.472 
" style="fill:none;stroke:#000000;stroke-linecap:square;stroke-linejoin:miter;stroke-width:0.8;"/>
   </g>
   <g id="patch_4">
    <path d="M 414.72 307.584 
L 414.72 41.472 
" style="fill:none;stroke:#000000;stroke-linecap:square;stroke-linejoin:miter;stroke-width:0.8;"/>
   </g>
   <g id="patch_5">
    <path d="M 57.6 307.584 
L 414.72 307.584 
" style="fill:none;stroke:#000000;stroke-linecap:square;stroke-linejoin:miter;stroke-width:0.8;"/>
   </g>
   <g id="patch_6">
    <path d="M 57.6 41.472 
L 414.72 41.472 
" style="fill:none;stroke:#000000;stroke-linecap:square;stroke-linejoin:miter;stroke-width:0.8;"/>
   </g>
  </g>
 </g>
 <defs>
  <clipPath id="p6e9ac36229">
   <rect height="266.112" width="357.12" x="57.6" y="41.472"/>
  </clipPath>
 </defs>
</svg>
