<?xml version="1.0" encoding="utf-8" standalone="no"?>
<!DOCTYPE svg PUBLIC "-//W3C//DTD SVG 1.1//EN"
  "http://www.w3.org/Graphics/SVG/1.1/DTD/svg11.dtd">
<!-- Created with matplotlib (https://matplotlib.org/) -->
<svg height="345.6pt" version="1.1" viewBox="0 0 460.8 345.6" width="460.8pt" xmlns="http://www.w3.org/2000/svg" xmlns:xlink="http://www.w3.org/1999/xlink">
 <defs>
  <style type="text/css">
*{stroke-linecap:butt;stroke-linejoin:round;}
  </style>
 </defs>
 <g id="figure_1">
  <g id="patch_1">
   <path d="M 0 345.6 
L 460.8 345.6 
L 460.8 0 
L 0 0 
z
" style="fill:#ffffff;"/>
  </g>
  <g id="axes_1">
   <g id="patch_2">
    <path d="M 57.6 307.584 
L 414.72 307.584 
L 414.72 41.472 
L 57.6 41.472 
z
" style="fill:#ffffff;"/>
   </g>
   <g id="line2d_1">
    <path clip-path="url(#p77c9a66f55)" d="M 73.832727 251.796433 
L 79.844848 251.796433 
L 85.85697 251.796433 
L 91.869091 251.796433 
L 97.881212 251.796433 
L 103.893333 251.796433 
L 109.905455 251.796433 
L 115.917576 251.796433 
L 121.929697 295.488 
L 127.941818 295.488 
L 133.953939 250.631415 
L 139.966061 250.631415 
L 145.978182 250.631415 
L 151.990303 206.255661 
L 158.002424 206.255661 
L 164.014545 168.102017 
L 170.026667 168.102017 
L 176.038788 178.297222 
L 182.050909 137.041291 
L 188.06303 137.041291 
L 194.075152 137.041291 
L 200.087273 92.606403 
L 206.099394 92.606403 
L 212.111515 53.834802 
L 218.123636 102.230801 
L 224.135758 102.230801 
L 230.147879 102.230801 
L 236.16 88.2794 
L 242.172121 88.2794 
L 248.184242 102.295374 
L 254.196364 102.295374 
L 260.208485 88.366644 
L 266.220606 87.098717 
L 272.232727 87.098717 
L 278.244848 73.779892 
L 284.25697 73.779892 
L 290.269091 60.556075 
L 296.281212 60.556075 
L 302.293333 76.598553 
L 308.305455 76.598553 
L 314.317576 76.598553 
L 320.329697 91.702834 
L 326.341818 91.702834 
L 332.353939 78.295813 
L 338.366061 78.295813 
L 344.378182 77.415512 
L 350.390303 77.415512 
L 356.402424 91.366289 
L 362.414545 91.366289 
L 368.426667 79.250679 
L 374.438788 79.250679 
L 380.450909 66.469977 
L 386.46303 66.469977 
L 392.475152 53.568 
L 398.487273 53.568 
" style="fill:none;stroke:#ff0000;stroke-linecap:square;stroke-width:12;"/>
    <defs>
     <path d="M 0 3 
C 0.795609 3 1.55874 2.683901 2.12132 2.12132 
C 2.683901 1.55874 3 0.795609 3 0 
C 3 -0.795609 2.683901 -1.55874 2.12132 -2.12132 
C 1.55874 -2.683901 0.795609 -3 0 -3 
C -0.795609 -3 -1.55874 -2.683901 -2.12132 -2.12132 
C -2.683901 -1.55874 -3 -0.795609 -3 0 
C -3 0.795609 -2.683901 1.55874 -2.12132 2.12132 
C -1.55874 2.683901 -0.795609 3 0 3 
z
" id="m74f7c34992" style="stroke:#ff0000;"/>
    </defs>
    <g clip-path="url(#p77c9a66f55)">
     <use style="fill:#ff0000;stroke:#ff0000;" x="73.832727" xlink:href="#m74f7c34992" y="251.796433"/>
     <use style="fill:#ff0000;stroke:#ff0000;" x="79.844848" xlink:href="#m74f7c34992" y="251.796433"/>
     <use style="fill:#ff0000;stroke:#ff0000;" x="85.85697" xlink:href="#m74f7c34992" y="251.796433"/>
     <use style="fill:#ff0000;stroke:#ff0000;" x="91.869091" xlink:href="#m74f7c34992" y="251.796433"/>
     <use style="fill:#ff0000;stroke:#ff0000;" x="97.881212" xlink:href="#m74f7c34992" y="251.796433"/>
     <use style="fill:#ff0000;stroke:#ff0000;" x="103.893333" xlink:href="#m74f7c34992" y="251.796433"/>
     <use style="fill:#ff0000;stroke:#ff0000;" x="109.905455" xlink:href="#m74f7c34992" y="251.796433"/>
     <use style="fill:#ff0000;stroke:#ff0000;" x="115.917576" xlink:href="#m74f7c34992" y="251.796433"/>
     <use style="fill:#ff0000;stroke:#ff0000;" x="121.929697" xlink:href="#m74f7c34992" y="295.488"/>
     <use style="fill:#ff0000;stroke:#ff0000;" x="127.941818" xlink:href="#m74f7c34992" y="295.488"/>
     <use style="fill:#ff0000;stroke:#ff0000;" x="133.953939" xlink:href="#m74f7c34992" y="250.631415"/>
     <use style="fill:#ff0000;stroke:#ff0000;" x="139.966061" xlink:href="#m74f7c34992" y="250.631415"/>
     <use style="fill:#ff0000;stroke:#ff0000;" x="145.978182" xlink:href="#m74f7c34992" y="250.631415"/>
     <use style="fill:#ff0000;stroke:#ff0000;" x="151.990303" xlink:href="#m74f7c34992" y="206.255661"/>
     <use style="fill:#ff0000;stroke:#ff0000;" x="158.002424" xlink:href="#m74f7c34992" y="206.255661"/>
     <use style="fill:#ff0000;stroke:#ff0000;" x="164.014545" xlink:href="#m74f7c34992" y="168.102017"/>
     <use style="fill:#ff0000;stroke:#ff0000;" x="170.026667" xlink:href="#m74f7c34992" y="168.102017"/>
     <use style="fill:#ff0000;stroke:#ff0000;" x="176.038788" xlink:href="#m74f7c34992" y="178.297222"/>
     <use style="fill:#ff0000;stroke:#ff0000;" x="182.050909" xlink:href="#m74f7c34992" y="137.041291"/>
     <use style="fill:#ff0000;stroke:#ff0000;" x="188.06303" xlink:href="#m74f7c34992" y="137.041291"/>
     <use style="fill:#ff0000;stroke:#ff0000;" x="194.075152" xlink:href="#m74f7c34992" y="137.041291"/>
     <use style="fill:#ff0000;stroke:#ff0000;" x="200.087273" xlink:href="#m74f7c34992" y="92.606403"/>
     <use style="fill:#ff0000;stroke:#ff0000;" x="206.099394" xlink:href="#m74f7c34992" y="92.606403"/>
     <use style="fill:#ff0000;stroke:#ff0000;" x="212.111515" xlink:href="#m74f7c34992" y="53.834802"/>
     <use style="fill:#ff0000;stroke:#ff0000;" x="218.123636" xlink:href="#m74f7c34992" y="102.230801"/>
     <use style="fill:#ff0000;stroke:#ff0000;" x="224.135758" xlink:href="#m74f7c34992" y="102.230801"/>
     <use style="fill:#ff0000;stroke:#ff0000;" x="230.147879" xlink:href="#m74f7c34992" y="102.230801"/>
     <use style="fill:#ff0000;stroke:#ff0000;" x="236.16" xlink:href="#m74f7c34992" y="88.2794"/>
     <use style="fill:#ff0000;stroke:#ff0000;" x="242.172121" xlink:href="#m74f7c34992" y="88.2794"/>
     <use style="fill:#ff0000;stroke:#ff0000;" x="248.184242" xlink:href="#m74f7c34992" y="102.295374"/>
     <use style="fill:#ff0000;stroke:#ff0000;" x="254.196364" xlink:href="#m74f7c34992" y="102.295374"/>
     <use style="fill:#ff0000;stroke:#ff0000;" x="260.208485" xlink:href="#m74f7c34992" y="88.366644"/>
     <use style="fill:#ff0000;stroke:#ff0000;" x="266.220606" xlink:href="#m74f7c34992" y="87.098717"/>
     <use style="fill:#ff0000;stroke:#ff0000;" x="272.232727" xlink:href="#m74f7c34992" y="87.098717"/>
     <use style="fill:#ff0000;stroke:#ff0000;" x="278.244848" xlink:href="#m74f7c34992" y="73.779892"/>
     <use style="fill:#ff0000;stroke:#ff0000;" x="284.25697" xlink:href="#m74f7c34992" y="73.779892"/>
     <use style="fill:#ff0000;stroke:#ff0000;" x="290.269091" xlink:href="#m74f7c34992" y="60.556075"/>
     <use style="fill:#ff0000;stroke:#ff0000;" x="296.281212" xlink:href="#m74f7c34992" y="60.556075"/>
     <use style="fill:#ff0000;stroke:#ff0000;" x="302.293333" xlink:href="#m74f7c34992" y="76.598553"/>
     <use style="fill:#ff0000;stroke:#ff0000;" x="308.305455" xlink:href="#m74f7c34992" y="76.598553"/>
     <use style="fill:#ff0000;stroke:#ff0000;" x="314.317576" xlink:href="#m74f7c34992" y="76.598553"/>
     <use style="fill:#ff0000;stroke:#ff0000;" x="320.329697" xlink:href="#m74f7c34992" y="91.702834"/>
     <use style="fill:#ff0000;stroke:#ff0000;" x="326.341818" xlink:href="#m74f7c34992" y="91.702834"/>
     <use style="fill:#ff0000;stroke:#ff0000;" x="332.353939" xlink:href="#m74f7c34992" y="78.295813"/>
     <use style="fill:#ff0000;stroke:#ff0000;" x="338.366061" xlink:href="#m74f7c34992" y="78.295813"/>
     <use style="fill:#ff0000;stroke:#ff0000;" x="344.378182" xlink:href="#m74f7c34992" y="77.415512"/>
     <use style="fill:#ff0000;stroke:#ff0000;" x="350.390303" xlink:href="#m74f7c34992" y="77.415512"/>
     <use style="fill:#ff0000;stroke:#ff0000;" x="356.402424" xlink:href="#m74f7c34992" y="91.366289"/>
     <use style="fill:#ff0000;stroke:#ff0000;" x="362.414545" xlink:href="#m74f7c34992" y="91.366289"/>
     <use style="fill:#ff0000;stroke:#ff0000;" x="368.426667" xlink:href="#m74f7c34992" y="79.250679"/>
     <use style="fill:#ff0000;stroke:#ff0000;" x="374.438788" xlink:href="#m74f7c34992" y="79.250679"/>
     <use style="fill:#ff0000;stroke:#ff0000;" x="380.450909" xlink:href="#m74f7c34992" y="66.469977"/>
     <use style="fill:#ff0000;stroke:#ff0000;" x="386.46303" xlink:href="#m74f7c34992" y="66.469977"/>
     <use style="fill:#ff0000;stroke:#ff0000;" x="392.475152" xlink:href="#m74f7c34992" y="53.568"/>
     <use style="fill:#ff0000;stroke:#ff0000;" x="398.487273" xlink:href="#m74f7c34992" y="53.568"/>
    </g>
   </g>
   <g id="patch_3">
    <path d="M 57.6 307.584 
L 57.6 41.472 
" style="fill:none;stroke:#000000;stroke-linecap:square;stroke-linejoin:miter;stroke-width:0.8;"/>
   </g>
   <g id="patch_4">
    <path d="M 414.72 307.584 
L 414.72 41.472 
" style="fill:none;stroke:#000000;stroke-linecap:square;stroke-linejoin:miter;stroke-width:0.8;"/>
   </g>
   <g id="patch_5">
    <path d="M 57.6 307.584 
L 414.72 307.584 
" style="fill:none;stroke:#000000;stroke-linecap:square;stroke-linejoin:miter;stroke-width:0.8;"/>
   </g>
   <g id="patch_6">
    <path d="M 57.6 41.472 
L 414.72 41.472 
" style="fill:none;stroke:#000000;stroke-linecap:square;stroke-linejoin:miter;stroke-width:0.8;"/>
   </g>
  </g>
 </g>
 <defs>
  <clipPath id="p77c9a66f55">
   <rect height="266.112" width="357.12" x="57.6" y="41.472"/>
  </clipPath>
 </defs>
</svg>
