<?xml version="1.0" encoding="utf-8" standalone="no"?>
<!DOCTYPE svg PUBLIC "-//W3C//DTD SVG 1.1//EN"
  "http://www.w3.org/Graphics/SVG/1.1/DTD/svg11.dtd">
<!-- Created with matplotlib (https://matplotlib.org/) -->
<svg height="345.6pt" version="1.1" viewBox="0 0 460.8 345.6" width="460.8pt" xmlns="http://www.w3.org/2000/svg" xmlns:xlink="http://www.w3.org/1999/xlink">
 <defs>
  <style type="text/css">
*{stroke-linecap:butt;stroke-linejoin:round;}
  </style>
 </defs>
 <g id="figure_1">
  <g id="patch_1">
   <path d="M 0 345.6 
L 460.8 345.6 
L 460.8 0 
L 0 0 
z
" style="fill:#ffffff;"/>
  </g>
  <g id="axes_1">
   <g id="patch_2">
    <path d="M 57.6 307.584 
L 414.72 307.584 
L 414.72 41.472 
L 57.6 41.472 
z
" style="fill:#ffffff;"/>
   </g>
   <g id="line2d_1">
    <path clip-path="url(#p634be0ab8c)" d="M 73.832727 273.497892 
L 85.027712 273.497892 
L 86.626995 295.488 
L 88.226279 295.488 
L 89.825562 272.911535 
L 93.024129 272.911535 
L 94.623412 250.577072 
L 96.222696 250.577072 
L 97.821979 231.374219 
L 99.421263 231.374219 
L 101.020546 236.505499 
L 102.61983 215.741254 
L 105.818397 215.741254 
L 107.41768 193.37703 
L 109.016964 193.37703 
L 110.616247 173.863157 
L 112.215531 198.221021 
L 115.414098 198.221021 
L 117.013381 191.199235 
L 118.612665 191.199235 
L 120.211948 198.253521 
L 121.811232 198.253521 
L 123.410515 191.243146 
L 125.009798 190.604994 
L 126.609082 190.604994 
L 128.208365 183.901586 
L 129.807649 183.901586 
L 131.406932 177.245996 
L 133.006216 177.245996 
L 134.605499 185.320227 
L 137.804066 185.320227 
L 139.40335 192.922261 
L 141.002633 192.922261 
L 142.601917 186.174463 
L 144.2012 186.174463 
L 145.800484 185.731405 
L 147.399767 185.731405 
L 148.999051 192.752877 
L 150.598334 192.752877 
L 152.197618 186.65505 
L 153.796901 186.65505 
L 155.396185 180.222482 
L 156.995468 180.222482 
L 158.594751 173.728875 
L 160.194035 173.728875 
L 161.793318 181.877082 
L 163.392602 181.877082 
L 164.991885 174.981184 
L 166.591169 174.981184 
L 168.190452 174.860188 
L 169.789736 174.860188 
L 171.389019 168.521091 
L 172.988303 170.039393 
L 174.587586 170.039393 
L 176.18687 163.26183 
L 177.786153 163.26183 
L 179.385437 156.180446 
L 180.98472 156.180446 
L 182.584004 150.416563 
L 185.782571 150.416563 
L 187.381854 143.526964 
L 190.580421 143.526964 
L 192.179704 145.410122 
L 193.778988 145.410122 
L 195.378271 139.359079 
L 196.977555 139.359079 
L 198.576838 139.973857 
L 200.176122 139.973857 
L 201.775405 133.740199 
L 211.371106 133.740147 
L 212.97039 127.219694 
L 214.569673 127.219694 
L 216.168957 127.013821 
L 219.367524 127.013821 
L 220.966807 121.733206 
L 222.56609 121.733206 
L 224.165374 129.60799 
L 227.363941 129.60799 
L 228.963224 123.225987 
L 230.562508 123.225987 
L 232.161791 117.082999 
L 233.761075 117.082999 
L 235.360358 110.90647 
L 236.959642 119.032016 
L 238.558925 119.032016 
L 240.158209 113.026414 
L 241.757492 113.026414 
L 243.356776 120.820247 
L 244.956059 120.820247 
L 246.555343 114.123175 
L 262.548177 114.123175 
L 264.147461 122.109927 
L 265.746744 122.109927 
L 267.346028 122.778512 
L 268.945311 117.218867 
L 272.143878 117.218867 
L 273.743162 118.298604 
L 275.342445 118.298604 
L 276.941729 120.889795 
L 278.541012 120.889795 
L 280.140296 114.499193 
L 281.739579 109.037969 
L 283.338863 109.037969 
L 284.938146 102.464768 
L 286.537429 102.464768 
L 288.136713 96.424886 
L 289.735996 96.424886 
L 291.33528 90.102056 
L 292.934563 90.102056 
L 294.533847 83.985756 
L 296.13313 78.403311 
L 297.732414 78.403311 
L 299.331697 79.971993 
L 304.129548 79.971993 
L 305.728831 82.287169 
L 307.328115 82.287169 
L 308.927398 82.744628 
L 310.526682 90.55854 
L 312.125965 90.55854 
L 313.725249 85.597066 
L 316.923815 85.597066 
L 318.523099 79.298992 
L 320.122382 79.298992 
L 321.721666 87.68057 
L 323.320949 87.68057 
L 324.920233 82.933468 
L 326.519516 82.933468 
L 328.1188 76.364787 
L 331.317367 76.364787 
L 332.91665 71.795966 
L 334.515934 71.795966 
L 336.115217 65.634447 
L 337.714501 65.634447 
L 339.313784 60.006197 
L 340.913068 60.006197 
L 342.512351 59.667398 
L 344.111635 53.568 
L 345.710918 53.568 
L 347.310202 62.062267 
L 348.909485 62.062267 
L 350.508768 55.518827 
L 356.905902 55.518827 
L 358.505186 63.729339 
L 360.104469 63.729339 
L 361.703753 58.921441 
L 363.303036 67.241257 
L 364.90232 67.241257 
L 366.501603 60.965648 
L 368.100887 60.965648 
L 369.70017 54.469088 
L 398.487273 54.469088 
L 398.487273 54.469088 
" style="fill:none;stroke:#ff0000;stroke-linecap:square;stroke-width:12;"/>
    <defs>
     <path d="M 0 3 
C 0.795609 3 1.55874 2.683901 2.12132 2.12132 
C 2.683901 1.55874 3 0.795609 3 0 
C 3 -0.795609 2.683901 -1.55874 2.12132 -2.12132 
C 1.55874 -2.683901 0.795609 -3 0 -3 
C -0.795609 -3 -1.55874 -2.683901 -2.12132 -2.12132 
C -2.683901 -1.55874 -3 -0.795609 -3 0 
C -3 0.795609 -2.683901 1.55874 -2.12132 2.12132 
C -1.55874 2.683901 -0.795609 3 0 3 
z
" id="m5d717060d6" style="stroke:#ff0000;"/>
    </defs>
    <g clip-path="url(#p634be0ab8c)">
     <use style="fill:#ff0000;stroke:#ff0000;" x="73.832727" xlink:href="#m5d717060d6" y="273.497892"/>
     <use style="fill:#ff0000;stroke:#ff0000;" x="75.432011" xlink:href="#m5d717060d6" y="273.497892"/>
     <use style="fill:#ff0000;stroke:#ff0000;" x="77.031294" xlink:href="#m5d717060d6" y="273.497892"/>
     <use style="fill:#ff0000;stroke:#ff0000;" x="78.630578" xlink:href="#m5d717060d6" y="273.497892"/>
     <use style="fill:#ff0000;stroke:#ff0000;" x="80.229861" xlink:href="#m5d717060d6" y="273.497892"/>
     <use style="fill:#ff0000;stroke:#ff0000;" x="81.829145" xlink:href="#m5d717060d6" y="273.497892"/>
     <use style="fill:#ff0000;stroke:#ff0000;" x="83.428428" xlink:href="#m5d717060d6" y="273.497892"/>
     <use style="fill:#ff0000;stroke:#ff0000;" x="85.027712" xlink:href="#m5d717060d6" y="273.497892"/>
     <use style="fill:#ff0000;stroke:#ff0000;" x="86.626995" xlink:href="#m5d717060d6" y="295.488"/>
     <use style="fill:#ff0000;stroke:#ff0000;" x="88.226279" xlink:href="#m5d717060d6" y="295.488"/>
     <use style="fill:#ff0000;stroke:#ff0000;" x="89.825562" xlink:href="#m5d717060d6" y="272.911535"/>
     <use style="fill:#ff0000;stroke:#ff0000;" x="91.424845" xlink:href="#m5d717060d6" y="272.911535"/>
     <use style="fill:#ff0000;stroke:#ff0000;" x="93.024129" xlink:href="#m5d717060d6" y="272.911535"/>
     <use style="fill:#ff0000;stroke:#ff0000;" x="94.623412" xlink:href="#m5d717060d6" y="250.577072"/>
     <use style="fill:#ff0000;stroke:#ff0000;" x="96.222696" xlink:href="#m5d717060d6" y="250.577072"/>
     <use style="fill:#ff0000;stroke:#ff0000;" x="97.821979" xlink:href="#m5d717060d6" y="231.374219"/>
     <use style="fill:#ff0000;stroke:#ff0000;" x="99.421263" xlink:href="#m5d717060d6" y="231.374219"/>
     <use style="fill:#ff0000;stroke:#ff0000;" x="101.020546" xlink:href="#m5d717060d6" y="236.505499"/>
     <use style="fill:#ff0000;stroke:#ff0000;" x="102.61983" xlink:href="#m5d717060d6" y="215.741254"/>
     <use style="fill:#ff0000;stroke:#ff0000;" x="104.219113" xlink:href="#m5d717060d6" y="215.741254"/>
     <use style="fill:#ff0000;stroke:#ff0000;" x="105.818397" xlink:href="#m5d717060d6" y="215.741254"/>
     <use style="fill:#ff0000;stroke:#ff0000;" x="107.41768" xlink:href="#m5d717060d6" y="193.37703"/>
     <use style="fill:#ff0000;stroke:#ff0000;" x="109.016964" xlink:href="#m5d717060d6" y="193.37703"/>
     <use style="fill:#ff0000;stroke:#ff0000;" x="110.616247" xlink:href="#m5d717060d6" y="173.863157"/>
     <use style="fill:#ff0000;stroke:#ff0000;" x="112.215531" xlink:href="#m5d717060d6" y="198.221021"/>
     <use style="fill:#ff0000;stroke:#ff0000;" x="113.814814" xlink:href="#m5d717060d6" y="198.221021"/>
     <use style="fill:#ff0000;stroke:#ff0000;" x="115.414098" xlink:href="#m5d717060d6" y="198.221021"/>
     <use style="fill:#ff0000;stroke:#ff0000;" x="117.013381" xlink:href="#m5d717060d6" y="191.199235"/>
     <use style="fill:#ff0000;stroke:#ff0000;" x="118.612665" xlink:href="#m5d717060d6" y="191.199235"/>
     <use style="fill:#ff0000;stroke:#ff0000;" x="120.211948" xlink:href="#m5d717060d6" y="198.253521"/>
     <use style="fill:#ff0000;stroke:#ff0000;" x="121.811232" xlink:href="#m5d717060d6" y="198.253521"/>
     <use style="fill:#ff0000;stroke:#ff0000;" x="123.410515" xlink:href="#m5d717060d6" y="191.243146"/>
     <use style="fill:#ff0000;stroke:#ff0000;" x="125.009798" xlink:href="#m5d717060d6" y="190.604994"/>
     <use style="fill:#ff0000;stroke:#ff0000;" x="126.609082" xlink:href="#m5d717060d6" y="190.604994"/>
     <use style="fill:#ff0000;stroke:#ff0000;" x="128.208365" xlink:href="#m5d717060d6" y="183.901586"/>
     <use style="fill:#ff0000;stroke:#ff0000;" x="129.807649" xlink:href="#m5d717060d6" y="183.901586"/>
     <use style="fill:#ff0000;stroke:#ff0000;" x="131.406932" xlink:href="#m5d717060d6" y="177.245996"/>
     <use style="fill:#ff0000;stroke:#ff0000;" x="133.006216" xlink:href="#m5d717060d6" y="177.245996"/>
     <use style="fill:#ff0000;stroke:#ff0000;" x="134.605499" xlink:href="#m5d717060d6" y="185.320227"/>
     <use style="fill:#ff0000;stroke:#ff0000;" x="136.204783" xlink:href="#m5d717060d6" y="185.320227"/>
     <use style="fill:#ff0000;stroke:#ff0000;" x="137.804066" xlink:href="#m5d717060d6" y="185.320227"/>
     <use style="fill:#ff0000;stroke:#ff0000;" x="139.40335" xlink:href="#m5d717060d6" y="192.922261"/>
     <use style="fill:#ff0000;stroke:#ff0000;" x="141.002633" xlink:href="#m5d717060d6" y="192.922261"/>
     <use style="fill:#ff0000;stroke:#ff0000;" x="142.601917" xlink:href="#m5d717060d6" y="186.174463"/>
     <use style="fill:#ff0000;stroke:#ff0000;" x="144.2012" xlink:href="#m5d717060d6" y="186.174463"/>
     <use style="fill:#ff0000;stroke:#ff0000;" x="145.800484" xlink:href="#m5d717060d6" y="185.731405"/>
     <use style="fill:#ff0000;stroke:#ff0000;" x="147.399767" xlink:href="#m5d717060d6" y="185.731405"/>
     <use style="fill:#ff0000;stroke:#ff0000;" x="148.999051" xlink:href="#m5d717060d6" y="192.752877"/>
     <use style="fill:#ff0000;stroke:#ff0000;" x="150.598334" xlink:href="#m5d717060d6" y="192.752877"/>
     <use style="fill:#ff0000;stroke:#ff0000;" x="152.197618" xlink:href="#m5d717060d6" y="186.65505"/>
     <use style="fill:#ff0000;stroke:#ff0000;" x="153.796901" xlink:href="#m5d717060d6" y="186.65505"/>
     <use style="fill:#ff0000;stroke:#ff0000;" x="155.396185" xlink:href="#m5d717060d6" y="180.222482"/>
     <use style="fill:#ff0000;stroke:#ff0000;" x="156.995468" xlink:href="#m5d717060d6" y="180.222482"/>
     <use style="fill:#ff0000;stroke:#ff0000;" x="158.594751" xlink:href="#m5d717060d6" y="173.728875"/>
     <use style="fill:#ff0000;stroke:#ff0000;" x="160.194035" xlink:href="#m5d717060d6" y="173.728875"/>
     <use style="fill:#ff0000;stroke:#ff0000;" x="161.793318" xlink:href="#m5d717060d6" y="181.877082"/>
     <use style="fill:#ff0000;stroke:#ff0000;" x="163.392602" xlink:href="#m5d717060d6" y="181.877082"/>
     <use style="fill:#ff0000;stroke:#ff0000;" x="164.991885" xlink:href="#m5d717060d6" y="174.981184"/>
     <use style="fill:#ff0000;stroke:#ff0000;" x="166.591169" xlink:href="#m5d717060d6" y="174.981184"/>
     <use style="fill:#ff0000;stroke:#ff0000;" x="168.190452" xlink:href="#m5d717060d6" y="174.860188"/>
     <use style="fill:#ff0000;stroke:#ff0000;" x="169.789736" xlink:href="#m5d717060d6" y="174.860188"/>
     <use style="fill:#ff0000;stroke:#ff0000;" x="171.389019" xlink:href="#m5d717060d6" y="168.521091"/>
     <use style="fill:#ff0000;stroke:#ff0000;" x="172.988303" xlink:href="#m5d717060d6" y="170.039393"/>
     <use style="fill:#ff0000;stroke:#ff0000;" x="174.587586" xlink:href="#m5d717060d6" y="170.039393"/>
     <use style="fill:#ff0000;stroke:#ff0000;" x="176.18687" xlink:href="#m5d717060d6" y="163.26183"/>
     <use style="fill:#ff0000;stroke:#ff0000;" x="177.786153" xlink:href="#m5d717060d6" y="163.26183"/>
     <use style="fill:#ff0000;stroke:#ff0000;" x="179.385437" xlink:href="#m5d717060d6" y="156.180446"/>
     <use style="fill:#ff0000;stroke:#ff0000;" x="180.98472" xlink:href="#m5d717060d6" y="156.180446"/>
     <use style="fill:#ff0000;stroke:#ff0000;" x="182.584004" xlink:href="#m5d717060d6" y="150.416563"/>
     <use style="fill:#ff0000;stroke:#ff0000;" x="184.183287" xlink:href="#m5d717060d6" y="150.416563"/>
     <use style="fill:#ff0000;stroke:#ff0000;" x="185.782571" xlink:href="#m5d717060d6" y="150.416563"/>
     <use style="fill:#ff0000;stroke:#ff0000;" x="187.381854" xlink:href="#m5d717060d6" y="143.526964"/>
     <use style="fill:#ff0000;stroke:#ff0000;" x="188.981137" xlink:href="#m5d717060d6" y="143.526964"/>
     <use style="fill:#ff0000;stroke:#ff0000;" x="190.580421" xlink:href="#m5d717060d6" y="143.526964"/>
     <use style="fill:#ff0000;stroke:#ff0000;" x="192.179704" xlink:href="#m5d717060d6" y="145.410122"/>
     <use style="fill:#ff0000;stroke:#ff0000;" x="193.778988" xlink:href="#m5d717060d6" y="145.410122"/>
     <use style="fill:#ff0000;stroke:#ff0000;" x="195.378271" xlink:href="#m5d717060d6" y="139.359079"/>
     <use style="fill:#ff0000;stroke:#ff0000;" x="196.977555" xlink:href="#m5d717060d6" y="139.359079"/>
     <use style="fill:#ff0000;stroke:#ff0000;" x="198.576838" xlink:href="#m5d717060d6" y="139.973857"/>
     <use style="fill:#ff0000;stroke:#ff0000;" x="200.176122" xlink:href="#m5d717060d6" y="139.973857"/>
     <use style="fill:#ff0000;stroke:#ff0000;" x="201.775405" xlink:href="#m5d717060d6" y="133.740199"/>
     <use style="fill:#ff0000;stroke:#ff0000;" x="203.374689" xlink:href="#m5d717060d6" y="133.740199"/>
     <use style="fill:#ff0000;stroke:#ff0000;" x="204.973972" xlink:href="#m5d717060d6" y="133.740199"/>
     <use style="fill:#ff0000;stroke:#ff0000;" x="206.573256" xlink:href="#m5d717060d6" y="133.740199"/>
     <use style="fill:#ff0000;stroke:#ff0000;" x="208.172539" xlink:href="#m5d717060d6" y="133.740199"/>
     <use style="fill:#ff0000;stroke:#ff0000;" x="209.771823" xlink:href="#m5d717060d6" y="133.740147"/>
     <use style="fill:#ff0000;stroke:#ff0000;" x="211.371106" xlink:href="#m5d717060d6" y="133.740147"/>
     <use style="fill:#ff0000;stroke:#ff0000;" x="212.97039" xlink:href="#m5d717060d6" y="127.219694"/>
     <use style="fill:#ff0000;stroke:#ff0000;" x="214.569673" xlink:href="#m5d717060d6" y="127.219694"/>
     <use style="fill:#ff0000;stroke:#ff0000;" x="216.168957" xlink:href="#m5d717060d6" y="127.013821"/>
     <use style="fill:#ff0000;stroke:#ff0000;" x="217.76824" xlink:href="#m5d717060d6" y="127.013821"/>
     <use style="fill:#ff0000;stroke:#ff0000;" x="219.367524" xlink:href="#m5d717060d6" y="127.013821"/>
     <use style="fill:#ff0000;stroke:#ff0000;" x="220.966807" xlink:href="#m5d717060d6" y="121.733206"/>
     <use style="fill:#ff0000;stroke:#ff0000;" x="222.56609" xlink:href="#m5d717060d6" y="121.733206"/>
     <use style="fill:#ff0000;stroke:#ff0000;" x="224.165374" xlink:href="#m5d717060d6" y="129.60799"/>
     <use style="fill:#ff0000;stroke:#ff0000;" x="225.764657" xlink:href="#m5d717060d6" y="129.60799"/>
     <use style="fill:#ff0000;stroke:#ff0000;" x="227.363941" xlink:href="#m5d717060d6" y="129.60799"/>
     <use style="fill:#ff0000;stroke:#ff0000;" x="228.963224" xlink:href="#m5d717060d6" y="123.225987"/>
     <use style="fill:#ff0000;stroke:#ff0000;" x="230.562508" xlink:href="#m5d717060d6" y="123.225987"/>
     <use style="fill:#ff0000;stroke:#ff0000;" x="232.161791" xlink:href="#m5d717060d6" y="117.082999"/>
     <use style="fill:#ff0000;stroke:#ff0000;" x="233.761075" xlink:href="#m5d717060d6" y="117.082999"/>
     <use style="fill:#ff0000;stroke:#ff0000;" x="235.360358" xlink:href="#m5d717060d6" y="110.90647"/>
     <use style="fill:#ff0000;stroke:#ff0000;" x="236.959642" xlink:href="#m5d717060d6" y="119.032016"/>
     <use style="fill:#ff0000;stroke:#ff0000;" x="238.558925" xlink:href="#m5d717060d6" y="119.032016"/>
     <use style="fill:#ff0000;stroke:#ff0000;" x="240.158209" xlink:href="#m5d717060d6" y="113.026414"/>
     <use style="fill:#ff0000;stroke:#ff0000;" x="241.757492" xlink:href="#m5d717060d6" y="113.026414"/>
     <use style="fill:#ff0000;stroke:#ff0000;" x="243.356776" xlink:href="#m5d717060d6" y="120.820247"/>
     <use style="fill:#ff0000;stroke:#ff0000;" x="244.956059" xlink:href="#m5d717060d6" y="120.820247"/>
     <use style="fill:#ff0000;stroke:#ff0000;" x="246.555343" xlink:href="#m5d717060d6" y="114.123175"/>
     <use style="fill:#ff0000;stroke:#ff0000;" x="248.154626" xlink:href="#m5d717060d6" y="114.123175"/>
     <use style="fill:#ff0000;stroke:#ff0000;" x="249.75391" xlink:href="#m5d717060d6" y="114.123175"/>
     <use style="fill:#ff0000;stroke:#ff0000;" x="251.353193" xlink:href="#m5d717060d6" y="114.123175"/>
     <use style="fill:#ff0000;stroke:#ff0000;" x="252.952476" xlink:href="#m5d717060d6" y="114.123175"/>
     <use style="fill:#ff0000;stroke:#ff0000;" x="254.55176" xlink:href="#m5d717060d6" y="114.123175"/>
     <use style="fill:#ff0000;stroke:#ff0000;" x="256.151043" xlink:href="#m5d717060d6" y="114.123175"/>
     <use style="fill:#ff0000;stroke:#ff0000;" x="257.750327" xlink:href="#m5d717060d6" y="114.123175"/>
     <use style="fill:#ff0000;stroke:#ff0000;" x="259.34961" xlink:href="#m5d717060d6" y="114.123175"/>
     <use style="fill:#ff0000;stroke:#ff0000;" x="260.948894" xlink:href="#m5d717060d6" y="114.123175"/>
     <use style="fill:#ff0000;stroke:#ff0000;" x="262.548177" xlink:href="#m5d717060d6" y="114.123175"/>
     <use style="fill:#ff0000;stroke:#ff0000;" x="264.147461" xlink:href="#m5d717060d6" y="122.109927"/>
     <use style="fill:#ff0000;stroke:#ff0000;" x="265.746744" xlink:href="#m5d717060d6" y="122.109927"/>
     <use style="fill:#ff0000;stroke:#ff0000;" x="267.346028" xlink:href="#m5d717060d6" y="122.778512"/>
     <use style="fill:#ff0000;stroke:#ff0000;" x="268.945311" xlink:href="#m5d717060d6" y="117.218867"/>
     <use style="fill:#ff0000;stroke:#ff0000;" x="270.544595" xlink:href="#m5d717060d6" y="117.218867"/>
     <use style="fill:#ff0000;stroke:#ff0000;" x="272.143878" xlink:href="#m5d717060d6" y="117.218867"/>
     <use style="fill:#ff0000;stroke:#ff0000;" x="273.743162" xlink:href="#m5d717060d6" y="118.298604"/>
     <use style="fill:#ff0000;stroke:#ff0000;" x="275.342445" xlink:href="#m5d717060d6" y="118.298604"/>
     <use style="fill:#ff0000;stroke:#ff0000;" x="276.941729" xlink:href="#m5d717060d6" y="120.889795"/>
     <use style="fill:#ff0000;stroke:#ff0000;" x="278.541012" xlink:href="#m5d717060d6" y="120.889795"/>
     <use style="fill:#ff0000;stroke:#ff0000;" x="280.140296" xlink:href="#m5d717060d6" y="114.499193"/>
     <use style="fill:#ff0000;stroke:#ff0000;" x="281.739579" xlink:href="#m5d717060d6" y="109.037969"/>
     <use style="fill:#ff0000;stroke:#ff0000;" x="283.338863" xlink:href="#m5d717060d6" y="109.037969"/>
     <use style="fill:#ff0000;stroke:#ff0000;" x="284.938146" xlink:href="#m5d717060d6" y="102.464768"/>
     <use style="fill:#ff0000;stroke:#ff0000;" x="286.537429" xlink:href="#m5d717060d6" y="102.464768"/>
     <use style="fill:#ff0000;stroke:#ff0000;" x="288.136713" xlink:href="#m5d717060d6" y="96.424886"/>
     <use style="fill:#ff0000;stroke:#ff0000;" x="289.735996" xlink:href="#m5d717060d6" y="96.424886"/>
     <use style="fill:#ff0000;stroke:#ff0000;" x="291.33528" xlink:href="#m5d717060d6" y="90.102056"/>
     <use style="fill:#ff0000;stroke:#ff0000;" x="292.934563" xlink:href="#m5d717060d6" y="90.102056"/>
     <use style="fill:#ff0000;stroke:#ff0000;" x="294.533847" xlink:href="#m5d717060d6" y="83.985756"/>
     <use style="fill:#ff0000;stroke:#ff0000;" x="296.13313" xlink:href="#m5d717060d6" y="78.403311"/>
     <use style="fill:#ff0000;stroke:#ff0000;" x="297.732414" xlink:href="#m5d717060d6" y="78.403311"/>
     <use style="fill:#ff0000;stroke:#ff0000;" x="299.331697" xlink:href="#m5d717060d6" y="79.971993"/>
     <use style="fill:#ff0000;stroke:#ff0000;" x="300.930981" xlink:href="#m5d717060d6" y="79.971993"/>
     <use style="fill:#ff0000;stroke:#ff0000;" x="302.530264" xlink:href="#m5d717060d6" y="79.971993"/>
     <use style="fill:#ff0000;stroke:#ff0000;" x="304.129548" xlink:href="#m5d717060d6" y="79.971993"/>
     <use style="fill:#ff0000;stroke:#ff0000;" x="305.728831" xlink:href="#m5d717060d6" y="82.287169"/>
     <use style="fill:#ff0000;stroke:#ff0000;" x="307.328115" xlink:href="#m5d717060d6" y="82.287169"/>
     <use style="fill:#ff0000;stroke:#ff0000;" x="308.927398" xlink:href="#m5d717060d6" y="82.744628"/>
     <use style="fill:#ff0000;stroke:#ff0000;" x="310.526682" xlink:href="#m5d717060d6" y="90.55854"/>
     <use style="fill:#ff0000;stroke:#ff0000;" x="312.125965" xlink:href="#m5d717060d6" y="90.55854"/>
     <use style="fill:#ff0000;stroke:#ff0000;" x="313.725249" xlink:href="#m5d717060d6" y="85.597066"/>
     <use style="fill:#ff0000;stroke:#ff0000;" x="315.324532" xlink:href="#m5d717060d6" y="85.597066"/>
     <use style="fill:#ff0000;stroke:#ff0000;" x="316.923815" xlink:href="#m5d717060d6" y="85.597066"/>
     <use style="fill:#ff0000;stroke:#ff0000;" x="318.523099" xlink:href="#m5d717060d6" y="79.298992"/>
     <use style="fill:#ff0000;stroke:#ff0000;" x="320.122382" xlink:href="#m5d717060d6" y="79.298992"/>
     <use style="fill:#ff0000;stroke:#ff0000;" x="321.721666" xlink:href="#m5d717060d6" y="87.68057"/>
     <use style="fill:#ff0000;stroke:#ff0000;" x="323.320949" xlink:href="#m5d717060d6" y="87.68057"/>
     <use style="fill:#ff0000;stroke:#ff0000;" x="324.920233" xlink:href="#m5d717060d6" y="82.933468"/>
     <use style="fill:#ff0000;stroke:#ff0000;" x="326.519516" xlink:href="#m5d717060d6" y="82.933468"/>
     <use style="fill:#ff0000;stroke:#ff0000;" x="328.1188" xlink:href="#m5d717060d6" y="76.364787"/>
     <use style="fill:#ff0000;stroke:#ff0000;" x="329.718083" xlink:href="#m5d717060d6" y="76.364787"/>
     <use style="fill:#ff0000;stroke:#ff0000;" x="331.317367" xlink:href="#m5d717060d6" y="76.364787"/>
     <use style="fill:#ff0000;stroke:#ff0000;" x="332.91665" xlink:href="#m5d717060d6" y="71.795966"/>
     <use style="fill:#ff0000;stroke:#ff0000;" x="334.515934" xlink:href="#m5d717060d6" y="71.795966"/>
     <use style="fill:#ff0000;stroke:#ff0000;" x="336.115217" xlink:href="#m5d717060d6" y="65.634447"/>
     <use style="fill:#ff0000;stroke:#ff0000;" x="337.714501" xlink:href="#m5d717060d6" y="65.634447"/>
     <use style="fill:#ff0000;stroke:#ff0000;" x="339.313784" xlink:href="#m5d717060d6" y="60.006197"/>
     <use style="fill:#ff0000;stroke:#ff0000;" x="340.913068" xlink:href="#m5d717060d6" y="60.006197"/>
     <use style="fill:#ff0000;stroke:#ff0000;" x="342.512351" xlink:href="#m5d717060d6" y="59.667398"/>
     <use style="fill:#ff0000;stroke:#ff0000;" x="344.111635" xlink:href="#m5d717060d6" y="53.568"/>
     <use style="fill:#ff0000;stroke:#ff0000;" x="345.710918" xlink:href="#m5d717060d6" y="53.568"/>
     <use style="fill:#ff0000;stroke:#ff0000;" x="347.310202" xlink:href="#m5d717060d6" y="62.062267"/>
     <use style="fill:#ff0000;stroke:#ff0000;" x="348.909485" xlink:href="#m5d717060d6" y="62.062267"/>
     <use style="fill:#ff0000;stroke:#ff0000;" x="350.508768" xlink:href="#m5d717060d6" y="55.518827"/>
     <use style="fill:#ff0000;stroke:#ff0000;" x="352.108052" xlink:href="#m5d717060d6" y="55.518827"/>
     <use style="fill:#ff0000;stroke:#ff0000;" x="353.707335" xlink:href="#m5d717060d6" y="55.518827"/>
     <use style="fill:#ff0000;stroke:#ff0000;" x="355.306619" xlink:href="#m5d717060d6" y="55.518827"/>
     <use style="fill:#ff0000;stroke:#ff0000;" x="356.905902" xlink:href="#m5d717060d6" y="55.518827"/>
     <use style="fill:#ff0000;stroke:#ff0000;" x="358.505186" xlink:href="#m5d717060d6" y="63.729339"/>
     <use style="fill:#ff0000;stroke:#ff0000;" x="360.104469" xlink:href="#m5d717060d6" y="63.729339"/>
     <use style="fill:#ff0000;stroke:#ff0000;" x="361.703753" xlink:href="#m5d717060d6" y="58.921441"/>
     <use style="fill:#ff0000;stroke:#ff0000;" x="363.303036" xlink:href="#m5d717060d6" y="67.241257"/>
     <use style="fill:#ff0000;stroke:#ff0000;" x="364.90232" xlink:href="#m5d717060d6" y="67.241257"/>
     <use style="fill:#ff0000;stroke:#ff0000;" x="366.501603" xlink:href="#m5d717060d6" y="60.965648"/>
     <use style="fill:#ff0000;stroke:#ff0000;" x="368.100887" xlink:href="#m5d717060d6" y="60.965648"/>
     <use style="fill:#ff0000;stroke:#ff0000;" x="369.70017" xlink:href="#m5d717060d6" y="54.469088"/>
     <use style="fill:#ff0000;stroke:#ff0000;" x="371.299454" xlink:href="#m5d717060d6" y="54.469088"/>
     <use style="fill:#ff0000;stroke:#ff0000;" x="372.898737" xlink:href="#m5d717060d6" y="54.469088"/>
     <use style="fill:#ff0000;stroke:#ff0000;" x="374.498021" xlink:href="#m5d717060d6" y="54.469088"/>
     <use style="fill:#ff0000;stroke:#ff0000;" x="376.097304" xlink:href="#m5d717060d6" y="54.469088"/>
     <use style="fill:#ff0000;stroke:#ff0000;" x="377.696588" xlink:href="#m5d717060d6" y="54.469088"/>
     <use style="fill:#ff0000;stroke:#ff0000;" x="379.295871" xlink:href="#m5d717060d6" y="54.469088"/>
     <use style="fill:#ff0000;stroke:#ff0000;" x="380.895155" xlink:href="#m5d717060d6" y="54.469088"/>
     <use style="fill:#ff0000;stroke:#ff0000;" x="382.494438" xlink:href="#m5d717060d6" y="54.469088"/>
     <use style="fill:#ff0000;stroke:#ff0000;" x="384.093721" xlink:href="#m5d717060d6" y="54.469088"/>
     <use style="fill:#ff0000;stroke:#ff0000;" x="385.693005" xlink:href="#m5d717060d6" y="54.469088"/>
     <use style="fill:#ff0000;stroke:#ff0000;" x="387.292288" xlink:href="#m5d717060d6" y="54.469088"/>
     <use style="fill:#ff0000;stroke:#ff0000;" x="388.891572" xlink:href="#m5d717060d6" y="54.469088"/>
     <use style="fill:#ff0000;stroke:#ff0000;" x="390.490855" xlink:href="#m5d717060d6" y="54.469088"/>
     <use style="fill:#ff0000;stroke:#ff0000;" x="392.090139" xlink:href="#m5d717060d6" y="54.469088"/>
     <use style="fill:#ff0000;stroke:#ff0000;" x="393.689422" xlink:href="#m5d717060d6" y="54.469088"/>
     <use style="fill:#ff0000;stroke:#ff0000;" x="395.288706" xlink:href="#m5d717060d6" y="54.469088"/>
     <use style="fill:#ff0000;stroke:#ff0000;" x="396.887989" xlink:href="#m5d717060d6" y="54.469088"/>
     <use style="fill:#ff0000;stroke:#ff0000;" x="398.487273" xlink:href="#m5d717060d6" y="54.469088"/>
    </g>
   </g>
   <g id="patch_3">
    <path d="M 57.6 307.584 
L 57.6 41.472 
" style="fill:none;stroke:#000000;stroke-linecap:square;stroke-linejoin:miter;stroke-width:0.8;"/>
   </g>
   <g id="patch_4">
    <path d="M 414.72 307.584 
L 414.72 41.472 
" style="fill:none;stroke:#000000;stroke-linecap:square;stroke-linejoin:miter;stroke-width:0.8;"/>
   </g>
   <g id="patch_5">
    <path d="M 57.6 307.584 
L 414.72 307.584 
" style="fill:none;stroke:#000000;stroke-linecap:square;stroke-linejoin:miter;stroke-width:0.8;"/>
   </g>
   <g id="patch_6">
    <path d="M 57.6 41.472 
L 414.72 41.472 
" style="fill:none;stroke:#000000;stroke-linecap:square;stroke-linejoin:miter;stroke-width:0.8;"/>
   </g>
  </g>
 </g>
 <defs>
  <clipPath id="p634be0ab8c">
   <rect height="266.112" width="357.12" x="57.6" y="41.472"/>
  </clipPath>
 </defs>
</svg>
