<?xml version="1.0" encoding="utf-8" standalone="no"?>
<!DOCTYPE svg PUBLIC "-//W3C//DTD SVG 1.1//EN"
  "http://www.w3.org/Graphics/SVG/1.1/DTD/svg11.dtd">
<!-- Created with matplotlib (https://matplotlib.org/) -->
<svg height="345.6pt" version="1.1" viewBox="0 0 460.8 345.6" width="460.8pt" xmlns="http://www.w3.org/2000/svg" xmlns:xlink="http://www.w3.org/1999/xlink">
 <defs>
  <style type="text/css">
*{stroke-linecap:butt;stroke-linejoin:round;}
  </style>
 </defs>
 <g id="figure_1">
  <g id="patch_1">
   <path d="M 0 345.6 
L 460.8 345.6 
L 460.8 0 
L 0 0 
z
" style="fill:#ffffff;"/>
  </g>
  <g id="axes_1">
   <g id="patch_2">
    <path d="M 57.6 307.584 
L 414.72 307.584 
L 414.72 41.472 
L 57.6 41.472 
z
" style="fill:#ffffff;"/>
   </g>
   <g id="line2d_1">
    <path clip-path="url(#p47d365262c)" d="M 73.832727 273.497892 
L 80.868584 273.497892 
L 81.873707 295.488 
L 82.878829 295.488 
L 83.883952 272.911535 
L 85.894196 272.911535 
L 86.899319 250.577072 
L 87.904441 250.577072 
L 88.909564 231.374219 
L 89.914686 231.374219 
L 90.919809 236.505499 
L 91.924931 215.741254 
L 93.935176 215.741254 
L 94.940298 193.37703 
L 95.945421 193.37703 
L 96.950543 173.863157 
L 97.955666 198.221021 
L 99.96591 198.221021 
L 100.971033 191.199235 
L 101.976155 191.199235 
L 102.981278 198.253521 
L 103.9864 198.253521 
L 104.991523 191.243146 
L 105.996645 190.604994 
L 107.001768 190.604994 
L 108.00689 183.901586 
L 109.012012 183.901586 
L 110.017135 177.245996 
L 111.022257 177.245996 
L 112.02738 185.320227 
L 114.037625 185.320227 
L 115.042747 192.922261 
L 116.047869 192.922261 
L 117.052992 186.174463 
L 118.058114 186.174463 
L 119.063237 185.731405 
L 120.068359 185.731405 
L 121.073482 192.752877 
L 122.078604 192.752877 
L 123.083726 186.65505 
L 124.088849 186.65505 
L 125.093971 180.222482 
L 126.099094 180.222482 
L 127.104216 173.728875 
L 128.109339 173.728875 
L 129.114461 181.877082 
L 130.119583 181.877082 
L 131.124706 174.981184 
L 132.129828 174.981184 
L 133.134951 174.860188 
L 134.140073 174.860188 
L 135.145196 168.521091 
L 136.150318 170.039393 
L 137.15544 170.039393 
L 138.160563 163.26183 
L 139.165685 163.26183 
L 140.170808 156.180446 
L 141.17593 156.180446 
L 142.181053 150.416563 
L 144.191297 150.416563 
L 145.19642 143.526964 
L 147.206665 143.526964 
L 148.211787 145.410122 
L 149.21691 145.410122 
L 150.222032 139.359079 
L 151.227155 139.359079 
L 152.232277 139.973857 
L 153.237399 139.973857 
L 154.242522 133.740199 
L 160.273256 133.740147 
L 161.278379 127.219694 
L 162.283501 127.219694 
L 163.288624 127.013821 
L 165.298869 127.013821 
L 166.303991 121.733206 
L 167.309113 121.733206 
L 168.314236 129.60799 
L 170.324481 129.60799 
L 171.329603 123.225987 
L 172.334726 123.225987 
L 173.339848 117.082999 
L 174.34497 117.082999 
L 175.350093 110.90647 
L 176.355215 119.032016 
L 177.360338 119.032016 
L 178.36546 113.026414 
L 179.370583 113.026414 
L 180.375705 120.820247 
L 181.380827 120.820247 
L 182.38595 114.123175 
L 192.437174 114.123175 
L 193.442297 122.109927 
L 194.447419 122.109927 
L 195.452542 122.778512 
L 196.457664 117.218867 
L 198.467909 117.218867 
L 199.473031 118.298604 
L 200.478154 118.298604 
L 201.483276 120.889795 
L 202.488399 120.889795 
L 203.493521 114.499193 
L 204.498643 109.037969 
L 205.503766 109.037969 
L 206.508888 102.464768 
L 207.514011 102.464768 
L 208.519133 96.424886 
L 209.524256 96.424886 
L 210.529378 90.102056 
L 211.5345 90.102056 
L 213.544745 78.403311 
L 214.549868 78.403311 
L 215.55499 79.971993 
L 218.570357 79.971993 
L 219.57548 82.287169 
L 220.580602 82.287169 
L 221.585725 82.744628 
L 222.590847 90.55854 
L 223.59597 90.55854 
L 224.601092 85.597066 
L 226.611337 85.597066 
L 227.616459 79.298992 
L 228.621582 79.298992 
L 229.626704 87.68057 
L 230.631827 87.68057 
L 231.636949 82.933468 
L 232.642071 82.933468 
L 233.647194 76.364787 
L 235.657439 76.364787 
L 236.662561 71.795966 
L 237.667684 71.795966 
L 238.672806 65.634447 
L 239.677929 65.634447 
L 240.683051 60.006197 
L 241.688173 60.006197 
L 242.693296 59.667398 
L 243.698418 53.568 
L 244.703541 53.568 
L 245.708663 62.062267 
L 246.713786 62.062267 
L 247.718908 55.518827 
L 251.739398 55.518827 
L 252.74452 63.729339 
L 253.749643 63.729339 
L 254.754765 58.921441 
L 255.759887 67.241257 
L 256.76501 67.241257 
L 257.770132 60.965648 
L 258.775255 60.965648 
L 259.780377 54.469088 
L 398.487273 54.469088 
L 398.487273 54.469088 
" style="fill:none;stroke:#ff0000;stroke-linecap:square;stroke-width:12;"/>
    <defs>
     <path d="M 0 3 
C 0.795609 3 1.55874 2.683901 2.12132 2.12132 
C 2.683901 1.55874 3 0.795609 3 0 
C 3 -0.795609 2.683901 -1.55874 2.12132 -2.12132 
C 1.55874 -2.683901 0.795609 -3 0 -3 
C -0.795609 -3 -1.55874 -2.683901 -2.12132 -2.12132 
C -2.683901 -1.55874 -3 -0.795609 -3 0 
C -3 0.795609 -2.683901 1.55874 -2.12132 2.12132 
C -1.55874 2.683901 -0.795609 3 0 3 
z
" id="mafffb00b19" style="stroke:#ff0000;"/>
    </defs>
    <g clip-path="url(#p47d365262c)">
     <use style="fill:#ff0000;stroke:#ff0000;" x="73.832727" xlink:href="#mafffb00b19" y="273.497892"/>
     <use style="fill:#ff0000;stroke:#ff0000;" x="74.83785" xlink:href="#mafffb00b19" y="273.497892"/>
     <use style="fill:#ff0000;stroke:#ff0000;" x="75.842972" xlink:href="#mafffb00b19" y="273.497892"/>
     <use style="fill:#ff0000;stroke:#ff0000;" x="76.848095" xlink:href="#mafffb00b19" y="273.497892"/>
     <use style="fill:#ff0000;stroke:#ff0000;" x="77.853217" xlink:href="#mafffb00b19" y="273.497892"/>
     <use style="fill:#ff0000;stroke:#ff0000;" x="78.858339" xlink:href="#mafffb00b19" y="273.497892"/>
     <use style="fill:#ff0000;stroke:#ff0000;" x="79.863462" xlink:href="#mafffb00b19" y="273.497892"/>
     <use style="fill:#ff0000;stroke:#ff0000;" x="80.868584" xlink:href="#mafffb00b19" y="273.497892"/>
     <use style="fill:#ff0000;stroke:#ff0000;" x="81.873707" xlink:href="#mafffb00b19" y="295.488"/>
     <use style="fill:#ff0000;stroke:#ff0000;" x="82.878829" xlink:href="#mafffb00b19" y="295.488"/>
     <use style="fill:#ff0000;stroke:#ff0000;" x="83.883952" xlink:href="#mafffb00b19" y="272.911535"/>
     <use style="fill:#ff0000;stroke:#ff0000;" x="84.889074" xlink:href="#mafffb00b19" y="272.911535"/>
     <use style="fill:#ff0000;stroke:#ff0000;" x="85.894196" xlink:href="#mafffb00b19" y="272.911535"/>
     <use style="fill:#ff0000;stroke:#ff0000;" x="86.899319" xlink:href="#mafffb00b19" y="250.577072"/>
     <use style="fill:#ff0000;stroke:#ff0000;" x="87.904441" xlink:href="#mafffb00b19" y="250.577072"/>
     <use style="fill:#ff0000;stroke:#ff0000;" x="88.909564" xlink:href="#mafffb00b19" y="231.374219"/>
     <use style="fill:#ff0000;stroke:#ff0000;" x="89.914686" xlink:href="#mafffb00b19" y="231.374219"/>
     <use style="fill:#ff0000;stroke:#ff0000;" x="90.919809" xlink:href="#mafffb00b19" y="236.505499"/>
     <use style="fill:#ff0000;stroke:#ff0000;" x="91.924931" xlink:href="#mafffb00b19" y="215.741254"/>
     <use style="fill:#ff0000;stroke:#ff0000;" x="92.930053" xlink:href="#mafffb00b19" y="215.741254"/>
     <use style="fill:#ff0000;stroke:#ff0000;" x="93.935176" xlink:href="#mafffb00b19" y="215.741254"/>
     <use style="fill:#ff0000;stroke:#ff0000;" x="94.940298" xlink:href="#mafffb00b19" y="193.37703"/>
     <use style="fill:#ff0000;stroke:#ff0000;" x="95.945421" xlink:href="#mafffb00b19" y="193.37703"/>
     <use style="fill:#ff0000;stroke:#ff0000;" x="96.950543" xlink:href="#mafffb00b19" y="173.863157"/>
     <use style="fill:#ff0000;stroke:#ff0000;" x="97.955666" xlink:href="#mafffb00b19" y="198.221021"/>
     <use style="fill:#ff0000;stroke:#ff0000;" x="98.960788" xlink:href="#mafffb00b19" y="198.221021"/>
     <use style="fill:#ff0000;stroke:#ff0000;" x="99.96591" xlink:href="#mafffb00b19" y="198.221021"/>
     <use style="fill:#ff0000;stroke:#ff0000;" x="100.971033" xlink:href="#mafffb00b19" y="191.199235"/>
     <use style="fill:#ff0000;stroke:#ff0000;" x="101.976155" xlink:href="#mafffb00b19" y="191.199235"/>
     <use style="fill:#ff0000;stroke:#ff0000;" x="102.981278" xlink:href="#mafffb00b19" y="198.253521"/>
     <use style="fill:#ff0000;stroke:#ff0000;" x="103.9864" xlink:href="#mafffb00b19" y="198.253521"/>
     <use style="fill:#ff0000;stroke:#ff0000;" x="104.991523" xlink:href="#mafffb00b19" y="191.243146"/>
     <use style="fill:#ff0000;stroke:#ff0000;" x="105.996645" xlink:href="#mafffb00b19" y="190.604994"/>
     <use style="fill:#ff0000;stroke:#ff0000;" x="107.001768" xlink:href="#mafffb00b19" y="190.604994"/>
     <use style="fill:#ff0000;stroke:#ff0000;" x="108.00689" xlink:href="#mafffb00b19" y="183.901586"/>
     <use style="fill:#ff0000;stroke:#ff0000;" x="109.012012" xlink:href="#mafffb00b19" y="183.901586"/>
     <use style="fill:#ff0000;stroke:#ff0000;" x="110.017135" xlink:href="#mafffb00b19" y="177.245996"/>
     <use style="fill:#ff0000;stroke:#ff0000;" x="111.022257" xlink:href="#mafffb00b19" y="177.245996"/>
     <use style="fill:#ff0000;stroke:#ff0000;" x="112.02738" xlink:href="#mafffb00b19" y="185.320227"/>
     <use style="fill:#ff0000;stroke:#ff0000;" x="113.032502" xlink:href="#mafffb00b19" y="185.320227"/>
     <use style="fill:#ff0000;stroke:#ff0000;" x="114.037625" xlink:href="#mafffb00b19" y="185.320227"/>
     <use style="fill:#ff0000;stroke:#ff0000;" x="115.042747" xlink:href="#mafffb00b19" y="192.922261"/>
     <use style="fill:#ff0000;stroke:#ff0000;" x="116.047869" xlink:href="#mafffb00b19" y="192.922261"/>
     <use style="fill:#ff0000;stroke:#ff0000;" x="117.052992" xlink:href="#mafffb00b19" y="186.174463"/>
     <use style="fill:#ff0000;stroke:#ff0000;" x="118.058114" xlink:href="#mafffb00b19" y="186.174463"/>
     <use style="fill:#ff0000;stroke:#ff0000;" x="119.063237" xlink:href="#mafffb00b19" y="185.731405"/>
     <use style="fill:#ff0000;stroke:#ff0000;" x="120.068359" xlink:href="#mafffb00b19" y="185.731405"/>
     <use style="fill:#ff0000;stroke:#ff0000;" x="121.073482" xlink:href="#mafffb00b19" y="192.752877"/>
     <use style="fill:#ff0000;stroke:#ff0000;" x="122.078604" xlink:href="#mafffb00b19" y="192.752877"/>
     <use style="fill:#ff0000;stroke:#ff0000;" x="123.083726" xlink:href="#mafffb00b19" y="186.65505"/>
     <use style="fill:#ff0000;stroke:#ff0000;" x="124.088849" xlink:href="#mafffb00b19" y="186.65505"/>
     <use style="fill:#ff0000;stroke:#ff0000;" x="125.093971" xlink:href="#mafffb00b19" y="180.222482"/>
     <use style="fill:#ff0000;stroke:#ff0000;" x="126.099094" xlink:href="#mafffb00b19" y="180.222482"/>
     <use style="fill:#ff0000;stroke:#ff0000;" x="127.104216" xlink:href="#mafffb00b19" y="173.728875"/>
     <use style="fill:#ff0000;stroke:#ff0000;" x="128.109339" xlink:href="#mafffb00b19" y="173.728875"/>
     <use style="fill:#ff0000;stroke:#ff0000;" x="129.114461" xlink:href="#mafffb00b19" y="181.877082"/>
     <use style="fill:#ff0000;stroke:#ff0000;" x="130.119583" xlink:href="#mafffb00b19" y="181.877082"/>
     <use style="fill:#ff0000;stroke:#ff0000;" x="131.124706" xlink:href="#mafffb00b19" y="174.981184"/>
     <use style="fill:#ff0000;stroke:#ff0000;" x="132.129828" xlink:href="#mafffb00b19" y="174.981184"/>
     <use style="fill:#ff0000;stroke:#ff0000;" x="133.134951" xlink:href="#mafffb00b19" y="174.860188"/>
     <use style="fill:#ff0000;stroke:#ff0000;" x="134.140073" xlink:href="#mafffb00b19" y="174.860188"/>
     <use style="fill:#ff0000;stroke:#ff0000;" x="135.145196" xlink:href="#mafffb00b19" y="168.521091"/>
     <use style="fill:#ff0000;stroke:#ff0000;" x="136.150318" xlink:href="#mafffb00b19" y="170.039393"/>
     <use style="fill:#ff0000;stroke:#ff0000;" x="137.15544" xlink:href="#mafffb00b19" y="170.039393"/>
     <use style="fill:#ff0000;stroke:#ff0000;" x="138.160563" xlink:href="#mafffb00b19" y="163.26183"/>
     <use style="fill:#ff0000;stroke:#ff0000;" x="139.165685" xlink:href="#mafffb00b19" y="163.26183"/>
     <use style="fill:#ff0000;stroke:#ff0000;" x="140.170808" xlink:href="#mafffb00b19" y="156.180446"/>
     <use style="fill:#ff0000;stroke:#ff0000;" x="141.17593" xlink:href="#mafffb00b19" y="156.180446"/>
     <use style="fill:#ff0000;stroke:#ff0000;" x="142.181053" xlink:href="#mafffb00b19" y="150.416563"/>
     <use style="fill:#ff0000;stroke:#ff0000;" x="143.186175" xlink:href="#mafffb00b19" y="150.416563"/>
     <use style="fill:#ff0000;stroke:#ff0000;" x="144.191297" xlink:href="#mafffb00b19" y="150.416563"/>
     <use style="fill:#ff0000;stroke:#ff0000;" x="145.19642" xlink:href="#mafffb00b19" y="143.526964"/>
     <use style="fill:#ff0000;stroke:#ff0000;" x="146.201542" xlink:href="#mafffb00b19" y="143.526964"/>
     <use style="fill:#ff0000;stroke:#ff0000;" x="147.206665" xlink:href="#mafffb00b19" y="143.526964"/>
     <use style="fill:#ff0000;stroke:#ff0000;" x="148.211787" xlink:href="#mafffb00b19" y="145.410122"/>
     <use style="fill:#ff0000;stroke:#ff0000;" x="149.21691" xlink:href="#mafffb00b19" y="145.410122"/>
     <use style="fill:#ff0000;stroke:#ff0000;" x="150.222032" xlink:href="#mafffb00b19" y="139.359079"/>
     <use style="fill:#ff0000;stroke:#ff0000;" x="151.227155" xlink:href="#mafffb00b19" y="139.359079"/>
     <use style="fill:#ff0000;stroke:#ff0000;" x="152.232277" xlink:href="#mafffb00b19" y="139.973857"/>
     <use style="fill:#ff0000;stroke:#ff0000;" x="153.237399" xlink:href="#mafffb00b19" y="139.973857"/>
     <use style="fill:#ff0000;stroke:#ff0000;" x="154.242522" xlink:href="#mafffb00b19" y="133.740199"/>
     <use style="fill:#ff0000;stroke:#ff0000;" x="155.247644" xlink:href="#mafffb00b19" y="133.740199"/>
     <use style="fill:#ff0000;stroke:#ff0000;" x="156.252767" xlink:href="#mafffb00b19" y="133.740199"/>
     <use style="fill:#ff0000;stroke:#ff0000;" x="157.257889" xlink:href="#mafffb00b19" y="133.740199"/>
     <use style="fill:#ff0000;stroke:#ff0000;" x="158.263012" xlink:href="#mafffb00b19" y="133.740199"/>
     <use style="fill:#ff0000;stroke:#ff0000;" x="159.268134" xlink:href="#mafffb00b19" y="133.740147"/>
     <use style="fill:#ff0000;stroke:#ff0000;" x="160.273256" xlink:href="#mafffb00b19" y="133.740147"/>
     <use style="fill:#ff0000;stroke:#ff0000;" x="161.278379" xlink:href="#mafffb00b19" y="127.219694"/>
     <use style="fill:#ff0000;stroke:#ff0000;" x="162.283501" xlink:href="#mafffb00b19" y="127.219694"/>
     <use style="fill:#ff0000;stroke:#ff0000;" x="163.288624" xlink:href="#mafffb00b19" y="127.013821"/>
     <use style="fill:#ff0000;stroke:#ff0000;" x="164.293746" xlink:href="#mafffb00b19" y="127.013821"/>
     <use style="fill:#ff0000;stroke:#ff0000;" x="165.298869" xlink:href="#mafffb00b19" y="127.013821"/>
     <use style="fill:#ff0000;stroke:#ff0000;" x="166.303991" xlink:href="#mafffb00b19" y="121.733206"/>
     <use style="fill:#ff0000;stroke:#ff0000;" x="167.309113" xlink:href="#mafffb00b19" y="121.733206"/>
     <use style="fill:#ff0000;stroke:#ff0000;" x="168.314236" xlink:href="#mafffb00b19" y="129.60799"/>
     <use style="fill:#ff0000;stroke:#ff0000;" x="169.319358" xlink:href="#mafffb00b19" y="129.60799"/>
     <use style="fill:#ff0000;stroke:#ff0000;" x="170.324481" xlink:href="#mafffb00b19" y="129.60799"/>
     <use style="fill:#ff0000;stroke:#ff0000;" x="171.329603" xlink:href="#mafffb00b19" y="123.225987"/>
     <use style="fill:#ff0000;stroke:#ff0000;" x="172.334726" xlink:href="#mafffb00b19" y="123.225987"/>
     <use style="fill:#ff0000;stroke:#ff0000;" x="173.339848" xlink:href="#mafffb00b19" y="117.082999"/>
     <use style="fill:#ff0000;stroke:#ff0000;" x="174.34497" xlink:href="#mafffb00b19" y="117.082999"/>
     <use style="fill:#ff0000;stroke:#ff0000;" x="175.350093" xlink:href="#mafffb00b19" y="110.90647"/>
     <use style="fill:#ff0000;stroke:#ff0000;" x="176.355215" xlink:href="#mafffb00b19" y="119.032016"/>
     <use style="fill:#ff0000;stroke:#ff0000;" x="177.360338" xlink:href="#mafffb00b19" y="119.032016"/>
     <use style="fill:#ff0000;stroke:#ff0000;" x="178.36546" xlink:href="#mafffb00b19" y="113.026414"/>
     <use style="fill:#ff0000;stroke:#ff0000;" x="179.370583" xlink:href="#mafffb00b19" y="113.026414"/>
     <use style="fill:#ff0000;stroke:#ff0000;" x="180.375705" xlink:href="#mafffb00b19" y="120.820247"/>
     <use style="fill:#ff0000;stroke:#ff0000;" x="181.380827" xlink:href="#mafffb00b19" y="120.820247"/>
     <use style="fill:#ff0000;stroke:#ff0000;" x="182.38595" xlink:href="#mafffb00b19" y="114.123175"/>
     <use style="fill:#ff0000;stroke:#ff0000;" x="183.391072" xlink:href="#mafffb00b19" y="114.123175"/>
     <use style="fill:#ff0000;stroke:#ff0000;" x="184.396195" xlink:href="#mafffb00b19" y="114.123175"/>
     <use style="fill:#ff0000;stroke:#ff0000;" x="185.401317" xlink:href="#mafffb00b19" y="114.123175"/>
     <use style="fill:#ff0000;stroke:#ff0000;" x="186.40644" xlink:href="#mafffb00b19" y="114.123175"/>
     <use style="fill:#ff0000;stroke:#ff0000;" x="187.411562" xlink:href="#mafffb00b19" y="114.123175"/>
     <use style="fill:#ff0000;stroke:#ff0000;" x="188.416684" xlink:href="#mafffb00b19" y="114.123175"/>
     <use style="fill:#ff0000;stroke:#ff0000;" x="189.421807" xlink:href="#mafffb00b19" y="114.123175"/>
     <use style="fill:#ff0000;stroke:#ff0000;" x="190.426929" xlink:href="#mafffb00b19" y="114.123175"/>
     <use style="fill:#ff0000;stroke:#ff0000;" x="191.432052" xlink:href="#mafffb00b19" y="114.123175"/>
     <use style="fill:#ff0000;stroke:#ff0000;" x="192.437174" xlink:href="#mafffb00b19" y="114.123175"/>
     <use style="fill:#ff0000;stroke:#ff0000;" x="193.442297" xlink:href="#mafffb00b19" y="122.109927"/>
     <use style="fill:#ff0000;stroke:#ff0000;" x="194.447419" xlink:href="#mafffb00b19" y="122.109927"/>
     <use style="fill:#ff0000;stroke:#ff0000;" x="195.452542" xlink:href="#mafffb00b19" y="122.778512"/>
     <use style="fill:#ff0000;stroke:#ff0000;" x="196.457664" xlink:href="#mafffb00b19" y="117.218867"/>
     <use style="fill:#ff0000;stroke:#ff0000;" x="197.462786" xlink:href="#mafffb00b19" y="117.218867"/>
     <use style="fill:#ff0000;stroke:#ff0000;" x="198.467909" xlink:href="#mafffb00b19" y="117.218867"/>
     <use style="fill:#ff0000;stroke:#ff0000;" x="199.473031" xlink:href="#mafffb00b19" y="118.298604"/>
     <use style="fill:#ff0000;stroke:#ff0000;" x="200.478154" xlink:href="#mafffb00b19" y="118.298604"/>
     <use style="fill:#ff0000;stroke:#ff0000;" x="201.483276" xlink:href="#mafffb00b19" y="120.889795"/>
     <use style="fill:#ff0000;stroke:#ff0000;" x="202.488399" xlink:href="#mafffb00b19" y="120.889795"/>
     <use style="fill:#ff0000;stroke:#ff0000;" x="203.493521" xlink:href="#mafffb00b19" y="114.499193"/>
     <use style="fill:#ff0000;stroke:#ff0000;" x="204.498643" xlink:href="#mafffb00b19" y="109.037969"/>
     <use style="fill:#ff0000;stroke:#ff0000;" x="205.503766" xlink:href="#mafffb00b19" y="109.037969"/>
     <use style="fill:#ff0000;stroke:#ff0000;" x="206.508888" xlink:href="#mafffb00b19" y="102.464768"/>
     <use style="fill:#ff0000;stroke:#ff0000;" x="207.514011" xlink:href="#mafffb00b19" y="102.464768"/>
     <use style="fill:#ff0000;stroke:#ff0000;" x="208.519133" xlink:href="#mafffb00b19" y="96.424886"/>
     <use style="fill:#ff0000;stroke:#ff0000;" x="209.524256" xlink:href="#mafffb00b19" y="96.424886"/>
     <use style="fill:#ff0000;stroke:#ff0000;" x="210.529378" xlink:href="#mafffb00b19" y="90.102056"/>
     <use style="fill:#ff0000;stroke:#ff0000;" x="211.5345" xlink:href="#mafffb00b19" y="90.102056"/>
     <use style="fill:#ff0000;stroke:#ff0000;" x="212.539623" xlink:href="#mafffb00b19" y="83.985756"/>
     <use style="fill:#ff0000;stroke:#ff0000;" x="213.544745" xlink:href="#mafffb00b19" y="78.403311"/>
     <use style="fill:#ff0000;stroke:#ff0000;" x="214.549868" xlink:href="#mafffb00b19" y="78.403311"/>
     <use style="fill:#ff0000;stroke:#ff0000;" x="215.55499" xlink:href="#mafffb00b19" y="79.971993"/>
     <use style="fill:#ff0000;stroke:#ff0000;" x="216.560113" xlink:href="#mafffb00b19" y="79.971993"/>
     <use style="fill:#ff0000;stroke:#ff0000;" x="217.565235" xlink:href="#mafffb00b19" y="79.971993"/>
     <use style="fill:#ff0000;stroke:#ff0000;" x="218.570357" xlink:href="#mafffb00b19" y="79.971993"/>
     <use style="fill:#ff0000;stroke:#ff0000;" x="219.57548" xlink:href="#mafffb00b19" y="82.287169"/>
     <use style="fill:#ff0000;stroke:#ff0000;" x="220.580602" xlink:href="#mafffb00b19" y="82.287169"/>
     <use style="fill:#ff0000;stroke:#ff0000;" x="221.585725" xlink:href="#mafffb00b19" y="82.744628"/>
     <use style="fill:#ff0000;stroke:#ff0000;" x="222.590847" xlink:href="#mafffb00b19" y="90.55854"/>
     <use style="fill:#ff0000;stroke:#ff0000;" x="223.59597" xlink:href="#mafffb00b19" y="90.55854"/>
     <use style="fill:#ff0000;stroke:#ff0000;" x="224.601092" xlink:href="#mafffb00b19" y="85.597066"/>
     <use style="fill:#ff0000;stroke:#ff0000;" x="225.606214" xlink:href="#mafffb00b19" y="85.597066"/>
     <use style="fill:#ff0000;stroke:#ff0000;" x="226.611337" xlink:href="#mafffb00b19" y="85.597066"/>
     <use style="fill:#ff0000;stroke:#ff0000;" x="227.616459" xlink:href="#mafffb00b19" y="79.298992"/>
     <use style="fill:#ff0000;stroke:#ff0000;" x="228.621582" xlink:href="#mafffb00b19" y="79.298992"/>
     <use style="fill:#ff0000;stroke:#ff0000;" x="229.626704" xlink:href="#mafffb00b19" y="87.68057"/>
     <use style="fill:#ff0000;stroke:#ff0000;" x="230.631827" xlink:href="#mafffb00b19" y="87.68057"/>
     <use style="fill:#ff0000;stroke:#ff0000;" x="231.636949" xlink:href="#mafffb00b19" y="82.933468"/>
     <use style="fill:#ff0000;stroke:#ff0000;" x="232.642071" xlink:href="#mafffb00b19" y="82.933468"/>
     <use style="fill:#ff0000;stroke:#ff0000;" x="233.647194" xlink:href="#mafffb00b19" y="76.364787"/>
     <use style="fill:#ff0000;stroke:#ff0000;" x="234.652316" xlink:href="#mafffb00b19" y="76.364787"/>
     <use style="fill:#ff0000;stroke:#ff0000;" x="235.657439" xlink:href="#mafffb00b19" y="76.364787"/>
     <use style="fill:#ff0000;stroke:#ff0000;" x="236.662561" xlink:href="#mafffb00b19" y="71.795966"/>
     <use style="fill:#ff0000;stroke:#ff0000;" x="237.667684" xlink:href="#mafffb00b19" y="71.795966"/>
     <use style="fill:#ff0000;stroke:#ff0000;" x="238.672806" xlink:href="#mafffb00b19" y="65.634447"/>
     <use style="fill:#ff0000;stroke:#ff0000;" x="239.677929" xlink:href="#mafffb00b19" y="65.634447"/>
     <use style="fill:#ff0000;stroke:#ff0000;" x="240.683051" xlink:href="#mafffb00b19" y="60.006197"/>
     <use style="fill:#ff0000;stroke:#ff0000;" x="241.688173" xlink:href="#mafffb00b19" y="60.006197"/>
     <use style="fill:#ff0000;stroke:#ff0000;" x="242.693296" xlink:href="#mafffb00b19" y="59.667398"/>
     <use style="fill:#ff0000;stroke:#ff0000;" x="243.698418" xlink:href="#mafffb00b19" y="53.568"/>
     <use style="fill:#ff0000;stroke:#ff0000;" x="244.703541" xlink:href="#mafffb00b19" y="53.568"/>
     <use style="fill:#ff0000;stroke:#ff0000;" x="245.708663" xlink:href="#mafffb00b19" y="62.062267"/>
     <use style="fill:#ff0000;stroke:#ff0000;" x="246.713786" xlink:href="#mafffb00b19" y="62.062267"/>
     <use style="fill:#ff0000;stroke:#ff0000;" x="247.718908" xlink:href="#mafffb00b19" y="55.518827"/>
     <use style="fill:#ff0000;stroke:#ff0000;" x="248.72403" xlink:href="#mafffb00b19" y="55.518827"/>
     <use style="fill:#ff0000;stroke:#ff0000;" x="249.729153" xlink:href="#mafffb00b19" y="55.518827"/>
     <use style="fill:#ff0000;stroke:#ff0000;" x="250.734275" xlink:href="#mafffb00b19" y="55.518827"/>
     <use style="fill:#ff0000;stroke:#ff0000;" x="251.739398" xlink:href="#mafffb00b19" y="55.518827"/>
     <use style="fill:#ff0000;stroke:#ff0000;" x="252.74452" xlink:href="#mafffb00b19" y="63.729339"/>
     <use style="fill:#ff0000;stroke:#ff0000;" x="253.749643" xlink:href="#mafffb00b19" y="63.729339"/>
     <use style="fill:#ff0000;stroke:#ff0000;" x="254.754765" xlink:href="#mafffb00b19" y="58.921441"/>
     <use style="fill:#ff0000;stroke:#ff0000;" x="255.759887" xlink:href="#mafffb00b19" y="67.241257"/>
     <use style="fill:#ff0000;stroke:#ff0000;" x="256.76501" xlink:href="#mafffb00b19" y="67.241257"/>
     <use style="fill:#ff0000;stroke:#ff0000;" x="257.770132" xlink:href="#mafffb00b19" y="60.965648"/>
     <use style="fill:#ff0000;stroke:#ff0000;" x="258.775255" xlink:href="#mafffb00b19" y="60.965648"/>
     <use style="fill:#ff0000;stroke:#ff0000;" x="259.780377" xlink:href="#mafffb00b19" y="54.469088"/>
     <use style="fill:#ff0000;stroke:#ff0000;" x="260.7855" xlink:href="#mafffb00b19" y="54.469088"/>
     <use style="fill:#ff0000;stroke:#ff0000;" x="261.790622" xlink:href="#mafffb00b19" y="54.469088"/>
     <use style="fill:#ff0000;stroke:#ff0000;" x="262.795744" xlink:href="#mafffb00b19" y="54.469088"/>
     <use style="fill:#ff0000;stroke:#ff0000;" x="263.800867" xlink:href="#mafffb00b19" y="54.469088"/>
     <use style="fill:#ff0000;stroke:#ff0000;" x="264.805989" xlink:href="#mafffb00b19" y="54.469088"/>
     <use style="fill:#ff0000;stroke:#ff0000;" x="265.811112" xlink:href="#mafffb00b19" y="54.469088"/>
     <use style="fill:#ff0000;stroke:#ff0000;" x="266.816234" xlink:href="#mafffb00b19" y="54.469088"/>
     <use style="fill:#ff0000;stroke:#ff0000;" x="267.821357" xlink:href="#mafffb00b19" y="54.469088"/>
     <use style="fill:#ff0000;stroke:#ff0000;" x="268.826479" xlink:href="#mafffb00b19" y="54.469088"/>
     <use style="fill:#ff0000;stroke:#ff0000;" x="269.831601" xlink:href="#mafffb00b19" y="54.469088"/>
     <use style="fill:#ff0000;stroke:#ff0000;" x="270.836724" xlink:href="#mafffb00b19" y="54.469088"/>
     <use style="fill:#ff0000;stroke:#ff0000;" x="271.841846" xlink:href="#mafffb00b19" y="54.469088"/>
     <use style="fill:#ff0000;stroke:#ff0000;" x="272.846969" xlink:href="#mafffb00b19" y="54.469088"/>
     <use style="fill:#ff0000;stroke:#ff0000;" x="273.852091" xlink:href="#mafffb00b19" y="54.469088"/>
     <use style="fill:#ff0000;stroke:#ff0000;" x="274.857214" xlink:href="#mafffb00b19" y="54.469088"/>
     <use style="fill:#ff0000;stroke:#ff0000;" x="275.862336" xlink:href="#mafffb00b19" y="54.469088"/>
     <use style="fill:#ff0000;stroke:#ff0000;" x="276.867458" xlink:href="#mafffb00b19" y="54.469088"/>
     <use style="fill:#ff0000;stroke:#ff0000;" x="277.872581" xlink:href="#mafffb00b19" y="54.469088"/>
     <use style="fill:#ff0000;stroke:#ff0000;" x="278.877703" xlink:href="#mafffb00b19" y="54.469088"/>
     <use style="fill:#ff0000;stroke:#ff0000;" x="279.882826" xlink:href="#mafffb00b19" y="54.469088"/>
     <use style="fill:#ff0000;stroke:#ff0000;" x="280.887948" xlink:href="#mafffb00b19" y="54.469088"/>
     <use style="fill:#ff0000;stroke:#ff0000;" x="281.893071" xlink:href="#mafffb00b19" y="54.469088"/>
     <use style="fill:#ff0000;stroke:#ff0000;" x="282.898193" xlink:href="#mafffb00b19" y="54.469088"/>
     <use style="fill:#ff0000;stroke:#ff0000;" x="283.903316" xlink:href="#mafffb00b19" y="54.469088"/>
     <use style="fill:#ff0000;stroke:#ff0000;" x="284.908438" xlink:href="#mafffb00b19" y="54.469088"/>
     <use style="fill:#ff0000;stroke:#ff0000;" x="285.91356" xlink:href="#mafffb00b19" y="54.469088"/>
     <use style="fill:#ff0000;stroke:#ff0000;" x="286.918683" xlink:href="#mafffb00b19" y="54.469088"/>
     <use style="fill:#ff0000;stroke:#ff0000;" x="287.923805" xlink:href="#mafffb00b19" y="54.469088"/>
     <use style="fill:#ff0000;stroke:#ff0000;" x="288.928928" xlink:href="#mafffb00b19" y="54.469088"/>
     <use style="fill:#ff0000;stroke:#ff0000;" x="289.93405" xlink:href="#mafffb00b19" y="54.469088"/>
     <use style="fill:#ff0000;stroke:#ff0000;" x="290.939173" xlink:href="#mafffb00b19" y="54.469088"/>
     <use style="fill:#ff0000;stroke:#ff0000;" x="291.944295" xlink:href="#mafffb00b19" y="54.469088"/>
     <use style="fill:#ff0000;stroke:#ff0000;" x="292.949417" xlink:href="#mafffb00b19" y="54.469088"/>
     <use style="fill:#ff0000;stroke:#ff0000;" x="293.95454" xlink:href="#mafffb00b19" y="54.469088"/>
     <use style="fill:#ff0000;stroke:#ff0000;" x="294.959662" xlink:href="#mafffb00b19" y="54.469088"/>
     <use style="fill:#ff0000;stroke:#ff0000;" x="295.964785" xlink:href="#mafffb00b19" y="54.469088"/>
     <use style="fill:#ff0000;stroke:#ff0000;" x="296.969907" xlink:href="#mafffb00b19" y="54.469088"/>
     <use style="fill:#ff0000;stroke:#ff0000;" x="297.97503" xlink:href="#mafffb00b19" y="54.469088"/>
     <use style="fill:#ff0000;stroke:#ff0000;" x="298.980152" xlink:href="#mafffb00b19" y="54.469088"/>
     <use style="fill:#ff0000;stroke:#ff0000;" x="299.985274" xlink:href="#mafffb00b19" y="54.469088"/>
     <use style="fill:#ff0000;stroke:#ff0000;" x="300.990397" xlink:href="#mafffb00b19" y="54.469088"/>
     <use style="fill:#ff0000;stroke:#ff0000;" x="301.995519" xlink:href="#mafffb00b19" y="54.469088"/>
     <use style="fill:#ff0000;stroke:#ff0000;" x="303.000642" xlink:href="#mafffb00b19" y="54.469088"/>
     <use style="fill:#ff0000;stroke:#ff0000;" x="304.005764" xlink:href="#mafffb00b19" y="54.469088"/>
     <use style="fill:#ff0000;stroke:#ff0000;" x="305.010887" xlink:href="#mafffb00b19" y="54.469088"/>
     <use style="fill:#ff0000;stroke:#ff0000;" x="306.016009" xlink:href="#mafffb00b19" y="54.469088"/>
     <use style="fill:#ff0000;stroke:#ff0000;" x="307.021131" xlink:href="#mafffb00b19" y="54.469088"/>
     <use style="fill:#ff0000;stroke:#ff0000;" x="308.026254" xlink:href="#mafffb00b19" y="54.469088"/>
     <use style="fill:#ff0000;stroke:#ff0000;" x="309.031376" xlink:href="#mafffb00b19" y="54.469088"/>
     <use style="fill:#ff0000;stroke:#ff0000;" x="310.036499" xlink:href="#mafffb00b19" y="54.469088"/>
     <use style="fill:#ff0000;stroke:#ff0000;" x="311.041621" xlink:href="#mafffb00b19" y="54.469088"/>
     <use style="fill:#ff0000;stroke:#ff0000;" x="312.046744" xlink:href="#mafffb00b19" y="54.469088"/>
     <use style="fill:#ff0000;stroke:#ff0000;" x="313.051866" xlink:href="#mafffb00b19" y="54.469088"/>
     <use style="fill:#ff0000;stroke:#ff0000;" x="314.056988" xlink:href="#mafffb00b19" y="54.469088"/>
     <use style="fill:#ff0000;stroke:#ff0000;" x="315.062111" xlink:href="#mafffb00b19" y="54.469088"/>
     <use style="fill:#ff0000;stroke:#ff0000;" x="316.067233" xlink:href="#mafffb00b19" y="54.469088"/>
     <use style="fill:#ff0000;stroke:#ff0000;" x="317.072356" xlink:href="#mafffb00b19" y="54.469088"/>
     <use style="fill:#ff0000;stroke:#ff0000;" x="318.077478" xlink:href="#mafffb00b19" y="54.469088"/>
     <use style="fill:#ff0000;stroke:#ff0000;" x="319.082601" xlink:href="#mafffb00b19" y="54.469088"/>
     <use style="fill:#ff0000;stroke:#ff0000;" x="320.087723" xlink:href="#mafffb00b19" y="54.469088"/>
     <use style="fill:#ff0000;stroke:#ff0000;" x="321.092845" xlink:href="#mafffb00b19" y="54.469088"/>
     <use style="fill:#ff0000;stroke:#ff0000;" x="322.097968" xlink:href="#mafffb00b19" y="54.469088"/>
     <use style="fill:#ff0000;stroke:#ff0000;" x="323.10309" xlink:href="#mafffb00b19" y="54.469088"/>
     <use style="fill:#ff0000;stroke:#ff0000;" x="324.108213" xlink:href="#mafffb00b19" y="54.469088"/>
     <use style="fill:#ff0000;stroke:#ff0000;" x="325.113335" xlink:href="#mafffb00b19" y="54.469088"/>
     <use style="fill:#ff0000;stroke:#ff0000;" x="326.118458" xlink:href="#mafffb00b19" y="54.469088"/>
     <use style="fill:#ff0000;stroke:#ff0000;" x="327.12358" xlink:href="#mafffb00b19" y="54.469088"/>
     <use style="fill:#ff0000;stroke:#ff0000;" x="328.128703" xlink:href="#mafffb00b19" y="54.469088"/>
     <use style="fill:#ff0000;stroke:#ff0000;" x="329.133825" xlink:href="#mafffb00b19" y="54.469088"/>
     <use style="fill:#ff0000;stroke:#ff0000;" x="330.138947" xlink:href="#mafffb00b19" y="54.469088"/>
     <use style="fill:#ff0000;stroke:#ff0000;" x="331.14407" xlink:href="#mafffb00b19" y="54.469088"/>
     <use style="fill:#ff0000;stroke:#ff0000;" x="332.149192" xlink:href="#mafffb00b19" y="54.469088"/>
     <use style="fill:#ff0000;stroke:#ff0000;" x="333.154315" xlink:href="#mafffb00b19" y="54.469088"/>
     <use style="fill:#ff0000;stroke:#ff0000;" x="334.159437" xlink:href="#mafffb00b19" y="54.469088"/>
     <use style="fill:#ff0000;stroke:#ff0000;" x="335.16456" xlink:href="#mafffb00b19" y="54.469088"/>
     <use style="fill:#ff0000;stroke:#ff0000;" x="336.169682" xlink:href="#mafffb00b19" y="54.469088"/>
     <use style="fill:#ff0000;stroke:#ff0000;" x="337.174804" xlink:href="#mafffb00b19" y="54.469088"/>
     <use style="fill:#ff0000;stroke:#ff0000;" x="338.179927" xlink:href="#mafffb00b19" y="54.469088"/>
     <use style="fill:#ff0000;stroke:#ff0000;" x="339.185049" xlink:href="#mafffb00b19" y="54.469088"/>
     <use style="fill:#ff0000;stroke:#ff0000;" x="340.190172" xlink:href="#mafffb00b19" y="54.469088"/>
     <use style="fill:#ff0000;stroke:#ff0000;" x="341.195294" xlink:href="#mafffb00b19" y="54.469088"/>
     <use style="fill:#ff0000;stroke:#ff0000;" x="342.200417" xlink:href="#mafffb00b19" y="54.469088"/>
     <use style="fill:#ff0000;stroke:#ff0000;" x="343.205539" xlink:href="#mafffb00b19" y="54.469088"/>
     <use style="fill:#ff0000;stroke:#ff0000;" x="344.210661" xlink:href="#mafffb00b19" y="54.469088"/>
     <use style="fill:#ff0000;stroke:#ff0000;" x="345.215784" xlink:href="#mafffb00b19" y="54.469088"/>
     <use style="fill:#ff0000;stroke:#ff0000;" x="346.220906" xlink:href="#mafffb00b19" y="54.469088"/>
     <use style="fill:#ff0000;stroke:#ff0000;" x="347.226029" xlink:href="#mafffb00b19" y="54.469088"/>
     <use style="fill:#ff0000;stroke:#ff0000;" x="348.231151" xlink:href="#mafffb00b19" y="54.469088"/>
     <use style="fill:#ff0000;stroke:#ff0000;" x="349.236274" xlink:href="#mafffb00b19" y="54.469088"/>
     <use style="fill:#ff0000;stroke:#ff0000;" x="350.241396" xlink:href="#mafffb00b19" y="54.469088"/>
     <use style="fill:#ff0000;stroke:#ff0000;" x="351.246518" xlink:href="#mafffb00b19" y="54.469088"/>
     <use style="fill:#ff0000;stroke:#ff0000;" x="352.251641" xlink:href="#mafffb00b19" y="54.469088"/>
     <use style="fill:#ff0000;stroke:#ff0000;" x="353.256763" xlink:href="#mafffb00b19" y="54.469088"/>
     <use style="fill:#ff0000;stroke:#ff0000;" x="354.261886" xlink:href="#mafffb00b19" y="54.469088"/>
     <use style="fill:#ff0000;stroke:#ff0000;" x="355.267008" xlink:href="#mafffb00b19" y="54.469088"/>
     <use style="fill:#ff0000;stroke:#ff0000;" x="356.272131" xlink:href="#mafffb00b19" y="54.469088"/>
     <use style="fill:#ff0000;stroke:#ff0000;" x="357.277253" xlink:href="#mafffb00b19" y="54.469088"/>
     <use style="fill:#ff0000;stroke:#ff0000;" x="358.282375" xlink:href="#mafffb00b19" y="54.469088"/>
     <use style="fill:#ff0000;stroke:#ff0000;" x="359.287498" xlink:href="#mafffb00b19" y="54.469088"/>
     <use style="fill:#ff0000;stroke:#ff0000;" x="360.29262" xlink:href="#mafffb00b19" y="54.469088"/>
     <use style="fill:#ff0000;stroke:#ff0000;" x="361.297743" xlink:href="#mafffb00b19" y="54.469088"/>
     <use style="fill:#ff0000;stroke:#ff0000;" x="362.302865" xlink:href="#mafffb00b19" y="54.469088"/>
     <use style="fill:#ff0000;stroke:#ff0000;" x="363.307988" xlink:href="#mafffb00b19" y="54.469088"/>
     <use style="fill:#ff0000;stroke:#ff0000;" x="364.31311" xlink:href="#mafffb00b19" y="54.469088"/>
     <use style="fill:#ff0000;stroke:#ff0000;" x="365.318232" xlink:href="#mafffb00b19" y="54.469088"/>
     <use style="fill:#ff0000;stroke:#ff0000;" x="366.323355" xlink:href="#mafffb00b19" y="54.469088"/>
     <use style="fill:#ff0000;stroke:#ff0000;" x="367.328477" xlink:href="#mafffb00b19" y="54.469088"/>
     <use style="fill:#ff0000;stroke:#ff0000;" x="368.3336" xlink:href="#mafffb00b19" y="54.469088"/>
     <use style="fill:#ff0000;stroke:#ff0000;" x="369.338722" xlink:href="#mafffb00b19" y="54.469088"/>
     <use style="fill:#ff0000;stroke:#ff0000;" x="370.343845" xlink:href="#mafffb00b19" y="54.469088"/>
     <use style="fill:#ff0000;stroke:#ff0000;" x="371.348967" xlink:href="#mafffb00b19" y="54.469088"/>
     <use style="fill:#ff0000;stroke:#ff0000;" x="372.35409" xlink:href="#mafffb00b19" y="54.469088"/>
     <use style="fill:#ff0000;stroke:#ff0000;" x="373.359212" xlink:href="#mafffb00b19" y="54.469088"/>
     <use style="fill:#ff0000;stroke:#ff0000;" x="374.364334" xlink:href="#mafffb00b19" y="54.469088"/>
     <use style="fill:#ff0000;stroke:#ff0000;" x="375.369457" xlink:href="#mafffb00b19" y="54.469088"/>
     <use style="fill:#ff0000;stroke:#ff0000;" x="376.374579" xlink:href="#mafffb00b19" y="54.469088"/>
     <use style="fill:#ff0000;stroke:#ff0000;" x="377.379702" xlink:href="#mafffb00b19" y="54.469088"/>
     <use style="fill:#ff0000;stroke:#ff0000;" x="378.384824" xlink:href="#mafffb00b19" y="54.469088"/>
     <use style="fill:#ff0000;stroke:#ff0000;" x="379.389947" xlink:href="#mafffb00b19" y="54.469088"/>
     <use style="fill:#ff0000;stroke:#ff0000;" x="380.395069" xlink:href="#mafffb00b19" y="54.469088"/>
     <use style="fill:#ff0000;stroke:#ff0000;" x="381.400191" xlink:href="#mafffb00b19" y="54.469088"/>
     <use style="fill:#ff0000;stroke:#ff0000;" x="382.405314" xlink:href="#mafffb00b19" y="54.469088"/>
     <use style="fill:#ff0000;stroke:#ff0000;" x="383.410436" xlink:href="#mafffb00b19" y="54.469088"/>
     <use style="fill:#ff0000;stroke:#ff0000;" x="384.415559" xlink:href="#mafffb00b19" y="54.469088"/>
     <use style="fill:#ff0000;stroke:#ff0000;" x="385.420681" xlink:href="#mafffb00b19" y="54.469088"/>
     <use style="fill:#ff0000;stroke:#ff0000;" x="386.425804" xlink:href="#mafffb00b19" y="54.469088"/>
     <use style="fill:#ff0000;stroke:#ff0000;" x="387.430926" xlink:href="#mafffb00b19" y="54.469088"/>
     <use style="fill:#ff0000;stroke:#ff0000;" x="388.436048" xlink:href="#mafffb00b19" y="54.469088"/>
     <use style="fill:#ff0000;stroke:#ff0000;" x="389.441171" xlink:href="#mafffb00b19" y="54.469088"/>
     <use style="fill:#ff0000;stroke:#ff0000;" x="390.446293" xlink:href="#mafffb00b19" y="54.469088"/>
     <use style="fill:#ff0000;stroke:#ff0000;" x="391.451416" xlink:href="#mafffb00b19" y="54.469088"/>
     <use style="fill:#ff0000;stroke:#ff0000;" x="392.456538" xlink:href="#mafffb00b19" y="54.469088"/>
     <use style="fill:#ff0000;stroke:#ff0000;" x="393.461661" xlink:href="#mafffb00b19" y="54.469088"/>
     <use style="fill:#ff0000;stroke:#ff0000;" x="394.466783" xlink:href="#mafffb00b19" y="54.469088"/>
     <use style="fill:#ff0000;stroke:#ff0000;" x="395.471905" xlink:href="#mafffb00b19" y="54.469088"/>
     <use style="fill:#ff0000;stroke:#ff0000;" x="396.477028" xlink:href="#mafffb00b19" y="54.469088"/>
     <use style="fill:#ff0000;stroke:#ff0000;" x="397.48215" xlink:href="#mafffb00b19" y="54.469088"/>
     <use style="fill:#ff0000;stroke:#ff0000;" x="398.487273" xlink:href="#mafffb00b19" y="54.469088"/>
    </g>
   </g>
   <g id="patch_3">
    <path d="M 57.6 307.584 
L 57.6 41.472 
" style="fill:none;stroke:#000000;stroke-linecap:square;stroke-linejoin:miter;stroke-width:0.8;"/>
   </g>
   <g id="patch_4">
    <path d="M 414.72 307.584 
L 414.72 41.472 
" style="fill:none;stroke:#000000;stroke-linecap:square;stroke-linejoin:miter;stroke-width:0.8;"/>
   </g>
   <g id="patch_5">
    <path d="M 57.6 307.584 
L 414.72 307.584 
" style="fill:none;stroke:#000000;stroke-linecap:square;stroke-linejoin:miter;stroke-width:0.8;"/>
   </g>
   <g id="patch_6">
    <path d="M 57.6 41.472 
L 414.72 41.472 
" style="fill:none;stroke:#000000;stroke-linecap:square;stroke-linejoin:miter;stroke-width:0.8;"/>
   </g>
  </g>
 </g>
 <defs>
  <clipPath id="p47d365262c">
   <rect height="266.112" width="357.12" x="57.6" y="41.472"/>
  </clipPath>
 </defs>
</svg>
