<?xml version="1.0" encoding="utf-8" standalone="no"?>
<!DOCTYPE svg PUBLIC "-//W3C//DTD SVG 1.1//EN"
  "http://www.w3.org/Graphics/SVG/1.1/DTD/svg11.dtd">
<!-- Created with matplotlib (https://matplotlib.org/) -->
<svg height="345.6pt" version="1.1" viewBox="0 0 460.8 345.6" width="460.8pt" xmlns="http://www.w3.org/2000/svg" xmlns:xlink="http://www.w3.org/1999/xlink">
 <defs>
  <style type="text/css">
*{stroke-linecap:butt;stroke-linejoin:round;}
  </style>
 </defs>
 <g id="figure_1">
  <g id="patch_1">
   <path d="M 0 345.6 
L 460.8 345.6 
L 460.8 0 
L 0 0 
z
" style="fill:#ffffff;"/>
  </g>
  <g id="axes_1">
   <g id="patch_2">
    <path d="M 57.6 307.584 
L 414.72 307.584 
L 414.72 41.472 
L 57.6 41.472 
z
" style="fill:#ffffff;"/>
   </g>
   <g id="line2d_1">
    <path clip-path="url(#p1670013da1)" d="M 73.832727 128.140941 
L 81.21124 151.124122 
L 88.589752 151.124122 
L 95.968264 151.124122 
L 103.346777 151.124122 
L 110.725289 151.124122 
L 118.103802 151.124122 
L 125.482314 53.568 
L 132.860826 158.900151 
L 140.239339 158.900151 
L 147.617851 260.978183 
L 154.996364 260.978183 
L 162.374876 260.978183 
L 169.753388 260.978183 
L 177.131901 247.56621 
L 184.510413 247.56621 
L 191.888926 251.600182 
L 199.267438 251.600182 
L 206.64595 251.600182 
L 214.024463 146.554849 
L 221.402975 146.554849 
L 228.781488 146.554849 
L 236.16 255.48989 
L 243.538512 255.48989 
L 250.917025 256.495836 
L 258.295537 256.495836 
L 265.67405 256.495836 
L 273.052562 256.495836 
L 280.431074 256.495836 
L 287.809587 289.312261 
L 295.188099 289.312261 
L 302.566612 295.488 
L 309.945124 295.488 
L 317.323636 259.597459 
L 324.702149 259.597459 
L 332.080661 223.813477 
L 339.459174 223.813477 
L 346.837686 258.346823 
L 354.216198 258.346823 
L 361.594711 293.278109 
L 368.973223 293.278109 
L 376.351736 255.878441 
L 383.730248 288.537138 
L 391.10876 288.537138 
L 398.487273 288.537138 
" style="fill:none;stroke:#ff0000;stroke-linecap:square;stroke-width:12;"/>
    <defs>
     <path d="M 0 3 
C 0.795609 3 1.55874 2.683901 2.12132 2.12132 
C 2.683901 1.55874 3 0.795609 3 0 
C 3 -0.795609 2.683901 -1.55874 2.12132 -2.12132 
C 1.55874 -2.683901 0.795609 -3 0 -3 
C -0.795609 -3 -1.55874 -2.683901 -2.12132 -2.12132 
C -2.683901 -1.55874 -3 -0.795609 -3 0 
C -3 0.795609 -2.683901 1.55874 -2.12132 2.12132 
C -1.55874 2.683901 -0.795609 3 0 3 
z
" id="m95dbbdf888" style="stroke:#ff0000;"/>
    </defs>
    <g clip-path="url(#p1670013da1)">
     <use style="fill:#ff0000;stroke:#ff0000;" x="73.832727" xlink:href="#m95dbbdf888" y="128.140941"/>
     <use style="fill:#ff0000;stroke:#ff0000;" x="81.21124" xlink:href="#m95dbbdf888" y="151.124122"/>
     <use style="fill:#ff0000;stroke:#ff0000;" x="88.589752" xlink:href="#m95dbbdf888" y="151.124122"/>
     <use style="fill:#ff0000;stroke:#ff0000;" x="95.968264" xlink:href="#m95dbbdf888" y="151.124122"/>
     <use style="fill:#ff0000;stroke:#ff0000;" x="103.346777" xlink:href="#m95dbbdf888" y="151.124122"/>
     <use style="fill:#ff0000;stroke:#ff0000;" x="110.725289" xlink:href="#m95dbbdf888" y="151.124122"/>
     <use style="fill:#ff0000;stroke:#ff0000;" x="118.103802" xlink:href="#m95dbbdf888" y="151.124122"/>
     <use style="fill:#ff0000;stroke:#ff0000;" x="125.482314" xlink:href="#m95dbbdf888" y="53.568"/>
     <use style="fill:#ff0000;stroke:#ff0000;" x="132.860826" xlink:href="#m95dbbdf888" y="158.900151"/>
     <use style="fill:#ff0000;stroke:#ff0000;" x="140.239339" xlink:href="#m95dbbdf888" y="158.900151"/>
     <use style="fill:#ff0000;stroke:#ff0000;" x="147.617851" xlink:href="#m95dbbdf888" y="260.978183"/>
     <use style="fill:#ff0000;stroke:#ff0000;" x="154.996364" xlink:href="#m95dbbdf888" y="260.978183"/>
     <use style="fill:#ff0000;stroke:#ff0000;" x="162.374876" xlink:href="#m95dbbdf888" y="260.978183"/>
     <use style="fill:#ff0000;stroke:#ff0000;" x="169.753388" xlink:href="#m95dbbdf888" y="260.978183"/>
     <use style="fill:#ff0000;stroke:#ff0000;" x="177.131901" xlink:href="#m95dbbdf888" y="247.56621"/>
     <use style="fill:#ff0000;stroke:#ff0000;" x="184.510413" xlink:href="#m95dbbdf888" y="247.56621"/>
     <use style="fill:#ff0000;stroke:#ff0000;" x="191.888926" xlink:href="#m95dbbdf888" y="251.600182"/>
     <use style="fill:#ff0000;stroke:#ff0000;" x="199.267438" xlink:href="#m95dbbdf888" y="251.600182"/>
     <use style="fill:#ff0000;stroke:#ff0000;" x="206.64595" xlink:href="#m95dbbdf888" y="251.600182"/>
     <use style="fill:#ff0000;stroke:#ff0000;" x="214.024463" xlink:href="#m95dbbdf888" y="146.554849"/>
     <use style="fill:#ff0000;stroke:#ff0000;" x="221.402975" xlink:href="#m95dbbdf888" y="146.554849"/>
     <use style="fill:#ff0000;stroke:#ff0000;" x="228.781488" xlink:href="#m95dbbdf888" y="146.554849"/>
     <use style="fill:#ff0000;stroke:#ff0000;" x="236.16" xlink:href="#m95dbbdf888" y="255.48989"/>
     <use style="fill:#ff0000;stroke:#ff0000;" x="243.538512" xlink:href="#m95dbbdf888" y="255.48989"/>
     <use style="fill:#ff0000;stroke:#ff0000;" x="250.917025" xlink:href="#m95dbbdf888" y="256.495836"/>
     <use style="fill:#ff0000;stroke:#ff0000;" x="258.295537" xlink:href="#m95dbbdf888" y="256.495836"/>
     <use style="fill:#ff0000;stroke:#ff0000;" x="265.67405" xlink:href="#m95dbbdf888" y="256.495836"/>
     <use style="fill:#ff0000;stroke:#ff0000;" x="273.052562" xlink:href="#m95dbbdf888" y="256.495836"/>
     <use style="fill:#ff0000;stroke:#ff0000;" x="280.431074" xlink:href="#m95dbbdf888" y="256.495836"/>
     <use style="fill:#ff0000;stroke:#ff0000;" x="287.809587" xlink:href="#m95dbbdf888" y="289.312261"/>
     <use style="fill:#ff0000;stroke:#ff0000;" x="295.188099" xlink:href="#m95dbbdf888" y="289.312261"/>
     <use style="fill:#ff0000;stroke:#ff0000;" x="302.566612" xlink:href="#m95dbbdf888" y="295.488"/>
     <use style="fill:#ff0000;stroke:#ff0000;" x="309.945124" xlink:href="#m95dbbdf888" y="295.488"/>
     <use style="fill:#ff0000;stroke:#ff0000;" x="317.323636" xlink:href="#m95dbbdf888" y="259.597459"/>
     <use style="fill:#ff0000;stroke:#ff0000;" x="324.702149" xlink:href="#m95dbbdf888" y="259.597459"/>
     <use style="fill:#ff0000;stroke:#ff0000;" x="332.080661" xlink:href="#m95dbbdf888" y="223.813477"/>
     <use style="fill:#ff0000;stroke:#ff0000;" x="339.459174" xlink:href="#m95dbbdf888" y="223.813477"/>
     <use style="fill:#ff0000;stroke:#ff0000;" x="346.837686" xlink:href="#m95dbbdf888" y="258.346823"/>
     <use style="fill:#ff0000;stroke:#ff0000;" x="354.216198" xlink:href="#m95dbbdf888" y="258.346823"/>
     <use style="fill:#ff0000;stroke:#ff0000;" x="361.594711" xlink:href="#m95dbbdf888" y="293.278109"/>
     <use style="fill:#ff0000;stroke:#ff0000;" x="368.973223" xlink:href="#m95dbbdf888" y="293.278109"/>
     <use style="fill:#ff0000;stroke:#ff0000;" x="376.351736" xlink:href="#m95dbbdf888" y="255.878441"/>
     <use style="fill:#ff0000;stroke:#ff0000;" x="383.730248" xlink:href="#m95dbbdf888" y="288.537138"/>
     <use style="fill:#ff0000;stroke:#ff0000;" x="391.10876" xlink:href="#m95dbbdf888" y="288.537138"/>
     <use style="fill:#ff0000;stroke:#ff0000;" x="398.487273" xlink:href="#m95dbbdf888" y="288.537138"/>
    </g>
   </g>
   <g id="patch_3">
    <path d="M 57.6 307.584 
L 57.6 41.472 
" style="fill:none;stroke:#000000;stroke-linecap:square;stroke-linejoin:miter;stroke-width:0.8;"/>
   </g>
   <g id="patch_4">
    <path d="M 414.72 307.584 
L 414.72 41.472 
" style="fill:none;stroke:#000000;stroke-linecap:square;stroke-linejoin:miter;stroke-width:0.8;"/>
   </g>
   <g id="patch_5">
    <path d="M 57.6 307.584 
L 414.72 307.584 
" style="fill:none;stroke:#000000;stroke-linecap:square;stroke-linejoin:miter;stroke-width:0.8;"/>
   </g>
   <g id="patch_6">
    <path d="M 57.6 41.472 
L 414.72 41.472 
" style="fill:none;stroke:#000000;stroke-linecap:square;stroke-linejoin:miter;stroke-width:0.8;"/>
   </g>
  </g>
 </g>
 <defs>
  <clipPath id="p1670013da1">
   <rect height="266.112" width="357.12" x="57.6" y="41.472"/>
  </clipPath>
 </defs>
</svg>
