<?xml version="1.0" encoding="utf-8" standalone="no"?>
<!DOCTYPE svg PUBLIC "-//W3C//DTD SVG 1.1//EN"
  "http://www.w3.org/Graphics/SVG/1.1/DTD/svg11.dtd">
<!-- Created with matplotlib (https://matplotlib.org/) -->
<svg height="345.6pt" version="1.1" viewBox="0 0 460.8 345.6" width="460.8pt" xmlns="http://www.w3.org/2000/svg" xmlns:xlink="http://www.w3.org/1999/xlink">
 <defs>
  <style type="text/css">
*{stroke-linecap:butt;stroke-linejoin:round;}
  </style>
 </defs>
 <g id="figure_1">
  <g id="patch_1">
   <path d="M 0 345.6 
L 460.8 345.6 
L 460.8 0 
L 0 0 
z
" style="fill:#ffffff;"/>
  </g>
  <g id="axes_1">
   <g id="patch_2">
    <path d="M 57.6 307.584 
L 414.72 307.584 
L 414.72 41.472 
L 57.6 41.472 
z
" style="fill:#ffffff;"/>
   </g>
   <g id="line2d_1">
    <path clip-path="url(#pd65f64c376)" d="M 73.832727 206.493267 
L 75.532489 218.715663 
L 84.031299 218.715663 
L 85.731061 166.83557 
L 87.430823 222.850935 
L 89.130585 222.850935 
L 90.830347 277.135769 
L 95.929634 277.135769 
L 97.629396 270.003316 
L 99.329158 270.003316 
L 101.02892 272.148572 
L 104.428444 272.148572 
L 106.128206 216.285735 
L 109.52773 216.285735 
L 111.227492 274.217108 
L 112.927254 274.217108 
L 114.627016 274.752068 
L 121.426064 274.752068 
L 123.125826 292.203758 
L 124.825588 292.203758 
L 126.52535 295.488 
L 128.225112 295.488 
L 129.924874 276.401503 
L 131.624636 276.401503 
L 133.324398 257.371674 
L 135.02416 257.371674 
L 136.723922 275.736418 
L 138.423684 275.736418 
L 140.123446 294.312786 
L 141.823208 294.312786 
L 143.52297 274.423739 
L 145.222732 291.79155 
L 146.922494 291.79155 
L 148.622256 286.725547 
L 152.02178 286.725547 
L 153.721542 281.977776 
L 155.421304 281.977776 
L 157.121066 263.619734 
L 158.820828 263.619734 
L 162.220352 230.208429 
L 163.920114 230.208429 
L 165.619876 211.86275 
L 170.719162 211.86275 
L 172.418924 194.020784 
L 174.118686 194.020784 
L 175.818448 213.258651 
L 177.51821 213.258651 
L 179.217972 232.442641 
L 180.917734 232.442641 
L 182.617496 214.28245 
L 184.317258 214.28245 
L 186.01702 195.810056 
L 189.416545 195.810056 
L 191.116307 179.806578 
L 194.515831 179.806578 
L 196.215593 180.686511 
L 199.615117 180.621661 
L 203.014641 180.621661 
L 204.714403 199.268905 
L 206.414165 199.268905 
L 208.113927 180.700559 
L 209.813689 163.732565 
L 216.612737 163.732565 
L 218.312499 146.33401 
L 220.012261 146.33401 
L 221.712023 129.85542 
L 223.411785 129.85542 
L 225.111547 148.011439 
L 228.511071 148.011439 
L 230.210833 168.012071 
L 231.910595 172.286958 
L 233.610357 172.286958 
L 235.310119 157.037733 
L 237.009881 157.037733 
L 238.709643 141.171354 
L 240.409405 141.171354 
L 242.109167 122.243213 
L 243.808929 122.243213 
L 245.508691 126.392423 
L 247.208453 126.392423 
L 248.908215 146.250714 
L 250.607977 164.007496 
L 254.007501 164.007496 
L 255.707263 182.25857 
L 257.407025 182.25857 
L 259.106787 202.479655 
L 260.806549 202.479655 
L 262.506311 205.271623 
L 264.206073 222.857466 
L 277.804169 222.857466 
L 279.503931 203.096113 
L 281.203693 203.096113 
L 282.903455 220.757192 
L 284.603218 220.757192 
L 286.30298 203.250245 
L 288.002742 203.250245 
L 289.702504 199.791434 
L 291.402266 199.791434 
L 293.102028 205.491744 
L 294.80179 205.491744 
L 296.501552 189.522584 
L 298.201314 207.90471 
L 299.901076 207.90471 
L 301.600838 188.17054 
L 305.000362 188.17054 
L 306.700124 208.682018 
L 308.399886 192.898477 
L 311.79941 192.898477 
L 313.499172 173.44878 
L 315.198934 173.44878 
L 316.898696 192.928163 
L 318.598458 191.166759 
L 320.29822 191.166759 
L 321.997982 175.518662 
L 325.397506 175.518662 
L 327.097268 156.501926 
L 328.79703 156.501926 
L 330.496792 158.794856 
L 333.896316 158.794856 
L 335.596078 141.59343 
L 337.29584 141.59343 
L 338.995602 125.387575 
L 340.695364 125.387575 
L 342.395126 106.75803 
L 344.094888 106.75803 
L 345.79465 125.038819 
L 347.494412 125.038819 
L 349.194174 107.943054 
L 350.893936 107.943054 
L 352.593698 123.73351 
L 355.993222 123.73351 
L 357.692984 107.989493 
L 359.392746 108.857752 
L 361.092508 108.857752 
L 362.79227 128.170531 
L 364.492032 128.170531 
L 366.191794 111.365231 
L 367.891556 111.365231 
L 369.591318 92.854181 
L 371.29108 92.854181 
L 372.990842 74.609521 
L 374.690604 74.609521 
L 376.390366 53.568 
L 378.090129 53.568 
L 379.789891 74.702017 
L 383.189415 74.702017 
L 384.889177 56.510969 
L 386.588939 56.510969 
L 388.288701 75.397525 
L 398.487273 75.397525 
L 398.487273 75.397525 
" style="fill:none;stroke:#ff0000;stroke-linecap:square;stroke-width:12;"/>
    <defs>
     <path d="M 0 3 
C 0.795609 3 1.55874 2.683901 2.12132 2.12132 
C 2.683901 1.55874 3 0.795609 3 0 
C 3 -0.795609 2.683901 -1.55874 2.12132 -2.12132 
C 1.55874 -2.683901 0.795609 -3 0 -3 
C -0.795609 -3 -1.55874 -2.683901 -2.12132 -2.12132 
C -2.683901 -1.55874 -3 -0.795609 -3 0 
C -3 0.795609 -2.683901 1.55874 -2.12132 2.12132 
C -1.55874 2.683901 -0.795609 3 0 3 
z
" id="m28bd4d6b91" style="stroke:#ff0000;"/>
    </defs>
    <g clip-path="url(#pd65f64c376)">
     <use style="fill:#ff0000;stroke:#ff0000;" x="73.832727" xlink:href="#m28bd4d6b91" y="206.493267"/>
     <use style="fill:#ff0000;stroke:#ff0000;" x="75.532489" xlink:href="#m28bd4d6b91" y="218.715663"/>
     <use style="fill:#ff0000;stroke:#ff0000;" x="77.232251" xlink:href="#m28bd4d6b91" y="218.715663"/>
     <use style="fill:#ff0000;stroke:#ff0000;" x="78.932013" xlink:href="#m28bd4d6b91" y="218.715663"/>
     <use style="fill:#ff0000;stroke:#ff0000;" x="80.631775" xlink:href="#m28bd4d6b91" y="218.715663"/>
     <use style="fill:#ff0000;stroke:#ff0000;" x="82.331537" xlink:href="#m28bd4d6b91" y="218.715663"/>
     <use style="fill:#ff0000;stroke:#ff0000;" x="84.031299" xlink:href="#m28bd4d6b91" y="218.715663"/>
     <use style="fill:#ff0000;stroke:#ff0000;" x="85.731061" xlink:href="#m28bd4d6b91" y="166.83557"/>
     <use style="fill:#ff0000;stroke:#ff0000;" x="87.430823" xlink:href="#m28bd4d6b91" y="222.850935"/>
     <use style="fill:#ff0000;stroke:#ff0000;" x="89.130585" xlink:href="#m28bd4d6b91" y="222.850935"/>
     <use style="fill:#ff0000;stroke:#ff0000;" x="90.830347" xlink:href="#m28bd4d6b91" y="277.135769"/>
     <use style="fill:#ff0000;stroke:#ff0000;" x="92.530109" xlink:href="#m28bd4d6b91" y="277.135769"/>
     <use style="fill:#ff0000;stroke:#ff0000;" x="94.229871" xlink:href="#m28bd4d6b91" y="277.135769"/>
     <use style="fill:#ff0000;stroke:#ff0000;" x="95.929634" xlink:href="#m28bd4d6b91" y="277.135769"/>
     <use style="fill:#ff0000;stroke:#ff0000;" x="97.629396" xlink:href="#m28bd4d6b91" y="270.003316"/>
     <use style="fill:#ff0000;stroke:#ff0000;" x="99.329158" xlink:href="#m28bd4d6b91" y="270.003316"/>
     <use style="fill:#ff0000;stroke:#ff0000;" x="101.02892" xlink:href="#m28bd4d6b91" y="272.148572"/>
     <use style="fill:#ff0000;stroke:#ff0000;" x="102.728682" xlink:href="#m28bd4d6b91" y="272.148572"/>
     <use style="fill:#ff0000;stroke:#ff0000;" x="104.428444" xlink:href="#m28bd4d6b91" y="272.148572"/>
     <use style="fill:#ff0000;stroke:#ff0000;" x="106.128206" xlink:href="#m28bd4d6b91" y="216.285735"/>
     <use style="fill:#ff0000;stroke:#ff0000;" x="107.827968" xlink:href="#m28bd4d6b91" y="216.285735"/>
     <use style="fill:#ff0000;stroke:#ff0000;" x="109.52773" xlink:href="#m28bd4d6b91" y="216.285735"/>
     <use style="fill:#ff0000;stroke:#ff0000;" x="111.227492" xlink:href="#m28bd4d6b91" y="274.217108"/>
     <use style="fill:#ff0000;stroke:#ff0000;" x="112.927254" xlink:href="#m28bd4d6b91" y="274.217108"/>
     <use style="fill:#ff0000;stroke:#ff0000;" x="114.627016" xlink:href="#m28bd4d6b91" y="274.752068"/>
     <use style="fill:#ff0000;stroke:#ff0000;" x="116.326778" xlink:href="#m28bd4d6b91" y="274.752068"/>
     <use style="fill:#ff0000;stroke:#ff0000;" x="118.02654" xlink:href="#m28bd4d6b91" y="274.752068"/>
     <use style="fill:#ff0000;stroke:#ff0000;" x="119.726302" xlink:href="#m28bd4d6b91" y="274.752068"/>
     <use style="fill:#ff0000;stroke:#ff0000;" x="121.426064" xlink:href="#m28bd4d6b91" y="274.752068"/>
     <use style="fill:#ff0000;stroke:#ff0000;" x="123.125826" xlink:href="#m28bd4d6b91" y="292.203758"/>
     <use style="fill:#ff0000;stroke:#ff0000;" x="124.825588" xlink:href="#m28bd4d6b91" y="292.203758"/>
     <use style="fill:#ff0000;stroke:#ff0000;" x="126.52535" xlink:href="#m28bd4d6b91" y="295.488"/>
     <use style="fill:#ff0000;stroke:#ff0000;" x="128.225112" xlink:href="#m28bd4d6b91" y="295.488"/>
     <use style="fill:#ff0000;stroke:#ff0000;" x="129.924874" xlink:href="#m28bd4d6b91" y="276.401503"/>
     <use style="fill:#ff0000;stroke:#ff0000;" x="131.624636" xlink:href="#m28bd4d6b91" y="276.401503"/>
     <use style="fill:#ff0000;stroke:#ff0000;" x="133.324398" xlink:href="#m28bd4d6b91" y="257.371674"/>
     <use style="fill:#ff0000;stroke:#ff0000;" x="135.02416" xlink:href="#m28bd4d6b91" y="257.371674"/>
     <use style="fill:#ff0000;stroke:#ff0000;" x="136.723922" xlink:href="#m28bd4d6b91" y="275.736418"/>
     <use style="fill:#ff0000;stroke:#ff0000;" x="138.423684" xlink:href="#m28bd4d6b91" y="275.736418"/>
     <use style="fill:#ff0000;stroke:#ff0000;" x="140.123446" xlink:href="#m28bd4d6b91" y="294.312786"/>
     <use style="fill:#ff0000;stroke:#ff0000;" x="141.823208" xlink:href="#m28bd4d6b91" y="294.312786"/>
     <use style="fill:#ff0000;stroke:#ff0000;" x="143.52297" xlink:href="#m28bd4d6b91" y="274.423739"/>
     <use style="fill:#ff0000;stroke:#ff0000;" x="145.222732" xlink:href="#m28bd4d6b91" y="291.79155"/>
     <use style="fill:#ff0000;stroke:#ff0000;" x="146.922494" xlink:href="#m28bd4d6b91" y="291.79155"/>
     <use style="fill:#ff0000;stroke:#ff0000;" x="148.622256" xlink:href="#m28bd4d6b91" y="286.725547"/>
     <use style="fill:#ff0000;stroke:#ff0000;" x="150.322018" xlink:href="#m28bd4d6b91" y="286.725547"/>
     <use style="fill:#ff0000;stroke:#ff0000;" x="152.02178" xlink:href="#m28bd4d6b91" y="286.725547"/>
     <use style="fill:#ff0000;stroke:#ff0000;" x="153.721542" xlink:href="#m28bd4d6b91" y="281.977776"/>
     <use style="fill:#ff0000;stroke:#ff0000;" x="155.421304" xlink:href="#m28bd4d6b91" y="281.977776"/>
     <use style="fill:#ff0000;stroke:#ff0000;" x="157.121066" xlink:href="#m28bd4d6b91" y="263.619734"/>
     <use style="fill:#ff0000;stroke:#ff0000;" x="158.820828" xlink:href="#m28bd4d6b91" y="263.619734"/>
     <use style="fill:#ff0000;stroke:#ff0000;" x="160.52059" xlink:href="#m28bd4d6b91" y="247.208366"/>
     <use style="fill:#ff0000;stroke:#ff0000;" x="162.220352" xlink:href="#m28bd4d6b91" y="230.208429"/>
     <use style="fill:#ff0000;stroke:#ff0000;" x="163.920114" xlink:href="#m28bd4d6b91" y="230.208429"/>
     <use style="fill:#ff0000;stroke:#ff0000;" x="165.619876" xlink:href="#m28bd4d6b91" y="211.86275"/>
     <use style="fill:#ff0000;stroke:#ff0000;" x="167.319638" xlink:href="#m28bd4d6b91" y="211.86275"/>
     <use style="fill:#ff0000;stroke:#ff0000;" x="169.0194" xlink:href="#m28bd4d6b91" y="211.86275"/>
     <use style="fill:#ff0000;stroke:#ff0000;" x="170.719162" xlink:href="#m28bd4d6b91" y="211.86275"/>
     <use style="fill:#ff0000;stroke:#ff0000;" x="172.418924" xlink:href="#m28bd4d6b91" y="194.020784"/>
     <use style="fill:#ff0000;stroke:#ff0000;" x="174.118686" xlink:href="#m28bd4d6b91" y="194.020784"/>
     <use style="fill:#ff0000;stroke:#ff0000;" x="175.818448" xlink:href="#m28bd4d6b91" y="213.258651"/>
     <use style="fill:#ff0000;stroke:#ff0000;" x="177.51821" xlink:href="#m28bd4d6b91" y="213.258651"/>
     <use style="fill:#ff0000;stroke:#ff0000;" x="179.217972" xlink:href="#m28bd4d6b91" y="232.442641"/>
     <use style="fill:#ff0000;stroke:#ff0000;" x="180.917734" xlink:href="#m28bd4d6b91" y="232.442641"/>
     <use style="fill:#ff0000;stroke:#ff0000;" x="182.617496" xlink:href="#m28bd4d6b91" y="214.28245"/>
     <use style="fill:#ff0000;stroke:#ff0000;" x="184.317258" xlink:href="#m28bd4d6b91" y="214.28245"/>
     <use style="fill:#ff0000;stroke:#ff0000;" x="186.01702" xlink:href="#m28bd4d6b91" y="195.810056"/>
     <use style="fill:#ff0000;stroke:#ff0000;" x="187.716782" xlink:href="#m28bd4d6b91" y="195.810056"/>
     <use style="fill:#ff0000;stroke:#ff0000;" x="189.416545" xlink:href="#m28bd4d6b91" y="195.810056"/>
     <use style="fill:#ff0000;stroke:#ff0000;" x="191.116307" xlink:href="#m28bd4d6b91" y="179.806578"/>
     <use style="fill:#ff0000;stroke:#ff0000;" x="192.816069" xlink:href="#m28bd4d6b91" y="179.806578"/>
     <use style="fill:#ff0000;stroke:#ff0000;" x="194.515831" xlink:href="#m28bd4d6b91" y="179.806578"/>
     <use style="fill:#ff0000;stroke:#ff0000;" x="196.215593" xlink:href="#m28bd4d6b91" y="180.686511"/>
     <use style="fill:#ff0000;stroke:#ff0000;" x="197.915355" xlink:href="#m28bd4d6b91" y="180.621661"/>
     <use style="fill:#ff0000;stroke:#ff0000;" x="199.615117" xlink:href="#m28bd4d6b91" y="180.621661"/>
     <use style="fill:#ff0000;stroke:#ff0000;" x="201.314879" xlink:href="#m28bd4d6b91" y="180.621661"/>
     <use style="fill:#ff0000;stroke:#ff0000;" x="203.014641" xlink:href="#m28bd4d6b91" y="180.621661"/>
     <use style="fill:#ff0000;stroke:#ff0000;" x="204.714403" xlink:href="#m28bd4d6b91" y="199.268905"/>
     <use style="fill:#ff0000;stroke:#ff0000;" x="206.414165" xlink:href="#m28bd4d6b91" y="199.268905"/>
     <use style="fill:#ff0000;stroke:#ff0000;" x="208.113927" xlink:href="#m28bd4d6b91" y="180.700559"/>
     <use style="fill:#ff0000;stroke:#ff0000;" x="209.813689" xlink:href="#m28bd4d6b91" y="163.732565"/>
     <use style="fill:#ff0000;stroke:#ff0000;" x="211.513451" xlink:href="#m28bd4d6b91" y="163.732565"/>
     <use style="fill:#ff0000;stroke:#ff0000;" x="213.213213" xlink:href="#m28bd4d6b91" y="163.732565"/>
     <use style="fill:#ff0000;stroke:#ff0000;" x="214.912975" xlink:href="#m28bd4d6b91" y="163.732565"/>
     <use style="fill:#ff0000;stroke:#ff0000;" x="216.612737" xlink:href="#m28bd4d6b91" y="163.732565"/>
     <use style="fill:#ff0000;stroke:#ff0000;" x="218.312499" xlink:href="#m28bd4d6b91" y="146.33401"/>
     <use style="fill:#ff0000;stroke:#ff0000;" x="220.012261" xlink:href="#m28bd4d6b91" y="146.33401"/>
     <use style="fill:#ff0000;stroke:#ff0000;" x="221.712023" xlink:href="#m28bd4d6b91" y="129.85542"/>
     <use style="fill:#ff0000;stroke:#ff0000;" x="223.411785" xlink:href="#m28bd4d6b91" y="129.85542"/>
     <use style="fill:#ff0000;stroke:#ff0000;" x="225.111547" xlink:href="#m28bd4d6b91" y="148.011439"/>
     <use style="fill:#ff0000;stroke:#ff0000;" x="226.811309" xlink:href="#m28bd4d6b91" y="148.011439"/>
     <use style="fill:#ff0000;stroke:#ff0000;" x="228.511071" xlink:href="#m28bd4d6b91" y="148.011439"/>
     <use style="fill:#ff0000;stroke:#ff0000;" x="230.210833" xlink:href="#m28bd4d6b91" y="168.012071"/>
     <use style="fill:#ff0000;stroke:#ff0000;" x="231.910595" xlink:href="#m28bd4d6b91" y="172.286958"/>
     <use style="fill:#ff0000;stroke:#ff0000;" x="233.610357" xlink:href="#m28bd4d6b91" y="172.286958"/>
     <use style="fill:#ff0000;stroke:#ff0000;" x="235.310119" xlink:href="#m28bd4d6b91" y="157.037733"/>
     <use style="fill:#ff0000;stroke:#ff0000;" x="237.009881" xlink:href="#m28bd4d6b91" y="157.037733"/>
     <use style="fill:#ff0000;stroke:#ff0000;" x="238.709643" xlink:href="#m28bd4d6b91" y="141.171354"/>
     <use style="fill:#ff0000;stroke:#ff0000;" x="240.409405" xlink:href="#m28bd4d6b91" y="141.171354"/>
     <use style="fill:#ff0000;stroke:#ff0000;" x="242.109167" xlink:href="#m28bd4d6b91" y="122.243213"/>
     <use style="fill:#ff0000;stroke:#ff0000;" x="243.808929" xlink:href="#m28bd4d6b91" y="122.243213"/>
     <use style="fill:#ff0000;stroke:#ff0000;" x="245.508691" xlink:href="#m28bd4d6b91" y="126.392423"/>
     <use style="fill:#ff0000;stroke:#ff0000;" x="247.208453" xlink:href="#m28bd4d6b91" y="126.392423"/>
     <use style="fill:#ff0000;stroke:#ff0000;" x="248.908215" xlink:href="#m28bd4d6b91" y="146.250714"/>
     <use style="fill:#ff0000;stroke:#ff0000;" x="250.607977" xlink:href="#m28bd4d6b91" y="164.007496"/>
     <use style="fill:#ff0000;stroke:#ff0000;" x="252.307739" xlink:href="#m28bd4d6b91" y="164.007496"/>
     <use style="fill:#ff0000;stroke:#ff0000;" x="254.007501" xlink:href="#m28bd4d6b91" y="164.007496"/>
     <use style="fill:#ff0000;stroke:#ff0000;" x="255.707263" xlink:href="#m28bd4d6b91" y="182.25857"/>
     <use style="fill:#ff0000;stroke:#ff0000;" x="257.407025" xlink:href="#m28bd4d6b91" y="182.25857"/>
     <use style="fill:#ff0000;stroke:#ff0000;" x="259.106787" xlink:href="#m28bd4d6b91" y="202.479655"/>
     <use style="fill:#ff0000;stroke:#ff0000;" x="260.806549" xlink:href="#m28bd4d6b91" y="202.479655"/>
     <use style="fill:#ff0000;stroke:#ff0000;" x="262.506311" xlink:href="#m28bd4d6b91" y="205.271623"/>
     <use style="fill:#ff0000;stroke:#ff0000;" x="264.206073" xlink:href="#m28bd4d6b91" y="222.857466"/>
     <use style="fill:#ff0000;stroke:#ff0000;" x="265.905835" xlink:href="#m28bd4d6b91" y="222.857466"/>
     <use style="fill:#ff0000;stroke:#ff0000;" x="267.605597" xlink:href="#m28bd4d6b91" y="222.857466"/>
     <use style="fill:#ff0000;stroke:#ff0000;" x="269.305359" xlink:href="#m28bd4d6b91" y="222.857466"/>
     <use style="fill:#ff0000;stroke:#ff0000;" x="271.005121" xlink:href="#m28bd4d6b91" y="222.857466"/>
     <use style="fill:#ff0000;stroke:#ff0000;" x="272.704883" xlink:href="#m28bd4d6b91" y="222.857466"/>
     <use style="fill:#ff0000;stroke:#ff0000;" x="274.404645" xlink:href="#m28bd4d6b91" y="222.857466"/>
     <use style="fill:#ff0000;stroke:#ff0000;" x="276.104407" xlink:href="#m28bd4d6b91" y="222.857466"/>
     <use style="fill:#ff0000;stroke:#ff0000;" x="277.804169" xlink:href="#m28bd4d6b91" y="222.857466"/>
     <use style="fill:#ff0000;stroke:#ff0000;" x="279.503931" xlink:href="#m28bd4d6b91" y="203.096113"/>
     <use style="fill:#ff0000;stroke:#ff0000;" x="281.203693" xlink:href="#m28bd4d6b91" y="203.096113"/>
     <use style="fill:#ff0000;stroke:#ff0000;" x="282.903455" xlink:href="#m28bd4d6b91" y="220.757192"/>
     <use style="fill:#ff0000;stroke:#ff0000;" x="284.603218" xlink:href="#m28bd4d6b91" y="220.757192"/>
     <use style="fill:#ff0000;stroke:#ff0000;" x="286.30298" xlink:href="#m28bd4d6b91" y="203.250245"/>
     <use style="fill:#ff0000;stroke:#ff0000;" x="288.002742" xlink:href="#m28bd4d6b91" y="203.250245"/>
     <use style="fill:#ff0000;stroke:#ff0000;" x="289.702504" xlink:href="#m28bd4d6b91" y="199.791434"/>
     <use style="fill:#ff0000;stroke:#ff0000;" x="291.402266" xlink:href="#m28bd4d6b91" y="199.791434"/>
     <use style="fill:#ff0000;stroke:#ff0000;" x="293.102028" xlink:href="#m28bd4d6b91" y="205.491744"/>
     <use style="fill:#ff0000;stroke:#ff0000;" x="294.80179" xlink:href="#m28bd4d6b91" y="205.491744"/>
     <use style="fill:#ff0000;stroke:#ff0000;" x="296.501552" xlink:href="#m28bd4d6b91" y="189.522584"/>
     <use style="fill:#ff0000;stroke:#ff0000;" x="298.201314" xlink:href="#m28bd4d6b91" y="207.90471"/>
     <use style="fill:#ff0000;stroke:#ff0000;" x="299.901076" xlink:href="#m28bd4d6b91" y="207.90471"/>
     <use style="fill:#ff0000;stroke:#ff0000;" x="301.600838" xlink:href="#m28bd4d6b91" y="188.17054"/>
     <use style="fill:#ff0000;stroke:#ff0000;" x="303.3006" xlink:href="#m28bd4d6b91" y="188.17054"/>
     <use style="fill:#ff0000;stroke:#ff0000;" x="305.000362" xlink:href="#m28bd4d6b91" y="188.17054"/>
     <use style="fill:#ff0000;stroke:#ff0000;" x="306.700124" xlink:href="#m28bd4d6b91" y="208.682018"/>
     <use style="fill:#ff0000;stroke:#ff0000;" x="308.399886" xlink:href="#m28bd4d6b91" y="192.898477"/>
     <use style="fill:#ff0000;stroke:#ff0000;" x="310.099648" xlink:href="#m28bd4d6b91" y="192.898477"/>
     <use style="fill:#ff0000;stroke:#ff0000;" x="311.79941" xlink:href="#m28bd4d6b91" y="192.898477"/>
     <use style="fill:#ff0000;stroke:#ff0000;" x="313.499172" xlink:href="#m28bd4d6b91" y="173.44878"/>
     <use style="fill:#ff0000;stroke:#ff0000;" x="315.198934" xlink:href="#m28bd4d6b91" y="173.44878"/>
     <use style="fill:#ff0000;stroke:#ff0000;" x="316.898696" xlink:href="#m28bd4d6b91" y="192.928163"/>
     <use style="fill:#ff0000;stroke:#ff0000;" x="318.598458" xlink:href="#m28bd4d6b91" y="191.166759"/>
     <use style="fill:#ff0000;stroke:#ff0000;" x="320.29822" xlink:href="#m28bd4d6b91" y="191.166759"/>
     <use style="fill:#ff0000;stroke:#ff0000;" x="321.997982" xlink:href="#m28bd4d6b91" y="175.518662"/>
     <use style="fill:#ff0000;stroke:#ff0000;" x="323.697744" xlink:href="#m28bd4d6b91" y="175.518662"/>
     <use style="fill:#ff0000;stroke:#ff0000;" x="325.397506" xlink:href="#m28bd4d6b91" y="175.518662"/>
     <use style="fill:#ff0000;stroke:#ff0000;" x="327.097268" xlink:href="#m28bd4d6b91" y="156.501926"/>
     <use style="fill:#ff0000;stroke:#ff0000;" x="328.79703" xlink:href="#m28bd4d6b91" y="156.501926"/>
     <use style="fill:#ff0000;stroke:#ff0000;" x="330.496792" xlink:href="#m28bd4d6b91" y="158.794856"/>
     <use style="fill:#ff0000;stroke:#ff0000;" x="332.196554" xlink:href="#m28bd4d6b91" y="158.794856"/>
     <use style="fill:#ff0000;stroke:#ff0000;" x="333.896316" xlink:href="#m28bd4d6b91" y="158.794856"/>
     <use style="fill:#ff0000;stroke:#ff0000;" x="335.596078" xlink:href="#m28bd4d6b91" y="141.59343"/>
     <use style="fill:#ff0000;stroke:#ff0000;" x="337.29584" xlink:href="#m28bd4d6b91" y="141.59343"/>
     <use style="fill:#ff0000;stroke:#ff0000;" x="338.995602" xlink:href="#m28bd4d6b91" y="125.387575"/>
     <use style="fill:#ff0000;stroke:#ff0000;" x="340.695364" xlink:href="#m28bd4d6b91" y="125.387575"/>
     <use style="fill:#ff0000;stroke:#ff0000;" x="342.395126" xlink:href="#m28bd4d6b91" y="106.75803"/>
     <use style="fill:#ff0000;stroke:#ff0000;" x="344.094888" xlink:href="#m28bd4d6b91" y="106.75803"/>
     <use style="fill:#ff0000;stroke:#ff0000;" x="345.79465" xlink:href="#m28bd4d6b91" y="125.038819"/>
     <use style="fill:#ff0000;stroke:#ff0000;" x="347.494412" xlink:href="#m28bd4d6b91" y="125.038819"/>
     <use style="fill:#ff0000;stroke:#ff0000;" x="349.194174" xlink:href="#m28bd4d6b91" y="107.943054"/>
     <use style="fill:#ff0000;stroke:#ff0000;" x="350.893936" xlink:href="#m28bd4d6b91" y="107.943054"/>
     <use style="fill:#ff0000;stroke:#ff0000;" x="352.593698" xlink:href="#m28bd4d6b91" y="123.73351"/>
     <use style="fill:#ff0000;stroke:#ff0000;" x="354.29346" xlink:href="#m28bd4d6b91" y="123.73351"/>
     <use style="fill:#ff0000;stroke:#ff0000;" x="355.993222" xlink:href="#m28bd4d6b91" y="123.73351"/>
     <use style="fill:#ff0000;stroke:#ff0000;" x="357.692984" xlink:href="#m28bd4d6b91" y="107.989493"/>
     <use style="fill:#ff0000;stroke:#ff0000;" x="359.392746" xlink:href="#m28bd4d6b91" y="108.857752"/>
     <use style="fill:#ff0000;stroke:#ff0000;" x="361.092508" xlink:href="#m28bd4d6b91" y="108.857752"/>
     <use style="fill:#ff0000;stroke:#ff0000;" x="362.79227" xlink:href="#m28bd4d6b91" y="128.170531"/>
     <use style="fill:#ff0000;stroke:#ff0000;" x="364.492032" xlink:href="#m28bd4d6b91" y="128.170531"/>
     <use style="fill:#ff0000;stroke:#ff0000;" x="366.191794" xlink:href="#m28bd4d6b91" y="111.365231"/>
     <use style="fill:#ff0000;stroke:#ff0000;" x="367.891556" xlink:href="#m28bd4d6b91" y="111.365231"/>
     <use style="fill:#ff0000;stroke:#ff0000;" x="369.591318" xlink:href="#m28bd4d6b91" y="92.854181"/>
     <use style="fill:#ff0000;stroke:#ff0000;" x="371.29108" xlink:href="#m28bd4d6b91" y="92.854181"/>
     <use style="fill:#ff0000;stroke:#ff0000;" x="372.990842" xlink:href="#m28bd4d6b91" y="74.609521"/>
     <use style="fill:#ff0000;stroke:#ff0000;" x="374.690604" xlink:href="#m28bd4d6b91" y="74.609521"/>
     <use style="fill:#ff0000;stroke:#ff0000;" x="376.390366" xlink:href="#m28bd4d6b91" y="53.568"/>
     <use style="fill:#ff0000;stroke:#ff0000;" x="378.090129" xlink:href="#m28bd4d6b91" y="53.568"/>
     <use style="fill:#ff0000;stroke:#ff0000;" x="379.789891" xlink:href="#m28bd4d6b91" y="74.702017"/>
     <use style="fill:#ff0000;stroke:#ff0000;" x="381.489653" xlink:href="#m28bd4d6b91" y="74.702017"/>
     <use style="fill:#ff0000;stroke:#ff0000;" x="383.189415" xlink:href="#m28bd4d6b91" y="74.702017"/>
     <use style="fill:#ff0000;stroke:#ff0000;" x="384.889177" xlink:href="#m28bd4d6b91" y="56.510969"/>
     <use style="fill:#ff0000;stroke:#ff0000;" x="386.588939" xlink:href="#m28bd4d6b91" y="56.510969"/>
     <use style="fill:#ff0000;stroke:#ff0000;" x="388.288701" xlink:href="#m28bd4d6b91" y="75.397525"/>
     <use style="fill:#ff0000;stroke:#ff0000;" x="389.988463" xlink:href="#m28bd4d6b91" y="75.397525"/>
     <use style="fill:#ff0000;stroke:#ff0000;" x="391.688225" xlink:href="#m28bd4d6b91" y="75.397525"/>
     <use style="fill:#ff0000;stroke:#ff0000;" x="393.387987" xlink:href="#m28bd4d6b91" y="75.397525"/>
     <use style="fill:#ff0000;stroke:#ff0000;" x="395.087749" xlink:href="#m28bd4d6b91" y="75.397525"/>
     <use style="fill:#ff0000;stroke:#ff0000;" x="396.787511" xlink:href="#m28bd4d6b91" y="75.397525"/>
     <use style="fill:#ff0000;stroke:#ff0000;" x="398.487273" xlink:href="#m28bd4d6b91" y="75.397525"/>
    </g>
   </g>
   <g id="patch_3">
    <path d="M 57.6 307.584 
L 57.6 41.472 
" style="fill:none;stroke:#000000;stroke-linecap:square;stroke-linejoin:miter;stroke-width:0.8;"/>
   </g>
   <g id="patch_4">
    <path d="M 414.72 307.584 
L 414.72 41.472 
" style="fill:none;stroke:#000000;stroke-linecap:square;stroke-linejoin:miter;stroke-width:0.8;"/>
   </g>
   <g id="patch_5">
    <path d="M 57.6 307.584 
L 414.72 307.584 
" style="fill:none;stroke:#000000;stroke-linecap:square;stroke-linejoin:miter;stroke-width:0.8;"/>
   </g>
   <g id="patch_6">
    <path d="M 57.6 41.472 
L 414.72 41.472 
" style="fill:none;stroke:#000000;stroke-linecap:square;stroke-linejoin:miter;stroke-width:0.8;"/>
   </g>
  </g>
 </g>
 <defs>
  <clipPath id="pd65f64c376">
   <rect height="266.112" width="357.12" x="57.6" y="41.472"/>
  </clipPath>
 </defs>
</svg>
