<?xml version="1.0" encoding="utf-8" standalone="no"?>
<!DOCTYPE svg PUBLIC "-//W3C//DTD SVG 1.1//EN"
  "http://www.w3.org/Graphics/SVG/1.1/DTD/svg11.dtd">
<!-- Created with matplotlib (https://matplotlib.org/) -->
<svg height="345.6pt" version="1.1" viewBox="0 0 460.8 345.6" width="460.8pt" xmlns="http://www.w3.org/2000/svg" xmlns:xlink="http://www.w3.org/1999/xlink">
 <defs>
  <style type="text/css">
*{stroke-linecap:butt;stroke-linejoin:round;}
  </style>
 </defs>
 <g id="figure_1">
  <g id="patch_1">
   <path d="M 0 345.6 
L 460.8 345.6 
L 460.8 0 
L 0 0 
z
" style="fill:#ffffff;"/>
  </g>
  <g id="axes_1">
   <g id="patch_2">
    <path d="M 57.6 307.584 
L 414.72 307.584 
L 414.72 41.472 
L 57.6 41.472 
z
" style="fill:#ffffff;"/>
   </g>
   <g id="line2d_1">
    <path clip-path="url(#p5816cc22bd)" d="M 73.832727 110.238092 
L 75.141818 99.654545 
L 76.450909 99.654545 
L 77.76 90.441478 
L 79.069091 102.375795 
L 82.996364 102.375795 
L 84.305455 114.271115 
L 85.614545 114.271115 
L 86.923636 103.743726 
L 92.16 103.743726 
L 93.469091 161.146057 
L 94.778182 161.146057 
L 96.087273 105.795642 
L 97.396364 156.846739 
L 98.705455 156.846739 
L 100.014545 102.267108 
L 101.323636 102.267108 
L 102.632727 53.568 
L 103.941818 53.568 
L 105.250909 72.476322 
L 106.56 76.027196 
L 109.178182 76.027196 
L 111.796364 111.811843 
L 113.105455 111.811843 
L 114.414545 129.392559 
L 119.650909 129.392559 
L 120.96 147.167822 
L 122.269091 147.167822 
L 123.578182 165.328093 
L 124.887273 165.328093 
L 126.196364 168.619076 
L 127.505455 168.619076 
L 128.814545 150.86459 
L 130.123636 150.86459 
L 131.432727 152.533762 
L 132.741818 152.533762 
L 134.050909 133.524966 
L 136.669091 133.524966 
L 137.978182 151.136956 
L 139.287273 151.136956 
L 140.596364 166.952108 
L 141.905455 164.478758 
L 144.523636 164.478758 
L 145.832727 182.285283 
L 147.141818 182.285283 
L 148.450909 198.560735 
L 149.76 198.560735 
L 151.069091 213.733612 
L 152.378182 230.269804 
L 154.996364 230.269804 
L 157.614545 264.216085 
L 160.232727 264.216085 
L 161.541818 280.116896 
L 162.850909 280.116896 
L 164.16 295.488 
L 165.469091 276.07965 
L 166.778182 276.07965 
L 168.087273 277.241087 
L 169.396364 277.241087 
L 170.705455 293.024641 
L 172.014545 293.024641 
L 173.323636 272.258945 
L 174.632727 272.258945 
L 177.250909 233.339517 
L 178.56 233.339517 
L 179.869091 251.602127 
L 183.796364 251.602127 
L 185.105455 232.491685 
L 186.414545 232.491685 
L 187.723636 227.000005 
L 190.341818 227.000005 
L 191.650909 242.940254 
L 192.96 242.940254 
L 194.269091 244.959137 
L 196.887273 244.959137 
L 198.196364 225.090324 
L 199.505455 240.971921 
L 200.814545 240.971921 
L 202.123636 242.011972 
L 204.741818 242.011972 
L 206.050909 244.012425 
L 207.36 244.012425 
L 208.669091 261.282191 
L 211.287273 261.282191 
L 212.596364 279.492488 
L 215.214545 279.492488 
L 216.523636 260.093168 
L 217.832727 260.093168 
L 219.141818 257.980215 
L 230.923636 257.980215 
L 232.232727 239.319381 
L 233.541818 234.347303 
L 236.16 234.347303 
L 237.469091 216.688458 
L 238.778182 216.688458 
L 240.087273 213.07759 
L 242.705455 213.07759 
L 244.014545 197.240049 
L 245.323636 197.240049 
L 246.632727 212.913995 
L 247.941818 212.913995 
L 249.250909 195.546525 
L 250.56 195.546525 
L 251.869091 212.068623 
L 253.178182 212.068623 
L 254.487273 195.40432 
L 255.796364 195.40432 
L 257.105455 193.758342 
L 258.414545 193.758342 
L 259.723636 210.509339 
L 261.032727 210.509339 
L 262.341818 227.552589 
L 264.96 227.552589 
L 266.269091 210.687495 
L 268.887273 210.687495 
L 270.196364 230.147856 
L 271.505455 245.252072 
L 275.432727 245.252072 
L 276.741818 245.03596 
L 278.050909 245.03596 
L 279.36 226.176666 
L 280.669091 226.176666 
L 281.978182 207.97783 
L 283.287273 207.97783 
L 284.596364 187.889136 
L 287.214545 187.889136 
L 288.523636 169.047577 
L 289.832727 169.047577 
L 291.141818 173.501136 
L 293.76 173.501136 
L 295.069091 191.294198 
L 296.378182 191.294198 
L 297.687273 208.012537 
L 298.996364 203.324028 
L 300.305455 203.324028 
L 301.614545 220.839832 
L 302.923636 220.839832 
L 304.232727 201.035074 
L 305.541818 201.035074 
L 306.850909 206.591517 
L 308.16 206.591517 
L 309.469091 208.433838 
L 310.778182 208.433838 
L 312.087273 206.98765 
L 313.396364 206.98765 
L 314.705455 188.190485 
L 316.014545 203.93548 
L 398.487273 203.93548 
L 398.487273 203.93548 
" style="fill:none;stroke:#ff0000;stroke-linecap:square;stroke-width:12;"/>
    <defs>
     <path d="M 0 3 
C 0.795609 3 1.55874 2.683901 2.12132 2.12132 
C 2.683901 1.55874 3 0.795609 3 0 
C 3 -0.795609 2.683901 -1.55874 2.12132 -2.12132 
C 1.55874 -2.683901 0.795609 -3 0 -3 
C -0.795609 -3 -1.55874 -2.683901 -2.12132 -2.12132 
C -2.683901 -1.55874 -3 -0.795609 -3 0 
C -3 0.795609 -2.683901 1.55874 -2.12132 2.12132 
C -1.55874 2.683901 -0.795609 3 0 3 
z
" id="m631dab07b7" style="stroke:#ff0000;"/>
    </defs>
    <g clip-path="url(#p5816cc22bd)">
     <use style="fill:#ff0000;stroke:#ff0000;" x="73.832727" xlink:href="#m631dab07b7" y="110.238092"/>
     <use style="fill:#ff0000;stroke:#ff0000;" x="75.141818" xlink:href="#m631dab07b7" y="99.654545"/>
     <use style="fill:#ff0000;stroke:#ff0000;" x="76.450909" xlink:href="#m631dab07b7" y="99.654545"/>
     <use style="fill:#ff0000;stroke:#ff0000;" x="77.76" xlink:href="#m631dab07b7" y="90.441478"/>
     <use style="fill:#ff0000;stroke:#ff0000;" x="79.069091" xlink:href="#m631dab07b7" y="102.375795"/>
     <use style="fill:#ff0000;stroke:#ff0000;" x="80.378182" xlink:href="#m631dab07b7" y="102.375795"/>
     <use style="fill:#ff0000;stroke:#ff0000;" x="81.687273" xlink:href="#m631dab07b7" y="102.375795"/>
     <use style="fill:#ff0000;stroke:#ff0000;" x="82.996364" xlink:href="#m631dab07b7" y="102.375795"/>
     <use style="fill:#ff0000;stroke:#ff0000;" x="84.305455" xlink:href="#m631dab07b7" y="114.271115"/>
     <use style="fill:#ff0000;stroke:#ff0000;" x="85.614545" xlink:href="#m631dab07b7" y="114.271115"/>
     <use style="fill:#ff0000;stroke:#ff0000;" x="86.923636" xlink:href="#m631dab07b7" y="103.743726"/>
     <use style="fill:#ff0000;stroke:#ff0000;" x="88.232727" xlink:href="#m631dab07b7" y="103.743726"/>
     <use style="fill:#ff0000;stroke:#ff0000;" x="89.541818" xlink:href="#m631dab07b7" y="103.743726"/>
     <use style="fill:#ff0000;stroke:#ff0000;" x="90.850909" xlink:href="#m631dab07b7" y="103.743726"/>
     <use style="fill:#ff0000;stroke:#ff0000;" x="92.16" xlink:href="#m631dab07b7" y="103.743726"/>
     <use style="fill:#ff0000;stroke:#ff0000;" x="93.469091" xlink:href="#m631dab07b7" y="161.146057"/>
     <use style="fill:#ff0000;stroke:#ff0000;" x="94.778182" xlink:href="#m631dab07b7" y="161.146057"/>
     <use style="fill:#ff0000;stroke:#ff0000;" x="96.087273" xlink:href="#m631dab07b7" y="105.795642"/>
     <use style="fill:#ff0000;stroke:#ff0000;" x="97.396364" xlink:href="#m631dab07b7" y="156.846739"/>
     <use style="fill:#ff0000;stroke:#ff0000;" x="98.705455" xlink:href="#m631dab07b7" y="156.846739"/>
     <use style="fill:#ff0000;stroke:#ff0000;" x="100.014545" xlink:href="#m631dab07b7" y="102.267108"/>
     <use style="fill:#ff0000;stroke:#ff0000;" x="101.323636" xlink:href="#m631dab07b7" y="102.267108"/>
     <use style="fill:#ff0000;stroke:#ff0000;" x="102.632727" xlink:href="#m631dab07b7" y="53.568"/>
     <use style="fill:#ff0000;stroke:#ff0000;" x="103.941818" xlink:href="#m631dab07b7" y="53.568"/>
     <use style="fill:#ff0000;stroke:#ff0000;" x="105.250909" xlink:href="#m631dab07b7" y="72.476322"/>
     <use style="fill:#ff0000;stroke:#ff0000;" x="106.56" xlink:href="#m631dab07b7" y="76.027196"/>
     <use style="fill:#ff0000;stroke:#ff0000;" x="107.869091" xlink:href="#m631dab07b7" y="76.027196"/>
     <use style="fill:#ff0000;stroke:#ff0000;" x="109.178182" xlink:href="#m631dab07b7" y="76.027196"/>
     <use style="fill:#ff0000;stroke:#ff0000;" x="110.487273" xlink:href="#m631dab07b7" y="94.259208"/>
     <use style="fill:#ff0000;stroke:#ff0000;" x="111.796364" xlink:href="#m631dab07b7" y="111.811843"/>
     <use style="fill:#ff0000;stroke:#ff0000;" x="113.105455" xlink:href="#m631dab07b7" y="111.811843"/>
     <use style="fill:#ff0000;stroke:#ff0000;" x="114.414545" xlink:href="#m631dab07b7" y="129.392559"/>
     <use style="fill:#ff0000;stroke:#ff0000;" x="115.723636" xlink:href="#m631dab07b7" y="129.392559"/>
     <use style="fill:#ff0000;stroke:#ff0000;" x="117.032727" xlink:href="#m631dab07b7" y="129.392559"/>
     <use style="fill:#ff0000;stroke:#ff0000;" x="118.341818" xlink:href="#m631dab07b7" y="129.392559"/>
     <use style="fill:#ff0000;stroke:#ff0000;" x="119.650909" xlink:href="#m631dab07b7" y="129.392559"/>
     <use style="fill:#ff0000;stroke:#ff0000;" x="120.96" xlink:href="#m631dab07b7" y="147.167822"/>
     <use style="fill:#ff0000;stroke:#ff0000;" x="122.269091" xlink:href="#m631dab07b7" y="147.167822"/>
     <use style="fill:#ff0000;stroke:#ff0000;" x="123.578182" xlink:href="#m631dab07b7" y="165.328093"/>
     <use style="fill:#ff0000;stroke:#ff0000;" x="124.887273" xlink:href="#m631dab07b7" y="165.328093"/>
     <use style="fill:#ff0000;stroke:#ff0000;" x="126.196364" xlink:href="#m631dab07b7" y="168.619076"/>
     <use style="fill:#ff0000;stroke:#ff0000;" x="127.505455" xlink:href="#m631dab07b7" y="168.619076"/>
     <use style="fill:#ff0000;stroke:#ff0000;" x="128.814545" xlink:href="#m631dab07b7" y="150.86459"/>
     <use style="fill:#ff0000;stroke:#ff0000;" x="130.123636" xlink:href="#m631dab07b7" y="150.86459"/>
     <use style="fill:#ff0000;stroke:#ff0000;" x="131.432727" xlink:href="#m631dab07b7" y="152.533762"/>
     <use style="fill:#ff0000;stroke:#ff0000;" x="132.741818" xlink:href="#m631dab07b7" y="152.533762"/>
     <use style="fill:#ff0000;stroke:#ff0000;" x="134.050909" xlink:href="#m631dab07b7" y="133.524966"/>
     <use style="fill:#ff0000;stroke:#ff0000;" x="135.36" xlink:href="#m631dab07b7" y="133.524966"/>
     <use style="fill:#ff0000;stroke:#ff0000;" x="136.669091" xlink:href="#m631dab07b7" y="133.524966"/>
     <use style="fill:#ff0000;stroke:#ff0000;" x="137.978182" xlink:href="#m631dab07b7" y="151.136956"/>
     <use style="fill:#ff0000;stroke:#ff0000;" x="139.287273" xlink:href="#m631dab07b7" y="151.136956"/>
     <use style="fill:#ff0000;stroke:#ff0000;" x="140.596364" xlink:href="#m631dab07b7" y="166.952108"/>
     <use style="fill:#ff0000;stroke:#ff0000;" x="141.905455" xlink:href="#m631dab07b7" y="164.478758"/>
     <use style="fill:#ff0000;stroke:#ff0000;" x="143.214545" xlink:href="#m631dab07b7" y="164.478758"/>
     <use style="fill:#ff0000;stroke:#ff0000;" x="144.523636" xlink:href="#m631dab07b7" y="164.478758"/>
     <use style="fill:#ff0000;stroke:#ff0000;" x="145.832727" xlink:href="#m631dab07b7" y="182.285283"/>
     <use style="fill:#ff0000;stroke:#ff0000;" x="147.141818" xlink:href="#m631dab07b7" y="182.285283"/>
     <use style="fill:#ff0000;stroke:#ff0000;" x="148.450909" xlink:href="#m631dab07b7" y="198.560735"/>
     <use style="fill:#ff0000;stroke:#ff0000;" x="149.76" xlink:href="#m631dab07b7" y="198.560735"/>
     <use style="fill:#ff0000;stroke:#ff0000;" x="151.069091" xlink:href="#m631dab07b7" y="213.733612"/>
     <use style="fill:#ff0000;stroke:#ff0000;" x="152.378182" xlink:href="#m631dab07b7" y="230.269804"/>
     <use style="fill:#ff0000;stroke:#ff0000;" x="153.687273" xlink:href="#m631dab07b7" y="230.269804"/>
     <use style="fill:#ff0000;stroke:#ff0000;" x="154.996364" xlink:href="#m631dab07b7" y="230.269804"/>
     <use style="fill:#ff0000;stroke:#ff0000;" x="156.305455" xlink:href="#m631dab07b7" y="247.263364"/>
     <use style="fill:#ff0000;stroke:#ff0000;" x="157.614545" xlink:href="#m631dab07b7" y="264.216085"/>
     <use style="fill:#ff0000;stroke:#ff0000;" x="158.923636" xlink:href="#m631dab07b7" y="264.216085"/>
     <use style="fill:#ff0000;stroke:#ff0000;" x="160.232727" xlink:href="#m631dab07b7" y="264.216085"/>
     <use style="fill:#ff0000;stroke:#ff0000;" x="161.541818" xlink:href="#m631dab07b7" y="280.116896"/>
     <use style="fill:#ff0000;stroke:#ff0000;" x="162.850909" xlink:href="#m631dab07b7" y="280.116896"/>
     <use style="fill:#ff0000;stroke:#ff0000;" x="164.16" xlink:href="#m631dab07b7" y="295.488"/>
     <use style="fill:#ff0000;stroke:#ff0000;" x="165.469091" xlink:href="#m631dab07b7" y="276.07965"/>
     <use style="fill:#ff0000;stroke:#ff0000;" x="166.778182" xlink:href="#m631dab07b7" y="276.07965"/>
     <use style="fill:#ff0000;stroke:#ff0000;" x="168.087273" xlink:href="#m631dab07b7" y="277.241087"/>
     <use style="fill:#ff0000;stroke:#ff0000;" x="169.396364" xlink:href="#m631dab07b7" y="277.241087"/>
     <use style="fill:#ff0000;stroke:#ff0000;" x="170.705455" xlink:href="#m631dab07b7" y="293.024641"/>
     <use style="fill:#ff0000;stroke:#ff0000;" x="172.014545" xlink:href="#m631dab07b7" y="293.024641"/>
     <use style="fill:#ff0000;stroke:#ff0000;" x="173.323636" xlink:href="#m631dab07b7" y="272.258945"/>
     <use style="fill:#ff0000;stroke:#ff0000;" x="174.632727" xlink:href="#m631dab07b7" y="272.258945"/>
     <use style="fill:#ff0000;stroke:#ff0000;" x="175.941818" xlink:href="#m631dab07b7" y="253.509055"/>
     <use style="fill:#ff0000;stroke:#ff0000;" x="177.250909" xlink:href="#m631dab07b7" y="233.339517"/>
     <use style="fill:#ff0000;stroke:#ff0000;" x="178.56" xlink:href="#m631dab07b7" y="233.339517"/>
     <use style="fill:#ff0000;stroke:#ff0000;" x="179.869091" xlink:href="#m631dab07b7" y="251.602127"/>
     <use style="fill:#ff0000;stroke:#ff0000;" x="181.178182" xlink:href="#m631dab07b7" y="251.602127"/>
     <use style="fill:#ff0000;stroke:#ff0000;" x="182.487273" xlink:href="#m631dab07b7" y="251.602127"/>
     <use style="fill:#ff0000;stroke:#ff0000;" x="183.796364" xlink:href="#m631dab07b7" y="251.602127"/>
     <use style="fill:#ff0000;stroke:#ff0000;" x="185.105455" xlink:href="#m631dab07b7" y="232.491685"/>
     <use style="fill:#ff0000;stroke:#ff0000;" x="186.414545" xlink:href="#m631dab07b7" y="232.491685"/>
     <use style="fill:#ff0000;stroke:#ff0000;" x="187.723636" xlink:href="#m631dab07b7" y="227.000005"/>
     <use style="fill:#ff0000;stroke:#ff0000;" x="189.032727" xlink:href="#m631dab07b7" y="227.000005"/>
     <use style="fill:#ff0000;stroke:#ff0000;" x="190.341818" xlink:href="#m631dab07b7" y="227.000005"/>
     <use style="fill:#ff0000;stroke:#ff0000;" x="191.650909" xlink:href="#m631dab07b7" y="242.940254"/>
     <use style="fill:#ff0000;stroke:#ff0000;" x="192.96" xlink:href="#m631dab07b7" y="242.940254"/>
     <use style="fill:#ff0000;stroke:#ff0000;" x="194.269091" xlink:href="#m631dab07b7" y="244.959137"/>
     <use style="fill:#ff0000;stroke:#ff0000;" x="195.578182" xlink:href="#m631dab07b7" y="244.959137"/>
     <use style="fill:#ff0000;stroke:#ff0000;" x="196.887273" xlink:href="#m631dab07b7" y="244.959137"/>
     <use style="fill:#ff0000;stroke:#ff0000;" x="198.196364" xlink:href="#m631dab07b7" y="225.090324"/>
     <use style="fill:#ff0000;stroke:#ff0000;" x="199.505455" xlink:href="#m631dab07b7" y="240.971921"/>
     <use style="fill:#ff0000;stroke:#ff0000;" x="200.814545" xlink:href="#m631dab07b7" y="240.971921"/>
     <use style="fill:#ff0000;stroke:#ff0000;" x="202.123636" xlink:href="#m631dab07b7" y="242.011972"/>
     <use style="fill:#ff0000;stroke:#ff0000;" x="203.432727" xlink:href="#m631dab07b7" y="242.011972"/>
     <use style="fill:#ff0000;stroke:#ff0000;" x="204.741818" xlink:href="#m631dab07b7" y="242.011972"/>
     <use style="fill:#ff0000;stroke:#ff0000;" x="206.050909" xlink:href="#m631dab07b7" y="244.012425"/>
     <use style="fill:#ff0000;stroke:#ff0000;" x="207.36" xlink:href="#m631dab07b7" y="244.012425"/>
     <use style="fill:#ff0000;stroke:#ff0000;" x="208.669091" xlink:href="#m631dab07b7" y="261.282191"/>
     <use style="fill:#ff0000;stroke:#ff0000;" x="209.978182" xlink:href="#m631dab07b7" y="261.282191"/>
     <use style="fill:#ff0000;stroke:#ff0000;" x="211.287273" xlink:href="#m631dab07b7" y="261.282191"/>
     <use style="fill:#ff0000;stroke:#ff0000;" x="212.596364" xlink:href="#m631dab07b7" y="279.492488"/>
     <use style="fill:#ff0000;stroke:#ff0000;" x="213.905455" xlink:href="#m631dab07b7" y="279.492488"/>
     <use style="fill:#ff0000;stroke:#ff0000;" x="215.214545" xlink:href="#m631dab07b7" y="279.492488"/>
     <use style="fill:#ff0000;stroke:#ff0000;" x="216.523636" xlink:href="#m631dab07b7" y="260.093168"/>
     <use style="fill:#ff0000;stroke:#ff0000;" x="217.832727" xlink:href="#m631dab07b7" y="260.093168"/>
     <use style="fill:#ff0000;stroke:#ff0000;" x="219.141818" xlink:href="#m631dab07b7" y="257.980215"/>
     <use style="fill:#ff0000;stroke:#ff0000;" x="220.450909" xlink:href="#m631dab07b7" y="257.980215"/>
     <use style="fill:#ff0000;stroke:#ff0000;" x="221.76" xlink:href="#m631dab07b7" y="257.980215"/>
     <use style="fill:#ff0000;stroke:#ff0000;" x="223.069091" xlink:href="#m631dab07b7" y="257.980215"/>
     <use style="fill:#ff0000;stroke:#ff0000;" x="224.378182" xlink:href="#m631dab07b7" y="257.980215"/>
     <use style="fill:#ff0000;stroke:#ff0000;" x="225.687273" xlink:href="#m631dab07b7" y="257.980215"/>
     <use style="fill:#ff0000;stroke:#ff0000;" x="226.996364" xlink:href="#m631dab07b7" y="257.980215"/>
     <use style="fill:#ff0000;stroke:#ff0000;" x="228.305455" xlink:href="#m631dab07b7" y="257.980215"/>
     <use style="fill:#ff0000;stroke:#ff0000;" x="229.614545" xlink:href="#m631dab07b7" y="257.980215"/>
     <use style="fill:#ff0000;stroke:#ff0000;" x="230.923636" xlink:href="#m631dab07b7" y="257.980215"/>
     <use style="fill:#ff0000;stroke:#ff0000;" x="232.232727" xlink:href="#m631dab07b7" y="239.319381"/>
     <use style="fill:#ff0000;stroke:#ff0000;" x="233.541818" xlink:href="#m631dab07b7" y="234.347303"/>
     <use style="fill:#ff0000;stroke:#ff0000;" x="234.850909" xlink:href="#m631dab07b7" y="234.347303"/>
     <use style="fill:#ff0000;stroke:#ff0000;" x="236.16" xlink:href="#m631dab07b7" y="234.347303"/>
     <use style="fill:#ff0000;stroke:#ff0000;" x="237.469091" xlink:href="#m631dab07b7" y="216.688458"/>
     <use style="fill:#ff0000;stroke:#ff0000;" x="238.778182" xlink:href="#m631dab07b7" y="216.688458"/>
     <use style="fill:#ff0000;stroke:#ff0000;" x="240.087273" xlink:href="#m631dab07b7" y="213.07759"/>
     <use style="fill:#ff0000;stroke:#ff0000;" x="241.396364" xlink:href="#m631dab07b7" y="213.07759"/>
     <use style="fill:#ff0000;stroke:#ff0000;" x="242.705455" xlink:href="#m631dab07b7" y="213.07759"/>
     <use style="fill:#ff0000;stroke:#ff0000;" x="244.014545" xlink:href="#m631dab07b7" y="197.240049"/>
     <use style="fill:#ff0000;stroke:#ff0000;" x="245.323636" xlink:href="#m631dab07b7" y="197.240049"/>
     <use style="fill:#ff0000;stroke:#ff0000;" x="246.632727" xlink:href="#m631dab07b7" y="212.913995"/>
     <use style="fill:#ff0000;stroke:#ff0000;" x="247.941818" xlink:href="#m631dab07b7" y="212.913995"/>
     <use style="fill:#ff0000;stroke:#ff0000;" x="249.250909" xlink:href="#m631dab07b7" y="195.546525"/>
     <use style="fill:#ff0000;stroke:#ff0000;" x="250.56" xlink:href="#m631dab07b7" y="195.546525"/>
     <use style="fill:#ff0000;stroke:#ff0000;" x="251.869091" xlink:href="#m631dab07b7" y="212.068623"/>
     <use style="fill:#ff0000;stroke:#ff0000;" x="253.178182" xlink:href="#m631dab07b7" y="212.068623"/>
     <use style="fill:#ff0000;stroke:#ff0000;" x="254.487273" xlink:href="#m631dab07b7" y="195.40432"/>
     <use style="fill:#ff0000;stroke:#ff0000;" x="255.796364" xlink:href="#m631dab07b7" y="195.40432"/>
     <use style="fill:#ff0000;stroke:#ff0000;" x="257.105455" xlink:href="#m631dab07b7" y="193.758342"/>
     <use style="fill:#ff0000;stroke:#ff0000;" x="258.414545" xlink:href="#m631dab07b7" y="193.758342"/>
     <use style="fill:#ff0000;stroke:#ff0000;" x="259.723636" xlink:href="#m631dab07b7" y="210.509339"/>
     <use style="fill:#ff0000;stroke:#ff0000;" x="261.032727" xlink:href="#m631dab07b7" y="210.509339"/>
     <use style="fill:#ff0000;stroke:#ff0000;" x="262.341818" xlink:href="#m631dab07b7" y="227.552589"/>
     <use style="fill:#ff0000;stroke:#ff0000;" x="263.650909" xlink:href="#m631dab07b7" y="227.552589"/>
     <use style="fill:#ff0000;stroke:#ff0000;" x="264.96" xlink:href="#m631dab07b7" y="227.552589"/>
     <use style="fill:#ff0000;stroke:#ff0000;" x="266.269091" xlink:href="#m631dab07b7" y="210.687495"/>
     <use style="fill:#ff0000;stroke:#ff0000;" x="267.578182" xlink:href="#m631dab07b7" y="210.687495"/>
     <use style="fill:#ff0000;stroke:#ff0000;" x="268.887273" xlink:href="#m631dab07b7" y="210.687495"/>
     <use style="fill:#ff0000;stroke:#ff0000;" x="270.196364" xlink:href="#m631dab07b7" y="230.147856"/>
     <use style="fill:#ff0000;stroke:#ff0000;" x="271.505455" xlink:href="#m631dab07b7" y="245.252072"/>
     <use style="fill:#ff0000;stroke:#ff0000;" x="272.814545" xlink:href="#m631dab07b7" y="245.252072"/>
     <use style="fill:#ff0000;stroke:#ff0000;" x="274.123636" xlink:href="#m631dab07b7" y="245.252072"/>
     <use style="fill:#ff0000;stroke:#ff0000;" x="275.432727" xlink:href="#m631dab07b7" y="245.252072"/>
     <use style="fill:#ff0000;stroke:#ff0000;" x="276.741818" xlink:href="#m631dab07b7" y="245.03596"/>
     <use style="fill:#ff0000;stroke:#ff0000;" x="278.050909" xlink:href="#m631dab07b7" y="245.03596"/>
     <use style="fill:#ff0000;stroke:#ff0000;" x="279.36" xlink:href="#m631dab07b7" y="226.176666"/>
     <use style="fill:#ff0000;stroke:#ff0000;" x="280.669091" xlink:href="#m631dab07b7" y="226.176666"/>
     <use style="fill:#ff0000;stroke:#ff0000;" x="281.978182" xlink:href="#m631dab07b7" y="207.97783"/>
     <use style="fill:#ff0000;stroke:#ff0000;" x="283.287273" xlink:href="#m631dab07b7" y="207.97783"/>
     <use style="fill:#ff0000;stroke:#ff0000;" x="284.596364" xlink:href="#m631dab07b7" y="187.889136"/>
     <use style="fill:#ff0000;stroke:#ff0000;" x="285.905455" xlink:href="#m631dab07b7" y="187.889136"/>
     <use style="fill:#ff0000;stroke:#ff0000;" x="287.214545" xlink:href="#m631dab07b7" y="187.889136"/>
     <use style="fill:#ff0000;stroke:#ff0000;" x="288.523636" xlink:href="#m631dab07b7" y="169.047577"/>
     <use style="fill:#ff0000;stroke:#ff0000;" x="289.832727" xlink:href="#m631dab07b7" y="169.047577"/>
     <use style="fill:#ff0000;stroke:#ff0000;" x="291.141818" xlink:href="#m631dab07b7" y="173.501136"/>
     <use style="fill:#ff0000;stroke:#ff0000;" x="292.450909" xlink:href="#m631dab07b7" y="173.501136"/>
     <use style="fill:#ff0000;stroke:#ff0000;" x="293.76" xlink:href="#m631dab07b7" y="173.501136"/>
     <use style="fill:#ff0000;stroke:#ff0000;" x="295.069091" xlink:href="#m631dab07b7" y="191.294198"/>
     <use style="fill:#ff0000;stroke:#ff0000;" x="296.378182" xlink:href="#m631dab07b7" y="191.294198"/>
     <use style="fill:#ff0000;stroke:#ff0000;" x="297.687273" xlink:href="#m631dab07b7" y="208.012537"/>
     <use style="fill:#ff0000;stroke:#ff0000;" x="298.996364" xlink:href="#m631dab07b7" y="203.324028"/>
     <use style="fill:#ff0000;stroke:#ff0000;" x="300.305455" xlink:href="#m631dab07b7" y="203.324028"/>
     <use style="fill:#ff0000;stroke:#ff0000;" x="301.614545" xlink:href="#m631dab07b7" y="220.839832"/>
     <use style="fill:#ff0000;stroke:#ff0000;" x="302.923636" xlink:href="#m631dab07b7" y="220.839832"/>
     <use style="fill:#ff0000;stroke:#ff0000;" x="304.232727" xlink:href="#m631dab07b7" y="201.035074"/>
     <use style="fill:#ff0000;stroke:#ff0000;" x="305.541818" xlink:href="#m631dab07b7" y="201.035074"/>
     <use style="fill:#ff0000;stroke:#ff0000;" x="306.850909" xlink:href="#m631dab07b7" y="206.591517"/>
     <use style="fill:#ff0000;stroke:#ff0000;" x="308.16" xlink:href="#m631dab07b7" y="206.591517"/>
     <use style="fill:#ff0000;stroke:#ff0000;" x="309.469091" xlink:href="#m631dab07b7" y="208.433838"/>
     <use style="fill:#ff0000;stroke:#ff0000;" x="310.778182" xlink:href="#m631dab07b7" y="208.433838"/>
     <use style="fill:#ff0000;stroke:#ff0000;" x="312.087273" xlink:href="#m631dab07b7" y="206.98765"/>
     <use style="fill:#ff0000;stroke:#ff0000;" x="313.396364" xlink:href="#m631dab07b7" y="206.98765"/>
     <use style="fill:#ff0000;stroke:#ff0000;" x="314.705455" xlink:href="#m631dab07b7" y="188.190485"/>
     <use style="fill:#ff0000;stroke:#ff0000;" x="316.014545" xlink:href="#m631dab07b7" y="203.93548"/>
     <use style="fill:#ff0000;stroke:#ff0000;" x="317.323636" xlink:href="#m631dab07b7" y="203.93548"/>
     <use style="fill:#ff0000;stroke:#ff0000;" x="318.632727" xlink:href="#m631dab07b7" y="203.93548"/>
     <use style="fill:#ff0000;stroke:#ff0000;" x="319.941818" xlink:href="#m631dab07b7" y="203.93548"/>
     <use style="fill:#ff0000;stroke:#ff0000;" x="321.250909" xlink:href="#m631dab07b7" y="203.93548"/>
     <use style="fill:#ff0000;stroke:#ff0000;" x="322.56" xlink:href="#m631dab07b7" y="203.93548"/>
     <use style="fill:#ff0000;stroke:#ff0000;" x="323.869091" xlink:href="#m631dab07b7" y="203.93548"/>
     <use style="fill:#ff0000;stroke:#ff0000;" x="325.178182" xlink:href="#m631dab07b7" y="203.93548"/>
     <use style="fill:#ff0000;stroke:#ff0000;" x="326.487273" xlink:href="#m631dab07b7" y="203.93548"/>
     <use style="fill:#ff0000;stroke:#ff0000;" x="327.796364" xlink:href="#m631dab07b7" y="203.93548"/>
     <use style="fill:#ff0000;stroke:#ff0000;" x="329.105455" xlink:href="#m631dab07b7" y="203.93548"/>
     <use style="fill:#ff0000;stroke:#ff0000;" x="330.414545" xlink:href="#m631dab07b7" y="203.93548"/>
     <use style="fill:#ff0000;stroke:#ff0000;" x="331.723636" xlink:href="#m631dab07b7" y="203.93548"/>
     <use style="fill:#ff0000;stroke:#ff0000;" x="333.032727" xlink:href="#m631dab07b7" y="203.93548"/>
     <use style="fill:#ff0000;stroke:#ff0000;" x="334.341818" xlink:href="#m631dab07b7" y="203.93548"/>
     <use style="fill:#ff0000;stroke:#ff0000;" x="335.650909" xlink:href="#m631dab07b7" y="203.93548"/>
     <use style="fill:#ff0000;stroke:#ff0000;" x="336.96" xlink:href="#m631dab07b7" y="203.93548"/>
     <use style="fill:#ff0000;stroke:#ff0000;" x="338.269091" xlink:href="#m631dab07b7" y="203.93548"/>
     <use style="fill:#ff0000;stroke:#ff0000;" x="339.578182" xlink:href="#m631dab07b7" y="203.93548"/>
     <use style="fill:#ff0000;stroke:#ff0000;" x="340.887273" xlink:href="#m631dab07b7" y="203.93548"/>
     <use style="fill:#ff0000;stroke:#ff0000;" x="342.196364" xlink:href="#m631dab07b7" y="203.93548"/>
     <use style="fill:#ff0000;stroke:#ff0000;" x="343.505455" xlink:href="#m631dab07b7" y="203.93548"/>
     <use style="fill:#ff0000;stroke:#ff0000;" x="344.814545" xlink:href="#m631dab07b7" y="203.93548"/>
     <use style="fill:#ff0000;stroke:#ff0000;" x="346.123636" xlink:href="#m631dab07b7" y="203.93548"/>
     <use style="fill:#ff0000;stroke:#ff0000;" x="347.432727" xlink:href="#m631dab07b7" y="203.93548"/>
     <use style="fill:#ff0000;stroke:#ff0000;" x="348.741818" xlink:href="#m631dab07b7" y="203.93548"/>
     <use style="fill:#ff0000;stroke:#ff0000;" x="350.050909" xlink:href="#m631dab07b7" y="203.93548"/>
     <use style="fill:#ff0000;stroke:#ff0000;" x="351.36" xlink:href="#m631dab07b7" y="203.93548"/>
     <use style="fill:#ff0000;stroke:#ff0000;" x="352.669091" xlink:href="#m631dab07b7" y="203.93548"/>
     <use style="fill:#ff0000;stroke:#ff0000;" x="353.978182" xlink:href="#m631dab07b7" y="203.93548"/>
     <use style="fill:#ff0000;stroke:#ff0000;" x="355.287273" xlink:href="#m631dab07b7" y="203.93548"/>
     <use style="fill:#ff0000;stroke:#ff0000;" x="356.596364" xlink:href="#m631dab07b7" y="203.93548"/>
     <use style="fill:#ff0000;stroke:#ff0000;" x="357.905455" xlink:href="#m631dab07b7" y="203.93548"/>
     <use style="fill:#ff0000;stroke:#ff0000;" x="359.214545" xlink:href="#m631dab07b7" y="203.93548"/>
     <use style="fill:#ff0000;stroke:#ff0000;" x="360.523636" xlink:href="#m631dab07b7" y="203.93548"/>
     <use style="fill:#ff0000;stroke:#ff0000;" x="361.832727" xlink:href="#m631dab07b7" y="203.93548"/>
     <use style="fill:#ff0000;stroke:#ff0000;" x="363.141818" xlink:href="#m631dab07b7" y="203.93548"/>
     <use style="fill:#ff0000;stroke:#ff0000;" x="364.450909" xlink:href="#m631dab07b7" y="203.93548"/>
     <use style="fill:#ff0000;stroke:#ff0000;" x="365.76" xlink:href="#m631dab07b7" y="203.93548"/>
     <use style="fill:#ff0000;stroke:#ff0000;" x="367.069091" xlink:href="#m631dab07b7" y="203.93548"/>
     <use style="fill:#ff0000;stroke:#ff0000;" x="368.378182" xlink:href="#m631dab07b7" y="203.93548"/>
     <use style="fill:#ff0000;stroke:#ff0000;" x="369.687273" xlink:href="#m631dab07b7" y="203.93548"/>
     <use style="fill:#ff0000;stroke:#ff0000;" x="370.996364" xlink:href="#m631dab07b7" y="203.93548"/>
     <use style="fill:#ff0000;stroke:#ff0000;" x="372.305455" xlink:href="#m631dab07b7" y="203.93548"/>
     <use style="fill:#ff0000;stroke:#ff0000;" x="373.614545" xlink:href="#m631dab07b7" y="203.93548"/>
     <use style="fill:#ff0000;stroke:#ff0000;" x="374.923636" xlink:href="#m631dab07b7" y="203.93548"/>
     <use style="fill:#ff0000;stroke:#ff0000;" x="376.232727" xlink:href="#m631dab07b7" y="203.93548"/>
     <use style="fill:#ff0000;stroke:#ff0000;" x="377.541818" xlink:href="#m631dab07b7" y="203.93548"/>
     <use style="fill:#ff0000;stroke:#ff0000;" x="378.850909" xlink:href="#m631dab07b7" y="203.93548"/>
     <use style="fill:#ff0000;stroke:#ff0000;" x="380.16" xlink:href="#m631dab07b7" y="203.93548"/>
     <use style="fill:#ff0000;stroke:#ff0000;" x="381.469091" xlink:href="#m631dab07b7" y="203.93548"/>
     <use style="fill:#ff0000;stroke:#ff0000;" x="382.778182" xlink:href="#m631dab07b7" y="203.93548"/>
     <use style="fill:#ff0000;stroke:#ff0000;" x="384.087273" xlink:href="#m631dab07b7" y="203.93548"/>
     <use style="fill:#ff0000;stroke:#ff0000;" x="385.396364" xlink:href="#m631dab07b7" y="203.93548"/>
     <use style="fill:#ff0000;stroke:#ff0000;" x="386.705455" xlink:href="#m631dab07b7" y="203.93548"/>
     <use style="fill:#ff0000;stroke:#ff0000;" x="388.014545" xlink:href="#m631dab07b7" y="203.93548"/>
     <use style="fill:#ff0000;stroke:#ff0000;" x="389.323636" xlink:href="#m631dab07b7" y="203.93548"/>
     <use style="fill:#ff0000;stroke:#ff0000;" x="390.632727" xlink:href="#m631dab07b7" y="203.93548"/>
     <use style="fill:#ff0000;stroke:#ff0000;" x="391.941818" xlink:href="#m631dab07b7" y="203.93548"/>
     <use style="fill:#ff0000;stroke:#ff0000;" x="393.250909" xlink:href="#m631dab07b7" y="203.93548"/>
     <use style="fill:#ff0000;stroke:#ff0000;" x="394.56" xlink:href="#m631dab07b7" y="203.93548"/>
     <use style="fill:#ff0000;stroke:#ff0000;" x="395.869091" xlink:href="#m631dab07b7" y="203.93548"/>
     <use style="fill:#ff0000;stroke:#ff0000;" x="397.178182" xlink:href="#m631dab07b7" y="203.93548"/>
     <use style="fill:#ff0000;stroke:#ff0000;" x="398.487273" xlink:href="#m631dab07b7" y="203.93548"/>
    </g>
   </g>
   <g id="patch_3">
    <path d="M 57.6 307.584 
L 57.6 41.472 
" style="fill:none;stroke:#000000;stroke-linecap:square;stroke-linejoin:miter;stroke-width:0.8;"/>
   </g>
   <g id="patch_4">
    <path d="M 414.72 307.584 
L 414.72 41.472 
" style="fill:none;stroke:#000000;stroke-linecap:square;stroke-linejoin:miter;stroke-width:0.8;"/>
   </g>
   <g id="patch_5">
    <path d="M 57.6 307.584 
L 414.72 307.584 
" style="fill:none;stroke:#000000;stroke-linecap:square;stroke-linejoin:miter;stroke-width:0.8;"/>
   </g>
   <g id="patch_6">
    <path d="M 57.6 41.472 
L 414.72 41.472 
" style="fill:none;stroke:#000000;stroke-linecap:square;stroke-linejoin:miter;stroke-width:0.8;"/>
   </g>
  </g>
 </g>
 <defs>
  <clipPath id="p5816cc22bd">
   <rect height="266.112" width="357.12" x="57.6" y="41.472"/>
  </clipPath>
 </defs>
</svg>
