<?xml version="1.0" encoding="utf-8" standalone="no"?>
<!DOCTYPE svg PUBLIC "-//W3C//DTD SVG 1.1//EN"
  "http://www.w3.org/Graphics/SVG/1.1/DTD/svg11.dtd">
<!-- Created with matplotlib (https://matplotlib.org/) -->
<svg height="345.6pt" version="1.1" viewBox="0 0 460.8 345.6" width="460.8pt" xmlns="http://www.w3.org/2000/svg" xmlns:xlink="http://www.w3.org/1999/xlink">
 <defs>
  <style type="text/css">
*{stroke-linecap:butt;stroke-linejoin:round;}
  </style>
 </defs>
 <g id="figure_1">
  <g id="patch_1">
   <path d="M 0 345.6 
L 460.8 345.6 
L 460.8 0 
L 0 0 
z
" style="fill:#ffffff;"/>
  </g>
  <g id="axes_1">
   <g id="patch_2">
    <path d="M 57.6 307.584 
L 414.72 307.584 
L 414.72 41.472 
L 57.6 41.472 
z
" style="fill:#ffffff;"/>
   </g>
   <g id="line2d_1">
    <path clip-path="url(#pffbb84b8b4)" d="M 73.832727 176.238161 
L 81.949091 153.328628 
L 90.065455 153.328628 
L 98.181818 133.385684 
L 106.298182 159.219145 
L 114.414545 159.219145 
L 122.530909 159.219145 
L 130.647273 159.219145 
L 138.763636 184.968192 
L 146.88 184.968192 
L 154.996364 162.180219 
L 163.112727 162.180219 
L 171.229091 162.180219 
L 179.345455 162.180219 
L 187.461818 162.180219 
L 195.578182 286.435412 
L 203.694545 286.435412 
L 211.810909 166.621872 
L 219.927273 277.128951 
L 228.043636 277.128951 
L 236.16 158.983878 
L 244.276364 158.983878 
L 252.392727 53.568 
L 260.509091 53.568 
L 268.625455 94.497647 
L 276.741818 102.184 
L 284.858182 102.184 
L 292.974545 102.184 
L 301.090909 141.649683 
L 309.207273 179.644761 
L 317.323636 179.644761 
L 325.44 217.700625 
L 333.556364 217.700625 
L 341.672727 217.700625 
L 349.789091 217.700625 
L 357.905455 217.700625 
L 366.021818 256.177612 
L 374.138182 256.177612 
L 382.254545 295.488 
L 390.370909 295.488 
L 398.487273 295.488 
" style="fill:none;stroke:#ff0000;stroke-linecap:square;stroke-width:12;"/>
    <defs>
     <path d="M 0 3 
C 0.795609 3 1.55874 2.683901 2.12132 2.12132 
C 2.683901 1.55874 3 0.795609 3 0 
C 3 -0.795609 2.683901 -1.55874 2.12132 -2.12132 
C 1.55874 -2.683901 0.795609 -3 0 -3 
C -0.795609 -3 -1.55874 -2.683901 -2.12132 -2.12132 
C -2.683901 -1.55874 -3 -0.795609 -3 0 
C -3 0.795609 -2.683901 1.55874 -2.12132 2.12132 
C -1.55874 2.683901 -0.795609 3 0 3 
z
" id="mcbb0bc40d4" style="stroke:#ff0000;"/>
    </defs>
    <g clip-path="url(#pffbb84b8b4)">
     <use style="fill:#ff0000;stroke:#ff0000;" x="73.832727" xlink:href="#mcbb0bc40d4" y="176.238161"/>
     <use style="fill:#ff0000;stroke:#ff0000;" x="81.949091" xlink:href="#mcbb0bc40d4" y="153.328628"/>
     <use style="fill:#ff0000;stroke:#ff0000;" x="90.065455" xlink:href="#mcbb0bc40d4" y="153.328628"/>
     <use style="fill:#ff0000;stroke:#ff0000;" x="98.181818" xlink:href="#mcbb0bc40d4" y="133.385684"/>
     <use style="fill:#ff0000;stroke:#ff0000;" x="106.298182" xlink:href="#mcbb0bc40d4" y="159.219145"/>
     <use style="fill:#ff0000;stroke:#ff0000;" x="114.414545" xlink:href="#mcbb0bc40d4" y="159.219145"/>
     <use style="fill:#ff0000;stroke:#ff0000;" x="122.530909" xlink:href="#mcbb0bc40d4" y="159.219145"/>
     <use style="fill:#ff0000;stroke:#ff0000;" x="130.647273" xlink:href="#mcbb0bc40d4" y="159.219145"/>
     <use style="fill:#ff0000;stroke:#ff0000;" x="138.763636" xlink:href="#mcbb0bc40d4" y="184.968192"/>
     <use style="fill:#ff0000;stroke:#ff0000;" x="146.88" xlink:href="#mcbb0bc40d4" y="184.968192"/>
     <use style="fill:#ff0000;stroke:#ff0000;" x="154.996364" xlink:href="#mcbb0bc40d4" y="162.180219"/>
     <use style="fill:#ff0000;stroke:#ff0000;" x="163.112727" xlink:href="#mcbb0bc40d4" y="162.180219"/>
     <use style="fill:#ff0000;stroke:#ff0000;" x="171.229091" xlink:href="#mcbb0bc40d4" y="162.180219"/>
     <use style="fill:#ff0000;stroke:#ff0000;" x="179.345455" xlink:href="#mcbb0bc40d4" y="162.180219"/>
     <use style="fill:#ff0000;stroke:#ff0000;" x="187.461818" xlink:href="#mcbb0bc40d4" y="162.180219"/>
     <use style="fill:#ff0000;stroke:#ff0000;" x="195.578182" xlink:href="#mcbb0bc40d4" y="286.435412"/>
     <use style="fill:#ff0000;stroke:#ff0000;" x="203.694545" xlink:href="#mcbb0bc40d4" y="286.435412"/>
     <use style="fill:#ff0000;stroke:#ff0000;" x="211.810909" xlink:href="#mcbb0bc40d4" y="166.621872"/>
     <use style="fill:#ff0000;stroke:#ff0000;" x="219.927273" xlink:href="#mcbb0bc40d4" y="277.128951"/>
     <use style="fill:#ff0000;stroke:#ff0000;" x="228.043636" xlink:href="#mcbb0bc40d4" y="277.128951"/>
     <use style="fill:#ff0000;stroke:#ff0000;" x="236.16" xlink:href="#mcbb0bc40d4" y="158.983878"/>
     <use style="fill:#ff0000;stroke:#ff0000;" x="244.276364" xlink:href="#mcbb0bc40d4" y="158.983878"/>
     <use style="fill:#ff0000;stroke:#ff0000;" x="252.392727" xlink:href="#mcbb0bc40d4" y="53.568"/>
     <use style="fill:#ff0000;stroke:#ff0000;" x="260.509091" xlink:href="#mcbb0bc40d4" y="53.568"/>
     <use style="fill:#ff0000;stroke:#ff0000;" x="268.625455" xlink:href="#mcbb0bc40d4" y="94.497647"/>
     <use style="fill:#ff0000;stroke:#ff0000;" x="276.741818" xlink:href="#mcbb0bc40d4" y="102.184"/>
     <use style="fill:#ff0000;stroke:#ff0000;" x="284.858182" xlink:href="#mcbb0bc40d4" y="102.184"/>
     <use style="fill:#ff0000;stroke:#ff0000;" x="292.974545" xlink:href="#mcbb0bc40d4" y="102.184"/>
     <use style="fill:#ff0000;stroke:#ff0000;" x="301.090909" xlink:href="#mcbb0bc40d4" y="141.649683"/>
     <use style="fill:#ff0000;stroke:#ff0000;" x="309.207273" xlink:href="#mcbb0bc40d4" y="179.644761"/>
     <use style="fill:#ff0000;stroke:#ff0000;" x="317.323636" xlink:href="#mcbb0bc40d4" y="179.644761"/>
     <use style="fill:#ff0000;stroke:#ff0000;" x="325.44" xlink:href="#mcbb0bc40d4" y="217.700625"/>
     <use style="fill:#ff0000;stroke:#ff0000;" x="333.556364" xlink:href="#mcbb0bc40d4" y="217.700625"/>
     <use style="fill:#ff0000;stroke:#ff0000;" x="341.672727" xlink:href="#mcbb0bc40d4" y="217.700625"/>
     <use style="fill:#ff0000;stroke:#ff0000;" x="349.789091" xlink:href="#mcbb0bc40d4" y="217.700625"/>
     <use style="fill:#ff0000;stroke:#ff0000;" x="357.905455" xlink:href="#mcbb0bc40d4" y="217.700625"/>
     <use style="fill:#ff0000;stroke:#ff0000;" x="366.021818" xlink:href="#mcbb0bc40d4" y="256.177612"/>
     <use style="fill:#ff0000;stroke:#ff0000;" x="374.138182" xlink:href="#mcbb0bc40d4" y="256.177612"/>
     <use style="fill:#ff0000;stroke:#ff0000;" x="382.254545" xlink:href="#mcbb0bc40d4" y="295.488"/>
     <use style="fill:#ff0000;stroke:#ff0000;" x="390.370909" xlink:href="#mcbb0bc40d4" y="295.488"/>
     <use style="fill:#ff0000;stroke:#ff0000;" x="398.487273" xlink:href="#mcbb0bc40d4" y="295.488"/>
    </g>
   </g>
   <g id="patch_3">
    <path d="M 57.6 307.584 
L 57.6 41.472 
" style="fill:none;stroke:#000000;stroke-linecap:square;stroke-linejoin:miter;stroke-width:0.8;"/>
   </g>
   <g id="patch_4">
    <path d="M 414.72 307.584 
L 414.72 41.472 
" style="fill:none;stroke:#000000;stroke-linecap:square;stroke-linejoin:miter;stroke-width:0.8;"/>
   </g>
   <g id="patch_5">
    <path d="M 57.6 307.584 
L 414.72 307.584 
" style="fill:none;stroke:#000000;stroke-linecap:square;stroke-linejoin:miter;stroke-width:0.8;"/>
   </g>
   <g id="patch_6">
    <path d="M 57.6 41.472 
L 414.72 41.472 
" style="fill:none;stroke:#000000;stroke-linecap:square;stroke-linejoin:miter;stroke-width:0.8;"/>
   </g>
  </g>
 </g>
 <defs>
  <clipPath id="pffbb84b8b4">
   <rect height="266.112" width="357.12" x="57.6" y="41.472"/>
  </clipPath>
 </defs>
</svg>
