<?xml version="1.0" encoding="utf-8" standalone="no"?>
<!DOCTYPE svg PUBLIC "-//W3C//DTD SVG 1.1//EN"
  "http://www.w3.org/Graphics/SVG/1.1/DTD/svg11.dtd">
<!-- Created with matplotlib (https://matplotlib.org/) -->
<svg height="345.6pt" version="1.1" viewBox="0 0 460.8 345.6" width="460.8pt" xmlns="http://www.w3.org/2000/svg" xmlns:xlink="http://www.w3.org/1999/xlink">
 <defs>
  <style type="text/css">
*{stroke-linecap:butt;stroke-linejoin:round;}
  </style>
 </defs>
 <g id="figure_1">
  <g id="patch_1">
   <path d="M 0 345.6 
L 460.8 345.6 
L 460.8 0 
L 0 0 
z
" style="fill:#ffffff;"/>
  </g>
  <g id="axes_1">
   <g id="patch_2">
    <path d="M 57.6 307.584 
L 414.72 307.584 
L 414.72 41.472 
L 57.6 41.472 
z
" style="fill:#ffffff;"/>
   </g>
   <g id="line2d_1">
    <path clip-path="url(#pe334063eda)" d="M 73.832727 110.238092 
L 74.687081 99.654545 
L 75.541435 99.654545 
L 76.395789 90.441478 
L 77.250144 102.375795 
L 79.813206 102.375795 
L 80.66756 114.271115 
L 81.521914 114.271115 
L 82.376268 103.743726 
L 85.793684 103.743726 
L 86.648038 161.146057 
L 87.502392 161.146057 
L 88.356746 105.795642 
L 89.2111 156.846739 
L 90.065455 156.846739 
L 90.919809 102.267108 
L 91.774163 102.267108 
L 92.628517 53.568 
L 93.482871 53.568 
L 94.337225 72.476322 
L 95.191579 76.027196 
L 96.900287 76.027196 
L 98.608995 111.811843 
L 99.463349 111.811843 
L 100.317703 129.392559 
L 103.73512 129.392559 
L 104.589474 147.167822 
L 105.443828 147.167822 
L 106.298182 165.328093 
L 107.152536 165.328093 
L 108.00689 168.619076 
L 108.861244 168.619076 
L 109.715598 150.86459 
L 110.569952 150.86459 
L 111.424306 152.533762 
L 112.27866 152.533762 
L 113.133014 133.524966 
L 114.841722 133.524966 
L 115.696077 151.136956 
L 116.550431 151.136956 
L 117.404785 166.952108 
L 118.259139 164.478758 
L 119.967847 164.478758 
L 120.822201 182.285283 
L 121.676555 182.285283 
L 122.530909 198.560735 
L 123.385263 198.560735 
L 125.093971 230.269804 
L 126.802679 230.269804 
L 128.511388 264.216085 
L 130.220096 264.216085 
L 131.07445 280.116896 
L 131.928804 280.116896 
L 132.783158 295.488 
L 133.637512 276.07965 
L 134.491866 276.07965 
L 135.34622 277.241087 
L 136.200574 277.241087 
L 137.054928 293.024641 
L 137.909282 293.024641 
L 138.763636 272.258945 
L 139.61799 272.258945 
L 141.326699 233.339517 
L 142.181053 233.339517 
L 143.035407 251.602127 
L 145.598469 251.602127 
L 146.452823 232.491685 
L 147.307177 232.491685 
L 148.161531 227.000005 
L 149.870239 227.000005 
L 150.724593 242.940254 
L 151.578947 242.940254 
L 152.433301 244.959137 
L 154.14201 244.959137 
L 154.996364 225.090324 
L 155.850718 240.971921 
L 156.705072 240.971921 
L 157.559426 242.011972 
L 159.268134 242.011972 
L 160.122488 244.012425 
L 160.976842 244.012425 
L 161.831196 261.282191 
L 163.539904 261.282191 
L 164.394258 279.492488 
L 166.102967 279.492488 
L 166.957321 260.093168 
L 167.811675 260.093168 
L 168.666029 257.980215 
L 176.355215 257.980215 
L 177.209569 239.319381 
L 178.063923 234.347303 
L 179.772632 234.347303 
L 180.626986 216.688458 
L 181.48134 216.688458 
L 182.335694 213.07759 
L 184.044402 213.07759 
L 184.898756 197.240049 
L 185.75311 197.240049 
L 186.607464 212.913995 
L 187.461818 212.913995 
L 188.316172 195.546525 
L 189.170526 195.546525 
L 190.02488 212.068623 
L 190.879234 212.068623 
L 191.733589 195.40432 
L 192.587943 195.40432 
L 193.442297 193.758342 
L 194.296651 193.758342 
L 195.151005 210.509339 
L 196.005359 210.509339 
L 196.859713 227.552589 
L 198.568421 227.552589 
L 199.422775 210.687495 
L 201.131483 210.687495 
L 201.985837 230.147856 
L 202.840191 245.252072 
L 205.403254 245.252072 
L 206.257608 245.03596 
L 207.111962 245.03596 
L 207.966316 226.176666 
L 208.82067 226.176666 
L 209.675024 207.97783 
L 210.529378 207.97783 
L 211.383732 187.889136 
L 213.09244 187.889136 
L 213.946794 169.047577 
L 214.801148 169.047577 
L 215.655502 173.501136 
L 217.364211 173.501136 
L 218.218565 191.294198 
L 219.072919 191.294198 
L 219.927273 208.012537 
L 220.781627 203.324028 
L 221.635981 203.324028 
L 222.490335 220.839832 
L 223.344689 220.839832 
L 224.199043 201.035074 
L 225.053397 201.035074 
L 225.907751 206.591517 
L 226.762105 206.591517 
L 227.616459 208.433838 
L 228.470813 208.433838 
L 229.325167 206.98765 
L 230.179522 206.98765 
L 231.033876 188.190485 
L 231.88823 203.93548 
L 398.487273 203.93548 
L 398.487273 203.93548 
" style="fill:none;stroke:#ff0000;stroke-linecap:square;stroke-width:12;"/>
    <defs>
     <path d="M 0 3 
C 0.795609 3 1.55874 2.683901 2.12132 2.12132 
C 2.683901 1.55874 3 0.795609 3 0 
C 3 -0.795609 2.683901 -1.55874 2.12132 -2.12132 
C 1.55874 -2.683901 0.795609 -3 0 -3 
C -0.795609 -3 -1.55874 -2.683901 -2.12132 -2.12132 
C -2.683901 -1.55874 -3 -0.795609 -3 0 
C -3 0.795609 -2.683901 1.55874 -2.12132 2.12132 
C -1.55874 2.683901 -0.795609 3 0 3 
z
" id="m9ccb08faa2" style="stroke:#ff0000;"/>
    </defs>
    <g clip-path="url(#pe334063eda)">
     <use style="fill:#ff0000;stroke:#ff0000;" x="73.832727" xlink:href="#m9ccb08faa2" y="110.238092"/>
     <use style="fill:#ff0000;stroke:#ff0000;" x="74.687081" xlink:href="#m9ccb08faa2" y="99.654545"/>
     <use style="fill:#ff0000;stroke:#ff0000;" x="75.541435" xlink:href="#m9ccb08faa2" y="99.654545"/>
     <use style="fill:#ff0000;stroke:#ff0000;" x="76.395789" xlink:href="#m9ccb08faa2" y="90.441478"/>
     <use style="fill:#ff0000;stroke:#ff0000;" x="77.250144" xlink:href="#m9ccb08faa2" y="102.375795"/>
     <use style="fill:#ff0000;stroke:#ff0000;" x="78.104498" xlink:href="#m9ccb08faa2" y="102.375795"/>
     <use style="fill:#ff0000;stroke:#ff0000;" x="78.958852" xlink:href="#m9ccb08faa2" y="102.375795"/>
     <use style="fill:#ff0000;stroke:#ff0000;" x="79.813206" xlink:href="#m9ccb08faa2" y="102.375795"/>
     <use style="fill:#ff0000;stroke:#ff0000;" x="80.66756" xlink:href="#m9ccb08faa2" y="114.271115"/>
     <use style="fill:#ff0000;stroke:#ff0000;" x="81.521914" xlink:href="#m9ccb08faa2" y="114.271115"/>
     <use style="fill:#ff0000;stroke:#ff0000;" x="82.376268" xlink:href="#m9ccb08faa2" y="103.743726"/>
     <use style="fill:#ff0000;stroke:#ff0000;" x="83.230622" xlink:href="#m9ccb08faa2" y="103.743726"/>
     <use style="fill:#ff0000;stroke:#ff0000;" x="84.084976" xlink:href="#m9ccb08faa2" y="103.743726"/>
     <use style="fill:#ff0000;stroke:#ff0000;" x="84.93933" xlink:href="#m9ccb08faa2" y="103.743726"/>
     <use style="fill:#ff0000;stroke:#ff0000;" x="85.793684" xlink:href="#m9ccb08faa2" y="103.743726"/>
     <use style="fill:#ff0000;stroke:#ff0000;" x="86.648038" xlink:href="#m9ccb08faa2" y="161.146057"/>
     <use style="fill:#ff0000;stroke:#ff0000;" x="87.502392" xlink:href="#m9ccb08faa2" y="161.146057"/>
     <use style="fill:#ff0000;stroke:#ff0000;" x="88.356746" xlink:href="#m9ccb08faa2" y="105.795642"/>
     <use style="fill:#ff0000;stroke:#ff0000;" x="89.2111" xlink:href="#m9ccb08faa2" y="156.846739"/>
     <use style="fill:#ff0000;stroke:#ff0000;" x="90.065455" xlink:href="#m9ccb08faa2" y="156.846739"/>
     <use style="fill:#ff0000;stroke:#ff0000;" x="90.919809" xlink:href="#m9ccb08faa2" y="102.267108"/>
     <use style="fill:#ff0000;stroke:#ff0000;" x="91.774163" xlink:href="#m9ccb08faa2" y="102.267108"/>
     <use style="fill:#ff0000;stroke:#ff0000;" x="92.628517" xlink:href="#m9ccb08faa2" y="53.568"/>
     <use style="fill:#ff0000;stroke:#ff0000;" x="93.482871" xlink:href="#m9ccb08faa2" y="53.568"/>
     <use style="fill:#ff0000;stroke:#ff0000;" x="94.337225" xlink:href="#m9ccb08faa2" y="72.476322"/>
     <use style="fill:#ff0000;stroke:#ff0000;" x="95.191579" xlink:href="#m9ccb08faa2" y="76.027196"/>
     <use style="fill:#ff0000;stroke:#ff0000;" x="96.045933" xlink:href="#m9ccb08faa2" y="76.027196"/>
     <use style="fill:#ff0000;stroke:#ff0000;" x="96.900287" xlink:href="#m9ccb08faa2" y="76.027196"/>
     <use style="fill:#ff0000;stroke:#ff0000;" x="97.754641" xlink:href="#m9ccb08faa2" y="94.259208"/>
     <use style="fill:#ff0000;stroke:#ff0000;" x="98.608995" xlink:href="#m9ccb08faa2" y="111.811843"/>
     <use style="fill:#ff0000;stroke:#ff0000;" x="99.463349" xlink:href="#m9ccb08faa2" y="111.811843"/>
     <use style="fill:#ff0000;stroke:#ff0000;" x="100.317703" xlink:href="#m9ccb08faa2" y="129.392559"/>
     <use style="fill:#ff0000;stroke:#ff0000;" x="101.172057" xlink:href="#m9ccb08faa2" y="129.392559"/>
     <use style="fill:#ff0000;stroke:#ff0000;" x="102.026411" xlink:href="#m9ccb08faa2" y="129.392559"/>
     <use style="fill:#ff0000;stroke:#ff0000;" x="102.880766" xlink:href="#m9ccb08faa2" y="129.392559"/>
     <use style="fill:#ff0000;stroke:#ff0000;" x="103.73512" xlink:href="#m9ccb08faa2" y="129.392559"/>
     <use style="fill:#ff0000;stroke:#ff0000;" x="104.589474" xlink:href="#m9ccb08faa2" y="147.167822"/>
     <use style="fill:#ff0000;stroke:#ff0000;" x="105.443828" xlink:href="#m9ccb08faa2" y="147.167822"/>
     <use style="fill:#ff0000;stroke:#ff0000;" x="106.298182" xlink:href="#m9ccb08faa2" y="165.328093"/>
     <use style="fill:#ff0000;stroke:#ff0000;" x="107.152536" xlink:href="#m9ccb08faa2" y="165.328093"/>
     <use style="fill:#ff0000;stroke:#ff0000;" x="108.00689" xlink:href="#m9ccb08faa2" y="168.619076"/>
     <use style="fill:#ff0000;stroke:#ff0000;" x="108.861244" xlink:href="#m9ccb08faa2" y="168.619076"/>
     <use style="fill:#ff0000;stroke:#ff0000;" x="109.715598" xlink:href="#m9ccb08faa2" y="150.86459"/>
     <use style="fill:#ff0000;stroke:#ff0000;" x="110.569952" xlink:href="#m9ccb08faa2" y="150.86459"/>
     <use style="fill:#ff0000;stroke:#ff0000;" x="111.424306" xlink:href="#m9ccb08faa2" y="152.533762"/>
     <use style="fill:#ff0000;stroke:#ff0000;" x="112.27866" xlink:href="#m9ccb08faa2" y="152.533762"/>
     <use style="fill:#ff0000;stroke:#ff0000;" x="113.133014" xlink:href="#m9ccb08faa2" y="133.524966"/>
     <use style="fill:#ff0000;stroke:#ff0000;" x="113.987368" xlink:href="#m9ccb08faa2" y="133.524966"/>
     <use style="fill:#ff0000;stroke:#ff0000;" x="114.841722" xlink:href="#m9ccb08faa2" y="133.524966"/>
     <use style="fill:#ff0000;stroke:#ff0000;" x="115.696077" xlink:href="#m9ccb08faa2" y="151.136956"/>
     <use style="fill:#ff0000;stroke:#ff0000;" x="116.550431" xlink:href="#m9ccb08faa2" y="151.136956"/>
     <use style="fill:#ff0000;stroke:#ff0000;" x="117.404785" xlink:href="#m9ccb08faa2" y="166.952108"/>
     <use style="fill:#ff0000;stroke:#ff0000;" x="118.259139" xlink:href="#m9ccb08faa2" y="164.478758"/>
     <use style="fill:#ff0000;stroke:#ff0000;" x="119.113493" xlink:href="#m9ccb08faa2" y="164.478758"/>
     <use style="fill:#ff0000;stroke:#ff0000;" x="119.967847" xlink:href="#m9ccb08faa2" y="164.478758"/>
     <use style="fill:#ff0000;stroke:#ff0000;" x="120.822201" xlink:href="#m9ccb08faa2" y="182.285283"/>
     <use style="fill:#ff0000;stroke:#ff0000;" x="121.676555" xlink:href="#m9ccb08faa2" y="182.285283"/>
     <use style="fill:#ff0000;stroke:#ff0000;" x="122.530909" xlink:href="#m9ccb08faa2" y="198.560735"/>
     <use style="fill:#ff0000;stroke:#ff0000;" x="123.385263" xlink:href="#m9ccb08faa2" y="198.560735"/>
     <use style="fill:#ff0000;stroke:#ff0000;" x="124.239617" xlink:href="#m9ccb08faa2" y="213.733612"/>
     <use style="fill:#ff0000;stroke:#ff0000;" x="125.093971" xlink:href="#m9ccb08faa2" y="230.269804"/>
     <use style="fill:#ff0000;stroke:#ff0000;" x="125.948325" xlink:href="#m9ccb08faa2" y="230.269804"/>
     <use style="fill:#ff0000;stroke:#ff0000;" x="126.802679" xlink:href="#m9ccb08faa2" y="230.269804"/>
     <use style="fill:#ff0000;stroke:#ff0000;" x="127.657033" xlink:href="#m9ccb08faa2" y="247.263364"/>
     <use style="fill:#ff0000;stroke:#ff0000;" x="128.511388" xlink:href="#m9ccb08faa2" y="264.216085"/>
     <use style="fill:#ff0000;stroke:#ff0000;" x="129.365742" xlink:href="#m9ccb08faa2" y="264.216085"/>
     <use style="fill:#ff0000;stroke:#ff0000;" x="130.220096" xlink:href="#m9ccb08faa2" y="264.216085"/>
     <use style="fill:#ff0000;stroke:#ff0000;" x="131.07445" xlink:href="#m9ccb08faa2" y="280.116896"/>
     <use style="fill:#ff0000;stroke:#ff0000;" x="131.928804" xlink:href="#m9ccb08faa2" y="280.116896"/>
     <use style="fill:#ff0000;stroke:#ff0000;" x="132.783158" xlink:href="#m9ccb08faa2" y="295.488"/>
     <use style="fill:#ff0000;stroke:#ff0000;" x="133.637512" xlink:href="#m9ccb08faa2" y="276.07965"/>
     <use style="fill:#ff0000;stroke:#ff0000;" x="134.491866" xlink:href="#m9ccb08faa2" y="276.07965"/>
     <use style="fill:#ff0000;stroke:#ff0000;" x="135.34622" xlink:href="#m9ccb08faa2" y="277.241087"/>
     <use style="fill:#ff0000;stroke:#ff0000;" x="136.200574" xlink:href="#m9ccb08faa2" y="277.241087"/>
     <use style="fill:#ff0000;stroke:#ff0000;" x="137.054928" xlink:href="#m9ccb08faa2" y="293.024641"/>
     <use style="fill:#ff0000;stroke:#ff0000;" x="137.909282" xlink:href="#m9ccb08faa2" y="293.024641"/>
     <use style="fill:#ff0000;stroke:#ff0000;" x="138.763636" xlink:href="#m9ccb08faa2" y="272.258945"/>
     <use style="fill:#ff0000;stroke:#ff0000;" x="139.61799" xlink:href="#m9ccb08faa2" y="272.258945"/>
     <use style="fill:#ff0000;stroke:#ff0000;" x="140.472344" xlink:href="#m9ccb08faa2" y="253.509055"/>
     <use style="fill:#ff0000;stroke:#ff0000;" x="141.326699" xlink:href="#m9ccb08faa2" y="233.339517"/>
     <use style="fill:#ff0000;stroke:#ff0000;" x="142.181053" xlink:href="#m9ccb08faa2" y="233.339517"/>
     <use style="fill:#ff0000;stroke:#ff0000;" x="143.035407" xlink:href="#m9ccb08faa2" y="251.602127"/>
     <use style="fill:#ff0000;stroke:#ff0000;" x="143.889761" xlink:href="#m9ccb08faa2" y="251.602127"/>
     <use style="fill:#ff0000;stroke:#ff0000;" x="144.744115" xlink:href="#m9ccb08faa2" y="251.602127"/>
     <use style="fill:#ff0000;stroke:#ff0000;" x="145.598469" xlink:href="#m9ccb08faa2" y="251.602127"/>
     <use style="fill:#ff0000;stroke:#ff0000;" x="146.452823" xlink:href="#m9ccb08faa2" y="232.491685"/>
     <use style="fill:#ff0000;stroke:#ff0000;" x="147.307177" xlink:href="#m9ccb08faa2" y="232.491685"/>
     <use style="fill:#ff0000;stroke:#ff0000;" x="148.161531" xlink:href="#m9ccb08faa2" y="227.000005"/>
     <use style="fill:#ff0000;stroke:#ff0000;" x="149.015885" xlink:href="#m9ccb08faa2" y="227.000005"/>
     <use style="fill:#ff0000;stroke:#ff0000;" x="149.870239" xlink:href="#m9ccb08faa2" y="227.000005"/>
     <use style="fill:#ff0000;stroke:#ff0000;" x="150.724593" xlink:href="#m9ccb08faa2" y="242.940254"/>
     <use style="fill:#ff0000;stroke:#ff0000;" x="151.578947" xlink:href="#m9ccb08faa2" y="242.940254"/>
     <use style="fill:#ff0000;stroke:#ff0000;" x="152.433301" xlink:href="#m9ccb08faa2" y="244.959137"/>
     <use style="fill:#ff0000;stroke:#ff0000;" x="153.287656" xlink:href="#m9ccb08faa2" y="244.959137"/>
     <use style="fill:#ff0000;stroke:#ff0000;" x="154.14201" xlink:href="#m9ccb08faa2" y="244.959137"/>
     <use style="fill:#ff0000;stroke:#ff0000;" x="154.996364" xlink:href="#m9ccb08faa2" y="225.090324"/>
     <use style="fill:#ff0000;stroke:#ff0000;" x="155.850718" xlink:href="#m9ccb08faa2" y="240.971921"/>
     <use style="fill:#ff0000;stroke:#ff0000;" x="156.705072" xlink:href="#m9ccb08faa2" y="240.971921"/>
     <use style="fill:#ff0000;stroke:#ff0000;" x="157.559426" xlink:href="#m9ccb08faa2" y="242.011972"/>
     <use style="fill:#ff0000;stroke:#ff0000;" x="158.41378" xlink:href="#m9ccb08faa2" y="242.011972"/>
     <use style="fill:#ff0000;stroke:#ff0000;" x="159.268134" xlink:href="#m9ccb08faa2" y="242.011972"/>
     <use style="fill:#ff0000;stroke:#ff0000;" x="160.122488" xlink:href="#m9ccb08faa2" y="244.012425"/>
     <use style="fill:#ff0000;stroke:#ff0000;" x="160.976842" xlink:href="#m9ccb08faa2" y="244.012425"/>
     <use style="fill:#ff0000;stroke:#ff0000;" x="161.831196" xlink:href="#m9ccb08faa2" y="261.282191"/>
     <use style="fill:#ff0000;stroke:#ff0000;" x="162.68555" xlink:href="#m9ccb08faa2" y="261.282191"/>
     <use style="fill:#ff0000;stroke:#ff0000;" x="163.539904" xlink:href="#m9ccb08faa2" y="261.282191"/>
     <use style="fill:#ff0000;stroke:#ff0000;" x="164.394258" xlink:href="#m9ccb08faa2" y="279.492488"/>
     <use style="fill:#ff0000;stroke:#ff0000;" x="165.248612" xlink:href="#m9ccb08faa2" y="279.492488"/>
     <use style="fill:#ff0000;stroke:#ff0000;" x="166.102967" xlink:href="#m9ccb08faa2" y="279.492488"/>
     <use style="fill:#ff0000;stroke:#ff0000;" x="166.957321" xlink:href="#m9ccb08faa2" y="260.093168"/>
     <use style="fill:#ff0000;stroke:#ff0000;" x="167.811675" xlink:href="#m9ccb08faa2" y="260.093168"/>
     <use style="fill:#ff0000;stroke:#ff0000;" x="168.666029" xlink:href="#m9ccb08faa2" y="257.980215"/>
     <use style="fill:#ff0000;stroke:#ff0000;" x="169.520383" xlink:href="#m9ccb08faa2" y="257.980215"/>
     <use style="fill:#ff0000;stroke:#ff0000;" x="170.374737" xlink:href="#m9ccb08faa2" y="257.980215"/>
     <use style="fill:#ff0000;stroke:#ff0000;" x="171.229091" xlink:href="#m9ccb08faa2" y="257.980215"/>
     <use style="fill:#ff0000;stroke:#ff0000;" x="172.083445" xlink:href="#m9ccb08faa2" y="257.980215"/>
     <use style="fill:#ff0000;stroke:#ff0000;" x="172.937799" xlink:href="#m9ccb08faa2" y="257.980215"/>
     <use style="fill:#ff0000;stroke:#ff0000;" x="173.792153" xlink:href="#m9ccb08faa2" y="257.980215"/>
     <use style="fill:#ff0000;stroke:#ff0000;" x="174.646507" xlink:href="#m9ccb08faa2" y="257.980215"/>
     <use style="fill:#ff0000;stroke:#ff0000;" x="175.500861" xlink:href="#m9ccb08faa2" y="257.980215"/>
     <use style="fill:#ff0000;stroke:#ff0000;" x="176.355215" xlink:href="#m9ccb08faa2" y="257.980215"/>
     <use style="fill:#ff0000;stroke:#ff0000;" x="177.209569" xlink:href="#m9ccb08faa2" y="239.319381"/>
     <use style="fill:#ff0000;stroke:#ff0000;" x="178.063923" xlink:href="#m9ccb08faa2" y="234.347303"/>
     <use style="fill:#ff0000;stroke:#ff0000;" x="178.918278" xlink:href="#m9ccb08faa2" y="234.347303"/>
     <use style="fill:#ff0000;stroke:#ff0000;" x="179.772632" xlink:href="#m9ccb08faa2" y="234.347303"/>
     <use style="fill:#ff0000;stroke:#ff0000;" x="180.626986" xlink:href="#m9ccb08faa2" y="216.688458"/>
     <use style="fill:#ff0000;stroke:#ff0000;" x="181.48134" xlink:href="#m9ccb08faa2" y="216.688458"/>
     <use style="fill:#ff0000;stroke:#ff0000;" x="182.335694" xlink:href="#m9ccb08faa2" y="213.07759"/>
     <use style="fill:#ff0000;stroke:#ff0000;" x="183.190048" xlink:href="#m9ccb08faa2" y="213.07759"/>
     <use style="fill:#ff0000;stroke:#ff0000;" x="184.044402" xlink:href="#m9ccb08faa2" y="213.07759"/>
     <use style="fill:#ff0000;stroke:#ff0000;" x="184.898756" xlink:href="#m9ccb08faa2" y="197.240049"/>
     <use style="fill:#ff0000;stroke:#ff0000;" x="185.75311" xlink:href="#m9ccb08faa2" y="197.240049"/>
     <use style="fill:#ff0000;stroke:#ff0000;" x="186.607464" xlink:href="#m9ccb08faa2" y="212.913995"/>
     <use style="fill:#ff0000;stroke:#ff0000;" x="187.461818" xlink:href="#m9ccb08faa2" y="212.913995"/>
     <use style="fill:#ff0000;stroke:#ff0000;" x="188.316172" xlink:href="#m9ccb08faa2" y="195.546525"/>
     <use style="fill:#ff0000;stroke:#ff0000;" x="189.170526" xlink:href="#m9ccb08faa2" y="195.546525"/>
     <use style="fill:#ff0000;stroke:#ff0000;" x="190.02488" xlink:href="#m9ccb08faa2" y="212.068623"/>
     <use style="fill:#ff0000;stroke:#ff0000;" x="190.879234" xlink:href="#m9ccb08faa2" y="212.068623"/>
     <use style="fill:#ff0000;stroke:#ff0000;" x="191.733589" xlink:href="#m9ccb08faa2" y="195.40432"/>
     <use style="fill:#ff0000;stroke:#ff0000;" x="192.587943" xlink:href="#m9ccb08faa2" y="195.40432"/>
     <use style="fill:#ff0000;stroke:#ff0000;" x="193.442297" xlink:href="#m9ccb08faa2" y="193.758342"/>
     <use style="fill:#ff0000;stroke:#ff0000;" x="194.296651" xlink:href="#m9ccb08faa2" y="193.758342"/>
     <use style="fill:#ff0000;stroke:#ff0000;" x="195.151005" xlink:href="#m9ccb08faa2" y="210.509339"/>
     <use style="fill:#ff0000;stroke:#ff0000;" x="196.005359" xlink:href="#m9ccb08faa2" y="210.509339"/>
     <use style="fill:#ff0000;stroke:#ff0000;" x="196.859713" xlink:href="#m9ccb08faa2" y="227.552589"/>
     <use style="fill:#ff0000;stroke:#ff0000;" x="197.714067" xlink:href="#m9ccb08faa2" y="227.552589"/>
     <use style="fill:#ff0000;stroke:#ff0000;" x="198.568421" xlink:href="#m9ccb08faa2" y="227.552589"/>
     <use style="fill:#ff0000;stroke:#ff0000;" x="199.422775" xlink:href="#m9ccb08faa2" y="210.687495"/>
     <use style="fill:#ff0000;stroke:#ff0000;" x="200.277129" xlink:href="#m9ccb08faa2" y="210.687495"/>
     <use style="fill:#ff0000;stroke:#ff0000;" x="201.131483" xlink:href="#m9ccb08faa2" y="210.687495"/>
     <use style="fill:#ff0000;stroke:#ff0000;" x="201.985837" xlink:href="#m9ccb08faa2" y="230.147856"/>
     <use style="fill:#ff0000;stroke:#ff0000;" x="202.840191" xlink:href="#m9ccb08faa2" y="245.252072"/>
     <use style="fill:#ff0000;stroke:#ff0000;" x="203.694545" xlink:href="#m9ccb08faa2" y="245.252072"/>
     <use style="fill:#ff0000;stroke:#ff0000;" x="204.5489" xlink:href="#m9ccb08faa2" y="245.252072"/>
     <use style="fill:#ff0000;stroke:#ff0000;" x="205.403254" xlink:href="#m9ccb08faa2" y="245.252072"/>
     <use style="fill:#ff0000;stroke:#ff0000;" x="206.257608" xlink:href="#m9ccb08faa2" y="245.03596"/>
     <use style="fill:#ff0000;stroke:#ff0000;" x="207.111962" xlink:href="#m9ccb08faa2" y="245.03596"/>
     <use style="fill:#ff0000;stroke:#ff0000;" x="207.966316" xlink:href="#m9ccb08faa2" y="226.176666"/>
     <use style="fill:#ff0000;stroke:#ff0000;" x="208.82067" xlink:href="#m9ccb08faa2" y="226.176666"/>
     <use style="fill:#ff0000;stroke:#ff0000;" x="209.675024" xlink:href="#m9ccb08faa2" y="207.97783"/>
     <use style="fill:#ff0000;stroke:#ff0000;" x="210.529378" xlink:href="#m9ccb08faa2" y="207.97783"/>
     <use style="fill:#ff0000;stroke:#ff0000;" x="211.383732" xlink:href="#m9ccb08faa2" y="187.889136"/>
     <use style="fill:#ff0000;stroke:#ff0000;" x="212.238086" xlink:href="#m9ccb08faa2" y="187.889136"/>
     <use style="fill:#ff0000;stroke:#ff0000;" x="213.09244" xlink:href="#m9ccb08faa2" y="187.889136"/>
     <use style="fill:#ff0000;stroke:#ff0000;" x="213.946794" xlink:href="#m9ccb08faa2" y="169.047577"/>
     <use style="fill:#ff0000;stroke:#ff0000;" x="214.801148" xlink:href="#m9ccb08faa2" y="169.047577"/>
     <use style="fill:#ff0000;stroke:#ff0000;" x="215.655502" xlink:href="#m9ccb08faa2" y="173.501136"/>
     <use style="fill:#ff0000;stroke:#ff0000;" x="216.509856" xlink:href="#m9ccb08faa2" y="173.501136"/>
     <use style="fill:#ff0000;stroke:#ff0000;" x="217.364211" xlink:href="#m9ccb08faa2" y="173.501136"/>
     <use style="fill:#ff0000;stroke:#ff0000;" x="218.218565" xlink:href="#m9ccb08faa2" y="191.294198"/>
     <use style="fill:#ff0000;stroke:#ff0000;" x="219.072919" xlink:href="#m9ccb08faa2" y="191.294198"/>
     <use style="fill:#ff0000;stroke:#ff0000;" x="219.927273" xlink:href="#m9ccb08faa2" y="208.012537"/>
     <use style="fill:#ff0000;stroke:#ff0000;" x="220.781627" xlink:href="#m9ccb08faa2" y="203.324028"/>
     <use style="fill:#ff0000;stroke:#ff0000;" x="221.635981" xlink:href="#m9ccb08faa2" y="203.324028"/>
     <use style="fill:#ff0000;stroke:#ff0000;" x="222.490335" xlink:href="#m9ccb08faa2" y="220.839832"/>
     <use style="fill:#ff0000;stroke:#ff0000;" x="223.344689" xlink:href="#m9ccb08faa2" y="220.839832"/>
     <use style="fill:#ff0000;stroke:#ff0000;" x="224.199043" xlink:href="#m9ccb08faa2" y="201.035074"/>
     <use style="fill:#ff0000;stroke:#ff0000;" x="225.053397" xlink:href="#m9ccb08faa2" y="201.035074"/>
     <use style="fill:#ff0000;stroke:#ff0000;" x="225.907751" xlink:href="#m9ccb08faa2" y="206.591517"/>
     <use style="fill:#ff0000;stroke:#ff0000;" x="226.762105" xlink:href="#m9ccb08faa2" y="206.591517"/>
     <use style="fill:#ff0000;stroke:#ff0000;" x="227.616459" xlink:href="#m9ccb08faa2" y="208.433838"/>
     <use style="fill:#ff0000;stroke:#ff0000;" x="228.470813" xlink:href="#m9ccb08faa2" y="208.433838"/>
     <use style="fill:#ff0000;stroke:#ff0000;" x="229.325167" xlink:href="#m9ccb08faa2" y="206.98765"/>
     <use style="fill:#ff0000;stroke:#ff0000;" x="230.179522" xlink:href="#m9ccb08faa2" y="206.98765"/>
     <use style="fill:#ff0000;stroke:#ff0000;" x="231.033876" xlink:href="#m9ccb08faa2" y="188.190485"/>
     <use style="fill:#ff0000;stroke:#ff0000;" x="231.88823" xlink:href="#m9ccb08faa2" y="203.93548"/>
     <use style="fill:#ff0000;stroke:#ff0000;" x="232.742584" xlink:href="#m9ccb08faa2" y="203.93548"/>
     <use style="fill:#ff0000;stroke:#ff0000;" x="233.596938" xlink:href="#m9ccb08faa2" y="203.93548"/>
     <use style="fill:#ff0000;stroke:#ff0000;" x="234.451292" xlink:href="#m9ccb08faa2" y="203.93548"/>
     <use style="fill:#ff0000;stroke:#ff0000;" x="235.305646" xlink:href="#m9ccb08faa2" y="203.93548"/>
     <use style="fill:#ff0000;stroke:#ff0000;" x="236.16" xlink:href="#m9ccb08faa2" y="203.93548"/>
     <use style="fill:#ff0000;stroke:#ff0000;" x="237.014354" xlink:href="#m9ccb08faa2" y="203.93548"/>
     <use style="fill:#ff0000;stroke:#ff0000;" x="237.868708" xlink:href="#m9ccb08faa2" y="203.93548"/>
     <use style="fill:#ff0000;stroke:#ff0000;" x="238.723062" xlink:href="#m9ccb08faa2" y="203.93548"/>
     <use style="fill:#ff0000;stroke:#ff0000;" x="239.577416" xlink:href="#m9ccb08faa2" y="203.93548"/>
     <use style="fill:#ff0000;stroke:#ff0000;" x="240.43177" xlink:href="#m9ccb08faa2" y="203.93548"/>
     <use style="fill:#ff0000;stroke:#ff0000;" x="241.286124" xlink:href="#m9ccb08faa2" y="203.93548"/>
     <use style="fill:#ff0000;stroke:#ff0000;" x="242.140478" xlink:href="#m9ccb08faa2" y="203.93548"/>
     <use style="fill:#ff0000;stroke:#ff0000;" x="242.994833" xlink:href="#m9ccb08faa2" y="203.93548"/>
     <use style="fill:#ff0000;stroke:#ff0000;" x="243.849187" xlink:href="#m9ccb08faa2" y="203.93548"/>
     <use style="fill:#ff0000;stroke:#ff0000;" x="244.703541" xlink:href="#m9ccb08faa2" y="203.93548"/>
     <use style="fill:#ff0000;stroke:#ff0000;" x="245.557895" xlink:href="#m9ccb08faa2" y="203.93548"/>
     <use style="fill:#ff0000;stroke:#ff0000;" x="246.412249" xlink:href="#m9ccb08faa2" y="203.93548"/>
     <use style="fill:#ff0000;stroke:#ff0000;" x="247.266603" xlink:href="#m9ccb08faa2" y="203.93548"/>
     <use style="fill:#ff0000;stroke:#ff0000;" x="248.120957" xlink:href="#m9ccb08faa2" y="203.93548"/>
     <use style="fill:#ff0000;stroke:#ff0000;" x="248.975311" xlink:href="#m9ccb08faa2" y="203.93548"/>
     <use style="fill:#ff0000;stroke:#ff0000;" x="249.829665" xlink:href="#m9ccb08faa2" y="203.93548"/>
     <use style="fill:#ff0000;stroke:#ff0000;" x="250.684019" xlink:href="#m9ccb08faa2" y="203.93548"/>
     <use style="fill:#ff0000;stroke:#ff0000;" x="251.538373" xlink:href="#m9ccb08faa2" y="203.93548"/>
     <use style="fill:#ff0000;stroke:#ff0000;" x="252.392727" xlink:href="#m9ccb08faa2" y="203.93548"/>
     <use style="fill:#ff0000;stroke:#ff0000;" x="253.247081" xlink:href="#m9ccb08faa2" y="203.93548"/>
     <use style="fill:#ff0000;stroke:#ff0000;" x="254.101435" xlink:href="#m9ccb08faa2" y="203.93548"/>
     <use style="fill:#ff0000;stroke:#ff0000;" x="254.955789" xlink:href="#m9ccb08faa2" y="203.93548"/>
     <use style="fill:#ff0000;stroke:#ff0000;" x="255.810144" xlink:href="#m9ccb08faa2" y="203.93548"/>
     <use style="fill:#ff0000;stroke:#ff0000;" x="256.664498" xlink:href="#m9ccb08faa2" y="203.93548"/>
     <use style="fill:#ff0000;stroke:#ff0000;" x="257.518852" xlink:href="#m9ccb08faa2" y="203.93548"/>
     <use style="fill:#ff0000;stroke:#ff0000;" x="258.373206" xlink:href="#m9ccb08faa2" y="203.93548"/>
     <use style="fill:#ff0000;stroke:#ff0000;" x="259.22756" xlink:href="#m9ccb08faa2" y="203.93548"/>
     <use style="fill:#ff0000;stroke:#ff0000;" x="260.081914" xlink:href="#m9ccb08faa2" y="203.93548"/>
     <use style="fill:#ff0000;stroke:#ff0000;" x="260.936268" xlink:href="#m9ccb08faa2" y="203.93548"/>
     <use style="fill:#ff0000;stroke:#ff0000;" x="261.790622" xlink:href="#m9ccb08faa2" y="203.93548"/>
     <use style="fill:#ff0000;stroke:#ff0000;" x="262.644976" xlink:href="#m9ccb08faa2" y="203.93548"/>
     <use style="fill:#ff0000;stroke:#ff0000;" x="263.49933" xlink:href="#m9ccb08faa2" y="203.93548"/>
     <use style="fill:#ff0000;stroke:#ff0000;" x="264.353684" xlink:href="#m9ccb08faa2" y="203.93548"/>
     <use style="fill:#ff0000;stroke:#ff0000;" x="265.208038" xlink:href="#m9ccb08faa2" y="203.93548"/>
     <use style="fill:#ff0000;stroke:#ff0000;" x="266.062392" xlink:href="#m9ccb08faa2" y="203.93548"/>
     <use style="fill:#ff0000;stroke:#ff0000;" x="266.916746" xlink:href="#m9ccb08faa2" y="203.93548"/>
     <use style="fill:#ff0000;stroke:#ff0000;" x="267.7711" xlink:href="#m9ccb08faa2" y="203.93548"/>
     <use style="fill:#ff0000;stroke:#ff0000;" x="268.625455" xlink:href="#m9ccb08faa2" y="203.93548"/>
     <use style="fill:#ff0000;stroke:#ff0000;" x="269.479809" xlink:href="#m9ccb08faa2" y="203.93548"/>
     <use style="fill:#ff0000;stroke:#ff0000;" x="270.334163" xlink:href="#m9ccb08faa2" y="203.93548"/>
     <use style="fill:#ff0000;stroke:#ff0000;" x="271.188517" xlink:href="#m9ccb08faa2" y="203.93548"/>
     <use style="fill:#ff0000;stroke:#ff0000;" x="272.042871" xlink:href="#m9ccb08faa2" y="203.93548"/>
     <use style="fill:#ff0000;stroke:#ff0000;" x="272.897225" xlink:href="#m9ccb08faa2" y="203.93548"/>
     <use style="fill:#ff0000;stroke:#ff0000;" x="273.751579" xlink:href="#m9ccb08faa2" y="203.93548"/>
     <use style="fill:#ff0000;stroke:#ff0000;" x="274.605933" xlink:href="#m9ccb08faa2" y="203.93548"/>
     <use style="fill:#ff0000;stroke:#ff0000;" x="275.460287" xlink:href="#m9ccb08faa2" y="203.93548"/>
     <use style="fill:#ff0000;stroke:#ff0000;" x="276.314641" xlink:href="#m9ccb08faa2" y="203.93548"/>
     <use style="fill:#ff0000;stroke:#ff0000;" x="277.168995" xlink:href="#m9ccb08faa2" y="203.93548"/>
     <use style="fill:#ff0000;stroke:#ff0000;" x="278.023349" xlink:href="#m9ccb08faa2" y="203.93548"/>
     <use style="fill:#ff0000;stroke:#ff0000;" x="278.877703" xlink:href="#m9ccb08faa2" y="203.93548"/>
     <use style="fill:#ff0000;stroke:#ff0000;" x="279.732057" xlink:href="#m9ccb08faa2" y="203.93548"/>
     <use style="fill:#ff0000;stroke:#ff0000;" x="280.586411" xlink:href="#m9ccb08faa2" y="203.93548"/>
     <use style="fill:#ff0000;stroke:#ff0000;" x="281.440766" xlink:href="#m9ccb08faa2" y="203.93548"/>
     <use style="fill:#ff0000;stroke:#ff0000;" x="282.29512" xlink:href="#m9ccb08faa2" y="203.93548"/>
     <use style="fill:#ff0000;stroke:#ff0000;" x="283.149474" xlink:href="#m9ccb08faa2" y="203.93548"/>
     <use style="fill:#ff0000;stroke:#ff0000;" x="284.003828" xlink:href="#m9ccb08faa2" y="203.93548"/>
     <use style="fill:#ff0000;stroke:#ff0000;" x="284.858182" xlink:href="#m9ccb08faa2" y="203.93548"/>
     <use style="fill:#ff0000;stroke:#ff0000;" x="285.712536" xlink:href="#m9ccb08faa2" y="203.93548"/>
     <use style="fill:#ff0000;stroke:#ff0000;" x="286.56689" xlink:href="#m9ccb08faa2" y="203.93548"/>
     <use style="fill:#ff0000;stroke:#ff0000;" x="287.421244" xlink:href="#m9ccb08faa2" y="203.93548"/>
     <use style="fill:#ff0000;stroke:#ff0000;" x="288.275598" xlink:href="#m9ccb08faa2" y="203.93548"/>
     <use style="fill:#ff0000;stroke:#ff0000;" x="289.129952" xlink:href="#m9ccb08faa2" y="203.93548"/>
     <use style="fill:#ff0000;stroke:#ff0000;" x="289.984306" xlink:href="#m9ccb08faa2" y="203.93548"/>
     <use style="fill:#ff0000;stroke:#ff0000;" x="290.83866" xlink:href="#m9ccb08faa2" y="203.93548"/>
     <use style="fill:#ff0000;stroke:#ff0000;" x="291.693014" xlink:href="#m9ccb08faa2" y="203.93548"/>
     <use style="fill:#ff0000;stroke:#ff0000;" x="292.547368" xlink:href="#m9ccb08faa2" y="203.93548"/>
     <use style="fill:#ff0000;stroke:#ff0000;" x="293.401722" xlink:href="#m9ccb08faa2" y="203.93548"/>
     <use style="fill:#ff0000;stroke:#ff0000;" x="294.256077" xlink:href="#m9ccb08faa2" y="203.93548"/>
     <use style="fill:#ff0000;stroke:#ff0000;" x="295.110431" xlink:href="#m9ccb08faa2" y="203.93548"/>
     <use style="fill:#ff0000;stroke:#ff0000;" x="295.964785" xlink:href="#m9ccb08faa2" y="203.93548"/>
     <use style="fill:#ff0000;stroke:#ff0000;" x="296.819139" xlink:href="#m9ccb08faa2" y="203.93548"/>
     <use style="fill:#ff0000;stroke:#ff0000;" x="297.673493" xlink:href="#m9ccb08faa2" y="203.93548"/>
     <use style="fill:#ff0000;stroke:#ff0000;" x="298.527847" xlink:href="#m9ccb08faa2" y="203.93548"/>
     <use style="fill:#ff0000;stroke:#ff0000;" x="299.382201" xlink:href="#m9ccb08faa2" y="203.93548"/>
     <use style="fill:#ff0000;stroke:#ff0000;" x="300.236555" xlink:href="#m9ccb08faa2" y="203.93548"/>
     <use style="fill:#ff0000;stroke:#ff0000;" x="301.090909" xlink:href="#m9ccb08faa2" y="203.93548"/>
     <use style="fill:#ff0000;stroke:#ff0000;" x="301.945263" xlink:href="#m9ccb08faa2" y="203.93548"/>
     <use style="fill:#ff0000;stroke:#ff0000;" x="302.799617" xlink:href="#m9ccb08faa2" y="203.93548"/>
     <use style="fill:#ff0000;stroke:#ff0000;" x="303.653971" xlink:href="#m9ccb08faa2" y="203.93548"/>
     <use style="fill:#ff0000;stroke:#ff0000;" x="304.508325" xlink:href="#m9ccb08faa2" y="203.93548"/>
     <use style="fill:#ff0000;stroke:#ff0000;" x="305.362679" xlink:href="#m9ccb08faa2" y="203.93548"/>
     <use style="fill:#ff0000;stroke:#ff0000;" x="306.217033" xlink:href="#m9ccb08faa2" y="203.93548"/>
     <use style="fill:#ff0000;stroke:#ff0000;" x="307.071388" xlink:href="#m9ccb08faa2" y="203.93548"/>
     <use style="fill:#ff0000;stroke:#ff0000;" x="307.925742" xlink:href="#m9ccb08faa2" y="203.93548"/>
     <use style="fill:#ff0000;stroke:#ff0000;" x="308.780096" xlink:href="#m9ccb08faa2" y="203.93548"/>
     <use style="fill:#ff0000;stroke:#ff0000;" x="309.63445" xlink:href="#m9ccb08faa2" y="203.93548"/>
     <use style="fill:#ff0000;stroke:#ff0000;" x="310.488804" xlink:href="#m9ccb08faa2" y="203.93548"/>
     <use style="fill:#ff0000;stroke:#ff0000;" x="311.343158" xlink:href="#m9ccb08faa2" y="203.93548"/>
     <use style="fill:#ff0000;stroke:#ff0000;" x="312.197512" xlink:href="#m9ccb08faa2" y="203.93548"/>
     <use style="fill:#ff0000;stroke:#ff0000;" x="313.051866" xlink:href="#m9ccb08faa2" y="203.93548"/>
     <use style="fill:#ff0000;stroke:#ff0000;" x="313.90622" xlink:href="#m9ccb08faa2" y="203.93548"/>
     <use style="fill:#ff0000;stroke:#ff0000;" x="314.760574" xlink:href="#m9ccb08faa2" y="203.93548"/>
     <use style="fill:#ff0000;stroke:#ff0000;" x="315.614928" xlink:href="#m9ccb08faa2" y="203.93548"/>
     <use style="fill:#ff0000;stroke:#ff0000;" x="316.469282" xlink:href="#m9ccb08faa2" y="203.93548"/>
     <use style="fill:#ff0000;stroke:#ff0000;" x="317.323636" xlink:href="#m9ccb08faa2" y="203.93548"/>
     <use style="fill:#ff0000;stroke:#ff0000;" x="318.17799" xlink:href="#m9ccb08faa2" y="203.93548"/>
     <use style="fill:#ff0000;stroke:#ff0000;" x="319.032344" xlink:href="#m9ccb08faa2" y="203.93548"/>
     <use style="fill:#ff0000;stroke:#ff0000;" x="319.886699" xlink:href="#m9ccb08faa2" y="203.93548"/>
     <use style="fill:#ff0000;stroke:#ff0000;" x="320.741053" xlink:href="#m9ccb08faa2" y="203.93548"/>
     <use style="fill:#ff0000;stroke:#ff0000;" x="321.595407" xlink:href="#m9ccb08faa2" y="203.93548"/>
     <use style="fill:#ff0000;stroke:#ff0000;" x="322.449761" xlink:href="#m9ccb08faa2" y="203.93548"/>
     <use style="fill:#ff0000;stroke:#ff0000;" x="323.304115" xlink:href="#m9ccb08faa2" y="203.93548"/>
     <use style="fill:#ff0000;stroke:#ff0000;" x="324.158469" xlink:href="#m9ccb08faa2" y="203.93548"/>
     <use style="fill:#ff0000;stroke:#ff0000;" x="325.012823" xlink:href="#m9ccb08faa2" y="203.93548"/>
     <use style="fill:#ff0000;stroke:#ff0000;" x="325.867177" xlink:href="#m9ccb08faa2" y="203.93548"/>
     <use style="fill:#ff0000;stroke:#ff0000;" x="326.721531" xlink:href="#m9ccb08faa2" y="203.93548"/>
     <use style="fill:#ff0000;stroke:#ff0000;" x="327.575885" xlink:href="#m9ccb08faa2" y="203.93548"/>
     <use style="fill:#ff0000;stroke:#ff0000;" x="328.430239" xlink:href="#m9ccb08faa2" y="203.93548"/>
     <use style="fill:#ff0000;stroke:#ff0000;" x="329.284593" xlink:href="#m9ccb08faa2" y="203.93548"/>
     <use style="fill:#ff0000;stroke:#ff0000;" x="330.138947" xlink:href="#m9ccb08faa2" y="203.93548"/>
     <use style="fill:#ff0000;stroke:#ff0000;" x="330.993301" xlink:href="#m9ccb08faa2" y="203.93548"/>
     <use style="fill:#ff0000;stroke:#ff0000;" x="331.847656" xlink:href="#m9ccb08faa2" y="203.93548"/>
     <use style="fill:#ff0000;stroke:#ff0000;" x="332.70201" xlink:href="#m9ccb08faa2" y="203.93548"/>
     <use style="fill:#ff0000;stroke:#ff0000;" x="333.556364" xlink:href="#m9ccb08faa2" y="203.93548"/>
     <use style="fill:#ff0000;stroke:#ff0000;" x="334.410718" xlink:href="#m9ccb08faa2" y="203.93548"/>
     <use style="fill:#ff0000;stroke:#ff0000;" x="335.265072" xlink:href="#m9ccb08faa2" y="203.93548"/>
     <use style="fill:#ff0000;stroke:#ff0000;" x="336.119426" xlink:href="#m9ccb08faa2" y="203.93548"/>
     <use style="fill:#ff0000;stroke:#ff0000;" x="336.97378" xlink:href="#m9ccb08faa2" y="203.93548"/>
     <use style="fill:#ff0000;stroke:#ff0000;" x="337.828134" xlink:href="#m9ccb08faa2" y="203.93548"/>
     <use style="fill:#ff0000;stroke:#ff0000;" x="338.682488" xlink:href="#m9ccb08faa2" y="203.93548"/>
     <use style="fill:#ff0000;stroke:#ff0000;" x="339.536842" xlink:href="#m9ccb08faa2" y="203.93548"/>
     <use style="fill:#ff0000;stroke:#ff0000;" x="340.391196" xlink:href="#m9ccb08faa2" y="203.93548"/>
     <use style="fill:#ff0000;stroke:#ff0000;" x="341.24555" xlink:href="#m9ccb08faa2" y="203.93548"/>
     <use style="fill:#ff0000;stroke:#ff0000;" x="342.099904" xlink:href="#m9ccb08faa2" y="203.93548"/>
     <use style="fill:#ff0000;stroke:#ff0000;" x="342.954258" xlink:href="#m9ccb08faa2" y="203.93548"/>
     <use style="fill:#ff0000;stroke:#ff0000;" x="343.808612" xlink:href="#m9ccb08faa2" y="203.93548"/>
     <use style="fill:#ff0000;stroke:#ff0000;" x="344.662967" xlink:href="#m9ccb08faa2" y="203.93548"/>
     <use style="fill:#ff0000;stroke:#ff0000;" x="345.517321" xlink:href="#m9ccb08faa2" y="203.93548"/>
     <use style="fill:#ff0000;stroke:#ff0000;" x="346.371675" xlink:href="#m9ccb08faa2" y="203.93548"/>
     <use style="fill:#ff0000;stroke:#ff0000;" x="347.226029" xlink:href="#m9ccb08faa2" y="203.93548"/>
     <use style="fill:#ff0000;stroke:#ff0000;" x="348.080383" xlink:href="#m9ccb08faa2" y="203.93548"/>
     <use style="fill:#ff0000;stroke:#ff0000;" x="348.934737" xlink:href="#m9ccb08faa2" y="203.93548"/>
     <use style="fill:#ff0000;stroke:#ff0000;" x="349.789091" xlink:href="#m9ccb08faa2" y="203.93548"/>
     <use style="fill:#ff0000;stroke:#ff0000;" x="350.643445" xlink:href="#m9ccb08faa2" y="203.93548"/>
     <use style="fill:#ff0000;stroke:#ff0000;" x="351.497799" xlink:href="#m9ccb08faa2" y="203.93548"/>
     <use style="fill:#ff0000;stroke:#ff0000;" x="352.352153" xlink:href="#m9ccb08faa2" y="203.93548"/>
     <use style="fill:#ff0000;stroke:#ff0000;" x="353.206507" xlink:href="#m9ccb08faa2" y="203.93548"/>
     <use style="fill:#ff0000;stroke:#ff0000;" x="354.060861" xlink:href="#m9ccb08faa2" y="203.93548"/>
     <use style="fill:#ff0000;stroke:#ff0000;" x="354.915215" xlink:href="#m9ccb08faa2" y="203.93548"/>
     <use style="fill:#ff0000;stroke:#ff0000;" x="355.769569" xlink:href="#m9ccb08faa2" y="203.93548"/>
     <use style="fill:#ff0000;stroke:#ff0000;" x="356.623923" xlink:href="#m9ccb08faa2" y="203.93548"/>
     <use style="fill:#ff0000;stroke:#ff0000;" x="357.478278" xlink:href="#m9ccb08faa2" y="203.93548"/>
     <use style="fill:#ff0000;stroke:#ff0000;" x="358.332632" xlink:href="#m9ccb08faa2" y="203.93548"/>
     <use style="fill:#ff0000;stroke:#ff0000;" x="359.186986" xlink:href="#m9ccb08faa2" y="203.93548"/>
     <use style="fill:#ff0000;stroke:#ff0000;" x="360.04134" xlink:href="#m9ccb08faa2" y="203.93548"/>
     <use style="fill:#ff0000;stroke:#ff0000;" x="360.895694" xlink:href="#m9ccb08faa2" y="203.93548"/>
     <use style="fill:#ff0000;stroke:#ff0000;" x="361.750048" xlink:href="#m9ccb08faa2" y="203.93548"/>
     <use style="fill:#ff0000;stroke:#ff0000;" x="362.604402" xlink:href="#m9ccb08faa2" y="203.93548"/>
     <use style="fill:#ff0000;stroke:#ff0000;" x="363.458756" xlink:href="#m9ccb08faa2" y="203.93548"/>
     <use style="fill:#ff0000;stroke:#ff0000;" x="364.31311" xlink:href="#m9ccb08faa2" y="203.93548"/>
     <use style="fill:#ff0000;stroke:#ff0000;" x="365.167464" xlink:href="#m9ccb08faa2" y="203.93548"/>
     <use style="fill:#ff0000;stroke:#ff0000;" x="366.021818" xlink:href="#m9ccb08faa2" y="203.93548"/>
     <use style="fill:#ff0000;stroke:#ff0000;" x="366.876172" xlink:href="#m9ccb08faa2" y="203.93548"/>
     <use style="fill:#ff0000;stroke:#ff0000;" x="367.730526" xlink:href="#m9ccb08faa2" y="203.93548"/>
     <use style="fill:#ff0000;stroke:#ff0000;" x="368.58488" xlink:href="#m9ccb08faa2" y="203.93548"/>
     <use style="fill:#ff0000;stroke:#ff0000;" x="369.439234" xlink:href="#m9ccb08faa2" y="203.93548"/>
     <use style="fill:#ff0000;stroke:#ff0000;" x="370.293589" xlink:href="#m9ccb08faa2" y="203.93548"/>
     <use style="fill:#ff0000;stroke:#ff0000;" x="371.147943" xlink:href="#m9ccb08faa2" y="203.93548"/>
     <use style="fill:#ff0000;stroke:#ff0000;" x="372.002297" xlink:href="#m9ccb08faa2" y="203.93548"/>
     <use style="fill:#ff0000;stroke:#ff0000;" x="372.856651" xlink:href="#m9ccb08faa2" y="203.93548"/>
     <use style="fill:#ff0000;stroke:#ff0000;" x="373.711005" xlink:href="#m9ccb08faa2" y="203.93548"/>
     <use style="fill:#ff0000;stroke:#ff0000;" x="374.565359" xlink:href="#m9ccb08faa2" y="203.93548"/>
     <use style="fill:#ff0000;stroke:#ff0000;" x="375.419713" xlink:href="#m9ccb08faa2" y="203.93548"/>
     <use style="fill:#ff0000;stroke:#ff0000;" x="376.274067" xlink:href="#m9ccb08faa2" y="203.93548"/>
     <use style="fill:#ff0000;stroke:#ff0000;" x="377.128421" xlink:href="#m9ccb08faa2" y="203.93548"/>
     <use style="fill:#ff0000;stroke:#ff0000;" x="377.982775" xlink:href="#m9ccb08faa2" y="203.93548"/>
     <use style="fill:#ff0000;stroke:#ff0000;" x="378.837129" xlink:href="#m9ccb08faa2" y="203.93548"/>
     <use style="fill:#ff0000;stroke:#ff0000;" x="379.691483" xlink:href="#m9ccb08faa2" y="203.93548"/>
     <use style="fill:#ff0000;stroke:#ff0000;" x="380.545837" xlink:href="#m9ccb08faa2" y="203.93548"/>
     <use style="fill:#ff0000;stroke:#ff0000;" x="381.400191" xlink:href="#m9ccb08faa2" y="203.93548"/>
     <use style="fill:#ff0000;stroke:#ff0000;" x="382.254545" xlink:href="#m9ccb08faa2" y="203.93548"/>
     <use style="fill:#ff0000;stroke:#ff0000;" x="383.1089" xlink:href="#m9ccb08faa2" y="203.93548"/>
     <use style="fill:#ff0000;stroke:#ff0000;" x="383.963254" xlink:href="#m9ccb08faa2" y="203.93548"/>
     <use style="fill:#ff0000;stroke:#ff0000;" x="384.817608" xlink:href="#m9ccb08faa2" y="203.93548"/>
     <use style="fill:#ff0000;stroke:#ff0000;" x="385.671962" xlink:href="#m9ccb08faa2" y="203.93548"/>
     <use style="fill:#ff0000;stroke:#ff0000;" x="386.526316" xlink:href="#m9ccb08faa2" y="203.93548"/>
     <use style="fill:#ff0000;stroke:#ff0000;" x="387.38067" xlink:href="#m9ccb08faa2" y="203.93548"/>
     <use style="fill:#ff0000;stroke:#ff0000;" x="388.235024" xlink:href="#m9ccb08faa2" y="203.93548"/>
     <use style="fill:#ff0000;stroke:#ff0000;" x="389.089378" xlink:href="#m9ccb08faa2" y="203.93548"/>
     <use style="fill:#ff0000;stroke:#ff0000;" x="389.943732" xlink:href="#m9ccb08faa2" y="203.93548"/>
     <use style="fill:#ff0000;stroke:#ff0000;" x="390.798086" xlink:href="#m9ccb08faa2" y="203.93548"/>
     <use style="fill:#ff0000;stroke:#ff0000;" x="391.65244" xlink:href="#m9ccb08faa2" y="203.93548"/>
     <use style="fill:#ff0000;stroke:#ff0000;" x="392.506794" xlink:href="#m9ccb08faa2" y="203.93548"/>
     <use style="fill:#ff0000;stroke:#ff0000;" x="393.361148" xlink:href="#m9ccb08faa2" y="203.93548"/>
     <use style="fill:#ff0000;stroke:#ff0000;" x="394.215502" xlink:href="#m9ccb08faa2" y="203.93548"/>
     <use style="fill:#ff0000;stroke:#ff0000;" x="395.069856" xlink:href="#m9ccb08faa2" y="203.93548"/>
     <use style="fill:#ff0000;stroke:#ff0000;" x="395.924211" xlink:href="#m9ccb08faa2" y="203.93548"/>
     <use style="fill:#ff0000;stroke:#ff0000;" x="396.778565" xlink:href="#m9ccb08faa2" y="203.93548"/>
     <use style="fill:#ff0000;stroke:#ff0000;" x="397.632919" xlink:href="#m9ccb08faa2" y="203.93548"/>
     <use style="fill:#ff0000;stroke:#ff0000;" x="398.487273" xlink:href="#m9ccb08faa2" y="203.93548"/>
    </g>
   </g>
   <g id="patch_3">
    <path d="M 57.6 307.584 
L 57.6 41.472 
" style="fill:none;stroke:#000000;stroke-linecap:square;stroke-linejoin:miter;stroke-width:0.8;"/>
   </g>
   <g id="patch_4">
    <path d="M 414.72 307.584 
L 414.72 41.472 
" style="fill:none;stroke:#000000;stroke-linecap:square;stroke-linejoin:miter;stroke-width:0.8;"/>
   </g>
   <g id="patch_5">
    <path d="M 57.6 307.584 
L 414.72 307.584 
" style="fill:none;stroke:#000000;stroke-linecap:square;stroke-linejoin:miter;stroke-width:0.8;"/>
   </g>
   <g id="patch_6">
    <path d="M 57.6 41.472 
L 414.72 41.472 
" style="fill:none;stroke:#000000;stroke-linecap:square;stroke-linejoin:miter;stroke-width:0.8;"/>
   </g>
  </g>
 </g>
 <defs>
  <clipPath id="pe334063eda">
   <rect height="266.112" width="357.12" x="57.6" y="41.472"/>
  </clipPath>
 </defs>
</svg>
