<?xml version="1.0" encoding="utf-8" standalone="no"?>
<!DOCTYPE svg PUBLIC "-//W3C//DTD SVG 1.1//EN"
  "http://www.w3.org/Graphics/SVG/1.1/DTD/svg11.dtd">
<!-- Created with matplotlib (https://matplotlib.org/) -->
<svg height="345.6pt" version="1.1" viewBox="0 0 460.8 345.6" width="460.8pt" xmlns="http://www.w3.org/2000/svg" xmlns:xlink="http://www.w3.org/1999/xlink">
 <defs>
  <style type="text/css">
*{stroke-linecap:butt;stroke-linejoin:round;}
  </style>
 </defs>
 <g id="figure_1">
  <g id="patch_1">
   <path d="M 0 345.6 
L 460.8 345.6 
L 460.8 0 
L 0 0 
z
" style="fill:#ffffff;"/>
  </g>
  <g id="axes_1">
   <g id="patch_2">
    <path d="M 57.6 307.584 
L 414.72 307.584 
L 414.72 41.472 
L 57.6 41.472 
z
" style="fill:#ffffff;"/>
   </g>
   <g id="line2d_1">
    <path clip-path="url(#p7942fced4f)" d="M 73.832727 110.238092 
L 75.356927 99.654545 
L 76.881127 99.654545 
L 78.405327 90.441478 
L 79.929526 102.375795 
L 84.502125 102.375795 
L 86.026325 114.271115 
L 87.550525 114.271115 
L 89.074725 103.743726 
L 95.171524 103.743726 
L 96.695723 161.146057 
L 98.219923 161.146057 
L 99.744123 105.795642 
L 101.268323 156.846739 
L 102.792522 156.846739 
L 104.316722 102.267108 
L 105.840922 102.267108 
L 107.365122 53.568 
L 108.889321 53.568 
L 110.413521 72.476322 
L 111.937721 76.027196 
L 114.98612 76.027196 
L 118.03452 111.811843 
L 119.55872 111.811843 
L 121.082919 129.392559 
L 127.179718 129.392559 
L 128.703918 147.167822 
L 130.228118 147.167822 
L 131.752318 165.328093 
L 133.276517 165.328093 
L 134.800717 168.619076 
L 136.324917 168.619076 
L 137.849117 150.86459 
L 139.373316 150.86459 
L 140.897516 152.533762 
L 142.421716 152.533762 
L 143.945915 133.524966 
L 146.994315 133.524966 
L 148.518515 151.136956 
L 150.042714 151.136956 
L 151.566914 166.952108 
L 153.091114 164.478758 
L 156.139513 164.478758 
L 157.663713 182.285283 
L 159.187913 182.285283 
L 160.712113 198.560735 
L 162.236312 198.560735 
L 163.760512 213.733612 
L 165.284712 230.269804 
L 168.333111 230.269804 
L 171.381511 264.216085 
L 174.42991 264.216085 
L 175.95411 280.116896 
L 177.47831 280.116896 
L 179.00251 295.488 
L 180.526709 276.07965 
L 182.050909 276.07965 
L 183.575109 277.241087 
L 185.099309 277.241087 
L 186.623508 293.024641 
L 188.147708 293.024641 
L 189.671908 272.258945 
L 191.196108 272.258945 
L 192.720307 253.509055 
L 194.244507 233.339517 
L 195.768707 233.339517 
L 197.292907 251.602127 
L 201.865506 251.602127 
L 203.389706 232.491685 
L 204.913905 232.491685 
L 206.438105 227.000005 
L 209.486504 227.000005 
L 211.010704 242.940254 
L 212.534904 242.940254 
L 214.059104 244.959137 
L 217.107503 244.959137 
L 218.631703 225.090324 
L 220.155903 240.971921 
L 221.680102 240.971921 
L 223.204302 242.011972 
L 226.252702 242.011972 
L 227.776901 244.012425 
L 229.301101 244.012425 
L 230.825301 261.282191 
L 233.8737 261.282191 
L 235.3979 279.492488 
L 238.4463 279.492488 
L 239.970499 260.093168 
L 241.494699 260.093168 
L 243.018899 257.980215 
L 256.736697 257.980215 
L 258.260896 239.319381 
L 259.785096 234.347303 
L 262.833496 234.347303 
L 264.357695 216.688458 
L 265.881895 216.688458 
L 267.406095 213.07759 
L 270.454494 213.07759 
L 271.978694 197.240049 
L 273.502894 197.240049 
L 275.027093 212.913995 
L 276.551293 212.913995 
L 278.075493 195.546525 
L 279.599693 195.546525 
L 281.123892 212.068623 
L 282.648092 212.068623 
L 284.172292 195.40432 
L 285.696492 195.40432 
L 287.220691 193.758342 
L 288.744891 193.758342 
L 290.269091 210.509339 
L 291.793291 210.509339 
L 293.31749 227.552589 
L 296.36589 227.552589 
L 297.89009 210.687495 
L 300.938489 210.687495 
L 302.462689 230.147856 
L 303.986889 245.252072 
L 308.559488 245.252072 
L 310.083688 245.03596 
L 311.607887 245.03596 
L 313.132087 226.176666 
L 314.656287 226.176666 
L 316.180487 207.97783 
L 317.704686 207.97783 
L 319.228886 187.889136 
L 322.277286 187.889136 
L 323.801485 169.047577 
L 325.325685 169.047577 
L 326.849885 173.501136 
L 329.898284 173.501136 
L 331.422484 191.294198 
L 332.946684 191.294198 
L 334.470883 208.012537 
L 335.995083 203.324028 
L 337.519283 203.324028 
L 339.043483 220.839832 
L 340.567682 220.839832 
L 342.091882 201.035074 
L 343.616082 201.035074 
L 345.140282 206.591517 
L 346.664481 206.591517 
L 348.188681 208.433838 
L 349.712881 208.433838 
L 351.237081 206.98765 
L 352.76128 206.98765 
L 354.28548 188.190485 
L 355.80968 203.93548 
L 398.487273 203.93548 
L 398.487273 203.93548 
" style="fill:none;stroke:#ff0000;stroke-linecap:square;stroke-width:12;"/>
    <defs>
     <path d="M 0 3 
C 0.795609 3 1.55874 2.683901 2.12132 2.12132 
C 2.683901 1.55874 3 0.795609 3 0 
C 3 -0.795609 2.683901 -1.55874 2.12132 -2.12132 
C 1.55874 -2.683901 0.795609 -3 0 -3 
C -0.795609 -3 -1.55874 -2.683901 -2.12132 -2.12132 
C -2.683901 -1.55874 -3 -0.795609 -3 0 
C -3 0.795609 -2.683901 1.55874 -2.12132 2.12132 
C -1.55874 2.683901 -0.795609 3 0 3 
z
" id="m12e856694a" style="stroke:#ff0000;"/>
    </defs>
    <g clip-path="url(#p7942fced4f)">
     <use style="fill:#ff0000;stroke:#ff0000;" x="73.832727" xlink:href="#m12e856694a" y="110.238092"/>
     <use style="fill:#ff0000;stroke:#ff0000;" x="75.356927" xlink:href="#m12e856694a" y="99.654545"/>
     <use style="fill:#ff0000;stroke:#ff0000;" x="76.881127" xlink:href="#m12e856694a" y="99.654545"/>
     <use style="fill:#ff0000;stroke:#ff0000;" x="78.405327" xlink:href="#m12e856694a" y="90.441478"/>
     <use style="fill:#ff0000;stroke:#ff0000;" x="79.929526" xlink:href="#m12e856694a" y="102.375795"/>
     <use style="fill:#ff0000;stroke:#ff0000;" x="81.453726" xlink:href="#m12e856694a" y="102.375795"/>
     <use style="fill:#ff0000;stroke:#ff0000;" x="82.977926" xlink:href="#m12e856694a" y="102.375795"/>
     <use style="fill:#ff0000;stroke:#ff0000;" x="84.502125" xlink:href="#m12e856694a" y="102.375795"/>
     <use style="fill:#ff0000;stroke:#ff0000;" x="86.026325" xlink:href="#m12e856694a" y="114.271115"/>
     <use style="fill:#ff0000;stroke:#ff0000;" x="87.550525" xlink:href="#m12e856694a" y="114.271115"/>
     <use style="fill:#ff0000;stroke:#ff0000;" x="89.074725" xlink:href="#m12e856694a" y="103.743726"/>
     <use style="fill:#ff0000;stroke:#ff0000;" x="90.598924" xlink:href="#m12e856694a" y="103.743726"/>
     <use style="fill:#ff0000;stroke:#ff0000;" x="92.123124" xlink:href="#m12e856694a" y="103.743726"/>
     <use style="fill:#ff0000;stroke:#ff0000;" x="93.647324" xlink:href="#m12e856694a" y="103.743726"/>
     <use style="fill:#ff0000;stroke:#ff0000;" x="95.171524" xlink:href="#m12e856694a" y="103.743726"/>
     <use style="fill:#ff0000;stroke:#ff0000;" x="96.695723" xlink:href="#m12e856694a" y="161.146057"/>
     <use style="fill:#ff0000;stroke:#ff0000;" x="98.219923" xlink:href="#m12e856694a" y="161.146057"/>
     <use style="fill:#ff0000;stroke:#ff0000;" x="99.744123" xlink:href="#m12e856694a" y="105.795642"/>
     <use style="fill:#ff0000;stroke:#ff0000;" x="101.268323" xlink:href="#m12e856694a" y="156.846739"/>
     <use style="fill:#ff0000;stroke:#ff0000;" x="102.792522" xlink:href="#m12e856694a" y="156.846739"/>
     <use style="fill:#ff0000;stroke:#ff0000;" x="104.316722" xlink:href="#m12e856694a" y="102.267108"/>
     <use style="fill:#ff0000;stroke:#ff0000;" x="105.840922" xlink:href="#m12e856694a" y="102.267108"/>
     <use style="fill:#ff0000;stroke:#ff0000;" x="107.365122" xlink:href="#m12e856694a" y="53.568"/>
     <use style="fill:#ff0000;stroke:#ff0000;" x="108.889321" xlink:href="#m12e856694a" y="53.568"/>
     <use style="fill:#ff0000;stroke:#ff0000;" x="110.413521" xlink:href="#m12e856694a" y="72.476322"/>
     <use style="fill:#ff0000;stroke:#ff0000;" x="111.937721" xlink:href="#m12e856694a" y="76.027196"/>
     <use style="fill:#ff0000;stroke:#ff0000;" x="113.461921" xlink:href="#m12e856694a" y="76.027196"/>
     <use style="fill:#ff0000;stroke:#ff0000;" x="114.98612" xlink:href="#m12e856694a" y="76.027196"/>
     <use style="fill:#ff0000;stroke:#ff0000;" x="116.51032" xlink:href="#m12e856694a" y="94.259208"/>
     <use style="fill:#ff0000;stroke:#ff0000;" x="118.03452" xlink:href="#m12e856694a" y="111.811843"/>
     <use style="fill:#ff0000;stroke:#ff0000;" x="119.55872" xlink:href="#m12e856694a" y="111.811843"/>
     <use style="fill:#ff0000;stroke:#ff0000;" x="121.082919" xlink:href="#m12e856694a" y="129.392559"/>
     <use style="fill:#ff0000;stroke:#ff0000;" x="122.607119" xlink:href="#m12e856694a" y="129.392559"/>
     <use style="fill:#ff0000;stroke:#ff0000;" x="124.131319" xlink:href="#m12e856694a" y="129.392559"/>
     <use style="fill:#ff0000;stroke:#ff0000;" x="125.655519" xlink:href="#m12e856694a" y="129.392559"/>
     <use style="fill:#ff0000;stroke:#ff0000;" x="127.179718" xlink:href="#m12e856694a" y="129.392559"/>
     <use style="fill:#ff0000;stroke:#ff0000;" x="128.703918" xlink:href="#m12e856694a" y="147.167822"/>
     <use style="fill:#ff0000;stroke:#ff0000;" x="130.228118" xlink:href="#m12e856694a" y="147.167822"/>
     <use style="fill:#ff0000;stroke:#ff0000;" x="131.752318" xlink:href="#m12e856694a" y="165.328093"/>
     <use style="fill:#ff0000;stroke:#ff0000;" x="133.276517" xlink:href="#m12e856694a" y="165.328093"/>
     <use style="fill:#ff0000;stroke:#ff0000;" x="134.800717" xlink:href="#m12e856694a" y="168.619076"/>
     <use style="fill:#ff0000;stroke:#ff0000;" x="136.324917" xlink:href="#m12e856694a" y="168.619076"/>
     <use style="fill:#ff0000;stroke:#ff0000;" x="137.849117" xlink:href="#m12e856694a" y="150.86459"/>
     <use style="fill:#ff0000;stroke:#ff0000;" x="139.373316" xlink:href="#m12e856694a" y="150.86459"/>
     <use style="fill:#ff0000;stroke:#ff0000;" x="140.897516" xlink:href="#m12e856694a" y="152.533762"/>
     <use style="fill:#ff0000;stroke:#ff0000;" x="142.421716" xlink:href="#m12e856694a" y="152.533762"/>
     <use style="fill:#ff0000;stroke:#ff0000;" x="143.945915" xlink:href="#m12e856694a" y="133.524966"/>
     <use style="fill:#ff0000;stroke:#ff0000;" x="145.470115" xlink:href="#m12e856694a" y="133.524966"/>
     <use style="fill:#ff0000;stroke:#ff0000;" x="146.994315" xlink:href="#m12e856694a" y="133.524966"/>
     <use style="fill:#ff0000;stroke:#ff0000;" x="148.518515" xlink:href="#m12e856694a" y="151.136956"/>
     <use style="fill:#ff0000;stroke:#ff0000;" x="150.042714" xlink:href="#m12e856694a" y="151.136956"/>
     <use style="fill:#ff0000;stroke:#ff0000;" x="151.566914" xlink:href="#m12e856694a" y="166.952108"/>
     <use style="fill:#ff0000;stroke:#ff0000;" x="153.091114" xlink:href="#m12e856694a" y="164.478758"/>
     <use style="fill:#ff0000;stroke:#ff0000;" x="154.615314" xlink:href="#m12e856694a" y="164.478758"/>
     <use style="fill:#ff0000;stroke:#ff0000;" x="156.139513" xlink:href="#m12e856694a" y="164.478758"/>
     <use style="fill:#ff0000;stroke:#ff0000;" x="157.663713" xlink:href="#m12e856694a" y="182.285283"/>
     <use style="fill:#ff0000;stroke:#ff0000;" x="159.187913" xlink:href="#m12e856694a" y="182.285283"/>
     <use style="fill:#ff0000;stroke:#ff0000;" x="160.712113" xlink:href="#m12e856694a" y="198.560735"/>
     <use style="fill:#ff0000;stroke:#ff0000;" x="162.236312" xlink:href="#m12e856694a" y="198.560735"/>
     <use style="fill:#ff0000;stroke:#ff0000;" x="163.760512" xlink:href="#m12e856694a" y="213.733612"/>
     <use style="fill:#ff0000;stroke:#ff0000;" x="165.284712" xlink:href="#m12e856694a" y="230.269804"/>
     <use style="fill:#ff0000;stroke:#ff0000;" x="166.808912" xlink:href="#m12e856694a" y="230.269804"/>
     <use style="fill:#ff0000;stroke:#ff0000;" x="168.333111" xlink:href="#m12e856694a" y="230.269804"/>
     <use style="fill:#ff0000;stroke:#ff0000;" x="169.857311" xlink:href="#m12e856694a" y="247.263364"/>
     <use style="fill:#ff0000;stroke:#ff0000;" x="171.381511" xlink:href="#m12e856694a" y="264.216085"/>
     <use style="fill:#ff0000;stroke:#ff0000;" x="172.905711" xlink:href="#m12e856694a" y="264.216085"/>
     <use style="fill:#ff0000;stroke:#ff0000;" x="174.42991" xlink:href="#m12e856694a" y="264.216085"/>
     <use style="fill:#ff0000;stroke:#ff0000;" x="175.95411" xlink:href="#m12e856694a" y="280.116896"/>
     <use style="fill:#ff0000;stroke:#ff0000;" x="177.47831" xlink:href="#m12e856694a" y="280.116896"/>
     <use style="fill:#ff0000;stroke:#ff0000;" x="179.00251" xlink:href="#m12e856694a" y="295.488"/>
     <use style="fill:#ff0000;stroke:#ff0000;" x="180.526709" xlink:href="#m12e856694a" y="276.07965"/>
     <use style="fill:#ff0000;stroke:#ff0000;" x="182.050909" xlink:href="#m12e856694a" y="276.07965"/>
     <use style="fill:#ff0000;stroke:#ff0000;" x="183.575109" xlink:href="#m12e856694a" y="277.241087"/>
     <use style="fill:#ff0000;stroke:#ff0000;" x="185.099309" xlink:href="#m12e856694a" y="277.241087"/>
     <use style="fill:#ff0000;stroke:#ff0000;" x="186.623508" xlink:href="#m12e856694a" y="293.024641"/>
     <use style="fill:#ff0000;stroke:#ff0000;" x="188.147708" xlink:href="#m12e856694a" y="293.024641"/>
     <use style="fill:#ff0000;stroke:#ff0000;" x="189.671908" xlink:href="#m12e856694a" y="272.258945"/>
     <use style="fill:#ff0000;stroke:#ff0000;" x="191.196108" xlink:href="#m12e856694a" y="272.258945"/>
     <use style="fill:#ff0000;stroke:#ff0000;" x="192.720307" xlink:href="#m12e856694a" y="253.509055"/>
     <use style="fill:#ff0000;stroke:#ff0000;" x="194.244507" xlink:href="#m12e856694a" y="233.339517"/>
     <use style="fill:#ff0000;stroke:#ff0000;" x="195.768707" xlink:href="#m12e856694a" y="233.339517"/>
     <use style="fill:#ff0000;stroke:#ff0000;" x="197.292907" xlink:href="#m12e856694a" y="251.602127"/>
     <use style="fill:#ff0000;stroke:#ff0000;" x="198.817106" xlink:href="#m12e856694a" y="251.602127"/>
     <use style="fill:#ff0000;stroke:#ff0000;" x="200.341306" xlink:href="#m12e856694a" y="251.602127"/>
     <use style="fill:#ff0000;stroke:#ff0000;" x="201.865506" xlink:href="#m12e856694a" y="251.602127"/>
     <use style="fill:#ff0000;stroke:#ff0000;" x="203.389706" xlink:href="#m12e856694a" y="232.491685"/>
     <use style="fill:#ff0000;stroke:#ff0000;" x="204.913905" xlink:href="#m12e856694a" y="232.491685"/>
     <use style="fill:#ff0000;stroke:#ff0000;" x="206.438105" xlink:href="#m12e856694a" y="227.000005"/>
     <use style="fill:#ff0000;stroke:#ff0000;" x="207.962305" xlink:href="#m12e856694a" y="227.000005"/>
     <use style="fill:#ff0000;stroke:#ff0000;" x="209.486504" xlink:href="#m12e856694a" y="227.000005"/>
     <use style="fill:#ff0000;stroke:#ff0000;" x="211.010704" xlink:href="#m12e856694a" y="242.940254"/>
     <use style="fill:#ff0000;stroke:#ff0000;" x="212.534904" xlink:href="#m12e856694a" y="242.940254"/>
     <use style="fill:#ff0000;stroke:#ff0000;" x="214.059104" xlink:href="#m12e856694a" y="244.959137"/>
     <use style="fill:#ff0000;stroke:#ff0000;" x="215.583303" xlink:href="#m12e856694a" y="244.959137"/>
     <use style="fill:#ff0000;stroke:#ff0000;" x="217.107503" xlink:href="#m12e856694a" y="244.959137"/>
     <use style="fill:#ff0000;stroke:#ff0000;" x="218.631703" xlink:href="#m12e856694a" y="225.090324"/>
     <use style="fill:#ff0000;stroke:#ff0000;" x="220.155903" xlink:href="#m12e856694a" y="240.971921"/>
     <use style="fill:#ff0000;stroke:#ff0000;" x="221.680102" xlink:href="#m12e856694a" y="240.971921"/>
     <use style="fill:#ff0000;stroke:#ff0000;" x="223.204302" xlink:href="#m12e856694a" y="242.011972"/>
     <use style="fill:#ff0000;stroke:#ff0000;" x="224.728502" xlink:href="#m12e856694a" y="242.011972"/>
     <use style="fill:#ff0000;stroke:#ff0000;" x="226.252702" xlink:href="#m12e856694a" y="242.011972"/>
     <use style="fill:#ff0000;stroke:#ff0000;" x="227.776901" xlink:href="#m12e856694a" y="244.012425"/>
     <use style="fill:#ff0000;stroke:#ff0000;" x="229.301101" xlink:href="#m12e856694a" y="244.012425"/>
     <use style="fill:#ff0000;stroke:#ff0000;" x="230.825301" xlink:href="#m12e856694a" y="261.282191"/>
     <use style="fill:#ff0000;stroke:#ff0000;" x="232.349501" xlink:href="#m12e856694a" y="261.282191"/>
     <use style="fill:#ff0000;stroke:#ff0000;" x="233.8737" xlink:href="#m12e856694a" y="261.282191"/>
     <use style="fill:#ff0000;stroke:#ff0000;" x="235.3979" xlink:href="#m12e856694a" y="279.492488"/>
     <use style="fill:#ff0000;stroke:#ff0000;" x="236.9221" xlink:href="#m12e856694a" y="279.492488"/>
     <use style="fill:#ff0000;stroke:#ff0000;" x="238.4463" xlink:href="#m12e856694a" y="279.492488"/>
     <use style="fill:#ff0000;stroke:#ff0000;" x="239.970499" xlink:href="#m12e856694a" y="260.093168"/>
     <use style="fill:#ff0000;stroke:#ff0000;" x="241.494699" xlink:href="#m12e856694a" y="260.093168"/>
     <use style="fill:#ff0000;stroke:#ff0000;" x="243.018899" xlink:href="#m12e856694a" y="257.980215"/>
     <use style="fill:#ff0000;stroke:#ff0000;" x="244.543099" xlink:href="#m12e856694a" y="257.980215"/>
     <use style="fill:#ff0000;stroke:#ff0000;" x="246.067298" xlink:href="#m12e856694a" y="257.980215"/>
     <use style="fill:#ff0000;stroke:#ff0000;" x="247.591498" xlink:href="#m12e856694a" y="257.980215"/>
     <use style="fill:#ff0000;stroke:#ff0000;" x="249.115698" xlink:href="#m12e856694a" y="257.980215"/>
     <use style="fill:#ff0000;stroke:#ff0000;" x="250.639898" xlink:href="#m12e856694a" y="257.980215"/>
     <use style="fill:#ff0000;stroke:#ff0000;" x="252.164097" xlink:href="#m12e856694a" y="257.980215"/>
     <use style="fill:#ff0000;stroke:#ff0000;" x="253.688297" xlink:href="#m12e856694a" y="257.980215"/>
     <use style="fill:#ff0000;stroke:#ff0000;" x="255.212497" xlink:href="#m12e856694a" y="257.980215"/>
     <use style="fill:#ff0000;stroke:#ff0000;" x="256.736697" xlink:href="#m12e856694a" y="257.980215"/>
     <use style="fill:#ff0000;stroke:#ff0000;" x="258.260896" xlink:href="#m12e856694a" y="239.319381"/>
     <use style="fill:#ff0000;stroke:#ff0000;" x="259.785096" xlink:href="#m12e856694a" y="234.347303"/>
     <use style="fill:#ff0000;stroke:#ff0000;" x="261.309296" xlink:href="#m12e856694a" y="234.347303"/>
     <use style="fill:#ff0000;stroke:#ff0000;" x="262.833496" xlink:href="#m12e856694a" y="234.347303"/>
     <use style="fill:#ff0000;stroke:#ff0000;" x="264.357695" xlink:href="#m12e856694a" y="216.688458"/>
     <use style="fill:#ff0000;stroke:#ff0000;" x="265.881895" xlink:href="#m12e856694a" y="216.688458"/>
     <use style="fill:#ff0000;stroke:#ff0000;" x="267.406095" xlink:href="#m12e856694a" y="213.07759"/>
     <use style="fill:#ff0000;stroke:#ff0000;" x="268.930294" xlink:href="#m12e856694a" y="213.07759"/>
     <use style="fill:#ff0000;stroke:#ff0000;" x="270.454494" xlink:href="#m12e856694a" y="213.07759"/>
     <use style="fill:#ff0000;stroke:#ff0000;" x="271.978694" xlink:href="#m12e856694a" y="197.240049"/>
     <use style="fill:#ff0000;stroke:#ff0000;" x="273.502894" xlink:href="#m12e856694a" y="197.240049"/>
     <use style="fill:#ff0000;stroke:#ff0000;" x="275.027093" xlink:href="#m12e856694a" y="212.913995"/>
     <use style="fill:#ff0000;stroke:#ff0000;" x="276.551293" xlink:href="#m12e856694a" y="212.913995"/>
     <use style="fill:#ff0000;stroke:#ff0000;" x="278.075493" xlink:href="#m12e856694a" y="195.546525"/>
     <use style="fill:#ff0000;stroke:#ff0000;" x="279.599693" xlink:href="#m12e856694a" y="195.546525"/>
     <use style="fill:#ff0000;stroke:#ff0000;" x="281.123892" xlink:href="#m12e856694a" y="212.068623"/>
     <use style="fill:#ff0000;stroke:#ff0000;" x="282.648092" xlink:href="#m12e856694a" y="212.068623"/>
     <use style="fill:#ff0000;stroke:#ff0000;" x="284.172292" xlink:href="#m12e856694a" y="195.40432"/>
     <use style="fill:#ff0000;stroke:#ff0000;" x="285.696492" xlink:href="#m12e856694a" y="195.40432"/>
     <use style="fill:#ff0000;stroke:#ff0000;" x="287.220691" xlink:href="#m12e856694a" y="193.758342"/>
     <use style="fill:#ff0000;stroke:#ff0000;" x="288.744891" xlink:href="#m12e856694a" y="193.758342"/>
     <use style="fill:#ff0000;stroke:#ff0000;" x="290.269091" xlink:href="#m12e856694a" y="210.509339"/>
     <use style="fill:#ff0000;stroke:#ff0000;" x="291.793291" xlink:href="#m12e856694a" y="210.509339"/>
     <use style="fill:#ff0000;stroke:#ff0000;" x="293.31749" xlink:href="#m12e856694a" y="227.552589"/>
     <use style="fill:#ff0000;stroke:#ff0000;" x="294.84169" xlink:href="#m12e856694a" y="227.552589"/>
     <use style="fill:#ff0000;stroke:#ff0000;" x="296.36589" xlink:href="#m12e856694a" y="227.552589"/>
     <use style="fill:#ff0000;stroke:#ff0000;" x="297.89009" xlink:href="#m12e856694a" y="210.687495"/>
     <use style="fill:#ff0000;stroke:#ff0000;" x="299.414289" xlink:href="#m12e856694a" y="210.687495"/>
     <use style="fill:#ff0000;stroke:#ff0000;" x="300.938489" xlink:href="#m12e856694a" y="210.687495"/>
     <use style="fill:#ff0000;stroke:#ff0000;" x="302.462689" xlink:href="#m12e856694a" y="230.147856"/>
     <use style="fill:#ff0000;stroke:#ff0000;" x="303.986889" xlink:href="#m12e856694a" y="245.252072"/>
     <use style="fill:#ff0000;stroke:#ff0000;" x="305.511088" xlink:href="#m12e856694a" y="245.252072"/>
     <use style="fill:#ff0000;stroke:#ff0000;" x="307.035288" xlink:href="#m12e856694a" y="245.252072"/>
     <use style="fill:#ff0000;stroke:#ff0000;" x="308.559488" xlink:href="#m12e856694a" y="245.252072"/>
     <use style="fill:#ff0000;stroke:#ff0000;" x="310.083688" xlink:href="#m12e856694a" y="245.03596"/>
     <use style="fill:#ff0000;stroke:#ff0000;" x="311.607887" xlink:href="#m12e856694a" y="245.03596"/>
     <use style="fill:#ff0000;stroke:#ff0000;" x="313.132087" xlink:href="#m12e856694a" y="226.176666"/>
     <use style="fill:#ff0000;stroke:#ff0000;" x="314.656287" xlink:href="#m12e856694a" y="226.176666"/>
     <use style="fill:#ff0000;stroke:#ff0000;" x="316.180487" xlink:href="#m12e856694a" y="207.97783"/>
     <use style="fill:#ff0000;stroke:#ff0000;" x="317.704686" xlink:href="#m12e856694a" y="207.97783"/>
     <use style="fill:#ff0000;stroke:#ff0000;" x="319.228886" xlink:href="#m12e856694a" y="187.889136"/>
     <use style="fill:#ff0000;stroke:#ff0000;" x="320.753086" xlink:href="#m12e856694a" y="187.889136"/>
     <use style="fill:#ff0000;stroke:#ff0000;" x="322.277286" xlink:href="#m12e856694a" y="187.889136"/>
     <use style="fill:#ff0000;stroke:#ff0000;" x="323.801485" xlink:href="#m12e856694a" y="169.047577"/>
     <use style="fill:#ff0000;stroke:#ff0000;" x="325.325685" xlink:href="#m12e856694a" y="169.047577"/>
     <use style="fill:#ff0000;stroke:#ff0000;" x="326.849885" xlink:href="#m12e856694a" y="173.501136"/>
     <use style="fill:#ff0000;stroke:#ff0000;" x="328.374085" xlink:href="#m12e856694a" y="173.501136"/>
     <use style="fill:#ff0000;stroke:#ff0000;" x="329.898284" xlink:href="#m12e856694a" y="173.501136"/>
     <use style="fill:#ff0000;stroke:#ff0000;" x="331.422484" xlink:href="#m12e856694a" y="191.294198"/>
     <use style="fill:#ff0000;stroke:#ff0000;" x="332.946684" xlink:href="#m12e856694a" y="191.294198"/>
     <use style="fill:#ff0000;stroke:#ff0000;" x="334.470883" xlink:href="#m12e856694a" y="208.012537"/>
     <use style="fill:#ff0000;stroke:#ff0000;" x="335.995083" xlink:href="#m12e856694a" y="203.324028"/>
     <use style="fill:#ff0000;stroke:#ff0000;" x="337.519283" xlink:href="#m12e856694a" y="203.324028"/>
     <use style="fill:#ff0000;stroke:#ff0000;" x="339.043483" xlink:href="#m12e856694a" y="220.839832"/>
     <use style="fill:#ff0000;stroke:#ff0000;" x="340.567682" xlink:href="#m12e856694a" y="220.839832"/>
     <use style="fill:#ff0000;stroke:#ff0000;" x="342.091882" xlink:href="#m12e856694a" y="201.035074"/>
     <use style="fill:#ff0000;stroke:#ff0000;" x="343.616082" xlink:href="#m12e856694a" y="201.035074"/>
     <use style="fill:#ff0000;stroke:#ff0000;" x="345.140282" xlink:href="#m12e856694a" y="206.591517"/>
     <use style="fill:#ff0000;stroke:#ff0000;" x="346.664481" xlink:href="#m12e856694a" y="206.591517"/>
     <use style="fill:#ff0000;stroke:#ff0000;" x="348.188681" xlink:href="#m12e856694a" y="208.433838"/>
     <use style="fill:#ff0000;stroke:#ff0000;" x="349.712881" xlink:href="#m12e856694a" y="208.433838"/>
     <use style="fill:#ff0000;stroke:#ff0000;" x="351.237081" xlink:href="#m12e856694a" y="206.98765"/>
     <use style="fill:#ff0000;stroke:#ff0000;" x="352.76128" xlink:href="#m12e856694a" y="206.98765"/>
     <use style="fill:#ff0000;stroke:#ff0000;" x="354.28548" xlink:href="#m12e856694a" y="188.190485"/>
     <use style="fill:#ff0000;stroke:#ff0000;" x="355.80968" xlink:href="#m12e856694a" y="203.93548"/>
     <use style="fill:#ff0000;stroke:#ff0000;" x="357.33388" xlink:href="#m12e856694a" y="203.93548"/>
     <use style="fill:#ff0000;stroke:#ff0000;" x="358.858079" xlink:href="#m12e856694a" y="203.93548"/>
     <use style="fill:#ff0000;stroke:#ff0000;" x="360.382279" xlink:href="#m12e856694a" y="203.93548"/>
     <use style="fill:#ff0000;stroke:#ff0000;" x="361.906479" xlink:href="#m12e856694a" y="203.93548"/>
     <use style="fill:#ff0000;stroke:#ff0000;" x="363.430679" xlink:href="#m12e856694a" y="203.93548"/>
     <use style="fill:#ff0000;stroke:#ff0000;" x="364.954878" xlink:href="#m12e856694a" y="203.93548"/>
     <use style="fill:#ff0000;stroke:#ff0000;" x="366.479078" xlink:href="#m12e856694a" y="203.93548"/>
     <use style="fill:#ff0000;stroke:#ff0000;" x="368.003278" xlink:href="#m12e856694a" y="203.93548"/>
     <use style="fill:#ff0000;stroke:#ff0000;" x="369.527478" xlink:href="#m12e856694a" y="203.93548"/>
     <use style="fill:#ff0000;stroke:#ff0000;" x="371.051677" xlink:href="#m12e856694a" y="203.93548"/>
     <use style="fill:#ff0000;stroke:#ff0000;" x="372.575877" xlink:href="#m12e856694a" y="203.93548"/>
     <use style="fill:#ff0000;stroke:#ff0000;" x="374.100077" xlink:href="#m12e856694a" y="203.93548"/>
     <use style="fill:#ff0000;stroke:#ff0000;" x="375.624277" xlink:href="#m12e856694a" y="203.93548"/>
     <use style="fill:#ff0000;stroke:#ff0000;" x="377.148476" xlink:href="#m12e856694a" y="203.93548"/>
     <use style="fill:#ff0000;stroke:#ff0000;" x="378.672676" xlink:href="#m12e856694a" y="203.93548"/>
     <use style="fill:#ff0000;stroke:#ff0000;" x="380.196876" xlink:href="#m12e856694a" y="203.93548"/>
     <use style="fill:#ff0000;stroke:#ff0000;" x="381.721076" xlink:href="#m12e856694a" y="203.93548"/>
     <use style="fill:#ff0000;stroke:#ff0000;" x="383.245275" xlink:href="#m12e856694a" y="203.93548"/>
     <use style="fill:#ff0000;stroke:#ff0000;" x="384.769475" xlink:href="#m12e856694a" y="203.93548"/>
     <use style="fill:#ff0000;stroke:#ff0000;" x="386.293675" xlink:href="#m12e856694a" y="203.93548"/>
     <use style="fill:#ff0000;stroke:#ff0000;" x="387.817875" xlink:href="#m12e856694a" y="203.93548"/>
     <use style="fill:#ff0000;stroke:#ff0000;" x="389.342074" xlink:href="#m12e856694a" y="203.93548"/>
     <use style="fill:#ff0000;stroke:#ff0000;" x="390.866274" xlink:href="#m12e856694a" y="203.93548"/>
     <use style="fill:#ff0000;stroke:#ff0000;" x="392.390474" xlink:href="#m12e856694a" y="203.93548"/>
     <use style="fill:#ff0000;stroke:#ff0000;" x="393.914673" xlink:href="#m12e856694a" y="203.93548"/>
     <use style="fill:#ff0000;stroke:#ff0000;" x="395.438873" xlink:href="#m12e856694a" y="203.93548"/>
     <use style="fill:#ff0000;stroke:#ff0000;" x="396.963073" xlink:href="#m12e856694a" y="203.93548"/>
     <use style="fill:#ff0000;stroke:#ff0000;" x="398.487273" xlink:href="#m12e856694a" y="203.93548"/>
    </g>
   </g>
   <g id="patch_3">
    <path d="M 57.6 307.584 
L 57.6 41.472 
" style="fill:none;stroke:#000000;stroke-linecap:square;stroke-linejoin:miter;stroke-width:0.8;"/>
   </g>
   <g id="patch_4">
    <path d="M 414.72 307.584 
L 414.72 41.472 
" style="fill:none;stroke:#000000;stroke-linecap:square;stroke-linejoin:miter;stroke-width:0.8;"/>
   </g>
   <g id="patch_5">
    <path d="M 57.6 307.584 
L 414.72 307.584 
" style="fill:none;stroke:#000000;stroke-linecap:square;stroke-linejoin:miter;stroke-width:0.8;"/>
   </g>
   <g id="patch_6">
    <path d="M 57.6 41.472 
L 414.72 41.472 
" style="fill:none;stroke:#000000;stroke-linecap:square;stroke-linejoin:miter;stroke-width:0.8;"/>
   </g>
  </g>
 </g>
 <defs>
  <clipPath id="p7942fced4f">
   <rect height="266.112" width="357.12" x="57.6" y="41.472"/>
  </clipPath>
 </defs>
</svg>
