<?xml version="1.0" encoding="utf-8" standalone="no"?>
<!DOCTYPE svg PUBLIC "-//W3C//DTD SVG 1.1//EN"
  "http://www.w3.org/Graphics/SVG/1.1/DTD/svg11.dtd">
<!-- Created with matplotlib (https://matplotlib.org/) -->
<svg height="345.6pt" version="1.1" viewBox="0 0 460.8 345.6" width="460.8pt" xmlns="http://www.w3.org/2000/svg" xmlns:xlink="http://www.w3.org/1999/xlink">
 <defs>
  <style type="text/css">
*{stroke-linecap:butt;stroke-linejoin:round;}
  </style>
 </defs>
 <g id="figure_1">
  <g id="patch_1">
   <path d="M 0 345.6 
L 460.8 345.6 
L 460.8 0 
L 0 0 
z
" style="fill:#ffffff;"/>
  </g>
  <g id="axes_1">
   <g id="patch_2">
    <path d="M 57.6 307.584 
L 414.72 307.584 
L 414.72 41.472 
L 57.6 41.472 
z
" style="fill:#ffffff;"/>
   </g>
   <g id="line2d_1">
    <path clip-path="url(#p3e5bfcf187)" d="M 73.832727 148.1219 
L 79.335347 130.46328 
L 84.837966 130.46328 
L 90.340586 115.091301 
L 95.843205 135.003678 
L 101.345824 135.003678 
L 106.848444 135.003678 
L 112.351063 135.003678 
L 117.853683 154.850989 
L 123.356302 154.850989 
L 128.858921 137.286068 
L 134.361541 137.286068 
L 139.86416 137.286068 
L 145.36678 137.286068 
L 150.869399 137.286068 
L 156.372018 233.061707 
L 161.874638 233.061707 
L 167.377257 140.709684 
L 172.879877 225.888306 
L 178.382496 225.888306 
L 183.885116 134.822335 
L 189.387735 134.822335 
L 194.890354 53.568 
L 200.392974 53.568 
L 205.895593 85.116485 
L 211.398213 91.04111 
L 216.900832 91.04111 
L 222.403451 91.04111 
L 227.906071 121.461175 
L 233.40869 150.7477 
L 238.91131 150.7477 
L 244.413929 180.081079 
L 249.916549 180.081079 
L 255.419168 180.081079 
L 260.921787 180.081079 
L 266.424407 180.081079 
L 271.927026 209.739059 
L 277.429646 209.739059 
L 282.932265 240.039423 
L 288.434884 240.039423 
L 293.937504 245.53042 
L 299.440123 245.53042 
L 304.942743 215.907106 
L 310.445362 215.907106 
L 315.947982 218.692115 
L 321.450601 218.692115 
L 326.95322 186.975989 
L 332.45584 186.975989 
L 337.958459 186.975989 
L 343.461079 216.361547 
L 348.963698 216.361547 
L 354.466317 242.749088 
L 359.968937 238.62231 
L 365.471556 238.62231 
L 370.974176 238.62231 
L 376.476795 268.33245 
L 381.979414 268.33245 
L 387.482034 295.488 
L 392.984653 295.488 
L 398.487273 295.488 
" style="fill:none;stroke:#ff0000;stroke-linecap:square;stroke-width:12;"/>
    <defs>
     <path d="M 0 3 
C 0.795609 3 1.55874 2.683901 2.12132 2.12132 
C 2.683901 1.55874 3 0.795609 3 0 
C 3 -0.795609 2.683901 -1.55874 2.12132 -2.12132 
C 1.55874 -2.683901 0.795609 -3 0 -3 
C -0.795609 -3 -1.55874 -2.683901 -2.12132 -2.12132 
C -2.683901 -1.55874 -3 -0.795609 -3 0 
C -3 0.795609 -2.683901 1.55874 -2.12132 2.12132 
C -1.55874 2.683901 -0.795609 3 0 3 
z
" id="m67a92c97af" style="stroke:#ff0000;"/>
    </defs>
    <g clip-path="url(#p3e5bfcf187)">
     <use style="fill:#ff0000;stroke:#ff0000;" x="73.832727" xlink:href="#m67a92c97af" y="148.1219"/>
     <use style="fill:#ff0000;stroke:#ff0000;" x="79.335347" xlink:href="#m67a92c97af" y="130.46328"/>
     <use style="fill:#ff0000;stroke:#ff0000;" x="84.837966" xlink:href="#m67a92c97af" y="130.46328"/>
     <use style="fill:#ff0000;stroke:#ff0000;" x="90.340586" xlink:href="#m67a92c97af" y="115.091301"/>
     <use style="fill:#ff0000;stroke:#ff0000;" x="95.843205" xlink:href="#m67a92c97af" y="135.003678"/>
     <use style="fill:#ff0000;stroke:#ff0000;" x="101.345824" xlink:href="#m67a92c97af" y="135.003678"/>
     <use style="fill:#ff0000;stroke:#ff0000;" x="106.848444" xlink:href="#m67a92c97af" y="135.003678"/>
     <use style="fill:#ff0000;stroke:#ff0000;" x="112.351063" xlink:href="#m67a92c97af" y="135.003678"/>
     <use style="fill:#ff0000;stroke:#ff0000;" x="117.853683" xlink:href="#m67a92c97af" y="154.850989"/>
     <use style="fill:#ff0000;stroke:#ff0000;" x="123.356302" xlink:href="#m67a92c97af" y="154.850989"/>
     <use style="fill:#ff0000;stroke:#ff0000;" x="128.858921" xlink:href="#m67a92c97af" y="137.286068"/>
     <use style="fill:#ff0000;stroke:#ff0000;" x="134.361541" xlink:href="#m67a92c97af" y="137.286068"/>
     <use style="fill:#ff0000;stroke:#ff0000;" x="139.86416" xlink:href="#m67a92c97af" y="137.286068"/>
     <use style="fill:#ff0000;stroke:#ff0000;" x="145.36678" xlink:href="#m67a92c97af" y="137.286068"/>
     <use style="fill:#ff0000;stroke:#ff0000;" x="150.869399" xlink:href="#m67a92c97af" y="137.286068"/>
     <use style="fill:#ff0000;stroke:#ff0000;" x="156.372018" xlink:href="#m67a92c97af" y="233.061707"/>
     <use style="fill:#ff0000;stroke:#ff0000;" x="161.874638" xlink:href="#m67a92c97af" y="233.061707"/>
     <use style="fill:#ff0000;stroke:#ff0000;" x="167.377257" xlink:href="#m67a92c97af" y="140.709684"/>
     <use style="fill:#ff0000;stroke:#ff0000;" x="172.879877" xlink:href="#m67a92c97af" y="225.888306"/>
     <use style="fill:#ff0000;stroke:#ff0000;" x="178.382496" xlink:href="#m67a92c97af" y="225.888306"/>
     <use style="fill:#ff0000;stroke:#ff0000;" x="183.885116" xlink:href="#m67a92c97af" y="134.822335"/>
     <use style="fill:#ff0000;stroke:#ff0000;" x="189.387735" xlink:href="#m67a92c97af" y="134.822335"/>
     <use style="fill:#ff0000;stroke:#ff0000;" x="194.890354" xlink:href="#m67a92c97af" y="53.568"/>
     <use style="fill:#ff0000;stroke:#ff0000;" x="200.392974" xlink:href="#m67a92c97af" y="53.568"/>
     <use style="fill:#ff0000;stroke:#ff0000;" x="205.895593" xlink:href="#m67a92c97af" y="85.116485"/>
     <use style="fill:#ff0000;stroke:#ff0000;" x="211.398213" xlink:href="#m67a92c97af" y="91.04111"/>
     <use style="fill:#ff0000;stroke:#ff0000;" x="216.900832" xlink:href="#m67a92c97af" y="91.04111"/>
     <use style="fill:#ff0000;stroke:#ff0000;" x="222.403451" xlink:href="#m67a92c97af" y="91.04111"/>
     <use style="fill:#ff0000;stroke:#ff0000;" x="227.906071" xlink:href="#m67a92c97af" y="121.461175"/>
     <use style="fill:#ff0000;stroke:#ff0000;" x="233.40869" xlink:href="#m67a92c97af" y="150.7477"/>
     <use style="fill:#ff0000;stroke:#ff0000;" x="238.91131" xlink:href="#m67a92c97af" y="150.7477"/>
     <use style="fill:#ff0000;stroke:#ff0000;" x="244.413929" xlink:href="#m67a92c97af" y="180.081079"/>
     <use style="fill:#ff0000;stroke:#ff0000;" x="249.916549" xlink:href="#m67a92c97af" y="180.081079"/>
     <use style="fill:#ff0000;stroke:#ff0000;" x="255.419168" xlink:href="#m67a92c97af" y="180.081079"/>
     <use style="fill:#ff0000;stroke:#ff0000;" x="260.921787" xlink:href="#m67a92c97af" y="180.081079"/>
     <use style="fill:#ff0000;stroke:#ff0000;" x="266.424407" xlink:href="#m67a92c97af" y="180.081079"/>
     <use style="fill:#ff0000;stroke:#ff0000;" x="271.927026" xlink:href="#m67a92c97af" y="209.739059"/>
     <use style="fill:#ff0000;stroke:#ff0000;" x="277.429646" xlink:href="#m67a92c97af" y="209.739059"/>
     <use style="fill:#ff0000;stroke:#ff0000;" x="282.932265" xlink:href="#m67a92c97af" y="240.039423"/>
     <use style="fill:#ff0000;stroke:#ff0000;" x="288.434884" xlink:href="#m67a92c97af" y="240.039423"/>
     <use style="fill:#ff0000;stroke:#ff0000;" x="293.937504" xlink:href="#m67a92c97af" y="245.53042"/>
     <use style="fill:#ff0000;stroke:#ff0000;" x="299.440123" xlink:href="#m67a92c97af" y="245.53042"/>
     <use style="fill:#ff0000;stroke:#ff0000;" x="304.942743" xlink:href="#m67a92c97af" y="215.907106"/>
     <use style="fill:#ff0000;stroke:#ff0000;" x="310.445362" xlink:href="#m67a92c97af" y="215.907106"/>
     <use style="fill:#ff0000;stroke:#ff0000;" x="315.947982" xlink:href="#m67a92c97af" y="218.692115"/>
     <use style="fill:#ff0000;stroke:#ff0000;" x="321.450601" xlink:href="#m67a92c97af" y="218.692115"/>
     <use style="fill:#ff0000;stroke:#ff0000;" x="326.95322" xlink:href="#m67a92c97af" y="186.975989"/>
     <use style="fill:#ff0000;stroke:#ff0000;" x="332.45584" xlink:href="#m67a92c97af" y="186.975989"/>
     <use style="fill:#ff0000;stroke:#ff0000;" x="337.958459" xlink:href="#m67a92c97af" y="186.975989"/>
     <use style="fill:#ff0000;stroke:#ff0000;" x="343.461079" xlink:href="#m67a92c97af" y="216.361547"/>
     <use style="fill:#ff0000;stroke:#ff0000;" x="348.963698" xlink:href="#m67a92c97af" y="216.361547"/>
     <use style="fill:#ff0000;stroke:#ff0000;" x="354.466317" xlink:href="#m67a92c97af" y="242.749088"/>
     <use style="fill:#ff0000;stroke:#ff0000;" x="359.968937" xlink:href="#m67a92c97af" y="238.62231"/>
     <use style="fill:#ff0000;stroke:#ff0000;" x="365.471556" xlink:href="#m67a92c97af" y="238.62231"/>
     <use style="fill:#ff0000;stroke:#ff0000;" x="370.974176" xlink:href="#m67a92c97af" y="238.62231"/>
     <use style="fill:#ff0000;stroke:#ff0000;" x="376.476795" xlink:href="#m67a92c97af" y="268.33245"/>
     <use style="fill:#ff0000;stroke:#ff0000;" x="381.979414" xlink:href="#m67a92c97af" y="268.33245"/>
     <use style="fill:#ff0000;stroke:#ff0000;" x="387.482034" xlink:href="#m67a92c97af" y="295.488"/>
     <use style="fill:#ff0000;stroke:#ff0000;" x="392.984653" xlink:href="#m67a92c97af" y="295.488"/>
     <use style="fill:#ff0000;stroke:#ff0000;" x="398.487273" xlink:href="#m67a92c97af" y="295.488"/>
    </g>
   </g>
   <g id="patch_3">
    <path d="M 57.6 307.584 
L 57.6 41.472 
" style="fill:none;stroke:#000000;stroke-linecap:square;stroke-linejoin:miter;stroke-width:0.8;"/>
   </g>
   <g id="patch_4">
    <path d="M 414.72 307.584 
L 414.72 41.472 
" style="fill:none;stroke:#000000;stroke-linecap:square;stroke-linejoin:miter;stroke-width:0.8;"/>
   </g>
   <g id="patch_5">
    <path d="M 57.6 307.584 
L 414.72 307.584 
" style="fill:none;stroke:#000000;stroke-linecap:square;stroke-linejoin:miter;stroke-width:0.8;"/>
   </g>
   <g id="patch_6">
    <path d="M 57.6 41.472 
L 414.72 41.472 
" style="fill:none;stroke:#000000;stroke-linecap:square;stroke-linejoin:miter;stroke-width:0.8;"/>
   </g>
  </g>
 </g>
 <defs>
  <clipPath id="p3e5bfcf187">
   <rect height="266.112" width="357.12" x="57.6" y="41.472"/>
  </clipPath>
 </defs>
</svg>
