<?xml version="1.0" encoding="utf-8" standalone="no"?>
<!DOCTYPE svg PUBLIC "-//W3C//DTD SVG 1.1//EN"
  "http://www.w3.org/Graphics/SVG/1.1/DTD/svg11.dtd">
<!-- Created with matplotlib (https://matplotlib.org/) -->
<svg height="345.6pt" version="1.1" viewBox="0 0 460.8 345.6" width="460.8pt" xmlns="http://www.w3.org/2000/svg" xmlns:xlink="http://www.w3.org/1999/xlink">
 <defs>
  <style type="text/css">
*{stroke-linecap:butt;stroke-linejoin:round;}
  </style>
 </defs>
 <g id="figure_1">
  <g id="patch_1">
   <path d="M 0 345.6 
L 460.8 345.6 
L 460.8 0 
L 0 0 
z
" style="fill:#ffffff;"/>
  </g>
  <g id="axes_1">
   <g id="patch_2">
    <path d="M 57.6 307.584 
L 414.72 307.584 
L 414.72 41.472 
L 57.6 41.472 
z
" style="fill:#ffffff;"/>
   </g>
   <g id="line2d_1">
    <path clip-path="url(#p18a91e966c)" d="M 73.832727 121.303314 
L 88.589752 85.091069 
L 103.346777 85.091069 
L 118.103802 53.568 
L 132.860826 94.40199 
L 147.617851 94.40199 
L 162.374876 94.40199 
L 177.131901 94.40199 
L 191.888926 135.102547 
L 206.64595 135.102547 
L 221.402975 99.082448 
L 236.16 99.082448 
L 250.917025 99.082448 
L 265.67405 99.082448 
L 280.431074 99.082448 
L 295.188099 295.488 
L 309.945124 295.488 
L 324.702149 106.103203 
L 339.459174 280.777624 
L 354.216198 280.777624 
L 368.973223 94.030111 
L 383.730248 94.030111 
L 398.487273 94.030111 
" style="fill:none;stroke:#ff0000;stroke-linecap:square;stroke-width:12;"/>
    <defs>
     <path d="M 0 3 
C 0.795609 3 1.55874 2.683901 2.12132 2.12132 
C 2.683901 1.55874 3 0.795609 3 0 
C 3 -0.795609 2.683901 -1.55874 2.12132 -2.12132 
C 1.55874 -2.683901 0.795609 -3 0 -3 
C -0.795609 -3 -1.55874 -2.683901 -2.12132 -2.12132 
C -2.683901 -1.55874 -3 -0.795609 -3 0 
C -3 0.795609 -2.683901 1.55874 -2.12132 2.12132 
C -1.55874 2.683901 -0.795609 3 0 3 
z
" id="m187928849c" style="stroke:#ff0000;"/>
    </defs>
    <g clip-path="url(#p18a91e966c)">
     <use style="fill:#ff0000;stroke:#ff0000;" x="73.832727" xlink:href="#m187928849c" y="121.303314"/>
     <use style="fill:#ff0000;stroke:#ff0000;" x="88.589752" xlink:href="#m187928849c" y="85.091069"/>
     <use style="fill:#ff0000;stroke:#ff0000;" x="103.346777" xlink:href="#m187928849c" y="85.091069"/>
     <use style="fill:#ff0000;stroke:#ff0000;" x="118.103802" xlink:href="#m187928849c" y="53.568"/>
     <use style="fill:#ff0000;stroke:#ff0000;" x="132.860826" xlink:href="#m187928849c" y="94.40199"/>
     <use style="fill:#ff0000;stroke:#ff0000;" x="147.617851" xlink:href="#m187928849c" y="94.40199"/>
     <use style="fill:#ff0000;stroke:#ff0000;" x="162.374876" xlink:href="#m187928849c" y="94.40199"/>
     <use style="fill:#ff0000;stroke:#ff0000;" x="177.131901" xlink:href="#m187928849c" y="94.40199"/>
     <use style="fill:#ff0000;stroke:#ff0000;" x="191.888926" xlink:href="#m187928849c" y="135.102547"/>
     <use style="fill:#ff0000;stroke:#ff0000;" x="206.64595" xlink:href="#m187928849c" y="135.102547"/>
     <use style="fill:#ff0000;stroke:#ff0000;" x="221.402975" xlink:href="#m187928849c" y="99.082448"/>
     <use style="fill:#ff0000;stroke:#ff0000;" x="236.16" xlink:href="#m187928849c" y="99.082448"/>
     <use style="fill:#ff0000;stroke:#ff0000;" x="250.917025" xlink:href="#m187928849c" y="99.082448"/>
     <use style="fill:#ff0000;stroke:#ff0000;" x="265.67405" xlink:href="#m187928849c" y="99.082448"/>
     <use style="fill:#ff0000;stroke:#ff0000;" x="280.431074" xlink:href="#m187928849c" y="99.082448"/>
     <use style="fill:#ff0000;stroke:#ff0000;" x="295.188099" xlink:href="#m187928849c" y="295.488"/>
     <use style="fill:#ff0000;stroke:#ff0000;" x="309.945124" xlink:href="#m187928849c" y="295.488"/>
     <use style="fill:#ff0000;stroke:#ff0000;" x="324.702149" xlink:href="#m187928849c" y="106.103203"/>
     <use style="fill:#ff0000;stroke:#ff0000;" x="339.459174" xlink:href="#m187928849c" y="280.777624"/>
     <use style="fill:#ff0000;stroke:#ff0000;" x="354.216198" xlink:href="#m187928849c" y="280.777624"/>
     <use style="fill:#ff0000;stroke:#ff0000;" x="368.973223" xlink:href="#m187928849c" y="94.030111"/>
     <use style="fill:#ff0000;stroke:#ff0000;" x="383.730248" xlink:href="#m187928849c" y="94.030111"/>
     <use style="fill:#ff0000;stroke:#ff0000;" x="398.487273" xlink:href="#m187928849c" y="94.030111"/>
    </g>
   </g>
   <g id="patch_3">
    <path d="M 57.6 307.584 
L 57.6 41.472 
" style="fill:none;stroke:#000000;stroke-linecap:square;stroke-linejoin:miter;stroke-width:0.8;"/>
   </g>
   <g id="patch_4">
    <path d="M 414.72 307.584 
L 414.72 41.472 
" style="fill:none;stroke:#000000;stroke-linecap:square;stroke-linejoin:miter;stroke-width:0.8;"/>
   </g>
   <g id="patch_5">
    <path d="M 57.6 307.584 
L 414.72 307.584 
" style="fill:none;stroke:#000000;stroke-linecap:square;stroke-linejoin:miter;stroke-width:0.8;"/>
   </g>
   <g id="patch_6">
    <path d="M 57.6 41.472 
L 414.72 41.472 
" style="fill:none;stroke:#000000;stroke-linecap:square;stroke-linejoin:miter;stroke-width:0.8;"/>
   </g>
  </g>
 </g>
 <defs>
  <clipPath id="p18a91e966c">
   <rect height="266.112" width="357.12" x="57.6" y="41.472"/>
  </clipPath>
 </defs>
</svg>
