<?xml version="1.0" encoding="utf-8" standalone="no"?>
<!DOCTYPE svg PUBLIC "-//W3C//DTD SVG 1.1//EN"
  "http://www.w3.org/Graphics/SVG/1.1/DTD/svg11.dtd">
<!-- Created with matplotlib (https://matplotlib.org/) -->
<svg height="345.6pt" version="1.1" viewBox="0 0 460.8 345.6" width="460.8pt" xmlns="http://www.w3.org/2000/svg" xmlns:xlink="http://www.w3.org/1999/xlink">
 <defs>
  <style type="text/css">
*{stroke-linecap:butt;stroke-linejoin:round;}
  </style>
 </defs>
 <g id="figure_1">
  <g id="patch_1">
   <path d="M 0 345.6 
L 460.8 345.6 
L 460.8 0 
L 0 0 
z
" style="fill:#ffffff;"/>
  </g>
  <g id="axes_1">
   <g id="patch_2">
    <path d="M 57.6 307.584 
L 414.72 307.584 
L 414.72 41.472 
L 57.6 41.472 
z
" style="fill:#ffffff;"/>
   </g>
   <g id="line2d_1">
    <path clip-path="url(#pe6cad5c1d1)" d="M 73.832727 110.238092 
L 74.784793 99.654545 
L 75.73686 99.654545 
L 76.688926 90.441478 
L 77.640992 102.375795 
L 80.49719 102.375795 
L 81.449256 114.271115 
L 82.401322 114.271115 
L 83.353388 103.743726 
L 87.161653 103.743726 
L 88.113719 161.146057 
L 89.065785 161.146057 
L 90.017851 105.795642 
L 90.969917 156.846739 
L 91.921983 156.846739 
L 92.87405 102.267108 
L 93.826116 102.267108 
L 94.778182 53.568 
L 95.730248 53.568 
L 96.682314 72.476322 
L 97.63438 76.027196 
L 99.538512 76.027196 
L 101.442645 111.811843 
L 102.394711 111.811843 
L 103.346777 129.392559 
L 107.155041 129.392559 
L 108.107107 147.167822 
L 109.059174 147.167822 
L 110.01124 165.328093 
L 110.963306 165.328093 
L 111.915372 168.619076 
L 112.867438 168.619076 
L 113.819504 150.86459 
L 114.77157 150.86459 
L 115.723636 152.533762 
L 116.675702 152.533762 
L 117.627769 133.524966 
L 119.531901 133.524966 
L 120.483967 151.136956 
L 121.436033 151.136956 
L 122.388099 166.952108 
L 123.340165 164.478758 
L 125.244298 164.478758 
L 126.196364 182.285283 
L 127.14843 182.285283 
L 128.100496 198.560735 
L 129.052562 198.560735 
L 130.956694 230.269804 
L 132.860826 230.269804 
L 134.764959 264.216085 
L 136.669091 264.216085 
L 137.621157 280.116896 
L 138.573223 280.116896 
L 139.525289 295.488 
L 140.477355 276.07965 
L 141.429421 276.07965 
L 142.381488 277.241087 
L 143.333554 277.241087 
L 144.28562 293.024641 
L 145.237686 293.024641 
L 146.189752 272.258945 
L 147.141818 272.258945 
L 149.04595 233.339517 
L 149.998017 233.339517 
L 150.950083 251.602127 
L 153.806281 251.602127 
L 154.758347 232.491685 
L 155.710413 232.491685 
L 156.662479 227.000005 
L 158.566612 227.000005 
L 159.518678 242.940254 
L 160.470744 242.940254 
L 161.42281 244.959137 
L 163.326942 244.959137 
L 164.279008 225.090324 
L 165.231074 240.971921 
L 166.18314 240.971921 
L 167.135207 242.011972 
L 169.039339 242.011972 
L 169.991405 244.012425 
L 170.943471 244.012425 
L 171.895537 261.282191 
L 173.799669 261.282191 
L 174.751736 279.492488 
L 176.655868 279.492488 
L 177.607934 260.093168 
L 178.56 260.093168 
L 179.512066 257.980215 
L 188.080661 257.980215 
L 189.032727 239.319381 
L 189.984793 234.347303 
L 191.888926 234.347303 
L 192.840992 216.688458 
L 193.793058 216.688458 
L 194.745124 213.07759 
L 196.649256 213.07759 
L 197.601322 197.240049 
L 198.553388 197.240049 
L 199.505455 212.913995 
L 200.457521 212.913995 
L 201.409587 195.546525 
L 202.361653 195.546525 
L 203.313719 212.068623 
L 204.265785 212.068623 
L 205.217851 195.40432 
L 206.169917 195.40432 
L 207.121983 193.758342 
L 208.07405 193.758342 
L 209.026116 210.509339 
L 209.978182 210.509339 
L 210.930248 227.552589 
L 212.83438 227.552589 
L 213.786446 210.687495 
L 215.690579 210.687495 
L 216.642645 230.147856 
L 217.594711 245.252072 
L 220.450909 245.252072 
L 221.402975 245.03596 
L 222.355041 245.03596 
L 223.307107 226.176666 
L 224.259174 226.176666 
L 225.21124 207.97783 
L 226.163306 207.97783 
L 227.115372 187.889136 
L 229.019504 187.889136 
L 229.97157 169.047577 
L 230.923636 169.047577 
L 231.875702 173.501136 
L 233.779835 173.501136 
L 234.731901 191.294198 
L 235.683967 191.294198 
L 236.636033 208.012537 
L 237.588099 203.324028 
L 238.540165 203.324028 
L 239.492231 220.839832 
L 240.444298 220.839832 
L 241.396364 201.035074 
L 242.34843 201.035074 
L 243.300496 206.591517 
L 244.252562 206.591517 
L 245.204628 208.433838 
L 246.156694 208.433838 
L 247.10876 206.98765 
L 248.060826 206.98765 
L 249.012893 188.190485 
L 249.964959 203.93548 
L 398.487273 203.93548 
L 398.487273 203.93548 
" style="fill:none;stroke:#ff0000;stroke-linecap:square;stroke-width:12;"/>
    <defs>
     <path d="M 0 3 
C 0.795609 3 1.55874 2.683901 2.12132 2.12132 
C 2.683901 1.55874 3 0.795609 3 0 
C 3 -0.795609 2.683901 -1.55874 2.12132 -2.12132 
C 1.55874 -2.683901 0.795609 -3 0 -3 
C -0.795609 -3 -1.55874 -2.683901 -2.12132 -2.12132 
C -2.683901 -1.55874 -3 -0.795609 -3 0 
C -3 0.795609 -2.683901 1.55874 -2.12132 2.12132 
C -1.55874 2.683901 -0.795609 3 0 3 
z
" id="mb0682adf71" style="stroke:#ff0000;"/>
    </defs>
    <g clip-path="url(#pe6cad5c1d1)">
     <use style="fill:#ff0000;stroke:#ff0000;" x="73.832727" xlink:href="#mb0682adf71" y="110.238092"/>
     <use style="fill:#ff0000;stroke:#ff0000;" x="74.784793" xlink:href="#mb0682adf71" y="99.654545"/>
     <use style="fill:#ff0000;stroke:#ff0000;" x="75.73686" xlink:href="#mb0682adf71" y="99.654545"/>
     <use style="fill:#ff0000;stroke:#ff0000;" x="76.688926" xlink:href="#mb0682adf71" y="90.441478"/>
     <use style="fill:#ff0000;stroke:#ff0000;" x="77.640992" xlink:href="#mb0682adf71" y="102.375795"/>
     <use style="fill:#ff0000;stroke:#ff0000;" x="78.593058" xlink:href="#mb0682adf71" y="102.375795"/>
     <use style="fill:#ff0000;stroke:#ff0000;" x="79.545124" xlink:href="#mb0682adf71" y="102.375795"/>
     <use style="fill:#ff0000;stroke:#ff0000;" x="80.49719" xlink:href="#mb0682adf71" y="102.375795"/>
     <use style="fill:#ff0000;stroke:#ff0000;" x="81.449256" xlink:href="#mb0682adf71" y="114.271115"/>
     <use style="fill:#ff0000;stroke:#ff0000;" x="82.401322" xlink:href="#mb0682adf71" y="114.271115"/>
     <use style="fill:#ff0000;stroke:#ff0000;" x="83.353388" xlink:href="#mb0682adf71" y="103.743726"/>
     <use style="fill:#ff0000;stroke:#ff0000;" x="84.305455" xlink:href="#mb0682adf71" y="103.743726"/>
     <use style="fill:#ff0000;stroke:#ff0000;" x="85.257521" xlink:href="#mb0682adf71" y="103.743726"/>
     <use style="fill:#ff0000;stroke:#ff0000;" x="86.209587" xlink:href="#mb0682adf71" y="103.743726"/>
     <use style="fill:#ff0000;stroke:#ff0000;" x="87.161653" xlink:href="#mb0682adf71" y="103.743726"/>
     <use style="fill:#ff0000;stroke:#ff0000;" x="88.113719" xlink:href="#mb0682adf71" y="161.146057"/>
     <use style="fill:#ff0000;stroke:#ff0000;" x="89.065785" xlink:href="#mb0682adf71" y="161.146057"/>
     <use style="fill:#ff0000;stroke:#ff0000;" x="90.017851" xlink:href="#mb0682adf71" y="105.795642"/>
     <use style="fill:#ff0000;stroke:#ff0000;" x="90.969917" xlink:href="#mb0682adf71" y="156.846739"/>
     <use style="fill:#ff0000;stroke:#ff0000;" x="91.921983" xlink:href="#mb0682adf71" y="156.846739"/>
     <use style="fill:#ff0000;stroke:#ff0000;" x="92.87405" xlink:href="#mb0682adf71" y="102.267108"/>
     <use style="fill:#ff0000;stroke:#ff0000;" x="93.826116" xlink:href="#mb0682adf71" y="102.267108"/>
     <use style="fill:#ff0000;stroke:#ff0000;" x="94.778182" xlink:href="#mb0682adf71" y="53.568"/>
     <use style="fill:#ff0000;stroke:#ff0000;" x="95.730248" xlink:href="#mb0682adf71" y="53.568"/>
     <use style="fill:#ff0000;stroke:#ff0000;" x="96.682314" xlink:href="#mb0682adf71" y="72.476322"/>
     <use style="fill:#ff0000;stroke:#ff0000;" x="97.63438" xlink:href="#mb0682adf71" y="76.027196"/>
     <use style="fill:#ff0000;stroke:#ff0000;" x="98.586446" xlink:href="#mb0682adf71" y="76.027196"/>
     <use style="fill:#ff0000;stroke:#ff0000;" x="99.538512" xlink:href="#mb0682adf71" y="76.027196"/>
     <use style="fill:#ff0000;stroke:#ff0000;" x="100.490579" xlink:href="#mb0682adf71" y="94.259208"/>
     <use style="fill:#ff0000;stroke:#ff0000;" x="101.442645" xlink:href="#mb0682adf71" y="111.811843"/>
     <use style="fill:#ff0000;stroke:#ff0000;" x="102.394711" xlink:href="#mb0682adf71" y="111.811843"/>
     <use style="fill:#ff0000;stroke:#ff0000;" x="103.346777" xlink:href="#mb0682adf71" y="129.392559"/>
     <use style="fill:#ff0000;stroke:#ff0000;" x="104.298843" xlink:href="#mb0682adf71" y="129.392559"/>
     <use style="fill:#ff0000;stroke:#ff0000;" x="105.250909" xlink:href="#mb0682adf71" y="129.392559"/>
     <use style="fill:#ff0000;stroke:#ff0000;" x="106.202975" xlink:href="#mb0682adf71" y="129.392559"/>
     <use style="fill:#ff0000;stroke:#ff0000;" x="107.155041" xlink:href="#mb0682adf71" y="129.392559"/>
     <use style="fill:#ff0000;stroke:#ff0000;" x="108.107107" xlink:href="#mb0682adf71" y="147.167822"/>
     <use style="fill:#ff0000;stroke:#ff0000;" x="109.059174" xlink:href="#mb0682adf71" y="147.167822"/>
     <use style="fill:#ff0000;stroke:#ff0000;" x="110.01124" xlink:href="#mb0682adf71" y="165.328093"/>
     <use style="fill:#ff0000;stroke:#ff0000;" x="110.963306" xlink:href="#mb0682adf71" y="165.328093"/>
     <use style="fill:#ff0000;stroke:#ff0000;" x="111.915372" xlink:href="#mb0682adf71" y="168.619076"/>
     <use style="fill:#ff0000;stroke:#ff0000;" x="112.867438" xlink:href="#mb0682adf71" y="168.619076"/>
     <use style="fill:#ff0000;stroke:#ff0000;" x="113.819504" xlink:href="#mb0682adf71" y="150.86459"/>
     <use style="fill:#ff0000;stroke:#ff0000;" x="114.77157" xlink:href="#mb0682adf71" y="150.86459"/>
     <use style="fill:#ff0000;stroke:#ff0000;" x="115.723636" xlink:href="#mb0682adf71" y="152.533762"/>
     <use style="fill:#ff0000;stroke:#ff0000;" x="116.675702" xlink:href="#mb0682adf71" y="152.533762"/>
     <use style="fill:#ff0000;stroke:#ff0000;" x="117.627769" xlink:href="#mb0682adf71" y="133.524966"/>
     <use style="fill:#ff0000;stroke:#ff0000;" x="118.579835" xlink:href="#mb0682adf71" y="133.524966"/>
     <use style="fill:#ff0000;stroke:#ff0000;" x="119.531901" xlink:href="#mb0682adf71" y="133.524966"/>
     <use style="fill:#ff0000;stroke:#ff0000;" x="120.483967" xlink:href="#mb0682adf71" y="151.136956"/>
     <use style="fill:#ff0000;stroke:#ff0000;" x="121.436033" xlink:href="#mb0682adf71" y="151.136956"/>
     <use style="fill:#ff0000;stroke:#ff0000;" x="122.388099" xlink:href="#mb0682adf71" y="166.952108"/>
     <use style="fill:#ff0000;stroke:#ff0000;" x="123.340165" xlink:href="#mb0682adf71" y="164.478758"/>
     <use style="fill:#ff0000;stroke:#ff0000;" x="124.292231" xlink:href="#mb0682adf71" y="164.478758"/>
     <use style="fill:#ff0000;stroke:#ff0000;" x="125.244298" xlink:href="#mb0682adf71" y="164.478758"/>
     <use style="fill:#ff0000;stroke:#ff0000;" x="126.196364" xlink:href="#mb0682adf71" y="182.285283"/>
     <use style="fill:#ff0000;stroke:#ff0000;" x="127.14843" xlink:href="#mb0682adf71" y="182.285283"/>
     <use style="fill:#ff0000;stroke:#ff0000;" x="128.100496" xlink:href="#mb0682adf71" y="198.560735"/>
     <use style="fill:#ff0000;stroke:#ff0000;" x="129.052562" xlink:href="#mb0682adf71" y="198.560735"/>
     <use style="fill:#ff0000;stroke:#ff0000;" x="130.004628" xlink:href="#mb0682adf71" y="213.733612"/>
     <use style="fill:#ff0000;stroke:#ff0000;" x="130.956694" xlink:href="#mb0682adf71" y="230.269804"/>
     <use style="fill:#ff0000;stroke:#ff0000;" x="131.90876" xlink:href="#mb0682adf71" y="230.269804"/>
     <use style="fill:#ff0000;stroke:#ff0000;" x="132.860826" xlink:href="#mb0682adf71" y="230.269804"/>
     <use style="fill:#ff0000;stroke:#ff0000;" x="133.812893" xlink:href="#mb0682adf71" y="247.263364"/>
     <use style="fill:#ff0000;stroke:#ff0000;" x="134.764959" xlink:href="#mb0682adf71" y="264.216085"/>
     <use style="fill:#ff0000;stroke:#ff0000;" x="135.717025" xlink:href="#mb0682adf71" y="264.216085"/>
     <use style="fill:#ff0000;stroke:#ff0000;" x="136.669091" xlink:href="#mb0682adf71" y="264.216085"/>
     <use style="fill:#ff0000;stroke:#ff0000;" x="137.621157" xlink:href="#mb0682adf71" y="280.116896"/>
     <use style="fill:#ff0000;stroke:#ff0000;" x="138.573223" xlink:href="#mb0682adf71" y="280.116896"/>
     <use style="fill:#ff0000;stroke:#ff0000;" x="139.525289" xlink:href="#mb0682adf71" y="295.488"/>
     <use style="fill:#ff0000;stroke:#ff0000;" x="140.477355" xlink:href="#mb0682adf71" y="276.07965"/>
     <use style="fill:#ff0000;stroke:#ff0000;" x="141.429421" xlink:href="#mb0682adf71" y="276.07965"/>
     <use style="fill:#ff0000;stroke:#ff0000;" x="142.381488" xlink:href="#mb0682adf71" y="277.241087"/>
     <use style="fill:#ff0000;stroke:#ff0000;" x="143.333554" xlink:href="#mb0682adf71" y="277.241087"/>
     <use style="fill:#ff0000;stroke:#ff0000;" x="144.28562" xlink:href="#mb0682adf71" y="293.024641"/>
     <use style="fill:#ff0000;stroke:#ff0000;" x="145.237686" xlink:href="#mb0682adf71" y="293.024641"/>
     <use style="fill:#ff0000;stroke:#ff0000;" x="146.189752" xlink:href="#mb0682adf71" y="272.258945"/>
     <use style="fill:#ff0000;stroke:#ff0000;" x="147.141818" xlink:href="#mb0682adf71" y="272.258945"/>
     <use style="fill:#ff0000;stroke:#ff0000;" x="148.093884" xlink:href="#mb0682adf71" y="253.509055"/>
     <use style="fill:#ff0000;stroke:#ff0000;" x="149.04595" xlink:href="#mb0682adf71" y="233.339517"/>
     <use style="fill:#ff0000;stroke:#ff0000;" x="149.998017" xlink:href="#mb0682adf71" y="233.339517"/>
     <use style="fill:#ff0000;stroke:#ff0000;" x="150.950083" xlink:href="#mb0682adf71" y="251.602127"/>
     <use style="fill:#ff0000;stroke:#ff0000;" x="151.902149" xlink:href="#mb0682adf71" y="251.602127"/>
     <use style="fill:#ff0000;stroke:#ff0000;" x="152.854215" xlink:href="#mb0682adf71" y="251.602127"/>
     <use style="fill:#ff0000;stroke:#ff0000;" x="153.806281" xlink:href="#mb0682adf71" y="251.602127"/>
     <use style="fill:#ff0000;stroke:#ff0000;" x="154.758347" xlink:href="#mb0682adf71" y="232.491685"/>
     <use style="fill:#ff0000;stroke:#ff0000;" x="155.710413" xlink:href="#mb0682adf71" y="232.491685"/>
     <use style="fill:#ff0000;stroke:#ff0000;" x="156.662479" xlink:href="#mb0682adf71" y="227.000005"/>
     <use style="fill:#ff0000;stroke:#ff0000;" x="157.614545" xlink:href="#mb0682adf71" y="227.000005"/>
     <use style="fill:#ff0000;stroke:#ff0000;" x="158.566612" xlink:href="#mb0682adf71" y="227.000005"/>
     <use style="fill:#ff0000;stroke:#ff0000;" x="159.518678" xlink:href="#mb0682adf71" y="242.940254"/>
     <use style="fill:#ff0000;stroke:#ff0000;" x="160.470744" xlink:href="#mb0682adf71" y="242.940254"/>
     <use style="fill:#ff0000;stroke:#ff0000;" x="161.42281" xlink:href="#mb0682adf71" y="244.959137"/>
     <use style="fill:#ff0000;stroke:#ff0000;" x="162.374876" xlink:href="#mb0682adf71" y="244.959137"/>
     <use style="fill:#ff0000;stroke:#ff0000;" x="163.326942" xlink:href="#mb0682adf71" y="244.959137"/>
     <use style="fill:#ff0000;stroke:#ff0000;" x="164.279008" xlink:href="#mb0682adf71" y="225.090324"/>
     <use style="fill:#ff0000;stroke:#ff0000;" x="165.231074" xlink:href="#mb0682adf71" y="240.971921"/>
     <use style="fill:#ff0000;stroke:#ff0000;" x="166.18314" xlink:href="#mb0682adf71" y="240.971921"/>
     <use style="fill:#ff0000;stroke:#ff0000;" x="167.135207" xlink:href="#mb0682adf71" y="242.011972"/>
     <use style="fill:#ff0000;stroke:#ff0000;" x="168.087273" xlink:href="#mb0682adf71" y="242.011972"/>
     <use style="fill:#ff0000;stroke:#ff0000;" x="169.039339" xlink:href="#mb0682adf71" y="242.011972"/>
     <use style="fill:#ff0000;stroke:#ff0000;" x="169.991405" xlink:href="#mb0682adf71" y="244.012425"/>
     <use style="fill:#ff0000;stroke:#ff0000;" x="170.943471" xlink:href="#mb0682adf71" y="244.012425"/>
     <use style="fill:#ff0000;stroke:#ff0000;" x="171.895537" xlink:href="#mb0682adf71" y="261.282191"/>
     <use style="fill:#ff0000;stroke:#ff0000;" x="172.847603" xlink:href="#mb0682adf71" y="261.282191"/>
     <use style="fill:#ff0000;stroke:#ff0000;" x="173.799669" xlink:href="#mb0682adf71" y="261.282191"/>
     <use style="fill:#ff0000;stroke:#ff0000;" x="174.751736" xlink:href="#mb0682adf71" y="279.492488"/>
     <use style="fill:#ff0000;stroke:#ff0000;" x="175.703802" xlink:href="#mb0682adf71" y="279.492488"/>
     <use style="fill:#ff0000;stroke:#ff0000;" x="176.655868" xlink:href="#mb0682adf71" y="279.492488"/>
     <use style="fill:#ff0000;stroke:#ff0000;" x="177.607934" xlink:href="#mb0682adf71" y="260.093168"/>
     <use style="fill:#ff0000;stroke:#ff0000;" x="178.56" xlink:href="#mb0682adf71" y="260.093168"/>
     <use style="fill:#ff0000;stroke:#ff0000;" x="179.512066" xlink:href="#mb0682adf71" y="257.980215"/>
     <use style="fill:#ff0000;stroke:#ff0000;" x="180.464132" xlink:href="#mb0682adf71" y="257.980215"/>
     <use style="fill:#ff0000;stroke:#ff0000;" x="181.416198" xlink:href="#mb0682adf71" y="257.980215"/>
     <use style="fill:#ff0000;stroke:#ff0000;" x="182.368264" xlink:href="#mb0682adf71" y="257.980215"/>
     <use style="fill:#ff0000;stroke:#ff0000;" x="183.320331" xlink:href="#mb0682adf71" y="257.980215"/>
     <use style="fill:#ff0000;stroke:#ff0000;" x="184.272397" xlink:href="#mb0682adf71" y="257.980215"/>
     <use style="fill:#ff0000;stroke:#ff0000;" x="185.224463" xlink:href="#mb0682adf71" y="257.980215"/>
     <use style="fill:#ff0000;stroke:#ff0000;" x="186.176529" xlink:href="#mb0682adf71" y="257.980215"/>
     <use style="fill:#ff0000;stroke:#ff0000;" x="187.128595" xlink:href="#mb0682adf71" y="257.980215"/>
     <use style="fill:#ff0000;stroke:#ff0000;" x="188.080661" xlink:href="#mb0682adf71" y="257.980215"/>
     <use style="fill:#ff0000;stroke:#ff0000;" x="189.032727" xlink:href="#mb0682adf71" y="239.319381"/>
     <use style="fill:#ff0000;stroke:#ff0000;" x="189.984793" xlink:href="#mb0682adf71" y="234.347303"/>
     <use style="fill:#ff0000;stroke:#ff0000;" x="190.93686" xlink:href="#mb0682adf71" y="234.347303"/>
     <use style="fill:#ff0000;stroke:#ff0000;" x="191.888926" xlink:href="#mb0682adf71" y="234.347303"/>
     <use style="fill:#ff0000;stroke:#ff0000;" x="192.840992" xlink:href="#mb0682adf71" y="216.688458"/>
     <use style="fill:#ff0000;stroke:#ff0000;" x="193.793058" xlink:href="#mb0682adf71" y="216.688458"/>
     <use style="fill:#ff0000;stroke:#ff0000;" x="194.745124" xlink:href="#mb0682adf71" y="213.07759"/>
     <use style="fill:#ff0000;stroke:#ff0000;" x="195.69719" xlink:href="#mb0682adf71" y="213.07759"/>
     <use style="fill:#ff0000;stroke:#ff0000;" x="196.649256" xlink:href="#mb0682adf71" y="213.07759"/>
     <use style="fill:#ff0000;stroke:#ff0000;" x="197.601322" xlink:href="#mb0682adf71" y="197.240049"/>
     <use style="fill:#ff0000;stroke:#ff0000;" x="198.553388" xlink:href="#mb0682adf71" y="197.240049"/>
     <use style="fill:#ff0000;stroke:#ff0000;" x="199.505455" xlink:href="#mb0682adf71" y="212.913995"/>
     <use style="fill:#ff0000;stroke:#ff0000;" x="200.457521" xlink:href="#mb0682adf71" y="212.913995"/>
     <use style="fill:#ff0000;stroke:#ff0000;" x="201.409587" xlink:href="#mb0682adf71" y="195.546525"/>
     <use style="fill:#ff0000;stroke:#ff0000;" x="202.361653" xlink:href="#mb0682adf71" y="195.546525"/>
     <use style="fill:#ff0000;stroke:#ff0000;" x="203.313719" xlink:href="#mb0682adf71" y="212.068623"/>
     <use style="fill:#ff0000;stroke:#ff0000;" x="204.265785" xlink:href="#mb0682adf71" y="212.068623"/>
     <use style="fill:#ff0000;stroke:#ff0000;" x="205.217851" xlink:href="#mb0682adf71" y="195.40432"/>
     <use style="fill:#ff0000;stroke:#ff0000;" x="206.169917" xlink:href="#mb0682adf71" y="195.40432"/>
     <use style="fill:#ff0000;stroke:#ff0000;" x="207.121983" xlink:href="#mb0682adf71" y="193.758342"/>
     <use style="fill:#ff0000;stroke:#ff0000;" x="208.07405" xlink:href="#mb0682adf71" y="193.758342"/>
     <use style="fill:#ff0000;stroke:#ff0000;" x="209.026116" xlink:href="#mb0682adf71" y="210.509339"/>
     <use style="fill:#ff0000;stroke:#ff0000;" x="209.978182" xlink:href="#mb0682adf71" y="210.509339"/>
     <use style="fill:#ff0000;stroke:#ff0000;" x="210.930248" xlink:href="#mb0682adf71" y="227.552589"/>
     <use style="fill:#ff0000;stroke:#ff0000;" x="211.882314" xlink:href="#mb0682adf71" y="227.552589"/>
     <use style="fill:#ff0000;stroke:#ff0000;" x="212.83438" xlink:href="#mb0682adf71" y="227.552589"/>
     <use style="fill:#ff0000;stroke:#ff0000;" x="213.786446" xlink:href="#mb0682adf71" y="210.687495"/>
     <use style="fill:#ff0000;stroke:#ff0000;" x="214.738512" xlink:href="#mb0682adf71" y="210.687495"/>
     <use style="fill:#ff0000;stroke:#ff0000;" x="215.690579" xlink:href="#mb0682adf71" y="210.687495"/>
     <use style="fill:#ff0000;stroke:#ff0000;" x="216.642645" xlink:href="#mb0682adf71" y="230.147856"/>
     <use style="fill:#ff0000;stroke:#ff0000;" x="217.594711" xlink:href="#mb0682adf71" y="245.252072"/>
     <use style="fill:#ff0000;stroke:#ff0000;" x="218.546777" xlink:href="#mb0682adf71" y="245.252072"/>
     <use style="fill:#ff0000;stroke:#ff0000;" x="219.498843" xlink:href="#mb0682adf71" y="245.252072"/>
     <use style="fill:#ff0000;stroke:#ff0000;" x="220.450909" xlink:href="#mb0682adf71" y="245.252072"/>
     <use style="fill:#ff0000;stroke:#ff0000;" x="221.402975" xlink:href="#mb0682adf71" y="245.03596"/>
     <use style="fill:#ff0000;stroke:#ff0000;" x="222.355041" xlink:href="#mb0682adf71" y="245.03596"/>
     <use style="fill:#ff0000;stroke:#ff0000;" x="223.307107" xlink:href="#mb0682adf71" y="226.176666"/>
     <use style="fill:#ff0000;stroke:#ff0000;" x="224.259174" xlink:href="#mb0682adf71" y="226.176666"/>
     <use style="fill:#ff0000;stroke:#ff0000;" x="225.21124" xlink:href="#mb0682adf71" y="207.97783"/>
     <use style="fill:#ff0000;stroke:#ff0000;" x="226.163306" xlink:href="#mb0682adf71" y="207.97783"/>
     <use style="fill:#ff0000;stroke:#ff0000;" x="227.115372" xlink:href="#mb0682adf71" y="187.889136"/>
     <use style="fill:#ff0000;stroke:#ff0000;" x="228.067438" xlink:href="#mb0682adf71" y="187.889136"/>
     <use style="fill:#ff0000;stroke:#ff0000;" x="229.019504" xlink:href="#mb0682adf71" y="187.889136"/>
     <use style="fill:#ff0000;stroke:#ff0000;" x="229.97157" xlink:href="#mb0682adf71" y="169.047577"/>
     <use style="fill:#ff0000;stroke:#ff0000;" x="230.923636" xlink:href="#mb0682adf71" y="169.047577"/>
     <use style="fill:#ff0000;stroke:#ff0000;" x="231.875702" xlink:href="#mb0682adf71" y="173.501136"/>
     <use style="fill:#ff0000;stroke:#ff0000;" x="232.827769" xlink:href="#mb0682adf71" y="173.501136"/>
     <use style="fill:#ff0000;stroke:#ff0000;" x="233.779835" xlink:href="#mb0682adf71" y="173.501136"/>
     <use style="fill:#ff0000;stroke:#ff0000;" x="234.731901" xlink:href="#mb0682adf71" y="191.294198"/>
     <use style="fill:#ff0000;stroke:#ff0000;" x="235.683967" xlink:href="#mb0682adf71" y="191.294198"/>
     <use style="fill:#ff0000;stroke:#ff0000;" x="236.636033" xlink:href="#mb0682adf71" y="208.012537"/>
     <use style="fill:#ff0000;stroke:#ff0000;" x="237.588099" xlink:href="#mb0682adf71" y="203.324028"/>
     <use style="fill:#ff0000;stroke:#ff0000;" x="238.540165" xlink:href="#mb0682adf71" y="203.324028"/>
     <use style="fill:#ff0000;stroke:#ff0000;" x="239.492231" xlink:href="#mb0682adf71" y="220.839832"/>
     <use style="fill:#ff0000;stroke:#ff0000;" x="240.444298" xlink:href="#mb0682adf71" y="220.839832"/>
     <use style="fill:#ff0000;stroke:#ff0000;" x="241.396364" xlink:href="#mb0682adf71" y="201.035074"/>
     <use style="fill:#ff0000;stroke:#ff0000;" x="242.34843" xlink:href="#mb0682adf71" y="201.035074"/>
     <use style="fill:#ff0000;stroke:#ff0000;" x="243.300496" xlink:href="#mb0682adf71" y="206.591517"/>
     <use style="fill:#ff0000;stroke:#ff0000;" x="244.252562" xlink:href="#mb0682adf71" y="206.591517"/>
     <use style="fill:#ff0000;stroke:#ff0000;" x="245.204628" xlink:href="#mb0682adf71" y="208.433838"/>
     <use style="fill:#ff0000;stroke:#ff0000;" x="246.156694" xlink:href="#mb0682adf71" y="208.433838"/>
     <use style="fill:#ff0000;stroke:#ff0000;" x="247.10876" xlink:href="#mb0682adf71" y="206.98765"/>
     <use style="fill:#ff0000;stroke:#ff0000;" x="248.060826" xlink:href="#mb0682adf71" y="206.98765"/>
     <use style="fill:#ff0000;stroke:#ff0000;" x="249.012893" xlink:href="#mb0682adf71" y="188.190485"/>
     <use style="fill:#ff0000;stroke:#ff0000;" x="249.964959" xlink:href="#mb0682adf71" y="203.93548"/>
     <use style="fill:#ff0000;stroke:#ff0000;" x="250.917025" xlink:href="#mb0682adf71" y="203.93548"/>
     <use style="fill:#ff0000;stroke:#ff0000;" x="251.869091" xlink:href="#mb0682adf71" y="203.93548"/>
     <use style="fill:#ff0000;stroke:#ff0000;" x="252.821157" xlink:href="#mb0682adf71" y="203.93548"/>
     <use style="fill:#ff0000;stroke:#ff0000;" x="253.773223" xlink:href="#mb0682adf71" y="203.93548"/>
     <use style="fill:#ff0000;stroke:#ff0000;" x="254.725289" xlink:href="#mb0682adf71" y="203.93548"/>
     <use style="fill:#ff0000;stroke:#ff0000;" x="255.677355" xlink:href="#mb0682adf71" y="203.93548"/>
     <use style="fill:#ff0000;stroke:#ff0000;" x="256.629421" xlink:href="#mb0682adf71" y="203.93548"/>
     <use style="fill:#ff0000;stroke:#ff0000;" x="257.581488" xlink:href="#mb0682adf71" y="203.93548"/>
     <use style="fill:#ff0000;stroke:#ff0000;" x="258.533554" xlink:href="#mb0682adf71" y="203.93548"/>
     <use style="fill:#ff0000;stroke:#ff0000;" x="259.48562" xlink:href="#mb0682adf71" y="203.93548"/>
     <use style="fill:#ff0000;stroke:#ff0000;" x="260.437686" xlink:href="#mb0682adf71" y="203.93548"/>
     <use style="fill:#ff0000;stroke:#ff0000;" x="261.389752" xlink:href="#mb0682adf71" y="203.93548"/>
     <use style="fill:#ff0000;stroke:#ff0000;" x="262.341818" xlink:href="#mb0682adf71" y="203.93548"/>
     <use style="fill:#ff0000;stroke:#ff0000;" x="263.293884" xlink:href="#mb0682adf71" y="203.93548"/>
     <use style="fill:#ff0000;stroke:#ff0000;" x="264.24595" xlink:href="#mb0682adf71" y="203.93548"/>
     <use style="fill:#ff0000;stroke:#ff0000;" x="265.198017" xlink:href="#mb0682adf71" y="203.93548"/>
     <use style="fill:#ff0000;stroke:#ff0000;" x="266.150083" xlink:href="#mb0682adf71" y="203.93548"/>
     <use style="fill:#ff0000;stroke:#ff0000;" x="267.102149" xlink:href="#mb0682adf71" y="203.93548"/>
     <use style="fill:#ff0000;stroke:#ff0000;" x="268.054215" xlink:href="#mb0682adf71" y="203.93548"/>
     <use style="fill:#ff0000;stroke:#ff0000;" x="269.006281" xlink:href="#mb0682adf71" y="203.93548"/>
     <use style="fill:#ff0000;stroke:#ff0000;" x="269.958347" xlink:href="#mb0682adf71" y="203.93548"/>
     <use style="fill:#ff0000;stroke:#ff0000;" x="270.910413" xlink:href="#mb0682adf71" y="203.93548"/>
     <use style="fill:#ff0000;stroke:#ff0000;" x="271.862479" xlink:href="#mb0682adf71" y="203.93548"/>
     <use style="fill:#ff0000;stroke:#ff0000;" x="272.814545" xlink:href="#mb0682adf71" y="203.93548"/>
     <use style="fill:#ff0000;stroke:#ff0000;" x="273.766612" xlink:href="#mb0682adf71" y="203.93548"/>
     <use style="fill:#ff0000;stroke:#ff0000;" x="274.718678" xlink:href="#mb0682adf71" y="203.93548"/>
     <use style="fill:#ff0000;stroke:#ff0000;" x="275.670744" xlink:href="#mb0682adf71" y="203.93548"/>
     <use style="fill:#ff0000;stroke:#ff0000;" x="276.62281" xlink:href="#mb0682adf71" y="203.93548"/>
     <use style="fill:#ff0000;stroke:#ff0000;" x="277.574876" xlink:href="#mb0682adf71" y="203.93548"/>
     <use style="fill:#ff0000;stroke:#ff0000;" x="278.526942" xlink:href="#mb0682adf71" y="203.93548"/>
     <use style="fill:#ff0000;stroke:#ff0000;" x="279.479008" xlink:href="#mb0682adf71" y="203.93548"/>
     <use style="fill:#ff0000;stroke:#ff0000;" x="280.431074" xlink:href="#mb0682adf71" y="203.93548"/>
     <use style="fill:#ff0000;stroke:#ff0000;" x="281.38314" xlink:href="#mb0682adf71" y="203.93548"/>
     <use style="fill:#ff0000;stroke:#ff0000;" x="282.335207" xlink:href="#mb0682adf71" y="203.93548"/>
     <use style="fill:#ff0000;stroke:#ff0000;" x="283.287273" xlink:href="#mb0682adf71" y="203.93548"/>
     <use style="fill:#ff0000;stroke:#ff0000;" x="284.239339" xlink:href="#mb0682adf71" y="203.93548"/>
     <use style="fill:#ff0000;stroke:#ff0000;" x="285.191405" xlink:href="#mb0682adf71" y="203.93548"/>
     <use style="fill:#ff0000;stroke:#ff0000;" x="286.143471" xlink:href="#mb0682adf71" y="203.93548"/>
     <use style="fill:#ff0000;stroke:#ff0000;" x="287.095537" xlink:href="#mb0682adf71" y="203.93548"/>
     <use style="fill:#ff0000;stroke:#ff0000;" x="288.047603" xlink:href="#mb0682adf71" y="203.93548"/>
     <use style="fill:#ff0000;stroke:#ff0000;" x="288.999669" xlink:href="#mb0682adf71" y="203.93548"/>
     <use style="fill:#ff0000;stroke:#ff0000;" x="289.951736" xlink:href="#mb0682adf71" y="203.93548"/>
     <use style="fill:#ff0000;stroke:#ff0000;" x="290.903802" xlink:href="#mb0682adf71" y="203.93548"/>
     <use style="fill:#ff0000;stroke:#ff0000;" x="291.855868" xlink:href="#mb0682adf71" y="203.93548"/>
     <use style="fill:#ff0000;stroke:#ff0000;" x="292.807934" xlink:href="#mb0682adf71" y="203.93548"/>
     <use style="fill:#ff0000;stroke:#ff0000;" x="293.76" xlink:href="#mb0682adf71" y="203.93548"/>
     <use style="fill:#ff0000;stroke:#ff0000;" x="294.712066" xlink:href="#mb0682adf71" y="203.93548"/>
     <use style="fill:#ff0000;stroke:#ff0000;" x="295.664132" xlink:href="#mb0682adf71" y="203.93548"/>
     <use style="fill:#ff0000;stroke:#ff0000;" x="296.616198" xlink:href="#mb0682adf71" y="203.93548"/>
     <use style="fill:#ff0000;stroke:#ff0000;" x="297.568264" xlink:href="#mb0682adf71" y="203.93548"/>
     <use style="fill:#ff0000;stroke:#ff0000;" x="298.520331" xlink:href="#mb0682adf71" y="203.93548"/>
     <use style="fill:#ff0000;stroke:#ff0000;" x="299.472397" xlink:href="#mb0682adf71" y="203.93548"/>
     <use style="fill:#ff0000;stroke:#ff0000;" x="300.424463" xlink:href="#mb0682adf71" y="203.93548"/>
     <use style="fill:#ff0000;stroke:#ff0000;" x="301.376529" xlink:href="#mb0682adf71" y="203.93548"/>
     <use style="fill:#ff0000;stroke:#ff0000;" x="302.328595" xlink:href="#mb0682adf71" y="203.93548"/>
     <use style="fill:#ff0000;stroke:#ff0000;" x="303.280661" xlink:href="#mb0682adf71" y="203.93548"/>
     <use style="fill:#ff0000;stroke:#ff0000;" x="304.232727" xlink:href="#mb0682adf71" y="203.93548"/>
     <use style="fill:#ff0000;stroke:#ff0000;" x="305.184793" xlink:href="#mb0682adf71" y="203.93548"/>
     <use style="fill:#ff0000;stroke:#ff0000;" x="306.13686" xlink:href="#mb0682adf71" y="203.93548"/>
     <use style="fill:#ff0000;stroke:#ff0000;" x="307.088926" xlink:href="#mb0682adf71" y="203.93548"/>
     <use style="fill:#ff0000;stroke:#ff0000;" x="308.040992" xlink:href="#mb0682adf71" y="203.93548"/>
     <use style="fill:#ff0000;stroke:#ff0000;" x="308.993058" xlink:href="#mb0682adf71" y="203.93548"/>
     <use style="fill:#ff0000;stroke:#ff0000;" x="309.945124" xlink:href="#mb0682adf71" y="203.93548"/>
     <use style="fill:#ff0000;stroke:#ff0000;" x="310.89719" xlink:href="#mb0682adf71" y="203.93548"/>
     <use style="fill:#ff0000;stroke:#ff0000;" x="311.849256" xlink:href="#mb0682adf71" y="203.93548"/>
     <use style="fill:#ff0000;stroke:#ff0000;" x="312.801322" xlink:href="#mb0682adf71" y="203.93548"/>
     <use style="fill:#ff0000;stroke:#ff0000;" x="313.753388" xlink:href="#mb0682adf71" y="203.93548"/>
     <use style="fill:#ff0000;stroke:#ff0000;" x="314.705455" xlink:href="#mb0682adf71" y="203.93548"/>
     <use style="fill:#ff0000;stroke:#ff0000;" x="315.657521" xlink:href="#mb0682adf71" y="203.93548"/>
     <use style="fill:#ff0000;stroke:#ff0000;" x="316.609587" xlink:href="#mb0682adf71" y="203.93548"/>
     <use style="fill:#ff0000;stroke:#ff0000;" x="317.561653" xlink:href="#mb0682adf71" y="203.93548"/>
     <use style="fill:#ff0000;stroke:#ff0000;" x="318.513719" xlink:href="#mb0682adf71" y="203.93548"/>
     <use style="fill:#ff0000;stroke:#ff0000;" x="319.465785" xlink:href="#mb0682adf71" y="203.93548"/>
     <use style="fill:#ff0000;stroke:#ff0000;" x="320.417851" xlink:href="#mb0682adf71" y="203.93548"/>
     <use style="fill:#ff0000;stroke:#ff0000;" x="321.369917" xlink:href="#mb0682adf71" y="203.93548"/>
     <use style="fill:#ff0000;stroke:#ff0000;" x="322.321983" xlink:href="#mb0682adf71" y="203.93548"/>
     <use style="fill:#ff0000;stroke:#ff0000;" x="323.27405" xlink:href="#mb0682adf71" y="203.93548"/>
     <use style="fill:#ff0000;stroke:#ff0000;" x="324.226116" xlink:href="#mb0682adf71" y="203.93548"/>
     <use style="fill:#ff0000;stroke:#ff0000;" x="325.178182" xlink:href="#mb0682adf71" y="203.93548"/>
     <use style="fill:#ff0000;stroke:#ff0000;" x="326.130248" xlink:href="#mb0682adf71" y="203.93548"/>
     <use style="fill:#ff0000;stroke:#ff0000;" x="327.082314" xlink:href="#mb0682adf71" y="203.93548"/>
     <use style="fill:#ff0000;stroke:#ff0000;" x="328.03438" xlink:href="#mb0682adf71" y="203.93548"/>
     <use style="fill:#ff0000;stroke:#ff0000;" x="328.986446" xlink:href="#mb0682adf71" y="203.93548"/>
     <use style="fill:#ff0000;stroke:#ff0000;" x="329.938512" xlink:href="#mb0682adf71" y="203.93548"/>
     <use style="fill:#ff0000;stroke:#ff0000;" x="330.890579" xlink:href="#mb0682adf71" y="203.93548"/>
     <use style="fill:#ff0000;stroke:#ff0000;" x="331.842645" xlink:href="#mb0682adf71" y="203.93548"/>
     <use style="fill:#ff0000;stroke:#ff0000;" x="332.794711" xlink:href="#mb0682adf71" y="203.93548"/>
     <use style="fill:#ff0000;stroke:#ff0000;" x="333.746777" xlink:href="#mb0682adf71" y="203.93548"/>
     <use style="fill:#ff0000;stroke:#ff0000;" x="334.698843" xlink:href="#mb0682adf71" y="203.93548"/>
     <use style="fill:#ff0000;stroke:#ff0000;" x="335.650909" xlink:href="#mb0682adf71" y="203.93548"/>
     <use style="fill:#ff0000;stroke:#ff0000;" x="336.602975" xlink:href="#mb0682adf71" y="203.93548"/>
     <use style="fill:#ff0000;stroke:#ff0000;" x="337.555041" xlink:href="#mb0682adf71" y="203.93548"/>
     <use style="fill:#ff0000;stroke:#ff0000;" x="338.507107" xlink:href="#mb0682adf71" y="203.93548"/>
     <use style="fill:#ff0000;stroke:#ff0000;" x="339.459174" xlink:href="#mb0682adf71" y="203.93548"/>
     <use style="fill:#ff0000;stroke:#ff0000;" x="340.41124" xlink:href="#mb0682adf71" y="203.93548"/>
     <use style="fill:#ff0000;stroke:#ff0000;" x="341.363306" xlink:href="#mb0682adf71" y="203.93548"/>
     <use style="fill:#ff0000;stroke:#ff0000;" x="342.315372" xlink:href="#mb0682adf71" y="203.93548"/>
     <use style="fill:#ff0000;stroke:#ff0000;" x="343.267438" xlink:href="#mb0682adf71" y="203.93548"/>
     <use style="fill:#ff0000;stroke:#ff0000;" x="344.219504" xlink:href="#mb0682adf71" y="203.93548"/>
     <use style="fill:#ff0000;stroke:#ff0000;" x="345.17157" xlink:href="#mb0682adf71" y="203.93548"/>
     <use style="fill:#ff0000;stroke:#ff0000;" x="346.123636" xlink:href="#mb0682adf71" y="203.93548"/>
     <use style="fill:#ff0000;stroke:#ff0000;" x="347.075702" xlink:href="#mb0682adf71" y="203.93548"/>
     <use style="fill:#ff0000;stroke:#ff0000;" x="348.027769" xlink:href="#mb0682adf71" y="203.93548"/>
     <use style="fill:#ff0000;stroke:#ff0000;" x="348.979835" xlink:href="#mb0682adf71" y="203.93548"/>
     <use style="fill:#ff0000;stroke:#ff0000;" x="349.931901" xlink:href="#mb0682adf71" y="203.93548"/>
     <use style="fill:#ff0000;stroke:#ff0000;" x="350.883967" xlink:href="#mb0682adf71" y="203.93548"/>
     <use style="fill:#ff0000;stroke:#ff0000;" x="351.836033" xlink:href="#mb0682adf71" y="203.93548"/>
     <use style="fill:#ff0000;stroke:#ff0000;" x="352.788099" xlink:href="#mb0682adf71" y="203.93548"/>
     <use style="fill:#ff0000;stroke:#ff0000;" x="353.740165" xlink:href="#mb0682adf71" y="203.93548"/>
     <use style="fill:#ff0000;stroke:#ff0000;" x="354.692231" xlink:href="#mb0682adf71" y="203.93548"/>
     <use style="fill:#ff0000;stroke:#ff0000;" x="355.644298" xlink:href="#mb0682adf71" y="203.93548"/>
     <use style="fill:#ff0000;stroke:#ff0000;" x="356.596364" xlink:href="#mb0682adf71" y="203.93548"/>
     <use style="fill:#ff0000;stroke:#ff0000;" x="357.54843" xlink:href="#mb0682adf71" y="203.93548"/>
     <use style="fill:#ff0000;stroke:#ff0000;" x="358.500496" xlink:href="#mb0682adf71" y="203.93548"/>
     <use style="fill:#ff0000;stroke:#ff0000;" x="359.452562" xlink:href="#mb0682adf71" y="203.93548"/>
     <use style="fill:#ff0000;stroke:#ff0000;" x="360.404628" xlink:href="#mb0682adf71" y="203.93548"/>
     <use style="fill:#ff0000;stroke:#ff0000;" x="361.356694" xlink:href="#mb0682adf71" y="203.93548"/>
     <use style="fill:#ff0000;stroke:#ff0000;" x="362.30876" xlink:href="#mb0682adf71" y="203.93548"/>
     <use style="fill:#ff0000;stroke:#ff0000;" x="363.260826" xlink:href="#mb0682adf71" y="203.93548"/>
     <use style="fill:#ff0000;stroke:#ff0000;" x="364.212893" xlink:href="#mb0682adf71" y="203.93548"/>
     <use style="fill:#ff0000;stroke:#ff0000;" x="365.164959" xlink:href="#mb0682adf71" y="203.93548"/>
     <use style="fill:#ff0000;stroke:#ff0000;" x="366.117025" xlink:href="#mb0682adf71" y="203.93548"/>
     <use style="fill:#ff0000;stroke:#ff0000;" x="367.069091" xlink:href="#mb0682adf71" y="203.93548"/>
     <use style="fill:#ff0000;stroke:#ff0000;" x="368.021157" xlink:href="#mb0682adf71" y="203.93548"/>
     <use style="fill:#ff0000;stroke:#ff0000;" x="368.973223" xlink:href="#mb0682adf71" y="203.93548"/>
     <use style="fill:#ff0000;stroke:#ff0000;" x="369.925289" xlink:href="#mb0682adf71" y="203.93548"/>
     <use style="fill:#ff0000;stroke:#ff0000;" x="370.877355" xlink:href="#mb0682adf71" y="203.93548"/>
     <use style="fill:#ff0000;stroke:#ff0000;" x="371.829421" xlink:href="#mb0682adf71" y="203.93548"/>
     <use style="fill:#ff0000;stroke:#ff0000;" x="372.781488" xlink:href="#mb0682adf71" y="203.93548"/>
     <use style="fill:#ff0000;stroke:#ff0000;" x="373.733554" xlink:href="#mb0682adf71" y="203.93548"/>
     <use style="fill:#ff0000;stroke:#ff0000;" x="374.68562" xlink:href="#mb0682adf71" y="203.93548"/>
     <use style="fill:#ff0000;stroke:#ff0000;" x="375.637686" xlink:href="#mb0682adf71" y="203.93548"/>
     <use style="fill:#ff0000;stroke:#ff0000;" x="376.589752" xlink:href="#mb0682adf71" y="203.93548"/>
     <use style="fill:#ff0000;stroke:#ff0000;" x="377.541818" xlink:href="#mb0682adf71" y="203.93548"/>
     <use style="fill:#ff0000;stroke:#ff0000;" x="378.493884" xlink:href="#mb0682adf71" y="203.93548"/>
     <use style="fill:#ff0000;stroke:#ff0000;" x="379.44595" xlink:href="#mb0682adf71" y="203.93548"/>
     <use style="fill:#ff0000;stroke:#ff0000;" x="380.398017" xlink:href="#mb0682adf71" y="203.93548"/>
     <use style="fill:#ff0000;stroke:#ff0000;" x="381.350083" xlink:href="#mb0682adf71" y="203.93548"/>
     <use style="fill:#ff0000;stroke:#ff0000;" x="382.302149" xlink:href="#mb0682adf71" y="203.93548"/>
     <use style="fill:#ff0000;stroke:#ff0000;" x="383.254215" xlink:href="#mb0682adf71" y="203.93548"/>
     <use style="fill:#ff0000;stroke:#ff0000;" x="384.206281" xlink:href="#mb0682adf71" y="203.93548"/>
     <use style="fill:#ff0000;stroke:#ff0000;" x="385.158347" xlink:href="#mb0682adf71" y="203.93548"/>
     <use style="fill:#ff0000;stroke:#ff0000;" x="386.110413" xlink:href="#mb0682adf71" y="203.93548"/>
     <use style="fill:#ff0000;stroke:#ff0000;" x="387.062479" xlink:href="#mb0682adf71" y="203.93548"/>
     <use style="fill:#ff0000;stroke:#ff0000;" x="388.014545" xlink:href="#mb0682adf71" y="203.93548"/>
     <use style="fill:#ff0000;stroke:#ff0000;" x="388.966612" xlink:href="#mb0682adf71" y="203.93548"/>
     <use style="fill:#ff0000;stroke:#ff0000;" x="389.918678" xlink:href="#mb0682adf71" y="203.93548"/>
     <use style="fill:#ff0000;stroke:#ff0000;" x="390.870744" xlink:href="#mb0682adf71" y="203.93548"/>
     <use style="fill:#ff0000;stroke:#ff0000;" x="391.82281" xlink:href="#mb0682adf71" y="203.93548"/>
     <use style="fill:#ff0000;stroke:#ff0000;" x="392.774876" xlink:href="#mb0682adf71" y="203.93548"/>
     <use style="fill:#ff0000;stroke:#ff0000;" x="393.726942" xlink:href="#mb0682adf71" y="203.93548"/>
     <use style="fill:#ff0000;stroke:#ff0000;" x="394.679008" xlink:href="#mb0682adf71" y="203.93548"/>
     <use style="fill:#ff0000;stroke:#ff0000;" x="395.631074" xlink:href="#mb0682adf71" y="203.93548"/>
     <use style="fill:#ff0000;stroke:#ff0000;" x="396.58314" xlink:href="#mb0682adf71" y="203.93548"/>
     <use style="fill:#ff0000;stroke:#ff0000;" x="397.535207" xlink:href="#mb0682adf71" y="203.93548"/>
     <use style="fill:#ff0000;stroke:#ff0000;" x="398.487273" xlink:href="#mb0682adf71" y="203.93548"/>
    </g>
   </g>
   <g id="patch_3">
    <path d="M 57.6 307.584 
L 57.6 41.472 
" style="fill:none;stroke:#000000;stroke-linecap:square;stroke-linejoin:miter;stroke-width:0.8;"/>
   </g>
   <g id="patch_4">
    <path d="M 414.72 307.584 
L 414.72 41.472 
" style="fill:none;stroke:#000000;stroke-linecap:square;stroke-linejoin:miter;stroke-width:0.8;"/>
   </g>
   <g id="patch_5">
    <path d="M 57.6 307.584 
L 414.72 307.584 
" style="fill:none;stroke:#000000;stroke-linecap:square;stroke-linejoin:miter;stroke-width:0.8;"/>
   </g>
   <g id="patch_6">
    <path d="M 57.6 41.472 
L 414.72 41.472 
" style="fill:none;stroke:#000000;stroke-linecap:square;stroke-linejoin:miter;stroke-width:0.8;"/>
   </g>
  </g>
 </g>
 <defs>
  <clipPath id="pe6cad5c1d1">
   <rect height="266.112" width="357.12" x="57.6" y="41.472"/>
  </clipPath>
 </defs>
</svg>
