<?xml version="1.0" encoding="utf-8" standalone="no"?>
<!DOCTYPE svg PUBLIC "-//W3C//DTD SVG 1.1//EN"
  "http://www.w3.org/Graphics/SVG/1.1/DTD/svg11.dtd">
<!-- Created with matplotlib (https://matplotlib.org/) -->
<svg height="345.6pt" version="1.1" viewBox="0 0 460.8 345.6" width="460.8pt" xmlns="http://www.w3.org/2000/svg" xmlns:xlink="http://www.w3.org/1999/xlink">
 <defs>
  <style type="text/css">
*{stroke-linecap:butt;stroke-linejoin:round;}
  </style>
 </defs>
 <g id="figure_1">
  <g id="patch_1">
   <path d="M 0 345.6 
L 460.8 345.6 
L 460.8 0 
L 0 0 
z
" style="fill:#ffffff;"/>
  </g>
  <g id="axes_1">
   <g id="patch_2">
    <path d="M 57.6 307.584 
L 414.72 307.584 
L 414.72 41.472 
L 57.6 41.472 
z
" style="fill:#ffffff;"/>
   </g>
   <g id="line2d_1">
    <path clip-path="url(#pbb5b14f284)" d="M 73.832727 53.568 
L 75.244269 59.140792 
L 78.067352 59.140792 
L 79.478893 87.017736 
L 80.890435 85.121569 
L 83.713518 85.121569 
L 85.125059 112.020516 
L 86.536601 112.020516 
L 87.948142 137.42933 
L 89.359684 137.42933 
L 90.771225 163.60854 
L 93.594308 163.60854 
L 95.00585 188.468266 
L 96.417391 188.468266 
L 97.828933 181.137654 
L 99.240474 181.137654 
L 100.652016 206.389736 
L 104.88664 206.389736 
L 106.298182 229.895475 
L 107.709723 229.895475 
L 109.121265 219.171953 
L 110.532806 219.171953 
L 111.944348 208.644715 
L 113.355889 208.644715 
L 114.767431 197.944618 
L 116.178972 197.944618 
L 117.590514 206.027906 
L 120.413597 206.027906 
L 121.825138 205.029703 
L 124.648221 205.029703 
L 126.059763 202.880372 
L 127.471304 201.886649 
L 130.294387 201.886649 
L 131.705929 191.614739 
L 133.11747 191.614739 
L 134.529012 200.180664 
L 135.940553 200.180664 
L 137.352095 197.256453 
L 141.586719 197.256453 
L 142.998261 193.756303 
L 144.409802 193.756303 
L 145.821344 202.046569 
L 147.232885 200.500525 
L 148.644427 200.500525 
L 150.055968 208.522084 
L 151.46751 208.522084 
L 152.879051 198.461324 
L 155.702134 198.461324 
L 157.113676 187.543532 
L 158.525217 195.021348 
L 159.936759 195.021348 
L 161.3483 193.055778 
L 162.759842 193.055778 
L 164.171383 189.405298 
L 165.582925 189.405298 
L 166.994466 197.748522 
L 168.406008 197.748522 
L 169.817549 188.546335 
L 171.229091 196.630554 
L 174.052174 196.630554 
L 175.463715 205.270878 
L 176.875257 204.219474 
L 179.69834 204.219474 
L 181.109881 213.082994 
L 182.521423 213.082994 
L 183.932964 202.730024 
L 185.344506 202.730024 
L 186.756047 211.804824 
L 189.57913 211.69378 
L 192.402213 211.69378 
L 193.813755 219.495186 
L 195.225296 219.495186 
L 196.636838 227.670783 
L 198.048379 227.670783 
L 199.459921 227.134719 
L 200.871462 227.134719 
L 202.283004 234.691998 
L 203.694545 234.691998 
L 205.106087 230.843965 
L 206.517628 230.843965 
L 207.92917 238.54717 
L 209.340711 238.54717 
L 210.752253 246.190023 
L 213.575336 246.190023 
L 214.986877 253.513183 
L 216.398419 242.431768 
L 219.221502 242.431768 
L 220.633043 232.245067 
L 223.456126 232.245067 
L 224.867668 239.561034 
L 226.279209 239.561034 
L 227.690751 247.807223 
L 229.102292 247.807223 
L 230.513834 237.490674 
L 243.217708 237.490674 
L 244.629249 233.666314 
L 246.040791 223.898429 
L 251.686957 223.898429 
L 253.098498 231.911556 
L 254.51004 231.911556 
L 257.333123 248.362736 
L 258.744664 248.362736 
L 260.156206 236.967942 
L 261.567747 236.967942 
L 262.979289 227.214823 
L 264.39083 227.214823 
L 265.802372 228.223729 
L 267.213913 236.64863 
L 270.036996 236.64863 
L 271.448538 237.515324 
L 272.860079 237.515324 
L 274.271621 245.477949 
L 275.683162 245.477949 
L 277.094704 252.583712 
L 278.506245 252.583712 
L 279.917787 260.069793 
L 284.152411 260.069793 
L 285.563953 268.143216 
L 288.387036 268.143216 
L 289.798577 268.353047 
L 291.210119 268.353047 
L 292.62166 267.643973 
L 294.033202 267.643973 
L 295.444743 273.7895 
L 296.856285 282.253693 
L 298.267826 282.253693 
L 299.679368 289.573273 
L 301.090909 289.573273 
L 302.502451 295.488 
L 303.913992 295.488 
L 305.325534 283.917184 
L 308.148617 283.917184 
L 309.560158 273.93708 
L 310.9717 273.93708 
L 312.383241 281.396766 
L 313.794783 281.396766 
L 315.206324 277.534386 
L 316.617866 277.534386 
L 318.029407 265.877441 
L 320.85249 265.877441 
L 322.264032 263.383799 
L 323.675573 253.466632 
L 325.087115 253.466632 
L 326.498656 241.737788 
L 327.910198 241.737788 
L 329.321739 230.367699 
L 330.733281 230.367699 
L 332.144822 237.72959 
L 333.556364 237.72959 
L 334.967905 246.704683 
L 398.487273 246.704683 
L 398.487273 246.704683 
" style="fill:none;stroke:#ff0000;stroke-linecap:square;stroke-width:12;"/>
    <defs>
     <path d="M 0 3 
C 0.795609 3 1.55874 2.683901 2.12132 2.12132 
C 2.683901 1.55874 3 0.795609 3 0 
C 3 -0.795609 2.683901 -1.55874 2.12132 -2.12132 
C 1.55874 -2.683901 0.795609 -3 0 -3 
C -0.795609 -3 -1.55874 -2.683901 -2.12132 -2.12132 
C -2.683901 -1.55874 -3 -0.795609 -3 0 
C -3 0.795609 -2.683901 1.55874 -2.12132 2.12132 
C -1.55874 2.683901 -0.795609 3 0 3 
z
" id="mde3753be15" style="stroke:#ff0000;"/>
    </defs>
    <g clip-path="url(#pbb5b14f284)">
     <use style="fill:#ff0000;stroke:#ff0000;" x="73.832727" xlink:href="#mde3753be15" y="53.568"/>
     <use style="fill:#ff0000;stroke:#ff0000;" x="75.244269" xlink:href="#mde3753be15" y="59.140792"/>
     <use style="fill:#ff0000;stroke:#ff0000;" x="76.65581" xlink:href="#mde3753be15" y="59.140792"/>
     <use style="fill:#ff0000;stroke:#ff0000;" x="78.067352" xlink:href="#mde3753be15" y="59.140792"/>
     <use style="fill:#ff0000;stroke:#ff0000;" x="79.478893" xlink:href="#mde3753be15" y="87.017736"/>
     <use style="fill:#ff0000;stroke:#ff0000;" x="80.890435" xlink:href="#mde3753be15" y="85.121569"/>
     <use style="fill:#ff0000;stroke:#ff0000;" x="82.301976" xlink:href="#mde3753be15" y="85.121569"/>
     <use style="fill:#ff0000;stroke:#ff0000;" x="83.713518" xlink:href="#mde3753be15" y="85.121569"/>
     <use style="fill:#ff0000;stroke:#ff0000;" x="85.125059" xlink:href="#mde3753be15" y="112.020516"/>
     <use style="fill:#ff0000;stroke:#ff0000;" x="86.536601" xlink:href="#mde3753be15" y="112.020516"/>
     <use style="fill:#ff0000;stroke:#ff0000;" x="87.948142" xlink:href="#mde3753be15" y="137.42933"/>
     <use style="fill:#ff0000;stroke:#ff0000;" x="89.359684" xlink:href="#mde3753be15" y="137.42933"/>
     <use style="fill:#ff0000;stroke:#ff0000;" x="90.771225" xlink:href="#mde3753be15" y="163.60854"/>
     <use style="fill:#ff0000;stroke:#ff0000;" x="92.182767" xlink:href="#mde3753be15" y="163.60854"/>
     <use style="fill:#ff0000;stroke:#ff0000;" x="93.594308" xlink:href="#mde3753be15" y="163.60854"/>
     <use style="fill:#ff0000;stroke:#ff0000;" x="95.00585" xlink:href="#mde3753be15" y="188.468266"/>
     <use style="fill:#ff0000;stroke:#ff0000;" x="96.417391" xlink:href="#mde3753be15" y="188.468266"/>
     <use style="fill:#ff0000;stroke:#ff0000;" x="97.828933" xlink:href="#mde3753be15" y="181.137654"/>
     <use style="fill:#ff0000;stroke:#ff0000;" x="99.240474" xlink:href="#mde3753be15" y="181.137654"/>
     <use style="fill:#ff0000;stroke:#ff0000;" x="100.652016" xlink:href="#mde3753be15" y="206.389736"/>
     <use style="fill:#ff0000;stroke:#ff0000;" x="102.063557" xlink:href="#mde3753be15" y="206.389736"/>
     <use style="fill:#ff0000;stroke:#ff0000;" x="103.475099" xlink:href="#mde3753be15" y="206.389736"/>
     <use style="fill:#ff0000;stroke:#ff0000;" x="104.88664" xlink:href="#mde3753be15" y="206.389736"/>
     <use style="fill:#ff0000;stroke:#ff0000;" x="106.298182" xlink:href="#mde3753be15" y="229.895475"/>
     <use style="fill:#ff0000;stroke:#ff0000;" x="107.709723" xlink:href="#mde3753be15" y="229.895475"/>
     <use style="fill:#ff0000;stroke:#ff0000;" x="109.121265" xlink:href="#mde3753be15" y="219.171953"/>
     <use style="fill:#ff0000;stroke:#ff0000;" x="110.532806" xlink:href="#mde3753be15" y="219.171953"/>
     <use style="fill:#ff0000;stroke:#ff0000;" x="111.944348" xlink:href="#mde3753be15" y="208.644715"/>
     <use style="fill:#ff0000;stroke:#ff0000;" x="113.355889" xlink:href="#mde3753be15" y="208.644715"/>
     <use style="fill:#ff0000;stroke:#ff0000;" x="114.767431" xlink:href="#mde3753be15" y="197.944618"/>
     <use style="fill:#ff0000;stroke:#ff0000;" x="116.178972" xlink:href="#mde3753be15" y="197.944618"/>
     <use style="fill:#ff0000;stroke:#ff0000;" x="117.590514" xlink:href="#mde3753be15" y="206.027906"/>
     <use style="fill:#ff0000;stroke:#ff0000;" x="119.002055" xlink:href="#mde3753be15" y="206.027906"/>
     <use style="fill:#ff0000;stroke:#ff0000;" x="120.413597" xlink:href="#mde3753be15" y="206.027906"/>
     <use style="fill:#ff0000;stroke:#ff0000;" x="121.825138" xlink:href="#mde3753be15" y="205.029703"/>
     <use style="fill:#ff0000;stroke:#ff0000;" x="123.23668" xlink:href="#mde3753be15" y="205.029703"/>
     <use style="fill:#ff0000;stroke:#ff0000;" x="124.648221" xlink:href="#mde3753be15" y="205.029703"/>
     <use style="fill:#ff0000;stroke:#ff0000;" x="126.059763" xlink:href="#mde3753be15" y="202.880372"/>
     <use style="fill:#ff0000;stroke:#ff0000;" x="127.471304" xlink:href="#mde3753be15" y="201.886649"/>
     <use style="fill:#ff0000;stroke:#ff0000;" x="128.882846" xlink:href="#mde3753be15" y="201.886649"/>
     <use style="fill:#ff0000;stroke:#ff0000;" x="130.294387" xlink:href="#mde3753be15" y="201.886649"/>
     <use style="fill:#ff0000;stroke:#ff0000;" x="131.705929" xlink:href="#mde3753be15" y="191.614739"/>
     <use style="fill:#ff0000;stroke:#ff0000;" x="133.11747" xlink:href="#mde3753be15" y="191.614739"/>
     <use style="fill:#ff0000;stroke:#ff0000;" x="134.529012" xlink:href="#mde3753be15" y="200.180664"/>
     <use style="fill:#ff0000;stroke:#ff0000;" x="135.940553" xlink:href="#mde3753be15" y="200.180664"/>
     <use style="fill:#ff0000;stroke:#ff0000;" x="137.352095" xlink:href="#mde3753be15" y="197.256453"/>
     <use style="fill:#ff0000;stroke:#ff0000;" x="138.763636" xlink:href="#mde3753be15" y="197.256453"/>
     <use style="fill:#ff0000;stroke:#ff0000;" x="140.175178" xlink:href="#mde3753be15" y="197.256453"/>
     <use style="fill:#ff0000;stroke:#ff0000;" x="141.586719" xlink:href="#mde3753be15" y="197.256453"/>
     <use style="fill:#ff0000;stroke:#ff0000;" x="142.998261" xlink:href="#mde3753be15" y="193.756303"/>
     <use style="fill:#ff0000;stroke:#ff0000;" x="144.409802" xlink:href="#mde3753be15" y="193.756303"/>
     <use style="fill:#ff0000;stroke:#ff0000;" x="145.821344" xlink:href="#mde3753be15" y="202.046569"/>
     <use style="fill:#ff0000;stroke:#ff0000;" x="147.232885" xlink:href="#mde3753be15" y="200.500525"/>
     <use style="fill:#ff0000;stroke:#ff0000;" x="148.644427" xlink:href="#mde3753be15" y="200.500525"/>
     <use style="fill:#ff0000;stroke:#ff0000;" x="150.055968" xlink:href="#mde3753be15" y="208.522084"/>
     <use style="fill:#ff0000;stroke:#ff0000;" x="151.46751" xlink:href="#mde3753be15" y="208.522084"/>
     <use style="fill:#ff0000;stroke:#ff0000;" x="152.879051" xlink:href="#mde3753be15" y="198.461324"/>
     <use style="fill:#ff0000;stroke:#ff0000;" x="154.290593" xlink:href="#mde3753be15" y="198.461324"/>
     <use style="fill:#ff0000;stroke:#ff0000;" x="155.702134" xlink:href="#mde3753be15" y="198.461324"/>
     <use style="fill:#ff0000;stroke:#ff0000;" x="157.113676" xlink:href="#mde3753be15" y="187.543532"/>
     <use style="fill:#ff0000;stroke:#ff0000;" x="158.525217" xlink:href="#mde3753be15" y="195.021348"/>
     <use style="fill:#ff0000;stroke:#ff0000;" x="159.936759" xlink:href="#mde3753be15" y="195.021348"/>
     <use style="fill:#ff0000;stroke:#ff0000;" x="161.3483" xlink:href="#mde3753be15" y="193.055778"/>
     <use style="fill:#ff0000;stroke:#ff0000;" x="162.759842" xlink:href="#mde3753be15" y="193.055778"/>
     <use style="fill:#ff0000;stroke:#ff0000;" x="164.171383" xlink:href="#mde3753be15" y="189.405298"/>
     <use style="fill:#ff0000;stroke:#ff0000;" x="165.582925" xlink:href="#mde3753be15" y="189.405298"/>
     <use style="fill:#ff0000;stroke:#ff0000;" x="166.994466" xlink:href="#mde3753be15" y="197.748522"/>
     <use style="fill:#ff0000;stroke:#ff0000;" x="168.406008" xlink:href="#mde3753be15" y="197.748522"/>
     <use style="fill:#ff0000;stroke:#ff0000;" x="169.817549" xlink:href="#mde3753be15" y="188.546335"/>
     <use style="fill:#ff0000;stroke:#ff0000;" x="171.229091" xlink:href="#mde3753be15" y="196.630554"/>
     <use style="fill:#ff0000;stroke:#ff0000;" x="172.640632" xlink:href="#mde3753be15" y="196.630554"/>
     <use style="fill:#ff0000;stroke:#ff0000;" x="174.052174" xlink:href="#mde3753be15" y="196.630554"/>
     <use style="fill:#ff0000;stroke:#ff0000;" x="175.463715" xlink:href="#mde3753be15" y="205.270878"/>
     <use style="fill:#ff0000;stroke:#ff0000;" x="176.875257" xlink:href="#mde3753be15" y="204.219474"/>
     <use style="fill:#ff0000;stroke:#ff0000;" x="178.286798" xlink:href="#mde3753be15" y="204.219474"/>
     <use style="fill:#ff0000;stroke:#ff0000;" x="179.69834" xlink:href="#mde3753be15" y="204.219474"/>
     <use style="fill:#ff0000;stroke:#ff0000;" x="181.109881" xlink:href="#mde3753be15" y="213.082994"/>
     <use style="fill:#ff0000;stroke:#ff0000;" x="182.521423" xlink:href="#mde3753be15" y="213.082994"/>
     <use style="fill:#ff0000;stroke:#ff0000;" x="183.932964" xlink:href="#mde3753be15" y="202.730024"/>
     <use style="fill:#ff0000;stroke:#ff0000;" x="185.344506" xlink:href="#mde3753be15" y="202.730024"/>
     <use style="fill:#ff0000;stroke:#ff0000;" x="186.756047" xlink:href="#mde3753be15" y="211.804824"/>
     <use style="fill:#ff0000;stroke:#ff0000;" x="188.167589" xlink:href="#mde3753be15" y="211.69378"/>
     <use style="fill:#ff0000;stroke:#ff0000;" x="189.57913" xlink:href="#mde3753be15" y="211.69378"/>
     <use style="fill:#ff0000;stroke:#ff0000;" x="190.990672" xlink:href="#mde3753be15" y="211.69378"/>
     <use style="fill:#ff0000;stroke:#ff0000;" x="192.402213" xlink:href="#mde3753be15" y="211.69378"/>
     <use style="fill:#ff0000;stroke:#ff0000;" x="193.813755" xlink:href="#mde3753be15" y="219.495186"/>
     <use style="fill:#ff0000;stroke:#ff0000;" x="195.225296" xlink:href="#mde3753be15" y="219.495186"/>
     <use style="fill:#ff0000;stroke:#ff0000;" x="196.636838" xlink:href="#mde3753be15" y="227.670783"/>
     <use style="fill:#ff0000;stroke:#ff0000;" x="198.048379" xlink:href="#mde3753be15" y="227.670783"/>
     <use style="fill:#ff0000;stroke:#ff0000;" x="199.459921" xlink:href="#mde3753be15" y="227.134719"/>
     <use style="fill:#ff0000;stroke:#ff0000;" x="200.871462" xlink:href="#mde3753be15" y="227.134719"/>
     <use style="fill:#ff0000;stroke:#ff0000;" x="202.283004" xlink:href="#mde3753be15" y="234.691998"/>
     <use style="fill:#ff0000;stroke:#ff0000;" x="203.694545" xlink:href="#mde3753be15" y="234.691998"/>
     <use style="fill:#ff0000;stroke:#ff0000;" x="205.106087" xlink:href="#mde3753be15" y="230.843965"/>
     <use style="fill:#ff0000;stroke:#ff0000;" x="206.517628" xlink:href="#mde3753be15" y="230.843965"/>
     <use style="fill:#ff0000;stroke:#ff0000;" x="207.92917" xlink:href="#mde3753be15" y="238.54717"/>
     <use style="fill:#ff0000;stroke:#ff0000;" x="209.340711" xlink:href="#mde3753be15" y="238.54717"/>
     <use style="fill:#ff0000;stroke:#ff0000;" x="210.752253" xlink:href="#mde3753be15" y="246.190023"/>
     <use style="fill:#ff0000;stroke:#ff0000;" x="212.163794" xlink:href="#mde3753be15" y="246.190023"/>
     <use style="fill:#ff0000;stroke:#ff0000;" x="213.575336" xlink:href="#mde3753be15" y="246.190023"/>
     <use style="fill:#ff0000;stroke:#ff0000;" x="214.986877" xlink:href="#mde3753be15" y="253.513183"/>
     <use style="fill:#ff0000;stroke:#ff0000;" x="216.398419" xlink:href="#mde3753be15" y="242.431768"/>
     <use style="fill:#ff0000;stroke:#ff0000;" x="217.80996" xlink:href="#mde3753be15" y="242.431768"/>
     <use style="fill:#ff0000;stroke:#ff0000;" x="219.221502" xlink:href="#mde3753be15" y="242.431768"/>
     <use style="fill:#ff0000;stroke:#ff0000;" x="220.633043" xlink:href="#mde3753be15" y="232.245067"/>
     <use style="fill:#ff0000;stroke:#ff0000;" x="222.044585" xlink:href="#mde3753be15" y="232.245067"/>
     <use style="fill:#ff0000;stroke:#ff0000;" x="223.456126" xlink:href="#mde3753be15" y="232.245067"/>
     <use style="fill:#ff0000;stroke:#ff0000;" x="224.867668" xlink:href="#mde3753be15" y="239.561034"/>
     <use style="fill:#ff0000;stroke:#ff0000;" x="226.279209" xlink:href="#mde3753be15" y="239.561034"/>
     <use style="fill:#ff0000;stroke:#ff0000;" x="227.690751" xlink:href="#mde3753be15" y="247.807223"/>
     <use style="fill:#ff0000;stroke:#ff0000;" x="229.102292" xlink:href="#mde3753be15" y="247.807223"/>
     <use style="fill:#ff0000;stroke:#ff0000;" x="230.513834" xlink:href="#mde3753be15" y="237.490674"/>
     <use style="fill:#ff0000;stroke:#ff0000;" x="231.925375" xlink:href="#mde3753be15" y="237.490674"/>
     <use style="fill:#ff0000;stroke:#ff0000;" x="233.336917" xlink:href="#mde3753be15" y="237.490674"/>
     <use style="fill:#ff0000;stroke:#ff0000;" x="234.748458" xlink:href="#mde3753be15" y="237.490674"/>
     <use style="fill:#ff0000;stroke:#ff0000;" x="236.16" xlink:href="#mde3753be15" y="237.490674"/>
     <use style="fill:#ff0000;stroke:#ff0000;" x="237.571542" xlink:href="#mde3753be15" y="237.490674"/>
     <use style="fill:#ff0000;stroke:#ff0000;" x="238.983083" xlink:href="#mde3753be15" y="237.490674"/>
     <use style="fill:#ff0000;stroke:#ff0000;" x="240.394625" xlink:href="#mde3753be15" y="237.490674"/>
     <use style="fill:#ff0000;stroke:#ff0000;" x="241.806166" xlink:href="#mde3753be15" y="237.490674"/>
     <use style="fill:#ff0000;stroke:#ff0000;" x="243.217708" xlink:href="#mde3753be15" y="237.490674"/>
     <use style="fill:#ff0000;stroke:#ff0000;" x="244.629249" xlink:href="#mde3753be15" y="233.666314"/>
     <use style="fill:#ff0000;stroke:#ff0000;" x="246.040791" xlink:href="#mde3753be15" y="223.898429"/>
     <use style="fill:#ff0000;stroke:#ff0000;" x="247.452332" xlink:href="#mde3753be15" y="223.898429"/>
     <use style="fill:#ff0000;stroke:#ff0000;" x="248.863874" xlink:href="#mde3753be15" y="223.898429"/>
     <use style="fill:#ff0000;stroke:#ff0000;" x="250.275415" xlink:href="#mde3753be15" y="223.898429"/>
     <use style="fill:#ff0000;stroke:#ff0000;" x="251.686957" xlink:href="#mde3753be15" y="223.898429"/>
     <use style="fill:#ff0000;stroke:#ff0000;" x="253.098498" xlink:href="#mde3753be15" y="231.911556"/>
     <use style="fill:#ff0000;stroke:#ff0000;" x="254.51004" xlink:href="#mde3753be15" y="231.911556"/>
     <use style="fill:#ff0000;stroke:#ff0000;" x="255.921581" xlink:href="#mde3753be15" y="240.02344"/>
     <use style="fill:#ff0000;stroke:#ff0000;" x="257.333123" xlink:href="#mde3753be15" y="248.362736"/>
     <use style="fill:#ff0000;stroke:#ff0000;" x="258.744664" xlink:href="#mde3753be15" y="248.362736"/>
     <use style="fill:#ff0000;stroke:#ff0000;" x="260.156206" xlink:href="#mde3753be15" y="236.967942"/>
     <use style="fill:#ff0000;stroke:#ff0000;" x="261.567747" xlink:href="#mde3753be15" y="236.967942"/>
     <use style="fill:#ff0000;stroke:#ff0000;" x="262.979289" xlink:href="#mde3753be15" y="227.214823"/>
     <use style="fill:#ff0000;stroke:#ff0000;" x="264.39083" xlink:href="#mde3753be15" y="227.214823"/>
     <use style="fill:#ff0000;stroke:#ff0000;" x="265.802372" xlink:href="#mde3753be15" y="228.223729"/>
     <use style="fill:#ff0000;stroke:#ff0000;" x="267.213913" xlink:href="#mde3753be15" y="236.64863"/>
     <use style="fill:#ff0000;stroke:#ff0000;" x="268.625455" xlink:href="#mde3753be15" y="236.64863"/>
     <use style="fill:#ff0000;stroke:#ff0000;" x="270.036996" xlink:href="#mde3753be15" y="236.64863"/>
     <use style="fill:#ff0000;stroke:#ff0000;" x="271.448538" xlink:href="#mde3753be15" y="237.515324"/>
     <use style="fill:#ff0000;stroke:#ff0000;" x="272.860079" xlink:href="#mde3753be15" y="237.515324"/>
     <use style="fill:#ff0000;stroke:#ff0000;" x="274.271621" xlink:href="#mde3753be15" y="245.477949"/>
     <use style="fill:#ff0000;stroke:#ff0000;" x="275.683162" xlink:href="#mde3753be15" y="245.477949"/>
     <use style="fill:#ff0000;stroke:#ff0000;" x="277.094704" xlink:href="#mde3753be15" y="252.583712"/>
     <use style="fill:#ff0000;stroke:#ff0000;" x="278.506245" xlink:href="#mde3753be15" y="252.583712"/>
     <use style="fill:#ff0000;stroke:#ff0000;" x="279.917787" xlink:href="#mde3753be15" y="260.069793"/>
     <use style="fill:#ff0000;stroke:#ff0000;" x="281.329328" xlink:href="#mde3753be15" y="260.069793"/>
     <use style="fill:#ff0000;stroke:#ff0000;" x="282.74087" xlink:href="#mde3753be15" y="260.069793"/>
     <use style="fill:#ff0000;stroke:#ff0000;" x="284.152411" xlink:href="#mde3753be15" y="260.069793"/>
     <use style="fill:#ff0000;stroke:#ff0000;" x="285.563953" xlink:href="#mde3753be15" y="268.143216"/>
     <use style="fill:#ff0000;stroke:#ff0000;" x="286.975494" xlink:href="#mde3753be15" y="268.143216"/>
     <use style="fill:#ff0000;stroke:#ff0000;" x="288.387036" xlink:href="#mde3753be15" y="268.143216"/>
     <use style="fill:#ff0000;stroke:#ff0000;" x="289.798577" xlink:href="#mde3753be15" y="268.353047"/>
     <use style="fill:#ff0000;stroke:#ff0000;" x="291.210119" xlink:href="#mde3753be15" y="268.353047"/>
     <use style="fill:#ff0000;stroke:#ff0000;" x="292.62166" xlink:href="#mde3753be15" y="267.643973"/>
     <use style="fill:#ff0000;stroke:#ff0000;" x="294.033202" xlink:href="#mde3753be15" y="267.643973"/>
     <use style="fill:#ff0000;stroke:#ff0000;" x="295.444743" xlink:href="#mde3753be15" y="273.7895"/>
     <use style="fill:#ff0000;stroke:#ff0000;" x="296.856285" xlink:href="#mde3753be15" y="282.253693"/>
     <use style="fill:#ff0000;stroke:#ff0000;" x="298.267826" xlink:href="#mde3753be15" y="282.253693"/>
     <use style="fill:#ff0000;stroke:#ff0000;" x="299.679368" xlink:href="#mde3753be15" y="289.573273"/>
     <use style="fill:#ff0000;stroke:#ff0000;" x="301.090909" xlink:href="#mde3753be15" y="289.573273"/>
     <use style="fill:#ff0000;stroke:#ff0000;" x="302.502451" xlink:href="#mde3753be15" y="295.488"/>
     <use style="fill:#ff0000;stroke:#ff0000;" x="303.913992" xlink:href="#mde3753be15" y="295.488"/>
     <use style="fill:#ff0000;stroke:#ff0000;" x="305.325534" xlink:href="#mde3753be15" y="283.917184"/>
     <use style="fill:#ff0000;stroke:#ff0000;" x="306.737075" xlink:href="#mde3753be15" y="283.917184"/>
     <use style="fill:#ff0000;stroke:#ff0000;" x="308.148617" xlink:href="#mde3753be15" y="283.917184"/>
     <use style="fill:#ff0000;stroke:#ff0000;" x="309.560158" xlink:href="#mde3753be15" y="273.93708"/>
     <use style="fill:#ff0000;stroke:#ff0000;" x="310.9717" xlink:href="#mde3753be15" y="273.93708"/>
     <use style="fill:#ff0000;stroke:#ff0000;" x="312.383241" xlink:href="#mde3753be15" y="281.396766"/>
     <use style="fill:#ff0000;stroke:#ff0000;" x="313.794783" xlink:href="#mde3753be15" y="281.396766"/>
     <use style="fill:#ff0000;stroke:#ff0000;" x="315.206324" xlink:href="#mde3753be15" y="277.534386"/>
     <use style="fill:#ff0000;stroke:#ff0000;" x="316.617866" xlink:href="#mde3753be15" y="277.534386"/>
     <use style="fill:#ff0000;stroke:#ff0000;" x="318.029407" xlink:href="#mde3753be15" y="265.877441"/>
     <use style="fill:#ff0000;stroke:#ff0000;" x="319.440949" xlink:href="#mde3753be15" y="265.877441"/>
     <use style="fill:#ff0000;stroke:#ff0000;" x="320.85249" xlink:href="#mde3753be15" y="265.877441"/>
     <use style="fill:#ff0000;stroke:#ff0000;" x="322.264032" xlink:href="#mde3753be15" y="263.383799"/>
     <use style="fill:#ff0000;stroke:#ff0000;" x="323.675573" xlink:href="#mde3753be15" y="253.466632"/>
     <use style="fill:#ff0000;stroke:#ff0000;" x="325.087115" xlink:href="#mde3753be15" y="253.466632"/>
     <use style="fill:#ff0000;stroke:#ff0000;" x="326.498656" xlink:href="#mde3753be15" y="241.737788"/>
     <use style="fill:#ff0000;stroke:#ff0000;" x="327.910198" xlink:href="#mde3753be15" y="241.737788"/>
     <use style="fill:#ff0000;stroke:#ff0000;" x="329.321739" xlink:href="#mde3753be15" y="230.367699"/>
     <use style="fill:#ff0000;stroke:#ff0000;" x="330.733281" xlink:href="#mde3753be15" y="230.367699"/>
     <use style="fill:#ff0000;stroke:#ff0000;" x="332.144822" xlink:href="#mde3753be15" y="237.72959"/>
     <use style="fill:#ff0000;stroke:#ff0000;" x="333.556364" xlink:href="#mde3753be15" y="237.72959"/>
     <use style="fill:#ff0000;stroke:#ff0000;" x="334.967905" xlink:href="#mde3753be15" y="246.704683"/>
     <use style="fill:#ff0000;stroke:#ff0000;" x="336.379447" xlink:href="#mde3753be15" y="246.704683"/>
     <use style="fill:#ff0000;stroke:#ff0000;" x="337.790988" xlink:href="#mde3753be15" y="246.704683"/>
     <use style="fill:#ff0000;stroke:#ff0000;" x="339.20253" xlink:href="#mde3753be15" y="246.704683"/>
     <use style="fill:#ff0000;stroke:#ff0000;" x="340.614071" xlink:href="#mde3753be15" y="246.704683"/>
     <use style="fill:#ff0000;stroke:#ff0000;" x="342.025613" xlink:href="#mde3753be15" y="246.704683"/>
     <use style="fill:#ff0000;stroke:#ff0000;" x="343.437154" xlink:href="#mde3753be15" y="246.704683"/>
     <use style="fill:#ff0000;stroke:#ff0000;" x="344.848696" xlink:href="#mde3753be15" y="246.704683"/>
     <use style="fill:#ff0000;stroke:#ff0000;" x="346.260237" xlink:href="#mde3753be15" y="246.704683"/>
     <use style="fill:#ff0000;stroke:#ff0000;" x="347.671779" xlink:href="#mde3753be15" y="246.704683"/>
     <use style="fill:#ff0000;stroke:#ff0000;" x="349.08332" xlink:href="#mde3753be15" y="246.704683"/>
     <use style="fill:#ff0000;stroke:#ff0000;" x="350.494862" xlink:href="#mde3753be15" y="246.704683"/>
     <use style="fill:#ff0000;stroke:#ff0000;" x="351.906403" xlink:href="#mde3753be15" y="246.704683"/>
     <use style="fill:#ff0000;stroke:#ff0000;" x="353.317945" xlink:href="#mde3753be15" y="246.704683"/>
     <use style="fill:#ff0000;stroke:#ff0000;" x="354.729486" xlink:href="#mde3753be15" y="246.704683"/>
     <use style="fill:#ff0000;stroke:#ff0000;" x="356.141028" xlink:href="#mde3753be15" y="246.704683"/>
     <use style="fill:#ff0000;stroke:#ff0000;" x="357.552569" xlink:href="#mde3753be15" y="246.704683"/>
     <use style="fill:#ff0000;stroke:#ff0000;" x="358.964111" xlink:href="#mde3753be15" y="246.704683"/>
     <use style="fill:#ff0000;stroke:#ff0000;" x="360.375652" xlink:href="#mde3753be15" y="246.704683"/>
     <use style="fill:#ff0000;stroke:#ff0000;" x="361.787194" xlink:href="#mde3753be15" y="246.704683"/>
     <use style="fill:#ff0000;stroke:#ff0000;" x="363.198735" xlink:href="#mde3753be15" y="246.704683"/>
     <use style="fill:#ff0000;stroke:#ff0000;" x="364.610277" xlink:href="#mde3753be15" y="246.704683"/>
     <use style="fill:#ff0000;stroke:#ff0000;" x="366.021818" xlink:href="#mde3753be15" y="246.704683"/>
     <use style="fill:#ff0000;stroke:#ff0000;" x="367.43336" xlink:href="#mde3753be15" y="246.704683"/>
     <use style="fill:#ff0000;stroke:#ff0000;" x="368.844901" xlink:href="#mde3753be15" y="246.704683"/>
     <use style="fill:#ff0000;stroke:#ff0000;" x="370.256443" xlink:href="#mde3753be15" y="246.704683"/>
     <use style="fill:#ff0000;stroke:#ff0000;" x="371.667984" xlink:href="#mde3753be15" y="246.704683"/>
     <use style="fill:#ff0000;stroke:#ff0000;" x="373.079526" xlink:href="#mde3753be15" y="246.704683"/>
     <use style="fill:#ff0000;stroke:#ff0000;" x="374.491067" xlink:href="#mde3753be15" y="246.704683"/>
     <use style="fill:#ff0000;stroke:#ff0000;" x="375.902609" xlink:href="#mde3753be15" y="246.704683"/>
     <use style="fill:#ff0000;stroke:#ff0000;" x="377.31415" xlink:href="#mde3753be15" y="246.704683"/>
     <use style="fill:#ff0000;stroke:#ff0000;" x="378.725692" xlink:href="#mde3753be15" y="246.704683"/>
     <use style="fill:#ff0000;stroke:#ff0000;" x="380.137233" xlink:href="#mde3753be15" y="246.704683"/>
     <use style="fill:#ff0000;stroke:#ff0000;" x="381.548775" xlink:href="#mde3753be15" y="246.704683"/>
     <use style="fill:#ff0000;stroke:#ff0000;" x="382.960316" xlink:href="#mde3753be15" y="246.704683"/>
     <use style="fill:#ff0000;stroke:#ff0000;" x="384.371858" xlink:href="#mde3753be15" y="246.704683"/>
     <use style="fill:#ff0000;stroke:#ff0000;" x="385.783399" xlink:href="#mde3753be15" y="246.704683"/>
     <use style="fill:#ff0000;stroke:#ff0000;" x="387.194941" xlink:href="#mde3753be15" y="246.704683"/>
     <use style="fill:#ff0000;stroke:#ff0000;" x="388.606482" xlink:href="#mde3753be15" y="246.704683"/>
     <use style="fill:#ff0000;stroke:#ff0000;" x="390.018024" xlink:href="#mde3753be15" y="246.704683"/>
     <use style="fill:#ff0000;stroke:#ff0000;" x="391.429565" xlink:href="#mde3753be15" y="246.704683"/>
     <use style="fill:#ff0000;stroke:#ff0000;" x="392.841107" xlink:href="#mde3753be15" y="246.704683"/>
     <use style="fill:#ff0000;stroke:#ff0000;" x="394.252648" xlink:href="#mde3753be15" y="246.704683"/>
     <use style="fill:#ff0000;stroke:#ff0000;" x="395.66419" xlink:href="#mde3753be15" y="246.704683"/>
     <use style="fill:#ff0000;stroke:#ff0000;" x="397.075731" xlink:href="#mde3753be15" y="246.704683"/>
     <use style="fill:#ff0000;stroke:#ff0000;" x="398.487273" xlink:href="#mde3753be15" y="246.704683"/>
    </g>
   </g>
   <g id="patch_3">
    <path d="M 57.6 307.584 
L 57.6 41.472 
" style="fill:none;stroke:#000000;stroke-linecap:square;stroke-linejoin:miter;stroke-width:0.8;"/>
   </g>
   <g id="patch_4">
    <path d="M 414.72 307.584 
L 414.72 41.472 
" style="fill:none;stroke:#000000;stroke-linecap:square;stroke-linejoin:miter;stroke-width:0.8;"/>
   </g>
   <g id="patch_5">
    <path d="M 57.6 307.584 
L 414.72 307.584 
" style="fill:none;stroke:#000000;stroke-linecap:square;stroke-linejoin:miter;stroke-width:0.8;"/>
   </g>
   <g id="patch_6">
    <path d="M 57.6 41.472 
L 414.72 41.472 
" style="fill:none;stroke:#000000;stroke-linecap:square;stroke-linejoin:miter;stroke-width:0.8;"/>
   </g>
  </g>
 </g>
 <defs>
  <clipPath id="pbb5b14f284">
   <rect height="266.112" width="357.12" x="57.6" y="41.472"/>
  </clipPath>
 </defs>
</svg>
