<?xml version="1.0" encoding="utf-8" standalone="no"?>
<!DOCTYPE svg PUBLIC "-//W3C//DTD SVG 1.1//EN"
  "http://www.w3.org/Graphics/SVG/1.1/DTD/svg11.dtd">
<!-- Created with matplotlib (https://matplotlib.org/) -->
<svg height="345.6pt" version="1.1" viewBox="0 0 460.8 345.6" width="460.8pt" xmlns="http://www.w3.org/2000/svg" xmlns:xlink="http://www.w3.org/1999/xlink">
 <defs>
  <style type="text/css">
*{stroke-linecap:butt;stroke-linejoin:round;}
  </style>
 </defs>
 <g id="figure_1">
  <g id="patch_1">
   <path d="M 0 345.6 
L 460.8 345.6 
L 460.8 0 
L 0 0 
z
" style="fill:#ffffff;"/>
  </g>
  <g id="axes_1">
   <g id="patch_2">
    <path d="M 57.6 307.584 
L 414.72 307.584 
L 414.72 41.472 
L 57.6 41.472 
z
" style="fill:#ffffff;"/>
   </g>
   <g id="line2d_1">
    <path clip-path="url(#p6fd10feb15)" d="M 73.832727 53.568 
L 75.02631 59.140792 
L 77.413476 59.140792 
L 78.607059 87.017736 
L 79.800642 85.121569 
L 82.187807 85.121569 
L 83.38139 112.020516 
L 84.574973 112.020516 
L 85.768556 137.42933 
L 86.962139 137.42933 
L 88.155722 163.60854 
L 90.542888 163.60854 
L 91.736471 188.468266 
L 92.930053 188.468266 
L 94.123636 181.137654 
L 95.317219 181.137654 
L 96.510802 206.389736 
L 100.091551 206.389736 
L 101.285134 229.895475 
L 102.478717 229.895475 
L 103.672299 219.171953 
L 104.865882 219.171953 
L 106.059465 208.644715 
L 107.253048 208.644715 
L 108.446631 197.944618 
L 109.640214 197.944618 
L 110.833797 206.027906 
L 113.220963 206.027906 
L 114.414545 205.029703 
L 116.801711 205.029703 
L 117.995294 202.880372 
L 119.188877 201.886649 
L 121.576043 201.886649 
L 122.769626 191.614739 
L 123.963209 191.614739 
L 125.156791 200.180664 
L 126.350374 200.180664 
L 127.543957 197.256453 
L 131.124706 197.256453 
L 132.318289 193.756303 
L 133.511872 193.756303 
L 134.705455 202.046569 
L 135.899037 200.500525 
L 137.09262 200.500525 
L 138.286203 208.522084 
L 139.479786 208.522084 
L 140.673369 198.461324 
L 143.060535 198.461324 
L 144.254118 187.543532 
L 145.447701 195.021348 
L 146.641283 195.021348 
L 147.834866 193.055778 
L 149.028449 193.055778 
L 150.222032 189.405298 
L 151.415615 189.405298 
L 152.609198 197.748522 
L 153.802781 197.748522 
L 154.996364 188.546335 
L 156.189947 196.630554 
L 158.577112 196.630554 
L 159.770695 205.270878 
L 160.964278 204.219474 
L 163.351444 204.219474 
L 164.545027 213.082994 
L 165.73861 213.082994 
L 166.932193 202.730024 
L 168.125775 202.730024 
L 169.319358 211.804824 
L 171.706524 211.69378 
L 174.09369 211.69378 
L 175.287273 219.495186 
L 176.480856 219.495186 
L 177.674439 227.670783 
L 178.868021 227.670783 
L 180.061604 227.134719 
L 181.255187 227.134719 
L 182.44877 234.691998 
L 183.642353 234.691998 
L 184.835936 230.843965 
L 186.029519 230.843965 
L 187.223102 238.54717 
L 188.416684 238.54717 
L 189.610267 246.190023 
L 191.997433 246.190023 
L 193.191016 253.513183 
L 194.384599 242.431768 
L 196.771765 242.431768 
L 197.965348 232.245067 
L 200.352513 232.245067 
L 201.546096 239.561034 
L 202.739679 239.561034 
L 203.933262 247.807223 
L 205.126845 247.807223 
L 206.320428 237.490674 
L 217.062674 237.490674 
L 218.256257 233.666314 
L 219.44984 223.898429 
L 224.224171 223.898429 
L 225.417754 231.911556 
L 226.611337 231.911556 
L 228.998503 248.362736 
L 230.192086 248.362736 
L 231.385668 236.967942 
L 232.579251 236.967942 
L 233.772834 227.214823 
L 234.966417 227.214823 
L 236.16 228.223729 
L 237.353583 236.64863 
L 239.740749 236.64863 
L 240.934332 237.515324 
L 242.127914 237.515324 
L 243.321497 245.477949 
L 244.51508 245.477949 
L 245.708663 252.583712 
L 246.902246 252.583712 
L 248.095829 260.069793 
L 251.676578 260.069793 
L 252.87016 268.143216 
L 255.257326 268.143216 
L 256.450909 268.353047 
L 257.644492 268.353047 
L 258.838075 267.643973 
L 260.031658 267.643973 
L 261.225241 273.7895 
L 262.418824 282.253693 
L 263.612406 282.253693 
L 264.805989 289.573273 
L 265.999572 289.573273 
L 267.193155 295.488 
L 268.386738 295.488 
L 269.580321 283.917184 
L 271.967487 283.917184 
L 273.16107 273.93708 
L 274.354652 273.93708 
L 275.548235 281.396766 
L 276.741818 281.396766 
L 277.935401 277.534386 
L 279.128984 277.534386 
L 280.322567 265.877441 
L 282.709733 265.877441 
L 283.903316 263.383799 
L 285.096898 253.466632 
L 286.290481 253.466632 
L 287.484064 241.737788 
L 288.677647 241.737788 
L 289.87123 230.367699 
L 291.064813 230.367699 
L 292.258396 237.72959 
L 293.451979 237.72959 
L 294.645561 246.704683 
L 398.487273 246.704683 
L 398.487273 246.704683 
" style="fill:none;stroke:#ff0000;stroke-linecap:square;stroke-width:12;"/>
    <defs>
     <path d="M 0 3 
C 0.795609 3 1.55874 2.683901 2.12132 2.12132 
C 2.683901 1.55874 3 0.795609 3 0 
C 3 -0.795609 2.683901 -1.55874 2.12132 -2.12132 
C 1.55874 -2.683901 0.795609 -3 0 -3 
C -0.795609 -3 -1.55874 -2.683901 -2.12132 -2.12132 
C -2.683901 -1.55874 -3 -0.795609 -3 0 
C -3 0.795609 -2.683901 1.55874 -2.12132 2.12132 
C -1.55874 2.683901 -0.795609 3 0 3 
z
" id="m316b0a7198" style="stroke:#ff0000;"/>
    </defs>
    <g clip-path="url(#p6fd10feb15)">
     <use style="fill:#ff0000;stroke:#ff0000;" x="73.832727" xlink:href="#m316b0a7198" y="53.568"/>
     <use style="fill:#ff0000;stroke:#ff0000;" x="75.02631" xlink:href="#m316b0a7198" y="59.140792"/>
     <use style="fill:#ff0000;stroke:#ff0000;" x="76.219893" xlink:href="#m316b0a7198" y="59.140792"/>
     <use style="fill:#ff0000;stroke:#ff0000;" x="77.413476" xlink:href="#m316b0a7198" y="59.140792"/>
     <use style="fill:#ff0000;stroke:#ff0000;" x="78.607059" xlink:href="#m316b0a7198" y="87.017736"/>
     <use style="fill:#ff0000;stroke:#ff0000;" x="79.800642" xlink:href="#m316b0a7198" y="85.121569"/>
     <use style="fill:#ff0000;stroke:#ff0000;" x="80.994225" xlink:href="#m316b0a7198" y="85.121569"/>
     <use style="fill:#ff0000;stroke:#ff0000;" x="82.187807" xlink:href="#m316b0a7198" y="85.121569"/>
     <use style="fill:#ff0000;stroke:#ff0000;" x="83.38139" xlink:href="#m316b0a7198" y="112.020516"/>
     <use style="fill:#ff0000;stroke:#ff0000;" x="84.574973" xlink:href="#m316b0a7198" y="112.020516"/>
     <use style="fill:#ff0000;stroke:#ff0000;" x="85.768556" xlink:href="#m316b0a7198" y="137.42933"/>
     <use style="fill:#ff0000;stroke:#ff0000;" x="86.962139" xlink:href="#m316b0a7198" y="137.42933"/>
     <use style="fill:#ff0000;stroke:#ff0000;" x="88.155722" xlink:href="#m316b0a7198" y="163.60854"/>
     <use style="fill:#ff0000;stroke:#ff0000;" x="89.349305" xlink:href="#m316b0a7198" y="163.60854"/>
     <use style="fill:#ff0000;stroke:#ff0000;" x="90.542888" xlink:href="#m316b0a7198" y="163.60854"/>
     <use style="fill:#ff0000;stroke:#ff0000;" x="91.736471" xlink:href="#m316b0a7198" y="188.468266"/>
     <use style="fill:#ff0000;stroke:#ff0000;" x="92.930053" xlink:href="#m316b0a7198" y="188.468266"/>
     <use style="fill:#ff0000;stroke:#ff0000;" x="94.123636" xlink:href="#m316b0a7198" y="181.137654"/>
     <use style="fill:#ff0000;stroke:#ff0000;" x="95.317219" xlink:href="#m316b0a7198" y="181.137654"/>
     <use style="fill:#ff0000;stroke:#ff0000;" x="96.510802" xlink:href="#m316b0a7198" y="206.389736"/>
     <use style="fill:#ff0000;stroke:#ff0000;" x="97.704385" xlink:href="#m316b0a7198" y="206.389736"/>
     <use style="fill:#ff0000;stroke:#ff0000;" x="98.897968" xlink:href="#m316b0a7198" y="206.389736"/>
     <use style="fill:#ff0000;stroke:#ff0000;" x="100.091551" xlink:href="#m316b0a7198" y="206.389736"/>
     <use style="fill:#ff0000;stroke:#ff0000;" x="101.285134" xlink:href="#m316b0a7198" y="229.895475"/>
     <use style="fill:#ff0000;stroke:#ff0000;" x="102.478717" xlink:href="#m316b0a7198" y="229.895475"/>
     <use style="fill:#ff0000;stroke:#ff0000;" x="103.672299" xlink:href="#m316b0a7198" y="219.171953"/>
     <use style="fill:#ff0000;stroke:#ff0000;" x="104.865882" xlink:href="#m316b0a7198" y="219.171953"/>
     <use style="fill:#ff0000;stroke:#ff0000;" x="106.059465" xlink:href="#m316b0a7198" y="208.644715"/>
     <use style="fill:#ff0000;stroke:#ff0000;" x="107.253048" xlink:href="#m316b0a7198" y="208.644715"/>
     <use style="fill:#ff0000;stroke:#ff0000;" x="108.446631" xlink:href="#m316b0a7198" y="197.944618"/>
     <use style="fill:#ff0000;stroke:#ff0000;" x="109.640214" xlink:href="#m316b0a7198" y="197.944618"/>
     <use style="fill:#ff0000;stroke:#ff0000;" x="110.833797" xlink:href="#m316b0a7198" y="206.027906"/>
     <use style="fill:#ff0000;stroke:#ff0000;" x="112.02738" xlink:href="#m316b0a7198" y="206.027906"/>
     <use style="fill:#ff0000;stroke:#ff0000;" x="113.220963" xlink:href="#m316b0a7198" y="206.027906"/>
     <use style="fill:#ff0000;stroke:#ff0000;" x="114.414545" xlink:href="#m316b0a7198" y="205.029703"/>
     <use style="fill:#ff0000;stroke:#ff0000;" x="115.608128" xlink:href="#m316b0a7198" y="205.029703"/>
     <use style="fill:#ff0000;stroke:#ff0000;" x="116.801711" xlink:href="#m316b0a7198" y="205.029703"/>
     <use style="fill:#ff0000;stroke:#ff0000;" x="117.995294" xlink:href="#m316b0a7198" y="202.880372"/>
     <use style="fill:#ff0000;stroke:#ff0000;" x="119.188877" xlink:href="#m316b0a7198" y="201.886649"/>
     <use style="fill:#ff0000;stroke:#ff0000;" x="120.38246" xlink:href="#m316b0a7198" y="201.886649"/>
     <use style="fill:#ff0000;stroke:#ff0000;" x="121.576043" xlink:href="#m316b0a7198" y="201.886649"/>
     <use style="fill:#ff0000;stroke:#ff0000;" x="122.769626" xlink:href="#m316b0a7198" y="191.614739"/>
     <use style="fill:#ff0000;stroke:#ff0000;" x="123.963209" xlink:href="#m316b0a7198" y="191.614739"/>
     <use style="fill:#ff0000;stroke:#ff0000;" x="125.156791" xlink:href="#m316b0a7198" y="200.180664"/>
     <use style="fill:#ff0000;stroke:#ff0000;" x="126.350374" xlink:href="#m316b0a7198" y="200.180664"/>
     <use style="fill:#ff0000;stroke:#ff0000;" x="127.543957" xlink:href="#m316b0a7198" y="197.256453"/>
     <use style="fill:#ff0000;stroke:#ff0000;" x="128.73754" xlink:href="#m316b0a7198" y="197.256453"/>
     <use style="fill:#ff0000;stroke:#ff0000;" x="129.931123" xlink:href="#m316b0a7198" y="197.256453"/>
     <use style="fill:#ff0000;stroke:#ff0000;" x="131.124706" xlink:href="#m316b0a7198" y="197.256453"/>
     <use style="fill:#ff0000;stroke:#ff0000;" x="132.318289" xlink:href="#m316b0a7198" y="193.756303"/>
     <use style="fill:#ff0000;stroke:#ff0000;" x="133.511872" xlink:href="#m316b0a7198" y="193.756303"/>
     <use style="fill:#ff0000;stroke:#ff0000;" x="134.705455" xlink:href="#m316b0a7198" y="202.046569"/>
     <use style="fill:#ff0000;stroke:#ff0000;" x="135.899037" xlink:href="#m316b0a7198" y="200.500525"/>
     <use style="fill:#ff0000;stroke:#ff0000;" x="137.09262" xlink:href="#m316b0a7198" y="200.500525"/>
     <use style="fill:#ff0000;stroke:#ff0000;" x="138.286203" xlink:href="#m316b0a7198" y="208.522084"/>
     <use style="fill:#ff0000;stroke:#ff0000;" x="139.479786" xlink:href="#m316b0a7198" y="208.522084"/>
     <use style="fill:#ff0000;stroke:#ff0000;" x="140.673369" xlink:href="#m316b0a7198" y="198.461324"/>
     <use style="fill:#ff0000;stroke:#ff0000;" x="141.866952" xlink:href="#m316b0a7198" y="198.461324"/>
     <use style="fill:#ff0000;stroke:#ff0000;" x="143.060535" xlink:href="#m316b0a7198" y="198.461324"/>
     <use style="fill:#ff0000;stroke:#ff0000;" x="144.254118" xlink:href="#m316b0a7198" y="187.543532"/>
     <use style="fill:#ff0000;stroke:#ff0000;" x="145.447701" xlink:href="#m316b0a7198" y="195.021348"/>
     <use style="fill:#ff0000;stroke:#ff0000;" x="146.641283" xlink:href="#m316b0a7198" y="195.021348"/>
     <use style="fill:#ff0000;stroke:#ff0000;" x="147.834866" xlink:href="#m316b0a7198" y="193.055778"/>
     <use style="fill:#ff0000;stroke:#ff0000;" x="149.028449" xlink:href="#m316b0a7198" y="193.055778"/>
     <use style="fill:#ff0000;stroke:#ff0000;" x="150.222032" xlink:href="#m316b0a7198" y="189.405298"/>
     <use style="fill:#ff0000;stroke:#ff0000;" x="151.415615" xlink:href="#m316b0a7198" y="189.405298"/>
     <use style="fill:#ff0000;stroke:#ff0000;" x="152.609198" xlink:href="#m316b0a7198" y="197.748522"/>
     <use style="fill:#ff0000;stroke:#ff0000;" x="153.802781" xlink:href="#m316b0a7198" y="197.748522"/>
     <use style="fill:#ff0000;stroke:#ff0000;" x="154.996364" xlink:href="#m316b0a7198" y="188.546335"/>
     <use style="fill:#ff0000;stroke:#ff0000;" x="156.189947" xlink:href="#m316b0a7198" y="196.630554"/>
     <use style="fill:#ff0000;stroke:#ff0000;" x="157.383529" xlink:href="#m316b0a7198" y="196.630554"/>
     <use style="fill:#ff0000;stroke:#ff0000;" x="158.577112" xlink:href="#m316b0a7198" y="196.630554"/>
     <use style="fill:#ff0000;stroke:#ff0000;" x="159.770695" xlink:href="#m316b0a7198" y="205.270878"/>
     <use style="fill:#ff0000;stroke:#ff0000;" x="160.964278" xlink:href="#m316b0a7198" y="204.219474"/>
     <use style="fill:#ff0000;stroke:#ff0000;" x="162.157861" xlink:href="#m316b0a7198" y="204.219474"/>
     <use style="fill:#ff0000;stroke:#ff0000;" x="163.351444" xlink:href="#m316b0a7198" y="204.219474"/>
     <use style="fill:#ff0000;stroke:#ff0000;" x="164.545027" xlink:href="#m316b0a7198" y="213.082994"/>
     <use style="fill:#ff0000;stroke:#ff0000;" x="165.73861" xlink:href="#m316b0a7198" y="213.082994"/>
     <use style="fill:#ff0000;stroke:#ff0000;" x="166.932193" xlink:href="#m316b0a7198" y="202.730024"/>
     <use style="fill:#ff0000;stroke:#ff0000;" x="168.125775" xlink:href="#m316b0a7198" y="202.730024"/>
     <use style="fill:#ff0000;stroke:#ff0000;" x="169.319358" xlink:href="#m316b0a7198" y="211.804824"/>
     <use style="fill:#ff0000;stroke:#ff0000;" x="170.512941" xlink:href="#m316b0a7198" y="211.69378"/>
     <use style="fill:#ff0000;stroke:#ff0000;" x="171.706524" xlink:href="#m316b0a7198" y="211.69378"/>
     <use style="fill:#ff0000;stroke:#ff0000;" x="172.900107" xlink:href="#m316b0a7198" y="211.69378"/>
     <use style="fill:#ff0000;stroke:#ff0000;" x="174.09369" xlink:href="#m316b0a7198" y="211.69378"/>
     <use style="fill:#ff0000;stroke:#ff0000;" x="175.287273" xlink:href="#m316b0a7198" y="219.495186"/>
     <use style="fill:#ff0000;stroke:#ff0000;" x="176.480856" xlink:href="#m316b0a7198" y="219.495186"/>
     <use style="fill:#ff0000;stroke:#ff0000;" x="177.674439" xlink:href="#m316b0a7198" y="227.670783"/>
     <use style="fill:#ff0000;stroke:#ff0000;" x="178.868021" xlink:href="#m316b0a7198" y="227.670783"/>
     <use style="fill:#ff0000;stroke:#ff0000;" x="180.061604" xlink:href="#m316b0a7198" y="227.134719"/>
     <use style="fill:#ff0000;stroke:#ff0000;" x="181.255187" xlink:href="#m316b0a7198" y="227.134719"/>
     <use style="fill:#ff0000;stroke:#ff0000;" x="182.44877" xlink:href="#m316b0a7198" y="234.691998"/>
     <use style="fill:#ff0000;stroke:#ff0000;" x="183.642353" xlink:href="#m316b0a7198" y="234.691998"/>
     <use style="fill:#ff0000;stroke:#ff0000;" x="184.835936" xlink:href="#m316b0a7198" y="230.843965"/>
     <use style="fill:#ff0000;stroke:#ff0000;" x="186.029519" xlink:href="#m316b0a7198" y="230.843965"/>
     <use style="fill:#ff0000;stroke:#ff0000;" x="187.223102" xlink:href="#m316b0a7198" y="238.54717"/>
     <use style="fill:#ff0000;stroke:#ff0000;" x="188.416684" xlink:href="#m316b0a7198" y="238.54717"/>
     <use style="fill:#ff0000;stroke:#ff0000;" x="189.610267" xlink:href="#m316b0a7198" y="246.190023"/>
     <use style="fill:#ff0000;stroke:#ff0000;" x="190.80385" xlink:href="#m316b0a7198" y="246.190023"/>
     <use style="fill:#ff0000;stroke:#ff0000;" x="191.997433" xlink:href="#m316b0a7198" y="246.190023"/>
     <use style="fill:#ff0000;stroke:#ff0000;" x="193.191016" xlink:href="#m316b0a7198" y="253.513183"/>
     <use style="fill:#ff0000;stroke:#ff0000;" x="194.384599" xlink:href="#m316b0a7198" y="242.431768"/>
     <use style="fill:#ff0000;stroke:#ff0000;" x="195.578182" xlink:href="#m316b0a7198" y="242.431768"/>
     <use style="fill:#ff0000;stroke:#ff0000;" x="196.771765" xlink:href="#m316b0a7198" y="242.431768"/>
     <use style="fill:#ff0000;stroke:#ff0000;" x="197.965348" xlink:href="#m316b0a7198" y="232.245067"/>
     <use style="fill:#ff0000;stroke:#ff0000;" x="199.15893" xlink:href="#m316b0a7198" y="232.245067"/>
     <use style="fill:#ff0000;stroke:#ff0000;" x="200.352513" xlink:href="#m316b0a7198" y="232.245067"/>
     <use style="fill:#ff0000;stroke:#ff0000;" x="201.546096" xlink:href="#m316b0a7198" y="239.561034"/>
     <use style="fill:#ff0000;stroke:#ff0000;" x="202.739679" xlink:href="#m316b0a7198" y="239.561034"/>
     <use style="fill:#ff0000;stroke:#ff0000;" x="203.933262" xlink:href="#m316b0a7198" y="247.807223"/>
     <use style="fill:#ff0000;stroke:#ff0000;" x="205.126845" xlink:href="#m316b0a7198" y="247.807223"/>
     <use style="fill:#ff0000;stroke:#ff0000;" x="206.320428" xlink:href="#m316b0a7198" y="237.490674"/>
     <use style="fill:#ff0000;stroke:#ff0000;" x="207.514011" xlink:href="#m316b0a7198" y="237.490674"/>
     <use style="fill:#ff0000;stroke:#ff0000;" x="208.707594" xlink:href="#m316b0a7198" y="237.490674"/>
     <use style="fill:#ff0000;stroke:#ff0000;" x="209.901176" xlink:href="#m316b0a7198" y="237.490674"/>
     <use style="fill:#ff0000;stroke:#ff0000;" x="211.094759" xlink:href="#m316b0a7198" y="237.490674"/>
     <use style="fill:#ff0000;stroke:#ff0000;" x="212.288342" xlink:href="#m316b0a7198" y="237.490674"/>
     <use style="fill:#ff0000;stroke:#ff0000;" x="213.481925" xlink:href="#m316b0a7198" y="237.490674"/>
     <use style="fill:#ff0000;stroke:#ff0000;" x="214.675508" xlink:href="#m316b0a7198" y="237.490674"/>
     <use style="fill:#ff0000;stroke:#ff0000;" x="215.869091" xlink:href="#m316b0a7198" y="237.490674"/>
     <use style="fill:#ff0000;stroke:#ff0000;" x="217.062674" xlink:href="#m316b0a7198" y="237.490674"/>
     <use style="fill:#ff0000;stroke:#ff0000;" x="218.256257" xlink:href="#m316b0a7198" y="233.666314"/>
     <use style="fill:#ff0000;stroke:#ff0000;" x="219.44984" xlink:href="#m316b0a7198" y="223.898429"/>
     <use style="fill:#ff0000;stroke:#ff0000;" x="220.643422" xlink:href="#m316b0a7198" y="223.898429"/>
     <use style="fill:#ff0000;stroke:#ff0000;" x="221.837005" xlink:href="#m316b0a7198" y="223.898429"/>
     <use style="fill:#ff0000;stroke:#ff0000;" x="223.030588" xlink:href="#m316b0a7198" y="223.898429"/>
     <use style="fill:#ff0000;stroke:#ff0000;" x="224.224171" xlink:href="#m316b0a7198" y="223.898429"/>
     <use style="fill:#ff0000;stroke:#ff0000;" x="225.417754" xlink:href="#m316b0a7198" y="231.911556"/>
     <use style="fill:#ff0000;stroke:#ff0000;" x="226.611337" xlink:href="#m316b0a7198" y="231.911556"/>
     <use style="fill:#ff0000;stroke:#ff0000;" x="227.80492" xlink:href="#m316b0a7198" y="240.02344"/>
     <use style="fill:#ff0000;stroke:#ff0000;" x="228.998503" xlink:href="#m316b0a7198" y="248.362736"/>
     <use style="fill:#ff0000;stroke:#ff0000;" x="230.192086" xlink:href="#m316b0a7198" y="248.362736"/>
     <use style="fill:#ff0000;stroke:#ff0000;" x="231.385668" xlink:href="#m316b0a7198" y="236.967942"/>
     <use style="fill:#ff0000;stroke:#ff0000;" x="232.579251" xlink:href="#m316b0a7198" y="236.967942"/>
     <use style="fill:#ff0000;stroke:#ff0000;" x="233.772834" xlink:href="#m316b0a7198" y="227.214823"/>
     <use style="fill:#ff0000;stroke:#ff0000;" x="234.966417" xlink:href="#m316b0a7198" y="227.214823"/>
     <use style="fill:#ff0000;stroke:#ff0000;" x="236.16" xlink:href="#m316b0a7198" y="228.223729"/>
     <use style="fill:#ff0000;stroke:#ff0000;" x="237.353583" xlink:href="#m316b0a7198" y="236.64863"/>
     <use style="fill:#ff0000;stroke:#ff0000;" x="238.547166" xlink:href="#m316b0a7198" y="236.64863"/>
     <use style="fill:#ff0000;stroke:#ff0000;" x="239.740749" xlink:href="#m316b0a7198" y="236.64863"/>
     <use style="fill:#ff0000;stroke:#ff0000;" x="240.934332" xlink:href="#m316b0a7198" y="237.515324"/>
     <use style="fill:#ff0000;stroke:#ff0000;" x="242.127914" xlink:href="#m316b0a7198" y="237.515324"/>
     <use style="fill:#ff0000;stroke:#ff0000;" x="243.321497" xlink:href="#m316b0a7198" y="245.477949"/>
     <use style="fill:#ff0000;stroke:#ff0000;" x="244.51508" xlink:href="#m316b0a7198" y="245.477949"/>
     <use style="fill:#ff0000;stroke:#ff0000;" x="245.708663" xlink:href="#m316b0a7198" y="252.583712"/>
     <use style="fill:#ff0000;stroke:#ff0000;" x="246.902246" xlink:href="#m316b0a7198" y="252.583712"/>
     <use style="fill:#ff0000;stroke:#ff0000;" x="248.095829" xlink:href="#m316b0a7198" y="260.069793"/>
     <use style="fill:#ff0000;stroke:#ff0000;" x="249.289412" xlink:href="#m316b0a7198" y="260.069793"/>
     <use style="fill:#ff0000;stroke:#ff0000;" x="250.482995" xlink:href="#m316b0a7198" y="260.069793"/>
     <use style="fill:#ff0000;stroke:#ff0000;" x="251.676578" xlink:href="#m316b0a7198" y="260.069793"/>
     <use style="fill:#ff0000;stroke:#ff0000;" x="252.87016" xlink:href="#m316b0a7198" y="268.143216"/>
     <use style="fill:#ff0000;stroke:#ff0000;" x="254.063743" xlink:href="#m316b0a7198" y="268.143216"/>
     <use style="fill:#ff0000;stroke:#ff0000;" x="255.257326" xlink:href="#m316b0a7198" y="268.143216"/>
     <use style="fill:#ff0000;stroke:#ff0000;" x="256.450909" xlink:href="#m316b0a7198" y="268.353047"/>
     <use style="fill:#ff0000;stroke:#ff0000;" x="257.644492" xlink:href="#m316b0a7198" y="268.353047"/>
     <use style="fill:#ff0000;stroke:#ff0000;" x="258.838075" xlink:href="#m316b0a7198" y="267.643973"/>
     <use style="fill:#ff0000;stroke:#ff0000;" x="260.031658" xlink:href="#m316b0a7198" y="267.643973"/>
     <use style="fill:#ff0000;stroke:#ff0000;" x="261.225241" xlink:href="#m316b0a7198" y="273.7895"/>
     <use style="fill:#ff0000;stroke:#ff0000;" x="262.418824" xlink:href="#m316b0a7198" y="282.253693"/>
     <use style="fill:#ff0000;stroke:#ff0000;" x="263.612406" xlink:href="#m316b0a7198" y="282.253693"/>
     <use style="fill:#ff0000;stroke:#ff0000;" x="264.805989" xlink:href="#m316b0a7198" y="289.573273"/>
     <use style="fill:#ff0000;stroke:#ff0000;" x="265.999572" xlink:href="#m316b0a7198" y="289.573273"/>
     <use style="fill:#ff0000;stroke:#ff0000;" x="267.193155" xlink:href="#m316b0a7198" y="295.488"/>
     <use style="fill:#ff0000;stroke:#ff0000;" x="268.386738" xlink:href="#m316b0a7198" y="295.488"/>
     <use style="fill:#ff0000;stroke:#ff0000;" x="269.580321" xlink:href="#m316b0a7198" y="283.917184"/>
     <use style="fill:#ff0000;stroke:#ff0000;" x="270.773904" xlink:href="#m316b0a7198" y="283.917184"/>
     <use style="fill:#ff0000;stroke:#ff0000;" x="271.967487" xlink:href="#m316b0a7198" y="283.917184"/>
     <use style="fill:#ff0000;stroke:#ff0000;" x="273.16107" xlink:href="#m316b0a7198" y="273.93708"/>
     <use style="fill:#ff0000;stroke:#ff0000;" x="274.354652" xlink:href="#m316b0a7198" y="273.93708"/>
     <use style="fill:#ff0000;stroke:#ff0000;" x="275.548235" xlink:href="#m316b0a7198" y="281.396766"/>
     <use style="fill:#ff0000;stroke:#ff0000;" x="276.741818" xlink:href="#m316b0a7198" y="281.396766"/>
     <use style="fill:#ff0000;stroke:#ff0000;" x="277.935401" xlink:href="#m316b0a7198" y="277.534386"/>
     <use style="fill:#ff0000;stroke:#ff0000;" x="279.128984" xlink:href="#m316b0a7198" y="277.534386"/>
     <use style="fill:#ff0000;stroke:#ff0000;" x="280.322567" xlink:href="#m316b0a7198" y="265.877441"/>
     <use style="fill:#ff0000;stroke:#ff0000;" x="281.51615" xlink:href="#m316b0a7198" y="265.877441"/>
     <use style="fill:#ff0000;stroke:#ff0000;" x="282.709733" xlink:href="#m316b0a7198" y="265.877441"/>
     <use style="fill:#ff0000;stroke:#ff0000;" x="283.903316" xlink:href="#m316b0a7198" y="263.383799"/>
     <use style="fill:#ff0000;stroke:#ff0000;" x="285.096898" xlink:href="#m316b0a7198" y="253.466632"/>
     <use style="fill:#ff0000;stroke:#ff0000;" x="286.290481" xlink:href="#m316b0a7198" y="253.466632"/>
     <use style="fill:#ff0000;stroke:#ff0000;" x="287.484064" xlink:href="#m316b0a7198" y="241.737788"/>
     <use style="fill:#ff0000;stroke:#ff0000;" x="288.677647" xlink:href="#m316b0a7198" y="241.737788"/>
     <use style="fill:#ff0000;stroke:#ff0000;" x="289.87123" xlink:href="#m316b0a7198" y="230.367699"/>
     <use style="fill:#ff0000;stroke:#ff0000;" x="291.064813" xlink:href="#m316b0a7198" y="230.367699"/>
     <use style="fill:#ff0000;stroke:#ff0000;" x="292.258396" xlink:href="#m316b0a7198" y="237.72959"/>
     <use style="fill:#ff0000;stroke:#ff0000;" x="293.451979" xlink:href="#m316b0a7198" y="237.72959"/>
     <use style="fill:#ff0000;stroke:#ff0000;" x="294.645561" xlink:href="#m316b0a7198" y="246.704683"/>
     <use style="fill:#ff0000;stroke:#ff0000;" x="295.839144" xlink:href="#m316b0a7198" y="246.704683"/>
     <use style="fill:#ff0000;stroke:#ff0000;" x="297.032727" xlink:href="#m316b0a7198" y="246.704683"/>
     <use style="fill:#ff0000;stroke:#ff0000;" x="298.22631" xlink:href="#m316b0a7198" y="246.704683"/>
     <use style="fill:#ff0000;stroke:#ff0000;" x="299.419893" xlink:href="#m316b0a7198" y="246.704683"/>
     <use style="fill:#ff0000;stroke:#ff0000;" x="300.613476" xlink:href="#m316b0a7198" y="246.704683"/>
     <use style="fill:#ff0000;stroke:#ff0000;" x="301.807059" xlink:href="#m316b0a7198" y="246.704683"/>
     <use style="fill:#ff0000;stroke:#ff0000;" x="303.000642" xlink:href="#m316b0a7198" y="246.704683"/>
     <use style="fill:#ff0000;stroke:#ff0000;" x="304.194225" xlink:href="#m316b0a7198" y="246.704683"/>
     <use style="fill:#ff0000;stroke:#ff0000;" x="305.387807" xlink:href="#m316b0a7198" y="246.704683"/>
     <use style="fill:#ff0000;stroke:#ff0000;" x="306.58139" xlink:href="#m316b0a7198" y="246.704683"/>
     <use style="fill:#ff0000;stroke:#ff0000;" x="307.774973" xlink:href="#m316b0a7198" y="246.704683"/>
     <use style="fill:#ff0000;stroke:#ff0000;" x="308.968556" xlink:href="#m316b0a7198" y="246.704683"/>
     <use style="fill:#ff0000;stroke:#ff0000;" x="310.162139" xlink:href="#m316b0a7198" y="246.704683"/>
     <use style="fill:#ff0000;stroke:#ff0000;" x="311.355722" xlink:href="#m316b0a7198" y="246.704683"/>
     <use style="fill:#ff0000;stroke:#ff0000;" x="312.549305" xlink:href="#m316b0a7198" y="246.704683"/>
     <use style="fill:#ff0000;stroke:#ff0000;" x="313.742888" xlink:href="#m316b0a7198" y="246.704683"/>
     <use style="fill:#ff0000;stroke:#ff0000;" x="314.936471" xlink:href="#m316b0a7198" y="246.704683"/>
     <use style="fill:#ff0000;stroke:#ff0000;" x="316.130053" xlink:href="#m316b0a7198" y="246.704683"/>
     <use style="fill:#ff0000;stroke:#ff0000;" x="317.323636" xlink:href="#m316b0a7198" y="246.704683"/>
     <use style="fill:#ff0000;stroke:#ff0000;" x="318.517219" xlink:href="#m316b0a7198" y="246.704683"/>
     <use style="fill:#ff0000;stroke:#ff0000;" x="319.710802" xlink:href="#m316b0a7198" y="246.704683"/>
     <use style="fill:#ff0000;stroke:#ff0000;" x="320.904385" xlink:href="#m316b0a7198" y="246.704683"/>
     <use style="fill:#ff0000;stroke:#ff0000;" x="322.097968" xlink:href="#m316b0a7198" y="246.704683"/>
     <use style="fill:#ff0000;stroke:#ff0000;" x="323.291551" xlink:href="#m316b0a7198" y="246.704683"/>
     <use style="fill:#ff0000;stroke:#ff0000;" x="324.485134" xlink:href="#m316b0a7198" y="246.704683"/>
     <use style="fill:#ff0000;stroke:#ff0000;" x="325.678717" xlink:href="#m316b0a7198" y="246.704683"/>
     <use style="fill:#ff0000;stroke:#ff0000;" x="326.872299" xlink:href="#m316b0a7198" y="246.704683"/>
     <use style="fill:#ff0000;stroke:#ff0000;" x="328.065882" xlink:href="#m316b0a7198" y="246.704683"/>
     <use style="fill:#ff0000;stroke:#ff0000;" x="329.259465" xlink:href="#m316b0a7198" y="246.704683"/>
     <use style="fill:#ff0000;stroke:#ff0000;" x="330.453048" xlink:href="#m316b0a7198" y="246.704683"/>
     <use style="fill:#ff0000;stroke:#ff0000;" x="331.646631" xlink:href="#m316b0a7198" y="246.704683"/>
     <use style="fill:#ff0000;stroke:#ff0000;" x="332.840214" xlink:href="#m316b0a7198" y="246.704683"/>
     <use style="fill:#ff0000;stroke:#ff0000;" x="334.033797" xlink:href="#m316b0a7198" y="246.704683"/>
     <use style="fill:#ff0000;stroke:#ff0000;" x="335.22738" xlink:href="#m316b0a7198" y="246.704683"/>
     <use style="fill:#ff0000;stroke:#ff0000;" x="336.420963" xlink:href="#m316b0a7198" y="246.704683"/>
     <use style="fill:#ff0000;stroke:#ff0000;" x="337.614545" xlink:href="#m316b0a7198" y="246.704683"/>
     <use style="fill:#ff0000;stroke:#ff0000;" x="338.808128" xlink:href="#m316b0a7198" y="246.704683"/>
     <use style="fill:#ff0000;stroke:#ff0000;" x="340.001711" xlink:href="#m316b0a7198" y="246.704683"/>
     <use style="fill:#ff0000;stroke:#ff0000;" x="341.195294" xlink:href="#m316b0a7198" y="246.704683"/>
     <use style="fill:#ff0000;stroke:#ff0000;" x="342.388877" xlink:href="#m316b0a7198" y="246.704683"/>
     <use style="fill:#ff0000;stroke:#ff0000;" x="343.58246" xlink:href="#m316b0a7198" y="246.704683"/>
     <use style="fill:#ff0000;stroke:#ff0000;" x="344.776043" xlink:href="#m316b0a7198" y="246.704683"/>
     <use style="fill:#ff0000;stroke:#ff0000;" x="345.969626" xlink:href="#m316b0a7198" y="246.704683"/>
     <use style="fill:#ff0000;stroke:#ff0000;" x="347.163209" xlink:href="#m316b0a7198" y="246.704683"/>
     <use style="fill:#ff0000;stroke:#ff0000;" x="348.356791" xlink:href="#m316b0a7198" y="246.704683"/>
     <use style="fill:#ff0000;stroke:#ff0000;" x="349.550374" xlink:href="#m316b0a7198" y="246.704683"/>
     <use style="fill:#ff0000;stroke:#ff0000;" x="350.743957" xlink:href="#m316b0a7198" y="246.704683"/>
     <use style="fill:#ff0000;stroke:#ff0000;" x="351.93754" xlink:href="#m316b0a7198" y="246.704683"/>
     <use style="fill:#ff0000;stroke:#ff0000;" x="353.131123" xlink:href="#m316b0a7198" y="246.704683"/>
     <use style="fill:#ff0000;stroke:#ff0000;" x="354.324706" xlink:href="#m316b0a7198" y="246.704683"/>
     <use style="fill:#ff0000;stroke:#ff0000;" x="355.518289" xlink:href="#m316b0a7198" y="246.704683"/>
     <use style="fill:#ff0000;stroke:#ff0000;" x="356.711872" xlink:href="#m316b0a7198" y="246.704683"/>
     <use style="fill:#ff0000;stroke:#ff0000;" x="357.905455" xlink:href="#m316b0a7198" y="246.704683"/>
     <use style="fill:#ff0000;stroke:#ff0000;" x="359.099037" xlink:href="#m316b0a7198" y="246.704683"/>
     <use style="fill:#ff0000;stroke:#ff0000;" x="360.29262" xlink:href="#m316b0a7198" y="246.704683"/>
     <use style="fill:#ff0000;stroke:#ff0000;" x="361.486203" xlink:href="#m316b0a7198" y="246.704683"/>
     <use style="fill:#ff0000;stroke:#ff0000;" x="362.679786" xlink:href="#m316b0a7198" y="246.704683"/>
     <use style="fill:#ff0000;stroke:#ff0000;" x="363.873369" xlink:href="#m316b0a7198" y="246.704683"/>
     <use style="fill:#ff0000;stroke:#ff0000;" x="365.066952" xlink:href="#m316b0a7198" y="246.704683"/>
     <use style="fill:#ff0000;stroke:#ff0000;" x="366.260535" xlink:href="#m316b0a7198" y="246.704683"/>
     <use style="fill:#ff0000;stroke:#ff0000;" x="367.454118" xlink:href="#m316b0a7198" y="246.704683"/>
     <use style="fill:#ff0000;stroke:#ff0000;" x="368.647701" xlink:href="#m316b0a7198" y="246.704683"/>
     <use style="fill:#ff0000;stroke:#ff0000;" x="369.841283" xlink:href="#m316b0a7198" y="246.704683"/>
     <use style="fill:#ff0000;stroke:#ff0000;" x="371.034866" xlink:href="#m316b0a7198" y="246.704683"/>
     <use style="fill:#ff0000;stroke:#ff0000;" x="372.228449" xlink:href="#m316b0a7198" y="246.704683"/>
     <use style="fill:#ff0000;stroke:#ff0000;" x="373.422032" xlink:href="#m316b0a7198" y="246.704683"/>
     <use style="fill:#ff0000;stroke:#ff0000;" x="374.615615" xlink:href="#m316b0a7198" y="246.704683"/>
     <use style="fill:#ff0000;stroke:#ff0000;" x="375.809198" xlink:href="#m316b0a7198" y="246.704683"/>
     <use style="fill:#ff0000;stroke:#ff0000;" x="377.002781" xlink:href="#m316b0a7198" y="246.704683"/>
     <use style="fill:#ff0000;stroke:#ff0000;" x="378.196364" xlink:href="#m316b0a7198" y="246.704683"/>
     <use style="fill:#ff0000;stroke:#ff0000;" x="379.389947" xlink:href="#m316b0a7198" y="246.704683"/>
     <use style="fill:#ff0000;stroke:#ff0000;" x="380.583529" xlink:href="#m316b0a7198" y="246.704683"/>
     <use style="fill:#ff0000;stroke:#ff0000;" x="381.777112" xlink:href="#m316b0a7198" y="246.704683"/>
     <use style="fill:#ff0000;stroke:#ff0000;" x="382.970695" xlink:href="#m316b0a7198" y="246.704683"/>
     <use style="fill:#ff0000;stroke:#ff0000;" x="384.164278" xlink:href="#m316b0a7198" y="246.704683"/>
     <use style="fill:#ff0000;stroke:#ff0000;" x="385.357861" xlink:href="#m316b0a7198" y="246.704683"/>
     <use style="fill:#ff0000;stroke:#ff0000;" x="386.551444" xlink:href="#m316b0a7198" y="246.704683"/>
     <use style="fill:#ff0000;stroke:#ff0000;" x="387.745027" xlink:href="#m316b0a7198" y="246.704683"/>
     <use style="fill:#ff0000;stroke:#ff0000;" x="388.93861" xlink:href="#m316b0a7198" y="246.704683"/>
     <use style="fill:#ff0000;stroke:#ff0000;" x="390.132193" xlink:href="#m316b0a7198" y="246.704683"/>
     <use style="fill:#ff0000;stroke:#ff0000;" x="391.325775" xlink:href="#m316b0a7198" y="246.704683"/>
     <use style="fill:#ff0000;stroke:#ff0000;" x="392.519358" xlink:href="#m316b0a7198" y="246.704683"/>
     <use style="fill:#ff0000;stroke:#ff0000;" x="393.712941" xlink:href="#m316b0a7198" y="246.704683"/>
     <use style="fill:#ff0000;stroke:#ff0000;" x="394.906524" xlink:href="#m316b0a7198" y="246.704683"/>
     <use style="fill:#ff0000;stroke:#ff0000;" x="396.100107" xlink:href="#m316b0a7198" y="246.704683"/>
     <use style="fill:#ff0000;stroke:#ff0000;" x="397.29369" xlink:href="#m316b0a7198" y="246.704683"/>
     <use style="fill:#ff0000;stroke:#ff0000;" x="398.487273" xlink:href="#m316b0a7198" y="246.704683"/>
    </g>
   </g>
   <g id="patch_3">
    <path d="M 57.6 307.584 
L 57.6 41.472 
" style="fill:none;stroke:#000000;stroke-linecap:square;stroke-linejoin:miter;stroke-width:0.8;"/>
   </g>
   <g id="patch_4">
    <path d="M 414.72 307.584 
L 414.72 41.472 
" style="fill:none;stroke:#000000;stroke-linecap:square;stroke-linejoin:miter;stroke-width:0.8;"/>
   </g>
   <g id="patch_5">
    <path d="M 57.6 307.584 
L 414.72 307.584 
" style="fill:none;stroke:#000000;stroke-linecap:square;stroke-linejoin:miter;stroke-width:0.8;"/>
   </g>
   <g id="patch_6">
    <path d="M 57.6 41.472 
L 414.72 41.472 
" style="fill:none;stroke:#000000;stroke-linecap:square;stroke-linejoin:miter;stroke-width:0.8;"/>
   </g>
  </g>
 </g>
 <defs>
  <clipPath id="p6fd10feb15">
   <rect height="266.112" width="357.12" x="57.6" y="41.472"/>
  </clipPath>
 </defs>
</svg>
