<?xml version="1.0" encoding="utf-8" standalone="no"?>
<!DOCTYPE svg PUBLIC "-//W3C//DTD SVG 1.1//EN"
  "http://www.w3.org/Graphics/SVG/1.1/DTD/svg11.dtd">
<!-- Created with matplotlib (https://matplotlib.org/) -->
<svg height="345.6pt" version="1.1" viewBox="0 0 460.8 345.6" width="460.8pt" xmlns="http://www.w3.org/2000/svg" xmlns:xlink="http://www.w3.org/1999/xlink">
 <defs>
  <style type="text/css">
*{stroke-linecap:butt;stroke-linejoin:round;}
  </style>
 </defs>
 <g id="figure_1">
  <g id="patch_1">
   <path d="M 0 345.6 
L 460.8 345.6 
L 460.8 0 
L 0 0 
z
" style="fill:#ffffff;"/>
  </g>
  <g id="axes_1">
   <g id="patch_2">
    <path d="M 57.6 307.584 
L 414.72 307.584 
L 414.72 41.472 
L 57.6 41.472 
z
" style="fill:#ffffff;"/>
   </g>
   <g id="line2d_1">
    <path clip-path="url(#pb65de96b0c)" d="M 73.832727 53.568 
L 75.489128 59.140792 
L 78.801929 59.140792 
L 80.45833 87.017736 
L 82.114731 85.121569 
L 85.427532 85.121569 
L 87.083933 112.020516 
L 88.740334 112.020516 
L 90.396735 137.42933 
L 92.053135 137.42933 
L 93.709536 163.60854 
L 97.022338 163.60854 
L 98.678738 188.468266 
L 100.335139 188.468266 
L 101.99154 181.137654 
L 103.647941 181.137654 
L 105.304341 206.389736 
L 110.273544 206.389736 
L 111.929944 229.895475 
L 113.586345 229.895475 
L 115.242746 219.171953 
L 116.899147 219.171953 
L 118.555547 208.644715 
L 120.211948 208.644715 
L 121.868349 197.944618 
L 123.52475 197.944618 
L 125.18115 206.027906 
L 128.493952 206.027906 
L 130.150353 205.029703 
L 133.463154 205.029703 
L 135.119555 202.880372 
L 136.775955 201.886649 
L 140.088757 201.886649 
L 141.745158 191.614739 
L 143.401558 191.614739 
L 145.057959 200.180664 
L 146.71436 200.180664 
L 148.370761 197.256453 
L 153.339963 197.256453 
L 154.996364 193.756303 
L 156.652764 193.756303 
L 158.309165 202.046569 
L 159.965566 200.500525 
L 161.621967 200.500525 
L 163.278367 208.522084 
L 164.934768 208.522084 
L 166.591169 198.461324 
L 169.90397 198.461324 
L 171.560371 187.543532 
L 173.216772 195.021348 
L 174.873173 195.021348 
L 176.529573 193.055778 
L 178.185974 193.055778 
L 179.842375 189.405298 
L 181.498776 189.405298 
L 183.155176 197.748522 
L 184.811577 197.748522 
L 186.467978 188.546335 
L 188.124378 196.630554 
L 191.43718 196.630554 
L 193.093581 205.270878 
L 194.749981 204.219474 
L 198.062783 204.219474 
L 199.719184 213.082994 
L 201.375584 213.082994 
L 203.031985 202.730024 
L 204.688386 202.730024 
L 206.344787 211.804824 
L 209.657588 211.69378 
L 212.97039 211.69378 
L 214.62679 219.495186 
L 216.283191 219.495186 
L 217.939592 227.670783 
L 219.595993 227.670783 
L 221.252393 227.134719 
L 222.908794 227.134719 
L 224.565195 234.691998 
L 226.221596 234.691998 
L 227.877996 230.843965 
L 229.534397 230.843965 
L 231.190798 238.54717 
L 232.847199 238.54717 
L 234.503599 246.190023 
L 237.816401 246.190023 
L 239.472801 253.513183 
L 241.129202 242.431768 
L 244.442004 242.431768 
L 246.098404 232.245067 
L 249.411206 232.245067 
L 251.067607 239.561034 
L 252.724007 239.561034 
L 254.380408 247.807223 
L 256.036809 247.807223 
L 257.69321 237.490674 
L 272.600816 237.490674 
L 274.257217 233.666314 
L 275.913618 223.898429 
L 282.539221 223.898429 
L 284.195622 231.911556 
L 285.852022 231.911556 
L 289.164824 248.362736 
L 290.821224 248.362736 
L 292.477625 236.967942 
L 294.134026 236.967942 
L 295.790427 227.214823 
L 297.446827 227.214823 
L 299.103228 228.223729 
L 300.759629 236.64863 
L 304.07243 236.64863 
L 305.728831 237.515324 
L 307.385232 237.515324 
L 309.041633 245.477949 
L 310.698033 245.477949 
L 312.354434 252.583712 
L 314.010835 252.583712 
L 315.667236 260.069793 
L 320.636438 260.069793 
L 322.292839 268.143216 
L 325.60564 268.143216 
L 327.262041 268.353047 
L 328.918442 268.353047 
L 330.574842 267.643973 
L 332.231243 267.643973 
L 333.887644 273.7895 
L 335.544045 282.253693 
L 337.200445 282.253693 
L 338.856846 289.573273 
L 340.513247 289.573273 
L 342.169647 295.488 
L 343.826048 295.488 
L 345.482449 283.917184 
L 348.79525 283.917184 
L 350.451651 273.93708 
L 352.108052 273.93708 
L 353.764453 281.396766 
L 355.420853 281.396766 
L 357.077254 277.534386 
L 358.733655 277.534386 
L 360.390056 265.877441 
L 363.702857 265.877441 
L 365.359258 263.383799 
L 367.015659 253.466632 
L 368.672059 253.466632 
L 370.32846 241.737788 
L 371.984861 241.737788 
L 373.641262 230.367699 
L 375.297662 230.367699 
L 376.954063 237.72959 
L 378.610464 237.72959 
L 380.266865 246.704683 
L 398.487273 246.704683 
L 398.487273 246.704683 
" style="fill:none;stroke:#ff0000;stroke-linecap:square;stroke-width:12;"/>
    <defs>
     <path d="M 0 3 
C 0.795609 3 1.55874 2.683901 2.12132 2.12132 
C 2.683901 1.55874 3 0.795609 3 0 
C 3 -0.795609 2.683901 -1.55874 2.12132 -2.12132 
C 1.55874 -2.683901 0.795609 -3 0 -3 
C -0.795609 -3 -1.55874 -2.683901 -2.12132 -2.12132 
C -2.683901 -1.55874 -3 -0.795609 -3 0 
C -3 0.795609 -2.683901 1.55874 -2.12132 2.12132 
C -1.55874 2.683901 -0.795609 3 0 3 
z
" id="m1054baa9b6" style="stroke:#ff0000;"/>
    </defs>
    <g clip-path="url(#pb65de96b0c)">
     <use style="fill:#ff0000;stroke:#ff0000;" x="73.832727" xlink:href="#m1054baa9b6" y="53.568"/>
     <use style="fill:#ff0000;stroke:#ff0000;" x="75.489128" xlink:href="#m1054baa9b6" y="59.140792"/>
     <use style="fill:#ff0000;stroke:#ff0000;" x="77.145529" xlink:href="#m1054baa9b6" y="59.140792"/>
     <use style="fill:#ff0000;stroke:#ff0000;" x="78.801929" xlink:href="#m1054baa9b6" y="59.140792"/>
     <use style="fill:#ff0000;stroke:#ff0000;" x="80.45833" xlink:href="#m1054baa9b6" y="87.017736"/>
     <use style="fill:#ff0000;stroke:#ff0000;" x="82.114731" xlink:href="#m1054baa9b6" y="85.121569"/>
     <use style="fill:#ff0000;stroke:#ff0000;" x="83.771132" xlink:href="#m1054baa9b6" y="85.121569"/>
     <use style="fill:#ff0000;stroke:#ff0000;" x="85.427532" xlink:href="#m1054baa9b6" y="85.121569"/>
     <use style="fill:#ff0000;stroke:#ff0000;" x="87.083933" xlink:href="#m1054baa9b6" y="112.020516"/>
     <use style="fill:#ff0000;stroke:#ff0000;" x="88.740334" xlink:href="#m1054baa9b6" y="112.020516"/>
     <use style="fill:#ff0000;stroke:#ff0000;" x="90.396735" xlink:href="#m1054baa9b6" y="137.42933"/>
     <use style="fill:#ff0000;stroke:#ff0000;" x="92.053135" xlink:href="#m1054baa9b6" y="137.42933"/>
     <use style="fill:#ff0000;stroke:#ff0000;" x="93.709536" xlink:href="#m1054baa9b6" y="163.60854"/>
     <use style="fill:#ff0000;stroke:#ff0000;" x="95.365937" xlink:href="#m1054baa9b6" y="163.60854"/>
     <use style="fill:#ff0000;stroke:#ff0000;" x="97.022338" xlink:href="#m1054baa9b6" y="163.60854"/>
     <use style="fill:#ff0000;stroke:#ff0000;" x="98.678738" xlink:href="#m1054baa9b6" y="188.468266"/>
     <use style="fill:#ff0000;stroke:#ff0000;" x="100.335139" xlink:href="#m1054baa9b6" y="188.468266"/>
     <use style="fill:#ff0000;stroke:#ff0000;" x="101.99154" xlink:href="#m1054baa9b6" y="181.137654"/>
     <use style="fill:#ff0000;stroke:#ff0000;" x="103.647941" xlink:href="#m1054baa9b6" y="181.137654"/>
     <use style="fill:#ff0000;stroke:#ff0000;" x="105.304341" xlink:href="#m1054baa9b6" y="206.389736"/>
     <use style="fill:#ff0000;stroke:#ff0000;" x="106.960742" xlink:href="#m1054baa9b6" y="206.389736"/>
     <use style="fill:#ff0000;stroke:#ff0000;" x="108.617143" xlink:href="#m1054baa9b6" y="206.389736"/>
     <use style="fill:#ff0000;stroke:#ff0000;" x="110.273544" xlink:href="#m1054baa9b6" y="206.389736"/>
     <use style="fill:#ff0000;stroke:#ff0000;" x="111.929944" xlink:href="#m1054baa9b6" y="229.895475"/>
     <use style="fill:#ff0000;stroke:#ff0000;" x="113.586345" xlink:href="#m1054baa9b6" y="229.895475"/>
     <use style="fill:#ff0000;stroke:#ff0000;" x="115.242746" xlink:href="#m1054baa9b6" y="219.171953"/>
     <use style="fill:#ff0000;stroke:#ff0000;" x="116.899147" xlink:href="#m1054baa9b6" y="219.171953"/>
     <use style="fill:#ff0000;stroke:#ff0000;" x="118.555547" xlink:href="#m1054baa9b6" y="208.644715"/>
     <use style="fill:#ff0000;stroke:#ff0000;" x="120.211948" xlink:href="#m1054baa9b6" y="208.644715"/>
     <use style="fill:#ff0000;stroke:#ff0000;" x="121.868349" xlink:href="#m1054baa9b6" y="197.944618"/>
     <use style="fill:#ff0000;stroke:#ff0000;" x="123.52475" xlink:href="#m1054baa9b6" y="197.944618"/>
     <use style="fill:#ff0000;stroke:#ff0000;" x="125.18115" xlink:href="#m1054baa9b6" y="206.027906"/>
     <use style="fill:#ff0000;stroke:#ff0000;" x="126.837551" xlink:href="#m1054baa9b6" y="206.027906"/>
     <use style="fill:#ff0000;stroke:#ff0000;" x="128.493952" xlink:href="#m1054baa9b6" y="206.027906"/>
     <use style="fill:#ff0000;stroke:#ff0000;" x="130.150353" xlink:href="#m1054baa9b6" y="205.029703"/>
     <use style="fill:#ff0000;stroke:#ff0000;" x="131.806753" xlink:href="#m1054baa9b6" y="205.029703"/>
     <use style="fill:#ff0000;stroke:#ff0000;" x="133.463154" xlink:href="#m1054baa9b6" y="205.029703"/>
     <use style="fill:#ff0000;stroke:#ff0000;" x="135.119555" xlink:href="#m1054baa9b6" y="202.880372"/>
     <use style="fill:#ff0000;stroke:#ff0000;" x="136.775955" xlink:href="#m1054baa9b6" y="201.886649"/>
     <use style="fill:#ff0000;stroke:#ff0000;" x="138.432356" xlink:href="#m1054baa9b6" y="201.886649"/>
     <use style="fill:#ff0000;stroke:#ff0000;" x="140.088757" xlink:href="#m1054baa9b6" y="201.886649"/>
     <use style="fill:#ff0000;stroke:#ff0000;" x="141.745158" xlink:href="#m1054baa9b6" y="191.614739"/>
     <use style="fill:#ff0000;stroke:#ff0000;" x="143.401558" xlink:href="#m1054baa9b6" y="191.614739"/>
     <use style="fill:#ff0000;stroke:#ff0000;" x="145.057959" xlink:href="#m1054baa9b6" y="200.180664"/>
     <use style="fill:#ff0000;stroke:#ff0000;" x="146.71436" xlink:href="#m1054baa9b6" y="200.180664"/>
     <use style="fill:#ff0000;stroke:#ff0000;" x="148.370761" xlink:href="#m1054baa9b6" y="197.256453"/>
     <use style="fill:#ff0000;stroke:#ff0000;" x="150.027161" xlink:href="#m1054baa9b6" y="197.256453"/>
     <use style="fill:#ff0000;stroke:#ff0000;" x="151.683562" xlink:href="#m1054baa9b6" y="197.256453"/>
     <use style="fill:#ff0000;stroke:#ff0000;" x="153.339963" xlink:href="#m1054baa9b6" y="197.256453"/>
     <use style="fill:#ff0000;stroke:#ff0000;" x="154.996364" xlink:href="#m1054baa9b6" y="193.756303"/>
     <use style="fill:#ff0000;stroke:#ff0000;" x="156.652764" xlink:href="#m1054baa9b6" y="193.756303"/>
     <use style="fill:#ff0000;stroke:#ff0000;" x="158.309165" xlink:href="#m1054baa9b6" y="202.046569"/>
     <use style="fill:#ff0000;stroke:#ff0000;" x="159.965566" xlink:href="#m1054baa9b6" y="200.500525"/>
     <use style="fill:#ff0000;stroke:#ff0000;" x="161.621967" xlink:href="#m1054baa9b6" y="200.500525"/>
     <use style="fill:#ff0000;stroke:#ff0000;" x="163.278367" xlink:href="#m1054baa9b6" y="208.522084"/>
     <use style="fill:#ff0000;stroke:#ff0000;" x="164.934768" xlink:href="#m1054baa9b6" y="208.522084"/>
     <use style="fill:#ff0000;stroke:#ff0000;" x="166.591169" xlink:href="#m1054baa9b6" y="198.461324"/>
     <use style="fill:#ff0000;stroke:#ff0000;" x="168.24757" xlink:href="#m1054baa9b6" y="198.461324"/>
     <use style="fill:#ff0000;stroke:#ff0000;" x="169.90397" xlink:href="#m1054baa9b6" y="198.461324"/>
     <use style="fill:#ff0000;stroke:#ff0000;" x="171.560371" xlink:href="#m1054baa9b6" y="187.543532"/>
     <use style="fill:#ff0000;stroke:#ff0000;" x="173.216772" xlink:href="#m1054baa9b6" y="195.021348"/>
     <use style="fill:#ff0000;stroke:#ff0000;" x="174.873173" xlink:href="#m1054baa9b6" y="195.021348"/>
     <use style="fill:#ff0000;stroke:#ff0000;" x="176.529573" xlink:href="#m1054baa9b6" y="193.055778"/>
     <use style="fill:#ff0000;stroke:#ff0000;" x="178.185974" xlink:href="#m1054baa9b6" y="193.055778"/>
     <use style="fill:#ff0000;stroke:#ff0000;" x="179.842375" xlink:href="#m1054baa9b6" y="189.405298"/>
     <use style="fill:#ff0000;stroke:#ff0000;" x="181.498776" xlink:href="#m1054baa9b6" y="189.405298"/>
     <use style="fill:#ff0000;stroke:#ff0000;" x="183.155176" xlink:href="#m1054baa9b6" y="197.748522"/>
     <use style="fill:#ff0000;stroke:#ff0000;" x="184.811577" xlink:href="#m1054baa9b6" y="197.748522"/>
     <use style="fill:#ff0000;stroke:#ff0000;" x="186.467978" xlink:href="#m1054baa9b6" y="188.546335"/>
     <use style="fill:#ff0000;stroke:#ff0000;" x="188.124378" xlink:href="#m1054baa9b6" y="196.630554"/>
     <use style="fill:#ff0000;stroke:#ff0000;" x="189.780779" xlink:href="#m1054baa9b6" y="196.630554"/>
     <use style="fill:#ff0000;stroke:#ff0000;" x="191.43718" xlink:href="#m1054baa9b6" y="196.630554"/>
     <use style="fill:#ff0000;stroke:#ff0000;" x="193.093581" xlink:href="#m1054baa9b6" y="205.270878"/>
     <use style="fill:#ff0000;stroke:#ff0000;" x="194.749981" xlink:href="#m1054baa9b6" y="204.219474"/>
     <use style="fill:#ff0000;stroke:#ff0000;" x="196.406382" xlink:href="#m1054baa9b6" y="204.219474"/>
     <use style="fill:#ff0000;stroke:#ff0000;" x="198.062783" xlink:href="#m1054baa9b6" y="204.219474"/>
     <use style="fill:#ff0000;stroke:#ff0000;" x="199.719184" xlink:href="#m1054baa9b6" y="213.082994"/>
     <use style="fill:#ff0000;stroke:#ff0000;" x="201.375584" xlink:href="#m1054baa9b6" y="213.082994"/>
     <use style="fill:#ff0000;stroke:#ff0000;" x="203.031985" xlink:href="#m1054baa9b6" y="202.730024"/>
     <use style="fill:#ff0000;stroke:#ff0000;" x="204.688386" xlink:href="#m1054baa9b6" y="202.730024"/>
     <use style="fill:#ff0000;stroke:#ff0000;" x="206.344787" xlink:href="#m1054baa9b6" y="211.804824"/>
     <use style="fill:#ff0000;stroke:#ff0000;" x="208.001187" xlink:href="#m1054baa9b6" y="211.69378"/>
     <use style="fill:#ff0000;stroke:#ff0000;" x="209.657588" xlink:href="#m1054baa9b6" y="211.69378"/>
     <use style="fill:#ff0000;stroke:#ff0000;" x="211.313989" xlink:href="#m1054baa9b6" y="211.69378"/>
     <use style="fill:#ff0000;stroke:#ff0000;" x="212.97039" xlink:href="#m1054baa9b6" y="211.69378"/>
     <use style="fill:#ff0000;stroke:#ff0000;" x="214.62679" xlink:href="#m1054baa9b6" y="219.495186"/>
     <use style="fill:#ff0000;stroke:#ff0000;" x="216.283191" xlink:href="#m1054baa9b6" y="219.495186"/>
     <use style="fill:#ff0000;stroke:#ff0000;" x="217.939592" xlink:href="#m1054baa9b6" y="227.670783"/>
     <use style="fill:#ff0000;stroke:#ff0000;" x="219.595993" xlink:href="#m1054baa9b6" y="227.670783"/>
     <use style="fill:#ff0000;stroke:#ff0000;" x="221.252393" xlink:href="#m1054baa9b6" y="227.134719"/>
     <use style="fill:#ff0000;stroke:#ff0000;" x="222.908794" xlink:href="#m1054baa9b6" y="227.134719"/>
     <use style="fill:#ff0000;stroke:#ff0000;" x="224.565195" xlink:href="#m1054baa9b6" y="234.691998"/>
     <use style="fill:#ff0000;stroke:#ff0000;" x="226.221596" xlink:href="#m1054baa9b6" y="234.691998"/>
     <use style="fill:#ff0000;stroke:#ff0000;" x="227.877996" xlink:href="#m1054baa9b6" y="230.843965"/>
     <use style="fill:#ff0000;stroke:#ff0000;" x="229.534397" xlink:href="#m1054baa9b6" y="230.843965"/>
     <use style="fill:#ff0000;stroke:#ff0000;" x="231.190798" xlink:href="#m1054baa9b6" y="238.54717"/>
     <use style="fill:#ff0000;stroke:#ff0000;" x="232.847199" xlink:href="#m1054baa9b6" y="238.54717"/>
     <use style="fill:#ff0000;stroke:#ff0000;" x="234.503599" xlink:href="#m1054baa9b6" y="246.190023"/>
     <use style="fill:#ff0000;stroke:#ff0000;" x="236.16" xlink:href="#m1054baa9b6" y="246.190023"/>
     <use style="fill:#ff0000;stroke:#ff0000;" x="237.816401" xlink:href="#m1054baa9b6" y="246.190023"/>
     <use style="fill:#ff0000;stroke:#ff0000;" x="239.472801" xlink:href="#m1054baa9b6" y="253.513183"/>
     <use style="fill:#ff0000;stroke:#ff0000;" x="241.129202" xlink:href="#m1054baa9b6" y="242.431768"/>
     <use style="fill:#ff0000;stroke:#ff0000;" x="242.785603" xlink:href="#m1054baa9b6" y="242.431768"/>
     <use style="fill:#ff0000;stroke:#ff0000;" x="244.442004" xlink:href="#m1054baa9b6" y="242.431768"/>
     <use style="fill:#ff0000;stroke:#ff0000;" x="246.098404" xlink:href="#m1054baa9b6" y="232.245067"/>
     <use style="fill:#ff0000;stroke:#ff0000;" x="247.754805" xlink:href="#m1054baa9b6" y="232.245067"/>
     <use style="fill:#ff0000;stroke:#ff0000;" x="249.411206" xlink:href="#m1054baa9b6" y="232.245067"/>
     <use style="fill:#ff0000;stroke:#ff0000;" x="251.067607" xlink:href="#m1054baa9b6" y="239.561034"/>
     <use style="fill:#ff0000;stroke:#ff0000;" x="252.724007" xlink:href="#m1054baa9b6" y="239.561034"/>
     <use style="fill:#ff0000;stroke:#ff0000;" x="254.380408" xlink:href="#m1054baa9b6" y="247.807223"/>
     <use style="fill:#ff0000;stroke:#ff0000;" x="256.036809" xlink:href="#m1054baa9b6" y="247.807223"/>
     <use style="fill:#ff0000;stroke:#ff0000;" x="257.69321" xlink:href="#m1054baa9b6" y="237.490674"/>
     <use style="fill:#ff0000;stroke:#ff0000;" x="259.34961" xlink:href="#m1054baa9b6" y="237.490674"/>
     <use style="fill:#ff0000;stroke:#ff0000;" x="261.006011" xlink:href="#m1054baa9b6" y="237.490674"/>
     <use style="fill:#ff0000;stroke:#ff0000;" x="262.662412" xlink:href="#m1054baa9b6" y="237.490674"/>
     <use style="fill:#ff0000;stroke:#ff0000;" x="264.318813" xlink:href="#m1054baa9b6" y="237.490674"/>
     <use style="fill:#ff0000;stroke:#ff0000;" x="265.975213" xlink:href="#m1054baa9b6" y="237.490674"/>
     <use style="fill:#ff0000;stroke:#ff0000;" x="267.631614" xlink:href="#m1054baa9b6" y="237.490674"/>
     <use style="fill:#ff0000;stroke:#ff0000;" x="269.288015" xlink:href="#m1054baa9b6" y="237.490674"/>
     <use style="fill:#ff0000;stroke:#ff0000;" x="270.944416" xlink:href="#m1054baa9b6" y="237.490674"/>
     <use style="fill:#ff0000;stroke:#ff0000;" x="272.600816" xlink:href="#m1054baa9b6" y="237.490674"/>
     <use style="fill:#ff0000;stroke:#ff0000;" x="274.257217" xlink:href="#m1054baa9b6" y="233.666314"/>
     <use style="fill:#ff0000;stroke:#ff0000;" x="275.913618" xlink:href="#m1054baa9b6" y="223.898429"/>
     <use style="fill:#ff0000;stroke:#ff0000;" x="277.570019" xlink:href="#m1054baa9b6" y="223.898429"/>
     <use style="fill:#ff0000;stroke:#ff0000;" x="279.226419" xlink:href="#m1054baa9b6" y="223.898429"/>
     <use style="fill:#ff0000;stroke:#ff0000;" x="280.88282" xlink:href="#m1054baa9b6" y="223.898429"/>
     <use style="fill:#ff0000;stroke:#ff0000;" x="282.539221" xlink:href="#m1054baa9b6" y="223.898429"/>
     <use style="fill:#ff0000;stroke:#ff0000;" x="284.195622" xlink:href="#m1054baa9b6" y="231.911556"/>
     <use style="fill:#ff0000;stroke:#ff0000;" x="285.852022" xlink:href="#m1054baa9b6" y="231.911556"/>
     <use style="fill:#ff0000;stroke:#ff0000;" x="287.508423" xlink:href="#m1054baa9b6" y="240.02344"/>
     <use style="fill:#ff0000;stroke:#ff0000;" x="289.164824" xlink:href="#m1054baa9b6" y="248.362736"/>
     <use style="fill:#ff0000;stroke:#ff0000;" x="290.821224" xlink:href="#m1054baa9b6" y="248.362736"/>
     <use style="fill:#ff0000;stroke:#ff0000;" x="292.477625" xlink:href="#m1054baa9b6" y="236.967942"/>
     <use style="fill:#ff0000;stroke:#ff0000;" x="294.134026" xlink:href="#m1054baa9b6" y="236.967942"/>
     <use style="fill:#ff0000;stroke:#ff0000;" x="295.790427" xlink:href="#m1054baa9b6" y="227.214823"/>
     <use style="fill:#ff0000;stroke:#ff0000;" x="297.446827" xlink:href="#m1054baa9b6" y="227.214823"/>
     <use style="fill:#ff0000;stroke:#ff0000;" x="299.103228" xlink:href="#m1054baa9b6" y="228.223729"/>
     <use style="fill:#ff0000;stroke:#ff0000;" x="300.759629" xlink:href="#m1054baa9b6" y="236.64863"/>
     <use style="fill:#ff0000;stroke:#ff0000;" x="302.41603" xlink:href="#m1054baa9b6" y="236.64863"/>
     <use style="fill:#ff0000;stroke:#ff0000;" x="304.07243" xlink:href="#m1054baa9b6" y="236.64863"/>
     <use style="fill:#ff0000;stroke:#ff0000;" x="305.728831" xlink:href="#m1054baa9b6" y="237.515324"/>
     <use style="fill:#ff0000;stroke:#ff0000;" x="307.385232" xlink:href="#m1054baa9b6" y="237.515324"/>
     <use style="fill:#ff0000;stroke:#ff0000;" x="309.041633" xlink:href="#m1054baa9b6" y="245.477949"/>
     <use style="fill:#ff0000;stroke:#ff0000;" x="310.698033" xlink:href="#m1054baa9b6" y="245.477949"/>
     <use style="fill:#ff0000;stroke:#ff0000;" x="312.354434" xlink:href="#m1054baa9b6" y="252.583712"/>
     <use style="fill:#ff0000;stroke:#ff0000;" x="314.010835" xlink:href="#m1054baa9b6" y="252.583712"/>
     <use style="fill:#ff0000;stroke:#ff0000;" x="315.667236" xlink:href="#m1054baa9b6" y="260.069793"/>
     <use style="fill:#ff0000;stroke:#ff0000;" x="317.323636" xlink:href="#m1054baa9b6" y="260.069793"/>
     <use style="fill:#ff0000;stroke:#ff0000;" x="318.980037" xlink:href="#m1054baa9b6" y="260.069793"/>
     <use style="fill:#ff0000;stroke:#ff0000;" x="320.636438" xlink:href="#m1054baa9b6" y="260.069793"/>
     <use style="fill:#ff0000;stroke:#ff0000;" x="322.292839" xlink:href="#m1054baa9b6" y="268.143216"/>
     <use style="fill:#ff0000;stroke:#ff0000;" x="323.949239" xlink:href="#m1054baa9b6" y="268.143216"/>
     <use style="fill:#ff0000;stroke:#ff0000;" x="325.60564" xlink:href="#m1054baa9b6" y="268.143216"/>
     <use style="fill:#ff0000;stroke:#ff0000;" x="327.262041" xlink:href="#m1054baa9b6" y="268.353047"/>
     <use style="fill:#ff0000;stroke:#ff0000;" x="328.918442" xlink:href="#m1054baa9b6" y="268.353047"/>
     <use style="fill:#ff0000;stroke:#ff0000;" x="330.574842" xlink:href="#m1054baa9b6" y="267.643973"/>
     <use style="fill:#ff0000;stroke:#ff0000;" x="332.231243" xlink:href="#m1054baa9b6" y="267.643973"/>
     <use style="fill:#ff0000;stroke:#ff0000;" x="333.887644" xlink:href="#m1054baa9b6" y="273.7895"/>
     <use style="fill:#ff0000;stroke:#ff0000;" x="335.544045" xlink:href="#m1054baa9b6" y="282.253693"/>
     <use style="fill:#ff0000;stroke:#ff0000;" x="337.200445" xlink:href="#m1054baa9b6" y="282.253693"/>
     <use style="fill:#ff0000;stroke:#ff0000;" x="338.856846" xlink:href="#m1054baa9b6" y="289.573273"/>
     <use style="fill:#ff0000;stroke:#ff0000;" x="340.513247" xlink:href="#m1054baa9b6" y="289.573273"/>
     <use style="fill:#ff0000;stroke:#ff0000;" x="342.169647" xlink:href="#m1054baa9b6" y="295.488"/>
     <use style="fill:#ff0000;stroke:#ff0000;" x="343.826048" xlink:href="#m1054baa9b6" y="295.488"/>
     <use style="fill:#ff0000;stroke:#ff0000;" x="345.482449" xlink:href="#m1054baa9b6" y="283.917184"/>
     <use style="fill:#ff0000;stroke:#ff0000;" x="347.13885" xlink:href="#m1054baa9b6" y="283.917184"/>
     <use style="fill:#ff0000;stroke:#ff0000;" x="348.79525" xlink:href="#m1054baa9b6" y="283.917184"/>
     <use style="fill:#ff0000;stroke:#ff0000;" x="350.451651" xlink:href="#m1054baa9b6" y="273.93708"/>
     <use style="fill:#ff0000;stroke:#ff0000;" x="352.108052" xlink:href="#m1054baa9b6" y="273.93708"/>
     <use style="fill:#ff0000;stroke:#ff0000;" x="353.764453" xlink:href="#m1054baa9b6" y="281.396766"/>
     <use style="fill:#ff0000;stroke:#ff0000;" x="355.420853" xlink:href="#m1054baa9b6" y="281.396766"/>
     <use style="fill:#ff0000;stroke:#ff0000;" x="357.077254" xlink:href="#m1054baa9b6" y="277.534386"/>
     <use style="fill:#ff0000;stroke:#ff0000;" x="358.733655" xlink:href="#m1054baa9b6" y="277.534386"/>
     <use style="fill:#ff0000;stroke:#ff0000;" x="360.390056" xlink:href="#m1054baa9b6" y="265.877441"/>
     <use style="fill:#ff0000;stroke:#ff0000;" x="362.046456" xlink:href="#m1054baa9b6" y="265.877441"/>
     <use style="fill:#ff0000;stroke:#ff0000;" x="363.702857" xlink:href="#m1054baa9b6" y="265.877441"/>
     <use style="fill:#ff0000;stroke:#ff0000;" x="365.359258" xlink:href="#m1054baa9b6" y="263.383799"/>
     <use style="fill:#ff0000;stroke:#ff0000;" x="367.015659" xlink:href="#m1054baa9b6" y="253.466632"/>
     <use style="fill:#ff0000;stroke:#ff0000;" x="368.672059" xlink:href="#m1054baa9b6" y="253.466632"/>
     <use style="fill:#ff0000;stroke:#ff0000;" x="370.32846" xlink:href="#m1054baa9b6" y="241.737788"/>
     <use style="fill:#ff0000;stroke:#ff0000;" x="371.984861" xlink:href="#m1054baa9b6" y="241.737788"/>
     <use style="fill:#ff0000;stroke:#ff0000;" x="373.641262" xlink:href="#m1054baa9b6" y="230.367699"/>
     <use style="fill:#ff0000;stroke:#ff0000;" x="375.297662" xlink:href="#m1054baa9b6" y="230.367699"/>
     <use style="fill:#ff0000;stroke:#ff0000;" x="376.954063" xlink:href="#m1054baa9b6" y="237.72959"/>
     <use style="fill:#ff0000;stroke:#ff0000;" x="378.610464" xlink:href="#m1054baa9b6" y="237.72959"/>
     <use style="fill:#ff0000;stroke:#ff0000;" x="380.266865" xlink:href="#m1054baa9b6" y="246.704683"/>
     <use style="fill:#ff0000;stroke:#ff0000;" x="381.923265" xlink:href="#m1054baa9b6" y="246.704683"/>
     <use style="fill:#ff0000;stroke:#ff0000;" x="383.579666" xlink:href="#m1054baa9b6" y="246.704683"/>
     <use style="fill:#ff0000;stroke:#ff0000;" x="385.236067" xlink:href="#m1054baa9b6" y="246.704683"/>
     <use style="fill:#ff0000;stroke:#ff0000;" x="386.892468" xlink:href="#m1054baa9b6" y="246.704683"/>
     <use style="fill:#ff0000;stroke:#ff0000;" x="388.548868" xlink:href="#m1054baa9b6" y="246.704683"/>
     <use style="fill:#ff0000;stroke:#ff0000;" x="390.205269" xlink:href="#m1054baa9b6" y="246.704683"/>
     <use style="fill:#ff0000;stroke:#ff0000;" x="391.86167" xlink:href="#m1054baa9b6" y="246.704683"/>
     <use style="fill:#ff0000;stroke:#ff0000;" x="393.518071" xlink:href="#m1054baa9b6" y="246.704683"/>
     <use style="fill:#ff0000;stroke:#ff0000;" x="395.174471" xlink:href="#m1054baa9b6" y="246.704683"/>
     <use style="fill:#ff0000;stroke:#ff0000;" x="396.830872" xlink:href="#m1054baa9b6" y="246.704683"/>
     <use style="fill:#ff0000;stroke:#ff0000;" x="398.487273" xlink:href="#m1054baa9b6" y="246.704683"/>
    </g>
   </g>
   <g id="patch_3">
    <path d="M 57.6 307.584 
L 57.6 41.472 
" style="fill:none;stroke:#000000;stroke-linecap:square;stroke-linejoin:miter;stroke-width:0.8;"/>
   </g>
   <g id="patch_4">
    <path d="M 414.72 307.584 
L 414.72 41.472 
" style="fill:none;stroke:#000000;stroke-linecap:square;stroke-linejoin:miter;stroke-width:0.8;"/>
   </g>
   <g id="patch_5">
    <path d="M 57.6 307.584 
L 414.72 307.584 
" style="fill:none;stroke:#000000;stroke-linecap:square;stroke-linejoin:miter;stroke-width:0.8;"/>
   </g>
   <g id="patch_6">
    <path d="M 57.6 41.472 
L 414.72 41.472 
" style="fill:none;stroke:#000000;stroke-linecap:square;stroke-linejoin:miter;stroke-width:0.8;"/>
   </g>
  </g>
 </g>
 <defs>
  <clipPath id="pb65de96b0c">
   <rect height="266.112" width="357.12" x="57.6" y="41.472"/>
  </clipPath>
 </defs>
</svg>
