<?xml version="1.0" encoding="utf-8" standalone="no"?>
<!DOCTYPE svg PUBLIC "-//W3C//DTD SVG 1.1//EN"
  "http://www.w3.org/Graphics/SVG/1.1/DTD/svg11.dtd">
<!-- Created with matplotlib (https://matplotlib.org/) -->
<svg height="345.6pt" version="1.1" viewBox="0 0 460.8 345.6" width="460.8pt" xmlns="http://www.w3.org/2000/svg" xmlns:xlink="http://www.w3.org/1999/xlink">
 <defs>
  <style type="text/css">
*{stroke-linecap:butt;stroke-linejoin:round;}
  </style>
 </defs>
 <g id="figure_1">
  <g id="patch_1">
   <path d="M 0 345.6 
L 460.8 345.6 
L 460.8 0 
L 0 0 
z
" style="fill:#ffffff;"/>
  </g>
  <g id="axes_1">
   <g id="patch_2">
    <path d="M 57.6 307.584 
L 414.72 307.584 
L 414.72 41.472 
L 57.6 41.472 
z
" style="fill:#ffffff;"/>
   </g>
   <g id="line2d_1">
    <path clip-path="url(#pc3a279f55a)" d="M 73.832727 295.488 
L 79.069091 252.868365 
L 84.305455 252.868365 
L 89.541818 210.984673 
L 94.778182 210.984673 
L 100.014545 210.984673 
L 105.250909 255.38772 
L 110.487273 255.38772 
L 115.723636 212.698234 
L 120.96 212.698234 
L 126.196364 171.665051 
L 131.432727 171.665051 
L 136.669091 132.538633 
L 141.905455 132.538633 
L 147.141818 132.538633 
L 152.378182 132.538633 
L 157.614545 92.207012 
L 162.850909 54.389466 
L 168.087273 54.389466 
L 173.323636 54.389466 
L 178.56 102.079517 
L 183.796364 102.079517 
L 189.032727 96.117228 
L 194.269091 96.117228 
L 199.505455 111.892176 
L 204.741818 111.892176 
L 209.978182 111.892176 
L 215.214545 99.442481 
L 220.450909 99.442481 
L 225.687273 85.473958 
L 230.923636 85.473958 
L 236.16 71.786476 
L 241.396364 71.786476 
L 246.632727 71.786476 
L 251.869091 71.786476 
L 257.105455 58.281007 
L 262.341818 58.281007 
L 267.578182 58.281007 
L 272.814545 57.002023 
L 278.050909 57.002023 
L 283.287273 59.148773 
L 288.523636 74.767684 
L 293.76 74.767684 
L 298.996364 90.78732 
L 304.232727 90.78732 
L 309.469091 79.581978 
L 314.705455 79.581978 
L 319.941818 65.678432 
L 325.178182 65.678432 
L 330.414545 53.568 
L 335.650909 53.568 
L 340.887273 70.04083 
L 346.123636 70.04083 
L 351.36 57.873314 
L 356.596364 57.873314 
L 361.832727 72.626546 
L 367.069091 72.626546 
L 372.305455 88.744002 
L 377.541818 88.744002 
L 382.778182 76.523855 
L 388.014545 76.523855 
L 393.250909 63.27035 
L 398.487273 63.27035 
" style="fill:none;stroke:#ff0000;stroke-linecap:square;stroke-width:12;"/>
    <defs>
     <path d="M 0 3 
C 0.795609 3 1.55874 2.683901 2.12132 2.12132 
C 2.683901 1.55874 3 0.795609 3 0 
C 3 -0.795609 2.683901 -1.55874 2.12132 -2.12132 
C 1.55874 -2.683901 0.795609 -3 0 -3 
C -0.795609 -3 -1.55874 -2.683901 -2.12132 -2.12132 
C -2.683901 -1.55874 -3 -0.795609 -3 0 
C -3 0.795609 -2.683901 1.55874 -2.12132 2.12132 
C -1.55874 2.683901 -0.795609 3 0 3 
z
" id="mce454a5996" style="stroke:#ff0000;"/>
    </defs>
    <g clip-path="url(#pc3a279f55a)">
     <use style="fill:#ff0000;stroke:#ff0000;" x="73.832727" xlink:href="#mce454a5996" y="295.488"/>
     <use style="fill:#ff0000;stroke:#ff0000;" x="79.069091" xlink:href="#mce454a5996" y="252.868365"/>
     <use style="fill:#ff0000;stroke:#ff0000;" x="84.305455" xlink:href="#mce454a5996" y="252.868365"/>
     <use style="fill:#ff0000;stroke:#ff0000;" x="89.541818" xlink:href="#mce454a5996" y="210.984673"/>
     <use style="fill:#ff0000;stroke:#ff0000;" x="94.778182" xlink:href="#mce454a5996" y="210.984673"/>
     <use style="fill:#ff0000;stroke:#ff0000;" x="100.014545" xlink:href="#mce454a5996" y="210.984673"/>
     <use style="fill:#ff0000;stroke:#ff0000;" x="105.250909" xlink:href="#mce454a5996" y="255.38772"/>
     <use style="fill:#ff0000;stroke:#ff0000;" x="110.487273" xlink:href="#mce454a5996" y="255.38772"/>
     <use style="fill:#ff0000;stroke:#ff0000;" x="115.723636" xlink:href="#mce454a5996" y="212.698234"/>
     <use style="fill:#ff0000;stroke:#ff0000;" x="120.96" xlink:href="#mce454a5996" y="212.698234"/>
     <use style="fill:#ff0000;stroke:#ff0000;" x="126.196364" xlink:href="#mce454a5996" y="171.665051"/>
     <use style="fill:#ff0000;stroke:#ff0000;" x="131.432727" xlink:href="#mce454a5996" y="171.665051"/>
     <use style="fill:#ff0000;stroke:#ff0000;" x="136.669091" xlink:href="#mce454a5996" y="132.538633"/>
     <use style="fill:#ff0000;stroke:#ff0000;" x="141.905455" xlink:href="#mce454a5996" y="132.538633"/>
     <use style="fill:#ff0000;stroke:#ff0000;" x="147.141818" xlink:href="#mce454a5996" y="132.538633"/>
     <use style="fill:#ff0000;stroke:#ff0000;" x="152.378182" xlink:href="#mce454a5996" y="132.538633"/>
     <use style="fill:#ff0000;stroke:#ff0000;" x="157.614545" xlink:href="#mce454a5996" y="92.207012"/>
     <use style="fill:#ff0000;stroke:#ff0000;" x="162.850909" xlink:href="#mce454a5996" y="54.389466"/>
     <use style="fill:#ff0000;stroke:#ff0000;" x="168.087273" xlink:href="#mce454a5996" y="54.389466"/>
     <use style="fill:#ff0000;stroke:#ff0000;" x="173.323636" xlink:href="#mce454a5996" y="54.389466"/>
     <use style="fill:#ff0000;stroke:#ff0000;" x="178.56" xlink:href="#mce454a5996" y="102.079517"/>
     <use style="fill:#ff0000;stroke:#ff0000;" x="183.796364" xlink:href="#mce454a5996" y="102.079517"/>
     <use style="fill:#ff0000;stroke:#ff0000;" x="189.032727" xlink:href="#mce454a5996" y="96.117228"/>
     <use style="fill:#ff0000;stroke:#ff0000;" x="194.269091" xlink:href="#mce454a5996" y="96.117228"/>
     <use style="fill:#ff0000;stroke:#ff0000;" x="199.505455" xlink:href="#mce454a5996" y="111.892176"/>
     <use style="fill:#ff0000;stroke:#ff0000;" x="204.741818" xlink:href="#mce454a5996" y="111.892176"/>
     <use style="fill:#ff0000;stroke:#ff0000;" x="209.978182" xlink:href="#mce454a5996" y="111.892176"/>
     <use style="fill:#ff0000;stroke:#ff0000;" x="215.214545" xlink:href="#mce454a5996" y="99.442481"/>
     <use style="fill:#ff0000;stroke:#ff0000;" x="220.450909" xlink:href="#mce454a5996" y="99.442481"/>
     <use style="fill:#ff0000;stroke:#ff0000;" x="225.687273" xlink:href="#mce454a5996" y="85.473958"/>
     <use style="fill:#ff0000;stroke:#ff0000;" x="230.923636" xlink:href="#mce454a5996" y="85.473958"/>
     <use style="fill:#ff0000;stroke:#ff0000;" x="236.16" xlink:href="#mce454a5996" y="71.786476"/>
     <use style="fill:#ff0000;stroke:#ff0000;" x="241.396364" xlink:href="#mce454a5996" y="71.786476"/>
     <use style="fill:#ff0000;stroke:#ff0000;" x="246.632727" xlink:href="#mce454a5996" y="71.786476"/>
     <use style="fill:#ff0000;stroke:#ff0000;" x="251.869091" xlink:href="#mce454a5996" y="71.786476"/>
     <use style="fill:#ff0000;stroke:#ff0000;" x="257.105455" xlink:href="#mce454a5996" y="58.281007"/>
     <use style="fill:#ff0000;stroke:#ff0000;" x="262.341818" xlink:href="#mce454a5996" y="58.281007"/>
     <use style="fill:#ff0000;stroke:#ff0000;" x="267.578182" xlink:href="#mce454a5996" y="58.281007"/>
     <use style="fill:#ff0000;stroke:#ff0000;" x="272.814545" xlink:href="#mce454a5996" y="57.002023"/>
     <use style="fill:#ff0000;stroke:#ff0000;" x="278.050909" xlink:href="#mce454a5996" y="57.002023"/>
     <use style="fill:#ff0000;stroke:#ff0000;" x="283.287273" xlink:href="#mce454a5996" y="59.148773"/>
     <use style="fill:#ff0000;stroke:#ff0000;" x="288.523636" xlink:href="#mce454a5996" y="74.767684"/>
     <use style="fill:#ff0000;stroke:#ff0000;" x="293.76" xlink:href="#mce454a5996" y="74.767684"/>
     <use style="fill:#ff0000;stroke:#ff0000;" x="298.996364" xlink:href="#mce454a5996" y="90.78732"/>
     <use style="fill:#ff0000;stroke:#ff0000;" x="304.232727" xlink:href="#mce454a5996" y="90.78732"/>
     <use style="fill:#ff0000;stroke:#ff0000;" x="309.469091" xlink:href="#mce454a5996" y="79.581978"/>
     <use style="fill:#ff0000;stroke:#ff0000;" x="314.705455" xlink:href="#mce454a5996" y="79.581978"/>
     <use style="fill:#ff0000;stroke:#ff0000;" x="319.941818" xlink:href="#mce454a5996" y="65.678432"/>
     <use style="fill:#ff0000;stroke:#ff0000;" x="325.178182" xlink:href="#mce454a5996" y="65.678432"/>
     <use style="fill:#ff0000;stroke:#ff0000;" x="330.414545" xlink:href="#mce454a5996" y="53.568"/>
     <use style="fill:#ff0000;stroke:#ff0000;" x="335.650909" xlink:href="#mce454a5996" y="53.568"/>
     <use style="fill:#ff0000;stroke:#ff0000;" x="340.887273" xlink:href="#mce454a5996" y="70.04083"/>
     <use style="fill:#ff0000;stroke:#ff0000;" x="346.123636" xlink:href="#mce454a5996" y="70.04083"/>
     <use style="fill:#ff0000;stroke:#ff0000;" x="351.36" xlink:href="#mce454a5996" y="57.873314"/>
     <use style="fill:#ff0000;stroke:#ff0000;" x="356.596364" xlink:href="#mce454a5996" y="57.873314"/>
     <use style="fill:#ff0000;stroke:#ff0000;" x="361.832727" xlink:href="#mce454a5996" y="72.626546"/>
     <use style="fill:#ff0000;stroke:#ff0000;" x="367.069091" xlink:href="#mce454a5996" y="72.626546"/>
     <use style="fill:#ff0000;stroke:#ff0000;" x="372.305455" xlink:href="#mce454a5996" y="88.744002"/>
     <use style="fill:#ff0000;stroke:#ff0000;" x="377.541818" xlink:href="#mce454a5996" y="88.744002"/>
     <use style="fill:#ff0000;stroke:#ff0000;" x="382.778182" xlink:href="#mce454a5996" y="76.523855"/>
     <use style="fill:#ff0000;stroke:#ff0000;" x="388.014545" xlink:href="#mce454a5996" y="76.523855"/>
     <use style="fill:#ff0000;stroke:#ff0000;" x="393.250909" xlink:href="#mce454a5996" y="63.27035"/>
     <use style="fill:#ff0000;stroke:#ff0000;" x="398.487273" xlink:href="#mce454a5996" y="63.27035"/>
    </g>
   </g>
   <g id="patch_3">
    <path d="M 57.6 307.584 
L 57.6 41.472 
" style="fill:none;stroke:#000000;stroke-linecap:square;stroke-linejoin:miter;stroke-width:0.8;"/>
   </g>
   <g id="patch_4">
    <path d="M 414.72 307.584 
L 414.72 41.472 
" style="fill:none;stroke:#000000;stroke-linecap:square;stroke-linejoin:miter;stroke-width:0.8;"/>
   </g>
   <g id="patch_5">
    <path d="M 57.6 307.584 
L 414.72 307.584 
" style="fill:none;stroke:#000000;stroke-linecap:square;stroke-linejoin:miter;stroke-width:0.8;"/>
   </g>
   <g id="patch_6">
    <path d="M 57.6 41.472 
L 414.72 41.472 
" style="fill:none;stroke:#000000;stroke-linecap:square;stroke-linejoin:miter;stroke-width:0.8;"/>
   </g>
  </g>
 </g>
 <defs>
  <clipPath id="pc3a279f55a">
   <rect height="266.112" width="357.12" x="57.6" y="41.472"/>
  </clipPath>
 </defs>
</svg>
