<?xml version="1.0" encoding="utf-8" standalone="no"?>
<!DOCTYPE svg PUBLIC "-//W3C//DTD SVG 1.1//EN"
  "http://www.w3.org/Graphics/SVG/1.1/DTD/svg11.dtd">
<!-- Created with matplotlib (https://matplotlib.org/) -->
<svg height="345.6pt" version="1.1" viewBox="0 0 460.8 345.6" width="460.8pt" xmlns="http://www.w3.org/2000/svg" xmlns:xlink="http://www.w3.org/1999/xlink">
 <defs>
  <style type="text/css">
*{stroke-linecap:butt;stroke-linejoin:round;}
  </style>
 </defs>
 <g id="figure_1">
  <g id="patch_1">
   <path d="M 0 345.6 
L 460.8 345.6 
L 460.8 0 
L 0 0 
z
" style="fill:#ffffff;"/>
  </g>
  <g id="axes_1">
   <g id="patch_2">
    <path d="M 57.6 307.584 
L 414.72 307.584 
L 414.72 41.472 
L 57.6 41.472 
z
" style="fill:#ffffff;"/>
   </g>
   <g id="line2d_1">
    <path clip-path="url(#pd8b8c6a9ae)" d="M 73.832727 295.488 
L 75.044125 252.868365 
L 76.255522 252.868365 
L 77.46692 210.984673 
L 79.889715 210.984673 
L 81.101113 255.38772 
L 82.31251 255.38772 
L 83.523908 212.698234 
L 84.735305 212.698234 
L 85.946703 171.665051 
L 87.1581 171.665051 
L 88.369498 132.538633 
L 92.003691 132.538633 
L 94.426486 54.389466 
L 96.849281 54.389466 
L 98.060678 102.079517 
L 99.272076 102.079517 
L 100.483474 96.117228 
L 101.694871 96.117228 
L 102.906269 111.892176 
L 105.329064 111.892176 
L 106.540461 99.442481 
L 107.751859 99.442481 
L 108.963256 85.473958 
L 110.174654 85.473958 
L 111.386052 71.786476 
L 115.020244 71.786476 
L 116.231642 58.281007 
L 118.654437 58.281007 
L 119.865834 57.002023 
L 121.077232 57.002023 
L 122.28863 59.148773 
L 123.500027 74.767684 
L 124.711425 74.767684 
L 125.922822 90.78732 
L 127.13422 90.78732 
L 128.345617 79.581978 
L 129.557015 79.581978 
L 130.768412 65.678432 
L 131.97981 65.678432 
L 133.191208 53.568 
L 134.402605 53.568 
L 135.614003 70.04083 
L 136.8254 70.04083 
L 138.036798 57.873314 
L 139.248195 57.873314 
L 140.459593 72.626546 
L 141.670991 72.626546 
L 142.882388 88.744002 
L 144.093786 88.744002 
L 145.305183 76.523855 
L 146.516581 76.523855 
L 147.727978 63.27035 
L 150.150773 63.27035 
L 151.362171 80.073277 
L 152.573569 80.073277 
L 153.784966 95.236434 
L 156.207761 95.236434 
L 157.419159 82.952859 
L 158.630556 82.952859 
L 159.841954 82.245469 
L 161.053351 82.245469 
L 162.264749 84.098482 
L 163.476147 84.098482 
L 164.687544 89.027272 
L 165.898942 105.751843 
L 167.110339 105.751843 
L 168.321737 122.2152 
L 169.533134 122.2152 
L 170.744532 136.87364 
L 175.590122 136.87364 
L 176.80152 152.445861 
L 178.012917 152.445861 
L 179.224315 168.9079 
L 180.435712 168.9079 
L 181.64711 154.879402 
L 182.858507 142.760659 
L 185.281303 142.760659 
L 186.4927 148.64646 
L 187.704098 134.786207 
L 188.915495 134.786207 
L 190.126893 120.454862 
L 191.33829 120.454862 
L 192.549688 119.61721 
L 193.761085 123.339295 
L 196.183881 123.339295 
L 197.395278 138.680586 
L 198.606676 138.680586 
L 199.818073 124.960564 
L 201.029471 124.960564 
L 202.240868 139.275572 
L 203.452266 139.275572 
L 204.663664 156.010914 
L 205.875061 156.010914 
L 207.086459 142.238821 
L 208.297856 142.238821 
L 209.509254 128.749251 
L 219.200434 128.749251 
L 220.411832 116.912066 
L 221.623229 132.408813 
L 224.046024 132.408813 
L 225.257422 119.956462 
L 226.46882 119.956462 
L 227.680217 118.175581 
L 228.891615 118.175581 
L 230.103012 133.715578 
L 231.31441 137.66836 
L 232.525807 137.66836 
L 233.737205 155.097395 
L 234.948602 155.097395 
L 236.16 140.970803 
L 237.371398 140.970803 
L 238.582795 156.412025 
L 241.00559 156.412025 
L 242.216988 143.218779 
L 243.428385 143.218779 
L 244.639783 131.885745 
L 245.85118 131.885745 
L 247.062578 146.939448 
L 248.273976 146.939448 
L 249.485373 148.914388 
L 250.696771 163.797664 
L 253.119566 163.797664 
L 254.330963 178.220912 
L 255.542361 178.220912 
L 256.753758 178.717765 
L 257.965156 178.717765 
L 259.176554 179.207475 
L 262.810746 179.207475 
L 264.022144 193.533241 
L 266.444939 193.533241 
L 267.656336 209.811594 
L 268.867734 209.811594 
L 270.079132 198.279618 
L 271.290529 198.279618 
L 272.501927 183.147675 
L 274.924722 183.147675 
L 276.136119 168.482557 
L 279.770312 168.403309 
L 280.98171 182.504143 
L 282.193107 182.504143 
L 283.404505 168.967647 
L 287.038697 168.967647 
L 288.250095 154.499144 
L 289.461493 169.29307 
L 291.884288 169.29307 
L 293.095685 157.534252 
L 294.307083 157.534252 
L 295.51848 145.428175 
L 296.729878 145.428175 
L 297.941275 132.747248 
L 398.487273 132.747248 
L 398.487273 132.747248 
" style="fill:none;stroke:#ff0000;stroke-linecap:square;stroke-width:12;"/>
    <defs>
     <path d="M 0 3 
C 0.795609 3 1.55874 2.683901 2.12132 2.12132 
C 2.683901 1.55874 3 0.795609 3 0 
C 3 -0.795609 2.683901 -1.55874 2.12132 -2.12132 
C 1.55874 -2.683901 0.795609 -3 0 -3 
C -0.795609 -3 -1.55874 -2.683901 -2.12132 -2.12132 
C -2.683901 -1.55874 -3 -0.795609 -3 0 
C -3 0.795609 -2.683901 1.55874 -2.12132 2.12132 
C -1.55874 2.683901 -0.795609 3 0 3 
z
" id="m03f42d4853" style="stroke:#ff0000;"/>
    </defs>
    <g clip-path="url(#pd8b8c6a9ae)">
     <use style="fill:#ff0000;stroke:#ff0000;" x="73.832727" xlink:href="#m03f42d4853" y="295.488"/>
     <use style="fill:#ff0000;stroke:#ff0000;" x="75.044125" xlink:href="#m03f42d4853" y="252.868365"/>
     <use style="fill:#ff0000;stroke:#ff0000;" x="76.255522" xlink:href="#m03f42d4853" y="252.868365"/>
     <use style="fill:#ff0000;stroke:#ff0000;" x="77.46692" xlink:href="#m03f42d4853" y="210.984673"/>
     <use style="fill:#ff0000;stroke:#ff0000;" x="78.678318" xlink:href="#m03f42d4853" y="210.984673"/>
     <use style="fill:#ff0000;stroke:#ff0000;" x="79.889715" xlink:href="#m03f42d4853" y="210.984673"/>
     <use style="fill:#ff0000;stroke:#ff0000;" x="81.101113" xlink:href="#m03f42d4853" y="255.38772"/>
     <use style="fill:#ff0000;stroke:#ff0000;" x="82.31251" xlink:href="#m03f42d4853" y="255.38772"/>
     <use style="fill:#ff0000;stroke:#ff0000;" x="83.523908" xlink:href="#m03f42d4853" y="212.698234"/>
     <use style="fill:#ff0000;stroke:#ff0000;" x="84.735305" xlink:href="#m03f42d4853" y="212.698234"/>
     <use style="fill:#ff0000;stroke:#ff0000;" x="85.946703" xlink:href="#m03f42d4853" y="171.665051"/>
     <use style="fill:#ff0000;stroke:#ff0000;" x="87.1581" xlink:href="#m03f42d4853" y="171.665051"/>
     <use style="fill:#ff0000;stroke:#ff0000;" x="88.369498" xlink:href="#m03f42d4853" y="132.538633"/>
     <use style="fill:#ff0000;stroke:#ff0000;" x="89.580896" xlink:href="#m03f42d4853" y="132.538633"/>
     <use style="fill:#ff0000;stroke:#ff0000;" x="90.792293" xlink:href="#m03f42d4853" y="132.538633"/>
     <use style="fill:#ff0000;stroke:#ff0000;" x="92.003691" xlink:href="#m03f42d4853" y="132.538633"/>
     <use style="fill:#ff0000;stroke:#ff0000;" x="93.215088" xlink:href="#m03f42d4853" y="92.207012"/>
     <use style="fill:#ff0000;stroke:#ff0000;" x="94.426486" xlink:href="#m03f42d4853" y="54.389466"/>
     <use style="fill:#ff0000;stroke:#ff0000;" x="95.637883" xlink:href="#m03f42d4853" y="54.389466"/>
     <use style="fill:#ff0000;stroke:#ff0000;" x="96.849281" xlink:href="#m03f42d4853" y="54.389466"/>
     <use style="fill:#ff0000;stroke:#ff0000;" x="98.060678" xlink:href="#m03f42d4853" y="102.079517"/>
     <use style="fill:#ff0000;stroke:#ff0000;" x="99.272076" xlink:href="#m03f42d4853" y="102.079517"/>
     <use style="fill:#ff0000;stroke:#ff0000;" x="100.483474" xlink:href="#m03f42d4853" y="96.117228"/>
     <use style="fill:#ff0000;stroke:#ff0000;" x="101.694871" xlink:href="#m03f42d4853" y="96.117228"/>
     <use style="fill:#ff0000;stroke:#ff0000;" x="102.906269" xlink:href="#m03f42d4853" y="111.892176"/>
     <use style="fill:#ff0000;stroke:#ff0000;" x="104.117666" xlink:href="#m03f42d4853" y="111.892176"/>
     <use style="fill:#ff0000;stroke:#ff0000;" x="105.329064" xlink:href="#m03f42d4853" y="111.892176"/>
     <use style="fill:#ff0000;stroke:#ff0000;" x="106.540461" xlink:href="#m03f42d4853" y="99.442481"/>
     <use style="fill:#ff0000;stroke:#ff0000;" x="107.751859" xlink:href="#m03f42d4853" y="99.442481"/>
     <use style="fill:#ff0000;stroke:#ff0000;" x="108.963256" xlink:href="#m03f42d4853" y="85.473958"/>
     <use style="fill:#ff0000;stroke:#ff0000;" x="110.174654" xlink:href="#m03f42d4853" y="85.473958"/>
     <use style="fill:#ff0000;stroke:#ff0000;" x="111.386052" xlink:href="#m03f42d4853" y="71.786476"/>
     <use style="fill:#ff0000;stroke:#ff0000;" x="112.597449" xlink:href="#m03f42d4853" y="71.786476"/>
     <use style="fill:#ff0000;stroke:#ff0000;" x="113.808847" xlink:href="#m03f42d4853" y="71.786476"/>
     <use style="fill:#ff0000;stroke:#ff0000;" x="115.020244" xlink:href="#m03f42d4853" y="71.786476"/>
     <use style="fill:#ff0000;stroke:#ff0000;" x="116.231642" xlink:href="#m03f42d4853" y="58.281007"/>
     <use style="fill:#ff0000;stroke:#ff0000;" x="117.443039" xlink:href="#m03f42d4853" y="58.281007"/>
     <use style="fill:#ff0000;stroke:#ff0000;" x="118.654437" xlink:href="#m03f42d4853" y="58.281007"/>
     <use style="fill:#ff0000;stroke:#ff0000;" x="119.865834" xlink:href="#m03f42d4853" y="57.002023"/>
     <use style="fill:#ff0000;stroke:#ff0000;" x="121.077232" xlink:href="#m03f42d4853" y="57.002023"/>
     <use style="fill:#ff0000;stroke:#ff0000;" x="122.28863" xlink:href="#m03f42d4853" y="59.148773"/>
     <use style="fill:#ff0000;stroke:#ff0000;" x="123.500027" xlink:href="#m03f42d4853" y="74.767684"/>
     <use style="fill:#ff0000;stroke:#ff0000;" x="124.711425" xlink:href="#m03f42d4853" y="74.767684"/>
     <use style="fill:#ff0000;stroke:#ff0000;" x="125.922822" xlink:href="#m03f42d4853" y="90.78732"/>
     <use style="fill:#ff0000;stroke:#ff0000;" x="127.13422" xlink:href="#m03f42d4853" y="90.78732"/>
     <use style="fill:#ff0000;stroke:#ff0000;" x="128.345617" xlink:href="#m03f42d4853" y="79.581978"/>
     <use style="fill:#ff0000;stroke:#ff0000;" x="129.557015" xlink:href="#m03f42d4853" y="79.581978"/>
     <use style="fill:#ff0000;stroke:#ff0000;" x="130.768412" xlink:href="#m03f42d4853" y="65.678432"/>
     <use style="fill:#ff0000;stroke:#ff0000;" x="131.97981" xlink:href="#m03f42d4853" y="65.678432"/>
     <use style="fill:#ff0000;stroke:#ff0000;" x="133.191208" xlink:href="#m03f42d4853" y="53.568"/>
     <use style="fill:#ff0000;stroke:#ff0000;" x="134.402605" xlink:href="#m03f42d4853" y="53.568"/>
     <use style="fill:#ff0000;stroke:#ff0000;" x="135.614003" xlink:href="#m03f42d4853" y="70.04083"/>
     <use style="fill:#ff0000;stroke:#ff0000;" x="136.8254" xlink:href="#m03f42d4853" y="70.04083"/>
     <use style="fill:#ff0000;stroke:#ff0000;" x="138.036798" xlink:href="#m03f42d4853" y="57.873314"/>
     <use style="fill:#ff0000;stroke:#ff0000;" x="139.248195" xlink:href="#m03f42d4853" y="57.873314"/>
     <use style="fill:#ff0000;stroke:#ff0000;" x="140.459593" xlink:href="#m03f42d4853" y="72.626546"/>
     <use style="fill:#ff0000;stroke:#ff0000;" x="141.670991" xlink:href="#m03f42d4853" y="72.626546"/>
     <use style="fill:#ff0000;stroke:#ff0000;" x="142.882388" xlink:href="#m03f42d4853" y="88.744002"/>
     <use style="fill:#ff0000;stroke:#ff0000;" x="144.093786" xlink:href="#m03f42d4853" y="88.744002"/>
     <use style="fill:#ff0000;stroke:#ff0000;" x="145.305183" xlink:href="#m03f42d4853" y="76.523855"/>
     <use style="fill:#ff0000;stroke:#ff0000;" x="146.516581" xlink:href="#m03f42d4853" y="76.523855"/>
     <use style="fill:#ff0000;stroke:#ff0000;" x="147.727978" xlink:href="#m03f42d4853" y="63.27035"/>
     <use style="fill:#ff0000;stroke:#ff0000;" x="148.939376" xlink:href="#m03f42d4853" y="63.27035"/>
     <use style="fill:#ff0000;stroke:#ff0000;" x="150.150773" xlink:href="#m03f42d4853" y="63.27035"/>
     <use style="fill:#ff0000;stroke:#ff0000;" x="151.362171" xlink:href="#m03f42d4853" y="80.073277"/>
     <use style="fill:#ff0000;stroke:#ff0000;" x="152.573569" xlink:href="#m03f42d4853" y="80.073277"/>
     <use style="fill:#ff0000;stroke:#ff0000;" x="153.784966" xlink:href="#m03f42d4853" y="95.236434"/>
     <use style="fill:#ff0000;stroke:#ff0000;" x="154.996364" xlink:href="#m03f42d4853" y="95.236434"/>
     <use style="fill:#ff0000;stroke:#ff0000;" x="156.207761" xlink:href="#m03f42d4853" y="95.236434"/>
     <use style="fill:#ff0000;stroke:#ff0000;" x="157.419159" xlink:href="#m03f42d4853" y="82.952859"/>
     <use style="fill:#ff0000;stroke:#ff0000;" x="158.630556" xlink:href="#m03f42d4853" y="82.952859"/>
     <use style="fill:#ff0000;stroke:#ff0000;" x="159.841954" xlink:href="#m03f42d4853" y="82.245469"/>
     <use style="fill:#ff0000;stroke:#ff0000;" x="161.053351" xlink:href="#m03f42d4853" y="82.245469"/>
     <use style="fill:#ff0000;stroke:#ff0000;" x="162.264749" xlink:href="#m03f42d4853" y="84.098482"/>
     <use style="fill:#ff0000;stroke:#ff0000;" x="163.476147" xlink:href="#m03f42d4853" y="84.098482"/>
     <use style="fill:#ff0000;stroke:#ff0000;" x="164.687544" xlink:href="#m03f42d4853" y="89.027272"/>
     <use style="fill:#ff0000;stroke:#ff0000;" x="165.898942" xlink:href="#m03f42d4853" y="105.751843"/>
     <use style="fill:#ff0000;stroke:#ff0000;" x="167.110339" xlink:href="#m03f42d4853" y="105.751843"/>
     <use style="fill:#ff0000;stroke:#ff0000;" x="168.321737" xlink:href="#m03f42d4853" y="122.2152"/>
     <use style="fill:#ff0000;stroke:#ff0000;" x="169.533134" xlink:href="#m03f42d4853" y="122.2152"/>
     <use style="fill:#ff0000;stroke:#ff0000;" x="170.744532" xlink:href="#m03f42d4853" y="136.87364"/>
     <use style="fill:#ff0000;stroke:#ff0000;" x="171.955929" xlink:href="#m03f42d4853" y="136.87364"/>
     <use style="fill:#ff0000;stroke:#ff0000;" x="173.167327" xlink:href="#m03f42d4853" y="136.87364"/>
     <use style="fill:#ff0000;stroke:#ff0000;" x="174.378725" xlink:href="#m03f42d4853" y="136.87364"/>
     <use style="fill:#ff0000;stroke:#ff0000;" x="175.590122" xlink:href="#m03f42d4853" y="136.87364"/>
     <use style="fill:#ff0000;stroke:#ff0000;" x="176.80152" xlink:href="#m03f42d4853" y="152.445861"/>
     <use style="fill:#ff0000;stroke:#ff0000;" x="178.012917" xlink:href="#m03f42d4853" y="152.445861"/>
     <use style="fill:#ff0000;stroke:#ff0000;" x="179.224315" xlink:href="#m03f42d4853" y="168.9079"/>
     <use style="fill:#ff0000;stroke:#ff0000;" x="180.435712" xlink:href="#m03f42d4853" y="168.9079"/>
     <use style="fill:#ff0000;stroke:#ff0000;" x="181.64711" xlink:href="#m03f42d4853" y="154.879402"/>
     <use style="fill:#ff0000;stroke:#ff0000;" x="182.858507" xlink:href="#m03f42d4853" y="142.760659"/>
     <use style="fill:#ff0000;stroke:#ff0000;" x="184.069905" xlink:href="#m03f42d4853" y="142.760659"/>
     <use style="fill:#ff0000;stroke:#ff0000;" x="185.281303" xlink:href="#m03f42d4853" y="142.760659"/>
     <use style="fill:#ff0000;stroke:#ff0000;" x="186.4927" xlink:href="#m03f42d4853" y="148.64646"/>
     <use style="fill:#ff0000;stroke:#ff0000;" x="187.704098" xlink:href="#m03f42d4853" y="134.786207"/>
     <use style="fill:#ff0000;stroke:#ff0000;" x="188.915495" xlink:href="#m03f42d4853" y="134.786207"/>
     <use style="fill:#ff0000;stroke:#ff0000;" x="190.126893" xlink:href="#m03f42d4853" y="120.454862"/>
     <use style="fill:#ff0000;stroke:#ff0000;" x="191.33829" xlink:href="#m03f42d4853" y="120.454862"/>
     <use style="fill:#ff0000;stroke:#ff0000;" x="192.549688" xlink:href="#m03f42d4853" y="119.61721"/>
     <use style="fill:#ff0000;stroke:#ff0000;" x="193.761085" xlink:href="#m03f42d4853" y="123.339295"/>
     <use style="fill:#ff0000;stroke:#ff0000;" x="194.972483" xlink:href="#m03f42d4853" y="123.339295"/>
     <use style="fill:#ff0000;stroke:#ff0000;" x="196.183881" xlink:href="#m03f42d4853" y="123.339295"/>
     <use style="fill:#ff0000;stroke:#ff0000;" x="197.395278" xlink:href="#m03f42d4853" y="138.680586"/>
     <use style="fill:#ff0000;stroke:#ff0000;" x="198.606676" xlink:href="#m03f42d4853" y="138.680586"/>
     <use style="fill:#ff0000;stroke:#ff0000;" x="199.818073" xlink:href="#m03f42d4853" y="124.960564"/>
     <use style="fill:#ff0000;stroke:#ff0000;" x="201.029471" xlink:href="#m03f42d4853" y="124.960564"/>
     <use style="fill:#ff0000;stroke:#ff0000;" x="202.240868" xlink:href="#m03f42d4853" y="139.275572"/>
     <use style="fill:#ff0000;stroke:#ff0000;" x="203.452266" xlink:href="#m03f42d4853" y="139.275572"/>
     <use style="fill:#ff0000;stroke:#ff0000;" x="204.663664" xlink:href="#m03f42d4853" y="156.010914"/>
     <use style="fill:#ff0000;stroke:#ff0000;" x="205.875061" xlink:href="#m03f42d4853" y="156.010914"/>
     <use style="fill:#ff0000;stroke:#ff0000;" x="207.086459" xlink:href="#m03f42d4853" y="142.238821"/>
     <use style="fill:#ff0000;stroke:#ff0000;" x="208.297856" xlink:href="#m03f42d4853" y="142.238821"/>
     <use style="fill:#ff0000;stroke:#ff0000;" x="209.509254" xlink:href="#m03f42d4853" y="128.749251"/>
     <use style="fill:#ff0000;stroke:#ff0000;" x="210.720651" xlink:href="#m03f42d4853" y="128.749251"/>
     <use style="fill:#ff0000;stroke:#ff0000;" x="211.932049" xlink:href="#m03f42d4853" y="128.749251"/>
     <use style="fill:#ff0000;stroke:#ff0000;" x="213.143446" xlink:href="#m03f42d4853" y="128.749251"/>
     <use style="fill:#ff0000;stroke:#ff0000;" x="214.354844" xlink:href="#m03f42d4853" y="128.749251"/>
     <use style="fill:#ff0000;stroke:#ff0000;" x="215.566242" xlink:href="#m03f42d4853" y="128.749251"/>
     <use style="fill:#ff0000;stroke:#ff0000;" x="216.777639" xlink:href="#m03f42d4853" y="128.749251"/>
     <use style="fill:#ff0000;stroke:#ff0000;" x="217.989037" xlink:href="#m03f42d4853" y="128.749251"/>
     <use style="fill:#ff0000;stroke:#ff0000;" x="219.200434" xlink:href="#m03f42d4853" y="128.749251"/>
     <use style="fill:#ff0000;stroke:#ff0000;" x="220.411832" xlink:href="#m03f42d4853" y="116.912066"/>
     <use style="fill:#ff0000;stroke:#ff0000;" x="221.623229" xlink:href="#m03f42d4853" y="132.408813"/>
     <use style="fill:#ff0000;stroke:#ff0000;" x="222.834627" xlink:href="#m03f42d4853" y="132.408813"/>
     <use style="fill:#ff0000;stroke:#ff0000;" x="224.046024" xlink:href="#m03f42d4853" y="132.408813"/>
     <use style="fill:#ff0000;stroke:#ff0000;" x="225.257422" xlink:href="#m03f42d4853" y="119.956462"/>
     <use style="fill:#ff0000;stroke:#ff0000;" x="226.46882" xlink:href="#m03f42d4853" y="119.956462"/>
     <use style="fill:#ff0000;stroke:#ff0000;" x="227.680217" xlink:href="#m03f42d4853" y="118.175581"/>
     <use style="fill:#ff0000;stroke:#ff0000;" x="228.891615" xlink:href="#m03f42d4853" y="118.175581"/>
     <use style="fill:#ff0000;stroke:#ff0000;" x="230.103012" xlink:href="#m03f42d4853" y="133.715578"/>
     <use style="fill:#ff0000;stroke:#ff0000;" x="231.31441" xlink:href="#m03f42d4853" y="137.66836"/>
     <use style="fill:#ff0000;stroke:#ff0000;" x="232.525807" xlink:href="#m03f42d4853" y="137.66836"/>
     <use style="fill:#ff0000;stroke:#ff0000;" x="233.737205" xlink:href="#m03f42d4853" y="155.097395"/>
     <use style="fill:#ff0000;stroke:#ff0000;" x="234.948602" xlink:href="#m03f42d4853" y="155.097395"/>
     <use style="fill:#ff0000;stroke:#ff0000;" x="236.16" xlink:href="#m03f42d4853" y="140.970803"/>
     <use style="fill:#ff0000;stroke:#ff0000;" x="237.371398" xlink:href="#m03f42d4853" y="140.970803"/>
     <use style="fill:#ff0000;stroke:#ff0000;" x="238.582795" xlink:href="#m03f42d4853" y="156.412025"/>
     <use style="fill:#ff0000;stroke:#ff0000;" x="239.794193" xlink:href="#m03f42d4853" y="156.412025"/>
     <use style="fill:#ff0000;stroke:#ff0000;" x="241.00559" xlink:href="#m03f42d4853" y="156.412025"/>
     <use style="fill:#ff0000;stroke:#ff0000;" x="242.216988" xlink:href="#m03f42d4853" y="143.218779"/>
     <use style="fill:#ff0000;stroke:#ff0000;" x="243.428385" xlink:href="#m03f42d4853" y="143.218779"/>
     <use style="fill:#ff0000;stroke:#ff0000;" x="244.639783" xlink:href="#m03f42d4853" y="131.885745"/>
     <use style="fill:#ff0000;stroke:#ff0000;" x="245.85118" xlink:href="#m03f42d4853" y="131.885745"/>
     <use style="fill:#ff0000;stroke:#ff0000;" x="247.062578" xlink:href="#m03f42d4853" y="146.939448"/>
     <use style="fill:#ff0000;stroke:#ff0000;" x="248.273976" xlink:href="#m03f42d4853" y="146.939448"/>
     <use style="fill:#ff0000;stroke:#ff0000;" x="249.485373" xlink:href="#m03f42d4853" y="148.914388"/>
     <use style="fill:#ff0000;stroke:#ff0000;" x="250.696771" xlink:href="#m03f42d4853" y="163.797664"/>
     <use style="fill:#ff0000;stroke:#ff0000;" x="251.908168" xlink:href="#m03f42d4853" y="163.797664"/>
     <use style="fill:#ff0000;stroke:#ff0000;" x="253.119566" xlink:href="#m03f42d4853" y="163.797664"/>
     <use style="fill:#ff0000;stroke:#ff0000;" x="254.330963" xlink:href="#m03f42d4853" y="178.220912"/>
     <use style="fill:#ff0000;stroke:#ff0000;" x="255.542361" xlink:href="#m03f42d4853" y="178.220912"/>
     <use style="fill:#ff0000;stroke:#ff0000;" x="256.753758" xlink:href="#m03f42d4853" y="178.717765"/>
     <use style="fill:#ff0000;stroke:#ff0000;" x="257.965156" xlink:href="#m03f42d4853" y="178.717765"/>
     <use style="fill:#ff0000;stroke:#ff0000;" x="259.176554" xlink:href="#m03f42d4853" y="179.207475"/>
     <use style="fill:#ff0000;stroke:#ff0000;" x="260.387951" xlink:href="#m03f42d4853" y="179.207475"/>
     <use style="fill:#ff0000;stroke:#ff0000;" x="261.599349" xlink:href="#m03f42d4853" y="179.207475"/>
     <use style="fill:#ff0000;stroke:#ff0000;" x="262.810746" xlink:href="#m03f42d4853" y="179.207475"/>
     <use style="fill:#ff0000;stroke:#ff0000;" x="264.022144" xlink:href="#m03f42d4853" y="193.533241"/>
     <use style="fill:#ff0000;stroke:#ff0000;" x="265.233541" xlink:href="#m03f42d4853" y="193.533241"/>
     <use style="fill:#ff0000;stroke:#ff0000;" x="266.444939" xlink:href="#m03f42d4853" y="193.533241"/>
     <use style="fill:#ff0000;stroke:#ff0000;" x="267.656336" xlink:href="#m03f42d4853" y="209.811594"/>
     <use style="fill:#ff0000;stroke:#ff0000;" x="268.867734" xlink:href="#m03f42d4853" y="209.811594"/>
     <use style="fill:#ff0000;stroke:#ff0000;" x="270.079132" xlink:href="#m03f42d4853" y="198.279618"/>
     <use style="fill:#ff0000;stroke:#ff0000;" x="271.290529" xlink:href="#m03f42d4853" y="198.279618"/>
     <use style="fill:#ff0000;stroke:#ff0000;" x="272.501927" xlink:href="#m03f42d4853" y="183.147675"/>
     <use style="fill:#ff0000;stroke:#ff0000;" x="273.713324" xlink:href="#m03f42d4853" y="183.147675"/>
     <use style="fill:#ff0000;stroke:#ff0000;" x="274.924722" xlink:href="#m03f42d4853" y="183.147675"/>
     <use style="fill:#ff0000;stroke:#ff0000;" x="276.136119" xlink:href="#m03f42d4853" y="168.482557"/>
     <use style="fill:#ff0000;stroke:#ff0000;" x="277.347517" xlink:href="#m03f42d4853" y="168.482557"/>
     <use style="fill:#ff0000;stroke:#ff0000;" x="278.558915" xlink:href="#m03f42d4853" y="168.403309"/>
     <use style="fill:#ff0000;stroke:#ff0000;" x="279.770312" xlink:href="#m03f42d4853" y="168.403309"/>
     <use style="fill:#ff0000;stroke:#ff0000;" x="280.98171" xlink:href="#m03f42d4853" y="182.504143"/>
     <use style="fill:#ff0000;stroke:#ff0000;" x="282.193107" xlink:href="#m03f42d4853" y="182.504143"/>
     <use style="fill:#ff0000;stroke:#ff0000;" x="283.404505" xlink:href="#m03f42d4853" y="168.967647"/>
     <use style="fill:#ff0000;stroke:#ff0000;" x="284.615902" xlink:href="#m03f42d4853" y="168.967647"/>
     <use style="fill:#ff0000;stroke:#ff0000;" x="285.8273" xlink:href="#m03f42d4853" y="168.967647"/>
     <use style="fill:#ff0000;stroke:#ff0000;" x="287.038697" xlink:href="#m03f42d4853" y="168.967647"/>
     <use style="fill:#ff0000;stroke:#ff0000;" x="288.250095" xlink:href="#m03f42d4853" y="154.499144"/>
     <use style="fill:#ff0000;stroke:#ff0000;" x="289.461493" xlink:href="#m03f42d4853" y="169.29307"/>
     <use style="fill:#ff0000;stroke:#ff0000;" x="290.67289" xlink:href="#m03f42d4853" y="169.29307"/>
     <use style="fill:#ff0000;stroke:#ff0000;" x="291.884288" xlink:href="#m03f42d4853" y="169.29307"/>
     <use style="fill:#ff0000;stroke:#ff0000;" x="293.095685" xlink:href="#m03f42d4853" y="157.534252"/>
     <use style="fill:#ff0000;stroke:#ff0000;" x="294.307083" xlink:href="#m03f42d4853" y="157.534252"/>
     <use style="fill:#ff0000;stroke:#ff0000;" x="295.51848" xlink:href="#m03f42d4853" y="145.428175"/>
     <use style="fill:#ff0000;stroke:#ff0000;" x="296.729878" xlink:href="#m03f42d4853" y="145.428175"/>
     <use style="fill:#ff0000;stroke:#ff0000;" x="297.941275" xlink:href="#m03f42d4853" y="132.747248"/>
     <use style="fill:#ff0000;stroke:#ff0000;" x="299.152673" xlink:href="#m03f42d4853" y="132.747248"/>
     <use style="fill:#ff0000;stroke:#ff0000;" x="300.364071" xlink:href="#m03f42d4853" y="132.747248"/>
     <use style="fill:#ff0000;stroke:#ff0000;" x="301.575468" xlink:href="#m03f42d4853" y="132.747248"/>
     <use style="fill:#ff0000;stroke:#ff0000;" x="302.786866" xlink:href="#m03f42d4853" y="132.747248"/>
     <use style="fill:#ff0000;stroke:#ff0000;" x="303.998263" xlink:href="#m03f42d4853" y="132.747248"/>
     <use style="fill:#ff0000;stroke:#ff0000;" x="305.209661" xlink:href="#m03f42d4853" y="132.747248"/>
     <use style="fill:#ff0000;stroke:#ff0000;" x="306.421058" xlink:href="#m03f42d4853" y="132.747248"/>
     <use style="fill:#ff0000;stroke:#ff0000;" x="307.632456" xlink:href="#m03f42d4853" y="132.747248"/>
     <use style="fill:#ff0000;stroke:#ff0000;" x="308.843853" xlink:href="#m03f42d4853" y="132.747248"/>
     <use style="fill:#ff0000;stroke:#ff0000;" x="310.055251" xlink:href="#m03f42d4853" y="132.747248"/>
     <use style="fill:#ff0000;stroke:#ff0000;" x="311.266649" xlink:href="#m03f42d4853" y="132.747248"/>
     <use style="fill:#ff0000;stroke:#ff0000;" x="312.478046" xlink:href="#m03f42d4853" y="132.747248"/>
     <use style="fill:#ff0000;stroke:#ff0000;" x="313.689444" xlink:href="#m03f42d4853" y="132.747248"/>
     <use style="fill:#ff0000;stroke:#ff0000;" x="314.900841" xlink:href="#m03f42d4853" y="132.747248"/>
     <use style="fill:#ff0000;stroke:#ff0000;" x="316.112239" xlink:href="#m03f42d4853" y="132.747248"/>
     <use style="fill:#ff0000;stroke:#ff0000;" x="317.323636" xlink:href="#m03f42d4853" y="132.747248"/>
     <use style="fill:#ff0000;stroke:#ff0000;" x="318.535034" xlink:href="#m03f42d4853" y="132.747248"/>
     <use style="fill:#ff0000;stroke:#ff0000;" x="319.746431" xlink:href="#m03f42d4853" y="132.747248"/>
     <use style="fill:#ff0000;stroke:#ff0000;" x="320.957829" xlink:href="#m03f42d4853" y="132.747248"/>
     <use style="fill:#ff0000;stroke:#ff0000;" x="322.169227" xlink:href="#m03f42d4853" y="132.747248"/>
     <use style="fill:#ff0000;stroke:#ff0000;" x="323.380624" xlink:href="#m03f42d4853" y="132.747248"/>
     <use style="fill:#ff0000;stroke:#ff0000;" x="324.592022" xlink:href="#m03f42d4853" y="132.747248"/>
     <use style="fill:#ff0000;stroke:#ff0000;" x="325.803419" xlink:href="#m03f42d4853" y="132.747248"/>
     <use style="fill:#ff0000;stroke:#ff0000;" x="327.014817" xlink:href="#m03f42d4853" y="132.747248"/>
     <use style="fill:#ff0000;stroke:#ff0000;" x="328.226214" xlink:href="#m03f42d4853" y="132.747248"/>
     <use style="fill:#ff0000;stroke:#ff0000;" x="329.437612" xlink:href="#m03f42d4853" y="132.747248"/>
     <use style="fill:#ff0000;stroke:#ff0000;" x="330.649009" xlink:href="#m03f42d4853" y="132.747248"/>
     <use style="fill:#ff0000;stroke:#ff0000;" x="331.860407" xlink:href="#m03f42d4853" y="132.747248"/>
     <use style="fill:#ff0000;stroke:#ff0000;" x="333.071805" xlink:href="#m03f42d4853" y="132.747248"/>
     <use style="fill:#ff0000;stroke:#ff0000;" x="334.283202" xlink:href="#m03f42d4853" y="132.747248"/>
     <use style="fill:#ff0000;stroke:#ff0000;" x="335.4946" xlink:href="#m03f42d4853" y="132.747248"/>
     <use style="fill:#ff0000;stroke:#ff0000;" x="336.705997" xlink:href="#m03f42d4853" y="132.747248"/>
     <use style="fill:#ff0000;stroke:#ff0000;" x="337.917395" xlink:href="#m03f42d4853" y="132.747248"/>
     <use style="fill:#ff0000;stroke:#ff0000;" x="339.128792" xlink:href="#m03f42d4853" y="132.747248"/>
     <use style="fill:#ff0000;stroke:#ff0000;" x="340.34019" xlink:href="#m03f42d4853" y="132.747248"/>
     <use style="fill:#ff0000;stroke:#ff0000;" x="341.551588" xlink:href="#m03f42d4853" y="132.747248"/>
     <use style="fill:#ff0000;stroke:#ff0000;" x="342.762985" xlink:href="#m03f42d4853" y="132.747248"/>
     <use style="fill:#ff0000;stroke:#ff0000;" x="343.974383" xlink:href="#m03f42d4853" y="132.747248"/>
     <use style="fill:#ff0000;stroke:#ff0000;" x="345.18578" xlink:href="#m03f42d4853" y="132.747248"/>
     <use style="fill:#ff0000;stroke:#ff0000;" x="346.397178" xlink:href="#m03f42d4853" y="132.747248"/>
     <use style="fill:#ff0000;stroke:#ff0000;" x="347.608575" xlink:href="#m03f42d4853" y="132.747248"/>
     <use style="fill:#ff0000;stroke:#ff0000;" x="348.819973" xlink:href="#m03f42d4853" y="132.747248"/>
     <use style="fill:#ff0000;stroke:#ff0000;" x="350.03137" xlink:href="#m03f42d4853" y="132.747248"/>
     <use style="fill:#ff0000;stroke:#ff0000;" x="351.242768" xlink:href="#m03f42d4853" y="132.747248"/>
     <use style="fill:#ff0000;stroke:#ff0000;" x="352.454166" xlink:href="#m03f42d4853" y="132.747248"/>
     <use style="fill:#ff0000;stroke:#ff0000;" x="353.665563" xlink:href="#m03f42d4853" y="132.747248"/>
     <use style="fill:#ff0000;stroke:#ff0000;" x="354.876961" xlink:href="#m03f42d4853" y="132.747248"/>
     <use style="fill:#ff0000;stroke:#ff0000;" x="356.088358" xlink:href="#m03f42d4853" y="132.747248"/>
     <use style="fill:#ff0000;stroke:#ff0000;" x="357.299756" xlink:href="#m03f42d4853" y="132.747248"/>
     <use style="fill:#ff0000;stroke:#ff0000;" x="358.511153" xlink:href="#m03f42d4853" y="132.747248"/>
     <use style="fill:#ff0000;stroke:#ff0000;" x="359.722551" xlink:href="#m03f42d4853" y="132.747248"/>
     <use style="fill:#ff0000;stroke:#ff0000;" x="360.933948" xlink:href="#m03f42d4853" y="132.747248"/>
     <use style="fill:#ff0000;stroke:#ff0000;" x="362.145346" xlink:href="#m03f42d4853" y="132.747248"/>
     <use style="fill:#ff0000;stroke:#ff0000;" x="363.356744" xlink:href="#m03f42d4853" y="132.747248"/>
     <use style="fill:#ff0000;stroke:#ff0000;" x="364.568141" xlink:href="#m03f42d4853" y="132.747248"/>
     <use style="fill:#ff0000;stroke:#ff0000;" x="365.779539" xlink:href="#m03f42d4853" y="132.747248"/>
     <use style="fill:#ff0000;stroke:#ff0000;" x="366.990936" xlink:href="#m03f42d4853" y="132.747248"/>
     <use style="fill:#ff0000;stroke:#ff0000;" x="368.202334" xlink:href="#m03f42d4853" y="132.747248"/>
     <use style="fill:#ff0000;stroke:#ff0000;" x="369.413731" xlink:href="#m03f42d4853" y="132.747248"/>
     <use style="fill:#ff0000;stroke:#ff0000;" x="370.625129" xlink:href="#m03f42d4853" y="132.747248"/>
     <use style="fill:#ff0000;stroke:#ff0000;" x="371.836526" xlink:href="#m03f42d4853" y="132.747248"/>
     <use style="fill:#ff0000;stroke:#ff0000;" x="373.047924" xlink:href="#m03f42d4853" y="132.747248"/>
     <use style="fill:#ff0000;stroke:#ff0000;" x="374.259322" xlink:href="#m03f42d4853" y="132.747248"/>
     <use style="fill:#ff0000;stroke:#ff0000;" x="375.470719" xlink:href="#m03f42d4853" y="132.747248"/>
     <use style="fill:#ff0000;stroke:#ff0000;" x="376.682117" xlink:href="#m03f42d4853" y="132.747248"/>
     <use style="fill:#ff0000;stroke:#ff0000;" x="377.893514" xlink:href="#m03f42d4853" y="132.747248"/>
     <use style="fill:#ff0000;stroke:#ff0000;" x="379.104912" xlink:href="#m03f42d4853" y="132.747248"/>
     <use style="fill:#ff0000;stroke:#ff0000;" x="380.316309" xlink:href="#m03f42d4853" y="132.747248"/>
     <use style="fill:#ff0000;stroke:#ff0000;" x="381.527707" xlink:href="#m03f42d4853" y="132.747248"/>
     <use style="fill:#ff0000;stroke:#ff0000;" x="382.739104" xlink:href="#m03f42d4853" y="132.747248"/>
     <use style="fill:#ff0000;stroke:#ff0000;" x="383.950502" xlink:href="#m03f42d4853" y="132.747248"/>
     <use style="fill:#ff0000;stroke:#ff0000;" x="385.1619" xlink:href="#m03f42d4853" y="132.747248"/>
     <use style="fill:#ff0000;stroke:#ff0000;" x="386.373297" xlink:href="#m03f42d4853" y="132.747248"/>
     <use style="fill:#ff0000;stroke:#ff0000;" x="387.584695" xlink:href="#m03f42d4853" y="132.747248"/>
     <use style="fill:#ff0000;stroke:#ff0000;" x="388.796092" xlink:href="#m03f42d4853" y="132.747248"/>
     <use style="fill:#ff0000;stroke:#ff0000;" x="390.00749" xlink:href="#m03f42d4853" y="132.747248"/>
     <use style="fill:#ff0000;stroke:#ff0000;" x="391.218887" xlink:href="#m03f42d4853" y="132.747248"/>
     <use style="fill:#ff0000;stroke:#ff0000;" x="392.430285" xlink:href="#m03f42d4853" y="132.747248"/>
     <use style="fill:#ff0000;stroke:#ff0000;" x="393.641682" xlink:href="#m03f42d4853" y="132.747248"/>
     <use style="fill:#ff0000;stroke:#ff0000;" x="394.85308" xlink:href="#m03f42d4853" y="132.747248"/>
     <use style="fill:#ff0000;stroke:#ff0000;" x="396.064478" xlink:href="#m03f42d4853" y="132.747248"/>
     <use style="fill:#ff0000;stroke:#ff0000;" x="397.275875" xlink:href="#m03f42d4853" y="132.747248"/>
     <use style="fill:#ff0000;stroke:#ff0000;" x="398.487273" xlink:href="#m03f42d4853" y="132.747248"/>
    </g>
   </g>
   <g id="patch_3">
    <path d="M 57.6 307.584 
L 57.6 41.472 
" style="fill:none;stroke:#000000;stroke-linecap:square;stroke-linejoin:miter;stroke-width:0.8;"/>
   </g>
   <g id="patch_4">
    <path d="M 414.72 307.584 
L 414.72 41.472 
" style="fill:none;stroke:#000000;stroke-linecap:square;stroke-linejoin:miter;stroke-width:0.8;"/>
   </g>
   <g id="patch_5">
    <path d="M 57.6 307.584 
L 414.72 307.584 
" style="fill:none;stroke:#000000;stroke-linecap:square;stroke-linejoin:miter;stroke-width:0.8;"/>
   </g>
   <g id="patch_6">
    <path d="M 57.6 41.472 
L 414.72 41.472 
" style="fill:none;stroke:#000000;stroke-linecap:square;stroke-linejoin:miter;stroke-width:0.8;"/>
   </g>
  </g>
 </g>
 <defs>
  <clipPath id="pd8b8c6a9ae">
   <rect height="266.112" width="357.12" x="57.6" y="41.472"/>
  </clipPath>
 </defs>
</svg>
