<?xml version="1.0" encoding="utf-8" standalone="no"?>
<!DOCTYPE svg PUBLIC "-//W3C//DTD SVG 1.1//EN"
  "http://www.w3.org/Graphics/SVG/1.1/DTD/svg11.dtd">
<!-- Created with matplotlib (https://matplotlib.org/) -->
<svg height="345.6pt" version="1.1" viewBox="0 0 460.8 345.6" width="460.8pt" xmlns="http://www.w3.org/2000/svg" xmlns:xlink="http://www.w3.org/1999/xlink">
 <defs>
  <style type="text/css">
*{stroke-linecap:butt;stroke-linejoin:round;}
  </style>
 </defs>
 <g id="figure_1">
  <g id="patch_1">
   <path d="M 0 345.6 
L 460.8 345.6 
L 460.8 0 
L 0 0 
z
" style="fill:#ffffff;"/>
  </g>
  <g id="axes_1">
   <g id="patch_2">
    <path d="M 57.6 307.584 
L 414.72 307.584 
L 414.72 41.472 
L 57.6 41.472 
z
" style="fill:#ffffff;"/>
   </g>
   <g id="line2d_1">
    <path clip-path="url(#pdf379eb211)" d="M 73.832727 295.488 
L 74.644364 252.868365 
L 75.456 252.868365 
L 76.267636 210.984673 
L 77.890909 210.984673 
L 78.702545 255.38772 
L 79.514182 255.38772 
L 80.325818 212.698234 
L 81.137455 212.698234 
L 81.949091 171.665051 
L 82.760727 171.665051 
L 83.572364 132.538633 
L 86.007273 132.538633 
L 87.630545 54.389466 
L 89.253818 54.389466 
L 90.065455 102.079517 
L 90.877091 102.079517 
L 91.688727 96.117228 
L 92.500364 96.117228 
L 93.312 111.892176 
L 94.935273 111.892176 
L 95.746909 99.442481 
L 96.558545 99.442481 
L 97.370182 85.473958 
L 98.181818 85.473958 
L 98.993455 71.786476 
L 101.428364 71.786476 
L 102.24 58.281007 
L 103.863273 58.281007 
L 104.674909 57.002023 
L 105.486545 57.002023 
L 106.298182 59.148773 
L 107.109818 74.767684 
L 107.921455 74.767684 
L 108.733091 90.78732 
L 109.544727 90.78732 
L 110.356364 79.581978 
L 111.168 79.581978 
L 111.979636 65.678432 
L 112.791273 65.678432 
L 113.602909 53.568 
L 114.414545 53.568 
L 115.226182 70.04083 
L 116.037818 70.04083 
L 116.849455 57.873314 
L 117.661091 57.873314 
L 118.472727 72.626546 
L 119.284364 72.626546 
L 120.096 88.744002 
L 120.907636 88.744002 
L 121.719273 76.523855 
L 122.530909 76.523855 
L 123.342545 63.27035 
L 124.965818 63.27035 
L 125.777455 80.073277 
L 126.589091 80.073277 
L 127.400727 95.236434 
L 129.024 95.236434 
L 129.835636 82.952859 
L 130.647273 82.952859 
L 131.458909 82.245469 
L 132.270545 82.245469 
L 133.082182 84.098482 
L 133.893818 84.098482 
L 134.705455 89.027272 
L 135.517091 105.751843 
L 136.328727 105.751843 
L 137.140364 122.2152 
L 137.952 122.2152 
L 138.763636 136.87364 
L 142.010182 136.87364 
L 142.821818 152.445861 
L 143.633455 152.445861 
L 144.445091 168.9079 
L 145.256727 168.9079 
L 146.88 142.760659 
L 148.503273 142.760659 
L 149.314909 148.64646 
L 150.126545 134.786207 
L 150.938182 134.786207 
L 151.749818 120.454862 
L 152.561455 120.454862 
L 153.373091 119.61721 
L 154.184727 123.339295 
L 155.808 123.339295 
L 156.619636 138.680586 
L 157.431273 138.680586 
L 158.242909 124.960564 
L 159.054545 124.960564 
L 159.866182 139.275572 
L 160.677818 139.275572 
L 161.489455 156.010914 
L 162.301091 156.010914 
L 163.112727 142.238821 
L 163.924364 142.238821 
L 164.736 128.749251 
L 171.229091 128.749251 
L 172.040727 116.912066 
L 172.852364 132.408813 
L 174.475636 132.408813 
L 175.287273 119.956462 
L 176.098909 119.956462 
L 176.910545 118.175581 
L 177.722182 118.175581 
L 178.533818 133.715578 
L 179.345455 137.66836 
L 180.157091 137.66836 
L 180.968727 155.097395 
L 181.780364 155.097395 
L 182.592 140.970803 
L 183.403636 140.970803 
L 184.215273 156.412025 
L 185.838545 156.412025 
L 186.650182 143.218779 
L 187.461818 143.218779 
L 188.273455 131.885745 
L 189.085091 131.885745 
L 189.896727 146.939448 
L 190.708364 146.939448 
L 191.52 148.914388 
L 192.331636 163.797664 
L 193.954909 163.797664 
L 194.766545 178.220912 
L 195.578182 178.220912 
L 196.389818 178.717765 
L 197.201455 178.717765 
L 198.013091 179.207475 
L 200.448 179.207475 
L 201.259636 193.533241 
L 202.882909 193.533241 
L 203.694545 209.811594 
L 204.506182 209.811594 
L 205.317818 198.279618 
L 206.129455 198.279618 
L 206.941091 183.147675 
L 208.564364 183.147675 
L 209.376 168.482557 
L 211.810909 168.403309 
L 212.622545 182.504143 
L 213.434182 182.504143 
L 214.245818 168.967647 
L 216.680727 168.967647 
L 217.492364 154.499144 
L 218.304 169.29307 
L 219.927273 169.29307 
L 220.738909 157.534252 
L 221.550545 157.534252 
L 222.362182 145.428175 
L 223.173818 145.428175 
L 223.985455 132.747248 
L 398.487273 132.747248 
L 398.487273 132.747248 
" style="fill:none;stroke:#ff0000;stroke-linecap:square;stroke-width:12;"/>
    <defs>
     <path d="M 0 3 
C 0.795609 3 1.55874 2.683901 2.12132 2.12132 
C 2.683901 1.55874 3 0.795609 3 0 
C 3 -0.795609 2.683901 -1.55874 2.12132 -2.12132 
C 1.55874 -2.683901 0.795609 -3 0 -3 
C -0.795609 -3 -1.55874 -2.683901 -2.12132 -2.12132 
C -2.683901 -1.55874 -3 -0.795609 -3 0 
C -3 0.795609 -2.683901 1.55874 -2.12132 2.12132 
C -1.55874 2.683901 -0.795609 3 0 3 
z
" id="m82be7d1a7c" style="stroke:#ff0000;"/>
    </defs>
    <g clip-path="url(#pdf379eb211)">
     <use style="fill:#ff0000;stroke:#ff0000;" x="73.832727" xlink:href="#m82be7d1a7c" y="295.488"/>
     <use style="fill:#ff0000;stroke:#ff0000;" x="74.644364" xlink:href="#m82be7d1a7c" y="252.868365"/>
     <use style="fill:#ff0000;stroke:#ff0000;" x="75.456" xlink:href="#m82be7d1a7c" y="252.868365"/>
     <use style="fill:#ff0000;stroke:#ff0000;" x="76.267636" xlink:href="#m82be7d1a7c" y="210.984673"/>
     <use style="fill:#ff0000;stroke:#ff0000;" x="77.079273" xlink:href="#m82be7d1a7c" y="210.984673"/>
     <use style="fill:#ff0000;stroke:#ff0000;" x="77.890909" xlink:href="#m82be7d1a7c" y="210.984673"/>
     <use style="fill:#ff0000;stroke:#ff0000;" x="78.702545" xlink:href="#m82be7d1a7c" y="255.38772"/>
     <use style="fill:#ff0000;stroke:#ff0000;" x="79.514182" xlink:href="#m82be7d1a7c" y="255.38772"/>
     <use style="fill:#ff0000;stroke:#ff0000;" x="80.325818" xlink:href="#m82be7d1a7c" y="212.698234"/>
     <use style="fill:#ff0000;stroke:#ff0000;" x="81.137455" xlink:href="#m82be7d1a7c" y="212.698234"/>
     <use style="fill:#ff0000;stroke:#ff0000;" x="81.949091" xlink:href="#m82be7d1a7c" y="171.665051"/>
     <use style="fill:#ff0000;stroke:#ff0000;" x="82.760727" xlink:href="#m82be7d1a7c" y="171.665051"/>
     <use style="fill:#ff0000;stroke:#ff0000;" x="83.572364" xlink:href="#m82be7d1a7c" y="132.538633"/>
     <use style="fill:#ff0000;stroke:#ff0000;" x="84.384" xlink:href="#m82be7d1a7c" y="132.538633"/>
     <use style="fill:#ff0000;stroke:#ff0000;" x="85.195636" xlink:href="#m82be7d1a7c" y="132.538633"/>
     <use style="fill:#ff0000;stroke:#ff0000;" x="86.007273" xlink:href="#m82be7d1a7c" y="132.538633"/>
     <use style="fill:#ff0000;stroke:#ff0000;" x="86.818909" xlink:href="#m82be7d1a7c" y="92.207012"/>
     <use style="fill:#ff0000;stroke:#ff0000;" x="87.630545" xlink:href="#m82be7d1a7c" y="54.389466"/>
     <use style="fill:#ff0000;stroke:#ff0000;" x="88.442182" xlink:href="#m82be7d1a7c" y="54.389466"/>
     <use style="fill:#ff0000;stroke:#ff0000;" x="89.253818" xlink:href="#m82be7d1a7c" y="54.389466"/>
     <use style="fill:#ff0000;stroke:#ff0000;" x="90.065455" xlink:href="#m82be7d1a7c" y="102.079517"/>
     <use style="fill:#ff0000;stroke:#ff0000;" x="90.877091" xlink:href="#m82be7d1a7c" y="102.079517"/>
     <use style="fill:#ff0000;stroke:#ff0000;" x="91.688727" xlink:href="#m82be7d1a7c" y="96.117228"/>
     <use style="fill:#ff0000;stroke:#ff0000;" x="92.500364" xlink:href="#m82be7d1a7c" y="96.117228"/>
     <use style="fill:#ff0000;stroke:#ff0000;" x="93.312" xlink:href="#m82be7d1a7c" y="111.892176"/>
     <use style="fill:#ff0000;stroke:#ff0000;" x="94.123636" xlink:href="#m82be7d1a7c" y="111.892176"/>
     <use style="fill:#ff0000;stroke:#ff0000;" x="94.935273" xlink:href="#m82be7d1a7c" y="111.892176"/>
     <use style="fill:#ff0000;stroke:#ff0000;" x="95.746909" xlink:href="#m82be7d1a7c" y="99.442481"/>
     <use style="fill:#ff0000;stroke:#ff0000;" x="96.558545" xlink:href="#m82be7d1a7c" y="99.442481"/>
     <use style="fill:#ff0000;stroke:#ff0000;" x="97.370182" xlink:href="#m82be7d1a7c" y="85.473958"/>
     <use style="fill:#ff0000;stroke:#ff0000;" x="98.181818" xlink:href="#m82be7d1a7c" y="85.473958"/>
     <use style="fill:#ff0000;stroke:#ff0000;" x="98.993455" xlink:href="#m82be7d1a7c" y="71.786476"/>
     <use style="fill:#ff0000;stroke:#ff0000;" x="99.805091" xlink:href="#m82be7d1a7c" y="71.786476"/>
     <use style="fill:#ff0000;stroke:#ff0000;" x="100.616727" xlink:href="#m82be7d1a7c" y="71.786476"/>
     <use style="fill:#ff0000;stroke:#ff0000;" x="101.428364" xlink:href="#m82be7d1a7c" y="71.786476"/>
     <use style="fill:#ff0000;stroke:#ff0000;" x="102.24" xlink:href="#m82be7d1a7c" y="58.281007"/>
     <use style="fill:#ff0000;stroke:#ff0000;" x="103.051636" xlink:href="#m82be7d1a7c" y="58.281007"/>
     <use style="fill:#ff0000;stroke:#ff0000;" x="103.863273" xlink:href="#m82be7d1a7c" y="58.281007"/>
     <use style="fill:#ff0000;stroke:#ff0000;" x="104.674909" xlink:href="#m82be7d1a7c" y="57.002023"/>
     <use style="fill:#ff0000;stroke:#ff0000;" x="105.486545" xlink:href="#m82be7d1a7c" y="57.002023"/>
     <use style="fill:#ff0000;stroke:#ff0000;" x="106.298182" xlink:href="#m82be7d1a7c" y="59.148773"/>
     <use style="fill:#ff0000;stroke:#ff0000;" x="107.109818" xlink:href="#m82be7d1a7c" y="74.767684"/>
     <use style="fill:#ff0000;stroke:#ff0000;" x="107.921455" xlink:href="#m82be7d1a7c" y="74.767684"/>
     <use style="fill:#ff0000;stroke:#ff0000;" x="108.733091" xlink:href="#m82be7d1a7c" y="90.78732"/>
     <use style="fill:#ff0000;stroke:#ff0000;" x="109.544727" xlink:href="#m82be7d1a7c" y="90.78732"/>
     <use style="fill:#ff0000;stroke:#ff0000;" x="110.356364" xlink:href="#m82be7d1a7c" y="79.581978"/>
     <use style="fill:#ff0000;stroke:#ff0000;" x="111.168" xlink:href="#m82be7d1a7c" y="79.581978"/>
     <use style="fill:#ff0000;stroke:#ff0000;" x="111.979636" xlink:href="#m82be7d1a7c" y="65.678432"/>
     <use style="fill:#ff0000;stroke:#ff0000;" x="112.791273" xlink:href="#m82be7d1a7c" y="65.678432"/>
     <use style="fill:#ff0000;stroke:#ff0000;" x="113.602909" xlink:href="#m82be7d1a7c" y="53.568"/>
     <use style="fill:#ff0000;stroke:#ff0000;" x="114.414545" xlink:href="#m82be7d1a7c" y="53.568"/>
     <use style="fill:#ff0000;stroke:#ff0000;" x="115.226182" xlink:href="#m82be7d1a7c" y="70.04083"/>
     <use style="fill:#ff0000;stroke:#ff0000;" x="116.037818" xlink:href="#m82be7d1a7c" y="70.04083"/>
     <use style="fill:#ff0000;stroke:#ff0000;" x="116.849455" xlink:href="#m82be7d1a7c" y="57.873314"/>
     <use style="fill:#ff0000;stroke:#ff0000;" x="117.661091" xlink:href="#m82be7d1a7c" y="57.873314"/>
     <use style="fill:#ff0000;stroke:#ff0000;" x="118.472727" xlink:href="#m82be7d1a7c" y="72.626546"/>
     <use style="fill:#ff0000;stroke:#ff0000;" x="119.284364" xlink:href="#m82be7d1a7c" y="72.626546"/>
     <use style="fill:#ff0000;stroke:#ff0000;" x="120.096" xlink:href="#m82be7d1a7c" y="88.744002"/>
     <use style="fill:#ff0000;stroke:#ff0000;" x="120.907636" xlink:href="#m82be7d1a7c" y="88.744002"/>
     <use style="fill:#ff0000;stroke:#ff0000;" x="121.719273" xlink:href="#m82be7d1a7c" y="76.523855"/>
     <use style="fill:#ff0000;stroke:#ff0000;" x="122.530909" xlink:href="#m82be7d1a7c" y="76.523855"/>
     <use style="fill:#ff0000;stroke:#ff0000;" x="123.342545" xlink:href="#m82be7d1a7c" y="63.27035"/>
     <use style="fill:#ff0000;stroke:#ff0000;" x="124.154182" xlink:href="#m82be7d1a7c" y="63.27035"/>
     <use style="fill:#ff0000;stroke:#ff0000;" x="124.965818" xlink:href="#m82be7d1a7c" y="63.27035"/>
     <use style="fill:#ff0000;stroke:#ff0000;" x="125.777455" xlink:href="#m82be7d1a7c" y="80.073277"/>
     <use style="fill:#ff0000;stroke:#ff0000;" x="126.589091" xlink:href="#m82be7d1a7c" y="80.073277"/>
     <use style="fill:#ff0000;stroke:#ff0000;" x="127.400727" xlink:href="#m82be7d1a7c" y="95.236434"/>
     <use style="fill:#ff0000;stroke:#ff0000;" x="128.212364" xlink:href="#m82be7d1a7c" y="95.236434"/>
     <use style="fill:#ff0000;stroke:#ff0000;" x="129.024" xlink:href="#m82be7d1a7c" y="95.236434"/>
     <use style="fill:#ff0000;stroke:#ff0000;" x="129.835636" xlink:href="#m82be7d1a7c" y="82.952859"/>
     <use style="fill:#ff0000;stroke:#ff0000;" x="130.647273" xlink:href="#m82be7d1a7c" y="82.952859"/>
     <use style="fill:#ff0000;stroke:#ff0000;" x="131.458909" xlink:href="#m82be7d1a7c" y="82.245469"/>
     <use style="fill:#ff0000;stroke:#ff0000;" x="132.270545" xlink:href="#m82be7d1a7c" y="82.245469"/>
     <use style="fill:#ff0000;stroke:#ff0000;" x="133.082182" xlink:href="#m82be7d1a7c" y="84.098482"/>
     <use style="fill:#ff0000;stroke:#ff0000;" x="133.893818" xlink:href="#m82be7d1a7c" y="84.098482"/>
     <use style="fill:#ff0000;stroke:#ff0000;" x="134.705455" xlink:href="#m82be7d1a7c" y="89.027272"/>
     <use style="fill:#ff0000;stroke:#ff0000;" x="135.517091" xlink:href="#m82be7d1a7c" y="105.751843"/>
     <use style="fill:#ff0000;stroke:#ff0000;" x="136.328727" xlink:href="#m82be7d1a7c" y="105.751843"/>
     <use style="fill:#ff0000;stroke:#ff0000;" x="137.140364" xlink:href="#m82be7d1a7c" y="122.2152"/>
     <use style="fill:#ff0000;stroke:#ff0000;" x="137.952" xlink:href="#m82be7d1a7c" y="122.2152"/>
     <use style="fill:#ff0000;stroke:#ff0000;" x="138.763636" xlink:href="#m82be7d1a7c" y="136.87364"/>
     <use style="fill:#ff0000;stroke:#ff0000;" x="139.575273" xlink:href="#m82be7d1a7c" y="136.87364"/>
     <use style="fill:#ff0000;stroke:#ff0000;" x="140.386909" xlink:href="#m82be7d1a7c" y="136.87364"/>
     <use style="fill:#ff0000;stroke:#ff0000;" x="141.198545" xlink:href="#m82be7d1a7c" y="136.87364"/>
     <use style="fill:#ff0000;stroke:#ff0000;" x="142.010182" xlink:href="#m82be7d1a7c" y="136.87364"/>
     <use style="fill:#ff0000;stroke:#ff0000;" x="142.821818" xlink:href="#m82be7d1a7c" y="152.445861"/>
     <use style="fill:#ff0000;stroke:#ff0000;" x="143.633455" xlink:href="#m82be7d1a7c" y="152.445861"/>
     <use style="fill:#ff0000;stroke:#ff0000;" x="144.445091" xlink:href="#m82be7d1a7c" y="168.9079"/>
     <use style="fill:#ff0000;stroke:#ff0000;" x="145.256727" xlink:href="#m82be7d1a7c" y="168.9079"/>
     <use style="fill:#ff0000;stroke:#ff0000;" x="146.068364" xlink:href="#m82be7d1a7c" y="154.879402"/>
     <use style="fill:#ff0000;stroke:#ff0000;" x="146.88" xlink:href="#m82be7d1a7c" y="142.760659"/>
     <use style="fill:#ff0000;stroke:#ff0000;" x="147.691636" xlink:href="#m82be7d1a7c" y="142.760659"/>
     <use style="fill:#ff0000;stroke:#ff0000;" x="148.503273" xlink:href="#m82be7d1a7c" y="142.760659"/>
     <use style="fill:#ff0000;stroke:#ff0000;" x="149.314909" xlink:href="#m82be7d1a7c" y="148.64646"/>
     <use style="fill:#ff0000;stroke:#ff0000;" x="150.126545" xlink:href="#m82be7d1a7c" y="134.786207"/>
     <use style="fill:#ff0000;stroke:#ff0000;" x="150.938182" xlink:href="#m82be7d1a7c" y="134.786207"/>
     <use style="fill:#ff0000;stroke:#ff0000;" x="151.749818" xlink:href="#m82be7d1a7c" y="120.454862"/>
     <use style="fill:#ff0000;stroke:#ff0000;" x="152.561455" xlink:href="#m82be7d1a7c" y="120.454862"/>
     <use style="fill:#ff0000;stroke:#ff0000;" x="153.373091" xlink:href="#m82be7d1a7c" y="119.61721"/>
     <use style="fill:#ff0000;stroke:#ff0000;" x="154.184727" xlink:href="#m82be7d1a7c" y="123.339295"/>
     <use style="fill:#ff0000;stroke:#ff0000;" x="154.996364" xlink:href="#m82be7d1a7c" y="123.339295"/>
     <use style="fill:#ff0000;stroke:#ff0000;" x="155.808" xlink:href="#m82be7d1a7c" y="123.339295"/>
     <use style="fill:#ff0000;stroke:#ff0000;" x="156.619636" xlink:href="#m82be7d1a7c" y="138.680586"/>
     <use style="fill:#ff0000;stroke:#ff0000;" x="157.431273" xlink:href="#m82be7d1a7c" y="138.680586"/>
     <use style="fill:#ff0000;stroke:#ff0000;" x="158.242909" xlink:href="#m82be7d1a7c" y="124.960564"/>
     <use style="fill:#ff0000;stroke:#ff0000;" x="159.054545" xlink:href="#m82be7d1a7c" y="124.960564"/>
     <use style="fill:#ff0000;stroke:#ff0000;" x="159.866182" xlink:href="#m82be7d1a7c" y="139.275572"/>
     <use style="fill:#ff0000;stroke:#ff0000;" x="160.677818" xlink:href="#m82be7d1a7c" y="139.275572"/>
     <use style="fill:#ff0000;stroke:#ff0000;" x="161.489455" xlink:href="#m82be7d1a7c" y="156.010914"/>
     <use style="fill:#ff0000;stroke:#ff0000;" x="162.301091" xlink:href="#m82be7d1a7c" y="156.010914"/>
     <use style="fill:#ff0000;stroke:#ff0000;" x="163.112727" xlink:href="#m82be7d1a7c" y="142.238821"/>
     <use style="fill:#ff0000;stroke:#ff0000;" x="163.924364" xlink:href="#m82be7d1a7c" y="142.238821"/>
     <use style="fill:#ff0000;stroke:#ff0000;" x="164.736" xlink:href="#m82be7d1a7c" y="128.749251"/>
     <use style="fill:#ff0000;stroke:#ff0000;" x="165.547636" xlink:href="#m82be7d1a7c" y="128.749251"/>
     <use style="fill:#ff0000;stroke:#ff0000;" x="166.359273" xlink:href="#m82be7d1a7c" y="128.749251"/>
     <use style="fill:#ff0000;stroke:#ff0000;" x="167.170909" xlink:href="#m82be7d1a7c" y="128.749251"/>
     <use style="fill:#ff0000;stroke:#ff0000;" x="167.982545" xlink:href="#m82be7d1a7c" y="128.749251"/>
     <use style="fill:#ff0000;stroke:#ff0000;" x="168.794182" xlink:href="#m82be7d1a7c" y="128.749251"/>
     <use style="fill:#ff0000;stroke:#ff0000;" x="169.605818" xlink:href="#m82be7d1a7c" y="128.749251"/>
     <use style="fill:#ff0000;stroke:#ff0000;" x="170.417455" xlink:href="#m82be7d1a7c" y="128.749251"/>
     <use style="fill:#ff0000;stroke:#ff0000;" x="171.229091" xlink:href="#m82be7d1a7c" y="128.749251"/>
     <use style="fill:#ff0000;stroke:#ff0000;" x="172.040727" xlink:href="#m82be7d1a7c" y="116.912066"/>
     <use style="fill:#ff0000;stroke:#ff0000;" x="172.852364" xlink:href="#m82be7d1a7c" y="132.408813"/>
     <use style="fill:#ff0000;stroke:#ff0000;" x="173.664" xlink:href="#m82be7d1a7c" y="132.408813"/>
     <use style="fill:#ff0000;stroke:#ff0000;" x="174.475636" xlink:href="#m82be7d1a7c" y="132.408813"/>
     <use style="fill:#ff0000;stroke:#ff0000;" x="175.287273" xlink:href="#m82be7d1a7c" y="119.956462"/>
     <use style="fill:#ff0000;stroke:#ff0000;" x="176.098909" xlink:href="#m82be7d1a7c" y="119.956462"/>
     <use style="fill:#ff0000;stroke:#ff0000;" x="176.910545" xlink:href="#m82be7d1a7c" y="118.175581"/>
     <use style="fill:#ff0000;stroke:#ff0000;" x="177.722182" xlink:href="#m82be7d1a7c" y="118.175581"/>
     <use style="fill:#ff0000;stroke:#ff0000;" x="178.533818" xlink:href="#m82be7d1a7c" y="133.715578"/>
     <use style="fill:#ff0000;stroke:#ff0000;" x="179.345455" xlink:href="#m82be7d1a7c" y="137.66836"/>
     <use style="fill:#ff0000;stroke:#ff0000;" x="180.157091" xlink:href="#m82be7d1a7c" y="137.66836"/>
     <use style="fill:#ff0000;stroke:#ff0000;" x="180.968727" xlink:href="#m82be7d1a7c" y="155.097395"/>
     <use style="fill:#ff0000;stroke:#ff0000;" x="181.780364" xlink:href="#m82be7d1a7c" y="155.097395"/>
     <use style="fill:#ff0000;stroke:#ff0000;" x="182.592" xlink:href="#m82be7d1a7c" y="140.970803"/>
     <use style="fill:#ff0000;stroke:#ff0000;" x="183.403636" xlink:href="#m82be7d1a7c" y="140.970803"/>
     <use style="fill:#ff0000;stroke:#ff0000;" x="184.215273" xlink:href="#m82be7d1a7c" y="156.412025"/>
     <use style="fill:#ff0000;stroke:#ff0000;" x="185.026909" xlink:href="#m82be7d1a7c" y="156.412025"/>
     <use style="fill:#ff0000;stroke:#ff0000;" x="185.838545" xlink:href="#m82be7d1a7c" y="156.412025"/>
     <use style="fill:#ff0000;stroke:#ff0000;" x="186.650182" xlink:href="#m82be7d1a7c" y="143.218779"/>
     <use style="fill:#ff0000;stroke:#ff0000;" x="187.461818" xlink:href="#m82be7d1a7c" y="143.218779"/>
     <use style="fill:#ff0000;stroke:#ff0000;" x="188.273455" xlink:href="#m82be7d1a7c" y="131.885745"/>
     <use style="fill:#ff0000;stroke:#ff0000;" x="189.085091" xlink:href="#m82be7d1a7c" y="131.885745"/>
     <use style="fill:#ff0000;stroke:#ff0000;" x="189.896727" xlink:href="#m82be7d1a7c" y="146.939448"/>
     <use style="fill:#ff0000;stroke:#ff0000;" x="190.708364" xlink:href="#m82be7d1a7c" y="146.939448"/>
     <use style="fill:#ff0000;stroke:#ff0000;" x="191.52" xlink:href="#m82be7d1a7c" y="148.914388"/>
     <use style="fill:#ff0000;stroke:#ff0000;" x="192.331636" xlink:href="#m82be7d1a7c" y="163.797664"/>
     <use style="fill:#ff0000;stroke:#ff0000;" x="193.143273" xlink:href="#m82be7d1a7c" y="163.797664"/>
     <use style="fill:#ff0000;stroke:#ff0000;" x="193.954909" xlink:href="#m82be7d1a7c" y="163.797664"/>
     <use style="fill:#ff0000;stroke:#ff0000;" x="194.766545" xlink:href="#m82be7d1a7c" y="178.220912"/>
     <use style="fill:#ff0000;stroke:#ff0000;" x="195.578182" xlink:href="#m82be7d1a7c" y="178.220912"/>
     <use style="fill:#ff0000;stroke:#ff0000;" x="196.389818" xlink:href="#m82be7d1a7c" y="178.717765"/>
     <use style="fill:#ff0000;stroke:#ff0000;" x="197.201455" xlink:href="#m82be7d1a7c" y="178.717765"/>
     <use style="fill:#ff0000;stroke:#ff0000;" x="198.013091" xlink:href="#m82be7d1a7c" y="179.207475"/>
     <use style="fill:#ff0000;stroke:#ff0000;" x="198.824727" xlink:href="#m82be7d1a7c" y="179.207475"/>
     <use style="fill:#ff0000;stroke:#ff0000;" x="199.636364" xlink:href="#m82be7d1a7c" y="179.207475"/>
     <use style="fill:#ff0000;stroke:#ff0000;" x="200.448" xlink:href="#m82be7d1a7c" y="179.207475"/>
     <use style="fill:#ff0000;stroke:#ff0000;" x="201.259636" xlink:href="#m82be7d1a7c" y="193.533241"/>
     <use style="fill:#ff0000;stroke:#ff0000;" x="202.071273" xlink:href="#m82be7d1a7c" y="193.533241"/>
     <use style="fill:#ff0000;stroke:#ff0000;" x="202.882909" xlink:href="#m82be7d1a7c" y="193.533241"/>
     <use style="fill:#ff0000;stroke:#ff0000;" x="203.694545" xlink:href="#m82be7d1a7c" y="209.811594"/>
     <use style="fill:#ff0000;stroke:#ff0000;" x="204.506182" xlink:href="#m82be7d1a7c" y="209.811594"/>
     <use style="fill:#ff0000;stroke:#ff0000;" x="205.317818" xlink:href="#m82be7d1a7c" y="198.279618"/>
     <use style="fill:#ff0000;stroke:#ff0000;" x="206.129455" xlink:href="#m82be7d1a7c" y="198.279618"/>
     <use style="fill:#ff0000;stroke:#ff0000;" x="206.941091" xlink:href="#m82be7d1a7c" y="183.147675"/>
     <use style="fill:#ff0000;stroke:#ff0000;" x="207.752727" xlink:href="#m82be7d1a7c" y="183.147675"/>
     <use style="fill:#ff0000;stroke:#ff0000;" x="208.564364" xlink:href="#m82be7d1a7c" y="183.147675"/>
     <use style="fill:#ff0000;stroke:#ff0000;" x="209.376" xlink:href="#m82be7d1a7c" y="168.482557"/>
     <use style="fill:#ff0000;stroke:#ff0000;" x="210.187636" xlink:href="#m82be7d1a7c" y="168.482557"/>
     <use style="fill:#ff0000;stroke:#ff0000;" x="210.999273" xlink:href="#m82be7d1a7c" y="168.403309"/>
     <use style="fill:#ff0000;stroke:#ff0000;" x="211.810909" xlink:href="#m82be7d1a7c" y="168.403309"/>
     <use style="fill:#ff0000;stroke:#ff0000;" x="212.622545" xlink:href="#m82be7d1a7c" y="182.504143"/>
     <use style="fill:#ff0000;stroke:#ff0000;" x="213.434182" xlink:href="#m82be7d1a7c" y="182.504143"/>
     <use style="fill:#ff0000;stroke:#ff0000;" x="214.245818" xlink:href="#m82be7d1a7c" y="168.967647"/>
     <use style="fill:#ff0000;stroke:#ff0000;" x="215.057455" xlink:href="#m82be7d1a7c" y="168.967647"/>
     <use style="fill:#ff0000;stroke:#ff0000;" x="215.869091" xlink:href="#m82be7d1a7c" y="168.967647"/>
     <use style="fill:#ff0000;stroke:#ff0000;" x="216.680727" xlink:href="#m82be7d1a7c" y="168.967647"/>
     <use style="fill:#ff0000;stroke:#ff0000;" x="217.492364" xlink:href="#m82be7d1a7c" y="154.499144"/>
     <use style="fill:#ff0000;stroke:#ff0000;" x="218.304" xlink:href="#m82be7d1a7c" y="169.29307"/>
     <use style="fill:#ff0000;stroke:#ff0000;" x="219.115636" xlink:href="#m82be7d1a7c" y="169.29307"/>
     <use style="fill:#ff0000;stroke:#ff0000;" x="219.927273" xlink:href="#m82be7d1a7c" y="169.29307"/>
     <use style="fill:#ff0000;stroke:#ff0000;" x="220.738909" xlink:href="#m82be7d1a7c" y="157.534252"/>
     <use style="fill:#ff0000;stroke:#ff0000;" x="221.550545" xlink:href="#m82be7d1a7c" y="157.534252"/>
     <use style="fill:#ff0000;stroke:#ff0000;" x="222.362182" xlink:href="#m82be7d1a7c" y="145.428175"/>
     <use style="fill:#ff0000;stroke:#ff0000;" x="223.173818" xlink:href="#m82be7d1a7c" y="145.428175"/>
     <use style="fill:#ff0000;stroke:#ff0000;" x="223.985455" xlink:href="#m82be7d1a7c" y="132.747248"/>
     <use style="fill:#ff0000;stroke:#ff0000;" x="224.797091" xlink:href="#m82be7d1a7c" y="132.747248"/>
     <use style="fill:#ff0000;stroke:#ff0000;" x="225.608727" xlink:href="#m82be7d1a7c" y="132.747248"/>
     <use style="fill:#ff0000;stroke:#ff0000;" x="226.420364" xlink:href="#m82be7d1a7c" y="132.747248"/>
     <use style="fill:#ff0000;stroke:#ff0000;" x="227.232" xlink:href="#m82be7d1a7c" y="132.747248"/>
     <use style="fill:#ff0000;stroke:#ff0000;" x="228.043636" xlink:href="#m82be7d1a7c" y="132.747248"/>
     <use style="fill:#ff0000;stroke:#ff0000;" x="228.855273" xlink:href="#m82be7d1a7c" y="132.747248"/>
     <use style="fill:#ff0000;stroke:#ff0000;" x="229.666909" xlink:href="#m82be7d1a7c" y="132.747248"/>
     <use style="fill:#ff0000;stroke:#ff0000;" x="230.478545" xlink:href="#m82be7d1a7c" y="132.747248"/>
     <use style="fill:#ff0000;stroke:#ff0000;" x="231.290182" xlink:href="#m82be7d1a7c" y="132.747248"/>
     <use style="fill:#ff0000;stroke:#ff0000;" x="232.101818" xlink:href="#m82be7d1a7c" y="132.747248"/>
     <use style="fill:#ff0000;stroke:#ff0000;" x="232.913455" xlink:href="#m82be7d1a7c" y="132.747248"/>
     <use style="fill:#ff0000;stroke:#ff0000;" x="233.725091" xlink:href="#m82be7d1a7c" y="132.747248"/>
     <use style="fill:#ff0000;stroke:#ff0000;" x="234.536727" xlink:href="#m82be7d1a7c" y="132.747248"/>
     <use style="fill:#ff0000;stroke:#ff0000;" x="235.348364" xlink:href="#m82be7d1a7c" y="132.747248"/>
     <use style="fill:#ff0000;stroke:#ff0000;" x="236.16" xlink:href="#m82be7d1a7c" y="132.747248"/>
     <use style="fill:#ff0000;stroke:#ff0000;" x="236.971636" xlink:href="#m82be7d1a7c" y="132.747248"/>
     <use style="fill:#ff0000;stroke:#ff0000;" x="237.783273" xlink:href="#m82be7d1a7c" y="132.747248"/>
     <use style="fill:#ff0000;stroke:#ff0000;" x="238.594909" xlink:href="#m82be7d1a7c" y="132.747248"/>
     <use style="fill:#ff0000;stroke:#ff0000;" x="239.406545" xlink:href="#m82be7d1a7c" y="132.747248"/>
     <use style="fill:#ff0000;stroke:#ff0000;" x="240.218182" xlink:href="#m82be7d1a7c" y="132.747248"/>
     <use style="fill:#ff0000;stroke:#ff0000;" x="241.029818" xlink:href="#m82be7d1a7c" y="132.747248"/>
     <use style="fill:#ff0000;stroke:#ff0000;" x="241.841455" xlink:href="#m82be7d1a7c" y="132.747248"/>
     <use style="fill:#ff0000;stroke:#ff0000;" x="242.653091" xlink:href="#m82be7d1a7c" y="132.747248"/>
     <use style="fill:#ff0000;stroke:#ff0000;" x="243.464727" xlink:href="#m82be7d1a7c" y="132.747248"/>
     <use style="fill:#ff0000;stroke:#ff0000;" x="244.276364" xlink:href="#m82be7d1a7c" y="132.747248"/>
     <use style="fill:#ff0000;stroke:#ff0000;" x="245.088" xlink:href="#m82be7d1a7c" y="132.747248"/>
     <use style="fill:#ff0000;stroke:#ff0000;" x="245.899636" xlink:href="#m82be7d1a7c" y="132.747248"/>
     <use style="fill:#ff0000;stroke:#ff0000;" x="246.711273" xlink:href="#m82be7d1a7c" y="132.747248"/>
     <use style="fill:#ff0000;stroke:#ff0000;" x="247.522909" xlink:href="#m82be7d1a7c" y="132.747248"/>
     <use style="fill:#ff0000;stroke:#ff0000;" x="248.334545" xlink:href="#m82be7d1a7c" y="132.747248"/>
     <use style="fill:#ff0000;stroke:#ff0000;" x="249.146182" xlink:href="#m82be7d1a7c" y="132.747248"/>
     <use style="fill:#ff0000;stroke:#ff0000;" x="249.957818" xlink:href="#m82be7d1a7c" y="132.747248"/>
     <use style="fill:#ff0000;stroke:#ff0000;" x="250.769455" xlink:href="#m82be7d1a7c" y="132.747248"/>
     <use style="fill:#ff0000;stroke:#ff0000;" x="251.581091" xlink:href="#m82be7d1a7c" y="132.747248"/>
     <use style="fill:#ff0000;stroke:#ff0000;" x="252.392727" xlink:href="#m82be7d1a7c" y="132.747248"/>
     <use style="fill:#ff0000;stroke:#ff0000;" x="253.204364" xlink:href="#m82be7d1a7c" y="132.747248"/>
     <use style="fill:#ff0000;stroke:#ff0000;" x="254.016" xlink:href="#m82be7d1a7c" y="132.747248"/>
     <use style="fill:#ff0000;stroke:#ff0000;" x="254.827636" xlink:href="#m82be7d1a7c" y="132.747248"/>
     <use style="fill:#ff0000;stroke:#ff0000;" x="255.639273" xlink:href="#m82be7d1a7c" y="132.747248"/>
     <use style="fill:#ff0000;stroke:#ff0000;" x="256.450909" xlink:href="#m82be7d1a7c" y="132.747248"/>
     <use style="fill:#ff0000;stroke:#ff0000;" x="257.262545" xlink:href="#m82be7d1a7c" y="132.747248"/>
     <use style="fill:#ff0000;stroke:#ff0000;" x="258.074182" xlink:href="#m82be7d1a7c" y="132.747248"/>
     <use style="fill:#ff0000;stroke:#ff0000;" x="258.885818" xlink:href="#m82be7d1a7c" y="132.747248"/>
     <use style="fill:#ff0000;stroke:#ff0000;" x="259.697455" xlink:href="#m82be7d1a7c" y="132.747248"/>
     <use style="fill:#ff0000;stroke:#ff0000;" x="260.509091" xlink:href="#m82be7d1a7c" y="132.747248"/>
     <use style="fill:#ff0000;stroke:#ff0000;" x="261.320727" xlink:href="#m82be7d1a7c" y="132.747248"/>
     <use style="fill:#ff0000;stroke:#ff0000;" x="262.132364" xlink:href="#m82be7d1a7c" y="132.747248"/>
     <use style="fill:#ff0000;stroke:#ff0000;" x="262.944" xlink:href="#m82be7d1a7c" y="132.747248"/>
     <use style="fill:#ff0000;stroke:#ff0000;" x="263.755636" xlink:href="#m82be7d1a7c" y="132.747248"/>
     <use style="fill:#ff0000;stroke:#ff0000;" x="264.567273" xlink:href="#m82be7d1a7c" y="132.747248"/>
     <use style="fill:#ff0000;stroke:#ff0000;" x="265.378909" xlink:href="#m82be7d1a7c" y="132.747248"/>
     <use style="fill:#ff0000;stroke:#ff0000;" x="266.190545" xlink:href="#m82be7d1a7c" y="132.747248"/>
     <use style="fill:#ff0000;stroke:#ff0000;" x="267.002182" xlink:href="#m82be7d1a7c" y="132.747248"/>
     <use style="fill:#ff0000;stroke:#ff0000;" x="267.813818" xlink:href="#m82be7d1a7c" y="132.747248"/>
     <use style="fill:#ff0000;stroke:#ff0000;" x="268.625455" xlink:href="#m82be7d1a7c" y="132.747248"/>
     <use style="fill:#ff0000;stroke:#ff0000;" x="269.437091" xlink:href="#m82be7d1a7c" y="132.747248"/>
     <use style="fill:#ff0000;stroke:#ff0000;" x="270.248727" xlink:href="#m82be7d1a7c" y="132.747248"/>
     <use style="fill:#ff0000;stroke:#ff0000;" x="271.060364" xlink:href="#m82be7d1a7c" y="132.747248"/>
     <use style="fill:#ff0000;stroke:#ff0000;" x="271.872" xlink:href="#m82be7d1a7c" y="132.747248"/>
     <use style="fill:#ff0000;stroke:#ff0000;" x="272.683636" xlink:href="#m82be7d1a7c" y="132.747248"/>
     <use style="fill:#ff0000;stroke:#ff0000;" x="273.495273" xlink:href="#m82be7d1a7c" y="132.747248"/>
     <use style="fill:#ff0000;stroke:#ff0000;" x="274.306909" xlink:href="#m82be7d1a7c" y="132.747248"/>
     <use style="fill:#ff0000;stroke:#ff0000;" x="275.118545" xlink:href="#m82be7d1a7c" y="132.747248"/>
     <use style="fill:#ff0000;stroke:#ff0000;" x="275.930182" xlink:href="#m82be7d1a7c" y="132.747248"/>
     <use style="fill:#ff0000;stroke:#ff0000;" x="276.741818" xlink:href="#m82be7d1a7c" y="132.747248"/>
     <use style="fill:#ff0000;stroke:#ff0000;" x="277.553455" xlink:href="#m82be7d1a7c" y="132.747248"/>
     <use style="fill:#ff0000;stroke:#ff0000;" x="278.365091" xlink:href="#m82be7d1a7c" y="132.747248"/>
     <use style="fill:#ff0000;stroke:#ff0000;" x="279.176727" xlink:href="#m82be7d1a7c" y="132.747248"/>
     <use style="fill:#ff0000;stroke:#ff0000;" x="279.988364" xlink:href="#m82be7d1a7c" y="132.747248"/>
     <use style="fill:#ff0000;stroke:#ff0000;" x="280.8" xlink:href="#m82be7d1a7c" y="132.747248"/>
     <use style="fill:#ff0000;stroke:#ff0000;" x="281.611636" xlink:href="#m82be7d1a7c" y="132.747248"/>
     <use style="fill:#ff0000;stroke:#ff0000;" x="282.423273" xlink:href="#m82be7d1a7c" y="132.747248"/>
     <use style="fill:#ff0000;stroke:#ff0000;" x="283.234909" xlink:href="#m82be7d1a7c" y="132.747248"/>
     <use style="fill:#ff0000;stroke:#ff0000;" x="284.046545" xlink:href="#m82be7d1a7c" y="132.747248"/>
     <use style="fill:#ff0000;stroke:#ff0000;" x="284.858182" xlink:href="#m82be7d1a7c" y="132.747248"/>
     <use style="fill:#ff0000;stroke:#ff0000;" x="285.669818" xlink:href="#m82be7d1a7c" y="132.747248"/>
     <use style="fill:#ff0000;stroke:#ff0000;" x="286.481455" xlink:href="#m82be7d1a7c" y="132.747248"/>
     <use style="fill:#ff0000;stroke:#ff0000;" x="287.293091" xlink:href="#m82be7d1a7c" y="132.747248"/>
     <use style="fill:#ff0000;stroke:#ff0000;" x="288.104727" xlink:href="#m82be7d1a7c" y="132.747248"/>
     <use style="fill:#ff0000;stroke:#ff0000;" x="288.916364" xlink:href="#m82be7d1a7c" y="132.747248"/>
     <use style="fill:#ff0000;stroke:#ff0000;" x="289.728" xlink:href="#m82be7d1a7c" y="132.747248"/>
     <use style="fill:#ff0000;stroke:#ff0000;" x="290.539636" xlink:href="#m82be7d1a7c" y="132.747248"/>
     <use style="fill:#ff0000;stroke:#ff0000;" x="291.351273" xlink:href="#m82be7d1a7c" y="132.747248"/>
     <use style="fill:#ff0000;stroke:#ff0000;" x="292.162909" xlink:href="#m82be7d1a7c" y="132.747248"/>
     <use style="fill:#ff0000;stroke:#ff0000;" x="292.974545" xlink:href="#m82be7d1a7c" y="132.747248"/>
     <use style="fill:#ff0000;stroke:#ff0000;" x="293.786182" xlink:href="#m82be7d1a7c" y="132.747248"/>
     <use style="fill:#ff0000;stroke:#ff0000;" x="294.597818" xlink:href="#m82be7d1a7c" y="132.747248"/>
     <use style="fill:#ff0000;stroke:#ff0000;" x="295.409455" xlink:href="#m82be7d1a7c" y="132.747248"/>
     <use style="fill:#ff0000;stroke:#ff0000;" x="296.221091" xlink:href="#m82be7d1a7c" y="132.747248"/>
     <use style="fill:#ff0000;stroke:#ff0000;" x="297.032727" xlink:href="#m82be7d1a7c" y="132.747248"/>
     <use style="fill:#ff0000;stroke:#ff0000;" x="297.844364" xlink:href="#m82be7d1a7c" y="132.747248"/>
     <use style="fill:#ff0000;stroke:#ff0000;" x="298.656" xlink:href="#m82be7d1a7c" y="132.747248"/>
     <use style="fill:#ff0000;stroke:#ff0000;" x="299.467636" xlink:href="#m82be7d1a7c" y="132.747248"/>
     <use style="fill:#ff0000;stroke:#ff0000;" x="300.279273" xlink:href="#m82be7d1a7c" y="132.747248"/>
     <use style="fill:#ff0000;stroke:#ff0000;" x="301.090909" xlink:href="#m82be7d1a7c" y="132.747248"/>
     <use style="fill:#ff0000;stroke:#ff0000;" x="301.902545" xlink:href="#m82be7d1a7c" y="132.747248"/>
     <use style="fill:#ff0000;stroke:#ff0000;" x="302.714182" xlink:href="#m82be7d1a7c" y="132.747248"/>
     <use style="fill:#ff0000;stroke:#ff0000;" x="303.525818" xlink:href="#m82be7d1a7c" y="132.747248"/>
     <use style="fill:#ff0000;stroke:#ff0000;" x="304.337455" xlink:href="#m82be7d1a7c" y="132.747248"/>
     <use style="fill:#ff0000;stroke:#ff0000;" x="305.149091" xlink:href="#m82be7d1a7c" y="132.747248"/>
     <use style="fill:#ff0000;stroke:#ff0000;" x="305.960727" xlink:href="#m82be7d1a7c" y="132.747248"/>
     <use style="fill:#ff0000;stroke:#ff0000;" x="306.772364" xlink:href="#m82be7d1a7c" y="132.747248"/>
     <use style="fill:#ff0000;stroke:#ff0000;" x="307.584" xlink:href="#m82be7d1a7c" y="132.747248"/>
     <use style="fill:#ff0000;stroke:#ff0000;" x="308.395636" xlink:href="#m82be7d1a7c" y="132.747248"/>
     <use style="fill:#ff0000;stroke:#ff0000;" x="309.207273" xlink:href="#m82be7d1a7c" y="132.747248"/>
     <use style="fill:#ff0000;stroke:#ff0000;" x="310.018909" xlink:href="#m82be7d1a7c" y="132.747248"/>
     <use style="fill:#ff0000;stroke:#ff0000;" x="310.830545" xlink:href="#m82be7d1a7c" y="132.747248"/>
     <use style="fill:#ff0000;stroke:#ff0000;" x="311.642182" xlink:href="#m82be7d1a7c" y="132.747248"/>
     <use style="fill:#ff0000;stroke:#ff0000;" x="312.453818" xlink:href="#m82be7d1a7c" y="132.747248"/>
     <use style="fill:#ff0000;stroke:#ff0000;" x="313.265455" xlink:href="#m82be7d1a7c" y="132.747248"/>
     <use style="fill:#ff0000;stroke:#ff0000;" x="314.077091" xlink:href="#m82be7d1a7c" y="132.747248"/>
     <use style="fill:#ff0000;stroke:#ff0000;" x="314.888727" xlink:href="#m82be7d1a7c" y="132.747248"/>
     <use style="fill:#ff0000;stroke:#ff0000;" x="315.700364" xlink:href="#m82be7d1a7c" y="132.747248"/>
     <use style="fill:#ff0000;stroke:#ff0000;" x="316.512" xlink:href="#m82be7d1a7c" y="132.747248"/>
     <use style="fill:#ff0000;stroke:#ff0000;" x="317.323636" xlink:href="#m82be7d1a7c" y="132.747248"/>
     <use style="fill:#ff0000;stroke:#ff0000;" x="318.135273" xlink:href="#m82be7d1a7c" y="132.747248"/>
     <use style="fill:#ff0000;stroke:#ff0000;" x="318.946909" xlink:href="#m82be7d1a7c" y="132.747248"/>
     <use style="fill:#ff0000;stroke:#ff0000;" x="319.758545" xlink:href="#m82be7d1a7c" y="132.747248"/>
     <use style="fill:#ff0000;stroke:#ff0000;" x="320.570182" xlink:href="#m82be7d1a7c" y="132.747248"/>
     <use style="fill:#ff0000;stroke:#ff0000;" x="321.381818" xlink:href="#m82be7d1a7c" y="132.747248"/>
     <use style="fill:#ff0000;stroke:#ff0000;" x="322.193455" xlink:href="#m82be7d1a7c" y="132.747248"/>
     <use style="fill:#ff0000;stroke:#ff0000;" x="323.005091" xlink:href="#m82be7d1a7c" y="132.747248"/>
     <use style="fill:#ff0000;stroke:#ff0000;" x="323.816727" xlink:href="#m82be7d1a7c" y="132.747248"/>
     <use style="fill:#ff0000;stroke:#ff0000;" x="324.628364" xlink:href="#m82be7d1a7c" y="132.747248"/>
     <use style="fill:#ff0000;stroke:#ff0000;" x="325.44" xlink:href="#m82be7d1a7c" y="132.747248"/>
     <use style="fill:#ff0000;stroke:#ff0000;" x="326.251636" xlink:href="#m82be7d1a7c" y="132.747248"/>
     <use style="fill:#ff0000;stroke:#ff0000;" x="327.063273" xlink:href="#m82be7d1a7c" y="132.747248"/>
     <use style="fill:#ff0000;stroke:#ff0000;" x="327.874909" xlink:href="#m82be7d1a7c" y="132.747248"/>
     <use style="fill:#ff0000;stroke:#ff0000;" x="328.686545" xlink:href="#m82be7d1a7c" y="132.747248"/>
     <use style="fill:#ff0000;stroke:#ff0000;" x="329.498182" xlink:href="#m82be7d1a7c" y="132.747248"/>
     <use style="fill:#ff0000;stroke:#ff0000;" x="330.309818" xlink:href="#m82be7d1a7c" y="132.747248"/>
     <use style="fill:#ff0000;stroke:#ff0000;" x="331.121455" xlink:href="#m82be7d1a7c" y="132.747248"/>
     <use style="fill:#ff0000;stroke:#ff0000;" x="331.933091" xlink:href="#m82be7d1a7c" y="132.747248"/>
     <use style="fill:#ff0000;stroke:#ff0000;" x="332.744727" xlink:href="#m82be7d1a7c" y="132.747248"/>
     <use style="fill:#ff0000;stroke:#ff0000;" x="333.556364" xlink:href="#m82be7d1a7c" y="132.747248"/>
     <use style="fill:#ff0000;stroke:#ff0000;" x="334.368" xlink:href="#m82be7d1a7c" y="132.747248"/>
     <use style="fill:#ff0000;stroke:#ff0000;" x="335.179636" xlink:href="#m82be7d1a7c" y="132.747248"/>
     <use style="fill:#ff0000;stroke:#ff0000;" x="335.991273" xlink:href="#m82be7d1a7c" y="132.747248"/>
     <use style="fill:#ff0000;stroke:#ff0000;" x="336.802909" xlink:href="#m82be7d1a7c" y="132.747248"/>
     <use style="fill:#ff0000;stroke:#ff0000;" x="337.614545" xlink:href="#m82be7d1a7c" y="132.747248"/>
     <use style="fill:#ff0000;stroke:#ff0000;" x="338.426182" xlink:href="#m82be7d1a7c" y="132.747248"/>
     <use style="fill:#ff0000;stroke:#ff0000;" x="339.237818" xlink:href="#m82be7d1a7c" y="132.747248"/>
     <use style="fill:#ff0000;stroke:#ff0000;" x="340.049455" xlink:href="#m82be7d1a7c" y="132.747248"/>
     <use style="fill:#ff0000;stroke:#ff0000;" x="340.861091" xlink:href="#m82be7d1a7c" y="132.747248"/>
     <use style="fill:#ff0000;stroke:#ff0000;" x="341.672727" xlink:href="#m82be7d1a7c" y="132.747248"/>
     <use style="fill:#ff0000;stroke:#ff0000;" x="342.484364" xlink:href="#m82be7d1a7c" y="132.747248"/>
     <use style="fill:#ff0000;stroke:#ff0000;" x="343.296" xlink:href="#m82be7d1a7c" y="132.747248"/>
     <use style="fill:#ff0000;stroke:#ff0000;" x="344.107636" xlink:href="#m82be7d1a7c" y="132.747248"/>
     <use style="fill:#ff0000;stroke:#ff0000;" x="344.919273" xlink:href="#m82be7d1a7c" y="132.747248"/>
     <use style="fill:#ff0000;stroke:#ff0000;" x="345.730909" xlink:href="#m82be7d1a7c" y="132.747248"/>
     <use style="fill:#ff0000;stroke:#ff0000;" x="346.542545" xlink:href="#m82be7d1a7c" y="132.747248"/>
     <use style="fill:#ff0000;stroke:#ff0000;" x="347.354182" xlink:href="#m82be7d1a7c" y="132.747248"/>
     <use style="fill:#ff0000;stroke:#ff0000;" x="348.165818" xlink:href="#m82be7d1a7c" y="132.747248"/>
     <use style="fill:#ff0000;stroke:#ff0000;" x="348.977455" xlink:href="#m82be7d1a7c" y="132.747248"/>
     <use style="fill:#ff0000;stroke:#ff0000;" x="349.789091" xlink:href="#m82be7d1a7c" y="132.747248"/>
     <use style="fill:#ff0000;stroke:#ff0000;" x="350.600727" xlink:href="#m82be7d1a7c" y="132.747248"/>
     <use style="fill:#ff0000;stroke:#ff0000;" x="351.412364" xlink:href="#m82be7d1a7c" y="132.747248"/>
     <use style="fill:#ff0000;stroke:#ff0000;" x="352.224" xlink:href="#m82be7d1a7c" y="132.747248"/>
     <use style="fill:#ff0000;stroke:#ff0000;" x="353.035636" xlink:href="#m82be7d1a7c" y="132.747248"/>
     <use style="fill:#ff0000;stroke:#ff0000;" x="353.847273" xlink:href="#m82be7d1a7c" y="132.747248"/>
     <use style="fill:#ff0000;stroke:#ff0000;" x="354.658909" xlink:href="#m82be7d1a7c" y="132.747248"/>
     <use style="fill:#ff0000;stroke:#ff0000;" x="355.470545" xlink:href="#m82be7d1a7c" y="132.747248"/>
     <use style="fill:#ff0000;stroke:#ff0000;" x="356.282182" xlink:href="#m82be7d1a7c" y="132.747248"/>
     <use style="fill:#ff0000;stroke:#ff0000;" x="357.093818" xlink:href="#m82be7d1a7c" y="132.747248"/>
     <use style="fill:#ff0000;stroke:#ff0000;" x="357.905455" xlink:href="#m82be7d1a7c" y="132.747248"/>
     <use style="fill:#ff0000;stroke:#ff0000;" x="358.717091" xlink:href="#m82be7d1a7c" y="132.747248"/>
     <use style="fill:#ff0000;stroke:#ff0000;" x="359.528727" xlink:href="#m82be7d1a7c" y="132.747248"/>
     <use style="fill:#ff0000;stroke:#ff0000;" x="360.340364" xlink:href="#m82be7d1a7c" y="132.747248"/>
     <use style="fill:#ff0000;stroke:#ff0000;" x="361.152" xlink:href="#m82be7d1a7c" y="132.747248"/>
     <use style="fill:#ff0000;stroke:#ff0000;" x="361.963636" xlink:href="#m82be7d1a7c" y="132.747248"/>
     <use style="fill:#ff0000;stroke:#ff0000;" x="362.775273" xlink:href="#m82be7d1a7c" y="132.747248"/>
     <use style="fill:#ff0000;stroke:#ff0000;" x="363.586909" xlink:href="#m82be7d1a7c" y="132.747248"/>
     <use style="fill:#ff0000;stroke:#ff0000;" x="364.398545" xlink:href="#m82be7d1a7c" y="132.747248"/>
     <use style="fill:#ff0000;stroke:#ff0000;" x="365.210182" xlink:href="#m82be7d1a7c" y="132.747248"/>
     <use style="fill:#ff0000;stroke:#ff0000;" x="366.021818" xlink:href="#m82be7d1a7c" y="132.747248"/>
     <use style="fill:#ff0000;stroke:#ff0000;" x="366.833455" xlink:href="#m82be7d1a7c" y="132.747248"/>
     <use style="fill:#ff0000;stroke:#ff0000;" x="367.645091" xlink:href="#m82be7d1a7c" y="132.747248"/>
     <use style="fill:#ff0000;stroke:#ff0000;" x="368.456727" xlink:href="#m82be7d1a7c" y="132.747248"/>
     <use style="fill:#ff0000;stroke:#ff0000;" x="369.268364" xlink:href="#m82be7d1a7c" y="132.747248"/>
     <use style="fill:#ff0000;stroke:#ff0000;" x="370.08" xlink:href="#m82be7d1a7c" y="132.747248"/>
     <use style="fill:#ff0000;stroke:#ff0000;" x="370.891636" xlink:href="#m82be7d1a7c" y="132.747248"/>
     <use style="fill:#ff0000;stroke:#ff0000;" x="371.703273" xlink:href="#m82be7d1a7c" y="132.747248"/>
     <use style="fill:#ff0000;stroke:#ff0000;" x="372.514909" xlink:href="#m82be7d1a7c" y="132.747248"/>
     <use style="fill:#ff0000;stroke:#ff0000;" x="373.326545" xlink:href="#m82be7d1a7c" y="132.747248"/>
     <use style="fill:#ff0000;stroke:#ff0000;" x="374.138182" xlink:href="#m82be7d1a7c" y="132.747248"/>
     <use style="fill:#ff0000;stroke:#ff0000;" x="374.949818" xlink:href="#m82be7d1a7c" y="132.747248"/>
     <use style="fill:#ff0000;stroke:#ff0000;" x="375.761455" xlink:href="#m82be7d1a7c" y="132.747248"/>
     <use style="fill:#ff0000;stroke:#ff0000;" x="376.573091" xlink:href="#m82be7d1a7c" y="132.747248"/>
     <use style="fill:#ff0000;stroke:#ff0000;" x="377.384727" xlink:href="#m82be7d1a7c" y="132.747248"/>
     <use style="fill:#ff0000;stroke:#ff0000;" x="378.196364" xlink:href="#m82be7d1a7c" y="132.747248"/>
     <use style="fill:#ff0000;stroke:#ff0000;" x="379.008" xlink:href="#m82be7d1a7c" y="132.747248"/>
     <use style="fill:#ff0000;stroke:#ff0000;" x="379.819636" xlink:href="#m82be7d1a7c" y="132.747248"/>
     <use style="fill:#ff0000;stroke:#ff0000;" x="380.631273" xlink:href="#m82be7d1a7c" y="132.747248"/>
     <use style="fill:#ff0000;stroke:#ff0000;" x="381.442909" xlink:href="#m82be7d1a7c" y="132.747248"/>
     <use style="fill:#ff0000;stroke:#ff0000;" x="382.254545" xlink:href="#m82be7d1a7c" y="132.747248"/>
     <use style="fill:#ff0000;stroke:#ff0000;" x="383.066182" xlink:href="#m82be7d1a7c" y="132.747248"/>
     <use style="fill:#ff0000;stroke:#ff0000;" x="383.877818" xlink:href="#m82be7d1a7c" y="132.747248"/>
     <use style="fill:#ff0000;stroke:#ff0000;" x="384.689455" xlink:href="#m82be7d1a7c" y="132.747248"/>
     <use style="fill:#ff0000;stroke:#ff0000;" x="385.501091" xlink:href="#m82be7d1a7c" y="132.747248"/>
     <use style="fill:#ff0000;stroke:#ff0000;" x="386.312727" xlink:href="#m82be7d1a7c" y="132.747248"/>
     <use style="fill:#ff0000;stroke:#ff0000;" x="387.124364" xlink:href="#m82be7d1a7c" y="132.747248"/>
     <use style="fill:#ff0000;stroke:#ff0000;" x="387.936" xlink:href="#m82be7d1a7c" y="132.747248"/>
     <use style="fill:#ff0000;stroke:#ff0000;" x="388.747636" xlink:href="#m82be7d1a7c" y="132.747248"/>
     <use style="fill:#ff0000;stroke:#ff0000;" x="389.559273" xlink:href="#m82be7d1a7c" y="132.747248"/>
     <use style="fill:#ff0000;stroke:#ff0000;" x="390.370909" xlink:href="#m82be7d1a7c" y="132.747248"/>
     <use style="fill:#ff0000;stroke:#ff0000;" x="391.182545" xlink:href="#m82be7d1a7c" y="132.747248"/>
     <use style="fill:#ff0000;stroke:#ff0000;" x="391.994182" xlink:href="#m82be7d1a7c" y="132.747248"/>
     <use style="fill:#ff0000;stroke:#ff0000;" x="392.805818" xlink:href="#m82be7d1a7c" y="132.747248"/>
     <use style="fill:#ff0000;stroke:#ff0000;" x="393.617455" xlink:href="#m82be7d1a7c" y="132.747248"/>
     <use style="fill:#ff0000;stroke:#ff0000;" x="394.429091" xlink:href="#m82be7d1a7c" y="132.747248"/>
     <use style="fill:#ff0000;stroke:#ff0000;" x="395.240727" xlink:href="#m82be7d1a7c" y="132.747248"/>
     <use style="fill:#ff0000;stroke:#ff0000;" x="396.052364" xlink:href="#m82be7d1a7c" y="132.747248"/>
     <use style="fill:#ff0000;stroke:#ff0000;" x="396.864" xlink:href="#m82be7d1a7c" y="132.747248"/>
     <use style="fill:#ff0000;stroke:#ff0000;" x="397.675636" xlink:href="#m82be7d1a7c" y="132.747248"/>
     <use style="fill:#ff0000;stroke:#ff0000;" x="398.487273" xlink:href="#m82be7d1a7c" y="132.747248"/>
    </g>
   </g>
   <g id="patch_3">
    <path d="M 57.6 307.584 
L 57.6 41.472 
" style="fill:none;stroke:#000000;stroke-linecap:square;stroke-linejoin:miter;stroke-width:0.8;"/>
   </g>
   <g id="patch_4">
    <path d="M 414.72 307.584 
L 414.72 41.472 
" style="fill:none;stroke:#000000;stroke-linecap:square;stroke-linejoin:miter;stroke-width:0.8;"/>
   </g>
   <g id="patch_5">
    <path d="M 57.6 307.584 
L 414.72 307.584 
" style="fill:none;stroke:#000000;stroke-linecap:square;stroke-linejoin:miter;stroke-width:0.8;"/>
   </g>
   <g id="patch_6">
    <path d="M 57.6 41.472 
L 414.72 41.472 
" style="fill:none;stroke:#000000;stroke-linecap:square;stroke-linejoin:miter;stroke-width:0.8;"/>
   </g>
  </g>
 </g>
 <defs>
  <clipPath id="pdf379eb211">
   <rect height="266.112" width="357.12" x="57.6" y="41.472"/>
  </clipPath>
 </defs>
</svg>
