<?xml version="1.0" encoding="utf-8" standalone="no"?>
<!DOCTYPE svg PUBLIC "-//W3C//DTD SVG 1.1//EN"
  "http://www.w3.org/Graphics/SVG/1.1/DTD/svg11.dtd">
<!-- Created with matplotlib (https://matplotlib.org/) -->
<svg height="345.6pt" version="1.1" viewBox="0 0 460.8 345.6" width="460.8pt" xmlns="http://www.w3.org/2000/svg" xmlns:xlink="http://www.w3.org/1999/xlink">
 <defs>
  <style type="text/css">
*{stroke-linecap:butt;stroke-linejoin:round;}
  </style>
 </defs>
 <g id="figure_1">
  <g id="patch_1">
   <path d="M 0 345.6 
L 460.8 345.6 
L 460.8 0 
L 0 0 
z
" style="fill:#ffffff;"/>
  </g>
  <g id="axes_1">
   <g id="patch_2">
    <path d="M 57.6 307.584 
L 414.72 307.584 
L 414.72 41.472 
L 57.6 41.472 
z
" style="fill:#ffffff;"/>
   </g>
   <g id="line2d_1">
    <path clip-path="url(#p679acab288)" d="M 73.832727 295.488 
L 75.550476 252.868365 
L 77.268225 252.868365 
L 78.985974 210.984673 
L 82.421472 210.984673 
L 84.139221 255.38772 
L 85.85697 255.38772 
L 87.574719 212.698234 
L 89.292468 212.698234 
L 91.010216 171.665051 
L 92.727965 171.665051 
L 94.445714 132.538633 
L 99.598961 132.538633 
L 103.034459 54.389466 
L 106.469957 54.389466 
L 108.187706 102.079517 
L 109.905455 102.079517 
L 111.623203 96.117228 
L 113.340952 96.117228 
L 115.058701 111.892176 
L 118.494199 111.892176 
L 120.211948 99.442481 
L 121.929697 99.442481 
L 123.647446 85.473958 
L 125.365195 85.473958 
L 127.082944 71.786476 
L 132.23619 71.786476 
L 133.953939 58.281007 
L 137.389437 58.281007 
L 139.107186 57.002023 
L 140.824935 57.002023 
L 142.542684 59.148773 
L 144.260433 74.767684 
L 145.978182 74.767684 
L 147.695931 90.78732 
L 149.41368 90.78732 
L 151.131429 79.581978 
L 152.849177 79.581978 
L 154.566926 65.678432 
L 156.284675 65.678432 
L 158.002424 53.568 
L 159.720173 53.568 
L 161.437922 70.04083 
L 163.155671 70.04083 
L 164.87342 57.873314 
L 166.591169 57.873314 
L 168.308918 72.626546 
L 170.026667 72.626546 
L 171.744416 88.744002 
L 173.462165 88.744002 
L 175.179913 76.523855 
L 176.897662 76.523855 
L 178.615411 63.27035 
L 182.050909 63.27035 
L 183.768658 80.073277 
L 185.486407 80.073277 
L 187.204156 95.236434 
L 190.639654 95.236434 
L 192.357403 82.952859 
L 194.075152 82.952859 
L 195.7929 82.245469 
L 197.510649 82.245469 
L 199.228398 84.098482 
L 200.946147 84.098482 
L 202.663896 89.027272 
L 204.381645 105.751843 
L 206.099394 105.751843 
L 207.817143 122.2152 
L 209.534892 122.2152 
L 211.252641 136.87364 
L 218.123636 136.87364 
L 219.841385 152.445861 
L 221.559134 152.445861 
L 223.276883 168.9079 
L 224.994632 168.9079 
L 226.712381 154.879402 
L 228.43013 142.760659 
L 231.865628 142.760659 
L 233.583377 148.64646 
L 235.301126 134.786207 
L 237.018874 134.786207 
L 238.736623 120.454862 
L 240.454372 120.454862 
L 242.172121 119.61721 
L 243.88987 123.339295 
L 247.325368 123.339295 
L 249.043117 138.680586 
L 250.760866 138.680586 
L 252.478615 124.960564 
L 254.196364 124.960564 
L 255.914113 139.275572 
L 257.631861 139.275572 
L 259.34961 156.010914 
L 261.067359 156.010914 
L 262.785108 142.238821 
L 264.502857 142.238821 
L 266.220606 128.749251 
L 279.962597 128.749251 
L 281.680346 116.912066 
L 283.398095 132.408813 
L 286.833593 132.408813 
L 288.551342 119.956462 
L 290.269091 119.956462 
L 291.98684 118.175581 
L 293.704589 118.175581 
L 295.422338 133.715578 
L 297.140087 137.66836 
L 298.857835 137.66836 
L 300.575584 155.097395 
L 302.293333 155.097395 
L 304.011082 140.970803 
L 305.728831 140.970803 
L 307.44658 156.412025 
L 310.882078 156.412025 
L 312.599827 143.218779 
L 314.317576 143.218779 
L 316.035325 131.885745 
L 317.753074 131.885745 
L 319.470823 146.939448 
L 321.188571 146.939448 
L 322.90632 148.914388 
L 324.624069 163.797664 
L 328.059567 163.797664 
L 329.777316 178.220912 
L 331.495065 178.220912 
L 333.212814 178.717765 
L 334.930563 178.717765 
L 336.648312 179.207475 
L 341.801558 179.207475 
L 343.519307 193.533241 
L 346.954805 193.533241 
L 348.672554 209.811594 
L 350.390303 209.811594 
L 352.108052 198.279618 
L 353.825801 198.279618 
L 355.54355 183.147675 
L 358.979048 183.147675 
L 360.696797 168.482557 
L 365.850043 168.403309 
L 367.567792 182.504143 
L 369.285541 182.504143 
L 371.00329 168.967647 
L 376.156537 168.967647 
L 377.874286 154.499144 
L 379.592035 169.29307 
L 383.027532 169.29307 
L 384.745281 157.534252 
L 386.46303 157.534252 
L 388.180779 145.428175 
L 389.898528 145.428175 
L 391.616277 132.747248 
L 398.487273 132.747248 
L 398.487273 132.747248 
" style="fill:none;stroke:#ff0000;stroke-linecap:square;stroke-width:12;"/>
    <defs>
     <path d="M 0 3 
C 0.795609 3 1.55874 2.683901 2.12132 2.12132 
C 2.683901 1.55874 3 0.795609 3 0 
C 3 -0.795609 2.683901 -1.55874 2.12132 -2.12132 
C 1.55874 -2.683901 0.795609 -3 0 -3 
C -0.795609 -3 -1.55874 -2.683901 -2.12132 -2.12132 
C -2.683901 -1.55874 -3 -0.795609 -3 0 
C -3 0.795609 -2.683901 1.55874 -2.12132 2.12132 
C -1.55874 2.683901 -0.795609 3 0 3 
z
" id="mf6ba364101" style="stroke:#ff0000;"/>
    </defs>
    <g clip-path="url(#p679acab288)">
     <use style="fill:#ff0000;stroke:#ff0000;" x="73.832727" xlink:href="#mf6ba364101" y="295.488"/>
     <use style="fill:#ff0000;stroke:#ff0000;" x="75.550476" xlink:href="#mf6ba364101" y="252.868365"/>
     <use style="fill:#ff0000;stroke:#ff0000;" x="77.268225" xlink:href="#mf6ba364101" y="252.868365"/>
     <use style="fill:#ff0000;stroke:#ff0000;" x="78.985974" xlink:href="#mf6ba364101" y="210.984673"/>
     <use style="fill:#ff0000;stroke:#ff0000;" x="80.703723" xlink:href="#mf6ba364101" y="210.984673"/>
     <use style="fill:#ff0000;stroke:#ff0000;" x="82.421472" xlink:href="#mf6ba364101" y="210.984673"/>
     <use style="fill:#ff0000;stroke:#ff0000;" x="84.139221" xlink:href="#mf6ba364101" y="255.38772"/>
     <use style="fill:#ff0000;stroke:#ff0000;" x="85.85697" xlink:href="#mf6ba364101" y="255.38772"/>
     <use style="fill:#ff0000;stroke:#ff0000;" x="87.574719" xlink:href="#mf6ba364101" y="212.698234"/>
     <use style="fill:#ff0000;stroke:#ff0000;" x="89.292468" xlink:href="#mf6ba364101" y="212.698234"/>
     <use style="fill:#ff0000;stroke:#ff0000;" x="91.010216" xlink:href="#mf6ba364101" y="171.665051"/>
     <use style="fill:#ff0000;stroke:#ff0000;" x="92.727965" xlink:href="#mf6ba364101" y="171.665051"/>
     <use style="fill:#ff0000;stroke:#ff0000;" x="94.445714" xlink:href="#mf6ba364101" y="132.538633"/>
     <use style="fill:#ff0000;stroke:#ff0000;" x="96.163463" xlink:href="#mf6ba364101" y="132.538633"/>
     <use style="fill:#ff0000;stroke:#ff0000;" x="97.881212" xlink:href="#mf6ba364101" y="132.538633"/>
     <use style="fill:#ff0000;stroke:#ff0000;" x="99.598961" xlink:href="#mf6ba364101" y="132.538633"/>
     <use style="fill:#ff0000;stroke:#ff0000;" x="101.31671" xlink:href="#mf6ba364101" y="92.207012"/>
     <use style="fill:#ff0000;stroke:#ff0000;" x="103.034459" xlink:href="#mf6ba364101" y="54.389466"/>
     <use style="fill:#ff0000;stroke:#ff0000;" x="104.752208" xlink:href="#mf6ba364101" y="54.389466"/>
     <use style="fill:#ff0000;stroke:#ff0000;" x="106.469957" xlink:href="#mf6ba364101" y="54.389466"/>
     <use style="fill:#ff0000;stroke:#ff0000;" x="108.187706" xlink:href="#mf6ba364101" y="102.079517"/>
     <use style="fill:#ff0000;stroke:#ff0000;" x="109.905455" xlink:href="#mf6ba364101" y="102.079517"/>
     <use style="fill:#ff0000;stroke:#ff0000;" x="111.623203" xlink:href="#mf6ba364101" y="96.117228"/>
     <use style="fill:#ff0000;stroke:#ff0000;" x="113.340952" xlink:href="#mf6ba364101" y="96.117228"/>
     <use style="fill:#ff0000;stroke:#ff0000;" x="115.058701" xlink:href="#mf6ba364101" y="111.892176"/>
     <use style="fill:#ff0000;stroke:#ff0000;" x="116.77645" xlink:href="#mf6ba364101" y="111.892176"/>
     <use style="fill:#ff0000;stroke:#ff0000;" x="118.494199" xlink:href="#mf6ba364101" y="111.892176"/>
     <use style="fill:#ff0000;stroke:#ff0000;" x="120.211948" xlink:href="#mf6ba364101" y="99.442481"/>
     <use style="fill:#ff0000;stroke:#ff0000;" x="121.929697" xlink:href="#mf6ba364101" y="99.442481"/>
     <use style="fill:#ff0000;stroke:#ff0000;" x="123.647446" xlink:href="#mf6ba364101" y="85.473958"/>
     <use style="fill:#ff0000;stroke:#ff0000;" x="125.365195" xlink:href="#mf6ba364101" y="85.473958"/>
     <use style="fill:#ff0000;stroke:#ff0000;" x="127.082944" xlink:href="#mf6ba364101" y="71.786476"/>
     <use style="fill:#ff0000;stroke:#ff0000;" x="128.800693" xlink:href="#mf6ba364101" y="71.786476"/>
     <use style="fill:#ff0000;stroke:#ff0000;" x="130.518442" xlink:href="#mf6ba364101" y="71.786476"/>
     <use style="fill:#ff0000;stroke:#ff0000;" x="132.23619" xlink:href="#mf6ba364101" y="71.786476"/>
     <use style="fill:#ff0000;stroke:#ff0000;" x="133.953939" xlink:href="#mf6ba364101" y="58.281007"/>
     <use style="fill:#ff0000;stroke:#ff0000;" x="135.671688" xlink:href="#mf6ba364101" y="58.281007"/>
     <use style="fill:#ff0000;stroke:#ff0000;" x="137.389437" xlink:href="#mf6ba364101" y="58.281007"/>
     <use style="fill:#ff0000;stroke:#ff0000;" x="139.107186" xlink:href="#mf6ba364101" y="57.002023"/>
     <use style="fill:#ff0000;stroke:#ff0000;" x="140.824935" xlink:href="#mf6ba364101" y="57.002023"/>
     <use style="fill:#ff0000;stroke:#ff0000;" x="142.542684" xlink:href="#mf6ba364101" y="59.148773"/>
     <use style="fill:#ff0000;stroke:#ff0000;" x="144.260433" xlink:href="#mf6ba364101" y="74.767684"/>
     <use style="fill:#ff0000;stroke:#ff0000;" x="145.978182" xlink:href="#mf6ba364101" y="74.767684"/>
     <use style="fill:#ff0000;stroke:#ff0000;" x="147.695931" xlink:href="#mf6ba364101" y="90.78732"/>
     <use style="fill:#ff0000;stroke:#ff0000;" x="149.41368" xlink:href="#mf6ba364101" y="90.78732"/>
     <use style="fill:#ff0000;stroke:#ff0000;" x="151.131429" xlink:href="#mf6ba364101" y="79.581978"/>
     <use style="fill:#ff0000;stroke:#ff0000;" x="152.849177" xlink:href="#mf6ba364101" y="79.581978"/>
     <use style="fill:#ff0000;stroke:#ff0000;" x="154.566926" xlink:href="#mf6ba364101" y="65.678432"/>
     <use style="fill:#ff0000;stroke:#ff0000;" x="156.284675" xlink:href="#mf6ba364101" y="65.678432"/>
     <use style="fill:#ff0000;stroke:#ff0000;" x="158.002424" xlink:href="#mf6ba364101" y="53.568"/>
     <use style="fill:#ff0000;stroke:#ff0000;" x="159.720173" xlink:href="#mf6ba364101" y="53.568"/>
     <use style="fill:#ff0000;stroke:#ff0000;" x="161.437922" xlink:href="#mf6ba364101" y="70.04083"/>
     <use style="fill:#ff0000;stroke:#ff0000;" x="163.155671" xlink:href="#mf6ba364101" y="70.04083"/>
     <use style="fill:#ff0000;stroke:#ff0000;" x="164.87342" xlink:href="#mf6ba364101" y="57.873314"/>
     <use style="fill:#ff0000;stroke:#ff0000;" x="166.591169" xlink:href="#mf6ba364101" y="57.873314"/>
     <use style="fill:#ff0000;stroke:#ff0000;" x="168.308918" xlink:href="#mf6ba364101" y="72.626546"/>
     <use style="fill:#ff0000;stroke:#ff0000;" x="170.026667" xlink:href="#mf6ba364101" y="72.626546"/>
     <use style="fill:#ff0000;stroke:#ff0000;" x="171.744416" xlink:href="#mf6ba364101" y="88.744002"/>
     <use style="fill:#ff0000;stroke:#ff0000;" x="173.462165" xlink:href="#mf6ba364101" y="88.744002"/>
     <use style="fill:#ff0000;stroke:#ff0000;" x="175.179913" xlink:href="#mf6ba364101" y="76.523855"/>
     <use style="fill:#ff0000;stroke:#ff0000;" x="176.897662" xlink:href="#mf6ba364101" y="76.523855"/>
     <use style="fill:#ff0000;stroke:#ff0000;" x="178.615411" xlink:href="#mf6ba364101" y="63.27035"/>
     <use style="fill:#ff0000;stroke:#ff0000;" x="180.33316" xlink:href="#mf6ba364101" y="63.27035"/>
     <use style="fill:#ff0000;stroke:#ff0000;" x="182.050909" xlink:href="#mf6ba364101" y="63.27035"/>
     <use style="fill:#ff0000;stroke:#ff0000;" x="183.768658" xlink:href="#mf6ba364101" y="80.073277"/>
     <use style="fill:#ff0000;stroke:#ff0000;" x="185.486407" xlink:href="#mf6ba364101" y="80.073277"/>
     <use style="fill:#ff0000;stroke:#ff0000;" x="187.204156" xlink:href="#mf6ba364101" y="95.236434"/>
     <use style="fill:#ff0000;stroke:#ff0000;" x="188.921905" xlink:href="#mf6ba364101" y="95.236434"/>
     <use style="fill:#ff0000;stroke:#ff0000;" x="190.639654" xlink:href="#mf6ba364101" y="95.236434"/>
     <use style="fill:#ff0000;stroke:#ff0000;" x="192.357403" xlink:href="#mf6ba364101" y="82.952859"/>
     <use style="fill:#ff0000;stroke:#ff0000;" x="194.075152" xlink:href="#mf6ba364101" y="82.952859"/>
     <use style="fill:#ff0000;stroke:#ff0000;" x="195.7929" xlink:href="#mf6ba364101" y="82.245469"/>
     <use style="fill:#ff0000;stroke:#ff0000;" x="197.510649" xlink:href="#mf6ba364101" y="82.245469"/>
     <use style="fill:#ff0000;stroke:#ff0000;" x="199.228398" xlink:href="#mf6ba364101" y="84.098482"/>
     <use style="fill:#ff0000;stroke:#ff0000;" x="200.946147" xlink:href="#mf6ba364101" y="84.098482"/>
     <use style="fill:#ff0000;stroke:#ff0000;" x="202.663896" xlink:href="#mf6ba364101" y="89.027272"/>
     <use style="fill:#ff0000;stroke:#ff0000;" x="204.381645" xlink:href="#mf6ba364101" y="105.751843"/>
     <use style="fill:#ff0000;stroke:#ff0000;" x="206.099394" xlink:href="#mf6ba364101" y="105.751843"/>
     <use style="fill:#ff0000;stroke:#ff0000;" x="207.817143" xlink:href="#mf6ba364101" y="122.2152"/>
     <use style="fill:#ff0000;stroke:#ff0000;" x="209.534892" xlink:href="#mf6ba364101" y="122.2152"/>
     <use style="fill:#ff0000;stroke:#ff0000;" x="211.252641" xlink:href="#mf6ba364101" y="136.87364"/>
     <use style="fill:#ff0000;stroke:#ff0000;" x="212.97039" xlink:href="#mf6ba364101" y="136.87364"/>
     <use style="fill:#ff0000;stroke:#ff0000;" x="214.688139" xlink:href="#mf6ba364101" y="136.87364"/>
     <use style="fill:#ff0000;stroke:#ff0000;" x="216.405887" xlink:href="#mf6ba364101" y="136.87364"/>
     <use style="fill:#ff0000;stroke:#ff0000;" x="218.123636" xlink:href="#mf6ba364101" y="136.87364"/>
     <use style="fill:#ff0000;stroke:#ff0000;" x="219.841385" xlink:href="#mf6ba364101" y="152.445861"/>
     <use style="fill:#ff0000;stroke:#ff0000;" x="221.559134" xlink:href="#mf6ba364101" y="152.445861"/>
     <use style="fill:#ff0000;stroke:#ff0000;" x="223.276883" xlink:href="#mf6ba364101" y="168.9079"/>
     <use style="fill:#ff0000;stroke:#ff0000;" x="224.994632" xlink:href="#mf6ba364101" y="168.9079"/>
     <use style="fill:#ff0000;stroke:#ff0000;" x="226.712381" xlink:href="#mf6ba364101" y="154.879402"/>
     <use style="fill:#ff0000;stroke:#ff0000;" x="228.43013" xlink:href="#mf6ba364101" y="142.760659"/>
     <use style="fill:#ff0000;stroke:#ff0000;" x="230.147879" xlink:href="#mf6ba364101" y="142.760659"/>
     <use style="fill:#ff0000;stroke:#ff0000;" x="231.865628" xlink:href="#mf6ba364101" y="142.760659"/>
     <use style="fill:#ff0000;stroke:#ff0000;" x="233.583377" xlink:href="#mf6ba364101" y="148.64646"/>
     <use style="fill:#ff0000;stroke:#ff0000;" x="235.301126" xlink:href="#mf6ba364101" y="134.786207"/>
     <use style="fill:#ff0000;stroke:#ff0000;" x="237.018874" xlink:href="#mf6ba364101" y="134.786207"/>
     <use style="fill:#ff0000;stroke:#ff0000;" x="238.736623" xlink:href="#mf6ba364101" y="120.454862"/>
     <use style="fill:#ff0000;stroke:#ff0000;" x="240.454372" xlink:href="#mf6ba364101" y="120.454862"/>
     <use style="fill:#ff0000;stroke:#ff0000;" x="242.172121" xlink:href="#mf6ba364101" y="119.61721"/>
     <use style="fill:#ff0000;stroke:#ff0000;" x="243.88987" xlink:href="#mf6ba364101" y="123.339295"/>
     <use style="fill:#ff0000;stroke:#ff0000;" x="245.607619" xlink:href="#mf6ba364101" y="123.339295"/>
     <use style="fill:#ff0000;stroke:#ff0000;" x="247.325368" xlink:href="#mf6ba364101" y="123.339295"/>
     <use style="fill:#ff0000;stroke:#ff0000;" x="249.043117" xlink:href="#mf6ba364101" y="138.680586"/>
     <use style="fill:#ff0000;stroke:#ff0000;" x="250.760866" xlink:href="#mf6ba364101" y="138.680586"/>
     <use style="fill:#ff0000;stroke:#ff0000;" x="252.478615" xlink:href="#mf6ba364101" y="124.960564"/>
     <use style="fill:#ff0000;stroke:#ff0000;" x="254.196364" xlink:href="#mf6ba364101" y="124.960564"/>
     <use style="fill:#ff0000;stroke:#ff0000;" x="255.914113" xlink:href="#mf6ba364101" y="139.275572"/>
     <use style="fill:#ff0000;stroke:#ff0000;" x="257.631861" xlink:href="#mf6ba364101" y="139.275572"/>
     <use style="fill:#ff0000;stroke:#ff0000;" x="259.34961" xlink:href="#mf6ba364101" y="156.010914"/>
     <use style="fill:#ff0000;stroke:#ff0000;" x="261.067359" xlink:href="#mf6ba364101" y="156.010914"/>
     <use style="fill:#ff0000;stroke:#ff0000;" x="262.785108" xlink:href="#mf6ba364101" y="142.238821"/>
     <use style="fill:#ff0000;stroke:#ff0000;" x="264.502857" xlink:href="#mf6ba364101" y="142.238821"/>
     <use style="fill:#ff0000;stroke:#ff0000;" x="266.220606" xlink:href="#mf6ba364101" y="128.749251"/>
     <use style="fill:#ff0000;stroke:#ff0000;" x="267.938355" xlink:href="#mf6ba364101" y="128.749251"/>
     <use style="fill:#ff0000;stroke:#ff0000;" x="269.656104" xlink:href="#mf6ba364101" y="128.749251"/>
     <use style="fill:#ff0000;stroke:#ff0000;" x="271.373853" xlink:href="#mf6ba364101" y="128.749251"/>
     <use style="fill:#ff0000;stroke:#ff0000;" x="273.091602" xlink:href="#mf6ba364101" y="128.749251"/>
     <use style="fill:#ff0000;stroke:#ff0000;" x="274.809351" xlink:href="#mf6ba364101" y="128.749251"/>
     <use style="fill:#ff0000;stroke:#ff0000;" x="276.5271" xlink:href="#mf6ba364101" y="128.749251"/>
     <use style="fill:#ff0000;stroke:#ff0000;" x="278.244848" xlink:href="#mf6ba364101" y="128.749251"/>
     <use style="fill:#ff0000;stroke:#ff0000;" x="279.962597" xlink:href="#mf6ba364101" y="128.749251"/>
     <use style="fill:#ff0000;stroke:#ff0000;" x="281.680346" xlink:href="#mf6ba364101" y="116.912066"/>
     <use style="fill:#ff0000;stroke:#ff0000;" x="283.398095" xlink:href="#mf6ba364101" y="132.408813"/>
     <use style="fill:#ff0000;stroke:#ff0000;" x="285.115844" xlink:href="#mf6ba364101" y="132.408813"/>
     <use style="fill:#ff0000;stroke:#ff0000;" x="286.833593" xlink:href="#mf6ba364101" y="132.408813"/>
     <use style="fill:#ff0000;stroke:#ff0000;" x="288.551342" xlink:href="#mf6ba364101" y="119.956462"/>
     <use style="fill:#ff0000;stroke:#ff0000;" x="290.269091" xlink:href="#mf6ba364101" y="119.956462"/>
     <use style="fill:#ff0000;stroke:#ff0000;" x="291.98684" xlink:href="#mf6ba364101" y="118.175581"/>
     <use style="fill:#ff0000;stroke:#ff0000;" x="293.704589" xlink:href="#mf6ba364101" y="118.175581"/>
     <use style="fill:#ff0000;stroke:#ff0000;" x="295.422338" xlink:href="#mf6ba364101" y="133.715578"/>
     <use style="fill:#ff0000;stroke:#ff0000;" x="297.140087" xlink:href="#mf6ba364101" y="137.66836"/>
     <use style="fill:#ff0000;stroke:#ff0000;" x="298.857835" xlink:href="#mf6ba364101" y="137.66836"/>
     <use style="fill:#ff0000;stroke:#ff0000;" x="300.575584" xlink:href="#mf6ba364101" y="155.097395"/>
     <use style="fill:#ff0000;stroke:#ff0000;" x="302.293333" xlink:href="#mf6ba364101" y="155.097395"/>
     <use style="fill:#ff0000;stroke:#ff0000;" x="304.011082" xlink:href="#mf6ba364101" y="140.970803"/>
     <use style="fill:#ff0000;stroke:#ff0000;" x="305.728831" xlink:href="#mf6ba364101" y="140.970803"/>
     <use style="fill:#ff0000;stroke:#ff0000;" x="307.44658" xlink:href="#mf6ba364101" y="156.412025"/>
     <use style="fill:#ff0000;stroke:#ff0000;" x="309.164329" xlink:href="#mf6ba364101" y="156.412025"/>
     <use style="fill:#ff0000;stroke:#ff0000;" x="310.882078" xlink:href="#mf6ba364101" y="156.412025"/>
     <use style="fill:#ff0000;stroke:#ff0000;" x="312.599827" xlink:href="#mf6ba364101" y="143.218779"/>
     <use style="fill:#ff0000;stroke:#ff0000;" x="314.317576" xlink:href="#mf6ba364101" y="143.218779"/>
     <use style="fill:#ff0000;stroke:#ff0000;" x="316.035325" xlink:href="#mf6ba364101" y="131.885745"/>
     <use style="fill:#ff0000;stroke:#ff0000;" x="317.753074" xlink:href="#mf6ba364101" y="131.885745"/>
     <use style="fill:#ff0000;stroke:#ff0000;" x="319.470823" xlink:href="#mf6ba364101" y="146.939448"/>
     <use style="fill:#ff0000;stroke:#ff0000;" x="321.188571" xlink:href="#mf6ba364101" y="146.939448"/>
     <use style="fill:#ff0000;stroke:#ff0000;" x="322.90632" xlink:href="#mf6ba364101" y="148.914388"/>
     <use style="fill:#ff0000;stroke:#ff0000;" x="324.624069" xlink:href="#mf6ba364101" y="163.797664"/>
     <use style="fill:#ff0000;stroke:#ff0000;" x="326.341818" xlink:href="#mf6ba364101" y="163.797664"/>
     <use style="fill:#ff0000;stroke:#ff0000;" x="328.059567" xlink:href="#mf6ba364101" y="163.797664"/>
     <use style="fill:#ff0000;stroke:#ff0000;" x="329.777316" xlink:href="#mf6ba364101" y="178.220912"/>
     <use style="fill:#ff0000;stroke:#ff0000;" x="331.495065" xlink:href="#mf6ba364101" y="178.220912"/>
     <use style="fill:#ff0000;stroke:#ff0000;" x="333.212814" xlink:href="#mf6ba364101" y="178.717765"/>
     <use style="fill:#ff0000;stroke:#ff0000;" x="334.930563" xlink:href="#mf6ba364101" y="178.717765"/>
     <use style="fill:#ff0000;stroke:#ff0000;" x="336.648312" xlink:href="#mf6ba364101" y="179.207475"/>
     <use style="fill:#ff0000;stroke:#ff0000;" x="338.366061" xlink:href="#mf6ba364101" y="179.207475"/>
     <use style="fill:#ff0000;stroke:#ff0000;" x="340.08381" xlink:href="#mf6ba364101" y="179.207475"/>
     <use style="fill:#ff0000;stroke:#ff0000;" x="341.801558" xlink:href="#mf6ba364101" y="179.207475"/>
     <use style="fill:#ff0000;stroke:#ff0000;" x="343.519307" xlink:href="#mf6ba364101" y="193.533241"/>
     <use style="fill:#ff0000;stroke:#ff0000;" x="345.237056" xlink:href="#mf6ba364101" y="193.533241"/>
     <use style="fill:#ff0000;stroke:#ff0000;" x="346.954805" xlink:href="#mf6ba364101" y="193.533241"/>
     <use style="fill:#ff0000;stroke:#ff0000;" x="348.672554" xlink:href="#mf6ba364101" y="209.811594"/>
     <use style="fill:#ff0000;stroke:#ff0000;" x="350.390303" xlink:href="#mf6ba364101" y="209.811594"/>
     <use style="fill:#ff0000;stroke:#ff0000;" x="352.108052" xlink:href="#mf6ba364101" y="198.279618"/>
     <use style="fill:#ff0000;stroke:#ff0000;" x="353.825801" xlink:href="#mf6ba364101" y="198.279618"/>
     <use style="fill:#ff0000;stroke:#ff0000;" x="355.54355" xlink:href="#mf6ba364101" y="183.147675"/>
     <use style="fill:#ff0000;stroke:#ff0000;" x="357.261299" xlink:href="#mf6ba364101" y="183.147675"/>
     <use style="fill:#ff0000;stroke:#ff0000;" x="358.979048" xlink:href="#mf6ba364101" y="183.147675"/>
     <use style="fill:#ff0000;stroke:#ff0000;" x="360.696797" xlink:href="#mf6ba364101" y="168.482557"/>
     <use style="fill:#ff0000;stroke:#ff0000;" x="362.414545" xlink:href="#mf6ba364101" y="168.482557"/>
     <use style="fill:#ff0000;stroke:#ff0000;" x="364.132294" xlink:href="#mf6ba364101" y="168.403309"/>
     <use style="fill:#ff0000;stroke:#ff0000;" x="365.850043" xlink:href="#mf6ba364101" y="168.403309"/>
     <use style="fill:#ff0000;stroke:#ff0000;" x="367.567792" xlink:href="#mf6ba364101" y="182.504143"/>
     <use style="fill:#ff0000;stroke:#ff0000;" x="369.285541" xlink:href="#mf6ba364101" y="182.504143"/>
     <use style="fill:#ff0000;stroke:#ff0000;" x="371.00329" xlink:href="#mf6ba364101" y="168.967647"/>
     <use style="fill:#ff0000;stroke:#ff0000;" x="372.721039" xlink:href="#mf6ba364101" y="168.967647"/>
     <use style="fill:#ff0000;stroke:#ff0000;" x="374.438788" xlink:href="#mf6ba364101" y="168.967647"/>
     <use style="fill:#ff0000;stroke:#ff0000;" x="376.156537" xlink:href="#mf6ba364101" y="168.967647"/>
     <use style="fill:#ff0000;stroke:#ff0000;" x="377.874286" xlink:href="#mf6ba364101" y="154.499144"/>
     <use style="fill:#ff0000;stroke:#ff0000;" x="379.592035" xlink:href="#mf6ba364101" y="169.29307"/>
     <use style="fill:#ff0000;stroke:#ff0000;" x="381.309784" xlink:href="#mf6ba364101" y="169.29307"/>
     <use style="fill:#ff0000;stroke:#ff0000;" x="383.027532" xlink:href="#mf6ba364101" y="169.29307"/>
     <use style="fill:#ff0000;stroke:#ff0000;" x="384.745281" xlink:href="#mf6ba364101" y="157.534252"/>
     <use style="fill:#ff0000;stroke:#ff0000;" x="386.46303" xlink:href="#mf6ba364101" y="157.534252"/>
     <use style="fill:#ff0000;stroke:#ff0000;" x="388.180779" xlink:href="#mf6ba364101" y="145.428175"/>
     <use style="fill:#ff0000;stroke:#ff0000;" x="389.898528" xlink:href="#mf6ba364101" y="145.428175"/>
     <use style="fill:#ff0000;stroke:#ff0000;" x="391.616277" xlink:href="#mf6ba364101" y="132.747248"/>
     <use style="fill:#ff0000;stroke:#ff0000;" x="393.334026" xlink:href="#mf6ba364101" y="132.747248"/>
     <use style="fill:#ff0000;stroke:#ff0000;" x="395.051775" xlink:href="#mf6ba364101" y="132.747248"/>
     <use style="fill:#ff0000;stroke:#ff0000;" x="396.769524" xlink:href="#mf6ba364101" y="132.747248"/>
     <use style="fill:#ff0000;stroke:#ff0000;" x="398.487273" xlink:href="#mf6ba364101" y="132.747248"/>
    </g>
   </g>
   <g id="patch_3">
    <path d="M 57.6 307.584 
L 57.6 41.472 
" style="fill:none;stroke:#000000;stroke-linecap:square;stroke-linejoin:miter;stroke-width:0.8;"/>
   </g>
   <g id="patch_4">
    <path d="M 414.72 307.584 
L 414.72 41.472 
" style="fill:none;stroke:#000000;stroke-linecap:square;stroke-linejoin:miter;stroke-width:0.8;"/>
   </g>
   <g id="patch_5">
    <path d="M 57.6 307.584 
L 414.72 307.584 
" style="fill:none;stroke:#000000;stroke-linecap:square;stroke-linejoin:miter;stroke-width:0.8;"/>
   </g>
   <g id="patch_6">
    <path d="M 57.6 41.472 
L 414.72 41.472 
" style="fill:none;stroke:#000000;stroke-linecap:square;stroke-linejoin:miter;stroke-width:0.8;"/>
   </g>
  </g>
 </g>
 <defs>
  <clipPath id="p679acab288">
   <rect height="266.112" width="357.12" x="57.6" y="41.472"/>
  </clipPath>
 </defs>
</svg>
