<?xml version="1.0" encoding="utf-8" standalone="no"?>
<!DOCTYPE svg PUBLIC "-//W3C//DTD SVG 1.1//EN"
  "http://www.w3.org/Graphics/SVG/1.1/DTD/svg11.dtd">
<!-- Created with matplotlib (https://matplotlib.org/) -->
<svg height="345.6pt" version="1.1" viewBox="0 0 460.8 345.6" width="460.8pt" xmlns="http://www.w3.org/2000/svg" xmlns:xlink="http://www.w3.org/1999/xlink">
 <defs>
  <style type="text/css">
*{stroke-linecap:butt;stroke-linejoin:round;}
  </style>
 </defs>
 <g id="figure_1">
  <g id="patch_1">
   <path d="M 0 345.6 
L 460.8 345.6 
L 460.8 0 
L 0 0 
z
" style="fill:#ffffff;"/>
  </g>
  <g id="axes_1">
   <g id="patch_2">
    <path d="M 57.6 307.584 
L 414.72 307.584 
L 414.72 41.472 
L 57.6 41.472 
z
" style="fill:#ffffff;"/>
   </g>
   <g id="line2d_1">
    <path clip-path="url(#p84ffd36460)" d="M 73.832727 175.987838 
L 74.8868 228.6346 
L 75.940874 228.6346 
L 76.994947 237.800491 
L 81.21124 237.800491 
L 82.265313 182.588367 
L 83.319386 182.588367 
L 84.373459 193.06185 
L 85.427532 244.445448 
L 87.535679 244.445448 
L 88.589752 294.781475 
L 90.697898 294.781475 
L 91.751972 236.982892 
L 92.806045 236.982892 
L 93.860118 243.090969 
L 95.968264 243.090969 
L 97.022338 295.377626 
L 98.076411 295.377626 
L 99.130484 238.943126 
L 103.346777 238.943126 
L 104.40085 221.601316 
L 105.454923 221.601316 
L 106.508996 237.9391 
L 108.617143 237.9391 
L 109.671216 220.088435 
L 111.779362 220.088435 
L 112.833436 201.866911 
L 113.887509 201.866911 
L 114.941582 218.135907 
L 117.049728 218.135907 
L 118.103802 235.79948 
L 119.157875 235.79948 
L 120.211948 218.561203 
L 121.266021 235.4373 
L 122.320094 235.4373 
L 123.374168 254.597984 
L 124.428241 254.597984 
L 125.482314 269.557639 
L 126.536387 269.557639 
L 127.59046 249.209244 
L 128.644534 265.37589 
L 131.806753 265.37589 
L 132.860826 284.384903 
L 133.9149 284.384903 
L 134.968973 278.425329 
L 136.023046 295.488 
L 139.185266 295.488 
L 140.239339 294.824657 
L 141.293412 294.824657 
L 142.347485 275.34857 
L 143.401558 275.34857 
L 144.455632 293.212759 
L 145.509705 293.212759 
L 146.563778 276.299187 
L 148.671924 276.299187 
L 149.725998 270.628015 
L 150.780071 270.628015 
L 151.834144 286.626934 
L 152.888217 286.626934 
L 153.94229 268.114191 
L 154.996364 268.114191 
L 156.050437 285.623067 
L 157.10451 285.623067 
L 158.158583 266.425855 
L 162.374876 266.425855 
L 163.428949 247.632271 
L 164.483022 247.632271 
L 165.537096 263.878663 
L 166.591169 263.878663 
L 167.645242 282.186849 
L 169.753388 282.186849 
L 170.807462 263.097276 
L 171.861535 263.097276 
L 172.915608 279.451851 
L 173.969681 279.451851 
L 175.023754 262.739596 
L 176.077828 279.682191 
L 177.131901 279.682191 
L 178.185974 260.660094 
L 179.240047 260.660094 
L 180.29412 242.537863 
L 181.348194 242.537863 
L 182.402267 223.584148 
L 183.45634 226.087919 
L 184.510413 226.087919 
L 185.564486 242.113873 
L 186.61856 242.113873 
L 187.672633 225.278184 
L 188.726706 225.278184 
L 189.780779 244.606546 
L 190.834852 244.606546 
L 191.888926 227.417154 
L 201.375584 227.417154 
L 202.429658 209.23934 
L 204.537804 209.23934 
L 205.591877 192.887627 
L 206.64595 192.887627 
L 207.700024 186.549531 
L 208.754097 186.549531 
L 209.80817 167.353437 
L 210.862243 162.470683 
L 211.916316 162.470683 
L 212.97039 145.904226 
L 214.024463 145.904226 
L 215.078536 129.260875 
L 216.132609 129.260875 
L 218.240756 94.644465 
L 219.294829 94.644465 
L 220.348902 90.200764 
L 221.402975 90.200764 
L 222.457048 108.501433 
L 223.511122 108.501433 
L 224.565195 107.317629 
L 225.619268 111.192705 
L 226.673341 111.192705 
L 227.727414 92.807839 
L 229.835561 92.807839 
L 231.943707 128.203186 
L 235.105927 128.203186 
L 237.214073 97.939895 
L 238.268146 97.939895 
L 239.32222 100.104463 
L 241.430366 100.104463 
L 242.484439 118.601824 
L 243.538512 118.601824 
L 244.592586 139.148134 
L 245.646659 139.148134 
L 246.700732 120.465748 
L 247.754805 122.074213 
L 248.808878 122.074213 
L 249.862952 105.931967 
L 250.917025 105.931967 
L 251.971098 91.837478 
L 253.025171 91.837478 
L 254.079244 71.060362 
L 255.133318 71.060362 
L 256.187391 53.568 
L 259.34961 53.568 
L 260.403684 74.077042 
L 261.457757 73.079945 
L 262.51183 73.079945 
L 263.565903 73.277146 
L 264.619976 73.277146 
L 265.67405 74.715929 
L 266.728123 58.950957 
L 267.782196 58.950957 
L 268.836269 61.27459 
L 398.487273 61.27459 
L 398.487273 61.27459 
" style="fill:none;stroke:#ff0000;stroke-linecap:square;stroke-width:12;"/>
    <defs>
     <path d="M 0 3 
C 0.795609 3 1.55874 2.683901 2.12132 2.12132 
C 2.683901 1.55874 3 0.795609 3 0 
C 3 -0.795609 2.683901 -1.55874 2.12132 -2.12132 
C 1.55874 -2.683901 0.795609 -3 0 -3 
C -0.795609 -3 -1.55874 -2.683901 -2.12132 -2.12132 
C -2.683901 -1.55874 -3 -0.795609 -3 0 
C -3 0.795609 -2.683901 1.55874 -2.12132 2.12132 
C -1.55874 2.683901 -0.795609 3 0 3 
z
" id="m5420ca5990" style="stroke:#ff0000;"/>
    </defs>
    <g clip-path="url(#p84ffd36460)">
     <use style="fill:#ff0000;stroke:#ff0000;" x="73.832727" xlink:href="#m5420ca5990" y="175.987838"/>
     <use style="fill:#ff0000;stroke:#ff0000;" x="74.8868" xlink:href="#m5420ca5990" y="228.6346"/>
     <use style="fill:#ff0000;stroke:#ff0000;" x="75.940874" xlink:href="#m5420ca5990" y="228.6346"/>
     <use style="fill:#ff0000;stroke:#ff0000;" x="76.994947" xlink:href="#m5420ca5990" y="237.800491"/>
     <use style="fill:#ff0000;stroke:#ff0000;" x="78.04902" xlink:href="#m5420ca5990" y="237.800491"/>
     <use style="fill:#ff0000;stroke:#ff0000;" x="79.103093" xlink:href="#m5420ca5990" y="237.800491"/>
     <use style="fill:#ff0000;stroke:#ff0000;" x="80.157166" xlink:href="#m5420ca5990" y="237.800491"/>
     <use style="fill:#ff0000;stroke:#ff0000;" x="81.21124" xlink:href="#m5420ca5990" y="237.800491"/>
     <use style="fill:#ff0000;stroke:#ff0000;" x="82.265313" xlink:href="#m5420ca5990" y="182.588367"/>
     <use style="fill:#ff0000;stroke:#ff0000;" x="83.319386" xlink:href="#m5420ca5990" y="182.588367"/>
     <use style="fill:#ff0000;stroke:#ff0000;" x="84.373459" xlink:href="#m5420ca5990" y="193.06185"/>
     <use style="fill:#ff0000;stroke:#ff0000;" x="85.427532" xlink:href="#m5420ca5990" y="244.445448"/>
     <use style="fill:#ff0000;stroke:#ff0000;" x="86.481606" xlink:href="#m5420ca5990" y="244.445448"/>
     <use style="fill:#ff0000;stroke:#ff0000;" x="87.535679" xlink:href="#m5420ca5990" y="244.445448"/>
     <use style="fill:#ff0000;stroke:#ff0000;" x="88.589752" xlink:href="#m5420ca5990" y="294.781475"/>
     <use style="fill:#ff0000;stroke:#ff0000;" x="89.643825" xlink:href="#m5420ca5990" y="294.781475"/>
     <use style="fill:#ff0000;stroke:#ff0000;" x="90.697898" xlink:href="#m5420ca5990" y="294.781475"/>
     <use style="fill:#ff0000;stroke:#ff0000;" x="91.751972" xlink:href="#m5420ca5990" y="236.982892"/>
     <use style="fill:#ff0000;stroke:#ff0000;" x="92.806045" xlink:href="#m5420ca5990" y="236.982892"/>
     <use style="fill:#ff0000;stroke:#ff0000;" x="93.860118" xlink:href="#m5420ca5990" y="243.090969"/>
     <use style="fill:#ff0000;stroke:#ff0000;" x="94.914191" xlink:href="#m5420ca5990" y="243.090969"/>
     <use style="fill:#ff0000;stroke:#ff0000;" x="95.968264" xlink:href="#m5420ca5990" y="243.090969"/>
     <use style="fill:#ff0000;stroke:#ff0000;" x="97.022338" xlink:href="#m5420ca5990" y="295.377626"/>
     <use style="fill:#ff0000;stroke:#ff0000;" x="98.076411" xlink:href="#m5420ca5990" y="295.377626"/>
     <use style="fill:#ff0000;stroke:#ff0000;" x="99.130484" xlink:href="#m5420ca5990" y="238.943126"/>
     <use style="fill:#ff0000;stroke:#ff0000;" x="100.184557" xlink:href="#m5420ca5990" y="238.943126"/>
     <use style="fill:#ff0000;stroke:#ff0000;" x="101.23863" xlink:href="#m5420ca5990" y="238.943126"/>
     <use style="fill:#ff0000;stroke:#ff0000;" x="102.292704" xlink:href="#m5420ca5990" y="238.943126"/>
     <use style="fill:#ff0000;stroke:#ff0000;" x="103.346777" xlink:href="#m5420ca5990" y="238.943126"/>
     <use style="fill:#ff0000;stroke:#ff0000;" x="104.40085" xlink:href="#m5420ca5990" y="221.601316"/>
     <use style="fill:#ff0000;stroke:#ff0000;" x="105.454923" xlink:href="#m5420ca5990" y="221.601316"/>
     <use style="fill:#ff0000;stroke:#ff0000;" x="106.508996" xlink:href="#m5420ca5990" y="237.9391"/>
     <use style="fill:#ff0000;stroke:#ff0000;" x="107.56307" xlink:href="#m5420ca5990" y="237.9391"/>
     <use style="fill:#ff0000;stroke:#ff0000;" x="108.617143" xlink:href="#m5420ca5990" y="237.9391"/>
     <use style="fill:#ff0000;stroke:#ff0000;" x="109.671216" xlink:href="#m5420ca5990" y="220.088435"/>
     <use style="fill:#ff0000;stroke:#ff0000;" x="110.725289" xlink:href="#m5420ca5990" y="220.088435"/>
     <use style="fill:#ff0000;stroke:#ff0000;" x="111.779362" xlink:href="#m5420ca5990" y="220.088435"/>
     <use style="fill:#ff0000;stroke:#ff0000;" x="112.833436" xlink:href="#m5420ca5990" y="201.866911"/>
     <use style="fill:#ff0000;stroke:#ff0000;" x="113.887509" xlink:href="#m5420ca5990" y="201.866911"/>
     <use style="fill:#ff0000;stroke:#ff0000;" x="114.941582" xlink:href="#m5420ca5990" y="218.135907"/>
     <use style="fill:#ff0000;stroke:#ff0000;" x="115.995655" xlink:href="#m5420ca5990" y="218.135907"/>
     <use style="fill:#ff0000;stroke:#ff0000;" x="117.049728" xlink:href="#m5420ca5990" y="218.135907"/>
     <use style="fill:#ff0000;stroke:#ff0000;" x="118.103802" xlink:href="#m5420ca5990" y="235.79948"/>
     <use style="fill:#ff0000;stroke:#ff0000;" x="119.157875" xlink:href="#m5420ca5990" y="235.79948"/>
     <use style="fill:#ff0000;stroke:#ff0000;" x="120.211948" xlink:href="#m5420ca5990" y="218.561203"/>
     <use style="fill:#ff0000;stroke:#ff0000;" x="121.266021" xlink:href="#m5420ca5990" y="235.4373"/>
     <use style="fill:#ff0000;stroke:#ff0000;" x="122.320094" xlink:href="#m5420ca5990" y="235.4373"/>
     <use style="fill:#ff0000;stroke:#ff0000;" x="123.374168" xlink:href="#m5420ca5990" y="254.597984"/>
     <use style="fill:#ff0000;stroke:#ff0000;" x="124.428241" xlink:href="#m5420ca5990" y="254.597984"/>
     <use style="fill:#ff0000;stroke:#ff0000;" x="125.482314" xlink:href="#m5420ca5990" y="269.557639"/>
     <use style="fill:#ff0000;stroke:#ff0000;" x="126.536387" xlink:href="#m5420ca5990" y="269.557639"/>
     <use style="fill:#ff0000;stroke:#ff0000;" x="127.59046" xlink:href="#m5420ca5990" y="249.209244"/>
     <use style="fill:#ff0000;stroke:#ff0000;" x="128.644534" xlink:href="#m5420ca5990" y="265.37589"/>
     <use style="fill:#ff0000;stroke:#ff0000;" x="129.698607" xlink:href="#m5420ca5990" y="265.37589"/>
     <use style="fill:#ff0000;stroke:#ff0000;" x="130.75268" xlink:href="#m5420ca5990" y="265.37589"/>
     <use style="fill:#ff0000;stroke:#ff0000;" x="131.806753" xlink:href="#m5420ca5990" y="265.37589"/>
     <use style="fill:#ff0000;stroke:#ff0000;" x="132.860826" xlink:href="#m5420ca5990" y="284.384903"/>
     <use style="fill:#ff0000;stroke:#ff0000;" x="133.9149" xlink:href="#m5420ca5990" y="284.384903"/>
     <use style="fill:#ff0000;stroke:#ff0000;" x="134.968973" xlink:href="#m5420ca5990" y="278.425329"/>
     <use style="fill:#ff0000;stroke:#ff0000;" x="136.023046" xlink:href="#m5420ca5990" y="295.488"/>
     <use style="fill:#ff0000;stroke:#ff0000;" x="137.077119" xlink:href="#m5420ca5990" y="295.488"/>
     <use style="fill:#ff0000;stroke:#ff0000;" x="138.131192" xlink:href="#m5420ca5990" y="295.488"/>
     <use style="fill:#ff0000;stroke:#ff0000;" x="139.185266" xlink:href="#m5420ca5990" y="295.488"/>
     <use style="fill:#ff0000;stroke:#ff0000;" x="140.239339" xlink:href="#m5420ca5990" y="294.824657"/>
     <use style="fill:#ff0000;stroke:#ff0000;" x="141.293412" xlink:href="#m5420ca5990" y="294.824657"/>
     <use style="fill:#ff0000;stroke:#ff0000;" x="142.347485" xlink:href="#m5420ca5990" y="275.34857"/>
     <use style="fill:#ff0000;stroke:#ff0000;" x="143.401558" xlink:href="#m5420ca5990" y="275.34857"/>
     <use style="fill:#ff0000;stroke:#ff0000;" x="144.455632" xlink:href="#m5420ca5990" y="293.212759"/>
     <use style="fill:#ff0000;stroke:#ff0000;" x="145.509705" xlink:href="#m5420ca5990" y="293.212759"/>
     <use style="fill:#ff0000;stroke:#ff0000;" x="146.563778" xlink:href="#m5420ca5990" y="276.299187"/>
     <use style="fill:#ff0000;stroke:#ff0000;" x="147.617851" xlink:href="#m5420ca5990" y="276.299187"/>
     <use style="fill:#ff0000;stroke:#ff0000;" x="148.671924" xlink:href="#m5420ca5990" y="276.299187"/>
     <use style="fill:#ff0000;stroke:#ff0000;" x="149.725998" xlink:href="#m5420ca5990" y="270.628015"/>
     <use style="fill:#ff0000;stroke:#ff0000;" x="150.780071" xlink:href="#m5420ca5990" y="270.628015"/>
     <use style="fill:#ff0000;stroke:#ff0000;" x="151.834144" xlink:href="#m5420ca5990" y="286.626934"/>
     <use style="fill:#ff0000;stroke:#ff0000;" x="152.888217" xlink:href="#m5420ca5990" y="286.626934"/>
     <use style="fill:#ff0000;stroke:#ff0000;" x="153.94229" xlink:href="#m5420ca5990" y="268.114191"/>
     <use style="fill:#ff0000;stroke:#ff0000;" x="154.996364" xlink:href="#m5420ca5990" y="268.114191"/>
     <use style="fill:#ff0000;stroke:#ff0000;" x="156.050437" xlink:href="#m5420ca5990" y="285.623067"/>
     <use style="fill:#ff0000;stroke:#ff0000;" x="157.10451" xlink:href="#m5420ca5990" y="285.623067"/>
     <use style="fill:#ff0000;stroke:#ff0000;" x="158.158583" xlink:href="#m5420ca5990" y="266.425855"/>
     <use style="fill:#ff0000;stroke:#ff0000;" x="159.212656" xlink:href="#m5420ca5990" y="266.425855"/>
     <use style="fill:#ff0000;stroke:#ff0000;" x="160.26673" xlink:href="#m5420ca5990" y="266.425855"/>
     <use style="fill:#ff0000;stroke:#ff0000;" x="161.320803" xlink:href="#m5420ca5990" y="266.425855"/>
     <use style="fill:#ff0000;stroke:#ff0000;" x="162.374876" xlink:href="#m5420ca5990" y="266.425855"/>
     <use style="fill:#ff0000;stroke:#ff0000;" x="163.428949" xlink:href="#m5420ca5990" y="247.632271"/>
     <use style="fill:#ff0000;stroke:#ff0000;" x="164.483022" xlink:href="#m5420ca5990" y="247.632271"/>
     <use style="fill:#ff0000;stroke:#ff0000;" x="165.537096" xlink:href="#m5420ca5990" y="263.878663"/>
     <use style="fill:#ff0000;stroke:#ff0000;" x="166.591169" xlink:href="#m5420ca5990" y="263.878663"/>
     <use style="fill:#ff0000;stroke:#ff0000;" x="167.645242" xlink:href="#m5420ca5990" y="282.186849"/>
     <use style="fill:#ff0000;stroke:#ff0000;" x="168.699315" xlink:href="#m5420ca5990" y="282.186849"/>
     <use style="fill:#ff0000;stroke:#ff0000;" x="169.753388" xlink:href="#m5420ca5990" y="282.186849"/>
     <use style="fill:#ff0000;stroke:#ff0000;" x="170.807462" xlink:href="#m5420ca5990" y="263.097276"/>
     <use style="fill:#ff0000;stroke:#ff0000;" x="171.861535" xlink:href="#m5420ca5990" y="263.097276"/>
     <use style="fill:#ff0000;stroke:#ff0000;" x="172.915608" xlink:href="#m5420ca5990" y="279.451851"/>
     <use style="fill:#ff0000;stroke:#ff0000;" x="173.969681" xlink:href="#m5420ca5990" y="279.451851"/>
     <use style="fill:#ff0000;stroke:#ff0000;" x="175.023754" xlink:href="#m5420ca5990" y="262.739596"/>
     <use style="fill:#ff0000;stroke:#ff0000;" x="176.077828" xlink:href="#m5420ca5990" y="279.682191"/>
     <use style="fill:#ff0000;stroke:#ff0000;" x="177.131901" xlink:href="#m5420ca5990" y="279.682191"/>
     <use style="fill:#ff0000;stroke:#ff0000;" x="178.185974" xlink:href="#m5420ca5990" y="260.660094"/>
     <use style="fill:#ff0000;stroke:#ff0000;" x="179.240047" xlink:href="#m5420ca5990" y="260.660094"/>
     <use style="fill:#ff0000;stroke:#ff0000;" x="180.29412" xlink:href="#m5420ca5990" y="242.537863"/>
     <use style="fill:#ff0000;stroke:#ff0000;" x="181.348194" xlink:href="#m5420ca5990" y="242.537863"/>
     <use style="fill:#ff0000;stroke:#ff0000;" x="182.402267" xlink:href="#m5420ca5990" y="223.584148"/>
     <use style="fill:#ff0000;stroke:#ff0000;" x="183.45634" xlink:href="#m5420ca5990" y="226.087919"/>
     <use style="fill:#ff0000;stroke:#ff0000;" x="184.510413" xlink:href="#m5420ca5990" y="226.087919"/>
     <use style="fill:#ff0000;stroke:#ff0000;" x="185.564486" xlink:href="#m5420ca5990" y="242.113873"/>
     <use style="fill:#ff0000;stroke:#ff0000;" x="186.61856" xlink:href="#m5420ca5990" y="242.113873"/>
     <use style="fill:#ff0000;stroke:#ff0000;" x="187.672633" xlink:href="#m5420ca5990" y="225.278184"/>
     <use style="fill:#ff0000;stroke:#ff0000;" x="188.726706" xlink:href="#m5420ca5990" y="225.278184"/>
     <use style="fill:#ff0000;stroke:#ff0000;" x="189.780779" xlink:href="#m5420ca5990" y="244.606546"/>
     <use style="fill:#ff0000;stroke:#ff0000;" x="190.834852" xlink:href="#m5420ca5990" y="244.606546"/>
     <use style="fill:#ff0000;stroke:#ff0000;" x="191.888926" xlink:href="#m5420ca5990" y="227.417154"/>
     <use style="fill:#ff0000;stroke:#ff0000;" x="192.942999" xlink:href="#m5420ca5990" y="227.417154"/>
     <use style="fill:#ff0000;stroke:#ff0000;" x="193.997072" xlink:href="#m5420ca5990" y="227.417154"/>
     <use style="fill:#ff0000;stroke:#ff0000;" x="195.051145" xlink:href="#m5420ca5990" y="227.417154"/>
     <use style="fill:#ff0000;stroke:#ff0000;" x="196.105218" xlink:href="#m5420ca5990" y="227.417154"/>
     <use style="fill:#ff0000;stroke:#ff0000;" x="197.159292" xlink:href="#m5420ca5990" y="227.417154"/>
     <use style="fill:#ff0000;stroke:#ff0000;" x="198.213365" xlink:href="#m5420ca5990" y="227.417154"/>
     <use style="fill:#ff0000;stroke:#ff0000;" x="199.267438" xlink:href="#m5420ca5990" y="227.417154"/>
     <use style="fill:#ff0000;stroke:#ff0000;" x="200.321511" xlink:href="#m5420ca5990" y="227.417154"/>
     <use style="fill:#ff0000;stroke:#ff0000;" x="201.375584" xlink:href="#m5420ca5990" y="227.417154"/>
     <use style="fill:#ff0000;stroke:#ff0000;" x="202.429658" xlink:href="#m5420ca5990" y="209.23934"/>
     <use style="fill:#ff0000;stroke:#ff0000;" x="203.483731" xlink:href="#m5420ca5990" y="209.23934"/>
     <use style="fill:#ff0000;stroke:#ff0000;" x="204.537804" xlink:href="#m5420ca5990" y="209.23934"/>
     <use style="fill:#ff0000;stroke:#ff0000;" x="205.591877" xlink:href="#m5420ca5990" y="192.887627"/>
     <use style="fill:#ff0000;stroke:#ff0000;" x="206.64595" xlink:href="#m5420ca5990" y="192.887627"/>
     <use style="fill:#ff0000;stroke:#ff0000;" x="207.700024" xlink:href="#m5420ca5990" y="186.549531"/>
     <use style="fill:#ff0000;stroke:#ff0000;" x="208.754097" xlink:href="#m5420ca5990" y="186.549531"/>
     <use style="fill:#ff0000;stroke:#ff0000;" x="209.80817" xlink:href="#m5420ca5990" y="167.353437"/>
     <use style="fill:#ff0000;stroke:#ff0000;" x="210.862243" xlink:href="#m5420ca5990" y="162.470683"/>
     <use style="fill:#ff0000;stroke:#ff0000;" x="211.916316" xlink:href="#m5420ca5990" y="162.470683"/>
     <use style="fill:#ff0000;stroke:#ff0000;" x="212.97039" xlink:href="#m5420ca5990" y="145.904226"/>
     <use style="fill:#ff0000;stroke:#ff0000;" x="214.024463" xlink:href="#m5420ca5990" y="145.904226"/>
     <use style="fill:#ff0000;stroke:#ff0000;" x="215.078536" xlink:href="#m5420ca5990" y="129.260875"/>
     <use style="fill:#ff0000;stroke:#ff0000;" x="216.132609" xlink:href="#m5420ca5990" y="129.260875"/>
     <use style="fill:#ff0000;stroke:#ff0000;" x="217.186682" xlink:href="#m5420ca5990" y="111.89637"/>
     <use style="fill:#ff0000;stroke:#ff0000;" x="218.240756" xlink:href="#m5420ca5990" y="94.644465"/>
     <use style="fill:#ff0000;stroke:#ff0000;" x="219.294829" xlink:href="#m5420ca5990" y="94.644465"/>
     <use style="fill:#ff0000;stroke:#ff0000;" x="220.348902" xlink:href="#m5420ca5990" y="90.200764"/>
     <use style="fill:#ff0000;stroke:#ff0000;" x="221.402975" xlink:href="#m5420ca5990" y="90.200764"/>
     <use style="fill:#ff0000;stroke:#ff0000;" x="222.457048" xlink:href="#m5420ca5990" y="108.501433"/>
     <use style="fill:#ff0000;stroke:#ff0000;" x="223.511122" xlink:href="#m5420ca5990" y="108.501433"/>
     <use style="fill:#ff0000;stroke:#ff0000;" x="224.565195" xlink:href="#m5420ca5990" y="107.317629"/>
     <use style="fill:#ff0000;stroke:#ff0000;" x="225.619268" xlink:href="#m5420ca5990" y="111.192705"/>
     <use style="fill:#ff0000;stroke:#ff0000;" x="226.673341" xlink:href="#m5420ca5990" y="111.192705"/>
     <use style="fill:#ff0000;stroke:#ff0000;" x="227.727414" xlink:href="#m5420ca5990" y="92.807839"/>
     <use style="fill:#ff0000;stroke:#ff0000;" x="228.781488" xlink:href="#m5420ca5990" y="92.807839"/>
     <use style="fill:#ff0000;stroke:#ff0000;" x="229.835561" xlink:href="#m5420ca5990" y="92.807839"/>
     <use style="fill:#ff0000;stroke:#ff0000;" x="230.889634" xlink:href="#m5420ca5990" y="110.057505"/>
     <use style="fill:#ff0000;stroke:#ff0000;" x="231.943707" xlink:href="#m5420ca5990" y="128.203186"/>
     <use style="fill:#ff0000;stroke:#ff0000;" x="232.99778" xlink:href="#m5420ca5990" y="128.203186"/>
     <use style="fill:#ff0000;stroke:#ff0000;" x="234.051854" xlink:href="#m5420ca5990" y="128.203186"/>
     <use style="fill:#ff0000;stroke:#ff0000;" x="235.105927" xlink:href="#m5420ca5990" y="128.203186"/>
     <use style="fill:#ff0000;stroke:#ff0000;" x="236.16" xlink:href="#m5420ca5990" y="112.558732"/>
     <use style="fill:#ff0000;stroke:#ff0000;" x="237.214073" xlink:href="#m5420ca5990" y="97.939895"/>
     <use style="fill:#ff0000;stroke:#ff0000;" x="238.268146" xlink:href="#m5420ca5990" y="97.939895"/>
     <use style="fill:#ff0000;stroke:#ff0000;" x="239.32222" xlink:href="#m5420ca5990" y="100.104463"/>
     <use style="fill:#ff0000;stroke:#ff0000;" x="240.376293" xlink:href="#m5420ca5990" y="100.104463"/>
     <use style="fill:#ff0000;stroke:#ff0000;" x="241.430366" xlink:href="#m5420ca5990" y="100.104463"/>
     <use style="fill:#ff0000;stroke:#ff0000;" x="242.484439" xlink:href="#m5420ca5990" y="118.601824"/>
     <use style="fill:#ff0000;stroke:#ff0000;" x="243.538512" xlink:href="#m5420ca5990" y="118.601824"/>
     <use style="fill:#ff0000;stroke:#ff0000;" x="244.592586" xlink:href="#m5420ca5990" y="139.148134"/>
     <use style="fill:#ff0000;stroke:#ff0000;" x="245.646659" xlink:href="#m5420ca5990" y="139.148134"/>
     <use style="fill:#ff0000;stroke:#ff0000;" x="246.700732" xlink:href="#m5420ca5990" y="120.465748"/>
     <use style="fill:#ff0000;stroke:#ff0000;" x="247.754805" xlink:href="#m5420ca5990" y="122.074213"/>
     <use style="fill:#ff0000;stroke:#ff0000;" x="248.808878" xlink:href="#m5420ca5990" y="122.074213"/>
     <use style="fill:#ff0000;stroke:#ff0000;" x="249.862952" xlink:href="#m5420ca5990" y="105.931967"/>
     <use style="fill:#ff0000;stroke:#ff0000;" x="250.917025" xlink:href="#m5420ca5990" y="105.931967"/>
     <use style="fill:#ff0000;stroke:#ff0000;" x="251.971098" xlink:href="#m5420ca5990" y="91.837478"/>
     <use style="fill:#ff0000;stroke:#ff0000;" x="253.025171" xlink:href="#m5420ca5990" y="91.837478"/>
     <use style="fill:#ff0000;stroke:#ff0000;" x="254.079244" xlink:href="#m5420ca5990" y="71.060362"/>
     <use style="fill:#ff0000;stroke:#ff0000;" x="255.133318" xlink:href="#m5420ca5990" y="71.060362"/>
     <use style="fill:#ff0000;stroke:#ff0000;" x="256.187391" xlink:href="#m5420ca5990" y="53.568"/>
     <use style="fill:#ff0000;stroke:#ff0000;" x="257.241464" xlink:href="#m5420ca5990" y="53.568"/>
     <use style="fill:#ff0000;stroke:#ff0000;" x="258.295537" xlink:href="#m5420ca5990" y="53.568"/>
     <use style="fill:#ff0000;stroke:#ff0000;" x="259.34961" xlink:href="#m5420ca5990" y="53.568"/>
     <use style="fill:#ff0000;stroke:#ff0000;" x="260.403684" xlink:href="#m5420ca5990" y="74.077042"/>
     <use style="fill:#ff0000;stroke:#ff0000;" x="261.457757" xlink:href="#m5420ca5990" y="73.079945"/>
     <use style="fill:#ff0000;stroke:#ff0000;" x="262.51183" xlink:href="#m5420ca5990" y="73.079945"/>
     <use style="fill:#ff0000;stroke:#ff0000;" x="263.565903" xlink:href="#m5420ca5990" y="73.277146"/>
     <use style="fill:#ff0000;stroke:#ff0000;" x="264.619976" xlink:href="#m5420ca5990" y="73.277146"/>
     <use style="fill:#ff0000;stroke:#ff0000;" x="265.67405" xlink:href="#m5420ca5990" y="74.715929"/>
     <use style="fill:#ff0000;stroke:#ff0000;" x="266.728123" xlink:href="#m5420ca5990" y="58.950957"/>
     <use style="fill:#ff0000;stroke:#ff0000;" x="267.782196" xlink:href="#m5420ca5990" y="58.950957"/>
     <use style="fill:#ff0000;stroke:#ff0000;" x="268.836269" xlink:href="#m5420ca5990" y="61.27459"/>
     <use style="fill:#ff0000;stroke:#ff0000;" x="269.890342" xlink:href="#m5420ca5990" y="61.27459"/>
     <use style="fill:#ff0000;stroke:#ff0000;" x="270.944416" xlink:href="#m5420ca5990" y="61.27459"/>
     <use style="fill:#ff0000;stroke:#ff0000;" x="271.998489" xlink:href="#m5420ca5990" y="61.27459"/>
     <use style="fill:#ff0000;stroke:#ff0000;" x="273.052562" xlink:href="#m5420ca5990" y="61.27459"/>
     <use style="fill:#ff0000;stroke:#ff0000;" x="274.106635" xlink:href="#m5420ca5990" y="61.27459"/>
     <use style="fill:#ff0000;stroke:#ff0000;" x="275.160708" xlink:href="#m5420ca5990" y="61.27459"/>
     <use style="fill:#ff0000;stroke:#ff0000;" x="276.214782" xlink:href="#m5420ca5990" y="61.27459"/>
     <use style="fill:#ff0000;stroke:#ff0000;" x="277.268855" xlink:href="#m5420ca5990" y="61.27459"/>
     <use style="fill:#ff0000;stroke:#ff0000;" x="278.322928" xlink:href="#m5420ca5990" y="61.27459"/>
     <use style="fill:#ff0000;stroke:#ff0000;" x="279.377001" xlink:href="#m5420ca5990" y="61.27459"/>
     <use style="fill:#ff0000;stroke:#ff0000;" x="280.431074" xlink:href="#m5420ca5990" y="61.27459"/>
     <use style="fill:#ff0000;stroke:#ff0000;" x="281.485148" xlink:href="#m5420ca5990" y="61.27459"/>
     <use style="fill:#ff0000;stroke:#ff0000;" x="282.539221" xlink:href="#m5420ca5990" y="61.27459"/>
     <use style="fill:#ff0000;stroke:#ff0000;" x="283.593294" xlink:href="#m5420ca5990" y="61.27459"/>
     <use style="fill:#ff0000;stroke:#ff0000;" x="284.647367" xlink:href="#m5420ca5990" y="61.27459"/>
     <use style="fill:#ff0000;stroke:#ff0000;" x="285.70144" xlink:href="#m5420ca5990" y="61.27459"/>
     <use style="fill:#ff0000;stroke:#ff0000;" x="286.755514" xlink:href="#m5420ca5990" y="61.27459"/>
     <use style="fill:#ff0000;stroke:#ff0000;" x="287.809587" xlink:href="#m5420ca5990" y="61.27459"/>
     <use style="fill:#ff0000;stroke:#ff0000;" x="288.86366" xlink:href="#m5420ca5990" y="61.27459"/>
     <use style="fill:#ff0000;stroke:#ff0000;" x="289.917733" xlink:href="#m5420ca5990" y="61.27459"/>
     <use style="fill:#ff0000;stroke:#ff0000;" x="290.971806" xlink:href="#m5420ca5990" y="61.27459"/>
     <use style="fill:#ff0000;stroke:#ff0000;" x="292.02588" xlink:href="#m5420ca5990" y="61.27459"/>
     <use style="fill:#ff0000;stroke:#ff0000;" x="293.079953" xlink:href="#m5420ca5990" y="61.27459"/>
     <use style="fill:#ff0000;stroke:#ff0000;" x="294.134026" xlink:href="#m5420ca5990" y="61.27459"/>
     <use style="fill:#ff0000;stroke:#ff0000;" x="295.188099" xlink:href="#m5420ca5990" y="61.27459"/>
     <use style="fill:#ff0000;stroke:#ff0000;" x="296.242172" xlink:href="#m5420ca5990" y="61.27459"/>
     <use style="fill:#ff0000;stroke:#ff0000;" x="297.296246" xlink:href="#m5420ca5990" y="61.27459"/>
     <use style="fill:#ff0000;stroke:#ff0000;" x="298.350319" xlink:href="#m5420ca5990" y="61.27459"/>
     <use style="fill:#ff0000;stroke:#ff0000;" x="299.404392" xlink:href="#m5420ca5990" y="61.27459"/>
     <use style="fill:#ff0000;stroke:#ff0000;" x="300.458465" xlink:href="#m5420ca5990" y="61.27459"/>
     <use style="fill:#ff0000;stroke:#ff0000;" x="301.512538" xlink:href="#m5420ca5990" y="61.27459"/>
     <use style="fill:#ff0000;stroke:#ff0000;" x="302.566612" xlink:href="#m5420ca5990" y="61.27459"/>
     <use style="fill:#ff0000;stroke:#ff0000;" x="303.620685" xlink:href="#m5420ca5990" y="61.27459"/>
     <use style="fill:#ff0000;stroke:#ff0000;" x="304.674758" xlink:href="#m5420ca5990" y="61.27459"/>
     <use style="fill:#ff0000;stroke:#ff0000;" x="305.728831" xlink:href="#m5420ca5990" y="61.27459"/>
     <use style="fill:#ff0000;stroke:#ff0000;" x="306.782904" xlink:href="#m5420ca5990" y="61.27459"/>
     <use style="fill:#ff0000;stroke:#ff0000;" x="307.836978" xlink:href="#m5420ca5990" y="61.27459"/>
     <use style="fill:#ff0000;stroke:#ff0000;" x="308.891051" xlink:href="#m5420ca5990" y="61.27459"/>
     <use style="fill:#ff0000;stroke:#ff0000;" x="309.945124" xlink:href="#m5420ca5990" y="61.27459"/>
     <use style="fill:#ff0000;stroke:#ff0000;" x="310.999197" xlink:href="#m5420ca5990" y="61.27459"/>
     <use style="fill:#ff0000;stroke:#ff0000;" x="312.05327" xlink:href="#m5420ca5990" y="61.27459"/>
     <use style="fill:#ff0000;stroke:#ff0000;" x="313.107344" xlink:href="#m5420ca5990" y="61.27459"/>
     <use style="fill:#ff0000;stroke:#ff0000;" x="314.161417" xlink:href="#m5420ca5990" y="61.27459"/>
     <use style="fill:#ff0000;stroke:#ff0000;" x="315.21549" xlink:href="#m5420ca5990" y="61.27459"/>
     <use style="fill:#ff0000;stroke:#ff0000;" x="316.269563" xlink:href="#m5420ca5990" y="61.27459"/>
     <use style="fill:#ff0000;stroke:#ff0000;" x="317.323636" xlink:href="#m5420ca5990" y="61.27459"/>
     <use style="fill:#ff0000;stroke:#ff0000;" x="318.37771" xlink:href="#m5420ca5990" y="61.27459"/>
     <use style="fill:#ff0000;stroke:#ff0000;" x="319.431783" xlink:href="#m5420ca5990" y="61.27459"/>
     <use style="fill:#ff0000;stroke:#ff0000;" x="320.485856" xlink:href="#m5420ca5990" y="61.27459"/>
     <use style="fill:#ff0000;stroke:#ff0000;" x="321.539929" xlink:href="#m5420ca5990" y="61.27459"/>
     <use style="fill:#ff0000;stroke:#ff0000;" x="322.594002" xlink:href="#m5420ca5990" y="61.27459"/>
     <use style="fill:#ff0000;stroke:#ff0000;" x="323.648076" xlink:href="#m5420ca5990" y="61.27459"/>
     <use style="fill:#ff0000;stroke:#ff0000;" x="324.702149" xlink:href="#m5420ca5990" y="61.27459"/>
     <use style="fill:#ff0000;stroke:#ff0000;" x="325.756222" xlink:href="#m5420ca5990" y="61.27459"/>
     <use style="fill:#ff0000;stroke:#ff0000;" x="326.810295" xlink:href="#m5420ca5990" y="61.27459"/>
     <use style="fill:#ff0000;stroke:#ff0000;" x="327.864368" xlink:href="#m5420ca5990" y="61.27459"/>
     <use style="fill:#ff0000;stroke:#ff0000;" x="328.918442" xlink:href="#m5420ca5990" y="61.27459"/>
     <use style="fill:#ff0000;stroke:#ff0000;" x="329.972515" xlink:href="#m5420ca5990" y="61.27459"/>
     <use style="fill:#ff0000;stroke:#ff0000;" x="331.026588" xlink:href="#m5420ca5990" y="61.27459"/>
     <use style="fill:#ff0000;stroke:#ff0000;" x="332.080661" xlink:href="#m5420ca5990" y="61.27459"/>
     <use style="fill:#ff0000;stroke:#ff0000;" x="333.134734" xlink:href="#m5420ca5990" y="61.27459"/>
     <use style="fill:#ff0000;stroke:#ff0000;" x="334.188808" xlink:href="#m5420ca5990" y="61.27459"/>
     <use style="fill:#ff0000;stroke:#ff0000;" x="335.242881" xlink:href="#m5420ca5990" y="61.27459"/>
     <use style="fill:#ff0000;stroke:#ff0000;" x="336.296954" xlink:href="#m5420ca5990" y="61.27459"/>
     <use style="fill:#ff0000;stroke:#ff0000;" x="337.351027" xlink:href="#m5420ca5990" y="61.27459"/>
     <use style="fill:#ff0000;stroke:#ff0000;" x="338.4051" xlink:href="#m5420ca5990" y="61.27459"/>
     <use style="fill:#ff0000;stroke:#ff0000;" x="339.459174" xlink:href="#m5420ca5990" y="61.27459"/>
     <use style="fill:#ff0000;stroke:#ff0000;" x="340.513247" xlink:href="#m5420ca5990" y="61.27459"/>
     <use style="fill:#ff0000;stroke:#ff0000;" x="341.56732" xlink:href="#m5420ca5990" y="61.27459"/>
     <use style="fill:#ff0000;stroke:#ff0000;" x="342.621393" xlink:href="#m5420ca5990" y="61.27459"/>
     <use style="fill:#ff0000;stroke:#ff0000;" x="343.675466" xlink:href="#m5420ca5990" y="61.27459"/>
     <use style="fill:#ff0000;stroke:#ff0000;" x="344.72954" xlink:href="#m5420ca5990" y="61.27459"/>
     <use style="fill:#ff0000;stroke:#ff0000;" x="345.783613" xlink:href="#m5420ca5990" y="61.27459"/>
     <use style="fill:#ff0000;stroke:#ff0000;" x="346.837686" xlink:href="#m5420ca5990" y="61.27459"/>
     <use style="fill:#ff0000;stroke:#ff0000;" x="347.891759" xlink:href="#m5420ca5990" y="61.27459"/>
     <use style="fill:#ff0000;stroke:#ff0000;" x="348.945832" xlink:href="#m5420ca5990" y="61.27459"/>
     <use style="fill:#ff0000;stroke:#ff0000;" x="349.999906" xlink:href="#m5420ca5990" y="61.27459"/>
     <use style="fill:#ff0000;stroke:#ff0000;" x="351.053979" xlink:href="#m5420ca5990" y="61.27459"/>
     <use style="fill:#ff0000;stroke:#ff0000;" x="352.108052" xlink:href="#m5420ca5990" y="61.27459"/>
     <use style="fill:#ff0000;stroke:#ff0000;" x="353.162125" xlink:href="#m5420ca5990" y="61.27459"/>
     <use style="fill:#ff0000;stroke:#ff0000;" x="354.216198" xlink:href="#m5420ca5990" y="61.27459"/>
     <use style="fill:#ff0000;stroke:#ff0000;" x="355.270272" xlink:href="#m5420ca5990" y="61.27459"/>
     <use style="fill:#ff0000;stroke:#ff0000;" x="356.324345" xlink:href="#m5420ca5990" y="61.27459"/>
     <use style="fill:#ff0000;stroke:#ff0000;" x="357.378418" xlink:href="#m5420ca5990" y="61.27459"/>
     <use style="fill:#ff0000;stroke:#ff0000;" x="358.432491" xlink:href="#m5420ca5990" y="61.27459"/>
     <use style="fill:#ff0000;stroke:#ff0000;" x="359.486564" xlink:href="#m5420ca5990" y="61.27459"/>
     <use style="fill:#ff0000;stroke:#ff0000;" x="360.540638" xlink:href="#m5420ca5990" y="61.27459"/>
     <use style="fill:#ff0000;stroke:#ff0000;" x="361.594711" xlink:href="#m5420ca5990" y="61.27459"/>
     <use style="fill:#ff0000;stroke:#ff0000;" x="362.648784" xlink:href="#m5420ca5990" y="61.27459"/>
     <use style="fill:#ff0000;stroke:#ff0000;" x="363.702857" xlink:href="#m5420ca5990" y="61.27459"/>
     <use style="fill:#ff0000;stroke:#ff0000;" x="364.75693" xlink:href="#m5420ca5990" y="61.27459"/>
     <use style="fill:#ff0000;stroke:#ff0000;" x="365.811004" xlink:href="#m5420ca5990" y="61.27459"/>
     <use style="fill:#ff0000;stroke:#ff0000;" x="366.865077" xlink:href="#m5420ca5990" y="61.27459"/>
     <use style="fill:#ff0000;stroke:#ff0000;" x="367.91915" xlink:href="#m5420ca5990" y="61.27459"/>
     <use style="fill:#ff0000;stroke:#ff0000;" x="368.973223" xlink:href="#m5420ca5990" y="61.27459"/>
     <use style="fill:#ff0000;stroke:#ff0000;" x="370.027296" xlink:href="#m5420ca5990" y="61.27459"/>
     <use style="fill:#ff0000;stroke:#ff0000;" x="371.08137" xlink:href="#m5420ca5990" y="61.27459"/>
     <use style="fill:#ff0000;stroke:#ff0000;" x="372.135443" xlink:href="#m5420ca5990" y="61.27459"/>
     <use style="fill:#ff0000;stroke:#ff0000;" x="373.189516" xlink:href="#m5420ca5990" y="61.27459"/>
     <use style="fill:#ff0000;stroke:#ff0000;" x="374.243589" xlink:href="#m5420ca5990" y="61.27459"/>
     <use style="fill:#ff0000;stroke:#ff0000;" x="375.297662" xlink:href="#m5420ca5990" y="61.27459"/>
     <use style="fill:#ff0000;stroke:#ff0000;" x="376.351736" xlink:href="#m5420ca5990" y="61.27459"/>
     <use style="fill:#ff0000;stroke:#ff0000;" x="377.405809" xlink:href="#m5420ca5990" y="61.27459"/>
     <use style="fill:#ff0000;stroke:#ff0000;" x="378.459882" xlink:href="#m5420ca5990" y="61.27459"/>
     <use style="fill:#ff0000;stroke:#ff0000;" x="379.513955" xlink:href="#m5420ca5990" y="61.27459"/>
     <use style="fill:#ff0000;stroke:#ff0000;" x="380.568028" xlink:href="#m5420ca5990" y="61.27459"/>
     <use style="fill:#ff0000;stroke:#ff0000;" x="381.622102" xlink:href="#m5420ca5990" y="61.27459"/>
     <use style="fill:#ff0000;stroke:#ff0000;" x="382.676175" xlink:href="#m5420ca5990" y="61.27459"/>
     <use style="fill:#ff0000;stroke:#ff0000;" x="383.730248" xlink:href="#m5420ca5990" y="61.27459"/>
     <use style="fill:#ff0000;stroke:#ff0000;" x="384.784321" xlink:href="#m5420ca5990" y="61.27459"/>
     <use style="fill:#ff0000;stroke:#ff0000;" x="385.838394" xlink:href="#m5420ca5990" y="61.27459"/>
     <use style="fill:#ff0000;stroke:#ff0000;" x="386.892468" xlink:href="#m5420ca5990" y="61.27459"/>
     <use style="fill:#ff0000;stroke:#ff0000;" x="387.946541" xlink:href="#m5420ca5990" y="61.27459"/>
     <use style="fill:#ff0000;stroke:#ff0000;" x="389.000614" xlink:href="#m5420ca5990" y="61.27459"/>
     <use style="fill:#ff0000;stroke:#ff0000;" x="390.054687" xlink:href="#m5420ca5990" y="61.27459"/>
     <use style="fill:#ff0000;stroke:#ff0000;" x="391.10876" xlink:href="#m5420ca5990" y="61.27459"/>
     <use style="fill:#ff0000;stroke:#ff0000;" x="392.162834" xlink:href="#m5420ca5990" y="61.27459"/>
     <use style="fill:#ff0000;stroke:#ff0000;" x="393.216907" xlink:href="#m5420ca5990" y="61.27459"/>
     <use style="fill:#ff0000;stroke:#ff0000;" x="394.27098" xlink:href="#m5420ca5990" y="61.27459"/>
     <use style="fill:#ff0000;stroke:#ff0000;" x="395.325053" xlink:href="#m5420ca5990" y="61.27459"/>
     <use style="fill:#ff0000;stroke:#ff0000;" x="396.379126" xlink:href="#m5420ca5990" y="61.27459"/>
     <use style="fill:#ff0000;stroke:#ff0000;" x="397.4332" xlink:href="#m5420ca5990" y="61.27459"/>
     <use style="fill:#ff0000;stroke:#ff0000;" x="398.487273" xlink:href="#m5420ca5990" y="61.27459"/>
    </g>
   </g>
   <g id="patch_3">
    <path d="M 57.6 307.584 
L 57.6 41.472 
" style="fill:none;stroke:#000000;stroke-linecap:square;stroke-linejoin:miter;stroke-width:0.8;"/>
   </g>
   <g id="patch_4">
    <path d="M 414.72 307.584 
L 414.72 41.472 
" style="fill:none;stroke:#000000;stroke-linecap:square;stroke-linejoin:miter;stroke-width:0.8;"/>
   </g>
   <g id="patch_5">
    <path d="M 57.6 307.584 
L 414.72 307.584 
" style="fill:none;stroke:#000000;stroke-linecap:square;stroke-linejoin:miter;stroke-width:0.8;"/>
   </g>
   <g id="patch_6">
    <path d="M 57.6 41.472 
L 414.72 41.472 
" style="fill:none;stroke:#000000;stroke-linecap:square;stroke-linejoin:miter;stroke-width:0.8;"/>
   </g>
  </g>
 </g>
 <defs>
  <clipPath id="p84ffd36460">
   <rect height="266.112" width="357.12" x="57.6" y="41.472"/>
  </clipPath>
 </defs>
</svg>
