<?xml version="1.0" encoding="utf-8" standalone="no"?>
<!DOCTYPE svg PUBLIC "-//W3C//DTD SVG 1.1//EN"
  "http://www.w3.org/Graphics/SVG/1.1/DTD/svg11.dtd">
<!-- Created with matplotlib (https://matplotlib.org/) -->
<svg height="345.6pt" version="1.1" viewBox="0 0 460.8 345.6" width="460.8pt" xmlns="http://www.w3.org/2000/svg" xmlns:xlink="http://www.w3.org/1999/xlink">
 <defs>
  <style type="text/css">
*{stroke-linecap:butt;stroke-linejoin:round;}
  </style>
 </defs>
 <g id="figure_1">
  <g id="patch_1">
   <path d="M 0 345.6 
L 460.8 345.6 
L 460.8 0 
L 0 0 
z
" style="fill:#ffffff;"/>
  </g>
  <g id="axes_1">
   <g id="patch_2">
    <path d="M 57.6 307.584 
L 414.72 307.584 
L 414.72 41.472 
L 57.6 41.472 
z
" style="fill:#ffffff;"/>
   </g>
   <g id="line2d_1">
    <path clip-path="url(#p856dc9e165)" d="M 73.832727 53.568 
L 81.949091 160.246342 
L 90.065455 160.246342 
L 98.181818 178.819224 
L 106.298182 178.819224 
L 114.414545 178.819224 
L 122.530909 178.819224 
L 130.647273 178.819224 
L 138.763636 66.942678 
L 146.88 66.942678 
L 154.996364 88.165137 
L 163.112727 192.283927 
L 171.229091 192.283927 
L 179.345455 192.283927 
L 187.461818 294.280017 
L 195.578182 294.280017 
L 203.694545 294.280017 
L 211.810909 177.162518 
L 219.927273 177.162518 
L 228.043636 189.53934 
L 236.16 189.53934 
L 244.276364 189.53934 
L 252.392727 295.488 
L 260.509091 295.488 
L 268.625455 181.134549 
L 276.741818 181.134549 
L 284.858182 181.134549 
L 292.974545 181.134549 
L 301.090909 181.134549 
L 309.207273 145.994771 
L 317.323636 145.994771 
L 325.44 179.100088 
L 333.556364 179.100088 
L 341.672727 179.100088 
L 349.789091 142.929214 
L 357.905455 142.929214 
L 366.021818 142.929214 
L 374.138182 106.006868 
L 382.254545 106.006868 
L 390.370909 138.972798 
L 398.487273 138.972798 
" style="fill:none;stroke:#ff0000;stroke-linecap:square;stroke-width:12;"/>
    <defs>
     <path d="M 0 3 
C 0.795609 3 1.55874 2.683901 2.12132 2.12132 
C 2.683901 1.55874 3 0.795609 3 0 
C 3 -0.795609 2.683901 -1.55874 2.12132 -2.12132 
C 1.55874 -2.683901 0.795609 -3 0 -3 
C -0.795609 -3 -1.55874 -2.683901 -2.12132 -2.12132 
C -2.683901 -1.55874 -3 -0.795609 -3 0 
C -3 0.795609 -2.683901 1.55874 -2.12132 2.12132 
C -1.55874 2.683901 -0.795609 3 0 3 
z
" id="m921776d5f5" style="stroke:#ff0000;"/>
    </defs>
    <g clip-path="url(#p856dc9e165)">
     <use style="fill:#ff0000;stroke:#ff0000;" x="73.832727" xlink:href="#m921776d5f5" y="53.568"/>
     <use style="fill:#ff0000;stroke:#ff0000;" x="81.949091" xlink:href="#m921776d5f5" y="160.246342"/>
     <use style="fill:#ff0000;stroke:#ff0000;" x="90.065455" xlink:href="#m921776d5f5" y="160.246342"/>
     <use style="fill:#ff0000;stroke:#ff0000;" x="98.181818" xlink:href="#m921776d5f5" y="178.819224"/>
     <use style="fill:#ff0000;stroke:#ff0000;" x="106.298182" xlink:href="#m921776d5f5" y="178.819224"/>
     <use style="fill:#ff0000;stroke:#ff0000;" x="114.414545" xlink:href="#m921776d5f5" y="178.819224"/>
     <use style="fill:#ff0000;stroke:#ff0000;" x="122.530909" xlink:href="#m921776d5f5" y="178.819224"/>
     <use style="fill:#ff0000;stroke:#ff0000;" x="130.647273" xlink:href="#m921776d5f5" y="178.819224"/>
     <use style="fill:#ff0000;stroke:#ff0000;" x="138.763636" xlink:href="#m921776d5f5" y="66.942678"/>
     <use style="fill:#ff0000;stroke:#ff0000;" x="146.88" xlink:href="#m921776d5f5" y="66.942678"/>
     <use style="fill:#ff0000;stroke:#ff0000;" x="154.996364" xlink:href="#m921776d5f5" y="88.165137"/>
     <use style="fill:#ff0000;stroke:#ff0000;" x="163.112727" xlink:href="#m921776d5f5" y="192.283927"/>
     <use style="fill:#ff0000;stroke:#ff0000;" x="171.229091" xlink:href="#m921776d5f5" y="192.283927"/>
     <use style="fill:#ff0000;stroke:#ff0000;" x="179.345455" xlink:href="#m921776d5f5" y="192.283927"/>
     <use style="fill:#ff0000;stroke:#ff0000;" x="187.461818" xlink:href="#m921776d5f5" y="294.280017"/>
     <use style="fill:#ff0000;stroke:#ff0000;" x="195.578182" xlink:href="#m921776d5f5" y="294.280017"/>
     <use style="fill:#ff0000;stroke:#ff0000;" x="203.694545" xlink:href="#m921776d5f5" y="294.280017"/>
     <use style="fill:#ff0000;stroke:#ff0000;" x="211.810909" xlink:href="#m921776d5f5" y="177.162518"/>
     <use style="fill:#ff0000;stroke:#ff0000;" x="219.927273" xlink:href="#m921776d5f5" y="177.162518"/>
     <use style="fill:#ff0000;stroke:#ff0000;" x="228.043636" xlink:href="#m921776d5f5" y="189.53934"/>
     <use style="fill:#ff0000;stroke:#ff0000;" x="236.16" xlink:href="#m921776d5f5" y="189.53934"/>
     <use style="fill:#ff0000;stroke:#ff0000;" x="244.276364" xlink:href="#m921776d5f5" y="189.53934"/>
     <use style="fill:#ff0000;stroke:#ff0000;" x="252.392727" xlink:href="#m921776d5f5" y="295.488"/>
     <use style="fill:#ff0000;stroke:#ff0000;" x="260.509091" xlink:href="#m921776d5f5" y="295.488"/>
     <use style="fill:#ff0000;stroke:#ff0000;" x="268.625455" xlink:href="#m921776d5f5" y="181.134549"/>
     <use style="fill:#ff0000;stroke:#ff0000;" x="276.741818" xlink:href="#m921776d5f5" y="181.134549"/>
     <use style="fill:#ff0000;stroke:#ff0000;" x="284.858182" xlink:href="#m921776d5f5" y="181.134549"/>
     <use style="fill:#ff0000;stroke:#ff0000;" x="292.974545" xlink:href="#m921776d5f5" y="181.134549"/>
     <use style="fill:#ff0000;stroke:#ff0000;" x="301.090909" xlink:href="#m921776d5f5" y="181.134549"/>
     <use style="fill:#ff0000;stroke:#ff0000;" x="309.207273" xlink:href="#m921776d5f5" y="145.994771"/>
     <use style="fill:#ff0000;stroke:#ff0000;" x="317.323636" xlink:href="#m921776d5f5" y="145.994771"/>
     <use style="fill:#ff0000;stroke:#ff0000;" x="325.44" xlink:href="#m921776d5f5" y="179.100088"/>
     <use style="fill:#ff0000;stroke:#ff0000;" x="333.556364" xlink:href="#m921776d5f5" y="179.100088"/>
     <use style="fill:#ff0000;stroke:#ff0000;" x="341.672727" xlink:href="#m921776d5f5" y="179.100088"/>
     <use style="fill:#ff0000;stroke:#ff0000;" x="349.789091" xlink:href="#m921776d5f5" y="142.929214"/>
     <use style="fill:#ff0000;stroke:#ff0000;" x="357.905455" xlink:href="#m921776d5f5" y="142.929214"/>
     <use style="fill:#ff0000;stroke:#ff0000;" x="366.021818" xlink:href="#m921776d5f5" y="142.929214"/>
     <use style="fill:#ff0000;stroke:#ff0000;" x="374.138182" xlink:href="#m921776d5f5" y="106.006868"/>
     <use style="fill:#ff0000;stroke:#ff0000;" x="382.254545" xlink:href="#m921776d5f5" y="106.006868"/>
     <use style="fill:#ff0000;stroke:#ff0000;" x="390.370909" xlink:href="#m921776d5f5" y="138.972798"/>
     <use style="fill:#ff0000;stroke:#ff0000;" x="398.487273" xlink:href="#m921776d5f5" y="138.972798"/>
    </g>
   </g>
   <g id="patch_3">
    <path d="M 57.6 307.584 
L 57.6 41.472 
" style="fill:none;stroke:#000000;stroke-linecap:square;stroke-linejoin:miter;stroke-width:0.8;"/>
   </g>
   <g id="patch_4">
    <path d="M 414.72 307.584 
L 414.72 41.472 
" style="fill:none;stroke:#000000;stroke-linecap:square;stroke-linejoin:miter;stroke-width:0.8;"/>
   </g>
   <g id="patch_5">
    <path d="M 57.6 307.584 
L 414.72 307.584 
" style="fill:none;stroke:#000000;stroke-linecap:square;stroke-linejoin:miter;stroke-width:0.8;"/>
   </g>
   <g id="patch_6">
    <path d="M 57.6 41.472 
L 414.72 41.472 
" style="fill:none;stroke:#000000;stroke-linecap:square;stroke-linejoin:miter;stroke-width:0.8;"/>
   </g>
  </g>
 </g>
 <defs>
  <clipPath id="p856dc9e165">
   <rect height="266.112" width="357.12" x="57.6" y="41.472"/>
  </clipPath>
 </defs>
</svg>
