<?xml version="1.0" encoding="utf-8" standalone="no"?>
<!DOCTYPE svg PUBLIC "-//W3C//DTD SVG 1.1//EN"
  "http://www.w3.org/Graphics/SVG/1.1/DTD/svg11.dtd">
<!-- Created with matplotlib (https://matplotlib.org/) -->
<svg height="345.6pt" version="1.1" viewBox="0 0 460.8 345.6" width="460.8pt" xmlns="http://www.w3.org/2000/svg" xmlns:xlink="http://www.w3.org/1999/xlink">
 <defs>
  <style type="text/css">
*{stroke-linecap:butt;stroke-linejoin:round;}
  </style>
 </defs>
 <g id="figure_1">
  <g id="patch_1">
   <path d="M 0 345.6 
L 460.8 345.6 
L 460.8 0 
L 0 0 
z
" style="fill:#ffffff;"/>
  </g>
  <g id="axes_1">
   <g id="patch_2">
    <path d="M 57.6 307.584 
L 414.72 307.584 
L 414.72 41.472 
L 57.6 41.472 
z
" style="fill:#ffffff;"/>
   </g>
   <g id="line2d_1">
    <path clip-path="url(#p866003e26c)" d="M 73.832727 162.597145 
L 76.349429 162.597145 
L 77.60778 134.690323 
L 82.641184 134.690323 
L 83.899535 106.350418 
L 86.416237 106.350418 
L 87.674588 80.250188 
L 88.932939 80.250188 
L 90.19129 53.568 
L 91.449641 53.568 
L 92.707992 82.873454 
L 93.966342 82.873454 
L 95.224693 113.751243 
L 100.258097 113.751243 
L 101.516448 117.655277 
L 102.774799 117.655277 
L 104.03315 92.514989 
L 106.549852 92.514989 
L 107.808203 119.827833 
L 109.066554 119.827833 
L 110.324905 151.977502 
L 111.583256 151.977502 
L 112.841607 161.262974 
L 114.099958 161.262974 
L 115.358309 151.629175 
L 116.61666 161.286067 
L 119.133362 161.286067 
L 120.391712 170.09693 
L 121.650063 170.09693 
L 122.908414 178.939845 
L 124.166765 178.939845 
L 125.425116 169.252644 
L 126.683467 169.252644 
L 127.941818 160.317586 
L 129.200169 160.317586 
L 130.45852 163.246295 
L 131.716871 172.6804 
L 134.233573 172.6804 
L 135.491924 162.872428 
L 136.750275 162.872428 
L 138.008626 164.717551 
L 139.266977 164.717551 
L 140.525328 173.137008 
L 141.783679 175.701637 
L 145.558732 175.701637 
L 146.817082 184.728439 
L 148.075433 185.921779 
L 149.333784 185.921779 
L 150.592135 194.140902 
L 153.108837 194.140902 
L 154.367188 185.748199 
L 158.142241 185.699163 
L 159.400592 194.616143 
L 163.175645 194.616143 
L 164.433996 192.556383 
L 165.692347 191.343052 
L 168.209049 191.343052 
L 169.4674 199.751734 
L 170.725751 199.751734 
L 171.984101 208.600851 
L 173.242452 199.325177 
L 174.500803 199.325177 
L 175.759154 208.052646 
L 179.534207 208.052646 
L 180.792558 197.908863 
L 182.050909 197.908863 
L 183.30926 188.559654 
L 184.567611 188.559654 
L 185.825962 179.306981 
L 187.084313 179.306981 
L 188.342664 188.516846 
L 189.601015 188.516846 
L 190.859366 188.88403 
L 192.117717 188.88403 
L 193.376068 197.747775 
L 194.634419 197.747775 
L 195.89277 206.635861 
L 197.151121 206.635861 
L 198.409471 214.854832 
L 199.667822 214.854832 
L 200.926173 206.061785 
L 202.184524 206.061785 
L 203.442875 196.954359 
L 204.701226 205.667864 
L 205.959577 205.667864 
L 207.217928 214.299528 
L 208.476279 214.299528 
L 209.73463 223.689057 
L 219.801438 223.689057 
L 221.059789 213.447499 
L 223.57649 213.447499 
L 224.834841 223.177677 
L 226.093192 223.177677 
L 227.351543 220.377257 
L 229.868245 220.377257 
L 231.126596 230.362941 
L 232.384947 230.362941 
L 233.643298 229.34141 
L 234.901649 229.34141 
L 236.16 237.984901 
L 237.418351 227.882946 
L 238.676702 227.882946 
L 239.935053 236.664439 
L 241.193404 236.664439 
L 242.451755 245.823389 
L 243.710106 243.259969 
L 244.968457 243.259969 
L 246.226808 233.483015 
L 247.485159 233.483015 
L 248.74351 241.819791 
L 250.00186 241.819791 
L 251.260211 232.911549 
L 252.518562 232.911549 
L 253.776913 242.49942 
L 255.035264 242.49942 
L 256.293615 232.158533 
L 257.551966 232.158533 
L 258.810317 239.930634 
L 260.068668 239.930634 
L 261.327019 249.041077 
L 262.58537 256.71693 
L 265.102072 256.71693 
L 266.360423 255.901124 
L 268.877125 255.901124 
L 270.135476 264.100168 
L 271.393827 273.513504 
L 273.910529 273.513504 
L 275.168879 281.163616 
L 276.42723 271.434362 
L 280.202283 271.368584 
L 281.460634 279.908006 
L 282.718985 279.908006 
L 283.977336 287.87339 
L 285.235687 287.87339 
L 286.494038 295.257703 
L 287.752389 295.257703 
L 289.01074 294.52543 
L 290.269091 294.52543 
L 291.527442 285.02704 
L 295.302495 285.02704 
L 296.560846 294.959462 
L 297.819197 295.488 
L 299.077548 295.488 
L 300.335899 286.197254 
L 302.8526 286.197254 
L 304.110951 294.080409 
L 305.369302 294.080409 
L 306.627653 291.832536 
L 398.487273 291.832536 
L 398.487273 291.832536 
" style="fill:none;stroke:#ff0000;stroke-linecap:square;stroke-width:12;"/>
    <defs>
     <path d="M 0 3 
C 0.795609 3 1.55874 2.683901 2.12132 2.12132 
C 2.683901 1.55874 3 0.795609 3 0 
C 3 -0.795609 2.683901 -1.55874 2.12132 -2.12132 
C 1.55874 -2.683901 0.795609 -3 0 -3 
C -0.795609 -3 -1.55874 -2.683901 -2.12132 -2.12132 
C -2.683901 -1.55874 -3 -0.795609 -3 0 
C -3 0.795609 -2.683901 1.55874 -2.12132 2.12132 
C -1.55874 2.683901 -0.795609 3 0 3 
z
" id="m9f4a9a15ce" style="stroke:#ff0000;"/>
    </defs>
    <g clip-path="url(#p866003e26c)">
     <use style="fill:#ff0000;stroke:#ff0000;" x="73.832727" xlink:href="#m9f4a9a15ce" y="162.597145"/>
     <use style="fill:#ff0000;stroke:#ff0000;" x="75.091078" xlink:href="#m9f4a9a15ce" y="162.597145"/>
     <use style="fill:#ff0000;stroke:#ff0000;" x="76.349429" xlink:href="#m9f4a9a15ce" y="162.597145"/>
     <use style="fill:#ff0000;stroke:#ff0000;" x="77.60778" xlink:href="#m9f4a9a15ce" y="134.690323"/>
     <use style="fill:#ff0000;stroke:#ff0000;" x="78.866131" xlink:href="#m9f4a9a15ce" y="134.690323"/>
     <use style="fill:#ff0000;stroke:#ff0000;" x="80.124482" xlink:href="#m9f4a9a15ce" y="134.690323"/>
     <use style="fill:#ff0000;stroke:#ff0000;" x="81.382833" xlink:href="#m9f4a9a15ce" y="134.690323"/>
     <use style="fill:#ff0000;stroke:#ff0000;" x="82.641184" xlink:href="#m9f4a9a15ce" y="134.690323"/>
     <use style="fill:#ff0000;stroke:#ff0000;" x="83.899535" xlink:href="#m9f4a9a15ce" y="106.350418"/>
     <use style="fill:#ff0000;stroke:#ff0000;" x="85.157886" xlink:href="#m9f4a9a15ce" y="106.350418"/>
     <use style="fill:#ff0000;stroke:#ff0000;" x="86.416237" xlink:href="#m9f4a9a15ce" y="106.350418"/>
     <use style="fill:#ff0000;stroke:#ff0000;" x="87.674588" xlink:href="#m9f4a9a15ce" y="80.250188"/>
     <use style="fill:#ff0000;stroke:#ff0000;" x="88.932939" xlink:href="#m9f4a9a15ce" y="80.250188"/>
     <use style="fill:#ff0000;stroke:#ff0000;" x="90.19129" xlink:href="#m9f4a9a15ce" y="53.568"/>
     <use style="fill:#ff0000;stroke:#ff0000;" x="91.449641" xlink:href="#m9f4a9a15ce" y="53.568"/>
     <use style="fill:#ff0000;stroke:#ff0000;" x="92.707992" xlink:href="#m9f4a9a15ce" y="82.873454"/>
     <use style="fill:#ff0000;stroke:#ff0000;" x="93.966342" xlink:href="#m9f4a9a15ce" y="82.873454"/>
     <use style="fill:#ff0000;stroke:#ff0000;" x="95.224693" xlink:href="#m9f4a9a15ce" y="113.751243"/>
     <use style="fill:#ff0000;stroke:#ff0000;" x="96.483044" xlink:href="#m9f4a9a15ce" y="113.751243"/>
     <use style="fill:#ff0000;stroke:#ff0000;" x="97.741395" xlink:href="#m9f4a9a15ce" y="113.751243"/>
     <use style="fill:#ff0000;stroke:#ff0000;" x="98.999746" xlink:href="#m9f4a9a15ce" y="113.751243"/>
     <use style="fill:#ff0000;stroke:#ff0000;" x="100.258097" xlink:href="#m9f4a9a15ce" y="113.751243"/>
     <use style="fill:#ff0000;stroke:#ff0000;" x="101.516448" xlink:href="#m9f4a9a15ce" y="117.655277"/>
     <use style="fill:#ff0000;stroke:#ff0000;" x="102.774799" xlink:href="#m9f4a9a15ce" y="117.655277"/>
     <use style="fill:#ff0000;stroke:#ff0000;" x="104.03315" xlink:href="#m9f4a9a15ce" y="92.514989"/>
     <use style="fill:#ff0000;stroke:#ff0000;" x="105.291501" xlink:href="#m9f4a9a15ce" y="92.514989"/>
     <use style="fill:#ff0000;stroke:#ff0000;" x="106.549852" xlink:href="#m9f4a9a15ce" y="92.514989"/>
     <use style="fill:#ff0000;stroke:#ff0000;" x="107.808203" xlink:href="#m9f4a9a15ce" y="119.827833"/>
     <use style="fill:#ff0000;stroke:#ff0000;" x="109.066554" xlink:href="#m9f4a9a15ce" y="119.827833"/>
     <use style="fill:#ff0000;stroke:#ff0000;" x="110.324905" xlink:href="#m9f4a9a15ce" y="151.977502"/>
     <use style="fill:#ff0000;stroke:#ff0000;" x="111.583256" xlink:href="#m9f4a9a15ce" y="151.977502"/>
     <use style="fill:#ff0000;stroke:#ff0000;" x="112.841607" xlink:href="#m9f4a9a15ce" y="161.262974"/>
     <use style="fill:#ff0000;stroke:#ff0000;" x="114.099958" xlink:href="#m9f4a9a15ce" y="161.262974"/>
     <use style="fill:#ff0000;stroke:#ff0000;" x="115.358309" xlink:href="#m9f4a9a15ce" y="151.629175"/>
     <use style="fill:#ff0000;stroke:#ff0000;" x="116.61666" xlink:href="#m9f4a9a15ce" y="161.286067"/>
     <use style="fill:#ff0000;stroke:#ff0000;" x="117.875011" xlink:href="#m9f4a9a15ce" y="161.286067"/>
     <use style="fill:#ff0000;stroke:#ff0000;" x="119.133362" xlink:href="#m9f4a9a15ce" y="161.286067"/>
     <use style="fill:#ff0000;stroke:#ff0000;" x="120.391712" xlink:href="#m9f4a9a15ce" y="170.09693"/>
     <use style="fill:#ff0000;stroke:#ff0000;" x="121.650063" xlink:href="#m9f4a9a15ce" y="170.09693"/>
     <use style="fill:#ff0000;stroke:#ff0000;" x="122.908414" xlink:href="#m9f4a9a15ce" y="178.939845"/>
     <use style="fill:#ff0000;stroke:#ff0000;" x="124.166765" xlink:href="#m9f4a9a15ce" y="178.939845"/>
     <use style="fill:#ff0000;stroke:#ff0000;" x="125.425116" xlink:href="#m9f4a9a15ce" y="169.252644"/>
     <use style="fill:#ff0000;stroke:#ff0000;" x="126.683467" xlink:href="#m9f4a9a15ce" y="169.252644"/>
     <use style="fill:#ff0000;stroke:#ff0000;" x="127.941818" xlink:href="#m9f4a9a15ce" y="160.317586"/>
     <use style="fill:#ff0000;stroke:#ff0000;" x="129.200169" xlink:href="#m9f4a9a15ce" y="160.317586"/>
     <use style="fill:#ff0000;stroke:#ff0000;" x="130.45852" xlink:href="#m9f4a9a15ce" y="163.246295"/>
     <use style="fill:#ff0000;stroke:#ff0000;" x="131.716871" xlink:href="#m9f4a9a15ce" y="172.6804"/>
     <use style="fill:#ff0000;stroke:#ff0000;" x="132.975222" xlink:href="#m9f4a9a15ce" y="172.6804"/>
     <use style="fill:#ff0000;stroke:#ff0000;" x="134.233573" xlink:href="#m9f4a9a15ce" y="172.6804"/>
     <use style="fill:#ff0000;stroke:#ff0000;" x="135.491924" xlink:href="#m9f4a9a15ce" y="162.872428"/>
     <use style="fill:#ff0000;stroke:#ff0000;" x="136.750275" xlink:href="#m9f4a9a15ce" y="162.872428"/>
     <use style="fill:#ff0000;stroke:#ff0000;" x="138.008626" xlink:href="#m9f4a9a15ce" y="164.717551"/>
     <use style="fill:#ff0000;stroke:#ff0000;" x="139.266977" xlink:href="#m9f4a9a15ce" y="164.717551"/>
     <use style="fill:#ff0000;stroke:#ff0000;" x="140.525328" xlink:href="#m9f4a9a15ce" y="173.137008"/>
     <use style="fill:#ff0000;stroke:#ff0000;" x="141.783679" xlink:href="#m9f4a9a15ce" y="175.701637"/>
     <use style="fill:#ff0000;stroke:#ff0000;" x="143.04203" xlink:href="#m9f4a9a15ce" y="175.701637"/>
     <use style="fill:#ff0000;stroke:#ff0000;" x="144.300381" xlink:href="#m9f4a9a15ce" y="175.701637"/>
     <use style="fill:#ff0000;stroke:#ff0000;" x="145.558732" xlink:href="#m9f4a9a15ce" y="175.701637"/>
     <use style="fill:#ff0000;stroke:#ff0000;" x="146.817082" xlink:href="#m9f4a9a15ce" y="184.728439"/>
     <use style="fill:#ff0000;stroke:#ff0000;" x="148.075433" xlink:href="#m9f4a9a15ce" y="185.921779"/>
     <use style="fill:#ff0000;stroke:#ff0000;" x="149.333784" xlink:href="#m9f4a9a15ce" y="185.921779"/>
     <use style="fill:#ff0000;stroke:#ff0000;" x="150.592135" xlink:href="#m9f4a9a15ce" y="194.140902"/>
     <use style="fill:#ff0000;stroke:#ff0000;" x="151.850486" xlink:href="#m9f4a9a15ce" y="194.140902"/>
     <use style="fill:#ff0000;stroke:#ff0000;" x="153.108837" xlink:href="#m9f4a9a15ce" y="194.140902"/>
     <use style="fill:#ff0000;stroke:#ff0000;" x="154.367188" xlink:href="#m9f4a9a15ce" y="185.748199"/>
     <use style="fill:#ff0000;stroke:#ff0000;" x="155.625539" xlink:href="#m9f4a9a15ce" y="185.748199"/>
     <use style="fill:#ff0000;stroke:#ff0000;" x="156.88389" xlink:href="#m9f4a9a15ce" y="185.748199"/>
     <use style="fill:#ff0000;stroke:#ff0000;" x="158.142241" xlink:href="#m9f4a9a15ce" y="185.699163"/>
     <use style="fill:#ff0000;stroke:#ff0000;" x="159.400592" xlink:href="#m9f4a9a15ce" y="194.616143"/>
     <use style="fill:#ff0000;stroke:#ff0000;" x="160.658943" xlink:href="#m9f4a9a15ce" y="194.616143"/>
     <use style="fill:#ff0000;stroke:#ff0000;" x="161.917294" xlink:href="#m9f4a9a15ce" y="194.616143"/>
     <use style="fill:#ff0000;stroke:#ff0000;" x="163.175645" xlink:href="#m9f4a9a15ce" y="194.616143"/>
     <use style="fill:#ff0000;stroke:#ff0000;" x="164.433996" xlink:href="#m9f4a9a15ce" y="192.556383"/>
     <use style="fill:#ff0000;stroke:#ff0000;" x="165.692347" xlink:href="#m9f4a9a15ce" y="191.343052"/>
     <use style="fill:#ff0000;stroke:#ff0000;" x="166.950698" xlink:href="#m9f4a9a15ce" y="191.343052"/>
     <use style="fill:#ff0000;stroke:#ff0000;" x="168.209049" xlink:href="#m9f4a9a15ce" y="191.343052"/>
     <use style="fill:#ff0000;stroke:#ff0000;" x="169.4674" xlink:href="#m9f4a9a15ce" y="199.751734"/>
     <use style="fill:#ff0000;stroke:#ff0000;" x="170.725751" xlink:href="#m9f4a9a15ce" y="199.751734"/>
     <use style="fill:#ff0000;stroke:#ff0000;" x="171.984101" xlink:href="#m9f4a9a15ce" y="208.600851"/>
     <use style="fill:#ff0000;stroke:#ff0000;" x="173.242452" xlink:href="#m9f4a9a15ce" y="199.325177"/>
     <use style="fill:#ff0000;stroke:#ff0000;" x="174.500803" xlink:href="#m9f4a9a15ce" y="199.325177"/>
     <use style="fill:#ff0000;stroke:#ff0000;" x="175.759154" xlink:href="#m9f4a9a15ce" y="208.052646"/>
     <use style="fill:#ff0000;stroke:#ff0000;" x="177.017505" xlink:href="#m9f4a9a15ce" y="208.052646"/>
     <use style="fill:#ff0000;stroke:#ff0000;" x="178.275856" xlink:href="#m9f4a9a15ce" y="208.052646"/>
     <use style="fill:#ff0000;stroke:#ff0000;" x="179.534207" xlink:href="#m9f4a9a15ce" y="208.052646"/>
     <use style="fill:#ff0000;stroke:#ff0000;" x="180.792558" xlink:href="#m9f4a9a15ce" y="197.908863"/>
     <use style="fill:#ff0000;stroke:#ff0000;" x="182.050909" xlink:href="#m9f4a9a15ce" y="197.908863"/>
     <use style="fill:#ff0000;stroke:#ff0000;" x="183.30926" xlink:href="#m9f4a9a15ce" y="188.559654"/>
     <use style="fill:#ff0000;stroke:#ff0000;" x="184.567611" xlink:href="#m9f4a9a15ce" y="188.559654"/>
     <use style="fill:#ff0000;stroke:#ff0000;" x="185.825962" xlink:href="#m9f4a9a15ce" y="179.306981"/>
     <use style="fill:#ff0000;stroke:#ff0000;" x="187.084313" xlink:href="#m9f4a9a15ce" y="179.306981"/>
     <use style="fill:#ff0000;stroke:#ff0000;" x="188.342664" xlink:href="#m9f4a9a15ce" y="188.516846"/>
     <use style="fill:#ff0000;stroke:#ff0000;" x="189.601015" xlink:href="#m9f4a9a15ce" y="188.516846"/>
     <use style="fill:#ff0000;stroke:#ff0000;" x="190.859366" xlink:href="#m9f4a9a15ce" y="188.88403"/>
     <use style="fill:#ff0000;stroke:#ff0000;" x="192.117717" xlink:href="#m9f4a9a15ce" y="188.88403"/>
     <use style="fill:#ff0000;stroke:#ff0000;" x="193.376068" xlink:href="#m9f4a9a15ce" y="197.747775"/>
     <use style="fill:#ff0000;stroke:#ff0000;" x="194.634419" xlink:href="#m9f4a9a15ce" y="197.747775"/>
     <use style="fill:#ff0000;stroke:#ff0000;" x="195.89277" xlink:href="#m9f4a9a15ce" y="206.635861"/>
     <use style="fill:#ff0000;stroke:#ff0000;" x="197.151121" xlink:href="#m9f4a9a15ce" y="206.635861"/>
     <use style="fill:#ff0000;stroke:#ff0000;" x="198.409471" xlink:href="#m9f4a9a15ce" y="214.854832"/>
     <use style="fill:#ff0000;stroke:#ff0000;" x="199.667822" xlink:href="#m9f4a9a15ce" y="214.854832"/>
     <use style="fill:#ff0000;stroke:#ff0000;" x="200.926173" xlink:href="#m9f4a9a15ce" y="206.061785"/>
     <use style="fill:#ff0000;stroke:#ff0000;" x="202.184524" xlink:href="#m9f4a9a15ce" y="206.061785"/>
     <use style="fill:#ff0000;stroke:#ff0000;" x="203.442875" xlink:href="#m9f4a9a15ce" y="196.954359"/>
     <use style="fill:#ff0000;stroke:#ff0000;" x="204.701226" xlink:href="#m9f4a9a15ce" y="205.667864"/>
     <use style="fill:#ff0000;stroke:#ff0000;" x="205.959577" xlink:href="#m9f4a9a15ce" y="205.667864"/>
     <use style="fill:#ff0000;stroke:#ff0000;" x="207.217928" xlink:href="#m9f4a9a15ce" y="214.299528"/>
     <use style="fill:#ff0000;stroke:#ff0000;" x="208.476279" xlink:href="#m9f4a9a15ce" y="214.299528"/>
     <use style="fill:#ff0000;stroke:#ff0000;" x="209.73463" xlink:href="#m9f4a9a15ce" y="223.689057"/>
     <use style="fill:#ff0000;stroke:#ff0000;" x="210.992981" xlink:href="#m9f4a9a15ce" y="223.689057"/>
     <use style="fill:#ff0000;stroke:#ff0000;" x="212.251332" xlink:href="#m9f4a9a15ce" y="223.689057"/>
     <use style="fill:#ff0000;stroke:#ff0000;" x="213.509683" xlink:href="#m9f4a9a15ce" y="223.689057"/>
     <use style="fill:#ff0000;stroke:#ff0000;" x="214.768034" xlink:href="#m9f4a9a15ce" y="223.689057"/>
     <use style="fill:#ff0000;stroke:#ff0000;" x="216.026385" xlink:href="#m9f4a9a15ce" y="223.689057"/>
     <use style="fill:#ff0000;stroke:#ff0000;" x="217.284736" xlink:href="#m9f4a9a15ce" y="223.689057"/>
     <use style="fill:#ff0000;stroke:#ff0000;" x="218.543087" xlink:href="#m9f4a9a15ce" y="223.689057"/>
     <use style="fill:#ff0000;stroke:#ff0000;" x="219.801438" xlink:href="#m9f4a9a15ce" y="223.689057"/>
     <use style="fill:#ff0000;stroke:#ff0000;" x="221.059789" xlink:href="#m9f4a9a15ce" y="213.447499"/>
     <use style="fill:#ff0000;stroke:#ff0000;" x="222.31814" xlink:href="#m9f4a9a15ce" y="213.447499"/>
     <use style="fill:#ff0000;stroke:#ff0000;" x="223.57649" xlink:href="#m9f4a9a15ce" y="213.447499"/>
     <use style="fill:#ff0000;stroke:#ff0000;" x="224.834841" xlink:href="#m9f4a9a15ce" y="223.177677"/>
     <use style="fill:#ff0000;stroke:#ff0000;" x="226.093192" xlink:href="#m9f4a9a15ce" y="223.177677"/>
     <use style="fill:#ff0000;stroke:#ff0000;" x="227.351543" xlink:href="#m9f4a9a15ce" y="220.377257"/>
     <use style="fill:#ff0000;stroke:#ff0000;" x="228.609894" xlink:href="#m9f4a9a15ce" y="220.377257"/>
     <use style="fill:#ff0000;stroke:#ff0000;" x="229.868245" xlink:href="#m9f4a9a15ce" y="220.377257"/>
     <use style="fill:#ff0000;stroke:#ff0000;" x="231.126596" xlink:href="#m9f4a9a15ce" y="230.362941"/>
     <use style="fill:#ff0000;stroke:#ff0000;" x="232.384947" xlink:href="#m9f4a9a15ce" y="230.362941"/>
     <use style="fill:#ff0000;stroke:#ff0000;" x="233.643298" xlink:href="#m9f4a9a15ce" y="229.34141"/>
     <use style="fill:#ff0000;stroke:#ff0000;" x="234.901649" xlink:href="#m9f4a9a15ce" y="229.34141"/>
     <use style="fill:#ff0000;stroke:#ff0000;" x="236.16" xlink:href="#m9f4a9a15ce" y="237.984901"/>
     <use style="fill:#ff0000;stroke:#ff0000;" x="237.418351" xlink:href="#m9f4a9a15ce" y="227.882946"/>
     <use style="fill:#ff0000;stroke:#ff0000;" x="238.676702" xlink:href="#m9f4a9a15ce" y="227.882946"/>
     <use style="fill:#ff0000;stroke:#ff0000;" x="239.935053" xlink:href="#m9f4a9a15ce" y="236.664439"/>
     <use style="fill:#ff0000;stroke:#ff0000;" x="241.193404" xlink:href="#m9f4a9a15ce" y="236.664439"/>
     <use style="fill:#ff0000;stroke:#ff0000;" x="242.451755" xlink:href="#m9f4a9a15ce" y="245.823389"/>
     <use style="fill:#ff0000;stroke:#ff0000;" x="243.710106" xlink:href="#m9f4a9a15ce" y="243.259969"/>
     <use style="fill:#ff0000;stroke:#ff0000;" x="244.968457" xlink:href="#m9f4a9a15ce" y="243.259969"/>
     <use style="fill:#ff0000;stroke:#ff0000;" x="246.226808" xlink:href="#m9f4a9a15ce" y="233.483015"/>
     <use style="fill:#ff0000;stroke:#ff0000;" x="247.485159" xlink:href="#m9f4a9a15ce" y="233.483015"/>
     <use style="fill:#ff0000;stroke:#ff0000;" x="248.74351" xlink:href="#m9f4a9a15ce" y="241.819791"/>
     <use style="fill:#ff0000;stroke:#ff0000;" x="250.00186" xlink:href="#m9f4a9a15ce" y="241.819791"/>
     <use style="fill:#ff0000;stroke:#ff0000;" x="251.260211" xlink:href="#m9f4a9a15ce" y="232.911549"/>
     <use style="fill:#ff0000;stroke:#ff0000;" x="252.518562" xlink:href="#m9f4a9a15ce" y="232.911549"/>
     <use style="fill:#ff0000;stroke:#ff0000;" x="253.776913" xlink:href="#m9f4a9a15ce" y="242.49942"/>
     <use style="fill:#ff0000;stroke:#ff0000;" x="255.035264" xlink:href="#m9f4a9a15ce" y="242.49942"/>
     <use style="fill:#ff0000;stroke:#ff0000;" x="256.293615" xlink:href="#m9f4a9a15ce" y="232.158533"/>
     <use style="fill:#ff0000;stroke:#ff0000;" x="257.551966" xlink:href="#m9f4a9a15ce" y="232.158533"/>
     <use style="fill:#ff0000;stroke:#ff0000;" x="258.810317" xlink:href="#m9f4a9a15ce" y="239.930634"/>
     <use style="fill:#ff0000;stroke:#ff0000;" x="260.068668" xlink:href="#m9f4a9a15ce" y="239.930634"/>
     <use style="fill:#ff0000;stroke:#ff0000;" x="261.327019" xlink:href="#m9f4a9a15ce" y="249.041077"/>
     <use style="fill:#ff0000;stroke:#ff0000;" x="262.58537" xlink:href="#m9f4a9a15ce" y="256.71693"/>
     <use style="fill:#ff0000;stroke:#ff0000;" x="263.843721" xlink:href="#m9f4a9a15ce" y="256.71693"/>
     <use style="fill:#ff0000;stroke:#ff0000;" x="265.102072" xlink:href="#m9f4a9a15ce" y="256.71693"/>
     <use style="fill:#ff0000;stroke:#ff0000;" x="266.360423" xlink:href="#m9f4a9a15ce" y="255.901124"/>
     <use style="fill:#ff0000;stroke:#ff0000;" x="267.618774" xlink:href="#m9f4a9a15ce" y="255.901124"/>
     <use style="fill:#ff0000;stroke:#ff0000;" x="268.877125" xlink:href="#m9f4a9a15ce" y="255.901124"/>
     <use style="fill:#ff0000;stroke:#ff0000;" x="270.135476" xlink:href="#m9f4a9a15ce" y="264.100168"/>
     <use style="fill:#ff0000;stroke:#ff0000;" x="271.393827" xlink:href="#m9f4a9a15ce" y="273.513504"/>
     <use style="fill:#ff0000;stroke:#ff0000;" x="272.652178" xlink:href="#m9f4a9a15ce" y="273.513504"/>
     <use style="fill:#ff0000;stroke:#ff0000;" x="273.910529" xlink:href="#m9f4a9a15ce" y="273.513504"/>
     <use style="fill:#ff0000;stroke:#ff0000;" x="275.168879" xlink:href="#m9f4a9a15ce" y="281.163616"/>
     <use style="fill:#ff0000;stroke:#ff0000;" x="276.42723" xlink:href="#m9f4a9a15ce" y="271.434362"/>
     <use style="fill:#ff0000;stroke:#ff0000;" x="277.685581" xlink:href="#m9f4a9a15ce" y="271.434362"/>
     <use style="fill:#ff0000;stroke:#ff0000;" x="278.943932" xlink:href="#m9f4a9a15ce" y="271.368584"/>
     <use style="fill:#ff0000;stroke:#ff0000;" x="280.202283" xlink:href="#m9f4a9a15ce" y="271.368584"/>
     <use style="fill:#ff0000;stroke:#ff0000;" x="281.460634" xlink:href="#m9f4a9a15ce" y="279.908006"/>
     <use style="fill:#ff0000;stroke:#ff0000;" x="282.718985" xlink:href="#m9f4a9a15ce" y="279.908006"/>
     <use style="fill:#ff0000;stroke:#ff0000;" x="283.977336" xlink:href="#m9f4a9a15ce" y="287.87339"/>
     <use style="fill:#ff0000;stroke:#ff0000;" x="285.235687" xlink:href="#m9f4a9a15ce" y="287.87339"/>
     <use style="fill:#ff0000;stroke:#ff0000;" x="286.494038" xlink:href="#m9f4a9a15ce" y="295.257703"/>
     <use style="fill:#ff0000;stroke:#ff0000;" x="287.752389" xlink:href="#m9f4a9a15ce" y="295.257703"/>
     <use style="fill:#ff0000;stroke:#ff0000;" x="289.01074" xlink:href="#m9f4a9a15ce" y="294.52543"/>
     <use style="fill:#ff0000;stroke:#ff0000;" x="290.269091" xlink:href="#m9f4a9a15ce" y="294.52543"/>
     <use style="fill:#ff0000;stroke:#ff0000;" x="291.527442" xlink:href="#m9f4a9a15ce" y="285.02704"/>
     <use style="fill:#ff0000;stroke:#ff0000;" x="292.785793" xlink:href="#m9f4a9a15ce" y="285.02704"/>
     <use style="fill:#ff0000;stroke:#ff0000;" x="294.044144" xlink:href="#m9f4a9a15ce" y="285.02704"/>
     <use style="fill:#ff0000;stroke:#ff0000;" x="295.302495" xlink:href="#m9f4a9a15ce" y="285.02704"/>
     <use style="fill:#ff0000;stroke:#ff0000;" x="296.560846" xlink:href="#m9f4a9a15ce" y="294.959462"/>
     <use style="fill:#ff0000;stroke:#ff0000;" x="297.819197" xlink:href="#m9f4a9a15ce" y="295.488"/>
     <use style="fill:#ff0000;stroke:#ff0000;" x="299.077548" xlink:href="#m9f4a9a15ce" y="295.488"/>
     <use style="fill:#ff0000;stroke:#ff0000;" x="300.335899" xlink:href="#m9f4a9a15ce" y="286.197254"/>
     <use style="fill:#ff0000;stroke:#ff0000;" x="301.594249" xlink:href="#m9f4a9a15ce" y="286.197254"/>
     <use style="fill:#ff0000;stroke:#ff0000;" x="302.8526" xlink:href="#m9f4a9a15ce" y="286.197254"/>
     <use style="fill:#ff0000;stroke:#ff0000;" x="304.110951" xlink:href="#m9f4a9a15ce" y="294.080409"/>
     <use style="fill:#ff0000;stroke:#ff0000;" x="305.369302" xlink:href="#m9f4a9a15ce" y="294.080409"/>
     <use style="fill:#ff0000;stroke:#ff0000;" x="306.627653" xlink:href="#m9f4a9a15ce" y="291.832536"/>
     <use style="fill:#ff0000;stroke:#ff0000;" x="307.886004" xlink:href="#m9f4a9a15ce" y="291.832536"/>
     <use style="fill:#ff0000;stroke:#ff0000;" x="309.144355" xlink:href="#m9f4a9a15ce" y="291.832536"/>
     <use style="fill:#ff0000;stroke:#ff0000;" x="310.402706" xlink:href="#m9f4a9a15ce" y="291.832536"/>
     <use style="fill:#ff0000;stroke:#ff0000;" x="311.661057" xlink:href="#m9f4a9a15ce" y="291.832536"/>
     <use style="fill:#ff0000;stroke:#ff0000;" x="312.919408" xlink:href="#m9f4a9a15ce" y="291.832536"/>
     <use style="fill:#ff0000;stroke:#ff0000;" x="314.177759" xlink:href="#m9f4a9a15ce" y="291.832536"/>
     <use style="fill:#ff0000;stroke:#ff0000;" x="315.43611" xlink:href="#m9f4a9a15ce" y="291.832536"/>
     <use style="fill:#ff0000;stroke:#ff0000;" x="316.694461" xlink:href="#m9f4a9a15ce" y="291.832536"/>
     <use style="fill:#ff0000;stroke:#ff0000;" x="317.952812" xlink:href="#m9f4a9a15ce" y="291.832536"/>
     <use style="fill:#ff0000;stroke:#ff0000;" x="319.211163" xlink:href="#m9f4a9a15ce" y="291.832536"/>
     <use style="fill:#ff0000;stroke:#ff0000;" x="320.469514" xlink:href="#m9f4a9a15ce" y="291.832536"/>
     <use style="fill:#ff0000;stroke:#ff0000;" x="321.727865" xlink:href="#m9f4a9a15ce" y="291.832536"/>
     <use style="fill:#ff0000;stroke:#ff0000;" x="322.986216" xlink:href="#m9f4a9a15ce" y="291.832536"/>
     <use style="fill:#ff0000;stroke:#ff0000;" x="324.244567" xlink:href="#m9f4a9a15ce" y="291.832536"/>
     <use style="fill:#ff0000;stroke:#ff0000;" x="325.502918" xlink:href="#m9f4a9a15ce" y="291.832536"/>
     <use style="fill:#ff0000;stroke:#ff0000;" x="326.761268" xlink:href="#m9f4a9a15ce" y="291.832536"/>
     <use style="fill:#ff0000;stroke:#ff0000;" x="328.019619" xlink:href="#m9f4a9a15ce" y="291.832536"/>
     <use style="fill:#ff0000;stroke:#ff0000;" x="329.27797" xlink:href="#m9f4a9a15ce" y="291.832536"/>
     <use style="fill:#ff0000;stroke:#ff0000;" x="330.536321" xlink:href="#m9f4a9a15ce" y="291.832536"/>
     <use style="fill:#ff0000;stroke:#ff0000;" x="331.794672" xlink:href="#m9f4a9a15ce" y="291.832536"/>
     <use style="fill:#ff0000;stroke:#ff0000;" x="333.053023" xlink:href="#m9f4a9a15ce" y="291.832536"/>
     <use style="fill:#ff0000;stroke:#ff0000;" x="334.311374" xlink:href="#m9f4a9a15ce" y="291.832536"/>
     <use style="fill:#ff0000;stroke:#ff0000;" x="335.569725" xlink:href="#m9f4a9a15ce" y="291.832536"/>
     <use style="fill:#ff0000;stroke:#ff0000;" x="336.828076" xlink:href="#m9f4a9a15ce" y="291.832536"/>
     <use style="fill:#ff0000;stroke:#ff0000;" x="338.086427" xlink:href="#m9f4a9a15ce" y="291.832536"/>
     <use style="fill:#ff0000;stroke:#ff0000;" x="339.344778" xlink:href="#m9f4a9a15ce" y="291.832536"/>
     <use style="fill:#ff0000;stroke:#ff0000;" x="340.603129" xlink:href="#m9f4a9a15ce" y="291.832536"/>
     <use style="fill:#ff0000;stroke:#ff0000;" x="341.86148" xlink:href="#m9f4a9a15ce" y="291.832536"/>
     <use style="fill:#ff0000;stroke:#ff0000;" x="343.119831" xlink:href="#m9f4a9a15ce" y="291.832536"/>
     <use style="fill:#ff0000;stroke:#ff0000;" x="344.378182" xlink:href="#m9f4a9a15ce" y="291.832536"/>
     <use style="fill:#ff0000;stroke:#ff0000;" x="345.636533" xlink:href="#m9f4a9a15ce" y="291.832536"/>
     <use style="fill:#ff0000;stroke:#ff0000;" x="346.894884" xlink:href="#m9f4a9a15ce" y="291.832536"/>
     <use style="fill:#ff0000;stroke:#ff0000;" x="348.153235" xlink:href="#m9f4a9a15ce" y="291.832536"/>
     <use style="fill:#ff0000;stroke:#ff0000;" x="349.411586" xlink:href="#m9f4a9a15ce" y="291.832536"/>
     <use style="fill:#ff0000;stroke:#ff0000;" x="350.669937" xlink:href="#m9f4a9a15ce" y="291.832536"/>
     <use style="fill:#ff0000;stroke:#ff0000;" x="351.928288" xlink:href="#m9f4a9a15ce" y="291.832536"/>
     <use style="fill:#ff0000;stroke:#ff0000;" x="353.186638" xlink:href="#m9f4a9a15ce" y="291.832536"/>
     <use style="fill:#ff0000;stroke:#ff0000;" x="354.444989" xlink:href="#m9f4a9a15ce" y="291.832536"/>
     <use style="fill:#ff0000;stroke:#ff0000;" x="355.70334" xlink:href="#m9f4a9a15ce" y="291.832536"/>
     <use style="fill:#ff0000;stroke:#ff0000;" x="356.961691" xlink:href="#m9f4a9a15ce" y="291.832536"/>
     <use style="fill:#ff0000;stroke:#ff0000;" x="358.220042" xlink:href="#m9f4a9a15ce" y="291.832536"/>
     <use style="fill:#ff0000;stroke:#ff0000;" x="359.478393" xlink:href="#m9f4a9a15ce" y="291.832536"/>
     <use style="fill:#ff0000;stroke:#ff0000;" x="360.736744" xlink:href="#m9f4a9a15ce" y="291.832536"/>
     <use style="fill:#ff0000;stroke:#ff0000;" x="361.995095" xlink:href="#m9f4a9a15ce" y="291.832536"/>
     <use style="fill:#ff0000;stroke:#ff0000;" x="363.253446" xlink:href="#m9f4a9a15ce" y="291.832536"/>
     <use style="fill:#ff0000;stroke:#ff0000;" x="364.511797" xlink:href="#m9f4a9a15ce" y="291.832536"/>
     <use style="fill:#ff0000;stroke:#ff0000;" x="365.770148" xlink:href="#m9f4a9a15ce" y="291.832536"/>
     <use style="fill:#ff0000;stroke:#ff0000;" x="367.028499" xlink:href="#m9f4a9a15ce" y="291.832536"/>
     <use style="fill:#ff0000;stroke:#ff0000;" x="368.28685" xlink:href="#m9f4a9a15ce" y="291.832536"/>
     <use style="fill:#ff0000;stroke:#ff0000;" x="369.545201" xlink:href="#m9f4a9a15ce" y="291.832536"/>
     <use style="fill:#ff0000;stroke:#ff0000;" x="370.803552" xlink:href="#m9f4a9a15ce" y="291.832536"/>
     <use style="fill:#ff0000;stroke:#ff0000;" x="372.061903" xlink:href="#m9f4a9a15ce" y="291.832536"/>
     <use style="fill:#ff0000;stroke:#ff0000;" x="373.320254" xlink:href="#m9f4a9a15ce" y="291.832536"/>
     <use style="fill:#ff0000;stroke:#ff0000;" x="374.578605" xlink:href="#m9f4a9a15ce" y="291.832536"/>
     <use style="fill:#ff0000;stroke:#ff0000;" x="375.836956" xlink:href="#m9f4a9a15ce" y="291.832536"/>
     <use style="fill:#ff0000;stroke:#ff0000;" x="377.095307" xlink:href="#m9f4a9a15ce" y="291.832536"/>
     <use style="fill:#ff0000;stroke:#ff0000;" x="378.353658" xlink:href="#m9f4a9a15ce" y="291.832536"/>
     <use style="fill:#ff0000;stroke:#ff0000;" x="379.612008" xlink:href="#m9f4a9a15ce" y="291.832536"/>
     <use style="fill:#ff0000;stroke:#ff0000;" x="380.870359" xlink:href="#m9f4a9a15ce" y="291.832536"/>
     <use style="fill:#ff0000;stroke:#ff0000;" x="382.12871" xlink:href="#m9f4a9a15ce" y="291.832536"/>
     <use style="fill:#ff0000;stroke:#ff0000;" x="383.387061" xlink:href="#m9f4a9a15ce" y="291.832536"/>
     <use style="fill:#ff0000;stroke:#ff0000;" x="384.645412" xlink:href="#m9f4a9a15ce" y="291.832536"/>
     <use style="fill:#ff0000;stroke:#ff0000;" x="385.903763" xlink:href="#m9f4a9a15ce" y="291.832536"/>
     <use style="fill:#ff0000;stroke:#ff0000;" x="387.162114" xlink:href="#m9f4a9a15ce" y="291.832536"/>
     <use style="fill:#ff0000;stroke:#ff0000;" x="388.420465" xlink:href="#m9f4a9a15ce" y="291.832536"/>
     <use style="fill:#ff0000;stroke:#ff0000;" x="389.678816" xlink:href="#m9f4a9a15ce" y="291.832536"/>
     <use style="fill:#ff0000;stroke:#ff0000;" x="390.937167" xlink:href="#m9f4a9a15ce" y="291.832536"/>
     <use style="fill:#ff0000;stroke:#ff0000;" x="392.195518" xlink:href="#m9f4a9a15ce" y="291.832536"/>
     <use style="fill:#ff0000;stroke:#ff0000;" x="393.453869" xlink:href="#m9f4a9a15ce" y="291.832536"/>
     <use style="fill:#ff0000;stroke:#ff0000;" x="394.71222" xlink:href="#m9f4a9a15ce" y="291.832536"/>
     <use style="fill:#ff0000;stroke:#ff0000;" x="395.970571" xlink:href="#m9f4a9a15ce" y="291.832536"/>
     <use style="fill:#ff0000;stroke:#ff0000;" x="397.228922" xlink:href="#m9f4a9a15ce" y="291.832536"/>
     <use style="fill:#ff0000;stroke:#ff0000;" x="398.487273" xlink:href="#m9f4a9a15ce" y="291.832536"/>
    </g>
   </g>
   <g id="patch_3">
    <path d="M 57.6 307.584 
L 57.6 41.472 
" style="fill:none;stroke:#000000;stroke-linecap:square;stroke-linejoin:miter;stroke-width:0.8;"/>
   </g>
   <g id="patch_4">
    <path d="M 414.72 307.584 
L 414.72 41.472 
" style="fill:none;stroke:#000000;stroke-linecap:square;stroke-linejoin:miter;stroke-width:0.8;"/>
   </g>
   <g id="patch_5">
    <path d="M 57.6 307.584 
L 414.72 307.584 
" style="fill:none;stroke:#000000;stroke-linecap:square;stroke-linejoin:miter;stroke-width:0.8;"/>
   </g>
   <g id="patch_6">
    <path d="M 57.6 41.472 
L 414.72 41.472 
" style="fill:none;stroke:#000000;stroke-linecap:square;stroke-linejoin:miter;stroke-width:0.8;"/>
   </g>
  </g>
 </g>
 <defs>
  <clipPath id="p866003e26c">
   <rect height="266.112" width="357.12" x="57.6" y="41.472"/>
  </clipPath>
 </defs>
</svg>
