<?xml version="1.0" encoding="utf-8" standalone="no"?>
<!DOCTYPE svg PUBLIC "-//W3C//DTD SVG 1.1//EN"
  "http://www.w3.org/Graphics/SVG/1.1/DTD/svg11.dtd">
<!-- Created with matplotlib (https://matplotlib.org/) -->
<svg height="345.6pt" version="1.1" viewBox="0 0 460.8 345.6" width="460.8pt" xmlns="http://www.w3.org/2000/svg" xmlns:xlink="http://www.w3.org/1999/xlink">
 <defs>
  <style type="text/css">
*{stroke-linecap:butt;stroke-linejoin:round;}
  </style>
 </defs>
 <g id="figure_1">
  <g id="patch_1">
   <path d="M 0 345.6 
L 460.8 345.6 
L 460.8 0 
L 0 0 
z
" style="fill:#ffffff;"/>
  </g>
  <g id="axes_1">
   <g id="patch_2">
    <path d="M 57.6 307.584 
L 414.72 307.584 
L 414.72 41.472 
L 57.6 41.472 
z
" style="fill:#ffffff;"/>
   </g>
   <g id="line2d_1">
    <path clip-path="url(#p35c6c3cf5b)" d="M 73.832727 162.597145 
L 76.69312 162.597145 
L 78.123316 134.690323 
L 83.844101 134.690323 
L 85.274297 106.350418 
L 88.13469 106.350418 
L 89.564886 80.250188 
L 90.995082 80.250188 
L 92.425278 53.568 
L 93.855475 53.568 
L 95.285671 82.873454 
L 96.715867 82.873454 
L 98.146063 113.751243 
L 103.866848 113.751243 
L 105.297044 117.655277 
L 106.727241 117.655277 
L 108.157437 92.514989 
L 111.017829 92.514989 
L 112.448026 119.827833 
L 113.878222 119.827833 
L 115.308418 151.977502 
L 116.738614 151.977502 
L 118.168811 161.262974 
L 119.599007 161.262974 
L 121.029203 151.629175 
L 122.459399 161.286067 
L 125.319792 161.286067 
L 126.749988 170.09693 
L 128.180184 170.09693 
L 129.61038 178.939845 
L 131.040577 178.939845 
L 132.470773 169.252644 
L 133.900969 169.252644 
L 135.331165 160.317586 
L 136.761362 160.317586 
L 138.191558 163.246295 
L 139.621754 172.6804 
L 142.482147 172.6804 
L 143.912343 162.872428 
L 145.342539 162.872428 
L 146.772735 164.717551 
L 148.202932 164.717551 
L 149.633128 173.137008 
L 151.063324 175.701637 
L 155.353913 175.701637 
L 156.784109 184.728439 
L 158.214305 185.921779 
L 159.644501 185.921779 
L 161.074698 194.140902 
L 163.93509 194.140902 
L 165.365286 185.748199 
L 169.655875 185.699163 
L 171.086071 194.616143 
L 175.37666 194.616143 
L 176.806856 192.556383 
L 178.237052 191.343052 
L 181.097445 191.343052 
L 182.527641 199.751734 
L 183.957837 199.751734 
L 185.388034 208.600851 
L 186.81823 199.325177 
L 188.248426 199.325177 
L 189.678622 208.052646 
L 193.969211 208.052646 
L 195.399407 197.908863 
L 196.829604 197.908863 
L 198.2598 188.559654 
L 199.689996 188.559654 
L 201.120192 179.306981 
L 202.550388 179.306981 
L 203.980585 188.516846 
L 205.410781 188.516846 
L 206.840977 188.88403 
L 208.271173 188.88403 
L 209.70137 197.747775 
L 211.131566 197.747775 
L 212.561762 206.635861 
L 213.991958 206.635861 
L 215.422155 214.854832 
L 216.852351 214.854832 
L 218.282547 206.061785 
L 219.712743 206.061785 
L 221.14294 196.954359 
L 222.573136 205.667864 
L 224.003332 205.667864 
L 225.433528 214.299528 
L 226.863724 214.299528 
L 228.293921 223.689057 
L 239.735491 223.689057 
L 241.165687 213.447499 
L 244.026079 213.447499 
L 245.456276 223.177677 
L 246.886472 223.177677 
L 248.316668 220.377257 
L 251.17706 220.377257 
L 252.607257 230.362941 
L 254.037453 230.362941 
L 255.467649 229.34141 
L 256.897845 229.34141 
L 258.328042 237.984901 
L 259.758238 227.882946 
L 261.188434 227.882946 
L 262.61863 236.664439 
L 264.048827 236.664439 
L 265.479023 245.823389 
L 266.909219 243.259969 
L 268.339415 243.259969 
L 269.769612 233.483015 
L 271.199808 233.483015 
L 272.630004 241.819791 
L 274.0602 241.819791 
L 275.490396 232.911549 
L 276.920593 232.911549 
L 278.350789 242.49942 
L 279.780985 242.49942 
L 281.211181 232.158533 
L 282.641378 232.158533 
L 284.071574 239.930634 
L 285.50177 239.930634 
L 286.931966 249.041077 
L 288.362163 256.71693 
L 291.222555 256.71693 
L 292.652751 255.901124 
L 295.513144 255.901124 
L 296.94334 264.100168 
L 298.373536 273.513504 
L 301.233929 273.513504 
L 302.664125 281.163616 
L 304.094321 271.434362 
L 308.38491 271.368584 
L 309.815106 279.908006 
L 311.245302 279.908006 
L 312.675499 287.87339 
L 314.105695 287.87339 
L 315.535891 295.257703 
L 316.966087 295.257703 
L 318.396284 294.52543 
L 319.82648 294.52543 
L 321.256676 285.02704 
L 325.547265 285.02704 
L 326.977461 294.959462 
L 328.407657 295.488 
L 329.837853 295.488 
L 331.26805 286.197254 
L 334.128442 286.197254 
L 335.558638 294.080409 
L 336.988835 294.080409 
L 338.419031 291.832536 
L 398.487273 291.832536 
L 398.487273 291.832536 
" style="fill:none;stroke:#ff0000;stroke-linecap:square;stroke-width:12;"/>
    <defs>
     <path d="M 0 3 
C 0.795609 3 1.55874 2.683901 2.12132 2.12132 
C 2.683901 1.55874 3 0.795609 3 0 
C 3 -0.795609 2.683901 -1.55874 2.12132 -2.12132 
C 1.55874 -2.683901 0.795609 -3 0 -3 
C -0.795609 -3 -1.55874 -2.683901 -2.12132 -2.12132 
C -2.683901 -1.55874 -3 -0.795609 -3 0 
C -3 0.795609 -2.683901 1.55874 -2.12132 2.12132 
C -1.55874 2.683901 -0.795609 3 0 3 
z
" id="me00f7ea7c2" style="stroke:#ff0000;"/>
    </defs>
    <g clip-path="url(#p35c6c3cf5b)">
     <use style="fill:#ff0000;stroke:#ff0000;" x="73.832727" xlink:href="#me00f7ea7c2" y="162.597145"/>
     <use style="fill:#ff0000;stroke:#ff0000;" x="75.262924" xlink:href="#me00f7ea7c2" y="162.597145"/>
     <use style="fill:#ff0000;stroke:#ff0000;" x="76.69312" xlink:href="#me00f7ea7c2" y="162.597145"/>
     <use style="fill:#ff0000;stroke:#ff0000;" x="78.123316" xlink:href="#me00f7ea7c2" y="134.690323"/>
     <use style="fill:#ff0000;stroke:#ff0000;" x="79.553512" xlink:href="#me00f7ea7c2" y="134.690323"/>
     <use style="fill:#ff0000;stroke:#ff0000;" x="80.983708" xlink:href="#me00f7ea7c2" y="134.690323"/>
     <use style="fill:#ff0000;stroke:#ff0000;" x="82.413905" xlink:href="#me00f7ea7c2" y="134.690323"/>
     <use style="fill:#ff0000;stroke:#ff0000;" x="83.844101" xlink:href="#me00f7ea7c2" y="134.690323"/>
     <use style="fill:#ff0000;stroke:#ff0000;" x="85.274297" xlink:href="#me00f7ea7c2" y="106.350418"/>
     <use style="fill:#ff0000;stroke:#ff0000;" x="86.704493" xlink:href="#me00f7ea7c2" y="106.350418"/>
     <use style="fill:#ff0000;stroke:#ff0000;" x="88.13469" xlink:href="#me00f7ea7c2" y="106.350418"/>
     <use style="fill:#ff0000;stroke:#ff0000;" x="89.564886" xlink:href="#me00f7ea7c2" y="80.250188"/>
     <use style="fill:#ff0000;stroke:#ff0000;" x="90.995082" xlink:href="#me00f7ea7c2" y="80.250188"/>
     <use style="fill:#ff0000;stroke:#ff0000;" x="92.425278" xlink:href="#me00f7ea7c2" y="53.568"/>
     <use style="fill:#ff0000;stroke:#ff0000;" x="93.855475" xlink:href="#me00f7ea7c2" y="53.568"/>
     <use style="fill:#ff0000;stroke:#ff0000;" x="95.285671" xlink:href="#me00f7ea7c2" y="82.873454"/>
     <use style="fill:#ff0000;stroke:#ff0000;" x="96.715867" xlink:href="#me00f7ea7c2" y="82.873454"/>
     <use style="fill:#ff0000;stroke:#ff0000;" x="98.146063" xlink:href="#me00f7ea7c2" y="113.751243"/>
     <use style="fill:#ff0000;stroke:#ff0000;" x="99.57626" xlink:href="#me00f7ea7c2" y="113.751243"/>
     <use style="fill:#ff0000;stroke:#ff0000;" x="101.006456" xlink:href="#me00f7ea7c2" y="113.751243"/>
     <use style="fill:#ff0000;stroke:#ff0000;" x="102.436652" xlink:href="#me00f7ea7c2" y="113.751243"/>
     <use style="fill:#ff0000;stroke:#ff0000;" x="103.866848" xlink:href="#me00f7ea7c2" y="113.751243"/>
     <use style="fill:#ff0000;stroke:#ff0000;" x="105.297044" xlink:href="#me00f7ea7c2" y="117.655277"/>
     <use style="fill:#ff0000;stroke:#ff0000;" x="106.727241" xlink:href="#me00f7ea7c2" y="117.655277"/>
     <use style="fill:#ff0000;stroke:#ff0000;" x="108.157437" xlink:href="#me00f7ea7c2" y="92.514989"/>
     <use style="fill:#ff0000;stroke:#ff0000;" x="109.587633" xlink:href="#me00f7ea7c2" y="92.514989"/>
     <use style="fill:#ff0000;stroke:#ff0000;" x="111.017829" xlink:href="#me00f7ea7c2" y="92.514989"/>
     <use style="fill:#ff0000;stroke:#ff0000;" x="112.448026" xlink:href="#me00f7ea7c2" y="119.827833"/>
     <use style="fill:#ff0000;stroke:#ff0000;" x="113.878222" xlink:href="#me00f7ea7c2" y="119.827833"/>
     <use style="fill:#ff0000;stroke:#ff0000;" x="115.308418" xlink:href="#me00f7ea7c2" y="151.977502"/>
     <use style="fill:#ff0000;stroke:#ff0000;" x="116.738614" xlink:href="#me00f7ea7c2" y="151.977502"/>
     <use style="fill:#ff0000;stroke:#ff0000;" x="118.168811" xlink:href="#me00f7ea7c2" y="161.262974"/>
     <use style="fill:#ff0000;stroke:#ff0000;" x="119.599007" xlink:href="#me00f7ea7c2" y="161.262974"/>
     <use style="fill:#ff0000;stroke:#ff0000;" x="121.029203" xlink:href="#me00f7ea7c2" y="151.629175"/>
     <use style="fill:#ff0000;stroke:#ff0000;" x="122.459399" xlink:href="#me00f7ea7c2" y="161.286067"/>
     <use style="fill:#ff0000;stroke:#ff0000;" x="123.889596" xlink:href="#me00f7ea7c2" y="161.286067"/>
     <use style="fill:#ff0000;stroke:#ff0000;" x="125.319792" xlink:href="#me00f7ea7c2" y="161.286067"/>
     <use style="fill:#ff0000;stroke:#ff0000;" x="126.749988" xlink:href="#me00f7ea7c2" y="170.09693"/>
     <use style="fill:#ff0000;stroke:#ff0000;" x="128.180184" xlink:href="#me00f7ea7c2" y="170.09693"/>
     <use style="fill:#ff0000;stroke:#ff0000;" x="129.61038" xlink:href="#me00f7ea7c2" y="178.939845"/>
     <use style="fill:#ff0000;stroke:#ff0000;" x="131.040577" xlink:href="#me00f7ea7c2" y="178.939845"/>
     <use style="fill:#ff0000;stroke:#ff0000;" x="132.470773" xlink:href="#me00f7ea7c2" y="169.252644"/>
     <use style="fill:#ff0000;stroke:#ff0000;" x="133.900969" xlink:href="#me00f7ea7c2" y="169.252644"/>
     <use style="fill:#ff0000;stroke:#ff0000;" x="135.331165" xlink:href="#me00f7ea7c2" y="160.317586"/>
     <use style="fill:#ff0000;stroke:#ff0000;" x="136.761362" xlink:href="#me00f7ea7c2" y="160.317586"/>
     <use style="fill:#ff0000;stroke:#ff0000;" x="138.191558" xlink:href="#me00f7ea7c2" y="163.246295"/>
     <use style="fill:#ff0000;stroke:#ff0000;" x="139.621754" xlink:href="#me00f7ea7c2" y="172.6804"/>
     <use style="fill:#ff0000;stroke:#ff0000;" x="141.05195" xlink:href="#me00f7ea7c2" y="172.6804"/>
     <use style="fill:#ff0000;stroke:#ff0000;" x="142.482147" xlink:href="#me00f7ea7c2" y="172.6804"/>
     <use style="fill:#ff0000;stroke:#ff0000;" x="143.912343" xlink:href="#me00f7ea7c2" y="162.872428"/>
     <use style="fill:#ff0000;stroke:#ff0000;" x="145.342539" xlink:href="#me00f7ea7c2" y="162.872428"/>
     <use style="fill:#ff0000;stroke:#ff0000;" x="146.772735" xlink:href="#me00f7ea7c2" y="164.717551"/>
     <use style="fill:#ff0000;stroke:#ff0000;" x="148.202932" xlink:href="#me00f7ea7c2" y="164.717551"/>
     <use style="fill:#ff0000;stroke:#ff0000;" x="149.633128" xlink:href="#me00f7ea7c2" y="173.137008"/>
     <use style="fill:#ff0000;stroke:#ff0000;" x="151.063324" xlink:href="#me00f7ea7c2" y="175.701637"/>
     <use style="fill:#ff0000;stroke:#ff0000;" x="152.49352" xlink:href="#me00f7ea7c2" y="175.701637"/>
     <use style="fill:#ff0000;stroke:#ff0000;" x="153.923716" xlink:href="#me00f7ea7c2" y="175.701637"/>
     <use style="fill:#ff0000;stroke:#ff0000;" x="155.353913" xlink:href="#me00f7ea7c2" y="175.701637"/>
     <use style="fill:#ff0000;stroke:#ff0000;" x="156.784109" xlink:href="#me00f7ea7c2" y="184.728439"/>
     <use style="fill:#ff0000;stroke:#ff0000;" x="158.214305" xlink:href="#me00f7ea7c2" y="185.921779"/>
     <use style="fill:#ff0000;stroke:#ff0000;" x="159.644501" xlink:href="#me00f7ea7c2" y="185.921779"/>
     <use style="fill:#ff0000;stroke:#ff0000;" x="161.074698" xlink:href="#me00f7ea7c2" y="194.140902"/>
     <use style="fill:#ff0000;stroke:#ff0000;" x="162.504894" xlink:href="#me00f7ea7c2" y="194.140902"/>
     <use style="fill:#ff0000;stroke:#ff0000;" x="163.93509" xlink:href="#me00f7ea7c2" y="194.140902"/>
     <use style="fill:#ff0000;stroke:#ff0000;" x="165.365286" xlink:href="#me00f7ea7c2" y="185.748199"/>
     <use style="fill:#ff0000;stroke:#ff0000;" x="166.795483" xlink:href="#me00f7ea7c2" y="185.748199"/>
     <use style="fill:#ff0000;stroke:#ff0000;" x="168.225679" xlink:href="#me00f7ea7c2" y="185.748199"/>
     <use style="fill:#ff0000;stroke:#ff0000;" x="169.655875" xlink:href="#me00f7ea7c2" y="185.699163"/>
     <use style="fill:#ff0000;stroke:#ff0000;" x="171.086071" xlink:href="#me00f7ea7c2" y="194.616143"/>
     <use style="fill:#ff0000;stroke:#ff0000;" x="172.516268" xlink:href="#me00f7ea7c2" y="194.616143"/>
     <use style="fill:#ff0000;stroke:#ff0000;" x="173.946464" xlink:href="#me00f7ea7c2" y="194.616143"/>
     <use style="fill:#ff0000;stroke:#ff0000;" x="175.37666" xlink:href="#me00f7ea7c2" y="194.616143"/>
     <use style="fill:#ff0000;stroke:#ff0000;" x="176.806856" xlink:href="#me00f7ea7c2" y="192.556383"/>
     <use style="fill:#ff0000;stroke:#ff0000;" x="178.237052" xlink:href="#me00f7ea7c2" y="191.343052"/>
     <use style="fill:#ff0000;stroke:#ff0000;" x="179.667249" xlink:href="#me00f7ea7c2" y="191.343052"/>
     <use style="fill:#ff0000;stroke:#ff0000;" x="181.097445" xlink:href="#me00f7ea7c2" y="191.343052"/>
     <use style="fill:#ff0000;stroke:#ff0000;" x="182.527641" xlink:href="#me00f7ea7c2" y="199.751734"/>
     <use style="fill:#ff0000;stroke:#ff0000;" x="183.957837" xlink:href="#me00f7ea7c2" y="199.751734"/>
     <use style="fill:#ff0000;stroke:#ff0000;" x="185.388034" xlink:href="#me00f7ea7c2" y="208.600851"/>
     <use style="fill:#ff0000;stroke:#ff0000;" x="186.81823" xlink:href="#me00f7ea7c2" y="199.325177"/>
     <use style="fill:#ff0000;stroke:#ff0000;" x="188.248426" xlink:href="#me00f7ea7c2" y="199.325177"/>
     <use style="fill:#ff0000;stroke:#ff0000;" x="189.678622" xlink:href="#me00f7ea7c2" y="208.052646"/>
     <use style="fill:#ff0000;stroke:#ff0000;" x="191.108819" xlink:href="#me00f7ea7c2" y="208.052646"/>
     <use style="fill:#ff0000;stroke:#ff0000;" x="192.539015" xlink:href="#me00f7ea7c2" y="208.052646"/>
     <use style="fill:#ff0000;stroke:#ff0000;" x="193.969211" xlink:href="#me00f7ea7c2" y="208.052646"/>
     <use style="fill:#ff0000;stroke:#ff0000;" x="195.399407" xlink:href="#me00f7ea7c2" y="197.908863"/>
     <use style="fill:#ff0000;stroke:#ff0000;" x="196.829604" xlink:href="#me00f7ea7c2" y="197.908863"/>
     <use style="fill:#ff0000;stroke:#ff0000;" x="198.2598" xlink:href="#me00f7ea7c2" y="188.559654"/>
     <use style="fill:#ff0000;stroke:#ff0000;" x="199.689996" xlink:href="#me00f7ea7c2" y="188.559654"/>
     <use style="fill:#ff0000;stroke:#ff0000;" x="201.120192" xlink:href="#me00f7ea7c2" y="179.306981"/>
     <use style="fill:#ff0000;stroke:#ff0000;" x="202.550388" xlink:href="#me00f7ea7c2" y="179.306981"/>
     <use style="fill:#ff0000;stroke:#ff0000;" x="203.980585" xlink:href="#me00f7ea7c2" y="188.516846"/>
     <use style="fill:#ff0000;stroke:#ff0000;" x="205.410781" xlink:href="#me00f7ea7c2" y="188.516846"/>
     <use style="fill:#ff0000;stroke:#ff0000;" x="206.840977" xlink:href="#me00f7ea7c2" y="188.88403"/>
     <use style="fill:#ff0000;stroke:#ff0000;" x="208.271173" xlink:href="#me00f7ea7c2" y="188.88403"/>
     <use style="fill:#ff0000;stroke:#ff0000;" x="209.70137" xlink:href="#me00f7ea7c2" y="197.747775"/>
     <use style="fill:#ff0000;stroke:#ff0000;" x="211.131566" xlink:href="#me00f7ea7c2" y="197.747775"/>
     <use style="fill:#ff0000;stroke:#ff0000;" x="212.561762" xlink:href="#me00f7ea7c2" y="206.635861"/>
     <use style="fill:#ff0000;stroke:#ff0000;" x="213.991958" xlink:href="#me00f7ea7c2" y="206.635861"/>
     <use style="fill:#ff0000;stroke:#ff0000;" x="215.422155" xlink:href="#me00f7ea7c2" y="214.854832"/>
     <use style="fill:#ff0000;stroke:#ff0000;" x="216.852351" xlink:href="#me00f7ea7c2" y="214.854832"/>
     <use style="fill:#ff0000;stroke:#ff0000;" x="218.282547" xlink:href="#me00f7ea7c2" y="206.061785"/>
     <use style="fill:#ff0000;stroke:#ff0000;" x="219.712743" xlink:href="#me00f7ea7c2" y="206.061785"/>
     <use style="fill:#ff0000;stroke:#ff0000;" x="221.14294" xlink:href="#me00f7ea7c2" y="196.954359"/>
     <use style="fill:#ff0000;stroke:#ff0000;" x="222.573136" xlink:href="#me00f7ea7c2" y="205.667864"/>
     <use style="fill:#ff0000;stroke:#ff0000;" x="224.003332" xlink:href="#me00f7ea7c2" y="205.667864"/>
     <use style="fill:#ff0000;stroke:#ff0000;" x="225.433528" xlink:href="#me00f7ea7c2" y="214.299528"/>
     <use style="fill:#ff0000;stroke:#ff0000;" x="226.863724" xlink:href="#me00f7ea7c2" y="214.299528"/>
     <use style="fill:#ff0000;stroke:#ff0000;" x="228.293921" xlink:href="#me00f7ea7c2" y="223.689057"/>
     <use style="fill:#ff0000;stroke:#ff0000;" x="229.724117" xlink:href="#me00f7ea7c2" y="223.689057"/>
     <use style="fill:#ff0000;stroke:#ff0000;" x="231.154313" xlink:href="#me00f7ea7c2" y="223.689057"/>
     <use style="fill:#ff0000;stroke:#ff0000;" x="232.584509" xlink:href="#me00f7ea7c2" y="223.689057"/>
     <use style="fill:#ff0000;stroke:#ff0000;" x="234.014706" xlink:href="#me00f7ea7c2" y="223.689057"/>
     <use style="fill:#ff0000;stroke:#ff0000;" x="235.444902" xlink:href="#me00f7ea7c2" y="223.689057"/>
     <use style="fill:#ff0000;stroke:#ff0000;" x="236.875098" xlink:href="#me00f7ea7c2" y="223.689057"/>
     <use style="fill:#ff0000;stroke:#ff0000;" x="238.305294" xlink:href="#me00f7ea7c2" y="223.689057"/>
     <use style="fill:#ff0000;stroke:#ff0000;" x="239.735491" xlink:href="#me00f7ea7c2" y="223.689057"/>
     <use style="fill:#ff0000;stroke:#ff0000;" x="241.165687" xlink:href="#me00f7ea7c2" y="213.447499"/>
     <use style="fill:#ff0000;stroke:#ff0000;" x="242.595883" xlink:href="#me00f7ea7c2" y="213.447499"/>
     <use style="fill:#ff0000;stroke:#ff0000;" x="244.026079" xlink:href="#me00f7ea7c2" y="213.447499"/>
     <use style="fill:#ff0000;stroke:#ff0000;" x="245.456276" xlink:href="#me00f7ea7c2" y="223.177677"/>
     <use style="fill:#ff0000;stroke:#ff0000;" x="246.886472" xlink:href="#me00f7ea7c2" y="223.177677"/>
     <use style="fill:#ff0000;stroke:#ff0000;" x="248.316668" xlink:href="#me00f7ea7c2" y="220.377257"/>
     <use style="fill:#ff0000;stroke:#ff0000;" x="249.746864" xlink:href="#me00f7ea7c2" y="220.377257"/>
     <use style="fill:#ff0000;stroke:#ff0000;" x="251.17706" xlink:href="#me00f7ea7c2" y="220.377257"/>
     <use style="fill:#ff0000;stroke:#ff0000;" x="252.607257" xlink:href="#me00f7ea7c2" y="230.362941"/>
     <use style="fill:#ff0000;stroke:#ff0000;" x="254.037453" xlink:href="#me00f7ea7c2" y="230.362941"/>
     <use style="fill:#ff0000;stroke:#ff0000;" x="255.467649" xlink:href="#me00f7ea7c2" y="229.34141"/>
     <use style="fill:#ff0000;stroke:#ff0000;" x="256.897845" xlink:href="#me00f7ea7c2" y="229.34141"/>
     <use style="fill:#ff0000;stroke:#ff0000;" x="258.328042" xlink:href="#me00f7ea7c2" y="237.984901"/>
     <use style="fill:#ff0000;stroke:#ff0000;" x="259.758238" xlink:href="#me00f7ea7c2" y="227.882946"/>
     <use style="fill:#ff0000;stroke:#ff0000;" x="261.188434" xlink:href="#me00f7ea7c2" y="227.882946"/>
     <use style="fill:#ff0000;stroke:#ff0000;" x="262.61863" xlink:href="#me00f7ea7c2" y="236.664439"/>
     <use style="fill:#ff0000;stroke:#ff0000;" x="264.048827" xlink:href="#me00f7ea7c2" y="236.664439"/>
     <use style="fill:#ff0000;stroke:#ff0000;" x="265.479023" xlink:href="#me00f7ea7c2" y="245.823389"/>
     <use style="fill:#ff0000;stroke:#ff0000;" x="266.909219" xlink:href="#me00f7ea7c2" y="243.259969"/>
     <use style="fill:#ff0000;stroke:#ff0000;" x="268.339415" xlink:href="#me00f7ea7c2" y="243.259969"/>
     <use style="fill:#ff0000;stroke:#ff0000;" x="269.769612" xlink:href="#me00f7ea7c2" y="233.483015"/>
     <use style="fill:#ff0000;stroke:#ff0000;" x="271.199808" xlink:href="#me00f7ea7c2" y="233.483015"/>
     <use style="fill:#ff0000;stroke:#ff0000;" x="272.630004" xlink:href="#me00f7ea7c2" y="241.819791"/>
     <use style="fill:#ff0000;stroke:#ff0000;" x="274.0602" xlink:href="#me00f7ea7c2" y="241.819791"/>
     <use style="fill:#ff0000;stroke:#ff0000;" x="275.490396" xlink:href="#me00f7ea7c2" y="232.911549"/>
     <use style="fill:#ff0000;stroke:#ff0000;" x="276.920593" xlink:href="#me00f7ea7c2" y="232.911549"/>
     <use style="fill:#ff0000;stroke:#ff0000;" x="278.350789" xlink:href="#me00f7ea7c2" y="242.49942"/>
     <use style="fill:#ff0000;stroke:#ff0000;" x="279.780985" xlink:href="#me00f7ea7c2" y="242.49942"/>
     <use style="fill:#ff0000;stroke:#ff0000;" x="281.211181" xlink:href="#me00f7ea7c2" y="232.158533"/>
     <use style="fill:#ff0000;stroke:#ff0000;" x="282.641378" xlink:href="#me00f7ea7c2" y="232.158533"/>
     <use style="fill:#ff0000;stroke:#ff0000;" x="284.071574" xlink:href="#me00f7ea7c2" y="239.930634"/>
     <use style="fill:#ff0000;stroke:#ff0000;" x="285.50177" xlink:href="#me00f7ea7c2" y="239.930634"/>
     <use style="fill:#ff0000;stroke:#ff0000;" x="286.931966" xlink:href="#me00f7ea7c2" y="249.041077"/>
     <use style="fill:#ff0000;stroke:#ff0000;" x="288.362163" xlink:href="#me00f7ea7c2" y="256.71693"/>
     <use style="fill:#ff0000;stroke:#ff0000;" x="289.792359" xlink:href="#me00f7ea7c2" y="256.71693"/>
     <use style="fill:#ff0000;stroke:#ff0000;" x="291.222555" xlink:href="#me00f7ea7c2" y="256.71693"/>
     <use style="fill:#ff0000;stroke:#ff0000;" x="292.652751" xlink:href="#me00f7ea7c2" y="255.901124"/>
     <use style="fill:#ff0000;stroke:#ff0000;" x="294.082948" xlink:href="#me00f7ea7c2" y="255.901124"/>
     <use style="fill:#ff0000;stroke:#ff0000;" x="295.513144" xlink:href="#me00f7ea7c2" y="255.901124"/>
     <use style="fill:#ff0000;stroke:#ff0000;" x="296.94334" xlink:href="#me00f7ea7c2" y="264.100168"/>
     <use style="fill:#ff0000;stroke:#ff0000;" x="298.373536" xlink:href="#me00f7ea7c2" y="273.513504"/>
     <use style="fill:#ff0000;stroke:#ff0000;" x="299.803732" xlink:href="#me00f7ea7c2" y="273.513504"/>
     <use style="fill:#ff0000;stroke:#ff0000;" x="301.233929" xlink:href="#me00f7ea7c2" y="273.513504"/>
     <use style="fill:#ff0000;stroke:#ff0000;" x="302.664125" xlink:href="#me00f7ea7c2" y="281.163616"/>
     <use style="fill:#ff0000;stroke:#ff0000;" x="304.094321" xlink:href="#me00f7ea7c2" y="271.434362"/>
     <use style="fill:#ff0000;stroke:#ff0000;" x="305.524517" xlink:href="#me00f7ea7c2" y="271.434362"/>
     <use style="fill:#ff0000;stroke:#ff0000;" x="306.954714" xlink:href="#me00f7ea7c2" y="271.368584"/>
     <use style="fill:#ff0000;stroke:#ff0000;" x="308.38491" xlink:href="#me00f7ea7c2" y="271.368584"/>
     <use style="fill:#ff0000;stroke:#ff0000;" x="309.815106" xlink:href="#me00f7ea7c2" y="279.908006"/>
     <use style="fill:#ff0000;stroke:#ff0000;" x="311.245302" xlink:href="#me00f7ea7c2" y="279.908006"/>
     <use style="fill:#ff0000;stroke:#ff0000;" x="312.675499" xlink:href="#me00f7ea7c2" y="287.87339"/>
     <use style="fill:#ff0000;stroke:#ff0000;" x="314.105695" xlink:href="#me00f7ea7c2" y="287.87339"/>
     <use style="fill:#ff0000;stroke:#ff0000;" x="315.535891" xlink:href="#me00f7ea7c2" y="295.257703"/>
     <use style="fill:#ff0000;stroke:#ff0000;" x="316.966087" xlink:href="#me00f7ea7c2" y="295.257703"/>
     <use style="fill:#ff0000;stroke:#ff0000;" x="318.396284" xlink:href="#me00f7ea7c2" y="294.52543"/>
     <use style="fill:#ff0000;stroke:#ff0000;" x="319.82648" xlink:href="#me00f7ea7c2" y="294.52543"/>
     <use style="fill:#ff0000;stroke:#ff0000;" x="321.256676" xlink:href="#me00f7ea7c2" y="285.02704"/>
     <use style="fill:#ff0000;stroke:#ff0000;" x="322.686872" xlink:href="#me00f7ea7c2" y="285.02704"/>
     <use style="fill:#ff0000;stroke:#ff0000;" x="324.117068" xlink:href="#me00f7ea7c2" y="285.02704"/>
     <use style="fill:#ff0000;stroke:#ff0000;" x="325.547265" xlink:href="#me00f7ea7c2" y="285.02704"/>
     <use style="fill:#ff0000;stroke:#ff0000;" x="326.977461" xlink:href="#me00f7ea7c2" y="294.959462"/>
     <use style="fill:#ff0000;stroke:#ff0000;" x="328.407657" xlink:href="#me00f7ea7c2" y="295.488"/>
     <use style="fill:#ff0000;stroke:#ff0000;" x="329.837853" xlink:href="#me00f7ea7c2" y="295.488"/>
     <use style="fill:#ff0000;stroke:#ff0000;" x="331.26805" xlink:href="#me00f7ea7c2" y="286.197254"/>
     <use style="fill:#ff0000;stroke:#ff0000;" x="332.698246" xlink:href="#me00f7ea7c2" y="286.197254"/>
     <use style="fill:#ff0000;stroke:#ff0000;" x="334.128442" xlink:href="#me00f7ea7c2" y="286.197254"/>
     <use style="fill:#ff0000;stroke:#ff0000;" x="335.558638" xlink:href="#me00f7ea7c2" y="294.080409"/>
     <use style="fill:#ff0000;stroke:#ff0000;" x="336.988835" xlink:href="#me00f7ea7c2" y="294.080409"/>
     <use style="fill:#ff0000;stroke:#ff0000;" x="338.419031" xlink:href="#me00f7ea7c2" y="291.832536"/>
     <use style="fill:#ff0000;stroke:#ff0000;" x="339.849227" xlink:href="#me00f7ea7c2" y="291.832536"/>
     <use style="fill:#ff0000;stroke:#ff0000;" x="341.279423" xlink:href="#me00f7ea7c2" y="291.832536"/>
     <use style="fill:#ff0000;stroke:#ff0000;" x="342.70962" xlink:href="#me00f7ea7c2" y="291.832536"/>
     <use style="fill:#ff0000;stroke:#ff0000;" x="344.139816" xlink:href="#me00f7ea7c2" y="291.832536"/>
     <use style="fill:#ff0000;stroke:#ff0000;" x="345.570012" xlink:href="#me00f7ea7c2" y="291.832536"/>
     <use style="fill:#ff0000;stroke:#ff0000;" x="347.000208" xlink:href="#me00f7ea7c2" y="291.832536"/>
     <use style="fill:#ff0000;stroke:#ff0000;" x="348.430404" xlink:href="#me00f7ea7c2" y="291.832536"/>
     <use style="fill:#ff0000;stroke:#ff0000;" x="349.860601" xlink:href="#me00f7ea7c2" y="291.832536"/>
     <use style="fill:#ff0000;stroke:#ff0000;" x="351.290797" xlink:href="#me00f7ea7c2" y="291.832536"/>
     <use style="fill:#ff0000;stroke:#ff0000;" x="352.720993" xlink:href="#me00f7ea7c2" y="291.832536"/>
     <use style="fill:#ff0000;stroke:#ff0000;" x="354.151189" xlink:href="#me00f7ea7c2" y="291.832536"/>
     <use style="fill:#ff0000;stroke:#ff0000;" x="355.581386" xlink:href="#me00f7ea7c2" y="291.832536"/>
     <use style="fill:#ff0000;stroke:#ff0000;" x="357.011582" xlink:href="#me00f7ea7c2" y="291.832536"/>
     <use style="fill:#ff0000;stroke:#ff0000;" x="358.441778" xlink:href="#me00f7ea7c2" y="291.832536"/>
     <use style="fill:#ff0000;stroke:#ff0000;" x="359.871974" xlink:href="#me00f7ea7c2" y="291.832536"/>
     <use style="fill:#ff0000;stroke:#ff0000;" x="361.302171" xlink:href="#me00f7ea7c2" y="291.832536"/>
     <use style="fill:#ff0000;stroke:#ff0000;" x="362.732367" xlink:href="#me00f7ea7c2" y="291.832536"/>
     <use style="fill:#ff0000;stroke:#ff0000;" x="364.162563" xlink:href="#me00f7ea7c2" y="291.832536"/>
     <use style="fill:#ff0000;stroke:#ff0000;" x="365.592759" xlink:href="#me00f7ea7c2" y="291.832536"/>
     <use style="fill:#ff0000;stroke:#ff0000;" x="367.022956" xlink:href="#me00f7ea7c2" y="291.832536"/>
     <use style="fill:#ff0000;stroke:#ff0000;" x="368.453152" xlink:href="#me00f7ea7c2" y="291.832536"/>
     <use style="fill:#ff0000;stroke:#ff0000;" x="369.883348" xlink:href="#me00f7ea7c2" y="291.832536"/>
     <use style="fill:#ff0000;stroke:#ff0000;" x="371.313544" xlink:href="#me00f7ea7c2" y="291.832536"/>
     <use style="fill:#ff0000;stroke:#ff0000;" x="372.74374" xlink:href="#me00f7ea7c2" y="291.832536"/>
     <use style="fill:#ff0000;stroke:#ff0000;" x="374.173937" xlink:href="#me00f7ea7c2" y="291.832536"/>
     <use style="fill:#ff0000;stroke:#ff0000;" x="375.604133" xlink:href="#me00f7ea7c2" y="291.832536"/>
     <use style="fill:#ff0000;stroke:#ff0000;" x="377.034329" xlink:href="#me00f7ea7c2" y="291.832536"/>
     <use style="fill:#ff0000;stroke:#ff0000;" x="378.464525" xlink:href="#me00f7ea7c2" y="291.832536"/>
     <use style="fill:#ff0000;stroke:#ff0000;" x="379.894722" xlink:href="#me00f7ea7c2" y="291.832536"/>
     <use style="fill:#ff0000;stroke:#ff0000;" x="381.324918" xlink:href="#me00f7ea7c2" y="291.832536"/>
     <use style="fill:#ff0000;stroke:#ff0000;" x="382.755114" xlink:href="#me00f7ea7c2" y="291.832536"/>
     <use style="fill:#ff0000;stroke:#ff0000;" x="384.18531" xlink:href="#me00f7ea7c2" y="291.832536"/>
     <use style="fill:#ff0000;stroke:#ff0000;" x="385.615507" xlink:href="#me00f7ea7c2" y="291.832536"/>
     <use style="fill:#ff0000;stroke:#ff0000;" x="387.045703" xlink:href="#me00f7ea7c2" y="291.832536"/>
     <use style="fill:#ff0000;stroke:#ff0000;" x="388.475899" xlink:href="#me00f7ea7c2" y="291.832536"/>
     <use style="fill:#ff0000;stroke:#ff0000;" x="389.906095" xlink:href="#me00f7ea7c2" y="291.832536"/>
     <use style="fill:#ff0000;stroke:#ff0000;" x="391.336292" xlink:href="#me00f7ea7c2" y="291.832536"/>
     <use style="fill:#ff0000;stroke:#ff0000;" x="392.766488" xlink:href="#me00f7ea7c2" y="291.832536"/>
     <use style="fill:#ff0000;stroke:#ff0000;" x="394.196684" xlink:href="#me00f7ea7c2" y="291.832536"/>
     <use style="fill:#ff0000;stroke:#ff0000;" x="395.62688" xlink:href="#me00f7ea7c2" y="291.832536"/>
     <use style="fill:#ff0000;stroke:#ff0000;" x="397.057076" xlink:href="#me00f7ea7c2" y="291.832536"/>
     <use style="fill:#ff0000;stroke:#ff0000;" x="398.487273" xlink:href="#me00f7ea7c2" y="291.832536"/>
    </g>
   </g>
   <g id="patch_3">
    <path d="M 57.6 307.584 
L 57.6 41.472 
" style="fill:none;stroke:#000000;stroke-linecap:square;stroke-linejoin:miter;stroke-width:0.8;"/>
   </g>
   <g id="patch_4">
    <path d="M 414.72 307.584 
L 414.72 41.472 
" style="fill:none;stroke:#000000;stroke-linecap:square;stroke-linejoin:miter;stroke-width:0.8;"/>
   </g>
   <g id="patch_5">
    <path d="M 57.6 307.584 
L 414.72 307.584 
" style="fill:none;stroke:#000000;stroke-linecap:square;stroke-linejoin:miter;stroke-width:0.8;"/>
   </g>
   <g id="patch_6">
    <path d="M 57.6 41.472 
L 414.72 41.472 
" style="fill:none;stroke:#000000;stroke-linecap:square;stroke-linejoin:miter;stroke-width:0.8;"/>
   </g>
  </g>
 </g>
 <defs>
  <clipPath id="p35c6c3cf5b">
   <rect height="266.112" width="357.12" x="57.6" y="41.472"/>
  </clipPath>
 </defs>
</svg>
