<?xml version="1.0" encoding="utf-8" standalone="no"?>
<!DOCTYPE svg PUBLIC "-//W3C//DTD SVG 1.1//EN"
  "http://www.w3.org/Graphics/SVG/1.1/DTD/svg11.dtd">
<!-- Created with matplotlib (https://matplotlib.org/) -->
<svg height="345.6pt" version="1.1" viewBox="0 0 460.8 345.6" width="460.8pt" xmlns="http://www.w3.org/2000/svg" xmlns:xlink="http://www.w3.org/1999/xlink">
 <defs>
  <style type="text/css">
*{stroke-linecap:butt;stroke-linejoin:round;}
  </style>
 </defs>
 <g id="figure_1">
  <g id="patch_1">
   <path d="M 0 345.6 
L 460.8 345.6 
L 460.8 0 
L 0 0 
z
" style="fill:#ffffff;"/>
  </g>
  <g id="axes_1">
   <g id="patch_2">
    <path d="M 57.6 307.584 
L 414.72 307.584 
L 414.72 41.472 
L 57.6 41.472 
z
" style="fill:#ffffff;"/>
   </g>
   <g id="line2d_1">
    <path clip-path="url(#p4707b80506)" d="M 73.832727 162.597145 
L 76.526956 162.597145 
L 77.87407 134.690323 
L 83.262527 134.690323 
L 84.609642 106.350418 
L 87.30387 106.350418 
L 88.650985 80.250188 
L 89.998099 80.250188 
L 91.345213 53.568 
L 92.692327 53.568 
L 94.039442 82.873454 
L 95.386556 82.873454 
L 96.73367 113.751243 
L 102.122127 113.751243 
L 103.469242 117.655277 
L 104.816356 117.655277 
L 106.16347 92.514989 
L 108.857699 92.514989 
L 110.204813 119.827833 
L 111.551928 119.827833 
L 112.899042 151.977502 
L 114.246156 151.977502 
L 115.59327 161.262974 
L 116.940385 161.262974 
L 118.287499 151.629175 
L 119.634613 161.286067 
L 122.328842 161.286067 
L 123.675956 170.09693 
L 125.023071 170.09693 
L 126.370185 178.939845 
L 127.717299 178.939845 
L 129.064413 169.252644 
L 130.411528 169.252644 
L 131.758642 160.317586 
L 133.105756 160.317586 
L 134.452871 163.246295 
L 135.799985 172.6804 
L 138.494214 172.6804 
L 139.841328 162.872428 
L 141.188442 162.872428 
L 142.535556 164.717551 
L 143.882671 164.717551 
L 145.229785 173.137008 
L 146.576899 175.701637 
L 150.618242 175.701637 
L 151.965356 184.728439 
L 153.312471 185.921779 
L 154.659585 185.921779 
L 156.006699 194.140902 
L 158.700928 194.140902 
L 160.048042 185.748199 
L 164.089385 185.699163 
L 165.436499 194.616143 
L 169.477842 194.616143 
L 170.824957 192.556383 
L 172.172071 191.343052 
L 174.8663 191.343052 
L 176.213414 199.751734 
L 177.560528 199.751734 
L 178.907642 208.600851 
L 180.254757 199.325177 
L 181.601871 199.325177 
L 182.948985 208.052646 
L 186.990328 208.052646 
L 188.337442 197.908863 
L 189.684557 197.908863 
L 191.031671 188.559654 
L 192.378785 188.559654 
L 193.7259 179.306981 
L 195.073014 179.306981 
L 196.420128 188.516846 
L 197.767243 188.516846 
L 199.114357 188.88403 
L 200.461471 188.88403 
L 201.808585 197.747775 
L 203.1557 197.747775 
L 204.502814 206.635861 
L 205.849928 206.635861 
L 207.197043 214.854832 
L 208.544157 214.854832 
L 209.891271 206.061785 
L 211.238386 206.061785 
L 212.5855 196.954359 
L 213.932614 205.667864 
L 215.279728 205.667864 
L 216.626843 214.299528 
L 217.973957 214.299528 
L 219.321071 223.689057 
L 230.097986 223.689057 
L 231.4451 213.447499 
L 234.139329 213.447499 
L 235.486443 223.177677 
L 236.833557 223.177677 
L 238.180671 220.377257 
L 240.8749 220.377257 
L 242.222014 230.362941 
L 243.569129 230.362941 
L 244.916243 229.34141 
L 246.263357 229.34141 
L 247.610472 237.984901 
L 248.957586 227.882946 
L 250.3047 227.882946 
L 251.651814 236.664439 
L 252.998929 236.664439 
L 254.346043 245.823389 
L 255.693157 243.259969 
L 257.040272 243.259969 
L 258.387386 233.483015 
L 259.7345 233.483015 
L 261.081614 241.819791 
L 262.428729 241.819791 
L 263.775843 232.911549 
L 265.122957 232.911549 
L 266.470072 242.49942 
L 267.817186 242.49942 
L 269.1643 232.158533 
L 270.511415 232.158533 
L 271.858529 239.930634 
L 273.205643 239.930634 
L 274.552757 249.041077 
L 275.899872 256.71693 
L 278.5941 256.71693 
L 279.941215 255.901124 
L 282.635443 255.901124 
L 283.982558 264.100168 
L 285.329672 273.513504 
L 288.0239 273.513504 
L 289.371015 281.163616 
L 290.718129 271.434362 
L 294.759472 271.368584 
L 296.106586 279.908006 
L 297.4537 279.908006 
L 298.800815 287.87339 
L 300.147929 287.87339 
L 301.495043 295.257703 
L 302.842158 295.257703 
L 304.189272 294.52543 
L 305.536386 294.52543 
L 306.883501 285.02704 
L 310.924843 285.02704 
L 312.271958 294.959462 
L 313.619072 295.488 
L 314.966186 295.488 
L 316.313301 286.197254 
L 319.007529 286.197254 
L 320.354644 294.080409 
L 321.701758 294.080409 
L 323.048872 291.832536 
L 398.487273 291.832536 
L 398.487273 291.832536 
" style="fill:none;stroke:#ff0000;stroke-linecap:square;stroke-width:12;"/>
    <defs>
     <path d="M 0 3 
C 0.795609 3 1.55874 2.683901 2.12132 2.12132 
C 2.683901 1.55874 3 0.795609 3 0 
C 3 -0.795609 2.683901 -1.55874 2.12132 -2.12132 
C 1.55874 -2.683901 0.795609 -3 0 -3 
C -0.795609 -3 -1.55874 -2.683901 -2.12132 -2.12132 
C -2.683901 -1.55874 -3 -0.795609 -3 0 
C -3 0.795609 -2.683901 1.55874 -2.12132 2.12132 
C -1.55874 2.683901 -0.795609 3 0 3 
z
" id="m0ad328fa63" style="stroke:#ff0000;"/>
    </defs>
    <g clip-path="url(#p4707b80506)">
     <use style="fill:#ff0000;stroke:#ff0000;" x="73.832727" xlink:href="#m0ad328fa63" y="162.597145"/>
     <use style="fill:#ff0000;stroke:#ff0000;" x="75.179842" xlink:href="#m0ad328fa63" y="162.597145"/>
     <use style="fill:#ff0000;stroke:#ff0000;" x="76.526956" xlink:href="#m0ad328fa63" y="162.597145"/>
     <use style="fill:#ff0000;stroke:#ff0000;" x="77.87407" xlink:href="#m0ad328fa63" y="134.690323"/>
     <use style="fill:#ff0000;stroke:#ff0000;" x="79.221184" xlink:href="#m0ad328fa63" y="134.690323"/>
     <use style="fill:#ff0000;stroke:#ff0000;" x="80.568299" xlink:href="#m0ad328fa63" y="134.690323"/>
     <use style="fill:#ff0000;stroke:#ff0000;" x="81.915413" xlink:href="#m0ad328fa63" y="134.690323"/>
     <use style="fill:#ff0000;stroke:#ff0000;" x="83.262527" xlink:href="#m0ad328fa63" y="134.690323"/>
     <use style="fill:#ff0000;stroke:#ff0000;" x="84.609642" xlink:href="#m0ad328fa63" y="106.350418"/>
     <use style="fill:#ff0000;stroke:#ff0000;" x="85.956756" xlink:href="#m0ad328fa63" y="106.350418"/>
     <use style="fill:#ff0000;stroke:#ff0000;" x="87.30387" xlink:href="#m0ad328fa63" y="106.350418"/>
     <use style="fill:#ff0000;stroke:#ff0000;" x="88.650985" xlink:href="#m0ad328fa63" y="80.250188"/>
     <use style="fill:#ff0000;stroke:#ff0000;" x="89.998099" xlink:href="#m0ad328fa63" y="80.250188"/>
     <use style="fill:#ff0000;stroke:#ff0000;" x="91.345213" xlink:href="#m0ad328fa63" y="53.568"/>
     <use style="fill:#ff0000;stroke:#ff0000;" x="92.692327" xlink:href="#m0ad328fa63" y="53.568"/>
     <use style="fill:#ff0000;stroke:#ff0000;" x="94.039442" xlink:href="#m0ad328fa63" y="82.873454"/>
     <use style="fill:#ff0000;stroke:#ff0000;" x="95.386556" xlink:href="#m0ad328fa63" y="82.873454"/>
     <use style="fill:#ff0000;stroke:#ff0000;" x="96.73367" xlink:href="#m0ad328fa63" y="113.751243"/>
     <use style="fill:#ff0000;stroke:#ff0000;" x="98.080785" xlink:href="#m0ad328fa63" y="113.751243"/>
     <use style="fill:#ff0000;stroke:#ff0000;" x="99.427899" xlink:href="#m0ad328fa63" y="113.751243"/>
     <use style="fill:#ff0000;stroke:#ff0000;" x="100.775013" xlink:href="#m0ad328fa63" y="113.751243"/>
     <use style="fill:#ff0000;stroke:#ff0000;" x="102.122127" xlink:href="#m0ad328fa63" y="113.751243"/>
     <use style="fill:#ff0000;stroke:#ff0000;" x="103.469242" xlink:href="#m0ad328fa63" y="117.655277"/>
     <use style="fill:#ff0000;stroke:#ff0000;" x="104.816356" xlink:href="#m0ad328fa63" y="117.655277"/>
     <use style="fill:#ff0000;stroke:#ff0000;" x="106.16347" xlink:href="#m0ad328fa63" y="92.514989"/>
     <use style="fill:#ff0000;stroke:#ff0000;" x="107.510585" xlink:href="#m0ad328fa63" y="92.514989"/>
     <use style="fill:#ff0000;stroke:#ff0000;" x="108.857699" xlink:href="#m0ad328fa63" y="92.514989"/>
     <use style="fill:#ff0000;stroke:#ff0000;" x="110.204813" xlink:href="#m0ad328fa63" y="119.827833"/>
     <use style="fill:#ff0000;stroke:#ff0000;" x="111.551928" xlink:href="#m0ad328fa63" y="119.827833"/>
     <use style="fill:#ff0000;stroke:#ff0000;" x="112.899042" xlink:href="#m0ad328fa63" y="151.977502"/>
     <use style="fill:#ff0000;stroke:#ff0000;" x="114.246156" xlink:href="#m0ad328fa63" y="151.977502"/>
     <use style="fill:#ff0000;stroke:#ff0000;" x="115.59327" xlink:href="#m0ad328fa63" y="161.262974"/>
     <use style="fill:#ff0000;stroke:#ff0000;" x="116.940385" xlink:href="#m0ad328fa63" y="161.262974"/>
     <use style="fill:#ff0000;stroke:#ff0000;" x="118.287499" xlink:href="#m0ad328fa63" y="151.629175"/>
     <use style="fill:#ff0000;stroke:#ff0000;" x="119.634613" xlink:href="#m0ad328fa63" y="161.286067"/>
     <use style="fill:#ff0000;stroke:#ff0000;" x="120.981728" xlink:href="#m0ad328fa63" y="161.286067"/>
     <use style="fill:#ff0000;stroke:#ff0000;" x="122.328842" xlink:href="#m0ad328fa63" y="161.286067"/>
     <use style="fill:#ff0000;stroke:#ff0000;" x="123.675956" xlink:href="#m0ad328fa63" y="170.09693"/>
     <use style="fill:#ff0000;stroke:#ff0000;" x="125.023071" xlink:href="#m0ad328fa63" y="170.09693"/>
     <use style="fill:#ff0000;stroke:#ff0000;" x="126.370185" xlink:href="#m0ad328fa63" y="178.939845"/>
     <use style="fill:#ff0000;stroke:#ff0000;" x="127.717299" xlink:href="#m0ad328fa63" y="178.939845"/>
     <use style="fill:#ff0000;stroke:#ff0000;" x="129.064413" xlink:href="#m0ad328fa63" y="169.252644"/>
     <use style="fill:#ff0000;stroke:#ff0000;" x="130.411528" xlink:href="#m0ad328fa63" y="169.252644"/>
     <use style="fill:#ff0000;stroke:#ff0000;" x="131.758642" xlink:href="#m0ad328fa63" y="160.317586"/>
     <use style="fill:#ff0000;stroke:#ff0000;" x="133.105756" xlink:href="#m0ad328fa63" y="160.317586"/>
     <use style="fill:#ff0000;stroke:#ff0000;" x="134.452871" xlink:href="#m0ad328fa63" y="163.246295"/>
     <use style="fill:#ff0000;stroke:#ff0000;" x="135.799985" xlink:href="#m0ad328fa63" y="172.6804"/>
     <use style="fill:#ff0000;stroke:#ff0000;" x="137.147099" xlink:href="#m0ad328fa63" y="172.6804"/>
     <use style="fill:#ff0000;stroke:#ff0000;" x="138.494214" xlink:href="#m0ad328fa63" y="172.6804"/>
     <use style="fill:#ff0000;stroke:#ff0000;" x="139.841328" xlink:href="#m0ad328fa63" y="162.872428"/>
     <use style="fill:#ff0000;stroke:#ff0000;" x="141.188442" xlink:href="#m0ad328fa63" y="162.872428"/>
     <use style="fill:#ff0000;stroke:#ff0000;" x="142.535556" xlink:href="#m0ad328fa63" y="164.717551"/>
     <use style="fill:#ff0000;stroke:#ff0000;" x="143.882671" xlink:href="#m0ad328fa63" y="164.717551"/>
     <use style="fill:#ff0000;stroke:#ff0000;" x="145.229785" xlink:href="#m0ad328fa63" y="173.137008"/>
     <use style="fill:#ff0000;stroke:#ff0000;" x="146.576899" xlink:href="#m0ad328fa63" y="175.701637"/>
     <use style="fill:#ff0000;stroke:#ff0000;" x="147.924014" xlink:href="#m0ad328fa63" y="175.701637"/>
     <use style="fill:#ff0000;stroke:#ff0000;" x="149.271128" xlink:href="#m0ad328fa63" y="175.701637"/>
     <use style="fill:#ff0000;stroke:#ff0000;" x="150.618242" xlink:href="#m0ad328fa63" y="175.701637"/>
     <use style="fill:#ff0000;stroke:#ff0000;" x="151.965356" xlink:href="#m0ad328fa63" y="184.728439"/>
     <use style="fill:#ff0000;stroke:#ff0000;" x="153.312471" xlink:href="#m0ad328fa63" y="185.921779"/>
     <use style="fill:#ff0000;stroke:#ff0000;" x="154.659585" xlink:href="#m0ad328fa63" y="185.921779"/>
     <use style="fill:#ff0000;stroke:#ff0000;" x="156.006699" xlink:href="#m0ad328fa63" y="194.140902"/>
     <use style="fill:#ff0000;stroke:#ff0000;" x="157.353814" xlink:href="#m0ad328fa63" y="194.140902"/>
     <use style="fill:#ff0000;stroke:#ff0000;" x="158.700928" xlink:href="#m0ad328fa63" y="194.140902"/>
     <use style="fill:#ff0000;stroke:#ff0000;" x="160.048042" xlink:href="#m0ad328fa63" y="185.748199"/>
     <use style="fill:#ff0000;stroke:#ff0000;" x="161.395157" xlink:href="#m0ad328fa63" y="185.748199"/>
     <use style="fill:#ff0000;stroke:#ff0000;" x="162.742271" xlink:href="#m0ad328fa63" y="185.748199"/>
     <use style="fill:#ff0000;stroke:#ff0000;" x="164.089385" xlink:href="#m0ad328fa63" y="185.699163"/>
     <use style="fill:#ff0000;stroke:#ff0000;" x="165.436499" xlink:href="#m0ad328fa63" y="194.616143"/>
     <use style="fill:#ff0000;stroke:#ff0000;" x="166.783614" xlink:href="#m0ad328fa63" y="194.616143"/>
     <use style="fill:#ff0000;stroke:#ff0000;" x="168.130728" xlink:href="#m0ad328fa63" y="194.616143"/>
     <use style="fill:#ff0000;stroke:#ff0000;" x="169.477842" xlink:href="#m0ad328fa63" y="194.616143"/>
     <use style="fill:#ff0000;stroke:#ff0000;" x="170.824957" xlink:href="#m0ad328fa63" y="192.556383"/>
     <use style="fill:#ff0000;stroke:#ff0000;" x="172.172071" xlink:href="#m0ad328fa63" y="191.343052"/>
     <use style="fill:#ff0000;stroke:#ff0000;" x="173.519185" xlink:href="#m0ad328fa63" y="191.343052"/>
     <use style="fill:#ff0000;stroke:#ff0000;" x="174.8663" xlink:href="#m0ad328fa63" y="191.343052"/>
     <use style="fill:#ff0000;stroke:#ff0000;" x="176.213414" xlink:href="#m0ad328fa63" y="199.751734"/>
     <use style="fill:#ff0000;stroke:#ff0000;" x="177.560528" xlink:href="#m0ad328fa63" y="199.751734"/>
     <use style="fill:#ff0000;stroke:#ff0000;" x="178.907642" xlink:href="#m0ad328fa63" y="208.600851"/>
     <use style="fill:#ff0000;stroke:#ff0000;" x="180.254757" xlink:href="#m0ad328fa63" y="199.325177"/>
     <use style="fill:#ff0000;stroke:#ff0000;" x="181.601871" xlink:href="#m0ad328fa63" y="199.325177"/>
     <use style="fill:#ff0000;stroke:#ff0000;" x="182.948985" xlink:href="#m0ad328fa63" y="208.052646"/>
     <use style="fill:#ff0000;stroke:#ff0000;" x="184.2961" xlink:href="#m0ad328fa63" y="208.052646"/>
     <use style="fill:#ff0000;stroke:#ff0000;" x="185.643214" xlink:href="#m0ad328fa63" y="208.052646"/>
     <use style="fill:#ff0000;stroke:#ff0000;" x="186.990328" xlink:href="#m0ad328fa63" y="208.052646"/>
     <use style="fill:#ff0000;stroke:#ff0000;" x="188.337442" xlink:href="#m0ad328fa63" y="197.908863"/>
     <use style="fill:#ff0000;stroke:#ff0000;" x="189.684557" xlink:href="#m0ad328fa63" y="197.908863"/>
     <use style="fill:#ff0000;stroke:#ff0000;" x="191.031671" xlink:href="#m0ad328fa63" y="188.559654"/>
     <use style="fill:#ff0000;stroke:#ff0000;" x="192.378785" xlink:href="#m0ad328fa63" y="188.559654"/>
     <use style="fill:#ff0000;stroke:#ff0000;" x="193.7259" xlink:href="#m0ad328fa63" y="179.306981"/>
     <use style="fill:#ff0000;stroke:#ff0000;" x="195.073014" xlink:href="#m0ad328fa63" y="179.306981"/>
     <use style="fill:#ff0000;stroke:#ff0000;" x="196.420128" xlink:href="#m0ad328fa63" y="188.516846"/>
     <use style="fill:#ff0000;stroke:#ff0000;" x="197.767243" xlink:href="#m0ad328fa63" y="188.516846"/>
     <use style="fill:#ff0000;stroke:#ff0000;" x="199.114357" xlink:href="#m0ad328fa63" y="188.88403"/>
     <use style="fill:#ff0000;stroke:#ff0000;" x="200.461471" xlink:href="#m0ad328fa63" y="188.88403"/>
     <use style="fill:#ff0000;stroke:#ff0000;" x="201.808585" xlink:href="#m0ad328fa63" y="197.747775"/>
     <use style="fill:#ff0000;stroke:#ff0000;" x="203.1557" xlink:href="#m0ad328fa63" y="197.747775"/>
     <use style="fill:#ff0000;stroke:#ff0000;" x="204.502814" xlink:href="#m0ad328fa63" y="206.635861"/>
     <use style="fill:#ff0000;stroke:#ff0000;" x="205.849928" xlink:href="#m0ad328fa63" y="206.635861"/>
     <use style="fill:#ff0000;stroke:#ff0000;" x="207.197043" xlink:href="#m0ad328fa63" y="214.854832"/>
     <use style="fill:#ff0000;stroke:#ff0000;" x="208.544157" xlink:href="#m0ad328fa63" y="214.854832"/>
     <use style="fill:#ff0000;stroke:#ff0000;" x="209.891271" xlink:href="#m0ad328fa63" y="206.061785"/>
     <use style="fill:#ff0000;stroke:#ff0000;" x="211.238386" xlink:href="#m0ad328fa63" y="206.061785"/>
     <use style="fill:#ff0000;stroke:#ff0000;" x="212.5855" xlink:href="#m0ad328fa63" y="196.954359"/>
     <use style="fill:#ff0000;stroke:#ff0000;" x="213.932614" xlink:href="#m0ad328fa63" y="205.667864"/>
     <use style="fill:#ff0000;stroke:#ff0000;" x="215.279728" xlink:href="#m0ad328fa63" y="205.667864"/>
     <use style="fill:#ff0000;stroke:#ff0000;" x="216.626843" xlink:href="#m0ad328fa63" y="214.299528"/>
     <use style="fill:#ff0000;stroke:#ff0000;" x="217.973957" xlink:href="#m0ad328fa63" y="214.299528"/>
     <use style="fill:#ff0000;stroke:#ff0000;" x="219.321071" xlink:href="#m0ad328fa63" y="223.689057"/>
     <use style="fill:#ff0000;stroke:#ff0000;" x="220.668186" xlink:href="#m0ad328fa63" y="223.689057"/>
     <use style="fill:#ff0000;stroke:#ff0000;" x="222.0153" xlink:href="#m0ad328fa63" y="223.689057"/>
     <use style="fill:#ff0000;stroke:#ff0000;" x="223.362414" xlink:href="#m0ad328fa63" y="223.689057"/>
     <use style="fill:#ff0000;stroke:#ff0000;" x="224.709528" xlink:href="#m0ad328fa63" y="223.689057"/>
     <use style="fill:#ff0000;stroke:#ff0000;" x="226.056643" xlink:href="#m0ad328fa63" y="223.689057"/>
     <use style="fill:#ff0000;stroke:#ff0000;" x="227.403757" xlink:href="#m0ad328fa63" y="223.689057"/>
     <use style="fill:#ff0000;stroke:#ff0000;" x="228.750871" xlink:href="#m0ad328fa63" y="223.689057"/>
     <use style="fill:#ff0000;stroke:#ff0000;" x="230.097986" xlink:href="#m0ad328fa63" y="223.689057"/>
     <use style="fill:#ff0000;stroke:#ff0000;" x="231.4451" xlink:href="#m0ad328fa63" y="213.447499"/>
     <use style="fill:#ff0000;stroke:#ff0000;" x="232.792214" xlink:href="#m0ad328fa63" y="213.447499"/>
     <use style="fill:#ff0000;stroke:#ff0000;" x="234.139329" xlink:href="#m0ad328fa63" y="213.447499"/>
     <use style="fill:#ff0000;stroke:#ff0000;" x="235.486443" xlink:href="#m0ad328fa63" y="223.177677"/>
     <use style="fill:#ff0000;stroke:#ff0000;" x="236.833557" xlink:href="#m0ad328fa63" y="223.177677"/>
     <use style="fill:#ff0000;stroke:#ff0000;" x="238.180671" xlink:href="#m0ad328fa63" y="220.377257"/>
     <use style="fill:#ff0000;stroke:#ff0000;" x="239.527786" xlink:href="#m0ad328fa63" y="220.377257"/>
     <use style="fill:#ff0000;stroke:#ff0000;" x="240.8749" xlink:href="#m0ad328fa63" y="220.377257"/>
     <use style="fill:#ff0000;stroke:#ff0000;" x="242.222014" xlink:href="#m0ad328fa63" y="230.362941"/>
     <use style="fill:#ff0000;stroke:#ff0000;" x="243.569129" xlink:href="#m0ad328fa63" y="230.362941"/>
     <use style="fill:#ff0000;stroke:#ff0000;" x="244.916243" xlink:href="#m0ad328fa63" y="229.34141"/>
     <use style="fill:#ff0000;stroke:#ff0000;" x="246.263357" xlink:href="#m0ad328fa63" y="229.34141"/>
     <use style="fill:#ff0000;stroke:#ff0000;" x="247.610472" xlink:href="#m0ad328fa63" y="237.984901"/>
     <use style="fill:#ff0000;stroke:#ff0000;" x="248.957586" xlink:href="#m0ad328fa63" y="227.882946"/>
     <use style="fill:#ff0000;stroke:#ff0000;" x="250.3047" xlink:href="#m0ad328fa63" y="227.882946"/>
     <use style="fill:#ff0000;stroke:#ff0000;" x="251.651814" xlink:href="#m0ad328fa63" y="236.664439"/>
     <use style="fill:#ff0000;stroke:#ff0000;" x="252.998929" xlink:href="#m0ad328fa63" y="236.664439"/>
     <use style="fill:#ff0000;stroke:#ff0000;" x="254.346043" xlink:href="#m0ad328fa63" y="245.823389"/>
     <use style="fill:#ff0000;stroke:#ff0000;" x="255.693157" xlink:href="#m0ad328fa63" y="243.259969"/>
     <use style="fill:#ff0000;stroke:#ff0000;" x="257.040272" xlink:href="#m0ad328fa63" y="243.259969"/>
     <use style="fill:#ff0000;stroke:#ff0000;" x="258.387386" xlink:href="#m0ad328fa63" y="233.483015"/>
     <use style="fill:#ff0000;stroke:#ff0000;" x="259.7345" xlink:href="#m0ad328fa63" y="233.483015"/>
     <use style="fill:#ff0000;stroke:#ff0000;" x="261.081614" xlink:href="#m0ad328fa63" y="241.819791"/>
     <use style="fill:#ff0000;stroke:#ff0000;" x="262.428729" xlink:href="#m0ad328fa63" y="241.819791"/>
     <use style="fill:#ff0000;stroke:#ff0000;" x="263.775843" xlink:href="#m0ad328fa63" y="232.911549"/>
     <use style="fill:#ff0000;stroke:#ff0000;" x="265.122957" xlink:href="#m0ad328fa63" y="232.911549"/>
     <use style="fill:#ff0000;stroke:#ff0000;" x="266.470072" xlink:href="#m0ad328fa63" y="242.49942"/>
     <use style="fill:#ff0000;stroke:#ff0000;" x="267.817186" xlink:href="#m0ad328fa63" y="242.49942"/>
     <use style="fill:#ff0000;stroke:#ff0000;" x="269.1643" xlink:href="#m0ad328fa63" y="232.158533"/>
     <use style="fill:#ff0000;stroke:#ff0000;" x="270.511415" xlink:href="#m0ad328fa63" y="232.158533"/>
     <use style="fill:#ff0000;stroke:#ff0000;" x="271.858529" xlink:href="#m0ad328fa63" y="239.930634"/>
     <use style="fill:#ff0000;stroke:#ff0000;" x="273.205643" xlink:href="#m0ad328fa63" y="239.930634"/>
     <use style="fill:#ff0000;stroke:#ff0000;" x="274.552757" xlink:href="#m0ad328fa63" y="249.041077"/>
     <use style="fill:#ff0000;stroke:#ff0000;" x="275.899872" xlink:href="#m0ad328fa63" y="256.71693"/>
     <use style="fill:#ff0000;stroke:#ff0000;" x="277.246986" xlink:href="#m0ad328fa63" y="256.71693"/>
     <use style="fill:#ff0000;stroke:#ff0000;" x="278.5941" xlink:href="#m0ad328fa63" y="256.71693"/>
     <use style="fill:#ff0000;stroke:#ff0000;" x="279.941215" xlink:href="#m0ad328fa63" y="255.901124"/>
     <use style="fill:#ff0000;stroke:#ff0000;" x="281.288329" xlink:href="#m0ad328fa63" y="255.901124"/>
     <use style="fill:#ff0000;stroke:#ff0000;" x="282.635443" xlink:href="#m0ad328fa63" y="255.901124"/>
     <use style="fill:#ff0000;stroke:#ff0000;" x="283.982558" xlink:href="#m0ad328fa63" y="264.100168"/>
     <use style="fill:#ff0000;stroke:#ff0000;" x="285.329672" xlink:href="#m0ad328fa63" y="273.513504"/>
     <use style="fill:#ff0000;stroke:#ff0000;" x="286.676786" xlink:href="#m0ad328fa63" y="273.513504"/>
     <use style="fill:#ff0000;stroke:#ff0000;" x="288.0239" xlink:href="#m0ad328fa63" y="273.513504"/>
     <use style="fill:#ff0000;stroke:#ff0000;" x="289.371015" xlink:href="#m0ad328fa63" y="281.163616"/>
     <use style="fill:#ff0000;stroke:#ff0000;" x="290.718129" xlink:href="#m0ad328fa63" y="271.434362"/>
     <use style="fill:#ff0000;stroke:#ff0000;" x="292.065243" xlink:href="#m0ad328fa63" y="271.434362"/>
     <use style="fill:#ff0000;stroke:#ff0000;" x="293.412358" xlink:href="#m0ad328fa63" y="271.368584"/>
     <use style="fill:#ff0000;stroke:#ff0000;" x="294.759472" xlink:href="#m0ad328fa63" y="271.368584"/>
     <use style="fill:#ff0000;stroke:#ff0000;" x="296.106586" xlink:href="#m0ad328fa63" y="279.908006"/>
     <use style="fill:#ff0000;stroke:#ff0000;" x="297.4537" xlink:href="#m0ad328fa63" y="279.908006"/>
     <use style="fill:#ff0000;stroke:#ff0000;" x="298.800815" xlink:href="#m0ad328fa63" y="287.87339"/>
     <use style="fill:#ff0000;stroke:#ff0000;" x="300.147929" xlink:href="#m0ad328fa63" y="287.87339"/>
     <use style="fill:#ff0000;stroke:#ff0000;" x="301.495043" xlink:href="#m0ad328fa63" y="295.257703"/>
     <use style="fill:#ff0000;stroke:#ff0000;" x="302.842158" xlink:href="#m0ad328fa63" y="295.257703"/>
     <use style="fill:#ff0000;stroke:#ff0000;" x="304.189272" xlink:href="#m0ad328fa63" y="294.52543"/>
     <use style="fill:#ff0000;stroke:#ff0000;" x="305.536386" xlink:href="#m0ad328fa63" y="294.52543"/>
     <use style="fill:#ff0000;stroke:#ff0000;" x="306.883501" xlink:href="#m0ad328fa63" y="285.02704"/>
     <use style="fill:#ff0000;stroke:#ff0000;" x="308.230615" xlink:href="#m0ad328fa63" y="285.02704"/>
     <use style="fill:#ff0000;stroke:#ff0000;" x="309.577729" xlink:href="#m0ad328fa63" y="285.02704"/>
     <use style="fill:#ff0000;stroke:#ff0000;" x="310.924843" xlink:href="#m0ad328fa63" y="285.02704"/>
     <use style="fill:#ff0000;stroke:#ff0000;" x="312.271958" xlink:href="#m0ad328fa63" y="294.959462"/>
     <use style="fill:#ff0000;stroke:#ff0000;" x="313.619072" xlink:href="#m0ad328fa63" y="295.488"/>
     <use style="fill:#ff0000;stroke:#ff0000;" x="314.966186" xlink:href="#m0ad328fa63" y="295.488"/>
     <use style="fill:#ff0000;stroke:#ff0000;" x="316.313301" xlink:href="#m0ad328fa63" y="286.197254"/>
     <use style="fill:#ff0000;stroke:#ff0000;" x="317.660415" xlink:href="#m0ad328fa63" y="286.197254"/>
     <use style="fill:#ff0000;stroke:#ff0000;" x="319.007529" xlink:href="#m0ad328fa63" y="286.197254"/>
     <use style="fill:#ff0000;stroke:#ff0000;" x="320.354644" xlink:href="#m0ad328fa63" y="294.080409"/>
     <use style="fill:#ff0000;stroke:#ff0000;" x="321.701758" xlink:href="#m0ad328fa63" y="294.080409"/>
     <use style="fill:#ff0000;stroke:#ff0000;" x="323.048872" xlink:href="#m0ad328fa63" y="291.832536"/>
     <use style="fill:#ff0000;stroke:#ff0000;" x="324.395986" xlink:href="#m0ad328fa63" y="291.832536"/>
     <use style="fill:#ff0000;stroke:#ff0000;" x="325.743101" xlink:href="#m0ad328fa63" y="291.832536"/>
     <use style="fill:#ff0000;stroke:#ff0000;" x="327.090215" xlink:href="#m0ad328fa63" y="291.832536"/>
     <use style="fill:#ff0000;stroke:#ff0000;" x="328.437329" xlink:href="#m0ad328fa63" y="291.832536"/>
     <use style="fill:#ff0000;stroke:#ff0000;" x="329.784444" xlink:href="#m0ad328fa63" y="291.832536"/>
     <use style="fill:#ff0000;stroke:#ff0000;" x="331.131558" xlink:href="#m0ad328fa63" y="291.832536"/>
     <use style="fill:#ff0000;stroke:#ff0000;" x="332.478672" xlink:href="#m0ad328fa63" y="291.832536"/>
     <use style="fill:#ff0000;stroke:#ff0000;" x="333.825786" xlink:href="#m0ad328fa63" y="291.832536"/>
     <use style="fill:#ff0000;stroke:#ff0000;" x="335.172901" xlink:href="#m0ad328fa63" y="291.832536"/>
     <use style="fill:#ff0000;stroke:#ff0000;" x="336.520015" xlink:href="#m0ad328fa63" y="291.832536"/>
     <use style="fill:#ff0000;stroke:#ff0000;" x="337.867129" xlink:href="#m0ad328fa63" y="291.832536"/>
     <use style="fill:#ff0000;stroke:#ff0000;" x="339.214244" xlink:href="#m0ad328fa63" y="291.832536"/>
     <use style="fill:#ff0000;stroke:#ff0000;" x="340.561358" xlink:href="#m0ad328fa63" y="291.832536"/>
     <use style="fill:#ff0000;stroke:#ff0000;" x="341.908472" xlink:href="#m0ad328fa63" y="291.832536"/>
     <use style="fill:#ff0000;stroke:#ff0000;" x="343.255587" xlink:href="#m0ad328fa63" y="291.832536"/>
     <use style="fill:#ff0000;stroke:#ff0000;" x="344.602701" xlink:href="#m0ad328fa63" y="291.832536"/>
     <use style="fill:#ff0000;stroke:#ff0000;" x="345.949815" xlink:href="#m0ad328fa63" y="291.832536"/>
     <use style="fill:#ff0000;stroke:#ff0000;" x="347.296929" xlink:href="#m0ad328fa63" y="291.832536"/>
     <use style="fill:#ff0000;stroke:#ff0000;" x="348.644044" xlink:href="#m0ad328fa63" y="291.832536"/>
     <use style="fill:#ff0000;stroke:#ff0000;" x="349.991158" xlink:href="#m0ad328fa63" y="291.832536"/>
     <use style="fill:#ff0000;stroke:#ff0000;" x="351.338272" xlink:href="#m0ad328fa63" y="291.832536"/>
     <use style="fill:#ff0000;stroke:#ff0000;" x="352.685387" xlink:href="#m0ad328fa63" y="291.832536"/>
     <use style="fill:#ff0000;stroke:#ff0000;" x="354.032501" xlink:href="#m0ad328fa63" y="291.832536"/>
     <use style="fill:#ff0000;stroke:#ff0000;" x="355.379615" xlink:href="#m0ad328fa63" y="291.832536"/>
     <use style="fill:#ff0000;stroke:#ff0000;" x="356.72673" xlink:href="#m0ad328fa63" y="291.832536"/>
     <use style="fill:#ff0000;stroke:#ff0000;" x="358.073844" xlink:href="#m0ad328fa63" y="291.832536"/>
     <use style="fill:#ff0000;stroke:#ff0000;" x="359.420958" xlink:href="#m0ad328fa63" y="291.832536"/>
     <use style="fill:#ff0000;stroke:#ff0000;" x="360.768072" xlink:href="#m0ad328fa63" y="291.832536"/>
     <use style="fill:#ff0000;stroke:#ff0000;" x="362.115187" xlink:href="#m0ad328fa63" y="291.832536"/>
     <use style="fill:#ff0000;stroke:#ff0000;" x="363.462301" xlink:href="#m0ad328fa63" y="291.832536"/>
     <use style="fill:#ff0000;stroke:#ff0000;" x="364.809415" xlink:href="#m0ad328fa63" y="291.832536"/>
     <use style="fill:#ff0000;stroke:#ff0000;" x="366.15653" xlink:href="#m0ad328fa63" y="291.832536"/>
     <use style="fill:#ff0000;stroke:#ff0000;" x="367.503644" xlink:href="#m0ad328fa63" y="291.832536"/>
     <use style="fill:#ff0000;stroke:#ff0000;" x="368.850758" xlink:href="#m0ad328fa63" y="291.832536"/>
     <use style="fill:#ff0000;stroke:#ff0000;" x="370.197873" xlink:href="#m0ad328fa63" y="291.832536"/>
     <use style="fill:#ff0000;stroke:#ff0000;" x="371.544987" xlink:href="#m0ad328fa63" y="291.832536"/>
     <use style="fill:#ff0000;stroke:#ff0000;" x="372.892101" xlink:href="#m0ad328fa63" y="291.832536"/>
     <use style="fill:#ff0000;stroke:#ff0000;" x="374.239215" xlink:href="#m0ad328fa63" y="291.832536"/>
     <use style="fill:#ff0000;stroke:#ff0000;" x="375.58633" xlink:href="#m0ad328fa63" y="291.832536"/>
     <use style="fill:#ff0000;stroke:#ff0000;" x="376.933444" xlink:href="#m0ad328fa63" y="291.832536"/>
     <use style="fill:#ff0000;stroke:#ff0000;" x="378.280558" xlink:href="#m0ad328fa63" y="291.832536"/>
     <use style="fill:#ff0000;stroke:#ff0000;" x="379.627673" xlink:href="#m0ad328fa63" y="291.832536"/>
     <use style="fill:#ff0000;stroke:#ff0000;" x="380.974787" xlink:href="#m0ad328fa63" y="291.832536"/>
     <use style="fill:#ff0000;stroke:#ff0000;" x="382.321901" xlink:href="#m0ad328fa63" y="291.832536"/>
     <use style="fill:#ff0000;stroke:#ff0000;" x="383.669015" xlink:href="#m0ad328fa63" y="291.832536"/>
     <use style="fill:#ff0000;stroke:#ff0000;" x="385.01613" xlink:href="#m0ad328fa63" y="291.832536"/>
     <use style="fill:#ff0000;stroke:#ff0000;" x="386.363244" xlink:href="#m0ad328fa63" y="291.832536"/>
     <use style="fill:#ff0000;stroke:#ff0000;" x="387.710358" xlink:href="#m0ad328fa63" y="291.832536"/>
     <use style="fill:#ff0000;stroke:#ff0000;" x="389.057473" xlink:href="#m0ad328fa63" y="291.832536"/>
     <use style="fill:#ff0000;stroke:#ff0000;" x="390.404587" xlink:href="#m0ad328fa63" y="291.832536"/>
     <use style="fill:#ff0000;stroke:#ff0000;" x="391.751701" xlink:href="#m0ad328fa63" y="291.832536"/>
     <use style="fill:#ff0000;stroke:#ff0000;" x="393.098816" xlink:href="#m0ad328fa63" y="291.832536"/>
     <use style="fill:#ff0000;stroke:#ff0000;" x="394.44593" xlink:href="#m0ad328fa63" y="291.832536"/>
     <use style="fill:#ff0000;stroke:#ff0000;" x="395.793044" xlink:href="#m0ad328fa63" y="291.832536"/>
     <use style="fill:#ff0000;stroke:#ff0000;" x="397.140158" xlink:href="#m0ad328fa63" y="291.832536"/>
     <use style="fill:#ff0000;stroke:#ff0000;" x="398.487273" xlink:href="#m0ad328fa63" y="291.832536"/>
    </g>
   </g>
   <g id="patch_3">
    <path d="M 57.6 307.584 
L 57.6 41.472 
" style="fill:none;stroke:#000000;stroke-linecap:square;stroke-linejoin:miter;stroke-width:0.8;"/>
   </g>
   <g id="patch_4">
    <path d="M 414.72 307.584 
L 414.72 41.472 
" style="fill:none;stroke:#000000;stroke-linecap:square;stroke-linejoin:miter;stroke-width:0.8;"/>
   </g>
   <g id="patch_5">
    <path d="M 57.6 307.584 
L 414.72 307.584 
" style="fill:none;stroke:#000000;stroke-linecap:square;stroke-linejoin:miter;stroke-width:0.8;"/>
   </g>
   <g id="patch_6">
    <path d="M 57.6 41.472 
L 414.72 41.472 
" style="fill:none;stroke:#000000;stroke-linecap:square;stroke-linejoin:miter;stroke-width:0.8;"/>
   </g>
  </g>
 </g>
 <defs>
  <clipPath id="p4707b80506">
   <rect height="266.112" width="357.12" x="57.6" y="41.472"/>
  </clipPath>
 </defs>
</svg>
