<?xml version="1.0" encoding="utf-8" standalone="no"?>
<!DOCTYPE svg PUBLIC "-//W3C//DTD SVG 1.1//EN"
  "http://www.w3.org/Graphics/SVG/1.1/DTD/svg11.dtd">
<!-- Created with matplotlib (https://matplotlib.org/) -->
<svg height="345.6pt" version="1.1" viewBox="0 0 460.8 345.6" width="460.8pt" xmlns="http://www.w3.org/2000/svg" xmlns:xlink="http://www.w3.org/1999/xlink">
 <defs>
  <style type="text/css">
*{stroke-linecap:butt;stroke-linejoin:round;}
  </style>
 </defs>
 <g id="figure_1">
  <g id="patch_1">
   <path d="M 0 345.6 
L 460.8 345.6 
L 460.8 0 
L 0 0 
z
" style="fill:#ffffff;"/>
  </g>
  <g id="axes_1">
   <g id="patch_2">
    <path d="M 57.6 307.584 
L 414.72 307.584 
L 414.72 41.472 
L 57.6 41.472 
z
" style="fill:#ffffff;"/>
   </g>
   <g id="line2d_1">
    <path clip-path="url(#p685ef3667b)" d="M 73.832727 254.667745 
L 79.335347 254.667745 
L 84.837966 254.667745 
L 90.340586 203.194766 
L 95.843205 203.194766 
L 101.345824 203.194766 
L 106.848444 203.194766 
L 112.351063 203.194766 
L 117.853683 150.922985 
L 123.356302 150.922985 
L 128.858921 150.922985 
L 134.361541 102.782191 
L 139.86416 102.782191 
L 145.36678 53.568 
L 150.869399 53.568 
L 156.372018 107.620696 
L 161.874638 107.620696 
L 167.377257 164.5735 
L 172.879877 164.5735 
L 178.382496 164.5735 
L 183.885116 164.5735 
L 189.387735 164.5735 
L 194.890354 171.77433 
L 200.392974 171.77433 
L 205.895593 125.40411 
L 211.398213 125.40411 
L 216.900832 125.40411 
L 222.403451 175.781519 
L 227.906071 175.781519 
L 233.40869 235.080253 
L 238.91131 235.080253 
L 244.413929 252.206921 
L 249.916549 252.206921 
L 255.419168 234.437777 
L 260.921787 252.249515 
L 266.424407 252.249515 
L 271.927026 252.249515 
L 277.429646 268.500787 
L 282.932265 268.500787 
L 288.434884 284.811178 
L 293.937504 284.811178 
L 299.440123 266.943537 
L 304.942743 266.943537 
L 310.445362 250.463192 
L 315.947982 250.463192 
L 321.450601 255.865076 
L 326.95322 273.26589 
L 332.45584 273.26589 
L 337.958459 273.26589 
L 343.461079 255.175493 
L 348.963698 255.175493 
L 354.466317 258.578745 
L 359.968937 258.578745 
L 365.471556 274.108086 
L 370.974176 278.838437 
L 376.476795 278.838437 
L 381.979414 278.838437 
L 387.482034 278.838437 
L 392.984653 295.488 
L 398.487273 295.488 
" style="fill:none;stroke:#ff0000;stroke-linecap:square;stroke-width:12;"/>
    <defs>
     <path d="M 0 3 
C 0.795609 3 1.55874 2.683901 2.12132 2.12132 
C 2.683901 1.55874 3 0.795609 3 0 
C 3 -0.795609 2.683901 -1.55874 2.12132 -2.12132 
C 1.55874 -2.683901 0.795609 -3 0 -3 
C -0.795609 -3 -1.55874 -2.683901 -2.12132 -2.12132 
C -2.683901 -1.55874 -3 -0.795609 -3 0 
C -3 0.795609 -2.683901 1.55874 -2.12132 2.12132 
C -1.55874 2.683901 -0.795609 3 0 3 
z
" id="m8ff1a1947a" style="stroke:#ff0000;"/>
    </defs>
    <g clip-path="url(#p685ef3667b)">
     <use style="fill:#ff0000;stroke:#ff0000;" x="73.832727" xlink:href="#m8ff1a1947a" y="254.667745"/>
     <use style="fill:#ff0000;stroke:#ff0000;" x="79.335347" xlink:href="#m8ff1a1947a" y="254.667745"/>
     <use style="fill:#ff0000;stroke:#ff0000;" x="84.837966" xlink:href="#m8ff1a1947a" y="254.667745"/>
     <use style="fill:#ff0000;stroke:#ff0000;" x="90.340586" xlink:href="#m8ff1a1947a" y="203.194766"/>
     <use style="fill:#ff0000;stroke:#ff0000;" x="95.843205" xlink:href="#m8ff1a1947a" y="203.194766"/>
     <use style="fill:#ff0000;stroke:#ff0000;" x="101.345824" xlink:href="#m8ff1a1947a" y="203.194766"/>
     <use style="fill:#ff0000;stroke:#ff0000;" x="106.848444" xlink:href="#m8ff1a1947a" y="203.194766"/>
     <use style="fill:#ff0000;stroke:#ff0000;" x="112.351063" xlink:href="#m8ff1a1947a" y="203.194766"/>
     <use style="fill:#ff0000;stroke:#ff0000;" x="117.853683" xlink:href="#m8ff1a1947a" y="150.922985"/>
     <use style="fill:#ff0000;stroke:#ff0000;" x="123.356302" xlink:href="#m8ff1a1947a" y="150.922985"/>
     <use style="fill:#ff0000;stroke:#ff0000;" x="128.858921" xlink:href="#m8ff1a1947a" y="150.922985"/>
     <use style="fill:#ff0000;stroke:#ff0000;" x="134.361541" xlink:href="#m8ff1a1947a" y="102.782191"/>
     <use style="fill:#ff0000;stroke:#ff0000;" x="139.86416" xlink:href="#m8ff1a1947a" y="102.782191"/>
     <use style="fill:#ff0000;stroke:#ff0000;" x="145.36678" xlink:href="#m8ff1a1947a" y="53.568"/>
     <use style="fill:#ff0000;stroke:#ff0000;" x="150.869399" xlink:href="#m8ff1a1947a" y="53.568"/>
     <use style="fill:#ff0000;stroke:#ff0000;" x="156.372018" xlink:href="#m8ff1a1947a" y="107.620696"/>
     <use style="fill:#ff0000;stroke:#ff0000;" x="161.874638" xlink:href="#m8ff1a1947a" y="107.620696"/>
     <use style="fill:#ff0000;stroke:#ff0000;" x="167.377257" xlink:href="#m8ff1a1947a" y="164.5735"/>
     <use style="fill:#ff0000;stroke:#ff0000;" x="172.879877" xlink:href="#m8ff1a1947a" y="164.5735"/>
     <use style="fill:#ff0000;stroke:#ff0000;" x="178.382496" xlink:href="#m8ff1a1947a" y="164.5735"/>
     <use style="fill:#ff0000;stroke:#ff0000;" x="183.885116" xlink:href="#m8ff1a1947a" y="164.5735"/>
     <use style="fill:#ff0000;stroke:#ff0000;" x="189.387735" xlink:href="#m8ff1a1947a" y="164.5735"/>
     <use style="fill:#ff0000;stroke:#ff0000;" x="194.890354" xlink:href="#m8ff1a1947a" y="171.77433"/>
     <use style="fill:#ff0000;stroke:#ff0000;" x="200.392974" xlink:href="#m8ff1a1947a" y="171.77433"/>
     <use style="fill:#ff0000;stroke:#ff0000;" x="205.895593" xlink:href="#m8ff1a1947a" y="125.40411"/>
     <use style="fill:#ff0000;stroke:#ff0000;" x="211.398213" xlink:href="#m8ff1a1947a" y="125.40411"/>
     <use style="fill:#ff0000;stroke:#ff0000;" x="216.900832" xlink:href="#m8ff1a1947a" y="125.40411"/>
     <use style="fill:#ff0000;stroke:#ff0000;" x="222.403451" xlink:href="#m8ff1a1947a" y="175.781519"/>
     <use style="fill:#ff0000;stroke:#ff0000;" x="227.906071" xlink:href="#m8ff1a1947a" y="175.781519"/>
     <use style="fill:#ff0000;stroke:#ff0000;" x="233.40869" xlink:href="#m8ff1a1947a" y="235.080253"/>
     <use style="fill:#ff0000;stroke:#ff0000;" x="238.91131" xlink:href="#m8ff1a1947a" y="235.080253"/>
     <use style="fill:#ff0000;stroke:#ff0000;" x="244.413929" xlink:href="#m8ff1a1947a" y="252.206921"/>
     <use style="fill:#ff0000;stroke:#ff0000;" x="249.916549" xlink:href="#m8ff1a1947a" y="252.206921"/>
     <use style="fill:#ff0000;stroke:#ff0000;" x="255.419168" xlink:href="#m8ff1a1947a" y="234.437777"/>
     <use style="fill:#ff0000;stroke:#ff0000;" x="260.921787" xlink:href="#m8ff1a1947a" y="252.249515"/>
     <use style="fill:#ff0000;stroke:#ff0000;" x="266.424407" xlink:href="#m8ff1a1947a" y="252.249515"/>
     <use style="fill:#ff0000;stroke:#ff0000;" x="271.927026" xlink:href="#m8ff1a1947a" y="252.249515"/>
     <use style="fill:#ff0000;stroke:#ff0000;" x="277.429646" xlink:href="#m8ff1a1947a" y="268.500787"/>
     <use style="fill:#ff0000;stroke:#ff0000;" x="282.932265" xlink:href="#m8ff1a1947a" y="268.500787"/>
     <use style="fill:#ff0000;stroke:#ff0000;" x="288.434884" xlink:href="#m8ff1a1947a" y="284.811178"/>
     <use style="fill:#ff0000;stroke:#ff0000;" x="293.937504" xlink:href="#m8ff1a1947a" y="284.811178"/>
     <use style="fill:#ff0000;stroke:#ff0000;" x="299.440123" xlink:href="#m8ff1a1947a" y="266.943537"/>
     <use style="fill:#ff0000;stroke:#ff0000;" x="304.942743" xlink:href="#m8ff1a1947a" y="266.943537"/>
     <use style="fill:#ff0000;stroke:#ff0000;" x="310.445362" xlink:href="#m8ff1a1947a" y="250.463192"/>
     <use style="fill:#ff0000;stroke:#ff0000;" x="315.947982" xlink:href="#m8ff1a1947a" y="250.463192"/>
     <use style="fill:#ff0000;stroke:#ff0000;" x="321.450601" xlink:href="#m8ff1a1947a" y="255.865076"/>
     <use style="fill:#ff0000;stroke:#ff0000;" x="326.95322" xlink:href="#m8ff1a1947a" y="273.26589"/>
     <use style="fill:#ff0000;stroke:#ff0000;" x="332.45584" xlink:href="#m8ff1a1947a" y="273.26589"/>
     <use style="fill:#ff0000;stroke:#ff0000;" x="337.958459" xlink:href="#m8ff1a1947a" y="273.26589"/>
     <use style="fill:#ff0000;stroke:#ff0000;" x="343.461079" xlink:href="#m8ff1a1947a" y="255.175493"/>
     <use style="fill:#ff0000;stroke:#ff0000;" x="348.963698" xlink:href="#m8ff1a1947a" y="255.175493"/>
     <use style="fill:#ff0000;stroke:#ff0000;" x="354.466317" xlink:href="#m8ff1a1947a" y="258.578745"/>
     <use style="fill:#ff0000;stroke:#ff0000;" x="359.968937" xlink:href="#m8ff1a1947a" y="258.578745"/>
     <use style="fill:#ff0000;stroke:#ff0000;" x="365.471556" xlink:href="#m8ff1a1947a" y="274.108086"/>
     <use style="fill:#ff0000;stroke:#ff0000;" x="370.974176" xlink:href="#m8ff1a1947a" y="278.838437"/>
     <use style="fill:#ff0000;stroke:#ff0000;" x="376.476795" xlink:href="#m8ff1a1947a" y="278.838437"/>
     <use style="fill:#ff0000;stroke:#ff0000;" x="381.979414" xlink:href="#m8ff1a1947a" y="278.838437"/>
     <use style="fill:#ff0000;stroke:#ff0000;" x="387.482034" xlink:href="#m8ff1a1947a" y="278.838437"/>
     <use style="fill:#ff0000;stroke:#ff0000;" x="392.984653" xlink:href="#m8ff1a1947a" y="295.488"/>
     <use style="fill:#ff0000;stroke:#ff0000;" x="398.487273" xlink:href="#m8ff1a1947a" y="295.488"/>
    </g>
   </g>
   <g id="patch_3">
    <path d="M 57.6 307.584 
L 57.6 41.472 
" style="fill:none;stroke:#000000;stroke-linecap:square;stroke-linejoin:miter;stroke-width:0.8;"/>
   </g>
   <g id="patch_4">
    <path d="M 414.72 307.584 
L 414.72 41.472 
" style="fill:none;stroke:#000000;stroke-linecap:square;stroke-linejoin:miter;stroke-width:0.8;"/>
   </g>
   <g id="patch_5">
    <path d="M 57.6 307.584 
L 414.72 307.584 
" style="fill:none;stroke:#000000;stroke-linecap:square;stroke-linejoin:miter;stroke-width:0.8;"/>
   </g>
   <g id="patch_6">
    <path d="M 57.6 41.472 
L 414.72 41.472 
" style="fill:none;stroke:#000000;stroke-linecap:square;stroke-linejoin:miter;stroke-width:0.8;"/>
   </g>
  </g>
 </g>
 <defs>
  <clipPath id="p685ef3667b">
   <rect height="266.112" width="357.12" x="57.6" y="41.472"/>
  </clipPath>
 </defs>
</svg>
