<?xml version="1.0" encoding="utf-8" standalone="no"?>
<!DOCTYPE svg PUBLIC "-//W3C//DTD SVG 1.1//EN"
  "http://www.w3.org/Graphics/SVG/1.1/DTD/svg11.dtd">
<!-- Created with matplotlib (https://matplotlib.org/) -->
<svg height="345.6pt" version="1.1" viewBox="0 0 460.8 345.6" width="460.8pt" xmlns="http://www.w3.org/2000/svg" xmlns:xlink="http://www.w3.org/1999/xlink">
 <defs>
  <style type="text/css">
*{stroke-linecap:butt;stroke-linejoin:round;}
  </style>
 </defs>
 <g id="figure_1">
  <g id="patch_1">
   <path d="M 0 345.6 
L 460.8 345.6 
L 460.8 0 
L 0 0 
z
" style="fill:#ffffff;"/>
  </g>
  <g id="axes_1">
   <g id="patch_2">
    <path d="M 57.6 307.584 
L 414.72 307.584 
L 414.72 41.472 
L 57.6 41.472 
z
" style="fill:#ffffff;"/>
   </g>
   <g id="line2d_1">
    <path clip-path="url(#p56c3525b32)" d="M 73.832727 162.701035 
L 77.521983 162.701035 
L 79.366612 134.767621 
L 86.745124 134.767621 
L 88.589752 106.400712 
L 92.279008 106.400712 
L 94.123636 80.275612 
L 95.968264 80.275612 
L 97.812893 53.568 
L 99.657521 53.568 
L 101.502149 82.901378 
L 103.346777 82.901378 
L 105.191405 113.808589 
L 112.569917 113.808589 
L 114.414545 117.716344 
L 116.259174 117.716344 
L 118.103802 92.5521 
L 121.793058 92.5521 
L 123.637686 119.89097 
L 125.482314 119.89097 
L 127.326942 152.071273 
L 129.17157 152.071273 
L 131.016198 161.365592 
L 132.860826 161.365592 
L 134.705455 151.722613 
L 136.550083 161.388707 
L 140.239339 161.388707 
L 142.083967 170.207965 
L 143.928595 170.207965 
L 145.773223 179.059307 
L 147.617851 179.059307 
L 149.462479 169.362875 
L 151.307107 169.362875 
L 153.151736 160.419303 
L 154.996364 160.419303 
L 156.840992 163.350804 
L 158.68562 172.793897 
L 162.374876 172.793897 
L 164.219504 162.97658 
L 166.064132 162.97658 
L 167.90876 164.823461 
L 169.753388 164.823461 
L 171.598017 173.250941 
L 173.442645 175.818013 
L 178.976529 175.818013 
L 180.821157 184.853417 
L 182.665785 186.047893 
L 184.510413 186.047893 
L 186.355041 194.274848 
L 190.044298 194.274848 
L 191.888926 185.874148 
L 197.42281 185.825066 
L 199.267438 194.750542 
L 204.801322 194.750542 
L 206.64595 192.68882 
L 208.490579 191.474333 
L 212.179835 191.474333 
L 214.024463 199.891027 
L 215.869091 199.891027 
L 217.713719 208.748576 
L 219.558347 199.464063 
L 221.402975 199.464063 
L 223.247603 208.199848 
L 228.781488 208.199848 
L 230.626116 198.046399 
L 232.470744 198.046399 
L 234.315372 188.688282 
L 236.16 188.688282 
L 238.004628 179.426793 
L 239.849256 179.426793 
L 241.693884 188.645433 
L 243.538512 188.645433 
L 245.38314 189.012967 
L 247.227769 189.012967 
L 249.072397 197.885158 
L 250.917025 197.885158 
L 252.761653 206.781713 
L 254.606281 206.781713 
L 256.450909 215.008516 
L 258.295537 215.008516 
L 260.140165 206.20709 
L 261.984793 206.20709 
L 263.829421 197.090987 
L 265.67405 205.812794 
L 267.518678 205.812794 
L 269.363306 214.452682 
L 271.207934 214.452682 
L 273.052562 223.851159 
L 287.809587 223.851159 
L 289.654215 213.599842 
L 293.343471 213.599842 
L 295.188099 223.339291 
L 297.032727 223.339291 
L 298.877355 220.536203 
L 302.566612 220.536203 
L 304.41124 230.531401 
L 306.255868 230.531401 
L 308.100496 229.508898 
L 309.945124 229.508898 
L 311.789752 238.160625 
L 313.63438 228.049044 
L 315.479008 228.049044 
L 317.323636 236.838904 
L 319.168264 236.838904 
L 321.012893 246.006582 
L 322.857521 243.440719 
L 324.702149 243.440719 
L 326.546777 233.654449 
L 328.391405 233.654449 
L 330.236033 241.999168 
L 332.080661 241.999168 
L 333.925289 233.082439 
L 335.769917 233.082439 
L 337.614545 242.679445 
L 339.459174 242.679445 
L 341.303802 232.328705 
L 343.14843 232.328705 
L 344.993058 240.108211 
L 346.837686 240.108211 
L 348.682314 249.227335 
L 350.526942 256.910503 
L 354.216198 256.910503 
L 356.060826 256.09392 
L 359.750083 256.09392 
L 361.594711 264.300775 
L 363.439339 273.723082 
L 367.128595 273.723082 
L 368.973223 281.380483 
L 370.817851 271.641958 
L 376.351736 271.576117 
L 378.196364 280.123676 
L 380.040992 280.123676 
L 381.88562 288.096651 
L 383.730248 288.096651 
L 385.574876 295.488 
L 387.419504 295.488 
L 389.264132 294.755029 
L 391.10876 294.755029 
L 392.953388 285.247588 
L 398.487273 285.247588 
L 398.487273 285.247588 
" style="fill:none;stroke:#ff0000;stroke-linecap:square;stroke-width:12;"/>
    <defs>
     <path d="M 0 3 
C 0.795609 3 1.55874 2.683901 2.12132 2.12132 
C 2.683901 1.55874 3 0.795609 3 0 
C 3 -0.795609 2.683901 -1.55874 2.12132 -2.12132 
C 1.55874 -2.683901 0.795609 -3 0 -3 
C -0.795609 -3 -1.55874 -2.683901 -2.12132 -2.12132 
C -2.683901 -1.55874 -3 -0.795609 -3 0 
C -3 0.795609 -2.683901 1.55874 -2.12132 2.12132 
C -1.55874 2.683901 -0.795609 3 0 3 
z
" id="m0652036893" style="stroke:#ff0000;"/>
    </defs>
    <g clip-path="url(#p56c3525b32)">
     <use style="fill:#ff0000;stroke:#ff0000;" x="73.832727" xlink:href="#m0652036893" y="162.701035"/>
     <use style="fill:#ff0000;stroke:#ff0000;" x="75.677355" xlink:href="#m0652036893" y="162.701035"/>
     <use style="fill:#ff0000;stroke:#ff0000;" x="77.521983" xlink:href="#m0652036893" y="162.701035"/>
     <use style="fill:#ff0000;stroke:#ff0000;" x="79.366612" xlink:href="#m0652036893" y="134.767621"/>
     <use style="fill:#ff0000;stroke:#ff0000;" x="81.21124" xlink:href="#m0652036893" y="134.767621"/>
     <use style="fill:#ff0000;stroke:#ff0000;" x="83.055868" xlink:href="#m0652036893" y="134.767621"/>
     <use style="fill:#ff0000;stroke:#ff0000;" x="84.900496" xlink:href="#m0652036893" y="134.767621"/>
     <use style="fill:#ff0000;stroke:#ff0000;" x="86.745124" xlink:href="#m0652036893" y="134.767621"/>
     <use style="fill:#ff0000;stroke:#ff0000;" x="88.589752" xlink:href="#m0652036893" y="106.400712"/>
     <use style="fill:#ff0000;stroke:#ff0000;" x="90.43438" xlink:href="#m0652036893" y="106.400712"/>
     <use style="fill:#ff0000;stroke:#ff0000;" x="92.279008" xlink:href="#m0652036893" y="106.400712"/>
     <use style="fill:#ff0000;stroke:#ff0000;" x="94.123636" xlink:href="#m0652036893" y="80.275612"/>
     <use style="fill:#ff0000;stroke:#ff0000;" x="95.968264" xlink:href="#m0652036893" y="80.275612"/>
     <use style="fill:#ff0000;stroke:#ff0000;" x="97.812893" xlink:href="#m0652036893" y="53.568"/>
     <use style="fill:#ff0000;stroke:#ff0000;" x="99.657521" xlink:href="#m0652036893" y="53.568"/>
     <use style="fill:#ff0000;stroke:#ff0000;" x="101.502149" xlink:href="#m0652036893" y="82.901378"/>
     <use style="fill:#ff0000;stroke:#ff0000;" x="103.346777" xlink:href="#m0652036893" y="82.901378"/>
     <use style="fill:#ff0000;stroke:#ff0000;" x="105.191405" xlink:href="#m0652036893" y="113.808589"/>
     <use style="fill:#ff0000;stroke:#ff0000;" x="107.036033" xlink:href="#m0652036893" y="113.808589"/>
     <use style="fill:#ff0000;stroke:#ff0000;" x="108.880661" xlink:href="#m0652036893" y="113.808589"/>
     <use style="fill:#ff0000;stroke:#ff0000;" x="110.725289" xlink:href="#m0652036893" y="113.808589"/>
     <use style="fill:#ff0000;stroke:#ff0000;" x="112.569917" xlink:href="#m0652036893" y="113.808589"/>
     <use style="fill:#ff0000;stroke:#ff0000;" x="114.414545" xlink:href="#m0652036893" y="117.716344"/>
     <use style="fill:#ff0000;stroke:#ff0000;" x="116.259174" xlink:href="#m0652036893" y="117.716344"/>
     <use style="fill:#ff0000;stroke:#ff0000;" x="118.103802" xlink:href="#m0652036893" y="92.5521"/>
     <use style="fill:#ff0000;stroke:#ff0000;" x="119.94843" xlink:href="#m0652036893" y="92.5521"/>
     <use style="fill:#ff0000;stroke:#ff0000;" x="121.793058" xlink:href="#m0652036893" y="92.5521"/>
     <use style="fill:#ff0000;stroke:#ff0000;" x="123.637686" xlink:href="#m0652036893" y="119.89097"/>
     <use style="fill:#ff0000;stroke:#ff0000;" x="125.482314" xlink:href="#m0652036893" y="119.89097"/>
     <use style="fill:#ff0000;stroke:#ff0000;" x="127.326942" xlink:href="#m0652036893" y="152.071273"/>
     <use style="fill:#ff0000;stroke:#ff0000;" x="129.17157" xlink:href="#m0652036893" y="152.071273"/>
     <use style="fill:#ff0000;stroke:#ff0000;" x="131.016198" xlink:href="#m0652036893" y="161.365592"/>
     <use style="fill:#ff0000;stroke:#ff0000;" x="132.860826" xlink:href="#m0652036893" y="161.365592"/>
     <use style="fill:#ff0000;stroke:#ff0000;" x="134.705455" xlink:href="#m0652036893" y="151.722613"/>
     <use style="fill:#ff0000;stroke:#ff0000;" x="136.550083" xlink:href="#m0652036893" y="161.388707"/>
     <use style="fill:#ff0000;stroke:#ff0000;" x="138.394711" xlink:href="#m0652036893" y="161.388707"/>
     <use style="fill:#ff0000;stroke:#ff0000;" x="140.239339" xlink:href="#m0652036893" y="161.388707"/>
     <use style="fill:#ff0000;stroke:#ff0000;" x="142.083967" xlink:href="#m0652036893" y="170.207965"/>
     <use style="fill:#ff0000;stroke:#ff0000;" x="143.928595" xlink:href="#m0652036893" y="170.207965"/>
     <use style="fill:#ff0000;stroke:#ff0000;" x="145.773223" xlink:href="#m0652036893" y="179.059307"/>
     <use style="fill:#ff0000;stroke:#ff0000;" x="147.617851" xlink:href="#m0652036893" y="179.059307"/>
     <use style="fill:#ff0000;stroke:#ff0000;" x="149.462479" xlink:href="#m0652036893" y="169.362875"/>
     <use style="fill:#ff0000;stroke:#ff0000;" x="151.307107" xlink:href="#m0652036893" y="169.362875"/>
     <use style="fill:#ff0000;stroke:#ff0000;" x="153.151736" xlink:href="#m0652036893" y="160.419303"/>
     <use style="fill:#ff0000;stroke:#ff0000;" x="154.996364" xlink:href="#m0652036893" y="160.419303"/>
     <use style="fill:#ff0000;stroke:#ff0000;" x="156.840992" xlink:href="#m0652036893" y="163.350804"/>
     <use style="fill:#ff0000;stroke:#ff0000;" x="158.68562" xlink:href="#m0652036893" y="172.793897"/>
     <use style="fill:#ff0000;stroke:#ff0000;" x="160.530248" xlink:href="#m0652036893" y="172.793897"/>
     <use style="fill:#ff0000;stroke:#ff0000;" x="162.374876" xlink:href="#m0652036893" y="172.793897"/>
     <use style="fill:#ff0000;stroke:#ff0000;" x="164.219504" xlink:href="#m0652036893" y="162.97658"/>
     <use style="fill:#ff0000;stroke:#ff0000;" x="166.064132" xlink:href="#m0652036893" y="162.97658"/>
     <use style="fill:#ff0000;stroke:#ff0000;" x="167.90876" xlink:href="#m0652036893" y="164.823461"/>
     <use style="fill:#ff0000;stroke:#ff0000;" x="169.753388" xlink:href="#m0652036893" y="164.823461"/>
     <use style="fill:#ff0000;stroke:#ff0000;" x="171.598017" xlink:href="#m0652036893" y="173.250941"/>
     <use style="fill:#ff0000;stroke:#ff0000;" x="173.442645" xlink:href="#m0652036893" y="175.818013"/>
     <use style="fill:#ff0000;stroke:#ff0000;" x="175.287273" xlink:href="#m0652036893" y="175.818013"/>
     <use style="fill:#ff0000;stroke:#ff0000;" x="177.131901" xlink:href="#m0652036893" y="175.818013"/>
     <use style="fill:#ff0000;stroke:#ff0000;" x="178.976529" xlink:href="#m0652036893" y="175.818013"/>
     <use style="fill:#ff0000;stroke:#ff0000;" x="180.821157" xlink:href="#m0652036893" y="184.853417"/>
     <use style="fill:#ff0000;stroke:#ff0000;" x="182.665785" xlink:href="#m0652036893" y="186.047893"/>
     <use style="fill:#ff0000;stroke:#ff0000;" x="184.510413" xlink:href="#m0652036893" y="186.047893"/>
     <use style="fill:#ff0000;stroke:#ff0000;" x="186.355041" xlink:href="#m0652036893" y="194.274848"/>
     <use style="fill:#ff0000;stroke:#ff0000;" x="188.199669" xlink:href="#m0652036893" y="194.274848"/>
     <use style="fill:#ff0000;stroke:#ff0000;" x="190.044298" xlink:href="#m0652036893" y="194.274848"/>
     <use style="fill:#ff0000;stroke:#ff0000;" x="191.888926" xlink:href="#m0652036893" y="185.874148"/>
     <use style="fill:#ff0000;stroke:#ff0000;" x="193.733554" xlink:href="#m0652036893" y="185.874148"/>
     <use style="fill:#ff0000;stroke:#ff0000;" x="195.578182" xlink:href="#m0652036893" y="185.874148"/>
     <use style="fill:#ff0000;stroke:#ff0000;" x="197.42281" xlink:href="#m0652036893" y="185.825066"/>
     <use style="fill:#ff0000;stroke:#ff0000;" x="199.267438" xlink:href="#m0652036893" y="194.750542"/>
     <use style="fill:#ff0000;stroke:#ff0000;" x="201.112066" xlink:href="#m0652036893" y="194.750542"/>
     <use style="fill:#ff0000;stroke:#ff0000;" x="202.956694" xlink:href="#m0652036893" y="194.750542"/>
     <use style="fill:#ff0000;stroke:#ff0000;" x="204.801322" xlink:href="#m0652036893" y="194.750542"/>
     <use style="fill:#ff0000;stroke:#ff0000;" x="206.64595" xlink:href="#m0652036893" y="192.68882"/>
     <use style="fill:#ff0000;stroke:#ff0000;" x="208.490579" xlink:href="#m0652036893" y="191.474333"/>
     <use style="fill:#ff0000;stroke:#ff0000;" x="210.335207" xlink:href="#m0652036893" y="191.474333"/>
     <use style="fill:#ff0000;stroke:#ff0000;" x="212.179835" xlink:href="#m0652036893" y="191.474333"/>
     <use style="fill:#ff0000;stroke:#ff0000;" x="214.024463" xlink:href="#m0652036893" y="199.891027"/>
     <use style="fill:#ff0000;stroke:#ff0000;" x="215.869091" xlink:href="#m0652036893" y="199.891027"/>
     <use style="fill:#ff0000;stroke:#ff0000;" x="217.713719" xlink:href="#m0652036893" y="208.748576"/>
     <use style="fill:#ff0000;stroke:#ff0000;" x="219.558347" xlink:href="#m0652036893" y="199.464063"/>
     <use style="fill:#ff0000;stroke:#ff0000;" x="221.402975" xlink:href="#m0652036893" y="199.464063"/>
     <use style="fill:#ff0000;stroke:#ff0000;" x="223.247603" xlink:href="#m0652036893" y="208.199848"/>
     <use style="fill:#ff0000;stroke:#ff0000;" x="225.092231" xlink:href="#m0652036893" y="208.199848"/>
     <use style="fill:#ff0000;stroke:#ff0000;" x="226.93686" xlink:href="#m0652036893" y="208.199848"/>
     <use style="fill:#ff0000;stroke:#ff0000;" x="228.781488" xlink:href="#m0652036893" y="208.199848"/>
     <use style="fill:#ff0000;stroke:#ff0000;" x="230.626116" xlink:href="#m0652036893" y="198.046399"/>
     <use style="fill:#ff0000;stroke:#ff0000;" x="232.470744" xlink:href="#m0652036893" y="198.046399"/>
     <use style="fill:#ff0000;stroke:#ff0000;" x="234.315372" xlink:href="#m0652036893" y="188.688282"/>
     <use style="fill:#ff0000;stroke:#ff0000;" x="236.16" xlink:href="#m0652036893" y="188.688282"/>
     <use style="fill:#ff0000;stroke:#ff0000;" x="238.004628" xlink:href="#m0652036893" y="179.426793"/>
     <use style="fill:#ff0000;stroke:#ff0000;" x="239.849256" xlink:href="#m0652036893" y="179.426793"/>
     <use style="fill:#ff0000;stroke:#ff0000;" x="241.693884" xlink:href="#m0652036893" y="188.645433"/>
     <use style="fill:#ff0000;stroke:#ff0000;" x="243.538512" xlink:href="#m0652036893" y="188.645433"/>
     <use style="fill:#ff0000;stroke:#ff0000;" x="245.38314" xlink:href="#m0652036893" y="189.012967"/>
     <use style="fill:#ff0000;stroke:#ff0000;" x="247.227769" xlink:href="#m0652036893" y="189.012967"/>
     <use style="fill:#ff0000;stroke:#ff0000;" x="249.072397" xlink:href="#m0652036893" y="197.885158"/>
     <use style="fill:#ff0000;stroke:#ff0000;" x="250.917025" xlink:href="#m0652036893" y="197.885158"/>
     <use style="fill:#ff0000;stroke:#ff0000;" x="252.761653" xlink:href="#m0652036893" y="206.781713"/>
     <use style="fill:#ff0000;stroke:#ff0000;" x="254.606281" xlink:href="#m0652036893" y="206.781713"/>
     <use style="fill:#ff0000;stroke:#ff0000;" x="256.450909" xlink:href="#m0652036893" y="215.008516"/>
     <use style="fill:#ff0000;stroke:#ff0000;" x="258.295537" xlink:href="#m0652036893" y="215.008516"/>
     <use style="fill:#ff0000;stroke:#ff0000;" x="260.140165" xlink:href="#m0652036893" y="206.20709"/>
     <use style="fill:#ff0000;stroke:#ff0000;" x="261.984793" xlink:href="#m0652036893" y="206.20709"/>
     <use style="fill:#ff0000;stroke:#ff0000;" x="263.829421" xlink:href="#m0652036893" y="197.090987"/>
     <use style="fill:#ff0000;stroke:#ff0000;" x="265.67405" xlink:href="#m0652036893" y="205.812794"/>
     <use style="fill:#ff0000;stroke:#ff0000;" x="267.518678" xlink:href="#m0652036893" y="205.812794"/>
     <use style="fill:#ff0000;stroke:#ff0000;" x="269.363306" xlink:href="#m0652036893" y="214.452682"/>
     <use style="fill:#ff0000;stroke:#ff0000;" x="271.207934" xlink:href="#m0652036893" y="214.452682"/>
     <use style="fill:#ff0000;stroke:#ff0000;" x="273.052562" xlink:href="#m0652036893" y="223.851159"/>
     <use style="fill:#ff0000;stroke:#ff0000;" x="274.89719" xlink:href="#m0652036893" y="223.851159"/>
     <use style="fill:#ff0000;stroke:#ff0000;" x="276.741818" xlink:href="#m0652036893" y="223.851159"/>
     <use style="fill:#ff0000;stroke:#ff0000;" x="278.586446" xlink:href="#m0652036893" y="223.851159"/>
     <use style="fill:#ff0000;stroke:#ff0000;" x="280.431074" xlink:href="#m0652036893" y="223.851159"/>
     <use style="fill:#ff0000;stroke:#ff0000;" x="282.275702" xlink:href="#m0652036893" y="223.851159"/>
     <use style="fill:#ff0000;stroke:#ff0000;" x="284.120331" xlink:href="#m0652036893" y="223.851159"/>
     <use style="fill:#ff0000;stroke:#ff0000;" x="285.964959" xlink:href="#m0652036893" y="223.851159"/>
     <use style="fill:#ff0000;stroke:#ff0000;" x="287.809587" xlink:href="#m0652036893" y="223.851159"/>
     <use style="fill:#ff0000;stroke:#ff0000;" x="289.654215" xlink:href="#m0652036893" y="213.599842"/>
     <use style="fill:#ff0000;stroke:#ff0000;" x="291.498843" xlink:href="#m0652036893" y="213.599842"/>
     <use style="fill:#ff0000;stroke:#ff0000;" x="293.343471" xlink:href="#m0652036893" y="213.599842"/>
     <use style="fill:#ff0000;stroke:#ff0000;" x="295.188099" xlink:href="#m0652036893" y="223.339291"/>
     <use style="fill:#ff0000;stroke:#ff0000;" x="297.032727" xlink:href="#m0652036893" y="223.339291"/>
     <use style="fill:#ff0000;stroke:#ff0000;" x="298.877355" xlink:href="#m0652036893" y="220.536203"/>
     <use style="fill:#ff0000;stroke:#ff0000;" x="300.721983" xlink:href="#m0652036893" y="220.536203"/>
     <use style="fill:#ff0000;stroke:#ff0000;" x="302.566612" xlink:href="#m0652036893" y="220.536203"/>
     <use style="fill:#ff0000;stroke:#ff0000;" x="304.41124" xlink:href="#m0652036893" y="230.531401"/>
     <use style="fill:#ff0000;stroke:#ff0000;" x="306.255868" xlink:href="#m0652036893" y="230.531401"/>
     <use style="fill:#ff0000;stroke:#ff0000;" x="308.100496" xlink:href="#m0652036893" y="229.508898"/>
     <use style="fill:#ff0000;stroke:#ff0000;" x="309.945124" xlink:href="#m0652036893" y="229.508898"/>
     <use style="fill:#ff0000;stroke:#ff0000;" x="311.789752" xlink:href="#m0652036893" y="238.160625"/>
     <use style="fill:#ff0000;stroke:#ff0000;" x="313.63438" xlink:href="#m0652036893" y="228.049044"/>
     <use style="fill:#ff0000;stroke:#ff0000;" x="315.479008" xlink:href="#m0652036893" y="228.049044"/>
     <use style="fill:#ff0000;stroke:#ff0000;" x="317.323636" xlink:href="#m0652036893" y="236.838904"/>
     <use style="fill:#ff0000;stroke:#ff0000;" x="319.168264" xlink:href="#m0652036893" y="236.838904"/>
     <use style="fill:#ff0000;stroke:#ff0000;" x="321.012893" xlink:href="#m0652036893" y="246.006582"/>
     <use style="fill:#ff0000;stroke:#ff0000;" x="322.857521" xlink:href="#m0652036893" y="243.440719"/>
     <use style="fill:#ff0000;stroke:#ff0000;" x="324.702149" xlink:href="#m0652036893" y="243.440719"/>
     <use style="fill:#ff0000;stroke:#ff0000;" x="326.546777" xlink:href="#m0652036893" y="233.654449"/>
     <use style="fill:#ff0000;stroke:#ff0000;" x="328.391405" xlink:href="#m0652036893" y="233.654449"/>
     <use style="fill:#ff0000;stroke:#ff0000;" x="330.236033" xlink:href="#m0652036893" y="241.999168"/>
     <use style="fill:#ff0000;stroke:#ff0000;" x="332.080661" xlink:href="#m0652036893" y="241.999168"/>
     <use style="fill:#ff0000;stroke:#ff0000;" x="333.925289" xlink:href="#m0652036893" y="233.082439"/>
     <use style="fill:#ff0000;stroke:#ff0000;" x="335.769917" xlink:href="#m0652036893" y="233.082439"/>
     <use style="fill:#ff0000;stroke:#ff0000;" x="337.614545" xlink:href="#m0652036893" y="242.679445"/>
     <use style="fill:#ff0000;stroke:#ff0000;" x="339.459174" xlink:href="#m0652036893" y="242.679445"/>
     <use style="fill:#ff0000;stroke:#ff0000;" x="341.303802" xlink:href="#m0652036893" y="232.328705"/>
     <use style="fill:#ff0000;stroke:#ff0000;" x="343.14843" xlink:href="#m0652036893" y="232.328705"/>
     <use style="fill:#ff0000;stroke:#ff0000;" x="344.993058" xlink:href="#m0652036893" y="240.108211"/>
     <use style="fill:#ff0000;stroke:#ff0000;" x="346.837686" xlink:href="#m0652036893" y="240.108211"/>
     <use style="fill:#ff0000;stroke:#ff0000;" x="348.682314" xlink:href="#m0652036893" y="249.227335"/>
     <use style="fill:#ff0000;stroke:#ff0000;" x="350.526942" xlink:href="#m0652036893" y="256.910503"/>
     <use style="fill:#ff0000;stroke:#ff0000;" x="352.37157" xlink:href="#m0652036893" y="256.910503"/>
     <use style="fill:#ff0000;stroke:#ff0000;" x="354.216198" xlink:href="#m0652036893" y="256.910503"/>
     <use style="fill:#ff0000;stroke:#ff0000;" x="356.060826" xlink:href="#m0652036893" y="256.09392"/>
     <use style="fill:#ff0000;stroke:#ff0000;" x="357.905455" xlink:href="#m0652036893" y="256.09392"/>
     <use style="fill:#ff0000;stroke:#ff0000;" x="359.750083" xlink:href="#m0652036893" y="256.09392"/>
     <use style="fill:#ff0000;stroke:#ff0000;" x="361.594711" xlink:href="#m0652036893" y="264.300775"/>
     <use style="fill:#ff0000;stroke:#ff0000;" x="363.439339" xlink:href="#m0652036893" y="273.723082"/>
     <use style="fill:#ff0000;stroke:#ff0000;" x="365.283967" xlink:href="#m0652036893" y="273.723082"/>
     <use style="fill:#ff0000;stroke:#ff0000;" x="367.128595" xlink:href="#m0652036893" y="273.723082"/>
     <use style="fill:#ff0000;stroke:#ff0000;" x="368.973223" xlink:href="#m0652036893" y="281.380483"/>
     <use style="fill:#ff0000;stroke:#ff0000;" x="370.817851" xlink:href="#m0652036893" y="271.641958"/>
     <use style="fill:#ff0000;stroke:#ff0000;" x="372.662479" xlink:href="#m0652036893" y="271.641958"/>
     <use style="fill:#ff0000;stroke:#ff0000;" x="374.507107" xlink:href="#m0652036893" y="271.576117"/>
     <use style="fill:#ff0000;stroke:#ff0000;" x="376.351736" xlink:href="#m0652036893" y="271.576117"/>
     <use style="fill:#ff0000;stroke:#ff0000;" x="378.196364" xlink:href="#m0652036893" y="280.123676"/>
     <use style="fill:#ff0000;stroke:#ff0000;" x="380.040992" xlink:href="#m0652036893" y="280.123676"/>
     <use style="fill:#ff0000;stroke:#ff0000;" x="381.88562" xlink:href="#m0652036893" y="288.096651"/>
     <use style="fill:#ff0000;stroke:#ff0000;" x="383.730248" xlink:href="#m0652036893" y="288.096651"/>
     <use style="fill:#ff0000;stroke:#ff0000;" x="385.574876" xlink:href="#m0652036893" y="295.488"/>
     <use style="fill:#ff0000;stroke:#ff0000;" x="387.419504" xlink:href="#m0652036893" y="295.488"/>
     <use style="fill:#ff0000;stroke:#ff0000;" x="389.264132" xlink:href="#m0652036893" y="294.755029"/>
     <use style="fill:#ff0000;stroke:#ff0000;" x="391.10876" xlink:href="#m0652036893" y="294.755029"/>
     <use style="fill:#ff0000;stroke:#ff0000;" x="392.953388" xlink:href="#m0652036893" y="285.247588"/>
     <use style="fill:#ff0000;stroke:#ff0000;" x="394.798017" xlink:href="#m0652036893" y="285.247588"/>
     <use style="fill:#ff0000;stroke:#ff0000;" x="396.642645" xlink:href="#m0652036893" y="285.247588"/>
     <use style="fill:#ff0000;stroke:#ff0000;" x="398.487273" xlink:href="#m0652036893" y="285.247588"/>
    </g>
   </g>
   <g id="patch_3">
    <path d="M 57.6 307.584 
L 57.6 41.472 
" style="fill:none;stroke:#000000;stroke-linecap:square;stroke-linejoin:miter;stroke-width:0.8;"/>
   </g>
   <g id="patch_4">
    <path d="M 414.72 307.584 
L 414.72 41.472 
" style="fill:none;stroke:#000000;stroke-linecap:square;stroke-linejoin:miter;stroke-width:0.8;"/>
   </g>
   <g id="patch_5">
    <path d="M 57.6 307.584 
L 414.72 307.584 
" style="fill:none;stroke:#000000;stroke-linecap:square;stroke-linejoin:miter;stroke-width:0.8;"/>
   </g>
   <g id="patch_6">
    <path d="M 57.6 41.472 
L 414.72 41.472 
" style="fill:none;stroke:#000000;stroke-linecap:square;stroke-linejoin:miter;stroke-width:0.8;"/>
   </g>
  </g>
 </g>
 <defs>
  <clipPath id="p56c3525b32">
   <rect height="266.112" width="357.12" x="57.6" y="41.472"/>
  </clipPath>
 </defs>
</svg>
