<?xml version="1.0" encoding="utf-8" standalone="no"?>
<!DOCTYPE svg PUBLIC "-//W3C//DTD SVG 1.1//EN"
  "http://www.w3.org/Graphics/SVG/1.1/DTD/svg11.dtd">
<!-- Created with matplotlib (https://matplotlib.org/) -->
<svg height="345.6pt" version="1.1" viewBox="0 0 460.8 345.6" width="460.8pt" xmlns="http://www.w3.org/2000/svg" xmlns:xlink="http://www.w3.org/1999/xlink">
 <defs>
  <style type="text/css">
*{stroke-linecap:butt;stroke-linejoin:round;}
  </style>
 </defs>
 <g id="figure_1">
  <g id="patch_1">
   <path d="M 0 345.6 
L 460.8 345.6 
L 460.8 0 
L 0 0 
z
" style="fill:#ffffff;"/>
  </g>
  <g id="axes_1">
   <g id="patch_2">
    <path d="M 57.6 307.584 
L 414.72 307.584 
L 414.72 41.472 
L 57.6 41.472 
z
" style="fill:#ffffff;"/>
   </g>
   <g id="line2d_1">
    <path clip-path="url(#p5a9631956a)" d="M 73.832727 295.488 
L 76.607552 295.488 
L 77.994965 256.519255 
L 80.76979 256.519255 
L 82.157203 217.59914 
L 83.544615 217.59914 
L 84.932028 256.776381 
L 86.319441 256.776381 
L 87.706853 247.77079 
L 91.869091 247.77079 
L 93.256503 208.295962 
L 94.643916 208.295962 
L 96.031329 243.647393 
L 97.418741 243.647393 
L 98.806154 209.570605 
L 100.193566 209.570605 
L 101.580979 246.788342 
L 102.968392 246.788342 
L 104.355804 283.424594 
L 105.743217 283.424594 
L 107.130629 283.303826 
L 108.518042 283.303826 
L 109.905455 269.983187 
L 111.292867 266.931061 
L 112.68028 266.931061 
L 114.067692 253.500012 
L 115.455105 253.500012 
L 116.842517 241.089023 
L 121.004755 241.089023 
L 122.392168 254.066683 
L 125.166993 254.066683 
L 126.554406 242.871533 
L 127.941818 255.274349 
L 132.104056 255.274349 
L 133.491469 267.314041 
L 134.878881 267.314041 
L 136.266294 254.75359 
L 137.653706 254.75359 
L 139.041119 242.845423 
L 140.428531 242.845423 
L 141.815944 229.710968 
L 143.203357 229.710968 
L 144.590769 242.951663 
L 145.978182 242.951663 
L 147.365594 230.899545 
L 150.14042 230.899545 
L 151.527832 233.650442 
L 152.915245 233.650442 
L 154.302657 222.833545 
L 155.69007 222.833545 
L 157.077483 211.159931 
L 158.464895 211.159931 
L 159.852308 198.677563 
L 161.23972 198.677563 
L 162.627133 186.020896 
L 164.014545 186.020896 
L 165.401958 172.730101 
L 166.789371 185.844391 
L 169.564196 185.844391 
L 170.951608 184.573507 
L 173.726434 184.573507 
L 175.113846 172.03606 
L 176.501259 160.683599 
L 177.888671 160.683599 
L 179.276084 173.969367 
L 180.663497 173.969367 
L 182.050909 172.902335 
L 183.438322 172.902335 
L 184.825734 186.524231 
L 190.375385 186.524231 
L 191.762797 173.657635 
L 193.15021 173.657635 
L 194.537622 177.09531 
L 195.925035 177.09531 
L 197.312448 164.550292 
L 198.69986 164.550292 
L 200.087273 154.418329 
L 201.474685 166.925925 
L 202.862098 166.925925 
L 204.24951 166.196996 
L 205.636923 166.196996 
L 207.024336 154.985489 
L 208.411748 154.985489 
L 209.799161 142.666982 
L 211.186573 142.666982 
L 212.573986 132.153974 
L 213.961399 132.153974 
L 215.348811 121.141781 
L 218.123636 121.141781 
L 219.511049 124.576768 
L 220.898462 124.576768 
L 222.285874 114.768328 
L 223.673287 103.664775 
L 226.448112 103.664775 
L 227.835524 102.207861 
L 240.322238 102.207861 
L 241.70965 115.591326 
L 243.097063 115.591326 
L 244.484476 103.92137 
L 248.646713 103.92137 
L 250.034126 116.55406 
L 251.421538 116.55406 
L 252.808951 118.065763 
L 255.583776 118.065763 
L 256.971189 129.474449 
L 258.358601 129.474449 
L 259.746014 131.575658 
L 261.133427 131.575658 
L 262.520839 119.410693 
L 263.908252 119.410693 
L 265.295664 108.422131 
L 266.683077 108.422131 
L 268.07049 96.167232 
L 269.457902 96.167232 
L 270.845315 85.752559 
L 272.232727 85.752559 
L 273.62014 75.953778 
L 275.007552 75.953778 
L 276.394965 63.971969 
L 277.782378 53.568 
L 280.557203 53.568 
L 281.944615 67.282657 
L 283.332028 67.282657 
L 284.719441 79.916634 
L 286.106853 79.916634 
L 288.881678 107.575438 
L 291.656503 107.575438 
L 293.043916 95.952329 
L 294.431329 95.952329 
L 295.818741 85.711658 
L 298.593566 85.711658 
L 299.980979 75.611405 
L 301.368392 88.628298 
L 304.143217 88.628298 
L 305.530629 77.107927 
L 306.918042 77.107927 
L 308.305455 67.623909 
L 309.692867 67.623909 
L 311.08028 57.365002 
L 312.467692 57.365002 
L 313.855105 73.118245 
L 315.242517 73.118245 
L 316.62993 86.736024 
L 318.017343 86.736024 
L 319.404755 76.431024 
L 320.792168 76.431024 
L 322.17958 64.398688 
L 323.566993 55.138979 
L 324.954406 55.138979 
L 326.341818 69.941067 
L 329.116643 69.941067 
L 330.504056 84.702423 
L 398.487273 84.702423 
L 398.487273 84.702423 
" style="fill:none;stroke:#ff0000;stroke-linecap:square;stroke-width:12;"/>
    <defs>
     <path d="M 0 3 
C 0.795609 3 1.55874 2.683901 2.12132 2.12132 
C 2.683901 1.55874 3 0.795609 3 0 
C 3 -0.795609 2.683901 -1.55874 2.12132 -2.12132 
C 1.55874 -2.683901 0.795609 -3 0 -3 
C -0.795609 -3 -1.55874 -2.683901 -2.12132 -2.12132 
C -2.683901 -1.55874 -3 -0.795609 -3 0 
C -3 0.795609 -2.683901 1.55874 -2.12132 2.12132 
C -1.55874 2.683901 -0.795609 3 0 3 
z
" id="m1203c31077" style="stroke:#ff0000;"/>
    </defs>
    <g clip-path="url(#p5a9631956a)">
     <use style="fill:#ff0000;stroke:#ff0000;" x="73.832727" xlink:href="#m1203c31077" y="295.488"/>
     <use style="fill:#ff0000;stroke:#ff0000;" x="75.22014" xlink:href="#m1203c31077" y="295.488"/>
     <use style="fill:#ff0000;stroke:#ff0000;" x="76.607552" xlink:href="#m1203c31077" y="295.488"/>
     <use style="fill:#ff0000;stroke:#ff0000;" x="77.994965" xlink:href="#m1203c31077" y="256.519255"/>
     <use style="fill:#ff0000;stroke:#ff0000;" x="79.382378" xlink:href="#m1203c31077" y="256.519255"/>
     <use style="fill:#ff0000;stroke:#ff0000;" x="80.76979" xlink:href="#m1203c31077" y="256.519255"/>
     <use style="fill:#ff0000;stroke:#ff0000;" x="82.157203" xlink:href="#m1203c31077" y="217.59914"/>
     <use style="fill:#ff0000;stroke:#ff0000;" x="83.544615" xlink:href="#m1203c31077" y="217.59914"/>
     <use style="fill:#ff0000;stroke:#ff0000;" x="84.932028" xlink:href="#m1203c31077" y="256.776381"/>
     <use style="fill:#ff0000;stroke:#ff0000;" x="86.319441" xlink:href="#m1203c31077" y="256.776381"/>
     <use style="fill:#ff0000;stroke:#ff0000;" x="87.706853" xlink:href="#m1203c31077" y="247.77079"/>
     <use style="fill:#ff0000;stroke:#ff0000;" x="89.094266" xlink:href="#m1203c31077" y="247.77079"/>
     <use style="fill:#ff0000;stroke:#ff0000;" x="90.481678" xlink:href="#m1203c31077" y="247.77079"/>
     <use style="fill:#ff0000;stroke:#ff0000;" x="91.869091" xlink:href="#m1203c31077" y="247.77079"/>
     <use style="fill:#ff0000;stroke:#ff0000;" x="93.256503" xlink:href="#m1203c31077" y="208.295962"/>
     <use style="fill:#ff0000;stroke:#ff0000;" x="94.643916" xlink:href="#m1203c31077" y="208.295962"/>
     <use style="fill:#ff0000;stroke:#ff0000;" x="96.031329" xlink:href="#m1203c31077" y="243.647393"/>
     <use style="fill:#ff0000;stroke:#ff0000;" x="97.418741" xlink:href="#m1203c31077" y="243.647393"/>
     <use style="fill:#ff0000;stroke:#ff0000;" x="98.806154" xlink:href="#m1203c31077" y="209.570605"/>
     <use style="fill:#ff0000;stroke:#ff0000;" x="100.193566" xlink:href="#m1203c31077" y="209.570605"/>
     <use style="fill:#ff0000;stroke:#ff0000;" x="101.580979" xlink:href="#m1203c31077" y="246.788342"/>
     <use style="fill:#ff0000;stroke:#ff0000;" x="102.968392" xlink:href="#m1203c31077" y="246.788342"/>
     <use style="fill:#ff0000;stroke:#ff0000;" x="104.355804" xlink:href="#m1203c31077" y="283.424594"/>
     <use style="fill:#ff0000;stroke:#ff0000;" x="105.743217" xlink:href="#m1203c31077" y="283.424594"/>
     <use style="fill:#ff0000;stroke:#ff0000;" x="107.130629" xlink:href="#m1203c31077" y="283.303826"/>
     <use style="fill:#ff0000;stroke:#ff0000;" x="108.518042" xlink:href="#m1203c31077" y="283.303826"/>
     <use style="fill:#ff0000;stroke:#ff0000;" x="109.905455" xlink:href="#m1203c31077" y="269.983187"/>
     <use style="fill:#ff0000;stroke:#ff0000;" x="111.292867" xlink:href="#m1203c31077" y="266.931061"/>
     <use style="fill:#ff0000;stroke:#ff0000;" x="112.68028" xlink:href="#m1203c31077" y="266.931061"/>
     <use style="fill:#ff0000;stroke:#ff0000;" x="114.067692" xlink:href="#m1203c31077" y="253.500012"/>
     <use style="fill:#ff0000;stroke:#ff0000;" x="115.455105" xlink:href="#m1203c31077" y="253.500012"/>
     <use style="fill:#ff0000;stroke:#ff0000;" x="116.842517" xlink:href="#m1203c31077" y="241.089023"/>
     <use style="fill:#ff0000;stroke:#ff0000;" x="118.22993" xlink:href="#m1203c31077" y="241.089023"/>
     <use style="fill:#ff0000;stroke:#ff0000;" x="119.617343" xlink:href="#m1203c31077" y="241.089023"/>
     <use style="fill:#ff0000;stroke:#ff0000;" x="121.004755" xlink:href="#m1203c31077" y="241.089023"/>
     <use style="fill:#ff0000;stroke:#ff0000;" x="122.392168" xlink:href="#m1203c31077" y="254.066683"/>
     <use style="fill:#ff0000;stroke:#ff0000;" x="123.77958" xlink:href="#m1203c31077" y="254.066683"/>
     <use style="fill:#ff0000;stroke:#ff0000;" x="125.166993" xlink:href="#m1203c31077" y="254.066683"/>
     <use style="fill:#ff0000;stroke:#ff0000;" x="126.554406" xlink:href="#m1203c31077" y="242.871533"/>
     <use style="fill:#ff0000;stroke:#ff0000;" x="127.941818" xlink:href="#m1203c31077" y="255.274349"/>
     <use style="fill:#ff0000;stroke:#ff0000;" x="129.329231" xlink:href="#m1203c31077" y="255.274349"/>
     <use style="fill:#ff0000;stroke:#ff0000;" x="130.716643" xlink:href="#m1203c31077" y="255.274349"/>
     <use style="fill:#ff0000;stroke:#ff0000;" x="132.104056" xlink:href="#m1203c31077" y="255.274349"/>
     <use style="fill:#ff0000;stroke:#ff0000;" x="133.491469" xlink:href="#m1203c31077" y="267.314041"/>
     <use style="fill:#ff0000;stroke:#ff0000;" x="134.878881" xlink:href="#m1203c31077" y="267.314041"/>
     <use style="fill:#ff0000;stroke:#ff0000;" x="136.266294" xlink:href="#m1203c31077" y="254.75359"/>
     <use style="fill:#ff0000;stroke:#ff0000;" x="137.653706" xlink:href="#m1203c31077" y="254.75359"/>
     <use style="fill:#ff0000;stroke:#ff0000;" x="139.041119" xlink:href="#m1203c31077" y="242.845423"/>
     <use style="fill:#ff0000;stroke:#ff0000;" x="140.428531" xlink:href="#m1203c31077" y="242.845423"/>
     <use style="fill:#ff0000;stroke:#ff0000;" x="141.815944" xlink:href="#m1203c31077" y="229.710968"/>
     <use style="fill:#ff0000;stroke:#ff0000;" x="143.203357" xlink:href="#m1203c31077" y="229.710968"/>
     <use style="fill:#ff0000;stroke:#ff0000;" x="144.590769" xlink:href="#m1203c31077" y="242.951663"/>
     <use style="fill:#ff0000;stroke:#ff0000;" x="145.978182" xlink:href="#m1203c31077" y="242.951663"/>
     <use style="fill:#ff0000;stroke:#ff0000;" x="147.365594" xlink:href="#m1203c31077" y="230.899545"/>
     <use style="fill:#ff0000;stroke:#ff0000;" x="148.753007" xlink:href="#m1203c31077" y="230.899545"/>
     <use style="fill:#ff0000;stroke:#ff0000;" x="150.14042" xlink:href="#m1203c31077" y="230.899545"/>
     <use style="fill:#ff0000;stroke:#ff0000;" x="151.527832" xlink:href="#m1203c31077" y="233.650442"/>
     <use style="fill:#ff0000;stroke:#ff0000;" x="152.915245" xlink:href="#m1203c31077" y="233.650442"/>
     <use style="fill:#ff0000;stroke:#ff0000;" x="154.302657" xlink:href="#m1203c31077" y="222.833545"/>
     <use style="fill:#ff0000;stroke:#ff0000;" x="155.69007" xlink:href="#m1203c31077" y="222.833545"/>
     <use style="fill:#ff0000;stroke:#ff0000;" x="157.077483" xlink:href="#m1203c31077" y="211.159931"/>
     <use style="fill:#ff0000;stroke:#ff0000;" x="158.464895" xlink:href="#m1203c31077" y="211.159931"/>
     <use style="fill:#ff0000;stroke:#ff0000;" x="159.852308" xlink:href="#m1203c31077" y="198.677563"/>
     <use style="fill:#ff0000;stroke:#ff0000;" x="161.23972" xlink:href="#m1203c31077" y="198.677563"/>
     <use style="fill:#ff0000;stroke:#ff0000;" x="162.627133" xlink:href="#m1203c31077" y="186.020896"/>
     <use style="fill:#ff0000;stroke:#ff0000;" x="164.014545" xlink:href="#m1203c31077" y="186.020896"/>
     <use style="fill:#ff0000;stroke:#ff0000;" x="165.401958" xlink:href="#m1203c31077" y="172.730101"/>
     <use style="fill:#ff0000;stroke:#ff0000;" x="166.789371" xlink:href="#m1203c31077" y="185.844391"/>
     <use style="fill:#ff0000;stroke:#ff0000;" x="168.176783" xlink:href="#m1203c31077" y="185.844391"/>
     <use style="fill:#ff0000;stroke:#ff0000;" x="169.564196" xlink:href="#m1203c31077" y="185.844391"/>
     <use style="fill:#ff0000;stroke:#ff0000;" x="170.951608" xlink:href="#m1203c31077" y="184.573507"/>
     <use style="fill:#ff0000;stroke:#ff0000;" x="172.339021" xlink:href="#m1203c31077" y="184.573507"/>
     <use style="fill:#ff0000;stroke:#ff0000;" x="173.726434" xlink:href="#m1203c31077" y="184.573507"/>
     <use style="fill:#ff0000;stroke:#ff0000;" x="175.113846" xlink:href="#m1203c31077" y="172.03606"/>
     <use style="fill:#ff0000;stroke:#ff0000;" x="176.501259" xlink:href="#m1203c31077" y="160.683599"/>
     <use style="fill:#ff0000;stroke:#ff0000;" x="177.888671" xlink:href="#m1203c31077" y="160.683599"/>
     <use style="fill:#ff0000;stroke:#ff0000;" x="179.276084" xlink:href="#m1203c31077" y="173.969367"/>
     <use style="fill:#ff0000;stroke:#ff0000;" x="180.663497" xlink:href="#m1203c31077" y="173.969367"/>
     <use style="fill:#ff0000;stroke:#ff0000;" x="182.050909" xlink:href="#m1203c31077" y="172.902335"/>
     <use style="fill:#ff0000;stroke:#ff0000;" x="183.438322" xlink:href="#m1203c31077" y="172.902335"/>
     <use style="fill:#ff0000;stroke:#ff0000;" x="184.825734" xlink:href="#m1203c31077" y="186.524231"/>
     <use style="fill:#ff0000;stroke:#ff0000;" x="186.213147" xlink:href="#m1203c31077" y="186.524231"/>
     <use style="fill:#ff0000;stroke:#ff0000;" x="187.600559" xlink:href="#m1203c31077" y="186.524231"/>
     <use style="fill:#ff0000;stroke:#ff0000;" x="188.987972" xlink:href="#m1203c31077" y="186.524231"/>
     <use style="fill:#ff0000;stroke:#ff0000;" x="190.375385" xlink:href="#m1203c31077" y="186.524231"/>
     <use style="fill:#ff0000;stroke:#ff0000;" x="191.762797" xlink:href="#m1203c31077" y="173.657635"/>
     <use style="fill:#ff0000;stroke:#ff0000;" x="193.15021" xlink:href="#m1203c31077" y="173.657635"/>
     <use style="fill:#ff0000;stroke:#ff0000;" x="194.537622" xlink:href="#m1203c31077" y="177.09531"/>
     <use style="fill:#ff0000;stroke:#ff0000;" x="195.925035" xlink:href="#m1203c31077" y="177.09531"/>
     <use style="fill:#ff0000;stroke:#ff0000;" x="197.312448" xlink:href="#m1203c31077" y="164.550292"/>
     <use style="fill:#ff0000;stroke:#ff0000;" x="198.69986" xlink:href="#m1203c31077" y="164.550292"/>
     <use style="fill:#ff0000;stroke:#ff0000;" x="200.087273" xlink:href="#m1203c31077" y="154.418329"/>
     <use style="fill:#ff0000;stroke:#ff0000;" x="201.474685" xlink:href="#m1203c31077" y="166.925925"/>
     <use style="fill:#ff0000;stroke:#ff0000;" x="202.862098" xlink:href="#m1203c31077" y="166.925925"/>
     <use style="fill:#ff0000;stroke:#ff0000;" x="204.24951" xlink:href="#m1203c31077" y="166.196996"/>
     <use style="fill:#ff0000;stroke:#ff0000;" x="205.636923" xlink:href="#m1203c31077" y="166.196996"/>
     <use style="fill:#ff0000;stroke:#ff0000;" x="207.024336" xlink:href="#m1203c31077" y="154.985489"/>
     <use style="fill:#ff0000;stroke:#ff0000;" x="208.411748" xlink:href="#m1203c31077" y="154.985489"/>
     <use style="fill:#ff0000;stroke:#ff0000;" x="209.799161" xlink:href="#m1203c31077" y="142.666982"/>
     <use style="fill:#ff0000;stroke:#ff0000;" x="211.186573" xlink:href="#m1203c31077" y="142.666982"/>
     <use style="fill:#ff0000;stroke:#ff0000;" x="212.573986" xlink:href="#m1203c31077" y="132.153974"/>
     <use style="fill:#ff0000;stroke:#ff0000;" x="213.961399" xlink:href="#m1203c31077" y="132.153974"/>
     <use style="fill:#ff0000;stroke:#ff0000;" x="215.348811" xlink:href="#m1203c31077" y="121.141781"/>
     <use style="fill:#ff0000;stroke:#ff0000;" x="216.736224" xlink:href="#m1203c31077" y="121.141781"/>
     <use style="fill:#ff0000;stroke:#ff0000;" x="218.123636" xlink:href="#m1203c31077" y="121.141781"/>
     <use style="fill:#ff0000;stroke:#ff0000;" x="219.511049" xlink:href="#m1203c31077" y="124.576768"/>
     <use style="fill:#ff0000;stroke:#ff0000;" x="220.898462" xlink:href="#m1203c31077" y="124.576768"/>
     <use style="fill:#ff0000;stroke:#ff0000;" x="222.285874" xlink:href="#m1203c31077" y="114.768328"/>
     <use style="fill:#ff0000;stroke:#ff0000;" x="223.673287" xlink:href="#m1203c31077" y="103.664775"/>
     <use style="fill:#ff0000;stroke:#ff0000;" x="225.060699" xlink:href="#m1203c31077" y="103.664775"/>
     <use style="fill:#ff0000;stroke:#ff0000;" x="226.448112" xlink:href="#m1203c31077" y="103.664775"/>
     <use style="fill:#ff0000;stroke:#ff0000;" x="227.835524" xlink:href="#m1203c31077" y="102.207861"/>
     <use style="fill:#ff0000;stroke:#ff0000;" x="229.222937" xlink:href="#m1203c31077" y="102.207861"/>
     <use style="fill:#ff0000;stroke:#ff0000;" x="230.61035" xlink:href="#m1203c31077" y="102.207861"/>
     <use style="fill:#ff0000;stroke:#ff0000;" x="231.997762" xlink:href="#m1203c31077" y="102.207861"/>
     <use style="fill:#ff0000;stroke:#ff0000;" x="233.385175" xlink:href="#m1203c31077" y="102.207861"/>
     <use style="fill:#ff0000;stroke:#ff0000;" x="234.772587" xlink:href="#m1203c31077" y="102.207861"/>
     <use style="fill:#ff0000;stroke:#ff0000;" x="236.16" xlink:href="#m1203c31077" y="102.207861"/>
     <use style="fill:#ff0000;stroke:#ff0000;" x="237.547413" xlink:href="#m1203c31077" y="102.207861"/>
     <use style="fill:#ff0000;stroke:#ff0000;" x="238.934825" xlink:href="#m1203c31077" y="102.207861"/>
     <use style="fill:#ff0000;stroke:#ff0000;" x="240.322238" xlink:href="#m1203c31077" y="102.207861"/>
     <use style="fill:#ff0000;stroke:#ff0000;" x="241.70965" xlink:href="#m1203c31077" y="115.591326"/>
     <use style="fill:#ff0000;stroke:#ff0000;" x="243.097063" xlink:href="#m1203c31077" y="115.591326"/>
     <use style="fill:#ff0000;stroke:#ff0000;" x="244.484476" xlink:href="#m1203c31077" y="103.92137"/>
     <use style="fill:#ff0000;stroke:#ff0000;" x="245.871888" xlink:href="#m1203c31077" y="103.92137"/>
     <use style="fill:#ff0000;stroke:#ff0000;" x="247.259301" xlink:href="#m1203c31077" y="103.92137"/>
     <use style="fill:#ff0000;stroke:#ff0000;" x="248.646713" xlink:href="#m1203c31077" y="103.92137"/>
     <use style="fill:#ff0000;stroke:#ff0000;" x="250.034126" xlink:href="#m1203c31077" y="116.55406"/>
     <use style="fill:#ff0000;stroke:#ff0000;" x="251.421538" xlink:href="#m1203c31077" y="116.55406"/>
     <use style="fill:#ff0000;stroke:#ff0000;" x="252.808951" xlink:href="#m1203c31077" y="118.065763"/>
     <use style="fill:#ff0000;stroke:#ff0000;" x="254.196364" xlink:href="#m1203c31077" y="118.065763"/>
     <use style="fill:#ff0000;stroke:#ff0000;" x="255.583776" xlink:href="#m1203c31077" y="118.065763"/>
     <use style="fill:#ff0000;stroke:#ff0000;" x="256.971189" xlink:href="#m1203c31077" y="129.474449"/>
     <use style="fill:#ff0000;stroke:#ff0000;" x="258.358601" xlink:href="#m1203c31077" y="129.474449"/>
     <use style="fill:#ff0000;stroke:#ff0000;" x="259.746014" xlink:href="#m1203c31077" y="131.575658"/>
     <use style="fill:#ff0000;stroke:#ff0000;" x="261.133427" xlink:href="#m1203c31077" y="131.575658"/>
     <use style="fill:#ff0000;stroke:#ff0000;" x="262.520839" xlink:href="#m1203c31077" y="119.410693"/>
     <use style="fill:#ff0000;stroke:#ff0000;" x="263.908252" xlink:href="#m1203c31077" y="119.410693"/>
     <use style="fill:#ff0000;stroke:#ff0000;" x="265.295664" xlink:href="#m1203c31077" y="108.422131"/>
     <use style="fill:#ff0000;stroke:#ff0000;" x="266.683077" xlink:href="#m1203c31077" y="108.422131"/>
     <use style="fill:#ff0000;stroke:#ff0000;" x="268.07049" xlink:href="#m1203c31077" y="96.167232"/>
     <use style="fill:#ff0000;stroke:#ff0000;" x="269.457902" xlink:href="#m1203c31077" y="96.167232"/>
     <use style="fill:#ff0000;stroke:#ff0000;" x="270.845315" xlink:href="#m1203c31077" y="85.752559"/>
     <use style="fill:#ff0000;stroke:#ff0000;" x="272.232727" xlink:href="#m1203c31077" y="85.752559"/>
     <use style="fill:#ff0000;stroke:#ff0000;" x="273.62014" xlink:href="#m1203c31077" y="75.953778"/>
     <use style="fill:#ff0000;stroke:#ff0000;" x="275.007552" xlink:href="#m1203c31077" y="75.953778"/>
     <use style="fill:#ff0000;stroke:#ff0000;" x="276.394965" xlink:href="#m1203c31077" y="63.971969"/>
     <use style="fill:#ff0000;stroke:#ff0000;" x="277.782378" xlink:href="#m1203c31077" y="53.568"/>
     <use style="fill:#ff0000;stroke:#ff0000;" x="279.16979" xlink:href="#m1203c31077" y="53.568"/>
     <use style="fill:#ff0000;stroke:#ff0000;" x="280.557203" xlink:href="#m1203c31077" y="53.568"/>
     <use style="fill:#ff0000;stroke:#ff0000;" x="281.944615" xlink:href="#m1203c31077" y="67.282657"/>
     <use style="fill:#ff0000;stroke:#ff0000;" x="283.332028" xlink:href="#m1203c31077" y="67.282657"/>
     <use style="fill:#ff0000;stroke:#ff0000;" x="284.719441" xlink:href="#m1203c31077" y="79.916634"/>
     <use style="fill:#ff0000;stroke:#ff0000;" x="286.106853" xlink:href="#m1203c31077" y="79.916634"/>
     <use style="fill:#ff0000;stroke:#ff0000;" x="287.494266" xlink:href="#m1203c31077" y="93.574299"/>
     <use style="fill:#ff0000;stroke:#ff0000;" x="288.881678" xlink:href="#m1203c31077" y="107.575438"/>
     <use style="fill:#ff0000;stroke:#ff0000;" x="290.269091" xlink:href="#m1203c31077" y="107.575438"/>
     <use style="fill:#ff0000;stroke:#ff0000;" x="291.656503" xlink:href="#m1203c31077" y="107.575438"/>
     <use style="fill:#ff0000;stroke:#ff0000;" x="293.043916" xlink:href="#m1203c31077" y="95.952329"/>
     <use style="fill:#ff0000;stroke:#ff0000;" x="294.431329" xlink:href="#m1203c31077" y="95.952329"/>
     <use style="fill:#ff0000;stroke:#ff0000;" x="295.818741" xlink:href="#m1203c31077" y="85.711658"/>
     <use style="fill:#ff0000;stroke:#ff0000;" x="297.206154" xlink:href="#m1203c31077" y="85.711658"/>
     <use style="fill:#ff0000;stroke:#ff0000;" x="298.593566" xlink:href="#m1203c31077" y="85.711658"/>
     <use style="fill:#ff0000;stroke:#ff0000;" x="299.980979" xlink:href="#m1203c31077" y="75.611405"/>
     <use style="fill:#ff0000;stroke:#ff0000;" x="301.368392" xlink:href="#m1203c31077" y="88.628298"/>
     <use style="fill:#ff0000;stroke:#ff0000;" x="302.755804" xlink:href="#m1203c31077" y="88.628298"/>
     <use style="fill:#ff0000;stroke:#ff0000;" x="304.143217" xlink:href="#m1203c31077" y="88.628298"/>
     <use style="fill:#ff0000;stroke:#ff0000;" x="305.530629" xlink:href="#m1203c31077" y="77.107927"/>
     <use style="fill:#ff0000;stroke:#ff0000;" x="306.918042" xlink:href="#m1203c31077" y="77.107927"/>
     <use style="fill:#ff0000;stroke:#ff0000;" x="308.305455" xlink:href="#m1203c31077" y="67.623909"/>
     <use style="fill:#ff0000;stroke:#ff0000;" x="309.692867" xlink:href="#m1203c31077" y="67.623909"/>
     <use style="fill:#ff0000;stroke:#ff0000;" x="311.08028" xlink:href="#m1203c31077" y="57.365002"/>
     <use style="fill:#ff0000;stroke:#ff0000;" x="312.467692" xlink:href="#m1203c31077" y="57.365002"/>
     <use style="fill:#ff0000;stroke:#ff0000;" x="313.855105" xlink:href="#m1203c31077" y="73.118245"/>
     <use style="fill:#ff0000;stroke:#ff0000;" x="315.242517" xlink:href="#m1203c31077" y="73.118245"/>
     <use style="fill:#ff0000;stroke:#ff0000;" x="316.62993" xlink:href="#m1203c31077" y="86.736024"/>
     <use style="fill:#ff0000;stroke:#ff0000;" x="318.017343" xlink:href="#m1203c31077" y="86.736024"/>
     <use style="fill:#ff0000;stroke:#ff0000;" x="319.404755" xlink:href="#m1203c31077" y="76.431024"/>
     <use style="fill:#ff0000;stroke:#ff0000;" x="320.792168" xlink:href="#m1203c31077" y="76.431024"/>
     <use style="fill:#ff0000;stroke:#ff0000;" x="322.17958" xlink:href="#m1203c31077" y="64.398688"/>
     <use style="fill:#ff0000;stroke:#ff0000;" x="323.566993" xlink:href="#m1203c31077" y="55.138979"/>
     <use style="fill:#ff0000;stroke:#ff0000;" x="324.954406" xlink:href="#m1203c31077" y="55.138979"/>
     <use style="fill:#ff0000;stroke:#ff0000;" x="326.341818" xlink:href="#m1203c31077" y="69.941067"/>
     <use style="fill:#ff0000;stroke:#ff0000;" x="327.729231" xlink:href="#m1203c31077" y="69.941067"/>
     <use style="fill:#ff0000;stroke:#ff0000;" x="329.116643" xlink:href="#m1203c31077" y="69.941067"/>
     <use style="fill:#ff0000;stroke:#ff0000;" x="330.504056" xlink:href="#m1203c31077" y="84.702423"/>
     <use style="fill:#ff0000;stroke:#ff0000;" x="331.891469" xlink:href="#m1203c31077" y="84.702423"/>
     <use style="fill:#ff0000;stroke:#ff0000;" x="333.278881" xlink:href="#m1203c31077" y="84.702423"/>
     <use style="fill:#ff0000;stroke:#ff0000;" x="334.666294" xlink:href="#m1203c31077" y="84.702423"/>
     <use style="fill:#ff0000;stroke:#ff0000;" x="336.053706" xlink:href="#m1203c31077" y="84.702423"/>
     <use style="fill:#ff0000;stroke:#ff0000;" x="337.441119" xlink:href="#m1203c31077" y="84.702423"/>
     <use style="fill:#ff0000;stroke:#ff0000;" x="338.828531" xlink:href="#m1203c31077" y="84.702423"/>
     <use style="fill:#ff0000;stroke:#ff0000;" x="340.215944" xlink:href="#m1203c31077" y="84.702423"/>
     <use style="fill:#ff0000;stroke:#ff0000;" x="341.603357" xlink:href="#m1203c31077" y="84.702423"/>
     <use style="fill:#ff0000;stroke:#ff0000;" x="342.990769" xlink:href="#m1203c31077" y="84.702423"/>
     <use style="fill:#ff0000;stroke:#ff0000;" x="344.378182" xlink:href="#m1203c31077" y="84.702423"/>
     <use style="fill:#ff0000;stroke:#ff0000;" x="345.765594" xlink:href="#m1203c31077" y="84.702423"/>
     <use style="fill:#ff0000;stroke:#ff0000;" x="347.153007" xlink:href="#m1203c31077" y="84.702423"/>
     <use style="fill:#ff0000;stroke:#ff0000;" x="348.54042" xlink:href="#m1203c31077" y="84.702423"/>
     <use style="fill:#ff0000;stroke:#ff0000;" x="349.927832" xlink:href="#m1203c31077" y="84.702423"/>
     <use style="fill:#ff0000;stroke:#ff0000;" x="351.315245" xlink:href="#m1203c31077" y="84.702423"/>
     <use style="fill:#ff0000;stroke:#ff0000;" x="352.702657" xlink:href="#m1203c31077" y="84.702423"/>
     <use style="fill:#ff0000;stroke:#ff0000;" x="354.09007" xlink:href="#m1203c31077" y="84.702423"/>
     <use style="fill:#ff0000;stroke:#ff0000;" x="355.477483" xlink:href="#m1203c31077" y="84.702423"/>
     <use style="fill:#ff0000;stroke:#ff0000;" x="356.864895" xlink:href="#m1203c31077" y="84.702423"/>
     <use style="fill:#ff0000;stroke:#ff0000;" x="358.252308" xlink:href="#m1203c31077" y="84.702423"/>
     <use style="fill:#ff0000;stroke:#ff0000;" x="359.63972" xlink:href="#m1203c31077" y="84.702423"/>
     <use style="fill:#ff0000;stroke:#ff0000;" x="361.027133" xlink:href="#m1203c31077" y="84.702423"/>
     <use style="fill:#ff0000;stroke:#ff0000;" x="362.414545" xlink:href="#m1203c31077" y="84.702423"/>
     <use style="fill:#ff0000;stroke:#ff0000;" x="363.801958" xlink:href="#m1203c31077" y="84.702423"/>
     <use style="fill:#ff0000;stroke:#ff0000;" x="365.189371" xlink:href="#m1203c31077" y="84.702423"/>
     <use style="fill:#ff0000;stroke:#ff0000;" x="366.576783" xlink:href="#m1203c31077" y="84.702423"/>
     <use style="fill:#ff0000;stroke:#ff0000;" x="367.964196" xlink:href="#m1203c31077" y="84.702423"/>
     <use style="fill:#ff0000;stroke:#ff0000;" x="369.351608" xlink:href="#m1203c31077" y="84.702423"/>
     <use style="fill:#ff0000;stroke:#ff0000;" x="370.739021" xlink:href="#m1203c31077" y="84.702423"/>
     <use style="fill:#ff0000;stroke:#ff0000;" x="372.126434" xlink:href="#m1203c31077" y="84.702423"/>
     <use style="fill:#ff0000;stroke:#ff0000;" x="373.513846" xlink:href="#m1203c31077" y="84.702423"/>
     <use style="fill:#ff0000;stroke:#ff0000;" x="374.901259" xlink:href="#m1203c31077" y="84.702423"/>
     <use style="fill:#ff0000;stroke:#ff0000;" x="376.288671" xlink:href="#m1203c31077" y="84.702423"/>
     <use style="fill:#ff0000;stroke:#ff0000;" x="377.676084" xlink:href="#m1203c31077" y="84.702423"/>
     <use style="fill:#ff0000;stroke:#ff0000;" x="379.063497" xlink:href="#m1203c31077" y="84.702423"/>
     <use style="fill:#ff0000;stroke:#ff0000;" x="380.450909" xlink:href="#m1203c31077" y="84.702423"/>
     <use style="fill:#ff0000;stroke:#ff0000;" x="381.838322" xlink:href="#m1203c31077" y="84.702423"/>
     <use style="fill:#ff0000;stroke:#ff0000;" x="383.225734" xlink:href="#m1203c31077" y="84.702423"/>
     <use style="fill:#ff0000;stroke:#ff0000;" x="384.613147" xlink:href="#m1203c31077" y="84.702423"/>
     <use style="fill:#ff0000;stroke:#ff0000;" x="386.000559" xlink:href="#m1203c31077" y="84.702423"/>
     <use style="fill:#ff0000;stroke:#ff0000;" x="387.387972" xlink:href="#m1203c31077" y="84.702423"/>
     <use style="fill:#ff0000;stroke:#ff0000;" x="388.775385" xlink:href="#m1203c31077" y="84.702423"/>
     <use style="fill:#ff0000;stroke:#ff0000;" x="390.162797" xlink:href="#m1203c31077" y="84.702423"/>
     <use style="fill:#ff0000;stroke:#ff0000;" x="391.55021" xlink:href="#m1203c31077" y="84.702423"/>
     <use style="fill:#ff0000;stroke:#ff0000;" x="392.937622" xlink:href="#m1203c31077" y="84.702423"/>
     <use style="fill:#ff0000;stroke:#ff0000;" x="394.325035" xlink:href="#m1203c31077" y="84.702423"/>
     <use style="fill:#ff0000;stroke:#ff0000;" x="395.712448" xlink:href="#m1203c31077" y="84.702423"/>
     <use style="fill:#ff0000;stroke:#ff0000;" x="397.09986" xlink:href="#m1203c31077" y="84.702423"/>
     <use style="fill:#ff0000;stroke:#ff0000;" x="398.487273" xlink:href="#m1203c31077" y="84.702423"/>
    </g>
   </g>
   <g id="patch_3">
    <path d="M 57.6 307.584 
L 57.6 41.472 
" style="fill:none;stroke:#000000;stroke-linecap:square;stroke-linejoin:miter;stroke-width:0.8;"/>
   </g>
   <g id="patch_4">
    <path d="M 414.72 307.584 
L 414.72 41.472 
" style="fill:none;stroke:#000000;stroke-linecap:square;stroke-linejoin:miter;stroke-width:0.8;"/>
   </g>
   <g id="patch_5">
    <path d="M 57.6 307.584 
L 414.72 307.584 
" style="fill:none;stroke:#000000;stroke-linecap:square;stroke-linejoin:miter;stroke-width:0.8;"/>
   </g>
   <g id="patch_6">
    <path d="M 57.6 41.472 
L 414.72 41.472 
" style="fill:none;stroke:#000000;stroke-linecap:square;stroke-linejoin:miter;stroke-width:0.8;"/>
   </g>
  </g>
 </g>
 <defs>
  <clipPath id="p5a9631956a">
   <rect height="266.112" width="357.12" x="57.6" y="41.472"/>
  </clipPath>
 </defs>
</svg>
