<?xml version="1.0" encoding="utf-8" standalone="no"?>
<!DOCTYPE svg PUBLIC "-//W3C//DTD SVG 1.1//EN"
  "http://www.w3.org/Graphics/SVG/1.1/DTD/svg11.dtd">
<!-- Created with matplotlib (https://matplotlib.org/) -->
<svg height="345.6pt" version="1.1" viewBox="0 0 460.8 345.6" width="460.8pt" xmlns="http://www.w3.org/2000/svg" xmlns:xlink="http://www.w3.org/1999/xlink">
 <defs>
  <style type="text/css">
*{stroke-linecap:butt;stroke-linejoin:round;}
  </style>
 </defs>
 <g id="figure_1">
  <g id="patch_1">
   <path d="M 0 345.6 
L 460.8 345.6 
L 460.8 0 
L 0 0 
z
" style="fill:#ffffff;"/>
  </g>
  <g id="axes_1">
   <g id="patch_2">
    <path d="M 57.6 307.584 
L 414.72 307.584 
L 414.72 41.472 
L 57.6 41.472 
z
" style="fill:#ffffff;"/>
   </g>
   <g id="line2d_1">
    <path clip-path="url(#p5ec29962b1)" d="M 73.832727 295.488 
L 75.868179 295.488 
L 76.885905 256.519255 
L 78.921357 256.519255 
L 79.939082 217.59914 
L 80.956808 217.59914 
L 81.974534 256.776381 
L 82.99226 256.776381 
L 84.009986 247.77079 
L 87.063163 247.77079 
L 88.080889 208.295962 
L 89.098615 208.295962 
L 90.116341 243.647393 
L 91.134067 243.647393 
L 92.151793 209.570605 
L 93.169518 209.570605 
L 94.187244 246.788342 
L 95.20497 246.788342 
L 96.222696 283.424594 
L 97.240422 283.424594 
L 98.258148 283.303826 
L 99.275873 283.303826 
L 100.293599 269.983187 
L 101.311325 266.931061 
L 102.329051 266.931061 
L 103.346777 253.500012 
L 104.364503 253.500012 
L 105.382229 241.089023 
L 108.435406 241.089023 
L 109.453132 254.066683 
L 111.488584 254.066683 
L 112.506309 242.871533 
L 113.524035 255.274349 
L 116.577213 255.274349 
L 117.594939 267.314041 
L 118.612665 267.314041 
L 119.63039 254.75359 
L 120.648116 254.75359 
L 121.665842 242.845423 
L 122.683568 242.845423 
L 123.701294 229.710968 
L 124.71902 229.710968 
L 125.736746 242.951663 
L 126.754471 242.951663 
L 127.772197 230.899545 
L 129.807649 230.899545 
L 130.825375 233.650442 
L 131.843101 233.650442 
L 132.860826 222.833545 
L 133.878552 222.833545 
L 134.896278 211.159931 
L 135.914004 211.159931 
L 136.93173 198.677563 
L 137.949456 198.677563 
L 138.967182 186.020896 
L 139.984907 186.020896 
L 141.002633 172.730101 
L 142.020359 185.844391 
L 144.055811 185.844391 
L 145.073537 184.573507 
L 147.108988 184.573507 
L 149.14444 160.683599 
L 150.162166 160.683599 
L 151.179892 173.969367 
L 152.197618 173.969367 
L 153.215343 172.902335 
L 154.233069 172.902335 
L 155.250795 186.524231 
L 159.321698 186.524231 
L 160.339424 173.657635 
L 161.35715 173.657635 
L 162.374876 177.09531 
L 163.392602 177.09531 
L 164.410328 164.550292 
L 165.428054 164.550292 
L 166.445779 154.418329 
L 167.463505 166.925925 
L 168.481231 166.925925 
L 169.498957 166.196996 
L 170.516683 166.196996 
L 171.534409 154.985489 
L 172.552135 154.985489 
L 173.56986 142.666982 
L 174.587586 142.666982 
L 175.605312 132.153974 
L 176.623038 132.153974 
L 177.640764 121.141781 
L 179.676215 121.141781 
L 180.693941 124.576768 
L 181.711667 124.576768 
L 182.729393 114.768328 
L 183.747119 103.664775 
L 185.782571 103.664775 
L 186.800296 102.207861 
L 195.959829 102.207861 
L 196.977555 115.591326 
L 197.995281 115.591326 
L 199.013007 103.92137 
L 202.066184 103.92137 
L 203.08391 116.55406 
L 204.101636 116.55406 
L 205.119362 118.065763 
L 207.154813 118.065763 
L 208.172539 129.474449 
L 209.190265 129.474449 
L 210.207991 131.575658 
L 211.225717 131.575658 
L 212.243443 119.410693 
L 213.261168 119.410693 
L 214.278894 108.422131 
L 215.29662 108.422131 
L 216.314346 96.167232 
L 217.332072 96.167232 
L 218.349798 85.752559 
L 219.367524 85.752559 
L 220.385249 75.953778 
L 221.402975 75.953778 
L 222.420701 63.971969 
L 223.438427 53.568 
L 225.473879 53.568 
L 226.491604 67.282657 
L 227.50933 67.282657 
L 228.527056 79.916634 
L 229.544782 79.916634 
L 231.580234 107.575438 
L 233.615685 107.575438 
L 234.633411 95.952329 
L 235.651137 95.952329 
L 236.668863 85.711658 
L 238.704315 85.711658 
L 239.72204 75.611405 
L 240.739766 88.628298 
L 242.775218 88.628298 
L 243.792944 77.107927 
L 244.81067 77.107927 
L 245.828396 67.623909 
L 246.846121 67.623909 
L 247.863847 57.365002 
L 248.881573 57.365002 
L 249.899299 73.118245 
L 250.917025 73.118245 
L 251.934751 86.736024 
L 252.952476 86.736024 
L 253.970202 76.431024 
L 254.987928 76.431024 
L 256.005654 64.398688 
L 257.02338 55.138979 
L 258.041106 55.138979 
L 259.058832 69.941067 
L 261.094283 69.941067 
L 262.112009 84.702423 
L 398.487273 84.702423 
L 398.487273 84.702423 
" style="fill:none;stroke:#ff0000;stroke-linecap:square;stroke-width:12;"/>
    <defs>
     <path d="M 0 3 
C 0.795609 3 1.55874 2.683901 2.12132 2.12132 
C 2.683901 1.55874 3 0.795609 3 0 
C 3 -0.795609 2.683901 -1.55874 2.12132 -2.12132 
C 1.55874 -2.683901 0.795609 -3 0 -3 
C -0.795609 -3 -1.55874 -2.683901 -2.12132 -2.12132 
C -2.683901 -1.55874 -3 -0.795609 -3 0 
C -3 0.795609 -2.683901 1.55874 -2.12132 2.12132 
C -1.55874 2.683901 -0.795609 3 0 3 
z
" id="m2e44c28026" style="stroke:#ff0000;"/>
    </defs>
    <g clip-path="url(#p5ec29962b1)">
     <use style="fill:#ff0000;stroke:#ff0000;" x="73.832727" xlink:href="#m2e44c28026" y="295.488"/>
     <use style="fill:#ff0000;stroke:#ff0000;" x="74.850453" xlink:href="#m2e44c28026" y="295.488"/>
     <use style="fill:#ff0000;stroke:#ff0000;" x="75.868179" xlink:href="#m2e44c28026" y="295.488"/>
     <use style="fill:#ff0000;stroke:#ff0000;" x="76.885905" xlink:href="#m2e44c28026" y="256.519255"/>
     <use style="fill:#ff0000;stroke:#ff0000;" x="77.903631" xlink:href="#m2e44c28026" y="256.519255"/>
     <use style="fill:#ff0000;stroke:#ff0000;" x="78.921357" xlink:href="#m2e44c28026" y="256.519255"/>
     <use style="fill:#ff0000;stroke:#ff0000;" x="79.939082" xlink:href="#m2e44c28026" y="217.59914"/>
     <use style="fill:#ff0000;stroke:#ff0000;" x="80.956808" xlink:href="#m2e44c28026" y="217.59914"/>
     <use style="fill:#ff0000;stroke:#ff0000;" x="81.974534" xlink:href="#m2e44c28026" y="256.776381"/>
     <use style="fill:#ff0000;stroke:#ff0000;" x="82.99226" xlink:href="#m2e44c28026" y="256.776381"/>
     <use style="fill:#ff0000;stroke:#ff0000;" x="84.009986" xlink:href="#m2e44c28026" y="247.77079"/>
     <use style="fill:#ff0000;stroke:#ff0000;" x="85.027712" xlink:href="#m2e44c28026" y="247.77079"/>
     <use style="fill:#ff0000;stroke:#ff0000;" x="86.045437" xlink:href="#m2e44c28026" y="247.77079"/>
     <use style="fill:#ff0000;stroke:#ff0000;" x="87.063163" xlink:href="#m2e44c28026" y="247.77079"/>
     <use style="fill:#ff0000;stroke:#ff0000;" x="88.080889" xlink:href="#m2e44c28026" y="208.295962"/>
     <use style="fill:#ff0000;stroke:#ff0000;" x="89.098615" xlink:href="#m2e44c28026" y="208.295962"/>
     <use style="fill:#ff0000;stroke:#ff0000;" x="90.116341" xlink:href="#m2e44c28026" y="243.647393"/>
     <use style="fill:#ff0000;stroke:#ff0000;" x="91.134067" xlink:href="#m2e44c28026" y="243.647393"/>
     <use style="fill:#ff0000;stroke:#ff0000;" x="92.151793" xlink:href="#m2e44c28026" y="209.570605"/>
     <use style="fill:#ff0000;stroke:#ff0000;" x="93.169518" xlink:href="#m2e44c28026" y="209.570605"/>
     <use style="fill:#ff0000;stroke:#ff0000;" x="94.187244" xlink:href="#m2e44c28026" y="246.788342"/>
     <use style="fill:#ff0000;stroke:#ff0000;" x="95.20497" xlink:href="#m2e44c28026" y="246.788342"/>
     <use style="fill:#ff0000;stroke:#ff0000;" x="96.222696" xlink:href="#m2e44c28026" y="283.424594"/>
     <use style="fill:#ff0000;stroke:#ff0000;" x="97.240422" xlink:href="#m2e44c28026" y="283.424594"/>
     <use style="fill:#ff0000;stroke:#ff0000;" x="98.258148" xlink:href="#m2e44c28026" y="283.303826"/>
     <use style="fill:#ff0000;stroke:#ff0000;" x="99.275873" xlink:href="#m2e44c28026" y="283.303826"/>
     <use style="fill:#ff0000;stroke:#ff0000;" x="100.293599" xlink:href="#m2e44c28026" y="269.983187"/>
     <use style="fill:#ff0000;stroke:#ff0000;" x="101.311325" xlink:href="#m2e44c28026" y="266.931061"/>
     <use style="fill:#ff0000;stroke:#ff0000;" x="102.329051" xlink:href="#m2e44c28026" y="266.931061"/>
     <use style="fill:#ff0000;stroke:#ff0000;" x="103.346777" xlink:href="#m2e44c28026" y="253.500012"/>
     <use style="fill:#ff0000;stroke:#ff0000;" x="104.364503" xlink:href="#m2e44c28026" y="253.500012"/>
     <use style="fill:#ff0000;stroke:#ff0000;" x="105.382229" xlink:href="#m2e44c28026" y="241.089023"/>
     <use style="fill:#ff0000;stroke:#ff0000;" x="106.399954" xlink:href="#m2e44c28026" y="241.089023"/>
     <use style="fill:#ff0000;stroke:#ff0000;" x="107.41768" xlink:href="#m2e44c28026" y="241.089023"/>
     <use style="fill:#ff0000;stroke:#ff0000;" x="108.435406" xlink:href="#m2e44c28026" y="241.089023"/>
     <use style="fill:#ff0000;stroke:#ff0000;" x="109.453132" xlink:href="#m2e44c28026" y="254.066683"/>
     <use style="fill:#ff0000;stroke:#ff0000;" x="110.470858" xlink:href="#m2e44c28026" y="254.066683"/>
     <use style="fill:#ff0000;stroke:#ff0000;" x="111.488584" xlink:href="#m2e44c28026" y="254.066683"/>
     <use style="fill:#ff0000;stroke:#ff0000;" x="112.506309" xlink:href="#m2e44c28026" y="242.871533"/>
     <use style="fill:#ff0000;stroke:#ff0000;" x="113.524035" xlink:href="#m2e44c28026" y="255.274349"/>
     <use style="fill:#ff0000;stroke:#ff0000;" x="114.541761" xlink:href="#m2e44c28026" y="255.274349"/>
     <use style="fill:#ff0000;stroke:#ff0000;" x="115.559487" xlink:href="#m2e44c28026" y="255.274349"/>
     <use style="fill:#ff0000;stroke:#ff0000;" x="116.577213" xlink:href="#m2e44c28026" y="255.274349"/>
     <use style="fill:#ff0000;stroke:#ff0000;" x="117.594939" xlink:href="#m2e44c28026" y="267.314041"/>
     <use style="fill:#ff0000;stroke:#ff0000;" x="118.612665" xlink:href="#m2e44c28026" y="267.314041"/>
     <use style="fill:#ff0000;stroke:#ff0000;" x="119.63039" xlink:href="#m2e44c28026" y="254.75359"/>
     <use style="fill:#ff0000;stroke:#ff0000;" x="120.648116" xlink:href="#m2e44c28026" y="254.75359"/>
     <use style="fill:#ff0000;stroke:#ff0000;" x="121.665842" xlink:href="#m2e44c28026" y="242.845423"/>
     <use style="fill:#ff0000;stroke:#ff0000;" x="122.683568" xlink:href="#m2e44c28026" y="242.845423"/>
     <use style="fill:#ff0000;stroke:#ff0000;" x="123.701294" xlink:href="#m2e44c28026" y="229.710968"/>
     <use style="fill:#ff0000;stroke:#ff0000;" x="124.71902" xlink:href="#m2e44c28026" y="229.710968"/>
     <use style="fill:#ff0000;stroke:#ff0000;" x="125.736746" xlink:href="#m2e44c28026" y="242.951663"/>
     <use style="fill:#ff0000;stroke:#ff0000;" x="126.754471" xlink:href="#m2e44c28026" y="242.951663"/>
     <use style="fill:#ff0000;stroke:#ff0000;" x="127.772197" xlink:href="#m2e44c28026" y="230.899545"/>
     <use style="fill:#ff0000;stroke:#ff0000;" x="128.789923" xlink:href="#m2e44c28026" y="230.899545"/>
     <use style="fill:#ff0000;stroke:#ff0000;" x="129.807649" xlink:href="#m2e44c28026" y="230.899545"/>
     <use style="fill:#ff0000;stroke:#ff0000;" x="130.825375" xlink:href="#m2e44c28026" y="233.650442"/>
     <use style="fill:#ff0000;stroke:#ff0000;" x="131.843101" xlink:href="#m2e44c28026" y="233.650442"/>
     <use style="fill:#ff0000;stroke:#ff0000;" x="132.860826" xlink:href="#m2e44c28026" y="222.833545"/>
     <use style="fill:#ff0000;stroke:#ff0000;" x="133.878552" xlink:href="#m2e44c28026" y="222.833545"/>
     <use style="fill:#ff0000;stroke:#ff0000;" x="134.896278" xlink:href="#m2e44c28026" y="211.159931"/>
     <use style="fill:#ff0000;stroke:#ff0000;" x="135.914004" xlink:href="#m2e44c28026" y="211.159931"/>
     <use style="fill:#ff0000;stroke:#ff0000;" x="136.93173" xlink:href="#m2e44c28026" y="198.677563"/>
     <use style="fill:#ff0000;stroke:#ff0000;" x="137.949456" xlink:href="#m2e44c28026" y="198.677563"/>
     <use style="fill:#ff0000;stroke:#ff0000;" x="138.967182" xlink:href="#m2e44c28026" y="186.020896"/>
     <use style="fill:#ff0000;stroke:#ff0000;" x="139.984907" xlink:href="#m2e44c28026" y="186.020896"/>
     <use style="fill:#ff0000;stroke:#ff0000;" x="141.002633" xlink:href="#m2e44c28026" y="172.730101"/>
     <use style="fill:#ff0000;stroke:#ff0000;" x="142.020359" xlink:href="#m2e44c28026" y="185.844391"/>
     <use style="fill:#ff0000;stroke:#ff0000;" x="143.038085" xlink:href="#m2e44c28026" y="185.844391"/>
     <use style="fill:#ff0000;stroke:#ff0000;" x="144.055811" xlink:href="#m2e44c28026" y="185.844391"/>
     <use style="fill:#ff0000;stroke:#ff0000;" x="145.073537" xlink:href="#m2e44c28026" y="184.573507"/>
     <use style="fill:#ff0000;stroke:#ff0000;" x="146.091262" xlink:href="#m2e44c28026" y="184.573507"/>
     <use style="fill:#ff0000;stroke:#ff0000;" x="147.108988" xlink:href="#m2e44c28026" y="184.573507"/>
     <use style="fill:#ff0000;stroke:#ff0000;" x="148.126714" xlink:href="#m2e44c28026" y="172.03606"/>
     <use style="fill:#ff0000;stroke:#ff0000;" x="149.14444" xlink:href="#m2e44c28026" y="160.683599"/>
     <use style="fill:#ff0000;stroke:#ff0000;" x="150.162166" xlink:href="#m2e44c28026" y="160.683599"/>
     <use style="fill:#ff0000;stroke:#ff0000;" x="151.179892" xlink:href="#m2e44c28026" y="173.969367"/>
     <use style="fill:#ff0000;stroke:#ff0000;" x="152.197618" xlink:href="#m2e44c28026" y="173.969367"/>
     <use style="fill:#ff0000;stroke:#ff0000;" x="153.215343" xlink:href="#m2e44c28026" y="172.902335"/>
     <use style="fill:#ff0000;stroke:#ff0000;" x="154.233069" xlink:href="#m2e44c28026" y="172.902335"/>
     <use style="fill:#ff0000;stroke:#ff0000;" x="155.250795" xlink:href="#m2e44c28026" y="186.524231"/>
     <use style="fill:#ff0000;stroke:#ff0000;" x="156.268521" xlink:href="#m2e44c28026" y="186.524231"/>
     <use style="fill:#ff0000;stroke:#ff0000;" x="157.286247" xlink:href="#m2e44c28026" y="186.524231"/>
     <use style="fill:#ff0000;stroke:#ff0000;" x="158.303973" xlink:href="#m2e44c28026" y="186.524231"/>
     <use style="fill:#ff0000;stroke:#ff0000;" x="159.321698" xlink:href="#m2e44c28026" y="186.524231"/>
     <use style="fill:#ff0000;stroke:#ff0000;" x="160.339424" xlink:href="#m2e44c28026" y="173.657635"/>
     <use style="fill:#ff0000;stroke:#ff0000;" x="161.35715" xlink:href="#m2e44c28026" y="173.657635"/>
     <use style="fill:#ff0000;stroke:#ff0000;" x="162.374876" xlink:href="#m2e44c28026" y="177.09531"/>
     <use style="fill:#ff0000;stroke:#ff0000;" x="163.392602" xlink:href="#m2e44c28026" y="177.09531"/>
     <use style="fill:#ff0000;stroke:#ff0000;" x="164.410328" xlink:href="#m2e44c28026" y="164.550292"/>
     <use style="fill:#ff0000;stroke:#ff0000;" x="165.428054" xlink:href="#m2e44c28026" y="164.550292"/>
     <use style="fill:#ff0000;stroke:#ff0000;" x="166.445779" xlink:href="#m2e44c28026" y="154.418329"/>
     <use style="fill:#ff0000;stroke:#ff0000;" x="167.463505" xlink:href="#m2e44c28026" y="166.925925"/>
     <use style="fill:#ff0000;stroke:#ff0000;" x="168.481231" xlink:href="#m2e44c28026" y="166.925925"/>
     <use style="fill:#ff0000;stroke:#ff0000;" x="169.498957" xlink:href="#m2e44c28026" y="166.196996"/>
     <use style="fill:#ff0000;stroke:#ff0000;" x="170.516683" xlink:href="#m2e44c28026" y="166.196996"/>
     <use style="fill:#ff0000;stroke:#ff0000;" x="171.534409" xlink:href="#m2e44c28026" y="154.985489"/>
     <use style="fill:#ff0000;stroke:#ff0000;" x="172.552135" xlink:href="#m2e44c28026" y="154.985489"/>
     <use style="fill:#ff0000;stroke:#ff0000;" x="173.56986" xlink:href="#m2e44c28026" y="142.666982"/>
     <use style="fill:#ff0000;stroke:#ff0000;" x="174.587586" xlink:href="#m2e44c28026" y="142.666982"/>
     <use style="fill:#ff0000;stroke:#ff0000;" x="175.605312" xlink:href="#m2e44c28026" y="132.153974"/>
     <use style="fill:#ff0000;stroke:#ff0000;" x="176.623038" xlink:href="#m2e44c28026" y="132.153974"/>
     <use style="fill:#ff0000;stroke:#ff0000;" x="177.640764" xlink:href="#m2e44c28026" y="121.141781"/>
     <use style="fill:#ff0000;stroke:#ff0000;" x="178.65849" xlink:href="#m2e44c28026" y="121.141781"/>
     <use style="fill:#ff0000;stroke:#ff0000;" x="179.676215" xlink:href="#m2e44c28026" y="121.141781"/>
     <use style="fill:#ff0000;stroke:#ff0000;" x="180.693941" xlink:href="#m2e44c28026" y="124.576768"/>
     <use style="fill:#ff0000;stroke:#ff0000;" x="181.711667" xlink:href="#m2e44c28026" y="124.576768"/>
     <use style="fill:#ff0000;stroke:#ff0000;" x="182.729393" xlink:href="#m2e44c28026" y="114.768328"/>
     <use style="fill:#ff0000;stroke:#ff0000;" x="183.747119" xlink:href="#m2e44c28026" y="103.664775"/>
     <use style="fill:#ff0000;stroke:#ff0000;" x="184.764845" xlink:href="#m2e44c28026" y="103.664775"/>
     <use style="fill:#ff0000;stroke:#ff0000;" x="185.782571" xlink:href="#m2e44c28026" y="103.664775"/>
     <use style="fill:#ff0000;stroke:#ff0000;" x="186.800296" xlink:href="#m2e44c28026" y="102.207861"/>
     <use style="fill:#ff0000;stroke:#ff0000;" x="187.818022" xlink:href="#m2e44c28026" y="102.207861"/>
     <use style="fill:#ff0000;stroke:#ff0000;" x="188.835748" xlink:href="#m2e44c28026" y="102.207861"/>
     <use style="fill:#ff0000;stroke:#ff0000;" x="189.853474" xlink:href="#m2e44c28026" y="102.207861"/>
     <use style="fill:#ff0000;stroke:#ff0000;" x="190.8712" xlink:href="#m2e44c28026" y="102.207861"/>
     <use style="fill:#ff0000;stroke:#ff0000;" x="191.888926" xlink:href="#m2e44c28026" y="102.207861"/>
     <use style="fill:#ff0000;stroke:#ff0000;" x="192.906651" xlink:href="#m2e44c28026" y="102.207861"/>
     <use style="fill:#ff0000;stroke:#ff0000;" x="193.924377" xlink:href="#m2e44c28026" y="102.207861"/>
     <use style="fill:#ff0000;stroke:#ff0000;" x="194.942103" xlink:href="#m2e44c28026" y="102.207861"/>
     <use style="fill:#ff0000;stroke:#ff0000;" x="195.959829" xlink:href="#m2e44c28026" y="102.207861"/>
     <use style="fill:#ff0000;stroke:#ff0000;" x="196.977555" xlink:href="#m2e44c28026" y="115.591326"/>
     <use style="fill:#ff0000;stroke:#ff0000;" x="197.995281" xlink:href="#m2e44c28026" y="115.591326"/>
     <use style="fill:#ff0000;stroke:#ff0000;" x="199.013007" xlink:href="#m2e44c28026" y="103.92137"/>
     <use style="fill:#ff0000;stroke:#ff0000;" x="200.030732" xlink:href="#m2e44c28026" y="103.92137"/>
     <use style="fill:#ff0000;stroke:#ff0000;" x="201.048458" xlink:href="#m2e44c28026" y="103.92137"/>
     <use style="fill:#ff0000;stroke:#ff0000;" x="202.066184" xlink:href="#m2e44c28026" y="103.92137"/>
     <use style="fill:#ff0000;stroke:#ff0000;" x="203.08391" xlink:href="#m2e44c28026" y="116.55406"/>
     <use style="fill:#ff0000;stroke:#ff0000;" x="204.101636" xlink:href="#m2e44c28026" y="116.55406"/>
     <use style="fill:#ff0000;stroke:#ff0000;" x="205.119362" xlink:href="#m2e44c28026" y="118.065763"/>
     <use style="fill:#ff0000;stroke:#ff0000;" x="206.137087" xlink:href="#m2e44c28026" y="118.065763"/>
     <use style="fill:#ff0000;stroke:#ff0000;" x="207.154813" xlink:href="#m2e44c28026" y="118.065763"/>
     <use style="fill:#ff0000;stroke:#ff0000;" x="208.172539" xlink:href="#m2e44c28026" y="129.474449"/>
     <use style="fill:#ff0000;stroke:#ff0000;" x="209.190265" xlink:href="#m2e44c28026" y="129.474449"/>
     <use style="fill:#ff0000;stroke:#ff0000;" x="210.207991" xlink:href="#m2e44c28026" y="131.575658"/>
     <use style="fill:#ff0000;stroke:#ff0000;" x="211.225717" xlink:href="#m2e44c28026" y="131.575658"/>
     <use style="fill:#ff0000;stroke:#ff0000;" x="212.243443" xlink:href="#m2e44c28026" y="119.410693"/>
     <use style="fill:#ff0000;stroke:#ff0000;" x="213.261168" xlink:href="#m2e44c28026" y="119.410693"/>
     <use style="fill:#ff0000;stroke:#ff0000;" x="214.278894" xlink:href="#m2e44c28026" y="108.422131"/>
     <use style="fill:#ff0000;stroke:#ff0000;" x="215.29662" xlink:href="#m2e44c28026" y="108.422131"/>
     <use style="fill:#ff0000;stroke:#ff0000;" x="216.314346" xlink:href="#m2e44c28026" y="96.167232"/>
     <use style="fill:#ff0000;stroke:#ff0000;" x="217.332072" xlink:href="#m2e44c28026" y="96.167232"/>
     <use style="fill:#ff0000;stroke:#ff0000;" x="218.349798" xlink:href="#m2e44c28026" y="85.752559"/>
     <use style="fill:#ff0000;stroke:#ff0000;" x="219.367524" xlink:href="#m2e44c28026" y="85.752559"/>
     <use style="fill:#ff0000;stroke:#ff0000;" x="220.385249" xlink:href="#m2e44c28026" y="75.953778"/>
     <use style="fill:#ff0000;stroke:#ff0000;" x="221.402975" xlink:href="#m2e44c28026" y="75.953778"/>
     <use style="fill:#ff0000;stroke:#ff0000;" x="222.420701" xlink:href="#m2e44c28026" y="63.971969"/>
     <use style="fill:#ff0000;stroke:#ff0000;" x="223.438427" xlink:href="#m2e44c28026" y="53.568"/>
     <use style="fill:#ff0000;stroke:#ff0000;" x="224.456153" xlink:href="#m2e44c28026" y="53.568"/>
     <use style="fill:#ff0000;stroke:#ff0000;" x="225.473879" xlink:href="#m2e44c28026" y="53.568"/>
     <use style="fill:#ff0000;stroke:#ff0000;" x="226.491604" xlink:href="#m2e44c28026" y="67.282657"/>
     <use style="fill:#ff0000;stroke:#ff0000;" x="227.50933" xlink:href="#m2e44c28026" y="67.282657"/>
     <use style="fill:#ff0000;stroke:#ff0000;" x="228.527056" xlink:href="#m2e44c28026" y="79.916634"/>
     <use style="fill:#ff0000;stroke:#ff0000;" x="229.544782" xlink:href="#m2e44c28026" y="79.916634"/>
     <use style="fill:#ff0000;stroke:#ff0000;" x="230.562508" xlink:href="#m2e44c28026" y="93.574299"/>
     <use style="fill:#ff0000;stroke:#ff0000;" x="231.580234" xlink:href="#m2e44c28026" y="107.575438"/>
     <use style="fill:#ff0000;stroke:#ff0000;" x="232.59796" xlink:href="#m2e44c28026" y="107.575438"/>
     <use style="fill:#ff0000;stroke:#ff0000;" x="233.615685" xlink:href="#m2e44c28026" y="107.575438"/>
     <use style="fill:#ff0000;stroke:#ff0000;" x="234.633411" xlink:href="#m2e44c28026" y="95.952329"/>
     <use style="fill:#ff0000;stroke:#ff0000;" x="235.651137" xlink:href="#m2e44c28026" y="95.952329"/>
     <use style="fill:#ff0000;stroke:#ff0000;" x="236.668863" xlink:href="#m2e44c28026" y="85.711658"/>
     <use style="fill:#ff0000;stroke:#ff0000;" x="237.686589" xlink:href="#m2e44c28026" y="85.711658"/>
     <use style="fill:#ff0000;stroke:#ff0000;" x="238.704315" xlink:href="#m2e44c28026" y="85.711658"/>
     <use style="fill:#ff0000;stroke:#ff0000;" x="239.72204" xlink:href="#m2e44c28026" y="75.611405"/>
     <use style="fill:#ff0000;stroke:#ff0000;" x="240.739766" xlink:href="#m2e44c28026" y="88.628298"/>
     <use style="fill:#ff0000;stroke:#ff0000;" x="241.757492" xlink:href="#m2e44c28026" y="88.628298"/>
     <use style="fill:#ff0000;stroke:#ff0000;" x="242.775218" xlink:href="#m2e44c28026" y="88.628298"/>
     <use style="fill:#ff0000;stroke:#ff0000;" x="243.792944" xlink:href="#m2e44c28026" y="77.107927"/>
     <use style="fill:#ff0000;stroke:#ff0000;" x="244.81067" xlink:href="#m2e44c28026" y="77.107927"/>
     <use style="fill:#ff0000;stroke:#ff0000;" x="245.828396" xlink:href="#m2e44c28026" y="67.623909"/>
     <use style="fill:#ff0000;stroke:#ff0000;" x="246.846121" xlink:href="#m2e44c28026" y="67.623909"/>
     <use style="fill:#ff0000;stroke:#ff0000;" x="247.863847" xlink:href="#m2e44c28026" y="57.365002"/>
     <use style="fill:#ff0000;stroke:#ff0000;" x="248.881573" xlink:href="#m2e44c28026" y="57.365002"/>
     <use style="fill:#ff0000;stroke:#ff0000;" x="249.899299" xlink:href="#m2e44c28026" y="73.118245"/>
     <use style="fill:#ff0000;stroke:#ff0000;" x="250.917025" xlink:href="#m2e44c28026" y="73.118245"/>
     <use style="fill:#ff0000;stroke:#ff0000;" x="251.934751" xlink:href="#m2e44c28026" y="86.736024"/>
     <use style="fill:#ff0000;stroke:#ff0000;" x="252.952476" xlink:href="#m2e44c28026" y="86.736024"/>
     <use style="fill:#ff0000;stroke:#ff0000;" x="253.970202" xlink:href="#m2e44c28026" y="76.431024"/>
     <use style="fill:#ff0000;stroke:#ff0000;" x="254.987928" xlink:href="#m2e44c28026" y="76.431024"/>
     <use style="fill:#ff0000;stroke:#ff0000;" x="256.005654" xlink:href="#m2e44c28026" y="64.398688"/>
     <use style="fill:#ff0000;stroke:#ff0000;" x="257.02338" xlink:href="#m2e44c28026" y="55.138979"/>
     <use style="fill:#ff0000;stroke:#ff0000;" x="258.041106" xlink:href="#m2e44c28026" y="55.138979"/>
     <use style="fill:#ff0000;stroke:#ff0000;" x="259.058832" xlink:href="#m2e44c28026" y="69.941067"/>
     <use style="fill:#ff0000;stroke:#ff0000;" x="260.076557" xlink:href="#m2e44c28026" y="69.941067"/>
     <use style="fill:#ff0000;stroke:#ff0000;" x="261.094283" xlink:href="#m2e44c28026" y="69.941067"/>
     <use style="fill:#ff0000;stroke:#ff0000;" x="262.112009" xlink:href="#m2e44c28026" y="84.702423"/>
     <use style="fill:#ff0000;stroke:#ff0000;" x="263.129735" xlink:href="#m2e44c28026" y="84.702423"/>
     <use style="fill:#ff0000;stroke:#ff0000;" x="264.147461" xlink:href="#m2e44c28026" y="84.702423"/>
     <use style="fill:#ff0000;stroke:#ff0000;" x="265.165187" xlink:href="#m2e44c28026" y="84.702423"/>
     <use style="fill:#ff0000;stroke:#ff0000;" x="266.182913" xlink:href="#m2e44c28026" y="84.702423"/>
     <use style="fill:#ff0000;stroke:#ff0000;" x="267.200638" xlink:href="#m2e44c28026" y="84.702423"/>
     <use style="fill:#ff0000;stroke:#ff0000;" x="268.218364" xlink:href="#m2e44c28026" y="84.702423"/>
     <use style="fill:#ff0000;stroke:#ff0000;" x="269.23609" xlink:href="#m2e44c28026" y="84.702423"/>
     <use style="fill:#ff0000;stroke:#ff0000;" x="270.253816" xlink:href="#m2e44c28026" y="84.702423"/>
     <use style="fill:#ff0000;stroke:#ff0000;" x="271.271542" xlink:href="#m2e44c28026" y="84.702423"/>
     <use style="fill:#ff0000;stroke:#ff0000;" x="272.289268" xlink:href="#m2e44c28026" y="84.702423"/>
     <use style="fill:#ff0000;stroke:#ff0000;" x="273.306993" xlink:href="#m2e44c28026" y="84.702423"/>
     <use style="fill:#ff0000;stroke:#ff0000;" x="274.324719" xlink:href="#m2e44c28026" y="84.702423"/>
     <use style="fill:#ff0000;stroke:#ff0000;" x="275.342445" xlink:href="#m2e44c28026" y="84.702423"/>
     <use style="fill:#ff0000;stroke:#ff0000;" x="276.360171" xlink:href="#m2e44c28026" y="84.702423"/>
     <use style="fill:#ff0000;stroke:#ff0000;" x="277.377897" xlink:href="#m2e44c28026" y="84.702423"/>
     <use style="fill:#ff0000;stroke:#ff0000;" x="278.395623" xlink:href="#m2e44c28026" y="84.702423"/>
     <use style="fill:#ff0000;stroke:#ff0000;" x="279.413349" xlink:href="#m2e44c28026" y="84.702423"/>
     <use style="fill:#ff0000;stroke:#ff0000;" x="280.431074" xlink:href="#m2e44c28026" y="84.702423"/>
     <use style="fill:#ff0000;stroke:#ff0000;" x="281.4488" xlink:href="#m2e44c28026" y="84.702423"/>
     <use style="fill:#ff0000;stroke:#ff0000;" x="282.466526" xlink:href="#m2e44c28026" y="84.702423"/>
     <use style="fill:#ff0000;stroke:#ff0000;" x="283.484252" xlink:href="#m2e44c28026" y="84.702423"/>
     <use style="fill:#ff0000;stroke:#ff0000;" x="284.501978" xlink:href="#m2e44c28026" y="84.702423"/>
     <use style="fill:#ff0000;stroke:#ff0000;" x="285.519704" xlink:href="#m2e44c28026" y="84.702423"/>
     <use style="fill:#ff0000;stroke:#ff0000;" x="286.537429" xlink:href="#m2e44c28026" y="84.702423"/>
     <use style="fill:#ff0000;stroke:#ff0000;" x="287.555155" xlink:href="#m2e44c28026" y="84.702423"/>
     <use style="fill:#ff0000;stroke:#ff0000;" x="288.572881" xlink:href="#m2e44c28026" y="84.702423"/>
     <use style="fill:#ff0000;stroke:#ff0000;" x="289.590607" xlink:href="#m2e44c28026" y="84.702423"/>
     <use style="fill:#ff0000;stroke:#ff0000;" x="290.608333" xlink:href="#m2e44c28026" y="84.702423"/>
     <use style="fill:#ff0000;stroke:#ff0000;" x="291.626059" xlink:href="#m2e44c28026" y="84.702423"/>
     <use style="fill:#ff0000;stroke:#ff0000;" x="292.643785" xlink:href="#m2e44c28026" y="84.702423"/>
     <use style="fill:#ff0000;stroke:#ff0000;" x="293.66151" xlink:href="#m2e44c28026" y="84.702423"/>
     <use style="fill:#ff0000;stroke:#ff0000;" x="294.679236" xlink:href="#m2e44c28026" y="84.702423"/>
     <use style="fill:#ff0000;stroke:#ff0000;" x="295.696962" xlink:href="#m2e44c28026" y="84.702423"/>
     <use style="fill:#ff0000;stroke:#ff0000;" x="296.714688" xlink:href="#m2e44c28026" y="84.702423"/>
     <use style="fill:#ff0000;stroke:#ff0000;" x="297.732414" xlink:href="#m2e44c28026" y="84.702423"/>
     <use style="fill:#ff0000;stroke:#ff0000;" x="298.75014" xlink:href="#m2e44c28026" y="84.702423"/>
     <use style="fill:#ff0000;stroke:#ff0000;" x="299.767865" xlink:href="#m2e44c28026" y="84.702423"/>
     <use style="fill:#ff0000;stroke:#ff0000;" x="300.785591" xlink:href="#m2e44c28026" y="84.702423"/>
     <use style="fill:#ff0000;stroke:#ff0000;" x="301.803317" xlink:href="#m2e44c28026" y="84.702423"/>
     <use style="fill:#ff0000;stroke:#ff0000;" x="302.821043" xlink:href="#m2e44c28026" y="84.702423"/>
     <use style="fill:#ff0000;stroke:#ff0000;" x="303.838769" xlink:href="#m2e44c28026" y="84.702423"/>
     <use style="fill:#ff0000;stroke:#ff0000;" x="304.856495" xlink:href="#m2e44c28026" y="84.702423"/>
     <use style="fill:#ff0000;stroke:#ff0000;" x="305.874221" xlink:href="#m2e44c28026" y="84.702423"/>
     <use style="fill:#ff0000;stroke:#ff0000;" x="306.891946" xlink:href="#m2e44c28026" y="84.702423"/>
     <use style="fill:#ff0000;stroke:#ff0000;" x="307.909672" xlink:href="#m2e44c28026" y="84.702423"/>
     <use style="fill:#ff0000;stroke:#ff0000;" x="308.927398" xlink:href="#m2e44c28026" y="84.702423"/>
     <use style="fill:#ff0000;stroke:#ff0000;" x="309.945124" xlink:href="#m2e44c28026" y="84.702423"/>
     <use style="fill:#ff0000;stroke:#ff0000;" x="310.96285" xlink:href="#m2e44c28026" y="84.702423"/>
     <use style="fill:#ff0000;stroke:#ff0000;" x="311.980576" xlink:href="#m2e44c28026" y="84.702423"/>
     <use style="fill:#ff0000;stroke:#ff0000;" x="312.998302" xlink:href="#m2e44c28026" y="84.702423"/>
     <use style="fill:#ff0000;stroke:#ff0000;" x="314.016027" xlink:href="#m2e44c28026" y="84.702423"/>
     <use style="fill:#ff0000;stroke:#ff0000;" x="315.033753" xlink:href="#m2e44c28026" y="84.702423"/>
     <use style="fill:#ff0000;stroke:#ff0000;" x="316.051479" xlink:href="#m2e44c28026" y="84.702423"/>
     <use style="fill:#ff0000;stroke:#ff0000;" x="317.069205" xlink:href="#m2e44c28026" y="84.702423"/>
     <use style="fill:#ff0000;stroke:#ff0000;" x="318.086931" xlink:href="#m2e44c28026" y="84.702423"/>
     <use style="fill:#ff0000;stroke:#ff0000;" x="319.104657" xlink:href="#m2e44c28026" y="84.702423"/>
     <use style="fill:#ff0000;stroke:#ff0000;" x="320.122382" xlink:href="#m2e44c28026" y="84.702423"/>
     <use style="fill:#ff0000;stroke:#ff0000;" x="321.140108" xlink:href="#m2e44c28026" y="84.702423"/>
     <use style="fill:#ff0000;stroke:#ff0000;" x="322.157834" xlink:href="#m2e44c28026" y="84.702423"/>
     <use style="fill:#ff0000;stroke:#ff0000;" x="323.17556" xlink:href="#m2e44c28026" y="84.702423"/>
     <use style="fill:#ff0000;stroke:#ff0000;" x="324.193286" xlink:href="#m2e44c28026" y="84.702423"/>
     <use style="fill:#ff0000;stroke:#ff0000;" x="325.211012" xlink:href="#m2e44c28026" y="84.702423"/>
     <use style="fill:#ff0000;stroke:#ff0000;" x="326.228738" xlink:href="#m2e44c28026" y="84.702423"/>
     <use style="fill:#ff0000;stroke:#ff0000;" x="327.246463" xlink:href="#m2e44c28026" y="84.702423"/>
     <use style="fill:#ff0000;stroke:#ff0000;" x="328.264189" xlink:href="#m2e44c28026" y="84.702423"/>
     <use style="fill:#ff0000;stroke:#ff0000;" x="329.281915" xlink:href="#m2e44c28026" y="84.702423"/>
     <use style="fill:#ff0000;stroke:#ff0000;" x="330.299641" xlink:href="#m2e44c28026" y="84.702423"/>
     <use style="fill:#ff0000;stroke:#ff0000;" x="331.317367" xlink:href="#m2e44c28026" y="84.702423"/>
     <use style="fill:#ff0000;stroke:#ff0000;" x="332.335093" xlink:href="#m2e44c28026" y="84.702423"/>
     <use style="fill:#ff0000;stroke:#ff0000;" x="333.352818" xlink:href="#m2e44c28026" y="84.702423"/>
     <use style="fill:#ff0000;stroke:#ff0000;" x="334.370544" xlink:href="#m2e44c28026" y="84.702423"/>
     <use style="fill:#ff0000;stroke:#ff0000;" x="335.38827" xlink:href="#m2e44c28026" y="84.702423"/>
     <use style="fill:#ff0000;stroke:#ff0000;" x="336.405996" xlink:href="#m2e44c28026" y="84.702423"/>
     <use style="fill:#ff0000;stroke:#ff0000;" x="337.423722" xlink:href="#m2e44c28026" y="84.702423"/>
     <use style="fill:#ff0000;stroke:#ff0000;" x="338.441448" xlink:href="#m2e44c28026" y="84.702423"/>
     <use style="fill:#ff0000;stroke:#ff0000;" x="339.459174" xlink:href="#m2e44c28026" y="84.702423"/>
     <use style="fill:#ff0000;stroke:#ff0000;" x="340.476899" xlink:href="#m2e44c28026" y="84.702423"/>
     <use style="fill:#ff0000;stroke:#ff0000;" x="341.494625" xlink:href="#m2e44c28026" y="84.702423"/>
     <use style="fill:#ff0000;stroke:#ff0000;" x="342.512351" xlink:href="#m2e44c28026" y="84.702423"/>
     <use style="fill:#ff0000;stroke:#ff0000;" x="343.530077" xlink:href="#m2e44c28026" y="84.702423"/>
     <use style="fill:#ff0000;stroke:#ff0000;" x="344.547803" xlink:href="#m2e44c28026" y="84.702423"/>
     <use style="fill:#ff0000;stroke:#ff0000;" x="345.565529" xlink:href="#m2e44c28026" y="84.702423"/>
     <use style="fill:#ff0000;stroke:#ff0000;" x="346.583254" xlink:href="#m2e44c28026" y="84.702423"/>
     <use style="fill:#ff0000;stroke:#ff0000;" x="347.60098" xlink:href="#m2e44c28026" y="84.702423"/>
     <use style="fill:#ff0000;stroke:#ff0000;" x="348.618706" xlink:href="#m2e44c28026" y="84.702423"/>
     <use style="fill:#ff0000;stroke:#ff0000;" x="349.636432" xlink:href="#m2e44c28026" y="84.702423"/>
     <use style="fill:#ff0000;stroke:#ff0000;" x="350.654158" xlink:href="#m2e44c28026" y="84.702423"/>
     <use style="fill:#ff0000;stroke:#ff0000;" x="351.671884" xlink:href="#m2e44c28026" y="84.702423"/>
     <use style="fill:#ff0000;stroke:#ff0000;" x="352.68961" xlink:href="#m2e44c28026" y="84.702423"/>
     <use style="fill:#ff0000;stroke:#ff0000;" x="353.707335" xlink:href="#m2e44c28026" y="84.702423"/>
     <use style="fill:#ff0000;stroke:#ff0000;" x="354.725061" xlink:href="#m2e44c28026" y="84.702423"/>
     <use style="fill:#ff0000;stroke:#ff0000;" x="355.742787" xlink:href="#m2e44c28026" y="84.702423"/>
     <use style="fill:#ff0000;stroke:#ff0000;" x="356.760513" xlink:href="#m2e44c28026" y="84.702423"/>
     <use style="fill:#ff0000;stroke:#ff0000;" x="357.778239" xlink:href="#m2e44c28026" y="84.702423"/>
     <use style="fill:#ff0000;stroke:#ff0000;" x="358.795965" xlink:href="#m2e44c28026" y="84.702423"/>
     <use style="fill:#ff0000;stroke:#ff0000;" x="359.813691" xlink:href="#m2e44c28026" y="84.702423"/>
     <use style="fill:#ff0000;stroke:#ff0000;" x="360.831416" xlink:href="#m2e44c28026" y="84.702423"/>
     <use style="fill:#ff0000;stroke:#ff0000;" x="361.849142" xlink:href="#m2e44c28026" y="84.702423"/>
     <use style="fill:#ff0000;stroke:#ff0000;" x="362.866868" xlink:href="#m2e44c28026" y="84.702423"/>
     <use style="fill:#ff0000;stroke:#ff0000;" x="363.884594" xlink:href="#m2e44c28026" y="84.702423"/>
     <use style="fill:#ff0000;stroke:#ff0000;" x="364.90232" xlink:href="#m2e44c28026" y="84.702423"/>
     <use style="fill:#ff0000;stroke:#ff0000;" x="365.920046" xlink:href="#m2e44c28026" y="84.702423"/>
     <use style="fill:#ff0000;stroke:#ff0000;" x="366.937771" xlink:href="#m2e44c28026" y="84.702423"/>
     <use style="fill:#ff0000;stroke:#ff0000;" x="367.955497" xlink:href="#m2e44c28026" y="84.702423"/>
     <use style="fill:#ff0000;stroke:#ff0000;" x="368.973223" xlink:href="#m2e44c28026" y="84.702423"/>
     <use style="fill:#ff0000;stroke:#ff0000;" x="369.990949" xlink:href="#m2e44c28026" y="84.702423"/>
     <use style="fill:#ff0000;stroke:#ff0000;" x="371.008675" xlink:href="#m2e44c28026" y="84.702423"/>
     <use style="fill:#ff0000;stroke:#ff0000;" x="372.026401" xlink:href="#m2e44c28026" y="84.702423"/>
     <use style="fill:#ff0000;stroke:#ff0000;" x="373.044127" xlink:href="#m2e44c28026" y="84.702423"/>
     <use style="fill:#ff0000;stroke:#ff0000;" x="374.061852" xlink:href="#m2e44c28026" y="84.702423"/>
     <use style="fill:#ff0000;stroke:#ff0000;" x="375.079578" xlink:href="#m2e44c28026" y="84.702423"/>
     <use style="fill:#ff0000;stroke:#ff0000;" x="376.097304" xlink:href="#m2e44c28026" y="84.702423"/>
     <use style="fill:#ff0000;stroke:#ff0000;" x="377.11503" xlink:href="#m2e44c28026" y="84.702423"/>
     <use style="fill:#ff0000;stroke:#ff0000;" x="378.132756" xlink:href="#m2e44c28026" y="84.702423"/>
     <use style="fill:#ff0000;stroke:#ff0000;" x="379.150482" xlink:href="#m2e44c28026" y="84.702423"/>
     <use style="fill:#ff0000;stroke:#ff0000;" x="380.168207" xlink:href="#m2e44c28026" y="84.702423"/>
     <use style="fill:#ff0000;stroke:#ff0000;" x="381.185933" xlink:href="#m2e44c28026" y="84.702423"/>
     <use style="fill:#ff0000;stroke:#ff0000;" x="382.203659" xlink:href="#m2e44c28026" y="84.702423"/>
     <use style="fill:#ff0000;stroke:#ff0000;" x="383.221385" xlink:href="#m2e44c28026" y="84.702423"/>
     <use style="fill:#ff0000;stroke:#ff0000;" x="384.239111" xlink:href="#m2e44c28026" y="84.702423"/>
     <use style="fill:#ff0000;stroke:#ff0000;" x="385.256837" xlink:href="#m2e44c28026" y="84.702423"/>
     <use style="fill:#ff0000;stroke:#ff0000;" x="386.274563" xlink:href="#m2e44c28026" y="84.702423"/>
     <use style="fill:#ff0000;stroke:#ff0000;" x="387.292288" xlink:href="#m2e44c28026" y="84.702423"/>
     <use style="fill:#ff0000;stroke:#ff0000;" x="388.310014" xlink:href="#m2e44c28026" y="84.702423"/>
     <use style="fill:#ff0000;stroke:#ff0000;" x="389.32774" xlink:href="#m2e44c28026" y="84.702423"/>
     <use style="fill:#ff0000;stroke:#ff0000;" x="390.345466" xlink:href="#m2e44c28026" y="84.702423"/>
     <use style="fill:#ff0000;stroke:#ff0000;" x="391.363192" xlink:href="#m2e44c28026" y="84.702423"/>
     <use style="fill:#ff0000;stroke:#ff0000;" x="392.380918" xlink:href="#m2e44c28026" y="84.702423"/>
     <use style="fill:#ff0000;stroke:#ff0000;" x="393.398643" xlink:href="#m2e44c28026" y="84.702423"/>
     <use style="fill:#ff0000;stroke:#ff0000;" x="394.416369" xlink:href="#m2e44c28026" y="84.702423"/>
     <use style="fill:#ff0000;stroke:#ff0000;" x="395.434095" xlink:href="#m2e44c28026" y="84.702423"/>
     <use style="fill:#ff0000;stroke:#ff0000;" x="396.451821" xlink:href="#m2e44c28026" y="84.702423"/>
     <use style="fill:#ff0000;stroke:#ff0000;" x="397.469547" xlink:href="#m2e44c28026" y="84.702423"/>
     <use style="fill:#ff0000;stroke:#ff0000;" x="398.487273" xlink:href="#m2e44c28026" y="84.702423"/>
    </g>
   </g>
   <g id="patch_3">
    <path d="M 57.6 307.584 
L 57.6 41.472 
" style="fill:none;stroke:#000000;stroke-linecap:square;stroke-linejoin:miter;stroke-width:0.8;"/>
   </g>
   <g id="patch_4">
    <path d="M 414.72 307.584 
L 414.72 41.472 
" style="fill:none;stroke:#000000;stroke-linecap:square;stroke-linejoin:miter;stroke-width:0.8;"/>
   </g>
   <g id="patch_5">
    <path d="M 57.6 307.584 
L 414.72 307.584 
" style="fill:none;stroke:#000000;stroke-linecap:square;stroke-linejoin:miter;stroke-width:0.8;"/>
   </g>
   <g id="patch_6">
    <path d="M 57.6 41.472 
L 414.72 41.472 
" style="fill:none;stroke:#000000;stroke-linecap:square;stroke-linejoin:miter;stroke-width:0.8;"/>
   </g>
  </g>
 </g>
 <defs>
  <clipPath id="p5ec29962b1">
   <rect height="266.112" width="357.12" x="57.6" y="41.472"/>
  </clipPath>
 </defs>
</svg>
