<?xml version="1.0" encoding="utf-8" standalone="no"?>
<!DOCTYPE svg PUBLIC "-//W3C//DTD SVG 1.1//EN"
  "http://www.w3.org/Graphics/SVG/1.1/DTD/svg11.dtd">
<!-- Created with matplotlib (https://matplotlib.org/) -->
<svg height="345.6pt" version="1.1" viewBox="0 0 460.8 345.6" width="460.8pt" xmlns="http://www.w3.org/2000/svg" xmlns:xlink="http://www.w3.org/1999/xlink">
 <defs>
  <style type="text/css">
*{stroke-linecap:butt;stroke-linejoin:round;}
  </style>
 </defs>
 <g id="figure_1">
  <g id="patch_1">
   <path d="M 0 345.6 
L 460.8 345.6 
L 460.8 0 
L 0 0 
z
" style="fill:#ffffff;"/>
  </g>
  <g id="axes_1">
   <g id="patch_2">
    <path d="M 57.6 307.584 
L 414.72 307.584 
L 414.72 41.472 
L 57.6 41.472 
z
" style="fill:#ffffff;"/>
   </g>
   <g id="line2d_1">
    <path clip-path="url(#p690c731cc8)" d="M 73.832727 295.488 
L 75.855497 295.488 
L 76.866882 256.519255 
L 78.889652 256.519255 
L 79.901037 217.59914 
L 80.912421 217.59914 
L 81.923806 256.776381 
L 82.935191 256.776381 
L 83.946576 247.77079 
L 86.980731 247.77079 
L 87.992116 208.295962 
L 89.0035 208.295962 
L 90.014885 243.647393 
L 91.02627 243.647393 
L 92.037655 209.570605 
L 93.04904 209.570605 
L 94.060425 246.788342 
L 95.07181 246.788342 
L 96.083195 283.424594 
L 97.094579 283.424594 
L 98.105964 283.303826 
L 99.117349 283.303826 
L 100.128734 269.983187 
L 101.140119 266.931061 
L 102.151504 266.931061 
L 103.162889 253.500012 
L 104.174274 253.500012 
L 105.185658 241.089023 
L 108.219813 241.089023 
L 109.231198 254.066683 
L 111.253968 254.066683 
L 112.265353 242.871533 
L 113.276737 255.274349 
L 116.310892 255.274349 
L 117.322277 267.314041 
L 118.333662 267.314041 
L 119.345047 254.75359 
L 120.356432 254.75359 
L 121.367816 242.845423 
L 122.379201 242.845423 
L 123.390586 229.710968 
L 124.401971 229.710968 
L 125.413356 242.951663 
L 126.424741 242.951663 
L 127.436126 230.899545 
L 129.458895 230.899545 
L 130.47028 233.650442 
L 131.481665 233.650442 
L 132.49305 222.833545 
L 133.504435 222.833545 
L 134.51582 211.159931 
L 135.527205 211.159931 
L 136.53859 198.677563 
L 137.549975 198.677563 
L 138.561359 186.020896 
L 139.572744 186.020896 
L 140.584129 172.730101 
L 141.595514 185.844391 
L 143.618284 185.844391 
L 144.629669 184.573507 
L 146.652438 184.573507 
L 148.675208 160.683599 
L 149.686593 160.683599 
L 150.697978 173.969367 
L 151.709363 173.969367 
L 152.720748 172.902335 
L 153.732133 172.902335 
L 154.743517 186.524231 
L 158.789057 186.524231 
L 159.800442 173.657635 
L 160.811827 173.657635 
L 161.823212 177.09531 
L 162.834596 177.09531 
L 163.845981 164.550292 
L 164.857366 164.550292 
L 165.868751 154.418329 
L 166.880136 166.925925 
L 167.891521 166.925925 
L 168.902906 166.196996 
L 169.914291 166.196996 
L 170.925675 154.985489 
L 171.93706 154.985489 
L 172.948445 142.666982 
L 173.95983 142.666982 
L 174.971215 132.153974 
L 175.9826 132.153974 
L 176.993985 121.141781 
L 179.016754 121.141781 
L 180.028139 124.576768 
L 181.039524 124.576768 
L 182.050909 114.768328 
L 183.062294 103.664775 
L 185.085064 103.664775 
L 186.096449 102.207861 
L 195.198912 102.207861 
L 196.210297 115.591326 
L 197.221682 115.591326 
L 198.233067 103.92137 
L 201.267222 103.92137 
L 202.278607 116.55406 
L 203.289992 116.55406 
L 204.301376 118.065763 
L 206.324146 118.065763 
L 207.335531 129.474449 
L 208.346916 129.474449 
L 209.358301 131.575658 
L 210.369686 131.575658 
L 211.381071 119.410693 
L 212.392455 119.410693 
L 213.40384 108.422131 
L 214.415225 108.422131 
L 215.42661 96.167232 
L 216.437995 96.167232 
L 217.44938 85.752559 
L 218.460765 85.752559 
L 219.47215 75.953778 
L 220.483534 75.953778 
L 221.494919 63.971969 
L 222.506304 53.568 
L 224.529074 53.568 
L 225.540459 67.282657 
L 226.551844 67.282657 
L 227.563229 79.916634 
L 228.574613 79.916634 
L 230.597383 107.575438 
L 232.620153 107.575438 
L 233.631538 95.952329 
L 234.642923 95.952329 
L 235.654308 85.711658 
L 237.677077 85.711658 
L 238.688462 75.611405 
L 239.699847 88.628298 
L 241.722617 88.628298 
L 242.734002 77.107927 
L 243.745387 77.107927 
L 244.756771 67.623909 
L 245.768156 67.623909 
L 246.779541 57.365002 
L 247.790926 57.365002 
L 248.802311 73.118245 
L 249.813696 73.118245 
L 250.825081 86.736024 
L 251.836466 86.736024 
L 252.84785 76.431024 
L 253.859235 76.431024 
L 254.87062 64.398688 
L 255.882005 55.138979 
L 256.89339 55.138979 
L 257.904775 69.941067 
L 259.927545 69.941067 
L 260.938929 84.702423 
L 398.487273 84.702423 
L 398.487273 84.702423 
" style="fill:none;stroke:#ff0000;stroke-linecap:square;stroke-width:12;"/>
    <defs>
     <path d="M 0 3 
C 0.795609 3 1.55874 2.683901 2.12132 2.12132 
C 2.683901 1.55874 3 0.795609 3 0 
C 3 -0.795609 2.683901 -1.55874 2.12132 -2.12132 
C 1.55874 -2.683901 0.795609 -3 0 -3 
C -0.795609 -3 -1.55874 -2.683901 -2.12132 -2.12132 
C -2.683901 -1.55874 -3 -0.795609 -3 0 
C -3 0.795609 -2.683901 1.55874 -2.12132 2.12132 
C -1.55874 2.683901 -0.795609 3 0 3 
z
" id="m9ec58dd6a1" style="stroke:#ff0000;"/>
    </defs>
    <g clip-path="url(#p690c731cc8)">
     <use style="fill:#ff0000;stroke:#ff0000;" x="73.832727" xlink:href="#m9ec58dd6a1" y="295.488"/>
     <use style="fill:#ff0000;stroke:#ff0000;" x="74.844112" xlink:href="#m9ec58dd6a1" y="295.488"/>
     <use style="fill:#ff0000;stroke:#ff0000;" x="75.855497" xlink:href="#m9ec58dd6a1" y="295.488"/>
     <use style="fill:#ff0000;stroke:#ff0000;" x="76.866882" xlink:href="#m9ec58dd6a1" y="256.519255"/>
     <use style="fill:#ff0000;stroke:#ff0000;" x="77.878267" xlink:href="#m9ec58dd6a1" y="256.519255"/>
     <use style="fill:#ff0000;stroke:#ff0000;" x="78.889652" xlink:href="#m9ec58dd6a1" y="256.519255"/>
     <use style="fill:#ff0000;stroke:#ff0000;" x="79.901037" xlink:href="#m9ec58dd6a1" y="217.59914"/>
     <use style="fill:#ff0000;stroke:#ff0000;" x="80.912421" xlink:href="#m9ec58dd6a1" y="217.59914"/>
     <use style="fill:#ff0000;stroke:#ff0000;" x="81.923806" xlink:href="#m9ec58dd6a1" y="256.776381"/>
     <use style="fill:#ff0000;stroke:#ff0000;" x="82.935191" xlink:href="#m9ec58dd6a1" y="256.776381"/>
     <use style="fill:#ff0000;stroke:#ff0000;" x="83.946576" xlink:href="#m9ec58dd6a1" y="247.77079"/>
     <use style="fill:#ff0000;stroke:#ff0000;" x="84.957961" xlink:href="#m9ec58dd6a1" y="247.77079"/>
     <use style="fill:#ff0000;stroke:#ff0000;" x="85.969346" xlink:href="#m9ec58dd6a1" y="247.77079"/>
     <use style="fill:#ff0000;stroke:#ff0000;" x="86.980731" xlink:href="#m9ec58dd6a1" y="247.77079"/>
     <use style="fill:#ff0000;stroke:#ff0000;" x="87.992116" xlink:href="#m9ec58dd6a1" y="208.295962"/>
     <use style="fill:#ff0000;stroke:#ff0000;" x="89.0035" xlink:href="#m9ec58dd6a1" y="208.295962"/>
     <use style="fill:#ff0000;stroke:#ff0000;" x="90.014885" xlink:href="#m9ec58dd6a1" y="243.647393"/>
     <use style="fill:#ff0000;stroke:#ff0000;" x="91.02627" xlink:href="#m9ec58dd6a1" y="243.647393"/>
     <use style="fill:#ff0000;stroke:#ff0000;" x="92.037655" xlink:href="#m9ec58dd6a1" y="209.570605"/>
     <use style="fill:#ff0000;stroke:#ff0000;" x="93.04904" xlink:href="#m9ec58dd6a1" y="209.570605"/>
     <use style="fill:#ff0000;stroke:#ff0000;" x="94.060425" xlink:href="#m9ec58dd6a1" y="246.788342"/>
     <use style="fill:#ff0000;stroke:#ff0000;" x="95.07181" xlink:href="#m9ec58dd6a1" y="246.788342"/>
     <use style="fill:#ff0000;stroke:#ff0000;" x="96.083195" xlink:href="#m9ec58dd6a1" y="283.424594"/>
     <use style="fill:#ff0000;stroke:#ff0000;" x="97.094579" xlink:href="#m9ec58dd6a1" y="283.424594"/>
     <use style="fill:#ff0000;stroke:#ff0000;" x="98.105964" xlink:href="#m9ec58dd6a1" y="283.303826"/>
     <use style="fill:#ff0000;stroke:#ff0000;" x="99.117349" xlink:href="#m9ec58dd6a1" y="283.303826"/>
     <use style="fill:#ff0000;stroke:#ff0000;" x="100.128734" xlink:href="#m9ec58dd6a1" y="269.983187"/>
     <use style="fill:#ff0000;stroke:#ff0000;" x="101.140119" xlink:href="#m9ec58dd6a1" y="266.931061"/>
     <use style="fill:#ff0000;stroke:#ff0000;" x="102.151504" xlink:href="#m9ec58dd6a1" y="266.931061"/>
     <use style="fill:#ff0000;stroke:#ff0000;" x="103.162889" xlink:href="#m9ec58dd6a1" y="253.500012"/>
     <use style="fill:#ff0000;stroke:#ff0000;" x="104.174274" xlink:href="#m9ec58dd6a1" y="253.500012"/>
     <use style="fill:#ff0000;stroke:#ff0000;" x="105.185658" xlink:href="#m9ec58dd6a1" y="241.089023"/>
     <use style="fill:#ff0000;stroke:#ff0000;" x="106.197043" xlink:href="#m9ec58dd6a1" y="241.089023"/>
     <use style="fill:#ff0000;stroke:#ff0000;" x="107.208428" xlink:href="#m9ec58dd6a1" y="241.089023"/>
     <use style="fill:#ff0000;stroke:#ff0000;" x="108.219813" xlink:href="#m9ec58dd6a1" y="241.089023"/>
     <use style="fill:#ff0000;stroke:#ff0000;" x="109.231198" xlink:href="#m9ec58dd6a1" y="254.066683"/>
     <use style="fill:#ff0000;stroke:#ff0000;" x="110.242583" xlink:href="#m9ec58dd6a1" y="254.066683"/>
     <use style="fill:#ff0000;stroke:#ff0000;" x="111.253968" xlink:href="#m9ec58dd6a1" y="254.066683"/>
     <use style="fill:#ff0000;stroke:#ff0000;" x="112.265353" xlink:href="#m9ec58dd6a1" y="242.871533"/>
     <use style="fill:#ff0000;stroke:#ff0000;" x="113.276737" xlink:href="#m9ec58dd6a1" y="255.274349"/>
     <use style="fill:#ff0000;stroke:#ff0000;" x="114.288122" xlink:href="#m9ec58dd6a1" y="255.274349"/>
     <use style="fill:#ff0000;stroke:#ff0000;" x="115.299507" xlink:href="#m9ec58dd6a1" y="255.274349"/>
     <use style="fill:#ff0000;stroke:#ff0000;" x="116.310892" xlink:href="#m9ec58dd6a1" y="255.274349"/>
     <use style="fill:#ff0000;stroke:#ff0000;" x="117.322277" xlink:href="#m9ec58dd6a1" y="267.314041"/>
     <use style="fill:#ff0000;stroke:#ff0000;" x="118.333662" xlink:href="#m9ec58dd6a1" y="267.314041"/>
     <use style="fill:#ff0000;stroke:#ff0000;" x="119.345047" xlink:href="#m9ec58dd6a1" y="254.75359"/>
     <use style="fill:#ff0000;stroke:#ff0000;" x="120.356432" xlink:href="#m9ec58dd6a1" y="254.75359"/>
     <use style="fill:#ff0000;stroke:#ff0000;" x="121.367816" xlink:href="#m9ec58dd6a1" y="242.845423"/>
     <use style="fill:#ff0000;stroke:#ff0000;" x="122.379201" xlink:href="#m9ec58dd6a1" y="242.845423"/>
     <use style="fill:#ff0000;stroke:#ff0000;" x="123.390586" xlink:href="#m9ec58dd6a1" y="229.710968"/>
     <use style="fill:#ff0000;stroke:#ff0000;" x="124.401971" xlink:href="#m9ec58dd6a1" y="229.710968"/>
     <use style="fill:#ff0000;stroke:#ff0000;" x="125.413356" xlink:href="#m9ec58dd6a1" y="242.951663"/>
     <use style="fill:#ff0000;stroke:#ff0000;" x="126.424741" xlink:href="#m9ec58dd6a1" y="242.951663"/>
     <use style="fill:#ff0000;stroke:#ff0000;" x="127.436126" xlink:href="#m9ec58dd6a1" y="230.899545"/>
     <use style="fill:#ff0000;stroke:#ff0000;" x="128.447511" xlink:href="#m9ec58dd6a1" y="230.899545"/>
     <use style="fill:#ff0000;stroke:#ff0000;" x="129.458895" xlink:href="#m9ec58dd6a1" y="230.899545"/>
     <use style="fill:#ff0000;stroke:#ff0000;" x="130.47028" xlink:href="#m9ec58dd6a1" y="233.650442"/>
     <use style="fill:#ff0000;stroke:#ff0000;" x="131.481665" xlink:href="#m9ec58dd6a1" y="233.650442"/>
     <use style="fill:#ff0000;stroke:#ff0000;" x="132.49305" xlink:href="#m9ec58dd6a1" y="222.833545"/>
     <use style="fill:#ff0000;stroke:#ff0000;" x="133.504435" xlink:href="#m9ec58dd6a1" y="222.833545"/>
     <use style="fill:#ff0000;stroke:#ff0000;" x="134.51582" xlink:href="#m9ec58dd6a1" y="211.159931"/>
     <use style="fill:#ff0000;stroke:#ff0000;" x="135.527205" xlink:href="#m9ec58dd6a1" y="211.159931"/>
     <use style="fill:#ff0000;stroke:#ff0000;" x="136.53859" xlink:href="#m9ec58dd6a1" y="198.677563"/>
     <use style="fill:#ff0000;stroke:#ff0000;" x="137.549975" xlink:href="#m9ec58dd6a1" y="198.677563"/>
     <use style="fill:#ff0000;stroke:#ff0000;" x="138.561359" xlink:href="#m9ec58dd6a1" y="186.020896"/>
     <use style="fill:#ff0000;stroke:#ff0000;" x="139.572744" xlink:href="#m9ec58dd6a1" y="186.020896"/>
     <use style="fill:#ff0000;stroke:#ff0000;" x="140.584129" xlink:href="#m9ec58dd6a1" y="172.730101"/>
     <use style="fill:#ff0000;stroke:#ff0000;" x="141.595514" xlink:href="#m9ec58dd6a1" y="185.844391"/>
     <use style="fill:#ff0000;stroke:#ff0000;" x="142.606899" xlink:href="#m9ec58dd6a1" y="185.844391"/>
     <use style="fill:#ff0000;stroke:#ff0000;" x="143.618284" xlink:href="#m9ec58dd6a1" y="185.844391"/>
     <use style="fill:#ff0000;stroke:#ff0000;" x="144.629669" xlink:href="#m9ec58dd6a1" y="184.573507"/>
     <use style="fill:#ff0000;stroke:#ff0000;" x="145.641054" xlink:href="#m9ec58dd6a1" y="184.573507"/>
     <use style="fill:#ff0000;stroke:#ff0000;" x="146.652438" xlink:href="#m9ec58dd6a1" y="184.573507"/>
     <use style="fill:#ff0000;stroke:#ff0000;" x="147.663823" xlink:href="#m9ec58dd6a1" y="172.03606"/>
     <use style="fill:#ff0000;stroke:#ff0000;" x="148.675208" xlink:href="#m9ec58dd6a1" y="160.683599"/>
     <use style="fill:#ff0000;stroke:#ff0000;" x="149.686593" xlink:href="#m9ec58dd6a1" y="160.683599"/>
     <use style="fill:#ff0000;stroke:#ff0000;" x="150.697978" xlink:href="#m9ec58dd6a1" y="173.969367"/>
     <use style="fill:#ff0000;stroke:#ff0000;" x="151.709363" xlink:href="#m9ec58dd6a1" y="173.969367"/>
     <use style="fill:#ff0000;stroke:#ff0000;" x="152.720748" xlink:href="#m9ec58dd6a1" y="172.902335"/>
     <use style="fill:#ff0000;stroke:#ff0000;" x="153.732133" xlink:href="#m9ec58dd6a1" y="172.902335"/>
     <use style="fill:#ff0000;stroke:#ff0000;" x="154.743517" xlink:href="#m9ec58dd6a1" y="186.524231"/>
     <use style="fill:#ff0000;stroke:#ff0000;" x="155.754902" xlink:href="#m9ec58dd6a1" y="186.524231"/>
     <use style="fill:#ff0000;stroke:#ff0000;" x="156.766287" xlink:href="#m9ec58dd6a1" y="186.524231"/>
     <use style="fill:#ff0000;stroke:#ff0000;" x="157.777672" xlink:href="#m9ec58dd6a1" y="186.524231"/>
     <use style="fill:#ff0000;stroke:#ff0000;" x="158.789057" xlink:href="#m9ec58dd6a1" y="186.524231"/>
     <use style="fill:#ff0000;stroke:#ff0000;" x="159.800442" xlink:href="#m9ec58dd6a1" y="173.657635"/>
     <use style="fill:#ff0000;stroke:#ff0000;" x="160.811827" xlink:href="#m9ec58dd6a1" y="173.657635"/>
     <use style="fill:#ff0000;stroke:#ff0000;" x="161.823212" xlink:href="#m9ec58dd6a1" y="177.09531"/>
     <use style="fill:#ff0000;stroke:#ff0000;" x="162.834596" xlink:href="#m9ec58dd6a1" y="177.09531"/>
     <use style="fill:#ff0000;stroke:#ff0000;" x="163.845981" xlink:href="#m9ec58dd6a1" y="164.550292"/>
     <use style="fill:#ff0000;stroke:#ff0000;" x="164.857366" xlink:href="#m9ec58dd6a1" y="164.550292"/>
     <use style="fill:#ff0000;stroke:#ff0000;" x="165.868751" xlink:href="#m9ec58dd6a1" y="154.418329"/>
     <use style="fill:#ff0000;stroke:#ff0000;" x="166.880136" xlink:href="#m9ec58dd6a1" y="166.925925"/>
     <use style="fill:#ff0000;stroke:#ff0000;" x="167.891521" xlink:href="#m9ec58dd6a1" y="166.925925"/>
     <use style="fill:#ff0000;stroke:#ff0000;" x="168.902906" xlink:href="#m9ec58dd6a1" y="166.196996"/>
     <use style="fill:#ff0000;stroke:#ff0000;" x="169.914291" xlink:href="#m9ec58dd6a1" y="166.196996"/>
     <use style="fill:#ff0000;stroke:#ff0000;" x="170.925675" xlink:href="#m9ec58dd6a1" y="154.985489"/>
     <use style="fill:#ff0000;stroke:#ff0000;" x="171.93706" xlink:href="#m9ec58dd6a1" y="154.985489"/>
     <use style="fill:#ff0000;stroke:#ff0000;" x="172.948445" xlink:href="#m9ec58dd6a1" y="142.666982"/>
     <use style="fill:#ff0000;stroke:#ff0000;" x="173.95983" xlink:href="#m9ec58dd6a1" y="142.666982"/>
     <use style="fill:#ff0000;stroke:#ff0000;" x="174.971215" xlink:href="#m9ec58dd6a1" y="132.153974"/>
     <use style="fill:#ff0000;stroke:#ff0000;" x="175.9826" xlink:href="#m9ec58dd6a1" y="132.153974"/>
     <use style="fill:#ff0000;stroke:#ff0000;" x="176.993985" xlink:href="#m9ec58dd6a1" y="121.141781"/>
     <use style="fill:#ff0000;stroke:#ff0000;" x="178.00537" xlink:href="#m9ec58dd6a1" y="121.141781"/>
     <use style="fill:#ff0000;stroke:#ff0000;" x="179.016754" xlink:href="#m9ec58dd6a1" y="121.141781"/>
     <use style="fill:#ff0000;stroke:#ff0000;" x="180.028139" xlink:href="#m9ec58dd6a1" y="124.576768"/>
     <use style="fill:#ff0000;stroke:#ff0000;" x="181.039524" xlink:href="#m9ec58dd6a1" y="124.576768"/>
     <use style="fill:#ff0000;stroke:#ff0000;" x="182.050909" xlink:href="#m9ec58dd6a1" y="114.768328"/>
     <use style="fill:#ff0000;stroke:#ff0000;" x="183.062294" xlink:href="#m9ec58dd6a1" y="103.664775"/>
     <use style="fill:#ff0000;stroke:#ff0000;" x="184.073679" xlink:href="#m9ec58dd6a1" y="103.664775"/>
     <use style="fill:#ff0000;stroke:#ff0000;" x="185.085064" xlink:href="#m9ec58dd6a1" y="103.664775"/>
     <use style="fill:#ff0000;stroke:#ff0000;" x="186.096449" xlink:href="#m9ec58dd6a1" y="102.207861"/>
     <use style="fill:#ff0000;stroke:#ff0000;" x="187.107833" xlink:href="#m9ec58dd6a1" y="102.207861"/>
     <use style="fill:#ff0000;stroke:#ff0000;" x="188.119218" xlink:href="#m9ec58dd6a1" y="102.207861"/>
     <use style="fill:#ff0000;stroke:#ff0000;" x="189.130603" xlink:href="#m9ec58dd6a1" y="102.207861"/>
     <use style="fill:#ff0000;stroke:#ff0000;" x="190.141988" xlink:href="#m9ec58dd6a1" y="102.207861"/>
     <use style="fill:#ff0000;stroke:#ff0000;" x="191.153373" xlink:href="#m9ec58dd6a1" y="102.207861"/>
     <use style="fill:#ff0000;stroke:#ff0000;" x="192.164758" xlink:href="#m9ec58dd6a1" y="102.207861"/>
     <use style="fill:#ff0000;stroke:#ff0000;" x="193.176143" xlink:href="#m9ec58dd6a1" y="102.207861"/>
     <use style="fill:#ff0000;stroke:#ff0000;" x="194.187528" xlink:href="#m9ec58dd6a1" y="102.207861"/>
     <use style="fill:#ff0000;stroke:#ff0000;" x="195.198912" xlink:href="#m9ec58dd6a1" y="102.207861"/>
     <use style="fill:#ff0000;stroke:#ff0000;" x="196.210297" xlink:href="#m9ec58dd6a1" y="115.591326"/>
     <use style="fill:#ff0000;stroke:#ff0000;" x="197.221682" xlink:href="#m9ec58dd6a1" y="115.591326"/>
     <use style="fill:#ff0000;stroke:#ff0000;" x="198.233067" xlink:href="#m9ec58dd6a1" y="103.92137"/>
     <use style="fill:#ff0000;stroke:#ff0000;" x="199.244452" xlink:href="#m9ec58dd6a1" y="103.92137"/>
     <use style="fill:#ff0000;stroke:#ff0000;" x="200.255837" xlink:href="#m9ec58dd6a1" y="103.92137"/>
     <use style="fill:#ff0000;stroke:#ff0000;" x="201.267222" xlink:href="#m9ec58dd6a1" y="103.92137"/>
     <use style="fill:#ff0000;stroke:#ff0000;" x="202.278607" xlink:href="#m9ec58dd6a1" y="116.55406"/>
     <use style="fill:#ff0000;stroke:#ff0000;" x="203.289992" xlink:href="#m9ec58dd6a1" y="116.55406"/>
     <use style="fill:#ff0000;stroke:#ff0000;" x="204.301376" xlink:href="#m9ec58dd6a1" y="118.065763"/>
     <use style="fill:#ff0000;stroke:#ff0000;" x="205.312761" xlink:href="#m9ec58dd6a1" y="118.065763"/>
     <use style="fill:#ff0000;stroke:#ff0000;" x="206.324146" xlink:href="#m9ec58dd6a1" y="118.065763"/>
     <use style="fill:#ff0000;stroke:#ff0000;" x="207.335531" xlink:href="#m9ec58dd6a1" y="129.474449"/>
     <use style="fill:#ff0000;stroke:#ff0000;" x="208.346916" xlink:href="#m9ec58dd6a1" y="129.474449"/>
     <use style="fill:#ff0000;stroke:#ff0000;" x="209.358301" xlink:href="#m9ec58dd6a1" y="131.575658"/>
     <use style="fill:#ff0000;stroke:#ff0000;" x="210.369686" xlink:href="#m9ec58dd6a1" y="131.575658"/>
     <use style="fill:#ff0000;stroke:#ff0000;" x="211.381071" xlink:href="#m9ec58dd6a1" y="119.410693"/>
     <use style="fill:#ff0000;stroke:#ff0000;" x="212.392455" xlink:href="#m9ec58dd6a1" y="119.410693"/>
     <use style="fill:#ff0000;stroke:#ff0000;" x="213.40384" xlink:href="#m9ec58dd6a1" y="108.422131"/>
     <use style="fill:#ff0000;stroke:#ff0000;" x="214.415225" xlink:href="#m9ec58dd6a1" y="108.422131"/>
     <use style="fill:#ff0000;stroke:#ff0000;" x="215.42661" xlink:href="#m9ec58dd6a1" y="96.167232"/>
     <use style="fill:#ff0000;stroke:#ff0000;" x="216.437995" xlink:href="#m9ec58dd6a1" y="96.167232"/>
     <use style="fill:#ff0000;stroke:#ff0000;" x="217.44938" xlink:href="#m9ec58dd6a1" y="85.752559"/>
     <use style="fill:#ff0000;stroke:#ff0000;" x="218.460765" xlink:href="#m9ec58dd6a1" y="85.752559"/>
     <use style="fill:#ff0000;stroke:#ff0000;" x="219.47215" xlink:href="#m9ec58dd6a1" y="75.953778"/>
     <use style="fill:#ff0000;stroke:#ff0000;" x="220.483534" xlink:href="#m9ec58dd6a1" y="75.953778"/>
     <use style="fill:#ff0000;stroke:#ff0000;" x="221.494919" xlink:href="#m9ec58dd6a1" y="63.971969"/>
     <use style="fill:#ff0000;stroke:#ff0000;" x="222.506304" xlink:href="#m9ec58dd6a1" y="53.568"/>
     <use style="fill:#ff0000;stroke:#ff0000;" x="223.517689" xlink:href="#m9ec58dd6a1" y="53.568"/>
     <use style="fill:#ff0000;stroke:#ff0000;" x="224.529074" xlink:href="#m9ec58dd6a1" y="53.568"/>
     <use style="fill:#ff0000;stroke:#ff0000;" x="225.540459" xlink:href="#m9ec58dd6a1" y="67.282657"/>
     <use style="fill:#ff0000;stroke:#ff0000;" x="226.551844" xlink:href="#m9ec58dd6a1" y="67.282657"/>
     <use style="fill:#ff0000;stroke:#ff0000;" x="227.563229" xlink:href="#m9ec58dd6a1" y="79.916634"/>
     <use style="fill:#ff0000;stroke:#ff0000;" x="228.574613" xlink:href="#m9ec58dd6a1" y="79.916634"/>
     <use style="fill:#ff0000;stroke:#ff0000;" x="229.585998" xlink:href="#m9ec58dd6a1" y="93.574299"/>
     <use style="fill:#ff0000;stroke:#ff0000;" x="230.597383" xlink:href="#m9ec58dd6a1" y="107.575438"/>
     <use style="fill:#ff0000;stroke:#ff0000;" x="231.608768" xlink:href="#m9ec58dd6a1" y="107.575438"/>
     <use style="fill:#ff0000;stroke:#ff0000;" x="232.620153" xlink:href="#m9ec58dd6a1" y="107.575438"/>
     <use style="fill:#ff0000;stroke:#ff0000;" x="233.631538" xlink:href="#m9ec58dd6a1" y="95.952329"/>
     <use style="fill:#ff0000;stroke:#ff0000;" x="234.642923" xlink:href="#m9ec58dd6a1" y="95.952329"/>
     <use style="fill:#ff0000;stroke:#ff0000;" x="235.654308" xlink:href="#m9ec58dd6a1" y="85.711658"/>
     <use style="fill:#ff0000;stroke:#ff0000;" x="236.665692" xlink:href="#m9ec58dd6a1" y="85.711658"/>
     <use style="fill:#ff0000;stroke:#ff0000;" x="237.677077" xlink:href="#m9ec58dd6a1" y="85.711658"/>
     <use style="fill:#ff0000;stroke:#ff0000;" x="238.688462" xlink:href="#m9ec58dd6a1" y="75.611405"/>
     <use style="fill:#ff0000;stroke:#ff0000;" x="239.699847" xlink:href="#m9ec58dd6a1" y="88.628298"/>
     <use style="fill:#ff0000;stroke:#ff0000;" x="240.711232" xlink:href="#m9ec58dd6a1" y="88.628298"/>
     <use style="fill:#ff0000;stroke:#ff0000;" x="241.722617" xlink:href="#m9ec58dd6a1" y="88.628298"/>
     <use style="fill:#ff0000;stroke:#ff0000;" x="242.734002" xlink:href="#m9ec58dd6a1" y="77.107927"/>
     <use style="fill:#ff0000;stroke:#ff0000;" x="243.745387" xlink:href="#m9ec58dd6a1" y="77.107927"/>
     <use style="fill:#ff0000;stroke:#ff0000;" x="244.756771" xlink:href="#m9ec58dd6a1" y="67.623909"/>
     <use style="fill:#ff0000;stroke:#ff0000;" x="245.768156" xlink:href="#m9ec58dd6a1" y="67.623909"/>
     <use style="fill:#ff0000;stroke:#ff0000;" x="246.779541" xlink:href="#m9ec58dd6a1" y="57.365002"/>
     <use style="fill:#ff0000;stroke:#ff0000;" x="247.790926" xlink:href="#m9ec58dd6a1" y="57.365002"/>
     <use style="fill:#ff0000;stroke:#ff0000;" x="248.802311" xlink:href="#m9ec58dd6a1" y="73.118245"/>
     <use style="fill:#ff0000;stroke:#ff0000;" x="249.813696" xlink:href="#m9ec58dd6a1" y="73.118245"/>
     <use style="fill:#ff0000;stroke:#ff0000;" x="250.825081" xlink:href="#m9ec58dd6a1" y="86.736024"/>
     <use style="fill:#ff0000;stroke:#ff0000;" x="251.836466" xlink:href="#m9ec58dd6a1" y="86.736024"/>
     <use style="fill:#ff0000;stroke:#ff0000;" x="252.84785" xlink:href="#m9ec58dd6a1" y="76.431024"/>
     <use style="fill:#ff0000;stroke:#ff0000;" x="253.859235" xlink:href="#m9ec58dd6a1" y="76.431024"/>
     <use style="fill:#ff0000;stroke:#ff0000;" x="254.87062" xlink:href="#m9ec58dd6a1" y="64.398688"/>
     <use style="fill:#ff0000;stroke:#ff0000;" x="255.882005" xlink:href="#m9ec58dd6a1" y="55.138979"/>
     <use style="fill:#ff0000;stroke:#ff0000;" x="256.89339" xlink:href="#m9ec58dd6a1" y="55.138979"/>
     <use style="fill:#ff0000;stroke:#ff0000;" x="257.904775" xlink:href="#m9ec58dd6a1" y="69.941067"/>
     <use style="fill:#ff0000;stroke:#ff0000;" x="258.91616" xlink:href="#m9ec58dd6a1" y="69.941067"/>
     <use style="fill:#ff0000;stroke:#ff0000;" x="259.927545" xlink:href="#m9ec58dd6a1" y="69.941067"/>
     <use style="fill:#ff0000;stroke:#ff0000;" x="260.938929" xlink:href="#m9ec58dd6a1" y="84.702423"/>
     <use style="fill:#ff0000;stroke:#ff0000;" x="261.950314" xlink:href="#m9ec58dd6a1" y="84.702423"/>
     <use style="fill:#ff0000;stroke:#ff0000;" x="262.961699" xlink:href="#m9ec58dd6a1" y="84.702423"/>
     <use style="fill:#ff0000;stroke:#ff0000;" x="263.973084" xlink:href="#m9ec58dd6a1" y="84.702423"/>
     <use style="fill:#ff0000;stroke:#ff0000;" x="264.984469" xlink:href="#m9ec58dd6a1" y="84.702423"/>
     <use style="fill:#ff0000;stroke:#ff0000;" x="265.995854" xlink:href="#m9ec58dd6a1" y="84.702423"/>
     <use style="fill:#ff0000;stroke:#ff0000;" x="267.007239" xlink:href="#m9ec58dd6a1" y="84.702423"/>
     <use style="fill:#ff0000;stroke:#ff0000;" x="268.018624" xlink:href="#m9ec58dd6a1" y="84.702423"/>
     <use style="fill:#ff0000;stroke:#ff0000;" x="269.030008" xlink:href="#m9ec58dd6a1" y="84.702423"/>
     <use style="fill:#ff0000;stroke:#ff0000;" x="270.041393" xlink:href="#m9ec58dd6a1" y="84.702423"/>
     <use style="fill:#ff0000;stroke:#ff0000;" x="271.052778" xlink:href="#m9ec58dd6a1" y="84.702423"/>
     <use style="fill:#ff0000;stroke:#ff0000;" x="272.064163" xlink:href="#m9ec58dd6a1" y="84.702423"/>
     <use style="fill:#ff0000;stroke:#ff0000;" x="273.075548" xlink:href="#m9ec58dd6a1" y="84.702423"/>
     <use style="fill:#ff0000;stroke:#ff0000;" x="274.086933" xlink:href="#m9ec58dd6a1" y="84.702423"/>
     <use style="fill:#ff0000;stroke:#ff0000;" x="275.098318" xlink:href="#m9ec58dd6a1" y="84.702423"/>
     <use style="fill:#ff0000;stroke:#ff0000;" x="276.109703" xlink:href="#m9ec58dd6a1" y="84.702423"/>
     <use style="fill:#ff0000;stroke:#ff0000;" x="277.121088" xlink:href="#m9ec58dd6a1" y="84.702423"/>
     <use style="fill:#ff0000;stroke:#ff0000;" x="278.132472" xlink:href="#m9ec58dd6a1" y="84.702423"/>
     <use style="fill:#ff0000;stroke:#ff0000;" x="279.143857" xlink:href="#m9ec58dd6a1" y="84.702423"/>
     <use style="fill:#ff0000;stroke:#ff0000;" x="280.155242" xlink:href="#m9ec58dd6a1" y="84.702423"/>
     <use style="fill:#ff0000;stroke:#ff0000;" x="281.166627" xlink:href="#m9ec58dd6a1" y="84.702423"/>
     <use style="fill:#ff0000;stroke:#ff0000;" x="282.178012" xlink:href="#m9ec58dd6a1" y="84.702423"/>
     <use style="fill:#ff0000;stroke:#ff0000;" x="283.189397" xlink:href="#m9ec58dd6a1" y="84.702423"/>
     <use style="fill:#ff0000;stroke:#ff0000;" x="284.200782" xlink:href="#m9ec58dd6a1" y="84.702423"/>
     <use style="fill:#ff0000;stroke:#ff0000;" x="285.212167" xlink:href="#m9ec58dd6a1" y="84.702423"/>
     <use style="fill:#ff0000;stroke:#ff0000;" x="286.223551" xlink:href="#m9ec58dd6a1" y="84.702423"/>
     <use style="fill:#ff0000;stroke:#ff0000;" x="287.234936" xlink:href="#m9ec58dd6a1" y="84.702423"/>
     <use style="fill:#ff0000;stroke:#ff0000;" x="288.246321" xlink:href="#m9ec58dd6a1" y="84.702423"/>
     <use style="fill:#ff0000;stroke:#ff0000;" x="289.257706" xlink:href="#m9ec58dd6a1" y="84.702423"/>
     <use style="fill:#ff0000;stroke:#ff0000;" x="290.269091" xlink:href="#m9ec58dd6a1" y="84.702423"/>
     <use style="fill:#ff0000;stroke:#ff0000;" x="291.280476" xlink:href="#m9ec58dd6a1" y="84.702423"/>
     <use style="fill:#ff0000;stroke:#ff0000;" x="292.291861" xlink:href="#m9ec58dd6a1" y="84.702423"/>
     <use style="fill:#ff0000;stroke:#ff0000;" x="293.303246" xlink:href="#m9ec58dd6a1" y="84.702423"/>
     <use style="fill:#ff0000;stroke:#ff0000;" x="294.31463" xlink:href="#m9ec58dd6a1" y="84.702423"/>
     <use style="fill:#ff0000;stroke:#ff0000;" x="295.326015" xlink:href="#m9ec58dd6a1" y="84.702423"/>
     <use style="fill:#ff0000;stroke:#ff0000;" x="296.3374" xlink:href="#m9ec58dd6a1" y="84.702423"/>
     <use style="fill:#ff0000;stroke:#ff0000;" x="297.348785" xlink:href="#m9ec58dd6a1" y="84.702423"/>
     <use style="fill:#ff0000;stroke:#ff0000;" x="298.36017" xlink:href="#m9ec58dd6a1" y="84.702423"/>
     <use style="fill:#ff0000;stroke:#ff0000;" x="299.371555" xlink:href="#m9ec58dd6a1" y="84.702423"/>
     <use style="fill:#ff0000;stroke:#ff0000;" x="300.38294" xlink:href="#m9ec58dd6a1" y="84.702423"/>
     <use style="fill:#ff0000;stroke:#ff0000;" x="301.394325" xlink:href="#m9ec58dd6a1" y="84.702423"/>
     <use style="fill:#ff0000;stroke:#ff0000;" x="302.405709" xlink:href="#m9ec58dd6a1" y="84.702423"/>
     <use style="fill:#ff0000;stroke:#ff0000;" x="303.417094" xlink:href="#m9ec58dd6a1" y="84.702423"/>
     <use style="fill:#ff0000;stroke:#ff0000;" x="304.428479" xlink:href="#m9ec58dd6a1" y="84.702423"/>
     <use style="fill:#ff0000;stroke:#ff0000;" x="305.439864" xlink:href="#m9ec58dd6a1" y="84.702423"/>
     <use style="fill:#ff0000;stroke:#ff0000;" x="306.451249" xlink:href="#m9ec58dd6a1" y="84.702423"/>
     <use style="fill:#ff0000;stroke:#ff0000;" x="307.462634" xlink:href="#m9ec58dd6a1" y="84.702423"/>
     <use style="fill:#ff0000;stroke:#ff0000;" x="308.474019" xlink:href="#m9ec58dd6a1" y="84.702423"/>
     <use style="fill:#ff0000;stroke:#ff0000;" x="309.485404" xlink:href="#m9ec58dd6a1" y="84.702423"/>
     <use style="fill:#ff0000;stroke:#ff0000;" x="310.496788" xlink:href="#m9ec58dd6a1" y="84.702423"/>
     <use style="fill:#ff0000;stroke:#ff0000;" x="311.508173" xlink:href="#m9ec58dd6a1" y="84.702423"/>
     <use style="fill:#ff0000;stroke:#ff0000;" x="312.519558" xlink:href="#m9ec58dd6a1" y="84.702423"/>
     <use style="fill:#ff0000;stroke:#ff0000;" x="313.530943" xlink:href="#m9ec58dd6a1" y="84.702423"/>
     <use style="fill:#ff0000;stroke:#ff0000;" x="314.542328" xlink:href="#m9ec58dd6a1" y="84.702423"/>
     <use style="fill:#ff0000;stroke:#ff0000;" x="315.553713" xlink:href="#m9ec58dd6a1" y="84.702423"/>
     <use style="fill:#ff0000;stroke:#ff0000;" x="316.565098" xlink:href="#m9ec58dd6a1" y="84.702423"/>
     <use style="fill:#ff0000;stroke:#ff0000;" x="317.576483" xlink:href="#m9ec58dd6a1" y="84.702423"/>
     <use style="fill:#ff0000;stroke:#ff0000;" x="318.587867" xlink:href="#m9ec58dd6a1" y="84.702423"/>
     <use style="fill:#ff0000;stroke:#ff0000;" x="319.599252" xlink:href="#m9ec58dd6a1" y="84.702423"/>
     <use style="fill:#ff0000;stroke:#ff0000;" x="320.610637" xlink:href="#m9ec58dd6a1" y="84.702423"/>
     <use style="fill:#ff0000;stroke:#ff0000;" x="321.622022" xlink:href="#m9ec58dd6a1" y="84.702423"/>
     <use style="fill:#ff0000;stroke:#ff0000;" x="322.633407" xlink:href="#m9ec58dd6a1" y="84.702423"/>
     <use style="fill:#ff0000;stroke:#ff0000;" x="323.644792" xlink:href="#m9ec58dd6a1" y="84.702423"/>
     <use style="fill:#ff0000;stroke:#ff0000;" x="324.656177" xlink:href="#m9ec58dd6a1" y="84.702423"/>
     <use style="fill:#ff0000;stroke:#ff0000;" x="325.667562" xlink:href="#m9ec58dd6a1" y="84.702423"/>
     <use style="fill:#ff0000;stroke:#ff0000;" x="326.678946" xlink:href="#m9ec58dd6a1" y="84.702423"/>
     <use style="fill:#ff0000;stroke:#ff0000;" x="327.690331" xlink:href="#m9ec58dd6a1" y="84.702423"/>
     <use style="fill:#ff0000;stroke:#ff0000;" x="328.701716" xlink:href="#m9ec58dd6a1" y="84.702423"/>
     <use style="fill:#ff0000;stroke:#ff0000;" x="329.713101" xlink:href="#m9ec58dd6a1" y="84.702423"/>
     <use style="fill:#ff0000;stroke:#ff0000;" x="330.724486" xlink:href="#m9ec58dd6a1" y="84.702423"/>
     <use style="fill:#ff0000;stroke:#ff0000;" x="331.735871" xlink:href="#m9ec58dd6a1" y="84.702423"/>
     <use style="fill:#ff0000;stroke:#ff0000;" x="332.747256" xlink:href="#m9ec58dd6a1" y="84.702423"/>
     <use style="fill:#ff0000;stroke:#ff0000;" x="333.758641" xlink:href="#m9ec58dd6a1" y="84.702423"/>
     <use style="fill:#ff0000;stroke:#ff0000;" x="334.770025" xlink:href="#m9ec58dd6a1" y="84.702423"/>
     <use style="fill:#ff0000;stroke:#ff0000;" x="335.78141" xlink:href="#m9ec58dd6a1" y="84.702423"/>
     <use style="fill:#ff0000;stroke:#ff0000;" x="336.792795" xlink:href="#m9ec58dd6a1" y="84.702423"/>
     <use style="fill:#ff0000;stroke:#ff0000;" x="337.80418" xlink:href="#m9ec58dd6a1" y="84.702423"/>
     <use style="fill:#ff0000;stroke:#ff0000;" x="338.815565" xlink:href="#m9ec58dd6a1" y="84.702423"/>
     <use style="fill:#ff0000;stroke:#ff0000;" x="339.82695" xlink:href="#m9ec58dd6a1" y="84.702423"/>
     <use style="fill:#ff0000;stroke:#ff0000;" x="340.838335" xlink:href="#m9ec58dd6a1" y="84.702423"/>
     <use style="fill:#ff0000;stroke:#ff0000;" x="341.84972" xlink:href="#m9ec58dd6a1" y="84.702423"/>
     <use style="fill:#ff0000;stroke:#ff0000;" x="342.861105" xlink:href="#m9ec58dd6a1" y="84.702423"/>
     <use style="fill:#ff0000;stroke:#ff0000;" x="343.872489" xlink:href="#m9ec58dd6a1" y="84.702423"/>
     <use style="fill:#ff0000;stroke:#ff0000;" x="344.883874" xlink:href="#m9ec58dd6a1" y="84.702423"/>
     <use style="fill:#ff0000;stroke:#ff0000;" x="345.895259" xlink:href="#m9ec58dd6a1" y="84.702423"/>
     <use style="fill:#ff0000;stroke:#ff0000;" x="346.906644" xlink:href="#m9ec58dd6a1" y="84.702423"/>
     <use style="fill:#ff0000;stroke:#ff0000;" x="347.918029" xlink:href="#m9ec58dd6a1" y="84.702423"/>
     <use style="fill:#ff0000;stroke:#ff0000;" x="348.929414" xlink:href="#m9ec58dd6a1" y="84.702423"/>
     <use style="fill:#ff0000;stroke:#ff0000;" x="349.940799" xlink:href="#m9ec58dd6a1" y="84.702423"/>
     <use style="fill:#ff0000;stroke:#ff0000;" x="350.952184" xlink:href="#m9ec58dd6a1" y="84.702423"/>
     <use style="fill:#ff0000;stroke:#ff0000;" x="351.963568" xlink:href="#m9ec58dd6a1" y="84.702423"/>
     <use style="fill:#ff0000;stroke:#ff0000;" x="352.974953" xlink:href="#m9ec58dd6a1" y="84.702423"/>
     <use style="fill:#ff0000;stroke:#ff0000;" x="353.986338" xlink:href="#m9ec58dd6a1" y="84.702423"/>
     <use style="fill:#ff0000;stroke:#ff0000;" x="354.997723" xlink:href="#m9ec58dd6a1" y="84.702423"/>
     <use style="fill:#ff0000;stroke:#ff0000;" x="356.009108" xlink:href="#m9ec58dd6a1" y="84.702423"/>
     <use style="fill:#ff0000;stroke:#ff0000;" x="357.020493" xlink:href="#m9ec58dd6a1" y="84.702423"/>
     <use style="fill:#ff0000;stroke:#ff0000;" x="358.031878" xlink:href="#m9ec58dd6a1" y="84.702423"/>
     <use style="fill:#ff0000;stroke:#ff0000;" x="359.043263" xlink:href="#m9ec58dd6a1" y="84.702423"/>
     <use style="fill:#ff0000;stroke:#ff0000;" x="360.054647" xlink:href="#m9ec58dd6a1" y="84.702423"/>
     <use style="fill:#ff0000;stroke:#ff0000;" x="361.066032" xlink:href="#m9ec58dd6a1" y="84.702423"/>
     <use style="fill:#ff0000;stroke:#ff0000;" x="362.077417" xlink:href="#m9ec58dd6a1" y="84.702423"/>
     <use style="fill:#ff0000;stroke:#ff0000;" x="363.088802" xlink:href="#m9ec58dd6a1" y="84.702423"/>
     <use style="fill:#ff0000;stroke:#ff0000;" x="364.100187" xlink:href="#m9ec58dd6a1" y="84.702423"/>
     <use style="fill:#ff0000;stroke:#ff0000;" x="365.111572" xlink:href="#m9ec58dd6a1" y="84.702423"/>
     <use style="fill:#ff0000;stroke:#ff0000;" x="366.122957" xlink:href="#m9ec58dd6a1" y="84.702423"/>
     <use style="fill:#ff0000;stroke:#ff0000;" x="367.134342" xlink:href="#m9ec58dd6a1" y="84.702423"/>
     <use style="fill:#ff0000;stroke:#ff0000;" x="368.145726" xlink:href="#m9ec58dd6a1" y="84.702423"/>
     <use style="fill:#ff0000;stroke:#ff0000;" x="369.157111" xlink:href="#m9ec58dd6a1" y="84.702423"/>
     <use style="fill:#ff0000;stroke:#ff0000;" x="370.168496" xlink:href="#m9ec58dd6a1" y="84.702423"/>
     <use style="fill:#ff0000;stroke:#ff0000;" x="371.179881" xlink:href="#m9ec58dd6a1" y="84.702423"/>
     <use style="fill:#ff0000;stroke:#ff0000;" x="372.191266" xlink:href="#m9ec58dd6a1" y="84.702423"/>
     <use style="fill:#ff0000;stroke:#ff0000;" x="373.202651" xlink:href="#m9ec58dd6a1" y="84.702423"/>
     <use style="fill:#ff0000;stroke:#ff0000;" x="374.214036" xlink:href="#m9ec58dd6a1" y="84.702423"/>
     <use style="fill:#ff0000;stroke:#ff0000;" x="375.225421" xlink:href="#m9ec58dd6a1" y="84.702423"/>
     <use style="fill:#ff0000;stroke:#ff0000;" x="376.236805" xlink:href="#m9ec58dd6a1" y="84.702423"/>
     <use style="fill:#ff0000;stroke:#ff0000;" x="377.24819" xlink:href="#m9ec58dd6a1" y="84.702423"/>
     <use style="fill:#ff0000;stroke:#ff0000;" x="378.259575" xlink:href="#m9ec58dd6a1" y="84.702423"/>
     <use style="fill:#ff0000;stroke:#ff0000;" x="379.27096" xlink:href="#m9ec58dd6a1" y="84.702423"/>
     <use style="fill:#ff0000;stroke:#ff0000;" x="380.282345" xlink:href="#m9ec58dd6a1" y="84.702423"/>
     <use style="fill:#ff0000;stroke:#ff0000;" x="381.29373" xlink:href="#m9ec58dd6a1" y="84.702423"/>
     <use style="fill:#ff0000;stroke:#ff0000;" x="382.305115" xlink:href="#m9ec58dd6a1" y="84.702423"/>
     <use style="fill:#ff0000;stroke:#ff0000;" x="383.3165" xlink:href="#m9ec58dd6a1" y="84.702423"/>
     <use style="fill:#ff0000;stroke:#ff0000;" x="384.327884" xlink:href="#m9ec58dd6a1" y="84.702423"/>
     <use style="fill:#ff0000;stroke:#ff0000;" x="385.339269" xlink:href="#m9ec58dd6a1" y="84.702423"/>
     <use style="fill:#ff0000;stroke:#ff0000;" x="386.350654" xlink:href="#m9ec58dd6a1" y="84.702423"/>
     <use style="fill:#ff0000;stroke:#ff0000;" x="387.362039" xlink:href="#m9ec58dd6a1" y="84.702423"/>
     <use style="fill:#ff0000;stroke:#ff0000;" x="388.373424" xlink:href="#m9ec58dd6a1" y="84.702423"/>
     <use style="fill:#ff0000;stroke:#ff0000;" x="389.384809" xlink:href="#m9ec58dd6a1" y="84.702423"/>
     <use style="fill:#ff0000;stroke:#ff0000;" x="390.396194" xlink:href="#m9ec58dd6a1" y="84.702423"/>
     <use style="fill:#ff0000;stroke:#ff0000;" x="391.407579" xlink:href="#m9ec58dd6a1" y="84.702423"/>
     <use style="fill:#ff0000;stroke:#ff0000;" x="392.418963" xlink:href="#m9ec58dd6a1" y="84.702423"/>
     <use style="fill:#ff0000;stroke:#ff0000;" x="393.430348" xlink:href="#m9ec58dd6a1" y="84.702423"/>
     <use style="fill:#ff0000;stroke:#ff0000;" x="394.441733" xlink:href="#m9ec58dd6a1" y="84.702423"/>
     <use style="fill:#ff0000;stroke:#ff0000;" x="395.453118" xlink:href="#m9ec58dd6a1" y="84.702423"/>
     <use style="fill:#ff0000;stroke:#ff0000;" x="396.464503" xlink:href="#m9ec58dd6a1" y="84.702423"/>
     <use style="fill:#ff0000;stroke:#ff0000;" x="397.475888" xlink:href="#m9ec58dd6a1" y="84.702423"/>
     <use style="fill:#ff0000;stroke:#ff0000;" x="398.487273" xlink:href="#m9ec58dd6a1" y="84.702423"/>
    </g>
   </g>
   <g id="patch_3">
    <path d="M 57.6 307.584 
L 57.6 41.472 
" style="fill:none;stroke:#000000;stroke-linecap:square;stroke-linejoin:miter;stroke-width:0.8;"/>
   </g>
   <g id="patch_4">
    <path d="M 414.72 307.584 
L 414.72 41.472 
" style="fill:none;stroke:#000000;stroke-linecap:square;stroke-linejoin:miter;stroke-width:0.8;"/>
   </g>
   <g id="patch_5">
    <path d="M 57.6 307.584 
L 414.72 307.584 
" style="fill:none;stroke:#000000;stroke-linecap:square;stroke-linejoin:miter;stroke-width:0.8;"/>
   </g>
   <g id="patch_6">
    <path d="M 57.6 41.472 
L 414.72 41.472 
" style="fill:none;stroke:#000000;stroke-linecap:square;stroke-linejoin:miter;stroke-width:0.8;"/>
   </g>
  </g>
 </g>
 <defs>
  <clipPath id="p690c731cc8">
   <rect height="266.112" width="357.12" x="57.6" y="41.472"/>
  </clipPath>
 </defs>
</svg>
