<?xml version="1.0" encoding="utf-8" standalone="no"?>
<!DOCTYPE svg PUBLIC "-//W3C//DTD SVG 1.1//EN"
  "http://www.w3.org/Graphics/SVG/1.1/DTD/svg11.dtd">
<!-- Created with matplotlib (https://matplotlib.org/) -->
<svg height="345.6pt" version="1.1" viewBox="0 0 460.8 345.6" width="460.8pt" xmlns="http://www.w3.org/2000/svg" xmlns:xlink="http://www.w3.org/1999/xlink">
 <defs>
  <style type="text/css">
*{stroke-linecap:butt;stroke-linejoin:round;}
  </style>
 </defs>
 <g id="figure_1">
  <g id="patch_1">
   <path d="M 0 345.6 
L 460.8 345.6 
L 460.8 0 
L 0 0 
z
" style="fill:#ffffff;"/>
  </g>
  <g id="axes_1">
   <g id="patch_2">
    <path d="M 57.6 307.584 
L 414.72 307.584 
L 414.72 41.472 
L 57.6 41.472 
z
" style="fill:#ffffff;"/>
   </g>
   <g id="line2d_1">
    <path clip-path="url(#p0641d16178)" d="M 73.832727 295.488 
L 81.751131 241.654953 
L 89.669534 241.654953 
L 97.587938 187.821906 
L 105.506341 187.821906 
L 113.424745 187.821906 
L 121.343149 244.914817 
L 129.261552 244.914817 
L 137.179956 191.060492 
L 145.098359 191.060492 
L 153.016763 204.037965 
L 160.935166 204.037965 
L 168.85357 204.037965 
L 176.771973 210.256638 
L 184.690377 210.256638 
L 192.60878 153.725591 
L 200.527184 153.725591 
L 208.445588 102.096347 
L 216.363991 102.096347 
L 224.282395 53.568 
L 232.200798 53.568 
L 240.119202 109.503885 
L 248.037605 109.503885 
L 255.956009 92.861673 
L 263.874412 111.752818 
L 271.792816 111.752818 
L 279.71122 111.752818 
L 287.629623 111.752818 
L 295.548027 111.752818 
L 303.46643 131.107581 
L 311.384834 136.09578 
L 319.303237 136.09578 
L 327.221641 136.09578 
L 335.140044 136.09578 
L 343.058448 136.09578 
L 350.976851 153.154598 
L 358.895255 153.154598 
L 366.813659 171.472132 
L 374.732062 171.472132 
L 382.650466 154.370967 
L 390.568869 154.370967 
L 398.487273 154.370967 
" style="fill:none;stroke:#ff0000;stroke-linecap:square;stroke-width:12;"/>
    <defs>
     <path d="M 0 3 
C 0.795609 3 1.55874 2.683901 2.12132 2.12132 
C 2.683901 1.55874 3 0.795609 3 0 
C 3 -0.795609 2.683901 -1.55874 2.12132 -2.12132 
C 1.55874 -2.683901 0.795609 -3 0 -3 
C -0.795609 -3 -1.55874 -2.683901 -2.12132 -2.12132 
C -2.683901 -1.55874 -3 -0.795609 -3 0 
C -3 0.795609 -2.683901 1.55874 -2.12132 2.12132 
C -1.55874 2.683901 -0.795609 3 0 3 
z
" id="m8647faca26" style="stroke:#ff0000;"/>
    </defs>
    <g clip-path="url(#p0641d16178)">
     <use style="fill:#ff0000;stroke:#ff0000;" x="73.832727" xlink:href="#m8647faca26" y="295.488"/>
     <use style="fill:#ff0000;stroke:#ff0000;" x="81.751131" xlink:href="#m8647faca26" y="241.654953"/>
     <use style="fill:#ff0000;stroke:#ff0000;" x="89.669534" xlink:href="#m8647faca26" y="241.654953"/>
     <use style="fill:#ff0000;stroke:#ff0000;" x="97.587938" xlink:href="#m8647faca26" y="187.821906"/>
     <use style="fill:#ff0000;stroke:#ff0000;" x="105.506341" xlink:href="#m8647faca26" y="187.821906"/>
     <use style="fill:#ff0000;stroke:#ff0000;" x="113.424745" xlink:href="#m8647faca26" y="187.821906"/>
     <use style="fill:#ff0000;stroke:#ff0000;" x="121.343149" xlink:href="#m8647faca26" y="244.914817"/>
     <use style="fill:#ff0000;stroke:#ff0000;" x="129.261552" xlink:href="#m8647faca26" y="244.914817"/>
     <use style="fill:#ff0000;stroke:#ff0000;" x="137.179956" xlink:href="#m8647faca26" y="191.060492"/>
     <use style="fill:#ff0000;stroke:#ff0000;" x="145.098359" xlink:href="#m8647faca26" y="191.060492"/>
     <use style="fill:#ff0000;stroke:#ff0000;" x="153.016763" xlink:href="#m8647faca26" y="204.037965"/>
     <use style="fill:#ff0000;stroke:#ff0000;" x="160.935166" xlink:href="#m8647faca26" y="204.037965"/>
     <use style="fill:#ff0000;stroke:#ff0000;" x="168.85357" xlink:href="#m8647faca26" y="204.037965"/>
     <use style="fill:#ff0000;stroke:#ff0000;" x="176.771973" xlink:href="#m8647faca26" y="210.256638"/>
     <use style="fill:#ff0000;stroke:#ff0000;" x="184.690377" xlink:href="#m8647faca26" y="210.256638"/>
     <use style="fill:#ff0000;stroke:#ff0000;" x="192.60878" xlink:href="#m8647faca26" y="153.725591"/>
     <use style="fill:#ff0000;stroke:#ff0000;" x="200.527184" xlink:href="#m8647faca26" y="153.725591"/>
     <use style="fill:#ff0000;stroke:#ff0000;" x="208.445588" xlink:href="#m8647faca26" y="102.096347"/>
     <use style="fill:#ff0000;stroke:#ff0000;" x="216.363991" xlink:href="#m8647faca26" y="102.096347"/>
     <use style="fill:#ff0000;stroke:#ff0000;" x="224.282395" xlink:href="#m8647faca26" y="53.568"/>
     <use style="fill:#ff0000;stroke:#ff0000;" x="232.200798" xlink:href="#m8647faca26" y="53.568"/>
     <use style="fill:#ff0000;stroke:#ff0000;" x="240.119202" xlink:href="#m8647faca26" y="109.503885"/>
     <use style="fill:#ff0000;stroke:#ff0000;" x="248.037605" xlink:href="#m8647faca26" y="109.503885"/>
     <use style="fill:#ff0000;stroke:#ff0000;" x="255.956009" xlink:href="#m8647faca26" y="92.861673"/>
     <use style="fill:#ff0000;stroke:#ff0000;" x="263.874412" xlink:href="#m8647faca26" y="111.752818"/>
     <use style="fill:#ff0000;stroke:#ff0000;" x="271.792816" xlink:href="#m8647faca26" y="111.752818"/>
     <use style="fill:#ff0000;stroke:#ff0000;" x="279.71122" xlink:href="#m8647faca26" y="111.752818"/>
     <use style="fill:#ff0000;stroke:#ff0000;" x="287.629623" xlink:href="#m8647faca26" y="111.752818"/>
     <use style="fill:#ff0000;stroke:#ff0000;" x="295.548027" xlink:href="#m8647faca26" y="111.752818"/>
     <use style="fill:#ff0000;stroke:#ff0000;" x="303.46643" xlink:href="#m8647faca26" y="131.107581"/>
     <use style="fill:#ff0000;stroke:#ff0000;" x="311.384834" xlink:href="#m8647faca26" y="136.09578"/>
     <use style="fill:#ff0000;stroke:#ff0000;" x="319.303237" xlink:href="#m8647faca26" y="136.09578"/>
     <use style="fill:#ff0000;stroke:#ff0000;" x="327.221641" xlink:href="#m8647faca26" y="136.09578"/>
     <use style="fill:#ff0000;stroke:#ff0000;" x="335.140044" xlink:href="#m8647faca26" y="136.09578"/>
     <use style="fill:#ff0000;stroke:#ff0000;" x="343.058448" xlink:href="#m8647faca26" y="136.09578"/>
     <use style="fill:#ff0000;stroke:#ff0000;" x="350.976851" xlink:href="#m8647faca26" y="153.154598"/>
     <use style="fill:#ff0000;stroke:#ff0000;" x="358.895255" xlink:href="#m8647faca26" y="153.154598"/>
     <use style="fill:#ff0000;stroke:#ff0000;" x="366.813659" xlink:href="#m8647faca26" y="171.472132"/>
     <use style="fill:#ff0000;stroke:#ff0000;" x="374.732062" xlink:href="#m8647faca26" y="171.472132"/>
     <use style="fill:#ff0000;stroke:#ff0000;" x="382.650466" xlink:href="#m8647faca26" y="154.370967"/>
     <use style="fill:#ff0000;stroke:#ff0000;" x="390.568869" xlink:href="#m8647faca26" y="154.370967"/>
     <use style="fill:#ff0000;stroke:#ff0000;" x="398.487273" xlink:href="#m8647faca26" y="154.370967"/>
    </g>
   </g>
   <g id="patch_3">
    <path d="M 57.6 307.584 
L 57.6 41.472 
" style="fill:none;stroke:#000000;stroke-linecap:square;stroke-linejoin:miter;stroke-width:0.8;"/>
   </g>
   <g id="patch_4">
    <path d="M 414.72 307.584 
L 414.72 41.472 
" style="fill:none;stroke:#000000;stroke-linecap:square;stroke-linejoin:miter;stroke-width:0.8;"/>
   </g>
   <g id="patch_5">
    <path d="M 57.6 307.584 
L 414.72 307.584 
" style="fill:none;stroke:#000000;stroke-linecap:square;stroke-linejoin:miter;stroke-width:0.8;"/>
   </g>
   <g id="patch_6">
    <path d="M 57.6 41.472 
L 414.72 41.472 
" style="fill:none;stroke:#000000;stroke-linecap:square;stroke-linejoin:miter;stroke-width:0.8;"/>
   </g>
  </g>
 </g>
 <defs>
  <clipPath id="p0641d16178">
   <rect height="266.112" width="357.12" x="57.6" y="41.472"/>
  </clipPath>
 </defs>
</svg>
