<?xml version="1.0" encoding="utf-8" standalone="no"?>
<!DOCTYPE svg PUBLIC "-//W3C//DTD SVG 1.1//EN"
  "http://www.w3.org/Graphics/SVG/1.1/DTD/svg11.dtd">
<!-- Created with matplotlib (https://matplotlib.org/) -->
<svg height="345.6pt" version="1.1" viewBox="0 0 460.8 345.6" width="460.8pt" xmlns="http://www.w3.org/2000/svg" xmlns:xlink="http://www.w3.org/1999/xlink">
 <defs>
  <style type="text/css">
*{stroke-linecap:butt;stroke-linejoin:round;}
  </style>
 </defs>
 <g id="figure_1">
  <g id="patch_1">
   <path d="M 0 345.6 
L 460.8 345.6 
L 460.8 0 
L 0 0 
z
" style="fill:#ffffff;"/>
  </g>
  <g id="axes_1">
   <g id="patch_2">
    <path d="M 57.6 307.584 
L 414.72 307.584 
L 414.72 41.472 
L 57.6 41.472 
z
" style="fill:#ffffff;"/>
   </g>
   <g id="line2d_1">
    <path clip-path="url(#p7178c5dcea)" d="M 73.832727 290.843159 
L 75.506204 239.32384 
L 77.179681 239.32384 
L 78.853158 187.80452 
L 82.200112 187.80452 
L 83.87359 242.443596 
L 85.547067 242.443596 
L 87.220544 190.903913 
L 88.894021 190.903913 
L 90.567498 203.323618 
L 93.914452 203.323618 
L 95.587929 209.275014 
L 97.261406 209.275014 
L 98.934883 155.173655 
L 100.60836 155.173655 
L 102.281837 105.76342 
L 103.955314 105.76342 
L 105.628791 59.320806 
L 107.302268 59.320806 
L 108.975745 112.852583 
L 110.649222 112.852583 
L 112.322699 96.925649 
L 113.996176 115.004858 
L 120.690084 115.004858 
L 122.363561 133.52776 
L 124.037038 138.301568 
L 130.730947 138.301568 
L 132.404424 154.627202 
L 134.077901 154.627202 
L 135.751378 172.157455 
L 137.424855 172.157455 
L 139.098332 155.791292 
L 142.445286 155.791292 
L 144.118763 138.389998 
L 145.79224 138.389998 
L 147.465717 143.121689 
L 149.139194 143.121689 
L 150.812671 141.404069 
L 154.159625 141.404069 
L 155.833102 127.143251 
L 157.506579 127.143251 
L 160.853533 95.496305 
L 164.200487 95.496305 
L 165.873964 77.662354 
L 167.547441 61.562227 
L 169.220918 61.562227 
L 170.894396 67.394176 
L 172.567873 67.394176 
L 174.24135 53.568 
L 175.914827 53.568 
L 177.588304 72.234953 
L 179.261781 72.234953 
L 180.935258 57.952119 
L 182.608735 57.952119 
L 184.282212 74.902363 
L 187.629166 74.902363 
L 189.302643 93.561755 
L 192.649597 93.561755 
L 194.323074 99.111478 
L 195.996551 83.385532 
L 197.670028 83.385532 
L 199.343505 102.126958 
L 201.016982 102.126958 
L 202.690459 85.597343 
L 204.363936 85.597343 
L 207.71089 124.559414 
L 214.404799 124.559414 
L 216.078276 143.050422 
L 217.751753 143.050422 
L 219.42523 148.396978 
L 221.098707 148.396978 
L 222.772184 154.88322 
L 224.445661 154.88322 
L 226.119138 172.227101 
L 227.792615 172.227101 
L 229.466092 157.236612 
L 234.486523 157.236612 
L 237.833477 191.227656 
L 241.180431 191.227656 
L 242.853908 208.536627 
L 244.527385 208.536627 
L 246.200862 190.54923 
L 247.874339 190.54923 
L 249.547816 209.869439 
L 252.89477 209.869439 
L 254.568247 195.249143 
L 256.241724 195.249143 
L 257.915201 211.897077 
L 259.588679 211.897077 
L 261.262156 229.12815 
L 276.323449 229.12815 
L 277.996926 247.294472 
L 281.34388 247.294472 
L 283.017357 264.655377 
L 284.690834 264.655377 
L 286.364311 267.885938 
L 288.037788 267.885938 
L 289.711265 270.506621 
L 291.384742 272.793891 
L 293.058219 272.793891 
L 294.731696 288.6976 
L 296.405173 288.6976 
L 298.07865 270.197904 
L 299.752127 270.197904 
L 301.425604 287.190545 
L 303.099082 287.190545 
L 304.772559 270.061673 
L 306.446036 270.061673 
L 308.119513 251.873256 
L 309.79299 251.873256 
L 311.466467 235.564923 
L 313.139944 217.367758 
L 314.813421 217.367758 
L 316.486898 222.670697 
L 318.160375 222.670697 
L 319.833852 224.193341 
L 321.507329 224.193341 
L 323.180806 240.318141 
L 324.854283 240.318141 
L 326.52776 259.649813 
L 328.201237 259.649813 
L 329.874714 259.261845 
L 331.548191 259.261845 
L 333.221668 276.541138 
L 334.895145 276.541138 
L 336.568622 260.207207 
L 338.242099 260.207207 
L 339.915576 276.609364 
L 344.936007 276.609364 
L 346.609485 295.488 
L 348.282962 295.488 
L 349.956439 279.72321 
L 351.629916 279.72321 
L 353.303393 262.344112 
L 354.97687 262.344112 
L 356.650347 245.043863 
L 358.323824 245.043863 
L 359.997301 228.767325 
L 361.670778 233.331935 
L 365.017732 233.331935 
L 366.691209 216.012334 
L 368.364686 216.012334 
L 370.038163 216.959045 
L 373.385117 216.959045 
L 375.058594 216.766068 
L 376.732071 201.255595 
L 378.405548 201.255595 
L 380.079025 197.611963 
L 381.752502 197.611963 
L 383.425979 214.386103 
L 398.487273 214.386103 
L 398.487273 214.386103 
" style="fill:none;stroke:#ff0000;stroke-linecap:square;stroke-width:12;"/>
    <defs>
     <path d="M 0 3 
C 0.795609 3 1.55874 2.683901 2.12132 2.12132 
C 2.683901 1.55874 3 0.795609 3 0 
C 3 -0.795609 2.683901 -1.55874 2.12132 -2.12132 
C 1.55874 -2.683901 0.795609 -3 0 -3 
C -0.795609 -3 -1.55874 -2.683901 -2.12132 -2.12132 
C -2.683901 -1.55874 -3 -0.795609 -3 0 
C -3 0.795609 -2.683901 1.55874 -2.12132 2.12132 
C -1.55874 2.683901 -0.795609 3 0 3 
z
" id="m50494ab1a6" style="stroke:#ff0000;"/>
    </defs>
    <g clip-path="url(#p7178c5dcea)">
     <use style="fill:#ff0000;stroke:#ff0000;" x="73.832727" xlink:href="#m50494ab1a6" y="290.843159"/>
     <use style="fill:#ff0000;stroke:#ff0000;" x="75.506204" xlink:href="#m50494ab1a6" y="239.32384"/>
     <use style="fill:#ff0000;stroke:#ff0000;" x="77.179681" xlink:href="#m50494ab1a6" y="239.32384"/>
     <use style="fill:#ff0000;stroke:#ff0000;" x="78.853158" xlink:href="#m50494ab1a6" y="187.80452"/>
     <use style="fill:#ff0000;stroke:#ff0000;" x="80.526635" xlink:href="#m50494ab1a6" y="187.80452"/>
     <use style="fill:#ff0000;stroke:#ff0000;" x="82.200112" xlink:href="#m50494ab1a6" y="187.80452"/>
     <use style="fill:#ff0000;stroke:#ff0000;" x="83.87359" xlink:href="#m50494ab1a6" y="242.443596"/>
     <use style="fill:#ff0000;stroke:#ff0000;" x="85.547067" xlink:href="#m50494ab1a6" y="242.443596"/>
     <use style="fill:#ff0000;stroke:#ff0000;" x="87.220544" xlink:href="#m50494ab1a6" y="190.903913"/>
     <use style="fill:#ff0000;stroke:#ff0000;" x="88.894021" xlink:href="#m50494ab1a6" y="190.903913"/>
     <use style="fill:#ff0000;stroke:#ff0000;" x="90.567498" xlink:href="#m50494ab1a6" y="203.323618"/>
     <use style="fill:#ff0000;stroke:#ff0000;" x="92.240975" xlink:href="#m50494ab1a6" y="203.323618"/>
     <use style="fill:#ff0000;stroke:#ff0000;" x="93.914452" xlink:href="#m50494ab1a6" y="203.323618"/>
     <use style="fill:#ff0000;stroke:#ff0000;" x="95.587929" xlink:href="#m50494ab1a6" y="209.275014"/>
     <use style="fill:#ff0000;stroke:#ff0000;" x="97.261406" xlink:href="#m50494ab1a6" y="209.275014"/>
     <use style="fill:#ff0000;stroke:#ff0000;" x="98.934883" xlink:href="#m50494ab1a6" y="155.173655"/>
     <use style="fill:#ff0000;stroke:#ff0000;" x="100.60836" xlink:href="#m50494ab1a6" y="155.173655"/>
     <use style="fill:#ff0000;stroke:#ff0000;" x="102.281837" xlink:href="#m50494ab1a6" y="105.76342"/>
     <use style="fill:#ff0000;stroke:#ff0000;" x="103.955314" xlink:href="#m50494ab1a6" y="105.76342"/>
     <use style="fill:#ff0000;stroke:#ff0000;" x="105.628791" xlink:href="#m50494ab1a6" y="59.320806"/>
     <use style="fill:#ff0000;stroke:#ff0000;" x="107.302268" xlink:href="#m50494ab1a6" y="59.320806"/>
     <use style="fill:#ff0000;stroke:#ff0000;" x="108.975745" xlink:href="#m50494ab1a6" y="112.852583"/>
     <use style="fill:#ff0000;stroke:#ff0000;" x="110.649222" xlink:href="#m50494ab1a6" y="112.852583"/>
     <use style="fill:#ff0000;stroke:#ff0000;" x="112.322699" xlink:href="#m50494ab1a6" y="96.925649"/>
     <use style="fill:#ff0000;stroke:#ff0000;" x="113.996176" xlink:href="#m50494ab1a6" y="115.004858"/>
     <use style="fill:#ff0000;stroke:#ff0000;" x="115.669653" xlink:href="#m50494ab1a6" y="115.004858"/>
     <use style="fill:#ff0000;stroke:#ff0000;" x="117.34313" xlink:href="#m50494ab1a6" y="115.004858"/>
     <use style="fill:#ff0000;stroke:#ff0000;" x="119.016607" xlink:href="#m50494ab1a6" y="115.004858"/>
     <use style="fill:#ff0000;stroke:#ff0000;" x="120.690084" xlink:href="#m50494ab1a6" y="115.004858"/>
     <use style="fill:#ff0000;stroke:#ff0000;" x="122.363561" xlink:href="#m50494ab1a6" y="133.52776"/>
     <use style="fill:#ff0000;stroke:#ff0000;" x="124.037038" xlink:href="#m50494ab1a6" y="138.301568"/>
     <use style="fill:#ff0000;stroke:#ff0000;" x="125.710515" xlink:href="#m50494ab1a6" y="138.301568"/>
     <use style="fill:#ff0000;stroke:#ff0000;" x="127.383993" xlink:href="#m50494ab1a6" y="138.301568"/>
     <use style="fill:#ff0000;stroke:#ff0000;" x="129.05747" xlink:href="#m50494ab1a6" y="138.301568"/>
     <use style="fill:#ff0000;stroke:#ff0000;" x="130.730947" xlink:href="#m50494ab1a6" y="138.301568"/>
     <use style="fill:#ff0000;stroke:#ff0000;" x="132.404424" xlink:href="#m50494ab1a6" y="154.627202"/>
     <use style="fill:#ff0000;stroke:#ff0000;" x="134.077901" xlink:href="#m50494ab1a6" y="154.627202"/>
     <use style="fill:#ff0000;stroke:#ff0000;" x="135.751378" xlink:href="#m50494ab1a6" y="172.157455"/>
     <use style="fill:#ff0000;stroke:#ff0000;" x="137.424855" xlink:href="#m50494ab1a6" y="172.157455"/>
     <use style="fill:#ff0000;stroke:#ff0000;" x="139.098332" xlink:href="#m50494ab1a6" y="155.791292"/>
     <use style="fill:#ff0000;stroke:#ff0000;" x="140.771809" xlink:href="#m50494ab1a6" y="155.791292"/>
     <use style="fill:#ff0000;stroke:#ff0000;" x="142.445286" xlink:href="#m50494ab1a6" y="155.791292"/>
     <use style="fill:#ff0000;stroke:#ff0000;" x="144.118763" xlink:href="#m50494ab1a6" y="138.389998"/>
     <use style="fill:#ff0000;stroke:#ff0000;" x="145.79224" xlink:href="#m50494ab1a6" y="138.389998"/>
     <use style="fill:#ff0000;stroke:#ff0000;" x="147.465717" xlink:href="#m50494ab1a6" y="143.121689"/>
     <use style="fill:#ff0000;stroke:#ff0000;" x="149.139194" xlink:href="#m50494ab1a6" y="143.121689"/>
     <use style="fill:#ff0000;stroke:#ff0000;" x="150.812671" xlink:href="#m50494ab1a6" y="141.404069"/>
     <use style="fill:#ff0000;stroke:#ff0000;" x="152.486148" xlink:href="#m50494ab1a6" y="141.404069"/>
     <use style="fill:#ff0000;stroke:#ff0000;" x="154.159625" xlink:href="#m50494ab1a6" y="141.404069"/>
     <use style="fill:#ff0000;stroke:#ff0000;" x="155.833102" xlink:href="#m50494ab1a6" y="127.143251"/>
     <use style="fill:#ff0000;stroke:#ff0000;" x="157.506579" xlink:href="#m50494ab1a6" y="127.143251"/>
     <use style="fill:#ff0000;stroke:#ff0000;" x="159.180056" xlink:href="#m50494ab1a6" y="111.432923"/>
     <use style="fill:#ff0000;stroke:#ff0000;" x="160.853533" xlink:href="#m50494ab1a6" y="95.496305"/>
     <use style="fill:#ff0000;stroke:#ff0000;" x="162.52701" xlink:href="#m50494ab1a6" y="95.496305"/>
     <use style="fill:#ff0000;stroke:#ff0000;" x="164.200487" xlink:href="#m50494ab1a6" y="95.496305"/>
     <use style="fill:#ff0000;stroke:#ff0000;" x="165.873964" xlink:href="#m50494ab1a6" y="77.662354"/>
     <use style="fill:#ff0000;stroke:#ff0000;" x="167.547441" xlink:href="#m50494ab1a6" y="61.562227"/>
     <use style="fill:#ff0000;stroke:#ff0000;" x="169.220918" xlink:href="#m50494ab1a6" y="61.562227"/>
     <use style="fill:#ff0000;stroke:#ff0000;" x="170.894396" xlink:href="#m50494ab1a6" y="67.394176"/>
     <use style="fill:#ff0000;stroke:#ff0000;" x="172.567873" xlink:href="#m50494ab1a6" y="67.394176"/>
     <use style="fill:#ff0000;stroke:#ff0000;" x="174.24135" xlink:href="#m50494ab1a6" y="53.568"/>
     <use style="fill:#ff0000;stroke:#ff0000;" x="175.914827" xlink:href="#m50494ab1a6" y="53.568"/>
     <use style="fill:#ff0000;stroke:#ff0000;" x="177.588304" xlink:href="#m50494ab1a6" y="72.234953"/>
     <use style="fill:#ff0000;stroke:#ff0000;" x="179.261781" xlink:href="#m50494ab1a6" y="72.234953"/>
     <use style="fill:#ff0000;stroke:#ff0000;" x="180.935258" xlink:href="#m50494ab1a6" y="57.952119"/>
     <use style="fill:#ff0000;stroke:#ff0000;" x="182.608735" xlink:href="#m50494ab1a6" y="57.952119"/>
     <use style="fill:#ff0000;stroke:#ff0000;" x="184.282212" xlink:href="#m50494ab1a6" y="74.902363"/>
     <use style="fill:#ff0000;stroke:#ff0000;" x="185.955689" xlink:href="#m50494ab1a6" y="74.902363"/>
     <use style="fill:#ff0000;stroke:#ff0000;" x="187.629166" xlink:href="#m50494ab1a6" y="74.902363"/>
     <use style="fill:#ff0000;stroke:#ff0000;" x="189.302643" xlink:href="#m50494ab1a6" y="93.561755"/>
     <use style="fill:#ff0000;stroke:#ff0000;" x="190.97612" xlink:href="#m50494ab1a6" y="93.561755"/>
     <use style="fill:#ff0000;stroke:#ff0000;" x="192.649597" xlink:href="#m50494ab1a6" y="93.561755"/>
     <use style="fill:#ff0000;stroke:#ff0000;" x="194.323074" xlink:href="#m50494ab1a6" y="99.111478"/>
     <use style="fill:#ff0000;stroke:#ff0000;" x="195.996551" xlink:href="#m50494ab1a6" y="83.385532"/>
     <use style="fill:#ff0000;stroke:#ff0000;" x="197.670028" xlink:href="#m50494ab1a6" y="83.385532"/>
     <use style="fill:#ff0000;stroke:#ff0000;" x="199.343505" xlink:href="#m50494ab1a6" y="102.126958"/>
     <use style="fill:#ff0000;stroke:#ff0000;" x="201.016982" xlink:href="#m50494ab1a6" y="102.126958"/>
     <use style="fill:#ff0000;stroke:#ff0000;" x="202.690459" xlink:href="#m50494ab1a6" y="85.597343"/>
     <use style="fill:#ff0000;stroke:#ff0000;" x="204.363936" xlink:href="#m50494ab1a6" y="85.597343"/>
     <use style="fill:#ff0000;stroke:#ff0000;" x="206.037413" xlink:href="#m50494ab1a6" y="105.233878"/>
     <use style="fill:#ff0000;stroke:#ff0000;" x="207.71089" xlink:href="#m50494ab1a6" y="124.559414"/>
     <use style="fill:#ff0000;stroke:#ff0000;" x="209.384367" xlink:href="#m50494ab1a6" y="124.559414"/>
     <use style="fill:#ff0000;stroke:#ff0000;" x="211.057844" xlink:href="#m50494ab1a6" y="124.559414"/>
     <use style="fill:#ff0000;stroke:#ff0000;" x="212.731321" xlink:href="#m50494ab1a6" y="124.559414"/>
     <use style="fill:#ff0000;stroke:#ff0000;" x="214.404799" xlink:href="#m50494ab1a6" y="124.559414"/>
     <use style="fill:#ff0000;stroke:#ff0000;" x="216.078276" xlink:href="#m50494ab1a6" y="143.050422"/>
     <use style="fill:#ff0000;stroke:#ff0000;" x="217.751753" xlink:href="#m50494ab1a6" y="143.050422"/>
     <use style="fill:#ff0000;stroke:#ff0000;" x="219.42523" xlink:href="#m50494ab1a6" y="148.396978"/>
     <use style="fill:#ff0000;stroke:#ff0000;" x="221.098707" xlink:href="#m50494ab1a6" y="148.396978"/>
     <use style="fill:#ff0000;stroke:#ff0000;" x="222.772184" xlink:href="#m50494ab1a6" y="154.88322"/>
     <use style="fill:#ff0000;stroke:#ff0000;" x="224.445661" xlink:href="#m50494ab1a6" y="154.88322"/>
     <use style="fill:#ff0000;stroke:#ff0000;" x="226.119138" xlink:href="#m50494ab1a6" y="172.227101"/>
     <use style="fill:#ff0000;stroke:#ff0000;" x="227.792615" xlink:href="#m50494ab1a6" y="172.227101"/>
     <use style="fill:#ff0000;stroke:#ff0000;" x="229.466092" xlink:href="#m50494ab1a6" y="157.236612"/>
     <use style="fill:#ff0000;stroke:#ff0000;" x="231.139569" xlink:href="#m50494ab1a6" y="157.236612"/>
     <use style="fill:#ff0000;stroke:#ff0000;" x="232.813046" xlink:href="#m50494ab1a6" y="157.236612"/>
     <use style="fill:#ff0000;stroke:#ff0000;" x="234.486523" xlink:href="#m50494ab1a6" y="157.236612"/>
     <use style="fill:#ff0000;stroke:#ff0000;" x="236.16" xlink:href="#m50494ab1a6" y="174.239074"/>
     <use style="fill:#ff0000;stroke:#ff0000;" x="237.833477" xlink:href="#m50494ab1a6" y="191.227656"/>
     <use style="fill:#ff0000;stroke:#ff0000;" x="239.506954" xlink:href="#m50494ab1a6" y="191.227656"/>
     <use style="fill:#ff0000;stroke:#ff0000;" x="241.180431" xlink:href="#m50494ab1a6" y="191.227656"/>
     <use style="fill:#ff0000;stroke:#ff0000;" x="242.853908" xlink:href="#m50494ab1a6" y="208.536627"/>
     <use style="fill:#ff0000;stroke:#ff0000;" x="244.527385" xlink:href="#m50494ab1a6" y="208.536627"/>
     <use style="fill:#ff0000;stroke:#ff0000;" x="246.200862" xlink:href="#m50494ab1a6" y="190.54923"/>
     <use style="fill:#ff0000;stroke:#ff0000;" x="247.874339" xlink:href="#m50494ab1a6" y="190.54923"/>
     <use style="fill:#ff0000;stroke:#ff0000;" x="249.547816" xlink:href="#m50494ab1a6" y="209.869439"/>
     <use style="fill:#ff0000;stroke:#ff0000;" x="251.221293" xlink:href="#m50494ab1a6" y="209.869439"/>
     <use style="fill:#ff0000;stroke:#ff0000;" x="252.89477" xlink:href="#m50494ab1a6" y="209.869439"/>
     <use style="fill:#ff0000;stroke:#ff0000;" x="254.568247" xlink:href="#m50494ab1a6" y="195.249143"/>
     <use style="fill:#ff0000;stroke:#ff0000;" x="256.241724" xlink:href="#m50494ab1a6" y="195.249143"/>
     <use style="fill:#ff0000;stroke:#ff0000;" x="257.915201" xlink:href="#m50494ab1a6" y="211.897077"/>
     <use style="fill:#ff0000;stroke:#ff0000;" x="259.588679" xlink:href="#m50494ab1a6" y="211.897077"/>
     <use style="fill:#ff0000;stroke:#ff0000;" x="261.262156" xlink:href="#m50494ab1a6" y="229.12815"/>
     <use style="fill:#ff0000;stroke:#ff0000;" x="262.935633" xlink:href="#m50494ab1a6" y="229.12815"/>
     <use style="fill:#ff0000;stroke:#ff0000;" x="264.60911" xlink:href="#m50494ab1a6" y="229.12815"/>
     <use style="fill:#ff0000;stroke:#ff0000;" x="266.282587" xlink:href="#m50494ab1a6" y="229.12815"/>
     <use style="fill:#ff0000;stroke:#ff0000;" x="267.956064" xlink:href="#m50494ab1a6" y="229.12815"/>
     <use style="fill:#ff0000;stroke:#ff0000;" x="269.629541" xlink:href="#m50494ab1a6" y="229.12815"/>
     <use style="fill:#ff0000;stroke:#ff0000;" x="271.303018" xlink:href="#m50494ab1a6" y="229.12815"/>
     <use style="fill:#ff0000;stroke:#ff0000;" x="272.976495" xlink:href="#m50494ab1a6" y="229.12815"/>
     <use style="fill:#ff0000;stroke:#ff0000;" x="274.649972" xlink:href="#m50494ab1a6" y="229.12815"/>
     <use style="fill:#ff0000;stroke:#ff0000;" x="276.323449" xlink:href="#m50494ab1a6" y="229.12815"/>
     <use style="fill:#ff0000;stroke:#ff0000;" x="277.996926" xlink:href="#m50494ab1a6" y="247.294472"/>
     <use style="fill:#ff0000;stroke:#ff0000;" x="279.670403" xlink:href="#m50494ab1a6" y="247.294472"/>
     <use style="fill:#ff0000;stroke:#ff0000;" x="281.34388" xlink:href="#m50494ab1a6" y="247.294472"/>
     <use style="fill:#ff0000;stroke:#ff0000;" x="283.017357" xlink:href="#m50494ab1a6" y="264.655377"/>
     <use style="fill:#ff0000;stroke:#ff0000;" x="284.690834" xlink:href="#m50494ab1a6" y="264.655377"/>
     <use style="fill:#ff0000;stroke:#ff0000;" x="286.364311" xlink:href="#m50494ab1a6" y="267.885938"/>
     <use style="fill:#ff0000;stroke:#ff0000;" x="288.037788" xlink:href="#m50494ab1a6" y="267.885938"/>
     <use style="fill:#ff0000;stroke:#ff0000;" x="289.711265" xlink:href="#m50494ab1a6" y="270.506621"/>
     <use style="fill:#ff0000;stroke:#ff0000;" x="291.384742" xlink:href="#m50494ab1a6" y="272.793891"/>
     <use style="fill:#ff0000;stroke:#ff0000;" x="293.058219" xlink:href="#m50494ab1a6" y="272.793891"/>
     <use style="fill:#ff0000;stroke:#ff0000;" x="294.731696" xlink:href="#m50494ab1a6" y="288.6976"/>
     <use style="fill:#ff0000;stroke:#ff0000;" x="296.405173" xlink:href="#m50494ab1a6" y="288.6976"/>
     <use style="fill:#ff0000;stroke:#ff0000;" x="298.07865" xlink:href="#m50494ab1a6" y="270.197904"/>
     <use style="fill:#ff0000;stroke:#ff0000;" x="299.752127" xlink:href="#m50494ab1a6" y="270.197904"/>
     <use style="fill:#ff0000;stroke:#ff0000;" x="301.425604" xlink:href="#m50494ab1a6" y="287.190545"/>
     <use style="fill:#ff0000;stroke:#ff0000;" x="303.099082" xlink:href="#m50494ab1a6" y="287.190545"/>
     <use style="fill:#ff0000;stroke:#ff0000;" x="304.772559" xlink:href="#m50494ab1a6" y="270.061673"/>
     <use style="fill:#ff0000;stroke:#ff0000;" x="306.446036" xlink:href="#m50494ab1a6" y="270.061673"/>
     <use style="fill:#ff0000;stroke:#ff0000;" x="308.119513" xlink:href="#m50494ab1a6" y="251.873256"/>
     <use style="fill:#ff0000;stroke:#ff0000;" x="309.79299" xlink:href="#m50494ab1a6" y="251.873256"/>
     <use style="fill:#ff0000;stroke:#ff0000;" x="311.466467" xlink:href="#m50494ab1a6" y="235.564923"/>
     <use style="fill:#ff0000;stroke:#ff0000;" x="313.139944" xlink:href="#m50494ab1a6" y="217.367758"/>
     <use style="fill:#ff0000;stroke:#ff0000;" x="314.813421" xlink:href="#m50494ab1a6" y="217.367758"/>
     <use style="fill:#ff0000;stroke:#ff0000;" x="316.486898" xlink:href="#m50494ab1a6" y="222.670697"/>
     <use style="fill:#ff0000;stroke:#ff0000;" x="318.160375" xlink:href="#m50494ab1a6" y="222.670697"/>
     <use style="fill:#ff0000;stroke:#ff0000;" x="319.833852" xlink:href="#m50494ab1a6" y="224.193341"/>
     <use style="fill:#ff0000;stroke:#ff0000;" x="321.507329" xlink:href="#m50494ab1a6" y="224.193341"/>
     <use style="fill:#ff0000;stroke:#ff0000;" x="323.180806" xlink:href="#m50494ab1a6" y="240.318141"/>
     <use style="fill:#ff0000;stroke:#ff0000;" x="324.854283" xlink:href="#m50494ab1a6" y="240.318141"/>
     <use style="fill:#ff0000;stroke:#ff0000;" x="326.52776" xlink:href="#m50494ab1a6" y="259.649813"/>
     <use style="fill:#ff0000;stroke:#ff0000;" x="328.201237" xlink:href="#m50494ab1a6" y="259.649813"/>
     <use style="fill:#ff0000;stroke:#ff0000;" x="329.874714" xlink:href="#m50494ab1a6" y="259.261845"/>
     <use style="fill:#ff0000;stroke:#ff0000;" x="331.548191" xlink:href="#m50494ab1a6" y="259.261845"/>
     <use style="fill:#ff0000;stroke:#ff0000;" x="333.221668" xlink:href="#m50494ab1a6" y="276.541138"/>
     <use style="fill:#ff0000;stroke:#ff0000;" x="334.895145" xlink:href="#m50494ab1a6" y="276.541138"/>
     <use style="fill:#ff0000;stroke:#ff0000;" x="336.568622" xlink:href="#m50494ab1a6" y="260.207207"/>
     <use style="fill:#ff0000;stroke:#ff0000;" x="338.242099" xlink:href="#m50494ab1a6" y="260.207207"/>
     <use style="fill:#ff0000;stroke:#ff0000;" x="339.915576" xlink:href="#m50494ab1a6" y="276.609364"/>
     <use style="fill:#ff0000;stroke:#ff0000;" x="341.589053" xlink:href="#m50494ab1a6" y="276.609364"/>
     <use style="fill:#ff0000;stroke:#ff0000;" x="343.26253" xlink:href="#m50494ab1a6" y="276.609364"/>
     <use style="fill:#ff0000;stroke:#ff0000;" x="344.936007" xlink:href="#m50494ab1a6" y="276.609364"/>
     <use style="fill:#ff0000;stroke:#ff0000;" x="346.609485" xlink:href="#m50494ab1a6" y="295.488"/>
     <use style="fill:#ff0000;stroke:#ff0000;" x="348.282962" xlink:href="#m50494ab1a6" y="295.488"/>
     <use style="fill:#ff0000;stroke:#ff0000;" x="349.956439" xlink:href="#m50494ab1a6" y="279.72321"/>
     <use style="fill:#ff0000;stroke:#ff0000;" x="351.629916" xlink:href="#m50494ab1a6" y="279.72321"/>
     <use style="fill:#ff0000;stroke:#ff0000;" x="353.303393" xlink:href="#m50494ab1a6" y="262.344112"/>
     <use style="fill:#ff0000;stroke:#ff0000;" x="354.97687" xlink:href="#m50494ab1a6" y="262.344112"/>
     <use style="fill:#ff0000;stroke:#ff0000;" x="356.650347" xlink:href="#m50494ab1a6" y="245.043863"/>
     <use style="fill:#ff0000;stroke:#ff0000;" x="358.323824" xlink:href="#m50494ab1a6" y="245.043863"/>
     <use style="fill:#ff0000;stroke:#ff0000;" x="359.997301" xlink:href="#m50494ab1a6" y="228.767325"/>
     <use style="fill:#ff0000;stroke:#ff0000;" x="361.670778" xlink:href="#m50494ab1a6" y="233.331935"/>
     <use style="fill:#ff0000;stroke:#ff0000;" x="363.344255" xlink:href="#m50494ab1a6" y="233.331935"/>
     <use style="fill:#ff0000;stroke:#ff0000;" x="365.017732" xlink:href="#m50494ab1a6" y="233.331935"/>
     <use style="fill:#ff0000;stroke:#ff0000;" x="366.691209" xlink:href="#m50494ab1a6" y="216.012334"/>
     <use style="fill:#ff0000;stroke:#ff0000;" x="368.364686" xlink:href="#m50494ab1a6" y="216.012334"/>
     <use style="fill:#ff0000;stroke:#ff0000;" x="370.038163" xlink:href="#m50494ab1a6" y="216.959045"/>
     <use style="fill:#ff0000;stroke:#ff0000;" x="371.71164" xlink:href="#m50494ab1a6" y="216.959045"/>
     <use style="fill:#ff0000;stroke:#ff0000;" x="373.385117" xlink:href="#m50494ab1a6" y="216.959045"/>
     <use style="fill:#ff0000;stroke:#ff0000;" x="375.058594" xlink:href="#m50494ab1a6" y="216.766068"/>
     <use style="fill:#ff0000;stroke:#ff0000;" x="376.732071" xlink:href="#m50494ab1a6" y="201.255595"/>
     <use style="fill:#ff0000;stroke:#ff0000;" x="378.405548" xlink:href="#m50494ab1a6" y="201.255595"/>
     <use style="fill:#ff0000;stroke:#ff0000;" x="380.079025" xlink:href="#m50494ab1a6" y="197.611963"/>
     <use style="fill:#ff0000;stroke:#ff0000;" x="381.752502" xlink:href="#m50494ab1a6" y="197.611963"/>
     <use style="fill:#ff0000;stroke:#ff0000;" x="383.425979" xlink:href="#m50494ab1a6" y="214.386103"/>
     <use style="fill:#ff0000;stroke:#ff0000;" x="385.099456" xlink:href="#m50494ab1a6" y="214.386103"/>
     <use style="fill:#ff0000;stroke:#ff0000;" x="386.772933" xlink:href="#m50494ab1a6" y="214.386103"/>
     <use style="fill:#ff0000;stroke:#ff0000;" x="388.44641" xlink:href="#m50494ab1a6" y="214.386103"/>
     <use style="fill:#ff0000;stroke:#ff0000;" x="390.119888" xlink:href="#m50494ab1a6" y="214.386103"/>
     <use style="fill:#ff0000;stroke:#ff0000;" x="391.793365" xlink:href="#m50494ab1a6" y="214.386103"/>
     <use style="fill:#ff0000;stroke:#ff0000;" x="393.466842" xlink:href="#m50494ab1a6" y="214.386103"/>
     <use style="fill:#ff0000;stroke:#ff0000;" x="395.140319" xlink:href="#m50494ab1a6" y="214.386103"/>
     <use style="fill:#ff0000;stroke:#ff0000;" x="396.813796" xlink:href="#m50494ab1a6" y="214.386103"/>
     <use style="fill:#ff0000;stroke:#ff0000;" x="398.487273" xlink:href="#m50494ab1a6" y="214.386103"/>
    </g>
   </g>
   <g id="patch_3">
    <path d="M 57.6 307.584 
L 57.6 41.472 
" style="fill:none;stroke:#000000;stroke-linecap:square;stroke-linejoin:miter;stroke-width:0.8;"/>
   </g>
   <g id="patch_4">
    <path d="M 414.72 307.584 
L 414.72 41.472 
" style="fill:none;stroke:#000000;stroke-linecap:square;stroke-linejoin:miter;stroke-width:0.8;"/>
   </g>
   <g id="patch_5">
    <path d="M 57.6 307.584 
L 414.72 307.584 
" style="fill:none;stroke:#000000;stroke-linecap:square;stroke-linejoin:miter;stroke-width:0.8;"/>
   </g>
   <g id="patch_6">
    <path d="M 57.6 41.472 
L 414.72 41.472 
" style="fill:none;stroke:#000000;stroke-linecap:square;stroke-linejoin:miter;stroke-width:0.8;"/>
   </g>
  </g>
 </g>
 <defs>
  <clipPath id="p7178c5dcea">
   <rect height="266.112" width="357.12" x="57.6" y="41.472"/>
  </clipPath>
 </defs>
</svg>
