<?xml version="1.0" encoding="utf-8" standalone="no"?>
<!DOCTYPE svg PUBLIC "-//W3C//DTD SVG 1.1//EN"
  "http://www.w3.org/Graphics/SVG/1.1/DTD/svg11.dtd">
<!-- Created with matplotlib (https://matplotlib.org/) -->
<svg height="345.6pt" version="1.1" viewBox="0 0 460.8 345.6" width="460.8pt" xmlns="http://www.w3.org/2000/svg" xmlns:xlink="http://www.w3.org/1999/xlink">
 <defs>
  <style type="text/css">
*{stroke-linecap:butt;stroke-linejoin:round;}
  </style>
 </defs>
 <g id="figure_1">
  <g id="patch_1">
   <path d="M 0 345.6 
L 460.8 345.6 
L 460.8 0 
L 0 0 
z
" style="fill:#ffffff;"/>
  </g>
  <g id="axes_1">
   <g id="patch_2">
    <path d="M 57.6 307.584 
L 414.72 307.584 
L 414.72 41.472 
L 57.6 41.472 
z
" style="fill:#ffffff;"/>
   </g>
   <g id="line2d_1">
    <path clip-path="url(#p7de9b1ea43)" d="M 73.832727 290.843159 
L 74.952226 239.32384 
L 76.071724 239.32384 
L 77.191223 187.80452 
L 79.430219 187.80452 
L 80.549718 242.443596 
L 81.669216 242.443596 
L 82.788715 190.903913 
L 83.908213 190.903913 
L 85.027712 203.323618 
L 87.266708 203.323618 
L 88.386207 209.275014 
L 89.505705 209.275014 
L 90.625204 155.173655 
L 91.744702 155.173655 
L 92.864201 105.76342 
L 93.983699 105.76342 
L 95.103197 59.320806 
L 96.222696 59.320806 
L 97.342194 112.852583 
L 98.461693 112.852583 
L 99.581191 96.925649 
L 100.70069 115.004858 
L 105.178683 115.004858 
L 106.298182 133.52776 
L 107.41768 138.301568 
L 111.895674 138.301568 
L 113.015172 154.627202 
L 114.134671 154.627202 
L 115.254169 172.157455 
L 116.373668 172.157455 
L 117.493166 155.791292 
L 119.732163 155.791292 
L 120.851661 138.389998 
L 121.97116 138.389998 
L 123.090658 143.121689 
L 124.210157 143.121689 
L 125.329655 141.404069 
L 127.568652 141.404069 
L 128.68815 127.143251 
L 129.807649 127.143251 
L 132.046646 95.496305 
L 134.285643 95.496305 
L 136.524639 61.562227 
L 137.644138 61.562227 
L 138.763636 67.394176 
L 139.883135 67.394176 
L 141.002633 53.568 
L 142.122132 53.568 
L 143.24163 72.234953 
L 144.361129 72.234953 
L 145.480627 57.952119 
L 146.600125 57.952119 
L 147.719624 74.902363 
L 149.958621 74.902363 
L 151.078119 93.561755 
L 153.317116 93.561755 
L 154.436614 99.111478 
L 155.556113 83.385532 
L 156.675611 83.385532 
L 157.79511 102.126958 
L 158.914608 102.126958 
L 160.034107 85.597343 
L 161.153605 85.597343 
L 163.392602 124.559414 
L 167.870596 124.559414 
L 168.990094 143.050422 
L 170.109592 143.050422 
L 171.229091 148.396978 
L 172.348589 148.396978 
L 173.468088 154.88322 
L 174.587586 154.88322 
L 175.707085 172.227101 
L 176.826583 172.227101 
L 177.946082 157.236612 
L 181.304577 157.236612 
L 183.543574 191.227656 
L 185.782571 191.227656 
L 186.902069 208.536627 
L 188.021567 208.536627 
L 189.141066 190.54923 
L 190.260564 190.54923 
L 191.380063 209.869439 
L 193.61906 209.869439 
L 194.738558 195.249143 
L 195.858056 195.249143 
L 196.977555 211.897077 
L 198.097053 211.897077 
L 199.216552 229.12815 
L 209.292038 229.12815 
L 210.411536 247.294472 
L 212.650533 247.294472 
L 213.770031 264.655377 
L 214.88953 264.655377 
L 216.009028 267.885938 
L 217.128527 267.885938 
L 218.248025 270.506621 
L 219.367524 272.793891 
L 220.487022 272.793891 
L 221.60652 288.6976 
L 222.726019 288.6976 
L 223.845517 270.197904 
L 224.965016 270.197904 
L 226.084514 287.190545 
L 227.204013 287.190545 
L 228.323511 270.061673 
L 229.443009 270.061673 
L 230.562508 251.873256 
L 231.682006 251.873256 
L 232.801505 235.564923 
L 233.921003 217.367758 
L 235.040502 217.367758 
L 236.16 222.670697 
L 237.279498 222.670697 
L 238.398997 224.193341 
L 239.518495 224.193341 
L 240.637994 240.318141 
L 241.757492 240.318141 
L 242.876991 259.649813 
L 243.996489 259.649813 
L 245.115987 259.261845 
L 246.235486 259.261845 
L 247.354984 276.541138 
L 248.474483 276.541138 
L 249.593981 260.207207 
L 250.71348 260.207207 
L 251.832978 276.609364 
L 255.191473 276.609364 
L 256.310972 295.488 
L 257.43047 295.488 
L 258.549969 279.72321 
L 259.669467 279.72321 
L 260.788966 262.344112 
L 261.908464 262.344112 
L 263.027962 245.043863 
L 264.147461 245.043863 
L 265.266959 228.767325 
L 266.386458 233.331935 
L 268.625455 233.331935 
L 269.744953 216.012334 
L 270.864451 216.012334 
L 271.98395 216.959045 
L 274.222947 216.959045 
L 275.342445 216.766068 
L 276.461944 201.255595 
L 277.581442 201.255595 
L 278.70094 197.611963 
L 279.820439 197.611963 
L 280.939937 214.386103 
L 398.487273 214.386103 
L 398.487273 214.386103 
" style="fill:none;stroke:#ff0000;stroke-linecap:square;stroke-width:12;"/>
    <defs>
     <path d="M 0 3 
C 0.795609 3 1.55874 2.683901 2.12132 2.12132 
C 2.683901 1.55874 3 0.795609 3 0 
C 3 -0.795609 2.683901 -1.55874 2.12132 -2.12132 
C 1.55874 -2.683901 0.795609 -3 0 -3 
C -0.795609 -3 -1.55874 -2.683901 -2.12132 -2.12132 
C -2.683901 -1.55874 -3 -0.795609 -3 0 
C -3 0.795609 -2.683901 1.55874 -2.12132 2.12132 
C -1.55874 2.683901 -0.795609 3 0 3 
z
" id="m667bad1d65" style="stroke:#ff0000;"/>
    </defs>
    <g clip-path="url(#p7de9b1ea43)">
     <use style="fill:#ff0000;stroke:#ff0000;" x="73.832727" xlink:href="#m667bad1d65" y="290.843159"/>
     <use style="fill:#ff0000;stroke:#ff0000;" x="74.952226" xlink:href="#m667bad1d65" y="239.32384"/>
     <use style="fill:#ff0000;stroke:#ff0000;" x="76.071724" xlink:href="#m667bad1d65" y="239.32384"/>
     <use style="fill:#ff0000;stroke:#ff0000;" x="77.191223" xlink:href="#m667bad1d65" y="187.80452"/>
     <use style="fill:#ff0000;stroke:#ff0000;" x="78.310721" xlink:href="#m667bad1d65" y="187.80452"/>
     <use style="fill:#ff0000;stroke:#ff0000;" x="79.430219" xlink:href="#m667bad1d65" y="187.80452"/>
     <use style="fill:#ff0000;stroke:#ff0000;" x="80.549718" xlink:href="#m667bad1d65" y="242.443596"/>
     <use style="fill:#ff0000;stroke:#ff0000;" x="81.669216" xlink:href="#m667bad1d65" y="242.443596"/>
     <use style="fill:#ff0000;stroke:#ff0000;" x="82.788715" xlink:href="#m667bad1d65" y="190.903913"/>
     <use style="fill:#ff0000;stroke:#ff0000;" x="83.908213" xlink:href="#m667bad1d65" y="190.903913"/>
     <use style="fill:#ff0000;stroke:#ff0000;" x="85.027712" xlink:href="#m667bad1d65" y="203.323618"/>
     <use style="fill:#ff0000;stroke:#ff0000;" x="86.14721" xlink:href="#m667bad1d65" y="203.323618"/>
     <use style="fill:#ff0000;stroke:#ff0000;" x="87.266708" xlink:href="#m667bad1d65" y="203.323618"/>
     <use style="fill:#ff0000;stroke:#ff0000;" x="88.386207" xlink:href="#m667bad1d65" y="209.275014"/>
     <use style="fill:#ff0000;stroke:#ff0000;" x="89.505705" xlink:href="#m667bad1d65" y="209.275014"/>
     <use style="fill:#ff0000;stroke:#ff0000;" x="90.625204" xlink:href="#m667bad1d65" y="155.173655"/>
     <use style="fill:#ff0000;stroke:#ff0000;" x="91.744702" xlink:href="#m667bad1d65" y="155.173655"/>
     <use style="fill:#ff0000;stroke:#ff0000;" x="92.864201" xlink:href="#m667bad1d65" y="105.76342"/>
     <use style="fill:#ff0000;stroke:#ff0000;" x="93.983699" xlink:href="#m667bad1d65" y="105.76342"/>
     <use style="fill:#ff0000;stroke:#ff0000;" x="95.103197" xlink:href="#m667bad1d65" y="59.320806"/>
     <use style="fill:#ff0000;stroke:#ff0000;" x="96.222696" xlink:href="#m667bad1d65" y="59.320806"/>
     <use style="fill:#ff0000;stroke:#ff0000;" x="97.342194" xlink:href="#m667bad1d65" y="112.852583"/>
     <use style="fill:#ff0000;stroke:#ff0000;" x="98.461693" xlink:href="#m667bad1d65" y="112.852583"/>
     <use style="fill:#ff0000;stroke:#ff0000;" x="99.581191" xlink:href="#m667bad1d65" y="96.925649"/>
     <use style="fill:#ff0000;stroke:#ff0000;" x="100.70069" xlink:href="#m667bad1d65" y="115.004858"/>
     <use style="fill:#ff0000;stroke:#ff0000;" x="101.820188" xlink:href="#m667bad1d65" y="115.004858"/>
     <use style="fill:#ff0000;stroke:#ff0000;" x="102.939687" xlink:href="#m667bad1d65" y="115.004858"/>
     <use style="fill:#ff0000;stroke:#ff0000;" x="104.059185" xlink:href="#m667bad1d65" y="115.004858"/>
     <use style="fill:#ff0000;stroke:#ff0000;" x="105.178683" xlink:href="#m667bad1d65" y="115.004858"/>
     <use style="fill:#ff0000;stroke:#ff0000;" x="106.298182" xlink:href="#m667bad1d65" y="133.52776"/>
     <use style="fill:#ff0000;stroke:#ff0000;" x="107.41768" xlink:href="#m667bad1d65" y="138.301568"/>
     <use style="fill:#ff0000;stroke:#ff0000;" x="108.537179" xlink:href="#m667bad1d65" y="138.301568"/>
     <use style="fill:#ff0000;stroke:#ff0000;" x="109.656677" xlink:href="#m667bad1d65" y="138.301568"/>
     <use style="fill:#ff0000;stroke:#ff0000;" x="110.776176" xlink:href="#m667bad1d65" y="138.301568"/>
     <use style="fill:#ff0000;stroke:#ff0000;" x="111.895674" xlink:href="#m667bad1d65" y="138.301568"/>
     <use style="fill:#ff0000;stroke:#ff0000;" x="113.015172" xlink:href="#m667bad1d65" y="154.627202"/>
     <use style="fill:#ff0000;stroke:#ff0000;" x="114.134671" xlink:href="#m667bad1d65" y="154.627202"/>
     <use style="fill:#ff0000;stroke:#ff0000;" x="115.254169" xlink:href="#m667bad1d65" y="172.157455"/>
     <use style="fill:#ff0000;stroke:#ff0000;" x="116.373668" xlink:href="#m667bad1d65" y="172.157455"/>
     <use style="fill:#ff0000;stroke:#ff0000;" x="117.493166" xlink:href="#m667bad1d65" y="155.791292"/>
     <use style="fill:#ff0000;stroke:#ff0000;" x="118.612665" xlink:href="#m667bad1d65" y="155.791292"/>
     <use style="fill:#ff0000;stroke:#ff0000;" x="119.732163" xlink:href="#m667bad1d65" y="155.791292"/>
     <use style="fill:#ff0000;stroke:#ff0000;" x="120.851661" xlink:href="#m667bad1d65" y="138.389998"/>
     <use style="fill:#ff0000;stroke:#ff0000;" x="121.97116" xlink:href="#m667bad1d65" y="138.389998"/>
     <use style="fill:#ff0000;stroke:#ff0000;" x="123.090658" xlink:href="#m667bad1d65" y="143.121689"/>
     <use style="fill:#ff0000;stroke:#ff0000;" x="124.210157" xlink:href="#m667bad1d65" y="143.121689"/>
     <use style="fill:#ff0000;stroke:#ff0000;" x="125.329655" xlink:href="#m667bad1d65" y="141.404069"/>
     <use style="fill:#ff0000;stroke:#ff0000;" x="126.449154" xlink:href="#m667bad1d65" y="141.404069"/>
     <use style="fill:#ff0000;stroke:#ff0000;" x="127.568652" xlink:href="#m667bad1d65" y="141.404069"/>
     <use style="fill:#ff0000;stroke:#ff0000;" x="128.68815" xlink:href="#m667bad1d65" y="127.143251"/>
     <use style="fill:#ff0000;stroke:#ff0000;" x="129.807649" xlink:href="#m667bad1d65" y="127.143251"/>
     <use style="fill:#ff0000;stroke:#ff0000;" x="130.927147" xlink:href="#m667bad1d65" y="111.432923"/>
     <use style="fill:#ff0000;stroke:#ff0000;" x="132.046646" xlink:href="#m667bad1d65" y="95.496305"/>
     <use style="fill:#ff0000;stroke:#ff0000;" x="133.166144" xlink:href="#m667bad1d65" y="95.496305"/>
     <use style="fill:#ff0000;stroke:#ff0000;" x="134.285643" xlink:href="#m667bad1d65" y="95.496305"/>
     <use style="fill:#ff0000;stroke:#ff0000;" x="135.405141" xlink:href="#m667bad1d65" y="77.662354"/>
     <use style="fill:#ff0000;stroke:#ff0000;" x="136.524639" xlink:href="#m667bad1d65" y="61.562227"/>
     <use style="fill:#ff0000;stroke:#ff0000;" x="137.644138" xlink:href="#m667bad1d65" y="61.562227"/>
     <use style="fill:#ff0000;stroke:#ff0000;" x="138.763636" xlink:href="#m667bad1d65" y="67.394176"/>
     <use style="fill:#ff0000;stroke:#ff0000;" x="139.883135" xlink:href="#m667bad1d65" y="67.394176"/>
     <use style="fill:#ff0000;stroke:#ff0000;" x="141.002633" xlink:href="#m667bad1d65" y="53.568"/>
     <use style="fill:#ff0000;stroke:#ff0000;" x="142.122132" xlink:href="#m667bad1d65" y="53.568"/>
     <use style="fill:#ff0000;stroke:#ff0000;" x="143.24163" xlink:href="#m667bad1d65" y="72.234953"/>
     <use style="fill:#ff0000;stroke:#ff0000;" x="144.361129" xlink:href="#m667bad1d65" y="72.234953"/>
     <use style="fill:#ff0000;stroke:#ff0000;" x="145.480627" xlink:href="#m667bad1d65" y="57.952119"/>
     <use style="fill:#ff0000;stroke:#ff0000;" x="146.600125" xlink:href="#m667bad1d65" y="57.952119"/>
     <use style="fill:#ff0000;stroke:#ff0000;" x="147.719624" xlink:href="#m667bad1d65" y="74.902363"/>
     <use style="fill:#ff0000;stroke:#ff0000;" x="148.839122" xlink:href="#m667bad1d65" y="74.902363"/>
     <use style="fill:#ff0000;stroke:#ff0000;" x="149.958621" xlink:href="#m667bad1d65" y="74.902363"/>
     <use style="fill:#ff0000;stroke:#ff0000;" x="151.078119" xlink:href="#m667bad1d65" y="93.561755"/>
     <use style="fill:#ff0000;stroke:#ff0000;" x="152.197618" xlink:href="#m667bad1d65" y="93.561755"/>
     <use style="fill:#ff0000;stroke:#ff0000;" x="153.317116" xlink:href="#m667bad1d65" y="93.561755"/>
     <use style="fill:#ff0000;stroke:#ff0000;" x="154.436614" xlink:href="#m667bad1d65" y="99.111478"/>
     <use style="fill:#ff0000;stroke:#ff0000;" x="155.556113" xlink:href="#m667bad1d65" y="83.385532"/>
     <use style="fill:#ff0000;stroke:#ff0000;" x="156.675611" xlink:href="#m667bad1d65" y="83.385532"/>
     <use style="fill:#ff0000;stroke:#ff0000;" x="157.79511" xlink:href="#m667bad1d65" y="102.126958"/>
     <use style="fill:#ff0000;stroke:#ff0000;" x="158.914608" xlink:href="#m667bad1d65" y="102.126958"/>
     <use style="fill:#ff0000;stroke:#ff0000;" x="160.034107" xlink:href="#m667bad1d65" y="85.597343"/>
     <use style="fill:#ff0000;stroke:#ff0000;" x="161.153605" xlink:href="#m667bad1d65" y="85.597343"/>
     <use style="fill:#ff0000;stroke:#ff0000;" x="162.273103" xlink:href="#m667bad1d65" y="105.233878"/>
     <use style="fill:#ff0000;stroke:#ff0000;" x="163.392602" xlink:href="#m667bad1d65" y="124.559414"/>
     <use style="fill:#ff0000;stroke:#ff0000;" x="164.5121" xlink:href="#m667bad1d65" y="124.559414"/>
     <use style="fill:#ff0000;stroke:#ff0000;" x="165.631599" xlink:href="#m667bad1d65" y="124.559414"/>
     <use style="fill:#ff0000;stroke:#ff0000;" x="166.751097" xlink:href="#m667bad1d65" y="124.559414"/>
     <use style="fill:#ff0000;stroke:#ff0000;" x="167.870596" xlink:href="#m667bad1d65" y="124.559414"/>
     <use style="fill:#ff0000;stroke:#ff0000;" x="168.990094" xlink:href="#m667bad1d65" y="143.050422"/>
     <use style="fill:#ff0000;stroke:#ff0000;" x="170.109592" xlink:href="#m667bad1d65" y="143.050422"/>
     <use style="fill:#ff0000;stroke:#ff0000;" x="171.229091" xlink:href="#m667bad1d65" y="148.396978"/>
     <use style="fill:#ff0000;stroke:#ff0000;" x="172.348589" xlink:href="#m667bad1d65" y="148.396978"/>
     <use style="fill:#ff0000;stroke:#ff0000;" x="173.468088" xlink:href="#m667bad1d65" y="154.88322"/>
     <use style="fill:#ff0000;stroke:#ff0000;" x="174.587586" xlink:href="#m667bad1d65" y="154.88322"/>
     <use style="fill:#ff0000;stroke:#ff0000;" x="175.707085" xlink:href="#m667bad1d65" y="172.227101"/>
     <use style="fill:#ff0000;stroke:#ff0000;" x="176.826583" xlink:href="#m667bad1d65" y="172.227101"/>
     <use style="fill:#ff0000;stroke:#ff0000;" x="177.946082" xlink:href="#m667bad1d65" y="157.236612"/>
     <use style="fill:#ff0000;stroke:#ff0000;" x="179.06558" xlink:href="#m667bad1d65" y="157.236612"/>
     <use style="fill:#ff0000;stroke:#ff0000;" x="180.185078" xlink:href="#m667bad1d65" y="157.236612"/>
     <use style="fill:#ff0000;stroke:#ff0000;" x="181.304577" xlink:href="#m667bad1d65" y="157.236612"/>
     <use style="fill:#ff0000;stroke:#ff0000;" x="182.424075" xlink:href="#m667bad1d65" y="174.239074"/>
     <use style="fill:#ff0000;stroke:#ff0000;" x="183.543574" xlink:href="#m667bad1d65" y="191.227656"/>
     <use style="fill:#ff0000;stroke:#ff0000;" x="184.663072" xlink:href="#m667bad1d65" y="191.227656"/>
     <use style="fill:#ff0000;stroke:#ff0000;" x="185.782571" xlink:href="#m667bad1d65" y="191.227656"/>
     <use style="fill:#ff0000;stroke:#ff0000;" x="186.902069" xlink:href="#m667bad1d65" y="208.536627"/>
     <use style="fill:#ff0000;stroke:#ff0000;" x="188.021567" xlink:href="#m667bad1d65" y="208.536627"/>
     <use style="fill:#ff0000;stroke:#ff0000;" x="189.141066" xlink:href="#m667bad1d65" y="190.54923"/>
     <use style="fill:#ff0000;stroke:#ff0000;" x="190.260564" xlink:href="#m667bad1d65" y="190.54923"/>
     <use style="fill:#ff0000;stroke:#ff0000;" x="191.380063" xlink:href="#m667bad1d65" y="209.869439"/>
     <use style="fill:#ff0000;stroke:#ff0000;" x="192.499561" xlink:href="#m667bad1d65" y="209.869439"/>
     <use style="fill:#ff0000;stroke:#ff0000;" x="193.61906" xlink:href="#m667bad1d65" y="209.869439"/>
     <use style="fill:#ff0000;stroke:#ff0000;" x="194.738558" xlink:href="#m667bad1d65" y="195.249143"/>
     <use style="fill:#ff0000;stroke:#ff0000;" x="195.858056" xlink:href="#m667bad1d65" y="195.249143"/>
     <use style="fill:#ff0000;stroke:#ff0000;" x="196.977555" xlink:href="#m667bad1d65" y="211.897077"/>
     <use style="fill:#ff0000;stroke:#ff0000;" x="198.097053" xlink:href="#m667bad1d65" y="211.897077"/>
     <use style="fill:#ff0000;stroke:#ff0000;" x="199.216552" xlink:href="#m667bad1d65" y="229.12815"/>
     <use style="fill:#ff0000;stroke:#ff0000;" x="200.33605" xlink:href="#m667bad1d65" y="229.12815"/>
     <use style="fill:#ff0000;stroke:#ff0000;" x="201.455549" xlink:href="#m667bad1d65" y="229.12815"/>
     <use style="fill:#ff0000;stroke:#ff0000;" x="202.575047" xlink:href="#m667bad1d65" y="229.12815"/>
     <use style="fill:#ff0000;stroke:#ff0000;" x="203.694545" xlink:href="#m667bad1d65" y="229.12815"/>
     <use style="fill:#ff0000;stroke:#ff0000;" x="204.814044" xlink:href="#m667bad1d65" y="229.12815"/>
     <use style="fill:#ff0000;stroke:#ff0000;" x="205.933542" xlink:href="#m667bad1d65" y="229.12815"/>
     <use style="fill:#ff0000;stroke:#ff0000;" x="207.053041" xlink:href="#m667bad1d65" y="229.12815"/>
     <use style="fill:#ff0000;stroke:#ff0000;" x="208.172539" xlink:href="#m667bad1d65" y="229.12815"/>
     <use style="fill:#ff0000;stroke:#ff0000;" x="209.292038" xlink:href="#m667bad1d65" y="229.12815"/>
     <use style="fill:#ff0000;stroke:#ff0000;" x="210.411536" xlink:href="#m667bad1d65" y="247.294472"/>
     <use style="fill:#ff0000;stroke:#ff0000;" x="211.531034" xlink:href="#m667bad1d65" y="247.294472"/>
     <use style="fill:#ff0000;stroke:#ff0000;" x="212.650533" xlink:href="#m667bad1d65" y="247.294472"/>
     <use style="fill:#ff0000;stroke:#ff0000;" x="213.770031" xlink:href="#m667bad1d65" y="264.655377"/>
     <use style="fill:#ff0000;stroke:#ff0000;" x="214.88953" xlink:href="#m667bad1d65" y="264.655377"/>
     <use style="fill:#ff0000;stroke:#ff0000;" x="216.009028" xlink:href="#m667bad1d65" y="267.885938"/>
     <use style="fill:#ff0000;stroke:#ff0000;" x="217.128527" xlink:href="#m667bad1d65" y="267.885938"/>
     <use style="fill:#ff0000;stroke:#ff0000;" x="218.248025" xlink:href="#m667bad1d65" y="270.506621"/>
     <use style="fill:#ff0000;stroke:#ff0000;" x="219.367524" xlink:href="#m667bad1d65" y="272.793891"/>
     <use style="fill:#ff0000;stroke:#ff0000;" x="220.487022" xlink:href="#m667bad1d65" y="272.793891"/>
     <use style="fill:#ff0000;stroke:#ff0000;" x="221.60652" xlink:href="#m667bad1d65" y="288.6976"/>
     <use style="fill:#ff0000;stroke:#ff0000;" x="222.726019" xlink:href="#m667bad1d65" y="288.6976"/>
     <use style="fill:#ff0000;stroke:#ff0000;" x="223.845517" xlink:href="#m667bad1d65" y="270.197904"/>
     <use style="fill:#ff0000;stroke:#ff0000;" x="224.965016" xlink:href="#m667bad1d65" y="270.197904"/>
     <use style="fill:#ff0000;stroke:#ff0000;" x="226.084514" xlink:href="#m667bad1d65" y="287.190545"/>
     <use style="fill:#ff0000;stroke:#ff0000;" x="227.204013" xlink:href="#m667bad1d65" y="287.190545"/>
     <use style="fill:#ff0000;stroke:#ff0000;" x="228.323511" xlink:href="#m667bad1d65" y="270.061673"/>
     <use style="fill:#ff0000;stroke:#ff0000;" x="229.443009" xlink:href="#m667bad1d65" y="270.061673"/>
     <use style="fill:#ff0000;stroke:#ff0000;" x="230.562508" xlink:href="#m667bad1d65" y="251.873256"/>
     <use style="fill:#ff0000;stroke:#ff0000;" x="231.682006" xlink:href="#m667bad1d65" y="251.873256"/>
     <use style="fill:#ff0000;stroke:#ff0000;" x="232.801505" xlink:href="#m667bad1d65" y="235.564923"/>
     <use style="fill:#ff0000;stroke:#ff0000;" x="233.921003" xlink:href="#m667bad1d65" y="217.367758"/>
     <use style="fill:#ff0000;stroke:#ff0000;" x="235.040502" xlink:href="#m667bad1d65" y="217.367758"/>
     <use style="fill:#ff0000;stroke:#ff0000;" x="236.16" xlink:href="#m667bad1d65" y="222.670697"/>
     <use style="fill:#ff0000;stroke:#ff0000;" x="237.279498" xlink:href="#m667bad1d65" y="222.670697"/>
     <use style="fill:#ff0000;stroke:#ff0000;" x="238.398997" xlink:href="#m667bad1d65" y="224.193341"/>
     <use style="fill:#ff0000;stroke:#ff0000;" x="239.518495" xlink:href="#m667bad1d65" y="224.193341"/>
     <use style="fill:#ff0000;stroke:#ff0000;" x="240.637994" xlink:href="#m667bad1d65" y="240.318141"/>
     <use style="fill:#ff0000;stroke:#ff0000;" x="241.757492" xlink:href="#m667bad1d65" y="240.318141"/>
     <use style="fill:#ff0000;stroke:#ff0000;" x="242.876991" xlink:href="#m667bad1d65" y="259.649813"/>
     <use style="fill:#ff0000;stroke:#ff0000;" x="243.996489" xlink:href="#m667bad1d65" y="259.649813"/>
     <use style="fill:#ff0000;stroke:#ff0000;" x="245.115987" xlink:href="#m667bad1d65" y="259.261845"/>
     <use style="fill:#ff0000;stroke:#ff0000;" x="246.235486" xlink:href="#m667bad1d65" y="259.261845"/>
     <use style="fill:#ff0000;stroke:#ff0000;" x="247.354984" xlink:href="#m667bad1d65" y="276.541138"/>
     <use style="fill:#ff0000;stroke:#ff0000;" x="248.474483" xlink:href="#m667bad1d65" y="276.541138"/>
     <use style="fill:#ff0000;stroke:#ff0000;" x="249.593981" xlink:href="#m667bad1d65" y="260.207207"/>
     <use style="fill:#ff0000;stroke:#ff0000;" x="250.71348" xlink:href="#m667bad1d65" y="260.207207"/>
     <use style="fill:#ff0000;stroke:#ff0000;" x="251.832978" xlink:href="#m667bad1d65" y="276.609364"/>
     <use style="fill:#ff0000;stroke:#ff0000;" x="252.952476" xlink:href="#m667bad1d65" y="276.609364"/>
     <use style="fill:#ff0000;stroke:#ff0000;" x="254.071975" xlink:href="#m667bad1d65" y="276.609364"/>
     <use style="fill:#ff0000;stroke:#ff0000;" x="255.191473" xlink:href="#m667bad1d65" y="276.609364"/>
     <use style="fill:#ff0000;stroke:#ff0000;" x="256.310972" xlink:href="#m667bad1d65" y="295.488"/>
     <use style="fill:#ff0000;stroke:#ff0000;" x="257.43047" xlink:href="#m667bad1d65" y="295.488"/>
     <use style="fill:#ff0000;stroke:#ff0000;" x="258.549969" xlink:href="#m667bad1d65" y="279.72321"/>
     <use style="fill:#ff0000;stroke:#ff0000;" x="259.669467" xlink:href="#m667bad1d65" y="279.72321"/>
     <use style="fill:#ff0000;stroke:#ff0000;" x="260.788966" xlink:href="#m667bad1d65" y="262.344112"/>
     <use style="fill:#ff0000;stroke:#ff0000;" x="261.908464" xlink:href="#m667bad1d65" y="262.344112"/>
     <use style="fill:#ff0000;stroke:#ff0000;" x="263.027962" xlink:href="#m667bad1d65" y="245.043863"/>
     <use style="fill:#ff0000;stroke:#ff0000;" x="264.147461" xlink:href="#m667bad1d65" y="245.043863"/>
     <use style="fill:#ff0000;stroke:#ff0000;" x="265.266959" xlink:href="#m667bad1d65" y="228.767325"/>
     <use style="fill:#ff0000;stroke:#ff0000;" x="266.386458" xlink:href="#m667bad1d65" y="233.331935"/>
     <use style="fill:#ff0000;stroke:#ff0000;" x="267.505956" xlink:href="#m667bad1d65" y="233.331935"/>
     <use style="fill:#ff0000;stroke:#ff0000;" x="268.625455" xlink:href="#m667bad1d65" y="233.331935"/>
     <use style="fill:#ff0000;stroke:#ff0000;" x="269.744953" xlink:href="#m667bad1d65" y="216.012334"/>
     <use style="fill:#ff0000;stroke:#ff0000;" x="270.864451" xlink:href="#m667bad1d65" y="216.012334"/>
     <use style="fill:#ff0000;stroke:#ff0000;" x="271.98395" xlink:href="#m667bad1d65" y="216.959045"/>
     <use style="fill:#ff0000;stroke:#ff0000;" x="273.103448" xlink:href="#m667bad1d65" y="216.959045"/>
     <use style="fill:#ff0000;stroke:#ff0000;" x="274.222947" xlink:href="#m667bad1d65" y="216.959045"/>
     <use style="fill:#ff0000;stroke:#ff0000;" x="275.342445" xlink:href="#m667bad1d65" y="216.766068"/>
     <use style="fill:#ff0000;stroke:#ff0000;" x="276.461944" xlink:href="#m667bad1d65" y="201.255595"/>
     <use style="fill:#ff0000;stroke:#ff0000;" x="277.581442" xlink:href="#m667bad1d65" y="201.255595"/>
     <use style="fill:#ff0000;stroke:#ff0000;" x="278.70094" xlink:href="#m667bad1d65" y="197.611963"/>
     <use style="fill:#ff0000;stroke:#ff0000;" x="279.820439" xlink:href="#m667bad1d65" y="197.611963"/>
     <use style="fill:#ff0000;stroke:#ff0000;" x="280.939937" xlink:href="#m667bad1d65" y="214.386103"/>
     <use style="fill:#ff0000;stroke:#ff0000;" x="282.059436" xlink:href="#m667bad1d65" y="214.386103"/>
     <use style="fill:#ff0000;stroke:#ff0000;" x="283.178934" xlink:href="#m667bad1d65" y="214.386103"/>
     <use style="fill:#ff0000;stroke:#ff0000;" x="284.298433" xlink:href="#m667bad1d65" y="214.386103"/>
     <use style="fill:#ff0000;stroke:#ff0000;" x="285.417931" xlink:href="#m667bad1d65" y="214.386103"/>
     <use style="fill:#ff0000;stroke:#ff0000;" x="286.537429" xlink:href="#m667bad1d65" y="214.386103"/>
     <use style="fill:#ff0000;stroke:#ff0000;" x="287.656928" xlink:href="#m667bad1d65" y="214.386103"/>
     <use style="fill:#ff0000;stroke:#ff0000;" x="288.776426" xlink:href="#m667bad1d65" y="214.386103"/>
     <use style="fill:#ff0000;stroke:#ff0000;" x="289.895925" xlink:href="#m667bad1d65" y="214.386103"/>
     <use style="fill:#ff0000;stroke:#ff0000;" x="291.015423" xlink:href="#m667bad1d65" y="214.386103"/>
     <use style="fill:#ff0000;stroke:#ff0000;" x="292.134922" xlink:href="#m667bad1d65" y="214.386103"/>
     <use style="fill:#ff0000;stroke:#ff0000;" x="293.25442" xlink:href="#m667bad1d65" y="214.386103"/>
     <use style="fill:#ff0000;stroke:#ff0000;" x="294.373918" xlink:href="#m667bad1d65" y="214.386103"/>
     <use style="fill:#ff0000;stroke:#ff0000;" x="295.493417" xlink:href="#m667bad1d65" y="214.386103"/>
     <use style="fill:#ff0000;stroke:#ff0000;" x="296.612915" xlink:href="#m667bad1d65" y="214.386103"/>
     <use style="fill:#ff0000;stroke:#ff0000;" x="297.732414" xlink:href="#m667bad1d65" y="214.386103"/>
     <use style="fill:#ff0000;stroke:#ff0000;" x="298.851912" xlink:href="#m667bad1d65" y="214.386103"/>
     <use style="fill:#ff0000;stroke:#ff0000;" x="299.971411" xlink:href="#m667bad1d65" y="214.386103"/>
     <use style="fill:#ff0000;stroke:#ff0000;" x="301.090909" xlink:href="#m667bad1d65" y="214.386103"/>
     <use style="fill:#ff0000;stroke:#ff0000;" x="302.210408" xlink:href="#m667bad1d65" y="214.386103"/>
     <use style="fill:#ff0000;stroke:#ff0000;" x="303.329906" xlink:href="#m667bad1d65" y="214.386103"/>
     <use style="fill:#ff0000;stroke:#ff0000;" x="304.449404" xlink:href="#m667bad1d65" y="214.386103"/>
     <use style="fill:#ff0000;stroke:#ff0000;" x="305.568903" xlink:href="#m667bad1d65" y="214.386103"/>
     <use style="fill:#ff0000;stroke:#ff0000;" x="306.688401" xlink:href="#m667bad1d65" y="214.386103"/>
     <use style="fill:#ff0000;stroke:#ff0000;" x="307.8079" xlink:href="#m667bad1d65" y="214.386103"/>
     <use style="fill:#ff0000;stroke:#ff0000;" x="308.927398" xlink:href="#m667bad1d65" y="214.386103"/>
     <use style="fill:#ff0000;stroke:#ff0000;" x="310.046897" xlink:href="#m667bad1d65" y="214.386103"/>
     <use style="fill:#ff0000;stroke:#ff0000;" x="311.166395" xlink:href="#m667bad1d65" y="214.386103"/>
     <use style="fill:#ff0000;stroke:#ff0000;" x="312.285893" xlink:href="#m667bad1d65" y="214.386103"/>
     <use style="fill:#ff0000;stroke:#ff0000;" x="313.405392" xlink:href="#m667bad1d65" y="214.386103"/>
     <use style="fill:#ff0000;stroke:#ff0000;" x="314.52489" xlink:href="#m667bad1d65" y="214.386103"/>
     <use style="fill:#ff0000;stroke:#ff0000;" x="315.644389" xlink:href="#m667bad1d65" y="214.386103"/>
     <use style="fill:#ff0000;stroke:#ff0000;" x="316.763887" xlink:href="#m667bad1d65" y="214.386103"/>
     <use style="fill:#ff0000;stroke:#ff0000;" x="317.883386" xlink:href="#m667bad1d65" y="214.386103"/>
     <use style="fill:#ff0000;stroke:#ff0000;" x="319.002884" xlink:href="#m667bad1d65" y="214.386103"/>
     <use style="fill:#ff0000;stroke:#ff0000;" x="320.122382" xlink:href="#m667bad1d65" y="214.386103"/>
     <use style="fill:#ff0000;stroke:#ff0000;" x="321.241881" xlink:href="#m667bad1d65" y="214.386103"/>
     <use style="fill:#ff0000;stroke:#ff0000;" x="322.361379" xlink:href="#m667bad1d65" y="214.386103"/>
     <use style="fill:#ff0000;stroke:#ff0000;" x="323.480878" xlink:href="#m667bad1d65" y="214.386103"/>
     <use style="fill:#ff0000;stroke:#ff0000;" x="324.600376" xlink:href="#m667bad1d65" y="214.386103"/>
     <use style="fill:#ff0000;stroke:#ff0000;" x="325.719875" xlink:href="#m667bad1d65" y="214.386103"/>
     <use style="fill:#ff0000;stroke:#ff0000;" x="326.839373" xlink:href="#m667bad1d65" y="214.386103"/>
     <use style="fill:#ff0000;stroke:#ff0000;" x="327.958871" xlink:href="#m667bad1d65" y="214.386103"/>
     <use style="fill:#ff0000;stroke:#ff0000;" x="329.07837" xlink:href="#m667bad1d65" y="214.386103"/>
     <use style="fill:#ff0000;stroke:#ff0000;" x="330.197868" xlink:href="#m667bad1d65" y="214.386103"/>
     <use style="fill:#ff0000;stroke:#ff0000;" x="331.317367" xlink:href="#m667bad1d65" y="214.386103"/>
     <use style="fill:#ff0000;stroke:#ff0000;" x="332.436865" xlink:href="#m667bad1d65" y="214.386103"/>
     <use style="fill:#ff0000;stroke:#ff0000;" x="333.556364" xlink:href="#m667bad1d65" y="214.386103"/>
     <use style="fill:#ff0000;stroke:#ff0000;" x="334.675862" xlink:href="#m667bad1d65" y="214.386103"/>
     <use style="fill:#ff0000;stroke:#ff0000;" x="335.795361" xlink:href="#m667bad1d65" y="214.386103"/>
     <use style="fill:#ff0000;stroke:#ff0000;" x="336.914859" xlink:href="#m667bad1d65" y="214.386103"/>
     <use style="fill:#ff0000;stroke:#ff0000;" x="338.034357" xlink:href="#m667bad1d65" y="214.386103"/>
     <use style="fill:#ff0000;stroke:#ff0000;" x="339.153856" xlink:href="#m667bad1d65" y="214.386103"/>
     <use style="fill:#ff0000;stroke:#ff0000;" x="340.273354" xlink:href="#m667bad1d65" y="214.386103"/>
     <use style="fill:#ff0000;stroke:#ff0000;" x="341.392853" xlink:href="#m667bad1d65" y="214.386103"/>
     <use style="fill:#ff0000;stroke:#ff0000;" x="342.512351" xlink:href="#m667bad1d65" y="214.386103"/>
     <use style="fill:#ff0000;stroke:#ff0000;" x="343.63185" xlink:href="#m667bad1d65" y="214.386103"/>
     <use style="fill:#ff0000;stroke:#ff0000;" x="344.751348" xlink:href="#m667bad1d65" y="214.386103"/>
     <use style="fill:#ff0000;stroke:#ff0000;" x="345.870846" xlink:href="#m667bad1d65" y="214.386103"/>
     <use style="fill:#ff0000;stroke:#ff0000;" x="346.990345" xlink:href="#m667bad1d65" y="214.386103"/>
     <use style="fill:#ff0000;stroke:#ff0000;" x="348.109843" xlink:href="#m667bad1d65" y="214.386103"/>
     <use style="fill:#ff0000;stroke:#ff0000;" x="349.229342" xlink:href="#m667bad1d65" y="214.386103"/>
     <use style="fill:#ff0000;stroke:#ff0000;" x="350.34884" xlink:href="#m667bad1d65" y="214.386103"/>
     <use style="fill:#ff0000;stroke:#ff0000;" x="351.468339" xlink:href="#m667bad1d65" y="214.386103"/>
     <use style="fill:#ff0000;stroke:#ff0000;" x="352.587837" xlink:href="#m667bad1d65" y="214.386103"/>
     <use style="fill:#ff0000;stroke:#ff0000;" x="353.707335" xlink:href="#m667bad1d65" y="214.386103"/>
     <use style="fill:#ff0000;stroke:#ff0000;" x="354.826834" xlink:href="#m667bad1d65" y="214.386103"/>
     <use style="fill:#ff0000;stroke:#ff0000;" x="355.946332" xlink:href="#m667bad1d65" y="214.386103"/>
     <use style="fill:#ff0000;stroke:#ff0000;" x="357.065831" xlink:href="#m667bad1d65" y="214.386103"/>
     <use style="fill:#ff0000;stroke:#ff0000;" x="358.185329" xlink:href="#m667bad1d65" y="214.386103"/>
     <use style="fill:#ff0000;stroke:#ff0000;" x="359.304828" xlink:href="#m667bad1d65" y="214.386103"/>
     <use style="fill:#ff0000;stroke:#ff0000;" x="360.424326" xlink:href="#m667bad1d65" y="214.386103"/>
     <use style="fill:#ff0000;stroke:#ff0000;" x="361.543824" xlink:href="#m667bad1d65" y="214.386103"/>
     <use style="fill:#ff0000;stroke:#ff0000;" x="362.663323" xlink:href="#m667bad1d65" y="214.386103"/>
     <use style="fill:#ff0000;stroke:#ff0000;" x="363.782821" xlink:href="#m667bad1d65" y="214.386103"/>
     <use style="fill:#ff0000;stroke:#ff0000;" x="364.90232" xlink:href="#m667bad1d65" y="214.386103"/>
     <use style="fill:#ff0000;stroke:#ff0000;" x="366.021818" xlink:href="#m667bad1d65" y="214.386103"/>
     <use style="fill:#ff0000;stroke:#ff0000;" x="367.141317" xlink:href="#m667bad1d65" y="214.386103"/>
     <use style="fill:#ff0000;stroke:#ff0000;" x="368.260815" xlink:href="#m667bad1d65" y="214.386103"/>
     <use style="fill:#ff0000;stroke:#ff0000;" x="369.380313" xlink:href="#m667bad1d65" y="214.386103"/>
     <use style="fill:#ff0000;stroke:#ff0000;" x="370.499812" xlink:href="#m667bad1d65" y="214.386103"/>
     <use style="fill:#ff0000;stroke:#ff0000;" x="371.61931" xlink:href="#m667bad1d65" y="214.386103"/>
     <use style="fill:#ff0000;stroke:#ff0000;" x="372.738809" xlink:href="#m667bad1d65" y="214.386103"/>
     <use style="fill:#ff0000;stroke:#ff0000;" x="373.858307" xlink:href="#m667bad1d65" y="214.386103"/>
     <use style="fill:#ff0000;stroke:#ff0000;" x="374.977806" xlink:href="#m667bad1d65" y="214.386103"/>
     <use style="fill:#ff0000;stroke:#ff0000;" x="376.097304" xlink:href="#m667bad1d65" y="214.386103"/>
     <use style="fill:#ff0000;stroke:#ff0000;" x="377.216803" xlink:href="#m667bad1d65" y="214.386103"/>
     <use style="fill:#ff0000;stroke:#ff0000;" x="378.336301" xlink:href="#m667bad1d65" y="214.386103"/>
     <use style="fill:#ff0000;stroke:#ff0000;" x="379.455799" xlink:href="#m667bad1d65" y="214.386103"/>
     <use style="fill:#ff0000;stroke:#ff0000;" x="380.575298" xlink:href="#m667bad1d65" y="214.386103"/>
     <use style="fill:#ff0000;stroke:#ff0000;" x="381.694796" xlink:href="#m667bad1d65" y="214.386103"/>
     <use style="fill:#ff0000;stroke:#ff0000;" x="382.814295" xlink:href="#m667bad1d65" y="214.386103"/>
     <use style="fill:#ff0000;stroke:#ff0000;" x="383.933793" xlink:href="#m667bad1d65" y="214.386103"/>
     <use style="fill:#ff0000;stroke:#ff0000;" x="385.053292" xlink:href="#m667bad1d65" y="214.386103"/>
     <use style="fill:#ff0000;stroke:#ff0000;" x="386.17279" xlink:href="#m667bad1d65" y="214.386103"/>
     <use style="fill:#ff0000;stroke:#ff0000;" x="387.292288" xlink:href="#m667bad1d65" y="214.386103"/>
     <use style="fill:#ff0000;stroke:#ff0000;" x="388.411787" xlink:href="#m667bad1d65" y="214.386103"/>
     <use style="fill:#ff0000;stroke:#ff0000;" x="389.531285" xlink:href="#m667bad1d65" y="214.386103"/>
     <use style="fill:#ff0000;stroke:#ff0000;" x="390.650784" xlink:href="#m667bad1d65" y="214.386103"/>
     <use style="fill:#ff0000;stroke:#ff0000;" x="391.770282" xlink:href="#m667bad1d65" y="214.386103"/>
     <use style="fill:#ff0000;stroke:#ff0000;" x="392.889781" xlink:href="#m667bad1d65" y="214.386103"/>
     <use style="fill:#ff0000;stroke:#ff0000;" x="394.009279" xlink:href="#m667bad1d65" y="214.386103"/>
     <use style="fill:#ff0000;stroke:#ff0000;" x="395.128777" xlink:href="#m667bad1d65" y="214.386103"/>
     <use style="fill:#ff0000;stroke:#ff0000;" x="396.248276" xlink:href="#m667bad1d65" y="214.386103"/>
     <use style="fill:#ff0000;stroke:#ff0000;" x="397.367774" xlink:href="#m667bad1d65" y="214.386103"/>
     <use style="fill:#ff0000;stroke:#ff0000;" x="398.487273" xlink:href="#m667bad1d65" y="214.386103"/>
    </g>
   </g>
   <g id="patch_3">
    <path d="M 57.6 307.584 
L 57.6 41.472 
" style="fill:none;stroke:#000000;stroke-linecap:square;stroke-linejoin:miter;stroke-width:0.8;"/>
   </g>
   <g id="patch_4">
    <path d="M 414.72 307.584 
L 414.72 41.472 
" style="fill:none;stroke:#000000;stroke-linecap:square;stroke-linejoin:miter;stroke-width:0.8;"/>
   </g>
   <g id="patch_5">
    <path d="M 57.6 307.584 
L 414.72 307.584 
" style="fill:none;stroke:#000000;stroke-linecap:square;stroke-linejoin:miter;stroke-width:0.8;"/>
   </g>
   <g id="patch_6">
    <path d="M 57.6 41.472 
L 414.72 41.472 
" style="fill:none;stroke:#000000;stroke-linecap:square;stroke-linejoin:miter;stroke-width:0.8;"/>
   </g>
  </g>
 </g>
 <defs>
  <clipPath id="p7de9b1ea43">
   <rect height="266.112" width="357.12" x="57.6" y="41.472"/>
  </clipPath>
 </defs>
</svg>
