<?xml version="1.0" encoding="utf-8" standalone="no"?>
<!DOCTYPE svg PUBLIC "-//W3C//DTD SVG 1.1//EN"
  "http://www.w3.org/Graphics/SVG/1.1/DTD/svg11.dtd">
<!-- Created with matplotlib (https://matplotlib.org/) -->
<svg height="345.6pt" version="1.1" viewBox="0 0 460.8 345.6" width="460.8pt" xmlns="http://www.w3.org/2000/svg" xmlns:xlink="http://www.w3.org/1999/xlink">
 <defs>
  <style type="text/css">
*{stroke-linecap:butt;stroke-linejoin:round;}
  </style>
 </defs>
 <g id="figure_1">
  <g id="patch_1">
   <path d="M 0 345.6 
L 460.8 345.6 
L 460.8 0 
L 0 0 
z
" style="fill:#ffffff;"/>
  </g>
  <g id="axes_1">
   <g id="patch_2">
    <path d="M 57.6 307.584 
L 414.72 307.584 
L 414.72 41.472 
L 57.6 41.472 
z
" style="fill:#ffffff;"/>
   </g>
   <g id="line2d_1">
    <path clip-path="url(#p3421dfba29)" d="M 73.832727 290.843159 
L 74.816529 239.32384 
L 75.800331 239.32384 
L 76.784132 187.80452 
L 78.751736 187.80452 
L 79.735537 242.443596 
L 80.719339 242.443596 
L 81.70314 190.903913 
L 82.686942 190.903913 
L 83.670744 203.323618 
L 85.638347 203.323618 
L 86.622149 209.275014 
L 87.60595 209.275014 
L 88.589752 155.173655 
L 89.573554 155.173655 
L 90.557355 105.76342 
L 91.541157 105.76342 
L 92.524959 59.320806 
L 93.50876 59.320806 
L 94.492562 112.852583 
L 95.476364 112.852583 
L 96.460165 96.925649 
L 97.443967 115.004858 
L 101.379174 115.004858 
L 102.362975 133.52776 
L 103.346777 138.301568 
L 107.281983 138.301568 
L 108.265785 154.627202 
L 109.249587 154.627202 
L 110.233388 172.157455 
L 111.21719 172.157455 
L 112.200992 155.791292 
L 114.168595 155.791292 
L 115.152397 138.389998 
L 116.136198 138.389998 
L 117.12 143.121689 
L 118.103802 143.121689 
L 119.087603 141.404069 
L 121.055207 141.404069 
L 122.039008 127.143251 
L 123.02281 127.143251 
L 124.990413 95.496305 
L 126.958017 95.496305 
L 128.92562 61.562227 
L 129.909421 61.562227 
L 130.893223 67.394176 
L 131.877025 67.394176 
L 132.860826 53.568 
L 133.844628 53.568 
L 134.82843 72.234953 
L 135.812231 72.234953 
L 136.796033 57.952119 
L 137.779835 57.952119 
L 138.763636 74.902363 
L 140.73124 74.902363 
L 141.715041 93.561755 
L 143.682645 93.561755 
L 144.666446 99.111478 
L 145.650248 83.385532 
L 146.63405 83.385532 
L 147.617851 102.126958 
L 148.601653 102.126958 
L 149.585455 85.597343 
L 150.569256 85.597343 
L 152.53686 124.559414 
L 156.472066 124.559414 
L 157.455868 143.050422 
L 158.439669 143.050422 
L 159.423471 148.396978 
L 160.407273 148.396978 
L 161.391074 154.88322 
L 162.374876 154.88322 
L 163.358678 172.227101 
L 164.342479 172.227101 
L 165.326281 157.236612 
L 168.277686 157.236612 
L 170.245289 191.227656 
L 172.212893 191.227656 
L 173.196694 208.536627 
L 174.180496 208.536627 
L 175.164298 190.54923 
L 176.148099 190.54923 
L 177.131901 209.869439 
L 179.099504 209.869439 
L 180.083306 195.249143 
L 181.067107 195.249143 
L 182.050909 211.897077 
L 183.034711 211.897077 
L 184.018512 229.12815 
L 192.872727 229.12815 
L 193.856529 247.294472 
L 195.824132 247.294472 
L 196.807934 264.655377 
L 197.791736 264.655377 
L 198.775537 267.885938 
L 199.759339 267.885938 
L 200.74314 270.506621 
L 201.726942 272.793891 
L 202.710744 272.793891 
L 203.694545 288.6976 
L 204.678347 288.6976 
L 205.662149 270.197904 
L 206.64595 270.197904 
L 207.629752 287.190545 
L 208.613554 287.190545 
L 209.597355 270.061673 
L 210.581157 270.061673 
L 211.564959 251.873256 
L 212.54876 251.873256 
L 213.532562 235.564923 
L 214.516364 217.367758 
L 215.500165 217.367758 
L 216.483967 222.670697 
L 217.467769 222.670697 
L 218.45157 224.193341 
L 219.435372 224.193341 
L 220.419174 240.318141 
L 221.402975 240.318141 
L 222.386777 259.649813 
L 223.370579 259.649813 
L 224.35438 259.261845 
L 225.338182 259.261845 
L 226.321983 276.541138 
L 227.305785 276.541138 
L 228.289587 260.207207 
L 229.273388 260.207207 
L 230.25719 276.609364 
L 233.208595 276.609364 
L 234.192397 295.488 
L 235.176198 295.488 
L 236.16 279.72321 
L 237.143802 279.72321 
L 238.127603 262.344112 
L 239.111405 262.344112 
L 240.095207 245.043863 
L 241.079008 245.043863 
L 242.06281 228.767325 
L 243.046612 233.331935 
L 245.014215 233.331935 
L 245.998017 216.012334 
L 246.981818 216.012334 
L 247.96562 216.959045 
L 249.933223 216.959045 
L 250.917025 216.766068 
L 251.900826 201.255595 
L 252.884628 201.255595 
L 253.86843 197.611963 
L 254.852231 197.611963 
L 255.836033 214.386103 
L 398.487273 214.386103 
L 398.487273 214.386103 
" style="fill:none;stroke:#ff0000;stroke-linecap:square;stroke-width:12;"/>
    <defs>
     <path d="M 0 3 
C 0.795609 3 1.55874 2.683901 2.12132 2.12132 
C 2.683901 1.55874 3 0.795609 3 0 
C 3 -0.795609 2.683901 -1.55874 2.12132 -2.12132 
C 1.55874 -2.683901 0.795609 -3 0 -3 
C -0.795609 -3 -1.55874 -2.683901 -2.12132 -2.12132 
C -2.683901 -1.55874 -3 -0.795609 -3 0 
C -3 0.795609 -2.683901 1.55874 -2.12132 2.12132 
C -1.55874 2.683901 -0.795609 3 0 3 
z
" id="m6f5ed4734a" style="stroke:#ff0000;"/>
    </defs>
    <g clip-path="url(#p3421dfba29)">
     <use style="fill:#ff0000;stroke:#ff0000;" x="73.832727" xlink:href="#m6f5ed4734a" y="290.843159"/>
     <use style="fill:#ff0000;stroke:#ff0000;" x="74.816529" xlink:href="#m6f5ed4734a" y="239.32384"/>
     <use style="fill:#ff0000;stroke:#ff0000;" x="75.800331" xlink:href="#m6f5ed4734a" y="239.32384"/>
     <use style="fill:#ff0000;stroke:#ff0000;" x="76.784132" xlink:href="#m6f5ed4734a" y="187.80452"/>
     <use style="fill:#ff0000;stroke:#ff0000;" x="77.767934" xlink:href="#m6f5ed4734a" y="187.80452"/>
     <use style="fill:#ff0000;stroke:#ff0000;" x="78.751736" xlink:href="#m6f5ed4734a" y="187.80452"/>
     <use style="fill:#ff0000;stroke:#ff0000;" x="79.735537" xlink:href="#m6f5ed4734a" y="242.443596"/>
     <use style="fill:#ff0000;stroke:#ff0000;" x="80.719339" xlink:href="#m6f5ed4734a" y="242.443596"/>
     <use style="fill:#ff0000;stroke:#ff0000;" x="81.70314" xlink:href="#m6f5ed4734a" y="190.903913"/>
     <use style="fill:#ff0000;stroke:#ff0000;" x="82.686942" xlink:href="#m6f5ed4734a" y="190.903913"/>
     <use style="fill:#ff0000;stroke:#ff0000;" x="83.670744" xlink:href="#m6f5ed4734a" y="203.323618"/>
     <use style="fill:#ff0000;stroke:#ff0000;" x="84.654545" xlink:href="#m6f5ed4734a" y="203.323618"/>
     <use style="fill:#ff0000;stroke:#ff0000;" x="85.638347" xlink:href="#m6f5ed4734a" y="203.323618"/>
     <use style="fill:#ff0000;stroke:#ff0000;" x="86.622149" xlink:href="#m6f5ed4734a" y="209.275014"/>
     <use style="fill:#ff0000;stroke:#ff0000;" x="87.60595" xlink:href="#m6f5ed4734a" y="209.275014"/>
     <use style="fill:#ff0000;stroke:#ff0000;" x="88.589752" xlink:href="#m6f5ed4734a" y="155.173655"/>
     <use style="fill:#ff0000;stroke:#ff0000;" x="89.573554" xlink:href="#m6f5ed4734a" y="155.173655"/>
     <use style="fill:#ff0000;stroke:#ff0000;" x="90.557355" xlink:href="#m6f5ed4734a" y="105.76342"/>
     <use style="fill:#ff0000;stroke:#ff0000;" x="91.541157" xlink:href="#m6f5ed4734a" y="105.76342"/>
     <use style="fill:#ff0000;stroke:#ff0000;" x="92.524959" xlink:href="#m6f5ed4734a" y="59.320806"/>
     <use style="fill:#ff0000;stroke:#ff0000;" x="93.50876" xlink:href="#m6f5ed4734a" y="59.320806"/>
     <use style="fill:#ff0000;stroke:#ff0000;" x="94.492562" xlink:href="#m6f5ed4734a" y="112.852583"/>
     <use style="fill:#ff0000;stroke:#ff0000;" x="95.476364" xlink:href="#m6f5ed4734a" y="112.852583"/>
     <use style="fill:#ff0000;stroke:#ff0000;" x="96.460165" xlink:href="#m6f5ed4734a" y="96.925649"/>
     <use style="fill:#ff0000;stroke:#ff0000;" x="97.443967" xlink:href="#m6f5ed4734a" y="115.004858"/>
     <use style="fill:#ff0000;stroke:#ff0000;" x="98.427769" xlink:href="#m6f5ed4734a" y="115.004858"/>
     <use style="fill:#ff0000;stroke:#ff0000;" x="99.41157" xlink:href="#m6f5ed4734a" y="115.004858"/>
     <use style="fill:#ff0000;stroke:#ff0000;" x="100.395372" xlink:href="#m6f5ed4734a" y="115.004858"/>
     <use style="fill:#ff0000;stroke:#ff0000;" x="101.379174" xlink:href="#m6f5ed4734a" y="115.004858"/>
     <use style="fill:#ff0000;stroke:#ff0000;" x="102.362975" xlink:href="#m6f5ed4734a" y="133.52776"/>
     <use style="fill:#ff0000;stroke:#ff0000;" x="103.346777" xlink:href="#m6f5ed4734a" y="138.301568"/>
     <use style="fill:#ff0000;stroke:#ff0000;" x="104.330579" xlink:href="#m6f5ed4734a" y="138.301568"/>
     <use style="fill:#ff0000;stroke:#ff0000;" x="105.31438" xlink:href="#m6f5ed4734a" y="138.301568"/>
     <use style="fill:#ff0000;stroke:#ff0000;" x="106.298182" xlink:href="#m6f5ed4734a" y="138.301568"/>
     <use style="fill:#ff0000;stroke:#ff0000;" x="107.281983" xlink:href="#m6f5ed4734a" y="138.301568"/>
     <use style="fill:#ff0000;stroke:#ff0000;" x="108.265785" xlink:href="#m6f5ed4734a" y="154.627202"/>
     <use style="fill:#ff0000;stroke:#ff0000;" x="109.249587" xlink:href="#m6f5ed4734a" y="154.627202"/>
     <use style="fill:#ff0000;stroke:#ff0000;" x="110.233388" xlink:href="#m6f5ed4734a" y="172.157455"/>
     <use style="fill:#ff0000;stroke:#ff0000;" x="111.21719" xlink:href="#m6f5ed4734a" y="172.157455"/>
     <use style="fill:#ff0000;stroke:#ff0000;" x="112.200992" xlink:href="#m6f5ed4734a" y="155.791292"/>
     <use style="fill:#ff0000;stroke:#ff0000;" x="113.184793" xlink:href="#m6f5ed4734a" y="155.791292"/>
     <use style="fill:#ff0000;stroke:#ff0000;" x="114.168595" xlink:href="#m6f5ed4734a" y="155.791292"/>
     <use style="fill:#ff0000;stroke:#ff0000;" x="115.152397" xlink:href="#m6f5ed4734a" y="138.389998"/>
     <use style="fill:#ff0000;stroke:#ff0000;" x="116.136198" xlink:href="#m6f5ed4734a" y="138.389998"/>
     <use style="fill:#ff0000;stroke:#ff0000;" x="117.12" xlink:href="#m6f5ed4734a" y="143.121689"/>
     <use style="fill:#ff0000;stroke:#ff0000;" x="118.103802" xlink:href="#m6f5ed4734a" y="143.121689"/>
     <use style="fill:#ff0000;stroke:#ff0000;" x="119.087603" xlink:href="#m6f5ed4734a" y="141.404069"/>
     <use style="fill:#ff0000;stroke:#ff0000;" x="120.071405" xlink:href="#m6f5ed4734a" y="141.404069"/>
     <use style="fill:#ff0000;stroke:#ff0000;" x="121.055207" xlink:href="#m6f5ed4734a" y="141.404069"/>
     <use style="fill:#ff0000;stroke:#ff0000;" x="122.039008" xlink:href="#m6f5ed4734a" y="127.143251"/>
     <use style="fill:#ff0000;stroke:#ff0000;" x="123.02281" xlink:href="#m6f5ed4734a" y="127.143251"/>
     <use style="fill:#ff0000;stroke:#ff0000;" x="124.006612" xlink:href="#m6f5ed4734a" y="111.432923"/>
     <use style="fill:#ff0000;stroke:#ff0000;" x="124.990413" xlink:href="#m6f5ed4734a" y="95.496305"/>
     <use style="fill:#ff0000;stroke:#ff0000;" x="125.974215" xlink:href="#m6f5ed4734a" y="95.496305"/>
     <use style="fill:#ff0000;stroke:#ff0000;" x="126.958017" xlink:href="#m6f5ed4734a" y="95.496305"/>
     <use style="fill:#ff0000;stroke:#ff0000;" x="127.941818" xlink:href="#m6f5ed4734a" y="77.662354"/>
     <use style="fill:#ff0000;stroke:#ff0000;" x="128.92562" xlink:href="#m6f5ed4734a" y="61.562227"/>
     <use style="fill:#ff0000;stroke:#ff0000;" x="129.909421" xlink:href="#m6f5ed4734a" y="61.562227"/>
     <use style="fill:#ff0000;stroke:#ff0000;" x="130.893223" xlink:href="#m6f5ed4734a" y="67.394176"/>
     <use style="fill:#ff0000;stroke:#ff0000;" x="131.877025" xlink:href="#m6f5ed4734a" y="67.394176"/>
     <use style="fill:#ff0000;stroke:#ff0000;" x="132.860826" xlink:href="#m6f5ed4734a" y="53.568"/>
     <use style="fill:#ff0000;stroke:#ff0000;" x="133.844628" xlink:href="#m6f5ed4734a" y="53.568"/>
     <use style="fill:#ff0000;stroke:#ff0000;" x="134.82843" xlink:href="#m6f5ed4734a" y="72.234953"/>
     <use style="fill:#ff0000;stroke:#ff0000;" x="135.812231" xlink:href="#m6f5ed4734a" y="72.234953"/>
     <use style="fill:#ff0000;stroke:#ff0000;" x="136.796033" xlink:href="#m6f5ed4734a" y="57.952119"/>
     <use style="fill:#ff0000;stroke:#ff0000;" x="137.779835" xlink:href="#m6f5ed4734a" y="57.952119"/>
     <use style="fill:#ff0000;stroke:#ff0000;" x="138.763636" xlink:href="#m6f5ed4734a" y="74.902363"/>
     <use style="fill:#ff0000;stroke:#ff0000;" x="139.747438" xlink:href="#m6f5ed4734a" y="74.902363"/>
     <use style="fill:#ff0000;stroke:#ff0000;" x="140.73124" xlink:href="#m6f5ed4734a" y="74.902363"/>
     <use style="fill:#ff0000;stroke:#ff0000;" x="141.715041" xlink:href="#m6f5ed4734a" y="93.561755"/>
     <use style="fill:#ff0000;stroke:#ff0000;" x="142.698843" xlink:href="#m6f5ed4734a" y="93.561755"/>
     <use style="fill:#ff0000;stroke:#ff0000;" x="143.682645" xlink:href="#m6f5ed4734a" y="93.561755"/>
     <use style="fill:#ff0000;stroke:#ff0000;" x="144.666446" xlink:href="#m6f5ed4734a" y="99.111478"/>
     <use style="fill:#ff0000;stroke:#ff0000;" x="145.650248" xlink:href="#m6f5ed4734a" y="83.385532"/>
     <use style="fill:#ff0000;stroke:#ff0000;" x="146.63405" xlink:href="#m6f5ed4734a" y="83.385532"/>
     <use style="fill:#ff0000;stroke:#ff0000;" x="147.617851" xlink:href="#m6f5ed4734a" y="102.126958"/>
     <use style="fill:#ff0000;stroke:#ff0000;" x="148.601653" xlink:href="#m6f5ed4734a" y="102.126958"/>
     <use style="fill:#ff0000;stroke:#ff0000;" x="149.585455" xlink:href="#m6f5ed4734a" y="85.597343"/>
     <use style="fill:#ff0000;stroke:#ff0000;" x="150.569256" xlink:href="#m6f5ed4734a" y="85.597343"/>
     <use style="fill:#ff0000;stroke:#ff0000;" x="151.553058" xlink:href="#m6f5ed4734a" y="105.233878"/>
     <use style="fill:#ff0000;stroke:#ff0000;" x="152.53686" xlink:href="#m6f5ed4734a" y="124.559414"/>
     <use style="fill:#ff0000;stroke:#ff0000;" x="153.520661" xlink:href="#m6f5ed4734a" y="124.559414"/>
     <use style="fill:#ff0000;stroke:#ff0000;" x="154.504463" xlink:href="#m6f5ed4734a" y="124.559414"/>
     <use style="fill:#ff0000;stroke:#ff0000;" x="155.488264" xlink:href="#m6f5ed4734a" y="124.559414"/>
     <use style="fill:#ff0000;stroke:#ff0000;" x="156.472066" xlink:href="#m6f5ed4734a" y="124.559414"/>
     <use style="fill:#ff0000;stroke:#ff0000;" x="157.455868" xlink:href="#m6f5ed4734a" y="143.050422"/>
     <use style="fill:#ff0000;stroke:#ff0000;" x="158.439669" xlink:href="#m6f5ed4734a" y="143.050422"/>
     <use style="fill:#ff0000;stroke:#ff0000;" x="159.423471" xlink:href="#m6f5ed4734a" y="148.396978"/>
     <use style="fill:#ff0000;stroke:#ff0000;" x="160.407273" xlink:href="#m6f5ed4734a" y="148.396978"/>
     <use style="fill:#ff0000;stroke:#ff0000;" x="161.391074" xlink:href="#m6f5ed4734a" y="154.88322"/>
     <use style="fill:#ff0000;stroke:#ff0000;" x="162.374876" xlink:href="#m6f5ed4734a" y="154.88322"/>
     <use style="fill:#ff0000;stroke:#ff0000;" x="163.358678" xlink:href="#m6f5ed4734a" y="172.227101"/>
     <use style="fill:#ff0000;stroke:#ff0000;" x="164.342479" xlink:href="#m6f5ed4734a" y="172.227101"/>
     <use style="fill:#ff0000;stroke:#ff0000;" x="165.326281" xlink:href="#m6f5ed4734a" y="157.236612"/>
     <use style="fill:#ff0000;stroke:#ff0000;" x="166.310083" xlink:href="#m6f5ed4734a" y="157.236612"/>
     <use style="fill:#ff0000;stroke:#ff0000;" x="167.293884" xlink:href="#m6f5ed4734a" y="157.236612"/>
     <use style="fill:#ff0000;stroke:#ff0000;" x="168.277686" xlink:href="#m6f5ed4734a" y="157.236612"/>
     <use style="fill:#ff0000;stroke:#ff0000;" x="169.261488" xlink:href="#m6f5ed4734a" y="174.239074"/>
     <use style="fill:#ff0000;stroke:#ff0000;" x="170.245289" xlink:href="#m6f5ed4734a" y="191.227656"/>
     <use style="fill:#ff0000;stroke:#ff0000;" x="171.229091" xlink:href="#m6f5ed4734a" y="191.227656"/>
     <use style="fill:#ff0000;stroke:#ff0000;" x="172.212893" xlink:href="#m6f5ed4734a" y="191.227656"/>
     <use style="fill:#ff0000;stroke:#ff0000;" x="173.196694" xlink:href="#m6f5ed4734a" y="208.536627"/>
     <use style="fill:#ff0000;stroke:#ff0000;" x="174.180496" xlink:href="#m6f5ed4734a" y="208.536627"/>
     <use style="fill:#ff0000;stroke:#ff0000;" x="175.164298" xlink:href="#m6f5ed4734a" y="190.54923"/>
     <use style="fill:#ff0000;stroke:#ff0000;" x="176.148099" xlink:href="#m6f5ed4734a" y="190.54923"/>
     <use style="fill:#ff0000;stroke:#ff0000;" x="177.131901" xlink:href="#m6f5ed4734a" y="209.869439"/>
     <use style="fill:#ff0000;stroke:#ff0000;" x="178.115702" xlink:href="#m6f5ed4734a" y="209.869439"/>
     <use style="fill:#ff0000;stroke:#ff0000;" x="179.099504" xlink:href="#m6f5ed4734a" y="209.869439"/>
     <use style="fill:#ff0000;stroke:#ff0000;" x="180.083306" xlink:href="#m6f5ed4734a" y="195.249143"/>
     <use style="fill:#ff0000;stroke:#ff0000;" x="181.067107" xlink:href="#m6f5ed4734a" y="195.249143"/>
     <use style="fill:#ff0000;stroke:#ff0000;" x="182.050909" xlink:href="#m6f5ed4734a" y="211.897077"/>
     <use style="fill:#ff0000;stroke:#ff0000;" x="183.034711" xlink:href="#m6f5ed4734a" y="211.897077"/>
     <use style="fill:#ff0000;stroke:#ff0000;" x="184.018512" xlink:href="#m6f5ed4734a" y="229.12815"/>
     <use style="fill:#ff0000;stroke:#ff0000;" x="185.002314" xlink:href="#m6f5ed4734a" y="229.12815"/>
     <use style="fill:#ff0000;stroke:#ff0000;" x="185.986116" xlink:href="#m6f5ed4734a" y="229.12815"/>
     <use style="fill:#ff0000;stroke:#ff0000;" x="186.969917" xlink:href="#m6f5ed4734a" y="229.12815"/>
     <use style="fill:#ff0000;stroke:#ff0000;" x="187.953719" xlink:href="#m6f5ed4734a" y="229.12815"/>
     <use style="fill:#ff0000;stroke:#ff0000;" x="188.937521" xlink:href="#m6f5ed4734a" y="229.12815"/>
     <use style="fill:#ff0000;stroke:#ff0000;" x="189.921322" xlink:href="#m6f5ed4734a" y="229.12815"/>
     <use style="fill:#ff0000;stroke:#ff0000;" x="190.905124" xlink:href="#m6f5ed4734a" y="229.12815"/>
     <use style="fill:#ff0000;stroke:#ff0000;" x="191.888926" xlink:href="#m6f5ed4734a" y="229.12815"/>
     <use style="fill:#ff0000;stroke:#ff0000;" x="192.872727" xlink:href="#m6f5ed4734a" y="229.12815"/>
     <use style="fill:#ff0000;stroke:#ff0000;" x="193.856529" xlink:href="#m6f5ed4734a" y="247.294472"/>
     <use style="fill:#ff0000;stroke:#ff0000;" x="194.840331" xlink:href="#m6f5ed4734a" y="247.294472"/>
     <use style="fill:#ff0000;stroke:#ff0000;" x="195.824132" xlink:href="#m6f5ed4734a" y="247.294472"/>
     <use style="fill:#ff0000;stroke:#ff0000;" x="196.807934" xlink:href="#m6f5ed4734a" y="264.655377"/>
     <use style="fill:#ff0000;stroke:#ff0000;" x="197.791736" xlink:href="#m6f5ed4734a" y="264.655377"/>
     <use style="fill:#ff0000;stroke:#ff0000;" x="198.775537" xlink:href="#m6f5ed4734a" y="267.885938"/>
     <use style="fill:#ff0000;stroke:#ff0000;" x="199.759339" xlink:href="#m6f5ed4734a" y="267.885938"/>
     <use style="fill:#ff0000;stroke:#ff0000;" x="200.74314" xlink:href="#m6f5ed4734a" y="270.506621"/>
     <use style="fill:#ff0000;stroke:#ff0000;" x="201.726942" xlink:href="#m6f5ed4734a" y="272.793891"/>
     <use style="fill:#ff0000;stroke:#ff0000;" x="202.710744" xlink:href="#m6f5ed4734a" y="272.793891"/>
     <use style="fill:#ff0000;stroke:#ff0000;" x="203.694545" xlink:href="#m6f5ed4734a" y="288.6976"/>
     <use style="fill:#ff0000;stroke:#ff0000;" x="204.678347" xlink:href="#m6f5ed4734a" y="288.6976"/>
     <use style="fill:#ff0000;stroke:#ff0000;" x="205.662149" xlink:href="#m6f5ed4734a" y="270.197904"/>
     <use style="fill:#ff0000;stroke:#ff0000;" x="206.64595" xlink:href="#m6f5ed4734a" y="270.197904"/>
     <use style="fill:#ff0000;stroke:#ff0000;" x="207.629752" xlink:href="#m6f5ed4734a" y="287.190545"/>
     <use style="fill:#ff0000;stroke:#ff0000;" x="208.613554" xlink:href="#m6f5ed4734a" y="287.190545"/>
     <use style="fill:#ff0000;stroke:#ff0000;" x="209.597355" xlink:href="#m6f5ed4734a" y="270.061673"/>
     <use style="fill:#ff0000;stroke:#ff0000;" x="210.581157" xlink:href="#m6f5ed4734a" y="270.061673"/>
     <use style="fill:#ff0000;stroke:#ff0000;" x="211.564959" xlink:href="#m6f5ed4734a" y="251.873256"/>
     <use style="fill:#ff0000;stroke:#ff0000;" x="212.54876" xlink:href="#m6f5ed4734a" y="251.873256"/>
     <use style="fill:#ff0000;stroke:#ff0000;" x="213.532562" xlink:href="#m6f5ed4734a" y="235.564923"/>
     <use style="fill:#ff0000;stroke:#ff0000;" x="214.516364" xlink:href="#m6f5ed4734a" y="217.367758"/>
     <use style="fill:#ff0000;stroke:#ff0000;" x="215.500165" xlink:href="#m6f5ed4734a" y="217.367758"/>
     <use style="fill:#ff0000;stroke:#ff0000;" x="216.483967" xlink:href="#m6f5ed4734a" y="222.670697"/>
     <use style="fill:#ff0000;stroke:#ff0000;" x="217.467769" xlink:href="#m6f5ed4734a" y="222.670697"/>
     <use style="fill:#ff0000;stroke:#ff0000;" x="218.45157" xlink:href="#m6f5ed4734a" y="224.193341"/>
     <use style="fill:#ff0000;stroke:#ff0000;" x="219.435372" xlink:href="#m6f5ed4734a" y="224.193341"/>
     <use style="fill:#ff0000;stroke:#ff0000;" x="220.419174" xlink:href="#m6f5ed4734a" y="240.318141"/>
     <use style="fill:#ff0000;stroke:#ff0000;" x="221.402975" xlink:href="#m6f5ed4734a" y="240.318141"/>
     <use style="fill:#ff0000;stroke:#ff0000;" x="222.386777" xlink:href="#m6f5ed4734a" y="259.649813"/>
     <use style="fill:#ff0000;stroke:#ff0000;" x="223.370579" xlink:href="#m6f5ed4734a" y="259.649813"/>
     <use style="fill:#ff0000;stroke:#ff0000;" x="224.35438" xlink:href="#m6f5ed4734a" y="259.261845"/>
     <use style="fill:#ff0000;stroke:#ff0000;" x="225.338182" xlink:href="#m6f5ed4734a" y="259.261845"/>
     <use style="fill:#ff0000;stroke:#ff0000;" x="226.321983" xlink:href="#m6f5ed4734a" y="276.541138"/>
     <use style="fill:#ff0000;stroke:#ff0000;" x="227.305785" xlink:href="#m6f5ed4734a" y="276.541138"/>
     <use style="fill:#ff0000;stroke:#ff0000;" x="228.289587" xlink:href="#m6f5ed4734a" y="260.207207"/>
     <use style="fill:#ff0000;stroke:#ff0000;" x="229.273388" xlink:href="#m6f5ed4734a" y="260.207207"/>
     <use style="fill:#ff0000;stroke:#ff0000;" x="230.25719" xlink:href="#m6f5ed4734a" y="276.609364"/>
     <use style="fill:#ff0000;stroke:#ff0000;" x="231.240992" xlink:href="#m6f5ed4734a" y="276.609364"/>
     <use style="fill:#ff0000;stroke:#ff0000;" x="232.224793" xlink:href="#m6f5ed4734a" y="276.609364"/>
     <use style="fill:#ff0000;stroke:#ff0000;" x="233.208595" xlink:href="#m6f5ed4734a" y="276.609364"/>
     <use style="fill:#ff0000;stroke:#ff0000;" x="234.192397" xlink:href="#m6f5ed4734a" y="295.488"/>
     <use style="fill:#ff0000;stroke:#ff0000;" x="235.176198" xlink:href="#m6f5ed4734a" y="295.488"/>
     <use style="fill:#ff0000;stroke:#ff0000;" x="236.16" xlink:href="#m6f5ed4734a" y="279.72321"/>
     <use style="fill:#ff0000;stroke:#ff0000;" x="237.143802" xlink:href="#m6f5ed4734a" y="279.72321"/>
     <use style="fill:#ff0000;stroke:#ff0000;" x="238.127603" xlink:href="#m6f5ed4734a" y="262.344112"/>
     <use style="fill:#ff0000;stroke:#ff0000;" x="239.111405" xlink:href="#m6f5ed4734a" y="262.344112"/>
     <use style="fill:#ff0000;stroke:#ff0000;" x="240.095207" xlink:href="#m6f5ed4734a" y="245.043863"/>
     <use style="fill:#ff0000;stroke:#ff0000;" x="241.079008" xlink:href="#m6f5ed4734a" y="245.043863"/>
     <use style="fill:#ff0000;stroke:#ff0000;" x="242.06281" xlink:href="#m6f5ed4734a" y="228.767325"/>
     <use style="fill:#ff0000;stroke:#ff0000;" x="243.046612" xlink:href="#m6f5ed4734a" y="233.331935"/>
     <use style="fill:#ff0000;stroke:#ff0000;" x="244.030413" xlink:href="#m6f5ed4734a" y="233.331935"/>
     <use style="fill:#ff0000;stroke:#ff0000;" x="245.014215" xlink:href="#m6f5ed4734a" y="233.331935"/>
     <use style="fill:#ff0000;stroke:#ff0000;" x="245.998017" xlink:href="#m6f5ed4734a" y="216.012334"/>
     <use style="fill:#ff0000;stroke:#ff0000;" x="246.981818" xlink:href="#m6f5ed4734a" y="216.012334"/>
     <use style="fill:#ff0000;stroke:#ff0000;" x="247.96562" xlink:href="#m6f5ed4734a" y="216.959045"/>
     <use style="fill:#ff0000;stroke:#ff0000;" x="248.949421" xlink:href="#m6f5ed4734a" y="216.959045"/>
     <use style="fill:#ff0000;stroke:#ff0000;" x="249.933223" xlink:href="#m6f5ed4734a" y="216.959045"/>
     <use style="fill:#ff0000;stroke:#ff0000;" x="250.917025" xlink:href="#m6f5ed4734a" y="216.766068"/>
     <use style="fill:#ff0000;stroke:#ff0000;" x="251.900826" xlink:href="#m6f5ed4734a" y="201.255595"/>
     <use style="fill:#ff0000;stroke:#ff0000;" x="252.884628" xlink:href="#m6f5ed4734a" y="201.255595"/>
     <use style="fill:#ff0000;stroke:#ff0000;" x="253.86843" xlink:href="#m6f5ed4734a" y="197.611963"/>
     <use style="fill:#ff0000;stroke:#ff0000;" x="254.852231" xlink:href="#m6f5ed4734a" y="197.611963"/>
     <use style="fill:#ff0000;stroke:#ff0000;" x="255.836033" xlink:href="#m6f5ed4734a" y="214.386103"/>
     <use style="fill:#ff0000;stroke:#ff0000;" x="256.819835" xlink:href="#m6f5ed4734a" y="214.386103"/>
     <use style="fill:#ff0000;stroke:#ff0000;" x="257.803636" xlink:href="#m6f5ed4734a" y="214.386103"/>
     <use style="fill:#ff0000;stroke:#ff0000;" x="258.787438" xlink:href="#m6f5ed4734a" y="214.386103"/>
     <use style="fill:#ff0000;stroke:#ff0000;" x="259.77124" xlink:href="#m6f5ed4734a" y="214.386103"/>
     <use style="fill:#ff0000;stroke:#ff0000;" x="260.755041" xlink:href="#m6f5ed4734a" y="214.386103"/>
     <use style="fill:#ff0000;stroke:#ff0000;" x="261.738843" xlink:href="#m6f5ed4734a" y="214.386103"/>
     <use style="fill:#ff0000;stroke:#ff0000;" x="262.722645" xlink:href="#m6f5ed4734a" y="214.386103"/>
     <use style="fill:#ff0000;stroke:#ff0000;" x="263.706446" xlink:href="#m6f5ed4734a" y="214.386103"/>
     <use style="fill:#ff0000;stroke:#ff0000;" x="264.690248" xlink:href="#m6f5ed4734a" y="214.386103"/>
     <use style="fill:#ff0000;stroke:#ff0000;" x="265.67405" xlink:href="#m6f5ed4734a" y="214.386103"/>
     <use style="fill:#ff0000;stroke:#ff0000;" x="266.657851" xlink:href="#m6f5ed4734a" y="214.386103"/>
     <use style="fill:#ff0000;stroke:#ff0000;" x="267.641653" xlink:href="#m6f5ed4734a" y="214.386103"/>
     <use style="fill:#ff0000;stroke:#ff0000;" x="268.625455" xlink:href="#m6f5ed4734a" y="214.386103"/>
     <use style="fill:#ff0000;stroke:#ff0000;" x="269.609256" xlink:href="#m6f5ed4734a" y="214.386103"/>
     <use style="fill:#ff0000;stroke:#ff0000;" x="270.593058" xlink:href="#m6f5ed4734a" y="214.386103"/>
     <use style="fill:#ff0000;stroke:#ff0000;" x="271.57686" xlink:href="#m6f5ed4734a" y="214.386103"/>
     <use style="fill:#ff0000;stroke:#ff0000;" x="272.560661" xlink:href="#m6f5ed4734a" y="214.386103"/>
     <use style="fill:#ff0000;stroke:#ff0000;" x="273.544463" xlink:href="#m6f5ed4734a" y="214.386103"/>
     <use style="fill:#ff0000;stroke:#ff0000;" x="274.528264" xlink:href="#m6f5ed4734a" y="214.386103"/>
     <use style="fill:#ff0000;stroke:#ff0000;" x="275.512066" xlink:href="#m6f5ed4734a" y="214.386103"/>
     <use style="fill:#ff0000;stroke:#ff0000;" x="276.495868" xlink:href="#m6f5ed4734a" y="214.386103"/>
     <use style="fill:#ff0000;stroke:#ff0000;" x="277.479669" xlink:href="#m6f5ed4734a" y="214.386103"/>
     <use style="fill:#ff0000;stroke:#ff0000;" x="278.463471" xlink:href="#m6f5ed4734a" y="214.386103"/>
     <use style="fill:#ff0000;stroke:#ff0000;" x="279.447273" xlink:href="#m6f5ed4734a" y="214.386103"/>
     <use style="fill:#ff0000;stroke:#ff0000;" x="280.431074" xlink:href="#m6f5ed4734a" y="214.386103"/>
     <use style="fill:#ff0000;stroke:#ff0000;" x="281.414876" xlink:href="#m6f5ed4734a" y="214.386103"/>
     <use style="fill:#ff0000;stroke:#ff0000;" x="282.398678" xlink:href="#m6f5ed4734a" y="214.386103"/>
     <use style="fill:#ff0000;stroke:#ff0000;" x="283.382479" xlink:href="#m6f5ed4734a" y="214.386103"/>
     <use style="fill:#ff0000;stroke:#ff0000;" x="284.366281" xlink:href="#m6f5ed4734a" y="214.386103"/>
     <use style="fill:#ff0000;stroke:#ff0000;" x="285.350083" xlink:href="#m6f5ed4734a" y="214.386103"/>
     <use style="fill:#ff0000;stroke:#ff0000;" x="286.333884" xlink:href="#m6f5ed4734a" y="214.386103"/>
     <use style="fill:#ff0000;stroke:#ff0000;" x="287.317686" xlink:href="#m6f5ed4734a" y="214.386103"/>
     <use style="fill:#ff0000;stroke:#ff0000;" x="288.301488" xlink:href="#m6f5ed4734a" y="214.386103"/>
     <use style="fill:#ff0000;stroke:#ff0000;" x="289.285289" xlink:href="#m6f5ed4734a" y="214.386103"/>
     <use style="fill:#ff0000;stroke:#ff0000;" x="290.269091" xlink:href="#m6f5ed4734a" y="214.386103"/>
     <use style="fill:#ff0000;stroke:#ff0000;" x="291.252893" xlink:href="#m6f5ed4734a" y="214.386103"/>
     <use style="fill:#ff0000;stroke:#ff0000;" x="292.236694" xlink:href="#m6f5ed4734a" y="214.386103"/>
     <use style="fill:#ff0000;stroke:#ff0000;" x="293.220496" xlink:href="#m6f5ed4734a" y="214.386103"/>
     <use style="fill:#ff0000;stroke:#ff0000;" x="294.204298" xlink:href="#m6f5ed4734a" y="214.386103"/>
     <use style="fill:#ff0000;stroke:#ff0000;" x="295.188099" xlink:href="#m6f5ed4734a" y="214.386103"/>
     <use style="fill:#ff0000;stroke:#ff0000;" x="296.171901" xlink:href="#m6f5ed4734a" y="214.386103"/>
     <use style="fill:#ff0000;stroke:#ff0000;" x="297.155702" xlink:href="#m6f5ed4734a" y="214.386103"/>
     <use style="fill:#ff0000;stroke:#ff0000;" x="298.139504" xlink:href="#m6f5ed4734a" y="214.386103"/>
     <use style="fill:#ff0000;stroke:#ff0000;" x="299.123306" xlink:href="#m6f5ed4734a" y="214.386103"/>
     <use style="fill:#ff0000;stroke:#ff0000;" x="300.107107" xlink:href="#m6f5ed4734a" y="214.386103"/>
     <use style="fill:#ff0000;stroke:#ff0000;" x="301.090909" xlink:href="#m6f5ed4734a" y="214.386103"/>
     <use style="fill:#ff0000;stroke:#ff0000;" x="302.074711" xlink:href="#m6f5ed4734a" y="214.386103"/>
     <use style="fill:#ff0000;stroke:#ff0000;" x="303.058512" xlink:href="#m6f5ed4734a" y="214.386103"/>
     <use style="fill:#ff0000;stroke:#ff0000;" x="304.042314" xlink:href="#m6f5ed4734a" y="214.386103"/>
     <use style="fill:#ff0000;stroke:#ff0000;" x="305.026116" xlink:href="#m6f5ed4734a" y="214.386103"/>
     <use style="fill:#ff0000;stroke:#ff0000;" x="306.009917" xlink:href="#m6f5ed4734a" y="214.386103"/>
     <use style="fill:#ff0000;stroke:#ff0000;" x="306.993719" xlink:href="#m6f5ed4734a" y="214.386103"/>
     <use style="fill:#ff0000;stroke:#ff0000;" x="307.977521" xlink:href="#m6f5ed4734a" y="214.386103"/>
     <use style="fill:#ff0000;stroke:#ff0000;" x="308.961322" xlink:href="#m6f5ed4734a" y="214.386103"/>
     <use style="fill:#ff0000;stroke:#ff0000;" x="309.945124" xlink:href="#m6f5ed4734a" y="214.386103"/>
     <use style="fill:#ff0000;stroke:#ff0000;" x="310.928926" xlink:href="#m6f5ed4734a" y="214.386103"/>
     <use style="fill:#ff0000;stroke:#ff0000;" x="311.912727" xlink:href="#m6f5ed4734a" y="214.386103"/>
     <use style="fill:#ff0000;stroke:#ff0000;" x="312.896529" xlink:href="#m6f5ed4734a" y="214.386103"/>
     <use style="fill:#ff0000;stroke:#ff0000;" x="313.880331" xlink:href="#m6f5ed4734a" y="214.386103"/>
     <use style="fill:#ff0000;stroke:#ff0000;" x="314.864132" xlink:href="#m6f5ed4734a" y="214.386103"/>
     <use style="fill:#ff0000;stroke:#ff0000;" x="315.847934" xlink:href="#m6f5ed4734a" y="214.386103"/>
     <use style="fill:#ff0000;stroke:#ff0000;" x="316.831736" xlink:href="#m6f5ed4734a" y="214.386103"/>
     <use style="fill:#ff0000;stroke:#ff0000;" x="317.815537" xlink:href="#m6f5ed4734a" y="214.386103"/>
     <use style="fill:#ff0000;stroke:#ff0000;" x="318.799339" xlink:href="#m6f5ed4734a" y="214.386103"/>
     <use style="fill:#ff0000;stroke:#ff0000;" x="319.78314" xlink:href="#m6f5ed4734a" y="214.386103"/>
     <use style="fill:#ff0000;stroke:#ff0000;" x="320.766942" xlink:href="#m6f5ed4734a" y="214.386103"/>
     <use style="fill:#ff0000;stroke:#ff0000;" x="321.750744" xlink:href="#m6f5ed4734a" y="214.386103"/>
     <use style="fill:#ff0000;stroke:#ff0000;" x="322.734545" xlink:href="#m6f5ed4734a" y="214.386103"/>
     <use style="fill:#ff0000;stroke:#ff0000;" x="323.718347" xlink:href="#m6f5ed4734a" y="214.386103"/>
     <use style="fill:#ff0000;stroke:#ff0000;" x="324.702149" xlink:href="#m6f5ed4734a" y="214.386103"/>
     <use style="fill:#ff0000;stroke:#ff0000;" x="325.68595" xlink:href="#m6f5ed4734a" y="214.386103"/>
     <use style="fill:#ff0000;stroke:#ff0000;" x="326.669752" xlink:href="#m6f5ed4734a" y="214.386103"/>
     <use style="fill:#ff0000;stroke:#ff0000;" x="327.653554" xlink:href="#m6f5ed4734a" y="214.386103"/>
     <use style="fill:#ff0000;stroke:#ff0000;" x="328.637355" xlink:href="#m6f5ed4734a" y="214.386103"/>
     <use style="fill:#ff0000;stroke:#ff0000;" x="329.621157" xlink:href="#m6f5ed4734a" y="214.386103"/>
     <use style="fill:#ff0000;stroke:#ff0000;" x="330.604959" xlink:href="#m6f5ed4734a" y="214.386103"/>
     <use style="fill:#ff0000;stroke:#ff0000;" x="331.58876" xlink:href="#m6f5ed4734a" y="214.386103"/>
     <use style="fill:#ff0000;stroke:#ff0000;" x="332.572562" xlink:href="#m6f5ed4734a" y="214.386103"/>
     <use style="fill:#ff0000;stroke:#ff0000;" x="333.556364" xlink:href="#m6f5ed4734a" y="214.386103"/>
     <use style="fill:#ff0000;stroke:#ff0000;" x="334.540165" xlink:href="#m6f5ed4734a" y="214.386103"/>
     <use style="fill:#ff0000;stroke:#ff0000;" x="335.523967" xlink:href="#m6f5ed4734a" y="214.386103"/>
     <use style="fill:#ff0000;stroke:#ff0000;" x="336.507769" xlink:href="#m6f5ed4734a" y="214.386103"/>
     <use style="fill:#ff0000;stroke:#ff0000;" x="337.49157" xlink:href="#m6f5ed4734a" y="214.386103"/>
     <use style="fill:#ff0000;stroke:#ff0000;" x="338.475372" xlink:href="#m6f5ed4734a" y="214.386103"/>
     <use style="fill:#ff0000;stroke:#ff0000;" x="339.459174" xlink:href="#m6f5ed4734a" y="214.386103"/>
     <use style="fill:#ff0000;stroke:#ff0000;" x="340.442975" xlink:href="#m6f5ed4734a" y="214.386103"/>
     <use style="fill:#ff0000;stroke:#ff0000;" x="341.426777" xlink:href="#m6f5ed4734a" y="214.386103"/>
     <use style="fill:#ff0000;stroke:#ff0000;" x="342.410579" xlink:href="#m6f5ed4734a" y="214.386103"/>
     <use style="fill:#ff0000;stroke:#ff0000;" x="343.39438" xlink:href="#m6f5ed4734a" y="214.386103"/>
     <use style="fill:#ff0000;stroke:#ff0000;" x="344.378182" xlink:href="#m6f5ed4734a" y="214.386103"/>
     <use style="fill:#ff0000;stroke:#ff0000;" x="345.361983" xlink:href="#m6f5ed4734a" y="214.386103"/>
     <use style="fill:#ff0000;stroke:#ff0000;" x="346.345785" xlink:href="#m6f5ed4734a" y="214.386103"/>
     <use style="fill:#ff0000;stroke:#ff0000;" x="347.329587" xlink:href="#m6f5ed4734a" y="214.386103"/>
     <use style="fill:#ff0000;stroke:#ff0000;" x="348.313388" xlink:href="#m6f5ed4734a" y="214.386103"/>
     <use style="fill:#ff0000;stroke:#ff0000;" x="349.29719" xlink:href="#m6f5ed4734a" y="214.386103"/>
     <use style="fill:#ff0000;stroke:#ff0000;" x="350.280992" xlink:href="#m6f5ed4734a" y="214.386103"/>
     <use style="fill:#ff0000;stroke:#ff0000;" x="351.264793" xlink:href="#m6f5ed4734a" y="214.386103"/>
     <use style="fill:#ff0000;stroke:#ff0000;" x="352.248595" xlink:href="#m6f5ed4734a" y="214.386103"/>
     <use style="fill:#ff0000;stroke:#ff0000;" x="353.232397" xlink:href="#m6f5ed4734a" y="214.386103"/>
     <use style="fill:#ff0000;stroke:#ff0000;" x="354.216198" xlink:href="#m6f5ed4734a" y="214.386103"/>
     <use style="fill:#ff0000;stroke:#ff0000;" x="355.2" xlink:href="#m6f5ed4734a" y="214.386103"/>
     <use style="fill:#ff0000;stroke:#ff0000;" x="356.183802" xlink:href="#m6f5ed4734a" y="214.386103"/>
     <use style="fill:#ff0000;stroke:#ff0000;" x="357.167603" xlink:href="#m6f5ed4734a" y="214.386103"/>
     <use style="fill:#ff0000;stroke:#ff0000;" x="358.151405" xlink:href="#m6f5ed4734a" y="214.386103"/>
     <use style="fill:#ff0000;stroke:#ff0000;" x="359.135207" xlink:href="#m6f5ed4734a" y="214.386103"/>
     <use style="fill:#ff0000;stroke:#ff0000;" x="360.119008" xlink:href="#m6f5ed4734a" y="214.386103"/>
     <use style="fill:#ff0000;stroke:#ff0000;" x="361.10281" xlink:href="#m6f5ed4734a" y="214.386103"/>
     <use style="fill:#ff0000;stroke:#ff0000;" x="362.086612" xlink:href="#m6f5ed4734a" y="214.386103"/>
     <use style="fill:#ff0000;stroke:#ff0000;" x="363.070413" xlink:href="#m6f5ed4734a" y="214.386103"/>
     <use style="fill:#ff0000;stroke:#ff0000;" x="364.054215" xlink:href="#m6f5ed4734a" y="214.386103"/>
     <use style="fill:#ff0000;stroke:#ff0000;" x="365.038017" xlink:href="#m6f5ed4734a" y="214.386103"/>
     <use style="fill:#ff0000;stroke:#ff0000;" x="366.021818" xlink:href="#m6f5ed4734a" y="214.386103"/>
     <use style="fill:#ff0000;stroke:#ff0000;" x="367.00562" xlink:href="#m6f5ed4734a" y="214.386103"/>
     <use style="fill:#ff0000;stroke:#ff0000;" x="367.989421" xlink:href="#m6f5ed4734a" y="214.386103"/>
     <use style="fill:#ff0000;stroke:#ff0000;" x="368.973223" xlink:href="#m6f5ed4734a" y="214.386103"/>
     <use style="fill:#ff0000;stroke:#ff0000;" x="369.957025" xlink:href="#m6f5ed4734a" y="214.386103"/>
     <use style="fill:#ff0000;stroke:#ff0000;" x="370.940826" xlink:href="#m6f5ed4734a" y="214.386103"/>
     <use style="fill:#ff0000;stroke:#ff0000;" x="371.924628" xlink:href="#m6f5ed4734a" y="214.386103"/>
     <use style="fill:#ff0000;stroke:#ff0000;" x="372.90843" xlink:href="#m6f5ed4734a" y="214.386103"/>
     <use style="fill:#ff0000;stroke:#ff0000;" x="373.892231" xlink:href="#m6f5ed4734a" y="214.386103"/>
     <use style="fill:#ff0000;stroke:#ff0000;" x="374.876033" xlink:href="#m6f5ed4734a" y="214.386103"/>
     <use style="fill:#ff0000;stroke:#ff0000;" x="375.859835" xlink:href="#m6f5ed4734a" y="214.386103"/>
     <use style="fill:#ff0000;stroke:#ff0000;" x="376.843636" xlink:href="#m6f5ed4734a" y="214.386103"/>
     <use style="fill:#ff0000;stroke:#ff0000;" x="377.827438" xlink:href="#m6f5ed4734a" y="214.386103"/>
     <use style="fill:#ff0000;stroke:#ff0000;" x="378.81124" xlink:href="#m6f5ed4734a" y="214.386103"/>
     <use style="fill:#ff0000;stroke:#ff0000;" x="379.795041" xlink:href="#m6f5ed4734a" y="214.386103"/>
     <use style="fill:#ff0000;stroke:#ff0000;" x="380.778843" xlink:href="#m6f5ed4734a" y="214.386103"/>
     <use style="fill:#ff0000;stroke:#ff0000;" x="381.762645" xlink:href="#m6f5ed4734a" y="214.386103"/>
     <use style="fill:#ff0000;stroke:#ff0000;" x="382.746446" xlink:href="#m6f5ed4734a" y="214.386103"/>
     <use style="fill:#ff0000;stroke:#ff0000;" x="383.730248" xlink:href="#m6f5ed4734a" y="214.386103"/>
     <use style="fill:#ff0000;stroke:#ff0000;" x="384.71405" xlink:href="#m6f5ed4734a" y="214.386103"/>
     <use style="fill:#ff0000;stroke:#ff0000;" x="385.697851" xlink:href="#m6f5ed4734a" y="214.386103"/>
     <use style="fill:#ff0000;stroke:#ff0000;" x="386.681653" xlink:href="#m6f5ed4734a" y="214.386103"/>
     <use style="fill:#ff0000;stroke:#ff0000;" x="387.665455" xlink:href="#m6f5ed4734a" y="214.386103"/>
     <use style="fill:#ff0000;stroke:#ff0000;" x="388.649256" xlink:href="#m6f5ed4734a" y="214.386103"/>
     <use style="fill:#ff0000;stroke:#ff0000;" x="389.633058" xlink:href="#m6f5ed4734a" y="214.386103"/>
     <use style="fill:#ff0000;stroke:#ff0000;" x="390.61686" xlink:href="#m6f5ed4734a" y="214.386103"/>
     <use style="fill:#ff0000;stroke:#ff0000;" x="391.600661" xlink:href="#m6f5ed4734a" y="214.386103"/>
     <use style="fill:#ff0000;stroke:#ff0000;" x="392.584463" xlink:href="#m6f5ed4734a" y="214.386103"/>
     <use style="fill:#ff0000;stroke:#ff0000;" x="393.568264" xlink:href="#m6f5ed4734a" y="214.386103"/>
     <use style="fill:#ff0000;stroke:#ff0000;" x="394.552066" xlink:href="#m6f5ed4734a" y="214.386103"/>
     <use style="fill:#ff0000;stroke:#ff0000;" x="395.535868" xlink:href="#m6f5ed4734a" y="214.386103"/>
     <use style="fill:#ff0000;stroke:#ff0000;" x="396.519669" xlink:href="#m6f5ed4734a" y="214.386103"/>
     <use style="fill:#ff0000;stroke:#ff0000;" x="397.503471" xlink:href="#m6f5ed4734a" y="214.386103"/>
     <use style="fill:#ff0000;stroke:#ff0000;" x="398.487273" xlink:href="#m6f5ed4734a" y="214.386103"/>
    </g>
   </g>
   <g id="patch_3">
    <path d="M 57.6 307.584 
L 57.6 41.472 
" style="fill:none;stroke:#000000;stroke-linecap:square;stroke-linejoin:miter;stroke-width:0.8;"/>
   </g>
   <g id="patch_4">
    <path d="M 414.72 307.584 
L 414.72 41.472 
" style="fill:none;stroke:#000000;stroke-linecap:square;stroke-linejoin:miter;stroke-width:0.8;"/>
   </g>
   <g id="patch_5">
    <path d="M 57.6 307.584 
L 414.72 307.584 
" style="fill:none;stroke:#000000;stroke-linecap:square;stroke-linejoin:miter;stroke-width:0.8;"/>
   </g>
   <g id="patch_6">
    <path d="M 57.6 41.472 
L 414.72 41.472 
" style="fill:none;stroke:#000000;stroke-linecap:square;stroke-linejoin:miter;stroke-width:0.8;"/>
   </g>
  </g>
 </g>
 <defs>
  <clipPath id="p3421dfba29">
   <rect height="266.112" width="357.12" x="57.6" y="41.472"/>
  </clipPath>
 </defs>
</svg>
