<?xml version="1.0" encoding="utf-8" standalone="no"?>
<!DOCTYPE svg PUBLIC "-//W3C//DTD SVG 1.1//EN"
  "http://www.w3.org/Graphics/SVG/1.1/DTD/svg11.dtd">
<!-- Created with matplotlib (https://matplotlib.org/) -->
<svg height="345.6pt" version="1.1" viewBox="0 0 460.8 345.6" width="460.8pt" xmlns="http://www.w3.org/2000/svg" xmlns:xlink="http://www.w3.org/1999/xlink">
 <defs>
  <style type="text/css">
*{stroke-linecap:butt;stroke-linejoin:round;}
  </style>
 </defs>
 <g id="figure_1">
  <g id="patch_1">
   <path d="M 0 345.6 
L 460.8 345.6 
L 460.8 0 
L 0 0 
z
" style="fill:#ffffff;"/>
  </g>
  <g id="axes_1">
   <g id="patch_2">
    <path d="M 57.6 307.584 
L 414.72 307.584 
L 414.72 41.472 
L 57.6 41.472 
z
" style="fill:#ffffff;"/>
   </g>
   <g id="line2d_1">
    <path clip-path="url(#p637b36b245)" d="M 73.832727 290.843159 
L 75.578182 239.32384 
L 77.323636 239.32384 
L 79.069091 187.80452 
L 82.56 187.80452 
L 84.305455 242.443596 
L 86.050909 242.443596 
L 87.796364 190.903913 
L 89.541818 190.903913 
L 91.287273 203.323618 
L 94.778182 203.323618 
L 96.523636 209.275014 
L 98.269091 209.275014 
L 100.014545 155.173655 
L 101.76 155.173655 
L 103.505455 105.76342 
L 105.250909 105.76342 
L 106.996364 59.320806 
L 108.741818 59.320806 
L 110.487273 112.852583 
L 112.232727 112.852583 
L 113.978182 96.925649 
L 115.723636 115.004858 
L 122.705455 115.004858 
L 124.450909 133.52776 
L 126.196364 138.301568 
L 133.178182 138.301568 
L 134.923636 154.627202 
L 136.669091 154.627202 
L 138.414545 172.157455 
L 140.16 172.157455 
L 141.905455 155.791292 
L 145.396364 155.791292 
L 147.141818 138.389998 
L 148.887273 138.389998 
L 150.632727 143.121689 
L 152.378182 143.121689 
L 154.123636 141.404069 
L 157.614545 141.404069 
L 159.36 127.143251 
L 161.105455 127.143251 
L 164.596364 95.496305 
L 168.087273 95.496305 
L 169.832727 77.662354 
L 171.578182 61.562227 
L 173.323636 61.562227 
L 175.069091 67.394176 
L 176.814545 67.394176 
L 178.56 53.568 
L 180.305455 53.568 
L 182.050909 72.234953 
L 183.796364 72.234953 
L 185.541818 57.952119 
L 187.287273 57.952119 
L 189.032727 74.902363 
L 192.523636 74.902363 
L 194.269091 93.561755 
L 197.76 93.561755 
L 199.505455 99.111478 
L 201.250909 83.385532 
L 202.996364 83.385532 
L 204.741818 102.126958 
L 206.487273 102.126958 
L 208.232727 85.597343 
L 209.978182 85.597343 
L 213.469091 124.559414 
L 220.450909 124.559414 
L 222.196364 143.050422 
L 223.941818 143.050422 
L 225.687273 148.396978 
L 227.432727 148.396978 
L 229.178182 154.88322 
L 230.923636 154.88322 
L 232.669091 172.227101 
L 234.414545 172.227101 
L 236.16 157.236612 
L 241.396364 157.236612 
L 244.887273 191.227656 
L 248.378182 191.227656 
L 250.123636 208.536627 
L 251.869091 208.536627 
L 253.614545 190.54923 
L 255.36 190.54923 
L 257.105455 209.869439 
L 260.596364 209.869439 
L 262.341818 195.249143 
L 264.087273 195.249143 
L 265.832727 211.897077 
L 267.578182 211.897077 
L 269.323636 229.12815 
L 285.032727 229.12815 
L 286.778182 247.294472 
L 290.269091 247.294472 
L 292.014545 264.655377 
L 293.76 264.655377 
L 295.505455 267.885938 
L 297.250909 267.885938 
L 298.996364 270.506621 
L 300.741818 272.793891 
L 302.487273 272.793891 
L 304.232727 288.6976 
L 305.978182 288.6976 
L 307.723636 270.197904 
L 309.469091 270.197904 
L 311.214545 287.190545 
L 312.96 287.190545 
L 314.705455 270.061673 
L 316.450909 270.061673 
L 318.196364 251.873256 
L 319.941818 251.873256 
L 321.687273 235.564923 
L 323.432727 217.367758 
L 325.178182 217.367758 
L 326.923636 222.670697 
L 328.669091 222.670697 
L 330.414545 224.193341 
L 332.16 224.193341 
L 333.905455 240.318141 
L 335.650909 240.318141 
L 337.396364 259.649813 
L 339.141818 259.649813 
L 340.887273 259.261845 
L 342.632727 259.261845 
L 344.378182 276.541138 
L 346.123636 276.541138 
L 347.869091 260.207207 
L 349.614545 260.207207 
L 351.36 276.609364 
L 356.596364 276.609364 
L 358.341818 295.488 
L 360.087273 295.488 
L 361.832727 279.72321 
L 363.578182 279.72321 
L 365.323636 262.344112 
L 367.069091 262.344112 
L 368.814545 245.043863 
L 370.56 245.043863 
L 372.305455 228.767325 
L 374.050909 233.331935 
L 377.541818 233.331935 
L 379.287273 216.012334 
L 381.032727 216.012334 
L 382.778182 216.959045 
L 386.269091 216.959045 
L 388.014545 216.766068 
L 389.76 201.255595 
L 391.505455 201.255595 
L 393.250909 197.611963 
L 394.996364 197.611963 
L 396.741818 214.386103 
L 398.487273 214.386103 
L 398.487273 214.386103 
" style="fill:none;stroke:#ff0000;stroke-linecap:square;stroke-width:12;"/>
    <defs>
     <path d="M 0 3 
C 0.795609 3 1.55874 2.683901 2.12132 2.12132 
C 2.683901 1.55874 3 0.795609 3 0 
C 3 -0.795609 2.683901 -1.55874 2.12132 -2.12132 
C 1.55874 -2.683901 0.795609 -3 0 -3 
C -0.795609 -3 -1.55874 -2.683901 -2.12132 -2.12132 
C -2.683901 -1.55874 -3 -0.795609 -3 0 
C -3 0.795609 -2.683901 1.55874 -2.12132 2.12132 
C -1.55874 2.683901 -0.795609 3 0 3 
z
" id="m3269ab37fa" style="stroke:#ff0000;"/>
    </defs>
    <g clip-path="url(#p637b36b245)">
     <use style="fill:#ff0000;stroke:#ff0000;" x="73.832727" xlink:href="#m3269ab37fa" y="290.843159"/>
     <use style="fill:#ff0000;stroke:#ff0000;" x="75.578182" xlink:href="#m3269ab37fa" y="239.32384"/>
     <use style="fill:#ff0000;stroke:#ff0000;" x="77.323636" xlink:href="#m3269ab37fa" y="239.32384"/>
     <use style="fill:#ff0000;stroke:#ff0000;" x="79.069091" xlink:href="#m3269ab37fa" y="187.80452"/>
     <use style="fill:#ff0000;stroke:#ff0000;" x="80.814545" xlink:href="#m3269ab37fa" y="187.80452"/>
     <use style="fill:#ff0000;stroke:#ff0000;" x="82.56" xlink:href="#m3269ab37fa" y="187.80452"/>
     <use style="fill:#ff0000;stroke:#ff0000;" x="84.305455" xlink:href="#m3269ab37fa" y="242.443596"/>
     <use style="fill:#ff0000;stroke:#ff0000;" x="86.050909" xlink:href="#m3269ab37fa" y="242.443596"/>
     <use style="fill:#ff0000;stroke:#ff0000;" x="87.796364" xlink:href="#m3269ab37fa" y="190.903913"/>
     <use style="fill:#ff0000;stroke:#ff0000;" x="89.541818" xlink:href="#m3269ab37fa" y="190.903913"/>
     <use style="fill:#ff0000;stroke:#ff0000;" x="91.287273" xlink:href="#m3269ab37fa" y="203.323618"/>
     <use style="fill:#ff0000;stroke:#ff0000;" x="93.032727" xlink:href="#m3269ab37fa" y="203.323618"/>
     <use style="fill:#ff0000;stroke:#ff0000;" x="94.778182" xlink:href="#m3269ab37fa" y="203.323618"/>
     <use style="fill:#ff0000;stroke:#ff0000;" x="96.523636" xlink:href="#m3269ab37fa" y="209.275014"/>
     <use style="fill:#ff0000;stroke:#ff0000;" x="98.269091" xlink:href="#m3269ab37fa" y="209.275014"/>
     <use style="fill:#ff0000;stroke:#ff0000;" x="100.014545" xlink:href="#m3269ab37fa" y="155.173655"/>
     <use style="fill:#ff0000;stroke:#ff0000;" x="101.76" xlink:href="#m3269ab37fa" y="155.173655"/>
     <use style="fill:#ff0000;stroke:#ff0000;" x="103.505455" xlink:href="#m3269ab37fa" y="105.76342"/>
     <use style="fill:#ff0000;stroke:#ff0000;" x="105.250909" xlink:href="#m3269ab37fa" y="105.76342"/>
     <use style="fill:#ff0000;stroke:#ff0000;" x="106.996364" xlink:href="#m3269ab37fa" y="59.320806"/>
     <use style="fill:#ff0000;stroke:#ff0000;" x="108.741818" xlink:href="#m3269ab37fa" y="59.320806"/>
     <use style="fill:#ff0000;stroke:#ff0000;" x="110.487273" xlink:href="#m3269ab37fa" y="112.852583"/>
     <use style="fill:#ff0000;stroke:#ff0000;" x="112.232727" xlink:href="#m3269ab37fa" y="112.852583"/>
     <use style="fill:#ff0000;stroke:#ff0000;" x="113.978182" xlink:href="#m3269ab37fa" y="96.925649"/>
     <use style="fill:#ff0000;stroke:#ff0000;" x="115.723636" xlink:href="#m3269ab37fa" y="115.004858"/>
     <use style="fill:#ff0000;stroke:#ff0000;" x="117.469091" xlink:href="#m3269ab37fa" y="115.004858"/>
     <use style="fill:#ff0000;stroke:#ff0000;" x="119.214545" xlink:href="#m3269ab37fa" y="115.004858"/>
     <use style="fill:#ff0000;stroke:#ff0000;" x="120.96" xlink:href="#m3269ab37fa" y="115.004858"/>
     <use style="fill:#ff0000;stroke:#ff0000;" x="122.705455" xlink:href="#m3269ab37fa" y="115.004858"/>
     <use style="fill:#ff0000;stroke:#ff0000;" x="124.450909" xlink:href="#m3269ab37fa" y="133.52776"/>
     <use style="fill:#ff0000;stroke:#ff0000;" x="126.196364" xlink:href="#m3269ab37fa" y="138.301568"/>
     <use style="fill:#ff0000;stroke:#ff0000;" x="127.941818" xlink:href="#m3269ab37fa" y="138.301568"/>
     <use style="fill:#ff0000;stroke:#ff0000;" x="129.687273" xlink:href="#m3269ab37fa" y="138.301568"/>
     <use style="fill:#ff0000;stroke:#ff0000;" x="131.432727" xlink:href="#m3269ab37fa" y="138.301568"/>
     <use style="fill:#ff0000;stroke:#ff0000;" x="133.178182" xlink:href="#m3269ab37fa" y="138.301568"/>
     <use style="fill:#ff0000;stroke:#ff0000;" x="134.923636" xlink:href="#m3269ab37fa" y="154.627202"/>
     <use style="fill:#ff0000;stroke:#ff0000;" x="136.669091" xlink:href="#m3269ab37fa" y="154.627202"/>
     <use style="fill:#ff0000;stroke:#ff0000;" x="138.414545" xlink:href="#m3269ab37fa" y="172.157455"/>
     <use style="fill:#ff0000;stroke:#ff0000;" x="140.16" xlink:href="#m3269ab37fa" y="172.157455"/>
     <use style="fill:#ff0000;stroke:#ff0000;" x="141.905455" xlink:href="#m3269ab37fa" y="155.791292"/>
     <use style="fill:#ff0000;stroke:#ff0000;" x="143.650909" xlink:href="#m3269ab37fa" y="155.791292"/>
     <use style="fill:#ff0000;stroke:#ff0000;" x="145.396364" xlink:href="#m3269ab37fa" y="155.791292"/>
     <use style="fill:#ff0000;stroke:#ff0000;" x="147.141818" xlink:href="#m3269ab37fa" y="138.389998"/>
     <use style="fill:#ff0000;stroke:#ff0000;" x="148.887273" xlink:href="#m3269ab37fa" y="138.389998"/>
     <use style="fill:#ff0000;stroke:#ff0000;" x="150.632727" xlink:href="#m3269ab37fa" y="143.121689"/>
     <use style="fill:#ff0000;stroke:#ff0000;" x="152.378182" xlink:href="#m3269ab37fa" y="143.121689"/>
     <use style="fill:#ff0000;stroke:#ff0000;" x="154.123636" xlink:href="#m3269ab37fa" y="141.404069"/>
     <use style="fill:#ff0000;stroke:#ff0000;" x="155.869091" xlink:href="#m3269ab37fa" y="141.404069"/>
     <use style="fill:#ff0000;stroke:#ff0000;" x="157.614545" xlink:href="#m3269ab37fa" y="141.404069"/>
     <use style="fill:#ff0000;stroke:#ff0000;" x="159.36" xlink:href="#m3269ab37fa" y="127.143251"/>
     <use style="fill:#ff0000;stroke:#ff0000;" x="161.105455" xlink:href="#m3269ab37fa" y="127.143251"/>
     <use style="fill:#ff0000;stroke:#ff0000;" x="162.850909" xlink:href="#m3269ab37fa" y="111.432923"/>
     <use style="fill:#ff0000;stroke:#ff0000;" x="164.596364" xlink:href="#m3269ab37fa" y="95.496305"/>
     <use style="fill:#ff0000;stroke:#ff0000;" x="166.341818" xlink:href="#m3269ab37fa" y="95.496305"/>
     <use style="fill:#ff0000;stroke:#ff0000;" x="168.087273" xlink:href="#m3269ab37fa" y="95.496305"/>
     <use style="fill:#ff0000;stroke:#ff0000;" x="169.832727" xlink:href="#m3269ab37fa" y="77.662354"/>
     <use style="fill:#ff0000;stroke:#ff0000;" x="171.578182" xlink:href="#m3269ab37fa" y="61.562227"/>
     <use style="fill:#ff0000;stroke:#ff0000;" x="173.323636" xlink:href="#m3269ab37fa" y="61.562227"/>
     <use style="fill:#ff0000;stroke:#ff0000;" x="175.069091" xlink:href="#m3269ab37fa" y="67.394176"/>
     <use style="fill:#ff0000;stroke:#ff0000;" x="176.814545" xlink:href="#m3269ab37fa" y="67.394176"/>
     <use style="fill:#ff0000;stroke:#ff0000;" x="178.56" xlink:href="#m3269ab37fa" y="53.568"/>
     <use style="fill:#ff0000;stroke:#ff0000;" x="180.305455" xlink:href="#m3269ab37fa" y="53.568"/>
     <use style="fill:#ff0000;stroke:#ff0000;" x="182.050909" xlink:href="#m3269ab37fa" y="72.234953"/>
     <use style="fill:#ff0000;stroke:#ff0000;" x="183.796364" xlink:href="#m3269ab37fa" y="72.234953"/>
     <use style="fill:#ff0000;stroke:#ff0000;" x="185.541818" xlink:href="#m3269ab37fa" y="57.952119"/>
     <use style="fill:#ff0000;stroke:#ff0000;" x="187.287273" xlink:href="#m3269ab37fa" y="57.952119"/>
     <use style="fill:#ff0000;stroke:#ff0000;" x="189.032727" xlink:href="#m3269ab37fa" y="74.902363"/>
     <use style="fill:#ff0000;stroke:#ff0000;" x="190.778182" xlink:href="#m3269ab37fa" y="74.902363"/>
     <use style="fill:#ff0000;stroke:#ff0000;" x="192.523636" xlink:href="#m3269ab37fa" y="74.902363"/>
     <use style="fill:#ff0000;stroke:#ff0000;" x="194.269091" xlink:href="#m3269ab37fa" y="93.561755"/>
     <use style="fill:#ff0000;stroke:#ff0000;" x="196.014545" xlink:href="#m3269ab37fa" y="93.561755"/>
     <use style="fill:#ff0000;stroke:#ff0000;" x="197.76" xlink:href="#m3269ab37fa" y="93.561755"/>
     <use style="fill:#ff0000;stroke:#ff0000;" x="199.505455" xlink:href="#m3269ab37fa" y="99.111478"/>
     <use style="fill:#ff0000;stroke:#ff0000;" x="201.250909" xlink:href="#m3269ab37fa" y="83.385532"/>
     <use style="fill:#ff0000;stroke:#ff0000;" x="202.996364" xlink:href="#m3269ab37fa" y="83.385532"/>
     <use style="fill:#ff0000;stroke:#ff0000;" x="204.741818" xlink:href="#m3269ab37fa" y="102.126958"/>
     <use style="fill:#ff0000;stroke:#ff0000;" x="206.487273" xlink:href="#m3269ab37fa" y="102.126958"/>
     <use style="fill:#ff0000;stroke:#ff0000;" x="208.232727" xlink:href="#m3269ab37fa" y="85.597343"/>
     <use style="fill:#ff0000;stroke:#ff0000;" x="209.978182" xlink:href="#m3269ab37fa" y="85.597343"/>
     <use style="fill:#ff0000;stroke:#ff0000;" x="211.723636" xlink:href="#m3269ab37fa" y="105.233878"/>
     <use style="fill:#ff0000;stroke:#ff0000;" x="213.469091" xlink:href="#m3269ab37fa" y="124.559414"/>
     <use style="fill:#ff0000;stroke:#ff0000;" x="215.214545" xlink:href="#m3269ab37fa" y="124.559414"/>
     <use style="fill:#ff0000;stroke:#ff0000;" x="216.96" xlink:href="#m3269ab37fa" y="124.559414"/>
     <use style="fill:#ff0000;stroke:#ff0000;" x="218.705455" xlink:href="#m3269ab37fa" y="124.559414"/>
     <use style="fill:#ff0000;stroke:#ff0000;" x="220.450909" xlink:href="#m3269ab37fa" y="124.559414"/>
     <use style="fill:#ff0000;stroke:#ff0000;" x="222.196364" xlink:href="#m3269ab37fa" y="143.050422"/>
     <use style="fill:#ff0000;stroke:#ff0000;" x="223.941818" xlink:href="#m3269ab37fa" y="143.050422"/>
     <use style="fill:#ff0000;stroke:#ff0000;" x="225.687273" xlink:href="#m3269ab37fa" y="148.396978"/>
     <use style="fill:#ff0000;stroke:#ff0000;" x="227.432727" xlink:href="#m3269ab37fa" y="148.396978"/>
     <use style="fill:#ff0000;stroke:#ff0000;" x="229.178182" xlink:href="#m3269ab37fa" y="154.88322"/>
     <use style="fill:#ff0000;stroke:#ff0000;" x="230.923636" xlink:href="#m3269ab37fa" y="154.88322"/>
     <use style="fill:#ff0000;stroke:#ff0000;" x="232.669091" xlink:href="#m3269ab37fa" y="172.227101"/>
     <use style="fill:#ff0000;stroke:#ff0000;" x="234.414545" xlink:href="#m3269ab37fa" y="172.227101"/>
     <use style="fill:#ff0000;stroke:#ff0000;" x="236.16" xlink:href="#m3269ab37fa" y="157.236612"/>
     <use style="fill:#ff0000;stroke:#ff0000;" x="237.905455" xlink:href="#m3269ab37fa" y="157.236612"/>
     <use style="fill:#ff0000;stroke:#ff0000;" x="239.650909" xlink:href="#m3269ab37fa" y="157.236612"/>
     <use style="fill:#ff0000;stroke:#ff0000;" x="241.396364" xlink:href="#m3269ab37fa" y="157.236612"/>
     <use style="fill:#ff0000;stroke:#ff0000;" x="243.141818" xlink:href="#m3269ab37fa" y="174.239074"/>
     <use style="fill:#ff0000;stroke:#ff0000;" x="244.887273" xlink:href="#m3269ab37fa" y="191.227656"/>
     <use style="fill:#ff0000;stroke:#ff0000;" x="246.632727" xlink:href="#m3269ab37fa" y="191.227656"/>
     <use style="fill:#ff0000;stroke:#ff0000;" x="248.378182" xlink:href="#m3269ab37fa" y="191.227656"/>
     <use style="fill:#ff0000;stroke:#ff0000;" x="250.123636" xlink:href="#m3269ab37fa" y="208.536627"/>
     <use style="fill:#ff0000;stroke:#ff0000;" x="251.869091" xlink:href="#m3269ab37fa" y="208.536627"/>
     <use style="fill:#ff0000;stroke:#ff0000;" x="253.614545" xlink:href="#m3269ab37fa" y="190.54923"/>
     <use style="fill:#ff0000;stroke:#ff0000;" x="255.36" xlink:href="#m3269ab37fa" y="190.54923"/>
     <use style="fill:#ff0000;stroke:#ff0000;" x="257.105455" xlink:href="#m3269ab37fa" y="209.869439"/>
     <use style="fill:#ff0000;stroke:#ff0000;" x="258.850909" xlink:href="#m3269ab37fa" y="209.869439"/>
     <use style="fill:#ff0000;stroke:#ff0000;" x="260.596364" xlink:href="#m3269ab37fa" y="209.869439"/>
     <use style="fill:#ff0000;stroke:#ff0000;" x="262.341818" xlink:href="#m3269ab37fa" y="195.249143"/>
     <use style="fill:#ff0000;stroke:#ff0000;" x="264.087273" xlink:href="#m3269ab37fa" y="195.249143"/>
     <use style="fill:#ff0000;stroke:#ff0000;" x="265.832727" xlink:href="#m3269ab37fa" y="211.897077"/>
     <use style="fill:#ff0000;stroke:#ff0000;" x="267.578182" xlink:href="#m3269ab37fa" y="211.897077"/>
     <use style="fill:#ff0000;stroke:#ff0000;" x="269.323636" xlink:href="#m3269ab37fa" y="229.12815"/>
     <use style="fill:#ff0000;stroke:#ff0000;" x="271.069091" xlink:href="#m3269ab37fa" y="229.12815"/>
     <use style="fill:#ff0000;stroke:#ff0000;" x="272.814545" xlink:href="#m3269ab37fa" y="229.12815"/>
     <use style="fill:#ff0000;stroke:#ff0000;" x="274.56" xlink:href="#m3269ab37fa" y="229.12815"/>
     <use style="fill:#ff0000;stroke:#ff0000;" x="276.305455" xlink:href="#m3269ab37fa" y="229.12815"/>
     <use style="fill:#ff0000;stroke:#ff0000;" x="278.050909" xlink:href="#m3269ab37fa" y="229.12815"/>
     <use style="fill:#ff0000;stroke:#ff0000;" x="279.796364" xlink:href="#m3269ab37fa" y="229.12815"/>
     <use style="fill:#ff0000;stroke:#ff0000;" x="281.541818" xlink:href="#m3269ab37fa" y="229.12815"/>
     <use style="fill:#ff0000;stroke:#ff0000;" x="283.287273" xlink:href="#m3269ab37fa" y="229.12815"/>
     <use style="fill:#ff0000;stroke:#ff0000;" x="285.032727" xlink:href="#m3269ab37fa" y="229.12815"/>
     <use style="fill:#ff0000;stroke:#ff0000;" x="286.778182" xlink:href="#m3269ab37fa" y="247.294472"/>
     <use style="fill:#ff0000;stroke:#ff0000;" x="288.523636" xlink:href="#m3269ab37fa" y="247.294472"/>
     <use style="fill:#ff0000;stroke:#ff0000;" x="290.269091" xlink:href="#m3269ab37fa" y="247.294472"/>
     <use style="fill:#ff0000;stroke:#ff0000;" x="292.014545" xlink:href="#m3269ab37fa" y="264.655377"/>
     <use style="fill:#ff0000;stroke:#ff0000;" x="293.76" xlink:href="#m3269ab37fa" y="264.655377"/>
     <use style="fill:#ff0000;stroke:#ff0000;" x="295.505455" xlink:href="#m3269ab37fa" y="267.885938"/>
     <use style="fill:#ff0000;stroke:#ff0000;" x="297.250909" xlink:href="#m3269ab37fa" y="267.885938"/>
     <use style="fill:#ff0000;stroke:#ff0000;" x="298.996364" xlink:href="#m3269ab37fa" y="270.506621"/>
     <use style="fill:#ff0000;stroke:#ff0000;" x="300.741818" xlink:href="#m3269ab37fa" y="272.793891"/>
     <use style="fill:#ff0000;stroke:#ff0000;" x="302.487273" xlink:href="#m3269ab37fa" y="272.793891"/>
     <use style="fill:#ff0000;stroke:#ff0000;" x="304.232727" xlink:href="#m3269ab37fa" y="288.6976"/>
     <use style="fill:#ff0000;stroke:#ff0000;" x="305.978182" xlink:href="#m3269ab37fa" y="288.6976"/>
     <use style="fill:#ff0000;stroke:#ff0000;" x="307.723636" xlink:href="#m3269ab37fa" y="270.197904"/>
     <use style="fill:#ff0000;stroke:#ff0000;" x="309.469091" xlink:href="#m3269ab37fa" y="270.197904"/>
     <use style="fill:#ff0000;stroke:#ff0000;" x="311.214545" xlink:href="#m3269ab37fa" y="287.190545"/>
     <use style="fill:#ff0000;stroke:#ff0000;" x="312.96" xlink:href="#m3269ab37fa" y="287.190545"/>
     <use style="fill:#ff0000;stroke:#ff0000;" x="314.705455" xlink:href="#m3269ab37fa" y="270.061673"/>
     <use style="fill:#ff0000;stroke:#ff0000;" x="316.450909" xlink:href="#m3269ab37fa" y="270.061673"/>
     <use style="fill:#ff0000;stroke:#ff0000;" x="318.196364" xlink:href="#m3269ab37fa" y="251.873256"/>
     <use style="fill:#ff0000;stroke:#ff0000;" x="319.941818" xlink:href="#m3269ab37fa" y="251.873256"/>
     <use style="fill:#ff0000;stroke:#ff0000;" x="321.687273" xlink:href="#m3269ab37fa" y="235.564923"/>
     <use style="fill:#ff0000;stroke:#ff0000;" x="323.432727" xlink:href="#m3269ab37fa" y="217.367758"/>
     <use style="fill:#ff0000;stroke:#ff0000;" x="325.178182" xlink:href="#m3269ab37fa" y="217.367758"/>
     <use style="fill:#ff0000;stroke:#ff0000;" x="326.923636" xlink:href="#m3269ab37fa" y="222.670697"/>
     <use style="fill:#ff0000;stroke:#ff0000;" x="328.669091" xlink:href="#m3269ab37fa" y="222.670697"/>
     <use style="fill:#ff0000;stroke:#ff0000;" x="330.414545" xlink:href="#m3269ab37fa" y="224.193341"/>
     <use style="fill:#ff0000;stroke:#ff0000;" x="332.16" xlink:href="#m3269ab37fa" y="224.193341"/>
     <use style="fill:#ff0000;stroke:#ff0000;" x="333.905455" xlink:href="#m3269ab37fa" y="240.318141"/>
     <use style="fill:#ff0000;stroke:#ff0000;" x="335.650909" xlink:href="#m3269ab37fa" y="240.318141"/>
     <use style="fill:#ff0000;stroke:#ff0000;" x="337.396364" xlink:href="#m3269ab37fa" y="259.649813"/>
     <use style="fill:#ff0000;stroke:#ff0000;" x="339.141818" xlink:href="#m3269ab37fa" y="259.649813"/>
     <use style="fill:#ff0000;stroke:#ff0000;" x="340.887273" xlink:href="#m3269ab37fa" y="259.261845"/>
     <use style="fill:#ff0000;stroke:#ff0000;" x="342.632727" xlink:href="#m3269ab37fa" y="259.261845"/>
     <use style="fill:#ff0000;stroke:#ff0000;" x="344.378182" xlink:href="#m3269ab37fa" y="276.541138"/>
     <use style="fill:#ff0000;stroke:#ff0000;" x="346.123636" xlink:href="#m3269ab37fa" y="276.541138"/>
     <use style="fill:#ff0000;stroke:#ff0000;" x="347.869091" xlink:href="#m3269ab37fa" y="260.207207"/>
     <use style="fill:#ff0000;stroke:#ff0000;" x="349.614545" xlink:href="#m3269ab37fa" y="260.207207"/>
     <use style="fill:#ff0000;stroke:#ff0000;" x="351.36" xlink:href="#m3269ab37fa" y="276.609364"/>
     <use style="fill:#ff0000;stroke:#ff0000;" x="353.105455" xlink:href="#m3269ab37fa" y="276.609364"/>
     <use style="fill:#ff0000;stroke:#ff0000;" x="354.850909" xlink:href="#m3269ab37fa" y="276.609364"/>
     <use style="fill:#ff0000;stroke:#ff0000;" x="356.596364" xlink:href="#m3269ab37fa" y="276.609364"/>
     <use style="fill:#ff0000;stroke:#ff0000;" x="358.341818" xlink:href="#m3269ab37fa" y="295.488"/>
     <use style="fill:#ff0000;stroke:#ff0000;" x="360.087273" xlink:href="#m3269ab37fa" y="295.488"/>
     <use style="fill:#ff0000;stroke:#ff0000;" x="361.832727" xlink:href="#m3269ab37fa" y="279.72321"/>
     <use style="fill:#ff0000;stroke:#ff0000;" x="363.578182" xlink:href="#m3269ab37fa" y="279.72321"/>
     <use style="fill:#ff0000;stroke:#ff0000;" x="365.323636" xlink:href="#m3269ab37fa" y="262.344112"/>
     <use style="fill:#ff0000;stroke:#ff0000;" x="367.069091" xlink:href="#m3269ab37fa" y="262.344112"/>
     <use style="fill:#ff0000;stroke:#ff0000;" x="368.814545" xlink:href="#m3269ab37fa" y="245.043863"/>
     <use style="fill:#ff0000;stroke:#ff0000;" x="370.56" xlink:href="#m3269ab37fa" y="245.043863"/>
     <use style="fill:#ff0000;stroke:#ff0000;" x="372.305455" xlink:href="#m3269ab37fa" y="228.767325"/>
     <use style="fill:#ff0000;stroke:#ff0000;" x="374.050909" xlink:href="#m3269ab37fa" y="233.331935"/>
     <use style="fill:#ff0000;stroke:#ff0000;" x="375.796364" xlink:href="#m3269ab37fa" y="233.331935"/>
     <use style="fill:#ff0000;stroke:#ff0000;" x="377.541818" xlink:href="#m3269ab37fa" y="233.331935"/>
     <use style="fill:#ff0000;stroke:#ff0000;" x="379.287273" xlink:href="#m3269ab37fa" y="216.012334"/>
     <use style="fill:#ff0000;stroke:#ff0000;" x="381.032727" xlink:href="#m3269ab37fa" y="216.012334"/>
     <use style="fill:#ff0000;stroke:#ff0000;" x="382.778182" xlink:href="#m3269ab37fa" y="216.959045"/>
     <use style="fill:#ff0000;stroke:#ff0000;" x="384.523636" xlink:href="#m3269ab37fa" y="216.959045"/>
     <use style="fill:#ff0000;stroke:#ff0000;" x="386.269091" xlink:href="#m3269ab37fa" y="216.959045"/>
     <use style="fill:#ff0000;stroke:#ff0000;" x="388.014545" xlink:href="#m3269ab37fa" y="216.766068"/>
     <use style="fill:#ff0000;stroke:#ff0000;" x="389.76" xlink:href="#m3269ab37fa" y="201.255595"/>
     <use style="fill:#ff0000;stroke:#ff0000;" x="391.505455" xlink:href="#m3269ab37fa" y="201.255595"/>
     <use style="fill:#ff0000;stroke:#ff0000;" x="393.250909" xlink:href="#m3269ab37fa" y="197.611963"/>
     <use style="fill:#ff0000;stroke:#ff0000;" x="394.996364" xlink:href="#m3269ab37fa" y="197.611963"/>
     <use style="fill:#ff0000;stroke:#ff0000;" x="396.741818" xlink:href="#m3269ab37fa" y="214.386103"/>
     <use style="fill:#ff0000;stroke:#ff0000;" x="398.487273" xlink:href="#m3269ab37fa" y="214.386103"/>
    </g>
   </g>
   <g id="patch_3">
    <path d="M 57.6 307.584 
L 57.6 41.472 
" style="fill:none;stroke:#000000;stroke-linecap:square;stroke-linejoin:miter;stroke-width:0.8;"/>
   </g>
   <g id="patch_4">
    <path d="M 414.72 307.584 
L 414.72 41.472 
" style="fill:none;stroke:#000000;stroke-linecap:square;stroke-linejoin:miter;stroke-width:0.8;"/>
   </g>
   <g id="patch_5">
    <path d="M 57.6 307.584 
L 414.72 307.584 
" style="fill:none;stroke:#000000;stroke-linecap:square;stroke-linejoin:miter;stroke-width:0.8;"/>
   </g>
   <g id="patch_6">
    <path d="M 57.6 41.472 
L 414.72 41.472 
" style="fill:none;stroke:#000000;stroke-linecap:square;stroke-linejoin:miter;stroke-width:0.8;"/>
   </g>
  </g>
 </g>
 <defs>
  <clipPath id="p637b36b245">
   <rect height="266.112" width="357.12" x="57.6" y="41.472"/>
  </clipPath>
 </defs>
</svg>
