<?xml version="1.0" encoding="utf-8" standalone="no"?>
<!DOCTYPE svg PUBLIC "-//W3C//DTD SVG 1.1//EN"
  "http://www.w3.org/Graphics/SVG/1.1/DTD/svg11.dtd">
<!-- Created with matplotlib (https://matplotlib.org/) -->
<svg height="345.6pt" version="1.1" viewBox="0 0 460.8 345.6" width="460.8pt" xmlns="http://www.w3.org/2000/svg" xmlns:xlink="http://www.w3.org/1999/xlink">
 <defs>
  <style type="text/css">
*{stroke-linecap:butt;stroke-linejoin:round;}
  </style>
 </defs>
 <g id="figure_1">
  <g id="patch_1">
   <path d="M 0 345.6 
L 460.8 345.6 
L 460.8 0 
L 0 0 
z
" style="fill:#ffffff;"/>
  </g>
  <g id="axes_1">
   <g id="patch_2">
    <path d="M 57.6 307.584 
L 414.72 307.584 
L 414.72 41.472 
L 57.6 41.472 
z
" style="fill:#ffffff;"/>
   </g>
   <g id="line2d_1">
    <path clip-path="url(#p45ae03c326)" d="M 73.832727 111.538318 
L 75.64644 111.538318 
L 76.553296 161.894341 
L 80.180721 161.894341 
L 81.087577 210.03582 
L 81.994434 210.03582 
L 82.90129 160.480244 
L 84.715003 160.480244 
L 85.621859 148.184406 
L 86.528715 148.184406 
L 87.435571 135.314259 
L 88.342428 135.314259 
L 89.249284 179.99651 
L 91.062996 179.99651 
L 91.969853 187.451601 
L 92.876709 187.451601 
L 93.783565 134.56495 
L 94.690422 134.56495 
L 95.597278 78.649619 
L 96.504134 68.512682 
L 97.41099 68.512682 
L 98.317847 84.879122 
L 99.224703 84.879122 
L 100.131559 68.176197 
L 101.038415 68.176197 
L 101.945272 53.568 
L 102.852128 53.568 
L 104.665841 86.675631 
L 105.572697 86.675631 
L 106.479553 105.225466 
L 108.293266 105.225466 
L 109.200122 121.222084 
L 110.106978 121.222084 
L 111.013834 103.65713 
L 113.734403 103.65713 
L 115.548116 138.135398 
L 116.454972 138.135398 
L 117.361828 134.120283 
L 119.175541 134.120283 
L 120.082397 137.850859 
L 120.989253 137.850859 
L 121.89611 156.476213 
L 122.802966 156.476213 
L 123.709822 152.856749 
L 124.616679 152.856749 
L 125.523535 137.639858 
L 126.430391 137.639858 
L 127.337247 120.957305 
L 128.244104 120.957305 
L 129.15096 137.620468 
L 130.057816 137.620468 
L 130.964672 138.254948 
L 131.871529 138.254948 
L 132.778385 120.54889 
L 133.685241 120.54889 
L 134.592098 102.871215 
L 135.498954 102.871215 
L 136.40581 84.633148 
L 137.312666 84.633148 
L 138.219523 87.072328 
L 139.126379 71.421728 
L 140.033235 71.421728 
L 140.940091 89.11605 
L 141.846948 89.11605 
L 142.753804 106.823276 
L 145.474373 106.823276 
L 146.381229 121.40746 
L 150.008654 121.40746 
L 150.91551 138.706043 
L 151.822367 138.706043 
L 152.729223 154.499722 
L 153.636079 154.499722 
L 154.542936 169.97689 
L 155.449792 169.97689 
L 156.356648 153.652917 
L 158.170361 153.652917 
L 159.077217 172.288881 
L 159.984073 155.626535 
L 160.890929 155.626535 
L 161.797786 170.955534 
L 162.704642 170.955534 
L 163.611498 172.049942 
L 164.518354 172.049942 
L 165.425211 189.251606 
L 166.332067 189.251606 
L 167.238923 171.728385 
L 168.14578 171.728385 
L 169.052636 171.950911 
L 170.866348 171.950911 
L 172.680061 203.176442 
L 173.586917 203.176442 
L 174.493773 221.820609 
L 183.562336 221.820609 
L 184.469192 225.382573 
L 185.376049 227.047257 
L 186.282905 227.047257 
L 187.189761 243.85125 
L 188.096618 243.85125 
L 189.003474 225.662126 
L 189.91033 225.662126 
L 190.817186 240.263621 
L 193.537755 240.263621 
L 194.444611 255.396849 
L 195.351468 255.396849 
L 197.16518 285.278126 
L 198.978893 285.278126 
L 199.885749 284.771445 
L 200.792605 284.771445 
L 201.699462 279.1153 
L 202.606318 279.1153 
L 203.513174 262.425792 
L 204.42003 262.425792 
L 205.326887 260.092357 
L 206.233743 260.092357 
L 207.140599 274.306605 
L 208.047456 258.507316 
L 208.954312 258.507316 
L 209.861168 240.166787 
L 210.768024 240.166787 
L 211.674881 223.051592 
L 213.488593 223.051592 
L 214.395449 206.651234 
L 215.302306 206.651234 
L 216.209162 221.084255 
L 217.116018 221.084255 
L 218.022875 218.334777 
L 218.929731 218.334777 
L 219.836587 235.890575 
L 221.6503 235.890575 
L 222.557156 231.785551 
L 223.464012 247.357957 
L 224.370868 247.357957 
L 225.277725 262.79783 
L 226.184581 262.79783 
L 227.091437 244.653308 
L 227.998294 244.653308 
L 228.90515 249.464693 
L 230.718862 249.464693 
L 231.625719 234.14148 
L 232.532575 234.14148 
L 233.439431 232.910525 
L 234.346287 232.910525 
L 235.253144 250.183624 
L 236.16 250.183624 
L 237.973713 280.849528 
L 238.880569 280.849528 
L 239.787425 295.488 
L 240.694281 295.488 
L 241.601138 275.590129 
L 398.487273 275.590129 
L 398.487273 275.590129 
" style="fill:none;stroke:#ff0000;stroke-linecap:square;stroke-width:12;"/>
    <defs>
     <path d="M 0 3 
C 0.795609 3 1.55874 2.683901 2.12132 2.12132 
C 2.683901 1.55874 3 0.795609 3 0 
C 3 -0.795609 2.683901 -1.55874 2.12132 -2.12132 
C 1.55874 -2.683901 0.795609 -3 0 -3 
C -0.795609 -3 -1.55874 -2.683901 -2.12132 -2.12132 
C -2.683901 -1.55874 -3 -0.795609 -3 0 
C -3 0.795609 -2.683901 1.55874 -2.12132 2.12132 
C -1.55874 2.683901 -0.795609 3 0 3 
z
" id="mff64800a10" style="stroke:#ff0000;"/>
    </defs>
    <g clip-path="url(#p45ae03c326)">
     <use style="fill:#ff0000;stroke:#ff0000;" x="73.832727" xlink:href="#mff64800a10" y="111.538318"/>
     <use style="fill:#ff0000;stroke:#ff0000;" x="74.739584" xlink:href="#mff64800a10" y="111.538318"/>
     <use style="fill:#ff0000;stroke:#ff0000;" x="75.64644" xlink:href="#mff64800a10" y="111.538318"/>
     <use style="fill:#ff0000;stroke:#ff0000;" x="76.553296" xlink:href="#mff64800a10" y="161.894341"/>
     <use style="fill:#ff0000;stroke:#ff0000;" x="77.460152" xlink:href="#mff64800a10" y="161.894341"/>
     <use style="fill:#ff0000;stroke:#ff0000;" x="78.367009" xlink:href="#mff64800a10" y="161.894341"/>
     <use style="fill:#ff0000;stroke:#ff0000;" x="79.273865" xlink:href="#mff64800a10" y="161.894341"/>
     <use style="fill:#ff0000;stroke:#ff0000;" x="80.180721" xlink:href="#mff64800a10" y="161.894341"/>
     <use style="fill:#ff0000;stroke:#ff0000;" x="81.087577" xlink:href="#mff64800a10" y="210.03582"/>
     <use style="fill:#ff0000;stroke:#ff0000;" x="81.994434" xlink:href="#mff64800a10" y="210.03582"/>
     <use style="fill:#ff0000;stroke:#ff0000;" x="82.90129" xlink:href="#mff64800a10" y="160.480244"/>
     <use style="fill:#ff0000;stroke:#ff0000;" x="83.808146" xlink:href="#mff64800a10" y="160.480244"/>
     <use style="fill:#ff0000;stroke:#ff0000;" x="84.715003" xlink:href="#mff64800a10" y="160.480244"/>
     <use style="fill:#ff0000;stroke:#ff0000;" x="85.621859" xlink:href="#mff64800a10" y="148.184406"/>
     <use style="fill:#ff0000;stroke:#ff0000;" x="86.528715" xlink:href="#mff64800a10" y="148.184406"/>
     <use style="fill:#ff0000;stroke:#ff0000;" x="87.435571" xlink:href="#mff64800a10" y="135.314259"/>
     <use style="fill:#ff0000;stroke:#ff0000;" x="88.342428" xlink:href="#mff64800a10" y="135.314259"/>
     <use style="fill:#ff0000;stroke:#ff0000;" x="89.249284" xlink:href="#mff64800a10" y="179.99651"/>
     <use style="fill:#ff0000;stroke:#ff0000;" x="90.15614" xlink:href="#mff64800a10" y="179.99651"/>
     <use style="fill:#ff0000;stroke:#ff0000;" x="91.062996" xlink:href="#mff64800a10" y="179.99651"/>
     <use style="fill:#ff0000;stroke:#ff0000;" x="91.969853" xlink:href="#mff64800a10" y="187.451601"/>
     <use style="fill:#ff0000;stroke:#ff0000;" x="92.876709" xlink:href="#mff64800a10" y="187.451601"/>
     <use style="fill:#ff0000;stroke:#ff0000;" x="93.783565" xlink:href="#mff64800a10" y="134.56495"/>
     <use style="fill:#ff0000;stroke:#ff0000;" x="94.690422" xlink:href="#mff64800a10" y="134.56495"/>
     <use style="fill:#ff0000;stroke:#ff0000;" x="95.597278" xlink:href="#mff64800a10" y="78.649619"/>
     <use style="fill:#ff0000;stroke:#ff0000;" x="96.504134" xlink:href="#mff64800a10" y="68.512682"/>
     <use style="fill:#ff0000;stroke:#ff0000;" x="97.41099" xlink:href="#mff64800a10" y="68.512682"/>
     <use style="fill:#ff0000;stroke:#ff0000;" x="98.317847" xlink:href="#mff64800a10" y="84.879122"/>
     <use style="fill:#ff0000;stroke:#ff0000;" x="99.224703" xlink:href="#mff64800a10" y="84.879122"/>
     <use style="fill:#ff0000;stroke:#ff0000;" x="100.131559" xlink:href="#mff64800a10" y="68.176197"/>
     <use style="fill:#ff0000;stroke:#ff0000;" x="101.038415" xlink:href="#mff64800a10" y="68.176197"/>
     <use style="fill:#ff0000;stroke:#ff0000;" x="101.945272" xlink:href="#mff64800a10" y="53.568"/>
     <use style="fill:#ff0000;stroke:#ff0000;" x="102.852128" xlink:href="#mff64800a10" y="53.568"/>
     <use style="fill:#ff0000;stroke:#ff0000;" x="103.758984" xlink:href="#mff64800a10" y="70.992426"/>
     <use style="fill:#ff0000;stroke:#ff0000;" x="104.665841" xlink:href="#mff64800a10" y="86.675631"/>
     <use style="fill:#ff0000;stroke:#ff0000;" x="105.572697" xlink:href="#mff64800a10" y="86.675631"/>
     <use style="fill:#ff0000;stroke:#ff0000;" x="106.479553" xlink:href="#mff64800a10" y="105.225466"/>
     <use style="fill:#ff0000;stroke:#ff0000;" x="107.386409" xlink:href="#mff64800a10" y="105.225466"/>
     <use style="fill:#ff0000;stroke:#ff0000;" x="108.293266" xlink:href="#mff64800a10" y="105.225466"/>
     <use style="fill:#ff0000;stroke:#ff0000;" x="109.200122" xlink:href="#mff64800a10" y="121.222084"/>
     <use style="fill:#ff0000;stroke:#ff0000;" x="110.106978" xlink:href="#mff64800a10" y="121.222084"/>
     <use style="fill:#ff0000;stroke:#ff0000;" x="111.013834" xlink:href="#mff64800a10" y="103.65713"/>
     <use style="fill:#ff0000;stroke:#ff0000;" x="111.920691" xlink:href="#mff64800a10" y="103.65713"/>
     <use style="fill:#ff0000;stroke:#ff0000;" x="112.827547" xlink:href="#mff64800a10" y="103.65713"/>
     <use style="fill:#ff0000;stroke:#ff0000;" x="113.734403" xlink:href="#mff64800a10" y="103.65713"/>
     <use style="fill:#ff0000;stroke:#ff0000;" x="114.64126" xlink:href="#mff64800a10" y="120.588247"/>
     <use style="fill:#ff0000;stroke:#ff0000;" x="115.548116" xlink:href="#mff64800a10" y="138.135398"/>
     <use style="fill:#ff0000;stroke:#ff0000;" x="116.454972" xlink:href="#mff64800a10" y="138.135398"/>
     <use style="fill:#ff0000;stroke:#ff0000;" x="117.361828" xlink:href="#mff64800a10" y="134.120283"/>
     <use style="fill:#ff0000;stroke:#ff0000;" x="118.268685" xlink:href="#mff64800a10" y="134.120283"/>
     <use style="fill:#ff0000;stroke:#ff0000;" x="119.175541" xlink:href="#mff64800a10" y="134.120283"/>
     <use style="fill:#ff0000;stroke:#ff0000;" x="120.082397" xlink:href="#mff64800a10" y="137.850859"/>
     <use style="fill:#ff0000;stroke:#ff0000;" x="120.989253" xlink:href="#mff64800a10" y="137.850859"/>
     <use style="fill:#ff0000;stroke:#ff0000;" x="121.89611" xlink:href="#mff64800a10" y="156.476213"/>
     <use style="fill:#ff0000;stroke:#ff0000;" x="122.802966" xlink:href="#mff64800a10" y="156.476213"/>
     <use style="fill:#ff0000;stroke:#ff0000;" x="123.709822" xlink:href="#mff64800a10" y="152.856749"/>
     <use style="fill:#ff0000;stroke:#ff0000;" x="124.616679" xlink:href="#mff64800a10" y="152.856749"/>
     <use style="fill:#ff0000;stroke:#ff0000;" x="125.523535" xlink:href="#mff64800a10" y="137.639858"/>
     <use style="fill:#ff0000;stroke:#ff0000;" x="126.430391" xlink:href="#mff64800a10" y="137.639858"/>
     <use style="fill:#ff0000;stroke:#ff0000;" x="127.337247" xlink:href="#mff64800a10" y="120.957305"/>
     <use style="fill:#ff0000;stroke:#ff0000;" x="128.244104" xlink:href="#mff64800a10" y="120.957305"/>
     <use style="fill:#ff0000;stroke:#ff0000;" x="129.15096" xlink:href="#mff64800a10" y="137.620468"/>
     <use style="fill:#ff0000;stroke:#ff0000;" x="130.057816" xlink:href="#mff64800a10" y="137.620468"/>
     <use style="fill:#ff0000;stroke:#ff0000;" x="130.964672" xlink:href="#mff64800a10" y="138.254948"/>
     <use style="fill:#ff0000;stroke:#ff0000;" x="131.871529" xlink:href="#mff64800a10" y="138.254948"/>
     <use style="fill:#ff0000;stroke:#ff0000;" x="132.778385" xlink:href="#mff64800a10" y="120.54889"/>
     <use style="fill:#ff0000;stroke:#ff0000;" x="133.685241" xlink:href="#mff64800a10" y="120.54889"/>
     <use style="fill:#ff0000;stroke:#ff0000;" x="134.592098" xlink:href="#mff64800a10" y="102.871215"/>
     <use style="fill:#ff0000;stroke:#ff0000;" x="135.498954" xlink:href="#mff64800a10" y="102.871215"/>
     <use style="fill:#ff0000;stroke:#ff0000;" x="136.40581" xlink:href="#mff64800a10" y="84.633148"/>
     <use style="fill:#ff0000;stroke:#ff0000;" x="137.312666" xlink:href="#mff64800a10" y="84.633148"/>
     <use style="fill:#ff0000;stroke:#ff0000;" x="138.219523" xlink:href="#mff64800a10" y="87.072328"/>
     <use style="fill:#ff0000;stroke:#ff0000;" x="139.126379" xlink:href="#mff64800a10" y="71.421728"/>
     <use style="fill:#ff0000;stroke:#ff0000;" x="140.033235" xlink:href="#mff64800a10" y="71.421728"/>
     <use style="fill:#ff0000;stroke:#ff0000;" x="140.940091" xlink:href="#mff64800a10" y="89.11605"/>
     <use style="fill:#ff0000;stroke:#ff0000;" x="141.846948" xlink:href="#mff64800a10" y="89.11605"/>
     <use style="fill:#ff0000;stroke:#ff0000;" x="142.753804" xlink:href="#mff64800a10" y="106.823276"/>
     <use style="fill:#ff0000;stroke:#ff0000;" x="143.66066" xlink:href="#mff64800a10" y="106.823276"/>
     <use style="fill:#ff0000;stroke:#ff0000;" x="144.567517" xlink:href="#mff64800a10" y="106.823276"/>
     <use style="fill:#ff0000;stroke:#ff0000;" x="145.474373" xlink:href="#mff64800a10" y="106.823276"/>
     <use style="fill:#ff0000;stroke:#ff0000;" x="146.381229" xlink:href="#mff64800a10" y="121.40746"/>
     <use style="fill:#ff0000;stroke:#ff0000;" x="147.288085" xlink:href="#mff64800a10" y="121.40746"/>
     <use style="fill:#ff0000;stroke:#ff0000;" x="148.194942" xlink:href="#mff64800a10" y="121.40746"/>
     <use style="fill:#ff0000;stroke:#ff0000;" x="149.101798" xlink:href="#mff64800a10" y="121.40746"/>
     <use style="fill:#ff0000;stroke:#ff0000;" x="150.008654" xlink:href="#mff64800a10" y="121.40746"/>
     <use style="fill:#ff0000;stroke:#ff0000;" x="150.91551" xlink:href="#mff64800a10" y="138.706043"/>
     <use style="fill:#ff0000;stroke:#ff0000;" x="151.822367" xlink:href="#mff64800a10" y="138.706043"/>
     <use style="fill:#ff0000;stroke:#ff0000;" x="152.729223" xlink:href="#mff64800a10" y="154.499722"/>
     <use style="fill:#ff0000;stroke:#ff0000;" x="153.636079" xlink:href="#mff64800a10" y="154.499722"/>
     <use style="fill:#ff0000;stroke:#ff0000;" x="154.542936" xlink:href="#mff64800a10" y="169.97689"/>
     <use style="fill:#ff0000;stroke:#ff0000;" x="155.449792" xlink:href="#mff64800a10" y="169.97689"/>
     <use style="fill:#ff0000;stroke:#ff0000;" x="156.356648" xlink:href="#mff64800a10" y="153.652917"/>
     <use style="fill:#ff0000;stroke:#ff0000;" x="157.263504" xlink:href="#mff64800a10" y="153.652917"/>
     <use style="fill:#ff0000;stroke:#ff0000;" x="158.170361" xlink:href="#mff64800a10" y="153.652917"/>
     <use style="fill:#ff0000;stroke:#ff0000;" x="159.077217" xlink:href="#mff64800a10" y="172.288881"/>
     <use style="fill:#ff0000;stroke:#ff0000;" x="159.984073" xlink:href="#mff64800a10" y="155.626535"/>
     <use style="fill:#ff0000;stroke:#ff0000;" x="160.890929" xlink:href="#mff64800a10" y="155.626535"/>
     <use style="fill:#ff0000;stroke:#ff0000;" x="161.797786" xlink:href="#mff64800a10" y="170.955534"/>
     <use style="fill:#ff0000;stroke:#ff0000;" x="162.704642" xlink:href="#mff64800a10" y="170.955534"/>
     <use style="fill:#ff0000;stroke:#ff0000;" x="163.611498" xlink:href="#mff64800a10" y="172.049942"/>
     <use style="fill:#ff0000;stroke:#ff0000;" x="164.518354" xlink:href="#mff64800a10" y="172.049942"/>
     <use style="fill:#ff0000;stroke:#ff0000;" x="165.425211" xlink:href="#mff64800a10" y="189.251606"/>
     <use style="fill:#ff0000;stroke:#ff0000;" x="166.332067" xlink:href="#mff64800a10" y="189.251606"/>
     <use style="fill:#ff0000;stroke:#ff0000;" x="167.238923" xlink:href="#mff64800a10" y="171.728385"/>
     <use style="fill:#ff0000;stroke:#ff0000;" x="168.14578" xlink:href="#mff64800a10" y="171.728385"/>
     <use style="fill:#ff0000;stroke:#ff0000;" x="169.052636" xlink:href="#mff64800a10" y="171.950911"/>
     <use style="fill:#ff0000;stroke:#ff0000;" x="169.959492" xlink:href="#mff64800a10" y="171.950911"/>
     <use style="fill:#ff0000;stroke:#ff0000;" x="170.866348" xlink:href="#mff64800a10" y="171.950911"/>
     <use style="fill:#ff0000;stroke:#ff0000;" x="171.773205" xlink:href="#mff64800a10" y="186.918172"/>
     <use style="fill:#ff0000;stroke:#ff0000;" x="172.680061" xlink:href="#mff64800a10" y="203.176442"/>
     <use style="fill:#ff0000;stroke:#ff0000;" x="173.586917" xlink:href="#mff64800a10" y="203.176442"/>
     <use style="fill:#ff0000;stroke:#ff0000;" x="174.493773" xlink:href="#mff64800a10" y="221.820609"/>
     <use style="fill:#ff0000;stroke:#ff0000;" x="175.40063" xlink:href="#mff64800a10" y="221.820609"/>
     <use style="fill:#ff0000;stroke:#ff0000;" x="176.307486" xlink:href="#mff64800a10" y="221.820609"/>
     <use style="fill:#ff0000;stroke:#ff0000;" x="177.214342" xlink:href="#mff64800a10" y="221.820609"/>
     <use style="fill:#ff0000;stroke:#ff0000;" x="178.121199" xlink:href="#mff64800a10" y="221.820609"/>
     <use style="fill:#ff0000;stroke:#ff0000;" x="179.028055" xlink:href="#mff64800a10" y="221.820609"/>
     <use style="fill:#ff0000;stroke:#ff0000;" x="179.934911" xlink:href="#mff64800a10" y="221.820609"/>
     <use style="fill:#ff0000;stroke:#ff0000;" x="180.841767" xlink:href="#mff64800a10" y="221.820609"/>
     <use style="fill:#ff0000;stroke:#ff0000;" x="181.748624" xlink:href="#mff64800a10" y="221.820609"/>
     <use style="fill:#ff0000;stroke:#ff0000;" x="182.65548" xlink:href="#mff64800a10" y="221.820609"/>
     <use style="fill:#ff0000;stroke:#ff0000;" x="183.562336" xlink:href="#mff64800a10" y="221.820609"/>
     <use style="fill:#ff0000;stroke:#ff0000;" x="184.469192" xlink:href="#mff64800a10" y="225.382573"/>
     <use style="fill:#ff0000;stroke:#ff0000;" x="185.376049" xlink:href="#mff64800a10" y="227.047257"/>
     <use style="fill:#ff0000;stroke:#ff0000;" x="186.282905" xlink:href="#mff64800a10" y="227.047257"/>
     <use style="fill:#ff0000;stroke:#ff0000;" x="187.189761" xlink:href="#mff64800a10" y="243.85125"/>
     <use style="fill:#ff0000;stroke:#ff0000;" x="188.096618" xlink:href="#mff64800a10" y="243.85125"/>
     <use style="fill:#ff0000;stroke:#ff0000;" x="189.003474" xlink:href="#mff64800a10" y="225.662126"/>
     <use style="fill:#ff0000;stroke:#ff0000;" x="189.91033" xlink:href="#mff64800a10" y="225.662126"/>
     <use style="fill:#ff0000;stroke:#ff0000;" x="190.817186" xlink:href="#mff64800a10" y="240.263621"/>
     <use style="fill:#ff0000;stroke:#ff0000;" x="191.724043" xlink:href="#mff64800a10" y="240.263621"/>
     <use style="fill:#ff0000;stroke:#ff0000;" x="192.630899" xlink:href="#mff64800a10" y="240.263621"/>
     <use style="fill:#ff0000;stroke:#ff0000;" x="193.537755" xlink:href="#mff64800a10" y="240.263621"/>
     <use style="fill:#ff0000;stroke:#ff0000;" x="194.444611" xlink:href="#mff64800a10" y="255.396849"/>
     <use style="fill:#ff0000;stroke:#ff0000;" x="195.351468" xlink:href="#mff64800a10" y="255.396849"/>
     <use style="fill:#ff0000;stroke:#ff0000;" x="196.258324" xlink:href="#mff64800a10" y="270.706242"/>
     <use style="fill:#ff0000;stroke:#ff0000;" x="197.16518" xlink:href="#mff64800a10" y="285.278126"/>
     <use style="fill:#ff0000;stroke:#ff0000;" x="198.072037" xlink:href="#mff64800a10" y="285.278126"/>
     <use style="fill:#ff0000;stroke:#ff0000;" x="198.978893" xlink:href="#mff64800a10" y="285.278126"/>
     <use style="fill:#ff0000;stroke:#ff0000;" x="199.885749" xlink:href="#mff64800a10" y="284.771445"/>
     <use style="fill:#ff0000;stroke:#ff0000;" x="200.792605" xlink:href="#mff64800a10" y="284.771445"/>
     <use style="fill:#ff0000;stroke:#ff0000;" x="201.699462" xlink:href="#mff64800a10" y="279.1153"/>
     <use style="fill:#ff0000;stroke:#ff0000;" x="202.606318" xlink:href="#mff64800a10" y="279.1153"/>
     <use style="fill:#ff0000;stroke:#ff0000;" x="203.513174" xlink:href="#mff64800a10" y="262.425792"/>
     <use style="fill:#ff0000;stroke:#ff0000;" x="204.42003" xlink:href="#mff64800a10" y="262.425792"/>
     <use style="fill:#ff0000;stroke:#ff0000;" x="205.326887" xlink:href="#mff64800a10" y="260.092357"/>
     <use style="fill:#ff0000;stroke:#ff0000;" x="206.233743" xlink:href="#mff64800a10" y="260.092357"/>
     <use style="fill:#ff0000;stroke:#ff0000;" x="207.140599" xlink:href="#mff64800a10" y="274.306605"/>
     <use style="fill:#ff0000;stroke:#ff0000;" x="208.047456" xlink:href="#mff64800a10" y="258.507316"/>
     <use style="fill:#ff0000;stroke:#ff0000;" x="208.954312" xlink:href="#mff64800a10" y="258.507316"/>
     <use style="fill:#ff0000;stroke:#ff0000;" x="209.861168" xlink:href="#mff64800a10" y="240.166787"/>
     <use style="fill:#ff0000;stroke:#ff0000;" x="210.768024" xlink:href="#mff64800a10" y="240.166787"/>
     <use style="fill:#ff0000;stroke:#ff0000;" x="211.674881" xlink:href="#mff64800a10" y="223.051592"/>
     <use style="fill:#ff0000;stroke:#ff0000;" x="212.581737" xlink:href="#mff64800a10" y="223.051592"/>
     <use style="fill:#ff0000;stroke:#ff0000;" x="213.488593" xlink:href="#mff64800a10" y="223.051592"/>
     <use style="fill:#ff0000;stroke:#ff0000;" x="214.395449" xlink:href="#mff64800a10" y="206.651234"/>
     <use style="fill:#ff0000;stroke:#ff0000;" x="215.302306" xlink:href="#mff64800a10" y="206.651234"/>
     <use style="fill:#ff0000;stroke:#ff0000;" x="216.209162" xlink:href="#mff64800a10" y="221.084255"/>
     <use style="fill:#ff0000;stroke:#ff0000;" x="217.116018" xlink:href="#mff64800a10" y="221.084255"/>
     <use style="fill:#ff0000;stroke:#ff0000;" x="218.022875" xlink:href="#mff64800a10" y="218.334777"/>
     <use style="fill:#ff0000;stroke:#ff0000;" x="218.929731" xlink:href="#mff64800a10" y="218.334777"/>
     <use style="fill:#ff0000;stroke:#ff0000;" x="219.836587" xlink:href="#mff64800a10" y="235.890575"/>
     <use style="fill:#ff0000;stroke:#ff0000;" x="220.743443" xlink:href="#mff64800a10" y="235.890575"/>
     <use style="fill:#ff0000;stroke:#ff0000;" x="221.6503" xlink:href="#mff64800a10" y="235.890575"/>
     <use style="fill:#ff0000;stroke:#ff0000;" x="222.557156" xlink:href="#mff64800a10" y="231.785551"/>
     <use style="fill:#ff0000;stroke:#ff0000;" x="223.464012" xlink:href="#mff64800a10" y="247.357957"/>
     <use style="fill:#ff0000;stroke:#ff0000;" x="224.370868" xlink:href="#mff64800a10" y="247.357957"/>
     <use style="fill:#ff0000;stroke:#ff0000;" x="225.277725" xlink:href="#mff64800a10" y="262.79783"/>
     <use style="fill:#ff0000;stroke:#ff0000;" x="226.184581" xlink:href="#mff64800a10" y="262.79783"/>
     <use style="fill:#ff0000;stroke:#ff0000;" x="227.091437" xlink:href="#mff64800a10" y="244.653308"/>
     <use style="fill:#ff0000;stroke:#ff0000;" x="227.998294" xlink:href="#mff64800a10" y="244.653308"/>
     <use style="fill:#ff0000;stroke:#ff0000;" x="228.90515" xlink:href="#mff64800a10" y="249.464693"/>
     <use style="fill:#ff0000;stroke:#ff0000;" x="229.812006" xlink:href="#mff64800a10" y="249.464693"/>
     <use style="fill:#ff0000;stroke:#ff0000;" x="230.718862" xlink:href="#mff64800a10" y="249.464693"/>
     <use style="fill:#ff0000;stroke:#ff0000;" x="231.625719" xlink:href="#mff64800a10" y="234.14148"/>
     <use style="fill:#ff0000;stroke:#ff0000;" x="232.532575" xlink:href="#mff64800a10" y="234.14148"/>
     <use style="fill:#ff0000;stroke:#ff0000;" x="233.439431" xlink:href="#mff64800a10" y="232.910525"/>
     <use style="fill:#ff0000;stroke:#ff0000;" x="234.346287" xlink:href="#mff64800a10" y="232.910525"/>
     <use style="fill:#ff0000;stroke:#ff0000;" x="235.253144" xlink:href="#mff64800a10" y="250.183624"/>
     <use style="fill:#ff0000;stroke:#ff0000;" x="236.16" xlink:href="#mff64800a10" y="250.183624"/>
     <use style="fill:#ff0000;stroke:#ff0000;" x="237.066856" xlink:href="#mff64800a10" y="265.689278"/>
     <use style="fill:#ff0000;stroke:#ff0000;" x="237.973713" xlink:href="#mff64800a10" y="280.849528"/>
     <use style="fill:#ff0000;stroke:#ff0000;" x="238.880569" xlink:href="#mff64800a10" y="280.849528"/>
     <use style="fill:#ff0000;stroke:#ff0000;" x="239.787425" xlink:href="#mff64800a10" y="295.488"/>
     <use style="fill:#ff0000;stroke:#ff0000;" x="240.694281" xlink:href="#mff64800a10" y="295.488"/>
     <use style="fill:#ff0000;stroke:#ff0000;" x="241.601138" xlink:href="#mff64800a10" y="275.590129"/>
     <use style="fill:#ff0000;stroke:#ff0000;" x="242.507994" xlink:href="#mff64800a10" y="275.590129"/>
     <use style="fill:#ff0000;stroke:#ff0000;" x="243.41485" xlink:href="#mff64800a10" y="275.590129"/>
     <use style="fill:#ff0000;stroke:#ff0000;" x="244.321706" xlink:href="#mff64800a10" y="275.590129"/>
     <use style="fill:#ff0000;stroke:#ff0000;" x="245.228563" xlink:href="#mff64800a10" y="275.590129"/>
     <use style="fill:#ff0000;stroke:#ff0000;" x="246.135419" xlink:href="#mff64800a10" y="275.590129"/>
     <use style="fill:#ff0000;stroke:#ff0000;" x="247.042275" xlink:href="#mff64800a10" y="275.590129"/>
     <use style="fill:#ff0000;stroke:#ff0000;" x="247.949132" xlink:href="#mff64800a10" y="275.590129"/>
     <use style="fill:#ff0000;stroke:#ff0000;" x="248.855988" xlink:href="#mff64800a10" y="275.590129"/>
     <use style="fill:#ff0000;stroke:#ff0000;" x="249.762844" xlink:href="#mff64800a10" y="275.590129"/>
     <use style="fill:#ff0000;stroke:#ff0000;" x="250.6697" xlink:href="#mff64800a10" y="275.590129"/>
     <use style="fill:#ff0000;stroke:#ff0000;" x="251.576557" xlink:href="#mff64800a10" y="275.590129"/>
     <use style="fill:#ff0000;stroke:#ff0000;" x="252.483413" xlink:href="#mff64800a10" y="275.590129"/>
     <use style="fill:#ff0000;stroke:#ff0000;" x="253.390269" xlink:href="#mff64800a10" y="275.590129"/>
     <use style="fill:#ff0000;stroke:#ff0000;" x="254.297125" xlink:href="#mff64800a10" y="275.590129"/>
     <use style="fill:#ff0000;stroke:#ff0000;" x="255.203982" xlink:href="#mff64800a10" y="275.590129"/>
     <use style="fill:#ff0000;stroke:#ff0000;" x="256.110838" xlink:href="#mff64800a10" y="275.590129"/>
     <use style="fill:#ff0000;stroke:#ff0000;" x="257.017694" xlink:href="#mff64800a10" y="275.590129"/>
     <use style="fill:#ff0000;stroke:#ff0000;" x="257.924551" xlink:href="#mff64800a10" y="275.590129"/>
     <use style="fill:#ff0000;stroke:#ff0000;" x="258.831407" xlink:href="#mff64800a10" y="275.590129"/>
     <use style="fill:#ff0000;stroke:#ff0000;" x="259.738263" xlink:href="#mff64800a10" y="275.590129"/>
     <use style="fill:#ff0000;stroke:#ff0000;" x="260.645119" xlink:href="#mff64800a10" y="275.590129"/>
     <use style="fill:#ff0000;stroke:#ff0000;" x="261.551976" xlink:href="#mff64800a10" y="275.590129"/>
     <use style="fill:#ff0000;stroke:#ff0000;" x="262.458832" xlink:href="#mff64800a10" y="275.590129"/>
     <use style="fill:#ff0000;stroke:#ff0000;" x="263.365688" xlink:href="#mff64800a10" y="275.590129"/>
     <use style="fill:#ff0000;stroke:#ff0000;" x="264.272544" xlink:href="#mff64800a10" y="275.590129"/>
     <use style="fill:#ff0000;stroke:#ff0000;" x="265.179401" xlink:href="#mff64800a10" y="275.590129"/>
     <use style="fill:#ff0000;stroke:#ff0000;" x="266.086257" xlink:href="#mff64800a10" y="275.590129"/>
     <use style="fill:#ff0000;stroke:#ff0000;" x="266.993113" xlink:href="#mff64800a10" y="275.590129"/>
     <use style="fill:#ff0000;stroke:#ff0000;" x="267.89997" xlink:href="#mff64800a10" y="275.590129"/>
     <use style="fill:#ff0000;stroke:#ff0000;" x="268.806826" xlink:href="#mff64800a10" y="275.590129"/>
     <use style="fill:#ff0000;stroke:#ff0000;" x="269.713682" xlink:href="#mff64800a10" y="275.590129"/>
     <use style="fill:#ff0000;stroke:#ff0000;" x="270.620538" xlink:href="#mff64800a10" y="275.590129"/>
     <use style="fill:#ff0000;stroke:#ff0000;" x="271.527395" xlink:href="#mff64800a10" y="275.590129"/>
     <use style="fill:#ff0000;stroke:#ff0000;" x="272.434251" xlink:href="#mff64800a10" y="275.590129"/>
     <use style="fill:#ff0000;stroke:#ff0000;" x="273.341107" xlink:href="#mff64800a10" y="275.590129"/>
     <use style="fill:#ff0000;stroke:#ff0000;" x="274.247963" xlink:href="#mff64800a10" y="275.590129"/>
     <use style="fill:#ff0000;stroke:#ff0000;" x="275.15482" xlink:href="#mff64800a10" y="275.590129"/>
     <use style="fill:#ff0000;stroke:#ff0000;" x="276.061676" xlink:href="#mff64800a10" y="275.590129"/>
     <use style="fill:#ff0000;stroke:#ff0000;" x="276.968532" xlink:href="#mff64800a10" y="275.590129"/>
     <use style="fill:#ff0000;stroke:#ff0000;" x="277.875389" xlink:href="#mff64800a10" y="275.590129"/>
     <use style="fill:#ff0000;stroke:#ff0000;" x="278.782245" xlink:href="#mff64800a10" y="275.590129"/>
     <use style="fill:#ff0000;stroke:#ff0000;" x="279.689101" xlink:href="#mff64800a10" y="275.590129"/>
     <use style="fill:#ff0000;stroke:#ff0000;" x="280.595957" xlink:href="#mff64800a10" y="275.590129"/>
     <use style="fill:#ff0000;stroke:#ff0000;" x="281.502814" xlink:href="#mff64800a10" y="275.590129"/>
     <use style="fill:#ff0000;stroke:#ff0000;" x="282.40967" xlink:href="#mff64800a10" y="275.590129"/>
     <use style="fill:#ff0000;stroke:#ff0000;" x="283.316526" xlink:href="#mff64800a10" y="275.590129"/>
     <use style="fill:#ff0000;stroke:#ff0000;" x="284.223382" xlink:href="#mff64800a10" y="275.590129"/>
     <use style="fill:#ff0000;stroke:#ff0000;" x="285.130239" xlink:href="#mff64800a10" y="275.590129"/>
     <use style="fill:#ff0000;stroke:#ff0000;" x="286.037095" xlink:href="#mff64800a10" y="275.590129"/>
     <use style="fill:#ff0000;stroke:#ff0000;" x="286.943951" xlink:href="#mff64800a10" y="275.590129"/>
     <use style="fill:#ff0000;stroke:#ff0000;" x="287.850808" xlink:href="#mff64800a10" y="275.590129"/>
     <use style="fill:#ff0000;stroke:#ff0000;" x="288.757664" xlink:href="#mff64800a10" y="275.590129"/>
     <use style="fill:#ff0000;stroke:#ff0000;" x="289.66452" xlink:href="#mff64800a10" y="275.590129"/>
     <use style="fill:#ff0000;stroke:#ff0000;" x="290.571376" xlink:href="#mff64800a10" y="275.590129"/>
     <use style="fill:#ff0000;stroke:#ff0000;" x="291.478233" xlink:href="#mff64800a10" y="275.590129"/>
     <use style="fill:#ff0000;stroke:#ff0000;" x="292.385089" xlink:href="#mff64800a10" y="275.590129"/>
     <use style="fill:#ff0000;stroke:#ff0000;" x="293.291945" xlink:href="#mff64800a10" y="275.590129"/>
     <use style="fill:#ff0000;stroke:#ff0000;" x="294.198801" xlink:href="#mff64800a10" y="275.590129"/>
     <use style="fill:#ff0000;stroke:#ff0000;" x="295.105658" xlink:href="#mff64800a10" y="275.590129"/>
     <use style="fill:#ff0000;stroke:#ff0000;" x="296.012514" xlink:href="#mff64800a10" y="275.590129"/>
     <use style="fill:#ff0000;stroke:#ff0000;" x="296.91937" xlink:href="#mff64800a10" y="275.590129"/>
     <use style="fill:#ff0000;stroke:#ff0000;" x="297.826227" xlink:href="#mff64800a10" y="275.590129"/>
     <use style="fill:#ff0000;stroke:#ff0000;" x="298.733083" xlink:href="#mff64800a10" y="275.590129"/>
     <use style="fill:#ff0000;stroke:#ff0000;" x="299.639939" xlink:href="#mff64800a10" y="275.590129"/>
     <use style="fill:#ff0000;stroke:#ff0000;" x="300.546795" xlink:href="#mff64800a10" y="275.590129"/>
     <use style="fill:#ff0000;stroke:#ff0000;" x="301.453652" xlink:href="#mff64800a10" y="275.590129"/>
     <use style="fill:#ff0000;stroke:#ff0000;" x="302.360508" xlink:href="#mff64800a10" y="275.590129"/>
     <use style="fill:#ff0000;stroke:#ff0000;" x="303.267364" xlink:href="#mff64800a10" y="275.590129"/>
     <use style="fill:#ff0000;stroke:#ff0000;" x="304.17422" xlink:href="#mff64800a10" y="275.590129"/>
     <use style="fill:#ff0000;stroke:#ff0000;" x="305.081077" xlink:href="#mff64800a10" y="275.590129"/>
     <use style="fill:#ff0000;stroke:#ff0000;" x="305.987933" xlink:href="#mff64800a10" y="275.590129"/>
     <use style="fill:#ff0000;stroke:#ff0000;" x="306.894789" xlink:href="#mff64800a10" y="275.590129"/>
     <use style="fill:#ff0000;stroke:#ff0000;" x="307.801646" xlink:href="#mff64800a10" y="275.590129"/>
     <use style="fill:#ff0000;stroke:#ff0000;" x="308.708502" xlink:href="#mff64800a10" y="275.590129"/>
     <use style="fill:#ff0000;stroke:#ff0000;" x="309.615358" xlink:href="#mff64800a10" y="275.590129"/>
     <use style="fill:#ff0000;stroke:#ff0000;" x="310.522214" xlink:href="#mff64800a10" y="275.590129"/>
     <use style="fill:#ff0000;stroke:#ff0000;" x="311.429071" xlink:href="#mff64800a10" y="275.590129"/>
     <use style="fill:#ff0000;stroke:#ff0000;" x="312.335927" xlink:href="#mff64800a10" y="275.590129"/>
     <use style="fill:#ff0000;stroke:#ff0000;" x="313.242783" xlink:href="#mff64800a10" y="275.590129"/>
     <use style="fill:#ff0000;stroke:#ff0000;" x="314.149639" xlink:href="#mff64800a10" y="275.590129"/>
     <use style="fill:#ff0000;stroke:#ff0000;" x="315.056496" xlink:href="#mff64800a10" y="275.590129"/>
     <use style="fill:#ff0000;stroke:#ff0000;" x="315.963352" xlink:href="#mff64800a10" y="275.590129"/>
     <use style="fill:#ff0000;stroke:#ff0000;" x="316.870208" xlink:href="#mff64800a10" y="275.590129"/>
     <use style="fill:#ff0000;stroke:#ff0000;" x="317.777064" xlink:href="#mff64800a10" y="275.590129"/>
     <use style="fill:#ff0000;stroke:#ff0000;" x="318.683921" xlink:href="#mff64800a10" y="275.590129"/>
     <use style="fill:#ff0000;stroke:#ff0000;" x="319.590777" xlink:href="#mff64800a10" y="275.590129"/>
     <use style="fill:#ff0000;stroke:#ff0000;" x="320.497633" xlink:href="#mff64800a10" y="275.590129"/>
     <use style="fill:#ff0000;stroke:#ff0000;" x="321.40449" xlink:href="#mff64800a10" y="275.590129"/>
     <use style="fill:#ff0000;stroke:#ff0000;" x="322.311346" xlink:href="#mff64800a10" y="275.590129"/>
     <use style="fill:#ff0000;stroke:#ff0000;" x="323.218202" xlink:href="#mff64800a10" y="275.590129"/>
     <use style="fill:#ff0000;stroke:#ff0000;" x="324.125058" xlink:href="#mff64800a10" y="275.590129"/>
     <use style="fill:#ff0000;stroke:#ff0000;" x="325.031915" xlink:href="#mff64800a10" y="275.590129"/>
     <use style="fill:#ff0000;stroke:#ff0000;" x="325.938771" xlink:href="#mff64800a10" y="275.590129"/>
     <use style="fill:#ff0000;stroke:#ff0000;" x="326.845627" xlink:href="#mff64800a10" y="275.590129"/>
     <use style="fill:#ff0000;stroke:#ff0000;" x="327.752483" xlink:href="#mff64800a10" y="275.590129"/>
     <use style="fill:#ff0000;stroke:#ff0000;" x="328.65934" xlink:href="#mff64800a10" y="275.590129"/>
     <use style="fill:#ff0000;stroke:#ff0000;" x="329.566196" xlink:href="#mff64800a10" y="275.590129"/>
     <use style="fill:#ff0000;stroke:#ff0000;" x="330.473052" xlink:href="#mff64800a10" y="275.590129"/>
     <use style="fill:#ff0000;stroke:#ff0000;" x="331.379909" xlink:href="#mff64800a10" y="275.590129"/>
     <use style="fill:#ff0000;stroke:#ff0000;" x="332.286765" xlink:href="#mff64800a10" y="275.590129"/>
     <use style="fill:#ff0000;stroke:#ff0000;" x="333.193621" xlink:href="#mff64800a10" y="275.590129"/>
     <use style="fill:#ff0000;stroke:#ff0000;" x="334.100477" xlink:href="#mff64800a10" y="275.590129"/>
     <use style="fill:#ff0000;stroke:#ff0000;" x="335.007334" xlink:href="#mff64800a10" y="275.590129"/>
     <use style="fill:#ff0000;stroke:#ff0000;" x="335.91419" xlink:href="#mff64800a10" y="275.590129"/>
     <use style="fill:#ff0000;stroke:#ff0000;" x="336.821046" xlink:href="#mff64800a10" y="275.590129"/>
     <use style="fill:#ff0000;stroke:#ff0000;" x="337.727902" xlink:href="#mff64800a10" y="275.590129"/>
     <use style="fill:#ff0000;stroke:#ff0000;" x="338.634759" xlink:href="#mff64800a10" y="275.590129"/>
     <use style="fill:#ff0000;stroke:#ff0000;" x="339.541615" xlink:href="#mff64800a10" y="275.590129"/>
     <use style="fill:#ff0000;stroke:#ff0000;" x="340.448471" xlink:href="#mff64800a10" y="275.590129"/>
     <use style="fill:#ff0000;stroke:#ff0000;" x="341.355328" xlink:href="#mff64800a10" y="275.590129"/>
     <use style="fill:#ff0000;stroke:#ff0000;" x="342.262184" xlink:href="#mff64800a10" y="275.590129"/>
     <use style="fill:#ff0000;stroke:#ff0000;" x="343.16904" xlink:href="#mff64800a10" y="275.590129"/>
     <use style="fill:#ff0000;stroke:#ff0000;" x="344.075896" xlink:href="#mff64800a10" y="275.590129"/>
     <use style="fill:#ff0000;stroke:#ff0000;" x="344.982753" xlink:href="#mff64800a10" y="275.590129"/>
     <use style="fill:#ff0000;stroke:#ff0000;" x="345.889609" xlink:href="#mff64800a10" y="275.590129"/>
     <use style="fill:#ff0000;stroke:#ff0000;" x="346.796465" xlink:href="#mff64800a10" y="275.590129"/>
     <use style="fill:#ff0000;stroke:#ff0000;" x="347.703321" xlink:href="#mff64800a10" y="275.590129"/>
     <use style="fill:#ff0000;stroke:#ff0000;" x="348.610178" xlink:href="#mff64800a10" y="275.590129"/>
     <use style="fill:#ff0000;stroke:#ff0000;" x="349.517034" xlink:href="#mff64800a10" y="275.590129"/>
     <use style="fill:#ff0000;stroke:#ff0000;" x="350.42389" xlink:href="#mff64800a10" y="275.590129"/>
     <use style="fill:#ff0000;stroke:#ff0000;" x="351.330747" xlink:href="#mff64800a10" y="275.590129"/>
     <use style="fill:#ff0000;stroke:#ff0000;" x="352.237603" xlink:href="#mff64800a10" y="275.590129"/>
     <use style="fill:#ff0000;stroke:#ff0000;" x="353.144459" xlink:href="#mff64800a10" y="275.590129"/>
     <use style="fill:#ff0000;stroke:#ff0000;" x="354.051315" xlink:href="#mff64800a10" y="275.590129"/>
     <use style="fill:#ff0000;stroke:#ff0000;" x="354.958172" xlink:href="#mff64800a10" y="275.590129"/>
     <use style="fill:#ff0000;stroke:#ff0000;" x="355.865028" xlink:href="#mff64800a10" y="275.590129"/>
     <use style="fill:#ff0000;stroke:#ff0000;" x="356.771884" xlink:href="#mff64800a10" y="275.590129"/>
     <use style="fill:#ff0000;stroke:#ff0000;" x="357.67874" xlink:href="#mff64800a10" y="275.590129"/>
     <use style="fill:#ff0000;stroke:#ff0000;" x="358.585597" xlink:href="#mff64800a10" y="275.590129"/>
     <use style="fill:#ff0000;stroke:#ff0000;" x="359.492453" xlink:href="#mff64800a10" y="275.590129"/>
     <use style="fill:#ff0000;stroke:#ff0000;" x="360.399309" xlink:href="#mff64800a10" y="275.590129"/>
     <use style="fill:#ff0000;stroke:#ff0000;" x="361.306166" xlink:href="#mff64800a10" y="275.590129"/>
     <use style="fill:#ff0000;stroke:#ff0000;" x="362.213022" xlink:href="#mff64800a10" y="275.590129"/>
     <use style="fill:#ff0000;stroke:#ff0000;" x="363.119878" xlink:href="#mff64800a10" y="275.590129"/>
     <use style="fill:#ff0000;stroke:#ff0000;" x="364.026734" xlink:href="#mff64800a10" y="275.590129"/>
     <use style="fill:#ff0000;stroke:#ff0000;" x="364.933591" xlink:href="#mff64800a10" y="275.590129"/>
     <use style="fill:#ff0000;stroke:#ff0000;" x="365.840447" xlink:href="#mff64800a10" y="275.590129"/>
     <use style="fill:#ff0000;stroke:#ff0000;" x="366.747303" xlink:href="#mff64800a10" y="275.590129"/>
     <use style="fill:#ff0000;stroke:#ff0000;" x="367.654159" xlink:href="#mff64800a10" y="275.590129"/>
     <use style="fill:#ff0000;stroke:#ff0000;" x="368.561016" xlink:href="#mff64800a10" y="275.590129"/>
     <use style="fill:#ff0000;stroke:#ff0000;" x="369.467872" xlink:href="#mff64800a10" y="275.590129"/>
     <use style="fill:#ff0000;stroke:#ff0000;" x="370.374728" xlink:href="#mff64800a10" y="275.590129"/>
     <use style="fill:#ff0000;stroke:#ff0000;" x="371.281585" xlink:href="#mff64800a10" y="275.590129"/>
     <use style="fill:#ff0000;stroke:#ff0000;" x="372.188441" xlink:href="#mff64800a10" y="275.590129"/>
     <use style="fill:#ff0000;stroke:#ff0000;" x="373.095297" xlink:href="#mff64800a10" y="275.590129"/>
     <use style="fill:#ff0000;stroke:#ff0000;" x="374.002153" xlink:href="#mff64800a10" y="275.590129"/>
     <use style="fill:#ff0000;stroke:#ff0000;" x="374.90901" xlink:href="#mff64800a10" y="275.590129"/>
     <use style="fill:#ff0000;stroke:#ff0000;" x="375.815866" xlink:href="#mff64800a10" y="275.590129"/>
     <use style="fill:#ff0000;stroke:#ff0000;" x="376.722722" xlink:href="#mff64800a10" y="275.590129"/>
     <use style="fill:#ff0000;stroke:#ff0000;" x="377.629578" xlink:href="#mff64800a10" y="275.590129"/>
     <use style="fill:#ff0000;stroke:#ff0000;" x="378.536435" xlink:href="#mff64800a10" y="275.590129"/>
     <use style="fill:#ff0000;stroke:#ff0000;" x="379.443291" xlink:href="#mff64800a10" y="275.590129"/>
     <use style="fill:#ff0000;stroke:#ff0000;" x="380.350147" xlink:href="#mff64800a10" y="275.590129"/>
     <use style="fill:#ff0000;stroke:#ff0000;" x="381.257004" xlink:href="#mff64800a10" y="275.590129"/>
     <use style="fill:#ff0000;stroke:#ff0000;" x="382.16386" xlink:href="#mff64800a10" y="275.590129"/>
     <use style="fill:#ff0000;stroke:#ff0000;" x="383.070716" xlink:href="#mff64800a10" y="275.590129"/>
     <use style="fill:#ff0000;stroke:#ff0000;" x="383.977572" xlink:href="#mff64800a10" y="275.590129"/>
     <use style="fill:#ff0000;stroke:#ff0000;" x="384.884429" xlink:href="#mff64800a10" y="275.590129"/>
     <use style="fill:#ff0000;stroke:#ff0000;" x="385.791285" xlink:href="#mff64800a10" y="275.590129"/>
     <use style="fill:#ff0000;stroke:#ff0000;" x="386.698141" xlink:href="#mff64800a10" y="275.590129"/>
     <use style="fill:#ff0000;stroke:#ff0000;" x="387.604997" xlink:href="#mff64800a10" y="275.590129"/>
     <use style="fill:#ff0000;stroke:#ff0000;" x="388.511854" xlink:href="#mff64800a10" y="275.590129"/>
     <use style="fill:#ff0000;stroke:#ff0000;" x="389.41871" xlink:href="#mff64800a10" y="275.590129"/>
     <use style="fill:#ff0000;stroke:#ff0000;" x="390.325566" xlink:href="#mff64800a10" y="275.590129"/>
     <use style="fill:#ff0000;stroke:#ff0000;" x="391.232423" xlink:href="#mff64800a10" y="275.590129"/>
     <use style="fill:#ff0000;stroke:#ff0000;" x="392.139279" xlink:href="#mff64800a10" y="275.590129"/>
     <use style="fill:#ff0000;stroke:#ff0000;" x="393.046135" xlink:href="#mff64800a10" y="275.590129"/>
     <use style="fill:#ff0000;stroke:#ff0000;" x="393.952991" xlink:href="#mff64800a10" y="275.590129"/>
     <use style="fill:#ff0000;stroke:#ff0000;" x="394.859848" xlink:href="#mff64800a10" y="275.590129"/>
     <use style="fill:#ff0000;stroke:#ff0000;" x="395.766704" xlink:href="#mff64800a10" y="275.590129"/>
     <use style="fill:#ff0000;stroke:#ff0000;" x="396.67356" xlink:href="#mff64800a10" y="275.590129"/>
     <use style="fill:#ff0000;stroke:#ff0000;" x="397.580416" xlink:href="#mff64800a10" y="275.590129"/>
     <use style="fill:#ff0000;stroke:#ff0000;" x="398.487273" xlink:href="#mff64800a10" y="275.590129"/>
    </g>
   </g>
   <g id="patch_3">
    <path d="M 57.6 307.584 
L 57.6 41.472 
" style="fill:none;stroke:#000000;stroke-linecap:square;stroke-linejoin:miter;stroke-width:0.8;"/>
   </g>
   <g id="patch_4">
    <path d="M 414.72 307.584 
L 414.72 41.472 
" style="fill:none;stroke:#000000;stroke-linecap:square;stroke-linejoin:miter;stroke-width:0.8;"/>
   </g>
   <g id="patch_5">
    <path d="M 57.6 307.584 
L 414.72 307.584 
" style="fill:none;stroke:#000000;stroke-linecap:square;stroke-linejoin:miter;stroke-width:0.8;"/>
   </g>
   <g id="patch_6">
    <path d="M 57.6 41.472 
L 414.72 41.472 
" style="fill:none;stroke:#000000;stroke-linecap:square;stroke-linejoin:miter;stroke-width:0.8;"/>
   </g>
  </g>
 </g>
 <defs>
  <clipPath id="p45ae03c326">
   <rect height="266.112" width="357.12" x="57.6" y="41.472"/>
  </clipPath>
 </defs>
</svg>
