<?xml version="1.0" encoding="utf-8" standalone="no"?>
<!DOCTYPE svg PUBLIC "-//W3C//DTD SVG 1.1//EN"
  "http://www.w3.org/Graphics/SVG/1.1/DTD/svg11.dtd">
<!-- Created with matplotlib (https://matplotlib.org/) -->
<svg height="345.6pt" version="1.1" viewBox="0 0 460.8 345.6" width="460.8pt" xmlns="http://www.w3.org/2000/svg" xmlns:xlink="http://www.w3.org/1999/xlink">
 <defs>
  <style type="text/css">
*{stroke-linecap:butt;stroke-linejoin:round;}
  </style>
 </defs>
 <g id="figure_1">
  <g id="patch_1">
   <path d="M 0 345.6 
L 460.8 345.6 
L 460.8 0 
L 0 0 
z
" style="fill:#ffffff;"/>
  </g>
  <g id="axes_1">
   <g id="patch_2">
    <path d="M 57.6 307.584 
L 414.72 307.584 
L 414.72 41.472 
L 57.6 41.472 
z
" style="fill:#ffffff;"/>
   </g>
   <g id="line2d_1">
    <path clip-path="url(#pf66e45f745)" d="M 73.832727 111.538318 
L 76.881127 111.538318 
L 78.405327 161.894341 
L 84.502125 161.894341 
L 86.026325 210.03582 
L 87.550525 210.03582 
L 89.074725 160.480244 
L 92.123124 160.480244 
L 93.647324 148.184406 
L 95.171524 148.184406 
L 96.695723 135.314259 
L 98.219923 135.314259 
L 99.744123 179.99651 
L 102.792522 179.99651 
L 104.316722 187.451601 
L 105.840922 187.451601 
L 107.365122 134.56495 
L 108.889321 134.56495 
L 110.413521 78.649619 
L 111.937721 68.512682 
L 113.461921 68.512682 
L 114.98612 84.879122 
L 116.51032 84.879122 
L 118.03452 68.176197 
L 119.55872 68.176197 
L 121.082919 53.568 
L 122.607119 53.568 
L 124.131319 70.992426 
L 125.655519 86.675631 
L 127.179718 86.675631 
L 128.703918 105.225466 
L 131.752318 105.225466 
L 133.276517 121.222084 
L 134.800717 121.222084 
L 136.324917 103.65713 
L 140.897516 103.65713 
L 143.945915 138.135398 
L 145.470115 138.135398 
L 146.994315 134.120283 
L 150.042714 134.120283 
L 151.566914 137.850859 
L 153.091114 137.850859 
L 154.615314 156.476213 
L 156.139513 156.476213 
L 157.663713 152.856749 
L 159.187913 152.856749 
L 160.712113 137.639858 
L 162.236312 137.639858 
L 163.760512 120.957305 
L 165.284712 120.957305 
L 166.808912 137.620468 
L 168.333111 137.620468 
L 169.857311 138.254948 
L 171.381511 138.254948 
L 172.905711 120.54889 
L 174.42991 120.54889 
L 175.95411 102.871215 
L 177.47831 102.871215 
L 179.00251 84.633148 
L 180.526709 84.633148 
L 182.050909 87.072328 
L 183.575109 71.421728 
L 185.099309 71.421728 
L 186.623508 89.11605 
L 188.147708 89.11605 
L 189.671908 106.823276 
L 194.244507 106.823276 
L 195.768707 121.40746 
L 201.865506 121.40746 
L 203.389706 138.706043 
L 204.913905 138.706043 
L 206.438105 154.499722 
L 207.962305 154.499722 
L 209.486504 169.97689 
L 211.010704 169.97689 
L 212.534904 153.652917 
L 215.583303 153.652917 
L 217.107503 172.288881 
L 218.631703 155.626535 
L 220.155903 155.626535 
L 221.680102 170.955534 
L 223.204302 170.955534 
L 224.728502 172.049942 
L 226.252702 172.049942 
L 227.776901 189.251606 
L 229.301101 189.251606 
L 230.825301 171.728385 
L 232.349501 171.728385 
L 233.8737 171.950911 
L 236.9221 171.950911 
L 238.4463 186.918172 
L 239.970499 203.176442 
L 241.494699 203.176442 
L 243.018899 221.820609 
L 258.260896 221.820609 
L 259.785096 225.382573 
L 261.309296 227.047257 
L 262.833496 227.047257 
L 264.357695 243.85125 
L 265.881895 243.85125 
L 267.406095 225.662126 
L 268.930294 225.662126 
L 270.454494 240.263621 
L 275.027093 240.263621 
L 276.551293 255.396849 
L 278.075493 255.396849 
L 281.123892 285.278126 
L 284.172292 285.278126 
L 285.696492 284.771445 
L 287.220691 284.771445 
L 288.744891 279.1153 
L 290.269091 279.1153 
L 291.793291 262.425792 
L 293.31749 262.425792 
L 294.84169 260.092357 
L 296.36589 260.092357 
L 297.89009 274.306605 
L 299.414289 258.507316 
L 300.938489 258.507316 
L 302.462689 240.166787 
L 303.986889 240.166787 
L 305.511088 223.051592 
L 308.559488 223.051592 
L 310.083688 206.651234 
L 311.607887 206.651234 
L 313.132087 221.084255 
L 314.656287 221.084255 
L 316.180487 218.334777 
L 317.704686 218.334777 
L 319.228886 235.890575 
L 322.277286 235.890575 
L 323.801485 231.785551 
L 325.325685 247.357957 
L 326.849885 247.357957 
L 328.374085 262.79783 
L 329.898284 262.79783 
L 331.422484 244.653308 
L 332.946684 244.653308 
L 334.470883 249.464693 
L 337.519283 249.464693 
L 339.043483 234.14148 
L 340.567682 234.14148 
L 342.091882 232.910525 
L 343.616082 232.910525 
L 345.140282 250.183624 
L 346.664481 250.183624 
L 349.712881 280.849528 
L 351.237081 280.849528 
L 352.76128 295.488 
L 354.28548 295.488 
L 355.80968 275.590129 
L 398.487273 275.590129 
L 398.487273 275.590129 
" style="fill:none;stroke:#ff0000;stroke-linecap:square;stroke-width:12;"/>
    <defs>
     <path d="M 0 3 
C 0.795609 3 1.55874 2.683901 2.12132 2.12132 
C 2.683901 1.55874 3 0.795609 3 0 
C 3 -0.795609 2.683901 -1.55874 2.12132 -2.12132 
C 1.55874 -2.683901 0.795609 -3 0 -3 
C -0.795609 -3 -1.55874 -2.683901 -2.12132 -2.12132 
C -2.683901 -1.55874 -3 -0.795609 -3 0 
C -3 0.795609 -2.683901 1.55874 -2.12132 2.12132 
C -1.55874 2.683901 -0.795609 3 0 3 
z
" id="mcbd09d8874" style="stroke:#ff0000;"/>
    </defs>
    <g clip-path="url(#pf66e45f745)">
     <use style="fill:#ff0000;stroke:#ff0000;" x="73.832727" xlink:href="#mcbd09d8874" y="111.538318"/>
     <use style="fill:#ff0000;stroke:#ff0000;" x="75.356927" xlink:href="#mcbd09d8874" y="111.538318"/>
     <use style="fill:#ff0000;stroke:#ff0000;" x="76.881127" xlink:href="#mcbd09d8874" y="111.538318"/>
     <use style="fill:#ff0000;stroke:#ff0000;" x="78.405327" xlink:href="#mcbd09d8874" y="161.894341"/>
     <use style="fill:#ff0000;stroke:#ff0000;" x="79.929526" xlink:href="#mcbd09d8874" y="161.894341"/>
     <use style="fill:#ff0000;stroke:#ff0000;" x="81.453726" xlink:href="#mcbd09d8874" y="161.894341"/>
     <use style="fill:#ff0000;stroke:#ff0000;" x="82.977926" xlink:href="#mcbd09d8874" y="161.894341"/>
     <use style="fill:#ff0000;stroke:#ff0000;" x="84.502125" xlink:href="#mcbd09d8874" y="161.894341"/>
     <use style="fill:#ff0000;stroke:#ff0000;" x="86.026325" xlink:href="#mcbd09d8874" y="210.03582"/>
     <use style="fill:#ff0000;stroke:#ff0000;" x="87.550525" xlink:href="#mcbd09d8874" y="210.03582"/>
     <use style="fill:#ff0000;stroke:#ff0000;" x="89.074725" xlink:href="#mcbd09d8874" y="160.480244"/>
     <use style="fill:#ff0000;stroke:#ff0000;" x="90.598924" xlink:href="#mcbd09d8874" y="160.480244"/>
     <use style="fill:#ff0000;stroke:#ff0000;" x="92.123124" xlink:href="#mcbd09d8874" y="160.480244"/>
     <use style="fill:#ff0000;stroke:#ff0000;" x="93.647324" xlink:href="#mcbd09d8874" y="148.184406"/>
     <use style="fill:#ff0000;stroke:#ff0000;" x="95.171524" xlink:href="#mcbd09d8874" y="148.184406"/>
     <use style="fill:#ff0000;stroke:#ff0000;" x="96.695723" xlink:href="#mcbd09d8874" y="135.314259"/>
     <use style="fill:#ff0000;stroke:#ff0000;" x="98.219923" xlink:href="#mcbd09d8874" y="135.314259"/>
     <use style="fill:#ff0000;stroke:#ff0000;" x="99.744123" xlink:href="#mcbd09d8874" y="179.99651"/>
     <use style="fill:#ff0000;stroke:#ff0000;" x="101.268323" xlink:href="#mcbd09d8874" y="179.99651"/>
     <use style="fill:#ff0000;stroke:#ff0000;" x="102.792522" xlink:href="#mcbd09d8874" y="179.99651"/>
     <use style="fill:#ff0000;stroke:#ff0000;" x="104.316722" xlink:href="#mcbd09d8874" y="187.451601"/>
     <use style="fill:#ff0000;stroke:#ff0000;" x="105.840922" xlink:href="#mcbd09d8874" y="187.451601"/>
     <use style="fill:#ff0000;stroke:#ff0000;" x="107.365122" xlink:href="#mcbd09d8874" y="134.56495"/>
     <use style="fill:#ff0000;stroke:#ff0000;" x="108.889321" xlink:href="#mcbd09d8874" y="134.56495"/>
     <use style="fill:#ff0000;stroke:#ff0000;" x="110.413521" xlink:href="#mcbd09d8874" y="78.649619"/>
     <use style="fill:#ff0000;stroke:#ff0000;" x="111.937721" xlink:href="#mcbd09d8874" y="68.512682"/>
     <use style="fill:#ff0000;stroke:#ff0000;" x="113.461921" xlink:href="#mcbd09d8874" y="68.512682"/>
     <use style="fill:#ff0000;stroke:#ff0000;" x="114.98612" xlink:href="#mcbd09d8874" y="84.879122"/>
     <use style="fill:#ff0000;stroke:#ff0000;" x="116.51032" xlink:href="#mcbd09d8874" y="84.879122"/>
     <use style="fill:#ff0000;stroke:#ff0000;" x="118.03452" xlink:href="#mcbd09d8874" y="68.176197"/>
     <use style="fill:#ff0000;stroke:#ff0000;" x="119.55872" xlink:href="#mcbd09d8874" y="68.176197"/>
     <use style="fill:#ff0000;stroke:#ff0000;" x="121.082919" xlink:href="#mcbd09d8874" y="53.568"/>
     <use style="fill:#ff0000;stroke:#ff0000;" x="122.607119" xlink:href="#mcbd09d8874" y="53.568"/>
     <use style="fill:#ff0000;stroke:#ff0000;" x="124.131319" xlink:href="#mcbd09d8874" y="70.992426"/>
     <use style="fill:#ff0000;stroke:#ff0000;" x="125.655519" xlink:href="#mcbd09d8874" y="86.675631"/>
     <use style="fill:#ff0000;stroke:#ff0000;" x="127.179718" xlink:href="#mcbd09d8874" y="86.675631"/>
     <use style="fill:#ff0000;stroke:#ff0000;" x="128.703918" xlink:href="#mcbd09d8874" y="105.225466"/>
     <use style="fill:#ff0000;stroke:#ff0000;" x="130.228118" xlink:href="#mcbd09d8874" y="105.225466"/>
     <use style="fill:#ff0000;stroke:#ff0000;" x="131.752318" xlink:href="#mcbd09d8874" y="105.225466"/>
     <use style="fill:#ff0000;stroke:#ff0000;" x="133.276517" xlink:href="#mcbd09d8874" y="121.222084"/>
     <use style="fill:#ff0000;stroke:#ff0000;" x="134.800717" xlink:href="#mcbd09d8874" y="121.222084"/>
     <use style="fill:#ff0000;stroke:#ff0000;" x="136.324917" xlink:href="#mcbd09d8874" y="103.65713"/>
     <use style="fill:#ff0000;stroke:#ff0000;" x="137.849117" xlink:href="#mcbd09d8874" y="103.65713"/>
     <use style="fill:#ff0000;stroke:#ff0000;" x="139.373316" xlink:href="#mcbd09d8874" y="103.65713"/>
     <use style="fill:#ff0000;stroke:#ff0000;" x="140.897516" xlink:href="#mcbd09d8874" y="103.65713"/>
     <use style="fill:#ff0000;stroke:#ff0000;" x="142.421716" xlink:href="#mcbd09d8874" y="120.588247"/>
     <use style="fill:#ff0000;stroke:#ff0000;" x="143.945915" xlink:href="#mcbd09d8874" y="138.135398"/>
     <use style="fill:#ff0000;stroke:#ff0000;" x="145.470115" xlink:href="#mcbd09d8874" y="138.135398"/>
     <use style="fill:#ff0000;stroke:#ff0000;" x="146.994315" xlink:href="#mcbd09d8874" y="134.120283"/>
     <use style="fill:#ff0000;stroke:#ff0000;" x="148.518515" xlink:href="#mcbd09d8874" y="134.120283"/>
     <use style="fill:#ff0000;stroke:#ff0000;" x="150.042714" xlink:href="#mcbd09d8874" y="134.120283"/>
     <use style="fill:#ff0000;stroke:#ff0000;" x="151.566914" xlink:href="#mcbd09d8874" y="137.850859"/>
     <use style="fill:#ff0000;stroke:#ff0000;" x="153.091114" xlink:href="#mcbd09d8874" y="137.850859"/>
     <use style="fill:#ff0000;stroke:#ff0000;" x="154.615314" xlink:href="#mcbd09d8874" y="156.476213"/>
     <use style="fill:#ff0000;stroke:#ff0000;" x="156.139513" xlink:href="#mcbd09d8874" y="156.476213"/>
     <use style="fill:#ff0000;stroke:#ff0000;" x="157.663713" xlink:href="#mcbd09d8874" y="152.856749"/>
     <use style="fill:#ff0000;stroke:#ff0000;" x="159.187913" xlink:href="#mcbd09d8874" y="152.856749"/>
     <use style="fill:#ff0000;stroke:#ff0000;" x="160.712113" xlink:href="#mcbd09d8874" y="137.639858"/>
     <use style="fill:#ff0000;stroke:#ff0000;" x="162.236312" xlink:href="#mcbd09d8874" y="137.639858"/>
     <use style="fill:#ff0000;stroke:#ff0000;" x="163.760512" xlink:href="#mcbd09d8874" y="120.957305"/>
     <use style="fill:#ff0000;stroke:#ff0000;" x="165.284712" xlink:href="#mcbd09d8874" y="120.957305"/>
     <use style="fill:#ff0000;stroke:#ff0000;" x="166.808912" xlink:href="#mcbd09d8874" y="137.620468"/>
     <use style="fill:#ff0000;stroke:#ff0000;" x="168.333111" xlink:href="#mcbd09d8874" y="137.620468"/>
     <use style="fill:#ff0000;stroke:#ff0000;" x="169.857311" xlink:href="#mcbd09d8874" y="138.254948"/>
     <use style="fill:#ff0000;stroke:#ff0000;" x="171.381511" xlink:href="#mcbd09d8874" y="138.254948"/>
     <use style="fill:#ff0000;stroke:#ff0000;" x="172.905711" xlink:href="#mcbd09d8874" y="120.54889"/>
     <use style="fill:#ff0000;stroke:#ff0000;" x="174.42991" xlink:href="#mcbd09d8874" y="120.54889"/>
     <use style="fill:#ff0000;stroke:#ff0000;" x="175.95411" xlink:href="#mcbd09d8874" y="102.871215"/>
     <use style="fill:#ff0000;stroke:#ff0000;" x="177.47831" xlink:href="#mcbd09d8874" y="102.871215"/>
     <use style="fill:#ff0000;stroke:#ff0000;" x="179.00251" xlink:href="#mcbd09d8874" y="84.633148"/>
     <use style="fill:#ff0000;stroke:#ff0000;" x="180.526709" xlink:href="#mcbd09d8874" y="84.633148"/>
     <use style="fill:#ff0000;stroke:#ff0000;" x="182.050909" xlink:href="#mcbd09d8874" y="87.072328"/>
     <use style="fill:#ff0000;stroke:#ff0000;" x="183.575109" xlink:href="#mcbd09d8874" y="71.421728"/>
     <use style="fill:#ff0000;stroke:#ff0000;" x="185.099309" xlink:href="#mcbd09d8874" y="71.421728"/>
     <use style="fill:#ff0000;stroke:#ff0000;" x="186.623508" xlink:href="#mcbd09d8874" y="89.11605"/>
     <use style="fill:#ff0000;stroke:#ff0000;" x="188.147708" xlink:href="#mcbd09d8874" y="89.11605"/>
     <use style="fill:#ff0000;stroke:#ff0000;" x="189.671908" xlink:href="#mcbd09d8874" y="106.823276"/>
     <use style="fill:#ff0000;stroke:#ff0000;" x="191.196108" xlink:href="#mcbd09d8874" y="106.823276"/>
     <use style="fill:#ff0000;stroke:#ff0000;" x="192.720307" xlink:href="#mcbd09d8874" y="106.823276"/>
     <use style="fill:#ff0000;stroke:#ff0000;" x="194.244507" xlink:href="#mcbd09d8874" y="106.823276"/>
     <use style="fill:#ff0000;stroke:#ff0000;" x="195.768707" xlink:href="#mcbd09d8874" y="121.40746"/>
     <use style="fill:#ff0000;stroke:#ff0000;" x="197.292907" xlink:href="#mcbd09d8874" y="121.40746"/>
     <use style="fill:#ff0000;stroke:#ff0000;" x="198.817106" xlink:href="#mcbd09d8874" y="121.40746"/>
     <use style="fill:#ff0000;stroke:#ff0000;" x="200.341306" xlink:href="#mcbd09d8874" y="121.40746"/>
     <use style="fill:#ff0000;stroke:#ff0000;" x="201.865506" xlink:href="#mcbd09d8874" y="121.40746"/>
     <use style="fill:#ff0000;stroke:#ff0000;" x="203.389706" xlink:href="#mcbd09d8874" y="138.706043"/>
     <use style="fill:#ff0000;stroke:#ff0000;" x="204.913905" xlink:href="#mcbd09d8874" y="138.706043"/>
     <use style="fill:#ff0000;stroke:#ff0000;" x="206.438105" xlink:href="#mcbd09d8874" y="154.499722"/>
     <use style="fill:#ff0000;stroke:#ff0000;" x="207.962305" xlink:href="#mcbd09d8874" y="154.499722"/>
     <use style="fill:#ff0000;stroke:#ff0000;" x="209.486504" xlink:href="#mcbd09d8874" y="169.97689"/>
     <use style="fill:#ff0000;stroke:#ff0000;" x="211.010704" xlink:href="#mcbd09d8874" y="169.97689"/>
     <use style="fill:#ff0000;stroke:#ff0000;" x="212.534904" xlink:href="#mcbd09d8874" y="153.652917"/>
     <use style="fill:#ff0000;stroke:#ff0000;" x="214.059104" xlink:href="#mcbd09d8874" y="153.652917"/>
     <use style="fill:#ff0000;stroke:#ff0000;" x="215.583303" xlink:href="#mcbd09d8874" y="153.652917"/>
     <use style="fill:#ff0000;stroke:#ff0000;" x="217.107503" xlink:href="#mcbd09d8874" y="172.288881"/>
     <use style="fill:#ff0000;stroke:#ff0000;" x="218.631703" xlink:href="#mcbd09d8874" y="155.626535"/>
     <use style="fill:#ff0000;stroke:#ff0000;" x="220.155903" xlink:href="#mcbd09d8874" y="155.626535"/>
     <use style="fill:#ff0000;stroke:#ff0000;" x="221.680102" xlink:href="#mcbd09d8874" y="170.955534"/>
     <use style="fill:#ff0000;stroke:#ff0000;" x="223.204302" xlink:href="#mcbd09d8874" y="170.955534"/>
     <use style="fill:#ff0000;stroke:#ff0000;" x="224.728502" xlink:href="#mcbd09d8874" y="172.049942"/>
     <use style="fill:#ff0000;stroke:#ff0000;" x="226.252702" xlink:href="#mcbd09d8874" y="172.049942"/>
     <use style="fill:#ff0000;stroke:#ff0000;" x="227.776901" xlink:href="#mcbd09d8874" y="189.251606"/>
     <use style="fill:#ff0000;stroke:#ff0000;" x="229.301101" xlink:href="#mcbd09d8874" y="189.251606"/>
     <use style="fill:#ff0000;stroke:#ff0000;" x="230.825301" xlink:href="#mcbd09d8874" y="171.728385"/>
     <use style="fill:#ff0000;stroke:#ff0000;" x="232.349501" xlink:href="#mcbd09d8874" y="171.728385"/>
     <use style="fill:#ff0000;stroke:#ff0000;" x="233.8737" xlink:href="#mcbd09d8874" y="171.950911"/>
     <use style="fill:#ff0000;stroke:#ff0000;" x="235.3979" xlink:href="#mcbd09d8874" y="171.950911"/>
     <use style="fill:#ff0000;stroke:#ff0000;" x="236.9221" xlink:href="#mcbd09d8874" y="171.950911"/>
     <use style="fill:#ff0000;stroke:#ff0000;" x="238.4463" xlink:href="#mcbd09d8874" y="186.918172"/>
     <use style="fill:#ff0000;stroke:#ff0000;" x="239.970499" xlink:href="#mcbd09d8874" y="203.176442"/>
     <use style="fill:#ff0000;stroke:#ff0000;" x="241.494699" xlink:href="#mcbd09d8874" y="203.176442"/>
     <use style="fill:#ff0000;stroke:#ff0000;" x="243.018899" xlink:href="#mcbd09d8874" y="221.820609"/>
     <use style="fill:#ff0000;stroke:#ff0000;" x="244.543099" xlink:href="#mcbd09d8874" y="221.820609"/>
     <use style="fill:#ff0000;stroke:#ff0000;" x="246.067298" xlink:href="#mcbd09d8874" y="221.820609"/>
     <use style="fill:#ff0000;stroke:#ff0000;" x="247.591498" xlink:href="#mcbd09d8874" y="221.820609"/>
     <use style="fill:#ff0000;stroke:#ff0000;" x="249.115698" xlink:href="#mcbd09d8874" y="221.820609"/>
     <use style="fill:#ff0000;stroke:#ff0000;" x="250.639898" xlink:href="#mcbd09d8874" y="221.820609"/>
     <use style="fill:#ff0000;stroke:#ff0000;" x="252.164097" xlink:href="#mcbd09d8874" y="221.820609"/>
     <use style="fill:#ff0000;stroke:#ff0000;" x="253.688297" xlink:href="#mcbd09d8874" y="221.820609"/>
     <use style="fill:#ff0000;stroke:#ff0000;" x="255.212497" xlink:href="#mcbd09d8874" y="221.820609"/>
     <use style="fill:#ff0000;stroke:#ff0000;" x="256.736697" xlink:href="#mcbd09d8874" y="221.820609"/>
     <use style="fill:#ff0000;stroke:#ff0000;" x="258.260896" xlink:href="#mcbd09d8874" y="221.820609"/>
     <use style="fill:#ff0000;stroke:#ff0000;" x="259.785096" xlink:href="#mcbd09d8874" y="225.382573"/>
     <use style="fill:#ff0000;stroke:#ff0000;" x="261.309296" xlink:href="#mcbd09d8874" y="227.047257"/>
     <use style="fill:#ff0000;stroke:#ff0000;" x="262.833496" xlink:href="#mcbd09d8874" y="227.047257"/>
     <use style="fill:#ff0000;stroke:#ff0000;" x="264.357695" xlink:href="#mcbd09d8874" y="243.85125"/>
     <use style="fill:#ff0000;stroke:#ff0000;" x="265.881895" xlink:href="#mcbd09d8874" y="243.85125"/>
     <use style="fill:#ff0000;stroke:#ff0000;" x="267.406095" xlink:href="#mcbd09d8874" y="225.662126"/>
     <use style="fill:#ff0000;stroke:#ff0000;" x="268.930294" xlink:href="#mcbd09d8874" y="225.662126"/>
     <use style="fill:#ff0000;stroke:#ff0000;" x="270.454494" xlink:href="#mcbd09d8874" y="240.263621"/>
     <use style="fill:#ff0000;stroke:#ff0000;" x="271.978694" xlink:href="#mcbd09d8874" y="240.263621"/>
     <use style="fill:#ff0000;stroke:#ff0000;" x="273.502894" xlink:href="#mcbd09d8874" y="240.263621"/>
     <use style="fill:#ff0000;stroke:#ff0000;" x="275.027093" xlink:href="#mcbd09d8874" y="240.263621"/>
     <use style="fill:#ff0000;stroke:#ff0000;" x="276.551293" xlink:href="#mcbd09d8874" y="255.396849"/>
     <use style="fill:#ff0000;stroke:#ff0000;" x="278.075493" xlink:href="#mcbd09d8874" y="255.396849"/>
     <use style="fill:#ff0000;stroke:#ff0000;" x="279.599693" xlink:href="#mcbd09d8874" y="270.706242"/>
     <use style="fill:#ff0000;stroke:#ff0000;" x="281.123892" xlink:href="#mcbd09d8874" y="285.278126"/>
     <use style="fill:#ff0000;stroke:#ff0000;" x="282.648092" xlink:href="#mcbd09d8874" y="285.278126"/>
     <use style="fill:#ff0000;stroke:#ff0000;" x="284.172292" xlink:href="#mcbd09d8874" y="285.278126"/>
     <use style="fill:#ff0000;stroke:#ff0000;" x="285.696492" xlink:href="#mcbd09d8874" y="284.771445"/>
     <use style="fill:#ff0000;stroke:#ff0000;" x="287.220691" xlink:href="#mcbd09d8874" y="284.771445"/>
     <use style="fill:#ff0000;stroke:#ff0000;" x="288.744891" xlink:href="#mcbd09d8874" y="279.1153"/>
     <use style="fill:#ff0000;stroke:#ff0000;" x="290.269091" xlink:href="#mcbd09d8874" y="279.1153"/>
     <use style="fill:#ff0000;stroke:#ff0000;" x="291.793291" xlink:href="#mcbd09d8874" y="262.425792"/>
     <use style="fill:#ff0000;stroke:#ff0000;" x="293.31749" xlink:href="#mcbd09d8874" y="262.425792"/>
     <use style="fill:#ff0000;stroke:#ff0000;" x="294.84169" xlink:href="#mcbd09d8874" y="260.092357"/>
     <use style="fill:#ff0000;stroke:#ff0000;" x="296.36589" xlink:href="#mcbd09d8874" y="260.092357"/>
     <use style="fill:#ff0000;stroke:#ff0000;" x="297.89009" xlink:href="#mcbd09d8874" y="274.306605"/>
     <use style="fill:#ff0000;stroke:#ff0000;" x="299.414289" xlink:href="#mcbd09d8874" y="258.507316"/>
     <use style="fill:#ff0000;stroke:#ff0000;" x="300.938489" xlink:href="#mcbd09d8874" y="258.507316"/>
     <use style="fill:#ff0000;stroke:#ff0000;" x="302.462689" xlink:href="#mcbd09d8874" y="240.166787"/>
     <use style="fill:#ff0000;stroke:#ff0000;" x="303.986889" xlink:href="#mcbd09d8874" y="240.166787"/>
     <use style="fill:#ff0000;stroke:#ff0000;" x="305.511088" xlink:href="#mcbd09d8874" y="223.051592"/>
     <use style="fill:#ff0000;stroke:#ff0000;" x="307.035288" xlink:href="#mcbd09d8874" y="223.051592"/>
     <use style="fill:#ff0000;stroke:#ff0000;" x="308.559488" xlink:href="#mcbd09d8874" y="223.051592"/>
     <use style="fill:#ff0000;stroke:#ff0000;" x="310.083688" xlink:href="#mcbd09d8874" y="206.651234"/>
     <use style="fill:#ff0000;stroke:#ff0000;" x="311.607887" xlink:href="#mcbd09d8874" y="206.651234"/>
     <use style="fill:#ff0000;stroke:#ff0000;" x="313.132087" xlink:href="#mcbd09d8874" y="221.084255"/>
     <use style="fill:#ff0000;stroke:#ff0000;" x="314.656287" xlink:href="#mcbd09d8874" y="221.084255"/>
     <use style="fill:#ff0000;stroke:#ff0000;" x="316.180487" xlink:href="#mcbd09d8874" y="218.334777"/>
     <use style="fill:#ff0000;stroke:#ff0000;" x="317.704686" xlink:href="#mcbd09d8874" y="218.334777"/>
     <use style="fill:#ff0000;stroke:#ff0000;" x="319.228886" xlink:href="#mcbd09d8874" y="235.890575"/>
     <use style="fill:#ff0000;stroke:#ff0000;" x="320.753086" xlink:href="#mcbd09d8874" y="235.890575"/>
     <use style="fill:#ff0000;stroke:#ff0000;" x="322.277286" xlink:href="#mcbd09d8874" y="235.890575"/>
     <use style="fill:#ff0000;stroke:#ff0000;" x="323.801485" xlink:href="#mcbd09d8874" y="231.785551"/>
     <use style="fill:#ff0000;stroke:#ff0000;" x="325.325685" xlink:href="#mcbd09d8874" y="247.357957"/>
     <use style="fill:#ff0000;stroke:#ff0000;" x="326.849885" xlink:href="#mcbd09d8874" y="247.357957"/>
     <use style="fill:#ff0000;stroke:#ff0000;" x="328.374085" xlink:href="#mcbd09d8874" y="262.79783"/>
     <use style="fill:#ff0000;stroke:#ff0000;" x="329.898284" xlink:href="#mcbd09d8874" y="262.79783"/>
     <use style="fill:#ff0000;stroke:#ff0000;" x="331.422484" xlink:href="#mcbd09d8874" y="244.653308"/>
     <use style="fill:#ff0000;stroke:#ff0000;" x="332.946684" xlink:href="#mcbd09d8874" y="244.653308"/>
     <use style="fill:#ff0000;stroke:#ff0000;" x="334.470883" xlink:href="#mcbd09d8874" y="249.464693"/>
     <use style="fill:#ff0000;stroke:#ff0000;" x="335.995083" xlink:href="#mcbd09d8874" y="249.464693"/>
     <use style="fill:#ff0000;stroke:#ff0000;" x="337.519283" xlink:href="#mcbd09d8874" y="249.464693"/>
     <use style="fill:#ff0000;stroke:#ff0000;" x="339.043483" xlink:href="#mcbd09d8874" y="234.14148"/>
     <use style="fill:#ff0000;stroke:#ff0000;" x="340.567682" xlink:href="#mcbd09d8874" y="234.14148"/>
     <use style="fill:#ff0000;stroke:#ff0000;" x="342.091882" xlink:href="#mcbd09d8874" y="232.910525"/>
     <use style="fill:#ff0000;stroke:#ff0000;" x="343.616082" xlink:href="#mcbd09d8874" y="232.910525"/>
     <use style="fill:#ff0000;stroke:#ff0000;" x="345.140282" xlink:href="#mcbd09d8874" y="250.183624"/>
     <use style="fill:#ff0000;stroke:#ff0000;" x="346.664481" xlink:href="#mcbd09d8874" y="250.183624"/>
     <use style="fill:#ff0000;stroke:#ff0000;" x="348.188681" xlink:href="#mcbd09d8874" y="265.689278"/>
     <use style="fill:#ff0000;stroke:#ff0000;" x="349.712881" xlink:href="#mcbd09d8874" y="280.849528"/>
     <use style="fill:#ff0000;stroke:#ff0000;" x="351.237081" xlink:href="#mcbd09d8874" y="280.849528"/>
     <use style="fill:#ff0000;stroke:#ff0000;" x="352.76128" xlink:href="#mcbd09d8874" y="295.488"/>
     <use style="fill:#ff0000;stroke:#ff0000;" x="354.28548" xlink:href="#mcbd09d8874" y="295.488"/>
     <use style="fill:#ff0000;stroke:#ff0000;" x="355.80968" xlink:href="#mcbd09d8874" y="275.590129"/>
     <use style="fill:#ff0000;stroke:#ff0000;" x="357.33388" xlink:href="#mcbd09d8874" y="275.590129"/>
     <use style="fill:#ff0000;stroke:#ff0000;" x="358.858079" xlink:href="#mcbd09d8874" y="275.590129"/>
     <use style="fill:#ff0000;stroke:#ff0000;" x="360.382279" xlink:href="#mcbd09d8874" y="275.590129"/>
     <use style="fill:#ff0000;stroke:#ff0000;" x="361.906479" xlink:href="#mcbd09d8874" y="275.590129"/>
     <use style="fill:#ff0000;stroke:#ff0000;" x="363.430679" xlink:href="#mcbd09d8874" y="275.590129"/>
     <use style="fill:#ff0000;stroke:#ff0000;" x="364.954878" xlink:href="#mcbd09d8874" y="275.590129"/>
     <use style="fill:#ff0000;stroke:#ff0000;" x="366.479078" xlink:href="#mcbd09d8874" y="275.590129"/>
     <use style="fill:#ff0000;stroke:#ff0000;" x="368.003278" xlink:href="#mcbd09d8874" y="275.590129"/>
     <use style="fill:#ff0000;stroke:#ff0000;" x="369.527478" xlink:href="#mcbd09d8874" y="275.590129"/>
     <use style="fill:#ff0000;stroke:#ff0000;" x="371.051677" xlink:href="#mcbd09d8874" y="275.590129"/>
     <use style="fill:#ff0000;stroke:#ff0000;" x="372.575877" xlink:href="#mcbd09d8874" y="275.590129"/>
     <use style="fill:#ff0000;stroke:#ff0000;" x="374.100077" xlink:href="#mcbd09d8874" y="275.590129"/>
     <use style="fill:#ff0000;stroke:#ff0000;" x="375.624277" xlink:href="#mcbd09d8874" y="275.590129"/>
     <use style="fill:#ff0000;stroke:#ff0000;" x="377.148476" xlink:href="#mcbd09d8874" y="275.590129"/>
     <use style="fill:#ff0000;stroke:#ff0000;" x="378.672676" xlink:href="#mcbd09d8874" y="275.590129"/>
     <use style="fill:#ff0000;stroke:#ff0000;" x="380.196876" xlink:href="#mcbd09d8874" y="275.590129"/>
     <use style="fill:#ff0000;stroke:#ff0000;" x="381.721076" xlink:href="#mcbd09d8874" y="275.590129"/>
     <use style="fill:#ff0000;stroke:#ff0000;" x="383.245275" xlink:href="#mcbd09d8874" y="275.590129"/>
     <use style="fill:#ff0000;stroke:#ff0000;" x="384.769475" xlink:href="#mcbd09d8874" y="275.590129"/>
     <use style="fill:#ff0000;stroke:#ff0000;" x="386.293675" xlink:href="#mcbd09d8874" y="275.590129"/>
     <use style="fill:#ff0000;stroke:#ff0000;" x="387.817875" xlink:href="#mcbd09d8874" y="275.590129"/>
     <use style="fill:#ff0000;stroke:#ff0000;" x="389.342074" xlink:href="#mcbd09d8874" y="275.590129"/>
     <use style="fill:#ff0000;stroke:#ff0000;" x="390.866274" xlink:href="#mcbd09d8874" y="275.590129"/>
     <use style="fill:#ff0000;stroke:#ff0000;" x="392.390474" xlink:href="#mcbd09d8874" y="275.590129"/>
     <use style="fill:#ff0000;stroke:#ff0000;" x="393.914673" xlink:href="#mcbd09d8874" y="275.590129"/>
     <use style="fill:#ff0000;stroke:#ff0000;" x="395.438873" xlink:href="#mcbd09d8874" y="275.590129"/>
     <use style="fill:#ff0000;stroke:#ff0000;" x="396.963073" xlink:href="#mcbd09d8874" y="275.590129"/>
     <use style="fill:#ff0000;stroke:#ff0000;" x="398.487273" xlink:href="#mcbd09d8874" y="275.590129"/>
    </g>
   </g>
   <g id="patch_3">
    <path d="M 57.6 307.584 
L 57.6 41.472 
" style="fill:none;stroke:#000000;stroke-linecap:square;stroke-linejoin:miter;stroke-width:0.8;"/>
   </g>
   <g id="patch_4">
    <path d="M 414.72 307.584 
L 414.72 41.472 
" style="fill:none;stroke:#000000;stroke-linecap:square;stroke-linejoin:miter;stroke-width:0.8;"/>
   </g>
   <g id="patch_5">
    <path d="M 57.6 307.584 
L 414.72 307.584 
" style="fill:none;stroke:#000000;stroke-linecap:square;stroke-linejoin:miter;stroke-width:0.8;"/>
   </g>
   <g id="patch_6">
    <path d="M 57.6 41.472 
L 414.72 41.472 
" style="fill:none;stroke:#000000;stroke-linecap:square;stroke-linejoin:miter;stroke-width:0.8;"/>
   </g>
  </g>
 </g>
 <defs>
  <clipPath id="pf66e45f745">
   <rect height="266.112" width="357.12" x="57.6" y="41.472"/>
  </clipPath>
 </defs>
</svg>
