<?xml version="1.0" encoding="utf-8" standalone="no"?>
<!DOCTYPE svg PUBLIC "-//W3C//DTD SVG 1.1//EN"
  "http://www.w3.org/Graphics/SVG/1.1/DTD/svg11.dtd">
<!-- Created with matplotlib (https://matplotlib.org/) -->
<svg height="345.6pt" version="1.1" viewBox="0 0 460.8 345.6" width="460.8pt" xmlns="http://www.w3.org/2000/svg" xmlns:xlink="http://www.w3.org/1999/xlink">
 <defs>
  <style type="text/css">
*{stroke-linecap:butt;stroke-linejoin:round;}
  </style>
 </defs>
 <g id="figure_1">
  <g id="patch_1">
   <path d="M 0 345.6 
L 460.8 345.6 
L 460.8 0 
L 0 0 
z
" style="fill:#ffffff;"/>
  </g>
  <g id="axes_1">
   <g id="patch_2">
    <path d="M 57.6 307.584 
L 414.72 307.584 
L 414.72 41.472 
L 57.6 41.472 
z
" style="fill:#ffffff;"/>
   </g>
   <g id="line2d_1">
    <path clip-path="url(#pcc2666a7a2)" d="M 73.832727 111.538318 
L 76.311006 111.538318 
L 77.550146 161.894341 
L 82.506704 161.894341 
L 83.745843 210.03582 
L 84.984983 210.03582 
L 86.224122 160.480244 
L 88.702401 160.480244 
L 89.941541 148.184406 
L 91.18068 148.184406 
L 92.41982 135.314259 
L 93.658959 135.314259 
L 94.898099 179.99651 
L 97.376378 179.99651 
L 98.615517 187.451601 
L 99.854656 187.451601 
L 101.093796 134.56495 
L 102.332935 134.56495 
L 103.572075 78.649619 
L 104.811214 68.512682 
L 106.050354 68.512682 
L 107.289493 84.879122 
L 108.528633 84.879122 
L 109.767772 68.176197 
L 111.006912 68.176197 
L 112.246051 53.568 
L 113.485191 53.568 
L 114.72433 70.992426 
L 115.96347 86.675631 
L 117.202609 86.675631 
L 118.441749 105.225466 
L 120.920028 105.225466 
L 122.159167 121.222084 
L 123.398307 121.222084 
L 124.637446 103.65713 
L 128.354865 103.65713 
L 130.833144 138.135398 
L 132.072283 138.135398 
L 133.311423 134.120283 
L 135.789702 134.120283 
L 137.028841 137.850859 
L 138.267981 137.850859 
L 139.50712 156.476213 
L 140.74626 156.476213 
L 141.985399 152.856749 
L 143.224539 152.856749 
L 144.463678 137.639858 
L 145.702817 137.639858 
L 146.941957 120.957305 
L 148.181096 120.957305 
L 149.420236 137.620468 
L 150.659375 137.620468 
L 151.898515 138.254948 
L 153.137654 138.254948 
L 154.376794 120.54889 
L 155.615933 120.54889 
L 156.855073 102.871215 
L 158.094212 102.871215 
L 159.333352 84.633148 
L 160.572491 84.633148 
L 161.811631 87.072328 
L 163.05077 71.421728 
L 164.28991 71.421728 
L 165.529049 89.11605 
L 166.768189 89.11605 
L 168.007328 106.823276 
L 171.724747 106.823276 
L 172.963886 121.40746 
L 177.920444 121.40746 
L 179.159584 138.706043 
L 180.398723 138.706043 
L 181.637863 154.499722 
L 182.877002 154.499722 
L 184.116142 169.97689 
L 185.355281 169.97689 
L 186.594421 153.652917 
L 189.0727 153.652917 
L 190.311839 172.288881 
L 191.550978 155.626535 
L 192.790118 155.626535 
L 194.029257 170.955534 
L 195.268397 170.955534 
L 196.507536 172.049942 
L 197.746676 172.049942 
L 198.985815 189.251606 
L 200.224955 189.251606 
L 201.464094 171.728385 
L 202.703234 171.728385 
L 203.942373 171.950911 
L 206.420652 171.950911 
L 208.898931 203.176442 
L 210.138071 203.176442 
L 211.37721 221.820609 
L 223.768605 221.820609 
L 225.007745 225.382573 
L 226.246884 227.047257 
L 227.486024 227.047257 
L 228.725163 243.85125 
L 229.964303 243.85125 
L 231.203442 225.662126 
L 232.442582 225.662126 
L 233.681721 240.263621 
L 237.399139 240.263621 
L 238.638279 255.396849 
L 239.877418 255.396849 
L 242.355697 285.278126 
L 244.833976 285.278126 
L 246.073116 284.771445 
L 247.312255 284.771445 
L 248.551395 279.1153 
L 249.790534 279.1153 
L 251.029674 262.425792 
L 252.268813 262.425792 
L 253.507953 260.092357 
L 254.747092 260.092357 
L 255.986232 274.306605 
L 257.225371 258.507316 
L 258.464511 258.507316 
L 259.70365 240.166787 
L 260.94279 240.166787 
L 262.181929 223.051592 
L 264.660208 223.051592 
L 265.899348 206.651234 
L 267.138487 206.651234 
L 268.377627 221.084255 
L 269.616766 221.084255 
L 270.855906 218.334777 
L 272.095045 218.334777 
L 273.334185 235.890575 
L 275.812464 235.890575 
L 277.051603 231.785551 
L 278.290743 247.357957 
L 279.529882 247.357957 
L 280.769022 262.79783 
L 282.008161 262.79783 
L 283.2473 244.653308 
L 284.48644 244.653308 
L 285.725579 249.464693 
L 288.203858 249.464693 
L 289.442998 234.14148 
L 290.682137 234.14148 
L 291.921277 232.910525 
L 293.160416 232.910525 
L 294.399556 250.183624 
L 295.638695 250.183624 
L 298.116974 280.849528 
L 299.356114 280.849528 
L 300.595253 295.488 
L 301.834393 295.488 
L 303.073532 275.590129 
L 398.487273 275.590129 
L 398.487273 275.590129 
" style="fill:none;stroke:#ff0000;stroke-linecap:square;stroke-width:12;"/>
    <defs>
     <path d="M 0 3 
C 0.795609 3 1.55874 2.683901 2.12132 2.12132 
C 2.683901 1.55874 3 0.795609 3 0 
C 3 -0.795609 2.683901 -1.55874 2.12132 -2.12132 
C 1.55874 -2.683901 0.795609 -3 0 -3 
C -0.795609 -3 -1.55874 -2.683901 -2.12132 -2.12132 
C -2.683901 -1.55874 -3 -0.795609 -3 0 
C -3 0.795609 -2.683901 1.55874 -2.12132 2.12132 
C -1.55874 2.683901 -0.795609 3 0 3 
z
" id="mb5a421174c" style="stroke:#ff0000;"/>
    </defs>
    <g clip-path="url(#pcc2666a7a2)">
     <use style="fill:#ff0000;stroke:#ff0000;" x="73.832727" xlink:href="#mb5a421174c" y="111.538318"/>
     <use style="fill:#ff0000;stroke:#ff0000;" x="75.071867" xlink:href="#mb5a421174c" y="111.538318"/>
     <use style="fill:#ff0000;stroke:#ff0000;" x="76.311006" xlink:href="#mb5a421174c" y="111.538318"/>
     <use style="fill:#ff0000;stroke:#ff0000;" x="77.550146" xlink:href="#mb5a421174c" y="161.894341"/>
     <use style="fill:#ff0000;stroke:#ff0000;" x="78.789285" xlink:href="#mb5a421174c" y="161.894341"/>
     <use style="fill:#ff0000;stroke:#ff0000;" x="80.028425" xlink:href="#mb5a421174c" y="161.894341"/>
     <use style="fill:#ff0000;stroke:#ff0000;" x="81.267564" xlink:href="#mb5a421174c" y="161.894341"/>
     <use style="fill:#ff0000;stroke:#ff0000;" x="82.506704" xlink:href="#mb5a421174c" y="161.894341"/>
     <use style="fill:#ff0000;stroke:#ff0000;" x="83.745843" xlink:href="#mb5a421174c" y="210.03582"/>
     <use style="fill:#ff0000;stroke:#ff0000;" x="84.984983" xlink:href="#mb5a421174c" y="210.03582"/>
     <use style="fill:#ff0000;stroke:#ff0000;" x="86.224122" xlink:href="#mb5a421174c" y="160.480244"/>
     <use style="fill:#ff0000;stroke:#ff0000;" x="87.463262" xlink:href="#mb5a421174c" y="160.480244"/>
     <use style="fill:#ff0000;stroke:#ff0000;" x="88.702401" xlink:href="#mb5a421174c" y="160.480244"/>
     <use style="fill:#ff0000;stroke:#ff0000;" x="89.941541" xlink:href="#mb5a421174c" y="148.184406"/>
     <use style="fill:#ff0000;stroke:#ff0000;" x="91.18068" xlink:href="#mb5a421174c" y="148.184406"/>
     <use style="fill:#ff0000;stroke:#ff0000;" x="92.41982" xlink:href="#mb5a421174c" y="135.314259"/>
     <use style="fill:#ff0000;stroke:#ff0000;" x="93.658959" xlink:href="#mb5a421174c" y="135.314259"/>
     <use style="fill:#ff0000;stroke:#ff0000;" x="94.898099" xlink:href="#mb5a421174c" y="179.99651"/>
     <use style="fill:#ff0000;stroke:#ff0000;" x="96.137238" xlink:href="#mb5a421174c" y="179.99651"/>
     <use style="fill:#ff0000;stroke:#ff0000;" x="97.376378" xlink:href="#mb5a421174c" y="179.99651"/>
     <use style="fill:#ff0000;stroke:#ff0000;" x="98.615517" xlink:href="#mb5a421174c" y="187.451601"/>
     <use style="fill:#ff0000;stroke:#ff0000;" x="99.854656" xlink:href="#mb5a421174c" y="187.451601"/>
     <use style="fill:#ff0000;stroke:#ff0000;" x="101.093796" xlink:href="#mb5a421174c" y="134.56495"/>
     <use style="fill:#ff0000;stroke:#ff0000;" x="102.332935" xlink:href="#mb5a421174c" y="134.56495"/>
     <use style="fill:#ff0000;stroke:#ff0000;" x="103.572075" xlink:href="#mb5a421174c" y="78.649619"/>
     <use style="fill:#ff0000;stroke:#ff0000;" x="104.811214" xlink:href="#mb5a421174c" y="68.512682"/>
     <use style="fill:#ff0000;stroke:#ff0000;" x="106.050354" xlink:href="#mb5a421174c" y="68.512682"/>
     <use style="fill:#ff0000;stroke:#ff0000;" x="107.289493" xlink:href="#mb5a421174c" y="84.879122"/>
     <use style="fill:#ff0000;stroke:#ff0000;" x="108.528633" xlink:href="#mb5a421174c" y="84.879122"/>
     <use style="fill:#ff0000;stroke:#ff0000;" x="109.767772" xlink:href="#mb5a421174c" y="68.176197"/>
     <use style="fill:#ff0000;stroke:#ff0000;" x="111.006912" xlink:href="#mb5a421174c" y="68.176197"/>
     <use style="fill:#ff0000;stroke:#ff0000;" x="112.246051" xlink:href="#mb5a421174c" y="53.568"/>
     <use style="fill:#ff0000;stroke:#ff0000;" x="113.485191" xlink:href="#mb5a421174c" y="53.568"/>
     <use style="fill:#ff0000;stroke:#ff0000;" x="114.72433" xlink:href="#mb5a421174c" y="70.992426"/>
     <use style="fill:#ff0000;stroke:#ff0000;" x="115.96347" xlink:href="#mb5a421174c" y="86.675631"/>
     <use style="fill:#ff0000;stroke:#ff0000;" x="117.202609" xlink:href="#mb5a421174c" y="86.675631"/>
     <use style="fill:#ff0000;stroke:#ff0000;" x="118.441749" xlink:href="#mb5a421174c" y="105.225466"/>
     <use style="fill:#ff0000;stroke:#ff0000;" x="119.680888" xlink:href="#mb5a421174c" y="105.225466"/>
     <use style="fill:#ff0000;stroke:#ff0000;" x="120.920028" xlink:href="#mb5a421174c" y="105.225466"/>
     <use style="fill:#ff0000;stroke:#ff0000;" x="122.159167" xlink:href="#mb5a421174c" y="121.222084"/>
     <use style="fill:#ff0000;stroke:#ff0000;" x="123.398307" xlink:href="#mb5a421174c" y="121.222084"/>
     <use style="fill:#ff0000;stroke:#ff0000;" x="124.637446" xlink:href="#mb5a421174c" y="103.65713"/>
     <use style="fill:#ff0000;stroke:#ff0000;" x="125.876586" xlink:href="#mb5a421174c" y="103.65713"/>
     <use style="fill:#ff0000;stroke:#ff0000;" x="127.115725" xlink:href="#mb5a421174c" y="103.65713"/>
     <use style="fill:#ff0000;stroke:#ff0000;" x="128.354865" xlink:href="#mb5a421174c" y="103.65713"/>
     <use style="fill:#ff0000;stroke:#ff0000;" x="129.594004" xlink:href="#mb5a421174c" y="120.588247"/>
     <use style="fill:#ff0000;stroke:#ff0000;" x="130.833144" xlink:href="#mb5a421174c" y="138.135398"/>
     <use style="fill:#ff0000;stroke:#ff0000;" x="132.072283" xlink:href="#mb5a421174c" y="138.135398"/>
     <use style="fill:#ff0000;stroke:#ff0000;" x="133.311423" xlink:href="#mb5a421174c" y="134.120283"/>
     <use style="fill:#ff0000;stroke:#ff0000;" x="134.550562" xlink:href="#mb5a421174c" y="134.120283"/>
     <use style="fill:#ff0000;stroke:#ff0000;" x="135.789702" xlink:href="#mb5a421174c" y="134.120283"/>
     <use style="fill:#ff0000;stroke:#ff0000;" x="137.028841" xlink:href="#mb5a421174c" y="137.850859"/>
     <use style="fill:#ff0000;stroke:#ff0000;" x="138.267981" xlink:href="#mb5a421174c" y="137.850859"/>
     <use style="fill:#ff0000;stroke:#ff0000;" x="139.50712" xlink:href="#mb5a421174c" y="156.476213"/>
     <use style="fill:#ff0000;stroke:#ff0000;" x="140.74626" xlink:href="#mb5a421174c" y="156.476213"/>
     <use style="fill:#ff0000;stroke:#ff0000;" x="141.985399" xlink:href="#mb5a421174c" y="152.856749"/>
     <use style="fill:#ff0000;stroke:#ff0000;" x="143.224539" xlink:href="#mb5a421174c" y="152.856749"/>
     <use style="fill:#ff0000;stroke:#ff0000;" x="144.463678" xlink:href="#mb5a421174c" y="137.639858"/>
     <use style="fill:#ff0000;stroke:#ff0000;" x="145.702817" xlink:href="#mb5a421174c" y="137.639858"/>
     <use style="fill:#ff0000;stroke:#ff0000;" x="146.941957" xlink:href="#mb5a421174c" y="120.957305"/>
     <use style="fill:#ff0000;stroke:#ff0000;" x="148.181096" xlink:href="#mb5a421174c" y="120.957305"/>
     <use style="fill:#ff0000;stroke:#ff0000;" x="149.420236" xlink:href="#mb5a421174c" y="137.620468"/>
     <use style="fill:#ff0000;stroke:#ff0000;" x="150.659375" xlink:href="#mb5a421174c" y="137.620468"/>
     <use style="fill:#ff0000;stroke:#ff0000;" x="151.898515" xlink:href="#mb5a421174c" y="138.254948"/>
     <use style="fill:#ff0000;stroke:#ff0000;" x="153.137654" xlink:href="#mb5a421174c" y="138.254948"/>
     <use style="fill:#ff0000;stroke:#ff0000;" x="154.376794" xlink:href="#mb5a421174c" y="120.54889"/>
     <use style="fill:#ff0000;stroke:#ff0000;" x="155.615933" xlink:href="#mb5a421174c" y="120.54889"/>
     <use style="fill:#ff0000;stroke:#ff0000;" x="156.855073" xlink:href="#mb5a421174c" y="102.871215"/>
     <use style="fill:#ff0000;stroke:#ff0000;" x="158.094212" xlink:href="#mb5a421174c" y="102.871215"/>
     <use style="fill:#ff0000;stroke:#ff0000;" x="159.333352" xlink:href="#mb5a421174c" y="84.633148"/>
     <use style="fill:#ff0000;stroke:#ff0000;" x="160.572491" xlink:href="#mb5a421174c" y="84.633148"/>
     <use style="fill:#ff0000;stroke:#ff0000;" x="161.811631" xlink:href="#mb5a421174c" y="87.072328"/>
     <use style="fill:#ff0000;stroke:#ff0000;" x="163.05077" xlink:href="#mb5a421174c" y="71.421728"/>
     <use style="fill:#ff0000;stroke:#ff0000;" x="164.28991" xlink:href="#mb5a421174c" y="71.421728"/>
     <use style="fill:#ff0000;stroke:#ff0000;" x="165.529049" xlink:href="#mb5a421174c" y="89.11605"/>
     <use style="fill:#ff0000;stroke:#ff0000;" x="166.768189" xlink:href="#mb5a421174c" y="89.11605"/>
     <use style="fill:#ff0000;stroke:#ff0000;" x="168.007328" xlink:href="#mb5a421174c" y="106.823276"/>
     <use style="fill:#ff0000;stroke:#ff0000;" x="169.246468" xlink:href="#mb5a421174c" y="106.823276"/>
     <use style="fill:#ff0000;stroke:#ff0000;" x="170.485607" xlink:href="#mb5a421174c" y="106.823276"/>
     <use style="fill:#ff0000;stroke:#ff0000;" x="171.724747" xlink:href="#mb5a421174c" y="106.823276"/>
     <use style="fill:#ff0000;stroke:#ff0000;" x="172.963886" xlink:href="#mb5a421174c" y="121.40746"/>
     <use style="fill:#ff0000;stroke:#ff0000;" x="174.203026" xlink:href="#mb5a421174c" y="121.40746"/>
     <use style="fill:#ff0000;stroke:#ff0000;" x="175.442165" xlink:href="#mb5a421174c" y="121.40746"/>
     <use style="fill:#ff0000;stroke:#ff0000;" x="176.681305" xlink:href="#mb5a421174c" y="121.40746"/>
     <use style="fill:#ff0000;stroke:#ff0000;" x="177.920444" xlink:href="#mb5a421174c" y="121.40746"/>
     <use style="fill:#ff0000;stroke:#ff0000;" x="179.159584" xlink:href="#mb5a421174c" y="138.706043"/>
     <use style="fill:#ff0000;stroke:#ff0000;" x="180.398723" xlink:href="#mb5a421174c" y="138.706043"/>
     <use style="fill:#ff0000;stroke:#ff0000;" x="181.637863" xlink:href="#mb5a421174c" y="154.499722"/>
     <use style="fill:#ff0000;stroke:#ff0000;" x="182.877002" xlink:href="#mb5a421174c" y="154.499722"/>
     <use style="fill:#ff0000;stroke:#ff0000;" x="184.116142" xlink:href="#mb5a421174c" y="169.97689"/>
     <use style="fill:#ff0000;stroke:#ff0000;" x="185.355281" xlink:href="#mb5a421174c" y="169.97689"/>
     <use style="fill:#ff0000;stroke:#ff0000;" x="186.594421" xlink:href="#mb5a421174c" y="153.652917"/>
     <use style="fill:#ff0000;stroke:#ff0000;" x="187.83356" xlink:href="#mb5a421174c" y="153.652917"/>
     <use style="fill:#ff0000;stroke:#ff0000;" x="189.0727" xlink:href="#mb5a421174c" y="153.652917"/>
     <use style="fill:#ff0000;stroke:#ff0000;" x="190.311839" xlink:href="#mb5a421174c" y="172.288881"/>
     <use style="fill:#ff0000;stroke:#ff0000;" x="191.550978" xlink:href="#mb5a421174c" y="155.626535"/>
     <use style="fill:#ff0000;stroke:#ff0000;" x="192.790118" xlink:href="#mb5a421174c" y="155.626535"/>
     <use style="fill:#ff0000;stroke:#ff0000;" x="194.029257" xlink:href="#mb5a421174c" y="170.955534"/>
     <use style="fill:#ff0000;stroke:#ff0000;" x="195.268397" xlink:href="#mb5a421174c" y="170.955534"/>
     <use style="fill:#ff0000;stroke:#ff0000;" x="196.507536" xlink:href="#mb5a421174c" y="172.049942"/>
     <use style="fill:#ff0000;stroke:#ff0000;" x="197.746676" xlink:href="#mb5a421174c" y="172.049942"/>
     <use style="fill:#ff0000;stroke:#ff0000;" x="198.985815" xlink:href="#mb5a421174c" y="189.251606"/>
     <use style="fill:#ff0000;stroke:#ff0000;" x="200.224955" xlink:href="#mb5a421174c" y="189.251606"/>
     <use style="fill:#ff0000;stroke:#ff0000;" x="201.464094" xlink:href="#mb5a421174c" y="171.728385"/>
     <use style="fill:#ff0000;stroke:#ff0000;" x="202.703234" xlink:href="#mb5a421174c" y="171.728385"/>
     <use style="fill:#ff0000;stroke:#ff0000;" x="203.942373" xlink:href="#mb5a421174c" y="171.950911"/>
     <use style="fill:#ff0000;stroke:#ff0000;" x="205.181513" xlink:href="#mb5a421174c" y="171.950911"/>
     <use style="fill:#ff0000;stroke:#ff0000;" x="206.420652" xlink:href="#mb5a421174c" y="171.950911"/>
     <use style="fill:#ff0000;stroke:#ff0000;" x="207.659792" xlink:href="#mb5a421174c" y="186.918172"/>
     <use style="fill:#ff0000;stroke:#ff0000;" x="208.898931" xlink:href="#mb5a421174c" y="203.176442"/>
     <use style="fill:#ff0000;stroke:#ff0000;" x="210.138071" xlink:href="#mb5a421174c" y="203.176442"/>
     <use style="fill:#ff0000;stroke:#ff0000;" x="211.37721" xlink:href="#mb5a421174c" y="221.820609"/>
     <use style="fill:#ff0000;stroke:#ff0000;" x="212.61635" xlink:href="#mb5a421174c" y="221.820609"/>
     <use style="fill:#ff0000;stroke:#ff0000;" x="213.855489" xlink:href="#mb5a421174c" y="221.820609"/>
     <use style="fill:#ff0000;stroke:#ff0000;" x="215.094629" xlink:href="#mb5a421174c" y="221.820609"/>
     <use style="fill:#ff0000;stroke:#ff0000;" x="216.333768" xlink:href="#mb5a421174c" y="221.820609"/>
     <use style="fill:#ff0000;stroke:#ff0000;" x="217.572908" xlink:href="#mb5a421174c" y="221.820609"/>
     <use style="fill:#ff0000;stroke:#ff0000;" x="218.812047" xlink:href="#mb5a421174c" y="221.820609"/>
     <use style="fill:#ff0000;stroke:#ff0000;" x="220.051187" xlink:href="#mb5a421174c" y="221.820609"/>
     <use style="fill:#ff0000;stroke:#ff0000;" x="221.290326" xlink:href="#mb5a421174c" y="221.820609"/>
     <use style="fill:#ff0000;stroke:#ff0000;" x="222.529466" xlink:href="#mb5a421174c" y="221.820609"/>
     <use style="fill:#ff0000;stroke:#ff0000;" x="223.768605" xlink:href="#mb5a421174c" y="221.820609"/>
     <use style="fill:#ff0000;stroke:#ff0000;" x="225.007745" xlink:href="#mb5a421174c" y="225.382573"/>
     <use style="fill:#ff0000;stroke:#ff0000;" x="226.246884" xlink:href="#mb5a421174c" y="227.047257"/>
     <use style="fill:#ff0000;stroke:#ff0000;" x="227.486024" xlink:href="#mb5a421174c" y="227.047257"/>
     <use style="fill:#ff0000;stroke:#ff0000;" x="228.725163" xlink:href="#mb5a421174c" y="243.85125"/>
     <use style="fill:#ff0000;stroke:#ff0000;" x="229.964303" xlink:href="#mb5a421174c" y="243.85125"/>
     <use style="fill:#ff0000;stroke:#ff0000;" x="231.203442" xlink:href="#mb5a421174c" y="225.662126"/>
     <use style="fill:#ff0000;stroke:#ff0000;" x="232.442582" xlink:href="#mb5a421174c" y="225.662126"/>
     <use style="fill:#ff0000;stroke:#ff0000;" x="233.681721" xlink:href="#mb5a421174c" y="240.263621"/>
     <use style="fill:#ff0000;stroke:#ff0000;" x="234.920861" xlink:href="#mb5a421174c" y="240.263621"/>
     <use style="fill:#ff0000;stroke:#ff0000;" x="236.16" xlink:href="#mb5a421174c" y="240.263621"/>
     <use style="fill:#ff0000;stroke:#ff0000;" x="237.399139" xlink:href="#mb5a421174c" y="240.263621"/>
     <use style="fill:#ff0000;stroke:#ff0000;" x="238.638279" xlink:href="#mb5a421174c" y="255.396849"/>
     <use style="fill:#ff0000;stroke:#ff0000;" x="239.877418" xlink:href="#mb5a421174c" y="255.396849"/>
     <use style="fill:#ff0000;stroke:#ff0000;" x="241.116558" xlink:href="#mb5a421174c" y="270.706242"/>
     <use style="fill:#ff0000;stroke:#ff0000;" x="242.355697" xlink:href="#mb5a421174c" y="285.278126"/>
     <use style="fill:#ff0000;stroke:#ff0000;" x="243.594837" xlink:href="#mb5a421174c" y="285.278126"/>
     <use style="fill:#ff0000;stroke:#ff0000;" x="244.833976" xlink:href="#mb5a421174c" y="285.278126"/>
     <use style="fill:#ff0000;stroke:#ff0000;" x="246.073116" xlink:href="#mb5a421174c" y="284.771445"/>
     <use style="fill:#ff0000;stroke:#ff0000;" x="247.312255" xlink:href="#mb5a421174c" y="284.771445"/>
     <use style="fill:#ff0000;stroke:#ff0000;" x="248.551395" xlink:href="#mb5a421174c" y="279.1153"/>
     <use style="fill:#ff0000;stroke:#ff0000;" x="249.790534" xlink:href="#mb5a421174c" y="279.1153"/>
     <use style="fill:#ff0000;stroke:#ff0000;" x="251.029674" xlink:href="#mb5a421174c" y="262.425792"/>
     <use style="fill:#ff0000;stroke:#ff0000;" x="252.268813" xlink:href="#mb5a421174c" y="262.425792"/>
     <use style="fill:#ff0000;stroke:#ff0000;" x="253.507953" xlink:href="#mb5a421174c" y="260.092357"/>
     <use style="fill:#ff0000;stroke:#ff0000;" x="254.747092" xlink:href="#mb5a421174c" y="260.092357"/>
     <use style="fill:#ff0000;stroke:#ff0000;" x="255.986232" xlink:href="#mb5a421174c" y="274.306605"/>
     <use style="fill:#ff0000;stroke:#ff0000;" x="257.225371" xlink:href="#mb5a421174c" y="258.507316"/>
     <use style="fill:#ff0000;stroke:#ff0000;" x="258.464511" xlink:href="#mb5a421174c" y="258.507316"/>
     <use style="fill:#ff0000;stroke:#ff0000;" x="259.70365" xlink:href="#mb5a421174c" y="240.166787"/>
     <use style="fill:#ff0000;stroke:#ff0000;" x="260.94279" xlink:href="#mb5a421174c" y="240.166787"/>
     <use style="fill:#ff0000;stroke:#ff0000;" x="262.181929" xlink:href="#mb5a421174c" y="223.051592"/>
     <use style="fill:#ff0000;stroke:#ff0000;" x="263.421069" xlink:href="#mb5a421174c" y="223.051592"/>
     <use style="fill:#ff0000;stroke:#ff0000;" x="264.660208" xlink:href="#mb5a421174c" y="223.051592"/>
     <use style="fill:#ff0000;stroke:#ff0000;" x="265.899348" xlink:href="#mb5a421174c" y="206.651234"/>
     <use style="fill:#ff0000;stroke:#ff0000;" x="267.138487" xlink:href="#mb5a421174c" y="206.651234"/>
     <use style="fill:#ff0000;stroke:#ff0000;" x="268.377627" xlink:href="#mb5a421174c" y="221.084255"/>
     <use style="fill:#ff0000;stroke:#ff0000;" x="269.616766" xlink:href="#mb5a421174c" y="221.084255"/>
     <use style="fill:#ff0000;stroke:#ff0000;" x="270.855906" xlink:href="#mb5a421174c" y="218.334777"/>
     <use style="fill:#ff0000;stroke:#ff0000;" x="272.095045" xlink:href="#mb5a421174c" y="218.334777"/>
     <use style="fill:#ff0000;stroke:#ff0000;" x="273.334185" xlink:href="#mb5a421174c" y="235.890575"/>
     <use style="fill:#ff0000;stroke:#ff0000;" x="274.573324" xlink:href="#mb5a421174c" y="235.890575"/>
     <use style="fill:#ff0000;stroke:#ff0000;" x="275.812464" xlink:href="#mb5a421174c" y="235.890575"/>
     <use style="fill:#ff0000;stroke:#ff0000;" x="277.051603" xlink:href="#mb5a421174c" y="231.785551"/>
     <use style="fill:#ff0000;stroke:#ff0000;" x="278.290743" xlink:href="#mb5a421174c" y="247.357957"/>
     <use style="fill:#ff0000;stroke:#ff0000;" x="279.529882" xlink:href="#mb5a421174c" y="247.357957"/>
     <use style="fill:#ff0000;stroke:#ff0000;" x="280.769022" xlink:href="#mb5a421174c" y="262.79783"/>
     <use style="fill:#ff0000;stroke:#ff0000;" x="282.008161" xlink:href="#mb5a421174c" y="262.79783"/>
     <use style="fill:#ff0000;stroke:#ff0000;" x="283.2473" xlink:href="#mb5a421174c" y="244.653308"/>
     <use style="fill:#ff0000;stroke:#ff0000;" x="284.48644" xlink:href="#mb5a421174c" y="244.653308"/>
     <use style="fill:#ff0000;stroke:#ff0000;" x="285.725579" xlink:href="#mb5a421174c" y="249.464693"/>
     <use style="fill:#ff0000;stroke:#ff0000;" x="286.964719" xlink:href="#mb5a421174c" y="249.464693"/>
     <use style="fill:#ff0000;stroke:#ff0000;" x="288.203858" xlink:href="#mb5a421174c" y="249.464693"/>
     <use style="fill:#ff0000;stroke:#ff0000;" x="289.442998" xlink:href="#mb5a421174c" y="234.14148"/>
     <use style="fill:#ff0000;stroke:#ff0000;" x="290.682137" xlink:href="#mb5a421174c" y="234.14148"/>
     <use style="fill:#ff0000;stroke:#ff0000;" x="291.921277" xlink:href="#mb5a421174c" y="232.910525"/>
     <use style="fill:#ff0000;stroke:#ff0000;" x="293.160416" xlink:href="#mb5a421174c" y="232.910525"/>
     <use style="fill:#ff0000;stroke:#ff0000;" x="294.399556" xlink:href="#mb5a421174c" y="250.183624"/>
     <use style="fill:#ff0000;stroke:#ff0000;" x="295.638695" xlink:href="#mb5a421174c" y="250.183624"/>
     <use style="fill:#ff0000;stroke:#ff0000;" x="296.877835" xlink:href="#mb5a421174c" y="265.689278"/>
     <use style="fill:#ff0000;stroke:#ff0000;" x="298.116974" xlink:href="#mb5a421174c" y="280.849528"/>
     <use style="fill:#ff0000;stroke:#ff0000;" x="299.356114" xlink:href="#mb5a421174c" y="280.849528"/>
     <use style="fill:#ff0000;stroke:#ff0000;" x="300.595253" xlink:href="#mb5a421174c" y="295.488"/>
     <use style="fill:#ff0000;stroke:#ff0000;" x="301.834393" xlink:href="#mb5a421174c" y="295.488"/>
     <use style="fill:#ff0000;stroke:#ff0000;" x="303.073532" xlink:href="#mb5a421174c" y="275.590129"/>
     <use style="fill:#ff0000;stroke:#ff0000;" x="304.312672" xlink:href="#mb5a421174c" y="275.590129"/>
     <use style="fill:#ff0000;stroke:#ff0000;" x="305.551811" xlink:href="#mb5a421174c" y="275.590129"/>
     <use style="fill:#ff0000;stroke:#ff0000;" x="306.790951" xlink:href="#mb5a421174c" y="275.590129"/>
     <use style="fill:#ff0000;stroke:#ff0000;" x="308.03009" xlink:href="#mb5a421174c" y="275.590129"/>
     <use style="fill:#ff0000;stroke:#ff0000;" x="309.26923" xlink:href="#mb5a421174c" y="275.590129"/>
     <use style="fill:#ff0000;stroke:#ff0000;" x="310.508369" xlink:href="#mb5a421174c" y="275.590129"/>
     <use style="fill:#ff0000;stroke:#ff0000;" x="311.747509" xlink:href="#mb5a421174c" y="275.590129"/>
     <use style="fill:#ff0000;stroke:#ff0000;" x="312.986648" xlink:href="#mb5a421174c" y="275.590129"/>
     <use style="fill:#ff0000;stroke:#ff0000;" x="314.225788" xlink:href="#mb5a421174c" y="275.590129"/>
     <use style="fill:#ff0000;stroke:#ff0000;" x="315.464927" xlink:href="#mb5a421174c" y="275.590129"/>
     <use style="fill:#ff0000;stroke:#ff0000;" x="316.704067" xlink:href="#mb5a421174c" y="275.590129"/>
     <use style="fill:#ff0000;stroke:#ff0000;" x="317.943206" xlink:href="#mb5a421174c" y="275.590129"/>
     <use style="fill:#ff0000;stroke:#ff0000;" x="319.182346" xlink:href="#mb5a421174c" y="275.590129"/>
     <use style="fill:#ff0000;stroke:#ff0000;" x="320.421485" xlink:href="#mb5a421174c" y="275.590129"/>
     <use style="fill:#ff0000;stroke:#ff0000;" x="321.660625" xlink:href="#mb5a421174c" y="275.590129"/>
     <use style="fill:#ff0000;stroke:#ff0000;" x="322.899764" xlink:href="#mb5a421174c" y="275.590129"/>
     <use style="fill:#ff0000;stroke:#ff0000;" x="324.138904" xlink:href="#mb5a421174c" y="275.590129"/>
     <use style="fill:#ff0000;stroke:#ff0000;" x="325.378043" xlink:href="#mb5a421174c" y="275.590129"/>
     <use style="fill:#ff0000;stroke:#ff0000;" x="326.617183" xlink:href="#mb5a421174c" y="275.590129"/>
     <use style="fill:#ff0000;stroke:#ff0000;" x="327.856322" xlink:href="#mb5a421174c" y="275.590129"/>
     <use style="fill:#ff0000;stroke:#ff0000;" x="329.095461" xlink:href="#mb5a421174c" y="275.590129"/>
     <use style="fill:#ff0000;stroke:#ff0000;" x="330.334601" xlink:href="#mb5a421174c" y="275.590129"/>
     <use style="fill:#ff0000;stroke:#ff0000;" x="331.57374" xlink:href="#mb5a421174c" y="275.590129"/>
     <use style="fill:#ff0000;stroke:#ff0000;" x="332.81288" xlink:href="#mb5a421174c" y="275.590129"/>
     <use style="fill:#ff0000;stroke:#ff0000;" x="334.052019" xlink:href="#mb5a421174c" y="275.590129"/>
     <use style="fill:#ff0000;stroke:#ff0000;" x="335.291159" xlink:href="#mb5a421174c" y="275.590129"/>
     <use style="fill:#ff0000;stroke:#ff0000;" x="336.530298" xlink:href="#mb5a421174c" y="275.590129"/>
     <use style="fill:#ff0000;stroke:#ff0000;" x="337.769438" xlink:href="#mb5a421174c" y="275.590129"/>
     <use style="fill:#ff0000;stroke:#ff0000;" x="339.008577" xlink:href="#mb5a421174c" y="275.590129"/>
     <use style="fill:#ff0000;stroke:#ff0000;" x="340.247717" xlink:href="#mb5a421174c" y="275.590129"/>
     <use style="fill:#ff0000;stroke:#ff0000;" x="341.486856" xlink:href="#mb5a421174c" y="275.590129"/>
     <use style="fill:#ff0000;stroke:#ff0000;" x="342.725996" xlink:href="#mb5a421174c" y="275.590129"/>
     <use style="fill:#ff0000;stroke:#ff0000;" x="343.965135" xlink:href="#mb5a421174c" y="275.590129"/>
     <use style="fill:#ff0000;stroke:#ff0000;" x="345.204275" xlink:href="#mb5a421174c" y="275.590129"/>
     <use style="fill:#ff0000;stroke:#ff0000;" x="346.443414" xlink:href="#mb5a421174c" y="275.590129"/>
     <use style="fill:#ff0000;stroke:#ff0000;" x="347.682554" xlink:href="#mb5a421174c" y="275.590129"/>
     <use style="fill:#ff0000;stroke:#ff0000;" x="348.921693" xlink:href="#mb5a421174c" y="275.590129"/>
     <use style="fill:#ff0000;stroke:#ff0000;" x="350.160833" xlink:href="#mb5a421174c" y="275.590129"/>
     <use style="fill:#ff0000;stroke:#ff0000;" x="351.399972" xlink:href="#mb5a421174c" y="275.590129"/>
     <use style="fill:#ff0000;stroke:#ff0000;" x="352.639112" xlink:href="#mb5a421174c" y="275.590129"/>
     <use style="fill:#ff0000;stroke:#ff0000;" x="353.878251" xlink:href="#mb5a421174c" y="275.590129"/>
     <use style="fill:#ff0000;stroke:#ff0000;" x="355.117391" xlink:href="#mb5a421174c" y="275.590129"/>
     <use style="fill:#ff0000;stroke:#ff0000;" x="356.35653" xlink:href="#mb5a421174c" y="275.590129"/>
     <use style="fill:#ff0000;stroke:#ff0000;" x="357.59567" xlink:href="#mb5a421174c" y="275.590129"/>
     <use style="fill:#ff0000;stroke:#ff0000;" x="358.834809" xlink:href="#mb5a421174c" y="275.590129"/>
     <use style="fill:#ff0000;stroke:#ff0000;" x="360.073949" xlink:href="#mb5a421174c" y="275.590129"/>
     <use style="fill:#ff0000;stroke:#ff0000;" x="361.313088" xlink:href="#mb5a421174c" y="275.590129"/>
     <use style="fill:#ff0000;stroke:#ff0000;" x="362.552228" xlink:href="#mb5a421174c" y="275.590129"/>
     <use style="fill:#ff0000;stroke:#ff0000;" x="363.791367" xlink:href="#mb5a421174c" y="275.590129"/>
     <use style="fill:#ff0000;stroke:#ff0000;" x="365.030507" xlink:href="#mb5a421174c" y="275.590129"/>
     <use style="fill:#ff0000;stroke:#ff0000;" x="366.269646" xlink:href="#mb5a421174c" y="275.590129"/>
     <use style="fill:#ff0000;stroke:#ff0000;" x="367.508786" xlink:href="#mb5a421174c" y="275.590129"/>
     <use style="fill:#ff0000;stroke:#ff0000;" x="368.747925" xlink:href="#mb5a421174c" y="275.590129"/>
     <use style="fill:#ff0000;stroke:#ff0000;" x="369.987065" xlink:href="#mb5a421174c" y="275.590129"/>
     <use style="fill:#ff0000;stroke:#ff0000;" x="371.226204" xlink:href="#mb5a421174c" y="275.590129"/>
     <use style="fill:#ff0000;stroke:#ff0000;" x="372.465344" xlink:href="#mb5a421174c" y="275.590129"/>
     <use style="fill:#ff0000;stroke:#ff0000;" x="373.704483" xlink:href="#mb5a421174c" y="275.590129"/>
     <use style="fill:#ff0000;stroke:#ff0000;" x="374.943622" xlink:href="#mb5a421174c" y="275.590129"/>
     <use style="fill:#ff0000;stroke:#ff0000;" x="376.182762" xlink:href="#mb5a421174c" y="275.590129"/>
     <use style="fill:#ff0000;stroke:#ff0000;" x="377.421901" xlink:href="#mb5a421174c" y="275.590129"/>
     <use style="fill:#ff0000;stroke:#ff0000;" x="378.661041" xlink:href="#mb5a421174c" y="275.590129"/>
     <use style="fill:#ff0000;stroke:#ff0000;" x="379.90018" xlink:href="#mb5a421174c" y="275.590129"/>
     <use style="fill:#ff0000;stroke:#ff0000;" x="381.13932" xlink:href="#mb5a421174c" y="275.590129"/>
     <use style="fill:#ff0000;stroke:#ff0000;" x="382.378459" xlink:href="#mb5a421174c" y="275.590129"/>
     <use style="fill:#ff0000;stroke:#ff0000;" x="383.617599" xlink:href="#mb5a421174c" y="275.590129"/>
     <use style="fill:#ff0000;stroke:#ff0000;" x="384.856738" xlink:href="#mb5a421174c" y="275.590129"/>
     <use style="fill:#ff0000;stroke:#ff0000;" x="386.095878" xlink:href="#mb5a421174c" y="275.590129"/>
     <use style="fill:#ff0000;stroke:#ff0000;" x="387.335017" xlink:href="#mb5a421174c" y="275.590129"/>
     <use style="fill:#ff0000;stroke:#ff0000;" x="388.574157" xlink:href="#mb5a421174c" y="275.590129"/>
     <use style="fill:#ff0000;stroke:#ff0000;" x="389.813296" xlink:href="#mb5a421174c" y="275.590129"/>
     <use style="fill:#ff0000;stroke:#ff0000;" x="391.052436" xlink:href="#mb5a421174c" y="275.590129"/>
     <use style="fill:#ff0000;stroke:#ff0000;" x="392.291575" xlink:href="#mb5a421174c" y="275.590129"/>
     <use style="fill:#ff0000;stroke:#ff0000;" x="393.530715" xlink:href="#mb5a421174c" y="275.590129"/>
     <use style="fill:#ff0000;stroke:#ff0000;" x="394.769854" xlink:href="#mb5a421174c" y="275.590129"/>
     <use style="fill:#ff0000;stroke:#ff0000;" x="396.008994" xlink:href="#mb5a421174c" y="275.590129"/>
     <use style="fill:#ff0000;stroke:#ff0000;" x="397.248133" xlink:href="#mb5a421174c" y="275.590129"/>
     <use style="fill:#ff0000;stroke:#ff0000;" x="398.487273" xlink:href="#mb5a421174c" y="275.590129"/>
    </g>
   </g>
   <g id="patch_3">
    <path d="M 57.6 307.584 
L 57.6 41.472 
" style="fill:none;stroke:#000000;stroke-linecap:square;stroke-linejoin:miter;stroke-width:0.8;"/>
   </g>
   <g id="patch_4">
    <path d="M 414.72 307.584 
L 414.72 41.472 
" style="fill:none;stroke:#000000;stroke-linecap:square;stroke-linejoin:miter;stroke-width:0.8;"/>
   </g>
   <g id="patch_5">
    <path d="M 57.6 307.584 
L 414.72 307.584 
" style="fill:none;stroke:#000000;stroke-linecap:square;stroke-linejoin:miter;stroke-width:0.8;"/>
   </g>
   <g id="patch_6">
    <path d="M 57.6 41.472 
L 414.72 41.472 
" style="fill:none;stroke:#000000;stroke-linecap:square;stroke-linejoin:miter;stroke-width:0.8;"/>
   </g>
  </g>
 </g>
 <defs>
  <clipPath id="pcc2666a7a2">
   <rect height="266.112" width="357.12" x="57.6" y="41.472"/>
  </clipPath>
 </defs>
</svg>
