<?xml version="1.0" encoding="utf-8" standalone="no"?>
<!DOCTYPE svg PUBLIC "-//W3C//DTD SVG 1.1//EN"
  "http://www.w3.org/Graphics/SVG/1.1/DTD/svg11.dtd">
<!-- Created with matplotlib (https://matplotlib.org/) -->
<svg height="345.6pt" version="1.1" viewBox="0 0 460.8 345.6" width="460.8pt" xmlns="http://www.w3.org/2000/svg" xmlns:xlink="http://www.w3.org/1999/xlink">
 <defs>
  <style type="text/css">
*{stroke-linecap:butt;stroke-linejoin:round;}
  </style>
 </defs>
 <g id="figure_1">
  <g id="patch_1">
   <path d="M 0 345.6 
L 460.8 345.6 
L 460.8 0 
L 0 0 
z
" style="fill:#ffffff;"/>
  </g>
  <g id="axes_1">
   <g id="patch_2">
    <path d="M 57.6 307.584 
L 414.72 307.584 
L 414.72 41.472 
L 57.6 41.472 
z
" style="fill:#ffffff;"/>
   </g>
   <g id="line2d_1">
    <path clip-path="url(#pf5aa16e5ed)" d="M 73.832727 111.538318 
L 77.268225 111.538318 
L 78.985974 161.894341 
L 85.85697 161.894341 
L 87.574719 210.03582 
L 89.292468 210.03582 
L 91.010216 160.480244 
L 94.445714 160.480244 
L 96.163463 148.184406 
L 97.881212 148.184406 
L 99.598961 135.314259 
L 101.31671 135.314259 
L 103.034459 179.99651 
L 106.469957 179.99651 
L 108.187706 187.451601 
L 109.905455 187.451601 
L 111.623203 134.56495 
L 113.340952 134.56495 
L 115.058701 78.649619 
L 116.77645 68.512682 
L 118.494199 68.512682 
L 120.211948 84.879122 
L 121.929697 84.879122 
L 123.647446 68.176197 
L 125.365195 68.176197 
L 127.082944 53.568 
L 128.800693 53.568 
L 130.518442 70.992426 
L 132.23619 86.675631 
L 133.953939 86.675631 
L 135.671688 105.225466 
L 139.107186 105.225466 
L 140.824935 121.222084 
L 142.542684 121.222084 
L 144.260433 103.65713 
L 149.41368 103.65713 
L 152.849177 138.135398 
L 154.566926 138.135398 
L 156.284675 134.120283 
L 159.720173 134.120283 
L 161.437922 137.850859 
L 163.155671 137.850859 
L 164.87342 156.476213 
L 166.591169 156.476213 
L 168.308918 152.856749 
L 170.026667 152.856749 
L 171.744416 137.639858 
L 173.462165 137.639858 
L 175.179913 120.957305 
L 176.897662 120.957305 
L 178.615411 137.620468 
L 180.33316 137.620468 
L 182.050909 138.254948 
L 183.768658 138.254948 
L 185.486407 120.54889 
L 187.204156 120.54889 
L 188.921905 102.871215 
L 190.639654 102.871215 
L 192.357403 84.633148 
L 194.075152 84.633148 
L 195.7929 87.072328 
L 197.510649 71.421728 
L 199.228398 71.421728 
L 200.946147 89.11605 
L 202.663896 89.11605 
L 204.381645 106.823276 
L 209.534892 106.823276 
L 211.252641 121.40746 
L 218.123636 121.40746 
L 219.841385 138.706043 
L 221.559134 138.706043 
L 223.276883 154.499722 
L 224.994632 154.499722 
L 226.712381 169.97689 
L 228.43013 169.97689 
L 230.147879 153.652917 
L 233.583377 153.652917 
L 235.301126 172.288881 
L 237.018874 155.626535 
L 238.736623 155.626535 
L 240.454372 170.955534 
L 242.172121 170.955534 
L 243.88987 172.049942 
L 245.607619 172.049942 
L 247.325368 189.251606 
L 249.043117 189.251606 
L 250.760866 171.728385 
L 252.478615 171.728385 
L 254.196364 171.950911 
L 257.631861 171.950911 
L 259.34961 186.918172 
L 261.067359 203.176442 
L 262.785108 203.176442 
L 264.502857 221.820609 
L 281.680346 221.820609 
L 283.398095 225.382573 
L 285.115844 227.047257 
L 286.833593 227.047257 
L 288.551342 243.85125 
L 290.269091 243.85125 
L 291.98684 225.662126 
L 293.704589 225.662126 
L 295.422338 240.263621 
L 300.575584 240.263621 
L 302.293333 255.396849 
L 304.011082 255.396849 
L 307.44658 285.278126 
L 310.882078 285.278126 
L 312.599827 284.771445 
L 314.317576 284.771445 
L 316.035325 279.1153 
L 317.753074 279.1153 
L 319.470823 262.425792 
L 321.188571 262.425792 
L 322.90632 260.092357 
L 324.624069 260.092357 
L 326.341818 274.306605 
L 328.059567 258.507316 
L 329.777316 258.507316 
L 331.495065 240.166787 
L 333.212814 240.166787 
L 334.930563 223.051592 
L 338.366061 223.051592 
L 340.08381 206.651234 
L 341.801558 206.651234 
L 343.519307 221.084255 
L 345.237056 221.084255 
L 346.954805 218.334777 
L 348.672554 218.334777 
L 350.390303 235.890575 
L 353.825801 235.890575 
L 355.54355 231.785551 
L 357.261299 247.357957 
L 358.979048 247.357957 
L 360.696797 262.79783 
L 362.414545 262.79783 
L 364.132294 244.653308 
L 365.850043 244.653308 
L 367.567792 249.464693 
L 371.00329 249.464693 
L 372.721039 234.14148 
L 374.438788 234.14148 
L 376.156537 232.910525 
L 377.874286 232.910525 
L 379.592035 250.183624 
L 381.309784 250.183624 
L 384.745281 280.849528 
L 386.46303 280.849528 
L 388.180779 295.488 
L 389.898528 295.488 
L 391.616277 275.590129 
L 398.487273 275.590129 
L 398.487273 275.590129 
" style="fill:none;stroke:#ff0000;stroke-linecap:square;stroke-width:12;"/>
    <defs>
     <path d="M 0 3 
C 0.795609 3 1.55874 2.683901 2.12132 2.12132 
C 2.683901 1.55874 3 0.795609 3 0 
C 3 -0.795609 2.683901 -1.55874 2.12132 -2.12132 
C 1.55874 -2.683901 0.795609 -3 0 -3 
C -0.795609 -3 -1.55874 -2.683901 -2.12132 -2.12132 
C -2.683901 -1.55874 -3 -0.795609 -3 0 
C -3 0.795609 -2.683901 1.55874 -2.12132 2.12132 
C -1.55874 2.683901 -0.795609 3 0 3 
z
" id="md6290677f2" style="stroke:#ff0000;"/>
    </defs>
    <g clip-path="url(#pf5aa16e5ed)">
     <use style="fill:#ff0000;stroke:#ff0000;" x="73.832727" xlink:href="#md6290677f2" y="111.538318"/>
     <use style="fill:#ff0000;stroke:#ff0000;" x="75.550476" xlink:href="#md6290677f2" y="111.538318"/>
     <use style="fill:#ff0000;stroke:#ff0000;" x="77.268225" xlink:href="#md6290677f2" y="111.538318"/>
     <use style="fill:#ff0000;stroke:#ff0000;" x="78.985974" xlink:href="#md6290677f2" y="161.894341"/>
     <use style="fill:#ff0000;stroke:#ff0000;" x="80.703723" xlink:href="#md6290677f2" y="161.894341"/>
     <use style="fill:#ff0000;stroke:#ff0000;" x="82.421472" xlink:href="#md6290677f2" y="161.894341"/>
     <use style="fill:#ff0000;stroke:#ff0000;" x="84.139221" xlink:href="#md6290677f2" y="161.894341"/>
     <use style="fill:#ff0000;stroke:#ff0000;" x="85.85697" xlink:href="#md6290677f2" y="161.894341"/>
     <use style="fill:#ff0000;stroke:#ff0000;" x="87.574719" xlink:href="#md6290677f2" y="210.03582"/>
     <use style="fill:#ff0000;stroke:#ff0000;" x="89.292468" xlink:href="#md6290677f2" y="210.03582"/>
     <use style="fill:#ff0000;stroke:#ff0000;" x="91.010216" xlink:href="#md6290677f2" y="160.480244"/>
     <use style="fill:#ff0000;stroke:#ff0000;" x="92.727965" xlink:href="#md6290677f2" y="160.480244"/>
     <use style="fill:#ff0000;stroke:#ff0000;" x="94.445714" xlink:href="#md6290677f2" y="160.480244"/>
     <use style="fill:#ff0000;stroke:#ff0000;" x="96.163463" xlink:href="#md6290677f2" y="148.184406"/>
     <use style="fill:#ff0000;stroke:#ff0000;" x="97.881212" xlink:href="#md6290677f2" y="148.184406"/>
     <use style="fill:#ff0000;stroke:#ff0000;" x="99.598961" xlink:href="#md6290677f2" y="135.314259"/>
     <use style="fill:#ff0000;stroke:#ff0000;" x="101.31671" xlink:href="#md6290677f2" y="135.314259"/>
     <use style="fill:#ff0000;stroke:#ff0000;" x="103.034459" xlink:href="#md6290677f2" y="179.99651"/>
     <use style="fill:#ff0000;stroke:#ff0000;" x="104.752208" xlink:href="#md6290677f2" y="179.99651"/>
     <use style="fill:#ff0000;stroke:#ff0000;" x="106.469957" xlink:href="#md6290677f2" y="179.99651"/>
     <use style="fill:#ff0000;stroke:#ff0000;" x="108.187706" xlink:href="#md6290677f2" y="187.451601"/>
     <use style="fill:#ff0000;stroke:#ff0000;" x="109.905455" xlink:href="#md6290677f2" y="187.451601"/>
     <use style="fill:#ff0000;stroke:#ff0000;" x="111.623203" xlink:href="#md6290677f2" y="134.56495"/>
     <use style="fill:#ff0000;stroke:#ff0000;" x="113.340952" xlink:href="#md6290677f2" y="134.56495"/>
     <use style="fill:#ff0000;stroke:#ff0000;" x="115.058701" xlink:href="#md6290677f2" y="78.649619"/>
     <use style="fill:#ff0000;stroke:#ff0000;" x="116.77645" xlink:href="#md6290677f2" y="68.512682"/>
     <use style="fill:#ff0000;stroke:#ff0000;" x="118.494199" xlink:href="#md6290677f2" y="68.512682"/>
     <use style="fill:#ff0000;stroke:#ff0000;" x="120.211948" xlink:href="#md6290677f2" y="84.879122"/>
     <use style="fill:#ff0000;stroke:#ff0000;" x="121.929697" xlink:href="#md6290677f2" y="84.879122"/>
     <use style="fill:#ff0000;stroke:#ff0000;" x="123.647446" xlink:href="#md6290677f2" y="68.176197"/>
     <use style="fill:#ff0000;stroke:#ff0000;" x="125.365195" xlink:href="#md6290677f2" y="68.176197"/>
     <use style="fill:#ff0000;stroke:#ff0000;" x="127.082944" xlink:href="#md6290677f2" y="53.568"/>
     <use style="fill:#ff0000;stroke:#ff0000;" x="128.800693" xlink:href="#md6290677f2" y="53.568"/>
     <use style="fill:#ff0000;stroke:#ff0000;" x="130.518442" xlink:href="#md6290677f2" y="70.992426"/>
     <use style="fill:#ff0000;stroke:#ff0000;" x="132.23619" xlink:href="#md6290677f2" y="86.675631"/>
     <use style="fill:#ff0000;stroke:#ff0000;" x="133.953939" xlink:href="#md6290677f2" y="86.675631"/>
     <use style="fill:#ff0000;stroke:#ff0000;" x="135.671688" xlink:href="#md6290677f2" y="105.225466"/>
     <use style="fill:#ff0000;stroke:#ff0000;" x="137.389437" xlink:href="#md6290677f2" y="105.225466"/>
     <use style="fill:#ff0000;stroke:#ff0000;" x="139.107186" xlink:href="#md6290677f2" y="105.225466"/>
     <use style="fill:#ff0000;stroke:#ff0000;" x="140.824935" xlink:href="#md6290677f2" y="121.222084"/>
     <use style="fill:#ff0000;stroke:#ff0000;" x="142.542684" xlink:href="#md6290677f2" y="121.222084"/>
     <use style="fill:#ff0000;stroke:#ff0000;" x="144.260433" xlink:href="#md6290677f2" y="103.65713"/>
     <use style="fill:#ff0000;stroke:#ff0000;" x="145.978182" xlink:href="#md6290677f2" y="103.65713"/>
     <use style="fill:#ff0000;stroke:#ff0000;" x="147.695931" xlink:href="#md6290677f2" y="103.65713"/>
     <use style="fill:#ff0000;stroke:#ff0000;" x="149.41368" xlink:href="#md6290677f2" y="103.65713"/>
     <use style="fill:#ff0000;stroke:#ff0000;" x="151.131429" xlink:href="#md6290677f2" y="120.588247"/>
     <use style="fill:#ff0000;stroke:#ff0000;" x="152.849177" xlink:href="#md6290677f2" y="138.135398"/>
     <use style="fill:#ff0000;stroke:#ff0000;" x="154.566926" xlink:href="#md6290677f2" y="138.135398"/>
     <use style="fill:#ff0000;stroke:#ff0000;" x="156.284675" xlink:href="#md6290677f2" y="134.120283"/>
     <use style="fill:#ff0000;stroke:#ff0000;" x="158.002424" xlink:href="#md6290677f2" y="134.120283"/>
     <use style="fill:#ff0000;stroke:#ff0000;" x="159.720173" xlink:href="#md6290677f2" y="134.120283"/>
     <use style="fill:#ff0000;stroke:#ff0000;" x="161.437922" xlink:href="#md6290677f2" y="137.850859"/>
     <use style="fill:#ff0000;stroke:#ff0000;" x="163.155671" xlink:href="#md6290677f2" y="137.850859"/>
     <use style="fill:#ff0000;stroke:#ff0000;" x="164.87342" xlink:href="#md6290677f2" y="156.476213"/>
     <use style="fill:#ff0000;stroke:#ff0000;" x="166.591169" xlink:href="#md6290677f2" y="156.476213"/>
     <use style="fill:#ff0000;stroke:#ff0000;" x="168.308918" xlink:href="#md6290677f2" y="152.856749"/>
     <use style="fill:#ff0000;stroke:#ff0000;" x="170.026667" xlink:href="#md6290677f2" y="152.856749"/>
     <use style="fill:#ff0000;stroke:#ff0000;" x="171.744416" xlink:href="#md6290677f2" y="137.639858"/>
     <use style="fill:#ff0000;stroke:#ff0000;" x="173.462165" xlink:href="#md6290677f2" y="137.639858"/>
     <use style="fill:#ff0000;stroke:#ff0000;" x="175.179913" xlink:href="#md6290677f2" y="120.957305"/>
     <use style="fill:#ff0000;stroke:#ff0000;" x="176.897662" xlink:href="#md6290677f2" y="120.957305"/>
     <use style="fill:#ff0000;stroke:#ff0000;" x="178.615411" xlink:href="#md6290677f2" y="137.620468"/>
     <use style="fill:#ff0000;stroke:#ff0000;" x="180.33316" xlink:href="#md6290677f2" y="137.620468"/>
     <use style="fill:#ff0000;stroke:#ff0000;" x="182.050909" xlink:href="#md6290677f2" y="138.254948"/>
     <use style="fill:#ff0000;stroke:#ff0000;" x="183.768658" xlink:href="#md6290677f2" y="138.254948"/>
     <use style="fill:#ff0000;stroke:#ff0000;" x="185.486407" xlink:href="#md6290677f2" y="120.54889"/>
     <use style="fill:#ff0000;stroke:#ff0000;" x="187.204156" xlink:href="#md6290677f2" y="120.54889"/>
     <use style="fill:#ff0000;stroke:#ff0000;" x="188.921905" xlink:href="#md6290677f2" y="102.871215"/>
     <use style="fill:#ff0000;stroke:#ff0000;" x="190.639654" xlink:href="#md6290677f2" y="102.871215"/>
     <use style="fill:#ff0000;stroke:#ff0000;" x="192.357403" xlink:href="#md6290677f2" y="84.633148"/>
     <use style="fill:#ff0000;stroke:#ff0000;" x="194.075152" xlink:href="#md6290677f2" y="84.633148"/>
     <use style="fill:#ff0000;stroke:#ff0000;" x="195.7929" xlink:href="#md6290677f2" y="87.072328"/>
     <use style="fill:#ff0000;stroke:#ff0000;" x="197.510649" xlink:href="#md6290677f2" y="71.421728"/>
     <use style="fill:#ff0000;stroke:#ff0000;" x="199.228398" xlink:href="#md6290677f2" y="71.421728"/>
     <use style="fill:#ff0000;stroke:#ff0000;" x="200.946147" xlink:href="#md6290677f2" y="89.11605"/>
     <use style="fill:#ff0000;stroke:#ff0000;" x="202.663896" xlink:href="#md6290677f2" y="89.11605"/>
     <use style="fill:#ff0000;stroke:#ff0000;" x="204.381645" xlink:href="#md6290677f2" y="106.823276"/>
     <use style="fill:#ff0000;stroke:#ff0000;" x="206.099394" xlink:href="#md6290677f2" y="106.823276"/>
     <use style="fill:#ff0000;stroke:#ff0000;" x="207.817143" xlink:href="#md6290677f2" y="106.823276"/>
     <use style="fill:#ff0000;stroke:#ff0000;" x="209.534892" xlink:href="#md6290677f2" y="106.823276"/>
     <use style="fill:#ff0000;stroke:#ff0000;" x="211.252641" xlink:href="#md6290677f2" y="121.40746"/>
     <use style="fill:#ff0000;stroke:#ff0000;" x="212.97039" xlink:href="#md6290677f2" y="121.40746"/>
     <use style="fill:#ff0000;stroke:#ff0000;" x="214.688139" xlink:href="#md6290677f2" y="121.40746"/>
     <use style="fill:#ff0000;stroke:#ff0000;" x="216.405887" xlink:href="#md6290677f2" y="121.40746"/>
     <use style="fill:#ff0000;stroke:#ff0000;" x="218.123636" xlink:href="#md6290677f2" y="121.40746"/>
     <use style="fill:#ff0000;stroke:#ff0000;" x="219.841385" xlink:href="#md6290677f2" y="138.706043"/>
     <use style="fill:#ff0000;stroke:#ff0000;" x="221.559134" xlink:href="#md6290677f2" y="138.706043"/>
     <use style="fill:#ff0000;stroke:#ff0000;" x="223.276883" xlink:href="#md6290677f2" y="154.499722"/>
     <use style="fill:#ff0000;stroke:#ff0000;" x="224.994632" xlink:href="#md6290677f2" y="154.499722"/>
     <use style="fill:#ff0000;stroke:#ff0000;" x="226.712381" xlink:href="#md6290677f2" y="169.97689"/>
     <use style="fill:#ff0000;stroke:#ff0000;" x="228.43013" xlink:href="#md6290677f2" y="169.97689"/>
     <use style="fill:#ff0000;stroke:#ff0000;" x="230.147879" xlink:href="#md6290677f2" y="153.652917"/>
     <use style="fill:#ff0000;stroke:#ff0000;" x="231.865628" xlink:href="#md6290677f2" y="153.652917"/>
     <use style="fill:#ff0000;stroke:#ff0000;" x="233.583377" xlink:href="#md6290677f2" y="153.652917"/>
     <use style="fill:#ff0000;stroke:#ff0000;" x="235.301126" xlink:href="#md6290677f2" y="172.288881"/>
     <use style="fill:#ff0000;stroke:#ff0000;" x="237.018874" xlink:href="#md6290677f2" y="155.626535"/>
     <use style="fill:#ff0000;stroke:#ff0000;" x="238.736623" xlink:href="#md6290677f2" y="155.626535"/>
     <use style="fill:#ff0000;stroke:#ff0000;" x="240.454372" xlink:href="#md6290677f2" y="170.955534"/>
     <use style="fill:#ff0000;stroke:#ff0000;" x="242.172121" xlink:href="#md6290677f2" y="170.955534"/>
     <use style="fill:#ff0000;stroke:#ff0000;" x="243.88987" xlink:href="#md6290677f2" y="172.049942"/>
     <use style="fill:#ff0000;stroke:#ff0000;" x="245.607619" xlink:href="#md6290677f2" y="172.049942"/>
     <use style="fill:#ff0000;stroke:#ff0000;" x="247.325368" xlink:href="#md6290677f2" y="189.251606"/>
     <use style="fill:#ff0000;stroke:#ff0000;" x="249.043117" xlink:href="#md6290677f2" y="189.251606"/>
     <use style="fill:#ff0000;stroke:#ff0000;" x="250.760866" xlink:href="#md6290677f2" y="171.728385"/>
     <use style="fill:#ff0000;stroke:#ff0000;" x="252.478615" xlink:href="#md6290677f2" y="171.728385"/>
     <use style="fill:#ff0000;stroke:#ff0000;" x="254.196364" xlink:href="#md6290677f2" y="171.950911"/>
     <use style="fill:#ff0000;stroke:#ff0000;" x="255.914113" xlink:href="#md6290677f2" y="171.950911"/>
     <use style="fill:#ff0000;stroke:#ff0000;" x="257.631861" xlink:href="#md6290677f2" y="171.950911"/>
     <use style="fill:#ff0000;stroke:#ff0000;" x="259.34961" xlink:href="#md6290677f2" y="186.918172"/>
     <use style="fill:#ff0000;stroke:#ff0000;" x="261.067359" xlink:href="#md6290677f2" y="203.176442"/>
     <use style="fill:#ff0000;stroke:#ff0000;" x="262.785108" xlink:href="#md6290677f2" y="203.176442"/>
     <use style="fill:#ff0000;stroke:#ff0000;" x="264.502857" xlink:href="#md6290677f2" y="221.820609"/>
     <use style="fill:#ff0000;stroke:#ff0000;" x="266.220606" xlink:href="#md6290677f2" y="221.820609"/>
     <use style="fill:#ff0000;stroke:#ff0000;" x="267.938355" xlink:href="#md6290677f2" y="221.820609"/>
     <use style="fill:#ff0000;stroke:#ff0000;" x="269.656104" xlink:href="#md6290677f2" y="221.820609"/>
     <use style="fill:#ff0000;stroke:#ff0000;" x="271.373853" xlink:href="#md6290677f2" y="221.820609"/>
     <use style="fill:#ff0000;stroke:#ff0000;" x="273.091602" xlink:href="#md6290677f2" y="221.820609"/>
     <use style="fill:#ff0000;stroke:#ff0000;" x="274.809351" xlink:href="#md6290677f2" y="221.820609"/>
     <use style="fill:#ff0000;stroke:#ff0000;" x="276.5271" xlink:href="#md6290677f2" y="221.820609"/>
     <use style="fill:#ff0000;stroke:#ff0000;" x="278.244848" xlink:href="#md6290677f2" y="221.820609"/>
     <use style="fill:#ff0000;stroke:#ff0000;" x="279.962597" xlink:href="#md6290677f2" y="221.820609"/>
     <use style="fill:#ff0000;stroke:#ff0000;" x="281.680346" xlink:href="#md6290677f2" y="221.820609"/>
     <use style="fill:#ff0000;stroke:#ff0000;" x="283.398095" xlink:href="#md6290677f2" y="225.382573"/>
     <use style="fill:#ff0000;stroke:#ff0000;" x="285.115844" xlink:href="#md6290677f2" y="227.047257"/>
     <use style="fill:#ff0000;stroke:#ff0000;" x="286.833593" xlink:href="#md6290677f2" y="227.047257"/>
     <use style="fill:#ff0000;stroke:#ff0000;" x="288.551342" xlink:href="#md6290677f2" y="243.85125"/>
     <use style="fill:#ff0000;stroke:#ff0000;" x="290.269091" xlink:href="#md6290677f2" y="243.85125"/>
     <use style="fill:#ff0000;stroke:#ff0000;" x="291.98684" xlink:href="#md6290677f2" y="225.662126"/>
     <use style="fill:#ff0000;stroke:#ff0000;" x="293.704589" xlink:href="#md6290677f2" y="225.662126"/>
     <use style="fill:#ff0000;stroke:#ff0000;" x="295.422338" xlink:href="#md6290677f2" y="240.263621"/>
     <use style="fill:#ff0000;stroke:#ff0000;" x="297.140087" xlink:href="#md6290677f2" y="240.263621"/>
     <use style="fill:#ff0000;stroke:#ff0000;" x="298.857835" xlink:href="#md6290677f2" y="240.263621"/>
     <use style="fill:#ff0000;stroke:#ff0000;" x="300.575584" xlink:href="#md6290677f2" y="240.263621"/>
     <use style="fill:#ff0000;stroke:#ff0000;" x="302.293333" xlink:href="#md6290677f2" y="255.396849"/>
     <use style="fill:#ff0000;stroke:#ff0000;" x="304.011082" xlink:href="#md6290677f2" y="255.396849"/>
     <use style="fill:#ff0000;stroke:#ff0000;" x="305.728831" xlink:href="#md6290677f2" y="270.706242"/>
     <use style="fill:#ff0000;stroke:#ff0000;" x="307.44658" xlink:href="#md6290677f2" y="285.278126"/>
     <use style="fill:#ff0000;stroke:#ff0000;" x="309.164329" xlink:href="#md6290677f2" y="285.278126"/>
     <use style="fill:#ff0000;stroke:#ff0000;" x="310.882078" xlink:href="#md6290677f2" y="285.278126"/>
     <use style="fill:#ff0000;stroke:#ff0000;" x="312.599827" xlink:href="#md6290677f2" y="284.771445"/>
     <use style="fill:#ff0000;stroke:#ff0000;" x="314.317576" xlink:href="#md6290677f2" y="284.771445"/>
     <use style="fill:#ff0000;stroke:#ff0000;" x="316.035325" xlink:href="#md6290677f2" y="279.1153"/>
     <use style="fill:#ff0000;stroke:#ff0000;" x="317.753074" xlink:href="#md6290677f2" y="279.1153"/>
     <use style="fill:#ff0000;stroke:#ff0000;" x="319.470823" xlink:href="#md6290677f2" y="262.425792"/>
     <use style="fill:#ff0000;stroke:#ff0000;" x="321.188571" xlink:href="#md6290677f2" y="262.425792"/>
     <use style="fill:#ff0000;stroke:#ff0000;" x="322.90632" xlink:href="#md6290677f2" y="260.092357"/>
     <use style="fill:#ff0000;stroke:#ff0000;" x="324.624069" xlink:href="#md6290677f2" y="260.092357"/>
     <use style="fill:#ff0000;stroke:#ff0000;" x="326.341818" xlink:href="#md6290677f2" y="274.306605"/>
     <use style="fill:#ff0000;stroke:#ff0000;" x="328.059567" xlink:href="#md6290677f2" y="258.507316"/>
     <use style="fill:#ff0000;stroke:#ff0000;" x="329.777316" xlink:href="#md6290677f2" y="258.507316"/>
     <use style="fill:#ff0000;stroke:#ff0000;" x="331.495065" xlink:href="#md6290677f2" y="240.166787"/>
     <use style="fill:#ff0000;stroke:#ff0000;" x="333.212814" xlink:href="#md6290677f2" y="240.166787"/>
     <use style="fill:#ff0000;stroke:#ff0000;" x="334.930563" xlink:href="#md6290677f2" y="223.051592"/>
     <use style="fill:#ff0000;stroke:#ff0000;" x="336.648312" xlink:href="#md6290677f2" y="223.051592"/>
     <use style="fill:#ff0000;stroke:#ff0000;" x="338.366061" xlink:href="#md6290677f2" y="223.051592"/>
     <use style="fill:#ff0000;stroke:#ff0000;" x="340.08381" xlink:href="#md6290677f2" y="206.651234"/>
     <use style="fill:#ff0000;stroke:#ff0000;" x="341.801558" xlink:href="#md6290677f2" y="206.651234"/>
     <use style="fill:#ff0000;stroke:#ff0000;" x="343.519307" xlink:href="#md6290677f2" y="221.084255"/>
     <use style="fill:#ff0000;stroke:#ff0000;" x="345.237056" xlink:href="#md6290677f2" y="221.084255"/>
     <use style="fill:#ff0000;stroke:#ff0000;" x="346.954805" xlink:href="#md6290677f2" y="218.334777"/>
     <use style="fill:#ff0000;stroke:#ff0000;" x="348.672554" xlink:href="#md6290677f2" y="218.334777"/>
     <use style="fill:#ff0000;stroke:#ff0000;" x="350.390303" xlink:href="#md6290677f2" y="235.890575"/>
     <use style="fill:#ff0000;stroke:#ff0000;" x="352.108052" xlink:href="#md6290677f2" y="235.890575"/>
     <use style="fill:#ff0000;stroke:#ff0000;" x="353.825801" xlink:href="#md6290677f2" y="235.890575"/>
     <use style="fill:#ff0000;stroke:#ff0000;" x="355.54355" xlink:href="#md6290677f2" y="231.785551"/>
     <use style="fill:#ff0000;stroke:#ff0000;" x="357.261299" xlink:href="#md6290677f2" y="247.357957"/>
     <use style="fill:#ff0000;stroke:#ff0000;" x="358.979048" xlink:href="#md6290677f2" y="247.357957"/>
     <use style="fill:#ff0000;stroke:#ff0000;" x="360.696797" xlink:href="#md6290677f2" y="262.79783"/>
     <use style="fill:#ff0000;stroke:#ff0000;" x="362.414545" xlink:href="#md6290677f2" y="262.79783"/>
     <use style="fill:#ff0000;stroke:#ff0000;" x="364.132294" xlink:href="#md6290677f2" y="244.653308"/>
     <use style="fill:#ff0000;stroke:#ff0000;" x="365.850043" xlink:href="#md6290677f2" y="244.653308"/>
     <use style="fill:#ff0000;stroke:#ff0000;" x="367.567792" xlink:href="#md6290677f2" y="249.464693"/>
     <use style="fill:#ff0000;stroke:#ff0000;" x="369.285541" xlink:href="#md6290677f2" y="249.464693"/>
     <use style="fill:#ff0000;stroke:#ff0000;" x="371.00329" xlink:href="#md6290677f2" y="249.464693"/>
     <use style="fill:#ff0000;stroke:#ff0000;" x="372.721039" xlink:href="#md6290677f2" y="234.14148"/>
     <use style="fill:#ff0000;stroke:#ff0000;" x="374.438788" xlink:href="#md6290677f2" y="234.14148"/>
     <use style="fill:#ff0000;stroke:#ff0000;" x="376.156537" xlink:href="#md6290677f2" y="232.910525"/>
     <use style="fill:#ff0000;stroke:#ff0000;" x="377.874286" xlink:href="#md6290677f2" y="232.910525"/>
     <use style="fill:#ff0000;stroke:#ff0000;" x="379.592035" xlink:href="#md6290677f2" y="250.183624"/>
     <use style="fill:#ff0000;stroke:#ff0000;" x="381.309784" xlink:href="#md6290677f2" y="250.183624"/>
     <use style="fill:#ff0000;stroke:#ff0000;" x="383.027532" xlink:href="#md6290677f2" y="265.689278"/>
     <use style="fill:#ff0000;stroke:#ff0000;" x="384.745281" xlink:href="#md6290677f2" y="280.849528"/>
     <use style="fill:#ff0000;stroke:#ff0000;" x="386.46303" xlink:href="#md6290677f2" y="280.849528"/>
     <use style="fill:#ff0000;stroke:#ff0000;" x="388.180779" xlink:href="#md6290677f2" y="295.488"/>
     <use style="fill:#ff0000;stroke:#ff0000;" x="389.898528" xlink:href="#md6290677f2" y="295.488"/>
     <use style="fill:#ff0000;stroke:#ff0000;" x="391.616277" xlink:href="#md6290677f2" y="275.590129"/>
     <use style="fill:#ff0000;stroke:#ff0000;" x="393.334026" xlink:href="#md6290677f2" y="275.590129"/>
     <use style="fill:#ff0000;stroke:#ff0000;" x="395.051775" xlink:href="#md6290677f2" y="275.590129"/>
     <use style="fill:#ff0000;stroke:#ff0000;" x="396.769524" xlink:href="#md6290677f2" y="275.590129"/>
     <use style="fill:#ff0000;stroke:#ff0000;" x="398.487273" xlink:href="#md6290677f2" y="275.590129"/>
    </g>
   </g>
   <g id="patch_3">
    <path d="M 57.6 307.584 
L 57.6 41.472 
" style="fill:none;stroke:#000000;stroke-linecap:square;stroke-linejoin:miter;stroke-width:0.8;"/>
   </g>
   <g id="patch_4">
    <path d="M 414.72 307.584 
L 414.72 41.472 
" style="fill:none;stroke:#000000;stroke-linecap:square;stroke-linejoin:miter;stroke-width:0.8;"/>
   </g>
   <g id="patch_5">
    <path d="M 57.6 307.584 
L 414.72 307.584 
" style="fill:none;stroke:#000000;stroke-linecap:square;stroke-linejoin:miter;stroke-width:0.8;"/>
   </g>
   <g id="patch_6">
    <path d="M 57.6 41.472 
L 414.72 41.472 
" style="fill:none;stroke:#000000;stroke-linecap:square;stroke-linejoin:miter;stroke-width:0.8;"/>
   </g>
  </g>
 </g>
 <defs>
  <clipPath id="pf5aa16e5ed">
   <rect height="266.112" width="357.12" x="57.6" y="41.472"/>
  </clipPath>
 </defs>
</svg>
