<?xml version="1.0" encoding="utf-8" standalone="no"?>
<!DOCTYPE svg PUBLIC "-//W3C//DTD SVG 1.1//EN"
  "http://www.w3.org/Graphics/SVG/1.1/DTD/svg11.dtd">
<!-- Created with matplotlib (https://matplotlib.org/) -->
<svg height="345.6pt" version="1.1" viewBox="0 0 460.8 345.6" width="460.8pt" xmlns="http://www.w3.org/2000/svg" xmlns:xlink="http://www.w3.org/1999/xlink">
 <defs>
  <style type="text/css">
*{stroke-linecap:butt;stroke-linejoin:round;}
  </style>
 </defs>
 <g id="figure_1">
  <g id="patch_1">
   <path d="M 0 345.6 
L 460.8 345.6 
L 460.8 0 
L 0 0 
z
" style="fill:#ffffff;"/>
  </g>
  <g id="axes_1">
   <g id="patch_2">
    <path d="M 57.6 307.584 
L 414.72 307.584 
L 414.72 41.472 
L 57.6 41.472 
z
" style="fill:#ffffff;"/>
   </g>
   <g id="line2d_1">
    <path clip-path="url(#p3bb0f1ee44)" d="M 73.832727 71.090051 
L 84.305455 71.090051 
L 94.778182 71.090051 
L 105.250909 174.194601 
L 115.723636 174.194601 
L 126.196364 174.194601 
L 136.669091 269.214647 
L 147.141818 269.214647 
L 157.614545 168.231814 
L 168.087273 168.231814 
L 178.56 71.550221 
L 189.032727 71.550221 
L 199.505455 71.550221 
L 209.978182 53.568 
L 220.450909 53.568 
L 230.923636 153.145094 
L 241.396364 153.145094 
L 251.869091 130.338949 
L 262.341818 130.338949 
L 272.814545 230.439455 
L 283.287273 230.439455 
L 293.76 230.446397 
L 304.232727 264.769475 
L 314.705455 264.769475 
L 325.178182 295.488 
L 335.650909 295.488 
L 346.123636 259.957469 
L 356.596364 259.957469 
L 367.069091 225.903649 
L 377.541818 225.903649 
L 388.014545 216.745086 
L 398.487273 216.745086 
" style="fill:none;stroke:#ff0000;stroke-linecap:square;stroke-width:12;"/>
    <defs>
     <path d="M 0 3 
C 0.795609 3 1.55874 2.683901 2.12132 2.12132 
C 2.683901 1.55874 3 0.795609 3 0 
C 3 -0.795609 2.683901 -1.55874 2.12132 -2.12132 
C 1.55874 -2.683901 0.795609 -3 0 -3 
C -0.795609 -3 -1.55874 -2.683901 -2.12132 -2.12132 
C -2.683901 -1.55874 -3 -0.795609 -3 0 
C -3 0.795609 -2.683901 1.55874 -2.12132 2.12132 
C -1.55874 2.683901 -0.795609 3 0 3 
z
" id="md156024282" style="stroke:#ff0000;"/>
    </defs>
    <g clip-path="url(#p3bb0f1ee44)">
     <use style="fill:#ff0000;stroke:#ff0000;" x="73.832727" xlink:href="#md156024282" y="71.090051"/>
     <use style="fill:#ff0000;stroke:#ff0000;" x="84.305455" xlink:href="#md156024282" y="71.090051"/>
     <use style="fill:#ff0000;stroke:#ff0000;" x="94.778182" xlink:href="#md156024282" y="71.090051"/>
     <use style="fill:#ff0000;stroke:#ff0000;" x="105.250909" xlink:href="#md156024282" y="174.194601"/>
     <use style="fill:#ff0000;stroke:#ff0000;" x="115.723636" xlink:href="#md156024282" y="174.194601"/>
     <use style="fill:#ff0000;stroke:#ff0000;" x="126.196364" xlink:href="#md156024282" y="174.194601"/>
     <use style="fill:#ff0000;stroke:#ff0000;" x="136.669091" xlink:href="#md156024282" y="269.214647"/>
     <use style="fill:#ff0000;stroke:#ff0000;" x="147.141818" xlink:href="#md156024282" y="269.214647"/>
     <use style="fill:#ff0000;stroke:#ff0000;" x="157.614545" xlink:href="#md156024282" y="168.231814"/>
     <use style="fill:#ff0000;stroke:#ff0000;" x="168.087273" xlink:href="#md156024282" y="168.231814"/>
     <use style="fill:#ff0000;stroke:#ff0000;" x="178.56" xlink:href="#md156024282" y="71.550221"/>
     <use style="fill:#ff0000;stroke:#ff0000;" x="189.032727" xlink:href="#md156024282" y="71.550221"/>
     <use style="fill:#ff0000;stroke:#ff0000;" x="199.505455" xlink:href="#md156024282" y="71.550221"/>
     <use style="fill:#ff0000;stroke:#ff0000;" x="209.978182" xlink:href="#md156024282" y="53.568"/>
     <use style="fill:#ff0000;stroke:#ff0000;" x="220.450909" xlink:href="#md156024282" y="53.568"/>
     <use style="fill:#ff0000;stroke:#ff0000;" x="230.923636" xlink:href="#md156024282" y="153.145094"/>
     <use style="fill:#ff0000;stroke:#ff0000;" x="241.396364" xlink:href="#md156024282" y="153.145094"/>
     <use style="fill:#ff0000;stroke:#ff0000;" x="251.869091" xlink:href="#md156024282" y="130.338949"/>
     <use style="fill:#ff0000;stroke:#ff0000;" x="262.341818" xlink:href="#md156024282" y="130.338949"/>
     <use style="fill:#ff0000;stroke:#ff0000;" x="272.814545" xlink:href="#md156024282" y="230.439455"/>
     <use style="fill:#ff0000;stroke:#ff0000;" x="283.287273" xlink:href="#md156024282" y="230.439455"/>
     <use style="fill:#ff0000;stroke:#ff0000;" x="293.76" xlink:href="#md156024282" y="230.446397"/>
     <use style="fill:#ff0000;stroke:#ff0000;" x="304.232727" xlink:href="#md156024282" y="264.769475"/>
     <use style="fill:#ff0000;stroke:#ff0000;" x="314.705455" xlink:href="#md156024282" y="264.769475"/>
     <use style="fill:#ff0000;stroke:#ff0000;" x="325.178182" xlink:href="#md156024282" y="295.488"/>
     <use style="fill:#ff0000;stroke:#ff0000;" x="335.650909" xlink:href="#md156024282" y="295.488"/>
     <use style="fill:#ff0000;stroke:#ff0000;" x="346.123636" xlink:href="#md156024282" y="259.957469"/>
     <use style="fill:#ff0000;stroke:#ff0000;" x="356.596364" xlink:href="#md156024282" y="259.957469"/>
     <use style="fill:#ff0000;stroke:#ff0000;" x="367.069091" xlink:href="#md156024282" y="225.903649"/>
     <use style="fill:#ff0000;stroke:#ff0000;" x="377.541818" xlink:href="#md156024282" y="225.903649"/>
     <use style="fill:#ff0000;stroke:#ff0000;" x="388.014545" xlink:href="#md156024282" y="216.745086"/>
     <use style="fill:#ff0000;stroke:#ff0000;" x="398.487273" xlink:href="#md156024282" y="216.745086"/>
    </g>
   </g>
   <g id="patch_3">
    <path d="M 57.6 307.584 
L 57.6 41.472 
" style="fill:none;stroke:#000000;stroke-linecap:square;stroke-linejoin:miter;stroke-width:0.8;"/>
   </g>
   <g id="patch_4">
    <path d="M 414.72 307.584 
L 414.72 41.472 
" style="fill:none;stroke:#000000;stroke-linecap:square;stroke-linejoin:miter;stroke-width:0.8;"/>
   </g>
   <g id="patch_5">
    <path d="M 57.6 307.584 
L 414.72 307.584 
" style="fill:none;stroke:#000000;stroke-linecap:square;stroke-linejoin:miter;stroke-width:0.8;"/>
   </g>
   <g id="patch_6">
    <path d="M 57.6 41.472 
L 414.72 41.472 
" style="fill:none;stroke:#000000;stroke-linecap:square;stroke-linejoin:miter;stroke-width:0.8;"/>
   </g>
  </g>
 </g>
 <defs>
  <clipPath id="p3bb0f1ee44">
   <rect height="266.112" width="357.12" x="57.6" y="41.472"/>
  </clipPath>
 </defs>
</svg>
