<?xml version="1.0" encoding="utf-8" standalone="no"?>
<!DOCTYPE svg PUBLIC "-//W3C//DTD SVG 1.1//EN"
  "http://www.w3.org/Graphics/SVG/1.1/DTD/svg11.dtd">
<!-- Created with matplotlib (https://matplotlib.org/) -->
<svg height="345.6pt" version="1.1" viewBox="0 0 460.8 345.6" width="460.8pt" xmlns="http://www.w3.org/2000/svg" xmlns:xlink="http://www.w3.org/1999/xlink">
 <defs>
  <style type="text/css">
*{stroke-linecap:butt;stroke-linejoin:round;}
  </style>
 </defs>
 <g id="figure_1">
  <g id="patch_1">
   <path d="M 0 345.6 
L 460.8 345.6 
L 460.8 0 
L 0 0 
z
" style="fill:#ffffff;"/>
  </g>
  <g id="axes_1">
   <g id="patch_2">
    <path d="M 57.6 307.584 
L 414.72 307.584 
L 414.72 41.472 
L 57.6 41.472 
z
" style="fill:#ffffff;"/>
   </g>
   <g id="line2d_1">
    <path clip-path="url(#p018a9e86b4)" d="M 73.832727 61.721809 
L 75.748093 61.721809 
L 76.705776 109.701056 
L 78.621142 109.701056 
L 79.578825 153.918214 
L 80.536508 153.918214 
L 81.494191 106.926299 
L 82.451874 106.926299 
L 83.409558 61.935947 
L 85.324924 61.935947 
L 86.282607 53.568 
L 87.24029 53.568 
L 88.197973 99.905761 
L 89.155656 99.905761 
L 90.113339 89.293022 
L 91.071022 89.293022 
L 92.028705 135.87435 
L 93.944071 135.877581 
L 94.901754 151.849673 
L 95.859437 151.849673 
L 96.81712 166.144403 
L 97.774803 166.144403 
L 98.732486 149.610428 
L 99.690169 149.610428 
L 100.647852 133.763633 
L 101.605535 133.763633 
L 102.563218 129.501736 
L 105.436267 129.501736 
L 106.39395 131.149458 
L 107.351633 131.149458 
L 108.309316 114.670965 
L 109.266999 114.670965 
L 110.224682 114.176387 
L 111.182365 114.176387 
L 113.097731 145.91263 
L 114.055414 145.91263 
L 115.013097 160.031457 
L 115.97078 160.031457 
L 116.928463 174.347905 
L 117.886146 174.347905 
L 118.843829 188.328001 
L 119.801512 188.328001 
L 120.759195 203.679626 
L 121.716879 203.679626 
L 122.674562 217.922362 
L 123.632245 203.553498 
L 125.547611 203.553498 
L 126.505294 207.666535 
L 127.462977 207.666535 
L 128.42066 222.652239 
L 129.378343 222.652239 
L 130.336026 237.212514 
L 132.251392 237.212514 
L 133.209075 250.938609 
L 134.166758 250.938609 
L 135.124441 232.80504 
L 137.039807 232.80504 
L 137.99749 217.198031 
L 138.955173 217.198031 
L 139.912856 200.835181 
L 140.870539 200.835181 
L 141.828222 201.59859 
L 142.785905 201.59859 
L 144.701271 170.409714 
L 145.658954 170.409714 
L 146.616637 183.340533 
L 147.57432 183.340533 
L 148.532003 168.043942 
L 149.489686 168.043942 
L 150.447369 181.901045 
L 154.278101 181.901045 
L 155.235784 166.100679 
L 156.193467 166.100679 
L 157.15115 161.868132 
L 158.108833 161.868132 
L 159.066516 177.117957 
L 160.0242 177.117957 
L 160.981883 174.654915 
L 161.939566 188.842554 
L 162.897249 188.842554 
L 163.854932 202.313924 
L 167.685664 202.313924 
L 168.643347 205.500532 
L 170.558713 205.500532 
L 171.516396 190.942187 
L 173.431762 190.942187 
L 174.389445 190.738934 
L 175.347128 190.738934 
L 176.304811 174.731493 
L 177.262494 174.731493 
L 178.220177 161.119601 
L 180.135543 161.119601 
L 181.093226 175.986949 
L 189.712373 175.986949 
L 190.670056 159.768663 
L 191.627739 159.768663 
L 193.543105 190.212266 
L 194.500788 190.212266 
L 195.458471 193.350739 
L 196.416154 193.350739 
L 197.373837 191.489494 
L 198.331521 191.489494 
L 199.289204 204.876822 
L 200.246887 204.876822 
L 201.20457 220.870583 
L 202.162253 221.841321 
L 203.119936 221.841321 
L 204.077619 235.035807 
L 207.908351 235.035807 
L 208.866034 237.868279 
L 209.823717 237.868279 
L 210.7814 251.335106 
L 211.739083 251.335106 
L 212.696766 236.268687 
L 213.654449 236.268687 
L 214.612132 234.909321 
L 215.569815 249.869738 
L 217.485181 249.869738 
L 218.442864 264.19282 
L 220.35823 264.19282 
L 221.315913 258.449257 
L 222.273596 273.429193 
L 223.231279 273.429193 
L 224.188962 287.361139 
L 227.062011 287.361139 
L 228.019694 272.030175 
L 230.892743 272.138587 
L 231.850426 270.754214 
L 232.808109 266.883295 
L 233.765792 266.883295 
L 234.723475 252.423994 
L 236.638842 252.423994 
L 238.554208 279.126487 
L 239.511891 279.126487 
L 240.469574 294.487246 
L 241.427257 294.487246 
L 242.38494 295.488 
L 243.342623 295.488 
L 244.300306 293.830893 
L 246.215672 293.830893 
L 247.173355 276.191903 
L 248.131038 276.191903 
L 249.088721 289.256672 
L 250.046404 289.256672 
L 251.004087 287.226635 
L 398.487273 287.226635 
L 398.487273 287.226635 
" style="fill:none;stroke:#ff0000;stroke-linecap:square;stroke-width:12;"/>
    <defs>
     <path d="M 0 3 
C 0.795609 3 1.55874 2.683901 2.12132 2.12132 
C 2.683901 1.55874 3 0.795609 3 0 
C 3 -0.795609 2.683901 -1.55874 2.12132 -2.12132 
C 1.55874 -2.683901 0.795609 -3 0 -3 
C -0.795609 -3 -1.55874 -2.683901 -2.12132 -2.12132 
C -2.683901 -1.55874 -3 -0.795609 -3 0 
C -3 0.795609 -2.683901 1.55874 -2.12132 2.12132 
C -1.55874 2.683901 -0.795609 3 0 3 
z
" id="md23ebac079" style="stroke:#ff0000;"/>
    </defs>
    <g clip-path="url(#p018a9e86b4)">
     <use style="fill:#ff0000;stroke:#ff0000;" x="73.832727" xlink:href="#md23ebac079" y="61.721809"/>
     <use style="fill:#ff0000;stroke:#ff0000;" x="74.79041" xlink:href="#md23ebac079" y="61.721809"/>
     <use style="fill:#ff0000;stroke:#ff0000;" x="75.748093" xlink:href="#md23ebac079" y="61.721809"/>
     <use style="fill:#ff0000;stroke:#ff0000;" x="76.705776" xlink:href="#md23ebac079" y="109.701056"/>
     <use style="fill:#ff0000;stroke:#ff0000;" x="77.663459" xlink:href="#md23ebac079" y="109.701056"/>
     <use style="fill:#ff0000;stroke:#ff0000;" x="78.621142" xlink:href="#md23ebac079" y="109.701056"/>
     <use style="fill:#ff0000;stroke:#ff0000;" x="79.578825" xlink:href="#md23ebac079" y="153.918214"/>
     <use style="fill:#ff0000;stroke:#ff0000;" x="80.536508" xlink:href="#md23ebac079" y="153.918214"/>
     <use style="fill:#ff0000;stroke:#ff0000;" x="81.494191" xlink:href="#md23ebac079" y="106.926299"/>
     <use style="fill:#ff0000;stroke:#ff0000;" x="82.451874" xlink:href="#md23ebac079" y="106.926299"/>
     <use style="fill:#ff0000;stroke:#ff0000;" x="83.409558" xlink:href="#md23ebac079" y="61.935947"/>
     <use style="fill:#ff0000;stroke:#ff0000;" x="84.367241" xlink:href="#md23ebac079" y="61.935947"/>
     <use style="fill:#ff0000;stroke:#ff0000;" x="85.324924" xlink:href="#md23ebac079" y="61.935947"/>
     <use style="fill:#ff0000;stroke:#ff0000;" x="86.282607" xlink:href="#md23ebac079" y="53.568"/>
     <use style="fill:#ff0000;stroke:#ff0000;" x="87.24029" xlink:href="#md23ebac079" y="53.568"/>
     <use style="fill:#ff0000;stroke:#ff0000;" x="88.197973" xlink:href="#md23ebac079" y="99.905761"/>
     <use style="fill:#ff0000;stroke:#ff0000;" x="89.155656" xlink:href="#md23ebac079" y="99.905761"/>
     <use style="fill:#ff0000;stroke:#ff0000;" x="90.113339" xlink:href="#md23ebac079" y="89.293022"/>
     <use style="fill:#ff0000;stroke:#ff0000;" x="91.071022" xlink:href="#md23ebac079" y="89.293022"/>
     <use style="fill:#ff0000;stroke:#ff0000;" x="92.028705" xlink:href="#md23ebac079" y="135.87435"/>
     <use style="fill:#ff0000;stroke:#ff0000;" x="92.986388" xlink:href="#md23ebac079" y="135.87435"/>
     <use style="fill:#ff0000;stroke:#ff0000;" x="93.944071" xlink:href="#md23ebac079" y="135.877581"/>
     <use style="fill:#ff0000;stroke:#ff0000;" x="94.901754" xlink:href="#md23ebac079" y="151.849673"/>
     <use style="fill:#ff0000;stroke:#ff0000;" x="95.859437" xlink:href="#md23ebac079" y="151.849673"/>
     <use style="fill:#ff0000;stroke:#ff0000;" x="96.81712" xlink:href="#md23ebac079" y="166.144403"/>
     <use style="fill:#ff0000;stroke:#ff0000;" x="97.774803" xlink:href="#md23ebac079" y="166.144403"/>
     <use style="fill:#ff0000;stroke:#ff0000;" x="98.732486" xlink:href="#md23ebac079" y="149.610428"/>
     <use style="fill:#ff0000;stroke:#ff0000;" x="99.690169" xlink:href="#md23ebac079" y="149.610428"/>
     <use style="fill:#ff0000;stroke:#ff0000;" x="100.647852" xlink:href="#md23ebac079" y="133.763633"/>
     <use style="fill:#ff0000;stroke:#ff0000;" x="101.605535" xlink:href="#md23ebac079" y="133.763633"/>
     <use style="fill:#ff0000;stroke:#ff0000;" x="102.563218" xlink:href="#md23ebac079" y="129.501736"/>
     <use style="fill:#ff0000;stroke:#ff0000;" x="103.520901" xlink:href="#md23ebac079" y="129.501736"/>
     <use style="fill:#ff0000;stroke:#ff0000;" x="104.478584" xlink:href="#md23ebac079" y="129.501736"/>
     <use style="fill:#ff0000;stroke:#ff0000;" x="105.436267" xlink:href="#md23ebac079" y="129.501736"/>
     <use style="fill:#ff0000;stroke:#ff0000;" x="106.39395" xlink:href="#md23ebac079" y="131.149458"/>
     <use style="fill:#ff0000;stroke:#ff0000;" x="107.351633" xlink:href="#md23ebac079" y="131.149458"/>
     <use style="fill:#ff0000;stroke:#ff0000;" x="108.309316" xlink:href="#md23ebac079" y="114.670965"/>
     <use style="fill:#ff0000;stroke:#ff0000;" x="109.266999" xlink:href="#md23ebac079" y="114.670965"/>
     <use style="fill:#ff0000;stroke:#ff0000;" x="110.224682" xlink:href="#md23ebac079" y="114.176387"/>
     <use style="fill:#ff0000;stroke:#ff0000;" x="111.182365" xlink:href="#md23ebac079" y="114.176387"/>
     <use style="fill:#ff0000;stroke:#ff0000;" x="112.140048" xlink:href="#md23ebac079" y="130.790558"/>
     <use style="fill:#ff0000;stroke:#ff0000;" x="113.097731" xlink:href="#md23ebac079" y="145.91263"/>
     <use style="fill:#ff0000;stroke:#ff0000;" x="114.055414" xlink:href="#md23ebac079" y="145.91263"/>
     <use style="fill:#ff0000;stroke:#ff0000;" x="115.013097" xlink:href="#md23ebac079" y="160.031457"/>
     <use style="fill:#ff0000;stroke:#ff0000;" x="115.97078" xlink:href="#md23ebac079" y="160.031457"/>
     <use style="fill:#ff0000;stroke:#ff0000;" x="116.928463" xlink:href="#md23ebac079" y="174.347905"/>
     <use style="fill:#ff0000;stroke:#ff0000;" x="117.886146" xlink:href="#md23ebac079" y="174.347905"/>
     <use style="fill:#ff0000;stroke:#ff0000;" x="118.843829" xlink:href="#md23ebac079" y="188.328001"/>
     <use style="fill:#ff0000;stroke:#ff0000;" x="119.801512" xlink:href="#md23ebac079" y="188.328001"/>
     <use style="fill:#ff0000;stroke:#ff0000;" x="120.759195" xlink:href="#md23ebac079" y="203.679626"/>
     <use style="fill:#ff0000;stroke:#ff0000;" x="121.716879" xlink:href="#md23ebac079" y="203.679626"/>
     <use style="fill:#ff0000;stroke:#ff0000;" x="122.674562" xlink:href="#md23ebac079" y="217.922362"/>
     <use style="fill:#ff0000;stroke:#ff0000;" x="123.632245" xlink:href="#md23ebac079" y="203.553498"/>
     <use style="fill:#ff0000;stroke:#ff0000;" x="124.589928" xlink:href="#md23ebac079" y="203.553498"/>
     <use style="fill:#ff0000;stroke:#ff0000;" x="125.547611" xlink:href="#md23ebac079" y="203.553498"/>
     <use style="fill:#ff0000;stroke:#ff0000;" x="126.505294" xlink:href="#md23ebac079" y="207.666535"/>
     <use style="fill:#ff0000;stroke:#ff0000;" x="127.462977" xlink:href="#md23ebac079" y="207.666535"/>
     <use style="fill:#ff0000;stroke:#ff0000;" x="128.42066" xlink:href="#md23ebac079" y="222.652239"/>
     <use style="fill:#ff0000;stroke:#ff0000;" x="129.378343" xlink:href="#md23ebac079" y="222.652239"/>
     <use style="fill:#ff0000;stroke:#ff0000;" x="130.336026" xlink:href="#md23ebac079" y="237.212514"/>
     <use style="fill:#ff0000;stroke:#ff0000;" x="131.293709" xlink:href="#md23ebac079" y="237.212514"/>
     <use style="fill:#ff0000;stroke:#ff0000;" x="132.251392" xlink:href="#md23ebac079" y="237.212514"/>
     <use style="fill:#ff0000;stroke:#ff0000;" x="133.209075" xlink:href="#md23ebac079" y="250.938609"/>
     <use style="fill:#ff0000;stroke:#ff0000;" x="134.166758" xlink:href="#md23ebac079" y="250.938609"/>
     <use style="fill:#ff0000;stroke:#ff0000;" x="135.124441" xlink:href="#md23ebac079" y="232.80504"/>
     <use style="fill:#ff0000;stroke:#ff0000;" x="136.082124" xlink:href="#md23ebac079" y="232.80504"/>
     <use style="fill:#ff0000;stroke:#ff0000;" x="137.039807" xlink:href="#md23ebac079" y="232.80504"/>
     <use style="fill:#ff0000;stroke:#ff0000;" x="137.99749" xlink:href="#md23ebac079" y="217.198031"/>
     <use style="fill:#ff0000;stroke:#ff0000;" x="138.955173" xlink:href="#md23ebac079" y="217.198031"/>
     <use style="fill:#ff0000;stroke:#ff0000;" x="139.912856" xlink:href="#md23ebac079" y="200.835181"/>
     <use style="fill:#ff0000;stroke:#ff0000;" x="140.870539" xlink:href="#md23ebac079" y="200.835181"/>
     <use style="fill:#ff0000;stroke:#ff0000;" x="141.828222" xlink:href="#md23ebac079" y="201.59859"/>
     <use style="fill:#ff0000;stroke:#ff0000;" x="142.785905" xlink:href="#md23ebac079" y="201.59859"/>
     <use style="fill:#ff0000;stroke:#ff0000;" x="143.743588" xlink:href="#md23ebac079" y="186.571546"/>
     <use style="fill:#ff0000;stroke:#ff0000;" x="144.701271" xlink:href="#md23ebac079" y="170.409714"/>
     <use style="fill:#ff0000;stroke:#ff0000;" x="145.658954" xlink:href="#md23ebac079" y="170.409714"/>
     <use style="fill:#ff0000;stroke:#ff0000;" x="146.616637" xlink:href="#md23ebac079" y="183.340533"/>
     <use style="fill:#ff0000;stroke:#ff0000;" x="147.57432" xlink:href="#md23ebac079" y="183.340533"/>
     <use style="fill:#ff0000;stroke:#ff0000;" x="148.532003" xlink:href="#md23ebac079" y="168.043942"/>
     <use style="fill:#ff0000;stroke:#ff0000;" x="149.489686" xlink:href="#md23ebac079" y="168.043942"/>
     <use style="fill:#ff0000;stroke:#ff0000;" x="150.447369" xlink:href="#md23ebac079" y="181.901045"/>
     <use style="fill:#ff0000;stroke:#ff0000;" x="151.405052" xlink:href="#md23ebac079" y="181.901045"/>
     <use style="fill:#ff0000;stroke:#ff0000;" x="152.362735" xlink:href="#md23ebac079" y="181.901045"/>
     <use style="fill:#ff0000;stroke:#ff0000;" x="153.320418" xlink:href="#md23ebac079" y="181.901045"/>
     <use style="fill:#ff0000;stroke:#ff0000;" x="154.278101" xlink:href="#md23ebac079" y="181.901045"/>
     <use style="fill:#ff0000;stroke:#ff0000;" x="155.235784" xlink:href="#md23ebac079" y="166.100679"/>
     <use style="fill:#ff0000;stroke:#ff0000;" x="156.193467" xlink:href="#md23ebac079" y="166.100679"/>
     <use style="fill:#ff0000;stroke:#ff0000;" x="157.15115" xlink:href="#md23ebac079" y="161.868132"/>
     <use style="fill:#ff0000;stroke:#ff0000;" x="158.108833" xlink:href="#md23ebac079" y="161.868132"/>
     <use style="fill:#ff0000;stroke:#ff0000;" x="159.066516" xlink:href="#md23ebac079" y="177.117957"/>
     <use style="fill:#ff0000;stroke:#ff0000;" x="160.0242" xlink:href="#md23ebac079" y="177.117957"/>
     <use style="fill:#ff0000;stroke:#ff0000;" x="160.981883" xlink:href="#md23ebac079" y="174.654915"/>
     <use style="fill:#ff0000;stroke:#ff0000;" x="161.939566" xlink:href="#md23ebac079" y="188.842554"/>
     <use style="fill:#ff0000;stroke:#ff0000;" x="162.897249" xlink:href="#md23ebac079" y="188.842554"/>
     <use style="fill:#ff0000;stroke:#ff0000;" x="163.854932" xlink:href="#md23ebac079" y="202.313924"/>
     <use style="fill:#ff0000;stroke:#ff0000;" x="164.812615" xlink:href="#md23ebac079" y="202.313924"/>
     <use style="fill:#ff0000;stroke:#ff0000;" x="165.770298" xlink:href="#md23ebac079" y="202.313924"/>
     <use style="fill:#ff0000;stroke:#ff0000;" x="166.727981" xlink:href="#md23ebac079" y="202.313924"/>
     <use style="fill:#ff0000;stroke:#ff0000;" x="167.685664" xlink:href="#md23ebac079" y="202.313924"/>
     <use style="fill:#ff0000;stroke:#ff0000;" x="168.643347" xlink:href="#md23ebac079" y="205.500532"/>
     <use style="fill:#ff0000;stroke:#ff0000;" x="169.60103" xlink:href="#md23ebac079" y="205.500532"/>
     <use style="fill:#ff0000;stroke:#ff0000;" x="170.558713" xlink:href="#md23ebac079" y="205.500532"/>
     <use style="fill:#ff0000;stroke:#ff0000;" x="171.516396" xlink:href="#md23ebac079" y="190.942187"/>
     <use style="fill:#ff0000;stroke:#ff0000;" x="172.474079" xlink:href="#md23ebac079" y="190.942187"/>
     <use style="fill:#ff0000;stroke:#ff0000;" x="173.431762" xlink:href="#md23ebac079" y="190.942187"/>
     <use style="fill:#ff0000;stroke:#ff0000;" x="174.389445" xlink:href="#md23ebac079" y="190.738934"/>
     <use style="fill:#ff0000;stroke:#ff0000;" x="175.347128" xlink:href="#md23ebac079" y="190.738934"/>
     <use style="fill:#ff0000;stroke:#ff0000;" x="176.304811" xlink:href="#md23ebac079" y="174.731493"/>
     <use style="fill:#ff0000;stroke:#ff0000;" x="177.262494" xlink:href="#md23ebac079" y="174.731493"/>
     <use style="fill:#ff0000;stroke:#ff0000;" x="178.220177" xlink:href="#md23ebac079" y="161.119601"/>
     <use style="fill:#ff0000;stroke:#ff0000;" x="179.17786" xlink:href="#md23ebac079" y="161.119601"/>
     <use style="fill:#ff0000;stroke:#ff0000;" x="180.135543" xlink:href="#md23ebac079" y="161.119601"/>
     <use style="fill:#ff0000;stroke:#ff0000;" x="181.093226" xlink:href="#md23ebac079" y="175.986949"/>
     <use style="fill:#ff0000;stroke:#ff0000;" x="182.050909" xlink:href="#md23ebac079" y="175.986949"/>
     <use style="fill:#ff0000;stroke:#ff0000;" x="183.008592" xlink:href="#md23ebac079" y="175.986949"/>
     <use style="fill:#ff0000;stroke:#ff0000;" x="183.966275" xlink:href="#md23ebac079" y="175.986949"/>
     <use style="fill:#ff0000;stroke:#ff0000;" x="184.923958" xlink:href="#md23ebac079" y="175.986949"/>
     <use style="fill:#ff0000;stroke:#ff0000;" x="185.881641" xlink:href="#md23ebac079" y="175.986949"/>
     <use style="fill:#ff0000;stroke:#ff0000;" x="186.839324" xlink:href="#md23ebac079" y="175.986949"/>
     <use style="fill:#ff0000;stroke:#ff0000;" x="187.797007" xlink:href="#md23ebac079" y="175.986949"/>
     <use style="fill:#ff0000;stroke:#ff0000;" x="188.75469" xlink:href="#md23ebac079" y="175.986949"/>
     <use style="fill:#ff0000;stroke:#ff0000;" x="189.712373" xlink:href="#md23ebac079" y="175.986949"/>
     <use style="fill:#ff0000;stroke:#ff0000;" x="190.670056" xlink:href="#md23ebac079" y="159.768663"/>
     <use style="fill:#ff0000;stroke:#ff0000;" x="191.627739" xlink:href="#md23ebac079" y="159.768663"/>
     <use style="fill:#ff0000;stroke:#ff0000;" x="192.585422" xlink:href="#md23ebac079" y="175.614066"/>
     <use style="fill:#ff0000;stroke:#ff0000;" x="193.543105" xlink:href="#md23ebac079" y="190.212266"/>
     <use style="fill:#ff0000;stroke:#ff0000;" x="194.500788" xlink:href="#md23ebac079" y="190.212266"/>
     <use style="fill:#ff0000;stroke:#ff0000;" x="195.458471" xlink:href="#md23ebac079" y="193.350739"/>
     <use style="fill:#ff0000;stroke:#ff0000;" x="196.416154" xlink:href="#md23ebac079" y="193.350739"/>
     <use style="fill:#ff0000;stroke:#ff0000;" x="197.373837" xlink:href="#md23ebac079" y="191.489494"/>
     <use style="fill:#ff0000;stroke:#ff0000;" x="198.331521" xlink:href="#md23ebac079" y="191.489494"/>
     <use style="fill:#ff0000;stroke:#ff0000;" x="199.289204" xlink:href="#md23ebac079" y="204.876822"/>
     <use style="fill:#ff0000;stroke:#ff0000;" x="200.246887" xlink:href="#md23ebac079" y="204.876822"/>
     <use style="fill:#ff0000;stroke:#ff0000;" x="201.20457" xlink:href="#md23ebac079" y="220.870583"/>
     <use style="fill:#ff0000;stroke:#ff0000;" x="202.162253" xlink:href="#md23ebac079" y="221.841321"/>
     <use style="fill:#ff0000;stroke:#ff0000;" x="203.119936" xlink:href="#md23ebac079" y="221.841321"/>
     <use style="fill:#ff0000;stroke:#ff0000;" x="204.077619" xlink:href="#md23ebac079" y="235.035807"/>
     <use style="fill:#ff0000;stroke:#ff0000;" x="205.035302" xlink:href="#md23ebac079" y="235.035807"/>
     <use style="fill:#ff0000;stroke:#ff0000;" x="205.992985" xlink:href="#md23ebac079" y="235.035807"/>
     <use style="fill:#ff0000;stroke:#ff0000;" x="206.950668" xlink:href="#md23ebac079" y="235.035807"/>
     <use style="fill:#ff0000;stroke:#ff0000;" x="207.908351" xlink:href="#md23ebac079" y="235.035807"/>
     <use style="fill:#ff0000;stroke:#ff0000;" x="208.866034" xlink:href="#md23ebac079" y="237.868279"/>
     <use style="fill:#ff0000;stroke:#ff0000;" x="209.823717" xlink:href="#md23ebac079" y="237.868279"/>
     <use style="fill:#ff0000;stroke:#ff0000;" x="210.7814" xlink:href="#md23ebac079" y="251.335106"/>
     <use style="fill:#ff0000;stroke:#ff0000;" x="211.739083" xlink:href="#md23ebac079" y="251.335106"/>
     <use style="fill:#ff0000;stroke:#ff0000;" x="212.696766" xlink:href="#md23ebac079" y="236.268687"/>
     <use style="fill:#ff0000;stroke:#ff0000;" x="213.654449" xlink:href="#md23ebac079" y="236.268687"/>
     <use style="fill:#ff0000;stroke:#ff0000;" x="214.612132" xlink:href="#md23ebac079" y="234.909321"/>
     <use style="fill:#ff0000;stroke:#ff0000;" x="215.569815" xlink:href="#md23ebac079" y="249.869738"/>
     <use style="fill:#ff0000;stroke:#ff0000;" x="216.527498" xlink:href="#md23ebac079" y="249.869738"/>
     <use style="fill:#ff0000;stroke:#ff0000;" x="217.485181" xlink:href="#md23ebac079" y="249.869738"/>
     <use style="fill:#ff0000;stroke:#ff0000;" x="218.442864" xlink:href="#md23ebac079" y="264.19282"/>
     <use style="fill:#ff0000;stroke:#ff0000;" x="219.400547" xlink:href="#md23ebac079" y="264.19282"/>
     <use style="fill:#ff0000;stroke:#ff0000;" x="220.35823" xlink:href="#md23ebac079" y="264.19282"/>
     <use style="fill:#ff0000;stroke:#ff0000;" x="221.315913" xlink:href="#md23ebac079" y="258.449257"/>
     <use style="fill:#ff0000;stroke:#ff0000;" x="222.273596" xlink:href="#md23ebac079" y="273.429193"/>
     <use style="fill:#ff0000;stroke:#ff0000;" x="223.231279" xlink:href="#md23ebac079" y="273.429193"/>
     <use style="fill:#ff0000;stroke:#ff0000;" x="224.188962" xlink:href="#md23ebac079" y="287.361139"/>
     <use style="fill:#ff0000;stroke:#ff0000;" x="225.146645" xlink:href="#md23ebac079" y="287.361139"/>
     <use style="fill:#ff0000;stroke:#ff0000;" x="226.104328" xlink:href="#md23ebac079" y="287.361139"/>
     <use style="fill:#ff0000;stroke:#ff0000;" x="227.062011" xlink:href="#md23ebac079" y="287.361139"/>
     <use style="fill:#ff0000;stroke:#ff0000;" x="228.019694" xlink:href="#md23ebac079" y="272.030175"/>
     <use style="fill:#ff0000;stroke:#ff0000;" x="228.977377" xlink:href="#md23ebac079" y="272.030175"/>
     <use style="fill:#ff0000;stroke:#ff0000;" x="229.93506" xlink:href="#md23ebac079" y="272.138587"/>
     <use style="fill:#ff0000;stroke:#ff0000;" x="230.892743" xlink:href="#md23ebac079" y="272.138587"/>
     <use style="fill:#ff0000;stroke:#ff0000;" x="231.850426" xlink:href="#md23ebac079" y="270.754214"/>
     <use style="fill:#ff0000;stroke:#ff0000;" x="232.808109" xlink:href="#md23ebac079" y="266.883295"/>
     <use style="fill:#ff0000;stroke:#ff0000;" x="233.765792" xlink:href="#md23ebac079" y="266.883295"/>
     <use style="fill:#ff0000;stroke:#ff0000;" x="234.723475" xlink:href="#md23ebac079" y="252.423994"/>
     <use style="fill:#ff0000;stroke:#ff0000;" x="235.681158" xlink:href="#md23ebac079" y="252.423994"/>
     <use style="fill:#ff0000;stroke:#ff0000;" x="236.638842" xlink:href="#md23ebac079" y="252.423994"/>
     <use style="fill:#ff0000;stroke:#ff0000;" x="237.596525" xlink:href="#md23ebac079" y="265.055005"/>
     <use style="fill:#ff0000;stroke:#ff0000;" x="238.554208" xlink:href="#md23ebac079" y="279.126487"/>
     <use style="fill:#ff0000;stroke:#ff0000;" x="239.511891" xlink:href="#md23ebac079" y="279.126487"/>
     <use style="fill:#ff0000;stroke:#ff0000;" x="240.469574" xlink:href="#md23ebac079" y="294.487246"/>
     <use style="fill:#ff0000;stroke:#ff0000;" x="241.427257" xlink:href="#md23ebac079" y="294.487246"/>
     <use style="fill:#ff0000;stroke:#ff0000;" x="242.38494" xlink:href="#md23ebac079" y="295.488"/>
     <use style="fill:#ff0000;stroke:#ff0000;" x="243.342623" xlink:href="#md23ebac079" y="295.488"/>
     <use style="fill:#ff0000;stroke:#ff0000;" x="244.300306" xlink:href="#md23ebac079" y="293.830893"/>
     <use style="fill:#ff0000;stroke:#ff0000;" x="245.257989" xlink:href="#md23ebac079" y="293.830893"/>
     <use style="fill:#ff0000;stroke:#ff0000;" x="246.215672" xlink:href="#md23ebac079" y="293.830893"/>
     <use style="fill:#ff0000;stroke:#ff0000;" x="247.173355" xlink:href="#md23ebac079" y="276.191903"/>
     <use style="fill:#ff0000;stroke:#ff0000;" x="248.131038" xlink:href="#md23ebac079" y="276.191903"/>
     <use style="fill:#ff0000;stroke:#ff0000;" x="249.088721" xlink:href="#md23ebac079" y="289.256672"/>
     <use style="fill:#ff0000;stroke:#ff0000;" x="250.046404" xlink:href="#md23ebac079" y="289.256672"/>
     <use style="fill:#ff0000;stroke:#ff0000;" x="251.004087" xlink:href="#md23ebac079" y="287.226635"/>
     <use style="fill:#ff0000;stroke:#ff0000;" x="251.96177" xlink:href="#md23ebac079" y="287.226635"/>
     <use style="fill:#ff0000;stroke:#ff0000;" x="252.919453" xlink:href="#md23ebac079" y="287.226635"/>
     <use style="fill:#ff0000;stroke:#ff0000;" x="253.877136" xlink:href="#md23ebac079" y="287.226635"/>
     <use style="fill:#ff0000;stroke:#ff0000;" x="254.834819" xlink:href="#md23ebac079" y="287.226635"/>
     <use style="fill:#ff0000;stroke:#ff0000;" x="255.792502" xlink:href="#md23ebac079" y="287.226635"/>
     <use style="fill:#ff0000;stroke:#ff0000;" x="256.750185" xlink:href="#md23ebac079" y="287.226635"/>
     <use style="fill:#ff0000;stroke:#ff0000;" x="257.707868" xlink:href="#md23ebac079" y="287.226635"/>
     <use style="fill:#ff0000;stroke:#ff0000;" x="258.665551" xlink:href="#md23ebac079" y="287.226635"/>
     <use style="fill:#ff0000;stroke:#ff0000;" x="259.623234" xlink:href="#md23ebac079" y="287.226635"/>
     <use style="fill:#ff0000;stroke:#ff0000;" x="260.580917" xlink:href="#md23ebac079" y="287.226635"/>
     <use style="fill:#ff0000;stroke:#ff0000;" x="261.5386" xlink:href="#md23ebac079" y="287.226635"/>
     <use style="fill:#ff0000;stroke:#ff0000;" x="262.496283" xlink:href="#md23ebac079" y="287.226635"/>
     <use style="fill:#ff0000;stroke:#ff0000;" x="263.453966" xlink:href="#md23ebac079" y="287.226635"/>
     <use style="fill:#ff0000;stroke:#ff0000;" x="264.411649" xlink:href="#md23ebac079" y="287.226635"/>
     <use style="fill:#ff0000;stroke:#ff0000;" x="265.369332" xlink:href="#md23ebac079" y="287.226635"/>
     <use style="fill:#ff0000;stroke:#ff0000;" x="266.327015" xlink:href="#md23ebac079" y="287.226635"/>
     <use style="fill:#ff0000;stroke:#ff0000;" x="267.284698" xlink:href="#md23ebac079" y="287.226635"/>
     <use style="fill:#ff0000;stroke:#ff0000;" x="268.242381" xlink:href="#md23ebac079" y="287.226635"/>
     <use style="fill:#ff0000;stroke:#ff0000;" x="269.200064" xlink:href="#md23ebac079" y="287.226635"/>
     <use style="fill:#ff0000;stroke:#ff0000;" x="270.157747" xlink:href="#md23ebac079" y="287.226635"/>
     <use style="fill:#ff0000;stroke:#ff0000;" x="271.11543" xlink:href="#md23ebac079" y="287.226635"/>
     <use style="fill:#ff0000;stroke:#ff0000;" x="272.073113" xlink:href="#md23ebac079" y="287.226635"/>
     <use style="fill:#ff0000;stroke:#ff0000;" x="273.030796" xlink:href="#md23ebac079" y="287.226635"/>
     <use style="fill:#ff0000;stroke:#ff0000;" x="273.988479" xlink:href="#md23ebac079" y="287.226635"/>
     <use style="fill:#ff0000;stroke:#ff0000;" x="274.946163" xlink:href="#md23ebac079" y="287.226635"/>
     <use style="fill:#ff0000;stroke:#ff0000;" x="275.903846" xlink:href="#md23ebac079" y="287.226635"/>
     <use style="fill:#ff0000;stroke:#ff0000;" x="276.861529" xlink:href="#md23ebac079" y="287.226635"/>
     <use style="fill:#ff0000;stroke:#ff0000;" x="277.819212" xlink:href="#md23ebac079" y="287.226635"/>
     <use style="fill:#ff0000;stroke:#ff0000;" x="278.776895" xlink:href="#md23ebac079" y="287.226635"/>
     <use style="fill:#ff0000;stroke:#ff0000;" x="279.734578" xlink:href="#md23ebac079" y="287.226635"/>
     <use style="fill:#ff0000;stroke:#ff0000;" x="280.692261" xlink:href="#md23ebac079" y="287.226635"/>
     <use style="fill:#ff0000;stroke:#ff0000;" x="281.649944" xlink:href="#md23ebac079" y="287.226635"/>
     <use style="fill:#ff0000;stroke:#ff0000;" x="282.607627" xlink:href="#md23ebac079" y="287.226635"/>
     <use style="fill:#ff0000;stroke:#ff0000;" x="283.56531" xlink:href="#md23ebac079" y="287.226635"/>
     <use style="fill:#ff0000;stroke:#ff0000;" x="284.522993" xlink:href="#md23ebac079" y="287.226635"/>
     <use style="fill:#ff0000;stroke:#ff0000;" x="285.480676" xlink:href="#md23ebac079" y="287.226635"/>
     <use style="fill:#ff0000;stroke:#ff0000;" x="286.438359" xlink:href="#md23ebac079" y="287.226635"/>
     <use style="fill:#ff0000;stroke:#ff0000;" x="287.396042" xlink:href="#md23ebac079" y="287.226635"/>
     <use style="fill:#ff0000;stroke:#ff0000;" x="288.353725" xlink:href="#md23ebac079" y="287.226635"/>
     <use style="fill:#ff0000;stroke:#ff0000;" x="289.311408" xlink:href="#md23ebac079" y="287.226635"/>
     <use style="fill:#ff0000;stroke:#ff0000;" x="290.269091" xlink:href="#md23ebac079" y="287.226635"/>
     <use style="fill:#ff0000;stroke:#ff0000;" x="291.226774" xlink:href="#md23ebac079" y="287.226635"/>
     <use style="fill:#ff0000;stroke:#ff0000;" x="292.184457" xlink:href="#md23ebac079" y="287.226635"/>
     <use style="fill:#ff0000;stroke:#ff0000;" x="293.14214" xlink:href="#md23ebac079" y="287.226635"/>
     <use style="fill:#ff0000;stroke:#ff0000;" x="294.099823" xlink:href="#md23ebac079" y="287.226635"/>
     <use style="fill:#ff0000;stroke:#ff0000;" x="295.057506" xlink:href="#md23ebac079" y="287.226635"/>
     <use style="fill:#ff0000;stroke:#ff0000;" x="296.015189" xlink:href="#md23ebac079" y="287.226635"/>
     <use style="fill:#ff0000;stroke:#ff0000;" x="296.972872" xlink:href="#md23ebac079" y="287.226635"/>
     <use style="fill:#ff0000;stroke:#ff0000;" x="297.930555" xlink:href="#md23ebac079" y="287.226635"/>
     <use style="fill:#ff0000;stroke:#ff0000;" x="298.888238" xlink:href="#md23ebac079" y="287.226635"/>
     <use style="fill:#ff0000;stroke:#ff0000;" x="299.845921" xlink:href="#md23ebac079" y="287.226635"/>
     <use style="fill:#ff0000;stroke:#ff0000;" x="300.803604" xlink:href="#md23ebac079" y="287.226635"/>
     <use style="fill:#ff0000;stroke:#ff0000;" x="301.761287" xlink:href="#md23ebac079" y="287.226635"/>
     <use style="fill:#ff0000;stroke:#ff0000;" x="302.71897" xlink:href="#md23ebac079" y="287.226635"/>
     <use style="fill:#ff0000;stroke:#ff0000;" x="303.676653" xlink:href="#md23ebac079" y="287.226635"/>
     <use style="fill:#ff0000;stroke:#ff0000;" x="304.634336" xlink:href="#md23ebac079" y="287.226635"/>
     <use style="fill:#ff0000;stroke:#ff0000;" x="305.592019" xlink:href="#md23ebac079" y="287.226635"/>
     <use style="fill:#ff0000;stroke:#ff0000;" x="306.549702" xlink:href="#md23ebac079" y="287.226635"/>
     <use style="fill:#ff0000;stroke:#ff0000;" x="307.507385" xlink:href="#md23ebac079" y="287.226635"/>
     <use style="fill:#ff0000;stroke:#ff0000;" x="308.465068" xlink:href="#md23ebac079" y="287.226635"/>
     <use style="fill:#ff0000;stroke:#ff0000;" x="309.422751" xlink:href="#md23ebac079" y="287.226635"/>
     <use style="fill:#ff0000;stroke:#ff0000;" x="310.380434" xlink:href="#md23ebac079" y="287.226635"/>
     <use style="fill:#ff0000;stroke:#ff0000;" x="311.338117" xlink:href="#md23ebac079" y="287.226635"/>
     <use style="fill:#ff0000;stroke:#ff0000;" x="312.2958" xlink:href="#md23ebac079" y="287.226635"/>
     <use style="fill:#ff0000;stroke:#ff0000;" x="313.253484" xlink:href="#md23ebac079" y="287.226635"/>
     <use style="fill:#ff0000;stroke:#ff0000;" x="314.211167" xlink:href="#md23ebac079" y="287.226635"/>
     <use style="fill:#ff0000;stroke:#ff0000;" x="315.16885" xlink:href="#md23ebac079" y="287.226635"/>
     <use style="fill:#ff0000;stroke:#ff0000;" x="316.126533" xlink:href="#md23ebac079" y="287.226635"/>
     <use style="fill:#ff0000;stroke:#ff0000;" x="317.084216" xlink:href="#md23ebac079" y="287.226635"/>
     <use style="fill:#ff0000;stroke:#ff0000;" x="318.041899" xlink:href="#md23ebac079" y="287.226635"/>
     <use style="fill:#ff0000;stroke:#ff0000;" x="318.999582" xlink:href="#md23ebac079" y="287.226635"/>
     <use style="fill:#ff0000;stroke:#ff0000;" x="319.957265" xlink:href="#md23ebac079" y="287.226635"/>
     <use style="fill:#ff0000;stroke:#ff0000;" x="320.914948" xlink:href="#md23ebac079" y="287.226635"/>
     <use style="fill:#ff0000;stroke:#ff0000;" x="321.872631" xlink:href="#md23ebac079" y="287.226635"/>
     <use style="fill:#ff0000;stroke:#ff0000;" x="322.830314" xlink:href="#md23ebac079" y="287.226635"/>
     <use style="fill:#ff0000;stroke:#ff0000;" x="323.787997" xlink:href="#md23ebac079" y="287.226635"/>
     <use style="fill:#ff0000;stroke:#ff0000;" x="324.74568" xlink:href="#md23ebac079" y="287.226635"/>
     <use style="fill:#ff0000;stroke:#ff0000;" x="325.703363" xlink:href="#md23ebac079" y="287.226635"/>
     <use style="fill:#ff0000;stroke:#ff0000;" x="326.661046" xlink:href="#md23ebac079" y="287.226635"/>
     <use style="fill:#ff0000;stroke:#ff0000;" x="327.618729" xlink:href="#md23ebac079" y="287.226635"/>
     <use style="fill:#ff0000;stroke:#ff0000;" x="328.576412" xlink:href="#md23ebac079" y="287.226635"/>
     <use style="fill:#ff0000;stroke:#ff0000;" x="329.534095" xlink:href="#md23ebac079" y="287.226635"/>
     <use style="fill:#ff0000;stroke:#ff0000;" x="330.491778" xlink:href="#md23ebac079" y="287.226635"/>
     <use style="fill:#ff0000;stroke:#ff0000;" x="331.449461" xlink:href="#md23ebac079" y="287.226635"/>
     <use style="fill:#ff0000;stroke:#ff0000;" x="332.407144" xlink:href="#md23ebac079" y="287.226635"/>
     <use style="fill:#ff0000;stroke:#ff0000;" x="333.364827" xlink:href="#md23ebac079" y="287.226635"/>
     <use style="fill:#ff0000;stroke:#ff0000;" x="334.32251" xlink:href="#md23ebac079" y="287.226635"/>
     <use style="fill:#ff0000;stroke:#ff0000;" x="335.280193" xlink:href="#md23ebac079" y="287.226635"/>
     <use style="fill:#ff0000;stroke:#ff0000;" x="336.237876" xlink:href="#md23ebac079" y="287.226635"/>
     <use style="fill:#ff0000;stroke:#ff0000;" x="337.195559" xlink:href="#md23ebac079" y="287.226635"/>
     <use style="fill:#ff0000;stroke:#ff0000;" x="338.153242" xlink:href="#md23ebac079" y="287.226635"/>
     <use style="fill:#ff0000;stroke:#ff0000;" x="339.110925" xlink:href="#md23ebac079" y="287.226635"/>
     <use style="fill:#ff0000;stroke:#ff0000;" x="340.068608" xlink:href="#md23ebac079" y="287.226635"/>
     <use style="fill:#ff0000;stroke:#ff0000;" x="341.026291" xlink:href="#md23ebac079" y="287.226635"/>
     <use style="fill:#ff0000;stroke:#ff0000;" x="341.983974" xlink:href="#md23ebac079" y="287.226635"/>
     <use style="fill:#ff0000;stroke:#ff0000;" x="342.941657" xlink:href="#md23ebac079" y="287.226635"/>
     <use style="fill:#ff0000;stroke:#ff0000;" x="343.89934" xlink:href="#md23ebac079" y="287.226635"/>
     <use style="fill:#ff0000;stroke:#ff0000;" x="344.857023" xlink:href="#md23ebac079" y="287.226635"/>
     <use style="fill:#ff0000;stroke:#ff0000;" x="345.814706" xlink:href="#md23ebac079" y="287.226635"/>
     <use style="fill:#ff0000;stroke:#ff0000;" x="346.772389" xlink:href="#md23ebac079" y="287.226635"/>
     <use style="fill:#ff0000;stroke:#ff0000;" x="347.730072" xlink:href="#md23ebac079" y="287.226635"/>
     <use style="fill:#ff0000;stroke:#ff0000;" x="348.687755" xlink:href="#md23ebac079" y="287.226635"/>
     <use style="fill:#ff0000;stroke:#ff0000;" x="349.645438" xlink:href="#md23ebac079" y="287.226635"/>
     <use style="fill:#ff0000;stroke:#ff0000;" x="350.603121" xlink:href="#md23ebac079" y="287.226635"/>
     <use style="fill:#ff0000;stroke:#ff0000;" x="351.560805" xlink:href="#md23ebac079" y="287.226635"/>
     <use style="fill:#ff0000;stroke:#ff0000;" x="352.518488" xlink:href="#md23ebac079" y="287.226635"/>
     <use style="fill:#ff0000;stroke:#ff0000;" x="353.476171" xlink:href="#md23ebac079" y="287.226635"/>
     <use style="fill:#ff0000;stroke:#ff0000;" x="354.433854" xlink:href="#md23ebac079" y="287.226635"/>
     <use style="fill:#ff0000;stroke:#ff0000;" x="355.391537" xlink:href="#md23ebac079" y="287.226635"/>
     <use style="fill:#ff0000;stroke:#ff0000;" x="356.34922" xlink:href="#md23ebac079" y="287.226635"/>
     <use style="fill:#ff0000;stroke:#ff0000;" x="357.306903" xlink:href="#md23ebac079" y="287.226635"/>
     <use style="fill:#ff0000;stroke:#ff0000;" x="358.264586" xlink:href="#md23ebac079" y="287.226635"/>
     <use style="fill:#ff0000;stroke:#ff0000;" x="359.222269" xlink:href="#md23ebac079" y="287.226635"/>
     <use style="fill:#ff0000;stroke:#ff0000;" x="360.179952" xlink:href="#md23ebac079" y="287.226635"/>
     <use style="fill:#ff0000;stroke:#ff0000;" x="361.137635" xlink:href="#md23ebac079" y="287.226635"/>
     <use style="fill:#ff0000;stroke:#ff0000;" x="362.095318" xlink:href="#md23ebac079" y="287.226635"/>
     <use style="fill:#ff0000;stroke:#ff0000;" x="363.053001" xlink:href="#md23ebac079" y="287.226635"/>
     <use style="fill:#ff0000;stroke:#ff0000;" x="364.010684" xlink:href="#md23ebac079" y="287.226635"/>
     <use style="fill:#ff0000;stroke:#ff0000;" x="364.968367" xlink:href="#md23ebac079" y="287.226635"/>
     <use style="fill:#ff0000;stroke:#ff0000;" x="365.92605" xlink:href="#md23ebac079" y="287.226635"/>
     <use style="fill:#ff0000;stroke:#ff0000;" x="366.883733" xlink:href="#md23ebac079" y="287.226635"/>
     <use style="fill:#ff0000;stroke:#ff0000;" x="367.841416" xlink:href="#md23ebac079" y="287.226635"/>
     <use style="fill:#ff0000;stroke:#ff0000;" x="368.799099" xlink:href="#md23ebac079" y="287.226635"/>
     <use style="fill:#ff0000;stroke:#ff0000;" x="369.756782" xlink:href="#md23ebac079" y="287.226635"/>
     <use style="fill:#ff0000;stroke:#ff0000;" x="370.714465" xlink:href="#md23ebac079" y="287.226635"/>
     <use style="fill:#ff0000;stroke:#ff0000;" x="371.672148" xlink:href="#md23ebac079" y="287.226635"/>
     <use style="fill:#ff0000;stroke:#ff0000;" x="372.629831" xlink:href="#md23ebac079" y="287.226635"/>
     <use style="fill:#ff0000;stroke:#ff0000;" x="373.587514" xlink:href="#md23ebac079" y="287.226635"/>
     <use style="fill:#ff0000;stroke:#ff0000;" x="374.545197" xlink:href="#md23ebac079" y="287.226635"/>
     <use style="fill:#ff0000;stroke:#ff0000;" x="375.50288" xlink:href="#md23ebac079" y="287.226635"/>
     <use style="fill:#ff0000;stroke:#ff0000;" x="376.460563" xlink:href="#md23ebac079" y="287.226635"/>
     <use style="fill:#ff0000;stroke:#ff0000;" x="377.418246" xlink:href="#md23ebac079" y="287.226635"/>
     <use style="fill:#ff0000;stroke:#ff0000;" x="378.375929" xlink:href="#md23ebac079" y="287.226635"/>
     <use style="fill:#ff0000;stroke:#ff0000;" x="379.333612" xlink:href="#md23ebac079" y="287.226635"/>
     <use style="fill:#ff0000;stroke:#ff0000;" x="380.291295" xlink:href="#md23ebac079" y="287.226635"/>
     <use style="fill:#ff0000;stroke:#ff0000;" x="381.248978" xlink:href="#md23ebac079" y="287.226635"/>
     <use style="fill:#ff0000;stroke:#ff0000;" x="382.206661" xlink:href="#md23ebac079" y="287.226635"/>
     <use style="fill:#ff0000;stroke:#ff0000;" x="383.164344" xlink:href="#md23ebac079" y="287.226635"/>
     <use style="fill:#ff0000;stroke:#ff0000;" x="384.122027" xlink:href="#md23ebac079" y="287.226635"/>
     <use style="fill:#ff0000;stroke:#ff0000;" x="385.07971" xlink:href="#md23ebac079" y="287.226635"/>
     <use style="fill:#ff0000;stroke:#ff0000;" x="386.037393" xlink:href="#md23ebac079" y="287.226635"/>
     <use style="fill:#ff0000;stroke:#ff0000;" x="386.995076" xlink:href="#md23ebac079" y="287.226635"/>
     <use style="fill:#ff0000;stroke:#ff0000;" x="387.952759" xlink:href="#md23ebac079" y="287.226635"/>
     <use style="fill:#ff0000;stroke:#ff0000;" x="388.910442" xlink:href="#md23ebac079" y="287.226635"/>
     <use style="fill:#ff0000;stroke:#ff0000;" x="389.868126" xlink:href="#md23ebac079" y="287.226635"/>
     <use style="fill:#ff0000;stroke:#ff0000;" x="390.825809" xlink:href="#md23ebac079" y="287.226635"/>
     <use style="fill:#ff0000;stroke:#ff0000;" x="391.783492" xlink:href="#md23ebac079" y="287.226635"/>
     <use style="fill:#ff0000;stroke:#ff0000;" x="392.741175" xlink:href="#md23ebac079" y="287.226635"/>
     <use style="fill:#ff0000;stroke:#ff0000;" x="393.698858" xlink:href="#md23ebac079" y="287.226635"/>
     <use style="fill:#ff0000;stroke:#ff0000;" x="394.656541" xlink:href="#md23ebac079" y="287.226635"/>
     <use style="fill:#ff0000;stroke:#ff0000;" x="395.614224" xlink:href="#md23ebac079" y="287.226635"/>
     <use style="fill:#ff0000;stroke:#ff0000;" x="396.571907" xlink:href="#md23ebac079" y="287.226635"/>
     <use style="fill:#ff0000;stroke:#ff0000;" x="397.52959" xlink:href="#md23ebac079" y="287.226635"/>
     <use style="fill:#ff0000;stroke:#ff0000;" x="398.487273" xlink:href="#md23ebac079" y="287.226635"/>
    </g>
   </g>
   <g id="patch_3">
    <path d="M 57.6 307.584 
L 57.6 41.472 
" style="fill:none;stroke:#000000;stroke-linecap:square;stroke-linejoin:miter;stroke-width:0.8;"/>
   </g>
   <g id="patch_4">
    <path d="M 414.72 307.584 
L 414.72 41.472 
" style="fill:none;stroke:#000000;stroke-linecap:square;stroke-linejoin:miter;stroke-width:0.8;"/>
   </g>
   <g id="patch_5">
    <path d="M 57.6 307.584 
L 414.72 307.584 
" style="fill:none;stroke:#000000;stroke-linecap:square;stroke-linejoin:miter;stroke-width:0.8;"/>
   </g>
   <g id="patch_6">
    <path d="M 57.6 41.472 
L 414.72 41.472 
" style="fill:none;stroke:#000000;stroke-linecap:square;stroke-linejoin:miter;stroke-width:0.8;"/>
   </g>
  </g>
 </g>
 <defs>
  <clipPath id="p018a9e86b4">
   <rect height="266.112" width="357.12" x="57.6" y="41.472"/>
  </clipPath>
 </defs>
</svg>
