<?xml version="1.0" encoding="utf-8" standalone="no"?>
<!DOCTYPE svg PUBLIC "-//W3C//DTD SVG 1.1//EN"
  "http://www.w3.org/Graphics/SVG/1.1/DTD/svg11.dtd">
<!-- Created with matplotlib (https://matplotlib.org/) -->
<svg height="345.6pt" version="1.1" viewBox="0 0 460.8 345.6" width="460.8pt" xmlns="http://www.w3.org/2000/svg" xmlns:xlink="http://www.w3.org/1999/xlink">
 <defs>
  <style type="text/css">
*{stroke-linecap:butt;stroke-linejoin:round;}
  </style>
 </defs>
 <g id="figure_1">
  <g id="patch_1">
   <path d="M 0 345.6 
L 460.8 345.6 
L 460.8 0 
L 0 0 
z
" style="fill:#ffffff;"/>
  </g>
  <g id="axes_1">
   <g id="patch_2">
    <path d="M 57.6 307.584 
L 414.72 307.584 
L 414.72 41.472 
L 57.6 41.472 
z
" style="fill:#ffffff;"/>
   </g>
   <g id="line2d_1">
    <path clip-path="url(#p38fe8f60cc)" d="M 73.832727 61.721809 
L 76.202468 61.721809 
L 77.387339 109.701056 
L 79.75708 109.701056 
L 80.941951 153.918214 
L 82.126821 153.918214 
L 83.311692 106.926299 
L 84.496563 106.926299 
L 85.681433 61.935947 
L 88.051175 61.935947 
L 89.236045 53.568 
L 90.420916 53.568 
L 91.605786 99.905761 
L 92.790657 99.905761 
L 93.975528 89.293022 
L 95.160398 89.293022 
L 96.345269 135.87435 
L 98.71501 135.877581 
L 99.899881 151.849673 
L 101.084751 151.849673 
L 102.269622 166.144403 
L 103.454492 166.144403 
L 104.639363 149.610428 
L 105.824234 149.610428 
L 107.009104 133.763633 
L 108.193975 133.763633 
L 109.378845 129.501736 
L 112.933457 129.501736 
L 114.118328 131.149458 
L 115.303198 131.149458 
L 116.488069 114.670965 
L 117.67294 114.670965 
L 118.85781 114.176387 
L 120.042681 114.176387 
L 122.412422 145.91263 
L 123.597293 145.91263 
L 124.782163 160.031457 
L 125.967034 160.031457 
L 127.151904 174.347905 
L 128.336775 174.347905 
L 129.521646 188.328001 
L 130.706516 188.328001 
L 131.891387 203.679626 
L 133.076257 203.679626 
L 134.261128 217.922362 
L 135.445999 203.553498 
L 137.81574 203.553498 
L 139.00061 207.666535 
L 140.185481 207.666535 
L 141.370352 222.652239 
L 142.555222 222.652239 
L 143.740093 237.212514 
L 146.109834 237.212514 
L 147.294705 250.938609 
L 148.479575 250.938609 
L 149.664446 232.80504 
L 152.034187 232.80504 
L 153.219058 217.198031 
L 154.403928 217.198031 
L 155.588799 200.835181 
L 156.77367 200.835181 
L 157.95854 201.59859 
L 159.143411 201.59859 
L 161.513152 170.409714 
L 162.698023 170.409714 
L 163.882893 183.340533 
L 165.067764 183.340533 
L 166.252634 168.043942 
L 167.437505 168.043942 
L 168.622376 181.901045 
L 173.361858 181.901045 
L 174.546729 166.100679 
L 175.731599 166.100679 
L 176.91647 161.868132 
L 178.10134 161.868132 
L 179.286211 177.117957 
L 180.471082 177.117957 
L 181.655952 174.654915 
L 182.840823 188.842554 
L 184.025693 188.842554 
L 185.210564 202.313924 
L 189.950046 202.313924 
L 191.134917 205.500532 
L 193.504658 205.500532 
L 194.689529 190.942187 
L 197.05927 190.942187 
L 198.244141 190.738934 
L 199.429011 190.738934 
L 200.613882 174.731493 
L 201.798752 174.731493 
L 202.983623 161.119601 
L 205.353364 161.119601 
L 206.538235 175.986949 
L 217.20207 175.986949 
L 218.386941 159.768663 
L 219.571812 159.768663 
L 221.941553 190.212266 
L 223.126423 190.212266 
L 224.311294 193.350739 
L 225.496165 193.350739 
L 226.681035 191.489494 
L 227.865906 191.489494 
L 229.050776 204.876822 
L 230.235647 204.876822 
L 231.420518 220.870583 
L 232.605388 221.841321 
L 233.790259 221.841321 
L 234.975129 235.035807 
L 239.714612 235.035807 
L 240.899482 237.868279 
L 242.084353 237.868279 
L 243.269224 251.335106 
L 244.454094 251.335106 
L 245.638965 236.268687 
L 246.823835 236.268687 
L 248.008706 234.909321 
L 249.193577 249.869738 
L 251.563318 249.869738 
L 252.748188 264.19282 
L 255.11793 264.19282 
L 256.3028 258.449257 
L 257.487671 273.429193 
L 258.672541 273.429193 
L 259.857412 287.361139 
L 263.412024 287.361139 
L 264.596894 272.030175 
L 268.151506 272.138587 
L 269.336377 270.754214 
L 270.521248 266.883295 
L 271.706118 266.883295 
L 272.890989 252.423994 
L 275.26073 252.423994 
L 276.445601 265.055005 
L 277.630471 279.126487 
L 278.815342 279.126487 
L 280.000212 294.487246 
L 281.185083 294.487246 
L 282.369954 295.488 
L 283.554824 295.488 
L 284.739695 293.830893 
L 287.109436 293.830893 
L 288.294307 276.191903 
L 289.479177 276.191903 
L 290.664048 289.256672 
L 291.848918 289.256672 
L 293.033789 287.226635 
L 398.487273 287.226635 
L 398.487273 287.226635 
" style="fill:none;stroke:#ff0000;stroke-linecap:square;stroke-width:12;"/>
    <defs>
     <path d="M 0 3 
C 0.795609 3 1.55874 2.683901 2.12132 2.12132 
C 2.683901 1.55874 3 0.795609 3 0 
C 3 -0.795609 2.683901 -1.55874 2.12132 -2.12132 
C 1.55874 -2.683901 0.795609 -3 0 -3 
C -0.795609 -3 -1.55874 -2.683901 -2.12132 -2.12132 
C -2.683901 -1.55874 -3 -0.795609 -3 0 
C -3 0.795609 -2.683901 1.55874 -2.12132 2.12132 
C -1.55874 2.683901 -0.795609 3 0 3 
z
" id="mf7a6b6df6d" style="stroke:#ff0000;"/>
    </defs>
    <g clip-path="url(#p38fe8f60cc)">
     <use style="fill:#ff0000;stroke:#ff0000;" x="73.832727" xlink:href="#mf7a6b6df6d" y="61.721809"/>
     <use style="fill:#ff0000;stroke:#ff0000;" x="75.017598" xlink:href="#mf7a6b6df6d" y="61.721809"/>
     <use style="fill:#ff0000;stroke:#ff0000;" x="76.202468" xlink:href="#mf7a6b6df6d" y="61.721809"/>
     <use style="fill:#ff0000;stroke:#ff0000;" x="77.387339" xlink:href="#mf7a6b6df6d" y="109.701056"/>
     <use style="fill:#ff0000;stroke:#ff0000;" x="78.57221" xlink:href="#mf7a6b6df6d" y="109.701056"/>
     <use style="fill:#ff0000;stroke:#ff0000;" x="79.75708" xlink:href="#mf7a6b6df6d" y="109.701056"/>
     <use style="fill:#ff0000;stroke:#ff0000;" x="80.941951" xlink:href="#mf7a6b6df6d" y="153.918214"/>
     <use style="fill:#ff0000;stroke:#ff0000;" x="82.126821" xlink:href="#mf7a6b6df6d" y="153.918214"/>
     <use style="fill:#ff0000;stroke:#ff0000;" x="83.311692" xlink:href="#mf7a6b6df6d" y="106.926299"/>
     <use style="fill:#ff0000;stroke:#ff0000;" x="84.496563" xlink:href="#mf7a6b6df6d" y="106.926299"/>
     <use style="fill:#ff0000;stroke:#ff0000;" x="85.681433" xlink:href="#mf7a6b6df6d" y="61.935947"/>
     <use style="fill:#ff0000;stroke:#ff0000;" x="86.866304" xlink:href="#mf7a6b6df6d" y="61.935947"/>
     <use style="fill:#ff0000;stroke:#ff0000;" x="88.051175" xlink:href="#mf7a6b6df6d" y="61.935947"/>
     <use style="fill:#ff0000;stroke:#ff0000;" x="89.236045" xlink:href="#mf7a6b6df6d" y="53.568"/>
     <use style="fill:#ff0000;stroke:#ff0000;" x="90.420916" xlink:href="#mf7a6b6df6d" y="53.568"/>
     <use style="fill:#ff0000;stroke:#ff0000;" x="91.605786" xlink:href="#mf7a6b6df6d" y="99.905761"/>
     <use style="fill:#ff0000;stroke:#ff0000;" x="92.790657" xlink:href="#mf7a6b6df6d" y="99.905761"/>
     <use style="fill:#ff0000;stroke:#ff0000;" x="93.975528" xlink:href="#mf7a6b6df6d" y="89.293022"/>
     <use style="fill:#ff0000;stroke:#ff0000;" x="95.160398" xlink:href="#mf7a6b6df6d" y="89.293022"/>
     <use style="fill:#ff0000;stroke:#ff0000;" x="96.345269" xlink:href="#mf7a6b6df6d" y="135.87435"/>
     <use style="fill:#ff0000;stroke:#ff0000;" x="97.530139" xlink:href="#mf7a6b6df6d" y="135.87435"/>
     <use style="fill:#ff0000;stroke:#ff0000;" x="98.71501" xlink:href="#mf7a6b6df6d" y="135.877581"/>
     <use style="fill:#ff0000;stroke:#ff0000;" x="99.899881" xlink:href="#mf7a6b6df6d" y="151.849673"/>
     <use style="fill:#ff0000;stroke:#ff0000;" x="101.084751" xlink:href="#mf7a6b6df6d" y="151.849673"/>
     <use style="fill:#ff0000;stroke:#ff0000;" x="102.269622" xlink:href="#mf7a6b6df6d" y="166.144403"/>
     <use style="fill:#ff0000;stroke:#ff0000;" x="103.454492" xlink:href="#mf7a6b6df6d" y="166.144403"/>
     <use style="fill:#ff0000;stroke:#ff0000;" x="104.639363" xlink:href="#mf7a6b6df6d" y="149.610428"/>
     <use style="fill:#ff0000;stroke:#ff0000;" x="105.824234" xlink:href="#mf7a6b6df6d" y="149.610428"/>
     <use style="fill:#ff0000;stroke:#ff0000;" x="107.009104" xlink:href="#mf7a6b6df6d" y="133.763633"/>
     <use style="fill:#ff0000;stroke:#ff0000;" x="108.193975" xlink:href="#mf7a6b6df6d" y="133.763633"/>
     <use style="fill:#ff0000;stroke:#ff0000;" x="109.378845" xlink:href="#mf7a6b6df6d" y="129.501736"/>
     <use style="fill:#ff0000;stroke:#ff0000;" x="110.563716" xlink:href="#mf7a6b6df6d" y="129.501736"/>
     <use style="fill:#ff0000;stroke:#ff0000;" x="111.748587" xlink:href="#mf7a6b6df6d" y="129.501736"/>
     <use style="fill:#ff0000;stroke:#ff0000;" x="112.933457" xlink:href="#mf7a6b6df6d" y="129.501736"/>
     <use style="fill:#ff0000;stroke:#ff0000;" x="114.118328" xlink:href="#mf7a6b6df6d" y="131.149458"/>
     <use style="fill:#ff0000;stroke:#ff0000;" x="115.303198" xlink:href="#mf7a6b6df6d" y="131.149458"/>
     <use style="fill:#ff0000;stroke:#ff0000;" x="116.488069" xlink:href="#mf7a6b6df6d" y="114.670965"/>
     <use style="fill:#ff0000;stroke:#ff0000;" x="117.67294" xlink:href="#mf7a6b6df6d" y="114.670965"/>
     <use style="fill:#ff0000;stroke:#ff0000;" x="118.85781" xlink:href="#mf7a6b6df6d" y="114.176387"/>
     <use style="fill:#ff0000;stroke:#ff0000;" x="120.042681" xlink:href="#mf7a6b6df6d" y="114.176387"/>
     <use style="fill:#ff0000;stroke:#ff0000;" x="121.227551" xlink:href="#mf7a6b6df6d" y="130.790558"/>
     <use style="fill:#ff0000;stroke:#ff0000;" x="122.412422" xlink:href="#mf7a6b6df6d" y="145.91263"/>
     <use style="fill:#ff0000;stroke:#ff0000;" x="123.597293" xlink:href="#mf7a6b6df6d" y="145.91263"/>
     <use style="fill:#ff0000;stroke:#ff0000;" x="124.782163" xlink:href="#mf7a6b6df6d" y="160.031457"/>
     <use style="fill:#ff0000;stroke:#ff0000;" x="125.967034" xlink:href="#mf7a6b6df6d" y="160.031457"/>
     <use style="fill:#ff0000;stroke:#ff0000;" x="127.151904" xlink:href="#mf7a6b6df6d" y="174.347905"/>
     <use style="fill:#ff0000;stroke:#ff0000;" x="128.336775" xlink:href="#mf7a6b6df6d" y="174.347905"/>
     <use style="fill:#ff0000;stroke:#ff0000;" x="129.521646" xlink:href="#mf7a6b6df6d" y="188.328001"/>
     <use style="fill:#ff0000;stroke:#ff0000;" x="130.706516" xlink:href="#mf7a6b6df6d" y="188.328001"/>
     <use style="fill:#ff0000;stroke:#ff0000;" x="131.891387" xlink:href="#mf7a6b6df6d" y="203.679626"/>
     <use style="fill:#ff0000;stroke:#ff0000;" x="133.076257" xlink:href="#mf7a6b6df6d" y="203.679626"/>
     <use style="fill:#ff0000;stroke:#ff0000;" x="134.261128" xlink:href="#mf7a6b6df6d" y="217.922362"/>
     <use style="fill:#ff0000;stroke:#ff0000;" x="135.445999" xlink:href="#mf7a6b6df6d" y="203.553498"/>
     <use style="fill:#ff0000;stroke:#ff0000;" x="136.630869" xlink:href="#mf7a6b6df6d" y="203.553498"/>
     <use style="fill:#ff0000;stroke:#ff0000;" x="137.81574" xlink:href="#mf7a6b6df6d" y="203.553498"/>
     <use style="fill:#ff0000;stroke:#ff0000;" x="139.00061" xlink:href="#mf7a6b6df6d" y="207.666535"/>
     <use style="fill:#ff0000;stroke:#ff0000;" x="140.185481" xlink:href="#mf7a6b6df6d" y="207.666535"/>
     <use style="fill:#ff0000;stroke:#ff0000;" x="141.370352" xlink:href="#mf7a6b6df6d" y="222.652239"/>
     <use style="fill:#ff0000;stroke:#ff0000;" x="142.555222" xlink:href="#mf7a6b6df6d" y="222.652239"/>
     <use style="fill:#ff0000;stroke:#ff0000;" x="143.740093" xlink:href="#mf7a6b6df6d" y="237.212514"/>
     <use style="fill:#ff0000;stroke:#ff0000;" x="144.924964" xlink:href="#mf7a6b6df6d" y="237.212514"/>
     <use style="fill:#ff0000;stroke:#ff0000;" x="146.109834" xlink:href="#mf7a6b6df6d" y="237.212514"/>
     <use style="fill:#ff0000;stroke:#ff0000;" x="147.294705" xlink:href="#mf7a6b6df6d" y="250.938609"/>
     <use style="fill:#ff0000;stroke:#ff0000;" x="148.479575" xlink:href="#mf7a6b6df6d" y="250.938609"/>
     <use style="fill:#ff0000;stroke:#ff0000;" x="149.664446" xlink:href="#mf7a6b6df6d" y="232.80504"/>
     <use style="fill:#ff0000;stroke:#ff0000;" x="150.849317" xlink:href="#mf7a6b6df6d" y="232.80504"/>
     <use style="fill:#ff0000;stroke:#ff0000;" x="152.034187" xlink:href="#mf7a6b6df6d" y="232.80504"/>
     <use style="fill:#ff0000;stroke:#ff0000;" x="153.219058" xlink:href="#mf7a6b6df6d" y="217.198031"/>
     <use style="fill:#ff0000;stroke:#ff0000;" x="154.403928" xlink:href="#mf7a6b6df6d" y="217.198031"/>
     <use style="fill:#ff0000;stroke:#ff0000;" x="155.588799" xlink:href="#mf7a6b6df6d" y="200.835181"/>
     <use style="fill:#ff0000;stroke:#ff0000;" x="156.77367" xlink:href="#mf7a6b6df6d" y="200.835181"/>
     <use style="fill:#ff0000;stroke:#ff0000;" x="157.95854" xlink:href="#mf7a6b6df6d" y="201.59859"/>
     <use style="fill:#ff0000;stroke:#ff0000;" x="159.143411" xlink:href="#mf7a6b6df6d" y="201.59859"/>
     <use style="fill:#ff0000;stroke:#ff0000;" x="160.328281" xlink:href="#mf7a6b6df6d" y="186.571546"/>
     <use style="fill:#ff0000;stroke:#ff0000;" x="161.513152" xlink:href="#mf7a6b6df6d" y="170.409714"/>
     <use style="fill:#ff0000;stroke:#ff0000;" x="162.698023" xlink:href="#mf7a6b6df6d" y="170.409714"/>
     <use style="fill:#ff0000;stroke:#ff0000;" x="163.882893" xlink:href="#mf7a6b6df6d" y="183.340533"/>
     <use style="fill:#ff0000;stroke:#ff0000;" x="165.067764" xlink:href="#mf7a6b6df6d" y="183.340533"/>
     <use style="fill:#ff0000;stroke:#ff0000;" x="166.252634" xlink:href="#mf7a6b6df6d" y="168.043942"/>
     <use style="fill:#ff0000;stroke:#ff0000;" x="167.437505" xlink:href="#mf7a6b6df6d" y="168.043942"/>
     <use style="fill:#ff0000;stroke:#ff0000;" x="168.622376" xlink:href="#mf7a6b6df6d" y="181.901045"/>
     <use style="fill:#ff0000;stroke:#ff0000;" x="169.807246" xlink:href="#mf7a6b6df6d" y="181.901045"/>
     <use style="fill:#ff0000;stroke:#ff0000;" x="170.992117" xlink:href="#mf7a6b6df6d" y="181.901045"/>
     <use style="fill:#ff0000;stroke:#ff0000;" x="172.176987" xlink:href="#mf7a6b6df6d" y="181.901045"/>
     <use style="fill:#ff0000;stroke:#ff0000;" x="173.361858" xlink:href="#mf7a6b6df6d" y="181.901045"/>
     <use style="fill:#ff0000;stroke:#ff0000;" x="174.546729" xlink:href="#mf7a6b6df6d" y="166.100679"/>
     <use style="fill:#ff0000;stroke:#ff0000;" x="175.731599" xlink:href="#mf7a6b6df6d" y="166.100679"/>
     <use style="fill:#ff0000;stroke:#ff0000;" x="176.91647" xlink:href="#mf7a6b6df6d" y="161.868132"/>
     <use style="fill:#ff0000;stroke:#ff0000;" x="178.10134" xlink:href="#mf7a6b6df6d" y="161.868132"/>
     <use style="fill:#ff0000;stroke:#ff0000;" x="179.286211" xlink:href="#mf7a6b6df6d" y="177.117957"/>
     <use style="fill:#ff0000;stroke:#ff0000;" x="180.471082" xlink:href="#mf7a6b6df6d" y="177.117957"/>
     <use style="fill:#ff0000;stroke:#ff0000;" x="181.655952" xlink:href="#mf7a6b6df6d" y="174.654915"/>
     <use style="fill:#ff0000;stroke:#ff0000;" x="182.840823" xlink:href="#mf7a6b6df6d" y="188.842554"/>
     <use style="fill:#ff0000;stroke:#ff0000;" x="184.025693" xlink:href="#mf7a6b6df6d" y="188.842554"/>
     <use style="fill:#ff0000;stroke:#ff0000;" x="185.210564" xlink:href="#mf7a6b6df6d" y="202.313924"/>
     <use style="fill:#ff0000;stroke:#ff0000;" x="186.395435" xlink:href="#mf7a6b6df6d" y="202.313924"/>
     <use style="fill:#ff0000;stroke:#ff0000;" x="187.580305" xlink:href="#mf7a6b6df6d" y="202.313924"/>
     <use style="fill:#ff0000;stroke:#ff0000;" x="188.765176" xlink:href="#mf7a6b6df6d" y="202.313924"/>
     <use style="fill:#ff0000;stroke:#ff0000;" x="189.950046" xlink:href="#mf7a6b6df6d" y="202.313924"/>
     <use style="fill:#ff0000;stroke:#ff0000;" x="191.134917" xlink:href="#mf7a6b6df6d" y="205.500532"/>
     <use style="fill:#ff0000;stroke:#ff0000;" x="192.319788" xlink:href="#mf7a6b6df6d" y="205.500532"/>
     <use style="fill:#ff0000;stroke:#ff0000;" x="193.504658" xlink:href="#mf7a6b6df6d" y="205.500532"/>
     <use style="fill:#ff0000;stroke:#ff0000;" x="194.689529" xlink:href="#mf7a6b6df6d" y="190.942187"/>
     <use style="fill:#ff0000;stroke:#ff0000;" x="195.874399" xlink:href="#mf7a6b6df6d" y="190.942187"/>
     <use style="fill:#ff0000;stroke:#ff0000;" x="197.05927" xlink:href="#mf7a6b6df6d" y="190.942187"/>
     <use style="fill:#ff0000;stroke:#ff0000;" x="198.244141" xlink:href="#mf7a6b6df6d" y="190.738934"/>
     <use style="fill:#ff0000;stroke:#ff0000;" x="199.429011" xlink:href="#mf7a6b6df6d" y="190.738934"/>
     <use style="fill:#ff0000;stroke:#ff0000;" x="200.613882" xlink:href="#mf7a6b6df6d" y="174.731493"/>
     <use style="fill:#ff0000;stroke:#ff0000;" x="201.798752" xlink:href="#mf7a6b6df6d" y="174.731493"/>
     <use style="fill:#ff0000;stroke:#ff0000;" x="202.983623" xlink:href="#mf7a6b6df6d" y="161.119601"/>
     <use style="fill:#ff0000;stroke:#ff0000;" x="204.168494" xlink:href="#mf7a6b6df6d" y="161.119601"/>
     <use style="fill:#ff0000;stroke:#ff0000;" x="205.353364" xlink:href="#mf7a6b6df6d" y="161.119601"/>
     <use style="fill:#ff0000;stroke:#ff0000;" x="206.538235" xlink:href="#mf7a6b6df6d" y="175.986949"/>
     <use style="fill:#ff0000;stroke:#ff0000;" x="207.723106" xlink:href="#mf7a6b6df6d" y="175.986949"/>
     <use style="fill:#ff0000;stroke:#ff0000;" x="208.907976" xlink:href="#mf7a6b6df6d" y="175.986949"/>
     <use style="fill:#ff0000;stroke:#ff0000;" x="210.092847" xlink:href="#mf7a6b6df6d" y="175.986949"/>
     <use style="fill:#ff0000;stroke:#ff0000;" x="211.277717" xlink:href="#mf7a6b6df6d" y="175.986949"/>
     <use style="fill:#ff0000;stroke:#ff0000;" x="212.462588" xlink:href="#mf7a6b6df6d" y="175.986949"/>
     <use style="fill:#ff0000;stroke:#ff0000;" x="213.647459" xlink:href="#mf7a6b6df6d" y="175.986949"/>
     <use style="fill:#ff0000;stroke:#ff0000;" x="214.832329" xlink:href="#mf7a6b6df6d" y="175.986949"/>
     <use style="fill:#ff0000;stroke:#ff0000;" x="216.0172" xlink:href="#mf7a6b6df6d" y="175.986949"/>
     <use style="fill:#ff0000;stroke:#ff0000;" x="217.20207" xlink:href="#mf7a6b6df6d" y="175.986949"/>
     <use style="fill:#ff0000;stroke:#ff0000;" x="218.386941" xlink:href="#mf7a6b6df6d" y="159.768663"/>
     <use style="fill:#ff0000;stroke:#ff0000;" x="219.571812" xlink:href="#mf7a6b6df6d" y="159.768663"/>
     <use style="fill:#ff0000;stroke:#ff0000;" x="220.756682" xlink:href="#mf7a6b6df6d" y="175.614066"/>
     <use style="fill:#ff0000;stroke:#ff0000;" x="221.941553" xlink:href="#mf7a6b6df6d" y="190.212266"/>
     <use style="fill:#ff0000;stroke:#ff0000;" x="223.126423" xlink:href="#mf7a6b6df6d" y="190.212266"/>
     <use style="fill:#ff0000;stroke:#ff0000;" x="224.311294" xlink:href="#mf7a6b6df6d" y="193.350739"/>
     <use style="fill:#ff0000;stroke:#ff0000;" x="225.496165" xlink:href="#mf7a6b6df6d" y="193.350739"/>
     <use style="fill:#ff0000;stroke:#ff0000;" x="226.681035" xlink:href="#mf7a6b6df6d" y="191.489494"/>
     <use style="fill:#ff0000;stroke:#ff0000;" x="227.865906" xlink:href="#mf7a6b6df6d" y="191.489494"/>
     <use style="fill:#ff0000;stroke:#ff0000;" x="229.050776" xlink:href="#mf7a6b6df6d" y="204.876822"/>
     <use style="fill:#ff0000;stroke:#ff0000;" x="230.235647" xlink:href="#mf7a6b6df6d" y="204.876822"/>
     <use style="fill:#ff0000;stroke:#ff0000;" x="231.420518" xlink:href="#mf7a6b6df6d" y="220.870583"/>
     <use style="fill:#ff0000;stroke:#ff0000;" x="232.605388" xlink:href="#mf7a6b6df6d" y="221.841321"/>
     <use style="fill:#ff0000;stroke:#ff0000;" x="233.790259" xlink:href="#mf7a6b6df6d" y="221.841321"/>
     <use style="fill:#ff0000;stroke:#ff0000;" x="234.975129" xlink:href="#mf7a6b6df6d" y="235.035807"/>
     <use style="fill:#ff0000;stroke:#ff0000;" x="236.16" xlink:href="#mf7a6b6df6d" y="235.035807"/>
     <use style="fill:#ff0000;stroke:#ff0000;" x="237.344871" xlink:href="#mf7a6b6df6d" y="235.035807"/>
     <use style="fill:#ff0000;stroke:#ff0000;" x="238.529741" xlink:href="#mf7a6b6df6d" y="235.035807"/>
     <use style="fill:#ff0000;stroke:#ff0000;" x="239.714612" xlink:href="#mf7a6b6df6d" y="235.035807"/>
     <use style="fill:#ff0000;stroke:#ff0000;" x="240.899482" xlink:href="#mf7a6b6df6d" y="237.868279"/>
     <use style="fill:#ff0000;stroke:#ff0000;" x="242.084353" xlink:href="#mf7a6b6df6d" y="237.868279"/>
     <use style="fill:#ff0000;stroke:#ff0000;" x="243.269224" xlink:href="#mf7a6b6df6d" y="251.335106"/>
     <use style="fill:#ff0000;stroke:#ff0000;" x="244.454094" xlink:href="#mf7a6b6df6d" y="251.335106"/>
     <use style="fill:#ff0000;stroke:#ff0000;" x="245.638965" xlink:href="#mf7a6b6df6d" y="236.268687"/>
     <use style="fill:#ff0000;stroke:#ff0000;" x="246.823835" xlink:href="#mf7a6b6df6d" y="236.268687"/>
     <use style="fill:#ff0000;stroke:#ff0000;" x="248.008706" xlink:href="#mf7a6b6df6d" y="234.909321"/>
     <use style="fill:#ff0000;stroke:#ff0000;" x="249.193577" xlink:href="#mf7a6b6df6d" y="249.869738"/>
     <use style="fill:#ff0000;stroke:#ff0000;" x="250.378447" xlink:href="#mf7a6b6df6d" y="249.869738"/>
     <use style="fill:#ff0000;stroke:#ff0000;" x="251.563318" xlink:href="#mf7a6b6df6d" y="249.869738"/>
     <use style="fill:#ff0000;stroke:#ff0000;" x="252.748188" xlink:href="#mf7a6b6df6d" y="264.19282"/>
     <use style="fill:#ff0000;stroke:#ff0000;" x="253.933059" xlink:href="#mf7a6b6df6d" y="264.19282"/>
     <use style="fill:#ff0000;stroke:#ff0000;" x="255.11793" xlink:href="#mf7a6b6df6d" y="264.19282"/>
     <use style="fill:#ff0000;stroke:#ff0000;" x="256.3028" xlink:href="#mf7a6b6df6d" y="258.449257"/>
     <use style="fill:#ff0000;stroke:#ff0000;" x="257.487671" xlink:href="#mf7a6b6df6d" y="273.429193"/>
     <use style="fill:#ff0000;stroke:#ff0000;" x="258.672541" xlink:href="#mf7a6b6df6d" y="273.429193"/>
     <use style="fill:#ff0000;stroke:#ff0000;" x="259.857412" xlink:href="#mf7a6b6df6d" y="287.361139"/>
     <use style="fill:#ff0000;stroke:#ff0000;" x="261.042283" xlink:href="#mf7a6b6df6d" y="287.361139"/>
     <use style="fill:#ff0000;stroke:#ff0000;" x="262.227153" xlink:href="#mf7a6b6df6d" y="287.361139"/>
     <use style="fill:#ff0000;stroke:#ff0000;" x="263.412024" xlink:href="#mf7a6b6df6d" y="287.361139"/>
     <use style="fill:#ff0000;stroke:#ff0000;" x="264.596894" xlink:href="#mf7a6b6df6d" y="272.030175"/>
     <use style="fill:#ff0000;stroke:#ff0000;" x="265.781765" xlink:href="#mf7a6b6df6d" y="272.030175"/>
     <use style="fill:#ff0000;stroke:#ff0000;" x="266.966636" xlink:href="#mf7a6b6df6d" y="272.138587"/>
     <use style="fill:#ff0000;stroke:#ff0000;" x="268.151506" xlink:href="#mf7a6b6df6d" y="272.138587"/>
     <use style="fill:#ff0000;stroke:#ff0000;" x="269.336377" xlink:href="#mf7a6b6df6d" y="270.754214"/>
     <use style="fill:#ff0000;stroke:#ff0000;" x="270.521248" xlink:href="#mf7a6b6df6d" y="266.883295"/>
     <use style="fill:#ff0000;stroke:#ff0000;" x="271.706118" xlink:href="#mf7a6b6df6d" y="266.883295"/>
     <use style="fill:#ff0000;stroke:#ff0000;" x="272.890989" xlink:href="#mf7a6b6df6d" y="252.423994"/>
     <use style="fill:#ff0000;stroke:#ff0000;" x="274.075859" xlink:href="#mf7a6b6df6d" y="252.423994"/>
     <use style="fill:#ff0000;stroke:#ff0000;" x="275.26073" xlink:href="#mf7a6b6df6d" y="252.423994"/>
     <use style="fill:#ff0000;stroke:#ff0000;" x="276.445601" xlink:href="#mf7a6b6df6d" y="265.055005"/>
     <use style="fill:#ff0000;stroke:#ff0000;" x="277.630471" xlink:href="#mf7a6b6df6d" y="279.126487"/>
     <use style="fill:#ff0000;stroke:#ff0000;" x="278.815342" xlink:href="#mf7a6b6df6d" y="279.126487"/>
     <use style="fill:#ff0000;stroke:#ff0000;" x="280.000212" xlink:href="#mf7a6b6df6d" y="294.487246"/>
     <use style="fill:#ff0000;stroke:#ff0000;" x="281.185083" xlink:href="#mf7a6b6df6d" y="294.487246"/>
     <use style="fill:#ff0000;stroke:#ff0000;" x="282.369954" xlink:href="#mf7a6b6df6d" y="295.488"/>
     <use style="fill:#ff0000;stroke:#ff0000;" x="283.554824" xlink:href="#mf7a6b6df6d" y="295.488"/>
     <use style="fill:#ff0000;stroke:#ff0000;" x="284.739695" xlink:href="#mf7a6b6df6d" y="293.830893"/>
     <use style="fill:#ff0000;stroke:#ff0000;" x="285.924565" xlink:href="#mf7a6b6df6d" y="293.830893"/>
     <use style="fill:#ff0000;stroke:#ff0000;" x="287.109436" xlink:href="#mf7a6b6df6d" y="293.830893"/>
     <use style="fill:#ff0000;stroke:#ff0000;" x="288.294307" xlink:href="#mf7a6b6df6d" y="276.191903"/>
     <use style="fill:#ff0000;stroke:#ff0000;" x="289.479177" xlink:href="#mf7a6b6df6d" y="276.191903"/>
     <use style="fill:#ff0000;stroke:#ff0000;" x="290.664048" xlink:href="#mf7a6b6df6d" y="289.256672"/>
     <use style="fill:#ff0000;stroke:#ff0000;" x="291.848918" xlink:href="#mf7a6b6df6d" y="289.256672"/>
     <use style="fill:#ff0000;stroke:#ff0000;" x="293.033789" xlink:href="#mf7a6b6df6d" y="287.226635"/>
     <use style="fill:#ff0000;stroke:#ff0000;" x="294.21866" xlink:href="#mf7a6b6df6d" y="287.226635"/>
     <use style="fill:#ff0000;stroke:#ff0000;" x="295.40353" xlink:href="#mf7a6b6df6d" y="287.226635"/>
     <use style="fill:#ff0000;stroke:#ff0000;" x="296.588401" xlink:href="#mf7a6b6df6d" y="287.226635"/>
     <use style="fill:#ff0000;stroke:#ff0000;" x="297.773271" xlink:href="#mf7a6b6df6d" y="287.226635"/>
     <use style="fill:#ff0000;stroke:#ff0000;" x="298.958142" xlink:href="#mf7a6b6df6d" y="287.226635"/>
     <use style="fill:#ff0000;stroke:#ff0000;" x="300.143013" xlink:href="#mf7a6b6df6d" y="287.226635"/>
     <use style="fill:#ff0000;stroke:#ff0000;" x="301.327883" xlink:href="#mf7a6b6df6d" y="287.226635"/>
     <use style="fill:#ff0000;stroke:#ff0000;" x="302.512754" xlink:href="#mf7a6b6df6d" y="287.226635"/>
     <use style="fill:#ff0000;stroke:#ff0000;" x="303.697624" xlink:href="#mf7a6b6df6d" y="287.226635"/>
     <use style="fill:#ff0000;stroke:#ff0000;" x="304.882495" xlink:href="#mf7a6b6df6d" y="287.226635"/>
     <use style="fill:#ff0000;stroke:#ff0000;" x="306.067366" xlink:href="#mf7a6b6df6d" y="287.226635"/>
     <use style="fill:#ff0000;stroke:#ff0000;" x="307.252236" xlink:href="#mf7a6b6df6d" y="287.226635"/>
     <use style="fill:#ff0000;stroke:#ff0000;" x="308.437107" xlink:href="#mf7a6b6df6d" y="287.226635"/>
     <use style="fill:#ff0000;stroke:#ff0000;" x="309.621977" xlink:href="#mf7a6b6df6d" y="287.226635"/>
     <use style="fill:#ff0000;stroke:#ff0000;" x="310.806848" xlink:href="#mf7a6b6df6d" y="287.226635"/>
     <use style="fill:#ff0000;stroke:#ff0000;" x="311.991719" xlink:href="#mf7a6b6df6d" y="287.226635"/>
     <use style="fill:#ff0000;stroke:#ff0000;" x="313.176589" xlink:href="#mf7a6b6df6d" y="287.226635"/>
     <use style="fill:#ff0000;stroke:#ff0000;" x="314.36146" xlink:href="#mf7a6b6df6d" y="287.226635"/>
     <use style="fill:#ff0000;stroke:#ff0000;" x="315.54633" xlink:href="#mf7a6b6df6d" y="287.226635"/>
     <use style="fill:#ff0000;stroke:#ff0000;" x="316.731201" xlink:href="#mf7a6b6df6d" y="287.226635"/>
     <use style="fill:#ff0000;stroke:#ff0000;" x="317.916072" xlink:href="#mf7a6b6df6d" y="287.226635"/>
     <use style="fill:#ff0000;stroke:#ff0000;" x="319.100942" xlink:href="#mf7a6b6df6d" y="287.226635"/>
     <use style="fill:#ff0000;stroke:#ff0000;" x="320.285813" xlink:href="#mf7a6b6df6d" y="287.226635"/>
     <use style="fill:#ff0000;stroke:#ff0000;" x="321.470683" xlink:href="#mf7a6b6df6d" y="287.226635"/>
     <use style="fill:#ff0000;stroke:#ff0000;" x="322.655554" xlink:href="#mf7a6b6df6d" y="287.226635"/>
     <use style="fill:#ff0000;stroke:#ff0000;" x="323.840425" xlink:href="#mf7a6b6df6d" y="287.226635"/>
     <use style="fill:#ff0000;stroke:#ff0000;" x="325.025295" xlink:href="#mf7a6b6df6d" y="287.226635"/>
     <use style="fill:#ff0000;stroke:#ff0000;" x="326.210166" xlink:href="#mf7a6b6df6d" y="287.226635"/>
     <use style="fill:#ff0000;stroke:#ff0000;" x="327.395036" xlink:href="#mf7a6b6df6d" y="287.226635"/>
     <use style="fill:#ff0000;stroke:#ff0000;" x="328.579907" xlink:href="#mf7a6b6df6d" y="287.226635"/>
     <use style="fill:#ff0000;stroke:#ff0000;" x="329.764778" xlink:href="#mf7a6b6df6d" y="287.226635"/>
     <use style="fill:#ff0000;stroke:#ff0000;" x="330.949648" xlink:href="#mf7a6b6df6d" y="287.226635"/>
     <use style="fill:#ff0000;stroke:#ff0000;" x="332.134519" xlink:href="#mf7a6b6df6d" y="287.226635"/>
     <use style="fill:#ff0000;stroke:#ff0000;" x="333.31939" xlink:href="#mf7a6b6df6d" y="287.226635"/>
     <use style="fill:#ff0000;stroke:#ff0000;" x="334.50426" xlink:href="#mf7a6b6df6d" y="287.226635"/>
     <use style="fill:#ff0000;stroke:#ff0000;" x="335.689131" xlink:href="#mf7a6b6df6d" y="287.226635"/>
     <use style="fill:#ff0000;stroke:#ff0000;" x="336.874001" xlink:href="#mf7a6b6df6d" y="287.226635"/>
     <use style="fill:#ff0000;stroke:#ff0000;" x="338.058872" xlink:href="#mf7a6b6df6d" y="287.226635"/>
     <use style="fill:#ff0000;stroke:#ff0000;" x="339.243743" xlink:href="#mf7a6b6df6d" y="287.226635"/>
     <use style="fill:#ff0000;stroke:#ff0000;" x="340.428613" xlink:href="#mf7a6b6df6d" y="287.226635"/>
     <use style="fill:#ff0000;stroke:#ff0000;" x="341.613484" xlink:href="#mf7a6b6df6d" y="287.226635"/>
     <use style="fill:#ff0000;stroke:#ff0000;" x="342.798354" xlink:href="#mf7a6b6df6d" y="287.226635"/>
     <use style="fill:#ff0000;stroke:#ff0000;" x="343.983225" xlink:href="#mf7a6b6df6d" y="287.226635"/>
     <use style="fill:#ff0000;stroke:#ff0000;" x="345.168096" xlink:href="#mf7a6b6df6d" y="287.226635"/>
     <use style="fill:#ff0000;stroke:#ff0000;" x="346.352966" xlink:href="#mf7a6b6df6d" y="287.226635"/>
     <use style="fill:#ff0000;stroke:#ff0000;" x="347.537837" xlink:href="#mf7a6b6df6d" y="287.226635"/>
     <use style="fill:#ff0000;stroke:#ff0000;" x="348.722707" xlink:href="#mf7a6b6df6d" y="287.226635"/>
     <use style="fill:#ff0000;stroke:#ff0000;" x="349.907578" xlink:href="#mf7a6b6df6d" y="287.226635"/>
     <use style="fill:#ff0000;stroke:#ff0000;" x="351.092449" xlink:href="#mf7a6b6df6d" y="287.226635"/>
     <use style="fill:#ff0000;stroke:#ff0000;" x="352.277319" xlink:href="#mf7a6b6df6d" y="287.226635"/>
     <use style="fill:#ff0000;stroke:#ff0000;" x="353.46219" xlink:href="#mf7a6b6df6d" y="287.226635"/>
     <use style="fill:#ff0000;stroke:#ff0000;" x="354.64706" xlink:href="#mf7a6b6df6d" y="287.226635"/>
     <use style="fill:#ff0000;stroke:#ff0000;" x="355.831931" xlink:href="#mf7a6b6df6d" y="287.226635"/>
     <use style="fill:#ff0000;stroke:#ff0000;" x="357.016802" xlink:href="#mf7a6b6df6d" y="287.226635"/>
     <use style="fill:#ff0000;stroke:#ff0000;" x="358.201672" xlink:href="#mf7a6b6df6d" y="287.226635"/>
     <use style="fill:#ff0000;stroke:#ff0000;" x="359.386543" xlink:href="#mf7a6b6df6d" y="287.226635"/>
     <use style="fill:#ff0000;stroke:#ff0000;" x="360.571413" xlink:href="#mf7a6b6df6d" y="287.226635"/>
     <use style="fill:#ff0000;stroke:#ff0000;" x="361.756284" xlink:href="#mf7a6b6df6d" y="287.226635"/>
     <use style="fill:#ff0000;stroke:#ff0000;" x="362.941155" xlink:href="#mf7a6b6df6d" y="287.226635"/>
     <use style="fill:#ff0000;stroke:#ff0000;" x="364.126025" xlink:href="#mf7a6b6df6d" y="287.226635"/>
     <use style="fill:#ff0000;stroke:#ff0000;" x="365.310896" xlink:href="#mf7a6b6df6d" y="287.226635"/>
     <use style="fill:#ff0000;stroke:#ff0000;" x="366.495766" xlink:href="#mf7a6b6df6d" y="287.226635"/>
     <use style="fill:#ff0000;stroke:#ff0000;" x="367.680637" xlink:href="#mf7a6b6df6d" y="287.226635"/>
     <use style="fill:#ff0000;stroke:#ff0000;" x="368.865508" xlink:href="#mf7a6b6df6d" y="287.226635"/>
     <use style="fill:#ff0000;stroke:#ff0000;" x="370.050378" xlink:href="#mf7a6b6df6d" y="287.226635"/>
     <use style="fill:#ff0000;stroke:#ff0000;" x="371.235249" xlink:href="#mf7a6b6df6d" y="287.226635"/>
     <use style="fill:#ff0000;stroke:#ff0000;" x="372.420119" xlink:href="#mf7a6b6df6d" y="287.226635"/>
     <use style="fill:#ff0000;stroke:#ff0000;" x="373.60499" xlink:href="#mf7a6b6df6d" y="287.226635"/>
     <use style="fill:#ff0000;stroke:#ff0000;" x="374.789861" xlink:href="#mf7a6b6df6d" y="287.226635"/>
     <use style="fill:#ff0000;stroke:#ff0000;" x="375.974731" xlink:href="#mf7a6b6df6d" y="287.226635"/>
     <use style="fill:#ff0000;stroke:#ff0000;" x="377.159602" xlink:href="#mf7a6b6df6d" y="287.226635"/>
     <use style="fill:#ff0000;stroke:#ff0000;" x="378.344472" xlink:href="#mf7a6b6df6d" y="287.226635"/>
     <use style="fill:#ff0000;stroke:#ff0000;" x="379.529343" xlink:href="#mf7a6b6df6d" y="287.226635"/>
     <use style="fill:#ff0000;stroke:#ff0000;" x="380.714214" xlink:href="#mf7a6b6df6d" y="287.226635"/>
     <use style="fill:#ff0000;stroke:#ff0000;" x="381.899084" xlink:href="#mf7a6b6df6d" y="287.226635"/>
     <use style="fill:#ff0000;stroke:#ff0000;" x="383.083955" xlink:href="#mf7a6b6df6d" y="287.226635"/>
     <use style="fill:#ff0000;stroke:#ff0000;" x="384.268825" xlink:href="#mf7a6b6df6d" y="287.226635"/>
     <use style="fill:#ff0000;stroke:#ff0000;" x="385.453696" xlink:href="#mf7a6b6df6d" y="287.226635"/>
     <use style="fill:#ff0000;stroke:#ff0000;" x="386.638567" xlink:href="#mf7a6b6df6d" y="287.226635"/>
     <use style="fill:#ff0000;stroke:#ff0000;" x="387.823437" xlink:href="#mf7a6b6df6d" y="287.226635"/>
     <use style="fill:#ff0000;stroke:#ff0000;" x="389.008308" xlink:href="#mf7a6b6df6d" y="287.226635"/>
     <use style="fill:#ff0000;stroke:#ff0000;" x="390.193179" xlink:href="#mf7a6b6df6d" y="287.226635"/>
     <use style="fill:#ff0000;stroke:#ff0000;" x="391.378049" xlink:href="#mf7a6b6df6d" y="287.226635"/>
     <use style="fill:#ff0000;stroke:#ff0000;" x="392.56292" xlink:href="#mf7a6b6df6d" y="287.226635"/>
     <use style="fill:#ff0000;stroke:#ff0000;" x="393.74779" xlink:href="#mf7a6b6df6d" y="287.226635"/>
     <use style="fill:#ff0000;stroke:#ff0000;" x="394.932661" xlink:href="#mf7a6b6df6d" y="287.226635"/>
     <use style="fill:#ff0000;stroke:#ff0000;" x="396.117532" xlink:href="#mf7a6b6df6d" y="287.226635"/>
     <use style="fill:#ff0000;stroke:#ff0000;" x="397.302402" xlink:href="#mf7a6b6df6d" y="287.226635"/>
     <use style="fill:#ff0000;stroke:#ff0000;" x="398.487273" xlink:href="#mf7a6b6df6d" y="287.226635"/>
    </g>
   </g>
   <g id="patch_3">
    <path d="M 57.6 307.584 
L 57.6 41.472 
" style="fill:none;stroke:#000000;stroke-linecap:square;stroke-linejoin:miter;stroke-width:0.8;"/>
   </g>
   <g id="patch_4">
    <path d="M 414.72 307.584 
L 414.72 41.472 
" style="fill:none;stroke:#000000;stroke-linecap:square;stroke-linejoin:miter;stroke-width:0.8;"/>
   </g>
   <g id="patch_5">
    <path d="M 57.6 307.584 
L 414.72 307.584 
" style="fill:none;stroke:#000000;stroke-linecap:square;stroke-linejoin:miter;stroke-width:0.8;"/>
   </g>
   <g id="patch_6">
    <path d="M 57.6 41.472 
L 414.72 41.472 
" style="fill:none;stroke:#000000;stroke-linecap:square;stroke-linejoin:miter;stroke-width:0.8;"/>
   </g>
  </g>
 </g>
 <defs>
  <clipPath id="p38fe8f60cc">
   <rect height="266.112" width="357.12" x="57.6" y="41.472"/>
  </clipPath>
 </defs>
</svg>
