<?xml version="1.0" encoding="utf-8" standalone="no"?>
<!DOCTYPE svg PUBLIC "-//W3C//DTD SVG 1.1//EN"
  "http://www.w3.org/Graphics/SVG/1.1/DTD/svg11.dtd">
<!-- Created with matplotlib (https://matplotlib.org/) -->
<svg height="345.6pt" version="1.1" viewBox="0 0 460.8 345.6" width="460.8pt" xmlns="http://www.w3.org/2000/svg" xmlns:xlink="http://www.w3.org/1999/xlink">
 <defs>
  <style type="text/css">
*{stroke-linecap:butt;stroke-linejoin:round;}
  </style>
 </defs>
 <g id="figure_1">
  <g id="patch_1">
   <path d="M 0 345.6 
L 460.8 345.6 
L 460.8 0 
L 0 0 
z
" style="fill:#ffffff;"/>
  </g>
  <g id="axes_1">
   <g id="patch_2">
    <path d="M 57.6 307.584 
L 414.72 307.584 
L 414.72 41.472 
L 57.6 41.472 
z
" style="fill:#ffffff;"/>
   </g>
   <g id="line2d_1">
    <path clip-path="url(#p70812fcae7)" d="M 73.832727 71.090051 
L 81.751131 71.090051 
L 89.669534 71.090051 
L 97.587938 174.194601 
L 105.506341 174.194601 
L 113.424745 174.194601 
L 121.343149 269.214647 
L 129.261552 269.214647 
L 137.179956 168.231814 
L 145.098359 168.231814 
L 153.016763 71.550221 
L 160.935166 71.550221 
L 168.85357 71.550221 
L 176.771973 53.568 
L 184.690377 53.568 
L 192.60878 153.145094 
L 200.527184 153.145094 
L 208.445588 130.338949 
L 216.363991 130.338949 
L 224.282395 230.439455 
L 232.200798 230.439455 
L 240.119202 230.446397 
L 248.037605 264.769475 
L 255.956009 264.769475 
L 263.874412 295.488 
L 271.792816 295.488 
L 279.71122 259.957469 
L 287.629623 259.957469 
L 295.548027 225.903649 
L 303.46643 225.903649 
L 311.384834 216.745086 
L 319.303237 216.745086 
L 327.221641 216.745086 
L 335.140044 216.745086 
L 343.058448 220.285942 
L 350.976851 220.285942 
L 358.895255 184.87464 
L 366.813659 184.87464 
L 374.732062 183.811821 
L 382.650466 183.811821 
L 390.568869 219.514689 
L 398.487273 219.514689 
" style="fill:none;stroke:#ff0000;stroke-linecap:square;stroke-width:12;"/>
    <defs>
     <path d="M 0 3 
C 0.795609 3 1.55874 2.683901 2.12132 2.12132 
C 2.683901 1.55874 3 0.795609 3 0 
C 3 -0.795609 2.683901 -1.55874 2.12132 -2.12132 
C 1.55874 -2.683901 0.795609 -3 0 -3 
C -0.795609 -3 -1.55874 -2.683901 -2.12132 -2.12132 
C -2.683901 -1.55874 -3 -0.795609 -3 0 
C -3 0.795609 -2.683901 1.55874 -2.12132 2.12132 
C -1.55874 2.683901 -0.795609 3 0 3 
z
" id="me523e8395c" style="stroke:#ff0000;"/>
    </defs>
    <g clip-path="url(#p70812fcae7)">
     <use style="fill:#ff0000;stroke:#ff0000;" x="73.832727" xlink:href="#me523e8395c" y="71.090051"/>
     <use style="fill:#ff0000;stroke:#ff0000;" x="81.751131" xlink:href="#me523e8395c" y="71.090051"/>
     <use style="fill:#ff0000;stroke:#ff0000;" x="89.669534" xlink:href="#me523e8395c" y="71.090051"/>
     <use style="fill:#ff0000;stroke:#ff0000;" x="97.587938" xlink:href="#me523e8395c" y="174.194601"/>
     <use style="fill:#ff0000;stroke:#ff0000;" x="105.506341" xlink:href="#me523e8395c" y="174.194601"/>
     <use style="fill:#ff0000;stroke:#ff0000;" x="113.424745" xlink:href="#me523e8395c" y="174.194601"/>
     <use style="fill:#ff0000;stroke:#ff0000;" x="121.343149" xlink:href="#me523e8395c" y="269.214647"/>
     <use style="fill:#ff0000;stroke:#ff0000;" x="129.261552" xlink:href="#me523e8395c" y="269.214647"/>
     <use style="fill:#ff0000;stroke:#ff0000;" x="137.179956" xlink:href="#me523e8395c" y="168.231814"/>
     <use style="fill:#ff0000;stroke:#ff0000;" x="145.098359" xlink:href="#me523e8395c" y="168.231814"/>
     <use style="fill:#ff0000;stroke:#ff0000;" x="153.016763" xlink:href="#me523e8395c" y="71.550221"/>
     <use style="fill:#ff0000;stroke:#ff0000;" x="160.935166" xlink:href="#me523e8395c" y="71.550221"/>
     <use style="fill:#ff0000;stroke:#ff0000;" x="168.85357" xlink:href="#me523e8395c" y="71.550221"/>
     <use style="fill:#ff0000;stroke:#ff0000;" x="176.771973" xlink:href="#me523e8395c" y="53.568"/>
     <use style="fill:#ff0000;stroke:#ff0000;" x="184.690377" xlink:href="#me523e8395c" y="53.568"/>
     <use style="fill:#ff0000;stroke:#ff0000;" x="192.60878" xlink:href="#me523e8395c" y="153.145094"/>
     <use style="fill:#ff0000;stroke:#ff0000;" x="200.527184" xlink:href="#me523e8395c" y="153.145094"/>
     <use style="fill:#ff0000;stroke:#ff0000;" x="208.445588" xlink:href="#me523e8395c" y="130.338949"/>
     <use style="fill:#ff0000;stroke:#ff0000;" x="216.363991" xlink:href="#me523e8395c" y="130.338949"/>
     <use style="fill:#ff0000;stroke:#ff0000;" x="224.282395" xlink:href="#me523e8395c" y="230.439455"/>
     <use style="fill:#ff0000;stroke:#ff0000;" x="232.200798" xlink:href="#me523e8395c" y="230.439455"/>
     <use style="fill:#ff0000;stroke:#ff0000;" x="240.119202" xlink:href="#me523e8395c" y="230.446397"/>
     <use style="fill:#ff0000;stroke:#ff0000;" x="248.037605" xlink:href="#me523e8395c" y="264.769475"/>
     <use style="fill:#ff0000;stroke:#ff0000;" x="255.956009" xlink:href="#me523e8395c" y="264.769475"/>
     <use style="fill:#ff0000;stroke:#ff0000;" x="263.874412" xlink:href="#me523e8395c" y="295.488"/>
     <use style="fill:#ff0000;stroke:#ff0000;" x="271.792816" xlink:href="#me523e8395c" y="295.488"/>
     <use style="fill:#ff0000;stroke:#ff0000;" x="279.71122" xlink:href="#me523e8395c" y="259.957469"/>
     <use style="fill:#ff0000;stroke:#ff0000;" x="287.629623" xlink:href="#me523e8395c" y="259.957469"/>
     <use style="fill:#ff0000;stroke:#ff0000;" x="295.548027" xlink:href="#me523e8395c" y="225.903649"/>
     <use style="fill:#ff0000;stroke:#ff0000;" x="303.46643" xlink:href="#me523e8395c" y="225.903649"/>
     <use style="fill:#ff0000;stroke:#ff0000;" x="311.384834" xlink:href="#me523e8395c" y="216.745086"/>
     <use style="fill:#ff0000;stroke:#ff0000;" x="319.303237" xlink:href="#me523e8395c" y="216.745086"/>
     <use style="fill:#ff0000;stroke:#ff0000;" x="327.221641" xlink:href="#me523e8395c" y="216.745086"/>
     <use style="fill:#ff0000;stroke:#ff0000;" x="335.140044" xlink:href="#me523e8395c" y="216.745086"/>
     <use style="fill:#ff0000;stroke:#ff0000;" x="343.058448" xlink:href="#me523e8395c" y="220.285942"/>
     <use style="fill:#ff0000;stroke:#ff0000;" x="350.976851" xlink:href="#me523e8395c" y="220.285942"/>
     <use style="fill:#ff0000;stroke:#ff0000;" x="358.895255" xlink:href="#me523e8395c" y="184.87464"/>
     <use style="fill:#ff0000;stroke:#ff0000;" x="366.813659" xlink:href="#me523e8395c" y="184.87464"/>
     <use style="fill:#ff0000;stroke:#ff0000;" x="374.732062" xlink:href="#me523e8395c" y="183.811821"/>
     <use style="fill:#ff0000;stroke:#ff0000;" x="382.650466" xlink:href="#me523e8395c" y="183.811821"/>
     <use style="fill:#ff0000;stroke:#ff0000;" x="390.568869" xlink:href="#me523e8395c" y="219.514689"/>
     <use style="fill:#ff0000;stroke:#ff0000;" x="398.487273" xlink:href="#me523e8395c" y="219.514689"/>
    </g>
   </g>
   <g id="patch_3">
    <path d="M 57.6 307.584 
L 57.6 41.472 
" style="fill:none;stroke:#000000;stroke-linecap:square;stroke-linejoin:miter;stroke-width:0.8;"/>
   </g>
   <g id="patch_4">
    <path d="M 414.72 307.584 
L 414.72 41.472 
" style="fill:none;stroke:#000000;stroke-linecap:square;stroke-linejoin:miter;stroke-width:0.8;"/>
   </g>
   <g id="patch_5">
    <path d="M 57.6 307.584 
L 414.72 307.584 
" style="fill:none;stroke:#000000;stroke-linecap:square;stroke-linejoin:miter;stroke-width:0.8;"/>
   </g>
   <g id="patch_6">
    <path d="M 57.6 41.472 
L 414.72 41.472 
" style="fill:none;stroke:#000000;stroke-linecap:square;stroke-linejoin:miter;stroke-width:0.8;"/>
   </g>
  </g>
 </g>
 <defs>
  <clipPath id="p70812fcae7">
   <rect height="266.112" width="357.12" x="57.6" y="41.472"/>
  </clipPath>
 </defs>
</svg>
