<svg xmlns="http://www.w3.org/2000/svg" viewBox="0 0 252.044 142.093"><title>Anaheim Ducks dark logo</title><g fill="#111"><path d="M220.856 111.66l-1.064-2.278a1.595 1.595 0 0 0 1.064-1.51c0-.88-.718-1.61-1.597-1.61h-2.278v5.397h1.015v-2.192h.73l1.027 2.19h1.102zm-1.597-3.206h-1.276v-1.188h1.275a.594.594 0 0 1-.001 1.188z"/><path d="M223.653 108.96c0-2.61-2.116-4.74-4.728-4.74-2.61 0-4.728 2.13-4.728 4.74s2.116 4.716 4.728 4.716a4.717 4.717 0 0 0 4.728-4.715zm-8.44 0a3.717 3.717 0 0 1 3.712-3.724 3.726 3.726 0 0 1 3.713 3.725 3.724 3.724 0 0 1-3.713 3.714 3.715 3.715 0 0 1-3.713-3.713z"/></g><path d="M152.773 0C84.94 0 30.94 37.14 30.94 37.14s66.573-5.358 66.573 8.43c0 12.078-52.698 31.744-52.698 31.744s41.56 1.09 41.56 11.126C86.375 105.384 0 128.194 0 128.194s30.26 13.9 77.538 13.9c84.666 0 174.506-48.01 174.506-85.422C252.044 22.216 201.5 0 152.774 0z" fill="#A4A9AD"/><path d="M152.773 3.032c-48.986 0-91.028 19.9-109.73 30.347 0 0 57.5-4.048 57.5 12.177 0 10.11-24.715 22.265-41.98 29.53 14.183 1.35 30.842 4.765 30.842 13.342 0 15.804-52.934 32.71-79.617 40.21 12.042 4.022 36.114 10.42 67.748 10.42 85.075 0 171.486-47.945 171.486-82.4-.01-33.133-49.973-53.628-96.25-53.628z" fill="#111"/><path d="M61.684 127.984l-9.988 2.65s8.936.99 22.995.99c100.93 0 167.948-61.412 167.948-71.19 0-1.077-.347-1.98-.347-1.98-35.766 42.55-106.806 71.894-180.606 69.53z" fill="#F95602"/><path d="M153.986 11.35c-37.686 0-78.738 14.615-78.738 14.615s42.24-2.116 42.24 15.545c0 16.473-29.852 28.565-29.852 28.565s18.12 4.245 18.12 14.703c0 23.812-58.74 38.59-58.74 38.59 123.245 5.977 193.64-59.915 193.64-72.093.002-11.337-34.293-39.926-86.67-39.926z" fill="#FFF"/><path d="M153.986 13.762c-23.626 0-48.812 5.89-63.973 10.16 0 0 29.89 1.214 29.89 17.575 0 13.317-16.672 23.577-25.72 28.17 5.905 2.388 13.986 7.128 13.986 15.098 0 17.723-28.22 30.31-46.152 36.535 111.746 0 176.202-59.406 176.202-70.038 0-9.64-33.082-37.5-84.234-37.5z" fill="#B5985A"/><path d="M133.343 31.584s33.02 7.45 47.785 17.314L116.746 65.57l61.052-1.993c-13.614 9.95-63.206 33.75-63.206 33.75s60.966-9.072 99.518-44.283c-34.307-30.816-80.767-21.46-80.767-21.46z" fill="#FFF"/><path d="M147.476 32.76s25.545 6.522 39.48 17.13l-48.43 12.55 47.03-1.536c-13.143 11.052-51.843 29.703-51.843 29.703 20.36-5.396 52.513-16.61 76.548-37.513-21.41-17.908-47.288-20.668-62.784-20.334z" fill="#111"/></svg>