<?xml version="1.0" encoding="utf-8" standalone="no"?>
<!DOCTYPE svg PUBLIC "-//W3C//DTD SVG 1.1//EN"
  "http://www.w3.org/Graphics/SVG/1.1/DTD/svg11.dtd">
<!-- Created with matplotlib (https://matplotlib.org/) -->
<svg height="345.6pt" version="1.1" viewBox="0 0 460.8 345.6" width="460.8pt" xmlns="http://www.w3.org/2000/svg" xmlns:xlink="http://www.w3.org/1999/xlink">
 <defs>
  <style type="text/css">
*{stroke-linecap:butt;stroke-linejoin:round;}
  </style>
 </defs>
 <g id="figure_1">
  <g id="patch_1">
   <path d="M 0 345.6 
L 460.8 345.6 
L 460.8 0 
L 0 0 
z
" style="fill:#ffffff;"/>
  </g>
  <g id="axes_1">
   <g id="patch_2">
    <path d="M 57.6 307.584 
L 414.72 307.584 
L 414.72 41.472 
L 57.6 41.472 
z
" style="fill:#ffffff;"/>
   </g>
   <g id="line2d_1">
    <path clip-path="url(#p76931cce7e)" d="M 73.832727 108.104095 
L 75.776766 108.104095 
L 76.748786 77.57487 
L 77.720806 77.57487 
L 78.692825 79.746091 
L 79.664845 79.746091 
L 80.636864 82.388693 
L 82.580904 82.388693 
L 83.552923 114.887958 
L 84.524943 83.747624 
L 86.468982 83.747624 
L 87.441002 53.568 
L 89.385041 53.568 
L 91.32908 121.678537 
L 92.3011 121.678537 
L 93.273119 154.586408 
L 94.245139 154.586408 
L 95.217158 165.14041 
L 97.161198 165.14041 
L 98.133217 166.805342 
L 99.105237 166.805342 
L 100.077256 177.964681 
L 101.049276 177.964681 
L 102.021296 178.783779 
L 103.965335 178.783779 
L 104.937354 176.407902 
L 105.909374 176.407902 
L 106.881394 187.848767 
L 107.853413 176.764786 
L 108.825433 176.764786 
L 109.797452 186.543615 
L 111.741492 186.543615 
L 112.713511 184.936518 
L 113.685531 184.936518 
L 114.65755 195.775606 
L 115.62957 195.775606 
L 116.60159 196.798069 
L 117.573609 196.798069 
L 118.545629 197.861789 
L 120.489668 197.861789 
L 121.461688 187.212595 
L 122.433707 187.212595 
L 123.405727 184.848881 
L 124.377746 184.848881 
L 125.349766 193.957712 
L 126.321786 193.957712 
L 127.293805 181.879012 
L 128.265825 171.814141 
L 129.237844 171.814141 
L 130.209864 169.381322 
L 131.181884 169.381322 
L 132.153903 158.253551 
L 134.097942 158.253551 
L 135.069962 148.00757 
L 136.041981 148.00757 
L 137.014001 158.68727 
L 140.902079 158.743332 
L 141.874099 147.864556 
L 143.818138 147.864556 
L 144.790158 145.526563 
L 145.762177 145.526563 
L 146.734197 134.586544 
L 147.706217 146.206521 
L 148.678236 146.206521 
L 149.650256 156.275241 
L 150.622275 156.275241 
L 151.594295 166.506101 
L 155.482373 166.506101 
L 156.454393 176.518296 
L 157.426413 176.518296 
L 158.398432 178.885977 
L 159.370452 178.885977 
L 160.342471 179.191157 
L 163.25853 179.191157 
L 164.23055 189.332352 
L 165.202569 189.332352 
L 166.174589 199.889707 
L 168.118628 199.889707 
L 169.090648 202.502977 
L 170.062667 202.502977 
L 171.034687 211.947539 
L 172.006707 211.947539 
L 172.978726 212.80545 
L 173.950746 212.80545 
L 174.922765 224.469816 
L 175.894785 224.469816 
L 176.866805 212.985666 
L 177.838824 212.985666 
L 178.810844 202.25062 
L 179.782863 211.880376 
L 181.726903 211.880376 
L 182.698922 222.297774 
L 191.447099 222.297774 
L 192.419118 231.5353 
L 193.391138 231.5353 
L 195.335177 250.058293 
L 196.307197 250.058293 
L 197.279216 260.979051 
L 198.251236 260.979051 
L 199.223255 271.28588 
L 202.139314 271.28588 
L 203.111334 260.191247 
L 204.083353 260.191247 
L 205.055373 269.096826 
L 206.027392 269.096826 
L 206.999412 257.23236 
L 207.971432 257.23236 
L 208.943451 245.731273 
L 210.88749 245.731273 
L 211.85951 254.626254 
L 212.83153 265.200819 
L 213.803549 265.200819 
L 214.775569 275.65217 
L 215.747588 275.65217 
L 216.719608 285.820695 
L 217.691628 285.820695 
L 218.663647 295.488 
L 219.635667 295.488 
L 220.607686 283.515917 
L 221.579706 283.515917 
L 222.551726 272.085675 
L 223.523745 281.566784 
L 224.495765 281.566784 
L 225.467784 269.431262 
L 226.439804 269.431262 
L 227.411824 280.780763 
L 228.383843 280.780763 
L 229.355863 268.594484 
L 230.327882 268.594484 
L 231.299902 278.469604 
L 232.271922 266.778085 
L 233.243941 266.778085 
L 234.215961 255.868231 
L 236.16 255.868231 
L 237.13202 264.903494 
L 238.104039 264.903494 
L 239.076059 260.939352 
L 240.048078 261.727828 
L 241.992118 261.727828 
L 242.964137 251.072298 
L 244.908176 251.072298 
L 245.880196 259.873609 
L 246.852216 248.929277 
L 249.768274 248.929277 
L 250.740294 236.287087 
L 251.712314 236.287087 
L 252.684333 226.525176 
L 398.487273 226.525176 
L 398.487273 226.525176 
" style="fill:none;stroke:#ff0000;stroke-linecap:square;stroke-width:12;"/>
    <defs>
     <path d="M 0 3 
C 0.795609 3 1.55874 2.683901 2.12132 2.12132 
C 2.683901 1.55874 3 0.795609 3 0 
C 3 -0.795609 2.683901 -1.55874 2.12132 -2.12132 
C 1.55874 -2.683901 0.795609 -3 0 -3 
C -0.795609 -3 -1.55874 -2.683901 -2.12132 -2.12132 
C -2.683901 -1.55874 -3 -0.795609 -3 0 
C -3 0.795609 -2.683901 1.55874 -2.12132 2.12132 
C -1.55874 2.683901 -0.795609 3 0 3 
z
" id="m4be9b6ad3b" style="stroke:#ff0000;"/>
    </defs>
    <g clip-path="url(#p76931cce7e)">
     <use style="fill:#ff0000;stroke:#ff0000;" x="73.832727" xlink:href="#m4be9b6ad3b" y="108.104095"/>
     <use style="fill:#ff0000;stroke:#ff0000;" x="74.804747" xlink:href="#m4be9b6ad3b" y="108.104095"/>
     <use style="fill:#ff0000;stroke:#ff0000;" x="75.776766" xlink:href="#m4be9b6ad3b" y="108.104095"/>
     <use style="fill:#ff0000;stroke:#ff0000;" x="76.748786" xlink:href="#m4be9b6ad3b" y="77.57487"/>
     <use style="fill:#ff0000;stroke:#ff0000;" x="77.720806" xlink:href="#m4be9b6ad3b" y="77.57487"/>
     <use style="fill:#ff0000;stroke:#ff0000;" x="78.692825" xlink:href="#m4be9b6ad3b" y="79.746091"/>
     <use style="fill:#ff0000;stroke:#ff0000;" x="79.664845" xlink:href="#m4be9b6ad3b" y="79.746091"/>
     <use style="fill:#ff0000;stroke:#ff0000;" x="80.636864" xlink:href="#m4be9b6ad3b" y="82.388693"/>
     <use style="fill:#ff0000;stroke:#ff0000;" x="81.608884" xlink:href="#m4be9b6ad3b" y="82.388693"/>
     <use style="fill:#ff0000;stroke:#ff0000;" x="82.580904" xlink:href="#m4be9b6ad3b" y="82.388693"/>
     <use style="fill:#ff0000;stroke:#ff0000;" x="83.552923" xlink:href="#m4be9b6ad3b" y="114.887958"/>
     <use style="fill:#ff0000;stroke:#ff0000;" x="84.524943" xlink:href="#m4be9b6ad3b" y="83.747624"/>
     <use style="fill:#ff0000;stroke:#ff0000;" x="85.496962" xlink:href="#m4be9b6ad3b" y="83.747624"/>
     <use style="fill:#ff0000;stroke:#ff0000;" x="86.468982" xlink:href="#m4be9b6ad3b" y="83.747624"/>
     <use style="fill:#ff0000;stroke:#ff0000;" x="87.441002" xlink:href="#m4be9b6ad3b" y="53.568"/>
     <use style="fill:#ff0000;stroke:#ff0000;" x="88.413021" xlink:href="#m4be9b6ad3b" y="53.568"/>
     <use style="fill:#ff0000;stroke:#ff0000;" x="89.385041" xlink:href="#m4be9b6ad3b" y="53.568"/>
     <use style="fill:#ff0000;stroke:#ff0000;" x="90.35706" xlink:href="#m4be9b6ad3b" y="88.508798"/>
     <use style="fill:#ff0000;stroke:#ff0000;" x="91.32908" xlink:href="#m4be9b6ad3b" y="121.678537"/>
     <use style="fill:#ff0000;stroke:#ff0000;" x="92.3011" xlink:href="#m4be9b6ad3b" y="121.678537"/>
     <use style="fill:#ff0000;stroke:#ff0000;" x="93.273119" xlink:href="#m4be9b6ad3b" y="154.586408"/>
     <use style="fill:#ff0000;stroke:#ff0000;" x="94.245139" xlink:href="#m4be9b6ad3b" y="154.586408"/>
     <use style="fill:#ff0000;stroke:#ff0000;" x="95.217158" xlink:href="#m4be9b6ad3b" y="165.14041"/>
     <use style="fill:#ff0000;stroke:#ff0000;" x="96.189178" xlink:href="#m4be9b6ad3b" y="165.14041"/>
     <use style="fill:#ff0000;stroke:#ff0000;" x="97.161198" xlink:href="#m4be9b6ad3b" y="165.14041"/>
     <use style="fill:#ff0000;stroke:#ff0000;" x="98.133217" xlink:href="#m4be9b6ad3b" y="166.805342"/>
     <use style="fill:#ff0000;stroke:#ff0000;" x="99.105237" xlink:href="#m4be9b6ad3b" y="166.805342"/>
     <use style="fill:#ff0000;stroke:#ff0000;" x="100.077256" xlink:href="#m4be9b6ad3b" y="177.964681"/>
     <use style="fill:#ff0000;stroke:#ff0000;" x="101.049276" xlink:href="#m4be9b6ad3b" y="177.964681"/>
     <use style="fill:#ff0000;stroke:#ff0000;" x="102.021296" xlink:href="#m4be9b6ad3b" y="178.783779"/>
     <use style="fill:#ff0000;stroke:#ff0000;" x="102.993315" xlink:href="#m4be9b6ad3b" y="178.783779"/>
     <use style="fill:#ff0000;stroke:#ff0000;" x="103.965335" xlink:href="#m4be9b6ad3b" y="178.783779"/>
     <use style="fill:#ff0000;stroke:#ff0000;" x="104.937354" xlink:href="#m4be9b6ad3b" y="176.407902"/>
     <use style="fill:#ff0000;stroke:#ff0000;" x="105.909374" xlink:href="#m4be9b6ad3b" y="176.407902"/>
     <use style="fill:#ff0000;stroke:#ff0000;" x="106.881394" xlink:href="#m4be9b6ad3b" y="187.848767"/>
     <use style="fill:#ff0000;stroke:#ff0000;" x="107.853413" xlink:href="#m4be9b6ad3b" y="176.764786"/>
     <use style="fill:#ff0000;stroke:#ff0000;" x="108.825433" xlink:href="#m4be9b6ad3b" y="176.764786"/>
     <use style="fill:#ff0000;stroke:#ff0000;" x="109.797452" xlink:href="#m4be9b6ad3b" y="186.543615"/>
     <use style="fill:#ff0000;stroke:#ff0000;" x="110.769472" xlink:href="#m4be9b6ad3b" y="186.543615"/>
     <use style="fill:#ff0000;stroke:#ff0000;" x="111.741492" xlink:href="#m4be9b6ad3b" y="186.543615"/>
     <use style="fill:#ff0000;stroke:#ff0000;" x="112.713511" xlink:href="#m4be9b6ad3b" y="184.936518"/>
     <use style="fill:#ff0000;stroke:#ff0000;" x="113.685531" xlink:href="#m4be9b6ad3b" y="184.936518"/>
     <use style="fill:#ff0000;stroke:#ff0000;" x="114.65755" xlink:href="#m4be9b6ad3b" y="195.775606"/>
     <use style="fill:#ff0000;stroke:#ff0000;" x="115.62957" xlink:href="#m4be9b6ad3b" y="195.775606"/>
     <use style="fill:#ff0000;stroke:#ff0000;" x="116.60159" xlink:href="#m4be9b6ad3b" y="196.798069"/>
     <use style="fill:#ff0000;stroke:#ff0000;" x="117.573609" xlink:href="#m4be9b6ad3b" y="196.798069"/>
     <use style="fill:#ff0000;stroke:#ff0000;" x="118.545629" xlink:href="#m4be9b6ad3b" y="197.861789"/>
     <use style="fill:#ff0000;stroke:#ff0000;" x="119.517648" xlink:href="#m4be9b6ad3b" y="197.861789"/>
     <use style="fill:#ff0000;stroke:#ff0000;" x="120.489668" xlink:href="#m4be9b6ad3b" y="197.861789"/>
     <use style="fill:#ff0000;stroke:#ff0000;" x="121.461688" xlink:href="#m4be9b6ad3b" y="187.212595"/>
     <use style="fill:#ff0000;stroke:#ff0000;" x="122.433707" xlink:href="#m4be9b6ad3b" y="187.212595"/>
     <use style="fill:#ff0000;stroke:#ff0000;" x="123.405727" xlink:href="#m4be9b6ad3b" y="184.848881"/>
     <use style="fill:#ff0000;stroke:#ff0000;" x="124.377746" xlink:href="#m4be9b6ad3b" y="184.848881"/>
     <use style="fill:#ff0000;stroke:#ff0000;" x="125.349766" xlink:href="#m4be9b6ad3b" y="193.957712"/>
     <use style="fill:#ff0000;stroke:#ff0000;" x="126.321786" xlink:href="#m4be9b6ad3b" y="193.957712"/>
     <use style="fill:#ff0000;stroke:#ff0000;" x="127.293805" xlink:href="#m4be9b6ad3b" y="181.879012"/>
     <use style="fill:#ff0000;stroke:#ff0000;" x="128.265825" xlink:href="#m4be9b6ad3b" y="171.814141"/>
     <use style="fill:#ff0000;stroke:#ff0000;" x="129.237844" xlink:href="#m4be9b6ad3b" y="171.814141"/>
     <use style="fill:#ff0000;stroke:#ff0000;" x="130.209864" xlink:href="#m4be9b6ad3b" y="169.381322"/>
     <use style="fill:#ff0000;stroke:#ff0000;" x="131.181884" xlink:href="#m4be9b6ad3b" y="169.381322"/>
     <use style="fill:#ff0000;stroke:#ff0000;" x="132.153903" xlink:href="#m4be9b6ad3b" y="158.253551"/>
     <use style="fill:#ff0000;stroke:#ff0000;" x="133.125923" xlink:href="#m4be9b6ad3b" y="158.253551"/>
     <use style="fill:#ff0000;stroke:#ff0000;" x="134.097942" xlink:href="#m4be9b6ad3b" y="158.253551"/>
     <use style="fill:#ff0000;stroke:#ff0000;" x="135.069962" xlink:href="#m4be9b6ad3b" y="148.00757"/>
     <use style="fill:#ff0000;stroke:#ff0000;" x="136.041981" xlink:href="#m4be9b6ad3b" y="148.00757"/>
     <use style="fill:#ff0000;stroke:#ff0000;" x="137.014001" xlink:href="#m4be9b6ad3b" y="158.68727"/>
     <use style="fill:#ff0000;stroke:#ff0000;" x="137.986021" xlink:href="#m4be9b6ad3b" y="158.68727"/>
     <use style="fill:#ff0000;stroke:#ff0000;" x="138.95804" xlink:href="#m4be9b6ad3b" y="158.743332"/>
     <use style="fill:#ff0000;stroke:#ff0000;" x="139.93006" xlink:href="#m4be9b6ad3b" y="158.743332"/>
     <use style="fill:#ff0000;stroke:#ff0000;" x="140.902079" xlink:href="#m4be9b6ad3b" y="158.743332"/>
     <use style="fill:#ff0000;stroke:#ff0000;" x="141.874099" xlink:href="#m4be9b6ad3b" y="147.864556"/>
     <use style="fill:#ff0000;stroke:#ff0000;" x="142.846119" xlink:href="#m4be9b6ad3b" y="147.864556"/>
     <use style="fill:#ff0000;stroke:#ff0000;" x="143.818138" xlink:href="#m4be9b6ad3b" y="147.864556"/>
     <use style="fill:#ff0000;stroke:#ff0000;" x="144.790158" xlink:href="#m4be9b6ad3b" y="145.526563"/>
     <use style="fill:#ff0000;stroke:#ff0000;" x="145.762177" xlink:href="#m4be9b6ad3b" y="145.526563"/>
     <use style="fill:#ff0000;stroke:#ff0000;" x="146.734197" xlink:href="#m4be9b6ad3b" y="134.586544"/>
     <use style="fill:#ff0000;stroke:#ff0000;" x="147.706217" xlink:href="#m4be9b6ad3b" y="146.206521"/>
     <use style="fill:#ff0000;stroke:#ff0000;" x="148.678236" xlink:href="#m4be9b6ad3b" y="146.206521"/>
     <use style="fill:#ff0000;stroke:#ff0000;" x="149.650256" xlink:href="#m4be9b6ad3b" y="156.275241"/>
     <use style="fill:#ff0000;stroke:#ff0000;" x="150.622275" xlink:href="#m4be9b6ad3b" y="156.275241"/>
     <use style="fill:#ff0000;stroke:#ff0000;" x="151.594295" xlink:href="#m4be9b6ad3b" y="166.506101"/>
     <use style="fill:#ff0000;stroke:#ff0000;" x="152.566315" xlink:href="#m4be9b6ad3b" y="166.506101"/>
     <use style="fill:#ff0000;stroke:#ff0000;" x="153.538334" xlink:href="#m4be9b6ad3b" y="166.506101"/>
     <use style="fill:#ff0000;stroke:#ff0000;" x="154.510354" xlink:href="#m4be9b6ad3b" y="166.506101"/>
     <use style="fill:#ff0000;stroke:#ff0000;" x="155.482373" xlink:href="#m4be9b6ad3b" y="166.506101"/>
     <use style="fill:#ff0000;stroke:#ff0000;" x="156.454393" xlink:href="#m4be9b6ad3b" y="176.518296"/>
     <use style="fill:#ff0000;stroke:#ff0000;" x="157.426413" xlink:href="#m4be9b6ad3b" y="176.518296"/>
     <use style="fill:#ff0000;stroke:#ff0000;" x="158.398432" xlink:href="#m4be9b6ad3b" y="178.885977"/>
     <use style="fill:#ff0000;stroke:#ff0000;" x="159.370452" xlink:href="#m4be9b6ad3b" y="178.885977"/>
     <use style="fill:#ff0000;stroke:#ff0000;" x="160.342471" xlink:href="#m4be9b6ad3b" y="179.191157"/>
     <use style="fill:#ff0000;stroke:#ff0000;" x="161.314491" xlink:href="#m4be9b6ad3b" y="179.191157"/>
     <use style="fill:#ff0000;stroke:#ff0000;" x="162.286511" xlink:href="#m4be9b6ad3b" y="179.191157"/>
     <use style="fill:#ff0000;stroke:#ff0000;" x="163.25853" xlink:href="#m4be9b6ad3b" y="179.191157"/>
     <use style="fill:#ff0000;stroke:#ff0000;" x="164.23055" xlink:href="#m4be9b6ad3b" y="189.332352"/>
     <use style="fill:#ff0000;stroke:#ff0000;" x="165.202569" xlink:href="#m4be9b6ad3b" y="189.332352"/>
     <use style="fill:#ff0000;stroke:#ff0000;" x="166.174589" xlink:href="#m4be9b6ad3b" y="199.889707"/>
     <use style="fill:#ff0000;stroke:#ff0000;" x="167.146609" xlink:href="#m4be9b6ad3b" y="199.889707"/>
     <use style="fill:#ff0000;stroke:#ff0000;" x="168.118628" xlink:href="#m4be9b6ad3b" y="199.889707"/>
     <use style="fill:#ff0000;stroke:#ff0000;" x="169.090648" xlink:href="#m4be9b6ad3b" y="202.502977"/>
     <use style="fill:#ff0000;stroke:#ff0000;" x="170.062667" xlink:href="#m4be9b6ad3b" y="202.502977"/>
     <use style="fill:#ff0000;stroke:#ff0000;" x="171.034687" xlink:href="#m4be9b6ad3b" y="211.947539"/>
     <use style="fill:#ff0000;stroke:#ff0000;" x="172.006707" xlink:href="#m4be9b6ad3b" y="211.947539"/>
     <use style="fill:#ff0000;stroke:#ff0000;" x="172.978726" xlink:href="#m4be9b6ad3b" y="212.80545"/>
     <use style="fill:#ff0000;stroke:#ff0000;" x="173.950746" xlink:href="#m4be9b6ad3b" y="212.80545"/>
     <use style="fill:#ff0000;stroke:#ff0000;" x="174.922765" xlink:href="#m4be9b6ad3b" y="224.469816"/>
     <use style="fill:#ff0000;stroke:#ff0000;" x="175.894785" xlink:href="#m4be9b6ad3b" y="224.469816"/>
     <use style="fill:#ff0000;stroke:#ff0000;" x="176.866805" xlink:href="#m4be9b6ad3b" y="212.985666"/>
     <use style="fill:#ff0000;stroke:#ff0000;" x="177.838824" xlink:href="#m4be9b6ad3b" y="212.985666"/>
     <use style="fill:#ff0000;stroke:#ff0000;" x="178.810844" xlink:href="#m4be9b6ad3b" y="202.25062"/>
     <use style="fill:#ff0000;stroke:#ff0000;" x="179.782863" xlink:href="#m4be9b6ad3b" y="211.880376"/>
     <use style="fill:#ff0000;stroke:#ff0000;" x="180.754883" xlink:href="#m4be9b6ad3b" y="211.880376"/>
     <use style="fill:#ff0000;stroke:#ff0000;" x="181.726903" xlink:href="#m4be9b6ad3b" y="211.880376"/>
     <use style="fill:#ff0000;stroke:#ff0000;" x="182.698922" xlink:href="#m4be9b6ad3b" y="222.297774"/>
     <use style="fill:#ff0000;stroke:#ff0000;" x="183.670942" xlink:href="#m4be9b6ad3b" y="222.297774"/>
     <use style="fill:#ff0000;stroke:#ff0000;" x="184.642961" xlink:href="#m4be9b6ad3b" y="222.297774"/>
     <use style="fill:#ff0000;stroke:#ff0000;" x="185.614981" xlink:href="#m4be9b6ad3b" y="222.297774"/>
     <use style="fill:#ff0000;stroke:#ff0000;" x="186.587001" xlink:href="#m4be9b6ad3b" y="222.297774"/>
     <use style="fill:#ff0000;stroke:#ff0000;" x="187.55902" xlink:href="#m4be9b6ad3b" y="222.297774"/>
     <use style="fill:#ff0000;stroke:#ff0000;" x="188.53104" xlink:href="#m4be9b6ad3b" y="222.297774"/>
     <use style="fill:#ff0000;stroke:#ff0000;" x="189.503059" xlink:href="#m4be9b6ad3b" y="222.297774"/>
     <use style="fill:#ff0000;stroke:#ff0000;" x="190.475079" xlink:href="#m4be9b6ad3b" y="222.297774"/>
     <use style="fill:#ff0000;stroke:#ff0000;" x="191.447099" xlink:href="#m4be9b6ad3b" y="222.297774"/>
     <use style="fill:#ff0000;stroke:#ff0000;" x="192.419118" xlink:href="#m4be9b6ad3b" y="231.5353"/>
     <use style="fill:#ff0000;stroke:#ff0000;" x="193.391138" xlink:href="#m4be9b6ad3b" y="231.5353"/>
     <use style="fill:#ff0000;stroke:#ff0000;" x="194.363157" xlink:href="#m4be9b6ad3b" y="240.705812"/>
     <use style="fill:#ff0000;stroke:#ff0000;" x="195.335177" xlink:href="#m4be9b6ad3b" y="250.058293"/>
     <use style="fill:#ff0000;stroke:#ff0000;" x="196.307197" xlink:href="#m4be9b6ad3b" y="250.058293"/>
     <use style="fill:#ff0000;stroke:#ff0000;" x="197.279216" xlink:href="#m4be9b6ad3b" y="260.979051"/>
     <use style="fill:#ff0000;stroke:#ff0000;" x="198.251236" xlink:href="#m4be9b6ad3b" y="260.979051"/>
     <use style="fill:#ff0000;stroke:#ff0000;" x="199.223255" xlink:href="#m4be9b6ad3b" y="271.28588"/>
     <use style="fill:#ff0000;stroke:#ff0000;" x="200.195275" xlink:href="#m4be9b6ad3b" y="271.28588"/>
     <use style="fill:#ff0000;stroke:#ff0000;" x="201.167295" xlink:href="#m4be9b6ad3b" y="271.28588"/>
     <use style="fill:#ff0000;stroke:#ff0000;" x="202.139314" xlink:href="#m4be9b6ad3b" y="271.28588"/>
     <use style="fill:#ff0000;stroke:#ff0000;" x="203.111334" xlink:href="#m4be9b6ad3b" y="260.191247"/>
     <use style="fill:#ff0000;stroke:#ff0000;" x="204.083353" xlink:href="#m4be9b6ad3b" y="260.191247"/>
     <use style="fill:#ff0000;stroke:#ff0000;" x="205.055373" xlink:href="#m4be9b6ad3b" y="269.096826"/>
     <use style="fill:#ff0000;stroke:#ff0000;" x="206.027392" xlink:href="#m4be9b6ad3b" y="269.096826"/>
     <use style="fill:#ff0000;stroke:#ff0000;" x="206.999412" xlink:href="#m4be9b6ad3b" y="257.23236"/>
     <use style="fill:#ff0000;stroke:#ff0000;" x="207.971432" xlink:href="#m4be9b6ad3b" y="257.23236"/>
     <use style="fill:#ff0000;stroke:#ff0000;" x="208.943451" xlink:href="#m4be9b6ad3b" y="245.731273"/>
     <use style="fill:#ff0000;stroke:#ff0000;" x="209.915471" xlink:href="#m4be9b6ad3b" y="245.731273"/>
     <use style="fill:#ff0000;stroke:#ff0000;" x="210.88749" xlink:href="#m4be9b6ad3b" y="245.731273"/>
     <use style="fill:#ff0000;stroke:#ff0000;" x="211.85951" xlink:href="#m4be9b6ad3b" y="254.626254"/>
     <use style="fill:#ff0000;stroke:#ff0000;" x="212.83153" xlink:href="#m4be9b6ad3b" y="265.200819"/>
     <use style="fill:#ff0000;stroke:#ff0000;" x="213.803549" xlink:href="#m4be9b6ad3b" y="265.200819"/>
     <use style="fill:#ff0000;stroke:#ff0000;" x="214.775569" xlink:href="#m4be9b6ad3b" y="275.65217"/>
     <use style="fill:#ff0000;stroke:#ff0000;" x="215.747588" xlink:href="#m4be9b6ad3b" y="275.65217"/>
     <use style="fill:#ff0000;stroke:#ff0000;" x="216.719608" xlink:href="#m4be9b6ad3b" y="285.820695"/>
     <use style="fill:#ff0000;stroke:#ff0000;" x="217.691628" xlink:href="#m4be9b6ad3b" y="285.820695"/>
     <use style="fill:#ff0000;stroke:#ff0000;" x="218.663647" xlink:href="#m4be9b6ad3b" y="295.488"/>
     <use style="fill:#ff0000;stroke:#ff0000;" x="219.635667" xlink:href="#m4be9b6ad3b" y="295.488"/>
     <use style="fill:#ff0000;stroke:#ff0000;" x="220.607686" xlink:href="#m4be9b6ad3b" y="283.515917"/>
     <use style="fill:#ff0000;stroke:#ff0000;" x="221.579706" xlink:href="#m4be9b6ad3b" y="283.515917"/>
     <use style="fill:#ff0000;stroke:#ff0000;" x="222.551726" xlink:href="#m4be9b6ad3b" y="272.085675"/>
     <use style="fill:#ff0000;stroke:#ff0000;" x="223.523745" xlink:href="#m4be9b6ad3b" y="281.566784"/>
     <use style="fill:#ff0000;stroke:#ff0000;" x="224.495765" xlink:href="#m4be9b6ad3b" y="281.566784"/>
     <use style="fill:#ff0000;stroke:#ff0000;" x="225.467784" xlink:href="#m4be9b6ad3b" y="269.431262"/>
     <use style="fill:#ff0000;stroke:#ff0000;" x="226.439804" xlink:href="#m4be9b6ad3b" y="269.431262"/>
     <use style="fill:#ff0000;stroke:#ff0000;" x="227.411824" xlink:href="#m4be9b6ad3b" y="280.780763"/>
     <use style="fill:#ff0000;stroke:#ff0000;" x="228.383843" xlink:href="#m4be9b6ad3b" y="280.780763"/>
     <use style="fill:#ff0000;stroke:#ff0000;" x="229.355863" xlink:href="#m4be9b6ad3b" y="268.594484"/>
     <use style="fill:#ff0000;stroke:#ff0000;" x="230.327882" xlink:href="#m4be9b6ad3b" y="268.594484"/>
     <use style="fill:#ff0000;stroke:#ff0000;" x="231.299902" xlink:href="#m4be9b6ad3b" y="278.469604"/>
     <use style="fill:#ff0000;stroke:#ff0000;" x="232.271922" xlink:href="#m4be9b6ad3b" y="266.778085"/>
     <use style="fill:#ff0000;stroke:#ff0000;" x="233.243941" xlink:href="#m4be9b6ad3b" y="266.778085"/>
     <use style="fill:#ff0000;stroke:#ff0000;" x="234.215961" xlink:href="#m4be9b6ad3b" y="255.868231"/>
     <use style="fill:#ff0000;stroke:#ff0000;" x="235.18798" xlink:href="#m4be9b6ad3b" y="255.868231"/>
     <use style="fill:#ff0000;stroke:#ff0000;" x="236.16" xlink:href="#m4be9b6ad3b" y="255.868231"/>
     <use style="fill:#ff0000;stroke:#ff0000;" x="237.13202" xlink:href="#m4be9b6ad3b" y="264.903494"/>
     <use style="fill:#ff0000;stroke:#ff0000;" x="238.104039" xlink:href="#m4be9b6ad3b" y="264.903494"/>
     <use style="fill:#ff0000;stroke:#ff0000;" x="239.076059" xlink:href="#m4be9b6ad3b" y="260.939352"/>
     <use style="fill:#ff0000;stroke:#ff0000;" x="240.048078" xlink:href="#m4be9b6ad3b" y="261.727828"/>
     <use style="fill:#ff0000;stroke:#ff0000;" x="241.020098" xlink:href="#m4be9b6ad3b" y="261.727828"/>
     <use style="fill:#ff0000;stroke:#ff0000;" x="241.992118" xlink:href="#m4be9b6ad3b" y="261.727828"/>
     <use style="fill:#ff0000;stroke:#ff0000;" x="242.964137" xlink:href="#m4be9b6ad3b" y="251.072298"/>
     <use style="fill:#ff0000;stroke:#ff0000;" x="243.936157" xlink:href="#m4be9b6ad3b" y="251.072298"/>
     <use style="fill:#ff0000;stroke:#ff0000;" x="244.908176" xlink:href="#m4be9b6ad3b" y="251.072298"/>
     <use style="fill:#ff0000;stroke:#ff0000;" x="245.880196" xlink:href="#m4be9b6ad3b" y="259.873609"/>
     <use style="fill:#ff0000;stroke:#ff0000;" x="246.852216" xlink:href="#m4be9b6ad3b" y="248.929277"/>
     <use style="fill:#ff0000;stroke:#ff0000;" x="247.824235" xlink:href="#m4be9b6ad3b" y="248.929277"/>
     <use style="fill:#ff0000;stroke:#ff0000;" x="248.796255" xlink:href="#m4be9b6ad3b" y="248.929277"/>
     <use style="fill:#ff0000;stroke:#ff0000;" x="249.768274" xlink:href="#m4be9b6ad3b" y="248.929277"/>
     <use style="fill:#ff0000;stroke:#ff0000;" x="250.740294" xlink:href="#m4be9b6ad3b" y="236.287087"/>
     <use style="fill:#ff0000;stroke:#ff0000;" x="251.712314" xlink:href="#m4be9b6ad3b" y="236.287087"/>
     <use style="fill:#ff0000;stroke:#ff0000;" x="252.684333" xlink:href="#m4be9b6ad3b" y="226.525176"/>
     <use style="fill:#ff0000;stroke:#ff0000;" x="253.656353" xlink:href="#m4be9b6ad3b" y="226.525176"/>
     <use style="fill:#ff0000;stroke:#ff0000;" x="254.628372" xlink:href="#m4be9b6ad3b" y="226.525176"/>
     <use style="fill:#ff0000;stroke:#ff0000;" x="255.600392" xlink:href="#m4be9b6ad3b" y="226.525176"/>
     <use style="fill:#ff0000;stroke:#ff0000;" x="256.572412" xlink:href="#m4be9b6ad3b" y="226.525176"/>
     <use style="fill:#ff0000;stroke:#ff0000;" x="257.544431" xlink:href="#m4be9b6ad3b" y="226.525176"/>
     <use style="fill:#ff0000;stroke:#ff0000;" x="258.516451" xlink:href="#m4be9b6ad3b" y="226.525176"/>
     <use style="fill:#ff0000;stroke:#ff0000;" x="259.48847" xlink:href="#m4be9b6ad3b" y="226.525176"/>
     <use style="fill:#ff0000;stroke:#ff0000;" x="260.46049" xlink:href="#m4be9b6ad3b" y="226.525176"/>
     <use style="fill:#ff0000;stroke:#ff0000;" x="261.43251" xlink:href="#m4be9b6ad3b" y="226.525176"/>
     <use style="fill:#ff0000;stroke:#ff0000;" x="262.404529" xlink:href="#m4be9b6ad3b" y="226.525176"/>
     <use style="fill:#ff0000;stroke:#ff0000;" x="263.376549" xlink:href="#m4be9b6ad3b" y="226.525176"/>
     <use style="fill:#ff0000;stroke:#ff0000;" x="264.348568" xlink:href="#m4be9b6ad3b" y="226.525176"/>
     <use style="fill:#ff0000;stroke:#ff0000;" x="265.320588" xlink:href="#m4be9b6ad3b" y="226.525176"/>
     <use style="fill:#ff0000;stroke:#ff0000;" x="266.292608" xlink:href="#m4be9b6ad3b" y="226.525176"/>
     <use style="fill:#ff0000;stroke:#ff0000;" x="267.264627" xlink:href="#m4be9b6ad3b" y="226.525176"/>
     <use style="fill:#ff0000;stroke:#ff0000;" x="268.236647" xlink:href="#m4be9b6ad3b" y="226.525176"/>
     <use style="fill:#ff0000;stroke:#ff0000;" x="269.208666" xlink:href="#m4be9b6ad3b" y="226.525176"/>
     <use style="fill:#ff0000;stroke:#ff0000;" x="270.180686" xlink:href="#m4be9b6ad3b" y="226.525176"/>
     <use style="fill:#ff0000;stroke:#ff0000;" x="271.152705" xlink:href="#m4be9b6ad3b" y="226.525176"/>
     <use style="fill:#ff0000;stroke:#ff0000;" x="272.124725" xlink:href="#m4be9b6ad3b" y="226.525176"/>
     <use style="fill:#ff0000;stroke:#ff0000;" x="273.096745" xlink:href="#m4be9b6ad3b" y="226.525176"/>
     <use style="fill:#ff0000;stroke:#ff0000;" x="274.068764" xlink:href="#m4be9b6ad3b" y="226.525176"/>
     <use style="fill:#ff0000;stroke:#ff0000;" x="275.040784" xlink:href="#m4be9b6ad3b" y="226.525176"/>
     <use style="fill:#ff0000;stroke:#ff0000;" x="276.012803" xlink:href="#m4be9b6ad3b" y="226.525176"/>
     <use style="fill:#ff0000;stroke:#ff0000;" x="276.984823" xlink:href="#m4be9b6ad3b" y="226.525176"/>
     <use style="fill:#ff0000;stroke:#ff0000;" x="277.956843" xlink:href="#m4be9b6ad3b" y="226.525176"/>
     <use style="fill:#ff0000;stroke:#ff0000;" x="278.928862" xlink:href="#m4be9b6ad3b" y="226.525176"/>
     <use style="fill:#ff0000;stroke:#ff0000;" x="279.900882" xlink:href="#m4be9b6ad3b" y="226.525176"/>
     <use style="fill:#ff0000;stroke:#ff0000;" x="280.872901" xlink:href="#m4be9b6ad3b" y="226.525176"/>
     <use style="fill:#ff0000;stroke:#ff0000;" x="281.844921" xlink:href="#m4be9b6ad3b" y="226.525176"/>
     <use style="fill:#ff0000;stroke:#ff0000;" x="282.816941" xlink:href="#m4be9b6ad3b" y="226.525176"/>
     <use style="fill:#ff0000;stroke:#ff0000;" x="283.78896" xlink:href="#m4be9b6ad3b" y="226.525176"/>
     <use style="fill:#ff0000;stroke:#ff0000;" x="284.76098" xlink:href="#m4be9b6ad3b" y="226.525176"/>
     <use style="fill:#ff0000;stroke:#ff0000;" x="285.732999" xlink:href="#m4be9b6ad3b" y="226.525176"/>
     <use style="fill:#ff0000;stroke:#ff0000;" x="286.705019" xlink:href="#m4be9b6ad3b" y="226.525176"/>
     <use style="fill:#ff0000;stroke:#ff0000;" x="287.677039" xlink:href="#m4be9b6ad3b" y="226.525176"/>
     <use style="fill:#ff0000;stroke:#ff0000;" x="288.649058" xlink:href="#m4be9b6ad3b" y="226.525176"/>
     <use style="fill:#ff0000;stroke:#ff0000;" x="289.621078" xlink:href="#m4be9b6ad3b" y="226.525176"/>
     <use style="fill:#ff0000;stroke:#ff0000;" x="290.593097" xlink:href="#m4be9b6ad3b" y="226.525176"/>
     <use style="fill:#ff0000;stroke:#ff0000;" x="291.565117" xlink:href="#m4be9b6ad3b" y="226.525176"/>
     <use style="fill:#ff0000;stroke:#ff0000;" x="292.537137" xlink:href="#m4be9b6ad3b" y="226.525176"/>
     <use style="fill:#ff0000;stroke:#ff0000;" x="293.509156" xlink:href="#m4be9b6ad3b" y="226.525176"/>
     <use style="fill:#ff0000;stroke:#ff0000;" x="294.481176" xlink:href="#m4be9b6ad3b" y="226.525176"/>
     <use style="fill:#ff0000;stroke:#ff0000;" x="295.453195" xlink:href="#m4be9b6ad3b" y="226.525176"/>
     <use style="fill:#ff0000;stroke:#ff0000;" x="296.425215" xlink:href="#m4be9b6ad3b" y="226.525176"/>
     <use style="fill:#ff0000;stroke:#ff0000;" x="297.397235" xlink:href="#m4be9b6ad3b" y="226.525176"/>
     <use style="fill:#ff0000;stroke:#ff0000;" x="298.369254" xlink:href="#m4be9b6ad3b" y="226.525176"/>
     <use style="fill:#ff0000;stroke:#ff0000;" x="299.341274" xlink:href="#m4be9b6ad3b" y="226.525176"/>
     <use style="fill:#ff0000;stroke:#ff0000;" x="300.313293" xlink:href="#m4be9b6ad3b" y="226.525176"/>
     <use style="fill:#ff0000;stroke:#ff0000;" x="301.285313" xlink:href="#m4be9b6ad3b" y="226.525176"/>
     <use style="fill:#ff0000;stroke:#ff0000;" x="302.257333" xlink:href="#m4be9b6ad3b" y="226.525176"/>
     <use style="fill:#ff0000;stroke:#ff0000;" x="303.229352" xlink:href="#m4be9b6ad3b" y="226.525176"/>
     <use style="fill:#ff0000;stroke:#ff0000;" x="304.201372" xlink:href="#m4be9b6ad3b" y="226.525176"/>
     <use style="fill:#ff0000;stroke:#ff0000;" x="305.173391" xlink:href="#m4be9b6ad3b" y="226.525176"/>
     <use style="fill:#ff0000;stroke:#ff0000;" x="306.145411" xlink:href="#m4be9b6ad3b" y="226.525176"/>
     <use style="fill:#ff0000;stroke:#ff0000;" x="307.117431" xlink:href="#m4be9b6ad3b" y="226.525176"/>
     <use style="fill:#ff0000;stroke:#ff0000;" x="308.08945" xlink:href="#m4be9b6ad3b" y="226.525176"/>
     <use style="fill:#ff0000;stroke:#ff0000;" x="309.06147" xlink:href="#m4be9b6ad3b" y="226.525176"/>
     <use style="fill:#ff0000;stroke:#ff0000;" x="310.033489" xlink:href="#m4be9b6ad3b" y="226.525176"/>
     <use style="fill:#ff0000;stroke:#ff0000;" x="311.005509" xlink:href="#m4be9b6ad3b" y="226.525176"/>
     <use style="fill:#ff0000;stroke:#ff0000;" x="311.977529" xlink:href="#m4be9b6ad3b" y="226.525176"/>
     <use style="fill:#ff0000;stroke:#ff0000;" x="312.949548" xlink:href="#m4be9b6ad3b" y="226.525176"/>
     <use style="fill:#ff0000;stroke:#ff0000;" x="313.921568" xlink:href="#m4be9b6ad3b" y="226.525176"/>
     <use style="fill:#ff0000;stroke:#ff0000;" x="314.893587" xlink:href="#m4be9b6ad3b" y="226.525176"/>
     <use style="fill:#ff0000;stroke:#ff0000;" x="315.865607" xlink:href="#m4be9b6ad3b" y="226.525176"/>
     <use style="fill:#ff0000;stroke:#ff0000;" x="316.837627" xlink:href="#m4be9b6ad3b" y="226.525176"/>
     <use style="fill:#ff0000;stroke:#ff0000;" x="317.809646" xlink:href="#m4be9b6ad3b" y="226.525176"/>
     <use style="fill:#ff0000;stroke:#ff0000;" x="318.781666" xlink:href="#m4be9b6ad3b" y="226.525176"/>
     <use style="fill:#ff0000;stroke:#ff0000;" x="319.753685" xlink:href="#m4be9b6ad3b" y="226.525176"/>
     <use style="fill:#ff0000;stroke:#ff0000;" x="320.725705" xlink:href="#m4be9b6ad3b" y="226.525176"/>
     <use style="fill:#ff0000;stroke:#ff0000;" x="321.697725" xlink:href="#m4be9b6ad3b" y="226.525176"/>
     <use style="fill:#ff0000;stroke:#ff0000;" x="322.669744" xlink:href="#m4be9b6ad3b" y="226.525176"/>
     <use style="fill:#ff0000;stroke:#ff0000;" x="323.641764" xlink:href="#m4be9b6ad3b" y="226.525176"/>
     <use style="fill:#ff0000;stroke:#ff0000;" x="324.613783" xlink:href="#m4be9b6ad3b" y="226.525176"/>
     <use style="fill:#ff0000;stroke:#ff0000;" x="325.585803" xlink:href="#m4be9b6ad3b" y="226.525176"/>
     <use style="fill:#ff0000;stroke:#ff0000;" x="326.557823" xlink:href="#m4be9b6ad3b" y="226.525176"/>
     <use style="fill:#ff0000;stroke:#ff0000;" x="327.529842" xlink:href="#m4be9b6ad3b" y="226.525176"/>
     <use style="fill:#ff0000;stroke:#ff0000;" x="328.501862" xlink:href="#m4be9b6ad3b" y="226.525176"/>
     <use style="fill:#ff0000;stroke:#ff0000;" x="329.473881" xlink:href="#m4be9b6ad3b" y="226.525176"/>
     <use style="fill:#ff0000;stroke:#ff0000;" x="330.445901" xlink:href="#m4be9b6ad3b" y="226.525176"/>
     <use style="fill:#ff0000;stroke:#ff0000;" x="331.417921" xlink:href="#m4be9b6ad3b" y="226.525176"/>
     <use style="fill:#ff0000;stroke:#ff0000;" x="332.38994" xlink:href="#m4be9b6ad3b" y="226.525176"/>
     <use style="fill:#ff0000;stroke:#ff0000;" x="333.36196" xlink:href="#m4be9b6ad3b" y="226.525176"/>
     <use style="fill:#ff0000;stroke:#ff0000;" x="334.333979" xlink:href="#m4be9b6ad3b" y="226.525176"/>
     <use style="fill:#ff0000;stroke:#ff0000;" x="335.305999" xlink:href="#m4be9b6ad3b" y="226.525176"/>
     <use style="fill:#ff0000;stroke:#ff0000;" x="336.278019" xlink:href="#m4be9b6ad3b" y="226.525176"/>
     <use style="fill:#ff0000;stroke:#ff0000;" x="337.250038" xlink:href="#m4be9b6ad3b" y="226.525176"/>
     <use style="fill:#ff0000;stroke:#ff0000;" x="338.222058" xlink:href="#m4be9b6ad3b" y="226.525176"/>
     <use style="fill:#ff0000;stroke:#ff0000;" x="339.194077" xlink:href="#m4be9b6ad3b" y="226.525176"/>
     <use style="fill:#ff0000;stroke:#ff0000;" x="340.166097" xlink:href="#m4be9b6ad3b" y="226.525176"/>
     <use style="fill:#ff0000;stroke:#ff0000;" x="341.138116" xlink:href="#m4be9b6ad3b" y="226.525176"/>
     <use style="fill:#ff0000;stroke:#ff0000;" x="342.110136" xlink:href="#m4be9b6ad3b" y="226.525176"/>
     <use style="fill:#ff0000;stroke:#ff0000;" x="343.082156" xlink:href="#m4be9b6ad3b" y="226.525176"/>
     <use style="fill:#ff0000;stroke:#ff0000;" x="344.054175" xlink:href="#m4be9b6ad3b" y="226.525176"/>
     <use style="fill:#ff0000;stroke:#ff0000;" x="345.026195" xlink:href="#m4be9b6ad3b" y="226.525176"/>
     <use style="fill:#ff0000;stroke:#ff0000;" x="345.998214" xlink:href="#m4be9b6ad3b" y="226.525176"/>
     <use style="fill:#ff0000;stroke:#ff0000;" x="346.970234" xlink:href="#m4be9b6ad3b" y="226.525176"/>
     <use style="fill:#ff0000;stroke:#ff0000;" x="347.942254" xlink:href="#m4be9b6ad3b" y="226.525176"/>
     <use style="fill:#ff0000;stroke:#ff0000;" x="348.914273" xlink:href="#m4be9b6ad3b" y="226.525176"/>
     <use style="fill:#ff0000;stroke:#ff0000;" x="349.886293" xlink:href="#m4be9b6ad3b" y="226.525176"/>
     <use style="fill:#ff0000;stroke:#ff0000;" x="350.858312" xlink:href="#m4be9b6ad3b" y="226.525176"/>
     <use style="fill:#ff0000;stroke:#ff0000;" x="351.830332" xlink:href="#m4be9b6ad3b" y="226.525176"/>
     <use style="fill:#ff0000;stroke:#ff0000;" x="352.802352" xlink:href="#m4be9b6ad3b" y="226.525176"/>
     <use style="fill:#ff0000;stroke:#ff0000;" x="353.774371" xlink:href="#m4be9b6ad3b" y="226.525176"/>
     <use style="fill:#ff0000;stroke:#ff0000;" x="354.746391" xlink:href="#m4be9b6ad3b" y="226.525176"/>
     <use style="fill:#ff0000;stroke:#ff0000;" x="355.71841" xlink:href="#m4be9b6ad3b" y="226.525176"/>
     <use style="fill:#ff0000;stroke:#ff0000;" x="356.69043" xlink:href="#m4be9b6ad3b" y="226.525176"/>
     <use style="fill:#ff0000;stroke:#ff0000;" x="357.66245" xlink:href="#m4be9b6ad3b" y="226.525176"/>
     <use style="fill:#ff0000;stroke:#ff0000;" x="358.634469" xlink:href="#m4be9b6ad3b" y="226.525176"/>
     <use style="fill:#ff0000;stroke:#ff0000;" x="359.606489" xlink:href="#m4be9b6ad3b" y="226.525176"/>
     <use style="fill:#ff0000;stroke:#ff0000;" x="360.578508" xlink:href="#m4be9b6ad3b" y="226.525176"/>
     <use style="fill:#ff0000;stroke:#ff0000;" x="361.550528" xlink:href="#m4be9b6ad3b" y="226.525176"/>
     <use style="fill:#ff0000;stroke:#ff0000;" x="362.522548" xlink:href="#m4be9b6ad3b" y="226.525176"/>
     <use style="fill:#ff0000;stroke:#ff0000;" x="363.494567" xlink:href="#m4be9b6ad3b" y="226.525176"/>
     <use style="fill:#ff0000;stroke:#ff0000;" x="364.466587" xlink:href="#m4be9b6ad3b" y="226.525176"/>
     <use style="fill:#ff0000;stroke:#ff0000;" x="365.438606" xlink:href="#m4be9b6ad3b" y="226.525176"/>
     <use style="fill:#ff0000;stroke:#ff0000;" x="366.410626" xlink:href="#m4be9b6ad3b" y="226.525176"/>
     <use style="fill:#ff0000;stroke:#ff0000;" x="367.382646" xlink:href="#m4be9b6ad3b" y="226.525176"/>
     <use style="fill:#ff0000;stroke:#ff0000;" x="368.354665" xlink:href="#m4be9b6ad3b" y="226.525176"/>
     <use style="fill:#ff0000;stroke:#ff0000;" x="369.326685" xlink:href="#m4be9b6ad3b" y="226.525176"/>
     <use style="fill:#ff0000;stroke:#ff0000;" x="370.298704" xlink:href="#m4be9b6ad3b" y="226.525176"/>
     <use style="fill:#ff0000;stroke:#ff0000;" x="371.270724" xlink:href="#m4be9b6ad3b" y="226.525176"/>
     <use style="fill:#ff0000;stroke:#ff0000;" x="372.242744" xlink:href="#m4be9b6ad3b" y="226.525176"/>
     <use style="fill:#ff0000;stroke:#ff0000;" x="373.214763" xlink:href="#m4be9b6ad3b" y="226.525176"/>
     <use style="fill:#ff0000;stroke:#ff0000;" x="374.186783" xlink:href="#m4be9b6ad3b" y="226.525176"/>
     <use style="fill:#ff0000;stroke:#ff0000;" x="375.158802" xlink:href="#m4be9b6ad3b" y="226.525176"/>
     <use style="fill:#ff0000;stroke:#ff0000;" x="376.130822" xlink:href="#m4be9b6ad3b" y="226.525176"/>
     <use style="fill:#ff0000;stroke:#ff0000;" x="377.102842" xlink:href="#m4be9b6ad3b" y="226.525176"/>
     <use style="fill:#ff0000;stroke:#ff0000;" x="378.074861" xlink:href="#m4be9b6ad3b" y="226.525176"/>
     <use style="fill:#ff0000;stroke:#ff0000;" x="379.046881" xlink:href="#m4be9b6ad3b" y="226.525176"/>
     <use style="fill:#ff0000;stroke:#ff0000;" x="380.0189" xlink:href="#m4be9b6ad3b" y="226.525176"/>
     <use style="fill:#ff0000;stroke:#ff0000;" x="380.99092" xlink:href="#m4be9b6ad3b" y="226.525176"/>
     <use style="fill:#ff0000;stroke:#ff0000;" x="381.96294" xlink:href="#m4be9b6ad3b" y="226.525176"/>
     <use style="fill:#ff0000;stroke:#ff0000;" x="382.934959" xlink:href="#m4be9b6ad3b" y="226.525176"/>
     <use style="fill:#ff0000;stroke:#ff0000;" x="383.906979" xlink:href="#m4be9b6ad3b" y="226.525176"/>
     <use style="fill:#ff0000;stroke:#ff0000;" x="384.878998" xlink:href="#m4be9b6ad3b" y="226.525176"/>
     <use style="fill:#ff0000;stroke:#ff0000;" x="385.851018" xlink:href="#m4be9b6ad3b" y="226.525176"/>
     <use style="fill:#ff0000;stroke:#ff0000;" x="386.823038" xlink:href="#m4be9b6ad3b" y="226.525176"/>
     <use style="fill:#ff0000;stroke:#ff0000;" x="387.795057" xlink:href="#m4be9b6ad3b" y="226.525176"/>
     <use style="fill:#ff0000;stroke:#ff0000;" x="388.767077" xlink:href="#m4be9b6ad3b" y="226.525176"/>
     <use style="fill:#ff0000;stroke:#ff0000;" x="389.739096" xlink:href="#m4be9b6ad3b" y="226.525176"/>
     <use style="fill:#ff0000;stroke:#ff0000;" x="390.711116" xlink:href="#m4be9b6ad3b" y="226.525176"/>
     <use style="fill:#ff0000;stroke:#ff0000;" x="391.683136" xlink:href="#m4be9b6ad3b" y="226.525176"/>
     <use style="fill:#ff0000;stroke:#ff0000;" x="392.655155" xlink:href="#m4be9b6ad3b" y="226.525176"/>
     <use style="fill:#ff0000;stroke:#ff0000;" x="393.627175" xlink:href="#m4be9b6ad3b" y="226.525176"/>
     <use style="fill:#ff0000;stroke:#ff0000;" x="394.599194" xlink:href="#m4be9b6ad3b" y="226.525176"/>
     <use style="fill:#ff0000;stroke:#ff0000;" x="395.571214" xlink:href="#m4be9b6ad3b" y="226.525176"/>
     <use style="fill:#ff0000;stroke:#ff0000;" x="396.543234" xlink:href="#m4be9b6ad3b" y="226.525176"/>
     <use style="fill:#ff0000;stroke:#ff0000;" x="397.515253" xlink:href="#m4be9b6ad3b" y="226.525176"/>
     <use style="fill:#ff0000;stroke:#ff0000;" x="398.487273" xlink:href="#m4be9b6ad3b" y="226.525176"/>
    </g>
   </g>
   <g id="patch_3">
    <path d="M 57.6 307.584 
L 57.6 41.472 
" style="fill:none;stroke:#000000;stroke-linecap:square;stroke-linejoin:miter;stroke-width:0.8;"/>
   </g>
   <g id="patch_4">
    <path d="M 414.72 307.584 
L 414.72 41.472 
" style="fill:none;stroke:#000000;stroke-linecap:square;stroke-linejoin:miter;stroke-width:0.8;"/>
   </g>
   <g id="patch_5">
    <path d="M 57.6 307.584 
L 414.72 307.584 
" style="fill:none;stroke:#000000;stroke-linecap:square;stroke-linejoin:miter;stroke-width:0.8;"/>
   </g>
   <g id="patch_6">
    <path d="M 57.6 41.472 
L 414.72 41.472 
" style="fill:none;stroke:#000000;stroke-linecap:square;stroke-linejoin:miter;stroke-width:0.8;"/>
   </g>
  </g>
 </g>
 <defs>
  <clipPath id="p76931cce7e">
   <rect height="266.112" width="357.12" x="57.6" y="41.472"/>
  </clipPath>
 </defs>
</svg>
