<?xml version="1.0" encoding="utf-8" standalone="no"?>
<!DOCTYPE svg PUBLIC "-//W3C//DTD SVG 1.1//EN"
  "http://www.w3.org/Graphics/SVG/1.1/DTD/svg11.dtd">
<!-- Created with matplotlib (https://matplotlib.org/) -->
<svg height="345.6pt" version="1.1" viewBox="0 0 460.8 345.6" width="460.8pt" xmlns="http://www.w3.org/2000/svg" xmlns:xlink="http://www.w3.org/1999/xlink">
 <defs>
  <style type="text/css">
*{stroke-linecap:butt;stroke-linejoin:round;}
  </style>
 </defs>
 <g id="figure_1">
  <g id="patch_1">
   <path d="M 0 345.6 
L 460.8 345.6 
L 460.8 0 
L 0 0 
z
" style="fill:#ffffff;"/>
  </g>
  <g id="axes_1">
   <g id="patch_2">
    <path d="M 57.6 307.584 
L 414.72 307.584 
L 414.72 41.472 
L 57.6 41.472 
z
" style="fill:#ffffff;"/>
   </g>
   <g id="line2d_1">
    <path clip-path="url(#pa04782de71)" d="M 73.832727 108.104095 
L 77.304968 108.104095 
L 79.041089 77.57487 
L 80.77721 77.57487 
L 82.51333 79.746091 
L 84.249451 79.746091 
L 85.985571 82.388693 
L 89.457812 82.388693 
L 91.193933 114.887958 
L 92.930053 83.747624 
L 96.402295 83.747624 
L 98.138415 53.568 
L 101.610656 53.568 
L 105.082897 121.678537 
L 106.819018 121.678537 
L 108.555139 154.586408 
L 110.291259 154.586408 
L 112.02738 165.14041 
L 115.499621 165.14041 
L 117.235741 166.805342 
L 118.971862 166.805342 
L 120.707982 177.964681 
L 122.444103 177.964681 
L 124.180224 178.783779 
L 127.652465 178.783779 
L 129.388585 176.407902 
L 131.124706 176.407902 
L 132.860826 187.848767 
L 134.596947 176.764786 
L 136.333068 176.764786 
L 138.069188 186.543615 
L 141.541429 186.543615 
L 143.27755 184.936518 
L 145.01367 184.936518 
L 146.749791 195.775606 
L 148.485912 195.775606 
L 150.222032 196.798069 
L 151.958153 196.798069 
L 153.694273 197.861789 
L 157.166514 197.861789 
L 158.902635 187.212595 
L 160.638755 187.212595 
L 162.374876 184.848881 
L 164.110997 184.848881 
L 165.847117 193.957712 
L 167.583238 193.957712 
L 169.319358 181.879012 
L 171.055479 171.814141 
L 172.791599 171.814141 
L 174.52772 169.381322 
L 176.263841 169.381322 
L 177.999961 158.253551 
L 181.472202 158.253551 
L 183.208323 148.00757 
L 184.944443 148.00757 
L 186.680564 158.68727 
L 193.625046 158.743332 
L 195.361167 147.864556 
L 198.833408 147.864556 
L 200.569528 145.526563 
L 202.305649 145.526563 
L 204.04177 134.586544 
L 205.77789 146.206521 
L 207.514011 146.206521 
L 209.250131 156.275241 
L 210.986252 156.275241 
L 212.722372 166.506101 
L 219.666855 166.506101 
L 221.402975 176.518296 
L 223.139096 176.518296 
L 224.875216 178.885977 
L 226.611337 178.885977 
L 228.347457 179.191157 
L 233.555819 179.191157 
L 235.29194 189.332352 
L 237.02806 189.332352 
L 238.764181 199.889707 
L 242.236422 199.889707 
L 243.972543 202.502977 
L 245.708663 202.502977 
L 247.444784 211.947539 
L 249.180904 211.947539 
L 250.917025 212.80545 
L 252.653145 212.80545 
L 254.389266 224.469816 
L 256.125386 224.469816 
L 257.861507 212.985666 
L 259.597628 212.985666 
L 261.333748 202.25062 
L 263.069869 211.880376 
L 266.54211 211.880376 
L 268.27823 222.297774 
L 283.903316 222.297774 
L 285.639436 231.5353 
L 287.375557 231.5353 
L 290.847798 250.058293 
L 292.583918 250.058293 
L 294.320039 260.979051 
L 296.056159 260.979051 
L 297.79228 271.28588 
L 303.000642 271.28588 
L 304.736762 260.191247 
L 306.472883 260.191247 
L 308.209003 269.096826 
L 309.945124 269.096826 
L 311.681245 257.23236 
L 313.417365 257.23236 
L 315.153486 245.731273 
L 318.625727 245.731273 
L 320.361847 254.626254 
L 322.097968 265.200819 
L 323.834088 265.200819 
L 325.570209 275.65217 
L 327.30633 275.65217 
L 329.04245 285.820695 
L 330.778571 285.820695 
L 332.514691 295.488 
L 334.250812 295.488 
L 335.986932 283.515917 
L 337.723053 283.515917 
L 339.459174 272.085675 
L 341.195294 281.566784 
L 342.931415 281.566784 
L 344.667535 269.431262 
L 346.403656 269.431262 
L 348.139776 280.780763 
L 349.875897 280.780763 
L 351.612018 268.594484 
L 353.348138 268.594484 
L 355.084259 278.469604 
L 356.820379 266.778085 
L 358.5565 266.778085 
L 360.29262 255.868231 
L 363.764861 255.868231 
L 365.500982 264.903494 
L 367.237103 264.903494 
L 368.973223 260.939352 
L 370.709344 261.727828 
L 374.181585 261.727828 
L 375.917705 251.072298 
L 379.389947 251.072298 
L 381.126067 259.873609 
L 382.862188 248.929277 
L 388.070549 248.929277 
L 389.80667 236.287087 
L 391.54279 236.287087 
L 393.278911 226.525176 
L 398.487273 226.525176 
L 398.487273 226.525176 
" style="fill:none;stroke:#ff0000;stroke-linecap:square;stroke-width:12;"/>
    <defs>
     <path d="M 0 3 
C 0.795609 3 1.55874 2.683901 2.12132 2.12132 
C 2.683901 1.55874 3 0.795609 3 0 
C 3 -0.795609 2.683901 -1.55874 2.12132 -2.12132 
C 1.55874 -2.683901 0.795609 -3 0 -3 
C -0.795609 -3 -1.55874 -2.683901 -2.12132 -2.12132 
C -2.683901 -1.55874 -3 -0.795609 -3 0 
C -3 0.795609 -2.683901 1.55874 -2.12132 2.12132 
C -1.55874 2.683901 -0.795609 3 0 3 
z
" id="m0136b8ad29" style="stroke:#ff0000;"/>
    </defs>
    <g clip-path="url(#pa04782de71)">
     <use style="fill:#ff0000;stroke:#ff0000;" x="73.832727" xlink:href="#m0136b8ad29" y="108.104095"/>
     <use style="fill:#ff0000;stroke:#ff0000;" x="75.568848" xlink:href="#m0136b8ad29" y="108.104095"/>
     <use style="fill:#ff0000;stroke:#ff0000;" x="77.304968" xlink:href="#m0136b8ad29" y="108.104095"/>
     <use style="fill:#ff0000;stroke:#ff0000;" x="79.041089" xlink:href="#m0136b8ad29" y="77.57487"/>
     <use style="fill:#ff0000;stroke:#ff0000;" x="80.77721" xlink:href="#m0136b8ad29" y="77.57487"/>
     <use style="fill:#ff0000;stroke:#ff0000;" x="82.51333" xlink:href="#m0136b8ad29" y="79.746091"/>
     <use style="fill:#ff0000;stroke:#ff0000;" x="84.249451" xlink:href="#m0136b8ad29" y="79.746091"/>
     <use style="fill:#ff0000;stroke:#ff0000;" x="85.985571" xlink:href="#m0136b8ad29" y="82.388693"/>
     <use style="fill:#ff0000;stroke:#ff0000;" x="87.721692" xlink:href="#m0136b8ad29" y="82.388693"/>
     <use style="fill:#ff0000;stroke:#ff0000;" x="89.457812" xlink:href="#m0136b8ad29" y="82.388693"/>
     <use style="fill:#ff0000;stroke:#ff0000;" x="91.193933" xlink:href="#m0136b8ad29" y="114.887958"/>
     <use style="fill:#ff0000;stroke:#ff0000;" x="92.930053" xlink:href="#m0136b8ad29" y="83.747624"/>
     <use style="fill:#ff0000;stroke:#ff0000;" x="94.666174" xlink:href="#m0136b8ad29" y="83.747624"/>
     <use style="fill:#ff0000;stroke:#ff0000;" x="96.402295" xlink:href="#m0136b8ad29" y="83.747624"/>
     <use style="fill:#ff0000;stroke:#ff0000;" x="98.138415" xlink:href="#m0136b8ad29" y="53.568"/>
     <use style="fill:#ff0000;stroke:#ff0000;" x="99.874536" xlink:href="#m0136b8ad29" y="53.568"/>
     <use style="fill:#ff0000;stroke:#ff0000;" x="101.610656" xlink:href="#m0136b8ad29" y="53.568"/>
     <use style="fill:#ff0000;stroke:#ff0000;" x="103.346777" xlink:href="#m0136b8ad29" y="88.508798"/>
     <use style="fill:#ff0000;stroke:#ff0000;" x="105.082897" xlink:href="#m0136b8ad29" y="121.678537"/>
     <use style="fill:#ff0000;stroke:#ff0000;" x="106.819018" xlink:href="#m0136b8ad29" y="121.678537"/>
     <use style="fill:#ff0000;stroke:#ff0000;" x="108.555139" xlink:href="#m0136b8ad29" y="154.586408"/>
     <use style="fill:#ff0000;stroke:#ff0000;" x="110.291259" xlink:href="#m0136b8ad29" y="154.586408"/>
     <use style="fill:#ff0000;stroke:#ff0000;" x="112.02738" xlink:href="#m0136b8ad29" y="165.14041"/>
     <use style="fill:#ff0000;stroke:#ff0000;" x="113.7635" xlink:href="#m0136b8ad29" y="165.14041"/>
     <use style="fill:#ff0000;stroke:#ff0000;" x="115.499621" xlink:href="#m0136b8ad29" y="165.14041"/>
     <use style="fill:#ff0000;stroke:#ff0000;" x="117.235741" xlink:href="#m0136b8ad29" y="166.805342"/>
     <use style="fill:#ff0000;stroke:#ff0000;" x="118.971862" xlink:href="#m0136b8ad29" y="166.805342"/>
     <use style="fill:#ff0000;stroke:#ff0000;" x="120.707982" xlink:href="#m0136b8ad29" y="177.964681"/>
     <use style="fill:#ff0000;stroke:#ff0000;" x="122.444103" xlink:href="#m0136b8ad29" y="177.964681"/>
     <use style="fill:#ff0000;stroke:#ff0000;" x="124.180224" xlink:href="#m0136b8ad29" y="178.783779"/>
     <use style="fill:#ff0000;stroke:#ff0000;" x="125.916344" xlink:href="#m0136b8ad29" y="178.783779"/>
     <use style="fill:#ff0000;stroke:#ff0000;" x="127.652465" xlink:href="#m0136b8ad29" y="178.783779"/>
     <use style="fill:#ff0000;stroke:#ff0000;" x="129.388585" xlink:href="#m0136b8ad29" y="176.407902"/>
     <use style="fill:#ff0000;stroke:#ff0000;" x="131.124706" xlink:href="#m0136b8ad29" y="176.407902"/>
     <use style="fill:#ff0000;stroke:#ff0000;" x="132.860826" xlink:href="#m0136b8ad29" y="187.848767"/>
     <use style="fill:#ff0000;stroke:#ff0000;" x="134.596947" xlink:href="#m0136b8ad29" y="176.764786"/>
     <use style="fill:#ff0000;stroke:#ff0000;" x="136.333068" xlink:href="#m0136b8ad29" y="176.764786"/>
     <use style="fill:#ff0000;stroke:#ff0000;" x="138.069188" xlink:href="#m0136b8ad29" y="186.543615"/>
     <use style="fill:#ff0000;stroke:#ff0000;" x="139.805309" xlink:href="#m0136b8ad29" y="186.543615"/>
     <use style="fill:#ff0000;stroke:#ff0000;" x="141.541429" xlink:href="#m0136b8ad29" y="186.543615"/>
     <use style="fill:#ff0000;stroke:#ff0000;" x="143.27755" xlink:href="#m0136b8ad29" y="184.936518"/>
     <use style="fill:#ff0000;stroke:#ff0000;" x="145.01367" xlink:href="#m0136b8ad29" y="184.936518"/>
     <use style="fill:#ff0000;stroke:#ff0000;" x="146.749791" xlink:href="#m0136b8ad29" y="195.775606"/>
     <use style="fill:#ff0000;stroke:#ff0000;" x="148.485912" xlink:href="#m0136b8ad29" y="195.775606"/>
     <use style="fill:#ff0000;stroke:#ff0000;" x="150.222032" xlink:href="#m0136b8ad29" y="196.798069"/>
     <use style="fill:#ff0000;stroke:#ff0000;" x="151.958153" xlink:href="#m0136b8ad29" y="196.798069"/>
     <use style="fill:#ff0000;stroke:#ff0000;" x="153.694273" xlink:href="#m0136b8ad29" y="197.861789"/>
     <use style="fill:#ff0000;stroke:#ff0000;" x="155.430394" xlink:href="#m0136b8ad29" y="197.861789"/>
     <use style="fill:#ff0000;stroke:#ff0000;" x="157.166514" xlink:href="#m0136b8ad29" y="197.861789"/>
     <use style="fill:#ff0000;stroke:#ff0000;" x="158.902635" xlink:href="#m0136b8ad29" y="187.212595"/>
     <use style="fill:#ff0000;stroke:#ff0000;" x="160.638755" xlink:href="#m0136b8ad29" y="187.212595"/>
     <use style="fill:#ff0000;stroke:#ff0000;" x="162.374876" xlink:href="#m0136b8ad29" y="184.848881"/>
     <use style="fill:#ff0000;stroke:#ff0000;" x="164.110997" xlink:href="#m0136b8ad29" y="184.848881"/>
     <use style="fill:#ff0000;stroke:#ff0000;" x="165.847117" xlink:href="#m0136b8ad29" y="193.957712"/>
     <use style="fill:#ff0000;stroke:#ff0000;" x="167.583238" xlink:href="#m0136b8ad29" y="193.957712"/>
     <use style="fill:#ff0000;stroke:#ff0000;" x="169.319358" xlink:href="#m0136b8ad29" y="181.879012"/>
     <use style="fill:#ff0000;stroke:#ff0000;" x="171.055479" xlink:href="#m0136b8ad29" y="171.814141"/>
     <use style="fill:#ff0000;stroke:#ff0000;" x="172.791599" xlink:href="#m0136b8ad29" y="171.814141"/>
     <use style="fill:#ff0000;stroke:#ff0000;" x="174.52772" xlink:href="#m0136b8ad29" y="169.381322"/>
     <use style="fill:#ff0000;stroke:#ff0000;" x="176.263841" xlink:href="#m0136b8ad29" y="169.381322"/>
     <use style="fill:#ff0000;stroke:#ff0000;" x="177.999961" xlink:href="#m0136b8ad29" y="158.253551"/>
     <use style="fill:#ff0000;stroke:#ff0000;" x="179.736082" xlink:href="#m0136b8ad29" y="158.253551"/>
     <use style="fill:#ff0000;stroke:#ff0000;" x="181.472202" xlink:href="#m0136b8ad29" y="158.253551"/>
     <use style="fill:#ff0000;stroke:#ff0000;" x="183.208323" xlink:href="#m0136b8ad29" y="148.00757"/>
     <use style="fill:#ff0000;stroke:#ff0000;" x="184.944443" xlink:href="#m0136b8ad29" y="148.00757"/>
     <use style="fill:#ff0000;stroke:#ff0000;" x="186.680564" xlink:href="#m0136b8ad29" y="158.68727"/>
     <use style="fill:#ff0000;stroke:#ff0000;" x="188.416684" xlink:href="#m0136b8ad29" y="158.68727"/>
     <use style="fill:#ff0000;stroke:#ff0000;" x="190.152805" xlink:href="#m0136b8ad29" y="158.743332"/>
     <use style="fill:#ff0000;stroke:#ff0000;" x="191.888926" xlink:href="#m0136b8ad29" y="158.743332"/>
     <use style="fill:#ff0000;stroke:#ff0000;" x="193.625046" xlink:href="#m0136b8ad29" y="158.743332"/>
     <use style="fill:#ff0000;stroke:#ff0000;" x="195.361167" xlink:href="#m0136b8ad29" y="147.864556"/>
     <use style="fill:#ff0000;stroke:#ff0000;" x="197.097287" xlink:href="#m0136b8ad29" y="147.864556"/>
     <use style="fill:#ff0000;stroke:#ff0000;" x="198.833408" xlink:href="#m0136b8ad29" y="147.864556"/>
     <use style="fill:#ff0000;stroke:#ff0000;" x="200.569528" xlink:href="#m0136b8ad29" y="145.526563"/>
     <use style="fill:#ff0000;stroke:#ff0000;" x="202.305649" xlink:href="#m0136b8ad29" y="145.526563"/>
     <use style="fill:#ff0000;stroke:#ff0000;" x="204.04177" xlink:href="#m0136b8ad29" y="134.586544"/>
     <use style="fill:#ff0000;stroke:#ff0000;" x="205.77789" xlink:href="#m0136b8ad29" y="146.206521"/>
     <use style="fill:#ff0000;stroke:#ff0000;" x="207.514011" xlink:href="#m0136b8ad29" y="146.206521"/>
     <use style="fill:#ff0000;stroke:#ff0000;" x="209.250131" xlink:href="#m0136b8ad29" y="156.275241"/>
     <use style="fill:#ff0000;stroke:#ff0000;" x="210.986252" xlink:href="#m0136b8ad29" y="156.275241"/>
     <use style="fill:#ff0000;stroke:#ff0000;" x="212.722372" xlink:href="#m0136b8ad29" y="166.506101"/>
     <use style="fill:#ff0000;stroke:#ff0000;" x="214.458493" xlink:href="#m0136b8ad29" y="166.506101"/>
     <use style="fill:#ff0000;stroke:#ff0000;" x="216.194614" xlink:href="#m0136b8ad29" y="166.506101"/>
     <use style="fill:#ff0000;stroke:#ff0000;" x="217.930734" xlink:href="#m0136b8ad29" y="166.506101"/>
     <use style="fill:#ff0000;stroke:#ff0000;" x="219.666855" xlink:href="#m0136b8ad29" y="166.506101"/>
     <use style="fill:#ff0000;stroke:#ff0000;" x="221.402975" xlink:href="#m0136b8ad29" y="176.518296"/>
     <use style="fill:#ff0000;stroke:#ff0000;" x="223.139096" xlink:href="#m0136b8ad29" y="176.518296"/>
     <use style="fill:#ff0000;stroke:#ff0000;" x="224.875216" xlink:href="#m0136b8ad29" y="178.885977"/>
     <use style="fill:#ff0000;stroke:#ff0000;" x="226.611337" xlink:href="#m0136b8ad29" y="178.885977"/>
     <use style="fill:#ff0000;stroke:#ff0000;" x="228.347457" xlink:href="#m0136b8ad29" y="179.191157"/>
     <use style="fill:#ff0000;stroke:#ff0000;" x="230.083578" xlink:href="#m0136b8ad29" y="179.191157"/>
     <use style="fill:#ff0000;stroke:#ff0000;" x="231.819699" xlink:href="#m0136b8ad29" y="179.191157"/>
     <use style="fill:#ff0000;stroke:#ff0000;" x="233.555819" xlink:href="#m0136b8ad29" y="179.191157"/>
     <use style="fill:#ff0000;stroke:#ff0000;" x="235.29194" xlink:href="#m0136b8ad29" y="189.332352"/>
     <use style="fill:#ff0000;stroke:#ff0000;" x="237.02806" xlink:href="#m0136b8ad29" y="189.332352"/>
     <use style="fill:#ff0000;stroke:#ff0000;" x="238.764181" xlink:href="#m0136b8ad29" y="199.889707"/>
     <use style="fill:#ff0000;stroke:#ff0000;" x="240.500301" xlink:href="#m0136b8ad29" y="199.889707"/>
     <use style="fill:#ff0000;stroke:#ff0000;" x="242.236422" xlink:href="#m0136b8ad29" y="199.889707"/>
     <use style="fill:#ff0000;stroke:#ff0000;" x="243.972543" xlink:href="#m0136b8ad29" y="202.502977"/>
     <use style="fill:#ff0000;stroke:#ff0000;" x="245.708663" xlink:href="#m0136b8ad29" y="202.502977"/>
     <use style="fill:#ff0000;stroke:#ff0000;" x="247.444784" xlink:href="#m0136b8ad29" y="211.947539"/>
     <use style="fill:#ff0000;stroke:#ff0000;" x="249.180904" xlink:href="#m0136b8ad29" y="211.947539"/>
     <use style="fill:#ff0000;stroke:#ff0000;" x="250.917025" xlink:href="#m0136b8ad29" y="212.80545"/>
     <use style="fill:#ff0000;stroke:#ff0000;" x="252.653145" xlink:href="#m0136b8ad29" y="212.80545"/>
     <use style="fill:#ff0000;stroke:#ff0000;" x="254.389266" xlink:href="#m0136b8ad29" y="224.469816"/>
     <use style="fill:#ff0000;stroke:#ff0000;" x="256.125386" xlink:href="#m0136b8ad29" y="224.469816"/>
     <use style="fill:#ff0000;stroke:#ff0000;" x="257.861507" xlink:href="#m0136b8ad29" y="212.985666"/>
     <use style="fill:#ff0000;stroke:#ff0000;" x="259.597628" xlink:href="#m0136b8ad29" y="212.985666"/>
     <use style="fill:#ff0000;stroke:#ff0000;" x="261.333748" xlink:href="#m0136b8ad29" y="202.25062"/>
     <use style="fill:#ff0000;stroke:#ff0000;" x="263.069869" xlink:href="#m0136b8ad29" y="211.880376"/>
     <use style="fill:#ff0000;stroke:#ff0000;" x="264.805989" xlink:href="#m0136b8ad29" y="211.880376"/>
     <use style="fill:#ff0000;stroke:#ff0000;" x="266.54211" xlink:href="#m0136b8ad29" y="211.880376"/>
     <use style="fill:#ff0000;stroke:#ff0000;" x="268.27823" xlink:href="#m0136b8ad29" y="222.297774"/>
     <use style="fill:#ff0000;stroke:#ff0000;" x="270.014351" xlink:href="#m0136b8ad29" y="222.297774"/>
     <use style="fill:#ff0000;stroke:#ff0000;" x="271.750472" xlink:href="#m0136b8ad29" y="222.297774"/>
     <use style="fill:#ff0000;stroke:#ff0000;" x="273.486592" xlink:href="#m0136b8ad29" y="222.297774"/>
     <use style="fill:#ff0000;stroke:#ff0000;" x="275.222713" xlink:href="#m0136b8ad29" y="222.297774"/>
     <use style="fill:#ff0000;stroke:#ff0000;" x="276.958833" xlink:href="#m0136b8ad29" y="222.297774"/>
     <use style="fill:#ff0000;stroke:#ff0000;" x="278.694954" xlink:href="#m0136b8ad29" y="222.297774"/>
     <use style="fill:#ff0000;stroke:#ff0000;" x="280.431074" xlink:href="#m0136b8ad29" y="222.297774"/>
     <use style="fill:#ff0000;stroke:#ff0000;" x="282.167195" xlink:href="#m0136b8ad29" y="222.297774"/>
     <use style="fill:#ff0000;stroke:#ff0000;" x="283.903316" xlink:href="#m0136b8ad29" y="222.297774"/>
     <use style="fill:#ff0000;stroke:#ff0000;" x="285.639436" xlink:href="#m0136b8ad29" y="231.5353"/>
     <use style="fill:#ff0000;stroke:#ff0000;" x="287.375557" xlink:href="#m0136b8ad29" y="231.5353"/>
     <use style="fill:#ff0000;stroke:#ff0000;" x="289.111677" xlink:href="#m0136b8ad29" y="240.705812"/>
     <use style="fill:#ff0000;stroke:#ff0000;" x="290.847798" xlink:href="#m0136b8ad29" y="250.058293"/>
     <use style="fill:#ff0000;stroke:#ff0000;" x="292.583918" xlink:href="#m0136b8ad29" y="250.058293"/>
     <use style="fill:#ff0000;stroke:#ff0000;" x="294.320039" xlink:href="#m0136b8ad29" y="260.979051"/>
     <use style="fill:#ff0000;stroke:#ff0000;" x="296.056159" xlink:href="#m0136b8ad29" y="260.979051"/>
     <use style="fill:#ff0000;stroke:#ff0000;" x="297.79228" xlink:href="#m0136b8ad29" y="271.28588"/>
     <use style="fill:#ff0000;stroke:#ff0000;" x="299.528401" xlink:href="#m0136b8ad29" y="271.28588"/>
     <use style="fill:#ff0000;stroke:#ff0000;" x="301.264521" xlink:href="#m0136b8ad29" y="271.28588"/>
     <use style="fill:#ff0000;stroke:#ff0000;" x="303.000642" xlink:href="#m0136b8ad29" y="271.28588"/>
     <use style="fill:#ff0000;stroke:#ff0000;" x="304.736762" xlink:href="#m0136b8ad29" y="260.191247"/>
     <use style="fill:#ff0000;stroke:#ff0000;" x="306.472883" xlink:href="#m0136b8ad29" y="260.191247"/>
     <use style="fill:#ff0000;stroke:#ff0000;" x="308.209003" xlink:href="#m0136b8ad29" y="269.096826"/>
     <use style="fill:#ff0000;stroke:#ff0000;" x="309.945124" xlink:href="#m0136b8ad29" y="269.096826"/>
     <use style="fill:#ff0000;stroke:#ff0000;" x="311.681245" xlink:href="#m0136b8ad29" y="257.23236"/>
     <use style="fill:#ff0000;stroke:#ff0000;" x="313.417365" xlink:href="#m0136b8ad29" y="257.23236"/>
     <use style="fill:#ff0000;stroke:#ff0000;" x="315.153486" xlink:href="#m0136b8ad29" y="245.731273"/>
     <use style="fill:#ff0000;stroke:#ff0000;" x="316.889606" xlink:href="#m0136b8ad29" y="245.731273"/>
     <use style="fill:#ff0000;stroke:#ff0000;" x="318.625727" xlink:href="#m0136b8ad29" y="245.731273"/>
     <use style="fill:#ff0000;stroke:#ff0000;" x="320.361847" xlink:href="#m0136b8ad29" y="254.626254"/>
     <use style="fill:#ff0000;stroke:#ff0000;" x="322.097968" xlink:href="#m0136b8ad29" y="265.200819"/>
     <use style="fill:#ff0000;stroke:#ff0000;" x="323.834088" xlink:href="#m0136b8ad29" y="265.200819"/>
     <use style="fill:#ff0000;stroke:#ff0000;" x="325.570209" xlink:href="#m0136b8ad29" y="275.65217"/>
     <use style="fill:#ff0000;stroke:#ff0000;" x="327.30633" xlink:href="#m0136b8ad29" y="275.65217"/>
     <use style="fill:#ff0000;stroke:#ff0000;" x="329.04245" xlink:href="#m0136b8ad29" y="285.820695"/>
     <use style="fill:#ff0000;stroke:#ff0000;" x="330.778571" xlink:href="#m0136b8ad29" y="285.820695"/>
     <use style="fill:#ff0000;stroke:#ff0000;" x="332.514691" xlink:href="#m0136b8ad29" y="295.488"/>
     <use style="fill:#ff0000;stroke:#ff0000;" x="334.250812" xlink:href="#m0136b8ad29" y="295.488"/>
     <use style="fill:#ff0000;stroke:#ff0000;" x="335.986932" xlink:href="#m0136b8ad29" y="283.515917"/>
     <use style="fill:#ff0000;stroke:#ff0000;" x="337.723053" xlink:href="#m0136b8ad29" y="283.515917"/>
     <use style="fill:#ff0000;stroke:#ff0000;" x="339.459174" xlink:href="#m0136b8ad29" y="272.085675"/>
     <use style="fill:#ff0000;stroke:#ff0000;" x="341.195294" xlink:href="#m0136b8ad29" y="281.566784"/>
     <use style="fill:#ff0000;stroke:#ff0000;" x="342.931415" xlink:href="#m0136b8ad29" y="281.566784"/>
     <use style="fill:#ff0000;stroke:#ff0000;" x="344.667535" xlink:href="#m0136b8ad29" y="269.431262"/>
     <use style="fill:#ff0000;stroke:#ff0000;" x="346.403656" xlink:href="#m0136b8ad29" y="269.431262"/>
     <use style="fill:#ff0000;stroke:#ff0000;" x="348.139776" xlink:href="#m0136b8ad29" y="280.780763"/>
     <use style="fill:#ff0000;stroke:#ff0000;" x="349.875897" xlink:href="#m0136b8ad29" y="280.780763"/>
     <use style="fill:#ff0000;stroke:#ff0000;" x="351.612018" xlink:href="#m0136b8ad29" y="268.594484"/>
     <use style="fill:#ff0000;stroke:#ff0000;" x="353.348138" xlink:href="#m0136b8ad29" y="268.594484"/>
     <use style="fill:#ff0000;stroke:#ff0000;" x="355.084259" xlink:href="#m0136b8ad29" y="278.469604"/>
     <use style="fill:#ff0000;stroke:#ff0000;" x="356.820379" xlink:href="#m0136b8ad29" y="266.778085"/>
     <use style="fill:#ff0000;stroke:#ff0000;" x="358.5565" xlink:href="#m0136b8ad29" y="266.778085"/>
     <use style="fill:#ff0000;stroke:#ff0000;" x="360.29262" xlink:href="#m0136b8ad29" y="255.868231"/>
     <use style="fill:#ff0000;stroke:#ff0000;" x="362.028741" xlink:href="#m0136b8ad29" y="255.868231"/>
     <use style="fill:#ff0000;stroke:#ff0000;" x="363.764861" xlink:href="#m0136b8ad29" y="255.868231"/>
     <use style="fill:#ff0000;stroke:#ff0000;" x="365.500982" xlink:href="#m0136b8ad29" y="264.903494"/>
     <use style="fill:#ff0000;stroke:#ff0000;" x="367.237103" xlink:href="#m0136b8ad29" y="264.903494"/>
     <use style="fill:#ff0000;stroke:#ff0000;" x="368.973223" xlink:href="#m0136b8ad29" y="260.939352"/>
     <use style="fill:#ff0000;stroke:#ff0000;" x="370.709344" xlink:href="#m0136b8ad29" y="261.727828"/>
     <use style="fill:#ff0000;stroke:#ff0000;" x="372.445464" xlink:href="#m0136b8ad29" y="261.727828"/>
     <use style="fill:#ff0000;stroke:#ff0000;" x="374.181585" xlink:href="#m0136b8ad29" y="261.727828"/>
     <use style="fill:#ff0000;stroke:#ff0000;" x="375.917705" xlink:href="#m0136b8ad29" y="251.072298"/>
     <use style="fill:#ff0000;stroke:#ff0000;" x="377.653826" xlink:href="#m0136b8ad29" y="251.072298"/>
     <use style="fill:#ff0000;stroke:#ff0000;" x="379.389947" xlink:href="#m0136b8ad29" y="251.072298"/>
     <use style="fill:#ff0000;stroke:#ff0000;" x="381.126067" xlink:href="#m0136b8ad29" y="259.873609"/>
     <use style="fill:#ff0000;stroke:#ff0000;" x="382.862188" xlink:href="#m0136b8ad29" y="248.929277"/>
     <use style="fill:#ff0000;stroke:#ff0000;" x="384.598308" xlink:href="#m0136b8ad29" y="248.929277"/>
     <use style="fill:#ff0000;stroke:#ff0000;" x="386.334429" xlink:href="#m0136b8ad29" y="248.929277"/>
     <use style="fill:#ff0000;stroke:#ff0000;" x="388.070549" xlink:href="#m0136b8ad29" y="248.929277"/>
     <use style="fill:#ff0000;stroke:#ff0000;" x="389.80667" xlink:href="#m0136b8ad29" y="236.287087"/>
     <use style="fill:#ff0000;stroke:#ff0000;" x="391.54279" xlink:href="#m0136b8ad29" y="236.287087"/>
     <use style="fill:#ff0000;stroke:#ff0000;" x="393.278911" xlink:href="#m0136b8ad29" y="226.525176"/>
     <use style="fill:#ff0000;stroke:#ff0000;" x="395.015032" xlink:href="#m0136b8ad29" y="226.525176"/>
     <use style="fill:#ff0000;stroke:#ff0000;" x="396.751152" xlink:href="#m0136b8ad29" y="226.525176"/>
     <use style="fill:#ff0000;stroke:#ff0000;" x="398.487273" xlink:href="#m0136b8ad29" y="226.525176"/>
    </g>
   </g>
   <g id="patch_3">
    <path d="M 57.6 307.584 
L 57.6 41.472 
" style="fill:none;stroke:#000000;stroke-linecap:square;stroke-linejoin:miter;stroke-width:0.8;"/>
   </g>
   <g id="patch_4">
    <path d="M 414.72 307.584 
L 414.72 41.472 
" style="fill:none;stroke:#000000;stroke-linecap:square;stroke-linejoin:miter;stroke-width:0.8;"/>
   </g>
   <g id="patch_5">
    <path d="M 57.6 307.584 
L 414.72 307.584 
" style="fill:none;stroke:#000000;stroke-linecap:square;stroke-linejoin:miter;stroke-width:0.8;"/>
   </g>
   <g id="patch_6">
    <path d="M 57.6 41.472 
L 414.72 41.472 
" style="fill:none;stroke:#000000;stroke-linecap:square;stroke-linejoin:miter;stroke-width:0.8;"/>
   </g>
  </g>
 </g>
 <defs>
  <clipPath id="pa04782de71">
   <rect height="266.112" width="357.12" x="57.6" y="41.472"/>
  </clipPath>
 </defs>
</svg>
