<?xml version="1.0" encoding="utf-8" standalone="no"?>
<!DOCTYPE svg PUBLIC "-//W3C//DTD SVG 1.1//EN"
  "http://www.w3.org/Graphics/SVG/1.1/DTD/svg11.dtd">
<!-- Created with matplotlib (https://matplotlib.org/) -->
<svg height="345.6pt" version="1.1" viewBox="0 0 460.8 345.6" width="460.8pt" xmlns="http://www.w3.org/2000/svg" xmlns:xlink="http://www.w3.org/1999/xlink">
 <defs>
  <style type="text/css">
*{stroke-linecap:butt;stroke-linejoin:round;}
  </style>
 </defs>
 <g id="figure_1">
  <g id="patch_1">
   <path d="M 0 345.6 
L 460.8 345.6 
L 460.8 0 
L 0 0 
z
" style="fill:#ffffff;"/>
  </g>
  <g id="axes_1">
   <g id="patch_2">
    <path d="M 57.6 307.584 
L 414.72 307.584 
L 414.72 41.472 
L 57.6 41.472 
z
" style="fill:#ffffff;"/>
   </g>
   <g id="line2d_1">
    <path clip-path="url(#p8be3d24b8a)" d="M 73.832727 210.306679 
L 74.831664 131.937339 
L 75.830601 131.937339 
L 76.829538 53.568 
L 78.827413 53.568 
L 79.82635 136.302759 
L 82.823161 136.302759 
L 83.822098 56.47585 
L 84.821035 56.47585 
L 86.818909 213.402957 
L 88.816783 213.402957 
L 89.81572 293.12656 
L 92.812531 293.12656 
L 93.811469 218.362937 
L 94.810406 218.362937 
L 95.809343 140.592562 
L 97.807217 140.592562 
L 98.806154 231.074527 
L 99.805091 231.074527 
L 100.804028 203.409389 
L 101.802965 203.409389 
L 102.801902 176.093208 
L 103.800839 176.093208 
L 104.799776 171.427021 
L 105.798713 171.427021 
L 106.79765 175.28987 
L 107.796587 201.780936 
L 108.795524 201.780936 
L 109.794462 174.99724 
L 110.793399 174.99724 
L 111.792336 177.349046 
L 112.791273 177.349046 
L 113.79021 203.465246 
L 116.787021 203.465246 
L 117.785958 196.656902 
L 118.784895 196.656902 
L 119.783832 170.201245 
L 120.782769 198.653227 
L 121.781706 198.653227 
L 122.780643 224.706944 
L 123.77958 224.706944 
L 124.778517 199.24426 
L 125.777455 223.486472 
L 127.775329 223.486472 
L 128.774266 229.119462 
L 129.773203 223.348483 
L 131.771077 223.348483 
L 132.770014 198.539571 
L 133.768951 198.539571 
L 134.767888 172.606605 
L 137.764699 172.606605 
L 138.763636 146.131845 
L 139.762573 146.131845 
L 140.76151 173.18887 
L 142.759385 173.18887 
L 144.757259 225.312182 
L 145.756196 225.312182 
L 146.755133 249.233926 
L 148.753007 249.233926 
L 149.751944 221.362331 
L 150.750881 221.362331 
L 151.749818 249.130273 
L 152.748755 249.130273 
L 153.747692 242.904551 
L 154.746629 268.72067 
L 157.743441 268.72067 
L 158.742378 240.086341 
L 159.741315 240.086341 
L 160.740252 217.091902 
L 161.739189 217.091902 
L 162.738126 221.165693 
L 163.737063 221.165693 
L 164.736 195.30209 
L 165.734937 195.30209 
L 166.733874 189.228415 
L 167.732811 189.228415 
L 168.731748 213.960478 
L 169.730685 213.960478 
L 170.729622 188.739934 
L 171.728559 188.739934 
L 172.727497 217.702808 
L 173.726434 217.702808 
L 174.725371 244.679344 
L 176.723245 244.679344 
L 177.722182 266.546404 
L 178.721119 266.546404 
L 179.720056 295.488 
L 180.718993 295.488 
L 181.71793 266.517065 
L 191.707301 266.517065 
L 192.706238 239.857495 
L 193.705175 239.857495 
L 195.703049 184.06245 
L 196.701986 184.06245 
L 197.700923 159.031855 
L 199.698797 159.031855 
L 200.697734 162.306555 
L 201.696671 162.306555 
L 202.695608 190.19779 
L 204.693483 190.19779 
L 205.69242 166.550251 
L 206.691357 166.550251 
L 207.690294 188.542133 
L 208.689231 188.542133 
L 209.688168 213.958614 
L 211.686042 213.958614 
L 212.684979 238.218464 
L 213.683916 238.218464 
L 214.682853 210.976308 
L 215.68179 210.976308 
L 216.680727 236.093218 
L 217.679664 210.852751 
L 218.678601 210.852751 
L 219.677538 237.342444 
L 220.676476 237.342444 
L 221.675413 235.666238 
L 222.67435 235.666238 
L 223.673287 208.654794 
L 225.671161 208.654794 
L 226.670098 184.714828 
L 227.669035 184.714828 
L 228.667972 158.430187 
L 229.666909 158.430187 
L 230.665846 186.360153 
L 232.66372 186.360153 
L 233.662657 161.707573 
L 234.661594 161.707573 
L 235.660531 135.447026 
L 236.659469 161.753683 
L 237.658406 161.753683 
L 238.657343 164.112485 
L 239.65628 164.112485 
L 240.655217 140.076103 
L 241.654154 140.076103 
L 242.653091 166.392622 
L 243.652028 166.392622 
L 244.650965 191.008279 
L 245.649902 191.008279 
L 246.648839 162.965045 
L 247.647776 162.965045 
L 248.646713 134.396941 
L 249.64565 136.312683 
L 250.644587 136.312683 
L 251.643524 139.136189 
L 253.641399 139.136189 
L 254.640336 114.927575 
L 256.63821 114.927575 
L 257.637147 142.765529 
L 258.636084 117.01864 
L 398.487273 117.01864 
L 398.487273 117.01864 
" style="fill:none;stroke:#ff0000;stroke-linecap:square;stroke-width:12;"/>
    <defs>
     <path d="M 0 3 
C 0.795609 3 1.55874 2.683901 2.12132 2.12132 
C 2.683901 1.55874 3 0.795609 3 0 
C 3 -0.795609 2.683901 -1.55874 2.12132 -2.12132 
C 1.55874 -2.683901 0.795609 -3 0 -3 
C -0.795609 -3 -1.55874 -2.683901 -2.12132 -2.12132 
C -2.683901 -1.55874 -3 -0.795609 -3 0 
C -3 0.795609 -2.683901 1.55874 -2.12132 2.12132 
C -1.55874 2.683901 -0.795609 3 0 3 
z
" id="ma73f889677" style="stroke:#ff0000;"/>
    </defs>
    <g clip-path="url(#p8be3d24b8a)">
     <use style="fill:#ff0000;stroke:#ff0000;" x="73.832727" xlink:href="#ma73f889677" y="210.306679"/>
     <use style="fill:#ff0000;stroke:#ff0000;" x="74.831664" xlink:href="#ma73f889677" y="131.937339"/>
     <use style="fill:#ff0000;stroke:#ff0000;" x="75.830601" xlink:href="#ma73f889677" y="131.937339"/>
     <use style="fill:#ff0000;stroke:#ff0000;" x="76.829538" xlink:href="#ma73f889677" y="53.568"/>
     <use style="fill:#ff0000;stroke:#ff0000;" x="77.828476" xlink:href="#ma73f889677" y="53.568"/>
     <use style="fill:#ff0000;stroke:#ff0000;" x="78.827413" xlink:href="#ma73f889677" y="53.568"/>
     <use style="fill:#ff0000;stroke:#ff0000;" x="79.82635" xlink:href="#ma73f889677" y="136.302759"/>
     <use style="fill:#ff0000;stroke:#ff0000;" x="80.825287" xlink:href="#ma73f889677" y="136.302759"/>
     <use style="fill:#ff0000;stroke:#ff0000;" x="81.824224" xlink:href="#ma73f889677" y="136.302759"/>
     <use style="fill:#ff0000;stroke:#ff0000;" x="82.823161" xlink:href="#ma73f889677" y="136.302759"/>
     <use style="fill:#ff0000;stroke:#ff0000;" x="83.822098" xlink:href="#ma73f889677" y="56.47585"/>
     <use style="fill:#ff0000;stroke:#ff0000;" x="84.821035" xlink:href="#ma73f889677" y="56.47585"/>
     <use style="fill:#ff0000;stroke:#ff0000;" x="85.819972" xlink:href="#ma73f889677" y="138.472698"/>
     <use style="fill:#ff0000;stroke:#ff0000;" x="86.818909" xlink:href="#ma73f889677" y="213.402957"/>
     <use style="fill:#ff0000;stroke:#ff0000;" x="87.817846" xlink:href="#ma73f889677" y="213.402957"/>
     <use style="fill:#ff0000;stroke:#ff0000;" x="88.816783" xlink:href="#ma73f889677" y="213.402957"/>
     <use style="fill:#ff0000;stroke:#ff0000;" x="89.81572" xlink:href="#ma73f889677" y="293.12656"/>
     <use style="fill:#ff0000;stroke:#ff0000;" x="90.814657" xlink:href="#ma73f889677" y="293.12656"/>
     <use style="fill:#ff0000;stroke:#ff0000;" x="91.813594" xlink:href="#ma73f889677" y="293.12656"/>
     <use style="fill:#ff0000;stroke:#ff0000;" x="92.812531" xlink:href="#ma73f889677" y="293.12656"/>
     <use style="fill:#ff0000;stroke:#ff0000;" x="93.811469" xlink:href="#ma73f889677" y="218.362937"/>
     <use style="fill:#ff0000;stroke:#ff0000;" x="94.810406" xlink:href="#ma73f889677" y="218.362937"/>
     <use style="fill:#ff0000;stroke:#ff0000;" x="95.809343" xlink:href="#ma73f889677" y="140.592562"/>
     <use style="fill:#ff0000;stroke:#ff0000;" x="96.80828" xlink:href="#ma73f889677" y="140.592562"/>
     <use style="fill:#ff0000;stroke:#ff0000;" x="97.807217" xlink:href="#ma73f889677" y="140.592562"/>
     <use style="fill:#ff0000;stroke:#ff0000;" x="98.806154" xlink:href="#ma73f889677" y="231.074527"/>
     <use style="fill:#ff0000;stroke:#ff0000;" x="99.805091" xlink:href="#ma73f889677" y="231.074527"/>
     <use style="fill:#ff0000;stroke:#ff0000;" x="100.804028" xlink:href="#ma73f889677" y="203.409389"/>
     <use style="fill:#ff0000;stroke:#ff0000;" x="101.802965" xlink:href="#ma73f889677" y="203.409389"/>
     <use style="fill:#ff0000;stroke:#ff0000;" x="102.801902" xlink:href="#ma73f889677" y="176.093208"/>
     <use style="fill:#ff0000;stroke:#ff0000;" x="103.800839" xlink:href="#ma73f889677" y="176.093208"/>
     <use style="fill:#ff0000;stroke:#ff0000;" x="104.799776" xlink:href="#ma73f889677" y="171.427021"/>
     <use style="fill:#ff0000;stroke:#ff0000;" x="105.798713" xlink:href="#ma73f889677" y="171.427021"/>
     <use style="fill:#ff0000;stroke:#ff0000;" x="106.79765" xlink:href="#ma73f889677" y="175.28987"/>
     <use style="fill:#ff0000;stroke:#ff0000;" x="107.796587" xlink:href="#ma73f889677" y="201.780936"/>
     <use style="fill:#ff0000;stroke:#ff0000;" x="108.795524" xlink:href="#ma73f889677" y="201.780936"/>
     <use style="fill:#ff0000;stroke:#ff0000;" x="109.794462" xlink:href="#ma73f889677" y="174.99724"/>
     <use style="fill:#ff0000;stroke:#ff0000;" x="110.793399" xlink:href="#ma73f889677" y="174.99724"/>
     <use style="fill:#ff0000;stroke:#ff0000;" x="111.792336" xlink:href="#ma73f889677" y="177.349046"/>
     <use style="fill:#ff0000;stroke:#ff0000;" x="112.791273" xlink:href="#ma73f889677" y="177.349046"/>
     <use style="fill:#ff0000;stroke:#ff0000;" x="113.79021" xlink:href="#ma73f889677" y="203.465246"/>
     <use style="fill:#ff0000;stroke:#ff0000;" x="114.789147" xlink:href="#ma73f889677" y="203.465246"/>
     <use style="fill:#ff0000;stroke:#ff0000;" x="115.788084" xlink:href="#ma73f889677" y="203.465246"/>
     <use style="fill:#ff0000;stroke:#ff0000;" x="116.787021" xlink:href="#ma73f889677" y="203.465246"/>
     <use style="fill:#ff0000;stroke:#ff0000;" x="117.785958" xlink:href="#ma73f889677" y="196.656902"/>
     <use style="fill:#ff0000;stroke:#ff0000;" x="118.784895" xlink:href="#ma73f889677" y="196.656902"/>
     <use style="fill:#ff0000;stroke:#ff0000;" x="119.783832" xlink:href="#ma73f889677" y="170.201245"/>
     <use style="fill:#ff0000;stroke:#ff0000;" x="120.782769" xlink:href="#ma73f889677" y="198.653227"/>
     <use style="fill:#ff0000;stroke:#ff0000;" x="121.781706" xlink:href="#ma73f889677" y="198.653227"/>
     <use style="fill:#ff0000;stroke:#ff0000;" x="122.780643" xlink:href="#ma73f889677" y="224.706944"/>
     <use style="fill:#ff0000;stroke:#ff0000;" x="123.77958" xlink:href="#ma73f889677" y="224.706944"/>
     <use style="fill:#ff0000;stroke:#ff0000;" x="124.778517" xlink:href="#ma73f889677" y="199.24426"/>
     <use style="fill:#ff0000;stroke:#ff0000;" x="125.777455" xlink:href="#ma73f889677" y="223.486472"/>
     <use style="fill:#ff0000;stroke:#ff0000;" x="126.776392" xlink:href="#ma73f889677" y="223.486472"/>
     <use style="fill:#ff0000;stroke:#ff0000;" x="127.775329" xlink:href="#ma73f889677" y="223.486472"/>
     <use style="fill:#ff0000;stroke:#ff0000;" x="128.774266" xlink:href="#ma73f889677" y="229.119462"/>
     <use style="fill:#ff0000;stroke:#ff0000;" x="129.773203" xlink:href="#ma73f889677" y="223.348483"/>
     <use style="fill:#ff0000;stroke:#ff0000;" x="130.77214" xlink:href="#ma73f889677" y="223.348483"/>
     <use style="fill:#ff0000;stroke:#ff0000;" x="131.771077" xlink:href="#ma73f889677" y="223.348483"/>
     <use style="fill:#ff0000;stroke:#ff0000;" x="132.770014" xlink:href="#ma73f889677" y="198.539571"/>
     <use style="fill:#ff0000;stroke:#ff0000;" x="133.768951" xlink:href="#ma73f889677" y="198.539571"/>
     <use style="fill:#ff0000;stroke:#ff0000;" x="134.767888" xlink:href="#ma73f889677" y="172.606605"/>
     <use style="fill:#ff0000;stroke:#ff0000;" x="135.766825" xlink:href="#ma73f889677" y="172.606605"/>
     <use style="fill:#ff0000;stroke:#ff0000;" x="136.765762" xlink:href="#ma73f889677" y="172.606605"/>
     <use style="fill:#ff0000;stroke:#ff0000;" x="137.764699" xlink:href="#ma73f889677" y="172.606605"/>
     <use style="fill:#ff0000;stroke:#ff0000;" x="138.763636" xlink:href="#ma73f889677" y="146.131845"/>
     <use style="fill:#ff0000;stroke:#ff0000;" x="139.762573" xlink:href="#ma73f889677" y="146.131845"/>
     <use style="fill:#ff0000;stroke:#ff0000;" x="140.76151" xlink:href="#ma73f889677" y="173.18887"/>
     <use style="fill:#ff0000;stroke:#ff0000;" x="141.760448" xlink:href="#ma73f889677" y="173.18887"/>
     <use style="fill:#ff0000;stroke:#ff0000;" x="142.759385" xlink:href="#ma73f889677" y="173.18887"/>
     <use style="fill:#ff0000;stroke:#ff0000;" x="143.758322" xlink:href="#ma73f889677" y="199.910062"/>
     <use style="fill:#ff0000;stroke:#ff0000;" x="144.757259" xlink:href="#ma73f889677" y="225.312182"/>
     <use style="fill:#ff0000;stroke:#ff0000;" x="145.756196" xlink:href="#ma73f889677" y="225.312182"/>
     <use style="fill:#ff0000;stroke:#ff0000;" x="146.755133" xlink:href="#ma73f889677" y="249.233926"/>
     <use style="fill:#ff0000;stroke:#ff0000;" x="147.75407" xlink:href="#ma73f889677" y="249.233926"/>
     <use style="fill:#ff0000;stroke:#ff0000;" x="148.753007" xlink:href="#ma73f889677" y="249.233926"/>
     <use style="fill:#ff0000;stroke:#ff0000;" x="149.751944" xlink:href="#ma73f889677" y="221.362331"/>
     <use style="fill:#ff0000;stroke:#ff0000;" x="150.750881" xlink:href="#ma73f889677" y="221.362331"/>
     <use style="fill:#ff0000;stroke:#ff0000;" x="151.749818" xlink:href="#ma73f889677" y="249.130273"/>
     <use style="fill:#ff0000;stroke:#ff0000;" x="152.748755" xlink:href="#ma73f889677" y="249.130273"/>
     <use style="fill:#ff0000;stroke:#ff0000;" x="153.747692" xlink:href="#ma73f889677" y="242.904551"/>
     <use style="fill:#ff0000;stroke:#ff0000;" x="154.746629" xlink:href="#ma73f889677" y="268.72067"/>
     <use style="fill:#ff0000;stroke:#ff0000;" x="155.745566" xlink:href="#ma73f889677" y="268.72067"/>
     <use style="fill:#ff0000;stroke:#ff0000;" x="156.744503" xlink:href="#ma73f889677" y="268.72067"/>
     <use style="fill:#ff0000;stroke:#ff0000;" x="157.743441" xlink:href="#ma73f889677" y="268.72067"/>
     <use style="fill:#ff0000;stroke:#ff0000;" x="158.742378" xlink:href="#ma73f889677" y="240.086341"/>
     <use style="fill:#ff0000;stroke:#ff0000;" x="159.741315" xlink:href="#ma73f889677" y="240.086341"/>
     <use style="fill:#ff0000;stroke:#ff0000;" x="160.740252" xlink:href="#ma73f889677" y="217.091902"/>
     <use style="fill:#ff0000;stroke:#ff0000;" x="161.739189" xlink:href="#ma73f889677" y="217.091902"/>
     <use style="fill:#ff0000;stroke:#ff0000;" x="162.738126" xlink:href="#ma73f889677" y="221.165693"/>
     <use style="fill:#ff0000;stroke:#ff0000;" x="163.737063" xlink:href="#ma73f889677" y="221.165693"/>
     <use style="fill:#ff0000;stroke:#ff0000;" x="164.736" xlink:href="#ma73f889677" y="195.30209"/>
     <use style="fill:#ff0000;stroke:#ff0000;" x="165.734937" xlink:href="#ma73f889677" y="195.30209"/>
     <use style="fill:#ff0000;stroke:#ff0000;" x="166.733874" xlink:href="#ma73f889677" y="189.228415"/>
     <use style="fill:#ff0000;stroke:#ff0000;" x="167.732811" xlink:href="#ma73f889677" y="189.228415"/>
     <use style="fill:#ff0000;stroke:#ff0000;" x="168.731748" xlink:href="#ma73f889677" y="213.960478"/>
     <use style="fill:#ff0000;stroke:#ff0000;" x="169.730685" xlink:href="#ma73f889677" y="213.960478"/>
     <use style="fill:#ff0000;stroke:#ff0000;" x="170.729622" xlink:href="#ma73f889677" y="188.739934"/>
     <use style="fill:#ff0000;stroke:#ff0000;" x="171.728559" xlink:href="#ma73f889677" y="188.739934"/>
     <use style="fill:#ff0000;stroke:#ff0000;" x="172.727497" xlink:href="#ma73f889677" y="217.702808"/>
     <use style="fill:#ff0000;stroke:#ff0000;" x="173.726434" xlink:href="#ma73f889677" y="217.702808"/>
     <use style="fill:#ff0000;stroke:#ff0000;" x="174.725371" xlink:href="#ma73f889677" y="244.679344"/>
     <use style="fill:#ff0000;stroke:#ff0000;" x="175.724308" xlink:href="#ma73f889677" y="244.679344"/>
     <use style="fill:#ff0000;stroke:#ff0000;" x="176.723245" xlink:href="#ma73f889677" y="244.679344"/>
     <use style="fill:#ff0000;stroke:#ff0000;" x="177.722182" xlink:href="#ma73f889677" y="266.546404"/>
     <use style="fill:#ff0000;stroke:#ff0000;" x="178.721119" xlink:href="#ma73f889677" y="266.546404"/>
     <use style="fill:#ff0000;stroke:#ff0000;" x="179.720056" xlink:href="#ma73f889677" y="295.488"/>
     <use style="fill:#ff0000;stroke:#ff0000;" x="180.718993" xlink:href="#ma73f889677" y="295.488"/>
     <use style="fill:#ff0000;stroke:#ff0000;" x="181.71793" xlink:href="#ma73f889677" y="266.517065"/>
     <use style="fill:#ff0000;stroke:#ff0000;" x="182.716867" xlink:href="#ma73f889677" y="266.517065"/>
     <use style="fill:#ff0000;stroke:#ff0000;" x="183.715804" xlink:href="#ma73f889677" y="266.517065"/>
     <use style="fill:#ff0000;stroke:#ff0000;" x="184.714741" xlink:href="#ma73f889677" y="266.517065"/>
     <use style="fill:#ff0000;stroke:#ff0000;" x="185.713678" xlink:href="#ma73f889677" y="266.517065"/>
     <use style="fill:#ff0000;stroke:#ff0000;" x="186.712615" xlink:href="#ma73f889677" y="266.517065"/>
     <use style="fill:#ff0000;stroke:#ff0000;" x="187.711552" xlink:href="#ma73f889677" y="266.517065"/>
     <use style="fill:#ff0000;stroke:#ff0000;" x="188.71049" xlink:href="#ma73f889677" y="266.517065"/>
     <use style="fill:#ff0000;stroke:#ff0000;" x="189.709427" xlink:href="#ma73f889677" y="266.517065"/>
     <use style="fill:#ff0000;stroke:#ff0000;" x="190.708364" xlink:href="#ma73f889677" y="266.517065"/>
     <use style="fill:#ff0000;stroke:#ff0000;" x="191.707301" xlink:href="#ma73f889677" y="266.517065"/>
     <use style="fill:#ff0000;stroke:#ff0000;" x="192.706238" xlink:href="#ma73f889677" y="239.857495"/>
     <use style="fill:#ff0000;stroke:#ff0000;" x="193.705175" xlink:href="#ma73f889677" y="239.857495"/>
     <use style="fill:#ff0000;stroke:#ff0000;" x="194.704112" xlink:href="#ma73f889677" y="212.557997"/>
     <use style="fill:#ff0000;stroke:#ff0000;" x="195.703049" xlink:href="#ma73f889677" y="184.06245"/>
     <use style="fill:#ff0000;stroke:#ff0000;" x="196.701986" xlink:href="#ma73f889677" y="184.06245"/>
     <use style="fill:#ff0000;stroke:#ff0000;" x="197.700923" xlink:href="#ma73f889677" y="159.031855"/>
     <use style="fill:#ff0000;stroke:#ff0000;" x="198.69986" xlink:href="#ma73f889677" y="159.031855"/>
     <use style="fill:#ff0000;stroke:#ff0000;" x="199.698797" xlink:href="#ma73f889677" y="159.031855"/>
     <use style="fill:#ff0000;stroke:#ff0000;" x="200.697734" xlink:href="#ma73f889677" y="162.306555"/>
     <use style="fill:#ff0000;stroke:#ff0000;" x="201.696671" xlink:href="#ma73f889677" y="162.306555"/>
     <use style="fill:#ff0000;stroke:#ff0000;" x="202.695608" xlink:href="#ma73f889677" y="190.19779"/>
     <use style="fill:#ff0000;stroke:#ff0000;" x="203.694545" xlink:href="#ma73f889677" y="190.19779"/>
     <use style="fill:#ff0000;stroke:#ff0000;" x="204.693483" xlink:href="#ma73f889677" y="190.19779"/>
     <use style="fill:#ff0000;stroke:#ff0000;" x="205.69242" xlink:href="#ma73f889677" y="166.550251"/>
     <use style="fill:#ff0000;stroke:#ff0000;" x="206.691357" xlink:href="#ma73f889677" y="166.550251"/>
     <use style="fill:#ff0000;stroke:#ff0000;" x="207.690294" xlink:href="#ma73f889677" y="188.542133"/>
     <use style="fill:#ff0000;stroke:#ff0000;" x="208.689231" xlink:href="#ma73f889677" y="188.542133"/>
     <use style="fill:#ff0000;stroke:#ff0000;" x="209.688168" xlink:href="#ma73f889677" y="213.958614"/>
     <use style="fill:#ff0000;stroke:#ff0000;" x="210.687105" xlink:href="#ma73f889677" y="213.958614"/>
     <use style="fill:#ff0000;stroke:#ff0000;" x="211.686042" xlink:href="#ma73f889677" y="213.958614"/>
     <use style="fill:#ff0000;stroke:#ff0000;" x="212.684979" xlink:href="#ma73f889677" y="238.218464"/>
     <use style="fill:#ff0000;stroke:#ff0000;" x="213.683916" xlink:href="#ma73f889677" y="238.218464"/>
     <use style="fill:#ff0000;stroke:#ff0000;" x="214.682853" xlink:href="#ma73f889677" y="210.976308"/>
     <use style="fill:#ff0000;stroke:#ff0000;" x="215.68179" xlink:href="#ma73f889677" y="210.976308"/>
     <use style="fill:#ff0000;stroke:#ff0000;" x="216.680727" xlink:href="#ma73f889677" y="236.093218"/>
     <use style="fill:#ff0000;stroke:#ff0000;" x="217.679664" xlink:href="#ma73f889677" y="210.852751"/>
     <use style="fill:#ff0000;stroke:#ff0000;" x="218.678601" xlink:href="#ma73f889677" y="210.852751"/>
     <use style="fill:#ff0000;stroke:#ff0000;" x="219.677538" xlink:href="#ma73f889677" y="237.342444"/>
     <use style="fill:#ff0000;stroke:#ff0000;" x="220.676476" xlink:href="#ma73f889677" y="237.342444"/>
     <use style="fill:#ff0000;stroke:#ff0000;" x="221.675413" xlink:href="#ma73f889677" y="235.666238"/>
     <use style="fill:#ff0000;stroke:#ff0000;" x="222.67435" xlink:href="#ma73f889677" y="235.666238"/>
     <use style="fill:#ff0000;stroke:#ff0000;" x="223.673287" xlink:href="#ma73f889677" y="208.654794"/>
     <use style="fill:#ff0000;stroke:#ff0000;" x="224.672224" xlink:href="#ma73f889677" y="208.654794"/>
     <use style="fill:#ff0000;stroke:#ff0000;" x="225.671161" xlink:href="#ma73f889677" y="208.654794"/>
     <use style="fill:#ff0000;stroke:#ff0000;" x="226.670098" xlink:href="#ma73f889677" y="184.714828"/>
     <use style="fill:#ff0000;stroke:#ff0000;" x="227.669035" xlink:href="#ma73f889677" y="184.714828"/>
     <use style="fill:#ff0000;stroke:#ff0000;" x="228.667972" xlink:href="#ma73f889677" y="158.430187"/>
     <use style="fill:#ff0000;stroke:#ff0000;" x="229.666909" xlink:href="#ma73f889677" y="158.430187"/>
     <use style="fill:#ff0000;stroke:#ff0000;" x="230.665846" xlink:href="#ma73f889677" y="186.360153"/>
     <use style="fill:#ff0000;stroke:#ff0000;" x="231.664783" xlink:href="#ma73f889677" y="186.360153"/>
     <use style="fill:#ff0000;stroke:#ff0000;" x="232.66372" xlink:href="#ma73f889677" y="186.360153"/>
     <use style="fill:#ff0000;stroke:#ff0000;" x="233.662657" xlink:href="#ma73f889677" y="161.707573"/>
     <use style="fill:#ff0000;stroke:#ff0000;" x="234.661594" xlink:href="#ma73f889677" y="161.707573"/>
     <use style="fill:#ff0000;stroke:#ff0000;" x="235.660531" xlink:href="#ma73f889677" y="135.447026"/>
     <use style="fill:#ff0000;stroke:#ff0000;" x="236.659469" xlink:href="#ma73f889677" y="161.753683"/>
     <use style="fill:#ff0000;stroke:#ff0000;" x="237.658406" xlink:href="#ma73f889677" y="161.753683"/>
     <use style="fill:#ff0000;stroke:#ff0000;" x="238.657343" xlink:href="#ma73f889677" y="164.112485"/>
     <use style="fill:#ff0000;stroke:#ff0000;" x="239.65628" xlink:href="#ma73f889677" y="164.112485"/>
     <use style="fill:#ff0000;stroke:#ff0000;" x="240.655217" xlink:href="#ma73f889677" y="140.076103"/>
     <use style="fill:#ff0000;stroke:#ff0000;" x="241.654154" xlink:href="#ma73f889677" y="140.076103"/>
     <use style="fill:#ff0000;stroke:#ff0000;" x="242.653091" xlink:href="#ma73f889677" y="166.392622"/>
     <use style="fill:#ff0000;stroke:#ff0000;" x="243.652028" xlink:href="#ma73f889677" y="166.392622"/>
     <use style="fill:#ff0000;stroke:#ff0000;" x="244.650965" xlink:href="#ma73f889677" y="191.008279"/>
     <use style="fill:#ff0000;stroke:#ff0000;" x="245.649902" xlink:href="#ma73f889677" y="191.008279"/>
     <use style="fill:#ff0000;stroke:#ff0000;" x="246.648839" xlink:href="#ma73f889677" y="162.965045"/>
     <use style="fill:#ff0000;stroke:#ff0000;" x="247.647776" xlink:href="#ma73f889677" y="162.965045"/>
     <use style="fill:#ff0000;stroke:#ff0000;" x="248.646713" xlink:href="#ma73f889677" y="134.396941"/>
     <use style="fill:#ff0000;stroke:#ff0000;" x="249.64565" xlink:href="#ma73f889677" y="136.312683"/>
     <use style="fill:#ff0000;stroke:#ff0000;" x="250.644587" xlink:href="#ma73f889677" y="136.312683"/>
     <use style="fill:#ff0000;stroke:#ff0000;" x="251.643524" xlink:href="#ma73f889677" y="139.136189"/>
     <use style="fill:#ff0000;stroke:#ff0000;" x="252.642462" xlink:href="#ma73f889677" y="139.136189"/>
     <use style="fill:#ff0000;stroke:#ff0000;" x="253.641399" xlink:href="#ma73f889677" y="139.136189"/>
     <use style="fill:#ff0000;stroke:#ff0000;" x="254.640336" xlink:href="#ma73f889677" y="114.927575"/>
     <use style="fill:#ff0000;stroke:#ff0000;" x="255.639273" xlink:href="#ma73f889677" y="114.927575"/>
     <use style="fill:#ff0000;stroke:#ff0000;" x="256.63821" xlink:href="#ma73f889677" y="114.927575"/>
     <use style="fill:#ff0000;stroke:#ff0000;" x="257.637147" xlink:href="#ma73f889677" y="142.765529"/>
     <use style="fill:#ff0000;stroke:#ff0000;" x="258.636084" xlink:href="#ma73f889677" y="117.01864"/>
     <use style="fill:#ff0000;stroke:#ff0000;" x="259.635021" xlink:href="#ma73f889677" y="117.01864"/>
     <use style="fill:#ff0000;stroke:#ff0000;" x="260.633958" xlink:href="#ma73f889677" y="117.01864"/>
     <use style="fill:#ff0000;stroke:#ff0000;" x="261.632895" xlink:href="#ma73f889677" y="117.01864"/>
     <use style="fill:#ff0000;stroke:#ff0000;" x="262.631832" xlink:href="#ma73f889677" y="117.01864"/>
     <use style="fill:#ff0000;stroke:#ff0000;" x="263.630769" xlink:href="#ma73f889677" y="117.01864"/>
     <use style="fill:#ff0000;stroke:#ff0000;" x="264.629706" xlink:href="#ma73f889677" y="117.01864"/>
     <use style="fill:#ff0000;stroke:#ff0000;" x="265.628643" xlink:href="#ma73f889677" y="117.01864"/>
     <use style="fill:#ff0000;stroke:#ff0000;" x="266.62758" xlink:href="#ma73f889677" y="117.01864"/>
     <use style="fill:#ff0000;stroke:#ff0000;" x="267.626517" xlink:href="#ma73f889677" y="117.01864"/>
     <use style="fill:#ff0000;stroke:#ff0000;" x="268.625455" xlink:href="#ma73f889677" y="117.01864"/>
     <use style="fill:#ff0000;stroke:#ff0000;" x="269.624392" xlink:href="#ma73f889677" y="117.01864"/>
     <use style="fill:#ff0000;stroke:#ff0000;" x="270.623329" xlink:href="#ma73f889677" y="117.01864"/>
     <use style="fill:#ff0000;stroke:#ff0000;" x="271.622266" xlink:href="#ma73f889677" y="117.01864"/>
     <use style="fill:#ff0000;stroke:#ff0000;" x="272.621203" xlink:href="#ma73f889677" y="117.01864"/>
     <use style="fill:#ff0000;stroke:#ff0000;" x="273.62014" xlink:href="#ma73f889677" y="117.01864"/>
     <use style="fill:#ff0000;stroke:#ff0000;" x="274.619077" xlink:href="#ma73f889677" y="117.01864"/>
     <use style="fill:#ff0000;stroke:#ff0000;" x="275.618014" xlink:href="#ma73f889677" y="117.01864"/>
     <use style="fill:#ff0000;stroke:#ff0000;" x="276.616951" xlink:href="#ma73f889677" y="117.01864"/>
     <use style="fill:#ff0000;stroke:#ff0000;" x="277.615888" xlink:href="#ma73f889677" y="117.01864"/>
     <use style="fill:#ff0000;stroke:#ff0000;" x="278.614825" xlink:href="#ma73f889677" y="117.01864"/>
     <use style="fill:#ff0000;stroke:#ff0000;" x="279.613762" xlink:href="#ma73f889677" y="117.01864"/>
     <use style="fill:#ff0000;stroke:#ff0000;" x="280.612699" xlink:href="#ma73f889677" y="117.01864"/>
     <use style="fill:#ff0000;stroke:#ff0000;" x="281.611636" xlink:href="#ma73f889677" y="117.01864"/>
     <use style="fill:#ff0000;stroke:#ff0000;" x="282.610573" xlink:href="#ma73f889677" y="117.01864"/>
     <use style="fill:#ff0000;stroke:#ff0000;" x="283.60951" xlink:href="#ma73f889677" y="117.01864"/>
     <use style="fill:#ff0000;stroke:#ff0000;" x="284.608448" xlink:href="#ma73f889677" y="117.01864"/>
     <use style="fill:#ff0000;stroke:#ff0000;" x="285.607385" xlink:href="#ma73f889677" y="117.01864"/>
     <use style="fill:#ff0000;stroke:#ff0000;" x="286.606322" xlink:href="#ma73f889677" y="117.01864"/>
     <use style="fill:#ff0000;stroke:#ff0000;" x="287.605259" xlink:href="#ma73f889677" y="117.01864"/>
     <use style="fill:#ff0000;stroke:#ff0000;" x="288.604196" xlink:href="#ma73f889677" y="117.01864"/>
     <use style="fill:#ff0000;stroke:#ff0000;" x="289.603133" xlink:href="#ma73f889677" y="117.01864"/>
     <use style="fill:#ff0000;stroke:#ff0000;" x="290.60207" xlink:href="#ma73f889677" y="117.01864"/>
     <use style="fill:#ff0000;stroke:#ff0000;" x="291.601007" xlink:href="#ma73f889677" y="117.01864"/>
     <use style="fill:#ff0000;stroke:#ff0000;" x="292.599944" xlink:href="#ma73f889677" y="117.01864"/>
     <use style="fill:#ff0000;stroke:#ff0000;" x="293.598881" xlink:href="#ma73f889677" y="117.01864"/>
     <use style="fill:#ff0000;stroke:#ff0000;" x="294.597818" xlink:href="#ma73f889677" y="117.01864"/>
     <use style="fill:#ff0000;stroke:#ff0000;" x="295.596755" xlink:href="#ma73f889677" y="117.01864"/>
     <use style="fill:#ff0000;stroke:#ff0000;" x="296.595692" xlink:href="#ma73f889677" y="117.01864"/>
     <use style="fill:#ff0000;stroke:#ff0000;" x="297.594629" xlink:href="#ma73f889677" y="117.01864"/>
     <use style="fill:#ff0000;stroke:#ff0000;" x="298.593566" xlink:href="#ma73f889677" y="117.01864"/>
     <use style="fill:#ff0000;stroke:#ff0000;" x="299.592503" xlink:href="#ma73f889677" y="117.01864"/>
     <use style="fill:#ff0000;stroke:#ff0000;" x="300.591441" xlink:href="#ma73f889677" y="117.01864"/>
     <use style="fill:#ff0000;stroke:#ff0000;" x="301.590378" xlink:href="#ma73f889677" y="117.01864"/>
     <use style="fill:#ff0000;stroke:#ff0000;" x="302.589315" xlink:href="#ma73f889677" y="117.01864"/>
     <use style="fill:#ff0000;stroke:#ff0000;" x="303.588252" xlink:href="#ma73f889677" y="117.01864"/>
     <use style="fill:#ff0000;stroke:#ff0000;" x="304.587189" xlink:href="#ma73f889677" y="117.01864"/>
     <use style="fill:#ff0000;stroke:#ff0000;" x="305.586126" xlink:href="#ma73f889677" y="117.01864"/>
     <use style="fill:#ff0000;stroke:#ff0000;" x="306.585063" xlink:href="#ma73f889677" y="117.01864"/>
     <use style="fill:#ff0000;stroke:#ff0000;" x="307.584" xlink:href="#ma73f889677" y="117.01864"/>
     <use style="fill:#ff0000;stroke:#ff0000;" x="308.582937" xlink:href="#ma73f889677" y="117.01864"/>
     <use style="fill:#ff0000;stroke:#ff0000;" x="309.581874" xlink:href="#ma73f889677" y="117.01864"/>
     <use style="fill:#ff0000;stroke:#ff0000;" x="310.580811" xlink:href="#ma73f889677" y="117.01864"/>
     <use style="fill:#ff0000;stroke:#ff0000;" x="311.579748" xlink:href="#ma73f889677" y="117.01864"/>
     <use style="fill:#ff0000;stroke:#ff0000;" x="312.578685" xlink:href="#ma73f889677" y="117.01864"/>
     <use style="fill:#ff0000;stroke:#ff0000;" x="313.577622" xlink:href="#ma73f889677" y="117.01864"/>
     <use style="fill:#ff0000;stroke:#ff0000;" x="314.576559" xlink:href="#ma73f889677" y="117.01864"/>
     <use style="fill:#ff0000;stroke:#ff0000;" x="315.575497" xlink:href="#ma73f889677" y="117.01864"/>
     <use style="fill:#ff0000;stroke:#ff0000;" x="316.574434" xlink:href="#ma73f889677" y="117.01864"/>
     <use style="fill:#ff0000;stroke:#ff0000;" x="317.573371" xlink:href="#ma73f889677" y="117.01864"/>
     <use style="fill:#ff0000;stroke:#ff0000;" x="318.572308" xlink:href="#ma73f889677" y="117.01864"/>
     <use style="fill:#ff0000;stroke:#ff0000;" x="319.571245" xlink:href="#ma73f889677" y="117.01864"/>
     <use style="fill:#ff0000;stroke:#ff0000;" x="320.570182" xlink:href="#ma73f889677" y="117.01864"/>
     <use style="fill:#ff0000;stroke:#ff0000;" x="321.569119" xlink:href="#ma73f889677" y="117.01864"/>
     <use style="fill:#ff0000;stroke:#ff0000;" x="322.568056" xlink:href="#ma73f889677" y="117.01864"/>
     <use style="fill:#ff0000;stroke:#ff0000;" x="323.566993" xlink:href="#ma73f889677" y="117.01864"/>
     <use style="fill:#ff0000;stroke:#ff0000;" x="324.56593" xlink:href="#ma73f889677" y="117.01864"/>
     <use style="fill:#ff0000;stroke:#ff0000;" x="325.564867" xlink:href="#ma73f889677" y="117.01864"/>
     <use style="fill:#ff0000;stroke:#ff0000;" x="326.563804" xlink:href="#ma73f889677" y="117.01864"/>
     <use style="fill:#ff0000;stroke:#ff0000;" x="327.562741" xlink:href="#ma73f889677" y="117.01864"/>
     <use style="fill:#ff0000;stroke:#ff0000;" x="328.561678" xlink:href="#ma73f889677" y="117.01864"/>
     <use style="fill:#ff0000;stroke:#ff0000;" x="329.560615" xlink:href="#ma73f889677" y="117.01864"/>
     <use style="fill:#ff0000;stroke:#ff0000;" x="330.559552" xlink:href="#ma73f889677" y="117.01864"/>
     <use style="fill:#ff0000;stroke:#ff0000;" x="331.55849" xlink:href="#ma73f889677" y="117.01864"/>
     <use style="fill:#ff0000;stroke:#ff0000;" x="332.557427" xlink:href="#ma73f889677" y="117.01864"/>
     <use style="fill:#ff0000;stroke:#ff0000;" x="333.556364" xlink:href="#ma73f889677" y="117.01864"/>
     <use style="fill:#ff0000;stroke:#ff0000;" x="334.555301" xlink:href="#ma73f889677" y="117.01864"/>
     <use style="fill:#ff0000;stroke:#ff0000;" x="335.554238" xlink:href="#ma73f889677" y="117.01864"/>
     <use style="fill:#ff0000;stroke:#ff0000;" x="336.553175" xlink:href="#ma73f889677" y="117.01864"/>
     <use style="fill:#ff0000;stroke:#ff0000;" x="337.552112" xlink:href="#ma73f889677" y="117.01864"/>
     <use style="fill:#ff0000;stroke:#ff0000;" x="338.551049" xlink:href="#ma73f889677" y="117.01864"/>
     <use style="fill:#ff0000;stroke:#ff0000;" x="339.549986" xlink:href="#ma73f889677" y="117.01864"/>
     <use style="fill:#ff0000;stroke:#ff0000;" x="340.548923" xlink:href="#ma73f889677" y="117.01864"/>
     <use style="fill:#ff0000;stroke:#ff0000;" x="341.54786" xlink:href="#ma73f889677" y="117.01864"/>
     <use style="fill:#ff0000;stroke:#ff0000;" x="342.546797" xlink:href="#ma73f889677" y="117.01864"/>
     <use style="fill:#ff0000;stroke:#ff0000;" x="343.545734" xlink:href="#ma73f889677" y="117.01864"/>
     <use style="fill:#ff0000;stroke:#ff0000;" x="344.544671" xlink:href="#ma73f889677" y="117.01864"/>
     <use style="fill:#ff0000;stroke:#ff0000;" x="345.543608" xlink:href="#ma73f889677" y="117.01864"/>
     <use style="fill:#ff0000;stroke:#ff0000;" x="346.542545" xlink:href="#ma73f889677" y="117.01864"/>
     <use style="fill:#ff0000;stroke:#ff0000;" x="347.541483" xlink:href="#ma73f889677" y="117.01864"/>
     <use style="fill:#ff0000;stroke:#ff0000;" x="348.54042" xlink:href="#ma73f889677" y="117.01864"/>
     <use style="fill:#ff0000;stroke:#ff0000;" x="349.539357" xlink:href="#ma73f889677" y="117.01864"/>
     <use style="fill:#ff0000;stroke:#ff0000;" x="350.538294" xlink:href="#ma73f889677" y="117.01864"/>
     <use style="fill:#ff0000;stroke:#ff0000;" x="351.537231" xlink:href="#ma73f889677" y="117.01864"/>
     <use style="fill:#ff0000;stroke:#ff0000;" x="352.536168" xlink:href="#ma73f889677" y="117.01864"/>
     <use style="fill:#ff0000;stroke:#ff0000;" x="353.535105" xlink:href="#ma73f889677" y="117.01864"/>
     <use style="fill:#ff0000;stroke:#ff0000;" x="354.534042" xlink:href="#ma73f889677" y="117.01864"/>
     <use style="fill:#ff0000;stroke:#ff0000;" x="355.532979" xlink:href="#ma73f889677" y="117.01864"/>
     <use style="fill:#ff0000;stroke:#ff0000;" x="356.531916" xlink:href="#ma73f889677" y="117.01864"/>
     <use style="fill:#ff0000;stroke:#ff0000;" x="357.530853" xlink:href="#ma73f889677" y="117.01864"/>
     <use style="fill:#ff0000;stroke:#ff0000;" x="358.52979" xlink:href="#ma73f889677" y="117.01864"/>
     <use style="fill:#ff0000;stroke:#ff0000;" x="359.528727" xlink:href="#ma73f889677" y="117.01864"/>
     <use style="fill:#ff0000;stroke:#ff0000;" x="360.527664" xlink:href="#ma73f889677" y="117.01864"/>
     <use style="fill:#ff0000;stroke:#ff0000;" x="361.526601" xlink:href="#ma73f889677" y="117.01864"/>
     <use style="fill:#ff0000;stroke:#ff0000;" x="362.525538" xlink:href="#ma73f889677" y="117.01864"/>
     <use style="fill:#ff0000;stroke:#ff0000;" x="363.524476" xlink:href="#ma73f889677" y="117.01864"/>
     <use style="fill:#ff0000;stroke:#ff0000;" x="364.523413" xlink:href="#ma73f889677" y="117.01864"/>
     <use style="fill:#ff0000;stroke:#ff0000;" x="365.52235" xlink:href="#ma73f889677" y="117.01864"/>
     <use style="fill:#ff0000;stroke:#ff0000;" x="366.521287" xlink:href="#ma73f889677" y="117.01864"/>
     <use style="fill:#ff0000;stroke:#ff0000;" x="367.520224" xlink:href="#ma73f889677" y="117.01864"/>
     <use style="fill:#ff0000;stroke:#ff0000;" x="368.519161" xlink:href="#ma73f889677" y="117.01864"/>
     <use style="fill:#ff0000;stroke:#ff0000;" x="369.518098" xlink:href="#ma73f889677" y="117.01864"/>
     <use style="fill:#ff0000;stroke:#ff0000;" x="370.517035" xlink:href="#ma73f889677" y="117.01864"/>
     <use style="fill:#ff0000;stroke:#ff0000;" x="371.515972" xlink:href="#ma73f889677" y="117.01864"/>
     <use style="fill:#ff0000;stroke:#ff0000;" x="372.514909" xlink:href="#ma73f889677" y="117.01864"/>
     <use style="fill:#ff0000;stroke:#ff0000;" x="373.513846" xlink:href="#ma73f889677" y="117.01864"/>
     <use style="fill:#ff0000;stroke:#ff0000;" x="374.512783" xlink:href="#ma73f889677" y="117.01864"/>
     <use style="fill:#ff0000;stroke:#ff0000;" x="375.51172" xlink:href="#ma73f889677" y="117.01864"/>
     <use style="fill:#ff0000;stroke:#ff0000;" x="376.510657" xlink:href="#ma73f889677" y="117.01864"/>
     <use style="fill:#ff0000;stroke:#ff0000;" x="377.509594" xlink:href="#ma73f889677" y="117.01864"/>
     <use style="fill:#ff0000;stroke:#ff0000;" x="378.508531" xlink:href="#ma73f889677" y="117.01864"/>
     <use style="fill:#ff0000;stroke:#ff0000;" x="379.507469" xlink:href="#ma73f889677" y="117.01864"/>
     <use style="fill:#ff0000;stroke:#ff0000;" x="380.506406" xlink:href="#ma73f889677" y="117.01864"/>
     <use style="fill:#ff0000;stroke:#ff0000;" x="381.505343" xlink:href="#ma73f889677" y="117.01864"/>
     <use style="fill:#ff0000;stroke:#ff0000;" x="382.50428" xlink:href="#ma73f889677" y="117.01864"/>
     <use style="fill:#ff0000;stroke:#ff0000;" x="383.503217" xlink:href="#ma73f889677" y="117.01864"/>
     <use style="fill:#ff0000;stroke:#ff0000;" x="384.502154" xlink:href="#ma73f889677" y="117.01864"/>
     <use style="fill:#ff0000;stroke:#ff0000;" x="385.501091" xlink:href="#ma73f889677" y="117.01864"/>
     <use style="fill:#ff0000;stroke:#ff0000;" x="386.500028" xlink:href="#ma73f889677" y="117.01864"/>
     <use style="fill:#ff0000;stroke:#ff0000;" x="387.498965" xlink:href="#ma73f889677" y="117.01864"/>
     <use style="fill:#ff0000;stroke:#ff0000;" x="388.497902" xlink:href="#ma73f889677" y="117.01864"/>
     <use style="fill:#ff0000;stroke:#ff0000;" x="389.496839" xlink:href="#ma73f889677" y="117.01864"/>
     <use style="fill:#ff0000;stroke:#ff0000;" x="390.495776" xlink:href="#ma73f889677" y="117.01864"/>
     <use style="fill:#ff0000;stroke:#ff0000;" x="391.494713" xlink:href="#ma73f889677" y="117.01864"/>
     <use style="fill:#ff0000;stroke:#ff0000;" x="392.49365" xlink:href="#ma73f889677" y="117.01864"/>
     <use style="fill:#ff0000;stroke:#ff0000;" x="393.492587" xlink:href="#ma73f889677" y="117.01864"/>
     <use style="fill:#ff0000;stroke:#ff0000;" x="394.491524" xlink:href="#ma73f889677" y="117.01864"/>
     <use style="fill:#ff0000;stroke:#ff0000;" x="395.490462" xlink:href="#ma73f889677" y="117.01864"/>
     <use style="fill:#ff0000;stroke:#ff0000;" x="396.489399" xlink:href="#ma73f889677" y="117.01864"/>
     <use style="fill:#ff0000;stroke:#ff0000;" x="397.488336" xlink:href="#ma73f889677" y="117.01864"/>
     <use style="fill:#ff0000;stroke:#ff0000;" x="398.487273" xlink:href="#ma73f889677" y="117.01864"/>
    </g>
   </g>
   <g id="patch_3">
    <path d="M 57.6 307.584 
L 57.6 41.472 
" style="fill:none;stroke:#000000;stroke-linecap:square;stroke-linejoin:miter;stroke-width:0.8;"/>
   </g>
   <g id="patch_4">
    <path d="M 414.72 307.584 
L 414.72 41.472 
" style="fill:none;stroke:#000000;stroke-linecap:square;stroke-linejoin:miter;stroke-width:0.8;"/>
   </g>
   <g id="patch_5">
    <path d="M 57.6 307.584 
L 414.72 307.584 
" style="fill:none;stroke:#000000;stroke-linecap:square;stroke-linejoin:miter;stroke-width:0.8;"/>
   </g>
   <g id="patch_6">
    <path d="M 57.6 41.472 
L 414.72 41.472 
" style="fill:none;stroke:#000000;stroke-linecap:square;stroke-linejoin:miter;stroke-width:0.8;"/>
   </g>
  </g>
 </g>
 <defs>
  <clipPath id="p8be3d24b8a">
   <rect height="266.112" width="357.12" x="57.6" y="41.472"/>
  </clipPath>
 </defs>
</svg>
