<?xml version="1.0" encoding="utf-8" standalone="no"?>
<!DOCTYPE svg PUBLIC "-//W3C//DTD SVG 1.1//EN"
  "http://www.w3.org/Graphics/SVG/1.1/DTD/svg11.dtd">
<!-- Created with matplotlib (https://matplotlib.org/) -->
<svg height="345.6pt" version="1.1" viewBox="0 0 460.8 345.6" width="460.8pt" xmlns="http://www.w3.org/2000/svg" xmlns:xlink="http://www.w3.org/1999/xlink">
 <defs>
  <style type="text/css">
*{stroke-linecap:butt;stroke-linejoin:round;}
  </style>
 </defs>
 <g id="figure_1">
  <g id="patch_1">
   <path d="M 0 345.6 
L 460.8 345.6 
L 460.8 0 
L 0 0 
z
" style="fill:#ffffff;"/>
  </g>
  <g id="axes_1">
   <g id="patch_2">
    <path d="M 57.6 307.584 
L 414.72 307.584 
L 414.72 41.472 
L 57.6 41.472 
z
" style="fill:#ffffff;"/>
   </g>
   <g id="line2d_1">
    <path clip-path="url(#pefcbd31d7e)" d="M 73.832727 210.306679 
L 75.559613 131.937339 
L 77.286499 131.937339 
L 79.013385 53.568 
L 82.467157 53.568 
L 84.194043 136.302759 
L 89.3747 136.302759 
L 91.101586 56.47585 
L 92.828472 56.47585 
L 94.555358 138.472698 
L 96.282244 213.402957 
L 99.736015 213.402957 
L 101.462901 293.12656 
L 106.643559 293.12656 
L 108.370445 218.362937 
L 110.097331 218.362937 
L 111.824217 140.592562 
L 115.277988 140.592562 
L 117.004874 231.074527 
L 118.73176 231.074527 
L 120.458646 203.409389 
L 122.185532 203.409389 
L 123.912418 176.093208 
L 125.639304 176.093208 
L 127.36619 171.427021 
L 129.093075 171.427021 
L 130.819961 175.28987 
L 132.546847 201.780936 
L 134.273733 201.780936 
L 136.000619 174.99724 
L 137.727505 174.99724 
L 139.454391 177.349046 
L 141.181277 177.349046 
L 142.908162 203.465246 
L 148.08882 203.465246 
L 149.815706 196.656902 
L 151.542592 196.656902 
L 153.269478 170.201245 
L 154.996364 198.653227 
L 156.72325 198.653227 
L 158.450135 224.706944 
L 160.177021 224.706944 
L 161.903907 199.24426 
L 163.630793 223.486472 
L 167.084565 223.486472 
L 168.811451 229.119462 
L 170.538337 223.348483 
L 173.992108 223.348483 
L 175.718994 198.539571 
L 177.44588 198.539571 
L 179.172766 172.606605 
L 184.353424 172.606605 
L 186.080309 146.131845 
L 187.807195 146.131845 
L 189.534081 173.18887 
L 192.987853 173.18887 
L 196.441625 225.312182 
L 198.168511 225.312182 
L 199.895397 249.233926 
L 203.349168 249.233926 
L 205.076054 221.362331 
L 206.80294 221.362331 
L 208.529826 249.130273 
L 210.256712 249.130273 
L 211.983598 242.904551 
L 213.710484 268.72067 
L 218.891141 268.72067 
L 220.618027 240.086341 
L 222.344913 240.086341 
L 224.071799 217.091902 
L 225.798685 217.091902 
L 227.525571 221.165693 
L 229.252456 221.165693 
L 230.979342 195.30209 
L 232.706228 195.30209 
L 234.433114 189.228415 
L 236.16 189.228415 
L 237.886886 213.960478 
L 239.613772 213.960478 
L 241.340658 188.739934 
L 243.067544 188.739934 
L 244.794429 217.702808 
L 246.521315 217.702808 
L 248.248201 244.679344 
L 251.701973 244.679344 
L 253.428859 266.546404 
L 255.155745 266.546404 
L 256.882631 295.488 
L 258.609516 295.488 
L 260.336402 266.517065 
L 277.605261 266.517065 
L 279.332147 239.857495 
L 281.059033 239.857495 
L 284.512805 184.06245 
L 286.239691 184.06245 
L 287.966576 159.031855 
L 291.420348 159.031855 
L 293.147234 162.306555 
L 294.87412 162.306555 
L 296.601006 190.19779 
L 300.054778 190.19779 
L 301.781663 166.550251 
L 303.508549 166.550251 
L 305.235435 188.542133 
L 306.962321 188.542133 
L 308.689207 213.958614 
L 312.142979 213.958614 
L 313.869865 238.218464 
L 315.59675 238.218464 
L 317.323636 210.976308 
L 319.050522 210.976308 
L 320.777408 236.093218 
L 322.504294 210.852751 
L 324.23118 210.852751 
L 325.958066 237.342444 
L 327.684952 237.342444 
L 329.411838 235.666238 
L 331.138723 235.666238 
L 332.865609 208.654794 
L 336.319381 208.654794 
L 338.046267 184.714828 
L 339.773153 184.714828 
L 341.500039 158.430187 
L 343.226925 158.430187 
L 344.95381 186.360153 
L 348.407582 186.360153 
L 350.134468 161.707573 
L 351.861354 161.707573 
L 353.58824 135.447026 
L 355.315126 161.753683 
L 357.042012 161.753683 
L 358.768897 164.112485 
L 360.495783 164.112485 
L 362.222669 140.076103 
L 363.949555 140.076103 
L 365.676441 166.392622 
L 367.403327 166.392622 
L 369.130213 191.008279 
L 370.857099 191.008279 
L 372.583985 162.965045 
L 374.31087 162.965045 
L 376.037756 134.396941 
L 377.764642 136.312683 
L 379.491528 136.312683 
L 381.218414 139.136189 
L 384.672186 139.136189 
L 386.399072 114.927575 
L 389.852843 114.927575 
L 391.579729 142.765529 
L 393.306615 117.01864 
L 398.487273 117.01864 
L 398.487273 117.01864 
" style="fill:none;stroke:#ff0000;stroke-linecap:square;stroke-width:12;"/>
    <defs>
     <path d="M 0 3 
C 0.795609 3 1.55874 2.683901 2.12132 2.12132 
C 2.683901 1.55874 3 0.795609 3 0 
C 3 -0.795609 2.683901 -1.55874 2.12132 -2.12132 
C 1.55874 -2.683901 0.795609 -3 0 -3 
C -0.795609 -3 -1.55874 -2.683901 -2.12132 -2.12132 
C -2.683901 -1.55874 -3 -0.795609 -3 0 
C -3 0.795609 -2.683901 1.55874 -2.12132 2.12132 
C -1.55874 2.683901 -0.795609 3 0 3 
z
" id="m4927c3824e" style="stroke:#ff0000;"/>
    </defs>
    <g clip-path="url(#pefcbd31d7e)">
     <use style="fill:#ff0000;stroke:#ff0000;" x="73.832727" xlink:href="#m4927c3824e" y="210.306679"/>
     <use style="fill:#ff0000;stroke:#ff0000;" x="75.559613" xlink:href="#m4927c3824e" y="131.937339"/>
     <use style="fill:#ff0000;stroke:#ff0000;" x="77.286499" xlink:href="#m4927c3824e" y="131.937339"/>
     <use style="fill:#ff0000;stroke:#ff0000;" x="79.013385" xlink:href="#m4927c3824e" y="53.568"/>
     <use style="fill:#ff0000;stroke:#ff0000;" x="80.740271" xlink:href="#m4927c3824e" y="53.568"/>
     <use style="fill:#ff0000;stroke:#ff0000;" x="82.467157" xlink:href="#m4927c3824e" y="53.568"/>
     <use style="fill:#ff0000;stroke:#ff0000;" x="84.194043" xlink:href="#m4927c3824e" y="136.302759"/>
     <use style="fill:#ff0000;stroke:#ff0000;" x="85.920928" xlink:href="#m4927c3824e" y="136.302759"/>
     <use style="fill:#ff0000;stroke:#ff0000;" x="87.647814" xlink:href="#m4927c3824e" y="136.302759"/>
     <use style="fill:#ff0000;stroke:#ff0000;" x="89.3747" xlink:href="#m4927c3824e" y="136.302759"/>
     <use style="fill:#ff0000;stroke:#ff0000;" x="91.101586" xlink:href="#m4927c3824e" y="56.47585"/>
     <use style="fill:#ff0000;stroke:#ff0000;" x="92.828472" xlink:href="#m4927c3824e" y="56.47585"/>
     <use style="fill:#ff0000;stroke:#ff0000;" x="94.555358" xlink:href="#m4927c3824e" y="138.472698"/>
     <use style="fill:#ff0000;stroke:#ff0000;" x="96.282244" xlink:href="#m4927c3824e" y="213.402957"/>
     <use style="fill:#ff0000;stroke:#ff0000;" x="98.00913" xlink:href="#m4927c3824e" y="213.402957"/>
     <use style="fill:#ff0000;stroke:#ff0000;" x="99.736015" xlink:href="#m4927c3824e" y="213.402957"/>
     <use style="fill:#ff0000;stroke:#ff0000;" x="101.462901" xlink:href="#m4927c3824e" y="293.12656"/>
     <use style="fill:#ff0000;stroke:#ff0000;" x="103.189787" xlink:href="#m4927c3824e" y="293.12656"/>
     <use style="fill:#ff0000;stroke:#ff0000;" x="104.916673" xlink:href="#m4927c3824e" y="293.12656"/>
     <use style="fill:#ff0000;stroke:#ff0000;" x="106.643559" xlink:href="#m4927c3824e" y="293.12656"/>
     <use style="fill:#ff0000;stroke:#ff0000;" x="108.370445" xlink:href="#m4927c3824e" y="218.362937"/>
     <use style="fill:#ff0000;stroke:#ff0000;" x="110.097331" xlink:href="#m4927c3824e" y="218.362937"/>
     <use style="fill:#ff0000;stroke:#ff0000;" x="111.824217" xlink:href="#m4927c3824e" y="140.592562"/>
     <use style="fill:#ff0000;stroke:#ff0000;" x="113.551103" xlink:href="#m4927c3824e" y="140.592562"/>
     <use style="fill:#ff0000;stroke:#ff0000;" x="115.277988" xlink:href="#m4927c3824e" y="140.592562"/>
     <use style="fill:#ff0000;stroke:#ff0000;" x="117.004874" xlink:href="#m4927c3824e" y="231.074527"/>
     <use style="fill:#ff0000;stroke:#ff0000;" x="118.73176" xlink:href="#m4927c3824e" y="231.074527"/>
     <use style="fill:#ff0000;stroke:#ff0000;" x="120.458646" xlink:href="#m4927c3824e" y="203.409389"/>
     <use style="fill:#ff0000;stroke:#ff0000;" x="122.185532" xlink:href="#m4927c3824e" y="203.409389"/>
     <use style="fill:#ff0000;stroke:#ff0000;" x="123.912418" xlink:href="#m4927c3824e" y="176.093208"/>
     <use style="fill:#ff0000;stroke:#ff0000;" x="125.639304" xlink:href="#m4927c3824e" y="176.093208"/>
     <use style="fill:#ff0000;stroke:#ff0000;" x="127.36619" xlink:href="#m4927c3824e" y="171.427021"/>
     <use style="fill:#ff0000;stroke:#ff0000;" x="129.093075" xlink:href="#m4927c3824e" y="171.427021"/>
     <use style="fill:#ff0000;stroke:#ff0000;" x="130.819961" xlink:href="#m4927c3824e" y="175.28987"/>
     <use style="fill:#ff0000;stroke:#ff0000;" x="132.546847" xlink:href="#m4927c3824e" y="201.780936"/>
     <use style="fill:#ff0000;stroke:#ff0000;" x="134.273733" xlink:href="#m4927c3824e" y="201.780936"/>
     <use style="fill:#ff0000;stroke:#ff0000;" x="136.000619" xlink:href="#m4927c3824e" y="174.99724"/>
     <use style="fill:#ff0000;stroke:#ff0000;" x="137.727505" xlink:href="#m4927c3824e" y="174.99724"/>
     <use style="fill:#ff0000;stroke:#ff0000;" x="139.454391" xlink:href="#m4927c3824e" y="177.349046"/>
     <use style="fill:#ff0000;stroke:#ff0000;" x="141.181277" xlink:href="#m4927c3824e" y="177.349046"/>
     <use style="fill:#ff0000;stroke:#ff0000;" x="142.908162" xlink:href="#m4927c3824e" y="203.465246"/>
     <use style="fill:#ff0000;stroke:#ff0000;" x="144.635048" xlink:href="#m4927c3824e" y="203.465246"/>
     <use style="fill:#ff0000;stroke:#ff0000;" x="146.361934" xlink:href="#m4927c3824e" y="203.465246"/>
     <use style="fill:#ff0000;stroke:#ff0000;" x="148.08882" xlink:href="#m4927c3824e" y="203.465246"/>
     <use style="fill:#ff0000;stroke:#ff0000;" x="149.815706" xlink:href="#m4927c3824e" y="196.656902"/>
     <use style="fill:#ff0000;stroke:#ff0000;" x="151.542592" xlink:href="#m4927c3824e" y="196.656902"/>
     <use style="fill:#ff0000;stroke:#ff0000;" x="153.269478" xlink:href="#m4927c3824e" y="170.201245"/>
     <use style="fill:#ff0000;stroke:#ff0000;" x="154.996364" xlink:href="#m4927c3824e" y="198.653227"/>
     <use style="fill:#ff0000;stroke:#ff0000;" x="156.72325" xlink:href="#m4927c3824e" y="198.653227"/>
     <use style="fill:#ff0000;stroke:#ff0000;" x="158.450135" xlink:href="#m4927c3824e" y="224.706944"/>
     <use style="fill:#ff0000;stroke:#ff0000;" x="160.177021" xlink:href="#m4927c3824e" y="224.706944"/>
     <use style="fill:#ff0000;stroke:#ff0000;" x="161.903907" xlink:href="#m4927c3824e" y="199.24426"/>
     <use style="fill:#ff0000;stroke:#ff0000;" x="163.630793" xlink:href="#m4927c3824e" y="223.486472"/>
     <use style="fill:#ff0000;stroke:#ff0000;" x="165.357679" xlink:href="#m4927c3824e" y="223.486472"/>
     <use style="fill:#ff0000;stroke:#ff0000;" x="167.084565" xlink:href="#m4927c3824e" y="223.486472"/>
     <use style="fill:#ff0000;stroke:#ff0000;" x="168.811451" xlink:href="#m4927c3824e" y="229.119462"/>
     <use style="fill:#ff0000;stroke:#ff0000;" x="170.538337" xlink:href="#m4927c3824e" y="223.348483"/>
     <use style="fill:#ff0000;stroke:#ff0000;" x="172.265222" xlink:href="#m4927c3824e" y="223.348483"/>
     <use style="fill:#ff0000;stroke:#ff0000;" x="173.992108" xlink:href="#m4927c3824e" y="223.348483"/>
     <use style="fill:#ff0000;stroke:#ff0000;" x="175.718994" xlink:href="#m4927c3824e" y="198.539571"/>
     <use style="fill:#ff0000;stroke:#ff0000;" x="177.44588" xlink:href="#m4927c3824e" y="198.539571"/>
     <use style="fill:#ff0000;stroke:#ff0000;" x="179.172766" xlink:href="#m4927c3824e" y="172.606605"/>
     <use style="fill:#ff0000;stroke:#ff0000;" x="180.899652" xlink:href="#m4927c3824e" y="172.606605"/>
     <use style="fill:#ff0000;stroke:#ff0000;" x="182.626538" xlink:href="#m4927c3824e" y="172.606605"/>
     <use style="fill:#ff0000;stroke:#ff0000;" x="184.353424" xlink:href="#m4927c3824e" y="172.606605"/>
     <use style="fill:#ff0000;stroke:#ff0000;" x="186.080309" xlink:href="#m4927c3824e" y="146.131845"/>
     <use style="fill:#ff0000;stroke:#ff0000;" x="187.807195" xlink:href="#m4927c3824e" y="146.131845"/>
     <use style="fill:#ff0000;stroke:#ff0000;" x="189.534081" xlink:href="#m4927c3824e" y="173.18887"/>
     <use style="fill:#ff0000;stroke:#ff0000;" x="191.260967" xlink:href="#m4927c3824e" y="173.18887"/>
     <use style="fill:#ff0000;stroke:#ff0000;" x="192.987853" xlink:href="#m4927c3824e" y="173.18887"/>
     <use style="fill:#ff0000;stroke:#ff0000;" x="194.714739" xlink:href="#m4927c3824e" y="199.910062"/>
     <use style="fill:#ff0000;stroke:#ff0000;" x="196.441625" xlink:href="#m4927c3824e" y="225.312182"/>
     <use style="fill:#ff0000;stroke:#ff0000;" x="198.168511" xlink:href="#m4927c3824e" y="225.312182"/>
     <use style="fill:#ff0000;stroke:#ff0000;" x="199.895397" xlink:href="#m4927c3824e" y="249.233926"/>
     <use style="fill:#ff0000;stroke:#ff0000;" x="201.622282" xlink:href="#m4927c3824e" y="249.233926"/>
     <use style="fill:#ff0000;stroke:#ff0000;" x="203.349168" xlink:href="#m4927c3824e" y="249.233926"/>
     <use style="fill:#ff0000;stroke:#ff0000;" x="205.076054" xlink:href="#m4927c3824e" y="221.362331"/>
     <use style="fill:#ff0000;stroke:#ff0000;" x="206.80294" xlink:href="#m4927c3824e" y="221.362331"/>
     <use style="fill:#ff0000;stroke:#ff0000;" x="208.529826" xlink:href="#m4927c3824e" y="249.130273"/>
     <use style="fill:#ff0000;stroke:#ff0000;" x="210.256712" xlink:href="#m4927c3824e" y="249.130273"/>
     <use style="fill:#ff0000;stroke:#ff0000;" x="211.983598" xlink:href="#m4927c3824e" y="242.904551"/>
     <use style="fill:#ff0000;stroke:#ff0000;" x="213.710484" xlink:href="#m4927c3824e" y="268.72067"/>
     <use style="fill:#ff0000;stroke:#ff0000;" x="215.437369" xlink:href="#m4927c3824e" y="268.72067"/>
     <use style="fill:#ff0000;stroke:#ff0000;" x="217.164255" xlink:href="#m4927c3824e" y="268.72067"/>
     <use style="fill:#ff0000;stroke:#ff0000;" x="218.891141" xlink:href="#m4927c3824e" y="268.72067"/>
     <use style="fill:#ff0000;stroke:#ff0000;" x="220.618027" xlink:href="#m4927c3824e" y="240.086341"/>
     <use style="fill:#ff0000;stroke:#ff0000;" x="222.344913" xlink:href="#m4927c3824e" y="240.086341"/>
     <use style="fill:#ff0000;stroke:#ff0000;" x="224.071799" xlink:href="#m4927c3824e" y="217.091902"/>
     <use style="fill:#ff0000;stroke:#ff0000;" x="225.798685" xlink:href="#m4927c3824e" y="217.091902"/>
     <use style="fill:#ff0000;stroke:#ff0000;" x="227.525571" xlink:href="#m4927c3824e" y="221.165693"/>
     <use style="fill:#ff0000;stroke:#ff0000;" x="229.252456" xlink:href="#m4927c3824e" y="221.165693"/>
     <use style="fill:#ff0000;stroke:#ff0000;" x="230.979342" xlink:href="#m4927c3824e" y="195.30209"/>
     <use style="fill:#ff0000;stroke:#ff0000;" x="232.706228" xlink:href="#m4927c3824e" y="195.30209"/>
     <use style="fill:#ff0000;stroke:#ff0000;" x="234.433114" xlink:href="#m4927c3824e" y="189.228415"/>
     <use style="fill:#ff0000;stroke:#ff0000;" x="236.16" xlink:href="#m4927c3824e" y="189.228415"/>
     <use style="fill:#ff0000;stroke:#ff0000;" x="237.886886" xlink:href="#m4927c3824e" y="213.960478"/>
     <use style="fill:#ff0000;stroke:#ff0000;" x="239.613772" xlink:href="#m4927c3824e" y="213.960478"/>
     <use style="fill:#ff0000;stroke:#ff0000;" x="241.340658" xlink:href="#m4927c3824e" y="188.739934"/>
     <use style="fill:#ff0000;stroke:#ff0000;" x="243.067544" xlink:href="#m4927c3824e" y="188.739934"/>
     <use style="fill:#ff0000;stroke:#ff0000;" x="244.794429" xlink:href="#m4927c3824e" y="217.702808"/>
     <use style="fill:#ff0000;stroke:#ff0000;" x="246.521315" xlink:href="#m4927c3824e" y="217.702808"/>
     <use style="fill:#ff0000;stroke:#ff0000;" x="248.248201" xlink:href="#m4927c3824e" y="244.679344"/>
     <use style="fill:#ff0000;stroke:#ff0000;" x="249.975087" xlink:href="#m4927c3824e" y="244.679344"/>
     <use style="fill:#ff0000;stroke:#ff0000;" x="251.701973" xlink:href="#m4927c3824e" y="244.679344"/>
     <use style="fill:#ff0000;stroke:#ff0000;" x="253.428859" xlink:href="#m4927c3824e" y="266.546404"/>
     <use style="fill:#ff0000;stroke:#ff0000;" x="255.155745" xlink:href="#m4927c3824e" y="266.546404"/>
     <use style="fill:#ff0000;stroke:#ff0000;" x="256.882631" xlink:href="#m4927c3824e" y="295.488"/>
     <use style="fill:#ff0000;stroke:#ff0000;" x="258.609516" xlink:href="#m4927c3824e" y="295.488"/>
     <use style="fill:#ff0000;stroke:#ff0000;" x="260.336402" xlink:href="#m4927c3824e" y="266.517065"/>
     <use style="fill:#ff0000;stroke:#ff0000;" x="262.063288" xlink:href="#m4927c3824e" y="266.517065"/>
     <use style="fill:#ff0000;stroke:#ff0000;" x="263.790174" xlink:href="#m4927c3824e" y="266.517065"/>
     <use style="fill:#ff0000;stroke:#ff0000;" x="265.51706" xlink:href="#m4927c3824e" y="266.517065"/>
     <use style="fill:#ff0000;stroke:#ff0000;" x="267.243946" xlink:href="#m4927c3824e" y="266.517065"/>
     <use style="fill:#ff0000;stroke:#ff0000;" x="268.970832" xlink:href="#m4927c3824e" y="266.517065"/>
     <use style="fill:#ff0000;stroke:#ff0000;" x="270.697718" xlink:href="#m4927c3824e" y="266.517065"/>
     <use style="fill:#ff0000;stroke:#ff0000;" x="272.424603" xlink:href="#m4927c3824e" y="266.517065"/>
     <use style="fill:#ff0000;stroke:#ff0000;" x="274.151489" xlink:href="#m4927c3824e" y="266.517065"/>
     <use style="fill:#ff0000;stroke:#ff0000;" x="275.878375" xlink:href="#m4927c3824e" y="266.517065"/>
     <use style="fill:#ff0000;stroke:#ff0000;" x="277.605261" xlink:href="#m4927c3824e" y="266.517065"/>
     <use style="fill:#ff0000;stroke:#ff0000;" x="279.332147" xlink:href="#m4927c3824e" y="239.857495"/>
     <use style="fill:#ff0000;stroke:#ff0000;" x="281.059033" xlink:href="#m4927c3824e" y="239.857495"/>
     <use style="fill:#ff0000;stroke:#ff0000;" x="282.785919" xlink:href="#m4927c3824e" y="212.557997"/>
     <use style="fill:#ff0000;stroke:#ff0000;" x="284.512805" xlink:href="#m4927c3824e" y="184.06245"/>
     <use style="fill:#ff0000;stroke:#ff0000;" x="286.239691" xlink:href="#m4927c3824e" y="184.06245"/>
     <use style="fill:#ff0000;stroke:#ff0000;" x="287.966576" xlink:href="#m4927c3824e" y="159.031855"/>
     <use style="fill:#ff0000;stroke:#ff0000;" x="289.693462" xlink:href="#m4927c3824e" y="159.031855"/>
     <use style="fill:#ff0000;stroke:#ff0000;" x="291.420348" xlink:href="#m4927c3824e" y="159.031855"/>
     <use style="fill:#ff0000;stroke:#ff0000;" x="293.147234" xlink:href="#m4927c3824e" y="162.306555"/>
     <use style="fill:#ff0000;stroke:#ff0000;" x="294.87412" xlink:href="#m4927c3824e" y="162.306555"/>
     <use style="fill:#ff0000;stroke:#ff0000;" x="296.601006" xlink:href="#m4927c3824e" y="190.19779"/>
     <use style="fill:#ff0000;stroke:#ff0000;" x="298.327892" xlink:href="#m4927c3824e" y="190.19779"/>
     <use style="fill:#ff0000;stroke:#ff0000;" x="300.054778" xlink:href="#m4927c3824e" y="190.19779"/>
     <use style="fill:#ff0000;stroke:#ff0000;" x="301.781663" xlink:href="#m4927c3824e" y="166.550251"/>
     <use style="fill:#ff0000;stroke:#ff0000;" x="303.508549" xlink:href="#m4927c3824e" y="166.550251"/>
     <use style="fill:#ff0000;stroke:#ff0000;" x="305.235435" xlink:href="#m4927c3824e" y="188.542133"/>
     <use style="fill:#ff0000;stroke:#ff0000;" x="306.962321" xlink:href="#m4927c3824e" y="188.542133"/>
     <use style="fill:#ff0000;stroke:#ff0000;" x="308.689207" xlink:href="#m4927c3824e" y="213.958614"/>
     <use style="fill:#ff0000;stroke:#ff0000;" x="310.416093" xlink:href="#m4927c3824e" y="213.958614"/>
     <use style="fill:#ff0000;stroke:#ff0000;" x="312.142979" xlink:href="#m4927c3824e" y="213.958614"/>
     <use style="fill:#ff0000;stroke:#ff0000;" x="313.869865" xlink:href="#m4927c3824e" y="238.218464"/>
     <use style="fill:#ff0000;stroke:#ff0000;" x="315.59675" xlink:href="#m4927c3824e" y="238.218464"/>
     <use style="fill:#ff0000;stroke:#ff0000;" x="317.323636" xlink:href="#m4927c3824e" y="210.976308"/>
     <use style="fill:#ff0000;stroke:#ff0000;" x="319.050522" xlink:href="#m4927c3824e" y="210.976308"/>
     <use style="fill:#ff0000;stroke:#ff0000;" x="320.777408" xlink:href="#m4927c3824e" y="236.093218"/>
     <use style="fill:#ff0000;stroke:#ff0000;" x="322.504294" xlink:href="#m4927c3824e" y="210.852751"/>
     <use style="fill:#ff0000;stroke:#ff0000;" x="324.23118" xlink:href="#m4927c3824e" y="210.852751"/>
     <use style="fill:#ff0000;stroke:#ff0000;" x="325.958066" xlink:href="#m4927c3824e" y="237.342444"/>
     <use style="fill:#ff0000;stroke:#ff0000;" x="327.684952" xlink:href="#m4927c3824e" y="237.342444"/>
     <use style="fill:#ff0000;stroke:#ff0000;" x="329.411838" xlink:href="#m4927c3824e" y="235.666238"/>
     <use style="fill:#ff0000;stroke:#ff0000;" x="331.138723" xlink:href="#m4927c3824e" y="235.666238"/>
     <use style="fill:#ff0000;stroke:#ff0000;" x="332.865609" xlink:href="#m4927c3824e" y="208.654794"/>
     <use style="fill:#ff0000;stroke:#ff0000;" x="334.592495" xlink:href="#m4927c3824e" y="208.654794"/>
     <use style="fill:#ff0000;stroke:#ff0000;" x="336.319381" xlink:href="#m4927c3824e" y="208.654794"/>
     <use style="fill:#ff0000;stroke:#ff0000;" x="338.046267" xlink:href="#m4927c3824e" y="184.714828"/>
     <use style="fill:#ff0000;stroke:#ff0000;" x="339.773153" xlink:href="#m4927c3824e" y="184.714828"/>
     <use style="fill:#ff0000;stroke:#ff0000;" x="341.500039" xlink:href="#m4927c3824e" y="158.430187"/>
     <use style="fill:#ff0000;stroke:#ff0000;" x="343.226925" xlink:href="#m4927c3824e" y="158.430187"/>
     <use style="fill:#ff0000;stroke:#ff0000;" x="344.95381" xlink:href="#m4927c3824e" y="186.360153"/>
     <use style="fill:#ff0000;stroke:#ff0000;" x="346.680696" xlink:href="#m4927c3824e" y="186.360153"/>
     <use style="fill:#ff0000;stroke:#ff0000;" x="348.407582" xlink:href="#m4927c3824e" y="186.360153"/>
     <use style="fill:#ff0000;stroke:#ff0000;" x="350.134468" xlink:href="#m4927c3824e" y="161.707573"/>
     <use style="fill:#ff0000;stroke:#ff0000;" x="351.861354" xlink:href="#m4927c3824e" y="161.707573"/>
     <use style="fill:#ff0000;stroke:#ff0000;" x="353.58824" xlink:href="#m4927c3824e" y="135.447026"/>
     <use style="fill:#ff0000;stroke:#ff0000;" x="355.315126" xlink:href="#m4927c3824e" y="161.753683"/>
     <use style="fill:#ff0000;stroke:#ff0000;" x="357.042012" xlink:href="#m4927c3824e" y="161.753683"/>
     <use style="fill:#ff0000;stroke:#ff0000;" x="358.768897" xlink:href="#m4927c3824e" y="164.112485"/>
     <use style="fill:#ff0000;stroke:#ff0000;" x="360.495783" xlink:href="#m4927c3824e" y="164.112485"/>
     <use style="fill:#ff0000;stroke:#ff0000;" x="362.222669" xlink:href="#m4927c3824e" y="140.076103"/>
     <use style="fill:#ff0000;stroke:#ff0000;" x="363.949555" xlink:href="#m4927c3824e" y="140.076103"/>
     <use style="fill:#ff0000;stroke:#ff0000;" x="365.676441" xlink:href="#m4927c3824e" y="166.392622"/>
     <use style="fill:#ff0000;stroke:#ff0000;" x="367.403327" xlink:href="#m4927c3824e" y="166.392622"/>
     <use style="fill:#ff0000;stroke:#ff0000;" x="369.130213" xlink:href="#m4927c3824e" y="191.008279"/>
     <use style="fill:#ff0000;stroke:#ff0000;" x="370.857099" xlink:href="#m4927c3824e" y="191.008279"/>
     <use style="fill:#ff0000;stroke:#ff0000;" x="372.583985" xlink:href="#m4927c3824e" y="162.965045"/>
     <use style="fill:#ff0000;stroke:#ff0000;" x="374.31087" xlink:href="#m4927c3824e" y="162.965045"/>
     <use style="fill:#ff0000;stroke:#ff0000;" x="376.037756" xlink:href="#m4927c3824e" y="134.396941"/>
     <use style="fill:#ff0000;stroke:#ff0000;" x="377.764642" xlink:href="#m4927c3824e" y="136.312683"/>
     <use style="fill:#ff0000;stroke:#ff0000;" x="379.491528" xlink:href="#m4927c3824e" y="136.312683"/>
     <use style="fill:#ff0000;stroke:#ff0000;" x="381.218414" xlink:href="#m4927c3824e" y="139.136189"/>
     <use style="fill:#ff0000;stroke:#ff0000;" x="382.9453" xlink:href="#m4927c3824e" y="139.136189"/>
     <use style="fill:#ff0000;stroke:#ff0000;" x="384.672186" xlink:href="#m4927c3824e" y="139.136189"/>
     <use style="fill:#ff0000;stroke:#ff0000;" x="386.399072" xlink:href="#m4927c3824e" y="114.927575"/>
     <use style="fill:#ff0000;stroke:#ff0000;" x="388.125957" xlink:href="#m4927c3824e" y="114.927575"/>
     <use style="fill:#ff0000;stroke:#ff0000;" x="389.852843" xlink:href="#m4927c3824e" y="114.927575"/>
     <use style="fill:#ff0000;stroke:#ff0000;" x="391.579729" xlink:href="#m4927c3824e" y="142.765529"/>
     <use style="fill:#ff0000;stroke:#ff0000;" x="393.306615" xlink:href="#m4927c3824e" y="117.01864"/>
     <use style="fill:#ff0000;stroke:#ff0000;" x="395.033501" xlink:href="#m4927c3824e" y="117.01864"/>
     <use style="fill:#ff0000;stroke:#ff0000;" x="396.760387" xlink:href="#m4927c3824e" y="117.01864"/>
     <use style="fill:#ff0000;stroke:#ff0000;" x="398.487273" xlink:href="#m4927c3824e" y="117.01864"/>
    </g>
   </g>
   <g id="patch_3">
    <path d="M 57.6 307.584 
L 57.6 41.472 
" style="fill:none;stroke:#000000;stroke-linecap:square;stroke-linejoin:miter;stroke-width:0.8;"/>
   </g>
   <g id="patch_4">
    <path d="M 414.72 307.584 
L 414.72 41.472 
" style="fill:none;stroke:#000000;stroke-linecap:square;stroke-linejoin:miter;stroke-width:0.8;"/>
   </g>
   <g id="patch_5">
    <path d="M 57.6 307.584 
L 414.72 307.584 
" style="fill:none;stroke:#000000;stroke-linecap:square;stroke-linejoin:miter;stroke-width:0.8;"/>
   </g>
   <g id="patch_6">
    <path d="M 57.6 41.472 
L 414.72 41.472 
" style="fill:none;stroke:#000000;stroke-linecap:square;stroke-linejoin:miter;stroke-width:0.8;"/>
   </g>
  </g>
 </g>
 <defs>
  <clipPath id="pefcbd31d7e">
   <rect height="266.112" width="357.12" x="57.6" y="41.472"/>
  </clipPath>
 </defs>
</svg>
