<?xml version="1.0" encoding="utf-8" standalone="no"?>
<!DOCTYPE svg PUBLIC "-//W3C//DTD SVG 1.1//EN"
  "http://www.w3.org/Graphics/SVG/1.1/DTD/svg11.dtd">
<!-- Created with matplotlib (https://matplotlib.org/) -->
<svg height="345.6pt" version="1.1" viewBox="0 0 460.8 345.6" width="460.8pt" xmlns="http://www.w3.org/2000/svg" xmlns:xlink="http://www.w3.org/1999/xlink">
 <defs>
  <style type="text/css">
*{stroke-linecap:butt;stroke-linejoin:round;}
  </style>
 </defs>
 <g id="figure_1">
  <g id="patch_1">
   <path d="M 0 345.6 
L 460.8 345.6 
L 460.8 0 
L 0 0 
z
" style="fill:#ffffff;"/>
  </g>
  <g id="axes_1">
   <g id="patch_2">
    <path d="M 57.6 307.584 
L 414.72 307.584 
L 414.72 41.472 
L 57.6 41.472 
z
" style="fill:#ffffff;"/>
   </g>
   <g id="line2d_1">
    <path clip-path="url(#pb9849f795e)" d="M 73.832727 210.306679 
L 75.349805 131.937339 
L 76.866882 131.937339 
L 78.383959 53.568 
L 81.418114 53.568 
L 82.935191 136.302759 
L 87.486423 136.302759 
L 89.0035 56.47585 
L 90.520578 56.47585 
L 92.037655 138.472698 
L 93.554732 213.402957 
L 96.588887 213.402957 
L 98.105964 293.12656 
L 102.657196 293.12656 
L 104.174274 218.362937 
L 105.691351 218.362937 
L 107.208428 140.592562 
L 110.242583 140.592562 
L 111.75966 231.074527 
L 113.276737 231.074527 
L 114.793815 203.409389 
L 116.310892 203.409389 
L 117.827969 176.093208 
L 119.345047 176.093208 
L 120.862124 171.427021 
L 122.379201 171.427021 
L 123.896279 175.28987 
L 125.413356 201.780936 
L 126.930433 201.780936 
L 128.447511 174.99724 
L 129.964588 174.99724 
L 131.481665 177.349046 
L 132.998743 177.349046 
L 134.51582 203.465246 
L 139.067052 203.465246 
L 140.584129 196.656902 
L 142.101206 196.656902 
L 143.618284 170.201245 
L 145.135361 198.653227 
L 146.652438 198.653227 
L 148.169516 224.706944 
L 149.686593 224.706944 
L 151.20367 199.24426 
L 152.720748 223.486472 
L 155.754902 223.486472 
L 157.27198 229.119462 
L 158.789057 223.348483 
L 161.823212 223.348483 
L 163.340289 198.539571 
L 164.857366 198.539571 
L 166.374444 172.606605 
L 170.925675 172.606605 
L 172.442753 146.131845 
L 173.95983 146.131845 
L 175.476907 173.18887 
L 178.511062 173.18887 
L 181.545217 225.312182 
L 183.062294 225.312182 
L 184.579371 249.233926 
L 187.613526 249.233926 
L 189.130603 221.362331 
L 190.647681 221.362331 
L 192.164758 249.130273 
L 193.681835 249.130273 
L 195.198912 242.904551 
L 196.71599 268.72067 
L 201.267222 268.72067 
L 202.784299 240.086341 
L 204.301376 240.086341 
L 205.818454 217.091902 
L 207.335531 217.091902 
L 208.852608 221.165693 
L 210.369686 221.165693 
L 211.886763 195.30209 
L 213.40384 195.30209 
L 214.920918 189.228415 
L 216.437995 189.228415 
L 217.955072 213.960478 
L 219.47215 213.960478 
L 220.989227 188.739934 
L 222.506304 188.739934 
L 224.023381 217.702808 
L 225.540459 217.702808 
L 227.057536 244.679344 
L 230.091691 244.679344 
L 231.608768 266.546404 
L 233.125845 266.546404 
L 234.642923 295.488 
L 236.16 295.488 
L 237.677077 266.517065 
L 252.84785 266.517065 
L 254.364928 239.857495 
L 255.882005 239.857495 
L 258.91616 184.06245 
L 260.433237 184.06245 
L 261.950314 159.031855 
L 264.984469 159.031855 
L 266.501546 162.306555 
L 268.018624 162.306555 
L 269.535701 190.19779 
L 272.569856 190.19779 
L 274.086933 166.550251 
L 275.60401 166.550251 
L 277.121088 188.542133 
L 278.638165 188.542133 
L 280.155242 213.958614 
L 283.189397 213.958614 
L 284.706474 238.218464 
L 286.223551 238.218464 
L 287.740629 210.976308 
L 289.257706 210.976308 
L 290.774783 236.093218 
L 292.291861 210.852751 
L 293.808938 210.852751 
L 295.326015 237.342444 
L 296.843093 237.342444 
L 298.36017 235.666238 
L 299.877247 235.666238 
L 301.394325 208.654794 
L 304.428479 208.654794 
L 305.945556 184.714828 
L 307.462634 184.714828 
L 308.979711 158.430187 
L 310.496788 158.430187 
L 312.013866 186.360153 
L 315.04802 186.360153 
L 316.565098 161.707573 
L 318.082175 161.707573 
L 319.599252 135.447026 
L 321.11633 161.753683 
L 322.633407 161.753683 
L 324.150484 164.112485 
L 325.667562 164.112485 
L 327.184639 140.076103 
L 328.701716 140.076103 
L 330.218794 166.392622 
L 331.735871 166.392622 
L 333.252948 191.008279 
L 334.770025 191.008279 
L 336.287103 162.965045 
L 337.80418 162.965045 
L 339.321257 134.396941 
L 340.838335 136.312683 
L 342.355412 136.312683 
L 343.872489 139.136189 
L 346.906644 139.136189 
L 348.423721 114.927575 
L 351.457876 114.927575 
L 352.974953 142.765529 
L 354.492031 117.01864 
L 398.487273 117.01864 
L 398.487273 117.01864 
" style="fill:none;stroke:#ff0000;stroke-linecap:square;stroke-width:12;"/>
    <defs>
     <path d="M 0 3 
C 0.795609 3 1.55874 2.683901 2.12132 2.12132 
C 2.683901 1.55874 3 0.795609 3 0 
C 3 -0.795609 2.683901 -1.55874 2.12132 -2.12132 
C 1.55874 -2.683901 0.795609 -3 0 -3 
C -0.795609 -3 -1.55874 -2.683901 -2.12132 -2.12132 
C -2.683901 -1.55874 -3 -0.795609 -3 0 
C -3 0.795609 -2.683901 1.55874 -2.12132 2.12132 
C -1.55874 2.683901 -0.795609 3 0 3 
z
" id="md74b2d1743" style="stroke:#ff0000;"/>
    </defs>
    <g clip-path="url(#pb9849f795e)">
     <use style="fill:#ff0000;stroke:#ff0000;" x="73.832727" xlink:href="#md74b2d1743" y="210.306679"/>
     <use style="fill:#ff0000;stroke:#ff0000;" x="75.349805" xlink:href="#md74b2d1743" y="131.937339"/>
     <use style="fill:#ff0000;stroke:#ff0000;" x="76.866882" xlink:href="#md74b2d1743" y="131.937339"/>
     <use style="fill:#ff0000;stroke:#ff0000;" x="78.383959" xlink:href="#md74b2d1743" y="53.568"/>
     <use style="fill:#ff0000;stroke:#ff0000;" x="79.901037" xlink:href="#md74b2d1743" y="53.568"/>
     <use style="fill:#ff0000;stroke:#ff0000;" x="81.418114" xlink:href="#md74b2d1743" y="53.568"/>
     <use style="fill:#ff0000;stroke:#ff0000;" x="82.935191" xlink:href="#md74b2d1743" y="136.302759"/>
     <use style="fill:#ff0000;stroke:#ff0000;" x="84.452268" xlink:href="#md74b2d1743" y="136.302759"/>
     <use style="fill:#ff0000;stroke:#ff0000;" x="85.969346" xlink:href="#md74b2d1743" y="136.302759"/>
     <use style="fill:#ff0000;stroke:#ff0000;" x="87.486423" xlink:href="#md74b2d1743" y="136.302759"/>
     <use style="fill:#ff0000;stroke:#ff0000;" x="89.0035" xlink:href="#md74b2d1743" y="56.47585"/>
     <use style="fill:#ff0000;stroke:#ff0000;" x="90.520578" xlink:href="#md74b2d1743" y="56.47585"/>
     <use style="fill:#ff0000;stroke:#ff0000;" x="92.037655" xlink:href="#md74b2d1743" y="138.472698"/>
     <use style="fill:#ff0000;stroke:#ff0000;" x="93.554732" xlink:href="#md74b2d1743" y="213.402957"/>
     <use style="fill:#ff0000;stroke:#ff0000;" x="95.07181" xlink:href="#md74b2d1743" y="213.402957"/>
     <use style="fill:#ff0000;stroke:#ff0000;" x="96.588887" xlink:href="#md74b2d1743" y="213.402957"/>
     <use style="fill:#ff0000;stroke:#ff0000;" x="98.105964" xlink:href="#md74b2d1743" y="293.12656"/>
     <use style="fill:#ff0000;stroke:#ff0000;" x="99.623042" xlink:href="#md74b2d1743" y="293.12656"/>
     <use style="fill:#ff0000;stroke:#ff0000;" x="101.140119" xlink:href="#md74b2d1743" y="293.12656"/>
     <use style="fill:#ff0000;stroke:#ff0000;" x="102.657196" xlink:href="#md74b2d1743" y="293.12656"/>
     <use style="fill:#ff0000;stroke:#ff0000;" x="104.174274" xlink:href="#md74b2d1743" y="218.362937"/>
     <use style="fill:#ff0000;stroke:#ff0000;" x="105.691351" xlink:href="#md74b2d1743" y="218.362937"/>
     <use style="fill:#ff0000;stroke:#ff0000;" x="107.208428" xlink:href="#md74b2d1743" y="140.592562"/>
     <use style="fill:#ff0000;stroke:#ff0000;" x="108.725506" xlink:href="#md74b2d1743" y="140.592562"/>
     <use style="fill:#ff0000;stroke:#ff0000;" x="110.242583" xlink:href="#md74b2d1743" y="140.592562"/>
     <use style="fill:#ff0000;stroke:#ff0000;" x="111.75966" xlink:href="#md74b2d1743" y="231.074527"/>
     <use style="fill:#ff0000;stroke:#ff0000;" x="113.276737" xlink:href="#md74b2d1743" y="231.074527"/>
     <use style="fill:#ff0000;stroke:#ff0000;" x="114.793815" xlink:href="#md74b2d1743" y="203.409389"/>
     <use style="fill:#ff0000;stroke:#ff0000;" x="116.310892" xlink:href="#md74b2d1743" y="203.409389"/>
     <use style="fill:#ff0000;stroke:#ff0000;" x="117.827969" xlink:href="#md74b2d1743" y="176.093208"/>
     <use style="fill:#ff0000;stroke:#ff0000;" x="119.345047" xlink:href="#md74b2d1743" y="176.093208"/>
     <use style="fill:#ff0000;stroke:#ff0000;" x="120.862124" xlink:href="#md74b2d1743" y="171.427021"/>
     <use style="fill:#ff0000;stroke:#ff0000;" x="122.379201" xlink:href="#md74b2d1743" y="171.427021"/>
     <use style="fill:#ff0000;stroke:#ff0000;" x="123.896279" xlink:href="#md74b2d1743" y="175.28987"/>
     <use style="fill:#ff0000;stroke:#ff0000;" x="125.413356" xlink:href="#md74b2d1743" y="201.780936"/>
     <use style="fill:#ff0000;stroke:#ff0000;" x="126.930433" xlink:href="#md74b2d1743" y="201.780936"/>
     <use style="fill:#ff0000;stroke:#ff0000;" x="128.447511" xlink:href="#md74b2d1743" y="174.99724"/>
     <use style="fill:#ff0000;stroke:#ff0000;" x="129.964588" xlink:href="#md74b2d1743" y="174.99724"/>
     <use style="fill:#ff0000;stroke:#ff0000;" x="131.481665" xlink:href="#md74b2d1743" y="177.349046"/>
     <use style="fill:#ff0000;stroke:#ff0000;" x="132.998743" xlink:href="#md74b2d1743" y="177.349046"/>
     <use style="fill:#ff0000;stroke:#ff0000;" x="134.51582" xlink:href="#md74b2d1743" y="203.465246"/>
     <use style="fill:#ff0000;stroke:#ff0000;" x="136.032897" xlink:href="#md74b2d1743" y="203.465246"/>
     <use style="fill:#ff0000;stroke:#ff0000;" x="137.549975" xlink:href="#md74b2d1743" y="203.465246"/>
     <use style="fill:#ff0000;stroke:#ff0000;" x="139.067052" xlink:href="#md74b2d1743" y="203.465246"/>
     <use style="fill:#ff0000;stroke:#ff0000;" x="140.584129" xlink:href="#md74b2d1743" y="196.656902"/>
     <use style="fill:#ff0000;stroke:#ff0000;" x="142.101206" xlink:href="#md74b2d1743" y="196.656902"/>
     <use style="fill:#ff0000;stroke:#ff0000;" x="143.618284" xlink:href="#md74b2d1743" y="170.201245"/>
     <use style="fill:#ff0000;stroke:#ff0000;" x="145.135361" xlink:href="#md74b2d1743" y="198.653227"/>
     <use style="fill:#ff0000;stroke:#ff0000;" x="146.652438" xlink:href="#md74b2d1743" y="198.653227"/>
     <use style="fill:#ff0000;stroke:#ff0000;" x="148.169516" xlink:href="#md74b2d1743" y="224.706944"/>
     <use style="fill:#ff0000;stroke:#ff0000;" x="149.686593" xlink:href="#md74b2d1743" y="224.706944"/>
     <use style="fill:#ff0000;stroke:#ff0000;" x="151.20367" xlink:href="#md74b2d1743" y="199.24426"/>
     <use style="fill:#ff0000;stroke:#ff0000;" x="152.720748" xlink:href="#md74b2d1743" y="223.486472"/>
     <use style="fill:#ff0000;stroke:#ff0000;" x="154.237825" xlink:href="#md74b2d1743" y="223.486472"/>
     <use style="fill:#ff0000;stroke:#ff0000;" x="155.754902" xlink:href="#md74b2d1743" y="223.486472"/>
     <use style="fill:#ff0000;stroke:#ff0000;" x="157.27198" xlink:href="#md74b2d1743" y="229.119462"/>
     <use style="fill:#ff0000;stroke:#ff0000;" x="158.789057" xlink:href="#md74b2d1743" y="223.348483"/>
     <use style="fill:#ff0000;stroke:#ff0000;" x="160.306134" xlink:href="#md74b2d1743" y="223.348483"/>
     <use style="fill:#ff0000;stroke:#ff0000;" x="161.823212" xlink:href="#md74b2d1743" y="223.348483"/>
     <use style="fill:#ff0000;stroke:#ff0000;" x="163.340289" xlink:href="#md74b2d1743" y="198.539571"/>
     <use style="fill:#ff0000;stroke:#ff0000;" x="164.857366" xlink:href="#md74b2d1743" y="198.539571"/>
     <use style="fill:#ff0000;stroke:#ff0000;" x="166.374444" xlink:href="#md74b2d1743" y="172.606605"/>
     <use style="fill:#ff0000;stroke:#ff0000;" x="167.891521" xlink:href="#md74b2d1743" y="172.606605"/>
     <use style="fill:#ff0000;stroke:#ff0000;" x="169.408598" xlink:href="#md74b2d1743" y="172.606605"/>
     <use style="fill:#ff0000;stroke:#ff0000;" x="170.925675" xlink:href="#md74b2d1743" y="172.606605"/>
     <use style="fill:#ff0000;stroke:#ff0000;" x="172.442753" xlink:href="#md74b2d1743" y="146.131845"/>
     <use style="fill:#ff0000;stroke:#ff0000;" x="173.95983" xlink:href="#md74b2d1743" y="146.131845"/>
     <use style="fill:#ff0000;stroke:#ff0000;" x="175.476907" xlink:href="#md74b2d1743" y="173.18887"/>
     <use style="fill:#ff0000;stroke:#ff0000;" x="176.993985" xlink:href="#md74b2d1743" y="173.18887"/>
     <use style="fill:#ff0000;stroke:#ff0000;" x="178.511062" xlink:href="#md74b2d1743" y="173.18887"/>
     <use style="fill:#ff0000;stroke:#ff0000;" x="180.028139" xlink:href="#md74b2d1743" y="199.910062"/>
     <use style="fill:#ff0000;stroke:#ff0000;" x="181.545217" xlink:href="#md74b2d1743" y="225.312182"/>
     <use style="fill:#ff0000;stroke:#ff0000;" x="183.062294" xlink:href="#md74b2d1743" y="225.312182"/>
     <use style="fill:#ff0000;stroke:#ff0000;" x="184.579371" xlink:href="#md74b2d1743" y="249.233926"/>
     <use style="fill:#ff0000;stroke:#ff0000;" x="186.096449" xlink:href="#md74b2d1743" y="249.233926"/>
     <use style="fill:#ff0000;stroke:#ff0000;" x="187.613526" xlink:href="#md74b2d1743" y="249.233926"/>
     <use style="fill:#ff0000;stroke:#ff0000;" x="189.130603" xlink:href="#md74b2d1743" y="221.362331"/>
     <use style="fill:#ff0000;stroke:#ff0000;" x="190.647681" xlink:href="#md74b2d1743" y="221.362331"/>
     <use style="fill:#ff0000;stroke:#ff0000;" x="192.164758" xlink:href="#md74b2d1743" y="249.130273"/>
     <use style="fill:#ff0000;stroke:#ff0000;" x="193.681835" xlink:href="#md74b2d1743" y="249.130273"/>
     <use style="fill:#ff0000;stroke:#ff0000;" x="195.198912" xlink:href="#md74b2d1743" y="242.904551"/>
     <use style="fill:#ff0000;stroke:#ff0000;" x="196.71599" xlink:href="#md74b2d1743" y="268.72067"/>
     <use style="fill:#ff0000;stroke:#ff0000;" x="198.233067" xlink:href="#md74b2d1743" y="268.72067"/>
     <use style="fill:#ff0000;stroke:#ff0000;" x="199.750144" xlink:href="#md74b2d1743" y="268.72067"/>
     <use style="fill:#ff0000;stroke:#ff0000;" x="201.267222" xlink:href="#md74b2d1743" y="268.72067"/>
     <use style="fill:#ff0000;stroke:#ff0000;" x="202.784299" xlink:href="#md74b2d1743" y="240.086341"/>
     <use style="fill:#ff0000;stroke:#ff0000;" x="204.301376" xlink:href="#md74b2d1743" y="240.086341"/>
     <use style="fill:#ff0000;stroke:#ff0000;" x="205.818454" xlink:href="#md74b2d1743" y="217.091902"/>
     <use style="fill:#ff0000;stroke:#ff0000;" x="207.335531" xlink:href="#md74b2d1743" y="217.091902"/>
     <use style="fill:#ff0000;stroke:#ff0000;" x="208.852608" xlink:href="#md74b2d1743" y="221.165693"/>
     <use style="fill:#ff0000;stroke:#ff0000;" x="210.369686" xlink:href="#md74b2d1743" y="221.165693"/>
     <use style="fill:#ff0000;stroke:#ff0000;" x="211.886763" xlink:href="#md74b2d1743" y="195.30209"/>
     <use style="fill:#ff0000;stroke:#ff0000;" x="213.40384" xlink:href="#md74b2d1743" y="195.30209"/>
     <use style="fill:#ff0000;stroke:#ff0000;" x="214.920918" xlink:href="#md74b2d1743" y="189.228415"/>
     <use style="fill:#ff0000;stroke:#ff0000;" x="216.437995" xlink:href="#md74b2d1743" y="189.228415"/>
     <use style="fill:#ff0000;stroke:#ff0000;" x="217.955072" xlink:href="#md74b2d1743" y="213.960478"/>
     <use style="fill:#ff0000;stroke:#ff0000;" x="219.47215" xlink:href="#md74b2d1743" y="213.960478"/>
     <use style="fill:#ff0000;stroke:#ff0000;" x="220.989227" xlink:href="#md74b2d1743" y="188.739934"/>
     <use style="fill:#ff0000;stroke:#ff0000;" x="222.506304" xlink:href="#md74b2d1743" y="188.739934"/>
     <use style="fill:#ff0000;stroke:#ff0000;" x="224.023381" xlink:href="#md74b2d1743" y="217.702808"/>
     <use style="fill:#ff0000;stroke:#ff0000;" x="225.540459" xlink:href="#md74b2d1743" y="217.702808"/>
     <use style="fill:#ff0000;stroke:#ff0000;" x="227.057536" xlink:href="#md74b2d1743" y="244.679344"/>
     <use style="fill:#ff0000;stroke:#ff0000;" x="228.574613" xlink:href="#md74b2d1743" y="244.679344"/>
     <use style="fill:#ff0000;stroke:#ff0000;" x="230.091691" xlink:href="#md74b2d1743" y="244.679344"/>
     <use style="fill:#ff0000;stroke:#ff0000;" x="231.608768" xlink:href="#md74b2d1743" y="266.546404"/>
     <use style="fill:#ff0000;stroke:#ff0000;" x="233.125845" xlink:href="#md74b2d1743" y="266.546404"/>
     <use style="fill:#ff0000;stroke:#ff0000;" x="234.642923" xlink:href="#md74b2d1743" y="295.488"/>
     <use style="fill:#ff0000;stroke:#ff0000;" x="236.16" xlink:href="#md74b2d1743" y="295.488"/>
     <use style="fill:#ff0000;stroke:#ff0000;" x="237.677077" xlink:href="#md74b2d1743" y="266.517065"/>
     <use style="fill:#ff0000;stroke:#ff0000;" x="239.194155" xlink:href="#md74b2d1743" y="266.517065"/>
     <use style="fill:#ff0000;stroke:#ff0000;" x="240.711232" xlink:href="#md74b2d1743" y="266.517065"/>
     <use style="fill:#ff0000;stroke:#ff0000;" x="242.228309" xlink:href="#md74b2d1743" y="266.517065"/>
     <use style="fill:#ff0000;stroke:#ff0000;" x="243.745387" xlink:href="#md74b2d1743" y="266.517065"/>
     <use style="fill:#ff0000;stroke:#ff0000;" x="245.262464" xlink:href="#md74b2d1743" y="266.517065"/>
     <use style="fill:#ff0000;stroke:#ff0000;" x="246.779541" xlink:href="#md74b2d1743" y="266.517065"/>
     <use style="fill:#ff0000;stroke:#ff0000;" x="248.296619" xlink:href="#md74b2d1743" y="266.517065"/>
     <use style="fill:#ff0000;stroke:#ff0000;" x="249.813696" xlink:href="#md74b2d1743" y="266.517065"/>
     <use style="fill:#ff0000;stroke:#ff0000;" x="251.330773" xlink:href="#md74b2d1743" y="266.517065"/>
     <use style="fill:#ff0000;stroke:#ff0000;" x="252.84785" xlink:href="#md74b2d1743" y="266.517065"/>
     <use style="fill:#ff0000;stroke:#ff0000;" x="254.364928" xlink:href="#md74b2d1743" y="239.857495"/>
     <use style="fill:#ff0000;stroke:#ff0000;" x="255.882005" xlink:href="#md74b2d1743" y="239.857495"/>
     <use style="fill:#ff0000;stroke:#ff0000;" x="257.399082" xlink:href="#md74b2d1743" y="212.557997"/>
     <use style="fill:#ff0000;stroke:#ff0000;" x="258.91616" xlink:href="#md74b2d1743" y="184.06245"/>
     <use style="fill:#ff0000;stroke:#ff0000;" x="260.433237" xlink:href="#md74b2d1743" y="184.06245"/>
     <use style="fill:#ff0000;stroke:#ff0000;" x="261.950314" xlink:href="#md74b2d1743" y="159.031855"/>
     <use style="fill:#ff0000;stroke:#ff0000;" x="263.467392" xlink:href="#md74b2d1743" y="159.031855"/>
     <use style="fill:#ff0000;stroke:#ff0000;" x="264.984469" xlink:href="#md74b2d1743" y="159.031855"/>
     <use style="fill:#ff0000;stroke:#ff0000;" x="266.501546" xlink:href="#md74b2d1743" y="162.306555"/>
     <use style="fill:#ff0000;stroke:#ff0000;" x="268.018624" xlink:href="#md74b2d1743" y="162.306555"/>
     <use style="fill:#ff0000;stroke:#ff0000;" x="269.535701" xlink:href="#md74b2d1743" y="190.19779"/>
     <use style="fill:#ff0000;stroke:#ff0000;" x="271.052778" xlink:href="#md74b2d1743" y="190.19779"/>
     <use style="fill:#ff0000;stroke:#ff0000;" x="272.569856" xlink:href="#md74b2d1743" y="190.19779"/>
     <use style="fill:#ff0000;stroke:#ff0000;" x="274.086933" xlink:href="#md74b2d1743" y="166.550251"/>
     <use style="fill:#ff0000;stroke:#ff0000;" x="275.60401" xlink:href="#md74b2d1743" y="166.550251"/>
     <use style="fill:#ff0000;stroke:#ff0000;" x="277.121088" xlink:href="#md74b2d1743" y="188.542133"/>
     <use style="fill:#ff0000;stroke:#ff0000;" x="278.638165" xlink:href="#md74b2d1743" y="188.542133"/>
     <use style="fill:#ff0000;stroke:#ff0000;" x="280.155242" xlink:href="#md74b2d1743" y="213.958614"/>
     <use style="fill:#ff0000;stroke:#ff0000;" x="281.672319" xlink:href="#md74b2d1743" y="213.958614"/>
     <use style="fill:#ff0000;stroke:#ff0000;" x="283.189397" xlink:href="#md74b2d1743" y="213.958614"/>
     <use style="fill:#ff0000;stroke:#ff0000;" x="284.706474" xlink:href="#md74b2d1743" y="238.218464"/>
     <use style="fill:#ff0000;stroke:#ff0000;" x="286.223551" xlink:href="#md74b2d1743" y="238.218464"/>
     <use style="fill:#ff0000;stroke:#ff0000;" x="287.740629" xlink:href="#md74b2d1743" y="210.976308"/>
     <use style="fill:#ff0000;stroke:#ff0000;" x="289.257706" xlink:href="#md74b2d1743" y="210.976308"/>
     <use style="fill:#ff0000;stroke:#ff0000;" x="290.774783" xlink:href="#md74b2d1743" y="236.093218"/>
     <use style="fill:#ff0000;stroke:#ff0000;" x="292.291861" xlink:href="#md74b2d1743" y="210.852751"/>
     <use style="fill:#ff0000;stroke:#ff0000;" x="293.808938" xlink:href="#md74b2d1743" y="210.852751"/>
     <use style="fill:#ff0000;stroke:#ff0000;" x="295.326015" xlink:href="#md74b2d1743" y="237.342444"/>
     <use style="fill:#ff0000;stroke:#ff0000;" x="296.843093" xlink:href="#md74b2d1743" y="237.342444"/>
     <use style="fill:#ff0000;stroke:#ff0000;" x="298.36017" xlink:href="#md74b2d1743" y="235.666238"/>
     <use style="fill:#ff0000;stroke:#ff0000;" x="299.877247" xlink:href="#md74b2d1743" y="235.666238"/>
     <use style="fill:#ff0000;stroke:#ff0000;" x="301.394325" xlink:href="#md74b2d1743" y="208.654794"/>
     <use style="fill:#ff0000;stroke:#ff0000;" x="302.911402" xlink:href="#md74b2d1743" y="208.654794"/>
     <use style="fill:#ff0000;stroke:#ff0000;" x="304.428479" xlink:href="#md74b2d1743" y="208.654794"/>
     <use style="fill:#ff0000;stroke:#ff0000;" x="305.945556" xlink:href="#md74b2d1743" y="184.714828"/>
     <use style="fill:#ff0000;stroke:#ff0000;" x="307.462634" xlink:href="#md74b2d1743" y="184.714828"/>
     <use style="fill:#ff0000;stroke:#ff0000;" x="308.979711" xlink:href="#md74b2d1743" y="158.430187"/>
     <use style="fill:#ff0000;stroke:#ff0000;" x="310.496788" xlink:href="#md74b2d1743" y="158.430187"/>
     <use style="fill:#ff0000;stroke:#ff0000;" x="312.013866" xlink:href="#md74b2d1743" y="186.360153"/>
     <use style="fill:#ff0000;stroke:#ff0000;" x="313.530943" xlink:href="#md74b2d1743" y="186.360153"/>
     <use style="fill:#ff0000;stroke:#ff0000;" x="315.04802" xlink:href="#md74b2d1743" y="186.360153"/>
     <use style="fill:#ff0000;stroke:#ff0000;" x="316.565098" xlink:href="#md74b2d1743" y="161.707573"/>
     <use style="fill:#ff0000;stroke:#ff0000;" x="318.082175" xlink:href="#md74b2d1743" y="161.707573"/>
     <use style="fill:#ff0000;stroke:#ff0000;" x="319.599252" xlink:href="#md74b2d1743" y="135.447026"/>
     <use style="fill:#ff0000;stroke:#ff0000;" x="321.11633" xlink:href="#md74b2d1743" y="161.753683"/>
     <use style="fill:#ff0000;stroke:#ff0000;" x="322.633407" xlink:href="#md74b2d1743" y="161.753683"/>
     <use style="fill:#ff0000;stroke:#ff0000;" x="324.150484" xlink:href="#md74b2d1743" y="164.112485"/>
     <use style="fill:#ff0000;stroke:#ff0000;" x="325.667562" xlink:href="#md74b2d1743" y="164.112485"/>
     <use style="fill:#ff0000;stroke:#ff0000;" x="327.184639" xlink:href="#md74b2d1743" y="140.076103"/>
     <use style="fill:#ff0000;stroke:#ff0000;" x="328.701716" xlink:href="#md74b2d1743" y="140.076103"/>
     <use style="fill:#ff0000;stroke:#ff0000;" x="330.218794" xlink:href="#md74b2d1743" y="166.392622"/>
     <use style="fill:#ff0000;stroke:#ff0000;" x="331.735871" xlink:href="#md74b2d1743" y="166.392622"/>
     <use style="fill:#ff0000;stroke:#ff0000;" x="333.252948" xlink:href="#md74b2d1743" y="191.008279"/>
     <use style="fill:#ff0000;stroke:#ff0000;" x="334.770025" xlink:href="#md74b2d1743" y="191.008279"/>
     <use style="fill:#ff0000;stroke:#ff0000;" x="336.287103" xlink:href="#md74b2d1743" y="162.965045"/>
     <use style="fill:#ff0000;stroke:#ff0000;" x="337.80418" xlink:href="#md74b2d1743" y="162.965045"/>
     <use style="fill:#ff0000;stroke:#ff0000;" x="339.321257" xlink:href="#md74b2d1743" y="134.396941"/>
     <use style="fill:#ff0000;stroke:#ff0000;" x="340.838335" xlink:href="#md74b2d1743" y="136.312683"/>
     <use style="fill:#ff0000;stroke:#ff0000;" x="342.355412" xlink:href="#md74b2d1743" y="136.312683"/>
     <use style="fill:#ff0000;stroke:#ff0000;" x="343.872489" xlink:href="#md74b2d1743" y="139.136189"/>
     <use style="fill:#ff0000;stroke:#ff0000;" x="345.389567" xlink:href="#md74b2d1743" y="139.136189"/>
     <use style="fill:#ff0000;stroke:#ff0000;" x="346.906644" xlink:href="#md74b2d1743" y="139.136189"/>
     <use style="fill:#ff0000;stroke:#ff0000;" x="348.423721" xlink:href="#md74b2d1743" y="114.927575"/>
     <use style="fill:#ff0000;stroke:#ff0000;" x="349.940799" xlink:href="#md74b2d1743" y="114.927575"/>
     <use style="fill:#ff0000;stroke:#ff0000;" x="351.457876" xlink:href="#md74b2d1743" y="114.927575"/>
     <use style="fill:#ff0000;stroke:#ff0000;" x="352.974953" xlink:href="#md74b2d1743" y="142.765529"/>
     <use style="fill:#ff0000;stroke:#ff0000;" x="354.492031" xlink:href="#md74b2d1743" y="117.01864"/>
     <use style="fill:#ff0000;stroke:#ff0000;" x="356.009108" xlink:href="#md74b2d1743" y="117.01864"/>
     <use style="fill:#ff0000;stroke:#ff0000;" x="357.526185" xlink:href="#md74b2d1743" y="117.01864"/>
     <use style="fill:#ff0000;stroke:#ff0000;" x="359.043263" xlink:href="#md74b2d1743" y="117.01864"/>
     <use style="fill:#ff0000;stroke:#ff0000;" x="360.56034" xlink:href="#md74b2d1743" y="117.01864"/>
     <use style="fill:#ff0000;stroke:#ff0000;" x="362.077417" xlink:href="#md74b2d1743" y="117.01864"/>
     <use style="fill:#ff0000;stroke:#ff0000;" x="363.594494" xlink:href="#md74b2d1743" y="117.01864"/>
     <use style="fill:#ff0000;stroke:#ff0000;" x="365.111572" xlink:href="#md74b2d1743" y="117.01864"/>
     <use style="fill:#ff0000;stroke:#ff0000;" x="366.628649" xlink:href="#md74b2d1743" y="117.01864"/>
     <use style="fill:#ff0000;stroke:#ff0000;" x="368.145726" xlink:href="#md74b2d1743" y="117.01864"/>
     <use style="fill:#ff0000;stroke:#ff0000;" x="369.662804" xlink:href="#md74b2d1743" y="117.01864"/>
     <use style="fill:#ff0000;stroke:#ff0000;" x="371.179881" xlink:href="#md74b2d1743" y="117.01864"/>
     <use style="fill:#ff0000;stroke:#ff0000;" x="372.696958" xlink:href="#md74b2d1743" y="117.01864"/>
     <use style="fill:#ff0000;stroke:#ff0000;" x="374.214036" xlink:href="#md74b2d1743" y="117.01864"/>
     <use style="fill:#ff0000;stroke:#ff0000;" x="375.731113" xlink:href="#md74b2d1743" y="117.01864"/>
     <use style="fill:#ff0000;stroke:#ff0000;" x="377.24819" xlink:href="#md74b2d1743" y="117.01864"/>
     <use style="fill:#ff0000;stroke:#ff0000;" x="378.765268" xlink:href="#md74b2d1743" y="117.01864"/>
     <use style="fill:#ff0000;stroke:#ff0000;" x="380.282345" xlink:href="#md74b2d1743" y="117.01864"/>
     <use style="fill:#ff0000;stroke:#ff0000;" x="381.799422" xlink:href="#md74b2d1743" y="117.01864"/>
     <use style="fill:#ff0000;stroke:#ff0000;" x="383.3165" xlink:href="#md74b2d1743" y="117.01864"/>
     <use style="fill:#ff0000;stroke:#ff0000;" x="384.833577" xlink:href="#md74b2d1743" y="117.01864"/>
     <use style="fill:#ff0000;stroke:#ff0000;" x="386.350654" xlink:href="#md74b2d1743" y="117.01864"/>
     <use style="fill:#ff0000;stroke:#ff0000;" x="387.867732" xlink:href="#md74b2d1743" y="117.01864"/>
     <use style="fill:#ff0000;stroke:#ff0000;" x="389.384809" xlink:href="#md74b2d1743" y="117.01864"/>
     <use style="fill:#ff0000;stroke:#ff0000;" x="390.901886" xlink:href="#md74b2d1743" y="117.01864"/>
     <use style="fill:#ff0000;stroke:#ff0000;" x="392.418963" xlink:href="#md74b2d1743" y="117.01864"/>
     <use style="fill:#ff0000;stroke:#ff0000;" x="393.936041" xlink:href="#md74b2d1743" y="117.01864"/>
     <use style="fill:#ff0000;stroke:#ff0000;" x="395.453118" xlink:href="#md74b2d1743" y="117.01864"/>
     <use style="fill:#ff0000;stroke:#ff0000;" x="396.970195" xlink:href="#md74b2d1743" y="117.01864"/>
     <use style="fill:#ff0000;stroke:#ff0000;" x="398.487273" xlink:href="#md74b2d1743" y="117.01864"/>
    </g>
   </g>
   <g id="patch_3">
    <path d="M 57.6 307.584 
L 57.6 41.472 
" style="fill:none;stroke:#000000;stroke-linecap:square;stroke-linejoin:miter;stroke-width:0.8;"/>
   </g>
   <g id="patch_4">
    <path d="M 414.72 307.584 
L 414.72 41.472 
" style="fill:none;stroke:#000000;stroke-linecap:square;stroke-linejoin:miter;stroke-width:0.8;"/>
   </g>
   <g id="patch_5">
    <path d="M 57.6 307.584 
L 414.72 307.584 
" style="fill:none;stroke:#000000;stroke-linecap:square;stroke-linejoin:miter;stroke-width:0.8;"/>
   </g>
   <g id="patch_6">
    <path d="M 57.6 41.472 
L 414.72 41.472 
" style="fill:none;stroke:#000000;stroke-linecap:square;stroke-linejoin:miter;stroke-width:0.8;"/>
   </g>
  </g>
 </g>
 <defs>
  <clipPath id="pb9849f795e">
   <rect height="266.112" width="357.12" x="57.6" y="41.472"/>
  </clipPath>
 </defs>
</svg>
