<?xml version="1.0" encoding="utf-8" standalone="no"?>
<!DOCTYPE svg PUBLIC "-//W3C//DTD SVG 1.1//EN"
  "http://www.w3.org/Graphics/SVG/1.1/DTD/svg11.dtd">
<!-- Created with matplotlib (https://matplotlib.org/) -->
<svg height="345.6pt" version="1.1" viewBox="0 0 460.8 345.6" width="460.8pt" xmlns="http://www.w3.org/2000/svg" xmlns:xlink="http://www.w3.org/1999/xlink">
 <defs>
  <style type="text/css">
*{stroke-linecap:butt;stroke-linejoin:round;}
  </style>
 </defs>
 <g id="figure_1">
  <g id="patch_1">
   <path d="M 0 345.6 
L 460.8 345.6 
L 460.8 0 
L 0 0 
z
" style="fill:#ffffff;"/>
  </g>
  <g id="axes_1">
   <g id="patch_2">
    <path d="M 57.6 307.584 
L 414.72 307.584 
L 414.72 41.472 
L 57.6 41.472 
z
" style="fill:#ffffff;"/>
   </g>
   <g id="line2d_1">
    <path clip-path="url(#pc2c95dbcfd)" d="M 73.832727 76.072723 
L 75.062479 76.072723 
L 76.292231 82.427854 
L 77.521983 82.427854 
L 78.751736 53.73395 
L 79.981488 53.73395 
L 81.21124 82.896667 
L 82.440992 82.896667 
L 83.670744 53.568 
L 84.900496 53.568 
L 86.130248 83.49277 
L 87.36 83.49277 
L 88.589752 110.515414 
L 91.049256 110.515414 
L 92.279008 139.499563 
L 93.50876 139.499563 
L 94.738512 167.553984 
L 97.198017 167.553984 
L 98.427769 194.914955 
L 99.657521 194.914955 
L 100.887273 220.781865 
L 103.346777 220.781865 
L 104.576529 211.103022 
L 108.265785 211.103022 
L 109.495537 220.26441 
L 110.725289 220.26441 
L 111.955041 209.621857 
L 114.414545 209.621857 
L 115.644298 199.337531 
L 116.87405 199.337531 
L 118.103802 207.545131 
L 119.333554 207.545131 
L 120.563306 216.140137 
L 123.02281 216.140137 
L 124.252562 224.193851 
L 126.712066 224.193851 
L 127.941818 223.289187 
L 129.17157 230.829732 
L 130.401322 230.829732 
L 131.631074 220.391507 
L 132.860826 220.391507 
L 134.090579 228.330431 
L 136.550083 228.330431 
L 137.779835 237.290301 
L 139.009587 226.682131 
L 140.239339 226.682131 
L 141.469091 224.1174 
L 142.698843 224.1174 
L 145.158347 241.088866 
L 146.388099 241.088866 
L 147.617851 230.294744 
L 148.847603 230.294744 
L 150.077355 238.818993 
L 151.307107 238.818993 
L 152.53686 247.444385 
L 153.766612 247.444385 
L 154.996364 236.752416 
L 156.226116 236.752416 
L 157.455868 246.224281 
L 158.68562 246.655793 
L 159.915372 246.655793 
L 161.145124 254.917223 
L 162.374876 254.917223 
L 163.604628 255.319682 
L 166.064132 255.319682 
L 167.293884 243.8304 
L 170.98314 243.8304 
L 172.212893 240.30648 
L 173.442645 237.265124 
L 177.131901 237.265124 
L 178.361653 226.924885 
L 179.591405 226.924885 
L 180.821157 235.399256 
L 182.050909 235.399256 
L 183.280661 231.788399 
L 184.510413 240.104021 
L 185.740165 240.104021 
L 186.969917 247.140568 
L 188.199669 247.140568 
L 189.429421 236.526355 
L 190.659174 236.526355 
L 191.888926 244.356708 
L 194.34843 244.356708 
L 195.578182 253.514004 
L 196.807934 253.514004 
L 198.037686 241.974335 
L 200.49719 241.974335 
L 201.726942 240.562441 
L 202.956694 240.562441 
L 204.186446 229.970791 
L 205.416198 229.970791 
L 206.64595 238.109835 
L 207.875702 238.109835 
L 209.105455 227.580262 
L 222.632727 227.580262 
L 223.862479 235.502122 
L 225.092231 235.502122 
L 226.321983 233.240528 
L 227.551736 222.97799 
L 228.781488 222.97799 
L 230.01124 222.404589 
L 231.240992 222.404589 
L 232.470744 222.563736 
L 233.700496 222.563736 
L 234.930248 230.867027 
L 237.389752 230.867027 
L 238.619504 230.261712 
L 239.849256 230.261712 
L 241.079008 237.890328 
L 242.30876 237.890328 
L 243.538512 246.097105 
L 245.998017 246.097105 
L 247.227769 253.72358 
L 248.457521 253.72358 
L 249.687273 262.821176 
L 250.917025 262.821176 
L 252.146777 259.736148 
L 253.376529 267.561398 
L 254.606281 267.561398 
L 255.836033 268.174833 
L 257.065785 268.174833 
L 258.295537 257.627638 
L 260.755041 257.627638 
L 261.984793 265.449799 
L 263.214545 265.449799 
L 264.444298 273.413749 
L 265.67405 273.413749 
L 266.903802 281.769262 
L 268.133554 271.567065 
L 271.82281 271.567065 
L 273.052562 279.327416 
L 274.282314 279.327416 
L 275.512066 288.063065 
L 276.741818 288.063065 
L 277.97157 295.488 
L 280.431074 295.488 
L 281.660826 283.459342 
L 282.890579 283.459342 
L 284.120331 282.750572 
L 285.350083 282.750572 
L 286.579835 270.656118 
L 287.809587 279.383536 
L 289.039339 279.383536 
L 290.269091 278.759504 
L 291.498843 278.759504 
L 292.728595 275.748003 
L 293.958347 275.748003 
L 295.188099 282.857087 
L 296.417851 271.970477 
L 298.877355 271.970477 
L 300.107107 280.745571 
L 301.33686 269.574625 
L 398.487273 269.574625 
L 398.487273 269.574625 
" style="fill:none;stroke:#ff0000;stroke-linecap:square;stroke-width:12;"/>
    <defs>
     <path d="M 0 3 
C 0.795609 3 1.55874 2.683901 2.12132 2.12132 
C 2.683901 1.55874 3 0.795609 3 0 
C 3 -0.795609 2.683901 -1.55874 2.12132 -2.12132 
C 1.55874 -2.683901 0.795609 -3 0 -3 
C -0.795609 -3 -1.55874 -2.683901 -2.12132 -2.12132 
C -2.683901 -1.55874 -3 -0.795609 -3 0 
C -3 0.795609 -2.683901 1.55874 -2.12132 2.12132 
C -1.55874 2.683901 -0.795609 3 0 3 
z
" id="mfb06bf1b14" style="stroke:#ff0000;"/>
    </defs>
    <g clip-path="url(#pc2c95dbcfd)">
     <use style="fill:#ff0000;stroke:#ff0000;" x="73.832727" xlink:href="#mfb06bf1b14" y="76.072723"/>
     <use style="fill:#ff0000;stroke:#ff0000;" x="75.062479" xlink:href="#mfb06bf1b14" y="76.072723"/>
     <use style="fill:#ff0000;stroke:#ff0000;" x="76.292231" xlink:href="#mfb06bf1b14" y="82.427854"/>
     <use style="fill:#ff0000;stroke:#ff0000;" x="77.521983" xlink:href="#mfb06bf1b14" y="82.427854"/>
     <use style="fill:#ff0000;stroke:#ff0000;" x="78.751736" xlink:href="#mfb06bf1b14" y="53.73395"/>
     <use style="fill:#ff0000;stroke:#ff0000;" x="79.981488" xlink:href="#mfb06bf1b14" y="53.73395"/>
     <use style="fill:#ff0000;stroke:#ff0000;" x="81.21124" xlink:href="#mfb06bf1b14" y="82.896667"/>
     <use style="fill:#ff0000;stroke:#ff0000;" x="82.440992" xlink:href="#mfb06bf1b14" y="82.896667"/>
     <use style="fill:#ff0000;stroke:#ff0000;" x="83.670744" xlink:href="#mfb06bf1b14" y="53.568"/>
     <use style="fill:#ff0000;stroke:#ff0000;" x="84.900496" xlink:href="#mfb06bf1b14" y="53.568"/>
     <use style="fill:#ff0000;stroke:#ff0000;" x="86.130248" xlink:href="#mfb06bf1b14" y="83.49277"/>
     <use style="fill:#ff0000;stroke:#ff0000;" x="87.36" xlink:href="#mfb06bf1b14" y="83.49277"/>
     <use style="fill:#ff0000;stroke:#ff0000;" x="88.589752" xlink:href="#mfb06bf1b14" y="110.515414"/>
     <use style="fill:#ff0000;stroke:#ff0000;" x="89.819504" xlink:href="#mfb06bf1b14" y="110.515414"/>
     <use style="fill:#ff0000;stroke:#ff0000;" x="91.049256" xlink:href="#mfb06bf1b14" y="110.515414"/>
     <use style="fill:#ff0000;stroke:#ff0000;" x="92.279008" xlink:href="#mfb06bf1b14" y="139.499563"/>
     <use style="fill:#ff0000;stroke:#ff0000;" x="93.50876" xlink:href="#mfb06bf1b14" y="139.499563"/>
     <use style="fill:#ff0000;stroke:#ff0000;" x="94.738512" xlink:href="#mfb06bf1b14" y="167.553984"/>
     <use style="fill:#ff0000;stroke:#ff0000;" x="95.968264" xlink:href="#mfb06bf1b14" y="167.553984"/>
     <use style="fill:#ff0000;stroke:#ff0000;" x="97.198017" xlink:href="#mfb06bf1b14" y="167.553984"/>
     <use style="fill:#ff0000;stroke:#ff0000;" x="98.427769" xlink:href="#mfb06bf1b14" y="194.914955"/>
     <use style="fill:#ff0000;stroke:#ff0000;" x="99.657521" xlink:href="#mfb06bf1b14" y="194.914955"/>
     <use style="fill:#ff0000;stroke:#ff0000;" x="100.887273" xlink:href="#mfb06bf1b14" y="220.781865"/>
     <use style="fill:#ff0000;stroke:#ff0000;" x="102.117025" xlink:href="#mfb06bf1b14" y="220.781865"/>
     <use style="fill:#ff0000;stroke:#ff0000;" x="103.346777" xlink:href="#mfb06bf1b14" y="220.781865"/>
     <use style="fill:#ff0000;stroke:#ff0000;" x="104.576529" xlink:href="#mfb06bf1b14" y="211.103022"/>
     <use style="fill:#ff0000;stroke:#ff0000;" x="105.806281" xlink:href="#mfb06bf1b14" y="211.103022"/>
     <use style="fill:#ff0000;stroke:#ff0000;" x="107.036033" xlink:href="#mfb06bf1b14" y="211.103022"/>
     <use style="fill:#ff0000;stroke:#ff0000;" x="108.265785" xlink:href="#mfb06bf1b14" y="211.103022"/>
     <use style="fill:#ff0000;stroke:#ff0000;" x="109.495537" xlink:href="#mfb06bf1b14" y="220.26441"/>
     <use style="fill:#ff0000;stroke:#ff0000;" x="110.725289" xlink:href="#mfb06bf1b14" y="220.26441"/>
     <use style="fill:#ff0000;stroke:#ff0000;" x="111.955041" xlink:href="#mfb06bf1b14" y="209.621857"/>
     <use style="fill:#ff0000;stroke:#ff0000;" x="113.184793" xlink:href="#mfb06bf1b14" y="209.621857"/>
     <use style="fill:#ff0000;stroke:#ff0000;" x="114.414545" xlink:href="#mfb06bf1b14" y="209.621857"/>
     <use style="fill:#ff0000;stroke:#ff0000;" x="115.644298" xlink:href="#mfb06bf1b14" y="199.337531"/>
     <use style="fill:#ff0000;stroke:#ff0000;" x="116.87405" xlink:href="#mfb06bf1b14" y="199.337531"/>
     <use style="fill:#ff0000;stroke:#ff0000;" x="118.103802" xlink:href="#mfb06bf1b14" y="207.545131"/>
     <use style="fill:#ff0000;stroke:#ff0000;" x="119.333554" xlink:href="#mfb06bf1b14" y="207.545131"/>
     <use style="fill:#ff0000;stroke:#ff0000;" x="120.563306" xlink:href="#mfb06bf1b14" y="216.140137"/>
     <use style="fill:#ff0000;stroke:#ff0000;" x="121.793058" xlink:href="#mfb06bf1b14" y="216.140137"/>
     <use style="fill:#ff0000;stroke:#ff0000;" x="123.02281" xlink:href="#mfb06bf1b14" y="216.140137"/>
     <use style="fill:#ff0000;stroke:#ff0000;" x="124.252562" xlink:href="#mfb06bf1b14" y="224.193851"/>
     <use style="fill:#ff0000;stroke:#ff0000;" x="125.482314" xlink:href="#mfb06bf1b14" y="224.193851"/>
     <use style="fill:#ff0000;stroke:#ff0000;" x="126.712066" xlink:href="#mfb06bf1b14" y="224.193851"/>
     <use style="fill:#ff0000;stroke:#ff0000;" x="127.941818" xlink:href="#mfb06bf1b14" y="223.289187"/>
     <use style="fill:#ff0000;stroke:#ff0000;" x="129.17157" xlink:href="#mfb06bf1b14" y="230.829732"/>
     <use style="fill:#ff0000;stroke:#ff0000;" x="130.401322" xlink:href="#mfb06bf1b14" y="230.829732"/>
     <use style="fill:#ff0000;stroke:#ff0000;" x="131.631074" xlink:href="#mfb06bf1b14" y="220.391507"/>
     <use style="fill:#ff0000;stroke:#ff0000;" x="132.860826" xlink:href="#mfb06bf1b14" y="220.391507"/>
     <use style="fill:#ff0000;stroke:#ff0000;" x="134.090579" xlink:href="#mfb06bf1b14" y="228.330431"/>
     <use style="fill:#ff0000;stroke:#ff0000;" x="135.320331" xlink:href="#mfb06bf1b14" y="228.330431"/>
     <use style="fill:#ff0000;stroke:#ff0000;" x="136.550083" xlink:href="#mfb06bf1b14" y="228.330431"/>
     <use style="fill:#ff0000;stroke:#ff0000;" x="137.779835" xlink:href="#mfb06bf1b14" y="237.290301"/>
     <use style="fill:#ff0000;stroke:#ff0000;" x="139.009587" xlink:href="#mfb06bf1b14" y="226.682131"/>
     <use style="fill:#ff0000;stroke:#ff0000;" x="140.239339" xlink:href="#mfb06bf1b14" y="226.682131"/>
     <use style="fill:#ff0000;stroke:#ff0000;" x="141.469091" xlink:href="#mfb06bf1b14" y="224.1174"/>
     <use style="fill:#ff0000;stroke:#ff0000;" x="142.698843" xlink:href="#mfb06bf1b14" y="224.1174"/>
     <use style="fill:#ff0000;stroke:#ff0000;" x="143.928595" xlink:href="#mfb06bf1b14" y="232.784261"/>
     <use style="fill:#ff0000;stroke:#ff0000;" x="145.158347" xlink:href="#mfb06bf1b14" y="241.088866"/>
     <use style="fill:#ff0000;stroke:#ff0000;" x="146.388099" xlink:href="#mfb06bf1b14" y="241.088866"/>
     <use style="fill:#ff0000;stroke:#ff0000;" x="147.617851" xlink:href="#mfb06bf1b14" y="230.294744"/>
     <use style="fill:#ff0000;stroke:#ff0000;" x="148.847603" xlink:href="#mfb06bf1b14" y="230.294744"/>
     <use style="fill:#ff0000;stroke:#ff0000;" x="150.077355" xlink:href="#mfb06bf1b14" y="238.818993"/>
     <use style="fill:#ff0000;stroke:#ff0000;" x="151.307107" xlink:href="#mfb06bf1b14" y="238.818993"/>
     <use style="fill:#ff0000;stroke:#ff0000;" x="152.53686" xlink:href="#mfb06bf1b14" y="247.444385"/>
     <use style="fill:#ff0000;stroke:#ff0000;" x="153.766612" xlink:href="#mfb06bf1b14" y="247.444385"/>
     <use style="fill:#ff0000;stroke:#ff0000;" x="154.996364" xlink:href="#mfb06bf1b14" y="236.752416"/>
     <use style="fill:#ff0000;stroke:#ff0000;" x="156.226116" xlink:href="#mfb06bf1b14" y="236.752416"/>
     <use style="fill:#ff0000;stroke:#ff0000;" x="157.455868" xlink:href="#mfb06bf1b14" y="246.224281"/>
     <use style="fill:#ff0000;stroke:#ff0000;" x="158.68562" xlink:href="#mfb06bf1b14" y="246.655793"/>
     <use style="fill:#ff0000;stroke:#ff0000;" x="159.915372" xlink:href="#mfb06bf1b14" y="246.655793"/>
     <use style="fill:#ff0000;stroke:#ff0000;" x="161.145124" xlink:href="#mfb06bf1b14" y="254.917223"/>
     <use style="fill:#ff0000;stroke:#ff0000;" x="162.374876" xlink:href="#mfb06bf1b14" y="254.917223"/>
     <use style="fill:#ff0000;stroke:#ff0000;" x="163.604628" xlink:href="#mfb06bf1b14" y="255.319682"/>
     <use style="fill:#ff0000;stroke:#ff0000;" x="164.83438" xlink:href="#mfb06bf1b14" y="255.319682"/>
     <use style="fill:#ff0000;stroke:#ff0000;" x="166.064132" xlink:href="#mfb06bf1b14" y="255.319682"/>
     <use style="fill:#ff0000;stroke:#ff0000;" x="167.293884" xlink:href="#mfb06bf1b14" y="243.8304"/>
     <use style="fill:#ff0000;stroke:#ff0000;" x="168.523636" xlink:href="#mfb06bf1b14" y="243.8304"/>
     <use style="fill:#ff0000;stroke:#ff0000;" x="169.753388" xlink:href="#mfb06bf1b14" y="243.8304"/>
     <use style="fill:#ff0000;stroke:#ff0000;" x="170.98314" xlink:href="#mfb06bf1b14" y="243.8304"/>
     <use style="fill:#ff0000;stroke:#ff0000;" x="172.212893" xlink:href="#mfb06bf1b14" y="240.30648"/>
     <use style="fill:#ff0000;stroke:#ff0000;" x="173.442645" xlink:href="#mfb06bf1b14" y="237.265124"/>
     <use style="fill:#ff0000;stroke:#ff0000;" x="174.672397" xlink:href="#mfb06bf1b14" y="237.265124"/>
     <use style="fill:#ff0000;stroke:#ff0000;" x="175.902149" xlink:href="#mfb06bf1b14" y="237.265124"/>
     <use style="fill:#ff0000;stroke:#ff0000;" x="177.131901" xlink:href="#mfb06bf1b14" y="237.265124"/>
     <use style="fill:#ff0000;stroke:#ff0000;" x="178.361653" xlink:href="#mfb06bf1b14" y="226.924885"/>
     <use style="fill:#ff0000;stroke:#ff0000;" x="179.591405" xlink:href="#mfb06bf1b14" y="226.924885"/>
     <use style="fill:#ff0000;stroke:#ff0000;" x="180.821157" xlink:href="#mfb06bf1b14" y="235.399256"/>
     <use style="fill:#ff0000;stroke:#ff0000;" x="182.050909" xlink:href="#mfb06bf1b14" y="235.399256"/>
     <use style="fill:#ff0000;stroke:#ff0000;" x="183.280661" xlink:href="#mfb06bf1b14" y="231.788399"/>
     <use style="fill:#ff0000;stroke:#ff0000;" x="184.510413" xlink:href="#mfb06bf1b14" y="240.104021"/>
     <use style="fill:#ff0000;stroke:#ff0000;" x="185.740165" xlink:href="#mfb06bf1b14" y="240.104021"/>
     <use style="fill:#ff0000;stroke:#ff0000;" x="186.969917" xlink:href="#mfb06bf1b14" y="247.140568"/>
     <use style="fill:#ff0000;stroke:#ff0000;" x="188.199669" xlink:href="#mfb06bf1b14" y="247.140568"/>
     <use style="fill:#ff0000;stroke:#ff0000;" x="189.429421" xlink:href="#mfb06bf1b14" y="236.526355"/>
     <use style="fill:#ff0000;stroke:#ff0000;" x="190.659174" xlink:href="#mfb06bf1b14" y="236.526355"/>
     <use style="fill:#ff0000;stroke:#ff0000;" x="191.888926" xlink:href="#mfb06bf1b14" y="244.356708"/>
     <use style="fill:#ff0000;stroke:#ff0000;" x="193.118678" xlink:href="#mfb06bf1b14" y="244.356708"/>
     <use style="fill:#ff0000;stroke:#ff0000;" x="194.34843" xlink:href="#mfb06bf1b14" y="244.356708"/>
     <use style="fill:#ff0000;stroke:#ff0000;" x="195.578182" xlink:href="#mfb06bf1b14" y="253.514004"/>
     <use style="fill:#ff0000;stroke:#ff0000;" x="196.807934" xlink:href="#mfb06bf1b14" y="253.514004"/>
     <use style="fill:#ff0000;stroke:#ff0000;" x="198.037686" xlink:href="#mfb06bf1b14" y="241.974335"/>
     <use style="fill:#ff0000;stroke:#ff0000;" x="199.267438" xlink:href="#mfb06bf1b14" y="241.974335"/>
     <use style="fill:#ff0000;stroke:#ff0000;" x="200.49719" xlink:href="#mfb06bf1b14" y="241.974335"/>
     <use style="fill:#ff0000;stroke:#ff0000;" x="201.726942" xlink:href="#mfb06bf1b14" y="240.562441"/>
     <use style="fill:#ff0000;stroke:#ff0000;" x="202.956694" xlink:href="#mfb06bf1b14" y="240.562441"/>
     <use style="fill:#ff0000;stroke:#ff0000;" x="204.186446" xlink:href="#mfb06bf1b14" y="229.970791"/>
     <use style="fill:#ff0000;stroke:#ff0000;" x="205.416198" xlink:href="#mfb06bf1b14" y="229.970791"/>
     <use style="fill:#ff0000;stroke:#ff0000;" x="206.64595" xlink:href="#mfb06bf1b14" y="238.109835"/>
     <use style="fill:#ff0000;stroke:#ff0000;" x="207.875702" xlink:href="#mfb06bf1b14" y="238.109835"/>
     <use style="fill:#ff0000;stroke:#ff0000;" x="209.105455" xlink:href="#mfb06bf1b14" y="227.580262"/>
     <use style="fill:#ff0000;stroke:#ff0000;" x="210.335207" xlink:href="#mfb06bf1b14" y="227.580262"/>
     <use style="fill:#ff0000;stroke:#ff0000;" x="211.564959" xlink:href="#mfb06bf1b14" y="227.580262"/>
     <use style="fill:#ff0000;stroke:#ff0000;" x="212.794711" xlink:href="#mfb06bf1b14" y="227.580262"/>
     <use style="fill:#ff0000;stroke:#ff0000;" x="214.024463" xlink:href="#mfb06bf1b14" y="227.580262"/>
     <use style="fill:#ff0000;stroke:#ff0000;" x="215.254215" xlink:href="#mfb06bf1b14" y="227.580262"/>
     <use style="fill:#ff0000;stroke:#ff0000;" x="216.483967" xlink:href="#mfb06bf1b14" y="227.580262"/>
     <use style="fill:#ff0000;stroke:#ff0000;" x="217.713719" xlink:href="#mfb06bf1b14" y="227.580262"/>
     <use style="fill:#ff0000;stroke:#ff0000;" x="218.943471" xlink:href="#mfb06bf1b14" y="227.580262"/>
     <use style="fill:#ff0000;stroke:#ff0000;" x="220.173223" xlink:href="#mfb06bf1b14" y="227.580262"/>
     <use style="fill:#ff0000;stroke:#ff0000;" x="221.402975" xlink:href="#mfb06bf1b14" y="227.580262"/>
     <use style="fill:#ff0000;stroke:#ff0000;" x="222.632727" xlink:href="#mfb06bf1b14" y="227.580262"/>
     <use style="fill:#ff0000;stroke:#ff0000;" x="223.862479" xlink:href="#mfb06bf1b14" y="235.502122"/>
     <use style="fill:#ff0000;stroke:#ff0000;" x="225.092231" xlink:href="#mfb06bf1b14" y="235.502122"/>
     <use style="fill:#ff0000;stroke:#ff0000;" x="226.321983" xlink:href="#mfb06bf1b14" y="233.240528"/>
     <use style="fill:#ff0000;stroke:#ff0000;" x="227.551736" xlink:href="#mfb06bf1b14" y="222.97799"/>
     <use style="fill:#ff0000;stroke:#ff0000;" x="228.781488" xlink:href="#mfb06bf1b14" y="222.97799"/>
     <use style="fill:#ff0000;stroke:#ff0000;" x="230.01124" xlink:href="#mfb06bf1b14" y="222.404589"/>
     <use style="fill:#ff0000;stroke:#ff0000;" x="231.240992" xlink:href="#mfb06bf1b14" y="222.404589"/>
     <use style="fill:#ff0000;stroke:#ff0000;" x="232.470744" xlink:href="#mfb06bf1b14" y="222.563736"/>
     <use style="fill:#ff0000;stroke:#ff0000;" x="233.700496" xlink:href="#mfb06bf1b14" y="222.563736"/>
     <use style="fill:#ff0000;stroke:#ff0000;" x="234.930248" xlink:href="#mfb06bf1b14" y="230.867027"/>
     <use style="fill:#ff0000;stroke:#ff0000;" x="236.16" xlink:href="#mfb06bf1b14" y="230.867027"/>
     <use style="fill:#ff0000;stroke:#ff0000;" x="237.389752" xlink:href="#mfb06bf1b14" y="230.867027"/>
     <use style="fill:#ff0000;stroke:#ff0000;" x="238.619504" xlink:href="#mfb06bf1b14" y="230.261712"/>
     <use style="fill:#ff0000;stroke:#ff0000;" x="239.849256" xlink:href="#mfb06bf1b14" y="230.261712"/>
     <use style="fill:#ff0000;stroke:#ff0000;" x="241.079008" xlink:href="#mfb06bf1b14" y="237.890328"/>
     <use style="fill:#ff0000;stroke:#ff0000;" x="242.30876" xlink:href="#mfb06bf1b14" y="237.890328"/>
     <use style="fill:#ff0000;stroke:#ff0000;" x="243.538512" xlink:href="#mfb06bf1b14" y="246.097105"/>
     <use style="fill:#ff0000;stroke:#ff0000;" x="244.768264" xlink:href="#mfb06bf1b14" y="246.097105"/>
     <use style="fill:#ff0000;stroke:#ff0000;" x="245.998017" xlink:href="#mfb06bf1b14" y="246.097105"/>
     <use style="fill:#ff0000;stroke:#ff0000;" x="247.227769" xlink:href="#mfb06bf1b14" y="253.72358"/>
     <use style="fill:#ff0000;stroke:#ff0000;" x="248.457521" xlink:href="#mfb06bf1b14" y="253.72358"/>
     <use style="fill:#ff0000;stroke:#ff0000;" x="249.687273" xlink:href="#mfb06bf1b14" y="262.821176"/>
     <use style="fill:#ff0000;stroke:#ff0000;" x="250.917025" xlink:href="#mfb06bf1b14" y="262.821176"/>
     <use style="fill:#ff0000;stroke:#ff0000;" x="252.146777" xlink:href="#mfb06bf1b14" y="259.736148"/>
     <use style="fill:#ff0000;stroke:#ff0000;" x="253.376529" xlink:href="#mfb06bf1b14" y="267.561398"/>
     <use style="fill:#ff0000;stroke:#ff0000;" x="254.606281" xlink:href="#mfb06bf1b14" y="267.561398"/>
     <use style="fill:#ff0000;stroke:#ff0000;" x="255.836033" xlink:href="#mfb06bf1b14" y="268.174833"/>
     <use style="fill:#ff0000;stroke:#ff0000;" x="257.065785" xlink:href="#mfb06bf1b14" y="268.174833"/>
     <use style="fill:#ff0000;stroke:#ff0000;" x="258.295537" xlink:href="#mfb06bf1b14" y="257.627638"/>
     <use style="fill:#ff0000;stroke:#ff0000;" x="259.525289" xlink:href="#mfb06bf1b14" y="257.627638"/>
     <use style="fill:#ff0000;stroke:#ff0000;" x="260.755041" xlink:href="#mfb06bf1b14" y="257.627638"/>
     <use style="fill:#ff0000;stroke:#ff0000;" x="261.984793" xlink:href="#mfb06bf1b14" y="265.449799"/>
     <use style="fill:#ff0000;stroke:#ff0000;" x="263.214545" xlink:href="#mfb06bf1b14" y="265.449799"/>
     <use style="fill:#ff0000;stroke:#ff0000;" x="264.444298" xlink:href="#mfb06bf1b14" y="273.413749"/>
     <use style="fill:#ff0000;stroke:#ff0000;" x="265.67405" xlink:href="#mfb06bf1b14" y="273.413749"/>
     <use style="fill:#ff0000;stroke:#ff0000;" x="266.903802" xlink:href="#mfb06bf1b14" y="281.769262"/>
     <use style="fill:#ff0000;stroke:#ff0000;" x="268.133554" xlink:href="#mfb06bf1b14" y="271.567065"/>
     <use style="fill:#ff0000;stroke:#ff0000;" x="269.363306" xlink:href="#mfb06bf1b14" y="271.567065"/>
     <use style="fill:#ff0000;stroke:#ff0000;" x="270.593058" xlink:href="#mfb06bf1b14" y="271.567065"/>
     <use style="fill:#ff0000;stroke:#ff0000;" x="271.82281" xlink:href="#mfb06bf1b14" y="271.567065"/>
     <use style="fill:#ff0000;stroke:#ff0000;" x="273.052562" xlink:href="#mfb06bf1b14" y="279.327416"/>
     <use style="fill:#ff0000;stroke:#ff0000;" x="274.282314" xlink:href="#mfb06bf1b14" y="279.327416"/>
     <use style="fill:#ff0000;stroke:#ff0000;" x="275.512066" xlink:href="#mfb06bf1b14" y="288.063065"/>
     <use style="fill:#ff0000;stroke:#ff0000;" x="276.741818" xlink:href="#mfb06bf1b14" y="288.063065"/>
     <use style="fill:#ff0000;stroke:#ff0000;" x="277.97157" xlink:href="#mfb06bf1b14" y="295.488"/>
     <use style="fill:#ff0000;stroke:#ff0000;" x="279.201322" xlink:href="#mfb06bf1b14" y="295.488"/>
     <use style="fill:#ff0000;stroke:#ff0000;" x="280.431074" xlink:href="#mfb06bf1b14" y="295.488"/>
     <use style="fill:#ff0000;stroke:#ff0000;" x="281.660826" xlink:href="#mfb06bf1b14" y="283.459342"/>
     <use style="fill:#ff0000;stroke:#ff0000;" x="282.890579" xlink:href="#mfb06bf1b14" y="283.459342"/>
     <use style="fill:#ff0000;stroke:#ff0000;" x="284.120331" xlink:href="#mfb06bf1b14" y="282.750572"/>
     <use style="fill:#ff0000;stroke:#ff0000;" x="285.350083" xlink:href="#mfb06bf1b14" y="282.750572"/>
     <use style="fill:#ff0000;stroke:#ff0000;" x="286.579835" xlink:href="#mfb06bf1b14" y="270.656118"/>
     <use style="fill:#ff0000;stroke:#ff0000;" x="287.809587" xlink:href="#mfb06bf1b14" y="279.383536"/>
     <use style="fill:#ff0000;stroke:#ff0000;" x="289.039339" xlink:href="#mfb06bf1b14" y="279.383536"/>
     <use style="fill:#ff0000;stroke:#ff0000;" x="290.269091" xlink:href="#mfb06bf1b14" y="278.759504"/>
     <use style="fill:#ff0000;stroke:#ff0000;" x="291.498843" xlink:href="#mfb06bf1b14" y="278.759504"/>
     <use style="fill:#ff0000;stroke:#ff0000;" x="292.728595" xlink:href="#mfb06bf1b14" y="275.748003"/>
     <use style="fill:#ff0000;stroke:#ff0000;" x="293.958347" xlink:href="#mfb06bf1b14" y="275.748003"/>
     <use style="fill:#ff0000;stroke:#ff0000;" x="295.188099" xlink:href="#mfb06bf1b14" y="282.857087"/>
     <use style="fill:#ff0000;stroke:#ff0000;" x="296.417851" xlink:href="#mfb06bf1b14" y="271.970477"/>
     <use style="fill:#ff0000;stroke:#ff0000;" x="297.647603" xlink:href="#mfb06bf1b14" y="271.970477"/>
     <use style="fill:#ff0000;stroke:#ff0000;" x="298.877355" xlink:href="#mfb06bf1b14" y="271.970477"/>
     <use style="fill:#ff0000;stroke:#ff0000;" x="300.107107" xlink:href="#mfb06bf1b14" y="280.745571"/>
     <use style="fill:#ff0000;stroke:#ff0000;" x="301.33686" xlink:href="#mfb06bf1b14" y="269.574625"/>
     <use style="fill:#ff0000;stroke:#ff0000;" x="302.566612" xlink:href="#mfb06bf1b14" y="269.574625"/>
     <use style="fill:#ff0000;stroke:#ff0000;" x="303.796364" xlink:href="#mfb06bf1b14" y="269.574625"/>
     <use style="fill:#ff0000;stroke:#ff0000;" x="305.026116" xlink:href="#mfb06bf1b14" y="269.574625"/>
     <use style="fill:#ff0000;stroke:#ff0000;" x="306.255868" xlink:href="#mfb06bf1b14" y="269.574625"/>
     <use style="fill:#ff0000;stroke:#ff0000;" x="307.48562" xlink:href="#mfb06bf1b14" y="269.574625"/>
     <use style="fill:#ff0000;stroke:#ff0000;" x="308.715372" xlink:href="#mfb06bf1b14" y="269.574625"/>
     <use style="fill:#ff0000;stroke:#ff0000;" x="309.945124" xlink:href="#mfb06bf1b14" y="269.574625"/>
     <use style="fill:#ff0000;stroke:#ff0000;" x="311.174876" xlink:href="#mfb06bf1b14" y="269.574625"/>
     <use style="fill:#ff0000;stroke:#ff0000;" x="312.404628" xlink:href="#mfb06bf1b14" y="269.574625"/>
     <use style="fill:#ff0000;stroke:#ff0000;" x="313.63438" xlink:href="#mfb06bf1b14" y="269.574625"/>
     <use style="fill:#ff0000;stroke:#ff0000;" x="314.864132" xlink:href="#mfb06bf1b14" y="269.574625"/>
     <use style="fill:#ff0000;stroke:#ff0000;" x="316.093884" xlink:href="#mfb06bf1b14" y="269.574625"/>
     <use style="fill:#ff0000;stroke:#ff0000;" x="317.323636" xlink:href="#mfb06bf1b14" y="269.574625"/>
     <use style="fill:#ff0000;stroke:#ff0000;" x="318.553388" xlink:href="#mfb06bf1b14" y="269.574625"/>
     <use style="fill:#ff0000;stroke:#ff0000;" x="319.78314" xlink:href="#mfb06bf1b14" y="269.574625"/>
     <use style="fill:#ff0000;stroke:#ff0000;" x="321.012893" xlink:href="#mfb06bf1b14" y="269.574625"/>
     <use style="fill:#ff0000;stroke:#ff0000;" x="322.242645" xlink:href="#mfb06bf1b14" y="269.574625"/>
     <use style="fill:#ff0000;stroke:#ff0000;" x="323.472397" xlink:href="#mfb06bf1b14" y="269.574625"/>
     <use style="fill:#ff0000;stroke:#ff0000;" x="324.702149" xlink:href="#mfb06bf1b14" y="269.574625"/>
     <use style="fill:#ff0000;stroke:#ff0000;" x="325.931901" xlink:href="#mfb06bf1b14" y="269.574625"/>
     <use style="fill:#ff0000;stroke:#ff0000;" x="327.161653" xlink:href="#mfb06bf1b14" y="269.574625"/>
     <use style="fill:#ff0000;stroke:#ff0000;" x="328.391405" xlink:href="#mfb06bf1b14" y="269.574625"/>
     <use style="fill:#ff0000;stroke:#ff0000;" x="329.621157" xlink:href="#mfb06bf1b14" y="269.574625"/>
     <use style="fill:#ff0000;stroke:#ff0000;" x="330.850909" xlink:href="#mfb06bf1b14" y="269.574625"/>
     <use style="fill:#ff0000;stroke:#ff0000;" x="332.080661" xlink:href="#mfb06bf1b14" y="269.574625"/>
     <use style="fill:#ff0000;stroke:#ff0000;" x="333.310413" xlink:href="#mfb06bf1b14" y="269.574625"/>
     <use style="fill:#ff0000;stroke:#ff0000;" x="334.540165" xlink:href="#mfb06bf1b14" y="269.574625"/>
     <use style="fill:#ff0000;stroke:#ff0000;" x="335.769917" xlink:href="#mfb06bf1b14" y="269.574625"/>
     <use style="fill:#ff0000;stroke:#ff0000;" x="336.999669" xlink:href="#mfb06bf1b14" y="269.574625"/>
     <use style="fill:#ff0000;stroke:#ff0000;" x="338.229421" xlink:href="#mfb06bf1b14" y="269.574625"/>
     <use style="fill:#ff0000;stroke:#ff0000;" x="339.459174" xlink:href="#mfb06bf1b14" y="269.574625"/>
     <use style="fill:#ff0000;stroke:#ff0000;" x="340.688926" xlink:href="#mfb06bf1b14" y="269.574625"/>
     <use style="fill:#ff0000;stroke:#ff0000;" x="341.918678" xlink:href="#mfb06bf1b14" y="269.574625"/>
     <use style="fill:#ff0000;stroke:#ff0000;" x="343.14843" xlink:href="#mfb06bf1b14" y="269.574625"/>
     <use style="fill:#ff0000;stroke:#ff0000;" x="344.378182" xlink:href="#mfb06bf1b14" y="269.574625"/>
     <use style="fill:#ff0000;stroke:#ff0000;" x="345.607934" xlink:href="#mfb06bf1b14" y="269.574625"/>
     <use style="fill:#ff0000;stroke:#ff0000;" x="346.837686" xlink:href="#mfb06bf1b14" y="269.574625"/>
     <use style="fill:#ff0000;stroke:#ff0000;" x="348.067438" xlink:href="#mfb06bf1b14" y="269.574625"/>
     <use style="fill:#ff0000;stroke:#ff0000;" x="349.29719" xlink:href="#mfb06bf1b14" y="269.574625"/>
     <use style="fill:#ff0000;stroke:#ff0000;" x="350.526942" xlink:href="#mfb06bf1b14" y="269.574625"/>
     <use style="fill:#ff0000;stroke:#ff0000;" x="351.756694" xlink:href="#mfb06bf1b14" y="269.574625"/>
     <use style="fill:#ff0000;stroke:#ff0000;" x="352.986446" xlink:href="#mfb06bf1b14" y="269.574625"/>
     <use style="fill:#ff0000;stroke:#ff0000;" x="354.216198" xlink:href="#mfb06bf1b14" y="269.574625"/>
     <use style="fill:#ff0000;stroke:#ff0000;" x="355.44595" xlink:href="#mfb06bf1b14" y="269.574625"/>
     <use style="fill:#ff0000;stroke:#ff0000;" x="356.675702" xlink:href="#mfb06bf1b14" y="269.574625"/>
     <use style="fill:#ff0000;stroke:#ff0000;" x="357.905455" xlink:href="#mfb06bf1b14" y="269.574625"/>
     <use style="fill:#ff0000;stroke:#ff0000;" x="359.135207" xlink:href="#mfb06bf1b14" y="269.574625"/>
     <use style="fill:#ff0000;stroke:#ff0000;" x="360.364959" xlink:href="#mfb06bf1b14" y="269.574625"/>
     <use style="fill:#ff0000;stroke:#ff0000;" x="361.594711" xlink:href="#mfb06bf1b14" y="269.574625"/>
     <use style="fill:#ff0000;stroke:#ff0000;" x="362.824463" xlink:href="#mfb06bf1b14" y="269.574625"/>
     <use style="fill:#ff0000;stroke:#ff0000;" x="364.054215" xlink:href="#mfb06bf1b14" y="269.574625"/>
     <use style="fill:#ff0000;stroke:#ff0000;" x="365.283967" xlink:href="#mfb06bf1b14" y="269.574625"/>
     <use style="fill:#ff0000;stroke:#ff0000;" x="366.513719" xlink:href="#mfb06bf1b14" y="269.574625"/>
     <use style="fill:#ff0000;stroke:#ff0000;" x="367.743471" xlink:href="#mfb06bf1b14" y="269.574625"/>
     <use style="fill:#ff0000;stroke:#ff0000;" x="368.973223" xlink:href="#mfb06bf1b14" y="269.574625"/>
     <use style="fill:#ff0000;stroke:#ff0000;" x="370.202975" xlink:href="#mfb06bf1b14" y="269.574625"/>
     <use style="fill:#ff0000;stroke:#ff0000;" x="371.432727" xlink:href="#mfb06bf1b14" y="269.574625"/>
     <use style="fill:#ff0000;stroke:#ff0000;" x="372.662479" xlink:href="#mfb06bf1b14" y="269.574625"/>
     <use style="fill:#ff0000;stroke:#ff0000;" x="373.892231" xlink:href="#mfb06bf1b14" y="269.574625"/>
     <use style="fill:#ff0000;stroke:#ff0000;" x="375.121983" xlink:href="#mfb06bf1b14" y="269.574625"/>
     <use style="fill:#ff0000;stroke:#ff0000;" x="376.351736" xlink:href="#mfb06bf1b14" y="269.574625"/>
     <use style="fill:#ff0000;stroke:#ff0000;" x="377.581488" xlink:href="#mfb06bf1b14" y="269.574625"/>
     <use style="fill:#ff0000;stroke:#ff0000;" x="378.81124" xlink:href="#mfb06bf1b14" y="269.574625"/>
     <use style="fill:#ff0000;stroke:#ff0000;" x="380.040992" xlink:href="#mfb06bf1b14" y="269.574625"/>
     <use style="fill:#ff0000;stroke:#ff0000;" x="381.270744" xlink:href="#mfb06bf1b14" y="269.574625"/>
     <use style="fill:#ff0000;stroke:#ff0000;" x="382.500496" xlink:href="#mfb06bf1b14" y="269.574625"/>
     <use style="fill:#ff0000;stroke:#ff0000;" x="383.730248" xlink:href="#mfb06bf1b14" y="269.574625"/>
     <use style="fill:#ff0000;stroke:#ff0000;" x="384.96" xlink:href="#mfb06bf1b14" y="269.574625"/>
     <use style="fill:#ff0000;stroke:#ff0000;" x="386.189752" xlink:href="#mfb06bf1b14" y="269.574625"/>
     <use style="fill:#ff0000;stroke:#ff0000;" x="387.419504" xlink:href="#mfb06bf1b14" y="269.574625"/>
     <use style="fill:#ff0000;stroke:#ff0000;" x="388.649256" xlink:href="#mfb06bf1b14" y="269.574625"/>
     <use style="fill:#ff0000;stroke:#ff0000;" x="389.879008" xlink:href="#mfb06bf1b14" y="269.574625"/>
     <use style="fill:#ff0000;stroke:#ff0000;" x="391.10876" xlink:href="#mfb06bf1b14" y="269.574625"/>
     <use style="fill:#ff0000;stroke:#ff0000;" x="392.338512" xlink:href="#mfb06bf1b14" y="269.574625"/>
     <use style="fill:#ff0000;stroke:#ff0000;" x="393.568264" xlink:href="#mfb06bf1b14" y="269.574625"/>
     <use style="fill:#ff0000;stroke:#ff0000;" x="394.798017" xlink:href="#mfb06bf1b14" y="269.574625"/>
     <use style="fill:#ff0000;stroke:#ff0000;" x="396.027769" xlink:href="#mfb06bf1b14" y="269.574625"/>
     <use style="fill:#ff0000;stroke:#ff0000;" x="397.257521" xlink:href="#mfb06bf1b14" y="269.574625"/>
     <use style="fill:#ff0000;stroke:#ff0000;" x="398.487273" xlink:href="#mfb06bf1b14" y="269.574625"/>
    </g>
   </g>
   <g id="patch_3">
    <path d="M 57.6 307.584 
L 57.6 41.472 
" style="fill:none;stroke:#000000;stroke-linecap:square;stroke-linejoin:miter;stroke-width:0.8;"/>
   </g>
   <g id="patch_4">
    <path d="M 414.72 307.584 
L 414.72 41.472 
" style="fill:none;stroke:#000000;stroke-linecap:square;stroke-linejoin:miter;stroke-width:0.8;"/>
   </g>
   <g id="patch_5">
    <path d="M 57.6 307.584 
L 414.72 307.584 
" style="fill:none;stroke:#000000;stroke-linecap:square;stroke-linejoin:miter;stroke-width:0.8;"/>
   </g>
   <g id="patch_6">
    <path d="M 57.6 41.472 
L 414.72 41.472 
" style="fill:none;stroke:#000000;stroke-linecap:square;stroke-linejoin:miter;stroke-width:0.8;"/>
   </g>
  </g>
 </g>
 <defs>
  <clipPath id="pc2c95dbcfd">
   <rect height="266.112" width="357.12" x="57.6" y="41.472"/>
  </clipPath>
 </defs>
</svg>
