<?xml version="1.0" encoding="utf-8" standalone="no"?>
<!DOCTYPE svg PUBLIC "-//W3C//DTD SVG 1.1//EN"
  "http://www.w3.org/Graphics/SVG/1.1/DTD/svg11.dtd">
<!-- Created with matplotlib (https://matplotlib.org/) -->
<svg height="345.6pt" version="1.1" viewBox="0 0 460.8 345.6" width="460.8pt" xmlns="http://www.w3.org/2000/svg" xmlns:xlink="http://www.w3.org/1999/xlink">
 <defs>
  <style type="text/css">
*{stroke-linecap:butt;stroke-linejoin:round;}
  </style>
 </defs>
 <g id="figure_1">
  <g id="patch_1">
   <path d="M 0 345.6 
L 460.8 345.6 
L 460.8 0 
L 0 0 
z
" style="fill:#ffffff;"/>
  </g>
  <g id="axes_1">
   <g id="patch_2">
    <path d="M 57.6 307.584 
L 414.72 307.584 
L 414.72 41.472 
L 57.6 41.472 
z
" style="fill:#ffffff;"/>
   </g>
   <g id="line2d_1">
    <path clip-path="url(#pcd0212f2fa)" d="M 73.832727 76.072723 
L 74.804747 76.072723 
L 75.776766 82.427854 
L 76.748786 82.427854 
L 77.720806 53.73395 
L 78.692825 53.73395 
L 79.664845 82.896667 
L 80.636864 82.896667 
L 81.608884 53.568 
L 82.580904 53.568 
L 83.552923 83.49277 
L 84.524943 83.49277 
L 85.496962 110.515414 
L 87.441002 110.515414 
L 88.413021 139.499563 
L 89.385041 139.499563 
L 90.35706 167.553984 
L 92.3011 167.553984 
L 93.273119 194.914955 
L 94.245139 194.914955 
L 95.217158 220.781865 
L 97.161198 220.781865 
L 98.133217 211.103022 
L 101.049276 211.103022 
L 102.021296 220.26441 
L 102.993315 220.26441 
L 103.965335 209.621857 
L 105.909374 209.621857 
L 106.881394 199.337531 
L 107.853413 199.337531 
L 108.825433 207.545131 
L 109.797452 207.545131 
L 110.769472 216.140137 
L 112.713511 216.140137 
L 113.685531 224.193851 
L 115.62957 224.193851 
L 116.60159 223.289187 
L 117.573609 230.829732 
L 118.545629 230.829732 
L 119.517648 220.391507 
L 120.489668 220.391507 
L 121.461688 228.330431 
L 123.405727 228.330431 
L 124.377746 237.290301 
L 125.349766 226.682131 
L 126.321786 226.682131 
L 127.293805 224.1174 
L 128.265825 224.1174 
L 130.209864 241.088866 
L 131.181884 241.088866 
L 132.153903 230.294744 
L 133.125923 230.294744 
L 134.097942 238.818993 
L 135.069962 238.818993 
L 136.041981 247.444385 
L 137.014001 247.444385 
L 137.986021 236.752416 
L 138.95804 236.752416 
L 139.93006 246.224281 
L 140.902079 246.655793 
L 141.874099 246.655793 
L 142.846119 254.917223 
L 143.818138 254.917223 
L 144.790158 255.319682 
L 146.734197 255.319682 
L 147.706217 243.8304 
L 150.622275 243.8304 
L 151.594295 240.30648 
L 152.566315 237.265124 
L 155.482373 237.265124 
L 156.454393 226.924885 
L 157.426413 226.924885 
L 158.398432 235.399256 
L 159.370452 235.399256 
L 160.342471 231.788399 
L 161.314491 240.104021 
L 162.286511 240.104021 
L 163.25853 247.140568 
L 164.23055 247.140568 
L 165.202569 236.526355 
L 166.174589 236.526355 
L 167.146609 244.356708 
L 169.090648 244.356708 
L 170.062667 253.514004 
L 171.034687 253.514004 
L 172.006707 241.974335 
L 173.950746 241.974335 
L 174.922765 240.562441 
L 175.894785 240.562441 
L 176.866805 229.970791 
L 177.838824 229.970791 
L 178.810844 238.109835 
L 179.782863 238.109835 
L 180.754883 227.580262 
L 191.447099 227.580262 
L 192.419118 235.502122 
L 193.391138 235.502122 
L 194.363157 233.240528 
L 195.335177 222.97799 
L 196.307197 222.97799 
L 197.279216 222.404589 
L 198.251236 222.404589 
L 199.223255 222.563736 
L 200.195275 222.563736 
L 201.167295 230.867027 
L 203.111334 230.867027 
L 204.083353 230.261712 
L 205.055373 230.261712 
L 206.027392 237.890328 
L 206.999412 237.890328 
L 207.971432 246.097105 
L 209.915471 246.097105 
L 210.88749 253.72358 
L 211.85951 253.72358 
L 212.83153 262.821176 
L 213.803549 262.821176 
L 214.775569 259.736148 
L 215.747588 267.561398 
L 216.719608 267.561398 
L 217.691628 268.174833 
L 218.663647 268.174833 
L 219.635667 257.627638 
L 221.579706 257.627638 
L 222.551726 265.449799 
L 223.523745 265.449799 
L 224.495765 273.413749 
L 225.467784 273.413749 
L 226.439804 281.769262 
L 227.411824 271.567065 
L 230.327882 271.567065 
L 231.299902 279.327416 
L 232.271922 279.327416 
L 233.243941 288.063065 
L 234.215961 288.063065 
L 235.18798 295.488 
L 237.13202 295.488 
L 238.104039 283.459342 
L 239.076059 283.459342 
L 240.048078 282.750572 
L 241.020098 282.750572 
L 241.992118 270.656118 
L 242.964137 279.383536 
L 243.936157 279.383536 
L 244.908176 278.759504 
L 245.880196 278.759504 
L 246.852216 275.748003 
L 247.824235 275.748003 
L 248.796255 282.857087 
L 249.768274 271.970477 
L 251.712314 271.970477 
L 252.684333 280.745571 
L 253.656353 269.574625 
L 398.487273 269.574625 
L 398.487273 269.574625 
" style="fill:none;stroke:#ff0000;stroke-linecap:square;stroke-width:12;"/>
    <defs>
     <path d="M 0 3 
C 0.795609 3 1.55874 2.683901 2.12132 2.12132 
C 2.683901 1.55874 3 0.795609 3 0 
C 3 -0.795609 2.683901 -1.55874 2.12132 -2.12132 
C 1.55874 -2.683901 0.795609 -3 0 -3 
C -0.795609 -3 -1.55874 -2.683901 -2.12132 -2.12132 
C -2.683901 -1.55874 -3 -0.795609 -3 0 
C -3 0.795609 -2.683901 1.55874 -2.12132 2.12132 
C -1.55874 2.683901 -0.795609 3 0 3 
z
" id="md5baed4c3c" style="stroke:#ff0000;"/>
    </defs>
    <g clip-path="url(#pcd0212f2fa)">
     <use style="fill:#ff0000;stroke:#ff0000;" x="73.832727" xlink:href="#md5baed4c3c" y="76.072723"/>
     <use style="fill:#ff0000;stroke:#ff0000;" x="74.804747" xlink:href="#md5baed4c3c" y="76.072723"/>
     <use style="fill:#ff0000;stroke:#ff0000;" x="75.776766" xlink:href="#md5baed4c3c" y="82.427854"/>
     <use style="fill:#ff0000;stroke:#ff0000;" x="76.748786" xlink:href="#md5baed4c3c" y="82.427854"/>
     <use style="fill:#ff0000;stroke:#ff0000;" x="77.720806" xlink:href="#md5baed4c3c" y="53.73395"/>
     <use style="fill:#ff0000;stroke:#ff0000;" x="78.692825" xlink:href="#md5baed4c3c" y="53.73395"/>
     <use style="fill:#ff0000;stroke:#ff0000;" x="79.664845" xlink:href="#md5baed4c3c" y="82.896667"/>
     <use style="fill:#ff0000;stroke:#ff0000;" x="80.636864" xlink:href="#md5baed4c3c" y="82.896667"/>
     <use style="fill:#ff0000;stroke:#ff0000;" x="81.608884" xlink:href="#md5baed4c3c" y="53.568"/>
     <use style="fill:#ff0000;stroke:#ff0000;" x="82.580904" xlink:href="#md5baed4c3c" y="53.568"/>
     <use style="fill:#ff0000;stroke:#ff0000;" x="83.552923" xlink:href="#md5baed4c3c" y="83.49277"/>
     <use style="fill:#ff0000;stroke:#ff0000;" x="84.524943" xlink:href="#md5baed4c3c" y="83.49277"/>
     <use style="fill:#ff0000;stroke:#ff0000;" x="85.496962" xlink:href="#md5baed4c3c" y="110.515414"/>
     <use style="fill:#ff0000;stroke:#ff0000;" x="86.468982" xlink:href="#md5baed4c3c" y="110.515414"/>
     <use style="fill:#ff0000;stroke:#ff0000;" x="87.441002" xlink:href="#md5baed4c3c" y="110.515414"/>
     <use style="fill:#ff0000;stroke:#ff0000;" x="88.413021" xlink:href="#md5baed4c3c" y="139.499563"/>
     <use style="fill:#ff0000;stroke:#ff0000;" x="89.385041" xlink:href="#md5baed4c3c" y="139.499563"/>
     <use style="fill:#ff0000;stroke:#ff0000;" x="90.35706" xlink:href="#md5baed4c3c" y="167.553984"/>
     <use style="fill:#ff0000;stroke:#ff0000;" x="91.32908" xlink:href="#md5baed4c3c" y="167.553984"/>
     <use style="fill:#ff0000;stroke:#ff0000;" x="92.3011" xlink:href="#md5baed4c3c" y="167.553984"/>
     <use style="fill:#ff0000;stroke:#ff0000;" x="93.273119" xlink:href="#md5baed4c3c" y="194.914955"/>
     <use style="fill:#ff0000;stroke:#ff0000;" x="94.245139" xlink:href="#md5baed4c3c" y="194.914955"/>
     <use style="fill:#ff0000;stroke:#ff0000;" x="95.217158" xlink:href="#md5baed4c3c" y="220.781865"/>
     <use style="fill:#ff0000;stroke:#ff0000;" x="96.189178" xlink:href="#md5baed4c3c" y="220.781865"/>
     <use style="fill:#ff0000;stroke:#ff0000;" x="97.161198" xlink:href="#md5baed4c3c" y="220.781865"/>
     <use style="fill:#ff0000;stroke:#ff0000;" x="98.133217" xlink:href="#md5baed4c3c" y="211.103022"/>
     <use style="fill:#ff0000;stroke:#ff0000;" x="99.105237" xlink:href="#md5baed4c3c" y="211.103022"/>
     <use style="fill:#ff0000;stroke:#ff0000;" x="100.077256" xlink:href="#md5baed4c3c" y="211.103022"/>
     <use style="fill:#ff0000;stroke:#ff0000;" x="101.049276" xlink:href="#md5baed4c3c" y="211.103022"/>
     <use style="fill:#ff0000;stroke:#ff0000;" x="102.021296" xlink:href="#md5baed4c3c" y="220.26441"/>
     <use style="fill:#ff0000;stroke:#ff0000;" x="102.993315" xlink:href="#md5baed4c3c" y="220.26441"/>
     <use style="fill:#ff0000;stroke:#ff0000;" x="103.965335" xlink:href="#md5baed4c3c" y="209.621857"/>
     <use style="fill:#ff0000;stroke:#ff0000;" x="104.937354" xlink:href="#md5baed4c3c" y="209.621857"/>
     <use style="fill:#ff0000;stroke:#ff0000;" x="105.909374" xlink:href="#md5baed4c3c" y="209.621857"/>
     <use style="fill:#ff0000;stroke:#ff0000;" x="106.881394" xlink:href="#md5baed4c3c" y="199.337531"/>
     <use style="fill:#ff0000;stroke:#ff0000;" x="107.853413" xlink:href="#md5baed4c3c" y="199.337531"/>
     <use style="fill:#ff0000;stroke:#ff0000;" x="108.825433" xlink:href="#md5baed4c3c" y="207.545131"/>
     <use style="fill:#ff0000;stroke:#ff0000;" x="109.797452" xlink:href="#md5baed4c3c" y="207.545131"/>
     <use style="fill:#ff0000;stroke:#ff0000;" x="110.769472" xlink:href="#md5baed4c3c" y="216.140137"/>
     <use style="fill:#ff0000;stroke:#ff0000;" x="111.741492" xlink:href="#md5baed4c3c" y="216.140137"/>
     <use style="fill:#ff0000;stroke:#ff0000;" x="112.713511" xlink:href="#md5baed4c3c" y="216.140137"/>
     <use style="fill:#ff0000;stroke:#ff0000;" x="113.685531" xlink:href="#md5baed4c3c" y="224.193851"/>
     <use style="fill:#ff0000;stroke:#ff0000;" x="114.65755" xlink:href="#md5baed4c3c" y="224.193851"/>
     <use style="fill:#ff0000;stroke:#ff0000;" x="115.62957" xlink:href="#md5baed4c3c" y="224.193851"/>
     <use style="fill:#ff0000;stroke:#ff0000;" x="116.60159" xlink:href="#md5baed4c3c" y="223.289187"/>
     <use style="fill:#ff0000;stroke:#ff0000;" x="117.573609" xlink:href="#md5baed4c3c" y="230.829732"/>
     <use style="fill:#ff0000;stroke:#ff0000;" x="118.545629" xlink:href="#md5baed4c3c" y="230.829732"/>
     <use style="fill:#ff0000;stroke:#ff0000;" x="119.517648" xlink:href="#md5baed4c3c" y="220.391507"/>
     <use style="fill:#ff0000;stroke:#ff0000;" x="120.489668" xlink:href="#md5baed4c3c" y="220.391507"/>
     <use style="fill:#ff0000;stroke:#ff0000;" x="121.461688" xlink:href="#md5baed4c3c" y="228.330431"/>
     <use style="fill:#ff0000;stroke:#ff0000;" x="122.433707" xlink:href="#md5baed4c3c" y="228.330431"/>
     <use style="fill:#ff0000;stroke:#ff0000;" x="123.405727" xlink:href="#md5baed4c3c" y="228.330431"/>
     <use style="fill:#ff0000;stroke:#ff0000;" x="124.377746" xlink:href="#md5baed4c3c" y="237.290301"/>
     <use style="fill:#ff0000;stroke:#ff0000;" x="125.349766" xlink:href="#md5baed4c3c" y="226.682131"/>
     <use style="fill:#ff0000;stroke:#ff0000;" x="126.321786" xlink:href="#md5baed4c3c" y="226.682131"/>
     <use style="fill:#ff0000;stroke:#ff0000;" x="127.293805" xlink:href="#md5baed4c3c" y="224.1174"/>
     <use style="fill:#ff0000;stroke:#ff0000;" x="128.265825" xlink:href="#md5baed4c3c" y="224.1174"/>
     <use style="fill:#ff0000;stroke:#ff0000;" x="129.237844" xlink:href="#md5baed4c3c" y="232.784261"/>
     <use style="fill:#ff0000;stroke:#ff0000;" x="130.209864" xlink:href="#md5baed4c3c" y="241.088866"/>
     <use style="fill:#ff0000;stroke:#ff0000;" x="131.181884" xlink:href="#md5baed4c3c" y="241.088866"/>
     <use style="fill:#ff0000;stroke:#ff0000;" x="132.153903" xlink:href="#md5baed4c3c" y="230.294744"/>
     <use style="fill:#ff0000;stroke:#ff0000;" x="133.125923" xlink:href="#md5baed4c3c" y="230.294744"/>
     <use style="fill:#ff0000;stroke:#ff0000;" x="134.097942" xlink:href="#md5baed4c3c" y="238.818993"/>
     <use style="fill:#ff0000;stroke:#ff0000;" x="135.069962" xlink:href="#md5baed4c3c" y="238.818993"/>
     <use style="fill:#ff0000;stroke:#ff0000;" x="136.041981" xlink:href="#md5baed4c3c" y="247.444385"/>
     <use style="fill:#ff0000;stroke:#ff0000;" x="137.014001" xlink:href="#md5baed4c3c" y="247.444385"/>
     <use style="fill:#ff0000;stroke:#ff0000;" x="137.986021" xlink:href="#md5baed4c3c" y="236.752416"/>
     <use style="fill:#ff0000;stroke:#ff0000;" x="138.95804" xlink:href="#md5baed4c3c" y="236.752416"/>
     <use style="fill:#ff0000;stroke:#ff0000;" x="139.93006" xlink:href="#md5baed4c3c" y="246.224281"/>
     <use style="fill:#ff0000;stroke:#ff0000;" x="140.902079" xlink:href="#md5baed4c3c" y="246.655793"/>
     <use style="fill:#ff0000;stroke:#ff0000;" x="141.874099" xlink:href="#md5baed4c3c" y="246.655793"/>
     <use style="fill:#ff0000;stroke:#ff0000;" x="142.846119" xlink:href="#md5baed4c3c" y="254.917223"/>
     <use style="fill:#ff0000;stroke:#ff0000;" x="143.818138" xlink:href="#md5baed4c3c" y="254.917223"/>
     <use style="fill:#ff0000;stroke:#ff0000;" x="144.790158" xlink:href="#md5baed4c3c" y="255.319682"/>
     <use style="fill:#ff0000;stroke:#ff0000;" x="145.762177" xlink:href="#md5baed4c3c" y="255.319682"/>
     <use style="fill:#ff0000;stroke:#ff0000;" x="146.734197" xlink:href="#md5baed4c3c" y="255.319682"/>
     <use style="fill:#ff0000;stroke:#ff0000;" x="147.706217" xlink:href="#md5baed4c3c" y="243.8304"/>
     <use style="fill:#ff0000;stroke:#ff0000;" x="148.678236" xlink:href="#md5baed4c3c" y="243.8304"/>
     <use style="fill:#ff0000;stroke:#ff0000;" x="149.650256" xlink:href="#md5baed4c3c" y="243.8304"/>
     <use style="fill:#ff0000;stroke:#ff0000;" x="150.622275" xlink:href="#md5baed4c3c" y="243.8304"/>
     <use style="fill:#ff0000;stroke:#ff0000;" x="151.594295" xlink:href="#md5baed4c3c" y="240.30648"/>
     <use style="fill:#ff0000;stroke:#ff0000;" x="152.566315" xlink:href="#md5baed4c3c" y="237.265124"/>
     <use style="fill:#ff0000;stroke:#ff0000;" x="153.538334" xlink:href="#md5baed4c3c" y="237.265124"/>
     <use style="fill:#ff0000;stroke:#ff0000;" x="154.510354" xlink:href="#md5baed4c3c" y="237.265124"/>
     <use style="fill:#ff0000;stroke:#ff0000;" x="155.482373" xlink:href="#md5baed4c3c" y="237.265124"/>
     <use style="fill:#ff0000;stroke:#ff0000;" x="156.454393" xlink:href="#md5baed4c3c" y="226.924885"/>
     <use style="fill:#ff0000;stroke:#ff0000;" x="157.426413" xlink:href="#md5baed4c3c" y="226.924885"/>
     <use style="fill:#ff0000;stroke:#ff0000;" x="158.398432" xlink:href="#md5baed4c3c" y="235.399256"/>
     <use style="fill:#ff0000;stroke:#ff0000;" x="159.370452" xlink:href="#md5baed4c3c" y="235.399256"/>
     <use style="fill:#ff0000;stroke:#ff0000;" x="160.342471" xlink:href="#md5baed4c3c" y="231.788399"/>
     <use style="fill:#ff0000;stroke:#ff0000;" x="161.314491" xlink:href="#md5baed4c3c" y="240.104021"/>
     <use style="fill:#ff0000;stroke:#ff0000;" x="162.286511" xlink:href="#md5baed4c3c" y="240.104021"/>
     <use style="fill:#ff0000;stroke:#ff0000;" x="163.25853" xlink:href="#md5baed4c3c" y="247.140568"/>
     <use style="fill:#ff0000;stroke:#ff0000;" x="164.23055" xlink:href="#md5baed4c3c" y="247.140568"/>
     <use style="fill:#ff0000;stroke:#ff0000;" x="165.202569" xlink:href="#md5baed4c3c" y="236.526355"/>
     <use style="fill:#ff0000;stroke:#ff0000;" x="166.174589" xlink:href="#md5baed4c3c" y="236.526355"/>
     <use style="fill:#ff0000;stroke:#ff0000;" x="167.146609" xlink:href="#md5baed4c3c" y="244.356708"/>
     <use style="fill:#ff0000;stroke:#ff0000;" x="168.118628" xlink:href="#md5baed4c3c" y="244.356708"/>
     <use style="fill:#ff0000;stroke:#ff0000;" x="169.090648" xlink:href="#md5baed4c3c" y="244.356708"/>
     <use style="fill:#ff0000;stroke:#ff0000;" x="170.062667" xlink:href="#md5baed4c3c" y="253.514004"/>
     <use style="fill:#ff0000;stroke:#ff0000;" x="171.034687" xlink:href="#md5baed4c3c" y="253.514004"/>
     <use style="fill:#ff0000;stroke:#ff0000;" x="172.006707" xlink:href="#md5baed4c3c" y="241.974335"/>
     <use style="fill:#ff0000;stroke:#ff0000;" x="172.978726" xlink:href="#md5baed4c3c" y="241.974335"/>
     <use style="fill:#ff0000;stroke:#ff0000;" x="173.950746" xlink:href="#md5baed4c3c" y="241.974335"/>
     <use style="fill:#ff0000;stroke:#ff0000;" x="174.922765" xlink:href="#md5baed4c3c" y="240.562441"/>
     <use style="fill:#ff0000;stroke:#ff0000;" x="175.894785" xlink:href="#md5baed4c3c" y="240.562441"/>
     <use style="fill:#ff0000;stroke:#ff0000;" x="176.866805" xlink:href="#md5baed4c3c" y="229.970791"/>
     <use style="fill:#ff0000;stroke:#ff0000;" x="177.838824" xlink:href="#md5baed4c3c" y="229.970791"/>
     <use style="fill:#ff0000;stroke:#ff0000;" x="178.810844" xlink:href="#md5baed4c3c" y="238.109835"/>
     <use style="fill:#ff0000;stroke:#ff0000;" x="179.782863" xlink:href="#md5baed4c3c" y="238.109835"/>
     <use style="fill:#ff0000;stroke:#ff0000;" x="180.754883" xlink:href="#md5baed4c3c" y="227.580262"/>
     <use style="fill:#ff0000;stroke:#ff0000;" x="181.726903" xlink:href="#md5baed4c3c" y="227.580262"/>
     <use style="fill:#ff0000;stroke:#ff0000;" x="182.698922" xlink:href="#md5baed4c3c" y="227.580262"/>
     <use style="fill:#ff0000;stroke:#ff0000;" x="183.670942" xlink:href="#md5baed4c3c" y="227.580262"/>
     <use style="fill:#ff0000;stroke:#ff0000;" x="184.642961" xlink:href="#md5baed4c3c" y="227.580262"/>
     <use style="fill:#ff0000;stroke:#ff0000;" x="185.614981" xlink:href="#md5baed4c3c" y="227.580262"/>
     <use style="fill:#ff0000;stroke:#ff0000;" x="186.587001" xlink:href="#md5baed4c3c" y="227.580262"/>
     <use style="fill:#ff0000;stroke:#ff0000;" x="187.55902" xlink:href="#md5baed4c3c" y="227.580262"/>
     <use style="fill:#ff0000;stroke:#ff0000;" x="188.53104" xlink:href="#md5baed4c3c" y="227.580262"/>
     <use style="fill:#ff0000;stroke:#ff0000;" x="189.503059" xlink:href="#md5baed4c3c" y="227.580262"/>
     <use style="fill:#ff0000;stroke:#ff0000;" x="190.475079" xlink:href="#md5baed4c3c" y="227.580262"/>
     <use style="fill:#ff0000;stroke:#ff0000;" x="191.447099" xlink:href="#md5baed4c3c" y="227.580262"/>
     <use style="fill:#ff0000;stroke:#ff0000;" x="192.419118" xlink:href="#md5baed4c3c" y="235.502122"/>
     <use style="fill:#ff0000;stroke:#ff0000;" x="193.391138" xlink:href="#md5baed4c3c" y="235.502122"/>
     <use style="fill:#ff0000;stroke:#ff0000;" x="194.363157" xlink:href="#md5baed4c3c" y="233.240528"/>
     <use style="fill:#ff0000;stroke:#ff0000;" x="195.335177" xlink:href="#md5baed4c3c" y="222.97799"/>
     <use style="fill:#ff0000;stroke:#ff0000;" x="196.307197" xlink:href="#md5baed4c3c" y="222.97799"/>
     <use style="fill:#ff0000;stroke:#ff0000;" x="197.279216" xlink:href="#md5baed4c3c" y="222.404589"/>
     <use style="fill:#ff0000;stroke:#ff0000;" x="198.251236" xlink:href="#md5baed4c3c" y="222.404589"/>
     <use style="fill:#ff0000;stroke:#ff0000;" x="199.223255" xlink:href="#md5baed4c3c" y="222.563736"/>
     <use style="fill:#ff0000;stroke:#ff0000;" x="200.195275" xlink:href="#md5baed4c3c" y="222.563736"/>
     <use style="fill:#ff0000;stroke:#ff0000;" x="201.167295" xlink:href="#md5baed4c3c" y="230.867027"/>
     <use style="fill:#ff0000;stroke:#ff0000;" x="202.139314" xlink:href="#md5baed4c3c" y="230.867027"/>
     <use style="fill:#ff0000;stroke:#ff0000;" x="203.111334" xlink:href="#md5baed4c3c" y="230.867027"/>
     <use style="fill:#ff0000;stroke:#ff0000;" x="204.083353" xlink:href="#md5baed4c3c" y="230.261712"/>
     <use style="fill:#ff0000;stroke:#ff0000;" x="205.055373" xlink:href="#md5baed4c3c" y="230.261712"/>
     <use style="fill:#ff0000;stroke:#ff0000;" x="206.027392" xlink:href="#md5baed4c3c" y="237.890328"/>
     <use style="fill:#ff0000;stroke:#ff0000;" x="206.999412" xlink:href="#md5baed4c3c" y="237.890328"/>
     <use style="fill:#ff0000;stroke:#ff0000;" x="207.971432" xlink:href="#md5baed4c3c" y="246.097105"/>
     <use style="fill:#ff0000;stroke:#ff0000;" x="208.943451" xlink:href="#md5baed4c3c" y="246.097105"/>
     <use style="fill:#ff0000;stroke:#ff0000;" x="209.915471" xlink:href="#md5baed4c3c" y="246.097105"/>
     <use style="fill:#ff0000;stroke:#ff0000;" x="210.88749" xlink:href="#md5baed4c3c" y="253.72358"/>
     <use style="fill:#ff0000;stroke:#ff0000;" x="211.85951" xlink:href="#md5baed4c3c" y="253.72358"/>
     <use style="fill:#ff0000;stroke:#ff0000;" x="212.83153" xlink:href="#md5baed4c3c" y="262.821176"/>
     <use style="fill:#ff0000;stroke:#ff0000;" x="213.803549" xlink:href="#md5baed4c3c" y="262.821176"/>
     <use style="fill:#ff0000;stroke:#ff0000;" x="214.775569" xlink:href="#md5baed4c3c" y="259.736148"/>
     <use style="fill:#ff0000;stroke:#ff0000;" x="215.747588" xlink:href="#md5baed4c3c" y="267.561398"/>
     <use style="fill:#ff0000;stroke:#ff0000;" x="216.719608" xlink:href="#md5baed4c3c" y="267.561398"/>
     <use style="fill:#ff0000;stroke:#ff0000;" x="217.691628" xlink:href="#md5baed4c3c" y="268.174833"/>
     <use style="fill:#ff0000;stroke:#ff0000;" x="218.663647" xlink:href="#md5baed4c3c" y="268.174833"/>
     <use style="fill:#ff0000;stroke:#ff0000;" x="219.635667" xlink:href="#md5baed4c3c" y="257.627638"/>
     <use style="fill:#ff0000;stroke:#ff0000;" x="220.607686" xlink:href="#md5baed4c3c" y="257.627638"/>
     <use style="fill:#ff0000;stroke:#ff0000;" x="221.579706" xlink:href="#md5baed4c3c" y="257.627638"/>
     <use style="fill:#ff0000;stroke:#ff0000;" x="222.551726" xlink:href="#md5baed4c3c" y="265.449799"/>
     <use style="fill:#ff0000;stroke:#ff0000;" x="223.523745" xlink:href="#md5baed4c3c" y="265.449799"/>
     <use style="fill:#ff0000;stroke:#ff0000;" x="224.495765" xlink:href="#md5baed4c3c" y="273.413749"/>
     <use style="fill:#ff0000;stroke:#ff0000;" x="225.467784" xlink:href="#md5baed4c3c" y="273.413749"/>
     <use style="fill:#ff0000;stroke:#ff0000;" x="226.439804" xlink:href="#md5baed4c3c" y="281.769262"/>
     <use style="fill:#ff0000;stroke:#ff0000;" x="227.411824" xlink:href="#md5baed4c3c" y="271.567065"/>
     <use style="fill:#ff0000;stroke:#ff0000;" x="228.383843" xlink:href="#md5baed4c3c" y="271.567065"/>
     <use style="fill:#ff0000;stroke:#ff0000;" x="229.355863" xlink:href="#md5baed4c3c" y="271.567065"/>
     <use style="fill:#ff0000;stroke:#ff0000;" x="230.327882" xlink:href="#md5baed4c3c" y="271.567065"/>
     <use style="fill:#ff0000;stroke:#ff0000;" x="231.299902" xlink:href="#md5baed4c3c" y="279.327416"/>
     <use style="fill:#ff0000;stroke:#ff0000;" x="232.271922" xlink:href="#md5baed4c3c" y="279.327416"/>
     <use style="fill:#ff0000;stroke:#ff0000;" x="233.243941" xlink:href="#md5baed4c3c" y="288.063065"/>
     <use style="fill:#ff0000;stroke:#ff0000;" x="234.215961" xlink:href="#md5baed4c3c" y="288.063065"/>
     <use style="fill:#ff0000;stroke:#ff0000;" x="235.18798" xlink:href="#md5baed4c3c" y="295.488"/>
     <use style="fill:#ff0000;stroke:#ff0000;" x="236.16" xlink:href="#md5baed4c3c" y="295.488"/>
     <use style="fill:#ff0000;stroke:#ff0000;" x="237.13202" xlink:href="#md5baed4c3c" y="295.488"/>
     <use style="fill:#ff0000;stroke:#ff0000;" x="238.104039" xlink:href="#md5baed4c3c" y="283.459342"/>
     <use style="fill:#ff0000;stroke:#ff0000;" x="239.076059" xlink:href="#md5baed4c3c" y="283.459342"/>
     <use style="fill:#ff0000;stroke:#ff0000;" x="240.048078" xlink:href="#md5baed4c3c" y="282.750572"/>
     <use style="fill:#ff0000;stroke:#ff0000;" x="241.020098" xlink:href="#md5baed4c3c" y="282.750572"/>
     <use style="fill:#ff0000;stroke:#ff0000;" x="241.992118" xlink:href="#md5baed4c3c" y="270.656118"/>
     <use style="fill:#ff0000;stroke:#ff0000;" x="242.964137" xlink:href="#md5baed4c3c" y="279.383536"/>
     <use style="fill:#ff0000;stroke:#ff0000;" x="243.936157" xlink:href="#md5baed4c3c" y="279.383536"/>
     <use style="fill:#ff0000;stroke:#ff0000;" x="244.908176" xlink:href="#md5baed4c3c" y="278.759504"/>
     <use style="fill:#ff0000;stroke:#ff0000;" x="245.880196" xlink:href="#md5baed4c3c" y="278.759504"/>
     <use style="fill:#ff0000;stroke:#ff0000;" x="246.852216" xlink:href="#md5baed4c3c" y="275.748003"/>
     <use style="fill:#ff0000;stroke:#ff0000;" x="247.824235" xlink:href="#md5baed4c3c" y="275.748003"/>
     <use style="fill:#ff0000;stroke:#ff0000;" x="248.796255" xlink:href="#md5baed4c3c" y="282.857087"/>
     <use style="fill:#ff0000;stroke:#ff0000;" x="249.768274" xlink:href="#md5baed4c3c" y="271.970477"/>
     <use style="fill:#ff0000;stroke:#ff0000;" x="250.740294" xlink:href="#md5baed4c3c" y="271.970477"/>
     <use style="fill:#ff0000;stroke:#ff0000;" x="251.712314" xlink:href="#md5baed4c3c" y="271.970477"/>
     <use style="fill:#ff0000;stroke:#ff0000;" x="252.684333" xlink:href="#md5baed4c3c" y="280.745571"/>
     <use style="fill:#ff0000;stroke:#ff0000;" x="253.656353" xlink:href="#md5baed4c3c" y="269.574625"/>
     <use style="fill:#ff0000;stroke:#ff0000;" x="254.628372" xlink:href="#md5baed4c3c" y="269.574625"/>
     <use style="fill:#ff0000;stroke:#ff0000;" x="255.600392" xlink:href="#md5baed4c3c" y="269.574625"/>
     <use style="fill:#ff0000;stroke:#ff0000;" x="256.572412" xlink:href="#md5baed4c3c" y="269.574625"/>
     <use style="fill:#ff0000;stroke:#ff0000;" x="257.544431" xlink:href="#md5baed4c3c" y="269.574625"/>
     <use style="fill:#ff0000;stroke:#ff0000;" x="258.516451" xlink:href="#md5baed4c3c" y="269.574625"/>
     <use style="fill:#ff0000;stroke:#ff0000;" x="259.48847" xlink:href="#md5baed4c3c" y="269.574625"/>
     <use style="fill:#ff0000;stroke:#ff0000;" x="260.46049" xlink:href="#md5baed4c3c" y="269.574625"/>
     <use style="fill:#ff0000;stroke:#ff0000;" x="261.43251" xlink:href="#md5baed4c3c" y="269.574625"/>
     <use style="fill:#ff0000;stroke:#ff0000;" x="262.404529" xlink:href="#md5baed4c3c" y="269.574625"/>
     <use style="fill:#ff0000;stroke:#ff0000;" x="263.376549" xlink:href="#md5baed4c3c" y="269.574625"/>
     <use style="fill:#ff0000;stroke:#ff0000;" x="264.348568" xlink:href="#md5baed4c3c" y="269.574625"/>
     <use style="fill:#ff0000;stroke:#ff0000;" x="265.320588" xlink:href="#md5baed4c3c" y="269.574625"/>
     <use style="fill:#ff0000;stroke:#ff0000;" x="266.292608" xlink:href="#md5baed4c3c" y="269.574625"/>
     <use style="fill:#ff0000;stroke:#ff0000;" x="267.264627" xlink:href="#md5baed4c3c" y="269.574625"/>
     <use style="fill:#ff0000;stroke:#ff0000;" x="268.236647" xlink:href="#md5baed4c3c" y="269.574625"/>
     <use style="fill:#ff0000;stroke:#ff0000;" x="269.208666" xlink:href="#md5baed4c3c" y="269.574625"/>
     <use style="fill:#ff0000;stroke:#ff0000;" x="270.180686" xlink:href="#md5baed4c3c" y="269.574625"/>
     <use style="fill:#ff0000;stroke:#ff0000;" x="271.152705" xlink:href="#md5baed4c3c" y="269.574625"/>
     <use style="fill:#ff0000;stroke:#ff0000;" x="272.124725" xlink:href="#md5baed4c3c" y="269.574625"/>
     <use style="fill:#ff0000;stroke:#ff0000;" x="273.096745" xlink:href="#md5baed4c3c" y="269.574625"/>
     <use style="fill:#ff0000;stroke:#ff0000;" x="274.068764" xlink:href="#md5baed4c3c" y="269.574625"/>
     <use style="fill:#ff0000;stroke:#ff0000;" x="275.040784" xlink:href="#md5baed4c3c" y="269.574625"/>
     <use style="fill:#ff0000;stroke:#ff0000;" x="276.012803" xlink:href="#md5baed4c3c" y="269.574625"/>
     <use style="fill:#ff0000;stroke:#ff0000;" x="276.984823" xlink:href="#md5baed4c3c" y="269.574625"/>
     <use style="fill:#ff0000;stroke:#ff0000;" x="277.956843" xlink:href="#md5baed4c3c" y="269.574625"/>
     <use style="fill:#ff0000;stroke:#ff0000;" x="278.928862" xlink:href="#md5baed4c3c" y="269.574625"/>
     <use style="fill:#ff0000;stroke:#ff0000;" x="279.900882" xlink:href="#md5baed4c3c" y="269.574625"/>
     <use style="fill:#ff0000;stroke:#ff0000;" x="280.872901" xlink:href="#md5baed4c3c" y="269.574625"/>
     <use style="fill:#ff0000;stroke:#ff0000;" x="281.844921" xlink:href="#md5baed4c3c" y="269.574625"/>
     <use style="fill:#ff0000;stroke:#ff0000;" x="282.816941" xlink:href="#md5baed4c3c" y="269.574625"/>
     <use style="fill:#ff0000;stroke:#ff0000;" x="283.78896" xlink:href="#md5baed4c3c" y="269.574625"/>
     <use style="fill:#ff0000;stroke:#ff0000;" x="284.76098" xlink:href="#md5baed4c3c" y="269.574625"/>
     <use style="fill:#ff0000;stroke:#ff0000;" x="285.732999" xlink:href="#md5baed4c3c" y="269.574625"/>
     <use style="fill:#ff0000;stroke:#ff0000;" x="286.705019" xlink:href="#md5baed4c3c" y="269.574625"/>
     <use style="fill:#ff0000;stroke:#ff0000;" x="287.677039" xlink:href="#md5baed4c3c" y="269.574625"/>
     <use style="fill:#ff0000;stroke:#ff0000;" x="288.649058" xlink:href="#md5baed4c3c" y="269.574625"/>
     <use style="fill:#ff0000;stroke:#ff0000;" x="289.621078" xlink:href="#md5baed4c3c" y="269.574625"/>
     <use style="fill:#ff0000;stroke:#ff0000;" x="290.593097" xlink:href="#md5baed4c3c" y="269.574625"/>
     <use style="fill:#ff0000;stroke:#ff0000;" x="291.565117" xlink:href="#md5baed4c3c" y="269.574625"/>
     <use style="fill:#ff0000;stroke:#ff0000;" x="292.537137" xlink:href="#md5baed4c3c" y="269.574625"/>
     <use style="fill:#ff0000;stroke:#ff0000;" x="293.509156" xlink:href="#md5baed4c3c" y="269.574625"/>
     <use style="fill:#ff0000;stroke:#ff0000;" x="294.481176" xlink:href="#md5baed4c3c" y="269.574625"/>
     <use style="fill:#ff0000;stroke:#ff0000;" x="295.453195" xlink:href="#md5baed4c3c" y="269.574625"/>
     <use style="fill:#ff0000;stroke:#ff0000;" x="296.425215" xlink:href="#md5baed4c3c" y="269.574625"/>
     <use style="fill:#ff0000;stroke:#ff0000;" x="297.397235" xlink:href="#md5baed4c3c" y="269.574625"/>
     <use style="fill:#ff0000;stroke:#ff0000;" x="298.369254" xlink:href="#md5baed4c3c" y="269.574625"/>
     <use style="fill:#ff0000;stroke:#ff0000;" x="299.341274" xlink:href="#md5baed4c3c" y="269.574625"/>
     <use style="fill:#ff0000;stroke:#ff0000;" x="300.313293" xlink:href="#md5baed4c3c" y="269.574625"/>
     <use style="fill:#ff0000;stroke:#ff0000;" x="301.285313" xlink:href="#md5baed4c3c" y="269.574625"/>
     <use style="fill:#ff0000;stroke:#ff0000;" x="302.257333" xlink:href="#md5baed4c3c" y="269.574625"/>
     <use style="fill:#ff0000;stroke:#ff0000;" x="303.229352" xlink:href="#md5baed4c3c" y="269.574625"/>
     <use style="fill:#ff0000;stroke:#ff0000;" x="304.201372" xlink:href="#md5baed4c3c" y="269.574625"/>
     <use style="fill:#ff0000;stroke:#ff0000;" x="305.173391" xlink:href="#md5baed4c3c" y="269.574625"/>
     <use style="fill:#ff0000;stroke:#ff0000;" x="306.145411" xlink:href="#md5baed4c3c" y="269.574625"/>
     <use style="fill:#ff0000;stroke:#ff0000;" x="307.117431" xlink:href="#md5baed4c3c" y="269.574625"/>
     <use style="fill:#ff0000;stroke:#ff0000;" x="308.08945" xlink:href="#md5baed4c3c" y="269.574625"/>
     <use style="fill:#ff0000;stroke:#ff0000;" x="309.06147" xlink:href="#md5baed4c3c" y="269.574625"/>
     <use style="fill:#ff0000;stroke:#ff0000;" x="310.033489" xlink:href="#md5baed4c3c" y="269.574625"/>
     <use style="fill:#ff0000;stroke:#ff0000;" x="311.005509" xlink:href="#md5baed4c3c" y="269.574625"/>
     <use style="fill:#ff0000;stroke:#ff0000;" x="311.977529" xlink:href="#md5baed4c3c" y="269.574625"/>
     <use style="fill:#ff0000;stroke:#ff0000;" x="312.949548" xlink:href="#md5baed4c3c" y="269.574625"/>
     <use style="fill:#ff0000;stroke:#ff0000;" x="313.921568" xlink:href="#md5baed4c3c" y="269.574625"/>
     <use style="fill:#ff0000;stroke:#ff0000;" x="314.893587" xlink:href="#md5baed4c3c" y="269.574625"/>
     <use style="fill:#ff0000;stroke:#ff0000;" x="315.865607" xlink:href="#md5baed4c3c" y="269.574625"/>
     <use style="fill:#ff0000;stroke:#ff0000;" x="316.837627" xlink:href="#md5baed4c3c" y="269.574625"/>
     <use style="fill:#ff0000;stroke:#ff0000;" x="317.809646" xlink:href="#md5baed4c3c" y="269.574625"/>
     <use style="fill:#ff0000;stroke:#ff0000;" x="318.781666" xlink:href="#md5baed4c3c" y="269.574625"/>
     <use style="fill:#ff0000;stroke:#ff0000;" x="319.753685" xlink:href="#md5baed4c3c" y="269.574625"/>
     <use style="fill:#ff0000;stroke:#ff0000;" x="320.725705" xlink:href="#md5baed4c3c" y="269.574625"/>
     <use style="fill:#ff0000;stroke:#ff0000;" x="321.697725" xlink:href="#md5baed4c3c" y="269.574625"/>
     <use style="fill:#ff0000;stroke:#ff0000;" x="322.669744" xlink:href="#md5baed4c3c" y="269.574625"/>
     <use style="fill:#ff0000;stroke:#ff0000;" x="323.641764" xlink:href="#md5baed4c3c" y="269.574625"/>
     <use style="fill:#ff0000;stroke:#ff0000;" x="324.613783" xlink:href="#md5baed4c3c" y="269.574625"/>
     <use style="fill:#ff0000;stroke:#ff0000;" x="325.585803" xlink:href="#md5baed4c3c" y="269.574625"/>
     <use style="fill:#ff0000;stroke:#ff0000;" x="326.557823" xlink:href="#md5baed4c3c" y="269.574625"/>
     <use style="fill:#ff0000;stroke:#ff0000;" x="327.529842" xlink:href="#md5baed4c3c" y="269.574625"/>
     <use style="fill:#ff0000;stroke:#ff0000;" x="328.501862" xlink:href="#md5baed4c3c" y="269.574625"/>
     <use style="fill:#ff0000;stroke:#ff0000;" x="329.473881" xlink:href="#md5baed4c3c" y="269.574625"/>
     <use style="fill:#ff0000;stroke:#ff0000;" x="330.445901" xlink:href="#md5baed4c3c" y="269.574625"/>
     <use style="fill:#ff0000;stroke:#ff0000;" x="331.417921" xlink:href="#md5baed4c3c" y="269.574625"/>
     <use style="fill:#ff0000;stroke:#ff0000;" x="332.38994" xlink:href="#md5baed4c3c" y="269.574625"/>
     <use style="fill:#ff0000;stroke:#ff0000;" x="333.36196" xlink:href="#md5baed4c3c" y="269.574625"/>
     <use style="fill:#ff0000;stroke:#ff0000;" x="334.333979" xlink:href="#md5baed4c3c" y="269.574625"/>
     <use style="fill:#ff0000;stroke:#ff0000;" x="335.305999" xlink:href="#md5baed4c3c" y="269.574625"/>
     <use style="fill:#ff0000;stroke:#ff0000;" x="336.278019" xlink:href="#md5baed4c3c" y="269.574625"/>
     <use style="fill:#ff0000;stroke:#ff0000;" x="337.250038" xlink:href="#md5baed4c3c" y="269.574625"/>
     <use style="fill:#ff0000;stroke:#ff0000;" x="338.222058" xlink:href="#md5baed4c3c" y="269.574625"/>
     <use style="fill:#ff0000;stroke:#ff0000;" x="339.194077" xlink:href="#md5baed4c3c" y="269.574625"/>
     <use style="fill:#ff0000;stroke:#ff0000;" x="340.166097" xlink:href="#md5baed4c3c" y="269.574625"/>
     <use style="fill:#ff0000;stroke:#ff0000;" x="341.138116" xlink:href="#md5baed4c3c" y="269.574625"/>
     <use style="fill:#ff0000;stroke:#ff0000;" x="342.110136" xlink:href="#md5baed4c3c" y="269.574625"/>
     <use style="fill:#ff0000;stroke:#ff0000;" x="343.082156" xlink:href="#md5baed4c3c" y="269.574625"/>
     <use style="fill:#ff0000;stroke:#ff0000;" x="344.054175" xlink:href="#md5baed4c3c" y="269.574625"/>
     <use style="fill:#ff0000;stroke:#ff0000;" x="345.026195" xlink:href="#md5baed4c3c" y="269.574625"/>
     <use style="fill:#ff0000;stroke:#ff0000;" x="345.998214" xlink:href="#md5baed4c3c" y="269.574625"/>
     <use style="fill:#ff0000;stroke:#ff0000;" x="346.970234" xlink:href="#md5baed4c3c" y="269.574625"/>
     <use style="fill:#ff0000;stroke:#ff0000;" x="347.942254" xlink:href="#md5baed4c3c" y="269.574625"/>
     <use style="fill:#ff0000;stroke:#ff0000;" x="348.914273" xlink:href="#md5baed4c3c" y="269.574625"/>
     <use style="fill:#ff0000;stroke:#ff0000;" x="349.886293" xlink:href="#md5baed4c3c" y="269.574625"/>
     <use style="fill:#ff0000;stroke:#ff0000;" x="350.858312" xlink:href="#md5baed4c3c" y="269.574625"/>
     <use style="fill:#ff0000;stroke:#ff0000;" x="351.830332" xlink:href="#md5baed4c3c" y="269.574625"/>
     <use style="fill:#ff0000;stroke:#ff0000;" x="352.802352" xlink:href="#md5baed4c3c" y="269.574625"/>
     <use style="fill:#ff0000;stroke:#ff0000;" x="353.774371" xlink:href="#md5baed4c3c" y="269.574625"/>
     <use style="fill:#ff0000;stroke:#ff0000;" x="354.746391" xlink:href="#md5baed4c3c" y="269.574625"/>
     <use style="fill:#ff0000;stroke:#ff0000;" x="355.71841" xlink:href="#md5baed4c3c" y="269.574625"/>
     <use style="fill:#ff0000;stroke:#ff0000;" x="356.69043" xlink:href="#md5baed4c3c" y="269.574625"/>
     <use style="fill:#ff0000;stroke:#ff0000;" x="357.66245" xlink:href="#md5baed4c3c" y="269.574625"/>
     <use style="fill:#ff0000;stroke:#ff0000;" x="358.634469" xlink:href="#md5baed4c3c" y="269.574625"/>
     <use style="fill:#ff0000;stroke:#ff0000;" x="359.606489" xlink:href="#md5baed4c3c" y="269.574625"/>
     <use style="fill:#ff0000;stroke:#ff0000;" x="360.578508" xlink:href="#md5baed4c3c" y="269.574625"/>
     <use style="fill:#ff0000;stroke:#ff0000;" x="361.550528" xlink:href="#md5baed4c3c" y="269.574625"/>
     <use style="fill:#ff0000;stroke:#ff0000;" x="362.522548" xlink:href="#md5baed4c3c" y="269.574625"/>
     <use style="fill:#ff0000;stroke:#ff0000;" x="363.494567" xlink:href="#md5baed4c3c" y="269.574625"/>
     <use style="fill:#ff0000;stroke:#ff0000;" x="364.466587" xlink:href="#md5baed4c3c" y="269.574625"/>
     <use style="fill:#ff0000;stroke:#ff0000;" x="365.438606" xlink:href="#md5baed4c3c" y="269.574625"/>
     <use style="fill:#ff0000;stroke:#ff0000;" x="366.410626" xlink:href="#md5baed4c3c" y="269.574625"/>
     <use style="fill:#ff0000;stroke:#ff0000;" x="367.382646" xlink:href="#md5baed4c3c" y="269.574625"/>
     <use style="fill:#ff0000;stroke:#ff0000;" x="368.354665" xlink:href="#md5baed4c3c" y="269.574625"/>
     <use style="fill:#ff0000;stroke:#ff0000;" x="369.326685" xlink:href="#md5baed4c3c" y="269.574625"/>
     <use style="fill:#ff0000;stroke:#ff0000;" x="370.298704" xlink:href="#md5baed4c3c" y="269.574625"/>
     <use style="fill:#ff0000;stroke:#ff0000;" x="371.270724" xlink:href="#md5baed4c3c" y="269.574625"/>
     <use style="fill:#ff0000;stroke:#ff0000;" x="372.242744" xlink:href="#md5baed4c3c" y="269.574625"/>
     <use style="fill:#ff0000;stroke:#ff0000;" x="373.214763" xlink:href="#md5baed4c3c" y="269.574625"/>
     <use style="fill:#ff0000;stroke:#ff0000;" x="374.186783" xlink:href="#md5baed4c3c" y="269.574625"/>
     <use style="fill:#ff0000;stroke:#ff0000;" x="375.158802" xlink:href="#md5baed4c3c" y="269.574625"/>
     <use style="fill:#ff0000;stroke:#ff0000;" x="376.130822" xlink:href="#md5baed4c3c" y="269.574625"/>
     <use style="fill:#ff0000;stroke:#ff0000;" x="377.102842" xlink:href="#md5baed4c3c" y="269.574625"/>
     <use style="fill:#ff0000;stroke:#ff0000;" x="378.074861" xlink:href="#md5baed4c3c" y="269.574625"/>
     <use style="fill:#ff0000;stroke:#ff0000;" x="379.046881" xlink:href="#md5baed4c3c" y="269.574625"/>
     <use style="fill:#ff0000;stroke:#ff0000;" x="380.0189" xlink:href="#md5baed4c3c" y="269.574625"/>
     <use style="fill:#ff0000;stroke:#ff0000;" x="380.99092" xlink:href="#md5baed4c3c" y="269.574625"/>
     <use style="fill:#ff0000;stroke:#ff0000;" x="381.96294" xlink:href="#md5baed4c3c" y="269.574625"/>
     <use style="fill:#ff0000;stroke:#ff0000;" x="382.934959" xlink:href="#md5baed4c3c" y="269.574625"/>
     <use style="fill:#ff0000;stroke:#ff0000;" x="383.906979" xlink:href="#md5baed4c3c" y="269.574625"/>
     <use style="fill:#ff0000;stroke:#ff0000;" x="384.878998" xlink:href="#md5baed4c3c" y="269.574625"/>
     <use style="fill:#ff0000;stroke:#ff0000;" x="385.851018" xlink:href="#md5baed4c3c" y="269.574625"/>
     <use style="fill:#ff0000;stroke:#ff0000;" x="386.823038" xlink:href="#md5baed4c3c" y="269.574625"/>
     <use style="fill:#ff0000;stroke:#ff0000;" x="387.795057" xlink:href="#md5baed4c3c" y="269.574625"/>
     <use style="fill:#ff0000;stroke:#ff0000;" x="388.767077" xlink:href="#md5baed4c3c" y="269.574625"/>
     <use style="fill:#ff0000;stroke:#ff0000;" x="389.739096" xlink:href="#md5baed4c3c" y="269.574625"/>
     <use style="fill:#ff0000;stroke:#ff0000;" x="390.711116" xlink:href="#md5baed4c3c" y="269.574625"/>
     <use style="fill:#ff0000;stroke:#ff0000;" x="391.683136" xlink:href="#md5baed4c3c" y="269.574625"/>
     <use style="fill:#ff0000;stroke:#ff0000;" x="392.655155" xlink:href="#md5baed4c3c" y="269.574625"/>
     <use style="fill:#ff0000;stroke:#ff0000;" x="393.627175" xlink:href="#md5baed4c3c" y="269.574625"/>
     <use style="fill:#ff0000;stroke:#ff0000;" x="394.599194" xlink:href="#md5baed4c3c" y="269.574625"/>
     <use style="fill:#ff0000;stroke:#ff0000;" x="395.571214" xlink:href="#md5baed4c3c" y="269.574625"/>
     <use style="fill:#ff0000;stroke:#ff0000;" x="396.543234" xlink:href="#md5baed4c3c" y="269.574625"/>
     <use style="fill:#ff0000;stroke:#ff0000;" x="397.515253" xlink:href="#md5baed4c3c" y="269.574625"/>
     <use style="fill:#ff0000;stroke:#ff0000;" x="398.487273" xlink:href="#md5baed4c3c" y="269.574625"/>
    </g>
   </g>
   <g id="patch_3">
    <path d="M 57.6 307.584 
L 57.6 41.472 
" style="fill:none;stroke:#000000;stroke-linecap:square;stroke-linejoin:miter;stroke-width:0.8;"/>
   </g>
   <g id="patch_4">
    <path d="M 414.72 307.584 
L 414.72 41.472 
" style="fill:none;stroke:#000000;stroke-linecap:square;stroke-linejoin:miter;stroke-width:0.8;"/>
   </g>
   <g id="patch_5">
    <path d="M 57.6 307.584 
L 414.72 307.584 
" style="fill:none;stroke:#000000;stroke-linecap:square;stroke-linejoin:miter;stroke-width:0.8;"/>
   </g>
   <g id="patch_6">
    <path d="M 57.6 41.472 
L 414.72 41.472 
" style="fill:none;stroke:#000000;stroke-linecap:square;stroke-linejoin:miter;stroke-width:0.8;"/>
   </g>
  </g>
 </g>
 <defs>
  <clipPath id="pcd0212f2fa">
   <rect height="266.112" width="357.12" x="57.6" y="41.472"/>
  </clipPath>
 </defs>
</svg>
