<?xml version="1.0" encoding="utf-8" standalone="no"?>
<!DOCTYPE svg PUBLIC "-//W3C//DTD SVG 1.1//EN"
  "http://www.w3.org/Graphics/SVG/1.1/DTD/svg11.dtd">
<!-- Created with matplotlib (https://matplotlib.org/) -->
<svg height="345.6pt" version="1.1" viewBox="0 0 460.8 345.6" width="460.8pt" xmlns="http://www.w3.org/2000/svg" xmlns:xlink="http://www.w3.org/1999/xlink">
 <defs>
  <style type="text/css">
*{stroke-linecap:butt;stroke-linejoin:round;}
  </style>
 </defs>
 <g id="figure_1">
  <g id="patch_1">
   <path d="M 0 345.6 
L 460.8 345.6 
L 460.8 0 
L 0 0 
z
" style="fill:#ffffff;"/>
  </g>
  <g id="axes_1">
   <g id="patch_2">
    <path d="M 57.6 307.584 
L 414.72 307.584 
L 414.72 41.472 
L 57.6 41.472 
z
" style="fill:#ffffff;"/>
   </g>
   <g id="line2d_1">
    <path clip-path="url(#p86bc9783f7)" d="M 73.832727 76.072723 
L 74.787594 76.072723 
L 75.74246 82.427854 
L 76.697326 82.427854 
L 77.652193 53.73395 
L 78.607059 53.73395 
L 79.561925 82.896667 
L 80.516791 82.896667 
L 81.471658 53.568 
L 82.426524 53.568 
L 83.38139 83.49277 
L 84.336257 83.49277 
L 85.291123 110.515414 
L 87.200856 110.515414 
L 88.155722 139.499563 
L 89.110588 139.499563 
L 90.065455 167.553984 
L 91.975187 167.553984 
L 92.930053 194.914955 
L 93.88492 194.914955 
L 94.839786 220.781865 
L 96.749519 220.781865 
L 97.704385 211.103022 
L 100.568984 211.103022 
L 101.52385 220.26441 
L 102.478717 220.26441 
L 103.433583 209.621857 
L 105.343316 209.621857 
L 106.298182 199.337531 
L 107.253048 199.337531 
L 108.207914 207.545131 
L 109.162781 207.545131 
L 110.117647 216.140137 
L 112.02738 216.140137 
L 112.982246 224.193851 
L 114.891979 224.193851 
L 115.846845 223.289187 
L 116.801711 230.829732 
L 117.756578 230.829732 
L 118.711444 220.391507 
L 119.66631 220.391507 
L 120.621176 228.330431 
L 122.530909 228.330431 
L 123.485775 237.290301 
L 124.440642 226.682131 
L 125.395508 226.682131 
L 126.350374 224.1174 
L 127.305241 224.1174 
L 129.214973 241.088866 
L 130.16984 241.088866 
L 131.124706 230.294744 
L 132.079572 230.294744 
L 133.034439 238.818993 
L 133.989305 238.818993 
L 134.944171 247.444385 
L 135.899037 247.444385 
L 136.853904 236.752416 
L 137.80877 236.752416 
L 138.763636 246.224281 
L 139.718503 246.655793 
L 140.673369 246.655793 
L 141.628235 254.917223 
L 142.583102 254.917223 
L 143.537968 255.319682 
L 145.447701 255.319682 
L 146.402567 243.8304 
L 149.267166 243.8304 
L 150.222032 240.30648 
L 151.176898 237.265124 
L 154.041497 237.265124 
L 154.996364 226.924885 
L 155.95123 226.924885 
L 156.906096 235.399256 
L 157.860963 235.399256 
L 158.815829 231.788399 
L 159.770695 240.104021 
L 160.725561 240.104021 
L 161.680428 247.140568 
L 162.635294 247.140568 
L 163.59016 236.526355 
L 164.545027 236.526355 
L 165.499893 244.356708 
L 167.409626 244.356708 
L 168.364492 253.514004 
L 169.319358 253.514004 
L 170.274225 241.974335 
L 172.183957 241.974335 
L 173.138824 240.562441 
L 174.09369 240.562441 
L 175.048556 229.970791 
L 176.003422 229.970791 
L 176.958289 238.109835 
L 177.913155 238.109835 
L 178.868021 227.580262 
L 189.371551 227.580262 
L 190.326417 235.502122 
L 191.281283 235.502122 
L 192.23615 233.240528 
L 193.191016 222.97799 
L 194.145882 222.97799 
L 195.100749 222.404589 
L 196.055615 222.404589 
L 197.010481 222.563736 
L 197.965348 222.563736 
L 198.920214 230.867027 
L 200.829947 230.867027 
L 201.784813 230.261712 
L 202.739679 230.261712 
L 203.694545 237.890328 
L 204.649412 237.890328 
L 205.604278 246.097105 
L 207.514011 246.097105 
L 208.468877 253.72358 
L 209.423743 253.72358 
L 210.37861 262.821176 
L 211.333476 262.821176 
L 212.288342 259.736148 
L 213.243209 267.561398 
L 214.198075 267.561398 
L 215.152941 268.174833 
L 216.107807 268.174833 
L 217.062674 257.627638 
L 218.972406 257.627638 
L 219.927273 265.449799 
L 220.882139 265.449799 
L 221.837005 273.413749 
L 222.791872 273.413749 
L 223.746738 281.769262 
L 224.701604 271.567065 
L 227.566203 271.567065 
L 228.52107 279.327416 
L 229.475936 279.327416 
L 230.430802 288.063065 
L 231.385668 288.063065 
L 232.340535 295.488 
L 234.250267 295.488 
L 235.205134 283.459342 
L 236.16 283.459342 
L 237.114866 282.750572 
L 238.069733 282.750572 
L 239.024599 270.656118 
L 239.979465 279.383536 
L 240.934332 279.383536 
L 241.889198 278.759504 
L 242.844064 278.759504 
L 243.79893 275.748003 
L 244.753797 275.748003 
L 245.708663 282.857087 
L 246.663529 271.970477 
L 248.573262 271.970477 
L 249.528128 280.745571 
L 250.482995 269.574625 
L 398.487273 269.574625 
L 398.487273 269.574625 
" style="fill:none;stroke:#ff0000;stroke-linecap:square;stroke-width:12;"/>
    <defs>
     <path d="M 0 3 
C 0.795609 3 1.55874 2.683901 2.12132 2.12132 
C 2.683901 1.55874 3 0.795609 3 0 
C 3 -0.795609 2.683901 -1.55874 2.12132 -2.12132 
C 1.55874 -2.683901 0.795609 -3 0 -3 
C -0.795609 -3 -1.55874 -2.683901 -2.12132 -2.12132 
C -2.683901 -1.55874 -3 -0.795609 -3 0 
C -3 0.795609 -2.683901 1.55874 -2.12132 2.12132 
C -1.55874 2.683901 -0.795609 3 0 3 
z
" id="ma0c96788d9" style="stroke:#ff0000;"/>
    </defs>
    <g clip-path="url(#p86bc9783f7)">
     <use style="fill:#ff0000;stroke:#ff0000;" x="73.832727" xlink:href="#ma0c96788d9" y="76.072723"/>
     <use style="fill:#ff0000;stroke:#ff0000;" x="74.787594" xlink:href="#ma0c96788d9" y="76.072723"/>
     <use style="fill:#ff0000;stroke:#ff0000;" x="75.74246" xlink:href="#ma0c96788d9" y="82.427854"/>
     <use style="fill:#ff0000;stroke:#ff0000;" x="76.697326" xlink:href="#ma0c96788d9" y="82.427854"/>
     <use style="fill:#ff0000;stroke:#ff0000;" x="77.652193" xlink:href="#ma0c96788d9" y="53.73395"/>
     <use style="fill:#ff0000;stroke:#ff0000;" x="78.607059" xlink:href="#ma0c96788d9" y="53.73395"/>
     <use style="fill:#ff0000;stroke:#ff0000;" x="79.561925" xlink:href="#ma0c96788d9" y="82.896667"/>
     <use style="fill:#ff0000;stroke:#ff0000;" x="80.516791" xlink:href="#ma0c96788d9" y="82.896667"/>
     <use style="fill:#ff0000;stroke:#ff0000;" x="81.471658" xlink:href="#ma0c96788d9" y="53.568"/>
     <use style="fill:#ff0000;stroke:#ff0000;" x="82.426524" xlink:href="#ma0c96788d9" y="53.568"/>
     <use style="fill:#ff0000;stroke:#ff0000;" x="83.38139" xlink:href="#ma0c96788d9" y="83.49277"/>
     <use style="fill:#ff0000;stroke:#ff0000;" x="84.336257" xlink:href="#ma0c96788d9" y="83.49277"/>
     <use style="fill:#ff0000;stroke:#ff0000;" x="85.291123" xlink:href="#ma0c96788d9" y="110.515414"/>
     <use style="fill:#ff0000;stroke:#ff0000;" x="86.245989" xlink:href="#ma0c96788d9" y="110.515414"/>
     <use style="fill:#ff0000;stroke:#ff0000;" x="87.200856" xlink:href="#ma0c96788d9" y="110.515414"/>
     <use style="fill:#ff0000;stroke:#ff0000;" x="88.155722" xlink:href="#ma0c96788d9" y="139.499563"/>
     <use style="fill:#ff0000;stroke:#ff0000;" x="89.110588" xlink:href="#ma0c96788d9" y="139.499563"/>
     <use style="fill:#ff0000;stroke:#ff0000;" x="90.065455" xlink:href="#ma0c96788d9" y="167.553984"/>
     <use style="fill:#ff0000;stroke:#ff0000;" x="91.020321" xlink:href="#ma0c96788d9" y="167.553984"/>
     <use style="fill:#ff0000;stroke:#ff0000;" x="91.975187" xlink:href="#ma0c96788d9" y="167.553984"/>
     <use style="fill:#ff0000;stroke:#ff0000;" x="92.930053" xlink:href="#ma0c96788d9" y="194.914955"/>
     <use style="fill:#ff0000;stroke:#ff0000;" x="93.88492" xlink:href="#ma0c96788d9" y="194.914955"/>
     <use style="fill:#ff0000;stroke:#ff0000;" x="94.839786" xlink:href="#ma0c96788d9" y="220.781865"/>
     <use style="fill:#ff0000;stroke:#ff0000;" x="95.794652" xlink:href="#ma0c96788d9" y="220.781865"/>
     <use style="fill:#ff0000;stroke:#ff0000;" x="96.749519" xlink:href="#ma0c96788d9" y="220.781865"/>
     <use style="fill:#ff0000;stroke:#ff0000;" x="97.704385" xlink:href="#ma0c96788d9" y="211.103022"/>
     <use style="fill:#ff0000;stroke:#ff0000;" x="98.659251" xlink:href="#ma0c96788d9" y="211.103022"/>
     <use style="fill:#ff0000;stroke:#ff0000;" x="99.614118" xlink:href="#ma0c96788d9" y="211.103022"/>
     <use style="fill:#ff0000;stroke:#ff0000;" x="100.568984" xlink:href="#ma0c96788d9" y="211.103022"/>
     <use style="fill:#ff0000;stroke:#ff0000;" x="101.52385" xlink:href="#ma0c96788d9" y="220.26441"/>
     <use style="fill:#ff0000;stroke:#ff0000;" x="102.478717" xlink:href="#ma0c96788d9" y="220.26441"/>
     <use style="fill:#ff0000;stroke:#ff0000;" x="103.433583" xlink:href="#ma0c96788d9" y="209.621857"/>
     <use style="fill:#ff0000;stroke:#ff0000;" x="104.388449" xlink:href="#ma0c96788d9" y="209.621857"/>
     <use style="fill:#ff0000;stroke:#ff0000;" x="105.343316" xlink:href="#ma0c96788d9" y="209.621857"/>
     <use style="fill:#ff0000;stroke:#ff0000;" x="106.298182" xlink:href="#ma0c96788d9" y="199.337531"/>
     <use style="fill:#ff0000;stroke:#ff0000;" x="107.253048" xlink:href="#ma0c96788d9" y="199.337531"/>
     <use style="fill:#ff0000;stroke:#ff0000;" x="108.207914" xlink:href="#ma0c96788d9" y="207.545131"/>
     <use style="fill:#ff0000;stroke:#ff0000;" x="109.162781" xlink:href="#ma0c96788d9" y="207.545131"/>
     <use style="fill:#ff0000;stroke:#ff0000;" x="110.117647" xlink:href="#ma0c96788d9" y="216.140137"/>
     <use style="fill:#ff0000;stroke:#ff0000;" x="111.072513" xlink:href="#ma0c96788d9" y="216.140137"/>
     <use style="fill:#ff0000;stroke:#ff0000;" x="112.02738" xlink:href="#ma0c96788d9" y="216.140137"/>
     <use style="fill:#ff0000;stroke:#ff0000;" x="112.982246" xlink:href="#ma0c96788d9" y="224.193851"/>
     <use style="fill:#ff0000;stroke:#ff0000;" x="113.937112" xlink:href="#ma0c96788d9" y="224.193851"/>
     <use style="fill:#ff0000;stroke:#ff0000;" x="114.891979" xlink:href="#ma0c96788d9" y="224.193851"/>
     <use style="fill:#ff0000;stroke:#ff0000;" x="115.846845" xlink:href="#ma0c96788d9" y="223.289187"/>
     <use style="fill:#ff0000;stroke:#ff0000;" x="116.801711" xlink:href="#ma0c96788d9" y="230.829732"/>
     <use style="fill:#ff0000;stroke:#ff0000;" x="117.756578" xlink:href="#ma0c96788d9" y="230.829732"/>
     <use style="fill:#ff0000;stroke:#ff0000;" x="118.711444" xlink:href="#ma0c96788d9" y="220.391507"/>
     <use style="fill:#ff0000;stroke:#ff0000;" x="119.66631" xlink:href="#ma0c96788d9" y="220.391507"/>
     <use style="fill:#ff0000;stroke:#ff0000;" x="120.621176" xlink:href="#ma0c96788d9" y="228.330431"/>
     <use style="fill:#ff0000;stroke:#ff0000;" x="121.576043" xlink:href="#ma0c96788d9" y="228.330431"/>
     <use style="fill:#ff0000;stroke:#ff0000;" x="122.530909" xlink:href="#ma0c96788d9" y="228.330431"/>
     <use style="fill:#ff0000;stroke:#ff0000;" x="123.485775" xlink:href="#ma0c96788d9" y="237.290301"/>
     <use style="fill:#ff0000;stroke:#ff0000;" x="124.440642" xlink:href="#ma0c96788d9" y="226.682131"/>
     <use style="fill:#ff0000;stroke:#ff0000;" x="125.395508" xlink:href="#ma0c96788d9" y="226.682131"/>
     <use style="fill:#ff0000;stroke:#ff0000;" x="126.350374" xlink:href="#ma0c96788d9" y="224.1174"/>
     <use style="fill:#ff0000;stroke:#ff0000;" x="127.305241" xlink:href="#ma0c96788d9" y="224.1174"/>
     <use style="fill:#ff0000;stroke:#ff0000;" x="128.260107" xlink:href="#ma0c96788d9" y="232.784261"/>
     <use style="fill:#ff0000;stroke:#ff0000;" x="129.214973" xlink:href="#ma0c96788d9" y="241.088866"/>
     <use style="fill:#ff0000;stroke:#ff0000;" x="130.16984" xlink:href="#ma0c96788d9" y="241.088866"/>
     <use style="fill:#ff0000;stroke:#ff0000;" x="131.124706" xlink:href="#ma0c96788d9" y="230.294744"/>
     <use style="fill:#ff0000;stroke:#ff0000;" x="132.079572" xlink:href="#ma0c96788d9" y="230.294744"/>
     <use style="fill:#ff0000;stroke:#ff0000;" x="133.034439" xlink:href="#ma0c96788d9" y="238.818993"/>
     <use style="fill:#ff0000;stroke:#ff0000;" x="133.989305" xlink:href="#ma0c96788d9" y="238.818993"/>
     <use style="fill:#ff0000;stroke:#ff0000;" x="134.944171" xlink:href="#ma0c96788d9" y="247.444385"/>
     <use style="fill:#ff0000;stroke:#ff0000;" x="135.899037" xlink:href="#ma0c96788d9" y="247.444385"/>
     <use style="fill:#ff0000;stroke:#ff0000;" x="136.853904" xlink:href="#ma0c96788d9" y="236.752416"/>
     <use style="fill:#ff0000;stroke:#ff0000;" x="137.80877" xlink:href="#ma0c96788d9" y="236.752416"/>
     <use style="fill:#ff0000;stroke:#ff0000;" x="138.763636" xlink:href="#ma0c96788d9" y="246.224281"/>
     <use style="fill:#ff0000;stroke:#ff0000;" x="139.718503" xlink:href="#ma0c96788d9" y="246.655793"/>
     <use style="fill:#ff0000;stroke:#ff0000;" x="140.673369" xlink:href="#ma0c96788d9" y="246.655793"/>
     <use style="fill:#ff0000;stroke:#ff0000;" x="141.628235" xlink:href="#ma0c96788d9" y="254.917223"/>
     <use style="fill:#ff0000;stroke:#ff0000;" x="142.583102" xlink:href="#ma0c96788d9" y="254.917223"/>
     <use style="fill:#ff0000;stroke:#ff0000;" x="143.537968" xlink:href="#ma0c96788d9" y="255.319682"/>
     <use style="fill:#ff0000;stroke:#ff0000;" x="144.492834" xlink:href="#ma0c96788d9" y="255.319682"/>
     <use style="fill:#ff0000;stroke:#ff0000;" x="145.447701" xlink:href="#ma0c96788d9" y="255.319682"/>
     <use style="fill:#ff0000;stroke:#ff0000;" x="146.402567" xlink:href="#ma0c96788d9" y="243.8304"/>
     <use style="fill:#ff0000;stroke:#ff0000;" x="147.357433" xlink:href="#ma0c96788d9" y="243.8304"/>
     <use style="fill:#ff0000;stroke:#ff0000;" x="148.312299" xlink:href="#ma0c96788d9" y="243.8304"/>
     <use style="fill:#ff0000;stroke:#ff0000;" x="149.267166" xlink:href="#ma0c96788d9" y="243.8304"/>
     <use style="fill:#ff0000;stroke:#ff0000;" x="150.222032" xlink:href="#ma0c96788d9" y="240.30648"/>
     <use style="fill:#ff0000;stroke:#ff0000;" x="151.176898" xlink:href="#ma0c96788d9" y="237.265124"/>
     <use style="fill:#ff0000;stroke:#ff0000;" x="152.131765" xlink:href="#ma0c96788d9" y="237.265124"/>
     <use style="fill:#ff0000;stroke:#ff0000;" x="153.086631" xlink:href="#ma0c96788d9" y="237.265124"/>
     <use style="fill:#ff0000;stroke:#ff0000;" x="154.041497" xlink:href="#ma0c96788d9" y="237.265124"/>
     <use style="fill:#ff0000;stroke:#ff0000;" x="154.996364" xlink:href="#ma0c96788d9" y="226.924885"/>
     <use style="fill:#ff0000;stroke:#ff0000;" x="155.95123" xlink:href="#ma0c96788d9" y="226.924885"/>
     <use style="fill:#ff0000;stroke:#ff0000;" x="156.906096" xlink:href="#ma0c96788d9" y="235.399256"/>
     <use style="fill:#ff0000;stroke:#ff0000;" x="157.860963" xlink:href="#ma0c96788d9" y="235.399256"/>
     <use style="fill:#ff0000;stroke:#ff0000;" x="158.815829" xlink:href="#ma0c96788d9" y="231.788399"/>
     <use style="fill:#ff0000;stroke:#ff0000;" x="159.770695" xlink:href="#ma0c96788d9" y="240.104021"/>
     <use style="fill:#ff0000;stroke:#ff0000;" x="160.725561" xlink:href="#ma0c96788d9" y="240.104021"/>
     <use style="fill:#ff0000;stroke:#ff0000;" x="161.680428" xlink:href="#ma0c96788d9" y="247.140568"/>
     <use style="fill:#ff0000;stroke:#ff0000;" x="162.635294" xlink:href="#ma0c96788d9" y="247.140568"/>
     <use style="fill:#ff0000;stroke:#ff0000;" x="163.59016" xlink:href="#ma0c96788d9" y="236.526355"/>
     <use style="fill:#ff0000;stroke:#ff0000;" x="164.545027" xlink:href="#ma0c96788d9" y="236.526355"/>
     <use style="fill:#ff0000;stroke:#ff0000;" x="165.499893" xlink:href="#ma0c96788d9" y="244.356708"/>
     <use style="fill:#ff0000;stroke:#ff0000;" x="166.454759" xlink:href="#ma0c96788d9" y="244.356708"/>
     <use style="fill:#ff0000;stroke:#ff0000;" x="167.409626" xlink:href="#ma0c96788d9" y="244.356708"/>
     <use style="fill:#ff0000;stroke:#ff0000;" x="168.364492" xlink:href="#ma0c96788d9" y="253.514004"/>
     <use style="fill:#ff0000;stroke:#ff0000;" x="169.319358" xlink:href="#ma0c96788d9" y="253.514004"/>
     <use style="fill:#ff0000;stroke:#ff0000;" x="170.274225" xlink:href="#ma0c96788d9" y="241.974335"/>
     <use style="fill:#ff0000;stroke:#ff0000;" x="171.229091" xlink:href="#ma0c96788d9" y="241.974335"/>
     <use style="fill:#ff0000;stroke:#ff0000;" x="172.183957" xlink:href="#ma0c96788d9" y="241.974335"/>
     <use style="fill:#ff0000;stroke:#ff0000;" x="173.138824" xlink:href="#ma0c96788d9" y="240.562441"/>
     <use style="fill:#ff0000;stroke:#ff0000;" x="174.09369" xlink:href="#ma0c96788d9" y="240.562441"/>
     <use style="fill:#ff0000;stroke:#ff0000;" x="175.048556" xlink:href="#ma0c96788d9" y="229.970791"/>
     <use style="fill:#ff0000;stroke:#ff0000;" x="176.003422" xlink:href="#ma0c96788d9" y="229.970791"/>
     <use style="fill:#ff0000;stroke:#ff0000;" x="176.958289" xlink:href="#ma0c96788d9" y="238.109835"/>
     <use style="fill:#ff0000;stroke:#ff0000;" x="177.913155" xlink:href="#ma0c96788d9" y="238.109835"/>
     <use style="fill:#ff0000;stroke:#ff0000;" x="178.868021" xlink:href="#ma0c96788d9" y="227.580262"/>
     <use style="fill:#ff0000;stroke:#ff0000;" x="179.822888" xlink:href="#ma0c96788d9" y="227.580262"/>
     <use style="fill:#ff0000;stroke:#ff0000;" x="180.777754" xlink:href="#ma0c96788d9" y="227.580262"/>
     <use style="fill:#ff0000;stroke:#ff0000;" x="181.73262" xlink:href="#ma0c96788d9" y="227.580262"/>
     <use style="fill:#ff0000;stroke:#ff0000;" x="182.687487" xlink:href="#ma0c96788d9" y="227.580262"/>
     <use style="fill:#ff0000;stroke:#ff0000;" x="183.642353" xlink:href="#ma0c96788d9" y="227.580262"/>
     <use style="fill:#ff0000;stroke:#ff0000;" x="184.597219" xlink:href="#ma0c96788d9" y="227.580262"/>
     <use style="fill:#ff0000;stroke:#ff0000;" x="185.552086" xlink:href="#ma0c96788d9" y="227.580262"/>
     <use style="fill:#ff0000;stroke:#ff0000;" x="186.506952" xlink:href="#ma0c96788d9" y="227.580262"/>
     <use style="fill:#ff0000;stroke:#ff0000;" x="187.461818" xlink:href="#ma0c96788d9" y="227.580262"/>
     <use style="fill:#ff0000;stroke:#ff0000;" x="188.416684" xlink:href="#ma0c96788d9" y="227.580262"/>
     <use style="fill:#ff0000;stroke:#ff0000;" x="189.371551" xlink:href="#ma0c96788d9" y="227.580262"/>
     <use style="fill:#ff0000;stroke:#ff0000;" x="190.326417" xlink:href="#ma0c96788d9" y="235.502122"/>
     <use style="fill:#ff0000;stroke:#ff0000;" x="191.281283" xlink:href="#ma0c96788d9" y="235.502122"/>
     <use style="fill:#ff0000;stroke:#ff0000;" x="192.23615" xlink:href="#ma0c96788d9" y="233.240528"/>
     <use style="fill:#ff0000;stroke:#ff0000;" x="193.191016" xlink:href="#ma0c96788d9" y="222.97799"/>
     <use style="fill:#ff0000;stroke:#ff0000;" x="194.145882" xlink:href="#ma0c96788d9" y="222.97799"/>
     <use style="fill:#ff0000;stroke:#ff0000;" x="195.100749" xlink:href="#ma0c96788d9" y="222.404589"/>
     <use style="fill:#ff0000;stroke:#ff0000;" x="196.055615" xlink:href="#ma0c96788d9" y="222.404589"/>
     <use style="fill:#ff0000;stroke:#ff0000;" x="197.010481" xlink:href="#ma0c96788d9" y="222.563736"/>
     <use style="fill:#ff0000;stroke:#ff0000;" x="197.965348" xlink:href="#ma0c96788d9" y="222.563736"/>
     <use style="fill:#ff0000;stroke:#ff0000;" x="198.920214" xlink:href="#ma0c96788d9" y="230.867027"/>
     <use style="fill:#ff0000;stroke:#ff0000;" x="199.87508" xlink:href="#ma0c96788d9" y="230.867027"/>
     <use style="fill:#ff0000;stroke:#ff0000;" x="200.829947" xlink:href="#ma0c96788d9" y="230.867027"/>
     <use style="fill:#ff0000;stroke:#ff0000;" x="201.784813" xlink:href="#ma0c96788d9" y="230.261712"/>
     <use style="fill:#ff0000;stroke:#ff0000;" x="202.739679" xlink:href="#ma0c96788d9" y="230.261712"/>
     <use style="fill:#ff0000;stroke:#ff0000;" x="203.694545" xlink:href="#ma0c96788d9" y="237.890328"/>
     <use style="fill:#ff0000;stroke:#ff0000;" x="204.649412" xlink:href="#ma0c96788d9" y="237.890328"/>
     <use style="fill:#ff0000;stroke:#ff0000;" x="205.604278" xlink:href="#ma0c96788d9" y="246.097105"/>
     <use style="fill:#ff0000;stroke:#ff0000;" x="206.559144" xlink:href="#ma0c96788d9" y="246.097105"/>
     <use style="fill:#ff0000;stroke:#ff0000;" x="207.514011" xlink:href="#ma0c96788d9" y="246.097105"/>
     <use style="fill:#ff0000;stroke:#ff0000;" x="208.468877" xlink:href="#ma0c96788d9" y="253.72358"/>
     <use style="fill:#ff0000;stroke:#ff0000;" x="209.423743" xlink:href="#ma0c96788d9" y="253.72358"/>
     <use style="fill:#ff0000;stroke:#ff0000;" x="210.37861" xlink:href="#ma0c96788d9" y="262.821176"/>
     <use style="fill:#ff0000;stroke:#ff0000;" x="211.333476" xlink:href="#ma0c96788d9" y="262.821176"/>
     <use style="fill:#ff0000;stroke:#ff0000;" x="212.288342" xlink:href="#ma0c96788d9" y="259.736148"/>
     <use style="fill:#ff0000;stroke:#ff0000;" x="213.243209" xlink:href="#ma0c96788d9" y="267.561398"/>
     <use style="fill:#ff0000;stroke:#ff0000;" x="214.198075" xlink:href="#ma0c96788d9" y="267.561398"/>
     <use style="fill:#ff0000;stroke:#ff0000;" x="215.152941" xlink:href="#ma0c96788d9" y="268.174833"/>
     <use style="fill:#ff0000;stroke:#ff0000;" x="216.107807" xlink:href="#ma0c96788d9" y="268.174833"/>
     <use style="fill:#ff0000;stroke:#ff0000;" x="217.062674" xlink:href="#ma0c96788d9" y="257.627638"/>
     <use style="fill:#ff0000;stroke:#ff0000;" x="218.01754" xlink:href="#ma0c96788d9" y="257.627638"/>
     <use style="fill:#ff0000;stroke:#ff0000;" x="218.972406" xlink:href="#ma0c96788d9" y="257.627638"/>
     <use style="fill:#ff0000;stroke:#ff0000;" x="219.927273" xlink:href="#ma0c96788d9" y="265.449799"/>
     <use style="fill:#ff0000;stroke:#ff0000;" x="220.882139" xlink:href="#ma0c96788d9" y="265.449799"/>
     <use style="fill:#ff0000;stroke:#ff0000;" x="221.837005" xlink:href="#ma0c96788d9" y="273.413749"/>
     <use style="fill:#ff0000;stroke:#ff0000;" x="222.791872" xlink:href="#ma0c96788d9" y="273.413749"/>
     <use style="fill:#ff0000;stroke:#ff0000;" x="223.746738" xlink:href="#ma0c96788d9" y="281.769262"/>
     <use style="fill:#ff0000;stroke:#ff0000;" x="224.701604" xlink:href="#ma0c96788d9" y="271.567065"/>
     <use style="fill:#ff0000;stroke:#ff0000;" x="225.656471" xlink:href="#ma0c96788d9" y="271.567065"/>
     <use style="fill:#ff0000;stroke:#ff0000;" x="226.611337" xlink:href="#ma0c96788d9" y="271.567065"/>
     <use style="fill:#ff0000;stroke:#ff0000;" x="227.566203" xlink:href="#ma0c96788d9" y="271.567065"/>
     <use style="fill:#ff0000;stroke:#ff0000;" x="228.52107" xlink:href="#ma0c96788d9" y="279.327416"/>
     <use style="fill:#ff0000;stroke:#ff0000;" x="229.475936" xlink:href="#ma0c96788d9" y="279.327416"/>
     <use style="fill:#ff0000;stroke:#ff0000;" x="230.430802" xlink:href="#ma0c96788d9" y="288.063065"/>
     <use style="fill:#ff0000;stroke:#ff0000;" x="231.385668" xlink:href="#ma0c96788d9" y="288.063065"/>
     <use style="fill:#ff0000;stroke:#ff0000;" x="232.340535" xlink:href="#ma0c96788d9" y="295.488"/>
     <use style="fill:#ff0000;stroke:#ff0000;" x="233.295401" xlink:href="#ma0c96788d9" y="295.488"/>
     <use style="fill:#ff0000;stroke:#ff0000;" x="234.250267" xlink:href="#ma0c96788d9" y="295.488"/>
     <use style="fill:#ff0000;stroke:#ff0000;" x="235.205134" xlink:href="#ma0c96788d9" y="283.459342"/>
     <use style="fill:#ff0000;stroke:#ff0000;" x="236.16" xlink:href="#ma0c96788d9" y="283.459342"/>
     <use style="fill:#ff0000;stroke:#ff0000;" x="237.114866" xlink:href="#ma0c96788d9" y="282.750572"/>
     <use style="fill:#ff0000;stroke:#ff0000;" x="238.069733" xlink:href="#ma0c96788d9" y="282.750572"/>
     <use style="fill:#ff0000;stroke:#ff0000;" x="239.024599" xlink:href="#ma0c96788d9" y="270.656118"/>
     <use style="fill:#ff0000;stroke:#ff0000;" x="239.979465" xlink:href="#ma0c96788d9" y="279.383536"/>
     <use style="fill:#ff0000;stroke:#ff0000;" x="240.934332" xlink:href="#ma0c96788d9" y="279.383536"/>
     <use style="fill:#ff0000;stroke:#ff0000;" x="241.889198" xlink:href="#ma0c96788d9" y="278.759504"/>
     <use style="fill:#ff0000;stroke:#ff0000;" x="242.844064" xlink:href="#ma0c96788d9" y="278.759504"/>
     <use style="fill:#ff0000;stroke:#ff0000;" x="243.79893" xlink:href="#ma0c96788d9" y="275.748003"/>
     <use style="fill:#ff0000;stroke:#ff0000;" x="244.753797" xlink:href="#ma0c96788d9" y="275.748003"/>
     <use style="fill:#ff0000;stroke:#ff0000;" x="245.708663" xlink:href="#ma0c96788d9" y="282.857087"/>
     <use style="fill:#ff0000;stroke:#ff0000;" x="246.663529" xlink:href="#ma0c96788d9" y="271.970477"/>
     <use style="fill:#ff0000;stroke:#ff0000;" x="247.618396" xlink:href="#ma0c96788d9" y="271.970477"/>
     <use style="fill:#ff0000;stroke:#ff0000;" x="248.573262" xlink:href="#ma0c96788d9" y="271.970477"/>
     <use style="fill:#ff0000;stroke:#ff0000;" x="249.528128" xlink:href="#ma0c96788d9" y="280.745571"/>
     <use style="fill:#ff0000;stroke:#ff0000;" x="250.482995" xlink:href="#ma0c96788d9" y="269.574625"/>
     <use style="fill:#ff0000;stroke:#ff0000;" x="251.437861" xlink:href="#ma0c96788d9" y="269.574625"/>
     <use style="fill:#ff0000;stroke:#ff0000;" x="252.392727" xlink:href="#ma0c96788d9" y="269.574625"/>
     <use style="fill:#ff0000;stroke:#ff0000;" x="253.347594" xlink:href="#ma0c96788d9" y="269.574625"/>
     <use style="fill:#ff0000;stroke:#ff0000;" x="254.30246" xlink:href="#ma0c96788d9" y="269.574625"/>
     <use style="fill:#ff0000;stroke:#ff0000;" x="255.257326" xlink:href="#ma0c96788d9" y="269.574625"/>
     <use style="fill:#ff0000;stroke:#ff0000;" x="256.212193" xlink:href="#ma0c96788d9" y="269.574625"/>
     <use style="fill:#ff0000;stroke:#ff0000;" x="257.167059" xlink:href="#ma0c96788d9" y="269.574625"/>
     <use style="fill:#ff0000;stroke:#ff0000;" x="258.121925" xlink:href="#ma0c96788d9" y="269.574625"/>
     <use style="fill:#ff0000;stroke:#ff0000;" x="259.076791" xlink:href="#ma0c96788d9" y="269.574625"/>
     <use style="fill:#ff0000;stroke:#ff0000;" x="260.031658" xlink:href="#ma0c96788d9" y="269.574625"/>
     <use style="fill:#ff0000;stroke:#ff0000;" x="260.986524" xlink:href="#ma0c96788d9" y="269.574625"/>
     <use style="fill:#ff0000;stroke:#ff0000;" x="261.94139" xlink:href="#ma0c96788d9" y="269.574625"/>
     <use style="fill:#ff0000;stroke:#ff0000;" x="262.896257" xlink:href="#ma0c96788d9" y="269.574625"/>
     <use style="fill:#ff0000;stroke:#ff0000;" x="263.851123" xlink:href="#ma0c96788d9" y="269.574625"/>
     <use style="fill:#ff0000;stroke:#ff0000;" x="264.805989" xlink:href="#ma0c96788d9" y="269.574625"/>
     <use style="fill:#ff0000;stroke:#ff0000;" x="265.760856" xlink:href="#ma0c96788d9" y="269.574625"/>
     <use style="fill:#ff0000;stroke:#ff0000;" x="266.715722" xlink:href="#ma0c96788d9" y="269.574625"/>
     <use style="fill:#ff0000;stroke:#ff0000;" x="267.670588" xlink:href="#ma0c96788d9" y="269.574625"/>
     <use style="fill:#ff0000;stroke:#ff0000;" x="268.625455" xlink:href="#ma0c96788d9" y="269.574625"/>
     <use style="fill:#ff0000;stroke:#ff0000;" x="269.580321" xlink:href="#ma0c96788d9" y="269.574625"/>
     <use style="fill:#ff0000;stroke:#ff0000;" x="270.535187" xlink:href="#ma0c96788d9" y="269.574625"/>
     <use style="fill:#ff0000;stroke:#ff0000;" x="271.490053" xlink:href="#ma0c96788d9" y="269.574625"/>
     <use style="fill:#ff0000;stroke:#ff0000;" x="272.44492" xlink:href="#ma0c96788d9" y="269.574625"/>
     <use style="fill:#ff0000;stroke:#ff0000;" x="273.399786" xlink:href="#ma0c96788d9" y="269.574625"/>
     <use style="fill:#ff0000;stroke:#ff0000;" x="274.354652" xlink:href="#ma0c96788d9" y="269.574625"/>
     <use style="fill:#ff0000;stroke:#ff0000;" x="275.309519" xlink:href="#ma0c96788d9" y="269.574625"/>
     <use style="fill:#ff0000;stroke:#ff0000;" x="276.264385" xlink:href="#ma0c96788d9" y="269.574625"/>
     <use style="fill:#ff0000;stroke:#ff0000;" x="277.219251" xlink:href="#ma0c96788d9" y="269.574625"/>
     <use style="fill:#ff0000;stroke:#ff0000;" x="278.174118" xlink:href="#ma0c96788d9" y="269.574625"/>
     <use style="fill:#ff0000;stroke:#ff0000;" x="279.128984" xlink:href="#ma0c96788d9" y="269.574625"/>
     <use style="fill:#ff0000;stroke:#ff0000;" x="280.08385" xlink:href="#ma0c96788d9" y="269.574625"/>
     <use style="fill:#ff0000;stroke:#ff0000;" x="281.038717" xlink:href="#ma0c96788d9" y="269.574625"/>
     <use style="fill:#ff0000;stroke:#ff0000;" x="281.993583" xlink:href="#ma0c96788d9" y="269.574625"/>
     <use style="fill:#ff0000;stroke:#ff0000;" x="282.948449" xlink:href="#ma0c96788d9" y="269.574625"/>
     <use style="fill:#ff0000;stroke:#ff0000;" x="283.903316" xlink:href="#ma0c96788d9" y="269.574625"/>
     <use style="fill:#ff0000;stroke:#ff0000;" x="284.858182" xlink:href="#ma0c96788d9" y="269.574625"/>
     <use style="fill:#ff0000;stroke:#ff0000;" x="285.813048" xlink:href="#ma0c96788d9" y="269.574625"/>
     <use style="fill:#ff0000;stroke:#ff0000;" x="286.767914" xlink:href="#ma0c96788d9" y="269.574625"/>
     <use style="fill:#ff0000;stroke:#ff0000;" x="287.722781" xlink:href="#ma0c96788d9" y="269.574625"/>
     <use style="fill:#ff0000;stroke:#ff0000;" x="288.677647" xlink:href="#ma0c96788d9" y="269.574625"/>
     <use style="fill:#ff0000;stroke:#ff0000;" x="289.632513" xlink:href="#ma0c96788d9" y="269.574625"/>
     <use style="fill:#ff0000;stroke:#ff0000;" x="290.58738" xlink:href="#ma0c96788d9" y="269.574625"/>
     <use style="fill:#ff0000;stroke:#ff0000;" x="291.542246" xlink:href="#ma0c96788d9" y="269.574625"/>
     <use style="fill:#ff0000;stroke:#ff0000;" x="292.497112" xlink:href="#ma0c96788d9" y="269.574625"/>
     <use style="fill:#ff0000;stroke:#ff0000;" x="293.451979" xlink:href="#ma0c96788d9" y="269.574625"/>
     <use style="fill:#ff0000;stroke:#ff0000;" x="294.406845" xlink:href="#ma0c96788d9" y="269.574625"/>
     <use style="fill:#ff0000;stroke:#ff0000;" x="295.361711" xlink:href="#ma0c96788d9" y="269.574625"/>
     <use style="fill:#ff0000;stroke:#ff0000;" x="296.316578" xlink:href="#ma0c96788d9" y="269.574625"/>
     <use style="fill:#ff0000;stroke:#ff0000;" x="297.271444" xlink:href="#ma0c96788d9" y="269.574625"/>
     <use style="fill:#ff0000;stroke:#ff0000;" x="298.22631" xlink:href="#ma0c96788d9" y="269.574625"/>
     <use style="fill:#ff0000;stroke:#ff0000;" x="299.181176" xlink:href="#ma0c96788d9" y="269.574625"/>
     <use style="fill:#ff0000;stroke:#ff0000;" x="300.136043" xlink:href="#ma0c96788d9" y="269.574625"/>
     <use style="fill:#ff0000;stroke:#ff0000;" x="301.090909" xlink:href="#ma0c96788d9" y="269.574625"/>
     <use style="fill:#ff0000;stroke:#ff0000;" x="302.045775" xlink:href="#ma0c96788d9" y="269.574625"/>
     <use style="fill:#ff0000;stroke:#ff0000;" x="303.000642" xlink:href="#ma0c96788d9" y="269.574625"/>
     <use style="fill:#ff0000;stroke:#ff0000;" x="303.955508" xlink:href="#ma0c96788d9" y="269.574625"/>
     <use style="fill:#ff0000;stroke:#ff0000;" x="304.910374" xlink:href="#ma0c96788d9" y="269.574625"/>
     <use style="fill:#ff0000;stroke:#ff0000;" x="305.865241" xlink:href="#ma0c96788d9" y="269.574625"/>
     <use style="fill:#ff0000;stroke:#ff0000;" x="306.820107" xlink:href="#ma0c96788d9" y="269.574625"/>
     <use style="fill:#ff0000;stroke:#ff0000;" x="307.774973" xlink:href="#ma0c96788d9" y="269.574625"/>
     <use style="fill:#ff0000;stroke:#ff0000;" x="308.72984" xlink:href="#ma0c96788d9" y="269.574625"/>
     <use style="fill:#ff0000;stroke:#ff0000;" x="309.684706" xlink:href="#ma0c96788d9" y="269.574625"/>
     <use style="fill:#ff0000;stroke:#ff0000;" x="310.639572" xlink:href="#ma0c96788d9" y="269.574625"/>
     <use style="fill:#ff0000;stroke:#ff0000;" x="311.594439" xlink:href="#ma0c96788d9" y="269.574625"/>
     <use style="fill:#ff0000;stroke:#ff0000;" x="312.549305" xlink:href="#ma0c96788d9" y="269.574625"/>
     <use style="fill:#ff0000;stroke:#ff0000;" x="313.504171" xlink:href="#ma0c96788d9" y="269.574625"/>
     <use style="fill:#ff0000;stroke:#ff0000;" x="314.459037" xlink:href="#ma0c96788d9" y="269.574625"/>
     <use style="fill:#ff0000;stroke:#ff0000;" x="315.413904" xlink:href="#ma0c96788d9" y="269.574625"/>
     <use style="fill:#ff0000;stroke:#ff0000;" x="316.36877" xlink:href="#ma0c96788d9" y="269.574625"/>
     <use style="fill:#ff0000;stroke:#ff0000;" x="317.323636" xlink:href="#ma0c96788d9" y="269.574625"/>
     <use style="fill:#ff0000;stroke:#ff0000;" x="318.278503" xlink:href="#ma0c96788d9" y="269.574625"/>
     <use style="fill:#ff0000;stroke:#ff0000;" x="319.233369" xlink:href="#ma0c96788d9" y="269.574625"/>
     <use style="fill:#ff0000;stroke:#ff0000;" x="320.188235" xlink:href="#ma0c96788d9" y="269.574625"/>
     <use style="fill:#ff0000;stroke:#ff0000;" x="321.143102" xlink:href="#ma0c96788d9" y="269.574625"/>
     <use style="fill:#ff0000;stroke:#ff0000;" x="322.097968" xlink:href="#ma0c96788d9" y="269.574625"/>
     <use style="fill:#ff0000;stroke:#ff0000;" x="323.052834" xlink:href="#ma0c96788d9" y="269.574625"/>
     <use style="fill:#ff0000;stroke:#ff0000;" x="324.007701" xlink:href="#ma0c96788d9" y="269.574625"/>
     <use style="fill:#ff0000;stroke:#ff0000;" x="324.962567" xlink:href="#ma0c96788d9" y="269.574625"/>
     <use style="fill:#ff0000;stroke:#ff0000;" x="325.917433" xlink:href="#ma0c96788d9" y="269.574625"/>
     <use style="fill:#ff0000;stroke:#ff0000;" x="326.872299" xlink:href="#ma0c96788d9" y="269.574625"/>
     <use style="fill:#ff0000;stroke:#ff0000;" x="327.827166" xlink:href="#ma0c96788d9" y="269.574625"/>
     <use style="fill:#ff0000;stroke:#ff0000;" x="328.782032" xlink:href="#ma0c96788d9" y="269.574625"/>
     <use style="fill:#ff0000;stroke:#ff0000;" x="329.736898" xlink:href="#ma0c96788d9" y="269.574625"/>
     <use style="fill:#ff0000;stroke:#ff0000;" x="330.691765" xlink:href="#ma0c96788d9" y="269.574625"/>
     <use style="fill:#ff0000;stroke:#ff0000;" x="331.646631" xlink:href="#ma0c96788d9" y="269.574625"/>
     <use style="fill:#ff0000;stroke:#ff0000;" x="332.601497" xlink:href="#ma0c96788d9" y="269.574625"/>
     <use style="fill:#ff0000;stroke:#ff0000;" x="333.556364" xlink:href="#ma0c96788d9" y="269.574625"/>
     <use style="fill:#ff0000;stroke:#ff0000;" x="334.51123" xlink:href="#ma0c96788d9" y="269.574625"/>
     <use style="fill:#ff0000;stroke:#ff0000;" x="335.466096" xlink:href="#ma0c96788d9" y="269.574625"/>
     <use style="fill:#ff0000;stroke:#ff0000;" x="336.420963" xlink:href="#ma0c96788d9" y="269.574625"/>
     <use style="fill:#ff0000;stroke:#ff0000;" x="337.375829" xlink:href="#ma0c96788d9" y="269.574625"/>
     <use style="fill:#ff0000;stroke:#ff0000;" x="338.330695" xlink:href="#ma0c96788d9" y="269.574625"/>
     <use style="fill:#ff0000;stroke:#ff0000;" x="339.285561" xlink:href="#ma0c96788d9" y="269.574625"/>
     <use style="fill:#ff0000;stroke:#ff0000;" x="340.240428" xlink:href="#ma0c96788d9" y="269.574625"/>
     <use style="fill:#ff0000;stroke:#ff0000;" x="341.195294" xlink:href="#ma0c96788d9" y="269.574625"/>
     <use style="fill:#ff0000;stroke:#ff0000;" x="342.15016" xlink:href="#ma0c96788d9" y="269.574625"/>
     <use style="fill:#ff0000;stroke:#ff0000;" x="343.105027" xlink:href="#ma0c96788d9" y="269.574625"/>
     <use style="fill:#ff0000;stroke:#ff0000;" x="344.059893" xlink:href="#ma0c96788d9" y="269.574625"/>
     <use style="fill:#ff0000;stroke:#ff0000;" x="345.014759" xlink:href="#ma0c96788d9" y="269.574625"/>
     <use style="fill:#ff0000;stroke:#ff0000;" x="345.969626" xlink:href="#ma0c96788d9" y="269.574625"/>
     <use style="fill:#ff0000;stroke:#ff0000;" x="346.924492" xlink:href="#ma0c96788d9" y="269.574625"/>
     <use style="fill:#ff0000;stroke:#ff0000;" x="347.879358" xlink:href="#ma0c96788d9" y="269.574625"/>
     <use style="fill:#ff0000;stroke:#ff0000;" x="348.834225" xlink:href="#ma0c96788d9" y="269.574625"/>
     <use style="fill:#ff0000;stroke:#ff0000;" x="349.789091" xlink:href="#ma0c96788d9" y="269.574625"/>
     <use style="fill:#ff0000;stroke:#ff0000;" x="350.743957" xlink:href="#ma0c96788d9" y="269.574625"/>
     <use style="fill:#ff0000;stroke:#ff0000;" x="351.698824" xlink:href="#ma0c96788d9" y="269.574625"/>
     <use style="fill:#ff0000;stroke:#ff0000;" x="352.65369" xlink:href="#ma0c96788d9" y="269.574625"/>
     <use style="fill:#ff0000;stroke:#ff0000;" x="353.608556" xlink:href="#ma0c96788d9" y="269.574625"/>
     <use style="fill:#ff0000;stroke:#ff0000;" x="354.563422" xlink:href="#ma0c96788d9" y="269.574625"/>
     <use style="fill:#ff0000;stroke:#ff0000;" x="355.518289" xlink:href="#ma0c96788d9" y="269.574625"/>
     <use style="fill:#ff0000;stroke:#ff0000;" x="356.473155" xlink:href="#ma0c96788d9" y="269.574625"/>
     <use style="fill:#ff0000;stroke:#ff0000;" x="357.428021" xlink:href="#ma0c96788d9" y="269.574625"/>
     <use style="fill:#ff0000;stroke:#ff0000;" x="358.382888" xlink:href="#ma0c96788d9" y="269.574625"/>
     <use style="fill:#ff0000;stroke:#ff0000;" x="359.337754" xlink:href="#ma0c96788d9" y="269.574625"/>
     <use style="fill:#ff0000;stroke:#ff0000;" x="360.29262" xlink:href="#ma0c96788d9" y="269.574625"/>
     <use style="fill:#ff0000;stroke:#ff0000;" x="361.247487" xlink:href="#ma0c96788d9" y="269.574625"/>
     <use style="fill:#ff0000;stroke:#ff0000;" x="362.202353" xlink:href="#ma0c96788d9" y="269.574625"/>
     <use style="fill:#ff0000;stroke:#ff0000;" x="363.157219" xlink:href="#ma0c96788d9" y="269.574625"/>
     <use style="fill:#ff0000;stroke:#ff0000;" x="364.112086" xlink:href="#ma0c96788d9" y="269.574625"/>
     <use style="fill:#ff0000;stroke:#ff0000;" x="365.066952" xlink:href="#ma0c96788d9" y="269.574625"/>
     <use style="fill:#ff0000;stroke:#ff0000;" x="366.021818" xlink:href="#ma0c96788d9" y="269.574625"/>
     <use style="fill:#ff0000;stroke:#ff0000;" x="366.976684" xlink:href="#ma0c96788d9" y="269.574625"/>
     <use style="fill:#ff0000;stroke:#ff0000;" x="367.931551" xlink:href="#ma0c96788d9" y="269.574625"/>
     <use style="fill:#ff0000;stroke:#ff0000;" x="368.886417" xlink:href="#ma0c96788d9" y="269.574625"/>
     <use style="fill:#ff0000;stroke:#ff0000;" x="369.841283" xlink:href="#ma0c96788d9" y="269.574625"/>
     <use style="fill:#ff0000;stroke:#ff0000;" x="370.79615" xlink:href="#ma0c96788d9" y="269.574625"/>
     <use style="fill:#ff0000;stroke:#ff0000;" x="371.751016" xlink:href="#ma0c96788d9" y="269.574625"/>
     <use style="fill:#ff0000;stroke:#ff0000;" x="372.705882" xlink:href="#ma0c96788d9" y="269.574625"/>
     <use style="fill:#ff0000;stroke:#ff0000;" x="373.660749" xlink:href="#ma0c96788d9" y="269.574625"/>
     <use style="fill:#ff0000;stroke:#ff0000;" x="374.615615" xlink:href="#ma0c96788d9" y="269.574625"/>
     <use style="fill:#ff0000;stroke:#ff0000;" x="375.570481" xlink:href="#ma0c96788d9" y="269.574625"/>
     <use style="fill:#ff0000;stroke:#ff0000;" x="376.525348" xlink:href="#ma0c96788d9" y="269.574625"/>
     <use style="fill:#ff0000;stroke:#ff0000;" x="377.480214" xlink:href="#ma0c96788d9" y="269.574625"/>
     <use style="fill:#ff0000;stroke:#ff0000;" x="378.43508" xlink:href="#ma0c96788d9" y="269.574625"/>
     <use style="fill:#ff0000;stroke:#ff0000;" x="379.389947" xlink:href="#ma0c96788d9" y="269.574625"/>
     <use style="fill:#ff0000;stroke:#ff0000;" x="380.344813" xlink:href="#ma0c96788d9" y="269.574625"/>
     <use style="fill:#ff0000;stroke:#ff0000;" x="381.299679" xlink:href="#ma0c96788d9" y="269.574625"/>
     <use style="fill:#ff0000;stroke:#ff0000;" x="382.254545" xlink:href="#ma0c96788d9" y="269.574625"/>
     <use style="fill:#ff0000;stroke:#ff0000;" x="383.209412" xlink:href="#ma0c96788d9" y="269.574625"/>
     <use style="fill:#ff0000;stroke:#ff0000;" x="384.164278" xlink:href="#ma0c96788d9" y="269.574625"/>
     <use style="fill:#ff0000;stroke:#ff0000;" x="385.119144" xlink:href="#ma0c96788d9" y="269.574625"/>
     <use style="fill:#ff0000;stroke:#ff0000;" x="386.074011" xlink:href="#ma0c96788d9" y="269.574625"/>
     <use style="fill:#ff0000;stroke:#ff0000;" x="387.028877" xlink:href="#ma0c96788d9" y="269.574625"/>
     <use style="fill:#ff0000;stroke:#ff0000;" x="387.983743" xlink:href="#ma0c96788d9" y="269.574625"/>
     <use style="fill:#ff0000;stroke:#ff0000;" x="388.93861" xlink:href="#ma0c96788d9" y="269.574625"/>
     <use style="fill:#ff0000;stroke:#ff0000;" x="389.893476" xlink:href="#ma0c96788d9" y="269.574625"/>
     <use style="fill:#ff0000;stroke:#ff0000;" x="390.848342" xlink:href="#ma0c96788d9" y="269.574625"/>
     <use style="fill:#ff0000;stroke:#ff0000;" x="391.803209" xlink:href="#ma0c96788d9" y="269.574625"/>
     <use style="fill:#ff0000;stroke:#ff0000;" x="392.758075" xlink:href="#ma0c96788d9" y="269.574625"/>
     <use style="fill:#ff0000;stroke:#ff0000;" x="393.712941" xlink:href="#ma0c96788d9" y="269.574625"/>
     <use style="fill:#ff0000;stroke:#ff0000;" x="394.667807" xlink:href="#ma0c96788d9" y="269.574625"/>
     <use style="fill:#ff0000;stroke:#ff0000;" x="395.622674" xlink:href="#ma0c96788d9" y="269.574625"/>
     <use style="fill:#ff0000;stroke:#ff0000;" x="396.57754" xlink:href="#ma0c96788d9" y="269.574625"/>
     <use style="fill:#ff0000;stroke:#ff0000;" x="397.532406" xlink:href="#ma0c96788d9" y="269.574625"/>
     <use style="fill:#ff0000;stroke:#ff0000;" x="398.487273" xlink:href="#ma0c96788d9" y="269.574625"/>
    </g>
   </g>
   <g id="patch_3">
    <path d="M 57.6 307.584 
L 57.6 41.472 
" style="fill:none;stroke:#000000;stroke-linecap:square;stroke-linejoin:miter;stroke-width:0.8;"/>
   </g>
   <g id="patch_4">
    <path d="M 414.72 307.584 
L 414.72 41.472 
" style="fill:none;stroke:#000000;stroke-linecap:square;stroke-linejoin:miter;stroke-width:0.8;"/>
   </g>
   <g id="patch_5">
    <path d="M 57.6 307.584 
L 414.72 307.584 
" style="fill:none;stroke:#000000;stroke-linecap:square;stroke-linejoin:miter;stroke-width:0.8;"/>
   </g>
   <g id="patch_6">
    <path d="M 57.6 41.472 
L 414.72 41.472 
" style="fill:none;stroke:#000000;stroke-linecap:square;stroke-linejoin:miter;stroke-width:0.8;"/>
   </g>
  </g>
 </g>
 <defs>
  <clipPath id="p86bc9783f7">
   <rect height="266.112" width="357.12" x="57.6" y="41.472"/>
  </clipPath>
 </defs>
</svg>
