<?xml version="1.0" encoding="utf-8" standalone="no"?>
<!DOCTYPE svg PUBLIC "-//W3C//DTD SVG 1.1//EN"
  "http://www.w3.org/Graphics/SVG/1.1/DTD/svg11.dtd">
<!-- Created with matplotlib (https://matplotlib.org/) -->
<svg height="345.6pt" version="1.1" viewBox="0 0 460.8 345.6" width="460.8pt" xmlns="http://www.w3.org/2000/svg" xmlns:xlink="http://www.w3.org/1999/xlink">
 <defs>
  <style type="text/css">
*{stroke-linecap:butt;stroke-linejoin:round;}
  </style>
 </defs>
 <g id="figure_1">
  <g id="patch_1">
   <path d="M 0 345.6 
L 460.8 345.6 
L 460.8 0 
L 0 0 
z
" style="fill:#ffffff;"/>
  </g>
  <g id="axes_1">
   <g id="patch_2">
    <path d="M 57.6 307.584 
L 414.72 307.584 
L 414.72 41.472 
L 57.6 41.472 
z
" style="fill:#ffffff;"/>
   </g>
   <g id="line2d_1">
    <path clip-path="url(#p60c09ff67f)" d="M 73.832727 82.601263 
L 79.243636 82.601263 
L 84.654545 90.799995 
L 90.065455 90.799995 
L 95.476364 53.782092 
L 100.887273 53.782092 
L 106.298182 91.404809 
L 111.709091 91.404809 
L 117.12 53.568 
L 122.530909 53.568 
L 127.941818 92.173839 
L 133.352727 92.173839 
L 138.763636 127.035656 
L 144.174545 127.035656 
L 149.585455 127.035656 
L 154.996364 164.428002 
L 160.407273 164.428002 
L 165.818182 200.620911 
L 171.229091 200.620911 
L 176.64 200.620911 
L 182.050909 235.919201 
L 187.461818 235.919201 
L 192.872727 269.29001 
L 198.283636 269.29001 
L 203.694545 269.29001 
L 209.105455 256.80337 
L 214.516364 256.80337 
L 219.927273 256.80337 
L 225.338182 256.80337 
L 230.749091 268.622443 
L 236.16 268.622443 
L 241.570909 254.892523 
L 246.981818 254.892523 
L 252.392727 254.892523 
L 257.803636 241.624752 
L 263.214545 241.624752 
L 268.625455 252.213346 
L 274.036364 252.213346 
L 279.447273 263.301733 
L 284.858182 263.301733 
L 290.269091 263.301733 
L 295.68 273.6918 
L 301.090909 273.6918 
L 306.501818 273.6918 
L 311.912727 272.524697 
L 317.323636 282.252728 
L 322.734545 282.252728 
L 328.145455 268.78641 
L 333.556364 268.78641 
L 338.967273 279.028388 
L 344.378182 279.028388 
L 349.789091 279.028388 
L 355.2 290.587484 
L 360.610909 276.901922 
L 366.021818 276.901922 
L 371.432727 273.593172 
L 376.843636 273.593172 
L 382.254545 284.774259 
L 387.665455 295.488 
L 393.076364 295.488 
L 398.487273 295.488 
" style="fill:none;stroke:#ff0000;stroke-linecap:square;stroke-width:12;"/>
    <defs>
     <path d="M 0 3 
C 0.795609 3 1.55874 2.683901 2.12132 2.12132 
C 2.683901 1.55874 3 0.795609 3 0 
C 3 -0.795609 2.683901 -1.55874 2.12132 -2.12132 
C 1.55874 -2.683901 0.795609 -3 0 -3 
C -0.795609 -3 -1.55874 -2.683901 -2.12132 -2.12132 
C -2.683901 -1.55874 -3 -0.795609 -3 0 
C -3 0.795609 -2.683901 1.55874 -2.12132 2.12132 
C -1.55874 2.683901 -0.795609 3 0 3 
z
" id="mb270a694bd" style="stroke:#ff0000;"/>
    </defs>
    <g clip-path="url(#p60c09ff67f)">
     <use style="fill:#ff0000;stroke:#ff0000;" x="73.832727" xlink:href="#mb270a694bd" y="82.601263"/>
     <use style="fill:#ff0000;stroke:#ff0000;" x="79.243636" xlink:href="#mb270a694bd" y="82.601263"/>
     <use style="fill:#ff0000;stroke:#ff0000;" x="84.654545" xlink:href="#mb270a694bd" y="90.799995"/>
     <use style="fill:#ff0000;stroke:#ff0000;" x="90.065455" xlink:href="#mb270a694bd" y="90.799995"/>
     <use style="fill:#ff0000;stroke:#ff0000;" x="95.476364" xlink:href="#mb270a694bd" y="53.782092"/>
     <use style="fill:#ff0000;stroke:#ff0000;" x="100.887273" xlink:href="#mb270a694bd" y="53.782092"/>
     <use style="fill:#ff0000;stroke:#ff0000;" x="106.298182" xlink:href="#mb270a694bd" y="91.404809"/>
     <use style="fill:#ff0000;stroke:#ff0000;" x="111.709091" xlink:href="#mb270a694bd" y="91.404809"/>
     <use style="fill:#ff0000;stroke:#ff0000;" x="117.12" xlink:href="#mb270a694bd" y="53.568"/>
     <use style="fill:#ff0000;stroke:#ff0000;" x="122.530909" xlink:href="#mb270a694bd" y="53.568"/>
     <use style="fill:#ff0000;stroke:#ff0000;" x="127.941818" xlink:href="#mb270a694bd" y="92.173839"/>
     <use style="fill:#ff0000;stroke:#ff0000;" x="133.352727" xlink:href="#mb270a694bd" y="92.173839"/>
     <use style="fill:#ff0000;stroke:#ff0000;" x="138.763636" xlink:href="#mb270a694bd" y="127.035656"/>
     <use style="fill:#ff0000;stroke:#ff0000;" x="144.174545" xlink:href="#mb270a694bd" y="127.035656"/>
     <use style="fill:#ff0000;stroke:#ff0000;" x="149.585455" xlink:href="#mb270a694bd" y="127.035656"/>
     <use style="fill:#ff0000;stroke:#ff0000;" x="154.996364" xlink:href="#mb270a694bd" y="164.428002"/>
     <use style="fill:#ff0000;stroke:#ff0000;" x="160.407273" xlink:href="#mb270a694bd" y="164.428002"/>
     <use style="fill:#ff0000;stroke:#ff0000;" x="165.818182" xlink:href="#mb270a694bd" y="200.620911"/>
     <use style="fill:#ff0000;stroke:#ff0000;" x="171.229091" xlink:href="#mb270a694bd" y="200.620911"/>
     <use style="fill:#ff0000;stroke:#ff0000;" x="176.64" xlink:href="#mb270a694bd" y="200.620911"/>
     <use style="fill:#ff0000;stroke:#ff0000;" x="182.050909" xlink:href="#mb270a694bd" y="235.919201"/>
     <use style="fill:#ff0000;stroke:#ff0000;" x="187.461818" xlink:href="#mb270a694bd" y="235.919201"/>
     <use style="fill:#ff0000;stroke:#ff0000;" x="192.872727" xlink:href="#mb270a694bd" y="269.29001"/>
     <use style="fill:#ff0000;stroke:#ff0000;" x="198.283636" xlink:href="#mb270a694bd" y="269.29001"/>
     <use style="fill:#ff0000;stroke:#ff0000;" x="203.694545" xlink:href="#mb270a694bd" y="269.29001"/>
     <use style="fill:#ff0000;stroke:#ff0000;" x="209.105455" xlink:href="#mb270a694bd" y="256.80337"/>
     <use style="fill:#ff0000;stroke:#ff0000;" x="214.516364" xlink:href="#mb270a694bd" y="256.80337"/>
     <use style="fill:#ff0000;stroke:#ff0000;" x="219.927273" xlink:href="#mb270a694bd" y="256.80337"/>
     <use style="fill:#ff0000;stroke:#ff0000;" x="225.338182" xlink:href="#mb270a694bd" y="256.80337"/>
     <use style="fill:#ff0000;stroke:#ff0000;" x="230.749091" xlink:href="#mb270a694bd" y="268.622443"/>
     <use style="fill:#ff0000;stroke:#ff0000;" x="236.16" xlink:href="#mb270a694bd" y="268.622443"/>
     <use style="fill:#ff0000;stroke:#ff0000;" x="241.570909" xlink:href="#mb270a694bd" y="254.892523"/>
     <use style="fill:#ff0000;stroke:#ff0000;" x="246.981818" xlink:href="#mb270a694bd" y="254.892523"/>
     <use style="fill:#ff0000;stroke:#ff0000;" x="252.392727" xlink:href="#mb270a694bd" y="254.892523"/>
     <use style="fill:#ff0000;stroke:#ff0000;" x="257.803636" xlink:href="#mb270a694bd" y="241.624752"/>
     <use style="fill:#ff0000;stroke:#ff0000;" x="263.214545" xlink:href="#mb270a694bd" y="241.624752"/>
     <use style="fill:#ff0000;stroke:#ff0000;" x="268.625455" xlink:href="#mb270a694bd" y="252.213346"/>
     <use style="fill:#ff0000;stroke:#ff0000;" x="274.036364" xlink:href="#mb270a694bd" y="252.213346"/>
     <use style="fill:#ff0000;stroke:#ff0000;" x="279.447273" xlink:href="#mb270a694bd" y="263.301733"/>
     <use style="fill:#ff0000;stroke:#ff0000;" x="284.858182" xlink:href="#mb270a694bd" y="263.301733"/>
     <use style="fill:#ff0000;stroke:#ff0000;" x="290.269091" xlink:href="#mb270a694bd" y="263.301733"/>
     <use style="fill:#ff0000;stroke:#ff0000;" x="295.68" xlink:href="#mb270a694bd" y="273.6918"/>
     <use style="fill:#ff0000;stroke:#ff0000;" x="301.090909" xlink:href="#mb270a694bd" y="273.6918"/>
     <use style="fill:#ff0000;stroke:#ff0000;" x="306.501818" xlink:href="#mb270a694bd" y="273.6918"/>
     <use style="fill:#ff0000;stroke:#ff0000;" x="311.912727" xlink:href="#mb270a694bd" y="272.524697"/>
     <use style="fill:#ff0000;stroke:#ff0000;" x="317.323636" xlink:href="#mb270a694bd" y="282.252728"/>
     <use style="fill:#ff0000;stroke:#ff0000;" x="322.734545" xlink:href="#mb270a694bd" y="282.252728"/>
     <use style="fill:#ff0000;stroke:#ff0000;" x="328.145455" xlink:href="#mb270a694bd" y="268.78641"/>
     <use style="fill:#ff0000;stroke:#ff0000;" x="333.556364" xlink:href="#mb270a694bd" y="268.78641"/>
     <use style="fill:#ff0000;stroke:#ff0000;" x="338.967273" xlink:href="#mb270a694bd" y="279.028388"/>
     <use style="fill:#ff0000;stroke:#ff0000;" x="344.378182" xlink:href="#mb270a694bd" y="279.028388"/>
     <use style="fill:#ff0000;stroke:#ff0000;" x="349.789091" xlink:href="#mb270a694bd" y="279.028388"/>
     <use style="fill:#ff0000;stroke:#ff0000;" x="355.2" xlink:href="#mb270a694bd" y="290.587484"/>
     <use style="fill:#ff0000;stroke:#ff0000;" x="360.610909" xlink:href="#mb270a694bd" y="276.901922"/>
     <use style="fill:#ff0000;stroke:#ff0000;" x="366.021818" xlink:href="#mb270a694bd" y="276.901922"/>
     <use style="fill:#ff0000;stroke:#ff0000;" x="371.432727" xlink:href="#mb270a694bd" y="273.593172"/>
     <use style="fill:#ff0000;stroke:#ff0000;" x="376.843636" xlink:href="#mb270a694bd" y="273.593172"/>
     <use style="fill:#ff0000;stroke:#ff0000;" x="382.254545" xlink:href="#mb270a694bd" y="284.774259"/>
     <use style="fill:#ff0000;stroke:#ff0000;" x="387.665455" xlink:href="#mb270a694bd" y="295.488"/>
     <use style="fill:#ff0000;stroke:#ff0000;" x="393.076364" xlink:href="#mb270a694bd" y="295.488"/>
     <use style="fill:#ff0000;stroke:#ff0000;" x="398.487273" xlink:href="#mb270a694bd" y="295.488"/>
    </g>
   </g>
   <g id="patch_3">
    <path d="M 57.6 307.584 
L 57.6 41.472 
" style="fill:none;stroke:#000000;stroke-linecap:square;stroke-linejoin:miter;stroke-width:0.8;"/>
   </g>
   <g id="patch_4">
    <path d="M 414.72 307.584 
L 414.72 41.472 
" style="fill:none;stroke:#000000;stroke-linecap:square;stroke-linejoin:miter;stroke-width:0.8;"/>
   </g>
   <g id="patch_5">
    <path d="M 57.6 307.584 
L 414.72 307.584 
" style="fill:none;stroke:#000000;stroke-linecap:square;stroke-linejoin:miter;stroke-width:0.8;"/>
   </g>
   <g id="patch_6">
    <path d="M 57.6 41.472 
L 414.72 41.472 
" style="fill:none;stroke:#000000;stroke-linecap:square;stroke-linejoin:miter;stroke-width:0.8;"/>
   </g>
  </g>
 </g>
 <defs>
  <clipPath id="p60c09ff67f">
   <rect height="266.112" width="357.12" x="57.6" y="41.472"/>
  </clipPath>
 </defs>
</svg>
