<?xml version="1.0" encoding="utf-8" standalone="no"?>
<!DOCTYPE svg PUBLIC "-//W3C//DTD SVG 1.1//EN"
  "http://www.w3.org/Graphics/SVG/1.1/DTD/svg11.dtd">
<!-- Created with matplotlib (https://matplotlib.org/) -->
<svg height="345.6pt" version="1.1" viewBox="0 0 460.8 345.6" width="460.8pt" xmlns="http://www.w3.org/2000/svg" xmlns:xlink="http://www.w3.org/1999/xlink">
 <defs>
  <style type="text/css">
*{stroke-linecap:butt;stroke-linejoin:round;}
  </style>
 </defs>
 <g id="figure_1">
  <g id="patch_1">
   <path d="M 0 345.6 
L 460.8 345.6 
L 460.8 0 
L 0 0 
z
" style="fill:#ffffff;"/>
  </g>
  <g id="axes_1">
   <g id="patch_2">
    <path d="M 57.6 307.584 
L 414.72 307.584 
L 414.72 41.472 
L 57.6 41.472 
z
" style="fill:#ffffff;"/>
   </g>
   <g id="line2d_1">
    <path clip-path="url(#p5b3bd3a0fc)" d="M 73.832727 76.072723 
L 75.587617 76.072723 
L 77.342506 82.427854 
L 79.097396 82.427854 
L 80.852285 53.73395 
L 82.607174 53.73395 
L 84.362064 82.896667 
L 86.116953 82.896667 
L 87.871843 53.568 
L 89.626732 53.568 
L 91.381622 83.49277 
L 93.136511 83.49277 
L 94.8914 110.515414 
L 98.401179 110.515414 
L 100.156069 139.499563 
L 101.910958 139.499563 
L 103.665848 167.553984 
L 107.175627 167.553984 
L 108.930516 194.914955 
L 110.685405 194.914955 
L 112.440295 220.781865 
L 115.950074 220.781865 
L 117.704963 211.103022 
L 122.969631 211.103022 
L 124.724521 220.26441 
L 126.47941 220.26441 
L 128.2343 209.621857 
L 131.744079 209.621857 
L 133.498968 199.337531 
L 135.253857 199.337531 
L 137.008747 207.545131 
L 138.763636 207.545131 
L 140.518526 216.140137 
L 144.028305 216.140137 
L 145.783194 224.193851 
L 149.292973 224.193851 
L 151.047862 223.289187 
L 152.802752 230.829732 
L 154.557641 230.829732 
L 156.312531 220.391507 
L 158.06742 220.391507 
L 159.82231 228.330431 
L 163.332088 228.330431 
L 165.086978 237.290301 
L 166.841867 226.682131 
L 168.596757 226.682131 
L 170.351646 224.1174 
L 172.106536 224.1174 
L 175.616314 241.088866 
L 177.371204 241.088866 
L 179.126093 230.294744 
L 180.880983 230.294744 
L 182.635872 238.818993 
L 184.390762 238.818993 
L 186.145651 247.444385 
L 187.900541 247.444385 
L 189.65543 236.752416 
L 191.410319 236.752416 
L 193.165209 246.224281 
L 194.920098 246.655793 
L 196.674988 246.655793 
L 198.429877 254.917223 
L 200.184767 254.917223 
L 201.939656 255.319682 
L 205.449435 255.319682 
L 207.204324 243.8304 
L 212.468993 243.8304 
L 214.223882 240.30648 
L 215.978771 237.265124 
L 221.24344 237.265124 
L 222.998329 226.924885 
L 224.753219 226.924885 
L 226.508108 235.399256 
L 228.262998 235.399256 
L 230.017887 231.788399 
L 231.772776 240.104021 
L 233.527666 240.104021 
L 235.282555 247.140568 
L 237.037445 247.140568 
L 238.792334 236.526355 
L 240.547224 236.526355 
L 242.302113 244.356708 
L 245.811892 244.356708 
L 247.566781 253.514004 
L 249.321671 253.514004 
L 251.07656 241.974335 
L 254.586339 241.974335 
L 256.341229 240.562441 
L 258.096118 240.562441 
L 259.851007 229.970791 
L 261.605897 229.970791 
L 263.360786 238.109835 
L 265.115676 238.109835 
L 266.870565 227.580262 
L 286.174349 227.580262 
L 287.929238 235.502122 
L 289.684128 235.502122 
L 291.439017 233.240528 
L 293.193907 222.97799 
L 294.948796 222.97799 
L 296.703686 222.404589 
L 298.458575 222.404589 
L 300.213464 222.563736 
L 301.968354 222.563736 
L 303.723243 230.867027 
L 307.233022 230.867027 
L 308.987912 230.261712 
L 310.742801 230.261712 
L 312.49769 237.890328 
L 314.25258 237.890328 
L 316.007469 246.097105 
L 319.517248 246.097105 
L 321.272138 253.72358 
L 323.027027 253.72358 
L 324.781916 262.821176 
L 326.536806 262.821176 
L 328.291695 259.736148 
L 330.046585 267.561398 
L 331.801474 267.561398 
L 333.556364 268.174833 
L 335.311253 268.174833 
L 337.066143 257.627638 
L 340.575921 257.627638 
L 342.330811 265.449799 
L 344.0857 265.449799 
L 345.84059 273.413749 
L 347.595479 273.413749 
L 349.350369 281.769262 
L 351.105258 271.567065 
L 356.369926 271.567065 
L 358.124816 279.327416 
L 359.879705 279.327416 
L 361.634595 288.063065 
L 363.389484 288.063065 
L 365.144373 295.488 
L 368.654152 295.488 
L 370.409042 283.459342 
L 372.163931 283.459342 
L 373.918821 282.750572 
L 375.67371 282.750572 
L 377.4286 270.656118 
L 379.183489 279.383536 
L 380.938378 279.383536 
L 382.693268 278.759504 
L 384.448157 278.759504 
L 386.203047 275.748003 
L 387.957936 275.748003 
L 389.712826 282.857087 
L 391.467715 271.970477 
L 394.977494 271.970477 
L 396.732383 280.745571 
L 398.487273 280.745571 
L 398.487273 280.745571 
" style="fill:none;stroke:#ff0000;stroke-linecap:square;stroke-width:12;"/>
    <defs>
     <path d="M 0 3 
C 0.795609 3 1.55874 2.683901 2.12132 2.12132 
C 2.683901 1.55874 3 0.795609 3 0 
C 3 -0.795609 2.683901 -1.55874 2.12132 -2.12132 
C 1.55874 -2.683901 0.795609 -3 0 -3 
C -0.795609 -3 -1.55874 -2.683901 -2.12132 -2.12132 
C -2.683901 -1.55874 -3 -0.795609 -3 0 
C -3 0.795609 -2.683901 1.55874 -2.12132 2.12132 
C -1.55874 2.683901 -0.795609 3 0 3 
z
" id="m90c2daa939" style="stroke:#ff0000;"/>
    </defs>
    <g clip-path="url(#p5b3bd3a0fc)">
     <use style="fill:#ff0000;stroke:#ff0000;" x="73.832727" xlink:href="#m90c2daa939" y="76.072723"/>
     <use style="fill:#ff0000;stroke:#ff0000;" x="75.587617" xlink:href="#m90c2daa939" y="76.072723"/>
     <use style="fill:#ff0000;stroke:#ff0000;" x="77.342506" xlink:href="#m90c2daa939" y="82.427854"/>
     <use style="fill:#ff0000;stroke:#ff0000;" x="79.097396" xlink:href="#m90c2daa939" y="82.427854"/>
     <use style="fill:#ff0000;stroke:#ff0000;" x="80.852285" xlink:href="#m90c2daa939" y="53.73395"/>
     <use style="fill:#ff0000;stroke:#ff0000;" x="82.607174" xlink:href="#m90c2daa939" y="53.73395"/>
     <use style="fill:#ff0000;stroke:#ff0000;" x="84.362064" xlink:href="#m90c2daa939" y="82.896667"/>
     <use style="fill:#ff0000;stroke:#ff0000;" x="86.116953" xlink:href="#m90c2daa939" y="82.896667"/>
     <use style="fill:#ff0000;stroke:#ff0000;" x="87.871843" xlink:href="#m90c2daa939" y="53.568"/>
     <use style="fill:#ff0000;stroke:#ff0000;" x="89.626732" xlink:href="#m90c2daa939" y="53.568"/>
     <use style="fill:#ff0000;stroke:#ff0000;" x="91.381622" xlink:href="#m90c2daa939" y="83.49277"/>
     <use style="fill:#ff0000;stroke:#ff0000;" x="93.136511" xlink:href="#m90c2daa939" y="83.49277"/>
     <use style="fill:#ff0000;stroke:#ff0000;" x="94.8914" xlink:href="#m90c2daa939" y="110.515414"/>
     <use style="fill:#ff0000;stroke:#ff0000;" x="96.64629" xlink:href="#m90c2daa939" y="110.515414"/>
     <use style="fill:#ff0000;stroke:#ff0000;" x="98.401179" xlink:href="#m90c2daa939" y="110.515414"/>
     <use style="fill:#ff0000;stroke:#ff0000;" x="100.156069" xlink:href="#m90c2daa939" y="139.499563"/>
     <use style="fill:#ff0000;stroke:#ff0000;" x="101.910958" xlink:href="#m90c2daa939" y="139.499563"/>
     <use style="fill:#ff0000;stroke:#ff0000;" x="103.665848" xlink:href="#m90c2daa939" y="167.553984"/>
     <use style="fill:#ff0000;stroke:#ff0000;" x="105.420737" xlink:href="#m90c2daa939" y="167.553984"/>
     <use style="fill:#ff0000;stroke:#ff0000;" x="107.175627" xlink:href="#m90c2daa939" y="167.553984"/>
     <use style="fill:#ff0000;stroke:#ff0000;" x="108.930516" xlink:href="#m90c2daa939" y="194.914955"/>
     <use style="fill:#ff0000;stroke:#ff0000;" x="110.685405" xlink:href="#m90c2daa939" y="194.914955"/>
     <use style="fill:#ff0000;stroke:#ff0000;" x="112.440295" xlink:href="#m90c2daa939" y="220.781865"/>
     <use style="fill:#ff0000;stroke:#ff0000;" x="114.195184" xlink:href="#m90c2daa939" y="220.781865"/>
     <use style="fill:#ff0000;stroke:#ff0000;" x="115.950074" xlink:href="#m90c2daa939" y="220.781865"/>
     <use style="fill:#ff0000;stroke:#ff0000;" x="117.704963" xlink:href="#m90c2daa939" y="211.103022"/>
     <use style="fill:#ff0000;stroke:#ff0000;" x="119.459853" xlink:href="#m90c2daa939" y="211.103022"/>
     <use style="fill:#ff0000;stroke:#ff0000;" x="121.214742" xlink:href="#m90c2daa939" y="211.103022"/>
     <use style="fill:#ff0000;stroke:#ff0000;" x="122.969631" xlink:href="#m90c2daa939" y="211.103022"/>
     <use style="fill:#ff0000;stroke:#ff0000;" x="124.724521" xlink:href="#m90c2daa939" y="220.26441"/>
     <use style="fill:#ff0000;stroke:#ff0000;" x="126.47941" xlink:href="#m90c2daa939" y="220.26441"/>
     <use style="fill:#ff0000;stroke:#ff0000;" x="128.2343" xlink:href="#m90c2daa939" y="209.621857"/>
     <use style="fill:#ff0000;stroke:#ff0000;" x="129.989189" xlink:href="#m90c2daa939" y="209.621857"/>
     <use style="fill:#ff0000;stroke:#ff0000;" x="131.744079" xlink:href="#m90c2daa939" y="209.621857"/>
     <use style="fill:#ff0000;stroke:#ff0000;" x="133.498968" xlink:href="#m90c2daa939" y="199.337531"/>
     <use style="fill:#ff0000;stroke:#ff0000;" x="135.253857" xlink:href="#m90c2daa939" y="199.337531"/>
     <use style="fill:#ff0000;stroke:#ff0000;" x="137.008747" xlink:href="#m90c2daa939" y="207.545131"/>
     <use style="fill:#ff0000;stroke:#ff0000;" x="138.763636" xlink:href="#m90c2daa939" y="207.545131"/>
     <use style="fill:#ff0000;stroke:#ff0000;" x="140.518526" xlink:href="#m90c2daa939" y="216.140137"/>
     <use style="fill:#ff0000;stroke:#ff0000;" x="142.273415" xlink:href="#m90c2daa939" y="216.140137"/>
     <use style="fill:#ff0000;stroke:#ff0000;" x="144.028305" xlink:href="#m90c2daa939" y="216.140137"/>
     <use style="fill:#ff0000;stroke:#ff0000;" x="145.783194" xlink:href="#m90c2daa939" y="224.193851"/>
     <use style="fill:#ff0000;stroke:#ff0000;" x="147.538084" xlink:href="#m90c2daa939" y="224.193851"/>
     <use style="fill:#ff0000;stroke:#ff0000;" x="149.292973" xlink:href="#m90c2daa939" y="224.193851"/>
     <use style="fill:#ff0000;stroke:#ff0000;" x="151.047862" xlink:href="#m90c2daa939" y="223.289187"/>
     <use style="fill:#ff0000;stroke:#ff0000;" x="152.802752" xlink:href="#m90c2daa939" y="230.829732"/>
     <use style="fill:#ff0000;stroke:#ff0000;" x="154.557641" xlink:href="#m90c2daa939" y="230.829732"/>
     <use style="fill:#ff0000;stroke:#ff0000;" x="156.312531" xlink:href="#m90c2daa939" y="220.391507"/>
     <use style="fill:#ff0000;stroke:#ff0000;" x="158.06742" xlink:href="#m90c2daa939" y="220.391507"/>
     <use style="fill:#ff0000;stroke:#ff0000;" x="159.82231" xlink:href="#m90c2daa939" y="228.330431"/>
     <use style="fill:#ff0000;stroke:#ff0000;" x="161.577199" xlink:href="#m90c2daa939" y="228.330431"/>
     <use style="fill:#ff0000;stroke:#ff0000;" x="163.332088" xlink:href="#m90c2daa939" y="228.330431"/>
     <use style="fill:#ff0000;stroke:#ff0000;" x="165.086978" xlink:href="#m90c2daa939" y="237.290301"/>
     <use style="fill:#ff0000;stroke:#ff0000;" x="166.841867" xlink:href="#m90c2daa939" y="226.682131"/>
     <use style="fill:#ff0000;stroke:#ff0000;" x="168.596757" xlink:href="#m90c2daa939" y="226.682131"/>
     <use style="fill:#ff0000;stroke:#ff0000;" x="170.351646" xlink:href="#m90c2daa939" y="224.1174"/>
     <use style="fill:#ff0000;stroke:#ff0000;" x="172.106536" xlink:href="#m90c2daa939" y="224.1174"/>
     <use style="fill:#ff0000;stroke:#ff0000;" x="173.861425" xlink:href="#m90c2daa939" y="232.784261"/>
     <use style="fill:#ff0000;stroke:#ff0000;" x="175.616314" xlink:href="#m90c2daa939" y="241.088866"/>
     <use style="fill:#ff0000;stroke:#ff0000;" x="177.371204" xlink:href="#m90c2daa939" y="241.088866"/>
     <use style="fill:#ff0000;stroke:#ff0000;" x="179.126093" xlink:href="#m90c2daa939" y="230.294744"/>
     <use style="fill:#ff0000;stroke:#ff0000;" x="180.880983" xlink:href="#m90c2daa939" y="230.294744"/>
     <use style="fill:#ff0000;stroke:#ff0000;" x="182.635872" xlink:href="#m90c2daa939" y="238.818993"/>
     <use style="fill:#ff0000;stroke:#ff0000;" x="184.390762" xlink:href="#m90c2daa939" y="238.818993"/>
     <use style="fill:#ff0000;stroke:#ff0000;" x="186.145651" xlink:href="#m90c2daa939" y="247.444385"/>
     <use style="fill:#ff0000;stroke:#ff0000;" x="187.900541" xlink:href="#m90c2daa939" y="247.444385"/>
     <use style="fill:#ff0000;stroke:#ff0000;" x="189.65543" xlink:href="#m90c2daa939" y="236.752416"/>
     <use style="fill:#ff0000;stroke:#ff0000;" x="191.410319" xlink:href="#m90c2daa939" y="236.752416"/>
     <use style="fill:#ff0000;stroke:#ff0000;" x="193.165209" xlink:href="#m90c2daa939" y="246.224281"/>
     <use style="fill:#ff0000;stroke:#ff0000;" x="194.920098" xlink:href="#m90c2daa939" y="246.655793"/>
     <use style="fill:#ff0000;stroke:#ff0000;" x="196.674988" xlink:href="#m90c2daa939" y="246.655793"/>
     <use style="fill:#ff0000;stroke:#ff0000;" x="198.429877" xlink:href="#m90c2daa939" y="254.917223"/>
     <use style="fill:#ff0000;stroke:#ff0000;" x="200.184767" xlink:href="#m90c2daa939" y="254.917223"/>
     <use style="fill:#ff0000;stroke:#ff0000;" x="201.939656" xlink:href="#m90c2daa939" y="255.319682"/>
     <use style="fill:#ff0000;stroke:#ff0000;" x="203.694545" xlink:href="#m90c2daa939" y="255.319682"/>
     <use style="fill:#ff0000;stroke:#ff0000;" x="205.449435" xlink:href="#m90c2daa939" y="255.319682"/>
     <use style="fill:#ff0000;stroke:#ff0000;" x="207.204324" xlink:href="#m90c2daa939" y="243.8304"/>
     <use style="fill:#ff0000;stroke:#ff0000;" x="208.959214" xlink:href="#m90c2daa939" y="243.8304"/>
     <use style="fill:#ff0000;stroke:#ff0000;" x="210.714103" xlink:href="#m90c2daa939" y="243.8304"/>
     <use style="fill:#ff0000;stroke:#ff0000;" x="212.468993" xlink:href="#m90c2daa939" y="243.8304"/>
     <use style="fill:#ff0000;stroke:#ff0000;" x="214.223882" xlink:href="#m90c2daa939" y="240.30648"/>
     <use style="fill:#ff0000;stroke:#ff0000;" x="215.978771" xlink:href="#m90c2daa939" y="237.265124"/>
     <use style="fill:#ff0000;stroke:#ff0000;" x="217.733661" xlink:href="#m90c2daa939" y="237.265124"/>
     <use style="fill:#ff0000;stroke:#ff0000;" x="219.48855" xlink:href="#m90c2daa939" y="237.265124"/>
     <use style="fill:#ff0000;stroke:#ff0000;" x="221.24344" xlink:href="#m90c2daa939" y="237.265124"/>
     <use style="fill:#ff0000;stroke:#ff0000;" x="222.998329" xlink:href="#m90c2daa939" y="226.924885"/>
     <use style="fill:#ff0000;stroke:#ff0000;" x="224.753219" xlink:href="#m90c2daa939" y="226.924885"/>
     <use style="fill:#ff0000;stroke:#ff0000;" x="226.508108" xlink:href="#m90c2daa939" y="235.399256"/>
     <use style="fill:#ff0000;stroke:#ff0000;" x="228.262998" xlink:href="#m90c2daa939" y="235.399256"/>
     <use style="fill:#ff0000;stroke:#ff0000;" x="230.017887" xlink:href="#m90c2daa939" y="231.788399"/>
     <use style="fill:#ff0000;stroke:#ff0000;" x="231.772776" xlink:href="#m90c2daa939" y="240.104021"/>
     <use style="fill:#ff0000;stroke:#ff0000;" x="233.527666" xlink:href="#m90c2daa939" y="240.104021"/>
     <use style="fill:#ff0000;stroke:#ff0000;" x="235.282555" xlink:href="#m90c2daa939" y="247.140568"/>
     <use style="fill:#ff0000;stroke:#ff0000;" x="237.037445" xlink:href="#m90c2daa939" y="247.140568"/>
     <use style="fill:#ff0000;stroke:#ff0000;" x="238.792334" xlink:href="#m90c2daa939" y="236.526355"/>
     <use style="fill:#ff0000;stroke:#ff0000;" x="240.547224" xlink:href="#m90c2daa939" y="236.526355"/>
     <use style="fill:#ff0000;stroke:#ff0000;" x="242.302113" xlink:href="#m90c2daa939" y="244.356708"/>
     <use style="fill:#ff0000;stroke:#ff0000;" x="244.057002" xlink:href="#m90c2daa939" y="244.356708"/>
     <use style="fill:#ff0000;stroke:#ff0000;" x="245.811892" xlink:href="#m90c2daa939" y="244.356708"/>
     <use style="fill:#ff0000;stroke:#ff0000;" x="247.566781" xlink:href="#m90c2daa939" y="253.514004"/>
     <use style="fill:#ff0000;stroke:#ff0000;" x="249.321671" xlink:href="#m90c2daa939" y="253.514004"/>
     <use style="fill:#ff0000;stroke:#ff0000;" x="251.07656" xlink:href="#m90c2daa939" y="241.974335"/>
     <use style="fill:#ff0000;stroke:#ff0000;" x="252.83145" xlink:href="#m90c2daa939" y="241.974335"/>
     <use style="fill:#ff0000;stroke:#ff0000;" x="254.586339" xlink:href="#m90c2daa939" y="241.974335"/>
     <use style="fill:#ff0000;stroke:#ff0000;" x="256.341229" xlink:href="#m90c2daa939" y="240.562441"/>
     <use style="fill:#ff0000;stroke:#ff0000;" x="258.096118" xlink:href="#m90c2daa939" y="240.562441"/>
     <use style="fill:#ff0000;stroke:#ff0000;" x="259.851007" xlink:href="#m90c2daa939" y="229.970791"/>
     <use style="fill:#ff0000;stroke:#ff0000;" x="261.605897" xlink:href="#m90c2daa939" y="229.970791"/>
     <use style="fill:#ff0000;stroke:#ff0000;" x="263.360786" xlink:href="#m90c2daa939" y="238.109835"/>
     <use style="fill:#ff0000;stroke:#ff0000;" x="265.115676" xlink:href="#m90c2daa939" y="238.109835"/>
     <use style="fill:#ff0000;stroke:#ff0000;" x="266.870565" xlink:href="#m90c2daa939" y="227.580262"/>
     <use style="fill:#ff0000;stroke:#ff0000;" x="268.625455" xlink:href="#m90c2daa939" y="227.580262"/>
     <use style="fill:#ff0000;stroke:#ff0000;" x="270.380344" xlink:href="#m90c2daa939" y="227.580262"/>
     <use style="fill:#ff0000;stroke:#ff0000;" x="272.135233" xlink:href="#m90c2daa939" y="227.580262"/>
     <use style="fill:#ff0000;stroke:#ff0000;" x="273.890123" xlink:href="#m90c2daa939" y="227.580262"/>
     <use style="fill:#ff0000;stroke:#ff0000;" x="275.645012" xlink:href="#m90c2daa939" y="227.580262"/>
     <use style="fill:#ff0000;stroke:#ff0000;" x="277.399902" xlink:href="#m90c2daa939" y="227.580262"/>
     <use style="fill:#ff0000;stroke:#ff0000;" x="279.154791" xlink:href="#m90c2daa939" y="227.580262"/>
     <use style="fill:#ff0000;stroke:#ff0000;" x="280.909681" xlink:href="#m90c2daa939" y="227.580262"/>
     <use style="fill:#ff0000;stroke:#ff0000;" x="282.66457" xlink:href="#m90c2daa939" y="227.580262"/>
     <use style="fill:#ff0000;stroke:#ff0000;" x="284.419459" xlink:href="#m90c2daa939" y="227.580262"/>
     <use style="fill:#ff0000;stroke:#ff0000;" x="286.174349" xlink:href="#m90c2daa939" y="227.580262"/>
     <use style="fill:#ff0000;stroke:#ff0000;" x="287.929238" xlink:href="#m90c2daa939" y="235.502122"/>
     <use style="fill:#ff0000;stroke:#ff0000;" x="289.684128" xlink:href="#m90c2daa939" y="235.502122"/>
     <use style="fill:#ff0000;stroke:#ff0000;" x="291.439017" xlink:href="#m90c2daa939" y="233.240528"/>
     <use style="fill:#ff0000;stroke:#ff0000;" x="293.193907" xlink:href="#m90c2daa939" y="222.97799"/>
     <use style="fill:#ff0000;stroke:#ff0000;" x="294.948796" xlink:href="#m90c2daa939" y="222.97799"/>
     <use style="fill:#ff0000;stroke:#ff0000;" x="296.703686" xlink:href="#m90c2daa939" y="222.404589"/>
     <use style="fill:#ff0000;stroke:#ff0000;" x="298.458575" xlink:href="#m90c2daa939" y="222.404589"/>
     <use style="fill:#ff0000;stroke:#ff0000;" x="300.213464" xlink:href="#m90c2daa939" y="222.563736"/>
     <use style="fill:#ff0000;stroke:#ff0000;" x="301.968354" xlink:href="#m90c2daa939" y="222.563736"/>
     <use style="fill:#ff0000;stroke:#ff0000;" x="303.723243" xlink:href="#m90c2daa939" y="230.867027"/>
     <use style="fill:#ff0000;stroke:#ff0000;" x="305.478133" xlink:href="#m90c2daa939" y="230.867027"/>
     <use style="fill:#ff0000;stroke:#ff0000;" x="307.233022" xlink:href="#m90c2daa939" y="230.867027"/>
     <use style="fill:#ff0000;stroke:#ff0000;" x="308.987912" xlink:href="#m90c2daa939" y="230.261712"/>
     <use style="fill:#ff0000;stroke:#ff0000;" x="310.742801" xlink:href="#m90c2daa939" y="230.261712"/>
     <use style="fill:#ff0000;stroke:#ff0000;" x="312.49769" xlink:href="#m90c2daa939" y="237.890328"/>
     <use style="fill:#ff0000;stroke:#ff0000;" x="314.25258" xlink:href="#m90c2daa939" y="237.890328"/>
     <use style="fill:#ff0000;stroke:#ff0000;" x="316.007469" xlink:href="#m90c2daa939" y="246.097105"/>
     <use style="fill:#ff0000;stroke:#ff0000;" x="317.762359" xlink:href="#m90c2daa939" y="246.097105"/>
     <use style="fill:#ff0000;stroke:#ff0000;" x="319.517248" xlink:href="#m90c2daa939" y="246.097105"/>
     <use style="fill:#ff0000;stroke:#ff0000;" x="321.272138" xlink:href="#m90c2daa939" y="253.72358"/>
     <use style="fill:#ff0000;stroke:#ff0000;" x="323.027027" xlink:href="#m90c2daa939" y="253.72358"/>
     <use style="fill:#ff0000;stroke:#ff0000;" x="324.781916" xlink:href="#m90c2daa939" y="262.821176"/>
     <use style="fill:#ff0000;stroke:#ff0000;" x="326.536806" xlink:href="#m90c2daa939" y="262.821176"/>
     <use style="fill:#ff0000;stroke:#ff0000;" x="328.291695" xlink:href="#m90c2daa939" y="259.736148"/>
     <use style="fill:#ff0000;stroke:#ff0000;" x="330.046585" xlink:href="#m90c2daa939" y="267.561398"/>
     <use style="fill:#ff0000;stroke:#ff0000;" x="331.801474" xlink:href="#m90c2daa939" y="267.561398"/>
     <use style="fill:#ff0000;stroke:#ff0000;" x="333.556364" xlink:href="#m90c2daa939" y="268.174833"/>
     <use style="fill:#ff0000;stroke:#ff0000;" x="335.311253" xlink:href="#m90c2daa939" y="268.174833"/>
     <use style="fill:#ff0000;stroke:#ff0000;" x="337.066143" xlink:href="#m90c2daa939" y="257.627638"/>
     <use style="fill:#ff0000;stroke:#ff0000;" x="338.821032" xlink:href="#m90c2daa939" y="257.627638"/>
     <use style="fill:#ff0000;stroke:#ff0000;" x="340.575921" xlink:href="#m90c2daa939" y="257.627638"/>
     <use style="fill:#ff0000;stroke:#ff0000;" x="342.330811" xlink:href="#m90c2daa939" y="265.449799"/>
     <use style="fill:#ff0000;stroke:#ff0000;" x="344.0857" xlink:href="#m90c2daa939" y="265.449799"/>
     <use style="fill:#ff0000;stroke:#ff0000;" x="345.84059" xlink:href="#m90c2daa939" y="273.413749"/>
     <use style="fill:#ff0000;stroke:#ff0000;" x="347.595479" xlink:href="#m90c2daa939" y="273.413749"/>
     <use style="fill:#ff0000;stroke:#ff0000;" x="349.350369" xlink:href="#m90c2daa939" y="281.769262"/>
     <use style="fill:#ff0000;stroke:#ff0000;" x="351.105258" xlink:href="#m90c2daa939" y="271.567065"/>
     <use style="fill:#ff0000;stroke:#ff0000;" x="352.860147" xlink:href="#m90c2daa939" y="271.567065"/>
     <use style="fill:#ff0000;stroke:#ff0000;" x="354.615037" xlink:href="#m90c2daa939" y="271.567065"/>
     <use style="fill:#ff0000;stroke:#ff0000;" x="356.369926" xlink:href="#m90c2daa939" y="271.567065"/>
     <use style="fill:#ff0000;stroke:#ff0000;" x="358.124816" xlink:href="#m90c2daa939" y="279.327416"/>
     <use style="fill:#ff0000;stroke:#ff0000;" x="359.879705" xlink:href="#m90c2daa939" y="279.327416"/>
     <use style="fill:#ff0000;stroke:#ff0000;" x="361.634595" xlink:href="#m90c2daa939" y="288.063065"/>
     <use style="fill:#ff0000;stroke:#ff0000;" x="363.389484" xlink:href="#m90c2daa939" y="288.063065"/>
     <use style="fill:#ff0000;stroke:#ff0000;" x="365.144373" xlink:href="#m90c2daa939" y="295.488"/>
     <use style="fill:#ff0000;stroke:#ff0000;" x="366.899263" xlink:href="#m90c2daa939" y="295.488"/>
     <use style="fill:#ff0000;stroke:#ff0000;" x="368.654152" xlink:href="#m90c2daa939" y="295.488"/>
     <use style="fill:#ff0000;stroke:#ff0000;" x="370.409042" xlink:href="#m90c2daa939" y="283.459342"/>
     <use style="fill:#ff0000;stroke:#ff0000;" x="372.163931" xlink:href="#m90c2daa939" y="283.459342"/>
     <use style="fill:#ff0000;stroke:#ff0000;" x="373.918821" xlink:href="#m90c2daa939" y="282.750572"/>
     <use style="fill:#ff0000;stroke:#ff0000;" x="375.67371" xlink:href="#m90c2daa939" y="282.750572"/>
     <use style="fill:#ff0000;stroke:#ff0000;" x="377.4286" xlink:href="#m90c2daa939" y="270.656118"/>
     <use style="fill:#ff0000;stroke:#ff0000;" x="379.183489" xlink:href="#m90c2daa939" y="279.383536"/>
     <use style="fill:#ff0000;stroke:#ff0000;" x="380.938378" xlink:href="#m90c2daa939" y="279.383536"/>
     <use style="fill:#ff0000;stroke:#ff0000;" x="382.693268" xlink:href="#m90c2daa939" y="278.759504"/>
     <use style="fill:#ff0000;stroke:#ff0000;" x="384.448157" xlink:href="#m90c2daa939" y="278.759504"/>
     <use style="fill:#ff0000;stroke:#ff0000;" x="386.203047" xlink:href="#m90c2daa939" y="275.748003"/>
     <use style="fill:#ff0000;stroke:#ff0000;" x="387.957936" xlink:href="#m90c2daa939" y="275.748003"/>
     <use style="fill:#ff0000;stroke:#ff0000;" x="389.712826" xlink:href="#m90c2daa939" y="282.857087"/>
     <use style="fill:#ff0000;stroke:#ff0000;" x="391.467715" xlink:href="#m90c2daa939" y="271.970477"/>
     <use style="fill:#ff0000;stroke:#ff0000;" x="393.222604" xlink:href="#m90c2daa939" y="271.970477"/>
     <use style="fill:#ff0000;stroke:#ff0000;" x="394.977494" xlink:href="#m90c2daa939" y="271.970477"/>
     <use style="fill:#ff0000;stroke:#ff0000;" x="396.732383" xlink:href="#m90c2daa939" y="280.745571"/>
     <use style="fill:#ff0000;stroke:#ff0000;" x="398.487273" xlink:href="#m90c2daa939" y="280.745571"/>
    </g>
   </g>
   <g id="patch_3">
    <path d="M 57.6 307.584 
L 57.6 41.472 
" style="fill:none;stroke:#000000;stroke-linecap:square;stroke-linejoin:miter;stroke-width:0.8;"/>
   </g>
   <g id="patch_4">
    <path d="M 414.72 307.584 
L 414.72 41.472 
" style="fill:none;stroke:#000000;stroke-linecap:square;stroke-linejoin:miter;stroke-width:0.8;"/>
   </g>
   <g id="patch_5">
    <path d="M 57.6 307.584 
L 414.72 307.584 
" style="fill:none;stroke:#000000;stroke-linecap:square;stroke-linejoin:miter;stroke-width:0.8;"/>
   </g>
   <g id="patch_6">
    <path d="M 57.6 41.472 
L 414.72 41.472 
" style="fill:none;stroke:#000000;stroke-linecap:square;stroke-linejoin:miter;stroke-width:0.8;"/>
   </g>
  </g>
 </g>
 <defs>
  <clipPath id="p5b3bd3a0fc">
   <rect height="266.112" width="357.12" x="57.6" y="41.472"/>
  </clipPath>
 </defs>
</svg>
