<?xml version="1.0" encoding="utf-8" standalone="no"?>
<!DOCTYPE svg PUBLIC "-//W3C//DTD SVG 1.1//EN"
  "http://www.w3.org/Graphics/SVG/1.1/DTD/svg11.dtd">
<!-- Created with matplotlib (https://matplotlib.org/) -->
<svg height="345.6pt" version="1.1" viewBox="0 0 460.8 345.6" width="460.8pt" xmlns="http://www.w3.org/2000/svg" xmlns:xlink="http://www.w3.org/1999/xlink">
 <defs>
  <style type="text/css">
*{stroke-linecap:butt;stroke-linejoin:round;}
  </style>
 </defs>
 <g id="figure_1">
  <g id="patch_1">
   <path d="M 0 345.6 
L 460.8 345.6 
L 460.8 0 
L 0 0 
z
" style="fill:#ffffff;"/>
  </g>
  <g id="axes_1">
   <g id="patch_2">
    <path d="M 57.6 307.584 
L 414.72 307.584 
L 414.72 41.472 
L 57.6 41.472 
z
" style="fill:#ffffff;"/>
   </g>
   <g id="line2d_1">
    <path clip-path="url(#pc965a2c432)" d="M 73.832727 266.204907 
L 74.876633 266.204907 
L 75.920538 259.173811 
L 78.008348 259.173811 
L 79.052254 290.907921 
L 80.096159 257.959136 
L 81.140064 257.959136 
L 82.18397 265.811012 
L 84.27178 265.811012 
L 85.315685 295.488 
L 88.447401 295.488 
L 89.491307 262.551316 
L 90.535212 262.551316 
L 91.579117 230.680338 
L 93.666928 230.680338 
L 94.710833 195.174159 
L 96.798644 195.174159 
L 97.842549 195.554599 
L 98.886454 195.554599 
L 99.93036 193.898783 
L 100.974265 193.898783 
L 102.01817 195.280583 
L 103.062075 195.280583 
L 104.105981 206.163119 
L 105.149886 206.163119 
L 106.193791 204.81066 
L 108.281602 204.81066 
L 109.325507 193.843059 
L 110.369412 193.843059 
L 112.457223 215.670018 
L 113.501128 215.670018 
L 114.545034 205.135004 
L 115.588939 205.135004 
L 116.632844 193.506419 
L 117.676749 193.506419 
L 118.720655 203.748611 
L 119.76456 203.748611 
L 120.808465 193.577083 
L 122.896276 193.577083 
L 123.940181 196.107152 
L 126.027992 196.107152 
L 127.071897 186.281278 
L 128.115802 197.619711 
L 130.203613 197.619711 
L 131.247518 199.452559 
L 132.291424 209.515208 
L 134.379234 209.515208 
L 135.423139 220.585577 
L 136.467045 209.793781 
L 138.554855 209.793781 
L 139.598761 199.421057 
L 140.642666 199.421057 
L 141.686571 210.140487 
L 142.730476 199.822903 
L 143.774382 199.822903 
L 144.818287 189.683946 
L 146.906098 189.683946 
L 147.950003 179.398819 
L 150.037814 179.398819 
L 151.081719 169.934499 
L 152.125624 169.934499 
L 153.169529 159.376572 
L 154.213435 159.376572 
L 155.25734 169.848446 
L 156.301245 169.848446 
L 157.345151 173.747189 
L 158.389056 174.606726 
L 161.520772 174.606726 
L 162.564677 164.649353 
L 163.608582 164.649353 
L 164.652488 154.697184 
L 165.696393 154.697184 
L 166.740298 165.352985 
L 167.784203 165.352985 
L 168.828109 154.670752 
L 170.915919 154.670752 
L 171.959825 143.061286 
L 173.00373 143.061286 
L 174.047635 134.398055 
L 175.09154 124.738698 
L 176.135446 124.738698 
L 177.179351 114.528025 
L 178.223256 114.528025 
L 179.267162 105.620766 
L 181.354972 105.620766 
L 182.398878 95.25316 
L 183.442783 107.347521 
L 185.530593 107.347521 
L 186.574499 117.220735 
L 187.618404 117.220735 
L 188.662309 129.600218 
L 189.706215 127.994102 
L 200.145267 127.994102 
L 201.189173 126.999643 
L 203.276983 126.999643 
L 204.320889 124.782141 
L 205.364794 124.782141 
L 206.408699 114.051871 
L 207.452605 114.051871 
L 208.49651 104.85094 
L 209.540415 104.85094 
L 210.58432 95.615199 
L 212.672131 95.615199 
L 213.716036 106.967544 
L 214.759942 106.967544 
L 215.803847 97.864842 
L 216.847752 97.864842 
L 217.891657 99.963162 
L 219.979468 99.963162 
L 221.023373 89.76381 
L 222.067279 89.76381 
L 223.111184 101.080758 
L 224.155089 92.988798 
L 225.198994 92.988798 
L 226.2429 103.581783 
L 228.33071 103.581783 
L 229.374616 93.650391 
L 230.418521 93.650391 
L 231.462426 84.593423 
L 234.594142 84.593423 
L 235.638047 74.533013 
L 236.681953 74.533013 
L 237.725858 73.228389 
L 238.769763 73.228389 
L 240.857574 53.568 
L 241.901479 53.568 
L 242.945384 66.21434 
L 243.98929 66.21434 
L 245.033195 77.480369 
L 246.0771 77.480369 
L 247.121006 88.894292 
L 249.208816 88.894292 
L 250.252721 102.202382 
L 251.296627 106.144818 
L 253.384437 106.144818 
L 254.428343 119.41961 
L 256.516153 119.41961 
L 257.560058 131.295173 
L 258.603964 131.295173 
L 259.647869 129.731138 
L 260.691774 139.951465 
L 261.73568 139.951465 
L 262.779585 152.12037 
L 263.82349 152.12037 
L 264.867395 142.896139 
L 265.911301 142.896139 
L 266.955206 132.564814 
L 398.487273 132.564814 
L 398.487273 132.564814 
" style="fill:none;stroke:#ff0000;stroke-linecap:square;stroke-width:12;"/>
    <defs>
     <path d="M 0 3 
C 0.795609 3 1.55874 2.683901 2.12132 2.12132 
C 2.683901 1.55874 3 0.795609 3 0 
C 3 -0.795609 2.683901 -1.55874 2.12132 -2.12132 
C 1.55874 -2.683901 0.795609 -3 0 -3 
C -0.795609 -3 -1.55874 -2.683901 -2.12132 -2.12132 
C -2.683901 -1.55874 -3 -0.795609 -3 0 
C -3 0.795609 -2.683901 1.55874 -2.12132 2.12132 
C -1.55874 2.683901 -0.795609 3 0 3 
z
" id="mec0646b87e" style="stroke:#ff0000;"/>
    </defs>
    <g clip-path="url(#pc965a2c432)">
     <use style="fill:#ff0000;stroke:#ff0000;" x="73.832727" xlink:href="#mec0646b87e" y="266.204907"/>
     <use style="fill:#ff0000;stroke:#ff0000;" x="74.876633" xlink:href="#mec0646b87e" y="266.204907"/>
     <use style="fill:#ff0000;stroke:#ff0000;" x="75.920538" xlink:href="#mec0646b87e" y="259.173811"/>
     <use style="fill:#ff0000;stroke:#ff0000;" x="76.964443" xlink:href="#mec0646b87e" y="259.173811"/>
     <use style="fill:#ff0000;stroke:#ff0000;" x="78.008348" xlink:href="#mec0646b87e" y="259.173811"/>
     <use style="fill:#ff0000;stroke:#ff0000;" x="79.052254" xlink:href="#mec0646b87e" y="290.907921"/>
     <use style="fill:#ff0000;stroke:#ff0000;" x="80.096159" xlink:href="#mec0646b87e" y="257.959136"/>
     <use style="fill:#ff0000;stroke:#ff0000;" x="81.140064" xlink:href="#mec0646b87e" y="257.959136"/>
     <use style="fill:#ff0000;stroke:#ff0000;" x="82.18397" xlink:href="#mec0646b87e" y="265.811012"/>
     <use style="fill:#ff0000;stroke:#ff0000;" x="83.227875" xlink:href="#mec0646b87e" y="265.811012"/>
     <use style="fill:#ff0000;stroke:#ff0000;" x="84.27178" xlink:href="#mec0646b87e" y="265.811012"/>
     <use style="fill:#ff0000;stroke:#ff0000;" x="85.315685" xlink:href="#mec0646b87e" y="295.488"/>
     <use style="fill:#ff0000;stroke:#ff0000;" x="86.359591" xlink:href="#mec0646b87e" y="295.488"/>
     <use style="fill:#ff0000;stroke:#ff0000;" x="87.403496" xlink:href="#mec0646b87e" y="295.488"/>
     <use style="fill:#ff0000;stroke:#ff0000;" x="88.447401" xlink:href="#mec0646b87e" y="295.488"/>
     <use style="fill:#ff0000;stroke:#ff0000;" x="89.491307" xlink:href="#mec0646b87e" y="262.551316"/>
     <use style="fill:#ff0000;stroke:#ff0000;" x="90.535212" xlink:href="#mec0646b87e" y="262.551316"/>
     <use style="fill:#ff0000;stroke:#ff0000;" x="91.579117" xlink:href="#mec0646b87e" y="230.680338"/>
     <use style="fill:#ff0000;stroke:#ff0000;" x="92.623023" xlink:href="#mec0646b87e" y="230.680338"/>
     <use style="fill:#ff0000;stroke:#ff0000;" x="93.666928" xlink:href="#mec0646b87e" y="230.680338"/>
     <use style="fill:#ff0000;stroke:#ff0000;" x="94.710833" xlink:href="#mec0646b87e" y="195.174159"/>
     <use style="fill:#ff0000;stroke:#ff0000;" x="95.754738" xlink:href="#mec0646b87e" y="195.174159"/>
     <use style="fill:#ff0000;stroke:#ff0000;" x="96.798644" xlink:href="#mec0646b87e" y="195.174159"/>
     <use style="fill:#ff0000;stroke:#ff0000;" x="97.842549" xlink:href="#mec0646b87e" y="195.554599"/>
     <use style="fill:#ff0000;stroke:#ff0000;" x="98.886454" xlink:href="#mec0646b87e" y="195.554599"/>
     <use style="fill:#ff0000;stroke:#ff0000;" x="99.93036" xlink:href="#mec0646b87e" y="193.898783"/>
     <use style="fill:#ff0000;stroke:#ff0000;" x="100.974265" xlink:href="#mec0646b87e" y="193.898783"/>
     <use style="fill:#ff0000;stroke:#ff0000;" x="102.01817" xlink:href="#mec0646b87e" y="195.280583"/>
     <use style="fill:#ff0000;stroke:#ff0000;" x="103.062075" xlink:href="#mec0646b87e" y="195.280583"/>
     <use style="fill:#ff0000;stroke:#ff0000;" x="104.105981" xlink:href="#mec0646b87e" y="206.163119"/>
     <use style="fill:#ff0000;stroke:#ff0000;" x="105.149886" xlink:href="#mec0646b87e" y="206.163119"/>
     <use style="fill:#ff0000;stroke:#ff0000;" x="106.193791" xlink:href="#mec0646b87e" y="204.81066"/>
     <use style="fill:#ff0000;stroke:#ff0000;" x="107.237697" xlink:href="#mec0646b87e" y="204.81066"/>
     <use style="fill:#ff0000;stroke:#ff0000;" x="108.281602" xlink:href="#mec0646b87e" y="204.81066"/>
     <use style="fill:#ff0000;stroke:#ff0000;" x="109.325507" xlink:href="#mec0646b87e" y="193.843059"/>
     <use style="fill:#ff0000;stroke:#ff0000;" x="110.369412" xlink:href="#mec0646b87e" y="193.843059"/>
     <use style="fill:#ff0000;stroke:#ff0000;" x="111.413318" xlink:href="#mec0646b87e" y="204.687576"/>
     <use style="fill:#ff0000;stroke:#ff0000;" x="112.457223" xlink:href="#mec0646b87e" y="215.670018"/>
     <use style="fill:#ff0000;stroke:#ff0000;" x="113.501128" xlink:href="#mec0646b87e" y="215.670018"/>
     <use style="fill:#ff0000;stroke:#ff0000;" x="114.545034" xlink:href="#mec0646b87e" y="205.135004"/>
     <use style="fill:#ff0000;stroke:#ff0000;" x="115.588939" xlink:href="#mec0646b87e" y="205.135004"/>
     <use style="fill:#ff0000;stroke:#ff0000;" x="116.632844" xlink:href="#mec0646b87e" y="193.506419"/>
     <use style="fill:#ff0000;stroke:#ff0000;" x="117.676749" xlink:href="#mec0646b87e" y="193.506419"/>
     <use style="fill:#ff0000;stroke:#ff0000;" x="118.720655" xlink:href="#mec0646b87e" y="203.748611"/>
     <use style="fill:#ff0000;stroke:#ff0000;" x="119.76456" xlink:href="#mec0646b87e" y="203.748611"/>
     <use style="fill:#ff0000;stroke:#ff0000;" x="120.808465" xlink:href="#mec0646b87e" y="193.577083"/>
     <use style="fill:#ff0000;stroke:#ff0000;" x="121.852371" xlink:href="#mec0646b87e" y="193.577083"/>
     <use style="fill:#ff0000;stroke:#ff0000;" x="122.896276" xlink:href="#mec0646b87e" y="193.577083"/>
     <use style="fill:#ff0000;stroke:#ff0000;" x="123.940181" xlink:href="#mec0646b87e" y="196.107152"/>
     <use style="fill:#ff0000;stroke:#ff0000;" x="124.984087" xlink:href="#mec0646b87e" y="196.107152"/>
     <use style="fill:#ff0000;stroke:#ff0000;" x="126.027992" xlink:href="#mec0646b87e" y="196.107152"/>
     <use style="fill:#ff0000;stroke:#ff0000;" x="127.071897" xlink:href="#mec0646b87e" y="186.281278"/>
     <use style="fill:#ff0000;stroke:#ff0000;" x="128.115802" xlink:href="#mec0646b87e" y="197.619711"/>
     <use style="fill:#ff0000;stroke:#ff0000;" x="129.159708" xlink:href="#mec0646b87e" y="197.619711"/>
     <use style="fill:#ff0000;stroke:#ff0000;" x="130.203613" xlink:href="#mec0646b87e" y="197.619711"/>
     <use style="fill:#ff0000;stroke:#ff0000;" x="131.247518" xlink:href="#mec0646b87e" y="199.452559"/>
     <use style="fill:#ff0000;stroke:#ff0000;" x="132.291424" xlink:href="#mec0646b87e" y="209.515208"/>
     <use style="fill:#ff0000;stroke:#ff0000;" x="133.335329" xlink:href="#mec0646b87e" y="209.515208"/>
     <use style="fill:#ff0000;stroke:#ff0000;" x="134.379234" xlink:href="#mec0646b87e" y="209.515208"/>
     <use style="fill:#ff0000;stroke:#ff0000;" x="135.423139" xlink:href="#mec0646b87e" y="220.585577"/>
     <use style="fill:#ff0000;stroke:#ff0000;" x="136.467045" xlink:href="#mec0646b87e" y="209.793781"/>
     <use style="fill:#ff0000;stroke:#ff0000;" x="137.51095" xlink:href="#mec0646b87e" y="209.793781"/>
     <use style="fill:#ff0000;stroke:#ff0000;" x="138.554855" xlink:href="#mec0646b87e" y="209.793781"/>
     <use style="fill:#ff0000;stroke:#ff0000;" x="139.598761" xlink:href="#mec0646b87e" y="199.421057"/>
     <use style="fill:#ff0000;stroke:#ff0000;" x="140.642666" xlink:href="#mec0646b87e" y="199.421057"/>
     <use style="fill:#ff0000;stroke:#ff0000;" x="141.686571" xlink:href="#mec0646b87e" y="210.140487"/>
     <use style="fill:#ff0000;stroke:#ff0000;" x="142.730476" xlink:href="#mec0646b87e" y="199.822903"/>
     <use style="fill:#ff0000;stroke:#ff0000;" x="143.774382" xlink:href="#mec0646b87e" y="199.822903"/>
     <use style="fill:#ff0000;stroke:#ff0000;" x="144.818287" xlink:href="#mec0646b87e" y="189.683946"/>
     <use style="fill:#ff0000;stroke:#ff0000;" x="145.862192" xlink:href="#mec0646b87e" y="189.683946"/>
     <use style="fill:#ff0000;stroke:#ff0000;" x="146.906098" xlink:href="#mec0646b87e" y="189.683946"/>
     <use style="fill:#ff0000;stroke:#ff0000;" x="147.950003" xlink:href="#mec0646b87e" y="179.398819"/>
     <use style="fill:#ff0000;stroke:#ff0000;" x="148.993908" xlink:href="#mec0646b87e" y="179.398819"/>
     <use style="fill:#ff0000;stroke:#ff0000;" x="150.037814" xlink:href="#mec0646b87e" y="179.398819"/>
     <use style="fill:#ff0000;stroke:#ff0000;" x="151.081719" xlink:href="#mec0646b87e" y="169.934499"/>
     <use style="fill:#ff0000;stroke:#ff0000;" x="152.125624" xlink:href="#mec0646b87e" y="169.934499"/>
     <use style="fill:#ff0000;stroke:#ff0000;" x="153.169529" xlink:href="#mec0646b87e" y="159.376572"/>
     <use style="fill:#ff0000;stroke:#ff0000;" x="154.213435" xlink:href="#mec0646b87e" y="159.376572"/>
     <use style="fill:#ff0000;stroke:#ff0000;" x="155.25734" xlink:href="#mec0646b87e" y="169.848446"/>
     <use style="fill:#ff0000;stroke:#ff0000;" x="156.301245" xlink:href="#mec0646b87e" y="169.848446"/>
     <use style="fill:#ff0000;stroke:#ff0000;" x="157.345151" xlink:href="#mec0646b87e" y="173.747189"/>
     <use style="fill:#ff0000;stroke:#ff0000;" x="158.389056" xlink:href="#mec0646b87e" y="174.606726"/>
     <use style="fill:#ff0000;stroke:#ff0000;" x="159.432961" xlink:href="#mec0646b87e" y="174.606726"/>
     <use style="fill:#ff0000;stroke:#ff0000;" x="160.476866" xlink:href="#mec0646b87e" y="174.606726"/>
     <use style="fill:#ff0000;stroke:#ff0000;" x="161.520772" xlink:href="#mec0646b87e" y="174.606726"/>
     <use style="fill:#ff0000;stroke:#ff0000;" x="162.564677" xlink:href="#mec0646b87e" y="164.649353"/>
     <use style="fill:#ff0000;stroke:#ff0000;" x="163.608582" xlink:href="#mec0646b87e" y="164.649353"/>
     <use style="fill:#ff0000;stroke:#ff0000;" x="164.652488" xlink:href="#mec0646b87e" y="154.697184"/>
     <use style="fill:#ff0000;stroke:#ff0000;" x="165.696393" xlink:href="#mec0646b87e" y="154.697184"/>
     <use style="fill:#ff0000;stroke:#ff0000;" x="166.740298" xlink:href="#mec0646b87e" y="165.352985"/>
     <use style="fill:#ff0000;stroke:#ff0000;" x="167.784203" xlink:href="#mec0646b87e" y="165.352985"/>
     <use style="fill:#ff0000;stroke:#ff0000;" x="168.828109" xlink:href="#mec0646b87e" y="154.670752"/>
     <use style="fill:#ff0000;stroke:#ff0000;" x="169.872014" xlink:href="#mec0646b87e" y="154.670752"/>
     <use style="fill:#ff0000;stroke:#ff0000;" x="170.915919" xlink:href="#mec0646b87e" y="154.670752"/>
     <use style="fill:#ff0000;stroke:#ff0000;" x="171.959825" xlink:href="#mec0646b87e" y="143.061286"/>
     <use style="fill:#ff0000;stroke:#ff0000;" x="173.00373" xlink:href="#mec0646b87e" y="143.061286"/>
     <use style="fill:#ff0000;stroke:#ff0000;" x="174.047635" xlink:href="#mec0646b87e" y="134.398055"/>
     <use style="fill:#ff0000;stroke:#ff0000;" x="175.09154" xlink:href="#mec0646b87e" y="124.738698"/>
     <use style="fill:#ff0000;stroke:#ff0000;" x="176.135446" xlink:href="#mec0646b87e" y="124.738698"/>
     <use style="fill:#ff0000;stroke:#ff0000;" x="177.179351" xlink:href="#mec0646b87e" y="114.528025"/>
     <use style="fill:#ff0000;stroke:#ff0000;" x="178.223256" xlink:href="#mec0646b87e" y="114.528025"/>
     <use style="fill:#ff0000;stroke:#ff0000;" x="179.267162" xlink:href="#mec0646b87e" y="105.620766"/>
     <use style="fill:#ff0000;stroke:#ff0000;" x="180.311067" xlink:href="#mec0646b87e" y="105.620766"/>
     <use style="fill:#ff0000;stroke:#ff0000;" x="181.354972" xlink:href="#mec0646b87e" y="105.620766"/>
     <use style="fill:#ff0000;stroke:#ff0000;" x="182.398878" xlink:href="#mec0646b87e" y="95.25316"/>
     <use style="fill:#ff0000;stroke:#ff0000;" x="183.442783" xlink:href="#mec0646b87e" y="107.347521"/>
     <use style="fill:#ff0000;stroke:#ff0000;" x="184.486688" xlink:href="#mec0646b87e" y="107.347521"/>
     <use style="fill:#ff0000;stroke:#ff0000;" x="185.530593" xlink:href="#mec0646b87e" y="107.347521"/>
     <use style="fill:#ff0000;stroke:#ff0000;" x="186.574499" xlink:href="#mec0646b87e" y="117.220735"/>
     <use style="fill:#ff0000;stroke:#ff0000;" x="187.618404" xlink:href="#mec0646b87e" y="117.220735"/>
     <use style="fill:#ff0000;stroke:#ff0000;" x="188.662309" xlink:href="#mec0646b87e" y="129.600218"/>
     <use style="fill:#ff0000;stroke:#ff0000;" x="189.706215" xlink:href="#mec0646b87e" y="127.994102"/>
     <use style="fill:#ff0000;stroke:#ff0000;" x="190.75012" xlink:href="#mec0646b87e" y="127.994102"/>
     <use style="fill:#ff0000;stroke:#ff0000;" x="191.794025" xlink:href="#mec0646b87e" y="127.994102"/>
     <use style="fill:#ff0000;stroke:#ff0000;" x="192.83793" xlink:href="#mec0646b87e" y="127.994102"/>
     <use style="fill:#ff0000;stroke:#ff0000;" x="193.881836" xlink:href="#mec0646b87e" y="127.994102"/>
     <use style="fill:#ff0000;stroke:#ff0000;" x="194.925741" xlink:href="#mec0646b87e" y="127.994102"/>
     <use style="fill:#ff0000;stroke:#ff0000;" x="195.969646" xlink:href="#mec0646b87e" y="127.994102"/>
     <use style="fill:#ff0000;stroke:#ff0000;" x="197.013552" xlink:href="#mec0646b87e" y="127.994102"/>
     <use style="fill:#ff0000;stroke:#ff0000;" x="198.057457" xlink:href="#mec0646b87e" y="127.994102"/>
     <use style="fill:#ff0000;stroke:#ff0000;" x="199.101362" xlink:href="#mec0646b87e" y="127.994102"/>
     <use style="fill:#ff0000;stroke:#ff0000;" x="200.145267" xlink:href="#mec0646b87e" y="127.994102"/>
     <use style="fill:#ff0000;stroke:#ff0000;" x="201.189173" xlink:href="#mec0646b87e" y="126.999643"/>
     <use style="fill:#ff0000;stroke:#ff0000;" x="202.233078" xlink:href="#mec0646b87e" y="126.999643"/>
     <use style="fill:#ff0000;stroke:#ff0000;" x="203.276983" xlink:href="#mec0646b87e" y="126.999643"/>
     <use style="fill:#ff0000;stroke:#ff0000;" x="204.320889" xlink:href="#mec0646b87e" y="124.782141"/>
     <use style="fill:#ff0000;stroke:#ff0000;" x="205.364794" xlink:href="#mec0646b87e" y="124.782141"/>
     <use style="fill:#ff0000;stroke:#ff0000;" x="206.408699" xlink:href="#mec0646b87e" y="114.051871"/>
     <use style="fill:#ff0000;stroke:#ff0000;" x="207.452605" xlink:href="#mec0646b87e" y="114.051871"/>
     <use style="fill:#ff0000;stroke:#ff0000;" x="208.49651" xlink:href="#mec0646b87e" y="104.85094"/>
     <use style="fill:#ff0000;stroke:#ff0000;" x="209.540415" xlink:href="#mec0646b87e" y="104.85094"/>
     <use style="fill:#ff0000;stroke:#ff0000;" x="210.58432" xlink:href="#mec0646b87e" y="95.615199"/>
     <use style="fill:#ff0000;stroke:#ff0000;" x="211.628226" xlink:href="#mec0646b87e" y="95.615199"/>
     <use style="fill:#ff0000;stroke:#ff0000;" x="212.672131" xlink:href="#mec0646b87e" y="95.615199"/>
     <use style="fill:#ff0000;stroke:#ff0000;" x="213.716036" xlink:href="#mec0646b87e" y="106.967544"/>
     <use style="fill:#ff0000;stroke:#ff0000;" x="214.759942" xlink:href="#mec0646b87e" y="106.967544"/>
     <use style="fill:#ff0000;stroke:#ff0000;" x="215.803847" xlink:href="#mec0646b87e" y="97.864842"/>
     <use style="fill:#ff0000;stroke:#ff0000;" x="216.847752" xlink:href="#mec0646b87e" y="97.864842"/>
     <use style="fill:#ff0000;stroke:#ff0000;" x="217.891657" xlink:href="#mec0646b87e" y="99.963162"/>
     <use style="fill:#ff0000;stroke:#ff0000;" x="218.935563" xlink:href="#mec0646b87e" y="99.963162"/>
     <use style="fill:#ff0000;stroke:#ff0000;" x="219.979468" xlink:href="#mec0646b87e" y="99.963162"/>
     <use style="fill:#ff0000;stroke:#ff0000;" x="221.023373" xlink:href="#mec0646b87e" y="89.76381"/>
     <use style="fill:#ff0000;stroke:#ff0000;" x="222.067279" xlink:href="#mec0646b87e" y="89.76381"/>
     <use style="fill:#ff0000;stroke:#ff0000;" x="223.111184" xlink:href="#mec0646b87e" y="101.080758"/>
     <use style="fill:#ff0000;stroke:#ff0000;" x="224.155089" xlink:href="#mec0646b87e" y="92.988798"/>
     <use style="fill:#ff0000;stroke:#ff0000;" x="225.198994" xlink:href="#mec0646b87e" y="92.988798"/>
     <use style="fill:#ff0000;stroke:#ff0000;" x="226.2429" xlink:href="#mec0646b87e" y="103.581783"/>
     <use style="fill:#ff0000;stroke:#ff0000;" x="227.286805" xlink:href="#mec0646b87e" y="103.581783"/>
     <use style="fill:#ff0000;stroke:#ff0000;" x="228.33071" xlink:href="#mec0646b87e" y="103.581783"/>
     <use style="fill:#ff0000;stroke:#ff0000;" x="229.374616" xlink:href="#mec0646b87e" y="93.650391"/>
     <use style="fill:#ff0000;stroke:#ff0000;" x="230.418521" xlink:href="#mec0646b87e" y="93.650391"/>
     <use style="fill:#ff0000;stroke:#ff0000;" x="231.462426" xlink:href="#mec0646b87e" y="84.593423"/>
     <use style="fill:#ff0000;stroke:#ff0000;" x="232.506331" xlink:href="#mec0646b87e" y="84.593423"/>
     <use style="fill:#ff0000;stroke:#ff0000;" x="233.550237" xlink:href="#mec0646b87e" y="84.593423"/>
     <use style="fill:#ff0000;stroke:#ff0000;" x="234.594142" xlink:href="#mec0646b87e" y="84.593423"/>
     <use style="fill:#ff0000;stroke:#ff0000;" x="235.638047" xlink:href="#mec0646b87e" y="74.533013"/>
     <use style="fill:#ff0000;stroke:#ff0000;" x="236.681953" xlink:href="#mec0646b87e" y="74.533013"/>
     <use style="fill:#ff0000;stroke:#ff0000;" x="237.725858" xlink:href="#mec0646b87e" y="73.228389"/>
     <use style="fill:#ff0000;stroke:#ff0000;" x="238.769763" xlink:href="#mec0646b87e" y="73.228389"/>
     <use style="fill:#ff0000;stroke:#ff0000;" x="239.813669" xlink:href="#mec0646b87e" y="63.542541"/>
     <use style="fill:#ff0000;stroke:#ff0000;" x="240.857574" xlink:href="#mec0646b87e" y="53.568"/>
     <use style="fill:#ff0000;stroke:#ff0000;" x="241.901479" xlink:href="#mec0646b87e" y="53.568"/>
     <use style="fill:#ff0000;stroke:#ff0000;" x="242.945384" xlink:href="#mec0646b87e" y="66.21434"/>
     <use style="fill:#ff0000;stroke:#ff0000;" x="243.98929" xlink:href="#mec0646b87e" y="66.21434"/>
     <use style="fill:#ff0000;stroke:#ff0000;" x="245.033195" xlink:href="#mec0646b87e" y="77.480369"/>
     <use style="fill:#ff0000;stroke:#ff0000;" x="246.0771" xlink:href="#mec0646b87e" y="77.480369"/>
     <use style="fill:#ff0000;stroke:#ff0000;" x="247.121006" xlink:href="#mec0646b87e" y="88.894292"/>
     <use style="fill:#ff0000;stroke:#ff0000;" x="248.164911" xlink:href="#mec0646b87e" y="88.894292"/>
     <use style="fill:#ff0000;stroke:#ff0000;" x="249.208816" xlink:href="#mec0646b87e" y="88.894292"/>
     <use style="fill:#ff0000;stroke:#ff0000;" x="250.252721" xlink:href="#mec0646b87e" y="102.202382"/>
     <use style="fill:#ff0000;stroke:#ff0000;" x="251.296627" xlink:href="#mec0646b87e" y="106.144818"/>
     <use style="fill:#ff0000;stroke:#ff0000;" x="252.340532" xlink:href="#mec0646b87e" y="106.144818"/>
     <use style="fill:#ff0000;stroke:#ff0000;" x="253.384437" xlink:href="#mec0646b87e" y="106.144818"/>
     <use style="fill:#ff0000;stroke:#ff0000;" x="254.428343" xlink:href="#mec0646b87e" y="119.41961"/>
     <use style="fill:#ff0000;stroke:#ff0000;" x="255.472248" xlink:href="#mec0646b87e" y="119.41961"/>
     <use style="fill:#ff0000;stroke:#ff0000;" x="256.516153" xlink:href="#mec0646b87e" y="119.41961"/>
     <use style="fill:#ff0000;stroke:#ff0000;" x="257.560058" xlink:href="#mec0646b87e" y="131.295173"/>
     <use style="fill:#ff0000;stroke:#ff0000;" x="258.603964" xlink:href="#mec0646b87e" y="131.295173"/>
     <use style="fill:#ff0000;stroke:#ff0000;" x="259.647869" xlink:href="#mec0646b87e" y="129.731138"/>
     <use style="fill:#ff0000;stroke:#ff0000;" x="260.691774" xlink:href="#mec0646b87e" y="139.951465"/>
     <use style="fill:#ff0000;stroke:#ff0000;" x="261.73568" xlink:href="#mec0646b87e" y="139.951465"/>
     <use style="fill:#ff0000;stroke:#ff0000;" x="262.779585" xlink:href="#mec0646b87e" y="152.12037"/>
     <use style="fill:#ff0000;stroke:#ff0000;" x="263.82349" xlink:href="#mec0646b87e" y="152.12037"/>
     <use style="fill:#ff0000;stroke:#ff0000;" x="264.867395" xlink:href="#mec0646b87e" y="142.896139"/>
     <use style="fill:#ff0000;stroke:#ff0000;" x="265.911301" xlink:href="#mec0646b87e" y="142.896139"/>
     <use style="fill:#ff0000;stroke:#ff0000;" x="266.955206" xlink:href="#mec0646b87e" y="132.564814"/>
     <use style="fill:#ff0000;stroke:#ff0000;" x="267.999111" xlink:href="#mec0646b87e" y="132.564814"/>
     <use style="fill:#ff0000;stroke:#ff0000;" x="269.043017" xlink:href="#mec0646b87e" y="132.564814"/>
     <use style="fill:#ff0000;stroke:#ff0000;" x="270.086922" xlink:href="#mec0646b87e" y="132.564814"/>
     <use style="fill:#ff0000;stroke:#ff0000;" x="271.130827" xlink:href="#mec0646b87e" y="132.564814"/>
     <use style="fill:#ff0000;stroke:#ff0000;" x="272.174733" xlink:href="#mec0646b87e" y="132.564814"/>
     <use style="fill:#ff0000;stroke:#ff0000;" x="273.218638" xlink:href="#mec0646b87e" y="132.564814"/>
     <use style="fill:#ff0000;stroke:#ff0000;" x="274.262543" xlink:href="#mec0646b87e" y="132.564814"/>
     <use style="fill:#ff0000;stroke:#ff0000;" x="275.306448" xlink:href="#mec0646b87e" y="132.564814"/>
     <use style="fill:#ff0000;stroke:#ff0000;" x="276.350354" xlink:href="#mec0646b87e" y="132.564814"/>
     <use style="fill:#ff0000;stroke:#ff0000;" x="277.394259" xlink:href="#mec0646b87e" y="132.564814"/>
     <use style="fill:#ff0000;stroke:#ff0000;" x="278.438164" xlink:href="#mec0646b87e" y="132.564814"/>
     <use style="fill:#ff0000;stroke:#ff0000;" x="279.48207" xlink:href="#mec0646b87e" y="132.564814"/>
     <use style="fill:#ff0000;stroke:#ff0000;" x="280.525975" xlink:href="#mec0646b87e" y="132.564814"/>
     <use style="fill:#ff0000;stroke:#ff0000;" x="281.56988" xlink:href="#mec0646b87e" y="132.564814"/>
     <use style="fill:#ff0000;stroke:#ff0000;" x="282.613785" xlink:href="#mec0646b87e" y="132.564814"/>
     <use style="fill:#ff0000;stroke:#ff0000;" x="283.657691" xlink:href="#mec0646b87e" y="132.564814"/>
     <use style="fill:#ff0000;stroke:#ff0000;" x="284.701596" xlink:href="#mec0646b87e" y="132.564814"/>
     <use style="fill:#ff0000;stroke:#ff0000;" x="285.745501" xlink:href="#mec0646b87e" y="132.564814"/>
     <use style="fill:#ff0000;stroke:#ff0000;" x="286.789407" xlink:href="#mec0646b87e" y="132.564814"/>
     <use style="fill:#ff0000;stroke:#ff0000;" x="287.833312" xlink:href="#mec0646b87e" y="132.564814"/>
     <use style="fill:#ff0000;stroke:#ff0000;" x="288.877217" xlink:href="#mec0646b87e" y="132.564814"/>
     <use style="fill:#ff0000;stroke:#ff0000;" x="289.921122" xlink:href="#mec0646b87e" y="132.564814"/>
     <use style="fill:#ff0000;stroke:#ff0000;" x="290.965028" xlink:href="#mec0646b87e" y="132.564814"/>
     <use style="fill:#ff0000;stroke:#ff0000;" x="292.008933" xlink:href="#mec0646b87e" y="132.564814"/>
     <use style="fill:#ff0000;stroke:#ff0000;" x="293.052838" xlink:href="#mec0646b87e" y="132.564814"/>
     <use style="fill:#ff0000;stroke:#ff0000;" x="294.096744" xlink:href="#mec0646b87e" y="132.564814"/>
     <use style="fill:#ff0000;stroke:#ff0000;" x="295.140649" xlink:href="#mec0646b87e" y="132.564814"/>
     <use style="fill:#ff0000;stroke:#ff0000;" x="296.184554" xlink:href="#mec0646b87e" y="132.564814"/>
     <use style="fill:#ff0000;stroke:#ff0000;" x="297.22846" xlink:href="#mec0646b87e" y="132.564814"/>
     <use style="fill:#ff0000;stroke:#ff0000;" x="298.272365" xlink:href="#mec0646b87e" y="132.564814"/>
     <use style="fill:#ff0000;stroke:#ff0000;" x="299.31627" xlink:href="#mec0646b87e" y="132.564814"/>
     <use style="fill:#ff0000;stroke:#ff0000;" x="300.360175" xlink:href="#mec0646b87e" y="132.564814"/>
     <use style="fill:#ff0000;stroke:#ff0000;" x="301.404081" xlink:href="#mec0646b87e" y="132.564814"/>
     <use style="fill:#ff0000;stroke:#ff0000;" x="302.447986" xlink:href="#mec0646b87e" y="132.564814"/>
     <use style="fill:#ff0000;stroke:#ff0000;" x="303.491891" xlink:href="#mec0646b87e" y="132.564814"/>
     <use style="fill:#ff0000;stroke:#ff0000;" x="304.535797" xlink:href="#mec0646b87e" y="132.564814"/>
     <use style="fill:#ff0000;stroke:#ff0000;" x="305.579702" xlink:href="#mec0646b87e" y="132.564814"/>
     <use style="fill:#ff0000;stroke:#ff0000;" x="306.623607" xlink:href="#mec0646b87e" y="132.564814"/>
     <use style="fill:#ff0000;stroke:#ff0000;" x="307.667512" xlink:href="#mec0646b87e" y="132.564814"/>
     <use style="fill:#ff0000;stroke:#ff0000;" x="308.711418" xlink:href="#mec0646b87e" y="132.564814"/>
     <use style="fill:#ff0000;stroke:#ff0000;" x="309.755323" xlink:href="#mec0646b87e" y="132.564814"/>
     <use style="fill:#ff0000;stroke:#ff0000;" x="310.799228" xlink:href="#mec0646b87e" y="132.564814"/>
     <use style="fill:#ff0000;stroke:#ff0000;" x="311.843134" xlink:href="#mec0646b87e" y="132.564814"/>
     <use style="fill:#ff0000;stroke:#ff0000;" x="312.887039" xlink:href="#mec0646b87e" y="132.564814"/>
     <use style="fill:#ff0000;stroke:#ff0000;" x="313.930944" xlink:href="#mec0646b87e" y="132.564814"/>
     <use style="fill:#ff0000;stroke:#ff0000;" x="314.974849" xlink:href="#mec0646b87e" y="132.564814"/>
     <use style="fill:#ff0000;stroke:#ff0000;" x="316.018755" xlink:href="#mec0646b87e" y="132.564814"/>
     <use style="fill:#ff0000;stroke:#ff0000;" x="317.06266" xlink:href="#mec0646b87e" y="132.564814"/>
     <use style="fill:#ff0000;stroke:#ff0000;" x="318.106565" xlink:href="#mec0646b87e" y="132.564814"/>
     <use style="fill:#ff0000;stroke:#ff0000;" x="319.150471" xlink:href="#mec0646b87e" y="132.564814"/>
     <use style="fill:#ff0000;stroke:#ff0000;" x="320.194376" xlink:href="#mec0646b87e" y="132.564814"/>
     <use style="fill:#ff0000;stroke:#ff0000;" x="321.238281" xlink:href="#mec0646b87e" y="132.564814"/>
     <use style="fill:#ff0000;stroke:#ff0000;" x="322.282186" xlink:href="#mec0646b87e" y="132.564814"/>
     <use style="fill:#ff0000;stroke:#ff0000;" x="323.326092" xlink:href="#mec0646b87e" y="132.564814"/>
     <use style="fill:#ff0000;stroke:#ff0000;" x="324.369997" xlink:href="#mec0646b87e" y="132.564814"/>
     <use style="fill:#ff0000;stroke:#ff0000;" x="325.413902" xlink:href="#mec0646b87e" y="132.564814"/>
     <use style="fill:#ff0000;stroke:#ff0000;" x="326.457808" xlink:href="#mec0646b87e" y="132.564814"/>
     <use style="fill:#ff0000;stroke:#ff0000;" x="327.501713" xlink:href="#mec0646b87e" y="132.564814"/>
     <use style="fill:#ff0000;stroke:#ff0000;" x="328.545618" xlink:href="#mec0646b87e" y="132.564814"/>
     <use style="fill:#ff0000;stroke:#ff0000;" x="329.589524" xlink:href="#mec0646b87e" y="132.564814"/>
     <use style="fill:#ff0000;stroke:#ff0000;" x="330.633429" xlink:href="#mec0646b87e" y="132.564814"/>
     <use style="fill:#ff0000;stroke:#ff0000;" x="331.677334" xlink:href="#mec0646b87e" y="132.564814"/>
     <use style="fill:#ff0000;stroke:#ff0000;" x="332.721239" xlink:href="#mec0646b87e" y="132.564814"/>
     <use style="fill:#ff0000;stroke:#ff0000;" x="333.765145" xlink:href="#mec0646b87e" y="132.564814"/>
     <use style="fill:#ff0000;stroke:#ff0000;" x="334.80905" xlink:href="#mec0646b87e" y="132.564814"/>
     <use style="fill:#ff0000;stroke:#ff0000;" x="335.852955" xlink:href="#mec0646b87e" y="132.564814"/>
     <use style="fill:#ff0000;stroke:#ff0000;" x="336.896861" xlink:href="#mec0646b87e" y="132.564814"/>
     <use style="fill:#ff0000;stroke:#ff0000;" x="337.940766" xlink:href="#mec0646b87e" y="132.564814"/>
     <use style="fill:#ff0000;stroke:#ff0000;" x="338.984671" xlink:href="#mec0646b87e" y="132.564814"/>
     <use style="fill:#ff0000;stroke:#ff0000;" x="340.028576" xlink:href="#mec0646b87e" y="132.564814"/>
     <use style="fill:#ff0000;stroke:#ff0000;" x="341.072482" xlink:href="#mec0646b87e" y="132.564814"/>
     <use style="fill:#ff0000;stroke:#ff0000;" x="342.116387" xlink:href="#mec0646b87e" y="132.564814"/>
     <use style="fill:#ff0000;stroke:#ff0000;" x="343.160292" xlink:href="#mec0646b87e" y="132.564814"/>
     <use style="fill:#ff0000;stroke:#ff0000;" x="344.204198" xlink:href="#mec0646b87e" y="132.564814"/>
     <use style="fill:#ff0000;stroke:#ff0000;" x="345.248103" xlink:href="#mec0646b87e" y="132.564814"/>
     <use style="fill:#ff0000;stroke:#ff0000;" x="346.292008" xlink:href="#mec0646b87e" y="132.564814"/>
     <use style="fill:#ff0000;stroke:#ff0000;" x="347.335913" xlink:href="#mec0646b87e" y="132.564814"/>
     <use style="fill:#ff0000;stroke:#ff0000;" x="348.379819" xlink:href="#mec0646b87e" y="132.564814"/>
     <use style="fill:#ff0000;stroke:#ff0000;" x="349.423724" xlink:href="#mec0646b87e" y="132.564814"/>
     <use style="fill:#ff0000;stroke:#ff0000;" x="350.467629" xlink:href="#mec0646b87e" y="132.564814"/>
     <use style="fill:#ff0000;stroke:#ff0000;" x="351.511535" xlink:href="#mec0646b87e" y="132.564814"/>
     <use style="fill:#ff0000;stroke:#ff0000;" x="352.55544" xlink:href="#mec0646b87e" y="132.564814"/>
     <use style="fill:#ff0000;stroke:#ff0000;" x="353.599345" xlink:href="#mec0646b87e" y="132.564814"/>
     <use style="fill:#ff0000;stroke:#ff0000;" x="354.643251" xlink:href="#mec0646b87e" y="132.564814"/>
     <use style="fill:#ff0000;stroke:#ff0000;" x="355.687156" xlink:href="#mec0646b87e" y="132.564814"/>
     <use style="fill:#ff0000;stroke:#ff0000;" x="356.731061" xlink:href="#mec0646b87e" y="132.564814"/>
     <use style="fill:#ff0000;stroke:#ff0000;" x="357.774966" xlink:href="#mec0646b87e" y="132.564814"/>
     <use style="fill:#ff0000;stroke:#ff0000;" x="358.818872" xlink:href="#mec0646b87e" y="132.564814"/>
     <use style="fill:#ff0000;stroke:#ff0000;" x="359.862777" xlink:href="#mec0646b87e" y="132.564814"/>
     <use style="fill:#ff0000;stroke:#ff0000;" x="360.906682" xlink:href="#mec0646b87e" y="132.564814"/>
     <use style="fill:#ff0000;stroke:#ff0000;" x="361.950588" xlink:href="#mec0646b87e" y="132.564814"/>
     <use style="fill:#ff0000;stroke:#ff0000;" x="362.994493" xlink:href="#mec0646b87e" y="132.564814"/>
     <use style="fill:#ff0000;stroke:#ff0000;" x="364.038398" xlink:href="#mec0646b87e" y="132.564814"/>
     <use style="fill:#ff0000;stroke:#ff0000;" x="365.082303" xlink:href="#mec0646b87e" y="132.564814"/>
     <use style="fill:#ff0000;stroke:#ff0000;" x="366.126209" xlink:href="#mec0646b87e" y="132.564814"/>
     <use style="fill:#ff0000;stroke:#ff0000;" x="367.170114" xlink:href="#mec0646b87e" y="132.564814"/>
     <use style="fill:#ff0000;stroke:#ff0000;" x="368.214019" xlink:href="#mec0646b87e" y="132.564814"/>
     <use style="fill:#ff0000;stroke:#ff0000;" x="369.257925" xlink:href="#mec0646b87e" y="132.564814"/>
     <use style="fill:#ff0000;stroke:#ff0000;" x="370.30183" xlink:href="#mec0646b87e" y="132.564814"/>
     <use style="fill:#ff0000;stroke:#ff0000;" x="371.345735" xlink:href="#mec0646b87e" y="132.564814"/>
     <use style="fill:#ff0000;stroke:#ff0000;" x="372.38964" xlink:href="#mec0646b87e" y="132.564814"/>
     <use style="fill:#ff0000;stroke:#ff0000;" x="373.433546" xlink:href="#mec0646b87e" y="132.564814"/>
     <use style="fill:#ff0000;stroke:#ff0000;" x="374.477451" xlink:href="#mec0646b87e" y="132.564814"/>
     <use style="fill:#ff0000;stroke:#ff0000;" x="375.521356" xlink:href="#mec0646b87e" y="132.564814"/>
     <use style="fill:#ff0000;stroke:#ff0000;" x="376.565262" xlink:href="#mec0646b87e" y="132.564814"/>
     <use style="fill:#ff0000;stroke:#ff0000;" x="377.609167" xlink:href="#mec0646b87e" y="132.564814"/>
     <use style="fill:#ff0000;stroke:#ff0000;" x="378.653072" xlink:href="#mec0646b87e" y="132.564814"/>
     <use style="fill:#ff0000;stroke:#ff0000;" x="379.696977" xlink:href="#mec0646b87e" y="132.564814"/>
     <use style="fill:#ff0000;stroke:#ff0000;" x="380.740883" xlink:href="#mec0646b87e" y="132.564814"/>
     <use style="fill:#ff0000;stroke:#ff0000;" x="381.784788" xlink:href="#mec0646b87e" y="132.564814"/>
     <use style="fill:#ff0000;stroke:#ff0000;" x="382.828693" xlink:href="#mec0646b87e" y="132.564814"/>
     <use style="fill:#ff0000;stroke:#ff0000;" x="383.872599" xlink:href="#mec0646b87e" y="132.564814"/>
     <use style="fill:#ff0000;stroke:#ff0000;" x="384.916504" xlink:href="#mec0646b87e" y="132.564814"/>
     <use style="fill:#ff0000;stroke:#ff0000;" x="385.960409" xlink:href="#mec0646b87e" y="132.564814"/>
     <use style="fill:#ff0000;stroke:#ff0000;" x="387.004315" xlink:href="#mec0646b87e" y="132.564814"/>
     <use style="fill:#ff0000;stroke:#ff0000;" x="388.04822" xlink:href="#mec0646b87e" y="132.564814"/>
     <use style="fill:#ff0000;stroke:#ff0000;" x="389.092125" xlink:href="#mec0646b87e" y="132.564814"/>
     <use style="fill:#ff0000;stroke:#ff0000;" x="390.13603" xlink:href="#mec0646b87e" y="132.564814"/>
     <use style="fill:#ff0000;stroke:#ff0000;" x="391.179936" xlink:href="#mec0646b87e" y="132.564814"/>
     <use style="fill:#ff0000;stroke:#ff0000;" x="392.223841" xlink:href="#mec0646b87e" y="132.564814"/>
     <use style="fill:#ff0000;stroke:#ff0000;" x="393.267746" xlink:href="#mec0646b87e" y="132.564814"/>
     <use style="fill:#ff0000;stroke:#ff0000;" x="394.311652" xlink:href="#mec0646b87e" y="132.564814"/>
     <use style="fill:#ff0000;stroke:#ff0000;" x="395.355557" xlink:href="#mec0646b87e" y="132.564814"/>
     <use style="fill:#ff0000;stroke:#ff0000;" x="396.399462" xlink:href="#mec0646b87e" y="132.564814"/>
     <use style="fill:#ff0000;stroke:#ff0000;" x="397.443367" xlink:href="#mec0646b87e" y="132.564814"/>
     <use style="fill:#ff0000;stroke:#ff0000;" x="398.487273" xlink:href="#mec0646b87e" y="132.564814"/>
    </g>
   </g>
   <g id="patch_3">
    <path d="M 57.6 307.584 
L 57.6 41.472 
" style="fill:none;stroke:#000000;stroke-linecap:square;stroke-linejoin:miter;stroke-width:0.8;"/>
   </g>
   <g id="patch_4">
    <path d="M 414.72 307.584 
L 414.72 41.472 
" style="fill:none;stroke:#000000;stroke-linecap:square;stroke-linejoin:miter;stroke-width:0.8;"/>
   </g>
   <g id="patch_5">
    <path d="M 57.6 307.584 
L 414.72 307.584 
" style="fill:none;stroke:#000000;stroke-linecap:square;stroke-linejoin:miter;stroke-width:0.8;"/>
   </g>
   <g id="patch_6">
    <path d="M 57.6 41.472 
L 414.72 41.472 
" style="fill:none;stroke:#000000;stroke-linecap:square;stroke-linejoin:miter;stroke-width:0.8;"/>
   </g>
  </g>
 </g>
 <defs>
  <clipPath id="pc965a2c432">
   <rect height="266.112" width="357.12" x="57.6" y="41.472"/>
  </clipPath>
 </defs>
</svg>
