<?xml version="1.0" encoding="utf-8" standalone="no"?>
<!DOCTYPE svg PUBLIC "-//W3C//DTD SVG 1.1//EN"
  "http://www.w3.org/Graphics/SVG/1.1/DTD/svg11.dtd">
<!-- Created with matplotlib (https://matplotlib.org/) -->
<svg height="345.6pt" version="1.1" viewBox="0 0 460.8 345.6" width="460.8pt" xmlns="http://www.w3.org/2000/svg" xmlns:xlink="http://www.w3.org/1999/xlink">
 <defs>
  <style type="text/css">
*{stroke-linecap:butt;stroke-linejoin:round;}
  </style>
 </defs>
 <g id="figure_1">
  <g id="patch_1">
   <path d="M 0 345.6 
L 460.8 345.6 
L 460.8 0 
L 0 0 
z
" style="fill:#ffffff;"/>
  </g>
  <g id="axes_1">
   <g id="patch_2">
    <path d="M 57.6 307.584 
L 414.72 307.584 
L 414.72 41.472 
L 57.6 41.472 
z
" style="fill:#ffffff;"/>
   </g>
   <g id="line2d_1">
    <path clip-path="url(#pdf2023b9d9)" d="M 73.832727 266.204907 
L 74.705455 266.204907 
L 75.578182 259.173811 
L 77.323636 259.173811 
L 78.196364 290.907921 
L 79.069091 257.959136 
L 79.941818 257.959136 
L 80.814545 265.811012 
L 82.56 265.811012 
L 83.432727 295.488 
L 86.050909 295.488 
L 86.923636 262.551316 
L 87.796364 262.551316 
L 88.669091 230.680338 
L 90.414545 230.680338 
L 91.287273 195.174159 
L 93.032727 195.174159 
L 93.905455 195.554599 
L 94.778182 195.554599 
L 95.650909 193.898783 
L 96.523636 193.898783 
L 97.396364 195.280583 
L 98.269091 195.280583 
L 99.141818 206.163119 
L 100.014545 206.163119 
L 100.887273 204.81066 
L 102.632727 204.81066 
L 103.505455 193.843059 
L 104.378182 193.843059 
L 106.123636 215.670018 
L 106.996364 215.670018 
L 107.869091 205.135004 
L 108.741818 205.135004 
L 109.614545 193.506419 
L 110.487273 193.506419 
L 111.36 203.748611 
L 112.232727 203.748611 
L 113.105455 193.577083 
L 114.850909 193.577083 
L 115.723636 196.107152 
L 117.469091 196.107152 
L 118.341818 186.281278 
L 119.214545 197.619711 
L 120.96 197.619711 
L 121.832727 199.452559 
L 122.705455 209.515208 
L 124.450909 209.515208 
L 125.323636 220.585577 
L 126.196364 209.793781 
L 127.941818 209.793781 
L 128.814545 199.421057 
L 129.687273 199.421057 
L 130.56 210.140487 
L 131.432727 199.822903 
L 132.305455 199.822903 
L 133.178182 189.683946 
L 134.923636 189.683946 
L 135.796364 179.398819 
L 137.541818 179.398819 
L 138.414545 169.934499 
L 139.287273 169.934499 
L 140.16 159.376572 
L 141.032727 159.376572 
L 141.905455 169.848446 
L 142.778182 169.848446 
L 143.650909 173.747189 
L 144.523636 174.606726 
L 147.141818 174.606726 
L 148.014545 164.649353 
L 148.887273 164.649353 
L 149.76 154.697184 
L 150.632727 154.697184 
L 151.505455 165.352985 
L 152.378182 165.352985 
L 153.250909 154.670752 
L 154.996364 154.670752 
L 155.869091 143.061286 
L 156.741818 143.061286 
L 158.487273 124.738698 
L 159.36 124.738698 
L 160.232727 114.528025 
L 161.105455 114.528025 
L 161.978182 105.620766 
L 163.723636 105.620766 
L 164.596364 95.25316 
L 165.469091 107.347521 
L 167.214545 107.347521 
L 168.087273 117.220735 
L 168.96 117.220735 
L 169.832727 129.600218 
L 170.705455 127.994102 
L 179.432727 127.994102 
L 180.305455 126.999643 
L 182.050909 126.999643 
L 182.923636 124.782141 
L 183.796364 124.782141 
L 184.669091 114.051871 
L 185.541818 114.051871 
L 186.414545 104.85094 
L 187.287273 104.85094 
L 188.16 95.615199 
L 189.905455 95.615199 
L 190.778182 106.967544 
L 191.650909 106.967544 
L 192.523636 97.864842 
L 193.396364 97.864842 
L 194.269091 99.963162 
L 196.014545 99.963162 
L 196.887273 89.76381 
L 197.76 89.76381 
L 198.632727 101.080758 
L 199.505455 92.988798 
L 200.378182 92.988798 
L 201.250909 103.581783 
L 202.996364 103.581783 
L 203.869091 93.650391 
L 204.741818 93.650391 
L 205.614545 84.593423 
L 208.232727 84.593423 
L 209.105455 74.533013 
L 209.978182 74.533013 
L 210.850909 73.228389 
L 211.723636 73.228389 
L 213.469091 53.568 
L 214.341818 53.568 
L 215.214545 66.21434 
L 216.087273 66.21434 
L 216.96 77.480369 
L 217.832727 77.480369 
L 218.705455 88.894292 
L 220.450909 88.894292 
L 221.323636 102.202382 
L 222.196364 106.144818 
L 223.941818 106.144818 
L 224.814545 119.41961 
L 226.56 119.41961 
L 227.432727 131.295173 
L 228.305455 131.295173 
L 229.178182 129.731138 
L 230.050909 139.951465 
L 230.923636 139.951465 
L 231.796364 152.12037 
L 232.669091 152.12037 
L 233.541818 142.896139 
L 234.414545 142.896139 
L 235.287273 132.564814 
L 398.487273 132.564814 
L 398.487273 132.564814 
" style="fill:none;stroke:#ff0000;stroke-linecap:square;stroke-width:12;"/>
    <defs>
     <path d="M 0 3 
C 0.795609 3 1.55874 2.683901 2.12132 2.12132 
C 2.683901 1.55874 3 0.795609 3 0 
C 3 -0.795609 2.683901 -1.55874 2.12132 -2.12132 
C 1.55874 -2.683901 0.795609 -3 0 -3 
C -0.795609 -3 -1.55874 -2.683901 -2.12132 -2.12132 
C -2.683901 -1.55874 -3 -0.795609 -3 0 
C -3 0.795609 -2.683901 1.55874 -2.12132 2.12132 
C -1.55874 2.683901 -0.795609 3 0 3 
z
" id="m88e06d379e" style="stroke:#ff0000;"/>
    </defs>
    <g clip-path="url(#pdf2023b9d9)">
     <use style="fill:#ff0000;stroke:#ff0000;" x="73.832727" xlink:href="#m88e06d379e" y="266.204907"/>
     <use style="fill:#ff0000;stroke:#ff0000;" x="74.705455" xlink:href="#m88e06d379e" y="266.204907"/>
     <use style="fill:#ff0000;stroke:#ff0000;" x="75.578182" xlink:href="#m88e06d379e" y="259.173811"/>
     <use style="fill:#ff0000;stroke:#ff0000;" x="76.450909" xlink:href="#m88e06d379e" y="259.173811"/>
     <use style="fill:#ff0000;stroke:#ff0000;" x="77.323636" xlink:href="#m88e06d379e" y="259.173811"/>
     <use style="fill:#ff0000;stroke:#ff0000;" x="78.196364" xlink:href="#m88e06d379e" y="290.907921"/>
     <use style="fill:#ff0000;stroke:#ff0000;" x="79.069091" xlink:href="#m88e06d379e" y="257.959136"/>
     <use style="fill:#ff0000;stroke:#ff0000;" x="79.941818" xlink:href="#m88e06d379e" y="257.959136"/>
     <use style="fill:#ff0000;stroke:#ff0000;" x="80.814545" xlink:href="#m88e06d379e" y="265.811012"/>
     <use style="fill:#ff0000;stroke:#ff0000;" x="81.687273" xlink:href="#m88e06d379e" y="265.811012"/>
     <use style="fill:#ff0000;stroke:#ff0000;" x="82.56" xlink:href="#m88e06d379e" y="265.811012"/>
     <use style="fill:#ff0000;stroke:#ff0000;" x="83.432727" xlink:href="#m88e06d379e" y="295.488"/>
     <use style="fill:#ff0000;stroke:#ff0000;" x="84.305455" xlink:href="#m88e06d379e" y="295.488"/>
     <use style="fill:#ff0000;stroke:#ff0000;" x="85.178182" xlink:href="#m88e06d379e" y="295.488"/>
     <use style="fill:#ff0000;stroke:#ff0000;" x="86.050909" xlink:href="#m88e06d379e" y="295.488"/>
     <use style="fill:#ff0000;stroke:#ff0000;" x="86.923636" xlink:href="#m88e06d379e" y="262.551316"/>
     <use style="fill:#ff0000;stroke:#ff0000;" x="87.796364" xlink:href="#m88e06d379e" y="262.551316"/>
     <use style="fill:#ff0000;stroke:#ff0000;" x="88.669091" xlink:href="#m88e06d379e" y="230.680338"/>
     <use style="fill:#ff0000;stroke:#ff0000;" x="89.541818" xlink:href="#m88e06d379e" y="230.680338"/>
     <use style="fill:#ff0000;stroke:#ff0000;" x="90.414545" xlink:href="#m88e06d379e" y="230.680338"/>
     <use style="fill:#ff0000;stroke:#ff0000;" x="91.287273" xlink:href="#m88e06d379e" y="195.174159"/>
     <use style="fill:#ff0000;stroke:#ff0000;" x="92.16" xlink:href="#m88e06d379e" y="195.174159"/>
     <use style="fill:#ff0000;stroke:#ff0000;" x="93.032727" xlink:href="#m88e06d379e" y="195.174159"/>
     <use style="fill:#ff0000;stroke:#ff0000;" x="93.905455" xlink:href="#m88e06d379e" y="195.554599"/>
     <use style="fill:#ff0000;stroke:#ff0000;" x="94.778182" xlink:href="#m88e06d379e" y="195.554599"/>
     <use style="fill:#ff0000;stroke:#ff0000;" x="95.650909" xlink:href="#m88e06d379e" y="193.898783"/>
     <use style="fill:#ff0000;stroke:#ff0000;" x="96.523636" xlink:href="#m88e06d379e" y="193.898783"/>
     <use style="fill:#ff0000;stroke:#ff0000;" x="97.396364" xlink:href="#m88e06d379e" y="195.280583"/>
     <use style="fill:#ff0000;stroke:#ff0000;" x="98.269091" xlink:href="#m88e06d379e" y="195.280583"/>
     <use style="fill:#ff0000;stroke:#ff0000;" x="99.141818" xlink:href="#m88e06d379e" y="206.163119"/>
     <use style="fill:#ff0000;stroke:#ff0000;" x="100.014545" xlink:href="#m88e06d379e" y="206.163119"/>
     <use style="fill:#ff0000;stroke:#ff0000;" x="100.887273" xlink:href="#m88e06d379e" y="204.81066"/>
     <use style="fill:#ff0000;stroke:#ff0000;" x="101.76" xlink:href="#m88e06d379e" y="204.81066"/>
     <use style="fill:#ff0000;stroke:#ff0000;" x="102.632727" xlink:href="#m88e06d379e" y="204.81066"/>
     <use style="fill:#ff0000;stroke:#ff0000;" x="103.505455" xlink:href="#m88e06d379e" y="193.843059"/>
     <use style="fill:#ff0000;stroke:#ff0000;" x="104.378182" xlink:href="#m88e06d379e" y="193.843059"/>
     <use style="fill:#ff0000;stroke:#ff0000;" x="105.250909" xlink:href="#m88e06d379e" y="204.687576"/>
     <use style="fill:#ff0000;stroke:#ff0000;" x="106.123636" xlink:href="#m88e06d379e" y="215.670018"/>
     <use style="fill:#ff0000;stroke:#ff0000;" x="106.996364" xlink:href="#m88e06d379e" y="215.670018"/>
     <use style="fill:#ff0000;stroke:#ff0000;" x="107.869091" xlink:href="#m88e06d379e" y="205.135004"/>
     <use style="fill:#ff0000;stroke:#ff0000;" x="108.741818" xlink:href="#m88e06d379e" y="205.135004"/>
     <use style="fill:#ff0000;stroke:#ff0000;" x="109.614545" xlink:href="#m88e06d379e" y="193.506419"/>
     <use style="fill:#ff0000;stroke:#ff0000;" x="110.487273" xlink:href="#m88e06d379e" y="193.506419"/>
     <use style="fill:#ff0000;stroke:#ff0000;" x="111.36" xlink:href="#m88e06d379e" y="203.748611"/>
     <use style="fill:#ff0000;stroke:#ff0000;" x="112.232727" xlink:href="#m88e06d379e" y="203.748611"/>
     <use style="fill:#ff0000;stroke:#ff0000;" x="113.105455" xlink:href="#m88e06d379e" y="193.577083"/>
     <use style="fill:#ff0000;stroke:#ff0000;" x="113.978182" xlink:href="#m88e06d379e" y="193.577083"/>
     <use style="fill:#ff0000;stroke:#ff0000;" x="114.850909" xlink:href="#m88e06d379e" y="193.577083"/>
     <use style="fill:#ff0000;stroke:#ff0000;" x="115.723636" xlink:href="#m88e06d379e" y="196.107152"/>
     <use style="fill:#ff0000;stroke:#ff0000;" x="116.596364" xlink:href="#m88e06d379e" y="196.107152"/>
     <use style="fill:#ff0000;stroke:#ff0000;" x="117.469091" xlink:href="#m88e06d379e" y="196.107152"/>
     <use style="fill:#ff0000;stroke:#ff0000;" x="118.341818" xlink:href="#m88e06d379e" y="186.281278"/>
     <use style="fill:#ff0000;stroke:#ff0000;" x="119.214545" xlink:href="#m88e06d379e" y="197.619711"/>
     <use style="fill:#ff0000;stroke:#ff0000;" x="120.087273" xlink:href="#m88e06d379e" y="197.619711"/>
     <use style="fill:#ff0000;stroke:#ff0000;" x="120.96" xlink:href="#m88e06d379e" y="197.619711"/>
     <use style="fill:#ff0000;stroke:#ff0000;" x="121.832727" xlink:href="#m88e06d379e" y="199.452559"/>
     <use style="fill:#ff0000;stroke:#ff0000;" x="122.705455" xlink:href="#m88e06d379e" y="209.515208"/>
     <use style="fill:#ff0000;stroke:#ff0000;" x="123.578182" xlink:href="#m88e06d379e" y="209.515208"/>
     <use style="fill:#ff0000;stroke:#ff0000;" x="124.450909" xlink:href="#m88e06d379e" y="209.515208"/>
     <use style="fill:#ff0000;stroke:#ff0000;" x="125.323636" xlink:href="#m88e06d379e" y="220.585577"/>
     <use style="fill:#ff0000;stroke:#ff0000;" x="126.196364" xlink:href="#m88e06d379e" y="209.793781"/>
     <use style="fill:#ff0000;stroke:#ff0000;" x="127.069091" xlink:href="#m88e06d379e" y="209.793781"/>
     <use style="fill:#ff0000;stroke:#ff0000;" x="127.941818" xlink:href="#m88e06d379e" y="209.793781"/>
     <use style="fill:#ff0000;stroke:#ff0000;" x="128.814545" xlink:href="#m88e06d379e" y="199.421057"/>
     <use style="fill:#ff0000;stroke:#ff0000;" x="129.687273" xlink:href="#m88e06d379e" y="199.421057"/>
     <use style="fill:#ff0000;stroke:#ff0000;" x="130.56" xlink:href="#m88e06d379e" y="210.140487"/>
     <use style="fill:#ff0000;stroke:#ff0000;" x="131.432727" xlink:href="#m88e06d379e" y="199.822903"/>
     <use style="fill:#ff0000;stroke:#ff0000;" x="132.305455" xlink:href="#m88e06d379e" y="199.822903"/>
     <use style="fill:#ff0000;stroke:#ff0000;" x="133.178182" xlink:href="#m88e06d379e" y="189.683946"/>
     <use style="fill:#ff0000;stroke:#ff0000;" x="134.050909" xlink:href="#m88e06d379e" y="189.683946"/>
     <use style="fill:#ff0000;stroke:#ff0000;" x="134.923636" xlink:href="#m88e06d379e" y="189.683946"/>
     <use style="fill:#ff0000;stroke:#ff0000;" x="135.796364" xlink:href="#m88e06d379e" y="179.398819"/>
     <use style="fill:#ff0000;stroke:#ff0000;" x="136.669091" xlink:href="#m88e06d379e" y="179.398819"/>
     <use style="fill:#ff0000;stroke:#ff0000;" x="137.541818" xlink:href="#m88e06d379e" y="179.398819"/>
     <use style="fill:#ff0000;stroke:#ff0000;" x="138.414545" xlink:href="#m88e06d379e" y="169.934499"/>
     <use style="fill:#ff0000;stroke:#ff0000;" x="139.287273" xlink:href="#m88e06d379e" y="169.934499"/>
     <use style="fill:#ff0000;stroke:#ff0000;" x="140.16" xlink:href="#m88e06d379e" y="159.376572"/>
     <use style="fill:#ff0000;stroke:#ff0000;" x="141.032727" xlink:href="#m88e06d379e" y="159.376572"/>
     <use style="fill:#ff0000;stroke:#ff0000;" x="141.905455" xlink:href="#m88e06d379e" y="169.848446"/>
     <use style="fill:#ff0000;stroke:#ff0000;" x="142.778182" xlink:href="#m88e06d379e" y="169.848446"/>
     <use style="fill:#ff0000;stroke:#ff0000;" x="143.650909" xlink:href="#m88e06d379e" y="173.747189"/>
     <use style="fill:#ff0000;stroke:#ff0000;" x="144.523636" xlink:href="#m88e06d379e" y="174.606726"/>
     <use style="fill:#ff0000;stroke:#ff0000;" x="145.396364" xlink:href="#m88e06d379e" y="174.606726"/>
     <use style="fill:#ff0000;stroke:#ff0000;" x="146.269091" xlink:href="#m88e06d379e" y="174.606726"/>
     <use style="fill:#ff0000;stroke:#ff0000;" x="147.141818" xlink:href="#m88e06d379e" y="174.606726"/>
     <use style="fill:#ff0000;stroke:#ff0000;" x="148.014545" xlink:href="#m88e06d379e" y="164.649353"/>
     <use style="fill:#ff0000;stroke:#ff0000;" x="148.887273" xlink:href="#m88e06d379e" y="164.649353"/>
     <use style="fill:#ff0000;stroke:#ff0000;" x="149.76" xlink:href="#m88e06d379e" y="154.697184"/>
     <use style="fill:#ff0000;stroke:#ff0000;" x="150.632727" xlink:href="#m88e06d379e" y="154.697184"/>
     <use style="fill:#ff0000;stroke:#ff0000;" x="151.505455" xlink:href="#m88e06d379e" y="165.352985"/>
     <use style="fill:#ff0000;stroke:#ff0000;" x="152.378182" xlink:href="#m88e06d379e" y="165.352985"/>
     <use style="fill:#ff0000;stroke:#ff0000;" x="153.250909" xlink:href="#m88e06d379e" y="154.670752"/>
     <use style="fill:#ff0000;stroke:#ff0000;" x="154.123636" xlink:href="#m88e06d379e" y="154.670752"/>
     <use style="fill:#ff0000;stroke:#ff0000;" x="154.996364" xlink:href="#m88e06d379e" y="154.670752"/>
     <use style="fill:#ff0000;stroke:#ff0000;" x="155.869091" xlink:href="#m88e06d379e" y="143.061286"/>
     <use style="fill:#ff0000;stroke:#ff0000;" x="156.741818" xlink:href="#m88e06d379e" y="143.061286"/>
     <use style="fill:#ff0000;stroke:#ff0000;" x="157.614545" xlink:href="#m88e06d379e" y="134.398055"/>
     <use style="fill:#ff0000;stroke:#ff0000;" x="158.487273" xlink:href="#m88e06d379e" y="124.738698"/>
     <use style="fill:#ff0000;stroke:#ff0000;" x="159.36" xlink:href="#m88e06d379e" y="124.738698"/>
     <use style="fill:#ff0000;stroke:#ff0000;" x="160.232727" xlink:href="#m88e06d379e" y="114.528025"/>
     <use style="fill:#ff0000;stroke:#ff0000;" x="161.105455" xlink:href="#m88e06d379e" y="114.528025"/>
     <use style="fill:#ff0000;stroke:#ff0000;" x="161.978182" xlink:href="#m88e06d379e" y="105.620766"/>
     <use style="fill:#ff0000;stroke:#ff0000;" x="162.850909" xlink:href="#m88e06d379e" y="105.620766"/>
     <use style="fill:#ff0000;stroke:#ff0000;" x="163.723636" xlink:href="#m88e06d379e" y="105.620766"/>
     <use style="fill:#ff0000;stroke:#ff0000;" x="164.596364" xlink:href="#m88e06d379e" y="95.25316"/>
     <use style="fill:#ff0000;stroke:#ff0000;" x="165.469091" xlink:href="#m88e06d379e" y="107.347521"/>
     <use style="fill:#ff0000;stroke:#ff0000;" x="166.341818" xlink:href="#m88e06d379e" y="107.347521"/>
     <use style="fill:#ff0000;stroke:#ff0000;" x="167.214545" xlink:href="#m88e06d379e" y="107.347521"/>
     <use style="fill:#ff0000;stroke:#ff0000;" x="168.087273" xlink:href="#m88e06d379e" y="117.220735"/>
     <use style="fill:#ff0000;stroke:#ff0000;" x="168.96" xlink:href="#m88e06d379e" y="117.220735"/>
     <use style="fill:#ff0000;stroke:#ff0000;" x="169.832727" xlink:href="#m88e06d379e" y="129.600218"/>
     <use style="fill:#ff0000;stroke:#ff0000;" x="170.705455" xlink:href="#m88e06d379e" y="127.994102"/>
     <use style="fill:#ff0000;stroke:#ff0000;" x="171.578182" xlink:href="#m88e06d379e" y="127.994102"/>
     <use style="fill:#ff0000;stroke:#ff0000;" x="172.450909" xlink:href="#m88e06d379e" y="127.994102"/>
     <use style="fill:#ff0000;stroke:#ff0000;" x="173.323636" xlink:href="#m88e06d379e" y="127.994102"/>
     <use style="fill:#ff0000;stroke:#ff0000;" x="174.196364" xlink:href="#m88e06d379e" y="127.994102"/>
     <use style="fill:#ff0000;stroke:#ff0000;" x="175.069091" xlink:href="#m88e06d379e" y="127.994102"/>
     <use style="fill:#ff0000;stroke:#ff0000;" x="175.941818" xlink:href="#m88e06d379e" y="127.994102"/>
     <use style="fill:#ff0000;stroke:#ff0000;" x="176.814545" xlink:href="#m88e06d379e" y="127.994102"/>
     <use style="fill:#ff0000;stroke:#ff0000;" x="177.687273" xlink:href="#m88e06d379e" y="127.994102"/>
     <use style="fill:#ff0000;stroke:#ff0000;" x="178.56" xlink:href="#m88e06d379e" y="127.994102"/>
     <use style="fill:#ff0000;stroke:#ff0000;" x="179.432727" xlink:href="#m88e06d379e" y="127.994102"/>
     <use style="fill:#ff0000;stroke:#ff0000;" x="180.305455" xlink:href="#m88e06d379e" y="126.999643"/>
     <use style="fill:#ff0000;stroke:#ff0000;" x="181.178182" xlink:href="#m88e06d379e" y="126.999643"/>
     <use style="fill:#ff0000;stroke:#ff0000;" x="182.050909" xlink:href="#m88e06d379e" y="126.999643"/>
     <use style="fill:#ff0000;stroke:#ff0000;" x="182.923636" xlink:href="#m88e06d379e" y="124.782141"/>
     <use style="fill:#ff0000;stroke:#ff0000;" x="183.796364" xlink:href="#m88e06d379e" y="124.782141"/>
     <use style="fill:#ff0000;stroke:#ff0000;" x="184.669091" xlink:href="#m88e06d379e" y="114.051871"/>
     <use style="fill:#ff0000;stroke:#ff0000;" x="185.541818" xlink:href="#m88e06d379e" y="114.051871"/>
     <use style="fill:#ff0000;stroke:#ff0000;" x="186.414545" xlink:href="#m88e06d379e" y="104.85094"/>
     <use style="fill:#ff0000;stroke:#ff0000;" x="187.287273" xlink:href="#m88e06d379e" y="104.85094"/>
     <use style="fill:#ff0000;stroke:#ff0000;" x="188.16" xlink:href="#m88e06d379e" y="95.615199"/>
     <use style="fill:#ff0000;stroke:#ff0000;" x="189.032727" xlink:href="#m88e06d379e" y="95.615199"/>
     <use style="fill:#ff0000;stroke:#ff0000;" x="189.905455" xlink:href="#m88e06d379e" y="95.615199"/>
     <use style="fill:#ff0000;stroke:#ff0000;" x="190.778182" xlink:href="#m88e06d379e" y="106.967544"/>
     <use style="fill:#ff0000;stroke:#ff0000;" x="191.650909" xlink:href="#m88e06d379e" y="106.967544"/>
     <use style="fill:#ff0000;stroke:#ff0000;" x="192.523636" xlink:href="#m88e06d379e" y="97.864842"/>
     <use style="fill:#ff0000;stroke:#ff0000;" x="193.396364" xlink:href="#m88e06d379e" y="97.864842"/>
     <use style="fill:#ff0000;stroke:#ff0000;" x="194.269091" xlink:href="#m88e06d379e" y="99.963162"/>
     <use style="fill:#ff0000;stroke:#ff0000;" x="195.141818" xlink:href="#m88e06d379e" y="99.963162"/>
     <use style="fill:#ff0000;stroke:#ff0000;" x="196.014545" xlink:href="#m88e06d379e" y="99.963162"/>
     <use style="fill:#ff0000;stroke:#ff0000;" x="196.887273" xlink:href="#m88e06d379e" y="89.76381"/>
     <use style="fill:#ff0000;stroke:#ff0000;" x="197.76" xlink:href="#m88e06d379e" y="89.76381"/>
     <use style="fill:#ff0000;stroke:#ff0000;" x="198.632727" xlink:href="#m88e06d379e" y="101.080758"/>
     <use style="fill:#ff0000;stroke:#ff0000;" x="199.505455" xlink:href="#m88e06d379e" y="92.988798"/>
     <use style="fill:#ff0000;stroke:#ff0000;" x="200.378182" xlink:href="#m88e06d379e" y="92.988798"/>
     <use style="fill:#ff0000;stroke:#ff0000;" x="201.250909" xlink:href="#m88e06d379e" y="103.581783"/>
     <use style="fill:#ff0000;stroke:#ff0000;" x="202.123636" xlink:href="#m88e06d379e" y="103.581783"/>
     <use style="fill:#ff0000;stroke:#ff0000;" x="202.996364" xlink:href="#m88e06d379e" y="103.581783"/>
     <use style="fill:#ff0000;stroke:#ff0000;" x="203.869091" xlink:href="#m88e06d379e" y="93.650391"/>
     <use style="fill:#ff0000;stroke:#ff0000;" x="204.741818" xlink:href="#m88e06d379e" y="93.650391"/>
     <use style="fill:#ff0000;stroke:#ff0000;" x="205.614545" xlink:href="#m88e06d379e" y="84.593423"/>
     <use style="fill:#ff0000;stroke:#ff0000;" x="206.487273" xlink:href="#m88e06d379e" y="84.593423"/>
     <use style="fill:#ff0000;stroke:#ff0000;" x="207.36" xlink:href="#m88e06d379e" y="84.593423"/>
     <use style="fill:#ff0000;stroke:#ff0000;" x="208.232727" xlink:href="#m88e06d379e" y="84.593423"/>
     <use style="fill:#ff0000;stroke:#ff0000;" x="209.105455" xlink:href="#m88e06d379e" y="74.533013"/>
     <use style="fill:#ff0000;stroke:#ff0000;" x="209.978182" xlink:href="#m88e06d379e" y="74.533013"/>
     <use style="fill:#ff0000;stroke:#ff0000;" x="210.850909" xlink:href="#m88e06d379e" y="73.228389"/>
     <use style="fill:#ff0000;stroke:#ff0000;" x="211.723636" xlink:href="#m88e06d379e" y="73.228389"/>
     <use style="fill:#ff0000;stroke:#ff0000;" x="212.596364" xlink:href="#m88e06d379e" y="63.542541"/>
     <use style="fill:#ff0000;stroke:#ff0000;" x="213.469091" xlink:href="#m88e06d379e" y="53.568"/>
     <use style="fill:#ff0000;stroke:#ff0000;" x="214.341818" xlink:href="#m88e06d379e" y="53.568"/>
     <use style="fill:#ff0000;stroke:#ff0000;" x="215.214545" xlink:href="#m88e06d379e" y="66.21434"/>
     <use style="fill:#ff0000;stroke:#ff0000;" x="216.087273" xlink:href="#m88e06d379e" y="66.21434"/>
     <use style="fill:#ff0000;stroke:#ff0000;" x="216.96" xlink:href="#m88e06d379e" y="77.480369"/>
     <use style="fill:#ff0000;stroke:#ff0000;" x="217.832727" xlink:href="#m88e06d379e" y="77.480369"/>
     <use style="fill:#ff0000;stroke:#ff0000;" x="218.705455" xlink:href="#m88e06d379e" y="88.894292"/>
     <use style="fill:#ff0000;stroke:#ff0000;" x="219.578182" xlink:href="#m88e06d379e" y="88.894292"/>
     <use style="fill:#ff0000;stroke:#ff0000;" x="220.450909" xlink:href="#m88e06d379e" y="88.894292"/>
     <use style="fill:#ff0000;stroke:#ff0000;" x="221.323636" xlink:href="#m88e06d379e" y="102.202382"/>
     <use style="fill:#ff0000;stroke:#ff0000;" x="222.196364" xlink:href="#m88e06d379e" y="106.144818"/>
     <use style="fill:#ff0000;stroke:#ff0000;" x="223.069091" xlink:href="#m88e06d379e" y="106.144818"/>
     <use style="fill:#ff0000;stroke:#ff0000;" x="223.941818" xlink:href="#m88e06d379e" y="106.144818"/>
     <use style="fill:#ff0000;stroke:#ff0000;" x="224.814545" xlink:href="#m88e06d379e" y="119.41961"/>
     <use style="fill:#ff0000;stroke:#ff0000;" x="225.687273" xlink:href="#m88e06d379e" y="119.41961"/>
     <use style="fill:#ff0000;stroke:#ff0000;" x="226.56" xlink:href="#m88e06d379e" y="119.41961"/>
     <use style="fill:#ff0000;stroke:#ff0000;" x="227.432727" xlink:href="#m88e06d379e" y="131.295173"/>
     <use style="fill:#ff0000;stroke:#ff0000;" x="228.305455" xlink:href="#m88e06d379e" y="131.295173"/>
     <use style="fill:#ff0000;stroke:#ff0000;" x="229.178182" xlink:href="#m88e06d379e" y="129.731138"/>
     <use style="fill:#ff0000;stroke:#ff0000;" x="230.050909" xlink:href="#m88e06d379e" y="139.951465"/>
     <use style="fill:#ff0000;stroke:#ff0000;" x="230.923636" xlink:href="#m88e06d379e" y="139.951465"/>
     <use style="fill:#ff0000;stroke:#ff0000;" x="231.796364" xlink:href="#m88e06d379e" y="152.12037"/>
     <use style="fill:#ff0000;stroke:#ff0000;" x="232.669091" xlink:href="#m88e06d379e" y="152.12037"/>
     <use style="fill:#ff0000;stroke:#ff0000;" x="233.541818" xlink:href="#m88e06d379e" y="142.896139"/>
     <use style="fill:#ff0000;stroke:#ff0000;" x="234.414545" xlink:href="#m88e06d379e" y="142.896139"/>
     <use style="fill:#ff0000;stroke:#ff0000;" x="235.287273" xlink:href="#m88e06d379e" y="132.564814"/>
     <use style="fill:#ff0000;stroke:#ff0000;" x="236.16" xlink:href="#m88e06d379e" y="132.564814"/>
     <use style="fill:#ff0000;stroke:#ff0000;" x="237.032727" xlink:href="#m88e06d379e" y="132.564814"/>
     <use style="fill:#ff0000;stroke:#ff0000;" x="237.905455" xlink:href="#m88e06d379e" y="132.564814"/>
     <use style="fill:#ff0000;stroke:#ff0000;" x="238.778182" xlink:href="#m88e06d379e" y="132.564814"/>
     <use style="fill:#ff0000;stroke:#ff0000;" x="239.650909" xlink:href="#m88e06d379e" y="132.564814"/>
     <use style="fill:#ff0000;stroke:#ff0000;" x="240.523636" xlink:href="#m88e06d379e" y="132.564814"/>
     <use style="fill:#ff0000;stroke:#ff0000;" x="241.396364" xlink:href="#m88e06d379e" y="132.564814"/>
     <use style="fill:#ff0000;stroke:#ff0000;" x="242.269091" xlink:href="#m88e06d379e" y="132.564814"/>
     <use style="fill:#ff0000;stroke:#ff0000;" x="243.141818" xlink:href="#m88e06d379e" y="132.564814"/>
     <use style="fill:#ff0000;stroke:#ff0000;" x="244.014545" xlink:href="#m88e06d379e" y="132.564814"/>
     <use style="fill:#ff0000;stroke:#ff0000;" x="244.887273" xlink:href="#m88e06d379e" y="132.564814"/>
     <use style="fill:#ff0000;stroke:#ff0000;" x="245.76" xlink:href="#m88e06d379e" y="132.564814"/>
     <use style="fill:#ff0000;stroke:#ff0000;" x="246.632727" xlink:href="#m88e06d379e" y="132.564814"/>
     <use style="fill:#ff0000;stroke:#ff0000;" x="247.505455" xlink:href="#m88e06d379e" y="132.564814"/>
     <use style="fill:#ff0000;stroke:#ff0000;" x="248.378182" xlink:href="#m88e06d379e" y="132.564814"/>
     <use style="fill:#ff0000;stroke:#ff0000;" x="249.250909" xlink:href="#m88e06d379e" y="132.564814"/>
     <use style="fill:#ff0000;stroke:#ff0000;" x="250.123636" xlink:href="#m88e06d379e" y="132.564814"/>
     <use style="fill:#ff0000;stroke:#ff0000;" x="250.996364" xlink:href="#m88e06d379e" y="132.564814"/>
     <use style="fill:#ff0000;stroke:#ff0000;" x="251.869091" xlink:href="#m88e06d379e" y="132.564814"/>
     <use style="fill:#ff0000;stroke:#ff0000;" x="252.741818" xlink:href="#m88e06d379e" y="132.564814"/>
     <use style="fill:#ff0000;stroke:#ff0000;" x="253.614545" xlink:href="#m88e06d379e" y="132.564814"/>
     <use style="fill:#ff0000;stroke:#ff0000;" x="254.487273" xlink:href="#m88e06d379e" y="132.564814"/>
     <use style="fill:#ff0000;stroke:#ff0000;" x="255.36" xlink:href="#m88e06d379e" y="132.564814"/>
     <use style="fill:#ff0000;stroke:#ff0000;" x="256.232727" xlink:href="#m88e06d379e" y="132.564814"/>
     <use style="fill:#ff0000;stroke:#ff0000;" x="257.105455" xlink:href="#m88e06d379e" y="132.564814"/>
     <use style="fill:#ff0000;stroke:#ff0000;" x="257.978182" xlink:href="#m88e06d379e" y="132.564814"/>
     <use style="fill:#ff0000;stroke:#ff0000;" x="258.850909" xlink:href="#m88e06d379e" y="132.564814"/>
     <use style="fill:#ff0000;stroke:#ff0000;" x="259.723636" xlink:href="#m88e06d379e" y="132.564814"/>
     <use style="fill:#ff0000;stroke:#ff0000;" x="260.596364" xlink:href="#m88e06d379e" y="132.564814"/>
     <use style="fill:#ff0000;stroke:#ff0000;" x="261.469091" xlink:href="#m88e06d379e" y="132.564814"/>
     <use style="fill:#ff0000;stroke:#ff0000;" x="262.341818" xlink:href="#m88e06d379e" y="132.564814"/>
     <use style="fill:#ff0000;stroke:#ff0000;" x="263.214545" xlink:href="#m88e06d379e" y="132.564814"/>
     <use style="fill:#ff0000;stroke:#ff0000;" x="264.087273" xlink:href="#m88e06d379e" y="132.564814"/>
     <use style="fill:#ff0000;stroke:#ff0000;" x="264.96" xlink:href="#m88e06d379e" y="132.564814"/>
     <use style="fill:#ff0000;stroke:#ff0000;" x="265.832727" xlink:href="#m88e06d379e" y="132.564814"/>
     <use style="fill:#ff0000;stroke:#ff0000;" x="266.705455" xlink:href="#m88e06d379e" y="132.564814"/>
     <use style="fill:#ff0000;stroke:#ff0000;" x="267.578182" xlink:href="#m88e06d379e" y="132.564814"/>
     <use style="fill:#ff0000;stroke:#ff0000;" x="268.450909" xlink:href="#m88e06d379e" y="132.564814"/>
     <use style="fill:#ff0000;stroke:#ff0000;" x="269.323636" xlink:href="#m88e06d379e" y="132.564814"/>
     <use style="fill:#ff0000;stroke:#ff0000;" x="270.196364" xlink:href="#m88e06d379e" y="132.564814"/>
     <use style="fill:#ff0000;stroke:#ff0000;" x="271.069091" xlink:href="#m88e06d379e" y="132.564814"/>
     <use style="fill:#ff0000;stroke:#ff0000;" x="271.941818" xlink:href="#m88e06d379e" y="132.564814"/>
     <use style="fill:#ff0000;stroke:#ff0000;" x="272.814545" xlink:href="#m88e06d379e" y="132.564814"/>
     <use style="fill:#ff0000;stroke:#ff0000;" x="273.687273" xlink:href="#m88e06d379e" y="132.564814"/>
     <use style="fill:#ff0000;stroke:#ff0000;" x="274.56" xlink:href="#m88e06d379e" y="132.564814"/>
     <use style="fill:#ff0000;stroke:#ff0000;" x="275.432727" xlink:href="#m88e06d379e" y="132.564814"/>
     <use style="fill:#ff0000;stroke:#ff0000;" x="276.305455" xlink:href="#m88e06d379e" y="132.564814"/>
     <use style="fill:#ff0000;stroke:#ff0000;" x="277.178182" xlink:href="#m88e06d379e" y="132.564814"/>
     <use style="fill:#ff0000;stroke:#ff0000;" x="278.050909" xlink:href="#m88e06d379e" y="132.564814"/>
     <use style="fill:#ff0000;stroke:#ff0000;" x="278.923636" xlink:href="#m88e06d379e" y="132.564814"/>
     <use style="fill:#ff0000;stroke:#ff0000;" x="279.796364" xlink:href="#m88e06d379e" y="132.564814"/>
     <use style="fill:#ff0000;stroke:#ff0000;" x="280.669091" xlink:href="#m88e06d379e" y="132.564814"/>
     <use style="fill:#ff0000;stroke:#ff0000;" x="281.541818" xlink:href="#m88e06d379e" y="132.564814"/>
     <use style="fill:#ff0000;stroke:#ff0000;" x="282.414545" xlink:href="#m88e06d379e" y="132.564814"/>
     <use style="fill:#ff0000;stroke:#ff0000;" x="283.287273" xlink:href="#m88e06d379e" y="132.564814"/>
     <use style="fill:#ff0000;stroke:#ff0000;" x="284.16" xlink:href="#m88e06d379e" y="132.564814"/>
     <use style="fill:#ff0000;stroke:#ff0000;" x="285.032727" xlink:href="#m88e06d379e" y="132.564814"/>
     <use style="fill:#ff0000;stroke:#ff0000;" x="285.905455" xlink:href="#m88e06d379e" y="132.564814"/>
     <use style="fill:#ff0000;stroke:#ff0000;" x="286.778182" xlink:href="#m88e06d379e" y="132.564814"/>
     <use style="fill:#ff0000;stroke:#ff0000;" x="287.650909" xlink:href="#m88e06d379e" y="132.564814"/>
     <use style="fill:#ff0000;stroke:#ff0000;" x="288.523636" xlink:href="#m88e06d379e" y="132.564814"/>
     <use style="fill:#ff0000;stroke:#ff0000;" x="289.396364" xlink:href="#m88e06d379e" y="132.564814"/>
     <use style="fill:#ff0000;stroke:#ff0000;" x="290.269091" xlink:href="#m88e06d379e" y="132.564814"/>
     <use style="fill:#ff0000;stroke:#ff0000;" x="291.141818" xlink:href="#m88e06d379e" y="132.564814"/>
     <use style="fill:#ff0000;stroke:#ff0000;" x="292.014545" xlink:href="#m88e06d379e" y="132.564814"/>
     <use style="fill:#ff0000;stroke:#ff0000;" x="292.887273" xlink:href="#m88e06d379e" y="132.564814"/>
     <use style="fill:#ff0000;stroke:#ff0000;" x="293.76" xlink:href="#m88e06d379e" y="132.564814"/>
     <use style="fill:#ff0000;stroke:#ff0000;" x="294.632727" xlink:href="#m88e06d379e" y="132.564814"/>
     <use style="fill:#ff0000;stroke:#ff0000;" x="295.505455" xlink:href="#m88e06d379e" y="132.564814"/>
     <use style="fill:#ff0000;stroke:#ff0000;" x="296.378182" xlink:href="#m88e06d379e" y="132.564814"/>
     <use style="fill:#ff0000;stroke:#ff0000;" x="297.250909" xlink:href="#m88e06d379e" y="132.564814"/>
     <use style="fill:#ff0000;stroke:#ff0000;" x="298.123636" xlink:href="#m88e06d379e" y="132.564814"/>
     <use style="fill:#ff0000;stroke:#ff0000;" x="298.996364" xlink:href="#m88e06d379e" y="132.564814"/>
     <use style="fill:#ff0000;stroke:#ff0000;" x="299.869091" xlink:href="#m88e06d379e" y="132.564814"/>
     <use style="fill:#ff0000;stroke:#ff0000;" x="300.741818" xlink:href="#m88e06d379e" y="132.564814"/>
     <use style="fill:#ff0000;stroke:#ff0000;" x="301.614545" xlink:href="#m88e06d379e" y="132.564814"/>
     <use style="fill:#ff0000;stroke:#ff0000;" x="302.487273" xlink:href="#m88e06d379e" y="132.564814"/>
     <use style="fill:#ff0000;stroke:#ff0000;" x="303.36" xlink:href="#m88e06d379e" y="132.564814"/>
     <use style="fill:#ff0000;stroke:#ff0000;" x="304.232727" xlink:href="#m88e06d379e" y="132.564814"/>
     <use style="fill:#ff0000;stroke:#ff0000;" x="305.105455" xlink:href="#m88e06d379e" y="132.564814"/>
     <use style="fill:#ff0000;stroke:#ff0000;" x="305.978182" xlink:href="#m88e06d379e" y="132.564814"/>
     <use style="fill:#ff0000;stroke:#ff0000;" x="306.850909" xlink:href="#m88e06d379e" y="132.564814"/>
     <use style="fill:#ff0000;stroke:#ff0000;" x="307.723636" xlink:href="#m88e06d379e" y="132.564814"/>
     <use style="fill:#ff0000;stroke:#ff0000;" x="308.596364" xlink:href="#m88e06d379e" y="132.564814"/>
     <use style="fill:#ff0000;stroke:#ff0000;" x="309.469091" xlink:href="#m88e06d379e" y="132.564814"/>
     <use style="fill:#ff0000;stroke:#ff0000;" x="310.341818" xlink:href="#m88e06d379e" y="132.564814"/>
     <use style="fill:#ff0000;stroke:#ff0000;" x="311.214545" xlink:href="#m88e06d379e" y="132.564814"/>
     <use style="fill:#ff0000;stroke:#ff0000;" x="312.087273" xlink:href="#m88e06d379e" y="132.564814"/>
     <use style="fill:#ff0000;stroke:#ff0000;" x="312.96" xlink:href="#m88e06d379e" y="132.564814"/>
     <use style="fill:#ff0000;stroke:#ff0000;" x="313.832727" xlink:href="#m88e06d379e" y="132.564814"/>
     <use style="fill:#ff0000;stroke:#ff0000;" x="314.705455" xlink:href="#m88e06d379e" y="132.564814"/>
     <use style="fill:#ff0000;stroke:#ff0000;" x="315.578182" xlink:href="#m88e06d379e" y="132.564814"/>
     <use style="fill:#ff0000;stroke:#ff0000;" x="316.450909" xlink:href="#m88e06d379e" y="132.564814"/>
     <use style="fill:#ff0000;stroke:#ff0000;" x="317.323636" xlink:href="#m88e06d379e" y="132.564814"/>
     <use style="fill:#ff0000;stroke:#ff0000;" x="318.196364" xlink:href="#m88e06d379e" y="132.564814"/>
     <use style="fill:#ff0000;stroke:#ff0000;" x="319.069091" xlink:href="#m88e06d379e" y="132.564814"/>
     <use style="fill:#ff0000;stroke:#ff0000;" x="319.941818" xlink:href="#m88e06d379e" y="132.564814"/>
     <use style="fill:#ff0000;stroke:#ff0000;" x="320.814545" xlink:href="#m88e06d379e" y="132.564814"/>
     <use style="fill:#ff0000;stroke:#ff0000;" x="321.687273" xlink:href="#m88e06d379e" y="132.564814"/>
     <use style="fill:#ff0000;stroke:#ff0000;" x="322.56" xlink:href="#m88e06d379e" y="132.564814"/>
     <use style="fill:#ff0000;stroke:#ff0000;" x="323.432727" xlink:href="#m88e06d379e" y="132.564814"/>
     <use style="fill:#ff0000;stroke:#ff0000;" x="324.305455" xlink:href="#m88e06d379e" y="132.564814"/>
     <use style="fill:#ff0000;stroke:#ff0000;" x="325.178182" xlink:href="#m88e06d379e" y="132.564814"/>
     <use style="fill:#ff0000;stroke:#ff0000;" x="326.050909" xlink:href="#m88e06d379e" y="132.564814"/>
     <use style="fill:#ff0000;stroke:#ff0000;" x="326.923636" xlink:href="#m88e06d379e" y="132.564814"/>
     <use style="fill:#ff0000;stroke:#ff0000;" x="327.796364" xlink:href="#m88e06d379e" y="132.564814"/>
     <use style="fill:#ff0000;stroke:#ff0000;" x="328.669091" xlink:href="#m88e06d379e" y="132.564814"/>
     <use style="fill:#ff0000;stroke:#ff0000;" x="329.541818" xlink:href="#m88e06d379e" y="132.564814"/>
     <use style="fill:#ff0000;stroke:#ff0000;" x="330.414545" xlink:href="#m88e06d379e" y="132.564814"/>
     <use style="fill:#ff0000;stroke:#ff0000;" x="331.287273" xlink:href="#m88e06d379e" y="132.564814"/>
     <use style="fill:#ff0000;stroke:#ff0000;" x="332.16" xlink:href="#m88e06d379e" y="132.564814"/>
     <use style="fill:#ff0000;stroke:#ff0000;" x="333.032727" xlink:href="#m88e06d379e" y="132.564814"/>
     <use style="fill:#ff0000;stroke:#ff0000;" x="333.905455" xlink:href="#m88e06d379e" y="132.564814"/>
     <use style="fill:#ff0000;stroke:#ff0000;" x="334.778182" xlink:href="#m88e06d379e" y="132.564814"/>
     <use style="fill:#ff0000;stroke:#ff0000;" x="335.650909" xlink:href="#m88e06d379e" y="132.564814"/>
     <use style="fill:#ff0000;stroke:#ff0000;" x="336.523636" xlink:href="#m88e06d379e" y="132.564814"/>
     <use style="fill:#ff0000;stroke:#ff0000;" x="337.396364" xlink:href="#m88e06d379e" y="132.564814"/>
     <use style="fill:#ff0000;stroke:#ff0000;" x="338.269091" xlink:href="#m88e06d379e" y="132.564814"/>
     <use style="fill:#ff0000;stroke:#ff0000;" x="339.141818" xlink:href="#m88e06d379e" y="132.564814"/>
     <use style="fill:#ff0000;stroke:#ff0000;" x="340.014545" xlink:href="#m88e06d379e" y="132.564814"/>
     <use style="fill:#ff0000;stroke:#ff0000;" x="340.887273" xlink:href="#m88e06d379e" y="132.564814"/>
     <use style="fill:#ff0000;stroke:#ff0000;" x="341.76" xlink:href="#m88e06d379e" y="132.564814"/>
     <use style="fill:#ff0000;stroke:#ff0000;" x="342.632727" xlink:href="#m88e06d379e" y="132.564814"/>
     <use style="fill:#ff0000;stroke:#ff0000;" x="343.505455" xlink:href="#m88e06d379e" y="132.564814"/>
     <use style="fill:#ff0000;stroke:#ff0000;" x="344.378182" xlink:href="#m88e06d379e" y="132.564814"/>
     <use style="fill:#ff0000;stroke:#ff0000;" x="345.250909" xlink:href="#m88e06d379e" y="132.564814"/>
     <use style="fill:#ff0000;stroke:#ff0000;" x="346.123636" xlink:href="#m88e06d379e" y="132.564814"/>
     <use style="fill:#ff0000;stroke:#ff0000;" x="346.996364" xlink:href="#m88e06d379e" y="132.564814"/>
     <use style="fill:#ff0000;stroke:#ff0000;" x="347.869091" xlink:href="#m88e06d379e" y="132.564814"/>
     <use style="fill:#ff0000;stroke:#ff0000;" x="348.741818" xlink:href="#m88e06d379e" y="132.564814"/>
     <use style="fill:#ff0000;stroke:#ff0000;" x="349.614545" xlink:href="#m88e06d379e" y="132.564814"/>
     <use style="fill:#ff0000;stroke:#ff0000;" x="350.487273" xlink:href="#m88e06d379e" y="132.564814"/>
     <use style="fill:#ff0000;stroke:#ff0000;" x="351.36" xlink:href="#m88e06d379e" y="132.564814"/>
     <use style="fill:#ff0000;stroke:#ff0000;" x="352.232727" xlink:href="#m88e06d379e" y="132.564814"/>
     <use style="fill:#ff0000;stroke:#ff0000;" x="353.105455" xlink:href="#m88e06d379e" y="132.564814"/>
     <use style="fill:#ff0000;stroke:#ff0000;" x="353.978182" xlink:href="#m88e06d379e" y="132.564814"/>
     <use style="fill:#ff0000;stroke:#ff0000;" x="354.850909" xlink:href="#m88e06d379e" y="132.564814"/>
     <use style="fill:#ff0000;stroke:#ff0000;" x="355.723636" xlink:href="#m88e06d379e" y="132.564814"/>
     <use style="fill:#ff0000;stroke:#ff0000;" x="356.596364" xlink:href="#m88e06d379e" y="132.564814"/>
     <use style="fill:#ff0000;stroke:#ff0000;" x="357.469091" xlink:href="#m88e06d379e" y="132.564814"/>
     <use style="fill:#ff0000;stroke:#ff0000;" x="358.341818" xlink:href="#m88e06d379e" y="132.564814"/>
     <use style="fill:#ff0000;stroke:#ff0000;" x="359.214545" xlink:href="#m88e06d379e" y="132.564814"/>
     <use style="fill:#ff0000;stroke:#ff0000;" x="360.087273" xlink:href="#m88e06d379e" y="132.564814"/>
     <use style="fill:#ff0000;stroke:#ff0000;" x="360.96" xlink:href="#m88e06d379e" y="132.564814"/>
     <use style="fill:#ff0000;stroke:#ff0000;" x="361.832727" xlink:href="#m88e06d379e" y="132.564814"/>
     <use style="fill:#ff0000;stroke:#ff0000;" x="362.705455" xlink:href="#m88e06d379e" y="132.564814"/>
     <use style="fill:#ff0000;stroke:#ff0000;" x="363.578182" xlink:href="#m88e06d379e" y="132.564814"/>
     <use style="fill:#ff0000;stroke:#ff0000;" x="364.450909" xlink:href="#m88e06d379e" y="132.564814"/>
     <use style="fill:#ff0000;stroke:#ff0000;" x="365.323636" xlink:href="#m88e06d379e" y="132.564814"/>
     <use style="fill:#ff0000;stroke:#ff0000;" x="366.196364" xlink:href="#m88e06d379e" y="132.564814"/>
     <use style="fill:#ff0000;stroke:#ff0000;" x="367.069091" xlink:href="#m88e06d379e" y="132.564814"/>
     <use style="fill:#ff0000;stroke:#ff0000;" x="367.941818" xlink:href="#m88e06d379e" y="132.564814"/>
     <use style="fill:#ff0000;stroke:#ff0000;" x="368.814545" xlink:href="#m88e06d379e" y="132.564814"/>
     <use style="fill:#ff0000;stroke:#ff0000;" x="369.687273" xlink:href="#m88e06d379e" y="132.564814"/>
     <use style="fill:#ff0000;stroke:#ff0000;" x="370.56" xlink:href="#m88e06d379e" y="132.564814"/>
     <use style="fill:#ff0000;stroke:#ff0000;" x="371.432727" xlink:href="#m88e06d379e" y="132.564814"/>
     <use style="fill:#ff0000;stroke:#ff0000;" x="372.305455" xlink:href="#m88e06d379e" y="132.564814"/>
     <use style="fill:#ff0000;stroke:#ff0000;" x="373.178182" xlink:href="#m88e06d379e" y="132.564814"/>
     <use style="fill:#ff0000;stroke:#ff0000;" x="374.050909" xlink:href="#m88e06d379e" y="132.564814"/>
     <use style="fill:#ff0000;stroke:#ff0000;" x="374.923636" xlink:href="#m88e06d379e" y="132.564814"/>
     <use style="fill:#ff0000;stroke:#ff0000;" x="375.796364" xlink:href="#m88e06d379e" y="132.564814"/>
     <use style="fill:#ff0000;stroke:#ff0000;" x="376.669091" xlink:href="#m88e06d379e" y="132.564814"/>
     <use style="fill:#ff0000;stroke:#ff0000;" x="377.541818" xlink:href="#m88e06d379e" y="132.564814"/>
     <use style="fill:#ff0000;stroke:#ff0000;" x="378.414545" xlink:href="#m88e06d379e" y="132.564814"/>
     <use style="fill:#ff0000;stroke:#ff0000;" x="379.287273" xlink:href="#m88e06d379e" y="132.564814"/>
     <use style="fill:#ff0000;stroke:#ff0000;" x="380.16" xlink:href="#m88e06d379e" y="132.564814"/>
     <use style="fill:#ff0000;stroke:#ff0000;" x="381.032727" xlink:href="#m88e06d379e" y="132.564814"/>
     <use style="fill:#ff0000;stroke:#ff0000;" x="381.905455" xlink:href="#m88e06d379e" y="132.564814"/>
     <use style="fill:#ff0000;stroke:#ff0000;" x="382.778182" xlink:href="#m88e06d379e" y="132.564814"/>
     <use style="fill:#ff0000;stroke:#ff0000;" x="383.650909" xlink:href="#m88e06d379e" y="132.564814"/>
     <use style="fill:#ff0000;stroke:#ff0000;" x="384.523636" xlink:href="#m88e06d379e" y="132.564814"/>
     <use style="fill:#ff0000;stroke:#ff0000;" x="385.396364" xlink:href="#m88e06d379e" y="132.564814"/>
     <use style="fill:#ff0000;stroke:#ff0000;" x="386.269091" xlink:href="#m88e06d379e" y="132.564814"/>
     <use style="fill:#ff0000;stroke:#ff0000;" x="387.141818" xlink:href="#m88e06d379e" y="132.564814"/>
     <use style="fill:#ff0000;stroke:#ff0000;" x="388.014545" xlink:href="#m88e06d379e" y="132.564814"/>
     <use style="fill:#ff0000;stroke:#ff0000;" x="388.887273" xlink:href="#m88e06d379e" y="132.564814"/>
     <use style="fill:#ff0000;stroke:#ff0000;" x="389.76" xlink:href="#m88e06d379e" y="132.564814"/>
     <use style="fill:#ff0000;stroke:#ff0000;" x="390.632727" xlink:href="#m88e06d379e" y="132.564814"/>
     <use style="fill:#ff0000;stroke:#ff0000;" x="391.505455" xlink:href="#m88e06d379e" y="132.564814"/>
     <use style="fill:#ff0000;stroke:#ff0000;" x="392.378182" xlink:href="#m88e06d379e" y="132.564814"/>
     <use style="fill:#ff0000;stroke:#ff0000;" x="393.250909" xlink:href="#m88e06d379e" y="132.564814"/>
     <use style="fill:#ff0000;stroke:#ff0000;" x="394.123636" xlink:href="#m88e06d379e" y="132.564814"/>
     <use style="fill:#ff0000;stroke:#ff0000;" x="394.996364" xlink:href="#m88e06d379e" y="132.564814"/>
     <use style="fill:#ff0000;stroke:#ff0000;" x="395.869091" xlink:href="#m88e06d379e" y="132.564814"/>
     <use style="fill:#ff0000;stroke:#ff0000;" x="396.741818" xlink:href="#m88e06d379e" y="132.564814"/>
     <use style="fill:#ff0000;stroke:#ff0000;" x="397.614545" xlink:href="#m88e06d379e" y="132.564814"/>
     <use style="fill:#ff0000;stroke:#ff0000;" x="398.487273" xlink:href="#m88e06d379e" y="132.564814"/>
    </g>
   </g>
   <g id="patch_3">
    <path d="M 57.6 307.584 
L 57.6 41.472 
" style="fill:none;stroke:#000000;stroke-linecap:square;stroke-linejoin:miter;stroke-width:0.8;"/>
   </g>
   <g id="patch_4">
    <path d="M 414.72 307.584 
L 414.72 41.472 
" style="fill:none;stroke:#000000;stroke-linecap:square;stroke-linejoin:miter;stroke-width:0.8;"/>
   </g>
   <g id="patch_5">
    <path d="M 57.6 307.584 
L 414.72 307.584 
" style="fill:none;stroke:#000000;stroke-linecap:square;stroke-linejoin:miter;stroke-width:0.8;"/>
   </g>
   <g id="patch_6">
    <path d="M 57.6 41.472 
L 414.72 41.472 
" style="fill:none;stroke:#000000;stroke-linecap:square;stroke-linejoin:miter;stroke-width:0.8;"/>
   </g>
  </g>
 </g>
 <defs>
  <clipPath id="pdf2023b9d9">
   <rect height="266.112" width="357.12" x="57.6" y="41.472"/>
  </clipPath>
 </defs>
</svg>
