<?xml version="1.0" encoding="utf-8" standalone="no"?>
<!DOCTYPE svg PUBLIC "-//W3C//DTD SVG 1.1//EN"
  "http://www.w3.org/Graphics/SVG/1.1/DTD/svg11.dtd">
<!-- Created with matplotlib (https://matplotlib.org/) -->
<svg height="345.6pt" version="1.1" viewBox="0 0 460.8 345.6" width="460.8pt" xmlns="http://www.w3.org/2000/svg" xmlns:xlink="http://www.w3.org/1999/xlink">
 <defs>
  <style type="text/css">
*{stroke-linecap:butt;stroke-linejoin:round;}
  </style>
 </defs>
 <g id="figure_1">
  <g id="patch_1">
   <path d="M 0 345.6 
L 460.8 345.6 
L 460.8 0 
L 0 0 
z
" style="fill:#ffffff;"/>
  </g>
  <g id="axes_1">
   <g id="patch_2">
    <path d="M 57.6 307.584 
L 414.72 307.584 
L 414.72 41.472 
L 57.6 41.472 
z
" style="fill:#ffffff;"/>
   </g>
   <g id="line2d_1">
    <path clip-path="url(#p1b570b881a)" d="M 73.832727 266.204907 
L 75.666934 266.204907 
L 77.50114 259.173811 
L 81.169553 259.173811 
L 83.00376 290.907921 
L 84.837966 257.959136 
L 86.672173 257.959136 
L 88.506379 265.811012 
L 92.174792 265.811012 
L 94.008998 295.488 
L 99.511618 295.488 
L 101.345824 262.551316 
L 103.180031 262.551316 
L 105.014237 230.680338 
L 108.68265 230.680338 
L 110.516857 195.174159 
L 114.18527 195.174159 
L 116.019476 195.554599 
L 117.853683 195.554599 
L 119.687889 193.898783 
L 121.522096 193.898783 
L 123.356302 195.280583 
L 125.190508 195.280583 
L 127.024715 206.163119 
L 128.858921 206.163119 
L 130.693128 204.81066 
L 134.361541 204.81066 
L 136.195747 193.843059 
L 138.029954 193.843059 
L 141.698367 215.670018 
L 143.532573 215.670018 
L 145.36678 205.135004 
L 147.200986 205.135004 
L 149.035193 193.506419 
L 150.869399 193.506419 
L 152.703606 203.748611 
L 154.537812 203.748611 
L 156.372018 193.577083 
L 160.040431 193.577083 
L 161.874638 196.107152 
L 165.543051 196.107152 
L 167.377257 186.281278 
L 169.211464 197.619711 
L 172.879877 197.619711 
L 174.714083 199.452559 
L 176.54829 209.515208 
L 180.216703 209.515208 
L 182.050909 220.585577 
L 183.885116 209.793781 
L 187.553529 209.793781 
L 189.387735 199.421057 
L 191.221941 199.421057 
L 193.056148 210.140487 
L 194.890354 199.822903 
L 196.724561 199.822903 
L 198.558767 189.683946 
L 202.22718 189.683946 
L 204.061387 179.398819 
L 207.7298 179.398819 
L 209.564006 169.934499 
L 211.398213 169.934499 
L 213.232419 159.376572 
L 215.066626 159.376572 
L 216.900832 169.848446 
L 218.735039 169.848446 
L 220.569245 173.747189 
L 222.403451 174.606726 
L 227.906071 174.606726 
L 229.740277 164.649353 
L 231.574484 164.649353 
L 233.40869 154.697184 
L 235.242897 154.697184 
L 237.077103 165.352985 
L 238.91131 165.352985 
L 240.745516 154.670752 
L 244.413929 154.670752 
L 246.248136 143.061286 
L 248.082342 143.061286 
L 249.916549 134.398055 
L 251.750755 124.738698 
L 253.584961 124.738698 
L 255.419168 114.528025 
L 257.253374 114.528025 
L 259.087581 105.620766 
L 262.755994 105.620766 
L 264.5902 95.25316 
L 266.424407 107.347521 
L 270.09282 107.347521 
L 271.927026 117.220735 
L 273.761233 117.220735 
L 275.595439 129.600218 
L 277.429646 127.994102 
L 295.77171 127.994102 
L 297.605917 126.999643 
L 301.27433 126.999643 
L 303.108536 124.782141 
L 304.942743 124.782141 
L 306.776949 114.051871 
L 308.611156 114.051871 
L 310.445362 104.85094 
L 312.279569 104.85094 
L 314.113775 95.615199 
L 317.782188 95.615199 
L 319.616394 106.967544 
L 321.450601 106.967544 
L 323.284807 97.864842 
L 325.119014 97.864842 
L 326.95322 99.963162 
L 330.621633 99.963162 
L 332.45584 89.76381 
L 334.290046 89.76381 
L 336.124253 101.080758 
L 337.958459 92.988798 
L 339.792666 92.988798 
L 341.626872 103.581783 
L 345.295285 103.581783 
L 347.129492 93.650391 
L 348.963698 93.650391 
L 350.797904 84.593423 
L 356.300524 84.593423 
L 358.13473 74.533013 
L 359.968937 74.533013 
L 361.803143 73.228389 
L 363.63735 73.228389 
L 367.305763 53.568 
L 369.139969 53.568 
L 370.974176 66.21434 
L 372.808382 66.21434 
L 374.642589 77.480369 
L 376.476795 77.480369 
L 378.311002 88.894292 
L 381.979414 88.894292 
L 383.813621 102.202382 
L 385.647827 106.144818 
L 389.31624 106.144818 
L 391.150447 119.41961 
L 394.81886 119.41961 
L 396.653066 131.295173 
L 398.487273 131.295173 
L 398.487273 131.295173 
" style="fill:none;stroke:#ff0000;stroke-linecap:square;stroke-width:12;"/>
    <defs>
     <path d="M 0 3 
C 0.795609 3 1.55874 2.683901 2.12132 2.12132 
C 2.683901 1.55874 3 0.795609 3 0 
C 3 -0.795609 2.683901 -1.55874 2.12132 -2.12132 
C 1.55874 -2.683901 0.795609 -3 0 -3 
C -0.795609 -3 -1.55874 -2.683901 -2.12132 -2.12132 
C -2.683901 -1.55874 -3 -0.795609 -3 0 
C -3 0.795609 -2.683901 1.55874 -2.12132 2.12132 
C -1.55874 2.683901 -0.795609 3 0 3 
z
" id="m2acc403b3a" style="stroke:#ff0000;"/>
    </defs>
    <g clip-path="url(#p1b570b881a)">
     <use style="fill:#ff0000;stroke:#ff0000;" x="73.832727" xlink:href="#m2acc403b3a" y="266.204907"/>
     <use style="fill:#ff0000;stroke:#ff0000;" x="75.666934" xlink:href="#m2acc403b3a" y="266.204907"/>
     <use style="fill:#ff0000;stroke:#ff0000;" x="77.50114" xlink:href="#m2acc403b3a" y="259.173811"/>
     <use style="fill:#ff0000;stroke:#ff0000;" x="79.335347" xlink:href="#m2acc403b3a" y="259.173811"/>
     <use style="fill:#ff0000;stroke:#ff0000;" x="81.169553" xlink:href="#m2acc403b3a" y="259.173811"/>
     <use style="fill:#ff0000;stroke:#ff0000;" x="83.00376" xlink:href="#m2acc403b3a" y="290.907921"/>
     <use style="fill:#ff0000;stroke:#ff0000;" x="84.837966" xlink:href="#m2acc403b3a" y="257.959136"/>
     <use style="fill:#ff0000;stroke:#ff0000;" x="86.672173" xlink:href="#m2acc403b3a" y="257.959136"/>
     <use style="fill:#ff0000;stroke:#ff0000;" x="88.506379" xlink:href="#m2acc403b3a" y="265.811012"/>
     <use style="fill:#ff0000;stroke:#ff0000;" x="90.340586" xlink:href="#m2acc403b3a" y="265.811012"/>
     <use style="fill:#ff0000;stroke:#ff0000;" x="92.174792" xlink:href="#m2acc403b3a" y="265.811012"/>
     <use style="fill:#ff0000;stroke:#ff0000;" x="94.008998" xlink:href="#m2acc403b3a" y="295.488"/>
     <use style="fill:#ff0000;stroke:#ff0000;" x="95.843205" xlink:href="#m2acc403b3a" y="295.488"/>
     <use style="fill:#ff0000;stroke:#ff0000;" x="97.677411" xlink:href="#m2acc403b3a" y="295.488"/>
     <use style="fill:#ff0000;stroke:#ff0000;" x="99.511618" xlink:href="#m2acc403b3a" y="295.488"/>
     <use style="fill:#ff0000;stroke:#ff0000;" x="101.345824" xlink:href="#m2acc403b3a" y="262.551316"/>
     <use style="fill:#ff0000;stroke:#ff0000;" x="103.180031" xlink:href="#m2acc403b3a" y="262.551316"/>
     <use style="fill:#ff0000;stroke:#ff0000;" x="105.014237" xlink:href="#m2acc403b3a" y="230.680338"/>
     <use style="fill:#ff0000;stroke:#ff0000;" x="106.848444" xlink:href="#m2acc403b3a" y="230.680338"/>
     <use style="fill:#ff0000;stroke:#ff0000;" x="108.68265" xlink:href="#m2acc403b3a" y="230.680338"/>
     <use style="fill:#ff0000;stroke:#ff0000;" x="110.516857" xlink:href="#m2acc403b3a" y="195.174159"/>
     <use style="fill:#ff0000;stroke:#ff0000;" x="112.351063" xlink:href="#m2acc403b3a" y="195.174159"/>
     <use style="fill:#ff0000;stroke:#ff0000;" x="114.18527" xlink:href="#m2acc403b3a" y="195.174159"/>
     <use style="fill:#ff0000;stroke:#ff0000;" x="116.019476" xlink:href="#m2acc403b3a" y="195.554599"/>
     <use style="fill:#ff0000;stroke:#ff0000;" x="117.853683" xlink:href="#m2acc403b3a" y="195.554599"/>
     <use style="fill:#ff0000;stroke:#ff0000;" x="119.687889" xlink:href="#m2acc403b3a" y="193.898783"/>
     <use style="fill:#ff0000;stroke:#ff0000;" x="121.522096" xlink:href="#m2acc403b3a" y="193.898783"/>
     <use style="fill:#ff0000;stroke:#ff0000;" x="123.356302" xlink:href="#m2acc403b3a" y="195.280583"/>
     <use style="fill:#ff0000;stroke:#ff0000;" x="125.190508" xlink:href="#m2acc403b3a" y="195.280583"/>
     <use style="fill:#ff0000;stroke:#ff0000;" x="127.024715" xlink:href="#m2acc403b3a" y="206.163119"/>
     <use style="fill:#ff0000;stroke:#ff0000;" x="128.858921" xlink:href="#m2acc403b3a" y="206.163119"/>
     <use style="fill:#ff0000;stroke:#ff0000;" x="130.693128" xlink:href="#m2acc403b3a" y="204.81066"/>
     <use style="fill:#ff0000;stroke:#ff0000;" x="132.527334" xlink:href="#m2acc403b3a" y="204.81066"/>
     <use style="fill:#ff0000;stroke:#ff0000;" x="134.361541" xlink:href="#m2acc403b3a" y="204.81066"/>
     <use style="fill:#ff0000;stroke:#ff0000;" x="136.195747" xlink:href="#m2acc403b3a" y="193.843059"/>
     <use style="fill:#ff0000;stroke:#ff0000;" x="138.029954" xlink:href="#m2acc403b3a" y="193.843059"/>
     <use style="fill:#ff0000;stroke:#ff0000;" x="139.86416" xlink:href="#m2acc403b3a" y="204.687576"/>
     <use style="fill:#ff0000;stroke:#ff0000;" x="141.698367" xlink:href="#m2acc403b3a" y="215.670018"/>
     <use style="fill:#ff0000;stroke:#ff0000;" x="143.532573" xlink:href="#m2acc403b3a" y="215.670018"/>
     <use style="fill:#ff0000;stroke:#ff0000;" x="145.36678" xlink:href="#m2acc403b3a" y="205.135004"/>
     <use style="fill:#ff0000;stroke:#ff0000;" x="147.200986" xlink:href="#m2acc403b3a" y="205.135004"/>
     <use style="fill:#ff0000;stroke:#ff0000;" x="149.035193" xlink:href="#m2acc403b3a" y="193.506419"/>
     <use style="fill:#ff0000;stroke:#ff0000;" x="150.869399" xlink:href="#m2acc403b3a" y="193.506419"/>
     <use style="fill:#ff0000;stroke:#ff0000;" x="152.703606" xlink:href="#m2acc403b3a" y="203.748611"/>
     <use style="fill:#ff0000;stroke:#ff0000;" x="154.537812" xlink:href="#m2acc403b3a" y="203.748611"/>
     <use style="fill:#ff0000;stroke:#ff0000;" x="156.372018" xlink:href="#m2acc403b3a" y="193.577083"/>
     <use style="fill:#ff0000;stroke:#ff0000;" x="158.206225" xlink:href="#m2acc403b3a" y="193.577083"/>
     <use style="fill:#ff0000;stroke:#ff0000;" x="160.040431" xlink:href="#m2acc403b3a" y="193.577083"/>
     <use style="fill:#ff0000;stroke:#ff0000;" x="161.874638" xlink:href="#m2acc403b3a" y="196.107152"/>
     <use style="fill:#ff0000;stroke:#ff0000;" x="163.708844" xlink:href="#m2acc403b3a" y="196.107152"/>
     <use style="fill:#ff0000;stroke:#ff0000;" x="165.543051" xlink:href="#m2acc403b3a" y="196.107152"/>
     <use style="fill:#ff0000;stroke:#ff0000;" x="167.377257" xlink:href="#m2acc403b3a" y="186.281278"/>
     <use style="fill:#ff0000;stroke:#ff0000;" x="169.211464" xlink:href="#m2acc403b3a" y="197.619711"/>
     <use style="fill:#ff0000;stroke:#ff0000;" x="171.04567" xlink:href="#m2acc403b3a" y="197.619711"/>
     <use style="fill:#ff0000;stroke:#ff0000;" x="172.879877" xlink:href="#m2acc403b3a" y="197.619711"/>
     <use style="fill:#ff0000;stroke:#ff0000;" x="174.714083" xlink:href="#m2acc403b3a" y="199.452559"/>
     <use style="fill:#ff0000;stroke:#ff0000;" x="176.54829" xlink:href="#m2acc403b3a" y="209.515208"/>
     <use style="fill:#ff0000;stroke:#ff0000;" x="178.382496" xlink:href="#m2acc403b3a" y="209.515208"/>
     <use style="fill:#ff0000;stroke:#ff0000;" x="180.216703" xlink:href="#m2acc403b3a" y="209.515208"/>
     <use style="fill:#ff0000;stroke:#ff0000;" x="182.050909" xlink:href="#m2acc403b3a" y="220.585577"/>
     <use style="fill:#ff0000;stroke:#ff0000;" x="183.885116" xlink:href="#m2acc403b3a" y="209.793781"/>
     <use style="fill:#ff0000;stroke:#ff0000;" x="185.719322" xlink:href="#m2acc403b3a" y="209.793781"/>
     <use style="fill:#ff0000;stroke:#ff0000;" x="187.553529" xlink:href="#m2acc403b3a" y="209.793781"/>
     <use style="fill:#ff0000;stroke:#ff0000;" x="189.387735" xlink:href="#m2acc403b3a" y="199.421057"/>
     <use style="fill:#ff0000;stroke:#ff0000;" x="191.221941" xlink:href="#m2acc403b3a" y="199.421057"/>
     <use style="fill:#ff0000;stroke:#ff0000;" x="193.056148" xlink:href="#m2acc403b3a" y="210.140487"/>
     <use style="fill:#ff0000;stroke:#ff0000;" x="194.890354" xlink:href="#m2acc403b3a" y="199.822903"/>
     <use style="fill:#ff0000;stroke:#ff0000;" x="196.724561" xlink:href="#m2acc403b3a" y="199.822903"/>
     <use style="fill:#ff0000;stroke:#ff0000;" x="198.558767" xlink:href="#m2acc403b3a" y="189.683946"/>
     <use style="fill:#ff0000;stroke:#ff0000;" x="200.392974" xlink:href="#m2acc403b3a" y="189.683946"/>
     <use style="fill:#ff0000;stroke:#ff0000;" x="202.22718" xlink:href="#m2acc403b3a" y="189.683946"/>
     <use style="fill:#ff0000;stroke:#ff0000;" x="204.061387" xlink:href="#m2acc403b3a" y="179.398819"/>
     <use style="fill:#ff0000;stroke:#ff0000;" x="205.895593" xlink:href="#m2acc403b3a" y="179.398819"/>
     <use style="fill:#ff0000;stroke:#ff0000;" x="207.7298" xlink:href="#m2acc403b3a" y="179.398819"/>
     <use style="fill:#ff0000;stroke:#ff0000;" x="209.564006" xlink:href="#m2acc403b3a" y="169.934499"/>
     <use style="fill:#ff0000;stroke:#ff0000;" x="211.398213" xlink:href="#m2acc403b3a" y="169.934499"/>
     <use style="fill:#ff0000;stroke:#ff0000;" x="213.232419" xlink:href="#m2acc403b3a" y="159.376572"/>
     <use style="fill:#ff0000;stroke:#ff0000;" x="215.066626" xlink:href="#m2acc403b3a" y="159.376572"/>
     <use style="fill:#ff0000;stroke:#ff0000;" x="216.900832" xlink:href="#m2acc403b3a" y="169.848446"/>
     <use style="fill:#ff0000;stroke:#ff0000;" x="218.735039" xlink:href="#m2acc403b3a" y="169.848446"/>
     <use style="fill:#ff0000;stroke:#ff0000;" x="220.569245" xlink:href="#m2acc403b3a" y="173.747189"/>
     <use style="fill:#ff0000;stroke:#ff0000;" x="222.403451" xlink:href="#m2acc403b3a" y="174.606726"/>
     <use style="fill:#ff0000;stroke:#ff0000;" x="224.237658" xlink:href="#m2acc403b3a" y="174.606726"/>
     <use style="fill:#ff0000;stroke:#ff0000;" x="226.071864" xlink:href="#m2acc403b3a" y="174.606726"/>
     <use style="fill:#ff0000;stroke:#ff0000;" x="227.906071" xlink:href="#m2acc403b3a" y="174.606726"/>
     <use style="fill:#ff0000;stroke:#ff0000;" x="229.740277" xlink:href="#m2acc403b3a" y="164.649353"/>
     <use style="fill:#ff0000;stroke:#ff0000;" x="231.574484" xlink:href="#m2acc403b3a" y="164.649353"/>
     <use style="fill:#ff0000;stroke:#ff0000;" x="233.40869" xlink:href="#m2acc403b3a" y="154.697184"/>
     <use style="fill:#ff0000;stroke:#ff0000;" x="235.242897" xlink:href="#m2acc403b3a" y="154.697184"/>
     <use style="fill:#ff0000;stroke:#ff0000;" x="237.077103" xlink:href="#m2acc403b3a" y="165.352985"/>
     <use style="fill:#ff0000;stroke:#ff0000;" x="238.91131" xlink:href="#m2acc403b3a" y="165.352985"/>
     <use style="fill:#ff0000;stroke:#ff0000;" x="240.745516" xlink:href="#m2acc403b3a" y="154.670752"/>
     <use style="fill:#ff0000;stroke:#ff0000;" x="242.579723" xlink:href="#m2acc403b3a" y="154.670752"/>
     <use style="fill:#ff0000;stroke:#ff0000;" x="244.413929" xlink:href="#m2acc403b3a" y="154.670752"/>
     <use style="fill:#ff0000;stroke:#ff0000;" x="246.248136" xlink:href="#m2acc403b3a" y="143.061286"/>
     <use style="fill:#ff0000;stroke:#ff0000;" x="248.082342" xlink:href="#m2acc403b3a" y="143.061286"/>
     <use style="fill:#ff0000;stroke:#ff0000;" x="249.916549" xlink:href="#m2acc403b3a" y="134.398055"/>
     <use style="fill:#ff0000;stroke:#ff0000;" x="251.750755" xlink:href="#m2acc403b3a" y="124.738698"/>
     <use style="fill:#ff0000;stroke:#ff0000;" x="253.584961" xlink:href="#m2acc403b3a" y="124.738698"/>
     <use style="fill:#ff0000;stroke:#ff0000;" x="255.419168" xlink:href="#m2acc403b3a" y="114.528025"/>
     <use style="fill:#ff0000;stroke:#ff0000;" x="257.253374" xlink:href="#m2acc403b3a" y="114.528025"/>
     <use style="fill:#ff0000;stroke:#ff0000;" x="259.087581" xlink:href="#m2acc403b3a" y="105.620766"/>
     <use style="fill:#ff0000;stroke:#ff0000;" x="260.921787" xlink:href="#m2acc403b3a" y="105.620766"/>
     <use style="fill:#ff0000;stroke:#ff0000;" x="262.755994" xlink:href="#m2acc403b3a" y="105.620766"/>
     <use style="fill:#ff0000;stroke:#ff0000;" x="264.5902" xlink:href="#m2acc403b3a" y="95.25316"/>
     <use style="fill:#ff0000;stroke:#ff0000;" x="266.424407" xlink:href="#m2acc403b3a" y="107.347521"/>
     <use style="fill:#ff0000;stroke:#ff0000;" x="268.258613" xlink:href="#m2acc403b3a" y="107.347521"/>
     <use style="fill:#ff0000;stroke:#ff0000;" x="270.09282" xlink:href="#m2acc403b3a" y="107.347521"/>
     <use style="fill:#ff0000;stroke:#ff0000;" x="271.927026" xlink:href="#m2acc403b3a" y="117.220735"/>
     <use style="fill:#ff0000;stroke:#ff0000;" x="273.761233" xlink:href="#m2acc403b3a" y="117.220735"/>
     <use style="fill:#ff0000;stroke:#ff0000;" x="275.595439" xlink:href="#m2acc403b3a" y="129.600218"/>
     <use style="fill:#ff0000;stroke:#ff0000;" x="277.429646" xlink:href="#m2acc403b3a" y="127.994102"/>
     <use style="fill:#ff0000;stroke:#ff0000;" x="279.263852" xlink:href="#m2acc403b3a" y="127.994102"/>
     <use style="fill:#ff0000;stroke:#ff0000;" x="281.098059" xlink:href="#m2acc403b3a" y="127.994102"/>
     <use style="fill:#ff0000;stroke:#ff0000;" x="282.932265" xlink:href="#m2acc403b3a" y="127.994102"/>
     <use style="fill:#ff0000;stroke:#ff0000;" x="284.766471" xlink:href="#m2acc403b3a" y="127.994102"/>
     <use style="fill:#ff0000;stroke:#ff0000;" x="286.600678" xlink:href="#m2acc403b3a" y="127.994102"/>
     <use style="fill:#ff0000;stroke:#ff0000;" x="288.434884" xlink:href="#m2acc403b3a" y="127.994102"/>
     <use style="fill:#ff0000;stroke:#ff0000;" x="290.269091" xlink:href="#m2acc403b3a" y="127.994102"/>
     <use style="fill:#ff0000;stroke:#ff0000;" x="292.103297" xlink:href="#m2acc403b3a" y="127.994102"/>
     <use style="fill:#ff0000;stroke:#ff0000;" x="293.937504" xlink:href="#m2acc403b3a" y="127.994102"/>
     <use style="fill:#ff0000;stroke:#ff0000;" x="295.77171" xlink:href="#m2acc403b3a" y="127.994102"/>
     <use style="fill:#ff0000;stroke:#ff0000;" x="297.605917" xlink:href="#m2acc403b3a" y="126.999643"/>
     <use style="fill:#ff0000;stroke:#ff0000;" x="299.440123" xlink:href="#m2acc403b3a" y="126.999643"/>
     <use style="fill:#ff0000;stroke:#ff0000;" x="301.27433" xlink:href="#m2acc403b3a" y="126.999643"/>
     <use style="fill:#ff0000;stroke:#ff0000;" x="303.108536" xlink:href="#m2acc403b3a" y="124.782141"/>
     <use style="fill:#ff0000;stroke:#ff0000;" x="304.942743" xlink:href="#m2acc403b3a" y="124.782141"/>
     <use style="fill:#ff0000;stroke:#ff0000;" x="306.776949" xlink:href="#m2acc403b3a" y="114.051871"/>
     <use style="fill:#ff0000;stroke:#ff0000;" x="308.611156" xlink:href="#m2acc403b3a" y="114.051871"/>
     <use style="fill:#ff0000;stroke:#ff0000;" x="310.445362" xlink:href="#m2acc403b3a" y="104.85094"/>
     <use style="fill:#ff0000;stroke:#ff0000;" x="312.279569" xlink:href="#m2acc403b3a" y="104.85094"/>
     <use style="fill:#ff0000;stroke:#ff0000;" x="314.113775" xlink:href="#m2acc403b3a" y="95.615199"/>
     <use style="fill:#ff0000;stroke:#ff0000;" x="315.947982" xlink:href="#m2acc403b3a" y="95.615199"/>
     <use style="fill:#ff0000;stroke:#ff0000;" x="317.782188" xlink:href="#m2acc403b3a" y="95.615199"/>
     <use style="fill:#ff0000;stroke:#ff0000;" x="319.616394" xlink:href="#m2acc403b3a" y="106.967544"/>
     <use style="fill:#ff0000;stroke:#ff0000;" x="321.450601" xlink:href="#m2acc403b3a" y="106.967544"/>
     <use style="fill:#ff0000;stroke:#ff0000;" x="323.284807" xlink:href="#m2acc403b3a" y="97.864842"/>
     <use style="fill:#ff0000;stroke:#ff0000;" x="325.119014" xlink:href="#m2acc403b3a" y="97.864842"/>
     <use style="fill:#ff0000;stroke:#ff0000;" x="326.95322" xlink:href="#m2acc403b3a" y="99.963162"/>
     <use style="fill:#ff0000;stroke:#ff0000;" x="328.787427" xlink:href="#m2acc403b3a" y="99.963162"/>
     <use style="fill:#ff0000;stroke:#ff0000;" x="330.621633" xlink:href="#m2acc403b3a" y="99.963162"/>
     <use style="fill:#ff0000;stroke:#ff0000;" x="332.45584" xlink:href="#m2acc403b3a" y="89.76381"/>
     <use style="fill:#ff0000;stroke:#ff0000;" x="334.290046" xlink:href="#m2acc403b3a" y="89.76381"/>
     <use style="fill:#ff0000;stroke:#ff0000;" x="336.124253" xlink:href="#m2acc403b3a" y="101.080758"/>
     <use style="fill:#ff0000;stroke:#ff0000;" x="337.958459" xlink:href="#m2acc403b3a" y="92.988798"/>
     <use style="fill:#ff0000;stroke:#ff0000;" x="339.792666" xlink:href="#m2acc403b3a" y="92.988798"/>
     <use style="fill:#ff0000;stroke:#ff0000;" x="341.626872" xlink:href="#m2acc403b3a" y="103.581783"/>
     <use style="fill:#ff0000;stroke:#ff0000;" x="343.461079" xlink:href="#m2acc403b3a" y="103.581783"/>
     <use style="fill:#ff0000;stroke:#ff0000;" x="345.295285" xlink:href="#m2acc403b3a" y="103.581783"/>
     <use style="fill:#ff0000;stroke:#ff0000;" x="347.129492" xlink:href="#m2acc403b3a" y="93.650391"/>
     <use style="fill:#ff0000;stroke:#ff0000;" x="348.963698" xlink:href="#m2acc403b3a" y="93.650391"/>
     <use style="fill:#ff0000;stroke:#ff0000;" x="350.797904" xlink:href="#m2acc403b3a" y="84.593423"/>
     <use style="fill:#ff0000;stroke:#ff0000;" x="352.632111" xlink:href="#m2acc403b3a" y="84.593423"/>
     <use style="fill:#ff0000;stroke:#ff0000;" x="354.466317" xlink:href="#m2acc403b3a" y="84.593423"/>
     <use style="fill:#ff0000;stroke:#ff0000;" x="356.300524" xlink:href="#m2acc403b3a" y="84.593423"/>
     <use style="fill:#ff0000;stroke:#ff0000;" x="358.13473" xlink:href="#m2acc403b3a" y="74.533013"/>
     <use style="fill:#ff0000;stroke:#ff0000;" x="359.968937" xlink:href="#m2acc403b3a" y="74.533013"/>
     <use style="fill:#ff0000;stroke:#ff0000;" x="361.803143" xlink:href="#m2acc403b3a" y="73.228389"/>
     <use style="fill:#ff0000;stroke:#ff0000;" x="363.63735" xlink:href="#m2acc403b3a" y="73.228389"/>
     <use style="fill:#ff0000;stroke:#ff0000;" x="365.471556" xlink:href="#m2acc403b3a" y="63.542541"/>
     <use style="fill:#ff0000;stroke:#ff0000;" x="367.305763" xlink:href="#m2acc403b3a" y="53.568"/>
     <use style="fill:#ff0000;stroke:#ff0000;" x="369.139969" xlink:href="#m2acc403b3a" y="53.568"/>
     <use style="fill:#ff0000;stroke:#ff0000;" x="370.974176" xlink:href="#m2acc403b3a" y="66.21434"/>
     <use style="fill:#ff0000;stroke:#ff0000;" x="372.808382" xlink:href="#m2acc403b3a" y="66.21434"/>
     <use style="fill:#ff0000;stroke:#ff0000;" x="374.642589" xlink:href="#m2acc403b3a" y="77.480369"/>
     <use style="fill:#ff0000;stroke:#ff0000;" x="376.476795" xlink:href="#m2acc403b3a" y="77.480369"/>
     <use style="fill:#ff0000;stroke:#ff0000;" x="378.311002" xlink:href="#m2acc403b3a" y="88.894292"/>
     <use style="fill:#ff0000;stroke:#ff0000;" x="380.145208" xlink:href="#m2acc403b3a" y="88.894292"/>
     <use style="fill:#ff0000;stroke:#ff0000;" x="381.979414" xlink:href="#m2acc403b3a" y="88.894292"/>
     <use style="fill:#ff0000;stroke:#ff0000;" x="383.813621" xlink:href="#m2acc403b3a" y="102.202382"/>
     <use style="fill:#ff0000;stroke:#ff0000;" x="385.647827" xlink:href="#m2acc403b3a" y="106.144818"/>
     <use style="fill:#ff0000;stroke:#ff0000;" x="387.482034" xlink:href="#m2acc403b3a" y="106.144818"/>
     <use style="fill:#ff0000;stroke:#ff0000;" x="389.31624" xlink:href="#m2acc403b3a" y="106.144818"/>
     <use style="fill:#ff0000;stroke:#ff0000;" x="391.150447" xlink:href="#m2acc403b3a" y="119.41961"/>
     <use style="fill:#ff0000;stroke:#ff0000;" x="392.984653" xlink:href="#m2acc403b3a" y="119.41961"/>
     <use style="fill:#ff0000;stroke:#ff0000;" x="394.81886" xlink:href="#m2acc403b3a" y="119.41961"/>
     <use style="fill:#ff0000;stroke:#ff0000;" x="396.653066" xlink:href="#m2acc403b3a" y="131.295173"/>
     <use style="fill:#ff0000;stroke:#ff0000;" x="398.487273" xlink:href="#m2acc403b3a" y="131.295173"/>
    </g>
   </g>
   <g id="patch_3">
    <path d="M 57.6 307.584 
L 57.6 41.472 
" style="fill:none;stroke:#000000;stroke-linecap:square;stroke-linejoin:miter;stroke-width:0.8;"/>
   </g>
   <g id="patch_4">
    <path d="M 414.72 307.584 
L 414.72 41.472 
" style="fill:none;stroke:#000000;stroke-linecap:square;stroke-linejoin:miter;stroke-width:0.8;"/>
   </g>
   <g id="patch_5">
    <path d="M 57.6 307.584 
L 414.72 307.584 
" style="fill:none;stroke:#000000;stroke-linecap:square;stroke-linejoin:miter;stroke-width:0.8;"/>
   </g>
   <g id="patch_6">
    <path d="M 57.6 41.472 
L 414.72 41.472 
" style="fill:none;stroke:#000000;stroke-linecap:square;stroke-linejoin:miter;stroke-width:0.8;"/>
   </g>
  </g>
 </g>
 <defs>
  <clipPath id="p1b570b881a">
   <rect height="266.112" width="357.12" x="57.6" y="41.472"/>
  </clipPath>
 </defs>
</svg>
