<?xml version="1.0" encoding="utf-8" standalone="no"?>
<!DOCTYPE svg PUBLIC "-//W3C//DTD SVG 1.1//EN"
  "http://www.w3.org/Graphics/SVG/1.1/DTD/svg11.dtd">
<!-- Created with matplotlib (https://matplotlib.org/) -->
<svg height="345.6pt" version="1.1" viewBox="0 0 460.8 345.6" width="460.8pt" xmlns="http://www.w3.org/2000/svg" xmlns:xlink="http://www.w3.org/1999/xlink">
 <defs>
  <style type="text/css">
*{stroke-linecap:butt;stroke-linejoin:round;}
  </style>
 </defs>
 <g id="figure_1">
  <g id="patch_1">
   <path d="M 0 345.6 
L 460.8 345.6 
L 460.8 0 
L 0 0 
z
" style="fill:#ffffff;"/>
  </g>
  <g id="axes_1">
   <g id="patch_2">
    <path d="M 57.6 307.584 
L 414.72 307.584 
L 414.72 41.472 
L 57.6 41.472 
z
" style="fill:#ffffff;"/>
   </g>
   <g id="line2d_1">
    <path clip-path="url(#pc44ccc85e5)" d="M 73.832727 217.816315 
L 74.673801 201.596267 
L 75.514875 283.396766 
L 78.038097 283.396766 
L 78.879171 197.385495 
L 79.720245 197.385495 
L 80.561319 116.726285 
L 81.402393 116.726285 
L 82.243467 201.794204 
L 85.607763 201.794204 
L 86.448837 123.003832 
L 87.289911 123.003832 
L 88.130984 207.832334 
L 89.813132 207.832334 
L 90.654206 295.488 
L 91.49528 295.488 
L 92.336354 214.942487 
L 93.177428 214.942487 
L 94.018502 195.541412 
L 95.70065 195.541412 
L 96.541724 226.181763 
L 97.382798 226.181763 
L 98.223872 198.367577 
L 99.064946 198.367577 
L 99.90602 228.461626 
L 100.747094 234.500773 
L 101.588168 234.500773 
L 102.429242 207.086584 
L 104.11139 207.086584 
L 104.952463 180.085087 
L 105.793537 182.715958 
L 106.634611 182.715958 
L 107.475685 155.689699 
L 109.157833 155.689699 
L 109.998907 130.827532 
L 110.839981 130.827532 
L 111.681055 104.62798 
L 112.522129 104.62798 
L 113.363203 130.659684 
L 115.886425 130.659684 
L 116.727499 102.460539 
L 117.568573 130.000216 
L 118.409647 130.000216 
L 119.250721 106.65284 
L 120.932869 106.65284 
L 121.773943 78.831988 
L 122.615016 78.831988 
L 123.45609 106.77434 
L 125.138238 106.77434 
L 125.979312 133.873015 
L 126.820386 133.873015 
L 127.66146 130.607586 
L 128.502534 130.607586 
L 129.343608 157.767359 
L 131.025756 157.767359 
L 131.86683 186.619168 
L 132.707904 186.619168 
L 133.548978 163.258245 
L 134.390052 163.258245 
L 135.231126 169.201096 
L 136.0722 169.201096 
L 136.913274 142.628072 
L 138.595422 142.628072 
L 139.436496 116.911583 
L 140.277569 116.911583 
L 141.959717 66.743977 
L 144.482939 66.743977 
L 145.324013 64.76157 
L 146.165087 90.395797 
L 147.847235 90.395797 
L 148.688309 66.039995 
L 151.211531 66.039995 
L 152.052605 94.59198 
L 152.893679 92.329238 
L 154.575827 92.329238 
L 155.416901 116.376569 
L 156.257975 116.376569 
L 157.099049 109.293871 
L 157.940122 109.293871 
L 158.781196 103.193329 
L 159.62227 79.554912 
L 160.463344 79.554912 
L 161.304418 54.232527 
L 162.986566 54.232527 
L 164.668714 108.729831 
L 172.23838 108.729831 
L 173.079454 136.611865 
L 173.920528 136.611865 
L 174.761602 162.347245 
L 175.602675 162.347245 
L 176.443749 190.349444 
L 178.125897 190.349444 
L 178.966971 163.020403 
L 179.808045 163.020403 
L 180.649119 137.671805 
L 181.490193 137.671805 
L 182.331267 110.88038 
L 184.013415 110.88038 
L 184.854489 83.853326 
L 185.695563 83.853326 
L 186.536637 110.299892 
L 187.377711 110.299892 
L 188.218785 84.978586 
L 189.059859 84.978586 
L 189.900933 108.024752 
L 190.742007 134.665801 
L 192.424154 134.665801 
L 193.265228 111.198503 
L 194.106302 82.27402 
L 195.78845 82.27402 
L 196.629524 109.019944 
L 197.470598 109.019944 
L 198.311672 105.427102 
L 199.152746 105.427102 
L 200.834894 161.006978 
L 201.675968 161.006978 
L 202.517042 163.377799 
L 203.358116 163.377799 
L 204.19919 189.1975 
L 205.040264 189.1975 
L 205.881338 160.5798 
L 206.722412 160.5798 
L 207.563486 186.68873 
L 208.40456 156.64243 
L 210.086707 156.64243 
L 210.927781 128.302989 
L 211.768855 131.531396 
L 213.451003 131.531396 
L 214.292077 156.541618 
L 215.133151 156.541618 
L 215.974225 185.764043 
L 217.656373 185.764043 
L 218.497447 160.95249 
L 219.338521 160.95249 
L 220.179595 132.843128 
L 221.020669 132.843128 
L 221.861743 104.9536 
L 222.702817 104.9536 
L 223.543891 76.802467 
L 224.384965 53.568 
L 225.226039 53.568 
L 226.067113 78.942557 
L 227.74926 78.942557 
L 228.590334 83.11447 
L 229.431408 60.703333 
L 398.487273 60.703333 
L 398.487273 60.703333 
" style="fill:none;stroke:#ff0000;stroke-linecap:square;stroke-width:12;"/>
    <defs>
     <path d="M 0 3 
C 0.795609 3 1.55874 2.683901 2.12132 2.12132 
C 2.683901 1.55874 3 0.795609 3 0 
C 3 -0.795609 2.683901 -1.55874 2.12132 -2.12132 
C 1.55874 -2.683901 0.795609 -3 0 -3 
C -0.795609 -3 -1.55874 -2.683901 -2.12132 -2.12132 
C -2.683901 -1.55874 -3 -0.795609 -3 0 
C -3 0.795609 -2.683901 1.55874 -2.12132 2.12132 
C -1.55874 2.683901 -0.795609 3 0 3 
z
" id="m7e4d06b554" style="stroke:#ff0000;"/>
    </defs>
    <g clip-path="url(#pc44ccc85e5)">
     <use style="fill:#ff0000;stroke:#ff0000;" x="73.832727" xlink:href="#m7e4d06b554" y="217.816315"/>
     <use style="fill:#ff0000;stroke:#ff0000;" x="74.673801" xlink:href="#m7e4d06b554" y="201.596267"/>
     <use style="fill:#ff0000;stroke:#ff0000;" x="75.514875" xlink:href="#m7e4d06b554" y="283.396766"/>
     <use style="fill:#ff0000;stroke:#ff0000;" x="76.355949" xlink:href="#m7e4d06b554" y="283.396766"/>
     <use style="fill:#ff0000;stroke:#ff0000;" x="77.197023" xlink:href="#m7e4d06b554" y="283.396766"/>
     <use style="fill:#ff0000;stroke:#ff0000;" x="78.038097" xlink:href="#m7e4d06b554" y="283.396766"/>
     <use style="fill:#ff0000;stroke:#ff0000;" x="78.879171" xlink:href="#m7e4d06b554" y="197.385495"/>
     <use style="fill:#ff0000;stroke:#ff0000;" x="79.720245" xlink:href="#m7e4d06b554" y="197.385495"/>
     <use style="fill:#ff0000;stroke:#ff0000;" x="80.561319" xlink:href="#m7e4d06b554" y="116.726285"/>
     <use style="fill:#ff0000;stroke:#ff0000;" x="81.402393" xlink:href="#m7e4d06b554" y="116.726285"/>
     <use style="fill:#ff0000;stroke:#ff0000;" x="82.243467" xlink:href="#m7e4d06b554" y="201.794204"/>
     <use style="fill:#ff0000;stroke:#ff0000;" x="83.084541" xlink:href="#m7e4d06b554" y="201.794204"/>
     <use style="fill:#ff0000;stroke:#ff0000;" x="83.925615" xlink:href="#m7e4d06b554" y="201.794204"/>
     <use style="fill:#ff0000;stroke:#ff0000;" x="84.766689" xlink:href="#m7e4d06b554" y="201.794204"/>
     <use style="fill:#ff0000;stroke:#ff0000;" x="85.607763" xlink:href="#m7e4d06b554" y="201.794204"/>
     <use style="fill:#ff0000;stroke:#ff0000;" x="86.448837" xlink:href="#m7e4d06b554" y="123.003832"/>
     <use style="fill:#ff0000;stroke:#ff0000;" x="87.289911" xlink:href="#m7e4d06b554" y="123.003832"/>
     <use style="fill:#ff0000;stroke:#ff0000;" x="88.130984" xlink:href="#m7e4d06b554" y="207.832334"/>
     <use style="fill:#ff0000;stroke:#ff0000;" x="88.972058" xlink:href="#m7e4d06b554" y="207.832334"/>
     <use style="fill:#ff0000;stroke:#ff0000;" x="89.813132" xlink:href="#m7e4d06b554" y="207.832334"/>
     <use style="fill:#ff0000;stroke:#ff0000;" x="90.654206" xlink:href="#m7e4d06b554" y="295.488"/>
     <use style="fill:#ff0000;stroke:#ff0000;" x="91.49528" xlink:href="#m7e4d06b554" y="295.488"/>
     <use style="fill:#ff0000;stroke:#ff0000;" x="92.336354" xlink:href="#m7e4d06b554" y="214.942487"/>
     <use style="fill:#ff0000;stroke:#ff0000;" x="93.177428" xlink:href="#m7e4d06b554" y="214.942487"/>
     <use style="fill:#ff0000;stroke:#ff0000;" x="94.018502" xlink:href="#m7e4d06b554" y="195.541412"/>
     <use style="fill:#ff0000;stroke:#ff0000;" x="94.859576" xlink:href="#m7e4d06b554" y="195.541412"/>
     <use style="fill:#ff0000;stroke:#ff0000;" x="95.70065" xlink:href="#m7e4d06b554" y="195.541412"/>
     <use style="fill:#ff0000;stroke:#ff0000;" x="96.541724" xlink:href="#m7e4d06b554" y="226.181763"/>
     <use style="fill:#ff0000;stroke:#ff0000;" x="97.382798" xlink:href="#m7e4d06b554" y="226.181763"/>
     <use style="fill:#ff0000;stroke:#ff0000;" x="98.223872" xlink:href="#m7e4d06b554" y="198.367577"/>
     <use style="fill:#ff0000;stroke:#ff0000;" x="99.064946" xlink:href="#m7e4d06b554" y="198.367577"/>
     <use style="fill:#ff0000;stroke:#ff0000;" x="99.90602" xlink:href="#m7e4d06b554" y="228.461626"/>
     <use style="fill:#ff0000;stroke:#ff0000;" x="100.747094" xlink:href="#m7e4d06b554" y="234.500773"/>
     <use style="fill:#ff0000;stroke:#ff0000;" x="101.588168" xlink:href="#m7e4d06b554" y="234.500773"/>
     <use style="fill:#ff0000;stroke:#ff0000;" x="102.429242" xlink:href="#m7e4d06b554" y="207.086584"/>
     <use style="fill:#ff0000;stroke:#ff0000;" x="103.270316" xlink:href="#m7e4d06b554" y="207.086584"/>
     <use style="fill:#ff0000;stroke:#ff0000;" x="104.11139" xlink:href="#m7e4d06b554" y="207.086584"/>
     <use style="fill:#ff0000;stroke:#ff0000;" x="104.952463" xlink:href="#m7e4d06b554" y="180.085087"/>
     <use style="fill:#ff0000;stroke:#ff0000;" x="105.793537" xlink:href="#m7e4d06b554" y="182.715958"/>
     <use style="fill:#ff0000;stroke:#ff0000;" x="106.634611" xlink:href="#m7e4d06b554" y="182.715958"/>
     <use style="fill:#ff0000;stroke:#ff0000;" x="107.475685" xlink:href="#m7e4d06b554" y="155.689699"/>
     <use style="fill:#ff0000;stroke:#ff0000;" x="108.316759" xlink:href="#m7e4d06b554" y="155.689699"/>
     <use style="fill:#ff0000;stroke:#ff0000;" x="109.157833" xlink:href="#m7e4d06b554" y="155.689699"/>
     <use style="fill:#ff0000;stroke:#ff0000;" x="109.998907" xlink:href="#m7e4d06b554" y="130.827532"/>
     <use style="fill:#ff0000;stroke:#ff0000;" x="110.839981" xlink:href="#m7e4d06b554" y="130.827532"/>
     <use style="fill:#ff0000;stroke:#ff0000;" x="111.681055" xlink:href="#m7e4d06b554" y="104.62798"/>
     <use style="fill:#ff0000;stroke:#ff0000;" x="112.522129" xlink:href="#m7e4d06b554" y="104.62798"/>
     <use style="fill:#ff0000;stroke:#ff0000;" x="113.363203" xlink:href="#m7e4d06b554" y="130.659684"/>
     <use style="fill:#ff0000;stroke:#ff0000;" x="114.204277" xlink:href="#m7e4d06b554" y="130.659684"/>
     <use style="fill:#ff0000;stroke:#ff0000;" x="115.045351" xlink:href="#m7e4d06b554" y="130.659684"/>
     <use style="fill:#ff0000;stroke:#ff0000;" x="115.886425" xlink:href="#m7e4d06b554" y="130.659684"/>
     <use style="fill:#ff0000;stroke:#ff0000;" x="116.727499" xlink:href="#m7e4d06b554" y="102.460539"/>
     <use style="fill:#ff0000;stroke:#ff0000;" x="117.568573" xlink:href="#m7e4d06b554" y="130.000216"/>
     <use style="fill:#ff0000;stroke:#ff0000;" x="118.409647" xlink:href="#m7e4d06b554" y="130.000216"/>
     <use style="fill:#ff0000;stroke:#ff0000;" x="119.250721" xlink:href="#m7e4d06b554" y="106.65284"/>
     <use style="fill:#ff0000;stroke:#ff0000;" x="120.091795" xlink:href="#m7e4d06b554" y="106.65284"/>
     <use style="fill:#ff0000;stroke:#ff0000;" x="120.932869" xlink:href="#m7e4d06b554" y="106.65284"/>
     <use style="fill:#ff0000;stroke:#ff0000;" x="121.773943" xlink:href="#m7e4d06b554" y="78.831988"/>
     <use style="fill:#ff0000;stroke:#ff0000;" x="122.615016" xlink:href="#m7e4d06b554" y="78.831988"/>
     <use style="fill:#ff0000;stroke:#ff0000;" x="123.45609" xlink:href="#m7e4d06b554" y="106.77434"/>
     <use style="fill:#ff0000;stroke:#ff0000;" x="124.297164" xlink:href="#m7e4d06b554" y="106.77434"/>
     <use style="fill:#ff0000;stroke:#ff0000;" x="125.138238" xlink:href="#m7e4d06b554" y="106.77434"/>
     <use style="fill:#ff0000;stroke:#ff0000;" x="125.979312" xlink:href="#m7e4d06b554" y="133.873015"/>
     <use style="fill:#ff0000;stroke:#ff0000;" x="126.820386" xlink:href="#m7e4d06b554" y="133.873015"/>
     <use style="fill:#ff0000;stroke:#ff0000;" x="127.66146" xlink:href="#m7e4d06b554" y="130.607586"/>
     <use style="fill:#ff0000;stroke:#ff0000;" x="128.502534" xlink:href="#m7e4d06b554" y="130.607586"/>
     <use style="fill:#ff0000;stroke:#ff0000;" x="129.343608" xlink:href="#m7e4d06b554" y="157.767359"/>
     <use style="fill:#ff0000;stroke:#ff0000;" x="130.184682" xlink:href="#m7e4d06b554" y="157.767359"/>
     <use style="fill:#ff0000;stroke:#ff0000;" x="131.025756" xlink:href="#m7e4d06b554" y="157.767359"/>
     <use style="fill:#ff0000;stroke:#ff0000;" x="131.86683" xlink:href="#m7e4d06b554" y="186.619168"/>
     <use style="fill:#ff0000;stroke:#ff0000;" x="132.707904" xlink:href="#m7e4d06b554" y="186.619168"/>
     <use style="fill:#ff0000;stroke:#ff0000;" x="133.548978" xlink:href="#m7e4d06b554" y="163.258245"/>
     <use style="fill:#ff0000;stroke:#ff0000;" x="134.390052" xlink:href="#m7e4d06b554" y="163.258245"/>
     <use style="fill:#ff0000;stroke:#ff0000;" x="135.231126" xlink:href="#m7e4d06b554" y="169.201096"/>
     <use style="fill:#ff0000;stroke:#ff0000;" x="136.0722" xlink:href="#m7e4d06b554" y="169.201096"/>
     <use style="fill:#ff0000;stroke:#ff0000;" x="136.913274" xlink:href="#m7e4d06b554" y="142.628072"/>
     <use style="fill:#ff0000;stroke:#ff0000;" x="137.754348" xlink:href="#m7e4d06b554" y="142.628072"/>
     <use style="fill:#ff0000;stroke:#ff0000;" x="138.595422" xlink:href="#m7e4d06b554" y="142.628072"/>
     <use style="fill:#ff0000;stroke:#ff0000;" x="139.436496" xlink:href="#m7e4d06b554" y="116.911583"/>
     <use style="fill:#ff0000;stroke:#ff0000;" x="140.277569" xlink:href="#m7e4d06b554" y="116.911583"/>
     <use style="fill:#ff0000;stroke:#ff0000;" x="141.118643" xlink:href="#m7e4d06b554" y="92.106946"/>
     <use style="fill:#ff0000;stroke:#ff0000;" x="141.959717" xlink:href="#m7e4d06b554" y="66.743977"/>
     <use style="fill:#ff0000;stroke:#ff0000;" x="142.800791" xlink:href="#m7e4d06b554" y="66.743977"/>
     <use style="fill:#ff0000;stroke:#ff0000;" x="143.641865" xlink:href="#m7e4d06b554" y="66.743977"/>
     <use style="fill:#ff0000;stroke:#ff0000;" x="144.482939" xlink:href="#m7e4d06b554" y="66.743977"/>
     <use style="fill:#ff0000;stroke:#ff0000;" x="145.324013" xlink:href="#m7e4d06b554" y="64.76157"/>
     <use style="fill:#ff0000;stroke:#ff0000;" x="146.165087" xlink:href="#m7e4d06b554" y="90.395797"/>
     <use style="fill:#ff0000;stroke:#ff0000;" x="147.006161" xlink:href="#m7e4d06b554" y="90.395797"/>
     <use style="fill:#ff0000;stroke:#ff0000;" x="147.847235" xlink:href="#m7e4d06b554" y="90.395797"/>
     <use style="fill:#ff0000;stroke:#ff0000;" x="148.688309" xlink:href="#m7e4d06b554" y="66.039995"/>
     <use style="fill:#ff0000;stroke:#ff0000;" x="149.529383" xlink:href="#m7e4d06b554" y="66.039995"/>
     <use style="fill:#ff0000;stroke:#ff0000;" x="150.370457" xlink:href="#m7e4d06b554" y="66.039995"/>
     <use style="fill:#ff0000;stroke:#ff0000;" x="151.211531" xlink:href="#m7e4d06b554" y="66.039995"/>
     <use style="fill:#ff0000;stroke:#ff0000;" x="152.052605" xlink:href="#m7e4d06b554" y="94.59198"/>
     <use style="fill:#ff0000;stroke:#ff0000;" x="152.893679" xlink:href="#m7e4d06b554" y="92.329238"/>
     <use style="fill:#ff0000;stroke:#ff0000;" x="153.734753" xlink:href="#m7e4d06b554" y="92.329238"/>
     <use style="fill:#ff0000;stroke:#ff0000;" x="154.575827" xlink:href="#m7e4d06b554" y="92.329238"/>
     <use style="fill:#ff0000;stroke:#ff0000;" x="155.416901" xlink:href="#m7e4d06b554" y="116.376569"/>
     <use style="fill:#ff0000;stroke:#ff0000;" x="156.257975" xlink:href="#m7e4d06b554" y="116.376569"/>
     <use style="fill:#ff0000;stroke:#ff0000;" x="157.099049" xlink:href="#m7e4d06b554" y="109.293871"/>
     <use style="fill:#ff0000;stroke:#ff0000;" x="157.940122" xlink:href="#m7e4d06b554" y="109.293871"/>
     <use style="fill:#ff0000;stroke:#ff0000;" x="158.781196" xlink:href="#m7e4d06b554" y="103.193329"/>
     <use style="fill:#ff0000;stroke:#ff0000;" x="159.62227" xlink:href="#m7e4d06b554" y="79.554912"/>
     <use style="fill:#ff0000;stroke:#ff0000;" x="160.463344" xlink:href="#m7e4d06b554" y="79.554912"/>
     <use style="fill:#ff0000;stroke:#ff0000;" x="161.304418" xlink:href="#m7e4d06b554" y="54.232527"/>
     <use style="fill:#ff0000;stroke:#ff0000;" x="162.145492" xlink:href="#m7e4d06b554" y="54.232527"/>
     <use style="fill:#ff0000;stroke:#ff0000;" x="162.986566" xlink:href="#m7e4d06b554" y="54.232527"/>
     <use style="fill:#ff0000;stroke:#ff0000;" x="163.82764" xlink:href="#m7e4d06b554" y="81.120362"/>
     <use style="fill:#ff0000;stroke:#ff0000;" x="164.668714" xlink:href="#m7e4d06b554" y="108.729831"/>
     <use style="fill:#ff0000;stroke:#ff0000;" x="165.509788" xlink:href="#m7e4d06b554" y="108.729831"/>
     <use style="fill:#ff0000;stroke:#ff0000;" x="166.350862" xlink:href="#m7e4d06b554" y="108.729831"/>
     <use style="fill:#ff0000;stroke:#ff0000;" x="167.191936" xlink:href="#m7e4d06b554" y="108.729831"/>
     <use style="fill:#ff0000;stroke:#ff0000;" x="168.03301" xlink:href="#m7e4d06b554" y="108.729831"/>
     <use style="fill:#ff0000;stroke:#ff0000;" x="168.874084" xlink:href="#m7e4d06b554" y="108.729831"/>
     <use style="fill:#ff0000;stroke:#ff0000;" x="169.715158" xlink:href="#m7e4d06b554" y="108.729831"/>
     <use style="fill:#ff0000;stroke:#ff0000;" x="170.556232" xlink:href="#m7e4d06b554" y="108.729831"/>
     <use style="fill:#ff0000;stroke:#ff0000;" x="171.397306" xlink:href="#m7e4d06b554" y="108.729831"/>
     <use style="fill:#ff0000;stroke:#ff0000;" x="172.23838" xlink:href="#m7e4d06b554" y="108.729831"/>
     <use style="fill:#ff0000;stroke:#ff0000;" x="173.079454" xlink:href="#m7e4d06b554" y="136.611865"/>
     <use style="fill:#ff0000;stroke:#ff0000;" x="173.920528" xlink:href="#m7e4d06b554" y="136.611865"/>
     <use style="fill:#ff0000;stroke:#ff0000;" x="174.761602" xlink:href="#m7e4d06b554" y="162.347245"/>
     <use style="fill:#ff0000;stroke:#ff0000;" x="175.602675" xlink:href="#m7e4d06b554" y="162.347245"/>
     <use style="fill:#ff0000;stroke:#ff0000;" x="176.443749" xlink:href="#m7e4d06b554" y="190.349444"/>
     <use style="fill:#ff0000;stroke:#ff0000;" x="177.284823" xlink:href="#m7e4d06b554" y="190.349444"/>
     <use style="fill:#ff0000;stroke:#ff0000;" x="178.125897" xlink:href="#m7e4d06b554" y="190.349444"/>
     <use style="fill:#ff0000;stroke:#ff0000;" x="178.966971" xlink:href="#m7e4d06b554" y="163.020403"/>
     <use style="fill:#ff0000;stroke:#ff0000;" x="179.808045" xlink:href="#m7e4d06b554" y="163.020403"/>
     <use style="fill:#ff0000;stroke:#ff0000;" x="180.649119" xlink:href="#m7e4d06b554" y="137.671805"/>
     <use style="fill:#ff0000;stroke:#ff0000;" x="181.490193" xlink:href="#m7e4d06b554" y="137.671805"/>
     <use style="fill:#ff0000;stroke:#ff0000;" x="182.331267" xlink:href="#m7e4d06b554" y="110.88038"/>
     <use style="fill:#ff0000;stroke:#ff0000;" x="183.172341" xlink:href="#m7e4d06b554" y="110.88038"/>
     <use style="fill:#ff0000;stroke:#ff0000;" x="184.013415" xlink:href="#m7e4d06b554" y="110.88038"/>
     <use style="fill:#ff0000;stroke:#ff0000;" x="184.854489" xlink:href="#m7e4d06b554" y="83.853326"/>
     <use style="fill:#ff0000;stroke:#ff0000;" x="185.695563" xlink:href="#m7e4d06b554" y="83.853326"/>
     <use style="fill:#ff0000;stroke:#ff0000;" x="186.536637" xlink:href="#m7e4d06b554" y="110.299892"/>
     <use style="fill:#ff0000;stroke:#ff0000;" x="187.377711" xlink:href="#m7e4d06b554" y="110.299892"/>
     <use style="fill:#ff0000;stroke:#ff0000;" x="188.218785" xlink:href="#m7e4d06b554" y="84.978586"/>
     <use style="fill:#ff0000;stroke:#ff0000;" x="189.059859" xlink:href="#m7e4d06b554" y="84.978586"/>
     <use style="fill:#ff0000;stroke:#ff0000;" x="189.900933" xlink:href="#m7e4d06b554" y="108.024752"/>
     <use style="fill:#ff0000;stroke:#ff0000;" x="190.742007" xlink:href="#m7e4d06b554" y="134.665801"/>
     <use style="fill:#ff0000;stroke:#ff0000;" x="191.583081" xlink:href="#m7e4d06b554" y="134.665801"/>
     <use style="fill:#ff0000;stroke:#ff0000;" x="192.424154" xlink:href="#m7e4d06b554" y="134.665801"/>
     <use style="fill:#ff0000;stroke:#ff0000;" x="193.265228" xlink:href="#m7e4d06b554" y="111.198503"/>
     <use style="fill:#ff0000;stroke:#ff0000;" x="194.106302" xlink:href="#m7e4d06b554" y="82.27402"/>
     <use style="fill:#ff0000;stroke:#ff0000;" x="194.947376" xlink:href="#m7e4d06b554" y="82.27402"/>
     <use style="fill:#ff0000;stroke:#ff0000;" x="195.78845" xlink:href="#m7e4d06b554" y="82.27402"/>
     <use style="fill:#ff0000;stroke:#ff0000;" x="196.629524" xlink:href="#m7e4d06b554" y="109.019944"/>
     <use style="fill:#ff0000;stroke:#ff0000;" x="197.470598" xlink:href="#m7e4d06b554" y="109.019944"/>
     <use style="fill:#ff0000;stroke:#ff0000;" x="198.311672" xlink:href="#m7e4d06b554" y="105.427102"/>
     <use style="fill:#ff0000;stroke:#ff0000;" x="199.152746" xlink:href="#m7e4d06b554" y="105.427102"/>
     <use style="fill:#ff0000;stroke:#ff0000;" x="199.99382" xlink:href="#m7e4d06b554" y="134.965203"/>
     <use style="fill:#ff0000;stroke:#ff0000;" x="200.834894" xlink:href="#m7e4d06b554" y="161.006978"/>
     <use style="fill:#ff0000;stroke:#ff0000;" x="201.675968" xlink:href="#m7e4d06b554" y="161.006978"/>
     <use style="fill:#ff0000;stroke:#ff0000;" x="202.517042" xlink:href="#m7e4d06b554" y="163.377799"/>
     <use style="fill:#ff0000;stroke:#ff0000;" x="203.358116" xlink:href="#m7e4d06b554" y="163.377799"/>
     <use style="fill:#ff0000;stroke:#ff0000;" x="204.19919" xlink:href="#m7e4d06b554" y="189.1975"/>
     <use style="fill:#ff0000;stroke:#ff0000;" x="205.040264" xlink:href="#m7e4d06b554" y="189.1975"/>
     <use style="fill:#ff0000;stroke:#ff0000;" x="205.881338" xlink:href="#m7e4d06b554" y="160.5798"/>
     <use style="fill:#ff0000;stroke:#ff0000;" x="206.722412" xlink:href="#m7e4d06b554" y="160.5798"/>
     <use style="fill:#ff0000;stroke:#ff0000;" x="207.563486" xlink:href="#m7e4d06b554" y="186.68873"/>
     <use style="fill:#ff0000;stroke:#ff0000;" x="208.40456" xlink:href="#m7e4d06b554" y="156.64243"/>
     <use style="fill:#ff0000;stroke:#ff0000;" x="209.245634" xlink:href="#m7e4d06b554" y="156.64243"/>
     <use style="fill:#ff0000;stroke:#ff0000;" x="210.086707" xlink:href="#m7e4d06b554" y="156.64243"/>
     <use style="fill:#ff0000;stroke:#ff0000;" x="210.927781" xlink:href="#m7e4d06b554" y="128.302989"/>
     <use style="fill:#ff0000;stroke:#ff0000;" x="211.768855" xlink:href="#m7e4d06b554" y="131.531396"/>
     <use style="fill:#ff0000;stroke:#ff0000;" x="212.609929" xlink:href="#m7e4d06b554" y="131.531396"/>
     <use style="fill:#ff0000;stroke:#ff0000;" x="213.451003" xlink:href="#m7e4d06b554" y="131.531396"/>
     <use style="fill:#ff0000;stroke:#ff0000;" x="214.292077" xlink:href="#m7e4d06b554" y="156.541618"/>
     <use style="fill:#ff0000;stroke:#ff0000;" x="215.133151" xlink:href="#m7e4d06b554" y="156.541618"/>
     <use style="fill:#ff0000;stroke:#ff0000;" x="215.974225" xlink:href="#m7e4d06b554" y="185.764043"/>
     <use style="fill:#ff0000;stroke:#ff0000;" x="216.815299" xlink:href="#m7e4d06b554" y="185.764043"/>
     <use style="fill:#ff0000;stroke:#ff0000;" x="217.656373" xlink:href="#m7e4d06b554" y="185.764043"/>
     <use style="fill:#ff0000;stroke:#ff0000;" x="218.497447" xlink:href="#m7e4d06b554" y="160.95249"/>
     <use style="fill:#ff0000;stroke:#ff0000;" x="219.338521" xlink:href="#m7e4d06b554" y="160.95249"/>
     <use style="fill:#ff0000;stroke:#ff0000;" x="220.179595" xlink:href="#m7e4d06b554" y="132.843128"/>
     <use style="fill:#ff0000;stroke:#ff0000;" x="221.020669" xlink:href="#m7e4d06b554" y="132.843128"/>
     <use style="fill:#ff0000;stroke:#ff0000;" x="221.861743" xlink:href="#m7e4d06b554" y="104.9536"/>
     <use style="fill:#ff0000;stroke:#ff0000;" x="222.702817" xlink:href="#m7e4d06b554" y="104.9536"/>
     <use style="fill:#ff0000;stroke:#ff0000;" x="223.543891" xlink:href="#m7e4d06b554" y="76.802467"/>
     <use style="fill:#ff0000;stroke:#ff0000;" x="224.384965" xlink:href="#m7e4d06b554" y="53.568"/>
     <use style="fill:#ff0000;stroke:#ff0000;" x="225.226039" xlink:href="#m7e4d06b554" y="53.568"/>
     <use style="fill:#ff0000;stroke:#ff0000;" x="226.067113" xlink:href="#m7e4d06b554" y="78.942557"/>
     <use style="fill:#ff0000;stroke:#ff0000;" x="226.908187" xlink:href="#m7e4d06b554" y="78.942557"/>
     <use style="fill:#ff0000;stroke:#ff0000;" x="227.74926" xlink:href="#m7e4d06b554" y="78.942557"/>
     <use style="fill:#ff0000;stroke:#ff0000;" x="228.590334" xlink:href="#m7e4d06b554" y="83.11447"/>
     <use style="fill:#ff0000;stroke:#ff0000;" x="229.431408" xlink:href="#m7e4d06b554" y="60.703333"/>
     <use style="fill:#ff0000;stroke:#ff0000;" x="230.272482" xlink:href="#m7e4d06b554" y="60.703333"/>
     <use style="fill:#ff0000;stroke:#ff0000;" x="231.113556" xlink:href="#m7e4d06b554" y="60.703333"/>
     <use style="fill:#ff0000;stroke:#ff0000;" x="231.95463" xlink:href="#m7e4d06b554" y="60.703333"/>
     <use style="fill:#ff0000;stroke:#ff0000;" x="232.795704" xlink:href="#m7e4d06b554" y="60.703333"/>
     <use style="fill:#ff0000;stroke:#ff0000;" x="233.636778" xlink:href="#m7e4d06b554" y="60.703333"/>
     <use style="fill:#ff0000;stroke:#ff0000;" x="234.477852" xlink:href="#m7e4d06b554" y="60.703333"/>
     <use style="fill:#ff0000;stroke:#ff0000;" x="235.318926" xlink:href="#m7e4d06b554" y="60.703333"/>
     <use style="fill:#ff0000;stroke:#ff0000;" x="236.16" xlink:href="#m7e4d06b554" y="60.703333"/>
     <use style="fill:#ff0000;stroke:#ff0000;" x="237.001074" xlink:href="#m7e4d06b554" y="60.703333"/>
     <use style="fill:#ff0000;stroke:#ff0000;" x="237.842148" xlink:href="#m7e4d06b554" y="60.703333"/>
     <use style="fill:#ff0000;stroke:#ff0000;" x="238.683222" xlink:href="#m7e4d06b554" y="60.703333"/>
     <use style="fill:#ff0000;stroke:#ff0000;" x="239.524296" xlink:href="#m7e4d06b554" y="60.703333"/>
     <use style="fill:#ff0000;stroke:#ff0000;" x="240.36537" xlink:href="#m7e4d06b554" y="60.703333"/>
     <use style="fill:#ff0000;stroke:#ff0000;" x="241.206444" xlink:href="#m7e4d06b554" y="60.703333"/>
     <use style="fill:#ff0000;stroke:#ff0000;" x="242.047518" xlink:href="#m7e4d06b554" y="60.703333"/>
     <use style="fill:#ff0000;stroke:#ff0000;" x="242.888592" xlink:href="#m7e4d06b554" y="60.703333"/>
     <use style="fill:#ff0000;stroke:#ff0000;" x="243.729666" xlink:href="#m7e4d06b554" y="60.703333"/>
     <use style="fill:#ff0000;stroke:#ff0000;" x="244.57074" xlink:href="#m7e4d06b554" y="60.703333"/>
     <use style="fill:#ff0000;stroke:#ff0000;" x="245.411813" xlink:href="#m7e4d06b554" y="60.703333"/>
     <use style="fill:#ff0000;stroke:#ff0000;" x="246.252887" xlink:href="#m7e4d06b554" y="60.703333"/>
     <use style="fill:#ff0000;stroke:#ff0000;" x="247.093961" xlink:href="#m7e4d06b554" y="60.703333"/>
     <use style="fill:#ff0000;stroke:#ff0000;" x="247.935035" xlink:href="#m7e4d06b554" y="60.703333"/>
     <use style="fill:#ff0000;stroke:#ff0000;" x="248.776109" xlink:href="#m7e4d06b554" y="60.703333"/>
     <use style="fill:#ff0000;stroke:#ff0000;" x="249.617183" xlink:href="#m7e4d06b554" y="60.703333"/>
     <use style="fill:#ff0000;stroke:#ff0000;" x="250.458257" xlink:href="#m7e4d06b554" y="60.703333"/>
     <use style="fill:#ff0000;stroke:#ff0000;" x="251.299331" xlink:href="#m7e4d06b554" y="60.703333"/>
     <use style="fill:#ff0000;stroke:#ff0000;" x="252.140405" xlink:href="#m7e4d06b554" y="60.703333"/>
     <use style="fill:#ff0000;stroke:#ff0000;" x="252.981479" xlink:href="#m7e4d06b554" y="60.703333"/>
     <use style="fill:#ff0000;stroke:#ff0000;" x="253.822553" xlink:href="#m7e4d06b554" y="60.703333"/>
     <use style="fill:#ff0000;stroke:#ff0000;" x="254.663627" xlink:href="#m7e4d06b554" y="60.703333"/>
     <use style="fill:#ff0000;stroke:#ff0000;" x="255.504701" xlink:href="#m7e4d06b554" y="60.703333"/>
     <use style="fill:#ff0000;stroke:#ff0000;" x="256.345775" xlink:href="#m7e4d06b554" y="60.703333"/>
     <use style="fill:#ff0000;stroke:#ff0000;" x="257.186849" xlink:href="#m7e4d06b554" y="60.703333"/>
     <use style="fill:#ff0000;stroke:#ff0000;" x="258.027923" xlink:href="#m7e4d06b554" y="60.703333"/>
     <use style="fill:#ff0000;stroke:#ff0000;" x="258.868997" xlink:href="#m7e4d06b554" y="60.703333"/>
     <use style="fill:#ff0000;stroke:#ff0000;" x="259.710071" xlink:href="#m7e4d06b554" y="60.703333"/>
     <use style="fill:#ff0000;stroke:#ff0000;" x="260.551145" xlink:href="#m7e4d06b554" y="60.703333"/>
     <use style="fill:#ff0000;stroke:#ff0000;" x="261.392219" xlink:href="#m7e4d06b554" y="60.703333"/>
     <use style="fill:#ff0000;stroke:#ff0000;" x="262.233293" xlink:href="#m7e4d06b554" y="60.703333"/>
     <use style="fill:#ff0000;stroke:#ff0000;" x="263.074366" xlink:href="#m7e4d06b554" y="60.703333"/>
     <use style="fill:#ff0000;stroke:#ff0000;" x="263.91544" xlink:href="#m7e4d06b554" y="60.703333"/>
     <use style="fill:#ff0000;stroke:#ff0000;" x="264.756514" xlink:href="#m7e4d06b554" y="60.703333"/>
     <use style="fill:#ff0000;stroke:#ff0000;" x="265.597588" xlink:href="#m7e4d06b554" y="60.703333"/>
     <use style="fill:#ff0000;stroke:#ff0000;" x="266.438662" xlink:href="#m7e4d06b554" y="60.703333"/>
     <use style="fill:#ff0000;stroke:#ff0000;" x="267.279736" xlink:href="#m7e4d06b554" y="60.703333"/>
     <use style="fill:#ff0000;stroke:#ff0000;" x="268.12081" xlink:href="#m7e4d06b554" y="60.703333"/>
     <use style="fill:#ff0000;stroke:#ff0000;" x="268.961884" xlink:href="#m7e4d06b554" y="60.703333"/>
     <use style="fill:#ff0000;stroke:#ff0000;" x="269.802958" xlink:href="#m7e4d06b554" y="60.703333"/>
     <use style="fill:#ff0000;stroke:#ff0000;" x="270.644032" xlink:href="#m7e4d06b554" y="60.703333"/>
     <use style="fill:#ff0000;stroke:#ff0000;" x="271.485106" xlink:href="#m7e4d06b554" y="60.703333"/>
     <use style="fill:#ff0000;stroke:#ff0000;" x="272.32618" xlink:href="#m7e4d06b554" y="60.703333"/>
     <use style="fill:#ff0000;stroke:#ff0000;" x="273.167254" xlink:href="#m7e4d06b554" y="60.703333"/>
     <use style="fill:#ff0000;stroke:#ff0000;" x="274.008328" xlink:href="#m7e4d06b554" y="60.703333"/>
     <use style="fill:#ff0000;stroke:#ff0000;" x="274.849402" xlink:href="#m7e4d06b554" y="60.703333"/>
     <use style="fill:#ff0000;stroke:#ff0000;" x="275.690476" xlink:href="#m7e4d06b554" y="60.703333"/>
     <use style="fill:#ff0000;stroke:#ff0000;" x="276.53155" xlink:href="#m7e4d06b554" y="60.703333"/>
     <use style="fill:#ff0000;stroke:#ff0000;" x="277.372624" xlink:href="#m7e4d06b554" y="60.703333"/>
     <use style="fill:#ff0000;stroke:#ff0000;" x="278.213698" xlink:href="#m7e4d06b554" y="60.703333"/>
     <use style="fill:#ff0000;stroke:#ff0000;" x="279.054772" xlink:href="#m7e4d06b554" y="60.703333"/>
     <use style="fill:#ff0000;stroke:#ff0000;" x="279.895846" xlink:href="#m7e4d06b554" y="60.703333"/>
     <use style="fill:#ff0000;stroke:#ff0000;" x="280.736919" xlink:href="#m7e4d06b554" y="60.703333"/>
     <use style="fill:#ff0000;stroke:#ff0000;" x="281.577993" xlink:href="#m7e4d06b554" y="60.703333"/>
     <use style="fill:#ff0000;stroke:#ff0000;" x="282.419067" xlink:href="#m7e4d06b554" y="60.703333"/>
     <use style="fill:#ff0000;stroke:#ff0000;" x="283.260141" xlink:href="#m7e4d06b554" y="60.703333"/>
     <use style="fill:#ff0000;stroke:#ff0000;" x="284.101215" xlink:href="#m7e4d06b554" y="60.703333"/>
     <use style="fill:#ff0000;stroke:#ff0000;" x="284.942289" xlink:href="#m7e4d06b554" y="60.703333"/>
     <use style="fill:#ff0000;stroke:#ff0000;" x="285.783363" xlink:href="#m7e4d06b554" y="60.703333"/>
     <use style="fill:#ff0000;stroke:#ff0000;" x="286.624437" xlink:href="#m7e4d06b554" y="60.703333"/>
     <use style="fill:#ff0000;stroke:#ff0000;" x="287.465511" xlink:href="#m7e4d06b554" y="60.703333"/>
     <use style="fill:#ff0000;stroke:#ff0000;" x="288.306585" xlink:href="#m7e4d06b554" y="60.703333"/>
     <use style="fill:#ff0000;stroke:#ff0000;" x="289.147659" xlink:href="#m7e4d06b554" y="60.703333"/>
     <use style="fill:#ff0000;stroke:#ff0000;" x="289.988733" xlink:href="#m7e4d06b554" y="60.703333"/>
     <use style="fill:#ff0000;stroke:#ff0000;" x="290.829807" xlink:href="#m7e4d06b554" y="60.703333"/>
     <use style="fill:#ff0000;stroke:#ff0000;" x="291.670881" xlink:href="#m7e4d06b554" y="60.703333"/>
     <use style="fill:#ff0000;stroke:#ff0000;" x="292.511955" xlink:href="#m7e4d06b554" y="60.703333"/>
     <use style="fill:#ff0000;stroke:#ff0000;" x="293.353029" xlink:href="#m7e4d06b554" y="60.703333"/>
     <use style="fill:#ff0000;stroke:#ff0000;" x="294.194103" xlink:href="#m7e4d06b554" y="60.703333"/>
     <use style="fill:#ff0000;stroke:#ff0000;" x="295.035177" xlink:href="#m7e4d06b554" y="60.703333"/>
     <use style="fill:#ff0000;stroke:#ff0000;" x="295.876251" xlink:href="#m7e4d06b554" y="60.703333"/>
     <use style="fill:#ff0000;stroke:#ff0000;" x="296.717325" xlink:href="#m7e4d06b554" y="60.703333"/>
     <use style="fill:#ff0000;stroke:#ff0000;" x="297.558398" xlink:href="#m7e4d06b554" y="60.703333"/>
     <use style="fill:#ff0000;stroke:#ff0000;" x="298.399472" xlink:href="#m7e4d06b554" y="60.703333"/>
     <use style="fill:#ff0000;stroke:#ff0000;" x="299.240546" xlink:href="#m7e4d06b554" y="60.703333"/>
     <use style="fill:#ff0000;stroke:#ff0000;" x="300.08162" xlink:href="#m7e4d06b554" y="60.703333"/>
     <use style="fill:#ff0000;stroke:#ff0000;" x="300.922694" xlink:href="#m7e4d06b554" y="60.703333"/>
     <use style="fill:#ff0000;stroke:#ff0000;" x="301.763768" xlink:href="#m7e4d06b554" y="60.703333"/>
     <use style="fill:#ff0000;stroke:#ff0000;" x="302.604842" xlink:href="#m7e4d06b554" y="60.703333"/>
     <use style="fill:#ff0000;stroke:#ff0000;" x="303.445916" xlink:href="#m7e4d06b554" y="60.703333"/>
     <use style="fill:#ff0000;stroke:#ff0000;" x="304.28699" xlink:href="#m7e4d06b554" y="60.703333"/>
     <use style="fill:#ff0000;stroke:#ff0000;" x="305.128064" xlink:href="#m7e4d06b554" y="60.703333"/>
     <use style="fill:#ff0000;stroke:#ff0000;" x="305.969138" xlink:href="#m7e4d06b554" y="60.703333"/>
     <use style="fill:#ff0000;stroke:#ff0000;" x="306.810212" xlink:href="#m7e4d06b554" y="60.703333"/>
     <use style="fill:#ff0000;stroke:#ff0000;" x="307.651286" xlink:href="#m7e4d06b554" y="60.703333"/>
     <use style="fill:#ff0000;stroke:#ff0000;" x="308.49236" xlink:href="#m7e4d06b554" y="60.703333"/>
     <use style="fill:#ff0000;stroke:#ff0000;" x="309.333434" xlink:href="#m7e4d06b554" y="60.703333"/>
     <use style="fill:#ff0000;stroke:#ff0000;" x="310.174508" xlink:href="#m7e4d06b554" y="60.703333"/>
     <use style="fill:#ff0000;stroke:#ff0000;" x="311.015582" xlink:href="#m7e4d06b554" y="60.703333"/>
     <use style="fill:#ff0000;stroke:#ff0000;" x="311.856656" xlink:href="#m7e4d06b554" y="60.703333"/>
     <use style="fill:#ff0000;stroke:#ff0000;" x="312.69773" xlink:href="#m7e4d06b554" y="60.703333"/>
     <use style="fill:#ff0000;stroke:#ff0000;" x="313.538804" xlink:href="#m7e4d06b554" y="60.703333"/>
     <use style="fill:#ff0000;stroke:#ff0000;" x="314.379878" xlink:href="#m7e4d06b554" y="60.703333"/>
     <use style="fill:#ff0000;stroke:#ff0000;" x="315.220951" xlink:href="#m7e4d06b554" y="60.703333"/>
     <use style="fill:#ff0000;stroke:#ff0000;" x="316.062025" xlink:href="#m7e4d06b554" y="60.703333"/>
     <use style="fill:#ff0000;stroke:#ff0000;" x="316.903099" xlink:href="#m7e4d06b554" y="60.703333"/>
     <use style="fill:#ff0000;stroke:#ff0000;" x="317.744173" xlink:href="#m7e4d06b554" y="60.703333"/>
     <use style="fill:#ff0000;stroke:#ff0000;" x="318.585247" xlink:href="#m7e4d06b554" y="60.703333"/>
     <use style="fill:#ff0000;stroke:#ff0000;" x="319.426321" xlink:href="#m7e4d06b554" y="60.703333"/>
     <use style="fill:#ff0000;stroke:#ff0000;" x="320.267395" xlink:href="#m7e4d06b554" y="60.703333"/>
     <use style="fill:#ff0000;stroke:#ff0000;" x="321.108469" xlink:href="#m7e4d06b554" y="60.703333"/>
     <use style="fill:#ff0000;stroke:#ff0000;" x="321.949543" xlink:href="#m7e4d06b554" y="60.703333"/>
     <use style="fill:#ff0000;stroke:#ff0000;" x="322.790617" xlink:href="#m7e4d06b554" y="60.703333"/>
     <use style="fill:#ff0000;stroke:#ff0000;" x="323.631691" xlink:href="#m7e4d06b554" y="60.703333"/>
     <use style="fill:#ff0000;stroke:#ff0000;" x="324.472765" xlink:href="#m7e4d06b554" y="60.703333"/>
     <use style="fill:#ff0000;stroke:#ff0000;" x="325.313839" xlink:href="#m7e4d06b554" y="60.703333"/>
     <use style="fill:#ff0000;stroke:#ff0000;" x="326.154913" xlink:href="#m7e4d06b554" y="60.703333"/>
     <use style="fill:#ff0000;stroke:#ff0000;" x="326.995987" xlink:href="#m7e4d06b554" y="60.703333"/>
     <use style="fill:#ff0000;stroke:#ff0000;" x="327.837061" xlink:href="#m7e4d06b554" y="60.703333"/>
     <use style="fill:#ff0000;stroke:#ff0000;" x="328.678135" xlink:href="#m7e4d06b554" y="60.703333"/>
     <use style="fill:#ff0000;stroke:#ff0000;" x="329.519209" xlink:href="#m7e4d06b554" y="60.703333"/>
     <use style="fill:#ff0000;stroke:#ff0000;" x="330.360283" xlink:href="#m7e4d06b554" y="60.703333"/>
     <use style="fill:#ff0000;stroke:#ff0000;" x="331.201357" xlink:href="#m7e4d06b554" y="60.703333"/>
     <use style="fill:#ff0000;stroke:#ff0000;" x="332.042431" xlink:href="#m7e4d06b554" y="60.703333"/>
     <use style="fill:#ff0000;stroke:#ff0000;" x="332.883504" xlink:href="#m7e4d06b554" y="60.703333"/>
     <use style="fill:#ff0000;stroke:#ff0000;" x="333.724578" xlink:href="#m7e4d06b554" y="60.703333"/>
     <use style="fill:#ff0000;stroke:#ff0000;" x="334.565652" xlink:href="#m7e4d06b554" y="60.703333"/>
     <use style="fill:#ff0000;stroke:#ff0000;" x="335.406726" xlink:href="#m7e4d06b554" y="60.703333"/>
     <use style="fill:#ff0000;stroke:#ff0000;" x="336.2478" xlink:href="#m7e4d06b554" y="60.703333"/>
     <use style="fill:#ff0000;stroke:#ff0000;" x="337.088874" xlink:href="#m7e4d06b554" y="60.703333"/>
     <use style="fill:#ff0000;stroke:#ff0000;" x="337.929948" xlink:href="#m7e4d06b554" y="60.703333"/>
     <use style="fill:#ff0000;stroke:#ff0000;" x="338.771022" xlink:href="#m7e4d06b554" y="60.703333"/>
     <use style="fill:#ff0000;stroke:#ff0000;" x="339.612096" xlink:href="#m7e4d06b554" y="60.703333"/>
     <use style="fill:#ff0000;stroke:#ff0000;" x="340.45317" xlink:href="#m7e4d06b554" y="60.703333"/>
     <use style="fill:#ff0000;stroke:#ff0000;" x="341.294244" xlink:href="#m7e4d06b554" y="60.703333"/>
     <use style="fill:#ff0000;stroke:#ff0000;" x="342.135318" xlink:href="#m7e4d06b554" y="60.703333"/>
     <use style="fill:#ff0000;stroke:#ff0000;" x="342.976392" xlink:href="#m7e4d06b554" y="60.703333"/>
     <use style="fill:#ff0000;stroke:#ff0000;" x="343.817466" xlink:href="#m7e4d06b554" y="60.703333"/>
     <use style="fill:#ff0000;stroke:#ff0000;" x="344.65854" xlink:href="#m7e4d06b554" y="60.703333"/>
     <use style="fill:#ff0000;stroke:#ff0000;" x="345.499614" xlink:href="#m7e4d06b554" y="60.703333"/>
     <use style="fill:#ff0000;stroke:#ff0000;" x="346.340688" xlink:href="#m7e4d06b554" y="60.703333"/>
     <use style="fill:#ff0000;stroke:#ff0000;" x="347.181762" xlink:href="#m7e4d06b554" y="60.703333"/>
     <use style="fill:#ff0000;stroke:#ff0000;" x="348.022836" xlink:href="#m7e4d06b554" y="60.703333"/>
     <use style="fill:#ff0000;stroke:#ff0000;" x="348.86391" xlink:href="#m7e4d06b554" y="60.703333"/>
     <use style="fill:#ff0000;stroke:#ff0000;" x="349.704984" xlink:href="#m7e4d06b554" y="60.703333"/>
     <use style="fill:#ff0000;stroke:#ff0000;" x="350.546057" xlink:href="#m7e4d06b554" y="60.703333"/>
     <use style="fill:#ff0000;stroke:#ff0000;" x="351.387131" xlink:href="#m7e4d06b554" y="60.703333"/>
     <use style="fill:#ff0000;stroke:#ff0000;" x="352.228205" xlink:href="#m7e4d06b554" y="60.703333"/>
     <use style="fill:#ff0000;stroke:#ff0000;" x="353.069279" xlink:href="#m7e4d06b554" y="60.703333"/>
     <use style="fill:#ff0000;stroke:#ff0000;" x="353.910353" xlink:href="#m7e4d06b554" y="60.703333"/>
     <use style="fill:#ff0000;stroke:#ff0000;" x="354.751427" xlink:href="#m7e4d06b554" y="60.703333"/>
     <use style="fill:#ff0000;stroke:#ff0000;" x="355.592501" xlink:href="#m7e4d06b554" y="60.703333"/>
     <use style="fill:#ff0000;stroke:#ff0000;" x="356.433575" xlink:href="#m7e4d06b554" y="60.703333"/>
     <use style="fill:#ff0000;stroke:#ff0000;" x="357.274649" xlink:href="#m7e4d06b554" y="60.703333"/>
     <use style="fill:#ff0000;stroke:#ff0000;" x="358.115723" xlink:href="#m7e4d06b554" y="60.703333"/>
     <use style="fill:#ff0000;stroke:#ff0000;" x="358.956797" xlink:href="#m7e4d06b554" y="60.703333"/>
     <use style="fill:#ff0000;stroke:#ff0000;" x="359.797871" xlink:href="#m7e4d06b554" y="60.703333"/>
     <use style="fill:#ff0000;stroke:#ff0000;" x="360.638945" xlink:href="#m7e4d06b554" y="60.703333"/>
     <use style="fill:#ff0000;stroke:#ff0000;" x="361.480019" xlink:href="#m7e4d06b554" y="60.703333"/>
     <use style="fill:#ff0000;stroke:#ff0000;" x="362.321093" xlink:href="#m7e4d06b554" y="60.703333"/>
     <use style="fill:#ff0000;stroke:#ff0000;" x="363.162167" xlink:href="#m7e4d06b554" y="60.703333"/>
     <use style="fill:#ff0000;stroke:#ff0000;" x="364.003241" xlink:href="#m7e4d06b554" y="60.703333"/>
     <use style="fill:#ff0000;stroke:#ff0000;" x="364.844315" xlink:href="#m7e4d06b554" y="60.703333"/>
     <use style="fill:#ff0000;stroke:#ff0000;" x="365.685389" xlink:href="#m7e4d06b554" y="60.703333"/>
     <use style="fill:#ff0000;stroke:#ff0000;" x="366.526463" xlink:href="#m7e4d06b554" y="60.703333"/>
     <use style="fill:#ff0000;stroke:#ff0000;" x="367.367537" xlink:href="#m7e4d06b554" y="60.703333"/>
     <use style="fill:#ff0000;stroke:#ff0000;" x="368.20861" xlink:href="#m7e4d06b554" y="60.703333"/>
     <use style="fill:#ff0000;stroke:#ff0000;" x="369.049684" xlink:href="#m7e4d06b554" y="60.703333"/>
     <use style="fill:#ff0000;stroke:#ff0000;" x="369.890758" xlink:href="#m7e4d06b554" y="60.703333"/>
     <use style="fill:#ff0000;stroke:#ff0000;" x="370.731832" xlink:href="#m7e4d06b554" y="60.703333"/>
     <use style="fill:#ff0000;stroke:#ff0000;" x="371.572906" xlink:href="#m7e4d06b554" y="60.703333"/>
     <use style="fill:#ff0000;stroke:#ff0000;" x="372.41398" xlink:href="#m7e4d06b554" y="60.703333"/>
     <use style="fill:#ff0000;stroke:#ff0000;" x="373.255054" xlink:href="#m7e4d06b554" y="60.703333"/>
     <use style="fill:#ff0000;stroke:#ff0000;" x="374.096128" xlink:href="#m7e4d06b554" y="60.703333"/>
     <use style="fill:#ff0000;stroke:#ff0000;" x="374.937202" xlink:href="#m7e4d06b554" y="60.703333"/>
     <use style="fill:#ff0000;stroke:#ff0000;" x="375.778276" xlink:href="#m7e4d06b554" y="60.703333"/>
     <use style="fill:#ff0000;stroke:#ff0000;" x="376.61935" xlink:href="#m7e4d06b554" y="60.703333"/>
     <use style="fill:#ff0000;stroke:#ff0000;" x="377.460424" xlink:href="#m7e4d06b554" y="60.703333"/>
     <use style="fill:#ff0000;stroke:#ff0000;" x="378.301498" xlink:href="#m7e4d06b554" y="60.703333"/>
     <use style="fill:#ff0000;stroke:#ff0000;" x="379.142572" xlink:href="#m7e4d06b554" y="60.703333"/>
     <use style="fill:#ff0000;stroke:#ff0000;" x="379.983646" xlink:href="#m7e4d06b554" y="60.703333"/>
     <use style="fill:#ff0000;stroke:#ff0000;" x="380.82472" xlink:href="#m7e4d06b554" y="60.703333"/>
     <use style="fill:#ff0000;stroke:#ff0000;" x="381.665794" xlink:href="#m7e4d06b554" y="60.703333"/>
     <use style="fill:#ff0000;stroke:#ff0000;" x="382.506868" xlink:href="#m7e4d06b554" y="60.703333"/>
     <use style="fill:#ff0000;stroke:#ff0000;" x="383.347942" xlink:href="#m7e4d06b554" y="60.703333"/>
     <use style="fill:#ff0000;stroke:#ff0000;" x="384.189016" xlink:href="#m7e4d06b554" y="60.703333"/>
     <use style="fill:#ff0000;stroke:#ff0000;" x="385.030089" xlink:href="#m7e4d06b554" y="60.703333"/>
     <use style="fill:#ff0000;stroke:#ff0000;" x="385.871163" xlink:href="#m7e4d06b554" y="60.703333"/>
     <use style="fill:#ff0000;stroke:#ff0000;" x="386.712237" xlink:href="#m7e4d06b554" y="60.703333"/>
     <use style="fill:#ff0000;stroke:#ff0000;" x="387.553311" xlink:href="#m7e4d06b554" y="60.703333"/>
     <use style="fill:#ff0000;stroke:#ff0000;" x="388.394385" xlink:href="#m7e4d06b554" y="60.703333"/>
     <use style="fill:#ff0000;stroke:#ff0000;" x="389.235459" xlink:href="#m7e4d06b554" y="60.703333"/>
     <use style="fill:#ff0000;stroke:#ff0000;" x="390.076533" xlink:href="#m7e4d06b554" y="60.703333"/>
     <use style="fill:#ff0000;stroke:#ff0000;" x="390.917607" xlink:href="#m7e4d06b554" y="60.703333"/>
     <use style="fill:#ff0000;stroke:#ff0000;" x="391.758681" xlink:href="#m7e4d06b554" y="60.703333"/>
     <use style="fill:#ff0000;stroke:#ff0000;" x="392.599755" xlink:href="#m7e4d06b554" y="60.703333"/>
     <use style="fill:#ff0000;stroke:#ff0000;" x="393.440829" xlink:href="#m7e4d06b554" y="60.703333"/>
     <use style="fill:#ff0000;stroke:#ff0000;" x="394.281903" xlink:href="#m7e4d06b554" y="60.703333"/>
     <use style="fill:#ff0000;stroke:#ff0000;" x="395.122977" xlink:href="#m7e4d06b554" y="60.703333"/>
     <use style="fill:#ff0000;stroke:#ff0000;" x="395.964051" xlink:href="#m7e4d06b554" y="60.703333"/>
     <use style="fill:#ff0000;stroke:#ff0000;" x="396.805125" xlink:href="#m7e4d06b554" y="60.703333"/>
     <use style="fill:#ff0000;stroke:#ff0000;" x="397.646199" xlink:href="#m7e4d06b554" y="60.703333"/>
     <use style="fill:#ff0000;stroke:#ff0000;" x="398.487273" xlink:href="#m7e4d06b554" y="60.703333"/>
    </g>
   </g>
   <g id="patch_3">
    <path d="M 57.6 307.584 
L 57.6 41.472 
" style="fill:none;stroke:#000000;stroke-linecap:square;stroke-linejoin:miter;stroke-width:0.8;"/>
   </g>
   <g id="patch_4">
    <path d="M 414.72 307.584 
L 414.72 41.472 
" style="fill:none;stroke:#000000;stroke-linecap:square;stroke-linejoin:miter;stroke-width:0.8;"/>
   </g>
   <g id="patch_5">
    <path d="M 57.6 307.584 
L 414.72 307.584 
" style="fill:none;stroke:#000000;stroke-linecap:square;stroke-linejoin:miter;stroke-width:0.8;"/>
   </g>
   <g id="patch_6">
    <path d="M 57.6 41.472 
L 414.72 41.472 
" style="fill:none;stroke:#000000;stroke-linecap:square;stroke-linejoin:miter;stroke-width:0.8;"/>
   </g>
  </g>
 </g>
 <defs>
  <clipPath id="pc44ccc85e5">
   <rect height="266.112" width="357.12" x="57.6" y="41.472"/>
  </clipPath>
 </defs>
</svg>
