<?xml version="1.0" encoding="utf-8" standalone="no"?>
<!DOCTYPE svg PUBLIC "-//W3C//DTD SVG 1.1//EN"
  "http://www.w3.org/Graphics/SVG/1.1/DTD/svg11.dtd">
<!-- Created with matplotlib (https://matplotlib.org/) -->
<svg height="345.6pt" version="1.1" viewBox="0 0 460.8 345.6" width="460.8pt" xmlns="http://www.w3.org/2000/svg" xmlns:xlink="http://www.w3.org/1999/xlink">
 <defs>
  <style type="text/css">
*{stroke-linecap:butt;stroke-linejoin:round;}
  </style>
 </defs>
 <g id="figure_1">
  <g id="patch_1">
   <path d="M 0 345.6 
L 460.8 345.6 
L 460.8 0 
L 0 0 
z
" style="fill:#ffffff;"/>
  </g>
  <g id="axes_1">
   <g id="patch_2">
    <path d="M 57.6 307.584 
L 414.72 307.584 
L 414.72 41.472 
L 57.6 41.472 
z
" style="fill:#ffffff;"/>
   </g>
   <g id="line2d_1">
    <path clip-path="url(#pdc02ce28ca)" d="M 73.832727 217.816315 
L 74.967883 201.596267 
L 76.103039 283.396766 
L 79.508506 283.396766 
L 80.643662 197.385495 
L 81.778818 197.385495 
L 82.913973 116.726285 
L 84.049129 116.726285 
L 85.184285 201.794204 
L 89.724908 201.794204 
L 90.860064 123.003832 
L 91.995219 123.003832 
L 93.130375 207.832334 
L 95.400687 207.832334 
L 96.535842 295.488 
L 97.670998 295.488 
L 98.806154 214.942487 
L 99.94131 214.942487 
L 101.076465 195.541412 
L 103.346777 195.541412 
L 104.481933 226.181763 
L 105.617088 226.181763 
L 106.752244 198.367577 
L 107.8874 198.367577 
L 109.022556 228.461626 
L 110.157711 234.500773 
L 111.292867 234.500773 
L 112.428023 207.086584 
L 114.698334 207.086584 
L 115.83349 180.085087 
L 116.968646 182.715958 
L 118.103802 182.715958 
L 119.238957 155.689699 
L 121.509269 155.689699 
L 122.644425 130.827532 
L 123.77958 130.827532 
L 124.914736 104.62798 
L 126.049892 104.62798 
L 127.185048 130.659684 
L 130.590515 130.659684 
L 131.725671 102.460539 
L 132.860826 130.000216 
L 133.995982 130.000216 
L 135.131138 106.65284 
L 137.401449 106.65284 
L 138.536605 78.831988 
L 139.671761 78.831988 
L 140.806917 106.77434 
L 143.077228 106.77434 
L 144.212384 133.873015 
L 145.34754 133.873015 
L 146.482695 130.607586 
L 147.617851 130.607586 
L 148.753007 157.767359 
L 151.023318 157.767359 
L 152.158474 186.619168 
L 153.29363 186.619168 
L 154.428786 163.258245 
L 155.563942 163.258245 
L 156.699097 169.201096 
L 157.834253 169.201096 
L 158.969409 142.628072 
L 161.23972 142.628072 
L 162.374876 116.911583 
L 163.510032 116.911583 
L 165.780343 66.743977 
L 169.185811 66.743977 
L 170.320966 64.76157 
L 171.456122 90.395797 
L 173.726434 90.395797 
L 174.861589 66.039995 
L 178.267057 66.039995 
L 179.402212 94.59198 
L 180.537368 92.329238 
L 182.80768 92.329238 
L 183.942835 116.376569 
L 185.077991 116.376569 
L 186.213147 109.293871 
L 187.348303 109.293871 
L 188.483458 103.193329 
L 189.618614 79.554912 
L 190.75377 79.554912 
L 191.888926 54.232527 
L 194.159237 54.232527 
L 196.429549 108.729831 
L 206.64595 108.729831 
L 207.781106 136.611865 
L 208.916262 136.611865 
L 210.051418 162.347245 
L 211.186573 162.347245 
L 212.321729 190.349444 
L 214.592041 190.349444 
L 215.727196 163.020403 
L 216.862352 163.020403 
L 217.997508 137.671805 
L 219.132664 137.671805 
L 220.267819 110.88038 
L 222.538131 110.88038 
L 223.673287 83.853326 
L 224.808442 83.853326 
L 225.943598 110.299892 
L 227.078754 110.299892 
L 228.21391 84.978586 
L 229.349065 84.978586 
L 230.484221 108.024752 
L 231.619377 134.665801 
L 233.889688 134.665801 
L 235.024844 111.198503 
L 236.16 82.27402 
L 238.430312 82.27402 
L 239.565467 109.019944 
L 240.700623 109.019944 
L 241.835779 105.427102 
L 242.970935 105.427102 
L 244.10609 134.965203 
L 245.241246 161.006978 
L 246.376402 161.006978 
L 247.511558 163.377799 
L 248.646713 163.377799 
L 249.781869 189.1975 
L 250.917025 189.1975 
L 252.052181 160.5798 
L 253.187336 160.5798 
L 254.322492 186.68873 
L 255.457648 156.64243 
L 257.727959 156.64243 
L 258.863115 128.302989 
L 259.998271 131.531396 
L 262.268582 131.531396 
L 263.403738 156.541618 
L 264.538894 156.541618 
L 265.67405 185.764043 
L 267.944361 185.764043 
L 269.079517 160.95249 
L 270.214673 160.95249 
L 271.349828 132.843128 
L 272.484984 132.843128 
L 273.62014 104.9536 
L 274.755296 104.9536 
L 275.890451 76.802467 
L 277.025607 53.568 
L 278.160763 53.568 
L 279.295919 78.942557 
L 281.56623 78.942557 
L 282.701386 83.11447 
L 283.836542 60.703333 
L 398.487273 60.703333 
L 398.487273 60.703333 
" style="fill:none;stroke:#ff0000;stroke-linecap:square;stroke-width:12;"/>
    <defs>
     <path d="M 0 3 
C 0.795609 3 1.55874 2.683901 2.12132 2.12132 
C 2.683901 1.55874 3 0.795609 3 0 
C 3 -0.795609 2.683901 -1.55874 2.12132 -2.12132 
C 1.55874 -2.683901 0.795609 -3 0 -3 
C -0.795609 -3 -1.55874 -2.683901 -2.12132 -2.12132 
C -2.683901 -1.55874 -3 -0.795609 -3 0 
C -3 0.795609 -2.683901 1.55874 -2.12132 2.12132 
C -1.55874 2.683901 -0.795609 3 0 3 
z
" id="mc00393135c" style="stroke:#ff0000;"/>
    </defs>
    <g clip-path="url(#pdc02ce28ca)">
     <use style="fill:#ff0000;stroke:#ff0000;" x="73.832727" xlink:href="#mc00393135c" y="217.816315"/>
     <use style="fill:#ff0000;stroke:#ff0000;" x="74.967883" xlink:href="#mc00393135c" y="201.596267"/>
     <use style="fill:#ff0000;stroke:#ff0000;" x="76.103039" xlink:href="#mc00393135c" y="283.396766"/>
     <use style="fill:#ff0000;stroke:#ff0000;" x="77.238195" xlink:href="#mc00393135c" y="283.396766"/>
     <use style="fill:#ff0000;stroke:#ff0000;" x="78.37335" xlink:href="#mc00393135c" y="283.396766"/>
     <use style="fill:#ff0000;stroke:#ff0000;" x="79.508506" xlink:href="#mc00393135c" y="283.396766"/>
     <use style="fill:#ff0000;stroke:#ff0000;" x="80.643662" xlink:href="#mc00393135c" y="197.385495"/>
     <use style="fill:#ff0000;stroke:#ff0000;" x="81.778818" xlink:href="#mc00393135c" y="197.385495"/>
     <use style="fill:#ff0000;stroke:#ff0000;" x="82.913973" xlink:href="#mc00393135c" y="116.726285"/>
     <use style="fill:#ff0000;stroke:#ff0000;" x="84.049129" xlink:href="#mc00393135c" y="116.726285"/>
     <use style="fill:#ff0000;stroke:#ff0000;" x="85.184285" xlink:href="#mc00393135c" y="201.794204"/>
     <use style="fill:#ff0000;stroke:#ff0000;" x="86.319441" xlink:href="#mc00393135c" y="201.794204"/>
     <use style="fill:#ff0000;stroke:#ff0000;" x="87.454596" xlink:href="#mc00393135c" y="201.794204"/>
     <use style="fill:#ff0000;stroke:#ff0000;" x="88.589752" xlink:href="#mc00393135c" y="201.794204"/>
     <use style="fill:#ff0000;stroke:#ff0000;" x="89.724908" xlink:href="#mc00393135c" y="201.794204"/>
     <use style="fill:#ff0000;stroke:#ff0000;" x="90.860064" xlink:href="#mc00393135c" y="123.003832"/>
     <use style="fill:#ff0000;stroke:#ff0000;" x="91.995219" xlink:href="#mc00393135c" y="123.003832"/>
     <use style="fill:#ff0000;stroke:#ff0000;" x="93.130375" xlink:href="#mc00393135c" y="207.832334"/>
     <use style="fill:#ff0000;stroke:#ff0000;" x="94.265531" xlink:href="#mc00393135c" y="207.832334"/>
     <use style="fill:#ff0000;stroke:#ff0000;" x="95.400687" xlink:href="#mc00393135c" y="207.832334"/>
     <use style="fill:#ff0000;stroke:#ff0000;" x="96.535842" xlink:href="#mc00393135c" y="295.488"/>
     <use style="fill:#ff0000;stroke:#ff0000;" x="97.670998" xlink:href="#mc00393135c" y="295.488"/>
     <use style="fill:#ff0000;stroke:#ff0000;" x="98.806154" xlink:href="#mc00393135c" y="214.942487"/>
     <use style="fill:#ff0000;stroke:#ff0000;" x="99.94131" xlink:href="#mc00393135c" y="214.942487"/>
     <use style="fill:#ff0000;stroke:#ff0000;" x="101.076465" xlink:href="#mc00393135c" y="195.541412"/>
     <use style="fill:#ff0000;stroke:#ff0000;" x="102.211621" xlink:href="#mc00393135c" y="195.541412"/>
     <use style="fill:#ff0000;stroke:#ff0000;" x="103.346777" xlink:href="#mc00393135c" y="195.541412"/>
     <use style="fill:#ff0000;stroke:#ff0000;" x="104.481933" xlink:href="#mc00393135c" y="226.181763"/>
     <use style="fill:#ff0000;stroke:#ff0000;" x="105.617088" xlink:href="#mc00393135c" y="226.181763"/>
     <use style="fill:#ff0000;stroke:#ff0000;" x="106.752244" xlink:href="#mc00393135c" y="198.367577"/>
     <use style="fill:#ff0000;stroke:#ff0000;" x="107.8874" xlink:href="#mc00393135c" y="198.367577"/>
     <use style="fill:#ff0000;stroke:#ff0000;" x="109.022556" xlink:href="#mc00393135c" y="228.461626"/>
     <use style="fill:#ff0000;stroke:#ff0000;" x="110.157711" xlink:href="#mc00393135c" y="234.500773"/>
     <use style="fill:#ff0000;stroke:#ff0000;" x="111.292867" xlink:href="#mc00393135c" y="234.500773"/>
     <use style="fill:#ff0000;stroke:#ff0000;" x="112.428023" xlink:href="#mc00393135c" y="207.086584"/>
     <use style="fill:#ff0000;stroke:#ff0000;" x="113.563179" xlink:href="#mc00393135c" y="207.086584"/>
     <use style="fill:#ff0000;stroke:#ff0000;" x="114.698334" xlink:href="#mc00393135c" y="207.086584"/>
     <use style="fill:#ff0000;stroke:#ff0000;" x="115.83349" xlink:href="#mc00393135c" y="180.085087"/>
     <use style="fill:#ff0000;stroke:#ff0000;" x="116.968646" xlink:href="#mc00393135c" y="182.715958"/>
     <use style="fill:#ff0000;stroke:#ff0000;" x="118.103802" xlink:href="#mc00393135c" y="182.715958"/>
     <use style="fill:#ff0000;stroke:#ff0000;" x="119.238957" xlink:href="#mc00393135c" y="155.689699"/>
     <use style="fill:#ff0000;stroke:#ff0000;" x="120.374113" xlink:href="#mc00393135c" y="155.689699"/>
     <use style="fill:#ff0000;stroke:#ff0000;" x="121.509269" xlink:href="#mc00393135c" y="155.689699"/>
     <use style="fill:#ff0000;stroke:#ff0000;" x="122.644425" xlink:href="#mc00393135c" y="130.827532"/>
     <use style="fill:#ff0000;stroke:#ff0000;" x="123.77958" xlink:href="#mc00393135c" y="130.827532"/>
     <use style="fill:#ff0000;stroke:#ff0000;" x="124.914736" xlink:href="#mc00393135c" y="104.62798"/>
     <use style="fill:#ff0000;stroke:#ff0000;" x="126.049892" xlink:href="#mc00393135c" y="104.62798"/>
     <use style="fill:#ff0000;stroke:#ff0000;" x="127.185048" xlink:href="#mc00393135c" y="130.659684"/>
     <use style="fill:#ff0000;stroke:#ff0000;" x="128.320203" xlink:href="#mc00393135c" y="130.659684"/>
     <use style="fill:#ff0000;stroke:#ff0000;" x="129.455359" xlink:href="#mc00393135c" y="130.659684"/>
     <use style="fill:#ff0000;stroke:#ff0000;" x="130.590515" xlink:href="#mc00393135c" y="130.659684"/>
     <use style="fill:#ff0000;stroke:#ff0000;" x="131.725671" xlink:href="#mc00393135c" y="102.460539"/>
     <use style="fill:#ff0000;stroke:#ff0000;" x="132.860826" xlink:href="#mc00393135c" y="130.000216"/>
     <use style="fill:#ff0000;stroke:#ff0000;" x="133.995982" xlink:href="#mc00393135c" y="130.000216"/>
     <use style="fill:#ff0000;stroke:#ff0000;" x="135.131138" xlink:href="#mc00393135c" y="106.65284"/>
     <use style="fill:#ff0000;stroke:#ff0000;" x="136.266294" xlink:href="#mc00393135c" y="106.65284"/>
     <use style="fill:#ff0000;stroke:#ff0000;" x="137.401449" xlink:href="#mc00393135c" y="106.65284"/>
     <use style="fill:#ff0000;stroke:#ff0000;" x="138.536605" xlink:href="#mc00393135c" y="78.831988"/>
     <use style="fill:#ff0000;stroke:#ff0000;" x="139.671761" xlink:href="#mc00393135c" y="78.831988"/>
     <use style="fill:#ff0000;stroke:#ff0000;" x="140.806917" xlink:href="#mc00393135c" y="106.77434"/>
     <use style="fill:#ff0000;stroke:#ff0000;" x="141.942072" xlink:href="#mc00393135c" y="106.77434"/>
     <use style="fill:#ff0000;stroke:#ff0000;" x="143.077228" xlink:href="#mc00393135c" y="106.77434"/>
     <use style="fill:#ff0000;stroke:#ff0000;" x="144.212384" xlink:href="#mc00393135c" y="133.873015"/>
     <use style="fill:#ff0000;stroke:#ff0000;" x="145.34754" xlink:href="#mc00393135c" y="133.873015"/>
     <use style="fill:#ff0000;stroke:#ff0000;" x="146.482695" xlink:href="#mc00393135c" y="130.607586"/>
     <use style="fill:#ff0000;stroke:#ff0000;" x="147.617851" xlink:href="#mc00393135c" y="130.607586"/>
     <use style="fill:#ff0000;stroke:#ff0000;" x="148.753007" xlink:href="#mc00393135c" y="157.767359"/>
     <use style="fill:#ff0000;stroke:#ff0000;" x="149.888163" xlink:href="#mc00393135c" y="157.767359"/>
     <use style="fill:#ff0000;stroke:#ff0000;" x="151.023318" xlink:href="#mc00393135c" y="157.767359"/>
     <use style="fill:#ff0000;stroke:#ff0000;" x="152.158474" xlink:href="#mc00393135c" y="186.619168"/>
     <use style="fill:#ff0000;stroke:#ff0000;" x="153.29363" xlink:href="#mc00393135c" y="186.619168"/>
     <use style="fill:#ff0000;stroke:#ff0000;" x="154.428786" xlink:href="#mc00393135c" y="163.258245"/>
     <use style="fill:#ff0000;stroke:#ff0000;" x="155.563942" xlink:href="#mc00393135c" y="163.258245"/>
     <use style="fill:#ff0000;stroke:#ff0000;" x="156.699097" xlink:href="#mc00393135c" y="169.201096"/>
     <use style="fill:#ff0000;stroke:#ff0000;" x="157.834253" xlink:href="#mc00393135c" y="169.201096"/>
     <use style="fill:#ff0000;stroke:#ff0000;" x="158.969409" xlink:href="#mc00393135c" y="142.628072"/>
     <use style="fill:#ff0000;stroke:#ff0000;" x="160.104565" xlink:href="#mc00393135c" y="142.628072"/>
     <use style="fill:#ff0000;stroke:#ff0000;" x="161.23972" xlink:href="#mc00393135c" y="142.628072"/>
     <use style="fill:#ff0000;stroke:#ff0000;" x="162.374876" xlink:href="#mc00393135c" y="116.911583"/>
     <use style="fill:#ff0000;stroke:#ff0000;" x="163.510032" xlink:href="#mc00393135c" y="116.911583"/>
     <use style="fill:#ff0000;stroke:#ff0000;" x="164.645188" xlink:href="#mc00393135c" y="92.106946"/>
     <use style="fill:#ff0000;stroke:#ff0000;" x="165.780343" xlink:href="#mc00393135c" y="66.743977"/>
     <use style="fill:#ff0000;stroke:#ff0000;" x="166.915499" xlink:href="#mc00393135c" y="66.743977"/>
     <use style="fill:#ff0000;stroke:#ff0000;" x="168.050655" xlink:href="#mc00393135c" y="66.743977"/>
     <use style="fill:#ff0000;stroke:#ff0000;" x="169.185811" xlink:href="#mc00393135c" y="66.743977"/>
     <use style="fill:#ff0000;stroke:#ff0000;" x="170.320966" xlink:href="#mc00393135c" y="64.76157"/>
     <use style="fill:#ff0000;stroke:#ff0000;" x="171.456122" xlink:href="#mc00393135c" y="90.395797"/>
     <use style="fill:#ff0000;stroke:#ff0000;" x="172.591278" xlink:href="#mc00393135c" y="90.395797"/>
     <use style="fill:#ff0000;stroke:#ff0000;" x="173.726434" xlink:href="#mc00393135c" y="90.395797"/>
     <use style="fill:#ff0000;stroke:#ff0000;" x="174.861589" xlink:href="#mc00393135c" y="66.039995"/>
     <use style="fill:#ff0000;stroke:#ff0000;" x="175.996745" xlink:href="#mc00393135c" y="66.039995"/>
     <use style="fill:#ff0000;stroke:#ff0000;" x="177.131901" xlink:href="#mc00393135c" y="66.039995"/>
     <use style="fill:#ff0000;stroke:#ff0000;" x="178.267057" xlink:href="#mc00393135c" y="66.039995"/>
     <use style="fill:#ff0000;stroke:#ff0000;" x="179.402212" xlink:href="#mc00393135c" y="94.59198"/>
     <use style="fill:#ff0000;stroke:#ff0000;" x="180.537368" xlink:href="#mc00393135c" y="92.329238"/>
     <use style="fill:#ff0000;stroke:#ff0000;" x="181.672524" xlink:href="#mc00393135c" y="92.329238"/>
     <use style="fill:#ff0000;stroke:#ff0000;" x="182.80768" xlink:href="#mc00393135c" y="92.329238"/>
     <use style="fill:#ff0000;stroke:#ff0000;" x="183.942835" xlink:href="#mc00393135c" y="116.376569"/>
     <use style="fill:#ff0000;stroke:#ff0000;" x="185.077991" xlink:href="#mc00393135c" y="116.376569"/>
     <use style="fill:#ff0000;stroke:#ff0000;" x="186.213147" xlink:href="#mc00393135c" y="109.293871"/>
     <use style="fill:#ff0000;stroke:#ff0000;" x="187.348303" xlink:href="#mc00393135c" y="109.293871"/>
     <use style="fill:#ff0000;stroke:#ff0000;" x="188.483458" xlink:href="#mc00393135c" y="103.193329"/>
     <use style="fill:#ff0000;stroke:#ff0000;" x="189.618614" xlink:href="#mc00393135c" y="79.554912"/>
     <use style="fill:#ff0000;stroke:#ff0000;" x="190.75377" xlink:href="#mc00393135c" y="79.554912"/>
     <use style="fill:#ff0000;stroke:#ff0000;" x="191.888926" xlink:href="#mc00393135c" y="54.232527"/>
     <use style="fill:#ff0000;stroke:#ff0000;" x="193.024081" xlink:href="#mc00393135c" y="54.232527"/>
     <use style="fill:#ff0000;stroke:#ff0000;" x="194.159237" xlink:href="#mc00393135c" y="54.232527"/>
     <use style="fill:#ff0000;stroke:#ff0000;" x="195.294393" xlink:href="#mc00393135c" y="81.120362"/>
     <use style="fill:#ff0000;stroke:#ff0000;" x="196.429549" xlink:href="#mc00393135c" y="108.729831"/>
     <use style="fill:#ff0000;stroke:#ff0000;" x="197.564704" xlink:href="#mc00393135c" y="108.729831"/>
     <use style="fill:#ff0000;stroke:#ff0000;" x="198.69986" xlink:href="#mc00393135c" y="108.729831"/>
     <use style="fill:#ff0000;stroke:#ff0000;" x="199.835016" xlink:href="#mc00393135c" y="108.729831"/>
     <use style="fill:#ff0000;stroke:#ff0000;" x="200.970172" xlink:href="#mc00393135c" y="108.729831"/>
     <use style="fill:#ff0000;stroke:#ff0000;" x="202.105327" xlink:href="#mc00393135c" y="108.729831"/>
     <use style="fill:#ff0000;stroke:#ff0000;" x="203.240483" xlink:href="#mc00393135c" y="108.729831"/>
     <use style="fill:#ff0000;stroke:#ff0000;" x="204.375639" xlink:href="#mc00393135c" y="108.729831"/>
     <use style="fill:#ff0000;stroke:#ff0000;" x="205.510795" xlink:href="#mc00393135c" y="108.729831"/>
     <use style="fill:#ff0000;stroke:#ff0000;" x="206.64595" xlink:href="#mc00393135c" y="108.729831"/>
     <use style="fill:#ff0000;stroke:#ff0000;" x="207.781106" xlink:href="#mc00393135c" y="136.611865"/>
     <use style="fill:#ff0000;stroke:#ff0000;" x="208.916262" xlink:href="#mc00393135c" y="136.611865"/>
     <use style="fill:#ff0000;stroke:#ff0000;" x="210.051418" xlink:href="#mc00393135c" y="162.347245"/>
     <use style="fill:#ff0000;stroke:#ff0000;" x="211.186573" xlink:href="#mc00393135c" y="162.347245"/>
     <use style="fill:#ff0000;stroke:#ff0000;" x="212.321729" xlink:href="#mc00393135c" y="190.349444"/>
     <use style="fill:#ff0000;stroke:#ff0000;" x="213.456885" xlink:href="#mc00393135c" y="190.349444"/>
     <use style="fill:#ff0000;stroke:#ff0000;" x="214.592041" xlink:href="#mc00393135c" y="190.349444"/>
     <use style="fill:#ff0000;stroke:#ff0000;" x="215.727196" xlink:href="#mc00393135c" y="163.020403"/>
     <use style="fill:#ff0000;stroke:#ff0000;" x="216.862352" xlink:href="#mc00393135c" y="163.020403"/>
     <use style="fill:#ff0000;stroke:#ff0000;" x="217.997508" xlink:href="#mc00393135c" y="137.671805"/>
     <use style="fill:#ff0000;stroke:#ff0000;" x="219.132664" xlink:href="#mc00393135c" y="137.671805"/>
     <use style="fill:#ff0000;stroke:#ff0000;" x="220.267819" xlink:href="#mc00393135c" y="110.88038"/>
     <use style="fill:#ff0000;stroke:#ff0000;" x="221.402975" xlink:href="#mc00393135c" y="110.88038"/>
     <use style="fill:#ff0000;stroke:#ff0000;" x="222.538131" xlink:href="#mc00393135c" y="110.88038"/>
     <use style="fill:#ff0000;stroke:#ff0000;" x="223.673287" xlink:href="#mc00393135c" y="83.853326"/>
     <use style="fill:#ff0000;stroke:#ff0000;" x="224.808442" xlink:href="#mc00393135c" y="83.853326"/>
     <use style="fill:#ff0000;stroke:#ff0000;" x="225.943598" xlink:href="#mc00393135c" y="110.299892"/>
     <use style="fill:#ff0000;stroke:#ff0000;" x="227.078754" xlink:href="#mc00393135c" y="110.299892"/>
     <use style="fill:#ff0000;stroke:#ff0000;" x="228.21391" xlink:href="#mc00393135c" y="84.978586"/>
     <use style="fill:#ff0000;stroke:#ff0000;" x="229.349065" xlink:href="#mc00393135c" y="84.978586"/>
     <use style="fill:#ff0000;stroke:#ff0000;" x="230.484221" xlink:href="#mc00393135c" y="108.024752"/>
     <use style="fill:#ff0000;stroke:#ff0000;" x="231.619377" xlink:href="#mc00393135c" y="134.665801"/>
     <use style="fill:#ff0000;stroke:#ff0000;" x="232.754533" xlink:href="#mc00393135c" y="134.665801"/>
     <use style="fill:#ff0000;stroke:#ff0000;" x="233.889688" xlink:href="#mc00393135c" y="134.665801"/>
     <use style="fill:#ff0000;stroke:#ff0000;" x="235.024844" xlink:href="#mc00393135c" y="111.198503"/>
     <use style="fill:#ff0000;stroke:#ff0000;" x="236.16" xlink:href="#mc00393135c" y="82.27402"/>
     <use style="fill:#ff0000;stroke:#ff0000;" x="237.295156" xlink:href="#mc00393135c" y="82.27402"/>
     <use style="fill:#ff0000;stroke:#ff0000;" x="238.430312" xlink:href="#mc00393135c" y="82.27402"/>
     <use style="fill:#ff0000;stroke:#ff0000;" x="239.565467" xlink:href="#mc00393135c" y="109.019944"/>
     <use style="fill:#ff0000;stroke:#ff0000;" x="240.700623" xlink:href="#mc00393135c" y="109.019944"/>
     <use style="fill:#ff0000;stroke:#ff0000;" x="241.835779" xlink:href="#mc00393135c" y="105.427102"/>
     <use style="fill:#ff0000;stroke:#ff0000;" x="242.970935" xlink:href="#mc00393135c" y="105.427102"/>
     <use style="fill:#ff0000;stroke:#ff0000;" x="244.10609" xlink:href="#mc00393135c" y="134.965203"/>
     <use style="fill:#ff0000;stroke:#ff0000;" x="245.241246" xlink:href="#mc00393135c" y="161.006978"/>
     <use style="fill:#ff0000;stroke:#ff0000;" x="246.376402" xlink:href="#mc00393135c" y="161.006978"/>
     <use style="fill:#ff0000;stroke:#ff0000;" x="247.511558" xlink:href="#mc00393135c" y="163.377799"/>
     <use style="fill:#ff0000;stroke:#ff0000;" x="248.646713" xlink:href="#mc00393135c" y="163.377799"/>
     <use style="fill:#ff0000;stroke:#ff0000;" x="249.781869" xlink:href="#mc00393135c" y="189.1975"/>
     <use style="fill:#ff0000;stroke:#ff0000;" x="250.917025" xlink:href="#mc00393135c" y="189.1975"/>
     <use style="fill:#ff0000;stroke:#ff0000;" x="252.052181" xlink:href="#mc00393135c" y="160.5798"/>
     <use style="fill:#ff0000;stroke:#ff0000;" x="253.187336" xlink:href="#mc00393135c" y="160.5798"/>
     <use style="fill:#ff0000;stroke:#ff0000;" x="254.322492" xlink:href="#mc00393135c" y="186.68873"/>
     <use style="fill:#ff0000;stroke:#ff0000;" x="255.457648" xlink:href="#mc00393135c" y="156.64243"/>
     <use style="fill:#ff0000;stroke:#ff0000;" x="256.592804" xlink:href="#mc00393135c" y="156.64243"/>
     <use style="fill:#ff0000;stroke:#ff0000;" x="257.727959" xlink:href="#mc00393135c" y="156.64243"/>
     <use style="fill:#ff0000;stroke:#ff0000;" x="258.863115" xlink:href="#mc00393135c" y="128.302989"/>
     <use style="fill:#ff0000;stroke:#ff0000;" x="259.998271" xlink:href="#mc00393135c" y="131.531396"/>
     <use style="fill:#ff0000;stroke:#ff0000;" x="261.133427" xlink:href="#mc00393135c" y="131.531396"/>
     <use style="fill:#ff0000;stroke:#ff0000;" x="262.268582" xlink:href="#mc00393135c" y="131.531396"/>
     <use style="fill:#ff0000;stroke:#ff0000;" x="263.403738" xlink:href="#mc00393135c" y="156.541618"/>
     <use style="fill:#ff0000;stroke:#ff0000;" x="264.538894" xlink:href="#mc00393135c" y="156.541618"/>
     <use style="fill:#ff0000;stroke:#ff0000;" x="265.67405" xlink:href="#mc00393135c" y="185.764043"/>
     <use style="fill:#ff0000;stroke:#ff0000;" x="266.809205" xlink:href="#mc00393135c" y="185.764043"/>
     <use style="fill:#ff0000;stroke:#ff0000;" x="267.944361" xlink:href="#mc00393135c" y="185.764043"/>
     <use style="fill:#ff0000;stroke:#ff0000;" x="269.079517" xlink:href="#mc00393135c" y="160.95249"/>
     <use style="fill:#ff0000;stroke:#ff0000;" x="270.214673" xlink:href="#mc00393135c" y="160.95249"/>
     <use style="fill:#ff0000;stroke:#ff0000;" x="271.349828" xlink:href="#mc00393135c" y="132.843128"/>
     <use style="fill:#ff0000;stroke:#ff0000;" x="272.484984" xlink:href="#mc00393135c" y="132.843128"/>
     <use style="fill:#ff0000;stroke:#ff0000;" x="273.62014" xlink:href="#mc00393135c" y="104.9536"/>
     <use style="fill:#ff0000;stroke:#ff0000;" x="274.755296" xlink:href="#mc00393135c" y="104.9536"/>
     <use style="fill:#ff0000;stroke:#ff0000;" x="275.890451" xlink:href="#mc00393135c" y="76.802467"/>
     <use style="fill:#ff0000;stroke:#ff0000;" x="277.025607" xlink:href="#mc00393135c" y="53.568"/>
     <use style="fill:#ff0000;stroke:#ff0000;" x="278.160763" xlink:href="#mc00393135c" y="53.568"/>
     <use style="fill:#ff0000;stroke:#ff0000;" x="279.295919" xlink:href="#mc00393135c" y="78.942557"/>
     <use style="fill:#ff0000;stroke:#ff0000;" x="280.431074" xlink:href="#mc00393135c" y="78.942557"/>
     <use style="fill:#ff0000;stroke:#ff0000;" x="281.56623" xlink:href="#mc00393135c" y="78.942557"/>
     <use style="fill:#ff0000;stroke:#ff0000;" x="282.701386" xlink:href="#mc00393135c" y="83.11447"/>
     <use style="fill:#ff0000;stroke:#ff0000;" x="283.836542" xlink:href="#mc00393135c" y="60.703333"/>
     <use style="fill:#ff0000;stroke:#ff0000;" x="284.971697" xlink:href="#mc00393135c" y="60.703333"/>
     <use style="fill:#ff0000;stroke:#ff0000;" x="286.106853" xlink:href="#mc00393135c" y="60.703333"/>
     <use style="fill:#ff0000;stroke:#ff0000;" x="287.242009" xlink:href="#mc00393135c" y="60.703333"/>
     <use style="fill:#ff0000;stroke:#ff0000;" x="288.377165" xlink:href="#mc00393135c" y="60.703333"/>
     <use style="fill:#ff0000;stroke:#ff0000;" x="289.51232" xlink:href="#mc00393135c" y="60.703333"/>
     <use style="fill:#ff0000;stroke:#ff0000;" x="290.647476" xlink:href="#mc00393135c" y="60.703333"/>
     <use style="fill:#ff0000;stroke:#ff0000;" x="291.782632" xlink:href="#mc00393135c" y="60.703333"/>
     <use style="fill:#ff0000;stroke:#ff0000;" x="292.917788" xlink:href="#mc00393135c" y="60.703333"/>
     <use style="fill:#ff0000;stroke:#ff0000;" x="294.052943" xlink:href="#mc00393135c" y="60.703333"/>
     <use style="fill:#ff0000;stroke:#ff0000;" x="295.188099" xlink:href="#mc00393135c" y="60.703333"/>
     <use style="fill:#ff0000;stroke:#ff0000;" x="296.323255" xlink:href="#mc00393135c" y="60.703333"/>
     <use style="fill:#ff0000;stroke:#ff0000;" x="297.458411" xlink:href="#mc00393135c" y="60.703333"/>
     <use style="fill:#ff0000;stroke:#ff0000;" x="298.593566" xlink:href="#mc00393135c" y="60.703333"/>
     <use style="fill:#ff0000;stroke:#ff0000;" x="299.728722" xlink:href="#mc00393135c" y="60.703333"/>
     <use style="fill:#ff0000;stroke:#ff0000;" x="300.863878" xlink:href="#mc00393135c" y="60.703333"/>
     <use style="fill:#ff0000;stroke:#ff0000;" x="301.999034" xlink:href="#mc00393135c" y="60.703333"/>
     <use style="fill:#ff0000;stroke:#ff0000;" x="303.134189" xlink:href="#mc00393135c" y="60.703333"/>
     <use style="fill:#ff0000;stroke:#ff0000;" x="304.269345" xlink:href="#mc00393135c" y="60.703333"/>
     <use style="fill:#ff0000;stroke:#ff0000;" x="305.404501" xlink:href="#mc00393135c" y="60.703333"/>
     <use style="fill:#ff0000;stroke:#ff0000;" x="306.539657" xlink:href="#mc00393135c" y="60.703333"/>
     <use style="fill:#ff0000;stroke:#ff0000;" x="307.674812" xlink:href="#mc00393135c" y="60.703333"/>
     <use style="fill:#ff0000;stroke:#ff0000;" x="308.809968" xlink:href="#mc00393135c" y="60.703333"/>
     <use style="fill:#ff0000;stroke:#ff0000;" x="309.945124" xlink:href="#mc00393135c" y="60.703333"/>
     <use style="fill:#ff0000;stroke:#ff0000;" x="311.08028" xlink:href="#mc00393135c" y="60.703333"/>
     <use style="fill:#ff0000;stroke:#ff0000;" x="312.215435" xlink:href="#mc00393135c" y="60.703333"/>
     <use style="fill:#ff0000;stroke:#ff0000;" x="313.350591" xlink:href="#mc00393135c" y="60.703333"/>
     <use style="fill:#ff0000;stroke:#ff0000;" x="314.485747" xlink:href="#mc00393135c" y="60.703333"/>
     <use style="fill:#ff0000;stroke:#ff0000;" x="315.620903" xlink:href="#mc00393135c" y="60.703333"/>
     <use style="fill:#ff0000;stroke:#ff0000;" x="316.756058" xlink:href="#mc00393135c" y="60.703333"/>
     <use style="fill:#ff0000;stroke:#ff0000;" x="317.891214" xlink:href="#mc00393135c" y="60.703333"/>
     <use style="fill:#ff0000;stroke:#ff0000;" x="319.02637" xlink:href="#mc00393135c" y="60.703333"/>
     <use style="fill:#ff0000;stroke:#ff0000;" x="320.161526" xlink:href="#mc00393135c" y="60.703333"/>
     <use style="fill:#ff0000;stroke:#ff0000;" x="321.296682" xlink:href="#mc00393135c" y="60.703333"/>
     <use style="fill:#ff0000;stroke:#ff0000;" x="322.431837" xlink:href="#mc00393135c" y="60.703333"/>
     <use style="fill:#ff0000;stroke:#ff0000;" x="323.566993" xlink:href="#mc00393135c" y="60.703333"/>
     <use style="fill:#ff0000;stroke:#ff0000;" x="324.702149" xlink:href="#mc00393135c" y="60.703333"/>
     <use style="fill:#ff0000;stroke:#ff0000;" x="325.837305" xlink:href="#mc00393135c" y="60.703333"/>
     <use style="fill:#ff0000;stroke:#ff0000;" x="326.97246" xlink:href="#mc00393135c" y="60.703333"/>
     <use style="fill:#ff0000;stroke:#ff0000;" x="328.107616" xlink:href="#mc00393135c" y="60.703333"/>
     <use style="fill:#ff0000;stroke:#ff0000;" x="329.242772" xlink:href="#mc00393135c" y="60.703333"/>
     <use style="fill:#ff0000;stroke:#ff0000;" x="330.377928" xlink:href="#mc00393135c" y="60.703333"/>
     <use style="fill:#ff0000;stroke:#ff0000;" x="331.513083" xlink:href="#mc00393135c" y="60.703333"/>
     <use style="fill:#ff0000;stroke:#ff0000;" x="332.648239" xlink:href="#mc00393135c" y="60.703333"/>
     <use style="fill:#ff0000;stroke:#ff0000;" x="333.783395" xlink:href="#mc00393135c" y="60.703333"/>
     <use style="fill:#ff0000;stroke:#ff0000;" x="334.918551" xlink:href="#mc00393135c" y="60.703333"/>
     <use style="fill:#ff0000;stroke:#ff0000;" x="336.053706" xlink:href="#mc00393135c" y="60.703333"/>
     <use style="fill:#ff0000;stroke:#ff0000;" x="337.188862" xlink:href="#mc00393135c" y="60.703333"/>
     <use style="fill:#ff0000;stroke:#ff0000;" x="338.324018" xlink:href="#mc00393135c" y="60.703333"/>
     <use style="fill:#ff0000;stroke:#ff0000;" x="339.459174" xlink:href="#mc00393135c" y="60.703333"/>
     <use style="fill:#ff0000;stroke:#ff0000;" x="340.594329" xlink:href="#mc00393135c" y="60.703333"/>
     <use style="fill:#ff0000;stroke:#ff0000;" x="341.729485" xlink:href="#mc00393135c" y="60.703333"/>
     <use style="fill:#ff0000;stroke:#ff0000;" x="342.864641" xlink:href="#mc00393135c" y="60.703333"/>
     <use style="fill:#ff0000;stroke:#ff0000;" x="343.999797" xlink:href="#mc00393135c" y="60.703333"/>
     <use style="fill:#ff0000;stroke:#ff0000;" x="345.134952" xlink:href="#mc00393135c" y="60.703333"/>
     <use style="fill:#ff0000;stroke:#ff0000;" x="346.270108" xlink:href="#mc00393135c" y="60.703333"/>
     <use style="fill:#ff0000;stroke:#ff0000;" x="347.405264" xlink:href="#mc00393135c" y="60.703333"/>
     <use style="fill:#ff0000;stroke:#ff0000;" x="348.54042" xlink:href="#mc00393135c" y="60.703333"/>
     <use style="fill:#ff0000;stroke:#ff0000;" x="349.675575" xlink:href="#mc00393135c" y="60.703333"/>
     <use style="fill:#ff0000;stroke:#ff0000;" x="350.810731" xlink:href="#mc00393135c" y="60.703333"/>
     <use style="fill:#ff0000;stroke:#ff0000;" x="351.945887" xlink:href="#mc00393135c" y="60.703333"/>
     <use style="fill:#ff0000;stroke:#ff0000;" x="353.081043" xlink:href="#mc00393135c" y="60.703333"/>
     <use style="fill:#ff0000;stroke:#ff0000;" x="354.216198" xlink:href="#mc00393135c" y="60.703333"/>
     <use style="fill:#ff0000;stroke:#ff0000;" x="355.351354" xlink:href="#mc00393135c" y="60.703333"/>
     <use style="fill:#ff0000;stroke:#ff0000;" x="356.48651" xlink:href="#mc00393135c" y="60.703333"/>
     <use style="fill:#ff0000;stroke:#ff0000;" x="357.621666" xlink:href="#mc00393135c" y="60.703333"/>
     <use style="fill:#ff0000;stroke:#ff0000;" x="358.756821" xlink:href="#mc00393135c" y="60.703333"/>
     <use style="fill:#ff0000;stroke:#ff0000;" x="359.891977" xlink:href="#mc00393135c" y="60.703333"/>
     <use style="fill:#ff0000;stroke:#ff0000;" x="361.027133" xlink:href="#mc00393135c" y="60.703333"/>
     <use style="fill:#ff0000;stroke:#ff0000;" x="362.162289" xlink:href="#mc00393135c" y="60.703333"/>
     <use style="fill:#ff0000;stroke:#ff0000;" x="363.297444" xlink:href="#mc00393135c" y="60.703333"/>
     <use style="fill:#ff0000;stroke:#ff0000;" x="364.4326" xlink:href="#mc00393135c" y="60.703333"/>
     <use style="fill:#ff0000;stroke:#ff0000;" x="365.567756" xlink:href="#mc00393135c" y="60.703333"/>
     <use style="fill:#ff0000;stroke:#ff0000;" x="366.702912" xlink:href="#mc00393135c" y="60.703333"/>
     <use style="fill:#ff0000;stroke:#ff0000;" x="367.838067" xlink:href="#mc00393135c" y="60.703333"/>
     <use style="fill:#ff0000;stroke:#ff0000;" x="368.973223" xlink:href="#mc00393135c" y="60.703333"/>
     <use style="fill:#ff0000;stroke:#ff0000;" x="370.108379" xlink:href="#mc00393135c" y="60.703333"/>
     <use style="fill:#ff0000;stroke:#ff0000;" x="371.243535" xlink:href="#mc00393135c" y="60.703333"/>
     <use style="fill:#ff0000;stroke:#ff0000;" x="372.37869" xlink:href="#mc00393135c" y="60.703333"/>
     <use style="fill:#ff0000;stroke:#ff0000;" x="373.513846" xlink:href="#mc00393135c" y="60.703333"/>
     <use style="fill:#ff0000;stroke:#ff0000;" x="374.649002" xlink:href="#mc00393135c" y="60.703333"/>
     <use style="fill:#ff0000;stroke:#ff0000;" x="375.784158" xlink:href="#mc00393135c" y="60.703333"/>
     <use style="fill:#ff0000;stroke:#ff0000;" x="376.919313" xlink:href="#mc00393135c" y="60.703333"/>
     <use style="fill:#ff0000;stroke:#ff0000;" x="378.054469" xlink:href="#mc00393135c" y="60.703333"/>
     <use style="fill:#ff0000;stroke:#ff0000;" x="379.189625" xlink:href="#mc00393135c" y="60.703333"/>
     <use style="fill:#ff0000;stroke:#ff0000;" x="380.324781" xlink:href="#mc00393135c" y="60.703333"/>
     <use style="fill:#ff0000;stroke:#ff0000;" x="381.459936" xlink:href="#mc00393135c" y="60.703333"/>
     <use style="fill:#ff0000;stroke:#ff0000;" x="382.595092" xlink:href="#mc00393135c" y="60.703333"/>
     <use style="fill:#ff0000;stroke:#ff0000;" x="383.730248" xlink:href="#mc00393135c" y="60.703333"/>
     <use style="fill:#ff0000;stroke:#ff0000;" x="384.865404" xlink:href="#mc00393135c" y="60.703333"/>
     <use style="fill:#ff0000;stroke:#ff0000;" x="386.000559" xlink:href="#mc00393135c" y="60.703333"/>
     <use style="fill:#ff0000;stroke:#ff0000;" x="387.135715" xlink:href="#mc00393135c" y="60.703333"/>
     <use style="fill:#ff0000;stroke:#ff0000;" x="388.270871" xlink:href="#mc00393135c" y="60.703333"/>
     <use style="fill:#ff0000;stroke:#ff0000;" x="389.406027" xlink:href="#mc00393135c" y="60.703333"/>
     <use style="fill:#ff0000;stroke:#ff0000;" x="390.541182" xlink:href="#mc00393135c" y="60.703333"/>
     <use style="fill:#ff0000;stroke:#ff0000;" x="391.676338" xlink:href="#mc00393135c" y="60.703333"/>
     <use style="fill:#ff0000;stroke:#ff0000;" x="392.811494" xlink:href="#mc00393135c" y="60.703333"/>
     <use style="fill:#ff0000;stroke:#ff0000;" x="393.94665" xlink:href="#mc00393135c" y="60.703333"/>
     <use style="fill:#ff0000;stroke:#ff0000;" x="395.081805" xlink:href="#mc00393135c" y="60.703333"/>
     <use style="fill:#ff0000;stroke:#ff0000;" x="396.216961" xlink:href="#mc00393135c" y="60.703333"/>
     <use style="fill:#ff0000;stroke:#ff0000;" x="397.352117" xlink:href="#mc00393135c" y="60.703333"/>
     <use style="fill:#ff0000;stroke:#ff0000;" x="398.487273" xlink:href="#mc00393135c" y="60.703333"/>
    </g>
   </g>
   <g id="patch_3">
    <path d="M 57.6 307.584 
L 57.6 41.472 
" style="fill:none;stroke:#000000;stroke-linecap:square;stroke-linejoin:miter;stroke-width:0.8;"/>
   </g>
   <g id="patch_4">
    <path d="M 414.72 307.584 
L 414.72 41.472 
" style="fill:none;stroke:#000000;stroke-linecap:square;stroke-linejoin:miter;stroke-width:0.8;"/>
   </g>
   <g id="patch_5">
    <path d="M 57.6 307.584 
L 414.72 307.584 
" style="fill:none;stroke:#000000;stroke-linecap:square;stroke-linejoin:miter;stroke-width:0.8;"/>
   </g>
   <g id="patch_6">
    <path d="M 57.6 41.472 
L 414.72 41.472 
" style="fill:none;stroke:#000000;stroke-linecap:square;stroke-linejoin:miter;stroke-width:0.8;"/>
   </g>
  </g>
 </g>
 <defs>
  <clipPath id="pdc02ce28ca">
   <rect height="266.112" width="357.12" x="57.6" y="41.472"/>
  </clipPath>
 </defs>
</svg>
