<?xml version="1.0" encoding="utf-8" standalone="no"?>
<!DOCTYPE svg PUBLIC "-//W3C//DTD SVG 1.1//EN"
  "http://www.w3.org/Graphics/SVG/1.1/DTD/svg11.dtd">
<!-- Created with matplotlib (https://matplotlib.org/) -->
<svg height="345.6pt" version="1.1" viewBox="0 0 460.8 345.6" width="460.8pt" xmlns="http://www.w3.org/2000/svg" xmlns:xlink="http://www.w3.org/1999/xlink">
 <defs>
  <style type="text/css">
*{stroke-linecap:butt;stroke-linejoin:round;}
  </style>
 </defs>
 <g id="figure_1">
  <g id="patch_1">
   <path d="M 0 345.6 
L 460.8 345.6 
L 460.8 0 
L 0 0 
z
" style="fill:#ffffff;"/>
  </g>
  <g id="axes_1">
   <g id="patch_2">
    <path d="M 57.6 307.584 
L 414.72 307.584 
L 414.72 41.472 
L 57.6 41.472 
z
" style="fill:#ffffff;"/>
   </g>
   <g id="line2d_1">
    <path clip-path="url(#p5a3ae51066)" d="M 73.832727 217.816315 
L 74.8868 201.596267 
L 75.940874 283.396766 
L 79.103093 283.396766 
L 80.157166 197.385495 
L 81.21124 197.385495 
L 82.265313 116.726285 
L 83.319386 116.726285 
L 84.373459 201.794204 
L 88.589752 201.794204 
L 89.643825 123.003832 
L 90.697898 123.003832 
L 91.751972 207.832334 
L 93.860118 207.832334 
L 94.914191 295.488 
L 95.968264 295.488 
L 97.022338 214.942487 
L 98.076411 214.942487 
L 99.130484 195.541412 
L 101.23863 195.541412 
L 102.292704 226.181763 
L 103.346777 226.181763 
L 104.40085 198.367577 
L 105.454923 198.367577 
L 106.508996 228.461626 
L 107.56307 234.500773 
L 108.617143 234.500773 
L 109.671216 207.086584 
L 111.779362 207.086584 
L 112.833436 180.085087 
L 113.887509 182.715958 
L 114.941582 182.715958 
L 115.995655 155.689699 
L 118.103802 155.689699 
L 119.157875 130.827532 
L 120.211948 130.827532 
L 121.266021 104.62798 
L 122.320094 104.62798 
L 123.374168 130.659684 
L 126.536387 130.659684 
L 127.59046 102.460539 
L 128.644534 130.000216 
L 129.698607 130.000216 
L 130.75268 106.65284 
L 132.860826 106.65284 
L 133.9149 78.831988 
L 134.968973 78.831988 
L 136.023046 106.77434 
L 138.131192 106.77434 
L 139.185266 133.873015 
L 140.239339 133.873015 
L 141.293412 130.607586 
L 142.347485 130.607586 
L 143.401558 157.767359 
L 145.509705 157.767359 
L 146.563778 186.619168 
L 147.617851 186.619168 
L 148.671924 163.258245 
L 149.725998 163.258245 
L 150.780071 169.201096 
L 151.834144 169.201096 
L 152.888217 142.628072 
L 154.996364 142.628072 
L 156.050437 116.911583 
L 157.10451 116.911583 
L 159.212656 66.743977 
L 162.374876 66.743977 
L 163.428949 64.76157 
L 164.483022 90.395797 
L 166.591169 90.395797 
L 167.645242 66.039995 
L 170.807462 66.039995 
L 171.861535 94.59198 
L 172.915608 92.329238 
L 175.023754 92.329238 
L 176.077828 116.376569 
L 177.131901 116.376569 
L 178.185974 109.293871 
L 179.240047 109.293871 
L 180.29412 103.193329 
L 181.348194 79.554912 
L 182.402267 79.554912 
L 183.45634 54.232527 
L 185.564486 54.232527 
L 187.672633 108.729831 
L 197.159292 108.729831 
L 198.213365 136.611865 
L 199.267438 136.611865 
L 200.321511 162.347245 
L 201.375584 162.347245 
L 202.429658 190.349444 
L 204.537804 190.349444 
L 205.591877 163.020403 
L 206.64595 163.020403 
L 207.700024 137.671805 
L 208.754097 137.671805 
L 209.80817 110.88038 
L 211.916316 110.88038 
L 212.97039 83.853326 
L 214.024463 83.853326 
L 215.078536 110.299892 
L 216.132609 110.299892 
L 217.186682 84.978586 
L 218.240756 84.978586 
L 219.294829 108.024752 
L 220.348902 134.665801 
L 222.457048 134.665801 
L 223.511122 111.198503 
L 224.565195 82.27402 
L 226.673341 82.27402 
L 227.727414 109.019944 
L 228.781488 109.019944 
L 229.835561 105.427102 
L 230.889634 105.427102 
L 231.943707 134.965203 
L 232.99778 161.006978 
L 234.051854 161.006978 
L 235.105927 163.377799 
L 236.16 163.377799 
L 237.214073 189.1975 
L 238.268146 189.1975 
L 239.32222 160.5798 
L 240.376293 160.5798 
L 241.430366 186.68873 
L 242.484439 156.64243 
L 244.592586 156.64243 
L 245.646659 128.302989 
L 246.700732 131.531396 
L 248.808878 131.531396 
L 249.862952 156.541618 
L 250.917025 156.541618 
L 251.971098 185.764043 
L 254.079244 185.764043 
L 255.133318 160.95249 
L 256.187391 160.95249 
L 257.241464 132.843128 
L 258.295537 132.843128 
L 259.34961 104.9536 
L 260.403684 104.9536 
L 261.457757 76.802467 
L 262.51183 53.568 
L 263.565903 53.568 
L 264.619976 78.942557 
L 266.728123 78.942557 
L 267.782196 83.11447 
L 268.836269 60.703333 
L 398.487273 60.703333 
L 398.487273 60.703333 
" style="fill:none;stroke:#ff0000;stroke-linecap:square;stroke-width:12;"/>
    <defs>
     <path d="M 0 3 
C 0.795609 3 1.55874 2.683901 2.12132 2.12132 
C 2.683901 1.55874 3 0.795609 3 0 
C 3 -0.795609 2.683901 -1.55874 2.12132 -2.12132 
C 1.55874 -2.683901 0.795609 -3 0 -3 
C -0.795609 -3 -1.55874 -2.683901 -2.12132 -2.12132 
C -2.683901 -1.55874 -3 -0.795609 -3 0 
C -3 0.795609 -2.683901 1.55874 -2.12132 2.12132 
C -1.55874 2.683901 -0.795609 3 0 3 
z
" id="m018b45dcdf" style="stroke:#ff0000;"/>
    </defs>
    <g clip-path="url(#p5a3ae51066)">
     <use style="fill:#ff0000;stroke:#ff0000;" x="73.832727" xlink:href="#m018b45dcdf" y="217.816315"/>
     <use style="fill:#ff0000;stroke:#ff0000;" x="74.8868" xlink:href="#m018b45dcdf" y="201.596267"/>
     <use style="fill:#ff0000;stroke:#ff0000;" x="75.940874" xlink:href="#m018b45dcdf" y="283.396766"/>
     <use style="fill:#ff0000;stroke:#ff0000;" x="76.994947" xlink:href="#m018b45dcdf" y="283.396766"/>
     <use style="fill:#ff0000;stroke:#ff0000;" x="78.04902" xlink:href="#m018b45dcdf" y="283.396766"/>
     <use style="fill:#ff0000;stroke:#ff0000;" x="79.103093" xlink:href="#m018b45dcdf" y="283.396766"/>
     <use style="fill:#ff0000;stroke:#ff0000;" x="80.157166" xlink:href="#m018b45dcdf" y="197.385495"/>
     <use style="fill:#ff0000;stroke:#ff0000;" x="81.21124" xlink:href="#m018b45dcdf" y="197.385495"/>
     <use style="fill:#ff0000;stroke:#ff0000;" x="82.265313" xlink:href="#m018b45dcdf" y="116.726285"/>
     <use style="fill:#ff0000;stroke:#ff0000;" x="83.319386" xlink:href="#m018b45dcdf" y="116.726285"/>
     <use style="fill:#ff0000;stroke:#ff0000;" x="84.373459" xlink:href="#m018b45dcdf" y="201.794204"/>
     <use style="fill:#ff0000;stroke:#ff0000;" x="85.427532" xlink:href="#m018b45dcdf" y="201.794204"/>
     <use style="fill:#ff0000;stroke:#ff0000;" x="86.481606" xlink:href="#m018b45dcdf" y="201.794204"/>
     <use style="fill:#ff0000;stroke:#ff0000;" x="87.535679" xlink:href="#m018b45dcdf" y="201.794204"/>
     <use style="fill:#ff0000;stroke:#ff0000;" x="88.589752" xlink:href="#m018b45dcdf" y="201.794204"/>
     <use style="fill:#ff0000;stroke:#ff0000;" x="89.643825" xlink:href="#m018b45dcdf" y="123.003832"/>
     <use style="fill:#ff0000;stroke:#ff0000;" x="90.697898" xlink:href="#m018b45dcdf" y="123.003832"/>
     <use style="fill:#ff0000;stroke:#ff0000;" x="91.751972" xlink:href="#m018b45dcdf" y="207.832334"/>
     <use style="fill:#ff0000;stroke:#ff0000;" x="92.806045" xlink:href="#m018b45dcdf" y="207.832334"/>
     <use style="fill:#ff0000;stroke:#ff0000;" x="93.860118" xlink:href="#m018b45dcdf" y="207.832334"/>
     <use style="fill:#ff0000;stroke:#ff0000;" x="94.914191" xlink:href="#m018b45dcdf" y="295.488"/>
     <use style="fill:#ff0000;stroke:#ff0000;" x="95.968264" xlink:href="#m018b45dcdf" y="295.488"/>
     <use style="fill:#ff0000;stroke:#ff0000;" x="97.022338" xlink:href="#m018b45dcdf" y="214.942487"/>
     <use style="fill:#ff0000;stroke:#ff0000;" x="98.076411" xlink:href="#m018b45dcdf" y="214.942487"/>
     <use style="fill:#ff0000;stroke:#ff0000;" x="99.130484" xlink:href="#m018b45dcdf" y="195.541412"/>
     <use style="fill:#ff0000;stroke:#ff0000;" x="100.184557" xlink:href="#m018b45dcdf" y="195.541412"/>
     <use style="fill:#ff0000;stroke:#ff0000;" x="101.23863" xlink:href="#m018b45dcdf" y="195.541412"/>
     <use style="fill:#ff0000;stroke:#ff0000;" x="102.292704" xlink:href="#m018b45dcdf" y="226.181763"/>
     <use style="fill:#ff0000;stroke:#ff0000;" x="103.346777" xlink:href="#m018b45dcdf" y="226.181763"/>
     <use style="fill:#ff0000;stroke:#ff0000;" x="104.40085" xlink:href="#m018b45dcdf" y="198.367577"/>
     <use style="fill:#ff0000;stroke:#ff0000;" x="105.454923" xlink:href="#m018b45dcdf" y="198.367577"/>
     <use style="fill:#ff0000;stroke:#ff0000;" x="106.508996" xlink:href="#m018b45dcdf" y="228.461626"/>
     <use style="fill:#ff0000;stroke:#ff0000;" x="107.56307" xlink:href="#m018b45dcdf" y="234.500773"/>
     <use style="fill:#ff0000;stroke:#ff0000;" x="108.617143" xlink:href="#m018b45dcdf" y="234.500773"/>
     <use style="fill:#ff0000;stroke:#ff0000;" x="109.671216" xlink:href="#m018b45dcdf" y="207.086584"/>
     <use style="fill:#ff0000;stroke:#ff0000;" x="110.725289" xlink:href="#m018b45dcdf" y="207.086584"/>
     <use style="fill:#ff0000;stroke:#ff0000;" x="111.779362" xlink:href="#m018b45dcdf" y="207.086584"/>
     <use style="fill:#ff0000;stroke:#ff0000;" x="112.833436" xlink:href="#m018b45dcdf" y="180.085087"/>
     <use style="fill:#ff0000;stroke:#ff0000;" x="113.887509" xlink:href="#m018b45dcdf" y="182.715958"/>
     <use style="fill:#ff0000;stroke:#ff0000;" x="114.941582" xlink:href="#m018b45dcdf" y="182.715958"/>
     <use style="fill:#ff0000;stroke:#ff0000;" x="115.995655" xlink:href="#m018b45dcdf" y="155.689699"/>
     <use style="fill:#ff0000;stroke:#ff0000;" x="117.049728" xlink:href="#m018b45dcdf" y="155.689699"/>
     <use style="fill:#ff0000;stroke:#ff0000;" x="118.103802" xlink:href="#m018b45dcdf" y="155.689699"/>
     <use style="fill:#ff0000;stroke:#ff0000;" x="119.157875" xlink:href="#m018b45dcdf" y="130.827532"/>
     <use style="fill:#ff0000;stroke:#ff0000;" x="120.211948" xlink:href="#m018b45dcdf" y="130.827532"/>
     <use style="fill:#ff0000;stroke:#ff0000;" x="121.266021" xlink:href="#m018b45dcdf" y="104.62798"/>
     <use style="fill:#ff0000;stroke:#ff0000;" x="122.320094" xlink:href="#m018b45dcdf" y="104.62798"/>
     <use style="fill:#ff0000;stroke:#ff0000;" x="123.374168" xlink:href="#m018b45dcdf" y="130.659684"/>
     <use style="fill:#ff0000;stroke:#ff0000;" x="124.428241" xlink:href="#m018b45dcdf" y="130.659684"/>
     <use style="fill:#ff0000;stroke:#ff0000;" x="125.482314" xlink:href="#m018b45dcdf" y="130.659684"/>
     <use style="fill:#ff0000;stroke:#ff0000;" x="126.536387" xlink:href="#m018b45dcdf" y="130.659684"/>
     <use style="fill:#ff0000;stroke:#ff0000;" x="127.59046" xlink:href="#m018b45dcdf" y="102.460539"/>
     <use style="fill:#ff0000;stroke:#ff0000;" x="128.644534" xlink:href="#m018b45dcdf" y="130.000216"/>
     <use style="fill:#ff0000;stroke:#ff0000;" x="129.698607" xlink:href="#m018b45dcdf" y="130.000216"/>
     <use style="fill:#ff0000;stroke:#ff0000;" x="130.75268" xlink:href="#m018b45dcdf" y="106.65284"/>
     <use style="fill:#ff0000;stroke:#ff0000;" x="131.806753" xlink:href="#m018b45dcdf" y="106.65284"/>
     <use style="fill:#ff0000;stroke:#ff0000;" x="132.860826" xlink:href="#m018b45dcdf" y="106.65284"/>
     <use style="fill:#ff0000;stroke:#ff0000;" x="133.9149" xlink:href="#m018b45dcdf" y="78.831988"/>
     <use style="fill:#ff0000;stroke:#ff0000;" x="134.968973" xlink:href="#m018b45dcdf" y="78.831988"/>
     <use style="fill:#ff0000;stroke:#ff0000;" x="136.023046" xlink:href="#m018b45dcdf" y="106.77434"/>
     <use style="fill:#ff0000;stroke:#ff0000;" x="137.077119" xlink:href="#m018b45dcdf" y="106.77434"/>
     <use style="fill:#ff0000;stroke:#ff0000;" x="138.131192" xlink:href="#m018b45dcdf" y="106.77434"/>
     <use style="fill:#ff0000;stroke:#ff0000;" x="139.185266" xlink:href="#m018b45dcdf" y="133.873015"/>
     <use style="fill:#ff0000;stroke:#ff0000;" x="140.239339" xlink:href="#m018b45dcdf" y="133.873015"/>
     <use style="fill:#ff0000;stroke:#ff0000;" x="141.293412" xlink:href="#m018b45dcdf" y="130.607586"/>
     <use style="fill:#ff0000;stroke:#ff0000;" x="142.347485" xlink:href="#m018b45dcdf" y="130.607586"/>
     <use style="fill:#ff0000;stroke:#ff0000;" x="143.401558" xlink:href="#m018b45dcdf" y="157.767359"/>
     <use style="fill:#ff0000;stroke:#ff0000;" x="144.455632" xlink:href="#m018b45dcdf" y="157.767359"/>
     <use style="fill:#ff0000;stroke:#ff0000;" x="145.509705" xlink:href="#m018b45dcdf" y="157.767359"/>
     <use style="fill:#ff0000;stroke:#ff0000;" x="146.563778" xlink:href="#m018b45dcdf" y="186.619168"/>
     <use style="fill:#ff0000;stroke:#ff0000;" x="147.617851" xlink:href="#m018b45dcdf" y="186.619168"/>
     <use style="fill:#ff0000;stroke:#ff0000;" x="148.671924" xlink:href="#m018b45dcdf" y="163.258245"/>
     <use style="fill:#ff0000;stroke:#ff0000;" x="149.725998" xlink:href="#m018b45dcdf" y="163.258245"/>
     <use style="fill:#ff0000;stroke:#ff0000;" x="150.780071" xlink:href="#m018b45dcdf" y="169.201096"/>
     <use style="fill:#ff0000;stroke:#ff0000;" x="151.834144" xlink:href="#m018b45dcdf" y="169.201096"/>
     <use style="fill:#ff0000;stroke:#ff0000;" x="152.888217" xlink:href="#m018b45dcdf" y="142.628072"/>
     <use style="fill:#ff0000;stroke:#ff0000;" x="153.94229" xlink:href="#m018b45dcdf" y="142.628072"/>
     <use style="fill:#ff0000;stroke:#ff0000;" x="154.996364" xlink:href="#m018b45dcdf" y="142.628072"/>
     <use style="fill:#ff0000;stroke:#ff0000;" x="156.050437" xlink:href="#m018b45dcdf" y="116.911583"/>
     <use style="fill:#ff0000;stroke:#ff0000;" x="157.10451" xlink:href="#m018b45dcdf" y="116.911583"/>
     <use style="fill:#ff0000;stroke:#ff0000;" x="158.158583" xlink:href="#m018b45dcdf" y="92.106946"/>
     <use style="fill:#ff0000;stroke:#ff0000;" x="159.212656" xlink:href="#m018b45dcdf" y="66.743977"/>
     <use style="fill:#ff0000;stroke:#ff0000;" x="160.26673" xlink:href="#m018b45dcdf" y="66.743977"/>
     <use style="fill:#ff0000;stroke:#ff0000;" x="161.320803" xlink:href="#m018b45dcdf" y="66.743977"/>
     <use style="fill:#ff0000;stroke:#ff0000;" x="162.374876" xlink:href="#m018b45dcdf" y="66.743977"/>
     <use style="fill:#ff0000;stroke:#ff0000;" x="163.428949" xlink:href="#m018b45dcdf" y="64.76157"/>
     <use style="fill:#ff0000;stroke:#ff0000;" x="164.483022" xlink:href="#m018b45dcdf" y="90.395797"/>
     <use style="fill:#ff0000;stroke:#ff0000;" x="165.537096" xlink:href="#m018b45dcdf" y="90.395797"/>
     <use style="fill:#ff0000;stroke:#ff0000;" x="166.591169" xlink:href="#m018b45dcdf" y="90.395797"/>
     <use style="fill:#ff0000;stroke:#ff0000;" x="167.645242" xlink:href="#m018b45dcdf" y="66.039995"/>
     <use style="fill:#ff0000;stroke:#ff0000;" x="168.699315" xlink:href="#m018b45dcdf" y="66.039995"/>
     <use style="fill:#ff0000;stroke:#ff0000;" x="169.753388" xlink:href="#m018b45dcdf" y="66.039995"/>
     <use style="fill:#ff0000;stroke:#ff0000;" x="170.807462" xlink:href="#m018b45dcdf" y="66.039995"/>
     <use style="fill:#ff0000;stroke:#ff0000;" x="171.861535" xlink:href="#m018b45dcdf" y="94.59198"/>
     <use style="fill:#ff0000;stroke:#ff0000;" x="172.915608" xlink:href="#m018b45dcdf" y="92.329238"/>
     <use style="fill:#ff0000;stroke:#ff0000;" x="173.969681" xlink:href="#m018b45dcdf" y="92.329238"/>
     <use style="fill:#ff0000;stroke:#ff0000;" x="175.023754" xlink:href="#m018b45dcdf" y="92.329238"/>
     <use style="fill:#ff0000;stroke:#ff0000;" x="176.077828" xlink:href="#m018b45dcdf" y="116.376569"/>
     <use style="fill:#ff0000;stroke:#ff0000;" x="177.131901" xlink:href="#m018b45dcdf" y="116.376569"/>
     <use style="fill:#ff0000;stroke:#ff0000;" x="178.185974" xlink:href="#m018b45dcdf" y="109.293871"/>
     <use style="fill:#ff0000;stroke:#ff0000;" x="179.240047" xlink:href="#m018b45dcdf" y="109.293871"/>
     <use style="fill:#ff0000;stroke:#ff0000;" x="180.29412" xlink:href="#m018b45dcdf" y="103.193329"/>
     <use style="fill:#ff0000;stroke:#ff0000;" x="181.348194" xlink:href="#m018b45dcdf" y="79.554912"/>
     <use style="fill:#ff0000;stroke:#ff0000;" x="182.402267" xlink:href="#m018b45dcdf" y="79.554912"/>
     <use style="fill:#ff0000;stroke:#ff0000;" x="183.45634" xlink:href="#m018b45dcdf" y="54.232527"/>
     <use style="fill:#ff0000;stroke:#ff0000;" x="184.510413" xlink:href="#m018b45dcdf" y="54.232527"/>
     <use style="fill:#ff0000;stroke:#ff0000;" x="185.564486" xlink:href="#m018b45dcdf" y="54.232527"/>
     <use style="fill:#ff0000;stroke:#ff0000;" x="186.61856" xlink:href="#m018b45dcdf" y="81.120362"/>
     <use style="fill:#ff0000;stroke:#ff0000;" x="187.672633" xlink:href="#m018b45dcdf" y="108.729831"/>
     <use style="fill:#ff0000;stroke:#ff0000;" x="188.726706" xlink:href="#m018b45dcdf" y="108.729831"/>
     <use style="fill:#ff0000;stroke:#ff0000;" x="189.780779" xlink:href="#m018b45dcdf" y="108.729831"/>
     <use style="fill:#ff0000;stroke:#ff0000;" x="190.834852" xlink:href="#m018b45dcdf" y="108.729831"/>
     <use style="fill:#ff0000;stroke:#ff0000;" x="191.888926" xlink:href="#m018b45dcdf" y="108.729831"/>
     <use style="fill:#ff0000;stroke:#ff0000;" x="192.942999" xlink:href="#m018b45dcdf" y="108.729831"/>
     <use style="fill:#ff0000;stroke:#ff0000;" x="193.997072" xlink:href="#m018b45dcdf" y="108.729831"/>
     <use style="fill:#ff0000;stroke:#ff0000;" x="195.051145" xlink:href="#m018b45dcdf" y="108.729831"/>
     <use style="fill:#ff0000;stroke:#ff0000;" x="196.105218" xlink:href="#m018b45dcdf" y="108.729831"/>
     <use style="fill:#ff0000;stroke:#ff0000;" x="197.159292" xlink:href="#m018b45dcdf" y="108.729831"/>
     <use style="fill:#ff0000;stroke:#ff0000;" x="198.213365" xlink:href="#m018b45dcdf" y="136.611865"/>
     <use style="fill:#ff0000;stroke:#ff0000;" x="199.267438" xlink:href="#m018b45dcdf" y="136.611865"/>
     <use style="fill:#ff0000;stroke:#ff0000;" x="200.321511" xlink:href="#m018b45dcdf" y="162.347245"/>
     <use style="fill:#ff0000;stroke:#ff0000;" x="201.375584" xlink:href="#m018b45dcdf" y="162.347245"/>
     <use style="fill:#ff0000;stroke:#ff0000;" x="202.429658" xlink:href="#m018b45dcdf" y="190.349444"/>
     <use style="fill:#ff0000;stroke:#ff0000;" x="203.483731" xlink:href="#m018b45dcdf" y="190.349444"/>
     <use style="fill:#ff0000;stroke:#ff0000;" x="204.537804" xlink:href="#m018b45dcdf" y="190.349444"/>
     <use style="fill:#ff0000;stroke:#ff0000;" x="205.591877" xlink:href="#m018b45dcdf" y="163.020403"/>
     <use style="fill:#ff0000;stroke:#ff0000;" x="206.64595" xlink:href="#m018b45dcdf" y="163.020403"/>
     <use style="fill:#ff0000;stroke:#ff0000;" x="207.700024" xlink:href="#m018b45dcdf" y="137.671805"/>
     <use style="fill:#ff0000;stroke:#ff0000;" x="208.754097" xlink:href="#m018b45dcdf" y="137.671805"/>
     <use style="fill:#ff0000;stroke:#ff0000;" x="209.80817" xlink:href="#m018b45dcdf" y="110.88038"/>
     <use style="fill:#ff0000;stroke:#ff0000;" x="210.862243" xlink:href="#m018b45dcdf" y="110.88038"/>
     <use style="fill:#ff0000;stroke:#ff0000;" x="211.916316" xlink:href="#m018b45dcdf" y="110.88038"/>
     <use style="fill:#ff0000;stroke:#ff0000;" x="212.97039" xlink:href="#m018b45dcdf" y="83.853326"/>
     <use style="fill:#ff0000;stroke:#ff0000;" x="214.024463" xlink:href="#m018b45dcdf" y="83.853326"/>
     <use style="fill:#ff0000;stroke:#ff0000;" x="215.078536" xlink:href="#m018b45dcdf" y="110.299892"/>
     <use style="fill:#ff0000;stroke:#ff0000;" x="216.132609" xlink:href="#m018b45dcdf" y="110.299892"/>
     <use style="fill:#ff0000;stroke:#ff0000;" x="217.186682" xlink:href="#m018b45dcdf" y="84.978586"/>
     <use style="fill:#ff0000;stroke:#ff0000;" x="218.240756" xlink:href="#m018b45dcdf" y="84.978586"/>
     <use style="fill:#ff0000;stroke:#ff0000;" x="219.294829" xlink:href="#m018b45dcdf" y="108.024752"/>
     <use style="fill:#ff0000;stroke:#ff0000;" x="220.348902" xlink:href="#m018b45dcdf" y="134.665801"/>
     <use style="fill:#ff0000;stroke:#ff0000;" x="221.402975" xlink:href="#m018b45dcdf" y="134.665801"/>
     <use style="fill:#ff0000;stroke:#ff0000;" x="222.457048" xlink:href="#m018b45dcdf" y="134.665801"/>
     <use style="fill:#ff0000;stroke:#ff0000;" x="223.511122" xlink:href="#m018b45dcdf" y="111.198503"/>
     <use style="fill:#ff0000;stroke:#ff0000;" x="224.565195" xlink:href="#m018b45dcdf" y="82.27402"/>
     <use style="fill:#ff0000;stroke:#ff0000;" x="225.619268" xlink:href="#m018b45dcdf" y="82.27402"/>
     <use style="fill:#ff0000;stroke:#ff0000;" x="226.673341" xlink:href="#m018b45dcdf" y="82.27402"/>
     <use style="fill:#ff0000;stroke:#ff0000;" x="227.727414" xlink:href="#m018b45dcdf" y="109.019944"/>
     <use style="fill:#ff0000;stroke:#ff0000;" x="228.781488" xlink:href="#m018b45dcdf" y="109.019944"/>
     <use style="fill:#ff0000;stroke:#ff0000;" x="229.835561" xlink:href="#m018b45dcdf" y="105.427102"/>
     <use style="fill:#ff0000;stroke:#ff0000;" x="230.889634" xlink:href="#m018b45dcdf" y="105.427102"/>
     <use style="fill:#ff0000;stroke:#ff0000;" x="231.943707" xlink:href="#m018b45dcdf" y="134.965203"/>
     <use style="fill:#ff0000;stroke:#ff0000;" x="232.99778" xlink:href="#m018b45dcdf" y="161.006978"/>
     <use style="fill:#ff0000;stroke:#ff0000;" x="234.051854" xlink:href="#m018b45dcdf" y="161.006978"/>
     <use style="fill:#ff0000;stroke:#ff0000;" x="235.105927" xlink:href="#m018b45dcdf" y="163.377799"/>
     <use style="fill:#ff0000;stroke:#ff0000;" x="236.16" xlink:href="#m018b45dcdf" y="163.377799"/>
     <use style="fill:#ff0000;stroke:#ff0000;" x="237.214073" xlink:href="#m018b45dcdf" y="189.1975"/>
     <use style="fill:#ff0000;stroke:#ff0000;" x="238.268146" xlink:href="#m018b45dcdf" y="189.1975"/>
     <use style="fill:#ff0000;stroke:#ff0000;" x="239.32222" xlink:href="#m018b45dcdf" y="160.5798"/>
     <use style="fill:#ff0000;stroke:#ff0000;" x="240.376293" xlink:href="#m018b45dcdf" y="160.5798"/>
     <use style="fill:#ff0000;stroke:#ff0000;" x="241.430366" xlink:href="#m018b45dcdf" y="186.68873"/>
     <use style="fill:#ff0000;stroke:#ff0000;" x="242.484439" xlink:href="#m018b45dcdf" y="156.64243"/>
     <use style="fill:#ff0000;stroke:#ff0000;" x="243.538512" xlink:href="#m018b45dcdf" y="156.64243"/>
     <use style="fill:#ff0000;stroke:#ff0000;" x="244.592586" xlink:href="#m018b45dcdf" y="156.64243"/>
     <use style="fill:#ff0000;stroke:#ff0000;" x="245.646659" xlink:href="#m018b45dcdf" y="128.302989"/>
     <use style="fill:#ff0000;stroke:#ff0000;" x="246.700732" xlink:href="#m018b45dcdf" y="131.531396"/>
     <use style="fill:#ff0000;stroke:#ff0000;" x="247.754805" xlink:href="#m018b45dcdf" y="131.531396"/>
     <use style="fill:#ff0000;stroke:#ff0000;" x="248.808878" xlink:href="#m018b45dcdf" y="131.531396"/>
     <use style="fill:#ff0000;stroke:#ff0000;" x="249.862952" xlink:href="#m018b45dcdf" y="156.541618"/>
     <use style="fill:#ff0000;stroke:#ff0000;" x="250.917025" xlink:href="#m018b45dcdf" y="156.541618"/>
     <use style="fill:#ff0000;stroke:#ff0000;" x="251.971098" xlink:href="#m018b45dcdf" y="185.764043"/>
     <use style="fill:#ff0000;stroke:#ff0000;" x="253.025171" xlink:href="#m018b45dcdf" y="185.764043"/>
     <use style="fill:#ff0000;stroke:#ff0000;" x="254.079244" xlink:href="#m018b45dcdf" y="185.764043"/>
     <use style="fill:#ff0000;stroke:#ff0000;" x="255.133318" xlink:href="#m018b45dcdf" y="160.95249"/>
     <use style="fill:#ff0000;stroke:#ff0000;" x="256.187391" xlink:href="#m018b45dcdf" y="160.95249"/>
     <use style="fill:#ff0000;stroke:#ff0000;" x="257.241464" xlink:href="#m018b45dcdf" y="132.843128"/>
     <use style="fill:#ff0000;stroke:#ff0000;" x="258.295537" xlink:href="#m018b45dcdf" y="132.843128"/>
     <use style="fill:#ff0000;stroke:#ff0000;" x="259.34961" xlink:href="#m018b45dcdf" y="104.9536"/>
     <use style="fill:#ff0000;stroke:#ff0000;" x="260.403684" xlink:href="#m018b45dcdf" y="104.9536"/>
     <use style="fill:#ff0000;stroke:#ff0000;" x="261.457757" xlink:href="#m018b45dcdf" y="76.802467"/>
     <use style="fill:#ff0000;stroke:#ff0000;" x="262.51183" xlink:href="#m018b45dcdf" y="53.568"/>
     <use style="fill:#ff0000;stroke:#ff0000;" x="263.565903" xlink:href="#m018b45dcdf" y="53.568"/>
     <use style="fill:#ff0000;stroke:#ff0000;" x="264.619976" xlink:href="#m018b45dcdf" y="78.942557"/>
     <use style="fill:#ff0000;stroke:#ff0000;" x="265.67405" xlink:href="#m018b45dcdf" y="78.942557"/>
     <use style="fill:#ff0000;stroke:#ff0000;" x="266.728123" xlink:href="#m018b45dcdf" y="78.942557"/>
     <use style="fill:#ff0000;stroke:#ff0000;" x="267.782196" xlink:href="#m018b45dcdf" y="83.11447"/>
     <use style="fill:#ff0000;stroke:#ff0000;" x="268.836269" xlink:href="#m018b45dcdf" y="60.703333"/>
     <use style="fill:#ff0000;stroke:#ff0000;" x="269.890342" xlink:href="#m018b45dcdf" y="60.703333"/>
     <use style="fill:#ff0000;stroke:#ff0000;" x="270.944416" xlink:href="#m018b45dcdf" y="60.703333"/>
     <use style="fill:#ff0000;stroke:#ff0000;" x="271.998489" xlink:href="#m018b45dcdf" y="60.703333"/>
     <use style="fill:#ff0000;stroke:#ff0000;" x="273.052562" xlink:href="#m018b45dcdf" y="60.703333"/>
     <use style="fill:#ff0000;stroke:#ff0000;" x="274.106635" xlink:href="#m018b45dcdf" y="60.703333"/>
     <use style="fill:#ff0000;stroke:#ff0000;" x="275.160708" xlink:href="#m018b45dcdf" y="60.703333"/>
     <use style="fill:#ff0000;stroke:#ff0000;" x="276.214782" xlink:href="#m018b45dcdf" y="60.703333"/>
     <use style="fill:#ff0000;stroke:#ff0000;" x="277.268855" xlink:href="#m018b45dcdf" y="60.703333"/>
     <use style="fill:#ff0000;stroke:#ff0000;" x="278.322928" xlink:href="#m018b45dcdf" y="60.703333"/>
     <use style="fill:#ff0000;stroke:#ff0000;" x="279.377001" xlink:href="#m018b45dcdf" y="60.703333"/>
     <use style="fill:#ff0000;stroke:#ff0000;" x="280.431074" xlink:href="#m018b45dcdf" y="60.703333"/>
     <use style="fill:#ff0000;stroke:#ff0000;" x="281.485148" xlink:href="#m018b45dcdf" y="60.703333"/>
     <use style="fill:#ff0000;stroke:#ff0000;" x="282.539221" xlink:href="#m018b45dcdf" y="60.703333"/>
     <use style="fill:#ff0000;stroke:#ff0000;" x="283.593294" xlink:href="#m018b45dcdf" y="60.703333"/>
     <use style="fill:#ff0000;stroke:#ff0000;" x="284.647367" xlink:href="#m018b45dcdf" y="60.703333"/>
     <use style="fill:#ff0000;stroke:#ff0000;" x="285.70144" xlink:href="#m018b45dcdf" y="60.703333"/>
     <use style="fill:#ff0000;stroke:#ff0000;" x="286.755514" xlink:href="#m018b45dcdf" y="60.703333"/>
     <use style="fill:#ff0000;stroke:#ff0000;" x="287.809587" xlink:href="#m018b45dcdf" y="60.703333"/>
     <use style="fill:#ff0000;stroke:#ff0000;" x="288.86366" xlink:href="#m018b45dcdf" y="60.703333"/>
     <use style="fill:#ff0000;stroke:#ff0000;" x="289.917733" xlink:href="#m018b45dcdf" y="60.703333"/>
     <use style="fill:#ff0000;stroke:#ff0000;" x="290.971806" xlink:href="#m018b45dcdf" y="60.703333"/>
     <use style="fill:#ff0000;stroke:#ff0000;" x="292.02588" xlink:href="#m018b45dcdf" y="60.703333"/>
     <use style="fill:#ff0000;stroke:#ff0000;" x="293.079953" xlink:href="#m018b45dcdf" y="60.703333"/>
     <use style="fill:#ff0000;stroke:#ff0000;" x="294.134026" xlink:href="#m018b45dcdf" y="60.703333"/>
     <use style="fill:#ff0000;stroke:#ff0000;" x="295.188099" xlink:href="#m018b45dcdf" y="60.703333"/>
     <use style="fill:#ff0000;stroke:#ff0000;" x="296.242172" xlink:href="#m018b45dcdf" y="60.703333"/>
     <use style="fill:#ff0000;stroke:#ff0000;" x="297.296246" xlink:href="#m018b45dcdf" y="60.703333"/>
     <use style="fill:#ff0000;stroke:#ff0000;" x="298.350319" xlink:href="#m018b45dcdf" y="60.703333"/>
     <use style="fill:#ff0000;stroke:#ff0000;" x="299.404392" xlink:href="#m018b45dcdf" y="60.703333"/>
     <use style="fill:#ff0000;stroke:#ff0000;" x="300.458465" xlink:href="#m018b45dcdf" y="60.703333"/>
     <use style="fill:#ff0000;stroke:#ff0000;" x="301.512538" xlink:href="#m018b45dcdf" y="60.703333"/>
     <use style="fill:#ff0000;stroke:#ff0000;" x="302.566612" xlink:href="#m018b45dcdf" y="60.703333"/>
     <use style="fill:#ff0000;stroke:#ff0000;" x="303.620685" xlink:href="#m018b45dcdf" y="60.703333"/>
     <use style="fill:#ff0000;stroke:#ff0000;" x="304.674758" xlink:href="#m018b45dcdf" y="60.703333"/>
     <use style="fill:#ff0000;stroke:#ff0000;" x="305.728831" xlink:href="#m018b45dcdf" y="60.703333"/>
     <use style="fill:#ff0000;stroke:#ff0000;" x="306.782904" xlink:href="#m018b45dcdf" y="60.703333"/>
     <use style="fill:#ff0000;stroke:#ff0000;" x="307.836978" xlink:href="#m018b45dcdf" y="60.703333"/>
     <use style="fill:#ff0000;stroke:#ff0000;" x="308.891051" xlink:href="#m018b45dcdf" y="60.703333"/>
     <use style="fill:#ff0000;stroke:#ff0000;" x="309.945124" xlink:href="#m018b45dcdf" y="60.703333"/>
     <use style="fill:#ff0000;stroke:#ff0000;" x="310.999197" xlink:href="#m018b45dcdf" y="60.703333"/>
     <use style="fill:#ff0000;stroke:#ff0000;" x="312.05327" xlink:href="#m018b45dcdf" y="60.703333"/>
     <use style="fill:#ff0000;stroke:#ff0000;" x="313.107344" xlink:href="#m018b45dcdf" y="60.703333"/>
     <use style="fill:#ff0000;stroke:#ff0000;" x="314.161417" xlink:href="#m018b45dcdf" y="60.703333"/>
     <use style="fill:#ff0000;stroke:#ff0000;" x="315.21549" xlink:href="#m018b45dcdf" y="60.703333"/>
     <use style="fill:#ff0000;stroke:#ff0000;" x="316.269563" xlink:href="#m018b45dcdf" y="60.703333"/>
     <use style="fill:#ff0000;stroke:#ff0000;" x="317.323636" xlink:href="#m018b45dcdf" y="60.703333"/>
     <use style="fill:#ff0000;stroke:#ff0000;" x="318.37771" xlink:href="#m018b45dcdf" y="60.703333"/>
     <use style="fill:#ff0000;stroke:#ff0000;" x="319.431783" xlink:href="#m018b45dcdf" y="60.703333"/>
     <use style="fill:#ff0000;stroke:#ff0000;" x="320.485856" xlink:href="#m018b45dcdf" y="60.703333"/>
     <use style="fill:#ff0000;stroke:#ff0000;" x="321.539929" xlink:href="#m018b45dcdf" y="60.703333"/>
     <use style="fill:#ff0000;stroke:#ff0000;" x="322.594002" xlink:href="#m018b45dcdf" y="60.703333"/>
     <use style="fill:#ff0000;stroke:#ff0000;" x="323.648076" xlink:href="#m018b45dcdf" y="60.703333"/>
     <use style="fill:#ff0000;stroke:#ff0000;" x="324.702149" xlink:href="#m018b45dcdf" y="60.703333"/>
     <use style="fill:#ff0000;stroke:#ff0000;" x="325.756222" xlink:href="#m018b45dcdf" y="60.703333"/>
     <use style="fill:#ff0000;stroke:#ff0000;" x="326.810295" xlink:href="#m018b45dcdf" y="60.703333"/>
     <use style="fill:#ff0000;stroke:#ff0000;" x="327.864368" xlink:href="#m018b45dcdf" y="60.703333"/>
     <use style="fill:#ff0000;stroke:#ff0000;" x="328.918442" xlink:href="#m018b45dcdf" y="60.703333"/>
     <use style="fill:#ff0000;stroke:#ff0000;" x="329.972515" xlink:href="#m018b45dcdf" y="60.703333"/>
     <use style="fill:#ff0000;stroke:#ff0000;" x="331.026588" xlink:href="#m018b45dcdf" y="60.703333"/>
     <use style="fill:#ff0000;stroke:#ff0000;" x="332.080661" xlink:href="#m018b45dcdf" y="60.703333"/>
     <use style="fill:#ff0000;stroke:#ff0000;" x="333.134734" xlink:href="#m018b45dcdf" y="60.703333"/>
     <use style="fill:#ff0000;stroke:#ff0000;" x="334.188808" xlink:href="#m018b45dcdf" y="60.703333"/>
     <use style="fill:#ff0000;stroke:#ff0000;" x="335.242881" xlink:href="#m018b45dcdf" y="60.703333"/>
     <use style="fill:#ff0000;stroke:#ff0000;" x="336.296954" xlink:href="#m018b45dcdf" y="60.703333"/>
     <use style="fill:#ff0000;stroke:#ff0000;" x="337.351027" xlink:href="#m018b45dcdf" y="60.703333"/>
     <use style="fill:#ff0000;stroke:#ff0000;" x="338.4051" xlink:href="#m018b45dcdf" y="60.703333"/>
     <use style="fill:#ff0000;stroke:#ff0000;" x="339.459174" xlink:href="#m018b45dcdf" y="60.703333"/>
     <use style="fill:#ff0000;stroke:#ff0000;" x="340.513247" xlink:href="#m018b45dcdf" y="60.703333"/>
     <use style="fill:#ff0000;stroke:#ff0000;" x="341.56732" xlink:href="#m018b45dcdf" y="60.703333"/>
     <use style="fill:#ff0000;stroke:#ff0000;" x="342.621393" xlink:href="#m018b45dcdf" y="60.703333"/>
     <use style="fill:#ff0000;stroke:#ff0000;" x="343.675466" xlink:href="#m018b45dcdf" y="60.703333"/>
     <use style="fill:#ff0000;stroke:#ff0000;" x="344.72954" xlink:href="#m018b45dcdf" y="60.703333"/>
     <use style="fill:#ff0000;stroke:#ff0000;" x="345.783613" xlink:href="#m018b45dcdf" y="60.703333"/>
     <use style="fill:#ff0000;stroke:#ff0000;" x="346.837686" xlink:href="#m018b45dcdf" y="60.703333"/>
     <use style="fill:#ff0000;stroke:#ff0000;" x="347.891759" xlink:href="#m018b45dcdf" y="60.703333"/>
     <use style="fill:#ff0000;stroke:#ff0000;" x="348.945832" xlink:href="#m018b45dcdf" y="60.703333"/>
     <use style="fill:#ff0000;stroke:#ff0000;" x="349.999906" xlink:href="#m018b45dcdf" y="60.703333"/>
     <use style="fill:#ff0000;stroke:#ff0000;" x="351.053979" xlink:href="#m018b45dcdf" y="60.703333"/>
     <use style="fill:#ff0000;stroke:#ff0000;" x="352.108052" xlink:href="#m018b45dcdf" y="60.703333"/>
     <use style="fill:#ff0000;stroke:#ff0000;" x="353.162125" xlink:href="#m018b45dcdf" y="60.703333"/>
     <use style="fill:#ff0000;stroke:#ff0000;" x="354.216198" xlink:href="#m018b45dcdf" y="60.703333"/>
     <use style="fill:#ff0000;stroke:#ff0000;" x="355.270272" xlink:href="#m018b45dcdf" y="60.703333"/>
     <use style="fill:#ff0000;stroke:#ff0000;" x="356.324345" xlink:href="#m018b45dcdf" y="60.703333"/>
     <use style="fill:#ff0000;stroke:#ff0000;" x="357.378418" xlink:href="#m018b45dcdf" y="60.703333"/>
     <use style="fill:#ff0000;stroke:#ff0000;" x="358.432491" xlink:href="#m018b45dcdf" y="60.703333"/>
     <use style="fill:#ff0000;stroke:#ff0000;" x="359.486564" xlink:href="#m018b45dcdf" y="60.703333"/>
     <use style="fill:#ff0000;stroke:#ff0000;" x="360.540638" xlink:href="#m018b45dcdf" y="60.703333"/>
     <use style="fill:#ff0000;stroke:#ff0000;" x="361.594711" xlink:href="#m018b45dcdf" y="60.703333"/>
     <use style="fill:#ff0000;stroke:#ff0000;" x="362.648784" xlink:href="#m018b45dcdf" y="60.703333"/>
     <use style="fill:#ff0000;stroke:#ff0000;" x="363.702857" xlink:href="#m018b45dcdf" y="60.703333"/>
     <use style="fill:#ff0000;stroke:#ff0000;" x="364.75693" xlink:href="#m018b45dcdf" y="60.703333"/>
     <use style="fill:#ff0000;stroke:#ff0000;" x="365.811004" xlink:href="#m018b45dcdf" y="60.703333"/>
     <use style="fill:#ff0000;stroke:#ff0000;" x="366.865077" xlink:href="#m018b45dcdf" y="60.703333"/>
     <use style="fill:#ff0000;stroke:#ff0000;" x="367.91915" xlink:href="#m018b45dcdf" y="60.703333"/>
     <use style="fill:#ff0000;stroke:#ff0000;" x="368.973223" xlink:href="#m018b45dcdf" y="60.703333"/>
     <use style="fill:#ff0000;stroke:#ff0000;" x="370.027296" xlink:href="#m018b45dcdf" y="60.703333"/>
     <use style="fill:#ff0000;stroke:#ff0000;" x="371.08137" xlink:href="#m018b45dcdf" y="60.703333"/>
     <use style="fill:#ff0000;stroke:#ff0000;" x="372.135443" xlink:href="#m018b45dcdf" y="60.703333"/>
     <use style="fill:#ff0000;stroke:#ff0000;" x="373.189516" xlink:href="#m018b45dcdf" y="60.703333"/>
     <use style="fill:#ff0000;stroke:#ff0000;" x="374.243589" xlink:href="#m018b45dcdf" y="60.703333"/>
     <use style="fill:#ff0000;stroke:#ff0000;" x="375.297662" xlink:href="#m018b45dcdf" y="60.703333"/>
     <use style="fill:#ff0000;stroke:#ff0000;" x="376.351736" xlink:href="#m018b45dcdf" y="60.703333"/>
     <use style="fill:#ff0000;stroke:#ff0000;" x="377.405809" xlink:href="#m018b45dcdf" y="60.703333"/>
     <use style="fill:#ff0000;stroke:#ff0000;" x="378.459882" xlink:href="#m018b45dcdf" y="60.703333"/>
     <use style="fill:#ff0000;stroke:#ff0000;" x="379.513955" xlink:href="#m018b45dcdf" y="60.703333"/>
     <use style="fill:#ff0000;stroke:#ff0000;" x="380.568028" xlink:href="#m018b45dcdf" y="60.703333"/>
     <use style="fill:#ff0000;stroke:#ff0000;" x="381.622102" xlink:href="#m018b45dcdf" y="60.703333"/>
     <use style="fill:#ff0000;stroke:#ff0000;" x="382.676175" xlink:href="#m018b45dcdf" y="60.703333"/>
     <use style="fill:#ff0000;stroke:#ff0000;" x="383.730248" xlink:href="#m018b45dcdf" y="60.703333"/>
     <use style="fill:#ff0000;stroke:#ff0000;" x="384.784321" xlink:href="#m018b45dcdf" y="60.703333"/>
     <use style="fill:#ff0000;stroke:#ff0000;" x="385.838394" xlink:href="#m018b45dcdf" y="60.703333"/>
     <use style="fill:#ff0000;stroke:#ff0000;" x="386.892468" xlink:href="#m018b45dcdf" y="60.703333"/>
     <use style="fill:#ff0000;stroke:#ff0000;" x="387.946541" xlink:href="#m018b45dcdf" y="60.703333"/>
     <use style="fill:#ff0000;stroke:#ff0000;" x="389.000614" xlink:href="#m018b45dcdf" y="60.703333"/>
     <use style="fill:#ff0000;stroke:#ff0000;" x="390.054687" xlink:href="#m018b45dcdf" y="60.703333"/>
     <use style="fill:#ff0000;stroke:#ff0000;" x="391.10876" xlink:href="#m018b45dcdf" y="60.703333"/>
     <use style="fill:#ff0000;stroke:#ff0000;" x="392.162834" xlink:href="#m018b45dcdf" y="60.703333"/>
     <use style="fill:#ff0000;stroke:#ff0000;" x="393.216907" xlink:href="#m018b45dcdf" y="60.703333"/>
     <use style="fill:#ff0000;stroke:#ff0000;" x="394.27098" xlink:href="#m018b45dcdf" y="60.703333"/>
     <use style="fill:#ff0000;stroke:#ff0000;" x="395.325053" xlink:href="#m018b45dcdf" y="60.703333"/>
     <use style="fill:#ff0000;stroke:#ff0000;" x="396.379126" xlink:href="#m018b45dcdf" y="60.703333"/>
     <use style="fill:#ff0000;stroke:#ff0000;" x="397.4332" xlink:href="#m018b45dcdf" y="60.703333"/>
     <use style="fill:#ff0000;stroke:#ff0000;" x="398.487273" xlink:href="#m018b45dcdf" y="60.703333"/>
    </g>
   </g>
   <g id="patch_3">
    <path d="M 57.6 307.584 
L 57.6 41.472 
" style="fill:none;stroke:#000000;stroke-linecap:square;stroke-linejoin:miter;stroke-width:0.8;"/>
   </g>
   <g id="patch_4">
    <path d="M 414.72 307.584 
L 414.72 41.472 
" style="fill:none;stroke:#000000;stroke-linecap:square;stroke-linejoin:miter;stroke-width:0.8;"/>
   </g>
   <g id="patch_5">
    <path d="M 57.6 307.584 
L 414.72 307.584 
" style="fill:none;stroke:#000000;stroke-linecap:square;stroke-linejoin:miter;stroke-width:0.8;"/>
   </g>
   <g id="patch_6">
    <path d="M 57.6 41.472 
L 414.72 41.472 
" style="fill:none;stroke:#000000;stroke-linecap:square;stroke-linejoin:miter;stroke-width:0.8;"/>
   </g>
  </g>
 </g>
 <defs>
  <clipPath id="p5a3ae51066">
   <rect height="266.112" width="357.12" x="57.6" y="41.472"/>
  </clipPath>
 </defs>
</svg>
