<?xml version="1.0" encoding="utf-8" standalone="no"?>
<!DOCTYPE svg PUBLIC "-//W3C//DTD SVG 1.1//EN"
  "http://www.w3.org/Graphics/SVG/1.1/DTD/svg11.dtd">
<!-- Created with matplotlib (https://matplotlib.org/) -->
<svg height="345.6pt" version="1.1" viewBox="0 0 460.8 345.6" width="460.8pt" xmlns="http://www.w3.org/2000/svg" xmlns:xlink="http://www.w3.org/1999/xlink">
 <defs>
  <style type="text/css">
*{stroke-linecap:butt;stroke-linejoin:round;}
  </style>
 </defs>
 <g id="figure_1">
  <g id="patch_1">
   <path d="M 0 345.6 
L 460.8 345.6 
L 460.8 0 
L 0 0 
z
" style="fill:#ffffff;"/>
  </g>
  <g id="axes_1">
   <g id="patch_2">
    <path d="M 57.6 307.584 
L 414.72 307.584 
L 414.72 41.472 
L 57.6 41.472 
z
" style="fill:#ffffff;"/>
   </g>
   <g id="line2d_1">
    <path clip-path="url(#pcd7d06085c)" d="M 73.832727 197.037135 
L 80.45833 176.477805 
L 87.083933 280.162049 
L 93.709536 280.162049 
L 100.335139 280.162049 
L 106.960742 280.162049 
L 113.586345 171.140543 
L 120.211948 171.140543 
L 126.837551 68.902913 
L 133.463154 68.902913 
L 140.088757 176.728696 
L 146.71436 176.728696 
L 153.339963 176.728696 
L 159.965566 176.728696 
L 166.591169 176.728696 
L 173.216772 76.859866 
L 179.842375 76.859866 
L 186.467978 184.382182 
L 193.093581 184.382182 
L 199.719184 184.382182 
L 206.344787 295.488 
L 212.97039 295.488 
L 219.595993 193.394484 
L 226.221596 193.394484 
L 232.847199 168.803121 
L 239.472801 168.803121 
L 246.098404 168.803121 
L 252.724007 207.640557 
L 259.34961 207.640557 
L 265.975213 172.385358 
L 272.600816 172.385358 
L 279.226419 210.530341 
L 285.852022 218.185116 
L 292.477625 218.185116 
L 299.103228 183.436924 
L 305.728831 183.436924 
L 312.354434 183.436924 
L 318.980037 149.211829 
L 325.60564 152.546527 
L 332.231243 152.546527 
L 338.856846 118.290046 
L 345.482449 118.290046 
L 352.108052 118.290046 
L 358.733655 86.776608 
L 365.359258 86.776608 
L 371.984861 53.568 
L 378.610464 53.568 
L 385.236067 86.563856 
L 391.86167 86.563856 
L 398.487273 86.563856 
" style="fill:none;stroke:#ff0000;stroke-linecap:square;stroke-width:12;"/>
    <defs>
     <path d="M 0 3 
C 0.795609 3 1.55874 2.683901 2.12132 2.12132 
C 2.683901 1.55874 3 0.795609 3 0 
C 3 -0.795609 2.683901 -1.55874 2.12132 -2.12132 
C 1.55874 -2.683901 0.795609 -3 0 -3 
C -0.795609 -3 -1.55874 -2.683901 -2.12132 -2.12132 
C -2.683901 -1.55874 -3 -0.795609 -3 0 
C -3 0.795609 -2.683901 1.55874 -2.12132 2.12132 
C -1.55874 2.683901 -0.795609 3 0 3 
z
" id="m76b8c1b77b" style="stroke:#ff0000;"/>
    </defs>
    <g clip-path="url(#pcd7d06085c)">
     <use style="fill:#ff0000;stroke:#ff0000;" x="73.832727" xlink:href="#m76b8c1b77b" y="197.037135"/>
     <use style="fill:#ff0000;stroke:#ff0000;" x="80.45833" xlink:href="#m76b8c1b77b" y="176.477805"/>
     <use style="fill:#ff0000;stroke:#ff0000;" x="87.083933" xlink:href="#m76b8c1b77b" y="280.162049"/>
     <use style="fill:#ff0000;stroke:#ff0000;" x="93.709536" xlink:href="#m76b8c1b77b" y="280.162049"/>
     <use style="fill:#ff0000;stroke:#ff0000;" x="100.335139" xlink:href="#m76b8c1b77b" y="280.162049"/>
     <use style="fill:#ff0000;stroke:#ff0000;" x="106.960742" xlink:href="#m76b8c1b77b" y="280.162049"/>
     <use style="fill:#ff0000;stroke:#ff0000;" x="113.586345" xlink:href="#m76b8c1b77b" y="171.140543"/>
     <use style="fill:#ff0000;stroke:#ff0000;" x="120.211948" xlink:href="#m76b8c1b77b" y="171.140543"/>
     <use style="fill:#ff0000;stroke:#ff0000;" x="126.837551" xlink:href="#m76b8c1b77b" y="68.902913"/>
     <use style="fill:#ff0000;stroke:#ff0000;" x="133.463154" xlink:href="#m76b8c1b77b" y="68.902913"/>
     <use style="fill:#ff0000;stroke:#ff0000;" x="140.088757" xlink:href="#m76b8c1b77b" y="176.728696"/>
     <use style="fill:#ff0000;stroke:#ff0000;" x="146.71436" xlink:href="#m76b8c1b77b" y="176.728696"/>
     <use style="fill:#ff0000;stroke:#ff0000;" x="153.339963" xlink:href="#m76b8c1b77b" y="176.728696"/>
     <use style="fill:#ff0000;stroke:#ff0000;" x="159.965566" xlink:href="#m76b8c1b77b" y="176.728696"/>
     <use style="fill:#ff0000;stroke:#ff0000;" x="166.591169" xlink:href="#m76b8c1b77b" y="176.728696"/>
     <use style="fill:#ff0000;stroke:#ff0000;" x="173.216772" xlink:href="#m76b8c1b77b" y="76.859866"/>
     <use style="fill:#ff0000;stroke:#ff0000;" x="179.842375" xlink:href="#m76b8c1b77b" y="76.859866"/>
     <use style="fill:#ff0000;stroke:#ff0000;" x="186.467978" xlink:href="#m76b8c1b77b" y="184.382182"/>
     <use style="fill:#ff0000;stroke:#ff0000;" x="193.093581" xlink:href="#m76b8c1b77b" y="184.382182"/>
     <use style="fill:#ff0000;stroke:#ff0000;" x="199.719184" xlink:href="#m76b8c1b77b" y="184.382182"/>
     <use style="fill:#ff0000;stroke:#ff0000;" x="206.344787" xlink:href="#m76b8c1b77b" y="295.488"/>
     <use style="fill:#ff0000;stroke:#ff0000;" x="212.97039" xlink:href="#m76b8c1b77b" y="295.488"/>
     <use style="fill:#ff0000;stroke:#ff0000;" x="219.595993" xlink:href="#m76b8c1b77b" y="193.394484"/>
     <use style="fill:#ff0000;stroke:#ff0000;" x="226.221596" xlink:href="#m76b8c1b77b" y="193.394484"/>
     <use style="fill:#ff0000;stroke:#ff0000;" x="232.847199" xlink:href="#m76b8c1b77b" y="168.803121"/>
     <use style="fill:#ff0000;stroke:#ff0000;" x="239.472801" xlink:href="#m76b8c1b77b" y="168.803121"/>
     <use style="fill:#ff0000;stroke:#ff0000;" x="246.098404" xlink:href="#m76b8c1b77b" y="168.803121"/>
     <use style="fill:#ff0000;stroke:#ff0000;" x="252.724007" xlink:href="#m76b8c1b77b" y="207.640557"/>
     <use style="fill:#ff0000;stroke:#ff0000;" x="259.34961" xlink:href="#m76b8c1b77b" y="207.640557"/>
     <use style="fill:#ff0000;stroke:#ff0000;" x="265.975213" xlink:href="#m76b8c1b77b" y="172.385358"/>
     <use style="fill:#ff0000;stroke:#ff0000;" x="272.600816" xlink:href="#m76b8c1b77b" y="172.385358"/>
     <use style="fill:#ff0000;stroke:#ff0000;" x="279.226419" xlink:href="#m76b8c1b77b" y="210.530341"/>
     <use style="fill:#ff0000;stroke:#ff0000;" x="285.852022" xlink:href="#m76b8c1b77b" y="218.185116"/>
     <use style="fill:#ff0000;stroke:#ff0000;" x="292.477625" xlink:href="#m76b8c1b77b" y="218.185116"/>
     <use style="fill:#ff0000;stroke:#ff0000;" x="299.103228" xlink:href="#m76b8c1b77b" y="183.436924"/>
     <use style="fill:#ff0000;stroke:#ff0000;" x="305.728831" xlink:href="#m76b8c1b77b" y="183.436924"/>
     <use style="fill:#ff0000;stroke:#ff0000;" x="312.354434" xlink:href="#m76b8c1b77b" y="183.436924"/>
     <use style="fill:#ff0000;stroke:#ff0000;" x="318.980037" xlink:href="#m76b8c1b77b" y="149.211829"/>
     <use style="fill:#ff0000;stroke:#ff0000;" x="325.60564" xlink:href="#m76b8c1b77b" y="152.546527"/>
     <use style="fill:#ff0000;stroke:#ff0000;" x="332.231243" xlink:href="#m76b8c1b77b" y="152.546527"/>
     <use style="fill:#ff0000;stroke:#ff0000;" x="338.856846" xlink:href="#m76b8c1b77b" y="118.290046"/>
     <use style="fill:#ff0000;stroke:#ff0000;" x="345.482449" xlink:href="#m76b8c1b77b" y="118.290046"/>
     <use style="fill:#ff0000;stroke:#ff0000;" x="352.108052" xlink:href="#m76b8c1b77b" y="118.290046"/>
     <use style="fill:#ff0000;stroke:#ff0000;" x="358.733655" xlink:href="#m76b8c1b77b" y="86.776608"/>
     <use style="fill:#ff0000;stroke:#ff0000;" x="365.359258" xlink:href="#m76b8c1b77b" y="86.776608"/>
     <use style="fill:#ff0000;stroke:#ff0000;" x="371.984861" xlink:href="#m76b8c1b77b" y="53.568"/>
     <use style="fill:#ff0000;stroke:#ff0000;" x="378.610464" xlink:href="#m76b8c1b77b" y="53.568"/>
     <use style="fill:#ff0000;stroke:#ff0000;" x="385.236067" xlink:href="#m76b8c1b77b" y="86.563856"/>
     <use style="fill:#ff0000;stroke:#ff0000;" x="391.86167" xlink:href="#m76b8c1b77b" y="86.563856"/>
     <use style="fill:#ff0000;stroke:#ff0000;" x="398.487273" xlink:href="#m76b8c1b77b" y="86.563856"/>
    </g>
   </g>
   <g id="patch_3">
    <path d="M 57.6 307.584 
L 57.6 41.472 
" style="fill:none;stroke:#000000;stroke-linecap:square;stroke-linejoin:miter;stroke-width:0.8;"/>
   </g>
   <g id="patch_4">
    <path d="M 414.72 307.584 
L 414.72 41.472 
" style="fill:none;stroke:#000000;stroke-linecap:square;stroke-linejoin:miter;stroke-width:0.8;"/>
   </g>
   <g id="patch_5">
    <path d="M 57.6 307.584 
L 414.72 307.584 
" style="fill:none;stroke:#000000;stroke-linecap:square;stroke-linejoin:miter;stroke-width:0.8;"/>
   </g>
   <g id="patch_6">
    <path d="M 57.6 41.472 
L 414.72 41.472 
" style="fill:none;stroke:#000000;stroke-linecap:square;stroke-linejoin:miter;stroke-width:0.8;"/>
   </g>
  </g>
 </g>
 <defs>
  <clipPath id="pcd7d06085c">
   <rect height="266.112" width="357.12" x="57.6" y="41.472"/>
  </clipPath>
 </defs>
</svg>
