<?xml version="1.0" encoding="utf-8" standalone="no"?>
<!DOCTYPE svg PUBLIC "-//W3C//DTD SVG 1.1//EN"
  "http://www.w3.org/Graphics/SVG/1.1/DTD/svg11.dtd">
<!-- Created with matplotlib (https://matplotlib.org/) -->
<svg height="345.6pt" version="1.1" viewBox="0 0 460.8 345.6" width="460.8pt" xmlns="http://www.w3.org/2000/svg" xmlns:xlink="http://www.w3.org/1999/xlink">
 <defs>
  <style type="text/css">
*{stroke-linecap:butt;stroke-linejoin:round;}
  </style>
 </defs>
 <g id="figure_1">
  <g id="patch_1">
   <path d="M 0 345.6 
L 460.8 345.6 
L 460.8 0 
L 0 0 
z
" style="fill:#ffffff;"/>
  </g>
  <g id="axes_1">
   <g id="patch_2">
    <path d="M 57.6 307.584 
L 414.72 307.584 
L 414.72 41.472 
L 57.6 41.472 
z
" style="fill:#ffffff;"/>
   </g>
   <g id="line2d_1">
    <path clip-path="url(#pb85b9e8d41)" d="M 73.832727 99.759767 
L 85.427532 79.355238 
L 97.022338 79.355238 
L 108.617143 179.616192 
L 120.211948 179.616192 
L 131.806753 77.584039 
L 143.401558 77.584039 
L 154.996364 77.584039 
L 166.591169 77.584039 
L 178.185974 77.584039 
L 189.780779 175.809049 
L 201.375584 175.809049 
L 212.97039 175.809049 
L 224.565195 175.809049 
L 236.16 272.311869 
L 247.754805 169.209228 
L 259.34961 169.209228 
L 270.944416 271.68144 
L 282.539221 271.68144 
L 294.134026 271.68144 
L 305.728831 271.68144 
L 317.323636 295.488 
L 328.918442 295.488 
L 340.513247 295.488 
L 352.108052 195.400619 
L 363.702857 89.784105 
L 375.297662 89.784105 
L 386.892468 53.568 
L 398.487273 53.568 
" style="fill:none;stroke:#ff0000;stroke-linecap:square;stroke-width:12;"/>
    <defs>
     <path d="M 0 3 
C 0.795609 3 1.55874 2.683901 2.12132 2.12132 
C 2.683901 1.55874 3 0.795609 3 0 
C 3 -0.795609 2.683901 -1.55874 2.12132 -2.12132 
C 1.55874 -2.683901 0.795609 -3 0 -3 
C -0.795609 -3 -1.55874 -2.683901 -2.12132 -2.12132 
C -2.683901 -1.55874 -3 -0.795609 -3 0 
C -3 0.795609 -2.683901 1.55874 -2.12132 2.12132 
C -1.55874 2.683901 -0.795609 3 0 3 
z
" id="m359d05ec11" style="stroke:#ff0000;"/>
    </defs>
    <g clip-path="url(#pb85b9e8d41)">
     <use style="fill:#ff0000;stroke:#ff0000;" x="73.832727" xlink:href="#m359d05ec11" y="99.759767"/>
     <use style="fill:#ff0000;stroke:#ff0000;" x="85.427532" xlink:href="#m359d05ec11" y="79.355238"/>
     <use style="fill:#ff0000;stroke:#ff0000;" x="97.022338" xlink:href="#m359d05ec11" y="79.355238"/>
     <use style="fill:#ff0000;stroke:#ff0000;" x="108.617143" xlink:href="#m359d05ec11" y="179.616192"/>
     <use style="fill:#ff0000;stroke:#ff0000;" x="120.211948" xlink:href="#m359d05ec11" y="179.616192"/>
     <use style="fill:#ff0000;stroke:#ff0000;" x="131.806753" xlink:href="#m359d05ec11" y="77.584039"/>
     <use style="fill:#ff0000;stroke:#ff0000;" x="143.401558" xlink:href="#m359d05ec11" y="77.584039"/>
     <use style="fill:#ff0000;stroke:#ff0000;" x="154.996364" xlink:href="#m359d05ec11" y="77.584039"/>
     <use style="fill:#ff0000;stroke:#ff0000;" x="166.591169" xlink:href="#m359d05ec11" y="77.584039"/>
     <use style="fill:#ff0000;stroke:#ff0000;" x="178.185974" xlink:href="#m359d05ec11" y="77.584039"/>
     <use style="fill:#ff0000;stroke:#ff0000;" x="189.780779" xlink:href="#m359d05ec11" y="175.809049"/>
     <use style="fill:#ff0000;stroke:#ff0000;" x="201.375584" xlink:href="#m359d05ec11" y="175.809049"/>
     <use style="fill:#ff0000;stroke:#ff0000;" x="212.97039" xlink:href="#m359d05ec11" y="175.809049"/>
     <use style="fill:#ff0000;stroke:#ff0000;" x="224.565195" xlink:href="#m359d05ec11" y="175.809049"/>
     <use style="fill:#ff0000;stroke:#ff0000;" x="236.16" xlink:href="#m359d05ec11" y="272.311869"/>
     <use style="fill:#ff0000;stroke:#ff0000;" x="247.754805" xlink:href="#m359d05ec11" y="169.209228"/>
     <use style="fill:#ff0000;stroke:#ff0000;" x="259.34961" xlink:href="#m359d05ec11" y="169.209228"/>
     <use style="fill:#ff0000;stroke:#ff0000;" x="270.944416" xlink:href="#m359d05ec11" y="271.68144"/>
     <use style="fill:#ff0000;stroke:#ff0000;" x="282.539221" xlink:href="#m359d05ec11" y="271.68144"/>
     <use style="fill:#ff0000;stroke:#ff0000;" x="294.134026" xlink:href="#m359d05ec11" y="271.68144"/>
     <use style="fill:#ff0000;stroke:#ff0000;" x="305.728831" xlink:href="#m359d05ec11" y="271.68144"/>
     <use style="fill:#ff0000;stroke:#ff0000;" x="317.323636" xlink:href="#m359d05ec11" y="295.488"/>
     <use style="fill:#ff0000;stroke:#ff0000;" x="328.918442" xlink:href="#m359d05ec11" y="295.488"/>
     <use style="fill:#ff0000;stroke:#ff0000;" x="340.513247" xlink:href="#m359d05ec11" y="295.488"/>
     <use style="fill:#ff0000;stroke:#ff0000;" x="352.108052" xlink:href="#m359d05ec11" y="195.400619"/>
     <use style="fill:#ff0000;stroke:#ff0000;" x="363.702857" xlink:href="#m359d05ec11" y="89.784105"/>
     <use style="fill:#ff0000;stroke:#ff0000;" x="375.297662" xlink:href="#m359d05ec11" y="89.784105"/>
     <use style="fill:#ff0000;stroke:#ff0000;" x="386.892468" xlink:href="#m359d05ec11" y="53.568"/>
     <use style="fill:#ff0000;stroke:#ff0000;" x="398.487273" xlink:href="#m359d05ec11" y="53.568"/>
    </g>
   </g>
   <g id="patch_3">
    <path d="M 57.6 307.584 
L 57.6 41.472 
" style="fill:none;stroke:#000000;stroke-linecap:square;stroke-linejoin:miter;stroke-width:0.8;"/>
   </g>
   <g id="patch_4">
    <path d="M 414.72 307.584 
L 414.72 41.472 
" style="fill:none;stroke:#000000;stroke-linecap:square;stroke-linejoin:miter;stroke-width:0.8;"/>
   </g>
   <g id="patch_5">
    <path d="M 57.6 307.584 
L 414.72 307.584 
" style="fill:none;stroke:#000000;stroke-linecap:square;stroke-linejoin:miter;stroke-width:0.8;"/>
   </g>
   <g id="patch_6">
    <path d="M 57.6 41.472 
L 414.72 41.472 
" style="fill:none;stroke:#000000;stroke-linecap:square;stroke-linejoin:miter;stroke-width:0.8;"/>
   </g>
  </g>
 </g>
 <defs>
  <clipPath id="pb85b9e8d41">
   <rect height="266.112" width="357.12" x="57.6" y="41.472"/>
  </clipPath>
 </defs>
</svg>
