<?xml version="1.0" encoding="utf-8" standalone="no"?>
<!DOCTYPE svg PUBLIC "-//W3C//DTD SVG 1.1//EN"
  "http://www.w3.org/Graphics/SVG/1.1/DTD/svg11.dtd">
<!-- Created with matplotlib (https://matplotlib.org/) -->
<svg height="345.6pt" version="1.1" viewBox="0 0 460.8 345.6" width="460.8pt" xmlns="http://www.w3.org/2000/svg" xmlns:xlink="http://www.w3.org/1999/xlink">
 <defs>
  <style type="text/css">
*{stroke-linecap:butt;stroke-linejoin:round;}
  </style>
 </defs>
 <g id="figure_1">
  <g id="patch_1">
   <path d="M 0 345.6 
L 460.8 345.6 
L 460.8 0 
L 0 0 
z
" style="fill:#ffffff;"/>
  </g>
  <g id="axes_1">
   <g id="patch_2">
    <path d="M 57.6 307.584 
L 414.72 307.584 
L 414.72 41.472 
L 57.6 41.472 
z
" style="fill:#ffffff;"/>
   </g>
   <g id="line2d_1">
    <path clip-path="url(#pccdb919844)" d="M 73.832727 124.568862 
L 83.978182 106.750663 
L 94.123636 106.750663 
L 104.269091 194.303264 
L 114.414545 194.303264 
L 124.56 105.203969 
L 134.705455 105.203969 
L 144.850909 105.203969 
L 154.996364 105.203969 
L 165.141818 105.203969 
L 175.287273 190.978687 
L 185.432727 190.978687 
L 195.578182 190.978687 
L 205.723636 190.978687 
L 215.869091 275.249507 
L 226.014545 185.215411 
L 236.16 185.215411 
L 246.305455 274.698987 
L 256.450909 274.698987 
L 266.596364 274.698987 
L 276.741818 274.698987 
L 286.887273 295.488 
L 297.032727 295.488 
L 307.178182 295.488 
L 317.323636 208.086971 
L 327.469091 115.857643 
L 337.614545 115.857643 
L 347.76 84.232029 
L 357.905455 84.232029 
L 368.050909 83.211356 
L 378.196364 83.211356 
L 388.341818 53.568 
L 398.487273 53.568 
" style="fill:none;stroke:#ff0000;stroke-linecap:square;stroke-width:12;"/>
    <defs>
     <path d="M 0 3 
C 0.795609 3 1.55874 2.683901 2.12132 2.12132 
C 2.683901 1.55874 3 0.795609 3 0 
C 3 -0.795609 2.683901 -1.55874 2.12132 -2.12132 
C 1.55874 -2.683901 0.795609 -3 0 -3 
C -0.795609 -3 -1.55874 -2.683901 -2.12132 -2.12132 
C -2.683901 -1.55874 -3 -0.795609 -3 0 
C -3 0.795609 -2.683901 1.55874 -2.12132 2.12132 
C -1.55874 2.683901 -0.795609 3 0 3 
z
" id="m0584f9b986" style="stroke:#ff0000;"/>
    </defs>
    <g clip-path="url(#pccdb919844)">
     <use style="fill:#ff0000;stroke:#ff0000;" x="73.832727" xlink:href="#m0584f9b986" y="124.568862"/>
     <use style="fill:#ff0000;stroke:#ff0000;" x="83.978182" xlink:href="#m0584f9b986" y="106.750663"/>
     <use style="fill:#ff0000;stroke:#ff0000;" x="94.123636" xlink:href="#m0584f9b986" y="106.750663"/>
     <use style="fill:#ff0000;stroke:#ff0000;" x="104.269091" xlink:href="#m0584f9b986" y="194.303264"/>
     <use style="fill:#ff0000;stroke:#ff0000;" x="114.414545" xlink:href="#m0584f9b986" y="194.303264"/>
     <use style="fill:#ff0000;stroke:#ff0000;" x="124.56" xlink:href="#m0584f9b986" y="105.203969"/>
     <use style="fill:#ff0000;stroke:#ff0000;" x="134.705455" xlink:href="#m0584f9b986" y="105.203969"/>
     <use style="fill:#ff0000;stroke:#ff0000;" x="144.850909" xlink:href="#m0584f9b986" y="105.203969"/>
     <use style="fill:#ff0000;stroke:#ff0000;" x="154.996364" xlink:href="#m0584f9b986" y="105.203969"/>
     <use style="fill:#ff0000;stroke:#ff0000;" x="165.141818" xlink:href="#m0584f9b986" y="105.203969"/>
     <use style="fill:#ff0000;stroke:#ff0000;" x="175.287273" xlink:href="#m0584f9b986" y="190.978687"/>
     <use style="fill:#ff0000;stroke:#ff0000;" x="185.432727" xlink:href="#m0584f9b986" y="190.978687"/>
     <use style="fill:#ff0000;stroke:#ff0000;" x="195.578182" xlink:href="#m0584f9b986" y="190.978687"/>
     <use style="fill:#ff0000;stroke:#ff0000;" x="205.723636" xlink:href="#m0584f9b986" y="190.978687"/>
     <use style="fill:#ff0000;stroke:#ff0000;" x="215.869091" xlink:href="#m0584f9b986" y="275.249507"/>
     <use style="fill:#ff0000;stroke:#ff0000;" x="226.014545" xlink:href="#m0584f9b986" y="185.215411"/>
     <use style="fill:#ff0000;stroke:#ff0000;" x="236.16" xlink:href="#m0584f9b986" y="185.215411"/>
     <use style="fill:#ff0000;stroke:#ff0000;" x="246.305455" xlink:href="#m0584f9b986" y="274.698987"/>
     <use style="fill:#ff0000;stroke:#ff0000;" x="256.450909" xlink:href="#m0584f9b986" y="274.698987"/>
     <use style="fill:#ff0000;stroke:#ff0000;" x="266.596364" xlink:href="#m0584f9b986" y="274.698987"/>
     <use style="fill:#ff0000;stroke:#ff0000;" x="276.741818" xlink:href="#m0584f9b986" y="274.698987"/>
     <use style="fill:#ff0000;stroke:#ff0000;" x="286.887273" xlink:href="#m0584f9b986" y="295.488"/>
     <use style="fill:#ff0000;stroke:#ff0000;" x="297.032727" xlink:href="#m0584f9b986" y="295.488"/>
     <use style="fill:#ff0000;stroke:#ff0000;" x="307.178182" xlink:href="#m0584f9b986" y="295.488"/>
     <use style="fill:#ff0000;stroke:#ff0000;" x="317.323636" xlink:href="#m0584f9b986" y="208.086971"/>
     <use style="fill:#ff0000;stroke:#ff0000;" x="327.469091" xlink:href="#m0584f9b986" y="115.857643"/>
     <use style="fill:#ff0000;stroke:#ff0000;" x="337.614545" xlink:href="#m0584f9b986" y="115.857643"/>
     <use style="fill:#ff0000;stroke:#ff0000;" x="347.76" xlink:href="#m0584f9b986" y="84.232029"/>
     <use style="fill:#ff0000;stroke:#ff0000;" x="357.905455" xlink:href="#m0584f9b986" y="84.232029"/>
     <use style="fill:#ff0000;stroke:#ff0000;" x="368.050909" xlink:href="#m0584f9b986" y="83.211356"/>
     <use style="fill:#ff0000;stroke:#ff0000;" x="378.196364" xlink:href="#m0584f9b986" y="83.211356"/>
     <use style="fill:#ff0000;stroke:#ff0000;" x="388.341818" xlink:href="#m0584f9b986" y="53.568"/>
     <use style="fill:#ff0000;stroke:#ff0000;" x="398.487273" xlink:href="#m0584f9b986" y="53.568"/>
    </g>
   </g>
   <g id="patch_3">
    <path d="M 57.6 307.584 
L 57.6 41.472 
" style="fill:none;stroke:#000000;stroke-linecap:square;stroke-linejoin:miter;stroke-width:0.8;"/>
   </g>
   <g id="patch_4">
    <path d="M 414.72 307.584 
L 414.72 41.472 
" style="fill:none;stroke:#000000;stroke-linecap:square;stroke-linejoin:miter;stroke-width:0.8;"/>
   </g>
   <g id="patch_5">
    <path d="M 57.6 307.584 
L 414.72 307.584 
" style="fill:none;stroke:#000000;stroke-linecap:square;stroke-linejoin:miter;stroke-width:0.8;"/>
   </g>
   <g id="patch_6">
    <path d="M 57.6 41.472 
L 414.72 41.472 
" style="fill:none;stroke:#000000;stroke-linecap:square;stroke-linejoin:miter;stroke-width:0.8;"/>
   </g>
  </g>
 </g>
 <defs>
  <clipPath id="pccdb919844">
   <rect height="266.112" width="357.12" x="57.6" y="41.472"/>
  </clipPath>
 </defs>
</svg>
