<?xml version="1.0" encoding="utf-8" standalone="no"?>
<!DOCTYPE svg PUBLIC "-//W3C//DTD SVG 1.1//EN"
  "http://www.w3.org/Graphics/SVG/1.1/DTD/svg11.dtd">
<!-- Created with matplotlib (https://matplotlib.org/) -->
<svg height="345.6pt" version="1.1" viewBox="0 0 460.8 345.6" width="460.8pt" xmlns="http://www.w3.org/2000/svg" xmlns:xlink="http://www.w3.org/1999/xlink">
 <defs>
  <style type="text/css">
*{stroke-linecap:butt;stroke-linejoin:round;}
  </style>
 </defs>
 <g id="figure_1">
  <g id="patch_1">
   <path d="M 0 345.6 
L 460.8 345.6 
L 460.8 0 
L 0 0 
z
" style="fill:#ffffff;"/>
  </g>
  <g id="axes_1">
   <g id="patch_2">
    <path d="M 57.6 307.584 
L 414.72 307.584 
L 414.72 41.472 
L 57.6 41.472 
z
" style="fill:#ffffff;"/>
   </g>
   <g id="line2d_1">
    <path clip-path="url(#pf93147f77c)" d="M 73.832727 125.161508 
L 82.157203 107.405092 
L 90.481678 107.405092 
L 98.806154 194.654113 
L 107.130629 194.654113 
L 115.455105 105.863761 
L 123.77958 105.863761 
L 132.104056 105.863761 
L 140.428531 105.863761 
L 148.753007 105.863761 
L 157.077483 191.341063 
L 165.401958 191.341063 
L 173.726434 191.341063 
L 182.050909 191.341063 
L 190.375385 275.319683 
L 198.69986 185.597771 
L 207.024336 185.597771 
L 215.348811 274.771071 
L 223.673287 274.771071 
L 231.997762 274.771071 
L 240.322238 274.771071 
L 248.646713 295.488 
L 256.971189 295.488 
L 265.295664 295.488 
L 273.62014 208.390026 
L 281.944615 116.480494 
L 290.269091 116.480494 
L 298.593566 84.96454 
L 306.918042 84.96454 
L 315.242517 83.947406 
L 323.566993 83.947406 
L 331.891469 54.406835 
L 340.215944 54.406835 
L 348.54042 53.568 
L 356.864895 53.568 
L 365.189371 53.568 
L 373.513846 81.021618 
L 381.838322 81.021618 
L 390.162797 113.495856 
L 398.487273 113.495856 
" style="fill:none;stroke:#ff0000;stroke-linecap:square;stroke-width:12;"/>
    <defs>
     <path d="M 0 3 
C 0.795609 3 1.55874 2.683901 2.12132 2.12132 
C 2.683901 1.55874 3 0.795609 3 0 
C 3 -0.795609 2.683901 -1.55874 2.12132 -2.12132 
C 1.55874 -2.683901 0.795609 -3 0 -3 
C -0.795609 -3 -1.55874 -2.683901 -2.12132 -2.12132 
C -2.683901 -1.55874 -3 -0.795609 -3 0 
C -3 0.795609 -2.683901 1.55874 -2.12132 2.12132 
C -1.55874 2.683901 -0.795609 3 0 3 
z
" id="m224e6f8217" style="stroke:#ff0000;"/>
    </defs>
    <g clip-path="url(#pf93147f77c)">
     <use style="fill:#ff0000;stroke:#ff0000;" x="73.832727" xlink:href="#m224e6f8217" y="125.161508"/>
     <use style="fill:#ff0000;stroke:#ff0000;" x="82.157203" xlink:href="#m224e6f8217" y="107.405092"/>
     <use style="fill:#ff0000;stroke:#ff0000;" x="90.481678" xlink:href="#m224e6f8217" y="107.405092"/>
     <use style="fill:#ff0000;stroke:#ff0000;" x="98.806154" xlink:href="#m224e6f8217" y="194.654113"/>
     <use style="fill:#ff0000;stroke:#ff0000;" x="107.130629" xlink:href="#m224e6f8217" y="194.654113"/>
     <use style="fill:#ff0000;stroke:#ff0000;" x="115.455105" xlink:href="#m224e6f8217" y="105.863761"/>
     <use style="fill:#ff0000;stroke:#ff0000;" x="123.77958" xlink:href="#m224e6f8217" y="105.863761"/>
     <use style="fill:#ff0000;stroke:#ff0000;" x="132.104056" xlink:href="#m224e6f8217" y="105.863761"/>
     <use style="fill:#ff0000;stroke:#ff0000;" x="140.428531" xlink:href="#m224e6f8217" y="105.863761"/>
     <use style="fill:#ff0000;stroke:#ff0000;" x="148.753007" xlink:href="#m224e6f8217" y="105.863761"/>
     <use style="fill:#ff0000;stroke:#ff0000;" x="157.077483" xlink:href="#m224e6f8217" y="191.341063"/>
     <use style="fill:#ff0000;stroke:#ff0000;" x="165.401958" xlink:href="#m224e6f8217" y="191.341063"/>
     <use style="fill:#ff0000;stroke:#ff0000;" x="173.726434" xlink:href="#m224e6f8217" y="191.341063"/>
     <use style="fill:#ff0000;stroke:#ff0000;" x="182.050909" xlink:href="#m224e6f8217" y="191.341063"/>
     <use style="fill:#ff0000;stroke:#ff0000;" x="190.375385" xlink:href="#m224e6f8217" y="275.319683"/>
     <use style="fill:#ff0000;stroke:#ff0000;" x="198.69986" xlink:href="#m224e6f8217" y="185.597771"/>
     <use style="fill:#ff0000;stroke:#ff0000;" x="207.024336" xlink:href="#m224e6f8217" y="185.597771"/>
     <use style="fill:#ff0000;stroke:#ff0000;" x="215.348811" xlink:href="#m224e6f8217" y="274.771071"/>
     <use style="fill:#ff0000;stroke:#ff0000;" x="223.673287" xlink:href="#m224e6f8217" y="274.771071"/>
     <use style="fill:#ff0000;stroke:#ff0000;" x="231.997762" xlink:href="#m224e6f8217" y="274.771071"/>
     <use style="fill:#ff0000;stroke:#ff0000;" x="240.322238" xlink:href="#m224e6f8217" y="274.771071"/>
     <use style="fill:#ff0000;stroke:#ff0000;" x="248.646713" xlink:href="#m224e6f8217" y="295.488"/>
     <use style="fill:#ff0000;stroke:#ff0000;" x="256.971189" xlink:href="#m224e6f8217" y="295.488"/>
     <use style="fill:#ff0000;stroke:#ff0000;" x="265.295664" xlink:href="#m224e6f8217" y="295.488"/>
     <use style="fill:#ff0000;stroke:#ff0000;" x="273.62014" xlink:href="#m224e6f8217" y="208.390026"/>
     <use style="fill:#ff0000;stroke:#ff0000;" x="281.944615" xlink:href="#m224e6f8217" y="116.480494"/>
     <use style="fill:#ff0000;stroke:#ff0000;" x="290.269091" xlink:href="#m224e6f8217" y="116.480494"/>
     <use style="fill:#ff0000;stroke:#ff0000;" x="298.593566" xlink:href="#m224e6f8217" y="84.96454"/>
     <use style="fill:#ff0000;stroke:#ff0000;" x="306.918042" xlink:href="#m224e6f8217" y="84.96454"/>
     <use style="fill:#ff0000;stroke:#ff0000;" x="315.242517" xlink:href="#m224e6f8217" y="83.947406"/>
     <use style="fill:#ff0000;stroke:#ff0000;" x="323.566993" xlink:href="#m224e6f8217" y="83.947406"/>
     <use style="fill:#ff0000;stroke:#ff0000;" x="331.891469" xlink:href="#m224e6f8217" y="54.406835"/>
     <use style="fill:#ff0000;stroke:#ff0000;" x="340.215944" xlink:href="#m224e6f8217" y="54.406835"/>
     <use style="fill:#ff0000;stroke:#ff0000;" x="348.54042" xlink:href="#m224e6f8217" y="53.568"/>
     <use style="fill:#ff0000;stroke:#ff0000;" x="356.864895" xlink:href="#m224e6f8217" y="53.568"/>
     <use style="fill:#ff0000;stroke:#ff0000;" x="365.189371" xlink:href="#m224e6f8217" y="53.568"/>
     <use style="fill:#ff0000;stroke:#ff0000;" x="373.513846" xlink:href="#m224e6f8217" y="81.021618"/>
     <use style="fill:#ff0000;stroke:#ff0000;" x="381.838322" xlink:href="#m224e6f8217" y="81.021618"/>
     <use style="fill:#ff0000;stroke:#ff0000;" x="390.162797" xlink:href="#m224e6f8217" y="113.495856"/>
     <use style="fill:#ff0000;stroke:#ff0000;" x="398.487273" xlink:href="#m224e6f8217" y="113.495856"/>
    </g>
   </g>
   <g id="patch_3">
    <path d="M 57.6 307.584 
L 57.6 41.472 
" style="fill:none;stroke:#000000;stroke-linecap:square;stroke-linejoin:miter;stroke-width:0.8;"/>
   </g>
   <g id="patch_4">
    <path d="M 414.72 307.584 
L 414.72 41.472 
" style="fill:none;stroke:#000000;stroke-linecap:square;stroke-linejoin:miter;stroke-width:0.8;"/>
   </g>
   <g id="patch_5">
    <path d="M 57.6 307.584 
L 414.72 307.584 
" style="fill:none;stroke:#000000;stroke-linecap:square;stroke-linejoin:miter;stroke-width:0.8;"/>
   </g>
   <g id="patch_6">
    <path d="M 57.6 41.472 
L 414.72 41.472 
" style="fill:none;stroke:#000000;stroke-linecap:square;stroke-linejoin:miter;stroke-width:0.8;"/>
   </g>
  </g>
 </g>
 <defs>
  <clipPath id="pf93147f77c">
   <rect height="266.112" width="357.12" x="57.6" y="41.472"/>
  </clipPath>
 </defs>
</svg>
