<svg xmlns="http://www.w3.org/2000/svg" viewBox="0 0 252.07 162.724"><title>Minnesota Wild dark logo</title><g fill="#024930"><path d="M157.48 154.544a4.102 4.102 0 0 0-3.72 4.443 4.094 4.094 0 0 0 4.444 3.72 4.085 4.085 0 0 0 3.72-4.443 4.101 4.101 0 0 0-4.443-3.72zm.64 7.3a3.218 3.218 0 0 1-3.483-2.928 3.215 3.215 0 0 1 2.915-3.484 3.219 3.219 0 1 1 .569 6.411z"/><path d="M159.436 157.53a1.39 1.39 0 0 0-1.505-1.256l-1.966.178.415 4.657.864-.072-.166-1.884.628-.06 1.055 1.814.973-.083-1.102-1.884c.51-.26.866-.806.806-1.41zm-1.34.64l-1.1.095-.096-1.03 1.102-.096a.521.521 0 0 1 .557.46.521.521 0 0 1-.463.57z"/></g><path d="M235.375 33.533c.095-.012 8.71-6.8 8.71-6.8s-34.516-9.373-75.702-6.92c0 0-5.853-19.61-33.52-19.812-20.593-.14-32.43 12.69-36.15 22.703-38.887 8.424-68.57 28.08-68.57 28.08l7.087 5.44C18.9 65.81 0 81.153 0 81.153s1.777 9.278 12.903 24.1c0 0 7.465 5.794 27.205 13.413 0 0 3.803-.924 5.676-1.86 2.713.924 5.51 1.706 8.26 2.228-.13 2.488-.878 6.067 3.696 10.308l-3.353 1.765s4.052 10.26 26.79 15.794c8.71-2.037 48.295-9.24 61.767 15.736l69.256-67.17-14.645-.095 54.516-57.228c0-.012-8.97-3.057-16.695-4.61z" fill="#E2D6B5"/><path d="M238.882 40.927c-8.353-3.235-19.503-5.64-19.503-5.64l6.99-5.32c-37.537-7.796-63.32-5.593-63.32-5.593s-5.012-19.586-30.048-19.752c-24.207-.178-31.612 21.4-31.612 21.4-33.2 6.29-64.516 25.13-64.516 25.13l7.56 5.782c-19.61 9.49-39.98 25.724-39.98 25.724 2.81 8.958 11.115 19.847 11.115 19.847 7.736 5.462 24.775 12.228 24.775 12.228 2.453-.545 5.13-2.014 5.13-2.014s8.46 3.435 17.524 3.494c3.305.024 7.002-.355 7.025-1.647.012-2.228-6.777-2.962-6.754-5.45.013-1.837 4.1-4.36 19.61-4.254 9.28.06 19.788.782 19.788.782-7.63-.047-22.667 1.79-22.69 5.344-.012 2.76 10.19 2.973 10.166 6.694-.047 5.38-8.033 7.168-17.335 7.11-8.33-.06-12.276-2.454-14.16-2.477-.735 0-1.173.344-1.173.83-.024 1.93 3.66 5.852 6.635 6.966l-4.03 2.3c4.456 6.006 21.21 10.592 21.21 10.592 47.94-10.107 62.502 13.863 62.502 13.863l56.495-57.68-13.19-.095 51.782-58.166z" fill="#024930"/><path d="M155.218 30.89c.438 1.778.652 3.627.628 5.534a23.75 23.75 0 0 1-.19 2.784c10.095 1.137 20.19 3.164 29.882 6.398-10.96.284-22.145 1.244-32.95 2.547-4.112 6.872-11.625 11.446-20.203 11.387-5.83-.036-11.138-2.228-15.214-5.794-22.512 4.337-38.353 8.733-38.353 8.733 11.126.58 17.406 3.21 17.406 3.21-28.804 5.605-55.64 16.518-64.362 20.25 2.05 3.318 4.73 7.192 4.73 7.192l-4.326 5.285c7.666 1.457 17.192.71 17.192.71l14.337-8.637 11.173 3.436 3.412-4.597-3.673-.025 7.453-11.837 6.114 11.92H85.5l1.848 4.1 7.75-1.315 3.317-4.17-2.95-.025 4.455-6.742-3.318-.024 7.05-11.73 5.865 12.216-2.642-.024 3.934 7.133-3.14-.036 6.362 11.78 6.505-8.982-4.42-.036 6.73-9.965-4.277-.024 9.716-16.4 8.21 16.73-3.46-.01 5.605 9.833-4.004-.024 5.415 12.204 9.42-15.155-5.14-.046 7.7-12.335-4.69-.048 10.33-20.63 10.546 21.755-3.768-.024 6.825 11.446-4.716-.037 5.19 11.327 8.72-13.034-4.632-.047 10.083-14.338-5.367-.036 16.174-21.99 8.318 15.26 18.105-21.956c-20.63-7.862-44.172-12.163-67.93-13.1zm-45.95 5.202a25.9 25.9 0 0 1 .202-2.856c-21.66 3.164-41.885 9.22-58.343 17.987 0 0 25.344-8.673 58.343-11.967-.13-1.03-.2-2.085-.2-3.164z" fill="#AF1E24"/><path d="M155.218 30.89c-15.415-.615-30.913.202-45.736 2.347-.118.936-.19 1.896-.2 2.856 0 1.078.07 2.133.2 3.164 14.42-1.446 30.31-1.837 46.174-.06.13-.91.19-1.824.19-2.783.012-1.898-.2-3.758-.628-5.523zm-22.82 28.65c8.578.06 16.09-4.513 20.202-11.386-12.654 1.528-24.776 3.543-35.404 5.593a23.225 23.225 0 0 0 15.202 5.794zm.32-46.564c-11.897-.083-21.755 8.768-23.236 20.26 0 0 11.718-5.177 43.497-8.15-3.91-7.158-11.518-12.05-20.263-12.11z" fill="#EDAA00"/><path d="M135.182 44.683c-30.392.782-57.774 8.176-57.774 8.176-.2-1.364-.415-2.68-.616-4.04-.948 1.575-1.848 3.103-2.808 4.667-.012 0-13.78 4.94-22.88 9.645 11.66-3.934 21.114-6.327 21.114-6.327-.96 2.026-1.896 3.946-2.867 5.96 1.766-1.552 3.437-3.033 5.19-4.585 1.257.675 2.454 1.35 3.698 2.014-.166-1.48-.32-2.915-.486-4.43 0-.003 30.71-8.32 57.43-11.08z" fill="#FFF"/></svg>