<?xml version="1.0" encoding="utf-8" standalone="no"?>
<!DOCTYPE svg PUBLIC "-//W3C//DTD SVG 1.1//EN"
  "http://www.w3.org/Graphics/SVG/1.1/DTD/svg11.dtd">
<!-- Created with matplotlib (https://matplotlib.org/) -->
<svg height="345.6pt" version="1.1" viewBox="0 0 460.8 345.6" width="460.8pt" xmlns="http://www.w3.org/2000/svg" xmlns:xlink="http://www.w3.org/1999/xlink">
 <defs>
  <style type="text/css">
*{stroke-linecap:butt;stroke-linejoin:round;}
  </style>
 </defs>
 <g id="figure_1">
  <g id="patch_1">
   <path d="M 0 345.6 
L 460.8 345.6 
L 460.8 0 
L 0 0 
z
" style="fill:#ffffff;"/>
  </g>
  <g id="axes_1">
   <g id="patch_2">
    <path d="M 57.6 307.584 
L 414.72 307.584 
L 414.72 41.472 
L 57.6 41.472 
z
" style="fill:#ffffff;"/>
   </g>
   <g id="line2d_1">
    <path clip-path="url(#p37fc20bff8)" d="M 73.832727 207.873812 
L 74.967883 256.061977 
L 81.778818 256.061977 
L 82.913973 245.229812 
L 84.049129 245.229812 
L 85.184285 251.249463 
L 86.319441 251.249463 
L 87.454596 295.488 
L 88.589752 248.356895 
L 90.860064 248.356895 
L 91.995219 199.336014 
L 93.130375 187.847765 
L 97.670998 187.847765 
L 98.806154 144.386977 
L 99.94131 144.386977 
L 101.076465 93.656265 
L 102.211621 93.656265 
L 103.346777 110.978728 
L 104.481933 95.316873 
L 107.8874 95.316873 
L 109.022556 80.362718 
L 111.292867 80.362718 
L 112.428023 97.018543 
L 113.563179 97.018543 
L 115.83349 68.459192 
L 116.968646 68.459192 
L 118.103802 53.568 
L 119.238957 53.568 
L 120.374113 70.943415 
L 121.509269 70.943415 
L 122.644425 56.151277 
L 123.77958 56.151277 
L 126.049892 90.028365 
L 128.320203 90.028365 
L 129.455359 75.174326 
L 130.590515 75.174326 
L 131.725671 59.165674 
L 135.131138 59.165674 
L 136.266294 76.780944 
L 137.401449 76.780944 
L 138.536605 93.311546 
L 139.671761 93.311546 
L 140.806917 108.924266 
L 143.077228 108.924266 
L 144.212384 94.543589 
L 145.34754 94.543589 
L 147.617851 127.813725 
L 151.023318 127.813725 
L 152.158474 111.643616 
L 153.29363 111.643616 
L 154.428786 97.725699 
L 155.563942 97.725699 
L 156.699097 113.898247 
L 158.969409 113.898247 
L 160.104565 129.931926 
L 161.23972 129.931926 
L 162.374876 146.156732 
L 163.510032 146.156732 
L 164.645188 149.984838 
L 169.185811 149.984838 
L 170.320966 167.387268 
L 171.456122 167.387268 
L 172.591278 150.536679 
L 173.726434 150.536679 
L 174.861589 166.182514 
L 177.131901 166.182514 
L 178.267057 148.950885 
L 179.402212 148.950885 
L 180.537368 134.481031 
L 181.672524 134.481031 
L 182.80768 118.256134 
L 183.942835 133.845283 
L 185.077991 133.845283 
L 186.213147 117.142315 
L 187.348303 117.142315 
L 188.483458 136.306606 
L 189.618614 136.306606 
L 190.75377 154.510223 
L 191.888926 156.882445 
L 193.024081 156.882445 
L 194.159237 174.227226 
L 195.294393 174.227226 
L 196.429549 157.822223 
L 197.564704 157.822223 
L 198.69986 141.567245 
L 199.835016 141.567245 
L 200.970172 125.450305 
L 210.051418 125.450305 
L 211.186573 142.236368 
L 212.321729 146.764062 
L 214.592041 146.764062 
L 215.727196 147.362528 
L 216.862352 147.362528 
L 217.997508 164.768599 
L 219.132664 164.768599 
L 220.267819 149.843433 
L 221.402975 165.389866 
L 222.538131 165.389866 
L 223.673287 182.569135 
L 225.943598 182.569135 
L 227.078754 186.995527 
L 228.21391 186.995527 
L 229.349065 202.786387 
L 230.484221 202.786387 
L 231.619377 220.156747 
L 232.754533 220.156747 
L 235.024844 191.492738 
L 236.16 191.492738 
L 237.295156 187.945838 
L 238.430312 187.945838 
L 239.565467 171.079457 
L 242.970935 171.079457 
L 244.10609 153.388379 
L 245.241246 152.826609 
L 246.376402 152.826609 
L 247.511558 152.272915 
L 248.646713 152.272915 
L 249.781869 133.507684 
L 250.917025 151.537352 
L 253.187336 151.537352 
L 254.322492 166.246657 
L 256.592804 166.246657 
L 257.727959 182.393885 
L 258.863115 182.393885 
L 259.998271 168.0719 
L 261.133427 170.695117 
L 262.268582 170.695117 
L 263.403738 186.950511 
L 265.67405 186.950511 
L 266.809205 170.078534 
L 267.944361 185.492283 
L 269.079517 185.492283 
L 270.214673 200.797409 
L 273.62014 200.797409 
L 274.755296 184.378136 
L 275.890451 184.378136 
L 277.025607 200.986103 
L 278.160763 200.986103 
L 279.295919 184.053496 
L 280.431074 184.053496 
L 281.56623 198.495525 
L 282.701386 198.495525 
L 283.836542 214.326912 
L 398.487273 214.326912 
L 398.487273 214.326912 
" style="fill:none;stroke:#ff0000;stroke-linecap:square;stroke-width:12;"/>
    <defs>
     <path d="M 0 3 
C 0.795609 3 1.55874 2.683901 2.12132 2.12132 
C 2.683901 1.55874 3 0.795609 3 0 
C 3 -0.795609 2.683901 -1.55874 2.12132 -2.12132 
C 1.55874 -2.683901 0.795609 -3 0 -3 
C -0.795609 -3 -1.55874 -2.683901 -2.12132 -2.12132 
C -2.683901 -1.55874 -3 -0.795609 -3 0 
C -3 0.795609 -2.683901 1.55874 -2.12132 2.12132 
C -1.55874 2.683901 -0.795609 3 0 3 
z
" id="mee1e4d8b9f" style="stroke:#ff0000;"/>
    </defs>
    <g clip-path="url(#p37fc20bff8)">
     <use style="fill:#ff0000;stroke:#ff0000;" x="73.832727" xlink:href="#mee1e4d8b9f" y="207.873812"/>
     <use style="fill:#ff0000;stroke:#ff0000;" x="74.967883" xlink:href="#mee1e4d8b9f" y="256.061977"/>
     <use style="fill:#ff0000;stroke:#ff0000;" x="76.103039" xlink:href="#mee1e4d8b9f" y="256.061977"/>
     <use style="fill:#ff0000;stroke:#ff0000;" x="77.238195" xlink:href="#mee1e4d8b9f" y="256.061977"/>
     <use style="fill:#ff0000;stroke:#ff0000;" x="78.37335" xlink:href="#mee1e4d8b9f" y="256.061977"/>
     <use style="fill:#ff0000;stroke:#ff0000;" x="79.508506" xlink:href="#mee1e4d8b9f" y="256.061977"/>
     <use style="fill:#ff0000;stroke:#ff0000;" x="80.643662" xlink:href="#mee1e4d8b9f" y="256.061977"/>
     <use style="fill:#ff0000;stroke:#ff0000;" x="81.778818" xlink:href="#mee1e4d8b9f" y="256.061977"/>
     <use style="fill:#ff0000;stroke:#ff0000;" x="82.913973" xlink:href="#mee1e4d8b9f" y="245.229812"/>
     <use style="fill:#ff0000;stroke:#ff0000;" x="84.049129" xlink:href="#mee1e4d8b9f" y="245.229812"/>
     <use style="fill:#ff0000;stroke:#ff0000;" x="85.184285" xlink:href="#mee1e4d8b9f" y="251.249463"/>
     <use style="fill:#ff0000;stroke:#ff0000;" x="86.319441" xlink:href="#mee1e4d8b9f" y="251.249463"/>
     <use style="fill:#ff0000;stroke:#ff0000;" x="87.454596" xlink:href="#mee1e4d8b9f" y="295.488"/>
     <use style="fill:#ff0000;stroke:#ff0000;" x="88.589752" xlink:href="#mee1e4d8b9f" y="248.356895"/>
     <use style="fill:#ff0000;stroke:#ff0000;" x="89.724908" xlink:href="#mee1e4d8b9f" y="248.356895"/>
     <use style="fill:#ff0000;stroke:#ff0000;" x="90.860064" xlink:href="#mee1e4d8b9f" y="248.356895"/>
     <use style="fill:#ff0000;stroke:#ff0000;" x="91.995219" xlink:href="#mee1e4d8b9f" y="199.336014"/>
     <use style="fill:#ff0000;stroke:#ff0000;" x="93.130375" xlink:href="#mee1e4d8b9f" y="187.847765"/>
     <use style="fill:#ff0000;stroke:#ff0000;" x="94.265531" xlink:href="#mee1e4d8b9f" y="187.847765"/>
     <use style="fill:#ff0000;stroke:#ff0000;" x="95.400687" xlink:href="#mee1e4d8b9f" y="187.847765"/>
     <use style="fill:#ff0000;stroke:#ff0000;" x="96.535842" xlink:href="#mee1e4d8b9f" y="187.847765"/>
     <use style="fill:#ff0000;stroke:#ff0000;" x="97.670998" xlink:href="#mee1e4d8b9f" y="187.847765"/>
     <use style="fill:#ff0000;stroke:#ff0000;" x="98.806154" xlink:href="#mee1e4d8b9f" y="144.386977"/>
     <use style="fill:#ff0000;stroke:#ff0000;" x="99.94131" xlink:href="#mee1e4d8b9f" y="144.386977"/>
     <use style="fill:#ff0000;stroke:#ff0000;" x="101.076465" xlink:href="#mee1e4d8b9f" y="93.656265"/>
     <use style="fill:#ff0000;stroke:#ff0000;" x="102.211621" xlink:href="#mee1e4d8b9f" y="93.656265"/>
     <use style="fill:#ff0000;stroke:#ff0000;" x="103.346777" xlink:href="#mee1e4d8b9f" y="110.978728"/>
     <use style="fill:#ff0000;stroke:#ff0000;" x="104.481933" xlink:href="#mee1e4d8b9f" y="95.316873"/>
     <use style="fill:#ff0000;stroke:#ff0000;" x="105.617088" xlink:href="#mee1e4d8b9f" y="95.316873"/>
     <use style="fill:#ff0000;stroke:#ff0000;" x="106.752244" xlink:href="#mee1e4d8b9f" y="95.316873"/>
     <use style="fill:#ff0000;stroke:#ff0000;" x="107.8874" xlink:href="#mee1e4d8b9f" y="95.316873"/>
     <use style="fill:#ff0000;stroke:#ff0000;" x="109.022556" xlink:href="#mee1e4d8b9f" y="80.362718"/>
     <use style="fill:#ff0000;stroke:#ff0000;" x="110.157711" xlink:href="#mee1e4d8b9f" y="80.362718"/>
     <use style="fill:#ff0000;stroke:#ff0000;" x="111.292867" xlink:href="#mee1e4d8b9f" y="80.362718"/>
     <use style="fill:#ff0000;stroke:#ff0000;" x="112.428023" xlink:href="#mee1e4d8b9f" y="97.018543"/>
     <use style="fill:#ff0000;stroke:#ff0000;" x="113.563179" xlink:href="#mee1e4d8b9f" y="97.018543"/>
     <use style="fill:#ff0000;stroke:#ff0000;" x="114.698334" xlink:href="#mee1e4d8b9f" y="83.228386"/>
     <use style="fill:#ff0000;stroke:#ff0000;" x="115.83349" xlink:href="#mee1e4d8b9f" y="68.459192"/>
     <use style="fill:#ff0000;stroke:#ff0000;" x="116.968646" xlink:href="#mee1e4d8b9f" y="68.459192"/>
     <use style="fill:#ff0000;stroke:#ff0000;" x="118.103802" xlink:href="#mee1e4d8b9f" y="53.568"/>
     <use style="fill:#ff0000;stroke:#ff0000;" x="119.238957" xlink:href="#mee1e4d8b9f" y="53.568"/>
     <use style="fill:#ff0000;stroke:#ff0000;" x="120.374113" xlink:href="#mee1e4d8b9f" y="70.943415"/>
     <use style="fill:#ff0000;stroke:#ff0000;" x="121.509269" xlink:href="#mee1e4d8b9f" y="70.943415"/>
     <use style="fill:#ff0000;stroke:#ff0000;" x="122.644425" xlink:href="#mee1e4d8b9f" y="56.151277"/>
     <use style="fill:#ff0000;stroke:#ff0000;" x="123.77958" xlink:href="#mee1e4d8b9f" y="56.151277"/>
     <use style="fill:#ff0000;stroke:#ff0000;" x="124.914736" xlink:href="#mee1e4d8b9f" y="72.718497"/>
     <use style="fill:#ff0000;stroke:#ff0000;" x="126.049892" xlink:href="#mee1e4d8b9f" y="90.028365"/>
     <use style="fill:#ff0000;stroke:#ff0000;" x="127.185048" xlink:href="#mee1e4d8b9f" y="90.028365"/>
     <use style="fill:#ff0000;stroke:#ff0000;" x="128.320203" xlink:href="#mee1e4d8b9f" y="90.028365"/>
     <use style="fill:#ff0000;stroke:#ff0000;" x="129.455359" xlink:href="#mee1e4d8b9f" y="75.174326"/>
     <use style="fill:#ff0000;stroke:#ff0000;" x="130.590515" xlink:href="#mee1e4d8b9f" y="75.174326"/>
     <use style="fill:#ff0000;stroke:#ff0000;" x="131.725671" xlink:href="#mee1e4d8b9f" y="59.165674"/>
     <use style="fill:#ff0000;stroke:#ff0000;" x="132.860826" xlink:href="#mee1e4d8b9f" y="59.165674"/>
     <use style="fill:#ff0000;stroke:#ff0000;" x="133.995982" xlink:href="#mee1e4d8b9f" y="59.165674"/>
     <use style="fill:#ff0000;stroke:#ff0000;" x="135.131138" xlink:href="#mee1e4d8b9f" y="59.165674"/>
     <use style="fill:#ff0000;stroke:#ff0000;" x="136.266294" xlink:href="#mee1e4d8b9f" y="76.780944"/>
     <use style="fill:#ff0000;stroke:#ff0000;" x="137.401449" xlink:href="#mee1e4d8b9f" y="76.780944"/>
     <use style="fill:#ff0000;stroke:#ff0000;" x="138.536605" xlink:href="#mee1e4d8b9f" y="93.311546"/>
     <use style="fill:#ff0000;stroke:#ff0000;" x="139.671761" xlink:href="#mee1e4d8b9f" y="93.311546"/>
     <use style="fill:#ff0000;stroke:#ff0000;" x="140.806917" xlink:href="#mee1e4d8b9f" y="108.924266"/>
     <use style="fill:#ff0000;stroke:#ff0000;" x="141.942072" xlink:href="#mee1e4d8b9f" y="108.924266"/>
     <use style="fill:#ff0000;stroke:#ff0000;" x="143.077228" xlink:href="#mee1e4d8b9f" y="108.924266"/>
     <use style="fill:#ff0000;stroke:#ff0000;" x="144.212384" xlink:href="#mee1e4d8b9f" y="94.543589"/>
     <use style="fill:#ff0000;stroke:#ff0000;" x="145.34754" xlink:href="#mee1e4d8b9f" y="94.543589"/>
     <use style="fill:#ff0000;stroke:#ff0000;" x="146.482695" xlink:href="#mee1e4d8b9f" y="110.869924"/>
     <use style="fill:#ff0000;stroke:#ff0000;" x="147.617851" xlink:href="#mee1e4d8b9f" y="127.813725"/>
     <use style="fill:#ff0000;stroke:#ff0000;" x="148.753007" xlink:href="#mee1e4d8b9f" y="127.813725"/>
     <use style="fill:#ff0000;stroke:#ff0000;" x="149.888163" xlink:href="#mee1e4d8b9f" y="127.813725"/>
     <use style="fill:#ff0000;stroke:#ff0000;" x="151.023318" xlink:href="#mee1e4d8b9f" y="127.813725"/>
     <use style="fill:#ff0000;stroke:#ff0000;" x="152.158474" xlink:href="#mee1e4d8b9f" y="111.643616"/>
     <use style="fill:#ff0000;stroke:#ff0000;" x="153.29363" xlink:href="#mee1e4d8b9f" y="111.643616"/>
     <use style="fill:#ff0000;stroke:#ff0000;" x="154.428786" xlink:href="#mee1e4d8b9f" y="97.725699"/>
     <use style="fill:#ff0000;stroke:#ff0000;" x="155.563942" xlink:href="#mee1e4d8b9f" y="97.725699"/>
     <use style="fill:#ff0000;stroke:#ff0000;" x="156.699097" xlink:href="#mee1e4d8b9f" y="113.898247"/>
     <use style="fill:#ff0000;stroke:#ff0000;" x="157.834253" xlink:href="#mee1e4d8b9f" y="113.898247"/>
     <use style="fill:#ff0000;stroke:#ff0000;" x="158.969409" xlink:href="#mee1e4d8b9f" y="113.898247"/>
     <use style="fill:#ff0000;stroke:#ff0000;" x="160.104565" xlink:href="#mee1e4d8b9f" y="129.931926"/>
     <use style="fill:#ff0000;stroke:#ff0000;" x="161.23972" xlink:href="#mee1e4d8b9f" y="129.931926"/>
     <use style="fill:#ff0000;stroke:#ff0000;" x="162.374876" xlink:href="#mee1e4d8b9f" y="146.156732"/>
     <use style="fill:#ff0000;stroke:#ff0000;" x="163.510032" xlink:href="#mee1e4d8b9f" y="146.156732"/>
     <use style="fill:#ff0000;stroke:#ff0000;" x="164.645188" xlink:href="#mee1e4d8b9f" y="149.984838"/>
     <use style="fill:#ff0000;stroke:#ff0000;" x="165.780343" xlink:href="#mee1e4d8b9f" y="149.984838"/>
     <use style="fill:#ff0000;stroke:#ff0000;" x="166.915499" xlink:href="#mee1e4d8b9f" y="149.984838"/>
     <use style="fill:#ff0000;stroke:#ff0000;" x="168.050655" xlink:href="#mee1e4d8b9f" y="149.984838"/>
     <use style="fill:#ff0000;stroke:#ff0000;" x="169.185811" xlink:href="#mee1e4d8b9f" y="149.984838"/>
     <use style="fill:#ff0000;stroke:#ff0000;" x="170.320966" xlink:href="#mee1e4d8b9f" y="167.387268"/>
     <use style="fill:#ff0000;stroke:#ff0000;" x="171.456122" xlink:href="#mee1e4d8b9f" y="167.387268"/>
     <use style="fill:#ff0000;stroke:#ff0000;" x="172.591278" xlink:href="#mee1e4d8b9f" y="150.536679"/>
     <use style="fill:#ff0000;stroke:#ff0000;" x="173.726434" xlink:href="#mee1e4d8b9f" y="150.536679"/>
     <use style="fill:#ff0000;stroke:#ff0000;" x="174.861589" xlink:href="#mee1e4d8b9f" y="166.182514"/>
     <use style="fill:#ff0000;stroke:#ff0000;" x="175.996745" xlink:href="#mee1e4d8b9f" y="166.182514"/>
     <use style="fill:#ff0000;stroke:#ff0000;" x="177.131901" xlink:href="#mee1e4d8b9f" y="166.182514"/>
     <use style="fill:#ff0000;stroke:#ff0000;" x="178.267057" xlink:href="#mee1e4d8b9f" y="148.950885"/>
     <use style="fill:#ff0000;stroke:#ff0000;" x="179.402212" xlink:href="#mee1e4d8b9f" y="148.950885"/>
     <use style="fill:#ff0000;stroke:#ff0000;" x="180.537368" xlink:href="#mee1e4d8b9f" y="134.481031"/>
     <use style="fill:#ff0000;stroke:#ff0000;" x="181.672524" xlink:href="#mee1e4d8b9f" y="134.481031"/>
     <use style="fill:#ff0000;stroke:#ff0000;" x="182.80768" xlink:href="#mee1e4d8b9f" y="118.256134"/>
     <use style="fill:#ff0000;stroke:#ff0000;" x="183.942835" xlink:href="#mee1e4d8b9f" y="133.845283"/>
     <use style="fill:#ff0000;stroke:#ff0000;" x="185.077991" xlink:href="#mee1e4d8b9f" y="133.845283"/>
     <use style="fill:#ff0000;stroke:#ff0000;" x="186.213147" xlink:href="#mee1e4d8b9f" y="117.142315"/>
     <use style="fill:#ff0000;stroke:#ff0000;" x="187.348303" xlink:href="#mee1e4d8b9f" y="117.142315"/>
     <use style="fill:#ff0000;stroke:#ff0000;" x="188.483458" xlink:href="#mee1e4d8b9f" y="136.306606"/>
     <use style="fill:#ff0000;stroke:#ff0000;" x="189.618614" xlink:href="#mee1e4d8b9f" y="136.306606"/>
     <use style="fill:#ff0000;stroke:#ff0000;" x="190.75377" xlink:href="#mee1e4d8b9f" y="154.510223"/>
     <use style="fill:#ff0000;stroke:#ff0000;" x="191.888926" xlink:href="#mee1e4d8b9f" y="156.882445"/>
     <use style="fill:#ff0000;stroke:#ff0000;" x="193.024081" xlink:href="#mee1e4d8b9f" y="156.882445"/>
     <use style="fill:#ff0000;stroke:#ff0000;" x="194.159237" xlink:href="#mee1e4d8b9f" y="174.227226"/>
     <use style="fill:#ff0000;stroke:#ff0000;" x="195.294393" xlink:href="#mee1e4d8b9f" y="174.227226"/>
     <use style="fill:#ff0000;stroke:#ff0000;" x="196.429549" xlink:href="#mee1e4d8b9f" y="157.822223"/>
     <use style="fill:#ff0000;stroke:#ff0000;" x="197.564704" xlink:href="#mee1e4d8b9f" y="157.822223"/>
     <use style="fill:#ff0000;stroke:#ff0000;" x="198.69986" xlink:href="#mee1e4d8b9f" y="141.567245"/>
     <use style="fill:#ff0000;stroke:#ff0000;" x="199.835016" xlink:href="#mee1e4d8b9f" y="141.567245"/>
     <use style="fill:#ff0000;stroke:#ff0000;" x="200.970172" xlink:href="#mee1e4d8b9f" y="125.450305"/>
     <use style="fill:#ff0000;stroke:#ff0000;" x="202.105327" xlink:href="#mee1e4d8b9f" y="125.450305"/>
     <use style="fill:#ff0000;stroke:#ff0000;" x="203.240483" xlink:href="#mee1e4d8b9f" y="125.450305"/>
     <use style="fill:#ff0000;stroke:#ff0000;" x="204.375639" xlink:href="#mee1e4d8b9f" y="125.450305"/>
     <use style="fill:#ff0000;stroke:#ff0000;" x="205.510795" xlink:href="#mee1e4d8b9f" y="125.450305"/>
     <use style="fill:#ff0000;stroke:#ff0000;" x="206.64595" xlink:href="#mee1e4d8b9f" y="125.450305"/>
     <use style="fill:#ff0000;stroke:#ff0000;" x="207.781106" xlink:href="#mee1e4d8b9f" y="125.450305"/>
     <use style="fill:#ff0000;stroke:#ff0000;" x="208.916262" xlink:href="#mee1e4d8b9f" y="125.450305"/>
     <use style="fill:#ff0000;stroke:#ff0000;" x="210.051418" xlink:href="#mee1e4d8b9f" y="125.450305"/>
     <use style="fill:#ff0000;stroke:#ff0000;" x="211.186573" xlink:href="#mee1e4d8b9f" y="142.236368"/>
     <use style="fill:#ff0000;stroke:#ff0000;" x="212.321729" xlink:href="#mee1e4d8b9f" y="146.764062"/>
     <use style="fill:#ff0000;stroke:#ff0000;" x="213.456885" xlink:href="#mee1e4d8b9f" y="146.764062"/>
     <use style="fill:#ff0000;stroke:#ff0000;" x="214.592041" xlink:href="#mee1e4d8b9f" y="146.764062"/>
     <use style="fill:#ff0000;stroke:#ff0000;" x="215.727196" xlink:href="#mee1e4d8b9f" y="147.362528"/>
     <use style="fill:#ff0000;stroke:#ff0000;" x="216.862352" xlink:href="#mee1e4d8b9f" y="147.362528"/>
     <use style="fill:#ff0000;stroke:#ff0000;" x="217.997508" xlink:href="#mee1e4d8b9f" y="164.768599"/>
     <use style="fill:#ff0000;stroke:#ff0000;" x="219.132664" xlink:href="#mee1e4d8b9f" y="164.768599"/>
     <use style="fill:#ff0000;stroke:#ff0000;" x="220.267819" xlink:href="#mee1e4d8b9f" y="149.843433"/>
     <use style="fill:#ff0000;stroke:#ff0000;" x="221.402975" xlink:href="#mee1e4d8b9f" y="165.389866"/>
     <use style="fill:#ff0000;stroke:#ff0000;" x="222.538131" xlink:href="#mee1e4d8b9f" y="165.389866"/>
     <use style="fill:#ff0000;stroke:#ff0000;" x="223.673287" xlink:href="#mee1e4d8b9f" y="182.569135"/>
     <use style="fill:#ff0000;stroke:#ff0000;" x="224.808442" xlink:href="#mee1e4d8b9f" y="182.569135"/>
     <use style="fill:#ff0000;stroke:#ff0000;" x="225.943598" xlink:href="#mee1e4d8b9f" y="182.569135"/>
     <use style="fill:#ff0000;stroke:#ff0000;" x="227.078754" xlink:href="#mee1e4d8b9f" y="186.995527"/>
     <use style="fill:#ff0000;stroke:#ff0000;" x="228.21391" xlink:href="#mee1e4d8b9f" y="186.995527"/>
     <use style="fill:#ff0000;stroke:#ff0000;" x="229.349065" xlink:href="#mee1e4d8b9f" y="202.786387"/>
     <use style="fill:#ff0000;stroke:#ff0000;" x="230.484221" xlink:href="#mee1e4d8b9f" y="202.786387"/>
     <use style="fill:#ff0000;stroke:#ff0000;" x="231.619377" xlink:href="#mee1e4d8b9f" y="220.156747"/>
     <use style="fill:#ff0000;stroke:#ff0000;" x="232.754533" xlink:href="#mee1e4d8b9f" y="220.156747"/>
     <use style="fill:#ff0000;stroke:#ff0000;" x="233.889688" xlink:href="#mee1e4d8b9f" y="205.263368"/>
     <use style="fill:#ff0000;stroke:#ff0000;" x="235.024844" xlink:href="#mee1e4d8b9f" y="191.492738"/>
     <use style="fill:#ff0000;stroke:#ff0000;" x="236.16" xlink:href="#mee1e4d8b9f" y="191.492738"/>
     <use style="fill:#ff0000;stroke:#ff0000;" x="237.295156" xlink:href="#mee1e4d8b9f" y="187.945838"/>
     <use style="fill:#ff0000;stroke:#ff0000;" x="238.430312" xlink:href="#mee1e4d8b9f" y="187.945838"/>
     <use style="fill:#ff0000;stroke:#ff0000;" x="239.565467" xlink:href="#mee1e4d8b9f" y="171.079457"/>
     <use style="fill:#ff0000;stroke:#ff0000;" x="240.700623" xlink:href="#mee1e4d8b9f" y="171.079457"/>
     <use style="fill:#ff0000;stroke:#ff0000;" x="241.835779" xlink:href="#mee1e4d8b9f" y="171.079457"/>
     <use style="fill:#ff0000;stroke:#ff0000;" x="242.970935" xlink:href="#mee1e4d8b9f" y="171.079457"/>
     <use style="fill:#ff0000;stroke:#ff0000;" x="244.10609" xlink:href="#mee1e4d8b9f" y="153.388379"/>
     <use style="fill:#ff0000;stroke:#ff0000;" x="245.241246" xlink:href="#mee1e4d8b9f" y="152.826609"/>
     <use style="fill:#ff0000;stroke:#ff0000;" x="246.376402" xlink:href="#mee1e4d8b9f" y="152.826609"/>
     <use style="fill:#ff0000;stroke:#ff0000;" x="247.511558" xlink:href="#mee1e4d8b9f" y="152.272915"/>
     <use style="fill:#ff0000;stroke:#ff0000;" x="248.646713" xlink:href="#mee1e4d8b9f" y="152.272915"/>
     <use style="fill:#ff0000;stroke:#ff0000;" x="249.781869" xlink:href="#mee1e4d8b9f" y="133.507684"/>
     <use style="fill:#ff0000;stroke:#ff0000;" x="250.917025" xlink:href="#mee1e4d8b9f" y="151.537352"/>
     <use style="fill:#ff0000;stroke:#ff0000;" x="252.052181" xlink:href="#mee1e4d8b9f" y="151.537352"/>
     <use style="fill:#ff0000;stroke:#ff0000;" x="253.187336" xlink:href="#mee1e4d8b9f" y="151.537352"/>
     <use style="fill:#ff0000;stroke:#ff0000;" x="254.322492" xlink:href="#mee1e4d8b9f" y="166.246657"/>
     <use style="fill:#ff0000;stroke:#ff0000;" x="255.457648" xlink:href="#mee1e4d8b9f" y="166.246657"/>
     <use style="fill:#ff0000;stroke:#ff0000;" x="256.592804" xlink:href="#mee1e4d8b9f" y="166.246657"/>
     <use style="fill:#ff0000;stroke:#ff0000;" x="257.727959" xlink:href="#mee1e4d8b9f" y="182.393885"/>
     <use style="fill:#ff0000;stroke:#ff0000;" x="258.863115" xlink:href="#mee1e4d8b9f" y="182.393885"/>
     <use style="fill:#ff0000;stroke:#ff0000;" x="259.998271" xlink:href="#mee1e4d8b9f" y="168.0719"/>
     <use style="fill:#ff0000;stroke:#ff0000;" x="261.133427" xlink:href="#mee1e4d8b9f" y="170.695117"/>
     <use style="fill:#ff0000;stroke:#ff0000;" x="262.268582" xlink:href="#mee1e4d8b9f" y="170.695117"/>
     <use style="fill:#ff0000;stroke:#ff0000;" x="263.403738" xlink:href="#mee1e4d8b9f" y="186.950511"/>
     <use style="fill:#ff0000;stroke:#ff0000;" x="264.538894" xlink:href="#mee1e4d8b9f" y="186.950511"/>
     <use style="fill:#ff0000;stroke:#ff0000;" x="265.67405" xlink:href="#mee1e4d8b9f" y="186.950511"/>
     <use style="fill:#ff0000;stroke:#ff0000;" x="266.809205" xlink:href="#mee1e4d8b9f" y="170.078534"/>
     <use style="fill:#ff0000;stroke:#ff0000;" x="267.944361" xlink:href="#mee1e4d8b9f" y="185.492283"/>
     <use style="fill:#ff0000;stroke:#ff0000;" x="269.079517" xlink:href="#mee1e4d8b9f" y="185.492283"/>
     <use style="fill:#ff0000;stroke:#ff0000;" x="270.214673" xlink:href="#mee1e4d8b9f" y="200.797409"/>
     <use style="fill:#ff0000;stroke:#ff0000;" x="271.349828" xlink:href="#mee1e4d8b9f" y="200.797409"/>
     <use style="fill:#ff0000;stroke:#ff0000;" x="272.484984" xlink:href="#mee1e4d8b9f" y="200.797409"/>
     <use style="fill:#ff0000;stroke:#ff0000;" x="273.62014" xlink:href="#mee1e4d8b9f" y="200.797409"/>
     <use style="fill:#ff0000;stroke:#ff0000;" x="274.755296" xlink:href="#mee1e4d8b9f" y="184.378136"/>
     <use style="fill:#ff0000;stroke:#ff0000;" x="275.890451" xlink:href="#mee1e4d8b9f" y="184.378136"/>
     <use style="fill:#ff0000;stroke:#ff0000;" x="277.025607" xlink:href="#mee1e4d8b9f" y="200.986103"/>
     <use style="fill:#ff0000;stroke:#ff0000;" x="278.160763" xlink:href="#mee1e4d8b9f" y="200.986103"/>
     <use style="fill:#ff0000;stroke:#ff0000;" x="279.295919" xlink:href="#mee1e4d8b9f" y="184.053496"/>
     <use style="fill:#ff0000;stroke:#ff0000;" x="280.431074" xlink:href="#mee1e4d8b9f" y="184.053496"/>
     <use style="fill:#ff0000;stroke:#ff0000;" x="281.56623" xlink:href="#mee1e4d8b9f" y="198.495525"/>
     <use style="fill:#ff0000;stroke:#ff0000;" x="282.701386" xlink:href="#mee1e4d8b9f" y="198.495525"/>
     <use style="fill:#ff0000;stroke:#ff0000;" x="283.836542" xlink:href="#mee1e4d8b9f" y="214.326912"/>
     <use style="fill:#ff0000;stroke:#ff0000;" x="284.971697" xlink:href="#mee1e4d8b9f" y="214.326912"/>
     <use style="fill:#ff0000;stroke:#ff0000;" x="286.106853" xlink:href="#mee1e4d8b9f" y="214.326912"/>
     <use style="fill:#ff0000;stroke:#ff0000;" x="287.242009" xlink:href="#mee1e4d8b9f" y="214.326912"/>
     <use style="fill:#ff0000;stroke:#ff0000;" x="288.377165" xlink:href="#mee1e4d8b9f" y="214.326912"/>
     <use style="fill:#ff0000;stroke:#ff0000;" x="289.51232" xlink:href="#mee1e4d8b9f" y="214.326912"/>
     <use style="fill:#ff0000;stroke:#ff0000;" x="290.647476" xlink:href="#mee1e4d8b9f" y="214.326912"/>
     <use style="fill:#ff0000;stroke:#ff0000;" x="291.782632" xlink:href="#mee1e4d8b9f" y="214.326912"/>
     <use style="fill:#ff0000;stroke:#ff0000;" x="292.917788" xlink:href="#mee1e4d8b9f" y="214.326912"/>
     <use style="fill:#ff0000;stroke:#ff0000;" x="294.052943" xlink:href="#mee1e4d8b9f" y="214.326912"/>
     <use style="fill:#ff0000;stroke:#ff0000;" x="295.188099" xlink:href="#mee1e4d8b9f" y="214.326912"/>
     <use style="fill:#ff0000;stroke:#ff0000;" x="296.323255" xlink:href="#mee1e4d8b9f" y="214.326912"/>
     <use style="fill:#ff0000;stroke:#ff0000;" x="297.458411" xlink:href="#mee1e4d8b9f" y="214.326912"/>
     <use style="fill:#ff0000;stroke:#ff0000;" x="298.593566" xlink:href="#mee1e4d8b9f" y="214.326912"/>
     <use style="fill:#ff0000;stroke:#ff0000;" x="299.728722" xlink:href="#mee1e4d8b9f" y="214.326912"/>
     <use style="fill:#ff0000;stroke:#ff0000;" x="300.863878" xlink:href="#mee1e4d8b9f" y="214.326912"/>
     <use style="fill:#ff0000;stroke:#ff0000;" x="301.999034" xlink:href="#mee1e4d8b9f" y="214.326912"/>
     <use style="fill:#ff0000;stroke:#ff0000;" x="303.134189" xlink:href="#mee1e4d8b9f" y="214.326912"/>
     <use style="fill:#ff0000;stroke:#ff0000;" x="304.269345" xlink:href="#mee1e4d8b9f" y="214.326912"/>
     <use style="fill:#ff0000;stroke:#ff0000;" x="305.404501" xlink:href="#mee1e4d8b9f" y="214.326912"/>
     <use style="fill:#ff0000;stroke:#ff0000;" x="306.539657" xlink:href="#mee1e4d8b9f" y="214.326912"/>
     <use style="fill:#ff0000;stroke:#ff0000;" x="307.674812" xlink:href="#mee1e4d8b9f" y="214.326912"/>
     <use style="fill:#ff0000;stroke:#ff0000;" x="308.809968" xlink:href="#mee1e4d8b9f" y="214.326912"/>
     <use style="fill:#ff0000;stroke:#ff0000;" x="309.945124" xlink:href="#mee1e4d8b9f" y="214.326912"/>
     <use style="fill:#ff0000;stroke:#ff0000;" x="311.08028" xlink:href="#mee1e4d8b9f" y="214.326912"/>
     <use style="fill:#ff0000;stroke:#ff0000;" x="312.215435" xlink:href="#mee1e4d8b9f" y="214.326912"/>
     <use style="fill:#ff0000;stroke:#ff0000;" x="313.350591" xlink:href="#mee1e4d8b9f" y="214.326912"/>
     <use style="fill:#ff0000;stroke:#ff0000;" x="314.485747" xlink:href="#mee1e4d8b9f" y="214.326912"/>
     <use style="fill:#ff0000;stroke:#ff0000;" x="315.620903" xlink:href="#mee1e4d8b9f" y="214.326912"/>
     <use style="fill:#ff0000;stroke:#ff0000;" x="316.756058" xlink:href="#mee1e4d8b9f" y="214.326912"/>
     <use style="fill:#ff0000;stroke:#ff0000;" x="317.891214" xlink:href="#mee1e4d8b9f" y="214.326912"/>
     <use style="fill:#ff0000;stroke:#ff0000;" x="319.02637" xlink:href="#mee1e4d8b9f" y="214.326912"/>
     <use style="fill:#ff0000;stroke:#ff0000;" x="320.161526" xlink:href="#mee1e4d8b9f" y="214.326912"/>
     <use style="fill:#ff0000;stroke:#ff0000;" x="321.296682" xlink:href="#mee1e4d8b9f" y="214.326912"/>
     <use style="fill:#ff0000;stroke:#ff0000;" x="322.431837" xlink:href="#mee1e4d8b9f" y="214.326912"/>
     <use style="fill:#ff0000;stroke:#ff0000;" x="323.566993" xlink:href="#mee1e4d8b9f" y="214.326912"/>
     <use style="fill:#ff0000;stroke:#ff0000;" x="324.702149" xlink:href="#mee1e4d8b9f" y="214.326912"/>
     <use style="fill:#ff0000;stroke:#ff0000;" x="325.837305" xlink:href="#mee1e4d8b9f" y="214.326912"/>
     <use style="fill:#ff0000;stroke:#ff0000;" x="326.97246" xlink:href="#mee1e4d8b9f" y="214.326912"/>
     <use style="fill:#ff0000;stroke:#ff0000;" x="328.107616" xlink:href="#mee1e4d8b9f" y="214.326912"/>
     <use style="fill:#ff0000;stroke:#ff0000;" x="329.242772" xlink:href="#mee1e4d8b9f" y="214.326912"/>
     <use style="fill:#ff0000;stroke:#ff0000;" x="330.377928" xlink:href="#mee1e4d8b9f" y="214.326912"/>
     <use style="fill:#ff0000;stroke:#ff0000;" x="331.513083" xlink:href="#mee1e4d8b9f" y="214.326912"/>
     <use style="fill:#ff0000;stroke:#ff0000;" x="332.648239" xlink:href="#mee1e4d8b9f" y="214.326912"/>
     <use style="fill:#ff0000;stroke:#ff0000;" x="333.783395" xlink:href="#mee1e4d8b9f" y="214.326912"/>
     <use style="fill:#ff0000;stroke:#ff0000;" x="334.918551" xlink:href="#mee1e4d8b9f" y="214.326912"/>
     <use style="fill:#ff0000;stroke:#ff0000;" x="336.053706" xlink:href="#mee1e4d8b9f" y="214.326912"/>
     <use style="fill:#ff0000;stroke:#ff0000;" x="337.188862" xlink:href="#mee1e4d8b9f" y="214.326912"/>
     <use style="fill:#ff0000;stroke:#ff0000;" x="338.324018" xlink:href="#mee1e4d8b9f" y="214.326912"/>
     <use style="fill:#ff0000;stroke:#ff0000;" x="339.459174" xlink:href="#mee1e4d8b9f" y="214.326912"/>
     <use style="fill:#ff0000;stroke:#ff0000;" x="340.594329" xlink:href="#mee1e4d8b9f" y="214.326912"/>
     <use style="fill:#ff0000;stroke:#ff0000;" x="341.729485" xlink:href="#mee1e4d8b9f" y="214.326912"/>
     <use style="fill:#ff0000;stroke:#ff0000;" x="342.864641" xlink:href="#mee1e4d8b9f" y="214.326912"/>
     <use style="fill:#ff0000;stroke:#ff0000;" x="343.999797" xlink:href="#mee1e4d8b9f" y="214.326912"/>
     <use style="fill:#ff0000;stroke:#ff0000;" x="345.134952" xlink:href="#mee1e4d8b9f" y="214.326912"/>
     <use style="fill:#ff0000;stroke:#ff0000;" x="346.270108" xlink:href="#mee1e4d8b9f" y="214.326912"/>
     <use style="fill:#ff0000;stroke:#ff0000;" x="347.405264" xlink:href="#mee1e4d8b9f" y="214.326912"/>
     <use style="fill:#ff0000;stroke:#ff0000;" x="348.54042" xlink:href="#mee1e4d8b9f" y="214.326912"/>
     <use style="fill:#ff0000;stroke:#ff0000;" x="349.675575" xlink:href="#mee1e4d8b9f" y="214.326912"/>
     <use style="fill:#ff0000;stroke:#ff0000;" x="350.810731" xlink:href="#mee1e4d8b9f" y="214.326912"/>
     <use style="fill:#ff0000;stroke:#ff0000;" x="351.945887" xlink:href="#mee1e4d8b9f" y="214.326912"/>
     <use style="fill:#ff0000;stroke:#ff0000;" x="353.081043" xlink:href="#mee1e4d8b9f" y="214.326912"/>
     <use style="fill:#ff0000;stroke:#ff0000;" x="354.216198" xlink:href="#mee1e4d8b9f" y="214.326912"/>
     <use style="fill:#ff0000;stroke:#ff0000;" x="355.351354" xlink:href="#mee1e4d8b9f" y="214.326912"/>
     <use style="fill:#ff0000;stroke:#ff0000;" x="356.48651" xlink:href="#mee1e4d8b9f" y="214.326912"/>
     <use style="fill:#ff0000;stroke:#ff0000;" x="357.621666" xlink:href="#mee1e4d8b9f" y="214.326912"/>
     <use style="fill:#ff0000;stroke:#ff0000;" x="358.756821" xlink:href="#mee1e4d8b9f" y="214.326912"/>
     <use style="fill:#ff0000;stroke:#ff0000;" x="359.891977" xlink:href="#mee1e4d8b9f" y="214.326912"/>
     <use style="fill:#ff0000;stroke:#ff0000;" x="361.027133" xlink:href="#mee1e4d8b9f" y="214.326912"/>
     <use style="fill:#ff0000;stroke:#ff0000;" x="362.162289" xlink:href="#mee1e4d8b9f" y="214.326912"/>
     <use style="fill:#ff0000;stroke:#ff0000;" x="363.297444" xlink:href="#mee1e4d8b9f" y="214.326912"/>
     <use style="fill:#ff0000;stroke:#ff0000;" x="364.4326" xlink:href="#mee1e4d8b9f" y="214.326912"/>
     <use style="fill:#ff0000;stroke:#ff0000;" x="365.567756" xlink:href="#mee1e4d8b9f" y="214.326912"/>
     <use style="fill:#ff0000;stroke:#ff0000;" x="366.702912" xlink:href="#mee1e4d8b9f" y="214.326912"/>
     <use style="fill:#ff0000;stroke:#ff0000;" x="367.838067" xlink:href="#mee1e4d8b9f" y="214.326912"/>
     <use style="fill:#ff0000;stroke:#ff0000;" x="368.973223" xlink:href="#mee1e4d8b9f" y="214.326912"/>
     <use style="fill:#ff0000;stroke:#ff0000;" x="370.108379" xlink:href="#mee1e4d8b9f" y="214.326912"/>
     <use style="fill:#ff0000;stroke:#ff0000;" x="371.243535" xlink:href="#mee1e4d8b9f" y="214.326912"/>
     <use style="fill:#ff0000;stroke:#ff0000;" x="372.37869" xlink:href="#mee1e4d8b9f" y="214.326912"/>
     <use style="fill:#ff0000;stroke:#ff0000;" x="373.513846" xlink:href="#mee1e4d8b9f" y="214.326912"/>
     <use style="fill:#ff0000;stroke:#ff0000;" x="374.649002" xlink:href="#mee1e4d8b9f" y="214.326912"/>
     <use style="fill:#ff0000;stroke:#ff0000;" x="375.784158" xlink:href="#mee1e4d8b9f" y="214.326912"/>
     <use style="fill:#ff0000;stroke:#ff0000;" x="376.919313" xlink:href="#mee1e4d8b9f" y="214.326912"/>
     <use style="fill:#ff0000;stroke:#ff0000;" x="378.054469" xlink:href="#mee1e4d8b9f" y="214.326912"/>
     <use style="fill:#ff0000;stroke:#ff0000;" x="379.189625" xlink:href="#mee1e4d8b9f" y="214.326912"/>
     <use style="fill:#ff0000;stroke:#ff0000;" x="380.324781" xlink:href="#mee1e4d8b9f" y="214.326912"/>
     <use style="fill:#ff0000;stroke:#ff0000;" x="381.459936" xlink:href="#mee1e4d8b9f" y="214.326912"/>
     <use style="fill:#ff0000;stroke:#ff0000;" x="382.595092" xlink:href="#mee1e4d8b9f" y="214.326912"/>
     <use style="fill:#ff0000;stroke:#ff0000;" x="383.730248" xlink:href="#mee1e4d8b9f" y="214.326912"/>
     <use style="fill:#ff0000;stroke:#ff0000;" x="384.865404" xlink:href="#mee1e4d8b9f" y="214.326912"/>
     <use style="fill:#ff0000;stroke:#ff0000;" x="386.000559" xlink:href="#mee1e4d8b9f" y="214.326912"/>
     <use style="fill:#ff0000;stroke:#ff0000;" x="387.135715" xlink:href="#mee1e4d8b9f" y="214.326912"/>
     <use style="fill:#ff0000;stroke:#ff0000;" x="388.270871" xlink:href="#mee1e4d8b9f" y="214.326912"/>
     <use style="fill:#ff0000;stroke:#ff0000;" x="389.406027" xlink:href="#mee1e4d8b9f" y="214.326912"/>
     <use style="fill:#ff0000;stroke:#ff0000;" x="390.541182" xlink:href="#mee1e4d8b9f" y="214.326912"/>
     <use style="fill:#ff0000;stroke:#ff0000;" x="391.676338" xlink:href="#mee1e4d8b9f" y="214.326912"/>
     <use style="fill:#ff0000;stroke:#ff0000;" x="392.811494" xlink:href="#mee1e4d8b9f" y="214.326912"/>
     <use style="fill:#ff0000;stroke:#ff0000;" x="393.94665" xlink:href="#mee1e4d8b9f" y="214.326912"/>
     <use style="fill:#ff0000;stroke:#ff0000;" x="395.081805" xlink:href="#mee1e4d8b9f" y="214.326912"/>
     <use style="fill:#ff0000;stroke:#ff0000;" x="396.216961" xlink:href="#mee1e4d8b9f" y="214.326912"/>
     <use style="fill:#ff0000;stroke:#ff0000;" x="397.352117" xlink:href="#mee1e4d8b9f" y="214.326912"/>
     <use style="fill:#ff0000;stroke:#ff0000;" x="398.487273" xlink:href="#mee1e4d8b9f" y="214.326912"/>
    </g>
   </g>
   <g id="patch_3">
    <path d="M 57.6 307.584 
L 57.6 41.472 
" style="fill:none;stroke:#000000;stroke-linecap:square;stroke-linejoin:miter;stroke-width:0.8;"/>
   </g>
   <g id="patch_4">
    <path d="M 414.72 307.584 
L 414.72 41.472 
" style="fill:none;stroke:#000000;stroke-linecap:square;stroke-linejoin:miter;stroke-width:0.8;"/>
   </g>
   <g id="patch_5">
    <path d="M 57.6 307.584 
L 414.72 307.584 
" style="fill:none;stroke:#000000;stroke-linecap:square;stroke-linejoin:miter;stroke-width:0.8;"/>
   </g>
   <g id="patch_6">
    <path d="M 57.6 41.472 
L 414.72 41.472 
" style="fill:none;stroke:#000000;stroke-linecap:square;stroke-linejoin:miter;stroke-width:0.8;"/>
   </g>
  </g>
 </g>
 <defs>
  <clipPath id="p37fc20bff8">
   <rect height="266.112" width="357.12" x="57.6" y="41.472"/>
  </clipPath>
 </defs>
</svg>
