<?xml version="1.0" encoding="utf-8" standalone="no"?>
<!DOCTYPE svg PUBLIC "-//W3C//DTD SVG 1.1//EN"
  "http://www.w3.org/Graphics/SVG/1.1/DTD/svg11.dtd">
<!-- Created with matplotlib (https://matplotlib.org/) -->
<svg height="345.6pt" version="1.1" viewBox="0 0 460.8 345.6" width="460.8pt" xmlns="http://www.w3.org/2000/svg" xmlns:xlink="http://www.w3.org/1999/xlink">
 <defs>
  <style type="text/css">
*{stroke-linecap:butt;stroke-linejoin:round;}
  </style>
 </defs>
 <g id="figure_1">
  <g id="patch_1">
   <path d="M 0 345.6 
L 460.8 345.6 
L 460.8 0 
L 0 0 
z
" style="fill:#ffffff;"/>
  </g>
  <g id="axes_1">
   <g id="patch_2">
    <path d="M 57.6 307.584 
L 414.72 307.584 
L 414.72 41.472 
L 57.6 41.472 
z
" style="fill:#ffffff;"/>
   </g>
   <g id="line2d_1">
    <path clip-path="url(#p85367d8cca)" d="M 73.832727 207.873812 
L 75.202578 256.061977 
L 83.42168 256.061977 
L 84.79153 245.229812 
L 86.161381 245.229812 
L 87.531231 251.249463 
L 88.901082 251.249463 
L 90.270932 295.488 
L 91.640783 248.356895 
L 94.380483 248.356895 
L 95.750334 199.336014 
L 97.120184 187.847765 
L 102.599586 187.847765 
L 103.969436 144.386977 
L 105.339287 144.386977 
L 106.709137 93.656265 
L 108.078987 93.656265 
L 109.448838 110.978728 
L 110.818688 95.316873 
L 114.928239 95.316873 
L 116.29809 80.362718 
L 119.037791 80.362718 
L 120.407641 97.018543 
L 121.777491 97.018543 
L 124.517192 68.459192 
L 125.887043 68.459192 
L 127.256893 53.568 
L 128.626743 53.568 
L 129.996594 70.943415 
L 131.366444 70.943415 
L 132.736295 56.151277 
L 134.106145 56.151277 
L 136.845846 90.028365 
L 139.585547 90.028365 
L 140.955397 75.174326 
L 142.325247 75.174326 
L 143.695098 59.165674 
L 147.804649 59.165674 
L 149.174499 76.780944 
L 150.54435 76.780944 
L 151.9142 93.311546 
L 153.284051 93.311546 
L 154.653901 108.924266 
L 157.393602 108.924266 
L 158.763452 94.543589 
L 160.133303 94.543589 
L 162.873003 127.813725 
L 166.982555 127.813725 
L 168.352405 111.643616 
L 169.722255 111.643616 
L 171.092106 97.725699 
L 172.461956 97.725699 
L 173.831807 113.898247 
L 176.571507 113.898247 
L 177.941358 129.931926 
L 179.311208 129.931926 
L 180.681059 146.156732 
L 182.050909 146.156732 
L 183.420759 149.984838 
L 188.900161 149.984838 
L 190.270012 167.387268 
L 191.639862 167.387268 
L 193.009712 150.536679 
L 194.379563 150.536679 
L 195.749413 166.182514 
L 198.489114 166.182514 
L 199.858964 148.950885 
L 201.228815 148.950885 
L 202.598665 134.481031 
L 203.968516 134.481031 
L 205.338366 118.256134 
L 206.708216 133.845283 
L 208.078067 133.845283 
L 209.447917 117.142315 
L 210.817768 117.142315 
L 212.187618 136.306606 
L 213.557468 136.306606 
L 214.927319 154.510223 
L 216.297169 156.882445 
L 217.66702 156.882445 
L 219.03687 174.227226 
L 220.40672 174.227226 
L 221.776571 157.822223 
L 223.146421 157.822223 
L 224.516272 141.567245 
L 225.886122 141.567245 
L 227.255972 125.450305 
L 238.214776 125.450305 
L 239.584626 142.236368 
L 240.954476 146.764062 
L 243.694177 146.764062 
L 245.064028 147.362528 
L 246.433878 147.362528 
L 247.803728 164.768599 
L 249.173579 164.768599 
L 250.543429 149.843433 
L 251.91328 165.389866 
L 253.28313 165.389866 
L 254.65298 182.569135 
L 257.392681 182.569135 
L 258.762532 186.995527 
L 260.132382 186.995527 
L 261.502232 202.786387 
L 262.872083 202.786387 
L 264.241933 220.156747 
L 265.611784 220.156747 
L 268.351484 191.492738 
L 269.721335 191.492738 
L 271.091185 187.945838 
L 272.461036 187.945838 
L 273.830886 171.079457 
L 277.940437 171.079457 
L 279.310288 153.388379 
L 280.680138 152.826609 
L 282.049988 152.826609 
L 283.419839 152.272915 
L 284.789689 152.272915 
L 286.15954 133.507684 
L 287.52939 151.537352 
L 290.269091 151.537352 
L 291.638941 166.246657 
L 294.378642 166.246657 
L 295.748493 182.393885 
L 297.118343 182.393885 
L 298.488193 168.0719 
L 299.858044 170.695117 
L 301.227894 170.695117 
L 302.597745 186.950511 
L 305.337445 186.950511 
L 306.707296 170.078534 
L 308.077146 185.492283 
L 309.446997 185.492283 
L 310.816847 200.797409 
L 314.926398 200.797409 
L 316.296249 184.378136 
L 317.666099 184.378136 
L 319.035949 200.986103 
L 320.4058 200.986103 
L 321.77565 184.053496 
L 323.145501 184.053496 
L 324.515351 198.495525 
L 325.885201 198.495525 
L 327.255052 214.326912 
L 398.487273 214.326912 
L 398.487273 214.326912 
" style="fill:none;stroke:#ff0000;stroke-linecap:square;stroke-width:12;"/>
    <defs>
     <path d="M 0 3 
C 0.795609 3 1.55874 2.683901 2.12132 2.12132 
C 2.683901 1.55874 3 0.795609 3 0 
C 3 -0.795609 2.683901 -1.55874 2.12132 -2.12132 
C 1.55874 -2.683901 0.795609 -3 0 -3 
C -0.795609 -3 -1.55874 -2.683901 -2.12132 -2.12132 
C -2.683901 -1.55874 -3 -0.795609 -3 0 
C -3 0.795609 -2.683901 1.55874 -2.12132 2.12132 
C -1.55874 2.683901 -0.795609 3 0 3 
z
" id="m9a26b4e30c" style="stroke:#ff0000;"/>
    </defs>
    <g clip-path="url(#p85367d8cca)">
     <use style="fill:#ff0000;stroke:#ff0000;" x="73.832727" xlink:href="#m9a26b4e30c" y="207.873812"/>
     <use style="fill:#ff0000;stroke:#ff0000;" x="75.202578" xlink:href="#m9a26b4e30c" y="256.061977"/>
     <use style="fill:#ff0000;stroke:#ff0000;" x="76.572428" xlink:href="#m9a26b4e30c" y="256.061977"/>
     <use style="fill:#ff0000;stroke:#ff0000;" x="77.942278" xlink:href="#m9a26b4e30c" y="256.061977"/>
     <use style="fill:#ff0000;stroke:#ff0000;" x="79.312129" xlink:href="#m9a26b4e30c" y="256.061977"/>
     <use style="fill:#ff0000;stroke:#ff0000;" x="80.681979" xlink:href="#m9a26b4e30c" y="256.061977"/>
     <use style="fill:#ff0000;stroke:#ff0000;" x="82.05183" xlink:href="#m9a26b4e30c" y="256.061977"/>
     <use style="fill:#ff0000;stroke:#ff0000;" x="83.42168" xlink:href="#m9a26b4e30c" y="256.061977"/>
     <use style="fill:#ff0000;stroke:#ff0000;" x="84.79153" xlink:href="#m9a26b4e30c" y="245.229812"/>
     <use style="fill:#ff0000;stroke:#ff0000;" x="86.161381" xlink:href="#m9a26b4e30c" y="245.229812"/>
     <use style="fill:#ff0000;stroke:#ff0000;" x="87.531231" xlink:href="#m9a26b4e30c" y="251.249463"/>
     <use style="fill:#ff0000;stroke:#ff0000;" x="88.901082" xlink:href="#m9a26b4e30c" y="251.249463"/>
     <use style="fill:#ff0000;stroke:#ff0000;" x="90.270932" xlink:href="#m9a26b4e30c" y="295.488"/>
     <use style="fill:#ff0000;stroke:#ff0000;" x="91.640783" xlink:href="#m9a26b4e30c" y="248.356895"/>
     <use style="fill:#ff0000;stroke:#ff0000;" x="93.010633" xlink:href="#m9a26b4e30c" y="248.356895"/>
     <use style="fill:#ff0000;stroke:#ff0000;" x="94.380483" xlink:href="#m9a26b4e30c" y="248.356895"/>
     <use style="fill:#ff0000;stroke:#ff0000;" x="95.750334" xlink:href="#m9a26b4e30c" y="199.336014"/>
     <use style="fill:#ff0000;stroke:#ff0000;" x="97.120184" xlink:href="#m9a26b4e30c" y="187.847765"/>
     <use style="fill:#ff0000;stroke:#ff0000;" x="98.490035" xlink:href="#m9a26b4e30c" y="187.847765"/>
     <use style="fill:#ff0000;stroke:#ff0000;" x="99.859885" xlink:href="#m9a26b4e30c" y="187.847765"/>
     <use style="fill:#ff0000;stroke:#ff0000;" x="101.229735" xlink:href="#m9a26b4e30c" y="187.847765"/>
     <use style="fill:#ff0000;stroke:#ff0000;" x="102.599586" xlink:href="#m9a26b4e30c" y="187.847765"/>
     <use style="fill:#ff0000;stroke:#ff0000;" x="103.969436" xlink:href="#m9a26b4e30c" y="144.386977"/>
     <use style="fill:#ff0000;stroke:#ff0000;" x="105.339287" xlink:href="#m9a26b4e30c" y="144.386977"/>
     <use style="fill:#ff0000;stroke:#ff0000;" x="106.709137" xlink:href="#m9a26b4e30c" y="93.656265"/>
     <use style="fill:#ff0000;stroke:#ff0000;" x="108.078987" xlink:href="#m9a26b4e30c" y="93.656265"/>
     <use style="fill:#ff0000;stroke:#ff0000;" x="109.448838" xlink:href="#m9a26b4e30c" y="110.978728"/>
     <use style="fill:#ff0000;stroke:#ff0000;" x="110.818688" xlink:href="#m9a26b4e30c" y="95.316873"/>
     <use style="fill:#ff0000;stroke:#ff0000;" x="112.188539" xlink:href="#m9a26b4e30c" y="95.316873"/>
     <use style="fill:#ff0000;stroke:#ff0000;" x="113.558389" xlink:href="#m9a26b4e30c" y="95.316873"/>
     <use style="fill:#ff0000;stroke:#ff0000;" x="114.928239" xlink:href="#m9a26b4e30c" y="95.316873"/>
     <use style="fill:#ff0000;stroke:#ff0000;" x="116.29809" xlink:href="#m9a26b4e30c" y="80.362718"/>
     <use style="fill:#ff0000;stroke:#ff0000;" x="117.66794" xlink:href="#m9a26b4e30c" y="80.362718"/>
     <use style="fill:#ff0000;stroke:#ff0000;" x="119.037791" xlink:href="#m9a26b4e30c" y="80.362718"/>
     <use style="fill:#ff0000;stroke:#ff0000;" x="120.407641" xlink:href="#m9a26b4e30c" y="97.018543"/>
     <use style="fill:#ff0000;stroke:#ff0000;" x="121.777491" xlink:href="#m9a26b4e30c" y="97.018543"/>
     <use style="fill:#ff0000;stroke:#ff0000;" x="123.147342" xlink:href="#m9a26b4e30c" y="83.228386"/>
     <use style="fill:#ff0000;stroke:#ff0000;" x="124.517192" xlink:href="#m9a26b4e30c" y="68.459192"/>
     <use style="fill:#ff0000;stroke:#ff0000;" x="125.887043" xlink:href="#m9a26b4e30c" y="68.459192"/>
     <use style="fill:#ff0000;stroke:#ff0000;" x="127.256893" xlink:href="#m9a26b4e30c" y="53.568"/>
     <use style="fill:#ff0000;stroke:#ff0000;" x="128.626743" xlink:href="#m9a26b4e30c" y="53.568"/>
     <use style="fill:#ff0000;stroke:#ff0000;" x="129.996594" xlink:href="#m9a26b4e30c" y="70.943415"/>
     <use style="fill:#ff0000;stroke:#ff0000;" x="131.366444" xlink:href="#m9a26b4e30c" y="70.943415"/>
     <use style="fill:#ff0000;stroke:#ff0000;" x="132.736295" xlink:href="#m9a26b4e30c" y="56.151277"/>
     <use style="fill:#ff0000;stroke:#ff0000;" x="134.106145" xlink:href="#m9a26b4e30c" y="56.151277"/>
     <use style="fill:#ff0000;stroke:#ff0000;" x="135.475995" xlink:href="#m9a26b4e30c" y="72.718497"/>
     <use style="fill:#ff0000;stroke:#ff0000;" x="136.845846" xlink:href="#m9a26b4e30c" y="90.028365"/>
     <use style="fill:#ff0000;stroke:#ff0000;" x="138.215696" xlink:href="#m9a26b4e30c" y="90.028365"/>
     <use style="fill:#ff0000;stroke:#ff0000;" x="139.585547" xlink:href="#m9a26b4e30c" y="90.028365"/>
     <use style="fill:#ff0000;stroke:#ff0000;" x="140.955397" xlink:href="#m9a26b4e30c" y="75.174326"/>
     <use style="fill:#ff0000;stroke:#ff0000;" x="142.325247" xlink:href="#m9a26b4e30c" y="75.174326"/>
     <use style="fill:#ff0000;stroke:#ff0000;" x="143.695098" xlink:href="#m9a26b4e30c" y="59.165674"/>
     <use style="fill:#ff0000;stroke:#ff0000;" x="145.064948" xlink:href="#m9a26b4e30c" y="59.165674"/>
     <use style="fill:#ff0000;stroke:#ff0000;" x="146.434799" xlink:href="#m9a26b4e30c" y="59.165674"/>
     <use style="fill:#ff0000;stroke:#ff0000;" x="147.804649" xlink:href="#m9a26b4e30c" y="59.165674"/>
     <use style="fill:#ff0000;stroke:#ff0000;" x="149.174499" xlink:href="#m9a26b4e30c" y="76.780944"/>
     <use style="fill:#ff0000;stroke:#ff0000;" x="150.54435" xlink:href="#m9a26b4e30c" y="76.780944"/>
     <use style="fill:#ff0000;stroke:#ff0000;" x="151.9142" xlink:href="#m9a26b4e30c" y="93.311546"/>
     <use style="fill:#ff0000;stroke:#ff0000;" x="153.284051" xlink:href="#m9a26b4e30c" y="93.311546"/>
     <use style="fill:#ff0000;stroke:#ff0000;" x="154.653901" xlink:href="#m9a26b4e30c" y="108.924266"/>
     <use style="fill:#ff0000;stroke:#ff0000;" x="156.023751" xlink:href="#m9a26b4e30c" y="108.924266"/>
     <use style="fill:#ff0000;stroke:#ff0000;" x="157.393602" xlink:href="#m9a26b4e30c" y="108.924266"/>
     <use style="fill:#ff0000;stroke:#ff0000;" x="158.763452" xlink:href="#m9a26b4e30c" y="94.543589"/>
     <use style="fill:#ff0000;stroke:#ff0000;" x="160.133303" xlink:href="#m9a26b4e30c" y="94.543589"/>
     <use style="fill:#ff0000;stroke:#ff0000;" x="161.503153" xlink:href="#m9a26b4e30c" y="110.869924"/>
     <use style="fill:#ff0000;stroke:#ff0000;" x="162.873003" xlink:href="#m9a26b4e30c" y="127.813725"/>
     <use style="fill:#ff0000;stroke:#ff0000;" x="164.242854" xlink:href="#m9a26b4e30c" y="127.813725"/>
     <use style="fill:#ff0000;stroke:#ff0000;" x="165.612704" xlink:href="#m9a26b4e30c" y="127.813725"/>
     <use style="fill:#ff0000;stroke:#ff0000;" x="166.982555" xlink:href="#m9a26b4e30c" y="127.813725"/>
     <use style="fill:#ff0000;stroke:#ff0000;" x="168.352405" xlink:href="#m9a26b4e30c" y="111.643616"/>
     <use style="fill:#ff0000;stroke:#ff0000;" x="169.722255" xlink:href="#m9a26b4e30c" y="111.643616"/>
     <use style="fill:#ff0000;stroke:#ff0000;" x="171.092106" xlink:href="#m9a26b4e30c" y="97.725699"/>
     <use style="fill:#ff0000;stroke:#ff0000;" x="172.461956" xlink:href="#m9a26b4e30c" y="97.725699"/>
     <use style="fill:#ff0000;stroke:#ff0000;" x="173.831807" xlink:href="#m9a26b4e30c" y="113.898247"/>
     <use style="fill:#ff0000;stroke:#ff0000;" x="175.201657" xlink:href="#m9a26b4e30c" y="113.898247"/>
     <use style="fill:#ff0000;stroke:#ff0000;" x="176.571507" xlink:href="#m9a26b4e30c" y="113.898247"/>
     <use style="fill:#ff0000;stroke:#ff0000;" x="177.941358" xlink:href="#m9a26b4e30c" y="129.931926"/>
     <use style="fill:#ff0000;stroke:#ff0000;" x="179.311208" xlink:href="#m9a26b4e30c" y="129.931926"/>
     <use style="fill:#ff0000;stroke:#ff0000;" x="180.681059" xlink:href="#m9a26b4e30c" y="146.156732"/>
     <use style="fill:#ff0000;stroke:#ff0000;" x="182.050909" xlink:href="#m9a26b4e30c" y="146.156732"/>
     <use style="fill:#ff0000;stroke:#ff0000;" x="183.420759" xlink:href="#m9a26b4e30c" y="149.984838"/>
     <use style="fill:#ff0000;stroke:#ff0000;" x="184.79061" xlink:href="#m9a26b4e30c" y="149.984838"/>
     <use style="fill:#ff0000;stroke:#ff0000;" x="186.16046" xlink:href="#m9a26b4e30c" y="149.984838"/>
     <use style="fill:#ff0000;stroke:#ff0000;" x="187.530311" xlink:href="#m9a26b4e30c" y="149.984838"/>
     <use style="fill:#ff0000;stroke:#ff0000;" x="188.900161" xlink:href="#m9a26b4e30c" y="149.984838"/>
     <use style="fill:#ff0000;stroke:#ff0000;" x="190.270012" xlink:href="#m9a26b4e30c" y="167.387268"/>
     <use style="fill:#ff0000;stroke:#ff0000;" x="191.639862" xlink:href="#m9a26b4e30c" y="167.387268"/>
     <use style="fill:#ff0000;stroke:#ff0000;" x="193.009712" xlink:href="#m9a26b4e30c" y="150.536679"/>
     <use style="fill:#ff0000;stroke:#ff0000;" x="194.379563" xlink:href="#m9a26b4e30c" y="150.536679"/>
     <use style="fill:#ff0000;stroke:#ff0000;" x="195.749413" xlink:href="#m9a26b4e30c" y="166.182514"/>
     <use style="fill:#ff0000;stroke:#ff0000;" x="197.119264" xlink:href="#m9a26b4e30c" y="166.182514"/>
     <use style="fill:#ff0000;stroke:#ff0000;" x="198.489114" xlink:href="#m9a26b4e30c" y="166.182514"/>
     <use style="fill:#ff0000;stroke:#ff0000;" x="199.858964" xlink:href="#m9a26b4e30c" y="148.950885"/>
     <use style="fill:#ff0000;stroke:#ff0000;" x="201.228815" xlink:href="#m9a26b4e30c" y="148.950885"/>
     <use style="fill:#ff0000;stroke:#ff0000;" x="202.598665" xlink:href="#m9a26b4e30c" y="134.481031"/>
     <use style="fill:#ff0000;stroke:#ff0000;" x="203.968516" xlink:href="#m9a26b4e30c" y="134.481031"/>
     <use style="fill:#ff0000;stroke:#ff0000;" x="205.338366" xlink:href="#m9a26b4e30c" y="118.256134"/>
     <use style="fill:#ff0000;stroke:#ff0000;" x="206.708216" xlink:href="#m9a26b4e30c" y="133.845283"/>
     <use style="fill:#ff0000;stroke:#ff0000;" x="208.078067" xlink:href="#m9a26b4e30c" y="133.845283"/>
     <use style="fill:#ff0000;stroke:#ff0000;" x="209.447917" xlink:href="#m9a26b4e30c" y="117.142315"/>
     <use style="fill:#ff0000;stroke:#ff0000;" x="210.817768" xlink:href="#m9a26b4e30c" y="117.142315"/>
     <use style="fill:#ff0000;stroke:#ff0000;" x="212.187618" xlink:href="#m9a26b4e30c" y="136.306606"/>
     <use style="fill:#ff0000;stroke:#ff0000;" x="213.557468" xlink:href="#m9a26b4e30c" y="136.306606"/>
     <use style="fill:#ff0000;stroke:#ff0000;" x="214.927319" xlink:href="#m9a26b4e30c" y="154.510223"/>
     <use style="fill:#ff0000;stroke:#ff0000;" x="216.297169" xlink:href="#m9a26b4e30c" y="156.882445"/>
     <use style="fill:#ff0000;stroke:#ff0000;" x="217.66702" xlink:href="#m9a26b4e30c" y="156.882445"/>
     <use style="fill:#ff0000;stroke:#ff0000;" x="219.03687" xlink:href="#m9a26b4e30c" y="174.227226"/>
     <use style="fill:#ff0000;stroke:#ff0000;" x="220.40672" xlink:href="#m9a26b4e30c" y="174.227226"/>
     <use style="fill:#ff0000;stroke:#ff0000;" x="221.776571" xlink:href="#m9a26b4e30c" y="157.822223"/>
     <use style="fill:#ff0000;stroke:#ff0000;" x="223.146421" xlink:href="#m9a26b4e30c" y="157.822223"/>
     <use style="fill:#ff0000;stroke:#ff0000;" x="224.516272" xlink:href="#m9a26b4e30c" y="141.567245"/>
     <use style="fill:#ff0000;stroke:#ff0000;" x="225.886122" xlink:href="#m9a26b4e30c" y="141.567245"/>
     <use style="fill:#ff0000;stroke:#ff0000;" x="227.255972" xlink:href="#m9a26b4e30c" y="125.450305"/>
     <use style="fill:#ff0000;stroke:#ff0000;" x="228.625823" xlink:href="#m9a26b4e30c" y="125.450305"/>
     <use style="fill:#ff0000;stroke:#ff0000;" x="229.995673" xlink:href="#m9a26b4e30c" y="125.450305"/>
     <use style="fill:#ff0000;stroke:#ff0000;" x="231.365524" xlink:href="#m9a26b4e30c" y="125.450305"/>
     <use style="fill:#ff0000;stroke:#ff0000;" x="232.735374" xlink:href="#m9a26b4e30c" y="125.450305"/>
     <use style="fill:#ff0000;stroke:#ff0000;" x="234.105224" xlink:href="#m9a26b4e30c" y="125.450305"/>
     <use style="fill:#ff0000;stroke:#ff0000;" x="235.475075" xlink:href="#m9a26b4e30c" y="125.450305"/>
     <use style="fill:#ff0000;stroke:#ff0000;" x="236.844925" xlink:href="#m9a26b4e30c" y="125.450305"/>
     <use style="fill:#ff0000;stroke:#ff0000;" x="238.214776" xlink:href="#m9a26b4e30c" y="125.450305"/>
     <use style="fill:#ff0000;stroke:#ff0000;" x="239.584626" xlink:href="#m9a26b4e30c" y="142.236368"/>
     <use style="fill:#ff0000;stroke:#ff0000;" x="240.954476" xlink:href="#m9a26b4e30c" y="146.764062"/>
     <use style="fill:#ff0000;stroke:#ff0000;" x="242.324327" xlink:href="#m9a26b4e30c" y="146.764062"/>
     <use style="fill:#ff0000;stroke:#ff0000;" x="243.694177" xlink:href="#m9a26b4e30c" y="146.764062"/>
     <use style="fill:#ff0000;stroke:#ff0000;" x="245.064028" xlink:href="#m9a26b4e30c" y="147.362528"/>
     <use style="fill:#ff0000;stroke:#ff0000;" x="246.433878" xlink:href="#m9a26b4e30c" y="147.362528"/>
     <use style="fill:#ff0000;stroke:#ff0000;" x="247.803728" xlink:href="#m9a26b4e30c" y="164.768599"/>
     <use style="fill:#ff0000;stroke:#ff0000;" x="249.173579" xlink:href="#m9a26b4e30c" y="164.768599"/>
     <use style="fill:#ff0000;stroke:#ff0000;" x="250.543429" xlink:href="#m9a26b4e30c" y="149.843433"/>
     <use style="fill:#ff0000;stroke:#ff0000;" x="251.91328" xlink:href="#m9a26b4e30c" y="165.389866"/>
     <use style="fill:#ff0000;stroke:#ff0000;" x="253.28313" xlink:href="#m9a26b4e30c" y="165.389866"/>
     <use style="fill:#ff0000;stroke:#ff0000;" x="254.65298" xlink:href="#m9a26b4e30c" y="182.569135"/>
     <use style="fill:#ff0000;stroke:#ff0000;" x="256.022831" xlink:href="#m9a26b4e30c" y="182.569135"/>
     <use style="fill:#ff0000;stroke:#ff0000;" x="257.392681" xlink:href="#m9a26b4e30c" y="182.569135"/>
     <use style="fill:#ff0000;stroke:#ff0000;" x="258.762532" xlink:href="#m9a26b4e30c" y="186.995527"/>
     <use style="fill:#ff0000;stroke:#ff0000;" x="260.132382" xlink:href="#m9a26b4e30c" y="186.995527"/>
     <use style="fill:#ff0000;stroke:#ff0000;" x="261.502232" xlink:href="#m9a26b4e30c" y="202.786387"/>
     <use style="fill:#ff0000;stroke:#ff0000;" x="262.872083" xlink:href="#m9a26b4e30c" y="202.786387"/>
     <use style="fill:#ff0000;stroke:#ff0000;" x="264.241933" xlink:href="#m9a26b4e30c" y="220.156747"/>
     <use style="fill:#ff0000;stroke:#ff0000;" x="265.611784" xlink:href="#m9a26b4e30c" y="220.156747"/>
     <use style="fill:#ff0000;stroke:#ff0000;" x="266.981634" xlink:href="#m9a26b4e30c" y="205.263368"/>
     <use style="fill:#ff0000;stroke:#ff0000;" x="268.351484" xlink:href="#m9a26b4e30c" y="191.492738"/>
     <use style="fill:#ff0000;stroke:#ff0000;" x="269.721335" xlink:href="#m9a26b4e30c" y="191.492738"/>
     <use style="fill:#ff0000;stroke:#ff0000;" x="271.091185" xlink:href="#m9a26b4e30c" y="187.945838"/>
     <use style="fill:#ff0000;stroke:#ff0000;" x="272.461036" xlink:href="#m9a26b4e30c" y="187.945838"/>
     <use style="fill:#ff0000;stroke:#ff0000;" x="273.830886" xlink:href="#m9a26b4e30c" y="171.079457"/>
     <use style="fill:#ff0000;stroke:#ff0000;" x="275.200736" xlink:href="#m9a26b4e30c" y="171.079457"/>
     <use style="fill:#ff0000;stroke:#ff0000;" x="276.570587" xlink:href="#m9a26b4e30c" y="171.079457"/>
     <use style="fill:#ff0000;stroke:#ff0000;" x="277.940437" xlink:href="#m9a26b4e30c" y="171.079457"/>
     <use style="fill:#ff0000;stroke:#ff0000;" x="279.310288" xlink:href="#m9a26b4e30c" y="153.388379"/>
     <use style="fill:#ff0000;stroke:#ff0000;" x="280.680138" xlink:href="#m9a26b4e30c" y="152.826609"/>
     <use style="fill:#ff0000;stroke:#ff0000;" x="282.049988" xlink:href="#m9a26b4e30c" y="152.826609"/>
     <use style="fill:#ff0000;stroke:#ff0000;" x="283.419839" xlink:href="#m9a26b4e30c" y="152.272915"/>
     <use style="fill:#ff0000;stroke:#ff0000;" x="284.789689" xlink:href="#m9a26b4e30c" y="152.272915"/>
     <use style="fill:#ff0000;stroke:#ff0000;" x="286.15954" xlink:href="#m9a26b4e30c" y="133.507684"/>
     <use style="fill:#ff0000;stroke:#ff0000;" x="287.52939" xlink:href="#m9a26b4e30c" y="151.537352"/>
     <use style="fill:#ff0000;stroke:#ff0000;" x="288.899241" xlink:href="#m9a26b4e30c" y="151.537352"/>
     <use style="fill:#ff0000;stroke:#ff0000;" x="290.269091" xlink:href="#m9a26b4e30c" y="151.537352"/>
     <use style="fill:#ff0000;stroke:#ff0000;" x="291.638941" xlink:href="#m9a26b4e30c" y="166.246657"/>
     <use style="fill:#ff0000;stroke:#ff0000;" x="293.008792" xlink:href="#m9a26b4e30c" y="166.246657"/>
     <use style="fill:#ff0000;stroke:#ff0000;" x="294.378642" xlink:href="#m9a26b4e30c" y="166.246657"/>
     <use style="fill:#ff0000;stroke:#ff0000;" x="295.748493" xlink:href="#m9a26b4e30c" y="182.393885"/>
     <use style="fill:#ff0000;stroke:#ff0000;" x="297.118343" xlink:href="#m9a26b4e30c" y="182.393885"/>
     <use style="fill:#ff0000;stroke:#ff0000;" x="298.488193" xlink:href="#m9a26b4e30c" y="168.0719"/>
     <use style="fill:#ff0000;stroke:#ff0000;" x="299.858044" xlink:href="#m9a26b4e30c" y="170.695117"/>
     <use style="fill:#ff0000;stroke:#ff0000;" x="301.227894" xlink:href="#m9a26b4e30c" y="170.695117"/>
     <use style="fill:#ff0000;stroke:#ff0000;" x="302.597745" xlink:href="#m9a26b4e30c" y="186.950511"/>
     <use style="fill:#ff0000;stroke:#ff0000;" x="303.967595" xlink:href="#m9a26b4e30c" y="186.950511"/>
     <use style="fill:#ff0000;stroke:#ff0000;" x="305.337445" xlink:href="#m9a26b4e30c" y="186.950511"/>
     <use style="fill:#ff0000;stroke:#ff0000;" x="306.707296" xlink:href="#m9a26b4e30c" y="170.078534"/>
     <use style="fill:#ff0000;stroke:#ff0000;" x="308.077146" xlink:href="#m9a26b4e30c" y="185.492283"/>
     <use style="fill:#ff0000;stroke:#ff0000;" x="309.446997" xlink:href="#m9a26b4e30c" y="185.492283"/>
     <use style="fill:#ff0000;stroke:#ff0000;" x="310.816847" xlink:href="#m9a26b4e30c" y="200.797409"/>
     <use style="fill:#ff0000;stroke:#ff0000;" x="312.186697" xlink:href="#m9a26b4e30c" y="200.797409"/>
     <use style="fill:#ff0000;stroke:#ff0000;" x="313.556548" xlink:href="#m9a26b4e30c" y="200.797409"/>
     <use style="fill:#ff0000;stroke:#ff0000;" x="314.926398" xlink:href="#m9a26b4e30c" y="200.797409"/>
     <use style="fill:#ff0000;stroke:#ff0000;" x="316.296249" xlink:href="#m9a26b4e30c" y="184.378136"/>
     <use style="fill:#ff0000;stroke:#ff0000;" x="317.666099" xlink:href="#m9a26b4e30c" y="184.378136"/>
     <use style="fill:#ff0000;stroke:#ff0000;" x="319.035949" xlink:href="#m9a26b4e30c" y="200.986103"/>
     <use style="fill:#ff0000;stroke:#ff0000;" x="320.4058" xlink:href="#m9a26b4e30c" y="200.986103"/>
     <use style="fill:#ff0000;stroke:#ff0000;" x="321.77565" xlink:href="#m9a26b4e30c" y="184.053496"/>
     <use style="fill:#ff0000;stroke:#ff0000;" x="323.145501" xlink:href="#m9a26b4e30c" y="184.053496"/>
     <use style="fill:#ff0000;stroke:#ff0000;" x="324.515351" xlink:href="#m9a26b4e30c" y="198.495525"/>
     <use style="fill:#ff0000;stroke:#ff0000;" x="325.885201" xlink:href="#m9a26b4e30c" y="198.495525"/>
     <use style="fill:#ff0000;stroke:#ff0000;" x="327.255052" xlink:href="#m9a26b4e30c" y="214.326912"/>
     <use style="fill:#ff0000;stroke:#ff0000;" x="328.624902" xlink:href="#m9a26b4e30c" y="214.326912"/>
     <use style="fill:#ff0000;stroke:#ff0000;" x="329.994753" xlink:href="#m9a26b4e30c" y="214.326912"/>
     <use style="fill:#ff0000;stroke:#ff0000;" x="331.364603" xlink:href="#m9a26b4e30c" y="214.326912"/>
     <use style="fill:#ff0000;stroke:#ff0000;" x="332.734453" xlink:href="#m9a26b4e30c" y="214.326912"/>
     <use style="fill:#ff0000;stroke:#ff0000;" x="334.104304" xlink:href="#m9a26b4e30c" y="214.326912"/>
     <use style="fill:#ff0000;stroke:#ff0000;" x="335.474154" xlink:href="#m9a26b4e30c" y="214.326912"/>
     <use style="fill:#ff0000;stroke:#ff0000;" x="336.844005" xlink:href="#m9a26b4e30c" y="214.326912"/>
     <use style="fill:#ff0000;stroke:#ff0000;" x="338.213855" xlink:href="#m9a26b4e30c" y="214.326912"/>
     <use style="fill:#ff0000;stroke:#ff0000;" x="339.583705" xlink:href="#m9a26b4e30c" y="214.326912"/>
     <use style="fill:#ff0000;stroke:#ff0000;" x="340.953556" xlink:href="#m9a26b4e30c" y="214.326912"/>
     <use style="fill:#ff0000;stroke:#ff0000;" x="342.323406" xlink:href="#m9a26b4e30c" y="214.326912"/>
     <use style="fill:#ff0000;stroke:#ff0000;" x="343.693257" xlink:href="#m9a26b4e30c" y="214.326912"/>
     <use style="fill:#ff0000;stroke:#ff0000;" x="345.063107" xlink:href="#m9a26b4e30c" y="214.326912"/>
     <use style="fill:#ff0000;stroke:#ff0000;" x="346.432957" xlink:href="#m9a26b4e30c" y="214.326912"/>
     <use style="fill:#ff0000;stroke:#ff0000;" x="347.802808" xlink:href="#m9a26b4e30c" y="214.326912"/>
     <use style="fill:#ff0000;stroke:#ff0000;" x="349.172658" xlink:href="#m9a26b4e30c" y="214.326912"/>
     <use style="fill:#ff0000;stroke:#ff0000;" x="350.542509" xlink:href="#m9a26b4e30c" y="214.326912"/>
     <use style="fill:#ff0000;stroke:#ff0000;" x="351.912359" xlink:href="#m9a26b4e30c" y="214.326912"/>
     <use style="fill:#ff0000;stroke:#ff0000;" x="353.282209" xlink:href="#m9a26b4e30c" y="214.326912"/>
     <use style="fill:#ff0000;stroke:#ff0000;" x="354.65206" xlink:href="#m9a26b4e30c" y="214.326912"/>
     <use style="fill:#ff0000;stroke:#ff0000;" x="356.02191" xlink:href="#m9a26b4e30c" y="214.326912"/>
     <use style="fill:#ff0000;stroke:#ff0000;" x="357.391761" xlink:href="#m9a26b4e30c" y="214.326912"/>
     <use style="fill:#ff0000;stroke:#ff0000;" x="358.761611" xlink:href="#m9a26b4e30c" y="214.326912"/>
     <use style="fill:#ff0000;stroke:#ff0000;" x="360.131461" xlink:href="#m9a26b4e30c" y="214.326912"/>
     <use style="fill:#ff0000;stroke:#ff0000;" x="361.501312" xlink:href="#m9a26b4e30c" y="214.326912"/>
     <use style="fill:#ff0000;stroke:#ff0000;" x="362.871162" xlink:href="#m9a26b4e30c" y="214.326912"/>
     <use style="fill:#ff0000;stroke:#ff0000;" x="364.241013" xlink:href="#m9a26b4e30c" y="214.326912"/>
     <use style="fill:#ff0000;stroke:#ff0000;" x="365.610863" xlink:href="#m9a26b4e30c" y="214.326912"/>
     <use style="fill:#ff0000;stroke:#ff0000;" x="366.980713" xlink:href="#m9a26b4e30c" y="214.326912"/>
     <use style="fill:#ff0000;stroke:#ff0000;" x="368.350564" xlink:href="#m9a26b4e30c" y="214.326912"/>
     <use style="fill:#ff0000;stroke:#ff0000;" x="369.720414" xlink:href="#m9a26b4e30c" y="214.326912"/>
     <use style="fill:#ff0000;stroke:#ff0000;" x="371.090265" xlink:href="#m9a26b4e30c" y="214.326912"/>
     <use style="fill:#ff0000;stroke:#ff0000;" x="372.460115" xlink:href="#m9a26b4e30c" y="214.326912"/>
     <use style="fill:#ff0000;stroke:#ff0000;" x="373.829965" xlink:href="#m9a26b4e30c" y="214.326912"/>
     <use style="fill:#ff0000;stroke:#ff0000;" x="375.199816" xlink:href="#m9a26b4e30c" y="214.326912"/>
     <use style="fill:#ff0000;stroke:#ff0000;" x="376.569666" xlink:href="#m9a26b4e30c" y="214.326912"/>
     <use style="fill:#ff0000;stroke:#ff0000;" x="377.939517" xlink:href="#m9a26b4e30c" y="214.326912"/>
     <use style="fill:#ff0000;stroke:#ff0000;" x="379.309367" xlink:href="#m9a26b4e30c" y="214.326912"/>
     <use style="fill:#ff0000;stroke:#ff0000;" x="380.679217" xlink:href="#m9a26b4e30c" y="214.326912"/>
     <use style="fill:#ff0000;stroke:#ff0000;" x="382.049068" xlink:href="#m9a26b4e30c" y="214.326912"/>
     <use style="fill:#ff0000;stroke:#ff0000;" x="383.418918" xlink:href="#m9a26b4e30c" y="214.326912"/>
     <use style="fill:#ff0000;stroke:#ff0000;" x="384.788769" xlink:href="#m9a26b4e30c" y="214.326912"/>
     <use style="fill:#ff0000;stroke:#ff0000;" x="386.158619" xlink:href="#m9a26b4e30c" y="214.326912"/>
     <use style="fill:#ff0000;stroke:#ff0000;" x="387.52847" xlink:href="#m9a26b4e30c" y="214.326912"/>
     <use style="fill:#ff0000;stroke:#ff0000;" x="388.89832" xlink:href="#m9a26b4e30c" y="214.326912"/>
     <use style="fill:#ff0000;stroke:#ff0000;" x="390.26817" xlink:href="#m9a26b4e30c" y="214.326912"/>
     <use style="fill:#ff0000;stroke:#ff0000;" x="391.638021" xlink:href="#m9a26b4e30c" y="214.326912"/>
     <use style="fill:#ff0000;stroke:#ff0000;" x="393.007871" xlink:href="#m9a26b4e30c" y="214.326912"/>
     <use style="fill:#ff0000;stroke:#ff0000;" x="394.377722" xlink:href="#m9a26b4e30c" y="214.326912"/>
     <use style="fill:#ff0000;stroke:#ff0000;" x="395.747572" xlink:href="#m9a26b4e30c" y="214.326912"/>
     <use style="fill:#ff0000;stroke:#ff0000;" x="397.117422" xlink:href="#m9a26b4e30c" y="214.326912"/>
     <use style="fill:#ff0000;stroke:#ff0000;" x="398.487273" xlink:href="#m9a26b4e30c" y="214.326912"/>
    </g>
   </g>
   <g id="patch_3">
    <path d="M 57.6 307.584 
L 57.6 41.472 
" style="fill:none;stroke:#000000;stroke-linecap:square;stroke-linejoin:miter;stroke-width:0.8;"/>
   </g>
   <g id="patch_4">
    <path d="M 414.72 307.584 
L 414.72 41.472 
" style="fill:none;stroke:#000000;stroke-linecap:square;stroke-linejoin:miter;stroke-width:0.8;"/>
   </g>
   <g id="patch_5">
    <path d="M 57.6 307.584 
L 414.72 307.584 
" style="fill:none;stroke:#000000;stroke-linecap:square;stroke-linejoin:miter;stroke-width:0.8;"/>
   </g>
   <g id="patch_6">
    <path d="M 57.6 41.472 
L 414.72 41.472 
" style="fill:none;stroke:#000000;stroke-linecap:square;stroke-linejoin:miter;stroke-width:0.8;"/>
   </g>
  </g>
 </g>
 <defs>
  <clipPath id="p85367d8cca">
   <rect height="266.112" width="357.12" x="57.6" y="41.472"/>
  </clipPath>
 </defs>
</svg>
