<?xml version="1.0" encoding="utf-8" standalone="no"?>
<!DOCTYPE svg PUBLIC "-//W3C//DTD SVG 1.1//EN"
  "http://www.w3.org/Graphics/SVG/1.1/DTD/svg11.dtd">
<!-- Created with matplotlib (https://matplotlib.org/) -->
<svg height="345.6pt" version="1.1" viewBox="0 0 460.8 345.6" width="460.8pt" xmlns="http://www.w3.org/2000/svg" xmlns:xlink="http://www.w3.org/1999/xlink">
 <defs>
  <style type="text/css">
*{stroke-linecap:butt;stroke-linejoin:round;}
  </style>
 </defs>
 <g id="figure_1">
  <g id="patch_1">
   <path d="M 0 345.6 
L 460.8 345.6 
L 460.8 0 
L 0 0 
z
" style="fill:#ffffff;"/>
  </g>
  <g id="axes_1">
   <g id="patch_2">
    <path d="M 57.6 307.584 
L 414.72 307.584 
L 414.72 41.472 
L 57.6 41.472 
z
" style="fill:#ffffff;"/>
   </g>
   <g id="line2d_1">
    <path clip-path="url(#p36f0bf5ea7)" d="M 73.832727 207.873812 
L 74.866659 256.061977 
L 81.070249 256.061977 
L 82.104181 245.229812 
L 83.138112 245.229812 
L 84.172044 251.249463 
L 85.205976 251.249463 
L 86.239907 295.488 
L 87.273839 248.356895 
L 89.341702 248.356895 
L 90.375634 199.336014 
L 91.409566 187.847765 
L 95.545292 187.847765 
L 96.579224 144.386977 
L 97.613156 144.386977 
L 98.647087 93.656265 
L 99.681019 93.656265 
L 100.714951 110.978728 
L 101.748882 95.316873 
L 104.850677 95.316873 
L 105.884609 80.362718 
L 107.952472 80.362718 
L 108.986404 97.018543 
L 110.020336 97.018543 
L 112.088199 68.459192 
L 113.122131 68.459192 
L 114.156063 53.568 
L 115.189994 53.568 
L 116.223926 70.943415 
L 117.257858 70.943415 
L 118.291789 56.151277 
L 119.325721 56.151277 
L 121.393584 90.028365 
L 123.461448 90.028365 
L 124.495379 75.174326 
L 125.529311 75.174326 
L 126.563243 59.165674 
L 129.665038 59.165674 
L 130.698969 76.780944 
L 131.732901 76.780944 
L 132.766833 93.311546 
L 133.800764 93.311546 
L 134.834696 108.924266 
L 136.902559 108.924266 
L 137.936491 94.543589 
L 138.970423 94.543589 
L 141.038286 127.813725 
L 144.140081 127.813725 
L 145.174013 111.643616 
L 146.207944 111.643616 
L 147.241876 97.725699 
L 148.275808 97.725699 
L 149.309739 113.898247 
L 151.377603 113.898247 
L 152.411534 129.931926 
L 153.445466 129.931926 
L 154.479398 146.156732 
L 155.513329 146.156732 
L 156.547261 149.984838 
L 160.682988 149.984838 
L 161.71692 167.387268 
L 162.750851 167.387268 
L 163.784783 150.536679 
L 164.818715 150.536679 
L 165.852646 166.182514 
L 167.92051 166.182514 
L 168.954441 148.950885 
L 169.988373 148.950885 
L 171.022305 134.481031 
L 172.056236 134.481031 
L 173.090168 118.256134 
L 174.1241 133.845283 
L 175.158031 133.845283 
L 176.191963 117.142315 
L 177.225895 117.142315 
L 178.259826 136.306606 
L 179.293758 136.306606 
L 180.32769 154.510223 
L 181.361621 156.882445 
L 182.395553 156.882445 
L 183.429485 174.227226 
L 184.463416 174.227226 
L 185.497348 157.822223 
L 186.53128 157.822223 
L 187.565211 141.567245 
L 188.599143 141.567245 
L 189.633075 125.450305 
L 197.904528 125.450305 
L 198.93846 142.236368 
L 199.972391 146.764062 
L 202.040255 146.764062 
L 203.074186 147.362528 
L 204.108118 147.362528 
L 205.14205 164.768599 
L 206.175981 164.768599 
L 207.209913 149.843433 
L 208.243845 165.389866 
L 209.277776 165.389866 
L 210.311708 182.569135 
L 212.379572 182.569135 
L 213.413503 186.995527 
L 214.447435 186.995527 
L 215.481367 202.786387 
L 216.515298 202.786387 
L 217.54923 220.156747 
L 218.583162 220.156747 
L 220.651025 191.492738 
L 221.684957 191.492738 
L 222.718888 187.945838 
L 223.75282 187.945838 
L 224.786752 171.079457 
L 227.888547 171.079457 
L 228.922478 153.388379 
L 229.95641 152.826609 
L 230.990342 152.826609 
L 232.024273 152.272915 
L 233.058205 152.272915 
L 234.092137 133.507684 
L 235.126068 151.537352 
L 237.193932 151.537352 
L 238.227863 166.246657 
L 240.295727 166.246657 
L 241.329658 182.393885 
L 242.36359 182.393885 
L 243.397522 168.0719 
L 244.431453 170.695117 
L 245.465385 170.695117 
L 246.499317 186.950511 
L 248.56718 186.950511 
L 249.601112 170.078534 
L 250.635043 185.492283 
L 251.668975 185.492283 
L 252.702907 200.797409 
L 255.804702 200.797409 
L 256.838633 184.378136 
L 257.872565 184.378136 
L 258.906497 200.986103 
L 259.940428 200.986103 
L 260.97436 184.053496 
L 262.008292 184.053496 
L 263.042224 198.495525 
L 264.076155 198.495525 
L 265.110087 214.326912 
L 398.487273 214.326912 
L 398.487273 214.326912 
" style="fill:none;stroke:#ff0000;stroke-linecap:square;stroke-width:12;"/>
    <defs>
     <path d="M 0 3 
C 0.795609 3 1.55874 2.683901 2.12132 2.12132 
C 2.683901 1.55874 3 0.795609 3 0 
C 3 -0.795609 2.683901 -1.55874 2.12132 -2.12132 
C 1.55874 -2.683901 0.795609 -3 0 -3 
C -0.795609 -3 -1.55874 -2.683901 -2.12132 -2.12132 
C -2.683901 -1.55874 -3 -0.795609 -3 0 
C -3 0.795609 -2.683901 1.55874 -2.12132 2.12132 
C -1.55874 2.683901 -0.795609 3 0 3 
z
" id="mb7d3a0f6e8" style="stroke:#ff0000;"/>
    </defs>
    <g clip-path="url(#p36f0bf5ea7)">
     <use style="fill:#ff0000;stroke:#ff0000;" x="73.832727" xlink:href="#mb7d3a0f6e8" y="207.873812"/>
     <use style="fill:#ff0000;stroke:#ff0000;" x="74.866659" xlink:href="#mb7d3a0f6e8" y="256.061977"/>
     <use style="fill:#ff0000;stroke:#ff0000;" x="75.900591" xlink:href="#mb7d3a0f6e8" y="256.061977"/>
     <use style="fill:#ff0000;stroke:#ff0000;" x="76.934522" xlink:href="#mb7d3a0f6e8" y="256.061977"/>
     <use style="fill:#ff0000;stroke:#ff0000;" x="77.968454" xlink:href="#mb7d3a0f6e8" y="256.061977"/>
     <use style="fill:#ff0000;stroke:#ff0000;" x="79.002386" xlink:href="#mb7d3a0f6e8" y="256.061977"/>
     <use style="fill:#ff0000;stroke:#ff0000;" x="80.036317" xlink:href="#mb7d3a0f6e8" y="256.061977"/>
     <use style="fill:#ff0000;stroke:#ff0000;" x="81.070249" xlink:href="#mb7d3a0f6e8" y="256.061977"/>
     <use style="fill:#ff0000;stroke:#ff0000;" x="82.104181" xlink:href="#mb7d3a0f6e8" y="245.229812"/>
     <use style="fill:#ff0000;stroke:#ff0000;" x="83.138112" xlink:href="#mb7d3a0f6e8" y="245.229812"/>
     <use style="fill:#ff0000;stroke:#ff0000;" x="84.172044" xlink:href="#mb7d3a0f6e8" y="251.249463"/>
     <use style="fill:#ff0000;stroke:#ff0000;" x="85.205976" xlink:href="#mb7d3a0f6e8" y="251.249463"/>
     <use style="fill:#ff0000;stroke:#ff0000;" x="86.239907" xlink:href="#mb7d3a0f6e8" y="295.488"/>
     <use style="fill:#ff0000;stroke:#ff0000;" x="87.273839" xlink:href="#mb7d3a0f6e8" y="248.356895"/>
     <use style="fill:#ff0000;stroke:#ff0000;" x="88.307771" xlink:href="#mb7d3a0f6e8" y="248.356895"/>
     <use style="fill:#ff0000;stroke:#ff0000;" x="89.341702" xlink:href="#mb7d3a0f6e8" y="248.356895"/>
     <use style="fill:#ff0000;stroke:#ff0000;" x="90.375634" xlink:href="#mb7d3a0f6e8" y="199.336014"/>
     <use style="fill:#ff0000;stroke:#ff0000;" x="91.409566" xlink:href="#mb7d3a0f6e8" y="187.847765"/>
     <use style="fill:#ff0000;stroke:#ff0000;" x="92.443497" xlink:href="#mb7d3a0f6e8" y="187.847765"/>
     <use style="fill:#ff0000;stroke:#ff0000;" x="93.477429" xlink:href="#mb7d3a0f6e8" y="187.847765"/>
     <use style="fill:#ff0000;stroke:#ff0000;" x="94.511361" xlink:href="#mb7d3a0f6e8" y="187.847765"/>
     <use style="fill:#ff0000;stroke:#ff0000;" x="95.545292" xlink:href="#mb7d3a0f6e8" y="187.847765"/>
     <use style="fill:#ff0000;stroke:#ff0000;" x="96.579224" xlink:href="#mb7d3a0f6e8" y="144.386977"/>
     <use style="fill:#ff0000;stroke:#ff0000;" x="97.613156" xlink:href="#mb7d3a0f6e8" y="144.386977"/>
     <use style="fill:#ff0000;stroke:#ff0000;" x="98.647087" xlink:href="#mb7d3a0f6e8" y="93.656265"/>
     <use style="fill:#ff0000;stroke:#ff0000;" x="99.681019" xlink:href="#mb7d3a0f6e8" y="93.656265"/>
     <use style="fill:#ff0000;stroke:#ff0000;" x="100.714951" xlink:href="#mb7d3a0f6e8" y="110.978728"/>
     <use style="fill:#ff0000;stroke:#ff0000;" x="101.748882" xlink:href="#mb7d3a0f6e8" y="95.316873"/>
     <use style="fill:#ff0000;stroke:#ff0000;" x="102.782814" xlink:href="#mb7d3a0f6e8" y="95.316873"/>
     <use style="fill:#ff0000;stroke:#ff0000;" x="103.816746" xlink:href="#mb7d3a0f6e8" y="95.316873"/>
     <use style="fill:#ff0000;stroke:#ff0000;" x="104.850677" xlink:href="#mb7d3a0f6e8" y="95.316873"/>
     <use style="fill:#ff0000;stroke:#ff0000;" x="105.884609" xlink:href="#mb7d3a0f6e8" y="80.362718"/>
     <use style="fill:#ff0000;stroke:#ff0000;" x="106.918541" xlink:href="#mb7d3a0f6e8" y="80.362718"/>
     <use style="fill:#ff0000;stroke:#ff0000;" x="107.952472" xlink:href="#mb7d3a0f6e8" y="80.362718"/>
     <use style="fill:#ff0000;stroke:#ff0000;" x="108.986404" xlink:href="#mb7d3a0f6e8" y="97.018543"/>
     <use style="fill:#ff0000;stroke:#ff0000;" x="110.020336" xlink:href="#mb7d3a0f6e8" y="97.018543"/>
     <use style="fill:#ff0000;stroke:#ff0000;" x="111.054268" xlink:href="#mb7d3a0f6e8" y="83.228386"/>
     <use style="fill:#ff0000;stroke:#ff0000;" x="112.088199" xlink:href="#mb7d3a0f6e8" y="68.459192"/>
     <use style="fill:#ff0000;stroke:#ff0000;" x="113.122131" xlink:href="#mb7d3a0f6e8" y="68.459192"/>
     <use style="fill:#ff0000;stroke:#ff0000;" x="114.156063" xlink:href="#mb7d3a0f6e8" y="53.568"/>
     <use style="fill:#ff0000;stroke:#ff0000;" x="115.189994" xlink:href="#mb7d3a0f6e8" y="53.568"/>
     <use style="fill:#ff0000;stroke:#ff0000;" x="116.223926" xlink:href="#mb7d3a0f6e8" y="70.943415"/>
     <use style="fill:#ff0000;stroke:#ff0000;" x="117.257858" xlink:href="#mb7d3a0f6e8" y="70.943415"/>
     <use style="fill:#ff0000;stroke:#ff0000;" x="118.291789" xlink:href="#mb7d3a0f6e8" y="56.151277"/>
     <use style="fill:#ff0000;stroke:#ff0000;" x="119.325721" xlink:href="#mb7d3a0f6e8" y="56.151277"/>
     <use style="fill:#ff0000;stroke:#ff0000;" x="120.359653" xlink:href="#mb7d3a0f6e8" y="72.718497"/>
     <use style="fill:#ff0000;stroke:#ff0000;" x="121.393584" xlink:href="#mb7d3a0f6e8" y="90.028365"/>
     <use style="fill:#ff0000;stroke:#ff0000;" x="122.427516" xlink:href="#mb7d3a0f6e8" y="90.028365"/>
     <use style="fill:#ff0000;stroke:#ff0000;" x="123.461448" xlink:href="#mb7d3a0f6e8" y="90.028365"/>
     <use style="fill:#ff0000;stroke:#ff0000;" x="124.495379" xlink:href="#mb7d3a0f6e8" y="75.174326"/>
     <use style="fill:#ff0000;stroke:#ff0000;" x="125.529311" xlink:href="#mb7d3a0f6e8" y="75.174326"/>
     <use style="fill:#ff0000;stroke:#ff0000;" x="126.563243" xlink:href="#mb7d3a0f6e8" y="59.165674"/>
     <use style="fill:#ff0000;stroke:#ff0000;" x="127.597174" xlink:href="#mb7d3a0f6e8" y="59.165674"/>
     <use style="fill:#ff0000;stroke:#ff0000;" x="128.631106" xlink:href="#mb7d3a0f6e8" y="59.165674"/>
     <use style="fill:#ff0000;stroke:#ff0000;" x="129.665038" xlink:href="#mb7d3a0f6e8" y="59.165674"/>
     <use style="fill:#ff0000;stroke:#ff0000;" x="130.698969" xlink:href="#mb7d3a0f6e8" y="76.780944"/>
     <use style="fill:#ff0000;stroke:#ff0000;" x="131.732901" xlink:href="#mb7d3a0f6e8" y="76.780944"/>
     <use style="fill:#ff0000;stroke:#ff0000;" x="132.766833" xlink:href="#mb7d3a0f6e8" y="93.311546"/>
     <use style="fill:#ff0000;stroke:#ff0000;" x="133.800764" xlink:href="#mb7d3a0f6e8" y="93.311546"/>
     <use style="fill:#ff0000;stroke:#ff0000;" x="134.834696" xlink:href="#mb7d3a0f6e8" y="108.924266"/>
     <use style="fill:#ff0000;stroke:#ff0000;" x="135.868628" xlink:href="#mb7d3a0f6e8" y="108.924266"/>
     <use style="fill:#ff0000;stroke:#ff0000;" x="136.902559" xlink:href="#mb7d3a0f6e8" y="108.924266"/>
     <use style="fill:#ff0000;stroke:#ff0000;" x="137.936491" xlink:href="#mb7d3a0f6e8" y="94.543589"/>
     <use style="fill:#ff0000;stroke:#ff0000;" x="138.970423" xlink:href="#mb7d3a0f6e8" y="94.543589"/>
     <use style="fill:#ff0000;stroke:#ff0000;" x="140.004354" xlink:href="#mb7d3a0f6e8" y="110.869924"/>
     <use style="fill:#ff0000;stroke:#ff0000;" x="141.038286" xlink:href="#mb7d3a0f6e8" y="127.813725"/>
     <use style="fill:#ff0000;stroke:#ff0000;" x="142.072218" xlink:href="#mb7d3a0f6e8" y="127.813725"/>
     <use style="fill:#ff0000;stroke:#ff0000;" x="143.106149" xlink:href="#mb7d3a0f6e8" y="127.813725"/>
     <use style="fill:#ff0000;stroke:#ff0000;" x="144.140081" xlink:href="#mb7d3a0f6e8" y="127.813725"/>
     <use style="fill:#ff0000;stroke:#ff0000;" x="145.174013" xlink:href="#mb7d3a0f6e8" y="111.643616"/>
     <use style="fill:#ff0000;stroke:#ff0000;" x="146.207944" xlink:href="#mb7d3a0f6e8" y="111.643616"/>
     <use style="fill:#ff0000;stroke:#ff0000;" x="147.241876" xlink:href="#mb7d3a0f6e8" y="97.725699"/>
     <use style="fill:#ff0000;stroke:#ff0000;" x="148.275808" xlink:href="#mb7d3a0f6e8" y="97.725699"/>
     <use style="fill:#ff0000;stroke:#ff0000;" x="149.309739" xlink:href="#mb7d3a0f6e8" y="113.898247"/>
     <use style="fill:#ff0000;stroke:#ff0000;" x="150.343671" xlink:href="#mb7d3a0f6e8" y="113.898247"/>
     <use style="fill:#ff0000;stroke:#ff0000;" x="151.377603" xlink:href="#mb7d3a0f6e8" y="113.898247"/>
     <use style="fill:#ff0000;stroke:#ff0000;" x="152.411534" xlink:href="#mb7d3a0f6e8" y="129.931926"/>
     <use style="fill:#ff0000;stroke:#ff0000;" x="153.445466" xlink:href="#mb7d3a0f6e8" y="129.931926"/>
     <use style="fill:#ff0000;stroke:#ff0000;" x="154.479398" xlink:href="#mb7d3a0f6e8" y="146.156732"/>
     <use style="fill:#ff0000;stroke:#ff0000;" x="155.513329" xlink:href="#mb7d3a0f6e8" y="146.156732"/>
     <use style="fill:#ff0000;stroke:#ff0000;" x="156.547261" xlink:href="#mb7d3a0f6e8" y="149.984838"/>
     <use style="fill:#ff0000;stroke:#ff0000;" x="157.581193" xlink:href="#mb7d3a0f6e8" y="149.984838"/>
     <use style="fill:#ff0000;stroke:#ff0000;" x="158.615124" xlink:href="#mb7d3a0f6e8" y="149.984838"/>
     <use style="fill:#ff0000;stroke:#ff0000;" x="159.649056" xlink:href="#mb7d3a0f6e8" y="149.984838"/>
     <use style="fill:#ff0000;stroke:#ff0000;" x="160.682988" xlink:href="#mb7d3a0f6e8" y="149.984838"/>
     <use style="fill:#ff0000;stroke:#ff0000;" x="161.71692" xlink:href="#mb7d3a0f6e8" y="167.387268"/>
     <use style="fill:#ff0000;stroke:#ff0000;" x="162.750851" xlink:href="#mb7d3a0f6e8" y="167.387268"/>
     <use style="fill:#ff0000;stroke:#ff0000;" x="163.784783" xlink:href="#mb7d3a0f6e8" y="150.536679"/>
     <use style="fill:#ff0000;stroke:#ff0000;" x="164.818715" xlink:href="#mb7d3a0f6e8" y="150.536679"/>
     <use style="fill:#ff0000;stroke:#ff0000;" x="165.852646" xlink:href="#mb7d3a0f6e8" y="166.182514"/>
     <use style="fill:#ff0000;stroke:#ff0000;" x="166.886578" xlink:href="#mb7d3a0f6e8" y="166.182514"/>
     <use style="fill:#ff0000;stroke:#ff0000;" x="167.92051" xlink:href="#mb7d3a0f6e8" y="166.182514"/>
     <use style="fill:#ff0000;stroke:#ff0000;" x="168.954441" xlink:href="#mb7d3a0f6e8" y="148.950885"/>
     <use style="fill:#ff0000;stroke:#ff0000;" x="169.988373" xlink:href="#mb7d3a0f6e8" y="148.950885"/>
     <use style="fill:#ff0000;stroke:#ff0000;" x="171.022305" xlink:href="#mb7d3a0f6e8" y="134.481031"/>
     <use style="fill:#ff0000;stroke:#ff0000;" x="172.056236" xlink:href="#mb7d3a0f6e8" y="134.481031"/>
     <use style="fill:#ff0000;stroke:#ff0000;" x="173.090168" xlink:href="#mb7d3a0f6e8" y="118.256134"/>
     <use style="fill:#ff0000;stroke:#ff0000;" x="174.1241" xlink:href="#mb7d3a0f6e8" y="133.845283"/>
     <use style="fill:#ff0000;stroke:#ff0000;" x="175.158031" xlink:href="#mb7d3a0f6e8" y="133.845283"/>
     <use style="fill:#ff0000;stroke:#ff0000;" x="176.191963" xlink:href="#mb7d3a0f6e8" y="117.142315"/>
     <use style="fill:#ff0000;stroke:#ff0000;" x="177.225895" xlink:href="#mb7d3a0f6e8" y="117.142315"/>
     <use style="fill:#ff0000;stroke:#ff0000;" x="178.259826" xlink:href="#mb7d3a0f6e8" y="136.306606"/>
     <use style="fill:#ff0000;stroke:#ff0000;" x="179.293758" xlink:href="#mb7d3a0f6e8" y="136.306606"/>
     <use style="fill:#ff0000;stroke:#ff0000;" x="180.32769" xlink:href="#mb7d3a0f6e8" y="154.510223"/>
     <use style="fill:#ff0000;stroke:#ff0000;" x="181.361621" xlink:href="#mb7d3a0f6e8" y="156.882445"/>
     <use style="fill:#ff0000;stroke:#ff0000;" x="182.395553" xlink:href="#mb7d3a0f6e8" y="156.882445"/>
     <use style="fill:#ff0000;stroke:#ff0000;" x="183.429485" xlink:href="#mb7d3a0f6e8" y="174.227226"/>
     <use style="fill:#ff0000;stroke:#ff0000;" x="184.463416" xlink:href="#mb7d3a0f6e8" y="174.227226"/>
     <use style="fill:#ff0000;stroke:#ff0000;" x="185.497348" xlink:href="#mb7d3a0f6e8" y="157.822223"/>
     <use style="fill:#ff0000;stroke:#ff0000;" x="186.53128" xlink:href="#mb7d3a0f6e8" y="157.822223"/>
     <use style="fill:#ff0000;stroke:#ff0000;" x="187.565211" xlink:href="#mb7d3a0f6e8" y="141.567245"/>
     <use style="fill:#ff0000;stroke:#ff0000;" x="188.599143" xlink:href="#mb7d3a0f6e8" y="141.567245"/>
     <use style="fill:#ff0000;stroke:#ff0000;" x="189.633075" xlink:href="#mb7d3a0f6e8" y="125.450305"/>
     <use style="fill:#ff0000;stroke:#ff0000;" x="190.667006" xlink:href="#mb7d3a0f6e8" y="125.450305"/>
     <use style="fill:#ff0000;stroke:#ff0000;" x="191.700938" xlink:href="#mb7d3a0f6e8" y="125.450305"/>
     <use style="fill:#ff0000;stroke:#ff0000;" x="192.73487" xlink:href="#mb7d3a0f6e8" y="125.450305"/>
     <use style="fill:#ff0000;stroke:#ff0000;" x="193.768801" xlink:href="#mb7d3a0f6e8" y="125.450305"/>
     <use style="fill:#ff0000;stroke:#ff0000;" x="194.802733" xlink:href="#mb7d3a0f6e8" y="125.450305"/>
     <use style="fill:#ff0000;stroke:#ff0000;" x="195.836665" xlink:href="#mb7d3a0f6e8" y="125.450305"/>
     <use style="fill:#ff0000;stroke:#ff0000;" x="196.870596" xlink:href="#mb7d3a0f6e8" y="125.450305"/>
     <use style="fill:#ff0000;stroke:#ff0000;" x="197.904528" xlink:href="#mb7d3a0f6e8" y="125.450305"/>
     <use style="fill:#ff0000;stroke:#ff0000;" x="198.93846" xlink:href="#mb7d3a0f6e8" y="142.236368"/>
     <use style="fill:#ff0000;stroke:#ff0000;" x="199.972391" xlink:href="#mb7d3a0f6e8" y="146.764062"/>
     <use style="fill:#ff0000;stroke:#ff0000;" x="201.006323" xlink:href="#mb7d3a0f6e8" y="146.764062"/>
     <use style="fill:#ff0000;stroke:#ff0000;" x="202.040255" xlink:href="#mb7d3a0f6e8" y="146.764062"/>
     <use style="fill:#ff0000;stroke:#ff0000;" x="203.074186" xlink:href="#mb7d3a0f6e8" y="147.362528"/>
     <use style="fill:#ff0000;stroke:#ff0000;" x="204.108118" xlink:href="#mb7d3a0f6e8" y="147.362528"/>
     <use style="fill:#ff0000;stroke:#ff0000;" x="205.14205" xlink:href="#mb7d3a0f6e8" y="164.768599"/>
     <use style="fill:#ff0000;stroke:#ff0000;" x="206.175981" xlink:href="#mb7d3a0f6e8" y="164.768599"/>
     <use style="fill:#ff0000;stroke:#ff0000;" x="207.209913" xlink:href="#mb7d3a0f6e8" y="149.843433"/>
     <use style="fill:#ff0000;stroke:#ff0000;" x="208.243845" xlink:href="#mb7d3a0f6e8" y="165.389866"/>
     <use style="fill:#ff0000;stroke:#ff0000;" x="209.277776" xlink:href="#mb7d3a0f6e8" y="165.389866"/>
     <use style="fill:#ff0000;stroke:#ff0000;" x="210.311708" xlink:href="#mb7d3a0f6e8" y="182.569135"/>
     <use style="fill:#ff0000;stroke:#ff0000;" x="211.34564" xlink:href="#mb7d3a0f6e8" y="182.569135"/>
     <use style="fill:#ff0000;stroke:#ff0000;" x="212.379572" xlink:href="#mb7d3a0f6e8" y="182.569135"/>
     <use style="fill:#ff0000;stroke:#ff0000;" x="213.413503" xlink:href="#mb7d3a0f6e8" y="186.995527"/>
     <use style="fill:#ff0000;stroke:#ff0000;" x="214.447435" xlink:href="#mb7d3a0f6e8" y="186.995527"/>
     <use style="fill:#ff0000;stroke:#ff0000;" x="215.481367" xlink:href="#mb7d3a0f6e8" y="202.786387"/>
     <use style="fill:#ff0000;stroke:#ff0000;" x="216.515298" xlink:href="#mb7d3a0f6e8" y="202.786387"/>
     <use style="fill:#ff0000;stroke:#ff0000;" x="217.54923" xlink:href="#mb7d3a0f6e8" y="220.156747"/>
     <use style="fill:#ff0000;stroke:#ff0000;" x="218.583162" xlink:href="#mb7d3a0f6e8" y="220.156747"/>
     <use style="fill:#ff0000;stroke:#ff0000;" x="219.617093" xlink:href="#mb7d3a0f6e8" y="205.263368"/>
     <use style="fill:#ff0000;stroke:#ff0000;" x="220.651025" xlink:href="#mb7d3a0f6e8" y="191.492738"/>
     <use style="fill:#ff0000;stroke:#ff0000;" x="221.684957" xlink:href="#mb7d3a0f6e8" y="191.492738"/>
     <use style="fill:#ff0000;stroke:#ff0000;" x="222.718888" xlink:href="#mb7d3a0f6e8" y="187.945838"/>
     <use style="fill:#ff0000;stroke:#ff0000;" x="223.75282" xlink:href="#mb7d3a0f6e8" y="187.945838"/>
     <use style="fill:#ff0000;stroke:#ff0000;" x="224.786752" xlink:href="#mb7d3a0f6e8" y="171.079457"/>
     <use style="fill:#ff0000;stroke:#ff0000;" x="225.820683" xlink:href="#mb7d3a0f6e8" y="171.079457"/>
     <use style="fill:#ff0000;stroke:#ff0000;" x="226.854615" xlink:href="#mb7d3a0f6e8" y="171.079457"/>
     <use style="fill:#ff0000;stroke:#ff0000;" x="227.888547" xlink:href="#mb7d3a0f6e8" y="171.079457"/>
     <use style="fill:#ff0000;stroke:#ff0000;" x="228.922478" xlink:href="#mb7d3a0f6e8" y="153.388379"/>
     <use style="fill:#ff0000;stroke:#ff0000;" x="229.95641" xlink:href="#mb7d3a0f6e8" y="152.826609"/>
     <use style="fill:#ff0000;stroke:#ff0000;" x="230.990342" xlink:href="#mb7d3a0f6e8" y="152.826609"/>
     <use style="fill:#ff0000;stroke:#ff0000;" x="232.024273" xlink:href="#mb7d3a0f6e8" y="152.272915"/>
     <use style="fill:#ff0000;stroke:#ff0000;" x="233.058205" xlink:href="#mb7d3a0f6e8" y="152.272915"/>
     <use style="fill:#ff0000;stroke:#ff0000;" x="234.092137" xlink:href="#mb7d3a0f6e8" y="133.507684"/>
     <use style="fill:#ff0000;stroke:#ff0000;" x="235.126068" xlink:href="#mb7d3a0f6e8" y="151.537352"/>
     <use style="fill:#ff0000;stroke:#ff0000;" x="236.16" xlink:href="#mb7d3a0f6e8" y="151.537352"/>
     <use style="fill:#ff0000;stroke:#ff0000;" x="237.193932" xlink:href="#mb7d3a0f6e8" y="151.537352"/>
     <use style="fill:#ff0000;stroke:#ff0000;" x="238.227863" xlink:href="#mb7d3a0f6e8" y="166.246657"/>
     <use style="fill:#ff0000;stroke:#ff0000;" x="239.261795" xlink:href="#mb7d3a0f6e8" y="166.246657"/>
     <use style="fill:#ff0000;stroke:#ff0000;" x="240.295727" xlink:href="#mb7d3a0f6e8" y="166.246657"/>
     <use style="fill:#ff0000;stroke:#ff0000;" x="241.329658" xlink:href="#mb7d3a0f6e8" y="182.393885"/>
     <use style="fill:#ff0000;stroke:#ff0000;" x="242.36359" xlink:href="#mb7d3a0f6e8" y="182.393885"/>
     <use style="fill:#ff0000;stroke:#ff0000;" x="243.397522" xlink:href="#mb7d3a0f6e8" y="168.0719"/>
     <use style="fill:#ff0000;stroke:#ff0000;" x="244.431453" xlink:href="#mb7d3a0f6e8" y="170.695117"/>
     <use style="fill:#ff0000;stroke:#ff0000;" x="245.465385" xlink:href="#mb7d3a0f6e8" y="170.695117"/>
     <use style="fill:#ff0000;stroke:#ff0000;" x="246.499317" xlink:href="#mb7d3a0f6e8" y="186.950511"/>
     <use style="fill:#ff0000;stroke:#ff0000;" x="247.533248" xlink:href="#mb7d3a0f6e8" y="186.950511"/>
     <use style="fill:#ff0000;stroke:#ff0000;" x="248.56718" xlink:href="#mb7d3a0f6e8" y="186.950511"/>
     <use style="fill:#ff0000;stroke:#ff0000;" x="249.601112" xlink:href="#mb7d3a0f6e8" y="170.078534"/>
     <use style="fill:#ff0000;stroke:#ff0000;" x="250.635043" xlink:href="#mb7d3a0f6e8" y="185.492283"/>
     <use style="fill:#ff0000;stroke:#ff0000;" x="251.668975" xlink:href="#mb7d3a0f6e8" y="185.492283"/>
     <use style="fill:#ff0000;stroke:#ff0000;" x="252.702907" xlink:href="#mb7d3a0f6e8" y="200.797409"/>
     <use style="fill:#ff0000;stroke:#ff0000;" x="253.736838" xlink:href="#mb7d3a0f6e8" y="200.797409"/>
     <use style="fill:#ff0000;stroke:#ff0000;" x="254.77077" xlink:href="#mb7d3a0f6e8" y="200.797409"/>
     <use style="fill:#ff0000;stroke:#ff0000;" x="255.804702" xlink:href="#mb7d3a0f6e8" y="200.797409"/>
     <use style="fill:#ff0000;stroke:#ff0000;" x="256.838633" xlink:href="#mb7d3a0f6e8" y="184.378136"/>
     <use style="fill:#ff0000;stroke:#ff0000;" x="257.872565" xlink:href="#mb7d3a0f6e8" y="184.378136"/>
     <use style="fill:#ff0000;stroke:#ff0000;" x="258.906497" xlink:href="#mb7d3a0f6e8" y="200.986103"/>
     <use style="fill:#ff0000;stroke:#ff0000;" x="259.940428" xlink:href="#mb7d3a0f6e8" y="200.986103"/>
     <use style="fill:#ff0000;stroke:#ff0000;" x="260.97436" xlink:href="#mb7d3a0f6e8" y="184.053496"/>
     <use style="fill:#ff0000;stroke:#ff0000;" x="262.008292" xlink:href="#mb7d3a0f6e8" y="184.053496"/>
     <use style="fill:#ff0000;stroke:#ff0000;" x="263.042224" xlink:href="#mb7d3a0f6e8" y="198.495525"/>
     <use style="fill:#ff0000;stroke:#ff0000;" x="264.076155" xlink:href="#mb7d3a0f6e8" y="198.495525"/>
     <use style="fill:#ff0000;stroke:#ff0000;" x="265.110087" xlink:href="#mb7d3a0f6e8" y="214.326912"/>
     <use style="fill:#ff0000;stroke:#ff0000;" x="266.144019" xlink:href="#mb7d3a0f6e8" y="214.326912"/>
     <use style="fill:#ff0000;stroke:#ff0000;" x="267.17795" xlink:href="#mb7d3a0f6e8" y="214.326912"/>
     <use style="fill:#ff0000;stroke:#ff0000;" x="268.211882" xlink:href="#mb7d3a0f6e8" y="214.326912"/>
     <use style="fill:#ff0000;stroke:#ff0000;" x="269.245814" xlink:href="#mb7d3a0f6e8" y="214.326912"/>
     <use style="fill:#ff0000;stroke:#ff0000;" x="270.279745" xlink:href="#mb7d3a0f6e8" y="214.326912"/>
     <use style="fill:#ff0000;stroke:#ff0000;" x="271.313677" xlink:href="#mb7d3a0f6e8" y="214.326912"/>
     <use style="fill:#ff0000;stroke:#ff0000;" x="272.347609" xlink:href="#mb7d3a0f6e8" y="214.326912"/>
     <use style="fill:#ff0000;stroke:#ff0000;" x="273.38154" xlink:href="#mb7d3a0f6e8" y="214.326912"/>
     <use style="fill:#ff0000;stroke:#ff0000;" x="274.415472" xlink:href="#mb7d3a0f6e8" y="214.326912"/>
     <use style="fill:#ff0000;stroke:#ff0000;" x="275.449404" xlink:href="#mb7d3a0f6e8" y="214.326912"/>
     <use style="fill:#ff0000;stroke:#ff0000;" x="276.483335" xlink:href="#mb7d3a0f6e8" y="214.326912"/>
     <use style="fill:#ff0000;stroke:#ff0000;" x="277.517267" xlink:href="#mb7d3a0f6e8" y="214.326912"/>
     <use style="fill:#ff0000;stroke:#ff0000;" x="278.551199" xlink:href="#mb7d3a0f6e8" y="214.326912"/>
     <use style="fill:#ff0000;stroke:#ff0000;" x="279.58513" xlink:href="#mb7d3a0f6e8" y="214.326912"/>
     <use style="fill:#ff0000;stroke:#ff0000;" x="280.619062" xlink:href="#mb7d3a0f6e8" y="214.326912"/>
     <use style="fill:#ff0000;stroke:#ff0000;" x="281.652994" xlink:href="#mb7d3a0f6e8" y="214.326912"/>
     <use style="fill:#ff0000;stroke:#ff0000;" x="282.686925" xlink:href="#mb7d3a0f6e8" y="214.326912"/>
     <use style="fill:#ff0000;stroke:#ff0000;" x="283.720857" xlink:href="#mb7d3a0f6e8" y="214.326912"/>
     <use style="fill:#ff0000;stroke:#ff0000;" x="284.754789" xlink:href="#mb7d3a0f6e8" y="214.326912"/>
     <use style="fill:#ff0000;stroke:#ff0000;" x="285.78872" xlink:href="#mb7d3a0f6e8" y="214.326912"/>
     <use style="fill:#ff0000;stroke:#ff0000;" x="286.822652" xlink:href="#mb7d3a0f6e8" y="214.326912"/>
     <use style="fill:#ff0000;stroke:#ff0000;" x="287.856584" xlink:href="#mb7d3a0f6e8" y="214.326912"/>
     <use style="fill:#ff0000;stroke:#ff0000;" x="288.890515" xlink:href="#mb7d3a0f6e8" y="214.326912"/>
     <use style="fill:#ff0000;stroke:#ff0000;" x="289.924447" xlink:href="#mb7d3a0f6e8" y="214.326912"/>
     <use style="fill:#ff0000;stroke:#ff0000;" x="290.958379" xlink:href="#mb7d3a0f6e8" y="214.326912"/>
     <use style="fill:#ff0000;stroke:#ff0000;" x="291.99231" xlink:href="#mb7d3a0f6e8" y="214.326912"/>
     <use style="fill:#ff0000;stroke:#ff0000;" x="293.026242" xlink:href="#mb7d3a0f6e8" y="214.326912"/>
     <use style="fill:#ff0000;stroke:#ff0000;" x="294.060174" xlink:href="#mb7d3a0f6e8" y="214.326912"/>
     <use style="fill:#ff0000;stroke:#ff0000;" x="295.094105" xlink:href="#mb7d3a0f6e8" y="214.326912"/>
     <use style="fill:#ff0000;stroke:#ff0000;" x="296.128037" xlink:href="#mb7d3a0f6e8" y="214.326912"/>
     <use style="fill:#ff0000;stroke:#ff0000;" x="297.161969" xlink:href="#mb7d3a0f6e8" y="214.326912"/>
     <use style="fill:#ff0000;stroke:#ff0000;" x="298.1959" xlink:href="#mb7d3a0f6e8" y="214.326912"/>
     <use style="fill:#ff0000;stroke:#ff0000;" x="299.229832" xlink:href="#mb7d3a0f6e8" y="214.326912"/>
     <use style="fill:#ff0000;stroke:#ff0000;" x="300.263764" xlink:href="#mb7d3a0f6e8" y="214.326912"/>
     <use style="fill:#ff0000;stroke:#ff0000;" x="301.297695" xlink:href="#mb7d3a0f6e8" y="214.326912"/>
     <use style="fill:#ff0000;stroke:#ff0000;" x="302.331627" xlink:href="#mb7d3a0f6e8" y="214.326912"/>
     <use style="fill:#ff0000;stroke:#ff0000;" x="303.365559" xlink:href="#mb7d3a0f6e8" y="214.326912"/>
     <use style="fill:#ff0000;stroke:#ff0000;" x="304.39949" xlink:href="#mb7d3a0f6e8" y="214.326912"/>
     <use style="fill:#ff0000;stroke:#ff0000;" x="305.433422" xlink:href="#mb7d3a0f6e8" y="214.326912"/>
     <use style="fill:#ff0000;stroke:#ff0000;" x="306.467354" xlink:href="#mb7d3a0f6e8" y="214.326912"/>
     <use style="fill:#ff0000;stroke:#ff0000;" x="307.501285" xlink:href="#mb7d3a0f6e8" y="214.326912"/>
     <use style="fill:#ff0000;stroke:#ff0000;" x="308.535217" xlink:href="#mb7d3a0f6e8" y="214.326912"/>
     <use style="fill:#ff0000;stroke:#ff0000;" x="309.569149" xlink:href="#mb7d3a0f6e8" y="214.326912"/>
     <use style="fill:#ff0000;stroke:#ff0000;" x="310.60308" xlink:href="#mb7d3a0f6e8" y="214.326912"/>
     <use style="fill:#ff0000;stroke:#ff0000;" x="311.637012" xlink:href="#mb7d3a0f6e8" y="214.326912"/>
     <use style="fill:#ff0000;stroke:#ff0000;" x="312.670944" xlink:href="#mb7d3a0f6e8" y="214.326912"/>
     <use style="fill:#ff0000;stroke:#ff0000;" x="313.704876" xlink:href="#mb7d3a0f6e8" y="214.326912"/>
     <use style="fill:#ff0000;stroke:#ff0000;" x="314.738807" xlink:href="#mb7d3a0f6e8" y="214.326912"/>
     <use style="fill:#ff0000;stroke:#ff0000;" x="315.772739" xlink:href="#mb7d3a0f6e8" y="214.326912"/>
     <use style="fill:#ff0000;stroke:#ff0000;" x="316.806671" xlink:href="#mb7d3a0f6e8" y="214.326912"/>
     <use style="fill:#ff0000;stroke:#ff0000;" x="317.840602" xlink:href="#mb7d3a0f6e8" y="214.326912"/>
     <use style="fill:#ff0000;stroke:#ff0000;" x="318.874534" xlink:href="#mb7d3a0f6e8" y="214.326912"/>
     <use style="fill:#ff0000;stroke:#ff0000;" x="319.908466" xlink:href="#mb7d3a0f6e8" y="214.326912"/>
     <use style="fill:#ff0000;stroke:#ff0000;" x="320.942397" xlink:href="#mb7d3a0f6e8" y="214.326912"/>
     <use style="fill:#ff0000;stroke:#ff0000;" x="321.976329" xlink:href="#mb7d3a0f6e8" y="214.326912"/>
     <use style="fill:#ff0000;stroke:#ff0000;" x="323.010261" xlink:href="#mb7d3a0f6e8" y="214.326912"/>
     <use style="fill:#ff0000;stroke:#ff0000;" x="324.044192" xlink:href="#mb7d3a0f6e8" y="214.326912"/>
     <use style="fill:#ff0000;stroke:#ff0000;" x="325.078124" xlink:href="#mb7d3a0f6e8" y="214.326912"/>
     <use style="fill:#ff0000;stroke:#ff0000;" x="326.112056" xlink:href="#mb7d3a0f6e8" y="214.326912"/>
     <use style="fill:#ff0000;stroke:#ff0000;" x="327.145987" xlink:href="#mb7d3a0f6e8" y="214.326912"/>
     <use style="fill:#ff0000;stroke:#ff0000;" x="328.179919" xlink:href="#mb7d3a0f6e8" y="214.326912"/>
     <use style="fill:#ff0000;stroke:#ff0000;" x="329.213851" xlink:href="#mb7d3a0f6e8" y="214.326912"/>
     <use style="fill:#ff0000;stroke:#ff0000;" x="330.247782" xlink:href="#mb7d3a0f6e8" y="214.326912"/>
     <use style="fill:#ff0000;stroke:#ff0000;" x="331.281714" xlink:href="#mb7d3a0f6e8" y="214.326912"/>
     <use style="fill:#ff0000;stroke:#ff0000;" x="332.315646" xlink:href="#mb7d3a0f6e8" y="214.326912"/>
     <use style="fill:#ff0000;stroke:#ff0000;" x="333.349577" xlink:href="#mb7d3a0f6e8" y="214.326912"/>
     <use style="fill:#ff0000;stroke:#ff0000;" x="334.383509" xlink:href="#mb7d3a0f6e8" y="214.326912"/>
     <use style="fill:#ff0000;stroke:#ff0000;" x="335.417441" xlink:href="#mb7d3a0f6e8" y="214.326912"/>
     <use style="fill:#ff0000;stroke:#ff0000;" x="336.451372" xlink:href="#mb7d3a0f6e8" y="214.326912"/>
     <use style="fill:#ff0000;stroke:#ff0000;" x="337.485304" xlink:href="#mb7d3a0f6e8" y="214.326912"/>
     <use style="fill:#ff0000;stroke:#ff0000;" x="338.519236" xlink:href="#mb7d3a0f6e8" y="214.326912"/>
     <use style="fill:#ff0000;stroke:#ff0000;" x="339.553167" xlink:href="#mb7d3a0f6e8" y="214.326912"/>
     <use style="fill:#ff0000;stroke:#ff0000;" x="340.587099" xlink:href="#mb7d3a0f6e8" y="214.326912"/>
     <use style="fill:#ff0000;stroke:#ff0000;" x="341.621031" xlink:href="#mb7d3a0f6e8" y="214.326912"/>
     <use style="fill:#ff0000;stroke:#ff0000;" x="342.654962" xlink:href="#mb7d3a0f6e8" y="214.326912"/>
     <use style="fill:#ff0000;stroke:#ff0000;" x="343.688894" xlink:href="#mb7d3a0f6e8" y="214.326912"/>
     <use style="fill:#ff0000;stroke:#ff0000;" x="344.722826" xlink:href="#mb7d3a0f6e8" y="214.326912"/>
     <use style="fill:#ff0000;stroke:#ff0000;" x="345.756757" xlink:href="#mb7d3a0f6e8" y="214.326912"/>
     <use style="fill:#ff0000;stroke:#ff0000;" x="346.790689" xlink:href="#mb7d3a0f6e8" y="214.326912"/>
     <use style="fill:#ff0000;stroke:#ff0000;" x="347.824621" xlink:href="#mb7d3a0f6e8" y="214.326912"/>
     <use style="fill:#ff0000;stroke:#ff0000;" x="348.858552" xlink:href="#mb7d3a0f6e8" y="214.326912"/>
     <use style="fill:#ff0000;stroke:#ff0000;" x="349.892484" xlink:href="#mb7d3a0f6e8" y="214.326912"/>
     <use style="fill:#ff0000;stroke:#ff0000;" x="350.926416" xlink:href="#mb7d3a0f6e8" y="214.326912"/>
     <use style="fill:#ff0000;stroke:#ff0000;" x="351.960347" xlink:href="#mb7d3a0f6e8" y="214.326912"/>
     <use style="fill:#ff0000;stroke:#ff0000;" x="352.994279" xlink:href="#mb7d3a0f6e8" y="214.326912"/>
     <use style="fill:#ff0000;stroke:#ff0000;" x="354.028211" xlink:href="#mb7d3a0f6e8" y="214.326912"/>
     <use style="fill:#ff0000;stroke:#ff0000;" x="355.062142" xlink:href="#mb7d3a0f6e8" y="214.326912"/>
     <use style="fill:#ff0000;stroke:#ff0000;" x="356.096074" xlink:href="#mb7d3a0f6e8" y="214.326912"/>
     <use style="fill:#ff0000;stroke:#ff0000;" x="357.130006" xlink:href="#mb7d3a0f6e8" y="214.326912"/>
     <use style="fill:#ff0000;stroke:#ff0000;" x="358.163937" xlink:href="#mb7d3a0f6e8" y="214.326912"/>
     <use style="fill:#ff0000;stroke:#ff0000;" x="359.197869" xlink:href="#mb7d3a0f6e8" y="214.326912"/>
     <use style="fill:#ff0000;stroke:#ff0000;" x="360.231801" xlink:href="#mb7d3a0f6e8" y="214.326912"/>
     <use style="fill:#ff0000;stroke:#ff0000;" x="361.265732" xlink:href="#mb7d3a0f6e8" y="214.326912"/>
     <use style="fill:#ff0000;stroke:#ff0000;" x="362.299664" xlink:href="#mb7d3a0f6e8" y="214.326912"/>
     <use style="fill:#ff0000;stroke:#ff0000;" x="363.333596" xlink:href="#mb7d3a0f6e8" y="214.326912"/>
     <use style="fill:#ff0000;stroke:#ff0000;" x="364.367528" xlink:href="#mb7d3a0f6e8" y="214.326912"/>
     <use style="fill:#ff0000;stroke:#ff0000;" x="365.401459" xlink:href="#mb7d3a0f6e8" y="214.326912"/>
     <use style="fill:#ff0000;stroke:#ff0000;" x="366.435391" xlink:href="#mb7d3a0f6e8" y="214.326912"/>
     <use style="fill:#ff0000;stroke:#ff0000;" x="367.469323" xlink:href="#mb7d3a0f6e8" y="214.326912"/>
     <use style="fill:#ff0000;stroke:#ff0000;" x="368.503254" xlink:href="#mb7d3a0f6e8" y="214.326912"/>
     <use style="fill:#ff0000;stroke:#ff0000;" x="369.537186" xlink:href="#mb7d3a0f6e8" y="214.326912"/>
     <use style="fill:#ff0000;stroke:#ff0000;" x="370.571118" xlink:href="#mb7d3a0f6e8" y="214.326912"/>
     <use style="fill:#ff0000;stroke:#ff0000;" x="371.605049" xlink:href="#mb7d3a0f6e8" y="214.326912"/>
     <use style="fill:#ff0000;stroke:#ff0000;" x="372.638981" xlink:href="#mb7d3a0f6e8" y="214.326912"/>
     <use style="fill:#ff0000;stroke:#ff0000;" x="373.672913" xlink:href="#mb7d3a0f6e8" y="214.326912"/>
     <use style="fill:#ff0000;stroke:#ff0000;" x="374.706844" xlink:href="#mb7d3a0f6e8" y="214.326912"/>
     <use style="fill:#ff0000;stroke:#ff0000;" x="375.740776" xlink:href="#mb7d3a0f6e8" y="214.326912"/>
     <use style="fill:#ff0000;stroke:#ff0000;" x="376.774708" xlink:href="#mb7d3a0f6e8" y="214.326912"/>
     <use style="fill:#ff0000;stroke:#ff0000;" x="377.808639" xlink:href="#mb7d3a0f6e8" y="214.326912"/>
     <use style="fill:#ff0000;stroke:#ff0000;" x="378.842571" xlink:href="#mb7d3a0f6e8" y="214.326912"/>
     <use style="fill:#ff0000;stroke:#ff0000;" x="379.876503" xlink:href="#mb7d3a0f6e8" y="214.326912"/>
     <use style="fill:#ff0000;stroke:#ff0000;" x="380.910434" xlink:href="#mb7d3a0f6e8" y="214.326912"/>
     <use style="fill:#ff0000;stroke:#ff0000;" x="381.944366" xlink:href="#mb7d3a0f6e8" y="214.326912"/>
     <use style="fill:#ff0000;stroke:#ff0000;" x="382.978298" xlink:href="#mb7d3a0f6e8" y="214.326912"/>
     <use style="fill:#ff0000;stroke:#ff0000;" x="384.012229" xlink:href="#mb7d3a0f6e8" y="214.326912"/>
     <use style="fill:#ff0000;stroke:#ff0000;" x="385.046161" xlink:href="#mb7d3a0f6e8" y="214.326912"/>
     <use style="fill:#ff0000;stroke:#ff0000;" x="386.080093" xlink:href="#mb7d3a0f6e8" y="214.326912"/>
     <use style="fill:#ff0000;stroke:#ff0000;" x="387.114024" xlink:href="#mb7d3a0f6e8" y="214.326912"/>
     <use style="fill:#ff0000;stroke:#ff0000;" x="388.147956" xlink:href="#mb7d3a0f6e8" y="214.326912"/>
     <use style="fill:#ff0000;stroke:#ff0000;" x="389.181888" xlink:href="#mb7d3a0f6e8" y="214.326912"/>
     <use style="fill:#ff0000;stroke:#ff0000;" x="390.215819" xlink:href="#mb7d3a0f6e8" y="214.326912"/>
     <use style="fill:#ff0000;stroke:#ff0000;" x="391.249751" xlink:href="#mb7d3a0f6e8" y="214.326912"/>
     <use style="fill:#ff0000;stroke:#ff0000;" x="392.283683" xlink:href="#mb7d3a0f6e8" y="214.326912"/>
     <use style="fill:#ff0000;stroke:#ff0000;" x="393.317614" xlink:href="#mb7d3a0f6e8" y="214.326912"/>
     <use style="fill:#ff0000;stroke:#ff0000;" x="394.351546" xlink:href="#mb7d3a0f6e8" y="214.326912"/>
     <use style="fill:#ff0000;stroke:#ff0000;" x="395.385478" xlink:href="#mb7d3a0f6e8" y="214.326912"/>
     <use style="fill:#ff0000;stroke:#ff0000;" x="396.419409" xlink:href="#mb7d3a0f6e8" y="214.326912"/>
     <use style="fill:#ff0000;stroke:#ff0000;" x="397.453341" xlink:href="#mb7d3a0f6e8" y="214.326912"/>
     <use style="fill:#ff0000;stroke:#ff0000;" x="398.487273" xlink:href="#mb7d3a0f6e8" y="214.326912"/>
    </g>
   </g>
   <g id="patch_3">
    <path d="M 57.6 307.584 
L 57.6 41.472 
" style="fill:none;stroke:#000000;stroke-linecap:square;stroke-linejoin:miter;stroke-width:0.8;"/>
   </g>
   <g id="patch_4">
    <path d="M 414.72 307.584 
L 414.72 41.472 
" style="fill:none;stroke:#000000;stroke-linecap:square;stroke-linejoin:miter;stroke-width:0.8;"/>
   </g>
   <g id="patch_5">
    <path d="M 57.6 307.584 
L 414.72 307.584 
" style="fill:none;stroke:#000000;stroke-linecap:square;stroke-linejoin:miter;stroke-width:0.8;"/>
   </g>
   <g id="patch_6">
    <path d="M 57.6 41.472 
L 414.72 41.472 
" style="fill:none;stroke:#000000;stroke-linecap:square;stroke-linejoin:miter;stroke-width:0.8;"/>
   </g>
  </g>
 </g>
 <defs>
  <clipPath id="p36f0bf5ea7">
   <rect height="266.112" width="357.12" x="57.6" y="41.472"/>
  </clipPath>
 </defs>
</svg>
