<?xml version="1.0" encoding="utf-8" standalone="no"?>
<!DOCTYPE svg PUBLIC "-//W3C//DTD SVG 1.1//EN"
  "http://www.w3.org/Graphics/SVG/1.1/DTD/svg11.dtd">
<!-- Created with matplotlib (https://matplotlib.org/) -->
<svg height="345.6pt" version="1.1" viewBox="0 0 460.8 345.6" width="460.8pt" xmlns="http://www.w3.org/2000/svg" xmlns:xlink="http://www.w3.org/1999/xlink">
 <defs>
  <style type="text/css">
*{stroke-linecap:butt;stroke-linejoin:round;}
  </style>
 </defs>
 <g id="figure_1">
  <g id="patch_1">
   <path d="M 0 345.6 
L 460.8 345.6 
L 460.8 0 
L 0 0 
z
" style="fill:#ffffff;"/>
  </g>
  <g id="axes_1">
   <g id="patch_2">
    <path d="M 57.6 307.584 
L 414.72 307.584 
L 414.72 41.472 
L 57.6 41.472 
z
" style="fill:#ffffff;"/>
   </g>
   <g id="line2d_1">
    <path clip-path="url(#p7cb9733313)" d="M 73.832727 207.873812 
L 74.752429 256.061977 
L 80.270636 256.061977 
L 81.190337 245.229812 
L 82.110039 245.229812 
L 83.02974 251.249463 
L 83.949441 251.249463 
L 84.869142 295.488 
L 85.788844 248.356895 
L 87.628246 248.356895 
L 88.547947 199.336014 
L 89.467649 187.847765 
L 93.146454 187.847765 
L 94.066155 144.386977 
L 94.985856 144.386977 
L 95.905558 93.656265 
L 96.825259 93.656265 
L 97.74496 110.978728 
L 98.664661 95.316873 
L 101.423765 95.316873 
L 102.343466 80.362718 
L 104.182869 80.362718 
L 105.10257 97.018543 
L 106.022271 97.018543 
L 107.861674 68.459192 
L 108.781375 68.459192 
L 109.701076 53.568 
L 110.620778 53.568 
L 111.540479 70.943415 
L 112.46018 70.943415 
L 113.379882 56.151277 
L 114.299583 56.151277 
L 116.138985 90.028365 
L 117.978388 90.028365 
L 118.898089 75.174326 
L 119.81779 75.174326 
L 120.737492 59.165674 
L 123.496595 59.165674 
L 124.416297 76.780944 
L 125.335998 76.780944 
L 126.255699 93.311546 
L 127.1754 93.311546 
L 128.095102 108.924266 
L 129.934504 108.924266 
L 130.854206 94.543589 
L 131.773907 94.543589 
L 133.613309 127.813725 
L 136.372413 127.813725 
L 137.292114 111.643616 
L 138.211816 111.643616 
L 139.131517 97.725699 
L 140.051218 97.725699 
L 140.970919 113.898247 
L 142.810322 113.898247 
L 143.730023 129.931926 
L 144.649724 129.931926 
L 145.569426 146.156732 
L 146.489127 146.156732 
L 147.408828 149.984838 
L 151.087633 149.984838 
L 152.007335 167.387268 
L 152.927036 167.387268 
L 153.846737 150.536679 
L 154.766438 150.536679 
L 155.68614 166.182514 
L 157.525542 166.182514 
L 158.445243 148.950885 
L 159.364945 148.950885 
L 160.284646 134.481031 
L 161.204347 134.481031 
L 162.124048 118.256134 
L 163.04375 133.845283 
L 163.963451 133.845283 
L 164.883152 117.142315 
L 165.802853 117.142315 
L 166.722555 136.306606 
L 167.642256 136.306606 
L 168.561957 154.510223 
L 169.481659 156.882445 
L 170.40136 156.882445 
L 171.321061 174.227226 
L 172.240762 174.227226 
L 173.160464 157.822223 
L 174.080165 157.822223 
L 174.999866 141.567245 
L 175.919567 141.567245 
L 176.839269 125.450305 
L 184.196879 125.450305 
L 185.11658 142.236368 
L 186.036281 146.764062 
L 187.875684 146.764062 
L 188.795385 147.362528 
L 189.715086 147.362528 
L 190.634788 164.768599 
L 191.554489 164.768599 
L 192.47419 149.843433 
L 193.393891 165.389866 
L 194.313593 165.389866 
L 195.233294 182.569135 
L 197.072696 182.569135 
L 197.992398 186.995527 
L 198.912099 186.995527 
L 199.8318 202.786387 
L 200.751501 202.786387 
L 201.671203 220.156747 
L 202.590904 220.156747 
L 204.430306 191.492738 
L 205.350008 191.492738 
L 206.269709 187.945838 
L 207.18941 187.945838 
L 208.109112 171.079457 
L 210.868215 171.079457 
L 211.787917 153.388379 
L 212.707618 152.826609 
L 213.627319 152.826609 
L 214.54702 152.272915 
L 215.466722 152.272915 
L 216.386423 133.507684 
L 217.306124 151.537352 
L 219.145527 151.537352 
L 220.065228 166.246657 
L 221.90463 166.246657 
L 222.824332 182.393885 
L 223.744033 182.393885 
L 224.663734 168.0719 
L 225.583435 170.695117 
L 226.503137 170.695117 
L 227.422838 186.950511 
L 229.262241 186.950511 
L 230.181942 170.078534 
L 231.101643 185.492283 
L 232.021344 185.492283 
L 232.941046 200.797409 
L 235.700149 200.797409 
L 236.619851 184.378136 
L 237.539552 184.378136 
L 238.459253 200.986103 
L 239.378954 200.986103 
L 240.298656 184.053496 
L 241.218357 184.053496 
L 242.138058 198.495525 
L 243.057759 198.495525 
L 243.977461 214.326912 
L 398.487273 214.326912 
L 398.487273 214.326912 
" style="fill:none;stroke:#ff0000;stroke-linecap:square;stroke-width:12;"/>
    <defs>
     <path d="M 0 3 
C 0.795609 3 1.55874 2.683901 2.12132 2.12132 
C 2.683901 1.55874 3 0.795609 3 0 
C 3 -0.795609 2.683901 -1.55874 2.12132 -2.12132 
C 1.55874 -2.683901 0.795609 -3 0 -3 
C -0.795609 -3 -1.55874 -2.683901 -2.12132 -2.12132 
C -2.683901 -1.55874 -3 -0.795609 -3 0 
C -3 0.795609 -2.683901 1.55874 -2.12132 2.12132 
C -1.55874 2.683901 -0.795609 3 0 3 
z
" id="m5991a4c859" style="stroke:#ff0000;"/>
    </defs>
    <g clip-path="url(#p7cb9733313)">
     <use style="fill:#ff0000;stroke:#ff0000;" x="73.832727" xlink:href="#m5991a4c859" y="207.873812"/>
     <use style="fill:#ff0000;stroke:#ff0000;" x="74.752429" xlink:href="#m5991a4c859" y="256.061977"/>
     <use style="fill:#ff0000;stroke:#ff0000;" x="75.67213" xlink:href="#m5991a4c859" y="256.061977"/>
     <use style="fill:#ff0000;stroke:#ff0000;" x="76.591831" xlink:href="#m5991a4c859" y="256.061977"/>
     <use style="fill:#ff0000;stroke:#ff0000;" x="77.511532" xlink:href="#m5991a4c859" y="256.061977"/>
     <use style="fill:#ff0000;stroke:#ff0000;" x="78.431234" xlink:href="#m5991a4c859" y="256.061977"/>
     <use style="fill:#ff0000;stroke:#ff0000;" x="79.350935" xlink:href="#m5991a4c859" y="256.061977"/>
     <use style="fill:#ff0000;stroke:#ff0000;" x="80.270636" xlink:href="#m5991a4c859" y="256.061977"/>
     <use style="fill:#ff0000;stroke:#ff0000;" x="81.190337" xlink:href="#m5991a4c859" y="245.229812"/>
     <use style="fill:#ff0000;stroke:#ff0000;" x="82.110039" xlink:href="#m5991a4c859" y="245.229812"/>
     <use style="fill:#ff0000;stroke:#ff0000;" x="83.02974" xlink:href="#m5991a4c859" y="251.249463"/>
     <use style="fill:#ff0000;stroke:#ff0000;" x="83.949441" xlink:href="#m5991a4c859" y="251.249463"/>
     <use style="fill:#ff0000;stroke:#ff0000;" x="84.869142" xlink:href="#m5991a4c859" y="295.488"/>
     <use style="fill:#ff0000;stroke:#ff0000;" x="85.788844" xlink:href="#m5991a4c859" y="248.356895"/>
     <use style="fill:#ff0000;stroke:#ff0000;" x="86.708545" xlink:href="#m5991a4c859" y="248.356895"/>
     <use style="fill:#ff0000;stroke:#ff0000;" x="87.628246" xlink:href="#m5991a4c859" y="248.356895"/>
     <use style="fill:#ff0000;stroke:#ff0000;" x="88.547947" xlink:href="#m5991a4c859" y="199.336014"/>
     <use style="fill:#ff0000;stroke:#ff0000;" x="89.467649" xlink:href="#m5991a4c859" y="187.847765"/>
     <use style="fill:#ff0000;stroke:#ff0000;" x="90.38735" xlink:href="#m5991a4c859" y="187.847765"/>
     <use style="fill:#ff0000;stroke:#ff0000;" x="91.307051" xlink:href="#m5991a4c859" y="187.847765"/>
     <use style="fill:#ff0000;stroke:#ff0000;" x="92.226753" xlink:href="#m5991a4c859" y="187.847765"/>
     <use style="fill:#ff0000;stroke:#ff0000;" x="93.146454" xlink:href="#m5991a4c859" y="187.847765"/>
     <use style="fill:#ff0000;stroke:#ff0000;" x="94.066155" xlink:href="#m5991a4c859" y="144.386977"/>
     <use style="fill:#ff0000;stroke:#ff0000;" x="94.985856" xlink:href="#m5991a4c859" y="144.386977"/>
     <use style="fill:#ff0000;stroke:#ff0000;" x="95.905558" xlink:href="#m5991a4c859" y="93.656265"/>
     <use style="fill:#ff0000;stroke:#ff0000;" x="96.825259" xlink:href="#m5991a4c859" y="93.656265"/>
     <use style="fill:#ff0000;stroke:#ff0000;" x="97.74496" xlink:href="#m5991a4c859" y="110.978728"/>
     <use style="fill:#ff0000;stroke:#ff0000;" x="98.664661" xlink:href="#m5991a4c859" y="95.316873"/>
     <use style="fill:#ff0000;stroke:#ff0000;" x="99.584363" xlink:href="#m5991a4c859" y="95.316873"/>
     <use style="fill:#ff0000;stroke:#ff0000;" x="100.504064" xlink:href="#m5991a4c859" y="95.316873"/>
     <use style="fill:#ff0000;stroke:#ff0000;" x="101.423765" xlink:href="#m5991a4c859" y="95.316873"/>
     <use style="fill:#ff0000;stroke:#ff0000;" x="102.343466" xlink:href="#m5991a4c859" y="80.362718"/>
     <use style="fill:#ff0000;stroke:#ff0000;" x="103.263168" xlink:href="#m5991a4c859" y="80.362718"/>
     <use style="fill:#ff0000;stroke:#ff0000;" x="104.182869" xlink:href="#m5991a4c859" y="80.362718"/>
     <use style="fill:#ff0000;stroke:#ff0000;" x="105.10257" xlink:href="#m5991a4c859" y="97.018543"/>
     <use style="fill:#ff0000;stroke:#ff0000;" x="106.022271" xlink:href="#m5991a4c859" y="97.018543"/>
     <use style="fill:#ff0000;stroke:#ff0000;" x="106.941973" xlink:href="#m5991a4c859" y="83.228386"/>
     <use style="fill:#ff0000;stroke:#ff0000;" x="107.861674" xlink:href="#m5991a4c859" y="68.459192"/>
     <use style="fill:#ff0000;stroke:#ff0000;" x="108.781375" xlink:href="#m5991a4c859" y="68.459192"/>
     <use style="fill:#ff0000;stroke:#ff0000;" x="109.701076" xlink:href="#m5991a4c859" y="53.568"/>
     <use style="fill:#ff0000;stroke:#ff0000;" x="110.620778" xlink:href="#m5991a4c859" y="53.568"/>
     <use style="fill:#ff0000;stroke:#ff0000;" x="111.540479" xlink:href="#m5991a4c859" y="70.943415"/>
     <use style="fill:#ff0000;stroke:#ff0000;" x="112.46018" xlink:href="#m5991a4c859" y="70.943415"/>
     <use style="fill:#ff0000;stroke:#ff0000;" x="113.379882" xlink:href="#m5991a4c859" y="56.151277"/>
     <use style="fill:#ff0000;stroke:#ff0000;" x="114.299583" xlink:href="#m5991a4c859" y="56.151277"/>
     <use style="fill:#ff0000;stroke:#ff0000;" x="115.219284" xlink:href="#m5991a4c859" y="72.718497"/>
     <use style="fill:#ff0000;stroke:#ff0000;" x="116.138985" xlink:href="#m5991a4c859" y="90.028365"/>
     <use style="fill:#ff0000;stroke:#ff0000;" x="117.058687" xlink:href="#m5991a4c859" y="90.028365"/>
     <use style="fill:#ff0000;stroke:#ff0000;" x="117.978388" xlink:href="#m5991a4c859" y="90.028365"/>
     <use style="fill:#ff0000;stroke:#ff0000;" x="118.898089" xlink:href="#m5991a4c859" y="75.174326"/>
     <use style="fill:#ff0000;stroke:#ff0000;" x="119.81779" xlink:href="#m5991a4c859" y="75.174326"/>
     <use style="fill:#ff0000;stroke:#ff0000;" x="120.737492" xlink:href="#m5991a4c859" y="59.165674"/>
     <use style="fill:#ff0000;stroke:#ff0000;" x="121.657193" xlink:href="#m5991a4c859" y="59.165674"/>
     <use style="fill:#ff0000;stroke:#ff0000;" x="122.576894" xlink:href="#m5991a4c859" y="59.165674"/>
     <use style="fill:#ff0000;stroke:#ff0000;" x="123.496595" xlink:href="#m5991a4c859" y="59.165674"/>
     <use style="fill:#ff0000;stroke:#ff0000;" x="124.416297" xlink:href="#m5991a4c859" y="76.780944"/>
     <use style="fill:#ff0000;stroke:#ff0000;" x="125.335998" xlink:href="#m5991a4c859" y="76.780944"/>
     <use style="fill:#ff0000;stroke:#ff0000;" x="126.255699" xlink:href="#m5991a4c859" y="93.311546"/>
     <use style="fill:#ff0000;stroke:#ff0000;" x="127.1754" xlink:href="#m5991a4c859" y="93.311546"/>
     <use style="fill:#ff0000;stroke:#ff0000;" x="128.095102" xlink:href="#m5991a4c859" y="108.924266"/>
     <use style="fill:#ff0000;stroke:#ff0000;" x="129.014803" xlink:href="#m5991a4c859" y="108.924266"/>
     <use style="fill:#ff0000;stroke:#ff0000;" x="129.934504" xlink:href="#m5991a4c859" y="108.924266"/>
     <use style="fill:#ff0000;stroke:#ff0000;" x="130.854206" xlink:href="#m5991a4c859" y="94.543589"/>
     <use style="fill:#ff0000;stroke:#ff0000;" x="131.773907" xlink:href="#m5991a4c859" y="94.543589"/>
     <use style="fill:#ff0000;stroke:#ff0000;" x="132.693608" xlink:href="#m5991a4c859" y="110.869924"/>
     <use style="fill:#ff0000;stroke:#ff0000;" x="133.613309" xlink:href="#m5991a4c859" y="127.813725"/>
     <use style="fill:#ff0000;stroke:#ff0000;" x="134.533011" xlink:href="#m5991a4c859" y="127.813725"/>
     <use style="fill:#ff0000;stroke:#ff0000;" x="135.452712" xlink:href="#m5991a4c859" y="127.813725"/>
     <use style="fill:#ff0000;stroke:#ff0000;" x="136.372413" xlink:href="#m5991a4c859" y="127.813725"/>
     <use style="fill:#ff0000;stroke:#ff0000;" x="137.292114" xlink:href="#m5991a4c859" y="111.643616"/>
     <use style="fill:#ff0000;stroke:#ff0000;" x="138.211816" xlink:href="#m5991a4c859" y="111.643616"/>
     <use style="fill:#ff0000;stroke:#ff0000;" x="139.131517" xlink:href="#m5991a4c859" y="97.725699"/>
     <use style="fill:#ff0000;stroke:#ff0000;" x="140.051218" xlink:href="#m5991a4c859" y="97.725699"/>
     <use style="fill:#ff0000;stroke:#ff0000;" x="140.970919" xlink:href="#m5991a4c859" y="113.898247"/>
     <use style="fill:#ff0000;stroke:#ff0000;" x="141.890621" xlink:href="#m5991a4c859" y="113.898247"/>
     <use style="fill:#ff0000;stroke:#ff0000;" x="142.810322" xlink:href="#m5991a4c859" y="113.898247"/>
     <use style="fill:#ff0000;stroke:#ff0000;" x="143.730023" xlink:href="#m5991a4c859" y="129.931926"/>
     <use style="fill:#ff0000;stroke:#ff0000;" x="144.649724" xlink:href="#m5991a4c859" y="129.931926"/>
     <use style="fill:#ff0000;stroke:#ff0000;" x="145.569426" xlink:href="#m5991a4c859" y="146.156732"/>
     <use style="fill:#ff0000;stroke:#ff0000;" x="146.489127" xlink:href="#m5991a4c859" y="146.156732"/>
     <use style="fill:#ff0000;stroke:#ff0000;" x="147.408828" xlink:href="#m5991a4c859" y="149.984838"/>
     <use style="fill:#ff0000;stroke:#ff0000;" x="148.328529" xlink:href="#m5991a4c859" y="149.984838"/>
     <use style="fill:#ff0000;stroke:#ff0000;" x="149.248231" xlink:href="#m5991a4c859" y="149.984838"/>
     <use style="fill:#ff0000;stroke:#ff0000;" x="150.167932" xlink:href="#m5991a4c859" y="149.984838"/>
     <use style="fill:#ff0000;stroke:#ff0000;" x="151.087633" xlink:href="#m5991a4c859" y="149.984838"/>
     <use style="fill:#ff0000;stroke:#ff0000;" x="152.007335" xlink:href="#m5991a4c859" y="167.387268"/>
     <use style="fill:#ff0000;stroke:#ff0000;" x="152.927036" xlink:href="#m5991a4c859" y="167.387268"/>
     <use style="fill:#ff0000;stroke:#ff0000;" x="153.846737" xlink:href="#m5991a4c859" y="150.536679"/>
     <use style="fill:#ff0000;stroke:#ff0000;" x="154.766438" xlink:href="#m5991a4c859" y="150.536679"/>
     <use style="fill:#ff0000;stroke:#ff0000;" x="155.68614" xlink:href="#m5991a4c859" y="166.182514"/>
     <use style="fill:#ff0000;stroke:#ff0000;" x="156.605841" xlink:href="#m5991a4c859" y="166.182514"/>
     <use style="fill:#ff0000;stroke:#ff0000;" x="157.525542" xlink:href="#m5991a4c859" y="166.182514"/>
     <use style="fill:#ff0000;stroke:#ff0000;" x="158.445243" xlink:href="#m5991a4c859" y="148.950885"/>
     <use style="fill:#ff0000;stroke:#ff0000;" x="159.364945" xlink:href="#m5991a4c859" y="148.950885"/>
     <use style="fill:#ff0000;stroke:#ff0000;" x="160.284646" xlink:href="#m5991a4c859" y="134.481031"/>
     <use style="fill:#ff0000;stroke:#ff0000;" x="161.204347" xlink:href="#m5991a4c859" y="134.481031"/>
     <use style="fill:#ff0000;stroke:#ff0000;" x="162.124048" xlink:href="#m5991a4c859" y="118.256134"/>
     <use style="fill:#ff0000;stroke:#ff0000;" x="163.04375" xlink:href="#m5991a4c859" y="133.845283"/>
     <use style="fill:#ff0000;stroke:#ff0000;" x="163.963451" xlink:href="#m5991a4c859" y="133.845283"/>
     <use style="fill:#ff0000;stroke:#ff0000;" x="164.883152" xlink:href="#m5991a4c859" y="117.142315"/>
     <use style="fill:#ff0000;stroke:#ff0000;" x="165.802853" xlink:href="#m5991a4c859" y="117.142315"/>
     <use style="fill:#ff0000;stroke:#ff0000;" x="166.722555" xlink:href="#m5991a4c859" y="136.306606"/>
     <use style="fill:#ff0000;stroke:#ff0000;" x="167.642256" xlink:href="#m5991a4c859" y="136.306606"/>
     <use style="fill:#ff0000;stroke:#ff0000;" x="168.561957" xlink:href="#m5991a4c859" y="154.510223"/>
     <use style="fill:#ff0000;stroke:#ff0000;" x="169.481659" xlink:href="#m5991a4c859" y="156.882445"/>
     <use style="fill:#ff0000;stroke:#ff0000;" x="170.40136" xlink:href="#m5991a4c859" y="156.882445"/>
     <use style="fill:#ff0000;stroke:#ff0000;" x="171.321061" xlink:href="#m5991a4c859" y="174.227226"/>
     <use style="fill:#ff0000;stroke:#ff0000;" x="172.240762" xlink:href="#m5991a4c859" y="174.227226"/>
     <use style="fill:#ff0000;stroke:#ff0000;" x="173.160464" xlink:href="#m5991a4c859" y="157.822223"/>
     <use style="fill:#ff0000;stroke:#ff0000;" x="174.080165" xlink:href="#m5991a4c859" y="157.822223"/>
     <use style="fill:#ff0000;stroke:#ff0000;" x="174.999866" xlink:href="#m5991a4c859" y="141.567245"/>
     <use style="fill:#ff0000;stroke:#ff0000;" x="175.919567" xlink:href="#m5991a4c859" y="141.567245"/>
     <use style="fill:#ff0000;stroke:#ff0000;" x="176.839269" xlink:href="#m5991a4c859" y="125.450305"/>
     <use style="fill:#ff0000;stroke:#ff0000;" x="177.75897" xlink:href="#m5991a4c859" y="125.450305"/>
     <use style="fill:#ff0000;stroke:#ff0000;" x="178.678671" xlink:href="#m5991a4c859" y="125.450305"/>
     <use style="fill:#ff0000;stroke:#ff0000;" x="179.598372" xlink:href="#m5991a4c859" y="125.450305"/>
     <use style="fill:#ff0000;stroke:#ff0000;" x="180.518074" xlink:href="#m5991a4c859" y="125.450305"/>
     <use style="fill:#ff0000;stroke:#ff0000;" x="181.437775" xlink:href="#m5991a4c859" y="125.450305"/>
     <use style="fill:#ff0000;stroke:#ff0000;" x="182.357476" xlink:href="#m5991a4c859" y="125.450305"/>
     <use style="fill:#ff0000;stroke:#ff0000;" x="183.277177" xlink:href="#m5991a4c859" y="125.450305"/>
     <use style="fill:#ff0000;stroke:#ff0000;" x="184.196879" xlink:href="#m5991a4c859" y="125.450305"/>
     <use style="fill:#ff0000;stroke:#ff0000;" x="185.11658" xlink:href="#m5991a4c859" y="142.236368"/>
     <use style="fill:#ff0000;stroke:#ff0000;" x="186.036281" xlink:href="#m5991a4c859" y="146.764062"/>
     <use style="fill:#ff0000;stroke:#ff0000;" x="186.955982" xlink:href="#m5991a4c859" y="146.764062"/>
     <use style="fill:#ff0000;stroke:#ff0000;" x="187.875684" xlink:href="#m5991a4c859" y="146.764062"/>
     <use style="fill:#ff0000;stroke:#ff0000;" x="188.795385" xlink:href="#m5991a4c859" y="147.362528"/>
     <use style="fill:#ff0000;stroke:#ff0000;" x="189.715086" xlink:href="#m5991a4c859" y="147.362528"/>
     <use style="fill:#ff0000;stroke:#ff0000;" x="190.634788" xlink:href="#m5991a4c859" y="164.768599"/>
     <use style="fill:#ff0000;stroke:#ff0000;" x="191.554489" xlink:href="#m5991a4c859" y="164.768599"/>
     <use style="fill:#ff0000;stroke:#ff0000;" x="192.47419" xlink:href="#m5991a4c859" y="149.843433"/>
     <use style="fill:#ff0000;stroke:#ff0000;" x="193.393891" xlink:href="#m5991a4c859" y="165.389866"/>
     <use style="fill:#ff0000;stroke:#ff0000;" x="194.313593" xlink:href="#m5991a4c859" y="165.389866"/>
     <use style="fill:#ff0000;stroke:#ff0000;" x="195.233294" xlink:href="#m5991a4c859" y="182.569135"/>
     <use style="fill:#ff0000;stroke:#ff0000;" x="196.152995" xlink:href="#m5991a4c859" y="182.569135"/>
     <use style="fill:#ff0000;stroke:#ff0000;" x="197.072696" xlink:href="#m5991a4c859" y="182.569135"/>
     <use style="fill:#ff0000;stroke:#ff0000;" x="197.992398" xlink:href="#m5991a4c859" y="186.995527"/>
     <use style="fill:#ff0000;stroke:#ff0000;" x="198.912099" xlink:href="#m5991a4c859" y="186.995527"/>
     <use style="fill:#ff0000;stroke:#ff0000;" x="199.8318" xlink:href="#m5991a4c859" y="202.786387"/>
     <use style="fill:#ff0000;stroke:#ff0000;" x="200.751501" xlink:href="#m5991a4c859" y="202.786387"/>
     <use style="fill:#ff0000;stroke:#ff0000;" x="201.671203" xlink:href="#m5991a4c859" y="220.156747"/>
     <use style="fill:#ff0000;stroke:#ff0000;" x="202.590904" xlink:href="#m5991a4c859" y="220.156747"/>
     <use style="fill:#ff0000;stroke:#ff0000;" x="203.510605" xlink:href="#m5991a4c859" y="205.263368"/>
     <use style="fill:#ff0000;stroke:#ff0000;" x="204.430306" xlink:href="#m5991a4c859" y="191.492738"/>
     <use style="fill:#ff0000;stroke:#ff0000;" x="205.350008" xlink:href="#m5991a4c859" y="191.492738"/>
     <use style="fill:#ff0000;stroke:#ff0000;" x="206.269709" xlink:href="#m5991a4c859" y="187.945838"/>
     <use style="fill:#ff0000;stroke:#ff0000;" x="207.18941" xlink:href="#m5991a4c859" y="187.945838"/>
     <use style="fill:#ff0000;stroke:#ff0000;" x="208.109112" xlink:href="#m5991a4c859" y="171.079457"/>
     <use style="fill:#ff0000;stroke:#ff0000;" x="209.028813" xlink:href="#m5991a4c859" y="171.079457"/>
     <use style="fill:#ff0000;stroke:#ff0000;" x="209.948514" xlink:href="#m5991a4c859" y="171.079457"/>
     <use style="fill:#ff0000;stroke:#ff0000;" x="210.868215" xlink:href="#m5991a4c859" y="171.079457"/>
     <use style="fill:#ff0000;stroke:#ff0000;" x="211.787917" xlink:href="#m5991a4c859" y="153.388379"/>
     <use style="fill:#ff0000;stroke:#ff0000;" x="212.707618" xlink:href="#m5991a4c859" y="152.826609"/>
     <use style="fill:#ff0000;stroke:#ff0000;" x="213.627319" xlink:href="#m5991a4c859" y="152.826609"/>
     <use style="fill:#ff0000;stroke:#ff0000;" x="214.54702" xlink:href="#m5991a4c859" y="152.272915"/>
     <use style="fill:#ff0000;stroke:#ff0000;" x="215.466722" xlink:href="#m5991a4c859" y="152.272915"/>
     <use style="fill:#ff0000;stroke:#ff0000;" x="216.386423" xlink:href="#m5991a4c859" y="133.507684"/>
     <use style="fill:#ff0000;stroke:#ff0000;" x="217.306124" xlink:href="#m5991a4c859" y="151.537352"/>
     <use style="fill:#ff0000;stroke:#ff0000;" x="218.225825" xlink:href="#m5991a4c859" y="151.537352"/>
     <use style="fill:#ff0000;stroke:#ff0000;" x="219.145527" xlink:href="#m5991a4c859" y="151.537352"/>
     <use style="fill:#ff0000;stroke:#ff0000;" x="220.065228" xlink:href="#m5991a4c859" y="166.246657"/>
     <use style="fill:#ff0000;stroke:#ff0000;" x="220.984929" xlink:href="#m5991a4c859" y="166.246657"/>
     <use style="fill:#ff0000;stroke:#ff0000;" x="221.90463" xlink:href="#m5991a4c859" y="166.246657"/>
     <use style="fill:#ff0000;stroke:#ff0000;" x="222.824332" xlink:href="#m5991a4c859" y="182.393885"/>
     <use style="fill:#ff0000;stroke:#ff0000;" x="223.744033" xlink:href="#m5991a4c859" y="182.393885"/>
     <use style="fill:#ff0000;stroke:#ff0000;" x="224.663734" xlink:href="#m5991a4c859" y="168.0719"/>
     <use style="fill:#ff0000;stroke:#ff0000;" x="225.583435" xlink:href="#m5991a4c859" y="170.695117"/>
     <use style="fill:#ff0000;stroke:#ff0000;" x="226.503137" xlink:href="#m5991a4c859" y="170.695117"/>
     <use style="fill:#ff0000;stroke:#ff0000;" x="227.422838" xlink:href="#m5991a4c859" y="186.950511"/>
     <use style="fill:#ff0000;stroke:#ff0000;" x="228.342539" xlink:href="#m5991a4c859" y="186.950511"/>
     <use style="fill:#ff0000;stroke:#ff0000;" x="229.262241" xlink:href="#m5991a4c859" y="186.950511"/>
     <use style="fill:#ff0000;stroke:#ff0000;" x="230.181942" xlink:href="#m5991a4c859" y="170.078534"/>
     <use style="fill:#ff0000;stroke:#ff0000;" x="231.101643" xlink:href="#m5991a4c859" y="185.492283"/>
     <use style="fill:#ff0000;stroke:#ff0000;" x="232.021344" xlink:href="#m5991a4c859" y="185.492283"/>
     <use style="fill:#ff0000;stroke:#ff0000;" x="232.941046" xlink:href="#m5991a4c859" y="200.797409"/>
     <use style="fill:#ff0000;stroke:#ff0000;" x="233.860747" xlink:href="#m5991a4c859" y="200.797409"/>
     <use style="fill:#ff0000;stroke:#ff0000;" x="234.780448" xlink:href="#m5991a4c859" y="200.797409"/>
     <use style="fill:#ff0000;stroke:#ff0000;" x="235.700149" xlink:href="#m5991a4c859" y="200.797409"/>
     <use style="fill:#ff0000;stroke:#ff0000;" x="236.619851" xlink:href="#m5991a4c859" y="184.378136"/>
     <use style="fill:#ff0000;stroke:#ff0000;" x="237.539552" xlink:href="#m5991a4c859" y="184.378136"/>
     <use style="fill:#ff0000;stroke:#ff0000;" x="238.459253" xlink:href="#m5991a4c859" y="200.986103"/>
     <use style="fill:#ff0000;stroke:#ff0000;" x="239.378954" xlink:href="#m5991a4c859" y="200.986103"/>
     <use style="fill:#ff0000;stroke:#ff0000;" x="240.298656" xlink:href="#m5991a4c859" y="184.053496"/>
     <use style="fill:#ff0000;stroke:#ff0000;" x="241.218357" xlink:href="#m5991a4c859" y="184.053496"/>
     <use style="fill:#ff0000;stroke:#ff0000;" x="242.138058" xlink:href="#m5991a4c859" y="198.495525"/>
     <use style="fill:#ff0000;stroke:#ff0000;" x="243.057759" xlink:href="#m5991a4c859" y="198.495525"/>
     <use style="fill:#ff0000;stroke:#ff0000;" x="243.977461" xlink:href="#m5991a4c859" y="214.326912"/>
     <use style="fill:#ff0000;stroke:#ff0000;" x="244.897162" xlink:href="#m5991a4c859" y="214.326912"/>
     <use style="fill:#ff0000;stroke:#ff0000;" x="245.816863" xlink:href="#m5991a4c859" y="214.326912"/>
     <use style="fill:#ff0000;stroke:#ff0000;" x="246.736565" xlink:href="#m5991a4c859" y="214.326912"/>
     <use style="fill:#ff0000;stroke:#ff0000;" x="247.656266" xlink:href="#m5991a4c859" y="214.326912"/>
     <use style="fill:#ff0000;stroke:#ff0000;" x="248.575967" xlink:href="#m5991a4c859" y="214.326912"/>
     <use style="fill:#ff0000;stroke:#ff0000;" x="249.495668" xlink:href="#m5991a4c859" y="214.326912"/>
     <use style="fill:#ff0000;stroke:#ff0000;" x="250.41537" xlink:href="#m5991a4c859" y="214.326912"/>
     <use style="fill:#ff0000;stroke:#ff0000;" x="251.335071" xlink:href="#m5991a4c859" y="214.326912"/>
     <use style="fill:#ff0000;stroke:#ff0000;" x="252.254772" xlink:href="#m5991a4c859" y="214.326912"/>
     <use style="fill:#ff0000;stroke:#ff0000;" x="253.174473" xlink:href="#m5991a4c859" y="214.326912"/>
     <use style="fill:#ff0000;stroke:#ff0000;" x="254.094175" xlink:href="#m5991a4c859" y="214.326912"/>
     <use style="fill:#ff0000;stroke:#ff0000;" x="255.013876" xlink:href="#m5991a4c859" y="214.326912"/>
     <use style="fill:#ff0000;stroke:#ff0000;" x="255.933577" xlink:href="#m5991a4c859" y="214.326912"/>
     <use style="fill:#ff0000;stroke:#ff0000;" x="256.853278" xlink:href="#m5991a4c859" y="214.326912"/>
     <use style="fill:#ff0000;stroke:#ff0000;" x="257.77298" xlink:href="#m5991a4c859" y="214.326912"/>
     <use style="fill:#ff0000;stroke:#ff0000;" x="258.692681" xlink:href="#m5991a4c859" y="214.326912"/>
     <use style="fill:#ff0000;stroke:#ff0000;" x="259.612382" xlink:href="#m5991a4c859" y="214.326912"/>
     <use style="fill:#ff0000;stroke:#ff0000;" x="260.532083" xlink:href="#m5991a4c859" y="214.326912"/>
     <use style="fill:#ff0000;stroke:#ff0000;" x="261.451785" xlink:href="#m5991a4c859" y="214.326912"/>
     <use style="fill:#ff0000;stroke:#ff0000;" x="262.371486" xlink:href="#m5991a4c859" y="214.326912"/>
     <use style="fill:#ff0000;stroke:#ff0000;" x="263.291187" xlink:href="#m5991a4c859" y="214.326912"/>
     <use style="fill:#ff0000;stroke:#ff0000;" x="264.210888" xlink:href="#m5991a4c859" y="214.326912"/>
     <use style="fill:#ff0000;stroke:#ff0000;" x="265.13059" xlink:href="#m5991a4c859" y="214.326912"/>
     <use style="fill:#ff0000;stroke:#ff0000;" x="266.050291" xlink:href="#m5991a4c859" y="214.326912"/>
     <use style="fill:#ff0000;stroke:#ff0000;" x="266.969992" xlink:href="#m5991a4c859" y="214.326912"/>
     <use style="fill:#ff0000;stroke:#ff0000;" x="267.889694" xlink:href="#m5991a4c859" y="214.326912"/>
     <use style="fill:#ff0000;stroke:#ff0000;" x="268.809395" xlink:href="#m5991a4c859" y="214.326912"/>
     <use style="fill:#ff0000;stroke:#ff0000;" x="269.729096" xlink:href="#m5991a4c859" y="214.326912"/>
     <use style="fill:#ff0000;stroke:#ff0000;" x="270.648797" xlink:href="#m5991a4c859" y="214.326912"/>
     <use style="fill:#ff0000;stroke:#ff0000;" x="271.568499" xlink:href="#m5991a4c859" y="214.326912"/>
     <use style="fill:#ff0000;stroke:#ff0000;" x="272.4882" xlink:href="#m5991a4c859" y="214.326912"/>
     <use style="fill:#ff0000;stroke:#ff0000;" x="273.407901" xlink:href="#m5991a4c859" y="214.326912"/>
     <use style="fill:#ff0000;stroke:#ff0000;" x="274.327602" xlink:href="#m5991a4c859" y="214.326912"/>
     <use style="fill:#ff0000;stroke:#ff0000;" x="275.247304" xlink:href="#m5991a4c859" y="214.326912"/>
     <use style="fill:#ff0000;stroke:#ff0000;" x="276.167005" xlink:href="#m5991a4c859" y="214.326912"/>
     <use style="fill:#ff0000;stroke:#ff0000;" x="277.086706" xlink:href="#m5991a4c859" y="214.326912"/>
     <use style="fill:#ff0000;stroke:#ff0000;" x="278.006407" xlink:href="#m5991a4c859" y="214.326912"/>
     <use style="fill:#ff0000;stroke:#ff0000;" x="278.926109" xlink:href="#m5991a4c859" y="214.326912"/>
     <use style="fill:#ff0000;stroke:#ff0000;" x="279.84581" xlink:href="#m5991a4c859" y="214.326912"/>
     <use style="fill:#ff0000;stroke:#ff0000;" x="280.765511" xlink:href="#m5991a4c859" y="214.326912"/>
     <use style="fill:#ff0000;stroke:#ff0000;" x="281.685212" xlink:href="#m5991a4c859" y="214.326912"/>
     <use style="fill:#ff0000;stroke:#ff0000;" x="282.604914" xlink:href="#m5991a4c859" y="214.326912"/>
     <use style="fill:#ff0000;stroke:#ff0000;" x="283.524615" xlink:href="#m5991a4c859" y="214.326912"/>
     <use style="fill:#ff0000;stroke:#ff0000;" x="284.444316" xlink:href="#m5991a4c859" y="214.326912"/>
     <use style="fill:#ff0000;stroke:#ff0000;" x="285.364018" xlink:href="#m5991a4c859" y="214.326912"/>
     <use style="fill:#ff0000;stroke:#ff0000;" x="286.283719" xlink:href="#m5991a4c859" y="214.326912"/>
     <use style="fill:#ff0000;stroke:#ff0000;" x="287.20342" xlink:href="#m5991a4c859" y="214.326912"/>
     <use style="fill:#ff0000;stroke:#ff0000;" x="288.123121" xlink:href="#m5991a4c859" y="214.326912"/>
     <use style="fill:#ff0000;stroke:#ff0000;" x="289.042823" xlink:href="#m5991a4c859" y="214.326912"/>
     <use style="fill:#ff0000;stroke:#ff0000;" x="289.962524" xlink:href="#m5991a4c859" y="214.326912"/>
     <use style="fill:#ff0000;stroke:#ff0000;" x="290.882225" xlink:href="#m5991a4c859" y="214.326912"/>
     <use style="fill:#ff0000;stroke:#ff0000;" x="291.801926" xlink:href="#m5991a4c859" y="214.326912"/>
     <use style="fill:#ff0000;stroke:#ff0000;" x="292.721628" xlink:href="#m5991a4c859" y="214.326912"/>
     <use style="fill:#ff0000;stroke:#ff0000;" x="293.641329" xlink:href="#m5991a4c859" y="214.326912"/>
     <use style="fill:#ff0000;stroke:#ff0000;" x="294.56103" xlink:href="#m5991a4c859" y="214.326912"/>
     <use style="fill:#ff0000;stroke:#ff0000;" x="295.480731" xlink:href="#m5991a4c859" y="214.326912"/>
     <use style="fill:#ff0000;stroke:#ff0000;" x="296.400433" xlink:href="#m5991a4c859" y="214.326912"/>
     <use style="fill:#ff0000;stroke:#ff0000;" x="297.320134" xlink:href="#m5991a4c859" y="214.326912"/>
     <use style="fill:#ff0000;stroke:#ff0000;" x="298.239835" xlink:href="#m5991a4c859" y="214.326912"/>
     <use style="fill:#ff0000;stroke:#ff0000;" x="299.159536" xlink:href="#m5991a4c859" y="214.326912"/>
     <use style="fill:#ff0000;stroke:#ff0000;" x="300.079238" xlink:href="#m5991a4c859" y="214.326912"/>
     <use style="fill:#ff0000;stroke:#ff0000;" x="300.998939" xlink:href="#m5991a4c859" y="214.326912"/>
     <use style="fill:#ff0000;stroke:#ff0000;" x="301.91864" xlink:href="#m5991a4c859" y="214.326912"/>
     <use style="fill:#ff0000;stroke:#ff0000;" x="302.838341" xlink:href="#m5991a4c859" y="214.326912"/>
     <use style="fill:#ff0000;stroke:#ff0000;" x="303.758043" xlink:href="#m5991a4c859" y="214.326912"/>
     <use style="fill:#ff0000;stroke:#ff0000;" x="304.677744" xlink:href="#m5991a4c859" y="214.326912"/>
     <use style="fill:#ff0000;stroke:#ff0000;" x="305.597445" xlink:href="#m5991a4c859" y="214.326912"/>
     <use style="fill:#ff0000;stroke:#ff0000;" x="306.517147" xlink:href="#m5991a4c859" y="214.326912"/>
     <use style="fill:#ff0000;stroke:#ff0000;" x="307.436848" xlink:href="#m5991a4c859" y="214.326912"/>
     <use style="fill:#ff0000;stroke:#ff0000;" x="308.356549" xlink:href="#m5991a4c859" y="214.326912"/>
     <use style="fill:#ff0000;stroke:#ff0000;" x="309.27625" xlink:href="#m5991a4c859" y="214.326912"/>
     <use style="fill:#ff0000;stroke:#ff0000;" x="310.195952" xlink:href="#m5991a4c859" y="214.326912"/>
     <use style="fill:#ff0000;stroke:#ff0000;" x="311.115653" xlink:href="#m5991a4c859" y="214.326912"/>
     <use style="fill:#ff0000;stroke:#ff0000;" x="312.035354" xlink:href="#m5991a4c859" y="214.326912"/>
     <use style="fill:#ff0000;stroke:#ff0000;" x="312.955055" xlink:href="#m5991a4c859" y="214.326912"/>
     <use style="fill:#ff0000;stroke:#ff0000;" x="313.874757" xlink:href="#m5991a4c859" y="214.326912"/>
     <use style="fill:#ff0000;stroke:#ff0000;" x="314.794458" xlink:href="#m5991a4c859" y="214.326912"/>
     <use style="fill:#ff0000;stroke:#ff0000;" x="315.714159" xlink:href="#m5991a4c859" y="214.326912"/>
     <use style="fill:#ff0000;stroke:#ff0000;" x="316.63386" xlink:href="#m5991a4c859" y="214.326912"/>
     <use style="fill:#ff0000;stroke:#ff0000;" x="317.553562" xlink:href="#m5991a4c859" y="214.326912"/>
     <use style="fill:#ff0000;stroke:#ff0000;" x="318.473263" xlink:href="#m5991a4c859" y="214.326912"/>
     <use style="fill:#ff0000;stroke:#ff0000;" x="319.392964" xlink:href="#m5991a4c859" y="214.326912"/>
     <use style="fill:#ff0000;stroke:#ff0000;" x="320.312665" xlink:href="#m5991a4c859" y="214.326912"/>
     <use style="fill:#ff0000;stroke:#ff0000;" x="321.232367" xlink:href="#m5991a4c859" y="214.326912"/>
     <use style="fill:#ff0000;stroke:#ff0000;" x="322.152068" xlink:href="#m5991a4c859" y="214.326912"/>
     <use style="fill:#ff0000;stroke:#ff0000;" x="323.071769" xlink:href="#m5991a4c859" y="214.326912"/>
     <use style="fill:#ff0000;stroke:#ff0000;" x="323.991471" xlink:href="#m5991a4c859" y="214.326912"/>
     <use style="fill:#ff0000;stroke:#ff0000;" x="324.911172" xlink:href="#m5991a4c859" y="214.326912"/>
     <use style="fill:#ff0000;stroke:#ff0000;" x="325.830873" xlink:href="#m5991a4c859" y="214.326912"/>
     <use style="fill:#ff0000;stroke:#ff0000;" x="326.750574" xlink:href="#m5991a4c859" y="214.326912"/>
     <use style="fill:#ff0000;stroke:#ff0000;" x="327.670276" xlink:href="#m5991a4c859" y="214.326912"/>
     <use style="fill:#ff0000;stroke:#ff0000;" x="328.589977" xlink:href="#m5991a4c859" y="214.326912"/>
     <use style="fill:#ff0000;stroke:#ff0000;" x="329.509678" xlink:href="#m5991a4c859" y="214.326912"/>
     <use style="fill:#ff0000;stroke:#ff0000;" x="330.429379" xlink:href="#m5991a4c859" y="214.326912"/>
     <use style="fill:#ff0000;stroke:#ff0000;" x="331.349081" xlink:href="#m5991a4c859" y="214.326912"/>
     <use style="fill:#ff0000;stroke:#ff0000;" x="332.268782" xlink:href="#m5991a4c859" y="214.326912"/>
     <use style="fill:#ff0000;stroke:#ff0000;" x="333.188483" xlink:href="#m5991a4c859" y="214.326912"/>
     <use style="fill:#ff0000;stroke:#ff0000;" x="334.108184" xlink:href="#m5991a4c859" y="214.326912"/>
     <use style="fill:#ff0000;stroke:#ff0000;" x="335.027886" xlink:href="#m5991a4c859" y="214.326912"/>
     <use style="fill:#ff0000;stroke:#ff0000;" x="335.947587" xlink:href="#m5991a4c859" y="214.326912"/>
     <use style="fill:#ff0000;stroke:#ff0000;" x="336.867288" xlink:href="#m5991a4c859" y="214.326912"/>
     <use style="fill:#ff0000;stroke:#ff0000;" x="337.786989" xlink:href="#m5991a4c859" y="214.326912"/>
     <use style="fill:#ff0000;stroke:#ff0000;" x="338.706691" xlink:href="#m5991a4c859" y="214.326912"/>
     <use style="fill:#ff0000;stroke:#ff0000;" x="339.626392" xlink:href="#m5991a4c859" y="214.326912"/>
     <use style="fill:#ff0000;stroke:#ff0000;" x="340.546093" xlink:href="#m5991a4c859" y="214.326912"/>
     <use style="fill:#ff0000;stroke:#ff0000;" x="341.465794" xlink:href="#m5991a4c859" y="214.326912"/>
     <use style="fill:#ff0000;stroke:#ff0000;" x="342.385496" xlink:href="#m5991a4c859" y="214.326912"/>
     <use style="fill:#ff0000;stroke:#ff0000;" x="343.305197" xlink:href="#m5991a4c859" y="214.326912"/>
     <use style="fill:#ff0000;stroke:#ff0000;" x="344.224898" xlink:href="#m5991a4c859" y="214.326912"/>
     <use style="fill:#ff0000;stroke:#ff0000;" x="345.1446" xlink:href="#m5991a4c859" y="214.326912"/>
     <use style="fill:#ff0000;stroke:#ff0000;" x="346.064301" xlink:href="#m5991a4c859" y="214.326912"/>
     <use style="fill:#ff0000;stroke:#ff0000;" x="346.984002" xlink:href="#m5991a4c859" y="214.326912"/>
     <use style="fill:#ff0000;stroke:#ff0000;" x="347.903703" xlink:href="#m5991a4c859" y="214.326912"/>
     <use style="fill:#ff0000;stroke:#ff0000;" x="348.823405" xlink:href="#m5991a4c859" y="214.326912"/>
     <use style="fill:#ff0000;stroke:#ff0000;" x="349.743106" xlink:href="#m5991a4c859" y="214.326912"/>
     <use style="fill:#ff0000;stroke:#ff0000;" x="350.662807" xlink:href="#m5991a4c859" y="214.326912"/>
     <use style="fill:#ff0000;stroke:#ff0000;" x="351.582508" xlink:href="#m5991a4c859" y="214.326912"/>
     <use style="fill:#ff0000;stroke:#ff0000;" x="352.50221" xlink:href="#m5991a4c859" y="214.326912"/>
     <use style="fill:#ff0000;stroke:#ff0000;" x="353.421911" xlink:href="#m5991a4c859" y="214.326912"/>
     <use style="fill:#ff0000;stroke:#ff0000;" x="354.341612" xlink:href="#m5991a4c859" y="214.326912"/>
     <use style="fill:#ff0000;stroke:#ff0000;" x="355.261313" xlink:href="#m5991a4c859" y="214.326912"/>
     <use style="fill:#ff0000;stroke:#ff0000;" x="356.181015" xlink:href="#m5991a4c859" y="214.326912"/>
     <use style="fill:#ff0000;stroke:#ff0000;" x="357.100716" xlink:href="#m5991a4c859" y="214.326912"/>
     <use style="fill:#ff0000;stroke:#ff0000;" x="358.020417" xlink:href="#m5991a4c859" y="214.326912"/>
     <use style="fill:#ff0000;stroke:#ff0000;" x="358.940118" xlink:href="#m5991a4c859" y="214.326912"/>
     <use style="fill:#ff0000;stroke:#ff0000;" x="359.85982" xlink:href="#m5991a4c859" y="214.326912"/>
     <use style="fill:#ff0000;stroke:#ff0000;" x="360.779521" xlink:href="#m5991a4c859" y="214.326912"/>
     <use style="fill:#ff0000;stroke:#ff0000;" x="361.699222" xlink:href="#m5991a4c859" y="214.326912"/>
     <use style="fill:#ff0000;stroke:#ff0000;" x="362.618924" xlink:href="#m5991a4c859" y="214.326912"/>
     <use style="fill:#ff0000;stroke:#ff0000;" x="363.538625" xlink:href="#m5991a4c859" y="214.326912"/>
     <use style="fill:#ff0000;stroke:#ff0000;" x="364.458326" xlink:href="#m5991a4c859" y="214.326912"/>
     <use style="fill:#ff0000;stroke:#ff0000;" x="365.378027" xlink:href="#m5991a4c859" y="214.326912"/>
     <use style="fill:#ff0000;stroke:#ff0000;" x="366.297729" xlink:href="#m5991a4c859" y="214.326912"/>
     <use style="fill:#ff0000;stroke:#ff0000;" x="367.21743" xlink:href="#m5991a4c859" y="214.326912"/>
     <use style="fill:#ff0000;stroke:#ff0000;" x="368.137131" xlink:href="#m5991a4c859" y="214.326912"/>
     <use style="fill:#ff0000;stroke:#ff0000;" x="369.056832" xlink:href="#m5991a4c859" y="214.326912"/>
     <use style="fill:#ff0000;stroke:#ff0000;" x="369.976534" xlink:href="#m5991a4c859" y="214.326912"/>
     <use style="fill:#ff0000;stroke:#ff0000;" x="370.896235" xlink:href="#m5991a4c859" y="214.326912"/>
     <use style="fill:#ff0000;stroke:#ff0000;" x="371.815936" xlink:href="#m5991a4c859" y="214.326912"/>
     <use style="fill:#ff0000;stroke:#ff0000;" x="372.735637" xlink:href="#m5991a4c859" y="214.326912"/>
     <use style="fill:#ff0000;stroke:#ff0000;" x="373.655339" xlink:href="#m5991a4c859" y="214.326912"/>
     <use style="fill:#ff0000;stroke:#ff0000;" x="374.57504" xlink:href="#m5991a4c859" y="214.326912"/>
     <use style="fill:#ff0000;stroke:#ff0000;" x="375.494741" xlink:href="#m5991a4c859" y="214.326912"/>
     <use style="fill:#ff0000;stroke:#ff0000;" x="376.414442" xlink:href="#m5991a4c859" y="214.326912"/>
     <use style="fill:#ff0000;stroke:#ff0000;" x="377.334144" xlink:href="#m5991a4c859" y="214.326912"/>
     <use style="fill:#ff0000;stroke:#ff0000;" x="378.253845" xlink:href="#m5991a4c859" y="214.326912"/>
     <use style="fill:#ff0000;stroke:#ff0000;" x="379.173546" xlink:href="#m5991a4c859" y="214.326912"/>
     <use style="fill:#ff0000;stroke:#ff0000;" x="380.093247" xlink:href="#m5991a4c859" y="214.326912"/>
     <use style="fill:#ff0000;stroke:#ff0000;" x="381.012949" xlink:href="#m5991a4c859" y="214.326912"/>
     <use style="fill:#ff0000;stroke:#ff0000;" x="381.93265" xlink:href="#m5991a4c859" y="214.326912"/>
     <use style="fill:#ff0000;stroke:#ff0000;" x="382.852351" xlink:href="#m5991a4c859" y="214.326912"/>
     <use style="fill:#ff0000;stroke:#ff0000;" x="383.772053" xlink:href="#m5991a4c859" y="214.326912"/>
     <use style="fill:#ff0000;stroke:#ff0000;" x="384.691754" xlink:href="#m5991a4c859" y="214.326912"/>
     <use style="fill:#ff0000;stroke:#ff0000;" x="385.611455" xlink:href="#m5991a4c859" y="214.326912"/>
     <use style="fill:#ff0000;stroke:#ff0000;" x="386.531156" xlink:href="#m5991a4c859" y="214.326912"/>
     <use style="fill:#ff0000;stroke:#ff0000;" x="387.450858" xlink:href="#m5991a4c859" y="214.326912"/>
     <use style="fill:#ff0000;stroke:#ff0000;" x="388.370559" xlink:href="#m5991a4c859" y="214.326912"/>
     <use style="fill:#ff0000;stroke:#ff0000;" x="389.29026" xlink:href="#m5991a4c859" y="214.326912"/>
     <use style="fill:#ff0000;stroke:#ff0000;" x="390.209961" xlink:href="#m5991a4c859" y="214.326912"/>
     <use style="fill:#ff0000;stroke:#ff0000;" x="391.129663" xlink:href="#m5991a4c859" y="214.326912"/>
     <use style="fill:#ff0000;stroke:#ff0000;" x="392.049364" xlink:href="#m5991a4c859" y="214.326912"/>
     <use style="fill:#ff0000;stroke:#ff0000;" x="392.969065" xlink:href="#m5991a4c859" y="214.326912"/>
     <use style="fill:#ff0000;stroke:#ff0000;" x="393.888766" xlink:href="#m5991a4c859" y="214.326912"/>
     <use style="fill:#ff0000;stroke:#ff0000;" x="394.808468" xlink:href="#m5991a4c859" y="214.326912"/>
     <use style="fill:#ff0000;stroke:#ff0000;" x="395.728169" xlink:href="#m5991a4c859" y="214.326912"/>
     <use style="fill:#ff0000;stroke:#ff0000;" x="396.64787" xlink:href="#m5991a4c859" y="214.326912"/>
     <use style="fill:#ff0000;stroke:#ff0000;" x="397.567571" xlink:href="#m5991a4c859" y="214.326912"/>
     <use style="fill:#ff0000;stroke:#ff0000;" x="398.487273" xlink:href="#m5991a4c859" y="214.326912"/>
    </g>
   </g>
   <g id="patch_3">
    <path d="M 57.6 307.584 
L 57.6 41.472 
" style="fill:none;stroke:#000000;stroke-linecap:square;stroke-linejoin:miter;stroke-width:0.8;"/>
   </g>
   <g id="patch_4">
    <path d="M 414.72 307.584 
L 414.72 41.472 
" style="fill:none;stroke:#000000;stroke-linecap:square;stroke-linejoin:miter;stroke-width:0.8;"/>
   </g>
   <g id="patch_5">
    <path d="M 57.6 307.584 
L 414.72 307.584 
" style="fill:none;stroke:#000000;stroke-linecap:square;stroke-linejoin:miter;stroke-width:0.8;"/>
   </g>
   <g id="patch_6">
    <path d="M 57.6 41.472 
L 414.72 41.472 
" style="fill:none;stroke:#000000;stroke-linecap:square;stroke-linejoin:miter;stroke-width:0.8;"/>
   </g>
  </g>
 </g>
 <defs>
  <clipPath id="p7cb9733313">
   <rect height="266.112" width="357.12" x="57.6" y="41.472"/>
  </clipPath>
 </defs>
</svg>
