<?xml version="1.0" encoding="utf-8" standalone="no"?>
<!DOCTYPE svg PUBLIC "-//W3C//DTD SVG 1.1//EN"
  "http://www.w3.org/Graphics/SVG/1.1/DTD/svg11.dtd">
<!-- Created with matplotlib (https://matplotlib.org/) -->
<svg height="345.6pt" version="1.1" viewBox="0 0 460.8 345.6" width="460.8pt" xmlns="http://www.w3.org/2000/svg" xmlns:xlink="http://www.w3.org/1999/xlink">
 <defs>
  <style type="text/css">
*{stroke-linecap:butt;stroke-linejoin:round;}
  </style>
 </defs>
 <g id="figure_1">
  <g id="patch_1">
   <path d="M 0 345.6 
L 460.8 345.6 
L 460.8 0 
L 0 0 
z
" style="fill:#ffffff;"/>
  </g>
  <g id="axes_1">
   <g id="patch_2">
    <path d="M 57.6 307.584 
L 414.72 307.584 
L 414.72 41.472 
L 57.6 41.472 
z
" style="fill:#ffffff;"/>
   </g>
   <g id="line2d_1">
    <path clip-path="url(#pea1c33fac9)" d="M 73.832727 207.873812 
L 75.009012 256.061977 
L 82.066719 256.061977 
L 83.243004 245.229812 
L 84.419289 245.229812 
L 85.595573 251.249463 
L 86.771858 251.249463 
L 87.948142 295.488 
L 89.124427 248.356895 
L 91.476996 248.356895 
L 92.653281 199.336014 
L 93.829565 187.847765 
L 98.534704 187.847765 
L 99.710988 144.386977 
L 100.887273 144.386977 
L 102.063557 93.656265 
L 103.239842 93.656265 
L 104.416126 110.978728 
L 105.592411 95.316873 
L 109.121265 95.316873 
L 110.297549 80.362718 
L 112.650119 80.362718 
L 113.826403 97.018543 
L 115.002688 97.018543 
L 117.355257 68.459192 
L 118.531542 68.459192 
L 119.707826 53.568 
L 120.884111 53.568 
L 122.060395 70.943415 
L 123.23668 70.943415 
L 124.412964 56.151277 
L 125.589249 56.151277 
L 127.941818 90.028365 
L 130.294387 90.028365 
L 131.470672 75.174326 
L 132.646957 75.174326 
L 133.823241 59.165674 
L 137.352095 59.165674 
L 138.528379 76.780944 
L 139.704664 76.780944 
L 140.880949 93.311546 
L 142.057233 93.311546 
L 143.233518 108.924266 
L 145.586087 108.924266 
L 146.762372 94.543589 
L 147.938656 94.543589 
L 150.291225 127.813725 
L 153.820079 127.813725 
L 154.996364 111.643616 
L 156.172648 111.643616 
L 157.348933 97.725699 
L 158.525217 97.725699 
L 159.701502 113.898247 
L 162.054071 113.898247 
L 163.230356 129.931926 
L 164.40664 129.931926 
L 165.582925 146.156732 
L 166.759209 146.156732 
L 167.935494 149.984838 
L 172.640632 149.984838 
L 173.816917 167.387268 
L 174.993202 167.387268 
L 176.169486 150.536679 
L 177.345771 150.536679 
L 178.522055 166.182514 
L 180.874625 166.182514 
L 182.050909 148.950885 
L 183.227194 148.950885 
L 184.403478 134.481031 
L 185.579763 134.481031 
L 186.756047 118.256134 
L 187.932332 133.845283 
L 189.108617 133.845283 
L 190.284901 117.142315 
L 191.461186 117.142315 
L 192.63747 136.306606 
L 193.813755 136.306606 
L 194.99004 154.510223 
L 196.166324 156.882445 
L 197.342609 156.882445 
L 198.518893 174.227226 
L 199.695178 174.227226 
L 200.871462 157.822223 
L 202.047747 157.822223 
L 203.224032 141.567245 
L 204.400316 141.567245 
L 205.576601 125.450305 
L 214.986877 125.450305 
L 216.163162 142.236368 
L 217.339447 146.764062 
L 219.692016 146.764062 
L 220.8683 147.362528 
L 222.044585 147.362528 
L 223.22087 164.768599 
L 224.397154 164.768599 
L 225.573439 149.843433 
L 226.749723 165.389866 
L 227.926008 165.389866 
L 229.102292 182.569135 
L 231.454862 182.569135 
L 232.631146 186.995527 
L 233.807431 186.995527 
L 234.983715 202.786387 
L 236.16 202.786387 
L 237.336285 220.156747 
L 238.512569 220.156747 
L 240.865138 191.492738 
L 242.041423 191.492738 
L 243.217708 187.945838 
L 244.393992 187.945838 
L 245.570277 171.079457 
L 249.09913 171.079457 
L 250.275415 153.388379 
L 251.4517 152.826609 
L 252.627984 152.826609 
L 253.804269 152.272915 
L 254.980553 152.272915 
L 256.156838 133.507684 
L 257.333123 151.537352 
L 259.685692 151.537352 
L 260.861976 166.246657 
L 263.214545 166.246657 
L 264.39083 182.393885 
L 265.567115 182.393885 
L 266.743399 168.0719 
L 267.919684 170.695117 
L 269.095968 170.695117 
L 270.272253 186.950511 
L 272.624822 186.950511 
L 273.801107 170.078534 
L 274.977391 185.492283 
L 276.153676 185.492283 
L 277.32996 200.797409 
L 280.858814 200.797409 
L 282.035099 184.378136 
L 283.211383 184.378136 
L 284.387668 200.986103 
L 285.563953 200.986103 
L 286.740237 184.053496 
L 287.916522 184.053496 
L 289.092806 198.495525 
L 290.269091 198.495525 
L 291.445375 214.326912 
L 398.487273 214.326912 
L 398.487273 214.326912 
" style="fill:none;stroke:#ff0000;stroke-linecap:square;stroke-width:12;"/>
    <defs>
     <path d="M 0 3 
C 0.795609 3 1.55874 2.683901 2.12132 2.12132 
C 2.683901 1.55874 3 0.795609 3 0 
C 3 -0.795609 2.683901 -1.55874 2.12132 -2.12132 
C 1.55874 -2.683901 0.795609 -3 0 -3 
C -0.795609 -3 -1.55874 -2.683901 -2.12132 -2.12132 
C -2.683901 -1.55874 -3 -0.795609 -3 0 
C -3 0.795609 -2.683901 1.55874 -2.12132 2.12132 
C -1.55874 2.683901 -0.795609 3 0 3 
z
" id="m3f2579ce89" style="stroke:#ff0000;"/>
    </defs>
    <g clip-path="url(#pea1c33fac9)">
     <use style="fill:#ff0000;stroke:#ff0000;" x="73.832727" xlink:href="#m3f2579ce89" y="207.873812"/>
     <use style="fill:#ff0000;stroke:#ff0000;" x="75.009012" xlink:href="#m3f2579ce89" y="256.061977"/>
     <use style="fill:#ff0000;stroke:#ff0000;" x="76.185296" xlink:href="#m3f2579ce89" y="256.061977"/>
     <use style="fill:#ff0000;stroke:#ff0000;" x="77.361581" xlink:href="#m3f2579ce89" y="256.061977"/>
     <use style="fill:#ff0000;stroke:#ff0000;" x="78.537866" xlink:href="#m3f2579ce89" y="256.061977"/>
     <use style="fill:#ff0000;stroke:#ff0000;" x="79.71415" xlink:href="#m3f2579ce89" y="256.061977"/>
     <use style="fill:#ff0000;stroke:#ff0000;" x="80.890435" xlink:href="#m3f2579ce89" y="256.061977"/>
     <use style="fill:#ff0000;stroke:#ff0000;" x="82.066719" xlink:href="#m3f2579ce89" y="256.061977"/>
     <use style="fill:#ff0000;stroke:#ff0000;" x="83.243004" xlink:href="#m3f2579ce89" y="245.229812"/>
     <use style="fill:#ff0000;stroke:#ff0000;" x="84.419289" xlink:href="#m3f2579ce89" y="245.229812"/>
     <use style="fill:#ff0000;stroke:#ff0000;" x="85.595573" xlink:href="#m3f2579ce89" y="251.249463"/>
     <use style="fill:#ff0000;stroke:#ff0000;" x="86.771858" xlink:href="#m3f2579ce89" y="251.249463"/>
     <use style="fill:#ff0000;stroke:#ff0000;" x="87.948142" xlink:href="#m3f2579ce89" y="295.488"/>
     <use style="fill:#ff0000;stroke:#ff0000;" x="89.124427" xlink:href="#m3f2579ce89" y="248.356895"/>
     <use style="fill:#ff0000;stroke:#ff0000;" x="90.300711" xlink:href="#m3f2579ce89" y="248.356895"/>
     <use style="fill:#ff0000;stroke:#ff0000;" x="91.476996" xlink:href="#m3f2579ce89" y="248.356895"/>
     <use style="fill:#ff0000;stroke:#ff0000;" x="92.653281" xlink:href="#m3f2579ce89" y="199.336014"/>
     <use style="fill:#ff0000;stroke:#ff0000;" x="93.829565" xlink:href="#m3f2579ce89" y="187.847765"/>
     <use style="fill:#ff0000;stroke:#ff0000;" x="95.00585" xlink:href="#m3f2579ce89" y="187.847765"/>
     <use style="fill:#ff0000;stroke:#ff0000;" x="96.182134" xlink:href="#m3f2579ce89" y="187.847765"/>
     <use style="fill:#ff0000;stroke:#ff0000;" x="97.358419" xlink:href="#m3f2579ce89" y="187.847765"/>
     <use style="fill:#ff0000;stroke:#ff0000;" x="98.534704" xlink:href="#m3f2579ce89" y="187.847765"/>
     <use style="fill:#ff0000;stroke:#ff0000;" x="99.710988" xlink:href="#m3f2579ce89" y="144.386977"/>
     <use style="fill:#ff0000;stroke:#ff0000;" x="100.887273" xlink:href="#m3f2579ce89" y="144.386977"/>
     <use style="fill:#ff0000;stroke:#ff0000;" x="102.063557" xlink:href="#m3f2579ce89" y="93.656265"/>
     <use style="fill:#ff0000;stroke:#ff0000;" x="103.239842" xlink:href="#m3f2579ce89" y="93.656265"/>
     <use style="fill:#ff0000;stroke:#ff0000;" x="104.416126" xlink:href="#m3f2579ce89" y="110.978728"/>
     <use style="fill:#ff0000;stroke:#ff0000;" x="105.592411" xlink:href="#m3f2579ce89" y="95.316873"/>
     <use style="fill:#ff0000;stroke:#ff0000;" x="106.768696" xlink:href="#m3f2579ce89" y="95.316873"/>
     <use style="fill:#ff0000;stroke:#ff0000;" x="107.94498" xlink:href="#m3f2579ce89" y="95.316873"/>
     <use style="fill:#ff0000;stroke:#ff0000;" x="109.121265" xlink:href="#m3f2579ce89" y="95.316873"/>
     <use style="fill:#ff0000;stroke:#ff0000;" x="110.297549" xlink:href="#m3f2579ce89" y="80.362718"/>
     <use style="fill:#ff0000;stroke:#ff0000;" x="111.473834" xlink:href="#m3f2579ce89" y="80.362718"/>
     <use style="fill:#ff0000;stroke:#ff0000;" x="112.650119" xlink:href="#m3f2579ce89" y="80.362718"/>
     <use style="fill:#ff0000;stroke:#ff0000;" x="113.826403" xlink:href="#m3f2579ce89" y="97.018543"/>
     <use style="fill:#ff0000;stroke:#ff0000;" x="115.002688" xlink:href="#m3f2579ce89" y="97.018543"/>
     <use style="fill:#ff0000;stroke:#ff0000;" x="116.178972" xlink:href="#m3f2579ce89" y="83.228386"/>
     <use style="fill:#ff0000;stroke:#ff0000;" x="117.355257" xlink:href="#m3f2579ce89" y="68.459192"/>
     <use style="fill:#ff0000;stroke:#ff0000;" x="118.531542" xlink:href="#m3f2579ce89" y="68.459192"/>
     <use style="fill:#ff0000;stroke:#ff0000;" x="119.707826" xlink:href="#m3f2579ce89" y="53.568"/>
     <use style="fill:#ff0000;stroke:#ff0000;" x="120.884111" xlink:href="#m3f2579ce89" y="53.568"/>
     <use style="fill:#ff0000;stroke:#ff0000;" x="122.060395" xlink:href="#m3f2579ce89" y="70.943415"/>
     <use style="fill:#ff0000;stroke:#ff0000;" x="123.23668" xlink:href="#m3f2579ce89" y="70.943415"/>
     <use style="fill:#ff0000;stroke:#ff0000;" x="124.412964" xlink:href="#m3f2579ce89" y="56.151277"/>
     <use style="fill:#ff0000;stroke:#ff0000;" x="125.589249" xlink:href="#m3f2579ce89" y="56.151277"/>
     <use style="fill:#ff0000;stroke:#ff0000;" x="126.765534" xlink:href="#m3f2579ce89" y="72.718497"/>
     <use style="fill:#ff0000;stroke:#ff0000;" x="127.941818" xlink:href="#m3f2579ce89" y="90.028365"/>
     <use style="fill:#ff0000;stroke:#ff0000;" x="129.118103" xlink:href="#m3f2579ce89" y="90.028365"/>
     <use style="fill:#ff0000;stroke:#ff0000;" x="130.294387" xlink:href="#m3f2579ce89" y="90.028365"/>
     <use style="fill:#ff0000;stroke:#ff0000;" x="131.470672" xlink:href="#m3f2579ce89" y="75.174326"/>
     <use style="fill:#ff0000;stroke:#ff0000;" x="132.646957" xlink:href="#m3f2579ce89" y="75.174326"/>
     <use style="fill:#ff0000;stroke:#ff0000;" x="133.823241" xlink:href="#m3f2579ce89" y="59.165674"/>
     <use style="fill:#ff0000;stroke:#ff0000;" x="134.999526" xlink:href="#m3f2579ce89" y="59.165674"/>
     <use style="fill:#ff0000;stroke:#ff0000;" x="136.17581" xlink:href="#m3f2579ce89" y="59.165674"/>
     <use style="fill:#ff0000;stroke:#ff0000;" x="137.352095" xlink:href="#m3f2579ce89" y="59.165674"/>
     <use style="fill:#ff0000;stroke:#ff0000;" x="138.528379" xlink:href="#m3f2579ce89" y="76.780944"/>
     <use style="fill:#ff0000;stroke:#ff0000;" x="139.704664" xlink:href="#m3f2579ce89" y="76.780944"/>
     <use style="fill:#ff0000;stroke:#ff0000;" x="140.880949" xlink:href="#m3f2579ce89" y="93.311546"/>
     <use style="fill:#ff0000;stroke:#ff0000;" x="142.057233" xlink:href="#m3f2579ce89" y="93.311546"/>
     <use style="fill:#ff0000;stroke:#ff0000;" x="143.233518" xlink:href="#m3f2579ce89" y="108.924266"/>
     <use style="fill:#ff0000;stroke:#ff0000;" x="144.409802" xlink:href="#m3f2579ce89" y="108.924266"/>
     <use style="fill:#ff0000;stroke:#ff0000;" x="145.586087" xlink:href="#m3f2579ce89" y="108.924266"/>
     <use style="fill:#ff0000;stroke:#ff0000;" x="146.762372" xlink:href="#m3f2579ce89" y="94.543589"/>
     <use style="fill:#ff0000;stroke:#ff0000;" x="147.938656" xlink:href="#m3f2579ce89" y="94.543589"/>
     <use style="fill:#ff0000;stroke:#ff0000;" x="149.114941" xlink:href="#m3f2579ce89" y="110.869924"/>
     <use style="fill:#ff0000;stroke:#ff0000;" x="150.291225" xlink:href="#m3f2579ce89" y="127.813725"/>
     <use style="fill:#ff0000;stroke:#ff0000;" x="151.46751" xlink:href="#m3f2579ce89" y="127.813725"/>
     <use style="fill:#ff0000;stroke:#ff0000;" x="152.643794" xlink:href="#m3f2579ce89" y="127.813725"/>
     <use style="fill:#ff0000;stroke:#ff0000;" x="153.820079" xlink:href="#m3f2579ce89" y="127.813725"/>
     <use style="fill:#ff0000;stroke:#ff0000;" x="154.996364" xlink:href="#m3f2579ce89" y="111.643616"/>
     <use style="fill:#ff0000;stroke:#ff0000;" x="156.172648" xlink:href="#m3f2579ce89" y="111.643616"/>
     <use style="fill:#ff0000;stroke:#ff0000;" x="157.348933" xlink:href="#m3f2579ce89" y="97.725699"/>
     <use style="fill:#ff0000;stroke:#ff0000;" x="158.525217" xlink:href="#m3f2579ce89" y="97.725699"/>
     <use style="fill:#ff0000;stroke:#ff0000;" x="159.701502" xlink:href="#m3f2579ce89" y="113.898247"/>
     <use style="fill:#ff0000;stroke:#ff0000;" x="160.877787" xlink:href="#m3f2579ce89" y="113.898247"/>
     <use style="fill:#ff0000;stroke:#ff0000;" x="162.054071" xlink:href="#m3f2579ce89" y="113.898247"/>
     <use style="fill:#ff0000;stroke:#ff0000;" x="163.230356" xlink:href="#m3f2579ce89" y="129.931926"/>
     <use style="fill:#ff0000;stroke:#ff0000;" x="164.40664" xlink:href="#m3f2579ce89" y="129.931926"/>
     <use style="fill:#ff0000;stroke:#ff0000;" x="165.582925" xlink:href="#m3f2579ce89" y="146.156732"/>
     <use style="fill:#ff0000;stroke:#ff0000;" x="166.759209" xlink:href="#m3f2579ce89" y="146.156732"/>
     <use style="fill:#ff0000;stroke:#ff0000;" x="167.935494" xlink:href="#m3f2579ce89" y="149.984838"/>
     <use style="fill:#ff0000;stroke:#ff0000;" x="169.111779" xlink:href="#m3f2579ce89" y="149.984838"/>
     <use style="fill:#ff0000;stroke:#ff0000;" x="170.288063" xlink:href="#m3f2579ce89" y="149.984838"/>
     <use style="fill:#ff0000;stroke:#ff0000;" x="171.464348" xlink:href="#m3f2579ce89" y="149.984838"/>
     <use style="fill:#ff0000;stroke:#ff0000;" x="172.640632" xlink:href="#m3f2579ce89" y="149.984838"/>
     <use style="fill:#ff0000;stroke:#ff0000;" x="173.816917" xlink:href="#m3f2579ce89" y="167.387268"/>
     <use style="fill:#ff0000;stroke:#ff0000;" x="174.993202" xlink:href="#m3f2579ce89" y="167.387268"/>
     <use style="fill:#ff0000;stroke:#ff0000;" x="176.169486" xlink:href="#m3f2579ce89" y="150.536679"/>
     <use style="fill:#ff0000;stroke:#ff0000;" x="177.345771" xlink:href="#m3f2579ce89" y="150.536679"/>
     <use style="fill:#ff0000;stroke:#ff0000;" x="178.522055" xlink:href="#m3f2579ce89" y="166.182514"/>
     <use style="fill:#ff0000;stroke:#ff0000;" x="179.69834" xlink:href="#m3f2579ce89" y="166.182514"/>
     <use style="fill:#ff0000;stroke:#ff0000;" x="180.874625" xlink:href="#m3f2579ce89" y="166.182514"/>
     <use style="fill:#ff0000;stroke:#ff0000;" x="182.050909" xlink:href="#m3f2579ce89" y="148.950885"/>
     <use style="fill:#ff0000;stroke:#ff0000;" x="183.227194" xlink:href="#m3f2579ce89" y="148.950885"/>
     <use style="fill:#ff0000;stroke:#ff0000;" x="184.403478" xlink:href="#m3f2579ce89" y="134.481031"/>
     <use style="fill:#ff0000;stroke:#ff0000;" x="185.579763" xlink:href="#m3f2579ce89" y="134.481031"/>
     <use style="fill:#ff0000;stroke:#ff0000;" x="186.756047" xlink:href="#m3f2579ce89" y="118.256134"/>
     <use style="fill:#ff0000;stroke:#ff0000;" x="187.932332" xlink:href="#m3f2579ce89" y="133.845283"/>
     <use style="fill:#ff0000;stroke:#ff0000;" x="189.108617" xlink:href="#m3f2579ce89" y="133.845283"/>
     <use style="fill:#ff0000;stroke:#ff0000;" x="190.284901" xlink:href="#m3f2579ce89" y="117.142315"/>
     <use style="fill:#ff0000;stroke:#ff0000;" x="191.461186" xlink:href="#m3f2579ce89" y="117.142315"/>
     <use style="fill:#ff0000;stroke:#ff0000;" x="192.63747" xlink:href="#m3f2579ce89" y="136.306606"/>
     <use style="fill:#ff0000;stroke:#ff0000;" x="193.813755" xlink:href="#m3f2579ce89" y="136.306606"/>
     <use style="fill:#ff0000;stroke:#ff0000;" x="194.99004" xlink:href="#m3f2579ce89" y="154.510223"/>
     <use style="fill:#ff0000;stroke:#ff0000;" x="196.166324" xlink:href="#m3f2579ce89" y="156.882445"/>
     <use style="fill:#ff0000;stroke:#ff0000;" x="197.342609" xlink:href="#m3f2579ce89" y="156.882445"/>
     <use style="fill:#ff0000;stroke:#ff0000;" x="198.518893" xlink:href="#m3f2579ce89" y="174.227226"/>
     <use style="fill:#ff0000;stroke:#ff0000;" x="199.695178" xlink:href="#m3f2579ce89" y="174.227226"/>
     <use style="fill:#ff0000;stroke:#ff0000;" x="200.871462" xlink:href="#m3f2579ce89" y="157.822223"/>
     <use style="fill:#ff0000;stroke:#ff0000;" x="202.047747" xlink:href="#m3f2579ce89" y="157.822223"/>
     <use style="fill:#ff0000;stroke:#ff0000;" x="203.224032" xlink:href="#m3f2579ce89" y="141.567245"/>
     <use style="fill:#ff0000;stroke:#ff0000;" x="204.400316" xlink:href="#m3f2579ce89" y="141.567245"/>
     <use style="fill:#ff0000;stroke:#ff0000;" x="205.576601" xlink:href="#m3f2579ce89" y="125.450305"/>
     <use style="fill:#ff0000;stroke:#ff0000;" x="206.752885" xlink:href="#m3f2579ce89" y="125.450305"/>
     <use style="fill:#ff0000;stroke:#ff0000;" x="207.92917" xlink:href="#m3f2579ce89" y="125.450305"/>
     <use style="fill:#ff0000;stroke:#ff0000;" x="209.105455" xlink:href="#m3f2579ce89" y="125.450305"/>
     <use style="fill:#ff0000;stroke:#ff0000;" x="210.281739" xlink:href="#m3f2579ce89" y="125.450305"/>
     <use style="fill:#ff0000;stroke:#ff0000;" x="211.458024" xlink:href="#m3f2579ce89" y="125.450305"/>
     <use style="fill:#ff0000;stroke:#ff0000;" x="212.634308" xlink:href="#m3f2579ce89" y="125.450305"/>
     <use style="fill:#ff0000;stroke:#ff0000;" x="213.810593" xlink:href="#m3f2579ce89" y="125.450305"/>
     <use style="fill:#ff0000;stroke:#ff0000;" x="214.986877" xlink:href="#m3f2579ce89" y="125.450305"/>
     <use style="fill:#ff0000;stroke:#ff0000;" x="216.163162" xlink:href="#m3f2579ce89" y="142.236368"/>
     <use style="fill:#ff0000;stroke:#ff0000;" x="217.339447" xlink:href="#m3f2579ce89" y="146.764062"/>
     <use style="fill:#ff0000;stroke:#ff0000;" x="218.515731" xlink:href="#m3f2579ce89" y="146.764062"/>
     <use style="fill:#ff0000;stroke:#ff0000;" x="219.692016" xlink:href="#m3f2579ce89" y="146.764062"/>
     <use style="fill:#ff0000;stroke:#ff0000;" x="220.8683" xlink:href="#m3f2579ce89" y="147.362528"/>
     <use style="fill:#ff0000;stroke:#ff0000;" x="222.044585" xlink:href="#m3f2579ce89" y="147.362528"/>
     <use style="fill:#ff0000;stroke:#ff0000;" x="223.22087" xlink:href="#m3f2579ce89" y="164.768599"/>
     <use style="fill:#ff0000;stroke:#ff0000;" x="224.397154" xlink:href="#m3f2579ce89" y="164.768599"/>
     <use style="fill:#ff0000;stroke:#ff0000;" x="225.573439" xlink:href="#m3f2579ce89" y="149.843433"/>
     <use style="fill:#ff0000;stroke:#ff0000;" x="226.749723" xlink:href="#m3f2579ce89" y="165.389866"/>
     <use style="fill:#ff0000;stroke:#ff0000;" x="227.926008" xlink:href="#m3f2579ce89" y="165.389866"/>
     <use style="fill:#ff0000;stroke:#ff0000;" x="229.102292" xlink:href="#m3f2579ce89" y="182.569135"/>
     <use style="fill:#ff0000;stroke:#ff0000;" x="230.278577" xlink:href="#m3f2579ce89" y="182.569135"/>
     <use style="fill:#ff0000;stroke:#ff0000;" x="231.454862" xlink:href="#m3f2579ce89" y="182.569135"/>
     <use style="fill:#ff0000;stroke:#ff0000;" x="232.631146" xlink:href="#m3f2579ce89" y="186.995527"/>
     <use style="fill:#ff0000;stroke:#ff0000;" x="233.807431" xlink:href="#m3f2579ce89" y="186.995527"/>
     <use style="fill:#ff0000;stroke:#ff0000;" x="234.983715" xlink:href="#m3f2579ce89" y="202.786387"/>
     <use style="fill:#ff0000;stroke:#ff0000;" x="236.16" xlink:href="#m3f2579ce89" y="202.786387"/>
     <use style="fill:#ff0000;stroke:#ff0000;" x="237.336285" xlink:href="#m3f2579ce89" y="220.156747"/>
     <use style="fill:#ff0000;stroke:#ff0000;" x="238.512569" xlink:href="#m3f2579ce89" y="220.156747"/>
     <use style="fill:#ff0000;stroke:#ff0000;" x="239.688854" xlink:href="#m3f2579ce89" y="205.263368"/>
     <use style="fill:#ff0000;stroke:#ff0000;" x="240.865138" xlink:href="#m3f2579ce89" y="191.492738"/>
     <use style="fill:#ff0000;stroke:#ff0000;" x="242.041423" xlink:href="#m3f2579ce89" y="191.492738"/>
     <use style="fill:#ff0000;stroke:#ff0000;" x="243.217708" xlink:href="#m3f2579ce89" y="187.945838"/>
     <use style="fill:#ff0000;stroke:#ff0000;" x="244.393992" xlink:href="#m3f2579ce89" y="187.945838"/>
     <use style="fill:#ff0000;stroke:#ff0000;" x="245.570277" xlink:href="#m3f2579ce89" y="171.079457"/>
     <use style="fill:#ff0000;stroke:#ff0000;" x="246.746561" xlink:href="#m3f2579ce89" y="171.079457"/>
     <use style="fill:#ff0000;stroke:#ff0000;" x="247.922846" xlink:href="#m3f2579ce89" y="171.079457"/>
     <use style="fill:#ff0000;stroke:#ff0000;" x="249.09913" xlink:href="#m3f2579ce89" y="171.079457"/>
     <use style="fill:#ff0000;stroke:#ff0000;" x="250.275415" xlink:href="#m3f2579ce89" y="153.388379"/>
     <use style="fill:#ff0000;stroke:#ff0000;" x="251.4517" xlink:href="#m3f2579ce89" y="152.826609"/>
     <use style="fill:#ff0000;stroke:#ff0000;" x="252.627984" xlink:href="#m3f2579ce89" y="152.826609"/>
     <use style="fill:#ff0000;stroke:#ff0000;" x="253.804269" xlink:href="#m3f2579ce89" y="152.272915"/>
     <use style="fill:#ff0000;stroke:#ff0000;" x="254.980553" xlink:href="#m3f2579ce89" y="152.272915"/>
     <use style="fill:#ff0000;stroke:#ff0000;" x="256.156838" xlink:href="#m3f2579ce89" y="133.507684"/>
     <use style="fill:#ff0000;stroke:#ff0000;" x="257.333123" xlink:href="#m3f2579ce89" y="151.537352"/>
     <use style="fill:#ff0000;stroke:#ff0000;" x="258.509407" xlink:href="#m3f2579ce89" y="151.537352"/>
     <use style="fill:#ff0000;stroke:#ff0000;" x="259.685692" xlink:href="#m3f2579ce89" y="151.537352"/>
     <use style="fill:#ff0000;stroke:#ff0000;" x="260.861976" xlink:href="#m3f2579ce89" y="166.246657"/>
     <use style="fill:#ff0000;stroke:#ff0000;" x="262.038261" xlink:href="#m3f2579ce89" y="166.246657"/>
     <use style="fill:#ff0000;stroke:#ff0000;" x="263.214545" xlink:href="#m3f2579ce89" y="166.246657"/>
     <use style="fill:#ff0000;stroke:#ff0000;" x="264.39083" xlink:href="#m3f2579ce89" y="182.393885"/>
     <use style="fill:#ff0000;stroke:#ff0000;" x="265.567115" xlink:href="#m3f2579ce89" y="182.393885"/>
     <use style="fill:#ff0000;stroke:#ff0000;" x="266.743399" xlink:href="#m3f2579ce89" y="168.0719"/>
     <use style="fill:#ff0000;stroke:#ff0000;" x="267.919684" xlink:href="#m3f2579ce89" y="170.695117"/>
     <use style="fill:#ff0000;stroke:#ff0000;" x="269.095968" xlink:href="#m3f2579ce89" y="170.695117"/>
     <use style="fill:#ff0000;stroke:#ff0000;" x="270.272253" xlink:href="#m3f2579ce89" y="186.950511"/>
     <use style="fill:#ff0000;stroke:#ff0000;" x="271.448538" xlink:href="#m3f2579ce89" y="186.950511"/>
     <use style="fill:#ff0000;stroke:#ff0000;" x="272.624822" xlink:href="#m3f2579ce89" y="186.950511"/>
     <use style="fill:#ff0000;stroke:#ff0000;" x="273.801107" xlink:href="#m3f2579ce89" y="170.078534"/>
     <use style="fill:#ff0000;stroke:#ff0000;" x="274.977391" xlink:href="#m3f2579ce89" y="185.492283"/>
     <use style="fill:#ff0000;stroke:#ff0000;" x="276.153676" xlink:href="#m3f2579ce89" y="185.492283"/>
     <use style="fill:#ff0000;stroke:#ff0000;" x="277.32996" xlink:href="#m3f2579ce89" y="200.797409"/>
     <use style="fill:#ff0000;stroke:#ff0000;" x="278.506245" xlink:href="#m3f2579ce89" y="200.797409"/>
     <use style="fill:#ff0000;stroke:#ff0000;" x="279.68253" xlink:href="#m3f2579ce89" y="200.797409"/>
     <use style="fill:#ff0000;stroke:#ff0000;" x="280.858814" xlink:href="#m3f2579ce89" y="200.797409"/>
     <use style="fill:#ff0000;stroke:#ff0000;" x="282.035099" xlink:href="#m3f2579ce89" y="184.378136"/>
     <use style="fill:#ff0000;stroke:#ff0000;" x="283.211383" xlink:href="#m3f2579ce89" y="184.378136"/>
     <use style="fill:#ff0000;stroke:#ff0000;" x="284.387668" xlink:href="#m3f2579ce89" y="200.986103"/>
     <use style="fill:#ff0000;stroke:#ff0000;" x="285.563953" xlink:href="#m3f2579ce89" y="200.986103"/>
     <use style="fill:#ff0000;stroke:#ff0000;" x="286.740237" xlink:href="#m3f2579ce89" y="184.053496"/>
     <use style="fill:#ff0000;stroke:#ff0000;" x="287.916522" xlink:href="#m3f2579ce89" y="184.053496"/>
     <use style="fill:#ff0000;stroke:#ff0000;" x="289.092806" xlink:href="#m3f2579ce89" y="198.495525"/>
     <use style="fill:#ff0000;stroke:#ff0000;" x="290.269091" xlink:href="#m3f2579ce89" y="198.495525"/>
     <use style="fill:#ff0000;stroke:#ff0000;" x="291.445375" xlink:href="#m3f2579ce89" y="214.326912"/>
     <use style="fill:#ff0000;stroke:#ff0000;" x="292.62166" xlink:href="#m3f2579ce89" y="214.326912"/>
     <use style="fill:#ff0000;stroke:#ff0000;" x="293.797945" xlink:href="#m3f2579ce89" y="214.326912"/>
     <use style="fill:#ff0000;stroke:#ff0000;" x="294.974229" xlink:href="#m3f2579ce89" y="214.326912"/>
     <use style="fill:#ff0000;stroke:#ff0000;" x="296.150514" xlink:href="#m3f2579ce89" y="214.326912"/>
     <use style="fill:#ff0000;stroke:#ff0000;" x="297.326798" xlink:href="#m3f2579ce89" y="214.326912"/>
     <use style="fill:#ff0000;stroke:#ff0000;" x="298.503083" xlink:href="#m3f2579ce89" y="214.326912"/>
     <use style="fill:#ff0000;stroke:#ff0000;" x="299.679368" xlink:href="#m3f2579ce89" y="214.326912"/>
     <use style="fill:#ff0000;stroke:#ff0000;" x="300.855652" xlink:href="#m3f2579ce89" y="214.326912"/>
     <use style="fill:#ff0000;stroke:#ff0000;" x="302.031937" xlink:href="#m3f2579ce89" y="214.326912"/>
     <use style="fill:#ff0000;stroke:#ff0000;" x="303.208221" xlink:href="#m3f2579ce89" y="214.326912"/>
     <use style="fill:#ff0000;stroke:#ff0000;" x="304.384506" xlink:href="#m3f2579ce89" y="214.326912"/>
     <use style="fill:#ff0000;stroke:#ff0000;" x="305.560791" xlink:href="#m3f2579ce89" y="214.326912"/>
     <use style="fill:#ff0000;stroke:#ff0000;" x="306.737075" xlink:href="#m3f2579ce89" y="214.326912"/>
     <use style="fill:#ff0000;stroke:#ff0000;" x="307.91336" xlink:href="#m3f2579ce89" y="214.326912"/>
     <use style="fill:#ff0000;stroke:#ff0000;" x="309.089644" xlink:href="#m3f2579ce89" y="214.326912"/>
     <use style="fill:#ff0000;stroke:#ff0000;" x="310.265929" xlink:href="#m3f2579ce89" y="214.326912"/>
     <use style="fill:#ff0000;stroke:#ff0000;" x="311.442213" xlink:href="#m3f2579ce89" y="214.326912"/>
     <use style="fill:#ff0000;stroke:#ff0000;" x="312.618498" xlink:href="#m3f2579ce89" y="214.326912"/>
     <use style="fill:#ff0000;stroke:#ff0000;" x="313.794783" xlink:href="#m3f2579ce89" y="214.326912"/>
     <use style="fill:#ff0000;stroke:#ff0000;" x="314.971067" xlink:href="#m3f2579ce89" y="214.326912"/>
     <use style="fill:#ff0000;stroke:#ff0000;" x="316.147352" xlink:href="#m3f2579ce89" y="214.326912"/>
     <use style="fill:#ff0000;stroke:#ff0000;" x="317.323636" xlink:href="#m3f2579ce89" y="214.326912"/>
     <use style="fill:#ff0000;stroke:#ff0000;" x="318.499921" xlink:href="#m3f2579ce89" y="214.326912"/>
     <use style="fill:#ff0000;stroke:#ff0000;" x="319.676206" xlink:href="#m3f2579ce89" y="214.326912"/>
     <use style="fill:#ff0000;stroke:#ff0000;" x="320.85249" xlink:href="#m3f2579ce89" y="214.326912"/>
     <use style="fill:#ff0000;stroke:#ff0000;" x="322.028775" xlink:href="#m3f2579ce89" y="214.326912"/>
     <use style="fill:#ff0000;stroke:#ff0000;" x="323.205059" xlink:href="#m3f2579ce89" y="214.326912"/>
     <use style="fill:#ff0000;stroke:#ff0000;" x="324.381344" xlink:href="#m3f2579ce89" y="214.326912"/>
     <use style="fill:#ff0000;stroke:#ff0000;" x="325.557628" xlink:href="#m3f2579ce89" y="214.326912"/>
     <use style="fill:#ff0000;stroke:#ff0000;" x="326.733913" xlink:href="#m3f2579ce89" y="214.326912"/>
     <use style="fill:#ff0000;stroke:#ff0000;" x="327.910198" xlink:href="#m3f2579ce89" y="214.326912"/>
     <use style="fill:#ff0000;stroke:#ff0000;" x="329.086482" xlink:href="#m3f2579ce89" y="214.326912"/>
     <use style="fill:#ff0000;stroke:#ff0000;" x="330.262767" xlink:href="#m3f2579ce89" y="214.326912"/>
     <use style="fill:#ff0000;stroke:#ff0000;" x="331.439051" xlink:href="#m3f2579ce89" y="214.326912"/>
     <use style="fill:#ff0000;stroke:#ff0000;" x="332.615336" xlink:href="#m3f2579ce89" y="214.326912"/>
     <use style="fill:#ff0000;stroke:#ff0000;" x="333.791621" xlink:href="#m3f2579ce89" y="214.326912"/>
     <use style="fill:#ff0000;stroke:#ff0000;" x="334.967905" xlink:href="#m3f2579ce89" y="214.326912"/>
     <use style="fill:#ff0000;stroke:#ff0000;" x="336.14419" xlink:href="#m3f2579ce89" y="214.326912"/>
     <use style="fill:#ff0000;stroke:#ff0000;" x="337.320474" xlink:href="#m3f2579ce89" y="214.326912"/>
     <use style="fill:#ff0000;stroke:#ff0000;" x="338.496759" xlink:href="#m3f2579ce89" y="214.326912"/>
     <use style="fill:#ff0000;stroke:#ff0000;" x="339.673043" xlink:href="#m3f2579ce89" y="214.326912"/>
     <use style="fill:#ff0000;stroke:#ff0000;" x="340.849328" xlink:href="#m3f2579ce89" y="214.326912"/>
     <use style="fill:#ff0000;stroke:#ff0000;" x="342.025613" xlink:href="#m3f2579ce89" y="214.326912"/>
     <use style="fill:#ff0000;stroke:#ff0000;" x="343.201897" xlink:href="#m3f2579ce89" y="214.326912"/>
     <use style="fill:#ff0000;stroke:#ff0000;" x="344.378182" xlink:href="#m3f2579ce89" y="214.326912"/>
     <use style="fill:#ff0000;stroke:#ff0000;" x="345.554466" xlink:href="#m3f2579ce89" y="214.326912"/>
     <use style="fill:#ff0000;stroke:#ff0000;" x="346.730751" xlink:href="#m3f2579ce89" y="214.326912"/>
     <use style="fill:#ff0000;stroke:#ff0000;" x="347.907036" xlink:href="#m3f2579ce89" y="214.326912"/>
     <use style="fill:#ff0000;stroke:#ff0000;" x="349.08332" xlink:href="#m3f2579ce89" y="214.326912"/>
     <use style="fill:#ff0000;stroke:#ff0000;" x="350.259605" xlink:href="#m3f2579ce89" y="214.326912"/>
     <use style="fill:#ff0000;stroke:#ff0000;" x="351.435889" xlink:href="#m3f2579ce89" y="214.326912"/>
     <use style="fill:#ff0000;stroke:#ff0000;" x="352.612174" xlink:href="#m3f2579ce89" y="214.326912"/>
     <use style="fill:#ff0000;stroke:#ff0000;" x="353.788458" xlink:href="#m3f2579ce89" y="214.326912"/>
     <use style="fill:#ff0000;stroke:#ff0000;" x="354.964743" xlink:href="#m3f2579ce89" y="214.326912"/>
     <use style="fill:#ff0000;stroke:#ff0000;" x="356.141028" xlink:href="#m3f2579ce89" y="214.326912"/>
     <use style="fill:#ff0000;stroke:#ff0000;" x="357.317312" xlink:href="#m3f2579ce89" y="214.326912"/>
     <use style="fill:#ff0000;stroke:#ff0000;" x="358.493597" xlink:href="#m3f2579ce89" y="214.326912"/>
     <use style="fill:#ff0000;stroke:#ff0000;" x="359.669881" xlink:href="#m3f2579ce89" y="214.326912"/>
     <use style="fill:#ff0000;stroke:#ff0000;" x="360.846166" xlink:href="#m3f2579ce89" y="214.326912"/>
     <use style="fill:#ff0000;stroke:#ff0000;" x="362.022451" xlink:href="#m3f2579ce89" y="214.326912"/>
     <use style="fill:#ff0000;stroke:#ff0000;" x="363.198735" xlink:href="#m3f2579ce89" y="214.326912"/>
     <use style="fill:#ff0000;stroke:#ff0000;" x="364.37502" xlink:href="#m3f2579ce89" y="214.326912"/>
     <use style="fill:#ff0000;stroke:#ff0000;" x="365.551304" xlink:href="#m3f2579ce89" y="214.326912"/>
     <use style="fill:#ff0000;stroke:#ff0000;" x="366.727589" xlink:href="#m3f2579ce89" y="214.326912"/>
     <use style="fill:#ff0000;stroke:#ff0000;" x="367.903874" xlink:href="#m3f2579ce89" y="214.326912"/>
     <use style="fill:#ff0000;stroke:#ff0000;" x="369.080158" xlink:href="#m3f2579ce89" y="214.326912"/>
     <use style="fill:#ff0000;stroke:#ff0000;" x="370.256443" xlink:href="#m3f2579ce89" y="214.326912"/>
     <use style="fill:#ff0000;stroke:#ff0000;" x="371.432727" xlink:href="#m3f2579ce89" y="214.326912"/>
     <use style="fill:#ff0000;stroke:#ff0000;" x="372.609012" xlink:href="#m3f2579ce89" y="214.326912"/>
     <use style="fill:#ff0000;stroke:#ff0000;" x="373.785296" xlink:href="#m3f2579ce89" y="214.326912"/>
     <use style="fill:#ff0000;stroke:#ff0000;" x="374.961581" xlink:href="#m3f2579ce89" y="214.326912"/>
     <use style="fill:#ff0000;stroke:#ff0000;" x="376.137866" xlink:href="#m3f2579ce89" y="214.326912"/>
     <use style="fill:#ff0000;stroke:#ff0000;" x="377.31415" xlink:href="#m3f2579ce89" y="214.326912"/>
     <use style="fill:#ff0000;stroke:#ff0000;" x="378.490435" xlink:href="#m3f2579ce89" y="214.326912"/>
     <use style="fill:#ff0000;stroke:#ff0000;" x="379.666719" xlink:href="#m3f2579ce89" y="214.326912"/>
     <use style="fill:#ff0000;stroke:#ff0000;" x="380.843004" xlink:href="#m3f2579ce89" y="214.326912"/>
     <use style="fill:#ff0000;stroke:#ff0000;" x="382.019289" xlink:href="#m3f2579ce89" y="214.326912"/>
     <use style="fill:#ff0000;stroke:#ff0000;" x="383.195573" xlink:href="#m3f2579ce89" y="214.326912"/>
     <use style="fill:#ff0000;stroke:#ff0000;" x="384.371858" xlink:href="#m3f2579ce89" y="214.326912"/>
     <use style="fill:#ff0000;stroke:#ff0000;" x="385.548142" xlink:href="#m3f2579ce89" y="214.326912"/>
     <use style="fill:#ff0000;stroke:#ff0000;" x="386.724427" xlink:href="#m3f2579ce89" y="214.326912"/>
     <use style="fill:#ff0000;stroke:#ff0000;" x="387.900711" xlink:href="#m3f2579ce89" y="214.326912"/>
     <use style="fill:#ff0000;stroke:#ff0000;" x="389.076996" xlink:href="#m3f2579ce89" y="214.326912"/>
     <use style="fill:#ff0000;stroke:#ff0000;" x="390.253281" xlink:href="#m3f2579ce89" y="214.326912"/>
     <use style="fill:#ff0000;stroke:#ff0000;" x="391.429565" xlink:href="#m3f2579ce89" y="214.326912"/>
     <use style="fill:#ff0000;stroke:#ff0000;" x="392.60585" xlink:href="#m3f2579ce89" y="214.326912"/>
     <use style="fill:#ff0000;stroke:#ff0000;" x="393.782134" xlink:href="#m3f2579ce89" y="214.326912"/>
     <use style="fill:#ff0000;stroke:#ff0000;" x="394.958419" xlink:href="#m3f2579ce89" y="214.326912"/>
     <use style="fill:#ff0000;stroke:#ff0000;" x="396.134704" xlink:href="#m3f2579ce89" y="214.326912"/>
     <use style="fill:#ff0000;stroke:#ff0000;" x="397.310988" xlink:href="#m3f2579ce89" y="214.326912"/>
     <use style="fill:#ff0000;stroke:#ff0000;" x="398.487273" xlink:href="#m3f2579ce89" y="214.326912"/>
    </g>
   </g>
   <g id="patch_3">
    <path d="M 57.6 307.584 
L 57.6 41.472 
" style="fill:none;stroke:#000000;stroke-linecap:square;stroke-linejoin:miter;stroke-width:0.8;"/>
   </g>
   <g id="patch_4">
    <path d="M 414.72 307.584 
L 414.72 41.472 
" style="fill:none;stroke:#000000;stroke-linecap:square;stroke-linejoin:miter;stroke-width:0.8;"/>
   </g>
   <g id="patch_5">
    <path d="M 57.6 307.584 
L 414.72 307.584 
" style="fill:none;stroke:#000000;stroke-linecap:square;stroke-linejoin:miter;stroke-width:0.8;"/>
   </g>
   <g id="patch_6">
    <path d="M 57.6 41.472 
L 414.72 41.472 
" style="fill:none;stroke:#000000;stroke-linecap:square;stroke-linejoin:miter;stroke-width:0.8;"/>
   </g>
  </g>
 </g>
 <defs>
  <clipPath id="pea1c33fac9">
   <rect height="266.112" width="357.12" x="57.6" y="41.472"/>
  </clipPath>
 </defs>
</svg>
