<?xml version="1.0" encoding="utf-8" standalone="no"?>
<!DOCTYPE svg PUBLIC "-//W3C//DTD SVG 1.1//EN"
  "http://www.w3.org/Graphics/SVG/1.1/DTD/svg11.dtd">
<!-- Created with matplotlib (https://matplotlib.org/) -->
<svg height="345.6pt" version="1.1" viewBox="0 0 460.8 345.6" width="460.8pt" xmlns="http://www.w3.org/2000/svg" xmlns:xlink="http://www.w3.org/1999/xlink">
 <defs>
  <style type="text/css">
*{stroke-linecap:butt;stroke-linejoin:round;}
  </style>
 </defs>
 <g id="figure_1">
  <g id="patch_1">
   <path d="M 0 345.6 
L 460.8 345.6 
L 460.8 0 
L 0 0 
z
" style="fill:#ffffff;"/>
  </g>
  <g id="axes_1">
   <g id="patch_2">
    <path d="M 57.6 307.584 
L 414.72 307.584 
L 414.72 41.472 
L 57.6 41.472 
z
" style="fill:#ffffff;"/>
   </g>
   <g id="line2d_1">
    <path clip-path="url(#p2019aa0c9f)" d="M 73.832727 207.873812 
L 75.08622 256.061977 
L 82.607174 256.061977 
L 83.860667 245.229812 
L 85.114159 245.229812 
L 86.367652 251.249463 
L 87.621144 251.249463 
L 88.874637 295.488 
L 90.128129 248.356895 
L 92.635114 248.356895 
L 93.888607 199.336014 
L 95.142099 187.847765 
L 100.156069 187.847765 
L 101.409561 144.386977 
L 102.663054 144.386977 
L 103.916546 93.656265 
L 105.170039 93.656265 
L 106.423531 110.978728 
L 107.677024 95.316873 
L 111.437501 95.316873 
L 112.690993 80.362718 
L 115.197978 80.362718 
L 116.451471 97.018543 
L 117.704963 97.018543 
L 120.211948 68.459192 
L 121.465441 68.459192 
L 122.718933 53.568 
L 123.972425 53.568 
L 125.225918 70.943415 
L 126.47941 70.943415 
L 127.732903 56.151277 
L 128.986395 56.151277 
L 131.49338 90.028365 
L 134.000365 90.028365 
L 135.253857 75.174326 
L 136.50735 75.174326 
L 137.760842 59.165674 
L 141.52132 59.165674 
L 142.774812 76.780944 
L 144.028305 76.780944 
L 145.281797 93.311546 
L 146.53529 93.311546 
L 147.788782 108.924266 
L 150.295767 108.924266 
L 151.549259 94.543589 
L 152.802752 94.543589 
L 155.309737 127.813725 
L 159.070214 127.813725 
L 160.323707 111.643616 
L 161.577199 111.643616 
L 162.830691 97.725699 
L 164.084184 97.725699 
L 165.337676 113.898247 
L 167.844661 113.898247 
L 169.098154 129.931926 
L 170.351646 129.931926 
L 171.605139 146.156732 
L 172.858631 146.156732 
L 174.112124 149.984838 
L 179.126093 149.984838 
L 180.379586 167.387268 
L 181.633078 167.387268 
L 182.886571 150.536679 
L 184.140063 150.536679 
L 185.393556 166.182514 
L 187.900541 166.182514 
L 189.154033 148.950885 
L 190.407525 148.950885 
L 191.661018 134.481031 
L 192.91451 134.481031 
L 194.168003 118.256134 
L 195.421495 133.845283 
L 196.674988 133.845283 
L 197.92848 117.142315 
L 199.181973 117.142315 
L 200.435465 136.306606 
L 201.688958 136.306606 
L 202.94245 154.510223 
L 204.195942 156.882445 
L 205.449435 156.882445 
L 206.702927 174.227226 
L 207.95642 174.227226 
L 209.209912 157.822223 
L 210.463405 157.822223 
L 211.716897 141.567245 
L 212.97039 141.567245 
L 214.223882 125.450305 
L 224.251822 125.450305 
L 225.505314 142.236368 
L 226.758807 146.764062 
L 229.265792 146.764062 
L 230.519284 147.362528 
L 231.772776 147.362528 
L 233.026269 164.768599 
L 234.279761 164.768599 
L 235.533254 149.843433 
L 236.786746 165.389866 
L 238.040239 165.389866 
L 239.293731 182.569135 
L 241.800716 182.569135 
L 243.054208 186.995527 
L 244.307701 186.995527 
L 245.561193 202.786387 
L 246.814686 202.786387 
L 248.068178 220.156747 
L 249.321671 220.156747 
L 251.828656 191.492738 
L 253.082148 191.492738 
L 254.335641 187.945838 
L 255.589133 187.945838 
L 256.842625 171.079457 
L 260.603103 171.079457 
L 261.856595 153.388379 
L 263.110088 152.826609 
L 264.36358 152.826609 
L 265.617073 152.272915 
L 266.870565 152.272915 
L 268.124058 133.507684 
L 269.37755 151.537352 
L 271.884535 151.537352 
L 273.138027 166.246657 
L 275.645012 166.246657 
L 276.898505 182.393885 
L 278.151997 182.393885 
L 279.40549 168.0719 
L 280.658982 170.695117 
L 281.912475 170.695117 
L 283.165967 186.950511 
L 285.672952 186.950511 
L 286.926444 170.078534 
L 288.179937 185.492283 
L 289.433429 185.492283 
L 290.686922 200.797409 
L 294.447399 200.797409 
L 295.700892 184.378136 
L 296.954384 184.378136 
L 298.207876 200.986103 
L 299.461369 200.986103 
L 300.714861 184.053496 
L 301.968354 184.053496 
L 303.221846 198.495525 
L 304.475339 198.495525 
L 305.728831 214.326912 
L 398.487273 214.326912 
L 398.487273 214.326912 
" style="fill:none;stroke:#ff0000;stroke-linecap:square;stroke-width:12;"/>
    <defs>
     <path d="M 0 3 
C 0.795609 3 1.55874 2.683901 2.12132 2.12132 
C 2.683901 1.55874 3 0.795609 3 0 
C 3 -0.795609 2.683901 -1.55874 2.12132 -2.12132 
C 1.55874 -2.683901 0.795609 -3 0 -3 
C -0.795609 -3 -1.55874 -2.683901 -2.12132 -2.12132 
C -2.683901 -1.55874 -3 -0.795609 -3 0 
C -3 0.795609 -2.683901 1.55874 -2.12132 2.12132 
C -1.55874 2.683901 -0.795609 3 0 3 
z
" id="m35324ed34b" style="stroke:#ff0000;"/>
    </defs>
    <g clip-path="url(#p2019aa0c9f)">
     <use style="fill:#ff0000;stroke:#ff0000;" x="73.832727" xlink:href="#m35324ed34b" y="207.873812"/>
     <use style="fill:#ff0000;stroke:#ff0000;" x="75.08622" xlink:href="#m35324ed34b" y="256.061977"/>
     <use style="fill:#ff0000;stroke:#ff0000;" x="76.339712" xlink:href="#m35324ed34b" y="256.061977"/>
     <use style="fill:#ff0000;stroke:#ff0000;" x="77.593205" xlink:href="#m35324ed34b" y="256.061977"/>
     <use style="fill:#ff0000;stroke:#ff0000;" x="78.846697" xlink:href="#m35324ed34b" y="256.061977"/>
     <use style="fill:#ff0000;stroke:#ff0000;" x="80.10019" xlink:href="#m35324ed34b" y="256.061977"/>
     <use style="fill:#ff0000;stroke:#ff0000;" x="81.353682" xlink:href="#m35324ed34b" y="256.061977"/>
     <use style="fill:#ff0000;stroke:#ff0000;" x="82.607174" xlink:href="#m35324ed34b" y="256.061977"/>
     <use style="fill:#ff0000;stroke:#ff0000;" x="83.860667" xlink:href="#m35324ed34b" y="245.229812"/>
     <use style="fill:#ff0000;stroke:#ff0000;" x="85.114159" xlink:href="#m35324ed34b" y="245.229812"/>
     <use style="fill:#ff0000;stroke:#ff0000;" x="86.367652" xlink:href="#m35324ed34b" y="251.249463"/>
     <use style="fill:#ff0000;stroke:#ff0000;" x="87.621144" xlink:href="#m35324ed34b" y="251.249463"/>
     <use style="fill:#ff0000;stroke:#ff0000;" x="88.874637" xlink:href="#m35324ed34b" y="295.488"/>
     <use style="fill:#ff0000;stroke:#ff0000;" x="90.128129" xlink:href="#m35324ed34b" y="248.356895"/>
     <use style="fill:#ff0000;stroke:#ff0000;" x="91.381622" xlink:href="#m35324ed34b" y="248.356895"/>
     <use style="fill:#ff0000;stroke:#ff0000;" x="92.635114" xlink:href="#m35324ed34b" y="248.356895"/>
     <use style="fill:#ff0000;stroke:#ff0000;" x="93.888607" xlink:href="#m35324ed34b" y="199.336014"/>
     <use style="fill:#ff0000;stroke:#ff0000;" x="95.142099" xlink:href="#m35324ed34b" y="187.847765"/>
     <use style="fill:#ff0000;stroke:#ff0000;" x="96.395591" xlink:href="#m35324ed34b" y="187.847765"/>
     <use style="fill:#ff0000;stroke:#ff0000;" x="97.649084" xlink:href="#m35324ed34b" y="187.847765"/>
     <use style="fill:#ff0000;stroke:#ff0000;" x="98.902576" xlink:href="#m35324ed34b" y="187.847765"/>
     <use style="fill:#ff0000;stroke:#ff0000;" x="100.156069" xlink:href="#m35324ed34b" y="187.847765"/>
     <use style="fill:#ff0000;stroke:#ff0000;" x="101.409561" xlink:href="#m35324ed34b" y="144.386977"/>
     <use style="fill:#ff0000;stroke:#ff0000;" x="102.663054" xlink:href="#m35324ed34b" y="144.386977"/>
     <use style="fill:#ff0000;stroke:#ff0000;" x="103.916546" xlink:href="#m35324ed34b" y="93.656265"/>
     <use style="fill:#ff0000;stroke:#ff0000;" x="105.170039" xlink:href="#m35324ed34b" y="93.656265"/>
     <use style="fill:#ff0000;stroke:#ff0000;" x="106.423531" xlink:href="#m35324ed34b" y="110.978728"/>
     <use style="fill:#ff0000;stroke:#ff0000;" x="107.677024" xlink:href="#m35324ed34b" y="95.316873"/>
     <use style="fill:#ff0000;stroke:#ff0000;" x="108.930516" xlink:href="#m35324ed34b" y="95.316873"/>
     <use style="fill:#ff0000;stroke:#ff0000;" x="110.184008" xlink:href="#m35324ed34b" y="95.316873"/>
     <use style="fill:#ff0000;stroke:#ff0000;" x="111.437501" xlink:href="#m35324ed34b" y="95.316873"/>
     <use style="fill:#ff0000;stroke:#ff0000;" x="112.690993" xlink:href="#m35324ed34b" y="80.362718"/>
     <use style="fill:#ff0000;stroke:#ff0000;" x="113.944486" xlink:href="#m35324ed34b" y="80.362718"/>
     <use style="fill:#ff0000;stroke:#ff0000;" x="115.197978" xlink:href="#m35324ed34b" y="80.362718"/>
     <use style="fill:#ff0000;stroke:#ff0000;" x="116.451471" xlink:href="#m35324ed34b" y="97.018543"/>
     <use style="fill:#ff0000;stroke:#ff0000;" x="117.704963" xlink:href="#m35324ed34b" y="97.018543"/>
     <use style="fill:#ff0000;stroke:#ff0000;" x="118.958456" xlink:href="#m35324ed34b" y="83.228386"/>
     <use style="fill:#ff0000;stroke:#ff0000;" x="120.211948" xlink:href="#m35324ed34b" y="68.459192"/>
     <use style="fill:#ff0000;stroke:#ff0000;" x="121.465441" xlink:href="#m35324ed34b" y="68.459192"/>
     <use style="fill:#ff0000;stroke:#ff0000;" x="122.718933" xlink:href="#m35324ed34b" y="53.568"/>
     <use style="fill:#ff0000;stroke:#ff0000;" x="123.972425" xlink:href="#m35324ed34b" y="53.568"/>
     <use style="fill:#ff0000;stroke:#ff0000;" x="125.225918" xlink:href="#m35324ed34b" y="70.943415"/>
     <use style="fill:#ff0000;stroke:#ff0000;" x="126.47941" xlink:href="#m35324ed34b" y="70.943415"/>
     <use style="fill:#ff0000;stroke:#ff0000;" x="127.732903" xlink:href="#m35324ed34b" y="56.151277"/>
     <use style="fill:#ff0000;stroke:#ff0000;" x="128.986395" xlink:href="#m35324ed34b" y="56.151277"/>
     <use style="fill:#ff0000;stroke:#ff0000;" x="130.239888" xlink:href="#m35324ed34b" y="72.718497"/>
     <use style="fill:#ff0000;stroke:#ff0000;" x="131.49338" xlink:href="#m35324ed34b" y="90.028365"/>
     <use style="fill:#ff0000;stroke:#ff0000;" x="132.746873" xlink:href="#m35324ed34b" y="90.028365"/>
     <use style="fill:#ff0000;stroke:#ff0000;" x="134.000365" xlink:href="#m35324ed34b" y="90.028365"/>
     <use style="fill:#ff0000;stroke:#ff0000;" x="135.253857" xlink:href="#m35324ed34b" y="75.174326"/>
     <use style="fill:#ff0000;stroke:#ff0000;" x="136.50735" xlink:href="#m35324ed34b" y="75.174326"/>
     <use style="fill:#ff0000;stroke:#ff0000;" x="137.760842" xlink:href="#m35324ed34b" y="59.165674"/>
     <use style="fill:#ff0000;stroke:#ff0000;" x="139.014335" xlink:href="#m35324ed34b" y="59.165674"/>
     <use style="fill:#ff0000;stroke:#ff0000;" x="140.267827" xlink:href="#m35324ed34b" y="59.165674"/>
     <use style="fill:#ff0000;stroke:#ff0000;" x="141.52132" xlink:href="#m35324ed34b" y="59.165674"/>
     <use style="fill:#ff0000;stroke:#ff0000;" x="142.774812" xlink:href="#m35324ed34b" y="76.780944"/>
     <use style="fill:#ff0000;stroke:#ff0000;" x="144.028305" xlink:href="#m35324ed34b" y="76.780944"/>
     <use style="fill:#ff0000;stroke:#ff0000;" x="145.281797" xlink:href="#m35324ed34b" y="93.311546"/>
     <use style="fill:#ff0000;stroke:#ff0000;" x="146.53529" xlink:href="#m35324ed34b" y="93.311546"/>
     <use style="fill:#ff0000;stroke:#ff0000;" x="147.788782" xlink:href="#m35324ed34b" y="108.924266"/>
     <use style="fill:#ff0000;stroke:#ff0000;" x="149.042274" xlink:href="#m35324ed34b" y="108.924266"/>
     <use style="fill:#ff0000;stroke:#ff0000;" x="150.295767" xlink:href="#m35324ed34b" y="108.924266"/>
     <use style="fill:#ff0000;stroke:#ff0000;" x="151.549259" xlink:href="#m35324ed34b" y="94.543589"/>
     <use style="fill:#ff0000;stroke:#ff0000;" x="152.802752" xlink:href="#m35324ed34b" y="94.543589"/>
     <use style="fill:#ff0000;stroke:#ff0000;" x="154.056244" xlink:href="#m35324ed34b" y="110.869924"/>
     <use style="fill:#ff0000;stroke:#ff0000;" x="155.309737" xlink:href="#m35324ed34b" y="127.813725"/>
     <use style="fill:#ff0000;stroke:#ff0000;" x="156.563229" xlink:href="#m35324ed34b" y="127.813725"/>
     <use style="fill:#ff0000;stroke:#ff0000;" x="157.816722" xlink:href="#m35324ed34b" y="127.813725"/>
     <use style="fill:#ff0000;stroke:#ff0000;" x="159.070214" xlink:href="#m35324ed34b" y="127.813725"/>
     <use style="fill:#ff0000;stroke:#ff0000;" x="160.323707" xlink:href="#m35324ed34b" y="111.643616"/>
     <use style="fill:#ff0000;stroke:#ff0000;" x="161.577199" xlink:href="#m35324ed34b" y="111.643616"/>
     <use style="fill:#ff0000;stroke:#ff0000;" x="162.830691" xlink:href="#m35324ed34b" y="97.725699"/>
     <use style="fill:#ff0000;stroke:#ff0000;" x="164.084184" xlink:href="#m35324ed34b" y="97.725699"/>
     <use style="fill:#ff0000;stroke:#ff0000;" x="165.337676" xlink:href="#m35324ed34b" y="113.898247"/>
     <use style="fill:#ff0000;stroke:#ff0000;" x="166.591169" xlink:href="#m35324ed34b" y="113.898247"/>
     <use style="fill:#ff0000;stroke:#ff0000;" x="167.844661" xlink:href="#m35324ed34b" y="113.898247"/>
     <use style="fill:#ff0000;stroke:#ff0000;" x="169.098154" xlink:href="#m35324ed34b" y="129.931926"/>
     <use style="fill:#ff0000;stroke:#ff0000;" x="170.351646" xlink:href="#m35324ed34b" y="129.931926"/>
     <use style="fill:#ff0000;stroke:#ff0000;" x="171.605139" xlink:href="#m35324ed34b" y="146.156732"/>
     <use style="fill:#ff0000;stroke:#ff0000;" x="172.858631" xlink:href="#m35324ed34b" y="146.156732"/>
     <use style="fill:#ff0000;stroke:#ff0000;" x="174.112124" xlink:href="#m35324ed34b" y="149.984838"/>
     <use style="fill:#ff0000;stroke:#ff0000;" x="175.365616" xlink:href="#m35324ed34b" y="149.984838"/>
     <use style="fill:#ff0000;stroke:#ff0000;" x="176.619108" xlink:href="#m35324ed34b" y="149.984838"/>
     <use style="fill:#ff0000;stroke:#ff0000;" x="177.872601" xlink:href="#m35324ed34b" y="149.984838"/>
     <use style="fill:#ff0000;stroke:#ff0000;" x="179.126093" xlink:href="#m35324ed34b" y="149.984838"/>
     <use style="fill:#ff0000;stroke:#ff0000;" x="180.379586" xlink:href="#m35324ed34b" y="167.387268"/>
     <use style="fill:#ff0000;stroke:#ff0000;" x="181.633078" xlink:href="#m35324ed34b" y="167.387268"/>
     <use style="fill:#ff0000;stroke:#ff0000;" x="182.886571" xlink:href="#m35324ed34b" y="150.536679"/>
     <use style="fill:#ff0000;stroke:#ff0000;" x="184.140063" xlink:href="#m35324ed34b" y="150.536679"/>
     <use style="fill:#ff0000;stroke:#ff0000;" x="185.393556" xlink:href="#m35324ed34b" y="166.182514"/>
     <use style="fill:#ff0000;stroke:#ff0000;" x="186.647048" xlink:href="#m35324ed34b" y="166.182514"/>
     <use style="fill:#ff0000;stroke:#ff0000;" x="187.900541" xlink:href="#m35324ed34b" y="166.182514"/>
     <use style="fill:#ff0000;stroke:#ff0000;" x="189.154033" xlink:href="#m35324ed34b" y="148.950885"/>
     <use style="fill:#ff0000;stroke:#ff0000;" x="190.407525" xlink:href="#m35324ed34b" y="148.950885"/>
     <use style="fill:#ff0000;stroke:#ff0000;" x="191.661018" xlink:href="#m35324ed34b" y="134.481031"/>
     <use style="fill:#ff0000;stroke:#ff0000;" x="192.91451" xlink:href="#m35324ed34b" y="134.481031"/>
     <use style="fill:#ff0000;stroke:#ff0000;" x="194.168003" xlink:href="#m35324ed34b" y="118.256134"/>
     <use style="fill:#ff0000;stroke:#ff0000;" x="195.421495" xlink:href="#m35324ed34b" y="133.845283"/>
     <use style="fill:#ff0000;stroke:#ff0000;" x="196.674988" xlink:href="#m35324ed34b" y="133.845283"/>
     <use style="fill:#ff0000;stroke:#ff0000;" x="197.92848" xlink:href="#m35324ed34b" y="117.142315"/>
     <use style="fill:#ff0000;stroke:#ff0000;" x="199.181973" xlink:href="#m35324ed34b" y="117.142315"/>
     <use style="fill:#ff0000;stroke:#ff0000;" x="200.435465" xlink:href="#m35324ed34b" y="136.306606"/>
     <use style="fill:#ff0000;stroke:#ff0000;" x="201.688958" xlink:href="#m35324ed34b" y="136.306606"/>
     <use style="fill:#ff0000;stroke:#ff0000;" x="202.94245" xlink:href="#m35324ed34b" y="154.510223"/>
     <use style="fill:#ff0000;stroke:#ff0000;" x="204.195942" xlink:href="#m35324ed34b" y="156.882445"/>
     <use style="fill:#ff0000;stroke:#ff0000;" x="205.449435" xlink:href="#m35324ed34b" y="156.882445"/>
     <use style="fill:#ff0000;stroke:#ff0000;" x="206.702927" xlink:href="#m35324ed34b" y="174.227226"/>
     <use style="fill:#ff0000;stroke:#ff0000;" x="207.95642" xlink:href="#m35324ed34b" y="174.227226"/>
     <use style="fill:#ff0000;stroke:#ff0000;" x="209.209912" xlink:href="#m35324ed34b" y="157.822223"/>
     <use style="fill:#ff0000;stroke:#ff0000;" x="210.463405" xlink:href="#m35324ed34b" y="157.822223"/>
     <use style="fill:#ff0000;stroke:#ff0000;" x="211.716897" xlink:href="#m35324ed34b" y="141.567245"/>
     <use style="fill:#ff0000;stroke:#ff0000;" x="212.97039" xlink:href="#m35324ed34b" y="141.567245"/>
     <use style="fill:#ff0000;stroke:#ff0000;" x="214.223882" xlink:href="#m35324ed34b" y="125.450305"/>
     <use style="fill:#ff0000;stroke:#ff0000;" x="215.477375" xlink:href="#m35324ed34b" y="125.450305"/>
     <use style="fill:#ff0000;stroke:#ff0000;" x="216.730867" xlink:href="#m35324ed34b" y="125.450305"/>
     <use style="fill:#ff0000;stroke:#ff0000;" x="217.984359" xlink:href="#m35324ed34b" y="125.450305"/>
     <use style="fill:#ff0000;stroke:#ff0000;" x="219.237852" xlink:href="#m35324ed34b" y="125.450305"/>
     <use style="fill:#ff0000;stroke:#ff0000;" x="220.491344" xlink:href="#m35324ed34b" y="125.450305"/>
     <use style="fill:#ff0000;stroke:#ff0000;" x="221.744837" xlink:href="#m35324ed34b" y="125.450305"/>
     <use style="fill:#ff0000;stroke:#ff0000;" x="222.998329" xlink:href="#m35324ed34b" y="125.450305"/>
     <use style="fill:#ff0000;stroke:#ff0000;" x="224.251822" xlink:href="#m35324ed34b" y="125.450305"/>
     <use style="fill:#ff0000;stroke:#ff0000;" x="225.505314" xlink:href="#m35324ed34b" y="142.236368"/>
     <use style="fill:#ff0000;stroke:#ff0000;" x="226.758807" xlink:href="#m35324ed34b" y="146.764062"/>
     <use style="fill:#ff0000;stroke:#ff0000;" x="228.012299" xlink:href="#m35324ed34b" y="146.764062"/>
     <use style="fill:#ff0000;stroke:#ff0000;" x="229.265792" xlink:href="#m35324ed34b" y="146.764062"/>
     <use style="fill:#ff0000;stroke:#ff0000;" x="230.519284" xlink:href="#m35324ed34b" y="147.362528"/>
     <use style="fill:#ff0000;stroke:#ff0000;" x="231.772776" xlink:href="#m35324ed34b" y="147.362528"/>
     <use style="fill:#ff0000;stroke:#ff0000;" x="233.026269" xlink:href="#m35324ed34b" y="164.768599"/>
     <use style="fill:#ff0000;stroke:#ff0000;" x="234.279761" xlink:href="#m35324ed34b" y="164.768599"/>
     <use style="fill:#ff0000;stroke:#ff0000;" x="235.533254" xlink:href="#m35324ed34b" y="149.843433"/>
     <use style="fill:#ff0000;stroke:#ff0000;" x="236.786746" xlink:href="#m35324ed34b" y="165.389866"/>
     <use style="fill:#ff0000;stroke:#ff0000;" x="238.040239" xlink:href="#m35324ed34b" y="165.389866"/>
     <use style="fill:#ff0000;stroke:#ff0000;" x="239.293731" xlink:href="#m35324ed34b" y="182.569135"/>
     <use style="fill:#ff0000;stroke:#ff0000;" x="240.547224" xlink:href="#m35324ed34b" y="182.569135"/>
     <use style="fill:#ff0000;stroke:#ff0000;" x="241.800716" xlink:href="#m35324ed34b" y="182.569135"/>
     <use style="fill:#ff0000;stroke:#ff0000;" x="243.054208" xlink:href="#m35324ed34b" y="186.995527"/>
     <use style="fill:#ff0000;stroke:#ff0000;" x="244.307701" xlink:href="#m35324ed34b" y="186.995527"/>
     <use style="fill:#ff0000;stroke:#ff0000;" x="245.561193" xlink:href="#m35324ed34b" y="202.786387"/>
     <use style="fill:#ff0000;stroke:#ff0000;" x="246.814686" xlink:href="#m35324ed34b" y="202.786387"/>
     <use style="fill:#ff0000;stroke:#ff0000;" x="248.068178" xlink:href="#m35324ed34b" y="220.156747"/>
     <use style="fill:#ff0000;stroke:#ff0000;" x="249.321671" xlink:href="#m35324ed34b" y="220.156747"/>
     <use style="fill:#ff0000;stroke:#ff0000;" x="250.575163" xlink:href="#m35324ed34b" y="205.263368"/>
     <use style="fill:#ff0000;stroke:#ff0000;" x="251.828656" xlink:href="#m35324ed34b" y="191.492738"/>
     <use style="fill:#ff0000;stroke:#ff0000;" x="253.082148" xlink:href="#m35324ed34b" y="191.492738"/>
     <use style="fill:#ff0000;stroke:#ff0000;" x="254.335641" xlink:href="#m35324ed34b" y="187.945838"/>
     <use style="fill:#ff0000;stroke:#ff0000;" x="255.589133" xlink:href="#m35324ed34b" y="187.945838"/>
     <use style="fill:#ff0000;stroke:#ff0000;" x="256.842625" xlink:href="#m35324ed34b" y="171.079457"/>
     <use style="fill:#ff0000;stroke:#ff0000;" x="258.096118" xlink:href="#m35324ed34b" y="171.079457"/>
     <use style="fill:#ff0000;stroke:#ff0000;" x="259.34961" xlink:href="#m35324ed34b" y="171.079457"/>
     <use style="fill:#ff0000;stroke:#ff0000;" x="260.603103" xlink:href="#m35324ed34b" y="171.079457"/>
     <use style="fill:#ff0000;stroke:#ff0000;" x="261.856595" xlink:href="#m35324ed34b" y="153.388379"/>
     <use style="fill:#ff0000;stroke:#ff0000;" x="263.110088" xlink:href="#m35324ed34b" y="152.826609"/>
     <use style="fill:#ff0000;stroke:#ff0000;" x="264.36358" xlink:href="#m35324ed34b" y="152.826609"/>
     <use style="fill:#ff0000;stroke:#ff0000;" x="265.617073" xlink:href="#m35324ed34b" y="152.272915"/>
     <use style="fill:#ff0000;stroke:#ff0000;" x="266.870565" xlink:href="#m35324ed34b" y="152.272915"/>
     <use style="fill:#ff0000;stroke:#ff0000;" x="268.124058" xlink:href="#m35324ed34b" y="133.507684"/>
     <use style="fill:#ff0000;stroke:#ff0000;" x="269.37755" xlink:href="#m35324ed34b" y="151.537352"/>
     <use style="fill:#ff0000;stroke:#ff0000;" x="270.631042" xlink:href="#m35324ed34b" y="151.537352"/>
     <use style="fill:#ff0000;stroke:#ff0000;" x="271.884535" xlink:href="#m35324ed34b" y="151.537352"/>
     <use style="fill:#ff0000;stroke:#ff0000;" x="273.138027" xlink:href="#m35324ed34b" y="166.246657"/>
     <use style="fill:#ff0000;stroke:#ff0000;" x="274.39152" xlink:href="#m35324ed34b" y="166.246657"/>
     <use style="fill:#ff0000;stroke:#ff0000;" x="275.645012" xlink:href="#m35324ed34b" y="166.246657"/>
     <use style="fill:#ff0000;stroke:#ff0000;" x="276.898505" xlink:href="#m35324ed34b" y="182.393885"/>
     <use style="fill:#ff0000;stroke:#ff0000;" x="278.151997" xlink:href="#m35324ed34b" y="182.393885"/>
     <use style="fill:#ff0000;stroke:#ff0000;" x="279.40549" xlink:href="#m35324ed34b" y="168.0719"/>
     <use style="fill:#ff0000;stroke:#ff0000;" x="280.658982" xlink:href="#m35324ed34b" y="170.695117"/>
     <use style="fill:#ff0000;stroke:#ff0000;" x="281.912475" xlink:href="#m35324ed34b" y="170.695117"/>
     <use style="fill:#ff0000;stroke:#ff0000;" x="283.165967" xlink:href="#m35324ed34b" y="186.950511"/>
     <use style="fill:#ff0000;stroke:#ff0000;" x="284.419459" xlink:href="#m35324ed34b" y="186.950511"/>
     <use style="fill:#ff0000;stroke:#ff0000;" x="285.672952" xlink:href="#m35324ed34b" y="186.950511"/>
     <use style="fill:#ff0000;stroke:#ff0000;" x="286.926444" xlink:href="#m35324ed34b" y="170.078534"/>
     <use style="fill:#ff0000;stroke:#ff0000;" x="288.179937" xlink:href="#m35324ed34b" y="185.492283"/>
     <use style="fill:#ff0000;stroke:#ff0000;" x="289.433429" xlink:href="#m35324ed34b" y="185.492283"/>
     <use style="fill:#ff0000;stroke:#ff0000;" x="290.686922" xlink:href="#m35324ed34b" y="200.797409"/>
     <use style="fill:#ff0000;stroke:#ff0000;" x="291.940414" xlink:href="#m35324ed34b" y="200.797409"/>
     <use style="fill:#ff0000;stroke:#ff0000;" x="293.193907" xlink:href="#m35324ed34b" y="200.797409"/>
     <use style="fill:#ff0000;stroke:#ff0000;" x="294.447399" xlink:href="#m35324ed34b" y="200.797409"/>
     <use style="fill:#ff0000;stroke:#ff0000;" x="295.700892" xlink:href="#m35324ed34b" y="184.378136"/>
     <use style="fill:#ff0000;stroke:#ff0000;" x="296.954384" xlink:href="#m35324ed34b" y="184.378136"/>
     <use style="fill:#ff0000;stroke:#ff0000;" x="298.207876" xlink:href="#m35324ed34b" y="200.986103"/>
     <use style="fill:#ff0000;stroke:#ff0000;" x="299.461369" xlink:href="#m35324ed34b" y="200.986103"/>
     <use style="fill:#ff0000;stroke:#ff0000;" x="300.714861" xlink:href="#m35324ed34b" y="184.053496"/>
     <use style="fill:#ff0000;stroke:#ff0000;" x="301.968354" xlink:href="#m35324ed34b" y="184.053496"/>
     <use style="fill:#ff0000;stroke:#ff0000;" x="303.221846" xlink:href="#m35324ed34b" y="198.495525"/>
     <use style="fill:#ff0000;stroke:#ff0000;" x="304.475339" xlink:href="#m35324ed34b" y="198.495525"/>
     <use style="fill:#ff0000;stroke:#ff0000;" x="305.728831" xlink:href="#m35324ed34b" y="214.326912"/>
     <use style="fill:#ff0000;stroke:#ff0000;" x="306.982324" xlink:href="#m35324ed34b" y="214.326912"/>
     <use style="fill:#ff0000;stroke:#ff0000;" x="308.235816" xlink:href="#m35324ed34b" y="214.326912"/>
     <use style="fill:#ff0000;stroke:#ff0000;" x="309.489309" xlink:href="#m35324ed34b" y="214.326912"/>
     <use style="fill:#ff0000;stroke:#ff0000;" x="310.742801" xlink:href="#m35324ed34b" y="214.326912"/>
     <use style="fill:#ff0000;stroke:#ff0000;" x="311.996293" xlink:href="#m35324ed34b" y="214.326912"/>
     <use style="fill:#ff0000;stroke:#ff0000;" x="313.249786" xlink:href="#m35324ed34b" y="214.326912"/>
     <use style="fill:#ff0000;stroke:#ff0000;" x="314.503278" xlink:href="#m35324ed34b" y="214.326912"/>
     <use style="fill:#ff0000;stroke:#ff0000;" x="315.756771" xlink:href="#m35324ed34b" y="214.326912"/>
     <use style="fill:#ff0000;stroke:#ff0000;" x="317.010263" xlink:href="#m35324ed34b" y="214.326912"/>
     <use style="fill:#ff0000;stroke:#ff0000;" x="318.263756" xlink:href="#m35324ed34b" y="214.326912"/>
     <use style="fill:#ff0000;stroke:#ff0000;" x="319.517248" xlink:href="#m35324ed34b" y="214.326912"/>
     <use style="fill:#ff0000;stroke:#ff0000;" x="320.770741" xlink:href="#m35324ed34b" y="214.326912"/>
     <use style="fill:#ff0000;stroke:#ff0000;" x="322.024233" xlink:href="#m35324ed34b" y="214.326912"/>
     <use style="fill:#ff0000;stroke:#ff0000;" x="323.277726" xlink:href="#m35324ed34b" y="214.326912"/>
     <use style="fill:#ff0000;stroke:#ff0000;" x="324.531218" xlink:href="#m35324ed34b" y="214.326912"/>
     <use style="fill:#ff0000;stroke:#ff0000;" x="325.78471" xlink:href="#m35324ed34b" y="214.326912"/>
     <use style="fill:#ff0000;stroke:#ff0000;" x="327.038203" xlink:href="#m35324ed34b" y="214.326912"/>
     <use style="fill:#ff0000;stroke:#ff0000;" x="328.291695" xlink:href="#m35324ed34b" y="214.326912"/>
     <use style="fill:#ff0000;stroke:#ff0000;" x="329.545188" xlink:href="#m35324ed34b" y="214.326912"/>
     <use style="fill:#ff0000;stroke:#ff0000;" x="330.79868" xlink:href="#m35324ed34b" y="214.326912"/>
     <use style="fill:#ff0000;stroke:#ff0000;" x="332.052173" xlink:href="#m35324ed34b" y="214.326912"/>
     <use style="fill:#ff0000;stroke:#ff0000;" x="333.305665" xlink:href="#m35324ed34b" y="214.326912"/>
     <use style="fill:#ff0000;stroke:#ff0000;" x="334.559158" xlink:href="#m35324ed34b" y="214.326912"/>
     <use style="fill:#ff0000;stroke:#ff0000;" x="335.81265" xlink:href="#m35324ed34b" y="214.326912"/>
     <use style="fill:#ff0000;stroke:#ff0000;" x="337.066143" xlink:href="#m35324ed34b" y="214.326912"/>
     <use style="fill:#ff0000;stroke:#ff0000;" x="338.319635" xlink:href="#m35324ed34b" y="214.326912"/>
     <use style="fill:#ff0000;stroke:#ff0000;" x="339.573127" xlink:href="#m35324ed34b" y="214.326912"/>
     <use style="fill:#ff0000;stroke:#ff0000;" x="340.82662" xlink:href="#m35324ed34b" y="214.326912"/>
     <use style="fill:#ff0000;stroke:#ff0000;" x="342.080112" xlink:href="#m35324ed34b" y="214.326912"/>
     <use style="fill:#ff0000;stroke:#ff0000;" x="343.333605" xlink:href="#m35324ed34b" y="214.326912"/>
     <use style="fill:#ff0000;stroke:#ff0000;" x="344.587097" xlink:href="#m35324ed34b" y="214.326912"/>
     <use style="fill:#ff0000;stroke:#ff0000;" x="345.84059" xlink:href="#m35324ed34b" y="214.326912"/>
     <use style="fill:#ff0000;stroke:#ff0000;" x="347.094082" xlink:href="#m35324ed34b" y="214.326912"/>
     <use style="fill:#ff0000;stroke:#ff0000;" x="348.347575" xlink:href="#m35324ed34b" y="214.326912"/>
     <use style="fill:#ff0000;stroke:#ff0000;" x="349.601067" xlink:href="#m35324ed34b" y="214.326912"/>
     <use style="fill:#ff0000;stroke:#ff0000;" x="350.854559" xlink:href="#m35324ed34b" y="214.326912"/>
     <use style="fill:#ff0000;stroke:#ff0000;" x="352.108052" xlink:href="#m35324ed34b" y="214.326912"/>
     <use style="fill:#ff0000;stroke:#ff0000;" x="353.361544" xlink:href="#m35324ed34b" y="214.326912"/>
     <use style="fill:#ff0000;stroke:#ff0000;" x="354.615037" xlink:href="#m35324ed34b" y="214.326912"/>
     <use style="fill:#ff0000;stroke:#ff0000;" x="355.868529" xlink:href="#m35324ed34b" y="214.326912"/>
     <use style="fill:#ff0000;stroke:#ff0000;" x="357.122022" xlink:href="#m35324ed34b" y="214.326912"/>
     <use style="fill:#ff0000;stroke:#ff0000;" x="358.375514" xlink:href="#m35324ed34b" y="214.326912"/>
     <use style="fill:#ff0000;stroke:#ff0000;" x="359.629007" xlink:href="#m35324ed34b" y="214.326912"/>
     <use style="fill:#ff0000;stroke:#ff0000;" x="360.882499" xlink:href="#m35324ed34b" y="214.326912"/>
     <use style="fill:#ff0000;stroke:#ff0000;" x="362.135992" xlink:href="#m35324ed34b" y="214.326912"/>
     <use style="fill:#ff0000;stroke:#ff0000;" x="363.389484" xlink:href="#m35324ed34b" y="214.326912"/>
     <use style="fill:#ff0000;stroke:#ff0000;" x="364.642976" xlink:href="#m35324ed34b" y="214.326912"/>
     <use style="fill:#ff0000;stroke:#ff0000;" x="365.896469" xlink:href="#m35324ed34b" y="214.326912"/>
     <use style="fill:#ff0000;stroke:#ff0000;" x="367.149961" xlink:href="#m35324ed34b" y="214.326912"/>
     <use style="fill:#ff0000;stroke:#ff0000;" x="368.403454" xlink:href="#m35324ed34b" y="214.326912"/>
     <use style="fill:#ff0000;stroke:#ff0000;" x="369.656946" xlink:href="#m35324ed34b" y="214.326912"/>
     <use style="fill:#ff0000;stroke:#ff0000;" x="370.910439" xlink:href="#m35324ed34b" y="214.326912"/>
     <use style="fill:#ff0000;stroke:#ff0000;" x="372.163931" xlink:href="#m35324ed34b" y="214.326912"/>
     <use style="fill:#ff0000;stroke:#ff0000;" x="373.417424" xlink:href="#m35324ed34b" y="214.326912"/>
     <use style="fill:#ff0000;stroke:#ff0000;" x="374.670916" xlink:href="#m35324ed34b" y="214.326912"/>
     <use style="fill:#ff0000;stroke:#ff0000;" x="375.924409" xlink:href="#m35324ed34b" y="214.326912"/>
     <use style="fill:#ff0000;stroke:#ff0000;" x="377.177901" xlink:href="#m35324ed34b" y="214.326912"/>
     <use style="fill:#ff0000;stroke:#ff0000;" x="378.431393" xlink:href="#m35324ed34b" y="214.326912"/>
     <use style="fill:#ff0000;stroke:#ff0000;" x="379.684886" xlink:href="#m35324ed34b" y="214.326912"/>
     <use style="fill:#ff0000;stroke:#ff0000;" x="380.938378" xlink:href="#m35324ed34b" y="214.326912"/>
     <use style="fill:#ff0000;stroke:#ff0000;" x="382.191871" xlink:href="#m35324ed34b" y="214.326912"/>
     <use style="fill:#ff0000;stroke:#ff0000;" x="383.445363" xlink:href="#m35324ed34b" y="214.326912"/>
     <use style="fill:#ff0000;stroke:#ff0000;" x="384.698856" xlink:href="#m35324ed34b" y="214.326912"/>
     <use style="fill:#ff0000;stroke:#ff0000;" x="385.952348" xlink:href="#m35324ed34b" y="214.326912"/>
     <use style="fill:#ff0000;stroke:#ff0000;" x="387.205841" xlink:href="#m35324ed34b" y="214.326912"/>
     <use style="fill:#ff0000;stroke:#ff0000;" x="388.459333" xlink:href="#m35324ed34b" y="214.326912"/>
     <use style="fill:#ff0000;stroke:#ff0000;" x="389.712826" xlink:href="#m35324ed34b" y="214.326912"/>
     <use style="fill:#ff0000;stroke:#ff0000;" x="390.966318" xlink:href="#m35324ed34b" y="214.326912"/>
     <use style="fill:#ff0000;stroke:#ff0000;" x="392.21981" xlink:href="#m35324ed34b" y="214.326912"/>
     <use style="fill:#ff0000;stroke:#ff0000;" x="393.473303" xlink:href="#m35324ed34b" y="214.326912"/>
     <use style="fill:#ff0000;stroke:#ff0000;" x="394.726795" xlink:href="#m35324ed34b" y="214.326912"/>
     <use style="fill:#ff0000;stroke:#ff0000;" x="395.980288" xlink:href="#m35324ed34b" y="214.326912"/>
     <use style="fill:#ff0000;stroke:#ff0000;" x="397.23378" xlink:href="#m35324ed34b" y="214.326912"/>
     <use style="fill:#ff0000;stroke:#ff0000;" x="398.487273" xlink:href="#m35324ed34b" y="214.326912"/>
    </g>
   </g>
   <g id="patch_3">
    <path d="M 57.6 307.584 
L 57.6 41.472 
" style="fill:none;stroke:#000000;stroke-linecap:square;stroke-linejoin:miter;stroke-width:0.8;"/>
   </g>
   <g id="patch_4">
    <path d="M 414.72 307.584 
L 414.72 41.472 
" style="fill:none;stroke:#000000;stroke-linecap:square;stroke-linejoin:miter;stroke-width:0.8;"/>
   </g>
   <g id="patch_5">
    <path d="M 57.6 307.584 
L 414.72 307.584 
" style="fill:none;stroke:#000000;stroke-linecap:square;stroke-linejoin:miter;stroke-width:0.8;"/>
   </g>
   <g id="patch_6">
    <path d="M 57.6 41.472 
L 414.72 41.472 
" style="fill:none;stroke:#000000;stroke-linecap:square;stroke-linejoin:miter;stroke-width:0.8;"/>
   </g>
  </g>
 </g>
 <defs>
  <clipPath id="p2019aa0c9f">
   <rect height="266.112" width="357.12" x="57.6" y="41.472"/>
  </clipPath>
 </defs>
</svg>
