<?xml version="1.0" encoding="utf-8" standalone="no"?>
<!DOCTYPE svg PUBLIC "-//W3C//DTD SVG 1.1//EN"
  "http://www.w3.org/Graphics/SVG/1.1/DTD/svg11.dtd">
<!-- Created with matplotlib (https://matplotlib.org/) -->
<svg height="345.6pt" version="1.1" viewBox="0 0 460.8 345.6" width="460.8pt" xmlns="http://www.w3.org/2000/svg" xmlns:xlink="http://www.w3.org/1999/xlink">
 <defs>
  <style type="text/css">
*{stroke-linecap:butt;stroke-linejoin:round;}
  </style>
 </defs>
 <g id="figure_1">
  <g id="patch_1">
   <path d="M 0 345.6 
L 460.8 345.6 
L 460.8 0 
L 0 0 
z
" style="fill:#ffffff;"/>
  </g>
  <g id="axes_1">
   <g id="patch_2">
    <path d="M 57.6 307.584 
L 414.72 307.584 
L 414.72 41.472 
L 57.6 41.472 
z
" style="fill:#ffffff;"/>
   </g>
   <g id="line2d_1">
    <path clip-path="url(#p0cd7abd2a9)" d="M 73.832727 207.873812 
L 75.163279 256.061977 
L 83.146587 256.061977 
L 84.477139 245.229812 
L 85.80769 245.229812 
L 87.138241 251.249463 
L 88.468793 251.249463 
L 89.799344 295.488 
L 91.129896 248.356895 
L 93.790999 248.356895 
L 95.12155 199.336014 
L 96.452101 187.847765 
L 101.774307 187.847765 
L 103.104858 144.386977 
L 104.43541 144.386977 
L 105.765961 93.656265 
L 107.096513 93.656265 
L 108.427064 110.978728 
L 109.757615 95.316873 
L 113.74927 95.316873 
L 115.079821 80.362718 
L 117.740924 80.362718 
L 119.071475 97.018543 
L 120.402027 97.018543 
L 123.06313 68.459192 
L 124.393681 68.459192 
L 125.724232 53.568 
L 127.054784 53.568 
L 128.385335 70.943415 
L 129.715887 70.943415 
L 131.046438 56.151277 
L 132.37699 56.151277 
L 135.038092 90.028365 
L 137.699195 90.028365 
L 139.029747 75.174326 
L 140.360298 75.174326 
L 141.690849 59.165674 
L 145.682504 59.165674 
L 147.013055 76.780944 
L 148.343607 76.780944 
L 149.674158 93.311546 
L 151.004709 93.311546 
L 152.335261 108.924266 
L 154.996364 108.924266 
L 156.326915 94.543589 
L 157.657466 94.543589 
L 160.318569 127.813725 
L 164.310224 127.813725 
L 165.640775 111.643616 
L 166.971326 111.643616 
L 168.301878 97.725699 
L 169.632429 97.725699 
L 170.962981 113.898247 
L 173.624083 113.898247 
L 174.954635 129.931926 
L 176.285186 129.931926 
L 177.615738 146.156732 
L 178.946289 146.156732 
L 180.276841 149.984838 
L 185.599046 149.984838 
L 186.929598 167.387268 
L 188.260149 167.387268 
L 189.5907 150.536679 
L 190.921252 150.536679 
L 192.251803 166.182514 
L 194.912906 166.182514 
L 196.243458 148.950885 
L 197.574009 148.950885 
L 198.90456 134.481031 
L 200.235112 134.481031 
L 201.565663 118.256134 
L 202.896215 133.845283 
L 204.226766 133.845283 
L 205.557317 117.142315 
L 206.887869 117.142315 
L 208.21842 136.306606 
L 209.548972 136.306606 
L 210.879523 154.510223 
L 212.210075 156.882445 
L 213.540626 156.882445 
L 214.871177 174.227226 
L 216.201729 174.227226 
L 217.53228 157.822223 
L 218.862832 157.822223 
L 220.193383 141.567245 
L 221.523934 141.567245 
L 222.854486 125.450305 
L 233.498897 125.450305 
L 234.829449 142.236368 
L 236.16 146.764062 
L 238.821103 146.764062 
L 240.151654 147.362528 
L 241.482206 147.362528 
L 242.812757 164.768599 
L 244.143308 164.768599 
L 245.47386 149.843433 
L 246.804411 165.389866 
L 248.134963 165.389866 
L 249.465514 182.569135 
L 252.126617 182.569135 
L 253.457168 186.995527 
L 254.78772 186.995527 
L 256.118271 202.786387 
L 257.448823 202.786387 
L 258.779374 220.156747 
L 260.109925 220.156747 
L 262.771028 191.492738 
L 264.10158 191.492738 
L 265.432131 187.945838 
L 266.762683 187.945838 
L 268.093234 171.079457 
L 272.084888 171.079457 
L 273.41544 153.388379 
L 274.745991 152.826609 
L 276.076542 152.826609 
L 277.407094 152.272915 
L 278.737645 152.272915 
L 280.068197 133.507684 
L 281.398748 151.537352 
L 284.059851 151.537352 
L 285.390402 166.246657 
L 288.051505 166.246657 
L 289.382057 182.393885 
L 290.712608 182.393885 
L 292.043159 168.0719 
L 293.373711 170.695117 
L 294.704262 170.695117 
L 296.034814 186.950511 
L 298.695917 186.950511 
L 300.026468 170.078534 
L 301.357019 185.492283 
L 302.687571 185.492283 
L 304.018122 200.797409 
L 308.009776 200.797409 
L 309.340328 184.378136 
L 310.670879 184.378136 
L 312.001431 200.986103 
L 313.331982 200.986103 
L 314.662534 184.053496 
L 315.993085 184.053496 
L 317.323636 198.495525 
L 318.654188 198.495525 
L 319.984739 214.326912 
L 398.487273 214.326912 
L 398.487273 214.326912 
" style="fill:none;stroke:#ff0000;stroke-linecap:square;stroke-width:12;"/>
    <defs>
     <path d="M 0 3 
C 0.795609 3 1.55874 2.683901 2.12132 2.12132 
C 2.683901 1.55874 3 0.795609 3 0 
C 3 -0.795609 2.683901 -1.55874 2.12132 -2.12132 
C 1.55874 -2.683901 0.795609 -3 0 -3 
C -0.795609 -3 -1.55874 -2.683901 -2.12132 -2.12132 
C -2.683901 -1.55874 -3 -0.795609 -3 0 
C -3 0.795609 -2.683901 1.55874 -2.12132 2.12132 
C -1.55874 2.683901 -0.795609 3 0 3 
z
" id="m394b58b146" style="stroke:#ff0000;"/>
    </defs>
    <g clip-path="url(#p0cd7abd2a9)">
     <use style="fill:#ff0000;stroke:#ff0000;" x="73.832727" xlink:href="#m394b58b146" y="207.873812"/>
     <use style="fill:#ff0000;stroke:#ff0000;" x="75.163279" xlink:href="#m394b58b146" y="256.061977"/>
     <use style="fill:#ff0000;stroke:#ff0000;" x="76.49383" xlink:href="#m394b58b146" y="256.061977"/>
     <use style="fill:#ff0000;stroke:#ff0000;" x="77.824382" xlink:href="#m394b58b146" y="256.061977"/>
     <use style="fill:#ff0000;stroke:#ff0000;" x="79.154933" xlink:href="#m394b58b146" y="256.061977"/>
     <use style="fill:#ff0000;stroke:#ff0000;" x="80.485484" xlink:href="#m394b58b146" y="256.061977"/>
     <use style="fill:#ff0000;stroke:#ff0000;" x="81.816036" xlink:href="#m394b58b146" y="256.061977"/>
     <use style="fill:#ff0000;stroke:#ff0000;" x="83.146587" xlink:href="#m394b58b146" y="256.061977"/>
     <use style="fill:#ff0000;stroke:#ff0000;" x="84.477139" xlink:href="#m394b58b146" y="245.229812"/>
     <use style="fill:#ff0000;stroke:#ff0000;" x="85.80769" xlink:href="#m394b58b146" y="245.229812"/>
     <use style="fill:#ff0000;stroke:#ff0000;" x="87.138241" xlink:href="#m394b58b146" y="251.249463"/>
     <use style="fill:#ff0000;stroke:#ff0000;" x="88.468793" xlink:href="#m394b58b146" y="251.249463"/>
     <use style="fill:#ff0000;stroke:#ff0000;" x="89.799344" xlink:href="#m394b58b146" y="295.488"/>
     <use style="fill:#ff0000;stroke:#ff0000;" x="91.129896" xlink:href="#m394b58b146" y="248.356895"/>
     <use style="fill:#ff0000;stroke:#ff0000;" x="92.460447" xlink:href="#m394b58b146" y="248.356895"/>
     <use style="fill:#ff0000;stroke:#ff0000;" x="93.790999" xlink:href="#m394b58b146" y="248.356895"/>
     <use style="fill:#ff0000;stroke:#ff0000;" x="95.12155" xlink:href="#m394b58b146" y="199.336014"/>
     <use style="fill:#ff0000;stroke:#ff0000;" x="96.452101" xlink:href="#m394b58b146" y="187.847765"/>
     <use style="fill:#ff0000;stroke:#ff0000;" x="97.782653" xlink:href="#m394b58b146" y="187.847765"/>
     <use style="fill:#ff0000;stroke:#ff0000;" x="99.113204" xlink:href="#m394b58b146" y="187.847765"/>
     <use style="fill:#ff0000;stroke:#ff0000;" x="100.443756" xlink:href="#m394b58b146" y="187.847765"/>
     <use style="fill:#ff0000;stroke:#ff0000;" x="101.774307" xlink:href="#m394b58b146" y="187.847765"/>
     <use style="fill:#ff0000;stroke:#ff0000;" x="103.104858" xlink:href="#m394b58b146" y="144.386977"/>
     <use style="fill:#ff0000;stroke:#ff0000;" x="104.43541" xlink:href="#m394b58b146" y="144.386977"/>
     <use style="fill:#ff0000;stroke:#ff0000;" x="105.765961" xlink:href="#m394b58b146" y="93.656265"/>
     <use style="fill:#ff0000;stroke:#ff0000;" x="107.096513" xlink:href="#m394b58b146" y="93.656265"/>
     <use style="fill:#ff0000;stroke:#ff0000;" x="108.427064" xlink:href="#m394b58b146" y="110.978728"/>
     <use style="fill:#ff0000;stroke:#ff0000;" x="109.757615" xlink:href="#m394b58b146" y="95.316873"/>
     <use style="fill:#ff0000;stroke:#ff0000;" x="111.088167" xlink:href="#m394b58b146" y="95.316873"/>
     <use style="fill:#ff0000;stroke:#ff0000;" x="112.418718" xlink:href="#m394b58b146" y="95.316873"/>
     <use style="fill:#ff0000;stroke:#ff0000;" x="113.74927" xlink:href="#m394b58b146" y="95.316873"/>
     <use style="fill:#ff0000;stroke:#ff0000;" x="115.079821" xlink:href="#m394b58b146" y="80.362718"/>
     <use style="fill:#ff0000;stroke:#ff0000;" x="116.410373" xlink:href="#m394b58b146" y="80.362718"/>
     <use style="fill:#ff0000;stroke:#ff0000;" x="117.740924" xlink:href="#m394b58b146" y="80.362718"/>
     <use style="fill:#ff0000;stroke:#ff0000;" x="119.071475" xlink:href="#m394b58b146" y="97.018543"/>
     <use style="fill:#ff0000;stroke:#ff0000;" x="120.402027" xlink:href="#m394b58b146" y="97.018543"/>
     <use style="fill:#ff0000;stroke:#ff0000;" x="121.732578" xlink:href="#m394b58b146" y="83.228386"/>
     <use style="fill:#ff0000;stroke:#ff0000;" x="123.06313" xlink:href="#m394b58b146" y="68.459192"/>
     <use style="fill:#ff0000;stroke:#ff0000;" x="124.393681" xlink:href="#m394b58b146" y="68.459192"/>
     <use style="fill:#ff0000;stroke:#ff0000;" x="125.724232" xlink:href="#m394b58b146" y="53.568"/>
     <use style="fill:#ff0000;stroke:#ff0000;" x="127.054784" xlink:href="#m394b58b146" y="53.568"/>
     <use style="fill:#ff0000;stroke:#ff0000;" x="128.385335" xlink:href="#m394b58b146" y="70.943415"/>
     <use style="fill:#ff0000;stroke:#ff0000;" x="129.715887" xlink:href="#m394b58b146" y="70.943415"/>
     <use style="fill:#ff0000;stroke:#ff0000;" x="131.046438" xlink:href="#m394b58b146" y="56.151277"/>
     <use style="fill:#ff0000;stroke:#ff0000;" x="132.37699" xlink:href="#m394b58b146" y="56.151277"/>
     <use style="fill:#ff0000;stroke:#ff0000;" x="133.707541" xlink:href="#m394b58b146" y="72.718497"/>
     <use style="fill:#ff0000;stroke:#ff0000;" x="135.038092" xlink:href="#m394b58b146" y="90.028365"/>
     <use style="fill:#ff0000;stroke:#ff0000;" x="136.368644" xlink:href="#m394b58b146" y="90.028365"/>
     <use style="fill:#ff0000;stroke:#ff0000;" x="137.699195" xlink:href="#m394b58b146" y="90.028365"/>
     <use style="fill:#ff0000;stroke:#ff0000;" x="139.029747" xlink:href="#m394b58b146" y="75.174326"/>
     <use style="fill:#ff0000;stroke:#ff0000;" x="140.360298" xlink:href="#m394b58b146" y="75.174326"/>
     <use style="fill:#ff0000;stroke:#ff0000;" x="141.690849" xlink:href="#m394b58b146" y="59.165674"/>
     <use style="fill:#ff0000;stroke:#ff0000;" x="143.021401" xlink:href="#m394b58b146" y="59.165674"/>
     <use style="fill:#ff0000;stroke:#ff0000;" x="144.351952" xlink:href="#m394b58b146" y="59.165674"/>
     <use style="fill:#ff0000;stroke:#ff0000;" x="145.682504" xlink:href="#m394b58b146" y="59.165674"/>
     <use style="fill:#ff0000;stroke:#ff0000;" x="147.013055" xlink:href="#m394b58b146" y="76.780944"/>
     <use style="fill:#ff0000;stroke:#ff0000;" x="148.343607" xlink:href="#m394b58b146" y="76.780944"/>
     <use style="fill:#ff0000;stroke:#ff0000;" x="149.674158" xlink:href="#m394b58b146" y="93.311546"/>
     <use style="fill:#ff0000;stroke:#ff0000;" x="151.004709" xlink:href="#m394b58b146" y="93.311546"/>
     <use style="fill:#ff0000;stroke:#ff0000;" x="152.335261" xlink:href="#m394b58b146" y="108.924266"/>
     <use style="fill:#ff0000;stroke:#ff0000;" x="153.665812" xlink:href="#m394b58b146" y="108.924266"/>
     <use style="fill:#ff0000;stroke:#ff0000;" x="154.996364" xlink:href="#m394b58b146" y="108.924266"/>
     <use style="fill:#ff0000;stroke:#ff0000;" x="156.326915" xlink:href="#m394b58b146" y="94.543589"/>
     <use style="fill:#ff0000;stroke:#ff0000;" x="157.657466" xlink:href="#m394b58b146" y="94.543589"/>
     <use style="fill:#ff0000;stroke:#ff0000;" x="158.988018" xlink:href="#m394b58b146" y="110.869924"/>
     <use style="fill:#ff0000;stroke:#ff0000;" x="160.318569" xlink:href="#m394b58b146" y="127.813725"/>
     <use style="fill:#ff0000;stroke:#ff0000;" x="161.649121" xlink:href="#m394b58b146" y="127.813725"/>
     <use style="fill:#ff0000;stroke:#ff0000;" x="162.979672" xlink:href="#m394b58b146" y="127.813725"/>
     <use style="fill:#ff0000;stroke:#ff0000;" x="164.310224" xlink:href="#m394b58b146" y="127.813725"/>
     <use style="fill:#ff0000;stroke:#ff0000;" x="165.640775" xlink:href="#m394b58b146" y="111.643616"/>
     <use style="fill:#ff0000;stroke:#ff0000;" x="166.971326" xlink:href="#m394b58b146" y="111.643616"/>
     <use style="fill:#ff0000;stroke:#ff0000;" x="168.301878" xlink:href="#m394b58b146" y="97.725699"/>
     <use style="fill:#ff0000;stroke:#ff0000;" x="169.632429" xlink:href="#m394b58b146" y="97.725699"/>
     <use style="fill:#ff0000;stroke:#ff0000;" x="170.962981" xlink:href="#m394b58b146" y="113.898247"/>
     <use style="fill:#ff0000;stroke:#ff0000;" x="172.293532" xlink:href="#m394b58b146" y="113.898247"/>
     <use style="fill:#ff0000;stroke:#ff0000;" x="173.624083" xlink:href="#m394b58b146" y="113.898247"/>
     <use style="fill:#ff0000;stroke:#ff0000;" x="174.954635" xlink:href="#m394b58b146" y="129.931926"/>
     <use style="fill:#ff0000;stroke:#ff0000;" x="176.285186" xlink:href="#m394b58b146" y="129.931926"/>
     <use style="fill:#ff0000;stroke:#ff0000;" x="177.615738" xlink:href="#m394b58b146" y="146.156732"/>
     <use style="fill:#ff0000;stroke:#ff0000;" x="178.946289" xlink:href="#m394b58b146" y="146.156732"/>
     <use style="fill:#ff0000;stroke:#ff0000;" x="180.276841" xlink:href="#m394b58b146" y="149.984838"/>
     <use style="fill:#ff0000;stroke:#ff0000;" x="181.607392" xlink:href="#m394b58b146" y="149.984838"/>
     <use style="fill:#ff0000;stroke:#ff0000;" x="182.937943" xlink:href="#m394b58b146" y="149.984838"/>
     <use style="fill:#ff0000;stroke:#ff0000;" x="184.268495" xlink:href="#m394b58b146" y="149.984838"/>
     <use style="fill:#ff0000;stroke:#ff0000;" x="185.599046" xlink:href="#m394b58b146" y="149.984838"/>
     <use style="fill:#ff0000;stroke:#ff0000;" x="186.929598" xlink:href="#m394b58b146" y="167.387268"/>
     <use style="fill:#ff0000;stroke:#ff0000;" x="188.260149" xlink:href="#m394b58b146" y="167.387268"/>
     <use style="fill:#ff0000;stroke:#ff0000;" x="189.5907" xlink:href="#m394b58b146" y="150.536679"/>
     <use style="fill:#ff0000;stroke:#ff0000;" x="190.921252" xlink:href="#m394b58b146" y="150.536679"/>
     <use style="fill:#ff0000;stroke:#ff0000;" x="192.251803" xlink:href="#m394b58b146" y="166.182514"/>
     <use style="fill:#ff0000;stroke:#ff0000;" x="193.582355" xlink:href="#m394b58b146" y="166.182514"/>
     <use style="fill:#ff0000;stroke:#ff0000;" x="194.912906" xlink:href="#m394b58b146" y="166.182514"/>
     <use style="fill:#ff0000;stroke:#ff0000;" x="196.243458" xlink:href="#m394b58b146" y="148.950885"/>
     <use style="fill:#ff0000;stroke:#ff0000;" x="197.574009" xlink:href="#m394b58b146" y="148.950885"/>
     <use style="fill:#ff0000;stroke:#ff0000;" x="198.90456" xlink:href="#m394b58b146" y="134.481031"/>
     <use style="fill:#ff0000;stroke:#ff0000;" x="200.235112" xlink:href="#m394b58b146" y="134.481031"/>
     <use style="fill:#ff0000;stroke:#ff0000;" x="201.565663" xlink:href="#m394b58b146" y="118.256134"/>
     <use style="fill:#ff0000;stroke:#ff0000;" x="202.896215" xlink:href="#m394b58b146" y="133.845283"/>
     <use style="fill:#ff0000;stroke:#ff0000;" x="204.226766" xlink:href="#m394b58b146" y="133.845283"/>
     <use style="fill:#ff0000;stroke:#ff0000;" x="205.557317" xlink:href="#m394b58b146" y="117.142315"/>
     <use style="fill:#ff0000;stroke:#ff0000;" x="206.887869" xlink:href="#m394b58b146" y="117.142315"/>
     <use style="fill:#ff0000;stroke:#ff0000;" x="208.21842" xlink:href="#m394b58b146" y="136.306606"/>
     <use style="fill:#ff0000;stroke:#ff0000;" x="209.548972" xlink:href="#m394b58b146" y="136.306606"/>
     <use style="fill:#ff0000;stroke:#ff0000;" x="210.879523" xlink:href="#m394b58b146" y="154.510223"/>
     <use style="fill:#ff0000;stroke:#ff0000;" x="212.210075" xlink:href="#m394b58b146" y="156.882445"/>
     <use style="fill:#ff0000;stroke:#ff0000;" x="213.540626" xlink:href="#m394b58b146" y="156.882445"/>
     <use style="fill:#ff0000;stroke:#ff0000;" x="214.871177" xlink:href="#m394b58b146" y="174.227226"/>
     <use style="fill:#ff0000;stroke:#ff0000;" x="216.201729" xlink:href="#m394b58b146" y="174.227226"/>
     <use style="fill:#ff0000;stroke:#ff0000;" x="217.53228" xlink:href="#m394b58b146" y="157.822223"/>
     <use style="fill:#ff0000;stroke:#ff0000;" x="218.862832" xlink:href="#m394b58b146" y="157.822223"/>
     <use style="fill:#ff0000;stroke:#ff0000;" x="220.193383" xlink:href="#m394b58b146" y="141.567245"/>
     <use style="fill:#ff0000;stroke:#ff0000;" x="221.523934" xlink:href="#m394b58b146" y="141.567245"/>
     <use style="fill:#ff0000;stroke:#ff0000;" x="222.854486" xlink:href="#m394b58b146" y="125.450305"/>
     <use style="fill:#ff0000;stroke:#ff0000;" x="224.185037" xlink:href="#m394b58b146" y="125.450305"/>
     <use style="fill:#ff0000;stroke:#ff0000;" x="225.515589" xlink:href="#m394b58b146" y="125.450305"/>
     <use style="fill:#ff0000;stroke:#ff0000;" x="226.84614" xlink:href="#m394b58b146" y="125.450305"/>
     <use style="fill:#ff0000;stroke:#ff0000;" x="228.176692" xlink:href="#m394b58b146" y="125.450305"/>
     <use style="fill:#ff0000;stroke:#ff0000;" x="229.507243" xlink:href="#m394b58b146" y="125.450305"/>
     <use style="fill:#ff0000;stroke:#ff0000;" x="230.837794" xlink:href="#m394b58b146" y="125.450305"/>
     <use style="fill:#ff0000;stroke:#ff0000;" x="232.168346" xlink:href="#m394b58b146" y="125.450305"/>
     <use style="fill:#ff0000;stroke:#ff0000;" x="233.498897" xlink:href="#m394b58b146" y="125.450305"/>
     <use style="fill:#ff0000;stroke:#ff0000;" x="234.829449" xlink:href="#m394b58b146" y="142.236368"/>
     <use style="fill:#ff0000;stroke:#ff0000;" x="236.16" xlink:href="#m394b58b146" y="146.764062"/>
     <use style="fill:#ff0000;stroke:#ff0000;" x="237.490551" xlink:href="#m394b58b146" y="146.764062"/>
     <use style="fill:#ff0000;stroke:#ff0000;" x="238.821103" xlink:href="#m394b58b146" y="146.764062"/>
     <use style="fill:#ff0000;stroke:#ff0000;" x="240.151654" xlink:href="#m394b58b146" y="147.362528"/>
     <use style="fill:#ff0000;stroke:#ff0000;" x="241.482206" xlink:href="#m394b58b146" y="147.362528"/>
     <use style="fill:#ff0000;stroke:#ff0000;" x="242.812757" xlink:href="#m394b58b146" y="164.768599"/>
     <use style="fill:#ff0000;stroke:#ff0000;" x="244.143308" xlink:href="#m394b58b146" y="164.768599"/>
     <use style="fill:#ff0000;stroke:#ff0000;" x="245.47386" xlink:href="#m394b58b146" y="149.843433"/>
     <use style="fill:#ff0000;stroke:#ff0000;" x="246.804411" xlink:href="#m394b58b146" y="165.389866"/>
     <use style="fill:#ff0000;stroke:#ff0000;" x="248.134963" xlink:href="#m394b58b146" y="165.389866"/>
     <use style="fill:#ff0000;stroke:#ff0000;" x="249.465514" xlink:href="#m394b58b146" y="182.569135"/>
     <use style="fill:#ff0000;stroke:#ff0000;" x="250.796066" xlink:href="#m394b58b146" y="182.569135"/>
     <use style="fill:#ff0000;stroke:#ff0000;" x="252.126617" xlink:href="#m394b58b146" y="182.569135"/>
     <use style="fill:#ff0000;stroke:#ff0000;" x="253.457168" xlink:href="#m394b58b146" y="186.995527"/>
     <use style="fill:#ff0000;stroke:#ff0000;" x="254.78772" xlink:href="#m394b58b146" y="186.995527"/>
     <use style="fill:#ff0000;stroke:#ff0000;" x="256.118271" xlink:href="#m394b58b146" y="202.786387"/>
     <use style="fill:#ff0000;stroke:#ff0000;" x="257.448823" xlink:href="#m394b58b146" y="202.786387"/>
     <use style="fill:#ff0000;stroke:#ff0000;" x="258.779374" xlink:href="#m394b58b146" y="220.156747"/>
     <use style="fill:#ff0000;stroke:#ff0000;" x="260.109925" xlink:href="#m394b58b146" y="220.156747"/>
     <use style="fill:#ff0000;stroke:#ff0000;" x="261.440477" xlink:href="#m394b58b146" y="205.263368"/>
     <use style="fill:#ff0000;stroke:#ff0000;" x="262.771028" xlink:href="#m394b58b146" y="191.492738"/>
     <use style="fill:#ff0000;stroke:#ff0000;" x="264.10158" xlink:href="#m394b58b146" y="191.492738"/>
     <use style="fill:#ff0000;stroke:#ff0000;" x="265.432131" xlink:href="#m394b58b146" y="187.945838"/>
     <use style="fill:#ff0000;stroke:#ff0000;" x="266.762683" xlink:href="#m394b58b146" y="187.945838"/>
     <use style="fill:#ff0000;stroke:#ff0000;" x="268.093234" xlink:href="#m394b58b146" y="171.079457"/>
     <use style="fill:#ff0000;stroke:#ff0000;" x="269.423785" xlink:href="#m394b58b146" y="171.079457"/>
     <use style="fill:#ff0000;stroke:#ff0000;" x="270.754337" xlink:href="#m394b58b146" y="171.079457"/>
     <use style="fill:#ff0000;stroke:#ff0000;" x="272.084888" xlink:href="#m394b58b146" y="171.079457"/>
     <use style="fill:#ff0000;stroke:#ff0000;" x="273.41544" xlink:href="#m394b58b146" y="153.388379"/>
     <use style="fill:#ff0000;stroke:#ff0000;" x="274.745991" xlink:href="#m394b58b146" y="152.826609"/>
     <use style="fill:#ff0000;stroke:#ff0000;" x="276.076542" xlink:href="#m394b58b146" y="152.826609"/>
     <use style="fill:#ff0000;stroke:#ff0000;" x="277.407094" xlink:href="#m394b58b146" y="152.272915"/>
     <use style="fill:#ff0000;stroke:#ff0000;" x="278.737645" xlink:href="#m394b58b146" y="152.272915"/>
     <use style="fill:#ff0000;stroke:#ff0000;" x="280.068197" xlink:href="#m394b58b146" y="133.507684"/>
     <use style="fill:#ff0000;stroke:#ff0000;" x="281.398748" xlink:href="#m394b58b146" y="151.537352"/>
     <use style="fill:#ff0000;stroke:#ff0000;" x="282.7293" xlink:href="#m394b58b146" y="151.537352"/>
     <use style="fill:#ff0000;stroke:#ff0000;" x="284.059851" xlink:href="#m394b58b146" y="151.537352"/>
     <use style="fill:#ff0000;stroke:#ff0000;" x="285.390402" xlink:href="#m394b58b146" y="166.246657"/>
     <use style="fill:#ff0000;stroke:#ff0000;" x="286.720954" xlink:href="#m394b58b146" y="166.246657"/>
     <use style="fill:#ff0000;stroke:#ff0000;" x="288.051505" xlink:href="#m394b58b146" y="166.246657"/>
     <use style="fill:#ff0000;stroke:#ff0000;" x="289.382057" xlink:href="#m394b58b146" y="182.393885"/>
     <use style="fill:#ff0000;stroke:#ff0000;" x="290.712608" xlink:href="#m394b58b146" y="182.393885"/>
     <use style="fill:#ff0000;stroke:#ff0000;" x="292.043159" xlink:href="#m394b58b146" y="168.0719"/>
     <use style="fill:#ff0000;stroke:#ff0000;" x="293.373711" xlink:href="#m394b58b146" y="170.695117"/>
     <use style="fill:#ff0000;stroke:#ff0000;" x="294.704262" xlink:href="#m394b58b146" y="170.695117"/>
     <use style="fill:#ff0000;stroke:#ff0000;" x="296.034814" xlink:href="#m394b58b146" y="186.950511"/>
     <use style="fill:#ff0000;stroke:#ff0000;" x="297.365365" xlink:href="#m394b58b146" y="186.950511"/>
     <use style="fill:#ff0000;stroke:#ff0000;" x="298.695917" xlink:href="#m394b58b146" y="186.950511"/>
     <use style="fill:#ff0000;stroke:#ff0000;" x="300.026468" xlink:href="#m394b58b146" y="170.078534"/>
     <use style="fill:#ff0000;stroke:#ff0000;" x="301.357019" xlink:href="#m394b58b146" y="185.492283"/>
     <use style="fill:#ff0000;stroke:#ff0000;" x="302.687571" xlink:href="#m394b58b146" y="185.492283"/>
     <use style="fill:#ff0000;stroke:#ff0000;" x="304.018122" xlink:href="#m394b58b146" y="200.797409"/>
     <use style="fill:#ff0000;stroke:#ff0000;" x="305.348674" xlink:href="#m394b58b146" y="200.797409"/>
     <use style="fill:#ff0000;stroke:#ff0000;" x="306.679225" xlink:href="#m394b58b146" y="200.797409"/>
     <use style="fill:#ff0000;stroke:#ff0000;" x="308.009776" xlink:href="#m394b58b146" y="200.797409"/>
     <use style="fill:#ff0000;stroke:#ff0000;" x="309.340328" xlink:href="#m394b58b146" y="184.378136"/>
     <use style="fill:#ff0000;stroke:#ff0000;" x="310.670879" xlink:href="#m394b58b146" y="184.378136"/>
     <use style="fill:#ff0000;stroke:#ff0000;" x="312.001431" xlink:href="#m394b58b146" y="200.986103"/>
     <use style="fill:#ff0000;stroke:#ff0000;" x="313.331982" xlink:href="#m394b58b146" y="200.986103"/>
     <use style="fill:#ff0000;stroke:#ff0000;" x="314.662534" xlink:href="#m394b58b146" y="184.053496"/>
     <use style="fill:#ff0000;stroke:#ff0000;" x="315.993085" xlink:href="#m394b58b146" y="184.053496"/>
     <use style="fill:#ff0000;stroke:#ff0000;" x="317.323636" xlink:href="#m394b58b146" y="198.495525"/>
     <use style="fill:#ff0000;stroke:#ff0000;" x="318.654188" xlink:href="#m394b58b146" y="198.495525"/>
     <use style="fill:#ff0000;stroke:#ff0000;" x="319.984739" xlink:href="#m394b58b146" y="214.326912"/>
     <use style="fill:#ff0000;stroke:#ff0000;" x="321.315291" xlink:href="#m394b58b146" y="214.326912"/>
     <use style="fill:#ff0000;stroke:#ff0000;" x="322.645842" xlink:href="#m394b58b146" y="214.326912"/>
     <use style="fill:#ff0000;stroke:#ff0000;" x="323.976393" xlink:href="#m394b58b146" y="214.326912"/>
     <use style="fill:#ff0000;stroke:#ff0000;" x="325.306945" xlink:href="#m394b58b146" y="214.326912"/>
     <use style="fill:#ff0000;stroke:#ff0000;" x="326.637496" xlink:href="#m394b58b146" y="214.326912"/>
     <use style="fill:#ff0000;stroke:#ff0000;" x="327.968048" xlink:href="#m394b58b146" y="214.326912"/>
     <use style="fill:#ff0000;stroke:#ff0000;" x="329.298599" xlink:href="#m394b58b146" y="214.326912"/>
     <use style="fill:#ff0000;stroke:#ff0000;" x="330.629151" xlink:href="#m394b58b146" y="214.326912"/>
     <use style="fill:#ff0000;stroke:#ff0000;" x="331.959702" xlink:href="#m394b58b146" y="214.326912"/>
     <use style="fill:#ff0000;stroke:#ff0000;" x="333.290253" xlink:href="#m394b58b146" y="214.326912"/>
     <use style="fill:#ff0000;stroke:#ff0000;" x="334.620805" xlink:href="#m394b58b146" y="214.326912"/>
     <use style="fill:#ff0000;stroke:#ff0000;" x="335.951356" xlink:href="#m394b58b146" y="214.326912"/>
     <use style="fill:#ff0000;stroke:#ff0000;" x="337.281908" xlink:href="#m394b58b146" y="214.326912"/>
     <use style="fill:#ff0000;stroke:#ff0000;" x="338.612459" xlink:href="#m394b58b146" y="214.326912"/>
     <use style="fill:#ff0000;stroke:#ff0000;" x="339.94301" xlink:href="#m394b58b146" y="214.326912"/>
     <use style="fill:#ff0000;stroke:#ff0000;" x="341.273562" xlink:href="#m394b58b146" y="214.326912"/>
     <use style="fill:#ff0000;stroke:#ff0000;" x="342.604113" xlink:href="#m394b58b146" y="214.326912"/>
     <use style="fill:#ff0000;stroke:#ff0000;" x="343.934665" xlink:href="#m394b58b146" y="214.326912"/>
     <use style="fill:#ff0000;stroke:#ff0000;" x="345.265216" xlink:href="#m394b58b146" y="214.326912"/>
     <use style="fill:#ff0000;stroke:#ff0000;" x="346.595768" xlink:href="#m394b58b146" y="214.326912"/>
     <use style="fill:#ff0000;stroke:#ff0000;" x="347.926319" xlink:href="#m394b58b146" y="214.326912"/>
     <use style="fill:#ff0000;stroke:#ff0000;" x="349.25687" xlink:href="#m394b58b146" y="214.326912"/>
     <use style="fill:#ff0000;stroke:#ff0000;" x="350.587422" xlink:href="#m394b58b146" y="214.326912"/>
     <use style="fill:#ff0000;stroke:#ff0000;" x="351.917973" xlink:href="#m394b58b146" y="214.326912"/>
     <use style="fill:#ff0000;stroke:#ff0000;" x="353.248525" xlink:href="#m394b58b146" y="214.326912"/>
     <use style="fill:#ff0000;stroke:#ff0000;" x="354.579076" xlink:href="#m394b58b146" y="214.326912"/>
     <use style="fill:#ff0000;stroke:#ff0000;" x="355.909627" xlink:href="#m394b58b146" y="214.326912"/>
     <use style="fill:#ff0000;stroke:#ff0000;" x="357.240179" xlink:href="#m394b58b146" y="214.326912"/>
     <use style="fill:#ff0000;stroke:#ff0000;" x="358.57073" xlink:href="#m394b58b146" y="214.326912"/>
     <use style="fill:#ff0000;stroke:#ff0000;" x="359.901282" xlink:href="#m394b58b146" y="214.326912"/>
     <use style="fill:#ff0000;stroke:#ff0000;" x="361.231833" xlink:href="#m394b58b146" y="214.326912"/>
     <use style="fill:#ff0000;stroke:#ff0000;" x="362.562385" xlink:href="#m394b58b146" y="214.326912"/>
     <use style="fill:#ff0000;stroke:#ff0000;" x="363.892936" xlink:href="#m394b58b146" y="214.326912"/>
     <use style="fill:#ff0000;stroke:#ff0000;" x="365.223487" xlink:href="#m394b58b146" y="214.326912"/>
     <use style="fill:#ff0000;stroke:#ff0000;" x="366.554039" xlink:href="#m394b58b146" y="214.326912"/>
     <use style="fill:#ff0000;stroke:#ff0000;" x="367.88459" xlink:href="#m394b58b146" y="214.326912"/>
     <use style="fill:#ff0000;stroke:#ff0000;" x="369.215142" xlink:href="#m394b58b146" y="214.326912"/>
     <use style="fill:#ff0000;stroke:#ff0000;" x="370.545693" xlink:href="#m394b58b146" y="214.326912"/>
     <use style="fill:#ff0000;stroke:#ff0000;" x="371.876244" xlink:href="#m394b58b146" y="214.326912"/>
     <use style="fill:#ff0000;stroke:#ff0000;" x="373.206796" xlink:href="#m394b58b146" y="214.326912"/>
     <use style="fill:#ff0000;stroke:#ff0000;" x="374.537347" xlink:href="#m394b58b146" y="214.326912"/>
     <use style="fill:#ff0000;stroke:#ff0000;" x="375.867899" xlink:href="#m394b58b146" y="214.326912"/>
     <use style="fill:#ff0000;stroke:#ff0000;" x="377.19845" xlink:href="#m394b58b146" y="214.326912"/>
     <use style="fill:#ff0000;stroke:#ff0000;" x="378.529001" xlink:href="#m394b58b146" y="214.326912"/>
     <use style="fill:#ff0000;stroke:#ff0000;" x="379.859553" xlink:href="#m394b58b146" y="214.326912"/>
     <use style="fill:#ff0000;stroke:#ff0000;" x="381.190104" xlink:href="#m394b58b146" y="214.326912"/>
     <use style="fill:#ff0000;stroke:#ff0000;" x="382.520656" xlink:href="#m394b58b146" y="214.326912"/>
     <use style="fill:#ff0000;stroke:#ff0000;" x="383.851207" xlink:href="#m394b58b146" y="214.326912"/>
     <use style="fill:#ff0000;stroke:#ff0000;" x="385.181759" xlink:href="#m394b58b146" y="214.326912"/>
     <use style="fill:#ff0000;stroke:#ff0000;" x="386.51231" xlink:href="#m394b58b146" y="214.326912"/>
     <use style="fill:#ff0000;stroke:#ff0000;" x="387.842861" xlink:href="#m394b58b146" y="214.326912"/>
     <use style="fill:#ff0000;stroke:#ff0000;" x="389.173413" xlink:href="#m394b58b146" y="214.326912"/>
     <use style="fill:#ff0000;stroke:#ff0000;" x="390.503964" xlink:href="#m394b58b146" y="214.326912"/>
     <use style="fill:#ff0000;stroke:#ff0000;" x="391.834516" xlink:href="#m394b58b146" y="214.326912"/>
     <use style="fill:#ff0000;stroke:#ff0000;" x="393.165067" xlink:href="#m394b58b146" y="214.326912"/>
     <use style="fill:#ff0000;stroke:#ff0000;" x="394.495618" xlink:href="#m394b58b146" y="214.326912"/>
     <use style="fill:#ff0000;stroke:#ff0000;" x="395.82617" xlink:href="#m394b58b146" y="214.326912"/>
     <use style="fill:#ff0000;stroke:#ff0000;" x="397.156721" xlink:href="#m394b58b146" y="214.326912"/>
     <use style="fill:#ff0000;stroke:#ff0000;" x="398.487273" xlink:href="#m394b58b146" y="214.326912"/>
    </g>
   </g>
   <g id="patch_3">
    <path d="M 57.6 307.584 
L 57.6 41.472 
" style="fill:none;stroke:#000000;stroke-linecap:square;stroke-linejoin:miter;stroke-width:0.8;"/>
   </g>
   <g id="patch_4">
    <path d="M 414.72 307.584 
L 414.72 41.472 
" style="fill:none;stroke:#000000;stroke-linecap:square;stroke-linejoin:miter;stroke-width:0.8;"/>
   </g>
   <g id="patch_5">
    <path d="M 57.6 307.584 
L 414.72 307.584 
" style="fill:none;stroke:#000000;stroke-linecap:square;stroke-linejoin:miter;stroke-width:0.8;"/>
   </g>
   <g id="patch_6">
    <path d="M 57.6 41.472 
L 414.72 41.472 
" style="fill:none;stroke:#000000;stroke-linecap:square;stroke-linejoin:miter;stroke-width:0.8;"/>
   </g>
  </g>
 </g>
 <defs>
  <clipPath id="p0cd7abd2a9">
   <rect height="266.112" width="357.12" x="57.6" y="41.472"/>
  </clipPath>
 </defs>
</svg>
