<?xml version="1.0" encoding="utf-8" standalone="no"?>
<!DOCTYPE svg PUBLIC "-//W3C//DTD SVG 1.1//EN"
  "http://www.w3.org/Graphics/SVG/1.1/DTD/svg11.dtd">
<!-- Created with matplotlib (https://matplotlib.org/) -->
<svg height="345.6pt" version="1.1" viewBox="0 0 460.8 345.6" width="460.8pt" xmlns="http://www.w3.org/2000/svg" xmlns:xlink="http://www.w3.org/1999/xlink">
 <defs>
  <style type="text/css">
*{stroke-linecap:butt;stroke-linejoin:round;}
  </style>
 </defs>
 <g id="figure_1">
  <g id="patch_1">
   <path d="M 0 345.6 
L 460.8 345.6 
L 460.8 0 
L 0 0 
z
" style="fill:#ffffff;"/>
  </g>
  <g id="axes_1">
   <g id="patch_2">
    <path d="M 57.6 307.584 
L 414.72 307.584 
L 414.72 41.472 
L 57.6 41.472 
z
" style="fill:#ffffff;"/>
   </g>
   <g id="line2d_1">
    <path clip-path="url(#pbfb86652a3)" d="M 73.832727 53.568 
L 78.470649 103.88412 
L 83.108571 103.88412 
L 87.746494 154.223682 
L 92.384416 201.492402 
L 97.022338 201.492402 
L 101.66026 201.492402 
L 106.298182 201.492402 
L 110.936104 189.041674 
L 115.574026 189.041674 
L 120.211948 238.557982 
L 124.84987 238.557982 
L 129.487792 238.557982 
L 134.125714 232.745576 
L 138.763636 239.251768 
L 143.401558 239.251768 
L 148.039481 239.251768 
L 152.677403 239.251768 
L 157.315325 285.149872 
L 161.953247 285.149872 
L 166.591169 232.202885 
L 171.229091 232.202885 
L 175.867013 278.507783 
L 180.504935 278.507783 
L 185.142857 278.507783 
L 189.780779 295.488 
L 194.418701 295.488 
L 199.056623 293.296878 
L 203.694545 293.296878 
L 208.332468 292.005147 
L 212.97039 292.005147 
L 217.608312 292.005147 
L 222.246234 272.933569 
L 226.884156 272.933569 
L 231.522078 253.837472 
L 236.16 253.837472 
L 240.797922 253.837472 
L 245.435844 257.718687 
L 250.073766 256.086444 
L 254.711688 256.086444 
L 259.34961 237.911304 
L 263.987532 237.911304 
L 268.625455 237.911304 
L 273.263377 253.194211 
L 277.901299 253.194211 
L 282.539221 236.169395 
L 287.177143 236.169395 
L 291.815065 217.902132 
L 296.452987 217.902132 
L 301.090909 199.796081 
L 305.728831 199.796081 
L 310.366753 216.497078 
L 315.004675 232.004346 
L 319.642597 232.004346 
L 324.280519 214.55699 
L 328.918442 214.55699 
L 333.556364 214.55699 
L 338.194286 230.78563 
L 342.832208 230.78563 
L 347.47013 245.897647 
L 352.108052 243.595117 
L 356.745974 243.595117 
L 361.383896 243.595117 
L 366.021818 243.595117 
L 370.65974 243.595117 
L 375.297662 243.595117 
L 379.935584 243.641745 
L 384.573506 243.641745 
L 389.211429 257.116164 
L 393.849351 257.116164 
L 398.487273 257.116164 
" style="fill:none;stroke:#ff0000;stroke-linecap:square;stroke-width:12;"/>
    <defs>
     <path d="M 0 3 
C 0.795609 3 1.55874 2.683901 2.12132 2.12132 
C 2.683901 1.55874 3 0.795609 3 0 
C 3 -0.795609 2.683901 -1.55874 2.12132 -2.12132 
C 1.55874 -2.683901 0.795609 -3 0 -3 
C -0.795609 -3 -1.55874 -2.683901 -2.12132 -2.12132 
C -2.683901 -1.55874 -3 -0.795609 -3 0 
C -3 0.795609 -2.683901 1.55874 -2.12132 2.12132 
C -1.55874 2.683901 -0.795609 3 0 3 
z
" id="m71c6851daf" style="stroke:#ff0000;"/>
    </defs>
    <g clip-path="url(#pbfb86652a3)">
     <use style="fill:#ff0000;stroke:#ff0000;" x="73.832727" xlink:href="#m71c6851daf" y="53.568"/>
     <use style="fill:#ff0000;stroke:#ff0000;" x="78.470649" xlink:href="#m71c6851daf" y="103.88412"/>
     <use style="fill:#ff0000;stroke:#ff0000;" x="83.108571" xlink:href="#m71c6851daf" y="103.88412"/>
     <use style="fill:#ff0000;stroke:#ff0000;" x="87.746494" xlink:href="#m71c6851daf" y="154.223682"/>
     <use style="fill:#ff0000;stroke:#ff0000;" x="92.384416" xlink:href="#m71c6851daf" y="201.492402"/>
     <use style="fill:#ff0000;stroke:#ff0000;" x="97.022338" xlink:href="#m71c6851daf" y="201.492402"/>
     <use style="fill:#ff0000;stroke:#ff0000;" x="101.66026" xlink:href="#m71c6851daf" y="201.492402"/>
     <use style="fill:#ff0000;stroke:#ff0000;" x="106.298182" xlink:href="#m71c6851daf" y="201.492402"/>
     <use style="fill:#ff0000;stroke:#ff0000;" x="110.936104" xlink:href="#m71c6851daf" y="189.041674"/>
     <use style="fill:#ff0000;stroke:#ff0000;" x="115.574026" xlink:href="#m71c6851daf" y="189.041674"/>
     <use style="fill:#ff0000;stroke:#ff0000;" x="120.211948" xlink:href="#m71c6851daf" y="238.557982"/>
     <use style="fill:#ff0000;stroke:#ff0000;" x="124.84987" xlink:href="#m71c6851daf" y="238.557982"/>
     <use style="fill:#ff0000;stroke:#ff0000;" x="129.487792" xlink:href="#m71c6851daf" y="238.557982"/>
     <use style="fill:#ff0000;stroke:#ff0000;" x="134.125714" xlink:href="#m71c6851daf" y="232.745576"/>
     <use style="fill:#ff0000;stroke:#ff0000;" x="138.763636" xlink:href="#m71c6851daf" y="239.251768"/>
     <use style="fill:#ff0000;stroke:#ff0000;" x="143.401558" xlink:href="#m71c6851daf" y="239.251768"/>
     <use style="fill:#ff0000;stroke:#ff0000;" x="148.039481" xlink:href="#m71c6851daf" y="239.251768"/>
     <use style="fill:#ff0000;stroke:#ff0000;" x="152.677403" xlink:href="#m71c6851daf" y="239.251768"/>
     <use style="fill:#ff0000;stroke:#ff0000;" x="157.315325" xlink:href="#m71c6851daf" y="285.149872"/>
     <use style="fill:#ff0000;stroke:#ff0000;" x="161.953247" xlink:href="#m71c6851daf" y="285.149872"/>
     <use style="fill:#ff0000;stroke:#ff0000;" x="166.591169" xlink:href="#m71c6851daf" y="232.202885"/>
     <use style="fill:#ff0000;stroke:#ff0000;" x="171.229091" xlink:href="#m71c6851daf" y="232.202885"/>
     <use style="fill:#ff0000;stroke:#ff0000;" x="175.867013" xlink:href="#m71c6851daf" y="278.507783"/>
     <use style="fill:#ff0000;stroke:#ff0000;" x="180.504935" xlink:href="#m71c6851daf" y="278.507783"/>
     <use style="fill:#ff0000;stroke:#ff0000;" x="185.142857" xlink:href="#m71c6851daf" y="278.507783"/>
     <use style="fill:#ff0000;stroke:#ff0000;" x="189.780779" xlink:href="#m71c6851daf" y="295.488"/>
     <use style="fill:#ff0000;stroke:#ff0000;" x="194.418701" xlink:href="#m71c6851daf" y="295.488"/>
     <use style="fill:#ff0000;stroke:#ff0000;" x="199.056623" xlink:href="#m71c6851daf" y="293.296878"/>
     <use style="fill:#ff0000;stroke:#ff0000;" x="203.694545" xlink:href="#m71c6851daf" y="293.296878"/>
     <use style="fill:#ff0000;stroke:#ff0000;" x="208.332468" xlink:href="#m71c6851daf" y="292.005147"/>
     <use style="fill:#ff0000;stroke:#ff0000;" x="212.97039" xlink:href="#m71c6851daf" y="292.005147"/>
     <use style="fill:#ff0000;stroke:#ff0000;" x="217.608312" xlink:href="#m71c6851daf" y="292.005147"/>
     <use style="fill:#ff0000;stroke:#ff0000;" x="222.246234" xlink:href="#m71c6851daf" y="272.933569"/>
     <use style="fill:#ff0000;stroke:#ff0000;" x="226.884156" xlink:href="#m71c6851daf" y="272.933569"/>
     <use style="fill:#ff0000;stroke:#ff0000;" x="231.522078" xlink:href="#m71c6851daf" y="253.837472"/>
     <use style="fill:#ff0000;stroke:#ff0000;" x="236.16" xlink:href="#m71c6851daf" y="253.837472"/>
     <use style="fill:#ff0000;stroke:#ff0000;" x="240.797922" xlink:href="#m71c6851daf" y="253.837472"/>
     <use style="fill:#ff0000;stroke:#ff0000;" x="245.435844" xlink:href="#m71c6851daf" y="257.718687"/>
     <use style="fill:#ff0000;stroke:#ff0000;" x="250.073766" xlink:href="#m71c6851daf" y="256.086444"/>
     <use style="fill:#ff0000;stroke:#ff0000;" x="254.711688" xlink:href="#m71c6851daf" y="256.086444"/>
     <use style="fill:#ff0000;stroke:#ff0000;" x="259.34961" xlink:href="#m71c6851daf" y="237.911304"/>
     <use style="fill:#ff0000;stroke:#ff0000;" x="263.987532" xlink:href="#m71c6851daf" y="237.911304"/>
     <use style="fill:#ff0000;stroke:#ff0000;" x="268.625455" xlink:href="#m71c6851daf" y="237.911304"/>
     <use style="fill:#ff0000;stroke:#ff0000;" x="273.263377" xlink:href="#m71c6851daf" y="253.194211"/>
     <use style="fill:#ff0000;stroke:#ff0000;" x="277.901299" xlink:href="#m71c6851daf" y="253.194211"/>
     <use style="fill:#ff0000;stroke:#ff0000;" x="282.539221" xlink:href="#m71c6851daf" y="236.169395"/>
     <use style="fill:#ff0000;stroke:#ff0000;" x="287.177143" xlink:href="#m71c6851daf" y="236.169395"/>
     <use style="fill:#ff0000;stroke:#ff0000;" x="291.815065" xlink:href="#m71c6851daf" y="217.902132"/>
     <use style="fill:#ff0000;stroke:#ff0000;" x="296.452987" xlink:href="#m71c6851daf" y="217.902132"/>
     <use style="fill:#ff0000;stroke:#ff0000;" x="301.090909" xlink:href="#m71c6851daf" y="199.796081"/>
     <use style="fill:#ff0000;stroke:#ff0000;" x="305.728831" xlink:href="#m71c6851daf" y="199.796081"/>
     <use style="fill:#ff0000;stroke:#ff0000;" x="310.366753" xlink:href="#m71c6851daf" y="216.497078"/>
     <use style="fill:#ff0000;stroke:#ff0000;" x="315.004675" xlink:href="#m71c6851daf" y="232.004346"/>
     <use style="fill:#ff0000;stroke:#ff0000;" x="319.642597" xlink:href="#m71c6851daf" y="232.004346"/>
     <use style="fill:#ff0000;stroke:#ff0000;" x="324.280519" xlink:href="#m71c6851daf" y="214.55699"/>
     <use style="fill:#ff0000;stroke:#ff0000;" x="328.918442" xlink:href="#m71c6851daf" y="214.55699"/>
     <use style="fill:#ff0000;stroke:#ff0000;" x="333.556364" xlink:href="#m71c6851daf" y="214.55699"/>
     <use style="fill:#ff0000;stroke:#ff0000;" x="338.194286" xlink:href="#m71c6851daf" y="230.78563"/>
     <use style="fill:#ff0000;stroke:#ff0000;" x="342.832208" xlink:href="#m71c6851daf" y="230.78563"/>
     <use style="fill:#ff0000;stroke:#ff0000;" x="347.47013" xlink:href="#m71c6851daf" y="245.897647"/>
     <use style="fill:#ff0000;stroke:#ff0000;" x="352.108052" xlink:href="#m71c6851daf" y="243.595117"/>
     <use style="fill:#ff0000;stroke:#ff0000;" x="356.745974" xlink:href="#m71c6851daf" y="243.595117"/>
     <use style="fill:#ff0000;stroke:#ff0000;" x="361.383896" xlink:href="#m71c6851daf" y="243.595117"/>
     <use style="fill:#ff0000;stroke:#ff0000;" x="366.021818" xlink:href="#m71c6851daf" y="243.595117"/>
     <use style="fill:#ff0000;stroke:#ff0000;" x="370.65974" xlink:href="#m71c6851daf" y="243.595117"/>
     <use style="fill:#ff0000;stroke:#ff0000;" x="375.297662" xlink:href="#m71c6851daf" y="243.595117"/>
     <use style="fill:#ff0000;stroke:#ff0000;" x="379.935584" xlink:href="#m71c6851daf" y="243.641745"/>
     <use style="fill:#ff0000;stroke:#ff0000;" x="384.573506" xlink:href="#m71c6851daf" y="243.641745"/>
     <use style="fill:#ff0000;stroke:#ff0000;" x="389.211429" xlink:href="#m71c6851daf" y="257.116164"/>
     <use style="fill:#ff0000;stroke:#ff0000;" x="393.849351" xlink:href="#m71c6851daf" y="257.116164"/>
     <use style="fill:#ff0000;stroke:#ff0000;" x="398.487273" xlink:href="#m71c6851daf" y="257.116164"/>
    </g>
   </g>
   <g id="patch_3">
    <path d="M 57.6 307.584 
L 57.6 41.472 
" style="fill:none;stroke:#000000;stroke-linecap:square;stroke-linejoin:miter;stroke-width:0.8;"/>
   </g>
   <g id="patch_4">
    <path d="M 414.72 307.584 
L 414.72 41.472 
" style="fill:none;stroke:#000000;stroke-linecap:square;stroke-linejoin:miter;stroke-width:0.8;"/>
   </g>
   <g id="patch_5">
    <path d="M 57.6 307.584 
L 414.72 307.584 
" style="fill:none;stroke:#000000;stroke-linecap:square;stroke-linejoin:miter;stroke-width:0.8;"/>
   </g>
   <g id="patch_6">
    <path d="M 57.6 41.472 
L 414.72 41.472 
" style="fill:none;stroke:#000000;stroke-linecap:square;stroke-linejoin:miter;stroke-width:0.8;"/>
   </g>
  </g>
 </g>
 <defs>
  <clipPath id="pbfb86652a3">
   <rect height="266.112" width="357.12" x="57.6" y="41.472"/>
  </clipPath>
 </defs>
</svg>
