<?xml version="1.0" encoding="utf-8" standalone="no"?>
<!DOCTYPE svg PUBLIC "-//W3C//DTD SVG 1.1//EN"
  "http://www.w3.org/Graphics/SVG/1.1/DTD/svg11.dtd">
<!-- Created with matplotlib (https://matplotlib.org/) -->
<svg height="345.6pt" version="1.1" viewBox="0 0 460.8 345.6" width="460.8pt" xmlns="http://www.w3.org/2000/svg" xmlns:xlink="http://www.w3.org/1999/xlink">
 <defs>
  <style type="text/css">
*{stroke-linecap:butt;stroke-linejoin:round;}
  </style>
 </defs>
 <g id="figure_1">
  <g id="patch_1">
   <path d="M 0 345.6 
L 460.8 345.6 
L 460.8 0 
L 0 0 
z
" style="fill:#ffffff;"/>
  </g>
  <g id="axes_1">
   <g id="patch_2">
    <path d="M 57.6 307.584 
L 414.72 307.584 
L 414.72 41.472 
L 57.6 41.472 
z
" style="fill:#ffffff;"/>
   </g>
   <g id="line2d_1">
    <path clip-path="url(#p4c2f075067)" d="M 73.832727 53.568 
L 74.840971 97.046946 
L 75.849215 97.046946 
L 77.865703 181.391791 
L 80.890435 181.391791 
L 81.898679 170.632922 
L 82.906923 170.632922 
L 83.915167 213.420738 
L 85.931654 213.420738 
L 86.939898 208.398148 
L 87.948142 214.02025 
L 90.972874 214.02025 
L 91.981118 253.68152 
L 92.989362 253.68152 
L 93.997606 207.9292 
L 95.00585 207.9292 
L 96.014094 247.941986 
L 98.030582 247.941986 
L 99.038826 262.614858 
L 100.047069 262.614858 
L 101.055313 260.721476 
L 102.063557 260.721476 
L 103.071801 259.60527 
L 105.088289 259.60527 
L 106.096533 243.125221 
L 107.104777 243.125221 
L 108.113021 226.623985 
L 110.129509 226.623985 
L 111.137753 229.977803 
L 112.145997 228.567357 
L 113.154241 228.567357 
L 114.162484 212.861934 
L 116.178972 212.861934 
L 117.187216 226.068133 
L 118.19546 226.068133 
L 119.203704 211.356723 
L 120.211948 211.356723 
L 121.220192 195.571696 
L 122.228436 195.571696 
L 123.23668 179.925973 
L 124.244924 179.925973 
L 126.261412 207.757639 
L 127.269656 207.757639 
L 128.277899 192.681106 
L 130.294387 192.681106 
L 131.302631 206.704528 
L 132.310875 206.704528 
L 133.319119 219.763058 
L 134.327363 217.773406 
L 141.385071 217.813698 
L 142.393315 229.457154 
L 145.418046 229.457154 
L 146.42629 231.505103 
L 147.434534 231.505103 
L 148.442778 233.197618 
L 149.451022 233.197618 
L 150.459266 217.362772 
L 153.483998 217.362772 
L 154.492242 229.444249 
L 155.500486 229.082821 
L 158.525217 229.082821 
L 159.533461 230.145617 
L 160.541705 230.145617 
L 161.549949 213.351664 
L 162.558193 213.351664 
L 163.566437 198.231634 
L 164.574681 198.231634 
L 165.582925 210.844272 
L 166.591169 210.844272 
L 167.599413 223.495268 
L 168.607657 223.495268 
L 169.615901 237.624435 
L 170.624145 237.624435 
L 171.632388 250.31401 
L 172.640632 250.31401 
L 173.648876 262.942777 
L 174.65712 262.942777 
L 175.665364 246.407141 
L 176.673608 259.080019 
L 177.681852 259.080019 
L 178.690096 242.899741 
L 179.69834 242.899741 
L 180.706584 227.937563 
L 181.714828 227.937563 
L 182.723072 211.15089 
L 191.797267 211.15089 
L 192.805511 225.509372 
L 193.813755 225.509372 
L 194.821999 210.349713 
L 195.830243 210.349713 
L 196.838487 221.580592 
L 197.846731 221.580592 
L 198.854975 225.009109 
L 199.863219 225.009109 
L 200.871462 222.687462 
L 201.879706 222.687462 
L 202.88795 235.658661 
L 203.896194 235.658661 
L 204.904438 218.577717 
L 205.912682 218.577717 
L 206.920926 230.8544 
L 208.937414 230.8544 
L 209.945658 215.139664 
L 210.953902 215.139664 
L 211.962146 227.855526 
L 212.97039 227.855526 
L 213.978634 211.537699 
L 214.986877 211.537699 
L 215.995121 224.975613 
L 217.003365 224.975613 
L 218.011609 210.03767 
L 219.019853 211.426083 
L 221.036341 211.426083 
L 222.044585 210.501984 
L 223.052829 210.501984 
L 224.061073 223.178046 
L 225.069317 223.178046 
L 226.077561 221.370661 
L 227.085805 221.370661 
L 228.094049 234.652443 
L 229.102292 234.652443 
L 230.110536 235.758883 
L 231.11878 235.758883 
L 232.127024 221.092864 
L 233.135268 221.092864 
L 234.143512 223.466848 
L 235.151756 223.466848 
L 236.16 237.959252 
L 237.168244 237.959252 
L 239.184732 262.637088 
L 241.20122 262.637088 
L 242.209464 278.210049 
L 245.234195 278.210049 
L 246.242439 272.459019 
L 247.250683 272.459019 
L 248.258927 284.29645 
L 249.267171 284.29645 
L 250.275415 295.488 
L 251.283659 295.488 
L 252.291903 278.550367 
L 253.300147 278.550367 
L 254.308391 263.108698 
L 255.316635 277.583719 
L 256.324879 277.583719 
L 257.333123 292.451833 
L 258.341366 292.451833 
L 259.34961 290.215213 
L 260.357854 284.502717 
L 398.487273 284.502717 
L 398.487273 284.502717 
" style="fill:none;stroke:#ff0000;stroke-linecap:square;stroke-width:12;"/>
    <defs>
     <path d="M 0 3 
C 0.795609 3 1.55874 2.683901 2.12132 2.12132 
C 2.683901 1.55874 3 0.795609 3 0 
C 3 -0.795609 2.683901 -1.55874 2.12132 -2.12132 
C 1.55874 -2.683901 0.795609 -3 0 -3 
C -0.795609 -3 -1.55874 -2.683901 -2.12132 -2.12132 
C -2.683901 -1.55874 -3 -0.795609 -3 0 
C -3 0.795609 -2.683901 1.55874 -2.12132 2.12132 
C -1.55874 2.683901 -0.795609 3 0 3 
z
" id="md7f1daf5d4" style="stroke:#ff0000;"/>
    </defs>
    <g clip-path="url(#p4c2f075067)">
     <use style="fill:#ff0000;stroke:#ff0000;" x="73.832727" xlink:href="#md7f1daf5d4" y="53.568"/>
     <use style="fill:#ff0000;stroke:#ff0000;" x="74.840971" xlink:href="#md7f1daf5d4" y="97.046946"/>
     <use style="fill:#ff0000;stroke:#ff0000;" x="75.849215" xlink:href="#md7f1daf5d4" y="97.046946"/>
     <use style="fill:#ff0000;stroke:#ff0000;" x="76.857459" xlink:href="#md7f1daf5d4" y="140.54615"/>
     <use style="fill:#ff0000;stroke:#ff0000;" x="77.865703" xlink:href="#md7f1daf5d4" y="181.391791"/>
     <use style="fill:#ff0000;stroke:#ff0000;" x="78.873947" xlink:href="#md7f1daf5d4" y="181.391791"/>
     <use style="fill:#ff0000;stroke:#ff0000;" x="79.882191" xlink:href="#md7f1daf5d4" y="181.391791"/>
     <use style="fill:#ff0000;stroke:#ff0000;" x="80.890435" xlink:href="#md7f1daf5d4" y="181.391791"/>
     <use style="fill:#ff0000;stroke:#ff0000;" x="81.898679" xlink:href="#md7f1daf5d4" y="170.632922"/>
     <use style="fill:#ff0000;stroke:#ff0000;" x="82.906923" xlink:href="#md7f1daf5d4" y="170.632922"/>
     <use style="fill:#ff0000;stroke:#ff0000;" x="83.915167" xlink:href="#md7f1daf5d4" y="213.420738"/>
     <use style="fill:#ff0000;stroke:#ff0000;" x="84.923411" xlink:href="#md7f1daf5d4" y="213.420738"/>
     <use style="fill:#ff0000;stroke:#ff0000;" x="85.931654" xlink:href="#md7f1daf5d4" y="213.420738"/>
     <use style="fill:#ff0000;stroke:#ff0000;" x="86.939898" xlink:href="#md7f1daf5d4" y="208.398148"/>
     <use style="fill:#ff0000;stroke:#ff0000;" x="87.948142" xlink:href="#md7f1daf5d4" y="214.02025"/>
     <use style="fill:#ff0000;stroke:#ff0000;" x="88.956386" xlink:href="#md7f1daf5d4" y="214.02025"/>
     <use style="fill:#ff0000;stroke:#ff0000;" x="89.96463" xlink:href="#md7f1daf5d4" y="214.02025"/>
     <use style="fill:#ff0000;stroke:#ff0000;" x="90.972874" xlink:href="#md7f1daf5d4" y="214.02025"/>
     <use style="fill:#ff0000;stroke:#ff0000;" x="91.981118" xlink:href="#md7f1daf5d4" y="253.68152"/>
     <use style="fill:#ff0000;stroke:#ff0000;" x="92.989362" xlink:href="#md7f1daf5d4" y="253.68152"/>
     <use style="fill:#ff0000;stroke:#ff0000;" x="93.997606" xlink:href="#md7f1daf5d4" y="207.9292"/>
     <use style="fill:#ff0000;stroke:#ff0000;" x="95.00585" xlink:href="#md7f1daf5d4" y="207.9292"/>
     <use style="fill:#ff0000;stroke:#ff0000;" x="96.014094" xlink:href="#md7f1daf5d4" y="247.941986"/>
     <use style="fill:#ff0000;stroke:#ff0000;" x="97.022338" xlink:href="#md7f1daf5d4" y="247.941986"/>
     <use style="fill:#ff0000;stroke:#ff0000;" x="98.030582" xlink:href="#md7f1daf5d4" y="247.941986"/>
     <use style="fill:#ff0000;stroke:#ff0000;" x="99.038826" xlink:href="#md7f1daf5d4" y="262.614858"/>
     <use style="fill:#ff0000;stroke:#ff0000;" x="100.047069" xlink:href="#md7f1daf5d4" y="262.614858"/>
     <use style="fill:#ff0000;stroke:#ff0000;" x="101.055313" xlink:href="#md7f1daf5d4" y="260.721476"/>
     <use style="fill:#ff0000;stroke:#ff0000;" x="102.063557" xlink:href="#md7f1daf5d4" y="260.721476"/>
     <use style="fill:#ff0000;stroke:#ff0000;" x="103.071801" xlink:href="#md7f1daf5d4" y="259.60527"/>
     <use style="fill:#ff0000;stroke:#ff0000;" x="104.080045" xlink:href="#md7f1daf5d4" y="259.60527"/>
     <use style="fill:#ff0000;stroke:#ff0000;" x="105.088289" xlink:href="#md7f1daf5d4" y="259.60527"/>
     <use style="fill:#ff0000;stroke:#ff0000;" x="106.096533" xlink:href="#md7f1daf5d4" y="243.125221"/>
     <use style="fill:#ff0000;stroke:#ff0000;" x="107.104777" xlink:href="#md7f1daf5d4" y="243.125221"/>
     <use style="fill:#ff0000;stroke:#ff0000;" x="108.113021" xlink:href="#md7f1daf5d4" y="226.623985"/>
     <use style="fill:#ff0000;stroke:#ff0000;" x="109.121265" xlink:href="#md7f1daf5d4" y="226.623985"/>
     <use style="fill:#ff0000;stroke:#ff0000;" x="110.129509" xlink:href="#md7f1daf5d4" y="226.623985"/>
     <use style="fill:#ff0000;stroke:#ff0000;" x="111.137753" xlink:href="#md7f1daf5d4" y="229.977803"/>
     <use style="fill:#ff0000;stroke:#ff0000;" x="112.145997" xlink:href="#md7f1daf5d4" y="228.567357"/>
     <use style="fill:#ff0000;stroke:#ff0000;" x="113.154241" xlink:href="#md7f1daf5d4" y="228.567357"/>
     <use style="fill:#ff0000;stroke:#ff0000;" x="114.162484" xlink:href="#md7f1daf5d4" y="212.861934"/>
     <use style="fill:#ff0000;stroke:#ff0000;" x="115.170728" xlink:href="#md7f1daf5d4" y="212.861934"/>
     <use style="fill:#ff0000;stroke:#ff0000;" x="116.178972" xlink:href="#md7f1daf5d4" y="212.861934"/>
     <use style="fill:#ff0000;stroke:#ff0000;" x="117.187216" xlink:href="#md7f1daf5d4" y="226.068133"/>
     <use style="fill:#ff0000;stroke:#ff0000;" x="118.19546" xlink:href="#md7f1daf5d4" y="226.068133"/>
     <use style="fill:#ff0000;stroke:#ff0000;" x="119.203704" xlink:href="#md7f1daf5d4" y="211.356723"/>
     <use style="fill:#ff0000;stroke:#ff0000;" x="120.211948" xlink:href="#md7f1daf5d4" y="211.356723"/>
     <use style="fill:#ff0000;stroke:#ff0000;" x="121.220192" xlink:href="#md7f1daf5d4" y="195.571696"/>
     <use style="fill:#ff0000;stroke:#ff0000;" x="122.228436" xlink:href="#md7f1daf5d4" y="195.571696"/>
     <use style="fill:#ff0000;stroke:#ff0000;" x="123.23668" xlink:href="#md7f1daf5d4" y="179.925973"/>
     <use style="fill:#ff0000;stroke:#ff0000;" x="124.244924" xlink:href="#md7f1daf5d4" y="179.925973"/>
     <use style="fill:#ff0000;stroke:#ff0000;" x="125.253168" xlink:href="#md7f1daf5d4" y="194.357566"/>
     <use style="fill:#ff0000;stroke:#ff0000;" x="126.261412" xlink:href="#md7f1daf5d4" y="207.757639"/>
     <use style="fill:#ff0000;stroke:#ff0000;" x="127.269656" xlink:href="#md7f1daf5d4" y="207.757639"/>
     <use style="fill:#ff0000;stroke:#ff0000;" x="128.277899" xlink:href="#md7f1daf5d4" y="192.681106"/>
     <use style="fill:#ff0000;stroke:#ff0000;" x="129.286143" xlink:href="#md7f1daf5d4" y="192.681106"/>
     <use style="fill:#ff0000;stroke:#ff0000;" x="130.294387" xlink:href="#md7f1daf5d4" y="192.681106"/>
     <use style="fill:#ff0000;stroke:#ff0000;" x="131.302631" xlink:href="#md7f1daf5d4" y="206.704528"/>
     <use style="fill:#ff0000;stroke:#ff0000;" x="132.310875" xlink:href="#md7f1daf5d4" y="206.704528"/>
     <use style="fill:#ff0000;stroke:#ff0000;" x="133.319119" xlink:href="#md7f1daf5d4" y="219.763058"/>
     <use style="fill:#ff0000;stroke:#ff0000;" x="134.327363" xlink:href="#md7f1daf5d4" y="217.773406"/>
     <use style="fill:#ff0000;stroke:#ff0000;" x="135.335607" xlink:href="#md7f1daf5d4" y="217.773406"/>
     <use style="fill:#ff0000;stroke:#ff0000;" x="136.343851" xlink:href="#md7f1daf5d4" y="217.773406"/>
     <use style="fill:#ff0000;stroke:#ff0000;" x="137.352095" xlink:href="#md7f1daf5d4" y="217.773406"/>
     <use style="fill:#ff0000;stroke:#ff0000;" x="138.360339" xlink:href="#md7f1daf5d4" y="217.773406"/>
     <use style="fill:#ff0000;stroke:#ff0000;" x="139.368583" xlink:href="#md7f1daf5d4" y="217.773406"/>
     <use style="fill:#ff0000;stroke:#ff0000;" x="140.376827" xlink:href="#md7f1daf5d4" y="217.813698"/>
     <use style="fill:#ff0000;stroke:#ff0000;" x="141.385071" xlink:href="#md7f1daf5d4" y="217.813698"/>
     <use style="fill:#ff0000;stroke:#ff0000;" x="142.393315" xlink:href="#md7f1daf5d4" y="229.457154"/>
     <use style="fill:#ff0000;stroke:#ff0000;" x="143.401558" xlink:href="#md7f1daf5d4" y="229.457154"/>
     <use style="fill:#ff0000;stroke:#ff0000;" x="144.409802" xlink:href="#md7f1daf5d4" y="229.457154"/>
     <use style="fill:#ff0000;stroke:#ff0000;" x="145.418046" xlink:href="#md7f1daf5d4" y="229.457154"/>
     <use style="fill:#ff0000;stroke:#ff0000;" x="146.42629" xlink:href="#md7f1daf5d4" y="231.505103"/>
     <use style="fill:#ff0000;stroke:#ff0000;" x="147.434534" xlink:href="#md7f1daf5d4" y="231.505103"/>
     <use style="fill:#ff0000;stroke:#ff0000;" x="148.442778" xlink:href="#md7f1daf5d4" y="233.197618"/>
     <use style="fill:#ff0000;stroke:#ff0000;" x="149.451022" xlink:href="#md7f1daf5d4" y="233.197618"/>
     <use style="fill:#ff0000;stroke:#ff0000;" x="150.459266" xlink:href="#md7f1daf5d4" y="217.362772"/>
     <use style="fill:#ff0000;stroke:#ff0000;" x="151.46751" xlink:href="#md7f1daf5d4" y="217.362772"/>
     <use style="fill:#ff0000;stroke:#ff0000;" x="152.475754" xlink:href="#md7f1daf5d4" y="217.362772"/>
     <use style="fill:#ff0000;stroke:#ff0000;" x="153.483998" xlink:href="#md7f1daf5d4" y="217.362772"/>
     <use style="fill:#ff0000;stroke:#ff0000;" x="154.492242" xlink:href="#md7f1daf5d4" y="229.444249"/>
     <use style="fill:#ff0000;stroke:#ff0000;" x="155.500486" xlink:href="#md7f1daf5d4" y="229.082821"/>
     <use style="fill:#ff0000;stroke:#ff0000;" x="156.50873" xlink:href="#md7f1daf5d4" y="229.082821"/>
     <use style="fill:#ff0000;stroke:#ff0000;" x="157.516973" xlink:href="#md7f1daf5d4" y="229.082821"/>
     <use style="fill:#ff0000;stroke:#ff0000;" x="158.525217" xlink:href="#md7f1daf5d4" y="229.082821"/>
     <use style="fill:#ff0000;stroke:#ff0000;" x="159.533461" xlink:href="#md7f1daf5d4" y="230.145617"/>
     <use style="fill:#ff0000;stroke:#ff0000;" x="160.541705" xlink:href="#md7f1daf5d4" y="230.145617"/>
     <use style="fill:#ff0000;stroke:#ff0000;" x="161.549949" xlink:href="#md7f1daf5d4" y="213.351664"/>
     <use style="fill:#ff0000;stroke:#ff0000;" x="162.558193" xlink:href="#md7f1daf5d4" y="213.351664"/>
     <use style="fill:#ff0000;stroke:#ff0000;" x="163.566437" xlink:href="#md7f1daf5d4" y="198.231634"/>
     <use style="fill:#ff0000;stroke:#ff0000;" x="164.574681" xlink:href="#md7f1daf5d4" y="198.231634"/>
     <use style="fill:#ff0000;stroke:#ff0000;" x="165.582925" xlink:href="#md7f1daf5d4" y="210.844272"/>
     <use style="fill:#ff0000;stroke:#ff0000;" x="166.591169" xlink:href="#md7f1daf5d4" y="210.844272"/>
     <use style="fill:#ff0000;stroke:#ff0000;" x="167.599413" xlink:href="#md7f1daf5d4" y="223.495268"/>
     <use style="fill:#ff0000;stroke:#ff0000;" x="168.607657" xlink:href="#md7f1daf5d4" y="223.495268"/>
     <use style="fill:#ff0000;stroke:#ff0000;" x="169.615901" xlink:href="#md7f1daf5d4" y="237.624435"/>
     <use style="fill:#ff0000;stroke:#ff0000;" x="170.624145" xlink:href="#md7f1daf5d4" y="237.624435"/>
     <use style="fill:#ff0000;stroke:#ff0000;" x="171.632388" xlink:href="#md7f1daf5d4" y="250.31401"/>
     <use style="fill:#ff0000;stroke:#ff0000;" x="172.640632" xlink:href="#md7f1daf5d4" y="250.31401"/>
     <use style="fill:#ff0000;stroke:#ff0000;" x="173.648876" xlink:href="#md7f1daf5d4" y="262.942777"/>
     <use style="fill:#ff0000;stroke:#ff0000;" x="174.65712" xlink:href="#md7f1daf5d4" y="262.942777"/>
     <use style="fill:#ff0000;stroke:#ff0000;" x="175.665364" xlink:href="#md7f1daf5d4" y="246.407141"/>
     <use style="fill:#ff0000;stroke:#ff0000;" x="176.673608" xlink:href="#md7f1daf5d4" y="259.080019"/>
     <use style="fill:#ff0000;stroke:#ff0000;" x="177.681852" xlink:href="#md7f1daf5d4" y="259.080019"/>
     <use style="fill:#ff0000;stroke:#ff0000;" x="178.690096" xlink:href="#md7f1daf5d4" y="242.899741"/>
     <use style="fill:#ff0000;stroke:#ff0000;" x="179.69834" xlink:href="#md7f1daf5d4" y="242.899741"/>
     <use style="fill:#ff0000;stroke:#ff0000;" x="180.706584" xlink:href="#md7f1daf5d4" y="227.937563"/>
     <use style="fill:#ff0000;stroke:#ff0000;" x="181.714828" xlink:href="#md7f1daf5d4" y="227.937563"/>
     <use style="fill:#ff0000;stroke:#ff0000;" x="182.723072" xlink:href="#md7f1daf5d4" y="211.15089"/>
     <use style="fill:#ff0000;stroke:#ff0000;" x="183.731316" xlink:href="#md7f1daf5d4" y="211.15089"/>
     <use style="fill:#ff0000;stroke:#ff0000;" x="184.73956" xlink:href="#md7f1daf5d4" y="211.15089"/>
     <use style="fill:#ff0000;stroke:#ff0000;" x="185.747804" xlink:href="#md7f1daf5d4" y="211.15089"/>
     <use style="fill:#ff0000;stroke:#ff0000;" x="186.756047" xlink:href="#md7f1daf5d4" y="211.15089"/>
     <use style="fill:#ff0000;stroke:#ff0000;" x="187.764291" xlink:href="#md7f1daf5d4" y="211.15089"/>
     <use style="fill:#ff0000;stroke:#ff0000;" x="188.772535" xlink:href="#md7f1daf5d4" y="211.15089"/>
     <use style="fill:#ff0000;stroke:#ff0000;" x="189.780779" xlink:href="#md7f1daf5d4" y="211.15089"/>
     <use style="fill:#ff0000;stroke:#ff0000;" x="190.789023" xlink:href="#md7f1daf5d4" y="211.15089"/>
     <use style="fill:#ff0000;stroke:#ff0000;" x="191.797267" xlink:href="#md7f1daf5d4" y="211.15089"/>
     <use style="fill:#ff0000;stroke:#ff0000;" x="192.805511" xlink:href="#md7f1daf5d4" y="225.509372"/>
     <use style="fill:#ff0000;stroke:#ff0000;" x="193.813755" xlink:href="#md7f1daf5d4" y="225.509372"/>
     <use style="fill:#ff0000;stroke:#ff0000;" x="194.821999" xlink:href="#md7f1daf5d4" y="210.349713"/>
     <use style="fill:#ff0000;stroke:#ff0000;" x="195.830243" xlink:href="#md7f1daf5d4" y="210.349713"/>
     <use style="fill:#ff0000;stroke:#ff0000;" x="196.838487" xlink:href="#md7f1daf5d4" y="221.580592"/>
     <use style="fill:#ff0000;stroke:#ff0000;" x="197.846731" xlink:href="#md7f1daf5d4" y="221.580592"/>
     <use style="fill:#ff0000;stroke:#ff0000;" x="198.854975" xlink:href="#md7f1daf5d4" y="225.009109"/>
     <use style="fill:#ff0000;stroke:#ff0000;" x="199.863219" xlink:href="#md7f1daf5d4" y="225.009109"/>
     <use style="fill:#ff0000;stroke:#ff0000;" x="200.871462" xlink:href="#md7f1daf5d4" y="222.687462"/>
     <use style="fill:#ff0000;stroke:#ff0000;" x="201.879706" xlink:href="#md7f1daf5d4" y="222.687462"/>
     <use style="fill:#ff0000;stroke:#ff0000;" x="202.88795" xlink:href="#md7f1daf5d4" y="235.658661"/>
     <use style="fill:#ff0000;stroke:#ff0000;" x="203.896194" xlink:href="#md7f1daf5d4" y="235.658661"/>
     <use style="fill:#ff0000;stroke:#ff0000;" x="204.904438" xlink:href="#md7f1daf5d4" y="218.577717"/>
     <use style="fill:#ff0000;stroke:#ff0000;" x="205.912682" xlink:href="#md7f1daf5d4" y="218.577717"/>
     <use style="fill:#ff0000;stroke:#ff0000;" x="206.920926" xlink:href="#md7f1daf5d4" y="230.8544"/>
     <use style="fill:#ff0000;stroke:#ff0000;" x="207.92917" xlink:href="#md7f1daf5d4" y="230.8544"/>
     <use style="fill:#ff0000;stroke:#ff0000;" x="208.937414" xlink:href="#md7f1daf5d4" y="230.8544"/>
     <use style="fill:#ff0000;stroke:#ff0000;" x="209.945658" xlink:href="#md7f1daf5d4" y="215.139664"/>
     <use style="fill:#ff0000;stroke:#ff0000;" x="210.953902" xlink:href="#md7f1daf5d4" y="215.139664"/>
     <use style="fill:#ff0000;stroke:#ff0000;" x="211.962146" xlink:href="#md7f1daf5d4" y="227.855526"/>
     <use style="fill:#ff0000;stroke:#ff0000;" x="212.97039" xlink:href="#md7f1daf5d4" y="227.855526"/>
     <use style="fill:#ff0000;stroke:#ff0000;" x="213.978634" xlink:href="#md7f1daf5d4" y="211.537699"/>
     <use style="fill:#ff0000;stroke:#ff0000;" x="214.986877" xlink:href="#md7f1daf5d4" y="211.537699"/>
     <use style="fill:#ff0000;stroke:#ff0000;" x="215.995121" xlink:href="#md7f1daf5d4" y="224.975613"/>
     <use style="fill:#ff0000;stroke:#ff0000;" x="217.003365" xlink:href="#md7f1daf5d4" y="224.975613"/>
     <use style="fill:#ff0000;stroke:#ff0000;" x="218.011609" xlink:href="#md7f1daf5d4" y="210.03767"/>
     <use style="fill:#ff0000;stroke:#ff0000;" x="219.019853" xlink:href="#md7f1daf5d4" y="211.426083"/>
     <use style="fill:#ff0000;stroke:#ff0000;" x="220.028097" xlink:href="#md7f1daf5d4" y="211.426083"/>
     <use style="fill:#ff0000;stroke:#ff0000;" x="221.036341" xlink:href="#md7f1daf5d4" y="211.426083"/>
     <use style="fill:#ff0000;stroke:#ff0000;" x="222.044585" xlink:href="#md7f1daf5d4" y="210.501984"/>
     <use style="fill:#ff0000;stroke:#ff0000;" x="223.052829" xlink:href="#md7f1daf5d4" y="210.501984"/>
     <use style="fill:#ff0000;stroke:#ff0000;" x="224.061073" xlink:href="#md7f1daf5d4" y="223.178046"/>
     <use style="fill:#ff0000;stroke:#ff0000;" x="225.069317" xlink:href="#md7f1daf5d4" y="223.178046"/>
     <use style="fill:#ff0000;stroke:#ff0000;" x="226.077561" xlink:href="#md7f1daf5d4" y="221.370661"/>
     <use style="fill:#ff0000;stroke:#ff0000;" x="227.085805" xlink:href="#md7f1daf5d4" y="221.370661"/>
     <use style="fill:#ff0000;stroke:#ff0000;" x="228.094049" xlink:href="#md7f1daf5d4" y="234.652443"/>
     <use style="fill:#ff0000;stroke:#ff0000;" x="229.102292" xlink:href="#md7f1daf5d4" y="234.652443"/>
     <use style="fill:#ff0000;stroke:#ff0000;" x="230.110536" xlink:href="#md7f1daf5d4" y="235.758883"/>
     <use style="fill:#ff0000;stroke:#ff0000;" x="231.11878" xlink:href="#md7f1daf5d4" y="235.758883"/>
     <use style="fill:#ff0000;stroke:#ff0000;" x="232.127024" xlink:href="#md7f1daf5d4" y="221.092864"/>
     <use style="fill:#ff0000;stroke:#ff0000;" x="233.135268" xlink:href="#md7f1daf5d4" y="221.092864"/>
     <use style="fill:#ff0000;stroke:#ff0000;" x="234.143512" xlink:href="#md7f1daf5d4" y="223.466848"/>
     <use style="fill:#ff0000;stroke:#ff0000;" x="235.151756" xlink:href="#md7f1daf5d4" y="223.466848"/>
     <use style="fill:#ff0000;stroke:#ff0000;" x="236.16" xlink:href="#md7f1daf5d4" y="237.959252"/>
     <use style="fill:#ff0000;stroke:#ff0000;" x="237.168244" xlink:href="#md7f1daf5d4" y="237.959252"/>
     <use style="fill:#ff0000;stroke:#ff0000;" x="238.176488" xlink:href="#md7f1daf5d4" y="249.714728"/>
     <use style="fill:#ff0000;stroke:#ff0000;" x="239.184732" xlink:href="#md7f1daf5d4" y="262.637088"/>
     <use style="fill:#ff0000;stroke:#ff0000;" x="240.192976" xlink:href="#md7f1daf5d4" y="262.637088"/>
     <use style="fill:#ff0000;stroke:#ff0000;" x="241.20122" xlink:href="#md7f1daf5d4" y="262.637088"/>
     <use style="fill:#ff0000;stroke:#ff0000;" x="242.209464" xlink:href="#md7f1daf5d4" y="278.210049"/>
     <use style="fill:#ff0000;stroke:#ff0000;" x="243.217708" xlink:href="#md7f1daf5d4" y="278.210049"/>
     <use style="fill:#ff0000;stroke:#ff0000;" x="244.225951" xlink:href="#md7f1daf5d4" y="278.210049"/>
     <use style="fill:#ff0000;stroke:#ff0000;" x="245.234195" xlink:href="#md7f1daf5d4" y="278.210049"/>
     <use style="fill:#ff0000;stroke:#ff0000;" x="246.242439" xlink:href="#md7f1daf5d4" y="272.459019"/>
     <use style="fill:#ff0000;stroke:#ff0000;" x="247.250683" xlink:href="#md7f1daf5d4" y="272.459019"/>
     <use style="fill:#ff0000;stroke:#ff0000;" x="248.258927" xlink:href="#md7f1daf5d4" y="284.29645"/>
     <use style="fill:#ff0000;stroke:#ff0000;" x="249.267171" xlink:href="#md7f1daf5d4" y="284.29645"/>
     <use style="fill:#ff0000;stroke:#ff0000;" x="250.275415" xlink:href="#md7f1daf5d4" y="295.488"/>
     <use style="fill:#ff0000;stroke:#ff0000;" x="251.283659" xlink:href="#md7f1daf5d4" y="295.488"/>
     <use style="fill:#ff0000;stroke:#ff0000;" x="252.291903" xlink:href="#md7f1daf5d4" y="278.550367"/>
     <use style="fill:#ff0000;stroke:#ff0000;" x="253.300147" xlink:href="#md7f1daf5d4" y="278.550367"/>
     <use style="fill:#ff0000;stroke:#ff0000;" x="254.308391" xlink:href="#md7f1daf5d4" y="263.108698"/>
     <use style="fill:#ff0000;stroke:#ff0000;" x="255.316635" xlink:href="#md7f1daf5d4" y="277.583719"/>
     <use style="fill:#ff0000;stroke:#ff0000;" x="256.324879" xlink:href="#md7f1daf5d4" y="277.583719"/>
     <use style="fill:#ff0000;stroke:#ff0000;" x="257.333123" xlink:href="#md7f1daf5d4" y="292.451833"/>
     <use style="fill:#ff0000;stroke:#ff0000;" x="258.341366" xlink:href="#md7f1daf5d4" y="292.451833"/>
     <use style="fill:#ff0000;stroke:#ff0000;" x="259.34961" xlink:href="#md7f1daf5d4" y="290.215213"/>
     <use style="fill:#ff0000;stroke:#ff0000;" x="260.357854" xlink:href="#md7f1daf5d4" y="284.502717"/>
     <use style="fill:#ff0000;stroke:#ff0000;" x="261.366098" xlink:href="#md7f1daf5d4" y="284.502717"/>
     <use style="fill:#ff0000;stroke:#ff0000;" x="262.374342" xlink:href="#md7f1daf5d4" y="284.502717"/>
     <use style="fill:#ff0000;stroke:#ff0000;" x="263.382586" xlink:href="#md7f1daf5d4" y="284.502717"/>
     <use style="fill:#ff0000;stroke:#ff0000;" x="264.39083" xlink:href="#md7f1daf5d4" y="284.502717"/>
     <use style="fill:#ff0000;stroke:#ff0000;" x="265.399074" xlink:href="#md7f1daf5d4" y="284.502717"/>
     <use style="fill:#ff0000;stroke:#ff0000;" x="266.407318" xlink:href="#md7f1daf5d4" y="284.502717"/>
     <use style="fill:#ff0000;stroke:#ff0000;" x="267.415562" xlink:href="#md7f1daf5d4" y="284.502717"/>
     <use style="fill:#ff0000;stroke:#ff0000;" x="268.423806" xlink:href="#md7f1daf5d4" y="284.502717"/>
     <use style="fill:#ff0000;stroke:#ff0000;" x="269.43205" xlink:href="#md7f1daf5d4" y="284.502717"/>
     <use style="fill:#ff0000;stroke:#ff0000;" x="270.440294" xlink:href="#md7f1daf5d4" y="284.502717"/>
     <use style="fill:#ff0000;stroke:#ff0000;" x="271.448538" xlink:href="#md7f1daf5d4" y="284.502717"/>
     <use style="fill:#ff0000;stroke:#ff0000;" x="272.456781" xlink:href="#md7f1daf5d4" y="284.502717"/>
     <use style="fill:#ff0000;stroke:#ff0000;" x="273.465025" xlink:href="#md7f1daf5d4" y="284.502717"/>
     <use style="fill:#ff0000;stroke:#ff0000;" x="274.473269" xlink:href="#md7f1daf5d4" y="284.502717"/>
     <use style="fill:#ff0000;stroke:#ff0000;" x="275.481513" xlink:href="#md7f1daf5d4" y="284.502717"/>
     <use style="fill:#ff0000;stroke:#ff0000;" x="276.489757" xlink:href="#md7f1daf5d4" y="284.502717"/>
     <use style="fill:#ff0000;stroke:#ff0000;" x="277.498001" xlink:href="#md7f1daf5d4" y="284.502717"/>
     <use style="fill:#ff0000;stroke:#ff0000;" x="278.506245" xlink:href="#md7f1daf5d4" y="284.502717"/>
     <use style="fill:#ff0000;stroke:#ff0000;" x="279.514489" xlink:href="#md7f1daf5d4" y="284.502717"/>
     <use style="fill:#ff0000;stroke:#ff0000;" x="280.522733" xlink:href="#md7f1daf5d4" y="284.502717"/>
     <use style="fill:#ff0000;stroke:#ff0000;" x="281.530977" xlink:href="#md7f1daf5d4" y="284.502717"/>
     <use style="fill:#ff0000;stroke:#ff0000;" x="282.539221" xlink:href="#md7f1daf5d4" y="284.502717"/>
     <use style="fill:#ff0000;stroke:#ff0000;" x="283.547465" xlink:href="#md7f1daf5d4" y="284.502717"/>
     <use style="fill:#ff0000;stroke:#ff0000;" x="284.555709" xlink:href="#md7f1daf5d4" y="284.502717"/>
     <use style="fill:#ff0000;stroke:#ff0000;" x="285.563953" xlink:href="#md7f1daf5d4" y="284.502717"/>
     <use style="fill:#ff0000;stroke:#ff0000;" x="286.572196" xlink:href="#md7f1daf5d4" y="284.502717"/>
     <use style="fill:#ff0000;stroke:#ff0000;" x="287.58044" xlink:href="#md7f1daf5d4" y="284.502717"/>
     <use style="fill:#ff0000;stroke:#ff0000;" x="288.588684" xlink:href="#md7f1daf5d4" y="284.502717"/>
     <use style="fill:#ff0000;stroke:#ff0000;" x="289.596928" xlink:href="#md7f1daf5d4" y="284.502717"/>
     <use style="fill:#ff0000;stroke:#ff0000;" x="290.605172" xlink:href="#md7f1daf5d4" y="284.502717"/>
     <use style="fill:#ff0000;stroke:#ff0000;" x="291.613416" xlink:href="#md7f1daf5d4" y="284.502717"/>
     <use style="fill:#ff0000;stroke:#ff0000;" x="292.62166" xlink:href="#md7f1daf5d4" y="284.502717"/>
     <use style="fill:#ff0000;stroke:#ff0000;" x="293.629904" xlink:href="#md7f1daf5d4" y="284.502717"/>
     <use style="fill:#ff0000;stroke:#ff0000;" x="294.638148" xlink:href="#md7f1daf5d4" y="284.502717"/>
     <use style="fill:#ff0000;stroke:#ff0000;" x="295.646392" xlink:href="#md7f1daf5d4" y="284.502717"/>
     <use style="fill:#ff0000;stroke:#ff0000;" x="296.654636" xlink:href="#md7f1daf5d4" y="284.502717"/>
     <use style="fill:#ff0000;stroke:#ff0000;" x="297.66288" xlink:href="#md7f1daf5d4" y="284.502717"/>
     <use style="fill:#ff0000;stroke:#ff0000;" x="298.671124" xlink:href="#md7f1daf5d4" y="284.502717"/>
     <use style="fill:#ff0000;stroke:#ff0000;" x="299.679368" xlink:href="#md7f1daf5d4" y="284.502717"/>
     <use style="fill:#ff0000;stroke:#ff0000;" x="300.687612" xlink:href="#md7f1daf5d4" y="284.502717"/>
     <use style="fill:#ff0000;stroke:#ff0000;" x="301.695855" xlink:href="#md7f1daf5d4" y="284.502717"/>
     <use style="fill:#ff0000;stroke:#ff0000;" x="302.704099" xlink:href="#md7f1daf5d4" y="284.502717"/>
     <use style="fill:#ff0000;stroke:#ff0000;" x="303.712343" xlink:href="#md7f1daf5d4" y="284.502717"/>
     <use style="fill:#ff0000;stroke:#ff0000;" x="304.720587" xlink:href="#md7f1daf5d4" y="284.502717"/>
     <use style="fill:#ff0000;stroke:#ff0000;" x="305.728831" xlink:href="#md7f1daf5d4" y="284.502717"/>
     <use style="fill:#ff0000;stroke:#ff0000;" x="306.737075" xlink:href="#md7f1daf5d4" y="284.502717"/>
     <use style="fill:#ff0000;stroke:#ff0000;" x="307.745319" xlink:href="#md7f1daf5d4" y="284.502717"/>
     <use style="fill:#ff0000;stroke:#ff0000;" x="308.753563" xlink:href="#md7f1daf5d4" y="284.502717"/>
     <use style="fill:#ff0000;stroke:#ff0000;" x="309.761807" xlink:href="#md7f1daf5d4" y="284.502717"/>
     <use style="fill:#ff0000;stroke:#ff0000;" x="310.770051" xlink:href="#md7f1daf5d4" y="284.502717"/>
     <use style="fill:#ff0000;stroke:#ff0000;" x="311.778295" xlink:href="#md7f1daf5d4" y="284.502717"/>
     <use style="fill:#ff0000;stroke:#ff0000;" x="312.786539" xlink:href="#md7f1daf5d4" y="284.502717"/>
     <use style="fill:#ff0000;stroke:#ff0000;" x="313.794783" xlink:href="#md7f1daf5d4" y="284.502717"/>
     <use style="fill:#ff0000;stroke:#ff0000;" x="314.803027" xlink:href="#md7f1daf5d4" y="284.502717"/>
     <use style="fill:#ff0000;stroke:#ff0000;" x="315.81127" xlink:href="#md7f1daf5d4" y="284.502717"/>
     <use style="fill:#ff0000;stroke:#ff0000;" x="316.819514" xlink:href="#md7f1daf5d4" y="284.502717"/>
     <use style="fill:#ff0000;stroke:#ff0000;" x="317.827758" xlink:href="#md7f1daf5d4" y="284.502717"/>
     <use style="fill:#ff0000;stroke:#ff0000;" x="318.836002" xlink:href="#md7f1daf5d4" y="284.502717"/>
     <use style="fill:#ff0000;stroke:#ff0000;" x="319.844246" xlink:href="#md7f1daf5d4" y="284.502717"/>
     <use style="fill:#ff0000;stroke:#ff0000;" x="320.85249" xlink:href="#md7f1daf5d4" y="284.502717"/>
     <use style="fill:#ff0000;stroke:#ff0000;" x="321.860734" xlink:href="#md7f1daf5d4" y="284.502717"/>
     <use style="fill:#ff0000;stroke:#ff0000;" x="322.868978" xlink:href="#md7f1daf5d4" y="284.502717"/>
     <use style="fill:#ff0000;stroke:#ff0000;" x="323.877222" xlink:href="#md7f1daf5d4" y="284.502717"/>
     <use style="fill:#ff0000;stroke:#ff0000;" x="324.885466" xlink:href="#md7f1daf5d4" y="284.502717"/>
     <use style="fill:#ff0000;stroke:#ff0000;" x="325.89371" xlink:href="#md7f1daf5d4" y="284.502717"/>
     <use style="fill:#ff0000;stroke:#ff0000;" x="326.901954" xlink:href="#md7f1daf5d4" y="284.502717"/>
     <use style="fill:#ff0000;stroke:#ff0000;" x="327.910198" xlink:href="#md7f1daf5d4" y="284.502717"/>
     <use style="fill:#ff0000;stroke:#ff0000;" x="328.918442" xlink:href="#md7f1daf5d4" y="284.502717"/>
     <use style="fill:#ff0000;stroke:#ff0000;" x="329.926685" xlink:href="#md7f1daf5d4" y="284.502717"/>
     <use style="fill:#ff0000;stroke:#ff0000;" x="330.934929" xlink:href="#md7f1daf5d4" y="284.502717"/>
     <use style="fill:#ff0000;stroke:#ff0000;" x="331.943173" xlink:href="#md7f1daf5d4" y="284.502717"/>
     <use style="fill:#ff0000;stroke:#ff0000;" x="332.951417" xlink:href="#md7f1daf5d4" y="284.502717"/>
     <use style="fill:#ff0000;stroke:#ff0000;" x="333.959661" xlink:href="#md7f1daf5d4" y="284.502717"/>
     <use style="fill:#ff0000;stroke:#ff0000;" x="334.967905" xlink:href="#md7f1daf5d4" y="284.502717"/>
     <use style="fill:#ff0000;stroke:#ff0000;" x="335.976149" xlink:href="#md7f1daf5d4" y="284.502717"/>
     <use style="fill:#ff0000;stroke:#ff0000;" x="336.984393" xlink:href="#md7f1daf5d4" y="284.502717"/>
     <use style="fill:#ff0000;stroke:#ff0000;" x="337.992637" xlink:href="#md7f1daf5d4" y="284.502717"/>
     <use style="fill:#ff0000;stroke:#ff0000;" x="339.000881" xlink:href="#md7f1daf5d4" y="284.502717"/>
     <use style="fill:#ff0000;stroke:#ff0000;" x="340.009125" xlink:href="#md7f1daf5d4" y="284.502717"/>
     <use style="fill:#ff0000;stroke:#ff0000;" x="341.017369" xlink:href="#md7f1daf5d4" y="284.502717"/>
     <use style="fill:#ff0000;stroke:#ff0000;" x="342.025613" xlink:href="#md7f1daf5d4" y="284.502717"/>
     <use style="fill:#ff0000;stroke:#ff0000;" x="343.033857" xlink:href="#md7f1daf5d4" y="284.502717"/>
     <use style="fill:#ff0000;stroke:#ff0000;" x="344.042101" xlink:href="#md7f1daf5d4" y="284.502717"/>
     <use style="fill:#ff0000;stroke:#ff0000;" x="345.050344" xlink:href="#md7f1daf5d4" y="284.502717"/>
     <use style="fill:#ff0000;stroke:#ff0000;" x="346.058588" xlink:href="#md7f1daf5d4" y="284.502717"/>
     <use style="fill:#ff0000;stroke:#ff0000;" x="347.066832" xlink:href="#md7f1daf5d4" y="284.502717"/>
     <use style="fill:#ff0000;stroke:#ff0000;" x="348.075076" xlink:href="#md7f1daf5d4" y="284.502717"/>
     <use style="fill:#ff0000;stroke:#ff0000;" x="349.08332" xlink:href="#md7f1daf5d4" y="284.502717"/>
     <use style="fill:#ff0000;stroke:#ff0000;" x="350.091564" xlink:href="#md7f1daf5d4" y="284.502717"/>
     <use style="fill:#ff0000;stroke:#ff0000;" x="351.099808" xlink:href="#md7f1daf5d4" y="284.502717"/>
     <use style="fill:#ff0000;stroke:#ff0000;" x="352.108052" xlink:href="#md7f1daf5d4" y="284.502717"/>
     <use style="fill:#ff0000;stroke:#ff0000;" x="353.116296" xlink:href="#md7f1daf5d4" y="284.502717"/>
     <use style="fill:#ff0000;stroke:#ff0000;" x="354.12454" xlink:href="#md7f1daf5d4" y="284.502717"/>
     <use style="fill:#ff0000;stroke:#ff0000;" x="355.132784" xlink:href="#md7f1daf5d4" y="284.502717"/>
     <use style="fill:#ff0000;stroke:#ff0000;" x="356.141028" xlink:href="#md7f1daf5d4" y="284.502717"/>
     <use style="fill:#ff0000;stroke:#ff0000;" x="357.149272" xlink:href="#md7f1daf5d4" y="284.502717"/>
     <use style="fill:#ff0000;stroke:#ff0000;" x="358.157516" xlink:href="#md7f1daf5d4" y="284.502717"/>
     <use style="fill:#ff0000;stroke:#ff0000;" x="359.165759" xlink:href="#md7f1daf5d4" y="284.502717"/>
     <use style="fill:#ff0000;stroke:#ff0000;" x="360.174003" xlink:href="#md7f1daf5d4" y="284.502717"/>
     <use style="fill:#ff0000;stroke:#ff0000;" x="361.182247" xlink:href="#md7f1daf5d4" y="284.502717"/>
     <use style="fill:#ff0000;stroke:#ff0000;" x="362.190491" xlink:href="#md7f1daf5d4" y="284.502717"/>
     <use style="fill:#ff0000;stroke:#ff0000;" x="363.198735" xlink:href="#md7f1daf5d4" y="284.502717"/>
     <use style="fill:#ff0000;stroke:#ff0000;" x="364.206979" xlink:href="#md7f1daf5d4" y="284.502717"/>
     <use style="fill:#ff0000;stroke:#ff0000;" x="365.215223" xlink:href="#md7f1daf5d4" y="284.502717"/>
     <use style="fill:#ff0000;stroke:#ff0000;" x="366.223467" xlink:href="#md7f1daf5d4" y="284.502717"/>
     <use style="fill:#ff0000;stroke:#ff0000;" x="367.231711" xlink:href="#md7f1daf5d4" y="284.502717"/>
     <use style="fill:#ff0000;stroke:#ff0000;" x="368.239955" xlink:href="#md7f1daf5d4" y="284.502717"/>
     <use style="fill:#ff0000;stroke:#ff0000;" x="369.248199" xlink:href="#md7f1daf5d4" y="284.502717"/>
     <use style="fill:#ff0000;stroke:#ff0000;" x="370.256443" xlink:href="#md7f1daf5d4" y="284.502717"/>
     <use style="fill:#ff0000;stroke:#ff0000;" x="371.264687" xlink:href="#md7f1daf5d4" y="284.502717"/>
     <use style="fill:#ff0000;stroke:#ff0000;" x="372.272931" xlink:href="#md7f1daf5d4" y="284.502717"/>
     <use style="fill:#ff0000;stroke:#ff0000;" x="373.281174" xlink:href="#md7f1daf5d4" y="284.502717"/>
     <use style="fill:#ff0000;stroke:#ff0000;" x="374.289418" xlink:href="#md7f1daf5d4" y="284.502717"/>
     <use style="fill:#ff0000;stroke:#ff0000;" x="375.297662" xlink:href="#md7f1daf5d4" y="284.502717"/>
     <use style="fill:#ff0000;stroke:#ff0000;" x="376.305906" xlink:href="#md7f1daf5d4" y="284.502717"/>
     <use style="fill:#ff0000;stroke:#ff0000;" x="377.31415" xlink:href="#md7f1daf5d4" y="284.502717"/>
     <use style="fill:#ff0000;stroke:#ff0000;" x="378.322394" xlink:href="#md7f1daf5d4" y="284.502717"/>
     <use style="fill:#ff0000;stroke:#ff0000;" x="379.330638" xlink:href="#md7f1daf5d4" y="284.502717"/>
     <use style="fill:#ff0000;stroke:#ff0000;" x="380.338882" xlink:href="#md7f1daf5d4" y="284.502717"/>
     <use style="fill:#ff0000;stroke:#ff0000;" x="381.347126" xlink:href="#md7f1daf5d4" y="284.502717"/>
     <use style="fill:#ff0000;stroke:#ff0000;" x="382.35537" xlink:href="#md7f1daf5d4" y="284.502717"/>
     <use style="fill:#ff0000;stroke:#ff0000;" x="383.363614" xlink:href="#md7f1daf5d4" y="284.502717"/>
     <use style="fill:#ff0000;stroke:#ff0000;" x="384.371858" xlink:href="#md7f1daf5d4" y="284.502717"/>
     <use style="fill:#ff0000;stroke:#ff0000;" x="385.380102" xlink:href="#md7f1daf5d4" y="284.502717"/>
     <use style="fill:#ff0000;stroke:#ff0000;" x="386.388346" xlink:href="#md7f1daf5d4" y="284.502717"/>
     <use style="fill:#ff0000;stroke:#ff0000;" x="387.396589" xlink:href="#md7f1daf5d4" y="284.502717"/>
     <use style="fill:#ff0000;stroke:#ff0000;" x="388.404833" xlink:href="#md7f1daf5d4" y="284.502717"/>
     <use style="fill:#ff0000;stroke:#ff0000;" x="389.413077" xlink:href="#md7f1daf5d4" y="284.502717"/>
     <use style="fill:#ff0000;stroke:#ff0000;" x="390.421321" xlink:href="#md7f1daf5d4" y="284.502717"/>
     <use style="fill:#ff0000;stroke:#ff0000;" x="391.429565" xlink:href="#md7f1daf5d4" y="284.502717"/>
     <use style="fill:#ff0000;stroke:#ff0000;" x="392.437809" xlink:href="#md7f1daf5d4" y="284.502717"/>
     <use style="fill:#ff0000;stroke:#ff0000;" x="393.446053" xlink:href="#md7f1daf5d4" y="284.502717"/>
     <use style="fill:#ff0000;stroke:#ff0000;" x="394.454297" xlink:href="#md7f1daf5d4" y="284.502717"/>
     <use style="fill:#ff0000;stroke:#ff0000;" x="395.462541" xlink:href="#md7f1daf5d4" y="284.502717"/>
     <use style="fill:#ff0000;stroke:#ff0000;" x="396.470785" xlink:href="#md7f1daf5d4" y="284.502717"/>
     <use style="fill:#ff0000;stroke:#ff0000;" x="397.479029" xlink:href="#md7f1daf5d4" y="284.502717"/>
     <use style="fill:#ff0000;stroke:#ff0000;" x="398.487273" xlink:href="#md7f1daf5d4" y="284.502717"/>
    </g>
   </g>
   <g id="patch_3">
    <path d="M 57.6 307.584 
L 57.6 41.472 
" style="fill:none;stroke:#000000;stroke-linecap:square;stroke-linejoin:miter;stroke-width:0.8;"/>
   </g>
   <g id="patch_4">
    <path d="M 414.72 307.584 
L 414.72 41.472 
" style="fill:none;stroke:#000000;stroke-linecap:square;stroke-linejoin:miter;stroke-width:0.8;"/>
   </g>
   <g id="patch_5">
    <path d="M 57.6 307.584 
L 414.72 307.584 
" style="fill:none;stroke:#000000;stroke-linecap:square;stroke-linejoin:miter;stroke-width:0.8;"/>
   </g>
   <g id="patch_6">
    <path d="M 57.6 41.472 
L 414.72 41.472 
" style="fill:none;stroke:#000000;stroke-linecap:square;stroke-linejoin:miter;stroke-width:0.8;"/>
   </g>
  </g>
 </g>
 <defs>
  <clipPath id="p4c2f075067">
   <rect height="266.112" width="357.12" x="57.6" y="41.472"/>
  </clipPath>
 </defs>
</svg>
