<?xml version="1.0" encoding="utf-8" standalone="no"?>
<!DOCTYPE svg PUBLIC "-//W3C//DTD SVG 1.1//EN"
  "http://www.w3.org/Graphics/SVG/1.1/DTD/svg11.dtd">
<!-- Created with matplotlib (https://matplotlib.org/) -->
<svg height="345.6pt" version="1.1" viewBox="0 0 460.8 345.6" width="460.8pt" xmlns="http://www.w3.org/2000/svg" xmlns:xlink="http://www.w3.org/1999/xlink">
 <defs>
  <style type="text/css">
*{stroke-linecap:butt;stroke-linejoin:round;}
  </style>
 </defs>
 <g id="figure_1">
  <g id="patch_1">
   <path d="M 0 345.6 
L 460.8 345.6 
L 460.8 0 
L 0 0 
z
" style="fill:#ffffff;"/>
  </g>
  <g id="axes_1">
   <g id="patch_2">
    <path d="M 57.6 307.584 
L 414.72 307.584 
L 414.72 41.472 
L 57.6 41.472 
z
" style="fill:#ffffff;"/>
   </g>
   <g id="line2d_1">
    <path clip-path="url(#p4b87e5073c)" d="M 73.832727 53.568 
L 75.677355 97.046946 
L 77.521983 97.046946 
L 79.366612 140.54615 
L 81.21124 181.391791 
L 86.745124 181.391791 
L 88.589752 170.632922 
L 90.43438 170.632922 
L 92.279008 213.420738 
L 95.968264 213.420738 
L 97.812893 208.398148 
L 99.657521 214.02025 
L 105.191405 214.02025 
L 107.036033 253.68152 
L 108.880661 253.68152 
L 110.725289 207.9292 
L 112.569917 207.9292 
L 114.414545 247.941986 
L 118.103802 247.941986 
L 119.94843 262.614858 
L 121.793058 262.614858 
L 123.637686 260.721476 
L 125.482314 260.721476 
L 127.326942 259.60527 
L 131.016198 259.60527 
L 132.860826 243.125221 
L 134.705455 243.125221 
L 136.550083 226.623985 
L 140.239339 226.623985 
L 142.083967 229.977803 
L 143.928595 228.567357 
L 145.773223 228.567357 
L 147.617851 212.861934 
L 151.307107 212.861934 
L 153.151736 226.068133 
L 154.996364 226.068133 
L 156.840992 211.356723 
L 158.68562 211.356723 
L 160.530248 195.571696 
L 162.374876 195.571696 
L 164.219504 179.925973 
L 166.064132 179.925973 
L 167.90876 194.357566 
L 169.753388 207.757639 
L 171.598017 207.757639 
L 173.442645 192.681106 
L 177.131901 192.681106 
L 178.976529 206.704528 
L 180.821157 206.704528 
L 182.665785 219.763058 
L 184.510413 217.773406 
L 197.42281 217.813698 
L 199.267438 229.457154 
L 204.801322 229.457154 
L 206.64595 231.505103 
L 208.490579 231.505103 
L 210.335207 233.197618 
L 212.179835 233.197618 
L 214.024463 217.362772 
L 219.558347 217.362772 
L 221.402975 229.444249 
L 223.247603 229.082821 
L 228.781488 229.082821 
L 230.626116 230.145617 
L 232.470744 230.145617 
L 234.315372 213.351664 
L 236.16 213.351664 
L 238.004628 198.231634 
L 239.849256 198.231634 
L 241.693884 210.844272 
L 243.538512 210.844272 
L 245.38314 223.495268 
L 247.227769 223.495268 
L 249.072397 237.624435 
L 250.917025 237.624435 
L 252.761653 250.31401 
L 254.606281 250.31401 
L 256.450909 262.942777 
L 258.295537 262.942777 
L 260.140165 246.407141 
L 261.984793 259.080019 
L 263.829421 259.080019 
L 265.67405 242.899741 
L 267.518678 242.899741 
L 269.363306 227.937563 
L 271.207934 227.937563 
L 273.052562 211.15089 
L 289.654215 211.15089 
L 291.498843 225.509372 
L 293.343471 225.509372 
L 295.188099 210.349713 
L 297.032727 210.349713 
L 298.877355 221.580592 
L 300.721983 221.580592 
L 302.566612 225.009109 
L 304.41124 225.009109 
L 306.255868 222.687462 
L 308.100496 222.687462 
L 309.945124 235.658661 
L 311.789752 235.658661 
L 313.63438 218.577717 
L 315.479008 218.577717 
L 317.323636 230.8544 
L 321.012893 230.8544 
L 322.857521 215.139664 
L 324.702149 215.139664 
L 326.546777 227.855526 
L 328.391405 227.855526 
L 330.236033 211.537699 
L 332.080661 211.537699 
L 333.925289 224.975613 
L 335.769917 224.975613 
L 337.614545 210.03767 
L 339.459174 211.426083 
L 343.14843 211.426083 
L 344.993058 210.501984 
L 346.837686 210.501984 
L 348.682314 223.178046 
L 350.526942 223.178046 
L 352.37157 221.370661 
L 354.216198 221.370661 
L 356.060826 234.652443 
L 357.905455 234.652443 
L 359.750083 235.758883 
L 361.594711 235.758883 
L 363.439339 221.092864 
L 365.283967 221.092864 
L 367.128595 223.466848 
L 368.973223 223.466848 
L 370.817851 237.959252 
L 372.662479 237.959252 
L 374.507107 249.714728 
L 376.351736 262.637088 
L 380.040992 262.637088 
L 381.88562 278.210049 
L 387.419504 278.210049 
L 389.264132 272.459019 
L 391.10876 272.459019 
L 392.953388 284.29645 
L 394.798017 284.29645 
L 396.642645 295.488 
L 398.487273 295.488 
L 398.487273 295.488 
" style="fill:none;stroke:#ff0000;stroke-linecap:square;stroke-width:12;"/>
    <defs>
     <path d="M 0 3 
C 0.795609 3 1.55874 2.683901 2.12132 2.12132 
C 2.683901 1.55874 3 0.795609 3 0 
C 3 -0.795609 2.683901 -1.55874 2.12132 -2.12132 
C 1.55874 -2.683901 0.795609 -3 0 -3 
C -0.795609 -3 -1.55874 -2.683901 -2.12132 -2.12132 
C -2.683901 -1.55874 -3 -0.795609 -3 0 
C -3 0.795609 -2.683901 1.55874 -2.12132 2.12132 
C -1.55874 2.683901 -0.795609 3 0 3 
z
" id="mdf803b46f6" style="stroke:#ff0000;"/>
    </defs>
    <g clip-path="url(#p4b87e5073c)">
     <use style="fill:#ff0000;stroke:#ff0000;" x="73.832727" xlink:href="#mdf803b46f6" y="53.568"/>
     <use style="fill:#ff0000;stroke:#ff0000;" x="75.677355" xlink:href="#mdf803b46f6" y="97.046946"/>
     <use style="fill:#ff0000;stroke:#ff0000;" x="77.521983" xlink:href="#mdf803b46f6" y="97.046946"/>
     <use style="fill:#ff0000;stroke:#ff0000;" x="79.366612" xlink:href="#mdf803b46f6" y="140.54615"/>
     <use style="fill:#ff0000;stroke:#ff0000;" x="81.21124" xlink:href="#mdf803b46f6" y="181.391791"/>
     <use style="fill:#ff0000;stroke:#ff0000;" x="83.055868" xlink:href="#mdf803b46f6" y="181.391791"/>
     <use style="fill:#ff0000;stroke:#ff0000;" x="84.900496" xlink:href="#mdf803b46f6" y="181.391791"/>
     <use style="fill:#ff0000;stroke:#ff0000;" x="86.745124" xlink:href="#mdf803b46f6" y="181.391791"/>
     <use style="fill:#ff0000;stroke:#ff0000;" x="88.589752" xlink:href="#mdf803b46f6" y="170.632922"/>
     <use style="fill:#ff0000;stroke:#ff0000;" x="90.43438" xlink:href="#mdf803b46f6" y="170.632922"/>
     <use style="fill:#ff0000;stroke:#ff0000;" x="92.279008" xlink:href="#mdf803b46f6" y="213.420738"/>
     <use style="fill:#ff0000;stroke:#ff0000;" x="94.123636" xlink:href="#mdf803b46f6" y="213.420738"/>
     <use style="fill:#ff0000;stroke:#ff0000;" x="95.968264" xlink:href="#mdf803b46f6" y="213.420738"/>
     <use style="fill:#ff0000;stroke:#ff0000;" x="97.812893" xlink:href="#mdf803b46f6" y="208.398148"/>
     <use style="fill:#ff0000;stroke:#ff0000;" x="99.657521" xlink:href="#mdf803b46f6" y="214.02025"/>
     <use style="fill:#ff0000;stroke:#ff0000;" x="101.502149" xlink:href="#mdf803b46f6" y="214.02025"/>
     <use style="fill:#ff0000;stroke:#ff0000;" x="103.346777" xlink:href="#mdf803b46f6" y="214.02025"/>
     <use style="fill:#ff0000;stroke:#ff0000;" x="105.191405" xlink:href="#mdf803b46f6" y="214.02025"/>
     <use style="fill:#ff0000;stroke:#ff0000;" x="107.036033" xlink:href="#mdf803b46f6" y="253.68152"/>
     <use style="fill:#ff0000;stroke:#ff0000;" x="108.880661" xlink:href="#mdf803b46f6" y="253.68152"/>
     <use style="fill:#ff0000;stroke:#ff0000;" x="110.725289" xlink:href="#mdf803b46f6" y="207.9292"/>
     <use style="fill:#ff0000;stroke:#ff0000;" x="112.569917" xlink:href="#mdf803b46f6" y="207.9292"/>
     <use style="fill:#ff0000;stroke:#ff0000;" x="114.414545" xlink:href="#mdf803b46f6" y="247.941986"/>
     <use style="fill:#ff0000;stroke:#ff0000;" x="116.259174" xlink:href="#mdf803b46f6" y="247.941986"/>
     <use style="fill:#ff0000;stroke:#ff0000;" x="118.103802" xlink:href="#mdf803b46f6" y="247.941986"/>
     <use style="fill:#ff0000;stroke:#ff0000;" x="119.94843" xlink:href="#mdf803b46f6" y="262.614858"/>
     <use style="fill:#ff0000;stroke:#ff0000;" x="121.793058" xlink:href="#mdf803b46f6" y="262.614858"/>
     <use style="fill:#ff0000;stroke:#ff0000;" x="123.637686" xlink:href="#mdf803b46f6" y="260.721476"/>
     <use style="fill:#ff0000;stroke:#ff0000;" x="125.482314" xlink:href="#mdf803b46f6" y="260.721476"/>
     <use style="fill:#ff0000;stroke:#ff0000;" x="127.326942" xlink:href="#mdf803b46f6" y="259.60527"/>
     <use style="fill:#ff0000;stroke:#ff0000;" x="129.17157" xlink:href="#mdf803b46f6" y="259.60527"/>
     <use style="fill:#ff0000;stroke:#ff0000;" x="131.016198" xlink:href="#mdf803b46f6" y="259.60527"/>
     <use style="fill:#ff0000;stroke:#ff0000;" x="132.860826" xlink:href="#mdf803b46f6" y="243.125221"/>
     <use style="fill:#ff0000;stroke:#ff0000;" x="134.705455" xlink:href="#mdf803b46f6" y="243.125221"/>
     <use style="fill:#ff0000;stroke:#ff0000;" x="136.550083" xlink:href="#mdf803b46f6" y="226.623985"/>
     <use style="fill:#ff0000;stroke:#ff0000;" x="138.394711" xlink:href="#mdf803b46f6" y="226.623985"/>
     <use style="fill:#ff0000;stroke:#ff0000;" x="140.239339" xlink:href="#mdf803b46f6" y="226.623985"/>
     <use style="fill:#ff0000;stroke:#ff0000;" x="142.083967" xlink:href="#mdf803b46f6" y="229.977803"/>
     <use style="fill:#ff0000;stroke:#ff0000;" x="143.928595" xlink:href="#mdf803b46f6" y="228.567357"/>
     <use style="fill:#ff0000;stroke:#ff0000;" x="145.773223" xlink:href="#mdf803b46f6" y="228.567357"/>
     <use style="fill:#ff0000;stroke:#ff0000;" x="147.617851" xlink:href="#mdf803b46f6" y="212.861934"/>
     <use style="fill:#ff0000;stroke:#ff0000;" x="149.462479" xlink:href="#mdf803b46f6" y="212.861934"/>
     <use style="fill:#ff0000;stroke:#ff0000;" x="151.307107" xlink:href="#mdf803b46f6" y="212.861934"/>
     <use style="fill:#ff0000;stroke:#ff0000;" x="153.151736" xlink:href="#mdf803b46f6" y="226.068133"/>
     <use style="fill:#ff0000;stroke:#ff0000;" x="154.996364" xlink:href="#mdf803b46f6" y="226.068133"/>
     <use style="fill:#ff0000;stroke:#ff0000;" x="156.840992" xlink:href="#mdf803b46f6" y="211.356723"/>
     <use style="fill:#ff0000;stroke:#ff0000;" x="158.68562" xlink:href="#mdf803b46f6" y="211.356723"/>
     <use style="fill:#ff0000;stroke:#ff0000;" x="160.530248" xlink:href="#mdf803b46f6" y="195.571696"/>
     <use style="fill:#ff0000;stroke:#ff0000;" x="162.374876" xlink:href="#mdf803b46f6" y="195.571696"/>
     <use style="fill:#ff0000;stroke:#ff0000;" x="164.219504" xlink:href="#mdf803b46f6" y="179.925973"/>
     <use style="fill:#ff0000;stroke:#ff0000;" x="166.064132" xlink:href="#mdf803b46f6" y="179.925973"/>
     <use style="fill:#ff0000;stroke:#ff0000;" x="167.90876" xlink:href="#mdf803b46f6" y="194.357566"/>
     <use style="fill:#ff0000;stroke:#ff0000;" x="169.753388" xlink:href="#mdf803b46f6" y="207.757639"/>
     <use style="fill:#ff0000;stroke:#ff0000;" x="171.598017" xlink:href="#mdf803b46f6" y="207.757639"/>
     <use style="fill:#ff0000;stroke:#ff0000;" x="173.442645" xlink:href="#mdf803b46f6" y="192.681106"/>
     <use style="fill:#ff0000;stroke:#ff0000;" x="175.287273" xlink:href="#mdf803b46f6" y="192.681106"/>
     <use style="fill:#ff0000;stroke:#ff0000;" x="177.131901" xlink:href="#mdf803b46f6" y="192.681106"/>
     <use style="fill:#ff0000;stroke:#ff0000;" x="178.976529" xlink:href="#mdf803b46f6" y="206.704528"/>
     <use style="fill:#ff0000;stroke:#ff0000;" x="180.821157" xlink:href="#mdf803b46f6" y="206.704528"/>
     <use style="fill:#ff0000;stroke:#ff0000;" x="182.665785" xlink:href="#mdf803b46f6" y="219.763058"/>
     <use style="fill:#ff0000;stroke:#ff0000;" x="184.510413" xlink:href="#mdf803b46f6" y="217.773406"/>
     <use style="fill:#ff0000;stroke:#ff0000;" x="186.355041" xlink:href="#mdf803b46f6" y="217.773406"/>
     <use style="fill:#ff0000;stroke:#ff0000;" x="188.199669" xlink:href="#mdf803b46f6" y="217.773406"/>
     <use style="fill:#ff0000;stroke:#ff0000;" x="190.044298" xlink:href="#mdf803b46f6" y="217.773406"/>
     <use style="fill:#ff0000;stroke:#ff0000;" x="191.888926" xlink:href="#mdf803b46f6" y="217.773406"/>
     <use style="fill:#ff0000;stroke:#ff0000;" x="193.733554" xlink:href="#mdf803b46f6" y="217.773406"/>
     <use style="fill:#ff0000;stroke:#ff0000;" x="195.578182" xlink:href="#mdf803b46f6" y="217.813698"/>
     <use style="fill:#ff0000;stroke:#ff0000;" x="197.42281" xlink:href="#mdf803b46f6" y="217.813698"/>
     <use style="fill:#ff0000;stroke:#ff0000;" x="199.267438" xlink:href="#mdf803b46f6" y="229.457154"/>
     <use style="fill:#ff0000;stroke:#ff0000;" x="201.112066" xlink:href="#mdf803b46f6" y="229.457154"/>
     <use style="fill:#ff0000;stroke:#ff0000;" x="202.956694" xlink:href="#mdf803b46f6" y="229.457154"/>
     <use style="fill:#ff0000;stroke:#ff0000;" x="204.801322" xlink:href="#mdf803b46f6" y="229.457154"/>
     <use style="fill:#ff0000;stroke:#ff0000;" x="206.64595" xlink:href="#mdf803b46f6" y="231.505103"/>
     <use style="fill:#ff0000;stroke:#ff0000;" x="208.490579" xlink:href="#mdf803b46f6" y="231.505103"/>
     <use style="fill:#ff0000;stroke:#ff0000;" x="210.335207" xlink:href="#mdf803b46f6" y="233.197618"/>
     <use style="fill:#ff0000;stroke:#ff0000;" x="212.179835" xlink:href="#mdf803b46f6" y="233.197618"/>
     <use style="fill:#ff0000;stroke:#ff0000;" x="214.024463" xlink:href="#mdf803b46f6" y="217.362772"/>
     <use style="fill:#ff0000;stroke:#ff0000;" x="215.869091" xlink:href="#mdf803b46f6" y="217.362772"/>
     <use style="fill:#ff0000;stroke:#ff0000;" x="217.713719" xlink:href="#mdf803b46f6" y="217.362772"/>
     <use style="fill:#ff0000;stroke:#ff0000;" x="219.558347" xlink:href="#mdf803b46f6" y="217.362772"/>
     <use style="fill:#ff0000;stroke:#ff0000;" x="221.402975" xlink:href="#mdf803b46f6" y="229.444249"/>
     <use style="fill:#ff0000;stroke:#ff0000;" x="223.247603" xlink:href="#mdf803b46f6" y="229.082821"/>
     <use style="fill:#ff0000;stroke:#ff0000;" x="225.092231" xlink:href="#mdf803b46f6" y="229.082821"/>
     <use style="fill:#ff0000;stroke:#ff0000;" x="226.93686" xlink:href="#mdf803b46f6" y="229.082821"/>
     <use style="fill:#ff0000;stroke:#ff0000;" x="228.781488" xlink:href="#mdf803b46f6" y="229.082821"/>
     <use style="fill:#ff0000;stroke:#ff0000;" x="230.626116" xlink:href="#mdf803b46f6" y="230.145617"/>
     <use style="fill:#ff0000;stroke:#ff0000;" x="232.470744" xlink:href="#mdf803b46f6" y="230.145617"/>
     <use style="fill:#ff0000;stroke:#ff0000;" x="234.315372" xlink:href="#mdf803b46f6" y="213.351664"/>
     <use style="fill:#ff0000;stroke:#ff0000;" x="236.16" xlink:href="#mdf803b46f6" y="213.351664"/>
     <use style="fill:#ff0000;stroke:#ff0000;" x="238.004628" xlink:href="#mdf803b46f6" y="198.231634"/>
     <use style="fill:#ff0000;stroke:#ff0000;" x="239.849256" xlink:href="#mdf803b46f6" y="198.231634"/>
     <use style="fill:#ff0000;stroke:#ff0000;" x="241.693884" xlink:href="#mdf803b46f6" y="210.844272"/>
     <use style="fill:#ff0000;stroke:#ff0000;" x="243.538512" xlink:href="#mdf803b46f6" y="210.844272"/>
     <use style="fill:#ff0000;stroke:#ff0000;" x="245.38314" xlink:href="#mdf803b46f6" y="223.495268"/>
     <use style="fill:#ff0000;stroke:#ff0000;" x="247.227769" xlink:href="#mdf803b46f6" y="223.495268"/>
     <use style="fill:#ff0000;stroke:#ff0000;" x="249.072397" xlink:href="#mdf803b46f6" y="237.624435"/>
     <use style="fill:#ff0000;stroke:#ff0000;" x="250.917025" xlink:href="#mdf803b46f6" y="237.624435"/>
     <use style="fill:#ff0000;stroke:#ff0000;" x="252.761653" xlink:href="#mdf803b46f6" y="250.31401"/>
     <use style="fill:#ff0000;stroke:#ff0000;" x="254.606281" xlink:href="#mdf803b46f6" y="250.31401"/>
     <use style="fill:#ff0000;stroke:#ff0000;" x="256.450909" xlink:href="#mdf803b46f6" y="262.942777"/>
     <use style="fill:#ff0000;stroke:#ff0000;" x="258.295537" xlink:href="#mdf803b46f6" y="262.942777"/>
     <use style="fill:#ff0000;stroke:#ff0000;" x="260.140165" xlink:href="#mdf803b46f6" y="246.407141"/>
     <use style="fill:#ff0000;stroke:#ff0000;" x="261.984793" xlink:href="#mdf803b46f6" y="259.080019"/>
     <use style="fill:#ff0000;stroke:#ff0000;" x="263.829421" xlink:href="#mdf803b46f6" y="259.080019"/>
     <use style="fill:#ff0000;stroke:#ff0000;" x="265.67405" xlink:href="#mdf803b46f6" y="242.899741"/>
     <use style="fill:#ff0000;stroke:#ff0000;" x="267.518678" xlink:href="#mdf803b46f6" y="242.899741"/>
     <use style="fill:#ff0000;stroke:#ff0000;" x="269.363306" xlink:href="#mdf803b46f6" y="227.937563"/>
     <use style="fill:#ff0000;stroke:#ff0000;" x="271.207934" xlink:href="#mdf803b46f6" y="227.937563"/>
     <use style="fill:#ff0000;stroke:#ff0000;" x="273.052562" xlink:href="#mdf803b46f6" y="211.15089"/>
     <use style="fill:#ff0000;stroke:#ff0000;" x="274.89719" xlink:href="#mdf803b46f6" y="211.15089"/>
     <use style="fill:#ff0000;stroke:#ff0000;" x="276.741818" xlink:href="#mdf803b46f6" y="211.15089"/>
     <use style="fill:#ff0000;stroke:#ff0000;" x="278.586446" xlink:href="#mdf803b46f6" y="211.15089"/>
     <use style="fill:#ff0000;stroke:#ff0000;" x="280.431074" xlink:href="#mdf803b46f6" y="211.15089"/>
     <use style="fill:#ff0000;stroke:#ff0000;" x="282.275702" xlink:href="#mdf803b46f6" y="211.15089"/>
     <use style="fill:#ff0000;stroke:#ff0000;" x="284.120331" xlink:href="#mdf803b46f6" y="211.15089"/>
     <use style="fill:#ff0000;stroke:#ff0000;" x="285.964959" xlink:href="#mdf803b46f6" y="211.15089"/>
     <use style="fill:#ff0000;stroke:#ff0000;" x="287.809587" xlink:href="#mdf803b46f6" y="211.15089"/>
     <use style="fill:#ff0000;stroke:#ff0000;" x="289.654215" xlink:href="#mdf803b46f6" y="211.15089"/>
     <use style="fill:#ff0000;stroke:#ff0000;" x="291.498843" xlink:href="#mdf803b46f6" y="225.509372"/>
     <use style="fill:#ff0000;stroke:#ff0000;" x="293.343471" xlink:href="#mdf803b46f6" y="225.509372"/>
     <use style="fill:#ff0000;stroke:#ff0000;" x="295.188099" xlink:href="#mdf803b46f6" y="210.349713"/>
     <use style="fill:#ff0000;stroke:#ff0000;" x="297.032727" xlink:href="#mdf803b46f6" y="210.349713"/>
     <use style="fill:#ff0000;stroke:#ff0000;" x="298.877355" xlink:href="#mdf803b46f6" y="221.580592"/>
     <use style="fill:#ff0000;stroke:#ff0000;" x="300.721983" xlink:href="#mdf803b46f6" y="221.580592"/>
     <use style="fill:#ff0000;stroke:#ff0000;" x="302.566612" xlink:href="#mdf803b46f6" y="225.009109"/>
     <use style="fill:#ff0000;stroke:#ff0000;" x="304.41124" xlink:href="#mdf803b46f6" y="225.009109"/>
     <use style="fill:#ff0000;stroke:#ff0000;" x="306.255868" xlink:href="#mdf803b46f6" y="222.687462"/>
     <use style="fill:#ff0000;stroke:#ff0000;" x="308.100496" xlink:href="#mdf803b46f6" y="222.687462"/>
     <use style="fill:#ff0000;stroke:#ff0000;" x="309.945124" xlink:href="#mdf803b46f6" y="235.658661"/>
     <use style="fill:#ff0000;stroke:#ff0000;" x="311.789752" xlink:href="#mdf803b46f6" y="235.658661"/>
     <use style="fill:#ff0000;stroke:#ff0000;" x="313.63438" xlink:href="#mdf803b46f6" y="218.577717"/>
     <use style="fill:#ff0000;stroke:#ff0000;" x="315.479008" xlink:href="#mdf803b46f6" y="218.577717"/>
     <use style="fill:#ff0000;stroke:#ff0000;" x="317.323636" xlink:href="#mdf803b46f6" y="230.8544"/>
     <use style="fill:#ff0000;stroke:#ff0000;" x="319.168264" xlink:href="#mdf803b46f6" y="230.8544"/>
     <use style="fill:#ff0000;stroke:#ff0000;" x="321.012893" xlink:href="#mdf803b46f6" y="230.8544"/>
     <use style="fill:#ff0000;stroke:#ff0000;" x="322.857521" xlink:href="#mdf803b46f6" y="215.139664"/>
     <use style="fill:#ff0000;stroke:#ff0000;" x="324.702149" xlink:href="#mdf803b46f6" y="215.139664"/>
     <use style="fill:#ff0000;stroke:#ff0000;" x="326.546777" xlink:href="#mdf803b46f6" y="227.855526"/>
     <use style="fill:#ff0000;stroke:#ff0000;" x="328.391405" xlink:href="#mdf803b46f6" y="227.855526"/>
     <use style="fill:#ff0000;stroke:#ff0000;" x="330.236033" xlink:href="#mdf803b46f6" y="211.537699"/>
     <use style="fill:#ff0000;stroke:#ff0000;" x="332.080661" xlink:href="#mdf803b46f6" y="211.537699"/>
     <use style="fill:#ff0000;stroke:#ff0000;" x="333.925289" xlink:href="#mdf803b46f6" y="224.975613"/>
     <use style="fill:#ff0000;stroke:#ff0000;" x="335.769917" xlink:href="#mdf803b46f6" y="224.975613"/>
     <use style="fill:#ff0000;stroke:#ff0000;" x="337.614545" xlink:href="#mdf803b46f6" y="210.03767"/>
     <use style="fill:#ff0000;stroke:#ff0000;" x="339.459174" xlink:href="#mdf803b46f6" y="211.426083"/>
     <use style="fill:#ff0000;stroke:#ff0000;" x="341.303802" xlink:href="#mdf803b46f6" y="211.426083"/>
     <use style="fill:#ff0000;stroke:#ff0000;" x="343.14843" xlink:href="#mdf803b46f6" y="211.426083"/>
     <use style="fill:#ff0000;stroke:#ff0000;" x="344.993058" xlink:href="#mdf803b46f6" y="210.501984"/>
     <use style="fill:#ff0000;stroke:#ff0000;" x="346.837686" xlink:href="#mdf803b46f6" y="210.501984"/>
     <use style="fill:#ff0000;stroke:#ff0000;" x="348.682314" xlink:href="#mdf803b46f6" y="223.178046"/>
     <use style="fill:#ff0000;stroke:#ff0000;" x="350.526942" xlink:href="#mdf803b46f6" y="223.178046"/>
     <use style="fill:#ff0000;stroke:#ff0000;" x="352.37157" xlink:href="#mdf803b46f6" y="221.370661"/>
     <use style="fill:#ff0000;stroke:#ff0000;" x="354.216198" xlink:href="#mdf803b46f6" y="221.370661"/>
     <use style="fill:#ff0000;stroke:#ff0000;" x="356.060826" xlink:href="#mdf803b46f6" y="234.652443"/>
     <use style="fill:#ff0000;stroke:#ff0000;" x="357.905455" xlink:href="#mdf803b46f6" y="234.652443"/>
     <use style="fill:#ff0000;stroke:#ff0000;" x="359.750083" xlink:href="#mdf803b46f6" y="235.758883"/>
     <use style="fill:#ff0000;stroke:#ff0000;" x="361.594711" xlink:href="#mdf803b46f6" y="235.758883"/>
     <use style="fill:#ff0000;stroke:#ff0000;" x="363.439339" xlink:href="#mdf803b46f6" y="221.092864"/>
     <use style="fill:#ff0000;stroke:#ff0000;" x="365.283967" xlink:href="#mdf803b46f6" y="221.092864"/>
     <use style="fill:#ff0000;stroke:#ff0000;" x="367.128595" xlink:href="#mdf803b46f6" y="223.466848"/>
     <use style="fill:#ff0000;stroke:#ff0000;" x="368.973223" xlink:href="#mdf803b46f6" y="223.466848"/>
     <use style="fill:#ff0000;stroke:#ff0000;" x="370.817851" xlink:href="#mdf803b46f6" y="237.959252"/>
     <use style="fill:#ff0000;stroke:#ff0000;" x="372.662479" xlink:href="#mdf803b46f6" y="237.959252"/>
     <use style="fill:#ff0000;stroke:#ff0000;" x="374.507107" xlink:href="#mdf803b46f6" y="249.714728"/>
     <use style="fill:#ff0000;stroke:#ff0000;" x="376.351736" xlink:href="#mdf803b46f6" y="262.637088"/>
     <use style="fill:#ff0000;stroke:#ff0000;" x="378.196364" xlink:href="#mdf803b46f6" y="262.637088"/>
     <use style="fill:#ff0000;stroke:#ff0000;" x="380.040992" xlink:href="#mdf803b46f6" y="262.637088"/>
     <use style="fill:#ff0000;stroke:#ff0000;" x="381.88562" xlink:href="#mdf803b46f6" y="278.210049"/>
     <use style="fill:#ff0000;stroke:#ff0000;" x="383.730248" xlink:href="#mdf803b46f6" y="278.210049"/>
     <use style="fill:#ff0000;stroke:#ff0000;" x="385.574876" xlink:href="#mdf803b46f6" y="278.210049"/>
     <use style="fill:#ff0000;stroke:#ff0000;" x="387.419504" xlink:href="#mdf803b46f6" y="278.210049"/>
     <use style="fill:#ff0000;stroke:#ff0000;" x="389.264132" xlink:href="#mdf803b46f6" y="272.459019"/>
     <use style="fill:#ff0000;stroke:#ff0000;" x="391.10876" xlink:href="#mdf803b46f6" y="272.459019"/>
     <use style="fill:#ff0000;stroke:#ff0000;" x="392.953388" xlink:href="#mdf803b46f6" y="284.29645"/>
     <use style="fill:#ff0000;stroke:#ff0000;" x="394.798017" xlink:href="#mdf803b46f6" y="284.29645"/>
     <use style="fill:#ff0000;stroke:#ff0000;" x="396.642645" xlink:href="#mdf803b46f6" y="295.488"/>
     <use style="fill:#ff0000;stroke:#ff0000;" x="398.487273" xlink:href="#mdf803b46f6" y="295.488"/>
    </g>
   </g>
   <g id="patch_3">
    <path d="M 57.6 307.584 
L 57.6 41.472 
" style="fill:none;stroke:#000000;stroke-linecap:square;stroke-linejoin:miter;stroke-width:0.8;"/>
   </g>
   <g id="patch_4">
    <path d="M 414.72 307.584 
L 414.72 41.472 
" style="fill:none;stroke:#000000;stroke-linecap:square;stroke-linejoin:miter;stroke-width:0.8;"/>
   </g>
   <g id="patch_5">
    <path d="M 57.6 307.584 
L 414.72 307.584 
" style="fill:none;stroke:#000000;stroke-linecap:square;stroke-linejoin:miter;stroke-width:0.8;"/>
   </g>
   <g id="patch_6">
    <path d="M 57.6 41.472 
L 414.72 41.472 
" style="fill:none;stroke:#000000;stroke-linecap:square;stroke-linejoin:miter;stroke-width:0.8;"/>
   </g>
  </g>
 </g>
 <defs>
  <clipPath id="p4b87e5073c">
   <rect height="266.112" width="357.12" x="57.6" y="41.472"/>
  </clipPath>
 </defs>
</svg>
