<?xml version="1.0" encoding="utf-8" standalone="no"?>
<!DOCTYPE svg PUBLIC "-//W3C//DTD SVG 1.1//EN"
  "http://www.w3.org/Graphics/SVG/1.1/DTD/svg11.dtd">
<!-- Created with matplotlib (https://matplotlib.org/) -->
<svg height="345.6pt" version="1.1" viewBox="0 0 460.8 345.6" width="460.8pt" xmlns="http://www.w3.org/2000/svg" xmlns:xlink="http://www.w3.org/1999/xlink">
 <defs>
  <style type="text/css">
*{stroke-linecap:butt;stroke-linejoin:round;}
  </style>
 </defs>
 <g id="figure_1">
  <g id="patch_1">
   <path d="M 0 345.6 
L 460.8 345.6 
L 460.8 0 
L 0 0 
z
" style="fill:#ffffff;"/>
  </g>
  <g id="axes_1">
   <g id="patch_2">
    <path d="M 57.6 307.584 
L 414.72 307.584 
L 414.72 41.472 
L 57.6 41.472 
z
" style="fill:#ffffff;"/>
   </g>
   <g id="line2d_1">
    <path clip-path="url(#pcc9c4742b3)" d="M 73.832727 53.568 
L 74.787594 97.046946 
L 75.74246 97.046946 
L 77.652193 181.391791 
L 80.516791 181.391791 
L 81.471658 170.632922 
L 82.426524 170.632922 
L 83.38139 213.420738 
L 85.291123 213.420738 
L 86.245989 208.398148 
L 87.200856 214.02025 
L 90.065455 214.02025 
L 91.020321 253.68152 
L 91.975187 253.68152 
L 92.930053 207.9292 
L 93.88492 207.9292 
L 94.839786 247.941986 
L 96.749519 247.941986 
L 97.704385 262.614858 
L 98.659251 262.614858 
L 99.614118 260.721476 
L 100.568984 260.721476 
L 101.52385 259.60527 
L 103.433583 259.60527 
L 104.388449 243.125221 
L 105.343316 243.125221 
L 106.298182 226.623985 
L 108.207914 226.623985 
L 109.162781 229.977803 
L 110.117647 228.567357 
L 111.072513 228.567357 
L 112.02738 212.861934 
L 113.937112 212.861934 
L 114.891979 226.068133 
L 115.846845 226.068133 
L 116.801711 211.356723 
L 117.756578 211.356723 
L 118.711444 195.571696 
L 119.66631 195.571696 
L 120.621176 179.925973 
L 121.576043 179.925973 
L 123.485775 207.757639 
L 124.440642 207.757639 
L 125.395508 192.681106 
L 127.305241 192.681106 
L 128.260107 206.704528 
L 129.214973 206.704528 
L 130.16984 219.763058 
L 131.124706 217.773406 
L 137.80877 217.813698 
L 138.763636 229.457154 
L 141.628235 229.457154 
L 142.583102 231.505103 
L 143.537968 231.505103 
L 144.492834 233.197618 
L 145.447701 233.197618 
L 146.402567 217.362772 
L 149.267166 217.362772 
L 150.222032 229.444249 
L 151.176898 229.082821 
L 154.041497 229.082821 
L 154.996364 230.145617 
L 155.95123 230.145617 
L 156.906096 213.351664 
L 157.860963 213.351664 
L 158.815829 198.231634 
L 159.770695 198.231634 
L 160.725561 210.844272 
L 161.680428 210.844272 
L 162.635294 223.495268 
L 163.59016 223.495268 
L 164.545027 237.624435 
L 165.499893 237.624435 
L 166.454759 250.31401 
L 167.409626 250.31401 
L 168.364492 262.942777 
L 169.319358 262.942777 
L 170.274225 246.407141 
L 171.229091 259.080019 
L 172.183957 259.080019 
L 173.138824 242.899741 
L 174.09369 242.899741 
L 175.048556 227.937563 
L 176.003422 227.937563 
L 176.958289 211.15089 
L 185.552086 211.15089 
L 186.506952 225.509372 
L 187.461818 225.509372 
L 188.416684 210.349713 
L 189.371551 210.349713 
L 190.326417 221.580592 
L 191.281283 221.580592 
L 192.23615 225.009109 
L 193.191016 225.009109 
L 194.145882 222.687462 
L 195.100749 222.687462 
L 196.055615 235.658661 
L 197.010481 235.658661 
L 197.965348 218.577717 
L 198.920214 218.577717 
L 199.87508 230.8544 
L 201.784813 230.8544 
L 202.739679 215.139664 
L 203.694545 215.139664 
L 204.649412 227.855526 
L 205.604278 227.855526 
L 206.559144 211.537699 
L 207.514011 211.537699 
L 208.468877 224.975613 
L 209.423743 224.975613 
L 210.37861 210.03767 
L 211.333476 211.426083 
L 213.243209 211.426083 
L 214.198075 210.501984 
L 215.152941 210.501984 
L 216.107807 223.178046 
L 217.062674 223.178046 
L 218.01754 221.370661 
L 218.972406 221.370661 
L 219.927273 234.652443 
L 220.882139 234.652443 
L 221.837005 235.758883 
L 222.791872 235.758883 
L 223.746738 221.092864 
L 224.701604 221.092864 
L 225.656471 223.466848 
L 226.611337 223.466848 
L 227.566203 237.959252 
L 228.52107 237.959252 
L 230.430802 262.637088 
L 232.340535 262.637088 
L 233.295401 278.210049 
L 236.16 278.210049 
L 237.114866 272.459019 
L 238.069733 272.459019 
L 239.024599 284.29645 
L 239.979465 284.29645 
L 240.934332 295.488 
L 241.889198 295.488 
L 242.844064 278.550367 
L 243.79893 278.550367 
L 244.753797 263.108698 
L 245.708663 277.583719 
L 246.663529 277.583719 
L 247.618396 292.451833 
L 248.573262 292.451833 
L 249.528128 290.215213 
L 250.482995 284.502717 
L 398.487273 284.502717 
L 398.487273 284.502717 
" style="fill:none;stroke:#ff0000;stroke-linecap:square;stroke-width:12;"/>
    <defs>
     <path d="M 0 3 
C 0.795609 3 1.55874 2.683901 2.12132 2.12132 
C 2.683901 1.55874 3 0.795609 3 0 
C 3 -0.795609 2.683901 -1.55874 2.12132 -2.12132 
C 1.55874 -2.683901 0.795609 -3 0 -3 
C -0.795609 -3 -1.55874 -2.683901 -2.12132 -2.12132 
C -2.683901 -1.55874 -3 -0.795609 -3 0 
C -3 0.795609 -2.683901 1.55874 -2.12132 2.12132 
C -1.55874 2.683901 -0.795609 3 0 3 
z
" id="mff35e2bf87" style="stroke:#ff0000;"/>
    </defs>
    <g clip-path="url(#pcc9c4742b3)">
     <use style="fill:#ff0000;stroke:#ff0000;" x="73.832727" xlink:href="#mff35e2bf87" y="53.568"/>
     <use style="fill:#ff0000;stroke:#ff0000;" x="74.787594" xlink:href="#mff35e2bf87" y="97.046946"/>
     <use style="fill:#ff0000;stroke:#ff0000;" x="75.74246" xlink:href="#mff35e2bf87" y="97.046946"/>
     <use style="fill:#ff0000;stroke:#ff0000;" x="76.697326" xlink:href="#mff35e2bf87" y="140.54615"/>
     <use style="fill:#ff0000;stroke:#ff0000;" x="77.652193" xlink:href="#mff35e2bf87" y="181.391791"/>
     <use style="fill:#ff0000;stroke:#ff0000;" x="78.607059" xlink:href="#mff35e2bf87" y="181.391791"/>
     <use style="fill:#ff0000;stroke:#ff0000;" x="79.561925" xlink:href="#mff35e2bf87" y="181.391791"/>
     <use style="fill:#ff0000;stroke:#ff0000;" x="80.516791" xlink:href="#mff35e2bf87" y="181.391791"/>
     <use style="fill:#ff0000;stroke:#ff0000;" x="81.471658" xlink:href="#mff35e2bf87" y="170.632922"/>
     <use style="fill:#ff0000;stroke:#ff0000;" x="82.426524" xlink:href="#mff35e2bf87" y="170.632922"/>
     <use style="fill:#ff0000;stroke:#ff0000;" x="83.38139" xlink:href="#mff35e2bf87" y="213.420738"/>
     <use style="fill:#ff0000;stroke:#ff0000;" x="84.336257" xlink:href="#mff35e2bf87" y="213.420738"/>
     <use style="fill:#ff0000;stroke:#ff0000;" x="85.291123" xlink:href="#mff35e2bf87" y="213.420738"/>
     <use style="fill:#ff0000;stroke:#ff0000;" x="86.245989" xlink:href="#mff35e2bf87" y="208.398148"/>
     <use style="fill:#ff0000;stroke:#ff0000;" x="87.200856" xlink:href="#mff35e2bf87" y="214.02025"/>
     <use style="fill:#ff0000;stroke:#ff0000;" x="88.155722" xlink:href="#mff35e2bf87" y="214.02025"/>
     <use style="fill:#ff0000;stroke:#ff0000;" x="89.110588" xlink:href="#mff35e2bf87" y="214.02025"/>
     <use style="fill:#ff0000;stroke:#ff0000;" x="90.065455" xlink:href="#mff35e2bf87" y="214.02025"/>
     <use style="fill:#ff0000;stroke:#ff0000;" x="91.020321" xlink:href="#mff35e2bf87" y="253.68152"/>
     <use style="fill:#ff0000;stroke:#ff0000;" x="91.975187" xlink:href="#mff35e2bf87" y="253.68152"/>
     <use style="fill:#ff0000;stroke:#ff0000;" x="92.930053" xlink:href="#mff35e2bf87" y="207.9292"/>
     <use style="fill:#ff0000;stroke:#ff0000;" x="93.88492" xlink:href="#mff35e2bf87" y="207.9292"/>
     <use style="fill:#ff0000;stroke:#ff0000;" x="94.839786" xlink:href="#mff35e2bf87" y="247.941986"/>
     <use style="fill:#ff0000;stroke:#ff0000;" x="95.794652" xlink:href="#mff35e2bf87" y="247.941986"/>
     <use style="fill:#ff0000;stroke:#ff0000;" x="96.749519" xlink:href="#mff35e2bf87" y="247.941986"/>
     <use style="fill:#ff0000;stroke:#ff0000;" x="97.704385" xlink:href="#mff35e2bf87" y="262.614858"/>
     <use style="fill:#ff0000;stroke:#ff0000;" x="98.659251" xlink:href="#mff35e2bf87" y="262.614858"/>
     <use style="fill:#ff0000;stroke:#ff0000;" x="99.614118" xlink:href="#mff35e2bf87" y="260.721476"/>
     <use style="fill:#ff0000;stroke:#ff0000;" x="100.568984" xlink:href="#mff35e2bf87" y="260.721476"/>
     <use style="fill:#ff0000;stroke:#ff0000;" x="101.52385" xlink:href="#mff35e2bf87" y="259.60527"/>
     <use style="fill:#ff0000;stroke:#ff0000;" x="102.478717" xlink:href="#mff35e2bf87" y="259.60527"/>
     <use style="fill:#ff0000;stroke:#ff0000;" x="103.433583" xlink:href="#mff35e2bf87" y="259.60527"/>
     <use style="fill:#ff0000;stroke:#ff0000;" x="104.388449" xlink:href="#mff35e2bf87" y="243.125221"/>
     <use style="fill:#ff0000;stroke:#ff0000;" x="105.343316" xlink:href="#mff35e2bf87" y="243.125221"/>
     <use style="fill:#ff0000;stroke:#ff0000;" x="106.298182" xlink:href="#mff35e2bf87" y="226.623985"/>
     <use style="fill:#ff0000;stroke:#ff0000;" x="107.253048" xlink:href="#mff35e2bf87" y="226.623985"/>
     <use style="fill:#ff0000;stroke:#ff0000;" x="108.207914" xlink:href="#mff35e2bf87" y="226.623985"/>
     <use style="fill:#ff0000;stroke:#ff0000;" x="109.162781" xlink:href="#mff35e2bf87" y="229.977803"/>
     <use style="fill:#ff0000;stroke:#ff0000;" x="110.117647" xlink:href="#mff35e2bf87" y="228.567357"/>
     <use style="fill:#ff0000;stroke:#ff0000;" x="111.072513" xlink:href="#mff35e2bf87" y="228.567357"/>
     <use style="fill:#ff0000;stroke:#ff0000;" x="112.02738" xlink:href="#mff35e2bf87" y="212.861934"/>
     <use style="fill:#ff0000;stroke:#ff0000;" x="112.982246" xlink:href="#mff35e2bf87" y="212.861934"/>
     <use style="fill:#ff0000;stroke:#ff0000;" x="113.937112" xlink:href="#mff35e2bf87" y="212.861934"/>
     <use style="fill:#ff0000;stroke:#ff0000;" x="114.891979" xlink:href="#mff35e2bf87" y="226.068133"/>
     <use style="fill:#ff0000;stroke:#ff0000;" x="115.846845" xlink:href="#mff35e2bf87" y="226.068133"/>
     <use style="fill:#ff0000;stroke:#ff0000;" x="116.801711" xlink:href="#mff35e2bf87" y="211.356723"/>
     <use style="fill:#ff0000;stroke:#ff0000;" x="117.756578" xlink:href="#mff35e2bf87" y="211.356723"/>
     <use style="fill:#ff0000;stroke:#ff0000;" x="118.711444" xlink:href="#mff35e2bf87" y="195.571696"/>
     <use style="fill:#ff0000;stroke:#ff0000;" x="119.66631" xlink:href="#mff35e2bf87" y="195.571696"/>
     <use style="fill:#ff0000;stroke:#ff0000;" x="120.621176" xlink:href="#mff35e2bf87" y="179.925973"/>
     <use style="fill:#ff0000;stroke:#ff0000;" x="121.576043" xlink:href="#mff35e2bf87" y="179.925973"/>
     <use style="fill:#ff0000;stroke:#ff0000;" x="122.530909" xlink:href="#mff35e2bf87" y="194.357566"/>
     <use style="fill:#ff0000;stroke:#ff0000;" x="123.485775" xlink:href="#mff35e2bf87" y="207.757639"/>
     <use style="fill:#ff0000;stroke:#ff0000;" x="124.440642" xlink:href="#mff35e2bf87" y="207.757639"/>
     <use style="fill:#ff0000;stroke:#ff0000;" x="125.395508" xlink:href="#mff35e2bf87" y="192.681106"/>
     <use style="fill:#ff0000;stroke:#ff0000;" x="126.350374" xlink:href="#mff35e2bf87" y="192.681106"/>
     <use style="fill:#ff0000;stroke:#ff0000;" x="127.305241" xlink:href="#mff35e2bf87" y="192.681106"/>
     <use style="fill:#ff0000;stroke:#ff0000;" x="128.260107" xlink:href="#mff35e2bf87" y="206.704528"/>
     <use style="fill:#ff0000;stroke:#ff0000;" x="129.214973" xlink:href="#mff35e2bf87" y="206.704528"/>
     <use style="fill:#ff0000;stroke:#ff0000;" x="130.16984" xlink:href="#mff35e2bf87" y="219.763058"/>
     <use style="fill:#ff0000;stroke:#ff0000;" x="131.124706" xlink:href="#mff35e2bf87" y="217.773406"/>
     <use style="fill:#ff0000;stroke:#ff0000;" x="132.079572" xlink:href="#mff35e2bf87" y="217.773406"/>
     <use style="fill:#ff0000;stroke:#ff0000;" x="133.034439" xlink:href="#mff35e2bf87" y="217.773406"/>
     <use style="fill:#ff0000;stroke:#ff0000;" x="133.989305" xlink:href="#mff35e2bf87" y="217.773406"/>
     <use style="fill:#ff0000;stroke:#ff0000;" x="134.944171" xlink:href="#mff35e2bf87" y="217.773406"/>
     <use style="fill:#ff0000;stroke:#ff0000;" x="135.899037" xlink:href="#mff35e2bf87" y="217.773406"/>
     <use style="fill:#ff0000;stroke:#ff0000;" x="136.853904" xlink:href="#mff35e2bf87" y="217.813698"/>
     <use style="fill:#ff0000;stroke:#ff0000;" x="137.80877" xlink:href="#mff35e2bf87" y="217.813698"/>
     <use style="fill:#ff0000;stroke:#ff0000;" x="138.763636" xlink:href="#mff35e2bf87" y="229.457154"/>
     <use style="fill:#ff0000;stroke:#ff0000;" x="139.718503" xlink:href="#mff35e2bf87" y="229.457154"/>
     <use style="fill:#ff0000;stroke:#ff0000;" x="140.673369" xlink:href="#mff35e2bf87" y="229.457154"/>
     <use style="fill:#ff0000;stroke:#ff0000;" x="141.628235" xlink:href="#mff35e2bf87" y="229.457154"/>
     <use style="fill:#ff0000;stroke:#ff0000;" x="142.583102" xlink:href="#mff35e2bf87" y="231.505103"/>
     <use style="fill:#ff0000;stroke:#ff0000;" x="143.537968" xlink:href="#mff35e2bf87" y="231.505103"/>
     <use style="fill:#ff0000;stroke:#ff0000;" x="144.492834" xlink:href="#mff35e2bf87" y="233.197618"/>
     <use style="fill:#ff0000;stroke:#ff0000;" x="145.447701" xlink:href="#mff35e2bf87" y="233.197618"/>
     <use style="fill:#ff0000;stroke:#ff0000;" x="146.402567" xlink:href="#mff35e2bf87" y="217.362772"/>
     <use style="fill:#ff0000;stroke:#ff0000;" x="147.357433" xlink:href="#mff35e2bf87" y="217.362772"/>
     <use style="fill:#ff0000;stroke:#ff0000;" x="148.312299" xlink:href="#mff35e2bf87" y="217.362772"/>
     <use style="fill:#ff0000;stroke:#ff0000;" x="149.267166" xlink:href="#mff35e2bf87" y="217.362772"/>
     <use style="fill:#ff0000;stroke:#ff0000;" x="150.222032" xlink:href="#mff35e2bf87" y="229.444249"/>
     <use style="fill:#ff0000;stroke:#ff0000;" x="151.176898" xlink:href="#mff35e2bf87" y="229.082821"/>
     <use style="fill:#ff0000;stroke:#ff0000;" x="152.131765" xlink:href="#mff35e2bf87" y="229.082821"/>
     <use style="fill:#ff0000;stroke:#ff0000;" x="153.086631" xlink:href="#mff35e2bf87" y="229.082821"/>
     <use style="fill:#ff0000;stroke:#ff0000;" x="154.041497" xlink:href="#mff35e2bf87" y="229.082821"/>
     <use style="fill:#ff0000;stroke:#ff0000;" x="154.996364" xlink:href="#mff35e2bf87" y="230.145617"/>
     <use style="fill:#ff0000;stroke:#ff0000;" x="155.95123" xlink:href="#mff35e2bf87" y="230.145617"/>
     <use style="fill:#ff0000;stroke:#ff0000;" x="156.906096" xlink:href="#mff35e2bf87" y="213.351664"/>
     <use style="fill:#ff0000;stroke:#ff0000;" x="157.860963" xlink:href="#mff35e2bf87" y="213.351664"/>
     <use style="fill:#ff0000;stroke:#ff0000;" x="158.815829" xlink:href="#mff35e2bf87" y="198.231634"/>
     <use style="fill:#ff0000;stroke:#ff0000;" x="159.770695" xlink:href="#mff35e2bf87" y="198.231634"/>
     <use style="fill:#ff0000;stroke:#ff0000;" x="160.725561" xlink:href="#mff35e2bf87" y="210.844272"/>
     <use style="fill:#ff0000;stroke:#ff0000;" x="161.680428" xlink:href="#mff35e2bf87" y="210.844272"/>
     <use style="fill:#ff0000;stroke:#ff0000;" x="162.635294" xlink:href="#mff35e2bf87" y="223.495268"/>
     <use style="fill:#ff0000;stroke:#ff0000;" x="163.59016" xlink:href="#mff35e2bf87" y="223.495268"/>
     <use style="fill:#ff0000;stroke:#ff0000;" x="164.545027" xlink:href="#mff35e2bf87" y="237.624435"/>
     <use style="fill:#ff0000;stroke:#ff0000;" x="165.499893" xlink:href="#mff35e2bf87" y="237.624435"/>
     <use style="fill:#ff0000;stroke:#ff0000;" x="166.454759" xlink:href="#mff35e2bf87" y="250.31401"/>
     <use style="fill:#ff0000;stroke:#ff0000;" x="167.409626" xlink:href="#mff35e2bf87" y="250.31401"/>
     <use style="fill:#ff0000;stroke:#ff0000;" x="168.364492" xlink:href="#mff35e2bf87" y="262.942777"/>
     <use style="fill:#ff0000;stroke:#ff0000;" x="169.319358" xlink:href="#mff35e2bf87" y="262.942777"/>
     <use style="fill:#ff0000;stroke:#ff0000;" x="170.274225" xlink:href="#mff35e2bf87" y="246.407141"/>
     <use style="fill:#ff0000;stroke:#ff0000;" x="171.229091" xlink:href="#mff35e2bf87" y="259.080019"/>
     <use style="fill:#ff0000;stroke:#ff0000;" x="172.183957" xlink:href="#mff35e2bf87" y="259.080019"/>
     <use style="fill:#ff0000;stroke:#ff0000;" x="173.138824" xlink:href="#mff35e2bf87" y="242.899741"/>
     <use style="fill:#ff0000;stroke:#ff0000;" x="174.09369" xlink:href="#mff35e2bf87" y="242.899741"/>
     <use style="fill:#ff0000;stroke:#ff0000;" x="175.048556" xlink:href="#mff35e2bf87" y="227.937563"/>
     <use style="fill:#ff0000;stroke:#ff0000;" x="176.003422" xlink:href="#mff35e2bf87" y="227.937563"/>
     <use style="fill:#ff0000;stroke:#ff0000;" x="176.958289" xlink:href="#mff35e2bf87" y="211.15089"/>
     <use style="fill:#ff0000;stroke:#ff0000;" x="177.913155" xlink:href="#mff35e2bf87" y="211.15089"/>
     <use style="fill:#ff0000;stroke:#ff0000;" x="178.868021" xlink:href="#mff35e2bf87" y="211.15089"/>
     <use style="fill:#ff0000;stroke:#ff0000;" x="179.822888" xlink:href="#mff35e2bf87" y="211.15089"/>
     <use style="fill:#ff0000;stroke:#ff0000;" x="180.777754" xlink:href="#mff35e2bf87" y="211.15089"/>
     <use style="fill:#ff0000;stroke:#ff0000;" x="181.73262" xlink:href="#mff35e2bf87" y="211.15089"/>
     <use style="fill:#ff0000;stroke:#ff0000;" x="182.687487" xlink:href="#mff35e2bf87" y="211.15089"/>
     <use style="fill:#ff0000;stroke:#ff0000;" x="183.642353" xlink:href="#mff35e2bf87" y="211.15089"/>
     <use style="fill:#ff0000;stroke:#ff0000;" x="184.597219" xlink:href="#mff35e2bf87" y="211.15089"/>
     <use style="fill:#ff0000;stroke:#ff0000;" x="185.552086" xlink:href="#mff35e2bf87" y="211.15089"/>
     <use style="fill:#ff0000;stroke:#ff0000;" x="186.506952" xlink:href="#mff35e2bf87" y="225.509372"/>
     <use style="fill:#ff0000;stroke:#ff0000;" x="187.461818" xlink:href="#mff35e2bf87" y="225.509372"/>
     <use style="fill:#ff0000;stroke:#ff0000;" x="188.416684" xlink:href="#mff35e2bf87" y="210.349713"/>
     <use style="fill:#ff0000;stroke:#ff0000;" x="189.371551" xlink:href="#mff35e2bf87" y="210.349713"/>
     <use style="fill:#ff0000;stroke:#ff0000;" x="190.326417" xlink:href="#mff35e2bf87" y="221.580592"/>
     <use style="fill:#ff0000;stroke:#ff0000;" x="191.281283" xlink:href="#mff35e2bf87" y="221.580592"/>
     <use style="fill:#ff0000;stroke:#ff0000;" x="192.23615" xlink:href="#mff35e2bf87" y="225.009109"/>
     <use style="fill:#ff0000;stroke:#ff0000;" x="193.191016" xlink:href="#mff35e2bf87" y="225.009109"/>
     <use style="fill:#ff0000;stroke:#ff0000;" x="194.145882" xlink:href="#mff35e2bf87" y="222.687462"/>
     <use style="fill:#ff0000;stroke:#ff0000;" x="195.100749" xlink:href="#mff35e2bf87" y="222.687462"/>
     <use style="fill:#ff0000;stroke:#ff0000;" x="196.055615" xlink:href="#mff35e2bf87" y="235.658661"/>
     <use style="fill:#ff0000;stroke:#ff0000;" x="197.010481" xlink:href="#mff35e2bf87" y="235.658661"/>
     <use style="fill:#ff0000;stroke:#ff0000;" x="197.965348" xlink:href="#mff35e2bf87" y="218.577717"/>
     <use style="fill:#ff0000;stroke:#ff0000;" x="198.920214" xlink:href="#mff35e2bf87" y="218.577717"/>
     <use style="fill:#ff0000;stroke:#ff0000;" x="199.87508" xlink:href="#mff35e2bf87" y="230.8544"/>
     <use style="fill:#ff0000;stroke:#ff0000;" x="200.829947" xlink:href="#mff35e2bf87" y="230.8544"/>
     <use style="fill:#ff0000;stroke:#ff0000;" x="201.784813" xlink:href="#mff35e2bf87" y="230.8544"/>
     <use style="fill:#ff0000;stroke:#ff0000;" x="202.739679" xlink:href="#mff35e2bf87" y="215.139664"/>
     <use style="fill:#ff0000;stroke:#ff0000;" x="203.694545" xlink:href="#mff35e2bf87" y="215.139664"/>
     <use style="fill:#ff0000;stroke:#ff0000;" x="204.649412" xlink:href="#mff35e2bf87" y="227.855526"/>
     <use style="fill:#ff0000;stroke:#ff0000;" x="205.604278" xlink:href="#mff35e2bf87" y="227.855526"/>
     <use style="fill:#ff0000;stroke:#ff0000;" x="206.559144" xlink:href="#mff35e2bf87" y="211.537699"/>
     <use style="fill:#ff0000;stroke:#ff0000;" x="207.514011" xlink:href="#mff35e2bf87" y="211.537699"/>
     <use style="fill:#ff0000;stroke:#ff0000;" x="208.468877" xlink:href="#mff35e2bf87" y="224.975613"/>
     <use style="fill:#ff0000;stroke:#ff0000;" x="209.423743" xlink:href="#mff35e2bf87" y="224.975613"/>
     <use style="fill:#ff0000;stroke:#ff0000;" x="210.37861" xlink:href="#mff35e2bf87" y="210.03767"/>
     <use style="fill:#ff0000;stroke:#ff0000;" x="211.333476" xlink:href="#mff35e2bf87" y="211.426083"/>
     <use style="fill:#ff0000;stroke:#ff0000;" x="212.288342" xlink:href="#mff35e2bf87" y="211.426083"/>
     <use style="fill:#ff0000;stroke:#ff0000;" x="213.243209" xlink:href="#mff35e2bf87" y="211.426083"/>
     <use style="fill:#ff0000;stroke:#ff0000;" x="214.198075" xlink:href="#mff35e2bf87" y="210.501984"/>
     <use style="fill:#ff0000;stroke:#ff0000;" x="215.152941" xlink:href="#mff35e2bf87" y="210.501984"/>
     <use style="fill:#ff0000;stroke:#ff0000;" x="216.107807" xlink:href="#mff35e2bf87" y="223.178046"/>
     <use style="fill:#ff0000;stroke:#ff0000;" x="217.062674" xlink:href="#mff35e2bf87" y="223.178046"/>
     <use style="fill:#ff0000;stroke:#ff0000;" x="218.01754" xlink:href="#mff35e2bf87" y="221.370661"/>
     <use style="fill:#ff0000;stroke:#ff0000;" x="218.972406" xlink:href="#mff35e2bf87" y="221.370661"/>
     <use style="fill:#ff0000;stroke:#ff0000;" x="219.927273" xlink:href="#mff35e2bf87" y="234.652443"/>
     <use style="fill:#ff0000;stroke:#ff0000;" x="220.882139" xlink:href="#mff35e2bf87" y="234.652443"/>
     <use style="fill:#ff0000;stroke:#ff0000;" x="221.837005" xlink:href="#mff35e2bf87" y="235.758883"/>
     <use style="fill:#ff0000;stroke:#ff0000;" x="222.791872" xlink:href="#mff35e2bf87" y="235.758883"/>
     <use style="fill:#ff0000;stroke:#ff0000;" x="223.746738" xlink:href="#mff35e2bf87" y="221.092864"/>
     <use style="fill:#ff0000;stroke:#ff0000;" x="224.701604" xlink:href="#mff35e2bf87" y="221.092864"/>
     <use style="fill:#ff0000;stroke:#ff0000;" x="225.656471" xlink:href="#mff35e2bf87" y="223.466848"/>
     <use style="fill:#ff0000;stroke:#ff0000;" x="226.611337" xlink:href="#mff35e2bf87" y="223.466848"/>
     <use style="fill:#ff0000;stroke:#ff0000;" x="227.566203" xlink:href="#mff35e2bf87" y="237.959252"/>
     <use style="fill:#ff0000;stroke:#ff0000;" x="228.52107" xlink:href="#mff35e2bf87" y="237.959252"/>
     <use style="fill:#ff0000;stroke:#ff0000;" x="229.475936" xlink:href="#mff35e2bf87" y="249.714728"/>
     <use style="fill:#ff0000;stroke:#ff0000;" x="230.430802" xlink:href="#mff35e2bf87" y="262.637088"/>
     <use style="fill:#ff0000;stroke:#ff0000;" x="231.385668" xlink:href="#mff35e2bf87" y="262.637088"/>
     <use style="fill:#ff0000;stroke:#ff0000;" x="232.340535" xlink:href="#mff35e2bf87" y="262.637088"/>
     <use style="fill:#ff0000;stroke:#ff0000;" x="233.295401" xlink:href="#mff35e2bf87" y="278.210049"/>
     <use style="fill:#ff0000;stroke:#ff0000;" x="234.250267" xlink:href="#mff35e2bf87" y="278.210049"/>
     <use style="fill:#ff0000;stroke:#ff0000;" x="235.205134" xlink:href="#mff35e2bf87" y="278.210049"/>
     <use style="fill:#ff0000;stroke:#ff0000;" x="236.16" xlink:href="#mff35e2bf87" y="278.210049"/>
     <use style="fill:#ff0000;stroke:#ff0000;" x="237.114866" xlink:href="#mff35e2bf87" y="272.459019"/>
     <use style="fill:#ff0000;stroke:#ff0000;" x="238.069733" xlink:href="#mff35e2bf87" y="272.459019"/>
     <use style="fill:#ff0000;stroke:#ff0000;" x="239.024599" xlink:href="#mff35e2bf87" y="284.29645"/>
     <use style="fill:#ff0000;stroke:#ff0000;" x="239.979465" xlink:href="#mff35e2bf87" y="284.29645"/>
     <use style="fill:#ff0000;stroke:#ff0000;" x="240.934332" xlink:href="#mff35e2bf87" y="295.488"/>
     <use style="fill:#ff0000;stroke:#ff0000;" x="241.889198" xlink:href="#mff35e2bf87" y="295.488"/>
     <use style="fill:#ff0000;stroke:#ff0000;" x="242.844064" xlink:href="#mff35e2bf87" y="278.550367"/>
     <use style="fill:#ff0000;stroke:#ff0000;" x="243.79893" xlink:href="#mff35e2bf87" y="278.550367"/>
     <use style="fill:#ff0000;stroke:#ff0000;" x="244.753797" xlink:href="#mff35e2bf87" y="263.108698"/>
     <use style="fill:#ff0000;stroke:#ff0000;" x="245.708663" xlink:href="#mff35e2bf87" y="277.583719"/>
     <use style="fill:#ff0000;stroke:#ff0000;" x="246.663529" xlink:href="#mff35e2bf87" y="277.583719"/>
     <use style="fill:#ff0000;stroke:#ff0000;" x="247.618396" xlink:href="#mff35e2bf87" y="292.451833"/>
     <use style="fill:#ff0000;stroke:#ff0000;" x="248.573262" xlink:href="#mff35e2bf87" y="292.451833"/>
     <use style="fill:#ff0000;stroke:#ff0000;" x="249.528128" xlink:href="#mff35e2bf87" y="290.215213"/>
     <use style="fill:#ff0000;stroke:#ff0000;" x="250.482995" xlink:href="#mff35e2bf87" y="284.502717"/>
     <use style="fill:#ff0000;stroke:#ff0000;" x="251.437861" xlink:href="#mff35e2bf87" y="284.502717"/>
     <use style="fill:#ff0000;stroke:#ff0000;" x="252.392727" xlink:href="#mff35e2bf87" y="284.502717"/>
     <use style="fill:#ff0000;stroke:#ff0000;" x="253.347594" xlink:href="#mff35e2bf87" y="284.502717"/>
     <use style="fill:#ff0000;stroke:#ff0000;" x="254.30246" xlink:href="#mff35e2bf87" y="284.502717"/>
     <use style="fill:#ff0000;stroke:#ff0000;" x="255.257326" xlink:href="#mff35e2bf87" y="284.502717"/>
     <use style="fill:#ff0000;stroke:#ff0000;" x="256.212193" xlink:href="#mff35e2bf87" y="284.502717"/>
     <use style="fill:#ff0000;stroke:#ff0000;" x="257.167059" xlink:href="#mff35e2bf87" y="284.502717"/>
     <use style="fill:#ff0000;stroke:#ff0000;" x="258.121925" xlink:href="#mff35e2bf87" y="284.502717"/>
     <use style="fill:#ff0000;stroke:#ff0000;" x="259.076791" xlink:href="#mff35e2bf87" y="284.502717"/>
     <use style="fill:#ff0000;stroke:#ff0000;" x="260.031658" xlink:href="#mff35e2bf87" y="284.502717"/>
     <use style="fill:#ff0000;stroke:#ff0000;" x="260.986524" xlink:href="#mff35e2bf87" y="284.502717"/>
     <use style="fill:#ff0000;stroke:#ff0000;" x="261.94139" xlink:href="#mff35e2bf87" y="284.502717"/>
     <use style="fill:#ff0000;stroke:#ff0000;" x="262.896257" xlink:href="#mff35e2bf87" y="284.502717"/>
     <use style="fill:#ff0000;stroke:#ff0000;" x="263.851123" xlink:href="#mff35e2bf87" y="284.502717"/>
     <use style="fill:#ff0000;stroke:#ff0000;" x="264.805989" xlink:href="#mff35e2bf87" y="284.502717"/>
     <use style="fill:#ff0000;stroke:#ff0000;" x="265.760856" xlink:href="#mff35e2bf87" y="284.502717"/>
     <use style="fill:#ff0000;stroke:#ff0000;" x="266.715722" xlink:href="#mff35e2bf87" y="284.502717"/>
     <use style="fill:#ff0000;stroke:#ff0000;" x="267.670588" xlink:href="#mff35e2bf87" y="284.502717"/>
     <use style="fill:#ff0000;stroke:#ff0000;" x="268.625455" xlink:href="#mff35e2bf87" y="284.502717"/>
     <use style="fill:#ff0000;stroke:#ff0000;" x="269.580321" xlink:href="#mff35e2bf87" y="284.502717"/>
     <use style="fill:#ff0000;stroke:#ff0000;" x="270.535187" xlink:href="#mff35e2bf87" y="284.502717"/>
     <use style="fill:#ff0000;stroke:#ff0000;" x="271.490053" xlink:href="#mff35e2bf87" y="284.502717"/>
     <use style="fill:#ff0000;stroke:#ff0000;" x="272.44492" xlink:href="#mff35e2bf87" y="284.502717"/>
     <use style="fill:#ff0000;stroke:#ff0000;" x="273.399786" xlink:href="#mff35e2bf87" y="284.502717"/>
     <use style="fill:#ff0000;stroke:#ff0000;" x="274.354652" xlink:href="#mff35e2bf87" y="284.502717"/>
     <use style="fill:#ff0000;stroke:#ff0000;" x="275.309519" xlink:href="#mff35e2bf87" y="284.502717"/>
     <use style="fill:#ff0000;stroke:#ff0000;" x="276.264385" xlink:href="#mff35e2bf87" y="284.502717"/>
     <use style="fill:#ff0000;stroke:#ff0000;" x="277.219251" xlink:href="#mff35e2bf87" y="284.502717"/>
     <use style="fill:#ff0000;stroke:#ff0000;" x="278.174118" xlink:href="#mff35e2bf87" y="284.502717"/>
     <use style="fill:#ff0000;stroke:#ff0000;" x="279.128984" xlink:href="#mff35e2bf87" y="284.502717"/>
     <use style="fill:#ff0000;stroke:#ff0000;" x="280.08385" xlink:href="#mff35e2bf87" y="284.502717"/>
     <use style="fill:#ff0000;stroke:#ff0000;" x="281.038717" xlink:href="#mff35e2bf87" y="284.502717"/>
     <use style="fill:#ff0000;stroke:#ff0000;" x="281.993583" xlink:href="#mff35e2bf87" y="284.502717"/>
     <use style="fill:#ff0000;stroke:#ff0000;" x="282.948449" xlink:href="#mff35e2bf87" y="284.502717"/>
     <use style="fill:#ff0000;stroke:#ff0000;" x="283.903316" xlink:href="#mff35e2bf87" y="284.502717"/>
     <use style="fill:#ff0000;stroke:#ff0000;" x="284.858182" xlink:href="#mff35e2bf87" y="284.502717"/>
     <use style="fill:#ff0000;stroke:#ff0000;" x="285.813048" xlink:href="#mff35e2bf87" y="284.502717"/>
     <use style="fill:#ff0000;stroke:#ff0000;" x="286.767914" xlink:href="#mff35e2bf87" y="284.502717"/>
     <use style="fill:#ff0000;stroke:#ff0000;" x="287.722781" xlink:href="#mff35e2bf87" y="284.502717"/>
     <use style="fill:#ff0000;stroke:#ff0000;" x="288.677647" xlink:href="#mff35e2bf87" y="284.502717"/>
     <use style="fill:#ff0000;stroke:#ff0000;" x="289.632513" xlink:href="#mff35e2bf87" y="284.502717"/>
     <use style="fill:#ff0000;stroke:#ff0000;" x="290.58738" xlink:href="#mff35e2bf87" y="284.502717"/>
     <use style="fill:#ff0000;stroke:#ff0000;" x="291.542246" xlink:href="#mff35e2bf87" y="284.502717"/>
     <use style="fill:#ff0000;stroke:#ff0000;" x="292.497112" xlink:href="#mff35e2bf87" y="284.502717"/>
     <use style="fill:#ff0000;stroke:#ff0000;" x="293.451979" xlink:href="#mff35e2bf87" y="284.502717"/>
     <use style="fill:#ff0000;stroke:#ff0000;" x="294.406845" xlink:href="#mff35e2bf87" y="284.502717"/>
     <use style="fill:#ff0000;stroke:#ff0000;" x="295.361711" xlink:href="#mff35e2bf87" y="284.502717"/>
     <use style="fill:#ff0000;stroke:#ff0000;" x="296.316578" xlink:href="#mff35e2bf87" y="284.502717"/>
     <use style="fill:#ff0000;stroke:#ff0000;" x="297.271444" xlink:href="#mff35e2bf87" y="284.502717"/>
     <use style="fill:#ff0000;stroke:#ff0000;" x="298.22631" xlink:href="#mff35e2bf87" y="284.502717"/>
     <use style="fill:#ff0000;stroke:#ff0000;" x="299.181176" xlink:href="#mff35e2bf87" y="284.502717"/>
     <use style="fill:#ff0000;stroke:#ff0000;" x="300.136043" xlink:href="#mff35e2bf87" y="284.502717"/>
     <use style="fill:#ff0000;stroke:#ff0000;" x="301.090909" xlink:href="#mff35e2bf87" y="284.502717"/>
     <use style="fill:#ff0000;stroke:#ff0000;" x="302.045775" xlink:href="#mff35e2bf87" y="284.502717"/>
     <use style="fill:#ff0000;stroke:#ff0000;" x="303.000642" xlink:href="#mff35e2bf87" y="284.502717"/>
     <use style="fill:#ff0000;stroke:#ff0000;" x="303.955508" xlink:href="#mff35e2bf87" y="284.502717"/>
     <use style="fill:#ff0000;stroke:#ff0000;" x="304.910374" xlink:href="#mff35e2bf87" y="284.502717"/>
     <use style="fill:#ff0000;stroke:#ff0000;" x="305.865241" xlink:href="#mff35e2bf87" y="284.502717"/>
     <use style="fill:#ff0000;stroke:#ff0000;" x="306.820107" xlink:href="#mff35e2bf87" y="284.502717"/>
     <use style="fill:#ff0000;stroke:#ff0000;" x="307.774973" xlink:href="#mff35e2bf87" y="284.502717"/>
     <use style="fill:#ff0000;stroke:#ff0000;" x="308.72984" xlink:href="#mff35e2bf87" y="284.502717"/>
     <use style="fill:#ff0000;stroke:#ff0000;" x="309.684706" xlink:href="#mff35e2bf87" y="284.502717"/>
     <use style="fill:#ff0000;stroke:#ff0000;" x="310.639572" xlink:href="#mff35e2bf87" y="284.502717"/>
     <use style="fill:#ff0000;stroke:#ff0000;" x="311.594439" xlink:href="#mff35e2bf87" y="284.502717"/>
     <use style="fill:#ff0000;stroke:#ff0000;" x="312.549305" xlink:href="#mff35e2bf87" y="284.502717"/>
     <use style="fill:#ff0000;stroke:#ff0000;" x="313.504171" xlink:href="#mff35e2bf87" y="284.502717"/>
     <use style="fill:#ff0000;stroke:#ff0000;" x="314.459037" xlink:href="#mff35e2bf87" y="284.502717"/>
     <use style="fill:#ff0000;stroke:#ff0000;" x="315.413904" xlink:href="#mff35e2bf87" y="284.502717"/>
     <use style="fill:#ff0000;stroke:#ff0000;" x="316.36877" xlink:href="#mff35e2bf87" y="284.502717"/>
     <use style="fill:#ff0000;stroke:#ff0000;" x="317.323636" xlink:href="#mff35e2bf87" y="284.502717"/>
     <use style="fill:#ff0000;stroke:#ff0000;" x="318.278503" xlink:href="#mff35e2bf87" y="284.502717"/>
     <use style="fill:#ff0000;stroke:#ff0000;" x="319.233369" xlink:href="#mff35e2bf87" y="284.502717"/>
     <use style="fill:#ff0000;stroke:#ff0000;" x="320.188235" xlink:href="#mff35e2bf87" y="284.502717"/>
     <use style="fill:#ff0000;stroke:#ff0000;" x="321.143102" xlink:href="#mff35e2bf87" y="284.502717"/>
     <use style="fill:#ff0000;stroke:#ff0000;" x="322.097968" xlink:href="#mff35e2bf87" y="284.502717"/>
     <use style="fill:#ff0000;stroke:#ff0000;" x="323.052834" xlink:href="#mff35e2bf87" y="284.502717"/>
     <use style="fill:#ff0000;stroke:#ff0000;" x="324.007701" xlink:href="#mff35e2bf87" y="284.502717"/>
     <use style="fill:#ff0000;stroke:#ff0000;" x="324.962567" xlink:href="#mff35e2bf87" y="284.502717"/>
     <use style="fill:#ff0000;stroke:#ff0000;" x="325.917433" xlink:href="#mff35e2bf87" y="284.502717"/>
     <use style="fill:#ff0000;stroke:#ff0000;" x="326.872299" xlink:href="#mff35e2bf87" y="284.502717"/>
     <use style="fill:#ff0000;stroke:#ff0000;" x="327.827166" xlink:href="#mff35e2bf87" y="284.502717"/>
     <use style="fill:#ff0000;stroke:#ff0000;" x="328.782032" xlink:href="#mff35e2bf87" y="284.502717"/>
     <use style="fill:#ff0000;stroke:#ff0000;" x="329.736898" xlink:href="#mff35e2bf87" y="284.502717"/>
     <use style="fill:#ff0000;stroke:#ff0000;" x="330.691765" xlink:href="#mff35e2bf87" y="284.502717"/>
     <use style="fill:#ff0000;stroke:#ff0000;" x="331.646631" xlink:href="#mff35e2bf87" y="284.502717"/>
     <use style="fill:#ff0000;stroke:#ff0000;" x="332.601497" xlink:href="#mff35e2bf87" y="284.502717"/>
     <use style="fill:#ff0000;stroke:#ff0000;" x="333.556364" xlink:href="#mff35e2bf87" y="284.502717"/>
     <use style="fill:#ff0000;stroke:#ff0000;" x="334.51123" xlink:href="#mff35e2bf87" y="284.502717"/>
     <use style="fill:#ff0000;stroke:#ff0000;" x="335.466096" xlink:href="#mff35e2bf87" y="284.502717"/>
     <use style="fill:#ff0000;stroke:#ff0000;" x="336.420963" xlink:href="#mff35e2bf87" y="284.502717"/>
     <use style="fill:#ff0000;stroke:#ff0000;" x="337.375829" xlink:href="#mff35e2bf87" y="284.502717"/>
     <use style="fill:#ff0000;stroke:#ff0000;" x="338.330695" xlink:href="#mff35e2bf87" y="284.502717"/>
     <use style="fill:#ff0000;stroke:#ff0000;" x="339.285561" xlink:href="#mff35e2bf87" y="284.502717"/>
     <use style="fill:#ff0000;stroke:#ff0000;" x="340.240428" xlink:href="#mff35e2bf87" y="284.502717"/>
     <use style="fill:#ff0000;stroke:#ff0000;" x="341.195294" xlink:href="#mff35e2bf87" y="284.502717"/>
     <use style="fill:#ff0000;stroke:#ff0000;" x="342.15016" xlink:href="#mff35e2bf87" y="284.502717"/>
     <use style="fill:#ff0000;stroke:#ff0000;" x="343.105027" xlink:href="#mff35e2bf87" y="284.502717"/>
     <use style="fill:#ff0000;stroke:#ff0000;" x="344.059893" xlink:href="#mff35e2bf87" y="284.502717"/>
     <use style="fill:#ff0000;stroke:#ff0000;" x="345.014759" xlink:href="#mff35e2bf87" y="284.502717"/>
     <use style="fill:#ff0000;stroke:#ff0000;" x="345.969626" xlink:href="#mff35e2bf87" y="284.502717"/>
     <use style="fill:#ff0000;stroke:#ff0000;" x="346.924492" xlink:href="#mff35e2bf87" y="284.502717"/>
     <use style="fill:#ff0000;stroke:#ff0000;" x="347.879358" xlink:href="#mff35e2bf87" y="284.502717"/>
     <use style="fill:#ff0000;stroke:#ff0000;" x="348.834225" xlink:href="#mff35e2bf87" y="284.502717"/>
     <use style="fill:#ff0000;stroke:#ff0000;" x="349.789091" xlink:href="#mff35e2bf87" y="284.502717"/>
     <use style="fill:#ff0000;stroke:#ff0000;" x="350.743957" xlink:href="#mff35e2bf87" y="284.502717"/>
     <use style="fill:#ff0000;stroke:#ff0000;" x="351.698824" xlink:href="#mff35e2bf87" y="284.502717"/>
     <use style="fill:#ff0000;stroke:#ff0000;" x="352.65369" xlink:href="#mff35e2bf87" y="284.502717"/>
     <use style="fill:#ff0000;stroke:#ff0000;" x="353.608556" xlink:href="#mff35e2bf87" y="284.502717"/>
     <use style="fill:#ff0000;stroke:#ff0000;" x="354.563422" xlink:href="#mff35e2bf87" y="284.502717"/>
     <use style="fill:#ff0000;stroke:#ff0000;" x="355.518289" xlink:href="#mff35e2bf87" y="284.502717"/>
     <use style="fill:#ff0000;stroke:#ff0000;" x="356.473155" xlink:href="#mff35e2bf87" y="284.502717"/>
     <use style="fill:#ff0000;stroke:#ff0000;" x="357.428021" xlink:href="#mff35e2bf87" y="284.502717"/>
     <use style="fill:#ff0000;stroke:#ff0000;" x="358.382888" xlink:href="#mff35e2bf87" y="284.502717"/>
     <use style="fill:#ff0000;stroke:#ff0000;" x="359.337754" xlink:href="#mff35e2bf87" y="284.502717"/>
     <use style="fill:#ff0000;stroke:#ff0000;" x="360.29262" xlink:href="#mff35e2bf87" y="284.502717"/>
     <use style="fill:#ff0000;stroke:#ff0000;" x="361.247487" xlink:href="#mff35e2bf87" y="284.502717"/>
     <use style="fill:#ff0000;stroke:#ff0000;" x="362.202353" xlink:href="#mff35e2bf87" y="284.502717"/>
     <use style="fill:#ff0000;stroke:#ff0000;" x="363.157219" xlink:href="#mff35e2bf87" y="284.502717"/>
     <use style="fill:#ff0000;stroke:#ff0000;" x="364.112086" xlink:href="#mff35e2bf87" y="284.502717"/>
     <use style="fill:#ff0000;stroke:#ff0000;" x="365.066952" xlink:href="#mff35e2bf87" y="284.502717"/>
     <use style="fill:#ff0000;stroke:#ff0000;" x="366.021818" xlink:href="#mff35e2bf87" y="284.502717"/>
     <use style="fill:#ff0000;stroke:#ff0000;" x="366.976684" xlink:href="#mff35e2bf87" y="284.502717"/>
     <use style="fill:#ff0000;stroke:#ff0000;" x="367.931551" xlink:href="#mff35e2bf87" y="284.502717"/>
     <use style="fill:#ff0000;stroke:#ff0000;" x="368.886417" xlink:href="#mff35e2bf87" y="284.502717"/>
     <use style="fill:#ff0000;stroke:#ff0000;" x="369.841283" xlink:href="#mff35e2bf87" y="284.502717"/>
     <use style="fill:#ff0000;stroke:#ff0000;" x="370.79615" xlink:href="#mff35e2bf87" y="284.502717"/>
     <use style="fill:#ff0000;stroke:#ff0000;" x="371.751016" xlink:href="#mff35e2bf87" y="284.502717"/>
     <use style="fill:#ff0000;stroke:#ff0000;" x="372.705882" xlink:href="#mff35e2bf87" y="284.502717"/>
     <use style="fill:#ff0000;stroke:#ff0000;" x="373.660749" xlink:href="#mff35e2bf87" y="284.502717"/>
     <use style="fill:#ff0000;stroke:#ff0000;" x="374.615615" xlink:href="#mff35e2bf87" y="284.502717"/>
     <use style="fill:#ff0000;stroke:#ff0000;" x="375.570481" xlink:href="#mff35e2bf87" y="284.502717"/>
     <use style="fill:#ff0000;stroke:#ff0000;" x="376.525348" xlink:href="#mff35e2bf87" y="284.502717"/>
     <use style="fill:#ff0000;stroke:#ff0000;" x="377.480214" xlink:href="#mff35e2bf87" y="284.502717"/>
     <use style="fill:#ff0000;stroke:#ff0000;" x="378.43508" xlink:href="#mff35e2bf87" y="284.502717"/>
     <use style="fill:#ff0000;stroke:#ff0000;" x="379.389947" xlink:href="#mff35e2bf87" y="284.502717"/>
     <use style="fill:#ff0000;stroke:#ff0000;" x="380.344813" xlink:href="#mff35e2bf87" y="284.502717"/>
     <use style="fill:#ff0000;stroke:#ff0000;" x="381.299679" xlink:href="#mff35e2bf87" y="284.502717"/>
     <use style="fill:#ff0000;stroke:#ff0000;" x="382.254545" xlink:href="#mff35e2bf87" y="284.502717"/>
     <use style="fill:#ff0000;stroke:#ff0000;" x="383.209412" xlink:href="#mff35e2bf87" y="284.502717"/>
     <use style="fill:#ff0000;stroke:#ff0000;" x="384.164278" xlink:href="#mff35e2bf87" y="284.502717"/>
     <use style="fill:#ff0000;stroke:#ff0000;" x="385.119144" xlink:href="#mff35e2bf87" y="284.502717"/>
     <use style="fill:#ff0000;stroke:#ff0000;" x="386.074011" xlink:href="#mff35e2bf87" y="284.502717"/>
     <use style="fill:#ff0000;stroke:#ff0000;" x="387.028877" xlink:href="#mff35e2bf87" y="284.502717"/>
     <use style="fill:#ff0000;stroke:#ff0000;" x="387.983743" xlink:href="#mff35e2bf87" y="284.502717"/>
     <use style="fill:#ff0000;stroke:#ff0000;" x="388.93861" xlink:href="#mff35e2bf87" y="284.502717"/>
     <use style="fill:#ff0000;stroke:#ff0000;" x="389.893476" xlink:href="#mff35e2bf87" y="284.502717"/>
     <use style="fill:#ff0000;stroke:#ff0000;" x="390.848342" xlink:href="#mff35e2bf87" y="284.502717"/>
     <use style="fill:#ff0000;stroke:#ff0000;" x="391.803209" xlink:href="#mff35e2bf87" y="284.502717"/>
     <use style="fill:#ff0000;stroke:#ff0000;" x="392.758075" xlink:href="#mff35e2bf87" y="284.502717"/>
     <use style="fill:#ff0000;stroke:#ff0000;" x="393.712941" xlink:href="#mff35e2bf87" y="284.502717"/>
     <use style="fill:#ff0000;stroke:#ff0000;" x="394.667807" xlink:href="#mff35e2bf87" y="284.502717"/>
     <use style="fill:#ff0000;stroke:#ff0000;" x="395.622674" xlink:href="#mff35e2bf87" y="284.502717"/>
     <use style="fill:#ff0000;stroke:#ff0000;" x="396.57754" xlink:href="#mff35e2bf87" y="284.502717"/>
     <use style="fill:#ff0000;stroke:#ff0000;" x="397.532406" xlink:href="#mff35e2bf87" y="284.502717"/>
     <use style="fill:#ff0000;stroke:#ff0000;" x="398.487273" xlink:href="#mff35e2bf87" y="284.502717"/>
    </g>
   </g>
   <g id="patch_3">
    <path d="M 57.6 307.584 
L 57.6 41.472 
" style="fill:none;stroke:#000000;stroke-linecap:square;stroke-linejoin:miter;stroke-width:0.8;"/>
   </g>
   <g id="patch_4">
    <path d="M 414.72 307.584 
L 414.72 41.472 
" style="fill:none;stroke:#000000;stroke-linecap:square;stroke-linejoin:miter;stroke-width:0.8;"/>
   </g>
   <g id="patch_5">
    <path d="M 57.6 307.584 
L 414.72 307.584 
" style="fill:none;stroke:#000000;stroke-linecap:square;stroke-linejoin:miter;stroke-width:0.8;"/>
   </g>
   <g id="patch_6">
    <path d="M 57.6 41.472 
L 414.72 41.472 
" style="fill:none;stroke:#000000;stroke-linecap:square;stroke-linejoin:miter;stroke-width:0.8;"/>
   </g>
  </g>
 </g>
 <defs>
  <clipPath id="pcc9c4742b3">
   <rect height="266.112" width="357.12" x="57.6" y="41.472"/>
  </clipPath>
 </defs>
</svg>
