<?xml version="1.0" encoding="utf-8" standalone="no"?>
<!DOCTYPE svg PUBLIC "-//W3C//DTD SVG 1.1//EN"
  "http://www.w3.org/Graphics/SVG/1.1/DTD/svg11.dtd">
<!-- Created with matplotlib (https://matplotlib.org/) -->
<svg height="345.6pt" version="1.1" viewBox="0 0 460.8 345.6" width="460.8pt" xmlns="http://www.w3.org/2000/svg" xmlns:xlink="http://www.w3.org/1999/xlink">
 <defs>
  <style type="text/css">
*{stroke-linecap:butt;stroke-linejoin:round;}
  </style>
 </defs>
 <g id="figure_1">
  <g id="patch_1">
   <path d="M 0 345.6 
L 460.8 345.6 
L 460.8 0 
L 0 0 
z
" style="fill:#ffffff;"/>
  </g>
  <g id="axes_1">
   <g id="patch_2">
    <path d="M 57.6 307.584 
L 414.72 307.584 
L 414.72 41.472 
L 57.6 41.472 
z
" style="fill:#ffffff;"/>
   </g>
   <g id="line2d_1">
    <path clip-path="url(#pd5172b4c6b)" d="M 73.832727 53.568 
L 75.626399 97.046946 
L 77.42007 97.046946 
L 81.007413 181.391791 
L 86.388428 181.391791 
L 88.182099 170.632922 
L 89.975771 170.632922 
L 91.769442 213.420738 
L 95.356786 213.420738 
L 97.150457 208.398148 
L 98.944129 214.02025 
L 104.325143 214.02025 
L 106.118815 253.68152 
L 107.912486 253.68152 
L 109.706158 207.9292 
L 111.499829 207.9292 
L 113.293501 247.941986 
L 116.880844 247.941986 
L 118.674515 262.614858 
L 120.468187 262.614858 
L 122.261858 260.721476 
L 124.05553 260.721476 
L 125.849201 259.60527 
L 129.436544 259.60527 
L 131.230216 243.125221 
L 133.023887 243.125221 
L 134.817559 226.623985 
L 138.404902 226.623985 
L 140.198574 229.977803 
L 141.992245 228.567357 
L 143.785917 228.567357 
L 145.579588 212.861934 
L 149.166931 212.861934 
L 150.960603 226.068133 
L 152.754274 226.068133 
L 154.547946 211.356723 
L 156.341617 211.356723 
L 158.135289 195.571696 
L 159.92896 195.571696 
L 161.722632 179.925973 
L 163.516303 179.925973 
L 165.309975 194.357566 
L 167.103646 207.757639 
L 168.897318 207.757639 
L 170.690989 192.681106 
L 174.278332 192.681106 
L 176.072004 206.704528 
L 177.865676 206.704528 
L 179.659347 219.763058 
L 181.453019 217.773406 
L 194.008719 217.813698 
L 195.802391 229.457154 
L 201.183405 229.457154 
L 202.977077 231.505103 
L 204.770748 231.505103 
L 206.56442 233.197618 
L 208.358091 233.197618 
L 210.151763 217.362772 
L 215.532777 217.362772 
L 217.326449 229.444249 
L 219.120121 229.082821 
L 224.501135 229.082821 
L 226.294807 230.145617 
L 228.088478 230.145617 
L 229.88215 213.351664 
L 231.675821 213.351664 
L 233.469493 198.231634 
L 235.263164 198.231634 
L 237.056836 210.844272 
L 238.850507 210.844272 
L 240.644179 223.495268 
L 242.43785 223.495268 
L 244.231522 237.624435 
L 246.025193 237.624435 
L 247.818865 250.31401 
L 249.612536 250.31401 
L 251.406208 262.942777 
L 253.199879 262.942777 
L 254.993551 246.407141 
L 256.787223 259.080019 
L 258.580894 259.080019 
L 260.374566 242.899741 
L 262.168237 242.899741 
L 263.961909 227.937563 
L 265.75558 227.937563 
L 267.549252 211.15089 
L 283.692295 211.15089 
L 285.485967 225.509372 
L 287.279638 225.509372 
L 289.07331 210.349713 
L 290.866981 210.349713 
L 292.660653 221.580592 
L 294.454324 221.580592 
L 296.247996 225.009109 
L 298.041668 225.009109 
L 299.835339 222.687462 
L 301.629011 222.687462 
L 303.422682 235.658661 
L 305.216354 235.658661 
L 307.010025 218.577717 
L 308.803697 218.577717 
L 310.597368 230.8544 
L 314.184711 230.8544 
L 315.978383 215.139664 
L 317.772054 215.139664 
L 319.565726 227.855526 
L 321.359397 227.855526 
L 323.153069 211.537699 
L 324.94674 211.537699 
L 326.740412 224.975613 
L 328.534083 224.975613 
L 330.327755 210.03767 
L 332.121426 211.426083 
L 335.708769 211.426083 
L 337.502441 210.501984 
L 339.296113 210.501984 
L 341.089784 223.178046 
L 342.883456 223.178046 
L 344.677127 221.370661 
L 346.470799 221.370661 
L 348.26447 234.652443 
L 350.058142 234.652443 
L 351.851813 235.758883 
L 353.645485 235.758883 
L 355.439156 221.092864 
L 357.232828 221.092864 
L 359.026499 223.466848 
L 360.820171 223.466848 
L 362.613842 237.959252 
L 364.407514 237.959252 
L 366.201185 249.714728 
L 367.994857 262.637088 
L 371.5822 262.637088 
L 373.375871 278.210049 
L 378.756886 278.210049 
L 380.550558 272.459019 
L 382.344229 272.459019 
L 384.137901 284.29645 
L 385.931572 284.29645 
L 387.725244 295.488 
L 389.518915 295.488 
L 391.312587 278.550367 
L 393.106258 278.550367 
L 394.89993 263.108698 
L 396.693601 277.583719 
L 398.487273 277.583719 
L 398.487273 277.583719 
" style="fill:none;stroke:#ff0000;stroke-linecap:square;stroke-width:12;"/>
    <defs>
     <path d="M 0 3 
C 0.795609 3 1.55874 2.683901 2.12132 2.12132 
C 2.683901 1.55874 3 0.795609 3 0 
C 3 -0.795609 2.683901 -1.55874 2.12132 -2.12132 
C 1.55874 -2.683901 0.795609 -3 0 -3 
C -0.795609 -3 -1.55874 -2.683901 -2.12132 -2.12132 
C -2.683901 -1.55874 -3 -0.795609 -3 0 
C -3 0.795609 -2.683901 1.55874 -2.12132 2.12132 
C -1.55874 2.683901 -0.795609 3 0 3 
z
" id="me1a80d53a8" style="stroke:#ff0000;"/>
    </defs>
    <g clip-path="url(#pd5172b4c6b)">
     <use style="fill:#ff0000;stroke:#ff0000;" x="73.832727" xlink:href="#me1a80d53a8" y="53.568"/>
     <use style="fill:#ff0000;stroke:#ff0000;" x="75.626399" xlink:href="#me1a80d53a8" y="97.046946"/>
     <use style="fill:#ff0000;stroke:#ff0000;" x="77.42007" xlink:href="#me1a80d53a8" y="97.046946"/>
     <use style="fill:#ff0000;stroke:#ff0000;" x="79.213742" xlink:href="#me1a80d53a8" y="140.54615"/>
     <use style="fill:#ff0000;stroke:#ff0000;" x="81.007413" xlink:href="#me1a80d53a8" y="181.391791"/>
     <use style="fill:#ff0000;stroke:#ff0000;" x="82.801085" xlink:href="#me1a80d53a8" y="181.391791"/>
     <use style="fill:#ff0000;stroke:#ff0000;" x="84.594756" xlink:href="#me1a80d53a8" y="181.391791"/>
     <use style="fill:#ff0000;stroke:#ff0000;" x="86.388428" xlink:href="#me1a80d53a8" y="181.391791"/>
     <use style="fill:#ff0000;stroke:#ff0000;" x="88.182099" xlink:href="#me1a80d53a8" y="170.632922"/>
     <use style="fill:#ff0000;stroke:#ff0000;" x="89.975771" xlink:href="#me1a80d53a8" y="170.632922"/>
     <use style="fill:#ff0000;stroke:#ff0000;" x="91.769442" xlink:href="#me1a80d53a8" y="213.420738"/>
     <use style="fill:#ff0000;stroke:#ff0000;" x="93.563114" xlink:href="#me1a80d53a8" y="213.420738"/>
     <use style="fill:#ff0000;stroke:#ff0000;" x="95.356786" xlink:href="#me1a80d53a8" y="213.420738"/>
     <use style="fill:#ff0000;stroke:#ff0000;" x="97.150457" xlink:href="#me1a80d53a8" y="208.398148"/>
     <use style="fill:#ff0000;stroke:#ff0000;" x="98.944129" xlink:href="#me1a80d53a8" y="214.02025"/>
     <use style="fill:#ff0000;stroke:#ff0000;" x="100.7378" xlink:href="#me1a80d53a8" y="214.02025"/>
     <use style="fill:#ff0000;stroke:#ff0000;" x="102.531472" xlink:href="#me1a80d53a8" y="214.02025"/>
     <use style="fill:#ff0000;stroke:#ff0000;" x="104.325143" xlink:href="#me1a80d53a8" y="214.02025"/>
     <use style="fill:#ff0000;stroke:#ff0000;" x="106.118815" xlink:href="#me1a80d53a8" y="253.68152"/>
     <use style="fill:#ff0000;stroke:#ff0000;" x="107.912486" xlink:href="#me1a80d53a8" y="253.68152"/>
     <use style="fill:#ff0000;stroke:#ff0000;" x="109.706158" xlink:href="#me1a80d53a8" y="207.9292"/>
     <use style="fill:#ff0000;stroke:#ff0000;" x="111.499829" xlink:href="#me1a80d53a8" y="207.9292"/>
     <use style="fill:#ff0000;stroke:#ff0000;" x="113.293501" xlink:href="#me1a80d53a8" y="247.941986"/>
     <use style="fill:#ff0000;stroke:#ff0000;" x="115.087172" xlink:href="#me1a80d53a8" y="247.941986"/>
     <use style="fill:#ff0000;stroke:#ff0000;" x="116.880844" xlink:href="#me1a80d53a8" y="247.941986"/>
     <use style="fill:#ff0000;stroke:#ff0000;" x="118.674515" xlink:href="#me1a80d53a8" y="262.614858"/>
     <use style="fill:#ff0000;stroke:#ff0000;" x="120.468187" xlink:href="#me1a80d53a8" y="262.614858"/>
     <use style="fill:#ff0000;stroke:#ff0000;" x="122.261858" xlink:href="#me1a80d53a8" y="260.721476"/>
     <use style="fill:#ff0000;stroke:#ff0000;" x="124.05553" xlink:href="#me1a80d53a8" y="260.721476"/>
     <use style="fill:#ff0000;stroke:#ff0000;" x="125.849201" xlink:href="#me1a80d53a8" y="259.60527"/>
     <use style="fill:#ff0000;stroke:#ff0000;" x="127.642873" xlink:href="#me1a80d53a8" y="259.60527"/>
     <use style="fill:#ff0000;stroke:#ff0000;" x="129.436544" xlink:href="#me1a80d53a8" y="259.60527"/>
     <use style="fill:#ff0000;stroke:#ff0000;" x="131.230216" xlink:href="#me1a80d53a8" y="243.125221"/>
     <use style="fill:#ff0000;stroke:#ff0000;" x="133.023887" xlink:href="#me1a80d53a8" y="243.125221"/>
     <use style="fill:#ff0000;stroke:#ff0000;" x="134.817559" xlink:href="#me1a80d53a8" y="226.623985"/>
     <use style="fill:#ff0000;stroke:#ff0000;" x="136.611231" xlink:href="#me1a80d53a8" y="226.623985"/>
     <use style="fill:#ff0000;stroke:#ff0000;" x="138.404902" xlink:href="#me1a80d53a8" y="226.623985"/>
     <use style="fill:#ff0000;stroke:#ff0000;" x="140.198574" xlink:href="#me1a80d53a8" y="229.977803"/>
     <use style="fill:#ff0000;stroke:#ff0000;" x="141.992245" xlink:href="#me1a80d53a8" y="228.567357"/>
     <use style="fill:#ff0000;stroke:#ff0000;" x="143.785917" xlink:href="#me1a80d53a8" y="228.567357"/>
     <use style="fill:#ff0000;stroke:#ff0000;" x="145.579588" xlink:href="#me1a80d53a8" y="212.861934"/>
     <use style="fill:#ff0000;stroke:#ff0000;" x="147.37326" xlink:href="#me1a80d53a8" y="212.861934"/>
     <use style="fill:#ff0000;stroke:#ff0000;" x="149.166931" xlink:href="#me1a80d53a8" y="212.861934"/>
     <use style="fill:#ff0000;stroke:#ff0000;" x="150.960603" xlink:href="#me1a80d53a8" y="226.068133"/>
     <use style="fill:#ff0000;stroke:#ff0000;" x="152.754274" xlink:href="#me1a80d53a8" y="226.068133"/>
     <use style="fill:#ff0000;stroke:#ff0000;" x="154.547946" xlink:href="#me1a80d53a8" y="211.356723"/>
     <use style="fill:#ff0000;stroke:#ff0000;" x="156.341617" xlink:href="#me1a80d53a8" y="211.356723"/>
     <use style="fill:#ff0000;stroke:#ff0000;" x="158.135289" xlink:href="#me1a80d53a8" y="195.571696"/>
     <use style="fill:#ff0000;stroke:#ff0000;" x="159.92896" xlink:href="#me1a80d53a8" y="195.571696"/>
     <use style="fill:#ff0000;stroke:#ff0000;" x="161.722632" xlink:href="#me1a80d53a8" y="179.925973"/>
     <use style="fill:#ff0000;stroke:#ff0000;" x="163.516303" xlink:href="#me1a80d53a8" y="179.925973"/>
     <use style="fill:#ff0000;stroke:#ff0000;" x="165.309975" xlink:href="#me1a80d53a8" y="194.357566"/>
     <use style="fill:#ff0000;stroke:#ff0000;" x="167.103646" xlink:href="#me1a80d53a8" y="207.757639"/>
     <use style="fill:#ff0000;stroke:#ff0000;" x="168.897318" xlink:href="#me1a80d53a8" y="207.757639"/>
     <use style="fill:#ff0000;stroke:#ff0000;" x="170.690989" xlink:href="#me1a80d53a8" y="192.681106"/>
     <use style="fill:#ff0000;stroke:#ff0000;" x="172.484661" xlink:href="#me1a80d53a8" y="192.681106"/>
     <use style="fill:#ff0000;stroke:#ff0000;" x="174.278332" xlink:href="#me1a80d53a8" y="192.681106"/>
     <use style="fill:#ff0000;stroke:#ff0000;" x="176.072004" xlink:href="#me1a80d53a8" y="206.704528"/>
     <use style="fill:#ff0000;stroke:#ff0000;" x="177.865676" xlink:href="#me1a80d53a8" y="206.704528"/>
     <use style="fill:#ff0000;stroke:#ff0000;" x="179.659347" xlink:href="#me1a80d53a8" y="219.763058"/>
     <use style="fill:#ff0000;stroke:#ff0000;" x="181.453019" xlink:href="#me1a80d53a8" y="217.773406"/>
     <use style="fill:#ff0000;stroke:#ff0000;" x="183.24669" xlink:href="#me1a80d53a8" y="217.773406"/>
     <use style="fill:#ff0000;stroke:#ff0000;" x="185.040362" xlink:href="#me1a80d53a8" y="217.773406"/>
     <use style="fill:#ff0000;stroke:#ff0000;" x="186.834033" xlink:href="#me1a80d53a8" y="217.773406"/>
     <use style="fill:#ff0000;stroke:#ff0000;" x="188.627705" xlink:href="#me1a80d53a8" y="217.773406"/>
     <use style="fill:#ff0000;stroke:#ff0000;" x="190.421376" xlink:href="#me1a80d53a8" y="217.773406"/>
     <use style="fill:#ff0000;stroke:#ff0000;" x="192.215048" xlink:href="#me1a80d53a8" y="217.813698"/>
     <use style="fill:#ff0000;stroke:#ff0000;" x="194.008719" xlink:href="#me1a80d53a8" y="217.813698"/>
     <use style="fill:#ff0000;stroke:#ff0000;" x="195.802391" xlink:href="#me1a80d53a8" y="229.457154"/>
     <use style="fill:#ff0000;stroke:#ff0000;" x="197.596062" xlink:href="#me1a80d53a8" y="229.457154"/>
     <use style="fill:#ff0000;stroke:#ff0000;" x="199.389734" xlink:href="#me1a80d53a8" y="229.457154"/>
     <use style="fill:#ff0000;stroke:#ff0000;" x="201.183405" xlink:href="#me1a80d53a8" y="229.457154"/>
     <use style="fill:#ff0000;stroke:#ff0000;" x="202.977077" xlink:href="#me1a80d53a8" y="231.505103"/>
     <use style="fill:#ff0000;stroke:#ff0000;" x="204.770748" xlink:href="#me1a80d53a8" y="231.505103"/>
     <use style="fill:#ff0000;stroke:#ff0000;" x="206.56442" xlink:href="#me1a80d53a8" y="233.197618"/>
     <use style="fill:#ff0000;stroke:#ff0000;" x="208.358091" xlink:href="#me1a80d53a8" y="233.197618"/>
     <use style="fill:#ff0000;stroke:#ff0000;" x="210.151763" xlink:href="#me1a80d53a8" y="217.362772"/>
     <use style="fill:#ff0000;stroke:#ff0000;" x="211.945434" xlink:href="#me1a80d53a8" y="217.362772"/>
     <use style="fill:#ff0000;stroke:#ff0000;" x="213.739106" xlink:href="#me1a80d53a8" y="217.362772"/>
     <use style="fill:#ff0000;stroke:#ff0000;" x="215.532777" xlink:href="#me1a80d53a8" y="217.362772"/>
     <use style="fill:#ff0000;stroke:#ff0000;" x="217.326449" xlink:href="#me1a80d53a8" y="229.444249"/>
     <use style="fill:#ff0000;stroke:#ff0000;" x="219.120121" xlink:href="#me1a80d53a8" y="229.082821"/>
     <use style="fill:#ff0000;stroke:#ff0000;" x="220.913792" xlink:href="#me1a80d53a8" y="229.082821"/>
     <use style="fill:#ff0000;stroke:#ff0000;" x="222.707464" xlink:href="#me1a80d53a8" y="229.082821"/>
     <use style="fill:#ff0000;stroke:#ff0000;" x="224.501135" xlink:href="#me1a80d53a8" y="229.082821"/>
     <use style="fill:#ff0000;stroke:#ff0000;" x="226.294807" xlink:href="#me1a80d53a8" y="230.145617"/>
     <use style="fill:#ff0000;stroke:#ff0000;" x="228.088478" xlink:href="#me1a80d53a8" y="230.145617"/>
     <use style="fill:#ff0000;stroke:#ff0000;" x="229.88215" xlink:href="#me1a80d53a8" y="213.351664"/>
     <use style="fill:#ff0000;stroke:#ff0000;" x="231.675821" xlink:href="#me1a80d53a8" y="213.351664"/>
     <use style="fill:#ff0000;stroke:#ff0000;" x="233.469493" xlink:href="#me1a80d53a8" y="198.231634"/>
     <use style="fill:#ff0000;stroke:#ff0000;" x="235.263164" xlink:href="#me1a80d53a8" y="198.231634"/>
     <use style="fill:#ff0000;stroke:#ff0000;" x="237.056836" xlink:href="#me1a80d53a8" y="210.844272"/>
     <use style="fill:#ff0000;stroke:#ff0000;" x="238.850507" xlink:href="#me1a80d53a8" y="210.844272"/>
     <use style="fill:#ff0000;stroke:#ff0000;" x="240.644179" xlink:href="#me1a80d53a8" y="223.495268"/>
     <use style="fill:#ff0000;stroke:#ff0000;" x="242.43785" xlink:href="#me1a80d53a8" y="223.495268"/>
     <use style="fill:#ff0000;stroke:#ff0000;" x="244.231522" xlink:href="#me1a80d53a8" y="237.624435"/>
     <use style="fill:#ff0000;stroke:#ff0000;" x="246.025193" xlink:href="#me1a80d53a8" y="237.624435"/>
     <use style="fill:#ff0000;stroke:#ff0000;" x="247.818865" xlink:href="#me1a80d53a8" y="250.31401"/>
     <use style="fill:#ff0000;stroke:#ff0000;" x="249.612536" xlink:href="#me1a80d53a8" y="250.31401"/>
     <use style="fill:#ff0000;stroke:#ff0000;" x="251.406208" xlink:href="#me1a80d53a8" y="262.942777"/>
     <use style="fill:#ff0000;stroke:#ff0000;" x="253.199879" xlink:href="#me1a80d53a8" y="262.942777"/>
     <use style="fill:#ff0000;stroke:#ff0000;" x="254.993551" xlink:href="#me1a80d53a8" y="246.407141"/>
     <use style="fill:#ff0000;stroke:#ff0000;" x="256.787223" xlink:href="#me1a80d53a8" y="259.080019"/>
     <use style="fill:#ff0000;stroke:#ff0000;" x="258.580894" xlink:href="#me1a80d53a8" y="259.080019"/>
     <use style="fill:#ff0000;stroke:#ff0000;" x="260.374566" xlink:href="#me1a80d53a8" y="242.899741"/>
     <use style="fill:#ff0000;stroke:#ff0000;" x="262.168237" xlink:href="#me1a80d53a8" y="242.899741"/>
     <use style="fill:#ff0000;stroke:#ff0000;" x="263.961909" xlink:href="#me1a80d53a8" y="227.937563"/>
     <use style="fill:#ff0000;stroke:#ff0000;" x="265.75558" xlink:href="#me1a80d53a8" y="227.937563"/>
     <use style="fill:#ff0000;stroke:#ff0000;" x="267.549252" xlink:href="#me1a80d53a8" y="211.15089"/>
     <use style="fill:#ff0000;stroke:#ff0000;" x="269.342923" xlink:href="#me1a80d53a8" y="211.15089"/>
     <use style="fill:#ff0000;stroke:#ff0000;" x="271.136595" xlink:href="#me1a80d53a8" y="211.15089"/>
     <use style="fill:#ff0000;stroke:#ff0000;" x="272.930266" xlink:href="#me1a80d53a8" y="211.15089"/>
     <use style="fill:#ff0000;stroke:#ff0000;" x="274.723938" xlink:href="#me1a80d53a8" y="211.15089"/>
     <use style="fill:#ff0000;stroke:#ff0000;" x="276.517609" xlink:href="#me1a80d53a8" y="211.15089"/>
     <use style="fill:#ff0000;stroke:#ff0000;" x="278.311281" xlink:href="#me1a80d53a8" y="211.15089"/>
     <use style="fill:#ff0000;stroke:#ff0000;" x="280.104952" xlink:href="#me1a80d53a8" y="211.15089"/>
     <use style="fill:#ff0000;stroke:#ff0000;" x="281.898624" xlink:href="#me1a80d53a8" y="211.15089"/>
     <use style="fill:#ff0000;stroke:#ff0000;" x="283.692295" xlink:href="#me1a80d53a8" y="211.15089"/>
     <use style="fill:#ff0000;stroke:#ff0000;" x="285.485967" xlink:href="#me1a80d53a8" y="225.509372"/>
     <use style="fill:#ff0000;stroke:#ff0000;" x="287.279638" xlink:href="#me1a80d53a8" y="225.509372"/>
     <use style="fill:#ff0000;stroke:#ff0000;" x="289.07331" xlink:href="#me1a80d53a8" y="210.349713"/>
     <use style="fill:#ff0000;stroke:#ff0000;" x="290.866981" xlink:href="#me1a80d53a8" y="210.349713"/>
     <use style="fill:#ff0000;stroke:#ff0000;" x="292.660653" xlink:href="#me1a80d53a8" y="221.580592"/>
     <use style="fill:#ff0000;stroke:#ff0000;" x="294.454324" xlink:href="#me1a80d53a8" y="221.580592"/>
     <use style="fill:#ff0000;stroke:#ff0000;" x="296.247996" xlink:href="#me1a80d53a8" y="225.009109"/>
     <use style="fill:#ff0000;stroke:#ff0000;" x="298.041668" xlink:href="#me1a80d53a8" y="225.009109"/>
     <use style="fill:#ff0000;stroke:#ff0000;" x="299.835339" xlink:href="#me1a80d53a8" y="222.687462"/>
     <use style="fill:#ff0000;stroke:#ff0000;" x="301.629011" xlink:href="#me1a80d53a8" y="222.687462"/>
     <use style="fill:#ff0000;stroke:#ff0000;" x="303.422682" xlink:href="#me1a80d53a8" y="235.658661"/>
     <use style="fill:#ff0000;stroke:#ff0000;" x="305.216354" xlink:href="#me1a80d53a8" y="235.658661"/>
     <use style="fill:#ff0000;stroke:#ff0000;" x="307.010025" xlink:href="#me1a80d53a8" y="218.577717"/>
     <use style="fill:#ff0000;stroke:#ff0000;" x="308.803697" xlink:href="#me1a80d53a8" y="218.577717"/>
     <use style="fill:#ff0000;stroke:#ff0000;" x="310.597368" xlink:href="#me1a80d53a8" y="230.8544"/>
     <use style="fill:#ff0000;stroke:#ff0000;" x="312.39104" xlink:href="#me1a80d53a8" y="230.8544"/>
     <use style="fill:#ff0000;stroke:#ff0000;" x="314.184711" xlink:href="#me1a80d53a8" y="230.8544"/>
     <use style="fill:#ff0000;stroke:#ff0000;" x="315.978383" xlink:href="#me1a80d53a8" y="215.139664"/>
     <use style="fill:#ff0000;stroke:#ff0000;" x="317.772054" xlink:href="#me1a80d53a8" y="215.139664"/>
     <use style="fill:#ff0000;stroke:#ff0000;" x="319.565726" xlink:href="#me1a80d53a8" y="227.855526"/>
     <use style="fill:#ff0000;stroke:#ff0000;" x="321.359397" xlink:href="#me1a80d53a8" y="227.855526"/>
     <use style="fill:#ff0000;stroke:#ff0000;" x="323.153069" xlink:href="#me1a80d53a8" y="211.537699"/>
     <use style="fill:#ff0000;stroke:#ff0000;" x="324.94674" xlink:href="#me1a80d53a8" y="211.537699"/>
     <use style="fill:#ff0000;stroke:#ff0000;" x="326.740412" xlink:href="#me1a80d53a8" y="224.975613"/>
     <use style="fill:#ff0000;stroke:#ff0000;" x="328.534083" xlink:href="#me1a80d53a8" y="224.975613"/>
     <use style="fill:#ff0000;stroke:#ff0000;" x="330.327755" xlink:href="#me1a80d53a8" y="210.03767"/>
     <use style="fill:#ff0000;stroke:#ff0000;" x="332.121426" xlink:href="#me1a80d53a8" y="211.426083"/>
     <use style="fill:#ff0000;stroke:#ff0000;" x="333.915098" xlink:href="#me1a80d53a8" y="211.426083"/>
     <use style="fill:#ff0000;stroke:#ff0000;" x="335.708769" xlink:href="#me1a80d53a8" y="211.426083"/>
     <use style="fill:#ff0000;stroke:#ff0000;" x="337.502441" xlink:href="#me1a80d53a8" y="210.501984"/>
     <use style="fill:#ff0000;stroke:#ff0000;" x="339.296113" xlink:href="#me1a80d53a8" y="210.501984"/>
     <use style="fill:#ff0000;stroke:#ff0000;" x="341.089784" xlink:href="#me1a80d53a8" y="223.178046"/>
     <use style="fill:#ff0000;stroke:#ff0000;" x="342.883456" xlink:href="#me1a80d53a8" y="223.178046"/>
     <use style="fill:#ff0000;stroke:#ff0000;" x="344.677127" xlink:href="#me1a80d53a8" y="221.370661"/>
     <use style="fill:#ff0000;stroke:#ff0000;" x="346.470799" xlink:href="#me1a80d53a8" y="221.370661"/>
     <use style="fill:#ff0000;stroke:#ff0000;" x="348.26447" xlink:href="#me1a80d53a8" y="234.652443"/>
     <use style="fill:#ff0000;stroke:#ff0000;" x="350.058142" xlink:href="#me1a80d53a8" y="234.652443"/>
     <use style="fill:#ff0000;stroke:#ff0000;" x="351.851813" xlink:href="#me1a80d53a8" y="235.758883"/>
     <use style="fill:#ff0000;stroke:#ff0000;" x="353.645485" xlink:href="#me1a80d53a8" y="235.758883"/>
     <use style="fill:#ff0000;stroke:#ff0000;" x="355.439156" xlink:href="#me1a80d53a8" y="221.092864"/>
     <use style="fill:#ff0000;stroke:#ff0000;" x="357.232828" xlink:href="#me1a80d53a8" y="221.092864"/>
     <use style="fill:#ff0000;stroke:#ff0000;" x="359.026499" xlink:href="#me1a80d53a8" y="223.466848"/>
     <use style="fill:#ff0000;stroke:#ff0000;" x="360.820171" xlink:href="#me1a80d53a8" y="223.466848"/>
     <use style="fill:#ff0000;stroke:#ff0000;" x="362.613842" xlink:href="#me1a80d53a8" y="237.959252"/>
     <use style="fill:#ff0000;stroke:#ff0000;" x="364.407514" xlink:href="#me1a80d53a8" y="237.959252"/>
     <use style="fill:#ff0000;stroke:#ff0000;" x="366.201185" xlink:href="#me1a80d53a8" y="249.714728"/>
     <use style="fill:#ff0000;stroke:#ff0000;" x="367.994857" xlink:href="#me1a80d53a8" y="262.637088"/>
     <use style="fill:#ff0000;stroke:#ff0000;" x="369.788528" xlink:href="#me1a80d53a8" y="262.637088"/>
     <use style="fill:#ff0000;stroke:#ff0000;" x="371.5822" xlink:href="#me1a80d53a8" y="262.637088"/>
     <use style="fill:#ff0000;stroke:#ff0000;" x="373.375871" xlink:href="#me1a80d53a8" y="278.210049"/>
     <use style="fill:#ff0000;stroke:#ff0000;" x="375.169543" xlink:href="#me1a80d53a8" y="278.210049"/>
     <use style="fill:#ff0000;stroke:#ff0000;" x="376.963214" xlink:href="#me1a80d53a8" y="278.210049"/>
     <use style="fill:#ff0000;stroke:#ff0000;" x="378.756886" xlink:href="#me1a80d53a8" y="278.210049"/>
     <use style="fill:#ff0000;stroke:#ff0000;" x="380.550558" xlink:href="#me1a80d53a8" y="272.459019"/>
     <use style="fill:#ff0000;stroke:#ff0000;" x="382.344229" xlink:href="#me1a80d53a8" y="272.459019"/>
     <use style="fill:#ff0000;stroke:#ff0000;" x="384.137901" xlink:href="#me1a80d53a8" y="284.29645"/>
     <use style="fill:#ff0000;stroke:#ff0000;" x="385.931572" xlink:href="#me1a80d53a8" y="284.29645"/>
     <use style="fill:#ff0000;stroke:#ff0000;" x="387.725244" xlink:href="#me1a80d53a8" y="295.488"/>
     <use style="fill:#ff0000;stroke:#ff0000;" x="389.518915" xlink:href="#me1a80d53a8" y="295.488"/>
     <use style="fill:#ff0000;stroke:#ff0000;" x="391.312587" xlink:href="#me1a80d53a8" y="278.550367"/>
     <use style="fill:#ff0000;stroke:#ff0000;" x="393.106258" xlink:href="#me1a80d53a8" y="278.550367"/>
     <use style="fill:#ff0000;stroke:#ff0000;" x="394.89993" xlink:href="#me1a80d53a8" y="263.108698"/>
     <use style="fill:#ff0000;stroke:#ff0000;" x="396.693601" xlink:href="#me1a80d53a8" y="277.583719"/>
     <use style="fill:#ff0000;stroke:#ff0000;" x="398.487273" xlink:href="#me1a80d53a8" y="277.583719"/>
    </g>
   </g>
   <g id="patch_3">
    <path d="M 57.6 307.584 
L 57.6 41.472 
" style="fill:none;stroke:#000000;stroke-linecap:square;stroke-linejoin:miter;stroke-width:0.8;"/>
   </g>
   <g id="patch_4">
    <path d="M 414.72 307.584 
L 414.72 41.472 
" style="fill:none;stroke:#000000;stroke-linecap:square;stroke-linejoin:miter;stroke-width:0.8;"/>
   </g>
   <g id="patch_5">
    <path d="M 57.6 307.584 
L 414.72 307.584 
" style="fill:none;stroke:#000000;stroke-linecap:square;stroke-linejoin:miter;stroke-width:0.8;"/>
   </g>
   <g id="patch_6">
    <path d="M 57.6 41.472 
L 414.72 41.472 
" style="fill:none;stroke:#000000;stroke-linecap:square;stroke-linejoin:miter;stroke-width:0.8;"/>
   </g>
  </g>
 </g>
 <defs>
  <clipPath id="pd5172b4c6b">
   <rect height="266.112" width="357.12" x="57.6" y="41.472"/>
  </clipPath>
 </defs>
</svg>
