<?xml version="1.0" encoding="utf-8" standalone="no"?>
<!DOCTYPE svg PUBLIC "-//W3C//DTD SVG 1.1//EN"
  "http://www.w3.org/Graphics/SVG/1.1/DTD/svg11.dtd">
<!-- Created with matplotlib (https://matplotlib.org/) -->
<svg height="345.6pt" version="1.1" viewBox="0 0 460.8 345.6" width="460.8pt" xmlns="http://www.w3.org/2000/svg" xmlns:xlink="http://www.w3.org/1999/xlink">
 <defs>
  <style type="text/css">
*{stroke-linecap:butt;stroke-linejoin:round;}
  </style>
 </defs>
 <g id="figure_1">
  <g id="patch_1">
   <path d="M 0 345.6 
L 460.8 345.6 
L 460.8 0 
L 0 0 
z
" style="fill:#ffffff;"/>
  </g>
  <g id="axes_1">
   <g id="patch_2">
    <path d="M 57.6 307.584 
L 414.72 307.584 
L 414.72 41.472 
L 57.6 41.472 
z
" style="fill:#ffffff;"/>
   </g>
   <g id="line2d_1">
    <path clip-path="url(#pdb18a3fa1d)" d="M 73.832727 53.568 
L 82.376268 103.88412 
L 90.919809 103.88412 
L 99.463349 154.223682 
L 108.00689 201.492402 
L 116.550431 201.492402 
L 125.093971 201.492402 
L 133.637512 201.492402 
L 142.181053 189.041674 
L 150.724593 189.041674 
L 159.268134 238.557982 
L 167.811675 238.557982 
L 176.355215 238.557982 
L 184.898756 232.745576 
L 193.442297 239.251768 
L 201.985837 239.251768 
L 210.529378 239.251768 
L 219.072919 239.251768 
L 227.616459 285.149872 
L 236.16 285.149872 
L 244.703541 232.202885 
L 253.247081 232.202885 
L 261.790622 278.507783 
L 270.334163 278.507783 
L 278.877703 278.507783 
L 287.421244 295.488 
L 295.964785 295.488 
L 304.508325 293.296878 
L 313.051866 293.296878 
L 321.595407 292.005147 
L 330.138947 292.005147 
L 338.682488 292.005147 
L 347.226029 272.933569 
L 355.769569 272.933569 
L 364.31311 253.837472 
L 372.856651 253.837472 
L 381.400191 253.837472 
L 389.943732 257.718687 
L 398.487273 257.718687 
" style="fill:none;stroke:#ff0000;stroke-linecap:square;stroke-width:12;"/>
    <defs>
     <path d="M 0 3 
C 0.795609 3 1.55874 2.683901 2.12132 2.12132 
C 2.683901 1.55874 3 0.795609 3 0 
C 3 -0.795609 2.683901 -1.55874 2.12132 -2.12132 
C 1.55874 -2.683901 0.795609 -3 0 -3 
C -0.795609 -3 -1.55874 -2.683901 -2.12132 -2.12132 
C -2.683901 -1.55874 -3 -0.795609 -3 0 
C -3 0.795609 -2.683901 1.55874 -2.12132 2.12132 
C -1.55874 2.683901 -0.795609 3 0 3 
z
" id="md44d510e13" style="stroke:#ff0000;"/>
    </defs>
    <g clip-path="url(#pdb18a3fa1d)">
     <use style="fill:#ff0000;stroke:#ff0000;" x="73.832727" xlink:href="#md44d510e13" y="53.568"/>
     <use style="fill:#ff0000;stroke:#ff0000;" x="82.376268" xlink:href="#md44d510e13" y="103.88412"/>
     <use style="fill:#ff0000;stroke:#ff0000;" x="90.919809" xlink:href="#md44d510e13" y="103.88412"/>
     <use style="fill:#ff0000;stroke:#ff0000;" x="99.463349" xlink:href="#md44d510e13" y="154.223682"/>
     <use style="fill:#ff0000;stroke:#ff0000;" x="108.00689" xlink:href="#md44d510e13" y="201.492402"/>
     <use style="fill:#ff0000;stroke:#ff0000;" x="116.550431" xlink:href="#md44d510e13" y="201.492402"/>
     <use style="fill:#ff0000;stroke:#ff0000;" x="125.093971" xlink:href="#md44d510e13" y="201.492402"/>
     <use style="fill:#ff0000;stroke:#ff0000;" x="133.637512" xlink:href="#md44d510e13" y="201.492402"/>
     <use style="fill:#ff0000;stroke:#ff0000;" x="142.181053" xlink:href="#md44d510e13" y="189.041674"/>
     <use style="fill:#ff0000;stroke:#ff0000;" x="150.724593" xlink:href="#md44d510e13" y="189.041674"/>
     <use style="fill:#ff0000;stroke:#ff0000;" x="159.268134" xlink:href="#md44d510e13" y="238.557982"/>
     <use style="fill:#ff0000;stroke:#ff0000;" x="167.811675" xlink:href="#md44d510e13" y="238.557982"/>
     <use style="fill:#ff0000;stroke:#ff0000;" x="176.355215" xlink:href="#md44d510e13" y="238.557982"/>
     <use style="fill:#ff0000;stroke:#ff0000;" x="184.898756" xlink:href="#md44d510e13" y="232.745576"/>
     <use style="fill:#ff0000;stroke:#ff0000;" x="193.442297" xlink:href="#md44d510e13" y="239.251768"/>
     <use style="fill:#ff0000;stroke:#ff0000;" x="201.985837" xlink:href="#md44d510e13" y="239.251768"/>
     <use style="fill:#ff0000;stroke:#ff0000;" x="210.529378" xlink:href="#md44d510e13" y="239.251768"/>
     <use style="fill:#ff0000;stroke:#ff0000;" x="219.072919" xlink:href="#md44d510e13" y="239.251768"/>
     <use style="fill:#ff0000;stroke:#ff0000;" x="227.616459" xlink:href="#md44d510e13" y="285.149872"/>
     <use style="fill:#ff0000;stroke:#ff0000;" x="236.16" xlink:href="#md44d510e13" y="285.149872"/>
     <use style="fill:#ff0000;stroke:#ff0000;" x="244.703541" xlink:href="#md44d510e13" y="232.202885"/>
     <use style="fill:#ff0000;stroke:#ff0000;" x="253.247081" xlink:href="#md44d510e13" y="232.202885"/>
     <use style="fill:#ff0000;stroke:#ff0000;" x="261.790622" xlink:href="#md44d510e13" y="278.507783"/>
     <use style="fill:#ff0000;stroke:#ff0000;" x="270.334163" xlink:href="#md44d510e13" y="278.507783"/>
     <use style="fill:#ff0000;stroke:#ff0000;" x="278.877703" xlink:href="#md44d510e13" y="278.507783"/>
     <use style="fill:#ff0000;stroke:#ff0000;" x="287.421244" xlink:href="#md44d510e13" y="295.488"/>
     <use style="fill:#ff0000;stroke:#ff0000;" x="295.964785" xlink:href="#md44d510e13" y="295.488"/>
     <use style="fill:#ff0000;stroke:#ff0000;" x="304.508325" xlink:href="#md44d510e13" y="293.296878"/>
     <use style="fill:#ff0000;stroke:#ff0000;" x="313.051866" xlink:href="#md44d510e13" y="293.296878"/>
     <use style="fill:#ff0000;stroke:#ff0000;" x="321.595407" xlink:href="#md44d510e13" y="292.005147"/>
     <use style="fill:#ff0000;stroke:#ff0000;" x="330.138947" xlink:href="#md44d510e13" y="292.005147"/>
     <use style="fill:#ff0000;stroke:#ff0000;" x="338.682488" xlink:href="#md44d510e13" y="292.005147"/>
     <use style="fill:#ff0000;stroke:#ff0000;" x="347.226029" xlink:href="#md44d510e13" y="272.933569"/>
     <use style="fill:#ff0000;stroke:#ff0000;" x="355.769569" xlink:href="#md44d510e13" y="272.933569"/>
     <use style="fill:#ff0000;stroke:#ff0000;" x="364.31311" xlink:href="#md44d510e13" y="253.837472"/>
     <use style="fill:#ff0000;stroke:#ff0000;" x="372.856651" xlink:href="#md44d510e13" y="253.837472"/>
     <use style="fill:#ff0000;stroke:#ff0000;" x="381.400191" xlink:href="#md44d510e13" y="253.837472"/>
     <use style="fill:#ff0000;stroke:#ff0000;" x="389.943732" xlink:href="#md44d510e13" y="257.718687"/>
     <use style="fill:#ff0000;stroke:#ff0000;" x="398.487273" xlink:href="#md44d510e13" y="257.718687"/>
    </g>
   </g>
   <g id="patch_3">
    <path d="M 57.6 307.584 
L 57.6 41.472 
" style="fill:none;stroke:#000000;stroke-linecap:square;stroke-linejoin:miter;stroke-width:0.8;"/>
   </g>
   <g id="patch_4">
    <path d="M 414.72 307.584 
L 414.72 41.472 
" style="fill:none;stroke:#000000;stroke-linecap:square;stroke-linejoin:miter;stroke-width:0.8;"/>
   </g>
   <g id="patch_5">
    <path d="M 57.6 307.584 
L 414.72 307.584 
" style="fill:none;stroke:#000000;stroke-linecap:square;stroke-linejoin:miter;stroke-width:0.8;"/>
   </g>
   <g id="patch_6">
    <path d="M 57.6 41.472 
L 414.72 41.472 
" style="fill:none;stroke:#000000;stroke-linecap:square;stroke-linejoin:miter;stroke-width:0.8;"/>
   </g>
  </g>
 </g>
 <defs>
  <clipPath id="pdb18a3fa1d">
   <rect height="266.112" width="357.12" x="57.6" y="41.472"/>
  </clipPath>
 </defs>
</svg>
