<?xml version="1.0" encoding="utf-8" standalone="no"?>
<!DOCTYPE svg PUBLIC "-//W3C//DTD SVG 1.1//EN"
  "http://www.w3.org/Graphics/SVG/1.1/DTD/svg11.dtd">
<!-- Created with matplotlib (https://matplotlib.org/) -->
<svg height="345.6pt" version="1.1" viewBox="0 0 460.8 345.6" width="460.8pt" xmlns="http://www.w3.org/2000/svg" xmlns:xlink="http://www.w3.org/1999/xlink">
 <defs>
  <style type="text/css">
*{stroke-linecap:butt;stroke-linejoin:round;}
  </style>
 </defs>
 <g id="figure_1">
  <g id="patch_1">
   <path d="M 0 345.6 
L 460.8 345.6 
L 460.8 0 
L 0 0 
z
" style="fill:#ffffff;"/>
  </g>
  <g id="axes_1">
   <g id="patch_2">
    <path d="M 57.6 307.584 
L 414.72 307.584 
L 414.72 41.472 
L 57.6 41.472 
z
" style="fill:#ffffff;"/>
   </g>
   <g id="line2d_1">
    <path clip-path="url(#pd73d5140d9)" d="M 73.832727 53.568 
L 74.755041 97.046946 
L 75.677355 97.046946 
L 77.521983 181.391791 
L 80.288926 181.391791 
L 81.21124 170.632922 
L 82.133554 170.632922 
L 83.055868 213.420738 
L 84.900496 213.420738 
L 85.82281 208.398148 
L 86.745124 214.02025 
L 89.512066 214.02025 
L 90.43438 253.68152 
L 91.356694 253.68152 
L 92.279008 207.9292 
L 93.201322 207.9292 
L 94.123636 247.941986 
L 95.968264 247.941986 
L 96.890579 262.614858 
L 97.812893 262.614858 
L 98.735207 260.721476 
L 99.657521 260.721476 
L 100.579835 259.60527 
L 102.424463 259.60527 
L 103.346777 243.125221 
L 104.269091 243.125221 
L 105.191405 226.623985 
L 107.036033 226.623985 
L 107.958347 229.977803 
L 108.880661 228.567357 
L 109.802975 228.567357 
L 110.725289 212.861934 
L 112.569917 212.861934 
L 113.492231 226.068133 
L 114.414545 226.068133 
L 115.33686 211.356723 
L 116.259174 211.356723 
L 117.181488 195.571696 
L 118.103802 195.571696 
L 119.026116 179.925973 
L 119.94843 179.925973 
L 121.793058 207.757639 
L 122.715372 207.757639 
L 123.637686 192.681106 
L 125.482314 192.681106 
L 126.404628 206.704528 
L 127.326942 206.704528 
L 128.249256 219.763058 
L 129.17157 217.773406 
L 135.627769 217.813698 
L 136.550083 229.457154 
L 139.317025 229.457154 
L 140.239339 231.505103 
L 141.161653 231.505103 
L 142.083967 233.197618 
L 143.006281 233.197618 
L 143.928595 217.362772 
L 146.695537 217.362772 
L 147.617851 229.444249 
L 148.540165 229.082821 
L 151.307107 229.082821 
L 152.229421 230.145617 
L 153.151736 230.145617 
L 154.07405 213.351664 
L 154.996364 213.351664 
L 155.918678 198.231634 
L 156.840992 198.231634 
L 157.763306 210.844272 
L 158.68562 210.844272 
L 159.607934 223.495268 
L 160.530248 223.495268 
L 161.452562 237.624435 
L 162.374876 237.624435 
L 163.29719 250.31401 
L 164.219504 250.31401 
L 165.141818 262.942777 
L 166.064132 262.942777 
L 166.986446 246.407141 
L 167.90876 259.080019 
L 168.831074 259.080019 
L 169.753388 242.899741 
L 170.675702 242.899741 
L 171.598017 227.937563 
L 172.520331 227.937563 
L 173.442645 211.15089 
L 181.743471 211.15089 
L 182.665785 225.509372 
L 183.588099 225.509372 
L 184.510413 210.349713 
L 185.432727 210.349713 
L 186.355041 221.580592 
L 187.277355 221.580592 
L 188.199669 225.009109 
L 189.121983 225.009109 
L 190.044298 222.687462 
L 190.966612 222.687462 
L 191.888926 235.658661 
L 192.81124 235.658661 
L 193.733554 218.577717 
L 194.655868 218.577717 
L 195.578182 230.8544 
L 197.42281 230.8544 
L 198.345124 215.139664 
L 199.267438 215.139664 
L 200.189752 227.855526 
L 201.112066 227.855526 
L 202.03438 211.537699 
L 202.956694 211.537699 
L 203.879008 224.975613 
L 204.801322 224.975613 
L 205.723636 210.03767 
L 206.64595 211.426083 
L 208.490579 211.426083 
L 209.412893 210.501984 
L 210.335207 210.501984 
L 211.257521 223.178046 
L 212.179835 223.178046 
L 213.102149 221.370661 
L 214.024463 221.370661 
L 214.946777 234.652443 
L 215.869091 234.652443 
L 216.791405 235.758883 
L 217.713719 235.758883 
L 218.636033 221.092864 
L 219.558347 221.092864 
L 220.480661 223.466848 
L 221.402975 223.466848 
L 222.325289 237.959252 
L 223.247603 237.959252 
L 225.092231 262.637088 
L 226.93686 262.637088 
L 227.859174 278.210049 
L 230.626116 278.210049 
L 231.54843 272.459019 
L 232.470744 272.459019 
L 233.393058 284.29645 
L 234.315372 284.29645 
L 235.237686 295.488 
L 236.16 295.488 
L 237.082314 278.550367 
L 238.004628 278.550367 
L 238.926942 263.108698 
L 239.849256 277.583719 
L 240.77157 277.583719 
L 241.693884 292.451833 
L 242.616198 292.451833 
L 243.538512 290.215213 
L 244.460826 284.502717 
L 398.487273 284.502717 
L 398.487273 284.502717 
" style="fill:none;stroke:#ff0000;stroke-linecap:square;stroke-width:12;"/>
    <defs>
     <path d="M 0 3 
C 0.795609 3 1.55874 2.683901 2.12132 2.12132 
C 2.683901 1.55874 3 0.795609 3 0 
C 3 -0.795609 2.683901 -1.55874 2.12132 -2.12132 
C 1.55874 -2.683901 0.795609 -3 0 -3 
C -0.795609 -3 -1.55874 -2.683901 -2.12132 -2.12132 
C -2.683901 -1.55874 -3 -0.795609 -3 0 
C -3 0.795609 -2.683901 1.55874 -2.12132 2.12132 
C -1.55874 2.683901 -0.795609 3 0 3 
z
" id="m7049200808" style="stroke:#ff0000;"/>
    </defs>
    <g clip-path="url(#pd73d5140d9)">
     <use style="fill:#ff0000;stroke:#ff0000;" x="73.832727" xlink:href="#m7049200808" y="53.568"/>
     <use style="fill:#ff0000;stroke:#ff0000;" x="74.755041" xlink:href="#m7049200808" y="97.046946"/>
     <use style="fill:#ff0000;stroke:#ff0000;" x="75.677355" xlink:href="#m7049200808" y="97.046946"/>
     <use style="fill:#ff0000;stroke:#ff0000;" x="76.599669" xlink:href="#m7049200808" y="140.54615"/>
     <use style="fill:#ff0000;stroke:#ff0000;" x="77.521983" xlink:href="#m7049200808" y="181.391791"/>
     <use style="fill:#ff0000;stroke:#ff0000;" x="78.444298" xlink:href="#m7049200808" y="181.391791"/>
     <use style="fill:#ff0000;stroke:#ff0000;" x="79.366612" xlink:href="#m7049200808" y="181.391791"/>
     <use style="fill:#ff0000;stroke:#ff0000;" x="80.288926" xlink:href="#m7049200808" y="181.391791"/>
     <use style="fill:#ff0000;stroke:#ff0000;" x="81.21124" xlink:href="#m7049200808" y="170.632922"/>
     <use style="fill:#ff0000;stroke:#ff0000;" x="82.133554" xlink:href="#m7049200808" y="170.632922"/>
     <use style="fill:#ff0000;stroke:#ff0000;" x="83.055868" xlink:href="#m7049200808" y="213.420738"/>
     <use style="fill:#ff0000;stroke:#ff0000;" x="83.978182" xlink:href="#m7049200808" y="213.420738"/>
     <use style="fill:#ff0000;stroke:#ff0000;" x="84.900496" xlink:href="#m7049200808" y="213.420738"/>
     <use style="fill:#ff0000;stroke:#ff0000;" x="85.82281" xlink:href="#m7049200808" y="208.398148"/>
     <use style="fill:#ff0000;stroke:#ff0000;" x="86.745124" xlink:href="#m7049200808" y="214.02025"/>
     <use style="fill:#ff0000;stroke:#ff0000;" x="87.667438" xlink:href="#m7049200808" y="214.02025"/>
     <use style="fill:#ff0000;stroke:#ff0000;" x="88.589752" xlink:href="#m7049200808" y="214.02025"/>
     <use style="fill:#ff0000;stroke:#ff0000;" x="89.512066" xlink:href="#m7049200808" y="214.02025"/>
     <use style="fill:#ff0000;stroke:#ff0000;" x="90.43438" xlink:href="#m7049200808" y="253.68152"/>
     <use style="fill:#ff0000;stroke:#ff0000;" x="91.356694" xlink:href="#m7049200808" y="253.68152"/>
     <use style="fill:#ff0000;stroke:#ff0000;" x="92.279008" xlink:href="#m7049200808" y="207.9292"/>
     <use style="fill:#ff0000;stroke:#ff0000;" x="93.201322" xlink:href="#m7049200808" y="207.9292"/>
     <use style="fill:#ff0000;stroke:#ff0000;" x="94.123636" xlink:href="#m7049200808" y="247.941986"/>
     <use style="fill:#ff0000;stroke:#ff0000;" x="95.04595" xlink:href="#m7049200808" y="247.941986"/>
     <use style="fill:#ff0000;stroke:#ff0000;" x="95.968264" xlink:href="#m7049200808" y="247.941986"/>
     <use style="fill:#ff0000;stroke:#ff0000;" x="96.890579" xlink:href="#m7049200808" y="262.614858"/>
     <use style="fill:#ff0000;stroke:#ff0000;" x="97.812893" xlink:href="#m7049200808" y="262.614858"/>
     <use style="fill:#ff0000;stroke:#ff0000;" x="98.735207" xlink:href="#m7049200808" y="260.721476"/>
     <use style="fill:#ff0000;stroke:#ff0000;" x="99.657521" xlink:href="#m7049200808" y="260.721476"/>
     <use style="fill:#ff0000;stroke:#ff0000;" x="100.579835" xlink:href="#m7049200808" y="259.60527"/>
     <use style="fill:#ff0000;stroke:#ff0000;" x="101.502149" xlink:href="#m7049200808" y="259.60527"/>
     <use style="fill:#ff0000;stroke:#ff0000;" x="102.424463" xlink:href="#m7049200808" y="259.60527"/>
     <use style="fill:#ff0000;stroke:#ff0000;" x="103.346777" xlink:href="#m7049200808" y="243.125221"/>
     <use style="fill:#ff0000;stroke:#ff0000;" x="104.269091" xlink:href="#m7049200808" y="243.125221"/>
     <use style="fill:#ff0000;stroke:#ff0000;" x="105.191405" xlink:href="#m7049200808" y="226.623985"/>
     <use style="fill:#ff0000;stroke:#ff0000;" x="106.113719" xlink:href="#m7049200808" y="226.623985"/>
     <use style="fill:#ff0000;stroke:#ff0000;" x="107.036033" xlink:href="#m7049200808" y="226.623985"/>
     <use style="fill:#ff0000;stroke:#ff0000;" x="107.958347" xlink:href="#m7049200808" y="229.977803"/>
     <use style="fill:#ff0000;stroke:#ff0000;" x="108.880661" xlink:href="#m7049200808" y="228.567357"/>
     <use style="fill:#ff0000;stroke:#ff0000;" x="109.802975" xlink:href="#m7049200808" y="228.567357"/>
     <use style="fill:#ff0000;stroke:#ff0000;" x="110.725289" xlink:href="#m7049200808" y="212.861934"/>
     <use style="fill:#ff0000;stroke:#ff0000;" x="111.647603" xlink:href="#m7049200808" y="212.861934"/>
     <use style="fill:#ff0000;stroke:#ff0000;" x="112.569917" xlink:href="#m7049200808" y="212.861934"/>
     <use style="fill:#ff0000;stroke:#ff0000;" x="113.492231" xlink:href="#m7049200808" y="226.068133"/>
     <use style="fill:#ff0000;stroke:#ff0000;" x="114.414545" xlink:href="#m7049200808" y="226.068133"/>
     <use style="fill:#ff0000;stroke:#ff0000;" x="115.33686" xlink:href="#m7049200808" y="211.356723"/>
     <use style="fill:#ff0000;stroke:#ff0000;" x="116.259174" xlink:href="#m7049200808" y="211.356723"/>
     <use style="fill:#ff0000;stroke:#ff0000;" x="117.181488" xlink:href="#m7049200808" y="195.571696"/>
     <use style="fill:#ff0000;stroke:#ff0000;" x="118.103802" xlink:href="#m7049200808" y="195.571696"/>
     <use style="fill:#ff0000;stroke:#ff0000;" x="119.026116" xlink:href="#m7049200808" y="179.925973"/>
     <use style="fill:#ff0000;stroke:#ff0000;" x="119.94843" xlink:href="#m7049200808" y="179.925973"/>
     <use style="fill:#ff0000;stroke:#ff0000;" x="120.870744" xlink:href="#m7049200808" y="194.357566"/>
     <use style="fill:#ff0000;stroke:#ff0000;" x="121.793058" xlink:href="#m7049200808" y="207.757639"/>
     <use style="fill:#ff0000;stroke:#ff0000;" x="122.715372" xlink:href="#m7049200808" y="207.757639"/>
     <use style="fill:#ff0000;stroke:#ff0000;" x="123.637686" xlink:href="#m7049200808" y="192.681106"/>
     <use style="fill:#ff0000;stroke:#ff0000;" x="124.56" xlink:href="#m7049200808" y="192.681106"/>
     <use style="fill:#ff0000;stroke:#ff0000;" x="125.482314" xlink:href="#m7049200808" y="192.681106"/>
     <use style="fill:#ff0000;stroke:#ff0000;" x="126.404628" xlink:href="#m7049200808" y="206.704528"/>
     <use style="fill:#ff0000;stroke:#ff0000;" x="127.326942" xlink:href="#m7049200808" y="206.704528"/>
     <use style="fill:#ff0000;stroke:#ff0000;" x="128.249256" xlink:href="#m7049200808" y="219.763058"/>
     <use style="fill:#ff0000;stroke:#ff0000;" x="129.17157" xlink:href="#m7049200808" y="217.773406"/>
     <use style="fill:#ff0000;stroke:#ff0000;" x="130.093884" xlink:href="#m7049200808" y="217.773406"/>
     <use style="fill:#ff0000;stroke:#ff0000;" x="131.016198" xlink:href="#m7049200808" y="217.773406"/>
     <use style="fill:#ff0000;stroke:#ff0000;" x="131.938512" xlink:href="#m7049200808" y="217.773406"/>
     <use style="fill:#ff0000;stroke:#ff0000;" x="132.860826" xlink:href="#m7049200808" y="217.773406"/>
     <use style="fill:#ff0000;stroke:#ff0000;" x="133.78314" xlink:href="#m7049200808" y="217.773406"/>
     <use style="fill:#ff0000;stroke:#ff0000;" x="134.705455" xlink:href="#m7049200808" y="217.813698"/>
     <use style="fill:#ff0000;stroke:#ff0000;" x="135.627769" xlink:href="#m7049200808" y="217.813698"/>
     <use style="fill:#ff0000;stroke:#ff0000;" x="136.550083" xlink:href="#m7049200808" y="229.457154"/>
     <use style="fill:#ff0000;stroke:#ff0000;" x="137.472397" xlink:href="#m7049200808" y="229.457154"/>
     <use style="fill:#ff0000;stroke:#ff0000;" x="138.394711" xlink:href="#m7049200808" y="229.457154"/>
     <use style="fill:#ff0000;stroke:#ff0000;" x="139.317025" xlink:href="#m7049200808" y="229.457154"/>
     <use style="fill:#ff0000;stroke:#ff0000;" x="140.239339" xlink:href="#m7049200808" y="231.505103"/>
     <use style="fill:#ff0000;stroke:#ff0000;" x="141.161653" xlink:href="#m7049200808" y="231.505103"/>
     <use style="fill:#ff0000;stroke:#ff0000;" x="142.083967" xlink:href="#m7049200808" y="233.197618"/>
     <use style="fill:#ff0000;stroke:#ff0000;" x="143.006281" xlink:href="#m7049200808" y="233.197618"/>
     <use style="fill:#ff0000;stroke:#ff0000;" x="143.928595" xlink:href="#m7049200808" y="217.362772"/>
     <use style="fill:#ff0000;stroke:#ff0000;" x="144.850909" xlink:href="#m7049200808" y="217.362772"/>
     <use style="fill:#ff0000;stroke:#ff0000;" x="145.773223" xlink:href="#m7049200808" y="217.362772"/>
     <use style="fill:#ff0000;stroke:#ff0000;" x="146.695537" xlink:href="#m7049200808" y="217.362772"/>
     <use style="fill:#ff0000;stroke:#ff0000;" x="147.617851" xlink:href="#m7049200808" y="229.444249"/>
     <use style="fill:#ff0000;stroke:#ff0000;" x="148.540165" xlink:href="#m7049200808" y="229.082821"/>
     <use style="fill:#ff0000;stroke:#ff0000;" x="149.462479" xlink:href="#m7049200808" y="229.082821"/>
     <use style="fill:#ff0000;stroke:#ff0000;" x="150.384793" xlink:href="#m7049200808" y="229.082821"/>
     <use style="fill:#ff0000;stroke:#ff0000;" x="151.307107" xlink:href="#m7049200808" y="229.082821"/>
     <use style="fill:#ff0000;stroke:#ff0000;" x="152.229421" xlink:href="#m7049200808" y="230.145617"/>
     <use style="fill:#ff0000;stroke:#ff0000;" x="153.151736" xlink:href="#m7049200808" y="230.145617"/>
     <use style="fill:#ff0000;stroke:#ff0000;" x="154.07405" xlink:href="#m7049200808" y="213.351664"/>
     <use style="fill:#ff0000;stroke:#ff0000;" x="154.996364" xlink:href="#m7049200808" y="213.351664"/>
     <use style="fill:#ff0000;stroke:#ff0000;" x="155.918678" xlink:href="#m7049200808" y="198.231634"/>
     <use style="fill:#ff0000;stroke:#ff0000;" x="156.840992" xlink:href="#m7049200808" y="198.231634"/>
     <use style="fill:#ff0000;stroke:#ff0000;" x="157.763306" xlink:href="#m7049200808" y="210.844272"/>
     <use style="fill:#ff0000;stroke:#ff0000;" x="158.68562" xlink:href="#m7049200808" y="210.844272"/>
     <use style="fill:#ff0000;stroke:#ff0000;" x="159.607934" xlink:href="#m7049200808" y="223.495268"/>
     <use style="fill:#ff0000;stroke:#ff0000;" x="160.530248" xlink:href="#m7049200808" y="223.495268"/>
     <use style="fill:#ff0000;stroke:#ff0000;" x="161.452562" xlink:href="#m7049200808" y="237.624435"/>
     <use style="fill:#ff0000;stroke:#ff0000;" x="162.374876" xlink:href="#m7049200808" y="237.624435"/>
     <use style="fill:#ff0000;stroke:#ff0000;" x="163.29719" xlink:href="#m7049200808" y="250.31401"/>
     <use style="fill:#ff0000;stroke:#ff0000;" x="164.219504" xlink:href="#m7049200808" y="250.31401"/>
     <use style="fill:#ff0000;stroke:#ff0000;" x="165.141818" xlink:href="#m7049200808" y="262.942777"/>
     <use style="fill:#ff0000;stroke:#ff0000;" x="166.064132" xlink:href="#m7049200808" y="262.942777"/>
     <use style="fill:#ff0000;stroke:#ff0000;" x="166.986446" xlink:href="#m7049200808" y="246.407141"/>
     <use style="fill:#ff0000;stroke:#ff0000;" x="167.90876" xlink:href="#m7049200808" y="259.080019"/>
     <use style="fill:#ff0000;stroke:#ff0000;" x="168.831074" xlink:href="#m7049200808" y="259.080019"/>
     <use style="fill:#ff0000;stroke:#ff0000;" x="169.753388" xlink:href="#m7049200808" y="242.899741"/>
     <use style="fill:#ff0000;stroke:#ff0000;" x="170.675702" xlink:href="#m7049200808" y="242.899741"/>
     <use style="fill:#ff0000;stroke:#ff0000;" x="171.598017" xlink:href="#m7049200808" y="227.937563"/>
     <use style="fill:#ff0000;stroke:#ff0000;" x="172.520331" xlink:href="#m7049200808" y="227.937563"/>
     <use style="fill:#ff0000;stroke:#ff0000;" x="173.442645" xlink:href="#m7049200808" y="211.15089"/>
     <use style="fill:#ff0000;stroke:#ff0000;" x="174.364959" xlink:href="#m7049200808" y="211.15089"/>
     <use style="fill:#ff0000;stroke:#ff0000;" x="175.287273" xlink:href="#m7049200808" y="211.15089"/>
     <use style="fill:#ff0000;stroke:#ff0000;" x="176.209587" xlink:href="#m7049200808" y="211.15089"/>
     <use style="fill:#ff0000;stroke:#ff0000;" x="177.131901" xlink:href="#m7049200808" y="211.15089"/>
     <use style="fill:#ff0000;stroke:#ff0000;" x="178.054215" xlink:href="#m7049200808" y="211.15089"/>
     <use style="fill:#ff0000;stroke:#ff0000;" x="178.976529" xlink:href="#m7049200808" y="211.15089"/>
     <use style="fill:#ff0000;stroke:#ff0000;" x="179.898843" xlink:href="#m7049200808" y="211.15089"/>
     <use style="fill:#ff0000;stroke:#ff0000;" x="180.821157" xlink:href="#m7049200808" y="211.15089"/>
     <use style="fill:#ff0000;stroke:#ff0000;" x="181.743471" xlink:href="#m7049200808" y="211.15089"/>
     <use style="fill:#ff0000;stroke:#ff0000;" x="182.665785" xlink:href="#m7049200808" y="225.509372"/>
     <use style="fill:#ff0000;stroke:#ff0000;" x="183.588099" xlink:href="#m7049200808" y="225.509372"/>
     <use style="fill:#ff0000;stroke:#ff0000;" x="184.510413" xlink:href="#m7049200808" y="210.349713"/>
     <use style="fill:#ff0000;stroke:#ff0000;" x="185.432727" xlink:href="#m7049200808" y="210.349713"/>
     <use style="fill:#ff0000;stroke:#ff0000;" x="186.355041" xlink:href="#m7049200808" y="221.580592"/>
     <use style="fill:#ff0000;stroke:#ff0000;" x="187.277355" xlink:href="#m7049200808" y="221.580592"/>
     <use style="fill:#ff0000;stroke:#ff0000;" x="188.199669" xlink:href="#m7049200808" y="225.009109"/>
     <use style="fill:#ff0000;stroke:#ff0000;" x="189.121983" xlink:href="#m7049200808" y="225.009109"/>
     <use style="fill:#ff0000;stroke:#ff0000;" x="190.044298" xlink:href="#m7049200808" y="222.687462"/>
     <use style="fill:#ff0000;stroke:#ff0000;" x="190.966612" xlink:href="#m7049200808" y="222.687462"/>
     <use style="fill:#ff0000;stroke:#ff0000;" x="191.888926" xlink:href="#m7049200808" y="235.658661"/>
     <use style="fill:#ff0000;stroke:#ff0000;" x="192.81124" xlink:href="#m7049200808" y="235.658661"/>
     <use style="fill:#ff0000;stroke:#ff0000;" x="193.733554" xlink:href="#m7049200808" y="218.577717"/>
     <use style="fill:#ff0000;stroke:#ff0000;" x="194.655868" xlink:href="#m7049200808" y="218.577717"/>
     <use style="fill:#ff0000;stroke:#ff0000;" x="195.578182" xlink:href="#m7049200808" y="230.8544"/>
     <use style="fill:#ff0000;stroke:#ff0000;" x="196.500496" xlink:href="#m7049200808" y="230.8544"/>
     <use style="fill:#ff0000;stroke:#ff0000;" x="197.42281" xlink:href="#m7049200808" y="230.8544"/>
     <use style="fill:#ff0000;stroke:#ff0000;" x="198.345124" xlink:href="#m7049200808" y="215.139664"/>
     <use style="fill:#ff0000;stroke:#ff0000;" x="199.267438" xlink:href="#m7049200808" y="215.139664"/>
     <use style="fill:#ff0000;stroke:#ff0000;" x="200.189752" xlink:href="#m7049200808" y="227.855526"/>
     <use style="fill:#ff0000;stroke:#ff0000;" x="201.112066" xlink:href="#m7049200808" y="227.855526"/>
     <use style="fill:#ff0000;stroke:#ff0000;" x="202.03438" xlink:href="#m7049200808" y="211.537699"/>
     <use style="fill:#ff0000;stroke:#ff0000;" x="202.956694" xlink:href="#m7049200808" y="211.537699"/>
     <use style="fill:#ff0000;stroke:#ff0000;" x="203.879008" xlink:href="#m7049200808" y="224.975613"/>
     <use style="fill:#ff0000;stroke:#ff0000;" x="204.801322" xlink:href="#m7049200808" y="224.975613"/>
     <use style="fill:#ff0000;stroke:#ff0000;" x="205.723636" xlink:href="#m7049200808" y="210.03767"/>
     <use style="fill:#ff0000;stroke:#ff0000;" x="206.64595" xlink:href="#m7049200808" y="211.426083"/>
     <use style="fill:#ff0000;stroke:#ff0000;" x="207.568264" xlink:href="#m7049200808" y="211.426083"/>
     <use style="fill:#ff0000;stroke:#ff0000;" x="208.490579" xlink:href="#m7049200808" y="211.426083"/>
     <use style="fill:#ff0000;stroke:#ff0000;" x="209.412893" xlink:href="#m7049200808" y="210.501984"/>
     <use style="fill:#ff0000;stroke:#ff0000;" x="210.335207" xlink:href="#m7049200808" y="210.501984"/>
     <use style="fill:#ff0000;stroke:#ff0000;" x="211.257521" xlink:href="#m7049200808" y="223.178046"/>
     <use style="fill:#ff0000;stroke:#ff0000;" x="212.179835" xlink:href="#m7049200808" y="223.178046"/>
     <use style="fill:#ff0000;stroke:#ff0000;" x="213.102149" xlink:href="#m7049200808" y="221.370661"/>
     <use style="fill:#ff0000;stroke:#ff0000;" x="214.024463" xlink:href="#m7049200808" y="221.370661"/>
     <use style="fill:#ff0000;stroke:#ff0000;" x="214.946777" xlink:href="#m7049200808" y="234.652443"/>
     <use style="fill:#ff0000;stroke:#ff0000;" x="215.869091" xlink:href="#m7049200808" y="234.652443"/>
     <use style="fill:#ff0000;stroke:#ff0000;" x="216.791405" xlink:href="#m7049200808" y="235.758883"/>
     <use style="fill:#ff0000;stroke:#ff0000;" x="217.713719" xlink:href="#m7049200808" y="235.758883"/>
     <use style="fill:#ff0000;stroke:#ff0000;" x="218.636033" xlink:href="#m7049200808" y="221.092864"/>
     <use style="fill:#ff0000;stroke:#ff0000;" x="219.558347" xlink:href="#m7049200808" y="221.092864"/>
     <use style="fill:#ff0000;stroke:#ff0000;" x="220.480661" xlink:href="#m7049200808" y="223.466848"/>
     <use style="fill:#ff0000;stroke:#ff0000;" x="221.402975" xlink:href="#m7049200808" y="223.466848"/>
     <use style="fill:#ff0000;stroke:#ff0000;" x="222.325289" xlink:href="#m7049200808" y="237.959252"/>
     <use style="fill:#ff0000;stroke:#ff0000;" x="223.247603" xlink:href="#m7049200808" y="237.959252"/>
     <use style="fill:#ff0000;stroke:#ff0000;" x="224.169917" xlink:href="#m7049200808" y="249.714728"/>
     <use style="fill:#ff0000;stroke:#ff0000;" x="225.092231" xlink:href="#m7049200808" y="262.637088"/>
     <use style="fill:#ff0000;stroke:#ff0000;" x="226.014545" xlink:href="#m7049200808" y="262.637088"/>
     <use style="fill:#ff0000;stroke:#ff0000;" x="226.93686" xlink:href="#m7049200808" y="262.637088"/>
     <use style="fill:#ff0000;stroke:#ff0000;" x="227.859174" xlink:href="#m7049200808" y="278.210049"/>
     <use style="fill:#ff0000;stroke:#ff0000;" x="228.781488" xlink:href="#m7049200808" y="278.210049"/>
     <use style="fill:#ff0000;stroke:#ff0000;" x="229.703802" xlink:href="#m7049200808" y="278.210049"/>
     <use style="fill:#ff0000;stroke:#ff0000;" x="230.626116" xlink:href="#m7049200808" y="278.210049"/>
     <use style="fill:#ff0000;stroke:#ff0000;" x="231.54843" xlink:href="#m7049200808" y="272.459019"/>
     <use style="fill:#ff0000;stroke:#ff0000;" x="232.470744" xlink:href="#m7049200808" y="272.459019"/>
     <use style="fill:#ff0000;stroke:#ff0000;" x="233.393058" xlink:href="#m7049200808" y="284.29645"/>
     <use style="fill:#ff0000;stroke:#ff0000;" x="234.315372" xlink:href="#m7049200808" y="284.29645"/>
     <use style="fill:#ff0000;stroke:#ff0000;" x="235.237686" xlink:href="#m7049200808" y="295.488"/>
     <use style="fill:#ff0000;stroke:#ff0000;" x="236.16" xlink:href="#m7049200808" y="295.488"/>
     <use style="fill:#ff0000;stroke:#ff0000;" x="237.082314" xlink:href="#m7049200808" y="278.550367"/>
     <use style="fill:#ff0000;stroke:#ff0000;" x="238.004628" xlink:href="#m7049200808" y="278.550367"/>
     <use style="fill:#ff0000;stroke:#ff0000;" x="238.926942" xlink:href="#m7049200808" y="263.108698"/>
     <use style="fill:#ff0000;stroke:#ff0000;" x="239.849256" xlink:href="#m7049200808" y="277.583719"/>
     <use style="fill:#ff0000;stroke:#ff0000;" x="240.77157" xlink:href="#m7049200808" y="277.583719"/>
     <use style="fill:#ff0000;stroke:#ff0000;" x="241.693884" xlink:href="#m7049200808" y="292.451833"/>
     <use style="fill:#ff0000;stroke:#ff0000;" x="242.616198" xlink:href="#m7049200808" y="292.451833"/>
     <use style="fill:#ff0000;stroke:#ff0000;" x="243.538512" xlink:href="#m7049200808" y="290.215213"/>
     <use style="fill:#ff0000;stroke:#ff0000;" x="244.460826" xlink:href="#m7049200808" y="284.502717"/>
     <use style="fill:#ff0000;stroke:#ff0000;" x="245.38314" xlink:href="#m7049200808" y="284.502717"/>
     <use style="fill:#ff0000;stroke:#ff0000;" x="246.305455" xlink:href="#m7049200808" y="284.502717"/>
     <use style="fill:#ff0000;stroke:#ff0000;" x="247.227769" xlink:href="#m7049200808" y="284.502717"/>
     <use style="fill:#ff0000;stroke:#ff0000;" x="248.150083" xlink:href="#m7049200808" y="284.502717"/>
     <use style="fill:#ff0000;stroke:#ff0000;" x="249.072397" xlink:href="#m7049200808" y="284.502717"/>
     <use style="fill:#ff0000;stroke:#ff0000;" x="249.994711" xlink:href="#m7049200808" y="284.502717"/>
     <use style="fill:#ff0000;stroke:#ff0000;" x="250.917025" xlink:href="#m7049200808" y="284.502717"/>
     <use style="fill:#ff0000;stroke:#ff0000;" x="251.839339" xlink:href="#m7049200808" y="284.502717"/>
     <use style="fill:#ff0000;stroke:#ff0000;" x="252.761653" xlink:href="#m7049200808" y="284.502717"/>
     <use style="fill:#ff0000;stroke:#ff0000;" x="253.683967" xlink:href="#m7049200808" y="284.502717"/>
     <use style="fill:#ff0000;stroke:#ff0000;" x="254.606281" xlink:href="#m7049200808" y="284.502717"/>
     <use style="fill:#ff0000;stroke:#ff0000;" x="255.528595" xlink:href="#m7049200808" y="284.502717"/>
     <use style="fill:#ff0000;stroke:#ff0000;" x="256.450909" xlink:href="#m7049200808" y="284.502717"/>
     <use style="fill:#ff0000;stroke:#ff0000;" x="257.373223" xlink:href="#m7049200808" y="284.502717"/>
     <use style="fill:#ff0000;stroke:#ff0000;" x="258.295537" xlink:href="#m7049200808" y="284.502717"/>
     <use style="fill:#ff0000;stroke:#ff0000;" x="259.217851" xlink:href="#m7049200808" y="284.502717"/>
     <use style="fill:#ff0000;stroke:#ff0000;" x="260.140165" xlink:href="#m7049200808" y="284.502717"/>
     <use style="fill:#ff0000;stroke:#ff0000;" x="261.062479" xlink:href="#m7049200808" y="284.502717"/>
     <use style="fill:#ff0000;stroke:#ff0000;" x="261.984793" xlink:href="#m7049200808" y="284.502717"/>
     <use style="fill:#ff0000;stroke:#ff0000;" x="262.907107" xlink:href="#m7049200808" y="284.502717"/>
     <use style="fill:#ff0000;stroke:#ff0000;" x="263.829421" xlink:href="#m7049200808" y="284.502717"/>
     <use style="fill:#ff0000;stroke:#ff0000;" x="264.751736" xlink:href="#m7049200808" y="284.502717"/>
     <use style="fill:#ff0000;stroke:#ff0000;" x="265.67405" xlink:href="#m7049200808" y="284.502717"/>
     <use style="fill:#ff0000;stroke:#ff0000;" x="266.596364" xlink:href="#m7049200808" y="284.502717"/>
     <use style="fill:#ff0000;stroke:#ff0000;" x="267.518678" xlink:href="#m7049200808" y="284.502717"/>
     <use style="fill:#ff0000;stroke:#ff0000;" x="268.440992" xlink:href="#m7049200808" y="284.502717"/>
     <use style="fill:#ff0000;stroke:#ff0000;" x="269.363306" xlink:href="#m7049200808" y="284.502717"/>
     <use style="fill:#ff0000;stroke:#ff0000;" x="270.28562" xlink:href="#m7049200808" y="284.502717"/>
     <use style="fill:#ff0000;stroke:#ff0000;" x="271.207934" xlink:href="#m7049200808" y="284.502717"/>
     <use style="fill:#ff0000;stroke:#ff0000;" x="272.130248" xlink:href="#m7049200808" y="284.502717"/>
     <use style="fill:#ff0000;stroke:#ff0000;" x="273.052562" xlink:href="#m7049200808" y="284.502717"/>
     <use style="fill:#ff0000;stroke:#ff0000;" x="273.974876" xlink:href="#m7049200808" y="284.502717"/>
     <use style="fill:#ff0000;stroke:#ff0000;" x="274.89719" xlink:href="#m7049200808" y="284.502717"/>
     <use style="fill:#ff0000;stroke:#ff0000;" x="275.819504" xlink:href="#m7049200808" y="284.502717"/>
     <use style="fill:#ff0000;stroke:#ff0000;" x="276.741818" xlink:href="#m7049200808" y="284.502717"/>
     <use style="fill:#ff0000;stroke:#ff0000;" x="277.664132" xlink:href="#m7049200808" y="284.502717"/>
     <use style="fill:#ff0000;stroke:#ff0000;" x="278.586446" xlink:href="#m7049200808" y="284.502717"/>
     <use style="fill:#ff0000;stroke:#ff0000;" x="279.50876" xlink:href="#m7049200808" y="284.502717"/>
     <use style="fill:#ff0000;stroke:#ff0000;" x="280.431074" xlink:href="#m7049200808" y="284.502717"/>
     <use style="fill:#ff0000;stroke:#ff0000;" x="281.353388" xlink:href="#m7049200808" y="284.502717"/>
     <use style="fill:#ff0000;stroke:#ff0000;" x="282.275702" xlink:href="#m7049200808" y="284.502717"/>
     <use style="fill:#ff0000;stroke:#ff0000;" x="283.198017" xlink:href="#m7049200808" y="284.502717"/>
     <use style="fill:#ff0000;stroke:#ff0000;" x="284.120331" xlink:href="#m7049200808" y="284.502717"/>
     <use style="fill:#ff0000;stroke:#ff0000;" x="285.042645" xlink:href="#m7049200808" y="284.502717"/>
     <use style="fill:#ff0000;stroke:#ff0000;" x="285.964959" xlink:href="#m7049200808" y="284.502717"/>
     <use style="fill:#ff0000;stroke:#ff0000;" x="286.887273" xlink:href="#m7049200808" y="284.502717"/>
     <use style="fill:#ff0000;stroke:#ff0000;" x="287.809587" xlink:href="#m7049200808" y="284.502717"/>
     <use style="fill:#ff0000;stroke:#ff0000;" x="288.731901" xlink:href="#m7049200808" y="284.502717"/>
     <use style="fill:#ff0000;stroke:#ff0000;" x="289.654215" xlink:href="#m7049200808" y="284.502717"/>
     <use style="fill:#ff0000;stroke:#ff0000;" x="290.576529" xlink:href="#m7049200808" y="284.502717"/>
     <use style="fill:#ff0000;stroke:#ff0000;" x="291.498843" xlink:href="#m7049200808" y="284.502717"/>
     <use style="fill:#ff0000;stroke:#ff0000;" x="292.421157" xlink:href="#m7049200808" y="284.502717"/>
     <use style="fill:#ff0000;stroke:#ff0000;" x="293.343471" xlink:href="#m7049200808" y="284.502717"/>
     <use style="fill:#ff0000;stroke:#ff0000;" x="294.265785" xlink:href="#m7049200808" y="284.502717"/>
     <use style="fill:#ff0000;stroke:#ff0000;" x="295.188099" xlink:href="#m7049200808" y="284.502717"/>
     <use style="fill:#ff0000;stroke:#ff0000;" x="296.110413" xlink:href="#m7049200808" y="284.502717"/>
     <use style="fill:#ff0000;stroke:#ff0000;" x="297.032727" xlink:href="#m7049200808" y="284.502717"/>
     <use style="fill:#ff0000;stroke:#ff0000;" x="297.955041" xlink:href="#m7049200808" y="284.502717"/>
     <use style="fill:#ff0000;stroke:#ff0000;" x="298.877355" xlink:href="#m7049200808" y="284.502717"/>
     <use style="fill:#ff0000;stroke:#ff0000;" x="299.799669" xlink:href="#m7049200808" y="284.502717"/>
     <use style="fill:#ff0000;stroke:#ff0000;" x="300.721983" xlink:href="#m7049200808" y="284.502717"/>
     <use style="fill:#ff0000;stroke:#ff0000;" x="301.644298" xlink:href="#m7049200808" y="284.502717"/>
     <use style="fill:#ff0000;stroke:#ff0000;" x="302.566612" xlink:href="#m7049200808" y="284.502717"/>
     <use style="fill:#ff0000;stroke:#ff0000;" x="303.488926" xlink:href="#m7049200808" y="284.502717"/>
     <use style="fill:#ff0000;stroke:#ff0000;" x="304.41124" xlink:href="#m7049200808" y="284.502717"/>
     <use style="fill:#ff0000;stroke:#ff0000;" x="305.333554" xlink:href="#m7049200808" y="284.502717"/>
     <use style="fill:#ff0000;stroke:#ff0000;" x="306.255868" xlink:href="#m7049200808" y="284.502717"/>
     <use style="fill:#ff0000;stroke:#ff0000;" x="307.178182" xlink:href="#m7049200808" y="284.502717"/>
     <use style="fill:#ff0000;stroke:#ff0000;" x="308.100496" xlink:href="#m7049200808" y="284.502717"/>
     <use style="fill:#ff0000;stroke:#ff0000;" x="309.02281" xlink:href="#m7049200808" y="284.502717"/>
     <use style="fill:#ff0000;stroke:#ff0000;" x="309.945124" xlink:href="#m7049200808" y="284.502717"/>
     <use style="fill:#ff0000;stroke:#ff0000;" x="310.867438" xlink:href="#m7049200808" y="284.502717"/>
     <use style="fill:#ff0000;stroke:#ff0000;" x="311.789752" xlink:href="#m7049200808" y="284.502717"/>
     <use style="fill:#ff0000;stroke:#ff0000;" x="312.712066" xlink:href="#m7049200808" y="284.502717"/>
     <use style="fill:#ff0000;stroke:#ff0000;" x="313.63438" xlink:href="#m7049200808" y="284.502717"/>
     <use style="fill:#ff0000;stroke:#ff0000;" x="314.556694" xlink:href="#m7049200808" y="284.502717"/>
     <use style="fill:#ff0000;stroke:#ff0000;" x="315.479008" xlink:href="#m7049200808" y="284.502717"/>
     <use style="fill:#ff0000;stroke:#ff0000;" x="316.401322" xlink:href="#m7049200808" y="284.502717"/>
     <use style="fill:#ff0000;stroke:#ff0000;" x="317.323636" xlink:href="#m7049200808" y="284.502717"/>
     <use style="fill:#ff0000;stroke:#ff0000;" x="318.24595" xlink:href="#m7049200808" y="284.502717"/>
     <use style="fill:#ff0000;stroke:#ff0000;" x="319.168264" xlink:href="#m7049200808" y="284.502717"/>
     <use style="fill:#ff0000;stroke:#ff0000;" x="320.090579" xlink:href="#m7049200808" y="284.502717"/>
     <use style="fill:#ff0000;stroke:#ff0000;" x="321.012893" xlink:href="#m7049200808" y="284.502717"/>
     <use style="fill:#ff0000;stroke:#ff0000;" x="321.935207" xlink:href="#m7049200808" y="284.502717"/>
     <use style="fill:#ff0000;stroke:#ff0000;" x="322.857521" xlink:href="#m7049200808" y="284.502717"/>
     <use style="fill:#ff0000;stroke:#ff0000;" x="323.779835" xlink:href="#m7049200808" y="284.502717"/>
     <use style="fill:#ff0000;stroke:#ff0000;" x="324.702149" xlink:href="#m7049200808" y="284.502717"/>
     <use style="fill:#ff0000;stroke:#ff0000;" x="325.624463" xlink:href="#m7049200808" y="284.502717"/>
     <use style="fill:#ff0000;stroke:#ff0000;" x="326.546777" xlink:href="#m7049200808" y="284.502717"/>
     <use style="fill:#ff0000;stroke:#ff0000;" x="327.469091" xlink:href="#m7049200808" y="284.502717"/>
     <use style="fill:#ff0000;stroke:#ff0000;" x="328.391405" xlink:href="#m7049200808" y="284.502717"/>
     <use style="fill:#ff0000;stroke:#ff0000;" x="329.313719" xlink:href="#m7049200808" y="284.502717"/>
     <use style="fill:#ff0000;stroke:#ff0000;" x="330.236033" xlink:href="#m7049200808" y="284.502717"/>
     <use style="fill:#ff0000;stroke:#ff0000;" x="331.158347" xlink:href="#m7049200808" y="284.502717"/>
     <use style="fill:#ff0000;stroke:#ff0000;" x="332.080661" xlink:href="#m7049200808" y="284.502717"/>
     <use style="fill:#ff0000;stroke:#ff0000;" x="333.002975" xlink:href="#m7049200808" y="284.502717"/>
     <use style="fill:#ff0000;stroke:#ff0000;" x="333.925289" xlink:href="#m7049200808" y="284.502717"/>
     <use style="fill:#ff0000;stroke:#ff0000;" x="334.847603" xlink:href="#m7049200808" y="284.502717"/>
     <use style="fill:#ff0000;stroke:#ff0000;" x="335.769917" xlink:href="#m7049200808" y="284.502717"/>
     <use style="fill:#ff0000;stroke:#ff0000;" x="336.692231" xlink:href="#m7049200808" y="284.502717"/>
     <use style="fill:#ff0000;stroke:#ff0000;" x="337.614545" xlink:href="#m7049200808" y="284.502717"/>
     <use style="fill:#ff0000;stroke:#ff0000;" x="338.53686" xlink:href="#m7049200808" y="284.502717"/>
     <use style="fill:#ff0000;stroke:#ff0000;" x="339.459174" xlink:href="#m7049200808" y="284.502717"/>
     <use style="fill:#ff0000;stroke:#ff0000;" x="340.381488" xlink:href="#m7049200808" y="284.502717"/>
     <use style="fill:#ff0000;stroke:#ff0000;" x="341.303802" xlink:href="#m7049200808" y="284.502717"/>
     <use style="fill:#ff0000;stroke:#ff0000;" x="342.226116" xlink:href="#m7049200808" y="284.502717"/>
     <use style="fill:#ff0000;stroke:#ff0000;" x="343.14843" xlink:href="#m7049200808" y="284.502717"/>
     <use style="fill:#ff0000;stroke:#ff0000;" x="344.070744" xlink:href="#m7049200808" y="284.502717"/>
     <use style="fill:#ff0000;stroke:#ff0000;" x="344.993058" xlink:href="#m7049200808" y="284.502717"/>
     <use style="fill:#ff0000;stroke:#ff0000;" x="345.915372" xlink:href="#m7049200808" y="284.502717"/>
     <use style="fill:#ff0000;stroke:#ff0000;" x="346.837686" xlink:href="#m7049200808" y="284.502717"/>
     <use style="fill:#ff0000;stroke:#ff0000;" x="347.76" xlink:href="#m7049200808" y="284.502717"/>
     <use style="fill:#ff0000;stroke:#ff0000;" x="348.682314" xlink:href="#m7049200808" y="284.502717"/>
     <use style="fill:#ff0000;stroke:#ff0000;" x="349.604628" xlink:href="#m7049200808" y="284.502717"/>
     <use style="fill:#ff0000;stroke:#ff0000;" x="350.526942" xlink:href="#m7049200808" y="284.502717"/>
     <use style="fill:#ff0000;stroke:#ff0000;" x="351.449256" xlink:href="#m7049200808" y="284.502717"/>
     <use style="fill:#ff0000;stroke:#ff0000;" x="352.37157" xlink:href="#m7049200808" y="284.502717"/>
     <use style="fill:#ff0000;stroke:#ff0000;" x="353.293884" xlink:href="#m7049200808" y="284.502717"/>
     <use style="fill:#ff0000;stroke:#ff0000;" x="354.216198" xlink:href="#m7049200808" y="284.502717"/>
     <use style="fill:#ff0000;stroke:#ff0000;" x="355.138512" xlink:href="#m7049200808" y="284.502717"/>
     <use style="fill:#ff0000;stroke:#ff0000;" x="356.060826" xlink:href="#m7049200808" y="284.502717"/>
     <use style="fill:#ff0000;stroke:#ff0000;" x="356.98314" xlink:href="#m7049200808" y="284.502717"/>
     <use style="fill:#ff0000;stroke:#ff0000;" x="357.905455" xlink:href="#m7049200808" y="284.502717"/>
     <use style="fill:#ff0000;stroke:#ff0000;" x="358.827769" xlink:href="#m7049200808" y="284.502717"/>
     <use style="fill:#ff0000;stroke:#ff0000;" x="359.750083" xlink:href="#m7049200808" y="284.502717"/>
     <use style="fill:#ff0000;stroke:#ff0000;" x="360.672397" xlink:href="#m7049200808" y="284.502717"/>
     <use style="fill:#ff0000;stroke:#ff0000;" x="361.594711" xlink:href="#m7049200808" y="284.502717"/>
     <use style="fill:#ff0000;stroke:#ff0000;" x="362.517025" xlink:href="#m7049200808" y="284.502717"/>
     <use style="fill:#ff0000;stroke:#ff0000;" x="363.439339" xlink:href="#m7049200808" y="284.502717"/>
     <use style="fill:#ff0000;stroke:#ff0000;" x="364.361653" xlink:href="#m7049200808" y="284.502717"/>
     <use style="fill:#ff0000;stroke:#ff0000;" x="365.283967" xlink:href="#m7049200808" y="284.502717"/>
     <use style="fill:#ff0000;stroke:#ff0000;" x="366.206281" xlink:href="#m7049200808" y="284.502717"/>
     <use style="fill:#ff0000;stroke:#ff0000;" x="367.128595" xlink:href="#m7049200808" y="284.502717"/>
     <use style="fill:#ff0000;stroke:#ff0000;" x="368.050909" xlink:href="#m7049200808" y="284.502717"/>
     <use style="fill:#ff0000;stroke:#ff0000;" x="368.973223" xlink:href="#m7049200808" y="284.502717"/>
     <use style="fill:#ff0000;stroke:#ff0000;" x="369.895537" xlink:href="#m7049200808" y="284.502717"/>
     <use style="fill:#ff0000;stroke:#ff0000;" x="370.817851" xlink:href="#m7049200808" y="284.502717"/>
     <use style="fill:#ff0000;stroke:#ff0000;" x="371.740165" xlink:href="#m7049200808" y="284.502717"/>
     <use style="fill:#ff0000;stroke:#ff0000;" x="372.662479" xlink:href="#m7049200808" y="284.502717"/>
     <use style="fill:#ff0000;stroke:#ff0000;" x="373.584793" xlink:href="#m7049200808" y="284.502717"/>
     <use style="fill:#ff0000;stroke:#ff0000;" x="374.507107" xlink:href="#m7049200808" y="284.502717"/>
     <use style="fill:#ff0000;stroke:#ff0000;" x="375.429421" xlink:href="#m7049200808" y="284.502717"/>
     <use style="fill:#ff0000;stroke:#ff0000;" x="376.351736" xlink:href="#m7049200808" y="284.502717"/>
     <use style="fill:#ff0000;stroke:#ff0000;" x="377.27405" xlink:href="#m7049200808" y="284.502717"/>
     <use style="fill:#ff0000;stroke:#ff0000;" x="378.196364" xlink:href="#m7049200808" y="284.502717"/>
     <use style="fill:#ff0000;stroke:#ff0000;" x="379.118678" xlink:href="#m7049200808" y="284.502717"/>
     <use style="fill:#ff0000;stroke:#ff0000;" x="380.040992" xlink:href="#m7049200808" y="284.502717"/>
     <use style="fill:#ff0000;stroke:#ff0000;" x="380.963306" xlink:href="#m7049200808" y="284.502717"/>
     <use style="fill:#ff0000;stroke:#ff0000;" x="381.88562" xlink:href="#m7049200808" y="284.502717"/>
     <use style="fill:#ff0000;stroke:#ff0000;" x="382.807934" xlink:href="#m7049200808" y="284.502717"/>
     <use style="fill:#ff0000;stroke:#ff0000;" x="383.730248" xlink:href="#m7049200808" y="284.502717"/>
     <use style="fill:#ff0000;stroke:#ff0000;" x="384.652562" xlink:href="#m7049200808" y="284.502717"/>
     <use style="fill:#ff0000;stroke:#ff0000;" x="385.574876" xlink:href="#m7049200808" y="284.502717"/>
     <use style="fill:#ff0000;stroke:#ff0000;" x="386.49719" xlink:href="#m7049200808" y="284.502717"/>
     <use style="fill:#ff0000;stroke:#ff0000;" x="387.419504" xlink:href="#m7049200808" y="284.502717"/>
     <use style="fill:#ff0000;stroke:#ff0000;" x="388.341818" xlink:href="#m7049200808" y="284.502717"/>
     <use style="fill:#ff0000;stroke:#ff0000;" x="389.264132" xlink:href="#m7049200808" y="284.502717"/>
     <use style="fill:#ff0000;stroke:#ff0000;" x="390.186446" xlink:href="#m7049200808" y="284.502717"/>
     <use style="fill:#ff0000;stroke:#ff0000;" x="391.10876" xlink:href="#m7049200808" y="284.502717"/>
     <use style="fill:#ff0000;stroke:#ff0000;" x="392.031074" xlink:href="#m7049200808" y="284.502717"/>
     <use style="fill:#ff0000;stroke:#ff0000;" x="392.953388" xlink:href="#m7049200808" y="284.502717"/>
     <use style="fill:#ff0000;stroke:#ff0000;" x="393.875702" xlink:href="#m7049200808" y="284.502717"/>
     <use style="fill:#ff0000;stroke:#ff0000;" x="394.798017" xlink:href="#m7049200808" y="284.502717"/>
     <use style="fill:#ff0000;stroke:#ff0000;" x="395.720331" xlink:href="#m7049200808" y="284.502717"/>
     <use style="fill:#ff0000;stroke:#ff0000;" x="396.642645" xlink:href="#m7049200808" y="284.502717"/>
     <use style="fill:#ff0000;stroke:#ff0000;" x="397.564959" xlink:href="#m7049200808" y="284.502717"/>
     <use style="fill:#ff0000;stroke:#ff0000;" x="398.487273" xlink:href="#m7049200808" y="284.502717"/>
    </g>
   </g>
   <g id="patch_3">
    <path d="M 57.6 307.584 
L 57.6 41.472 
" style="fill:none;stroke:#000000;stroke-linecap:square;stroke-linejoin:miter;stroke-width:0.8;"/>
   </g>
   <g id="patch_4">
    <path d="M 414.72 307.584 
L 414.72 41.472 
" style="fill:none;stroke:#000000;stroke-linecap:square;stroke-linejoin:miter;stroke-width:0.8;"/>
   </g>
   <g id="patch_5">
    <path d="M 57.6 307.584 
L 414.72 307.584 
" style="fill:none;stroke:#000000;stroke-linecap:square;stroke-linejoin:miter;stroke-width:0.8;"/>
   </g>
   <g id="patch_6">
    <path d="M 57.6 41.472 
L 414.72 41.472 
" style="fill:none;stroke:#000000;stroke-linecap:square;stroke-linejoin:miter;stroke-width:0.8;"/>
   </g>
  </g>
 </g>
 <defs>
  <clipPath id="pd73d5140d9">
   <rect height="266.112" width="357.12" x="57.6" y="41.472"/>
  </clipPath>
 </defs>
</svg>
