<?xml version="1.0" encoding="utf-8" standalone="no"?>
<!DOCTYPE svg PUBLIC "-//W3C//DTD SVG 1.1//EN"
  "http://www.w3.org/Graphics/SVG/1.1/DTD/svg11.dtd">
<!-- Created with matplotlib (https://matplotlib.org/) -->
<svg height="345.6pt" version="1.1" viewBox="0 0 460.8 345.6" width="460.8pt" xmlns="http://www.w3.org/2000/svg" xmlns:xlink="http://www.w3.org/1999/xlink">
 <defs>
  <style type="text/css">
*{stroke-linecap:butt;stroke-linejoin:round;}
  </style>
 </defs>
 <g id="figure_1">
  <g id="patch_1">
   <path d="M 0 345.6 
L 460.8 345.6 
L 460.8 0 
L 0 0 
z
" style="fill:#ffffff;"/>
  </g>
  <g id="axes_1">
   <g id="patch_2">
    <path d="M 57.6 307.584 
L 414.72 307.584 
L 414.72 41.472 
L 57.6 41.472 
z
" style="fill:#ffffff;"/>
   </g>
   <g id="line2d_1">
    <path clip-path="url(#pe9643c902f)" d="M 73.832727 95.418326 
L 75.48072 53.568 
L 77.128713 53.568 
L 78.776705 95.418326 
L 82.07269 95.418326 
L 83.720683 138.87459 
L 85.368676 96.274495 
L 88.664661 96.274495 
L 90.312653 141.59764 
L 93.608639 141.59764 
L 95.256631 142.382871 
L 96.904624 142.382871 
L 98.552617 183.041231 
L 100.200609 183.041231 
L 101.848602 136.735509 
L 103.496594 136.735509 
L 105.144587 174.461911 
L 108.440572 174.461911 
L 110.088565 212.48697 
L 111.736557 212.48697 
L 113.38455 226.17246 
L 116.680535 226.17246 
L 118.328528 211.53496 
L 119.976521 211.53496 
L 121.624513 198.166765 
L 123.272506 198.166765 
L 124.920498 199.950528 
L 126.568491 199.950528 
L 128.216484 185.242842 
L 131.512469 185.242842 
L 133.160461 181.906437 
L 134.808454 181.906437 
L 136.456447 167.544271 
L 139.752432 167.544271 
L 141.400425 181.971182 
L 143.048417 181.971182 
L 144.69641 195.370597 
L 146.344402 195.370597 
L 147.992395 196.232081 
L 152.936373 196.232081 
L 154.584365 208.831268 
L 156.232358 208.831268 
L 157.880351 194.940248 
L 159.528343 207.359582 
L 162.824329 207.359582 
L 164.472321 221.114571 
L 169.416299 221.114571 
L 171.064292 205.983617 
L 177.656262 205.983617 
L 179.304255 207.668683 
L 180.952247 207.668683 
L 182.60024 192.41358 
L 184.248233 204.923882 
L 187.544218 204.923882 
L 189.19221 206.347632 
L 190.840203 206.347632 
L 194.136188 233.027688 
L 197.432174 233.027688 
L 199.080166 219.715108 
L 200.728159 219.715108 
L 202.376151 203.548923 
L 204.024144 203.548923 
L 205.672137 216.348912 
L 207.320129 216.696802 
L 215.560092 216.696904 
L 217.208085 230.952434 
L 218.856078 230.952434 
L 220.50407 244.339145 
L 222.152063 256.239138 
L 223.800055 256.239138 
L 225.448048 269.348286 
L 227.096041 269.348286 
L 228.744033 270.164892 
L 230.392026 270.164892 
L 232.040018 283.449913 
L 233.688011 295.488 
L 235.336004 295.488 
L 236.983996 280.021419 
L 238.631989 280.021419 
L 240.279982 293.207869 
L 241.927974 293.207869 
L 243.575967 277.398442 
L 245.223959 277.398442 
L 246.871952 261.116679 
L 250.167937 261.116679 
L 251.81593 245.204985 
L 264.999871 245.204985 
L 266.647863 229.106105 
L 268.295856 215.285458 
L 269.943849 215.285458 
L 271.591841 210.739256 
L 273.239834 210.739256 
L 274.887826 207.778948 
L 276.535819 207.778948 
L 278.183812 193.361311 
L 281.479797 193.361311 
L 283.12779 194.198011 
L 284.775782 194.198011 
L 286.423775 180.678732 
L 288.071767 180.678732 
L 289.71976 193.50236 
L 291.367753 178.582556 
L 296.311731 178.582556 
L 297.959723 177.067227 
L 299.607716 164.413433 
L 301.255708 164.413433 
L 302.903701 175.267962 
L 304.551694 175.267962 
L 306.199686 187.938035 
L 307.847679 187.938035 
L 309.495671 183.805065 
L 312.791657 183.805065 
L 314.439649 169.551543 
L 316.087642 169.551543 
L 317.735635 171.405564 
L 319.383627 157.743134 
L 321.03162 157.743134 
L 322.679612 142.50344 
L 325.975598 142.50344 
L 327.62359 155.55445 
L 330.919575 155.55445 
L 332.567568 140.375821 
L 334.215561 140.375821 
L 335.863553 128.083938 
L 339.159539 128.083938 
L 342.455524 153.404351 
L 344.103516 153.404351 
L 345.751509 149.195868 
L 347.399502 149.195868 
L 349.047494 162.356632 
L 350.695487 162.356632 
L 352.343479 148.284876 
L 353.991472 148.284876 
L 357.287457 174.02648 
L 360.583443 174.02648 
L 362.231435 172.200489 
L 365.52742 172.200489 
L 367.175413 184.887225 
L 368.823406 199.750484 
L 370.471398 199.750484 
L 372.119391 212.678223 
L 373.767383 212.678223 
L 375.415376 225.210224 
L 377.063369 225.210224 
L 378.711361 237.340593 
L 398.487273 237.340593 
L 398.487273 237.340593 
" style="fill:none;stroke:#ff0000;stroke-linecap:square;stroke-width:12;"/>
    <defs>
     <path d="M 0 3 
C 0.795609 3 1.55874 2.683901 2.12132 2.12132 
C 2.683901 1.55874 3 0.795609 3 0 
C 3 -0.795609 2.683901 -1.55874 2.12132 -2.12132 
C 1.55874 -2.683901 0.795609 -3 0 -3 
C -0.795609 -3 -1.55874 -2.683901 -2.12132 -2.12132 
C -2.683901 -1.55874 -3 -0.795609 -3 0 
C -3 0.795609 -2.683901 1.55874 -2.12132 2.12132 
C -1.55874 2.683901 -0.795609 3 0 3 
z
" id="m92e66131ca" style="stroke:#ff0000;"/>
    </defs>
    <g clip-path="url(#pe9643c902f)">
     <use style="fill:#ff0000;stroke:#ff0000;" x="73.832727" xlink:href="#m92e66131ca" y="95.418326"/>
     <use style="fill:#ff0000;stroke:#ff0000;" x="75.48072" xlink:href="#m92e66131ca" y="53.568"/>
     <use style="fill:#ff0000;stroke:#ff0000;" x="77.128713" xlink:href="#m92e66131ca" y="53.568"/>
     <use style="fill:#ff0000;stroke:#ff0000;" x="78.776705" xlink:href="#m92e66131ca" y="95.418326"/>
     <use style="fill:#ff0000;stroke:#ff0000;" x="80.424698" xlink:href="#m92e66131ca" y="95.418326"/>
     <use style="fill:#ff0000;stroke:#ff0000;" x="82.07269" xlink:href="#m92e66131ca" y="95.418326"/>
     <use style="fill:#ff0000;stroke:#ff0000;" x="83.720683" xlink:href="#m92e66131ca" y="138.87459"/>
     <use style="fill:#ff0000;stroke:#ff0000;" x="85.368676" xlink:href="#m92e66131ca" y="96.274495"/>
     <use style="fill:#ff0000;stroke:#ff0000;" x="87.016668" xlink:href="#m92e66131ca" y="96.274495"/>
     <use style="fill:#ff0000;stroke:#ff0000;" x="88.664661" xlink:href="#m92e66131ca" y="96.274495"/>
     <use style="fill:#ff0000;stroke:#ff0000;" x="90.312653" xlink:href="#m92e66131ca" y="141.59764"/>
     <use style="fill:#ff0000;stroke:#ff0000;" x="91.960646" xlink:href="#m92e66131ca" y="141.59764"/>
     <use style="fill:#ff0000;stroke:#ff0000;" x="93.608639" xlink:href="#m92e66131ca" y="141.59764"/>
     <use style="fill:#ff0000;stroke:#ff0000;" x="95.256631" xlink:href="#m92e66131ca" y="142.382871"/>
     <use style="fill:#ff0000;stroke:#ff0000;" x="96.904624" xlink:href="#m92e66131ca" y="142.382871"/>
     <use style="fill:#ff0000;stroke:#ff0000;" x="98.552617" xlink:href="#m92e66131ca" y="183.041231"/>
     <use style="fill:#ff0000;stroke:#ff0000;" x="100.200609" xlink:href="#m92e66131ca" y="183.041231"/>
     <use style="fill:#ff0000;stroke:#ff0000;" x="101.848602" xlink:href="#m92e66131ca" y="136.735509"/>
     <use style="fill:#ff0000;stroke:#ff0000;" x="103.496594" xlink:href="#m92e66131ca" y="136.735509"/>
     <use style="fill:#ff0000;stroke:#ff0000;" x="105.144587" xlink:href="#m92e66131ca" y="174.461911"/>
     <use style="fill:#ff0000;stroke:#ff0000;" x="106.79258" xlink:href="#m92e66131ca" y="174.461911"/>
     <use style="fill:#ff0000;stroke:#ff0000;" x="108.440572" xlink:href="#m92e66131ca" y="174.461911"/>
     <use style="fill:#ff0000;stroke:#ff0000;" x="110.088565" xlink:href="#m92e66131ca" y="212.48697"/>
     <use style="fill:#ff0000;stroke:#ff0000;" x="111.736557" xlink:href="#m92e66131ca" y="212.48697"/>
     <use style="fill:#ff0000;stroke:#ff0000;" x="113.38455" xlink:href="#m92e66131ca" y="226.17246"/>
     <use style="fill:#ff0000;stroke:#ff0000;" x="115.032543" xlink:href="#m92e66131ca" y="226.17246"/>
     <use style="fill:#ff0000;stroke:#ff0000;" x="116.680535" xlink:href="#m92e66131ca" y="226.17246"/>
     <use style="fill:#ff0000;stroke:#ff0000;" x="118.328528" xlink:href="#m92e66131ca" y="211.53496"/>
     <use style="fill:#ff0000;stroke:#ff0000;" x="119.976521" xlink:href="#m92e66131ca" y="211.53496"/>
     <use style="fill:#ff0000;stroke:#ff0000;" x="121.624513" xlink:href="#m92e66131ca" y="198.166765"/>
     <use style="fill:#ff0000;stroke:#ff0000;" x="123.272506" xlink:href="#m92e66131ca" y="198.166765"/>
     <use style="fill:#ff0000;stroke:#ff0000;" x="124.920498" xlink:href="#m92e66131ca" y="199.950528"/>
     <use style="fill:#ff0000;stroke:#ff0000;" x="126.568491" xlink:href="#m92e66131ca" y="199.950528"/>
     <use style="fill:#ff0000;stroke:#ff0000;" x="128.216484" xlink:href="#m92e66131ca" y="185.242842"/>
     <use style="fill:#ff0000;stroke:#ff0000;" x="129.864476" xlink:href="#m92e66131ca" y="185.242842"/>
     <use style="fill:#ff0000;stroke:#ff0000;" x="131.512469" xlink:href="#m92e66131ca" y="185.242842"/>
     <use style="fill:#ff0000;stroke:#ff0000;" x="133.160461" xlink:href="#m92e66131ca" y="181.906437"/>
     <use style="fill:#ff0000;stroke:#ff0000;" x="134.808454" xlink:href="#m92e66131ca" y="181.906437"/>
     <use style="fill:#ff0000;stroke:#ff0000;" x="136.456447" xlink:href="#m92e66131ca" y="167.544271"/>
     <use style="fill:#ff0000;stroke:#ff0000;" x="138.104439" xlink:href="#m92e66131ca" y="167.544271"/>
     <use style="fill:#ff0000;stroke:#ff0000;" x="139.752432" xlink:href="#m92e66131ca" y="167.544271"/>
     <use style="fill:#ff0000;stroke:#ff0000;" x="141.400425" xlink:href="#m92e66131ca" y="181.971182"/>
     <use style="fill:#ff0000;stroke:#ff0000;" x="143.048417" xlink:href="#m92e66131ca" y="181.971182"/>
     <use style="fill:#ff0000;stroke:#ff0000;" x="144.69641" xlink:href="#m92e66131ca" y="195.370597"/>
     <use style="fill:#ff0000;stroke:#ff0000;" x="146.344402" xlink:href="#m92e66131ca" y="195.370597"/>
     <use style="fill:#ff0000;stroke:#ff0000;" x="147.992395" xlink:href="#m92e66131ca" y="196.232081"/>
     <use style="fill:#ff0000;stroke:#ff0000;" x="149.640388" xlink:href="#m92e66131ca" y="196.232081"/>
     <use style="fill:#ff0000;stroke:#ff0000;" x="151.28838" xlink:href="#m92e66131ca" y="196.232081"/>
     <use style="fill:#ff0000;stroke:#ff0000;" x="152.936373" xlink:href="#m92e66131ca" y="196.232081"/>
     <use style="fill:#ff0000;stroke:#ff0000;" x="154.584365" xlink:href="#m92e66131ca" y="208.831268"/>
     <use style="fill:#ff0000;stroke:#ff0000;" x="156.232358" xlink:href="#m92e66131ca" y="208.831268"/>
     <use style="fill:#ff0000;stroke:#ff0000;" x="157.880351" xlink:href="#m92e66131ca" y="194.940248"/>
     <use style="fill:#ff0000;stroke:#ff0000;" x="159.528343" xlink:href="#m92e66131ca" y="207.359582"/>
     <use style="fill:#ff0000;stroke:#ff0000;" x="161.176336" xlink:href="#m92e66131ca" y="207.359582"/>
     <use style="fill:#ff0000;stroke:#ff0000;" x="162.824329" xlink:href="#m92e66131ca" y="207.359582"/>
     <use style="fill:#ff0000;stroke:#ff0000;" x="164.472321" xlink:href="#m92e66131ca" y="221.114571"/>
     <use style="fill:#ff0000;stroke:#ff0000;" x="166.120314" xlink:href="#m92e66131ca" y="221.114571"/>
     <use style="fill:#ff0000;stroke:#ff0000;" x="167.768306" xlink:href="#m92e66131ca" y="221.114571"/>
     <use style="fill:#ff0000;stroke:#ff0000;" x="169.416299" xlink:href="#m92e66131ca" y="221.114571"/>
     <use style="fill:#ff0000;stroke:#ff0000;" x="171.064292" xlink:href="#m92e66131ca" y="205.983617"/>
     <use style="fill:#ff0000;stroke:#ff0000;" x="172.712284" xlink:href="#m92e66131ca" y="205.983617"/>
     <use style="fill:#ff0000;stroke:#ff0000;" x="174.360277" xlink:href="#m92e66131ca" y="205.983617"/>
     <use style="fill:#ff0000;stroke:#ff0000;" x="176.008269" xlink:href="#m92e66131ca" y="205.983617"/>
     <use style="fill:#ff0000;stroke:#ff0000;" x="177.656262" xlink:href="#m92e66131ca" y="205.983617"/>
     <use style="fill:#ff0000;stroke:#ff0000;" x="179.304255" xlink:href="#m92e66131ca" y="207.668683"/>
     <use style="fill:#ff0000;stroke:#ff0000;" x="180.952247" xlink:href="#m92e66131ca" y="207.668683"/>
     <use style="fill:#ff0000;stroke:#ff0000;" x="182.60024" xlink:href="#m92e66131ca" y="192.41358"/>
     <use style="fill:#ff0000;stroke:#ff0000;" x="184.248233" xlink:href="#m92e66131ca" y="204.923882"/>
     <use style="fill:#ff0000;stroke:#ff0000;" x="185.896225" xlink:href="#m92e66131ca" y="204.923882"/>
     <use style="fill:#ff0000;stroke:#ff0000;" x="187.544218" xlink:href="#m92e66131ca" y="204.923882"/>
     <use style="fill:#ff0000;stroke:#ff0000;" x="189.19221" xlink:href="#m92e66131ca" y="206.347632"/>
     <use style="fill:#ff0000;stroke:#ff0000;" x="190.840203" xlink:href="#m92e66131ca" y="206.347632"/>
     <use style="fill:#ff0000;stroke:#ff0000;" x="192.488196" xlink:href="#m92e66131ca" y="219.35467"/>
     <use style="fill:#ff0000;stroke:#ff0000;" x="194.136188" xlink:href="#m92e66131ca" y="233.027688"/>
     <use style="fill:#ff0000;stroke:#ff0000;" x="195.784181" xlink:href="#m92e66131ca" y="233.027688"/>
     <use style="fill:#ff0000;stroke:#ff0000;" x="197.432174" xlink:href="#m92e66131ca" y="233.027688"/>
     <use style="fill:#ff0000;stroke:#ff0000;" x="199.080166" xlink:href="#m92e66131ca" y="219.715108"/>
     <use style="fill:#ff0000;stroke:#ff0000;" x="200.728159" xlink:href="#m92e66131ca" y="219.715108"/>
     <use style="fill:#ff0000;stroke:#ff0000;" x="202.376151" xlink:href="#m92e66131ca" y="203.548923"/>
     <use style="fill:#ff0000;stroke:#ff0000;" x="204.024144" xlink:href="#m92e66131ca" y="203.548923"/>
     <use style="fill:#ff0000;stroke:#ff0000;" x="205.672137" xlink:href="#m92e66131ca" y="216.348912"/>
     <use style="fill:#ff0000;stroke:#ff0000;" x="207.320129" xlink:href="#m92e66131ca" y="216.696802"/>
     <use style="fill:#ff0000;stroke:#ff0000;" x="208.968122" xlink:href="#m92e66131ca" y="216.696802"/>
     <use style="fill:#ff0000;stroke:#ff0000;" x="210.616114" xlink:href="#m92e66131ca" y="216.696802"/>
     <use style="fill:#ff0000;stroke:#ff0000;" x="212.264107" xlink:href="#m92e66131ca" y="216.696802"/>
     <use style="fill:#ff0000;stroke:#ff0000;" x="213.9121" xlink:href="#m92e66131ca" y="216.696904"/>
     <use style="fill:#ff0000;stroke:#ff0000;" x="215.560092" xlink:href="#m92e66131ca" y="216.696904"/>
     <use style="fill:#ff0000;stroke:#ff0000;" x="217.208085" xlink:href="#m92e66131ca" y="230.952434"/>
     <use style="fill:#ff0000;stroke:#ff0000;" x="218.856078" xlink:href="#m92e66131ca" y="230.952434"/>
     <use style="fill:#ff0000;stroke:#ff0000;" x="220.50407" xlink:href="#m92e66131ca" y="244.339145"/>
     <use style="fill:#ff0000;stroke:#ff0000;" x="222.152063" xlink:href="#m92e66131ca" y="256.239138"/>
     <use style="fill:#ff0000;stroke:#ff0000;" x="223.800055" xlink:href="#m92e66131ca" y="256.239138"/>
     <use style="fill:#ff0000;stroke:#ff0000;" x="225.448048" xlink:href="#m92e66131ca" y="269.348286"/>
     <use style="fill:#ff0000;stroke:#ff0000;" x="227.096041" xlink:href="#m92e66131ca" y="269.348286"/>
     <use style="fill:#ff0000;stroke:#ff0000;" x="228.744033" xlink:href="#m92e66131ca" y="270.164892"/>
     <use style="fill:#ff0000;stroke:#ff0000;" x="230.392026" xlink:href="#m92e66131ca" y="270.164892"/>
     <use style="fill:#ff0000;stroke:#ff0000;" x="232.040018" xlink:href="#m92e66131ca" y="283.449913"/>
     <use style="fill:#ff0000;stroke:#ff0000;" x="233.688011" xlink:href="#m92e66131ca" y="295.488"/>
     <use style="fill:#ff0000;stroke:#ff0000;" x="235.336004" xlink:href="#m92e66131ca" y="295.488"/>
     <use style="fill:#ff0000;stroke:#ff0000;" x="236.983996" xlink:href="#m92e66131ca" y="280.021419"/>
     <use style="fill:#ff0000;stroke:#ff0000;" x="238.631989" xlink:href="#m92e66131ca" y="280.021419"/>
     <use style="fill:#ff0000;stroke:#ff0000;" x="240.279982" xlink:href="#m92e66131ca" y="293.207869"/>
     <use style="fill:#ff0000;stroke:#ff0000;" x="241.927974" xlink:href="#m92e66131ca" y="293.207869"/>
     <use style="fill:#ff0000;stroke:#ff0000;" x="243.575967" xlink:href="#m92e66131ca" y="277.398442"/>
     <use style="fill:#ff0000;stroke:#ff0000;" x="245.223959" xlink:href="#m92e66131ca" y="277.398442"/>
     <use style="fill:#ff0000;stroke:#ff0000;" x="246.871952" xlink:href="#m92e66131ca" y="261.116679"/>
     <use style="fill:#ff0000;stroke:#ff0000;" x="248.519945" xlink:href="#m92e66131ca" y="261.116679"/>
     <use style="fill:#ff0000;stroke:#ff0000;" x="250.167937" xlink:href="#m92e66131ca" y="261.116679"/>
     <use style="fill:#ff0000;stroke:#ff0000;" x="251.81593" xlink:href="#m92e66131ca" y="245.204985"/>
     <use style="fill:#ff0000;stroke:#ff0000;" x="253.463922" xlink:href="#m92e66131ca" y="245.204985"/>
     <use style="fill:#ff0000;stroke:#ff0000;" x="255.111915" xlink:href="#m92e66131ca" y="245.204985"/>
     <use style="fill:#ff0000;stroke:#ff0000;" x="256.759908" xlink:href="#m92e66131ca" y="245.204985"/>
     <use style="fill:#ff0000;stroke:#ff0000;" x="258.4079" xlink:href="#m92e66131ca" y="245.204985"/>
     <use style="fill:#ff0000;stroke:#ff0000;" x="260.055893" xlink:href="#m92e66131ca" y="245.204985"/>
     <use style="fill:#ff0000;stroke:#ff0000;" x="261.703886" xlink:href="#m92e66131ca" y="245.204985"/>
     <use style="fill:#ff0000;stroke:#ff0000;" x="263.351878" xlink:href="#m92e66131ca" y="245.204985"/>
     <use style="fill:#ff0000;stroke:#ff0000;" x="264.999871" xlink:href="#m92e66131ca" y="245.204985"/>
     <use style="fill:#ff0000;stroke:#ff0000;" x="266.647863" xlink:href="#m92e66131ca" y="229.106105"/>
     <use style="fill:#ff0000;stroke:#ff0000;" x="268.295856" xlink:href="#m92e66131ca" y="215.285458"/>
     <use style="fill:#ff0000;stroke:#ff0000;" x="269.943849" xlink:href="#m92e66131ca" y="215.285458"/>
     <use style="fill:#ff0000;stroke:#ff0000;" x="271.591841" xlink:href="#m92e66131ca" y="210.739256"/>
     <use style="fill:#ff0000;stroke:#ff0000;" x="273.239834" xlink:href="#m92e66131ca" y="210.739256"/>
     <use style="fill:#ff0000;stroke:#ff0000;" x="274.887826" xlink:href="#m92e66131ca" y="207.778948"/>
     <use style="fill:#ff0000;stroke:#ff0000;" x="276.535819" xlink:href="#m92e66131ca" y="207.778948"/>
     <use style="fill:#ff0000;stroke:#ff0000;" x="278.183812" xlink:href="#m92e66131ca" y="193.361311"/>
     <use style="fill:#ff0000;stroke:#ff0000;" x="279.831804" xlink:href="#m92e66131ca" y="193.361311"/>
     <use style="fill:#ff0000;stroke:#ff0000;" x="281.479797" xlink:href="#m92e66131ca" y="193.361311"/>
     <use style="fill:#ff0000;stroke:#ff0000;" x="283.12779" xlink:href="#m92e66131ca" y="194.198011"/>
     <use style="fill:#ff0000;stroke:#ff0000;" x="284.775782" xlink:href="#m92e66131ca" y="194.198011"/>
     <use style="fill:#ff0000;stroke:#ff0000;" x="286.423775" xlink:href="#m92e66131ca" y="180.678732"/>
     <use style="fill:#ff0000;stroke:#ff0000;" x="288.071767" xlink:href="#m92e66131ca" y="180.678732"/>
     <use style="fill:#ff0000;stroke:#ff0000;" x="289.71976" xlink:href="#m92e66131ca" y="193.50236"/>
     <use style="fill:#ff0000;stroke:#ff0000;" x="291.367753" xlink:href="#m92e66131ca" y="178.582556"/>
     <use style="fill:#ff0000;stroke:#ff0000;" x="293.015745" xlink:href="#m92e66131ca" y="178.582556"/>
     <use style="fill:#ff0000;stroke:#ff0000;" x="294.663738" xlink:href="#m92e66131ca" y="178.582556"/>
     <use style="fill:#ff0000;stroke:#ff0000;" x="296.311731" xlink:href="#m92e66131ca" y="178.582556"/>
     <use style="fill:#ff0000;stroke:#ff0000;" x="297.959723" xlink:href="#m92e66131ca" y="177.067227"/>
     <use style="fill:#ff0000;stroke:#ff0000;" x="299.607716" xlink:href="#m92e66131ca" y="164.413433"/>
     <use style="fill:#ff0000;stroke:#ff0000;" x="301.255708" xlink:href="#m92e66131ca" y="164.413433"/>
     <use style="fill:#ff0000;stroke:#ff0000;" x="302.903701" xlink:href="#m92e66131ca" y="175.267962"/>
     <use style="fill:#ff0000;stroke:#ff0000;" x="304.551694" xlink:href="#m92e66131ca" y="175.267962"/>
     <use style="fill:#ff0000;stroke:#ff0000;" x="306.199686" xlink:href="#m92e66131ca" y="187.938035"/>
     <use style="fill:#ff0000;stroke:#ff0000;" x="307.847679" xlink:href="#m92e66131ca" y="187.938035"/>
     <use style="fill:#ff0000;stroke:#ff0000;" x="309.495671" xlink:href="#m92e66131ca" y="183.805065"/>
     <use style="fill:#ff0000;stroke:#ff0000;" x="311.143664" xlink:href="#m92e66131ca" y="183.805065"/>
     <use style="fill:#ff0000;stroke:#ff0000;" x="312.791657" xlink:href="#m92e66131ca" y="183.805065"/>
     <use style="fill:#ff0000;stroke:#ff0000;" x="314.439649" xlink:href="#m92e66131ca" y="169.551543"/>
     <use style="fill:#ff0000;stroke:#ff0000;" x="316.087642" xlink:href="#m92e66131ca" y="169.551543"/>
     <use style="fill:#ff0000;stroke:#ff0000;" x="317.735635" xlink:href="#m92e66131ca" y="171.405564"/>
     <use style="fill:#ff0000;stroke:#ff0000;" x="319.383627" xlink:href="#m92e66131ca" y="157.743134"/>
     <use style="fill:#ff0000;stroke:#ff0000;" x="321.03162" xlink:href="#m92e66131ca" y="157.743134"/>
     <use style="fill:#ff0000;stroke:#ff0000;" x="322.679612" xlink:href="#m92e66131ca" y="142.50344"/>
     <use style="fill:#ff0000;stroke:#ff0000;" x="324.327605" xlink:href="#m92e66131ca" y="142.50344"/>
     <use style="fill:#ff0000;stroke:#ff0000;" x="325.975598" xlink:href="#m92e66131ca" y="142.50344"/>
     <use style="fill:#ff0000;stroke:#ff0000;" x="327.62359" xlink:href="#m92e66131ca" y="155.55445"/>
     <use style="fill:#ff0000;stroke:#ff0000;" x="329.271583" xlink:href="#m92e66131ca" y="155.55445"/>
     <use style="fill:#ff0000;stroke:#ff0000;" x="330.919575" xlink:href="#m92e66131ca" y="155.55445"/>
     <use style="fill:#ff0000;stroke:#ff0000;" x="332.567568" xlink:href="#m92e66131ca" y="140.375821"/>
     <use style="fill:#ff0000;stroke:#ff0000;" x="334.215561" xlink:href="#m92e66131ca" y="140.375821"/>
     <use style="fill:#ff0000;stroke:#ff0000;" x="335.863553" xlink:href="#m92e66131ca" y="128.083938"/>
     <use style="fill:#ff0000;stroke:#ff0000;" x="337.511546" xlink:href="#m92e66131ca" y="128.083938"/>
     <use style="fill:#ff0000;stroke:#ff0000;" x="339.159539" xlink:href="#m92e66131ca" y="128.083938"/>
     <use style="fill:#ff0000;stroke:#ff0000;" x="340.807531" xlink:href="#m92e66131ca" y="141.054782"/>
     <use style="fill:#ff0000;stroke:#ff0000;" x="342.455524" xlink:href="#m92e66131ca" y="153.404351"/>
     <use style="fill:#ff0000;stroke:#ff0000;" x="344.103516" xlink:href="#m92e66131ca" y="153.404351"/>
     <use style="fill:#ff0000;stroke:#ff0000;" x="345.751509" xlink:href="#m92e66131ca" y="149.195868"/>
     <use style="fill:#ff0000;stroke:#ff0000;" x="347.399502" xlink:href="#m92e66131ca" y="149.195868"/>
     <use style="fill:#ff0000;stroke:#ff0000;" x="349.047494" xlink:href="#m92e66131ca" y="162.356632"/>
     <use style="fill:#ff0000;stroke:#ff0000;" x="350.695487" xlink:href="#m92e66131ca" y="162.356632"/>
     <use style="fill:#ff0000;stroke:#ff0000;" x="352.343479" xlink:href="#m92e66131ca" y="148.284876"/>
     <use style="fill:#ff0000;stroke:#ff0000;" x="353.991472" xlink:href="#m92e66131ca" y="148.284876"/>
     <use style="fill:#ff0000;stroke:#ff0000;" x="355.639465" xlink:href="#m92e66131ca" y="161.276018"/>
     <use style="fill:#ff0000;stroke:#ff0000;" x="357.287457" xlink:href="#m92e66131ca" y="174.02648"/>
     <use style="fill:#ff0000;stroke:#ff0000;" x="358.93545" xlink:href="#m92e66131ca" y="174.02648"/>
     <use style="fill:#ff0000;stroke:#ff0000;" x="360.583443" xlink:href="#m92e66131ca" y="174.02648"/>
     <use style="fill:#ff0000;stroke:#ff0000;" x="362.231435" xlink:href="#m92e66131ca" y="172.200489"/>
     <use style="fill:#ff0000;stroke:#ff0000;" x="363.879428" xlink:href="#m92e66131ca" y="172.200489"/>
     <use style="fill:#ff0000;stroke:#ff0000;" x="365.52742" xlink:href="#m92e66131ca" y="172.200489"/>
     <use style="fill:#ff0000;stroke:#ff0000;" x="367.175413" xlink:href="#m92e66131ca" y="184.887225"/>
     <use style="fill:#ff0000;stroke:#ff0000;" x="368.823406" xlink:href="#m92e66131ca" y="199.750484"/>
     <use style="fill:#ff0000;stroke:#ff0000;" x="370.471398" xlink:href="#m92e66131ca" y="199.750484"/>
     <use style="fill:#ff0000;stroke:#ff0000;" x="372.119391" xlink:href="#m92e66131ca" y="212.678223"/>
     <use style="fill:#ff0000;stroke:#ff0000;" x="373.767383" xlink:href="#m92e66131ca" y="212.678223"/>
     <use style="fill:#ff0000;stroke:#ff0000;" x="375.415376" xlink:href="#m92e66131ca" y="225.210224"/>
     <use style="fill:#ff0000;stroke:#ff0000;" x="377.063369" xlink:href="#m92e66131ca" y="225.210224"/>
     <use style="fill:#ff0000;stroke:#ff0000;" x="378.711361" xlink:href="#m92e66131ca" y="237.340593"/>
     <use style="fill:#ff0000;stroke:#ff0000;" x="380.359354" xlink:href="#m92e66131ca" y="237.340593"/>
     <use style="fill:#ff0000;stroke:#ff0000;" x="382.007347" xlink:href="#m92e66131ca" y="237.340593"/>
     <use style="fill:#ff0000;stroke:#ff0000;" x="383.655339" xlink:href="#m92e66131ca" y="237.340593"/>
     <use style="fill:#ff0000;stroke:#ff0000;" x="385.303332" xlink:href="#m92e66131ca" y="237.340593"/>
     <use style="fill:#ff0000;stroke:#ff0000;" x="386.951324" xlink:href="#m92e66131ca" y="237.340593"/>
     <use style="fill:#ff0000;stroke:#ff0000;" x="388.599317" xlink:href="#m92e66131ca" y="237.340593"/>
     <use style="fill:#ff0000;stroke:#ff0000;" x="390.24731" xlink:href="#m92e66131ca" y="237.340593"/>
     <use style="fill:#ff0000;stroke:#ff0000;" x="391.895302" xlink:href="#m92e66131ca" y="237.340593"/>
     <use style="fill:#ff0000;stroke:#ff0000;" x="393.543295" xlink:href="#m92e66131ca" y="237.340593"/>
     <use style="fill:#ff0000;stroke:#ff0000;" x="395.191287" xlink:href="#m92e66131ca" y="237.340593"/>
     <use style="fill:#ff0000;stroke:#ff0000;" x="396.83928" xlink:href="#m92e66131ca" y="237.340593"/>
     <use style="fill:#ff0000;stroke:#ff0000;" x="398.487273" xlink:href="#m92e66131ca" y="237.340593"/>
    </g>
   </g>
   <g id="patch_3">
    <path d="M 57.6 307.584 
L 57.6 41.472 
" style="fill:none;stroke:#000000;stroke-linecap:square;stroke-linejoin:miter;stroke-width:0.8;"/>
   </g>
   <g id="patch_4">
    <path d="M 414.72 307.584 
L 414.72 41.472 
" style="fill:none;stroke:#000000;stroke-linecap:square;stroke-linejoin:miter;stroke-width:0.8;"/>
   </g>
   <g id="patch_5">
    <path d="M 57.6 307.584 
L 414.72 307.584 
" style="fill:none;stroke:#000000;stroke-linecap:square;stroke-linejoin:miter;stroke-width:0.8;"/>
   </g>
   <g id="patch_6">
    <path d="M 57.6 41.472 
L 414.72 41.472 
" style="fill:none;stroke:#000000;stroke-linecap:square;stroke-linejoin:miter;stroke-width:0.8;"/>
   </g>
  </g>
 </g>
 <defs>
  <clipPath id="pe9643c902f">
   <rect height="266.112" width="357.12" x="57.6" y="41.472"/>
  </clipPath>
 </defs>
</svg>
