<?xml version="1.0" encoding="utf-8" standalone="no"?>
<!DOCTYPE svg PUBLIC "-//W3C//DTD SVG 1.1//EN"
  "http://www.w3.org/Graphics/SVG/1.1/DTD/svg11.dtd">
<!-- Created with matplotlib (https://matplotlib.org/) -->
<svg height="345.6pt" version="1.1" viewBox="0 0 460.8 345.6" width="460.8pt" xmlns="http://www.w3.org/2000/svg" xmlns:xlink="http://www.w3.org/1999/xlink">
 <defs>
  <style type="text/css">
*{stroke-linecap:butt;stroke-linejoin:round;}
  </style>
 </defs>
 <g id="figure_1">
  <g id="patch_1">
   <path d="M 0 345.6 
L 460.8 345.6 
L 460.8 0 
L 0 0 
z
" style="fill:#ffffff;"/>
  </g>
  <g id="axes_1">
   <g id="patch_2">
    <path d="M 57.6 307.584 
L 414.72 307.584 
L 414.72 41.472 
L 57.6 41.472 
z
" style="fill:#ffffff;"/>
   </g>
   <g id="line2d_1">
    <path clip-path="url(#pd6c2266d24)" d="M 73.832727 95.418326 
L 75.315168 53.568 
L 76.797609 53.568 
L 78.28005 95.418326 
L 81.244932 95.418326 
L 82.727372 138.87459 
L 84.209813 96.274495 
L 87.174695 96.274495 
L 88.657136 141.59764 
L 91.622017 141.59764 
L 93.104458 142.382871 
L 94.586899 142.382871 
L 96.06934 183.041231 
L 97.551781 183.041231 
L 99.034222 136.735509 
L 100.516663 136.735509 
L 101.999103 174.461911 
L 104.963985 174.461911 
L 106.446426 212.48697 
L 107.928867 212.48697 
L 109.411308 226.17246 
L 112.376189 226.17246 
L 113.85863 211.53496 
L 115.341071 211.53496 
L 116.823512 198.166765 
L 118.305953 198.166765 
L 119.788394 199.950528 
L 121.270834 199.950528 
L 122.753275 185.242842 
L 125.718157 185.242842 
L 127.200598 181.906437 
L 128.683039 181.906437 
L 130.165479 167.544271 
L 133.130361 167.544271 
L 134.612802 181.971182 
L 136.095243 181.971182 
L 137.577684 195.370597 
L 139.060125 195.370597 
L 140.542565 196.232081 
L 144.989888 196.232081 
L 146.472329 208.831268 
L 147.95477 208.831268 
L 149.43721 194.940248 
L 150.919651 207.359582 
L 153.884533 207.359582 
L 155.366974 221.114571 
L 159.814296 221.114571 
L 161.296737 205.983617 
L 167.226501 205.983617 
L 168.708941 207.668683 
L 170.191382 207.668683 
L 171.673823 192.41358 
L 173.156264 204.923882 
L 176.121146 204.923882 
L 177.603587 206.347632 
L 179.086027 206.347632 
L 182.050909 233.027688 
L 185.015791 233.027688 
L 186.498232 219.715108 
L 187.980672 219.715108 
L 189.463113 203.548923 
L 190.945554 203.548923 
L 192.427995 216.348912 
L 193.910436 216.696802 
L 201.32264 216.696904 
L 202.805081 230.952434 
L 204.287522 230.952434 
L 205.769963 244.339145 
L 207.252403 256.239138 
L 208.734844 256.239138 
L 210.217285 269.348286 
L 211.699726 269.348286 
L 213.182167 270.164892 
L 214.664608 270.164892 
L 216.147049 283.449913 
L 217.629489 295.488 
L 219.11193 295.488 
L 220.594371 280.021419 
L 222.076812 280.021419 
L 223.559253 293.207869 
L 225.041694 293.207869 
L 226.524134 277.398442 
L 228.006575 277.398442 
L 229.489016 261.116679 
L 232.453898 261.116679 
L 233.936339 245.204985 
L 245.795866 245.204985 
L 247.278306 229.106105 
L 248.760747 215.285458 
L 250.243188 215.285458 
L 251.725629 210.739256 
L 253.20807 210.739256 
L 254.690511 207.778948 
L 256.172951 207.778948 
L 257.655392 193.361311 
L 260.620274 193.361311 
L 262.102715 194.198011 
L 263.585156 194.198011 
L 265.067597 180.678732 
L 266.550037 180.678732 
L 268.032478 193.50236 
L 269.514919 178.582556 
L 273.962242 178.582556 
L 275.444682 177.067227 
L 276.927123 164.413433 
L 278.409564 164.413433 
L 279.892005 175.267962 
L 281.374446 175.267962 
L 282.856887 187.938035 
L 284.339328 187.938035 
L 285.821768 183.805065 
L 288.78665 183.805065 
L 290.269091 169.551543 
L 291.751532 169.551543 
L 293.233973 171.405564 
L 294.716413 157.743134 
L 296.198854 157.743134 
L 297.681295 142.50344 
L 300.646177 142.50344 
L 302.128618 155.55445 
L 305.093499 155.55445 
L 306.57594 140.375821 
L 308.058381 140.375821 
L 309.540822 128.083938 
L 312.505704 128.083938 
L 315.470585 153.404351 
L 316.953026 153.404351 
L 318.435467 149.195868 
L 319.917908 149.195868 
L 321.400349 162.356632 
L 322.88279 162.356632 
L 324.36523 148.284876 
L 325.847671 148.284876 
L 328.812553 174.02648 
L 331.777435 174.02648 
L 333.259875 172.200489 
L 336.224757 172.200489 
L 337.707198 184.887225 
L 339.189639 199.750484 
L 340.67208 199.750484 
L 342.154521 212.678223 
L 343.636961 212.678223 
L 345.119402 225.210224 
L 346.601843 225.210224 
L 348.084284 237.340593 
L 398.487273 237.340593 
L 398.487273 237.340593 
" style="fill:none;stroke:#ff0000;stroke-linecap:square;stroke-width:12;"/>
    <defs>
     <path d="M 0 3 
C 0.795609 3 1.55874 2.683901 2.12132 2.12132 
C 2.683901 1.55874 3 0.795609 3 0 
C 3 -0.795609 2.683901 -1.55874 2.12132 -2.12132 
C 1.55874 -2.683901 0.795609 -3 0 -3 
C -0.795609 -3 -1.55874 -2.683901 -2.12132 -2.12132 
C -2.683901 -1.55874 -3 -0.795609 -3 0 
C -3 0.795609 -2.683901 1.55874 -2.12132 2.12132 
C -1.55874 2.683901 -0.795609 3 0 3 
z
" id="m741329bc8f" style="stroke:#ff0000;"/>
    </defs>
    <g clip-path="url(#pd6c2266d24)">
     <use style="fill:#ff0000;stroke:#ff0000;" x="73.832727" xlink:href="#m741329bc8f" y="95.418326"/>
     <use style="fill:#ff0000;stroke:#ff0000;" x="75.315168" xlink:href="#m741329bc8f" y="53.568"/>
     <use style="fill:#ff0000;stroke:#ff0000;" x="76.797609" xlink:href="#m741329bc8f" y="53.568"/>
     <use style="fill:#ff0000;stroke:#ff0000;" x="78.28005" xlink:href="#m741329bc8f" y="95.418326"/>
     <use style="fill:#ff0000;stroke:#ff0000;" x="79.762491" xlink:href="#m741329bc8f" y="95.418326"/>
     <use style="fill:#ff0000;stroke:#ff0000;" x="81.244932" xlink:href="#m741329bc8f" y="95.418326"/>
     <use style="fill:#ff0000;stroke:#ff0000;" x="82.727372" xlink:href="#m741329bc8f" y="138.87459"/>
     <use style="fill:#ff0000;stroke:#ff0000;" x="84.209813" xlink:href="#m741329bc8f" y="96.274495"/>
     <use style="fill:#ff0000;stroke:#ff0000;" x="85.692254" xlink:href="#m741329bc8f" y="96.274495"/>
     <use style="fill:#ff0000;stroke:#ff0000;" x="87.174695" xlink:href="#m741329bc8f" y="96.274495"/>
     <use style="fill:#ff0000;stroke:#ff0000;" x="88.657136" xlink:href="#m741329bc8f" y="141.59764"/>
     <use style="fill:#ff0000;stroke:#ff0000;" x="90.139577" xlink:href="#m741329bc8f" y="141.59764"/>
     <use style="fill:#ff0000;stroke:#ff0000;" x="91.622017" xlink:href="#m741329bc8f" y="141.59764"/>
     <use style="fill:#ff0000;stroke:#ff0000;" x="93.104458" xlink:href="#m741329bc8f" y="142.382871"/>
     <use style="fill:#ff0000;stroke:#ff0000;" x="94.586899" xlink:href="#m741329bc8f" y="142.382871"/>
     <use style="fill:#ff0000;stroke:#ff0000;" x="96.06934" xlink:href="#m741329bc8f" y="183.041231"/>
     <use style="fill:#ff0000;stroke:#ff0000;" x="97.551781" xlink:href="#m741329bc8f" y="183.041231"/>
     <use style="fill:#ff0000;stroke:#ff0000;" x="99.034222" xlink:href="#m741329bc8f" y="136.735509"/>
     <use style="fill:#ff0000;stroke:#ff0000;" x="100.516663" xlink:href="#m741329bc8f" y="136.735509"/>
     <use style="fill:#ff0000;stroke:#ff0000;" x="101.999103" xlink:href="#m741329bc8f" y="174.461911"/>
     <use style="fill:#ff0000;stroke:#ff0000;" x="103.481544" xlink:href="#m741329bc8f" y="174.461911"/>
     <use style="fill:#ff0000;stroke:#ff0000;" x="104.963985" xlink:href="#m741329bc8f" y="174.461911"/>
     <use style="fill:#ff0000;stroke:#ff0000;" x="106.446426" xlink:href="#m741329bc8f" y="212.48697"/>
     <use style="fill:#ff0000;stroke:#ff0000;" x="107.928867" xlink:href="#m741329bc8f" y="212.48697"/>
     <use style="fill:#ff0000;stroke:#ff0000;" x="109.411308" xlink:href="#m741329bc8f" y="226.17246"/>
     <use style="fill:#ff0000;stroke:#ff0000;" x="110.893748" xlink:href="#m741329bc8f" y="226.17246"/>
     <use style="fill:#ff0000;stroke:#ff0000;" x="112.376189" xlink:href="#m741329bc8f" y="226.17246"/>
     <use style="fill:#ff0000;stroke:#ff0000;" x="113.85863" xlink:href="#m741329bc8f" y="211.53496"/>
     <use style="fill:#ff0000;stroke:#ff0000;" x="115.341071" xlink:href="#m741329bc8f" y="211.53496"/>
     <use style="fill:#ff0000;stroke:#ff0000;" x="116.823512" xlink:href="#m741329bc8f" y="198.166765"/>
     <use style="fill:#ff0000;stroke:#ff0000;" x="118.305953" xlink:href="#m741329bc8f" y="198.166765"/>
     <use style="fill:#ff0000;stroke:#ff0000;" x="119.788394" xlink:href="#m741329bc8f" y="199.950528"/>
     <use style="fill:#ff0000;stroke:#ff0000;" x="121.270834" xlink:href="#m741329bc8f" y="199.950528"/>
     <use style="fill:#ff0000;stroke:#ff0000;" x="122.753275" xlink:href="#m741329bc8f" y="185.242842"/>
     <use style="fill:#ff0000;stroke:#ff0000;" x="124.235716" xlink:href="#m741329bc8f" y="185.242842"/>
     <use style="fill:#ff0000;stroke:#ff0000;" x="125.718157" xlink:href="#m741329bc8f" y="185.242842"/>
     <use style="fill:#ff0000;stroke:#ff0000;" x="127.200598" xlink:href="#m741329bc8f" y="181.906437"/>
     <use style="fill:#ff0000;stroke:#ff0000;" x="128.683039" xlink:href="#m741329bc8f" y="181.906437"/>
     <use style="fill:#ff0000;stroke:#ff0000;" x="130.165479" xlink:href="#m741329bc8f" y="167.544271"/>
     <use style="fill:#ff0000;stroke:#ff0000;" x="131.64792" xlink:href="#m741329bc8f" y="167.544271"/>
     <use style="fill:#ff0000;stroke:#ff0000;" x="133.130361" xlink:href="#m741329bc8f" y="167.544271"/>
     <use style="fill:#ff0000;stroke:#ff0000;" x="134.612802" xlink:href="#m741329bc8f" y="181.971182"/>
     <use style="fill:#ff0000;stroke:#ff0000;" x="136.095243" xlink:href="#m741329bc8f" y="181.971182"/>
     <use style="fill:#ff0000;stroke:#ff0000;" x="137.577684" xlink:href="#m741329bc8f" y="195.370597"/>
     <use style="fill:#ff0000;stroke:#ff0000;" x="139.060125" xlink:href="#m741329bc8f" y="195.370597"/>
     <use style="fill:#ff0000;stroke:#ff0000;" x="140.542565" xlink:href="#m741329bc8f" y="196.232081"/>
     <use style="fill:#ff0000;stroke:#ff0000;" x="142.025006" xlink:href="#m741329bc8f" y="196.232081"/>
     <use style="fill:#ff0000;stroke:#ff0000;" x="143.507447" xlink:href="#m741329bc8f" y="196.232081"/>
     <use style="fill:#ff0000;stroke:#ff0000;" x="144.989888" xlink:href="#m741329bc8f" y="196.232081"/>
     <use style="fill:#ff0000;stroke:#ff0000;" x="146.472329" xlink:href="#m741329bc8f" y="208.831268"/>
     <use style="fill:#ff0000;stroke:#ff0000;" x="147.95477" xlink:href="#m741329bc8f" y="208.831268"/>
     <use style="fill:#ff0000;stroke:#ff0000;" x="149.43721" xlink:href="#m741329bc8f" y="194.940248"/>
     <use style="fill:#ff0000;stroke:#ff0000;" x="150.919651" xlink:href="#m741329bc8f" y="207.359582"/>
     <use style="fill:#ff0000;stroke:#ff0000;" x="152.402092" xlink:href="#m741329bc8f" y="207.359582"/>
     <use style="fill:#ff0000;stroke:#ff0000;" x="153.884533" xlink:href="#m741329bc8f" y="207.359582"/>
     <use style="fill:#ff0000;stroke:#ff0000;" x="155.366974" xlink:href="#m741329bc8f" y="221.114571"/>
     <use style="fill:#ff0000;stroke:#ff0000;" x="156.849415" xlink:href="#m741329bc8f" y="221.114571"/>
     <use style="fill:#ff0000;stroke:#ff0000;" x="158.331856" xlink:href="#m741329bc8f" y="221.114571"/>
     <use style="fill:#ff0000;stroke:#ff0000;" x="159.814296" xlink:href="#m741329bc8f" y="221.114571"/>
     <use style="fill:#ff0000;stroke:#ff0000;" x="161.296737" xlink:href="#m741329bc8f" y="205.983617"/>
     <use style="fill:#ff0000;stroke:#ff0000;" x="162.779178" xlink:href="#m741329bc8f" y="205.983617"/>
     <use style="fill:#ff0000;stroke:#ff0000;" x="164.261619" xlink:href="#m741329bc8f" y="205.983617"/>
     <use style="fill:#ff0000;stroke:#ff0000;" x="165.74406" xlink:href="#m741329bc8f" y="205.983617"/>
     <use style="fill:#ff0000;stroke:#ff0000;" x="167.226501" xlink:href="#m741329bc8f" y="205.983617"/>
     <use style="fill:#ff0000;stroke:#ff0000;" x="168.708941" xlink:href="#m741329bc8f" y="207.668683"/>
     <use style="fill:#ff0000;stroke:#ff0000;" x="170.191382" xlink:href="#m741329bc8f" y="207.668683"/>
     <use style="fill:#ff0000;stroke:#ff0000;" x="171.673823" xlink:href="#m741329bc8f" y="192.41358"/>
     <use style="fill:#ff0000;stroke:#ff0000;" x="173.156264" xlink:href="#m741329bc8f" y="204.923882"/>
     <use style="fill:#ff0000;stroke:#ff0000;" x="174.638705" xlink:href="#m741329bc8f" y="204.923882"/>
     <use style="fill:#ff0000;stroke:#ff0000;" x="176.121146" xlink:href="#m741329bc8f" y="204.923882"/>
     <use style="fill:#ff0000;stroke:#ff0000;" x="177.603587" xlink:href="#m741329bc8f" y="206.347632"/>
     <use style="fill:#ff0000;stroke:#ff0000;" x="179.086027" xlink:href="#m741329bc8f" y="206.347632"/>
     <use style="fill:#ff0000;stroke:#ff0000;" x="180.568468" xlink:href="#m741329bc8f" y="219.35467"/>
     <use style="fill:#ff0000;stroke:#ff0000;" x="182.050909" xlink:href="#m741329bc8f" y="233.027688"/>
     <use style="fill:#ff0000;stroke:#ff0000;" x="183.53335" xlink:href="#m741329bc8f" y="233.027688"/>
     <use style="fill:#ff0000;stroke:#ff0000;" x="185.015791" xlink:href="#m741329bc8f" y="233.027688"/>
     <use style="fill:#ff0000;stroke:#ff0000;" x="186.498232" xlink:href="#m741329bc8f" y="219.715108"/>
     <use style="fill:#ff0000;stroke:#ff0000;" x="187.980672" xlink:href="#m741329bc8f" y="219.715108"/>
     <use style="fill:#ff0000;stroke:#ff0000;" x="189.463113" xlink:href="#m741329bc8f" y="203.548923"/>
     <use style="fill:#ff0000;stroke:#ff0000;" x="190.945554" xlink:href="#m741329bc8f" y="203.548923"/>
     <use style="fill:#ff0000;stroke:#ff0000;" x="192.427995" xlink:href="#m741329bc8f" y="216.348912"/>
     <use style="fill:#ff0000;stroke:#ff0000;" x="193.910436" xlink:href="#m741329bc8f" y="216.696802"/>
     <use style="fill:#ff0000;stroke:#ff0000;" x="195.392877" xlink:href="#m741329bc8f" y="216.696802"/>
     <use style="fill:#ff0000;stroke:#ff0000;" x="196.875318" xlink:href="#m741329bc8f" y="216.696802"/>
     <use style="fill:#ff0000;stroke:#ff0000;" x="198.357758" xlink:href="#m741329bc8f" y="216.696802"/>
     <use style="fill:#ff0000;stroke:#ff0000;" x="199.840199" xlink:href="#m741329bc8f" y="216.696904"/>
     <use style="fill:#ff0000;stroke:#ff0000;" x="201.32264" xlink:href="#m741329bc8f" y="216.696904"/>
     <use style="fill:#ff0000;stroke:#ff0000;" x="202.805081" xlink:href="#m741329bc8f" y="230.952434"/>
     <use style="fill:#ff0000;stroke:#ff0000;" x="204.287522" xlink:href="#m741329bc8f" y="230.952434"/>
     <use style="fill:#ff0000;stroke:#ff0000;" x="205.769963" xlink:href="#m741329bc8f" y="244.339145"/>
     <use style="fill:#ff0000;stroke:#ff0000;" x="207.252403" xlink:href="#m741329bc8f" y="256.239138"/>
     <use style="fill:#ff0000;stroke:#ff0000;" x="208.734844" xlink:href="#m741329bc8f" y="256.239138"/>
     <use style="fill:#ff0000;stroke:#ff0000;" x="210.217285" xlink:href="#m741329bc8f" y="269.348286"/>
     <use style="fill:#ff0000;stroke:#ff0000;" x="211.699726" xlink:href="#m741329bc8f" y="269.348286"/>
     <use style="fill:#ff0000;stroke:#ff0000;" x="213.182167" xlink:href="#m741329bc8f" y="270.164892"/>
     <use style="fill:#ff0000;stroke:#ff0000;" x="214.664608" xlink:href="#m741329bc8f" y="270.164892"/>
     <use style="fill:#ff0000;stroke:#ff0000;" x="216.147049" xlink:href="#m741329bc8f" y="283.449913"/>
     <use style="fill:#ff0000;stroke:#ff0000;" x="217.629489" xlink:href="#m741329bc8f" y="295.488"/>
     <use style="fill:#ff0000;stroke:#ff0000;" x="219.11193" xlink:href="#m741329bc8f" y="295.488"/>
     <use style="fill:#ff0000;stroke:#ff0000;" x="220.594371" xlink:href="#m741329bc8f" y="280.021419"/>
     <use style="fill:#ff0000;stroke:#ff0000;" x="222.076812" xlink:href="#m741329bc8f" y="280.021419"/>
     <use style="fill:#ff0000;stroke:#ff0000;" x="223.559253" xlink:href="#m741329bc8f" y="293.207869"/>
     <use style="fill:#ff0000;stroke:#ff0000;" x="225.041694" xlink:href="#m741329bc8f" y="293.207869"/>
     <use style="fill:#ff0000;stroke:#ff0000;" x="226.524134" xlink:href="#m741329bc8f" y="277.398442"/>
     <use style="fill:#ff0000;stroke:#ff0000;" x="228.006575" xlink:href="#m741329bc8f" y="277.398442"/>
     <use style="fill:#ff0000;stroke:#ff0000;" x="229.489016" xlink:href="#m741329bc8f" y="261.116679"/>
     <use style="fill:#ff0000;stroke:#ff0000;" x="230.971457" xlink:href="#m741329bc8f" y="261.116679"/>
     <use style="fill:#ff0000;stroke:#ff0000;" x="232.453898" xlink:href="#m741329bc8f" y="261.116679"/>
     <use style="fill:#ff0000;stroke:#ff0000;" x="233.936339" xlink:href="#m741329bc8f" y="245.204985"/>
     <use style="fill:#ff0000;stroke:#ff0000;" x="235.41878" xlink:href="#m741329bc8f" y="245.204985"/>
     <use style="fill:#ff0000;stroke:#ff0000;" x="236.90122" xlink:href="#m741329bc8f" y="245.204985"/>
     <use style="fill:#ff0000;stroke:#ff0000;" x="238.383661" xlink:href="#m741329bc8f" y="245.204985"/>
     <use style="fill:#ff0000;stroke:#ff0000;" x="239.866102" xlink:href="#m741329bc8f" y="245.204985"/>
     <use style="fill:#ff0000;stroke:#ff0000;" x="241.348543" xlink:href="#m741329bc8f" y="245.204985"/>
     <use style="fill:#ff0000;stroke:#ff0000;" x="242.830984" xlink:href="#m741329bc8f" y="245.204985"/>
     <use style="fill:#ff0000;stroke:#ff0000;" x="244.313425" xlink:href="#m741329bc8f" y="245.204985"/>
     <use style="fill:#ff0000;stroke:#ff0000;" x="245.795866" xlink:href="#m741329bc8f" y="245.204985"/>
     <use style="fill:#ff0000;stroke:#ff0000;" x="247.278306" xlink:href="#m741329bc8f" y="229.106105"/>
     <use style="fill:#ff0000;stroke:#ff0000;" x="248.760747" xlink:href="#m741329bc8f" y="215.285458"/>
     <use style="fill:#ff0000;stroke:#ff0000;" x="250.243188" xlink:href="#m741329bc8f" y="215.285458"/>
     <use style="fill:#ff0000;stroke:#ff0000;" x="251.725629" xlink:href="#m741329bc8f" y="210.739256"/>
     <use style="fill:#ff0000;stroke:#ff0000;" x="253.20807" xlink:href="#m741329bc8f" y="210.739256"/>
     <use style="fill:#ff0000;stroke:#ff0000;" x="254.690511" xlink:href="#m741329bc8f" y="207.778948"/>
     <use style="fill:#ff0000;stroke:#ff0000;" x="256.172951" xlink:href="#m741329bc8f" y="207.778948"/>
     <use style="fill:#ff0000;stroke:#ff0000;" x="257.655392" xlink:href="#m741329bc8f" y="193.361311"/>
     <use style="fill:#ff0000;stroke:#ff0000;" x="259.137833" xlink:href="#m741329bc8f" y="193.361311"/>
     <use style="fill:#ff0000;stroke:#ff0000;" x="260.620274" xlink:href="#m741329bc8f" y="193.361311"/>
     <use style="fill:#ff0000;stroke:#ff0000;" x="262.102715" xlink:href="#m741329bc8f" y="194.198011"/>
     <use style="fill:#ff0000;stroke:#ff0000;" x="263.585156" xlink:href="#m741329bc8f" y="194.198011"/>
     <use style="fill:#ff0000;stroke:#ff0000;" x="265.067597" xlink:href="#m741329bc8f" y="180.678732"/>
     <use style="fill:#ff0000;stroke:#ff0000;" x="266.550037" xlink:href="#m741329bc8f" y="180.678732"/>
     <use style="fill:#ff0000;stroke:#ff0000;" x="268.032478" xlink:href="#m741329bc8f" y="193.50236"/>
     <use style="fill:#ff0000;stroke:#ff0000;" x="269.514919" xlink:href="#m741329bc8f" y="178.582556"/>
     <use style="fill:#ff0000;stroke:#ff0000;" x="270.99736" xlink:href="#m741329bc8f" y="178.582556"/>
     <use style="fill:#ff0000;stroke:#ff0000;" x="272.479801" xlink:href="#m741329bc8f" y="178.582556"/>
     <use style="fill:#ff0000;stroke:#ff0000;" x="273.962242" xlink:href="#m741329bc8f" y="178.582556"/>
     <use style="fill:#ff0000;stroke:#ff0000;" x="275.444682" xlink:href="#m741329bc8f" y="177.067227"/>
     <use style="fill:#ff0000;stroke:#ff0000;" x="276.927123" xlink:href="#m741329bc8f" y="164.413433"/>
     <use style="fill:#ff0000;stroke:#ff0000;" x="278.409564" xlink:href="#m741329bc8f" y="164.413433"/>
     <use style="fill:#ff0000;stroke:#ff0000;" x="279.892005" xlink:href="#m741329bc8f" y="175.267962"/>
     <use style="fill:#ff0000;stroke:#ff0000;" x="281.374446" xlink:href="#m741329bc8f" y="175.267962"/>
     <use style="fill:#ff0000;stroke:#ff0000;" x="282.856887" xlink:href="#m741329bc8f" y="187.938035"/>
     <use style="fill:#ff0000;stroke:#ff0000;" x="284.339328" xlink:href="#m741329bc8f" y="187.938035"/>
     <use style="fill:#ff0000;stroke:#ff0000;" x="285.821768" xlink:href="#m741329bc8f" y="183.805065"/>
     <use style="fill:#ff0000;stroke:#ff0000;" x="287.304209" xlink:href="#m741329bc8f" y="183.805065"/>
     <use style="fill:#ff0000;stroke:#ff0000;" x="288.78665" xlink:href="#m741329bc8f" y="183.805065"/>
     <use style="fill:#ff0000;stroke:#ff0000;" x="290.269091" xlink:href="#m741329bc8f" y="169.551543"/>
     <use style="fill:#ff0000;stroke:#ff0000;" x="291.751532" xlink:href="#m741329bc8f" y="169.551543"/>
     <use style="fill:#ff0000;stroke:#ff0000;" x="293.233973" xlink:href="#m741329bc8f" y="171.405564"/>
     <use style="fill:#ff0000;stroke:#ff0000;" x="294.716413" xlink:href="#m741329bc8f" y="157.743134"/>
     <use style="fill:#ff0000;stroke:#ff0000;" x="296.198854" xlink:href="#m741329bc8f" y="157.743134"/>
     <use style="fill:#ff0000;stroke:#ff0000;" x="297.681295" xlink:href="#m741329bc8f" y="142.50344"/>
     <use style="fill:#ff0000;stroke:#ff0000;" x="299.163736" xlink:href="#m741329bc8f" y="142.50344"/>
     <use style="fill:#ff0000;stroke:#ff0000;" x="300.646177" xlink:href="#m741329bc8f" y="142.50344"/>
     <use style="fill:#ff0000;stroke:#ff0000;" x="302.128618" xlink:href="#m741329bc8f" y="155.55445"/>
     <use style="fill:#ff0000;stroke:#ff0000;" x="303.611059" xlink:href="#m741329bc8f" y="155.55445"/>
     <use style="fill:#ff0000;stroke:#ff0000;" x="305.093499" xlink:href="#m741329bc8f" y="155.55445"/>
     <use style="fill:#ff0000;stroke:#ff0000;" x="306.57594" xlink:href="#m741329bc8f" y="140.375821"/>
     <use style="fill:#ff0000;stroke:#ff0000;" x="308.058381" xlink:href="#m741329bc8f" y="140.375821"/>
     <use style="fill:#ff0000;stroke:#ff0000;" x="309.540822" xlink:href="#m741329bc8f" y="128.083938"/>
     <use style="fill:#ff0000;stroke:#ff0000;" x="311.023263" xlink:href="#m741329bc8f" y="128.083938"/>
     <use style="fill:#ff0000;stroke:#ff0000;" x="312.505704" xlink:href="#m741329bc8f" y="128.083938"/>
     <use style="fill:#ff0000;stroke:#ff0000;" x="313.988144" xlink:href="#m741329bc8f" y="141.054782"/>
     <use style="fill:#ff0000;stroke:#ff0000;" x="315.470585" xlink:href="#m741329bc8f" y="153.404351"/>
     <use style="fill:#ff0000;stroke:#ff0000;" x="316.953026" xlink:href="#m741329bc8f" y="153.404351"/>
     <use style="fill:#ff0000;stroke:#ff0000;" x="318.435467" xlink:href="#m741329bc8f" y="149.195868"/>
     <use style="fill:#ff0000;stroke:#ff0000;" x="319.917908" xlink:href="#m741329bc8f" y="149.195868"/>
     <use style="fill:#ff0000;stroke:#ff0000;" x="321.400349" xlink:href="#m741329bc8f" y="162.356632"/>
     <use style="fill:#ff0000;stroke:#ff0000;" x="322.88279" xlink:href="#m741329bc8f" y="162.356632"/>
     <use style="fill:#ff0000;stroke:#ff0000;" x="324.36523" xlink:href="#m741329bc8f" y="148.284876"/>
     <use style="fill:#ff0000;stroke:#ff0000;" x="325.847671" xlink:href="#m741329bc8f" y="148.284876"/>
     <use style="fill:#ff0000;stroke:#ff0000;" x="327.330112" xlink:href="#m741329bc8f" y="161.276018"/>
     <use style="fill:#ff0000;stroke:#ff0000;" x="328.812553" xlink:href="#m741329bc8f" y="174.02648"/>
     <use style="fill:#ff0000;stroke:#ff0000;" x="330.294994" xlink:href="#m741329bc8f" y="174.02648"/>
     <use style="fill:#ff0000;stroke:#ff0000;" x="331.777435" xlink:href="#m741329bc8f" y="174.02648"/>
     <use style="fill:#ff0000;stroke:#ff0000;" x="333.259875" xlink:href="#m741329bc8f" y="172.200489"/>
     <use style="fill:#ff0000;stroke:#ff0000;" x="334.742316" xlink:href="#m741329bc8f" y="172.200489"/>
     <use style="fill:#ff0000;stroke:#ff0000;" x="336.224757" xlink:href="#m741329bc8f" y="172.200489"/>
     <use style="fill:#ff0000;stroke:#ff0000;" x="337.707198" xlink:href="#m741329bc8f" y="184.887225"/>
     <use style="fill:#ff0000;stroke:#ff0000;" x="339.189639" xlink:href="#m741329bc8f" y="199.750484"/>
     <use style="fill:#ff0000;stroke:#ff0000;" x="340.67208" xlink:href="#m741329bc8f" y="199.750484"/>
     <use style="fill:#ff0000;stroke:#ff0000;" x="342.154521" xlink:href="#m741329bc8f" y="212.678223"/>
     <use style="fill:#ff0000;stroke:#ff0000;" x="343.636961" xlink:href="#m741329bc8f" y="212.678223"/>
     <use style="fill:#ff0000;stroke:#ff0000;" x="345.119402" xlink:href="#m741329bc8f" y="225.210224"/>
     <use style="fill:#ff0000;stroke:#ff0000;" x="346.601843" xlink:href="#m741329bc8f" y="225.210224"/>
     <use style="fill:#ff0000;stroke:#ff0000;" x="348.084284" xlink:href="#m741329bc8f" y="237.340593"/>
     <use style="fill:#ff0000;stroke:#ff0000;" x="349.566725" xlink:href="#m741329bc8f" y="237.340593"/>
     <use style="fill:#ff0000;stroke:#ff0000;" x="351.049166" xlink:href="#m741329bc8f" y="237.340593"/>
     <use style="fill:#ff0000;stroke:#ff0000;" x="352.531606" xlink:href="#m741329bc8f" y="237.340593"/>
     <use style="fill:#ff0000;stroke:#ff0000;" x="354.014047" xlink:href="#m741329bc8f" y="237.340593"/>
     <use style="fill:#ff0000;stroke:#ff0000;" x="355.496488" xlink:href="#m741329bc8f" y="237.340593"/>
     <use style="fill:#ff0000;stroke:#ff0000;" x="356.978929" xlink:href="#m741329bc8f" y="237.340593"/>
     <use style="fill:#ff0000;stroke:#ff0000;" x="358.46137" xlink:href="#m741329bc8f" y="237.340593"/>
     <use style="fill:#ff0000;stroke:#ff0000;" x="359.943811" xlink:href="#m741329bc8f" y="237.340593"/>
     <use style="fill:#ff0000;stroke:#ff0000;" x="361.426252" xlink:href="#m741329bc8f" y="237.340593"/>
     <use style="fill:#ff0000;stroke:#ff0000;" x="362.908692" xlink:href="#m741329bc8f" y="237.340593"/>
     <use style="fill:#ff0000;stroke:#ff0000;" x="364.391133" xlink:href="#m741329bc8f" y="237.340593"/>
     <use style="fill:#ff0000;stroke:#ff0000;" x="365.873574" xlink:href="#m741329bc8f" y="237.340593"/>
     <use style="fill:#ff0000;stroke:#ff0000;" x="367.356015" xlink:href="#m741329bc8f" y="237.340593"/>
     <use style="fill:#ff0000;stroke:#ff0000;" x="368.838456" xlink:href="#m741329bc8f" y="237.340593"/>
     <use style="fill:#ff0000;stroke:#ff0000;" x="370.320897" xlink:href="#m741329bc8f" y="237.340593"/>
     <use style="fill:#ff0000;stroke:#ff0000;" x="371.803337" xlink:href="#m741329bc8f" y="237.340593"/>
     <use style="fill:#ff0000;stroke:#ff0000;" x="373.285778" xlink:href="#m741329bc8f" y="237.340593"/>
     <use style="fill:#ff0000;stroke:#ff0000;" x="374.768219" xlink:href="#m741329bc8f" y="237.340593"/>
     <use style="fill:#ff0000;stroke:#ff0000;" x="376.25066" xlink:href="#m741329bc8f" y="237.340593"/>
     <use style="fill:#ff0000;stroke:#ff0000;" x="377.733101" xlink:href="#m741329bc8f" y="237.340593"/>
     <use style="fill:#ff0000;stroke:#ff0000;" x="379.215542" xlink:href="#m741329bc8f" y="237.340593"/>
     <use style="fill:#ff0000;stroke:#ff0000;" x="380.697983" xlink:href="#m741329bc8f" y="237.340593"/>
     <use style="fill:#ff0000;stroke:#ff0000;" x="382.180423" xlink:href="#m741329bc8f" y="237.340593"/>
     <use style="fill:#ff0000;stroke:#ff0000;" x="383.662864" xlink:href="#m741329bc8f" y="237.340593"/>
     <use style="fill:#ff0000;stroke:#ff0000;" x="385.145305" xlink:href="#m741329bc8f" y="237.340593"/>
     <use style="fill:#ff0000;stroke:#ff0000;" x="386.627746" xlink:href="#m741329bc8f" y="237.340593"/>
     <use style="fill:#ff0000;stroke:#ff0000;" x="388.110187" xlink:href="#m741329bc8f" y="237.340593"/>
     <use style="fill:#ff0000;stroke:#ff0000;" x="389.592628" xlink:href="#m741329bc8f" y="237.340593"/>
     <use style="fill:#ff0000;stroke:#ff0000;" x="391.075068" xlink:href="#m741329bc8f" y="237.340593"/>
     <use style="fill:#ff0000;stroke:#ff0000;" x="392.557509" xlink:href="#m741329bc8f" y="237.340593"/>
     <use style="fill:#ff0000;stroke:#ff0000;" x="394.03995" xlink:href="#m741329bc8f" y="237.340593"/>
     <use style="fill:#ff0000;stroke:#ff0000;" x="395.522391" xlink:href="#m741329bc8f" y="237.340593"/>
     <use style="fill:#ff0000;stroke:#ff0000;" x="397.004832" xlink:href="#m741329bc8f" y="237.340593"/>
     <use style="fill:#ff0000;stroke:#ff0000;" x="398.487273" xlink:href="#m741329bc8f" y="237.340593"/>
    </g>
   </g>
   <g id="patch_3">
    <path d="M 57.6 307.584 
L 57.6 41.472 
" style="fill:none;stroke:#000000;stroke-linecap:square;stroke-linejoin:miter;stroke-width:0.8;"/>
   </g>
   <g id="patch_4">
    <path d="M 414.72 307.584 
L 414.72 41.472 
" style="fill:none;stroke:#000000;stroke-linecap:square;stroke-linejoin:miter;stroke-width:0.8;"/>
   </g>
   <g id="patch_5">
    <path d="M 57.6 307.584 
L 414.72 307.584 
" style="fill:none;stroke:#000000;stroke-linecap:square;stroke-linejoin:miter;stroke-width:0.8;"/>
   </g>
   <g id="patch_6">
    <path d="M 57.6 41.472 
L 414.72 41.472 
" style="fill:none;stroke:#000000;stroke-linecap:square;stroke-linejoin:miter;stroke-width:0.8;"/>
   </g>
  </g>
 </g>
 <defs>
  <clipPath id="pd6c2266d24">
   <rect height="266.112" width="357.12" x="57.6" y="41.472"/>
  </clipPath>
 </defs>
</svg>
