<?xml version="1.0" encoding="utf-8" standalone="no"?>
<!DOCTYPE svg PUBLIC "-//W3C//DTD SVG 1.1//EN"
  "http://www.w3.org/Graphics/SVG/1.1/DTD/svg11.dtd">
<!-- Created with matplotlib (https://matplotlib.org/) -->
<svg height="345.6pt" version="1.1" viewBox="0 0 460.8 345.6" width="460.8pt" xmlns="http://www.w3.org/2000/svg" xmlns:xlink="http://www.w3.org/1999/xlink">
 <defs>
  <style type="text/css">
*{stroke-linecap:butt;stroke-linejoin:round;}
  </style>
 </defs>
 <g id="figure_1">
  <g id="patch_1">
   <path d="M 0 345.6 
L 460.8 345.6 
L 460.8 0 
L 0 0 
z
" style="fill:#ffffff;"/>
  </g>
  <g id="axes_1">
   <g id="patch_2">
    <path d="M 57.6 307.584 
L 414.72 307.584 
L 414.72 41.472 
L 57.6 41.472 
z
" style="fill:#ffffff;"/>
   </g>
   <g id="line2d_1">
    <path clip-path="url(#p984dfc5b29)" d="M 73.832727 95.418326 
L 74.948379 53.568 
L 76.06403 53.568 
L 77.179681 95.418326 
L 79.410984 95.418326 
L 80.526635 138.87459 
L 81.642287 96.274495 
L 83.87359 96.274495 
L 84.989241 141.59764 
L 87.220544 141.59764 
L 88.336195 142.382871 
L 89.451846 142.382871 
L 90.567498 183.041231 
L 91.683149 183.041231 
L 92.7988 136.735509 
L 93.914452 136.735509 
L 95.030103 174.461911 
L 97.261406 174.461911 
L 98.377057 212.48697 
L 99.492709 212.48697 
L 100.60836 226.17246 
L 102.839663 226.17246 
L 103.955314 211.53496 
L 105.070965 211.53496 
L 106.186617 198.166765 
L 107.302268 198.166765 
L 108.417919 199.950528 
L 109.533571 199.950528 
L 110.649222 185.242842 
L 112.880525 185.242842 
L 113.996176 181.906437 
L 115.111828 181.906437 
L 116.227479 167.544271 
L 118.458782 167.544271 
L 119.574433 181.971182 
L 120.690084 181.971182 
L 121.805736 195.370597 
L 122.921387 195.370597 
L 124.037038 196.232081 
L 127.383993 196.232081 
L 128.499644 208.831268 
L 129.615295 208.831268 
L 130.730947 194.940248 
L 131.846598 207.359582 
L 134.077901 207.359582 
L 135.193552 221.114571 
L 138.540506 221.114571 
L 139.656157 205.983617 
L 144.118763 205.983617 
L 145.234414 207.668683 
L 146.350066 207.668683 
L 147.465717 192.41358 
L 148.581368 204.923882 
L 150.812671 204.923882 
L 151.928322 206.347632 
L 153.043974 206.347632 
L 155.275276 233.027688 
L 157.506579 233.027688 
L 158.622231 219.715108 
L 159.737882 219.715108 
L 160.853533 203.548923 
L 161.969185 203.548923 
L 163.084836 216.348912 
L 164.200487 216.696802 
L 169.778744 216.696904 
L 170.894396 230.952434 
L 172.010047 230.952434 
L 173.125698 244.339145 
L 174.24135 256.239138 
L 175.357001 256.239138 
L 176.472652 269.348286 
L 177.588304 269.348286 
L 178.703955 270.164892 
L 179.819606 270.164892 
L 182.050909 295.488 
L 183.16656 295.488 
L 184.282212 280.021419 
L 185.397863 280.021419 
L 186.513515 293.207869 
L 187.629166 293.207869 
L 188.744817 277.398442 
L 189.860469 277.398442 
L 190.97612 261.116679 
L 193.207423 261.116679 
L 194.323074 245.204985 
L 203.248285 245.204985 
L 204.363936 229.106105 
L 205.479588 215.285458 
L 206.595239 215.285458 
L 207.71089 210.739256 
L 208.826542 210.739256 
L 209.942193 207.778948 
L 211.057844 207.778948 
L 212.173496 193.361311 
L 214.404799 193.361311 
L 215.52045 194.198011 
L 216.636101 194.198011 
L 217.751753 180.678732 
L 218.867404 180.678732 
L 219.983055 193.50236 
L 221.098707 178.582556 
L 224.445661 178.582556 
L 225.561312 177.067227 
L 226.676963 164.413433 
L 227.792615 164.413433 
L 228.908266 175.267962 
L 230.023918 175.267962 
L 231.139569 187.938035 
L 232.25522 187.938035 
L 233.370872 183.805065 
L 235.602174 183.805065 
L 236.717826 169.551543 
L 237.833477 169.551543 
L 238.949128 171.405564 
L 240.06478 157.743134 
L 241.180431 157.743134 
L 242.296082 142.50344 
L 244.527385 142.50344 
L 245.643037 155.55445 
L 247.874339 155.55445 
L 248.989991 140.375821 
L 250.105642 140.375821 
L 251.221293 128.083938 
L 253.452596 128.083938 
L 255.683899 153.404351 
L 256.79955 153.404351 
L 257.915201 149.195868 
L 259.030853 149.195868 
L 260.146504 162.356632 
L 261.262156 162.356632 
L 262.377807 148.284876 
L 263.493458 148.284876 
L 265.724761 174.02648 
L 267.956064 174.02648 
L 269.071715 172.200489 
L 271.303018 172.200489 
L 272.418669 184.887225 
L 273.534321 199.750484 
L 274.649972 199.750484 
L 275.765623 212.678223 
L 276.881275 212.678223 
L 277.996926 225.210224 
L 279.112577 225.210224 
L 280.228229 237.340593 
L 398.487273 237.340593 
L 398.487273 237.340593 
" style="fill:none;stroke:#ff0000;stroke-linecap:square;stroke-width:12;"/>
    <defs>
     <path d="M 0 3 
C 0.795609 3 1.55874 2.683901 2.12132 2.12132 
C 2.683901 1.55874 3 0.795609 3 0 
C 3 -0.795609 2.683901 -1.55874 2.12132 -2.12132 
C 1.55874 -2.683901 0.795609 -3 0 -3 
C -0.795609 -3 -1.55874 -2.683901 -2.12132 -2.12132 
C -2.683901 -1.55874 -3 -0.795609 -3 0 
C -3 0.795609 -2.683901 1.55874 -2.12132 2.12132 
C -1.55874 2.683901 -0.795609 3 0 3 
z
" id="m58dba976ab" style="stroke:#ff0000;"/>
    </defs>
    <g clip-path="url(#p984dfc5b29)">
     <use style="fill:#ff0000;stroke:#ff0000;" x="73.832727" xlink:href="#m58dba976ab" y="95.418326"/>
     <use style="fill:#ff0000;stroke:#ff0000;" x="74.948379" xlink:href="#m58dba976ab" y="53.568"/>
     <use style="fill:#ff0000;stroke:#ff0000;" x="76.06403" xlink:href="#m58dba976ab" y="53.568"/>
     <use style="fill:#ff0000;stroke:#ff0000;" x="77.179681" xlink:href="#m58dba976ab" y="95.418326"/>
     <use style="fill:#ff0000;stroke:#ff0000;" x="78.295333" xlink:href="#m58dba976ab" y="95.418326"/>
     <use style="fill:#ff0000;stroke:#ff0000;" x="79.410984" xlink:href="#m58dba976ab" y="95.418326"/>
     <use style="fill:#ff0000;stroke:#ff0000;" x="80.526635" xlink:href="#m58dba976ab" y="138.87459"/>
     <use style="fill:#ff0000;stroke:#ff0000;" x="81.642287" xlink:href="#m58dba976ab" y="96.274495"/>
     <use style="fill:#ff0000;stroke:#ff0000;" x="82.757938" xlink:href="#m58dba976ab" y="96.274495"/>
     <use style="fill:#ff0000;stroke:#ff0000;" x="83.87359" xlink:href="#m58dba976ab" y="96.274495"/>
     <use style="fill:#ff0000;stroke:#ff0000;" x="84.989241" xlink:href="#m58dba976ab" y="141.59764"/>
     <use style="fill:#ff0000;stroke:#ff0000;" x="86.104892" xlink:href="#m58dba976ab" y="141.59764"/>
     <use style="fill:#ff0000;stroke:#ff0000;" x="87.220544" xlink:href="#m58dba976ab" y="141.59764"/>
     <use style="fill:#ff0000;stroke:#ff0000;" x="88.336195" xlink:href="#m58dba976ab" y="142.382871"/>
     <use style="fill:#ff0000;stroke:#ff0000;" x="89.451846" xlink:href="#m58dba976ab" y="142.382871"/>
     <use style="fill:#ff0000;stroke:#ff0000;" x="90.567498" xlink:href="#m58dba976ab" y="183.041231"/>
     <use style="fill:#ff0000;stroke:#ff0000;" x="91.683149" xlink:href="#m58dba976ab" y="183.041231"/>
     <use style="fill:#ff0000;stroke:#ff0000;" x="92.7988" xlink:href="#m58dba976ab" y="136.735509"/>
     <use style="fill:#ff0000;stroke:#ff0000;" x="93.914452" xlink:href="#m58dba976ab" y="136.735509"/>
     <use style="fill:#ff0000;stroke:#ff0000;" x="95.030103" xlink:href="#m58dba976ab" y="174.461911"/>
     <use style="fill:#ff0000;stroke:#ff0000;" x="96.145754" xlink:href="#m58dba976ab" y="174.461911"/>
     <use style="fill:#ff0000;stroke:#ff0000;" x="97.261406" xlink:href="#m58dba976ab" y="174.461911"/>
     <use style="fill:#ff0000;stroke:#ff0000;" x="98.377057" xlink:href="#m58dba976ab" y="212.48697"/>
     <use style="fill:#ff0000;stroke:#ff0000;" x="99.492709" xlink:href="#m58dba976ab" y="212.48697"/>
     <use style="fill:#ff0000;stroke:#ff0000;" x="100.60836" xlink:href="#m58dba976ab" y="226.17246"/>
     <use style="fill:#ff0000;stroke:#ff0000;" x="101.724011" xlink:href="#m58dba976ab" y="226.17246"/>
     <use style="fill:#ff0000;stroke:#ff0000;" x="102.839663" xlink:href="#m58dba976ab" y="226.17246"/>
     <use style="fill:#ff0000;stroke:#ff0000;" x="103.955314" xlink:href="#m58dba976ab" y="211.53496"/>
     <use style="fill:#ff0000;stroke:#ff0000;" x="105.070965" xlink:href="#m58dba976ab" y="211.53496"/>
     <use style="fill:#ff0000;stroke:#ff0000;" x="106.186617" xlink:href="#m58dba976ab" y="198.166765"/>
     <use style="fill:#ff0000;stroke:#ff0000;" x="107.302268" xlink:href="#m58dba976ab" y="198.166765"/>
     <use style="fill:#ff0000;stroke:#ff0000;" x="108.417919" xlink:href="#m58dba976ab" y="199.950528"/>
     <use style="fill:#ff0000;stroke:#ff0000;" x="109.533571" xlink:href="#m58dba976ab" y="199.950528"/>
     <use style="fill:#ff0000;stroke:#ff0000;" x="110.649222" xlink:href="#m58dba976ab" y="185.242842"/>
     <use style="fill:#ff0000;stroke:#ff0000;" x="111.764873" xlink:href="#m58dba976ab" y="185.242842"/>
     <use style="fill:#ff0000;stroke:#ff0000;" x="112.880525" xlink:href="#m58dba976ab" y="185.242842"/>
     <use style="fill:#ff0000;stroke:#ff0000;" x="113.996176" xlink:href="#m58dba976ab" y="181.906437"/>
     <use style="fill:#ff0000;stroke:#ff0000;" x="115.111828" xlink:href="#m58dba976ab" y="181.906437"/>
     <use style="fill:#ff0000;stroke:#ff0000;" x="116.227479" xlink:href="#m58dba976ab" y="167.544271"/>
     <use style="fill:#ff0000;stroke:#ff0000;" x="117.34313" xlink:href="#m58dba976ab" y="167.544271"/>
     <use style="fill:#ff0000;stroke:#ff0000;" x="118.458782" xlink:href="#m58dba976ab" y="167.544271"/>
     <use style="fill:#ff0000;stroke:#ff0000;" x="119.574433" xlink:href="#m58dba976ab" y="181.971182"/>
     <use style="fill:#ff0000;stroke:#ff0000;" x="120.690084" xlink:href="#m58dba976ab" y="181.971182"/>
     <use style="fill:#ff0000;stroke:#ff0000;" x="121.805736" xlink:href="#m58dba976ab" y="195.370597"/>
     <use style="fill:#ff0000;stroke:#ff0000;" x="122.921387" xlink:href="#m58dba976ab" y="195.370597"/>
     <use style="fill:#ff0000;stroke:#ff0000;" x="124.037038" xlink:href="#m58dba976ab" y="196.232081"/>
     <use style="fill:#ff0000;stroke:#ff0000;" x="125.15269" xlink:href="#m58dba976ab" y="196.232081"/>
     <use style="fill:#ff0000;stroke:#ff0000;" x="126.268341" xlink:href="#m58dba976ab" y="196.232081"/>
     <use style="fill:#ff0000;stroke:#ff0000;" x="127.383993" xlink:href="#m58dba976ab" y="196.232081"/>
     <use style="fill:#ff0000;stroke:#ff0000;" x="128.499644" xlink:href="#m58dba976ab" y="208.831268"/>
     <use style="fill:#ff0000;stroke:#ff0000;" x="129.615295" xlink:href="#m58dba976ab" y="208.831268"/>
     <use style="fill:#ff0000;stroke:#ff0000;" x="130.730947" xlink:href="#m58dba976ab" y="194.940248"/>
     <use style="fill:#ff0000;stroke:#ff0000;" x="131.846598" xlink:href="#m58dba976ab" y="207.359582"/>
     <use style="fill:#ff0000;stroke:#ff0000;" x="132.962249" xlink:href="#m58dba976ab" y="207.359582"/>
     <use style="fill:#ff0000;stroke:#ff0000;" x="134.077901" xlink:href="#m58dba976ab" y="207.359582"/>
     <use style="fill:#ff0000;stroke:#ff0000;" x="135.193552" xlink:href="#m58dba976ab" y="221.114571"/>
     <use style="fill:#ff0000;stroke:#ff0000;" x="136.309203" xlink:href="#m58dba976ab" y="221.114571"/>
     <use style="fill:#ff0000;stroke:#ff0000;" x="137.424855" xlink:href="#m58dba976ab" y="221.114571"/>
     <use style="fill:#ff0000;stroke:#ff0000;" x="138.540506" xlink:href="#m58dba976ab" y="221.114571"/>
     <use style="fill:#ff0000;stroke:#ff0000;" x="139.656157" xlink:href="#m58dba976ab" y="205.983617"/>
     <use style="fill:#ff0000;stroke:#ff0000;" x="140.771809" xlink:href="#m58dba976ab" y="205.983617"/>
     <use style="fill:#ff0000;stroke:#ff0000;" x="141.88746" xlink:href="#m58dba976ab" y="205.983617"/>
     <use style="fill:#ff0000;stroke:#ff0000;" x="143.003112" xlink:href="#m58dba976ab" y="205.983617"/>
     <use style="fill:#ff0000;stroke:#ff0000;" x="144.118763" xlink:href="#m58dba976ab" y="205.983617"/>
     <use style="fill:#ff0000;stroke:#ff0000;" x="145.234414" xlink:href="#m58dba976ab" y="207.668683"/>
     <use style="fill:#ff0000;stroke:#ff0000;" x="146.350066" xlink:href="#m58dba976ab" y="207.668683"/>
     <use style="fill:#ff0000;stroke:#ff0000;" x="147.465717" xlink:href="#m58dba976ab" y="192.41358"/>
     <use style="fill:#ff0000;stroke:#ff0000;" x="148.581368" xlink:href="#m58dba976ab" y="204.923882"/>
     <use style="fill:#ff0000;stroke:#ff0000;" x="149.69702" xlink:href="#m58dba976ab" y="204.923882"/>
     <use style="fill:#ff0000;stroke:#ff0000;" x="150.812671" xlink:href="#m58dba976ab" y="204.923882"/>
     <use style="fill:#ff0000;stroke:#ff0000;" x="151.928322" xlink:href="#m58dba976ab" y="206.347632"/>
     <use style="fill:#ff0000;stroke:#ff0000;" x="153.043974" xlink:href="#m58dba976ab" y="206.347632"/>
     <use style="fill:#ff0000;stroke:#ff0000;" x="154.159625" xlink:href="#m58dba976ab" y="219.35467"/>
     <use style="fill:#ff0000;stroke:#ff0000;" x="155.275276" xlink:href="#m58dba976ab" y="233.027688"/>
     <use style="fill:#ff0000;stroke:#ff0000;" x="156.390928" xlink:href="#m58dba976ab" y="233.027688"/>
     <use style="fill:#ff0000;stroke:#ff0000;" x="157.506579" xlink:href="#m58dba976ab" y="233.027688"/>
     <use style="fill:#ff0000;stroke:#ff0000;" x="158.622231" xlink:href="#m58dba976ab" y="219.715108"/>
     <use style="fill:#ff0000;stroke:#ff0000;" x="159.737882" xlink:href="#m58dba976ab" y="219.715108"/>
     <use style="fill:#ff0000;stroke:#ff0000;" x="160.853533" xlink:href="#m58dba976ab" y="203.548923"/>
     <use style="fill:#ff0000;stroke:#ff0000;" x="161.969185" xlink:href="#m58dba976ab" y="203.548923"/>
     <use style="fill:#ff0000;stroke:#ff0000;" x="163.084836" xlink:href="#m58dba976ab" y="216.348912"/>
     <use style="fill:#ff0000;stroke:#ff0000;" x="164.200487" xlink:href="#m58dba976ab" y="216.696802"/>
     <use style="fill:#ff0000;stroke:#ff0000;" x="165.316139" xlink:href="#m58dba976ab" y="216.696802"/>
     <use style="fill:#ff0000;stroke:#ff0000;" x="166.43179" xlink:href="#m58dba976ab" y="216.696802"/>
     <use style="fill:#ff0000;stroke:#ff0000;" x="167.547441" xlink:href="#m58dba976ab" y="216.696802"/>
     <use style="fill:#ff0000;stroke:#ff0000;" x="168.663093" xlink:href="#m58dba976ab" y="216.696904"/>
     <use style="fill:#ff0000;stroke:#ff0000;" x="169.778744" xlink:href="#m58dba976ab" y="216.696904"/>
     <use style="fill:#ff0000;stroke:#ff0000;" x="170.894396" xlink:href="#m58dba976ab" y="230.952434"/>
     <use style="fill:#ff0000;stroke:#ff0000;" x="172.010047" xlink:href="#m58dba976ab" y="230.952434"/>
     <use style="fill:#ff0000;stroke:#ff0000;" x="173.125698" xlink:href="#m58dba976ab" y="244.339145"/>
     <use style="fill:#ff0000;stroke:#ff0000;" x="174.24135" xlink:href="#m58dba976ab" y="256.239138"/>
     <use style="fill:#ff0000;stroke:#ff0000;" x="175.357001" xlink:href="#m58dba976ab" y="256.239138"/>
     <use style="fill:#ff0000;stroke:#ff0000;" x="176.472652" xlink:href="#m58dba976ab" y="269.348286"/>
     <use style="fill:#ff0000;stroke:#ff0000;" x="177.588304" xlink:href="#m58dba976ab" y="269.348286"/>
     <use style="fill:#ff0000;stroke:#ff0000;" x="178.703955" xlink:href="#m58dba976ab" y="270.164892"/>
     <use style="fill:#ff0000;stroke:#ff0000;" x="179.819606" xlink:href="#m58dba976ab" y="270.164892"/>
     <use style="fill:#ff0000;stroke:#ff0000;" x="180.935258" xlink:href="#m58dba976ab" y="283.449913"/>
     <use style="fill:#ff0000;stroke:#ff0000;" x="182.050909" xlink:href="#m58dba976ab" y="295.488"/>
     <use style="fill:#ff0000;stroke:#ff0000;" x="183.16656" xlink:href="#m58dba976ab" y="295.488"/>
     <use style="fill:#ff0000;stroke:#ff0000;" x="184.282212" xlink:href="#m58dba976ab" y="280.021419"/>
     <use style="fill:#ff0000;stroke:#ff0000;" x="185.397863" xlink:href="#m58dba976ab" y="280.021419"/>
     <use style="fill:#ff0000;stroke:#ff0000;" x="186.513515" xlink:href="#m58dba976ab" y="293.207869"/>
     <use style="fill:#ff0000;stroke:#ff0000;" x="187.629166" xlink:href="#m58dba976ab" y="293.207869"/>
     <use style="fill:#ff0000;stroke:#ff0000;" x="188.744817" xlink:href="#m58dba976ab" y="277.398442"/>
     <use style="fill:#ff0000;stroke:#ff0000;" x="189.860469" xlink:href="#m58dba976ab" y="277.398442"/>
     <use style="fill:#ff0000;stroke:#ff0000;" x="190.97612" xlink:href="#m58dba976ab" y="261.116679"/>
     <use style="fill:#ff0000;stroke:#ff0000;" x="192.091771" xlink:href="#m58dba976ab" y="261.116679"/>
     <use style="fill:#ff0000;stroke:#ff0000;" x="193.207423" xlink:href="#m58dba976ab" y="261.116679"/>
     <use style="fill:#ff0000;stroke:#ff0000;" x="194.323074" xlink:href="#m58dba976ab" y="245.204985"/>
     <use style="fill:#ff0000;stroke:#ff0000;" x="195.438725" xlink:href="#m58dba976ab" y="245.204985"/>
     <use style="fill:#ff0000;stroke:#ff0000;" x="196.554377" xlink:href="#m58dba976ab" y="245.204985"/>
     <use style="fill:#ff0000;stroke:#ff0000;" x="197.670028" xlink:href="#m58dba976ab" y="245.204985"/>
     <use style="fill:#ff0000;stroke:#ff0000;" x="198.785679" xlink:href="#m58dba976ab" y="245.204985"/>
     <use style="fill:#ff0000;stroke:#ff0000;" x="199.901331" xlink:href="#m58dba976ab" y="245.204985"/>
     <use style="fill:#ff0000;stroke:#ff0000;" x="201.016982" xlink:href="#m58dba976ab" y="245.204985"/>
     <use style="fill:#ff0000;stroke:#ff0000;" x="202.132634" xlink:href="#m58dba976ab" y="245.204985"/>
     <use style="fill:#ff0000;stroke:#ff0000;" x="203.248285" xlink:href="#m58dba976ab" y="245.204985"/>
     <use style="fill:#ff0000;stroke:#ff0000;" x="204.363936" xlink:href="#m58dba976ab" y="229.106105"/>
     <use style="fill:#ff0000;stroke:#ff0000;" x="205.479588" xlink:href="#m58dba976ab" y="215.285458"/>
     <use style="fill:#ff0000;stroke:#ff0000;" x="206.595239" xlink:href="#m58dba976ab" y="215.285458"/>
     <use style="fill:#ff0000;stroke:#ff0000;" x="207.71089" xlink:href="#m58dba976ab" y="210.739256"/>
     <use style="fill:#ff0000;stroke:#ff0000;" x="208.826542" xlink:href="#m58dba976ab" y="210.739256"/>
     <use style="fill:#ff0000;stroke:#ff0000;" x="209.942193" xlink:href="#m58dba976ab" y="207.778948"/>
     <use style="fill:#ff0000;stroke:#ff0000;" x="211.057844" xlink:href="#m58dba976ab" y="207.778948"/>
     <use style="fill:#ff0000;stroke:#ff0000;" x="212.173496" xlink:href="#m58dba976ab" y="193.361311"/>
     <use style="fill:#ff0000;stroke:#ff0000;" x="213.289147" xlink:href="#m58dba976ab" y="193.361311"/>
     <use style="fill:#ff0000;stroke:#ff0000;" x="214.404799" xlink:href="#m58dba976ab" y="193.361311"/>
     <use style="fill:#ff0000;stroke:#ff0000;" x="215.52045" xlink:href="#m58dba976ab" y="194.198011"/>
     <use style="fill:#ff0000;stroke:#ff0000;" x="216.636101" xlink:href="#m58dba976ab" y="194.198011"/>
     <use style="fill:#ff0000;stroke:#ff0000;" x="217.751753" xlink:href="#m58dba976ab" y="180.678732"/>
     <use style="fill:#ff0000;stroke:#ff0000;" x="218.867404" xlink:href="#m58dba976ab" y="180.678732"/>
     <use style="fill:#ff0000;stroke:#ff0000;" x="219.983055" xlink:href="#m58dba976ab" y="193.50236"/>
     <use style="fill:#ff0000;stroke:#ff0000;" x="221.098707" xlink:href="#m58dba976ab" y="178.582556"/>
     <use style="fill:#ff0000;stroke:#ff0000;" x="222.214358" xlink:href="#m58dba976ab" y="178.582556"/>
     <use style="fill:#ff0000;stroke:#ff0000;" x="223.330009" xlink:href="#m58dba976ab" y="178.582556"/>
     <use style="fill:#ff0000;stroke:#ff0000;" x="224.445661" xlink:href="#m58dba976ab" y="178.582556"/>
     <use style="fill:#ff0000;stroke:#ff0000;" x="225.561312" xlink:href="#m58dba976ab" y="177.067227"/>
     <use style="fill:#ff0000;stroke:#ff0000;" x="226.676963" xlink:href="#m58dba976ab" y="164.413433"/>
     <use style="fill:#ff0000;stroke:#ff0000;" x="227.792615" xlink:href="#m58dba976ab" y="164.413433"/>
     <use style="fill:#ff0000;stroke:#ff0000;" x="228.908266" xlink:href="#m58dba976ab" y="175.267962"/>
     <use style="fill:#ff0000;stroke:#ff0000;" x="230.023918" xlink:href="#m58dba976ab" y="175.267962"/>
     <use style="fill:#ff0000;stroke:#ff0000;" x="231.139569" xlink:href="#m58dba976ab" y="187.938035"/>
     <use style="fill:#ff0000;stroke:#ff0000;" x="232.25522" xlink:href="#m58dba976ab" y="187.938035"/>
     <use style="fill:#ff0000;stroke:#ff0000;" x="233.370872" xlink:href="#m58dba976ab" y="183.805065"/>
     <use style="fill:#ff0000;stroke:#ff0000;" x="234.486523" xlink:href="#m58dba976ab" y="183.805065"/>
     <use style="fill:#ff0000;stroke:#ff0000;" x="235.602174" xlink:href="#m58dba976ab" y="183.805065"/>
     <use style="fill:#ff0000;stroke:#ff0000;" x="236.717826" xlink:href="#m58dba976ab" y="169.551543"/>
     <use style="fill:#ff0000;stroke:#ff0000;" x="237.833477" xlink:href="#m58dba976ab" y="169.551543"/>
     <use style="fill:#ff0000;stroke:#ff0000;" x="238.949128" xlink:href="#m58dba976ab" y="171.405564"/>
     <use style="fill:#ff0000;stroke:#ff0000;" x="240.06478" xlink:href="#m58dba976ab" y="157.743134"/>
     <use style="fill:#ff0000;stroke:#ff0000;" x="241.180431" xlink:href="#m58dba976ab" y="157.743134"/>
     <use style="fill:#ff0000;stroke:#ff0000;" x="242.296082" xlink:href="#m58dba976ab" y="142.50344"/>
     <use style="fill:#ff0000;stroke:#ff0000;" x="243.411734" xlink:href="#m58dba976ab" y="142.50344"/>
     <use style="fill:#ff0000;stroke:#ff0000;" x="244.527385" xlink:href="#m58dba976ab" y="142.50344"/>
     <use style="fill:#ff0000;stroke:#ff0000;" x="245.643037" xlink:href="#m58dba976ab" y="155.55445"/>
     <use style="fill:#ff0000;stroke:#ff0000;" x="246.758688" xlink:href="#m58dba976ab" y="155.55445"/>
     <use style="fill:#ff0000;stroke:#ff0000;" x="247.874339" xlink:href="#m58dba976ab" y="155.55445"/>
     <use style="fill:#ff0000;stroke:#ff0000;" x="248.989991" xlink:href="#m58dba976ab" y="140.375821"/>
     <use style="fill:#ff0000;stroke:#ff0000;" x="250.105642" xlink:href="#m58dba976ab" y="140.375821"/>
     <use style="fill:#ff0000;stroke:#ff0000;" x="251.221293" xlink:href="#m58dba976ab" y="128.083938"/>
     <use style="fill:#ff0000;stroke:#ff0000;" x="252.336945" xlink:href="#m58dba976ab" y="128.083938"/>
     <use style="fill:#ff0000;stroke:#ff0000;" x="253.452596" xlink:href="#m58dba976ab" y="128.083938"/>
     <use style="fill:#ff0000;stroke:#ff0000;" x="254.568247" xlink:href="#m58dba976ab" y="141.054782"/>
     <use style="fill:#ff0000;stroke:#ff0000;" x="255.683899" xlink:href="#m58dba976ab" y="153.404351"/>
     <use style="fill:#ff0000;stroke:#ff0000;" x="256.79955" xlink:href="#m58dba976ab" y="153.404351"/>
     <use style="fill:#ff0000;stroke:#ff0000;" x="257.915201" xlink:href="#m58dba976ab" y="149.195868"/>
     <use style="fill:#ff0000;stroke:#ff0000;" x="259.030853" xlink:href="#m58dba976ab" y="149.195868"/>
     <use style="fill:#ff0000;stroke:#ff0000;" x="260.146504" xlink:href="#m58dba976ab" y="162.356632"/>
     <use style="fill:#ff0000;stroke:#ff0000;" x="261.262156" xlink:href="#m58dba976ab" y="162.356632"/>
     <use style="fill:#ff0000;stroke:#ff0000;" x="262.377807" xlink:href="#m58dba976ab" y="148.284876"/>
     <use style="fill:#ff0000;stroke:#ff0000;" x="263.493458" xlink:href="#m58dba976ab" y="148.284876"/>
     <use style="fill:#ff0000;stroke:#ff0000;" x="264.60911" xlink:href="#m58dba976ab" y="161.276018"/>
     <use style="fill:#ff0000;stroke:#ff0000;" x="265.724761" xlink:href="#m58dba976ab" y="174.02648"/>
     <use style="fill:#ff0000;stroke:#ff0000;" x="266.840412" xlink:href="#m58dba976ab" y="174.02648"/>
     <use style="fill:#ff0000;stroke:#ff0000;" x="267.956064" xlink:href="#m58dba976ab" y="174.02648"/>
     <use style="fill:#ff0000;stroke:#ff0000;" x="269.071715" xlink:href="#m58dba976ab" y="172.200489"/>
     <use style="fill:#ff0000;stroke:#ff0000;" x="270.187366" xlink:href="#m58dba976ab" y="172.200489"/>
     <use style="fill:#ff0000;stroke:#ff0000;" x="271.303018" xlink:href="#m58dba976ab" y="172.200489"/>
     <use style="fill:#ff0000;stroke:#ff0000;" x="272.418669" xlink:href="#m58dba976ab" y="184.887225"/>
     <use style="fill:#ff0000;stroke:#ff0000;" x="273.534321" xlink:href="#m58dba976ab" y="199.750484"/>
     <use style="fill:#ff0000;stroke:#ff0000;" x="274.649972" xlink:href="#m58dba976ab" y="199.750484"/>
     <use style="fill:#ff0000;stroke:#ff0000;" x="275.765623" xlink:href="#m58dba976ab" y="212.678223"/>
     <use style="fill:#ff0000;stroke:#ff0000;" x="276.881275" xlink:href="#m58dba976ab" y="212.678223"/>
     <use style="fill:#ff0000;stroke:#ff0000;" x="277.996926" xlink:href="#m58dba976ab" y="225.210224"/>
     <use style="fill:#ff0000;stroke:#ff0000;" x="279.112577" xlink:href="#m58dba976ab" y="225.210224"/>
     <use style="fill:#ff0000;stroke:#ff0000;" x="280.228229" xlink:href="#m58dba976ab" y="237.340593"/>
     <use style="fill:#ff0000;stroke:#ff0000;" x="281.34388" xlink:href="#m58dba976ab" y="237.340593"/>
     <use style="fill:#ff0000;stroke:#ff0000;" x="282.459531" xlink:href="#m58dba976ab" y="237.340593"/>
     <use style="fill:#ff0000;stroke:#ff0000;" x="283.575183" xlink:href="#m58dba976ab" y="237.340593"/>
     <use style="fill:#ff0000;stroke:#ff0000;" x="284.690834" xlink:href="#m58dba976ab" y="237.340593"/>
     <use style="fill:#ff0000;stroke:#ff0000;" x="285.806485" xlink:href="#m58dba976ab" y="237.340593"/>
     <use style="fill:#ff0000;stroke:#ff0000;" x="286.922137" xlink:href="#m58dba976ab" y="237.340593"/>
     <use style="fill:#ff0000;stroke:#ff0000;" x="288.037788" xlink:href="#m58dba976ab" y="237.340593"/>
     <use style="fill:#ff0000;stroke:#ff0000;" x="289.15344" xlink:href="#m58dba976ab" y="237.340593"/>
     <use style="fill:#ff0000;stroke:#ff0000;" x="290.269091" xlink:href="#m58dba976ab" y="237.340593"/>
     <use style="fill:#ff0000;stroke:#ff0000;" x="291.384742" xlink:href="#m58dba976ab" y="237.340593"/>
     <use style="fill:#ff0000;stroke:#ff0000;" x="292.500394" xlink:href="#m58dba976ab" y="237.340593"/>
     <use style="fill:#ff0000;stroke:#ff0000;" x="293.616045" xlink:href="#m58dba976ab" y="237.340593"/>
     <use style="fill:#ff0000;stroke:#ff0000;" x="294.731696" xlink:href="#m58dba976ab" y="237.340593"/>
     <use style="fill:#ff0000;stroke:#ff0000;" x="295.847348" xlink:href="#m58dba976ab" y="237.340593"/>
     <use style="fill:#ff0000;stroke:#ff0000;" x="296.962999" xlink:href="#m58dba976ab" y="237.340593"/>
     <use style="fill:#ff0000;stroke:#ff0000;" x="298.07865" xlink:href="#m58dba976ab" y="237.340593"/>
     <use style="fill:#ff0000;stroke:#ff0000;" x="299.194302" xlink:href="#m58dba976ab" y="237.340593"/>
     <use style="fill:#ff0000;stroke:#ff0000;" x="300.309953" xlink:href="#m58dba976ab" y="237.340593"/>
     <use style="fill:#ff0000;stroke:#ff0000;" x="301.425604" xlink:href="#m58dba976ab" y="237.340593"/>
     <use style="fill:#ff0000;stroke:#ff0000;" x="302.541256" xlink:href="#m58dba976ab" y="237.340593"/>
     <use style="fill:#ff0000;stroke:#ff0000;" x="303.656907" xlink:href="#m58dba976ab" y="237.340593"/>
     <use style="fill:#ff0000;stroke:#ff0000;" x="304.772559" xlink:href="#m58dba976ab" y="237.340593"/>
     <use style="fill:#ff0000;stroke:#ff0000;" x="305.88821" xlink:href="#m58dba976ab" y="237.340593"/>
     <use style="fill:#ff0000;stroke:#ff0000;" x="307.003861" xlink:href="#m58dba976ab" y="237.340593"/>
     <use style="fill:#ff0000;stroke:#ff0000;" x="308.119513" xlink:href="#m58dba976ab" y="237.340593"/>
     <use style="fill:#ff0000;stroke:#ff0000;" x="309.235164" xlink:href="#m58dba976ab" y="237.340593"/>
     <use style="fill:#ff0000;stroke:#ff0000;" x="310.350815" xlink:href="#m58dba976ab" y="237.340593"/>
     <use style="fill:#ff0000;stroke:#ff0000;" x="311.466467" xlink:href="#m58dba976ab" y="237.340593"/>
     <use style="fill:#ff0000;stroke:#ff0000;" x="312.582118" xlink:href="#m58dba976ab" y="237.340593"/>
     <use style="fill:#ff0000;stroke:#ff0000;" x="313.697769" xlink:href="#m58dba976ab" y="237.340593"/>
     <use style="fill:#ff0000;stroke:#ff0000;" x="314.813421" xlink:href="#m58dba976ab" y="237.340593"/>
     <use style="fill:#ff0000;stroke:#ff0000;" x="315.929072" xlink:href="#m58dba976ab" y="237.340593"/>
     <use style="fill:#ff0000;stroke:#ff0000;" x="317.044724" xlink:href="#m58dba976ab" y="237.340593"/>
     <use style="fill:#ff0000;stroke:#ff0000;" x="318.160375" xlink:href="#m58dba976ab" y="237.340593"/>
     <use style="fill:#ff0000;stroke:#ff0000;" x="319.276026" xlink:href="#m58dba976ab" y="237.340593"/>
     <use style="fill:#ff0000;stroke:#ff0000;" x="320.391678" xlink:href="#m58dba976ab" y="237.340593"/>
     <use style="fill:#ff0000;stroke:#ff0000;" x="321.507329" xlink:href="#m58dba976ab" y="237.340593"/>
     <use style="fill:#ff0000;stroke:#ff0000;" x="322.62298" xlink:href="#m58dba976ab" y="237.340593"/>
     <use style="fill:#ff0000;stroke:#ff0000;" x="323.738632" xlink:href="#m58dba976ab" y="237.340593"/>
     <use style="fill:#ff0000;stroke:#ff0000;" x="324.854283" xlink:href="#m58dba976ab" y="237.340593"/>
     <use style="fill:#ff0000;stroke:#ff0000;" x="325.969934" xlink:href="#m58dba976ab" y="237.340593"/>
     <use style="fill:#ff0000;stroke:#ff0000;" x="327.085586" xlink:href="#m58dba976ab" y="237.340593"/>
     <use style="fill:#ff0000;stroke:#ff0000;" x="328.201237" xlink:href="#m58dba976ab" y="237.340593"/>
     <use style="fill:#ff0000;stroke:#ff0000;" x="329.316888" xlink:href="#m58dba976ab" y="237.340593"/>
     <use style="fill:#ff0000;stroke:#ff0000;" x="330.43254" xlink:href="#m58dba976ab" y="237.340593"/>
     <use style="fill:#ff0000;stroke:#ff0000;" x="331.548191" xlink:href="#m58dba976ab" y="237.340593"/>
     <use style="fill:#ff0000;stroke:#ff0000;" x="332.663843" xlink:href="#m58dba976ab" y="237.340593"/>
     <use style="fill:#ff0000;stroke:#ff0000;" x="333.779494" xlink:href="#m58dba976ab" y="237.340593"/>
     <use style="fill:#ff0000;stroke:#ff0000;" x="334.895145" xlink:href="#m58dba976ab" y="237.340593"/>
     <use style="fill:#ff0000;stroke:#ff0000;" x="336.010797" xlink:href="#m58dba976ab" y="237.340593"/>
     <use style="fill:#ff0000;stroke:#ff0000;" x="337.126448" xlink:href="#m58dba976ab" y="237.340593"/>
     <use style="fill:#ff0000;stroke:#ff0000;" x="338.242099" xlink:href="#m58dba976ab" y="237.340593"/>
     <use style="fill:#ff0000;stroke:#ff0000;" x="339.357751" xlink:href="#m58dba976ab" y="237.340593"/>
     <use style="fill:#ff0000;stroke:#ff0000;" x="340.473402" xlink:href="#m58dba976ab" y="237.340593"/>
     <use style="fill:#ff0000;stroke:#ff0000;" x="341.589053" xlink:href="#m58dba976ab" y="237.340593"/>
     <use style="fill:#ff0000;stroke:#ff0000;" x="342.704705" xlink:href="#m58dba976ab" y="237.340593"/>
     <use style="fill:#ff0000;stroke:#ff0000;" x="343.820356" xlink:href="#m58dba976ab" y="237.340593"/>
     <use style="fill:#ff0000;stroke:#ff0000;" x="344.936007" xlink:href="#m58dba976ab" y="237.340593"/>
     <use style="fill:#ff0000;stroke:#ff0000;" x="346.051659" xlink:href="#m58dba976ab" y="237.340593"/>
     <use style="fill:#ff0000;stroke:#ff0000;" x="347.16731" xlink:href="#m58dba976ab" y="237.340593"/>
     <use style="fill:#ff0000;stroke:#ff0000;" x="348.282962" xlink:href="#m58dba976ab" y="237.340593"/>
     <use style="fill:#ff0000;stroke:#ff0000;" x="349.398613" xlink:href="#m58dba976ab" y="237.340593"/>
     <use style="fill:#ff0000;stroke:#ff0000;" x="350.514264" xlink:href="#m58dba976ab" y="237.340593"/>
     <use style="fill:#ff0000;stroke:#ff0000;" x="351.629916" xlink:href="#m58dba976ab" y="237.340593"/>
     <use style="fill:#ff0000;stroke:#ff0000;" x="352.745567" xlink:href="#m58dba976ab" y="237.340593"/>
     <use style="fill:#ff0000;stroke:#ff0000;" x="353.861218" xlink:href="#m58dba976ab" y="237.340593"/>
     <use style="fill:#ff0000;stroke:#ff0000;" x="354.97687" xlink:href="#m58dba976ab" y="237.340593"/>
     <use style="fill:#ff0000;stroke:#ff0000;" x="356.092521" xlink:href="#m58dba976ab" y="237.340593"/>
     <use style="fill:#ff0000;stroke:#ff0000;" x="357.208172" xlink:href="#m58dba976ab" y="237.340593"/>
     <use style="fill:#ff0000;stroke:#ff0000;" x="358.323824" xlink:href="#m58dba976ab" y="237.340593"/>
     <use style="fill:#ff0000;stroke:#ff0000;" x="359.439475" xlink:href="#m58dba976ab" y="237.340593"/>
     <use style="fill:#ff0000;stroke:#ff0000;" x="360.555127" xlink:href="#m58dba976ab" y="237.340593"/>
     <use style="fill:#ff0000;stroke:#ff0000;" x="361.670778" xlink:href="#m58dba976ab" y="237.340593"/>
     <use style="fill:#ff0000;stroke:#ff0000;" x="362.786429" xlink:href="#m58dba976ab" y="237.340593"/>
     <use style="fill:#ff0000;stroke:#ff0000;" x="363.902081" xlink:href="#m58dba976ab" y="237.340593"/>
     <use style="fill:#ff0000;stroke:#ff0000;" x="365.017732" xlink:href="#m58dba976ab" y="237.340593"/>
     <use style="fill:#ff0000;stroke:#ff0000;" x="366.133383" xlink:href="#m58dba976ab" y="237.340593"/>
     <use style="fill:#ff0000;stroke:#ff0000;" x="367.249035" xlink:href="#m58dba976ab" y="237.340593"/>
     <use style="fill:#ff0000;stroke:#ff0000;" x="368.364686" xlink:href="#m58dba976ab" y="237.340593"/>
     <use style="fill:#ff0000;stroke:#ff0000;" x="369.480337" xlink:href="#m58dba976ab" y="237.340593"/>
     <use style="fill:#ff0000;stroke:#ff0000;" x="370.595989" xlink:href="#m58dba976ab" y="237.340593"/>
     <use style="fill:#ff0000;stroke:#ff0000;" x="371.71164" xlink:href="#m58dba976ab" y="237.340593"/>
     <use style="fill:#ff0000;stroke:#ff0000;" x="372.827291" xlink:href="#m58dba976ab" y="237.340593"/>
     <use style="fill:#ff0000;stroke:#ff0000;" x="373.942943" xlink:href="#m58dba976ab" y="237.340593"/>
     <use style="fill:#ff0000;stroke:#ff0000;" x="375.058594" xlink:href="#m58dba976ab" y="237.340593"/>
     <use style="fill:#ff0000;stroke:#ff0000;" x="376.174246" xlink:href="#m58dba976ab" y="237.340593"/>
     <use style="fill:#ff0000;stroke:#ff0000;" x="377.289897" xlink:href="#m58dba976ab" y="237.340593"/>
     <use style="fill:#ff0000;stroke:#ff0000;" x="378.405548" xlink:href="#m58dba976ab" y="237.340593"/>
     <use style="fill:#ff0000;stroke:#ff0000;" x="379.5212" xlink:href="#m58dba976ab" y="237.340593"/>
     <use style="fill:#ff0000;stroke:#ff0000;" x="380.636851" xlink:href="#m58dba976ab" y="237.340593"/>
     <use style="fill:#ff0000;stroke:#ff0000;" x="381.752502" xlink:href="#m58dba976ab" y="237.340593"/>
     <use style="fill:#ff0000;stroke:#ff0000;" x="382.868154" xlink:href="#m58dba976ab" y="237.340593"/>
     <use style="fill:#ff0000;stroke:#ff0000;" x="383.983805" xlink:href="#m58dba976ab" y="237.340593"/>
     <use style="fill:#ff0000;stroke:#ff0000;" x="385.099456" xlink:href="#m58dba976ab" y="237.340593"/>
     <use style="fill:#ff0000;stroke:#ff0000;" x="386.215108" xlink:href="#m58dba976ab" y="237.340593"/>
     <use style="fill:#ff0000;stroke:#ff0000;" x="387.330759" xlink:href="#m58dba976ab" y="237.340593"/>
     <use style="fill:#ff0000;stroke:#ff0000;" x="388.44641" xlink:href="#m58dba976ab" y="237.340593"/>
     <use style="fill:#ff0000;stroke:#ff0000;" x="389.562062" xlink:href="#m58dba976ab" y="237.340593"/>
     <use style="fill:#ff0000;stroke:#ff0000;" x="390.677713" xlink:href="#m58dba976ab" y="237.340593"/>
     <use style="fill:#ff0000;stroke:#ff0000;" x="391.793365" xlink:href="#m58dba976ab" y="237.340593"/>
     <use style="fill:#ff0000;stroke:#ff0000;" x="392.909016" xlink:href="#m58dba976ab" y="237.340593"/>
     <use style="fill:#ff0000;stroke:#ff0000;" x="394.024667" xlink:href="#m58dba976ab" y="237.340593"/>
     <use style="fill:#ff0000;stroke:#ff0000;" x="395.140319" xlink:href="#m58dba976ab" y="237.340593"/>
     <use style="fill:#ff0000;stroke:#ff0000;" x="396.25597" xlink:href="#m58dba976ab" y="237.340593"/>
     <use style="fill:#ff0000;stroke:#ff0000;" x="397.371621" xlink:href="#m58dba976ab" y="237.340593"/>
     <use style="fill:#ff0000;stroke:#ff0000;" x="398.487273" xlink:href="#m58dba976ab" y="237.340593"/>
    </g>
   </g>
   <g id="patch_3">
    <path d="M 57.6 307.584 
L 57.6 41.472 
" style="fill:none;stroke:#000000;stroke-linecap:square;stroke-linejoin:miter;stroke-width:0.8;"/>
   </g>
   <g id="patch_4">
    <path d="M 414.72 307.584 
L 414.72 41.472 
" style="fill:none;stroke:#000000;stroke-linecap:square;stroke-linejoin:miter;stroke-width:0.8;"/>
   </g>
   <g id="patch_5">
    <path d="M 57.6 307.584 
L 414.72 307.584 
" style="fill:none;stroke:#000000;stroke-linecap:square;stroke-linejoin:miter;stroke-width:0.8;"/>
   </g>
   <g id="patch_6">
    <path d="M 57.6 41.472 
L 414.72 41.472 
" style="fill:none;stroke:#000000;stroke-linecap:square;stroke-linejoin:miter;stroke-width:0.8;"/>
   </g>
  </g>
 </g>
 <defs>
  <clipPath id="p984dfc5b29">
   <rect height="266.112" width="357.12" x="57.6" y="41.472"/>
  </clipPath>
 </defs>
</svg>
