<?xml version="1.0" encoding="utf-8" standalone="no"?>
<!DOCTYPE svg PUBLIC "-//W3C//DTD SVG 1.1//EN"
  "http://www.w3.org/Graphics/SVG/1.1/DTD/svg11.dtd">
<!-- Created with matplotlib (https://matplotlib.org/) -->
<svg height="345.6pt" version="1.1" viewBox="0 0 460.8 345.6" width="460.8pt" xmlns="http://www.w3.org/2000/svg" xmlns:xlink="http://www.w3.org/1999/xlink">
 <defs>
  <style type="text/css">
*{stroke-linecap:butt;stroke-linejoin:round;}
  </style>
 </defs>
 <g id="figure_1">
  <g id="patch_1">
   <path d="M 0 345.6 
L 460.8 345.6 
L 460.8 0 
L 0 0 
z
" style="fill:#ffffff;"/>
  </g>
  <g id="axes_1">
   <g id="patch_2">
    <path d="M 57.6 307.584 
L 414.72 307.584 
L 414.72 41.472 
L 57.6 41.472 
z
" style="fill:#ffffff;"/>
   </g>
   <g id="line2d_1">
    <path clip-path="url(#pe0f2343c71)" d="M 73.832727 95.418326 
L 75.226094 53.568 
L 76.619462 53.568 
L 78.012829 95.418326 
L 80.799563 95.418326 
L 82.19293 138.87459 
L 83.586297 96.274495 
L 86.373032 96.274495 
L 87.766399 141.59764 
L 90.553133 141.59764 
L 91.9465 142.382871 
L 93.339867 142.382871 
L 94.733234 183.041231 
L 96.126602 183.041231 
L 97.519969 136.735509 
L 98.913336 136.735509 
L 100.306703 174.461911 
L 103.093437 174.461911 
L 104.486805 212.48697 
L 105.880172 212.48697 
L 107.273539 226.17246 
L 110.060273 226.17246 
L 111.45364 211.53496 
L 112.847007 211.53496 
L 114.240375 198.166765 
L 115.633742 198.166765 
L 117.027109 199.950528 
L 118.420476 199.950528 
L 119.813843 185.242842 
L 122.600577 185.242842 
L 123.993945 181.906437 
L 125.387312 181.906437 
L 126.780679 167.544271 
L 129.567413 167.544271 
L 130.96078 181.971182 
L 132.354147 181.971182 
L 133.747515 195.370597 
L 135.140882 195.370597 
L 136.534249 196.232081 
L 140.71435 196.232081 
L 142.107718 208.831268 
L 143.501085 208.831268 
L 144.894452 194.940248 
L 146.287819 207.359582 
L 149.074553 207.359582 
L 150.46792 221.114571 
L 154.648022 221.114571 
L 156.041389 205.983617 
L 161.614858 205.983617 
L 163.008225 207.668683 
L 164.401592 207.668683 
L 165.794959 192.41358 
L 167.188326 204.923882 
L 169.97506 204.923882 
L 171.368428 206.347632 
L 172.761795 206.347632 
L 175.548529 233.027688 
L 178.335263 233.027688 
L 179.728631 219.715108 
L 181.121998 219.715108 
L 182.515365 203.548923 
L 183.908732 203.548923 
L 185.302099 216.348912 
L 186.695466 216.696802 
L 193.662302 216.696904 
L 195.055669 230.952434 
L 196.449036 230.952434 
L 197.842403 244.339145 
L 199.235771 256.239138 
L 200.629138 256.239138 
L 202.022505 269.348286 
L 203.415872 269.348286 
L 204.809239 270.164892 
L 206.202606 270.164892 
L 207.595973 283.449913 
L 208.989341 295.488 
L 210.382708 295.488 
L 211.776075 280.021419 
L 213.169442 280.021419 
L 214.562809 293.207869 
L 215.956176 293.207869 
L 217.349544 277.398442 
L 218.742911 277.398442 
L 220.136278 261.116679 
L 222.923012 261.116679 
L 224.316379 245.204985 
L 235.463316 245.204985 
L 236.856684 229.106105 
L 238.250051 215.285458 
L 239.643418 215.285458 
L 241.036785 210.739256 
L 242.430152 210.739256 
L 243.823519 207.778948 
L 245.216886 207.778948 
L 246.610254 193.361311 
L 249.396988 193.361311 
L 250.790355 194.198011 
L 252.183722 194.198011 
L 253.577089 180.678732 
L 254.970456 180.678732 
L 256.363824 193.50236 
L 257.757191 178.582556 
L 261.937292 178.582556 
L 263.330659 177.067227 
L 264.724027 164.413433 
L 266.117394 164.413433 
L 267.510761 175.267962 
L 268.904128 175.267962 
L 270.297495 187.938035 
L 271.690862 187.938035 
L 273.084229 183.805065 
L 275.870964 183.805065 
L 277.264331 169.551543 
L 278.657698 169.551543 
L 280.051065 171.405564 
L 281.444432 157.743134 
L 282.837799 157.743134 
L 284.231167 142.50344 
L 287.017901 142.50344 
L 288.411268 155.55445 
L 291.198002 155.55445 
L 292.591369 140.375821 
L 293.984737 140.375821 
L 295.378104 128.083938 
L 298.164838 128.083938 
L 300.951572 153.404351 
L 302.34494 153.404351 
L 303.738307 149.195868 
L 305.131674 149.195868 
L 306.525041 162.356632 
L 307.918408 162.356632 
L 309.311775 148.284876 
L 310.705142 148.284876 
L 313.491877 174.02648 
L 316.278611 174.02648 
L 317.671978 172.200489 
L 320.458712 172.200489 
L 321.85208 184.887225 
L 323.245447 199.750484 
L 324.638814 199.750484 
L 326.032181 212.678223 
L 327.425548 212.678223 
L 328.818915 225.210224 
L 330.212282 225.210224 
L 331.60565 237.340593 
L 398.487273 237.340593 
L 398.487273 237.340593 
" style="fill:none;stroke:#ff0000;stroke-linecap:square;stroke-width:12;"/>
    <defs>
     <path d="M 0 3 
C 0.795609 3 1.55874 2.683901 2.12132 2.12132 
C 2.683901 1.55874 3 0.795609 3 0 
C 3 -0.795609 2.683901 -1.55874 2.12132 -2.12132 
C 1.55874 -2.683901 0.795609 -3 0 -3 
C -0.795609 -3 -1.55874 -2.683901 -2.12132 -2.12132 
C -2.683901 -1.55874 -3 -0.795609 -3 0 
C -3 0.795609 -2.683901 1.55874 -2.12132 2.12132 
C -1.55874 2.683901 -0.795609 3 0 3 
z
" id="mbb8cff1f65" style="stroke:#ff0000;"/>
    </defs>
    <g clip-path="url(#pe0f2343c71)">
     <use style="fill:#ff0000;stroke:#ff0000;" x="73.832727" xlink:href="#mbb8cff1f65" y="95.418326"/>
     <use style="fill:#ff0000;stroke:#ff0000;" x="75.226094" xlink:href="#mbb8cff1f65" y="53.568"/>
     <use style="fill:#ff0000;stroke:#ff0000;" x="76.619462" xlink:href="#mbb8cff1f65" y="53.568"/>
     <use style="fill:#ff0000;stroke:#ff0000;" x="78.012829" xlink:href="#mbb8cff1f65" y="95.418326"/>
     <use style="fill:#ff0000;stroke:#ff0000;" x="79.406196" xlink:href="#mbb8cff1f65" y="95.418326"/>
     <use style="fill:#ff0000;stroke:#ff0000;" x="80.799563" xlink:href="#mbb8cff1f65" y="95.418326"/>
     <use style="fill:#ff0000;stroke:#ff0000;" x="82.19293" xlink:href="#mbb8cff1f65" y="138.87459"/>
     <use style="fill:#ff0000;stroke:#ff0000;" x="83.586297" xlink:href="#mbb8cff1f65" y="96.274495"/>
     <use style="fill:#ff0000;stroke:#ff0000;" x="84.979664" xlink:href="#mbb8cff1f65" y="96.274495"/>
     <use style="fill:#ff0000;stroke:#ff0000;" x="86.373032" xlink:href="#mbb8cff1f65" y="96.274495"/>
     <use style="fill:#ff0000;stroke:#ff0000;" x="87.766399" xlink:href="#mbb8cff1f65" y="141.59764"/>
     <use style="fill:#ff0000;stroke:#ff0000;" x="89.159766" xlink:href="#mbb8cff1f65" y="141.59764"/>
     <use style="fill:#ff0000;stroke:#ff0000;" x="90.553133" xlink:href="#mbb8cff1f65" y="141.59764"/>
     <use style="fill:#ff0000;stroke:#ff0000;" x="91.9465" xlink:href="#mbb8cff1f65" y="142.382871"/>
     <use style="fill:#ff0000;stroke:#ff0000;" x="93.339867" xlink:href="#mbb8cff1f65" y="142.382871"/>
     <use style="fill:#ff0000;stroke:#ff0000;" x="94.733234" xlink:href="#mbb8cff1f65" y="183.041231"/>
     <use style="fill:#ff0000;stroke:#ff0000;" x="96.126602" xlink:href="#mbb8cff1f65" y="183.041231"/>
     <use style="fill:#ff0000;stroke:#ff0000;" x="97.519969" xlink:href="#mbb8cff1f65" y="136.735509"/>
     <use style="fill:#ff0000;stroke:#ff0000;" x="98.913336" xlink:href="#mbb8cff1f65" y="136.735509"/>
     <use style="fill:#ff0000;stroke:#ff0000;" x="100.306703" xlink:href="#mbb8cff1f65" y="174.461911"/>
     <use style="fill:#ff0000;stroke:#ff0000;" x="101.70007" xlink:href="#mbb8cff1f65" y="174.461911"/>
     <use style="fill:#ff0000;stroke:#ff0000;" x="103.093437" xlink:href="#mbb8cff1f65" y="174.461911"/>
     <use style="fill:#ff0000;stroke:#ff0000;" x="104.486805" xlink:href="#mbb8cff1f65" y="212.48697"/>
     <use style="fill:#ff0000;stroke:#ff0000;" x="105.880172" xlink:href="#mbb8cff1f65" y="212.48697"/>
     <use style="fill:#ff0000;stroke:#ff0000;" x="107.273539" xlink:href="#mbb8cff1f65" y="226.17246"/>
     <use style="fill:#ff0000;stroke:#ff0000;" x="108.666906" xlink:href="#mbb8cff1f65" y="226.17246"/>
     <use style="fill:#ff0000;stroke:#ff0000;" x="110.060273" xlink:href="#mbb8cff1f65" y="226.17246"/>
     <use style="fill:#ff0000;stroke:#ff0000;" x="111.45364" xlink:href="#mbb8cff1f65" y="211.53496"/>
     <use style="fill:#ff0000;stroke:#ff0000;" x="112.847007" xlink:href="#mbb8cff1f65" y="211.53496"/>
     <use style="fill:#ff0000;stroke:#ff0000;" x="114.240375" xlink:href="#mbb8cff1f65" y="198.166765"/>
     <use style="fill:#ff0000;stroke:#ff0000;" x="115.633742" xlink:href="#mbb8cff1f65" y="198.166765"/>
     <use style="fill:#ff0000;stroke:#ff0000;" x="117.027109" xlink:href="#mbb8cff1f65" y="199.950528"/>
     <use style="fill:#ff0000;stroke:#ff0000;" x="118.420476" xlink:href="#mbb8cff1f65" y="199.950528"/>
     <use style="fill:#ff0000;stroke:#ff0000;" x="119.813843" xlink:href="#mbb8cff1f65" y="185.242842"/>
     <use style="fill:#ff0000;stroke:#ff0000;" x="121.20721" xlink:href="#mbb8cff1f65" y="185.242842"/>
     <use style="fill:#ff0000;stroke:#ff0000;" x="122.600577" xlink:href="#mbb8cff1f65" y="185.242842"/>
     <use style="fill:#ff0000;stroke:#ff0000;" x="123.993945" xlink:href="#mbb8cff1f65" y="181.906437"/>
     <use style="fill:#ff0000;stroke:#ff0000;" x="125.387312" xlink:href="#mbb8cff1f65" y="181.906437"/>
     <use style="fill:#ff0000;stroke:#ff0000;" x="126.780679" xlink:href="#mbb8cff1f65" y="167.544271"/>
     <use style="fill:#ff0000;stroke:#ff0000;" x="128.174046" xlink:href="#mbb8cff1f65" y="167.544271"/>
     <use style="fill:#ff0000;stroke:#ff0000;" x="129.567413" xlink:href="#mbb8cff1f65" y="167.544271"/>
     <use style="fill:#ff0000;stroke:#ff0000;" x="130.96078" xlink:href="#mbb8cff1f65" y="181.971182"/>
     <use style="fill:#ff0000;stroke:#ff0000;" x="132.354147" xlink:href="#mbb8cff1f65" y="181.971182"/>
     <use style="fill:#ff0000;stroke:#ff0000;" x="133.747515" xlink:href="#mbb8cff1f65" y="195.370597"/>
     <use style="fill:#ff0000;stroke:#ff0000;" x="135.140882" xlink:href="#mbb8cff1f65" y="195.370597"/>
     <use style="fill:#ff0000;stroke:#ff0000;" x="136.534249" xlink:href="#mbb8cff1f65" y="196.232081"/>
     <use style="fill:#ff0000;stroke:#ff0000;" x="137.927616" xlink:href="#mbb8cff1f65" y="196.232081"/>
     <use style="fill:#ff0000;stroke:#ff0000;" x="139.320983" xlink:href="#mbb8cff1f65" y="196.232081"/>
     <use style="fill:#ff0000;stroke:#ff0000;" x="140.71435" xlink:href="#mbb8cff1f65" y="196.232081"/>
     <use style="fill:#ff0000;stroke:#ff0000;" x="142.107718" xlink:href="#mbb8cff1f65" y="208.831268"/>
     <use style="fill:#ff0000;stroke:#ff0000;" x="143.501085" xlink:href="#mbb8cff1f65" y="208.831268"/>
     <use style="fill:#ff0000;stroke:#ff0000;" x="144.894452" xlink:href="#mbb8cff1f65" y="194.940248"/>
     <use style="fill:#ff0000;stroke:#ff0000;" x="146.287819" xlink:href="#mbb8cff1f65" y="207.359582"/>
     <use style="fill:#ff0000;stroke:#ff0000;" x="147.681186" xlink:href="#mbb8cff1f65" y="207.359582"/>
     <use style="fill:#ff0000;stroke:#ff0000;" x="149.074553" xlink:href="#mbb8cff1f65" y="207.359582"/>
     <use style="fill:#ff0000;stroke:#ff0000;" x="150.46792" xlink:href="#mbb8cff1f65" y="221.114571"/>
     <use style="fill:#ff0000;stroke:#ff0000;" x="151.861288" xlink:href="#mbb8cff1f65" y="221.114571"/>
     <use style="fill:#ff0000;stroke:#ff0000;" x="153.254655" xlink:href="#mbb8cff1f65" y="221.114571"/>
     <use style="fill:#ff0000;stroke:#ff0000;" x="154.648022" xlink:href="#mbb8cff1f65" y="221.114571"/>
     <use style="fill:#ff0000;stroke:#ff0000;" x="156.041389" xlink:href="#mbb8cff1f65" y="205.983617"/>
     <use style="fill:#ff0000;stroke:#ff0000;" x="157.434756" xlink:href="#mbb8cff1f65" y="205.983617"/>
     <use style="fill:#ff0000;stroke:#ff0000;" x="158.828123" xlink:href="#mbb8cff1f65" y="205.983617"/>
     <use style="fill:#ff0000;stroke:#ff0000;" x="160.22149" xlink:href="#mbb8cff1f65" y="205.983617"/>
     <use style="fill:#ff0000;stroke:#ff0000;" x="161.614858" xlink:href="#mbb8cff1f65" y="205.983617"/>
     <use style="fill:#ff0000;stroke:#ff0000;" x="163.008225" xlink:href="#mbb8cff1f65" y="207.668683"/>
     <use style="fill:#ff0000;stroke:#ff0000;" x="164.401592" xlink:href="#mbb8cff1f65" y="207.668683"/>
     <use style="fill:#ff0000;stroke:#ff0000;" x="165.794959" xlink:href="#mbb8cff1f65" y="192.41358"/>
     <use style="fill:#ff0000;stroke:#ff0000;" x="167.188326" xlink:href="#mbb8cff1f65" y="204.923882"/>
     <use style="fill:#ff0000;stroke:#ff0000;" x="168.581693" xlink:href="#mbb8cff1f65" y="204.923882"/>
     <use style="fill:#ff0000;stroke:#ff0000;" x="169.97506" xlink:href="#mbb8cff1f65" y="204.923882"/>
     <use style="fill:#ff0000;stroke:#ff0000;" x="171.368428" xlink:href="#mbb8cff1f65" y="206.347632"/>
     <use style="fill:#ff0000;stroke:#ff0000;" x="172.761795" xlink:href="#mbb8cff1f65" y="206.347632"/>
     <use style="fill:#ff0000;stroke:#ff0000;" x="174.155162" xlink:href="#mbb8cff1f65" y="219.35467"/>
     <use style="fill:#ff0000;stroke:#ff0000;" x="175.548529" xlink:href="#mbb8cff1f65" y="233.027688"/>
     <use style="fill:#ff0000;stroke:#ff0000;" x="176.941896" xlink:href="#mbb8cff1f65" y="233.027688"/>
     <use style="fill:#ff0000;stroke:#ff0000;" x="178.335263" xlink:href="#mbb8cff1f65" y="233.027688"/>
     <use style="fill:#ff0000;stroke:#ff0000;" x="179.728631" xlink:href="#mbb8cff1f65" y="219.715108"/>
     <use style="fill:#ff0000;stroke:#ff0000;" x="181.121998" xlink:href="#mbb8cff1f65" y="219.715108"/>
     <use style="fill:#ff0000;stroke:#ff0000;" x="182.515365" xlink:href="#mbb8cff1f65" y="203.548923"/>
     <use style="fill:#ff0000;stroke:#ff0000;" x="183.908732" xlink:href="#mbb8cff1f65" y="203.548923"/>
     <use style="fill:#ff0000;stroke:#ff0000;" x="185.302099" xlink:href="#mbb8cff1f65" y="216.348912"/>
     <use style="fill:#ff0000;stroke:#ff0000;" x="186.695466" xlink:href="#mbb8cff1f65" y="216.696802"/>
     <use style="fill:#ff0000;stroke:#ff0000;" x="188.088833" xlink:href="#mbb8cff1f65" y="216.696802"/>
     <use style="fill:#ff0000;stroke:#ff0000;" x="189.482201" xlink:href="#mbb8cff1f65" y="216.696802"/>
     <use style="fill:#ff0000;stroke:#ff0000;" x="190.875568" xlink:href="#mbb8cff1f65" y="216.696802"/>
     <use style="fill:#ff0000;stroke:#ff0000;" x="192.268935" xlink:href="#mbb8cff1f65" y="216.696904"/>
     <use style="fill:#ff0000;stroke:#ff0000;" x="193.662302" xlink:href="#mbb8cff1f65" y="216.696904"/>
     <use style="fill:#ff0000;stroke:#ff0000;" x="195.055669" xlink:href="#mbb8cff1f65" y="230.952434"/>
     <use style="fill:#ff0000;stroke:#ff0000;" x="196.449036" xlink:href="#mbb8cff1f65" y="230.952434"/>
     <use style="fill:#ff0000;stroke:#ff0000;" x="197.842403" xlink:href="#mbb8cff1f65" y="244.339145"/>
     <use style="fill:#ff0000;stroke:#ff0000;" x="199.235771" xlink:href="#mbb8cff1f65" y="256.239138"/>
     <use style="fill:#ff0000;stroke:#ff0000;" x="200.629138" xlink:href="#mbb8cff1f65" y="256.239138"/>
     <use style="fill:#ff0000;stroke:#ff0000;" x="202.022505" xlink:href="#mbb8cff1f65" y="269.348286"/>
     <use style="fill:#ff0000;stroke:#ff0000;" x="203.415872" xlink:href="#mbb8cff1f65" y="269.348286"/>
     <use style="fill:#ff0000;stroke:#ff0000;" x="204.809239" xlink:href="#mbb8cff1f65" y="270.164892"/>
     <use style="fill:#ff0000;stroke:#ff0000;" x="206.202606" xlink:href="#mbb8cff1f65" y="270.164892"/>
     <use style="fill:#ff0000;stroke:#ff0000;" x="207.595973" xlink:href="#mbb8cff1f65" y="283.449913"/>
     <use style="fill:#ff0000;stroke:#ff0000;" x="208.989341" xlink:href="#mbb8cff1f65" y="295.488"/>
     <use style="fill:#ff0000;stroke:#ff0000;" x="210.382708" xlink:href="#mbb8cff1f65" y="295.488"/>
     <use style="fill:#ff0000;stroke:#ff0000;" x="211.776075" xlink:href="#mbb8cff1f65" y="280.021419"/>
     <use style="fill:#ff0000;stroke:#ff0000;" x="213.169442" xlink:href="#mbb8cff1f65" y="280.021419"/>
     <use style="fill:#ff0000;stroke:#ff0000;" x="214.562809" xlink:href="#mbb8cff1f65" y="293.207869"/>
     <use style="fill:#ff0000;stroke:#ff0000;" x="215.956176" xlink:href="#mbb8cff1f65" y="293.207869"/>
     <use style="fill:#ff0000;stroke:#ff0000;" x="217.349544" xlink:href="#mbb8cff1f65" y="277.398442"/>
     <use style="fill:#ff0000;stroke:#ff0000;" x="218.742911" xlink:href="#mbb8cff1f65" y="277.398442"/>
     <use style="fill:#ff0000;stroke:#ff0000;" x="220.136278" xlink:href="#mbb8cff1f65" y="261.116679"/>
     <use style="fill:#ff0000;stroke:#ff0000;" x="221.529645" xlink:href="#mbb8cff1f65" y="261.116679"/>
     <use style="fill:#ff0000;stroke:#ff0000;" x="222.923012" xlink:href="#mbb8cff1f65" y="261.116679"/>
     <use style="fill:#ff0000;stroke:#ff0000;" x="224.316379" xlink:href="#mbb8cff1f65" y="245.204985"/>
     <use style="fill:#ff0000;stroke:#ff0000;" x="225.709746" xlink:href="#mbb8cff1f65" y="245.204985"/>
     <use style="fill:#ff0000;stroke:#ff0000;" x="227.103114" xlink:href="#mbb8cff1f65" y="245.204985"/>
     <use style="fill:#ff0000;stroke:#ff0000;" x="228.496481" xlink:href="#mbb8cff1f65" y="245.204985"/>
     <use style="fill:#ff0000;stroke:#ff0000;" x="229.889848" xlink:href="#mbb8cff1f65" y="245.204985"/>
     <use style="fill:#ff0000;stroke:#ff0000;" x="231.283215" xlink:href="#mbb8cff1f65" y="245.204985"/>
     <use style="fill:#ff0000;stroke:#ff0000;" x="232.676582" xlink:href="#mbb8cff1f65" y="245.204985"/>
     <use style="fill:#ff0000;stroke:#ff0000;" x="234.069949" xlink:href="#mbb8cff1f65" y="245.204985"/>
     <use style="fill:#ff0000;stroke:#ff0000;" x="235.463316" xlink:href="#mbb8cff1f65" y="245.204985"/>
     <use style="fill:#ff0000;stroke:#ff0000;" x="236.856684" xlink:href="#mbb8cff1f65" y="229.106105"/>
     <use style="fill:#ff0000;stroke:#ff0000;" x="238.250051" xlink:href="#mbb8cff1f65" y="215.285458"/>
     <use style="fill:#ff0000;stroke:#ff0000;" x="239.643418" xlink:href="#mbb8cff1f65" y="215.285458"/>
     <use style="fill:#ff0000;stroke:#ff0000;" x="241.036785" xlink:href="#mbb8cff1f65" y="210.739256"/>
     <use style="fill:#ff0000;stroke:#ff0000;" x="242.430152" xlink:href="#mbb8cff1f65" y="210.739256"/>
     <use style="fill:#ff0000;stroke:#ff0000;" x="243.823519" xlink:href="#mbb8cff1f65" y="207.778948"/>
     <use style="fill:#ff0000;stroke:#ff0000;" x="245.216886" xlink:href="#mbb8cff1f65" y="207.778948"/>
     <use style="fill:#ff0000;stroke:#ff0000;" x="246.610254" xlink:href="#mbb8cff1f65" y="193.361311"/>
     <use style="fill:#ff0000;stroke:#ff0000;" x="248.003621" xlink:href="#mbb8cff1f65" y="193.361311"/>
     <use style="fill:#ff0000;stroke:#ff0000;" x="249.396988" xlink:href="#mbb8cff1f65" y="193.361311"/>
     <use style="fill:#ff0000;stroke:#ff0000;" x="250.790355" xlink:href="#mbb8cff1f65" y="194.198011"/>
     <use style="fill:#ff0000;stroke:#ff0000;" x="252.183722" xlink:href="#mbb8cff1f65" y="194.198011"/>
     <use style="fill:#ff0000;stroke:#ff0000;" x="253.577089" xlink:href="#mbb8cff1f65" y="180.678732"/>
     <use style="fill:#ff0000;stroke:#ff0000;" x="254.970456" xlink:href="#mbb8cff1f65" y="180.678732"/>
     <use style="fill:#ff0000;stroke:#ff0000;" x="256.363824" xlink:href="#mbb8cff1f65" y="193.50236"/>
     <use style="fill:#ff0000;stroke:#ff0000;" x="257.757191" xlink:href="#mbb8cff1f65" y="178.582556"/>
     <use style="fill:#ff0000;stroke:#ff0000;" x="259.150558" xlink:href="#mbb8cff1f65" y="178.582556"/>
     <use style="fill:#ff0000;stroke:#ff0000;" x="260.543925" xlink:href="#mbb8cff1f65" y="178.582556"/>
     <use style="fill:#ff0000;stroke:#ff0000;" x="261.937292" xlink:href="#mbb8cff1f65" y="178.582556"/>
     <use style="fill:#ff0000;stroke:#ff0000;" x="263.330659" xlink:href="#mbb8cff1f65" y="177.067227"/>
     <use style="fill:#ff0000;stroke:#ff0000;" x="264.724027" xlink:href="#mbb8cff1f65" y="164.413433"/>
     <use style="fill:#ff0000;stroke:#ff0000;" x="266.117394" xlink:href="#mbb8cff1f65" y="164.413433"/>
     <use style="fill:#ff0000;stroke:#ff0000;" x="267.510761" xlink:href="#mbb8cff1f65" y="175.267962"/>
     <use style="fill:#ff0000;stroke:#ff0000;" x="268.904128" xlink:href="#mbb8cff1f65" y="175.267962"/>
     <use style="fill:#ff0000;stroke:#ff0000;" x="270.297495" xlink:href="#mbb8cff1f65" y="187.938035"/>
     <use style="fill:#ff0000;stroke:#ff0000;" x="271.690862" xlink:href="#mbb8cff1f65" y="187.938035"/>
     <use style="fill:#ff0000;stroke:#ff0000;" x="273.084229" xlink:href="#mbb8cff1f65" y="183.805065"/>
     <use style="fill:#ff0000;stroke:#ff0000;" x="274.477597" xlink:href="#mbb8cff1f65" y="183.805065"/>
     <use style="fill:#ff0000;stroke:#ff0000;" x="275.870964" xlink:href="#mbb8cff1f65" y="183.805065"/>
     <use style="fill:#ff0000;stroke:#ff0000;" x="277.264331" xlink:href="#mbb8cff1f65" y="169.551543"/>
     <use style="fill:#ff0000;stroke:#ff0000;" x="278.657698" xlink:href="#mbb8cff1f65" y="169.551543"/>
     <use style="fill:#ff0000;stroke:#ff0000;" x="280.051065" xlink:href="#mbb8cff1f65" y="171.405564"/>
     <use style="fill:#ff0000;stroke:#ff0000;" x="281.444432" xlink:href="#mbb8cff1f65" y="157.743134"/>
     <use style="fill:#ff0000;stroke:#ff0000;" x="282.837799" xlink:href="#mbb8cff1f65" y="157.743134"/>
     <use style="fill:#ff0000;stroke:#ff0000;" x="284.231167" xlink:href="#mbb8cff1f65" y="142.50344"/>
     <use style="fill:#ff0000;stroke:#ff0000;" x="285.624534" xlink:href="#mbb8cff1f65" y="142.50344"/>
     <use style="fill:#ff0000;stroke:#ff0000;" x="287.017901" xlink:href="#mbb8cff1f65" y="142.50344"/>
     <use style="fill:#ff0000;stroke:#ff0000;" x="288.411268" xlink:href="#mbb8cff1f65" y="155.55445"/>
     <use style="fill:#ff0000;stroke:#ff0000;" x="289.804635" xlink:href="#mbb8cff1f65" y="155.55445"/>
     <use style="fill:#ff0000;stroke:#ff0000;" x="291.198002" xlink:href="#mbb8cff1f65" y="155.55445"/>
     <use style="fill:#ff0000;stroke:#ff0000;" x="292.591369" xlink:href="#mbb8cff1f65" y="140.375821"/>
     <use style="fill:#ff0000;stroke:#ff0000;" x="293.984737" xlink:href="#mbb8cff1f65" y="140.375821"/>
     <use style="fill:#ff0000;stroke:#ff0000;" x="295.378104" xlink:href="#mbb8cff1f65" y="128.083938"/>
     <use style="fill:#ff0000;stroke:#ff0000;" x="296.771471" xlink:href="#mbb8cff1f65" y="128.083938"/>
     <use style="fill:#ff0000;stroke:#ff0000;" x="298.164838" xlink:href="#mbb8cff1f65" y="128.083938"/>
     <use style="fill:#ff0000;stroke:#ff0000;" x="299.558205" xlink:href="#mbb8cff1f65" y="141.054782"/>
     <use style="fill:#ff0000;stroke:#ff0000;" x="300.951572" xlink:href="#mbb8cff1f65" y="153.404351"/>
     <use style="fill:#ff0000;stroke:#ff0000;" x="302.34494" xlink:href="#mbb8cff1f65" y="153.404351"/>
     <use style="fill:#ff0000;stroke:#ff0000;" x="303.738307" xlink:href="#mbb8cff1f65" y="149.195868"/>
     <use style="fill:#ff0000;stroke:#ff0000;" x="305.131674" xlink:href="#mbb8cff1f65" y="149.195868"/>
     <use style="fill:#ff0000;stroke:#ff0000;" x="306.525041" xlink:href="#mbb8cff1f65" y="162.356632"/>
     <use style="fill:#ff0000;stroke:#ff0000;" x="307.918408" xlink:href="#mbb8cff1f65" y="162.356632"/>
     <use style="fill:#ff0000;stroke:#ff0000;" x="309.311775" xlink:href="#mbb8cff1f65" y="148.284876"/>
     <use style="fill:#ff0000;stroke:#ff0000;" x="310.705142" xlink:href="#mbb8cff1f65" y="148.284876"/>
     <use style="fill:#ff0000;stroke:#ff0000;" x="312.09851" xlink:href="#mbb8cff1f65" y="161.276018"/>
     <use style="fill:#ff0000;stroke:#ff0000;" x="313.491877" xlink:href="#mbb8cff1f65" y="174.02648"/>
     <use style="fill:#ff0000;stroke:#ff0000;" x="314.885244" xlink:href="#mbb8cff1f65" y="174.02648"/>
     <use style="fill:#ff0000;stroke:#ff0000;" x="316.278611" xlink:href="#mbb8cff1f65" y="174.02648"/>
     <use style="fill:#ff0000;stroke:#ff0000;" x="317.671978" xlink:href="#mbb8cff1f65" y="172.200489"/>
     <use style="fill:#ff0000;stroke:#ff0000;" x="319.065345" xlink:href="#mbb8cff1f65" y="172.200489"/>
     <use style="fill:#ff0000;stroke:#ff0000;" x="320.458712" xlink:href="#mbb8cff1f65" y="172.200489"/>
     <use style="fill:#ff0000;stroke:#ff0000;" x="321.85208" xlink:href="#mbb8cff1f65" y="184.887225"/>
     <use style="fill:#ff0000;stroke:#ff0000;" x="323.245447" xlink:href="#mbb8cff1f65" y="199.750484"/>
     <use style="fill:#ff0000;stroke:#ff0000;" x="324.638814" xlink:href="#mbb8cff1f65" y="199.750484"/>
     <use style="fill:#ff0000;stroke:#ff0000;" x="326.032181" xlink:href="#mbb8cff1f65" y="212.678223"/>
     <use style="fill:#ff0000;stroke:#ff0000;" x="327.425548" xlink:href="#mbb8cff1f65" y="212.678223"/>
     <use style="fill:#ff0000;stroke:#ff0000;" x="328.818915" xlink:href="#mbb8cff1f65" y="225.210224"/>
     <use style="fill:#ff0000;stroke:#ff0000;" x="330.212282" xlink:href="#mbb8cff1f65" y="225.210224"/>
     <use style="fill:#ff0000;stroke:#ff0000;" x="331.60565" xlink:href="#mbb8cff1f65" y="237.340593"/>
     <use style="fill:#ff0000;stroke:#ff0000;" x="332.999017" xlink:href="#mbb8cff1f65" y="237.340593"/>
     <use style="fill:#ff0000;stroke:#ff0000;" x="334.392384" xlink:href="#mbb8cff1f65" y="237.340593"/>
     <use style="fill:#ff0000;stroke:#ff0000;" x="335.785751" xlink:href="#mbb8cff1f65" y="237.340593"/>
     <use style="fill:#ff0000;stroke:#ff0000;" x="337.179118" xlink:href="#mbb8cff1f65" y="237.340593"/>
     <use style="fill:#ff0000;stroke:#ff0000;" x="338.572485" xlink:href="#mbb8cff1f65" y="237.340593"/>
     <use style="fill:#ff0000;stroke:#ff0000;" x="339.965853" xlink:href="#mbb8cff1f65" y="237.340593"/>
     <use style="fill:#ff0000;stroke:#ff0000;" x="341.35922" xlink:href="#mbb8cff1f65" y="237.340593"/>
     <use style="fill:#ff0000;stroke:#ff0000;" x="342.752587" xlink:href="#mbb8cff1f65" y="237.340593"/>
     <use style="fill:#ff0000;stroke:#ff0000;" x="344.145954" xlink:href="#mbb8cff1f65" y="237.340593"/>
     <use style="fill:#ff0000;stroke:#ff0000;" x="345.539321" xlink:href="#mbb8cff1f65" y="237.340593"/>
     <use style="fill:#ff0000;stroke:#ff0000;" x="346.932688" xlink:href="#mbb8cff1f65" y="237.340593"/>
     <use style="fill:#ff0000;stroke:#ff0000;" x="348.326055" xlink:href="#mbb8cff1f65" y="237.340593"/>
     <use style="fill:#ff0000;stroke:#ff0000;" x="349.719423" xlink:href="#mbb8cff1f65" y="237.340593"/>
     <use style="fill:#ff0000;stroke:#ff0000;" x="351.11279" xlink:href="#mbb8cff1f65" y="237.340593"/>
     <use style="fill:#ff0000;stroke:#ff0000;" x="352.506157" xlink:href="#mbb8cff1f65" y="237.340593"/>
     <use style="fill:#ff0000;stroke:#ff0000;" x="353.899524" xlink:href="#mbb8cff1f65" y="237.340593"/>
     <use style="fill:#ff0000;stroke:#ff0000;" x="355.292891" xlink:href="#mbb8cff1f65" y="237.340593"/>
     <use style="fill:#ff0000;stroke:#ff0000;" x="356.686258" xlink:href="#mbb8cff1f65" y="237.340593"/>
     <use style="fill:#ff0000;stroke:#ff0000;" x="358.079625" xlink:href="#mbb8cff1f65" y="237.340593"/>
     <use style="fill:#ff0000;stroke:#ff0000;" x="359.472993" xlink:href="#mbb8cff1f65" y="237.340593"/>
     <use style="fill:#ff0000;stroke:#ff0000;" x="360.86636" xlink:href="#mbb8cff1f65" y="237.340593"/>
     <use style="fill:#ff0000;stroke:#ff0000;" x="362.259727" xlink:href="#mbb8cff1f65" y="237.340593"/>
     <use style="fill:#ff0000;stroke:#ff0000;" x="363.653094" xlink:href="#mbb8cff1f65" y="237.340593"/>
     <use style="fill:#ff0000;stroke:#ff0000;" x="365.046461" xlink:href="#mbb8cff1f65" y="237.340593"/>
     <use style="fill:#ff0000;stroke:#ff0000;" x="366.439828" xlink:href="#mbb8cff1f65" y="237.340593"/>
     <use style="fill:#ff0000;stroke:#ff0000;" x="367.833195" xlink:href="#mbb8cff1f65" y="237.340593"/>
     <use style="fill:#ff0000;stroke:#ff0000;" x="369.226563" xlink:href="#mbb8cff1f65" y="237.340593"/>
     <use style="fill:#ff0000;stroke:#ff0000;" x="370.61993" xlink:href="#mbb8cff1f65" y="237.340593"/>
     <use style="fill:#ff0000;stroke:#ff0000;" x="372.013297" xlink:href="#mbb8cff1f65" y="237.340593"/>
     <use style="fill:#ff0000;stroke:#ff0000;" x="373.406664" xlink:href="#mbb8cff1f65" y="237.340593"/>
     <use style="fill:#ff0000;stroke:#ff0000;" x="374.800031" xlink:href="#mbb8cff1f65" y="237.340593"/>
     <use style="fill:#ff0000;stroke:#ff0000;" x="376.193398" xlink:href="#mbb8cff1f65" y="237.340593"/>
     <use style="fill:#ff0000;stroke:#ff0000;" x="377.586766" xlink:href="#mbb8cff1f65" y="237.340593"/>
     <use style="fill:#ff0000;stroke:#ff0000;" x="378.980133" xlink:href="#mbb8cff1f65" y="237.340593"/>
     <use style="fill:#ff0000;stroke:#ff0000;" x="380.3735" xlink:href="#mbb8cff1f65" y="237.340593"/>
     <use style="fill:#ff0000;stroke:#ff0000;" x="381.766867" xlink:href="#mbb8cff1f65" y="237.340593"/>
     <use style="fill:#ff0000;stroke:#ff0000;" x="383.160234" xlink:href="#mbb8cff1f65" y="237.340593"/>
     <use style="fill:#ff0000;stroke:#ff0000;" x="384.553601" xlink:href="#mbb8cff1f65" y="237.340593"/>
     <use style="fill:#ff0000;stroke:#ff0000;" x="385.946968" xlink:href="#mbb8cff1f65" y="237.340593"/>
     <use style="fill:#ff0000;stroke:#ff0000;" x="387.340336" xlink:href="#mbb8cff1f65" y="237.340593"/>
     <use style="fill:#ff0000;stroke:#ff0000;" x="388.733703" xlink:href="#mbb8cff1f65" y="237.340593"/>
     <use style="fill:#ff0000;stroke:#ff0000;" x="390.12707" xlink:href="#mbb8cff1f65" y="237.340593"/>
     <use style="fill:#ff0000;stroke:#ff0000;" x="391.520437" xlink:href="#mbb8cff1f65" y="237.340593"/>
     <use style="fill:#ff0000;stroke:#ff0000;" x="392.913804" xlink:href="#mbb8cff1f65" y="237.340593"/>
     <use style="fill:#ff0000;stroke:#ff0000;" x="394.307171" xlink:href="#mbb8cff1f65" y="237.340593"/>
     <use style="fill:#ff0000;stroke:#ff0000;" x="395.700538" xlink:href="#mbb8cff1f65" y="237.340593"/>
     <use style="fill:#ff0000;stroke:#ff0000;" x="397.093906" xlink:href="#mbb8cff1f65" y="237.340593"/>
     <use style="fill:#ff0000;stroke:#ff0000;" x="398.487273" xlink:href="#mbb8cff1f65" y="237.340593"/>
    </g>
   </g>
   <g id="patch_3">
    <path d="M 57.6 307.584 
L 57.6 41.472 
" style="fill:none;stroke:#000000;stroke-linecap:square;stroke-linejoin:miter;stroke-width:0.8;"/>
   </g>
   <g id="patch_4">
    <path d="M 414.72 307.584 
L 414.72 41.472 
" style="fill:none;stroke:#000000;stroke-linecap:square;stroke-linejoin:miter;stroke-width:0.8;"/>
   </g>
   <g id="patch_5">
    <path d="M 57.6 307.584 
L 414.72 307.584 
" style="fill:none;stroke:#000000;stroke-linecap:square;stroke-linejoin:miter;stroke-width:0.8;"/>
   </g>
   <g id="patch_6">
    <path d="M 57.6 41.472 
L 414.72 41.472 
" style="fill:none;stroke:#000000;stroke-linecap:square;stroke-linejoin:miter;stroke-width:0.8;"/>
   </g>
  </g>
 </g>
 <defs>
  <clipPath id="pe0f2343c71">
   <rect height="266.112" width="357.12" x="57.6" y="41.472"/>
  </clipPath>
 </defs>
</svg>
