<?xml version="1.0" encoding="utf-8" standalone="no"?>
<!DOCTYPE svg PUBLIC "-//W3C//DTD SVG 1.1//EN"
  "http://www.w3.org/Graphics/SVG/1.1/DTD/svg11.dtd">
<!-- Created with matplotlib (https://matplotlib.org/) -->
<svg height="345.6pt" version="1.1" viewBox="0 0 460.8 345.6" width="460.8pt" xmlns="http://www.w3.org/2000/svg" xmlns:xlink="http://www.w3.org/1999/xlink">
 <defs>
  <style type="text/css">
*{stroke-linecap:butt;stroke-linejoin:round;}
  </style>
 </defs>
 <g id="figure_1">
  <g id="patch_1">
   <path d="M 0 345.6 
L 460.8 345.6 
L 460.8 0 
L 0 0 
z
" style="fill:#ffffff;"/>
  </g>
  <g id="axes_1">
   <g id="patch_2">
    <path d="M 57.6 307.584 
L 414.72 307.584 
L 414.72 41.472 
L 57.6 41.472 
z
" style="fill:#ffffff;"/>
   </g>
   <g id="line2d_1">
    <path clip-path="url(#p4aec918322)" d="M 73.832727 295.488 
L 75.335758 234.755032 
L 76.838788 234.755032 
L 78.341818 295.488 
L 81.347879 295.488 
L 82.850909 233.733993 
L 84.353939 233.733993 
L 85.85697 294.5665 
L 88.86303 294.5665 
L 90.366061 230.142083 
L 91.869091 230.142083 
L 93.372121 244.971744 
L 94.875152 244.971744 
L 96.378182 183.785824 
L 97.881212 183.785824 
L 99.384242 129.021078 
L 100.887273 129.021078 
L 102.390303 121.974839 
L 103.893333 121.974839 
L 105.396364 184.887821 
L 106.899394 184.887821 
L 108.402424 167.809927 
L 109.905455 187.998728 
L 115.917576 187.998728 
L 117.420606 170.219011 
L 118.923636 193.430442 
L 127.941818 193.430442 
L 129.444848 172.765102 
L 130.947879 172.765102 
L 132.450909 153.520471 
L 135.45697 153.520471 
L 136.96 134.397719 
L 138.46303 134.397719 
L 139.966061 134.819936 
L 142.972121 134.819936 
L 144.475152 116.360152 
L 145.978182 116.360152 
L 147.481212 137.713478 
L 148.984242 137.713478 
L 150.487273 157.889654 
L 151.990303 139.239916 
L 154.996364 139.239916 
L 156.499394 160.217387 
L 158.002424 160.217387 
L 159.505455 141.53827 
L 161.008485 141.53827 
L 162.511515 138.941232 
L 164.014545 141.720451 
L 165.517576 141.720451 
L 167.020606 122.363448 
L 170.026667 122.363448 
L 171.529697 144.830938 
L 173.032727 144.830938 
L 174.535758 126.676055 
L 176.038788 126.676055 
L 177.541818 109.034846 
L 179.044848 109.034846 
L 180.547879 106.093021 
L 182.050909 104.760055 
L 183.553939 104.760055 
L 185.05697 99.446331 
L 186.56 99.446331 
L 188.06303 123.775656 
L 189.566061 123.775656 
L 191.069091 103.73264 
L 192.572121 103.73264 
L 194.075152 85.43526 
L 200.087273 85.43526 
L 201.590303 106.353113 
L 203.093333 106.353113 
L 204.596364 127.590409 
L 206.099394 127.590409 
L 207.602424 108.923836 
L 212.111515 108.923836 
L 213.614545 129.196426 
L 215.117576 129.196426 
L 216.620606 110.030108 
L 218.123636 110.030108 
L 219.626667 89.986948 
L 221.129697 89.986948 
L 222.632727 111.038192 
L 224.135758 95.076454 
L 225.638788 95.076454 
L 227.141818 93.443417 
L 228.644848 93.443417 
L 230.147879 73.966884 
L 231.650909 73.966884 
L 233.153939 53.568 
L 234.65697 53.568 
L 236.16 76.019266 
L 248.184242 76.019266 
L 249.687273 99.381874 
L 252.693333 99.483221 
L 254.196364 80.210948 
L 255.699394 80.210948 
L 257.202424 62.62727 
L 260.208485 62.62727 
L 261.711515 66.871537 
L 263.214545 66.871537 
L 264.717576 87.55816 
L 266.220606 87.55816 
L 267.723636 111.168378 
L 269.226667 92.340583 
L 270.729697 92.340583 
L 272.232727 75.192067 
L 273.735758 75.192067 
L 275.238788 97.000225 
L 276.741818 97.000225 
L 278.244848 104.459193 
L 282.753939 104.459193 
L 284.25697 125.900404 
L 285.76 125.900404 
L 287.26303 107.0256 
L 288.766061 107.0256 
L 290.269091 129.491028 
L 291.772121 129.491028 
L 293.275152 150.748225 
L 296.281212 150.748225 
L 297.784242 130.1951 
L 299.287273 130.1951 
L 300.790303 110.693379 
L 302.293333 110.693379 
L 303.796364 128.464712 
L 306.802424 128.464712 
L 308.305455 108.254382 
L 309.808485 108.254382 
L 311.311515 128.766361 
L 312.814545 128.766361 
L 314.317576 147.857488 
L 315.820606 147.857488 
L 317.323636 126.405411 
L 318.826667 126.405411 
L 320.329697 105.243213 
L 321.832727 105.243213 
L 323.335758 89.520416 
L 324.838788 89.520416 
L 326.341818 72.321744 
L 327.844848 93.457073 
L 329.347879 93.457073 
L 330.850909 73.363389 
L 332.353939 73.363389 
L 333.85697 95.095725 
L 336.86303 95.095725 
L 338.366061 115.820788 
L 339.869091 115.820788 
L 341.372121 136.408965 
L 342.875152 136.408965 
L 344.378182 134.294558 
L 345.881212 155.635224 
L 347.384242 155.635224 
L 348.887273 159.930478 
L 350.390303 159.930478 
L 351.893333 140.996751 
L 398.487273 140.996751 
L 398.487273 140.996751 
" style="fill:none;stroke:#ff0000;stroke-linecap:square;stroke-width:12;"/>
    <defs>
     <path d="M 0 3 
C 0.795609 3 1.55874 2.683901 2.12132 2.12132 
C 2.683901 1.55874 3 0.795609 3 0 
C 3 -0.795609 2.683901 -1.55874 2.12132 -2.12132 
C 1.55874 -2.683901 0.795609 -3 0 -3 
C -0.795609 -3 -1.55874 -2.683901 -2.12132 -2.12132 
C -2.683901 -1.55874 -3 -0.795609 -3 0 
C -3 0.795609 -2.683901 1.55874 -2.12132 2.12132 
C -1.55874 2.683901 -0.795609 3 0 3 
z
" id="mcc15e95e1a" style="stroke:#ff0000;"/>
    </defs>
    <g clip-path="url(#p4aec918322)">
     <use style="fill:#ff0000;stroke:#ff0000;" x="73.832727" xlink:href="#mcc15e95e1a" y="295.488"/>
     <use style="fill:#ff0000;stroke:#ff0000;" x="75.335758" xlink:href="#mcc15e95e1a" y="234.755032"/>
     <use style="fill:#ff0000;stroke:#ff0000;" x="76.838788" xlink:href="#mcc15e95e1a" y="234.755032"/>
     <use style="fill:#ff0000;stroke:#ff0000;" x="78.341818" xlink:href="#mcc15e95e1a" y="295.488"/>
     <use style="fill:#ff0000;stroke:#ff0000;" x="79.844848" xlink:href="#mcc15e95e1a" y="295.488"/>
     <use style="fill:#ff0000;stroke:#ff0000;" x="81.347879" xlink:href="#mcc15e95e1a" y="295.488"/>
     <use style="fill:#ff0000;stroke:#ff0000;" x="82.850909" xlink:href="#mcc15e95e1a" y="233.733993"/>
     <use style="fill:#ff0000;stroke:#ff0000;" x="84.353939" xlink:href="#mcc15e95e1a" y="233.733993"/>
     <use style="fill:#ff0000;stroke:#ff0000;" x="85.85697" xlink:href="#mcc15e95e1a" y="294.5665"/>
     <use style="fill:#ff0000;stroke:#ff0000;" x="87.36" xlink:href="#mcc15e95e1a" y="294.5665"/>
     <use style="fill:#ff0000;stroke:#ff0000;" x="88.86303" xlink:href="#mcc15e95e1a" y="294.5665"/>
     <use style="fill:#ff0000;stroke:#ff0000;" x="90.366061" xlink:href="#mcc15e95e1a" y="230.142083"/>
     <use style="fill:#ff0000;stroke:#ff0000;" x="91.869091" xlink:href="#mcc15e95e1a" y="230.142083"/>
     <use style="fill:#ff0000;stroke:#ff0000;" x="93.372121" xlink:href="#mcc15e95e1a" y="244.971744"/>
     <use style="fill:#ff0000;stroke:#ff0000;" x="94.875152" xlink:href="#mcc15e95e1a" y="244.971744"/>
     <use style="fill:#ff0000;stroke:#ff0000;" x="96.378182" xlink:href="#mcc15e95e1a" y="183.785824"/>
     <use style="fill:#ff0000;stroke:#ff0000;" x="97.881212" xlink:href="#mcc15e95e1a" y="183.785824"/>
     <use style="fill:#ff0000;stroke:#ff0000;" x="99.384242" xlink:href="#mcc15e95e1a" y="129.021078"/>
     <use style="fill:#ff0000;stroke:#ff0000;" x="100.887273" xlink:href="#mcc15e95e1a" y="129.021078"/>
     <use style="fill:#ff0000;stroke:#ff0000;" x="102.390303" xlink:href="#mcc15e95e1a" y="121.974839"/>
     <use style="fill:#ff0000;stroke:#ff0000;" x="103.893333" xlink:href="#mcc15e95e1a" y="121.974839"/>
     <use style="fill:#ff0000;stroke:#ff0000;" x="105.396364" xlink:href="#mcc15e95e1a" y="184.887821"/>
     <use style="fill:#ff0000;stroke:#ff0000;" x="106.899394" xlink:href="#mcc15e95e1a" y="184.887821"/>
     <use style="fill:#ff0000;stroke:#ff0000;" x="108.402424" xlink:href="#mcc15e95e1a" y="167.809927"/>
     <use style="fill:#ff0000;stroke:#ff0000;" x="109.905455" xlink:href="#mcc15e95e1a" y="187.998728"/>
     <use style="fill:#ff0000;stroke:#ff0000;" x="111.408485" xlink:href="#mcc15e95e1a" y="187.998728"/>
     <use style="fill:#ff0000;stroke:#ff0000;" x="112.911515" xlink:href="#mcc15e95e1a" y="187.998728"/>
     <use style="fill:#ff0000;stroke:#ff0000;" x="114.414545" xlink:href="#mcc15e95e1a" y="187.998728"/>
     <use style="fill:#ff0000;stroke:#ff0000;" x="115.917576" xlink:href="#mcc15e95e1a" y="187.998728"/>
     <use style="fill:#ff0000;stroke:#ff0000;" x="117.420606" xlink:href="#mcc15e95e1a" y="170.219011"/>
     <use style="fill:#ff0000;stroke:#ff0000;" x="118.923636" xlink:href="#mcc15e95e1a" y="193.430442"/>
     <use style="fill:#ff0000;stroke:#ff0000;" x="120.426667" xlink:href="#mcc15e95e1a" y="193.430442"/>
     <use style="fill:#ff0000;stroke:#ff0000;" x="121.929697" xlink:href="#mcc15e95e1a" y="193.430442"/>
     <use style="fill:#ff0000;stroke:#ff0000;" x="123.432727" xlink:href="#mcc15e95e1a" y="193.430442"/>
     <use style="fill:#ff0000;stroke:#ff0000;" x="124.935758" xlink:href="#mcc15e95e1a" y="193.430442"/>
     <use style="fill:#ff0000;stroke:#ff0000;" x="126.438788" xlink:href="#mcc15e95e1a" y="193.430442"/>
     <use style="fill:#ff0000;stroke:#ff0000;" x="127.941818" xlink:href="#mcc15e95e1a" y="193.430442"/>
     <use style="fill:#ff0000;stroke:#ff0000;" x="129.444848" xlink:href="#mcc15e95e1a" y="172.765102"/>
     <use style="fill:#ff0000;stroke:#ff0000;" x="130.947879" xlink:href="#mcc15e95e1a" y="172.765102"/>
     <use style="fill:#ff0000;stroke:#ff0000;" x="132.450909" xlink:href="#mcc15e95e1a" y="153.520471"/>
     <use style="fill:#ff0000;stroke:#ff0000;" x="133.953939" xlink:href="#mcc15e95e1a" y="153.520471"/>
     <use style="fill:#ff0000;stroke:#ff0000;" x="135.45697" xlink:href="#mcc15e95e1a" y="153.520471"/>
     <use style="fill:#ff0000;stroke:#ff0000;" x="136.96" xlink:href="#mcc15e95e1a" y="134.397719"/>
     <use style="fill:#ff0000;stroke:#ff0000;" x="138.46303" xlink:href="#mcc15e95e1a" y="134.397719"/>
     <use style="fill:#ff0000;stroke:#ff0000;" x="139.966061" xlink:href="#mcc15e95e1a" y="134.819936"/>
     <use style="fill:#ff0000;stroke:#ff0000;" x="141.469091" xlink:href="#mcc15e95e1a" y="134.819936"/>
     <use style="fill:#ff0000;stroke:#ff0000;" x="142.972121" xlink:href="#mcc15e95e1a" y="134.819936"/>
     <use style="fill:#ff0000;stroke:#ff0000;" x="144.475152" xlink:href="#mcc15e95e1a" y="116.360152"/>
     <use style="fill:#ff0000;stroke:#ff0000;" x="145.978182" xlink:href="#mcc15e95e1a" y="116.360152"/>
     <use style="fill:#ff0000;stroke:#ff0000;" x="147.481212" xlink:href="#mcc15e95e1a" y="137.713478"/>
     <use style="fill:#ff0000;stroke:#ff0000;" x="148.984242" xlink:href="#mcc15e95e1a" y="137.713478"/>
     <use style="fill:#ff0000;stroke:#ff0000;" x="150.487273" xlink:href="#mcc15e95e1a" y="157.889654"/>
     <use style="fill:#ff0000;stroke:#ff0000;" x="151.990303" xlink:href="#mcc15e95e1a" y="139.239916"/>
     <use style="fill:#ff0000;stroke:#ff0000;" x="153.493333" xlink:href="#mcc15e95e1a" y="139.239916"/>
     <use style="fill:#ff0000;stroke:#ff0000;" x="154.996364" xlink:href="#mcc15e95e1a" y="139.239916"/>
     <use style="fill:#ff0000;stroke:#ff0000;" x="156.499394" xlink:href="#mcc15e95e1a" y="160.217387"/>
     <use style="fill:#ff0000;stroke:#ff0000;" x="158.002424" xlink:href="#mcc15e95e1a" y="160.217387"/>
     <use style="fill:#ff0000;stroke:#ff0000;" x="159.505455" xlink:href="#mcc15e95e1a" y="141.53827"/>
     <use style="fill:#ff0000;stroke:#ff0000;" x="161.008485" xlink:href="#mcc15e95e1a" y="141.53827"/>
     <use style="fill:#ff0000;stroke:#ff0000;" x="162.511515" xlink:href="#mcc15e95e1a" y="138.941232"/>
     <use style="fill:#ff0000;stroke:#ff0000;" x="164.014545" xlink:href="#mcc15e95e1a" y="141.720451"/>
     <use style="fill:#ff0000;stroke:#ff0000;" x="165.517576" xlink:href="#mcc15e95e1a" y="141.720451"/>
     <use style="fill:#ff0000;stroke:#ff0000;" x="167.020606" xlink:href="#mcc15e95e1a" y="122.363448"/>
     <use style="fill:#ff0000;stroke:#ff0000;" x="168.523636" xlink:href="#mcc15e95e1a" y="122.363448"/>
     <use style="fill:#ff0000;stroke:#ff0000;" x="170.026667" xlink:href="#mcc15e95e1a" y="122.363448"/>
     <use style="fill:#ff0000;stroke:#ff0000;" x="171.529697" xlink:href="#mcc15e95e1a" y="144.830938"/>
     <use style="fill:#ff0000;stroke:#ff0000;" x="173.032727" xlink:href="#mcc15e95e1a" y="144.830938"/>
     <use style="fill:#ff0000;stroke:#ff0000;" x="174.535758" xlink:href="#mcc15e95e1a" y="126.676055"/>
     <use style="fill:#ff0000;stroke:#ff0000;" x="176.038788" xlink:href="#mcc15e95e1a" y="126.676055"/>
     <use style="fill:#ff0000;stroke:#ff0000;" x="177.541818" xlink:href="#mcc15e95e1a" y="109.034846"/>
     <use style="fill:#ff0000;stroke:#ff0000;" x="179.044848" xlink:href="#mcc15e95e1a" y="109.034846"/>
     <use style="fill:#ff0000;stroke:#ff0000;" x="180.547879" xlink:href="#mcc15e95e1a" y="106.093021"/>
     <use style="fill:#ff0000;stroke:#ff0000;" x="182.050909" xlink:href="#mcc15e95e1a" y="104.760055"/>
     <use style="fill:#ff0000;stroke:#ff0000;" x="183.553939" xlink:href="#mcc15e95e1a" y="104.760055"/>
     <use style="fill:#ff0000;stroke:#ff0000;" x="185.05697" xlink:href="#mcc15e95e1a" y="99.446331"/>
     <use style="fill:#ff0000;stroke:#ff0000;" x="186.56" xlink:href="#mcc15e95e1a" y="99.446331"/>
     <use style="fill:#ff0000;stroke:#ff0000;" x="188.06303" xlink:href="#mcc15e95e1a" y="123.775656"/>
     <use style="fill:#ff0000;stroke:#ff0000;" x="189.566061" xlink:href="#mcc15e95e1a" y="123.775656"/>
     <use style="fill:#ff0000;stroke:#ff0000;" x="191.069091" xlink:href="#mcc15e95e1a" y="103.73264"/>
     <use style="fill:#ff0000;stroke:#ff0000;" x="192.572121" xlink:href="#mcc15e95e1a" y="103.73264"/>
     <use style="fill:#ff0000;stroke:#ff0000;" x="194.075152" xlink:href="#mcc15e95e1a" y="85.43526"/>
     <use style="fill:#ff0000;stroke:#ff0000;" x="195.578182" xlink:href="#mcc15e95e1a" y="85.43526"/>
     <use style="fill:#ff0000;stroke:#ff0000;" x="197.081212" xlink:href="#mcc15e95e1a" y="85.43526"/>
     <use style="fill:#ff0000;stroke:#ff0000;" x="198.584242" xlink:href="#mcc15e95e1a" y="85.43526"/>
     <use style="fill:#ff0000;stroke:#ff0000;" x="200.087273" xlink:href="#mcc15e95e1a" y="85.43526"/>
     <use style="fill:#ff0000;stroke:#ff0000;" x="201.590303" xlink:href="#mcc15e95e1a" y="106.353113"/>
     <use style="fill:#ff0000;stroke:#ff0000;" x="203.093333" xlink:href="#mcc15e95e1a" y="106.353113"/>
     <use style="fill:#ff0000;stroke:#ff0000;" x="204.596364" xlink:href="#mcc15e95e1a" y="127.590409"/>
     <use style="fill:#ff0000;stroke:#ff0000;" x="206.099394" xlink:href="#mcc15e95e1a" y="127.590409"/>
     <use style="fill:#ff0000;stroke:#ff0000;" x="207.602424" xlink:href="#mcc15e95e1a" y="108.923836"/>
     <use style="fill:#ff0000;stroke:#ff0000;" x="209.105455" xlink:href="#mcc15e95e1a" y="108.923836"/>
     <use style="fill:#ff0000;stroke:#ff0000;" x="210.608485" xlink:href="#mcc15e95e1a" y="108.923836"/>
     <use style="fill:#ff0000;stroke:#ff0000;" x="212.111515" xlink:href="#mcc15e95e1a" y="108.923836"/>
     <use style="fill:#ff0000;stroke:#ff0000;" x="213.614545" xlink:href="#mcc15e95e1a" y="129.196426"/>
     <use style="fill:#ff0000;stroke:#ff0000;" x="215.117576" xlink:href="#mcc15e95e1a" y="129.196426"/>
     <use style="fill:#ff0000;stroke:#ff0000;" x="216.620606" xlink:href="#mcc15e95e1a" y="110.030108"/>
     <use style="fill:#ff0000;stroke:#ff0000;" x="218.123636" xlink:href="#mcc15e95e1a" y="110.030108"/>
     <use style="fill:#ff0000;stroke:#ff0000;" x="219.626667" xlink:href="#mcc15e95e1a" y="89.986948"/>
     <use style="fill:#ff0000;stroke:#ff0000;" x="221.129697" xlink:href="#mcc15e95e1a" y="89.986948"/>
     <use style="fill:#ff0000;stroke:#ff0000;" x="222.632727" xlink:href="#mcc15e95e1a" y="111.038192"/>
     <use style="fill:#ff0000;stroke:#ff0000;" x="224.135758" xlink:href="#mcc15e95e1a" y="95.076454"/>
     <use style="fill:#ff0000;stroke:#ff0000;" x="225.638788" xlink:href="#mcc15e95e1a" y="95.076454"/>
     <use style="fill:#ff0000;stroke:#ff0000;" x="227.141818" xlink:href="#mcc15e95e1a" y="93.443417"/>
     <use style="fill:#ff0000;stroke:#ff0000;" x="228.644848" xlink:href="#mcc15e95e1a" y="93.443417"/>
     <use style="fill:#ff0000;stroke:#ff0000;" x="230.147879" xlink:href="#mcc15e95e1a" y="73.966884"/>
     <use style="fill:#ff0000;stroke:#ff0000;" x="231.650909" xlink:href="#mcc15e95e1a" y="73.966884"/>
     <use style="fill:#ff0000;stroke:#ff0000;" x="233.153939" xlink:href="#mcc15e95e1a" y="53.568"/>
     <use style="fill:#ff0000;stroke:#ff0000;" x="234.65697" xlink:href="#mcc15e95e1a" y="53.568"/>
     <use style="fill:#ff0000;stroke:#ff0000;" x="236.16" xlink:href="#mcc15e95e1a" y="76.019266"/>
     <use style="fill:#ff0000;stroke:#ff0000;" x="237.66303" xlink:href="#mcc15e95e1a" y="76.019266"/>
     <use style="fill:#ff0000;stroke:#ff0000;" x="239.166061" xlink:href="#mcc15e95e1a" y="76.019266"/>
     <use style="fill:#ff0000;stroke:#ff0000;" x="240.669091" xlink:href="#mcc15e95e1a" y="76.019266"/>
     <use style="fill:#ff0000;stroke:#ff0000;" x="242.172121" xlink:href="#mcc15e95e1a" y="76.019266"/>
     <use style="fill:#ff0000;stroke:#ff0000;" x="243.675152" xlink:href="#mcc15e95e1a" y="76.019266"/>
     <use style="fill:#ff0000;stroke:#ff0000;" x="245.178182" xlink:href="#mcc15e95e1a" y="76.019266"/>
     <use style="fill:#ff0000;stroke:#ff0000;" x="246.681212" xlink:href="#mcc15e95e1a" y="76.019266"/>
     <use style="fill:#ff0000;stroke:#ff0000;" x="248.184242" xlink:href="#mcc15e95e1a" y="76.019266"/>
     <use style="fill:#ff0000;stroke:#ff0000;" x="249.687273" xlink:href="#mcc15e95e1a" y="99.381874"/>
     <use style="fill:#ff0000;stroke:#ff0000;" x="251.190303" xlink:href="#mcc15e95e1a" y="99.483221"/>
     <use style="fill:#ff0000;stroke:#ff0000;" x="252.693333" xlink:href="#mcc15e95e1a" y="99.483221"/>
     <use style="fill:#ff0000;stroke:#ff0000;" x="254.196364" xlink:href="#mcc15e95e1a" y="80.210948"/>
     <use style="fill:#ff0000;stroke:#ff0000;" x="255.699394" xlink:href="#mcc15e95e1a" y="80.210948"/>
     <use style="fill:#ff0000;stroke:#ff0000;" x="257.202424" xlink:href="#mcc15e95e1a" y="62.62727"/>
     <use style="fill:#ff0000;stroke:#ff0000;" x="258.705455" xlink:href="#mcc15e95e1a" y="62.62727"/>
     <use style="fill:#ff0000;stroke:#ff0000;" x="260.208485" xlink:href="#mcc15e95e1a" y="62.62727"/>
     <use style="fill:#ff0000;stroke:#ff0000;" x="261.711515" xlink:href="#mcc15e95e1a" y="66.871537"/>
     <use style="fill:#ff0000;stroke:#ff0000;" x="263.214545" xlink:href="#mcc15e95e1a" y="66.871537"/>
     <use style="fill:#ff0000;stroke:#ff0000;" x="264.717576" xlink:href="#mcc15e95e1a" y="87.55816"/>
     <use style="fill:#ff0000;stroke:#ff0000;" x="266.220606" xlink:href="#mcc15e95e1a" y="87.55816"/>
     <use style="fill:#ff0000;stroke:#ff0000;" x="267.723636" xlink:href="#mcc15e95e1a" y="111.168378"/>
     <use style="fill:#ff0000;stroke:#ff0000;" x="269.226667" xlink:href="#mcc15e95e1a" y="92.340583"/>
     <use style="fill:#ff0000;stroke:#ff0000;" x="270.729697" xlink:href="#mcc15e95e1a" y="92.340583"/>
     <use style="fill:#ff0000;stroke:#ff0000;" x="272.232727" xlink:href="#mcc15e95e1a" y="75.192067"/>
     <use style="fill:#ff0000;stroke:#ff0000;" x="273.735758" xlink:href="#mcc15e95e1a" y="75.192067"/>
     <use style="fill:#ff0000;stroke:#ff0000;" x="275.238788" xlink:href="#mcc15e95e1a" y="97.000225"/>
     <use style="fill:#ff0000;stroke:#ff0000;" x="276.741818" xlink:href="#mcc15e95e1a" y="97.000225"/>
     <use style="fill:#ff0000;stroke:#ff0000;" x="278.244848" xlink:href="#mcc15e95e1a" y="104.459193"/>
     <use style="fill:#ff0000;stroke:#ff0000;" x="279.747879" xlink:href="#mcc15e95e1a" y="104.459193"/>
     <use style="fill:#ff0000;stroke:#ff0000;" x="281.250909" xlink:href="#mcc15e95e1a" y="104.459193"/>
     <use style="fill:#ff0000;stroke:#ff0000;" x="282.753939" xlink:href="#mcc15e95e1a" y="104.459193"/>
     <use style="fill:#ff0000;stroke:#ff0000;" x="284.25697" xlink:href="#mcc15e95e1a" y="125.900404"/>
     <use style="fill:#ff0000;stroke:#ff0000;" x="285.76" xlink:href="#mcc15e95e1a" y="125.900404"/>
     <use style="fill:#ff0000;stroke:#ff0000;" x="287.26303" xlink:href="#mcc15e95e1a" y="107.0256"/>
     <use style="fill:#ff0000;stroke:#ff0000;" x="288.766061" xlink:href="#mcc15e95e1a" y="107.0256"/>
     <use style="fill:#ff0000;stroke:#ff0000;" x="290.269091" xlink:href="#mcc15e95e1a" y="129.491028"/>
     <use style="fill:#ff0000;stroke:#ff0000;" x="291.772121" xlink:href="#mcc15e95e1a" y="129.491028"/>
     <use style="fill:#ff0000;stroke:#ff0000;" x="293.275152" xlink:href="#mcc15e95e1a" y="150.748225"/>
     <use style="fill:#ff0000;stroke:#ff0000;" x="294.778182" xlink:href="#mcc15e95e1a" y="150.748225"/>
     <use style="fill:#ff0000;stroke:#ff0000;" x="296.281212" xlink:href="#mcc15e95e1a" y="150.748225"/>
     <use style="fill:#ff0000;stroke:#ff0000;" x="297.784242" xlink:href="#mcc15e95e1a" y="130.1951"/>
     <use style="fill:#ff0000;stroke:#ff0000;" x="299.287273" xlink:href="#mcc15e95e1a" y="130.1951"/>
     <use style="fill:#ff0000;stroke:#ff0000;" x="300.790303" xlink:href="#mcc15e95e1a" y="110.693379"/>
     <use style="fill:#ff0000;stroke:#ff0000;" x="302.293333" xlink:href="#mcc15e95e1a" y="110.693379"/>
     <use style="fill:#ff0000;stroke:#ff0000;" x="303.796364" xlink:href="#mcc15e95e1a" y="128.464712"/>
     <use style="fill:#ff0000;stroke:#ff0000;" x="305.299394" xlink:href="#mcc15e95e1a" y="128.464712"/>
     <use style="fill:#ff0000;stroke:#ff0000;" x="306.802424" xlink:href="#mcc15e95e1a" y="128.464712"/>
     <use style="fill:#ff0000;stroke:#ff0000;" x="308.305455" xlink:href="#mcc15e95e1a" y="108.254382"/>
     <use style="fill:#ff0000;stroke:#ff0000;" x="309.808485" xlink:href="#mcc15e95e1a" y="108.254382"/>
     <use style="fill:#ff0000;stroke:#ff0000;" x="311.311515" xlink:href="#mcc15e95e1a" y="128.766361"/>
     <use style="fill:#ff0000;stroke:#ff0000;" x="312.814545" xlink:href="#mcc15e95e1a" y="128.766361"/>
     <use style="fill:#ff0000;stroke:#ff0000;" x="314.317576" xlink:href="#mcc15e95e1a" y="147.857488"/>
     <use style="fill:#ff0000;stroke:#ff0000;" x="315.820606" xlink:href="#mcc15e95e1a" y="147.857488"/>
     <use style="fill:#ff0000;stroke:#ff0000;" x="317.323636" xlink:href="#mcc15e95e1a" y="126.405411"/>
     <use style="fill:#ff0000;stroke:#ff0000;" x="318.826667" xlink:href="#mcc15e95e1a" y="126.405411"/>
     <use style="fill:#ff0000;stroke:#ff0000;" x="320.329697" xlink:href="#mcc15e95e1a" y="105.243213"/>
     <use style="fill:#ff0000;stroke:#ff0000;" x="321.832727" xlink:href="#mcc15e95e1a" y="105.243213"/>
     <use style="fill:#ff0000;stroke:#ff0000;" x="323.335758" xlink:href="#mcc15e95e1a" y="89.520416"/>
     <use style="fill:#ff0000;stroke:#ff0000;" x="324.838788" xlink:href="#mcc15e95e1a" y="89.520416"/>
     <use style="fill:#ff0000;stroke:#ff0000;" x="326.341818" xlink:href="#mcc15e95e1a" y="72.321744"/>
     <use style="fill:#ff0000;stroke:#ff0000;" x="327.844848" xlink:href="#mcc15e95e1a" y="93.457073"/>
     <use style="fill:#ff0000;stroke:#ff0000;" x="329.347879" xlink:href="#mcc15e95e1a" y="93.457073"/>
     <use style="fill:#ff0000;stroke:#ff0000;" x="330.850909" xlink:href="#mcc15e95e1a" y="73.363389"/>
     <use style="fill:#ff0000;stroke:#ff0000;" x="332.353939" xlink:href="#mcc15e95e1a" y="73.363389"/>
     <use style="fill:#ff0000;stroke:#ff0000;" x="333.85697" xlink:href="#mcc15e95e1a" y="95.095725"/>
     <use style="fill:#ff0000;stroke:#ff0000;" x="335.36" xlink:href="#mcc15e95e1a" y="95.095725"/>
     <use style="fill:#ff0000;stroke:#ff0000;" x="336.86303" xlink:href="#mcc15e95e1a" y="95.095725"/>
     <use style="fill:#ff0000;stroke:#ff0000;" x="338.366061" xlink:href="#mcc15e95e1a" y="115.820788"/>
     <use style="fill:#ff0000;stroke:#ff0000;" x="339.869091" xlink:href="#mcc15e95e1a" y="115.820788"/>
     <use style="fill:#ff0000;stroke:#ff0000;" x="341.372121" xlink:href="#mcc15e95e1a" y="136.408965"/>
     <use style="fill:#ff0000;stroke:#ff0000;" x="342.875152" xlink:href="#mcc15e95e1a" y="136.408965"/>
     <use style="fill:#ff0000;stroke:#ff0000;" x="344.378182" xlink:href="#mcc15e95e1a" y="134.294558"/>
     <use style="fill:#ff0000;stroke:#ff0000;" x="345.881212" xlink:href="#mcc15e95e1a" y="155.635224"/>
     <use style="fill:#ff0000;stroke:#ff0000;" x="347.384242" xlink:href="#mcc15e95e1a" y="155.635224"/>
     <use style="fill:#ff0000;stroke:#ff0000;" x="348.887273" xlink:href="#mcc15e95e1a" y="159.930478"/>
     <use style="fill:#ff0000;stroke:#ff0000;" x="350.390303" xlink:href="#mcc15e95e1a" y="159.930478"/>
     <use style="fill:#ff0000;stroke:#ff0000;" x="351.893333" xlink:href="#mcc15e95e1a" y="140.996751"/>
     <use style="fill:#ff0000;stroke:#ff0000;" x="353.396364" xlink:href="#mcc15e95e1a" y="140.996751"/>
     <use style="fill:#ff0000;stroke:#ff0000;" x="354.899394" xlink:href="#mcc15e95e1a" y="140.996751"/>
     <use style="fill:#ff0000;stroke:#ff0000;" x="356.402424" xlink:href="#mcc15e95e1a" y="140.996751"/>
     <use style="fill:#ff0000;stroke:#ff0000;" x="357.905455" xlink:href="#mcc15e95e1a" y="140.996751"/>
     <use style="fill:#ff0000;stroke:#ff0000;" x="359.408485" xlink:href="#mcc15e95e1a" y="140.996751"/>
     <use style="fill:#ff0000;stroke:#ff0000;" x="360.911515" xlink:href="#mcc15e95e1a" y="140.996751"/>
     <use style="fill:#ff0000;stroke:#ff0000;" x="362.414545" xlink:href="#mcc15e95e1a" y="140.996751"/>
     <use style="fill:#ff0000;stroke:#ff0000;" x="363.917576" xlink:href="#mcc15e95e1a" y="140.996751"/>
     <use style="fill:#ff0000;stroke:#ff0000;" x="365.420606" xlink:href="#mcc15e95e1a" y="140.996751"/>
     <use style="fill:#ff0000;stroke:#ff0000;" x="366.923636" xlink:href="#mcc15e95e1a" y="140.996751"/>
     <use style="fill:#ff0000;stroke:#ff0000;" x="368.426667" xlink:href="#mcc15e95e1a" y="140.996751"/>
     <use style="fill:#ff0000;stroke:#ff0000;" x="369.929697" xlink:href="#mcc15e95e1a" y="140.996751"/>
     <use style="fill:#ff0000;stroke:#ff0000;" x="371.432727" xlink:href="#mcc15e95e1a" y="140.996751"/>
     <use style="fill:#ff0000;stroke:#ff0000;" x="372.935758" xlink:href="#mcc15e95e1a" y="140.996751"/>
     <use style="fill:#ff0000;stroke:#ff0000;" x="374.438788" xlink:href="#mcc15e95e1a" y="140.996751"/>
     <use style="fill:#ff0000;stroke:#ff0000;" x="375.941818" xlink:href="#mcc15e95e1a" y="140.996751"/>
     <use style="fill:#ff0000;stroke:#ff0000;" x="377.444848" xlink:href="#mcc15e95e1a" y="140.996751"/>
     <use style="fill:#ff0000;stroke:#ff0000;" x="378.947879" xlink:href="#mcc15e95e1a" y="140.996751"/>
     <use style="fill:#ff0000;stroke:#ff0000;" x="380.450909" xlink:href="#mcc15e95e1a" y="140.996751"/>
     <use style="fill:#ff0000;stroke:#ff0000;" x="381.953939" xlink:href="#mcc15e95e1a" y="140.996751"/>
     <use style="fill:#ff0000;stroke:#ff0000;" x="383.45697" xlink:href="#mcc15e95e1a" y="140.996751"/>
     <use style="fill:#ff0000;stroke:#ff0000;" x="384.96" xlink:href="#mcc15e95e1a" y="140.996751"/>
     <use style="fill:#ff0000;stroke:#ff0000;" x="386.46303" xlink:href="#mcc15e95e1a" y="140.996751"/>
     <use style="fill:#ff0000;stroke:#ff0000;" x="387.966061" xlink:href="#mcc15e95e1a" y="140.996751"/>
     <use style="fill:#ff0000;stroke:#ff0000;" x="389.469091" xlink:href="#mcc15e95e1a" y="140.996751"/>
     <use style="fill:#ff0000;stroke:#ff0000;" x="390.972121" xlink:href="#mcc15e95e1a" y="140.996751"/>
     <use style="fill:#ff0000;stroke:#ff0000;" x="392.475152" xlink:href="#mcc15e95e1a" y="140.996751"/>
     <use style="fill:#ff0000;stroke:#ff0000;" x="393.978182" xlink:href="#mcc15e95e1a" y="140.996751"/>
     <use style="fill:#ff0000;stroke:#ff0000;" x="395.481212" xlink:href="#mcc15e95e1a" y="140.996751"/>
     <use style="fill:#ff0000;stroke:#ff0000;" x="396.984242" xlink:href="#mcc15e95e1a" y="140.996751"/>
     <use style="fill:#ff0000;stroke:#ff0000;" x="398.487273" xlink:href="#mcc15e95e1a" y="140.996751"/>
    </g>
   </g>
   <g id="patch_3">
    <path d="M 57.6 307.584 
L 57.6 41.472 
" style="fill:none;stroke:#000000;stroke-linecap:square;stroke-linejoin:miter;stroke-width:0.8;"/>
   </g>
   <g id="patch_4">
    <path d="M 414.72 307.584 
L 414.72 41.472 
" style="fill:none;stroke:#000000;stroke-linecap:square;stroke-linejoin:miter;stroke-width:0.8;"/>
   </g>
   <g id="patch_5">
    <path d="M 57.6 307.584 
L 414.72 307.584 
" style="fill:none;stroke:#000000;stroke-linecap:square;stroke-linejoin:miter;stroke-width:0.8;"/>
   </g>
   <g id="patch_6">
    <path d="M 57.6 41.472 
L 414.72 41.472 
" style="fill:none;stroke:#000000;stroke-linecap:square;stroke-linejoin:miter;stroke-width:0.8;"/>
   </g>
  </g>
 </g>
 <defs>
  <clipPath id="p4aec918322">
   <rect height="266.112" width="357.12" x="57.6" y="41.472"/>
  </clipPath>
 </defs>
</svg>
