<?xml version="1.0" encoding="utf-8" standalone="no"?>
<!DOCTYPE svg PUBLIC "-//W3C//DTD SVG 1.1//EN"
  "http://www.w3.org/Graphics/SVG/1.1/DTD/svg11.dtd">
<!-- Created with matplotlib (https://matplotlib.org/) -->
<svg height="345.6pt" version="1.1" viewBox="0 0 460.8 345.6" width="460.8pt" xmlns="http://www.w3.org/2000/svg" xmlns:xlink="http://www.w3.org/1999/xlink">
 <defs>
  <style type="text/css">
*{stroke-linecap:butt;stroke-linejoin:round;}
  </style>
 </defs>
 <g id="figure_1">
  <g id="patch_1">
   <path d="M 0 345.6 
L 460.8 345.6 
L 460.8 0 
L 0 0 
z
" style="fill:#ffffff;"/>
  </g>
  <g id="axes_1">
   <g id="patch_2">
    <path d="M 57.6 307.584 
L 414.72 307.584 
L 414.72 41.472 
L 57.6 41.472 
z
" style="fill:#ffffff;"/>
   </g>
   <g id="line2d_1">
    <path clip-path="url(#p01c53fce2e)" d="M 73.832727 295.488 
L 79.735537 213.465468 
L 85.638347 213.465468 
L 91.541157 295.488 
L 97.443967 295.488 
L 103.346777 295.488 
L 109.249587 212.08651 
L 115.152397 212.08651 
L 121.055207 294.243473 
L 126.958017 294.243473 
L 132.860826 294.243473 
L 138.763636 207.235478 
L 144.666446 207.235478 
L 150.569256 227.263585 
L 156.472066 227.263585 
L 162.374876 144.629321 
L 168.277686 144.629321 
L 174.180496 70.667135 
L 180.083306 70.667135 
L 185.986116 61.15088 
L 191.888926 61.15088 
L 197.791736 146.117616 
L 203.694545 146.117616 
L 209.597355 123.053172 
L 215.500165 150.319032 
L 221.402975 150.319032 
L 227.305785 150.319032 
L 233.208595 150.319032 
L 239.111405 150.319032 
L 245.014215 126.306746 
L 250.917025 157.654801 
L 256.819835 157.654801 
L 262.722645 157.654801 
L 268.625455 157.654801 
L 274.528264 157.654801 
L 280.431074 157.654801 
L 286.333884 157.654801 
L 292.236694 129.745353 
L 298.139504 129.745353 
L 304.042314 103.754637 
L 309.945124 103.754637 
L 315.847934 103.754637 
L 321.750744 77.928523 
L 327.653554 77.928523 
L 333.556364 78.498746 
L 339.459174 78.498746 
L 345.361983 78.498746 
L 351.264793 53.568 
L 357.167603 53.568 
L 363.070413 82.4066 
L 368.973223 82.4066 
L 374.876033 109.65541 
L 380.778843 84.468122 
L 386.681653 84.468122 
L 392.584463 84.468122 
L 398.487273 84.468122 
" style="fill:none;stroke:#ff0000;stroke-linecap:square;stroke-width:12;"/>
    <defs>
     <path d="M 0 3 
C 0.795609 3 1.55874 2.683901 2.12132 2.12132 
C 2.683901 1.55874 3 0.795609 3 0 
C 3 -0.795609 2.683901 -1.55874 2.12132 -2.12132 
C 1.55874 -2.683901 0.795609 -3 0 -3 
C -0.795609 -3 -1.55874 -2.683901 -2.12132 -2.12132 
C -2.683901 -1.55874 -3 -0.795609 -3 0 
C -3 0.795609 -2.683901 1.55874 -2.12132 2.12132 
C -1.55874 2.683901 -0.795609 3 0 3 
z
" id="m573c00eed2" style="stroke:#ff0000;"/>
    </defs>
    <g clip-path="url(#p01c53fce2e)">
     <use style="fill:#ff0000;stroke:#ff0000;" x="73.832727" xlink:href="#m573c00eed2" y="295.488"/>
     <use style="fill:#ff0000;stroke:#ff0000;" x="79.735537" xlink:href="#m573c00eed2" y="213.465468"/>
     <use style="fill:#ff0000;stroke:#ff0000;" x="85.638347" xlink:href="#m573c00eed2" y="213.465468"/>
     <use style="fill:#ff0000;stroke:#ff0000;" x="91.541157" xlink:href="#m573c00eed2" y="295.488"/>
     <use style="fill:#ff0000;stroke:#ff0000;" x="97.443967" xlink:href="#m573c00eed2" y="295.488"/>
     <use style="fill:#ff0000;stroke:#ff0000;" x="103.346777" xlink:href="#m573c00eed2" y="295.488"/>
     <use style="fill:#ff0000;stroke:#ff0000;" x="109.249587" xlink:href="#m573c00eed2" y="212.08651"/>
     <use style="fill:#ff0000;stroke:#ff0000;" x="115.152397" xlink:href="#m573c00eed2" y="212.08651"/>
     <use style="fill:#ff0000;stroke:#ff0000;" x="121.055207" xlink:href="#m573c00eed2" y="294.243473"/>
     <use style="fill:#ff0000;stroke:#ff0000;" x="126.958017" xlink:href="#m573c00eed2" y="294.243473"/>
     <use style="fill:#ff0000;stroke:#ff0000;" x="132.860826" xlink:href="#m573c00eed2" y="294.243473"/>
     <use style="fill:#ff0000;stroke:#ff0000;" x="138.763636" xlink:href="#m573c00eed2" y="207.235478"/>
     <use style="fill:#ff0000;stroke:#ff0000;" x="144.666446" xlink:href="#m573c00eed2" y="207.235478"/>
     <use style="fill:#ff0000;stroke:#ff0000;" x="150.569256" xlink:href="#m573c00eed2" y="227.263585"/>
     <use style="fill:#ff0000;stroke:#ff0000;" x="156.472066" xlink:href="#m573c00eed2" y="227.263585"/>
     <use style="fill:#ff0000;stroke:#ff0000;" x="162.374876" xlink:href="#m573c00eed2" y="144.629321"/>
     <use style="fill:#ff0000;stroke:#ff0000;" x="168.277686" xlink:href="#m573c00eed2" y="144.629321"/>
     <use style="fill:#ff0000;stroke:#ff0000;" x="174.180496" xlink:href="#m573c00eed2" y="70.667135"/>
     <use style="fill:#ff0000;stroke:#ff0000;" x="180.083306" xlink:href="#m573c00eed2" y="70.667135"/>
     <use style="fill:#ff0000;stroke:#ff0000;" x="185.986116" xlink:href="#m573c00eed2" y="61.15088"/>
     <use style="fill:#ff0000;stroke:#ff0000;" x="191.888926" xlink:href="#m573c00eed2" y="61.15088"/>
     <use style="fill:#ff0000;stroke:#ff0000;" x="197.791736" xlink:href="#m573c00eed2" y="146.117616"/>
     <use style="fill:#ff0000;stroke:#ff0000;" x="203.694545" xlink:href="#m573c00eed2" y="146.117616"/>
     <use style="fill:#ff0000;stroke:#ff0000;" x="209.597355" xlink:href="#m573c00eed2" y="123.053172"/>
     <use style="fill:#ff0000;stroke:#ff0000;" x="215.500165" xlink:href="#m573c00eed2" y="150.319032"/>
     <use style="fill:#ff0000;stroke:#ff0000;" x="221.402975" xlink:href="#m573c00eed2" y="150.319032"/>
     <use style="fill:#ff0000;stroke:#ff0000;" x="227.305785" xlink:href="#m573c00eed2" y="150.319032"/>
     <use style="fill:#ff0000;stroke:#ff0000;" x="233.208595" xlink:href="#m573c00eed2" y="150.319032"/>
     <use style="fill:#ff0000;stroke:#ff0000;" x="239.111405" xlink:href="#m573c00eed2" y="150.319032"/>
     <use style="fill:#ff0000;stroke:#ff0000;" x="245.014215" xlink:href="#m573c00eed2" y="126.306746"/>
     <use style="fill:#ff0000;stroke:#ff0000;" x="250.917025" xlink:href="#m573c00eed2" y="157.654801"/>
     <use style="fill:#ff0000;stroke:#ff0000;" x="256.819835" xlink:href="#m573c00eed2" y="157.654801"/>
     <use style="fill:#ff0000;stroke:#ff0000;" x="262.722645" xlink:href="#m573c00eed2" y="157.654801"/>
     <use style="fill:#ff0000;stroke:#ff0000;" x="268.625455" xlink:href="#m573c00eed2" y="157.654801"/>
     <use style="fill:#ff0000;stroke:#ff0000;" x="274.528264" xlink:href="#m573c00eed2" y="157.654801"/>
     <use style="fill:#ff0000;stroke:#ff0000;" x="280.431074" xlink:href="#m573c00eed2" y="157.654801"/>
     <use style="fill:#ff0000;stroke:#ff0000;" x="286.333884" xlink:href="#m573c00eed2" y="157.654801"/>
     <use style="fill:#ff0000;stroke:#ff0000;" x="292.236694" xlink:href="#m573c00eed2" y="129.745353"/>
     <use style="fill:#ff0000;stroke:#ff0000;" x="298.139504" xlink:href="#m573c00eed2" y="129.745353"/>
     <use style="fill:#ff0000;stroke:#ff0000;" x="304.042314" xlink:href="#m573c00eed2" y="103.754637"/>
     <use style="fill:#ff0000;stroke:#ff0000;" x="309.945124" xlink:href="#m573c00eed2" y="103.754637"/>
     <use style="fill:#ff0000;stroke:#ff0000;" x="315.847934" xlink:href="#m573c00eed2" y="103.754637"/>
     <use style="fill:#ff0000;stroke:#ff0000;" x="321.750744" xlink:href="#m573c00eed2" y="77.928523"/>
     <use style="fill:#ff0000;stroke:#ff0000;" x="327.653554" xlink:href="#m573c00eed2" y="77.928523"/>
     <use style="fill:#ff0000;stroke:#ff0000;" x="333.556364" xlink:href="#m573c00eed2" y="78.498746"/>
     <use style="fill:#ff0000;stroke:#ff0000;" x="339.459174" xlink:href="#m573c00eed2" y="78.498746"/>
     <use style="fill:#ff0000;stroke:#ff0000;" x="345.361983" xlink:href="#m573c00eed2" y="78.498746"/>
     <use style="fill:#ff0000;stroke:#ff0000;" x="351.264793" xlink:href="#m573c00eed2" y="53.568"/>
     <use style="fill:#ff0000;stroke:#ff0000;" x="357.167603" xlink:href="#m573c00eed2" y="53.568"/>
     <use style="fill:#ff0000;stroke:#ff0000;" x="363.070413" xlink:href="#m573c00eed2" y="82.4066"/>
     <use style="fill:#ff0000;stroke:#ff0000;" x="368.973223" xlink:href="#m573c00eed2" y="82.4066"/>
     <use style="fill:#ff0000;stroke:#ff0000;" x="374.876033" xlink:href="#m573c00eed2" y="109.65541"/>
     <use style="fill:#ff0000;stroke:#ff0000;" x="380.778843" xlink:href="#m573c00eed2" y="84.468122"/>
     <use style="fill:#ff0000;stroke:#ff0000;" x="386.681653" xlink:href="#m573c00eed2" y="84.468122"/>
     <use style="fill:#ff0000;stroke:#ff0000;" x="392.584463" xlink:href="#m573c00eed2" y="84.468122"/>
     <use style="fill:#ff0000;stroke:#ff0000;" x="398.487273" xlink:href="#m573c00eed2" y="84.468122"/>
    </g>
   </g>
   <g id="patch_3">
    <path d="M 57.6 307.584 
L 57.6 41.472 
" style="fill:none;stroke:#000000;stroke-linecap:square;stroke-linejoin:miter;stroke-width:0.8;"/>
   </g>
   <g id="patch_4">
    <path d="M 414.72 307.584 
L 414.72 41.472 
" style="fill:none;stroke:#000000;stroke-linecap:square;stroke-linejoin:miter;stroke-width:0.8;"/>
   </g>
   <g id="patch_5">
    <path d="M 57.6 307.584 
L 414.72 307.584 
" style="fill:none;stroke:#000000;stroke-linecap:square;stroke-linejoin:miter;stroke-width:0.8;"/>
   </g>
   <g id="patch_6">
    <path d="M 57.6 41.472 
L 414.72 41.472 
" style="fill:none;stroke:#000000;stroke-linecap:square;stroke-linejoin:miter;stroke-width:0.8;"/>
   </g>
  </g>
 </g>
 <defs>
  <clipPath id="p01c53fce2e">
   <rect height="266.112" width="357.12" x="57.6" y="41.472"/>
  </clipPath>
 </defs>
</svg>
