<?xml version="1.0" encoding="utf-8" standalone="no"?>
<!DOCTYPE svg PUBLIC "-//W3C//DTD SVG 1.1//EN"
  "http://www.w3.org/Graphics/SVG/1.1/DTD/svg11.dtd">
<!-- Created with matplotlib (https://matplotlib.org/) -->
<svg height="345.6pt" version="1.1" viewBox="0 0 460.8 345.6" width="460.8pt" xmlns="http://www.w3.org/2000/svg" xmlns:xlink="http://www.w3.org/1999/xlink">
 <defs>
  <style type="text/css">
*{stroke-linecap:butt;stroke-linejoin:round;}
  </style>
 </defs>
 <g id="figure_1">
  <g id="patch_1">
   <path d="M 0 345.6 
L 460.8 345.6 
L 460.8 0 
L 0 0 
z
" style="fill:#ffffff;"/>
  </g>
  <g id="axes_1">
   <g id="patch_2">
    <path d="M 57.6 307.584 
L 414.72 307.584 
L 414.72 41.472 
L 57.6 41.472 
z
" style="fill:#ffffff;"/>
   </g>
   <g id="line2d_1">
    <path clip-path="url(#pd44c4ee12a)" d="M 73.832727 295.488 
L 79.154933 213.465468 
L 84.477139 213.465468 
L 89.799344 295.488 
L 95.12155 295.488 
L 100.443756 295.488 
L 105.765961 212.08651 
L 111.088167 212.08651 
L 116.410373 294.243473 
L 121.732578 294.243473 
L 127.054784 294.243473 
L 132.37699 207.235478 
L 137.699195 207.235478 
L 143.021401 227.263585 
L 148.343607 227.263585 
L 153.665812 144.629321 
L 158.988018 144.629321 
L 164.310224 70.667135 
L 169.632429 70.667135 
L 174.954635 61.15088 
L 180.276841 61.15088 
L 185.599046 146.117616 
L 190.921252 146.117616 
L 196.243458 123.053172 
L 201.565663 150.319032 
L 206.887869 150.319032 
L 212.210075 150.319032 
L 217.53228 150.319032 
L 222.854486 150.319032 
L 228.176692 126.306746 
L 233.498897 157.654801 
L 238.821103 157.654801 
L 244.143308 157.654801 
L 249.465514 157.654801 
L 254.78772 157.654801 
L 260.109925 157.654801 
L 265.432131 157.654801 
L 270.754337 129.745353 
L 276.076542 129.745353 
L 281.398748 103.754637 
L 286.720954 103.754637 
L 292.043159 103.754637 
L 297.365365 77.928523 
L 302.687571 77.928523 
L 308.009776 78.498746 
L 313.331982 78.498746 
L 318.654188 78.498746 
L 323.976393 53.568 
L 329.298599 53.568 
L 334.620805 82.4066 
L 339.94301 82.4066 
L 345.265216 109.65541 
L 350.587422 84.468122 
L 355.909627 84.468122 
L 361.231833 84.468122 
L 366.554039 112.799115 
L 371.876244 112.799115 
L 377.19845 87.57215 
L 382.520656 87.57215 
L 387.842861 84.064737 
L 393.165067 87.818193 
L 398.487273 87.818193 
" style="fill:none;stroke:#ff0000;stroke-linecap:square;stroke-width:12;"/>
    <defs>
     <path d="M 0 3 
C 0.795609 3 1.55874 2.683901 2.12132 2.12132 
C 2.683901 1.55874 3 0.795609 3 0 
C 3 -0.795609 2.683901 -1.55874 2.12132 -2.12132 
C 1.55874 -2.683901 0.795609 -3 0 -3 
C -0.795609 -3 -1.55874 -2.683901 -2.12132 -2.12132 
C -2.683901 -1.55874 -3 -0.795609 -3 0 
C -3 0.795609 -2.683901 1.55874 -2.12132 2.12132 
C -1.55874 2.683901 -0.795609 3 0 3 
z
" id="md02db3c2d4" style="stroke:#ff0000;"/>
    </defs>
    <g clip-path="url(#pd44c4ee12a)">
     <use style="fill:#ff0000;stroke:#ff0000;" x="73.832727" xlink:href="#md02db3c2d4" y="295.488"/>
     <use style="fill:#ff0000;stroke:#ff0000;" x="79.154933" xlink:href="#md02db3c2d4" y="213.465468"/>
     <use style="fill:#ff0000;stroke:#ff0000;" x="84.477139" xlink:href="#md02db3c2d4" y="213.465468"/>
     <use style="fill:#ff0000;stroke:#ff0000;" x="89.799344" xlink:href="#md02db3c2d4" y="295.488"/>
     <use style="fill:#ff0000;stroke:#ff0000;" x="95.12155" xlink:href="#md02db3c2d4" y="295.488"/>
     <use style="fill:#ff0000;stroke:#ff0000;" x="100.443756" xlink:href="#md02db3c2d4" y="295.488"/>
     <use style="fill:#ff0000;stroke:#ff0000;" x="105.765961" xlink:href="#md02db3c2d4" y="212.08651"/>
     <use style="fill:#ff0000;stroke:#ff0000;" x="111.088167" xlink:href="#md02db3c2d4" y="212.08651"/>
     <use style="fill:#ff0000;stroke:#ff0000;" x="116.410373" xlink:href="#md02db3c2d4" y="294.243473"/>
     <use style="fill:#ff0000;stroke:#ff0000;" x="121.732578" xlink:href="#md02db3c2d4" y="294.243473"/>
     <use style="fill:#ff0000;stroke:#ff0000;" x="127.054784" xlink:href="#md02db3c2d4" y="294.243473"/>
     <use style="fill:#ff0000;stroke:#ff0000;" x="132.37699" xlink:href="#md02db3c2d4" y="207.235478"/>
     <use style="fill:#ff0000;stroke:#ff0000;" x="137.699195" xlink:href="#md02db3c2d4" y="207.235478"/>
     <use style="fill:#ff0000;stroke:#ff0000;" x="143.021401" xlink:href="#md02db3c2d4" y="227.263585"/>
     <use style="fill:#ff0000;stroke:#ff0000;" x="148.343607" xlink:href="#md02db3c2d4" y="227.263585"/>
     <use style="fill:#ff0000;stroke:#ff0000;" x="153.665812" xlink:href="#md02db3c2d4" y="144.629321"/>
     <use style="fill:#ff0000;stroke:#ff0000;" x="158.988018" xlink:href="#md02db3c2d4" y="144.629321"/>
     <use style="fill:#ff0000;stroke:#ff0000;" x="164.310224" xlink:href="#md02db3c2d4" y="70.667135"/>
     <use style="fill:#ff0000;stroke:#ff0000;" x="169.632429" xlink:href="#md02db3c2d4" y="70.667135"/>
     <use style="fill:#ff0000;stroke:#ff0000;" x="174.954635" xlink:href="#md02db3c2d4" y="61.15088"/>
     <use style="fill:#ff0000;stroke:#ff0000;" x="180.276841" xlink:href="#md02db3c2d4" y="61.15088"/>
     <use style="fill:#ff0000;stroke:#ff0000;" x="185.599046" xlink:href="#md02db3c2d4" y="146.117616"/>
     <use style="fill:#ff0000;stroke:#ff0000;" x="190.921252" xlink:href="#md02db3c2d4" y="146.117616"/>
     <use style="fill:#ff0000;stroke:#ff0000;" x="196.243458" xlink:href="#md02db3c2d4" y="123.053172"/>
     <use style="fill:#ff0000;stroke:#ff0000;" x="201.565663" xlink:href="#md02db3c2d4" y="150.319032"/>
     <use style="fill:#ff0000;stroke:#ff0000;" x="206.887869" xlink:href="#md02db3c2d4" y="150.319032"/>
     <use style="fill:#ff0000;stroke:#ff0000;" x="212.210075" xlink:href="#md02db3c2d4" y="150.319032"/>
     <use style="fill:#ff0000;stroke:#ff0000;" x="217.53228" xlink:href="#md02db3c2d4" y="150.319032"/>
     <use style="fill:#ff0000;stroke:#ff0000;" x="222.854486" xlink:href="#md02db3c2d4" y="150.319032"/>
     <use style="fill:#ff0000;stroke:#ff0000;" x="228.176692" xlink:href="#md02db3c2d4" y="126.306746"/>
     <use style="fill:#ff0000;stroke:#ff0000;" x="233.498897" xlink:href="#md02db3c2d4" y="157.654801"/>
     <use style="fill:#ff0000;stroke:#ff0000;" x="238.821103" xlink:href="#md02db3c2d4" y="157.654801"/>
     <use style="fill:#ff0000;stroke:#ff0000;" x="244.143308" xlink:href="#md02db3c2d4" y="157.654801"/>
     <use style="fill:#ff0000;stroke:#ff0000;" x="249.465514" xlink:href="#md02db3c2d4" y="157.654801"/>
     <use style="fill:#ff0000;stroke:#ff0000;" x="254.78772" xlink:href="#md02db3c2d4" y="157.654801"/>
     <use style="fill:#ff0000;stroke:#ff0000;" x="260.109925" xlink:href="#md02db3c2d4" y="157.654801"/>
     <use style="fill:#ff0000;stroke:#ff0000;" x="265.432131" xlink:href="#md02db3c2d4" y="157.654801"/>
     <use style="fill:#ff0000;stroke:#ff0000;" x="270.754337" xlink:href="#md02db3c2d4" y="129.745353"/>
     <use style="fill:#ff0000;stroke:#ff0000;" x="276.076542" xlink:href="#md02db3c2d4" y="129.745353"/>
     <use style="fill:#ff0000;stroke:#ff0000;" x="281.398748" xlink:href="#md02db3c2d4" y="103.754637"/>
     <use style="fill:#ff0000;stroke:#ff0000;" x="286.720954" xlink:href="#md02db3c2d4" y="103.754637"/>
     <use style="fill:#ff0000;stroke:#ff0000;" x="292.043159" xlink:href="#md02db3c2d4" y="103.754637"/>
     <use style="fill:#ff0000;stroke:#ff0000;" x="297.365365" xlink:href="#md02db3c2d4" y="77.928523"/>
     <use style="fill:#ff0000;stroke:#ff0000;" x="302.687571" xlink:href="#md02db3c2d4" y="77.928523"/>
     <use style="fill:#ff0000;stroke:#ff0000;" x="308.009776" xlink:href="#md02db3c2d4" y="78.498746"/>
     <use style="fill:#ff0000;stroke:#ff0000;" x="313.331982" xlink:href="#md02db3c2d4" y="78.498746"/>
     <use style="fill:#ff0000;stroke:#ff0000;" x="318.654188" xlink:href="#md02db3c2d4" y="78.498746"/>
     <use style="fill:#ff0000;stroke:#ff0000;" x="323.976393" xlink:href="#md02db3c2d4" y="53.568"/>
     <use style="fill:#ff0000;stroke:#ff0000;" x="329.298599" xlink:href="#md02db3c2d4" y="53.568"/>
     <use style="fill:#ff0000;stroke:#ff0000;" x="334.620805" xlink:href="#md02db3c2d4" y="82.4066"/>
     <use style="fill:#ff0000;stroke:#ff0000;" x="339.94301" xlink:href="#md02db3c2d4" y="82.4066"/>
     <use style="fill:#ff0000;stroke:#ff0000;" x="345.265216" xlink:href="#md02db3c2d4" y="109.65541"/>
     <use style="fill:#ff0000;stroke:#ff0000;" x="350.587422" xlink:href="#md02db3c2d4" y="84.468122"/>
     <use style="fill:#ff0000;stroke:#ff0000;" x="355.909627" xlink:href="#md02db3c2d4" y="84.468122"/>
     <use style="fill:#ff0000;stroke:#ff0000;" x="361.231833" xlink:href="#md02db3c2d4" y="84.468122"/>
     <use style="fill:#ff0000;stroke:#ff0000;" x="366.554039" xlink:href="#md02db3c2d4" y="112.799115"/>
     <use style="fill:#ff0000;stroke:#ff0000;" x="371.876244" xlink:href="#md02db3c2d4" y="112.799115"/>
     <use style="fill:#ff0000;stroke:#ff0000;" x="377.19845" xlink:href="#md02db3c2d4" y="87.57215"/>
     <use style="fill:#ff0000;stroke:#ff0000;" x="382.520656" xlink:href="#md02db3c2d4" y="87.57215"/>
     <use style="fill:#ff0000;stroke:#ff0000;" x="387.842861" xlink:href="#md02db3c2d4" y="84.064737"/>
     <use style="fill:#ff0000;stroke:#ff0000;" x="393.165067" xlink:href="#md02db3c2d4" y="87.818193"/>
     <use style="fill:#ff0000;stroke:#ff0000;" x="398.487273" xlink:href="#md02db3c2d4" y="87.818193"/>
    </g>
   </g>
   <g id="patch_3">
    <path d="M 57.6 307.584 
L 57.6 41.472 
" style="fill:none;stroke:#000000;stroke-linecap:square;stroke-linejoin:miter;stroke-width:0.8;"/>
   </g>
   <g id="patch_4">
    <path d="M 414.72 307.584 
L 414.72 41.472 
" style="fill:none;stroke:#000000;stroke-linecap:square;stroke-linejoin:miter;stroke-width:0.8;"/>
   </g>
   <g id="patch_5">
    <path d="M 57.6 307.584 
L 414.72 307.584 
" style="fill:none;stroke:#000000;stroke-linecap:square;stroke-linejoin:miter;stroke-width:0.8;"/>
   </g>
   <g id="patch_6">
    <path d="M 57.6 41.472 
L 414.72 41.472 
" style="fill:none;stroke:#000000;stroke-linecap:square;stroke-linejoin:miter;stroke-width:0.8;"/>
   </g>
  </g>
 </g>
 <defs>
  <clipPath id="pd44c4ee12a">
   <rect height="266.112" width="357.12" x="57.6" y="41.472"/>
  </clipPath>
 </defs>
</svg>
