<?xml version="1.0" encoding="utf-8" standalone="no"?>
<!DOCTYPE svg PUBLIC "-//W3C//DTD SVG 1.1//EN"
  "http://www.w3.org/Graphics/SVG/1.1/DTD/svg11.dtd">
<!-- Created with matplotlib (https://matplotlib.org/) -->
<svg height="345.6pt" version="1.1" viewBox="0 0 460.8 345.6" width="460.8pt" xmlns="http://www.w3.org/2000/svg" xmlns:xlink="http://www.w3.org/1999/xlink">
 <defs>
  <style type="text/css">
*{stroke-linecap:butt;stroke-linejoin:round;}
  </style>
 </defs>
 <g id="figure_1">
  <g id="patch_1">
   <path d="M 0 345.6 
L 460.8 345.6 
L 460.8 0 
L 0 0 
z
" style="fill:#ffffff;"/>
  </g>
  <g id="axes_1">
   <g id="patch_2">
    <path d="M 57.6 307.584 
L 414.72 307.584 
L 414.72 41.472 
L 57.6 41.472 
z
" style="fill:#ffffff;"/>
   </g>
   <g id="line2d_1">
    <path clip-path="url(#pb18dc5827d)" d="M 73.832727 295.488 
L 74.914909 234.755032 
L 75.997091 234.755032 
L 77.079273 295.488 
L 79.243636 295.488 
L 80.325818 233.733993 
L 81.408 233.733993 
L 82.490182 294.5665 
L 84.654545 294.5665 
L 85.736727 230.142083 
L 86.818909 230.142083 
L 87.901091 244.971744 
L 88.983273 244.971744 
L 90.065455 183.785824 
L 91.147636 183.785824 
L 92.229818 129.021078 
L 93.312 129.021078 
L 94.394182 121.974839 
L 95.476364 121.974839 
L 96.558545 184.887821 
L 97.640727 184.887821 
L 98.722909 167.809927 
L 99.805091 187.998728 
L 104.133818 187.998728 
L 105.216 170.219011 
L 106.298182 193.430442 
L 112.791273 193.430442 
L 113.873455 172.765102 
L 114.955636 172.765102 
L 116.037818 153.520471 
L 118.202182 153.520471 
L 119.284364 134.397719 
L 120.366545 134.397719 
L 121.448727 134.819936 
L 123.613091 134.819936 
L 124.695273 116.360152 
L 125.777455 116.360152 
L 126.859636 137.713478 
L 127.941818 137.713478 
L 129.024 157.889654 
L 130.106182 139.239916 
L 132.270545 139.239916 
L 133.352727 160.217387 
L 134.434909 160.217387 
L 135.517091 141.53827 
L 136.599273 141.53827 
L 137.681455 138.941232 
L 138.763636 141.720451 
L 139.845818 141.720451 
L 140.928 122.363448 
L 143.092364 122.363448 
L 144.174545 144.830938 
L 145.256727 144.830938 
L 146.338909 126.676055 
L 147.421091 126.676055 
L 148.503273 109.034846 
L 149.585455 109.034846 
L 150.667636 106.093021 
L 151.749818 104.760055 
L 152.832 104.760055 
L 153.914182 99.446331 
L 154.996364 99.446331 
L 156.078545 123.775656 
L 157.160727 123.775656 
L 158.242909 103.73264 
L 159.325091 103.73264 
L 160.407273 85.43526 
L 164.736 85.43526 
L 165.818182 106.353113 
L 166.900364 106.353113 
L 167.982545 127.590409 
L 169.064727 127.590409 
L 170.146909 108.923836 
L 173.393455 108.923836 
L 174.475636 129.196426 
L 175.557818 129.196426 
L 176.64 110.030108 
L 177.722182 110.030108 
L 178.804364 89.986948 
L 179.886545 89.986948 
L 180.968727 111.038192 
L 182.050909 95.076454 
L 183.133091 95.076454 
L 184.215273 93.443417 
L 185.297455 93.443417 
L 186.379636 73.966884 
L 187.461818 73.966884 
L 188.544 53.568 
L 189.626182 53.568 
L 190.708364 76.019266 
L 199.365818 76.019266 
L 200.448 99.381874 
L 202.612364 99.483221 
L 203.694545 80.210948 
L 204.776727 80.210948 
L 205.858909 62.62727 
L 208.023273 62.62727 
L 209.105455 66.871537 
L 210.187636 66.871537 
L 211.269818 87.55816 
L 212.352 87.55816 
L 213.434182 111.168378 
L 214.516364 92.340583 
L 215.598545 92.340583 
L 216.680727 75.192067 
L 217.762909 75.192067 
L 218.845091 97.000225 
L 219.927273 97.000225 
L 221.009455 104.459193 
L 224.256 104.459193 
L 225.338182 125.900404 
L 226.420364 125.900404 
L 227.502545 107.0256 
L 228.584727 107.0256 
L 229.666909 129.491028 
L 230.749091 129.491028 
L 231.831273 150.748225 
L 233.995636 150.748225 
L 235.077818 130.1951 
L 236.16 130.1951 
L 237.242182 110.693379 
L 238.324364 110.693379 
L 239.406545 128.464712 
L 241.570909 128.464712 
L 242.653091 108.254382 
L 243.735273 108.254382 
L 244.817455 128.766361 
L 245.899636 128.766361 
L 246.981818 147.857488 
L 248.064 147.857488 
L 249.146182 126.405411 
L 250.228364 126.405411 
L 251.310545 105.243213 
L 252.392727 105.243213 
L 253.474909 89.520416 
L 254.557091 89.520416 
L 255.639273 72.321744 
L 256.721455 93.457073 
L 257.803636 93.457073 
L 258.885818 73.363389 
L 259.968 73.363389 
L 261.050182 95.095725 
L 263.214545 95.095725 
L 264.296727 115.820788 
L 265.378909 115.820788 
L 266.461091 136.408965 
L 267.543273 136.408965 
L 268.625455 134.294558 
L 269.707636 155.635224 
L 270.789818 155.635224 
L 271.872 159.930478 
L 272.954182 159.930478 
L 274.036364 140.996751 
L 398.487273 140.996751 
L 398.487273 140.996751 
" style="fill:none;stroke:#ff0000;stroke-linecap:square;stroke-width:12;"/>
    <defs>
     <path d="M 0 3 
C 0.795609 3 1.55874 2.683901 2.12132 2.12132 
C 2.683901 1.55874 3 0.795609 3 0 
C 3 -0.795609 2.683901 -1.55874 2.12132 -2.12132 
C 1.55874 -2.683901 0.795609 -3 0 -3 
C -0.795609 -3 -1.55874 -2.683901 -2.12132 -2.12132 
C -2.683901 -1.55874 -3 -0.795609 -3 0 
C -3 0.795609 -2.683901 1.55874 -2.12132 2.12132 
C -1.55874 2.683901 -0.795609 3 0 3 
z
" id="m23a52b844f" style="stroke:#ff0000;"/>
    </defs>
    <g clip-path="url(#pb18dc5827d)">
     <use style="fill:#ff0000;stroke:#ff0000;" x="73.832727" xlink:href="#m23a52b844f" y="295.488"/>
     <use style="fill:#ff0000;stroke:#ff0000;" x="74.914909" xlink:href="#m23a52b844f" y="234.755032"/>
     <use style="fill:#ff0000;stroke:#ff0000;" x="75.997091" xlink:href="#m23a52b844f" y="234.755032"/>
     <use style="fill:#ff0000;stroke:#ff0000;" x="77.079273" xlink:href="#m23a52b844f" y="295.488"/>
     <use style="fill:#ff0000;stroke:#ff0000;" x="78.161455" xlink:href="#m23a52b844f" y="295.488"/>
     <use style="fill:#ff0000;stroke:#ff0000;" x="79.243636" xlink:href="#m23a52b844f" y="295.488"/>
     <use style="fill:#ff0000;stroke:#ff0000;" x="80.325818" xlink:href="#m23a52b844f" y="233.733993"/>
     <use style="fill:#ff0000;stroke:#ff0000;" x="81.408" xlink:href="#m23a52b844f" y="233.733993"/>
     <use style="fill:#ff0000;stroke:#ff0000;" x="82.490182" xlink:href="#m23a52b844f" y="294.5665"/>
     <use style="fill:#ff0000;stroke:#ff0000;" x="83.572364" xlink:href="#m23a52b844f" y="294.5665"/>
     <use style="fill:#ff0000;stroke:#ff0000;" x="84.654545" xlink:href="#m23a52b844f" y="294.5665"/>
     <use style="fill:#ff0000;stroke:#ff0000;" x="85.736727" xlink:href="#m23a52b844f" y="230.142083"/>
     <use style="fill:#ff0000;stroke:#ff0000;" x="86.818909" xlink:href="#m23a52b844f" y="230.142083"/>
     <use style="fill:#ff0000;stroke:#ff0000;" x="87.901091" xlink:href="#m23a52b844f" y="244.971744"/>
     <use style="fill:#ff0000;stroke:#ff0000;" x="88.983273" xlink:href="#m23a52b844f" y="244.971744"/>
     <use style="fill:#ff0000;stroke:#ff0000;" x="90.065455" xlink:href="#m23a52b844f" y="183.785824"/>
     <use style="fill:#ff0000;stroke:#ff0000;" x="91.147636" xlink:href="#m23a52b844f" y="183.785824"/>
     <use style="fill:#ff0000;stroke:#ff0000;" x="92.229818" xlink:href="#m23a52b844f" y="129.021078"/>
     <use style="fill:#ff0000;stroke:#ff0000;" x="93.312" xlink:href="#m23a52b844f" y="129.021078"/>
     <use style="fill:#ff0000;stroke:#ff0000;" x="94.394182" xlink:href="#m23a52b844f" y="121.974839"/>
     <use style="fill:#ff0000;stroke:#ff0000;" x="95.476364" xlink:href="#m23a52b844f" y="121.974839"/>
     <use style="fill:#ff0000;stroke:#ff0000;" x="96.558545" xlink:href="#m23a52b844f" y="184.887821"/>
     <use style="fill:#ff0000;stroke:#ff0000;" x="97.640727" xlink:href="#m23a52b844f" y="184.887821"/>
     <use style="fill:#ff0000;stroke:#ff0000;" x="98.722909" xlink:href="#m23a52b844f" y="167.809927"/>
     <use style="fill:#ff0000;stroke:#ff0000;" x="99.805091" xlink:href="#m23a52b844f" y="187.998728"/>
     <use style="fill:#ff0000;stroke:#ff0000;" x="100.887273" xlink:href="#m23a52b844f" y="187.998728"/>
     <use style="fill:#ff0000;stroke:#ff0000;" x="101.969455" xlink:href="#m23a52b844f" y="187.998728"/>
     <use style="fill:#ff0000;stroke:#ff0000;" x="103.051636" xlink:href="#m23a52b844f" y="187.998728"/>
     <use style="fill:#ff0000;stroke:#ff0000;" x="104.133818" xlink:href="#m23a52b844f" y="187.998728"/>
     <use style="fill:#ff0000;stroke:#ff0000;" x="105.216" xlink:href="#m23a52b844f" y="170.219011"/>
     <use style="fill:#ff0000;stroke:#ff0000;" x="106.298182" xlink:href="#m23a52b844f" y="193.430442"/>
     <use style="fill:#ff0000;stroke:#ff0000;" x="107.380364" xlink:href="#m23a52b844f" y="193.430442"/>
     <use style="fill:#ff0000;stroke:#ff0000;" x="108.462545" xlink:href="#m23a52b844f" y="193.430442"/>
     <use style="fill:#ff0000;stroke:#ff0000;" x="109.544727" xlink:href="#m23a52b844f" y="193.430442"/>
     <use style="fill:#ff0000;stroke:#ff0000;" x="110.626909" xlink:href="#m23a52b844f" y="193.430442"/>
     <use style="fill:#ff0000;stroke:#ff0000;" x="111.709091" xlink:href="#m23a52b844f" y="193.430442"/>
     <use style="fill:#ff0000;stroke:#ff0000;" x="112.791273" xlink:href="#m23a52b844f" y="193.430442"/>
     <use style="fill:#ff0000;stroke:#ff0000;" x="113.873455" xlink:href="#m23a52b844f" y="172.765102"/>
     <use style="fill:#ff0000;stroke:#ff0000;" x="114.955636" xlink:href="#m23a52b844f" y="172.765102"/>
     <use style="fill:#ff0000;stroke:#ff0000;" x="116.037818" xlink:href="#m23a52b844f" y="153.520471"/>
     <use style="fill:#ff0000;stroke:#ff0000;" x="117.12" xlink:href="#m23a52b844f" y="153.520471"/>
     <use style="fill:#ff0000;stroke:#ff0000;" x="118.202182" xlink:href="#m23a52b844f" y="153.520471"/>
     <use style="fill:#ff0000;stroke:#ff0000;" x="119.284364" xlink:href="#m23a52b844f" y="134.397719"/>
     <use style="fill:#ff0000;stroke:#ff0000;" x="120.366545" xlink:href="#m23a52b844f" y="134.397719"/>
     <use style="fill:#ff0000;stroke:#ff0000;" x="121.448727" xlink:href="#m23a52b844f" y="134.819936"/>
     <use style="fill:#ff0000;stroke:#ff0000;" x="122.530909" xlink:href="#m23a52b844f" y="134.819936"/>
     <use style="fill:#ff0000;stroke:#ff0000;" x="123.613091" xlink:href="#m23a52b844f" y="134.819936"/>
     <use style="fill:#ff0000;stroke:#ff0000;" x="124.695273" xlink:href="#m23a52b844f" y="116.360152"/>
     <use style="fill:#ff0000;stroke:#ff0000;" x="125.777455" xlink:href="#m23a52b844f" y="116.360152"/>
     <use style="fill:#ff0000;stroke:#ff0000;" x="126.859636" xlink:href="#m23a52b844f" y="137.713478"/>
     <use style="fill:#ff0000;stroke:#ff0000;" x="127.941818" xlink:href="#m23a52b844f" y="137.713478"/>
     <use style="fill:#ff0000;stroke:#ff0000;" x="129.024" xlink:href="#m23a52b844f" y="157.889654"/>
     <use style="fill:#ff0000;stroke:#ff0000;" x="130.106182" xlink:href="#m23a52b844f" y="139.239916"/>
     <use style="fill:#ff0000;stroke:#ff0000;" x="131.188364" xlink:href="#m23a52b844f" y="139.239916"/>
     <use style="fill:#ff0000;stroke:#ff0000;" x="132.270545" xlink:href="#m23a52b844f" y="139.239916"/>
     <use style="fill:#ff0000;stroke:#ff0000;" x="133.352727" xlink:href="#m23a52b844f" y="160.217387"/>
     <use style="fill:#ff0000;stroke:#ff0000;" x="134.434909" xlink:href="#m23a52b844f" y="160.217387"/>
     <use style="fill:#ff0000;stroke:#ff0000;" x="135.517091" xlink:href="#m23a52b844f" y="141.53827"/>
     <use style="fill:#ff0000;stroke:#ff0000;" x="136.599273" xlink:href="#m23a52b844f" y="141.53827"/>
     <use style="fill:#ff0000;stroke:#ff0000;" x="137.681455" xlink:href="#m23a52b844f" y="138.941232"/>
     <use style="fill:#ff0000;stroke:#ff0000;" x="138.763636" xlink:href="#m23a52b844f" y="141.720451"/>
     <use style="fill:#ff0000;stroke:#ff0000;" x="139.845818" xlink:href="#m23a52b844f" y="141.720451"/>
     <use style="fill:#ff0000;stroke:#ff0000;" x="140.928" xlink:href="#m23a52b844f" y="122.363448"/>
     <use style="fill:#ff0000;stroke:#ff0000;" x="142.010182" xlink:href="#m23a52b844f" y="122.363448"/>
     <use style="fill:#ff0000;stroke:#ff0000;" x="143.092364" xlink:href="#m23a52b844f" y="122.363448"/>
     <use style="fill:#ff0000;stroke:#ff0000;" x="144.174545" xlink:href="#m23a52b844f" y="144.830938"/>
     <use style="fill:#ff0000;stroke:#ff0000;" x="145.256727" xlink:href="#m23a52b844f" y="144.830938"/>
     <use style="fill:#ff0000;stroke:#ff0000;" x="146.338909" xlink:href="#m23a52b844f" y="126.676055"/>
     <use style="fill:#ff0000;stroke:#ff0000;" x="147.421091" xlink:href="#m23a52b844f" y="126.676055"/>
     <use style="fill:#ff0000;stroke:#ff0000;" x="148.503273" xlink:href="#m23a52b844f" y="109.034846"/>
     <use style="fill:#ff0000;stroke:#ff0000;" x="149.585455" xlink:href="#m23a52b844f" y="109.034846"/>
     <use style="fill:#ff0000;stroke:#ff0000;" x="150.667636" xlink:href="#m23a52b844f" y="106.093021"/>
     <use style="fill:#ff0000;stroke:#ff0000;" x="151.749818" xlink:href="#m23a52b844f" y="104.760055"/>
     <use style="fill:#ff0000;stroke:#ff0000;" x="152.832" xlink:href="#m23a52b844f" y="104.760055"/>
     <use style="fill:#ff0000;stroke:#ff0000;" x="153.914182" xlink:href="#m23a52b844f" y="99.446331"/>
     <use style="fill:#ff0000;stroke:#ff0000;" x="154.996364" xlink:href="#m23a52b844f" y="99.446331"/>
     <use style="fill:#ff0000;stroke:#ff0000;" x="156.078545" xlink:href="#m23a52b844f" y="123.775656"/>
     <use style="fill:#ff0000;stroke:#ff0000;" x="157.160727" xlink:href="#m23a52b844f" y="123.775656"/>
     <use style="fill:#ff0000;stroke:#ff0000;" x="158.242909" xlink:href="#m23a52b844f" y="103.73264"/>
     <use style="fill:#ff0000;stroke:#ff0000;" x="159.325091" xlink:href="#m23a52b844f" y="103.73264"/>
     <use style="fill:#ff0000;stroke:#ff0000;" x="160.407273" xlink:href="#m23a52b844f" y="85.43526"/>
     <use style="fill:#ff0000;stroke:#ff0000;" x="161.489455" xlink:href="#m23a52b844f" y="85.43526"/>
     <use style="fill:#ff0000;stroke:#ff0000;" x="162.571636" xlink:href="#m23a52b844f" y="85.43526"/>
     <use style="fill:#ff0000;stroke:#ff0000;" x="163.653818" xlink:href="#m23a52b844f" y="85.43526"/>
     <use style="fill:#ff0000;stroke:#ff0000;" x="164.736" xlink:href="#m23a52b844f" y="85.43526"/>
     <use style="fill:#ff0000;stroke:#ff0000;" x="165.818182" xlink:href="#m23a52b844f" y="106.353113"/>
     <use style="fill:#ff0000;stroke:#ff0000;" x="166.900364" xlink:href="#m23a52b844f" y="106.353113"/>
     <use style="fill:#ff0000;stroke:#ff0000;" x="167.982545" xlink:href="#m23a52b844f" y="127.590409"/>
     <use style="fill:#ff0000;stroke:#ff0000;" x="169.064727" xlink:href="#m23a52b844f" y="127.590409"/>
     <use style="fill:#ff0000;stroke:#ff0000;" x="170.146909" xlink:href="#m23a52b844f" y="108.923836"/>
     <use style="fill:#ff0000;stroke:#ff0000;" x="171.229091" xlink:href="#m23a52b844f" y="108.923836"/>
     <use style="fill:#ff0000;stroke:#ff0000;" x="172.311273" xlink:href="#m23a52b844f" y="108.923836"/>
     <use style="fill:#ff0000;stroke:#ff0000;" x="173.393455" xlink:href="#m23a52b844f" y="108.923836"/>
     <use style="fill:#ff0000;stroke:#ff0000;" x="174.475636" xlink:href="#m23a52b844f" y="129.196426"/>
     <use style="fill:#ff0000;stroke:#ff0000;" x="175.557818" xlink:href="#m23a52b844f" y="129.196426"/>
     <use style="fill:#ff0000;stroke:#ff0000;" x="176.64" xlink:href="#m23a52b844f" y="110.030108"/>
     <use style="fill:#ff0000;stroke:#ff0000;" x="177.722182" xlink:href="#m23a52b844f" y="110.030108"/>
     <use style="fill:#ff0000;stroke:#ff0000;" x="178.804364" xlink:href="#m23a52b844f" y="89.986948"/>
     <use style="fill:#ff0000;stroke:#ff0000;" x="179.886545" xlink:href="#m23a52b844f" y="89.986948"/>
     <use style="fill:#ff0000;stroke:#ff0000;" x="180.968727" xlink:href="#m23a52b844f" y="111.038192"/>
     <use style="fill:#ff0000;stroke:#ff0000;" x="182.050909" xlink:href="#m23a52b844f" y="95.076454"/>
     <use style="fill:#ff0000;stroke:#ff0000;" x="183.133091" xlink:href="#m23a52b844f" y="95.076454"/>
     <use style="fill:#ff0000;stroke:#ff0000;" x="184.215273" xlink:href="#m23a52b844f" y="93.443417"/>
     <use style="fill:#ff0000;stroke:#ff0000;" x="185.297455" xlink:href="#m23a52b844f" y="93.443417"/>
     <use style="fill:#ff0000;stroke:#ff0000;" x="186.379636" xlink:href="#m23a52b844f" y="73.966884"/>
     <use style="fill:#ff0000;stroke:#ff0000;" x="187.461818" xlink:href="#m23a52b844f" y="73.966884"/>
     <use style="fill:#ff0000;stroke:#ff0000;" x="188.544" xlink:href="#m23a52b844f" y="53.568"/>
     <use style="fill:#ff0000;stroke:#ff0000;" x="189.626182" xlink:href="#m23a52b844f" y="53.568"/>
     <use style="fill:#ff0000;stroke:#ff0000;" x="190.708364" xlink:href="#m23a52b844f" y="76.019266"/>
     <use style="fill:#ff0000;stroke:#ff0000;" x="191.790545" xlink:href="#m23a52b844f" y="76.019266"/>
     <use style="fill:#ff0000;stroke:#ff0000;" x="192.872727" xlink:href="#m23a52b844f" y="76.019266"/>
     <use style="fill:#ff0000;stroke:#ff0000;" x="193.954909" xlink:href="#m23a52b844f" y="76.019266"/>
     <use style="fill:#ff0000;stroke:#ff0000;" x="195.037091" xlink:href="#m23a52b844f" y="76.019266"/>
     <use style="fill:#ff0000;stroke:#ff0000;" x="196.119273" xlink:href="#m23a52b844f" y="76.019266"/>
     <use style="fill:#ff0000;stroke:#ff0000;" x="197.201455" xlink:href="#m23a52b844f" y="76.019266"/>
     <use style="fill:#ff0000;stroke:#ff0000;" x="198.283636" xlink:href="#m23a52b844f" y="76.019266"/>
     <use style="fill:#ff0000;stroke:#ff0000;" x="199.365818" xlink:href="#m23a52b844f" y="76.019266"/>
     <use style="fill:#ff0000;stroke:#ff0000;" x="200.448" xlink:href="#m23a52b844f" y="99.381874"/>
     <use style="fill:#ff0000;stroke:#ff0000;" x="201.530182" xlink:href="#m23a52b844f" y="99.483221"/>
     <use style="fill:#ff0000;stroke:#ff0000;" x="202.612364" xlink:href="#m23a52b844f" y="99.483221"/>
     <use style="fill:#ff0000;stroke:#ff0000;" x="203.694545" xlink:href="#m23a52b844f" y="80.210948"/>
     <use style="fill:#ff0000;stroke:#ff0000;" x="204.776727" xlink:href="#m23a52b844f" y="80.210948"/>
     <use style="fill:#ff0000;stroke:#ff0000;" x="205.858909" xlink:href="#m23a52b844f" y="62.62727"/>
     <use style="fill:#ff0000;stroke:#ff0000;" x="206.941091" xlink:href="#m23a52b844f" y="62.62727"/>
     <use style="fill:#ff0000;stroke:#ff0000;" x="208.023273" xlink:href="#m23a52b844f" y="62.62727"/>
     <use style="fill:#ff0000;stroke:#ff0000;" x="209.105455" xlink:href="#m23a52b844f" y="66.871537"/>
     <use style="fill:#ff0000;stroke:#ff0000;" x="210.187636" xlink:href="#m23a52b844f" y="66.871537"/>
     <use style="fill:#ff0000;stroke:#ff0000;" x="211.269818" xlink:href="#m23a52b844f" y="87.55816"/>
     <use style="fill:#ff0000;stroke:#ff0000;" x="212.352" xlink:href="#m23a52b844f" y="87.55816"/>
     <use style="fill:#ff0000;stroke:#ff0000;" x="213.434182" xlink:href="#m23a52b844f" y="111.168378"/>
     <use style="fill:#ff0000;stroke:#ff0000;" x="214.516364" xlink:href="#m23a52b844f" y="92.340583"/>
     <use style="fill:#ff0000;stroke:#ff0000;" x="215.598545" xlink:href="#m23a52b844f" y="92.340583"/>
     <use style="fill:#ff0000;stroke:#ff0000;" x="216.680727" xlink:href="#m23a52b844f" y="75.192067"/>
     <use style="fill:#ff0000;stroke:#ff0000;" x="217.762909" xlink:href="#m23a52b844f" y="75.192067"/>
     <use style="fill:#ff0000;stroke:#ff0000;" x="218.845091" xlink:href="#m23a52b844f" y="97.000225"/>
     <use style="fill:#ff0000;stroke:#ff0000;" x="219.927273" xlink:href="#m23a52b844f" y="97.000225"/>
     <use style="fill:#ff0000;stroke:#ff0000;" x="221.009455" xlink:href="#m23a52b844f" y="104.459193"/>
     <use style="fill:#ff0000;stroke:#ff0000;" x="222.091636" xlink:href="#m23a52b844f" y="104.459193"/>
     <use style="fill:#ff0000;stroke:#ff0000;" x="223.173818" xlink:href="#m23a52b844f" y="104.459193"/>
     <use style="fill:#ff0000;stroke:#ff0000;" x="224.256" xlink:href="#m23a52b844f" y="104.459193"/>
     <use style="fill:#ff0000;stroke:#ff0000;" x="225.338182" xlink:href="#m23a52b844f" y="125.900404"/>
     <use style="fill:#ff0000;stroke:#ff0000;" x="226.420364" xlink:href="#m23a52b844f" y="125.900404"/>
     <use style="fill:#ff0000;stroke:#ff0000;" x="227.502545" xlink:href="#m23a52b844f" y="107.0256"/>
     <use style="fill:#ff0000;stroke:#ff0000;" x="228.584727" xlink:href="#m23a52b844f" y="107.0256"/>
     <use style="fill:#ff0000;stroke:#ff0000;" x="229.666909" xlink:href="#m23a52b844f" y="129.491028"/>
     <use style="fill:#ff0000;stroke:#ff0000;" x="230.749091" xlink:href="#m23a52b844f" y="129.491028"/>
     <use style="fill:#ff0000;stroke:#ff0000;" x="231.831273" xlink:href="#m23a52b844f" y="150.748225"/>
     <use style="fill:#ff0000;stroke:#ff0000;" x="232.913455" xlink:href="#m23a52b844f" y="150.748225"/>
     <use style="fill:#ff0000;stroke:#ff0000;" x="233.995636" xlink:href="#m23a52b844f" y="150.748225"/>
     <use style="fill:#ff0000;stroke:#ff0000;" x="235.077818" xlink:href="#m23a52b844f" y="130.1951"/>
     <use style="fill:#ff0000;stroke:#ff0000;" x="236.16" xlink:href="#m23a52b844f" y="130.1951"/>
     <use style="fill:#ff0000;stroke:#ff0000;" x="237.242182" xlink:href="#m23a52b844f" y="110.693379"/>
     <use style="fill:#ff0000;stroke:#ff0000;" x="238.324364" xlink:href="#m23a52b844f" y="110.693379"/>
     <use style="fill:#ff0000;stroke:#ff0000;" x="239.406545" xlink:href="#m23a52b844f" y="128.464712"/>
     <use style="fill:#ff0000;stroke:#ff0000;" x="240.488727" xlink:href="#m23a52b844f" y="128.464712"/>
     <use style="fill:#ff0000;stroke:#ff0000;" x="241.570909" xlink:href="#m23a52b844f" y="128.464712"/>
     <use style="fill:#ff0000;stroke:#ff0000;" x="242.653091" xlink:href="#m23a52b844f" y="108.254382"/>
     <use style="fill:#ff0000;stroke:#ff0000;" x="243.735273" xlink:href="#m23a52b844f" y="108.254382"/>
     <use style="fill:#ff0000;stroke:#ff0000;" x="244.817455" xlink:href="#m23a52b844f" y="128.766361"/>
     <use style="fill:#ff0000;stroke:#ff0000;" x="245.899636" xlink:href="#m23a52b844f" y="128.766361"/>
     <use style="fill:#ff0000;stroke:#ff0000;" x="246.981818" xlink:href="#m23a52b844f" y="147.857488"/>
     <use style="fill:#ff0000;stroke:#ff0000;" x="248.064" xlink:href="#m23a52b844f" y="147.857488"/>
     <use style="fill:#ff0000;stroke:#ff0000;" x="249.146182" xlink:href="#m23a52b844f" y="126.405411"/>
     <use style="fill:#ff0000;stroke:#ff0000;" x="250.228364" xlink:href="#m23a52b844f" y="126.405411"/>
     <use style="fill:#ff0000;stroke:#ff0000;" x="251.310545" xlink:href="#m23a52b844f" y="105.243213"/>
     <use style="fill:#ff0000;stroke:#ff0000;" x="252.392727" xlink:href="#m23a52b844f" y="105.243213"/>
     <use style="fill:#ff0000;stroke:#ff0000;" x="253.474909" xlink:href="#m23a52b844f" y="89.520416"/>
     <use style="fill:#ff0000;stroke:#ff0000;" x="254.557091" xlink:href="#m23a52b844f" y="89.520416"/>
     <use style="fill:#ff0000;stroke:#ff0000;" x="255.639273" xlink:href="#m23a52b844f" y="72.321744"/>
     <use style="fill:#ff0000;stroke:#ff0000;" x="256.721455" xlink:href="#m23a52b844f" y="93.457073"/>
     <use style="fill:#ff0000;stroke:#ff0000;" x="257.803636" xlink:href="#m23a52b844f" y="93.457073"/>
     <use style="fill:#ff0000;stroke:#ff0000;" x="258.885818" xlink:href="#m23a52b844f" y="73.363389"/>
     <use style="fill:#ff0000;stroke:#ff0000;" x="259.968" xlink:href="#m23a52b844f" y="73.363389"/>
     <use style="fill:#ff0000;stroke:#ff0000;" x="261.050182" xlink:href="#m23a52b844f" y="95.095725"/>
     <use style="fill:#ff0000;stroke:#ff0000;" x="262.132364" xlink:href="#m23a52b844f" y="95.095725"/>
     <use style="fill:#ff0000;stroke:#ff0000;" x="263.214545" xlink:href="#m23a52b844f" y="95.095725"/>
     <use style="fill:#ff0000;stroke:#ff0000;" x="264.296727" xlink:href="#m23a52b844f" y="115.820788"/>
     <use style="fill:#ff0000;stroke:#ff0000;" x="265.378909" xlink:href="#m23a52b844f" y="115.820788"/>
     <use style="fill:#ff0000;stroke:#ff0000;" x="266.461091" xlink:href="#m23a52b844f" y="136.408965"/>
     <use style="fill:#ff0000;stroke:#ff0000;" x="267.543273" xlink:href="#m23a52b844f" y="136.408965"/>
     <use style="fill:#ff0000;stroke:#ff0000;" x="268.625455" xlink:href="#m23a52b844f" y="134.294558"/>
     <use style="fill:#ff0000;stroke:#ff0000;" x="269.707636" xlink:href="#m23a52b844f" y="155.635224"/>
     <use style="fill:#ff0000;stroke:#ff0000;" x="270.789818" xlink:href="#m23a52b844f" y="155.635224"/>
     <use style="fill:#ff0000;stroke:#ff0000;" x="271.872" xlink:href="#m23a52b844f" y="159.930478"/>
     <use style="fill:#ff0000;stroke:#ff0000;" x="272.954182" xlink:href="#m23a52b844f" y="159.930478"/>
     <use style="fill:#ff0000;stroke:#ff0000;" x="274.036364" xlink:href="#m23a52b844f" y="140.996751"/>
     <use style="fill:#ff0000;stroke:#ff0000;" x="275.118545" xlink:href="#m23a52b844f" y="140.996751"/>
     <use style="fill:#ff0000;stroke:#ff0000;" x="276.200727" xlink:href="#m23a52b844f" y="140.996751"/>
     <use style="fill:#ff0000;stroke:#ff0000;" x="277.282909" xlink:href="#m23a52b844f" y="140.996751"/>
     <use style="fill:#ff0000;stroke:#ff0000;" x="278.365091" xlink:href="#m23a52b844f" y="140.996751"/>
     <use style="fill:#ff0000;stroke:#ff0000;" x="279.447273" xlink:href="#m23a52b844f" y="140.996751"/>
     <use style="fill:#ff0000;stroke:#ff0000;" x="280.529455" xlink:href="#m23a52b844f" y="140.996751"/>
     <use style="fill:#ff0000;stroke:#ff0000;" x="281.611636" xlink:href="#m23a52b844f" y="140.996751"/>
     <use style="fill:#ff0000;stroke:#ff0000;" x="282.693818" xlink:href="#m23a52b844f" y="140.996751"/>
     <use style="fill:#ff0000;stroke:#ff0000;" x="283.776" xlink:href="#m23a52b844f" y="140.996751"/>
     <use style="fill:#ff0000;stroke:#ff0000;" x="284.858182" xlink:href="#m23a52b844f" y="140.996751"/>
     <use style="fill:#ff0000;stroke:#ff0000;" x="285.940364" xlink:href="#m23a52b844f" y="140.996751"/>
     <use style="fill:#ff0000;stroke:#ff0000;" x="287.022545" xlink:href="#m23a52b844f" y="140.996751"/>
     <use style="fill:#ff0000;stroke:#ff0000;" x="288.104727" xlink:href="#m23a52b844f" y="140.996751"/>
     <use style="fill:#ff0000;stroke:#ff0000;" x="289.186909" xlink:href="#m23a52b844f" y="140.996751"/>
     <use style="fill:#ff0000;stroke:#ff0000;" x="290.269091" xlink:href="#m23a52b844f" y="140.996751"/>
     <use style="fill:#ff0000;stroke:#ff0000;" x="291.351273" xlink:href="#m23a52b844f" y="140.996751"/>
     <use style="fill:#ff0000;stroke:#ff0000;" x="292.433455" xlink:href="#m23a52b844f" y="140.996751"/>
     <use style="fill:#ff0000;stroke:#ff0000;" x="293.515636" xlink:href="#m23a52b844f" y="140.996751"/>
     <use style="fill:#ff0000;stroke:#ff0000;" x="294.597818" xlink:href="#m23a52b844f" y="140.996751"/>
     <use style="fill:#ff0000;stroke:#ff0000;" x="295.68" xlink:href="#m23a52b844f" y="140.996751"/>
     <use style="fill:#ff0000;stroke:#ff0000;" x="296.762182" xlink:href="#m23a52b844f" y="140.996751"/>
     <use style="fill:#ff0000;stroke:#ff0000;" x="297.844364" xlink:href="#m23a52b844f" y="140.996751"/>
     <use style="fill:#ff0000;stroke:#ff0000;" x="298.926545" xlink:href="#m23a52b844f" y="140.996751"/>
     <use style="fill:#ff0000;stroke:#ff0000;" x="300.008727" xlink:href="#m23a52b844f" y="140.996751"/>
     <use style="fill:#ff0000;stroke:#ff0000;" x="301.090909" xlink:href="#m23a52b844f" y="140.996751"/>
     <use style="fill:#ff0000;stroke:#ff0000;" x="302.173091" xlink:href="#m23a52b844f" y="140.996751"/>
     <use style="fill:#ff0000;stroke:#ff0000;" x="303.255273" xlink:href="#m23a52b844f" y="140.996751"/>
     <use style="fill:#ff0000;stroke:#ff0000;" x="304.337455" xlink:href="#m23a52b844f" y="140.996751"/>
     <use style="fill:#ff0000;stroke:#ff0000;" x="305.419636" xlink:href="#m23a52b844f" y="140.996751"/>
     <use style="fill:#ff0000;stroke:#ff0000;" x="306.501818" xlink:href="#m23a52b844f" y="140.996751"/>
     <use style="fill:#ff0000;stroke:#ff0000;" x="307.584" xlink:href="#m23a52b844f" y="140.996751"/>
     <use style="fill:#ff0000;stroke:#ff0000;" x="308.666182" xlink:href="#m23a52b844f" y="140.996751"/>
     <use style="fill:#ff0000;stroke:#ff0000;" x="309.748364" xlink:href="#m23a52b844f" y="140.996751"/>
     <use style="fill:#ff0000;stroke:#ff0000;" x="310.830545" xlink:href="#m23a52b844f" y="140.996751"/>
     <use style="fill:#ff0000;stroke:#ff0000;" x="311.912727" xlink:href="#m23a52b844f" y="140.996751"/>
     <use style="fill:#ff0000;stroke:#ff0000;" x="312.994909" xlink:href="#m23a52b844f" y="140.996751"/>
     <use style="fill:#ff0000;stroke:#ff0000;" x="314.077091" xlink:href="#m23a52b844f" y="140.996751"/>
     <use style="fill:#ff0000;stroke:#ff0000;" x="315.159273" xlink:href="#m23a52b844f" y="140.996751"/>
     <use style="fill:#ff0000;stroke:#ff0000;" x="316.241455" xlink:href="#m23a52b844f" y="140.996751"/>
     <use style="fill:#ff0000;stroke:#ff0000;" x="317.323636" xlink:href="#m23a52b844f" y="140.996751"/>
     <use style="fill:#ff0000;stroke:#ff0000;" x="318.405818" xlink:href="#m23a52b844f" y="140.996751"/>
     <use style="fill:#ff0000;stroke:#ff0000;" x="319.488" xlink:href="#m23a52b844f" y="140.996751"/>
     <use style="fill:#ff0000;stroke:#ff0000;" x="320.570182" xlink:href="#m23a52b844f" y="140.996751"/>
     <use style="fill:#ff0000;stroke:#ff0000;" x="321.652364" xlink:href="#m23a52b844f" y="140.996751"/>
     <use style="fill:#ff0000;stroke:#ff0000;" x="322.734545" xlink:href="#m23a52b844f" y="140.996751"/>
     <use style="fill:#ff0000;stroke:#ff0000;" x="323.816727" xlink:href="#m23a52b844f" y="140.996751"/>
     <use style="fill:#ff0000;stroke:#ff0000;" x="324.898909" xlink:href="#m23a52b844f" y="140.996751"/>
     <use style="fill:#ff0000;stroke:#ff0000;" x="325.981091" xlink:href="#m23a52b844f" y="140.996751"/>
     <use style="fill:#ff0000;stroke:#ff0000;" x="327.063273" xlink:href="#m23a52b844f" y="140.996751"/>
     <use style="fill:#ff0000;stroke:#ff0000;" x="328.145455" xlink:href="#m23a52b844f" y="140.996751"/>
     <use style="fill:#ff0000;stroke:#ff0000;" x="329.227636" xlink:href="#m23a52b844f" y="140.996751"/>
     <use style="fill:#ff0000;stroke:#ff0000;" x="330.309818" xlink:href="#m23a52b844f" y="140.996751"/>
     <use style="fill:#ff0000;stroke:#ff0000;" x="331.392" xlink:href="#m23a52b844f" y="140.996751"/>
     <use style="fill:#ff0000;stroke:#ff0000;" x="332.474182" xlink:href="#m23a52b844f" y="140.996751"/>
     <use style="fill:#ff0000;stroke:#ff0000;" x="333.556364" xlink:href="#m23a52b844f" y="140.996751"/>
     <use style="fill:#ff0000;stroke:#ff0000;" x="334.638545" xlink:href="#m23a52b844f" y="140.996751"/>
     <use style="fill:#ff0000;stroke:#ff0000;" x="335.720727" xlink:href="#m23a52b844f" y="140.996751"/>
     <use style="fill:#ff0000;stroke:#ff0000;" x="336.802909" xlink:href="#m23a52b844f" y="140.996751"/>
     <use style="fill:#ff0000;stroke:#ff0000;" x="337.885091" xlink:href="#m23a52b844f" y="140.996751"/>
     <use style="fill:#ff0000;stroke:#ff0000;" x="338.967273" xlink:href="#m23a52b844f" y="140.996751"/>
     <use style="fill:#ff0000;stroke:#ff0000;" x="340.049455" xlink:href="#m23a52b844f" y="140.996751"/>
     <use style="fill:#ff0000;stroke:#ff0000;" x="341.131636" xlink:href="#m23a52b844f" y="140.996751"/>
     <use style="fill:#ff0000;stroke:#ff0000;" x="342.213818" xlink:href="#m23a52b844f" y="140.996751"/>
     <use style="fill:#ff0000;stroke:#ff0000;" x="343.296" xlink:href="#m23a52b844f" y="140.996751"/>
     <use style="fill:#ff0000;stroke:#ff0000;" x="344.378182" xlink:href="#m23a52b844f" y="140.996751"/>
     <use style="fill:#ff0000;stroke:#ff0000;" x="345.460364" xlink:href="#m23a52b844f" y="140.996751"/>
     <use style="fill:#ff0000;stroke:#ff0000;" x="346.542545" xlink:href="#m23a52b844f" y="140.996751"/>
     <use style="fill:#ff0000;stroke:#ff0000;" x="347.624727" xlink:href="#m23a52b844f" y="140.996751"/>
     <use style="fill:#ff0000;stroke:#ff0000;" x="348.706909" xlink:href="#m23a52b844f" y="140.996751"/>
     <use style="fill:#ff0000;stroke:#ff0000;" x="349.789091" xlink:href="#m23a52b844f" y="140.996751"/>
     <use style="fill:#ff0000;stroke:#ff0000;" x="350.871273" xlink:href="#m23a52b844f" y="140.996751"/>
     <use style="fill:#ff0000;stroke:#ff0000;" x="351.953455" xlink:href="#m23a52b844f" y="140.996751"/>
     <use style="fill:#ff0000;stroke:#ff0000;" x="353.035636" xlink:href="#m23a52b844f" y="140.996751"/>
     <use style="fill:#ff0000;stroke:#ff0000;" x="354.117818" xlink:href="#m23a52b844f" y="140.996751"/>
     <use style="fill:#ff0000;stroke:#ff0000;" x="355.2" xlink:href="#m23a52b844f" y="140.996751"/>
     <use style="fill:#ff0000;stroke:#ff0000;" x="356.282182" xlink:href="#m23a52b844f" y="140.996751"/>
     <use style="fill:#ff0000;stroke:#ff0000;" x="357.364364" xlink:href="#m23a52b844f" y="140.996751"/>
     <use style="fill:#ff0000;stroke:#ff0000;" x="358.446545" xlink:href="#m23a52b844f" y="140.996751"/>
     <use style="fill:#ff0000;stroke:#ff0000;" x="359.528727" xlink:href="#m23a52b844f" y="140.996751"/>
     <use style="fill:#ff0000;stroke:#ff0000;" x="360.610909" xlink:href="#m23a52b844f" y="140.996751"/>
     <use style="fill:#ff0000;stroke:#ff0000;" x="361.693091" xlink:href="#m23a52b844f" y="140.996751"/>
     <use style="fill:#ff0000;stroke:#ff0000;" x="362.775273" xlink:href="#m23a52b844f" y="140.996751"/>
     <use style="fill:#ff0000;stroke:#ff0000;" x="363.857455" xlink:href="#m23a52b844f" y="140.996751"/>
     <use style="fill:#ff0000;stroke:#ff0000;" x="364.939636" xlink:href="#m23a52b844f" y="140.996751"/>
     <use style="fill:#ff0000;stroke:#ff0000;" x="366.021818" xlink:href="#m23a52b844f" y="140.996751"/>
     <use style="fill:#ff0000;stroke:#ff0000;" x="367.104" xlink:href="#m23a52b844f" y="140.996751"/>
     <use style="fill:#ff0000;stroke:#ff0000;" x="368.186182" xlink:href="#m23a52b844f" y="140.996751"/>
     <use style="fill:#ff0000;stroke:#ff0000;" x="369.268364" xlink:href="#m23a52b844f" y="140.996751"/>
     <use style="fill:#ff0000;stroke:#ff0000;" x="370.350545" xlink:href="#m23a52b844f" y="140.996751"/>
     <use style="fill:#ff0000;stroke:#ff0000;" x="371.432727" xlink:href="#m23a52b844f" y="140.996751"/>
     <use style="fill:#ff0000;stroke:#ff0000;" x="372.514909" xlink:href="#m23a52b844f" y="140.996751"/>
     <use style="fill:#ff0000;stroke:#ff0000;" x="373.597091" xlink:href="#m23a52b844f" y="140.996751"/>
     <use style="fill:#ff0000;stroke:#ff0000;" x="374.679273" xlink:href="#m23a52b844f" y="140.996751"/>
     <use style="fill:#ff0000;stroke:#ff0000;" x="375.761455" xlink:href="#m23a52b844f" y="140.996751"/>
     <use style="fill:#ff0000;stroke:#ff0000;" x="376.843636" xlink:href="#m23a52b844f" y="140.996751"/>
     <use style="fill:#ff0000;stroke:#ff0000;" x="377.925818" xlink:href="#m23a52b844f" y="140.996751"/>
     <use style="fill:#ff0000;stroke:#ff0000;" x="379.008" xlink:href="#m23a52b844f" y="140.996751"/>
     <use style="fill:#ff0000;stroke:#ff0000;" x="380.090182" xlink:href="#m23a52b844f" y="140.996751"/>
     <use style="fill:#ff0000;stroke:#ff0000;" x="381.172364" xlink:href="#m23a52b844f" y="140.996751"/>
     <use style="fill:#ff0000;stroke:#ff0000;" x="382.254545" xlink:href="#m23a52b844f" y="140.996751"/>
     <use style="fill:#ff0000;stroke:#ff0000;" x="383.336727" xlink:href="#m23a52b844f" y="140.996751"/>
     <use style="fill:#ff0000;stroke:#ff0000;" x="384.418909" xlink:href="#m23a52b844f" y="140.996751"/>
     <use style="fill:#ff0000;stroke:#ff0000;" x="385.501091" xlink:href="#m23a52b844f" y="140.996751"/>
     <use style="fill:#ff0000;stroke:#ff0000;" x="386.583273" xlink:href="#m23a52b844f" y="140.996751"/>
     <use style="fill:#ff0000;stroke:#ff0000;" x="387.665455" xlink:href="#m23a52b844f" y="140.996751"/>
     <use style="fill:#ff0000;stroke:#ff0000;" x="388.747636" xlink:href="#m23a52b844f" y="140.996751"/>
     <use style="fill:#ff0000;stroke:#ff0000;" x="389.829818" xlink:href="#m23a52b844f" y="140.996751"/>
     <use style="fill:#ff0000;stroke:#ff0000;" x="390.912" xlink:href="#m23a52b844f" y="140.996751"/>
     <use style="fill:#ff0000;stroke:#ff0000;" x="391.994182" xlink:href="#m23a52b844f" y="140.996751"/>
     <use style="fill:#ff0000;stroke:#ff0000;" x="393.076364" xlink:href="#m23a52b844f" y="140.996751"/>
     <use style="fill:#ff0000;stroke:#ff0000;" x="394.158545" xlink:href="#m23a52b844f" y="140.996751"/>
     <use style="fill:#ff0000;stroke:#ff0000;" x="395.240727" xlink:href="#m23a52b844f" y="140.996751"/>
     <use style="fill:#ff0000;stroke:#ff0000;" x="396.322909" xlink:href="#m23a52b844f" y="140.996751"/>
     <use style="fill:#ff0000;stroke:#ff0000;" x="397.405091" xlink:href="#m23a52b844f" y="140.996751"/>
     <use style="fill:#ff0000;stroke:#ff0000;" x="398.487273" xlink:href="#m23a52b844f" y="140.996751"/>
    </g>
   </g>
   <g id="patch_3">
    <path d="M 57.6 307.584 
L 57.6 41.472 
" style="fill:none;stroke:#000000;stroke-linecap:square;stroke-linejoin:miter;stroke-width:0.8;"/>
   </g>
   <g id="patch_4">
    <path d="M 414.72 307.584 
L 414.72 41.472 
" style="fill:none;stroke:#000000;stroke-linecap:square;stroke-linejoin:miter;stroke-width:0.8;"/>
   </g>
   <g id="patch_5">
    <path d="M 57.6 307.584 
L 414.72 307.584 
" style="fill:none;stroke:#000000;stroke-linecap:square;stroke-linejoin:miter;stroke-width:0.8;"/>
   </g>
   <g id="patch_6">
    <path d="M 57.6 41.472 
L 414.72 41.472 
" style="fill:none;stroke:#000000;stroke-linecap:square;stroke-linejoin:miter;stroke-width:0.8;"/>
   </g>
  </g>
 </g>
 <defs>
  <clipPath id="pb18dc5827d">
   <rect height="266.112" width="357.12" x="57.6" y="41.472"/>
  </clipPath>
 </defs>
</svg>
