<?xml version="1.0" encoding="utf-8" standalone="no"?>
<!DOCTYPE svg PUBLIC "-//W3C//DTD SVG 1.1//EN"
  "http://www.w3.org/Graphics/SVG/1.1/DTD/svg11.dtd">
<!-- Created with matplotlib (https://matplotlib.org/) -->
<svg height="345.6pt" version="1.1" viewBox="0 0 460.8 345.6" width="460.8pt" xmlns="http://www.w3.org/2000/svg" xmlns:xlink="http://www.w3.org/1999/xlink">
 <defs>
  <style type="text/css">
*{stroke-linecap:butt;stroke-linejoin:round;}
  </style>
 </defs>
 <g id="figure_1">
  <g id="patch_1">
   <path d="M 0 345.6 
L 460.8 345.6 
L 460.8 0 
L 0 0 
z
" style="fill:#ffffff;"/>
  </g>
  <g id="axes_1">
   <g id="patch_2">
    <path d="M 57.6 307.584 
L 414.72 307.584 
L 414.72 41.472 
L 57.6 41.472 
z
" style="fill:#ffffff;"/>
   </g>
   <g id="line2d_1">
    <path clip-path="url(#pa682a79f39)" d="M 73.832727 295.488 
L 75.017598 234.755032 
L 76.202468 234.755032 
L 77.387339 295.488 
L 79.75708 295.488 
L 80.941951 233.733993 
L 82.126821 233.733993 
L 83.311692 294.5665 
L 85.681433 294.5665 
L 86.866304 230.142083 
L 88.051175 230.142083 
L 89.236045 244.971744 
L 90.420916 244.971744 
L 91.605786 183.785824 
L 92.790657 183.785824 
L 93.975528 129.021078 
L 95.160398 129.021078 
L 96.345269 121.974839 
L 97.530139 121.974839 
L 98.71501 184.887821 
L 99.899881 184.887821 
L 101.084751 167.809927 
L 102.269622 187.998728 
L 107.009104 187.998728 
L 108.193975 170.219011 
L 109.378845 193.430442 
L 116.488069 193.430442 
L 117.67294 172.765102 
L 118.85781 172.765102 
L 120.042681 153.520471 
L 122.412422 153.520471 
L 123.597293 134.397719 
L 124.782163 134.397719 
L 125.967034 134.819936 
L 128.336775 134.819936 
L 129.521646 116.360152 
L 130.706516 116.360152 
L 131.891387 137.713478 
L 133.076257 137.713478 
L 134.261128 157.889654 
L 135.445999 139.239916 
L 137.81574 139.239916 
L 139.00061 160.217387 
L 140.185481 160.217387 
L 141.370352 141.53827 
L 142.555222 141.53827 
L 143.740093 138.941232 
L 144.924964 141.720451 
L 146.109834 141.720451 
L 147.294705 122.363448 
L 149.664446 122.363448 
L 150.849317 144.830938 
L 152.034187 144.830938 
L 153.219058 126.676055 
L 154.403928 126.676055 
L 155.588799 109.034846 
L 156.77367 109.034846 
L 157.95854 106.093021 
L 159.143411 104.760055 
L 160.328281 104.760055 
L 161.513152 99.446331 
L 162.698023 99.446331 
L 163.882893 123.775656 
L 165.067764 123.775656 
L 166.252634 103.73264 
L 167.437505 103.73264 
L 168.622376 85.43526 
L 173.361858 85.43526 
L 174.546729 106.353113 
L 175.731599 106.353113 
L 176.91647 127.590409 
L 178.10134 127.590409 
L 179.286211 108.923836 
L 182.840823 108.923836 
L 184.025693 129.196426 
L 185.210564 129.196426 
L 186.395435 110.030108 
L 187.580305 110.030108 
L 188.765176 89.986948 
L 189.950046 89.986948 
L 191.134917 111.038192 
L 192.319788 95.076454 
L 193.504658 95.076454 
L 194.689529 93.443417 
L 195.874399 93.443417 
L 197.05927 73.966884 
L 198.244141 73.966884 
L 199.429011 53.568 
L 200.613882 53.568 
L 201.798752 76.019266 
L 211.277717 76.019266 
L 212.462588 99.381874 
L 214.832329 99.483221 
L 216.0172 80.210948 
L 217.20207 80.210948 
L 218.386941 62.62727 
L 220.756682 62.62727 
L 221.941553 66.871537 
L 223.126423 66.871537 
L 224.311294 87.55816 
L 225.496165 87.55816 
L 226.681035 111.168378 
L 227.865906 92.340583 
L 229.050776 92.340583 
L 230.235647 75.192067 
L 231.420518 75.192067 
L 232.605388 97.000225 
L 233.790259 97.000225 
L 234.975129 104.459193 
L 238.529741 104.459193 
L 239.714612 125.900404 
L 240.899482 125.900404 
L 242.084353 107.0256 
L 243.269224 107.0256 
L 244.454094 129.491028 
L 245.638965 129.491028 
L 246.823835 150.748225 
L 249.193577 150.748225 
L 250.378447 130.1951 
L 251.563318 130.1951 
L 252.748188 110.693379 
L 253.933059 110.693379 
L 255.11793 128.464712 
L 257.487671 128.464712 
L 258.672541 108.254382 
L 259.857412 108.254382 
L 261.042283 128.766361 
L 262.227153 128.766361 
L 263.412024 147.857488 
L 264.596894 147.857488 
L 265.781765 126.405411 
L 266.966636 126.405411 
L 268.151506 105.243213 
L 269.336377 105.243213 
L 270.521248 89.520416 
L 271.706118 89.520416 
L 272.890989 72.321744 
L 274.075859 93.457073 
L 275.26073 93.457073 
L 276.445601 73.363389 
L 277.630471 73.363389 
L 278.815342 95.095725 
L 281.185083 95.095725 
L 282.369954 115.820788 
L 283.554824 115.820788 
L 284.739695 136.408965 
L 285.924565 136.408965 
L 287.109436 134.294558 
L 288.294307 155.635224 
L 289.479177 155.635224 
L 290.664048 159.930478 
L 291.848918 159.930478 
L 293.033789 140.996751 
L 398.487273 140.996751 
L 398.487273 140.996751 
" style="fill:none;stroke:#ff0000;stroke-linecap:square;stroke-width:12;"/>
    <defs>
     <path d="M 0 3 
C 0.795609 3 1.55874 2.683901 2.12132 2.12132 
C 2.683901 1.55874 3 0.795609 3 0 
C 3 -0.795609 2.683901 -1.55874 2.12132 -2.12132 
C 1.55874 -2.683901 0.795609 -3 0 -3 
C -0.795609 -3 -1.55874 -2.683901 -2.12132 -2.12132 
C -2.683901 -1.55874 -3 -0.795609 -3 0 
C -3 0.795609 -2.683901 1.55874 -2.12132 2.12132 
C -1.55874 2.683901 -0.795609 3 0 3 
z
" id="m8e42c3bf7a" style="stroke:#ff0000;"/>
    </defs>
    <g clip-path="url(#pa682a79f39)">
     <use style="fill:#ff0000;stroke:#ff0000;" x="73.832727" xlink:href="#m8e42c3bf7a" y="295.488"/>
     <use style="fill:#ff0000;stroke:#ff0000;" x="75.017598" xlink:href="#m8e42c3bf7a" y="234.755032"/>
     <use style="fill:#ff0000;stroke:#ff0000;" x="76.202468" xlink:href="#m8e42c3bf7a" y="234.755032"/>
     <use style="fill:#ff0000;stroke:#ff0000;" x="77.387339" xlink:href="#m8e42c3bf7a" y="295.488"/>
     <use style="fill:#ff0000;stroke:#ff0000;" x="78.57221" xlink:href="#m8e42c3bf7a" y="295.488"/>
     <use style="fill:#ff0000;stroke:#ff0000;" x="79.75708" xlink:href="#m8e42c3bf7a" y="295.488"/>
     <use style="fill:#ff0000;stroke:#ff0000;" x="80.941951" xlink:href="#m8e42c3bf7a" y="233.733993"/>
     <use style="fill:#ff0000;stroke:#ff0000;" x="82.126821" xlink:href="#m8e42c3bf7a" y="233.733993"/>
     <use style="fill:#ff0000;stroke:#ff0000;" x="83.311692" xlink:href="#m8e42c3bf7a" y="294.5665"/>
     <use style="fill:#ff0000;stroke:#ff0000;" x="84.496563" xlink:href="#m8e42c3bf7a" y="294.5665"/>
     <use style="fill:#ff0000;stroke:#ff0000;" x="85.681433" xlink:href="#m8e42c3bf7a" y="294.5665"/>
     <use style="fill:#ff0000;stroke:#ff0000;" x="86.866304" xlink:href="#m8e42c3bf7a" y="230.142083"/>
     <use style="fill:#ff0000;stroke:#ff0000;" x="88.051175" xlink:href="#m8e42c3bf7a" y="230.142083"/>
     <use style="fill:#ff0000;stroke:#ff0000;" x="89.236045" xlink:href="#m8e42c3bf7a" y="244.971744"/>
     <use style="fill:#ff0000;stroke:#ff0000;" x="90.420916" xlink:href="#m8e42c3bf7a" y="244.971744"/>
     <use style="fill:#ff0000;stroke:#ff0000;" x="91.605786" xlink:href="#m8e42c3bf7a" y="183.785824"/>
     <use style="fill:#ff0000;stroke:#ff0000;" x="92.790657" xlink:href="#m8e42c3bf7a" y="183.785824"/>
     <use style="fill:#ff0000;stroke:#ff0000;" x="93.975528" xlink:href="#m8e42c3bf7a" y="129.021078"/>
     <use style="fill:#ff0000;stroke:#ff0000;" x="95.160398" xlink:href="#m8e42c3bf7a" y="129.021078"/>
     <use style="fill:#ff0000;stroke:#ff0000;" x="96.345269" xlink:href="#m8e42c3bf7a" y="121.974839"/>
     <use style="fill:#ff0000;stroke:#ff0000;" x="97.530139" xlink:href="#m8e42c3bf7a" y="121.974839"/>
     <use style="fill:#ff0000;stroke:#ff0000;" x="98.71501" xlink:href="#m8e42c3bf7a" y="184.887821"/>
     <use style="fill:#ff0000;stroke:#ff0000;" x="99.899881" xlink:href="#m8e42c3bf7a" y="184.887821"/>
     <use style="fill:#ff0000;stroke:#ff0000;" x="101.084751" xlink:href="#m8e42c3bf7a" y="167.809927"/>
     <use style="fill:#ff0000;stroke:#ff0000;" x="102.269622" xlink:href="#m8e42c3bf7a" y="187.998728"/>
     <use style="fill:#ff0000;stroke:#ff0000;" x="103.454492" xlink:href="#m8e42c3bf7a" y="187.998728"/>
     <use style="fill:#ff0000;stroke:#ff0000;" x="104.639363" xlink:href="#m8e42c3bf7a" y="187.998728"/>
     <use style="fill:#ff0000;stroke:#ff0000;" x="105.824234" xlink:href="#m8e42c3bf7a" y="187.998728"/>
     <use style="fill:#ff0000;stroke:#ff0000;" x="107.009104" xlink:href="#m8e42c3bf7a" y="187.998728"/>
     <use style="fill:#ff0000;stroke:#ff0000;" x="108.193975" xlink:href="#m8e42c3bf7a" y="170.219011"/>
     <use style="fill:#ff0000;stroke:#ff0000;" x="109.378845" xlink:href="#m8e42c3bf7a" y="193.430442"/>
     <use style="fill:#ff0000;stroke:#ff0000;" x="110.563716" xlink:href="#m8e42c3bf7a" y="193.430442"/>
     <use style="fill:#ff0000;stroke:#ff0000;" x="111.748587" xlink:href="#m8e42c3bf7a" y="193.430442"/>
     <use style="fill:#ff0000;stroke:#ff0000;" x="112.933457" xlink:href="#m8e42c3bf7a" y="193.430442"/>
     <use style="fill:#ff0000;stroke:#ff0000;" x="114.118328" xlink:href="#m8e42c3bf7a" y="193.430442"/>
     <use style="fill:#ff0000;stroke:#ff0000;" x="115.303198" xlink:href="#m8e42c3bf7a" y="193.430442"/>
     <use style="fill:#ff0000;stroke:#ff0000;" x="116.488069" xlink:href="#m8e42c3bf7a" y="193.430442"/>
     <use style="fill:#ff0000;stroke:#ff0000;" x="117.67294" xlink:href="#m8e42c3bf7a" y="172.765102"/>
     <use style="fill:#ff0000;stroke:#ff0000;" x="118.85781" xlink:href="#m8e42c3bf7a" y="172.765102"/>
     <use style="fill:#ff0000;stroke:#ff0000;" x="120.042681" xlink:href="#m8e42c3bf7a" y="153.520471"/>
     <use style="fill:#ff0000;stroke:#ff0000;" x="121.227551" xlink:href="#m8e42c3bf7a" y="153.520471"/>
     <use style="fill:#ff0000;stroke:#ff0000;" x="122.412422" xlink:href="#m8e42c3bf7a" y="153.520471"/>
     <use style="fill:#ff0000;stroke:#ff0000;" x="123.597293" xlink:href="#m8e42c3bf7a" y="134.397719"/>
     <use style="fill:#ff0000;stroke:#ff0000;" x="124.782163" xlink:href="#m8e42c3bf7a" y="134.397719"/>
     <use style="fill:#ff0000;stroke:#ff0000;" x="125.967034" xlink:href="#m8e42c3bf7a" y="134.819936"/>
     <use style="fill:#ff0000;stroke:#ff0000;" x="127.151904" xlink:href="#m8e42c3bf7a" y="134.819936"/>
     <use style="fill:#ff0000;stroke:#ff0000;" x="128.336775" xlink:href="#m8e42c3bf7a" y="134.819936"/>
     <use style="fill:#ff0000;stroke:#ff0000;" x="129.521646" xlink:href="#m8e42c3bf7a" y="116.360152"/>
     <use style="fill:#ff0000;stroke:#ff0000;" x="130.706516" xlink:href="#m8e42c3bf7a" y="116.360152"/>
     <use style="fill:#ff0000;stroke:#ff0000;" x="131.891387" xlink:href="#m8e42c3bf7a" y="137.713478"/>
     <use style="fill:#ff0000;stroke:#ff0000;" x="133.076257" xlink:href="#m8e42c3bf7a" y="137.713478"/>
     <use style="fill:#ff0000;stroke:#ff0000;" x="134.261128" xlink:href="#m8e42c3bf7a" y="157.889654"/>
     <use style="fill:#ff0000;stroke:#ff0000;" x="135.445999" xlink:href="#m8e42c3bf7a" y="139.239916"/>
     <use style="fill:#ff0000;stroke:#ff0000;" x="136.630869" xlink:href="#m8e42c3bf7a" y="139.239916"/>
     <use style="fill:#ff0000;stroke:#ff0000;" x="137.81574" xlink:href="#m8e42c3bf7a" y="139.239916"/>
     <use style="fill:#ff0000;stroke:#ff0000;" x="139.00061" xlink:href="#m8e42c3bf7a" y="160.217387"/>
     <use style="fill:#ff0000;stroke:#ff0000;" x="140.185481" xlink:href="#m8e42c3bf7a" y="160.217387"/>
     <use style="fill:#ff0000;stroke:#ff0000;" x="141.370352" xlink:href="#m8e42c3bf7a" y="141.53827"/>
     <use style="fill:#ff0000;stroke:#ff0000;" x="142.555222" xlink:href="#m8e42c3bf7a" y="141.53827"/>
     <use style="fill:#ff0000;stroke:#ff0000;" x="143.740093" xlink:href="#m8e42c3bf7a" y="138.941232"/>
     <use style="fill:#ff0000;stroke:#ff0000;" x="144.924964" xlink:href="#m8e42c3bf7a" y="141.720451"/>
     <use style="fill:#ff0000;stroke:#ff0000;" x="146.109834" xlink:href="#m8e42c3bf7a" y="141.720451"/>
     <use style="fill:#ff0000;stroke:#ff0000;" x="147.294705" xlink:href="#m8e42c3bf7a" y="122.363448"/>
     <use style="fill:#ff0000;stroke:#ff0000;" x="148.479575" xlink:href="#m8e42c3bf7a" y="122.363448"/>
     <use style="fill:#ff0000;stroke:#ff0000;" x="149.664446" xlink:href="#m8e42c3bf7a" y="122.363448"/>
     <use style="fill:#ff0000;stroke:#ff0000;" x="150.849317" xlink:href="#m8e42c3bf7a" y="144.830938"/>
     <use style="fill:#ff0000;stroke:#ff0000;" x="152.034187" xlink:href="#m8e42c3bf7a" y="144.830938"/>
     <use style="fill:#ff0000;stroke:#ff0000;" x="153.219058" xlink:href="#m8e42c3bf7a" y="126.676055"/>
     <use style="fill:#ff0000;stroke:#ff0000;" x="154.403928" xlink:href="#m8e42c3bf7a" y="126.676055"/>
     <use style="fill:#ff0000;stroke:#ff0000;" x="155.588799" xlink:href="#m8e42c3bf7a" y="109.034846"/>
     <use style="fill:#ff0000;stroke:#ff0000;" x="156.77367" xlink:href="#m8e42c3bf7a" y="109.034846"/>
     <use style="fill:#ff0000;stroke:#ff0000;" x="157.95854" xlink:href="#m8e42c3bf7a" y="106.093021"/>
     <use style="fill:#ff0000;stroke:#ff0000;" x="159.143411" xlink:href="#m8e42c3bf7a" y="104.760055"/>
     <use style="fill:#ff0000;stroke:#ff0000;" x="160.328281" xlink:href="#m8e42c3bf7a" y="104.760055"/>
     <use style="fill:#ff0000;stroke:#ff0000;" x="161.513152" xlink:href="#m8e42c3bf7a" y="99.446331"/>
     <use style="fill:#ff0000;stroke:#ff0000;" x="162.698023" xlink:href="#m8e42c3bf7a" y="99.446331"/>
     <use style="fill:#ff0000;stroke:#ff0000;" x="163.882893" xlink:href="#m8e42c3bf7a" y="123.775656"/>
     <use style="fill:#ff0000;stroke:#ff0000;" x="165.067764" xlink:href="#m8e42c3bf7a" y="123.775656"/>
     <use style="fill:#ff0000;stroke:#ff0000;" x="166.252634" xlink:href="#m8e42c3bf7a" y="103.73264"/>
     <use style="fill:#ff0000;stroke:#ff0000;" x="167.437505" xlink:href="#m8e42c3bf7a" y="103.73264"/>
     <use style="fill:#ff0000;stroke:#ff0000;" x="168.622376" xlink:href="#m8e42c3bf7a" y="85.43526"/>
     <use style="fill:#ff0000;stroke:#ff0000;" x="169.807246" xlink:href="#m8e42c3bf7a" y="85.43526"/>
     <use style="fill:#ff0000;stroke:#ff0000;" x="170.992117" xlink:href="#m8e42c3bf7a" y="85.43526"/>
     <use style="fill:#ff0000;stroke:#ff0000;" x="172.176987" xlink:href="#m8e42c3bf7a" y="85.43526"/>
     <use style="fill:#ff0000;stroke:#ff0000;" x="173.361858" xlink:href="#m8e42c3bf7a" y="85.43526"/>
     <use style="fill:#ff0000;stroke:#ff0000;" x="174.546729" xlink:href="#m8e42c3bf7a" y="106.353113"/>
     <use style="fill:#ff0000;stroke:#ff0000;" x="175.731599" xlink:href="#m8e42c3bf7a" y="106.353113"/>
     <use style="fill:#ff0000;stroke:#ff0000;" x="176.91647" xlink:href="#m8e42c3bf7a" y="127.590409"/>
     <use style="fill:#ff0000;stroke:#ff0000;" x="178.10134" xlink:href="#m8e42c3bf7a" y="127.590409"/>
     <use style="fill:#ff0000;stroke:#ff0000;" x="179.286211" xlink:href="#m8e42c3bf7a" y="108.923836"/>
     <use style="fill:#ff0000;stroke:#ff0000;" x="180.471082" xlink:href="#m8e42c3bf7a" y="108.923836"/>
     <use style="fill:#ff0000;stroke:#ff0000;" x="181.655952" xlink:href="#m8e42c3bf7a" y="108.923836"/>
     <use style="fill:#ff0000;stroke:#ff0000;" x="182.840823" xlink:href="#m8e42c3bf7a" y="108.923836"/>
     <use style="fill:#ff0000;stroke:#ff0000;" x="184.025693" xlink:href="#m8e42c3bf7a" y="129.196426"/>
     <use style="fill:#ff0000;stroke:#ff0000;" x="185.210564" xlink:href="#m8e42c3bf7a" y="129.196426"/>
     <use style="fill:#ff0000;stroke:#ff0000;" x="186.395435" xlink:href="#m8e42c3bf7a" y="110.030108"/>
     <use style="fill:#ff0000;stroke:#ff0000;" x="187.580305" xlink:href="#m8e42c3bf7a" y="110.030108"/>
     <use style="fill:#ff0000;stroke:#ff0000;" x="188.765176" xlink:href="#m8e42c3bf7a" y="89.986948"/>
     <use style="fill:#ff0000;stroke:#ff0000;" x="189.950046" xlink:href="#m8e42c3bf7a" y="89.986948"/>
     <use style="fill:#ff0000;stroke:#ff0000;" x="191.134917" xlink:href="#m8e42c3bf7a" y="111.038192"/>
     <use style="fill:#ff0000;stroke:#ff0000;" x="192.319788" xlink:href="#m8e42c3bf7a" y="95.076454"/>
     <use style="fill:#ff0000;stroke:#ff0000;" x="193.504658" xlink:href="#m8e42c3bf7a" y="95.076454"/>
     <use style="fill:#ff0000;stroke:#ff0000;" x="194.689529" xlink:href="#m8e42c3bf7a" y="93.443417"/>
     <use style="fill:#ff0000;stroke:#ff0000;" x="195.874399" xlink:href="#m8e42c3bf7a" y="93.443417"/>
     <use style="fill:#ff0000;stroke:#ff0000;" x="197.05927" xlink:href="#m8e42c3bf7a" y="73.966884"/>
     <use style="fill:#ff0000;stroke:#ff0000;" x="198.244141" xlink:href="#m8e42c3bf7a" y="73.966884"/>
     <use style="fill:#ff0000;stroke:#ff0000;" x="199.429011" xlink:href="#m8e42c3bf7a" y="53.568"/>
     <use style="fill:#ff0000;stroke:#ff0000;" x="200.613882" xlink:href="#m8e42c3bf7a" y="53.568"/>
     <use style="fill:#ff0000;stroke:#ff0000;" x="201.798752" xlink:href="#m8e42c3bf7a" y="76.019266"/>
     <use style="fill:#ff0000;stroke:#ff0000;" x="202.983623" xlink:href="#m8e42c3bf7a" y="76.019266"/>
     <use style="fill:#ff0000;stroke:#ff0000;" x="204.168494" xlink:href="#m8e42c3bf7a" y="76.019266"/>
     <use style="fill:#ff0000;stroke:#ff0000;" x="205.353364" xlink:href="#m8e42c3bf7a" y="76.019266"/>
     <use style="fill:#ff0000;stroke:#ff0000;" x="206.538235" xlink:href="#m8e42c3bf7a" y="76.019266"/>
     <use style="fill:#ff0000;stroke:#ff0000;" x="207.723106" xlink:href="#m8e42c3bf7a" y="76.019266"/>
     <use style="fill:#ff0000;stroke:#ff0000;" x="208.907976" xlink:href="#m8e42c3bf7a" y="76.019266"/>
     <use style="fill:#ff0000;stroke:#ff0000;" x="210.092847" xlink:href="#m8e42c3bf7a" y="76.019266"/>
     <use style="fill:#ff0000;stroke:#ff0000;" x="211.277717" xlink:href="#m8e42c3bf7a" y="76.019266"/>
     <use style="fill:#ff0000;stroke:#ff0000;" x="212.462588" xlink:href="#m8e42c3bf7a" y="99.381874"/>
     <use style="fill:#ff0000;stroke:#ff0000;" x="213.647459" xlink:href="#m8e42c3bf7a" y="99.483221"/>
     <use style="fill:#ff0000;stroke:#ff0000;" x="214.832329" xlink:href="#m8e42c3bf7a" y="99.483221"/>
     <use style="fill:#ff0000;stroke:#ff0000;" x="216.0172" xlink:href="#m8e42c3bf7a" y="80.210948"/>
     <use style="fill:#ff0000;stroke:#ff0000;" x="217.20207" xlink:href="#m8e42c3bf7a" y="80.210948"/>
     <use style="fill:#ff0000;stroke:#ff0000;" x="218.386941" xlink:href="#m8e42c3bf7a" y="62.62727"/>
     <use style="fill:#ff0000;stroke:#ff0000;" x="219.571812" xlink:href="#m8e42c3bf7a" y="62.62727"/>
     <use style="fill:#ff0000;stroke:#ff0000;" x="220.756682" xlink:href="#m8e42c3bf7a" y="62.62727"/>
     <use style="fill:#ff0000;stroke:#ff0000;" x="221.941553" xlink:href="#m8e42c3bf7a" y="66.871537"/>
     <use style="fill:#ff0000;stroke:#ff0000;" x="223.126423" xlink:href="#m8e42c3bf7a" y="66.871537"/>
     <use style="fill:#ff0000;stroke:#ff0000;" x="224.311294" xlink:href="#m8e42c3bf7a" y="87.55816"/>
     <use style="fill:#ff0000;stroke:#ff0000;" x="225.496165" xlink:href="#m8e42c3bf7a" y="87.55816"/>
     <use style="fill:#ff0000;stroke:#ff0000;" x="226.681035" xlink:href="#m8e42c3bf7a" y="111.168378"/>
     <use style="fill:#ff0000;stroke:#ff0000;" x="227.865906" xlink:href="#m8e42c3bf7a" y="92.340583"/>
     <use style="fill:#ff0000;stroke:#ff0000;" x="229.050776" xlink:href="#m8e42c3bf7a" y="92.340583"/>
     <use style="fill:#ff0000;stroke:#ff0000;" x="230.235647" xlink:href="#m8e42c3bf7a" y="75.192067"/>
     <use style="fill:#ff0000;stroke:#ff0000;" x="231.420518" xlink:href="#m8e42c3bf7a" y="75.192067"/>
     <use style="fill:#ff0000;stroke:#ff0000;" x="232.605388" xlink:href="#m8e42c3bf7a" y="97.000225"/>
     <use style="fill:#ff0000;stroke:#ff0000;" x="233.790259" xlink:href="#m8e42c3bf7a" y="97.000225"/>
     <use style="fill:#ff0000;stroke:#ff0000;" x="234.975129" xlink:href="#m8e42c3bf7a" y="104.459193"/>
     <use style="fill:#ff0000;stroke:#ff0000;" x="236.16" xlink:href="#m8e42c3bf7a" y="104.459193"/>
     <use style="fill:#ff0000;stroke:#ff0000;" x="237.344871" xlink:href="#m8e42c3bf7a" y="104.459193"/>
     <use style="fill:#ff0000;stroke:#ff0000;" x="238.529741" xlink:href="#m8e42c3bf7a" y="104.459193"/>
     <use style="fill:#ff0000;stroke:#ff0000;" x="239.714612" xlink:href="#m8e42c3bf7a" y="125.900404"/>
     <use style="fill:#ff0000;stroke:#ff0000;" x="240.899482" xlink:href="#m8e42c3bf7a" y="125.900404"/>
     <use style="fill:#ff0000;stroke:#ff0000;" x="242.084353" xlink:href="#m8e42c3bf7a" y="107.0256"/>
     <use style="fill:#ff0000;stroke:#ff0000;" x="243.269224" xlink:href="#m8e42c3bf7a" y="107.0256"/>
     <use style="fill:#ff0000;stroke:#ff0000;" x="244.454094" xlink:href="#m8e42c3bf7a" y="129.491028"/>
     <use style="fill:#ff0000;stroke:#ff0000;" x="245.638965" xlink:href="#m8e42c3bf7a" y="129.491028"/>
     <use style="fill:#ff0000;stroke:#ff0000;" x="246.823835" xlink:href="#m8e42c3bf7a" y="150.748225"/>
     <use style="fill:#ff0000;stroke:#ff0000;" x="248.008706" xlink:href="#m8e42c3bf7a" y="150.748225"/>
     <use style="fill:#ff0000;stroke:#ff0000;" x="249.193577" xlink:href="#m8e42c3bf7a" y="150.748225"/>
     <use style="fill:#ff0000;stroke:#ff0000;" x="250.378447" xlink:href="#m8e42c3bf7a" y="130.1951"/>
     <use style="fill:#ff0000;stroke:#ff0000;" x="251.563318" xlink:href="#m8e42c3bf7a" y="130.1951"/>
     <use style="fill:#ff0000;stroke:#ff0000;" x="252.748188" xlink:href="#m8e42c3bf7a" y="110.693379"/>
     <use style="fill:#ff0000;stroke:#ff0000;" x="253.933059" xlink:href="#m8e42c3bf7a" y="110.693379"/>
     <use style="fill:#ff0000;stroke:#ff0000;" x="255.11793" xlink:href="#m8e42c3bf7a" y="128.464712"/>
     <use style="fill:#ff0000;stroke:#ff0000;" x="256.3028" xlink:href="#m8e42c3bf7a" y="128.464712"/>
     <use style="fill:#ff0000;stroke:#ff0000;" x="257.487671" xlink:href="#m8e42c3bf7a" y="128.464712"/>
     <use style="fill:#ff0000;stroke:#ff0000;" x="258.672541" xlink:href="#m8e42c3bf7a" y="108.254382"/>
     <use style="fill:#ff0000;stroke:#ff0000;" x="259.857412" xlink:href="#m8e42c3bf7a" y="108.254382"/>
     <use style="fill:#ff0000;stroke:#ff0000;" x="261.042283" xlink:href="#m8e42c3bf7a" y="128.766361"/>
     <use style="fill:#ff0000;stroke:#ff0000;" x="262.227153" xlink:href="#m8e42c3bf7a" y="128.766361"/>
     <use style="fill:#ff0000;stroke:#ff0000;" x="263.412024" xlink:href="#m8e42c3bf7a" y="147.857488"/>
     <use style="fill:#ff0000;stroke:#ff0000;" x="264.596894" xlink:href="#m8e42c3bf7a" y="147.857488"/>
     <use style="fill:#ff0000;stroke:#ff0000;" x="265.781765" xlink:href="#m8e42c3bf7a" y="126.405411"/>
     <use style="fill:#ff0000;stroke:#ff0000;" x="266.966636" xlink:href="#m8e42c3bf7a" y="126.405411"/>
     <use style="fill:#ff0000;stroke:#ff0000;" x="268.151506" xlink:href="#m8e42c3bf7a" y="105.243213"/>
     <use style="fill:#ff0000;stroke:#ff0000;" x="269.336377" xlink:href="#m8e42c3bf7a" y="105.243213"/>
     <use style="fill:#ff0000;stroke:#ff0000;" x="270.521248" xlink:href="#m8e42c3bf7a" y="89.520416"/>
     <use style="fill:#ff0000;stroke:#ff0000;" x="271.706118" xlink:href="#m8e42c3bf7a" y="89.520416"/>
     <use style="fill:#ff0000;stroke:#ff0000;" x="272.890989" xlink:href="#m8e42c3bf7a" y="72.321744"/>
     <use style="fill:#ff0000;stroke:#ff0000;" x="274.075859" xlink:href="#m8e42c3bf7a" y="93.457073"/>
     <use style="fill:#ff0000;stroke:#ff0000;" x="275.26073" xlink:href="#m8e42c3bf7a" y="93.457073"/>
     <use style="fill:#ff0000;stroke:#ff0000;" x="276.445601" xlink:href="#m8e42c3bf7a" y="73.363389"/>
     <use style="fill:#ff0000;stroke:#ff0000;" x="277.630471" xlink:href="#m8e42c3bf7a" y="73.363389"/>
     <use style="fill:#ff0000;stroke:#ff0000;" x="278.815342" xlink:href="#m8e42c3bf7a" y="95.095725"/>
     <use style="fill:#ff0000;stroke:#ff0000;" x="280.000212" xlink:href="#m8e42c3bf7a" y="95.095725"/>
     <use style="fill:#ff0000;stroke:#ff0000;" x="281.185083" xlink:href="#m8e42c3bf7a" y="95.095725"/>
     <use style="fill:#ff0000;stroke:#ff0000;" x="282.369954" xlink:href="#m8e42c3bf7a" y="115.820788"/>
     <use style="fill:#ff0000;stroke:#ff0000;" x="283.554824" xlink:href="#m8e42c3bf7a" y="115.820788"/>
     <use style="fill:#ff0000;stroke:#ff0000;" x="284.739695" xlink:href="#m8e42c3bf7a" y="136.408965"/>
     <use style="fill:#ff0000;stroke:#ff0000;" x="285.924565" xlink:href="#m8e42c3bf7a" y="136.408965"/>
     <use style="fill:#ff0000;stroke:#ff0000;" x="287.109436" xlink:href="#m8e42c3bf7a" y="134.294558"/>
     <use style="fill:#ff0000;stroke:#ff0000;" x="288.294307" xlink:href="#m8e42c3bf7a" y="155.635224"/>
     <use style="fill:#ff0000;stroke:#ff0000;" x="289.479177" xlink:href="#m8e42c3bf7a" y="155.635224"/>
     <use style="fill:#ff0000;stroke:#ff0000;" x="290.664048" xlink:href="#m8e42c3bf7a" y="159.930478"/>
     <use style="fill:#ff0000;stroke:#ff0000;" x="291.848918" xlink:href="#m8e42c3bf7a" y="159.930478"/>
     <use style="fill:#ff0000;stroke:#ff0000;" x="293.033789" xlink:href="#m8e42c3bf7a" y="140.996751"/>
     <use style="fill:#ff0000;stroke:#ff0000;" x="294.21866" xlink:href="#m8e42c3bf7a" y="140.996751"/>
     <use style="fill:#ff0000;stroke:#ff0000;" x="295.40353" xlink:href="#m8e42c3bf7a" y="140.996751"/>
     <use style="fill:#ff0000;stroke:#ff0000;" x="296.588401" xlink:href="#m8e42c3bf7a" y="140.996751"/>
     <use style="fill:#ff0000;stroke:#ff0000;" x="297.773271" xlink:href="#m8e42c3bf7a" y="140.996751"/>
     <use style="fill:#ff0000;stroke:#ff0000;" x="298.958142" xlink:href="#m8e42c3bf7a" y="140.996751"/>
     <use style="fill:#ff0000;stroke:#ff0000;" x="300.143013" xlink:href="#m8e42c3bf7a" y="140.996751"/>
     <use style="fill:#ff0000;stroke:#ff0000;" x="301.327883" xlink:href="#m8e42c3bf7a" y="140.996751"/>
     <use style="fill:#ff0000;stroke:#ff0000;" x="302.512754" xlink:href="#m8e42c3bf7a" y="140.996751"/>
     <use style="fill:#ff0000;stroke:#ff0000;" x="303.697624" xlink:href="#m8e42c3bf7a" y="140.996751"/>
     <use style="fill:#ff0000;stroke:#ff0000;" x="304.882495" xlink:href="#m8e42c3bf7a" y="140.996751"/>
     <use style="fill:#ff0000;stroke:#ff0000;" x="306.067366" xlink:href="#m8e42c3bf7a" y="140.996751"/>
     <use style="fill:#ff0000;stroke:#ff0000;" x="307.252236" xlink:href="#m8e42c3bf7a" y="140.996751"/>
     <use style="fill:#ff0000;stroke:#ff0000;" x="308.437107" xlink:href="#m8e42c3bf7a" y="140.996751"/>
     <use style="fill:#ff0000;stroke:#ff0000;" x="309.621977" xlink:href="#m8e42c3bf7a" y="140.996751"/>
     <use style="fill:#ff0000;stroke:#ff0000;" x="310.806848" xlink:href="#m8e42c3bf7a" y="140.996751"/>
     <use style="fill:#ff0000;stroke:#ff0000;" x="311.991719" xlink:href="#m8e42c3bf7a" y="140.996751"/>
     <use style="fill:#ff0000;stroke:#ff0000;" x="313.176589" xlink:href="#m8e42c3bf7a" y="140.996751"/>
     <use style="fill:#ff0000;stroke:#ff0000;" x="314.36146" xlink:href="#m8e42c3bf7a" y="140.996751"/>
     <use style="fill:#ff0000;stroke:#ff0000;" x="315.54633" xlink:href="#m8e42c3bf7a" y="140.996751"/>
     <use style="fill:#ff0000;stroke:#ff0000;" x="316.731201" xlink:href="#m8e42c3bf7a" y="140.996751"/>
     <use style="fill:#ff0000;stroke:#ff0000;" x="317.916072" xlink:href="#m8e42c3bf7a" y="140.996751"/>
     <use style="fill:#ff0000;stroke:#ff0000;" x="319.100942" xlink:href="#m8e42c3bf7a" y="140.996751"/>
     <use style="fill:#ff0000;stroke:#ff0000;" x="320.285813" xlink:href="#m8e42c3bf7a" y="140.996751"/>
     <use style="fill:#ff0000;stroke:#ff0000;" x="321.470683" xlink:href="#m8e42c3bf7a" y="140.996751"/>
     <use style="fill:#ff0000;stroke:#ff0000;" x="322.655554" xlink:href="#m8e42c3bf7a" y="140.996751"/>
     <use style="fill:#ff0000;stroke:#ff0000;" x="323.840425" xlink:href="#m8e42c3bf7a" y="140.996751"/>
     <use style="fill:#ff0000;stroke:#ff0000;" x="325.025295" xlink:href="#m8e42c3bf7a" y="140.996751"/>
     <use style="fill:#ff0000;stroke:#ff0000;" x="326.210166" xlink:href="#m8e42c3bf7a" y="140.996751"/>
     <use style="fill:#ff0000;stroke:#ff0000;" x="327.395036" xlink:href="#m8e42c3bf7a" y="140.996751"/>
     <use style="fill:#ff0000;stroke:#ff0000;" x="328.579907" xlink:href="#m8e42c3bf7a" y="140.996751"/>
     <use style="fill:#ff0000;stroke:#ff0000;" x="329.764778" xlink:href="#m8e42c3bf7a" y="140.996751"/>
     <use style="fill:#ff0000;stroke:#ff0000;" x="330.949648" xlink:href="#m8e42c3bf7a" y="140.996751"/>
     <use style="fill:#ff0000;stroke:#ff0000;" x="332.134519" xlink:href="#m8e42c3bf7a" y="140.996751"/>
     <use style="fill:#ff0000;stroke:#ff0000;" x="333.31939" xlink:href="#m8e42c3bf7a" y="140.996751"/>
     <use style="fill:#ff0000;stroke:#ff0000;" x="334.50426" xlink:href="#m8e42c3bf7a" y="140.996751"/>
     <use style="fill:#ff0000;stroke:#ff0000;" x="335.689131" xlink:href="#m8e42c3bf7a" y="140.996751"/>
     <use style="fill:#ff0000;stroke:#ff0000;" x="336.874001" xlink:href="#m8e42c3bf7a" y="140.996751"/>
     <use style="fill:#ff0000;stroke:#ff0000;" x="338.058872" xlink:href="#m8e42c3bf7a" y="140.996751"/>
     <use style="fill:#ff0000;stroke:#ff0000;" x="339.243743" xlink:href="#m8e42c3bf7a" y="140.996751"/>
     <use style="fill:#ff0000;stroke:#ff0000;" x="340.428613" xlink:href="#m8e42c3bf7a" y="140.996751"/>
     <use style="fill:#ff0000;stroke:#ff0000;" x="341.613484" xlink:href="#m8e42c3bf7a" y="140.996751"/>
     <use style="fill:#ff0000;stroke:#ff0000;" x="342.798354" xlink:href="#m8e42c3bf7a" y="140.996751"/>
     <use style="fill:#ff0000;stroke:#ff0000;" x="343.983225" xlink:href="#m8e42c3bf7a" y="140.996751"/>
     <use style="fill:#ff0000;stroke:#ff0000;" x="345.168096" xlink:href="#m8e42c3bf7a" y="140.996751"/>
     <use style="fill:#ff0000;stroke:#ff0000;" x="346.352966" xlink:href="#m8e42c3bf7a" y="140.996751"/>
     <use style="fill:#ff0000;stroke:#ff0000;" x="347.537837" xlink:href="#m8e42c3bf7a" y="140.996751"/>
     <use style="fill:#ff0000;stroke:#ff0000;" x="348.722707" xlink:href="#m8e42c3bf7a" y="140.996751"/>
     <use style="fill:#ff0000;stroke:#ff0000;" x="349.907578" xlink:href="#m8e42c3bf7a" y="140.996751"/>
     <use style="fill:#ff0000;stroke:#ff0000;" x="351.092449" xlink:href="#m8e42c3bf7a" y="140.996751"/>
     <use style="fill:#ff0000;stroke:#ff0000;" x="352.277319" xlink:href="#m8e42c3bf7a" y="140.996751"/>
     <use style="fill:#ff0000;stroke:#ff0000;" x="353.46219" xlink:href="#m8e42c3bf7a" y="140.996751"/>
     <use style="fill:#ff0000;stroke:#ff0000;" x="354.64706" xlink:href="#m8e42c3bf7a" y="140.996751"/>
     <use style="fill:#ff0000;stroke:#ff0000;" x="355.831931" xlink:href="#m8e42c3bf7a" y="140.996751"/>
     <use style="fill:#ff0000;stroke:#ff0000;" x="357.016802" xlink:href="#m8e42c3bf7a" y="140.996751"/>
     <use style="fill:#ff0000;stroke:#ff0000;" x="358.201672" xlink:href="#m8e42c3bf7a" y="140.996751"/>
     <use style="fill:#ff0000;stroke:#ff0000;" x="359.386543" xlink:href="#m8e42c3bf7a" y="140.996751"/>
     <use style="fill:#ff0000;stroke:#ff0000;" x="360.571413" xlink:href="#m8e42c3bf7a" y="140.996751"/>
     <use style="fill:#ff0000;stroke:#ff0000;" x="361.756284" xlink:href="#m8e42c3bf7a" y="140.996751"/>
     <use style="fill:#ff0000;stroke:#ff0000;" x="362.941155" xlink:href="#m8e42c3bf7a" y="140.996751"/>
     <use style="fill:#ff0000;stroke:#ff0000;" x="364.126025" xlink:href="#m8e42c3bf7a" y="140.996751"/>
     <use style="fill:#ff0000;stroke:#ff0000;" x="365.310896" xlink:href="#m8e42c3bf7a" y="140.996751"/>
     <use style="fill:#ff0000;stroke:#ff0000;" x="366.495766" xlink:href="#m8e42c3bf7a" y="140.996751"/>
     <use style="fill:#ff0000;stroke:#ff0000;" x="367.680637" xlink:href="#m8e42c3bf7a" y="140.996751"/>
     <use style="fill:#ff0000;stroke:#ff0000;" x="368.865508" xlink:href="#m8e42c3bf7a" y="140.996751"/>
     <use style="fill:#ff0000;stroke:#ff0000;" x="370.050378" xlink:href="#m8e42c3bf7a" y="140.996751"/>
     <use style="fill:#ff0000;stroke:#ff0000;" x="371.235249" xlink:href="#m8e42c3bf7a" y="140.996751"/>
     <use style="fill:#ff0000;stroke:#ff0000;" x="372.420119" xlink:href="#m8e42c3bf7a" y="140.996751"/>
     <use style="fill:#ff0000;stroke:#ff0000;" x="373.60499" xlink:href="#m8e42c3bf7a" y="140.996751"/>
     <use style="fill:#ff0000;stroke:#ff0000;" x="374.789861" xlink:href="#m8e42c3bf7a" y="140.996751"/>
     <use style="fill:#ff0000;stroke:#ff0000;" x="375.974731" xlink:href="#m8e42c3bf7a" y="140.996751"/>
     <use style="fill:#ff0000;stroke:#ff0000;" x="377.159602" xlink:href="#m8e42c3bf7a" y="140.996751"/>
     <use style="fill:#ff0000;stroke:#ff0000;" x="378.344472" xlink:href="#m8e42c3bf7a" y="140.996751"/>
     <use style="fill:#ff0000;stroke:#ff0000;" x="379.529343" xlink:href="#m8e42c3bf7a" y="140.996751"/>
     <use style="fill:#ff0000;stroke:#ff0000;" x="380.714214" xlink:href="#m8e42c3bf7a" y="140.996751"/>
     <use style="fill:#ff0000;stroke:#ff0000;" x="381.899084" xlink:href="#m8e42c3bf7a" y="140.996751"/>
     <use style="fill:#ff0000;stroke:#ff0000;" x="383.083955" xlink:href="#m8e42c3bf7a" y="140.996751"/>
     <use style="fill:#ff0000;stroke:#ff0000;" x="384.268825" xlink:href="#m8e42c3bf7a" y="140.996751"/>
     <use style="fill:#ff0000;stroke:#ff0000;" x="385.453696" xlink:href="#m8e42c3bf7a" y="140.996751"/>
     <use style="fill:#ff0000;stroke:#ff0000;" x="386.638567" xlink:href="#m8e42c3bf7a" y="140.996751"/>
     <use style="fill:#ff0000;stroke:#ff0000;" x="387.823437" xlink:href="#m8e42c3bf7a" y="140.996751"/>
     <use style="fill:#ff0000;stroke:#ff0000;" x="389.008308" xlink:href="#m8e42c3bf7a" y="140.996751"/>
     <use style="fill:#ff0000;stroke:#ff0000;" x="390.193179" xlink:href="#m8e42c3bf7a" y="140.996751"/>
     <use style="fill:#ff0000;stroke:#ff0000;" x="391.378049" xlink:href="#m8e42c3bf7a" y="140.996751"/>
     <use style="fill:#ff0000;stroke:#ff0000;" x="392.56292" xlink:href="#m8e42c3bf7a" y="140.996751"/>
     <use style="fill:#ff0000;stroke:#ff0000;" x="393.74779" xlink:href="#m8e42c3bf7a" y="140.996751"/>
     <use style="fill:#ff0000;stroke:#ff0000;" x="394.932661" xlink:href="#m8e42c3bf7a" y="140.996751"/>
     <use style="fill:#ff0000;stroke:#ff0000;" x="396.117532" xlink:href="#m8e42c3bf7a" y="140.996751"/>
     <use style="fill:#ff0000;stroke:#ff0000;" x="397.302402" xlink:href="#m8e42c3bf7a" y="140.996751"/>
     <use style="fill:#ff0000;stroke:#ff0000;" x="398.487273" xlink:href="#m8e42c3bf7a" y="140.996751"/>
    </g>
   </g>
   <g id="patch_3">
    <path d="M 57.6 307.584 
L 57.6 41.472 
" style="fill:none;stroke:#000000;stroke-linecap:square;stroke-linejoin:miter;stroke-width:0.8;"/>
   </g>
   <g id="patch_4">
    <path d="M 414.72 307.584 
L 414.72 41.472 
" style="fill:none;stroke:#000000;stroke-linecap:square;stroke-linejoin:miter;stroke-width:0.8;"/>
   </g>
   <g id="patch_5">
    <path d="M 57.6 307.584 
L 414.72 307.584 
" style="fill:none;stroke:#000000;stroke-linecap:square;stroke-linejoin:miter;stroke-width:0.8;"/>
   </g>
   <g id="patch_6">
    <path d="M 57.6 41.472 
L 414.72 41.472 
" style="fill:none;stroke:#000000;stroke-linecap:square;stroke-linejoin:miter;stroke-width:0.8;"/>
   </g>
  </g>
 </g>
 <defs>
  <clipPath id="pa682a79f39">
   <rect height="266.112" width="357.12" x="57.6" y="41.472"/>
  </clipPath>
 </defs>
</svg>
