<?xml version="1.0" encoding="utf-8" standalone="no"?>
<!DOCTYPE svg PUBLIC "-//W3C//DTD SVG 1.1//EN"
  "http://www.w3.org/Graphics/SVG/1.1/DTD/svg11.dtd">
<!-- Created with matplotlib (https://matplotlib.org/) -->
<svg height="345.6pt" version="1.1" viewBox="0 0 460.8 345.6" width="460.8pt" xmlns="http://www.w3.org/2000/svg" xmlns:xlink="http://www.w3.org/1999/xlink">
 <defs>
  <style type="text/css">
*{stroke-linecap:butt;stroke-linejoin:round;}
  </style>
 </defs>
 <g id="figure_1">
  <g id="patch_1">
   <path d="M 0 345.6 
L 460.8 345.6 
L 460.8 0 
L 0 0 
z
" style="fill:#ffffff;"/>
  </g>
  <g id="axes_1">
   <g id="patch_2">
    <path d="M 57.6 307.584 
L 414.72 307.584 
L 414.72 41.472 
L 57.6 41.472 
z
" style="fill:#ffffff;"/>
   </g>
   <g id="line2d_1">
    <path clip-path="url(#p8732448dc6)" d="M 73.832727 295.488 
L 74.76297 234.755032 
L 75.693212 234.755032 
L 76.623454 295.488 
L 78.483939 295.488 
L 79.414181 233.733993 
L 80.344423 233.733993 
L 81.274665 294.5665 
L 83.13515 294.5665 
L 84.065392 230.142083 
L 84.995634 230.142083 
L 85.925877 244.971744 
L 86.856119 244.971744 
L 87.786361 183.785824 
L 88.716603 183.785824 
L 89.646846 129.021078 
L 90.577088 129.021078 
L 91.50733 121.974839 
L 92.437572 121.974839 
L 93.367815 184.887821 
L 94.298057 184.887821 
L 95.228299 167.809927 
L 96.158541 187.998728 
L 99.87951 187.998728 
L 100.809753 170.219011 
L 101.739995 193.430442 
L 107.321448 193.430442 
L 108.251691 172.765102 
L 109.181933 172.765102 
L 110.112175 153.520471 
L 111.97266 153.520471 
L 112.902902 134.397719 
L 113.833144 134.397719 
L 114.763386 134.819936 
L 116.623871 134.819936 
L 117.554113 116.360152 
L 118.484355 116.360152 
L 119.414598 137.713478 
L 120.34484 137.713478 
L 121.275082 157.889654 
L 122.205324 139.239916 
L 124.065809 139.239916 
L 124.996051 160.217387 
L 125.926293 160.217387 
L 126.856536 141.53827 
L 127.786778 141.53827 
L 128.71702 138.941232 
L 129.647262 141.720451 
L 130.577505 141.720451 
L 131.507747 122.363448 
L 133.368231 122.363448 
L 134.298474 144.830938 
L 135.228716 144.830938 
L 136.158958 126.676055 
L 137.0892 126.676055 
L 138.019443 109.034846 
L 138.949685 109.034846 
L 139.879927 106.093021 
L 140.810169 104.760055 
L 141.740412 104.760055 
L 142.670654 99.446331 
L 143.600896 99.446331 
L 144.531138 123.775656 
L 145.461381 123.775656 
L 146.391623 103.73264 
L 147.321865 103.73264 
L 148.252107 85.43526 
L 151.973076 85.43526 
L 152.903319 106.353113 
L 153.833561 106.353113 
L 154.763803 127.590409 
L 155.694045 127.590409 
L 156.624288 108.923836 
L 159.415014 108.923836 
L 160.345257 129.196426 
L 161.275499 129.196426 
L 162.205741 110.030108 
L 163.135983 110.030108 
L 164.066226 89.986948 
L 164.996468 89.986948 
L 165.92671 111.038192 
L 166.856952 95.076454 
L 167.787195 95.076454 
L 168.717437 93.443417 
L 169.647679 93.443417 
L 170.577921 73.966884 
L 171.508164 73.966884 
L 172.438406 53.568 
L 173.368648 53.568 
L 174.29889 76.019266 
L 181.740828 76.019266 
L 182.671071 99.381874 
L 184.531555 99.483221 
L 185.461797 80.210948 
L 186.39204 80.210948 
L 187.322282 62.62727 
L 189.182766 62.62727 
L 190.113009 66.871537 
L 191.043251 66.871537 
L 191.973493 87.55816 
L 192.903735 87.55816 
L 193.833978 111.168378 
L 194.76422 92.340583 
L 195.694462 92.340583 
L 196.624704 75.192067 
L 197.554947 75.192067 
L 198.485189 97.000225 
L 199.415431 97.000225 
L 200.345673 104.459193 
L 203.1364 104.459193 
L 204.066642 125.900404 
L 204.996885 125.900404 
L 205.927127 107.0256 
L 206.857369 107.0256 
L 207.787611 129.491028 
L 208.717854 129.491028 
L 209.648096 150.748225 
L 211.50858 150.748225 
L 212.438823 130.1951 
L 213.369065 130.1951 
L 214.299307 110.693379 
L 215.229549 110.693379 
L 216.159792 128.464712 
L 218.020276 128.464712 
L 218.950518 108.254382 
L 219.880761 108.254382 
L 220.811003 128.766361 
L 221.741245 128.766361 
L 222.671487 147.857488 
L 223.60173 147.857488 
L 224.531972 126.405411 
L 225.462214 126.405411 
L 226.392456 105.243213 
L 227.322699 105.243213 
L 228.252941 89.520416 
L 229.183183 89.520416 
L 230.113425 72.321744 
L 231.043668 93.457073 
L 231.97391 93.457073 
L 232.904152 73.363389 
L 233.834394 73.363389 
L 234.764637 95.095725 
L 236.625121 95.095725 
L 237.555363 115.820788 
L 238.485606 115.820788 
L 239.415848 136.408965 
L 240.34609 136.408965 
L 241.276332 134.294558 
L 242.206575 155.635224 
L 243.136817 155.635224 
L 244.067059 159.930478 
L 244.997301 159.930478 
L 245.927544 140.996751 
L 398.487273 140.996751 
L 398.487273 140.996751 
" style="fill:none;stroke:#ff0000;stroke-linecap:square;stroke-width:12;"/>
    <defs>
     <path d="M 0 3 
C 0.795609 3 1.55874 2.683901 2.12132 2.12132 
C 2.683901 1.55874 3 0.795609 3 0 
C 3 -0.795609 2.683901 -1.55874 2.12132 -2.12132 
C 1.55874 -2.683901 0.795609 -3 0 -3 
C -0.795609 -3 -1.55874 -2.683901 -2.12132 -2.12132 
C -2.683901 -1.55874 -3 -0.795609 -3 0 
C -3 0.795609 -2.683901 1.55874 -2.12132 2.12132 
C -1.55874 2.683901 -0.795609 3 0 3 
z
" id="mda40372072" style="stroke:#ff0000;"/>
    </defs>
    <g clip-path="url(#p8732448dc6)">
     <use style="fill:#ff0000;stroke:#ff0000;" x="73.832727" xlink:href="#mda40372072" y="295.488"/>
     <use style="fill:#ff0000;stroke:#ff0000;" x="74.76297" xlink:href="#mda40372072" y="234.755032"/>
     <use style="fill:#ff0000;stroke:#ff0000;" x="75.693212" xlink:href="#mda40372072" y="234.755032"/>
     <use style="fill:#ff0000;stroke:#ff0000;" x="76.623454" xlink:href="#mda40372072" y="295.488"/>
     <use style="fill:#ff0000;stroke:#ff0000;" x="77.553696" xlink:href="#mda40372072" y="295.488"/>
     <use style="fill:#ff0000;stroke:#ff0000;" x="78.483939" xlink:href="#mda40372072" y="295.488"/>
     <use style="fill:#ff0000;stroke:#ff0000;" x="79.414181" xlink:href="#mda40372072" y="233.733993"/>
     <use style="fill:#ff0000;stroke:#ff0000;" x="80.344423" xlink:href="#mda40372072" y="233.733993"/>
     <use style="fill:#ff0000;stroke:#ff0000;" x="81.274665" xlink:href="#mda40372072" y="294.5665"/>
     <use style="fill:#ff0000;stroke:#ff0000;" x="82.204908" xlink:href="#mda40372072" y="294.5665"/>
     <use style="fill:#ff0000;stroke:#ff0000;" x="83.13515" xlink:href="#mda40372072" y="294.5665"/>
     <use style="fill:#ff0000;stroke:#ff0000;" x="84.065392" xlink:href="#mda40372072" y="230.142083"/>
     <use style="fill:#ff0000;stroke:#ff0000;" x="84.995634" xlink:href="#mda40372072" y="230.142083"/>
     <use style="fill:#ff0000;stroke:#ff0000;" x="85.925877" xlink:href="#mda40372072" y="244.971744"/>
     <use style="fill:#ff0000;stroke:#ff0000;" x="86.856119" xlink:href="#mda40372072" y="244.971744"/>
     <use style="fill:#ff0000;stroke:#ff0000;" x="87.786361" xlink:href="#mda40372072" y="183.785824"/>
     <use style="fill:#ff0000;stroke:#ff0000;" x="88.716603" xlink:href="#mda40372072" y="183.785824"/>
     <use style="fill:#ff0000;stroke:#ff0000;" x="89.646846" xlink:href="#mda40372072" y="129.021078"/>
     <use style="fill:#ff0000;stroke:#ff0000;" x="90.577088" xlink:href="#mda40372072" y="129.021078"/>
     <use style="fill:#ff0000;stroke:#ff0000;" x="91.50733" xlink:href="#mda40372072" y="121.974839"/>
     <use style="fill:#ff0000;stroke:#ff0000;" x="92.437572" xlink:href="#mda40372072" y="121.974839"/>
     <use style="fill:#ff0000;stroke:#ff0000;" x="93.367815" xlink:href="#mda40372072" y="184.887821"/>
     <use style="fill:#ff0000;stroke:#ff0000;" x="94.298057" xlink:href="#mda40372072" y="184.887821"/>
     <use style="fill:#ff0000;stroke:#ff0000;" x="95.228299" xlink:href="#mda40372072" y="167.809927"/>
     <use style="fill:#ff0000;stroke:#ff0000;" x="96.158541" xlink:href="#mda40372072" y="187.998728"/>
     <use style="fill:#ff0000;stroke:#ff0000;" x="97.088784" xlink:href="#mda40372072" y="187.998728"/>
     <use style="fill:#ff0000;stroke:#ff0000;" x="98.019026" xlink:href="#mda40372072" y="187.998728"/>
     <use style="fill:#ff0000;stroke:#ff0000;" x="98.949268" xlink:href="#mda40372072" y="187.998728"/>
     <use style="fill:#ff0000;stroke:#ff0000;" x="99.87951" xlink:href="#mda40372072" y="187.998728"/>
     <use style="fill:#ff0000;stroke:#ff0000;" x="100.809753" xlink:href="#mda40372072" y="170.219011"/>
     <use style="fill:#ff0000;stroke:#ff0000;" x="101.739995" xlink:href="#mda40372072" y="193.430442"/>
     <use style="fill:#ff0000;stroke:#ff0000;" x="102.670237" xlink:href="#mda40372072" y="193.430442"/>
     <use style="fill:#ff0000;stroke:#ff0000;" x="103.600479" xlink:href="#mda40372072" y="193.430442"/>
     <use style="fill:#ff0000;stroke:#ff0000;" x="104.530722" xlink:href="#mda40372072" y="193.430442"/>
     <use style="fill:#ff0000;stroke:#ff0000;" x="105.460964" xlink:href="#mda40372072" y="193.430442"/>
     <use style="fill:#ff0000;stroke:#ff0000;" x="106.391206" xlink:href="#mda40372072" y="193.430442"/>
     <use style="fill:#ff0000;stroke:#ff0000;" x="107.321448" xlink:href="#mda40372072" y="193.430442"/>
     <use style="fill:#ff0000;stroke:#ff0000;" x="108.251691" xlink:href="#mda40372072" y="172.765102"/>
     <use style="fill:#ff0000;stroke:#ff0000;" x="109.181933" xlink:href="#mda40372072" y="172.765102"/>
     <use style="fill:#ff0000;stroke:#ff0000;" x="110.112175" xlink:href="#mda40372072" y="153.520471"/>
     <use style="fill:#ff0000;stroke:#ff0000;" x="111.042417" xlink:href="#mda40372072" y="153.520471"/>
     <use style="fill:#ff0000;stroke:#ff0000;" x="111.97266" xlink:href="#mda40372072" y="153.520471"/>
     <use style="fill:#ff0000;stroke:#ff0000;" x="112.902902" xlink:href="#mda40372072" y="134.397719"/>
     <use style="fill:#ff0000;stroke:#ff0000;" x="113.833144" xlink:href="#mda40372072" y="134.397719"/>
     <use style="fill:#ff0000;stroke:#ff0000;" x="114.763386" xlink:href="#mda40372072" y="134.819936"/>
     <use style="fill:#ff0000;stroke:#ff0000;" x="115.693629" xlink:href="#mda40372072" y="134.819936"/>
     <use style="fill:#ff0000;stroke:#ff0000;" x="116.623871" xlink:href="#mda40372072" y="134.819936"/>
     <use style="fill:#ff0000;stroke:#ff0000;" x="117.554113" xlink:href="#mda40372072" y="116.360152"/>
     <use style="fill:#ff0000;stroke:#ff0000;" x="118.484355" xlink:href="#mda40372072" y="116.360152"/>
     <use style="fill:#ff0000;stroke:#ff0000;" x="119.414598" xlink:href="#mda40372072" y="137.713478"/>
     <use style="fill:#ff0000;stroke:#ff0000;" x="120.34484" xlink:href="#mda40372072" y="137.713478"/>
     <use style="fill:#ff0000;stroke:#ff0000;" x="121.275082" xlink:href="#mda40372072" y="157.889654"/>
     <use style="fill:#ff0000;stroke:#ff0000;" x="122.205324" xlink:href="#mda40372072" y="139.239916"/>
     <use style="fill:#ff0000;stroke:#ff0000;" x="123.135567" xlink:href="#mda40372072" y="139.239916"/>
     <use style="fill:#ff0000;stroke:#ff0000;" x="124.065809" xlink:href="#mda40372072" y="139.239916"/>
     <use style="fill:#ff0000;stroke:#ff0000;" x="124.996051" xlink:href="#mda40372072" y="160.217387"/>
     <use style="fill:#ff0000;stroke:#ff0000;" x="125.926293" xlink:href="#mda40372072" y="160.217387"/>
     <use style="fill:#ff0000;stroke:#ff0000;" x="126.856536" xlink:href="#mda40372072" y="141.53827"/>
     <use style="fill:#ff0000;stroke:#ff0000;" x="127.786778" xlink:href="#mda40372072" y="141.53827"/>
     <use style="fill:#ff0000;stroke:#ff0000;" x="128.71702" xlink:href="#mda40372072" y="138.941232"/>
     <use style="fill:#ff0000;stroke:#ff0000;" x="129.647262" xlink:href="#mda40372072" y="141.720451"/>
     <use style="fill:#ff0000;stroke:#ff0000;" x="130.577505" xlink:href="#mda40372072" y="141.720451"/>
     <use style="fill:#ff0000;stroke:#ff0000;" x="131.507747" xlink:href="#mda40372072" y="122.363448"/>
     <use style="fill:#ff0000;stroke:#ff0000;" x="132.437989" xlink:href="#mda40372072" y="122.363448"/>
     <use style="fill:#ff0000;stroke:#ff0000;" x="133.368231" xlink:href="#mda40372072" y="122.363448"/>
     <use style="fill:#ff0000;stroke:#ff0000;" x="134.298474" xlink:href="#mda40372072" y="144.830938"/>
     <use style="fill:#ff0000;stroke:#ff0000;" x="135.228716" xlink:href="#mda40372072" y="144.830938"/>
     <use style="fill:#ff0000;stroke:#ff0000;" x="136.158958" xlink:href="#mda40372072" y="126.676055"/>
     <use style="fill:#ff0000;stroke:#ff0000;" x="137.0892" xlink:href="#mda40372072" y="126.676055"/>
     <use style="fill:#ff0000;stroke:#ff0000;" x="138.019443" xlink:href="#mda40372072" y="109.034846"/>
     <use style="fill:#ff0000;stroke:#ff0000;" x="138.949685" xlink:href="#mda40372072" y="109.034846"/>
     <use style="fill:#ff0000;stroke:#ff0000;" x="139.879927" xlink:href="#mda40372072" y="106.093021"/>
     <use style="fill:#ff0000;stroke:#ff0000;" x="140.810169" xlink:href="#mda40372072" y="104.760055"/>
     <use style="fill:#ff0000;stroke:#ff0000;" x="141.740412" xlink:href="#mda40372072" y="104.760055"/>
     <use style="fill:#ff0000;stroke:#ff0000;" x="142.670654" xlink:href="#mda40372072" y="99.446331"/>
     <use style="fill:#ff0000;stroke:#ff0000;" x="143.600896" xlink:href="#mda40372072" y="99.446331"/>
     <use style="fill:#ff0000;stroke:#ff0000;" x="144.531138" xlink:href="#mda40372072" y="123.775656"/>
     <use style="fill:#ff0000;stroke:#ff0000;" x="145.461381" xlink:href="#mda40372072" y="123.775656"/>
     <use style="fill:#ff0000;stroke:#ff0000;" x="146.391623" xlink:href="#mda40372072" y="103.73264"/>
     <use style="fill:#ff0000;stroke:#ff0000;" x="147.321865" xlink:href="#mda40372072" y="103.73264"/>
     <use style="fill:#ff0000;stroke:#ff0000;" x="148.252107" xlink:href="#mda40372072" y="85.43526"/>
     <use style="fill:#ff0000;stroke:#ff0000;" x="149.18235" xlink:href="#mda40372072" y="85.43526"/>
     <use style="fill:#ff0000;stroke:#ff0000;" x="150.112592" xlink:href="#mda40372072" y="85.43526"/>
     <use style="fill:#ff0000;stroke:#ff0000;" x="151.042834" xlink:href="#mda40372072" y="85.43526"/>
     <use style="fill:#ff0000;stroke:#ff0000;" x="151.973076" xlink:href="#mda40372072" y="85.43526"/>
     <use style="fill:#ff0000;stroke:#ff0000;" x="152.903319" xlink:href="#mda40372072" y="106.353113"/>
     <use style="fill:#ff0000;stroke:#ff0000;" x="153.833561" xlink:href="#mda40372072" y="106.353113"/>
     <use style="fill:#ff0000;stroke:#ff0000;" x="154.763803" xlink:href="#mda40372072" y="127.590409"/>
     <use style="fill:#ff0000;stroke:#ff0000;" x="155.694045" xlink:href="#mda40372072" y="127.590409"/>
     <use style="fill:#ff0000;stroke:#ff0000;" x="156.624288" xlink:href="#mda40372072" y="108.923836"/>
     <use style="fill:#ff0000;stroke:#ff0000;" x="157.55453" xlink:href="#mda40372072" y="108.923836"/>
     <use style="fill:#ff0000;stroke:#ff0000;" x="158.484772" xlink:href="#mda40372072" y="108.923836"/>
     <use style="fill:#ff0000;stroke:#ff0000;" x="159.415014" xlink:href="#mda40372072" y="108.923836"/>
     <use style="fill:#ff0000;stroke:#ff0000;" x="160.345257" xlink:href="#mda40372072" y="129.196426"/>
     <use style="fill:#ff0000;stroke:#ff0000;" x="161.275499" xlink:href="#mda40372072" y="129.196426"/>
     <use style="fill:#ff0000;stroke:#ff0000;" x="162.205741" xlink:href="#mda40372072" y="110.030108"/>
     <use style="fill:#ff0000;stroke:#ff0000;" x="163.135983" xlink:href="#mda40372072" y="110.030108"/>
     <use style="fill:#ff0000;stroke:#ff0000;" x="164.066226" xlink:href="#mda40372072" y="89.986948"/>
     <use style="fill:#ff0000;stroke:#ff0000;" x="164.996468" xlink:href="#mda40372072" y="89.986948"/>
     <use style="fill:#ff0000;stroke:#ff0000;" x="165.92671" xlink:href="#mda40372072" y="111.038192"/>
     <use style="fill:#ff0000;stroke:#ff0000;" x="166.856952" xlink:href="#mda40372072" y="95.076454"/>
     <use style="fill:#ff0000;stroke:#ff0000;" x="167.787195" xlink:href="#mda40372072" y="95.076454"/>
     <use style="fill:#ff0000;stroke:#ff0000;" x="168.717437" xlink:href="#mda40372072" y="93.443417"/>
     <use style="fill:#ff0000;stroke:#ff0000;" x="169.647679" xlink:href="#mda40372072" y="93.443417"/>
     <use style="fill:#ff0000;stroke:#ff0000;" x="170.577921" xlink:href="#mda40372072" y="73.966884"/>
     <use style="fill:#ff0000;stroke:#ff0000;" x="171.508164" xlink:href="#mda40372072" y="73.966884"/>
     <use style="fill:#ff0000;stroke:#ff0000;" x="172.438406" xlink:href="#mda40372072" y="53.568"/>
     <use style="fill:#ff0000;stroke:#ff0000;" x="173.368648" xlink:href="#mda40372072" y="53.568"/>
     <use style="fill:#ff0000;stroke:#ff0000;" x="174.29889" xlink:href="#mda40372072" y="76.019266"/>
     <use style="fill:#ff0000;stroke:#ff0000;" x="175.229133" xlink:href="#mda40372072" y="76.019266"/>
     <use style="fill:#ff0000;stroke:#ff0000;" x="176.159375" xlink:href="#mda40372072" y="76.019266"/>
     <use style="fill:#ff0000;stroke:#ff0000;" x="177.089617" xlink:href="#mda40372072" y="76.019266"/>
     <use style="fill:#ff0000;stroke:#ff0000;" x="178.019859" xlink:href="#mda40372072" y="76.019266"/>
     <use style="fill:#ff0000;stroke:#ff0000;" x="178.950102" xlink:href="#mda40372072" y="76.019266"/>
     <use style="fill:#ff0000;stroke:#ff0000;" x="179.880344" xlink:href="#mda40372072" y="76.019266"/>
     <use style="fill:#ff0000;stroke:#ff0000;" x="180.810586" xlink:href="#mda40372072" y="76.019266"/>
     <use style="fill:#ff0000;stroke:#ff0000;" x="181.740828" xlink:href="#mda40372072" y="76.019266"/>
     <use style="fill:#ff0000;stroke:#ff0000;" x="182.671071" xlink:href="#mda40372072" y="99.381874"/>
     <use style="fill:#ff0000;stroke:#ff0000;" x="183.601313" xlink:href="#mda40372072" y="99.483221"/>
     <use style="fill:#ff0000;stroke:#ff0000;" x="184.531555" xlink:href="#mda40372072" y="99.483221"/>
     <use style="fill:#ff0000;stroke:#ff0000;" x="185.461797" xlink:href="#mda40372072" y="80.210948"/>
     <use style="fill:#ff0000;stroke:#ff0000;" x="186.39204" xlink:href="#mda40372072" y="80.210948"/>
     <use style="fill:#ff0000;stroke:#ff0000;" x="187.322282" xlink:href="#mda40372072" y="62.62727"/>
     <use style="fill:#ff0000;stroke:#ff0000;" x="188.252524" xlink:href="#mda40372072" y="62.62727"/>
     <use style="fill:#ff0000;stroke:#ff0000;" x="189.182766" xlink:href="#mda40372072" y="62.62727"/>
     <use style="fill:#ff0000;stroke:#ff0000;" x="190.113009" xlink:href="#mda40372072" y="66.871537"/>
     <use style="fill:#ff0000;stroke:#ff0000;" x="191.043251" xlink:href="#mda40372072" y="66.871537"/>
     <use style="fill:#ff0000;stroke:#ff0000;" x="191.973493" xlink:href="#mda40372072" y="87.55816"/>
     <use style="fill:#ff0000;stroke:#ff0000;" x="192.903735" xlink:href="#mda40372072" y="87.55816"/>
     <use style="fill:#ff0000;stroke:#ff0000;" x="193.833978" xlink:href="#mda40372072" y="111.168378"/>
     <use style="fill:#ff0000;stroke:#ff0000;" x="194.76422" xlink:href="#mda40372072" y="92.340583"/>
     <use style="fill:#ff0000;stroke:#ff0000;" x="195.694462" xlink:href="#mda40372072" y="92.340583"/>
     <use style="fill:#ff0000;stroke:#ff0000;" x="196.624704" xlink:href="#mda40372072" y="75.192067"/>
     <use style="fill:#ff0000;stroke:#ff0000;" x="197.554947" xlink:href="#mda40372072" y="75.192067"/>
     <use style="fill:#ff0000;stroke:#ff0000;" x="198.485189" xlink:href="#mda40372072" y="97.000225"/>
     <use style="fill:#ff0000;stroke:#ff0000;" x="199.415431" xlink:href="#mda40372072" y="97.000225"/>
     <use style="fill:#ff0000;stroke:#ff0000;" x="200.345673" xlink:href="#mda40372072" y="104.459193"/>
     <use style="fill:#ff0000;stroke:#ff0000;" x="201.275916" xlink:href="#mda40372072" y="104.459193"/>
     <use style="fill:#ff0000;stroke:#ff0000;" x="202.206158" xlink:href="#mda40372072" y="104.459193"/>
     <use style="fill:#ff0000;stroke:#ff0000;" x="203.1364" xlink:href="#mda40372072" y="104.459193"/>
     <use style="fill:#ff0000;stroke:#ff0000;" x="204.066642" xlink:href="#mda40372072" y="125.900404"/>
     <use style="fill:#ff0000;stroke:#ff0000;" x="204.996885" xlink:href="#mda40372072" y="125.900404"/>
     <use style="fill:#ff0000;stroke:#ff0000;" x="205.927127" xlink:href="#mda40372072" y="107.0256"/>
     <use style="fill:#ff0000;stroke:#ff0000;" x="206.857369" xlink:href="#mda40372072" y="107.0256"/>
     <use style="fill:#ff0000;stroke:#ff0000;" x="207.787611" xlink:href="#mda40372072" y="129.491028"/>
     <use style="fill:#ff0000;stroke:#ff0000;" x="208.717854" xlink:href="#mda40372072" y="129.491028"/>
     <use style="fill:#ff0000;stroke:#ff0000;" x="209.648096" xlink:href="#mda40372072" y="150.748225"/>
     <use style="fill:#ff0000;stroke:#ff0000;" x="210.578338" xlink:href="#mda40372072" y="150.748225"/>
     <use style="fill:#ff0000;stroke:#ff0000;" x="211.50858" xlink:href="#mda40372072" y="150.748225"/>
     <use style="fill:#ff0000;stroke:#ff0000;" x="212.438823" xlink:href="#mda40372072" y="130.1951"/>
     <use style="fill:#ff0000;stroke:#ff0000;" x="213.369065" xlink:href="#mda40372072" y="130.1951"/>
     <use style="fill:#ff0000;stroke:#ff0000;" x="214.299307" xlink:href="#mda40372072" y="110.693379"/>
     <use style="fill:#ff0000;stroke:#ff0000;" x="215.229549" xlink:href="#mda40372072" y="110.693379"/>
     <use style="fill:#ff0000;stroke:#ff0000;" x="216.159792" xlink:href="#mda40372072" y="128.464712"/>
     <use style="fill:#ff0000;stroke:#ff0000;" x="217.090034" xlink:href="#mda40372072" y="128.464712"/>
     <use style="fill:#ff0000;stroke:#ff0000;" x="218.020276" xlink:href="#mda40372072" y="128.464712"/>
     <use style="fill:#ff0000;stroke:#ff0000;" x="218.950518" xlink:href="#mda40372072" y="108.254382"/>
     <use style="fill:#ff0000;stroke:#ff0000;" x="219.880761" xlink:href="#mda40372072" y="108.254382"/>
     <use style="fill:#ff0000;stroke:#ff0000;" x="220.811003" xlink:href="#mda40372072" y="128.766361"/>
     <use style="fill:#ff0000;stroke:#ff0000;" x="221.741245" xlink:href="#mda40372072" y="128.766361"/>
     <use style="fill:#ff0000;stroke:#ff0000;" x="222.671487" xlink:href="#mda40372072" y="147.857488"/>
     <use style="fill:#ff0000;stroke:#ff0000;" x="223.60173" xlink:href="#mda40372072" y="147.857488"/>
     <use style="fill:#ff0000;stroke:#ff0000;" x="224.531972" xlink:href="#mda40372072" y="126.405411"/>
     <use style="fill:#ff0000;stroke:#ff0000;" x="225.462214" xlink:href="#mda40372072" y="126.405411"/>
     <use style="fill:#ff0000;stroke:#ff0000;" x="226.392456" xlink:href="#mda40372072" y="105.243213"/>
     <use style="fill:#ff0000;stroke:#ff0000;" x="227.322699" xlink:href="#mda40372072" y="105.243213"/>
     <use style="fill:#ff0000;stroke:#ff0000;" x="228.252941" xlink:href="#mda40372072" y="89.520416"/>
     <use style="fill:#ff0000;stroke:#ff0000;" x="229.183183" xlink:href="#mda40372072" y="89.520416"/>
     <use style="fill:#ff0000;stroke:#ff0000;" x="230.113425" xlink:href="#mda40372072" y="72.321744"/>
     <use style="fill:#ff0000;stroke:#ff0000;" x="231.043668" xlink:href="#mda40372072" y="93.457073"/>
     <use style="fill:#ff0000;stroke:#ff0000;" x="231.97391" xlink:href="#mda40372072" y="93.457073"/>
     <use style="fill:#ff0000;stroke:#ff0000;" x="232.904152" xlink:href="#mda40372072" y="73.363389"/>
     <use style="fill:#ff0000;stroke:#ff0000;" x="233.834394" xlink:href="#mda40372072" y="73.363389"/>
     <use style="fill:#ff0000;stroke:#ff0000;" x="234.764637" xlink:href="#mda40372072" y="95.095725"/>
     <use style="fill:#ff0000;stroke:#ff0000;" x="235.694879" xlink:href="#mda40372072" y="95.095725"/>
     <use style="fill:#ff0000;stroke:#ff0000;" x="236.625121" xlink:href="#mda40372072" y="95.095725"/>
     <use style="fill:#ff0000;stroke:#ff0000;" x="237.555363" xlink:href="#mda40372072" y="115.820788"/>
     <use style="fill:#ff0000;stroke:#ff0000;" x="238.485606" xlink:href="#mda40372072" y="115.820788"/>
     <use style="fill:#ff0000;stroke:#ff0000;" x="239.415848" xlink:href="#mda40372072" y="136.408965"/>
     <use style="fill:#ff0000;stroke:#ff0000;" x="240.34609" xlink:href="#mda40372072" y="136.408965"/>
     <use style="fill:#ff0000;stroke:#ff0000;" x="241.276332" xlink:href="#mda40372072" y="134.294558"/>
     <use style="fill:#ff0000;stroke:#ff0000;" x="242.206575" xlink:href="#mda40372072" y="155.635224"/>
     <use style="fill:#ff0000;stroke:#ff0000;" x="243.136817" xlink:href="#mda40372072" y="155.635224"/>
     <use style="fill:#ff0000;stroke:#ff0000;" x="244.067059" xlink:href="#mda40372072" y="159.930478"/>
     <use style="fill:#ff0000;stroke:#ff0000;" x="244.997301" xlink:href="#mda40372072" y="159.930478"/>
     <use style="fill:#ff0000;stroke:#ff0000;" x="245.927544" xlink:href="#mda40372072" y="140.996751"/>
     <use style="fill:#ff0000;stroke:#ff0000;" x="246.857786" xlink:href="#mda40372072" y="140.996751"/>
     <use style="fill:#ff0000;stroke:#ff0000;" x="247.788028" xlink:href="#mda40372072" y="140.996751"/>
     <use style="fill:#ff0000;stroke:#ff0000;" x="248.71827" xlink:href="#mda40372072" y="140.996751"/>
     <use style="fill:#ff0000;stroke:#ff0000;" x="249.648513" xlink:href="#mda40372072" y="140.996751"/>
     <use style="fill:#ff0000;stroke:#ff0000;" x="250.578755" xlink:href="#mda40372072" y="140.996751"/>
     <use style="fill:#ff0000;stroke:#ff0000;" x="251.508997" xlink:href="#mda40372072" y="140.996751"/>
     <use style="fill:#ff0000;stroke:#ff0000;" x="252.439239" xlink:href="#mda40372072" y="140.996751"/>
     <use style="fill:#ff0000;stroke:#ff0000;" x="253.369482" xlink:href="#mda40372072" y="140.996751"/>
     <use style="fill:#ff0000;stroke:#ff0000;" x="254.299724" xlink:href="#mda40372072" y="140.996751"/>
     <use style="fill:#ff0000;stroke:#ff0000;" x="255.229966" xlink:href="#mda40372072" y="140.996751"/>
     <use style="fill:#ff0000;stroke:#ff0000;" x="256.160208" xlink:href="#mda40372072" y="140.996751"/>
     <use style="fill:#ff0000;stroke:#ff0000;" x="257.090451" xlink:href="#mda40372072" y="140.996751"/>
     <use style="fill:#ff0000;stroke:#ff0000;" x="258.020693" xlink:href="#mda40372072" y="140.996751"/>
     <use style="fill:#ff0000;stroke:#ff0000;" x="258.950935" xlink:href="#mda40372072" y="140.996751"/>
     <use style="fill:#ff0000;stroke:#ff0000;" x="259.881177" xlink:href="#mda40372072" y="140.996751"/>
     <use style="fill:#ff0000;stroke:#ff0000;" x="260.81142" xlink:href="#mda40372072" y="140.996751"/>
     <use style="fill:#ff0000;stroke:#ff0000;" x="261.741662" xlink:href="#mda40372072" y="140.996751"/>
     <use style="fill:#ff0000;stroke:#ff0000;" x="262.671904" xlink:href="#mda40372072" y="140.996751"/>
     <use style="fill:#ff0000;stroke:#ff0000;" x="263.602146" xlink:href="#mda40372072" y="140.996751"/>
     <use style="fill:#ff0000;stroke:#ff0000;" x="264.532389" xlink:href="#mda40372072" y="140.996751"/>
     <use style="fill:#ff0000;stroke:#ff0000;" x="265.462631" xlink:href="#mda40372072" y="140.996751"/>
     <use style="fill:#ff0000;stroke:#ff0000;" x="266.392873" xlink:href="#mda40372072" y="140.996751"/>
     <use style="fill:#ff0000;stroke:#ff0000;" x="267.323115" xlink:href="#mda40372072" y="140.996751"/>
     <use style="fill:#ff0000;stroke:#ff0000;" x="268.253358" xlink:href="#mda40372072" y="140.996751"/>
     <use style="fill:#ff0000;stroke:#ff0000;" x="269.1836" xlink:href="#mda40372072" y="140.996751"/>
     <use style="fill:#ff0000;stroke:#ff0000;" x="270.113842" xlink:href="#mda40372072" y="140.996751"/>
     <use style="fill:#ff0000;stroke:#ff0000;" x="271.044084" xlink:href="#mda40372072" y="140.996751"/>
     <use style="fill:#ff0000;stroke:#ff0000;" x="271.974327" xlink:href="#mda40372072" y="140.996751"/>
     <use style="fill:#ff0000;stroke:#ff0000;" x="272.904569" xlink:href="#mda40372072" y="140.996751"/>
     <use style="fill:#ff0000;stroke:#ff0000;" x="273.834811" xlink:href="#mda40372072" y="140.996751"/>
     <use style="fill:#ff0000;stroke:#ff0000;" x="274.765053" xlink:href="#mda40372072" y="140.996751"/>
     <use style="fill:#ff0000;stroke:#ff0000;" x="275.695296" xlink:href="#mda40372072" y="140.996751"/>
     <use style="fill:#ff0000;stroke:#ff0000;" x="276.625538" xlink:href="#mda40372072" y="140.996751"/>
     <use style="fill:#ff0000;stroke:#ff0000;" x="277.55578" xlink:href="#mda40372072" y="140.996751"/>
     <use style="fill:#ff0000;stroke:#ff0000;" x="278.486022" xlink:href="#mda40372072" y="140.996751"/>
     <use style="fill:#ff0000;stroke:#ff0000;" x="279.416265" xlink:href="#mda40372072" y="140.996751"/>
     <use style="fill:#ff0000;stroke:#ff0000;" x="280.346507" xlink:href="#mda40372072" y="140.996751"/>
     <use style="fill:#ff0000;stroke:#ff0000;" x="281.276749" xlink:href="#mda40372072" y="140.996751"/>
     <use style="fill:#ff0000;stroke:#ff0000;" x="282.206991" xlink:href="#mda40372072" y="140.996751"/>
     <use style="fill:#ff0000;stroke:#ff0000;" x="283.137234" xlink:href="#mda40372072" y="140.996751"/>
     <use style="fill:#ff0000;stroke:#ff0000;" x="284.067476" xlink:href="#mda40372072" y="140.996751"/>
     <use style="fill:#ff0000;stroke:#ff0000;" x="284.997718" xlink:href="#mda40372072" y="140.996751"/>
     <use style="fill:#ff0000;stroke:#ff0000;" x="285.92796" xlink:href="#mda40372072" y="140.996751"/>
     <use style="fill:#ff0000;stroke:#ff0000;" x="286.858203" xlink:href="#mda40372072" y="140.996751"/>
     <use style="fill:#ff0000;stroke:#ff0000;" x="287.788445" xlink:href="#mda40372072" y="140.996751"/>
     <use style="fill:#ff0000;stroke:#ff0000;" x="288.718687" xlink:href="#mda40372072" y="140.996751"/>
     <use style="fill:#ff0000;stroke:#ff0000;" x="289.648929" xlink:href="#mda40372072" y="140.996751"/>
     <use style="fill:#ff0000;stroke:#ff0000;" x="290.579172" xlink:href="#mda40372072" y="140.996751"/>
     <use style="fill:#ff0000;stroke:#ff0000;" x="291.509414" xlink:href="#mda40372072" y="140.996751"/>
     <use style="fill:#ff0000;stroke:#ff0000;" x="292.439656" xlink:href="#mda40372072" y="140.996751"/>
     <use style="fill:#ff0000;stroke:#ff0000;" x="293.369898" xlink:href="#mda40372072" y="140.996751"/>
     <use style="fill:#ff0000;stroke:#ff0000;" x="294.300141" xlink:href="#mda40372072" y="140.996751"/>
     <use style="fill:#ff0000;stroke:#ff0000;" x="295.230383" xlink:href="#mda40372072" y="140.996751"/>
     <use style="fill:#ff0000;stroke:#ff0000;" x="296.160625" xlink:href="#mda40372072" y="140.996751"/>
     <use style="fill:#ff0000;stroke:#ff0000;" x="297.090867" xlink:href="#mda40372072" y="140.996751"/>
     <use style="fill:#ff0000;stroke:#ff0000;" x="298.02111" xlink:href="#mda40372072" y="140.996751"/>
     <use style="fill:#ff0000;stroke:#ff0000;" x="298.951352" xlink:href="#mda40372072" y="140.996751"/>
     <use style="fill:#ff0000;stroke:#ff0000;" x="299.881594" xlink:href="#mda40372072" y="140.996751"/>
     <use style="fill:#ff0000;stroke:#ff0000;" x="300.811836" xlink:href="#mda40372072" y="140.996751"/>
     <use style="fill:#ff0000;stroke:#ff0000;" x="301.742079" xlink:href="#mda40372072" y="140.996751"/>
     <use style="fill:#ff0000;stroke:#ff0000;" x="302.672321" xlink:href="#mda40372072" y="140.996751"/>
     <use style="fill:#ff0000;stroke:#ff0000;" x="303.602563" xlink:href="#mda40372072" y="140.996751"/>
     <use style="fill:#ff0000;stroke:#ff0000;" x="304.532805" xlink:href="#mda40372072" y="140.996751"/>
     <use style="fill:#ff0000;stroke:#ff0000;" x="305.463048" xlink:href="#mda40372072" y="140.996751"/>
     <use style="fill:#ff0000;stroke:#ff0000;" x="306.39329" xlink:href="#mda40372072" y="140.996751"/>
     <use style="fill:#ff0000;stroke:#ff0000;" x="307.323532" xlink:href="#mda40372072" y="140.996751"/>
     <use style="fill:#ff0000;stroke:#ff0000;" x="308.253774" xlink:href="#mda40372072" y="140.996751"/>
     <use style="fill:#ff0000;stroke:#ff0000;" x="309.184017" xlink:href="#mda40372072" y="140.996751"/>
     <use style="fill:#ff0000;stroke:#ff0000;" x="310.114259" xlink:href="#mda40372072" y="140.996751"/>
     <use style="fill:#ff0000;stroke:#ff0000;" x="311.044501" xlink:href="#mda40372072" y="140.996751"/>
     <use style="fill:#ff0000;stroke:#ff0000;" x="311.974743" xlink:href="#mda40372072" y="140.996751"/>
     <use style="fill:#ff0000;stroke:#ff0000;" x="312.904986" xlink:href="#mda40372072" y="140.996751"/>
     <use style="fill:#ff0000;stroke:#ff0000;" x="313.835228" xlink:href="#mda40372072" y="140.996751"/>
     <use style="fill:#ff0000;stroke:#ff0000;" x="314.76547" xlink:href="#mda40372072" y="140.996751"/>
     <use style="fill:#ff0000;stroke:#ff0000;" x="315.695712" xlink:href="#mda40372072" y="140.996751"/>
     <use style="fill:#ff0000;stroke:#ff0000;" x="316.625955" xlink:href="#mda40372072" y="140.996751"/>
     <use style="fill:#ff0000;stroke:#ff0000;" x="317.556197" xlink:href="#mda40372072" y="140.996751"/>
     <use style="fill:#ff0000;stroke:#ff0000;" x="318.486439" xlink:href="#mda40372072" y="140.996751"/>
     <use style="fill:#ff0000;stroke:#ff0000;" x="319.416681" xlink:href="#mda40372072" y="140.996751"/>
     <use style="fill:#ff0000;stroke:#ff0000;" x="320.346924" xlink:href="#mda40372072" y="140.996751"/>
     <use style="fill:#ff0000;stroke:#ff0000;" x="321.277166" xlink:href="#mda40372072" y="140.996751"/>
     <use style="fill:#ff0000;stroke:#ff0000;" x="322.207408" xlink:href="#mda40372072" y="140.996751"/>
     <use style="fill:#ff0000;stroke:#ff0000;" x="323.13765" xlink:href="#mda40372072" y="140.996751"/>
     <use style="fill:#ff0000;stroke:#ff0000;" x="324.067893" xlink:href="#mda40372072" y="140.996751"/>
     <use style="fill:#ff0000;stroke:#ff0000;" x="324.998135" xlink:href="#mda40372072" y="140.996751"/>
     <use style="fill:#ff0000;stroke:#ff0000;" x="325.928377" xlink:href="#mda40372072" y="140.996751"/>
     <use style="fill:#ff0000;stroke:#ff0000;" x="326.858619" xlink:href="#mda40372072" y="140.996751"/>
     <use style="fill:#ff0000;stroke:#ff0000;" x="327.788862" xlink:href="#mda40372072" y="140.996751"/>
     <use style="fill:#ff0000;stroke:#ff0000;" x="328.719104" xlink:href="#mda40372072" y="140.996751"/>
     <use style="fill:#ff0000;stroke:#ff0000;" x="329.649346" xlink:href="#mda40372072" y="140.996751"/>
     <use style="fill:#ff0000;stroke:#ff0000;" x="330.579588" xlink:href="#mda40372072" y="140.996751"/>
     <use style="fill:#ff0000;stroke:#ff0000;" x="331.509831" xlink:href="#mda40372072" y="140.996751"/>
     <use style="fill:#ff0000;stroke:#ff0000;" x="332.440073" xlink:href="#mda40372072" y="140.996751"/>
     <use style="fill:#ff0000;stroke:#ff0000;" x="333.370315" xlink:href="#mda40372072" y="140.996751"/>
     <use style="fill:#ff0000;stroke:#ff0000;" x="334.300557" xlink:href="#mda40372072" y="140.996751"/>
     <use style="fill:#ff0000;stroke:#ff0000;" x="335.2308" xlink:href="#mda40372072" y="140.996751"/>
     <use style="fill:#ff0000;stroke:#ff0000;" x="336.161042" xlink:href="#mda40372072" y="140.996751"/>
     <use style="fill:#ff0000;stroke:#ff0000;" x="337.091284" xlink:href="#mda40372072" y="140.996751"/>
     <use style="fill:#ff0000;stroke:#ff0000;" x="338.021526" xlink:href="#mda40372072" y="140.996751"/>
     <use style="fill:#ff0000;stroke:#ff0000;" x="338.951769" xlink:href="#mda40372072" y="140.996751"/>
     <use style="fill:#ff0000;stroke:#ff0000;" x="339.882011" xlink:href="#mda40372072" y="140.996751"/>
     <use style="fill:#ff0000;stroke:#ff0000;" x="340.812253" xlink:href="#mda40372072" y="140.996751"/>
     <use style="fill:#ff0000;stroke:#ff0000;" x="341.742495" xlink:href="#mda40372072" y="140.996751"/>
     <use style="fill:#ff0000;stroke:#ff0000;" x="342.672738" xlink:href="#mda40372072" y="140.996751"/>
     <use style="fill:#ff0000;stroke:#ff0000;" x="343.60298" xlink:href="#mda40372072" y="140.996751"/>
     <use style="fill:#ff0000;stroke:#ff0000;" x="344.533222" xlink:href="#mda40372072" y="140.996751"/>
     <use style="fill:#ff0000;stroke:#ff0000;" x="345.463464" xlink:href="#mda40372072" y="140.996751"/>
     <use style="fill:#ff0000;stroke:#ff0000;" x="346.393707" xlink:href="#mda40372072" y="140.996751"/>
     <use style="fill:#ff0000;stroke:#ff0000;" x="347.323949" xlink:href="#mda40372072" y="140.996751"/>
     <use style="fill:#ff0000;stroke:#ff0000;" x="348.254191" xlink:href="#mda40372072" y="140.996751"/>
     <use style="fill:#ff0000;stroke:#ff0000;" x="349.184433" xlink:href="#mda40372072" y="140.996751"/>
     <use style="fill:#ff0000;stroke:#ff0000;" x="350.114676" xlink:href="#mda40372072" y="140.996751"/>
     <use style="fill:#ff0000;stroke:#ff0000;" x="351.044918" xlink:href="#mda40372072" y="140.996751"/>
     <use style="fill:#ff0000;stroke:#ff0000;" x="351.97516" xlink:href="#mda40372072" y="140.996751"/>
     <use style="fill:#ff0000;stroke:#ff0000;" x="352.905402" xlink:href="#mda40372072" y="140.996751"/>
     <use style="fill:#ff0000;stroke:#ff0000;" x="353.835645" xlink:href="#mda40372072" y="140.996751"/>
     <use style="fill:#ff0000;stroke:#ff0000;" x="354.765887" xlink:href="#mda40372072" y="140.996751"/>
     <use style="fill:#ff0000;stroke:#ff0000;" x="355.696129" xlink:href="#mda40372072" y="140.996751"/>
     <use style="fill:#ff0000;stroke:#ff0000;" x="356.626371" xlink:href="#mda40372072" y="140.996751"/>
     <use style="fill:#ff0000;stroke:#ff0000;" x="357.556614" xlink:href="#mda40372072" y="140.996751"/>
     <use style="fill:#ff0000;stroke:#ff0000;" x="358.486856" xlink:href="#mda40372072" y="140.996751"/>
     <use style="fill:#ff0000;stroke:#ff0000;" x="359.417098" xlink:href="#mda40372072" y="140.996751"/>
     <use style="fill:#ff0000;stroke:#ff0000;" x="360.34734" xlink:href="#mda40372072" y="140.996751"/>
     <use style="fill:#ff0000;stroke:#ff0000;" x="361.277583" xlink:href="#mda40372072" y="140.996751"/>
     <use style="fill:#ff0000;stroke:#ff0000;" x="362.207825" xlink:href="#mda40372072" y="140.996751"/>
     <use style="fill:#ff0000;stroke:#ff0000;" x="363.138067" xlink:href="#mda40372072" y="140.996751"/>
     <use style="fill:#ff0000;stroke:#ff0000;" x="364.068309" xlink:href="#mda40372072" y="140.996751"/>
     <use style="fill:#ff0000;stroke:#ff0000;" x="364.998552" xlink:href="#mda40372072" y="140.996751"/>
     <use style="fill:#ff0000;stroke:#ff0000;" x="365.928794" xlink:href="#mda40372072" y="140.996751"/>
     <use style="fill:#ff0000;stroke:#ff0000;" x="366.859036" xlink:href="#mda40372072" y="140.996751"/>
     <use style="fill:#ff0000;stroke:#ff0000;" x="367.789278" xlink:href="#mda40372072" y="140.996751"/>
     <use style="fill:#ff0000;stroke:#ff0000;" x="368.719521" xlink:href="#mda40372072" y="140.996751"/>
     <use style="fill:#ff0000;stroke:#ff0000;" x="369.649763" xlink:href="#mda40372072" y="140.996751"/>
     <use style="fill:#ff0000;stroke:#ff0000;" x="370.580005" xlink:href="#mda40372072" y="140.996751"/>
     <use style="fill:#ff0000;stroke:#ff0000;" x="371.510247" xlink:href="#mda40372072" y="140.996751"/>
     <use style="fill:#ff0000;stroke:#ff0000;" x="372.44049" xlink:href="#mda40372072" y="140.996751"/>
     <use style="fill:#ff0000;stroke:#ff0000;" x="373.370732" xlink:href="#mda40372072" y="140.996751"/>
     <use style="fill:#ff0000;stroke:#ff0000;" x="374.300974" xlink:href="#mda40372072" y="140.996751"/>
     <use style="fill:#ff0000;stroke:#ff0000;" x="375.231216" xlink:href="#mda40372072" y="140.996751"/>
     <use style="fill:#ff0000;stroke:#ff0000;" x="376.161459" xlink:href="#mda40372072" y="140.996751"/>
     <use style="fill:#ff0000;stroke:#ff0000;" x="377.091701" xlink:href="#mda40372072" y="140.996751"/>
     <use style="fill:#ff0000;stroke:#ff0000;" x="378.021943" xlink:href="#mda40372072" y="140.996751"/>
     <use style="fill:#ff0000;stroke:#ff0000;" x="378.952185" xlink:href="#mda40372072" y="140.996751"/>
     <use style="fill:#ff0000;stroke:#ff0000;" x="379.882428" xlink:href="#mda40372072" y="140.996751"/>
     <use style="fill:#ff0000;stroke:#ff0000;" x="380.81267" xlink:href="#mda40372072" y="140.996751"/>
     <use style="fill:#ff0000;stroke:#ff0000;" x="381.742912" xlink:href="#mda40372072" y="140.996751"/>
     <use style="fill:#ff0000;stroke:#ff0000;" x="382.673154" xlink:href="#mda40372072" y="140.996751"/>
     <use style="fill:#ff0000;stroke:#ff0000;" x="383.603397" xlink:href="#mda40372072" y="140.996751"/>
     <use style="fill:#ff0000;stroke:#ff0000;" x="384.533639" xlink:href="#mda40372072" y="140.996751"/>
     <use style="fill:#ff0000;stroke:#ff0000;" x="385.463881" xlink:href="#mda40372072" y="140.996751"/>
     <use style="fill:#ff0000;stroke:#ff0000;" x="386.394123" xlink:href="#mda40372072" y="140.996751"/>
     <use style="fill:#ff0000;stroke:#ff0000;" x="387.324366" xlink:href="#mda40372072" y="140.996751"/>
     <use style="fill:#ff0000;stroke:#ff0000;" x="388.254608" xlink:href="#mda40372072" y="140.996751"/>
     <use style="fill:#ff0000;stroke:#ff0000;" x="389.18485" xlink:href="#mda40372072" y="140.996751"/>
     <use style="fill:#ff0000;stroke:#ff0000;" x="390.115092" xlink:href="#mda40372072" y="140.996751"/>
     <use style="fill:#ff0000;stroke:#ff0000;" x="391.045335" xlink:href="#mda40372072" y="140.996751"/>
     <use style="fill:#ff0000;stroke:#ff0000;" x="391.975577" xlink:href="#mda40372072" y="140.996751"/>
     <use style="fill:#ff0000;stroke:#ff0000;" x="392.905819" xlink:href="#mda40372072" y="140.996751"/>
     <use style="fill:#ff0000;stroke:#ff0000;" x="393.836061" xlink:href="#mda40372072" y="140.996751"/>
     <use style="fill:#ff0000;stroke:#ff0000;" x="394.766304" xlink:href="#mda40372072" y="140.996751"/>
     <use style="fill:#ff0000;stroke:#ff0000;" x="395.696546" xlink:href="#mda40372072" y="140.996751"/>
     <use style="fill:#ff0000;stroke:#ff0000;" x="396.626788" xlink:href="#mda40372072" y="140.996751"/>
     <use style="fill:#ff0000;stroke:#ff0000;" x="397.55703" xlink:href="#mda40372072" y="140.996751"/>
     <use style="fill:#ff0000;stroke:#ff0000;" x="398.487273" xlink:href="#mda40372072" y="140.996751"/>
    </g>
   </g>
   <g id="patch_3">
    <path d="M 57.6 307.584 
L 57.6 41.472 
" style="fill:none;stroke:#000000;stroke-linecap:square;stroke-linejoin:miter;stroke-width:0.8;"/>
   </g>
   <g id="patch_4">
    <path d="M 414.72 307.584 
L 414.72 41.472 
" style="fill:none;stroke:#000000;stroke-linecap:square;stroke-linejoin:miter;stroke-width:0.8;"/>
   </g>
   <g id="patch_5">
    <path d="M 57.6 307.584 
L 414.72 307.584 
" style="fill:none;stroke:#000000;stroke-linecap:square;stroke-linejoin:miter;stroke-width:0.8;"/>
   </g>
   <g id="patch_6">
    <path d="M 57.6 41.472 
L 414.72 41.472 
" style="fill:none;stroke:#000000;stroke-linecap:square;stroke-linejoin:miter;stroke-width:0.8;"/>
   </g>
  </g>
 </g>
 <defs>
  <clipPath id="p8732448dc6">
   <rect height="266.112" width="357.12" x="57.6" y="41.472"/>
  </clipPath>
 </defs>
</svg>
