<?xml version="1.0" encoding="utf-8" standalone="no"?>
<!DOCTYPE svg PUBLIC "-//W3C//DTD SVG 1.1//EN"
  "http://www.w3.org/Graphics/SVG/1.1/DTD/svg11.dtd">
<!-- Created with matplotlib (https://matplotlib.org/) -->
<svg height="345.6pt" version="1.1" viewBox="0 0 460.8 345.6" width="460.8pt" xmlns="http://www.w3.org/2000/svg" xmlns:xlink="http://www.w3.org/1999/xlink">
 <defs>
  <style type="text/css">
*{stroke-linecap:butt;stroke-linejoin:round;}
  </style>
 </defs>
 <g id="figure_1">
  <g id="patch_1">
   <path d="M 0 345.6 
L 460.8 345.6 
L 460.8 0 
L 0 0 
z
" style="fill:#ffffff;"/>
  </g>
  <g id="axes_1">
   <g id="patch_2">
    <path d="M 57.6 307.584 
L 414.72 307.584 
L 414.72 41.472 
L 57.6 41.472 
z
" style="fill:#ffffff;"/>
   </g>
   <g id="line2d_1">
    <path clip-path="url(#p4411c5da92)" d="M 73.832727 54.857751 
L 74.952226 117.972571 
L 76.071724 117.972571 
L 77.191223 178.364198 
L 80.549718 178.364198 
L 81.669216 173.136714 
L 83.908213 173.136714 
L 85.027712 233.757672 
L 87.266708 233.757672 
L 88.386207 295.488 
L 89.505705 295.488 
L 90.625204 227.024412 
L 91.744702 227.024412 
L 92.864201 283.936945 
L 95.103197 283.936945 
L 96.222696 215.720482 
L 97.342194 215.720482 
L 98.461693 149.968874 
L 99.581191 149.968874 
L 100.70069 78.542555 
L 102.939687 78.542555 
L 104.059185 57.812874 
L 106.298182 57.812874 
L 107.41768 53.568 
L 109.656677 53.568 
L 110.776176 75.748782 
L 113.015172 75.748782 
L 114.134671 80.780442 
L 115.254169 80.780442 
L 116.373668 101.17403 
L 117.493166 79.918449 
L 118.612665 79.918449 
L 119.732163 103.185411 
L 120.851661 103.185411 
L 121.97116 79.462155 
L 123.090658 79.462155 
L 124.210157 99.048488 
L 127.568652 99.048488 
L 128.68815 103.961522 
L 129.807649 103.961522 
L 130.927147 123.207788 
L 132.046646 123.207788 
L 133.166144 143.56994 
L 134.285643 143.56994 
L 135.405141 120.498205 
L 136.524639 120.498205 
L 137.644138 96.63009 
L 138.763636 96.63009 
L 139.883135 76.17475 
L 142.122132 76.17475 
L 143.24163 57.416161 
L 144.361129 57.416161 
L 145.480627 78.195542 
L 146.600125 78.195542 
L 147.719624 98.717723 
L 149.958621 98.717723 
L 151.078119 118.391837 
L 152.197618 118.391837 
L 153.317116 138.376802 
L 154.436614 135.403961 
L 155.556113 135.403961 
L 156.675611 156.18917 
L 157.79511 156.18917 
L 158.914608 176.43139 
L 160.034107 176.43139 
L 161.153605 195.868822 
L 162.273103 195.868822 
L 163.392602 172.193669 
L 164.5121 170.484007 
L 167.870596 170.484007 
L 168.990094 193.238891 
L 170.109592 193.238891 
L 171.229091 188.555244 
L 172.348589 208.487216 
L 174.587586 208.487216 
L 175.707085 228.947224 
L 176.826583 228.947224 
L 177.946082 228.116791 
L 179.06558 228.116791 
L 180.185078 207.606637 
L 183.543574 207.606637 
L 184.663072 203.233915 
L 185.782571 203.233915 
L 186.902069 181.673835 
L 188.021567 200.279026 
L 190.260564 200.279026 
L 191.380063 176.222749 
L 192.499561 176.222749 
L 193.61906 178.285439 
L 194.738558 178.285439 
L 195.858056 154.820176 
L 196.977555 154.820176 
L 198.097053 134.633323 
L 199.216552 154.093301 
L 209.292038 154.093301 
L 210.411536 156.071327 
L 211.531034 156.071327 
L 213.770031 194.670252 
L 214.88953 194.670252 
L 216.009028 214.397347 
L 217.128527 214.397347 
L 218.248025 191.935116 
L 220.487022 191.935116 
L 221.60652 169.801043 
L 222.726019 169.801043 
L 223.845517 189.753688 
L 224.965016 189.753688 
L 226.084514 165.769301 
L 227.204013 165.769301 
L 228.323511 184.334565 
L 229.443009 184.969625 
L 230.562508 184.969625 
L 231.682006 181.082854 
L 233.921003 181.082854 
L 235.040502 157.736367 
L 236.16 157.736367 
L 237.279498 158.59909 
L 238.398997 158.59909 
L 239.518495 138.070128 
L 240.637994 138.070128 
L 241.757492 119.782969 
L 243.996489 119.782969 
L 245.115987 142.393792 
L 246.235486 142.393792 
L 247.354984 118.738752 
L 248.474483 118.738752 
L 249.593981 100.351487 
L 250.71348 100.351487 
L 251.832978 122.057184 
L 252.952476 99.881887 
L 254.071975 99.881887 
L 255.191473 80.347341 
L 256.310972 80.347341 
L 257.43047 85.492462 
L 258.549969 85.492462 
L 259.669467 101.996584 
L 261.908464 101.996584 
L 263.027962 124.250048 
L 264.147461 124.250048 
L 265.266959 125.906177 
L 266.386458 145.420098 
L 267.505956 145.420098 
L 268.625455 124.52905 
L 270.864451 124.52905 
L 271.98395 123.369261 
L 273.103448 123.369261 
L 274.222947 101.616848 
L 275.342445 101.616848 
L 276.461944 125.574081 
L 277.581442 125.574081 
L 278.70094 103.53125 
L 279.820439 103.53125 
L 280.939937 123.207528 
L 398.487273 123.207528 
L 398.487273 123.207528 
" style="fill:none;stroke:#ff0000;stroke-linecap:square;stroke-width:12;"/>
    <defs>
     <path d="M 0 3 
C 0.795609 3 1.55874 2.683901 2.12132 2.12132 
C 2.683901 1.55874 3 0.795609 3 0 
C 3 -0.795609 2.683901 -1.55874 2.12132 -2.12132 
C 1.55874 -2.683901 0.795609 -3 0 -3 
C -0.795609 -3 -1.55874 -2.683901 -2.12132 -2.12132 
C -2.683901 -1.55874 -3 -0.795609 -3 0 
C -3 0.795609 -2.683901 1.55874 -2.12132 2.12132 
C -1.55874 2.683901 -0.795609 3 0 3 
z
" id="mc7172b6e17" style="stroke:#ff0000;"/>
    </defs>
    <g clip-path="url(#p4411c5da92)">
     <use style="fill:#ff0000;stroke:#ff0000;" x="73.832727" xlink:href="#mc7172b6e17" y="54.857751"/>
     <use style="fill:#ff0000;stroke:#ff0000;" x="74.952226" xlink:href="#mc7172b6e17" y="117.972571"/>
     <use style="fill:#ff0000;stroke:#ff0000;" x="76.071724" xlink:href="#mc7172b6e17" y="117.972571"/>
     <use style="fill:#ff0000;stroke:#ff0000;" x="77.191223" xlink:href="#mc7172b6e17" y="178.364198"/>
     <use style="fill:#ff0000;stroke:#ff0000;" x="78.310721" xlink:href="#mc7172b6e17" y="178.364198"/>
     <use style="fill:#ff0000;stroke:#ff0000;" x="79.430219" xlink:href="#mc7172b6e17" y="178.364198"/>
     <use style="fill:#ff0000;stroke:#ff0000;" x="80.549718" xlink:href="#mc7172b6e17" y="178.364198"/>
     <use style="fill:#ff0000;stroke:#ff0000;" x="81.669216" xlink:href="#mc7172b6e17" y="173.136714"/>
     <use style="fill:#ff0000;stroke:#ff0000;" x="82.788715" xlink:href="#mc7172b6e17" y="173.136714"/>
     <use style="fill:#ff0000;stroke:#ff0000;" x="83.908213" xlink:href="#mc7172b6e17" y="173.136714"/>
     <use style="fill:#ff0000;stroke:#ff0000;" x="85.027712" xlink:href="#mc7172b6e17" y="233.757672"/>
     <use style="fill:#ff0000;stroke:#ff0000;" x="86.14721" xlink:href="#mc7172b6e17" y="233.757672"/>
     <use style="fill:#ff0000;stroke:#ff0000;" x="87.266708" xlink:href="#mc7172b6e17" y="233.757672"/>
     <use style="fill:#ff0000;stroke:#ff0000;" x="88.386207" xlink:href="#mc7172b6e17" y="295.488"/>
     <use style="fill:#ff0000;stroke:#ff0000;" x="89.505705" xlink:href="#mc7172b6e17" y="295.488"/>
     <use style="fill:#ff0000;stroke:#ff0000;" x="90.625204" xlink:href="#mc7172b6e17" y="227.024412"/>
     <use style="fill:#ff0000;stroke:#ff0000;" x="91.744702" xlink:href="#mc7172b6e17" y="227.024412"/>
     <use style="fill:#ff0000;stroke:#ff0000;" x="92.864201" xlink:href="#mc7172b6e17" y="283.936945"/>
     <use style="fill:#ff0000;stroke:#ff0000;" x="93.983699" xlink:href="#mc7172b6e17" y="283.936945"/>
     <use style="fill:#ff0000;stroke:#ff0000;" x="95.103197" xlink:href="#mc7172b6e17" y="283.936945"/>
     <use style="fill:#ff0000;stroke:#ff0000;" x="96.222696" xlink:href="#mc7172b6e17" y="215.720482"/>
     <use style="fill:#ff0000;stroke:#ff0000;" x="97.342194" xlink:href="#mc7172b6e17" y="215.720482"/>
     <use style="fill:#ff0000;stroke:#ff0000;" x="98.461693" xlink:href="#mc7172b6e17" y="149.968874"/>
     <use style="fill:#ff0000;stroke:#ff0000;" x="99.581191" xlink:href="#mc7172b6e17" y="149.968874"/>
     <use style="fill:#ff0000;stroke:#ff0000;" x="100.70069" xlink:href="#mc7172b6e17" y="78.542555"/>
     <use style="fill:#ff0000;stroke:#ff0000;" x="101.820188" xlink:href="#mc7172b6e17" y="78.542555"/>
     <use style="fill:#ff0000;stroke:#ff0000;" x="102.939687" xlink:href="#mc7172b6e17" y="78.542555"/>
     <use style="fill:#ff0000;stroke:#ff0000;" x="104.059185" xlink:href="#mc7172b6e17" y="57.812874"/>
     <use style="fill:#ff0000;stroke:#ff0000;" x="105.178683" xlink:href="#mc7172b6e17" y="57.812874"/>
     <use style="fill:#ff0000;stroke:#ff0000;" x="106.298182" xlink:href="#mc7172b6e17" y="57.812874"/>
     <use style="fill:#ff0000;stroke:#ff0000;" x="107.41768" xlink:href="#mc7172b6e17" y="53.568"/>
     <use style="fill:#ff0000;stroke:#ff0000;" x="108.537179" xlink:href="#mc7172b6e17" y="53.568"/>
     <use style="fill:#ff0000;stroke:#ff0000;" x="109.656677" xlink:href="#mc7172b6e17" y="53.568"/>
     <use style="fill:#ff0000;stroke:#ff0000;" x="110.776176" xlink:href="#mc7172b6e17" y="75.748782"/>
     <use style="fill:#ff0000;stroke:#ff0000;" x="111.895674" xlink:href="#mc7172b6e17" y="75.748782"/>
     <use style="fill:#ff0000;stroke:#ff0000;" x="113.015172" xlink:href="#mc7172b6e17" y="75.748782"/>
     <use style="fill:#ff0000;stroke:#ff0000;" x="114.134671" xlink:href="#mc7172b6e17" y="80.780442"/>
     <use style="fill:#ff0000;stroke:#ff0000;" x="115.254169" xlink:href="#mc7172b6e17" y="80.780442"/>
     <use style="fill:#ff0000;stroke:#ff0000;" x="116.373668" xlink:href="#mc7172b6e17" y="101.17403"/>
     <use style="fill:#ff0000;stroke:#ff0000;" x="117.493166" xlink:href="#mc7172b6e17" y="79.918449"/>
     <use style="fill:#ff0000;stroke:#ff0000;" x="118.612665" xlink:href="#mc7172b6e17" y="79.918449"/>
     <use style="fill:#ff0000;stroke:#ff0000;" x="119.732163" xlink:href="#mc7172b6e17" y="103.185411"/>
     <use style="fill:#ff0000;stroke:#ff0000;" x="120.851661" xlink:href="#mc7172b6e17" y="103.185411"/>
     <use style="fill:#ff0000;stroke:#ff0000;" x="121.97116" xlink:href="#mc7172b6e17" y="79.462155"/>
     <use style="fill:#ff0000;stroke:#ff0000;" x="123.090658" xlink:href="#mc7172b6e17" y="79.462155"/>
     <use style="fill:#ff0000;stroke:#ff0000;" x="124.210157" xlink:href="#mc7172b6e17" y="99.048488"/>
     <use style="fill:#ff0000;stroke:#ff0000;" x="125.329655" xlink:href="#mc7172b6e17" y="99.048488"/>
     <use style="fill:#ff0000;stroke:#ff0000;" x="126.449154" xlink:href="#mc7172b6e17" y="99.048488"/>
     <use style="fill:#ff0000;stroke:#ff0000;" x="127.568652" xlink:href="#mc7172b6e17" y="99.048488"/>
     <use style="fill:#ff0000;stroke:#ff0000;" x="128.68815" xlink:href="#mc7172b6e17" y="103.961522"/>
     <use style="fill:#ff0000;stroke:#ff0000;" x="129.807649" xlink:href="#mc7172b6e17" y="103.961522"/>
     <use style="fill:#ff0000;stroke:#ff0000;" x="130.927147" xlink:href="#mc7172b6e17" y="123.207788"/>
     <use style="fill:#ff0000;stroke:#ff0000;" x="132.046646" xlink:href="#mc7172b6e17" y="123.207788"/>
     <use style="fill:#ff0000;stroke:#ff0000;" x="133.166144" xlink:href="#mc7172b6e17" y="143.56994"/>
     <use style="fill:#ff0000;stroke:#ff0000;" x="134.285643" xlink:href="#mc7172b6e17" y="143.56994"/>
     <use style="fill:#ff0000;stroke:#ff0000;" x="135.405141" xlink:href="#mc7172b6e17" y="120.498205"/>
     <use style="fill:#ff0000;stroke:#ff0000;" x="136.524639" xlink:href="#mc7172b6e17" y="120.498205"/>
     <use style="fill:#ff0000;stroke:#ff0000;" x="137.644138" xlink:href="#mc7172b6e17" y="96.63009"/>
     <use style="fill:#ff0000;stroke:#ff0000;" x="138.763636" xlink:href="#mc7172b6e17" y="96.63009"/>
     <use style="fill:#ff0000;stroke:#ff0000;" x="139.883135" xlink:href="#mc7172b6e17" y="76.17475"/>
     <use style="fill:#ff0000;stroke:#ff0000;" x="141.002633" xlink:href="#mc7172b6e17" y="76.17475"/>
     <use style="fill:#ff0000;stroke:#ff0000;" x="142.122132" xlink:href="#mc7172b6e17" y="76.17475"/>
     <use style="fill:#ff0000;stroke:#ff0000;" x="143.24163" xlink:href="#mc7172b6e17" y="57.416161"/>
     <use style="fill:#ff0000;stroke:#ff0000;" x="144.361129" xlink:href="#mc7172b6e17" y="57.416161"/>
     <use style="fill:#ff0000;stroke:#ff0000;" x="145.480627" xlink:href="#mc7172b6e17" y="78.195542"/>
     <use style="fill:#ff0000;stroke:#ff0000;" x="146.600125" xlink:href="#mc7172b6e17" y="78.195542"/>
     <use style="fill:#ff0000;stroke:#ff0000;" x="147.719624" xlink:href="#mc7172b6e17" y="98.717723"/>
     <use style="fill:#ff0000;stroke:#ff0000;" x="148.839122" xlink:href="#mc7172b6e17" y="98.717723"/>
     <use style="fill:#ff0000;stroke:#ff0000;" x="149.958621" xlink:href="#mc7172b6e17" y="98.717723"/>
     <use style="fill:#ff0000;stroke:#ff0000;" x="151.078119" xlink:href="#mc7172b6e17" y="118.391837"/>
     <use style="fill:#ff0000;stroke:#ff0000;" x="152.197618" xlink:href="#mc7172b6e17" y="118.391837"/>
     <use style="fill:#ff0000;stroke:#ff0000;" x="153.317116" xlink:href="#mc7172b6e17" y="138.376802"/>
     <use style="fill:#ff0000;stroke:#ff0000;" x="154.436614" xlink:href="#mc7172b6e17" y="135.403961"/>
     <use style="fill:#ff0000;stroke:#ff0000;" x="155.556113" xlink:href="#mc7172b6e17" y="135.403961"/>
     <use style="fill:#ff0000;stroke:#ff0000;" x="156.675611" xlink:href="#mc7172b6e17" y="156.18917"/>
     <use style="fill:#ff0000;stroke:#ff0000;" x="157.79511" xlink:href="#mc7172b6e17" y="156.18917"/>
     <use style="fill:#ff0000;stroke:#ff0000;" x="158.914608" xlink:href="#mc7172b6e17" y="176.43139"/>
     <use style="fill:#ff0000;stroke:#ff0000;" x="160.034107" xlink:href="#mc7172b6e17" y="176.43139"/>
     <use style="fill:#ff0000;stroke:#ff0000;" x="161.153605" xlink:href="#mc7172b6e17" y="195.868822"/>
     <use style="fill:#ff0000;stroke:#ff0000;" x="162.273103" xlink:href="#mc7172b6e17" y="195.868822"/>
     <use style="fill:#ff0000;stroke:#ff0000;" x="163.392602" xlink:href="#mc7172b6e17" y="172.193669"/>
     <use style="fill:#ff0000;stroke:#ff0000;" x="164.5121" xlink:href="#mc7172b6e17" y="170.484007"/>
     <use style="fill:#ff0000;stroke:#ff0000;" x="165.631599" xlink:href="#mc7172b6e17" y="170.484007"/>
     <use style="fill:#ff0000;stroke:#ff0000;" x="166.751097" xlink:href="#mc7172b6e17" y="170.484007"/>
     <use style="fill:#ff0000;stroke:#ff0000;" x="167.870596" xlink:href="#mc7172b6e17" y="170.484007"/>
     <use style="fill:#ff0000;stroke:#ff0000;" x="168.990094" xlink:href="#mc7172b6e17" y="193.238891"/>
     <use style="fill:#ff0000;stroke:#ff0000;" x="170.109592" xlink:href="#mc7172b6e17" y="193.238891"/>
     <use style="fill:#ff0000;stroke:#ff0000;" x="171.229091" xlink:href="#mc7172b6e17" y="188.555244"/>
     <use style="fill:#ff0000;stroke:#ff0000;" x="172.348589" xlink:href="#mc7172b6e17" y="208.487216"/>
     <use style="fill:#ff0000;stroke:#ff0000;" x="173.468088" xlink:href="#mc7172b6e17" y="208.487216"/>
     <use style="fill:#ff0000;stroke:#ff0000;" x="174.587586" xlink:href="#mc7172b6e17" y="208.487216"/>
     <use style="fill:#ff0000;stroke:#ff0000;" x="175.707085" xlink:href="#mc7172b6e17" y="228.947224"/>
     <use style="fill:#ff0000;stroke:#ff0000;" x="176.826583" xlink:href="#mc7172b6e17" y="228.947224"/>
     <use style="fill:#ff0000;stroke:#ff0000;" x="177.946082" xlink:href="#mc7172b6e17" y="228.116791"/>
     <use style="fill:#ff0000;stroke:#ff0000;" x="179.06558" xlink:href="#mc7172b6e17" y="228.116791"/>
     <use style="fill:#ff0000;stroke:#ff0000;" x="180.185078" xlink:href="#mc7172b6e17" y="207.606637"/>
     <use style="fill:#ff0000;stroke:#ff0000;" x="181.304577" xlink:href="#mc7172b6e17" y="207.606637"/>
     <use style="fill:#ff0000;stroke:#ff0000;" x="182.424075" xlink:href="#mc7172b6e17" y="207.606637"/>
     <use style="fill:#ff0000;stroke:#ff0000;" x="183.543574" xlink:href="#mc7172b6e17" y="207.606637"/>
     <use style="fill:#ff0000;stroke:#ff0000;" x="184.663072" xlink:href="#mc7172b6e17" y="203.233915"/>
     <use style="fill:#ff0000;stroke:#ff0000;" x="185.782571" xlink:href="#mc7172b6e17" y="203.233915"/>
     <use style="fill:#ff0000;stroke:#ff0000;" x="186.902069" xlink:href="#mc7172b6e17" y="181.673835"/>
     <use style="fill:#ff0000;stroke:#ff0000;" x="188.021567" xlink:href="#mc7172b6e17" y="200.279026"/>
     <use style="fill:#ff0000;stroke:#ff0000;" x="189.141066" xlink:href="#mc7172b6e17" y="200.279026"/>
     <use style="fill:#ff0000;stroke:#ff0000;" x="190.260564" xlink:href="#mc7172b6e17" y="200.279026"/>
     <use style="fill:#ff0000;stroke:#ff0000;" x="191.380063" xlink:href="#mc7172b6e17" y="176.222749"/>
     <use style="fill:#ff0000;stroke:#ff0000;" x="192.499561" xlink:href="#mc7172b6e17" y="176.222749"/>
     <use style="fill:#ff0000;stroke:#ff0000;" x="193.61906" xlink:href="#mc7172b6e17" y="178.285439"/>
     <use style="fill:#ff0000;stroke:#ff0000;" x="194.738558" xlink:href="#mc7172b6e17" y="178.285439"/>
     <use style="fill:#ff0000;stroke:#ff0000;" x="195.858056" xlink:href="#mc7172b6e17" y="154.820176"/>
     <use style="fill:#ff0000;stroke:#ff0000;" x="196.977555" xlink:href="#mc7172b6e17" y="154.820176"/>
     <use style="fill:#ff0000;stroke:#ff0000;" x="198.097053" xlink:href="#mc7172b6e17" y="134.633323"/>
     <use style="fill:#ff0000;stroke:#ff0000;" x="199.216552" xlink:href="#mc7172b6e17" y="154.093301"/>
     <use style="fill:#ff0000;stroke:#ff0000;" x="200.33605" xlink:href="#mc7172b6e17" y="154.093301"/>
     <use style="fill:#ff0000;stroke:#ff0000;" x="201.455549" xlink:href="#mc7172b6e17" y="154.093301"/>
     <use style="fill:#ff0000;stroke:#ff0000;" x="202.575047" xlink:href="#mc7172b6e17" y="154.093301"/>
     <use style="fill:#ff0000;stroke:#ff0000;" x="203.694545" xlink:href="#mc7172b6e17" y="154.093301"/>
     <use style="fill:#ff0000;stroke:#ff0000;" x="204.814044" xlink:href="#mc7172b6e17" y="154.093301"/>
     <use style="fill:#ff0000;stroke:#ff0000;" x="205.933542" xlink:href="#mc7172b6e17" y="154.093301"/>
     <use style="fill:#ff0000;stroke:#ff0000;" x="207.053041" xlink:href="#mc7172b6e17" y="154.093301"/>
     <use style="fill:#ff0000;stroke:#ff0000;" x="208.172539" xlink:href="#mc7172b6e17" y="154.093301"/>
     <use style="fill:#ff0000;stroke:#ff0000;" x="209.292038" xlink:href="#mc7172b6e17" y="154.093301"/>
     <use style="fill:#ff0000;stroke:#ff0000;" x="210.411536" xlink:href="#mc7172b6e17" y="156.071327"/>
     <use style="fill:#ff0000;stroke:#ff0000;" x="211.531034" xlink:href="#mc7172b6e17" y="156.071327"/>
     <use style="fill:#ff0000;stroke:#ff0000;" x="212.650533" xlink:href="#mc7172b6e17" y="176.22974"/>
     <use style="fill:#ff0000;stroke:#ff0000;" x="213.770031" xlink:href="#mc7172b6e17" y="194.670252"/>
     <use style="fill:#ff0000;stroke:#ff0000;" x="214.88953" xlink:href="#mc7172b6e17" y="194.670252"/>
     <use style="fill:#ff0000;stroke:#ff0000;" x="216.009028" xlink:href="#mc7172b6e17" y="214.397347"/>
     <use style="fill:#ff0000;stroke:#ff0000;" x="217.128527" xlink:href="#mc7172b6e17" y="214.397347"/>
     <use style="fill:#ff0000;stroke:#ff0000;" x="218.248025" xlink:href="#mc7172b6e17" y="191.935116"/>
     <use style="fill:#ff0000;stroke:#ff0000;" x="219.367524" xlink:href="#mc7172b6e17" y="191.935116"/>
     <use style="fill:#ff0000;stroke:#ff0000;" x="220.487022" xlink:href="#mc7172b6e17" y="191.935116"/>
     <use style="fill:#ff0000;stroke:#ff0000;" x="221.60652" xlink:href="#mc7172b6e17" y="169.801043"/>
     <use style="fill:#ff0000;stroke:#ff0000;" x="222.726019" xlink:href="#mc7172b6e17" y="169.801043"/>
     <use style="fill:#ff0000;stroke:#ff0000;" x="223.845517" xlink:href="#mc7172b6e17" y="189.753688"/>
     <use style="fill:#ff0000;stroke:#ff0000;" x="224.965016" xlink:href="#mc7172b6e17" y="189.753688"/>
     <use style="fill:#ff0000;stroke:#ff0000;" x="226.084514" xlink:href="#mc7172b6e17" y="165.769301"/>
     <use style="fill:#ff0000;stroke:#ff0000;" x="227.204013" xlink:href="#mc7172b6e17" y="165.769301"/>
     <use style="fill:#ff0000;stroke:#ff0000;" x="228.323511" xlink:href="#mc7172b6e17" y="184.334565"/>
     <use style="fill:#ff0000;stroke:#ff0000;" x="229.443009" xlink:href="#mc7172b6e17" y="184.969625"/>
     <use style="fill:#ff0000;stroke:#ff0000;" x="230.562508" xlink:href="#mc7172b6e17" y="184.969625"/>
     <use style="fill:#ff0000;stroke:#ff0000;" x="231.682006" xlink:href="#mc7172b6e17" y="181.082854"/>
     <use style="fill:#ff0000;stroke:#ff0000;" x="232.801505" xlink:href="#mc7172b6e17" y="181.082854"/>
     <use style="fill:#ff0000;stroke:#ff0000;" x="233.921003" xlink:href="#mc7172b6e17" y="181.082854"/>
     <use style="fill:#ff0000;stroke:#ff0000;" x="235.040502" xlink:href="#mc7172b6e17" y="157.736367"/>
     <use style="fill:#ff0000;stroke:#ff0000;" x="236.16" xlink:href="#mc7172b6e17" y="157.736367"/>
     <use style="fill:#ff0000;stroke:#ff0000;" x="237.279498" xlink:href="#mc7172b6e17" y="158.59909"/>
     <use style="fill:#ff0000;stroke:#ff0000;" x="238.398997" xlink:href="#mc7172b6e17" y="158.59909"/>
     <use style="fill:#ff0000;stroke:#ff0000;" x="239.518495" xlink:href="#mc7172b6e17" y="138.070128"/>
     <use style="fill:#ff0000;stroke:#ff0000;" x="240.637994" xlink:href="#mc7172b6e17" y="138.070128"/>
     <use style="fill:#ff0000;stroke:#ff0000;" x="241.757492" xlink:href="#mc7172b6e17" y="119.782969"/>
     <use style="fill:#ff0000;stroke:#ff0000;" x="242.876991" xlink:href="#mc7172b6e17" y="119.782969"/>
     <use style="fill:#ff0000;stroke:#ff0000;" x="243.996489" xlink:href="#mc7172b6e17" y="119.782969"/>
     <use style="fill:#ff0000;stroke:#ff0000;" x="245.115987" xlink:href="#mc7172b6e17" y="142.393792"/>
     <use style="fill:#ff0000;stroke:#ff0000;" x="246.235486" xlink:href="#mc7172b6e17" y="142.393792"/>
     <use style="fill:#ff0000;stroke:#ff0000;" x="247.354984" xlink:href="#mc7172b6e17" y="118.738752"/>
     <use style="fill:#ff0000;stroke:#ff0000;" x="248.474483" xlink:href="#mc7172b6e17" y="118.738752"/>
     <use style="fill:#ff0000;stroke:#ff0000;" x="249.593981" xlink:href="#mc7172b6e17" y="100.351487"/>
     <use style="fill:#ff0000;stroke:#ff0000;" x="250.71348" xlink:href="#mc7172b6e17" y="100.351487"/>
     <use style="fill:#ff0000;stroke:#ff0000;" x="251.832978" xlink:href="#mc7172b6e17" y="122.057184"/>
     <use style="fill:#ff0000;stroke:#ff0000;" x="252.952476" xlink:href="#mc7172b6e17" y="99.881887"/>
     <use style="fill:#ff0000;stroke:#ff0000;" x="254.071975" xlink:href="#mc7172b6e17" y="99.881887"/>
     <use style="fill:#ff0000;stroke:#ff0000;" x="255.191473" xlink:href="#mc7172b6e17" y="80.347341"/>
     <use style="fill:#ff0000;stroke:#ff0000;" x="256.310972" xlink:href="#mc7172b6e17" y="80.347341"/>
     <use style="fill:#ff0000;stroke:#ff0000;" x="257.43047" xlink:href="#mc7172b6e17" y="85.492462"/>
     <use style="fill:#ff0000;stroke:#ff0000;" x="258.549969" xlink:href="#mc7172b6e17" y="85.492462"/>
     <use style="fill:#ff0000;stroke:#ff0000;" x="259.669467" xlink:href="#mc7172b6e17" y="101.996584"/>
     <use style="fill:#ff0000;stroke:#ff0000;" x="260.788966" xlink:href="#mc7172b6e17" y="101.996584"/>
     <use style="fill:#ff0000;stroke:#ff0000;" x="261.908464" xlink:href="#mc7172b6e17" y="101.996584"/>
     <use style="fill:#ff0000;stroke:#ff0000;" x="263.027962" xlink:href="#mc7172b6e17" y="124.250048"/>
     <use style="fill:#ff0000;stroke:#ff0000;" x="264.147461" xlink:href="#mc7172b6e17" y="124.250048"/>
     <use style="fill:#ff0000;stroke:#ff0000;" x="265.266959" xlink:href="#mc7172b6e17" y="125.906177"/>
     <use style="fill:#ff0000;stroke:#ff0000;" x="266.386458" xlink:href="#mc7172b6e17" y="145.420098"/>
     <use style="fill:#ff0000;stroke:#ff0000;" x="267.505956" xlink:href="#mc7172b6e17" y="145.420098"/>
     <use style="fill:#ff0000;stroke:#ff0000;" x="268.625455" xlink:href="#mc7172b6e17" y="124.52905"/>
     <use style="fill:#ff0000;stroke:#ff0000;" x="269.744953" xlink:href="#mc7172b6e17" y="124.52905"/>
     <use style="fill:#ff0000;stroke:#ff0000;" x="270.864451" xlink:href="#mc7172b6e17" y="124.52905"/>
     <use style="fill:#ff0000;stroke:#ff0000;" x="271.98395" xlink:href="#mc7172b6e17" y="123.369261"/>
     <use style="fill:#ff0000;stroke:#ff0000;" x="273.103448" xlink:href="#mc7172b6e17" y="123.369261"/>
     <use style="fill:#ff0000;stroke:#ff0000;" x="274.222947" xlink:href="#mc7172b6e17" y="101.616848"/>
     <use style="fill:#ff0000;stroke:#ff0000;" x="275.342445" xlink:href="#mc7172b6e17" y="101.616848"/>
     <use style="fill:#ff0000;stroke:#ff0000;" x="276.461944" xlink:href="#mc7172b6e17" y="125.574081"/>
     <use style="fill:#ff0000;stroke:#ff0000;" x="277.581442" xlink:href="#mc7172b6e17" y="125.574081"/>
     <use style="fill:#ff0000;stroke:#ff0000;" x="278.70094" xlink:href="#mc7172b6e17" y="103.53125"/>
     <use style="fill:#ff0000;stroke:#ff0000;" x="279.820439" xlink:href="#mc7172b6e17" y="103.53125"/>
     <use style="fill:#ff0000;stroke:#ff0000;" x="280.939937" xlink:href="#mc7172b6e17" y="123.207528"/>
     <use style="fill:#ff0000;stroke:#ff0000;" x="282.059436" xlink:href="#mc7172b6e17" y="123.207528"/>
     <use style="fill:#ff0000;stroke:#ff0000;" x="283.178934" xlink:href="#mc7172b6e17" y="123.207528"/>
     <use style="fill:#ff0000;stroke:#ff0000;" x="284.298433" xlink:href="#mc7172b6e17" y="123.207528"/>
     <use style="fill:#ff0000;stroke:#ff0000;" x="285.417931" xlink:href="#mc7172b6e17" y="123.207528"/>
     <use style="fill:#ff0000;stroke:#ff0000;" x="286.537429" xlink:href="#mc7172b6e17" y="123.207528"/>
     <use style="fill:#ff0000;stroke:#ff0000;" x="287.656928" xlink:href="#mc7172b6e17" y="123.207528"/>
     <use style="fill:#ff0000;stroke:#ff0000;" x="288.776426" xlink:href="#mc7172b6e17" y="123.207528"/>
     <use style="fill:#ff0000;stroke:#ff0000;" x="289.895925" xlink:href="#mc7172b6e17" y="123.207528"/>
     <use style="fill:#ff0000;stroke:#ff0000;" x="291.015423" xlink:href="#mc7172b6e17" y="123.207528"/>
     <use style="fill:#ff0000;stroke:#ff0000;" x="292.134922" xlink:href="#mc7172b6e17" y="123.207528"/>
     <use style="fill:#ff0000;stroke:#ff0000;" x="293.25442" xlink:href="#mc7172b6e17" y="123.207528"/>
     <use style="fill:#ff0000;stroke:#ff0000;" x="294.373918" xlink:href="#mc7172b6e17" y="123.207528"/>
     <use style="fill:#ff0000;stroke:#ff0000;" x="295.493417" xlink:href="#mc7172b6e17" y="123.207528"/>
     <use style="fill:#ff0000;stroke:#ff0000;" x="296.612915" xlink:href="#mc7172b6e17" y="123.207528"/>
     <use style="fill:#ff0000;stroke:#ff0000;" x="297.732414" xlink:href="#mc7172b6e17" y="123.207528"/>
     <use style="fill:#ff0000;stroke:#ff0000;" x="298.851912" xlink:href="#mc7172b6e17" y="123.207528"/>
     <use style="fill:#ff0000;stroke:#ff0000;" x="299.971411" xlink:href="#mc7172b6e17" y="123.207528"/>
     <use style="fill:#ff0000;stroke:#ff0000;" x="301.090909" xlink:href="#mc7172b6e17" y="123.207528"/>
     <use style="fill:#ff0000;stroke:#ff0000;" x="302.210408" xlink:href="#mc7172b6e17" y="123.207528"/>
     <use style="fill:#ff0000;stroke:#ff0000;" x="303.329906" xlink:href="#mc7172b6e17" y="123.207528"/>
     <use style="fill:#ff0000;stroke:#ff0000;" x="304.449404" xlink:href="#mc7172b6e17" y="123.207528"/>
     <use style="fill:#ff0000;stroke:#ff0000;" x="305.568903" xlink:href="#mc7172b6e17" y="123.207528"/>
     <use style="fill:#ff0000;stroke:#ff0000;" x="306.688401" xlink:href="#mc7172b6e17" y="123.207528"/>
     <use style="fill:#ff0000;stroke:#ff0000;" x="307.8079" xlink:href="#mc7172b6e17" y="123.207528"/>
     <use style="fill:#ff0000;stroke:#ff0000;" x="308.927398" xlink:href="#mc7172b6e17" y="123.207528"/>
     <use style="fill:#ff0000;stroke:#ff0000;" x="310.046897" xlink:href="#mc7172b6e17" y="123.207528"/>
     <use style="fill:#ff0000;stroke:#ff0000;" x="311.166395" xlink:href="#mc7172b6e17" y="123.207528"/>
     <use style="fill:#ff0000;stroke:#ff0000;" x="312.285893" xlink:href="#mc7172b6e17" y="123.207528"/>
     <use style="fill:#ff0000;stroke:#ff0000;" x="313.405392" xlink:href="#mc7172b6e17" y="123.207528"/>
     <use style="fill:#ff0000;stroke:#ff0000;" x="314.52489" xlink:href="#mc7172b6e17" y="123.207528"/>
     <use style="fill:#ff0000;stroke:#ff0000;" x="315.644389" xlink:href="#mc7172b6e17" y="123.207528"/>
     <use style="fill:#ff0000;stroke:#ff0000;" x="316.763887" xlink:href="#mc7172b6e17" y="123.207528"/>
     <use style="fill:#ff0000;stroke:#ff0000;" x="317.883386" xlink:href="#mc7172b6e17" y="123.207528"/>
     <use style="fill:#ff0000;stroke:#ff0000;" x="319.002884" xlink:href="#mc7172b6e17" y="123.207528"/>
     <use style="fill:#ff0000;stroke:#ff0000;" x="320.122382" xlink:href="#mc7172b6e17" y="123.207528"/>
     <use style="fill:#ff0000;stroke:#ff0000;" x="321.241881" xlink:href="#mc7172b6e17" y="123.207528"/>
     <use style="fill:#ff0000;stroke:#ff0000;" x="322.361379" xlink:href="#mc7172b6e17" y="123.207528"/>
     <use style="fill:#ff0000;stroke:#ff0000;" x="323.480878" xlink:href="#mc7172b6e17" y="123.207528"/>
     <use style="fill:#ff0000;stroke:#ff0000;" x="324.600376" xlink:href="#mc7172b6e17" y="123.207528"/>
     <use style="fill:#ff0000;stroke:#ff0000;" x="325.719875" xlink:href="#mc7172b6e17" y="123.207528"/>
     <use style="fill:#ff0000;stroke:#ff0000;" x="326.839373" xlink:href="#mc7172b6e17" y="123.207528"/>
     <use style="fill:#ff0000;stroke:#ff0000;" x="327.958871" xlink:href="#mc7172b6e17" y="123.207528"/>
     <use style="fill:#ff0000;stroke:#ff0000;" x="329.07837" xlink:href="#mc7172b6e17" y="123.207528"/>
     <use style="fill:#ff0000;stroke:#ff0000;" x="330.197868" xlink:href="#mc7172b6e17" y="123.207528"/>
     <use style="fill:#ff0000;stroke:#ff0000;" x="331.317367" xlink:href="#mc7172b6e17" y="123.207528"/>
     <use style="fill:#ff0000;stroke:#ff0000;" x="332.436865" xlink:href="#mc7172b6e17" y="123.207528"/>
     <use style="fill:#ff0000;stroke:#ff0000;" x="333.556364" xlink:href="#mc7172b6e17" y="123.207528"/>
     <use style="fill:#ff0000;stroke:#ff0000;" x="334.675862" xlink:href="#mc7172b6e17" y="123.207528"/>
     <use style="fill:#ff0000;stroke:#ff0000;" x="335.795361" xlink:href="#mc7172b6e17" y="123.207528"/>
     <use style="fill:#ff0000;stroke:#ff0000;" x="336.914859" xlink:href="#mc7172b6e17" y="123.207528"/>
     <use style="fill:#ff0000;stroke:#ff0000;" x="338.034357" xlink:href="#mc7172b6e17" y="123.207528"/>
     <use style="fill:#ff0000;stroke:#ff0000;" x="339.153856" xlink:href="#mc7172b6e17" y="123.207528"/>
     <use style="fill:#ff0000;stroke:#ff0000;" x="340.273354" xlink:href="#mc7172b6e17" y="123.207528"/>
     <use style="fill:#ff0000;stroke:#ff0000;" x="341.392853" xlink:href="#mc7172b6e17" y="123.207528"/>
     <use style="fill:#ff0000;stroke:#ff0000;" x="342.512351" xlink:href="#mc7172b6e17" y="123.207528"/>
     <use style="fill:#ff0000;stroke:#ff0000;" x="343.63185" xlink:href="#mc7172b6e17" y="123.207528"/>
     <use style="fill:#ff0000;stroke:#ff0000;" x="344.751348" xlink:href="#mc7172b6e17" y="123.207528"/>
     <use style="fill:#ff0000;stroke:#ff0000;" x="345.870846" xlink:href="#mc7172b6e17" y="123.207528"/>
     <use style="fill:#ff0000;stroke:#ff0000;" x="346.990345" xlink:href="#mc7172b6e17" y="123.207528"/>
     <use style="fill:#ff0000;stroke:#ff0000;" x="348.109843" xlink:href="#mc7172b6e17" y="123.207528"/>
     <use style="fill:#ff0000;stroke:#ff0000;" x="349.229342" xlink:href="#mc7172b6e17" y="123.207528"/>
     <use style="fill:#ff0000;stroke:#ff0000;" x="350.34884" xlink:href="#mc7172b6e17" y="123.207528"/>
     <use style="fill:#ff0000;stroke:#ff0000;" x="351.468339" xlink:href="#mc7172b6e17" y="123.207528"/>
     <use style="fill:#ff0000;stroke:#ff0000;" x="352.587837" xlink:href="#mc7172b6e17" y="123.207528"/>
     <use style="fill:#ff0000;stroke:#ff0000;" x="353.707335" xlink:href="#mc7172b6e17" y="123.207528"/>
     <use style="fill:#ff0000;stroke:#ff0000;" x="354.826834" xlink:href="#mc7172b6e17" y="123.207528"/>
     <use style="fill:#ff0000;stroke:#ff0000;" x="355.946332" xlink:href="#mc7172b6e17" y="123.207528"/>
     <use style="fill:#ff0000;stroke:#ff0000;" x="357.065831" xlink:href="#mc7172b6e17" y="123.207528"/>
     <use style="fill:#ff0000;stroke:#ff0000;" x="358.185329" xlink:href="#mc7172b6e17" y="123.207528"/>
     <use style="fill:#ff0000;stroke:#ff0000;" x="359.304828" xlink:href="#mc7172b6e17" y="123.207528"/>
     <use style="fill:#ff0000;stroke:#ff0000;" x="360.424326" xlink:href="#mc7172b6e17" y="123.207528"/>
     <use style="fill:#ff0000;stroke:#ff0000;" x="361.543824" xlink:href="#mc7172b6e17" y="123.207528"/>
     <use style="fill:#ff0000;stroke:#ff0000;" x="362.663323" xlink:href="#mc7172b6e17" y="123.207528"/>
     <use style="fill:#ff0000;stroke:#ff0000;" x="363.782821" xlink:href="#mc7172b6e17" y="123.207528"/>
     <use style="fill:#ff0000;stroke:#ff0000;" x="364.90232" xlink:href="#mc7172b6e17" y="123.207528"/>
     <use style="fill:#ff0000;stroke:#ff0000;" x="366.021818" xlink:href="#mc7172b6e17" y="123.207528"/>
     <use style="fill:#ff0000;stroke:#ff0000;" x="367.141317" xlink:href="#mc7172b6e17" y="123.207528"/>
     <use style="fill:#ff0000;stroke:#ff0000;" x="368.260815" xlink:href="#mc7172b6e17" y="123.207528"/>
     <use style="fill:#ff0000;stroke:#ff0000;" x="369.380313" xlink:href="#mc7172b6e17" y="123.207528"/>
     <use style="fill:#ff0000;stroke:#ff0000;" x="370.499812" xlink:href="#mc7172b6e17" y="123.207528"/>
     <use style="fill:#ff0000;stroke:#ff0000;" x="371.61931" xlink:href="#mc7172b6e17" y="123.207528"/>
     <use style="fill:#ff0000;stroke:#ff0000;" x="372.738809" xlink:href="#mc7172b6e17" y="123.207528"/>
     <use style="fill:#ff0000;stroke:#ff0000;" x="373.858307" xlink:href="#mc7172b6e17" y="123.207528"/>
     <use style="fill:#ff0000;stroke:#ff0000;" x="374.977806" xlink:href="#mc7172b6e17" y="123.207528"/>
     <use style="fill:#ff0000;stroke:#ff0000;" x="376.097304" xlink:href="#mc7172b6e17" y="123.207528"/>
     <use style="fill:#ff0000;stroke:#ff0000;" x="377.216803" xlink:href="#mc7172b6e17" y="123.207528"/>
     <use style="fill:#ff0000;stroke:#ff0000;" x="378.336301" xlink:href="#mc7172b6e17" y="123.207528"/>
     <use style="fill:#ff0000;stroke:#ff0000;" x="379.455799" xlink:href="#mc7172b6e17" y="123.207528"/>
     <use style="fill:#ff0000;stroke:#ff0000;" x="380.575298" xlink:href="#mc7172b6e17" y="123.207528"/>
     <use style="fill:#ff0000;stroke:#ff0000;" x="381.694796" xlink:href="#mc7172b6e17" y="123.207528"/>
     <use style="fill:#ff0000;stroke:#ff0000;" x="382.814295" xlink:href="#mc7172b6e17" y="123.207528"/>
     <use style="fill:#ff0000;stroke:#ff0000;" x="383.933793" xlink:href="#mc7172b6e17" y="123.207528"/>
     <use style="fill:#ff0000;stroke:#ff0000;" x="385.053292" xlink:href="#mc7172b6e17" y="123.207528"/>
     <use style="fill:#ff0000;stroke:#ff0000;" x="386.17279" xlink:href="#mc7172b6e17" y="123.207528"/>
     <use style="fill:#ff0000;stroke:#ff0000;" x="387.292288" xlink:href="#mc7172b6e17" y="123.207528"/>
     <use style="fill:#ff0000;stroke:#ff0000;" x="388.411787" xlink:href="#mc7172b6e17" y="123.207528"/>
     <use style="fill:#ff0000;stroke:#ff0000;" x="389.531285" xlink:href="#mc7172b6e17" y="123.207528"/>
     <use style="fill:#ff0000;stroke:#ff0000;" x="390.650784" xlink:href="#mc7172b6e17" y="123.207528"/>
     <use style="fill:#ff0000;stroke:#ff0000;" x="391.770282" xlink:href="#mc7172b6e17" y="123.207528"/>
     <use style="fill:#ff0000;stroke:#ff0000;" x="392.889781" xlink:href="#mc7172b6e17" y="123.207528"/>
     <use style="fill:#ff0000;stroke:#ff0000;" x="394.009279" xlink:href="#mc7172b6e17" y="123.207528"/>
     <use style="fill:#ff0000;stroke:#ff0000;" x="395.128777" xlink:href="#mc7172b6e17" y="123.207528"/>
     <use style="fill:#ff0000;stroke:#ff0000;" x="396.248276" xlink:href="#mc7172b6e17" y="123.207528"/>
     <use style="fill:#ff0000;stroke:#ff0000;" x="397.367774" xlink:href="#mc7172b6e17" y="123.207528"/>
     <use style="fill:#ff0000;stroke:#ff0000;" x="398.487273" xlink:href="#mc7172b6e17" y="123.207528"/>
    </g>
   </g>
   <g id="patch_3">
    <path d="M 57.6 307.584 
L 57.6 41.472 
" style="fill:none;stroke:#000000;stroke-linecap:square;stroke-linejoin:miter;stroke-width:0.8;"/>
   </g>
   <g id="patch_4">
    <path d="M 414.72 307.584 
L 414.72 41.472 
" style="fill:none;stroke:#000000;stroke-linecap:square;stroke-linejoin:miter;stroke-width:0.8;"/>
   </g>
   <g id="patch_5">
    <path d="M 57.6 307.584 
L 414.72 307.584 
" style="fill:none;stroke:#000000;stroke-linecap:square;stroke-linejoin:miter;stroke-width:0.8;"/>
   </g>
   <g id="patch_6">
    <path d="M 57.6 41.472 
L 414.72 41.472 
" style="fill:none;stroke:#000000;stroke-linecap:square;stroke-linejoin:miter;stroke-width:0.8;"/>
   </g>
  </g>
 </g>
 <defs>
  <clipPath id="p4411c5da92">
   <rect height="266.112" width="357.12" x="57.6" y="41.472"/>
  </clipPath>
 </defs>
</svg>
