<?xml version="1.0" encoding="utf-8" standalone="no"?>
<!DOCTYPE svg PUBLIC "-//W3C//DTD SVG 1.1//EN"
  "http://www.w3.org/Graphics/SVG/1.1/DTD/svg11.dtd">
<!-- Created with matplotlib (https://matplotlib.org/) -->
<svg height="345.6pt" version="1.1" viewBox="0 0 460.8 345.6" width="460.8pt" xmlns="http://www.w3.org/2000/svg" xmlns:xlink="http://www.w3.org/1999/xlink">
 <defs>
  <style type="text/css">
*{stroke-linecap:butt;stroke-linejoin:round;}
  </style>
 </defs>
 <g id="figure_1">
  <g id="patch_1">
   <path d="M 0 345.6 
L 460.8 345.6 
L 460.8 0 
L 0 0 
z
" style="fill:#ffffff;"/>
  </g>
  <g id="axes_1">
   <g id="patch_2">
    <path d="M 57.6 307.584 
L 414.72 307.584 
L 414.72 41.472 
L 57.6 41.472 
z
" style="fill:#ffffff;"/>
   </g>
   <g id="line2d_1">
    <path clip-path="url(#p5fc27f8390)" d="M 73.832727 54.857751 
L 75.115947 117.972571 
L 76.399166 117.972571 
L 77.682386 178.364198 
L 81.532045 178.364198 
L 82.815264 173.136714 
L 85.381703 173.136714 
L 86.664923 233.757672 
L 89.231362 233.757672 
L 90.514581 295.488 
L 91.797801 295.488 
L 93.08102 227.024412 
L 94.36424 227.024412 
L 95.64746 283.936945 
L 98.213899 283.936945 
L 99.497118 215.720482 
L 100.780338 215.720482 
L 102.063557 149.968874 
L 103.346777 149.968874 
L 104.629996 78.542555 
L 107.196436 78.542555 
L 108.479655 57.812874 
L 111.046094 57.812874 
L 112.329314 53.568 
L 114.895753 53.568 
L 116.178972 75.748782 
L 118.745411 75.748782 
L 120.028631 80.780442 
L 121.311851 80.780442 
L 122.59507 101.17403 
L 123.87829 79.918449 
L 125.161509 79.918449 
L 126.444729 103.185411 
L 127.727948 103.185411 
L 129.011168 79.462155 
L 130.294387 79.462155 
L 131.577607 99.048488 
L 135.427266 99.048488 
L 136.710485 103.961522 
L 137.993705 103.961522 
L 139.276924 123.207788 
L 140.560144 123.207788 
L 141.843363 143.56994 
L 143.126583 143.56994 
L 144.409802 120.498205 
L 145.693022 120.498205 
L 146.976241 96.63009 
L 148.259461 96.63009 
L 149.542681 76.17475 
L 152.10912 76.17475 
L 153.392339 57.416161 
L 154.675559 57.416161 
L 155.958778 78.195542 
L 157.241998 78.195542 
L 158.525217 98.717723 
L 161.091656 98.717723 
L 162.374876 118.391837 
L 163.658096 118.391837 
L 164.941315 138.376802 
L 166.224535 135.403961 
L 167.507754 135.403961 
L 168.790974 156.18917 
L 170.074193 156.18917 
L 171.357413 176.43139 
L 172.640632 176.43139 
L 173.923852 195.868822 
L 175.207072 195.868822 
L 176.490291 172.193669 
L 177.773511 170.484007 
L 181.623169 170.484007 
L 182.906389 193.238891 
L 184.189608 193.238891 
L 185.472828 188.555244 
L 186.756047 208.487216 
L 189.322487 208.487216 
L 190.605706 228.947224 
L 191.888926 228.947224 
L 193.172145 228.116791 
L 194.455365 228.116791 
L 195.738584 207.606637 
L 199.588243 207.606637 
L 200.871462 203.233915 
L 202.154682 203.233915 
L 203.437902 181.673835 
L 204.721121 200.279026 
L 207.28756 200.279026 
L 208.57078 176.222749 
L 209.853999 176.222749 
L 211.137219 178.285439 
L 212.420438 178.285439 
L 213.703658 154.820176 
L 214.986877 154.820176 
L 216.270097 134.633323 
L 217.553317 154.093301 
L 229.102292 154.093301 
L 230.385512 156.071327 
L 231.668732 156.071327 
L 234.235171 194.670252 
L 235.51839 194.670252 
L 236.80161 214.397347 
L 238.084829 214.397347 
L 239.368049 191.935116 
L 241.934488 191.935116 
L 243.217708 169.801043 
L 244.500927 169.801043 
L 245.784147 189.753688 
L 247.067366 189.753688 
L 248.350586 165.769301 
L 249.633805 165.769301 
L 250.917025 184.334565 
L 252.200244 184.969625 
L 253.483464 184.969625 
L 254.766683 181.082854 
L 257.333123 181.082854 
L 258.616342 157.736367 
L 259.899562 157.736367 
L 261.182781 158.59909 
L 262.466001 158.59909 
L 263.74922 138.070128 
L 265.03244 138.070128 
L 266.315659 119.782969 
L 268.882098 119.782969 
L 270.165318 142.393792 
L 271.448538 142.393792 
L 272.731757 118.738752 
L 274.014977 118.738752 
L 275.298196 100.351487 
L 276.581416 100.351487 
L 277.864635 122.057184 
L 279.147855 99.881887 
L 280.431074 99.881887 
L 281.714294 80.347341 
L 282.997513 80.347341 
L 284.280733 85.492462 
L 285.563953 85.492462 
L 286.847172 101.996584 
L 289.413611 101.996584 
L 290.696831 124.250048 
L 291.98005 124.250048 
L 293.26327 125.906177 
L 294.546489 145.420098 
L 295.829709 145.420098 
L 297.112928 124.52905 
L 299.679368 124.52905 
L 300.962587 123.369261 
L 302.245807 123.369261 
L 303.529026 101.616848 
L 304.812246 101.616848 
L 306.095465 125.574081 
L 307.378685 125.574081 
L 308.661904 103.53125 
L 309.945124 103.53125 
L 311.228344 123.207528 
L 398.487273 123.207528 
L 398.487273 123.207528 
" style="fill:none;stroke:#ff0000;stroke-linecap:square;stroke-width:12;"/>
    <defs>
     <path d="M 0 3 
C 0.795609 3 1.55874 2.683901 2.12132 2.12132 
C 2.683901 1.55874 3 0.795609 3 0 
C 3 -0.795609 2.683901 -1.55874 2.12132 -2.12132 
C 1.55874 -2.683901 0.795609 -3 0 -3 
C -0.795609 -3 -1.55874 -2.683901 -2.12132 -2.12132 
C -2.683901 -1.55874 -3 -0.795609 -3 0 
C -3 0.795609 -2.683901 1.55874 -2.12132 2.12132 
C -1.55874 2.683901 -0.795609 3 0 3 
z
" id="m8e8bb03b00" style="stroke:#ff0000;"/>
    </defs>
    <g clip-path="url(#p5fc27f8390)">
     <use style="fill:#ff0000;stroke:#ff0000;" x="73.832727" xlink:href="#m8e8bb03b00" y="54.857751"/>
     <use style="fill:#ff0000;stroke:#ff0000;" x="75.115947" xlink:href="#m8e8bb03b00" y="117.972571"/>
     <use style="fill:#ff0000;stroke:#ff0000;" x="76.399166" xlink:href="#m8e8bb03b00" y="117.972571"/>
     <use style="fill:#ff0000;stroke:#ff0000;" x="77.682386" xlink:href="#m8e8bb03b00" y="178.364198"/>
     <use style="fill:#ff0000;stroke:#ff0000;" x="78.965605" xlink:href="#m8e8bb03b00" y="178.364198"/>
     <use style="fill:#ff0000;stroke:#ff0000;" x="80.248825" xlink:href="#m8e8bb03b00" y="178.364198"/>
     <use style="fill:#ff0000;stroke:#ff0000;" x="81.532045" xlink:href="#m8e8bb03b00" y="178.364198"/>
     <use style="fill:#ff0000;stroke:#ff0000;" x="82.815264" xlink:href="#m8e8bb03b00" y="173.136714"/>
     <use style="fill:#ff0000;stroke:#ff0000;" x="84.098484" xlink:href="#m8e8bb03b00" y="173.136714"/>
     <use style="fill:#ff0000;stroke:#ff0000;" x="85.381703" xlink:href="#m8e8bb03b00" y="173.136714"/>
     <use style="fill:#ff0000;stroke:#ff0000;" x="86.664923" xlink:href="#m8e8bb03b00" y="233.757672"/>
     <use style="fill:#ff0000;stroke:#ff0000;" x="87.948142" xlink:href="#m8e8bb03b00" y="233.757672"/>
     <use style="fill:#ff0000;stroke:#ff0000;" x="89.231362" xlink:href="#m8e8bb03b00" y="233.757672"/>
     <use style="fill:#ff0000;stroke:#ff0000;" x="90.514581" xlink:href="#m8e8bb03b00" y="295.488"/>
     <use style="fill:#ff0000;stroke:#ff0000;" x="91.797801" xlink:href="#m8e8bb03b00" y="295.488"/>
     <use style="fill:#ff0000;stroke:#ff0000;" x="93.08102" xlink:href="#m8e8bb03b00" y="227.024412"/>
     <use style="fill:#ff0000;stroke:#ff0000;" x="94.36424" xlink:href="#m8e8bb03b00" y="227.024412"/>
     <use style="fill:#ff0000;stroke:#ff0000;" x="95.64746" xlink:href="#m8e8bb03b00" y="283.936945"/>
     <use style="fill:#ff0000;stroke:#ff0000;" x="96.930679" xlink:href="#m8e8bb03b00" y="283.936945"/>
     <use style="fill:#ff0000;stroke:#ff0000;" x="98.213899" xlink:href="#m8e8bb03b00" y="283.936945"/>
     <use style="fill:#ff0000;stroke:#ff0000;" x="99.497118" xlink:href="#m8e8bb03b00" y="215.720482"/>
     <use style="fill:#ff0000;stroke:#ff0000;" x="100.780338" xlink:href="#m8e8bb03b00" y="215.720482"/>
     <use style="fill:#ff0000;stroke:#ff0000;" x="102.063557" xlink:href="#m8e8bb03b00" y="149.968874"/>
     <use style="fill:#ff0000;stroke:#ff0000;" x="103.346777" xlink:href="#m8e8bb03b00" y="149.968874"/>
     <use style="fill:#ff0000;stroke:#ff0000;" x="104.629996" xlink:href="#m8e8bb03b00" y="78.542555"/>
     <use style="fill:#ff0000;stroke:#ff0000;" x="105.913216" xlink:href="#m8e8bb03b00" y="78.542555"/>
     <use style="fill:#ff0000;stroke:#ff0000;" x="107.196436" xlink:href="#m8e8bb03b00" y="78.542555"/>
     <use style="fill:#ff0000;stroke:#ff0000;" x="108.479655" xlink:href="#m8e8bb03b00" y="57.812874"/>
     <use style="fill:#ff0000;stroke:#ff0000;" x="109.762875" xlink:href="#m8e8bb03b00" y="57.812874"/>
     <use style="fill:#ff0000;stroke:#ff0000;" x="111.046094" xlink:href="#m8e8bb03b00" y="57.812874"/>
     <use style="fill:#ff0000;stroke:#ff0000;" x="112.329314" xlink:href="#m8e8bb03b00" y="53.568"/>
     <use style="fill:#ff0000;stroke:#ff0000;" x="113.612533" xlink:href="#m8e8bb03b00" y="53.568"/>
     <use style="fill:#ff0000;stroke:#ff0000;" x="114.895753" xlink:href="#m8e8bb03b00" y="53.568"/>
     <use style="fill:#ff0000;stroke:#ff0000;" x="116.178972" xlink:href="#m8e8bb03b00" y="75.748782"/>
     <use style="fill:#ff0000;stroke:#ff0000;" x="117.462192" xlink:href="#m8e8bb03b00" y="75.748782"/>
     <use style="fill:#ff0000;stroke:#ff0000;" x="118.745411" xlink:href="#m8e8bb03b00" y="75.748782"/>
     <use style="fill:#ff0000;stroke:#ff0000;" x="120.028631" xlink:href="#m8e8bb03b00" y="80.780442"/>
     <use style="fill:#ff0000;stroke:#ff0000;" x="121.311851" xlink:href="#m8e8bb03b00" y="80.780442"/>
     <use style="fill:#ff0000;stroke:#ff0000;" x="122.59507" xlink:href="#m8e8bb03b00" y="101.17403"/>
     <use style="fill:#ff0000;stroke:#ff0000;" x="123.87829" xlink:href="#m8e8bb03b00" y="79.918449"/>
     <use style="fill:#ff0000;stroke:#ff0000;" x="125.161509" xlink:href="#m8e8bb03b00" y="79.918449"/>
     <use style="fill:#ff0000;stroke:#ff0000;" x="126.444729" xlink:href="#m8e8bb03b00" y="103.185411"/>
     <use style="fill:#ff0000;stroke:#ff0000;" x="127.727948" xlink:href="#m8e8bb03b00" y="103.185411"/>
     <use style="fill:#ff0000;stroke:#ff0000;" x="129.011168" xlink:href="#m8e8bb03b00" y="79.462155"/>
     <use style="fill:#ff0000;stroke:#ff0000;" x="130.294387" xlink:href="#m8e8bb03b00" y="79.462155"/>
     <use style="fill:#ff0000;stroke:#ff0000;" x="131.577607" xlink:href="#m8e8bb03b00" y="99.048488"/>
     <use style="fill:#ff0000;stroke:#ff0000;" x="132.860826" xlink:href="#m8e8bb03b00" y="99.048488"/>
     <use style="fill:#ff0000;stroke:#ff0000;" x="134.144046" xlink:href="#m8e8bb03b00" y="99.048488"/>
     <use style="fill:#ff0000;stroke:#ff0000;" x="135.427266" xlink:href="#m8e8bb03b00" y="99.048488"/>
     <use style="fill:#ff0000;stroke:#ff0000;" x="136.710485" xlink:href="#m8e8bb03b00" y="103.961522"/>
     <use style="fill:#ff0000;stroke:#ff0000;" x="137.993705" xlink:href="#m8e8bb03b00" y="103.961522"/>
     <use style="fill:#ff0000;stroke:#ff0000;" x="139.276924" xlink:href="#m8e8bb03b00" y="123.207788"/>
     <use style="fill:#ff0000;stroke:#ff0000;" x="140.560144" xlink:href="#m8e8bb03b00" y="123.207788"/>
     <use style="fill:#ff0000;stroke:#ff0000;" x="141.843363" xlink:href="#m8e8bb03b00" y="143.56994"/>
     <use style="fill:#ff0000;stroke:#ff0000;" x="143.126583" xlink:href="#m8e8bb03b00" y="143.56994"/>
     <use style="fill:#ff0000;stroke:#ff0000;" x="144.409802" xlink:href="#m8e8bb03b00" y="120.498205"/>
     <use style="fill:#ff0000;stroke:#ff0000;" x="145.693022" xlink:href="#m8e8bb03b00" y="120.498205"/>
     <use style="fill:#ff0000;stroke:#ff0000;" x="146.976241" xlink:href="#m8e8bb03b00" y="96.63009"/>
     <use style="fill:#ff0000;stroke:#ff0000;" x="148.259461" xlink:href="#m8e8bb03b00" y="96.63009"/>
     <use style="fill:#ff0000;stroke:#ff0000;" x="149.542681" xlink:href="#m8e8bb03b00" y="76.17475"/>
     <use style="fill:#ff0000;stroke:#ff0000;" x="150.8259" xlink:href="#m8e8bb03b00" y="76.17475"/>
     <use style="fill:#ff0000;stroke:#ff0000;" x="152.10912" xlink:href="#m8e8bb03b00" y="76.17475"/>
     <use style="fill:#ff0000;stroke:#ff0000;" x="153.392339" xlink:href="#m8e8bb03b00" y="57.416161"/>
     <use style="fill:#ff0000;stroke:#ff0000;" x="154.675559" xlink:href="#m8e8bb03b00" y="57.416161"/>
     <use style="fill:#ff0000;stroke:#ff0000;" x="155.958778" xlink:href="#m8e8bb03b00" y="78.195542"/>
     <use style="fill:#ff0000;stroke:#ff0000;" x="157.241998" xlink:href="#m8e8bb03b00" y="78.195542"/>
     <use style="fill:#ff0000;stroke:#ff0000;" x="158.525217" xlink:href="#m8e8bb03b00" y="98.717723"/>
     <use style="fill:#ff0000;stroke:#ff0000;" x="159.808437" xlink:href="#m8e8bb03b00" y="98.717723"/>
     <use style="fill:#ff0000;stroke:#ff0000;" x="161.091656" xlink:href="#m8e8bb03b00" y="98.717723"/>
     <use style="fill:#ff0000;stroke:#ff0000;" x="162.374876" xlink:href="#m8e8bb03b00" y="118.391837"/>
     <use style="fill:#ff0000;stroke:#ff0000;" x="163.658096" xlink:href="#m8e8bb03b00" y="118.391837"/>
     <use style="fill:#ff0000;stroke:#ff0000;" x="164.941315" xlink:href="#m8e8bb03b00" y="138.376802"/>
     <use style="fill:#ff0000;stroke:#ff0000;" x="166.224535" xlink:href="#m8e8bb03b00" y="135.403961"/>
     <use style="fill:#ff0000;stroke:#ff0000;" x="167.507754" xlink:href="#m8e8bb03b00" y="135.403961"/>
     <use style="fill:#ff0000;stroke:#ff0000;" x="168.790974" xlink:href="#m8e8bb03b00" y="156.18917"/>
     <use style="fill:#ff0000;stroke:#ff0000;" x="170.074193" xlink:href="#m8e8bb03b00" y="156.18917"/>
     <use style="fill:#ff0000;stroke:#ff0000;" x="171.357413" xlink:href="#m8e8bb03b00" y="176.43139"/>
     <use style="fill:#ff0000;stroke:#ff0000;" x="172.640632" xlink:href="#m8e8bb03b00" y="176.43139"/>
     <use style="fill:#ff0000;stroke:#ff0000;" x="173.923852" xlink:href="#m8e8bb03b00" y="195.868822"/>
     <use style="fill:#ff0000;stroke:#ff0000;" x="175.207072" xlink:href="#m8e8bb03b00" y="195.868822"/>
     <use style="fill:#ff0000;stroke:#ff0000;" x="176.490291" xlink:href="#m8e8bb03b00" y="172.193669"/>
     <use style="fill:#ff0000;stroke:#ff0000;" x="177.773511" xlink:href="#m8e8bb03b00" y="170.484007"/>
     <use style="fill:#ff0000;stroke:#ff0000;" x="179.05673" xlink:href="#m8e8bb03b00" y="170.484007"/>
     <use style="fill:#ff0000;stroke:#ff0000;" x="180.33995" xlink:href="#m8e8bb03b00" y="170.484007"/>
     <use style="fill:#ff0000;stroke:#ff0000;" x="181.623169" xlink:href="#m8e8bb03b00" y="170.484007"/>
     <use style="fill:#ff0000;stroke:#ff0000;" x="182.906389" xlink:href="#m8e8bb03b00" y="193.238891"/>
     <use style="fill:#ff0000;stroke:#ff0000;" x="184.189608" xlink:href="#m8e8bb03b00" y="193.238891"/>
     <use style="fill:#ff0000;stroke:#ff0000;" x="185.472828" xlink:href="#m8e8bb03b00" y="188.555244"/>
     <use style="fill:#ff0000;stroke:#ff0000;" x="186.756047" xlink:href="#m8e8bb03b00" y="208.487216"/>
     <use style="fill:#ff0000;stroke:#ff0000;" x="188.039267" xlink:href="#m8e8bb03b00" y="208.487216"/>
     <use style="fill:#ff0000;stroke:#ff0000;" x="189.322487" xlink:href="#m8e8bb03b00" y="208.487216"/>
     <use style="fill:#ff0000;stroke:#ff0000;" x="190.605706" xlink:href="#m8e8bb03b00" y="228.947224"/>
     <use style="fill:#ff0000;stroke:#ff0000;" x="191.888926" xlink:href="#m8e8bb03b00" y="228.947224"/>
     <use style="fill:#ff0000;stroke:#ff0000;" x="193.172145" xlink:href="#m8e8bb03b00" y="228.116791"/>
     <use style="fill:#ff0000;stroke:#ff0000;" x="194.455365" xlink:href="#m8e8bb03b00" y="228.116791"/>
     <use style="fill:#ff0000;stroke:#ff0000;" x="195.738584" xlink:href="#m8e8bb03b00" y="207.606637"/>
     <use style="fill:#ff0000;stroke:#ff0000;" x="197.021804" xlink:href="#m8e8bb03b00" y="207.606637"/>
     <use style="fill:#ff0000;stroke:#ff0000;" x="198.305023" xlink:href="#m8e8bb03b00" y="207.606637"/>
     <use style="fill:#ff0000;stroke:#ff0000;" x="199.588243" xlink:href="#m8e8bb03b00" y="207.606637"/>
     <use style="fill:#ff0000;stroke:#ff0000;" x="200.871462" xlink:href="#m8e8bb03b00" y="203.233915"/>
     <use style="fill:#ff0000;stroke:#ff0000;" x="202.154682" xlink:href="#m8e8bb03b00" y="203.233915"/>
     <use style="fill:#ff0000;stroke:#ff0000;" x="203.437902" xlink:href="#m8e8bb03b00" y="181.673835"/>
     <use style="fill:#ff0000;stroke:#ff0000;" x="204.721121" xlink:href="#m8e8bb03b00" y="200.279026"/>
     <use style="fill:#ff0000;stroke:#ff0000;" x="206.004341" xlink:href="#m8e8bb03b00" y="200.279026"/>
     <use style="fill:#ff0000;stroke:#ff0000;" x="207.28756" xlink:href="#m8e8bb03b00" y="200.279026"/>
     <use style="fill:#ff0000;stroke:#ff0000;" x="208.57078" xlink:href="#m8e8bb03b00" y="176.222749"/>
     <use style="fill:#ff0000;stroke:#ff0000;" x="209.853999" xlink:href="#m8e8bb03b00" y="176.222749"/>
     <use style="fill:#ff0000;stroke:#ff0000;" x="211.137219" xlink:href="#m8e8bb03b00" y="178.285439"/>
     <use style="fill:#ff0000;stroke:#ff0000;" x="212.420438" xlink:href="#m8e8bb03b00" y="178.285439"/>
     <use style="fill:#ff0000;stroke:#ff0000;" x="213.703658" xlink:href="#m8e8bb03b00" y="154.820176"/>
     <use style="fill:#ff0000;stroke:#ff0000;" x="214.986877" xlink:href="#m8e8bb03b00" y="154.820176"/>
     <use style="fill:#ff0000;stroke:#ff0000;" x="216.270097" xlink:href="#m8e8bb03b00" y="134.633323"/>
     <use style="fill:#ff0000;stroke:#ff0000;" x="217.553317" xlink:href="#m8e8bb03b00" y="154.093301"/>
     <use style="fill:#ff0000;stroke:#ff0000;" x="218.836536" xlink:href="#m8e8bb03b00" y="154.093301"/>
     <use style="fill:#ff0000;stroke:#ff0000;" x="220.119756" xlink:href="#m8e8bb03b00" y="154.093301"/>
     <use style="fill:#ff0000;stroke:#ff0000;" x="221.402975" xlink:href="#m8e8bb03b00" y="154.093301"/>
     <use style="fill:#ff0000;stroke:#ff0000;" x="222.686195" xlink:href="#m8e8bb03b00" y="154.093301"/>
     <use style="fill:#ff0000;stroke:#ff0000;" x="223.969414" xlink:href="#m8e8bb03b00" y="154.093301"/>
     <use style="fill:#ff0000;stroke:#ff0000;" x="225.252634" xlink:href="#m8e8bb03b00" y="154.093301"/>
     <use style="fill:#ff0000;stroke:#ff0000;" x="226.535853" xlink:href="#m8e8bb03b00" y="154.093301"/>
     <use style="fill:#ff0000;stroke:#ff0000;" x="227.819073" xlink:href="#m8e8bb03b00" y="154.093301"/>
     <use style="fill:#ff0000;stroke:#ff0000;" x="229.102292" xlink:href="#m8e8bb03b00" y="154.093301"/>
     <use style="fill:#ff0000;stroke:#ff0000;" x="230.385512" xlink:href="#m8e8bb03b00" y="156.071327"/>
     <use style="fill:#ff0000;stroke:#ff0000;" x="231.668732" xlink:href="#m8e8bb03b00" y="156.071327"/>
     <use style="fill:#ff0000;stroke:#ff0000;" x="232.951951" xlink:href="#m8e8bb03b00" y="176.22974"/>
     <use style="fill:#ff0000;stroke:#ff0000;" x="234.235171" xlink:href="#m8e8bb03b00" y="194.670252"/>
     <use style="fill:#ff0000;stroke:#ff0000;" x="235.51839" xlink:href="#m8e8bb03b00" y="194.670252"/>
     <use style="fill:#ff0000;stroke:#ff0000;" x="236.80161" xlink:href="#m8e8bb03b00" y="214.397347"/>
     <use style="fill:#ff0000;stroke:#ff0000;" x="238.084829" xlink:href="#m8e8bb03b00" y="214.397347"/>
     <use style="fill:#ff0000;stroke:#ff0000;" x="239.368049" xlink:href="#m8e8bb03b00" y="191.935116"/>
     <use style="fill:#ff0000;stroke:#ff0000;" x="240.651268" xlink:href="#m8e8bb03b00" y="191.935116"/>
     <use style="fill:#ff0000;stroke:#ff0000;" x="241.934488" xlink:href="#m8e8bb03b00" y="191.935116"/>
     <use style="fill:#ff0000;stroke:#ff0000;" x="243.217708" xlink:href="#m8e8bb03b00" y="169.801043"/>
     <use style="fill:#ff0000;stroke:#ff0000;" x="244.500927" xlink:href="#m8e8bb03b00" y="169.801043"/>
     <use style="fill:#ff0000;stroke:#ff0000;" x="245.784147" xlink:href="#m8e8bb03b00" y="189.753688"/>
     <use style="fill:#ff0000;stroke:#ff0000;" x="247.067366" xlink:href="#m8e8bb03b00" y="189.753688"/>
     <use style="fill:#ff0000;stroke:#ff0000;" x="248.350586" xlink:href="#m8e8bb03b00" y="165.769301"/>
     <use style="fill:#ff0000;stroke:#ff0000;" x="249.633805" xlink:href="#m8e8bb03b00" y="165.769301"/>
     <use style="fill:#ff0000;stroke:#ff0000;" x="250.917025" xlink:href="#m8e8bb03b00" y="184.334565"/>
     <use style="fill:#ff0000;stroke:#ff0000;" x="252.200244" xlink:href="#m8e8bb03b00" y="184.969625"/>
     <use style="fill:#ff0000;stroke:#ff0000;" x="253.483464" xlink:href="#m8e8bb03b00" y="184.969625"/>
     <use style="fill:#ff0000;stroke:#ff0000;" x="254.766683" xlink:href="#m8e8bb03b00" y="181.082854"/>
     <use style="fill:#ff0000;stroke:#ff0000;" x="256.049903" xlink:href="#m8e8bb03b00" y="181.082854"/>
     <use style="fill:#ff0000;stroke:#ff0000;" x="257.333123" xlink:href="#m8e8bb03b00" y="181.082854"/>
     <use style="fill:#ff0000;stroke:#ff0000;" x="258.616342" xlink:href="#m8e8bb03b00" y="157.736367"/>
     <use style="fill:#ff0000;stroke:#ff0000;" x="259.899562" xlink:href="#m8e8bb03b00" y="157.736367"/>
     <use style="fill:#ff0000;stroke:#ff0000;" x="261.182781" xlink:href="#m8e8bb03b00" y="158.59909"/>
     <use style="fill:#ff0000;stroke:#ff0000;" x="262.466001" xlink:href="#m8e8bb03b00" y="158.59909"/>
     <use style="fill:#ff0000;stroke:#ff0000;" x="263.74922" xlink:href="#m8e8bb03b00" y="138.070128"/>
     <use style="fill:#ff0000;stroke:#ff0000;" x="265.03244" xlink:href="#m8e8bb03b00" y="138.070128"/>
     <use style="fill:#ff0000;stroke:#ff0000;" x="266.315659" xlink:href="#m8e8bb03b00" y="119.782969"/>
     <use style="fill:#ff0000;stroke:#ff0000;" x="267.598879" xlink:href="#m8e8bb03b00" y="119.782969"/>
     <use style="fill:#ff0000;stroke:#ff0000;" x="268.882098" xlink:href="#m8e8bb03b00" y="119.782969"/>
     <use style="fill:#ff0000;stroke:#ff0000;" x="270.165318" xlink:href="#m8e8bb03b00" y="142.393792"/>
     <use style="fill:#ff0000;stroke:#ff0000;" x="271.448538" xlink:href="#m8e8bb03b00" y="142.393792"/>
     <use style="fill:#ff0000;stroke:#ff0000;" x="272.731757" xlink:href="#m8e8bb03b00" y="118.738752"/>
     <use style="fill:#ff0000;stroke:#ff0000;" x="274.014977" xlink:href="#m8e8bb03b00" y="118.738752"/>
     <use style="fill:#ff0000;stroke:#ff0000;" x="275.298196" xlink:href="#m8e8bb03b00" y="100.351487"/>
     <use style="fill:#ff0000;stroke:#ff0000;" x="276.581416" xlink:href="#m8e8bb03b00" y="100.351487"/>
     <use style="fill:#ff0000;stroke:#ff0000;" x="277.864635" xlink:href="#m8e8bb03b00" y="122.057184"/>
     <use style="fill:#ff0000;stroke:#ff0000;" x="279.147855" xlink:href="#m8e8bb03b00" y="99.881887"/>
     <use style="fill:#ff0000;stroke:#ff0000;" x="280.431074" xlink:href="#m8e8bb03b00" y="99.881887"/>
     <use style="fill:#ff0000;stroke:#ff0000;" x="281.714294" xlink:href="#m8e8bb03b00" y="80.347341"/>
     <use style="fill:#ff0000;stroke:#ff0000;" x="282.997513" xlink:href="#m8e8bb03b00" y="80.347341"/>
     <use style="fill:#ff0000;stroke:#ff0000;" x="284.280733" xlink:href="#m8e8bb03b00" y="85.492462"/>
     <use style="fill:#ff0000;stroke:#ff0000;" x="285.563953" xlink:href="#m8e8bb03b00" y="85.492462"/>
     <use style="fill:#ff0000;stroke:#ff0000;" x="286.847172" xlink:href="#m8e8bb03b00" y="101.996584"/>
     <use style="fill:#ff0000;stroke:#ff0000;" x="288.130392" xlink:href="#m8e8bb03b00" y="101.996584"/>
     <use style="fill:#ff0000;stroke:#ff0000;" x="289.413611" xlink:href="#m8e8bb03b00" y="101.996584"/>
     <use style="fill:#ff0000;stroke:#ff0000;" x="290.696831" xlink:href="#m8e8bb03b00" y="124.250048"/>
     <use style="fill:#ff0000;stroke:#ff0000;" x="291.98005" xlink:href="#m8e8bb03b00" y="124.250048"/>
     <use style="fill:#ff0000;stroke:#ff0000;" x="293.26327" xlink:href="#m8e8bb03b00" y="125.906177"/>
     <use style="fill:#ff0000;stroke:#ff0000;" x="294.546489" xlink:href="#m8e8bb03b00" y="145.420098"/>
     <use style="fill:#ff0000;stroke:#ff0000;" x="295.829709" xlink:href="#m8e8bb03b00" y="145.420098"/>
     <use style="fill:#ff0000;stroke:#ff0000;" x="297.112928" xlink:href="#m8e8bb03b00" y="124.52905"/>
     <use style="fill:#ff0000;stroke:#ff0000;" x="298.396148" xlink:href="#m8e8bb03b00" y="124.52905"/>
     <use style="fill:#ff0000;stroke:#ff0000;" x="299.679368" xlink:href="#m8e8bb03b00" y="124.52905"/>
     <use style="fill:#ff0000;stroke:#ff0000;" x="300.962587" xlink:href="#m8e8bb03b00" y="123.369261"/>
     <use style="fill:#ff0000;stroke:#ff0000;" x="302.245807" xlink:href="#m8e8bb03b00" y="123.369261"/>
     <use style="fill:#ff0000;stroke:#ff0000;" x="303.529026" xlink:href="#m8e8bb03b00" y="101.616848"/>
     <use style="fill:#ff0000;stroke:#ff0000;" x="304.812246" xlink:href="#m8e8bb03b00" y="101.616848"/>
     <use style="fill:#ff0000;stroke:#ff0000;" x="306.095465" xlink:href="#m8e8bb03b00" y="125.574081"/>
     <use style="fill:#ff0000;stroke:#ff0000;" x="307.378685" xlink:href="#m8e8bb03b00" y="125.574081"/>
     <use style="fill:#ff0000;stroke:#ff0000;" x="308.661904" xlink:href="#m8e8bb03b00" y="103.53125"/>
     <use style="fill:#ff0000;stroke:#ff0000;" x="309.945124" xlink:href="#m8e8bb03b00" y="103.53125"/>
     <use style="fill:#ff0000;stroke:#ff0000;" x="311.228344" xlink:href="#m8e8bb03b00" y="123.207528"/>
     <use style="fill:#ff0000;stroke:#ff0000;" x="312.511563" xlink:href="#m8e8bb03b00" y="123.207528"/>
     <use style="fill:#ff0000;stroke:#ff0000;" x="313.794783" xlink:href="#m8e8bb03b00" y="123.207528"/>
     <use style="fill:#ff0000;stroke:#ff0000;" x="315.078002" xlink:href="#m8e8bb03b00" y="123.207528"/>
     <use style="fill:#ff0000;stroke:#ff0000;" x="316.361222" xlink:href="#m8e8bb03b00" y="123.207528"/>
     <use style="fill:#ff0000;stroke:#ff0000;" x="317.644441" xlink:href="#m8e8bb03b00" y="123.207528"/>
     <use style="fill:#ff0000;stroke:#ff0000;" x="318.927661" xlink:href="#m8e8bb03b00" y="123.207528"/>
     <use style="fill:#ff0000;stroke:#ff0000;" x="320.21088" xlink:href="#m8e8bb03b00" y="123.207528"/>
     <use style="fill:#ff0000;stroke:#ff0000;" x="321.4941" xlink:href="#m8e8bb03b00" y="123.207528"/>
     <use style="fill:#ff0000;stroke:#ff0000;" x="322.777319" xlink:href="#m8e8bb03b00" y="123.207528"/>
     <use style="fill:#ff0000;stroke:#ff0000;" x="324.060539" xlink:href="#m8e8bb03b00" y="123.207528"/>
     <use style="fill:#ff0000;stroke:#ff0000;" x="325.343759" xlink:href="#m8e8bb03b00" y="123.207528"/>
     <use style="fill:#ff0000;stroke:#ff0000;" x="326.626978" xlink:href="#m8e8bb03b00" y="123.207528"/>
     <use style="fill:#ff0000;stroke:#ff0000;" x="327.910198" xlink:href="#m8e8bb03b00" y="123.207528"/>
     <use style="fill:#ff0000;stroke:#ff0000;" x="329.193417" xlink:href="#m8e8bb03b00" y="123.207528"/>
     <use style="fill:#ff0000;stroke:#ff0000;" x="330.476637" xlink:href="#m8e8bb03b00" y="123.207528"/>
     <use style="fill:#ff0000;stroke:#ff0000;" x="331.759856" xlink:href="#m8e8bb03b00" y="123.207528"/>
     <use style="fill:#ff0000;stroke:#ff0000;" x="333.043076" xlink:href="#m8e8bb03b00" y="123.207528"/>
     <use style="fill:#ff0000;stroke:#ff0000;" x="334.326295" xlink:href="#m8e8bb03b00" y="123.207528"/>
     <use style="fill:#ff0000;stroke:#ff0000;" x="335.609515" xlink:href="#m8e8bb03b00" y="123.207528"/>
     <use style="fill:#ff0000;stroke:#ff0000;" x="336.892734" xlink:href="#m8e8bb03b00" y="123.207528"/>
     <use style="fill:#ff0000;stroke:#ff0000;" x="338.175954" xlink:href="#m8e8bb03b00" y="123.207528"/>
     <use style="fill:#ff0000;stroke:#ff0000;" x="339.459174" xlink:href="#m8e8bb03b00" y="123.207528"/>
     <use style="fill:#ff0000;stroke:#ff0000;" x="340.742393" xlink:href="#m8e8bb03b00" y="123.207528"/>
     <use style="fill:#ff0000;stroke:#ff0000;" x="342.025613" xlink:href="#m8e8bb03b00" y="123.207528"/>
     <use style="fill:#ff0000;stroke:#ff0000;" x="343.308832" xlink:href="#m8e8bb03b00" y="123.207528"/>
     <use style="fill:#ff0000;stroke:#ff0000;" x="344.592052" xlink:href="#m8e8bb03b00" y="123.207528"/>
     <use style="fill:#ff0000;stroke:#ff0000;" x="345.875271" xlink:href="#m8e8bb03b00" y="123.207528"/>
     <use style="fill:#ff0000;stroke:#ff0000;" x="347.158491" xlink:href="#m8e8bb03b00" y="123.207528"/>
     <use style="fill:#ff0000;stroke:#ff0000;" x="348.44171" xlink:href="#m8e8bb03b00" y="123.207528"/>
     <use style="fill:#ff0000;stroke:#ff0000;" x="349.72493" xlink:href="#m8e8bb03b00" y="123.207528"/>
     <use style="fill:#ff0000;stroke:#ff0000;" x="351.008149" xlink:href="#m8e8bb03b00" y="123.207528"/>
     <use style="fill:#ff0000;stroke:#ff0000;" x="352.291369" xlink:href="#m8e8bb03b00" y="123.207528"/>
     <use style="fill:#ff0000;stroke:#ff0000;" x="353.574589" xlink:href="#m8e8bb03b00" y="123.207528"/>
     <use style="fill:#ff0000;stroke:#ff0000;" x="354.857808" xlink:href="#m8e8bb03b00" y="123.207528"/>
     <use style="fill:#ff0000;stroke:#ff0000;" x="356.141028" xlink:href="#m8e8bb03b00" y="123.207528"/>
     <use style="fill:#ff0000;stroke:#ff0000;" x="357.424247" xlink:href="#m8e8bb03b00" y="123.207528"/>
     <use style="fill:#ff0000;stroke:#ff0000;" x="358.707467" xlink:href="#m8e8bb03b00" y="123.207528"/>
     <use style="fill:#ff0000;stroke:#ff0000;" x="359.990686" xlink:href="#m8e8bb03b00" y="123.207528"/>
     <use style="fill:#ff0000;stroke:#ff0000;" x="361.273906" xlink:href="#m8e8bb03b00" y="123.207528"/>
     <use style="fill:#ff0000;stroke:#ff0000;" x="362.557125" xlink:href="#m8e8bb03b00" y="123.207528"/>
     <use style="fill:#ff0000;stroke:#ff0000;" x="363.840345" xlink:href="#m8e8bb03b00" y="123.207528"/>
     <use style="fill:#ff0000;stroke:#ff0000;" x="365.123564" xlink:href="#m8e8bb03b00" y="123.207528"/>
     <use style="fill:#ff0000;stroke:#ff0000;" x="366.406784" xlink:href="#m8e8bb03b00" y="123.207528"/>
     <use style="fill:#ff0000;stroke:#ff0000;" x="367.690004" xlink:href="#m8e8bb03b00" y="123.207528"/>
     <use style="fill:#ff0000;stroke:#ff0000;" x="368.973223" xlink:href="#m8e8bb03b00" y="123.207528"/>
     <use style="fill:#ff0000;stroke:#ff0000;" x="370.256443" xlink:href="#m8e8bb03b00" y="123.207528"/>
     <use style="fill:#ff0000;stroke:#ff0000;" x="371.539662" xlink:href="#m8e8bb03b00" y="123.207528"/>
     <use style="fill:#ff0000;stroke:#ff0000;" x="372.822882" xlink:href="#m8e8bb03b00" y="123.207528"/>
     <use style="fill:#ff0000;stroke:#ff0000;" x="374.106101" xlink:href="#m8e8bb03b00" y="123.207528"/>
     <use style="fill:#ff0000;stroke:#ff0000;" x="375.389321" xlink:href="#m8e8bb03b00" y="123.207528"/>
     <use style="fill:#ff0000;stroke:#ff0000;" x="376.67254" xlink:href="#m8e8bb03b00" y="123.207528"/>
     <use style="fill:#ff0000;stroke:#ff0000;" x="377.95576" xlink:href="#m8e8bb03b00" y="123.207528"/>
     <use style="fill:#ff0000;stroke:#ff0000;" x="379.23898" xlink:href="#m8e8bb03b00" y="123.207528"/>
     <use style="fill:#ff0000;stroke:#ff0000;" x="380.522199" xlink:href="#m8e8bb03b00" y="123.207528"/>
     <use style="fill:#ff0000;stroke:#ff0000;" x="381.805419" xlink:href="#m8e8bb03b00" y="123.207528"/>
     <use style="fill:#ff0000;stroke:#ff0000;" x="383.088638" xlink:href="#m8e8bb03b00" y="123.207528"/>
     <use style="fill:#ff0000;stroke:#ff0000;" x="384.371858" xlink:href="#m8e8bb03b00" y="123.207528"/>
     <use style="fill:#ff0000;stroke:#ff0000;" x="385.655077" xlink:href="#m8e8bb03b00" y="123.207528"/>
     <use style="fill:#ff0000;stroke:#ff0000;" x="386.938297" xlink:href="#m8e8bb03b00" y="123.207528"/>
     <use style="fill:#ff0000;stroke:#ff0000;" x="388.221516" xlink:href="#m8e8bb03b00" y="123.207528"/>
     <use style="fill:#ff0000;stroke:#ff0000;" x="389.504736" xlink:href="#m8e8bb03b00" y="123.207528"/>
     <use style="fill:#ff0000;stroke:#ff0000;" x="390.787955" xlink:href="#m8e8bb03b00" y="123.207528"/>
     <use style="fill:#ff0000;stroke:#ff0000;" x="392.071175" xlink:href="#m8e8bb03b00" y="123.207528"/>
     <use style="fill:#ff0000;stroke:#ff0000;" x="393.354395" xlink:href="#m8e8bb03b00" y="123.207528"/>
     <use style="fill:#ff0000;stroke:#ff0000;" x="394.637614" xlink:href="#m8e8bb03b00" y="123.207528"/>
     <use style="fill:#ff0000;stroke:#ff0000;" x="395.920834" xlink:href="#m8e8bb03b00" y="123.207528"/>
     <use style="fill:#ff0000;stroke:#ff0000;" x="397.204053" xlink:href="#m8e8bb03b00" y="123.207528"/>
     <use style="fill:#ff0000;stroke:#ff0000;" x="398.487273" xlink:href="#m8e8bb03b00" y="123.207528"/>
    </g>
   </g>
   <g id="patch_3">
    <path d="M 57.6 307.584 
L 57.6 41.472 
" style="fill:none;stroke:#000000;stroke-linecap:square;stroke-linejoin:miter;stroke-width:0.8;"/>
   </g>
   <g id="patch_4">
    <path d="M 414.72 307.584 
L 414.72 41.472 
" style="fill:none;stroke:#000000;stroke-linecap:square;stroke-linejoin:miter;stroke-width:0.8;"/>
   </g>
   <g id="patch_5">
    <path d="M 57.6 307.584 
L 414.72 307.584 
" style="fill:none;stroke:#000000;stroke-linecap:square;stroke-linejoin:miter;stroke-width:0.8;"/>
   </g>
   <g id="patch_6">
    <path d="M 57.6 41.472 
L 414.72 41.472 
" style="fill:none;stroke:#000000;stroke-linecap:square;stroke-linejoin:miter;stroke-width:0.8;"/>
   </g>
  </g>
 </g>
 <defs>
  <clipPath id="p5fc27f8390">
   <rect height="266.112" width="357.12" x="57.6" y="41.472"/>
  </clipPath>
 </defs>
</svg>
