<?xml version="1.0" encoding="utf-8" standalone="no"?>
<!DOCTYPE svg PUBLIC "-//W3C//DTD SVG 1.1//EN"
  "http://www.w3.org/Graphics/SVG/1.1/DTD/svg11.dtd">
<!-- Created with matplotlib (https://matplotlib.org/) -->
<svg height="345.6pt" version="1.1" viewBox="0 0 460.8 345.6" width="460.8pt" xmlns="http://www.w3.org/2000/svg" xmlns:xlink="http://www.w3.org/1999/xlink">
 <defs>
  <style type="text/css">
*{stroke-linecap:butt;stroke-linejoin:round;}
  </style>
 </defs>
 <g id="figure_1">
  <g id="patch_1">
   <path d="M 0 345.6 
L 460.8 345.6 
L 460.8 0 
L 0 0 
z
" style="fill:#ffffff;"/>
  </g>
  <g id="axes_1">
   <g id="patch_2">
    <path d="M 57.6 307.584 
L 414.72 307.584 
L 414.72 41.472 
L 57.6 41.472 
z
" style="fill:#ffffff;"/>
   </g>
   <g id="line2d_1">
    <path clip-path="url(#paf7368bcfd)" d="M 73.832727 54.857751 
L 75.126172 117.972571 
L 76.419616 117.972571 
L 77.71306 178.364198 
L 81.593394 178.364198 
L 82.886838 173.136714 
L 85.473727 173.136714 
L 86.767171 233.757672 
L 89.35406 233.757672 
L 90.647505 295.488 
L 91.940949 295.488 
L 93.234393 227.024412 
L 94.527838 227.024412 
L 95.821282 283.936945 
L 98.408171 283.936945 
L 99.701615 215.720482 
L 100.99506 215.720482 
L 102.288504 149.968874 
L 103.581949 149.968874 
L 104.875393 78.542555 
L 107.462282 78.542555 
L 108.755726 57.812874 
L 111.342615 57.812874 
L 112.636059 53.568 
L 115.222948 53.568 
L 116.516393 75.748782 
L 119.103281 75.748782 
L 120.396726 80.780442 
L 121.69017 80.780442 
L 122.983615 101.17403 
L 124.277059 79.918449 
L 125.570503 79.918449 
L 126.863948 103.185411 
L 128.157392 103.185411 
L 129.450837 79.462155 
L 130.744281 79.462155 
L 132.037725 99.048488 
L 135.918059 99.048488 
L 137.211503 103.961522 
L 138.504947 103.961522 
L 139.798392 123.207788 
L 141.091836 123.207788 
L 142.385281 143.56994 
L 143.678725 143.56994 
L 144.97217 120.498205 
L 146.265614 120.498205 
L 147.559058 96.63009 
L 148.852503 96.63009 
L 150.145947 76.17475 
L 152.732836 76.17475 
L 154.02628 57.416161 
L 155.319725 57.416161 
L 156.613169 78.195542 
L 157.906614 78.195542 
L 159.200058 98.717723 
L 161.786947 98.717723 
L 163.080391 118.391837 
L 164.373836 118.391837 
L 165.66728 138.376802 
L 166.960724 135.403961 
L 168.254169 135.403961 
L 169.547613 156.18917 
L 170.841058 156.18917 
L 172.134502 176.43139 
L 173.427946 176.43139 
L 174.721391 195.868822 
L 176.014835 195.868822 
L 177.30828 172.193669 
L 178.601724 170.484007 
L 182.482057 170.484007 
L 183.775502 193.238891 
L 185.068946 193.238891 
L 186.36239 188.555244 
L 187.655835 208.487216 
L 190.242724 208.487216 
L 191.536168 228.947224 
L 192.829612 228.947224 
L 194.123057 228.116791 
L 195.416501 228.116791 
L 196.709946 207.606637 
L 200.590279 207.606637 
L 201.883723 203.233915 
L 203.177168 203.233915 
L 204.470612 181.673835 
L 205.764057 200.279026 
L 208.350945 200.279026 
L 209.64439 176.222749 
L 210.937834 176.222749 
L 212.231279 178.285439 
L 213.524723 178.285439 
L 214.818167 154.820176 
L 216.111612 154.820176 
L 217.405056 134.633323 
L 218.698501 154.093301 
L 230.3395 154.093301 
L 231.632945 156.071327 
L 232.926389 156.071327 
L 235.513278 194.670252 
L 236.806722 194.670252 
L 238.100167 214.397347 
L 239.393611 214.397347 
L 240.687055 191.935116 
L 243.273944 191.935116 
L 244.567389 169.801043 
L 245.860833 169.801043 
L 247.154277 189.753688 
L 248.447722 189.753688 
L 249.741166 165.769301 
L 251.034611 165.769301 
L 252.328055 184.334565 
L 253.621499 184.969625 
L 254.914944 184.969625 
L 256.208388 181.082854 
L 258.795277 181.082854 
L 260.088721 157.736367 
L 261.382166 157.736367 
L 262.67561 158.59909 
L 263.969055 158.59909 
L 265.262499 138.070128 
L 266.555943 138.070128 
L 267.849388 119.782969 
L 270.436277 119.782969 
L 271.729721 142.393792 
L 273.023166 142.393792 
L 274.31661 118.738752 
L 275.610054 118.738752 
L 276.903499 100.351487 
L 278.196943 100.351487 
L 279.490388 122.057184 
L 280.783832 99.881887 
L 282.077276 99.881887 
L 283.370721 80.347341 
L 284.664165 80.347341 
L 285.95761 85.492462 
L 287.251054 85.492462 
L 288.544498 101.996584 
L 291.131387 101.996584 
L 292.424832 124.250048 
L 293.718276 124.250048 
L 295.01172 125.906177 
L 296.305165 145.420098 
L 297.598609 145.420098 
L 298.892054 124.52905 
L 301.478942 124.52905 
L 302.772387 123.369261 
L 304.065831 123.369261 
L 305.359276 101.616848 
L 306.65272 101.616848 
L 307.946164 125.574081 
L 309.239609 125.574081 
L 310.533053 103.53125 
L 311.826498 103.53125 
L 313.119942 123.207528 
L 398.487273 123.207528 
L 398.487273 123.207528 
" style="fill:none;stroke:#ff0000;stroke-linecap:square;stroke-width:12;"/>
    <defs>
     <path d="M 0 3 
C 0.795609 3 1.55874 2.683901 2.12132 2.12132 
C 2.683901 1.55874 3 0.795609 3 0 
C 3 -0.795609 2.683901 -1.55874 2.12132 -2.12132 
C 1.55874 -2.683901 0.795609 -3 0 -3 
C -0.795609 -3 -1.55874 -2.683901 -2.12132 -2.12132 
C -2.683901 -1.55874 -3 -0.795609 -3 0 
C -3 0.795609 -2.683901 1.55874 -2.12132 2.12132 
C -1.55874 2.683901 -0.795609 3 0 3 
z
" id="m238c127615" style="stroke:#ff0000;"/>
    </defs>
    <g clip-path="url(#paf7368bcfd)">
     <use style="fill:#ff0000;stroke:#ff0000;" x="73.832727" xlink:href="#m238c127615" y="54.857751"/>
     <use style="fill:#ff0000;stroke:#ff0000;" x="75.126172" xlink:href="#m238c127615" y="117.972571"/>
     <use style="fill:#ff0000;stroke:#ff0000;" x="76.419616" xlink:href="#m238c127615" y="117.972571"/>
     <use style="fill:#ff0000;stroke:#ff0000;" x="77.71306" xlink:href="#m238c127615" y="178.364198"/>
     <use style="fill:#ff0000;stroke:#ff0000;" x="79.006505" xlink:href="#m238c127615" y="178.364198"/>
     <use style="fill:#ff0000;stroke:#ff0000;" x="80.299949" xlink:href="#m238c127615" y="178.364198"/>
     <use style="fill:#ff0000;stroke:#ff0000;" x="81.593394" xlink:href="#m238c127615" y="178.364198"/>
     <use style="fill:#ff0000;stroke:#ff0000;" x="82.886838" xlink:href="#m238c127615" y="173.136714"/>
     <use style="fill:#ff0000;stroke:#ff0000;" x="84.180283" xlink:href="#m238c127615" y="173.136714"/>
     <use style="fill:#ff0000;stroke:#ff0000;" x="85.473727" xlink:href="#m238c127615" y="173.136714"/>
     <use style="fill:#ff0000;stroke:#ff0000;" x="86.767171" xlink:href="#m238c127615" y="233.757672"/>
     <use style="fill:#ff0000;stroke:#ff0000;" x="88.060616" xlink:href="#m238c127615" y="233.757672"/>
     <use style="fill:#ff0000;stroke:#ff0000;" x="89.35406" xlink:href="#m238c127615" y="233.757672"/>
     <use style="fill:#ff0000;stroke:#ff0000;" x="90.647505" xlink:href="#m238c127615" y="295.488"/>
     <use style="fill:#ff0000;stroke:#ff0000;" x="91.940949" xlink:href="#m238c127615" y="295.488"/>
     <use style="fill:#ff0000;stroke:#ff0000;" x="93.234393" xlink:href="#m238c127615" y="227.024412"/>
     <use style="fill:#ff0000;stroke:#ff0000;" x="94.527838" xlink:href="#m238c127615" y="227.024412"/>
     <use style="fill:#ff0000;stroke:#ff0000;" x="95.821282" xlink:href="#m238c127615" y="283.936945"/>
     <use style="fill:#ff0000;stroke:#ff0000;" x="97.114727" xlink:href="#m238c127615" y="283.936945"/>
     <use style="fill:#ff0000;stroke:#ff0000;" x="98.408171" xlink:href="#m238c127615" y="283.936945"/>
     <use style="fill:#ff0000;stroke:#ff0000;" x="99.701615" xlink:href="#m238c127615" y="215.720482"/>
     <use style="fill:#ff0000;stroke:#ff0000;" x="100.99506" xlink:href="#m238c127615" y="215.720482"/>
     <use style="fill:#ff0000;stroke:#ff0000;" x="102.288504" xlink:href="#m238c127615" y="149.968874"/>
     <use style="fill:#ff0000;stroke:#ff0000;" x="103.581949" xlink:href="#m238c127615" y="149.968874"/>
     <use style="fill:#ff0000;stroke:#ff0000;" x="104.875393" xlink:href="#m238c127615" y="78.542555"/>
     <use style="fill:#ff0000;stroke:#ff0000;" x="106.168837" xlink:href="#m238c127615" y="78.542555"/>
     <use style="fill:#ff0000;stroke:#ff0000;" x="107.462282" xlink:href="#m238c127615" y="78.542555"/>
     <use style="fill:#ff0000;stroke:#ff0000;" x="108.755726" xlink:href="#m238c127615" y="57.812874"/>
     <use style="fill:#ff0000;stroke:#ff0000;" x="110.049171" xlink:href="#m238c127615" y="57.812874"/>
     <use style="fill:#ff0000;stroke:#ff0000;" x="111.342615" xlink:href="#m238c127615" y="57.812874"/>
     <use style="fill:#ff0000;stroke:#ff0000;" x="112.636059" xlink:href="#m238c127615" y="53.568"/>
     <use style="fill:#ff0000;stroke:#ff0000;" x="113.929504" xlink:href="#m238c127615" y="53.568"/>
     <use style="fill:#ff0000;stroke:#ff0000;" x="115.222948" xlink:href="#m238c127615" y="53.568"/>
     <use style="fill:#ff0000;stroke:#ff0000;" x="116.516393" xlink:href="#m238c127615" y="75.748782"/>
     <use style="fill:#ff0000;stroke:#ff0000;" x="117.809837" xlink:href="#m238c127615" y="75.748782"/>
     <use style="fill:#ff0000;stroke:#ff0000;" x="119.103281" xlink:href="#m238c127615" y="75.748782"/>
     <use style="fill:#ff0000;stroke:#ff0000;" x="120.396726" xlink:href="#m238c127615" y="80.780442"/>
     <use style="fill:#ff0000;stroke:#ff0000;" x="121.69017" xlink:href="#m238c127615" y="80.780442"/>
     <use style="fill:#ff0000;stroke:#ff0000;" x="122.983615" xlink:href="#m238c127615" y="101.17403"/>
     <use style="fill:#ff0000;stroke:#ff0000;" x="124.277059" xlink:href="#m238c127615" y="79.918449"/>
     <use style="fill:#ff0000;stroke:#ff0000;" x="125.570503" xlink:href="#m238c127615" y="79.918449"/>
     <use style="fill:#ff0000;stroke:#ff0000;" x="126.863948" xlink:href="#m238c127615" y="103.185411"/>
     <use style="fill:#ff0000;stroke:#ff0000;" x="128.157392" xlink:href="#m238c127615" y="103.185411"/>
     <use style="fill:#ff0000;stroke:#ff0000;" x="129.450837" xlink:href="#m238c127615" y="79.462155"/>
     <use style="fill:#ff0000;stroke:#ff0000;" x="130.744281" xlink:href="#m238c127615" y="79.462155"/>
     <use style="fill:#ff0000;stroke:#ff0000;" x="132.037725" xlink:href="#m238c127615" y="99.048488"/>
     <use style="fill:#ff0000;stroke:#ff0000;" x="133.33117" xlink:href="#m238c127615" y="99.048488"/>
     <use style="fill:#ff0000;stroke:#ff0000;" x="134.624614" xlink:href="#m238c127615" y="99.048488"/>
     <use style="fill:#ff0000;stroke:#ff0000;" x="135.918059" xlink:href="#m238c127615" y="99.048488"/>
     <use style="fill:#ff0000;stroke:#ff0000;" x="137.211503" xlink:href="#m238c127615" y="103.961522"/>
     <use style="fill:#ff0000;stroke:#ff0000;" x="138.504947" xlink:href="#m238c127615" y="103.961522"/>
     <use style="fill:#ff0000;stroke:#ff0000;" x="139.798392" xlink:href="#m238c127615" y="123.207788"/>
     <use style="fill:#ff0000;stroke:#ff0000;" x="141.091836" xlink:href="#m238c127615" y="123.207788"/>
     <use style="fill:#ff0000;stroke:#ff0000;" x="142.385281" xlink:href="#m238c127615" y="143.56994"/>
     <use style="fill:#ff0000;stroke:#ff0000;" x="143.678725" xlink:href="#m238c127615" y="143.56994"/>
     <use style="fill:#ff0000;stroke:#ff0000;" x="144.97217" xlink:href="#m238c127615" y="120.498205"/>
     <use style="fill:#ff0000;stroke:#ff0000;" x="146.265614" xlink:href="#m238c127615" y="120.498205"/>
     <use style="fill:#ff0000;stroke:#ff0000;" x="147.559058" xlink:href="#m238c127615" y="96.63009"/>
     <use style="fill:#ff0000;stroke:#ff0000;" x="148.852503" xlink:href="#m238c127615" y="96.63009"/>
     <use style="fill:#ff0000;stroke:#ff0000;" x="150.145947" xlink:href="#m238c127615" y="76.17475"/>
     <use style="fill:#ff0000;stroke:#ff0000;" x="151.439392" xlink:href="#m238c127615" y="76.17475"/>
     <use style="fill:#ff0000;stroke:#ff0000;" x="152.732836" xlink:href="#m238c127615" y="76.17475"/>
     <use style="fill:#ff0000;stroke:#ff0000;" x="154.02628" xlink:href="#m238c127615" y="57.416161"/>
     <use style="fill:#ff0000;stroke:#ff0000;" x="155.319725" xlink:href="#m238c127615" y="57.416161"/>
     <use style="fill:#ff0000;stroke:#ff0000;" x="156.613169" xlink:href="#m238c127615" y="78.195542"/>
     <use style="fill:#ff0000;stroke:#ff0000;" x="157.906614" xlink:href="#m238c127615" y="78.195542"/>
     <use style="fill:#ff0000;stroke:#ff0000;" x="159.200058" xlink:href="#m238c127615" y="98.717723"/>
     <use style="fill:#ff0000;stroke:#ff0000;" x="160.493502" xlink:href="#m238c127615" y="98.717723"/>
     <use style="fill:#ff0000;stroke:#ff0000;" x="161.786947" xlink:href="#m238c127615" y="98.717723"/>
     <use style="fill:#ff0000;stroke:#ff0000;" x="163.080391" xlink:href="#m238c127615" y="118.391837"/>
     <use style="fill:#ff0000;stroke:#ff0000;" x="164.373836" xlink:href="#m238c127615" y="118.391837"/>
     <use style="fill:#ff0000;stroke:#ff0000;" x="165.66728" xlink:href="#m238c127615" y="138.376802"/>
     <use style="fill:#ff0000;stroke:#ff0000;" x="166.960724" xlink:href="#m238c127615" y="135.403961"/>
     <use style="fill:#ff0000;stroke:#ff0000;" x="168.254169" xlink:href="#m238c127615" y="135.403961"/>
     <use style="fill:#ff0000;stroke:#ff0000;" x="169.547613" xlink:href="#m238c127615" y="156.18917"/>
     <use style="fill:#ff0000;stroke:#ff0000;" x="170.841058" xlink:href="#m238c127615" y="156.18917"/>
     <use style="fill:#ff0000;stroke:#ff0000;" x="172.134502" xlink:href="#m238c127615" y="176.43139"/>
     <use style="fill:#ff0000;stroke:#ff0000;" x="173.427946" xlink:href="#m238c127615" y="176.43139"/>
     <use style="fill:#ff0000;stroke:#ff0000;" x="174.721391" xlink:href="#m238c127615" y="195.868822"/>
     <use style="fill:#ff0000;stroke:#ff0000;" x="176.014835" xlink:href="#m238c127615" y="195.868822"/>
     <use style="fill:#ff0000;stroke:#ff0000;" x="177.30828" xlink:href="#m238c127615" y="172.193669"/>
     <use style="fill:#ff0000;stroke:#ff0000;" x="178.601724" xlink:href="#m238c127615" y="170.484007"/>
     <use style="fill:#ff0000;stroke:#ff0000;" x="179.895168" xlink:href="#m238c127615" y="170.484007"/>
     <use style="fill:#ff0000;stroke:#ff0000;" x="181.188613" xlink:href="#m238c127615" y="170.484007"/>
     <use style="fill:#ff0000;stroke:#ff0000;" x="182.482057" xlink:href="#m238c127615" y="170.484007"/>
     <use style="fill:#ff0000;stroke:#ff0000;" x="183.775502" xlink:href="#m238c127615" y="193.238891"/>
     <use style="fill:#ff0000;stroke:#ff0000;" x="185.068946" xlink:href="#m238c127615" y="193.238891"/>
     <use style="fill:#ff0000;stroke:#ff0000;" x="186.36239" xlink:href="#m238c127615" y="188.555244"/>
     <use style="fill:#ff0000;stroke:#ff0000;" x="187.655835" xlink:href="#m238c127615" y="208.487216"/>
     <use style="fill:#ff0000;stroke:#ff0000;" x="188.949279" xlink:href="#m238c127615" y="208.487216"/>
     <use style="fill:#ff0000;stroke:#ff0000;" x="190.242724" xlink:href="#m238c127615" y="208.487216"/>
     <use style="fill:#ff0000;stroke:#ff0000;" x="191.536168" xlink:href="#m238c127615" y="228.947224"/>
     <use style="fill:#ff0000;stroke:#ff0000;" x="192.829612" xlink:href="#m238c127615" y="228.947224"/>
     <use style="fill:#ff0000;stroke:#ff0000;" x="194.123057" xlink:href="#m238c127615" y="228.116791"/>
     <use style="fill:#ff0000;stroke:#ff0000;" x="195.416501" xlink:href="#m238c127615" y="228.116791"/>
     <use style="fill:#ff0000;stroke:#ff0000;" x="196.709946" xlink:href="#m238c127615" y="207.606637"/>
     <use style="fill:#ff0000;stroke:#ff0000;" x="198.00339" xlink:href="#m238c127615" y="207.606637"/>
     <use style="fill:#ff0000;stroke:#ff0000;" x="199.296834" xlink:href="#m238c127615" y="207.606637"/>
     <use style="fill:#ff0000;stroke:#ff0000;" x="200.590279" xlink:href="#m238c127615" y="207.606637"/>
     <use style="fill:#ff0000;stroke:#ff0000;" x="201.883723" xlink:href="#m238c127615" y="203.233915"/>
     <use style="fill:#ff0000;stroke:#ff0000;" x="203.177168" xlink:href="#m238c127615" y="203.233915"/>
     <use style="fill:#ff0000;stroke:#ff0000;" x="204.470612" xlink:href="#m238c127615" y="181.673835"/>
     <use style="fill:#ff0000;stroke:#ff0000;" x="205.764057" xlink:href="#m238c127615" y="200.279026"/>
     <use style="fill:#ff0000;stroke:#ff0000;" x="207.057501" xlink:href="#m238c127615" y="200.279026"/>
     <use style="fill:#ff0000;stroke:#ff0000;" x="208.350945" xlink:href="#m238c127615" y="200.279026"/>
     <use style="fill:#ff0000;stroke:#ff0000;" x="209.64439" xlink:href="#m238c127615" y="176.222749"/>
     <use style="fill:#ff0000;stroke:#ff0000;" x="210.937834" xlink:href="#m238c127615" y="176.222749"/>
     <use style="fill:#ff0000;stroke:#ff0000;" x="212.231279" xlink:href="#m238c127615" y="178.285439"/>
     <use style="fill:#ff0000;stroke:#ff0000;" x="213.524723" xlink:href="#m238c127615" y="178.285439"/>
     <use style="fill:#ff0000;stroke:#ff0000;" x="214.818167" xlink:href="#m238c127615" y="154.820176"/>
     <use style="fill:#ff0000;stroke:#ff0000;" x="216.111612" xlink:href="#m238c127615" y="154.820176"/>
     <use style="fill:#ff0000;stroke:#ff0000;" x="217.405056" xlink:href="#m238c127615" y="134.633323"/>
     <use style="fill:#ff0000;stroke:#ff0000;" x="218.698501" xlink:href="#m238c127615" y="154.093301"/>
     <use style="fill:#ff0000;stroke:#ff0000;" x="219.991945" xlink:href="#m238c127615" y="154.093301"/>
     <use style="fill:#ff0000;stroke:#ff0000;" x="221.285389" xlink:href="#m238c127615" y="154.093301"/>
     <use style="fill:#ff0000;stroke:#ff0000;" x="222.578834" xlink:href="#m238c127615" y="154.093301"/>
     <use style="fill:#ff0000;stroke:#ff0000;" x="223.872278" xlink:href="#m238c127615" y="154.093301"/>
     <use style="fill:#ff0000;stroke:#ff0000;" x="225.165723" xlink:href="#m238c127615" y="154.093301"/>
     <use style="fill:#ff0000;stroke:#ff0000;" x="226.459167" xlink:href="#m238c127615" y="154.093301"/>
     <use style="fill:#ff0000;stroke:#ff0000;" x="227.752611" xlink:href="#m238c127615" y="154.093301"/>
     <use style="fill:#ff0000;stroke:#ff0000;" x="229.046056" xlink:href="#m238c127615" y="154.093301"/>
     <use style="fill:#ff0000;stroke:#ff0000;" x="230.3395" xlink:href="#m238c127615" y="154.093301"/>
     <use style="fill:#ff0000;stroke:#ff0000;" x="231.632945" xlink:href="#m238c127615" y="156.071327"/>
     <use style="fill:#ff0000;stroke:#ff0000;" x="232.926389" xlink:href="#m238c127615" y="156.071327"/>
     <use style="fill:#ff0000;stroke:#ff0000;" x="234.219833" xlink:href="#m238c127615" y="176.22974"/>
     <use style="fill:#ff0000;stroke:#ff0000;" x="235.513278" xlink:href="#m238c127615" y="194.670252"/>
     <use style="fill:#ff0000;stroke:#ff0000;" x="236.806722" xlink:href="#m238c127615" y="194.670252"/>
     <use style="fill:#ff0000;stroke:#ff0000;" x="238.100167" xlink:href="#m238c127615" y="214.397347"/>
     <use style="fill:#ff0000;stroke:#ff0000;" x="239.393611" xlink:href="#m238c127615" y="214.397347"/>
     <use style="fill:#ff0000;stroke:#ff0000;" x="240.687055" xlink:href="#m238c127615" y="191.935116"/>
     <use style="fill:#ff0000;stroke:#ff0000;" x="241.9805" xlink:href="#m238c127615" y="191.935116"/>
     <use style="fill:#ff0000;stroke:#ff0000;" x="243.273944" xlink:href="#m238c127615" y="191.935116"/>
     <use style="fill:#ff0000;stroke:#ff0000;" x="244.567389" xlink:href="#m238c127615" y="169.801043"/>
     <use style="fill:#ff0000;stroke:#ff0000;" x="245.860833" xlink:href="#m238c127615" y="169.801043"/>
     <use style="fill:#ff0000;stroke:#ff0000;" x="247.154277" xlink:href="#m238c127615" y="189.753688"/>
     <use style="fill:#ff0000;stroke:#ff0000;" x="248.447722" xlink:href="#m238c127615" y="189.753688"/>
     <use style="fill:#ff0000;stroke:#ff0000;" x="249.741166" xlink:href="#m238c127615" y="165.769301"/>
     <use style="fill:#ff0000;stroke:#ff0000;" x="251.034611" xlink:href="#m238c127615" y="165.769301"/>
     <use style="fill:#ff0000;stroke:#ff0000;" x="252.328055" xlink:href="#m238c127615" y="184.334565"/>
     <use style="fill:#ff0000;stroke:#ff0000;" x="253.621499" xlink:href="#m238c127615" y="184.969625"/>
     <use style="fill:#ff0000;stroke:#ff0000;" x="254.914944" xlink:href="#m238c127615" y="184.969625"/>
     <use style="fill:#ff0000;stroke:#ff0000;" x="256.208388" xlink:href="#m238c127615" y="181.082854"/>
     <use style="fill:#ff0000;stroke:#ff0000;" x="257.501833" xlink:href="#m238c127615" y="181.082854"/>
     <use style="fill:#ff0000;stroke:#ff0000;" x="258.795277" xlink:href="#m238c127615" y="181.082854"/>
     <use style="fill:#ff0000;stroke:#ff0000;" x="260.088721" xlink:href="#m238c127615" y="157.736367"/>
     <use style="fill:#ff0000;stroke:#ff0000;" x="261.382166" xlink:href="#m238c127615" y="157.736367"/>
     <use style="fill:#ff0000;stroke:#ff0000;" x="262.67561" xlink:href="#m238c127615" y="158.59909"/>
     <use style="fill:#ff0000;stroke:#ff0000;" x="263.969055" xlink:href="#m238c127615" y="158.59909"/>
     <use style="fill:#ff0000;stroke:#ff0000;" x="265.262499" xlink:href="#m238c127615" y="138.070128"/>
     <use style="fill:#ff0000;stroke:#ff0000;" x="266.555943" xlink:href="#m238c127615" y="138.070128"/>
     <use style="fill:#ff0000;stroke:#ff0000;" x="267.849388" xlink:href="#m238c127615" y="119.782969"/>
     <use style="fill:#ff0000;stroke:#ff0000;" x="269.142832" xlink:href="#m238c127615" y="119.782969"/>
     <use style="fill:#ff0000;stroke:#ff0000;" x="270.436277" xlink:href="#m238c127615" y="119.782969"/>
     <use style="fill:#ff0000;stroke:#ff0000;" x="271.729721" xlink:href="#m238c127615" y="142.393792"/>
     <use style="fill:#ff0000;stroke:#ff0000;" x="273.023166" xlink:href="#m238c127615" y="142.393792"/>
     <use style="fill:#ff0000;stroke:#ff0000;" x="274.31661" xlink:href="#m238c127615" y="118.738752"/>
     <use style="fill:#ff0000;stroke:#ff0000;" x="275.610054" xlink:href="#m238c127615" y="118.738752"/>
     <use style="fill:#ff0000;stroke:#ff0000;" x="276.903499" xlink:href="#m238c127615" y="100.351487"/>
     <use style="fill:#ff0000;stroke:#ff0000;" x="278.196943" xlink:href="#m238c127615" y="100.351487"/>
     <use style="fill:#ff0000;stroke:#ff0000;" x="279.490388" xlink:href="#m238c127615" y="122.057184"/>
     <use style="fill:#ff0000;stroke:#ff0000;" x="280.783832" xlink:href="#m238c127615" y="99.881887"/>
     <use style="fill:#ff0000;stroke:#ff0000;" x="282.077276" xlink:href="#m238c127615" y="99.881887"/>
     <use style="fill:#ff0000;stroke:#ff0000;" x="283.370721" xlink:href="#m238c127615" y="80.347341"/>
     <use style="fill:#ff0000;stroke:#ff0000;" x="284.664165" xlink:href="#m238c127615" y="80.347341"/>
     <use style="fill:#ff0000;stroke:#ff0000;" x="285.95761" xlink:href="#m238c127615" y="85.492462"/>
     <use style="fill:#ff0000;stroke:#ff0000;" x="287.251054" xlink:href="#m238c127615" y="85.492462"/>
     <use style="fill:#ff0000;stroke:#ff0000;" x="288.544498" xlink:href="#m238c127615" y="101.996584"/>
     <use style="fill:#ff0000;stroke:#ff0000;" x="289.837943" xlink:href="#m238c127615" y="101.996584"/>
     <use style="fill:#ff0000;stroke:#ff0000;" x="291.131387" xlink:href="#m238c127615" y="101.996584"/>
     <use style="fill:#ff0000;stroke:#ff0000;" x="292.424832" xlink:href="#m238c127615" y="124.250048"/>
     <use style="fill:#ff0000;stroke:#ff0000;" x="293.718276" xlink:href="#m238c127615" y="124.250048"/>
     <use style="fill:#ff0000;stroke:#ff0000;" x="295.01172" xlink:href="#m238c127615" y="125.906177"/>
     <use style="fill:#ff0000;stroke:#ff0000;" x="296.305165" xlink:href="#m238c127615" y="145.420098"/>
     <use style="fill:#ff0000;stroke:#ff0000;" x="297.598609" xlink:href="#m238c127615" y="145.420098"/>
     <use style="fill:#ff0000;stroke:#ff0000;" x="298.892054" xlink:href="#m238c127615" y="124.52905"/>
     <use style="fill:#ff0000;stroke:#ff0000;" x="300.185498" xlink:href="#m238c127615" y="124.52905"/>
     <use style="fill:#ff0000;stroke:#ff0000;" x="301.478942" xlink:href="#m238c127615" y="124.52905"/>
     <use style="fill:#ff0000;stroke:#ff0000;" x="302.772387" xlink:href="#m238c127615" y="123.369261"/>
     <use style="fill:#ff0000;stroke:#ff0000;" x="304.065831" xlink:href="#m238c127615" y="123.369261"/>
     <use style="fill:#ff0000;stroke:#ff0000;" x="305.359276" xlink:href="#m238c127615" y="101.616848"/>
     <use style="fill:#ff0000;stroke:#ff0000;" x="306.65272" xlink:href="#m238c127615" y="101.616848"/>
     <use style="fill:#ff0000;stroke:#ff0000;" x="307.946164" xlink:href="#m238c127615" y="125.574081"/>
     <use style="fill:#ff0000;stroke:#ff0000;" x="309.239609" xlink:href="#m238c127615" y="125.574081"/>
     <use style="fill:#ff0000;stroke:#ff0000;" x="310.533053" xlink:href="#m238c127615" y="103.53125"/>
     <use style="fill:#ff0000;stroke:#ff0000;" x="311.826498" xlink:href="#m238c127615" y="103.53125"/>
     <use style="fill:#ff0000;stroke:#ff0000;" x="313.119942" xlink:href="#m238c127615" y="123.207528"/>
     <use style="fill:#ff0000;stroke:#ff0000;" x="314.413386" xlink:href="#m238c127615" y="123.207528"/>
     <use style="fill:#ff0000;stroke:#ff0000;" x="315.706831" xlink:href="#m238c127615" y="123.207528"/>
     <use style="fill:#ff0000;stroke:#ff0000;" x="317.000275" xlink:href="#m238c127615" y="123.207528"/>
     <use style="fill:#ff0000;stroke:#ff0000;" x="318.29372" xlink:href="#m238c127615" y="123.207528"/>
     <use style="fill:#ff0000;stroke:#ff0000;" x="319.587164" xlink:href="#m238c127615" y="123.207528"/>
     <use style="fill:#ff0000;stroke:#ff0000;" x="320.880608" xlink:href="#m238c127615" y="123.207528"/>
     <use style="fill:#ff0000;stroke:#ff0000;" x="322.174053" xlink:href="#m238c127615" y="123.207528"/>
     <use style="fill:#ff0000;stroke:#ff0000;" x="323.467497" xlink:href="#m238c127615" y="123.207528"/>
     <use style="fill:#ff0000;stroke:#ff0000;" x="324.760942" xlink:href="#m238c127615" y="123.207528"/>
     <use style="fill:#ff0000;stroke:#ff0000;" x="326.054386" xlink:href="#m238c127615" y="123.207528"/>
     <use style="fill:#ff0000;stroke:#ff0000;" x="327.34783" xlink:href="#m238c127615" y="123.207528"/>
     <use style="fill:#ff0000;stroke:#ff0000;" x="328.641275" xlink:href="#m238c127615" y="123.207528"/>
     <use style="fill:#ff0000;stroke:#ff0000;" x="329.934719" xlink:href="#m238c127615" y="123.207528"/>
     <use style="fill:#ff0000;stroke:#ff0000;" x="331.228164" xlink:href="#m238c127615" y="123.207528"/>
     <use style="fill:#ff0000;stroke:#ff0000;" x="332.521608" xlink:href="#m238c127615" y="123.207528"/>
     <use style="fill:#ff0000;stroke:#ff0000;" x="333.815053" xlink:href="#m238c127615" y="123.207528"/>
     <use style="fill:#ff0000;stroke:#ff0000;" x="335.108497" xlink:href="#m238c127615" y="123.207528"/>
     <use style="fill:#ff0000;stroke:#ff0000;" x="336.401941" xlink:href="#m238c127615" y="123.207528"/>
     <use style="fill:#ff0000;stroke:#ff0000;" x="337.695386" xlink:href="#m238c127615" y="123.207528"/>
     <use style="fill:#ff0000;stroke:#ff0000;" x="338.98883" xlink:href="#m238c127615" y="123.207528"/>
     <use style="fill:#ff0000;stroke:#ff0000;" x="340.282275" xlink:href="#m238c127615" y="123.207528"/>
     <use style="fill:#ff0000;stroke:#ff0000;" x="341.575719" xlink:href="#m238c127615" y="123.207528"/>
     <use style="fill:#ff0000;stroke:#ff0000;" x="342.869163" xlink:href="#m238c127615" y="123.207528"/>
     <use style="fill:#ff0000;stroke:#ff0000;" x="344.162608" xlink:href="#m238c127615" y="123.207528"/>
     <use style="fill:#ff0000;stroke:#ff0000;" x="345.456052" xlink:href="#m238c127615" y="123.207528"/>
     <use style="fill:#ff0000;stroke:#ff0000;" x="346.749497" xlink:href="#m238c127615" y="123.207528"/>
     <use style="fill:#ff0000;stroke:#ff0000;" x="348.042941" xlink:href="#m238c127615" y="123.207528"/>
     <use style="fill:#ff0000;stroke:#ff0000;" x="349.336385" xlink:href="#m238c127615" y="123.207528"/>
     <use style="fill:#ff0000;stroke:#ff0000;" x="350.62983" xlink:href="#m238c127615" y="123.207528"/>
     <use style="fill:#ff0000;stroke:#ff0000;" x="351.923274" xlink:href="#m238c127615" y="123.207528"/>
     <use style="fill:#ff0000;stroke:#ff0000;" x="353.216719" xlink:href="#m238c127615" y="123.207528"/>
     <use style="fill:#ff0000;stroke:#ff0000;" x="354.510163" xlink:href="#m238c127615" y="123.207528"/>
     <use style="fill:#ff0000;stroke:#ff0000;" x="355.803607" xlink:href="#m238c127615" y="123.207528"/>
     <use style="fill:#ff0000;stroke:#ff0000;" x="357.097052" xlink:href="#m238c127615" y="123.207528"/>
     <use style="fill:#ff0000;stroke:#ff0000;" x="358.390496" xlink:href="#m238c127615" y="123.207528"/>
     <use style="fill:#ff0000;stroke:#ff0000;" x="359.683941" xlink:href="#m238c127615" y="123.207528"/>
     <use style="fill:#ff0000;stroke:#ff0000;" x="360.977385" xlink:href="#m238c127615" y="123.207528"/>
     <use style="fill:#ff0000;stroke:#ff0000;" x="362.270829" xlink:href="#m238c127615" y="123.207528"/>
     <use style="fill:#ff0000;stroke:#ff0000;" x="363.564274" xlink:href="#m238c127615" y="123.207528"/>
     <use style="fill:#ff0000;stroke:#ff0000;" x="364.857718" xlink:href="#m238c127615" y="123.207528"/>
     <use style="fill:#ff0000;stroke:#ff0000;" x="366.151163" xlink:href="#m238c127615" y="123.207528"/>
     <use style="fill:#ff0000;stroke:#ff0000;" x="367.444607" xlink:href="#m238c127615" y="123.207528"/>
     <use style="fill:#ff0000;stroke:#ff0000;" x="368.738051" xlink:href="#m238c127615" y="123.207528"/>
     <use style="fill:#ff0000;stroke:#ff0000;" x="370.031496" xlink:href="#m238c127615" y="123.207528"/>
     <use style="fill:#ff0000;stroke:#ff0000;" x="371.32494" xlink:href="#m238c127615" y="123.207528"/>
     <use style="fill:#ff0000;stroke:#ff0000;" x="372.618385" xlink:href="#m238c127615" y="123.207528"/>
     <use style="fill:#ff0000;stroke:#ff0000;" x="373.911829" xlink:href="#m238c127615" y="123.207528"/>
     <use style="fill:#ff0000;stroke:#ff0000;" x="375.205273" xlink:href="#m238c127615" y="123.207528"/>
     <use style="fill:#ff0000;stroke:#ff0000;" x="376.498718" xlink:href="#m238c127615" y="123.207528"/>
     <use style="fill:#ff0000;stroke:#ff0000;" x="377.792162" xlink:href="#m238c127615" y="123.207528"/>
     <use style="fill:#ff0000;stroke:#ff0000;" x="379.085607" xlink:href="#m238c127615" y="123.207528"/>
     <use style="fill:#ff0000;stroke:#ff0000;" x="380.379051" xlink:href="#m238c127615" y="123.207528"/>
     <use style="fill:#ff0000;stroke:#ff0000;" x="381.672495" xlink:href="#m238c127615" y="123.207528"/>
     <use style="fill:#ff0000;stroke:#ff0000;" x="382.96594" xlink:href="#m238c127615" y="123.207528"/>
     <use style="fill:#ff0000;stroke:#ff0000;" x="384.259384" xlink:href="#m238c127615" y="123.207528"/>
     <use style="fill:#ff0000;stroke:#ff0000;" x="385.552829" xlink:href="#m238c127615" y="123.207528"/>
     <use style="fill:#ff0000;stroke:#ff0000;" x="386.846273" xlink:href="#m238c127615" y="123.207528"/>
     <use style="fill:#ff0000;stroke:#ff0000;" x="388.139717" xlink:href="#m238c127615" y="123.207528"/>
     <use style="fill:#ff0000;stroke:#ff0000;" x="389.433162" xlink:href="#m238c127615" y="123.207528"/>
     <use style="fill:#ff0000;stroke:#ff0000;" x="390.726606" xlink:href="#m238c127615" y="123.207528"/>
     <use style="fill:#ff0000;stroke:#ff0000;" x="392.020051" xlink:href="#m238c127615" y="123.207528"/>
     <use style="fill:#ff0000;stroke:#ff0000;" x="393.313495" xlink:href="#m238c127615" y="123.207528"/>
     <use style="fill:#ff0000;stroke:#ff0000;" x="394.60694" xlink:href="#m238c127615" y="123.207528"/>
     <use style="fill:#ff0000;stroke:#ff0000;" x="395.900384" xlink:href="#m238c127615" y="123.207528"/>
     <use style="fill:#ff0000;stroke:#ff0000;" x="397.193828" xlink:href="#m238c127615" y="123.207528"/>
     <use style="fill:#ff0000;stroke:#ff0000;" x="398.487273" xlink:href="#m238c127615" y="123.207528"/>
    </g>
   </g>
   <g id="patch_3">
    <path d="M 57.6 307.584 
L 57.6 41.472 
" style="fill:none;stroke:#000000;stroke-linecap:square;stroke-linejoin:miter;stroke-width:0.8;"/>
   </g>
   <g id="patch_4">
    <path d="M 414.72 307.584 
L 414.72 41.472 
" style="fill:none;stroke:#000000;stroke-linecap:square;stroke-linejoin:miter;stroke-width:0.8;"/>
   </g>
   <g id="patch_5">
    <path d="M 57.6 307.584 
L 414.72 307.584 
" style="fill:none;stroke:#000000;stroke-linecap:square;stroke-linejoin:miter;stroke-width:0.8;"/>
   </g>
   <g id="patch_6">
    <path d="M 57.6 41.472 
L 414.72 41.472 
" style="fill:none;stroke:#000000;stroke-linecap:square;stroke-linejoin:miter;stroke-width:0.8;"/>
   </g>
  </g>
 </g>
 <defs>
  <clipPath id="paf7368bcfd">
   <rect height="266.112" width="357.12" x="57.6" y="41.472"/>
  </clipPath>
 </defs>
</svg>
