<?xml version="1.0" encoding="utf-8" standalone="no"?>
<!DOCTYPE svg PUBLIC "-//W3C//DTD SVG 1.1//EN"
  "http://www.w3.org/Graphics/SVG/1.1/DTD/svg11.dtd">
<!-- Created with matplotlib (https://matplotlib.org/) -->
<svg height="345.6pt" version="1.1" viewBox="0 0 460.8 345.6" width="460.8pt" xmlns="http://www.w3.org/2000/svg" xmlns:xlink="http://www.w3.org/1999/xlink">
 <defs>
  <style type="text/css">
*{stroke-linecap:butt;stroke-linejoin:round;}
  </style>
 </defs>
 <g id="figure_1">
  <g id="patch_1">
   <path d="M 0 345.6 
L 460.8 345.6 
L 460.8 0 
L 0 0 
z
" style="fill:#ffffff;"/>
  </g>
  <g id="axes_1">
   <g id="patch_2">
    <path d="M 57.6 307.584 
L 414.72 307.584 
L 414.72 41.472 
L 57.6 41.472 
z
" style="fill:#ffffff;"/>
   </g>
   <g id="line2d_1">
    <path clip-path="url(#p66752be875)" d="M 73.832727 54.857751 
L 79.735537 117.972571 
L 85.638347 117.972571 
L 91.541157 178.364198 
L 97.443967 178.364198 
L 103.346777 178.364198 
L 109.249587 178.364198 
L 115.152397 173.136714 
L 121.055207 173.136714 
L 126.958017 173.136714 
L 132.860826 233.757672 
L 138.763636 233.757672 
L 144.666446 233.757672 
L 150.569256 295.488 
L 156.472066 295.488 
L 162.374876 227.024412 
L 168.277686 227.024412 
L 174.180496 283.936945 
L 180.083306 283.936945 
L 185.986116 283.936945 
L 191.888926 215.720482 
L 197.791736 215.720482 
L 203.694545 149.968874 
L 209.597355 149.968874 
L 215.500165 78.542555 
L 221.402975 78.542555 
L 227.305785 78.542555 
L 233.208595 57.812874 
L 239.111405 57.812874 
L 245.014215 57.812874 
L 250.917025 53.568 
L 256.819835 53.568 
L 262.722645 53.568 
L 268.625455 75.748782 
L 274.528264 75.748782 
L 280.431074 75.748782 
L 286.333884 80.780442 
L 292.236694 80.780442 
L 298.139504 101.17403 
L 304.042314 79.918449 
L 309.945124 79.918449 
L 315.847934 103.185411 
L 321.750744 103.185411 
L 327.653554 79.462155 
L 333.556364 79.462155 
L 339.459174 99.048488 
L 345.361983 99.048488 
L 351.264793 99.048488 
L 357.167603 99.048488 
L 363.070413 103.961522 
L 368.973223 103.961522 
L 374.876033 123.207788 
L 380.778843 123.207788 
L 386.681653 143.56994 
L 392.584463 143.56994 
L 398.487273 143.56994 
" style="fill:none;stroke:#ff0000;stroke-linecap:square;stroke-width:12;"/>
    <defs>
     <path d="M 0 3 
C 0.795609 3 1.55874 2.683901 2.12132 2.12132 
C 2.683901 1.55874 3 0.795609 3 0 
C 3 -0.795609 2.683901 -1.55874 2.12132 -2.12132 
C 1.55874 -2.683901 0.795609 -3 0 -3 
C -0.795609 -3 -1.55874 -2.683901 -2.12132 -2.12132 
C -2.683901 -1.55874 -3 -0.795609 -3 0 
C -3 0.795609 -2.683901 1.55874 -2.12132 2.12132 
C -1.55874 2.683901 -0.795609 3 0 3 
z
" id="m542a01c319" style="stroke:#ff0000;"/>
    </defs>
    <g clip-path="url(#p66752be875)">
     <use style="fill:#ff0000;stroke:#ff0000;" x="73.832727" xlink:href="#m542a01c319" y="54.857751"/>
     <use style="fill:#ff0000;stroke:#ff0000;" x="79.735537" xlink:href="#m542a01c319" y="117.972571"/>
     <use style="fill:#ff0000;stroke:#ff0000;" x="85.638347" xlink:href="#m542a01c319" y="117.972571"/>
     <use style="fill:#ff0000;stroke:#ff0000;" x="91.541157" xlink:href="#m542a01c319" y="178.364198"/>
     <use style="fill:#ff0000;stroke:#ff0000;" x="97.443967" xlink:href="#m542a01c319" y="178.364198"/>
     <use style="fill:#ff0000;stroke:#ff0000;" x="103.346777" xlink:href="#m542a01c319" y="178.364198"/>
     <use style="fill:#ff0000;stroke:#ff0000;" x="109.249587" xlink:href="#m542a01c319" y="178.364198"/>
     <use style="fill:#ff0000;stroke:#ff0000;" x="115.152397" xlink:href="#m542a01c319" y="173.136714"/>
     <use style="fill:#ff0000;stroke:#ff0000;" x="121.055207" xlink:href="#m542a01c319" y="173.136714"/>
     <use style="fill:#ff0000;stroke:#ff0000;" x="126.958017" xlink:href="#m542a01c319" y="173.136714"/>
     <use style="fill:#ff0000;stroke:#ff0000;" x="132.860826" xlink:href="#m542a01c319" y="233.757672"/>
     <use style="fill:#ff0000;stroke:#ff0000;" x="138.763636" xlink:href="#m542a01c319" y="233.757672"/>
     <use style="fill:#ff0000;stroke:#ff0000;" x="144.666446" xlink:href="#m542a01c319" y="233.757672"/>
     <use style="fill:#ff0000;stroke:#ff0000;" x="150.569256" xlink:href="#m542a01c319" y="295.488"/>
     <use style="fill:#ff0000;stroke:#ff0000;" x="156.472066" xlink:href="#m542a01c319" y="295.488"/>
     <use style="fill:#ff0000;stroke:#ff0000;" x="162.374876" xlink:href="#m542a01c319" y="227.024412"/>
     <use style="fill:#ff0000;stroke:#ff0000;" x="168.277686" xlink:href="#m542a01c319" y="227.024412"/>
     <use style="fill:#ff0000;stroke:#ff0000;" x="174.180496" xlink:href="#m542a01c319" y="283.936945"/>
     <use style="fill:#ff0000;stroke:#ff0000;" x="180.083306" xlink:href="#m542a01c319" y="283.936945"/>
     <use style="fill:#ff0000;stroke:#ff0000;" x="185.986116" xlink:href="#m542a01c319" y="283.936945"/>
     <use style="fill:#ff0000;stroke:#ff0000;" x="191.888926" xlink:href="#m542a01c319" y="215.720482"/>
     <use style="fill:#ff0000;stroke:#ff0000;" x="197.791736" xlink:href="#m542a01c319" y="215.720482"/>
     <use style="fill:#ff0000;stroke:#ff0000;" x="203.694545" xlink:href="#m542a01c319" y="149.968874"/>
     <use style="fill:#ff0000;stroke:#ff0000;" x="209.597355" xlink:href="#m542a01c319" y="149.968874"/>
     <use style="fill:#ff0000;stroke:#ff0000;" x="215.500165" xlink:href="#m542a01c319" y="78.542555"/>
     <use style="fill:#ff0000;stroke:#ff0000;" x="221.402975" xlink:href="#m542a01c319" y="78.542555"/>
     <use style="fill:#ff0000;stroke:#ff0000;" x="227.305785" xlink:href="#m542a01c319" y="78.542555"/>
     <use style="fill:#ff0000;stroke:#ff0000;" x="233.208595" xlink:href="#m542a01c319" y="57.812874"/>
     <use style="fill:#ff0000;stroke:#ff0000;" x="239.111405" xlink:href="#m542a01c319" y="57.812874"/>
     <use style="fill:#ff0000;stroke:#ff0000;" x="245.014215" xlink:href="#m542a01c319" y="57.812874"/>
     <use style="fill:#ff0000;stroke:#ff0000;" x="250.917025" xlink:href="#m542a01c319" y="53.568"/>
     <use style="fill:#ff0000;stroke:#ff0000;" x="256.819835" xlink:href="#m542a01c319" y="53.568"/>
     <use style="fill:#ff0000;stroke:#ff0000;" x="262.722645" xlink:href="#m542a01c319" y="53.568"/>
     <use style="fill:#ff0000;stroke:#ff0000;" x="268.625455" xlink:href="#m542a01c319" y="75.748782"/>
     <use style="fill:#ff0000;stroke:#ff0000;" x="274.528264" xlink:href="#m542a01c319" y="75.748782"/>
     <use style="fill:#ff0000;stroke:#ff0000;" x="280.431074" xlink:href="#m542a01c319" y="75.748782"/>
     <use style="fill:#ff0000;stroke:#ff0000;" x="286.333884" xlink:href="#m542a01c319" y="80.780442"/>
     <use style="fill:#ff0000;stroke:#ff0000;" x="292.236694" xlink:href="#m542a01c319" y="80.780442"/>
     <use style="fill:#ff0000;stroke:#ff0000;" x="298.139504" xlink:href="#m542a01c319" y="101.17403"/>
     <use style="fill:#ff0000;stroke:#ff0000;" x="304.042314" xlink:href="#m542a01c319" y="79.918449"/>
     <use style="fill:#ff0000;stroke:#ff0000;" x="309.945124" xlink:href="#m542a01c319" y="79.918449"/>
     <use style="fill:#ff0000;stroke:#ff0000;" x="315.847934" xlink:href="#m542a01c319" y="103.185411"/>
     <use style="fill:#ff0000;stroke:#ff0000;" x="321.750744" xlink:href="#m542a01c319" y="103.185411"/>
     <use style="fill:#ff0000;stroke:#ff0000;" x="327.653554" xlink:href="#m542a01c319" y="79.462155"/>
     <use style="fill:#ff0000;stroke:#ff0000;" x="333.556364" xlink:href="#m542a01c319" y="79.462155"/>
     <use style="fill:#ff0000;stroke:#ff0000;" x="339.459174" xlink:href="#m542a01c319" y="99.048488"/>
     <use style="fill:#ff0000;stroke:#ff0000;" x="345.361983" xlink:href="#m542a01c319" y="99.048488"/>
     <use style="fill:#ff0000;stroke:#ff0000;" x="351.264793" xlink:href="#m542a01c319" y="99.048488"/>
     <use style="fill:#ff0000;stroke:#ff0000;" x="357.167603" xlink:href="#m542a01c319" y="99.048488"/>
     <use style="fill:#ff0000;stroke:#ff0000;" x="363.070413" xlink:href="#m542a01c319" y="103.961522"/>
     <use style="fill:#ff0000;stroke:#ff0000;" x="368.973223" xlink:href="#m542a01c319" y="103.961522"/>
     <use style="fill:#ff0000;stroke:#ff0000;" x="374.876033" xlink:href="#m542a01c319" y="123.207788"/>
     <use style="fill:#ff0000;stroke:#ff0000;" x="380.778843" xlink:href="#m542a01c319" y="123.207788"/>
     <use style="fill:#ff0000;stroke:#ff0000;" x="386.681653" xlink:href="#m542a01c319" y="143.56994"/>
     <use style="fill:#ff0000;stroke:#ff0000;" x="392.584463" xlink:href="#m542a01c319" y="143.56994"/>
     <use style="fill:#ff0000;stroke:#ff0000;" x="398.487273" xlink:href="#m542a01c319" y="143.56994"/>
    </g>
   </g>
   <g id="patch_3">
    <path d="M 57.6 307.584 
L 57.6 41.472 
" style="fill:none;stroke:#000000;stroke-linecap:square;stroke-linejoin:miter;stroke-width:0.8;"/>
   </g>
   <g id="patch_4">
    <path d="M 414.72 307.584 
L 414.72 41.472 
" style="fill:none;stroke:#000000;stroke-linecap:square;stroke-linejoin:miter;stroke-width:0.8;"/>
   </g>
   <g id="patch_5">
    <path d="M 57.6 307.584 
L 414.72 307.584 
" style="fill:none;stroke:#000000;stroke-linecap:square;stroke-linejoin:miter;stroke-width:0.8;"/>
   </g>
   <g id="patch_6">
    <path d="M 57.6 41.472 
L 414.72 41.472 
" style="fill:none;stroke:#000000;stroke-linecap:square;stroke-linejoin:miter;stroke-width:0.8;"/>
   </g>
  </g>
 </g>
 <defs>
  <clipPath id="p66752be875">
   <rect height="266.112" width="357.12" x="57.6" y="41.472"/>
  </clipPath>
 </defs>
</svg>
