<?xml version="1.0" encoding="utf-8" standalone="no"?>
<!DOCTYPE svg PUBLIC "-//W3C//DTD SVG 1.1//EN"
  "http://www.w3.org/Graphics/SVG/1.1/DTD/svg11.dtd">
<!-- Created with matplotlib (https://matplotlib.org/) -->
<svg height="345.6pt" version="1.1" viewBox="0 0 460.8 345.6" width="460.8pt" xmlns="http://www.w3.org/2000/svg" xmlns:xlink="http://www.w3.org/1999/xlink">
 <defs>
  <style type="text/css">
*{stroke-linecap:butt;stroke-linejoin:round;}
  </style>
 </defs>
 <g id="figure_1">
  <g id="patch_1">
   <path d="M 0 345.6 
L 460.8 345.6 
L 460.8 0 
L 0 0 
z
" style="fill:#ffffff;"/>
  </g>
  <g id="axes_1">
   <g id="patch_2">
    <path d="M 57.6 307.584 
L 414.72 307.584 
L 414.72 41.472 
L 57.6 41.472 
z
" style="fill:#ffffff;"/>
   </g>
   <g id="line2d_1">
    <path clip-path="url(#p45d485abc8)" d="M 73.832727 54.857751 
L 75.677355 117.972571 
L 77.521983 117.972571 
L 79.366612 178.364198 
L 84.900496 178.364198 
L 86.745124 173.136714 
L 90.43438 173.136714 
L 92.279008 233.757672 
L 95.968264 233.757672 
L 97.812893 295.488 
L 99.657521 295.488 
L 101.502149 227.024412 
L 103.346777 227.024412 
L 105.191405 283.936945 
L 108.880661 283.936945 
L 110.725289 215.720482 
L 112.569917 215.720482 
L 114.414545 149.968874 
L 116.259174 149.968874 
L 118.103802 78.542555 
L 121.793058 78.542555 
L 123.637686 57.812874 
L 127.326942 57.812874 
L 129.17157 53.568 
L 132.860826 53.568 
L 134.705455 75.748782 
L 138.394711 75.748782 
L 140.239339 80.780442 
L 142.083967 80.780442 
L 143.928595 101.17403 
L 145.773223 79.918449 
L 147.617851 79.918449 
L 149.462479 103.185411 
L 151.307107 103.185411 
L 153.151736 79.462155 
L 154.996364 79.462155 
L 156.840992 99.048488 
L 162.374876 99.048488 
L 164.219504 103.961522 
L 166.064132 103.961522 
L 167.90876 123.207788 
L 169.753388 123.207788 
L 171.598017 143.56994 
L 173.442645 143.56994 
L 175.287273 120.498205 
L 177.131901 120.498205 
L 178.976529 96.63009 
L 180.821157 96.63009 
L 182.665785 76.17475 
L 186.355041 76.17475 
L 188.199669 57.416161 
L 190.044298 57.416161 
L 191.888926 78.195542 
L 193.733554 78.195542 
L 195.578182 98.717723 
L 199.267438 98.717723 
L 201.112066 118.391837 
L 202.956694 118.391837 
L 204.801322 138.376802 
L 206.64595 135.403961 
L 208.490579 135.403961 
L 210.335207 156.18917 
L 212.179835 156.18917 
L 214.024463 176.43139 
L 215.869091 176.43139 
L 217.713719 195.868822 
L 219.558347 195.868822 
L 221.402975 172.193669 
L 223.247603 170.484007 
L 228.781488 170.484007 
L 230.626116 193.238891 
L 232.470744 193.238891 
L 234.315372 188.555244 
L 236.16 208.487216 
L 239.849256 208.487216 
L 241.693884 228.947224 
L 243.538512 228.947224 
L 245.38314 228.116791 
L 247.227769 228.116791 
L 249.072397 207.606637 
L 254.606281 207.606637 
L 256.450909 203.233915 
L 258.295537 203.233915 
L 260.140165 181.673835 
L 261.984793 200.279026 
L 265.67405 200.279026 
L 267.518678 176.222749 
L 269.363306 176.222749 
L 271.207934 178.285439 
L 273.052562 178.285439 
L 274.89719 154.820176 
L 276.741818 154.820176 
L 278.586446 134.633323 
L 280.431074 154.093301 
L 297.032727 154.093301 
L 298.877355 156.071327 
L 300.721983 156.071327 
L 302.566612 176.22974 
L 304.41124 194.670252 
L 306.255868 194.670252 
L 308.100496 214.397347 
L 309.945124 214.397347 
L 311.789752 191.935116 
L 315.479008 191.935116 
L 317.323636 169.801043 
L 319.168264 169.801043 
L 321.012893 189.753688 
L 322.857521 189.753688 
L 324.702149 165.769301 
L 326.546777 165.769301 
L 328.391405 184.334565 
L 330.236033 184.969625 
L 332.080661 184.969625 
L 333.925289 181.082854 
L 337.614545 181.082854 
L 339.459174 157.736367 
L 341.303802 157.736367 
L 343.14843 158.59909 
L 344.993058 158.59909 
L 346.837686 138.070128 
L 348.682314 138.070128 
L 350.526942 119.782969 
L 354.216198 119.782969 
L 356.060826 142.393792 
L 357.905455 142.393792 
L 359.750083 118.738752 
L 361.594711 118.738752 
L 363.439339 100.351487 
L 365.283967 100.351487 
L 367.128595 122.057184 
L 368.973223 99.881887 
L 370.817851 99.881887 
L 372.662479 80.347341 
L 374.507107 80.347341 
L 376.351736 85.492462 
L 378.196364 85.492462 
L 380.040992 101.996584 
L 383.730248 101.996584 
L 385.574876 124.250048 
L 387.419504 124.250048 
L 389.264132 125.906177 
L 391.10876 145.420098 
L 392.953388 145.420098 
L 394.798017 124.52905 
L 398.487273 124.52905 
L 398.487273 124.52905 
" style="fill:none;stroke:#ff0000;stroke-linecap:square;stroke-width:12;"/>
    <defs>
     <path d="M 0 3 
C 0.795609 3 1.55874 2.683901 2.12132 2.12132 
C 2.683901 1.55874 3 0.795609 3 0 
C 3 -0.795609 2.683901 -1.55874 2.12132 -2.12132 
C 1.55874 -2.683901 0.795609 -3 0 -3 
C -0.795609 -3 -1.55874 -2.683901 -2.12132 -2.12132 
C -2.683901 -1.55874 -3 -0.795609 -3 0 
C -3 0.795609 -2.683901 1.55874 -2.12132 2.12132 
C -1.55874 2.683901 -0.795609 3 0 3 
z
" id="mc0f2859076" style="stroke:#ff0000;"/>
    </defs>
    <g clip-path="url(#p45d485abc8)">
     <use style="fill:#ff0000;stroke:#ff0000;" x="73.832727" xlink:href="#mc0f2859076" y="54.857751"/>
     <use style="fill:#ff0000;stroke:#ff0000;" x="75.677355" xlink:href="#mc0f2859076" y="117.972571"/>
     <use style="fill:#ff0000;stroke:#ff0000;" x="77.521983" xlink:href="#mc0f2859076" y="117.972571"/>
     <use style="fill:#ff0000;stroke:#ff0000;" x="79.366612" xlink:href="#mc0f2859076" y="178.364198"/>
     <use style="fill:#ff0000;stroke:#ff0000;" x="81.21124" xlink:href="#mc0f2859076" y="178.364198"/>
     <use style="fill:#ff0000;stroke:#ff0000;" x="83.055868" xlink:href="#mc0f2859076" y="178.364198"/>
     <use style="fill:#ff0000;stroke:#ff0000;" x="84.900496" xlink:href="#mc0f2859076" y="178.364198"/>
     <use style="fill:#ff0000;stroke:#ff0000;" x="86.745124" xlink:href="#mc0f2859076" y="173.136714"/>
     <use style="fill:#ff0000;stroke:#ff0000;" x="88.589752" xlink:href="#mc0f2859076" y="173.136714"/>
     <use style="fill:#ff0000;stroke:#ff0000;" x="90.43438" xlink:href="#mc0f2859076" y="173.136714"/>
     <use style="fill:#ff0000;stroke:#ff0000;" x="92.279008" xlink:href="#mc0f2859076" y="233.757672"/>
     <use style="fill:#ff0000;stroke:#ff0000;" x="94.123636" xlink:href="#mc0f2859076" y="233.757672"/>
     <use style="fill:#ff0000;stroke:#ff0000;" x="95.968264" xlink:href="#mc0f2859076" y="233.757672"/>
     <use style="fill:#ff0000;stroke:#ff0000;" x="97.812893" xlink:href="#mc0f2859076" y="295.488"/>
     <use style="fill:#ff0000;stroke:#ff0000;" x="99.657521" xlink:href="#mc0f2859076" y="295.488"/>
     <use style="fill:#ff0000;stroke:#ff0000;" x="101.502149" xlink:href="#mc0f2859076" y="227.024412"/>
     <use style="fill:#ff0000;stroke:#ff0000;" x="103.346777" xlink:href="#mc0f2859076" y="227.024412"/>
     <use style="fill:#ff0000;stroke:#ff0000;" x="105.191405" xlink:href="#mc0f2859076" y="283.936945"/>
     <use style="fill:#ff0000;stroke:#ff0000;" x="107.036033" xlink:href="#mc0f2859076" y="283.936945"/>
     <use style="fill:#ff0000;stroke:#ff0000;" x="108.880661" xlink:href="#mc0f2859076" y="283.936945"/>
     <use style="fill:#ff0000;stroke:#ff0000;" x="110.725289" xlink:href="#mc0f2859076" y="215.720482"/>
     <use style="fill:#ff0000;stroke:#ff0000;" x="112.569917" xlink:href="#mc0f2859076" y="215.720482"/>
     <use style="fill:#ff0000;stroke:#ff0000;" x="114.414545" xlink:href="#mc0f2859076" y="149.968874"/>
     <use style="fill:#ff0000;stroke:#ff0000;" x="116.259174" xlink:href="#mc0f2859076" y="149.968874"/>
     <use style="fill:#ff0000;stroke:#ff0000;" x="118.103802" xlink:href="#mc0f2859076" y="78.542555"/>
     <use style="fill:#ff0000;stroke:#ff0000;" x="119.94843" xlink:href="#mc0f2859076" y="78.542555"/>
     <use style="fill:#ff0000;stroke:#ff0000;" x="121.793058" xlink:href="#mc0f2859076" y="78.542555"/>
     <use style="fill:#ff0000;stroke:#ff0000;" x="123.637686" xlink:href="#mc0f2859076" y="57.812874"/>
     <use style="fill:#ff0000;stroke:#ff0000;" x="125.482314" xlink:href="#mc0f2859076" y="57.812874"/>
     <use style="fill:#ff0000;stroke:#ff0000;" x="127.326942" xlink:href="#mc0f2859076" y="57.812874"/>
     <use style="fill:#ff0000;stroke:#ff0000;" x="129.17157" xlink:href="#mc0f2859076" y="53.568"/>
     <use style="fill:#ff0000;stroke:#ff0000;" x="131.016198" xlink:href="#mc0f2859076" y="53.568"/>
     <use style="fill:#ff0000;stroke:#ff0000;" x="132.860826" xlink:href="#mc0f2859076" y="53.568"/>
     <use style="fill:#ff0000;stroke:#ff0000;" x="134.705455" xlink:href="#mc0f2859076" y="75.748782"/>
     <use style="fill:#ff0000;stroke:#ff0000;" x="136.550083" xlink:href="#mc0f2859076" y="75.748782"/>
     <use style="fill:#ff0000;stroke:#ff0000;" x="138.394711" xlink:href="#mc0f2859076" y="75.748782"/>
     <use style="fill:#ff0000;stroke:#ff0000;" x="140.239339" xlink:href="#mc0f2859076" y="80.780442"/>
     <use style="fill:#ff0000;stroke:#ff0000;" x="142.083967" xlink:href="#mc0f2859076" y="80.780442"/>
     <use style="fill:#ff0000;stroke:#ff0000;" x="143.928595" xlink:href="#mc0f2859076" y="101.17403"/>
     <use style="fill:#ff0000;stroke:#ff0000;" x="145.773223" xlink:href="#mc0f2859076" y="79.918449"/>
     <use style="fill:#ff0000;stroke:#ff0000;" x="147.617851" xlink:href="#mc0f2859076" y="79.918449"/>
     <use style="fill:#ff0000;stroke:#ff0000;" x="149.462479" xlink:href="#mc0f2859076" y="103.185411"/>
     <use style="fill:#ff0000;stroke:#ff0000;" x="151.307107" xlink:href="#mc0f2859076" y="103.185411"/>
     <use style="fill:#ff0000;stroke:#ff0000;" x="153.151736" xlink:href="#mc0f2859076" y="79.462155"/>
     <use style="fill:#ff0000;stroke:#ff0000;" x="154.996364" xlink:href="#mc0f2859076" y="79.462155"/>
     <use style="fill:#ff0000;stroke:#ff0000;" x="156.840992" xlink:href="#mc0f2859076" y="99.048488"/>
     <use style="fill:#ff0000;stroke:#ff0000;" x="158.68562" xlink:href="#mc0f2859076" y="99.048488"/>
     <use style="fill:#ff0000;stroke:#ff0000;" x="160.530248" xlink:href="#mc0f2859076" y="99.048488"/>
     <use style="fill:#ff0000;stroke:#ff0000;" x="162.374876" xlink:href="#mc0f2859076" y="99.048488"/>
     <use style="fill:#ff0000;stroke:#ff0000;" x="164.219504" xlink:href="#mc0f2859076" y="103.961522"/>
     <use style="fill:#ff0000;stroke:#ff0000;" x="166.064132" xlink:href="#mc0f2859076" y="103.961522"/>
     <use style="fill:#ff0000;stroke:#ff0000;" x="167.90876" xlink:href="#mc0f2859076" y="123.207788"/>
     <use style="fill:#ff0000;stroke:#ff0000;" x="169.753388" xlink:href="#mc0f2859076" y="123.207788"/>
     <use style="fill:#ff0000;stroke:#ff0000;" x="171.598017" xlink:href="#mc0f2859076" y="143.56994"/>
     <use style="fill:#ff0000;stroke:#ff0000;" x="173.442645" xlink:href="#mc0f2859076" y="143.56994"/>
     <use style="fill:#ff0000;stroke:#ff0000;" x="175.287273" xlink:href="#mc0f2859076" y="120.498205"/>
     <use style="fill:#ff0000;stroke:#ff0000;" x="177.131901" xlink:href="#mc0f2859076" y="120.498205"/>
     <use style="fill:#ff0000;stroke:#ff0000;" x="178.976529" xlink:href="#mc0f2859076" y="96.63009"/>
     <use style="fill:#ff0000;stroke:#ff0000;" x="180.821157" xlink:href="#mc0f2859076" y="96.63009"/>
     <use style="fill:#ff0000;stroke:#ff0000;" x="182.665785" xlink:href="#mc0f2859076" y="76.17475"/>
     <use style="fill:#ff0000;stroke:#ff0000;" x="184.510413" xlink:href="#mc0f2859076" y="76.17475"/>
     <use style="fill:#ff0000;stroke:#ff0000;" x="186.355041" xlink:href="#mc0f2859076" y="76.17475"/>
     <use style="fill:#ff0000;stroke:#ff0000;" x="188.199669" xlink:href="#mc0f2859076" y="57.416161"/>
     <use style="fill:#ff0000;stroke:#ff0000;" x="190.044298" xlink:href="#mc0f2859076" y="57.416161"/>
     <use style="fill:#ff0000;stroke:#ff0000;" x="191.888926" xlink:href="#mc0f2859076" y="78.195542"/>
     <use style="fill:#ff0000;stroke:#ff0000;" x="193.733554" xlink:href="#mc0f2859076" y="78.195542"/>
     <use style="fill:#ff0000;stroke:#ff0000;" x="195.578182" xlink:href="#mc0f2859076" y="98.717723"/>
     <use style="fill:#ff0000;stroke:#ff0000;" x="197.42281" xlink:href="#mc0f2859076" y="98.717723"/>
     <use style="fill:#ff0000;stroke:#ff0000;" x="199.267438" xlink:href="#mc0f2859076" y="98.717723"/>
     <use style="fill:#ff0000;stroke:#ff0000;" x="201.112066" xlink:href="#mc0f2859076" y="118.391837"/>
     <use style="fill:#ff0000;stroke:#ff0000;" x="202.956694" xlink:href="#mc0f2859076" y="118.391837"/>
     <use style="fill:#ff0000;stroke:#ff0000;" x="204.801322" xlink:href="#mc0f2859076" y="138.376802"/>
     <use style="fill:#ff0000;stroke:#ff0000;" x="206.64595" xlink:href="#mc0f2859076" y="135.403961"/>
     <use style="fill:#ff0000;stroke:#ff0000;" x="208.490579" xlink:href="#mc0f2859076" y="135.403961"/>
     <use style="fill:#ff0000;stroke:#ff0000;" x="210.335207" xlink:href="#mc0f2859076" y="156.18917"/>
     <use style="fill:#ff0000;stroke:#ff0000;" x="212.179835" xlink:href="#mc0f2859076" y="156.18917"/>
     <use style="fill:#ff0000;stroke:#ff0000;" x="214.024463" xlink:href="#mc0f2859076" y="176.43139"/>
     <use style="fill:#ff0000;stroke:#ff0000;" x="215.869091" xlink:href="#mc0f2859076" y="176.43139"/>
     <use style="fill:#ff0000;stroke:#ff0000;" x="217.713719" xlink:href="#mc0f2859076" y="195.868822"/>
     <use style="fill:#ff0000;stroke:#ff0000;" x="219.558347" xlink:href="#mc0f2859076" y="195.868822"/>
     <use style="fill:#ff0000;stroke:#ff0000;" x="221.402975" xlink:href="#mc0f2859076" y="172.193669"/>
     <use style="fill:#ff0000;stroke:#ff0000;" x="223.247603" xlink:href="#mc0f2859076" y="170.484007"/>
     <use style="fill:#ff0000;stroke:#ff0000;" x="225.092231" xlink:href="#mc0f2859076" y="170.484007"/>
     <use style="fill:#ff0000;stroke:#ff0000;" x="226.93686" xlink:href="#mc0f2859076" y="170.484007"/>
     <use style="fill:#ff0000;stroke:#ff0000;" x="228.781488" xlink:href="#mc0f2859076" y="170.484007"/>
     <use style="fill:#ff0000;stroke:#ff0000;" x="230.626116" xlink:href="#mc0f2859076" y="193.238891"/>
     <use style="fill:#ff0000;stroke:#ff0000;" x="232.470744" xlink:href="#mc0f2859076" y="193.238891"/>
     <use style="fill:#ff0000;stroke:#ff0000;" x="234.315372" xlink:href="#mc0f2859076" y="188.555244"/>
     <use style="fill:#ff0000;stroke:#ff0000;" x="236.16" xlink:href="#mc0f2859076" y="208.487216"/>
     <use style="fill:#ff0000;stroke:#ff0000;" x="238.004628" xlink:href="#mc0f2859076" y="208.487216"/>
     <use style="fill:#ff0000;stroke:#ff0000;" x="239.849256" xlink:href="#mc0f2859076" y="208.487216"/>
     <use style="fill:#ff0000;stroke:#ff0000;" x="241.693884" xlink:href="#mc0f2859076" y="228.947224"/>
     <use style="fill:#ff0000;stroke:#ff0000;" x="243.538512" xlink:href="#mc0f2859076" y="228.947224"/>
     <use style="fill:#ff0000;stroke:#ff0000;" x="245.38314" xlink:href="#mc0f2859076" y="228.116791"/>
     <use style="fill:#ff0000;stroke:#ff0000;" x="247.227769" xlink:href="#mc0f2859076" y="228.116791"/>
     <use style="fill:#ff0000;stroke:#ff0000;" x="249.072397" xlink:href="#mc0f2859076" y="207.606637"/>
     <use style="fill:#ff0000;stroke:#ff0000;" x="250.917025" xlink:href="#mc0f2859076" y="207.606637"/>
     <use style="fill:#ff0000;stroke:#ff0000;" x="252.761653" xlink:href="#mc0f2859076" y="207.606637"/>
     <use style="fill:#ff0000;stroke:#ff0000;" x="254.606281" xlink:href="#mc0f2859076" y="207.606637"/>
     <use style="fill:#ff0000;stroke:#ff0000;" x="256.450909" xlink:href="#mc0f2859076" y="203.233915"/>
     <use style="fill:#ff0000;stroke:#ff0000;" x="258.295537" xlink:href="#mc0f2859076" y="203.233915"/>
     <use style="fill:#ff0000;stroke:#ff0000;" x="260.140165" xlink:href="#mc0f2859076" y="181.673835"/>
     <use style="fill:#ff0000;stroke:#ff0000;" x="261.984793" xlink:href="#mc0f2859076" y="200.279026"/>
     <use style="fill:#ff0000;stroke:#ff0000;" x="263.829421" xlink:href="#mc0f2859076" y="200.279026"/>
     <use style="fill:#ff0000;stroke:#ff0000;" x="265.67405" xlink:href="#mc0f2859076" y="200.279026"/>
     <use style="fill:#ff0000;stroke:#ff0000;" x="267.518678" xlink:href="#mc0f2859076" y="176.222749"/>
     <use style="fill:#ff0000;stroke:#ff0000;" x="269.363306" xlink:href="#mc0f2859076" y="176.222749"/>
     <use style="fill:#ff0000;stroke:#ff0000;" x="271.207934" xlink:href="#mc0f2859076" y="178.285439"/>
     <use style="fill:#ff0000;stroke:#ff0000;" x="273.052562" xlink:href="#mc0f2859076" y="178.285439"/>
     <use style="fill:#ff0000;stroke:#ff0000;" x="274.89719" xlink:href="#mc0f2859076" y="154.820176"/>
     <use style="fill:#ff0000;stroke:#ff0000;" x="276.741818" xlink:href="#mc0f2859076" y="154.820176"/>
     <use style="fill:#ff0000;stroke:#ff0000;" x="278.586446" xlink:href="#mc0f2859076" y="134.633323"/>
     <use style="fill:#ff0000;stroke:#ff0000;" x="280.431074" xlink:href="#mc0f2859076" y="154.093301"/>
     <use style="fill:#ff0000;stroke:#ff0000;" x="282.275702" xlink:href="#mc0f2859076" y="154.093301"/>
     <use style="fill:#ff0000;stroke:#ff0000;" x="284.120331" xlink:href="#mc0f2859076" y="154.093301"/>
     <use style="fill:#ff0000;stroke:#ff0000;" x="285.964959" xlink:href="#mc0f2859076" y="154.093301"/>
     <use style="fill:#ff0000;stroke:#ff0000;" x="287.809587" xlink:href="#mc0f2859076" y="154.093301"/>
     <use style="fill:#ff0000;stroke:#ff0000;" x="289.654215" xlink:href="#mc0f2859076" y="154.093301"/>
     <use style="fill:#ff0000;stroke:#ff0000;" x="291.498843" xlink:href="#mc0f2859076" y="154.093301"/>
     <use style="fill:#ff0000;stroke:#ff0000;" x="293.343471" xlink:href="#mc0f2859076" y="154.093301"/>
     <use style="fill:#ff0000;stroke:#ff0000;" x="295.188099" xlink:href="#mc0f2859076" y="154.093301"/>
     <use style="fill:#ff0000;stroke:#ff0000;" x="297.032727" xlink:href="#mc0f2859076" y="154.093301"/>
     <use style="fill:#ff0000;stroke:#ff0000;" x="298.877355" xlink:href="#mc0f2859076" y="156.071327"/>
     <use style="fill:#ff0000;stroke:#ff0000;" x="300.721983" xlink:href="#mc0f2859076" y="156.071327"/>
     <use style="fill:#ff0000;stroke:#ff0000;" x="302.566612" xlink:href="#mc0f2859076" y="176.22974"/>
     <use style="fill:#ff0000;stroke:#ff0000;" x="304.41124" xlink:href="#mc0f2859076" y="194.670252"/>
     <use style="fill:#ff0000;stroke:#ff0000;" x="306.255868" xlink:href="#mc0f2859076" y="194.670252"/>
     <use style="fill:#ff0000;stroke:#ff0000;" x="308.100496" xlink:href="#mc0f2859076" y="214.397347"/>
     <use style="fill:#ff0000;stroke:#ff0000;" x="309.945124" xlink:href="#mc0f2859076" y="214.397347"/>
     <use style="fill:#ff0000;stroke:#ff0000;" x="311.789752" xlink:href="#mc0f2859076" y="191.935116"/>
     <use style="fill:#ff0000;stroke:#ff0000;" x="313.63438" xlink:href="#mc0f2859076" y="191.935116"/>
     <use style="fill:#ff0000;stroke:#ff0000;" x="315.479008" xlink:href="#mc0f2859076" y="191.935116"/>
     <use style="fill:#ff0000;stroke:#ff0000;" x="317.323636" xlink:href="#mc0f2859076" y="169.801043"/>
     <use style="fill:#ff0000;stroke:#ff0000;" x="319.168264" xlink:href="#mc0f2859076" y="169.801043"/>
     <use style="fill:#ff0000;stroke:#ff0000;" x="321.012893" xlink:href="#mc0f2859076" y="189.753688"/>
     <use style="fill:#ff0000;stroke:#ff0000;" x="322.857521" xlink:href="#mc0f2859076" y="189.753688"/>
     <use style="fill:#ff0000;stroke:#ff0000;" x="324.702149" xlink:href="#mc0f2859076" y="165.769301"/>
     <use style="fill:#ff0000;stroke:#ff0000;" x="326.546777" xlink:href="#mc0f2859076" y="165.769301"/>
     <use style="fill:#ff0000;stroke:#ff0000;" x="328.391405" xlink:href="#mc0f2859076" y="184.334565"/>
     <use style="fill:#ff0000;stroke:#ff0000;" x="330.236033" xlink:href="#mc0f2859076" y="184.969625"/>
     <use style="fill:#ff0000;stroke:#ff0000;" x="332.080661" xlink:href="#mc0f2859076" y="184.969625"/>
     <use style="fill:#ff0000;stroke:#ff0000;" x="333.925289" xlink:href="#mc0f2859076" y="181.082854"/>
     <use style="fill:#ff0000;stroke:#ff0000;" x="335.769917" xlink:href="#mc0f2859076" y="181.082854"/>
     <use style="fill:#ff0000;stroke:#ff0000;" x="337.614545" xlink:href="#mc0f2859076" y="181.082854"/>
     <use style="fill:#ff0000;stroke:#ff0000;" x="339.459174" xlink:href="#mc0f2859076" y="157.736367"/>
     <use style="fill:#ff0000;stroke:#ff0000;" x="341.303802" xlink:href="#mc0f2859076" y="157.736367"/>
     <use style="fill:#ff0000;stroke:#ff0000;" x="343.14843" xlink:href="#mc0f2859076" y="158.59909"/>
     <use style="fill:#ff0000;stroke:#ff0000;" x="344.993058" xlink:href="#mc0f2859076" y="158.59909"/>
     <use style="fill:#ff0000;stroke:#ff0000;" x="346.837686" xlink:href="#mc0f2859076" y="138.070128"/>
     <use style="fill:#ff0000;stroke:#ff0000;" x="348.682314" xlink:href="#mc0f2859076" y="138.070128"/>
     <use style="fill:#ff0000;stroke:#ff0000;" x="350.526942" xlink:href="#mc0f2859076" y="119.782969"/>
     <use style="fill:#ff0000;stroke:#ff0000;" x="352.37157" xlink:href="#mc0f2859076" y="119.782969"/>
     <use style="fill:#ff0000;stroke:#ff0000;" x="354.216198" xlink:href="#mc0f2859076" y="119.782969"/>
     <use style="fill:#ff0000;stroke:#ff0000;" x="356.060826" xlink:href="#mc0f2859076" y="142.393792"/>
     <use style="fill:#ff0000;stroke:#ff0000;" x="357.905455" xlink:href="#mc0f2859076" y="142.393792"/>
     <use style="fill:#ff0000;stroke:#ff0000;" x="359.750083" xlink:href="#mc0f2859076" y="118.738752"/>
     <use style="fill:#ff0000;stroke:#ff0000;" x="361.594711" xlink:href="#mc0f2859076" y="118.738752"/>
     <use style="fill:#ff0000;stroke:#ff0000;" x="363.439339" xlink:href="#mc0f2859076" y="100.351487"/>
     <use style="fill:#ff0000;stroke:#ff0000;" x="365.283967" xlink:href="#mc0f2859076" y="100.351487"/>
     <use style="fill:#ff0000;stroke:#ff0000;" x="367.128595" xlink:href="#mc0f2859076" y="122.057184"/>
     <use style="fill:#ff0000;stroke:#ff0000;" x="368.973223" xlink:href="#mc0f2859076" y="99.881887"/>
     <use style="fill:#ff0000;stroke:#ff0000;" x="370.817851" xlink:href="#mc0f2859076" y="99.881887"/>
     <use style="fill:#ff0000;stroke:#ff0000;" x="372.662479" xlink:href="#mc0f2859076" y="80.347341"/>
     <use style="fill:#ff0000;stroke:#ff0000;" x="374.507107" xlink:href="#mc0f2859076" y="80.347341"/>
     <use style="fill:#ff0000;stroke:#ff0000;" x="376.351736" xlink:href="#mc0f2859076" y="85.492462"/>
     <use style="fill:#ff0000;stroke:#ff0000;" x="378.196364" xlink:href="#mc0f2859076" y="85.492462"/>
     <use style="fill:#ff0000;stroke:#ff0000;" x="380.040992" xlink:href="#mc0f2859076" y="101.996584"/>
     <use style="fill:#ff0000;stroke:#ff0000;" x="381.88562" xlink:href="#mc0f2859076" y="101.996584"/>
     <use style="fill:#ff0000;stroke:#ff0000;" x="383.730248" xlink:href="#mc0f2859076" y="101.996584"/>
     <use style="fill:#ff0000;stroke:#ff0000;" x="385.574876" xlink:href="#mc0f2859076" y="124.250048"/>
     <use style="fill:#ff0000;stroke:#ff0000;" x="387.419504" xlink:href="#mc0f2859076" y="124.250048"/>
     <use style="fill:#ff0000;stroke:#ff0000;" x="389.264132" xlink:href="#mc0f2859076" y="125.906177"/>
     <use style="fill:#ff0000;stroke:#ff0000;" x="391.10876" xlink:href="#mc0f2859076" y="145.420098"/>
     <use style="fill:#ff0000;stroke:#ff0000;" x="392.953388" xlink:href="#mc0f2859076" y="145.420098"/>
     <use style="fill:#ff0000;stroke:#ff0000;" x="394.798017" xlink:href="#mc0f2859076" y="124.52905"/>
     <use style="fill:#ff0000;stroke:#ff0000;" x="396.642645" xlink:href="#mc0f2859076" y="124.52905"/>
     <use style="fill:#ff0000;stroke:#ff0000;" x="398.487273" xlink:href="#mc0f2859076" y="124.52905"/>
    </g>
   </g>
   <g id="patch_3">
    <path d="M 57.6 307.584 
L 57.6 41.472 
" style="fill:none;stroke:#000000;stroke-linecap:square;stroke-linejoin:miter;stroke-width:0.8;"/>
   </g>
   <g id="patch_4">
    <path d="M 414.72 307.584 
L 414.72 41.472 
" style="fill:none;stroke:#000000;stroke-linecap:square;stroke-linejoin:miter;stroke-width:0.8;"/>
   </g>
   <g id="patch_5">
    <path d="M 57.6 307.584 
L 414.72 307.584 
" style="fill:none;stroke:#000000;stroke-linecap:square;stroke-linejoin:miter;stroke-width:0.8;"/>
   </g>
   <g id="patch_6">
    <path d="M 57.6 41.472 
L 414.72 41.472 
" style="fill:none;stroke:#000000;stroke-linecap:square;stroke-linejoin:miter;stroke-width:0.8;"/>
   </g>
  </g>
 </g>
 <defs>
  <clipPath id="p45d485abc8">
   <rect height="266.112" width="357.12" x="57.6" y="41.472"/>
  </clipPath>
 </defs>
</svg>
