<?xml version="1.0" encoding="utf-8" standalone="no"?>
<!DOCTYPE svg PUBLIC "-//W3C//DTD SVG 1.1//EN"
  "http://www.w3.org/Graphics/SVG/1.1/DTD/svg11.dtd">
<!-- Created with matplotlib (https://matplotlib.org/) -->
<svg height="345.6pt" version="1.1" viewBox="0 0 460.8 345.6" width="460.8pt" xmlns="http://www.w3.org/2000/svg" xmlns:xlink="http://www.w3.org/1999/xlink">
 <defs>
  <style type="text/css">
*{stroke-linecap:butt;stroke-linejoin:round;}
  </style>
 </defs>
 <g id="figure_1">
  <g id="patch_1">
   <path d="M 0 345.6 
L 460.8 345.6 
L 460.8 0 
L 0 0 
z
" style="fill:#ffffff;"/>
  </g>
  <g id="axes_1">
   <g id="patch_2">
    <path d="M 57.6 307.584 
L 414.72 307.584 
L 414.72 41.472 
L 57.6 41.472 
z
" style="fill:#ffffff;"/>
   </g>
   <g id="line2d_1">
    <path clip-path="url(#pe9782382e5)" d="M 73.832727 54.857751 
L 74.69388 117.972571 
L 75.555033 117.972571 
L 76.416185 178.364198 
L 78.999643 178.364198 
L 79.860796 173.136714 
L 81.583101 173.136714 
L 82.444254 233.757672 
L 84.166559 233.757672 
L 85.027712 295.488 
L 85.888864 295.488 
L 86.750017 227.024412 
L 87.61117 227.024412 
L 88.472322 283.936945 
L 90.194627 283.936945 
L 91.05578 215.720482 
L 91.916933 215.720482 
L 92.778085 149.968874 
L 93.639238 149.968874 
L 94.500391 78.542555 
L 96.222696 78.542555 
L 97.083849 57.812874 
L 98.806154 57.812874 
L 99.667306 53.568 
L 101.389612 53.568 
L 102.250764 75.748782 
L 103.97307 75.748782 
L 104.834222 80.780442 
L 105.695375 80.780442 
L 106.556528 101.17403 
L 107.41768 79.918449 
L 108.278833 79.918449 
L 109.139986 103.185411 
L 110.001138 103.185411 
L 110.862291 79.462155 
L 111.723443 79.462155 
L 112.584596 99.048488 
L 115.168054 99.048488 
L 116.029207 103.961522 
L 116.890359 103.961522 
L 117.751512 123.207788 
L 118.612665 123.207788 
L 119.473817 143.56994 
L 120.33497 143.56994 
L 121.196122 120.498205 
L 122.057275 120.498205 
L 122.918428 96.63009 
L 123.77958 96.63009 
L 124.640733 76.17475 
L 126.363038 76.17475 
L 127.224191 57.416161 
L 128.085344 57.416161 
L 128.946496 78.195542 
L 129.807649 78.195542 
L 130.668802 98.717723 
L 132.391107 98.717723 
L 133.252259 118.391837 
L 134.113412 118.391837 
L 134.974565 138.376802 
L 135.835717 135.403961 
L 136.69687 135.403961 
L 137.558023 156.18917 
L 138.419175 156.18917 
L 139.280328 176.43139 
L 140.141481 176.43139 
L 141.002633 195.868822 
L 141.863786 195.868822 
L 142.724939 172.193669 
L 143.586091 170.484007 
L 146.169549 170.484007 
L 147.030702 193.238891 
L 147.891854 193.238891 
L 148.753007 188.555244 
L 149.61416 208.487216 
L 151.336465 208.487216 
L 152.197618 228.947224 
L 153.05877 228.947224 
L 153.919923 228.116791 
L 154.781075 228.116791 
L 155.642228 207.606637 
L 158.225686 207.606637 
L 159.086839 203.233915 
L 159.947991 203.233915 
L 160.809144 181.673835 
L 161.670297 200.279026 
L 163.392602 200.279026 
L 164.253755 176.222749 
L 165.114907 176.222749 
L 165.97606 178.285439 
L 166.837212 178.285439 
L 167.698365 154.820176 
L 168.559518 154.820176 
L 169.42067 134.633323 
L 170.281823 154.093301 
L 178.032197 154.093301 
L 178.893349 156.071327 
L 179.754502 156.071327 
L 181.476807 194.670252 
L 182.33796 194.670252 
L 183.199113 214.397347 
L 184.060265 214.397347 
L 184.921418 191.935116 
L 186.643723 191.935116 
L 187.504876 169.801043 
L 188.366028 169.801043 
L 189.227181 189.753688 
L 190.088334 189.753688 
L 190.949486 165.769301 
L 191.810639 165.769301 
L 192.671792 184.334565 
L 193.532944 184.969625 
L 194.394097 184.969625 
L 195.25525 181.082854 
L 196.977555 181.082854 
L 197.838707 157.736367 
L 198.69986 157.736367 
L 199.561013 158.59909 
L 200.422165 158.59909 
L 201.283318 138.070128 
L 202.144471 138.070128 
L 203.005623 119.782969 
L 204.727929 119.782969 
L 205.589081 142.393792 
L 206.450234 142.393792 
L 207.311387 118.738752 
L 208.172539 118.738752 
L 209.033692 100.351487 
L 209.894844 100.351487 
L 210.755997 122.057184 
L 211.61715 99.881887 
L 212.478302 99.881887 
L 213.339455 80.347341 
L 214.200608 80.347341 
L 215.06176 85.492462 
L 215.922913 85.492462 
L 216.784066 101.996584 
L 218.506371 101.996584 
L 219.367524 124.250048 
L 220.228676 124.250048 
L 221.089829 125.906177 
L 221.950981 145.420098 
L 222.812134 145.420098 
L 223.673287 124.52905 
L 225.395592 124.52905 
L 226.256745 123.369261 
L 227.117897 123.369261 
L 227.97905 101.616848 
L 228.840203 101.616848 
L 229.701355 125.574081 
L 230.562508 125.574081 
L 231.42366 103.53125 
L 232.284813 103.53125 
L 233.145966 123.207528 
L 398.487273 123.207528 
L 398.487273 123.207528 
" style="fill:none;stroke:#ff0000;stroke-linecap:square;stroke-width:12;"/>
    <defs>
     <path d="M 0 3 
C 0.795609 3 1.55874 2.683901 2.12132 2.12132 
C 2.683901 1.55874 3 0.795609 3 0 
C 3 -0.795609 2.683901 -1.55874 2.12132 -2.12132 
C 1.55874 -2.683901 0.795609 -3 0 -3 
C -0.795609 -3 -1.55874 -2.683901 -2.12132 -2.12132 
C -2.683901 -1.55874 -3 -0.795609 -3 0 
C -3 0.795609 -2.683901 1.55874 -2.12132 2.12132 
C -1.55874 2.683901 -0.795609 3 0 3 
z
" id="m81527af20b" style="stroke:#ff0000;"/>
    </defs>
    <g clip-path="url(#pe9782382e5)">
     <use style="fill:#ff0000;stroke:#ff0000;" x="73.832727" xlink:href="#m81527af20b" y="54.857751"/>
     <use style="fill:#ff0000;stroke:#ff0000;" x="74.69388" xlink:href="#m81527af20b" y="117.972571"/>
     <use style="fill:#ff0000;stroke:#ff0000;" x="75.555033" xlink:href="#m81527af20b" y="117.972571"/>
     <use style="fill:#ff0000;stroke:#ff0000;" x="76.416185" xlink:href="#m81527af20b" y="178.364198"/>
     <use style="fill:#ff0000;stroke:#ff0000;" x="77.277338" xlink:href="#m81527af20b" y="178.364198"/>
     <use style="fill:#ff0000;stroke:#ff0000;" x="78.13849" xlink:href="#m81527af20b" y="178.364198"/>
     <use style="fill:#ff0000;stroke:#ff0000;" x="78.999643" xlink:href="#m81527af20b" y="178.364198"/>
     <use style="fill:#ff0000;stroke:#ff0000;" x="79.860796" xlink:href="#m81527af20b" y="173.136714"/>
     <use style="fill:#ff0000;stroke:#ff0000;" x="80.721948" xlink:href="#m81527af20b" y="173.136714"/>
     <use style="fill:#ff0000;stroke:#ff0000;" x="81.583101" xlink:href="#m81527af20b" y="173.136714"/>
     <use style="fill:#ff0000;stroke:#ff0000;" x="82.444254" xlink:href="#m81527af20b" y="233.757672"/>
     <use style="fill:#ff0000;stroke:#ff0000;" x="83.305406" xlink:href="#m81527af20b" y="233.757672"/>
     <use style="fill:#ff0000;stroke:#ff0000;" x="84.166559" xlink:href="#m81527af20b" y="233.757672"/>
     <use style="fill:#ff0000;stroke:#ff0000;" x="85.027712" xlink:href="#m81527af20b" y="295.488"/>
     <use style="fill:#ff0000;stroke:#ff0000;" x="85.888864" xlink:href="#m81527af20b" y="295.488"/>
     <use style="fill:#ff0000;stroke:#ff0000;" x="86.750017" xlink:href="#m81527af20b" y="227.024412"/>
     <use style="fill:#ff0000;stroke:#ff0000;" x="87.61117" xlink:href="#m81527af20b" y="227.024412"/>
     <use style="fill:#ff0000;stroke:#ff0000;" x="88.472322" xlink:href="#m81527af20b" y="283.936945"/>
     <use style="fill:#ff0000;stroke:#ff0000;" x="89.333475" xlink:href="#m81527af20b" y="283.936945"/>
     <use style="fill:#ff0000;stroke:#ff0000;" x="90.194627" xlink:href="#m81527af20b" y="283.936945"/>
     <use style="fill:#ff0000;stroke:#ff0000;" x="91.05578" xlink:href="#m81527af20b" y="215.720482"/>
     <use style="fill:#ff0000;stroke:#ff0000;" x="91.916933" xlink:href="#m81527af20b" y="215.720482"/>
     <use style="fill:#ff0000;stroke:#ff0000;" x="92.778085" xlink:href="#m81527af20b" y="149.968874"/>
     <use style="fill:#ff0000;stroke:#ff0000;" x="93.639238" xlink:href="#m81527af20b" y="149.968874"/>
     <use style="fill:#ff0000;stroke:#ff0000;" x="94.500391" xlink:href="#m81527af20b" y="78.542555"/>
     <use style="fill:#ff0000;stroke:#ff0000;" x="95.361543" xlink:href="#m81527af20b" y="78.542555"/>
     <use style="fill:#ff0000;stroke:#ff0000;" x="96.222696" xlink:href="#m81527af20b" y="78.542555"/>
     <use style="fill:#ff0000;stroke:#ff0000;" x="97.083849" xlink:href="#m81527af20b" y="57.812874"/>
     <use style="fill:#ff0000;stroke:#ff0000;" x="97.945001" xlink:href="#m81527af20b" y="57.812874"/>
     <use style="fill:#ff0000;stroke:#ff0000;" x="98.806154" xlink:href="#m81527af20b" y="57.812874"/>
     <use style="fill:#ff0000;stroke:#ff0000;" x="99.667306" xlink:href="#m81527af20b" y="53.568"/>
     <use style="fill:#ff0000;stroke:#ff0000;" x="100.528459" xlink:href="#m81527af20b" y="53.568"/>
     <use style="fill:#ff0000;stroke:#ff0000;" x="101.389612" xlink:href="#m81527af20b" y="53.568"/>
     <use style="fill:#ff0000;stroke:#ff0000;" x="102.250764" xlink:href="#m81527af20b" y="75.748782"/>
     <use style="fill:#ff0000;stroke:#ff0000;" x="103.111917" xlink:href="#m81527af20b" y="75.748782"/>
     <use style="fill:#ff0000;stroke:#ff0000;" x="103.97307" xlink:href="#m81527af20b" y="75.748782"/>
     <use style="fill:#ff0000;stroke:#ff0000;" x="104.834222" xlink:href="#m81527af20b" y="80.780442"/>
     <use style="fill:#ff0000;stroke:#ff0000;" x="105.695375" xlink:href="#m81527af20b" y="80.780442"/>
     <use style="fill:#ff0000;stroke:#ff0000;" x="106.556528" xlink:href="#m81527af20b" y="101.17403"/>
     <use style="fill:#ff0000;stroke:#ff0000;" x="107.41768" xlink:href="#m81527af20b" y="79.918449"/>
     <use style="fill:#ff0000;stroke:#ff0000;" x="108.278833" xlink:href="#m81527af20b" y="79.918449"/>
     <use style="fill:#ff0000;stroke:#ff0000;" x="109.139986" xlink:href="#m81527af20b" y="103.185411"/>
     <use style="fill:#ff0000;stroke:#ff0000;" x="110.001138" xlink:href="#m81527af20b" y="103.185411"/>
     <use style="fill:#ff0000;stroke:#ff0000;" x="110.862291" xlink:href="#m81527af20b" y="79.462155"/>
     <use style="fill:#ff0000;stroke:#ff0000;" x="111.723443" xlink:href="#m81527af20b" y="79.462155"/>
     <use style="fill:#ff0000;stroke:#ff0000;" x="112.584596" xlink:href="#m81527af20b" y="99.048488"/>
     <use style="fill:#ff0000;stroke:#ff0000;" x="113.445749" xlink:href="#m81527af20b" y="99.048488"/>
     <use style="fill:#ff0000;stroke:#ff0000;" x="114.306901" xlink:href="#m81527af20b" y="99.048488"/>
     <use style="fill:#ff0000;stroke:#ff0000;" x="115.168054" xlink:href="#m81527af20b" y="99.048488"/>
     <use style="fill:#ff0000;stroke:#ff0000;" x="116.029207" xlink:href="#m81527af20b" y="103.961522"/>
     <use style="fill:#ff0000;stroke:#ff0000;" x="116.890359" xlink:href="#m81527af20b" y="103.961522"/>
     <use style="fill:#ff0000;stroke:#ff0000;" x="117.751512" xlink:href="#m81527af20b" y="123.207788"/>
     <use style="fill:#ff0000;stroke:#ff0000;" x="118.612665" xlink:href="#m81527af20b" y="123.207788"/>
     <use style="fill:#ff0000;stroke:#ff0000;" x="119.473817" xlink:href="#m81527af20b" y="143.56994"/>
     <use style="fill:#ff0000;stroke:#ff0000;" x="120.33497" xlink:href="#m81527af20b" y="143.56994"/>
     <use style="fill:#ff0000;stroke:#ff0000;" x="121.196122" xlink:href="#m81527af20b" y="120.498205"/>
     <use style="fill:#ff0000;stroke:#ff0000;" x="122.057275" xlink:href="#m81527af20b" y="120.498205"/>
     <use style="fill:#ff0000;stroke:#ff0000;" x="122.918428" xlink:href="#m81527af20b" y="96.63009"/>
     <use style="fill:#ff0000;stroke:#ff0000;" x="123.77958" xlink:href="#m81527af20b" y="96.63009"/>
     <use style="fill:#ff0000;stroke:#ff0000;" x="124.640733" xlink:href="#m81527af20b" y="76.17475"/>
     <use style="fill:#ff0000;stroke:#ff0000;" x="125.501886" xlink:href="#m81527af20b" y="76.17475"/>
     <use style="fill:#ff0000;stroke:#ff0000;" x="126.363038" xlink:href="#m81527af20b" y="76.17475"/>
     <use style="fill:#ff0000;stroke:#ff0000;" x="127.224191" xlink:href="#m81527af20b" y="57.416161"/>
     <use style="fill:#ff0000;stroke:#ff0000;" x="128.085344" xlink:href="#m81527af20b" y="57.416161"/>
     <use style="fill:#ff0000;stroke:#ff0000;" x="128.946496" xlink:href="#m81527af20b" y="78.195542"/>
     <use style="fill:#ff0000;stroke:#ff0000;" x="129.807649" xlink:href="#m81527af20b" y="78.195542"/>
     <use style="fill:#ff0000;stroke:#ff0000;" x="130.668802" xlink:href="#m81527af20b" y="98.717723"/>
     <use style="fill:#ff0000;stroke:#ff0000;" x="131.529954" xlink:href="#m81527af20b" y="98.717723"/>
     <use style="fill:#ff0000;stroke:#ff0000;" x="132.391107" xlink:href="#m81527af20b" y="98.717723"/>
     <use style="fill:#ff0000;stroke:#ff0000;" x="133.252259" xlink:href="#m81527af20b" y="118.391837"/>
     <use style="fill:#ff0000;stroke:#ff0000;" x="134.113412" xlink:href="#m81527af20b" y="118.391837"/>
     <use style="fill:#ff0000;stroke:#ff0000;" x="134.974565" xlink:href="#m81527af20b" y="138.376802"/>
     <use style="fill:#ff0000;stroke:#ff0000;" x="135.835717" xlink:href="#m81527af20b" y="135.403961"/>
     <use style="fill:#ff0000;stroke:#ff0000;" x="136.69687" xlink:href="#m81527af20b" y="135.403961"/>
     <use style="fill:#ff0000;stroke:#ff0000;" x="137.558023" xlink:href="#m81527af20b" y="156.18917"/>
     <use style="fill:#ff0000;stroke:#ff0000;" x="138.419175" xlink:href="#m81527af20b" y="156.18917"/>
     <use style="fill:#ff0000;stroke:#ff0000;" x="139.280328" xlink:href="#m81527af20b" y="176.43139"/>
     <use style="fill:#ff0000;stroke:#ff0000;" x="140.141481" xlink:href="#m81527af20b" y="176.43139"/>
     <use style="fill:#ff0000;stroke:#ff0000;" x="141.002633" xlink:href="#m81527af20b" y="195.868822"/>
     <use style="fill:#ff0000;stroke:#ff0000;" x="141.863786" xlink:href="#m81527af20b" y="195.868822"/>
     <use style="fill:#ff0000;stroke:#ff0000;" x="142.724939" xlink:href="#m81527af20b" y="172.193669"/>
     <use style="fill:#ff0000;stroke:#ff0000;" x="143.586091" xlink:href="#m81527af20b" y="170.484007"/>
     <use style="fill:#ff0000;stroke:#ff0000;" x="144.447244" xlink:href="#m81527af20b" y="170.484007"/>
     <use style="fill:#ff0000;stroke:#ff0000;" x="145.308396" xlink:href="#m81527af20b" y="170.484007"/>
     <use style="fill:#ff0000;stroke:#ff0000;" x="146.169549" xlink:href="#m81527af20b" y="170.484007"/>
     <use style="fill:#ff0000;stroke:#ff0000;" x="147.030702" xlink:href="#m81527af20b" y="193.238891"/>
     <use style="fill:#ff0000;stroke:#ff0000;" x="147.891854" xlink:href="#m81527af20b" y="193.238891"/>
     <use style="fill:#ff0000;stroke:#ff0000;" x="148.753007" xlink:href="#m81527af20b" y="188.555244"/>
     <use style="fill:#ff0000;stroke:#ff0000;" x="149.61416" xlink:href="#m81527af20b" y="208.487216"/>
     <use style="fill:#ff0000;stroke:#ff0000;" x="150.475312" xlink:href="#m81527af20b" y="208.487216"/>
     <use style="fill:#ff0000;stroke:#ff0000;" x="151.336465" xlink:href="#m81527af20b" y="208.487216"/>
     <use style="fill:#ff0000;stroke:#ff0000;" x="152.197618" xlink:href="#m81527af20b" y="228.947224"/>
     <use style="fill:#ff0000;stroke:#ff0000;" x="153.05877" xlink:href="#m81527af20b" y="228.947224"/>
     <use style="fill:#ff0000;stroke:#ff0000;" x="153.919923" xlink:href="#m81527af20b" y="228.116791"/>
     <use style="fill:#ff0000;stroke:#ff0000;" x="154.781075" xlink:href="#m81527af20b" y="228.116791"/>
     <use style="fill:#ff0000;stroke:#ff0000;" x="155.642228" xlink:href="#m81527af20b" y="207.606637"/>
     <use style="fill:#ff0000;stroke:#ff0000;" x="156.503381" xlink:href="#m81527af20b" y="207.606637"/>
     <use style="fill:#ff0000;stroke:#ff0000;" x="157.364533" xlink:href="#m81527af20b" y="207.606637"/>
     <use style="fill:#ff0000;stroke:#ff0000;" x="158.225686" xlink:href="#m81527af20b" y="207.606637"/>
     <use style="fill:#ff0000;stroke:#ff0000;" x="159.086839" xlink:href="#m81527af20b" y="203.233915"/>
     <use style="fill:#ff0000;stroke:#ff0000;" x="159.947991" xlink:href="#m81527af20b" y="203.233915"/>
     <use style="fill:#ff0000;stroke:#ff0000;" x="160.809144" xlink:href="#m81527af20b" y="181.673835"/>
     <use style="fill:#ff0000;stroke:#ff0000;" x="161.670297" xlink:href="#m81527af20b" y="200.279026"/>
     <use style="fill:#ff0000;stroke:#ff0000;" x="162.531449" xlink:href="#m81527af20b" y="200.279026"/>
     <use style="fill:#ff0000;stroke:#ff0000;" x="163.392602" xlink:href="#m81527af20b" y="200.279026"/>
     <use style="fill:#ff0000;stroke:#ff0000;" x="164.253755" xlink:href="#m81527af20b" y="176.222749"/>
     <use style="fill:#ff0000;stroke:#ff0000;" x="165.114907" xlink:href="#m81527af20b" y="176.222749"/>
     <use style="fill:#ff0000;stroke:#ff0000;" x="165.97606" xlink:href="#m81527af20b" y="178.285439"/>
     <use style="fill:#ff0000;stroke:#ff0000;" x="166.837212" xlink:href="#m81527af20b" y="178.285439"/>
     <use style="fill:#ff0000;stroke:#ff0000;" x="167.698365" xlink:href="#m81527af20b" y="154.820176"/>
     <use style="fill:#ff0000;stroke:#ff0000;" x="168.559518" xlink:href="#m81527af20b" y="154.820176"/>
     <use style="fill:#ff0000;stroke:#ff0000;" x="169.42067" xlink:href="#m81527af20b" y="134.633323"/>
     <use style="fill:#ff0000;stroke:#ff0000;" x="170.281823" xlink:href="#m81527af20b" y="154.093301"/>
     <use style="fill:#ff0000;stroke:#ff0000;" x="171.142976" xlink:href="#m81527af20b" y="154.093301"/>
     <use style="fill:#ff0000;stroke:#ff0000;" x="172.004128" xlink:href="#m81527af20b" y="154.093301"/>
     <use style="fill:#ff0000;stroke:#ff0000;" x="172.865281" xlink:href="#m81527af20b" y="154.093301"/>
     <use style="fill:#ff0000;stroke:#ff0000;" x="173.726434" xlink:href="#m81527af20b" y="154.093301"/>
     <use style="fill:#ff0000;stroke:#ff0000;" x="174.587586" xlink:href="#m81527af20b" y="154.093301"/>
     <use style="fill:#ff0000;stroke:#ff0000;" x="175.448739" xlink:href="#m81527af20b" y="154.093301"/>
     <use style="fill:#ff0000;stroke:#ff0000;" x="176.309891" xlink:href="#m81527af20b" y="154.093301"/>
     <use style="fill:#ff0000;stroke:#ff0000;" x="177.171044" xlink:href="#m81527af20b" y="154.093301"/>
     <use style="fill:#ff0000;stroke:#ff0000;" x="178.032197" xlink:href="#m81527af20b" y="154.093301"/>
     <use style="fill:#ff0000;stroke:#ff0000;" x="178.893349" xlink:href="#m81527af20b" y="156.071327"/>
     <use style="fill:#ff0000;stroke:#ff0000;" x="179.754502" xlink:href="#m81527af20b" y="156.071327"/>
     <use style="fill:#ff0000;stroke:#ff0000;" x="180.615655" xlink:href="#m81527af20b" y="176.22974"/>
     <use style="fill:#ff0000;stroke:#ff0000;" x="181.476807" xlink:href="#m81527af20b" y="194.670252"/>
     <use style="fill:#ff0000;stroke:#ff0000;" x="182.33796" xlink:href="#m81527af20b" y="194.670252"/>
     <use style="fill:#ff0000;stroke:#ff0000;" x="183.199113" xlink:href="#m81527af20b" y="214.397347"/>
     <use style="fill:#ff0000;stroke:#ff0000;" x="184.060265" xlink:href="#m81527af20b" y="214.397347"/>
     <use style="fill:#ff0000;stroke:#ff0000;" x="184.921418" xlink:href="#m81527af20b" y="191.935116"/>
     <use style="fill:#ff0000;stroke:#ff0000;" x="185.782571" xlink:href="#m81527af20b" y="191.935116"/>
     <use style="fill:#ff0000;stroke:#ff0000;" x="186.643723" xlink:href="#m81527af20b" y="191.935116"/>
     <use style="fill:#ff0000;stroke:#ff0000;" x="187.504876" xlink:href="#m81527af20b" y="169.801043"/>
     <use style="fill:#ff0000;stroke:#ff0000;" x="188.366028" xlink:href="#m81527af20b" y="169.801043"/>
     <use style="fill:#ff0000;stroke:#ff0000;" x="189.227181" xlink:href="#m81527af20b" y="189.753688"/>
     <use style="fill:#ff0000;stroke:#ff0000;" x="190.088334" xlink:href="#m81527af20b" y="189.753688"/>
     <use style="fill:#ff0000;stroke:#ff0000;" x="190.949486" xlink:href="#m81527af20b" y="165.769301"/>
     <use style="fill:#ff0000;stroke:#ff0000;" x="191.810639" xlink:href="#m81527af20b" y="165.769301"/>
     <use style="fill:#ff0000;stroke:#ff0000;" x="192.671792" xlink:href="#m81527af20b" y="184.334565"/>
     <use style="fill:#ff0000;stroke:#ff0000;" x="193.532944" xlink:href="#m81527af20b" y="184.969625"/>
     <use style="fill:#ff0000;stroke:#ff0000;" x="194.394097" xlink:href="#m81527af20b" y="184.969625"/>
     <use style="fill:#ff0000;stroke:#ff0000;" x="195.25525" xlink:href="#m81527af20b" y="181.082854"/>
     <use style="fill:#ff0000;stroke:#ff0000;" x="196.116402" xlink:href="#m81527af20b" y="181.082854"/>
     <use style="fill:#ff0000;stroke:#ff0000;" x="196.977555" xlink:href="#m81527af20b" y="181.082854"/>
     <use style="fill:#ff0000;stroke:#ff0000;" x="197.838707" xlink:href="#m81527af20b" y="157.736367"/>
     <use style="fill:#ff0000;stroke:#ff0000;" x="198.69986" xlink:href="#m81527af20b" y="157.736367"/>
     <use style="fill:#ff0000;stroke:#ff0000;" x="199.561013" xlink:href="#m81527af20b" y="158.59909"/>
     <use style="fill:#ff0000;stroke:#ff0000;" x="200.422165" xlink:href="#m81527af20b" y="158.59909"/>
     <use style="fill:#ff0000;stroke:#ff0000;" x="201.283318" xlink:href="#m81527af20b" y="138.070128"/>
     <use style="fill:#ff0000;stroke:#ff0000;" x="202.144471" xlink:href="#m81527af20b" y="138.070128"/>
     <use style="fill:#ff0000;stroke:#ff0000;" x="203.005623" xlink:href="#m81527af20b" y="119.782969"/>
     <use style="fill:#ff0000;stroke:#ff0000;" x="203.866776" xlink:href="#m81527af20b" y="119.782969"/>
     <use style="fill:#ff0000;stroke:#ff0000;" x="204.727929" xlink:href="#m81527af20b" y="119.782969"/>
     <use style="fill:#ff0000;stroke:#ff0000;" x="205.589081" xlink:href="#m81527af20b" y="142.393792"/>
     <use style="fill:#ff0000;stroke:#ff0000;" x="206.450234" xlink:href="#m81527af20b" y="142.393792"/>
     <use style="fill:#ff0000;stroke:#ff0000;" x="207.311387" xlink:href="#m81527af20b" y="118.738752"/>
     <use style="fill:#ff0000;stroke:#ff0000;" x="208.172539" xlink:href="#m81527af20b" y="118.738752"/>
     <use style="fill:#ff0000;stroke:#ff0000;" x="209.033692" xlink:href="#m81527af20b" y="100.351487"/>
     <use style="fill:#ff0000;stroke:#ff0000;" x="209.894844" xlink:href="#m81527af20b" y="100.351487"/>
     <use style="fill:#ff0000;stroke:#ff0000;" x="210.755997" xlink:href="#m81527af20b" y="122.057184"/>
     <use style="fill:#ff0000;stroke:#ff0000;" x="211.61715" xlink:href="#m81527af20b" y="99.881887"/>
     <use style="fill:#ff0000;stroke:#ff0000;" x="212.478302" xlink:href="#m81527af20b" y="99.881887"/>
     <use style="fill:#ff0000;stroke:#ff0000;" x="213.339455" xlink:href="#m81527af20b" y="80.347341"/>
     <use style="fill:#ff0000;stroke:#ff0000;" x="214.200608" xlink:href="#m81527af20b" y="80.347341"/>
     <use style="fill:#ff0000;stroke:#ff0000;" x="215.06176" xlink:href="#m81527af20b" y="85.492462"/>
     <use style="fill:#ff0000;stroke:#ff0000;" x="215.922913" xlink:href="#m81527af20b" y="85.492462"/>
     <use style="fill:#ff0000;stroke:#ff0000;" x="216.784066" xlink:href="#m81527af20b" y="101.996584"/>
     <use style="fill:#ff0000;stroke:#ff0000;" x="217.645218" xlink:href="#m81527af20b" y="101.996584"/>
     <use style="fill:#ff0000;stroke:#ff0000;" x="218.506371" xlink:href="#m81527af20b" y="101.996584"/>
     <use style="fill:#ff0000;stroke:#ff0000;" x="219.367524" xlink:href="#m81527af20b" y="124.250048"/>
     <use style="fill:#ff0000;stroke:#ff0000;" x="220.228676" xlink:href="#m81527af20b" y="124.250048"/>
     <use style="fill:#ff0000;stroke:#ff0000;" x="221.089829" xlink:href="#m81527af20b" y="125.906177"/>
     <use style="fill:#ff0000;stroke:#ff0000;" x="221.950981" xlink:href="#m81527af20b" y="145.420098"/>
     <use style="fill:#ff0000;stroke:#ff0000;" x="222.812134" xlink:href="#m81527af20b" y="145.420098"/>
     <use style="fill:#ff0000;stroke:#ff0000;" x="223.673287" xlink:href="#m81527af20b" y="124.52905"/>
     <use style="fill:#ff0000;stroke:#ff0000;" x="224.534439" xlink:href="#m81527af20b" y="124.52905"/>
     <use style="fill:#ff0000;stroke:#ff0000;" x="225.395592" xlink:href="#m81527af20b" y="124.52905"/>
     <use style="fill:#ff0000;stroke:#ff0000;" x="226.256745" xlink:href="#m81527af20b" y="123.369261"/>
     <use style="fill:#ff0000;stroke:#ff0000;" x="227.117897" xlink:href="#m81527af20b" y="123.369261"/>
     <use style="fill:#ff0000;stroke:#ff0000;" x="227.97905" xlink:href="#m81527af20b" y="101.616848"/>
     <use style="fill:#ff0000;stroke:#ff0000;" x="228.840203" xlink:href="#m81527af20b" y="101.616848"/>
     <use style="fill:#ff0000;stroke:#ff0000;" x="229.701355" xlink:href="#m81527af20b" y="125.574081"/>
     <use style="fill:#ff0000;stroke:#ff0000;" x="230.562508" xlink:href="#m81527af20b" y="125.574081"/>
     <use style="fill:#ff0000;stroke:#ff0000;" x="231.42366" xlink:href="#m81527af20b" y="103.53125"/>
     <use style="fill:#ff0000;stroke:#ff0000;" x="232.284813" xlink:href="#m81527af20b" y="103.53125"/>
     <use style="fill:#ff0000;stroke:#ff0000;" x="233.145966" xlink:href="#m81527af20b" y="123.207528"/>
     <use style="fill:#ff0000;stroke:#ff0000;" x="234.007118" xlink:href="#m81527af20b" y="123.207528"/>
     <use style="fill:#ff0000;stroke:#ff0000;" x="234.868271" xlink:href="#m81527af20b" y="123.207528"/>
     <use style="fill:#ff0000;stroke:#ff0000;" x="235.729424" xlink:href="#m81527af20b" y="123.207528"/>
     <use style="fill:#ff0000;stroke:#ff0000;" x="236.590576" xlink:href="#m81527af20b" y="123.207528"/>
     <use style="fill:#ff0000;stroke:#ff0000;" x="237.451729" xlink:href="#m81527af20b" y="123.207528"/>
     <use style="fill:#ff0000;stroke:#ff0000;" x="238.312882" xlink:href="#m81527af20b" y="123.207528"/>
     <use style="fill:#ff0000;stroke:#ff0000;" x="239.174034" xlink:href="#m81527af20b" y="123.207528"/>
     <use style="fill:#ff0000;stroke:#ff0000;" x="240.035187" xlink:href="#m81527af20b" y="123.207528"/>
     <use style="fill:#ff0000;stroke:#ff0000;" x="240.89634" xlink:href="#m81527af20b" y="123.207528"/>
     <use style="fill:#ff0000;stroke:#ff0000;" x="241.757492" xlink:href="#m81527af20b" y="123.207528"/>
     <use style="fill:#ff0000;stroke:#ff0000;" x="242.618645" xlink:href="#m81527af20b" y="123.207528"/>
     <use style="fill:#ff0000;stroke:#ff0000;" x="243.479797" xlink:href="#m81527af20b" y="123.207528"/>
     <use style="fill:#ff0000;stroke:#ff0000;" x="244.34095" xlink:href="#m81527af20b" y="123.207528"/>
     <use style="fill:#ff0000;stroke:#ff0000;" x="245.202103" xlink:href="#m81527af20b" y="123.207528"/>
     <use style="fill:#ff0000;stroke:#ff0000;" x="246.063255" xlink:href="#m81527af20b" y="123.207528"/>
     <use style="fill:#ff0000;stroke:#ff0000;" x="246.924408" xlink:href="#m81527af20b" y="123.207528"/>
     <use style="fill:#ff0000;stroke:#ff0000;" x="247.785561" xlink:href="#m81527af20b" y="123.207528"/>
     <use style="fill:#ff0000;stroke:#ff0000;" x="248.646713" xlink:href="#m81527af20b" y="123.207528"/>
     <use style="fill:#ff0000;stroke:#ff0000;" x="249.507866" xlink:href="#m81527af20b" y="123.207528"/>
     <use style="fill:#ff0000;stroke:#ff0000;" x="250.369019" xlink:href="#m81527af20b" y="123.207528"/>
     <use style="fill:#ff0000;stroke:#ff0000;" x="251.230171" xlink:href="#m81527af20b" y="123.207528"/>
     <use style="fill:#ff0000;stroke:#ff0000;" x="252.091324" xlink:href="#m81527af20b" y="123.207528"/>
     <use style="fill:#ff0000;stroke:#ff0000;" x="252.952476" xlink:href="#m81527af20b" y="123.207528"/>
     <use style="fill:#ff0000;stroke:#ff0000;" x="253.813629" xlink:href="#m81527af20b" y="123.207528"/>
     <use style="fill:#ff0000;stroke:#ff0000;" x="254.674782" xlink:href="#m81527af20b" y="123.207528"/>
     <use style="fill:#ff0000;stroke:#ff0000;" x="255.535934" xlink:href="#m81527af20b" y="123.207528"/>
     <use style="fill:#ff0000;stroke:#ff0000;" x="256.397087" xlink:href="#m81527af20b" y="123.207528"/>
     <use style="fill:#ff0000;stroke:#ff0000;" x="257.25824" xlink:href="#m81527af20b" y="123.207528"/>
     <use style="fill:#ff0000;stroke:#ff0000;" x="258.119392" xlink:href="#m81527af20b" y="123.207528"/>
     <use style="fill:#ff0000;stroke:#ff0000;" x="258.980545" xlink:href="#m81527af20b" y="123.207528"/>
     <use style="fill:#ff0000;stroke:#ff0000;" x="259.841698" xlink:href="#m81527af20b" y="123.207528"/>
     <use style="fill:#ff0000;stroke:#ff0000;" x="260.70285" xlink:href="#m81527af20b" y="123.207528"/>
     <use style="fill:#ff0000;stroke:#ff0000;" x="261.564003" xlink:href="#m81527af20b" y="123.207528"/>
     <use style="fill:#ff0000;stroke:#ff0000;" x="262.425156" xlink:href="#m81527af20b" y="123.207528"/>
     <use style="fill:#ff0000;stroke:#ff0000;" x="263.286308" xlink:href="#m81527af20b" y="123.207528"/>
     <use style="fill:#ff0000;stroke:#ff0000;" x="264.147461" xlink:href="#m81527af20b" y="123.207528"/>
     <use style="fill:#ff0000;stroke:#ff0000;" x="265.008613" xlink:href="#m81527af20b" y="123.207528"/>
     <use style="fill:#ff0000;stroke:#ff0000;" x="265.869766" xlink:href="#m81527af20b" y="123.207528"/>
     <use style="fill:#ff0000;stroke:#ff0000;" x="266.730919" xlink:href="#m81527af20b" y="123.207528"/>
     <use style="fill:#ff0000;stroke:#ff0000;" x="267.592071" xlink:href="#m81527af20b" y="123.207528"/>
     <use style="fill:#ff0000;stroke:#ff0000;" x="268.453224" xlink:href="#m81527af20b" y="123.207528"/>
     <use style="fill:#ff0000;stroke:#ff0000;" x="269.314377" xlink:href="#m81527af20b" y="123.207528"/>
     <use style="fill:#ff0000;stroke:#ff0000;" x="270.175529" xlink:href="#m81527af20b" y="123.207528"/>
     <use style="fill:#ff0000;stroke:#ff0000;" x="271.036682" xlink:href="#m81527af20b" y="123.207528"/>
     <use style="fill:#ff0000;stroke:#ff0000;" x="271.897835" xlink:href="#m81527af20b" y="123.207528"/>
     <use style="fill:#ff0000;stroke:#ff0000;" x="272.758987" xlink:href="#m81527af20b" y="123.207528"/>
     <use style="fill:#ff0000;stroke:#ff0000;" x="273.62014" xlink:href="#m81527af20b" y="123.207528"/>
     <use style="fill:#ff0000;stroke:#ff0000;" x="274.481293" xlink:href="#m81527af20b" y="123.207528"/>
     <use style="fill:#ff0000;stroke:#ff0000;" x="275.342445" xlink:href="#m81527af20b" y="123.207528"/>
     <use style="fill:#ff0000;stroke:#ff0000;" x="276.203598" xlink:href="#m81527af20b" y="123.207528"/>
     <use style="fill:#ff0000;stroke:#ff0000;" x="277.06475" xlink:href="#m81527af20b" y="123.207528"/>
     <use style="fill:#ff0000;stroke:#ff0000;" x="277.925903" xlink:href="#m81527af20b" y="123.207528"/>
     <use style="fill:#ff0000;stroke:#ff0000;" x="278.787056" xlink:href="#m81527af20b" y="123.207528"/>
     <use style="fill:#ff0000;stroke:#ff0000;" x="279.648208" xlink:href="#m81527af20b" y="123.207528"/>
     <use style="fill:#ff0000;stroke:#ff0000;" x="280.509361" xlink:href="#m81527af20b" y="123.207528"/>
     <use style="fill:#ff0000;stroke:#ff0000;" x="281.370514" xlink:href="#m81527af20b" y="123.207528"/>
     <use style="fill:#ff0000;stroke:#ff0000;" x="282.231666" xlink:href="#m81527af20b" y="123.207528"/>
     <use style="fill:#ff0000;stroke:#ff0000;" x="283.092819" xlink:href="#m81527af20b" y="123.207528"/>
     <use style="fill:#ff0000;stroke:#ff0000;" x="283.953972" xlink:href="#m81527af20b" y="123.207528"/>
     <use style="fill:#ff0000;stroke:#ff0000;" x="284.815124" xlink:href="#m81527af20b" y="123.207528"/>
     <use style="fill:#ff0000;stroke:#ff0000;" x="285.676277" xlink:href="#m81527af20b" y="123.207528"/>
     <use style="fill:#ff0000;stroke:#ff0000;" x="286.537429" xlink:href="#m81527af20b" y="123.207528"/>
     <use style="fill:#ff0000;stroke:#ff0000;" x="287.398582" xlink:href="#m81527af20b" y="123.207528"/>
     <use style="fill:#ff0000;stroke:#ff0000;" x="288.259735" xlink:href="#m81527af20b" y="123.207528"/>
     <use style="fill:#ff0000;stroke:#ff0000;" x="289.120887" xlink:href="#m81527af20b" y="123.207528"/>
     <use style="fill:#ff0000;stroke:#ff0000;" x="289.98204" xlink:href="#m81527af20b" y="123.207528"/>
     <use style="fill:#ff0000;stroke:#ff0000;" x="290.843193" xlink:href="#m81527af20b" y="123.207528"/>
     <use style="fill:#ff0000;stroke:#ff0000;" x="291.704345" xlink:href="#m81527af20b" y="123.207528"/>
     <use style="fill:#ff0000;stroke:#ff0000;" x="292.565498" xlink:href="#m81527af20b" y="123.207528"/>
     <use style="fill:#ff0000;stroke:#ff0000;" x="293.426651" xlink:href="#m81527af20b" y="123.207528"/>
     <use style="fill:#ff0000;stroke:#ff0000;" x="294.287803" xlink:href="#m81527af20b" y="123.207528"/>
     <use style="fill:#ff0000;stroke:#ff0000;" x="295.148956" xlink:href="#m81527af20b" y="123.207528"/>
     <use style="fill:#ff0000;stroke:#ff0000;" x="296.010109" xlink:href="#m81527af20b" y="123.207528"/>
     <use style="fill:#ff0000;stroke:#ff0000;" x="296.871261" xlink:href="#m81527af20b" y="123.207528"/>
     <use style="fill:#ff0000;stroke:#ff0000;" x="297.732414" xlink:href="#m81527af20b" y="123.207528"/>
     <use style="fill:#ff0000;stroke:#ff0000;" x="298.593566" xlink:href="#m81527af20b" y="123.207528"/>
     <use style="fill:#ff0000;stroke:#ff0000;" x="299.454719" xlink:href="#m81527af20b" y="123.207528"/>
     <use style="fill:#ff0000;stroke:#ff0000;" x="300.315872" xlink:href="#m81527af20b" y="123.207528"/>
     <use style="fill:#ff0000;stroke:#ff0000;" x="301.177024" xlink:href="#m81527af20b" y="123.207528"/>
     <use style="fill:#ff0000;stroke:#ff0000;" x="302.038177" xlink:href="#m81527af20b" y="123.207528"/>
     <use style="fill:#ff0000;stroke:#ff0000;" x="302.89933" xlink:href="#m81527af20b" y="123.207528"/>
     <use style="fill:#ff0000;stroke:#ff0000;" x="303.760482" xlink:href="#m81527af20b" y="123.207528"/>
     <use style="fill:#ff0000;stroke:#ff0000;" x="304.621635" xlink:href="#m81527af20b" y="123.207528"/>
     <use style="fill:#ff0000;stroke:#ff0000;" x="305.482788" xlink:href="#m81527af20b" y="123.207528"/>
     <use style="fill:#ff0000;stroke:#ff0000;" x="306.34394" xlink:href="#m81527af20b" y="123.207528"/>
     <use style="fill:#ff0000;stroke:#ff0000;" x="307.205093" xlink:href="#m81527af20b" y="123.207528"/>
     <use style="fill:#ff0000;stroke:#ff0000;" x="308.066245" xlink:href="#m81527af20b" y="123.207528"/>
     <use style="fill:#ff0000;stroke:#ff0000;" x="308.927398" xlink:href="#m81527af20b" y="123.207528"/>
     <use style="fill:#ff0000;stroke:#ff0000;" x="309.788551" xlink:href="#m81527af20b" y="123.207528"/>
     <use style="fill:#ff0000;stroke:#ff0000;" x="310.649703" xlink:href="#m81527af20b" y="123.207528"/>
     <use style="fill:#ff0000;stroke:#ff0000;" x="311.510856" xlink:href="#m81527af20b" y="123.207528"/>
     <use style="fill:#ff0000;stroke:#ff0000;" x="312.372009" xlink:href="#m81527af20b" y="123.207528"/>
     <use style="fill:#ff0000;stroke:#ff0000;" x="313.233161" xlink:href="#m81527af20b" y="123.207528"/>
     <use style="fill:#ff0000;stroke:#ff0000;" x="314.094314" xlink:href="#m81527af20b" y="123.207528"/>
     <use style="fill:#ff0000;stroke:#ff0000;" x="314.955467" xlink:href="#m81527af20b" y="123.207528"/>
     <use style="fill:#ff0000;stroke:#ff0000;" x="315.816619" xlink:href="#m81527af20b" y="123.207528"/>
     <use style="fill:#ff0000;stroke:#ff0000;" x="316.677772" xlink:href="#m81527af20b" y="123.207528"/>
     <use style="fill:#ff0000;stroke:#ff0000;" x="317.538925" xlink:href="#m81527af20b" y="123.207528"/>
     <use style="fill:#ff0000;stroke:#ff0000;" x="318.400077" xlink:href="#m81527af20b" y="123.207528"/>
     <use style="fill:#ff0000;stroke:#ff0000;" x="319.26123" xlink:href="#m81527af20b" y="123.207528"/>
     <use style="fill:#ff0000;stroke:#ff0000;" x="320.122382" xlink:href="#m81527af20b" y="123.207528"/>
     <use style="fill:#ff0000;stroke:#ff0000;" x="320.983535" xlink:href="#m81527af20b" y="123.207528"/>
     <use style="fill:#ff0000;stroke:#ff0000;" x="321.844688" xlink:href="#m81527af20b" y="123.207528"/>
     <use style="fill:#ff0000;stroke:#ff0000;" x="322.70584" xlink:href="#m81527af20b" y="123.207528"/>
     <use style="fill:#ff0000;stroke:#ff0000;" x="323.566993" xlink:href="#m81527af20b" y="123.207528"/>
     <use style="fill:#ff0000;stroke:#ff0000;" x="324.428146" xlink:href="#m81527af20b" y="123.207528"/>
     <use style="fill:#ff0000;stroke:#ff0000;" x="325.289298" xlink:href="#m81527af20b" y="123.207528"/>
     <use style="fill:#ff0000;stroke:#ff0000;" x="326.150451" xlink:href="#m81527af20b" y="123.207528"/>
     <use style="fill:#ff0000;stroke:#ff0000;" x="327.011604" xlink:href="#m81527af20b" y="123.207528"/>
     <use style="fill:#ff0000;stroke:#ff0000;" x="327.872756" xlink:href="#m81527af20b" y="123.207528"/>
     <use style="fill:#ff0000;stroke:#ff0000;" x="328.733909" xlink:href="#m81527af20b" y="123.207528"/>
     <use style="fill:#ff0000;stroke:#ff0000;" x="329.595061" xlink:href="#m81527af20b" y="123.207528"/>
     <use style="fill:#ff0000;stroke:#ff0000;" x="330.456214" xlink:href="#m81527af20b" y="123.207528"/>
     <use style="fill:#ff0000;stroke:#ff0000;" x="331.317367" xlink:href="#m81527af20b" y="123.207528"/>
     <use style="fill:#ff0000;stroke:#ff0000;" x="332.178519" xlink:href="#m81527af20b" y="123.207528"/>
     <use style="fill:#ff0000;stroke:#ff0000;" x="333.039672" xlink:href="#m81527af20b" y="123.207528"/>
     <use style="fill:#ff0000;stroke:#ff0000;" x="333.900825" xlink:href="#m81527af20b" y="123.207528"/>
     <use style="fill:#ff0000;stroke:#ff0000;" x="334.761977" xlink:href="#m81527af20b" y="123.207528"/>
     <use style="fill:#ff0000;stroke:#ff0000;" x="335.62313" xlink:href="#m81527af20b" y="123.207528"/>
     <use style="fill:#ff0000;stroke:#ff0000;" x="336.484283" xlink:href="#m81527af20b" y="123.207528"/>
     <use style="fill:#ff0000;stroke:#ff0000;" x="337.345435" xlink:href="#m81527af20b" y="123.207528"/>
     <use style="fill:#ff0000;stroke:#ff0000;" x="338.206588" xlink:href="#m81527af20b" y="123.207528"/>
     <use style="fill:#ff0000;stroke:#ff0000;" x="339.067741" xlink:href="#m81527af20b" y="123.207528"/>
     <use style="fill:#ff0000;stroke:#ff0000;" x="339.928893" xlink:href="#m81527af20b" y="123.207528"/>
     <use style="fill:#ff0000;stroke:#ff0000;" x="340.790046" xlink:href="#m81527af20b" y="123.207528"/>
     <use style="fill:#ff0000;stroke:#ff0000;" x="341.651198" xlink:href="#m81527af20b" y="123.207528"/>
     <use style="fill:#ff0000;stroke:#ff0000;" x="342.512351" xlink:href="#m81527af20b" y="123.207528"/>
     <use style="fill:#ff0000;stroke:#ff0000;" x="343.373504" xlink:href="#m81527af20b" y="123.207528"/>
     <use style="fill:#ff0000;stroke:#ff0000;" x="344.234656" xlink:href="#m81527af20b" y="123.207528"/>
     <use style="fill:#ff0000;stroke:#ff0000;" x="345.095809" xlink:href="#m81527af20b" y="123.207528"/>
     <use style="fill:#ff0000;stroke:#ff0000;" x="345.956962" xlink:href="#m81527af20b" y="123.207528"/>
     <use style="fill:#ff0000;stroke:#ff0000;" x="346.818114" xlink:href="#m81527af20b" y="123.207528"/>
     <use style="fill:#ff0000;stroke:#ff0000;" x="347.679267" xlink:href="#m81527af20b" y="123.207528"/>
     <use style="fill:#ff0000;stroke:#ff0000;" x="348.54042" xlink:href="#m81527af20b" y="123.207528"/>
     <use style="fill:#ff0000;stroke:#ff0000;" x="349.401572" xlink:href="#m81527af20b" y="123.207528"/>
     <use style="fill:#ff0000;stroke:#ff0000;" x="350.262725" xlink:href="#m81527af20b" y="123.207528"/>
     <use style="fill:#ff0000;stroke:#ff0000;" x="351.123878" xlink:href="#m81527af20b" y="123.207528"/>
     <use style="fill:#ff0000;stroke:#ff0000;" x="351.98503" xlink:href="#m81527af20b" y="123.207528"/>
     <use style="fill:#ff0000;stroke:#ff0000;" x="352.846183" xlink:href="#m81527af20b" y="123.207528"/>
     <use style="fill:#ff0000;stroke:#ff0000;" x="353.707335" xlink:href="#m81527af20b" y="123.207528"/>
     <use style="fill:#ff0000;stroke:#ff0000;" x="354.568488" xlink:href="#m81527af20b" y="123.207528"/>
     <use style="fill:#ff0000;stroke:#ff0000;" x="355.429641" xlink:href="#m81527af20b" y="123.207528"/>
     <use style="fill:#ff0000;stroke:#ff0000;" x="356.290793" xlink:href="#m81527af20b" y="123.207528"/>
     <use style="fill:#ff0000;stroke:#ff0000;" x="357.151946" xlink:href="#m81527af20b" y="123.207528"/>
     <use style="fill:#ff0000;stroke:#ff0000;" x="358.013099" xlink:href="#m81527af20b" y="123.207528"/>
     <use style="fill:#ff0000;stroke:#ff0000;" x="358.874251" xlink:href="#m81527af20b" y="123.207528"/>
     <use style="fill:#ff0000;stroke:#ff0000;" x="359.735404" xlink:href="#m81527af20b" y="123.207528"/>
     <use style="fill:#ff0000;stroke:#ff0000;" x="360.596557" xlink:href="#m81527af20b" y="123.207528"/>
     <use style="fill:#ff0000;stroke:#ff0000;" x="361.457709" xlink:href="#m81527af20b" y="123.207528"/>
     <use style="fill:#ff0000;stroke:#ff0000;" x="362.318862" xlink:href="#m81527af20b" y="123.207528"/>
     <use style="fill:#ff0000;stroke:#ff0000;" x="363.180014" xlink:href="#m81527af20b" y="123.207528"/>
     <use style="fill:#ff0000;stroke:#ff0000;" x="364.041167" xlink:href="#m81527af20b" y="123.207528"/>
     <use style="fill:#ff0000;stroke:#ff0000;" x="364.90232" xlink:href="#m81527af20b" y="123.207528"/>
     <use style="fill:#ff0000;stroke:#ff0000;" x="365.763472" xlink:href="#m81527af20b" y="123.207528"/>
     <use style="fill:#ff0000;stroke:#ff0000;" x="366.624625" xlink:href="#m81527af20b" y="123.207528"/>
     <use style="fill:#ff0000;stroke:#ff0000;" x="367.485778" xlink:href="#m81527af20b" y="123.207528"/>
     <use style="fill:#ff0000;stroke:#ff0000;" x="368.34693" xlink:href="#m81527af20b" y="123.207528"/>
     <use style="fill:#ff0000;stroke:#ff0000;" x="369.208083" xlink:href="#m81527af20b" y="123.207528"/>
     <use style="fill:#ff0000;stroke:#ff0000;" x="370.069236" xlink:href="#m81527af20b" y="123.207528"/>
     <use style="fill:#ff0000;stroke:#ff0000;" x="370.930388" xlink:href="#m81527af20b" y="123.207528"/>
     <use style="fill:#ff0000;stroke:#ff0000;" x="371.791541" xlink:href="#m81527af20b" y="123.207528"/>
     <use style="fill:#ff0000;stroke:#ff0000;" x="372.652694" xlink:href="#m81527af20b" y="123.207528"/>
     <use style="fill:#ff0000;stroke:#ff0000;" x="373.513846" xlink:href="#m81527af20b" y="123.207528"/>
     <use style="fill:#ff0000;stroke:#ff0000;" x="374.374999" xlink:href="#m81527af20b" y="123.207528"/>
     <use style="fill:#ff0000;stroke:#ff0000;" x="375.236151" xlink:href="#m81527af20b" y="123.207528"/>
     <use style="fill:#ff0000;stroke:#ff0000;" x="376.097304" xlink:href="#m81527af20b" y="123.207528"/>
     <use style="fill:#ff0000;stroke:#ff0000;" x="376.958457" xlink:href="#m81527af20b" y="123.207528"/>
     <use style="fill:#ff0000;stroke:#ff0000;" x="377.819609" xlink:href="#m81527af20b" y="123.207528"/>
     <use style="fill:#ff0000;stroke:#ff0000;" x="378.680762" xlink:href="#m81527af20b" y="123.207528"/>
     <use style="fill:#ff0000;stroke:#ff0000;" x="379.541915" xlink:href="#m81527af20b" y="123.207528"/>
     <use style="fill:#ff0000;stroke:#ff0000;" x="380.403067" xlink:href="#m81527af20b" y="123.207528"/>
     <use style="fill:#ff0000;stroke:#ff0000;" x="381.26422" xlink:href="#m81527af20b" y="123.207528"/>
     <use style="fill:#ff0000;stroke:#ff0000;" x="382.125373" xlink:href="#m81527af20b" y="123.207528"/>
     <use style="fill:#ff0000;stroke:#ff0000;" x="382.986525" xlink:href="#m81527af20b" y="123.207528"/>
     <use style="fill:#ff0000;stroke:#ff0000;" x="383.847678" xlink:href="#m81527af20b" y="123.207528"/>
     <use style="fill:#ff0000;stroke:#ff0000;" x="384.70883" xlink:href="#m81527af20b" y="123.207528"/>
     <use style="fill:#ff0000;stroke:#ff0000;" x="385.569983" xlink:href="#m81527af20b" y="123.207528"/>
     <use style="fill:#ff0000;stroke:#ff0000;" x="386.431136" xlink:href="#m81527af20b" y="123.207528"/>
     <use style="fill:#ff0000;stroke:#ff0000;" x="387.292288" xlink:href="#m81527af20b" y="123.207528"/>
     <use style="fill:#ff0000;stroke:#ff0000;" x="388.153441" xlink:href="#m81527af20b" y="123.207528"/>
     <use style="fill:#ff0000;stroke:#ff0000;" x="389.014594" xlink:href="#m81527af20b" y="123.207528"/>
     <use style="fill:#ff0000;stroke:#ff0000;" x="389.875746" xlink:href="#m81527af20b" y="123.207528"/>
     <use style="fill:#ff0000;stroke:#ff0000;" x="390.736899" xlink:href="#m81527af20b" y="123.207528"/>
     <use style="fill:#ff0000;stroke:#ff0000;" x="391.598052" xlink:href="#m81527af20b" y="123.207528"/>
     <use style="fill:#ff0000;stroke:#ff0000;" x="392.459204" xlink:href="#m81527af20b" y="123.207528"/>
     <use style="fill:#ff0000;stroke:#ff0000;" x="393.320357" xlink:href="#m81527af20b" y="123.207528"/>
     <use style="fill:#ff0000;stroke:#ff0000;" x="394.18151" xlink:href="#m81527af20b" y="123.207528"/>
     <use style="fill:#ff0000;stroke:#ff0000;" x="395.042662" xlink:href="#m81527af20b" y="123.207528"/>
     <use style="fill:#ff0000;stroke:#ff0000;" x="395.903815" xlink:href="#m81527af20b" y="123.207528"/>
     <use style="fill:#ff0000;stroke:#ff0000;" x="396.764967" xlink:href="#m81527af20b" y="123.207528"/>
     <use style="fill:#ff0000;stroke:#ff0000;" x="397.62612" xlink:href="#m81527af20b" y="123.207528"/>
     <use style="fill:#ff0000;stroke:#ff0000;" x="398.487273" xlink:href="#m81527af20b" y="123.207528"/>
    </g>
   </g>
   <g id="patch_3">
    <path d="M 57.6 307.584 
L 57.6 41.472 
" style="fill:none;stroke:#000000;stroke-linecap:square;stroke-linejoin:miter;stroke-width:0.8;"/>
   </g>
   <g id="patch_4">
    <path d="M 414.72 307.584 
L 414.72 41.472 
" style="fill:none;stroke:#000000;stroke-linecap:square;stroke-linejoin:miter;stroke-width:0.8;"/>
   </g>
   <g id="patch_5">
    <path d="M 57.6 307.584 
L 414.72 307.584 
" style="fill:none;stroke:#000000;stroke-linecap:square;stroke-linejoin:miter;stroke-width:0.8;"/>
   </g>
   <g id="patch_6">
    <path d="M 57.6 41.472 
L 414.72 41.472 
" style="fill:none;stroke:#000000;stroke-linecap:square;stroke-linejoin:miter;stroke-width:0.8;"/>
   </g>
  </g>
 </g>
 <defs>
  <clipPath id="pe9782382e5">
   <rect height="266.112" width="357.12" x="57.6" y="41.472"/>
  </clipPath>
 </defs>
</svg>
