<?xml version="1.0" encoding="utf-8" standalone="no"?>
<!DOCTYPE svg PUBLIC "-//W3C//DTD SVG 1.1//EN"
  "http://www.w3.org/Graphics/SVG/1.1/DTD/svg11.dtd">
<!-- Created with matplotlib (https://matplotlib.org/) -->
<svg height="345.6pt" version="1.1" viewBox="0 0 460.8 345.6" width="460.8pt" xmlns="http://www.w3.org/2000/svg" xmlns:xlink="http://www.w3.org/1999/xlink">
 <defs>
  <style type="text/css">
*{stroke-linecap:butt;stroke-linejoin:round;}
  </style>
 </defs>
 <g id="figure_1">
  <g id="patch_1">
   <path d="M 0 345.6 
L 460.8 345.6 
L 460.8 0 
L 0 0 
z
" style="fill:#ffffff;"/>
  </g>
  <g id="axes_1">
   <g id="patch_2">
    <path d="M 57.6 307.584 
L 414.72 307.584 
L 414.72 41.472 
L 57.6 41.472 
z
" style="fill:#ffffff;"/>
   </g>
   <g id="line2d_1">
    <path clip-path="url(#p0e70d69e78)" d="M 73.832727 54.857751 
L 75.687896 117.972571 
L 77.543065 117.972571 
L 79.398234 178.364198 
L 84.96374 178.364198 
L 86.818909 173.136714 
L 90.529247 173.136714 
L 92.384416 233.757672 
L 96.094753 233.757672 
L 97.949922 295.488 
L 99.805091 295.488 
L 101.66026 227.024412 
L 103.515429 227.024412 
L 105.370597 283.936945 
L 109.080935 283.936945 
L 110.936104 215.720482 
L 112.791273 215.720482 
L 114.646442 149.968874 
L 116.50161 149.968874 
L 118.356779 78.542555 
L 122.067117 78.542555 
L 123.922286 57.812874 
L 127.632623 57.812874 
L 129.487792 53.568 
L 133.19813 53.568 
L 135.053299 75.748782 
L 138.763636 75.748782 
L 140.618805 80.780442 
L 142.473974 80.780442 
L 144.329143 101.17403 
L 146.184312 79.918449 
L 148.039481 79.918449 
L 149.894649 103.185411 
L 151.749818 103.185411 
L 153.604987 79.462155 
L 155.460156 79.462155 
L 157.315325 99.048488 
L 162.880831 99.048488 
L 164.736 103.961522 
L 166.591169 103.961522 
L 168.446338 123.207788 
L 170.301506 123.207788 
L 172.156675 143.56994 
L 174.011844 143.56994 
L 175.867013 120.498205 
L 177.722182 120.498205 
L 179.577351 96.63009 
L 181.432519 96.63009 
L 183.287688 76.17475 
L 186.998026 76.17475 
L 188.853195 57.416161 
L 190.708364 57.416161 
L 192.563532 78.195542 
L 194.418701 78.195542 
L 196.27387 98.717723 
L 199.984208 98.717723 
L 201.839377 118.391837 
L 203.694545 118.391837 
L 205.549714 138.376802 
L 207.404883 135.403961 
L 209.260052 135.403961 
L 211.115221 156.18917 
L 212.97039 156.18917 
L 214.825558 176.43139 
L 216.680727 176.43139 
L 218.535896 195.868822 
L 220.391065 195.868822 
L 222.246234 172.193669 
L 224.101403 170.484007 
L 229.666909 170.484007 
L 231.522078 193.238891 
L 233.377247 193.238891 
L 235.232416 188.555244 
L 237.087584 208.487216 
L 240.797922 208.487216 
L 242.653091 228.947224 
L 244.50826 228.947224 
L 246.363429 228.116791 
L 248.218597 228.116791 
L 250.073766 207.606637 
L 255.639273 207.606637 
L 257.494442 203.233915 
L 259.34961 203.233915 
L 261.204779 181.673835 
L 263.059948 200.279026 
L 266.770286 200.279026 
L 268.625455 176.222749 
L 270.480623 176.222749 
L 272.335792 178.285439 
L 274.190961 178.285439 
L 276.04613 154.820176 
L 277.901299 154.820176 
L 279.756468 134.633323 
L 281.611636 154.093301 
L 298.308156 154.093301 
L 300.163325 156.071327 
L 302.018494 156.071327 
L 303.873662 176.22974 
L 305.728831 194.670252 
L 307.584 194.670252 
L 309.439169 214.397347 
L 311.294338 214.397347 
L 313.149506 191.935116 
L 316.859844 191.935116 
L 318.715013 169.801043 
L 320.570182 169.801043 
L 322.425351 189.753688 
L 324.280519 189.753688 
L 326.135688 165.769301 
L 327.990857 165.769301 
L 329.846026 184.334565 
L 331.701195 184.969625 
L 333.556364 184.969625 
L 335.411532 181.082854 
L 339.12187 181.082854 
L 340.977039 157.736367 
L 342.832208 157.736367 
L 344.687377 158.59909 
L 346.542545 158.59909 
L 348.397714 138.070128 
L 350.252883 138.070128 
L 352.108052 119.782969 
L 355.81839 119.782969 
L 357.673558 142.393792 
L 359.528727 142.393792 
L 361.383896 118.738752 
L 363.239065 118.738752 
L 365.094234 100.351487 
L 366.949403 100.351487 
L 368.804571 122.057184 
L 370.65974 99.881887 
L 372.514909 99.881887 
L 374.370078 80.347341 
L 376.225247 80.347341 
L 378.080416 85.492462 
L 379.935584 85.492462 
L 381.790753 101.996584 
L 385.501091 101.996584 
L 387.35626 124.250048 
L 389.211429 124.250048 
L 391.066597 125.906177 
L 392.921766 145.420098 
L 394.776935 145.420098 
L 396.632104 124.52905 
L 398.487273 124.52905 
L 398.487273 124.52905 
" style="fill:none;stroke:#ff0000;stroke-linecap:square;stroke-width:12;"/>
    <defs>
     <path d="M 0 3 
C 0.795609 3 1.55874 2.683901 2.12132 2.12132 
C 2.683901 1.55874 3 0.795609 3 0 
C 3 -0.795609 2.683901 -1.55874 2.12132 -2.12132 
C 1.55874 -2.683901 0.795609 -3 0 -3 
C -0.795609 -3 -1.55874 -2.683901 -2.12132 -2.12132 
C -2.683901 -1.55874 -3 -0.795609 -3 0 
C -3 0.795609 -2.683901 1.55874 -2.12132 2.12132 
C -1.55874 2.683901 -0.795609 3 0 3 
z
" id="mc38962273f" style="stroke:#ff0000;"/>
    </defs>
    <g clip-path="url(#p0e70d69e78)">
     <use style="fill:#ff0000;stroke:#ff0000;" x="73.832727" xlink:href="#mc38962273f" y="54.857751"/>
     <use style="fill:#ff0000;stroke:#ff0000;" x="75.687896" xlink:href="#mc38962273f" y="117.972571"/>
     <use style="fill:#ff0000;stroke:#ff0000;" x="77.543065" xlink:href="#mc38962273f" y="117.972571"/>
     <use style="fill:#ff0000;stroke:#ff0000;" x="79.398234" xlink:href="#mc38962273f" y="178.364198"/>
     <use style="fill:#ff0000;stroke:#ff0000;" x="81.253403" xlink:href="#mc38962273f" y="178.364198"/>
     <use style="fill:#ff0000;stroke:#ff0000;" x="83.108571" xlink:href="#mc38962273f" y="178.364198"/>
     <use style="fill:#ff0000;stroke:#ff0000;" x="84.96374" xlink:href="#mc38962273f" y="178.364198"/>
     <use style="fill:#ff0000;stroke:#ff0000;" x="86.818909" xlink:href="#mc38962273f" y="173.136714"/>
     <use style="fill:#ff0000;stroke:#ff0000;" x="88.674078" xlink:href="#mc38962273f" y="173.136714"/>
     <use style="fill:#ff0000;stroke:#ff0000;" x="90.529247" xlink:href="#mc38962273f" y="173.136714"/>
     <use style="fill:#ff0000;stroke:#ff0000;" x="92.384416" xlink:href="#mc38962273f" y="233.757672"/>
     <use style="fill:#ff0000;stroke:#ff0000;" x="94.239584" xlink:href="#mc38962273f" y="233.757672"/>
     <use style="fill:#ff0000;stroke:#ff0000;" x="96.094753" xlink:href="#mc38962273f" y="233.757672"/>
     <use style="fill:#ff0000;stroke:#ff0000;" x="97.949922" xlink:href="#mc38962273f" y="295.488"/>
     <use style="fill:#ff0000;stroke:#ff0000;" x="99.805091" xlink:href="#mc38962273f" y="295.488"/>
     <use style="fill:#ff0000;stroke:#ff0000;" x="101.66026" xlink:href="#mc38962273f" y="227.024412"/>
     <use style="fill:#ff0000;stroke:#ff0000;" x="103.515429" xlink:href="#mc38962273f" y="227.024412"/>
     <use style="fill:#ff0000;stroke:#ff0000;" x="105.370597" xlink:href="#mc38962273f" y="283.936945"/>
     <use style="fill:#ff0000;stroke:#ff0000;" x="107.225766" xlink:href="#mc38962273f" y="283.936945"/>
     <use style="fill:#ff0000;stroke:#ff0000;" x="109.080935" xlink:href="#mc38962273f" y="283.936945"/>
     <use style="fill:#ff0000;stroke:#ff0000;" x="110.936104" xlink:href="#mc38962273f" y="215.720482"/>
     <use style="fill:#ff0000;stroke:#ff0000;" x="112.791273" xlink:href="#mc38962273f" y="215.720482"/>
     <use style="fill:#ff0000;stroke:#ff0000;" x="114.646442" xlink:href="#mc38962273f" y="149.968874"/>
     <use style="fill:#ff0000;stroke:#ff0000;" x="116.50161" xlink:href="#mc38962273f" y="149.968874"/>
     <use style="fill:#ff0000;stroke:#ff0000;" x="118.356779" xlink:href="#mc38962273f" y="78.542555"/>
     <use style="fill:#ff0000;stroke:#ff0000;" x="120.211948" xlink:href="#mc38962273f" y="78.542555"/>
     <use style="fill:#ff0000;stroke:#ff0000;" x="122.067117" xlink:href="#mc38962273f" y="78.542555"/>
     <use style="fill:#ff0000;stroke:#ff0000;" x="123.922286" xlink:href="#mc38962273f" y="57.812874"/>
     <use style="fill:#ff0000;stroke:#ff0000;" x="125.777455" xlink:href="#mc38962273f" y="57.812874"/>
     <use style="fill:#ff0000;stroke:#ff0000;" x="127.632623" xlink:href="#mc38962273f" y="57.812874"/>
     <use style="fill:#ff0000;stroke:#ff0000;" x="129.487792" xlink:href="#mc38962273f" y="53.568"/>
     <use style="fill:#ff0000;stroke:#ff0000;" x="131.342961" xlink:href="#mc38962273f" y="53.568"/>
     <use style="fill:#ff0000;stroke:#ff0000;" x="133.19813" xlink:href="#mc38962273f" y="53.568"/>
     <use style="fill:#ff0000;stroke:#ff0000;" x="135.053299" xlink:href="#mc38962273f" y="75.748782"/>
     <use style="fill:#ff0000;stroke:#ff0000;" x="136.908468" xlink:href="#mc38962273f" y="75.748782"/>
     <use style="fill:#ff0000;stroke:#ff0000;" x="138.763636" xlink:href="#mc38962273f" y="75.748782"/>
     <use style="fill:#ff0000;stroke:#ff0000;" x="140.618805" xlink:href="#mc38962273f" y="80.780442"/>
     <use style="fill:#ff0000;stroke:#ff0000;" x="142.473974" xlink:href="#mc38962273f" y="80.780442"/>
     <use style="fill:#ff0000;stroke:#ff0000;" x="144.329143" xlink:href="#mc38962273f" y="101.17403"/>
     <use style="fill:#ff0000;stroke:#ff0000;" x="146.184312" xlink:href="#mc38962273f" y="79.918449"/>
     <use style="fill:#ff0000;stroke:#ff0000;" x="148.039481" xlink:href="#mc38962273f" y="79.918449"/>
     <use style="fill:#ff0000;stroke:#ff0000;" x="149.894649" xlink:href="#mc38962273f" y="103.185411"/>
     <use style="fill:#ff0000;stroke:#ff0000;" x="151.749818" xlink:href="#mc38962273f" y="103.185411"/>
     <use style="fill:#ff0000;stroke:#ff0000;" x="153.604987" xlink:href="#mc38962273f" y="79.462155"/>
     <use style="fill:#ff0000;stroke:#ff0000;" x="155.460156" xlink:href="#mc38962273f" y="79.462155"/>
     <use style="fill:#ff0000;stroke:#ff0000;" x="157.315325" xlink:href="#mc38962273f" y="99.048488"/>
     <use style="fill:#ff0000;stroke:#ff0000;" x="159.170494" xlink:href="#mc38962273f" y="99.048488"/>
     <use style="fill:#ff0000;stroke:#ff0000;" x="161.025662" xlink:href="#mc38962273f" y="99.048488"/>
     <use style="fill:#ff0000;stroke:#ff0000;" x="162.880831" xlink:href="#mc38962273f" y="99.048488"/>
     <use style="fill:#ff0000;stroke:#ff0000;" x="164.736" xlink:href="#mc38962273f" y="103.961522"/>
     <use style="fill:#ff0000;stroke:#ff0000;" x="166.591169" xlink:href="#mc38962273f" y="103.961522"/>
     <use style="fill:#ff0000;stroke:#ff0000;" x="168.446338" xlink:href="#mc38962273f" y="123.207788"/>
     <use style="fill:#ff0000;stroke:#ff0000;" x="170.301506" xlink:href="#mc38962273f" y="123.207788"/>
     <use style="fill:#ff0000;stroke:#ff0000;" x="172.156675" xlink:href="#mc38962273f" y="143.56994"/>
     <use style="fill:#ff0000;stroke:#ff0000;" x="174.011844" xlink:href="#mc38962273f" y="143.56994"/>
     <use style="fill:#ff0000;stroke:#ff0000;" x="175.867013" xlink:href="#mc38962273f" y="120.498205"/>
     <use style="fill:#ff0000;stroke:#ff0000;" x="177.722182" xlink:href="#mc38962273f" y="120.498205"/>
     <use style="fill:#ff0000;stroke:#ff0000;" x="179.577351" xlink:href="#mc38962273f" y="96.63009"/>
     <use style="fill:#ff0000;stroke:#ff0000;" x="181.432519" xlink:href="#mc38962273f" y="96.63009"/>
     <use style="fill:#ff0000;stroke:#ff0000;" x="183.287688" xlink:href="#mc38962273f" y="76.17475"/>
     <use style="fill:#ff0000;stroke:#ff0000;" x="185.142857" xlink:href="#mc38962273f" y="76.17475"/>
     <use style="fill:#ff0000;stroke:#ff0000;" x="186.998026" xlink:href="#mc38962273f" y="76.17475"/>
     <use style="fill:#ff0000;stroke:#ff0000;" x="188.853195" xlink:href="#mc38962273f" y="57.416161"/>
     <use style="fill:#ff0000;stroke:#ff0000;" x="190.708364" xlink:href="#mc38962273f" y="57.416161"/>
     <use style="fill:#ff0000;stroke:#ff0000;" x="192.563532" xlink:href="#mc38962273f" y="78.195542"/>
     <use style="fill:#ff0000;stroke:#ff0000;" x="194.418701" xlink:href="#mc38962273f" y="78.195542"/>
     <use style="fill:#ff0000;stroke:#ff0000;" x="196.27387" xlink:href="#mc38962273f" y="98.717723"/>
     <use style="fill:#ff0000;stroke:#ff0000;" x="198.129039" xlink:href="#mc38962273f" y="98.717723"/>
     <use style="fill:#ff0000;stroke:#ff0000;" x="199.984208" xlink:href="#mc38962273f" y="98.717723"/>
     <use style="fill:#ff0000;stroke:#ff0000;" x="201.839377" xlink:href="#mc38962273f" y="118.391837"/>
     <use style="fill:#ff0000;stroke:#ff0000;" x="203.694545" xlink:href="#mc38962273f" y="118.391837"/>
     <use style="fill:#ff0000;stroke:#ff0000;" x="205.549714" xlink:href="#mc38962273f" y="138.376802"/>
     <use style="fill:#ff0000;stroke:#ff0000;" x="207.404883" xlink:href="#mc38962273f" y="135.403961"/>
     <use style="fill:#ff0000;stroke:#ff0000;" x="209.260052" xlink:href="#mc38962273f" y="135.403961"/>
     <use style="fill:#ff0000;stroke:#ff0000;" x="211.115221" xlink:href="#mc38962273f" y="156.18917"/>
     <use style="fill:#ff0000;stroke:#ff0000;" x="212.97039" xlink:href="#mc38962273f" y="156.18917"/>
     <use style="fill:#ff0000;stroke:#ff0000;" x="214.825558" xlink:href="#mc38962273f" y="176.43139"/>
     <use style="fill:#ff0000;stroke:#ff0000;" x="216.680727" xlink:href="#mc38962273f" y="176.43139"/>
     <use style="fill:#ff0000;stroke:#ff0000;" x="218.535896" xlink:href="#mc38962273f" y="195.868822"/>
     <use style="fill:#ff0000;stroke:#ff0000;" x="220.391065" xlink:href="#mc38962273f" y="195.868822"/>
     <use style="fill:#ff0000;stroke:#ff0000;" x="222.246234" xlink:href="#mc38962273f" y="172.193669"/>
     <use style="fill:#ff0000;stroke:#ff0000;" x="224.101403" xlink:href="#mc38962273f" y="170.484007"/>
     <use style="fill:#ff0000;stroke:#ff0000;" x="225.956571" xlink:href="#mc38962273f" y="170.484007"/>
     <use style="fill:#ff0000;stroke:#ff0000;" x="227.81174" xlink:href="#mc38962273f" y="170.484007"/>
     <use style="fill:#ff0000;stroke:#ff0000;" x="229.666909" xlink:href="#mc38962273f" y="170.484007"/>
     <use style="fill:#ff0000;stroke:#ff0000;" x="231.522078" xlink:href="#mc38962273f" y="193.238891"/>
     <use style="fill:#ff0000;stroke:#ff0000;" x="233.377247" xlink:href="#mc38962273f" y="193.238891"/>
     <use style="fill:#ff0000;stroke:#ff0000;" x="235.232416" xlink:href="#mc38962273f" y="188.555244"/>
     <use style="fill:#ff0000;stroke:#ff0000;" x="237.087584" xlink:href="#mc38962273f" y="208.487216"/>
     <use style="fill:#ff0000;stroke:#ff0000;" x="238.942753" xlink:href="#mc38962273f" y="208.487216"/>
     <use style="fill:#ff0000;stroke:#ff0000;" x="240.797922" xlink:href="#mc38962273f" y="208.487216"/>
     <use style="fill:#ff0000;stroke:#ff0000;" x="242.653091" xlink:href="#mc38962273f" y="228.947224"/>
     <use style="fill:#ff0000;stroke:#ff0000;" x="244.50826" xlink:href="#mc38962273f" y="228.947224"/>
     <use style="fill:#ff0000;stroke:#ff0000;" x="246.363429" xlink:href="#mc38962273f" y="228.116791"/>
     <use style="fill:#ff0000;stroke:#ff0000;" x="248.218597" xlink:href="#mc38962273f" y="228.116791"/>
     <use style="fill:#ff0000;stroke:#ff0000;" x="250.073766" xlink:href="#mc38962273f" y="207.606637"/>
     <use style="fill:#ff0000;stroke:#ff0000;" x="251.928935" xlink:href="#mc38962273f" y="207.606637"/>
     <use style="fill:#ff0000;stroke:#ff0000;" x="253.784104" xlink:href="#mc38962273f" y="207.606637"/>
     <use style="fill:#ff0000;stroke:#ff0000;" x="255.639273" xlink:href="#mc38962273f" y="207.606637"/>
     <use style="fill:#ff0000;stroke:#ff0000;" x="257.494442" xlink:href="#mc38962273f" y="203.233915"/>
     <use style="fill:#ff0000;stroke:#ff0000;" x="259.34961" xlink:href="#mc38962273f" y="203.233915"/>
     <use style="fill:#ff0000;stroke:#ff0000;" x="261.204779" xlink:href="#mc38962273f" y="181.673835"/>
     <use style="fill:#ff0000;stroke:#ff0000;" x="263.059948" xlink:href="#mc38962273f" y="200.279026"/>
     <use style="fill:#ff0000;stroke:#ff0000;" x="264.915117" xlink:href="#mc38962273f" y="200.279026"/>
     <use style="fill:#ff0000;stroke:#ff0000;" x="266.770286" xlink:href="#mc38962273f" y="200.279026"/>
     <use style="fill:#ff0000;stroke:#ff0000;" x="268.625455" xlink:href="#mc38962273f" y="176.222749"/>
     <use style="fill:#ff0000;stroke:#ff0000;" x="270.480623" xlink:href="#mc38962273f" y="176.222749"/>
     <use style="fill:#ff0000;stroke:#ff0000;" x="272.335792" xlink:href="#mc38962273f" y="178.285439"/>
     <use style="fill:#ff0000;stroke:#ff0000;" x="274.190961" xlink:href="#mc38962273f" y="178.285439"/>
     <use style="fill:#ff0000;stroke:#ff0000;" x="276.04613" xlink:href="#mc38962273f" y="154.820176"/>
     <use style="fill:#ff0000;stroke:#ff0000;" x="277.901299" xlink:href="#mc38962273f" y="154.820176"/>
     <use style="fill:#ff0000;stroke:#ff0000;" x="279.756468" xlink:href="#mc38962273f" y="134.633323"/>
     <use style="fill:#ff0000;stroke:#ff0000;" x="281.611636" xlink:href="#mc38962273f" y="154.093301"/>
     <use style="fill:#ff0000;stroke:#ff0000;" x="283.466805" xlink:href="#mc38962273f" y="154.093301"/>
     <use style="fill:#ff0000;stroke:#ff0000;" x="285.321974" xlink:href="#mc38962273f" y="154.093301"/>
     <use style="fill:#ff0000;stroke:#ff0000;" x="287.177143" xlink:href="#mc38962273f" y="154.093301"/>
     <use style="fill:#ff0000;stroke:#ff0000;" x="289.032312" xlink:href="#mc38962273f" y="154.093301"/>
     <use style="fill:#ff0000;stroke:#ff0000;" x="290.887481" xlink:href="#mc38962273f" y="154.093301"/>
     <use style="fill:#ff0000;stroke:#ff0000;" x="292.742649" xlink:href="#mc38962273f" y="154.093301"/>
     <use style="fill:#ff0000;stroke:#ff0000;" x="294.597818" xlink:href="#mc38962273f" y="154.093301"/>
     <use style="fill:#ff0000;stroke:#ff0000;" x="296.452987" xlink:href="#mc38962273f" y="154.093301"/>
     <use style="fill:#ff0000;stroke:#ff0000;" x="298.308156" xlink:href="#mc38962273f" y="154.093301"/>
     <use style="fill:#ff0000;stroke:#ff0000;" x="300.163325" xlink:href="#mc38962273f" y="156.071327"/>
     <use style="fill:#ff0000;stroke:#ff0000;" x="302.018494" xlink:href="#mc38962273f" y="156.071327"/>
     <use style="fill:#ff0000;stroke:#ff0000;" x="303.873662" xlink:href="#mc38962273f" y="176.22974"/>
     <use style="fill:#ff0000;stroke:#ff0000;" x="305.728831" xlink:href="#mc38962273f" y="194.670252"/>
     <use style="fill:#ff0000;stroke:#ff0000;" x="307.584" xlink:href="#mc38962273f" y="194.670252"/>
     <use style="fill:#ff0000;stroke:#ff0000;" x="309.439169" xlink:href="#mc38962273f" y="214.397347"/>
     <use style="fill:#ff0000;stroke:#ff0000;" x="311.294338" xlink:href="#mc38962273f" y="214.397347"/>
     <use style="fill:#ff0000;stroke:#ff0000;" x="313.149506" xlink:href="#mc38962273f" y="191.935116"/>
     <use style="fill:#ff0000;stroke:#ff0000;" x="315.004675" xlink:href="#mc38962273f" y="191.935116"/>
     <use style="fill:#ff0000;stroke:#ff0000;" x="316.859844" xlink:href="#mc38962273f" y="191.935116"/>
     <use style="fill:#ff0000;stroke:#ff0000;" x="318.715013" xlink:href="#mc38962273f" y="169.801043"/>
     <use style="fill:#ff0000;stroke:#ff0000;" x="320.570182" xlink:href="#mc38962273f" y="169.801043"/>
     <use style="fill:#ff0000;stroke:#ff0000;" x="322.425351" xlink:href="#mc38962273f" y="189.753688"/>
     <use style="fill:#ff0000;stroke:#ff0000;" x="324.280519" xlink:href="#mc38962273f" y="189.753688"/>
     <use style="fill:#ff0000;stroke:#ff0000;" x="326.135688" xlink:href="#mc38962273f" y="165.769301"/>
     <use style="fill:#ff0000;stroke:#ff0000;" x="327.990857" xlink:href="#mc38962273f" y="165.769301"/>
     <use style="fill:#ff0000;stroke:#ff0000;" x="329.846026" xlink:href="#mc38962273f" y="184.334565"/>
     <use style="fill:#ff0000;stroke:#ff0000;" x="331.701195" xlink:href="#mc38962273f" y="184.969625"/>
     <use style="fill:#ff0000;stroke:#ff0000;" x="333.556364" xlink:href="#mc38962273f" y="184.969625"/>
     <use style="fill:#ff0000;stroke:#ff0000;" x="335.411532" xlink:href="#mc38962273f" y="181.082854"/>
     <use style="fill:#ff0000;stroke:#ff0000;" x="337.266701" xlink:href="#mc38962273f" y="181.082854"/>
     <use style="fill:#ff0000;stroke:#ff0000;" x="339.12187" xlink:href="#mc38962273f" y="181.082854"/>
     <use style="fill:#ff0000;stroke:#ff0000;" x="340.977039" xlink:href="#mc38962273f" y="157.736367"/>
     <use style="fill:#ff0000;stroke:#ff0000;" x="342.832208" xlink:href="#mc38962273f" y="157.736367"/>
     <use style="fill:#ff0000;stroke:#ff0000;" x="344.687377" xlink:href="#mc38962273f" y="158.59909"/>
     <use style="fill:#ff0000;stroke:#ff0000;" x="346.542545" xlink:href="#mc38962273f" y="158.59909"/>
     <use style="fill:#ff0000;stroke:#ff0000;" x="348.397714" xlink:href="#mc38962273f" y="138.070128"/>
     <use style="fill:#ff0000;stroke:#ff0000;" x="350.252883" xlink:href="#mc38962273f" y="138.070128"/>
     <use style="fill:#ff0000;stroke:#ff0000;" x="352.108052" xlink:href="#mc38962273f" y="119.782969"/>
     <use style="fill:#ff0000;stroke:#ff0000;" x="353.963221" xlink:href="#mc38962273f" y="119.782969"/>
     <use style="fill:#ff0000;stroke:#ff0000;" x="355.81839" xlink:href="#mc38962273f" y="119.782969"/>
     <use style="fill:#ff0000;stroke:#ff0000;" x="357.673558" xlink:href="#mc38962273f" y="142.393792"/>
     <use style="fill:#ff0000;stroke:#ff0000;" x="359.528727" xlink:href="#mc38962273f" y="142.393792"/>
     <use style="fill:#ff0000;stroke:#ff0000;" x="361.383896" xlink:href="#mc38962273f" y="118.738752"/>
     <use style="fill:#ff0000;stroke:#ff0000;" x="363.239065" xlink:href="#mc38962273f" y="118.738752"/>
     <use style="fill:#ff0000;stroke:#ff0000;" x="365.094234" xlink:href="#mc38962273f" y="100.351487"/>
     <use style="fill:#ff0000;stroke:#ff0000;" x="366.949403" xlink:href="#mc38962273f" y="100.351487"/>
     <use style="fill:#ff0000;stroke:#ff0000;" x="368.804571" xlink:href="#mc38962273f" y="122.057184"/>
     <use style="fill:#ff0000;stroke:#ff0000;" x="370.65974" xlink:href="#mc38962273f" y="99.881887"/>
     <use style="fill:#ff0000;stroke:#ff0000;" x="372.514909" xlink:href="#mc38962273f" y="99.881887"/>
     <use style="fill:#ff0000;stroke:#ff0000;" x="374.370078" xlink:href="#mc38962273f" y="80.347341"/>
     <use style="fill:#ff0000;stroke:#ff0000;" x="376.225247" xlink:href="#mc38962273f" y="80.347341"/>
     <use style="fill:#ff0000;stroke:#ff0000;" x="378.080416" xlink:href="#mc38962273f" y="85.492462"/>
     <use style="fill:#ff0000;stroke:#ff0000;" x="379.935584" xlink:href="#mc38962273f" y="85.492462"/>
     <use style="fill:#ff0000;stroke:#ff0000;" x="381.790753" xlink:href="#mc38962273f" y="101.996584"/>
     <use style="fill:#ff0000;stroke:#ff0000;" x="383.645922" xlink:href="#mc38962273f" y="101.996584"/>
     <use style="fill:#ff0000;stroke:#ff0000;" x="385.501091" xlink:href="#mc38962273f" y="101.996584"/>
     <use style="fill:#ff0000;stroke:#ff0000;" x="387.35626" xlink:href="#mc38962273f" y="124.250048"/>
     <use style="fill:#ff0000;stroke:#ff0000;" x="389.211429" xlink:href="#mc38962273f" y="124.250048"/>
     <use style="fill:#ff0000;stroke:#ff0000;" x="391.066597" xlink:href="#mc38962273f" y="125.906177"/>
     <use style="fill:#ff0000;stroke:#ff0000;" x="392.921766" xlink:href="#mc38962273f" y="145.420098"/>
     <use style="fill:#ff0000;stroke:#ff0000;" x="394.776935" xlink:href="#mc38962273f" y="145.420098"/>
     <use style="fill:#ff0000;stroke:#ff0000;" x="396.632104" xlink:href="#mc38962273f" y="124.52905"/>
     <use style="fill:#ff0000;stroke:#ff0000;" x="398.487273" xlink:href="#mc38962273f" y="124.52905"/>
    </g>
   </g>
   <g id="patch_3">
    <path d="M 57.6 307.584 
L 57.6 41.472 
" style="fill:none;stroke:#000000;stroke-linecap:square;stroke-linejoin:miter;stroke-width:0.8;"/>
   </g>
   <g id="patch_4">
    <path d="M 414.72 307.584 
L 414.72 41.472 
" style="fill:none;stroke:#000000;stroke-linecap:square;stroke-linejoin:miter;stroke-width:0.8;"/>
   </g>
   <g id="patch_5">
    <path d="M 57.6 307.584 
L 414.72 307.584 
" style="fill:none;stroke:#000000;stroke-linecap:square;stroke-linejoin:miter;stroke-width:0.8;"/>
   </g>
   <g id="patch_6">
    <path d="M 57.6 41.472 
L 414.72 41.472 
" style="fill:none;stroke:#000000;stroke-linecap:square;stroke-linejoin:miter;stroke-width:0.8;"/>
   </g>
  </g>
 </g>
 <defs>
  <clipPath id="p0e70d69e78">
   <rect height="266.112" width="357.12" x="57.6" y="41.472"/>
  </clipPath>
 </defs>
</svg>
