<svg width="185" height="250" viewBox="0 0 185 250" xmlns="http://www.w3.org/2000/svg"><title>Vegas Golden Knights light logo</title><g fill="none" fill-rule="evenodd"><path d="M106.882 13.678L92.314 0 77.745 13.678H0v170.744c29.023 32.173 53.39 47.54 92.314 65.47 38.848-17.895 63.241-33.244 92.313-65.47V13.678h-77.745z" fill="#FFF"/><path d="M105.608 16.893c-.135-.133-13.294-12.484-13.294-12.484s-13.16 12.35-13.295 12.484H3.215v166.293c27.194 30.154 51.439 45.817 89.099 63.167 37.58-17.314 61.819-32.918 89.098-63.167V16.893h-75.804z" fill="#85714D"/><path d="M174.983 23.321v157.395c-24.835 27.54-50.859 43.9-82.67 58.558-31.81-14.657-57.834-31.019-82.67-58.558V23.32h55.605C43.333 36.07 28.931 58.254 28.931 88.218v84.71c14.943 15.487 35.142 31.072 54.28 40.115L41.12 91.68l39.644 19.05-4.778 4.78 14.217 45.98h4.221l14.217-45.98-4.778-4.78 39.643-19.05-42.09 121.362c19.009-8.982 39.218-24.505 54.28-40.115v-84.71c0-29.964-14.402-52.148-36.317-64.897h55.604z" fill="#27251F"/><path d="M103.348 22.909c1.128-4.858 2.266-6.01 2.266-6.01.005 0-11.735-11.02-13.158-12.356l-.143-.134v121.399l8.822-28.391 47.005-22.62c-4.198-24.305-20.033-42.865-44.792-51.888M152.481 100.354l-34.974 101.218 6.062-7.829s15.938-12.201 25.698-23.437v-51.718l3.214-18.234z" fill="#333F48"/><path fill="#FFF" d="M79.63 116.412l1.134-5.68-4.778 4.778 14.217 45.98 2.11-4.054z"/><path d="M80.3 92.074L42.869 77.867l40.623 19.55V37.93l-3.19 54.143zm-48.155 8.28l29.107 84.235-16.18-38.13-9.712-27.87-3.215-18.235z" fill="#333F48"/><path fill="#FFF" d="M143.506 91.68l-42.09 121.363 5.657-6.5L147.588 89.72zM81.28 22.909c-.292-1.254-.665-2.603-1.122-3.795-.155-.406-.79-1.966-1.146-2.215-29.451 10.733-50.08 35.455-50.08 71.32v84.708a193.01 193.01 0 0 0 3.213 3.25V88.218c0-30.075 14.471-54.285 45.92-67.424 1.606.77 3.214 2.115 3.214 2.115"/></g></svg>
