<?xml version="1.0" encoding="utf-8" standalone="no"?>
<!DOCTYPE svg PUBLIC "-//W3C//DTD SVG 1.1//EN"
  "http://www.w3.org/Graphics/SVG/1.1/DTD/svg11.dtd">
<!-- Created with matplotlib (https://matplotlib.org/) -->
<svg height="345.6pt" version="1.1" viewBox="0 0 460.8 345.6" width="460.8pt" xmlns="http://www.w3.org/2000/svg" xmlns:xlink="http://www.w3.org/1999/xlink">
 <defs>
  <style type="text/css">
*{stroke-linecap:butt;stroke-linejoin:round;}
  </style>
 </defs>
 <g id="figure_1">
  <g id="patch_1">
   <path d="M 0 345.6 
L 460.8 345.6 
L 460.8 0 
L 0 0 
z
" style="fill:#ffffff;"/>
  </g>
  <g id="axes_1">
   <g id="patch_2">
    <path d="M 57.6 307.584 
L 414.72 307.584 
L 414.72 41.472 
L 57.6 41.472 
z
" style="fill:#ffffff;"/>
   </g>
   <g id="line2d_1">
    <path clip-path="url(#p0c4fc72f29)" d="M 73.832727 135.465125 
L 74.911314 176.778055 
L 78.147073 176.778055 
L 79.22566 217.218137 
L 80.304246 217.218137 
L 82.46142 295.488 
L 83.540006 295.488 
L 84.618593 250.746844 
L 86.775766 250.746844 
L 87.854352 206.133858 
L 91.090112 206.133858 
L 92.168698 160.89117 
L 97.561631 160.888268 
L 98.640217 198.343907 
L 99.718804 198.343907 
L 100.797391 195.387012 
L 101.875977 195.387012 
L 102.954564 207.455003 
L 104.03315 207.455003 
L 105.111737 221.063456 
L 106.190323 221.063456 
L 107.26891 206.686491 
L 109.426083 206.686491 
L 110.504669 219.296364 
L 111.583256 219.296364 
L 112.661842 205.227746 
L 113.740429 205.227746 
L 115.897602 230.316399 
L 118.054775 230.316399 
L 119.133362 216.28153 
L 120.211948 216.28153 
L 121.290535 229.808739 
L 122.369121 229.808739 
L 123.447708 215.41276 
L 124.526294 228.581974 
L 125.604881 228.581974 
L 126.683467 225.36606 
L 127.762054 225.36606 
L 129.919227 195.960935 
L 132.0764 195.960935 
L 133.154986 182.059362 
L 134.233573 182.059362 
L 135.312159 168.599051 
L 136.390746 168.599051 
L 137.469333 182.285698 
L 139.626506 182.285698 
L 140.705092 167.917386 
L 141.783679 167.917386 
L 142.862265 154.682378 
L 143.940852 154.682378 
L 145.019438 170.083642 
L 146.098025 155.820347 
L 148.255198 155.820347 
L 149.333784 141.855302 
L 150.412371 141.855302 
L 151.490957 144.904545 
L 152.569544 144.904545 
L 153.64813 143.296347 
L 154.726717 156.832799 
L 156.88389 156.832799 
L 157.962477 142.768723 
L 159.041063 142.768723 
L 160.11965 144.901959 
L 161.198236 149.282884 
L 164.433996 149.282884 
L 165.512582 134.455092 
L 166.591169 134.455092 
L 168.748342 109.201343 
L 169.826928 109.201343 
L 170.905515 97.223092 
L 173.062688 97.223092 
L 174.141275 84.091884 
L 175.219861 84.091884 
L 176.298448 70.9701 
L 177.377034 70.9701 
L 178.455621 58.91269 
L 179.534207 58.91269 
L 180.612794 72.206654 
L 181.69138 72.206654 
L 182.769967 70.644898 
L 184.92714 70.644898 
L 186.005726 83.893595 
L 189.241486 83.893595 
L 190.320072 69.646887 
L 191.398659 69.646887 
L 192.477246 83.58269 
L 193.555832 83.58269 
L 194.634419 96.658674 
L 203.263111 96.658674 
L 205.420284 125.724123 
L 207.577457 125.724123 
L 208.656043 123.651638 
L 209.73463 123.651638 
L 210.813217 111.770852 
L 211.891803 111.770852 
L 212.97039 125.418559 
L 215.127563 125.418559 
L 216.206149 139.906811 
L 217.284736 139.906811 
L 218.363322 152.433539 
L 219.441909 152.433539 
L 220.520495 137.46574 
L 221.599082 137.46574 
L 222.677668 151.201245 
L 223.756255 151.201245 
L 224.834841 149.771468 
L 225.913428 149.771468 
L 226.992014 162.610845 
L 230.227774 162.610845 
L 231.306361 148.646623 
L 232.384947 148.646623 
L 233.463534 149.595789 
L 234.54212 137.078191 
L 235.620707 137.078191 
L 236.699293 124.213054 
L 238.856466 124.213054 
L 239.935053 109.109074 
L 242.092226 109.109074 
L 243.170812 96.595259 
L 244.249399 109.449228 
L 248.563745 109.449228 
L 249.642332 95.581495 
L 250.720918 95.581495 
L 251.799505 82.805631 
L 252.878091 67.945074 
L 255.035264 67.945074 
L 256.113851 53.568 
L 257.192437 53.568 
L 258.271024 59.294618 
L 259.34961 59.294618 
L 260.428197 73.021212 
L 261.506783 73.021212 
L 262.58537 86.909661 
L 263.663957 86.909661 
L 264.742543 100.986319 
L 265.82113 103.022641 
L 266.899716 103.022641 
L 267.978303 90.301541 
L 270.135476 90.301541 
L 271.214062 104.730069 
L 272.292649 104.730069 
L 273.371235 120.821275 
L 398.487273 120.821275 
L 398.487273 120.821275 
" style="fill:none;stroke:#ff0000;stroke-linecap:square;stroke-width:12;"/>
    <defs>
     <path d="M 0 3 
C 0.795609 3 1.55874 2.683901 2.12132 2.12132 
C 2.683901 1.55874 3 0.795609 3 0 
C 3 -0.795609 2.683901 -1.55874 2.12132 -2.12132 
C 1.55874 -2.683901 0.795609 -3 0 -3 
C -0.795609 -3 -1.55874 -2.683901 -2.12132 -2.12132 
C -2.683901 -1.55874 -3 -0.795609 -3 0 
C -3 0.795609 -2.683901 1.55874 -2.12132 2.12132 
C -1.55874 2.683901 -0.795609 3 0 3 
z
" id="ma0d90dedec" style="stroke:#ff0000;"/>
    </defs>
    <g clip-path="url(#p0c4fc72f29)">
     <use style="fill:#ff0000;stroke:#ff0000;" x="73.832727" xlink:href="#ma0d90dedec" y="135.465125"/>
     <use style="fill:#ff0000;stroke:#ff0000;" x="74.911314" xlink:href="#ma0d90dedec" y="176.778055"/>
     <use style="fill:#ff0000;stroke:#ff0000;" x="75.9899" xlink:href="#ma0d90dedec" y="176.778055"/>
     <use style="fill:#ff0000;stroke:#ff0000;" x="77.068487" xlink:href="#ma0d90dedec" y="176.778055"/>
     <use style="fill:#ff0000;stroke:#ff0000;" x="78.147073" xlink:href="#ma0d90dedec" y="176.778055"/>
     <use style="fill:#ff0000;stroke:#ff0000;" x="79.22566" xlink:href="#ma0d90dedec" y="217.218137"/>
     <use style="fill:#ff0000;stroke:#ff0000;" x="80.304246" xlink:href="#ma0d90dedec" y="217.218137"/>
     <use style="fill:#ff0000;stroke:#ff0000;" x="81.382833" xlink:href="#ma0d90dedec" y="256.074985"/>
     <use style="fill:#ff0000;stroke:#ff0000;" x="82.46142" xlink:href="#ma0d90dedec" y="295.488"/>
     <use style="fill:#ff0000;stroke:#ff0000;" x="83.540006" xlink:href="#ma0d90dedec" y="295.488"/>
     <use style="fill:#ff0000;stroke:#ff0000;" x="84.618593" xlink:href="#ma0d90dedec" y="250.746844"/>
     <use style="fill:#ff0000;stroke:#ff0000;" x="85.697179" xlink:href="#ma0d90dedec" y="250.746844"/>
     <use style="fill:#ff0000;stroke:#ff0000;" x="86.775766" xlink:href="#ma0d90dedec" y="250.746844"/>
     <use style="fill:#ff0000;stroke:#ff0000;" x="87.854352" xlink:href="#ma0d90dedec" y="206.133858"/>
     <use style="fill:#ff0000;stroke:#ff0000;" x="88.932939" xlink:href="#ma0d90dedec" y="206.133858"/>
     <use style="fill:#ff0000;stroke:#ff0000;" x="90.011525" xlink:href="#ma0d90dedec" y="206.133858"/>
     <use style="fill:#ff0000;stroke:#ff0000;" x="91.090112" xlink:href="#ma0d90dedec" y="206.133858"/>
     <use style="fill:#ff0000;stroke:#ff0000;" x="92.168698" xlink:href="#ma0d90dedec" y="160.89117"/>
     <use style="fill:#ff0000;stroke:#ff0000;" x="93.247285" xlink:href="#ma0d90dedec" y="160.89117"/>
     <use style="fill:#ff0000;stroke:#ff0000;" x="94.325871" xlink:href="#ma0d90dedec" y="160.89117"/>
     <use style="fill:#ff0000;stroke:#ff0000;" x="95.404458" xlink:href="#ma0d90dedec" y="160.89117"/>
     <use style="fill:#ff0000;stroke:#ff0000;" x="96.483044" xlink:href="#ma0d90dedec" y="160.888268"/>
     <use style="fill:#ff0000;stroke:#ff0000;" x="97.561631" xlink:href="#ma0d90dedec" y="160.888268"/>
     <use style="fill:#ff0000;stroke:#ff0000;" x="98.640217" xlink:href="#ma0d90dedec" y="198.343907"/>
     <use style="fill:#ff0000;stroke:#ff0000;" x="99.718804" xlink:href="#ma0d90dedec" y="198.343907"/>
     <use style="fill:#ff0000;stroke:#ff0000;" x="100.797391" xlink:href="#ma0d90dedec" y="195.387012"/>
     <use style="fill:#ff0000;stroke:#ff0000;" x="101.875977" xlink:href="#ma0d90dedec" y="195.387012"/>
     <use style="fill:#ff0000;stroke:#ff0000;" x="102.954564" xlink:href="#ma0d90dedec" y="207.455003"/>
     <use style="fill:#ff0000;stroke:#ff0000;" x="104.03315" xlink:href="#ma0d90dedec" y="207.455003"/>
     <use style="fill:#ff0000;stroke:#ff0000;" x="105.111737" xlink:href="#ma0d90dedec" y="221.063456"/>
     <use style="fill:#ff0000;stroke:#ff0000;" x="106.190323" xlink:href="#ma0d90dedec" y="221.063456"/>
     <use style="fill:#ff0000;stroke:#ff0000;" x="107.26891" xlink:href="#ma0d90dedec" y="206.686491"/>
     <use style="fill:#ff0000;stroke:#ff0000;" x="108.347496" xlink:href="#ma0d90dedec" y="206.686491"/>
     <use style="fill:#ff0000;stroke:#ff0000;" x="109.426083" xlink:href="#ma0d90dedec" y="206.686491"/>
     <use style="fill:#ff0000;stroke:#ff0000;" x="110.504669" xlink:href="#ma0d90dedec" y="219.296364"/>
     <use style="fill:#ff0000;stroke:#ff0000;" x="111.583256" xlink:href="#ma0d90dedec" y="219.296364"/>
     <use style="fill:#ff0000;stroke:#ff0000;" x="112.661842" xlink:href="#ma0d90dedec" y="205.227746"/>
     <use style="fill:#ff0000;stroke:#ff0000;" x="113.740429" xlink:href="#ma0d90dedec" y="205.227746"/>
     <use style="fill:#ff0000;stroke:#ff0000;" x="114.819015" xlink:href="#ma0d90dedec" y="218.007514"/>
     <use style="fill:#ff0000;stroke:#ff0000;" x="115.897602" xlink:href="#ma0d90dedec" y="230.316399"/>
     <use style="fill:#ff0000;stroke:#ff0000;" x="116.976188" xlink:href="#ma0d90dedec" y="230.316399"/>
     <use style="fill:#ff0000;stroke:#ff0000;" x="118.054775" xlink:href="#ma0d90dedec" y="230.316399"/>
     <use style="fill:#ff0000;stroke:#ff0000;" x="119.133362" xlink:href="#ma0d90dedec" y="216.28153"/>
     <use style="fill:#ff0000;stroke:#ff0000;" x="120.211948" xlink:href="#ma0d90dedec" y="216.28153"/>
     <use style="fill:#ff0000;stroke:#ff0000;" x="121.290535" xlink:href="#ma0d90dedec" y="229.808739"/>
     <use style="fill:#ff0000;stroke:#ff0000;" x="122.369121" xlink:href="#ma0d90dedec" y="229.808739"/>
     <use style="fill:#ff0000;stroke:#ff0000;" x="123.447708" xlink:href="#ma0d90dedec" y="215.41276"/>
     <use style="fill:#ff0000;stroke:#ff0000;" x="124.526294" xlink:href="#ma0d90dedec" y="228.581974"/>
     <use style="fill:#ff0000;stroke:#ff0000;" x="125.604881" xlink:href="#ma0d90dedec" y="228.581974"/>
     <use style="fill:#ff0000;stroke:#ff0000;" x="126.683467" xlink:href="#ma0d90dedec" y="225.36606"/>
     <use style="fill:#ff0000;stroke:#ff0000;" x="127.762054" xlink:href="#ma0d90dedec" y="225.36606"/>
     <use style="fill:#ff0000;stroke:#ff0000;" x="128.84064" xlink:href="#ma0d90dedec" y="210.723207"/>
     <use style="fill:#ff0000;stroke:#ff0000;" x="129.919227" xlink:href="#ma0d90dedec" y="195.960935"/>
     <use style="fill:#ff0000;stroke:#ff0000;" x="130.997813" xlink:href="#ma0d90dedec" y="195.960935"/>
     <use style="fill:#ff0000;stroke:#ff0000;" x="132.0764" xlink:href="#ma0d90dedec" y="195.960935"/>
     <use style="fill:#ff0000;stroke:#ff0000;" x="133.154986" xlink:href="#ma0d90dedec" y="182.059362"/>
     <use style="fill:#ff0000;stroke:#ff0000;" x="134.233573" xlink:href="#ma0d90dedec" y="182.059362"/>
     <use style="fill:#ff0000;stroke:#ff0000;" x="135.312159" xlink:href="#ma0d90dedec" y="168.599051"/>
     <use style="fill:#ff0000;stroke:#ff0000;" x="136.390746" xlink:href="#ma0d90dedec" y="168.599051"/>
     <use style="fill:#ff0000;stroke:#ff0000;" x="137.469333" xlink:href="#ma0d90dedec" y="182.285698"/>
     <use style="fill:#ff0000;stroke:#ff0000;" x="138.547919" xlink:href="#ma0d90dedec" y="182.285698"/>
     <use style="fill:#ff0000;stroke:#ff0000;" x="139.626506" xlink:href="#ma0d90dedec" y="182.285698"/>
     <use style="fill:#ff0000;stroke:#ff0000;" x="140.705092" xlink:href="#ma0d90dedec" y="167.917386"/>
     <use style="fill:#ff0000;stroke:#ff0000;" x="141.783679" xlink:href="#ma0d90dedec" y="167.917386"/>
     <use style="fill:#ff0000;stroke:#ff0000;" x="142.862265" xlink:href="#ma0d90dedec" y="154.682378"/>
     <use style="fill:#ff0000;stroke:#ff0000;" x="143.940852" xlink:href="#ma0d90dedec" y="154.682378"/>
     <use style="fill:#ff0000;stroke:#ff0000;" x="145.019438" xlink:href="#ma0d90dedec" y="170.083642"/>
     <use style="fill:#ff0000;stroke:#ff0000;" x="146.098025" xlink:href="#ma0d90dedec" y="155.820347"/>
     <use style="fill:#ff0000;stroke:#ff0000;" x="147.176611" xlink:href="#ma0d90dedec" y="155.820347"/>
     <use style="fill:#ff0000;stroke:#ff0000;" x="148.255198" xlink:href="#ma0d90dedec" y="155.820347"/>
     <use style="fill:#ff0000;stroke:#ff0000;" x="149.333784" xlink:href="#ma0d90dedec" y="141.855302"/>
     <use style="fill:#ff0000;stroke:#ff0000;" x="150.412371" xlink:href="#ma0d90dedec" y="141.855302"/>
     <use style="fill:#ff0000;stroke:#ff0000;" x="151.490957" xlink:href="#ma0d90dedec" y="144.904545"/>
     <use style="fill:#ff0000;stroke:#ff0000;" x="152.569544" xlink:href="#ma0d90dedec" y="144.904545"/>
     <use style="fill:#ff0000;stroke:#ff0000;" x="153.64813" xlink:href="#ma0d90dedec" y="143.296347"/>
     <use style="fill:#ff0000;stroke:#ff0000;" x="154.726717" xlink:href="#ma0d90dedec" y="156.832799"/>
     <use style="fill:#ff0000;stroke:#ff0000;" x="155.805304" xlink:href="#ma0d90dedec" y="156.832799"/>
     <use style="fill:#ff0000;stroke:#ff0000;" x="156.88389" xlink:href="#ma0d90dedec" y="156.832799"/>
     <use style="fill:#ff0000;stroke:#ff0000;" x="157.962477" xlink:href="#ma0d90dedec" y="142.768723"/>
     <use style="fill:#ff0000;stroke:#ff0000;" x="159.041063" xlink:href="#ma0d90dedec" y="142.768723"/>
     <use style="fill:#ff0000;stroke:#ff0000;" x="160.11965" xlink:href="#ma0d90dedec" y="144.901959"/>
     <use style="fill:#ff0000;stroke:#ff0000;" x="161.198236" xlink:href="#ma0d90dedec" y="149.282884"/>
     <use style="fill:#ff0000;stroke:#ff0000;" x="162.276823" xlink:href="#ma0d90dedec" y="149.282884"/>
     <use style="fill:#ff0000;stroke:#ff0000;" x="163.355409" xlink:href="#ma0d90dedec" y="149.282884"/>
     <use style="fill:#ff0000;stroke:#ff0000;" x="164.433996" xlink:href="#ma0d90dedec" y="149.282884"/>
     <use style="fill:#ff0000;stroke:#ff0000;" x="165.512582" xlink:href="#ma0d90dedec" y="134.455092"/>
     <use style="fill:#ff0000;stroke:#ff0000;" x="166.591169" xlink:href="#ma0d90dedec" y="134.455092"/>
     <use style="fill:#ff0000;stroke:#ff0000;" x="167.669755" xlink:href="#ma0d90dedec" y="122.24817"/>
     <use style="fill:#ff0000;stroke:#ff0000;" x="168.748342" xlink:href="#ma0d90dedec" y="109.201343"/>
     <use style="fill:#ff0000;stroke:#ff0000;" x="169.826928" xlink:href="#ma0d90dedec" y="109.201343"/>
     <use style="fill:#ff0000;stroke:#ff0000;" x="170.905515" xlink:href="#ma0d90dedec" y="97.223092"/>
     <use style="fill:#ff0000;stroke:#ff0000;" x="171.984101" xlink:href="#ma0d90dedec" y="97.223092"/>
     <use style="fill:#ff0000;stroke:#ff0000;" x="173.062688" xlink:href="#ma0d90dedec" y="97.223092"/>
     <use style="fill:#ff0000;stroke:#ff0000;" x="174.141275" xlink:href="#ma0d90dedec" y="84.091884"/>
     <use style="fill:#ff0000;stroke:#ff0000;" x="175.219861" xlink:href="#ma0d90dedec" y="84.091884"/>
     <use style="fill:#ff0000;stroke:#ff0000;" x="176.298448" xlink:href="#ma0d90dedec" y="70.9701"/>
     <use style="fill:#ff0000;stroke:#ff0000;" x="177.377034" xlink:href="#ma0d90dedec" y="70.9701"/>
     <use style="fill:#ff0000;stroke:#ff0000;" x="178.455621" xlink:href="#ma0d90dedec" y="58.91269"/>
     <use style="fill:#ff0000;stroke:#ff0000;" x="179.534207" xlink:href="#ma0d90dedec" y="58.91269"/>
     <use style="fill:#ff0000;stroke:#ff0000;" x="180.612794" xlink:href="#ma0d90dedec" y="72.206654"/>
     <use style="fill:#ff0000;stroke:#ff0000;" x="181.69138" xlink:href="#ma0d90dedec" y="72.206654"/>
     <use style="fill:#ff0000;stroke:#ff0000;" x="182.769967" xlink:href="#ma0d90dedec" y="70.644898"/>
     <use style="fill:#ff0000;stroke:#ff0000;" x="183.848553" xlink:href="#ma0d90dedec" y="70.644898"/>
     <use style="fill:#ff0000;stroke:#ff0000;" x="184.92714" xlink:href="#ma0d90dedec" y="70.644898"/>
     <use style="fill:#ff0000;stroke:#ff0000;" x="186.005726" xlink:href="#ma0d90dedec" y="83.893595"/>
     <use style="fill:#ff0000;stroke:#ff0000;" x="187.084313" xlink:href="#ma0d90dedec" y="83.893595"/>
     <use style="fill:#ff0000;stroke:#ff0000;" x="188.162899" xlink:href="#ma0d90dedec" y="83.893595"/>
     <use style="fill:#ff0000;stroke:#ff0000;" x="189.241486" xlink:href="#ma0d90dedec" y="83.893595"/>
     <use style="fill:#ff0000;stroke:#ff0000;" x="190.320072" xlink:href="#ma0d90dedec" y="69.646887"/>
     <use style="fill:#ff0000;stroke:#ff0000;" x="191.398659" xlink:href="#ma0d90dedec" y="69.646887"/>
     <use style="fill:#ff0000;stroke:#ff0000;" x="192.477246" xlink:href="#ma0d90dedec" y="83.58269"/>
     <use style="fill:#ff0000;stroke:#ff0000;" x="193.555832" xlink:href="#ma0d90dedec" y="83.58269"/>
     <use style="fill:#ff0000;stroke:#ff0000;" x="194.634419" xlink:href="#ma0d90dedec" y="96.658674"/>
     <use style="fill:#ff0000;stroke:#ff0000;" x="195.713005" xlink:href="#ma0d90dedec" y="96.658674"/>
     <use style="fill:#ff0000;stroke:#ff0000;" x="196.791592" xlink:href="#ma0d90dedec" y="96.658674"/>
     <use style="fill:#ff0000;stroke:#ff0000;" x="197.870178" xlink:href="#ma0d90dedec" y="96.658674"/>
     <use style="fill:#ff0000;stroke:#ff0000;" x="198.948765" xlink:href="#ma0d90dedec" y="96.658674"/>
     <use style="fill:#ff0000;stroke:#ff0000;" x="200.027351" xlink:href="#ma0d90dedec" y="96.658674"/>
     <use style="fill:#ff0000;stroke:#ff0000;" x="201.105938" xlink:href="#ma0d90dedec" y="96.658674"/>
     <use style="fill:#ff0000;stroke:#ff0000;" x="202.184524" xlink:href="#ma0d90dedec" y="96.658674"/>
     <use style="fill:#ff0000;stroke:#ff0000;" x="203.263111" xlink:href="#ma0d90dedec" y="96.658674"/>
     <use style="fill:#ff0000;stroke:#ff0000;" x="204.341697" xlink:href="#ma0d90dedec" y="110.540844"/>
     <use style="fill:#ff0000;stroke:#ff0000;" x="205.420284" xlink:href="#ma0d90dedec" y="125.724123"/>
     <use style="fill:#ff0000;stroke:#ff0000;" x="206.49887" xlink:href="#ma0d90dedec" y="125.724123"/>
     <use style="fill:#ff0000;stroke:#ff0000;" x="207.577457" xlink:href="#ma0d90dedec" y="125.724123"/>
     <use style="fill:#ff0000;stroke:#ff0000;" x="208.656043" xlink:href="#ma0d90dedec" y="123.651638"/>
     <use style="fill:#ff0000;stroke:#ff0000;" x="209.73463" xlink:href="#ma0d90dedec" y="123.651638"/>
     <use style="fill:#ff0000;stroke:#ff0000;" x="210.813217" xlink:href="#ma0d90dedec" y="111.770852"/>
     <use style="fill:#ff0000;stroke:#ff0000;" x="211.891803" xlink:href="#ma0d90dedec" y="111.770852"/>
     <use style="fill:#ff0000;stroke:#ff0000;" x="212.97039" xlink:href="#ma0d90dedec" y="125.418559"/>
     <use style="fill:#ff0000;stroke:#ff0000;" x="214.048976" xlink:href="#ma0d90dedec" y="125.418559"/>
     <use style="fill:#ff0000;stroke:#ff0000;" x="215.127563" xlink:href="#ma0d90dedec" y="125.418559"/>
     <use style="fill:#ff0000;stroke:#ff0000;" x="216.206149" xlink:href="#ma0d90dedec" y="139.906811"/>
     <use style="fill:#ff0000;stroke:#ff0000;" x="217.284736" xlink:href="#ma0d90dedec" y="139.906811"/>
     <use style="fill:#ff0000;stroke:#ff0000;" x="218.363322" xlink:href="#ma0d90dedec" y="152.433539"/>
     <use style="fill:#ff0000;stroke:#ff0000;" x="219.441909" xlink:href="#ma0d90dedec" y="152.433539"/>
     <use style="fill:#ff0000;stroke:#ff0000;" x="220.520495" xlink:href="#ma0d90dedec" y="137.46574"/>
     <use style="fill:#ff0000;stroke:#ff0000;" x="221.599082" xlink:href="#ma0d90dedec" y="137.46574"/>
     <use style="fill:#ff0000;stroke:#ff0000;" x="222.677668" xlink:href="#ma0d90dedec" y="151.201245"/>
     <use style="fill:#ff0000;stroke:#ff0000;" x="223.756255" xlink:href="#ma0d90dedec" y="151.201245"/>
     <use style="fill:#ff0000;stroke:#ff0000;" x="224.834841" xlink:href="#ma0d90dedec" y="149.771468"/>
     <use style="fill:#ff0000;stroke:#ff0000;" x="225.913428" xlink:href="#ma0d90dedec" y="149.771468"/>
     <use style="fill:#ff0000;stroke:#ff0000;" x="226.992014" xlink:href="#ma0d90dedec" y="162.610845"/>
     <use style="fill:#ff0000;stroke:#ff0000;" x="228.070601" xlink:href="#ma0d90dedec" y="162.610845"/>
     <use style="fill:#ff0000;stroke:#ff0000;" x="229.149188" xlink:href="#ma0d90dedec" y="162.610845"/>
     <use style="fill:#ff0000;stroke:#ff0000;" x="230.227774" xlink:href="#ma0d90dedec" y="162.610845"/>
     <use style="fill:#ff0000;stroke:#ff0000;" x="231.306361" xlink:href="#ma0d90dedec" y="148.646623"/>
     <use style="fill:#ff0000;stroke:#ff0000;" x="232.384947" xlink:href="#ma0d90dedec" y="148.646623"/>
     <use style="fill:#ff0000;stroke:#ff0000;" x="233.463534" xlink:href="#ma0d90dedec" y="149.595789"/>
     <use style="fill:#ff0000;stroke:#ff0000;" x="234.54212" xlink:href="#ma0d90dedec" y="137.078191"/>
     <use style="fill:#ff0000;stroke:#ff0000;" x="235.620707" xlink:href="#ma0d90dedec" y="137.078191"/>
     <use style="fill:#ff0000;stroke:#ff0000;" x="236.699293" xlink:href="#ma0d90dedec" y="124.213054"/>
     <use style="fill:#ff0000;stroke:#ff0000;" x="237.77788" xlink:href="#ma0d90dedec" y="124.213054"/>
     <use style="fill:#ff0000;stroke:#ff0000;" x="238.856466" xlink:href="#ma0d90dedec" y="124.213054"/>
     <use style="fill:#ff0000;stroke:#ff0000;" x="239.935053" xlink:href="#ma0d90dedec" y="109.109074"/>
     <use style="fill:#ff0000;stroke:#ff0000;" x="241.013639" xlink:href="#ma0d90dedec" y="109.109074"/>
     <use style="fill:#ff0000;stroke:#ff0000;" x="242.092226" xlink:href="#ma0d90dedec" y="109.109074"/>
     <use style="fill:#ff0000;stroke:#ff0000;" x="243.170812" xlink:href="#ma0d90dedec" y="96.595259"/>
     <use style="fill:#ff0000;stroke:#ff0000;" x="244.249399" xlink:href="#ma0d90dedec" y="109.449228"/>
     <use style="fill:#ff0000;stroke:#ff0000;" x="245.327986" xlink:href="#ma0d90dedec" y="109.449228"/>
     <use style="fill:#ff0000;stroke:#ff0000;" x="246.406572" xlink:href="#ma0d90dedec" y="109.449228"/>
     <use style="fill:#ff0000;stroke:#ff0000;" x="247.485159" xlink:href="#ma0d90dedec" y="109.449228"/>
     <use style="fill:#ff0000;stroke:#ff0000;" x="248.563745" xlink:href="#ma0d90dedec" y="109.449228"/>
     <use style="fill:#ff0000;stroke:#ff0000;" x="249.642332" xlink:href="#ma0d90dedec" y="95.581495"/>
     <use style="fill:#ff0000;stroke:#ff0000;" x="250.720918" xlink:href="#ma0d90dedec" y="95.581495"/>
     <use style="fill:#ff0000;stroke:#ff0000;" x="251.799505" xlink:href="#ma0d90dedec" y="82.805631"/>
     <use style="fill:#ff0000;stroke:#ff0000;" x="252.878091" xlink:href="#ma0d90dedec" y="67.945074"/>
     <use style="fill:#ff0000;stroke:#ff0000;" x="253.956678" xlink:href="#ma0d90dedec" y="67.945074"/>
     <use style="fill:#ff0000;stroke:#ff0000;" x="255.035264" xlink:href="#ma0d90dedec" y="67.945074"/>
     <use style="fill:#ff0000;stroke:#ff0000;" x="256.113851" xlink:href="#ma0d90dedec" y="53.568"/>
     <use style="fill:#ff0000;stroke:#ff0000;" x="257.192437" xlink:href="#ma0d90dedec" y="53.568"/>
     <use style="fill:#ff0000;stroke:#ff0000;" x="258.271024" xlink:href="#ma0d90dedec" y="59.294618"/>
     <use style="fill:#ff0000;stroke:#ff0000;" x="259.34961" xlink:href="#ma0d90dedec" y="59.294618"/>
     <use style="fill:#ff0000;stroke:#ff0000;" x="260.428197" xlink:href="#ma0d90dedec" y="73.021212"/>
     <use style="fill:#ff0000;stroke:#ff0000;" x="261.506783" xlink:href="#ma0d90dedec" y="73.021212"/>
     <use style="fill:#ff0000;stroke:#ff0000;" x="262.58537" xlink:href="#ma0d90dedec" y="86.909661"/>
     <use style="fill:#ff0000;stroke:#ff0000;" x="263.663957" xlink:href="#ma0d90dedec" y="86.909661"/>
     <use style="fill:#ff0000;stroke:#ff0000;" x="264.742543" xlink:href="#ma0d90dedec" y="100.986319"/>
     <use style="fill:#ff0000;stroke:#ff0000;" x="265.82113" xlink:href="#ma0d90dedec" y="103.022641"/>
     <use style="fill:#ff0000;stroke:#ff0000;" x="266.899716" xlink:href="#ma0d90dedec" y="103.022641"/>
     <use style="fill:#ff0000;stroke:#ff0000;" x="267.978303" xlink:href="#ma0d90dedec" y="90.301541"/>
     <use style="fill:#ff0000;stroke:#ff0000;" x="269.056889" xlink:href="#ma0d90dedec" y="90.301541"/>
     <use style="fill:#ff0000;stroke:#ff0000;" x="270.135476" xlink:href="#ma0d90dedec" y="90.301541"/>
     <use style="fill:#ff0000;stroke:#ff0000;" x="271.214062" xlink:href="#ma0d90dedec" y="104.730069"/>
     <use style="fill:#ff0000;stroke:#ff0000;" x="272.292649" xlink:href="#ma0d90dedec" y="104.730069"/>
     <use style="fill:#ff0000;stroke:#ff0000;" x="273.371235" xlink:href="#ma0d90dedec" y="120.821275"/>
     <use style="fill:#ff0000;stroke:#ff0000;" x="274.449822" xlink:href="#ma0d90dedec" y="120.821275"/>
     <use style="fill:#ff0000;stroke:#ff0000;" x="275.528408" xlink:href="#ma0d90dedec" y="120.821275"/>
     <use style="fill:#ff0000;stroke:#ff0000;" x="276.606995" xlink:href="#ma0d90dedec" y="120.821275"/>
     <use style="fill:#ff0000;stroke:#ff0000;" x="277.685581" xlink:href="#ma0d90dedec" y="120.821275"/>
     <use style="fill:#ff0000;stroke:#ff0000;" x="278.764168" xlink:href="#ma0d90dedec" y="120.821275"/>
     <use style="fill:#ff0000;stroke:#ff0000;" x="279.842754" xlink:href="#ma0d90dedec" y="120.821275"/>
     <use style="fill:#ff0000;stroke:#ff0000;" x="280.921341" xlink:href="#ma0d90dedec" y="120.821275"/>
     <use style="fill:#ff0000;stroke:#ff0000;" x="281.999928" xlink:href="#ma0d90dedec" y="120.821275"/>
     <use style="fill:#ff0000;stroke:#ff0000;" x="283.078514" xlink:href="#ma0d90dedec" y="120.821275"/>
     <use style="fill:#ff0000;stroke:#ff0000;" x="284.157101" xlink:href="#ma0d90dedec" y="120.821275"/>
     <use style="fill:#ff0000;stroke:#ff0000;" x="285.235687" xlink:href="#ma0d90dedec" y="120.821275"/>
     <use style="fill:#ff0000;stroke:#ff0000;" x="286.314274" xlink:href="#ma0d90dedec" y="120.821275"/>
     <use style="fill:#ff0000;stroke:#ff0000;" x="287.39286" xlink:href="#ma0d90dedec" y="120.821275"/>
     <use style="fill:#ff0000;stroke:#ff0000;" x="288.471447" xlink:href="#ma0d90dedec" y="120.821275"/>
     <use style="fill:#ff0000;stroke:#ff0000;" x="289.550033" xlink:href="#ma0d90dedec" y="120.821275"/>
     <use style="fill:#ff0000;stroke:#ff0000;" x="290.62862" xlink:href="#ma0d90dedec" y="120.821275"/>
     <use style="fill:#ff0000;stroke:#ff0000;" x="291.707206" xlink:href="#ma0d90dedec" y="120.821275"/>
     <use style="fill:#ff0000;stroke:#ff0000;" x="292.785793" xlink:href="#ma0d90dedec" y="120.821275"/>
     <use style="fill:#ff0000;stroke:#ff0000;" x="293.864379" xlink:href="#ma0d90dedec" y="120.821275"/>
     <use style="fill:#ff0000;stroke:#ff0000;" x="294.942966" xlink:href="#ma0d90dedec" y="120.821275"/>
     <use style="fill:#ff0000;stroke:#ff0000;" x="296.021552" xlink:href="#ma0d90dedec" y="120.821275"/>
     <use style="fill:#ff0000;stroke:#ff0000;" x="297.100139" xlink:href="#ma0d90dedec" y="120.821275"/>
     <use style="fill:#ff0000;stroke:#ff0000;" x="298.178725" xlink:href="#ma0d90dedec" y="120.821275"/>
     <use style="fill:#ff0000;stroke:#ff0000;" x="299.257312" xlink:href="#ma0d90dedec" y="120.821275"/>
     <use style="fill:#ff0000;stroke:#ff0000;" x="300.335899" xlink:href="#ma0d90dedec" y="120.821275"/>
     <use style="fill:#ff0000;stroke:#ff0000;" x="301.414485" xlink:href="#ma0d90dedec" y="120.821275"/>
     <use style="fill:#ff0000;stroke:#ff0000;" x="302.493072" xlink:href="#ma0d90dedec" y="120.821275"/>
     <use style="fill:#ff0000;stroke:#ff0000;" x="303.571658" xlink:href="#ma0d90dedec" y="120.821275"/>
     <use style="fill:#ff0000;stroke:#ff0000;" x="304.650245" xlink:href="#ma0d90dedec" y="120.821275"/>
     <use style="fill:#ff0000;stroke:#ff0000;" x="305.728831" xlink:href="#ma0d90dedec" y="120.821275"/>
     <use style="fill:#ff0000;stroke:#ff0000;" x="306.807418" xlink:href="#ma0d90dedec" y="120.821275"/>
     <use style="fill:#ff0000;stroke:#ff0000;" x="307.886004" xlink:href="#ma0d90dedec" y="120.821275"/>
     <use style="fill:#ff0000;stroke:#ff0000;" x="308.964591" xlink:href="#ma0d90dedec" y="120.821275"/>
     <use style="fill:#ff0000;stroke:#ff0000;" x="310.043177" xlink:href="#ma0d90dedec" y="120.821275"/>
     <use style="fill:#ff0000;stroke:#ff0000;" x="311.121764" xlink:href="#ma0d90dedec" y="120.821275"/>
     <use style="fill:#ff0000;stroke:#ff0000;" x="312.20035" xlink:href="#ma0d90dedec" y="120.821275"/>
     <use style="fill:#ff0000;stroke:#ff0000;" x="313.278937" xlink:href="#ma0d90dedec" y="120.821275"/>
     <use style="fill:#ff0000;stroke:#ff0000;" x="314.357523" xlink:href="#ma0d90dedec" y="120.821275"/>
     <use style="fill:#ff0000;stroke:#ff0000;" x="315.43611" xlink:href="#ma0d90dedec" y="120.821275"/>
     <use style="fill:#ff0000;stroke:#ff0000;" x="316.514696" xlink:href="#ma0d90dedec" y="120.821275"/>
     <use style="fill:#ff0000;stroke:#ff0000;" x="317.593283" xlink:href="#ma0d90dedec" y="120.821275"/>
     <use style="fill:#ff0000;stroke:#ff0000;" x="318.67187" xlink:href="#ma0d90dedec" y="120.821275"/>
     <use style="fill:#ff0000;stroke:#ff0000;" x="319.750456" xlink:href="#ma0d90dedec" y="120.821275"/>
     <use style="fill:#ff0000;stroke:#ff0000;" x="320.829043" xlink:href="#ma0d90dedec" y="120.821275"/>
     <use style="fill:#ff0000;stroke:#ff0000;" x="321.907629" xlink:href="#ma0d90dedec" y="120.821275"/>
     <use style="fill:#ff0000;stroke:#ff0000;" x="322.986216" xlink:href="#ma0d90dedec" y="120.821275"/>
     <use style="fill:#ff0000;stroke:#ff0000;" x="324.064802" xlink:href="#ma0d90dedec" y="120.821275"/>
     <use style="fill:#ff0000;stroke:#ff0000;" x="325.143389" xlink:href="#ma0d90dedec" y="120.821275"/>
     <use style="fill:#ff0000;stroke:#ff0000;" x="326.221975" xlink:href="#ma0d90dedec" y="120.821275"/>
     <use style="fill:#ff0000;stroke:#ff0000;" x="327.300562" xlink:href="#ma0d90dedec" y="120.821275"/>
     <use style="fill:#ff0000;stroke:#ff0000;" x="328.379148" xlink:href="#ma0d90dedec" y="120.821275"/>
     <use style="fill:#ff0000;stroke:#ff0000;" x="329.457735" xlink:href="#ma0d90dedec" y="120.821275"/>
     <use style="fill:#ff0000;stroke:#ff0000;" x="330.536321" xlink:href="#ma0d90dedec" y="120.821275"/>
     <use style="fill:#ff0000;stroke:#ff0000;" x="331.614908" xlink:href="#ma0d90dedec" y="120.821275"/>
     <use style="fill:#ff0000;stroke:#ff0000;" x="332.693494" xlink:href="#ma0d90dedec" y="120.821275"/>
     <use style="fill:#ff0000;stroke:#ff0000;" x="333.772081" xlink:href="#ma0d90dedec" y="120.821275"/>
     <use style="fill:#ff0000;stroke:#ff0000;" x="334.850667" xlink:href="#ma0d90dedec" y="120.821275"/>
     <use style="fill:#ff0000;stroke:#ff0000;" x="335.929254" xlink:href="#ma0d90dedec" y="120.821275"/>
     <use style="fill:#ff0000;stroke:#ff0000;" x="337.007841" xlink:href="#ma0d90dedec" y="120.821275"/>
     <use style="fill:#ff0000;stroke:#ff0000;" x="338.086427" xlink:href="#ma0d90dedec" y="120.821275"/>
     <use style="fill:#ff0000;stroke:#ff0000;" x="339.165014" xlink:href="#ma0d90dedec" y="120.821275"/>
     <use style="fill:#ff0000;stroke:#ff0000;" x="340.2436" xlink:href="#ma0d90dedec" y="120.821275"/>
     <use style="fill:#ff0000;stroke:#ff0000;" x="341.322187" xlink:href="#ma0d90dedec" y="120.821275"/>
     <use style="fill:#ff0000;stroke:#ff0000;" x="342.400773" xlink:href="#ma0d90dedec" y="120.821275"/>
     <use style="fill:#ff0000;stroke:#ff0000;" x="343.47936" xlink:href="#ma0d90dedec" y="120.821275"/>
     <use style="fill:#ff0000;stroke:#ff0000;" x="344.557946" xlink:href="#ma0d90dedec" y="120.821275"/>
     <use style="fill:#ff0000;stroke:#ff0000;" x="345.636533" xlink:href="#ma0d90dedec" y="120.821275"/>
     <use style="fill:#ff0000;stroke:#ff0000;" x="346.715119" xlink:href="#ma0d90dedec" y="120.821275"/>
     <use style="fill:#ff0000;stroke:#ff0000;" x="347.793706" xlink:href="#ma0d90dedec" y="120.821275"/>
     <use style="fill:#ff0000;stroke:#ff0000;" x="348.872292" xlink:href="#ma0d90dedec" y="120.821275"/>
     <use style="fill:#ff0000;stroke:#ff0000;" x="349.950879" xlink:href="#ma0d90dedec" y="120.821275"/>
     <use style="fill:#ff0000;stroke:#ff0000;" x="351.029465" xlink:href="#ma0d90dedec" y="120.821275"/>
     <use style="fill:#ff0000;stroke:#ff0000;" x="352.108052" xlink:href="#ma0d90dedec" y="120.821275"/>
     <use style="fill:#ff0000;stroke:#ff0000;" x="353.186638" xlink:href="#ma0d90dedec" y="120.821275"/>
     <use style="fill:#ff0000;stroke:#ff0000;" x="354.265225" xlink:href="#ma0d90dedec" y="120.821275"/>
     <use style="fill:#ff0000;stroke:#ff0000;" x="355.343812" xlink:href="#ma0d90dedec" y="120.821275"/>
     <use style="fill:#ff0000;stroke:#ff0000;" x="356.422398" xlink:href="#ma0d90dedec" y="120.821275"/>
     <use style="fill:#ff0000;stroke:#ff0000;" x="357.500985" xlink:href="#ma0d90dedec" y="120.821275"/>
     <use style="fill:#ff0000;stroke:#ff0000;" x="358.579571" xlink:href="#ma0d90dedec" y="120.821275"/>
     <use style="fill:#ff0000;stroke:#ff0000;" x="359.658158" xlink:href="#ma0d90dedec" y="120.821275"/>
     <use style="fill:#ff0000;stroke:#ff0000;" x="360.736744" xlink:href="#ma0d90dedec" y="120.821275"/>
     <use style="fill:#ff0000;stroke:#ff0000;" x="361.815331" xlink:href="#ma0d90dedec" y="120.821275"/>
     <use style="fill:#ff0000;stroke:#ff0000;" x="362.893917" xlink:href="#ma0d90dedec" y="120.821275"/>
     <use style="fill:#ff0000;stroke:#ff0000;" x="363.972504" xlink:href="#ma0d90dedec" y="120.821275"/>
     <use style="fill:#ff0000;stroke:#ff0000;" x="365.05109" xlink:href="#ma0d90dedec" y="120.821275"/>
     <use style="fill:#ff0000;stroke:#ff0000;" x="366.129677" xlink:href="#ma0d90dedec" y="120.821275"/>
     <use style="fill:#ff0000;stroke:#ff0000;" x="367.208263" xlink:href="#ma0d90dedec" y="120.821275"/>
     <use style="fill:#ff0000;stroke:#ff0000;" x="368.28685" xlink:href="#ma0d90dedec" y="120.821275"/>
     <use style="fill:#ff0000;stroke:#ff0000;" x="369.365436" xlink:href="#ma0d90dedec" y="120.821275"/>
     <use style="fill:#ff0000;stroke:#ff0000;" x="370.444023" xlink:href="#ma0d90dedec" y="120.821275"/>
     <use style="fill:#ff0000;stroke:#ff0000;" x="371.522609" xlink:href="#ma0d90dedec" y="120.821275"/>
     <use style="fill:#ff0000;stroke:#ff0000;" x="372.601196" xlink:href="#ma0d90dedec" y="120.821275"/>
     <use style="fill:#ff0000;stroke:#ff0000;" x="373.679783" xlink:href="#ma0d90dedec" y="120.821275"/>
     <use style="fill:#ff0000;stroke:#ff0000;" x="374.758369" xlink:href="#ma0d90dedec" y="120.821275"/>
     <use style="fill:#ff0000;stroke:#ff0000;" x="375.836956" xlink:href="#ma0d90dedec" y="120.821275"/>
     <use style="fill:#ff0000;stroke:#ff0000;" x="376.915542" xlink:href="#ma0d90dedec" y="120.821275"/>
     <use style="fill:#ff0000;stroke:#ff0000;" x="377.994129" xlink:href="#ma0d90dedec" y="120.821275"/>
     <use style="fill:#ff0000;stroke:#ff0000;" x="379.072715" xlink:href="#ma0d90dedec" y="120.821275"/>
     <use style="fill:#ff0000;stroke:#ff0000;" x="380.151302" xlink:href="#ma0d90dedec" y="120.821275"/>
     <use style="fill:#ff0000;stroke:#ff0000;" x="381.229888" xlink:href="#ma0d90dedec" y="120.821275"/>
     <use style="fill:#ff0000;stroke:#ff0000;" x="382.308475" xlink:href="#ma0d90dedec" y="120.821275"/>
     <use style="fill:#ff0000;stroke:#ff0000;" x="383.387061" xlink:href="#ma0d90dedec" y="120.821275"/>
     <use style="fill:#ff0000;stroke:#ff0000;" x="384.465648" xlink:href="#ma0d90dedec" y="120.821275"/>
     <use style="fill:#ff0000;stroke:#ff0000;" x="385.544234" xlink:href="#ma0d90dedec" y="120.821275"/>
     <use style="fill:#ff0000;stroke:#ff0000;" x="386.622821" xlink:href="#ma0d90dedec" y="120.821275"/>
     <use style="fill:#ff0000;stroke:#ff0000;" x="387.701407" xlink:href="#ma0d90dedec" y="120.821275"/>
     <use style="fill:#ff0000;stroke:#ff0000;" x="388.779994" xlink:href="#ma0d90dedec" y="120.821275"/>
     <use style="fill:#ff0000;stroke:#ff0000;" x="389.85858" xlink:href="#ma0d90dedec" y="120.821275"/>
     <use style="fill:#ff0000;stroke:#ff0000;" x="390.937167" xlink:href="#ma0d90dedec" y="120.821275"/>
     <use style="fill:#ff0000;stroke:#ff0000;" x="392.015754" xlink:href="#ma0d90dedec" y="120.821275"/>
     <use style="fill:#ff0000;stroke:#ff0000;" x="393.09434" xlink:href="#ma0d90dedec" y="120.821275"/>
     <use style="fill:#ff0000;stroke:#ff0000;" x="394.172927" xlink:href="#ma0d90dedec" y="120.821275"/>
     <use style="fill:#ff0000;stroke:#ff0000;" x="395.251513" xlink:href="#ma0d90dedec" y="120.821275"/>
     <use style="fill:#ff0000;stroke:#ff0000;" x="396.3301" xlink:href="#ma0d90dedec" y="120.821275"/>
     <use style="fill:#ff0000;stroke:#ff0000;" x="397.408686" xlink:href="#ma0d90dedec" y="120.821275"/>
     <use style="fill:#ff0000;stroke:#ff0000;" x="398.487273" xlink:href="#ma0d90dedec" y="120.821275"/>
    </g>
   </g>
   <g id="patch_3">
    <path d="M 57.6 307.584 
L 57.6 41.472 
" style="fill:none;stroke:#000000;stroke-linecap:square;stroke-linejoin:miter;stroke-width:0.8;"/>
   </g>
   <g id="patch_4">
    <path d="M 414.72 307.584 
L 414.72 41.472 
" style="fill:none;stroke:#000000;stroke-linecap:square;stroke-linejoin:miter;stroke-width:0.8;"/>
   </g>
   <g id="patch_5">
    <path d="M 57.6 307.584 
L 414.72 307.584 
" style="fill:none;stroke:#000000;stroke-linecap:square;stroke-linejoin:miter;stroke-width:0.8;"/>
   </g>
   <g id="patch_6">
    <path d="M 57.6 41.472 
L 414.72 41.472 
" style="fill:none;stroke:#000000;stroke-linecap:square;stroke-linejoin:miter;stroke-width:0.8;"/>
   </g>
  </g>
 </g>
 <defs>
  <clipPath id="p0c4fc72f29">
   <rect height="266.112" width="357.12" x="57.6" y="41.472"/>
  </clipPath>
 </defs>
</svg>
