<?xml version="1.0" encoding="utf-8" standalone="no"?>
<!DOCTYPE svg PUBLIC "-//W3C//DTD SVG 1.1//EN"
  "http://www.w3.org/Graphics/SVG/1.1/DTD/svg11.dtd">
<!-- Created with matplotlib (https://matplotlib.org/) -->
<svg height="345.6pt" version="1.1" viewBox="0 0 460.8 345.6" width="460.8pt" xmlns="http://www.w3.org/2000/svg" xmlns:xlink="http://www.w3.org/1999/xlink">
 <defs>
  <style type="text/css">
*{stroke-linecap:butt;stroke-linejoin:round;}
  </style>
 </defs>
 <g id="figure_1">
  <g id="patch_1">
   <path d="M 0 345.6 
L 460.8 345.6 
L 460.8 0 
L 0 0 
z
" style="fill:#ffffff;"/>
  </g>
  <g id="axes_1">
   <g id="patch_2">
    <path d="M 57.6 307.584 
L 414.72 307.584 
L 414.72 41.472 
L 57.6 41.472 
z
" style="fill:#ffffff;"/>
   </g>
   <g id="line2d_1">
    <path clip-path="url(#pe156e31c21)" d="M 73.832727 135.465125 
L 74.904194 176.778055 
L 78.118596 176.778055 
L 79.190063 217.218137 
L 80.26153 217.218137 
L 82.404464 295.488 
L 83.475932 295.488 
L 84.547399 250.746844 
L 86.690333 250.746844 
L 87.7618 206.133858 
L 90.976202 206.133858 
L 92.047669 160.89117 
L 97.405005 160.888268 
L 98.476472 198.343907 
L 99.547939 198.343907 
L 100.619406 195.387012 
L 101.690873 195.387012 
L 102.76234 207.455003 
L 103.833807 207.455003 
L 104.905275 221.063456 
L 105.976742 221.063456 
L 107.048209 206.686491 
L 109.191143 206.686491 
L 110.26261 219.296364 
L 111.334077 219.296364 
L 112.405545 205.227746 
L 113.477012 205.227746 
L 115.619946 230.316399 
L 117.76288 230.316399 
L 118.834347 216.28153 
L 119.905815 216.28153 
L 120.977282 229.808739 
L 122.048749 229.808739 
L 123.120216 215.41276 
L 124.191683 228.581974 
L 125.26315 228.581974 
L 126.334617 225.36606 
L 127.406085 225.36606 
L 129.549019 195.960935 
L 131.691953 195.960935 
L 132.76342 182.059362 
L 133.834887 182.059362 
L 134.906355 168.599051 
L 135.977822 168.599051 
L 137.049289 182.285698 
L 139.192223 182.285698 
L 140.26369 167.917386 
L 141.335158 167.917386 
L 142.406625 154.682378 
L 143.478092 154.682378 
L 144.549559 170.083642 
L 145.621026 155.820347 
L 147.76396 155.820347 
L 148.835428 141.855302 
L 149.906895 141.855302 
L 150.978362 144.904545 
L 152.049829 144.904545 
L 153.121296 143.296347 
L 154.192763 156.832799 
L 156.335698 156.832799 
L 157.407165 142.768723 
L 158.478632 142.768723 
L 159.550099 144.901959 
L 160.621566 149.282884 
L 163.835968 149.282884 
L 164.907435 134.455092 
L 165.978902 134.455092 
L 168.121836 109.201343 
L 169.193303 109.201343 
L 170.26477 97.223092 
L 172.407705 97.223092 
L 173.479172 84.091884 
L 174.550639 84.091884 
L 175.622106 70.9701 
L 176.693573 70.9701 
L 177.765041 58.91269 
L 178.836508 58.91269 
L 179.907975 72.206654 
L 180.979442 72.206654 
L 182.050909 70.644898 
L 184.193843 70.644898 
L 185.265311 83.893595 
L 188.479712 83.893595 
L 189.551179 69.646887 
L 190.622646 69.646887 
L 191.694113 83.58269 
L 192.765581 83.58269 
L 193.837048 96.658674 
L 202.408785 96.658674 
L 204.551719 125.724123 
L 206.694653 125.724123 
L 207.766121 123.651638 
L 208.837588 123.651638 
L 209.909055 111.770852 
L 210.980522 111.770852 
L 212.051989 125.418559 
L 214.194923 125.418559 
L 215.266391 139.906811 
L 216.337858 139.906811 
L 217.409325 152.433539 
L 218.480792 152.433539 
L 219.552259 137.46574 
L 220.623726 137.46574 
L 221.695194 151.201245 
L 222.766661 151.201245 
L 223.838128 149.771468 
L 224.909595 149.771468 
L 225.981062 162.610845 
L 229.195464 162.610845 
L 230.266931 148.646623 
L 231.338398 148.646623 
L 232.409865 149.595789 
L 233.481332 137.078191 
L 234.552799 137.078191 
L 235.624266 124.213054 
L 237.767201 124.213054 
L 238.838668 109.109074 
L 240.981602 109.109074 
L 242.053069 96.595259 
L 243.124536 109.449228 
L 247.410405 109.449228 
L 248.481872 95.581495 
L 249.553339 95.581495 
L 250.624806 82.805631 
L 251.696274 67.945074 
L 253.839208 67.945074 
L 254.910675 53.568 
L 255.982142 53.568 
L 257.053609 59.294618 
L 258.125077 59.294618 
L 259.196544 73.021212 
L 260.268011 73.021212 
L 261.339478 86.909661 
L 262.410945 86.909661 
L 263.482412 100.986319 
L 264.553879 103.022641 
L 265.625347 103.022641 
L 266.696814 90.301541 
L 268.839748 90.301541 
L 269.911215 104.730069 
L 270.982682 104.730069 
L 272.054149 120.821275 
L 398.487273 120.821275 
L 398.487273 120.821275 
" style="fill:none;stroke:#ff0000;stroke-linecap:square;stroke-width:12;"/>
    <defs>
     <path d="M 0 3 
C 0.795609 3 1.55874 2.683901 2.12132 2.12132 
C 2.683901 1.55874 3 0.795609 3 0 
C 3 -0.795609 2.683901 -1.55874 2.12132 -2.12132 
C 1.55874 -2.683901 0.795609 -3 0 -3 
C -0.795609 -3 -1.55874 -2.683901 -2.12132 -2.12132 
C -2.683901 -1.55874 -3 -0.795609 -3 0 
C -3 0.795609 -2.683901 1.55874 -2.12132 2.12132 
C -1.55874 2.683901 -0.795609 3 0 3 
z
" id="m5d6d13b72b" style="stroke:#ff0000;"/>
    </defs>
    <g clip-path="url(#pe156e31c21)">
     <use style="fill:#ff0000;stroke:#ff0000;" x="73.832727" xlink:href="#m5d6d13b72b" y="135.465125"/>
     <use style="fill:#ff0000;stroke:#ff0000;" x="74.904194" xlink:href="#m5d6d13b72b" y="176.778055"/>
     <use style="fill:#ff0000;stroke:#ff0000;" x="75.975662" xlink:href="#m5d6d13b72b" y="176.778055"/>
     <use style="fill:#ff0000;stroke:#ff0000;" x="77.047129" xlink:href="#m5d6d13b72b" y="176.778055"/>
     <use style="fill:#ff0000;stroke:#ff0000;" x="78.118596" xlink:href="#m5d6d13b72b" y="176.778055"/>
     <use style="fill:#ff0000;stroke:#ff0000;" x="79.190063" xlink:href="#m5d6d13b72b" y="217.218137"/>
     <use style="fill:#ff0000;stroke:#ff0000;" x="80.26153" xlink:href="#m5d6d13b72b" y="217.218137"/>
     <use style="fill:#ff0000;stroke:#ff0000;" x="81.332997" xlink:href="#m5d6d13b72b" y="256.074985"/>
     <use style="fill:#ff0000;stroke:#ff0000;" x="82.404464" xlink:href="#m5d6d13b72b" y="295.488"/>
     <use style="fill:#ff0000;stroke:#ff0000;" x="83.475932" xlink:href="#m5d6d13b72b" y="295.488"/>
     <use style="fill:#ff0000;stroke:#ff0000;" x="84.547399" xlink:href="#m5d6d13b72b" y="250.746844"/>
     <use style="fill:#ff0000;stroke:#ff0000;" x="85.618866" xlink:href="#m5d6d13b72b" y="250.746844"/>
     <use style="fill:#ff0000;stroke:#ff0000;" x="86.690333" xlink:href="#m5d6d13b72b" y="250.746844"/>
     <use style="fill:#ff0000;stroke:#ff0000;" x="87.7618" xlink:href="#m5d6d13b72b" y="206.133858"/>
     <use style="fill:#ff0000;stroke:#ff0000;" x="88.833267" xlink:href="#m5d6d13b72b" y="206.133858"/>
     <use style="fill:#ff0000;stroke:#ff0000;" x="89.904734" xlink:href="#m5d6d13b72b" y="206.133858"/>
     <use style="fill:#ff0000;stroke:#ff0000;" x="90.976202" xlink:href="#m5d6d13b72b" y="206.133858"/>
     <use style="fill:#ff0000;stroke:#ff0000;" x="92.047669" xlink:href="#m5d6d13b72b" y="160.89117"/>
     <use style="fill:#ff0000;stroke:#ff0000;" x="93.119136" xlink:href="#m5d6d13b72b" y="160.89117"/>
     <use style="fill:#ff0000;stroke:#ff0000;" x="94.190603" xlink:href="#m5d6d13b72b" y="160.89117"/>
     <use style="fill:#ff0000;stroke:#ff0000;" x="95.26207" xlink:href="#m5d6d13b72b" y="160.89117"/>
     <use style="fill:#ff0000;stroke:#ff0000;" x="96.333537" xlink:href="#m5d6d13b72b" y="160.888268"/>
     <use style="fill:#ff0000;stroke:#ff0000;" x="97.405005" xlink:href="#m5d6d13b72b" y="160.888268"/>
     <use style="fill:#ff0000;stroke:#ff0000;" x="98.476472" xlink:href="#m5d6d13b72b" y="198.343907"/>
     <use style="fill:#ff0000;stroke:#ff0000;" x="99.547939" xlink:href="#m5d6d13b72b" y="198.343907"/>
     <use style="fill:#ff0000;stroke:#ff0000;" x="100.619406" xlink:href="#m5d6d13b72b" y="195.387012"/>
     <use style="fill:#ff0000;stroke:#ff0000;" x="101.690873" xlink:href="#m5d6d13b72b" y="195.387012"/>
     <use style="fill:#ff0000;stroke:#ff0000;" x="102.76234" xlink:href="#m5d6d13b72b" y="207.455003"/>
     <use style="fill:#ff0000;stroke:#ff0000;" x="103.833807" xlink:href="#m5d6d13b72b" y="207.455003"/>
     <use style="fill:#ff0000;stroke:#ff0000;" x="104.905275" xlink:href="#m5d6d13b72b" y="221.063456"/>
     <use style="fill:#ff0000;stroke:#ff0000;" x="105.976742" xlink:href="#m5d6d13b72b" y="221.063456"/>
     <use style="fill:#ff0000;stroke:#ff0000;" x="107.048209" xlink:href="#m5d6d13b72b" y="206.686491"/>
     <use style="fill:#ff0000;stroke:#ff0000;" x="108.119676" xlink:href="#m5d6d13b72b" y="206.686491"/>
     <use style="fill:#ff0000;stroke:#ff0000;" x="109.191143" xlink:href="#m5d6d13b72b" y="206.686491"/>
     <use style="fill:#ff0000;stroke:#ff0000;" x="110.26261" xlink:href="#m5d6d13b72b" y="219.296364"/>
     <use style="fill:#ff0000;stroke:#ff0000;" x="111.334077" xlink:href="#m5d6d13b72b" y="219.296364"/>
     <use style="fill:#ff0000;stroke:#ff0000;" x="112.405545" xlink:href="#m5d6d13b72b" y="205.227746"/>
     <use style="fill:#ff0000;stroke:#ff0000;" x="113.477012" xlink:href="#m5d6d13b72b" y="205.227746"/>
     <use style="fill:#ff0000;stroke:#ff0000;" x="114.548479" xlink:href="#m5d6d13b72b" y="218.007514"/>
     <use style="fill:#ff0000;stroke:#ff0000;" x="115.619946" xlink:href="#m5d6d13b72b" y="230.316399"/>
     <use style="fill:#ff0000;stroke:#ff0000;" x="116.691413" xlink:href="#m5d6d13b72b" y="230.316399"/>
     <use style="fill:#ff0000;stroke:#ff0000;" x="117.76288" xlink:href="#m5d6d13b72b" y="230.316399"/>
     <use style="fill:#ff0000;stroke:#ff0000;" x="118.834347" xlink:href="#m5d6d13b72b" y="216.28153"/>
     <use style="fill:#ff0000;stroke:#ff0000;" x="119.905815" xlink:href="#m5d6d13b72b" y="216.28153"/>
     <use style="fill:#ff0000;stroke:#ff0000;" x="120.977282" xlink:href="#m5d6d13b72b" y="229.808739"/>
     <use style="fill:#ff0000;stroke:#ff0000;" x="122.048749" xlink:href="#m5d6d13b72b" y="229.808739"/>
     <use style="fill:#ff0000;stroke:#ff0000;" x="123.120216" xlink:href="#m5d6d13b72b" y="215.41276"/>
     <use style="fill:#ff0000;stroke:#ff0000;" x="124.191683" xlink:href="#m5d6d13b72b" y="228.581974"/>
     <use style="fill:#ff0000;stroke:#ff0000;" x="125.26315" xlink:href="#m5d6d13b72b" y="228.581974"/>
     <use style="fill:#ff0000;stroke:#ff0000;" x="126.334617" xlink:href="#m5d6d13b72b" y="225.36606"/>
     <use style="fill:#ff0000;stroke:#ff0000;" x="127.406085" xlink:href="#m5d6d13b72b" y="225.36606"/>
     <use style="fill:#ff0000;stroke:#ff0000;" x="128.477552" xlink:href="#m5d6d13b72b" y="210.723207"/>
     <use style="fill:#ff0000;stroke:#ff0000;" x="129.549019" xlink:href="#m5d6d13b72b" y="195.960935"/>
     <use style="fill:#ff0000;stroke:#ff0000;" x="130.620486" xlink:href="#m5d6d13b72b" y="195.960935"/>
     <use style="fill:#ff0000;stroke:#ff0000;" x="131.691953" xlink:href="#m5d6d13b72b" y="195.960935"/>
     <use style="fill:#ff0000;stroke:#ff0000;" x="132.76342" xlink:href="#m5d6d13b72b" y="182.059362"/>
     <use style="fill:#ff0000;stroke:#ff0000;" x="133.834887" xlink:href="#m5d6d13b72b" y="182.059362"/>
     <use style="fill:#ff0000;stroke:#ff0000;" x="134.906355" xlink:href="#m5d6d13b72b" y="168.599051"/>
     <use style="fill:#ff0000;stroke:#ff0000;" x="135.977822" xlink:href="#m5d6d13b72b" y="168.599051"/>
     <use style="fill:#ff0000;stroke:#ff0000;" x="137.049289" xlink:href="#m5d6d13b72b" y="182.285698"/>
     <use style="fill:#ff0000;stroke:#ff0000;" x="138.120756" xlink:href="#m5d6d13b72b" y="182.285698"/>
     <use style="fill:#ff0000;stroke:#ff0000;" x="139.192223" xlink:href="#m5d6d13b72b" y="182.285698"/>
     <use style="fill:#ff0000;stroke:#ff0000;" x="140.26369" xlink:href="#m5d6d13b72b" y="167.917386"/>
     <use style="fill:#ff0000;stroke:#ff0000;" x="141.335158" xlink:href="#m5d6d13b72b" y="167.917386"/>
     <use style="fill:#ff0000;stroke:#ff0000;" x="142.406625" xlink:href="#m5d6d13b72b" y="154.682378"/>
     <use style="fill:#ff0000;stroke:#ff0000;" x="143.478092" xlink:href="#m5d6d13b72b" y="154.682378"/>
     <use style="fill:#ff0000;stroke:#ff0000;" x="144.549559" xlink:href="#m5d6d13b72b" y="170.083642"/>
     <use style="fill:#ff0000;stroke:#ff0000;" x="145.621026" xlink:href="#m5d6d13b72b" y="155.820347"/>
     <use style="fill:#ff0000;stroke:#ff0000;" x="146.692493" xlink:href="#m5d6d13b72b" y="155.820347"/>
     <use style="fill:#ff0000;stroke:#ff0000;" x="147.76396" xlink:href="#m5d6d13b72b" y="155.820347"/>
     <use style="fill:#ff0000;stroke:#ff0000;" x="148.835428" xlink:href="#m5d6d13b72b" y="141.855302"/>
     <use style="fill:#ff0000;stroke:#ff0000;" x="149.906895" xlink:href="#m5d6d13b72b" y="141.855302"/>
     <use style="fill:#ff0000;stroke:#ff0000;" x="150.978362" xlink:href="#m5d6d13b72b" y="144.904545"/>
     <use style="fill:#ff0000;stroke:#ff0000;" x="152.049829" xlink:href="#m5d6d13b72b" y="144.904545"/>
     <use style="fill:#ff0000;stroke:#ff0000;" x="153.121296" xlink:href="#m5d6d13b72b" y="143.296347"/>
     <use style="fill:#ff0000;stroke:#ff0000;" x="154.192763" xlink:href="#m5d6d13b72b" y="156.832799"/>
     <use style="fill:#ff0000;stroke:#ff0000;" x="155.26423" xlink:href="#m5d6d13b72b" y="156.832799"/>
     <use style="fill:#ff0000;stroke:#ff0000;" x="156.335698" xlink:href="#m5d6d13b72b" y="156.832799"/>
     <use style="fill:#ff0000;stroke:#ff0000;" x="157.407165" xlink:href="#m5d6d13b72b" y="142.768723"/>
     <use style="fill:#ff0000;stroke:#ff0000;" x="158.478632" xlink:href="#m5d6d13b72b" y="142.768723"/>
     <use style="fill:#ff0000;stroke:#ff0000;" x="159.550099" xlink:href="#m5d6d13b72b" y="144.901959"/>
     <use style="fill:#ff0000;stroke:#ff0000;" x="160.621566" xlink:href="#m5d6d13b72b" y="149.282884"/>
     <use style="fill:#ff0000;stroke:#ff0000;" x="161.693033" xlink:href="#m5d6d13b72b" y="149.282884"/>
     <use style="fill:#ff0000;stroke:#ff0000;" x="162.7645" xlink:href="#m5d6d13b72b" y="149.282884"/>
     <use style="fill:#ff0000;stroke:#ff0000;" x="163.835968" xlink:href="#m5d6d13b72b" y="149.282884"/>
     <use style="fill:#ff0000;stroke:#ff0000;" x="164.907435" xlink:href="#m5d6d13b72b" y="134.455092"/>
     <use style="fill:#ff0000;stroke:#ff0000;" x="165.978902" xlink:href="#m5d6d13b72b" y="134.455092"/>
     <use style="fill:#ff0000;stroke:#ff0000;" x="167.050369" xlink:href="#m5d6d13b72b" y="122.24817"/>
     <use style="fill:#ff0000;stroke:#ff0000;" x="168.121836" xlink:href="#m5d6d13b72b" y="109.201343"/>
     <use style="fill:#ff0000;stroke:#ff0000;" x="169.193303" xlink:href="#m5d6d13b72b" y="109.201343"/>
     <use style="fill:#ff0000;stroke:#ff0000;" x="170.26477" xlink:href="#m5d6d13b72b" y="97.223092"/>
     <use style="fill:#ff0000;stroke:#ff0000;" x="171.336238" xlink:href="#m5d6d13b72b" y="97.223092"/>
     <use style="fill:#ff0000;stroke:#ff0000;" x="172.407705" xlink:href="#m5d6d13b72b" y="97.223092"/>
     <use style="fill:#ff0000;stroke:#ff0000;" x="173.479172" xlink:href="#m5d6d13b72b" y="84.091884"/>
     <use style="fill:#ff0000;stroke:#ff0000;" x="174.550639" xlink:href="#m5d6d13b72b" y="84.091884"/>
     <use style="fill:#ff0000;stroke:#ff0000;" x="175.622106" xlink:href="#m5d6d13b72b" y="70.9701"/>
     <use style="fill:#ff0000;stroke:#ff0000;" x="176.693573" xlink:href="#m5d6d13b72b" y="70.9701"/>
     <use style="fill:#ff0000;stroke:#ff0000;" x="177.765041" xlink:href="#m5d6d13b72b" y="58.91269"/>
     <use style="fill:#ff0000;stroke:#ff0000;" x="178.836508" xlink:href="#m5d6d13b72b" y="58.91269"/>
     <use style="fill:#ff0000;stroke:#ff0000;" x="179.907975" xlink:href="#m5d6d13b72b" y="72.206654"/>
     <use style="fill:#ff0000;stroke:#ff0000;" x="180.979442" xlink:href="#m5d6d13b72b" y="72.206654"/>
     <use style="fill:#ff0000;stroke:#ff0000;" x="182.050909" xlink:href="#m5d6d13b72b" y="70.644898"/>
     <use style="fill:#ff0000;stroke:#ff0000;" x="183.122376" xlink:href="#m5d6d13b72b" y="70.644898"/>
     <use style="fill:#ff0000;stroke:#ff0000;" x="184.193843" xlink:href="#m5d6d13b72b" y="70.644898"/>
     <use style="fill:#ff0000;stroke:#ff0000;" x="185.265311" xlink:href="#m5d6d13b72b" y="83.893595"/>
     <use style="fill:#ff0000;stroke:#ff0000;" x="186.336778" xlink:href="#m5d6d13b72b" y="83.893595"/>
     <use style="fill:#ff0000;stroke:#ff0000;" x="187.408245" xlink:href="#m5d6d13b72b" y="83.893595"/>
     <use style="fill:#ff0000;stroke:#ff0000;" x="188.479712" xlink:href="#m5d6d13b72b" y="83.893595"/>
     <use style="fill:#ff0000;stroke:#ff0000;" x="189.551179" xlink:href="#m5d6d13b72b" y="69.646887"/>
     <use style="fill:#ff0000;stroke:#ff0000;" x="190.622646" xlink:href="#m5d6d13b72b" y="69.646887"/>
     <use style="fill:#ff0000;stroke:#ff0000;" x="191.694113" xlink:href="#m5d6d13b72b" y="83.58269"/>
     <use style="fill:#ff0000;stroke:#ff0000;" x="192.765581" xlink:href="#m5d6d13b72b" y="83.58269"/>
     <use style="fill:#ff0000;stroke:#ff0000;" x="193.837048" xlink:href="#m5d6d13b72b" y="96.658674"/>
     <use style="fill:#ff0000;stroke:#ff0000;" x="194.908515" xlink:href="#m5d6d13b72b" y="96.658674"/>
     <use style="fill:#ff0000;stroke:#ff0000;" x="195.979982" xlink:href="#m5d6d13b72b" y="96.658674"/>
     <use style="fill:#ff0000;stroke:#ff0000;" x="197.051449" xlink:href="#m5d6d13b72b" y="96.658674"/>
     <use style="fill:#ff0000;stroke:#ff0000;" x="198.122916" xlink:href="#m5d6d13b72b" y="96.658674"/>
     <use style="fill:#ff0000;stroke:#ff0000;" x="199.194383" xlink:href="#m5d6d13b72b" y="96.658674"/>
     <use style="fill:#ff0000;stroke:#ff0000;" x="200.265851" xlink:href="#m5d6d13b72b" y="96.658674"/>
     <use style="fill:#ff0000;stroke:#ff0000;" x="201.337318" xlink:href="#m5d6d13b72b" y="96.658674"/>
     <use style="fill:#ff0000;stroke:#ff0000;" x="202.408785" xlink:href="#m5d6d13b72b" y="96.658674"/>
     <use style="fill:#ff0000;stroke:#ff0000;" x="203.480252" xlink:href="#m5d6d13b72b" y="110.540844"/>
     <use style="fill:#ff0000;stroke:#ff0000;" x="204.551719" xlink:href="#m5d6d13b72b" y="125.724123"/>
     <use style="fill:#ff0000;stroke:#ff0000;" x="205.623186" xlink:href="#m5d6d13b72b" y="125.724123"/>
     <use style="fill:#ff0000;stroke:#ff0000;" x="206.694653" xlink:href="#m5d6d13b72b" y="125.724123"/>
     <use style="fill:#ff0000;stroke:#ff0000;" x="207.766121" xlink:href="#m5d6d13b72b" y="123.651638"/>
     <use style="fill:#ff0000;stroke:#ff0000;" x="208.837588" xlink:href="#m5d6d13b72b" y="123.651638"/>
     <use style="fill:#ff0000;stroke:#ff0000;" x="209.909055" xlink:href="#m5d6d13b72b" y="111.770852"/>
     <use style="fill:#ff0000;stroke:#ff0000;" x="210.980522" xlink:href="#m5d6d13b72b" y="111.770852"/>
     <use style="fill:#ff0000;stroke:#ff0000;" x="212.051989" xlink:href="#m5d6d13b72b" y="125.418559"/>
     <use style="fill:#ff0000;stroke:#ff0000;" x="213.123456" xlink:href="#m5d6d13b72b" y="125.418559"/>
     <use style="fill:#ff0000;stroke:#ff0000;" x="214.194923" xlink:href="#m5d6d13b72b" y="125.418559"/>
     <use style="fill:#ff0000;stroke:#ff0000;" x="215.266391" xlink:href="#m5d6d13b72b" y="139.906811"/>
     <use style="fill:#ff0000;stroke:#ff0000;" x="216.337858" xlink:href="#m5d6d13b72b" y="139.906811"/>
     <use style="fill:#ff0000;stroke:#ff0000;" x="217.409325" xlink:href="#m5d6d13b72b" y="152.433539"/>
     <use style="fill:#ff0000;stroke:#ff0000;" x="218.480792" xlink:href="#m5d6d13b72b" y="152.433539"/>
     <use style="fill:#ff0000;stroke:#ff0000;" x="219.552259" xlink:href="#m5d6d13b72b" y="137.46574"/>
     <use style="fill:#ff0000;stroke:#ff0000;" x="220.623726" xlink:href="#m5d6d13b72b" y="137.46574"/>
     <use style="fill:#ff0000;stroke:#ff0000;" x="221.695194" xlink:href="#m5d6d13b72b" y="151.201245"/>
     <use style="fill:#ff0000;stroke:#ff0000;" x="222.766661" xlink:href="#m5d6d13b72b" y="151.201245"/>
     <use style="fill:#ff0000;stroke:#ff0000;" x="223.838128" xlink:href="#m5d6d13b72b" y="149.771468"/>
     <use style="fill:#ff0000;stroke:#ff0000;" x="224.909595" xlink:href="#m5d6d13b72b" y="149.771468"/>
     <use style="fill:#ff0000;stroke:#ff0000;" x="225.981062" xlink:href="#m5d6d13b72b" y="162.610845"/>
     <use style="fill:#ff0000;stroke:#ff0000;" x="227.052529" xlink:href="#m5d6d13b72b" y="162.610845"/>
     <use style="fill:#ff0000;stroke:#ff0000;" x="228.123996" xlink:href="#m5d6d13b72b" y="162.610845"/>
     <use style="fill:#ff0000;stroke:#ff0000;" x="229.195464" xlink:href="#m5d6d13b72b" y="162.610845"/>
     <use style="fill:#ff0000;stroke:#ff0000;" x="230.266931" xlink:href="#m5d6d13b72b" y="148.646623"/>
     <use style="fill:#ff0000;stroke:#ff0000;" x="231.338398" xlink:href="#m5d6d13b72b" y="148.646623"/>
     <use style="fill:#ff0000;stroke:#ff0000;" x="232.409865" xlink:href="#m5d6d13b72b" y="149.595789"/>
     <use style="fill:#ff0000;stroke:#ff0000;" x="233.481332" xlink:href="#m5d6d13b72b" y="137.078191"/>
     <use style="fill:#ff0000;stroke:#ff0000;" x="234.552799" xlink:href="#m5d6d13b72b" y="137.078191"/>
     <use style="fill:#ff0000;stroke:#ff0000;" x="235.624266" xlink:href="#m5d6d13b72b" y="124.213054"/>
     <use style="fill:#ff0000;stroke:#ff0000;" x="236.695734" xlink:href="#m5d6d13b72b" y="124.213054"/>
     <use style="fill:#ff0000;stroke:#ff0000;" x="237.767201" xlink:href="#m5d6d13b72b" y="124.213054"/>
     <use style="fill:#ff0000;stroke:#ff0000;" x="238.838668" xlink:href="#m5d6d13b72b" y="109.109074"/>
     <use style="fill:#ff0000;stroke:#ff0000;" x="239.910135" xlink:href="#m5d6d13b72b" y="109.109074"/>
     <use style="fill:#ff0000;stroke:#ff0000;" x="240.981602" xlink:href="#m5d6d13b72b" y="109.109074"/>
     <use style="fill:#ff0000;stroke:#ff0000;" x="242.053069" xlink:href="#m5d6d13b72b" y="96.595259"/>
     <use style="fill:#ff0000;stroke:#ff0000;" x="243.124536" xlink:href="#m5d6d13b72b" y="109.449228"/>
     <use style="fill:#ff0000;stroke:#ff0000;" x="244.196004" xlink:href="#m5d6d13b72b" y="109.449228"/>
     <use style="fill:#ff0000;stroke:#ff0000;" x="245.267471" xlink:href="#m5d6d13b72b" y="109.449228"/>
     <use style="fill:#ff0000;stroke:#ff0000;" x="246.338938" xlink:href="#m5d6d13b72b" y="109.449228"/>
     <use style="fill:#ff0000;stroke:#ff0000;" x="247.410405" xlink:href="#m5d6d13b72b" y="109.449228"/>
     <use style="fill:#ff0000;stroke:#ff0000;" x="248.481872" xlink:href="#m5d6d13b72b" y="95.581495"/>
     <use style="fill:#ff0000;stroke:#ff0000;" x="249.553339" xlink:href="#m5d6d13b72b" y="95.581495"/>
     <use style="fill:#ff0000;stroke:#ff0000;" x="250.624806" xlink:href="#m5d6d13b72b" y="82.805631"/>
     <use style="fill:#ff0000;stroke:#ff0000;" x="251.696274" xlink:href="#m5d6d13b72b" y="67.945074"/>
     <use style="fill:#ff0000;stroke:#ff0000;" x="252.767741" xlink:href="#m5d6d13b72b" y="67.945074"/>
     <use style="fill:#ff0000;stroke:#ff0000;" x="253.839208" xlink:href="#m5d6d13b72b" y="67.945074"/>
     <use style="fill:#ff0000;stroke:#ff0000;" x="254.910675" xlink:href="#m5d6d13b72b" y="53.568"/>
     <use style="fill:#ff0000;stroke:#ff0000;" x="255.982142" xlink:href="#m5d6d13b72b" y="53.568"/>
     <use style="fill:#ff0000;stroke:#ff0000;" x="257.053609" xlink:href="#m5d6d13b72b" y="59.294618"/>
     <use style="fill:#ff0000;stroke:#ff0000;" x="258.125077" xlink:href="#m5d6d13b72b" y="59.294618"/>
     <use style="fill:#ff0000;stroke:#ff0000;" x="259.196544" xlink:href="#m5d6d13b72b" y="73.021212"/>
     <use style="fill:#ff0000;stroke:#ff0000;" x="260.268011" xlink:href="#m5d6d13b72b" y="73.021212"/>
     <use style="fill:#ff0000;stroke:#ff0000;" x="261.339478" xlink:href="#m5d6d13b72b" y="86.909661"/>
     <use style="fill:#ff0000;stroke:#ff0000;" x="262.410945" xlink:href="#m5d6d13b72b" y="86.909661"/>
     <use style="fill:#ff0000;stroke:#ff0000;" x="263.482412" xlink:href="#m5d6d13b72b" y="100.986319"/>
     <use style="fill:#ff0000;stroke:#ff0000;" x="264.553879" xlink:href="#m5d6d13b72b" y="103.022641"/>
     <use style="fill:#ff0000;stroke:#ff0000;" x="265.625347" xlink:href="#m5d6d13b72b" y="103.022641"/>
     <use style="fill:#ff0000;stroke:#ff0000;" x="266.696814" xlink:href="#m5d6d13b72b" y="90.301541"/>
     <use style="fill:#ff0000;stroke:#ff0000;" x="267.768281" xlink:href="#m5d6d13b72b" y="90.301541"/>
     <use style="fill:#ff0000;stroke:#ff0000;" x="268.839748" xlink:href="#m5d6d13b72b" y="90.301541"/>
     <use style="fill:#ff0000;stroke:#ff0000;" x="269.911215" xlink:href="#m5d6d13b72b" y="104.730069"/>
     <use style="fill:#ff0000;stroke:#ff0000;" x="270.982682" xlink:href="#m5d6d13b72b" y="104.730069"/>
     <use style="fill:#ff0000;stroke:#ff0000;" x="272.054149" xlink:href="#m5d6d13b72b" y="120.821275"/>
     <use style="fill:#ff0000;stroke:#ff0000;" x="273.125617" xlink:href="#m5d6d13b72b" y="120.821275"/>
     <use style="fill:#ff0000;stroke:#ff0000;" x="274.197084" xlink:href="#m5d6d13b72b" y="120.821275"/>
     <use style="fill:#ff0000;stroke:#ff0000;" x="275.268551" xlink:href="#m5d6d13b72b" y="120.821275"/>
     <use style="fill:#ff0000;stroke:#ff0000;" x="276.340018" xlink:href="#m5d6d13b72b" y="120.821275"/>
     <use style="fill:#ff0000;stroke:#ff0000;" x="277.411485" xlink:href="#m5d6d13b72b" y="120.821275"/>
     <use style="fill:#ff0000;stroke:#ff0000;" x="278.482952" xlink:href="#m5d6d13b72b" y="120.821275"/>
     <use style="fill:#ff0000;stroke:#ff0000;" x="279.554419" xlink:href="#m5d6d13b72b" y="120.821275"/>
     <use style="fill:#ff0000;stroke:#ff0000;" x="280.625887" xlink:href="#m5d6d13b72b" y="120.821275"/>
     <use style="fill:#ff0000;stroke:#ff0000;" x="281.697354" xlink:href="#m5d6d13b72b" y="120.821275"/>
     <use style="fill:#ff0000;stroke:#ff0000;" x="282.768821" xlink:href="#m5d6d13b72b" y="120.821275"/>
     <use style="fill:#ff0000;stroke:#ff0000;" x="283.840288" xlink:href="#m5d6d13b72b" y="120.821275"/>
     <use style="fill:#ff0000;stroke:#ff0000;" x="284.911755" xlink:href="#m5d6d13b72b" y="120.821275"/>
     <use style="fill:#ff0000;stroke:#ff0000;" x="285.983222" xlink:href="#m5d6d13b72b" y="120.821275"/>
     <use style="fill:#ff0000;stroke:#ff0000;" x="287.054689" xlink:href="#m5d6d13b72b" y="120.821275"/>
     <use style="fill:#ff0000;stroke:#ff0000;" x="288.126157" xlink:href="#m5d6d13b72b" y="120.821275"/>
     <use style="fill:#ff0000;stroke:#ff0000;" x="289.197624" xlink:href="#m5d6d13b72b" y="120.821275"/>
     <use style="fill:#ff0000;stroke:#ff0000;" x="290.269091" xlink:href="#m5d6d13b72b" y="120.821275"/>
     <use style="fill:#ff0000;stroke:#ff0000;" x="291.340558" xlink:href="#m5d6d13b72b" y="120.821275"/>
     <use style="fill:#ff0000;stroke:#ff0000;" x="292.412025" xlink:href="#m5d6d13b72b" y="120.821275"/>
     <use style="fill:#ff0000;stroke:#ff0000;" x="293.483492" xlink:href="#m5d6d13b72b" y="120.821275"/>
     <use style="fill:#ff0000;stroke:#ff0000;" x="294.554959" xlink:href="#m5d6d13b72b" y="120.821275"/>
     <use style="fill:#ff0000;stroke:#ff0000;" x="295.626427" xlink:href="#m5d6d13b72b" y="120.821275"/>
     <use style="fill:#ff0000;stroke:#ff0000;" x="296.697894" xlink:href="#m5d6d13b72b" y="120.821275"/>
     <use style="fill:#ff0000;stroke:#ff0000;" x="297.769361" xlink:href="#m5d6d13b72b" y="120.821275"/>
     <use style="fill:#ff0000;stroke:#ff0000;" x="298.840828" xlink:href="#m5d6d13b72b" y="120.821275"/>
     <use style="fill:#ff0000;stroke:#ff0000;" x="299.912295" xlink:href="#m5d6d13b72b" y="120.821275"/>
     <use style="fill:#ff0000;stroke:#ff0000;" x="300.983762" xlink:href="#m5d6d13b72b" y="120.821275"/>
     <use style="fill:#ff0000;stroke:#ff0000;" x="302.05523" xlink:href="#m5d6d13b72b" y="120.821275"/>
     <use style="fill:#ff0000;stroke:#ff0000;" x="303.126697" xlink:href="#m5d6d13b72b" y="120.821275"/>
     <use style="fill:#ff0000;stroke:#ff0000;" x="304.198164" xlink:href="#m5d6d13b72b" y="120.821275"/>
     <use style="fill:#ff0000;stroke:#ff0000;" x="305.269631" xlink:href="#m5d6d13b72b" y="120.821275"/>
     <use style="fill:#ff0000;stroke:#ff0000;" x="306.341098" xlink:href="#m5d6d13b72b" y="120.821275"/>
     <use style="fill:#ff0000;stroke:#ff0000;" x="307.412565" xlink:href="#m5d6d13b72b" y="120.821275"/>
     <use style="fill:#ff0000;stroke:#ff0000;" x="308.484032" xlink:href="#m5d6d13b72b" y="120.821275"/>
     <use style="fill:#ff0000;stroke:#ff0000;" x="309.5555" xlink:href="#m5d6d13b72b" y="120.821275"/>
     <use style="fill:#ff0000;stroke:#ff0000;" x="310.626967" xlink:href="#m5d6d13b72b" y="120.821275"/>
     <use style="fill:#ff0000;stroke:#ff0000;" x="311.698434" xlink:href="#m5d6d13b72b" y="120.821275"/>
     <use style="fill:#ff0000;stroke:#ff0000;" x="312.769901" xlink:href="#m5d6d13b72b" y="120.821275"/>
     <use style="fill:#ff0000;stroke:#ff0000;" x="313.841368" xlink:href="#m5d6d13b72b" y="120.821275"/>
     <use style="fill:#ff0000;stroke:#ff0000;" x="314.912835" xlink:href="#m5d6d13b72b" y="120.821275"/>
     <use style="fill:#ff0000;stroke:#ff0000;" x="315.984302" xlink:href="#m5d6d13b72b" y="120.821275"/>
     <use style="fill:#ff0000;stroke:#ff0000;" x="317.05577" xlink:href="#m5d6d13b72b" y="120.821275"/>
     <use style="fill:#ff0000;stroke:#ff0000;" x="318.127237" xlink:href="#m5d6d13b72b" y="120.821275"/>
     <use style="fill:#ff0000;stroke:#ff0000;" x="319.198704" xlink:href="#m5d6d13b72b" y="120.821275"/>
     <use style="fill:#ff0000;stroke:#ff0000;" x="320.270171" xlink:href="#m5d6d13b72b" y="120.821275"/>
     <use style="fill:#ff0000;stroke:#ff0000;" x="321.341638" xlink:href="#m5d6d13b72b" y="120.821275"/>
     <use style="fill:#ff0000;stroke:#ff0000;" x="322.413105" xlink:href="#m5d6d13b72b" y="120.821275"/>
     <use style="fill:#ff0000;stroke:#ff0000;" x="323.484572" xlink:href="#m5d6d13b72b" y="120.821275"/>
     <use style="fill:#ff0000;stroke:#ff0000;" x="324.55604" xlink:href="#m5d6d13b72b" y="120.821275"/>
     <use style="fill:#ff0000;stroke:#ff0000;" x="325.627507" xlink:href="#m5d6d13b72b" y="120.821275"/>
     <use style="fill:#ff0000;stroke:#ff0000;" x="326.698974" xlink:href="#m5d6d13b72b" y="120.821275"/>
     <use style="fill:#ff0000;stroke:#ff0000;" x="327.770441" xlink:href="#m5d6d13b72b" y="120.821275"/>
     <use style="fill:#ff0000;stroke:#ff0000;" x="328.841908" xlink:href="#m5d6d13b72b" y="120.821275"/>
     <use style="fill:#ff0000;stroke:#ff0000;" x="329.913375" xlink:href="#m5d6d13b72b" y="120.821275"/>
     <use style="fill:#ff0000;stroke:#ff0000;" x="330.984842" xlink:href="#m5d6d13b72b" y="120.821275"/>
     <use style="fill:#ff0000;stroke:#ff0000;" x="332.05631" xlink:href="#m5d6d13b72b" y="120.821275"/>
     <use style="fill:#ff0000;stroke:#ff0000;" x="333.127777" xlink:href="#m5d6d13b72b" y="120.821275"/>
     <use style="fill:#ff0000;stroke:#ff0000;" x="334.199244" xlink:href="#m5d6d13b72b" y="120.821275"/>
     <use style="fill:#ff0000;stroke:#ff0000;" x="335.270711" xlink:href="#m5d6d13b72b" y="120.821275"/>
     <use style="fill:#ff0000;stroke:#ff0000;" x="336.342178" xlink:href="#m5d6d13b72b" y="120.821275"/>
     <use style="fill:#ff0000;stroke:#ff0000;" x="337.413645" xlink:href="#m5d6d13b72b" y="120.821275"/>
     <use style="fill:#ff0000;stroke:#ff0000;" x="338.485113" xlink:href="#m5d6d13b72b" y="120.821275"/>
     <use style="fill:#ff0000;stroke:#ff0000;" x="339.55658" xlink:href="#m5d6d13b72b" y="120.821275"/>
     <use style="fill:#ff0000;stroke:#ff0000;" x="340.628047" xlink:href="#m5d6d13b72b" y="120.821275"/>
     <use style="fill:#ff0000;stroke:#ff0000;" x="341.699514" xlink:href="#m5d6d13b72b" y="120.821275"/>
     <use style="fill:#ff0000;stroke:#ff0000;" x="342.770981" xlink:href="#m5d6d13b72b" y="120.821275"/>
     <use style="fill:#ff0000;stroke:#ff0000;" x="343.842448" xlink:href="#m5d6d13b72b" y="120.821275"/>
     <use style="fill:#ff0000;stroke:#ff0000;" x="344.913915" xlink:href="#m5d6d13b72b" y="120.821275"/>
     <use style="fill:#ff0000;stroke:#ff0000;" x="345.985383" xlink:href="#m5d6d13b72b" y="120.821275"/>
     <use style="fill:#ff0000;stroke:#ff0000;" x="347.05685" xlink:href="#m5d6d13b72b" y="120.821275"/>
     <use style="fill:#ff0000;stroke:#ff0000;" x="348.128317" xlink:href="#m5d6d13b72b" y="120.821275"/>
     <use style="fill:#ff0000;stroke:#ff0000;" x="349.199784" xlink:href="#m5d6d13b72b" y="120.821275"/>
     <use style="fill:#ff0000;stroke:#ff0000;" x="350.271251" xlink:href="#m5d6d13b72b" y="120.821275"/>
     <use style="fill:#ff0000;stroke:#ff0000;" x="351.342718" xlink:href="#m5d6d13b72b" y="120.821275"/>
     <use style="fill:#ff0000;stroke:#ff0000;" x="352.414185" xlink:href="#m5d6d13b72b" y="120.821275"/>
     <use style="fill:#ff0000;stroke:#ff0000;" x="353.485653" xlink:href="#m5d6d13b72b" y="120.821275"/>
     <use style="fill:#ff0000;stroke:#ff0000;" x="354.55712" xlink:href="#m5d6d13b72b" y="120.821275"/>
     <use style="fill:#ff0000;stroke:#ff0000;" x="355.628587" xlink:href="#m5d6d13b72b" y="120.821275"/>
     <use style="fill:#ff0000;stroke:#ff0000;" x="356.700054" xlink:href="#m5d6d13b72b" y="120.821275"/>
     <use style="fill:#ff0000;stroke:#ff0000;" x="357.771521" xlink:href="#m5d6d13b72b" y="120.821275"/>
     <use style="fill:#ff0000;stroke:#ff0000;" x="358.842988" xlink:href="#m5d6d13b72b" y="120.821275"/>
     <use style="fill:#ff0000;stroke:#ff0000;" x="359.914455" xlink:href="#m5d6d13b72b" y="120.821275"/>
     <use style="fill:#ff0000;stroke:#ff0000;" x="360.985923" xlink:href="#m5d6d13b72b" y="120.821275"/>
     <use style="fill:#ff0000;stroke:#ff0000;" x="362.05739" xlink:href="#m5d6d13b72b" y="120.821275"/>
     <use style="fill:#ff0000;stroke:#ff0000;" x="363.128857" xlink:href="#m5d6d13b72b" y="120.821275"/>
     <use style="fill:#ff0000;stroke:#ff0000;" x="364.200324" xlink:href="#m5d6d13b72b" y="120.821275"/>
     <use style="fill:#ff0000;stroke:#ff0000;" x="365.271791" xlink:href="#m5d6d13b72b" y="120.821275"/>
     <use style="fill:#ff0000;stroke:#ff0000;" x="366.343258" xlink:href="#m5d6d13b72b" y="120.821275"/>
     <use style="fill:#ff0000;stroke:#ff0000;" x="367.414725" xlink:href="#m5d6d13b72b" y="120.821275"/>
     <use style="fill:#ff0000;stroke:#ff0000;" x="368.486193" xlink:href="#m5d6d13b72b" y="120.821275"/>
     <use style="fill:#ff0000;stroke:#ff0000;" x="369.55766" xlink:href="#m5d6d13b72b" y="120.821275"/>
     <use style="fill:#ff0000;stroke:#ff0000;" x="370.629127" xlink:href="#m5d6d13b72b" y="120.821275"/>
     <use style="fill:#ff0000;stroke:#ff0000;" x="371.700594" xlink:href="#m5d6d13b72b" y="120.821275"/>
     <use style="fill:#ff0000;stroke:#ff0000;" x="372.772061" xlink:href="#m5d6d13b72b" y="120.821275"/>
     <use style="fill:#ff0000;stroke:#ff0000;" x="373.843528" xlink:href="#m5d6d13b72b" y="120.821275"/>
     <use style="fill:#ff0000;stroke:#ff0000;" x="374.914995" xlink:href="#m5d6d13b72b" y="120.821275"/>
     <use style="fill:#ff0000;stroke:#ff0000;" x="375.986463" xlink:href="#m5d6d13b72b" y="120.821275"/>
     <use style="fill:#ff0000;stroke:#ff0000;" x="377.05793" xlink:href="#m5d6d13b72b" y="120.821275"/>
     <use style="fill:#ff0000;stroke:#ff0000;" x="378.129397" xlink:href="#m5d6d13b72b" y="120.821275"/>
     <use style="fill:#ff0000;stroke:#ff0000;" x="379.200864" xlink:href="#m5d6d13b72b" y="120.821275"/>
     <use style="fill:#ff0000;stroke:#ff0000;" x="380.272331" xlink:href="#m5d6d13b72b" y="120.821275"/>
     <use style="fill:#ff0000;stroke:#ff0000;" x="381.343798" xlink:href="#m5d6d13b72b" y="120.821275"/>
     <use style="fill:#ff0000;stroke:#ff0000;" x="382.415266" xlink:href="#m5d6d13b72b" y="120.821275"/>
     <use style="fill:#ff0000;stroke:#ff0000;" x="383.486733" xlink:href="#m5d6d13b72b" y="120.821275"/>
     <use style="fill:#ff0000;stroke:#ff0000;" x="384.5582" xlink:href="#m5d6d13b72b" y="120.821275"/>
     <use style="fill:#ff0000;stroke:#ff0000;" x="385.629667" xlink:href="#m5d6d13b72b" y="120.821275"/>
     <use style="fill:#ff0000;stroke:#ff0000;" x="386.701134" xlink:href="#m5d6d13b72b" y="120.821275"/>
     <use style="fill:#ff0000;stroke:#ff0000;" x="387.772601" xlink:href="#m5d6d13b72b" y="120.821275"/>
     <use style="fill:#ff0000;stroke:#ff0000;" x="388.844068" xlink:href="#m5d6d13b72b" y="120.821275"/>
     <use style="fill:#ff0000;stroke:#ff0000;" x="389.915536" xlink:href="#m5d6d13b72b" y="120.821275"/>
     <use style="fill:#ff0000;stroke:#ff0000;" x="390.987003" xlink:href="#m5d6d13b72b" y="120.821275"/>
     <use style="fill:#ff0000;stroke:#ff0000;" x="392.05847" xlink:href="#m5d6d13b72b" y="120.821275"/>
     <use style="fill:#ff0000;stroke:#ff0000;" x="393.129937" xlink:href="#m5d6d13b72b" y="120.821275"/>
     <use style="fill:#ff0000;stroke:#ff0000;" x="394.201404" xlink:href="#m5d6d13b72b" y="120.821275"/>
     <use style="fill:#ff0000;stroke:#ff0000;" x="395.272871" xlink:href="#m5d6d13b72b" y="120.821275"/>
     <use style="fill:#ff0000;stroke:#ff0000;" x="396.344338" xlink:href="#m5d6d13b72b" y="120.821275"/>
     <use style="fill:#ff0000;stroke:#ff0000;" x="397.415806" xlink:href="#m5d6d13b72b" y="120.821275"/>
     <use style="fill:#ff0000;stroke:#ff0000;" x="398.487273" xlink:href="#m5d6d13b72b" y="120.821275"/>
    </g>
   </g>
   <g id="patch_3">
    <path d="M 57.6 307.584 
L 57.6 41.472 
" style="fill:none;stroke:#000000;stroke-linecap:square;stroke-linejoin:miter;stroke-width:0.8;"/>
   </g>
   <g id="patch_4">
    <path d="M 414.72 307.584 
L 414.72 41.472 
" style="fill:none;stroke:#000000;stroke-linecap:square;stroke-linejoin:miter;stroke-width:0.8;"/>
   </g>
   <g id="patch_5">
    <path d="M 57.6 307.584 
L 414.72 307.584 
" style="fill:none;stroke:#000000;stroke-linecap:square;stroke-linejoin:miter;stroke-width:0.8;"/>
   </g>
   <g id="patch_6">
    <path d="M 57.6 41.472 
L 414.72 41.472 
" style="fill:none;stroke:#000000;stroke-linecap:square;stroke-linejoin:miter;stroke-width:0.8;"/>
   </g>
  </g>
 </g>
 <defs>
  <clipPath id="pe156e31c21">
   <rect height="266.112" width="357.12" x="57.6" y="41.472"/>
  </clipPath>
 </defs>
</svg>
