<?xml version="1.0" encoding="utf-8" standalone="no"?>
<!DOCTYPE svg PUBLIC "-//W3C//DTD SVG 1.1//EN"
  "http://www.w3.org/Graphics/SVG/1.1/DTD/svg11.dtd">
<!-- Created with matplotlib (https://matplotlib.org/) -->
<svg height="345.6pt" version="1.1" viewBox="0 0 460.8 345.6" width="460.8pt" xmlns="http://www.w3.org/2000/svg" xmlns:xlink="http://www.w3.org/1999/xlink">
 <defs>
  <style type="text/css">
*{stroke-linecap:butt;stroke-linejoin:round;}
  </style>
 </defs>
 <g id="figure_1">
  <g id="patch_1">
   <path d="M 0 345.6 
L 460.8 345.6 
L 460.8 0 
L 0 0 
z
" style="fill:#ffffff;"/>
  </g>
  <g id="axes_1">
   <g id="patch_2">
    <path d="M 57.6 307.584 
L 414.72 307.584 
L 414.72 41.472 
L 57.6 41.472 
z
" style="fill:#ffffff;"/>
   </g>
   <g id="line2d_1">
    <path clip-path="url(#p1d05c45343)" d="M 73.832727 135.465125 
L 74.768331 176.778055 
L 77.575143 176.778055 
L 78.510747 217.218137 
L 79.446351 217.218137 
L 81.317558 295.488 
L 82.253162 295.488 
L 83.188766 250.746844 
L 85.059974 250.746844 
L 85.995578 206.133858 
L 88.802389 206.133858 
L 89.737993 160.89117 
L 94.416013 160.888268 
L 95.351616 198.343907 
L 96.28722 198.343907 
L 97.222824 195.387012 
L 98.158428 195.387012 
L 99.094032 207.455003 
L 100.029636 207.455003 
L 100.96524 221.063456 
L 101.900844 221.063456 
L 102.836447 206.686491 
L 104.707655 206.686491 
L 105.643259 219.296364 
L 106.578863 219.296364 
L 107.514467 205.227746 
L 108.450071 205.227746 
L 110.321278 230.316399 
L 112.192486 230.316399 
L 113.12809 216.28153 
L 114.063694 216.28153 
L 114.999298 229.808739 
L 115.934902 229.808739 
L 116.870506 215.41276 
L 117.80611 228.581974 
L 118.741713 228.581974 
L 119.677317 225.36606 
L 120.612921 225.36606 
L 122.484129 195.960935 
L 124.355337 195.960935 
L 125.290941 182.059362 
L 126.226544 182.059362 
L 127.162148 168.599051 
L 128.097752 168.599051 
L 129.033356 182.285698 
L 130.904564 182.285698 
L 131.840168 167.917386 
L 132.775772 167.917386 
L 133.711375 154.682378 
L 134.646979 154.682378 
L 135.582583 170.083642 
L 136.518187 155.820347 
L 138.389395 155.820347 
L 139.324999 141.855302 
L 140.260603 141.855302 
L 141.196206 144.904545 
L 142.13181 144.904545 
L 143.067414 143.296347 
L 144.003018 156.832799 
L 145.874226 156.832799 
L 146.80983 142.768723 
L 147.745434 142.768723 
L 148.681037 144.901959 
L 149.616641 149.282884 
L 152.423453 149.282884 
L 153.359057 134.455092 
L 154.294661 134.455092 
L 156.165868 109.201343 
L 157.101472 109.201343 
L 158.037076 97.223092 
L 159.908284 97.223092 
L 160.843888 84.091884 
L 161.779492 84.091884 
L 162.715096 70.9701 
L 163.6507 70.9701 
L 164.586303 58.91269 
L 165.521907 58.91269 
L 166.457511 72.206654 
L 167.393115 72.206654 
L 168.328719 70.644898 
L 170.199927 70.644898 
L 171.135531 83.893595 
L 173.942342 83.893595 
L 174.877946 69.646887 
L 175.81355 69.646887 
L 176.749154 83.58269 
L 177.684758 83.58269 
L 178.620362 96.658674 
L 186.105193 96.658674 
L 187.9764 125.724123 
L 189.847608 125.724123 
L 190.783212 123.651638 
L 191.718816 123.651638 
L 192.65442 111.770852 
L 193.590024 111.770852 
L 194.525627 125.418559 
L 196.396835 125.418559 
L 197.332439 139.906811 
L 198.268043 139.906811 
L 199.203647 152.433539 
L 200.139251 152.433539 
L 201.074855 137.46574 
L 202.010458 137.46574 
L 202.946062 151.201245 
L 203.881666 151.201245 
L 204.81727 149.771468 
L 205.752874 149.771468 
L 206.688478 162.610845 
L 209.495289 162.610845 
L 210.430893 148.646623 
L 211.366497 148.646623 
L 212.302101 149.595789 
L 213.237705 137.078191 
L 214.173309 137.078191 
L 215.108913 124.213054 
L 216.980121 124.213054 
L 217.915724 109.109074 
L 219.786932 109.109074 
L 220.722536 96.595259 
L 221.65814 109.449228 
L 225.400555 109.449228 
L 226.336159 95.581495 
L 227.271763 95.581495 
L 228.207367 82.805631 
L 229.142971 67.945074 
L 231.014179 67.945074 
L 231.949783 53.568 
L 232.885386 53.568 
L 233.82099 59.294618 
L 234.756594 59.294618 
L 235.692198 73.021212 
L 236.627802 73.021212 
L 237.563406 86.909661 
L 238.49901 86.909661 
L 239.434614 100.986319 
L 240.370217 103.022641 
L 241.305821 103.022641 
L 242.241425 90.301541 
L 244.112633 90.301541 
L 245.048237 104.730069 
L 245.983841 104.730069 
L 246.919445 120.821275 
L 398.487273 120.821275 
L 398.487273 120.821275 
" style="fill:none;stroke:#ff0000;stroke-linecap:square;stroke-width:12;"/>
    <defs>
     <path d="M 0 3 
C 0.795609 3 1.55874 2.683901 2.12132 2.12132 
C 2.683901 1.55874 3 0.795609 3 0 
C 3 -0.795609 2.683901 -1.55874 2.12132 -2.12132 
C 1.55874 -2.683901 0.795609 -3 0 -3 
C -0.795609 -3 -1.55874 -2.683901 -2.12132 -2.12132 
C -2.683901 -1.55874 -3 -0.795609 -3 0 
C -3 0.795609 -2.683901 1.55874 -2.12132 2.12132 
C -1.55874 2.683901 -0.795609 3 0 3 
z
" id="mdce929f50c" style="stroke:#ff0000;"/>
    </defs>
    <g clip-path="url(#p1d05c45343)">
     <use style="fill:#ff0000;stroke:#ff0000;" x="73.832727" xlink:href="#mdce929f50c" y="135.465125"/>
     <use style="fill:#ff0000;stroke:#ff0000;" x="74.768331" xlink:href="#mdce929f50c" y="176.778055"/>
     <use style="fill:#ff0000;stroke:#ff0000;" x="75.703935" xlink:href="#mdce929f50c" y="176.778055"/>
     <use style="fill:#ff0000;stroke:#ff0000;" x="76.639539" xlink:href="#mdce929f50c" y="176.778055"/>
     <use style="fill:#ff0000;stroke:#ff0000;" x="77.575143" xlink:href="#mdce929f50c" y="176.778055"/>
     <use style="fill:#ff0000;stroke:#ff0000;" x="78.510747" xlink:href="#mdce929f50c" y="217.218137"/>
     <use style="fill:#ff0000;stroke:#ff0000;" x="79.446351" xlink:href="#mdce929f50c" y="217.218137"/>
     <use style="fill:#ff0000;stroke:#ff0000;" x="80.381954" xlink:href="#mdce929f50c" y="256.074985"/>
     <use style="fill:#ff0000;stroke:#ff0000;" x="81.317558" xlink:href="#mdce929f50c" y="295.488"/>
     <use style="fill:#ff0000;stroke:#ff0000;" x="82.253162" xlink:href="#mdce929f50c" y="295.488"/>
     <use style="fill:#ff0000;stroke:#ff0000;" x="83.188766" xlink:href="#mdce929f50c" y="250.746844"/>
     <use style="fill:#ff0000;stroke:#ff0000;" x="84.12437" xlink:href="#mdce929f50c" y="250.746844"/>
     <use style="fill:#ff0000;stroke:#ff0000;" x="85.059974" xlink:href="#mdce929f50c" y="250.746844"/>
     <use style="fill:#ff0000;stroke:#ff0000;" x="85.995578" xlink:href="#mdce929f50c" y="206.133858"/>
     <use style="fill:#ff0000;stroke:#ff0000;" x="86.931182" xlink:href="#mdce929f50c" y="206.133858"/>
     <use style="fill:#ff0000;stroke:#ff0000;" x="87.866785" xlink:href="#mdce929f50c" y="206.133858"/>
     <use style="fill:#ff0000;stroke:#ff0000;" x="88.802389" xlink:href="#mdce929f50c" y="206.133858"/>
     <use style="fill:#ff0000;stroke:#ff0000;" x="89.737993" xlink:href="#mdce929f50c" y="160.89117"/>
     <use style="fill:#ff0000;stroke:#ff0000;" x="90.673597" xlink:href="#mdce929f50c" y="160.89117"/>
     <use style="fill:#ff0000;stroke:#ff0000;" x="91.609201" xlink:href="#mdce929f50c" y="160.89117"/>
     <use style="fill:#ff0000;stroke:#ff0000;" x="92.544805" xlink:href="#mdce929f50c" y="160.89117"/>
     <use style="fill:#ff0000;stroke:#ff0000;" x="93.480409" xlink:href="#mdce929f50c" y="160.888268"/>
     <use style="fill:#ff0000;stroke:#ff0000;" x="94.416013" xlink:href="#mdce929f50c" y="160.888268"/>
     <use style="fill:#ff0000;stroke:#ff0000;" x="95.351616" xlink:href="#mdce929f50c" y="198.343907"/>
     <use style="fill:#ff0000;stroke:#ff0000;" x="96.28722" xlink:href="#mdce929f50c" y="198.343907"/>
     <use style="fill:#ff0000;stroke:#ff0000;" x="97.222824" xlink:href="#mdce929f50c" y="195.387012"/>
     <use style="fill:#ff0000;stroke:#ff0000;" x="98.158428" xlink:href="#mdce929f50c" y="195.387012"/>
     <use style="fill:#ff0000;stroke:#ff0000;" x="99.094032" xlink:href="#mdce929f50c" y="207.455003"/>
     <use style="fill:#ff0000;stroke:#ff0000;" x="100.029636" xlink:href="#mdce929f50c" y="207.455003"/>
     <use style="fill:#ff0000;stroke:#ff0000;" x="100.96524" xlink:href="#mdce929f50c" y="221.063456"/>
     <use style="fill:#ff0000;stroke:#ff0000;" x="101.900844" xlink:href="#mdce929f50c" y="221.063456"/>
     <use style="fill:#ff0000;stroke:#ff0000;" x="102.836447" xlink:href="#mdce929f50c" y="206.686491"/>
     <use style="fill:#ff0000;stroke:#ff0000;" x="103.772051" xlink:href="#mdce929f50c" y="206.686491"/>
     <use style="fill:#ff0000;stroke:#ff0000;" x="104.707655" xlink:href="#mdce929f50c" y="206.686491"/>
     <use style="fill:#ff0000;stroke:#ff0000;" x="105.643259" xlink:href="#mdce929f50c" y="219.296364"/>
     <use style="fill:#ff0000;stroke:#ff0000;" x="106.578863" xlink:href="#mdce929f50c" y="219.296364"/>
     <use style="fill:#ff0000;stroke:#ff0000;" x="107.514467" xlink:href="#mdce929f50c" y="205.227746"/>
     <use style="fill:#ff0000;stroke:#ff0000;" x="108.450071" xlink:href="#mdce929f50c" y="205.227746"/>
     <use style="fill:#ff0000;stroke:#ff0000;" x="109.385675" xlink:href="#mdce929f50c" y="218.007514"/>
     <use style="fill:#ff0000;stroke:#ff0000;" x="110.321278" xlink:href="#mdce929f50c" y="230.316399"/>
     <use style="fill:#ff0000;stroke:#ff0000;" x="111.256882" xlink:href="#mdce929f50c" y="230.316399"/>
     <use style="fill:#ff0000;stroke:#ff0000;" x="112.192486" xlink:href="#mdce929f50c" y="230.316399"/>
     <use style="fill:#ff0000;stroke:#ff0000;" x="113.12809" xlink:href="#mdce929f50c" y="216.28153"/>
     <use style="fill:#ff0000;stroke:#ff0000;" x="114.063694" xlink:href="#mdce929f50c" y="216.28153"/>
     <use style="fill:#ff0000;stroke:#ff0000;" x="114.999298" xlink:href="#mdce929f50c" y="229.808739"/>
     <use style="fill:#ff0000;stroke:#ff0000;" x="115.934902" xlink:href="#mdce929f50c" y="229.808739"/>
     <use style="fill:#ff0000;stroke:#ff0000;" x="116.870506" xlink:href="#mdce929f50c" y="215.41276"/>
     <use style="fill:#ff0000;stroke:#ff0000;" x="117.80611" xlink:href="#mdce929f50c" y="228.581974"/>
     <use style="fill:#ff0000;stroke:#ff0000;" x="118.741713" xlink:href="#mdce929f50c" y="228.581974"/>
     <use style="fill:#ff0000;stroke:#ff0000;" x="119.677317" xlink:href="#mdce929f50c" y="225.36606"/>
     <use style="fill:#ff0000;stroke:#ff0000;" x="120.612921" xlink:href="#mdce929f50c" y="225.36606"/>
     <use style="fill:#ff0000;stroke:#ff0000;" x="121.548525" xlink:href="#mdce929f50c" y="210.723207"/>
     <use style="fill:#ff0000;stroke:#ff0000;" x="122.484129" xlink:href="#mdce929f50c" y="195.960935"/>
     <use style="fill:#ff0000;stroke:#ff0000;" x="123.419733" xlink:href="#mdce929f50c" y="195.960935"/>
     <use style="fill:#ff0000;stroke:#ff0000;" x="124.355337" xlink:href="#mdce929f50c" y="195.960935"/>
     <use style="fill:#ff0000;stroke:#ff0000;" x="125.290941" xlink:href="#mdce929f50c" y="182.059362"/>
     <use style="fill:#ff0000;stroke:#ff0000;" x="126.226544" xlink:href="#mdce929f50c" y="182.059362"/>
     <use style="fill:#ff0000;stroke:#ff0000;" x="127.162148" xlink:href="#mdce929f50c" y="168.599051"/>
     <use style="fill:#ff0000;stroke:#ff0000;" x="128.097752" xlink:href="#mdce929f50c" y="168.599051"/>
     <use style="fill:#ff0000;stroke:#ff0000;" x="129.033356" xlink:href="#mdce929f50c" y="182.285698"/>
     <use style="fill:#ff0000;stroke:#ff0000;" x="129.96896" xlink:href="#mdce929f50c" y="182.285698"/>
     <use style="fill:#ff0000;stroke:#ff0000;" x="130.904564" xlink:href="#mdce929f50c" y="182.285698"/>
     <use style="fill:#ff0000;stroke:#ff0000;" x="131.840168" xlink:href="#mdce929f50c" y="167.917386"/>
     <use style="fill:#ff0000;stroke:#ff0000;" x="132.775772" xlink:href="#mdce929f50c" y="167.917386"/>
     <use style="fill:#ff0000;stroke:#ff0000;" x="133.711375" xlink:href="#mdce929f50c" y="154.682378"/>
     <use style="fill:#ff0000;stroke:#ff0000;" x="134.646979" xlink:href="#mdce929f50c" y="154.682378"/>
     <use style="fill:#ff0000;stroke:#ff0000;" x="135.582583" xlink:href="#mdce929f50c" y="170.083642"/>
     <use style="fill:#ff0000;stroke:#ff0000;" x="136.518187" xlink:href="#mdce929f50c" y="155.820347"/>
     <use style="fill:#ff0000;stroke:#ff0000;" x="137.453791" xlink:href="#mdce929f50c" y="155.820347"/>
     <use style="fill:#ff0000;stroke:#ff0000;" x="138.389395" xlink:href="#mdce929f50c" y="155.820347"/>
     <use style="fill:#ff0000;stroke:#ff0000;" x="139.324999" xlink:href="#mdce929f50c" y="141.855302"/>
     <use style="fill:#ff0000;stroke:#ff0000;" x="140.260603" xlink:href="#mdce929f50c" y="141.855302"/>
     <use style="fill:#ff0000;stroke:#ff0000;" x="141.196206" xlink:href="#mdce929f50c" y="144.904545"/>
     <use style="fill:#ff0000;stroke:#ff0000;" x="142.13181" xlink:href="#mdce929f50c" y="144.904545"/>
     <use style="fill:#ff0000;stroke:#ff0000;" x="143.067414" xlink:href="#mdce929f50c" y="143.296347"/>
     <use style="fill:#ff0000;stroke:#ff0000;" x="144.003018" xlink:href="#mdce929f50c" y="156.832799"/>
     <use style="fill:#ff0000;stroke:#ff0000;" x="144.938622" xlink:href="#mdce929f50c" y="156.832799"/>
     <use style="fill:#ff0000;stroke:#ff0000;" x="145.874226" xlink:href="#mdce929f50c" y="156.832799"/>
     <use style="fill:#ff0000;stroke:#ff0000;" x="146.80983" xlink:href="#mdce929f50c" y="142.768723"/>
     <use style="fill:#ff0000;stroke:#ff0000;" x="147.745434" xlink:href="#mdce929f50c" y="142.768723"/>
     <use style="fill:#ff0000;stroke:#ff0000;" x="148.681037" xlink:href="#mdce929f50c" y="144.901959"/>
     <use style="fill:#ff0000;stroke:#ff0000;" x="149.616641" xlink:href="#mdce929f50c" y="149.282884"/>
     <use style="fill:#ff0000;stroke:#ff0000;" x="150.552245" xlink:href="#mdce929f50c" y="149.282884"/>
     <use style="fill:#ff0000;stroke:#ff0000;" x="151.487849" xlink:href="#mdce929f50c" y="149.282884"/>
     <use style="fill:#ff0000;stroke:#ff0000;" x="152.423453" xlink:href="#mdce929f50c" y="149.282884"/>
     <use style="fill:#ff0000;stroke:#ff0000;" x="153.359057" xlink:href="#mdce929f50c" y="134.455092"/>
     <use style="fill:#ff0000;stroke:#ff0000;" x="154.294661" xlink:href="#mdce929f50c" y="134.455092"/>
     <use style="fill:#ff0000;stroke:#ff0000;" x="155.230265" xlink:href="#mdce929f50c" y="122.24817"/>
     <use style="fill:#ff0000;stroke:#ff0000;" x="156.165868" xlink:href="#mdce929f50c" y="109.201343"/>
     <use style="fill:#ff0000;stroke:#ff0000;" x="157.101472" xlink:href="#mdce929f50c" y="109.201343"/>
     <use style="fill:#ff0000;stroke:#ff0000;" x="158.037076" xlink:href="#mdce929f50c" y="97.223092"/>
     <use style="fill:#ff0000;stroke:#ff0000;" x="158.97268" xlink:href="#mdce929f50c" y="97.223092"/>
     <use style="fill:#ff0000;stroke:#ff0000;" x="159.908284" xlink:href="#mdce929f50c" y="97.223092"/>
     <use style="fill:#ff0000;stroke:#ff0000;" x="160.843888" xlink:href="#mdce929f50c" y="84.091884"/>
     <use style="fill:#ff0000;stroke:#ff0000;" x="161.779492" xlink:href="#mdce929f50c" y="84.091884"/>
     <use style="fill:#ff0000;stroke:#ff0000;" x="162.715096" xlink:href="#mdce929f50c" y="70.9701"/>
     <use style="fill:#ff0000;stroke:#ff0000;" x="163.6507" xlink:href="#mdce929f50c" y="70.9701"/>
     <use style="fill:#ff0000;stroke:#ff0000;" x="164.586303" xlink:href="#mdce929f50c" y="58.91269"/>
     <use style="fill:#ff0000;stroke:#ff0000;" x="165.521907" xlink:href="#mdce929f50c" y="58.91269"/>
     <use style="fill:#ff0000;stroke:#ff0000;" x="166.457511" xlink:href="#mdce929f50c" y="72.206654"/>
     <use style="fill:#ff0000;stroke:#ff0000;" x="167.393115" xlink:href="#mdce929f50c" y="72.206654"/>
     <use style="fill:#ff0000;stroke:#ff0000;" x="168.328719" xlink:href="#mdce929f50c" y="70.644898"/>
     <use style="fill:#ff0000;stroke:#ff0000;" x="169.264323" xlink:href="#mdce929f50c" y="70.644898"/>
     <use style="fill:#ff0000;stroke:#ff0000;" x="170.199927" xlink:href="#mdce929f50c" y="70.644898"/>
     <use style="fill:#ff0000;stroke:#ff0000;" x="171.135531" xlink:href="#mdce929f50c" y="83.893595"/>
     <use style="fill:#ff0000;stroke:#ff0000;" x="172.071134" xlink:href="#mdce929f50c" y="83.893595"/>
     <use style="fill:#ff0000;stroke:#ff0000;" x="173.006738" xlink:href="#mdce929f50c" y="83.893595"/>
     <use style="fill:#ff0000;stroke:#ff0000;" x="173.942342" xlink:href="#mdce929f50c" y="83.893595"/>
     <use style="fill:#ff0000;stroke:#ff0000;" x="174.877946" xlink:href="#mdce929f50c" y="69.646887"/>
     <use style="fill:#ff0000;stroke:#ff0000;" x="175.81355" xlink:href="#mdce929f50c" y="69.646887"/>
     <use style="fill:#ff0000;stroke:#ff0000;" x="176.749154" xlink:href="#mdce929f50c" y="83.58269"/>
     <use style="fill:#ff0000;stroke:#ff0000;" x="177.684758" xlink:href="#mdce929f50c" y="83.58269"/>
     <use style="fill:#ff0000;stroke:#ff0000;" x="178.620362" xlink:href="#mdce929f50c" y="96.658674"/>
     <use style="fill:#ff0000;stroke:#ff0000;" x="179.555965" xlink:href="#mdce929f50c" y="96.658674"/>
     <use style="fill:#ff0000;stroke:#ff0000;" x="180.491569" xlink:href="#mdce929f50c" y="96.658674"/>
     <use style="fill:#ff0000;stroke:#ff0000;" x="181.427173" xlink:href="#mdce929f50c" y="96.658674"/>
     <use style="fill:#ff0000;stroke:#ff0000;" x="182.362777" xlink:href="#mdce929f50c" y="96.658674"/>
     <use style="fill:#ff0000;stroke:#ff0000;" x="183.298381" xlink:href="#mdce929f50c" y="96.658674"/>
     <use style="fill:#ff0000;stroke:#ff0000;" x="184.233985" xlink:href="#mdce929f50c" y="96.658674"/>
     <use style="fill:#ff0000;stroke:#ff0000;" x="185.169589" xlink:href="#mdce929f50c" y="96.658674"/>
     <use style="fill:#ff0000;stroke:#ff0000;" x="186.105193" xlink:href="#mdce929f50c" y="96.658674"/>
     <use style="fill:#ff0000;stroke:#ff0000;" x="187.040796" xlink:href="#mdce929f50c" y="110.540844"/>
     <use style="fill:#ff0000;stroke:#ff0000;" x="187.9764" xlink:href="#mdce929f50c" y="125.724123"/>
     <use style="fill:#ff0000;stroke:#ff0000;" x="188.912004" xlink:href="#mdce929f50c" y="125.724123"/>
     <use style="fill:#ff0000;stroke:#ff0000;" x="189.847608" xlink:href="#mdce929f50c" y="125.724123"/>
     <use style="fill:#ff0000;stroke:#ff0000;" x="190.783212" xlink:href="#mdce929f50c" y="123.651638"/>
     <use style="fill:#ff0000;stroke:#ff0000;" x="191.718816" xlink:href="#mdce929f50c" y="123.651638"/>
     <use style="fill:#ff0000;stroke:#ff0000;" x="192.65442" xlink:href="#mdce929f50c" y="111.770852"/>
     <use style="fill:#ff0000;stroke:#ff0000;" x="193.590024" xlink:href="#mdce929f50c" y="111.770852"/>
     <use style="fill:#ff0000;stroke:#ff0000;" x="194.525627" xlink:href="#mdce929f50c" y="125.418559"/>
     <use style="fill:#ff0000;stroke:#ff0000;" x="195.461231" xlink:href="#mdce929f50c" y="125.418559"/>
     <use style="fill:#ff0000;stroke:#ff0000;" x="196.396835" xlink:href="#mdce929f50c" y="125.418559"/>
     <use style="fill:#ff0000;stroke:#ff0000;" x="197.332439" xlink:href="#mdce929f50c" y="139.906811"/>
     <use style="fill:#ff0000;stroke:#ff0000;" x="198.268043" xlink:href="#mdce929f50c" y="139.906811"/>
     <use style="fill:#ff0000;stroke:#ff0000;" x="199.203647" xlink:href="#mdce929f50c" y="152.433539"/>
     <use style="fill:#ff0000;stroke:#ff0000;" x="200.139251" xlink:href="#mdce929f50c" y="152.433539"/>
     <use style="fill:#ff0000;stroke:#ff0000;" x="201.074855" xlink:href="#mdce929f50c" y="137.46574"/>
     <use style="fill:#ff0000;stroke:#ff0000;" x="202.010458" xlink:href="#mdce929f50c" y="137.46574"/>
     <use style="fill:#ff0000;stroke:#ff0000;" x="202.946062" xlink:href="#mdce929f50c" y="151.201245"/>
     <use style="fill:#ff0000;stroke:#ff0000;" x="203.881666" xlink:href="#mdce929f50c" y="151.201245"/>
     <use style="fill:#ff0000;stroke:#ff0000;" x="204.81727" xlink:href="#mdce929f50c" y="149.771468"/>
     <use style="fill:#ff0000;stroke:#ff0000;" x="205.752874" xlink:href="#mdce929f50c" y="149.771468"/>
     <use style="fill:#ff0000;stroke:#ff0000;" x="206.688478" xlink:href="#mdce929f50c" y="162.610845"/>
     <use style="fill:#ff0000;stroke:#ff0000;" x="207.624082" xlink:href="#mdce929f50c" y="162.610845"/>
     <use style="fill:#ff0000;stroke:#ff0000;" x="208.559686" xlink:href="#mdce929f50c" y="162.610845"/>
     <use style="fill:#ff0000;stroke:#ff0000;" x="209.495289" xlink:href="#mdce929f50c" y="162.610845"/>
     <use style="fill:#ff0000;stroke:#ff0000;" x="210.430893" xlink:href="#mdce929f50c" y="148.646623"/>
     <use style="fill:#ff0000;stroke:#ff0000;" x="211.366497" xlink:href="#mdce929f50c" y="148.646623"/>
     <use style="fill:#ff0000;stroke:#ff0000;" x="212.302101" xlink:href="#mdce929f50c" y="149.595789"/>
     <use style="fill:#ff0000;stroke:#ff0000;" x="213.237705" xlink:href="#mdce929f50c" y="137.078191"/>
     <use style="fill:#ff0000;stroke:#ff0000;" x="214.173309" xlink:href="#mdce929f50c" y="137.078191"/>
     <use style="fill:#ff0000;stroke:#ff0000;" x="215.108913" xlink:href="#mdce929f50c" y="124.213054"/>
     <use style="fill:#ff0000;stroke:#ff0000;" x="216.044517" xlink:href="#mdce929f50c" y="124.213054"/>
     <use style="fill:#ff0000;stroke:#ff0000;" x="216.980121" xlink:href="#mdce929f50c" y="124.213054"/>
     <use style="fill:#ff0000;stroke:#ff0000;" x="217.915724" xlink:href="#mdce929f50c" y="109.109074"/>
     <use style="fill:#ff0000;stroke:#ff0000;" x="218.851328" xlink:href="#mdce929f50c" y="109.109074"/>
     <use style="fill:#ff0000;stroke:#ff0000;" x="219.786932" xlink:href="#mdce929f50c" y="109.109074"/>
     <use style="fill:#ff0000;stroke:#ff0000;" x="220.722536" xlink:href="#mdce929f50c" y="96.595259"/>
     <use style="fill:#ff0000;stroke:#ff0000;" x="221.65814" xlink:href="#mdce929f50c" y="109.449228"/>
     <use style="fill:#ff0000;stroke:#ff0000;" x="222.593744" xlink:href="#mdce929f50c" y="109.449228"/>
     <use style="fill:#ff0000;stroke:#ff0000;" x="223.529348" xlink:href="#mdce929f50c" y="109.449228"/>
     <use style="fill:#ff0000;stroke:#ff0000;" x="224.464952" xlink:href="#mdce929f50c" y="109.449228"/>
     <use style="fill:#ff0000;stroke:#ff0000;" x="225.400555" xlink:href="#mdce929f50c" y="109.449228"/>
     <use style="fill:#ff0000;stroke:#ff0000;" x="226.336159" xlink:href="#mdce929f50c" y="95.581495"/>
     <use style="fill:#ff0000;stroke:#ff0000;" x="227.271763" xlink:href="#mdce929f50c" y="95.581495"/>
     <use style="fill:#ff0000;stroke:#ff0000;" x="228.207367" xlink:href="#mdce929f50c" y="82.805631"/>
     <use style="fill:#ff0000;stroke:#ff0000;" x="229.142971" xlink:href="#mdce929f50c" y="67.945074"/>
     <use style="fill:#ff0000;stroke:#ff0000;" x="230.078575" xlink:href="#mdce929f50c" y="67.945074"/>
     <use style="fill:#ff0000;stroke:#ff0000;" x="231.014179" xlink:href="#mdce929f50c" y="67.945074"/>
     <use style="fill:#ff0000;stroke:#ff0000;" x="231.949783" xlink:href="#mdce929f50c" y="53.568"/>
     <use style="fill:#ff0000;stroke:#ff0000;" x="232.885386" xlink:href="#mdce929f50c" y="53.568"/>
     <use style="fill:#ff0000;stroke:#ff0000;" x="233.82099" xlink:href="#mdce929f50c" y="59.294618"/>
     <use style="fill:#ff0000;stroke:#ff0000;" x="234.756594" xlink:href="#mdce929f50c" y="59.294618"/>
     <use style="fill:#ff0000;stroke:#ff0000;" x="235.692198" xlink:href="#mdce929f50c" y="73.021212"/>
     <use style="fill:#ff0000;stroke:#ff0000;" x="236.627802" xlink:href="#mdce929f50c" y="73.021212"/>
     <use style="fill:#ff0000;stroke:#ff0000;" x="237.563406" xlink:href="#mdce929f50c" y="86.909661"/>
     <use style="fill:#ff0000;stroke:#ff0000;" x="238.49901" xlink:href="#mdce929f50c" y="86.909661"/>
     <use style="fill:#ff0000;stroke:#ff0000;" x="239.434614" xlink:href="#mdce929f50c" y="100.986319"/>
     <use style="fill:#ff0000;stroke:#ff0000;" x="240.370217" xlink:href="#mdce929f50c" y="103.022641"/>
     <use style="fill:#ff0000;stroke:#ff0000;" x="241.305821" xlink:href="#mdce929f50c" y="103.022641"/>
     <use style="fill:#ff0000;stroke:#ff0000;" x="242.241425" xlink:href="#mdce929f50c" y="90.301541"/>
     <use style="fill:#ff0000;stroke:#ff0000;" x="243.177029" xlink:href="#mdce929f50c" y="90.301541"/>
     <use style="fill:#ff0000;stroke:#ff0000;" x="244.112633" xlink:href="#mdce929f50c" y="90.301541"/>
     <use style="fill:#ff0000;stroke:#ff0000;" x="245.048237" xlink:href="#mdce929f50c" y="104.730069"/>
     <use style="fill:#ff0000;stroke:#ff0000;" x="245.983841" xlink:href="#mdce929f50c" y="104.730069"/>
     <use style="fill:#ff0000;stroke:#ff0000;" x="246.919445" xlink:href="#mdce929f50c" y="120.821275"/>
     <use style="fill:#ff0000;stroke:#ff0000;" x="247.855048" xlink:href="#mdce929f50c" y="120.821275"/>
     <use style="fill:#ff0000;stroke:#ff0000;" x="248.790652" xlink:href="#mdce929f50c" y="120.821275"/>
     <use style="fill:#ff0000;stroke:#ff0000;" x="249.726256" xlink:href="#mdce929f50c" y="120.821275"/>
     <use style="fill:#ff0000;stroke:#ff0000;" x="250.66186" xlink:href="#mdce929f50c" y="120.821275"/>
     <use style="fill:#ff0000;stroke:#ff0000;" x="251.597464" xlink:href="#mdce929f50c" y="120.821275"/>
     <use style="fill:#ff0000;stroke:#ff0000;" x="252.533068" xlink:href="#mdce929f50c" y="120.821275"/>
     <use style="fill:#ff0000;stroke:#ff0000;" x="253.468672" xlink:href="#mdce929f50c" y="120.821275"/>
     <use style="fill:#ff0000;stroke:#ff0000;" x="254.404276" xlink:href="#mdce929f50c" y="120.821275"/>
     <use style="fill:#ff0000;stroke:#ff0000;" x="255.339879" xlink:href="#mdce929f50c" y="120.821275"/>
     <use style="fill:#ff0000;stroke:#ff0000;" x="256.275483" xlink:href="#mdce929f50c" y="120.821275"/>
     <use style="fill:#ff0000;stroke:#ff0000;" x="257.211087" xlink:href="#mdce929f50c" y="120.821275"/>
     <use style="fill:#ff0000;stroke:#ff0000;" x="258.146691" xlink:href="#mdce929f50c" y="120.821275"/>
     <use style="fill:#ff0000;stroke:#ff0000;" x="259.082295" xlink:href="#mdce929f50c" y="120.821275"/>
     <use style="fill:#ff0000;stroke:#ff0000;" x="260.017899" xlink:href="#mdce929f50c" y="120.821275"/>
     <use style="fill:#ff0000;stroke:#ff0000;" x="260.953503" xlink:href="#mdce929f50c" y="120.821275"/>
     <use style="fill:#ff0000;stroke:#ff0000;" x="261.889107" xlink:href="#mdce929f50c" y="120.821275"/>
     <use style="fill:#ff0000;stroke:#ff0000;" x="262.824711" xlink:href="#mdce929f50c" y="120.821275"/>
     <use style="fill:#ff0000;stroke:#ff0000;" x="263.760314" xlink:href="#mdce929f50c" y="120.821275"/>
     <use style="fill:#ff0000;stroke:#ff0000;" x="264.695918" xlink:href="#mdce929f50c" y="120.821275"/>
     <use style="fill:#ff0000;stroke:#ff0000;" x="265.631522" xlink:href="#mdce929f50c" y="120.821275"/>
     <use style="fill:#ff0000;stroke:#ff0000;" x="266.567126" xlink:href="#mdce929f50c" y="120.821275"/>
     <use style="fill:#ff0000;stroke:#ff0000;" x="267.50273" xlink:href="#mdce929f50c" y="120.821275"/>
     <use style="fill:#ff0000;stroke:#ff0000;" x="268.438334" xlink:href="#mdce929f50c" y="120.821275"/>
     <use style="fill:#ff0000;stroke:#ff0000;" x="269.373938" xlink:href="#mdce929f50c" y="120.821275"/>
     <use style="fill:#ff0000;stroke:#ff0000;" x="270.309542" xlink:href="#mdce929f50c" y="120.821275"/>
     <use style="fill:#ff0000;stroke:#ff0000;" x="271.245145" xlink:href="#mdce929f50c" y="120.821275"/>
     <use style="fill:#ff0000;stroke:#ff0000;" x="272.180749" xlink:href="#mdce929f50c" y="120.821275"/>
     <use style="fill:#ff0000;stroke:#ff0000;" x="273.116353" xlink:href="#mdce929f50c" y="120.821275"/>
     <use style="fill:#ff0000;stroke:#ff0000;" x="274.051957" xlink:href="#mdce929f50c" y="120.821275"/>
     <use style="fill:#ff0000;stroke:#ff0000;" x="274.987561" xlink:href="#mdce929f50c" y="120.821275"/>
     <use style="fill:#ff0000;stroke:#ff0000;" x="275.923165" xlink:href="#mdce929f50c" y="120.821275"/>
     <use style="fill:#ff0000;stroke:#ff0000;" x="276.858769" xlink:href="#mdce929f50c" y="120.821275"/>
     <use style="fill:#ff0000;stroke:#ff0000;" x="277.794373" xlink:href="#mdce929f50c" y="120.821275"/>
     <use style="fill:#ff0000;stroke:#ff0000;" x="278.729976" xlink:href="#mdce929f50c" y="120.821275"/>
     <use style="fill:#ff0000;stroke:#ff0000;" x="279.66558" xlink:href="#mdce929f50c" y="120.821275"/>
     <use style="fill:#ff0000;stroke:#ff0000;" x="280.601184" xlink:href="#mdce929f50c" y="120.821275"/>
     <use style="fill:#ff0000;stroke:#ff0000;" x="281.536788" xlink:href="#mdce929f50c" y="120.821275"/>
     <use style="fill:#ff0000;stroke:#ff0000;" x="282.472392" xlink:href="#mdce929f50c" y="120.821275"/>
     <use style="fill:#ff0000;stroke:#ff0000;" x="283.407996" xlink:href="#mdce929f50c" y="120.821275"/>
     <use style="fill:#ff0000;stroke:#ff0000;" x="284.3436" xlink:href="#mdce929f50c" y="120.821275"/>
     <use style="fill:#ff0000;stroke:#ff0000;" x="285.279204" xlink:href="#mdce929f50c" y="120.821275"/>
     <use style="fill:#ff0000;stroke:#ff0000;" x="286.214807" xlink:href="#mdce929f50c" y="120.821275"/>
     <use style="fill:#ff0000;stroke:#ff0000;" x="287.150411" xlink:href="#mdce929f50c" y="120.821275"/>
     <use style="fill:#ff0000;stroke:#ff0000;" x="288.086015" xlink:href="#mdce929f50c" y="120.821275"/>
     <use style="fill:#ff0000;stroke:#ff0000;" x="289.021619" xlink:href="#mdce929f50c" y="120.821275"/>
     <use style="fill:#ff0000;stroke:#ff0000;" x="289.957223" xlink:href="#mdce929f50c" y="120.821275"/>
     <use style="fill:#ff0000;stroke:#ff0000;" x="290.892827" xlink:href="#mdce929f50c" y="120.821275"/>
     <use style="fill:#ff0000;stroke:#ff0000;" x="291.828431" xlink:href="#mdce929f50c" y="120.821275"/>
     <use style="fill:#ff0000;stroke:#ff0000;" x="292.764035" xlink:href="#mdce929f50c" y="120.821275"/>
     <use style="fill:#ff0000;stroke:#ff0000;" x="293.699638" xlink:href="#mdce929f50c" y="120.821275"/>
     <use style="fill:#ff0000;stroke:#ff0000;" x="294.635242" xlink:href="#mdce929f50c" y="120.821275"/>
     <use style="fill:#ff0000;stroke:#ff0000;" x="295.570846" xlink:href="#mdce929f50c" y="120.821275"/>
     <use style="fill:#ff0000;stroke:#ff0000;" x="296.50645" xlink:href="#mdce929f50c" y="120.821275"/>
     <use style="fill:#ff0000;stroke:#ff0000;" x="297.442054" xlink:href="#mdce929f50c" y="120.821275"/>
     <use style="fill:#ff0000;stroke:#ff0000;" x="298.377658" xlink:href="#mdce929f50c" y="120.821275"/>
     <use style="fill:#ff0000;stroke:#ff0000;" x="299.313262" xlink:href="#mdce929f50c" y="120.821275"/>
     <use style="fill:#ff0000;stroke:#ff0000;" x="300.248866" xlink:href="#mdce929f50c" y="120.821275"/>
     <use style="fill:#ff0000;stroke:#ff0000;" x="301.184469" xlink:href="#mdce929f50c" y="120.821275"/>
     <use style="fill:#ff0000;stroke:#ff0000;" x="302.120073" xlink:href="#mdce929f50c" y="120.821275"/>
     <use style="fill:#ff0000;stroke:#ff0000;" x="303.055677" xlink:href="#mdce929f50c" y="120.821275"/>
     <use style="fill:#ff0000;stroke:#ff0000;" x="303.991281" xlink:href="#mdce929f50c" y="120.821275"/>
     <use style="fill:#ff0000;stroke:#ff0000;" x="304.926885" xlink:href="#mdce929f50c" y="120.821275"/>
     <use style="fill:#ff0000;stroke:#ff0000;" x="305.862489" xlink:href="#mdce929f50c" y="120.821275"/>
     <use style="fill:#ff0000;stroke:#ff0000;" x="306.798093" xlink:href="#mdce929f50c" y="120.821275"/>
     <use style="fill:#ff0000;stroke:#ff0000;" x="307.733697" xlink:href="#mdce929f50c" y="120.821275"/>
     <use style="fill:#ff0000;stroke:#ff0000;" x="308.6693" xlink:href="#mdce929f50c" y="120.821275"/>
     <use style="fill:#ff0000;stroke:#ff0000;" x="309.604904" xlink:href="#mdce929f50c" y="120.821275"/>
     <use style="fill:#ff0000;stroke:#ff0000;" x="310.540508" xlink:href="#mdce929f50c" y="120.821275"/>
     <use style="fill:#ff0000;stroke:#ff0000;" x="311.476112" xlink:href="#mdce929f50c" y="120.821275"/>
     <use style="fill:#ff0000;stroke:#ff0000;" x="312.411716" xlink:href="#mdce929f50c" y="120.821275"/>
     <use style="fill:#ff0000;stroke:#ff0000;" x="313.34732" xlink:href="#mdce929f50c" y="120.821275"/>
     <use style="fill:#ff0000;stroke:#ff0000;" x="314.282924" xlink:href="#mdce929f50c" y="120.821275"/>
     <use style="fill:#ff0000;stroke:#ff0000;" x="315.218528" xlink:href="#mdce929f50c" y="120.821275"/>
     <use style="fill:#ff0000;stroke:#ff0000;" x="316.154132" xlink:href="#mdce929f50c" y="120.821275"/>
     <use style="fill:#ff0000;stroke:#ff0000;" x="317.089735" xlink:href="#mdce929f50c" y="120.821275"/>
     <use style="fill:#ff0000;stroke:#ff0000;" x="318.025339" xlink:href="#mdce929f50c" y="120.821275"/>
     <use style="fill:#ff0000;stroke:#ff0000;" x="318.960943" xlink:href="#mdce929f50c" y="120.821275"/>
     <use style="fill:#ff0000;stroke:#ff0000;" x="319.896547" xlink:href="#mdce929f50c" y="120.821275"/>
     <use style="fill:#ff0000;stroke:#ff0000;" x="320.832151" xlink:href="#mdce929f50c" y="120.821275"/>
     <use style="fill:#ff0000;stroke:#ff0000;" x="321.767755" xlink:href="#mdce929f50c" y="120.821275"/>
     <use style="fill:#ff0000;stroke:#ff0000;" x="322.703359" xlink:href="#mdce929f50c" y="120.821275"/>
     <use style="fill:#ff0000;stroke:#ff0000;" x="323.638963" xlink:href="#mdce929f50c" y="120.821275"/>
     <use style="fill:#ff0000;stroke:#ff0000;" x="324.574566" xlink:href="#mdce929f50c" y="120.821275"/>
     <use style="fill:#ff0000;stroke:#ff0000;" x="325.51017" xlink:href="#mdce929f50c" y="120.821275"/>
     <use style="fill:#ff0000;stroke:#ff0000;" x="326.445774" xlink:href="#mdce929f50c" y="120.821275"/>
     <use style="fill:#ff0000;stroke:#ff0000;" x="327.381378" xlink:href="#mdce929f50c" y="120.821275"/>
     <use style="fill:#ff0000;stroke:#ff0000;" x="328.316982" xlink:href="#mdce929f50c" y="120.821275"/>
     <use style="fill:#ff0000;stroke:#ff0000;" x="329.252586" xlink:href="#mdce929f50c" y="120.821275"/>
     <use style="fill:#ff0000;stroke:#ff0000;" x="330.18819" xlink:href="#mdce929f50c" y="120.821275"/>
     <use style="fill:#ff0000;stroke:#ff0000;" x="331.123794" xlink:href="#mdce929f50c" y="120.821275"/>
     <use style="fill:#ff0000;stroke:#ff0000;" x="332.059397" xlink:href="#mdce929f50c" y="120.821275"/>
     <use style="fill:#ff0000;stroke:#ff0000;" x="332.995001" xlink:href="#mdce929f50c" y="120.821275"/>
     <use style="fill:#ff0000;stroke:#ff0000;" x="333.930605" xlink:href="#mdce929f50c" y="120.821275"/>
     <use style="fill:#ff0000;stroke:#ff0000;" x="334.866209" xlink:href="#mdce929f50c" y="120.821275"/>
     <use style="fill:#ff0000;stroke:#ff0000;" x="335.801813" xlink:href="#mdce929f50c" y="120.821275"/>
     <use style="fill:#ff0000;stroke:#ff0000;" x="336.737417" xlink:href="#mdce929f50c" y="120.821275"/>
     <use style="fill:#ff0000;stroke:#ff0000;" x="337.673021" xlink:href="#mdce929f50c" y="120.821275"/>
     <use style="fill:#ff0000;stroke:#ff0000;" x="338.608625" xlink:href="#mdce929f50c" y="120.821275"/>
     <use style="fill:#ff0000;stroke:#ff0000;" x="339.544228" xlink:href="#mdce929f50c" y="120.821275"/>
     <use style="fill:#ff0000;stroke:#ff0000;" x="340.479832" xlink:href="#mdce929f50c" y="120.821275"/>
     <use style="fill:#ff0000;stroke:#ff0000;" x="341.415436" xlink:href="#mdce929f50c" y="120.821275"/>
     <use style="fill:#ff0000;stroke:#ff0000;" x="342.35104" xlink:href="#mdce929f50c" y="120.821275"/>
     <use style="fill:#ff0000;stroke:#ff0000;" x="343.286644" xlink:href="#mdce929f50c" y="120.821275"/>
     <use style="fill:#ff0000;stroke:#ff0000;" x="344.222248" xlink:href="#mdce929f50c" y="120.821275"/>
     <use style="fill:#ff0000;stroke:#ff0000;" x="345.157852" xlink:href="#mdce929f50c" y="120.821275"/>
     <use style="fill:#ff0000;stroke:#ff0000;" x="346.093456" xlink:href="#mdce929f50c" y="120.821275"/>
     <use style="fill:#ff0000;stroke:#ff0000;" x="347.029059" xlink:href="#mdce929f50c" y="120.821275"/>
     <use style="fill:#ff0000;stroke:#ff0000;" x="347.964663" xlink:href="#mdce929f50c" y="120.821275"/>
     <use style="fill:#ff0000;stroke:#ff0000;" x="348.900267" xlink:href="#mdce929f50c" y="120.821275"/>
     <use style="fill:#ff0000;stroke:#ff0000;" x="349.835871" xlink:href="#mdce929f50c" y="120.821275"/>
     <use style="fill:#ff0000;stroke:#ff0000;" x="350.771475" xlink:href="#mdce929f50c" y="120.821275"/>
     <use style="fill:#ff0000;stroke:#ff0000;" x="351.707079" xlink:href="#mdce929f50c" y="120.821275"/>
     <use style="fill:#ff0000;stroke:#ff0000;" x="352.642683" xlink:href="#mdce929f50c" y="120.821275"/>
     <use style="fill:#ff0000;stroke:#ff0000;" x="353.578287" xlink:href="#mdce929f50c" y="120.821275"/>
     <use style="fill:#ff0000;stroke:#ff0000;" x="354.51389" xlink:href="#mdce929f50c" y="120.821275"/>
     <use style="fill:#ff0000;stroke:#ff0000;" x="355.449494" xlink:href="#mdce929f50c" y="120.821275"/>
     <use style="fill:#ff0000;stroke:#ff0000;" x="356.385098" xlink:href="#mdce929f50c" y="120.821275"/>
     <use style="fill:#ff0000;stroke:#ff0000;" x="357.320702" xlink:href="#mdce929f50c" y="120.821275"/>
     <use style="fill:#ff0000;stroke:#ff0000;" x="358.256306" xlink:href="#mdce929f50c" y="120.821275"/>
     <use style="fill:#ff0000;stroke:#ff0000;" x="359.19191" xlink:href="#mdce929f50c" y="120.821275"/>
     <use style="fill:#ff0000;stroke:#ff0000;" x="360.127514" xlink:href="#mdce929f50c" y="120.821275"/>
     <use style="fill:#ff0000;stroke:#ff0000;" x="361.063118" xlink:href="#mdce929f50c" y="120.821275"/>
     <use style="fill:#ff0000;stroke:#ff0000;" x="361.998722" xlink:href="#mdce929f50c" y="120.821275"/>
     <use style="fill:#ff0000;stroke:#ff0000;" x="362.934325" xlink:href="#mdce929f50c" y="120.821275"/>
     <use style="fill:#ff0000;stroke:#ff0000;" x="363.869929" xlink:href="#mdce929f50c" y="120.821275"/>
     <use style="fill:#ff0000;stroke:#ff0000;" x="364.805533" xlink:href="#mdce929f50c" y="120.821275"/>
     <use style="fill:#ff0000;stroke:#ff0000;" x="365.741137" xlink:href="#mdce929f50c" y="120.821275"/>
     <use style="fill:#ff0000;stroke:#ff0000;" x="366.676741" xlink:href="#mdce929f50c" y="120.821275"/>
     <use style="fill:#ff0000;stroke:#ff0000;" x="367.612345" xlink:href="#mdce929f50c" y="120.821275"/>
     <use style="fill:#ff0000;stroke:#ff0000;" x="368.547949" xlink:href="#mdce929f50c" y="120.821275"/>
     <use style="fill:#ff0000;stroke:#ff0000;" x="369.483553" xlink:href="#mdce929f50c" y="120.821275"/>
     <use style="fill:#ff0000;stroke:#ff0000;" x="370.419156" xlink:href="#mdce929f50c" y="120.821275"/>
     <use style="fill:#ff0000;stroke:#ff0000;" x="371.35476" xlink:href="#mdce929f50c" y="120.821275"/>
     <use style="fill:#ff0000;stroke:#ff0000;" x="372.290364" xlink:href="#mdce929f50c" y="120.821275"/>
     <use style="fill:#ff0000;stroke:#ff0000;" x="373.225968" xlink:href="#mdce929f50c" y="120.821275"/>
     <use style="fill:#ff0000;stroke:#ff0000;" x="374.161572" xlink:href="#mdce929f50c" y="120.821275"/>
     <use style="fill:#ff0000;stroke:#ff0000;" x="375.097176" xlink:href="#mdce929f50c" y="120.821275"/>
     <use style="fill:#ff0000;stroke:#ff0000;" x="376.03278" xlink:href="#mdce929f50c" y="120.821275"/>
     <use style="fill:#ff0000;stroke:#ff0000;" x="376.968384" xlink:href="#mdce929f50c" y="120.821275"/>
     <use style="fill:#ff0000;stroke:#ff0000;" x="377.903987" xlink:href="#mdce929f50c" y="120.821275"/>
     <use style="fill:#ff0000;stroke:#ff0000;" x="378.839591" xlink:href="#mdce929f50c" y="120.821275"/>
     <use style="fill:#ff0000;stroke:#ff0000;" x="379.775195" xlink:href="#mdce929f50c" y="120.821275"/>
     <use style="fill:#ff0000;stroke:#ff0000;" x="380.710799" xlink:href="#mdce929f50c" y="120.821275"/>
     <use style="fill:#ff0000;stroke:#ff0000;" x="381.646403" xlink:href="#mdce929f50c" y="120.821275"/>
     <use style="fill:#ff0000;stroke:#ff0000;" x="382.582007" xlink:href="#mdce929f50c" y="120.821275"/>
     <use style="fill:#ff0000;stroke:#ff0000;" x="383.517611" xlink:href="#mdce929f50c" y="120.821275"/>
     <use style="fill:#ff0000;stroke:#ff0000;" x="384.453215" xlink:href="#mdce929f50c" y="120.821275"/>
     <use style="fill:#ff0000;stroke:#ff0000;" x="385.388818" xlink:href="#mdce929f50c" y="120.821275"/>
     <use style="fill:#ff0000;stroke:#ff0000;" x="386.324422" xlink:href="#mdce929f50c" y="120.821275"/>
     <use style="fill:#ff0000;stroke:#ff0000;" x="387.260026" xlink:href="#mdce929f50c" y="120.821275"/>
     <use style="fill:#ff0000;stroke:#ff0000;" x="388.19563" xlink:href="#mdce929f50c" y="120.821275"/>
     <use style="fill:#ff0000;stroke:#ff0000;" x="389.131234" xlink:href="#mdce929f50c" y="120.821275"/>
     <use style="fill:#ff0000;stroke:#ff0000;" x="390.066838" xlink:href="#mdce929f50c" y="120.821275"/>
     <use style="fill:#ff0000;stroke:#ff0000;" x="391.002442" xlink:href="#mdce929f50c" y="120.821275"/>
     <use style="fill:#ff0000;stroke:#ff0000;" x="391.938046" xlink:href="#mdce929f50c" y="120.821275"/>
     <use style="fill:#ff0000;stroke:#ff0000;" x="392.873649" xlink:href="#mdce929f50c" y="120.821275"/>
     <use style="fill:#ff0000;stroke:#ff0000;" x="393.809253" xlink:href="#mdce929f50c" y="120.821275"/>
     <use style="fill:#ff0000;stroke:#ff0000;" x="394.744857" xlink:href="#mdce929f50c" y="120.821275"/>
     <use style="fill:#ff0000;stroke:#ff0000;" x="395.680461" xlink:href="#mdce929f50c" y="120.821275"/>
     <use style="fill:#ff0000;stroke:#ff0000;" x="396.616065" xlink:href="#mdce929f50c" y="120.821275"/>
     <use style="fill:#ff0000;stroke:#ff0000;" x="397.551669" xlink:href="#mdce929f50c" y="120.821275"/>
     <use style="fill:#ff0000;stroke:#ff0000;" x="398.487273" xlink:href="#mdce929f50c" y="120.821275"/>
    </g>
   </g>
   <g id="patch_3">
    <path d="M 57.6 307.584 
L 57.6 41.472 
" style="fill:none;stroke:#000000;stroke-linecap:square;stroke-linejoin:miter;stroke-width:0.8;"/>
   </g>
   <g id="patch_4">
    <path d="M 414.72 307.584 
L 414.72 41.472 
" style="fill:none;stroke:#000000;stroke-linecap:square;stroke-linejoin:miter;stroke-width:0.8;"/>
   </g>
   <g id="patch_5">
    <path d="M 57.6 307.584 
L 414.72 307.584 
" style="fill:none;stroke:#000000;stroke-linecap:square;stroke-linejoin:miter;stroke-width:0.8;"/>
   </g>
   <g id="patch_6">
    <path d="M 57.6 41.472 
L 414.72 41.472 
" style="fill:none;stroke:#000000;stroke-linecap:square;stroke-linejoin:miter;stroke-width:0.8;"/>
   </g>
  </g>
 </g>
 <defs>
  <clipPath id="p1d05c45343">
   <rect height="266.112" width="357.12" x="57.6" y="41.472"/>
  </clipPath>
 </defs>
</svg>
