<?xml version="1.0" encoding="utf-8" standalone="no"?>
<!DOCTYPE svg PUBLIC "-//W3C//DTD SVG 1.1//EN"
  "http://www.w3.org/Graphics/SVG/1.1/DTD/svg11.dtd">
<!-- Created with matplotlib (https://matplotlib.org/) -->
<svg height="345.6pt" version="1.1" viewBox="0 0 460.8 345.6" width="460.8pt" xmlns="http://www.w3.org/2000/svg" xmlns:xlink="http://www.w3.org/1999/xlink">
 <defs>
  <style type="text/css">
*{stroke-linecap:butt;stroke-linejoin:round;}
  </style>
 </defs>
 <g id="figure_1">
  <g id="patch_1">
   <path d="M 0 345.6 
L 460.8 345.6 
L 460.8 0 
L 0 0 
z
" style="fill:#ffffff;"/>
  </g>
  <g id="axes_1">
   <g id="patch_2">
    <path d="M 57.6 307.584 
L 414.72 307.584 
L 414.72 41.472 
L 57.6 41.472 
z
" style="fill:#ffffff;"/>
   </g>
   <g id="line2d_1">
    <path clip-path="url(#p32046f14bf)" d="M 73.832727 135.465125 
L 74.956099 176.778055 
L 78.326216 176.778055 
L 79.449588 217.218137 
L 80.57296 217.218137 
L 82.819704 295.488 
L 83.943076 295.488 
L 85.066449 250.746844 
L 87.313193 250.746844 
L 88.436565 206.133858 
L 91.806681 206.133858 
L 92.930053 160.89117 
L 98.546914 160.888268 
L 99.670286 198.343907 
L 100.793658 198.343907 
L 101.917031 195.387012 
L 103.040403 195.387012 
L 104.163775 207.455003 
L 105.287147 207.455003 
L 106.410519 221.063456 
L 107.533891 221.063456 
L 108.657263 206.686491 
L 110.904008 206.686491 
L 112.02738 219.296364 
L 113.150752 219.296364 
L 114.274124 205.227746 
L 115.397496 205.227746 
L 117.64424 230.316399 
L 119.890985 230.316399 
L 121.014357 216.28153 
L 122.137729 216.28153 
L 123.261101 229.808739 
L 124.384473 229.808739 
L 125.507845 215.41276 
L 126.631217 228.581974 
L 127.754589 228.581974 
L 128.877962 225.36606 
L 130.001334 225.36606 
L 132.248078 195.960935 
L 134.494822 195.960935 
L 135.618194 182.059362 
L 136.741567 182.059362 
L 137.864939 168.599051 
L 138.988311 168.599051 
L 140.111683 182.285698 
L 142.358427 182.285698 
L 143.481799 167.917386 
L 144.605171 167.917386 
L 145.728544 154.682378 
L 146.851916 154.682378 
L 147.975288 170.083642 
L 149.09866 155.820347 
L 151.345404 155.820347 
L 152.468776 141.855302 
L 153.592148 141.855302 
L 154.715521 144.904545 
L 155.838893 144.904545 
L 156.962265 143.296347 
L 158.085637 156.832799 
L 160.332381 156.832799 
L 161.455753 142.768723 
L 162.579126 142.768723 
L 163.702498 144.901959 
L 164.82587 149.282884 
L 168.195986 149.282884 
L 169.319358 134.455092 
L 170.44273 134.455092 
L 172.689475 109.201343 
L 173.812847 109.201343 
L 174.936219 97.223092 
L 177.182963 97.223092 
L 178.306335 84.091884 
L 179.429707 84.091884 
L 180.55308 70.9701 
L 181.676452 70.9701 
L 182.799824 58.91269 
L 183.923196 58.91269 
L 185.046568 72.206654 
L 186.16994 72.206654 
L 187.293312 70.644898 
L 189.540057 70.644898 
L 190.663429 83.893595 
L 194.033545 83.893595 
L 195.156917 69.646887 
L 196.280289 69.646887 
L 197.403662 83.58269 
L 198.527034 83.58269 
L 199.650406 96.658674 
L 208.637383 96.658674 
L 210.884127 125.724123 
L 213.130871 125.724123 
L 214.254243 123.651638 
L 215.377616 123.651638 
L 216.500988 111.770852 
L 217.62436 111.770852 
L 218.747732 125.418559 
L 220.994476 125.418559 
L 222.117848 139.906811 
L 223.241221 139.906811 
L 224.364593 152.433539 
L 225.487965 152.433539 
L 226.611337 137.46574 
L 227.734709 137.46574 
L 228.858081 151.201245 
L 229.981453 151.201245 
L 231.104825 149.771468 
L 232.228198 149.771468 
L 233.35157 162.610845 
L 236.721686 162.610845 
L 237.845058 148.646623 
L 238.96843 148.646623 
L 240.091802 149.595789 
L 241.215175 137.078191 
L 242.338547 137.078191 
L 243.461919 124.213054 
L 245.708663 124.213054 
L 246.832035 109.109074 
L 249.078779 109.109074 
L 250.202152 96.595259 
L 251.325524 109.449228 
L 255.819012 109.449228 
L 256.942384 95.581495 
L 258.065757 95.581495 
L 259.189129 82.805631 
L 260.312501 67.945074 
L 262.559245 67.945074 
L 263.682617 53.568 
L 264.805989 53.568 
L 265.929361 59.294618 
L 267.052734 59.294618 
L 268.176106 73.021212 
L 269.299478 73.021212 
L 270.42285 86.909661 
L 271.546222 86.909661 
L 272.669594 100.986319 
L 273.792966 103.022641 
L 274.916338 103.022641 
L 276.039711 90.301541 
L 278.286455 90.301541 
L 279.409827 104.730069 
L 280.533199 104.730069 
L 281.656571 120.821275 
L 398.487273 120.821275 
L 398.487273 120.821275 
" style="fill:none;stroke:#ff0000;stroke-linecap:square;stroke-width:12;"/>
    <defs>
     <path d="M 0 3 
C 0.795609 3 1.55874 2.683901 2.12132 2.12132 
C 2.683901 1.55874 3 0.795609 3 0 
C 3 -0.795609 2.683901 -1.55874 2.12132 -2.12132 
C 1.55874 -2.683901 0.795609 -3 0 -3 
C -0.795609 -3 -1.55874 -2.683901 -2.12132 -2.12132 
C -2.683901 -1.55874 -3 -0.795609 -3 0 
C -3 0.795609 -2.683901 1.55874 -2.12132 2.12132 
C -1.55874 2.683901 -0.795609 3 0 3 
z
" id="mbbb3d7f1bf" style="stroke:#ff0000;"/>
    </defs>
    <g clip-path="url(#p32046f14bf)">
     <use style="fill:#ff0000;stroke:#ff0000;" x="73.832727" xlink:href="#mbbb3d7f1bf" y="135.465125"/>
     <use style="fill:#ff0000;stroke:#ff0000;" x="74.956099" xlink:href="#mbbb3d7f1bf" y="176.778055"/>
     <use style="fill:#ff0000;stroke:#ff0000;" x="76.079472" xlink:href="#mbbb3d7f1bf" y="176.778055"/>
     <use style="fill:#ff0000;stroke:#ff0000;" x="77.202844" xlink:href="#mbbb3d7f1bf" y="176.778055"/>
     <use style="fill:#ff0000;stroke:#ff0000;" x="78.326216" xlink:href="#mbbb3d7f1bf" y="176.778055"/>
     <use style="fill:#ff0000;stroke:#ff0000;" x="79.449588" xlink:href="#mbbb3d7f1bf" y="217.218137"/>
     <use style="fill:#ff0000;stroke:#ff0000;" x="80.57296" xlink:href="#mbbb3d7f1bf" y="217.218137"/>
     <use style="fill:#ff0000;stroke:#ff0000;" x="81.696332" xlink:href="#mbbb3d7f1bf" y="256.074985"/>
     <use style="fill:#ff0000;stroke:#ff0000;" x="82.819704" xlink:href="#mbbb3d7f1bf" y="295.488"/>
     <use style="fill:#ff0000;stroke:#ff0000;" x="83.943076" xlink:href="#mbbb3d7f1bf" y="295.488"/>
     <use style="fill:#ff0000;stroke:#ff0000;" x="85.066449" xlink:href="#mbbb3d7f1bf" y="250.746844"/>
     <use style="fill:#ff0000;stroke:#ff0000;" x="86.189821" xlink:href="#mbbb3d7f1bf" y="250.746844"/>
     <use style="fill:#ff0000;stroke:#ff0000;" x="87.313193" xlink:href="#mbbb3d7f1bf" y="250.746844"/>
     <use style="fill:#ff0000;stroke:#ff0000;" x="88.436565" xlink:href="#mbbb3d7f1bf" y="206.133858"/>
     <use style="fill:#ff0000;stroke:#ff0000;" x="89.559937" xlink:href="#mbbb3d7f1bf" y="206.133858"/>
     <use style="fill:#ff0000;stroke:#ff0000;" x="90.683309" xlink:href="#mbbb3d7f1bf" y="206.133858"/>
     <use style="fill:#ff0000;stroke:#ff0000;" x="91.806681" xlink:href="#mbbb3d7f1bf" y="206.133858"/>
     <use style="fill:#ff0000;stroke:#ff0000;" x="92.930053" xlink:href="#mbbb3d7f1bf" y="160.89117"/>
     <use style="fill:#ff0000;stroke:#ff0000;" x="94.053426" xlink:href="#mbbb3d7f1bf" y="160.89117"/>
     <use style="fill:#ff0000;stroke:#ff0000;" x="95.176798" xlink:href="#mbbb3d7f1bf" y="160.89117"/>
     <use style="fill:#ff0000;stroke:#ff0000;" x="96.30017" xlink:href="#mbbb3d7f1bf" y="160.89117"/>
     <use style="fill:#ff0000;stroke:#ff0000;" x="97.423542" xlink:href="#mbbb3d7f1bf" y="160.888268"/>
     <use style="fill:#ff0000;stroke:#ff0000;" x="98.546914" xlink:href="#mbbb3d7f1bf" y="160.888268"/>
     <use style="fill:#ff0000;stroke:#ff0000;" x="99.670286" xlink:href="#mbbb3d7f1bf" y="198.343907"/>
     <use style="fill:#ff0000;stroke:#ff0000;" x="100.793658" xlink:href="#mbbb3d7f1bf" y="198.343907"/>
     <use style="fill:#ff0000;stroke:#ff0000;" x="101.917031" xlink:href="#mbbb3d7f1bf" y="195.387012"/>
     <use style="fill:#ff0000;stroke:#ff0000;" x="103.040403" xlink:href="#mbbb3d7f1bf" y="195.387012"/>
     <use style="fill:#ff0000;stroke:#ff0000;" x="104.163775" xlink:href="#mbbb3d7f1bf" y="207.455003"/>
     <use style="fill:#ff0000;stroke:#ff0000;" x="105.287147" xlink:href="#mbbb3d7f1bf" y="207.455003"/>
     <use style="fill:#ff0000;stroke:#ff0000;" x="106.410519" xlink:href="#mbbb3d7f1bf" y="221.063456"/>
     <use style="fill:#ff0000;stroke:#ff0000;" x="107.533891" xlink:href="#mbbb3d7f1bf" y="221.063456"/>
     <use style="fill:#ff0000;stroke:#ff0000;" x="108.657263" xlink:href="#mbbb3d7f1bf" y="206.686491"/>
     <use style="fill:#ff0000;stroke:#ff0000;" x="109.780635" xlink:href="#mbbb3d7f1bf" y="206.686491"/>
     <use style="fill:#ff0000;stroke:#ff0000;" x="110.904008" xlink:href="#mbbb3d7f1bf" y="206.686491"/>
     <use style="fill:#ff0000;stroke:#ff0000;" x="112.02738" xlink:href="#mbbb3d7f1bf" y="219.296364"/>
     <use style="fill:#ff0000;stroke:#ff0000;" x="113.150752" xlink:href="#mbbb3d7f1bf" y="219.296364"/>
     <use style="fill:#ff0000;stroke:#ff0000;" x="114.274124" xlink:href="#mbbb3d7f1bf" y="205.227746"/>
     <use style="fill:#ff0000;stroke:#ff0000;" x="115.397496" xlink:href="#mbbb3d7f1bf" y="205.227746"/>
     <use style="fill:#ff0000;stroke:#ff0000;" x="116.520868" xlink:href="#mbbb3d7f1bf" y="218.007514"/>
     <use style="fill:#ff0000;stroke:#ff0000;" x="117.64424" xlink:href="#mbbb3d7f1bf" y="230.316399"/>
     <use style="fill:#ff0000;stroke:#ff0000;" x="118.767612" xlink:href="#mbbb3d7f1bf" y="230.316399"/>
     <use style="fill:#ff0000;stroke:#ff0000;" x="119.890985" xlink:href="#mbbb3d7f1bf" y="230.316399"/>
     <use style="fill:#ff0000;stroke:#ff0000;" x="121.014357" xlink:href="#mbbb3d7f1bf" y="216.28153"/>
     <use style="fill:#ff0000;stroke:#ff0000;" x="122.137729" xlink:href="#mbbb3d7f1bf" y="216.28153"/>
     <use style="fill:#ff0000;stroke:#ff0000;" x="123.261101" xlink:href="#mbbb3d7f1bf" y="229.808739"/>
     <use style="fill:#ff0000;stroke:#ff0000;" x="124.384473" xlink:href="#mbbb3d7f1bf" y="229.808739"/>
     <use style="fill:#ff0000;stroke:#ff0000;" x="125.507845" xlink:href="#mbbb3d7f1bf" y="215.41276"/>
     <use style="fill:#ff0000;stroke:#ff0000;" x="126.631217" xlink:href="#mbbb3d7f1bf" y="228.581974"/>
     <use style="fill:#ff0000;stroke:#ff0000;" x="127.754589" xlink:href="#mbbb3d7f1bf" y="228.581974"/>
     <use style="fill:#ff0000;stroke:#ff0000;" x="128.877962" xlink:href="#mbbb3d7f1bf" y="225.36606"/>
     <use style="fill:#ff0000;stroke:#ff0000;" x="130.001334" xlink:href="#mbbb3d7f1bf" y="225.36606"/>
     <use style="fill:#ff0000;stroke:#ff0000;" x="131.124706" xlink:href="#mbbb3d7f1bf" y="210.723207"/>
     <use style="fill:#ff0000;stroke:#ff0000;" x="132.248078" xlink:href="#mbbb3d7f1bf" y="195.960935"/>
     <use style="fill:#ff0000;stroke:#ff0000;" x="133.37145" xlink:href="#mbbb3d7f1bf" y="195.960935"/>
     <use style="fill:#ff0000;stroke:#ff0000;" x="134.494822" xlink:href="#mbbb3d7f1bf" y="195.960935"/>
     <use style="fill:#ff0000;stroke:#ff0000;" x="135.618194" xlink:href="#mbbb3d7f1bf" y="182.059362"/>
     <use style="fill:#ff0000;stroke:#ff0000;" x="136.741567" xlink:href="#mbbb3d7f1bf" y="182.059362"/>
     <use style="fill:#ff0000;stroke:#ff0000;" x="137.864939" xlink:href="#mbbb3d7f1bf" y="168.599051"/>
     <use style="fill:#ff0000;stroke:#ff0000;" x="138.988311" xlink:href="#mbbb3d7f1bf" y="168.599051"/>
     <use style="fill:#ff0000;stroke:#ff0000;" x="140.111683" xlink:href="#mbbb3d7f1bf" y="182.285698"/>
     <use style="fill:#ff0000;stroke:#ff0000;" x="141.235055" xlink:href="#mbbb3d7f1bf" y="182.285698"/>
     <use style="fill:#ff0000;stroke:#ff0000;" x="142.358427" xlink:href="#mbbb3d7f1bf" y="182.285698"/>
     <use style="fill:#ff0000;stroke:#ff0000;" x="143.481799" xlink:href="#mbbb3d7f1bf" y="167.917386"/>
     <use style="fill:#ff0000;stroke:#ff0000;" x="144.605171" xlink:href="#mbbb3d7f1bf" y="167.917386"/>
     <use style="fill:#ff0000;stroke:#ff0000;" x="145.728544" xlink:href="#mbbb3d7f1bf" y="154.682378"/>
     <use style="fill:#ff0000;stroke:#ff0000;" x="146.851916" xlink:href="#mbbb3d7f1bf" y="154.682378"/>
     <use style="fill:#ff0000;stroke:#ff0000;" x="147.975288" xlink:href="#mbbb3d7f1bf" y="170.083642"/>
     <use style="fill:#ff0000;stroke:#ff0000;" x="149.09866" xlink:href="#mbbb3d7f1bf" y="155.820347"/>
     <use style="fill:#ff0000;stroke:#ff0000;" x="150.222032" xlink:href="#mbbb3d7f1bf" y="155.820347"/>
     <use style="fill:#ff0000;stroke:#ff0000;" x="151.345404" xlink:href="#mbbb3d7f1bf" y="155.820347"/>
     <use style="fill:#ff0000;stroke:#ff0000;" x="152.468776" xlink:href="#mbbb3d7f1bf" y="141.855302"/>
     <use style="fill:#ff0000;stroke:#ff0000;" x="153.592148" xlink:href="#mbbb3d7f1bf" y="141.855302"/>
     <use style="fill:#ff0000;stroke:#ff0000;" x="154.715521" xlink:href="#mbbb3d7f1bf" y="144.904545"/>
     <use style="fill:#ff0000;stroke:#ff0000;" x="155.838893" xlink:href="#mbbb3d7f1bf" y="144.904545"/>
     <use style="fill:#ff0000;stroke:#ff0000;" x="156.962265" xlink:href="#mbbb3d7f1bf" y="143.296347"/>
     <use style="fill:#ff0000;stroke:#ff0000;" x="158.085637" xlink:href="#mbbb3d7f1bf" y="156.832799"/>
     <use style="fill:#ff0000;stroke:#ff0000;" x="159.209009" xlink:href="#mbbb3d7f1bf" y="156.832799"/>
     <use style="fill:#ff0000;stroke:#ff0000;" x="160.332381" xlink:href="#mbbb3d7f1bf" y="156.832799"/>
     <use style="fill:#ff0000;stroke:#ff0000;" x="161.455753" xlink:href="#mbbb3d7f1bf" y="142.768723"/>
     <use style="fill:#ff0000;stroke:#ff0000;" x="162.579126" xlink:href="#mbbb3d7f1bf" y="142.768723"/>
     <use style="fill:#ff0000;stroke:#ff0000;" x="163.702498" xlink:href="#mbbb3d7f1bf" y="144.901959"/>
     <use style="fill:#ff0000;stroke:#ff0000;" x="164.82587" xlink:href="#mbbb3d7f1bf" y="149.282884"/>
     <use style="fill:#ff0000;stroke:#ff0000;" x="165.949242" xlink:href="#mbbb3d7f1bf" y="149.282884"/>
     <use style="fill:#ff0000;stroke:#ff0000;" x="167.072614" xlink:href="#mbbb3d7f1bf" y="149.282884"/>
     <use style="fill:#ff0000;stroke:#ff0000;" x="168.195986" xlink:href="#mbbb3d7f1bf" y="149.282884"/>
     <use style="fill:#ff0000;stroke:#ff0000;" x="169.319358" xlink:href="#mbbb3d7f1bf" y="134.455092"/>
     <use style="fill:#ff0000;stroke:#ff0000;" x="170.44273" xlink:href="#mbbb3d7f1bf" y="134.455092"/>
     <use style="fill:#ff0000;stroke:#ff0000;" x="171.566103" xlink:href="#mbbb3d7f1bf" y="122.24817"/>
     <use style="fill:#ff0000;stroke:#ff0000;" x="172.689475" xlink:href="#mbbb3d7f1bf" y="109.201343"/>
     <use style="fill:#ff0000;stroke:#ff0000;" x="173.812847" xlink:href="#mbbb3d7f1bf" y="109.201343"/>
     <use style="fill:#ff0000;stroke:#ff0000;" x="174.936219" xlink:href="#mbbb3d7f1bf" y="97.223092"/>
     <use style="fill:#ff0000;stroke:#ff0000;" x="176.059591" xlink:href="#mbbb3d7f1bf" y="97.223092"/>
     <use style="fill:#ff0000;stroke:#ff0000;" x="177.182963" xlink:href="#mbbb3d7f1bf" y="97.223092"/>
     <use style="fill:#ff0000;stroke:#ff0000;" x="178.306335" xlink:href="#mbbb3d7f1bf" y="84.091884"/>
     <use style="fill:#ff0000;stroke:#ff0000;" x="179.429707" xlink:href="#mbbb3d7f1bf" y="84.091884"/>
     <use style="fill:#ff0000;stroke:#ff0000;" x="180.55308" xlink:href="#mbbb3d7f1bf" y="70.9701"/>
     <use style="fill:#ff0000;stroke:#ff0000;" x="181.676452" xlink:href="#mbbb3d7f1bf" y="70.9701"/>
     <use style="fill:#ff0000;stroke:#ff0000;" x="182.799824" xlink:href="#mbbb3d7f1bf" y="58.91269"/>
     <use style="fill:#ff0000;stroke:#ff0000;" x="183.923196" xlink:href="#mbbb3d7f1bf" y="58.91269"/>
     <use style="fill:#ff0000;stroke:#ff0000;" x="185.046568" xlink:href="#mbbb3d7f1bf" y="72.206654"/>
     <use style="fill:#ff0000;stroke:#ff0000;" x="186.16994" xlink:href="#mbbb3d7f1bf" y="72.206654"/>
     <use style="fill:#ff0000;stroke:#ff0000;" x="187.293312" xlink:href="#mbbb3d7f1bf" y="70.644898"/>
     <use style="fill:#ff0000;stroke:#ff0000;" x="188.416684" xlink:href="#mbbb3d7f1bf" y="70.644898"/>
     <use style="fill:#ff0000;stroke:#ff0000;" x="189.540057" xlink:href="#mbbb3d7f1bf" y="70.644898"/>
     <use style="fill:#ff0000;stroke:#ff0000;" x="190.663429" xlink:href="#mbbb3d7f1bf" y="83.893595"/>
     <use style="fill:#ff0000;stroke:#ff0000;" x="191.786801" xlink:href="#mbbb3d7f1bf" y="83.893595"/>
     <use style="fill:#ff0000;stroke:#ff0000;" x="192.910173" xlink:href="#mbbb3d7f1bf" y="83.893595"/>
     <use style="fill:#ff0000;stroke:#ff0000;" x="194.033545" xlink:href="#mbbb3d7f1bf" y="83.893595"/>
     <use style="fill:#ff0000;stroke:#ff0000;" x="195.156917" xlink:href="#mbbb3d7f1bf" y="69.646887"/>
     <use style="fill:#ff0000;stroke:#ff0000;" x="196.280289" xlink:href="#mbbb3d7f1bf" y="69.646887"/>
     <use style="fill:#ff0000;stroke:#ff0000;" x="197.403662" xlink:href="#mbbb3d7f1bf" y="83.58269"/>
     <use style="fill:#ff0000;stroke:#ff0000;" x="198.527034" xlink:href="#mbbb3d7f1bf" y="83.58269"/>
     <use style="fill:#ff0000;stroke:#ff0000;" x="199.650406" xlink:href="#mbbb3d7f1bf" y="96.658674"/>
     <use style="fill:#ff0000;stroke:#ff0000;" x="200.773778" xlink:href="#mbbb3d7f1bf" y="96.658674"/>
     <use style="fill:#ff0000;stroke:#ff0000;" x="201.89715" xlink:href="#mbbb3d7f1bf" y="96.658674"/>
     <use style="fill:#ff0000;stroke:#ff0000;" x="203.020522" xlink:href="#mbbb3d7f1bf" y="96.658674"/>
     <use style="fill:#ff0000;stroke:#ff0000;" x="204.143894" xlink:href="#mbbb3d7f1bf" y="96.658674"/>
     <use style="fill:#ff0000;stroke:#ff0000;" x="205.267266" xlink:href="#mbbb3d7f1bf" y="96.658674"/>
     <use style="fill:#ff0000;stroke:#ff0000;" x="206.390639" xlink:href="#mbbb3d7f1bf" y="96.658674"/>
     <use style="fill:#ff0000;stroke:#ff0000;" x="207.514011" xlink:href="#mbbb3d7f1bf" y="96.658674"/>
     <use style="fill:#ff0000;stroke:#ff0000;" x="208.637383" xlink:href="#mbbb3d7f1bf" y="96.658674"/>
     <use style="fill:#ff0000;stroke:#ff0000;" x="209.760755" xlink:href="#mbbb3d7f1bf" y="110.540844"/>
     <use style="fill:#ff0000;stroke:#ff0000;" x="210.884127" xlink:href="#mbbb3d7f1bf" y="125.724123"/>
     <use style="fill:#ff0000;stroke:#ff0000;" x="212.007499" xlink:href="#mbbb3d7f1bf" y="125.724123"/>
     <use style="fill:#ff0000;stroke:#ff0000;" x="213.130871" xlink:href="#mbbb3d7f1bf" y="125.724123"/>
     <use style="fill:#ff0000;stroke:#ff0000;" x="214.254243" xlink:href="#mbbb3d7f1bf" y="123.651638"/>
     <use style="fill:#ff0000;stroke:#ff0000;" x="215.377616" xlink:href="#mbbb3d7f1bf" y="123.651638"/>
     <use style="fill:#ff0000;stroke:#ff0000;" x="216.500988" xlink:href="#mbbb3d7f1bf" y="111.770852"/>
     <use style="fill:#ff0000;stroke:#ff0000;" x="217.62436" xlink:href="#mbbb3d7f1bf" y="111.770852"/>
     <use style="fill:#ff0000;stroke:#ff0000;" x="218.747732" xlink:href="#mbbb3d7f1bf" y="125.418559"/>
     <use style="fill:#ff0000;stroke:#ff0000;" x="219.871104" xlink:href="#mbbb3d7f1bf" y="125.418559"/>
     <use style="fill:#ff0000;stroke:#ff0000;" x="220.994476" xlink:href="#mbbb3d7f1bf" y="125.418559"/>
     <use style="fill:#ff0000;stroke:#ff0000;" x="222.117848" xlink:href="#mbbb3d7f1bf" y="139.906811"/>
     <use style="fill:#ff0000;stroke:#ff0000;" x="223.241221" xlink:href="#mbbb3d7f1bf" y="139.906811"/>
     <use style="fill:#ff0000;stroke:#ff0000;" x="224.364593" xlink:href="#mbbb3d7f1bf" y="152.433539"/>
     <use style="fill:#ff0000;stroke:#ff0000;" x="225.487965" xlink:href="#mbbb3d7f1bf" y="152.433539"/>
     <use style="fill:#ff0000;stroke:#ff0000;" x="226.611337" xlink:href="#mbbb3d7f1bf" y="137.46574"/>
     <use style="fill:#ff0000;stroke:#ff0000;" x="227.734709" xlink:href="#mbbb3d7f1bf" y="137.46574"/>
     <use style="fill:#ff0000;stroke:#ff0000;" x="228.858081" xlink:href="#mbbb3d7f1bf" y="151.201245"/>
     <use style="fill:#ff0000;stroke:#ff0000;" x="229.981453" xlink:href="#mbbb3d7f1bf" y="151.201245"/>
     <use style="fill:#ff0000;stroke:#ff0000;" x="231.104825" xlink:href="#mbbb3d7f1bf" y="149.771468"/>
     <use style="fill:#ff0000;stroke:#ff0000;" x="232.228198" xlink:href="#mbbb3d7f1bf" y="149.771468"/>
     <use style="fill:#ff0000;stroke:#ff0000;" x="233.35157" xlink:href="#mbbb3d7f1bf" y="162.610845"/>
     <use style="fill:#ff0000;stroke:#ff0000;" x="234.474942" xlink:href="#mbbb3d7f1bf" y="162.610845"/>
     <use style="fill:#ff0000;stroke:#ff0000;" x="235.598314" xlink:href="#mbbb3d7f1bf" y="162.610845"/>
     <use style="fill:#ff0000;stroke:#ff0000;" x="236.721686" xlink:href="#mbbb3d7f1bf" y="162.610845"/>
     <use style="fill:#ff0000;stroke:#ff0000;" x="237.845058" xlink:href="#mbbb3d7f1bf" y="148.646623"/>
     <use style="fill:#ff0000;stroke:#ff0000;" x="238.96843" xlink:href="#mbbb3d7f1bf" y="148.646623"/>
     <use style="fill:#ff0000;stroke:#ff0000;" x="240.091802" xlink:href="#mbbb3d7f1bf" y="149.595789"/>
     <use style="fill:#ff0000;stroke:#ff0000;" x="241.215175" xlink:href="#mbbb3d7f1bf" y="137.078191"/>
     <use style="fill:#ff0000;stroke:#ff0000;" x="242.338547" xlink:href="#mbbb3d7f1bf" y="137.078191"/>
     <use style="fill:#ff0000;stroke:#ff0000;" x="243.461919" xlink:href="#mbbb3d7f1bf" y="124.213054"/>
     <use style="fill:#ff0000;stroke:#ff0000;" x="244.585291" xlink:href="#mbbb3d7f1bf" y="124.213054"/>
     <use style="fill:#ff0000;stroke:#ff0000;" x="245.708663" xlink:href="#mbbb3d7f1bf" y="124.213054"/>
     <use style="fill:#ff0000;stroke:#ff0000;" x="246.832035" xlink:href="#mbbb3d7f1bf" y="109.109074"/>
     <use style="fill:#ff0000;stroke:#ff0000;" x="247.955407" xlink:href="#mbbb3d7f1bf" y="109.109074"/>
     <use style="fill:#ff0000;stroke:#ff0000;" x="249.078779" xlink:href="#mbbb3d7f1bf" y="109.109074"/>
     <use style="fill:#ff0000;stroke:#ff0000;" x="250.202152" xlink:href="#mbbb3d7f1bf" y="96.595259"/>
     <use style="fill:#ff0000;stroke:#ff0000;" x="251.325524" xlink:href="#mbbb3d7f1bf" y="109.449228"/>
     <use style="fill:#ff0000;stroke:#ff0000;" x="252.448896" xlink:href="#mbbb3d7f1bf" y="109.449228"/>
     <use style="fill:#ff0000;stroke:#ff0000;" x="253.572268" xlink:href="#mbbb3d7f1bf" y="109.449228"/>
     <use style="fill:#ff0000;stroke:#ff0000;" x="254.69564" xlink:href="#mbbb3d7f1bf" y="109.449228"/>
     <use style="fill:#ff0000;stroke:#ff0000;" x="255.819012" xlink:href="#mbbb3d7f1bf" y="109.449228"/>
     <use style="fill:#ff0000;stroke:#ff0000;" x="256.942384" xlink:href="#mbbb3d7f1bf" y="95.581495"/>
     <use style="fill:#ff0000;stroke:#ff0000;" x="258.065757" xlink:href="#mbbb3d7f1bf" y="95.581495"/>
     <use style="fill:#ff0000;stroke:#ff0000;" x="259.189129" xlink:href="#mbbb3d7f1bf" y="82.805631"/>
     <use style="fill:#ff0000;stroke:#ff0000;" x="260.312501" xlink:href="#mbbb3d7f1bf" y="67.945074"/>
     <use style="fill:#ff0000;stroke:#ff0000;" x="261.435873" xlink:href="#mbbb3d7f1bf" y="67.945074"/>
     <use style="fill:#ff0000;stroke:#ff0000;" x="262.559245" xlink:href="#mbbb3d7f1bf" y="67.945074"/>
     <use style="fill:#ff0000;stroke:#ff0000;" x="263.682617" xlink:href="#mbbb3d7f1bf" y="53.568"/>
     <use style="fill:#ff0000;stroke:#ff0000;" x="264.805989" xlink:href="#mbbb3d7f1bf" y="53.568"/>
     <use style="fill:#ff0000;stroke:#ff0000;" x="265.929361" xlink:href="#mbbb3d7f1bf" y="59.294618"/>
     <use style="fill:#ff0000;stroke:#ff0000;" x="267.052734" xlink:href="#mbbb3d7f1bf" y="59.294618"/>
     <use style="fill:#ff0000;stroke:#ff0000;" x="268.176106" xlink:href="#mbbb3d7f1bf" y="73.021212"/>
     <use style="fill:#ff0000;stroke:#ff0000;" x="269.299478" xlink:href="#mbbb3d7f1bf" y="73.021212"/>
     <use style="fill:#ff0000;stroke:#ff0000;" x="270.42285" xlink:href="#mbbb3d7f1bf" y="86.909661"/>
     <use style="fill:#ff0000;stroke:#ff0000;" x="271.546222" xlink:href="#mbbb3d7f1bf" y="86.909661"/>
     <use style="fill:#ff0000;stroke:#ff0000;" x="272.669594" xlink:href="#mbbb3d7f1bf" y="100.986319"/>
     <use style="fill:#ff0000;stroke:#ff0000;" x="273.792966" xlink:href="#mbbb3d7f1bf" y="103.022641"/>
     <use style="fill:#ff0000;stroke:#ff0000;" x="274.916338" xlink:href="#mbbb3d7f1bf" y="103.022641"/>
     <use style="fill:#ff0000;stroke:#ff0000;" x="276.039711" xlink:href="#mbbb3d7f1bf" y="90.301541"/>
     <use style="fill:#ff0000;stroke:#ff0000;" x="277.163083" xlink:href="#mbbb3d7f1bf" y="90.301541"/>
     <use style="fill:#ff0000;stroke:#ff0000;" x="278.286455" xlink:href="#mbbb3d7f1bf" y="90.301541"/>
     <use style="fill:#ff0000;stroke:#ff0000;" x="279.409827" xlink:href="#mbbb3d7f1bf" y="104.730069"/>
     <use style="fill:#ff0000;stroke:#ff0000;" x="280.533199" xlink:href="#mbbb3d7f1bf" y="104.730069"/>
     <use style="fill:#ff0000;stroke:#ff0000;" x="281.656571" xlink:href="#mbbb3d7f1bf" y="120.821275"/>
     <use style="fill:#ff0000;stroke:#ff0000;" x="282.779943" xlink:href="#mbbb3d7f1bf" y="120.821275"/>
     <use style="fill:#ff0000;stroke:#ff0000;" x="283.903316" xlink:href="#mbbb3d7f1bf" y="120.821275"/>
     <use style="fill:#ff0000;stroke:#ff0000;" x="285.026688" xlink:href="#mbbb3d7f1bf" y="120.821275"/>
     <use style="fill:#ff0000;stroke:#ff0000;" x="286.15006" xlink:href="#mbbb3d7f1bf" y="120.821275"/>
     <use style="fill:#ff0000;stroke:#ff0000;" x="287.273432" xlink:href="#mbbb3d7f1bf" y="120.821275"/>
     <use style="fill:#ff0000;stroke:#ff0000;" x="288.396804" xlink:href="#mbbb3d7f1bf" y="120.821275"/>
     <use style="fill:#ff0000;stroke:#ff0000;" x="289.520176" xlink:href="#mbbb3d7f1bf" y="120.821275"/>
     <use style="fill:#ff0000;stroke:#ff0000;" x="290.643548" xlink:href="#mbbb3d7f1bf" y="120.821275"/>
     <use style="fill:#ff0000;stroke:#ff0000;" x="291.76692" xlink:href="#mbbb3d7f1bf" y="120.821275"/>
     <use style="fill:#ff0000;stroke:#ff0000;" x="292.890293" xlink:href="#mbbb3d7f1bf" y="120.821275"/>
     <use style="fill:#ff0000;stroke:#ff0000;" x="294.013665" xlink:href="#mbbb3d7f1bf" y="120.821275"/>
     <use style="fill:#ff0000;stroke:#ff0000;" x="295.137037" xlink:href="#mbbb3d7f1bf" y="120.821275"/>
     <use style="fill:#ff0000;stroke:#ff0000;" x="296.260409" xlink:href="#mbbb3d7f1bf" y="120.821275"/>
     <use style="fill:#ff0000;stroke:#ff0000;" x="297.383781" xlink:href="#mbbb3d7f1bf" y="120.821275"/>
     <use style="fill:#ff0000;stroke:#ff0000;" x="298.507153" xlink:href="#mbbb3d7f1bf" y="120.821275"/>
     <use style="fill:#ff0000;stroke:#ff0000;" x="299.630525" xlink:href="#mbbb3d7f1bf" y="120.821275"/>
     <use style="fill:#ff0000;stroke:#ff0000;" x="300.753897" xlink:href="#mbbb3d7f1bf" y="120.821275"/>
     <use style="fill:#ff0000;stroke:#ff0000;" x="301.87727" xlink:href="#mbbb3d7f1bf" y="120.821275"/>
     <use style="fill:#ff0000;stroke:#ff0000;" x="303.000642" xlink:href="#mbbb3d7f1bf" y="120.821275"/>
     <use style="fill:#ff0000;stroke:#ff0000;" x="304.124014" xlink:href="#mbbb3d7f1bf" y="120.821275"/>
     <use style="fill:#ff0000;stroke:#ff0000;" x="305.247386" xlink:href="#mbbb3d7f1bf" y="120.821275"/>
     <use style="fill:#ff0000;stroke:#ff0000;" x="306.370758" xlink:href="#mbbb3d7f1bf" y="120.821275"/>
     <use style="fill:#ff0000;stroke:#ff0000;" x="307.49413" xlink:href="#mbbb3d7f1bf" y="120.821275"/>
     <use style="fill:#ff0000;stroke:#ff0000;" x="308.617502" xlink:href="#mbbb3d7f1bf" y="120.821275"/>
     <use style="fill:#ff0000;stroke:#ff0000;" x="309.740874" xlink:href="#mbbb3d7f1bf" y="120.821275"/>
     <use style="fill:#ff0000;stroke:#ff0000;" x="310.864247" xlink:href="#mbbb3d7f1bf" y="120.821275"/>
     <use style="fill:#ff0000;stroke:#ff0000;" x="311.987619" xlink:href="#mbbb3d7f1bf" y="120.821275"/>
     <use style="fill:#ff0000;stroke:#ff0000;" x="313.110991" xlink:href="#mbbb3d7f1bf" y="120.821275"/>
     <use style="fill:#ff0000;stroke:#ff0000;" x="314.234363" xlink:href="#mbbb3d7f1bf" y="120.821275"/>
     <use style="fill:#ff0000;stroke:#ff0000;" x="315.357735" xlink:href="#mbbb3d7f1bf" y="120.821275"/>
     <use style="fill:#ff0000;stroke:#ff0000;" x="316.481107" xlink:href="#mbbb3d7f1bf" y="120.821275"/>
     <use style="fill:#ff0000;stroke:#ff0000;" x="317.604479" xlink:href="#mbbb3d7f1bf" y="120.821275"/>
     <use style="fill:#ff0000;stroke:#ff0000;" x="318.727852" xlink:href="#mbbb3d7f1bf" y="120.821275"/>
     <use style="fill:#ff0000;stroke:#ff0000;" x="319.851224" xlink:href="#mbbb3d7f1bf" y="120.821275"/>
     <use style="fill:#ff0000;stroke:#ff0000;" x="320.974596" xlink:href="#mbbb3d7f1bf" y="120.821275"/>
     <use style="fill:#ff0000;stroke:#ff0000;" x="322.097968" xlink:href="#mbbb3d7f1bf" y="120.821275"/>
     <use style="fill:#ff0000;stroke:#ff0000;" x="323.22134" xlink:href="#mbbb3d7f1bf" y="120.821275"/>
     <use style="fill:#ff0000;stroke:#ff0000;" x="324.344712" xlink:href="#mbbb3d7f1bf" y="120.821275"/>
     <use style="fill:#ff0000;stroke:#ff0000;" x="325.468084" xlink:href="#mbbb3d7f1bf" y="120.821275"/>
     <use style="fill:#ff0000;stroke:#ff0000;" x="326.591456" xlink:href="#mbbb3d7f1bf" y="120.821275"/>
     <use style="fill:#ff0000;stroke:#ff0000;" x="327.714829" xlink:href="#mbbb3d7f1bf" y="120.821275"/>
     <use style="fill:#ff0000;stroke:#ff0000;" x="328.838201" xlink:href="#mbbb3d7f1bf" y="120.821275"/>
     <use style="fill:#ff0000;stroke:#ff0000;" x="329.961573" xlink:href="#mbbb3d7f1bf" y="120.821275"/>
     <use style="fill:#ff0000;stroke:#ff0000;" x="331.084945" xlink:href="#mbbb3d7f1bf" y="120.821275"/>
     <use style="fill:#ff0000;stroke:#ff0000;" x="332.208317" xlink:href="#mbbb3d7f1bf" y="120.821275"/>
     <use style="fill:#ff0000;stroke:#ff0000;" x="333.331689" xlink:href="#mbbb3d7f1bf" y="120.821275"/>
     <use style="fill:#ff0000;stroke:#ff0000;" x="334.455061" xlink:href="#mbbb3d7f1bf" y="120.821275"/>
     <use style="fill:#ff0000;stroke:#ff0000;" x="335.578433" xlink:href="#mbbb3d7f1bf" y="120.821275"/>
     <use style="fill:#ff0000;stroke:#ff0000;" x="336.701806" xlink:href="#mbbb3d7f1bf" y="120.821275"/>
     <use style="fill:#ff0000;stroke:#ff0000;" x="337.825178" xlink:href="#mbbb3d7f1bf" y="120.821275"/>
     <use style="fill:#ff0000;stroke:#ff0000;" x="338.94855" xlink:href="#mbbb3d7f1bf" y="120.821275"/>
     <use style="fill:#ff0000;stroke:#ff0000;" x="340.071922" xlink:href="#mbbb3d7f1bf" y="120.821275"/>
     <use style="fill:#ff0000;stroke:#ff0000;" x="341.195294" xlink:href="#mbbb3d7f1bf" y="120.821275"/>
     <use style="fill:#ff0000;stroke:#ff0000;" x="342.318666" xlink:href="#mbbb3d7f1bf" y="120.821275"/>
     <use style="fill:#ff0000;stroke:#ff0000;" x="343.442038" xlink:href="#mbbb3d7f1bf" y="120.821275"/>
     <use style="fill:#ff0000;stroke:#ff0000;" x="344.565411" xlink:href="#mbbb3d7f1bf" y="120.821275"/>
     <use style="fill:#ff0000;stroke:#ff0000;" x="345.688783" xlink:href="#mbbb3d7f1bf" y="120.821275"/>
     <use style="fill:#ff0000;stroke:#ff0000;" x="346.812155" xlink:href="#mbbb3d7f1bf" y="120.821275"/>
     <use style="fill:#ff0000;stroke:#ff0000;" x="347.935527" xlink:href="#mbbb3d7f1bf" y="120.821275"/>
     <use style="fill:#ff0000;stroke:#ff0000;" x="349.058899" xlink:href="#mbbb3d7f1bf" y="120.821275"/>
     <use style="fill:#ff0000;stroke:#ff0000;" x="350.182271" xlink:href="#mbbb3d7f1bf" y="120.821275"/>
     <use style="fill:#ff0000;stroke:#ff0000;" x="351.305643" xlink:href="#mbbb3d7f1bf" y="120.821275"/>
     <use style="fill:#ff0000;stroke:#ff0000;" x="352.429015" xlink:href="#mbbb3d7f1bf" y="120.821275"/>
     <use style="fill:#ff0000;stroke:#ff0000;" x="353.552388" xlink:href="#mbbb3d7f1bf" y="120.821275"/>
     <use style="fill:#ff0000;stroke:#ff0000;" x="354.67576" xlink:href="#mbbb3d7f1bf" y="120.821275"/>
     <use style="fill:#ff0000;stroke:#ff0000;" x="355.799132" xlink:href="#mbbb3d7f1bf" y="120.821275"/>
     <use style="fill:#ff0000;stroke:#ff0000;" x="356.922504" xlink:href="#mbbb3d7f1bf" y="120.821275"/>
     <use style="fill:#ff0000;stroke:#ff0000;" x="358.045876" xlink:href="#mbbb3d7f1bf" y="120.821275"/>
     <use style="fill:#ff0000;stroke:#ff0000;" x="359.169248" xlink:href="#mbbb3d7f1bf" y="120.821275"/>
     <use style="fill:#ff0000;stroke:#ff0000;" x="360.29262" xlink:href="#mbbb3d7f1bf" y="120.821275"/>
     <use style="fill:#ff0000;stroke:#ff0000;" x="361.415992" xlink:href="#mbbb3d7f1bf" y="120.821275"/>
     <use style="fill:#ff0000;stroke:#ff0000;" x="362.539365" xlink:href="#mbbb3d7f1bf" y="120.821275"/>
     <use style="fill:#ff0000;stroke:#ff0000;" x="363.662737" xlink:href="#mbbb3d7f1bf" y="120.821275"/>
     <use style="fill:#ff0000;stroke:#ff0000;" x="364.786109" xlink:href="#mbbb3d7f1bf" y="120.821275"/>
     <use style="fill:#ff0000;stroke:#ff0000;" x="365.909481" xlink:href="#mbbb3d7f1bf" y="120.821275"/>
     <use style="fill:#ff0000;stroke:#ff0000;" x="367.032853" xlink:href="#mbbb3d7f1bf" y="120.821275"/>
     <use style="fill:#ff0000;stroke:#ff0000;" x="368.156225" xlink:href="#mbbb3d7f1bf" y="120.821275"/>
     <use style="fill:#ff0000;stroke:#ff0000;" x="369.279597" xlink:href="#mbbb3d7f1bf" y="120.821275"/>
     <use style="fill:#ff0000;stroke:#ff0000;" x="370.402969" xlink:href="#mbbb3d7f1bf" y="120.821275"/>
     <use style="fill:#ff0000;stroke:#ff0000;" x="371.526342" xlink:href="#mbbb3d7f1bf" y="120.821275"/>
     <use style="fill:#ff0000;stroke:#ff0000;" x="372.649714" xlink:href="#mbbb3d7f1bf" y="120.821275"/>
     <use style="fill:#ff0000;stroke:#ff0000;" x="373.773086" xlink:href="#mbbb3d7f1bf" y="120.821275"/>
     <use style="fill:#ff0000;stroke:#ff0000;" x="374.896458" xlink:href="#mbbb3d7f1bf" y="120.821275"/>
     <use style="fill:#ff0000;stroke:#ff0000;" x="376.01983" xlink:href="#mbbb3d7f1bf" y="120.821275"/>
     <use style="fill:#ff0000;stroke:#ff0000;" x="377.143202" xlink:href="#mbbb3d7f1bf" y="120.821275"/>
     <use style="fill:#ff0000;stroke:#ff0000;" x="378.266574" xlink:href="#mbbb3d7f1bf" y="120.821275"/>
     <use style="fill:#ff0000;stroke:#ff0000;" x="379.389947" xlink:href="#mbbb3d7f1bf" y="120.821275"/>
     <use style="fill:#ff0000;stroke:#ff0000;" x="380.513319" xlink:href="#mbbb3d7f1bf" y="120.821275"/>
     <use style="fill:#ff0000;stroke:#ff0000;" x="381.636691" xlink:href="#mbbb3d7f1bf" y="120.821275"/>
     <use style="fill:#ff0000;stroke:#ff0000;" x="382.760063" xlink:href="#mbbb3d7f1bf" y="120.821275"/>
     <use style="fill:#ff0000;stroke:#ff0000;" x="383.883435" xlink:href="#mbbb3d7f1bf" y="120.821275"/>
     <use style="fill:#ff0000;stroke:#ff0000;" x="385.006807" xlink:href="#mbbb3d7f1bf" y="120.821275"/>
     <use style="fill:#ff0000;stroke:#ff0000;" x="386.130179" xlink:href="#mbbb3d7f1bf" y="120.821275"/>
     <use style="fill:#ff0000;stroke:#ff0000;" x="387.253551" xlink:href="#mbbb3d7f1bf" y="120.821275"/>
     <use style="fill:#ff0000;stroke:#ff0000;" x="388.376924" xlink:href="#mbbb3d7f1bf" y="120.821275"/>
     <use style="fill:#ff0000;stroke:#ff0000;" x="389.500296" xlink:href="#mbbb3d7f1bf" y="120.821275"/>
     <use style="fill:#ff0000;stroke:#ff0000;" x="390.623668" xlink:href="#mbbb3d7f1bf" y="120.821275"/>
     <use style="fill:#ff0000;stroke:#ff0000;" x="391.74704" xlink:href="#mbbb3d7f1bf" y="120.821275"/>
     <use style="fill:#ff0000;stroke:#ff0000;" x="392.870412" xlink:href="#mbbb3d7f1bf" y="120.821275"/>
     <use style="fill:#ff0000;stroke:#ff0000;" x="393.993784" xlink:href="#mbbb3d7f1bf" y="120.821275"/>
     <use style="fill:#ff0000;stroke:#ff0000;" x="395.117156" xlink:href="#mbbb3d7f1bf" y="120.821275"/>
     <use style="fill:#ff0000;stroke:#ff0000;" x="396.240528" xlink:href="#mbbb3d7f1bf" y="120.821275"/>
     <use style="fill:#ff0000;stroke:#ff0000;" x="397.363901" xlink:href="#mbbb3d7f1bf" y="120.821275"/>
     <use style="fill:#ff0000;stroke:#ff0000;" x="398.487273" xlink:href="#mbbb3d7f1bf" y="120.821275"/>
    </g>
   </g>
   <g id="patch_3">
    <path d="M 57.6 307.584 
L 57.6 41.472 
" style="fill:none;stroke:#000000;stroke-linecap:square;stroke-linejoin:miter;stroke-width:0.8;"/>
   </g>
   <g id="patch_4">
    <path d="M 414.72 307.584 
L 414.72 41.472 
" style="fill:none;stroke:#000000;stroke-linecap:square;stroke-linejoin:miter;stroke-width:0.8;"/>
   </g>
   <g id="patch_5">
    <path d="M 57.6 307.584 
L 414.72 307.584 
" style="fill:none;stroke:#000000;stroke-linecap:square;stroke-linejoin:miter;stroke-width:0.8;"/>
   </g>
   <g id="patch_6">
    <path d="M 57.6 41.472 
L 414.72 41.472 
" style="fill:none;stroke:#000000;stroke-linecap:square;stroke-linejoin:miter;stroke-width:0.8;"/>
   </g>
  </g>
 </g>
 <defs>
  <clipPath id="p32046f14bf">
   <rect height="266.112" width="357.12" x="57.6" y="41.472"/>
  </clipPath>
 </defs>
</svg>
