<?xml version="1.0" encoding="utf-8" standalone="no"?>
<!DOCTYPE svg PUBLIC "-//W3C//DTD SVG 1.1//EN"
  "http://www.w3.org/Graphics/SVG/1.1/DTD/svg11.dtd">
<!-- Created with matplotlib (https://matplotlib.org/) -->
<svg height="345.6pt" version="1.1" viewBox="0 0 460.8 345.6" width="460.8pt" xmlns="http://www.w3.org/2000/svg" xmlns:xlink="http://www.w3.org/1999/xlink">
 <defs>
  <style type="text/css">
*{stroke-linecap:butt;stroke-linejoin:round;}
  </style>
 </defs>
 <g id="figure_1">
  <g id="patch_1">
   <path d="M 0 345.6 
L 460.8 345.6 
L 460.8 0 
L 0 0 
z
" style="fill:#ffffff;"/>
  </g>
  <g id="axes_1">
   <g id="patch_2">
    <path d="M 57.6 307.584 
L 414.72 307.584 
L 414.72 41.472 
L 57.6 41.472 
z
" style="fill:#ffffff;"/>
   </g>
   <g id="line2d_1">
    <path clip-path="url(#pa53e2eab30)" d="M 73.832727 135.465125 
L 75.30843 176.778055 
L 79.735537 176.778055 
L 81.21124 217.218137 
L 82.686942 217.218137 
L 85.638347 295.488 
L 87.11405 295.488 
L 88.589752 250.746844 
L 91.541157 250.746844 
L 93.01686 206.133858 
L 97.443967 206.133858 
L 98.919669 160.89117 
L 106.298182 160.888268 
L 107.773884 198.343907 
L 109.249587 198.343907 
L 110.725289 195.387012 
L 112.200992 195.387012 
L 113.676694 207.455003 
L 115.152397 207.455003 
L 116.628099 221.063456 
L 118.103802 221.063456 
L 119.579504 206.686491 
L 122.530909 206.686491 
L 124.006612 219.296364 
L 125.482314 219.296364 
L 126.958017 205.227746 
L 128.433719 205.227746 
L 131.385124 230.316399 
L 134.336529 230.316399 
L 135.812231 216.28153 
L 137.287934 216.28153 
L 138.763636 229.808739 
L 140.239339 229.808739 
L 141.715041 215.41276 
L 143.190744 228.581974 
L 144.666446 228.581974 
L 146.142149 225.36606 
L 147.617851 225.36606 
L 150.569256 195.960935 
L 153.520661 195.960935 
L 154.996364 182.059362 
L 156.472066 182.059362 
L 157.947769 168.599051 
L 159.423471 168.599051 
L 160.899174 182.285698 
L 163.850579 182.285698 
L 165.326281 167.917386 
L 166.801983 167.917386 
L 168.277686 154.682378 
L 169.753388 154.682378 
L 171.229091 170.083642 
L 172.704793 155.820347 
L 175.656198 155.820347 
L 177.131901 141.855302 
L 178.607603 141.855302 
L 180.083306 144.904545 
L 181.559008 144.904545 
L 183.034711 143.296347 
L 184.510413 156.832799 
L 187.461818 156.832799 
L 188.937521 142.768723 
L 190.413223 142.768723 
L 191.888926 144.901959 
L 193.364628 149.282884 
L 197.791736 149.282884 
L 199.267438 134.455092 
L 200.74314 134.455092 
L 203.694545 109.201343 
L 205.170248 109.201343 
L 206.64595 97.223092 
L 209.597355 97.223092 
L 211.073058 84.091884 
L 212.54876 84.091884 
L 214.024463 70.9701 
L 215.500165 70.9701 
L 216.975868 58.91269 
L 218.45157 58.91269 
L 219.927273 72.206654 
L 221.402975 72.206654 
L 222.878678 70.644898 
L 225.830083 70.644898 
L 227.305785 83.893595 
L 231.732893 83.893595 
L 233.208595 69.646887 
L 234.684298 69.646887 
L 236.16 83.58269 
L 237.635702 83.58269 
L 239.111405 96.658674 
L 250.917025 96.658674 
L 252.392727 110.540844 
L 253.86843 125.724123 
L 256.819835 125.724123 
L 258.295537 123.651638 
L 259.77124 123.651638 
L 261.246942 111.770852 
L 262.722645 111.770852 
L 264.198347 125.418559 
L 267.149752 125.418559 
L 268.625455 139.906811 
L 270.101157 139.906811 
L 271.57686 152.433539 
L 273.052562 152.433539 
L 274.528264 137.46574 
L 276.003967 137.46574 
L 277.479669 151.201245 
L 278.955372 151.201245 
L 280.431074 149.771468 
L 281.906777 149.771468 
L 283.382479 162.610845 
L 287.809587 162.610845 
L 289.285289 148.646623 
L 290.760992 148.646623 
L 292.236694 149.595789 
L 293.712397 137.078191 
L 295.188099 137.078191 
L 296.663802 124.213054 
L 299.615207 124.213054 
L 301.090909 109.109074 
L 304.042314 109.109074 
L 305.518017 96.595259 
L 306.993719 109.449228 
L 312.896529 109.449228 
L 314.372231 95.581495 
L 315.847934 95.581495 
L 317.323636 82.805631 
L 318.799339 67.945074 
L 321.750744 67.945074 
L 323.226446 53.568 
L 324.702149 53.568 
L 326.177851 59.294618 
L 327.653554 59.294618 
L 329.129256 73.021212 
L 330.604959 73.021212 
L 332.080661 86.909661 
L 333.556364 86.909661 
L 335.032066 100.986319 
L 336.507769 103.022641 
L 337.983471 103.022641 
L 339.459174 90.301541 
L 342.410579 90.301541 
L 343.886281 104.730069 
L 345.361983 104.730069 
L 346.837686 120.821275 
L 398.487273 120.821275 
L 398.487273 120.821275 
" style="fill:none;stroke:#ff0000;stroke-linecap:square;stroke-width:12;"/>
    <defs>
     <path d="M 0 3 
C 0.795609 3 1.55874 2.683901 2.12132 2.12132 
C 2.683901 1.55874 3 0.795609 3 0 
C 3 -0.795609 2.683901 -1.55874 2.12132 -2.12132 
C 1.55874 -2.683901 0.795609 -3 0 -3 
C -0.795609 -3 -1.55874 -2.683901 -2.12132 -2.12132 
C -2.683901 -1.55874 -3 -0.795609 -3 0 
C -3 0.795609 -2.683901 1.55874 -2.12132 2.12132 
C -1.55874 2.683901 -0.795609 3 0 3 
z
" id="mb32335e75f" style="stroke:#ff0000;"/>
    </defs>
    <g clip-path="url(#pa53e2eab30)">
     <use style="fill:#ff0000;stroke:#ff0000;" x="73.832727" xlink:href="#mb32335e75f" y="135.465125"/>
     <use style="fill:#ff0000;stroke:#ff0000;" x="75.30843" xlink:href="#mb32335e75f" y="176.778055"/>
     <use style="fill:#ff0000;stroke:#ff0000;" x="76.784132" xlink:href="#mb32335e75f" y="176.778055"/>
     <use style="fill:#ff0000;stroke:#ff0000;" x="78.259835" xlink:href="#mb32335e75f" y="176.778055"/>
     <use style="fill:#ff0000;stroke:#ff0000;" x="79.735537" xlink:href="#mb32335e75f" y="176.778055"/>
     <use style="fill:#ff0000;stroke:#ff0000;" x="81.21124" xlink:href="#mb32335e75f" y="217.218137"/>
     <use style="fill:#ff0000;stroke:#ff0000;" x="82.686942" xlink:href="#mb32335e75f" y="217.218137"/>
     <use style="fill:#ff0000;stroke:#ff0000;" x="84.162645" xlink:href="#mb32335e75f" y="256.074985"/>
     <use style="fill:#ff0000;stroke:#ff0000;" x="85.638347" xlink:href="#mb32335e75f" y="295.488"/>
     <use style="fill:#ff0000;stroke:#ff0000;" x="87.11405" xlink:href="#mb32335e75f" y="295.488"/>
     <use style="fill:#ff0000;stroke:#ff0000;" x="88.589752" xlink:href="#mb32335e75f" y="250.746844"/>
     <use style="fill:#ff0000;stroke:#ff0000;" x="90.065455" xlink:href="#mb32335e75f" y="250.746844"/>
     <use style="fill:#ff0000;stroke:#ff0000;" x="91.541157" xlink:href="#mb32335e75f" y="250.746844"/>
     <use style="fill:#ff0000;stroke:#ff0000;" x="93.01686" xlink:href="#mb32335e75f" y="206.133858"/>
     <use style="fill:#ff0000;stroke:#ff0000;" x="94.492562" xlink:href="#mb32335e75f" y="206.133858"/>
     <use style="fill:#ff0000;stroke:#ff0000;" x="95.968264" xlink:href="#mb32335e75f" y="206.133858"/>
     <use style="fill:#ff0000;stroke:#ff0000;" x="97.443967" xlink:href="#mb32335e75f" y="206.133858"/>
     <use style="fill:#ff0000;stroke:#ff0000;" x="98.919669" xlink:href="#mb32335e75f" y="160.89117"/>
     <use style="fill:#ff0000;stroke:#ff0000;" x="100.395372" xlink:href="#mb32335e75f" y="160.89117"/>
     <use style="fill:#ff0000;stroke:#ff0000;" x="101.871074" xlink:href="#mb32335e75f" y="160.89117"/>
     <use style="fill:#ff0000;stroke:#ff0000;" x="103.346777" xlink:href="#mb32335e75f" y="160.89117"/>
     <use style="fill:#ff0000;stroke:#ff0000;" x="104.822479" xlink:href="#mb32335e75f" y="160.888268"/>
     <use style="fill:#ff0000;stroke:#ff0000;" x="106.298182" xlink:href="#mb32335e75f" y="160.888268"/>
     <use style="fill:#ff0000;stroke:#ff0000;" x="107.773884" xlink:href="#mb32335e75f" y="198.343907"/>
     <use style="fill:#ff0000;stroke:#ff0000;" x="109.249587" xlink:href="#mb32335e75f" y="198.343907"/>
     <use style="fill:#ff0000;stroke:#ff0000;" x="110.725289" xlink:href="#mb32335e75f" y="195.387012"/>
     <use style="fill:#ff0000;stroke:#ff0000;" x="112.200992" xlink:href="#mb32335e75f" y="195.387012"/>
     <use style="fill:#ff0000;stroke:#ff0000;" x="113.676694" xlink:href="#mb32335e75f" y="207.455003"/>
     <use style="fill:#ff0000;stroke:#ff0000;" x="115.152397" xlink:href="#mb32335e75f" y="207.455003"/>
     <use style="fill:#ff0000;stroke:#ff0000;" x="116.628099" xlink:href="#mb32335e75f" y="221.063456"/>
     <use style="fill:#ff0000;stroke:#ff0000;" x="118.103802" xlink:href="#mb32335e75f" y="221.063456"/>
     <use style="fill:#ff0000;stroke:#ff0000;" x="119.579504" xlink:href="#mb32335e75f" y="206.686491"/>
     <use style="fill:#ff0000;stroke:#ff0000;" x="121.055207" xlink:href="#mb32335e75f" y="206.686491"/>
     <use style="fill:#ff0000;stroke:#ff0000;" x="122.530909" xlink:href="#mb32335e75f" y="206.686491"/>
     <use style="fill:#ff0000;stroke:#ff0000;" x="124.006612" xlink:href="#mb32335e75f" y="219.296364"/>
     <use style="fill:#ff0000;stroke:#ff0000;" x="125.482314" xlink:href="#mb32335e75f" y="219.296364"/>
     <use style="fill:#ff0000;stroke:#ff0000;" x="126.958017" xlink:href="#mb32335e75f" y="205.227746"/>
     <use style="fill:#ff0000;stroke:#ff0000;" x="128.433719" xlink:href="#mb32335e75f" y="205.227746"/>
     <use style="fill:#ff0000;stroke:#ff0000;" x="129.909421" xlink:href="#mb32335e75f" y="218.007514"/>
     <use style="fill:#ff0000;stroke:#ff0000;" x="131.385124" xlink:href="#mb32335e75f" y="230.316399"/>
     <use style="fill:#ff0000;stroke:#ff0000;" x="132.860826" xlink:href="#mb32335e75f" y="230.316399"/>
     <use style="fill:#ff0000;stroke:#ff0000;" x="134.336529" xlink:href="#mb32335e75f" y="230.316399"/>
     <use style="fill:#ff0000;stroke:#ff0000;" x="135.812231" xlink:href="#mb32335e75f" y="216.28153"/>
     <use style="fill:#ff0000;stroke:#ff0000;" x="137.287934" xlink:href="#mb32335e75f" y="216.28153"/>
     <use style="fill:#ff0000;stroke:#ff0000;" x="138.763636" xlink:href="#mb32335e75f" y="229.808739"/>
     <use style="fill:#ff0000;stroke:#ff0000;" x="140.239339" xlink:href="#mb32335e75f" y="229.808739"/>
     <use style="fill:#ff0000;stroke:#ff0000;" x="141.715041" xlink:href="#mb32335e75f" y="215.41276"/>
     <use style="fill:#ff0000;stroke:#ff0000;" x="143.190744" xlink:href="#mb32335e75f" y="228.581974"/>
     <use style="fill:#ff0000;stroke:#ff0000;" x="144.666446" xlink:href="#mb32335e75f" y="228.581974"/>
     <use style="fill:#ff0000;stroke:#ff0000;" x="146.142149" xlink:href="#mb32335e75f" y="225.36606"/>
     <use style="fill:#ff0000;stroke:#ff0000;" x="147.617851" xlink:href="#mb32335e75f" y="225.36606"/>
     <use style="fill:#ff0000;stroke:#ff0000;" x="149.093554" xlink:href="#mb32335e75f" y="210.723207"/>
     <use style="fill:#ff0000;stroke:#ff0000;" x="150.569256" xlink:href="#mb32335e75f" y="195.960935"/>
     <use style="fill:#ff0000;stroke:#ff0000;" x="152.044959" xlink:href="#mb32335e75f" y="195.960935"/>
     <use style="fill:#ff0000;stroke:#ff0000;" x="153.520661" xlink:href="#mb32335e75f" y="195.960935"/>
     <use style="fill:#ff0000;stroke:#ff0000;" x="154.996364" xlink:href="#mb32335e75f" y="182.059362"/>
     <use style="fill:#ff0000;stroke:#ff0000;" x="156.472066" xlink:href="#mb32335e75f" y="182.059362"/>
     <use style="fill:#ff0000;stroke:#ff0000;" x="157.947769" xlink:href="#mb32335e75f" y="168.599051"/>
     <use style="fill:#ff0000;stroke:#ff0000;" x="159.423471" xlink:href="#mb32335e75f" y="168.599051"/>
     <use style="fill:#ff0000;stroke:#ff0000;" x="160.899174" xlink:href="#mb32335e75f" y="182.285698"/>
     <use style="fill:#ff0000;stroke:#ff0000;" x="162.374876" xlink:href="#mb32335e75f" y="182.285698"/>
     <use style="fill:#ff0000;stroke:#ff0000;" x="163.850579" xlink:href="#mb32335e75f" y="182.285698"/>
     <use style="fill:#ff0000;stroke:#ff0000;" x="165.326281" xlink:href="#mb32335e75f" y="167.917386"/>
     <use style="fill:#ff0000;stroke:#ff0000;" x="166.801983" xlink:href="#mb32335e75f" y="167.917386"/>
     <use style="fill:#ff0000;stroke:#ff0000;" x="168.277686" xlink:href="#mb32335e75f" y="154.682378"/>
     <use style="fill:#ff0000;stroke:#ff0000;" x="169.753388" xlink:href="#mb32335e75f" y="154.682378"/>
     <use style="fill:#ff0000;stroke:#ff0000;" x="171.229091" xlink:href="#mb32335e75f" y="170.083642"/>
     <use style="fill:#ff0000;stroke:#ff0000;" x="172.704793" xlink:href="#mb32335e75f" y="155.820347"/>
     <use style="fill:#ff0000;stroke:#ff0000;" x="174.180496" xlink:href="#mb32335e75f" y="155.820347"/>
     <use style="fill:#ff0000;stroke:#ff0000;" x="175.656198" xlink:href="#mb32335e75f" y="155.820347"/>
     <use style="fill:#ff0000;stroke:#ff0000;" x="177.131901" xlink:href="#mb32335e75f" y="141.855302"/>
     <use style="fill:#ff0000;stroke:#ff0000;" x="178.607603" xlink:href="#mb32335e75f" y="141.855302"/>
     <use style="fill:#ff0000;stroke:#ff0000;" x="180.083306" xlink:href="#mb32335e75f" y="144.904545"/>
     <use style="fill:#ff0000;stroke:#ff0000;" x="181.559008" xlink:href="#mb32335e75f" y="144.904545"/>
     <use style="fill:#ff0000;stroke:#ff0000;" x="183.034711" xlink:href="#mb32335e75f" y="143.296347"/>
     <use style="fill:#ff0000;stroke:#ff0000;" x="184.510413" xlink:href="#mb32335e75f" y="156.832799"/>
     <use style="fill:#ff0000;stroke:#ff0000;" x="185.986116" xlink:href="#mb32335e75f" y="156.832799"/>
     <use style="fill:#ff0000;stroke:#ff0000;" x="187.461818" xlink:href="#mb32335e75f" y="156.832799"/>
     <use style="fill:#ff0000;stroke:#ff0000;" x="188.937521" xlink:href="#mb32335e75f" y="142.768723"/>
     <use style="fill:#ff0000;stroke:#ff0000;" x="190.413223" xlink:href="#mb32335e75f" y="142.768723"/>
     <use style="fill:#ff0000;stroke:#ff0000;" x="191.888926" xlink:href="#mb32335e75f" y="144.901959"/>
     <use style="fill:#ff0000;stroke:#ff0000;" x="193.364628" xlink:href="#mb32335e75f" y="149.282884"/>
     <use style="fill:#ff0000;stroke:#ff0000;" x="194.840331" xlink:href="#mb32335e75f" y="149.282884"/>
     <use style="fill:#ff0000;stroke:#ff0000;" x="196.316033" xlink:href="#mb32335e75f" y="149.282884"/>
     <use style="fill:#ff0000;stroke:#ff0000;" x="197.791736" xlink:href="#mb32335e75f" y="149.282884"/>
     <use style="fill:#ff0000;stroke:#ff0000;" x="199.267438" xlink:href="#mb32335e75f" y="134.455092"/>
     <use style="fill:#ff0000;stroke:#ff0000;" x="200.74314" xlink:href="#mb32335e75f" y="134.455092"/>
     <use style="fill:#ff0000;stroke:#ff0000;" x="202.218843" xlink:href="#mb32335e75f" y="122.24817"/>
     <use style="fill:#ff0000;stroke:#ff0000;" x="203.694545" xlink:href="#mb32335e75f" y="109.201343"/>
     <use style="fill:#ff0000;stroke:#ff0000;" x="205.170248" xlink:href="#mb32335e75f" y="109.201343"/>
     <use style="fill:#ff0000;stroke:#ff0000;" x="206.64595" xlink:href="#mb32335e75f" y="97.223092"/>
     <use style="fill:#ff0000;stroke:#ff0000;" x="208.121653" xlink:href="#mb32335e75f" y="97.223092"/>
     <use style="fill:#ff0000;stroke:#ff0000;" x="209.597355" xlink:href="#mb32335e75f" y="97.223092"/>
     <use style="fill:#ff0000;stroke:#ff0000;" x="211.073058" xlink:href="#mb32335e75f" y="84.091884"/>
     <use style="fill:#ff0000;stroke:#ff0000;" x="212.54876" xlink:href="#mb32335e75f" y="84.091884"/>
     <use style="fill:#ff0000;stroke:#ff0000;" x="214.024463" xlink:href="#mb32335e75f" y="70.9701"/>
     <use style="fill:#ff0000;stroke:#ff0000;" x="215.500165" xlink:href="#mb32335e75f" y="70.9701"/>
     <use style="fill:#ff0000;stroke:#ff0000;" x="216.975868" xlink:href="#mb32335e75f" y="58.91269"/>
     <use style="fill:#ff0000;stroke:#ff0000;" x="218.45157" xlink:href="#mb32335e75f" y="58.91269"/>
     <use style="fill:#ff0000;stroke:#ff0000;" x="219.927273" xlink:href="#mb32335e75f" y="72.206654"/>
     <use style="fill:#ff0000;stroke:#ff0000;" x="221.402975" xlink:href="#mb32335e75f" y="72.206654"/>
     <use style="fill:#ff0000;stroke:#ff0000;" x="222.878678" xlink:href="#mb32335e75f" y="70.644898"/>
     <use style="fill:#ff0000;stroke:#ff0000;" x="224.35438" xlink:href="#mb32335e75f" y="70.644898"/>
     <use style="fill:#ff0000;stroke:#ff0000;" x="225.830083" xlink:href="#mb32335e75f" y="70.644898"/>
     <use style="fill:#ff0000;stroke:#ff0000;" x="227.305785" xlink:href="#mb32335e75f" y="83.893595"/>
     <use style="fill:#ff0000;stroke:#ff0000;" x="228.781488" xlink:href="#mb32335e75f" y="83.893595"/>
     <use style="fill:#ff0000;stroke:#ff0000;" x="230.25719" xlink:href="#mb32335e75f" y="83.893595"/>
     <use style="fill:#ff0000;stroke:#ff0000;" x="231.732893" xlink:href="#mb32335e75f" y="83.893595"/>
     <use style="fill:#ff0000;stroke:#ff0000;" x="233.208595" xlink:href="#mb32335e75f" y="69.646887"/>
     <use style="fill:#ff0000;stroke:#ff0000;" x="234.684298" xlink:href="#mb32335e75f" y="69.646887"/>
     <use style="fill:#ff0000;stroke:#ff0000;" x="236.16" xlink:href="#mb32335e75f" y="83.58269"/>
     <use style="fill:#ff0000;stroke:#ff0000;" x="237.635702" xlink:href="#mb32335e75f" y="83.58269"/>
     <use style="fill:#ff0000;stroke:#ff0000;" x="239.111405" xlink:href="#mb32335e75f" y="96.658674"/>
     <use style="fill:#ff0000;stroke:#ff0000;" x="240.587107" xlink:href="#mb32335e75f" y="96.658674"/>
     <use style="fill:#ff0000;stroke:#ff0000;" x="242.06281" xlink:href="#mb32335e75f" y="96.658674"/>
     <use style="fill:#ff0000;stroke:#ff0000;" x="243.538512" xlink:href="#mb32335e75f" y="96.658674"/>
     <use style="fill:#ff0000;stroke:#ff0000;" x="245.014215" xlink:href="#mb32335e75f" y="96.658674"/>
     <use style="fill:#ff0000;stroke:#ff0000;" x="246.489917" xlink:href="#mb32335e75f" y="96.658674"/>
     <use style="fill:#ff0000;stroke:#ff0000;" x="247.96562" xlink:href="#mb32335e75f" y="96.658674"/>
     <use style="fill:#ff0000;stroke:#ff0000;" x="249.441322" xlink:href="#mb32335e75f" y="96.658674"/>
     <use style="fill:#ff0000;stroke:#ff0000;" x="250.917025" xlink:href="#mb32335e75f" y="96.658674"/>
     <use style="fill:#ff0000;stroke:#ff0000;" x="252.392727" xlink:href="#mb32335e75f" y="110.540844"/>
     <use style="fill:#ff0000;stroke:#ff0000;" x="253.86843" xlink:href="#mb32335e75f" y="125.724123"/>
     <use style="fill:#ff0000;stroke:#ff0000;" x="255.344132" xlink:href="#mb32335e75f" y="125.724123"/>
     <use style="fill:#ff0000;stroke:#ff0000;" x="256.819835" xlink:href="#mb32335e75f" y="125.724123"/>
     <use style="fill:#ff0000;stroke:#ff0000;" x="258.295537" xlink:href="#mb32335e75f" y="123.651638"/>
     <use style="fill:#ff0000;stroke:#ff0000;" x="259.77124" xlink:href="#mb32335e75f" y="123.651638"/>
     <use style="fill:#ff0000;stroke:#ff0000;" x="261.246942" xlink:href="#mb32335e75f" y="111.770852"/>
     <use style="fill:#ff0000;stroke:#ff0000;" x="262.722645" xlink:href="#mb32335e75f" y="111.770852"/>
     <use style="fill:#ff0000;stroke:#ff0000;" x="264.198347" xlink:href="#mb32335e75f" y="125.418559"/>
     <use style="fill:#ff0000;stroke:#ff0000;" x="265.67405" xlink:href="#mb32335e75f" y="125.418559"/>
     <use style="fill:#ff0000;stroke:#ff0000;" x="267.149752" xlink:href="#mb32335e75f" y="125.418559"/>
     <use style="fill:#ff0000;stroke:#ff0000;" x="268.625455" xlink:href="#mb32335e75f" y="139.906811"/>
     <use style="fill:#ff0000;stroke:#ff0000;" x="270.101157" xlink:href="#mb32335e75f" y="139.906811"/>
     <use style="fill:#ff0000;stroke:#ff0000;" x="271.57686" xlink:href="#mb32335e75f" y="152.433539"/>
     <use style="fill:#ff0000;stroke:#ff0000;" x="273.052562" xlink:href="#mb32335e75f" y="152.433539"/>
     <use style="fill:#ff0000;stroke:#ff0000;" x="274.528264" xlink:href="#mb32335e75f" y="137.46574"/>
     <use style="fill:#ff0000;stroke:#ff0000;" x="276.003967" xlink:href="#mb32335e75f" y="137.46574"/>
     <use style="fill:#ff0000;stroke:#ff0000;" x="277.479669" xlink:href="#mb32335e75f" y="151.201245"/>
     <use style="fill:#ff0000;stroke:#ff0000;" x="278.955372" xlink:href="#mb32335e75f" y="151.201245"/>
     <use style="fill:#ff0000;stroke:#ff0000;" x="280.431074" xlink:href="#mb32335e75f" y="149.771468"/>
     <use style="fill:#ff0000;stroke:#ff0000;" x="281.906777" xlink:href="#mb32335e75f" y="149.771468"/>
     <use style="fill:#ff0000;stroke:#ff0000;" x="283.382479" xlink:href="#mb32335e75f" y="162.610845"/>
     <use style="fill:#ff0000;stroke:#ff0000;" x="284.858182" xlink:href="#mb32335e75f" y="162.610845"/>
     <use style="fill:#ff0000;stroke:#ff0000;" x="286.333884" xlink:href="#mb32335e75f" y="162.610845"/>
     <use style="fill:#ff0000;stroke:#ff0000;" x="287.809587" xlink:href="#mb32335e75f" y="162.610845"/>
     <use style="fill:#ff0000;stroke:#ff0000;" x="289.285289" xlink:href="#mb32335e75f" y="148.646623"/>
     <use style="fill:#ff0000;stroke:#ff0000;" x="290.760992" xlink:href="#mb32335e75f" y="148.646623"/>
     <use style="fill:#ff0000;stroke:#ff0000;" x="292.236694" xlink:href="#mb32335e75f" y="149.595789"/>
     <use style="fill:#ff0000;stroke:#ff0000;" x="293.712397" xlink:href="#mb32335e75f" y="137.078191"/>
     <use style="fill:#ff0000;stroke:#ff0000;" x="295.188099" xlink:href="#mb32335e75f" y="137.078191"/>
     <use style="fill:#ff0000;stroke:#ff0000;" x="296.663802" xlink:href="#mb32335e75f" y="124.213054"/>
     <use style="fill:#ff0000;stroke:#ff0000;" x="298.139504" xlink:href="#mb32335e75f" y="124.213054"/>
     <use style="fill:#ff0000;stroke:#ff0000;" x="299.615207" xlink:href="#mb32335e75f" y="124.213054"/>
     <use style="fill:#ff0000;stroke:#ff0000;" x="301.090909" xlink:href="#mb32335e75f" y="109.109074"/>
     <use style="fill:#ff0000;stroke:#ff0000;" x="302.566612" xlink:href="#mb32335e75f" y="109.109074"/>
     <use style="fill:#ff0000;stroke:#ff0000;" x="304.042314" xlink:href="#mb32335e75f" y="109.109074"/>
     <use style="fill:#ff0000;stroke:#ff0000;" x="305.518017" xlink:href="#mb32335e75f" y="96.595259"/>
     <use style="fill:#ff0000;stroke:#ff0000;" x="306.993719" xlink:href="#mb32335e75f" y="109.449228"/>
     <use style="fill:#ff0000;stroke:#ff0000;" x="308.469421" xlink:href="#mb32335e75f" y="109.449228"/>
     <use style="fill:#ff0000;stroke:#ff0000;" x="309.945124" xlink:href="#mb32335e75f" y="109.449228"/>
     <use style="fill:#ff0000;stroke:#ff0000;" x="311.420826" xlink:href="#mb32335e75f" y="109.449228"/>
     <use style="fill:#ff0000;stroke:#ff0000;" x="312.896529" xlink:href="#mb32335e75f" y="109.449228"/>
     <use style="fill:#ff0000;stroke:#ff0000;" x="314.372231" xlink:href="#mb32335e75f" y="95.581495"/>
     <use style="fill:#ff0000;stroke:#ff0000;" x="315.847934" xlink:href="#mb32335e75f" y="95.581495"/>
     <use style="fill:#ff0000;stroke:#ff0000;" x="317.323636" xlink:href="#mb32335e75f" y="82.805631"/>
     <use style="fill:#ff0000;stroke:#ff0000;" x="318.799339" xlink:href="#mb32335e75f" y="67.945074"/>
     <use style="fill:#ff0000;stroke:#ff0000;" x="320.275041" xlink:href="#mb32335e75f" y="67.945074"/>
     <use style="fill:#ff0000;stroke:#ff0000;" x="321.750744" xlink:href="#mb32335e75f" y="67.945074"/>
     <use style="fill:#ff0000;stroke:#ff0000;" x="323.226446" xlink:href="#mb32335e75f" y="53.568"/>
     <use style="fill:#ff0000;stroke:#ff0000;" x="324.702149" xlink:href="#mb32335e75f" y="53.568"/>
     <use style="fill:#ff0000;stroke:#ff0000;" x="326.177851" xlink:href="#mb32335e75f" y="59.294618"/>
     <use style="fill:#ff0000;stroke:#ff0000;" x="327.653554" xlink:href="#mb32335e75f" y="59.294618"/>
     <use style="fill:#ff0000;stroke:#ff0000;" x="329.129256" xlink:href="#mb32335e75f" y="73.021212"/>
     <use style="fill:#ff0000;stroke:#ff0000;" x="330.604959" xlink:href="#mb32335e75f" y="73.021212"/>
     <use style="fill:#ff0000;stroke:#ff0000;" x="332.080661" xlink:href="#mb32335e75f" y="86.909661"/>
     <use style="fill:#ff0000;stroke:#ff0000;" x="333.556364" xlink:href="#mb32335e75f" y="86.909661"/>
     <use style="fill:#ff0000;stroke:#ff0000;" x="335.032066" xlink:href="#mb32335e75f" y="100.986319"/>
     <use style="fill:#ff0000;stroke:#ff0000;" x="336.507769" xlink:href="#mb32335e75f" y="103.022641"/>
     <use style="fill:#ff0000;stroke:#ff0000;" x="337.983471" xlink:href="#mb32335e75f" y="103.022641"/>
     <use style="fill:#ff0000;stroke:#ff0000;" x="339.459174" xlink:href="#mb32335e75f" y="90.301541"/>
     <use style="fill:#ff0000;stroke:#ff0000;" x="340.934876" xlink:href="#mb32335e75f" y="90.301541"/>
     <use style="fill:#ff0000;stroke:#ff0000;" x="342.410579" xlink:href="#mb32335e75f" y="90.301541"/>
     <use style="fill:#ff0000;stroke:#ff0000;" x="343.886281" xlink:href="#mb32335e75f" y="104.730069"/>
     <use style="fill:#ff0000;stroke:#ff0000;" x="345.361983" xlink:href="#mb32335e75f" y="104.730069"/>
     <use style="fill:#ff0000;stroke:#ff0000;" x="346.837686" xlink:href="#mb32335e75f" y="120.821275"/>
     <use style="fill:#ff0000;stroke:#ff0000;" x="348.313388" xlink:href="#mb32335e75f" y="120.821275"/>
     <use style="fill:#ff0000;stroke:#ff0000;" x="349.789091" xlink:href="#mb32335e75f" y="120.821275"/>
     <use style="fill:#ff0000;stroke:#ff0000;" x="351.264793" xlink:href="#mb32335e75f" y="120.821275"/>
     <use style="fill:#ff0000;stroke:#ff0000;" x="352.740496" xlink:href="#mb32335e75f" y="120.821275"/>
     <use style="fill:#ff0000;stroke:#ff0000;" x="354.216198" xlink:href="#mb32335e75f" y="120.821275"/>
     <use style="fill:#ff0000;stroke:#ff0000;" x="355.691901" xlink:href="#mb32335e75f" y="120.821275"/>
     <use style="fill:#ff0000;stroke:#ff0000;" x="357.167603" xlink:href="#mb32335e75f" y="120.821275"/>
     <use style="fill:#ff0000;stroke:#ff0000;" x="358.643306" xlink:href="#mb32335e75f" y="120.821275"/>
     <use style="fill:#ff0000;stroke:#ff0000;" x="360.119008" xlink:href="#mb32335e75f" y="120.821275"/>
     <use style="fill:#ff0000;stroke:#ff0000;" x="361.594711" xlink:href="#mb32335e75f" y="120.821275"/>
     <use style="fill:#ff0000;stroke:#ff0000;" x="363.070413" xlink:href="#mb32335e75f" y="120.821275"/>
     <use style="fill:#ff0000;stroke:#ff0000;" x="364.546116" xlink:href="#mb32335e75f" y="120.821275"/>
     <use style="fill:#ff0000;stroke:#ff0000;" x="366.021818" xlink:href="#mb32335e75f" y="120.821275"/>
     <use style="fill:#ff0000;stroke:#ff0000;" x="367.497521" xlink:href="#mb32335e75f" y="120.821275"/>
     <use style="fill:#ff0000;stroke:#ff0000;" x="368.973223" xlink:href="#mb32335e75f" y="120.821275"/>
     <use style="fill:#ff0000;stroke:#ff0000;" x="370.448926" xlink:href="#mb32335e75f" y="120.821275"/>
     <use style="fill:#ff0000;stroke:#ff0000;" x="371.924628" xlink:href="#mb32335e75f" y="120.821275"/>
     <use style="fill:#ff0000;stroke:#ff0000;" x="373.400331" xlink:href="#mb32335e75f" y="120.821275"/>
     <use style="fill:#ff0000;stroke:#ff0000;" x="374.876033" xlink:href="#mb32335e75f" y="120.821275"/>
     <use style="fill:#ff0000;stroke:#ff0000;" x="376.351736" xlink:href="#mb32335e75f" y="120.821275"/>
     <use style="fill:#ff0000;stroke:#ff0000;" x="377.827438" xlink:href="#mb32335e75f" y="120.821275"/>
     <use style="fill:#ff0000;stroke:#ff0000;" x="379.30314" xlink:href="#mb32335e75f" y="120.821275"/>
     <use style="fill:#ff0000;stroke:#ff0000;" x="380.778843" xlink:href="#mb32335e75f" y="120.821275"/>
     <use style="fill:#ff0000;stroke:#ff0000;" x="382.254545" xlink:href="#mb32335e75f" y="120.821275"/>
     <use style="fill:#ff0000;stroke:#ff0000;" x="383.730248" xlink:href="#mb32335e75f" y="120.821275"/>
     <use style="fill:#ff0000;stroke:#ff0000;" x="385.20595" xlink:href="#mb32335e75f" y="120.821275"/>
     <use style="fill:#ff0000;stroke:#ff0000;" x="386.681653" xlink:href="#mb32335e75f" y="120.821275"/>
     <use style="fill:#ff0000;stroke:#ff0000;" x="388.157355" xlink:href="#mb32335e75f" y="120.821275"/>
     <use style="fill:#ff0000;stroke:#ff0000;" x="389.633058" xlink:href="#mb32335e75f" y="120.821275"/>
     <use style="fill:#ff0000;stroke:#ff0000;" x="391.10876" xlink:href="#mb32335e75f" y="120.821275"/>
     <use style="fill:#ff0000;stroke:#ff0000;" x="392.584463" xlink:href="#mb32335e75f" y="120.821275"/>
     <use style="fill:#ff0000;stroke:#ff0000;" x="394.060165" xlink:href="#mb32335e75f" y="120.821275"/>
     <use style="fill:#ff0000;stroke:#ff0000;" x="395.535868" xlink:href="#mb32335e75f" y="120.821275"/>
     <use style="fill:#ff0000;stroke:#ff0000;" x="397.01157" xlink:href="#mb32335e75f" y="120.821275"/>
     <use style="fill:#ff0000;stroke:#ff0000;" x="398.487273" xlink:href="#mb32335e75f" y="120.821275"/>
    </g>
   </g>
   <g id="patch_3">
    <path d="M 57.6 307.584 
L 57.6 41.472 
" style="fill:none;stroke:#000000;stroke-linecap:square;stroke-linejoin:miter;stroke-width:0.8;"/>
   </g>
   <g id="patch_4">
    <path d="M 414.72 307.584 
L 414.72 41.472 
" style="fill:none;stroke:#000000;stroke-linecap:square;stroke-linejoin:miter;stroke-width:0.8;"/>
   </g>
   <g id="patch_5">
    <path d="M 57.6 307.584 
L 414.72 307.584 
" style="fill:none;stroke:#000000;stroke-linecap:square;stroke-linejoin:miter;stroke-width:0.8;"/>
   </g>
   <g id="patch_6">
    <path d="M 57.6 41.472 
L 414.72 41.472 
" style="fill:none;stroke:#000000;stroke-linecap:square;stroke-linejoin:miter;stroke-width:0.8;"/>
   </g>
  </g>
 </g>
 <defs>
  <clipPath id="pa53e2eab30">
   <rect height="266.112" width="357.12" x="57.6" y="41.472"/>
  </clipPath>
 </defs>
</svg>
