<?xml version="1.0" encoding="utf-8" standalone="no"?>
<!DOCTYPE svg PUBLIC "-//W3C//DTD SVG 1.1//EN"
  "http://www.w3.org/Graphics/SVG/1.1/DTD/svg11.dtd">
<!-- Created with matplotlib (https://matplotlib.org/) -->
<svg height="345.6pt" version="1.1" viewBox="0 0 460.8 345.6" width="460.8pt" xmlns="http://www.w3.org/2000/svg" xmlns:xlink="http://www.w3.org/1999/xlink">
 <defs>
  <style type="text/css">
*{stroke-linecap:butt;stroke-linejoin:round;}
  </style>
 </defs>
 <g id="figure_1">
  <g id="patch_1">
   <path d="M 0 345.6 
L 460.8 345.6 
L 460.8 0 
L 0 0 
z
" style="fill:#ffffff;"/>
  </g>
  <g id="axes_1">
   <g id="patch_2">
    <path d="M 57.6 307.584 
L 414.72 307.584 
L 414.72 41.472 
L 57.6 41.472 
z
" style="fill:#ffffff;"/>
   </g>
   <g id="line2d_1">
    <path clip-path="url(#pe8f292407c)" d="M 73.832727 254.164889 
L 75.578182 242.537819 
L 77.323636 242.537819 
L 79.069091 295.488 
L 86.050909 295.488 
L 87.796364 245.428473 
L 89.541818 245.428473 
L 91.287273 245.858886 
L 94.778182 245.858886 
L 96.523636 255.405381 
L 98.269091 255.405381 
L 100.014545 199.101979 
L 106.996364 199.101979 
L 108.741818 191.333525 
L 110.487273 191.333525 
L 112.232727 139.873135 
L 113.978182 139.873135 
L 115.723636 90.949103 
L 119.214545 90.949103 
L 120.96 146.829501 
L 122.705455 146.829501 
L 124.450909 147.430655 
L 126.196364 147.430655 
L 127.941818 164.98855 
L 129.687273 164.98855 
L 131.432727 183.102797 
L 133.178182 183.102797 
L 134.923636 201.205725 
L 138.414545 201.205725 
L 140.16 184.250819 
L 143.650909 184.250819 
L 145.396364 202.465476 
L 147.141818 202.465476 
L 148.887273 218.916118 
L 150.632727 218.916118 
L 152.378182 237.052362 
L 154.123636 237.052362 
L 155.869091 239.904894 
L 157.614545 239.904894 
L 159.36 222.460471 
L 161.105455 222.460471 
L 162.850909 225.055989 
L 164.596364 207.237544 
L 168.087273 207.237544 
L 169.832727 189.113224 
L 171.578182 205.511276 
L 175.069091 205.511276 
L 176.814545 224.482727 
L 180.305455 224.482727 
L 182.050909 205.47035 
L 183.796364 205.47035 
L 185.541818 188.261333 
L 187.287273 188.261333 
L 189.032727 192.858713 
L 190.778182 192.858713 
L 192.523636 193.242068 
L 194.269091 193.242068 
L 196.014545 212.487181 
L 197.76 212.487181 
L 199.505455 194.305501 
L 201.250909 193.56918 
L 202.996364 193.56918 
L 204.741818 211.561234 
L 206.487273 211.561234 
L 209.978182 176.154874 
L 211.723636 176.154874 
L 213.469091 159.51204 
L 220.450909 159.51204 
L 222.196364 144.820642 
L 223.941818 144.820642 
L 225.687273 128.627976 
L 227.432727 128.627976 
L 229.178182 111.591042 
L 230.923636 111.591042 
L 232.669091 96.369452 
L 234.414545 96.369452 
L 236.16 78.854142 
L 237.905455 78.854142 
L 239.650909 98.555846 
L 241.396364 98.555846 
L 243.141818 83.645932 
L 246.632727 83.645932 
L 248.378182 68.11332 
L 250.123636 89.225791 
L 253.614545 89.225791 
L 255.36 106.370325 
L 258.850909 106.370325 
L 260.596364 104.655438 
L 262.341818 122.750564 
L 276.305455 122.750564 
L 278.050909 142.00757 
L 279.796364 142.00757 
L 281.541818 122.536447 
L 283.287273 122.536447 
L 285.032727 107.40524 
L 286.778182 124.73557 
L 290.269091 124.73557 
L 292.014545 142.935033 
L 293.76 142.935033 
L 295.505455 148.770361 
L 297.250909 148.770361 
L 298.996364 164.350185 
L 300.741818 164.350185 
L 302.487273 148.2717 
L 304.232727 148.2717 
L 305.978182 132.50237 
L 309.469091 132.50237 
L 311.214545 149.589649 
L 312.96 134.243483 
L 314.705455 134.243483 
L 316.450909 118.568003 
L 318.196364 118.568003 
L 319.941818 135.434303 
L 321.687273 135.434303 
L 323.432727 140.616293 
L 326.923636 140.616293 
L 328.669091 123.311414 
L 332.16 123.311414 
L 333.905455 128.293114 
L 335.650909 110.756333 
L 339.141818 110.756333 
L 340.887273 109.734979 
L 342.632727 109.734979 
L 344.378182 93.029376 
L 346.123636 93.029376 
L 347.869091 111.545313 
L 349.614545 92.845614 
L 351.36 92.845614 
L 353.105455 75.455243 
L 354.850909 75.455243 
L 356.596364 60.226581 
L 358.341818 60.226581 
L 360.087273 78.847185 
L 361.832727 84.123854 
L 363.578182 84.123854 
L 365.323636 84.238021 
L 370.56 84.33559 
L 372.305455 67.854029 
L 374.050909 67.854029 
L 375.796364 53.568 
L 381.032727 53.568 
L 382.778182 71.381406 
L 384.523636 71.381406 
L 386.269091 54.195594 
L 388.014545 54.195594 
L 389.76 75.60744 
L 391.505455 75.60744 
L 393.250909 61.743726 
L 394.996364 61.743726 
L 396.741818 68.637865 
L 398.487273 68.637865 
L 398.487273 68.637865 
" style="fill:none;stroke:#ff0000;stroke-linecap:square;stroke-width:12;"/>
    <defs>
     <path d="M 0 3 
C 0.795609 3 1.55874 2.683901 2.12132 2.12132 
C 2.683901 1.55874 3 0.795609 3 0 
C 3 -0.795609 2.683901 -1.55874 2.12132 -2.12132 
C 1.55874 -2.683901 0.795609 -3 0 -3 
C -0.795609 -3 -1.55874 -2.683901 -2.12132 -2.12132 
C -2.683901 -1.55874 -3 -0.795609 -3 0 
C -3 0.795609 -2.683901 1.55874 -2.12132 2.12132 
C -1.55874 2.683901 -0.795609 3 0 3 
z
" id="mc04817df41" style="stroke:#ff0000;"/>
    </defs>
    <g clip-path="url(#pe8f292407c)">
     <use style="fill:#ff0000;stroke:#ff0000;" x="73.832727" xlink:href="#mc04817df41" y="254.164889"/>
     <use style="fill:#ff0000;stroke:#ff0000;" x="75.578182" xlink:href="#mc04817df41" y="242.537819"/>
     <use style="fill:#ff0000;stroke:#ff0000;" x="77.323636" xlink:href="#mc04817df41" y="242.537819"/>
     <use style="fill:#ff0000;stroke:#ff0000;" x="79.069091" xlink:href="#mc04817df41" y="295.488"/>
     <use style="fill:#ff0000;stroke:#ff0000;" x="80.814545" xlink:href="#mc04817df41" y="295.488"/>
     <use style="fill:#ff0000;stroke:#ff0000;" x="82.56" xlink:href="#mc04817df41" y="295.488"/>
     <use style="fill:#ff0000;stroke:#ff0000;" x="84.305455" xlink:href="#mc04817df41" y="295.488"/>
     <use style="fill:#ff0000;stroke:#ff0000;" x="86.050909" xlink:href="#mc04817df41" y="295.488"/>
     <use style="fill:#ff0000;stroke:#ff0000;" x="87.796364" xlink:href="#mc04817df41" y="245.428473"/>
     <use style="fill:#ff0000;stroke:#ff0000;" x="89.541818" xlink:href="#mc04817df41" y="245.428473"/>
     <use style="fill:#ff0000;stroke:#ff0000;" x="91.287273" xlink:href="#mc04817df41" y="245.858886"/>
     <use style="fill:#ff0000;stroke:#ff0000;" x="93.032727" xlink:href="#mc04817df41" y="245.858886"/>
     <use style="fill:#ff0000;stroke:#ff0000;" x="94.778182" xlink:href="#mc04817df41" y="245.858886"/>
     <use style="fill:#ff0000;stroke:#ff0000;" x="96.523636" xlink:href="#mc04817df41" y="255.405381"/>
     <use style="fill:#ff0000;stroke:#ff0000;" x="98.269091" xlink:href="#mc04817df41" y="255.405381"/>
     <use style="fill:#ff0000;stroke:#ff0000;" x="100.014545" xlink:href="#mc04817df41" y="199.101979"/>
     <use style="fill:#ff0000;stroke:#ff0000;" x="101.76" xlink:href="#mc04817df41" y="199.101979"/>
     <use style="fill:#ff0000;stroke:#ff0000;" x="103.505455" xlink:href="#mc04817df41" y="199.101979"/>
     <use style="fill:#ff0000;stroke:#ff0000;" x="105.250909" xlink:href="#mc04817df41" y="199.101979"/>
     <use style="fill:#ff0000;stroke:#ff0000;" x="106.996364" xlink:href="#mc04817df41" y="199.101979"/>
     <use style="fill:#ff0000;stroke:#ff0000;" x="108.741818" xlink:href="#mc04817df41" y="191.333525"/>
     <use style="fill:#ff0000;stroke:#ff0000;" x="110.487273" xlink:href="#mc04817df41" y="191.333525"/>
     <use style="fill:#ff0000;stroke:#ff0000;" x="112.232727" xlink:href="#mc04817df41" y="139.873135"/>
     <use style="fill:#ff0000;stroke:#ff0000;" x="113.978182" xlink:href="#mc04817df41" y="139.873135"/>
     <use style="fill:#ff0000;stroke:#ff0000;" x="115.723636" xlink:href="#mc04817df41" y="90.949103"/>
     <use style="fill:#ff0000;stroke:#ff0000;" x="117.469091" xlink:href="#mc04817df41" y="90.949103"/>
     <use style="fill:#ff0000;stroke:#ff0000;" x="119.214545" xlink:href="#mc04817df41" y="90.949103"/>
     <use style="fill:#ff0000;stroke:#ff0000;" x="120.96" xlink:href="#mc04817df41" y="146.829501"/>
     <use style="fill:#ff0000;stroke:#ff0000;" x="122.705455" xlink:href="#mc04817df41" y="146.829501"/>
     <use style="fill:#ff0000;stroke:#ff0000;" x="124.450909" xlink:href="#mc04817df41" y="147.430655"/>
     <use style="fill:#ff0000;stroke:#ff0000;" x="126.196364" xlink:href="#mc04817df41" y="147.430655"/>
     <use style="fill:#ff0000;stroke:#ff0000;" x="127.941818" xlink:href="#mc04817df41" y="164.98855"/>
     <use style="fill:#ff0000;stroke:#ff0000;" x="129.687273" xlink:href="#mc04817df41" y="164.98855"/>
     <use style="fill:#ff0000;stroke:#ff0000;" x="131.432727" xlink:href="#mc04817df41" y="183.102797"/>
     <use style="fill:#ff0000;stroke:#ff0000;" x="133.178182" xlink:href="#mc04817df41" y="183.102797"/>
     <use style="fill:#ff0000;stroke:#ff0000;" x="134.923636" xlink:href="#mc04817df41" y="201.205725"/>
     <use style="fill:#ff0000;stroke:#ff0000;" x="136.669091" xlink:href="#mc04817df41" y="201.205725"/>
     <use style="fill:#ff0000;stroke:#ff0000;" x="138.414545" xlink:href="#mc04817df41" y="201.205725"/>
     <use style="fill:#ff0000;stroke:#ff0000;" x="140.16" xlink:href="#mc04817df41" y="184.250819"/>
     <use style="fill:#ff0000;stroke:#ff0000;" x="141.905455" xlink:href="#mc04817df41" y="184.250819"/>
     <use style="fill:#ff0000;stroke:#ff0000;" x="143.650909" xlink:href="#mc04817df41" y="184.250819"/>
     <use style="fill:#ff0000;stroke:#ff0000;" x="145.396364" xlink:href="#mc04817df41" y="202.465476"/>
     <use style="fill:#ff0000;stroke:#ff0000;" x="147.141818" xlink:href="#mc04817df41" y="202.465476"/>
     <use style="fill:#ff0000;stroke:#ff0000;" x="148.887273" xlink:href="#mc04817df41" y="218.916118"/>
     <use style="fill:#ff0000;stroke:#ff0000;" x="150.632727" xlink:href="#mc04817df41" y="218.916118"/>
     <use style="fill:#ff0000;stroke:#ff0000;" x="152.378182" xlink:href="#mc04817df41" y="237.052362"/>
     <use style="fill:#ff0000;stroke:#ff0000;" x="154.123636" xlink:href="#mc04817df41" y="237.052362"/>
     <use style="fill:#ff0000;stroke:#ff0000;" x="155.869091" xlink:href="#mc04817df41" y="239.904894"/>
     <use style="fill:#ff0000;stroke:#ff0000;" x="157.614545" xlink:href="#mc04817df41" y="239.904894"/>
     <use style="fill:#ff0000;stroke:#ff0000;" x="159.36" xlink:href="#mc04817df41" y="222.460471"/>
     <use style="fill:#ff0000;stroke:#ff0000;" x="161.105455" xlink:href="#mc04817df41" y="222.460471"/>
     <use style="fill:#ff0000;stroke:#ff0000;" x="162.850909" xlink:href="#mc04817df41" y="225.055989"/>
     <use style="fill:#ff0000;stroke:#ff0000;" x="164.596364" xlink:href="#mc04817df41" y="207.237544"/>
     <use style="fill:#ff0000;stroke:#ff0000;" x="166.341818" xlink:href="#mc04817df41" y="207.237544"/>
     <use style="fill:#ff0000;stroke:#ff0000;" x="168.087273" xlink:href="#mc04817df41" y="207.237544"/>
     <use style="fill:#ff0000;stroke:#ff0000;" x="169.832727" xlink:href="#mc04817df41" y="189.113224"/>
     <use style="fill:#ff0000;stroke:#ff0000;" x="171.578182" xlink:href="#mc04817df41" y="205.511276"/>
     <use style="fill:#ff0000;stroke:#ff0000;" x="173.323636" xlink:href="#mc04817df41" y="205.511276"/>
     <use style="fill:#ff0000;stroke:#ff0000;" x="175.069091" xlink:href="#mc04817df41" y="205.511276"/>
     <use style="fill:#ff0000;stroke:#ff0000;" x="176.814545" xlink:href="#mc04817df41" y="224.482727"/>
     <use style="fill:#ff0000;stroke:#ff0000;" x="178.56" xlink:href="#mc04817df41" y="224.482727"/>
     <use style="fill:#ff0000;stroke:#ff0000;" x="180.305455" xlink:href="#mc04817df41" y="224.482727"/>
     <use style="fill:#ff0000;stroke:#ff0000;" x="182.050909" xlink:href="#mc04817df41" y="205.47035"/>
     <use style="fill:#ff0000;stroke:#ff0000;" x="183.796364" xlink:href="#mc04817df41" y="205.47035"/>
     <use style="fill:#ff0000;stroke:#ff0000;" x="185.541818" xlink:href="#mc04817df41" y="188.261333"/>
     <use style="fill:#ff0000;stroke:#ff0000;" x="187.287273" xlink:href="#mc04817df41" y="188.261333"/>
     <use style="fill:#ff0000;stroke:#ff0000;" x="189.032727" xlink:href="#mc04817df41" y="192.858713"/>
     <use style="fill:#ff0000;stroke:#ff0000;" x="190.778182" xlink:href="#mc04817df41" y="192.858713"/>
     <use style="fill:#ff0000;stroke:#ff0000;" x="192.523636" xlink:href="#mc04817df41" y="193.242068"/>
     <use style="fill:#ff0000;stroke:#ff0000;" x="194.269091" xlink:href="#mc04817df41" y="193.242068"/>
     <use style="fill:#ff0000;stroke:#ff0000;" x="196.014545" xlink:href="#mc04817df41" y="212.487181"/>
     <use style="fill:#ff0000;stroke:#ff0000;" x="197.76" xlink:href="#mc04817df41" y="212.487181"/>
     <use style="fill:#ff0000;stroke:#ff0000;" x="199.505455" xlink:href="#mc04817df41" y="194.305501"/>
     <use style="fill:#ff0000;stroke:#ff0000;" x="201.250909" xlink:href="#mc04817df41" y="193.56918"/>
     <use style="fill:#ff0000;stroke:#ff0000;" x="202.996364" xlink:href="#mc04817df41" y="193.56918"/>
     <use style="fill:#ff0000;stroke:#ff0000;" x="204.741818" xlink:href="#mc04817df41" y="211.561234"/>
     <use style="fill:#ff0000;stroke:#ff0000;" x="206.487273" xlink:href="#mc04817df41" y="211.561234"/>
     <use style="fill:#ff0000;stroke:#ff0000;" x="208.232727" xlink:href="#mc04817df41" y="193.822256"/>
     <use style="fill:#ff0000;stroke:#ff0000;" x="209.978182" xlink:href="#mc04817df41" y="176.154874"/>
     <use style="fill:#ff0000;stroke:#ff0000;" x="211.723636" xlink:href="#mc04817df41" y="176.154874"/>
     <use style="fill:#ff0000;stroke:#ff0000;" x="213.469091" xlink:href="#mc04817df41" y="159.51204"/>
     <use style="fill:#ff0000;stroke:#ff0000;" x="215.214545" xlink:href="#mc04817df41" y="159.51204"/>
     <use style="fill:#ff0000;stroke:#ff0000;" x="216.96" xlink:href="#mc04817df41" y="159.51204"/>
     <use style="fill:#ff0000;stroke:#ff0000;" x="218.705455" xlink:href="#mc04817df41" y="159.51204"/>
     <use style="fill:#ff0000;stroke:#ff0000;" x="220.450909" xlink:href="#mc04817df41" y="159.51204"/>
     <use style="fill:#ff0000;stroke:#ff0000;" x="222.196364" xlink:href="#mc04817df41" y="144.820642"/>
     <use style="fill:#ff0000;stroke:#ff0000;" x="223.941818" xlink:href="#mc04817df41" y="144.820642"/>
     <use style="fill:#ff0000;stroke:#ff0000;" x="225.687273" xlink:href="#mc04817df41" y="128.627976"/>
     <use style="fill:#ff0000;stroke:#ff0000;" x="227.432727" xlink:href="#mc04817df41" y="128.627976"/>
     <use style="fill:#ff0000;stroke:#ff0000;" x="229.178182" xlink:href="#mc04817df41" y="111.591042"/>
     <use style="fill:#ff0000;stroke:#ff0000;" x="230.923636" xlink:href="#mc04817df41" y="111.591042"/>
     <use style="fill:#ff0000;stroke:#ff0000;" x="232.669091" xlink:href="#mc04817df41" y="96.369452"/>
     <use style="fill:#ff0000;stroke:#ff0000;" x="234.414545" xlink:href="#mc04817df41" y="96.369452"/>
     <use style="fill:#ff0000;stroke:#ff0000;" x="236.16" xlink:href="#mc04817df41" y="78.854142"/>
     <use style="fill:#ff0000;stroke:#ff0000;" x="237.905455" xlink:href="#mc04817df41" y="78.854142"/>
     <use style="fill:#ff0000;stroke:#ff0000;" x="239.650909" xlink:href="#mc04817df41" y="98.555846"/>
     <use style="fill:#ff0000;stroke:#ff0000;" x="241.396364" xlink:href="#mc04817df41" y="98.555846"/>
     <use style="fill:#ff0000;stroke:#ff0000;" x="243.141818" xlink:href="#mc04817df41" y="83.645932"/>
     <use style="fill:#ff0000;stroke:#ff0000;" x="244.887273" xlink:href="#mc04817df41" y="83.645932"/>
     <use style="fill:#ff0000;stroke:#ff0000;" x="246.632727" xlink:href="#mc04817df41" y="83.645932"/>
     <use style="fill:#ff0000;stroke:#ff0000;" x="248.378182" xlink:href="#mc04817df41" y="68.11332"/>
     <use style="fill:#ff0000;stroke:#ff0000;" x="250.123636" xlink:href="#mc04817df41" y="89.225791"/>
     <use style="fill:#ff0000;stroke:#ff0000;" x="251.869091" xlink:href="#mc04817df41" y="89.225791"/>
     <use style="fill:#ff0000;stroke:#ff0000;" x="253.614545" xlink:href="#mc04817df41" y="89.225791"/>
     <use style="fill:#ff0000;stroke:#ff0000;" x="255.36" xlink:href="#mc04817df41" y="106.370325"/>
     <use style="fill:#ff0000;stroke:#ff0000;" x="257.105455" xlink:href="#mc04817df41" y="106.370325"/>
     <use style="fill:#ff0000;stroke:#ff0000;" x="258.850909" xlink:href="#mc04817df41" y="106.370325"/>
     <use style="fill:#ff0000;stroke:#ff0000;" x="260.596364" xlink:href="#mc04817df41" y="104.655438"/>
     <use style="fill:#ff0000;stroke:#ff0000;" x="262.341818" xlink:href="#mc04817df41" y="122.750564"/>
     <use style="fill:#ff0000;stroke:#ff0000;" x="264.087273" xlink:href="#mc04817df41" y="122.750564"/>
     <use style="fill:#ff0000;stroke:#ff0000;" x="265.832727" xlink:href="#mc04817df41" y="122.750564"/>
     <use style="fill:#ff0000;stroke:#ff0000;" x="267.578182" xlink:href="#mc04817df41" y="122.750564"/>
     <use style="fill:#ff0000;stroke:#ff0000;" x="269.323636" xlink:href="#mc04817df41" y="122.750564"/>
     <use style="fill:#ff0000;stroke:#ff0000;" x="271.069091" xlink:href="#mc04817df41" y="122.750564"/>
     <use style="fill:#ff0000;stroke:#ff0000;" x="272.814545" xlink:href="#mc04817df41" y="122.750564"/>
     <use style="fill:#ff0000;stroke:#ff0000;" x="274.56" xlink:href="#mc04817df41" y="122.750564"/>
     <use style="fill:#ff0000;stroke:#ff0000;" x="276.305455" xlink:href="#mc04817df41" y="122.750564"/>
     <use style="fill:#ff0000;stroke:#ff0000;" x="278.050909" xlink:href="#mc04817df41" y="142.00757"/>
     <use style="fill:#ff0000;stroke:#ff0000;" x="279.796364" xlink:href="#mc04817df41" y="142.00757"/>
     <use style="fill:#ff0000;stroke:#ff0000;" x="281.541818" xlink:href="#mc04817df41" y="122.536447"/>
     <use style="fill:#ff0000;stroke:#ff0000;" x="283.287273" xlink:href="#mc04817df41" y="122.536447"/>
     <use style="fill:#ff0000;stroke:#ff0000;" x="285.032727" xlink:href="#mc04817df41" y="107.40524"/>
     <use style="fill:#ff0000;stroke:#ff0000;" x="286.778182" xlink:href="#mc04817df41" y="124.73557"/>
     <use style="fill:#ff0000;stroke:#ff0000;" x="288.523636" xlink:href="#mc04817df41" y="124.73557"/>
     <use style="fill:#ff0000;stroke:#ff0000;" x="290.269091" xlink:href="#mc04817df41" y="124.73557"/>
     <use style="fill:#ff0000;stroke:#ff0000;" x="292.014545" xlink:href="#mc04817df41" y="142.935033"/>
     <use style="fill:#ff0000;stroke:#ff0000;" x="293.76" xlink:href="#mc04817df41" y="142.935033"/>
     <use style="fill:#ff0000;stroke:#ff0000;" x="295.505455" xlink:href="#mc04817df41" y="148.770361"/>
     <use style="fill:#ff0000;stroke:#ff0000;" x="297.250909" xlink:href="#mc04817df41" y="148.770361"/>
     <use style="fill:#ff0000;stroke:#ff0000;" x="298.996364" xlink:href="#mc04817df41" y="164.350185"/>
     <use style="fill:#ff0000;stroke:#ff0000;" x="300.741818" xlink:href="#mc04817df41" y="164.350185"/>
     <use style="fill:#ff0000;stroke:#ff0000;" x="302.487273" xlink:href="#mc04817df41" y="148.2717"/>
     <use style="fill:#ff0000;stroke:#ff0000;" x="304.232727" xlink:href="#mc04817df41" y="148.2717"/>
     <use style="fill:#ff0000;stroke:#ff0000;" x="305.978182" xlink:href="#mc04817df41" y="132.50237"/>
     <use style="fill:#ff0000;stroke:#ff0000;" x="307.723636" xlink:href="#mc04817df41" y="132.50237"/>
     <use style="fill:#ff0000;stroke:#ff0000;" x="309.469091" xlink:href="#mc04817df41" y="132.50237"/>
     <use style="fill:#ff0000;stroke:#ff0000;" x="311.214545" xlink:href="#mc04817df41" y="149.589649"/>
     <use style="fill:#ff0000;stroke:#ff0000;" x="312.96" xlink:href="#mc04817df41" y="134.243483"/>
     <use style="fill:#ff0000;stroke:#ff0000;" x="314.705455" xlink:href="#mc04817df41" y="134.243483"/>
     <use style="fill:#ff0000;stroke:#ff0000;" x="316.450909" xlink:href="#mc04817df41" y="118.568003"/>
     <use style="fill:#ff0000;stroke:#ff0000;" x="318.196364" xlink:href="#mc04817df41" y="118.568003"/>
     <use style="fill:#ff0000;stroke:#ff0000;" x="319.941818" xlink:href="#mc04817df41" y="135.434303"/>
     <use style="fill:#ff0000;stroke:#ff0000;" x="321.687273" xlink:href="#mc04817df41" y="135.434303"/>
     <use style="fill:#ff0000;stroke:#ff0000;" x="323.432727" xlink:href="#mc04817df41" y="140.616293"/>
     <use style="fill:#ff0000;stroke:#ff0000;" x="325.178182" xlink:href="#mc04817df41" y="140.616293"/>
     <use style="fill:#ff0000;stroke:#ff0000;" x="326.923636" xlink:href="#mc04817df41" y="140.616293"/>
     <use style="fill:#ff0000;stroke:#ff0000;" x="328.669091" xlink:href="#mc04817df41" y="123.311414"/>
     <use style="fill:#ff0000;stroke:#ff0000;" x="330.414545" xlink:href="#mc04817df41" y="123.311414"/>
     <use style="fill:#ff0000;stroke:#ff0000;" x="332.16" xlink:href="#mc04817df41" y="123.311414"/>
     <use style="fill:#ff0000;stroke:#ff0000;" x="333.905455" xlink:href="#mc04817df41" y="128.293114"/>
     <use style="fill:#ff0000;stroke:#ff0000;" x="335.650909" xlink:href="#mc04817df41" y="110.756333"/>
     <use style="fill:#ff0000;stroke:#ff0000;" x="337.396364" xlink:href="#mc04817df41" y="110.756333"/>
     <use style="fill:#ff0000;stroke:#ff0000;" x="339.141818" xlink:href="#mc04817df41" y="110.756333"/>
     <use style="fill:#ff0000;stroke:#ff0000;" x="340.887273" xlink:href="#mc04817df41" y="109.734979"/>
     <use style="fill:#ff0000;stroke:#ff0000;" x="342.632727" xlink:href="#mc04817df41" y="109.734979"/>
     <use style="fill:#ff0000;stroke:#ff0000;" x="344.378182" xlink:href="#mc04817df41" y="93.029376"/>
     <use style="fill:#ff0000;stroke:#ff0000;" x="346.123636" xlink:href="#mc04817df41" y="93.029376"/>
     <use style="fill:#ff0000;stroke:#ff0000;" x="347.869091" xlink:href="#mc04817df41" y="111.545313"/>
     <use style="fill:#ff0000;stroke:#ff0000;" x="349.614545" xlink:href="#mc04817df41" y="92.845614"/>
     <use style="fill:#ff0000;stroke:#ff0000;" x="351.36" xlink:href="#mc04817df41" y="92.845614"/>
     <use style="fill:#ff0000;stroke:#ff0000;" x="353.105455" xlink:href="#mc04817df41" y="75.455243"/>
     <use style="fill:#ff0000;stroke:#ff0000;" x="354.850909" xlink:href="#mc04817df41" y="75.455243"/>
     <use style="fill:#ff0000;stroke:#ff0000;" x="356.596364" xlink:href="#mc04817df41" y="60.226581"/>
     <use style="fill:#ff0000;stroke:#ff0000;" x="358.341818" xlink:href="#mc04817df41" y="60.226581"/>
     <use style="fill:#ff0000;stroke:#ff0000;" x="360.087273" xlink:href="#mc04817df41" y="78.847185"/>
     <use style="fill:#ff0000;stroke:#ff0000;" x="361.832727" xlink:href="#mc04817df41" y="84.123854"/>
     <use style="fill:#ff0000;stroke:#ff0000;" x="363.578182" xlink:href="#mc04817df41" y="84.123854"/>
     <use style="fill:#ff0000;stroke:#ff0000;" x="365.323636" xlink:href="#mc04817df41" y="84.238021"/>
     <use style="fill:#ff0000;stroke:#ff0000;" x="367.069091" xlink:href="#mc04817df41" y="84.238021"/>
     <use style="fill:#ff0000;stroke:#ff0000;" x="368.814545" xlink:href="#mc04817df41" y="84.33559"/>
     <use style="fill:#ff0000;stroke:#ff0000;" x="370.56" xlink:href="#mc04817df41" y="84.33559"/>
     <use style="fill:#ff0000;stroke:#ff0000;" x="372.305455" xlink:href="#mc04817df41" y="67.854029"/>
     <use style="fill:#ff0000;stroke:#ff0000;" x="374.050909" xlink:href="#mc04817df41" y="67.854029"/>
     <use style="fill:#ff0000;stroke:#ff0000;" x="375.796364" xlink:href="#mc04817df41" y="53.568"/>
     <use style="fill:#ff0000;stroke:#ff0000;" x="377.541818" xlink:href="#mc04817df41" y="53.568"/>
     <use style="fill:#ff0000;stroke:#ff0000;" x="379.287273" xlink:href="#mc04817df41" y="53.568"/>
     <use style="fill:#ff0000;stroke:#ff0000;" x="381.032727" xlink:href="#mc04817df41" y="53.568"/>
     <use style="fill:#ff0000;stroke:#ff0000;" x="382.778182" xlink:href="#mc04817df41" y="71.381406"/>
     <use style="fill:#ff0000;stroke:#ff0000;" x="384.523636" xlink:href="#mc04817df41" y="71.381406"/>
     <use style="fill:#ff0000;stroke:#ff0000;" x="386.269091" xlink:href="#mc04817df41" y="54.195594"/>
     <use style="fill:#ff0000;stroke:#ff0000;" x="388.014545" xlink:href="#mc04817df41" y="54.195594"/>
     <use style="fill:#ff0000;stroke:#ff0000;" x="389.76" xlink:href="#mc04817df41" y="75.60744"/>
     <use style="fill:#ff0000;stroke:#ff0000;" x="391.505455" xlink:href="#mc04817df41" y="75.60744"/>
     <use style="fill:#ff0000;stroke:#ff0000;" x="393.250909" xlink:href="#mc04817df41" y="61.743726"/>
     <use style="fill:#ff0000;stroke:#ff0000;" x="394.996364" xlink:href="#mc04817df41" y="61.743726"/>
     <use style="fill:#ff0000;stroke:#ff0000;" x="396.741818" xlink:href="#mc04817df41" y="68.637865"/>
     <use style="fill:#ff0000;stroke:#ff0000;" x="398.487273" xlink:href="#mc04817df41" y="68.637865"/>
    </g>
   </g>
   <g id="patch_3">
    <path d="M 57.6 307.584 
L 57.6 41.472 
" style="fill:none;stroke:#000000;stroke-linecap:square;stroke-linejoin:miter;stroke-width:0.8;"/>
   </g>
   <g id="patch_4">
    <path d="M 414.72 307.584 
L 414.72 41.472 
" style="fill:none;stroke:#000000;stroke-linecap:square;stroke-linejoin:miter;stroke-width:0.8;"/>
   </g>
   <g id="patch_5">
    <path d="M 57.6 307.584 
L 414.72 307.584 
" style="fill:none;stroke:#000000;stroke-linecap:square;stroke-linejoin:miter;stroke-width:0.8;"/>
   </g>
   <g id="patch_6">
    <path d="M 57.6 41.472 
L 414.72 41.472 
" style="fill:none;stroke:#000000;stroke-linecap:square;stroke-linejoin:miter;stroke-width:0.8;"/>
   </g>
  </g>
 </g>
 <defs>
  <clipPath id="pe8f292407c">
   <rect height="266.112" width="357.12" x="57.6" y="41.472"/>
  </clipPath>
 </defs>
</svg>
