<?xml version="1.0" encoding="utf-8" standalone="no"?>
<!DOCTYPE svg PUBLIC "-//W3C//DTD SVG 1.1//EN"
  "http://www.w3.org/Graphics/SVG/1.1/DTD/svg11.dtd">
<!-- Created with matplotlib (https://matplotlib.org/) -->
<svg height="345.6pt" version="1.1" viewBox="0 0 460.8 345.6" width="460.8pt" xmlns="http://www.w3.org/2000/svg" xmlns:xlink="http://www.w3.org/1999/xlink">
 <defs>
  <style type="text/css">
*{stroke-linecap:butt;stroke-linejoin:round;}
  </style>
 </defs>
 <g id="figure_1">
  <g id="patch_1">
   <path d="M 0 345.6 
L 460.8 345.6 
L 460.8 0 
L 0 0 
z
" style="fill:#ffffff;"/>
  </g>
  <g id="axes_1">
   <g id="patch_2">
    <path d="M 57.6 307.584 
L 414.72 307.584 
L 414.72 41.472 
L 57.6 41.472 
z
" style="fill:#ffffff;"/>
   </g>
   <g id="line2d_1">
    <path clip-path="url(#p9513f0b954)" d="M 73.832727 254.164889 
L 74.853654 242.537819 
L 75.87458 242.537819 
L 76.895506 295.488 
L 80.979211 295.488 
L 82.000137 245.428473 
L 83.021063 245.428473 
L 84.04199 245.858886 
L 86.083842 245.858886 
L 87.104768 255.405381 
L 88.125695 255.405381 
L 89.146621 199.101979 
L 93.230326 199.101979 
L 94.251252 191.333525 
L 95.272178 191.333525 
L 96.293105 139.873135 
L 97.314031 139.873135 
L 98.334957 90.949103 
L 100.37681 90.949103 
L 101.397736 146.829501 
L 102.418662 146.829501 
L 103.439588 147.430655 
L 104.460515 147.430655 
L 105.481441 164.98855 
L 106.502367 164.98855 
L 107.523293 183.102797 
L 108.54422 183.102797 
L 109.565146 201.205725 
L 111.606998 201.205725 
L 112.627925 184.250819 
L 114.669777 184.250819 
L 115.690703 202.465476 
L 116.71163 202.465476 
L 117.732556 218.916118 
L 118.753482 218.916118 
L 119.774408 237.052362 
L 120.795334 237.052362 
L 121.816261 239.904894 
L 122.837187 239.904894 
L 123.858113 222.460471 
L 124.879039 222.460471 
L 125.899966 225.055989 
L 126.920892 207.237544 
L 128.962744 207.237544 
L 129.983671 189.113224 
L 131.004597 205.511276 
L 133.046449 205.511276 
L 134.067376 224.482727 
L 136.109228 224.482727 
L 137.130154 205.47035 
L 138.151081 205.47035 
L 139.172007 188.261333 
L 140.192933 188.261333 
L 141.213859 192.858713 
L 142.234786 192.858713 
L 143.255712 193.242068 
L 144.276638 193.242068 
L 145.297564 212.487181 
L 146.318491 212.487181 
L 147.339417 194.305501 
L 148.360343 193.56918 
L 149.381269 193.56918 
L 150.402196 211.561234 
L 151.423122 211.561234 
L 153.464974 176.154874 
L 154.485901 176.154874 
L 155.506827 159.51204 
L 159.590532 159.51204 
L 160.611458 144.820642 
L 161.632384 144.820642 
L 162.65331 128.627976 
L 163.674237 128.627976 
L 164.695163 111.591042 
L 165.716089 111.591042 
L 166.737015 96.369452 
L 167.757942 96.369452 
L 168.778868 78.854142 
L 169.799794 78.854142 
L 170.82072 98.555846 
L 171.841647 98.555846 
L 172.862573 83.645932 
L 174.904425 83.645932 
L 175.925352 68.11332 
L 176.946278 89.225791 
L 178.98813 89.225791 
L 180.009057 106.370325 
L 182.050909 106.370325 
L 183.071835 104.655438 
L 184.092762 122.750564 
L 192.260172 122.750564 
L 193.281098 142.00757 
L 194.302024 142.00757 
L 195.32295 122.536447 
L 196.343877 122.536447 
L 197.364803 107.40524 
L 198.385729 124.73557 
L 200.427581 124.73557 
L 201.448508 142.935033 
L 202.469434 142.935033 
L 203.49036 148.770361 
L 204.511286 148.770361 
L 205.532213 164.350185 
L 206.553139 164.350185 
L 207.574065 148.2717 
L 208.594991 148.2717 
L 209.615918 132.50237 
L 211.65777 132.50237 
L 212.678696 149.589649 
L 213.699623 134.243483 
L 214.720549 134.243483 
L 215.741475 118.568003 
L 216.762401 118.568003 
L 217.783328 135.434303 
L 218.804254 135.434303 
L 219.82518 140.616293 
L 221.867033 140.616293 
L 222.887959 123.311414 
L 224.929811 123.311414 
L 225.950738 128.293114 
L 226.971664 110.756333 
L 229.013516 110.756333 
L 230.034443 109.734979 
L 231.055369 109.734979 
L 232.076295 93.029376 
L 233.097221 93.029376 
L 234.118148 111.545313 
L 235.139074 92.845614 
L 236.16 92.845614 
L 237.180926 75.455243 
L 238.201852 75.455243 
L 239.222779 60.226581 
L 240.243705 60.226581 
L 241.264631 78.847185 
L 242.285557 84.123854 
L 243.306484 84.123854 
L 244.32741 84.238021 
L 247.390189 84.33559 
L 248.411115 67.854029 
L 249.432041 67.854029 
L 250.452967 53.568 
L 253.515746 53.568 
L 254.536672 71.381406 
L 255.557599 71.381406 
L 256.578525 54.195594 
L 257.599451 54.195594 
L 258.620377 75.60744 
L 259.641304 75.60744 
L 260.66223 61.743726 
L 261.683156 61.743726 
L 262.704082 68.637865 
L 398.487273 68.637865 
L 398.487273 68.637865 
" style="fill:none;stroke:#ff0000;stroke-linecap:square;stroke-width:12;"/>
    <defs>
     <path d="M 0 3 
C 0.795609 3 1.55874 2.683901 2.12132 2.12132 
C 2.683901 1.55874 3 0.795609 3 0 
C 3 -0.795609 2.683901 -1.55874 2.12132 -2.12132 
C 1.55874 -2.683901 0.795609 -3 0 -3 
C -0.795609 -3 -1.55874 -2.683901 -2.12132 -2.12132 
C -2.683901 -1.55874 -3 -0.795609 -3 0 
C -3 0.795609 -2.683901 1.55874 -2.12132 2.12132 
C -1.55874 2.683901 -0.795609 3 0 3 
z
" id="me424cb697a" style="stroke:#ff0000;"/>
    </defs>
    <g clip-path="url(#p9513f0b954)">
     <use style="fill:#ff0000;stroke:#ff0000;" x="73.832727" xlink:href="#me424cb697a" y="254.164889"/>
     <use style="fill:#ff0000;stroke:#ff0000;" x="74.853654" xlink:href="#me424cb697a" y="242.537819"/>
     <use style="fill:#ff0000;stroke:#ff0000;" x="75.87458" xlink:href="#me424cb697a" y="242.537819"/>
     <use style="fill:#ff0000;stroke:#ff0000;" x="76.895506" xlink:href="#me424cb697a" y="295.488"/>
     <use style="fill:#ff0000;stroke:#ff0000;" x="77.916432" xlink:href="#me424cb697a" y="295.488"/>
     <use style="fill:#ff0000;stroke:#ff0000;" x="78.937358" xlink:href="#me424cb697a" y="295.488"/>
     <use style="fill:#ff0000;stroke:#ff0000;" x="79.958285" xlink:href="#me424cb697a" y="295.488"/>
     <use style="fill:#ff0000;stroke:#ff0000;" x="80.979211" xlink:href="#me424cb697a" y="295.488"/>
     <use style="fill:#ff0000;stroke:#ff0000;" x="82.000137" xlink:href="#me424cb697a" y="245.428473"/>
     <use style="fill:#ff0000;stroke:#ff0000;" x="83.021063" xlink:href="#me424cb697a" y="245.428473"/>
     <use style="fill:#ff0000;stroke:#ff0000;" x="84.04199" xlink:href="#me424cb697a" y="245.858886"/>
     <use style="fill:#ff0000;stroke:#ff0000;" x="85.062916" xlink:href="#me424cb697a" y="245.858886"/>
     <use style="fill:#ff0000;stroke:#ff0000;" x="86.083842" xlink:href="#me424cb697a" y="245.858886"/>
     <use style="fill:#ff0000;stroke:#ff0000;" x="87.104768" xlink:href="#me424cb697a" y="255.405381"/>
     <use style="fill:#ff0000;stroke:#ff0000;" x="88.125695" xlink:href="#me424cb697a" y="255.405381"/>
     <use style="fill:#ff0000;stroke:#ff0000;" x="89.146621" xlink:href="#me424cb697a" y="199.101979"/>
     <use style="fill:#ff0000;stroke:#ff0000;" x="90.167547" xlink:href="#me424cb697a" y="199.101979"/>
     <use style="fill:#ff0000;stroke:#ff0000;" x="91.188473" xlink:href="#me424cb697a" y="199.101979"/>
     <use style="fill:#ff0000;stroke:#ff0000;" x="92.2094" xlink:href="#me424cb697a" y="199.101979"/>
     <use style="fill:#ff0000;stroke:#ff0000;" x="93.230326" xlink:href="#me424cb697a" y="199.101979"/>
     <use style="fill:#ff0000;stroke:#ff0000;" x="94.251252" xlink:href="#me424cb697a" y="191.333525"/>
     <use style="fill:#ff0000;stroke:#ff0000;" x="95.272178" xlink:href="#me424cb697a" y="191.333525"/>
     <use style="fill:#ff0000;stroke:#ff0000;" x="96.293105" xlink:href="#me424cb697a" y="139.873135"/>
     <use style="fill:#ff0000;stroke:#ff0000;" x="97.314031" xlink:href="#me424cb697a" y="139.873135"/>
     <use style="fill:#ff0000;stroke:#ff0000;" x="98.334957" xlink:href="#me424cb697a" y="90.949103"/>
     <use style="fill:#ff0000;stroke:#ff0000;" x="99.355883" xlink:href="#me424cb697a" y="90.949103"/>
     <use style="fill:#ff0000;stroke:#ff0000;" x="100.37681" xlink:href="#me424cb697a" y="90.949103"/>
     <use style="fill:#ff0000;stroke:#ff0000;" x="101.397736" xlink:href="#me424cb697a" y="146.829501"/>
     <use style="fill:#ff0000;stroke:#ff0000;" x="102.418662" xlink:href="#me424cb697a" y="146.829501"/>
     <use style="fill:#ff0000;stroke:#ff0000;" x="103.439588" xlink:href="#me424cb697a" y="147.430655"/>
     <use style="fill:#ff0000;stroke:#ff0000;" x="104.460515" xlink:href="#me424cb697a" y="147.430655"/>
     <use style="fill:#ff0000;stroke:#ff0000;" x="105.481441" xlink:href="#me424cb697a" y="164.98855"/>
     <use style="fill:#ff0000;stroke:#ff0000;" x="106.502367" xlink:href="#me424cb697a" y="164.98855"/>
     <use style="fill:#ff0000;stroke:#ff0000;" x="107.523293" xlink:href="#me424cb697a" y="183.102797"/>
     <use style="fill:#ff0000;stroke:#ff0000;" x="108.54422" xlink:href="#me424cb697a" y="183.102797"/>
     <use style="fill:#ff0000;stroke:#ff0000;" x="109.565146" xlink:href="#me424cb697a" y="201.205725"/>
     <use style="fill:#ff0000;stroke:#ff0000;" x="110.586072" xlink:href="#me424cb697a" y="201.205725"/>
     <use style="fill:#ff0000;stroke:#ff0000;" x="111.606998" xlink:href="#me424cb697a" y="201.205725"/>
     <use style="fill:#ff0000;stroke:#ff0000;" x="112.627925" xlink:href="#me424cb697a" y="184.250819"/>
     <use style="fill:#ff0000;stroke:#ff0000;" x="113.648851" xlink:href="#me424cb697a" y="184.250819"/>
     <use style="fill:#ff0000;stroke:#ff0000;" x="114.669777" xlink:href="#me424cb697a" y="184.250819"/>
     <use style="fill:#ff0000;stroke:#ff0000;" x="115.690703" xlink:href="#me424cb697a" y="202.465476"/>
     <use style="fill:#ff0000;stroke:#ff0000;" x="116.71163" xlink:href="#me424cb697a" y="202.465476"/>
     <use style="fill:#ff0000;stroke:#ff0000;" x="117.732556" xlink:href="#me424cb697a" y="218.916118"/>
     <use style="fill:#ff0000;stroke:#ff0000;" x="118.753482" xlink:href="#me424cb697a" y="218.916118"/>
     <use style="fill:#ff0000;stroke:#ff0000;" x="119.774408" xlink:href="#me424cb697a" y="237.052362"/>
     <use style="fill:#ff0000;stroke:#ff0000;" x="120.795334" xlink:href="#me424cb697a" y="237.052362"/>
     <use style="fill:#ff0000;stroke:#ff0000;" x="121.816261" xlink:href="#me424cb697a" y="239.904894"/>
     <use style="fill:#ff0000;stroke:#ff0000;" x="122.837187" xlink:href="#me424cb697a" y="239.904894"/>
     <use style="fill:#ff0000;stroke:#ff0000;" x="123.858113" xlink:href="#me424cb697a" y="222.460471"/>
     <use style="fill:#ff0000;stroke:#ff0000;" x="124.879039" xlink:href="#me424cb697a" y="222.460471"/>
     <use style="fill:#ff0000;stroke:#ff0000;" x="125.899966" xlink:href="#me424cb697a" y="225.055989"/>
     <use style="fill:#ff0000;stroke:#ff0000;" x="126.920892" xlink:href="#me424cb697a" y="207.237544"/>
     <use style="fill:#ff0000;stroke:#ff0000;" x="127.941818" xlink:href="#me424cb697a" y="207.237544"/>
     <use style="fill:#ff0000;stroke:#ff0000;" x="128.962744" xlink:href="#me424cb697a" y="207.237544"/>
     <use style="fill:#ff0000;stroke:#ff0000;" x="129.983671" xlink:href="#me424cb697a" y="189.113224"/>
     <use style="fill:#ff0000;stroke:#ff0000;" x="131.004597" xlink:href="#me424cb697a" y="205.511276"/>
     <use style="fill:#ff0000;stroke:#ff0000;" x="132.025523" xlink:href="#me424cb697a" y="205.511276"/>
     <use style="fill:#ff0000;stroke:#ff0000;" x="133.046449" xlink:href="#me424cb697a" y="205.511276"/>
     <use style="fill:#ff0000;stroke:#ff0000;" x="134.067376" xlink:href="#me424cb697a" y="224.482727"/>
     <use style="fill:#ff0000;stroke:#ff0000;" x="135.088302" xlink:href="#me424cb697a" y="224.482727"/>
     <use style="fill:#ff0000;stroke:#ff0000;" x="136.109228" xlink:href="#me424cb697a" y="224.482727"/>
     <use style="fill:#ff0000;stroke:#ff0000;" x="137.130154" xlink:href="#me424cb697a" y="205.47035"/>
     <use style="fill:#ff0000;stroke:#ff0000;" x="138.151081" xlink:href="#me424cb697a" y="205.47035"/>
     <use style="fill:#ff0000;stroke:#ff0000;" x="139.172007" xlink:href="#me424cb697a" y="188.261333"/>
     <use style="fill:#ff0000;stroke:#ff0000;" x="140.192933" xlink:href="#me424cb697a" y="188.261333"/>
     <use style="fill:#ff0000;stroke:#ff0000;" x="141.213859" xlink:href="#me424cb697a" y="192.858713"/>
     <use style="fill:#ff0000;stroke:#ff0000;" x="142.234786" xlink:href="#me424cb697a" y="192.858713"/>
     <use style="fill:#ff0000;stroke:#ff0000;" x="143.255712" xlink:href="#me424cb697a" y="193.242068"/>
     <use style="fill:#ff0000;stroke:#ff0000;" x="144.276638" xlink:href="#me424cb697a" y="193.242068"/>
     <use style="fill:#ff0000;stroke:#ff0000;" x="145.297564" xlink:href="#me424cb697a" y="212.487181"/>
     <use style="fill:#ff0000;stroke:#ff0000;" x="146.318491" xlink:href="#me424cb697a" y="212.487181"/>
     <use style="fill:#ff0000;stroke:#ff0000;" x="147.339417" xlink:href="#me424cb697a" y="194.305501"/>
     <use style="fill:#ff0000;stroke:#ff0000;" x="148.360343" xlink:href="#me424cb697a" y="193.56918"/>
     <use style="fill:#ff0000;stroke:#ff0000;" x="149.381269" xlink:href="#me424cb697a" y="193.56918"/>
     <use style="fill:#ff0000;stroke:#ff0000;" x="150.402196" xlink:href="#me424cb697a" y="211.561234"/>
     <use style="fill:#ff0000;stroke:#ff0000;" x="151.423122" xlink:href="#me424cb697a" y="211.561234"/>
     <use style="fill:#ff0000;stroke:#ff0000;" x="152.444048" xlink:href="#me424cb697a" y="193.822256"/>
     <use style="fill:#ff0000;stroke:#ff0000;" x="153.464974" xlink:href="#me424cb697a" y="176.154874"/>
     <use style="fill:#ff0000;stroke:#ff0000;" x="154.485901" xlink:href="#me424cb697a" y="176.154874"/>
     <use style="fill:#ff0000;stroke:#ff0000;" x="155.506827" xlink:href="#me424cb697a" y="159.51204"/>
     <use style="fill:#ff0000;stroke:#ff0000;" x="156.527753" xlink:href="#me424cb697a" y="159.51204"/>
     <use style="fill:#ff0000;stroke:#ff0000;" x="157.548679" xlink:href="#me424cb697a" y="159.51204"/>
     <use style="fill:#ff0000;stroke:#ff0000;" x="158.569605" xlink:href="#me424cb697a" y="159.51204"/>
     <use style="fill:#ff0000;stroke:#ff0000;" x="159.590532" xlink:href="#me424cb697a" y="159.51204"/>
     <use style="fill:#ff0000;stroke:#ff0000;" x="160.611458" xlink:href="#me424cb697a" y="144.820642"/>
     <use style="fill:#ff0000;stroke:#ff0000;" x="161.632384" xlink:href="#me424cb697a" y="144.820642"/>
     <use style="fill:#ff0000;stroke:#ff0000;" x="162.65331" xlink:href="#me424cb697a" y="128.627976"/>
     <use style="fill:#ff0000;stroke:#ff0000;" x="163.674237" xlink:href="#me424cb697a" y="128.627976"/>
     <use style="fill:#ff0000;stroke:#ff0000;" x="164.695163" xlink:href="#me424cb697a" y="111.591042"/>
     <use style="fill:#ff0000;stroke:#ff0000;" x="165.716089" xlink:href="#me424cb697a" y="111.591042"/>
     <use style="fill:#ff0000;stroke:#ff0000;" x="166.737015" xlink:href="#me424cb697a" y="96.369452"/>
     <use style="fill:#ff0000;stroke:#ff0000;" x="167.757942" xlink:href="#me424cb697a" y="96.369452"/>
     <use style="fill:#ff0000;stroke:#ff0000;" x="168.778868" xlink:href="#me424cb697a" y="78.854142"/>
     <use style="fill:#ff0000;stroke:#ff0000;" x="169.799794" xlink:href="#me424cb697a" y="78.854142"/>
     <use style="fill:#ff0000;stroke:#ff0000;" x="170.82072" xlink:href="#me424cb697a" y="98.555846"/>
     <use style="fill:#ff0000;stroke:#ff0000;" x="171.841647" xlink:href="#me424cb697a" y="98.555846"/>
     <use style="fill:#ff0000;stroke:#ff0000;" x="172.862573" xlink:href="#me424cb697a" y="83.645932"/>
     <use style="fill:#ff0000;stroke:#ff0000;" x="173.883499" xlink:href="#me424cb697a" y="83.645932"/>
     <use style="fill:#ff0000;stroke:#ff0000;" x="174.904425" xlink:href="#me424cb697a" y="83.645932"/>
     <use style="fill:#ff0000;stroke:#ff0000;" x="175.925352" xlink:href="#me424cb697a" y="68.11332"/>
     <use style="fill:#ff0000;stroke:#ff0000;" x="176.946278" xlink:href="#me424cb697a" y="89.225791"/>
     <use style="fill:#ff0000;stroke:#ff0000;" x="177.967204" xlink:href="#me424cb697a" y="89.225791"/>
     <use style="fill:#ff0000;stroke:#ff0000;" x="178.98813" xlink:href="#me424cb697a" y="89.225791"/>
     <use style="fill:#ff0000;stroke:#ff0000;" x="180.009057" xlink:href="#me424cb697a" y="106.370325"/>
     <use style="fill:#ff0000;stroke:#ff0000;" x="181.029983" xlink:href="#me424cb697a" y="106.370325"/>
     <use style="fill:#ff0000;stroke:#ff0000;" x="182.050909" xlink:href="#me424cb697a" y="106.370325"/>
     <use style="fill:#ff0000;stroke:#ff0000;" x="183.071835" xlink:href="#me424cb697a" y="104.655438"/>
     <use style="fill:#ff0000;stroke:#ff0000;" x="184.092762" xlink:href="#me424cb697a" y="122.750564"/>
     <use style="fill:#ff0000;stroke:#ff0000;" x="185.113688" xlink:href="#me424cb697a" y="122.750564"/>
     <use style="fill:#ff0000;stroke:#ff0000;" x="186.134614" xlink:href="#me424cb697a" y="122.750564"/>
     <use style="fill:#ff0000;stroke:#ff0000;" x="187.15554" xlink:href="#me424cb697a" y="122.750564"/>
     <use style="fill:#ff0000;stroke:#ff0000;" x="188.176467" xlink:href="#me424cb697a" y="122.750564"/>
     <use style="fill:#ff0000;stroke:#ff0000;" x="189.197393" xlink:href="#me424cb697a" y="122.750564"/>
     <use style="fill:#ff0000;stroke:#ff0000;" x="190.218319" xlink:href="#me424cb697a" y="122.750564"/>
     <use style="fill:#ff0000;stroke:#ff0000;" x="191.239245" xlink:href="#me424cb697a" y="122.750564"/>
     <use style="fill:#ff0000;stroke:#ff0000;" x="192.260172" xlink:href="#me424cb697a" y="122.750564"/>
     <use style="fill:#ff0000;stroke:#ff0000;" x="193.281098" xlink:href="#me424cb697a" y="142.00757"/>
     <use style="fill:#ff0000;stroke:#ff0000;" x="194.302024" xlink:href="#me424cb697a" y="142.00757"/>
     <use style="fill:#ff0000;stroke:#ff0000;" x="195.32295" xlink:href="#me424cb697a" y="122.536447"/>
     <use style="fill:#ff0000;stroke:#ff0000;" x="196.343877" xlink:href="#me424cb697a" y="122.536447"/>
     <use style="fill:#ff0000;stroke:#ff0000;" x="197.364803" xlink:href="#me424cb697a" y="107.40524"/>
     <use style="fill:#ff0000;stroke:#ff0000;" x="198.385729" xlink:href="#me424cb697a" y="124.73557"/>
     <use style="fill:#ff0000;stroke:#ff0000;" x="199.406655" xlink:href="#me424cb697a" y="124.73557"/>
     <use style="fill:#ff0000;stroke:#ff0000;" x="200.427581" xlink:href="#me424cb697a" y="124.73557"/>
     <use style="fill:#ff0000;stroke:#ff0000;" x="201.448508" xlink:href="#me424cb697a" y="142.935033"/>
     <use style="fill:#ff0000;stroke:#ff0000;" x="202.469434" xlink:href="#me424cb697a" y="142.935033"/>
     <use style="fill:#ff0000;stroke:#ff0000;" x="203.49036" xlink:href="#me424cb697a" y="148.770361"/>
     <use style="fill:#ff0000;stroke:#ff0000;" x="204.511286" xlink:href="#me424cb697a" y="148.770361"/>
     <use style="fill:#ff0000;stroke:#ff0000;" x="205.532213" xlink:href="#me424cb697a" y="164.350185"/>
     <use style="fill:#ff0000;stroke:#ff0000;" x="206.553139" xlink:href="#me424cb697a" y="164.350185"/>
     <use style="fill:#ff0000;stroke:#ff0000;" x="207.574065" xlink:href="#me424cb697a" y="148.2717"/>
     <use style="fill:#ff0000;stroke:#ff0000;" x="208.594991" xlink:href="#me424cb697a" y="148.2717"/>
     <use style="fill:#ff0000;stroke:#ff0000;" x="209.615918" xlink:href="#me424cb697a" y="132.50237"/>
     <use style="fill:#ff0000;stroke:#ff0000;" x="210.636844" xlink:href="#me424cb697a" y="132.50237"/>
     <use style="fill:#ff0000;stroke:#ff0000;" x="211.65777" xlink:href="#me424cb697a" y="132.50237"/>
     <use style="fill:#ff0000;stroke:#ff0000;" x="212.678696" xlink:href="#me424cb697a" y="149.589649"/>
     <use style="fill:#ff0000;stroke:#ff0000;" x="213.699623" xlink:href="#me424cb697a" y="134.243483"/>
     <use style="fill:#ff0000;stroke:#ff0000;" x="214.720549" xlink:href="#me424cb697a" y="134.243483"/>
     <use style="fill:#ff0000;stroke:#ff0000;" x="215.741475" xlink:href="#me424cb697a" y="118.568003"/>
     <use style="fill:#ff0000;stroke:#ff0000;" x="216.762401" xlink:href="#me424cb697a" y="118.568003"/>
     <use style="fill:#ff0000;stroke:#ff0000;" x="217.783328" xlink:href="#me424cb697a" y="135.434303"/>
     <use style="fill:#ff0000;stroke:#ff0000;" x="218.804254" xlink:href="#me424cb697a" y="135.434303"/>
     <use style="fill:#ff0000;stroke:#ff0000;" x="219.82518" xlink:href="#me424cb697a" y="140.616293"/>
     <use style="fill:#ff0000;stroke:#ff0000;" x="220.846106" xlink:href="#me424cb697a" y="140.616293"/>
     <use style="fill:#ff0000;stroke:#ff0000;" x="221.867033" xlink:href="#me424cb697a" y="140.616293"/>
     <use style="fill:#ff0000;stroke:#ff0000;" x="222.887959" xlink:href="#me424cb697a" y="123.311414"/>
     <use style="fill:#ff0000;stroke:#ff0000;" x="223.908885" xlink:href="#me424cb697a" y="123.311414"/>
     <use style="fill:#ff0000;stroke:#ff0000;" x="224.929811" xlink:href="#me424cb697a" y="123.311414"/>
     <use style="fill:#ff0000;stroke:#ff0000;" x="225.950738" xlink:href="#me424cb697a" y="128.293114"/>
     <use style="fill:#ff0000;stroke:#ff0000;" x="226.971664" xlink:href="#me424cb697a" y="110.756333"/>
     <use style="fill:#ff0000;stroke:#ff0000;" x="227.99259" xlink:href="#me424cb697a" y="110.756333"/>
     <use style="fill:#ff0000;stroke:#ff0000;" x="229.013516" xlink:href="#me424cb697a" y="110.756333"/>
     <use style="fill:#ff0000;stroke:#ff0000;" x="230.034443" xlink:href="#me424cb697a" y="109.734979"/>
     <use style="fill:#ff0000;stroke:#ff0000;" x="231.055369" xlink:href="#me424cb697a" y="109.734979"/>
     <use style="fill:#ff0000;stroke:#ff0000;" x="232.076295" xlink:href="#me424cb697a" y="93.029376"/>
     <use style="fill:#ff0000;stroke:#ff0000;" x="233.097221" xlink:href="#me424cb697a" y="93.029376"/>
     <use style="fill:#ff0000;stroke:#ff0000;" x="234.118148" xlink:href="#me424cb697a" y="111.545313"/>
     <use style="fill:#ff0000;stroke:#ff0000;" x="235.139074" xlink:href="#me424cb697a" y="92.845614"/>
     <use style="fill:#ff0000;stroke:#ff0000;" x="236.16" xlink:href="#me424cb697a" y="92.845614"/>
     <use style="fill:#ff0000;stroke:#ff0000;" x="237.180926" xlink:href="#me424cb697a" y="75.455243"/>
     <use style="fill:#ff0000;stroke:#ff0000;" x="238.201852" xlink:href="#me424cb697a" y="75.455243"/>
     <use style="fill:#ff0000;stroke:#ff0000;" x="239.222779" xlink:href="#me424cb697a" y="60.226581"/>
     <use style="fill:#ff0000;stroke:#ff0000;" x="240.243705" xlink:href="#me424cb697a" y="60.226581"/>
     <use style="fill:#ff0000;stroke:#ff0000;" x="241.264631" xlink:href="#me424cb697a" y="78.847185"/>
     <use style="fill:#ff0000;stroke:#ff0000;" x="242.285557" xlink:href="#me424cb697a" y="84.123854"/>
     <use style="fill:#ff0000;stroke:#ff0000;" x="243.306484" xlink:href="#me424cb697a" y="84.123854"/>
     <use style="fill:#ff0000;stroke:#ff0000;" x="244.32741" xlink:href="#me424cb697a" y="84.238021"/>
     <use style="fill:#ff0000;stroke:#ff0000;" x="245.348336" xlink:href="#me424cb697a" y="84.238021"/>
     <use style="fill:#ff0000;stroke:#ff0000;" x="246.369262" xlink:href="#me424cb697a" y="84.33559"/>
     <use style="fill:#ff0000;stroke:#ff0000;" x="247.390189" xlink:href="#me424cb697a" y="84.33559"/>
     <use style="fill:#ff0000;stroke:#ff0000;" x="248.411115" xlink:href="#me424cb697a" y="67.854029"/>
     <use style="fill:#ff0000;stroke:#ff0000;" x="249.432041" xlink:href="#me424cb697a" y="67.854029"/>
     <use style="fill:#ff0000;stroke:#ff0000;" x="250.452967" xlink:href="#me424cb697a" y="53.568"/>
     <use style="fill:#ff0000;stroke:#ff0000;" x="251.473894" xlink:href="#me424cb697a" y="53.568"/>
     <use style="fill:#ff0000;stroke:#ff0000;" x="252.49482" xlink:href="#me424cb697a" y="53.568"/>
     <use style="fill:#ff0000;stroke:#ff0000;" x="253.515746" xlink:href="#me424cb697a" y="53.568"/>
     <use style="fill:#ff0000;stroke:#ff0000;" x="254.536672" xlink:href="#me424cb697a" y="71.381406"/>
     <use style="fill:#ff0000;stroke:#ff0000;" x="255.557599" xlink:href="#me424cb697a" y="71.381406"/>
     <use style="fill:#ff0000;stroke:#ff0000;" x="256.578525" xlink:href="#me424cb697a" y="54.195594"/>
     <use style="fill:#ff0000;stroke:#ff0000;" x="257.599451" xlink:href="#me424cb697a" y="54.195594"/>
     <use style="fill:#ff0000;stroke:#ff0000;" x="258.620377" xlink:href="#me424cb697a" y="75.60744"/>
     <use style="fill:#ff0000;stroke:#ff0000;" x="259.641304" xlink:href="#me424cb697a" y="75.60744"/>
     <use style="fill:#ff0000;stroke:#ff0000;" x="260.66223" xlink:href="#me424cb697a" y="61.743726"/>
     <use style="fill:#ff0000;stroke:#ff0000;" x="261.683156" xlink:href="#me424cb697a" y="61.743726"/>
     <use style="fill:#ff0000;stroke:#ff0000;" x="262.704082" xlink:href="#me424cb697a" y="68.637865"/>
     <use style="fill:#ff0000;stroke:#ff0000;" x="263.725009" xlink:href="#me424cb697a" y="68.637865"/>
     <use style="fill:#ff0000;stroke:#ff0000;" x="264.745935" xlink:href="#me424cb697a" y="68.637865"/>
     <use style="fill:#ff0000;stroke:#ff0000;" x="265.766861" xlink:href="#me424cb697a" y="68.637865"/>
     <use style="fill:#ff0000;stroke:#ff0000;" x="266.787787" xlink:href="#me424cb697a" y="68.637865"/>
     <use style="fill:#ff0000;stroke:#ff0000;" x="267.808714" xlink:href="#me424cb697a" y="68.637865"/>
     <use style="fill:#ff0000;stroke:#ff0000;" x="268.82964" xlink:href="#me424cb697a" y="68.637865"/>
     <use style="fill:#ff0000;stroke:#ff0000;" x="269.850566" xlink:href="#me424cb697a" y="68.637865"/>
     <use style="fill:#ff0000;stroke:#ff0000;" x="270.871492" xlink:href="#me424cb697a" y="68.637865"/>
     <use style="fill:#ff0000;stroke:#ff0000;" x="271.892419" xlink:href="#me424cb697a" y="68.637865"/>
     <use style="fill:#ff0000;stroke:#ff0000;" x="272.913345" xlink:href="#me424cb697a" y="68.637865"/>
     <use style="fill:#ff0000;stroke:#ff0000;" x="273.934271" xlink:href="#me424cb697a" y="68.637865"/>
     <use style="fill:#ff0000;stroke:#ff0000;" x="274.955197" xlink:href="#me424cb697a" y="68.637865"/>
     <use style="fill:#ff0000;stroke:#ff0000;" x="275.976123" xlink:href="#me424cb697a" y="68.637865"/>
     <use style="fill:#ff0000;stroke:#ff0000;" x="276.99705" xlink:href="#me424cb697a" y="68.637865"/>
     <use style="fill:#ff0000;stroke:#ff0000;" x="278.017976" xlink:href="#me424cb697a" y="68.637865"/>
     <use style="fill:#ff0000;stroke:#ff0000;" x="279.038902" xlink:href="#me424cb697a" y="68.637865"/>
     <use style="fill:#ff0000;stroke:#ff0000;" x="280.059828" xlink:href="#me424cb697a" y="68.637865"/>
     <use style="fill:#ff0000;stroke:#ff0000;" x="281.080755" xlink:href="#me424cb697a" y="68.637865"/>
     <use style="fill:#ff0000;stroke:#ff0000;" x="282.101681" xlink:href="#me424cb697a" y="68.637865"/>
     <use style="fill:#ff0000;stroke:#ff0000;" x="283.122607" xlink:href="#me424cb697a" y="68.637865"/>
     <use style="fill:#ff0000;stroke:#ff0000;" x="284.143533" xlink:href="#me424cb697a" y="68.637865"/>
     <use style="fill:#ff0000;stroke:#ff0000;" x="285.16446" xlink:href="#me424cb697a" y="68.637865"/>
     <use style="fill:#ff0000;stroke:#ff0000;" x="286.185386" xlink:href="#me424cb697a" y="68.637865"/>
     <use style="fill:#ff0000;stroke:#ff0000;" x="287.206312" xlink:href="#me424cb697a" y="68.637865"/>
     <use style="fill:#ff0000;stroke:#ff0000;" x="288.227238" xlink:href="#me424cb697a" y="68.637865"/>
     <use style="fill:#ff0000;stroke:#ff0000;" x="289.248165" xlink:href="#me424cb697a" y="68.637865"/>
     <use style="fill:#ff0000;stroke:#ff0000;" x="290.269091" xlink:href="#me424cb697a" y="68.637865"/>
     <use style="fill:#ff0000;stroke:#ff0000;" x="291.290017" xlink:href="#me424cb697a" y="68.637865"/>
     <use style="fill:#ff0000;stroke:#ff0000;" x="292.310943" xlink:href="#me424cb697a" y="68.637865"/>
     <use style="fill:#ff0000;stroke:#ff0000;" x="293.33187" xlink:href="#me424cb697a" y="68.637865"/>
     <use style="fill:#ff0000;stroke:#ff0000;" x="294.352796" xlink:href="#me424cb697a" y="68.637865"/>
     <use style="fill:#ff0000;stroke:#ff0000;" x="295.373722" xlink:href="#me424cb697a" y="68.637865"/>
     <use style="fill:#ff0000;stroke:#ff0000;" x="296.394648" xlink:href="#me424cb697a" y="68.637865"/>
     <use style="fill:#ff0000;stroke:#ff0000;" x="297.415575" xlink:href="#me424cb697a" y="68.637865"/>
     <use style="fill:#ff0000;stroke:#ff0000;" x="298.436501" xlink:href="#me424cb697a" y="68.637865"/>
     <use style="fill:#ff0000;stroke:#ff0000;" x="299.457427" xlink:href="#me424cb697a" y="68.637865"/>
     <use style="fill:#ff0000;stroke:#ff0000;" x="300.478353" xlink:href="#me424cb697a" y="68.637865"/>
     <use style="fill:#ff0000;stroke:#ff0000;" x="301.49928" xlink:href="#me424cb697a" y="68.637865"/>
     <use style="fill:#ff0000;stroke:#ff0000;" x="302.520206" xlink:href="#me424cb697a" y="68.637865"/>
     <use style="fill:#ff0000;stroke:#ff0000;" x="303.541132" xlink:href="#me424cb697a" y="68.637865"/>
     <use style="fill:#ff0000;stroke:#ff0000;" x="304.562058" xlink:href="#me424cb697a" y="68.637865"/>
     <use style="fill:#ff0000;stroke:#ff0000;" x="305.582985" xlink:href="#me424cb697a" y="68.637865"/>
     <use style="fill:#ff0000;stroke:#ff0000;" x="306.603911" xlink:href="#me424cb697a" y="68.637865"/>
     <use style="fill:#ff0000;stroke:#ff0000;" x="307.624837" xlink:href="#me424cb697a" y="68.637865"/>
     <use style="fill:#ff0000;stroke:#ff0000;" x="308.645763" xlink:href="#me424cb697a" y="68.637865"/>
     <use style="fill:#ff0000;stroke:#ff0000;" x="309.66669" xlink:href="#me424cb697a" y="68.637865"/>
     <use style="fill:#ff0000;stroke:#ff0000;" x="310.687616" xlink:href="#me424cb697a" y="68.637865"/>
     <use style="fill:#ff0000;stroke:#ff0000;" x="311.708542" xlink:href="#me424cb697a" y="68.637865"/>
     <use style="fill:#ff0000;stroke:#ff0000;" x="312.729468" xlink:href="#me424cb697a" y="68.637865"/>
     <use style="fill:#ff0000;stroke:#ff0000;" x="313.750395" xlink:href="#me424cb697a" y="68.637865"/>
     <use style="fill:#ff0000;stroke:#ff0000;" x="314.771321" xlink:href="#me424cb697a" y="68.637865"/>
     <use style="fill:#ff0000;stroke:#ff0000;" x="315.792247" xlink:href="#me424cb697a" y="68.637865"/>
     <use style="fill:#ff0000;stroke:#ff0000;" x="316.813173" xlink:href="#me424cb697a" y="68.637865"/>
     <use style="fill:#ff0000;stroke:#ff0000;" x="317.834099" xlink:href="#me424cb697a" y="68.637865"/>
     <use style="fill:#ff0000;stroke:#ff0000;" x="318.855026" xlink:href="#me424cb697a" y="68.637865"/>
     <use style="fill:#ff0000;stroke:#ff0000;" x="319.875952" xlink:href="#me424cb697a" y="68.637865"/>
     <use style="fill:#ff0000;stroke:#ff0000;" x="320.896878" xlink:href="#me424cb697a" y="68.637865"/>
     <use style="fill:#ff0000;stroke:#ff0000;" x="321.917804" xlink:href="#me424cb697a" y="68.637865"/>
     <use style="fill:#ff0000;stroke:#ff0000;" x="322.938731" xlink:href="#me424cb697a" y="68.637865"/>
     <use style="fill:#ff0000;stroke:#ff0000;" x="323.959657" xlink:href="#me424cb697a" y="68.637865"/>
     <use style="fill:#ff0000;stroke:#ff0000;" x="324.980583" xlink:href="#me424cb697a" y="68.637865"/>
     <use style="fill:#ff0000;stroke:#ff0000;" x="326.001509" xlink:href="#me424cb697a" y="68.637865"/>
     <use style="fill:#ff0000;stroke:#ff0000;" x="327.022436" xlink:href="#me424cb697a" y="68.637865"/>
     <use style="fill:#ff0000;stroke:#ff0000;" x="328.043362" xlink:href="#me424cb697a" y="68.637865"/>
     <use style="fill:#ff0000;stroke:#ff0000;" x="329.064288" xlink:href="#me424cb697a" y="68.637865"/>
     <use style="fill:#ff0000;stroke:#ff0000;" x="330.085214" xlink:href="#me424cb697a" y="68.637865"/>
     <use style="fill:#ff0000;stroke:#ff0000;" x="331.106141" xlink:href="#me424cb697a" y="68.637865"/>
     <use style="fill:#ff0000;stroke:#ff0000;" x="332.127067" xlink:href="#me424cb697a" y="68.637865"/>
     <use style="fill:#ff0000;stroke:#ff0000;" x="333.147993" xlink:href="#me424cb697a" y="68.637865"/>
     <use style="fill:#ff0000;stroke:#ff0000;" x="334.168919" xlink:href="#me424cb697a" y="68.637865"/>
     <use style="fill:#ff0000;stroke:#ff0000;" x="335.189846" xlink:href="#me424cb697a" y="68.637865"/>
     <use style="fill:#ff0000;stroke:#ff0000;" x="336.210772" xlink:href="#me424cb697a" y="68.637865"/>
     <use style="fill:#ff0000;stroke:#ff0000;" x="337.231698" xlink:href="#me424cb697a" y="68.637865"/>
     <use style="fill:#ff0000;stroke:#ff0000;" x="338.252624" xlink:href="#me424cb697a" y="68.637865"/>
     <use style="fill:#ff0000;stroke:#ff0000;" x="339.273551" xlink:href="#me424cb697a" y="68.637865"/>
     <use style="fill:#ff0000;stroke:#ff0000;" x="340.294477" xlink:href="#me424cb697a" y="68.637865"/>
     <use style="fill:#ff0000;stroke:#ff0000;" x="341.315403" xlink:href="#me424cb697a" y="68.637865"/>
     <use style="fill:#ff0000;stroke:#ff0000;" x="342.336329" xlink:href="#me424cb697a" y="68.637865"/>
     <use style="fill:#ff0000;stroke:#ff0000;" x="343.357256" xlink:href="#me424cb697a" y="68.637865"/>
     <use style="fill:#ff0000;stroke:#ff0000;" x="344.378182" xlink:href="#me424cb697a" y="68.637865"/>
     <use style="fill:#ff0000;stroke:#ff0000;" x="345.399108" xlink:href="#me424cb697a" y="68.637865"/>
     <use style="fill:#ff0000;stroke:#ff0000;" x="346.420034" xlink:href="#me424cb697a" y="68.637865"/>
     <use style="fill:#ff0000;stroke:#ff0000;" x="347.440961" xlink:href="#me424cb697a" y="68.637865"/>
     <use style="fill:#ff0000;stroke:#ff0000;" x="348.461887" xlink:href="#me424cb697a" y="68.637865"/>
     <use style="fill:#ff0000;stroke:#ff0000;" x="349.482813" xlink:href="#me424cb697a" y="68.637865"/>
     <use style="fill:#ff0000;stroke:#ff0000;" x="350.503739" xlink:href="#me424cb697a" y="68.637865"/>
     <use style="fill:#ff0000;stroke:#ff0000;" x="351.524666" xlink:href="#me424cb697a" y="68.637865"/>
     <use style="fill:#ff0000;stroke:#ff0000;" x="352.545592" xlink:href="#me424cb697a" y="68.637865"/>
     <use style="fill:#ff0000;stroke:#ff0000;" x="353.566518" xlink:href="#me424cb697a" y="68.637865"/>
     <use style="fill:#ff0000;stroke:#ff0000;" x="354.587444" xlink:href="#me424cb697a" y="68.637865"/>
     <use style="fill:#ff0000;stroke:#ff0000;" x="355.60837" xlink:href="#me424cb697a" y="68.637865"/>
     <use style="fill:#ff0000;stroke:#ff0000;" x="356.629297" xlink:href="#me424cb697a" y="68.637865"/>
     <use style="fill:#ff0000;stroke:#ff0000;" x="357.650223" xlink:href="#me424cb697a" y="68.637865"/>
     <use style="fill:#ff0000;stroke:#ff0000;" x="358.671149" xlink:href="#me424cb697a" y="68.637865"/>
     <use style="fill:#ff0000;stroke:#ff0000;" x="359.692075" xlink:href="#me424cb697a" y="68.637865"/>
     <use style="fill:#ff0000;stroke:#ff0000;" x="360.713002" xlink:href="#me424cb697a" y="68.637865"/>
     <use style="fill:#ff0000;stroke:#ff0000;" x="361.733928" xlink:href="#me424cb697a" y="68.637865"/>
     <use style="fill:#ff0000;stroke:#ff0000;" x="362.754854" xlink:href="#me424cb697a" y="68.637865"/>
     <use style="fill:#ff0000;stroke:#ff0000;" x="363.77578" xlink:href="#me424cb697a" y="68.637865"/>
     <use style="fill:#ff0000;stroke:#ff0000;" x="364.796707" xlink:href="#me424cb697a" y="68.637865"/>
     <use style="fill:#ff0000;stroke:#ff0000;" x="365.817633" xlink:href="#me424cb697a" y="68.637865"/>
     <use style="fill:#ff0000;stroke:#ff0000;" x="366.838559" xlink:href="#me424cb697a" y="68.637865"/>
     <use style="fill:#ff0000;stroke:#ff0000;" x="367.859485" xlink:href="#me424cb697a" y="68.637865"/>
     <use style="fill:#ff0000;stroke:#ff0000;" x="368.880412" xlink:href="#me424cb697a" y="68.637865"/>
     <use style="fill:#ff0000;stroke:#ff0000;" x="369.901338" xlink:href="#me424cb697a" y="68.637865"/>
     <use style="fill:#ff0000;stroke:#ff0000;" x="370.922264" xlink:href="#me424cb697a" y="68.637865"/>
     <use style="fill:#ff0000;stroke:#ff0000;" x="371.94319" xlink:href="#me424cb697a" y="68.637865"/>
     <use style="fill:#ff0000;stroke:#ff0000;" x="372.964117" xlink:href="#me424cb697a" y="68.637865"/>
     <use style="fill:#ff0000;stroke:#ff0000;" x="373.985043" xlink:href="#me424cb697a" y="68.637865"/>
     <use style="fill:#ff0000;stroke:#ff0000;" x="375.005969" xlink:href="#me424cb697a" y="68.637865"/>
     <use style="fill:#ff0000;stroke:#ff0000;" x="376.026895" xlink:href="#me424cb697a" y="68.637865"/>
     <use style="fill:#ff0000;stroke:#ff0000;" x="377.047822" xlink:href="#me424cb697a" y="68.637865"/>
     <use style="fill:#ff0000;stroke:#ff0000;" x="378.068748" xlink:href="#me424cb697a" y="68.637865"/>
     <use style="fill:#ff0000;stroke:#ff0000;" x="379.089674" xlink:href="#me424cb697a" y="68.637865"/>
     <use style="fill:#ff0000;stroke:#ff0000;" x="380.1106" xlink:href="#me424cb697a" y="68.637865"/>
     <use style="fill:#ff0000;stroke:#ff0000;" x="381.131527" xlink:href="#me424cb697a" y="68.637865"/>
     <use style="fill:#ff0000;stroke:#ff0000;" x="382.152453" xlink:href="#me424cb697a" y="68.637865"/>
     <use style="fill:#ff0000;stroke:#ff0000;" x="383.173379" xlink:href="#me424cb697a" y="68.637865"/>
     <use style="fill:#ff0000;stroke:#ff0000;" x="384.194305" xlink:href="#me424cb697a" y="68.637865"/>
     <use style="fill:#ff0000;stroke:#ff0000;" x="385.215232" xlink:href="#me424cb697a" y="68.637865"/>
     <use style="fill:#ff0000;stroke:#ff0000;" x="386.236158" xlink:href="#me424cb697a" y="68.637865"/>
     <use style="fill:#ff0000;stroke:#ff0000;" x="387.257084" xlink:href="#me424cb697a" y="68.637865"/>
     <use style="fill:#ff0000;stroke:#ff0000;" x="388.27801" xlink:href="#me424cb697a" y="68.637865"/>
     <use style="fill:#ff0000;stroke:#ff0000;" x="389.298937" xlink:href="#me424cb697a" y="68.637865"/>
     <use style="fill:#ff0000;stroke:#ff0000;" x="390.319863" xlink:href="#me424cb697a" y="68.637865"/>
     <use style="fill:#ff0000;stroke:#ff0000;" x="391.340789" xlink:href="#me424cb697a" y="68.637865"/>
     <use style="fill:#ff0000;stroke:#ff0000;" x="392.361715" xlink:href="#me424cb697a" y="68.637865"/>
     <use style="fill:#ff0000;stroke:#ff0000;" x="393.382642" xlink:href="#me424cb697a" y="68.637865"/>
     <use style="fill:#ff0000;stroke:#ff0000;" x="394.403568" xlink:href="#me424cb697a" y="68.637865"/>
     <use style="fill:#ff0000;stroke:#ff0000;" x="395.424494" xlink:href="#me424cb697a" y="68.637865"/>
     <use style="fill:#ff0000;stroke:#ff0000;" x="396.44542" xlink:href="#me424cb697a" y="68.637865"/>
     <use style="fill:#ff0000;stroke:#ff0000;" x="397.466346" xlink:href="#me424cb697a" y="68.637865"/>
     <use style="fill:#ff0000;stroke:#ff0000;" x="398.487273" xlink:href="#me424cb697a" y="68.637865"/>
    </g>
   </g>
   <g id="patch_3">
    <path d="M 57.6 307.584 
L 57.6 41.472 
" style="fill:none;stroke:#000000;stroke-linecap:square;stroke-linejoin:miter;stroke-width:0.8;"/>
   </g>
   <g id="patch_4">
    <path d="M 414.72 307.584 
L 414.72 41.472 
" style="fill:none;stroke:#000000;stroke-linecap:square;stroke-linejoin:miter;stroke-width:0.8;"/>
   </g>
   <g id="patch_5">
    <path d="M 57.6 307.584 
L 414.72 307.584 
" style="fill:none;stroke:#000000;stroke-linecap:square;stroke-linejoin:miter;stroke-width:0.8;"/>
   </g>
   <g id="patch_6">
    <path d="M 57.6 41.472 
L 414.72 41.472 
" style="fill:none;stroke:#000000;stroke-linecap:square;stroke-linejoin:miter;stroke-width:0.8;"/>
   </g>
  </g>
 </g>
 <defs>
  <clipPath id="p9513f0b954">
   <rect height="266.112" width="357.12" x="57.6" y="41.472"/>
  </clipPath>
 </defs>
</svg>
