<?xml version="1.0" encoding="utf-8" standalone="no"?>
<!DOCTYPE svg PUBLIC "-//W3C//DTD SVG 1.1//EN"
  "http://www.w3.org/Graphics/SVG/1.1/DTD/svg11.dtd">
<!-- Created with matplotlib (https://matplotlib.org/) -->
<svg height="345.6pt" version="1.1" viewBox="0 0 460.8 345.6" width="460.8pt" xmlns="http://www.w3.org/2000/svg" xmlns:xlink="http://www.w3.org/1999/xlink">
 <defs>
  <style type="text/css">
*{stroke-linecap:butt;stroke-linejoin:round;}
  </style>
 </defs>
 <g id="figure_1">
  <g id="patch_1">
   <path d="M 0 345.6 
L 460.8 345.6 
L 460.8 0 
L 0 0 
z
" style="fill:#ffffff;"/>
  </g>
  <g id="axes_1">
   <g id="patch_2">
    <path d="M 57.6 307.584 
L 414.72 307.584 
L 414.72 41.472 
L 57.6 41.472 
z
" style="fill:#ffffff;"/>
   </g>
   <g id="line2d_1">
    <path clip-path="url(#pfdc80282ed)" d="M 73.832727 254.164889 
L 75.067155 242.537819 
L 76.301583 242.537819 
L 77.536011 295.488 
L 82.473723 295.488 
L 83.708151 245.428473 
L 84.942579 245.428473 
L 86.177007 245.858886 
L 88.645862 245.858886 
L 89.88029 255.405381 
L 91.114718 255.405381 
L 92.349146 199.101979 
L 97.286858 199.101979 
L 98.521286 191.333525 
L 99.755714 191.333525 
L 100.990142 139.873135 
L 102.22457 139.873135 
L 103.458998 90.949103 
L 105.927853 90.949103 
L 107.162281 146.829501 
L 108.396709 146.829501 
L 109.631137 147.430655 
L 110.865565 147.430655 
L 112.099993 164.98855 
L 113.334421 164.98855 
L 114.568849 183.102797 
L 115.803277 183.102797 
L 117.037705 201.205725 
L 119.506561 201.205725 
L 120.740989 184.250819 
L 123.209844 184.250819 
L 124.444272 202.465476 
L 125.6787 202.465476 
L 126.913128 218.916118 
L 128.147556 218.916118 
L 129.381984 237.052362 
L 130.616412 237.052362 
L 131.85084 239.904894 
L 133.085268 239.904894 
L 134.319696 222.460471 
L 135.554124 222.460471 
L 136.788552 225.055989 
L 138.02298 207.237544 
L 140.491835 207.237544 
L 141.726263 189.113224 
L 142.960691 205.511276 
L 145.429547 205.511276 
L 146.663975 224.482727 
L 149.132831 224.482727 
L 150.367259 205.47035 
L 151.601687 205.47035 
L 152.836115 188.261333 
L 154.070543 188.261333 
L 155.304971 192.858713 
L 156.539399 192.858713 
L 157.773826 193.242068 
L 159.008254 193.242068 
L 160.242682 212.487181 
L 161.47711 212.487181 
L 162.711538 194.305501 
L 163.945966 193.56918 
L 165.180394 193.56918 
L 166.414822 211.561234 
L 167.64925 211.561234 
L 170.118106 176.154874 
L 171.352534 176.154874 
L 172.586962 159.51204 
L 177.524673 159.51204 
L 178.759101 144.820642 
L 179.993529 144.820642 
L 181.227957 128.627976 
L 182.462385 128.627976 
L 183.696813 111.591042 
L 184.931241 111.591042 
L 186.165669 96.369452 
L 187.400097 96.369452 
L 188.634525 78.854142 
L 189.868953 78.854142 
L 191.103381 98.555846 
L 192.337809 98.555846 
L 193.572236 83.645932 
L 196.041092 83.645932 
L 197.27552 68.11332 
L 198.509948 89.225791 
L 200.978804 89.225791 
L 202.213232 106.370325 
L 204.682088 106.370325 
L 205.916516 104.655438 
L 207.150944 122.750564 
L 217.026367 122.750564 
L 218.260795 142.00757 
L 219.495223 142.00757 
L 220.729651 122.536447 
L 221.964079 122.536447 
L 223.198507 107.40524 
L 224.432935 124.73557 
L 226.901791 124.73557 
L 228.136218 142.935033 
L 229.370646 142.935033 
L 230.605074 148.770361 
L 231.839502 148.770361 
L 233.07393 164.350185 
L 234.308358 164.350185 
L 235.542786 148.2717 
L 236.777214 148.2717 
L 238.011642 132.50237 
L 240.480498 132.50237 
L 241.714926 149.589649 
L 242.949354 134.243483 
L 244.183782 134.243483 
L 245.418209 118.568003 
L 246.652637 118.568003 
L 247.887065 135.434303 
L 249.121493 135.434303 
L 250.355921 140.616293 
L 252.824777 140.616293 
L 254.059205 123.311414 
L 256.528061 123.311414 
L 257.762489 128.293114 
L 258.996917 110.756333 
L 261.465773 110.756333 
L 262.7002 109.734979 
L 263.934628 109.734979 
L 265.169056 93.029376 
L 266.403484 93.029376 
L 267.637912 111.545313 
L 268.87234 92.845614 
L 270.106768 92.845614 
L 271.341196 75.455243 
L 272.575624 75.455243 
L 273.810052 60.226581 
L 275.04448 60.226581 
L 276.278908 78.847185 
L 277.513336 84.123854 
L 278.747764 84.123854 
L 279.982191 84.238021 
L 283.685475 84.33559 
L 284.919903 67.854029 
L 286.154331 67.854029 
L 287.388759 53.568 
L 291.092043 53.568 
L 292.326471 71.381406 
L 293.560899 71.381406 
L 294.795327 54.195594 
L 296.029755 54.195594 
L 297.264183 75.60744 
L 298.49861 75.60744 
L 299.733038 61.743726 
L 300.967466 61.743726 
L 302.201894 68.637865 
L 398.487273 68.637865 
L 398.487273 68.637865 
" style="fill:none;stroke:#ff0000;stroke-linecap:square;stroke-width:12;"/>
    <defs>
     <path d="M 0 3 
C 0.795609 3 1.55874 2.683901 2.12132 2.12132 
C 2.683901 1.55874 3 0.795609 3 0 
C 3 -0.795609 2.683901 -1.55874 2.12132 -2.12132 
C 1.55874 -2.683901 0.795609 -3 0 -3 
C -0.795609 -3 -1.55874 -2.683901 -2.12132 -2.12132 
C -2.683901 -1.55874 -3 -0.795609 -3 0 
C -3 0.795609 -2.683901 1.55874 -2.12132 2.12132 
C -1.55874 2.683901 -0.795609 3 0 3 
z
" id="mea1c3ba1b9" style="stroke:#ff0000;"/>
    </defs>
    <g clip-path="url(#pfdc80282ed)">
     <use style="fill:#ff0000;stroke:#ff0000;" x="73.832727" xlink:href="#mea1c3ba1b9" y="254.164889"/>
     <use style="fill:#ff0000;stroke:#ff0000;" x="75.067155" xlink:href="#mea1c3ba1b9" y="242.537819"/>
     <use style="fill:#ff0000;stroke:#ff0000;" x="76.301583" xlink:href="#mea1c3ba1b9" y="242.537819"/>
     <use style="fill:#ff0000;stroke:#ff0000;" x="77.536011" xlink:href="#mea1c3ba1b9" y="295.488"/>
     <use style="fill:#ff0000;stroke:#ff0000;" x="78.770439" xlink:href="#mea1c3ba1b9" y="295.488"/>
     <use style="fill:#ff0000;stroke:#ff0000;" x="80.004867" xlink:href="#mea1c3ba1b9" y="295.488"/>
     <use style="fill:#ff0000;stroke:#ff0000;" x="81.239295" xlink:href="#mea1c3ba1b9" y="295.488"/>
     <use style="fill:#ff0000;stroke:#ff0000;" x="82.473723" xlink:href="#mea1c3ba1b9" y="295.488"/>
     <use style="fill:#ff0000;stroke:#ff0000;" x="83.708151" xlink:href="#mea1c3ba1b9" y="245.428473"/>
     <use style="fill:#ff0000;stroke:#ff0000;" x="84.942579" xlink:href="#mea1c3ba1b9" y="245.428473"/>
     <use style="fill:#ff0000;stroke:#ff0000;" x="86.177007" xlink:href="#mea1c3ba1b9" y="245.858886"/>
     <use style="fill:#ff0000;stroke:#ff0000;" x="87.411434" xlink:href="#mea1c3ba1b9" y="245.858886"/>
     <use style="fill:#ff0000;stroke:#ff0000;" x="88.645862" xlink:href="#mea1c3ba1b9" y="245.858886"/>
     <use style="fill:#ff0000;stroke:#ff0000;" x="89.88029" xlink:href="#mea1c3ba1b9" y="255.405381"/>
     <use style="fill:#ff0000;stroke:#ff0000;" x="91.114718" xlink:href="#mea1c3ba1b9" y="255.405381"/>
     <use style="fill:#ff0000;stroke:#ff0000;" x="92.349146" xlink:href="#mea1c3ba1b9" y="199.101979"/>
     <use style="fill:#ff0000;stroke:#ff0000;" x="93.583574" xlink:href="#mea1c3ba1b9" y="199.101979"/>
     <use style="fill:#ff0000;stroke:#ff0000;" x="94.818002" xlink:href="#mea1c3ba1b9" y="199.101979"/>
     <use style="fill:#ff0000;stroke:#ff0000;" x="96.05243" xlink:href="#mea1c3ba1b9" y="199.101979"/>
     <use style="fill:#ff0000;stroke:#ff0000;" x="97.286858" xlink:href="#mea1c3ba1b9" y="199.101979"/>
     <use style="fill:#ff0000;stroke:#ff0000;" x="98.521286" xlink:href="#mea1c3ba1b9" y="191.333525"/>
     <use style="fill:#ff0000;stroke:#ff0000;" x="99.755714" xlink:href="#mea1c3ba1b9" y="191.333525"/>
     <use style="fill:#ff0000;stroke:#ff0000;" x="100.990142" xlink:href="#mea1c3ba1b9" y="139.873135"/>
     <use style="fill:#ff0000;stroke:#ff0000;" x="102.22457" xlink:href="#mea1c3ba1b9" y="139.873135"/>
     <use style="fill:#ff0000;stroke:#ff0000;" x="103.458998" xlink:href="#mea1c3ba1b9" y="90.949103"/>
     <use style="fill:#ff0000;stroke:#ff0000;" x="104.693426" xlink:href="#mea1c3ba1b9" y="90.949103"/>
     <use style="fill:#ff0000;stroke:#ff0000;" x="105.927853" xlink:href="#mea1c3ba1b9" y="90.949103"/>
     <use style="fill:#ff0000;stroke:#ff0000;" x="107.162281" xlink:href="#mea1c3ba1b9" y="146.829501"/>
     <use style="fill:#ff0000;stroke:#ff0000;" x="108.396709" xlink:href="#mea1c3ba1b9" y="146.829501"/>
     <use style="fill:#ff0000;stroke:#ff0000;" x="109.631137" xlink:href="#mea1c3ba1b9" y="147.430655"/>
     <use style="fill:#ff0000;stroke:#ff0000;" x="110.865565" xlink:href="#mea1c3ba1b9" y="147.430655"/>
     <use style="fill:#ff0000;stroke:#ff0000;" x="112.099993" xlink:href="#mea1c3ba1b9" y="164.98855"/>
     <use style="fill:#ff0000;stroke:#ff0000;" x="113.334421" xlink:href="#mea1c3ba1b9" y="164.98855"/>
     <use style="fill:#ff0000;stroke:#ff0000;" x="114.568849" xlink:href="#mea1c3ba1b9" y="183.102797"/>
     <use style="fill:#ff0000;stroke:#ff0000;" x="115.803277" xlink:href="#mea1c3ba1b9" y="183.102797"/>
     <use style="fill:#ff0000;stroke:#ff0000;" x="117.037705" xlink:href="#mea1c3ba1b9" y="201.205725"/>
     <use style="fill:#ff0000;stroke:#ff0000;" x="118.272133" xlink:href="#mea1c3ba1b9" y="201.205725"/>
     <use style="fill:#ff0000;stroke:#ff0000;" x="119.506561" xlink:href="#mea1c3ba1b9" y="201.205725"/>
     <use style="fill:#ff0000;stroke:#ff0000;" x="120.740989" xlink:href="#mea1c3ba1b9" y="184.250819"/>
     <use style="fill:#ff0000;stroke:#ff0000;" x="121.975417" xlink:href="#mea1c3ba1b9" y="184.250819"/>
     <use style="fill:#ff0000;stroke:#ff0000;" x="123.209844" xlink:href="#mea1c3ba1b9" y="184.250819"/>
     <use style="fill:#ff0000;stroke:#ff0000;" x="124.444272" xlink:href="#mea1c3ba1b9" y="202.465476"/>
     <use style="fill:#ff0000;stroke:#ff0000;" x="125.6787" xlink:href="#mea1c3ba1b9" y="202.465476"/>
     <use style="fill:#ff0000;stroke:#ff0000;" x="126.913128" xlink:href="#mea1c3ba1b9" y="218.916118"/>
     <use style="fill:#ff0000;stroke:#ff0000;" x="128.147556" xlink:href="#mea1c3ba1b9" y="218.916118"/>
     <use style="fill:#ff0000;stroke:#ff0000;" x="129.381984" xlink:href="#mea1c3ba1b9" y="237.052362"/>
     <use style="fill:#ff0000;stroke:#ff0000;" x="130.616412" xlink:href="#mea1c3ba1b9" y="237.052362"/>
     <use style="fill:#ff0000;stroke:#ff0000;" x="131.85084" xlink:href="#mea1c3ba1b9" y="239.904894"/>
     <use style="fill:#ff0000;stroke:#ff0000;" x="133.085268" xlink:href="#mea1c3ba1b9" y="239.904894"/>
     <use style="fill:#ff0000;stroke:#ff0000;" x="134.319696" xlink:href="#mea1c3ba1b9" y="222.460471"/>
     <use style="fill:#ff0000;stroke:#ff0000;" x="135.554124" xlink:href="#mea1c3ba1b9" y="222.460471"/>
     <use style="fill:#ff0000;stroke:#ff0000;" x="136.788552" xlink:href="#mea1c3ba1b9" y="225.055989"/>
     <use style="fill:#ff0000;stroke:#ff0000;" x="138.02298" xlink:href="#mea1c3ba1b9" y="207.237544"/>
     <use style="fill:#ff0000;stroke:#ff0000;" x="139.257408" xlink:href="#mea1c3ba1b9" y="207.237544"/>
     <use style="fill:#ff0000;stroke:#ff0000;" x="140.491835" xlink:href="#mea1c3ba1b9" y="207.237544"/>
     <use style="fill:#ff0000;stroke:#ff0000;" x="141.726263" xlink:href="#mea1c3ba1b9" y="189.113224"/>
     <use style="fill:#ff0000;stroke:#ff0000;" x="142.960691" xlink:href="#mea1c3ba1b9" y="205.511276"/>
     <use style="fill:#ff0000;stroke:#ff0000;" x="144.195119" xlink:href="#mea1c3ba1b9" y="205.511276"/>
     <use style="fill:#ff0000;stroke:#ff0000;" x="145.429547" xlink:href="#mea1c3ba1b9" y="205.511276"/>
     <use style="fill:#ff0000;stroke:#ff0000;" x="146.663975" xlink:href="#mea1c3ba1b9" y="224.482727"/>
     <use style="fill:#ff0000;stroke:#ff0000;" x="147.898403" xlink:href="#mea1c3ba1b9" y="224.482727"/>
     <use style="fill:#ff0000;stroke:#ff0000;" x="149.132831" xlink:href="#mea1c3ba1b9" y="224.482727"/>
     <use style="fill:#ff0000;stroke:#ff0000;" x="150.367259" xlink:href="#mea1c3ba1b9" y="205.47035"/>
     <use style="fill:#ff0000;stroke:#ff0000;" x="151.601687" xlink:href="#mea1c3ba1b9" y="205.47035"/>
     <use style="fill:#ff0000;stroke:#ff0000;" x="152.836115" xlink:href="#mea1c3ba1b9" y="188.261333"/>
     <use style="fill:#ff0000;stroke:#ff0000;" x="154.070543" xlink:href="#mea1c3ba1b9" y="188.261333"/>
     <use style="fill:#ff0000;stroke:#ff0000;" x="155.304971" xlink:href="#mea1c3ba1b9" y="192.858713"/>
     <use style="fill:#ff0000;stroke:#ff0000;" x="156.539399" xlink:href="#mea1c3ba1b9" y="192.858713"/>
     <use style="fill:#ff0000;stroke:#ff0000;" x="157.773826" xlink:href="#mea1c3ba1b9" y="193.242068"/>
     <use style="fill:#ff0000;stroke:#ff0000;" x="159.008254" xlink:href="#mea1c3ba1b9" y="193.242068"/>
     <use style="fill:#ff0000;stroke:#ff0000;" x="160.242682" xlink:href="#mea1c3ba1b9" y="212.487181"/>
     <use style="fill:#ff0000;stroke:#ff0000;" x="161.47711" xlink:href="#mea1c3ba1b9" y="212.487181"/>
     <use style="fill:#ff0000;stroke:#ff0000;" x="162.711538" xlink:href="#mea1c3ba1b9" y="194.305501"/>
     <use style="fill:#ff0000;stroke:#ff0000;" x="163.945966" xlink:href="#mea1c3ba1b9" y="193.56918"/>
     <use style="fill:#ff0000;stroke:#ff0000;" x="165.180394" xlink:href="#mea1c3ba1b9" y="193.56918"/>
     <use style="fill:#ff0000;stroke:#ff0000;" x="166.414822" xlink:href="#mea1c3ba1b9" y="211.561234"/>
     <use style="fill:#ff0000;stroke:#ff0000;" x="167.64925" xlink:href="#mea1c3ba1b9" y="211.561234"/>
     <use style="fill:#ff0000;stroke:#ff0000;" x="168.883678" xlink:href="#mea1c3ba1b9" y="193.822256"/>
     <use style="fill:#ff0000;stroke:#ff0000;" x="170.118106" xlink:href="#mea1c3ba1b9" y="176.154874"/>
     <use style="fill:#ff0000;stroke:#ff0000;" x="171.352534" xlink:href="#mea1c3ba1b9" y="176.154874"/>
     <use style="fill:#ff0000;stroke:#ff0000;" x="172.586962" xlink:href="#mea1c3ba1b9" y="159.51204"/>
     <use style="fill:#ff0000;stroke:#ff0000;" x="173.82139" xlink:href="#mea1c3ba1b9" y="159.51204"/>
     <use style="fill:#ff0000;stroke:#ff0000;" x="175.055817" xlink:href="#mea1c3ba1b9" y="159.51204"/>
     <use style="fill:#ff0000;stroke:#ff0000;" x="176.290245" xlink:href="#mea1c3ba1b9" y="159.51204"/>
     <use style="fill:#ff0000;stroke:#ff0000;" x="177.524673" xlink:href="#mea1c3ba1b9" y="159.51204"/>
     <use style="fill:#ff0000;stroke:#ff0000;" x="178.759101" xlink:href="#mea1c3ba1b9" y="144.820642"/>
     <use style="fill:#ff0000;stroke:#ff0000;" x="179.993529" xlink:href="#mea1c3ba1b9" y="144.820642"/>
     <use style="fill:#ff0000;stroke:#ff0000;" x="181.227957" xlink:href="#mea1c3ba1b9" y="128.627976"/>
     <use style="fill:#ff0000;stroke:#ff0000;" x="182.462385" xlink:href="#mea1c3ba1b9" y="128.627976"/>
     <use style="fill:#ff0000;stroke:#ff0000;" x="183.696813" xlink:href="#mea1c3ba1b9" y="111.591042"/>
     <use style="fill:#ff0000;stroke:#ff0000;" x="184.931241" xlink:href="#mea1c3ba1b9" y="111.591042"/>
     <use style="fill:#ff0000;stroke:#ff0000;" x="186.165669" xlink:href="#mea1c3ba1b9" y="96.369452"/>
     <use style="fill:#ff0000;stroke:#ff0000;" x="187.400097" xlink:href="#mea1c3ba1b9" y="96.369452"/>
     <use style="fill:#ff0000;stroke:#ff0000;" x="188.634525" xlink:href="#mea1c3ba1b9" y="78.854142"/>
     <use style="fill:#ff0000;stroke:#ff0000;" x="189.868953" xlink:href="#mea1c3ba1b9" y="78.854142"/>
     <use style="fill:#ff0000;stroke:#ff0000;" x="191.103381" xlink:href="#mea1c3ba1b9" y="98.555846"/>
     <use style="fill:#ff0000;stroke:#ff0000;" x="192.337809" xlink:href="#mea1c3ba1b9" y="98.555846"/>
     <use style="fill:#ff0000;stroke:#ff0000;" x="193.572236" xlink:href="#mea1c3ba1b9" y="83.645932"/>
     <use style="fill:#ff0000;stroke:#ff0000;" x="194.806664" xlink:href="#mea1c3ba1b9" y="83.645932"/>
     <use style="fill:#ff0000;stroke:#ff0000;" x="196.041092" xlink:href="#mea1c3ba1b9" y="83.645932"/>
     <use style="fill:#ff0000;stroke:#ff0000;" x="197.27552" xlink:href="#mea1c3ba1b9" y="68.11332"/>
     <use style="fill:#ff0000;stroke:#ff0000;" x="198.509948" xlink:href="#mea1c3ba1b9" y="89.225791"/>
     <use style="fill:#ff0000;stroke:#ff0000;" x="199.744376" xlink:href="#mea1c3ba1b9" y="89.225791"/>
     <use style="fill:#ff0000;stroke:#ff0000;" x="200.978804" xlink:href="#mea1c3ba1b9" y="89.225791"/>
     <use style="fill:#ff0000;stroke:#ff0000;" x="202.213232" xlink:href="#mea1c3ba1b9" y="106.370325"/>
     <use style="fill:#ff0000;stroke:#ff0000;" x="203.44766" xlink:href="#mea1c3ba1b9" y="106.370325"/>
     <use style="fill:#ff0000;stroke:#ff0000;" x="204.682088" xlink:href="#mea1c3ba1b9" y="106.370325"/>
     <use style="fill:#ff0000;stroke:#ff0000;" x="205.916516" xlink:href="#mea1c3ba1b9" y="104.655438"/>
     <use style="fill:#ff0000;stroke:#ff0000;" x="207.150944" xlink:href="#mea1c3ba1b9" y="122.750564"/>
     <use style="fill:#ff0000;stroke:#ff0000;" x="208.385372" xlink:href="#mea1c3ba1b9" y="122.750564"/>
     <use style="fill:#ff0000;stroke:#ff0000;" x="209.6198" xlink:href="#mea1c3ba1b9" y="122.750564"/>
     <use style="fill:#ff0000;stroke:#ff0000;" x="210.854227" xlink:href="#mea1c3ba1b9" y="122.750564"/>
     <use style="fill:#ff0000;stroke:#ff0000;" x="212.088655" xlink:href="#mea1c3ba1b9" y="122.750564"/>
     <use style="fill:#ff0000;stroke:#ff0000;" x="213.323083" xlink:href="#mea1c3ba1b9" y="122.750564"/>
     <use style="fill:#ff0000;stroke:#ff0000;" x="214.557511" xlink:href="#mea1c3ba1b9" y="122.750564"/>
     <use style="fill:#ff0000;stroke:#ff0000;" x="215.791939" xlink:href="#mea1c3ba1b9" y="122.750564"/>
     <use style="fill:#ff0000;stroke:#ff0000;" x="217.026367" xlink:href="#mea1c3ba1b9" y="122.750564"/>
     <use style="fill:#ff0000;stroke:#ff0000;" x="218.260795" xlink:href="#mea1c3ba1b9" y="142.00757"/>
     <use style="fill:#ff0000;stroke:#ff0000;" x="219.495223" xlink:href="#mea1c3ba1b9" y="142.00757"/>
     <use style="fill:#ff0000;stroke:#ff0000;" x="220.729651" xlink:href="#mea1c3ba1b9" y="122.536447"/>
     <use style="fill:#ff0000;stroke:#ff0000;" x="221.964079" xlink:href="#mea1c3ba1b9" y="122.536447"/>
     <use style="fill:#ff0000;stroke:#ff0000;" x="223.198507" xlink:href="#mea1c3ba1b9" y="107.40524"/>
     <use style="fill:#ff0000;stroke:#ff0000;" x="224.432935" xlink:href="#mea1c3ba1b9" y="124.73557"/>
     <use style="fill:#ff0000;stroke:#ff0000;" x="225.667363" xlink:href="#mea1c3ba1b9" y="124.73557"/>
     <use style="fill:#ff0000;stroke:#ff0000;" x="226.901791" xlink:href="#mea1c3ba1b9" y="124.73557"/>
     <use style="fill:#ff0000;stroke:#ff0000;" x="228.136218" xlink:href="#mea1c3ba1b9" y="142.935033"/>
     <use style="fill:#ff0000;stroke:#ff0000;" x="229.370646" xlink:href="#mea1c3ba1b9" y="142.935033"/>
     <use style="fill:#ff0000;stroke:#ff0000;" x="230.605074" xlink:href="#mea1c3ba1b9" y="148.770361"/>
     <use style="fill:#ff0000;stroke:#ff0000;" x="231.839502" xlink:href="#mea1c3ba1b9" y="148.770361"/>
     <use style="fill:#ff0000;stroke:#ff0000;" x="233.07393" xlink:href="#mea1c3ba1b9" y="164.350185"/>
     <use style="fill:#ff0000;stroke:#ff0000;" x="234.308358" xlink:href="#mea1c3ba1b9" y="164.350185"/>
     <use style="fill:#ff0000;stroke:#ff0000;" x="235.542786" xlink:href="#mea1c3ba1b9" y="148.2717"/>
     <use style="fill:#ff0000;stroke:#ff0000;" x="236.777214" xlink:href="#mea1c3ba1b9" y="148.2717"/>
     <use style="fill:#ff0000;stroke:#ff0000;" x="238.011642" xlink:href="#mea1c3ba1b9" y="132.50237"/>
     <use style="fill:#ff0000;stroke:#ff0000;" x="239.24607" xlink:href="#mea1c3ba1b9" y="132.50237"/>
     <use style="fill:#ff0000;stroke:#ff0000;" x="240.480498" xlink:href="#mea1c3ba1b9" y="132.50237"/>
     <use style="fill:#ff0000;stroke:#ff0000;" x="241.714926" xlink:href="#mea1c3ba1b9" y="149.589649"/>
     <use style="fill:#ff0000;stroke:#ff0000;" x="242.949354" xlink:href="#mea1c3ba1b9" y="134.243483"/>
     <use style="fill:#ff0000;stroke:#ff0000;" x="244.183782" xlink:href="#mea1c3ba1b9" y="134.243483"/>
     <use style="fill:#ff0000;stroke:#ff0000;" x="245.418209" xlink:href="#mea1c3ba1b9" y="118.568003"/>
     <use style="fill:#ff0000;stroke:#ff0000;" x="246.652637" xlink:href="#mea1c3ba1b9" y="118.568003"/>
     <use style="fill:#ff0000;stroke:#ff0000;" x="247.887065" xlink:href="#mea1c3ba1b9" y="135.434303"/>
     <use style="fill:#ff0000;stroke:#ff0000;" x="249.121493" xlink:href="#mea1c3ba1b9" y="135.434303"/>
     <use style="fill:#ff0000;stroke:#ff0000;" x="250.355921" xlink:href="#mea1c3ba1b9" y="140.616293"/>
     <use style="fill:#ff0000;stroke:#ff0000;" x="251.590349" xlink:href="#mea1c3ba1b9" y="140.616293"/>
     <use style="fill:#ff0000;stroke:#ff0000;" x="252.824777" xlink:href="#mea1c3ba1b9" y="140.616293"/>
     <use style="fill:#ff0000;stroke:#ff0000;" x="254.059205" xlink:href="#mea1c3ba1b9" y="123.311414"/>
     <use style="fill:#ff0000;stroke:#ff0000;" x="255.293633" xlink:href="#mea1c3ba1b9" y="123.311414"/>
     <use style="fill:#ff0000;stroke:#ff0000;" x="256.528061" xlink:href="#mea1c3ba1b9" y="123.311414"/>
     <use style="fill:#ff0000;stroke:#ff0000;" x="257.762489" xlink:href="#mea1c3ba1b9" y="128.293114"/>
     <use style="fill:#ff0000;stroke:#ff0000;" x="258.996917" xlink:href="#mea1c3ba1b9" y="110.756333"/>
     <use style="fill:#ff0000;stroke:#ff0000;" x="260.231345" xlink:href="#mea1c3ba1b9" y="110.756333"/>
     <use style="fill:#ff0000;stroke:#ff0000;" x="261.465773" xlink:href="#mea1c3ba1b9" y="110.756333"/>
     <use style="fill:#ff0000;stroke:#ff0000;" x="262.7002" xlink:href="#mea1c3ba1b9" y="109.734979"/>
     <use style="fill:#ff0000;stroke:#ff0000;" x="263.934628" xlink:href="#mea1c3ba1b9" y="109.734979"/>
     <use style="fill:#ff0000;stroke:#ff0000;" x="265.169056" xlink:href="#mea1c3ba1b9" y="93.029376"/>
     <use style="fill:#ff0000;stroke:#ff0000;" x="266.403484" xlink:href="#mea1c3ba1b9" y="93.029376"/>
     <use style="fill:#ff0000;stroke:#ff0000;" x="267.637912" xlink:href="#mea1c3ba1b9" y="111.545313"/>
     <use style="fill:#ff0000;stroke:#ff0000;" x="268.87234" xlink:href="#mea1c3ba1b9" y="92.845614"/>
     <use style="fill:#ff0000;stroke:#ff0000;" x="270.106768" xlink:href="#mea1c3ba1b9" y="92.845614"/>
     <use style="fill:#ff0000;stroke:#ff0000;" x="271.341196" xlink:href="#mea1c3ba1b9" y="75.455243"/>
     <use style="fill:#ff0000;stroke:#ff0000;" x="272.575624" xlink:href="#mea1c3ba1b9" y="75.455243"/>
     <use style="fill:#ff0000;stroke:#ff0000;" x="273.810052" xlink:href="#mea1c3ba1b9" y="60.226581"/>
     <use style="fill:#ff0000;stroke:#ff0000;" x="275.04448" xlink:href="#mea1c3ba1b9" y="60.226581"/>
     <use style="fill:#ff0000;stroke:#ff0000;" x="276.278908" xlink:href="#mea1c3ba1b9" y="78.847185"/>
     <use style="fill:#ff0000;stroke:#ff0000;" x="277.513336" xlink:href="#mea1c3ba1b9" y="84.123854"/>
     <use style="fill:#ff0000;stroke:#ff0000;" x="278.747764" xlink:href="#mea1c3ba1b9" y="84.123854"/>
     <use style="fill:#ff0000;stroke:#ff0000;" x="279.982191" xlink:href="#mea1c3ba1b9" y="84.238021"/>
     <use style="fill:#ff0000;stroke:#ff0000;" x="281.216619" xlink:href="#mea1c3ba1b9" y="84.238021"/>
     <use style="fill:#ff0000;stroke:#ff0000;" x="282.451047" xlink:href="#mea1c3ba1b9" y="84.33559"/>
     <use style="fill:#ff0000;stroke:#ff0000;" x="283.685475" xlink:href="#mea1c3ba1b9" y="84.33559"/>
     <use style="fill:#ff0000;stroke:#ff0000;" x="284.919903" xlink:href="#mea1c3ba1b9" y="67.854029"/>
     <use style="fill:#ff0000;stroke:#ff0000;" x="286.154331" xlink:href="#mea1c3ba1b9" y="67.854029"/>
     <use style="fill:#ff0000;stroke:#ff0000;" x="287.388759" xlink:href="#mea1c3ba1b9" y="53.568"/>
     <use style="fill:#ff0000;stroke:#ff0000;" x="288.623187" xlink:href="#mea1c3ba1b9" y="53.568"/>
     <use style="fill:#ff0000;stroke:#ff0000;" x="289.857615" xlink:href="#mea1c3ba1b9" y="53.568"/>
     <use style="fill:#ff0000;stroke:#ff0000;" x="291.092043" xlink:href="#mea1c3ba1b9" y="53.568"/>
     <use style="fill:#ff0000;stroke:#ff0000;" x="292.326471" xlink:href="#mea1c3ba1b9" y="71.381406"/>
     <use style="fill:#ff0000;stroke:#ff0000;" x="293.560899" xlink:href="#mea1c3ba1b9" y="71.381406"/>
     <use style="fill:#ff0000;stroke:#ff0000;" x="294.795327" xlink:href="#mea1c3ba1b9" y="54.195594"/>
     <use style="fill:#ff0000;stroke:#ff0000;" x="296.029755" xlink:href="#mea1c3ba1b9" y="54.195594"/>
     <use style="fill:#ff0000;stroke:#ff0000;" x="297.264183" xlink:href="#mea1c3ba1b9" y="75.60744"/>
     <use style="fill:#ff0000;stroke:#ff0000;" x="298.49861" xlink:href="#mea1c3ba1b9" y="75.60744"/>
     <use style="fill:#ff0000;stroke:#ff0000;" x="299.733038" xlink:href="#mea1c3ba1b9" y="61.743726"/>
     <use style="fill:#ff0000;stroke:#ff0000;" x="300.967466" xlink:href="#mea1c3ba1b9" y="61.743726"/>
     <use style="fill:#ff0000;stroke:#ff0000;" x="302.201894" xlink:href="#mea1c3ba1b9" y="68.637865"/>
     <use style="fill:#ff0000;stroke:#ff0000;" x="303.436322" xlink:href="#mea1c3ba1b9" y="68.637865"/>
     <use style="fill:#ff0000;stroke:#ff0000;" x="304.67075" xlink:href="#mea1c3ba1b9" y="68.637865"/>
     <use style="fill:#ff0000;stroke:#ff0000;" x="305.905178" xlink:href="#mea1c3ba1b9" y="68.637865"/>
     <use style="fill:#ff0000;stroke:#ff0000;" x="307.139606" xlink:href="#mea1c3ba1b9" y="68.637865"/>
     <use style="fill:#ff0000;stroke:#ff0000;" x="308.374034" xlink:href="#mea1c3ba1b9" y="68.637865"/>
     <use style="fill:#ff0000;stroke:#ff0000;" x="309.608462" xlink:href="#mea1c3ba1b9" y="68.637865"/>
     <use style="fill:#ff0000;stroke:#ff0000;" x="310.84289" xlink:href="#mea1c3ba1b9" y="68.637865"/>
     <use style="fill:#ff0000;stroke:#ff0000;" x="312.077318" xlink:href="#mea1c3ba1b9" y="68.637865"/>
     <use style="fill:#ff0000;stroke:#ff0000;" x="313.311746" xlink:href="#mea1c3ba1b9" y="68.637865"/>
     <use style="fill:#ff0000;stroke:#ff0000;" x="314.546174" xlink:href="#mea1c3ba1b9" y="68.637865"/>
     <use style="fill:#ff0000;stroke:#ff0000;" x="315.780601" xlink:href="#mea1c3ba1b9" y="68.637865"/>
     <use style="fill:#ff0000;stroke:#ff0000;" x="317.015029" xlink:href="#mea1c3ba1b9" y="68.637865"/>
     <use style="fill:#ff0000;stroke:#ff0000;" x="318.249457" xlink:href="#mea1c3ba1b9" y="68.637865"/>
     <use style="fill:#ff0000;stroke:#ff0000;" x="319.483885" xlink:href="#mea1c3ba1b9" y="68.637865"/>
     <use style="fill:#ff0000;stroke:#ff0000;" x="320.718313" xlink:href="#mea1c3ba1b9" y="68.637865"/>
     <use style="fill:#ff0000;stroke:#ff0000;" x="321.952741" xlink:href="#mea1c3ba1b9" y="68.637865"/>
     <use style="fill:#ff0000;stroke:#ff0000;" x="323.187169" xlink:href="#mea1c3ba1b9" y="68.637865"/>
     <use style="fill:#ff0000;stroke:#ff0000;" x="324.421597" xlink:href="#mea1c3ba1b9" y="68.637865"/>
     <use style="fill:#ff0000;stroke:#ff0000;" x="325.656025" xlink:href="#mea1c3ba1b9" y="68.637865"/>
     <use style="fill:#ff0000;stroke:#ff0000;" x="326.890453" xlink:href="#mea1c3ba1b9" y="68.637865"/>
     <use style="fill:#ff0000;stroke:#ff0000;" x="328.124881" xlink:href="#mea1c3ba1b9" y="68.637865"/>
     <use style="fill:#ff0000;stroke:#ff0000;" x="329.359309" xlink:href="#mea1c3ba1b9" y="68.637865"/>
     <use style="fill:#ff0000;stroke:#ff0000;" x="330.593737" xlink:href="#mea1c3ba1b9" y="68.637865"/>
     <use style="fill:#ff0000;stroke:#ff0000;" x="331.828165" xlink:href="#mea1c3ba1b9" y="68.637865"/>
     <use style="fill:#ff0000;stroke:#ff0000;" x="333.062592" xlink:href="#mea1c3ba1b9" y="68.637865"/>
     <use style="fill:#ff0000;stroke:#ff0000;" x="334.29702" xlink:href="#mea1c3ba1b9" y="68.637865"/>
     <use style="fill:#ff0000;stroke:#ff0000;" x="335.531448" xlink:href="#mea1c3ba1b9" y="68.637865"/>
     <use style="fill:#ff0000;stroke:#ff0000;" x="336.765876" xlink:href="#mea1c3ba1b9" y="68.637865"/>
     <use style="fill:#ff0000;stroke:#ff0000;" x="338.000304" xlink:href="#mea1c3ba1b9" y="68.637865"/>
     <use style="fill:#ff0000;stroke:#ff0000;" x="339.234732" xlink:href="#mea1c3ba1b9" y="68.637865"/>
     <use style="fill:#ff0000;stroke:#ff0000;" x="340.46916" xlink:href="#mea1c3ba1b9" y="68.637865"/>
     <use style="fill:#ff0000;stroke:#ff0000;" x="341.703588" xlink:href="#mea1c3ba1b9" y="68.637865"/>
     <use style="fill:#ff0000;stroke:#ff0000;" x="342.938016" xlink:href="#mea1c3ba1b9" y="68.637865"/>
     <use style="fill:#ff0000;stroke:#ff0000;" x="344.172444" xlink:href="#mea1c3ba1b9" y="68.637865"/>
     <use style="fill:#ff0000;stroke:#ff0000;" x="345.406872" xlink:href="#mea1c3ba1b9" y="68.637865"/>
     <use style="fill:#ff0000;stroke:#ff0000;" x="346.6413" xlink:href="#mea1c3ba1b9" y="68.637865"/>
     <use style="fill:#ff0000;stroke:#ff0000;" x="347.875728" xlink:href="#mea1c3ba1b9" y="68.637865"/>
     <use style="fill:#ff0000;stroke:#ff0000;" x="349.110156" xlink:href="#mea1c3ba1b9" y="68.637865"/>
     <use style="fill:#ff0000;stroke:#ff0000;" x="350.344583" xlink:href="#mea1c3ba1b9" y="68.637865"/>
     <use style="fill:#ff0000;stroke:#ff0000;" x="351.579011" xlink:href="#mea1c3ba1b9" y="68.637865"/>
     <use style="fill:#ff0000;stroke:#ff0000;" x="352.813439" xlink:href="#mea1c3ba1b9" y="68.637865"/>
     <use style="fill:#ff0000;stroke:#ff0000;" x="354.047867" xlink:href="#mea1c3ba1b9" y="68.637865"/>
     <use style="fill:#ff0000;stroke:#ff0000;" x="355.282295" xlink:href="#mea1c3ba1b9" y="68.637865"/>
     <use style="fill:#ff0000;stroke:#ff0000;" x="356.516723" xlink:href="#mea1c3ba1b9" y="68.637865"/>
     <use style="fill:#ff0000;stroke:#ff0000;" x="357.751151" xlink:href="#mea1c3ba1b9" y="68.637865"/>
     <use style="fill:#ff0000;stroke:#ff0000;" x="358.985579" xlink:href="#mea1c3ba1b9" y="68.637865"/>
     <use style="fill:#ff0000;stroke:#ff0000;" x="360.220007" xlink:href="#mea1c3ba1b9" y="68.637865"/>
     <use style="fill:#ff0000;stroke:#ff0000;" x="361.454435" xlink:href="#mea1c3ba1b9" y="68.637865"/>
     <use style="fill:#ff0000;stroke:#ff0000;" x="362.688863" xlink:href="#mea1c3ba1b9" y="68.637865"/>
     <use style="fill:#ff0000;stroke:#ff0000;" x="363.923291" xlink:href="#mea1c3ba1b9" y="68.637865"/>
     <use style="fill:#ff0000;stroke:#ff0000;" x="365.157719" xlink:href="#mea1c3ba1b9" y="68.637865"/>
     <use style="fill:#ff0000;stroke:#ff0000;" x="366.392147" xlink:href="#mea1c3ba1b9" y="68.637865"/>
     <use style="fill:#ff0000;stroke:#ff0000;" x="367.626574" xlink:href="#mea1c3ba1b9" y="68.637865"/>
     <use style="fill:#ff0000;stroke:#ff0000;" x="368.861002" xlink:href="#mea1c3ba1b9" y="68.637865"/>
     <use style="fill:#ff0000;stroke:#ff0000;" x="370.09543" xlink:href="#mea1c3ba1b9" y="68.637865"/>
     <use style="fill:#ff0000;stroke:#ff0000;" x="371.329858" xlink:href="#mea1c3ba1b9" y="68.637865"/>
     <use style="fill:#ff0000;stroke:#ff0000;" x="372.564286" xlink:href="#mea1c3ba1b9" y="68.637865"/>
     <use style="fill:#ff0000;stroke:#ff0000;" x="373.798714" xlink:href="#mea1c3ba1b9" y="68.637865"/>
     <use style="fill:#ff0000;stroke:#ff0000;" x="375.033142" xlink:href="#mea1c3ba1b9" y="68.637865"/>
     <use style="fill:#ff0000;stroke:#ff0000;" x="376.26757" xlink:href="#mea1c3ba1b9" y="68.637865"/>
     <use style="fill:#ff0000;stroke:#ff0000;" x="377.501998" xlink:href="#mea1c3ba1b9" y="68.637865"/>
     <use style="fill:#ff0000;stroke:#ff0000;" x="378.736426" xlink:href="#mea1c3ba1b9" y="68.637865"/>
     <use style="fill:#ff0000;stroke:#ff0000;" x="379.970854" xlink:href="#mea1c3ba1b9" y="68.637865"/>
     <use style="fill:#ff0000;stroke:#ff0000;" x="381.205282" xlink:href="#mea1c3ba1b9" y="68.637865"/>
     <use style="fill:#ff0000;stroke:#ff0000;" x="382.43971" xlink:href="#mea1c3ba1b9" y="68.637865"/>
     <use style="fill:#ff0000;stroke:#ff0000;" x="383.674138" xlink:href="#mea1c3ba1b9" y="68.637865"/>
     <use style="fill:#ff0000;stroke:#ff0000;" x="384.908566" xlink:href="#mea1c3ba1b9" y="68.637865"/>
     <use style="fill:#ff0000;stroke:#ff0000;" x="386.142993" xlink:href="#mea1c3ba1b9" y="68.637865"/>
     <use style="fill:#ff0000;stroke:#ff0000;" x="387.377421" xlink:href="#mea1c3ba1b9" y="68.637865"/>
     <use style="fill:#ff0000;stroke:#ff0000;" x="388.611849" xlink:href="#mea1c3ba1b9" y="68.637865"/>
     <use style="fill:#ff0000;stroke:#ff0000;" x="389.846277" xlink:href="#mea1c3ba1b9" y="68.637865"/>
     <use style="fill:#ff0000;stroke:#ff0000;" x="391.080705" xlink:href="#mea1c3ba1b9" y="68.637865"/>
     <use style="fill:#ff0000;stroke:#ff0000;" x="392.315133" xlink:href="#mea1c3ba1b9" y="68.637865"/>
     <use style="fill:#ff0000;stroke:#ff0000;" x="393.549561" xlink:href="#mea1c3ba1b9" y="68.637865"/>
     <use style="fill:#ff0000;stroke:#ff0000;" x="394.783989" xlink:href="#mea1c3ba1b9" y="68.637865"/>
     <use style="fill:#ff0000;stroke:#ff0000;" x="396.018417" xlink:href="#mea1c3ba1b9" y="68.637865"/>
     <use style="fill:#ff0000;stroke:#ff0000;" x="397.252845" xlink:href="#mea1c3ba1b9" y="68.637865"/>
     <use style="fill:#ff0000;stroke:#ff0000;" x="398.487273" xlink:href="#mea1c3ba1b9" y="68.637865"/>
    </g>
   </g>
   <g id="patch_3">
    <path d="M 57.6 307.584 
L 57.6 41.472 
" style="fill:none;stroke:#000000;stroke-linecap:square;stroke-linejoin:miter;stroke-width:0.8;"/>
   </g>
   <g id="patch_4">
    <path d="M 414.72 307.584 
L 414.72 41.472 
" style="fill:none;stroke:#000000;stroke-linecap:square;stroke-linejoin:miter;stroke-width:0.8;"/>
   </g>
   <g id="patch_5">
    <path d="M 57.6 307.584 
L 414.72 307.584 
" style="fill:none;stroke:#000000;stroke-linecap:square;stroke-linejoin:miter;stroke-width:0.8;"/>
   </g>
   <g id="patch_6">
    <path d="M 57.6 41.472 
L 414.72 41.472 
" style="fill:none;stroke:#000000;stroke-linecap:square;stroke-linejoin:miter;stroke-width:0.8;"/>
   </g>
  </g>
 </g>
 <defs>
  <clipPath id="pfdc80282ed">
   <rect height="266.112" width="357.12" x="57.6" y="41.472"/>
  </clipPath>
 </defs>
</svg>
