<?xml version="1.0" encoding="utf-8" standalone="no"?>
<!DOCTYPE svg PUBLIC "-//W3C//DTD SVG 1.1//EN"
  "http://www.w3.org/Graphics/SVG/1.1/DTD/svg11.dtd">
<!-- Created with matplotlib (https://matplotlib.org/) -->
<svg height="345.6pt" version="1.1" viewBox="0 0 460.8 345.6" width="460.8pt" xmlns="http://www.w3.org/2000/svg" xmlns:xlink="http://www.w3.org/1999/xlink">
 <defs>
  <style type="text/css">
*{stroke-linecap:butt;stroke-linejoin:round;}
  </style>
 </defs>
 <g id="figure_1">
  <g id="patch_1">
   <path d="M 0 345.6 
L 460.8 345.6 
L 460.8 0 
L 0 0 
z
" style="fill:#ffffff;"/>
  </g>
  <g id="axes_1">
   <g id="patch_2">
    <path d="M 57.6 307.584 
L 414.72 307.584 
L 414.72 41.472 
L 57.6 41.472 
z
" style="fill:#ffffff;"/>
   </g>
   <g id="line2d_1">
    <path clip-path="url(#p23656e40b4)" d="M 73.832727 252.995325 
L 75.74246 241.039175 
L 77.652193 241.039175 
L 79.561925 295.488 
L 87.200856 295.488 
L 89.110588 244.011643 
L 91.020321 244.011643 
L 92.930053 244.454238 
L 96.749519 244.454238 
L 98.659251 254.270926 
L 100.568984 254.270926 
L 102.478717 196.373975 
L 110.117647 196.373975 
L 112.02738 188.385651 
L 113.937112 188.385651 
L 115.846845 135.468782 
L 117.756578 135.468782 
L 119.66631 85.160058 
L 123.485775 85.160058 
L 125.395508 142.622034 
L 127.305241 142.622034 
L 129.214973 143.240203 
L 131.124706 143.240203 
L 133.034439 161.295037 
L 134.944171 161.295037 
L 136.853904 179.92197 
L 138.763636 179.92197 
L 140.673369 198.537263 
L 144.492834 198.537263 
L 146.402567 181.102484 
L 150.222032 181.102484 
L 152.131765 199.832669 
L 154.041497 199.832669 
L 155.95123 216.748911 
L 157.860963 216.748911 
L 159.770695 235.398464 
L 161.680428 235.398464 
L 163.59016 238.33173 
L 165.499893 238.33173 
L 167.409626 220.39358 
L 169.319358 220.39358 
L 171.229091 223.062558 
L 173.138824 204.7398 
L 176.958289 204.7398 
L 178.868021 186.102509 
L 180.777754 202.964674 
L 184.597219 202.964674 
L 186.506952 222.473071 
L 190.326417 222.473071 
L 192.23615 202.922589 
L 194.145882 202.922589 
L 196.055615 185.226507 
L 197.965348 185.226507 
L 199.87508 189.954006 
L 201.784813 189.954006 
L 203.694545 190.348211 
L 205.604278 190.348211 
L 207.514011 210.138017 
L 209.423743 210.138017 
L 211.333476 191.441742 
L 213.243209 190.684581 
L 215.152941 190.684581 
L 217.062674 209.185862 
L 218.972406 209.185862 
L 222.791872 172.7774 
L 224.701604 172.7774 
L 226.611337 155.663525 
L 234.250267 155.663525 
L 236.16 140.556318 
L 238.069733 140.556318 
L 239.979465 123.905353 
L 241.889198 123.905353 
L 243.79893 106.386224 
L 245.708663 106.386224 
L 247.618396 90.733819 
L 249.528128 90.733819 
L 251.437861 72.722775 
L 253.347594 72.722775 
L 255.257326 92.982095 
L 257.167059 92.982095 
L 259.076791 77.650186 
L 262.896257 77.650186 
L 264.805989 61.677957 
L 266.715722 83.387972 
L 270.535187 83.387972 
L 272.44492 101.017746 
L 276.264385 101.017746 
L 278.174118 99.254323 
L 280.08385 117.861593 
L 295.361711 117.861593 
L 297.271444 137.663628 
L 299.181176 137.663628 
L 301.090909 117.641416 
L 303.000642 117.641416 
L 304.910374 102.081952 
L 306.820107 119.902781 
L 310.639572 119.902781 
L 312.549305 138.617341 
L 314.459037 138.617341 
L 316.36877 144.617826 
L 318.278503 144.617826 
L 320.188235 160.638605 
L 322.097968 160.638605 
L 324.007701 144.105051 
L 325.917433 144.105051 
L 327.827166 127.889404 
L 331.646631 127.889404 
L 333.556364 145.460302 
L 335.466096 129.679795 
L 337.375829 129.679795 
L 339.285561 113.560654 
L 341.195294 113.560654 
L 343.105027 130.904319 
L 345.014759 130.904319 
L 346.924492 136.232974 
L 350.743957 136.232974 
L 352.65369 118.438317 
L 356.473155 118.438317 
L 358.382888 123.561013 
L 360.29262 105.52789 
L 364.112086 105.52789 
L 366.021818 104.47763 
L 367.931551 104.47763 
L 369.841283 87.29921 
L 371.751016 87.29921 
L 373.660749 106.3392 
L 375.570481 87.110246 
L 377.480214 87.110246 
L 379.389947 69.227677 
L 381.299679 69.227677 
L 383.209412 53.568 
L 385.119144 53.568 
L 387.028877 72.715621 
L 388.93861 78.141635 
L 390.848342 78.141635 
L 392.758075 78.259034 
L 398.487273 78.359364 
L 398.487273 78.359364 
" style="fill:none;stroke:#ff0000;stroke-linecap:square;stroke-width:12;"/>
    <defs>
     <path d="M 0 3 
C 0.795609 3 1.55874 2.683901 2.12132 2.12132 
C 2.683901 1.55874 3 0.795609 3 0 
C 3 -0.795609 2.683901 -1.55874 2.12132 -2.12132 
C 1.55874 -2.683901 0.795609 -3 0 -3 
C -0.795609 -3 -1.55874 -2.683901 -2.12132 -2.12132 
C -2.683901 -1.55874 -3 -0.795609 -3 0 
C -3 0.795609 -2.683901 1.55874 -2.12132 2.12132 
C -1.55874 2.683901 -0.795609 3 0 3 
z
" id="m6a1cf05b14" style="stroke:#ff0000;"/>
    </defs>
    <g clip-path="url(#p23656e40b4)">
     <use style="fill:#ff0000;stroke:#ff0000;" x="73.832727" xlink:href="#m6a1cf05b14" y="252.995325"/>
     <use style="fill:#ff0000;stroke:#ff0000;" x="75.74246" xlink:href="#m6a1cf05b14" y="241.039175"/>
     <use style="fill:#ff0000;stroke:#ff0000;" x="77.652193" xlink:href="#m6a1cf05b14" y="241.039175"/>
     <use style="fill:#ff0000;stroke:#ff0000;" x="79.561925" xlink:href="#m6a1cf05b14" y="295.488"/>
     <use style="fill:#ff0000;stroke:#ff0000;" x="81.471658" xlink:href="#m6a1cf05b14" y="295.488"/>
     <use style="fill:#ff0000;stroke:#ff0000;" x="83.38139" xlink:href="#m6a1cf05b14" y="295.488"/>
     <use style="fill:#ff0000;stroke:#ff0000;" x="85.291123" xlink:href="#m6a1cf05b14" y="295.488"/>
     <use style="fill:#ff0000;stroke:#ff0000;" x="87.200856" xlink:href="#m6a1cf05b14" y="295.488"/>
     <use style="fill:#ff0000;stroke:#ff0000;" x="89.110588" xlink:href="#m6a1cf05b14" y="244.011643"/>
     <use style="fill:#ff0000;stroke:#ff0000;" x="91.020321" xlink:href="#m6a1cf05b14" y="244.011643"/>
     <use style="fill:#ff0000;stroke:#ff0000;" x="92.930053" xlink:href="#m6a1cf05b14" y="244.454238"/>
     <use style="fill:#ff0000;stroke:#ff0000;" x="94.839786" xlink:href="#m6a1cf05b14" y="244.454238"/>
     <use style="fill:#ff0000;stroke:#ff0000;" x="96.749519" xlink:href="#m6a1cf05b14" y="244.454238"/>
     <use style="fill:#ff0000;stroke:#ff0000;" x="98.659251" xlink:href="#m6a1cf05b14" y="254.270926"/>
     <use style="fill:#ff0000;stroke:#ff0000;" x="100.568984" xlink:href="#m6a1cf05b14" y="254.270926"/>
     <use style="fill:#ff0000;stroke:#ff0000;" x="102.478717" xlink:href="#m6a1cf05b14" y="196.373975"/>
     <use style="fill:#ff0000;stroke:#ff0000;" x="104.388449" xlink:href="#m6a1cf05b14" y="196.373975"/>
     <use style="fill:#ff0000;stroke:#ff0000;" x="106.298182" xlink:href="#m6a1cf05b14" y="196.373975"/>
     <use style="fill:#ff0000;stroke:#ff0000;" x="108.207914" xlink:href="#m6a1cf05b14" y="196.373975"/>
     <use style="fill:#ff0000;stroke:#ff0000;" x="110.117647" xlink:href="#m6a1cf05b14" y="196.373975"/>
     <use style="fill:#ff0000;stroke:#ff0000;" x="112.02738" xlink:href="#m6a1cf05b14" y="188.385651"/>
     <use style="fill:#ff0000;stroke:#ff0000;" x="113.937112" xlink:href="#m6a1cf05b14" y="188.385651"/>
     <use style="fill:#ff0000;stroke:#ff0000;" x="115.846845" xlink:href="#m6a1cf05b14" y="135.468782"/>
     <use style="fill:#ff0000;stroke:#ff0000;" x="117.756578" xlink:href="#m6a1cf05b14" y="135.468782"/>
     <use style="fill:#ff0000;stroke:#ff0000;" x="119.66631" xlink:href="#m6a1cf05b14" y="85.160058"/>
     <use style="fill:#ff0000;stroke:#ff0000;" x="121.576043" xlink:href="#m6a1cf05b14" y="85.160058"/>
     <use style="fill:#ff0000;stroke:#ff0000;" x="123.485775" xlink:href="#m6a1cf05b14" y="85.160058"/>
     <use style="fill:#ff0000;stroke:#ff0000;" x="125.395508" xlink:href="#m6a1cf05b14" y="142.622034"/>
     <use style="fill:#ff0000;stroke:#ff0000;" x="127.305241" xlink:href="#m6a1cf05b14" y="142.622034"/>
     <use style="fill:#ff0000;stroke:#ff0000;" x="129.214973" xlink:href="#m6a1cf05b14" y="143.240203"/>
     <use style="fill:#ff0000;stroke:#ff0000;" x="131.124706" xlink:href="#m6a1cf05b14" y="143.240203"/>
     <use style="fill:#ff0000;stroke:#ff0000;" x="133.034439" xlink:href="#m6a1cf05b14" y="161.295037"/>
     <use style="fill:#ff0000;stroke:#ff0000;" x="134.944171" xlink:href="#m6a1cf05b14" y="161.295037"/>
     <use style="fill:#ff0000;stroke:#ff0000;" x="136.853904" xlink:href="#m6a1cf05b14" y="179.92197"/>
     <use style="fill:#ff0000;stroke:#ff0000;" x="138.763636" xlink:href="#m6a1cf05b14" y="179.92197"/>
     <use style="fill:#ff0000;stroke:#ff0000;" x="140.673369" xlink:href="#m6a1cf05b14" y="198.537263"/>
     <use style="fill:#ff0000;stroke:#ff0000;" x="142.583102" xlink:href="#m6a1cf05b14" y="198.537263"/>
     <use style="fill:#ff0000;stroke:#ff0000;" x="144.492834" xlink:href="#m6a1cf05b14" y="198.537263"/>
     <use style="fill:#ff0000;stroke:#ff0000;" x="146.402567" xlink:href="#m6a1cf05b14" y="181.102484"/>
     <use style="fill:#ff0000;stroke:#ff0000;" x="148.312299" xlink:href="#m6a1cf05b14" y="181.102484"/>
     <use style="fill:#ff0000;stroke:#ff0000;" x="150.222032" xlink:href="#m6a1cf05b14" y="181.102484"/>
     <use style="fill:#ff0000;stroke:#ff0000;" x="152.131765" xlink:href="#m6a1cf05b14" y="199.832669"/>
     <use style="fill:#ff0000;stroke:#ff0000;" x="154.041497" xlink:href="#m6a1cf05b14" y="199.832669"/>
     <use style="fill:#ff0000;stroke:#ff0000;" x="155.95123" xlink:href="#m6a1cf05b14" y="216.748911"/>
     <use style="fill:#ff0000;stroke:#ff0000;" x="157.860963" xlink:href="#m6a1cf05b14" y="216.748911"/>
     <use style="fill:#ff0000;stroke:#ff0000;" x="159.770695" xlink:href="#m6a1cf05b14" y="235.398464"/>
     <use style="fill:#ff0000;stroke:#ff0000;" x="161.680428" xlink:href="#m6a1cf05b14" y="235.398464"/>
     <use style="fill:#ff0000;stroke:#ff0000;" x="163.59016" xlink:href="#m6a1cf05b14" y="238.33173"/>
     <use style="fill:#ff0000;stroke:#ff0000;" x="165.499893" xlink:href="#m6a1cf05b14" y="238.33173"/>
     <use style="fill:#ff0000;stroke:#ff0000;" x="167.409626" xlink:href="#m6a1cf05b14" y="220.39358"/>
     <use style="fill:#ff0000;stroke:#ff0000;" x="169.319358" xlink:href="#m6a1cf05b14" y="220.39358"/>
     <use style="fill:#ff0000;stroke:#ff0000;" x="171.229091" xlink:href="#m6a1cf05b14" y="223.062558"/>
     <use style="fill:#ff0000;stroke:#ff0000;" x="173.138824" xlink:href="#m6a1cf05b14" y="204.7398"/>
     <use style="fill:#ff0000;stroke:#ff0000;" x="175.048556" xlink:href="#m6a1cf05b14" y="204.7398"/>
     <use style="fill:#ff0000;stroke:#ff0000;" x="176.958289" xlink:href="#m6a1cf05b14" y="204.7398"/>
     <use style="fill:#ff0000;stroke:#ff0000;" x="178.868021" xlink:href="#m6a1cf05b14" y="186.102509"/>
     <use style="fill:#ff0000;stroke:#ff0000;" x="180.777754" xlink:href="#m6a1cf05b14" y="202.964674"/>
     <use style="fill:#ff0000;stroke:#ff0000;" x="182.687487" xlink:href="#m6a1cf05b14" y="202.964674"/>
     <use style="fill:#ff0000;stroke:#ff0000;" x="184.597219" xlink:href="#m6a1cf05b14" y="202.964674"/>
     <use style="fill:#ff0000;stroke:#ff0000;" x="186.506952" xlink:href="#m6a1cf05b14" y="222.473071"/>
     <use style="fill:#ff0000;stroke:#ff0000;" x="188.416684" xlink:href="#m6a1cf05b14" y="222.473071"/>
     <use style="fill:#ff0000;stroke:#ff0000;" x="190.326417" xlink:href="#m6a1cf05b14" y="222.473071"/>
     <use style="fill:#ff0000;stroke:#ff0000;" x="192.23615" xlink:href="#m6a1cf05b14" y="202.922589"/>
     <use style="fill:#ff0000;stroke:#ff0000;" x="194.145882" xlink:href="#m6a1cf05b14" y="202.922589"/>
     <use style="fill:#ff0000;stroke:#ff0000;" x="196.055615" xlink:href="#m6a1cf05b14" y="185.226507"/>
     <use style="fill:#ff0000;stroke:#ff0000;" x="197.965348" xlink:href="#m6a1cf05b14" y="185.226507"/>
     <use style="fill:#ff0000;stroke:#ff0000;" x="199.87508" xlink:href="#m6a1cf05b14" y="189.954006"/>
     <use style="fill:#ff0000;stroke:#ff0000;" x="201.784813" xlink:href="#m6a1cf05b14" y="189.954006"/>
     <use style="fill:#ff0000;stroke:#ff0000;" x="203.694545" xlink:href="#m6a1cf05b14" y="190.348211"/>
     <use style="fill:#ff0000;stroke:#ff0000;" x="205.604278" xlink:href="#m6a1cf05b14" y="190.348211"/>
     <use style="fill:#ff0000;stroke:#ff0000;" x="207.514011" xlink:href="#m6a1cf05b14" y="210.138017"/>
     <use style="fill:#ff0000;stroke:#ff0000;" x="209.423743" xlink:href="#m6a1cf05b14" y="210.138017"/>
     <use style="fill:#ff0000;stroke:#ff0000;" x="211.333476" xlink:href="#m6a1cf05b14" y="191.441742"/>
     <use style="fill:#ff0000;stroke:#ff0000;" x="213.243209" xlink:href="#m6a1cf05b14" y="190.684581"/>
     <use style="fill:#ff0000;stroke:#ff0000;" x="215.152941" xlink:href="#m6a1cf05b14" y="190.684581"/>
     <use style="fill:#ff0000;stroke:#ff0000;" x="217.062674" xlink:href="#m6a1cf05b14" y="209.185862"/>
     <use style="fill:#ff0000;stroke:#ff0000;" x="218.972406" xlink:href="#m6a1cf05b14" y="209.185862"/>
     <use style="fill:#ff0000;stroke:#ff0000;" x="220.882139" xlink:href="#m6a1cf05b14" y="190.944821"/>
     <use style="fill:#ff0000;stroke:#ff0000;" x="222.791872" xlink:href="#m6a1cf05b14" y="172.7774"/>
     <use style="fill:#ff0000;stroke:#ff0000;" x="224.701604" xlink:href="#m6a1cf05b14" y="172.7774"/>
     <use style="fill:#ff0000;stroke:#ff0000;" x="226.611337" xlink:href="#m6a1cf05b14" y="155.663525"/>
     <use style="fill:#ff0000;stroke:#ff0000;" x="228.52107" xlink:href="#m6a1cf05b14" y="155.663525"/>
     <use style="fill:#ff0000;stroke:#ff0000;" x="230.430802" xlink:href="#m6a1cf05b14" y="155.663525"/>
     <use style="fill:#ff0000;stroke:#ff0000;" x="232.340535" xlink:href="#m6a1cf05b14" y="155.663525"/>
     <use style="fill:#ff0000;stroke:#ff0000;" x="234.250267" xlink:href="#m6a1cf05b14" y="155.663525"/>
     <use style="fill:#ff0000;stroke:#ff0000;" x="236.16" xlink:href="#m6a1cf05b14" y="140.556318"/>
     <use style="fill:#ff0000;stroke:#ff0000;" x="238.069733" xlink:href="#m6a1cf05b14" y="140.556318"/>
     <use style="fill:#ff0000;stroke:#ff0000;" x="239.979465" xlink:href="#m6a1cf05b14" y="123.905353"/>
     <use style="fill:#ff0000;stroke:#ff0000;" x="241.889198" xlink:href="#m6a1cf05b14" y="123.905353"/>
     <use style="fill:#ff0000;stroke:#ff0000;" x="243.79893" xlink:href="#m6a1cf05b14" y="106.386224"/>
     <use style="fill:#ff0000;stroke:#ff0000;" x="245.708663" xlink:href="#m6a1cf05b14" y="106.386224"/>
     <use style="fill:#ff0000;stroke:#ff0000;" x="247.618396" xlink:href="#m6a1cf05b14" y="90.733819"/>
     <use style="fill:#ff0000;stroke:#ff0000;" x="249.528128" xlink:href="#m6a1cf05b14" y="90.733819"/>
     <use style="fill:#ff0000;stroke:#ff0000;" x="251.437861" xlink:href="#m6a1cf05b14" y="72.722775"/>
     <use style="fill:#ff0000;stroke:#ff0000;" x="253.347594" xlink:href="#m6a1cf05b14" y="72.722775"/>
     <use style="fill:#ff0000;stroke:#ff0000;" x="255.257326" xlink:href="#m6a1cf05b14" y="92.982095"/>
     <use style="fill:#ff0000;stroke:#ff0000;" x="257.167059" xlink:href="#m6a1cf05b14" y="92.982095"/>
     <use style="fill:#ff0000;stroke:#ff0000;" x="259.076791" xlink:href="#m6a1cf05b14" y="77.650186"/>
     <use style="fill:#ff0000;stroke:#ff0000;" x="260.986524" xlink:href="#m6a1cf05b14" y="77.650186"/>
     <use style="fill:#ff0000;stroke:#ff0000;" x="262.896257" xlink:href="#m6a1cf05b14" y="77.650186"/>
     <use style="fill:#ff0000;stroke:#ff0000;" x="264.805989" xlink:href="#m6a1cf05b14" y="61.677957"/>
     <use style="fill:#ff0000;stroke:#ff0000;" x="266.715722" xlink:href="#m6a1cf05b14" y="83.387972"/>
     <use style="fill:#ff0000;stroke:#ff0000;" x="268.625455" xlink:href="#m6a1cf05b14" y="83.387972"/>
     <use style="fill:#ff0000;stroke:#ff0000;" x="270.535187" xlink:href="#m6a1cf05b14" y="83.387972"/>
     <use style="fill:#ff0000;stroke:#ff0000;" x="272.44492" xlink:href="#m6a1cf05b14" y="101.017746"/>
     <use style="fill:#ff0000;stroke:#ff0000;" x="274.354652" xlink:href="#m6a1cf05b14" y="101.017746"/>
     <use style="fill:#ff0000;stroke:#ff0000;" x="276.264385" xlink:href="#m6a1cf05b14" y="101.017746"/>
     <use style="fill:#ff0000;stroke:#ff0000;" x="278.174118" xlink:href="#m6a1cf05b14" y="99.254323"/>
     <use style="fill:#ff0000;stroke:#ff0000;" x="280.08385" xlink:href="#m6a1cf05b14" y="117.861593"/>
     <use style="fill:#ff0000;stroke:#ff0000;" x="281.993583" xlink:href="#m6a1cf05b14" y="117.861593"/>
     <use style="fill:#ff0000;stroke:#ff0000;" x="283.903316" xlink:href="#m6a1cf05b14" y="117.861593"/>
     <use style="fill:#ff0000;stroke:#ff0000;" x="285.813048" xlink:href="#m6a1cf05b14" y="117.861593"/>
     <use style="fill:#ff0000;stroke:#ff0000;" x="287.722781" xlink:href="#m6a1cf05b14" y="117.861593"/>
     <use style="fill:#ff0000;stroke:#ff0000;" x="289.632513" xlink:href="#m6a1cf05b14" y="117.861593"/>
     <use style="fill:#ff0000;stroke:#ff0000;" x="291.542246" xlink:href="#m6a1cf05b14" y="117.861593"/>
     <use style="fill:#ff0000;stroke:#ff0000;" x="293.451979" xlink:href="#m6a1cf05b14" y="117.861593"/>
     <use style="fill:#ff0000;stroke:#ff0000;" x="295.361711" xlink:href="#m6a1cf05b14" y="117.861593"/>
     <use style="fill:#ff0000;stroke:#ff0000;" x="297.271444" xlink:href="#m6a1cf05b14" y="137.663628"/>
     <use style="fill:#ff0000;stroke:#ff0000;" x="299.181176" xlink:href="#m6a1cf05b14" y="137.663628"/>
     <use style="fill:#ff0000;stroke:#ff0000;" x="301.090909" xlink:href="#m6a1cf05b14" y="117.641416"/>
     <use style="fill:#ff0000;stroke:#ff0000;" x="303.000642" xlink:href="#m6a1cf05b14" y="117.641416"/>
     <use style="fill:#ff0000;stroke:#ff0000;" x="304.910374" xlink:href="#m6a1cf05b14" y="102.081952"/>
     <use style="fill:#ff0000;stroke:#ff0000;" x="306.820107" xlink:href="#m6a1cf05b14" y="119.902781"/>
     <use style="fill:#ff0000;stroke:#ff0000;" x="308.72984" xlink:href="#m6a1cf05b14" y="119.902781"/>
     <use style="fill:#ff0000;stroke:#ff0000;" x="310.639572" xlink:href="#m6a1cf05b14" y="119.902781"/>
     <use style="fill:#ff0000;stroke:#ff0000;" x="312.549305" xlink:href="#m6a1cf05b14" y="138.617341"/>
     <use style="fill:#ff0000;stroke:#ff0000;" x="314.459037" xlink:href="#m6a1cf05b14" y="138.617341"/>
     <use style="fill:#ff0000;stroke:#ff0000;" x="316.36877" xlink:href="#m6a1cf05b14" y="144.617826"/>
     <use style="fill:#ff0000;stroke:#ff0000;" x="318.278503" xlink:href="#m6a1cf05b14" y="144.617826"/>
     <use style="fill:#ff0000;stroke:#ff0000;" x="320.188235" xlink:href="#m6a1cf05b14" y="160.638605"/>
     <use style="fill:#ff0000;stroke:#ff0000;" x="322.097968" xlink:href="#m6a1cf05b14" y="160.638605"/>
     <use style="fill:#ff0000;stroke:#ff0000;" x="324.007701" xlink:href="#m6a1cf05b14" y="144.105051"/>
     <use style="fill:#ff0000;stroke:#ff0000;" x="325.917433" xlink:href="#m6a1cf05b14" y="144.105051"/>
     <use style="fill:#ff0000;stroke:#ff0000;" x="327.827166" xlink:href="#m6a1cf05b14" y="127.889404"/>
     <use style="fill:#ff0000;stroke:#ff0000;" x="329.736898" xlink:href="#m6a1cf05b14" y="127.889404"/>
     <use style="fill:#ff0000;stroke:#ff0000;" x="331.646631" xlink:href="#m6a1cf05b14" y="127.889404"/>
     <use style="fill:#ff0000;stroke:#ff0000;" x="333.556364" xlink:href="#m6a1cf05b14" y="145.460302"/>
     <use style="fill:#ff0000;stroke:#ff0000;" x="335.466096" xlink:href="#m6a1cf05b14" y="129.679795"/>
     <use style="fill:#ff0000;stroke:#ff0000;" x="337.375829" xlink:href="#m6a1cf05b14" y="129.679795"/>
     <use style="fill:#ff0000;stroke:#ff0000;" x="339.285561" xlink:href="#m6a1cf05b14" y="113.560654"/>
     <use style="fill:#ff0000;stroke:#ff0000;" x="341.195294" xlink:href="#m6a1cf05b14" y="113.560654"/>
     <use style="fill:#ff0000;stroke:#ff0000;" x="343.105027" xlink:href="#m6a1cf05b14" y="130.904319"/>
     <use style="fill:#ff0000;stroke:#ff0000;" x="345.014759" xlink:href="#m6a1cf05b14" y="130.904319"/>
     <use style="fill:#ff0000;stroke:#ff0000;" x="346.924492" xlink:href="#m6a1cf05b14" y="136.232974"/>
     <use style="fill:#ff0000;stroke:#ff0000;" x="348.834225" xlink:href="#m6a1cf05b14" y="136.232974"/>
     <use style="fill:#ff0000;stroke:#ff0000;" x="350.743957" xlink:href="#m6a1cf05b14" y="136.232974"/>
     <use style="fill:#ff0000;stroke:#ff0000;" x="352.65369" xlink:href="#m6a1cf05b14" y="118.438317"/>
     <use style="fill:#ff0000;stroke:#ff0000;" x="354.563422" xlink:href="#m6a1cf05b14" y="118.438317"/>
     <use style="fill:#ff0000;stroke:#ff0000;" x="356.473155" xlink:href="#m6a1cf05b14" y="118.438317"/>
     <use style="fill:#ff0000;stroke:#ff0000;" x="358.382888" xlink:href="#m6a1cf05b14" y="123.561013"/>
     <use style="fill:#ff0000;stroke:#ff0000;" x="360.29262" xlink:href="#m6a1cf05b14" y="105.52789"/>
     <use style="fill:#ff0000;stroke:#ff0000;" x="362.202353" xlink:href="#m6a1cf05b14" y="105.52789"/>
     <use style="fill:#ff0000;stroke:#ff0000;" x="364.112086" xlink:href="#m6a1cf05b14" y="105.52789"/>
     <use style="fill:#ff0000;stroke:#ff0000;" x="366.021818" xlink:href="#m6a1cf05b14" y="104.47763"/>
     <use style="fill:#ff0000;stroke:#ff0000;" x="367.931551" xlink:href="#m6a1cf05b14" y="104.47763"/>
     <use style="fill:#ff0000;stroke:#ff0000;" x="369.841283" xlink:href="#m6a1cf05b14" y="87.29921"/>
     <use style="fill:#ff0000;stroke:#ff0000;" x="371.751016" xlink:href="#m6a1cf05b14" y="87.29921"/>
     <use style="fill:#ff0000;stroke:#ff0000;" x="373.660749" xlink:href="#m6a1cf05b14" y="106.3392"/>
     <use style="fill:#ff0000;stroke:#ff0000;" x="375.570481" xlink:href="#m6a1cf05b14" y="87.110246"/>
     <use style="fill:#ff0000;stroke:#ff0000;" x="377.480214" xlink:href="#m6a1cf05b14" y="87.110246"/>
     <use style="fill:#ff0000;stroke:#ff0000;" x="379.389947" xlink:href="#m6a1cf05b14" y="69.227677"/>
     <use style="fill:#ff0000;stroke:#ff0000;" x="381.299679" xlink:href="#m6a1cf05b14" y="69.227677"/>
     <use style="fill:#ff0000;stroke:#ff0000;" x="383.209412" xlink:href="#m6a1cf05b14" y="53.568"/>
     <use style="fill:#ff0000;stroke:#ff0000;" x="385.119144" xlink:href="#m6a1cf05b14" y="53.568"/>
     <use style="fill:#ff0000;stroke:#ff0000;" x="387.028877" xlink:href="#m6a1cf05b14" y="72.715621"/>
     <use style="fill:#ff0000;stroke:#ff0000;" x="388.93861" xlink:href="#m6a1cf05b14" y="78.141635"/>
     <use style="fill:#ff0000;stroke:#ff0000;" x="390.848342" xlink:href="#m6a1cf05b14" y="78.141635"/>
     <use style="fill:#ff0000;stroke:#ff0000;" x="392.758075" xlink:href="#m6a1cf05b14" y="78.259034"/>
     <use style="fill:#ff0000;stroke:#ff0000;" x="394.667807" xlink:href="#m6a1cf05b14" y="78.259034"/>
     <use style="fill:#ff0000;stroke:#ff0000;" x="396.57754" xlink:href="#m6a1cf05b14" y="78.359364"/>
     <use style="fill:#ff0000;stroke:#ff0000;" x="398.487273" xlink:href="#m6a1cf05b14" y="78.359364"/>
    </g>
   </g>
   <g id="patch_3">
    <path d="M 57.6 307.584 
L 57.6 41.472 
" style="fill:none;stroke:#000000;stroke-linecap:square;stroke-linejoin:miter;stroke-width:0.8;"/>
   </g>
   <g id="patch_4">
    <path d="M 414.72 307.584 
L 414.72 41.472 
" style="fill:none;stroke:#000000;stroke-linecap:square;stroke-linejoin:miter;stroke-width:0.8;"/>
   </g>
   <g id="patch_5">
    <path d="M 57.6 307.584 
L 414.72 307.584 
" style="fill:none;stroke:#000000;stroke-linecap:square;stroke-linejoin:miter;stroke-width:0.8;"/>
   </g>
   <g id="patch_6">
    <path d="M 57.6 41.472 
L 414.72 41.472 
" style="fill:none;stroke:#000000;stroke-linecap:square;stroke-linejoin:miter;stroke-width:0.8;"/>
   </g>
  </g>
 </g>
 <defs>
  <clipPath id="p23656e40b4">
   <rect height="266.112" width="357.12" x="57.6" y="41.472"/>
  </clipPath>
 </defs>
</svg>
