<?xml version="1.0" encoding="utf-8" standalone="no"?>
<!DOCTYPE svg PUBLIC "-//W3C//DTD SVG 1.1//EN"
  "http://www.w3.org/Graphics/SVG/1.1/DTD/svg11.dtd">
<!-- Created with matplotlib (https://matplotlib.org/) -->
<svg height="345.6pt" version="1.1" viewBox="0 0 460.8 345.6" width="460.8pt" xmlns="http://www.w3.org/2000/svg" xmlns:xlink="http://www.w3.org/1999/xlink">
 <defs>
  <style type="text/css">
*{stroke-linecap:butt;stroke-linejoin:round;}
  </style>
 </defs>
 <g id="figure_1">
  <g id="patch_1">
   <path d="M 0 345.6 
L 460.8 345.6 
L 460.8 0 
L 0 0 
z
" style="fill:#ffffff;"/>
  </g>
  <g id="axes_1">
   <g id="patch_2">
    <path d="M 57.6 307.584 
L 414.72 307.584 
L 414.72 41.472 
L 57.6 41.472 
z
" style="fill:#ffffff;"/>
   </g>
   <g id="line2d_1">
    <path clip-path="url(#pc44b54ff3a)" d="M 73.832727 295.488 
L 74.89369 259.797833 
L 78.076578 259.797833 
L 79.13754 224.268203 
L 81.259465 224.268203 
L 82.320428 190.868487 
L 83.38139 190.868487 
L 84.442353 159.010649 
L 87.625241 159.010649 
L 88.686203 195.927442 
L 89.747166 204.856524 
L 90.808128 204.856524 
L 91.869091 212.917622 
L 93.991016 212.917622 
L 95.051979 178.194328 
L 96.112941 178.194328 
L 97.173904 146.451485 
L 98.234866 146.451485 
L 99.295829 158.557366 
L 101.417754 158.557366 
L 102.478717 147.557254 
L 105.661604 147.557254 
L 106.722567 158.777144 
L 107.783529 158.777144 
L 108.844492 157.055132 
L 110.966417 157.055132 
L 112.02738 169.571669 
L 113.088342 169.571669 
L 114.149305 157.874006 
L 115.210267 147.465043 
L 117.332193 147.465043 
L 118.393155 159.265157 
L 119.454118 159.265157 
L 120.51508 162.300237 
L 121.576043 151.458558 
L 124.75893 151.458558 
L 125.819893 155.847082 
L 126.880856 155.847082 
L 127.941818 154.118995 
L 129.002781 142.800563 
L 130.063743 142.800563 
L 131.124706 154.533394 
L 133.246631 154.533394 
L 134.307594 155.261435 
L 135.368556 155.261435 
L 136.429519 168.950278 
L 138.551444 168.950278 
L 139.612406 182.251279 
L 140.673369 182.251279 
L 141.734332 193.252377 
L 142.795294 193.252377 
L 143.856257 181.10645 
L 144.917219 179.741872 
L 145.978182 179.741872 
L 147.039144 168.851604 
L 149.16107 168.851604 
L 150.222032 180.956907 
L 151.282995 180.956907 
L 152.343957 192.765227 
L 153.40492 181.038976 
L 155.526845 181.038976 
L 156.587807 170.013977 
L 157.64877 170.013977 
L 158.709733 157.998174 
L 159.770695 170.650043 
L 162.953583 170.650043 
L 164.014545 183.348891 
L 165.075508 183.348891 
L 166.136471 181.269532 
L 168.258396 181.269532 
L 169.319358 170.745827 
L 170.380321 170.745827 
L 171.441283 159.048745 
L 172.502246 159.048745 
L 173.563209 147.850725 
L 175.685134 147.850725 
L 176.746096 136.548687 
L 177.807059 136.548687 
L 178.868021 148.537151 
L 179.928984 148.537151 
L 180.989947 136.658133 
L 182.050909 136.658133 
L 183.111872 139.400129 
L 184.172834 139.400129 
L 185.233797 152.991941 
L 186.294759 142.357197 
L 187.355722 142.357197 
L 188.416684 155.845596 
L 200.087273 155.787297 
L 201.148235 159.58241 
L 203.27016 159.58241 
L 204.331123 148.396461 
L 205.392086 148.396461 
L 206.453048 136.801093 
L 207.514011 138.666579 
L 209.635936 138.666579 
L 210.696898 138.472719 
L 211.757861 136.921682 
L 212.818824 136.921682 
L 213.879786 126.573791 
L 216.001711 126.573791 
L 218.123636 107.529889 
L 219.184599 107.529889 
L 220.245561 105.219631 
L 221.306524 105.219631 
L 222.367487 106.428716 
L 224.489412 106.428716 
L 225.550374 107.214282 
L 227.672299 107.214282 
L 228.733262 95.551365 
L 229.794225 95.551365 
L 230.855187 82.868101 
L 231.91615 82.868101 
L 232.977112 73.258816 
L 235.099037 73.258816 
L 236.16 71.59293 
L 237.220963 71.59293 
L 238.281925 62.25439 
L 239.342888 62.25439 
L 240.40385 53.568 
L 241.464813 66.018199 
L 242.525775 66.018199 
L 243.586738 78.961457 
L 244.647701 78.961457 
L 245.708663 91.301583 
L 246.769626 91.301583 
L 247.830588 89.910859 
L 249.952513 89.910859 
L 251.013476 78.844095 
L 252.074439 78.844095 
L 253.135401 69.599786 
L 254.196364 69.599786 
L 255.257326 60.076953 
L 256.318289 60.076953 
L 257.379251 70.698031 
L 258.440214 70.698031 
L 259.501176 61.705416 
L 261.623102 61.705416 
L 263.745027 90.361907 
L 264.805989 90.361907 
L 265.866952 79.431129 
L 266.927914 79.431129 
L 267.988877 68.960745 
L 269.04984 68.960745 
L 270.110802 79.50573 
L 398.487273 79.50573 
L 398.487273 79.50573 
" style="fill:none;stroke:#ff0000;stroke-linecap:square;stroke-width:12;"/>
    <defs>
     <path d="M 0 3 
C 0.795609 3 1.55874 2.683901 2.12132 2.12132 
C 2.683901 1.55874 3 0.795609 3 0 
C 3 -0.795609 2.683901 -1.55874 2.12132 -2.12132 
C 1.55874 -2.683901 0.795609 -3 0 -3 
C -0.795609 -3 -1.55874 -2.683901 -2.12132 -2.12132 
C -2.683901 -1.55874 -3 -0.795609 -3 0 
C -3 0.795609 -2.683901 1.55874 -2.12132 2.12132 
C -1.55874 2.683901 -0.795609 3 0 3 
z
" id="mcc01e6ad99" style="stroke:#ff0000;"/>
    </defs>
    <g clip-path="url(#pc44b54ff3a)">
     <use style="fill:#ff0000;stroke:#ff0000;" x="73.832727" xlink:href="#mcc01e6ad99" y="295.488"/>
     <use style="fill:#ff0000;stroke:#ff0000;" x="74.89369" xlink:href="#mcc01e6ad99" y="259.797833"/>
     <use style="fill:#ff0000;stroke:#ff0000;" x="75.954652" xlink:href="#mcc01e6ad99" y="259.797833"/>
     <use style="fill:#ff0000;stroke:#ff0000;" x="77.015615" xlink:href="#mcc01e6ad99" y="259.797833"/>
     <use style="fill:#ff0000;stroke:#ff0000;" x="78.076578" xlink:href="#mcc01e6ad99" y="259.797833"/>
     <use style="fill:#ff0000;stroke:#ff0000;" x="79.13754" xlink:href="#mcc01e6ad99" y="224.268203"/>
     <use style="fill:#ff0000;stroke:#ff0000;" x="80.198503" xlink:href="#mcc01e6ad99" y="224.268203"/>
     <use style="fill:#ff0000;stroke:#ff0000;" x="81.259465" xlink:href="#mcc01e6ad99" y="224.268203"/>
     <use style="fill:#ff0000;stroke:#ff0000;" x="82.320428" xlink:href="#mcc01e6ad99" y="190.868487"/>
     <use style="fill:#ff0000;stroke:#ff0000;" x="83.38139" xlink:href="#mcc01e6ad99" y="190.868487"/>
     <use style="fill:#ff0000;stroke:#ff0000;" x="84.442353" xlink:href="#mcc01e6ad99" y="159.010649"/>
     <use style="fill:#ff0000;stroke:#ff0000;" x="85.503316" xlink:href="#mcc01e6ad99" y="159.010649"/>
     <use style="fill:#ff0000;stroke:#ff0000;" x="86.564278" xlink:href="#mcc01e6ad99" y="159.010649"/>
     <use style="fill:#ff0000;stroke:#ff0000;" x="87.625241" xlink:href="#mcc01e6ad99" y="159.010649"/>
     <use style="fill:#ff0000;stroke:#ff0000;" x="88.686203" xlink:href="#mcc01e6ad99" y="195.927442"/>
     <use style="fill:#ff0000;stroke:#ff0000;" x="89.747166" xlink:href="#mcc01e6ad99" y="204.856524"/>
     <use style="fill:#ff0000;stroke:#ff0000;" x="90.808128" xlink:href="#mcc01e6ad99" y="204.856524"/>
     <use style="fill:#ff0000;stroke:#ff0000;" x="91.869091" xlink:href="#mcc01e6ad99" y="212.917622"/>
     <use style="fill:#ff0000;stroke:#ff0000;" x="92.930053" xlink:href="#mcc01e6ad99" y="212.917622"/>
     <use style="fill:#ff0000;stroke:#ff0000;" x="93.991016" xlink:href="#mcc01e6ad99" y="212.917622"/>
     <use style="fill:#ff0000;stroke:#ff0000;" x="95.051979" xlink:href="#mcc01e6ad99" y="178.194328"/>
     <use style="fill:#ff0000;stroke:#ff0000;" x="96.112941" xlink:href="#mcc01e6ad99" y="178.194328"/>
     <use style="fill:#ff0000;stroke:#ff0000;" x="97.173904" xlink:href="#mcc01e6ad99" y="146.451485"/>
     <use style="fill:#ff0000;stroke:#ff0000;" x="98.234866" xlink:href="#mcc01e6ad99" y="146.451485"/>
     <use style="fill:#ff0000;stroke:#ff0000;" x="99.295829" xlink:href="#mcc01e6ad99" y="158.557366"/>
     <use style="fill:#ff0000;stroke:#ff0000;" x="100.356791" xlink:href="#mcc01e6ad99" y="158.557366"/>
     <use style="fill:#ff0000;stroke:#ff0000;" x="101.417754" xlink:href="#mcc01e6ad99" y="158.557366"/>
     <use style="fill:#ff0000;stroke:#ff0000;" x="102.478717" xlink:href="#mcc01e6ad99" y="147.557254"/>
     <use style="fill:#ff0000;stroke:#ff0000;" x="103.539679" xlink:href="#mcc01e6ad99" y="147.557254"/>
     <use style="fill:#ff0000;stroke:#ff0000;" x="104.600642" xlink:href="#mcc01e6ad99" y="147.557254"/>
     <use style="fill:#ff0000;stroke:#ff0000;" x="105.661604" xlink:href="#mcc01e6ad99" y="147.557254"/>
     <use style="fill:#ff0000;stroke:#ff0000;" x="106.722567" xlink:href="#mcc01e6ad99" y="158.777144"/>
     <use style="fill:#ff0000;stroke:#ff0000;" x="107.783529" xlink:href="#mcc01e6ad99" y="158.777144"/>
     <use style="fill:#ff0000;stroke:#ff0000;" x="108.844492" xlink:href="#mcc01e6ad99" y="157.055132"/>
     <use style="fill:#ff0000;stroke:#ff0000;" x="109.905455" xlink:href="#mcc01e6ad99" y="157.055132"/>
     <use style="fill:#ff0000;stroke:#ff0000;" x="110.966417" xlink:href="#mcc01e6ad99" y="157.055132"/>
     <use style="fill:#ff0000;stroke:#ff0000;" x="112.02738" xlink:href="#mcc01e6ad99" y="169.571669"/>
     <use style="fill:#ff0000;stroke:#ff0000;" x="113.088342" xlink:href="#mcc01e6ad99" y="169.571669"/>
     <use style="fill:#ff0000;stroke:#ff0000;" x="114.149305" xlink:href="#mcc01e6ad99" y="157.874006"/>
     <use style="fill:#ff0000;stroke:#ff0000;" x="115.210267" xlink:href="#mcc01e6ad99" y="147.465043"/>
     <use style="fill:#ff0000;stroke:#ff0000;" x="116.27123" xlink:href="#mcc01e6ad99" y="147.465043"/>
     <use style="fill:#ff0000;stroke:#ff0000;" x="117.332193" xlink:href="#mcc01e6ad99" y="147.465043"/>
     <use style="fill:#ff0000;stroke:#ff0000;" x="118.393155" xlink:href="#mcc01e6ad99" y="159.265157"/>
     <use style="fill:#ff0000;stroke:#ff0000;" x="119.454118" xlink:href="#mcc01e6ad99" y="159.265157"/>
     <use style="fill:#ff0000;stroke:#ff0000;" x="120.51508" xlink:href="#mcc01e6ad99" y="162.300237"/>
     <use style="fill:#ff0000;stroke:#ff0000;" x="121.576043" xlink:href="#mcc01e6ad99" y="151.458558"/>
     <use style="fill:#ff0000;stroke:#ff0000;" x="122.637005" xlink:href="#mcc01e6ad99" y="151.458558"/>
     <use style="fill:#ff0000;stroke:#ff0000;" x="123.697968" xlink:href="#mcc01e6ad99" y="151.458558"/>
     <use style="fill:#ff0000;stroke:#ff0000;" x="124.75893" xlink:href="#mcc01e6ad99" y="151.458558"/>
     <use style="fill:#ff0000;stroke:#ff0000;" x="125.819893" xlink:href="#mcc01e6ad99" y="155.847082"/>
     <use style="fill:#ff0000;stroke:#ff0000;" x="126.880856" xlink:href="#mcc01e6ad99" y="155.847082"/>
     <use style="fill:#ff0000;stroke:#ff0000;" x="127.941818" xlink:href="#mcc01e6ad99" y="154.118995"/>
     <use style="fill:#ff0000;stroke:#ff0000;" x="129.002781" xlink:href="#mcc01e6ad99" y="142.800563"/>
     <use style="fill:#ff0000;stroke:#ff0000;" x="130.063743" xlink:href="#mcc01e6ad99" y="142.800563"/>
     <use style="fill:#ff0000;stroke:#ff0000;" x="131.124706" xlink:href="#mcc01e6ad99" y="154.533394"/>
     <use style="fill:#ff0000;stroke:#ff0000;" x="132.185668" xlink:href="#mcc01e6ad99" y="154.533394"/>
     <use style="fill:#ff0000;stroke:#ff0000;" x="133.246631" xlink:href="#mcc01e6ad99" y="154.533394"/>
     <use style="fill:#ff0000;stroke:#ff0000;" x="134.307594" xlink:href="#mcc01e6ad99" y="155.261435"/>
     <use style="fill:#ff0000;stroke:#ff0000;" x="135.368556" xlink:href="#mcc01e6ad99" y="155.261435"/>
     <use style="fill:#ff0000;stroke:#ff0000;" x="136.429519" xlink:href="#mcc01e6ad99" y="168.950278"/>
     <use style="fill:#ff0000;stroke:#ff0000;" x="137.490481" xlink:href="#mcc01e6ad99" y="168.950278"/>
     <use style="fill:#ff0000;stroke:#ff0000;" x="138.551444" xlink:href="#mcc01e6ad99" y="168.950278"/>
     <use style="fill:#ff0000;stroke:#ff0000;" x="139.612406" xlink:href="#mcc01e6ad99" y="182.251279"/>
     <use style="fill:#ff0000;stroke:#ff0000;" x="140.673369" xlink:href="#mcc01e6ad99" y="182.251279"/>
     <use style="fill:#ff0000;stroke:#ff0000;" x="141.734332" xlink:href="#mcc01e6ad99" y="193.252377"/>
     <use style="fill:#ff0000;stroke:#ff0000;" x="142.795294" xlink:href="#mcc01e6ad99" y="193.252377"/>
     <use style="fill:#ff0000;stroke:#ff0000;" x="143.856257" xlink:href="#mcc01e6ad99" y="181.10645"/>
     <use style="fill:#ff0000;stroke:#ff0000;" x="144.917219" xlink:href="#mcc01e6ad99" y="179.741872"/>
     <use style="fill:#ff0000;stroke:#ff0000;" x="145.978182" xlink:href="#mcc01e6ad99" y="179.741872"/>
     <use style="fill:#ff0000;stroke:#ff0000;" x="147.039144" xlink:href="#mcc01e6ad99" y="168.851604"/>
     <use style="fill:#ff0000;stroke:#ff0000;" x="148.100107" xlink:href="#mcc01e6ad99" y="168.851604"/>
     <use style="fill:#ff0000;stroke:#ff0000;" x="149.16107" xlink:href="#mcc01e6ad99" y="168.851604"/>
     <use style="fill:#ff0000;stroke:#ff0000;" x="150.222032" xlink:href="#mcc01e6ad99" y="180.956907"/>
     <use style="fill:#ff0000;stroke:#ff0000;" x="151.282995" xlink:href="#mcc01e6ad99" y="180.956907"/>
     <use style="fill:#ff0000;stroke:#ff0000;" x="152.343957" xlink:href="#mcc01e6ad99" y="192.765227"/>
     <use style="fill:#ff0000;stroke:#ff0000;" x="153.40492" xlink:href="#mcc01e6ad99" y="181.038976"/>
     <use style="fill:#ff0000;stroke:#ff0000;" x="154.465882" xlink:href="#mcc01e6ad99" y="181.038976"/>
     <use style="fill:#ff0000;stroke:#ff0000;" x="155.526845" xlink:href="#mcc01e6ad99" y="181.038976"/>
     <use style="fill:#ff0000;stroke:#ff0000;" x="156.587807" xlink:href="#mcc01e6ad99" y="170.013977"/>
     <use style="fill:#ff0000;stroke:#ff0000;" x="157.64877" xlink:href="#mcc01e6ad99" y="170.013977"/>
     <use style="fill:#ff0000;stroke:#ff0000;" x="158.709733" xlink:href="#mcc01e6ad99" y="157.998174"/>
     <use style="fill:#ff0000;stroke:#ff0000;" x="159.770695" xlink:href="#mcc01e6ad99" y="170.650043"/>
     <use style="fill:#ff0000;stroke:#ff0000;" x="160.831658" xlink:href="#mcc01e6ad99" y="170.650043"/>
     <use style="fill:#ff0000;stroke:#ff0000;" x="161.89262" xlink:href="#mcc01e6ad99" y="170.650043"/>
     <use style="fill:#ff0000;stroke:#ff0000;" x="162.953583" xlink:href="#mcc01e6ad99" y="170.650043"/>
     <use style="fill:#ff0000;stroke:#ff0000;" x="164.014545" xlink:href="#mcc01e6ad99" y="183.348891"/>
     <use style="fill:#ff0000;stroke:#ff0000;" x="165.075508" xlink:href="#mcc01e6ad99" y="183.348891"/>
     <use style="fill:#ff0000;stroke:#ff0000;" x="166.136471" xlink:href="#mcc01e6ad99" y="181.269532"/>
     <use style="fill:#ff0000;stroke:#ff0000;" x="167.197433" xlink:href="#mcc01e6ad99" y="181.269532"/>
     <use style="fill:#ff0000;stroke:#ff0000;" x="168.258396" xlink:href="#mcc01e6ad99" y="181.269532"/>
     <use style="fill:#ff0000;stroke:#ff0000;" x="169.319358" xlink:href="#mcc01e6ad99" y="170.745827"/>
     <use style="fill:#ff0000;stroke:#ff0000;" x="170.380321" xlink:href="#mcc01e6ad99" y="170.745827"/>
     <use style="fill:#ff0000;stroke:#ff0000;" x="171.441283" xlink:href="#mcc01e6ad99" y="159.048745"/>
     <use style="fill:#ff0000;stroke:#ff0000;" x="172.502246" xlink:href="#mcc01e6ad99" y="159.048745"/>
     <use style="fill:#ff0000;stroke:#ff0000;" x="173.563209" xlink:href="#mcc01e6ad99" y="147.850725"/>
     <use style="fill:#ff0000;stroke:#ff0000;" x="174.624171" xlink:href="#mcc01e6ad99" y="147.850725"/>
     <use style="fill:#ff0000;stroke:#ff0000;" x="175.685134" xlink:href="#mcc01e6ad99" y="147.850725"/>
     <use style="fill:#ff0000;stroke:#ff0000;" x="176.746096" xlink:href="#mcc01e6ad99" y="136.548687"/>
     <use style="fill:#ff0000;stroke:#ff0000;" x="177.807059" xlink:href="#mcc01e6ad99" y="136.548687"/>
     <use style="fill:#ff0000;stroke:#ff0000;" x="178.868021" xlink:href="#mcc01e6ad99" y="148.537151"/>
     <use style="fill:#ff0000;stroke:#ff0000;" x="179.928984" xlink:href="#mcc01e6ad99" y="148.537151"/>
     <use style="fill:#ff0000;stroke:#ff0000;" x="180.989947" xlink:href="#mcc01e6ad99" y="136.658133"/>
     <use style="fill:#ff0000;stroke:#ff0000;" x="182.050909" xlink:href="#mcc01e6ad99" y="136.658133"/>
     <use style="fill:#ff0000;stroke:#ff0000;" x="183.111872" xlink:href="#mcc01e6ad99" y="139.400129"/>
     <use style="fill:#ff0000;stroke:#ff0000;" x="184.172834" xlink:href="#mcc01e6ad99" y="139.400129"/>
     <use style="fill:#ff0000;stroke:#ff0000;" x="185.233797" xlink:href="#mcc01e6ad99" y="152.991941"/>
     <use style="fill:#ff0000;stroke:#ff0000;" x="186.294759" xlink:href="#mcc01e6ad99" y="142.357197"/>
     <use style="fill:#ff0000;stroke:#ff0000;" x="187.355722" xlink:href="#mcc01e6ad99" y="142.357197"/>
     <use style="fill:#ff0000;stroke:#ff0000;" x="188.416684" xlink:href="#mcc01e6ad99" y="155.845596"/>
     <use style="fill:#ff0000;stroke:#ff0000;" x="189.477647" xlink:href="#mcc01e6ad99" y="155.845596"/>
     <use style="fill:#ff0000;stroke:#ff0000;" x="190.53861" xlink:href="#mcc01e6ad99" y="155.845596"/>
     <use style="fill:#ff0000;stroke:#ff0000;" x="191.599572" xlink:href="#mcc01e6ad99" y="155.845596"/>
     <use style="fill:#ff0000;stroke:#ff0000;" x="192.660535" xlink:href="#mcc01e6ad99" y="155.845596"/>
     <use style="fill:#ff0000;stroke:#ff0000;" x="193.721497" xlink:href="#mcc01e6ad99" y="155.845596"/>
     <use style="fill:#ff0000;stroke:#ff0000;" x="194.78246" xlink:href="#mcc01e6ad99" y="155.845596"/>
     <use style="fill:#ff0000;stroke:#ff0000;" x="195.843422" xlink:href="#mcc01e6ad99" y="155.845596"/>
     <use style="fill:#ff0000;stroke:#ff0000;" x="196.904385" xlink:href="#mcc01e6ad99" y="155.845596"/>
     <use style="fill:#ff0000;stroke:#ff0000;" x="197.965348" xlink:href="#mcc01e6ad99" y="155.845596"/>
     <use style="fill:#ff0000;stroke:#ff0000;" x="199.02631" xlink:href="#mcc01e6ad99" y="155.787297"/>
     <use style="fill:#ff0000;stroke:#ff0000;" x="200.087273" xlink:href="#mcc01e6ad99" y="155.787297"/>
     <use style="fill:#ff0000;stroke:#ff0000;" x="201.148235" xlink:href="#mcc01e6ad99" y="159.58241"/>
     <use style="fill:#ff0000;stroke:#ff0000;" x="202.209198" xlink:href="#mcc01e6ad99" y="159.58241"/>
     <use style="fill:#ff0000;stroke:#ff0000;" x="203.27016" xlink:href="#mcc01e6ad99" y="159.58241"/>
     <use style="fill:#ff0000;stroke:#ff0000;" x="204.331123" xlink:href="#mcc01e6ad99" y="148.396461"/>
     <use style="fill:#ff0000;stroke:#ff0000;" x="205.392086" xlink:href="#mcc01e6ad99" y="148.396461"/>
     <use style="fill:#ff0000;stroke:#ff0000;" x="206.453048" xlink:href="#mcc01e6ad99" y="136.801093"/>
     <use style="fill:#ff0000;stroke:#ff0000;" x="207.514011" xlink:href="#mcc01e6ad99" y="138.666579"/>
     <use style="fill:#ff0000;stroke:#ff0000;" x="208.574973" xlink:href="#mcc01e6ad99" y="138.666579"/>
     <use style="fill:#ff0000;stroke:#ff0000;" x="209.635936" xlink:href="#mcc01e6ad99" y="138.666579"/>
     <use style="fill:#ff0000;stroke:#ff0000;" x="210.696898" xlink:href="#mcc01e6ad99" y="138.472719"/>
     <use style="fill:#ff0000;stroke:#ff0000;" x="211.757861" xlink:href="#mcc01e6ad99" y="136.921682"/>
     <use style="fill:#ff0000;stroke:#ff0000;" x="212.818824" xlink:href="#mcc01e6ad99" y="136.921682"/>
     <use style="fill:#ff0000;stroke:#ff0000;" x="213.879786" xlink:href="#mcc01e6ad99" y="126.573791"/>
     <use style="fill:#ff0000;stroke:#ff0000;" x="214.940749" xlink:href="#mcc01e6ad99" y="126.573791"/>
     <use style="fill:#ff0000;stroke:#ff0000;" x="216.001711" xlink:href="#mcc01e6ad99" y="126.573791"/>
     <use style="fill:#ff0000;stroke:#ff0000;" x="217.062674" xlink:href="#mcc01e6ad99" y="116.822402"/>
     <use style="fill:#ff0000;stroke:#ff0000;" x="218.123636" xlink:href="#mcc01e6ad99" y="107.529889"/>
     <use style="fill:#ff0000;stroke:#ff0000;" x="219.184599" xlink:href="#mcc01e6ad99" y="107.529889"/>
     <use style="fill:#ff0000;stroke:#ff0000;" x="220.245561" xlink:href="#mcc01e6ad99" y="105.219631"/>
     <use style="fill:#ff0000;stroke:#ff0000;" x="221.306524" xlink:href="#mcc01e6ad99" y="105.219631"/>
     <use style="fill:#ff0000;stroke:#ff0000;" x="222.367487" xlink:href="#mcc01e6ad99" y="106.428716"/>
     <use style="fill:#ff0000;stroke:#ff0000;" x="223.428449" xlink:href="#mcc01e6ad99" y="106.428716"/>
     <use style="fill:#ff0000;stroke:#ff0000;" x="224.489412" xlink:href="#mcc01e6ad99" y="106.428716"/>
     <use style="fill:#ff0000;stroke:#ff0000;" x="225.550374" xlink:href="#mcc01e6ad99" y="107.214282"/>
     <use style="fill:#ff0000;stroke:#ff0000;" x="226.611337" xlink:href="#mcc01e6ad99" y="107.214282"/>
     <use style="fill:#ff0000;stroke:#ff0000;" x="227.672299" xlink:href="#mcc01e6ad99" y="107.214282"/>
     <use style="fill:#ff0000;stroke:#ff0000;" x="228.733262" xlink:href="#mcc01e6ad99" y="95.551365"/>
     <use style="fill:#ff0000;stroke:#ff0000;" x="229.794225" xlink:href="#mcc01e6ad99" y="95.551365"/>
     <use style="fill:#ff0000;stroke:#ff0000;" x="230.855187" xlink:href="#mcc01e6ad99" y="82.868101"/>
     <use style="fill:#ff0000;stroke:#ff0000;" x="231.91615" xlink:href="#mcc01e6ad99" y="82.868101"/>
     <use style="fill:#ff0000;stroke:#ff0000;" x="232.977112" xlink:href="#mcc01e6ad99" y="73.258816"/>
     <use style="fill:#ff0000;stroke:#ff0000;" x="234.038075" xlink:href="#mcc01e6ad99" y="73.258816"/>
     <use style="fill:#ff0000;stroke:#ff0000;" x="235.099037" xlink:href="#mcc01e6ad99" y="73.258816"/>
     <use style="fill:#ff0000;stroke:#ff0000;" x="236.16" xlink:href="#mcc01e6ad99" y="71.59293"/>
     <use style="fill:#ff0000;stroke:#ff0000;" x="237.220963" xlink:href="#mcc01e6ad99" y="71.59293"/>
     <use style="fill:#ff0000;stroke:#ff0000;" x="238.281925" xlink:href="#mcc01e6ad99" y="62.25439"/>
     <use style="fill:#ff0000;stroke:#ff0000;" x="239.342888" xlink:href="#mcc01e6ad99" y="62.25439"/>
     <use style="fill:#ff0000;stroke:#ff0000;" x="240.40385" xlink:href="#mcc01e6ad99" y="53.568"/>
     <use style="fill:#ff0000;stroke:#ff0000;" x="241.464813" xlink:href="#mcc01e6ad99" y="66.018199"/>
     <use style="fill:#ff0000;stroke:#ff0000;" x="242.525775" xlink:href="#mcc01e6ad99" y="66.018199"/>
     <use style="fill:#ff0000;stroke:#ff0000;" x="243.586738" xlink:href="#mcc01e6ad99" y="78.961457"/>
     <use style="fill:#ff0000;stroke:#ff0000;" x="244.647701" xlink:href="#mcc01e6ad99" y="78.961457"/>
     <use style="fill:#ff0000;stroke:#ff0000;" x="245.708663" xlink:href="#mcc01e6ad99" y="91.301583"/>
     <use style="fill:#ff0000;stroke:#ff0000;" x="246.769626" xlink:href="#mcc01e6ad99" y="91.301583"/>
     <use style="fill:#ff0000;stroke:#ff0000;" x="247.830588" xlink:href="#mcc01e6ad99" y="89.910859"/>
     <use style="fill:#ff0000;stroke:#ff0000;" x="248.891551" xlink:href="#mcc01e6ad99" y="89.910859"/>
     <use style="fill:#ff0000;stroke:#ff0000;" x="249.952513" xlink:href="#mcc01e6ad99" y="89.910859"/>
     <use style="fill:#ff0000;stroke:#ff0000;" x="251.013476" xlink:href="#mcc01e6ad99" y="78.844095"/>
     <use style="fill:#ff0000;stroke:#ff0000;" x="252.074439" xlink:href="#mcc01e6ad99" y="78.844095"/>
     <use style="fill:#ff0000;stroke:#ff0000;" x="253.135401" xlink:href="#mcc01e6ad99" y="69.599786"/>
     <use style="fill:#ff0000;stroke:#ff0000;" x="254.196364" xlink:href="#mcc01e6ad99" y="69.599786"/>
     <use style="fill:#ff0000;stroke:#ff0000;" x="255.257326" xlink:href="#mcc01e6ad99" y="60.076953"/>
     <use style="fill:#ff0000;stroke:#ff0000;" x="256.318289" xlink:href="#mcc01e6ad99" y="60.076953"/>
     <use style="fill:#ff0000;stroke:#ff0000;" x="257.379251" xlink:href="#mcc01e6ad99" y="70.698031"/>
     <use style="fill:#ff0000;stroke:#ff0000;" x="258.440214" xlink:href="#mcc01e6ad99" y="70.698031"/>
     <use style="fill:#ff0000;stroke:#ff0000;" x="259.501176" xlink:href="#mcc01e6ad99" y="61.705416"/>
     <use style="fill:#ff0000;stroke:#ff0000;" x="260.562139" xlink:href="#mcc01e6ad99" y="61.705416"/>
     <use style="fill:#ff0000;stroke:#ff0000;" x="261.623102" xlink:href="#mcc01e6ad99" y="61.705416"/>
     <use style="fill:#ff0000;stroke:#ff0000;" x="262.684064" xlink:href="#mcc01e6ad99" y="75.65616"/>
     <use style="fill:#ff0000;stroke:#ff0000;" x="263.745027" xlink:href="#mcc01e6ad99" y="90.361907"/>
     <use style="fill:#ff0000;stroke:#ff0000;" x="264.805989" xlink:href="#mcc01e6ad99" y="90.361907"/>
     <use style="fill:#ff0000;stroke:#ff0000;" x="265.866952" xlink:href="#mcc01e6ad99" y="79.431129"/>
     <use style="fill:#ff0000;stroke:#ff0000;" x="266.927914" xlink:href="#mcc01e6ad99" y="79.431129"/>
     <use style="fill:#ff0000;stroke:#ff0000;" x="267.988877" xlink:href="#mcc01e6ad99" y="68.960745"/>
     <use style="fill:#ff0000;stroke:#ff0000;" x="269.04984" xlink:href="#mcc01e6ad99" y="68.960745"/>
     <use style="fill:#ff0000;stroke:#ff0000;" x="270.110802" xlink:href="#mcc01e6ad99" y="79.50573"/>
     <use style="fill:#ff0000;stroke:#ff0000;" x="271.171765" xlink:href="#mcc01e6ad99" y="79.50573"/>
     <use style="fill:#ff0000;stroke:#ff0000;" x="272.232727" xlink:href="#mcc01e6ad99" y="79.50573"/>
     <use style="fill:#ff0000;stroke:#ff0000;" x="273.29369" xlink:href="#mcc01e6ad99" y="79.50573"/>
     <use style="fill:#ff0000;stroke:#ff0000;" x="274.354652" xlink:href="#mcc01e6ad99" y="79.50573"/>
     <use style="fill:#ff0000;stroke:#ff0000;" x="275.415615" xlink:href="#mcc01e6ad99" y="79.50573"/>
     <use style="fill:#ff0000;stroke:#ff0000;" x="276.476578" xlink:href="#mcc01e6ad99" y="79.50573"/>
     <use style="fill:#ff0000;stroke:#ff0000;" x="277.53754" xlink:href="#mcc01e6ad99" y="79.50573"/>
     <use style="fill:#ff0000;stroke:#ff0000;" x="278.598503" xlink:href="#mcc01e6ad99" y="79.50573"/>
     <use style="fill:#ff0000;stroke:#ff0000;" x="279.659465" xlink:href="#mcc01e6ad99" y="79.50573"/>
     <use style="fill:#ff0000;stroke:#ff0000;" x="280.720428" xlink:href="#mcc01e6ad99" y="79.50573"/>
     <use style="fill:#ff0000;stroke:#ff0000;" x="281.78139" xlink:href="#mcc01e6ad99" y="79.50573"/>
     <use style="fill:#ff0000;stroke:#ff0000;" x="282.842353" xlink:href="#mcc01e6ad99" y="79.50573"/>
     <use style="fill:#ff0000;stroke:#ff0000;" x="283.903316" xlink:href="#mcc01e6ad99" y="79.50573"/>
     <use style="fill:#ff0000;stroke:#ff0000;" x="284.964278" xlink:href="#mcc01e6ad99" y="79.50573"/>
     <use style="fill:#ff0000;stroke:#ff0000;" x="286.025241" xlink:href="#mcc01e6ad99" y="79.50573"/>
     <use style="fill:#ff0000;stroke:#ff0000;" x="287.086203" xlink:href="#mcc01e6ad99" y="79.50573"/>
     <use style="fill:#ff0000;stroke:#ff0000;" x="288.147166" xlink:href="#mcc01e6ad99" y="79.50573"/>
     <use style="fill:#ff0000;stroke:#ff0000;" x="289.208128" xlink:href="#mcc01e6ad99" y="79.50573"/>
     <use style="fill:#ff0000;stroke:#ff0000;" x="290.269091" xlink:href="#mcc01e6ad99" y="79.50573"/>
     <use style="fill:#ff0000;stroke:#ff0000;" x="291.330053" xlink:href="#mcc01e6ad99" y="79.50573"/>
     <use style="fill:#ff0000;stroke:#ff0000;" x="292.391016" xlink:href="#mcc01e6ad99" y="79.50573"/>
     <use style="fill:#ff0000;stroke:#ff0000;" x="293.451979" xlink:href="#mcc01e6ad99" y="79.50573"/>
     <use style="fill:#ff0000;stroke:#ff0000;" x="294.512941" xlink:href="#mcc01e6ad99" y="79.50573"/>
     <use style="fill:#ff0000;stroke:#ff0000;" x="295.573904" xlink:href="#mcc01e6ad99" y="79.50573"/>
     <use style="fill:#ff0000;stroke:#ff0000;" x="296.634866" xlink:href="#mcc01e6ad99" y="79.50573"/>
     <use style="fill:#ff0000;stroke:#ff0000;" x="297.695829" xlink:href="#mcc01e6ad99" y="79.50573"/>
     <use style="fill:#ff0000;stroke:#ff0000;" x="298.756791" xlink:href="#mcc01e6ad99" y="79.50573"/>
     <use style="fill:#ff0000;stroke:#ff0000;" x="299.817754" xlink:href="#mcc01e6ad99" y="79.50573"/>
     <use style="fill:#ff0000;stroke:#ff0000;" x="300.878717" xlink:href="#mcc01e6ad99" y="79.50573"/>
     <use style="fill:#ff0000;stroke:#ff0000;" x="301.939679" xlink:href="#mcc01e6ad99" y="79.50573"/>
     <use style="fill:#ff0000;stroke:#ff0000;" x="303.000642" xlink:href="#mcc01e6ad99" y="79.50573"/>
     <use style="fill:#ff0000;stroke:#ff0000;" x="304.061604" xlink:href="#mcc01e6ad99" y="79.50573"/>
     <use style="fill:#ff0000;stroke:#ff0000;" x="305.122567" xlink:href="#mcc01e6ad99" y="79.50573"/>
     <use style="fill:#ff0000;stroke:#ff0000;" x="306.183529" xlink:href="#mcc01e6ad99" y="79.50573"/>
     <use style="fill:#ff0000;stroke:#ff0000;" x="307.244492" xlink:href="#mcc01e6ad99" y="79.50573"/>
     <use style="fill:#ff0000;stroke:#ff0000;" x="308.305455" xlink:href="#mcc01e6ad99" y="79.50573"/>
     <use style="fill:#ff0000;stroke:#ff0000;" x="309.366417" xlink:href="#mcc01e6ad99" y="79.50573"/>
     <use style="fill:#ff0000;stroke:#ff0000;" x="310.42738" xlink:href="#mcc01e6ad99" y="79.50573"/>
     <use style="fill:#ff0000;stroke:#ff0000;" x="311.488342" xlink:href="#mcc01e6ad99" y="79.50573"/>
     <use style="fill:#ff0000;stroke:#ff0000;" x="312.549305" xlink:href="#mcc01e6ad99" y="79.50573"/>
     <use style="fill:#ff0000;stroke:#ff0000;" x="313.610267" xlink:href="#mcc01e6ad99" y="79.50573"/>
     <use style="fill:#ff0000;stroke:#ff0000;" x="314.67123" xlink:href="#mcc01e6ad99" y="79.50573"/>
     <use style="fill:#ff0000;stroke:#ff0000;" x="315.732193" xlink:href="#mcc01e6ad99" y="79.50573"/>
     <use style="fill:#ff0000;stroke:#ff0000;" x="316.793155" xlink:href="#mcc01e6ad99" y="79.50573"/>
     <use style="fill:#ff0000;stroke:#ff0000;" x="317.854118" xlink:href="#mcc01e6ad99" y="79.50573"/>
     <use style="fill:#ff0000;stroke:#ff0000;" x="318.91508" xlink:href="#mcc01e6ad99" y="79.50573"/>
     <use style="fill:#ff0000;stroke:#ff0000;" x="319.976043" xlink:href="#mcc01e6ad99" y="79.50573"/>
     <use style="fill:#ff0000;stroke:#ff0000;" x="321.037005" xlink:href="#mcc01e6ad99" y="79.50573"/>
     <use style="fill:#ff0000;stroke:#ff0000;" x="322.097968" xlink:href="#mcc01e6ad99" y="79.50573"/>
     <use style="fill:#ff0000;stroke:#ff0000;" x="323.15893" xlink:href="#mcc01e6ad99" y="79.50573"/>
     <use style="fill:#ff0000;stroke:#ff0000;" x="324.219893" xlink:href="#mcc01e6ad99" y="79.50573"/>
     <use style="fill:#ff0000;stroke:#ff0000;" x="325.280856" xlink:href="#mcc01e6ad99" y="79.50573"/>
     <use style="fill:#ff0000;stroke:#ff0000;" x="326.341818" xlink:href="#mcc01e6ad99" y="79.50573"/>
     <use style="fill:#ff0000;stroke:#ff0000;" x="327.402781" xlink:href="#mcc01e6ad99" y="79.50573"/>
     <use style="fill:#ff0000;stroke:#ff0000;" x="328.463743" xlink:href="#mcc01e6ad99" y="79.50573"/>
     <use style="fill:#ff0000;stroke:#ff0000;" x="329.524706" xlink:href="#mcc01e6ad99" y="79.50573"/>
     <use style="fill:#ff0000;stroke:#ff0000;" x="330.585668" xlink:href="#mcc01e6ad99" y="79.50573"/>
     <use style="fill:#ff0000;stroke:#ff0000;" x="331.646631" xlink:href="#mcc01e6ad99" y="79.50573"/>
     <use style="fill:#ff0000;stroke:#ff0000;" x="332.707594" xlink:href="#mcc01e6ad99" y="79.50573"/>
     <use style="fill:#ff0000;stroke:#ff0000;" x="333.768556" xlink:href="#mcc01e6ad99" y="79.50573"/>
     <use style="fill:#ff0000;stroke:#ff0000;" x="334.829519" xlink:href="#mcc01e6ad99" y="79.50573"/>
     <use style="fill:#ff0000;stroke:#ff0000;" x="335.890481" xlink:href="#mcc01e6ad99" y="79.50573"/>
     <use style="fill:#ff0000;stroke:#ff0000;" x="336.951444" xlink:href="#mcc01e6ad99" y="79.50573"/>
     <use style="fill:#ff0000;stroke:#ff0000;" x="338.012406" xlink:href="#mcc01e6ad99" y="79.50573"/>
     <use style="fill:#ff0000;stroke:#ff0000;" x="339.073369" xlink:href="#mcc01e6ad99" y="79.50573"/>
     <use style="fill:#ff0000;stroke:#ff0000;" x="340.134332" xlink:href="#mcc01e6ad99" y="79.50573"/>
     <use style="fill:#ff0000;stroke:#ff0000;" x="341.195294" xlink:href="#mcc01e6ad99" y="79.50573"/>
     <use style="fill:#ff0000;stroke:#ff0000;" x="342.256257" xlink:href="#mcc01e6ad99" y="79.50573"/>
     <use style="fill:#ff0000;stroke:#ff0000;" x="343.317219" xlink:href="#mcc01e6ad99" y="79.50573"/>
     <use style="fill:#ff0000;stroke:#ff0000;" x="344.378182" xlink:href="#mcc01e6ad99" y="79.50573"/>
     <use style="fill:#ff0000;stroke:#ff0000;" x="345.439144" xlink:href="#mcc01e6ad99" y="79.50573"/>
     <use style="fill:#ff0000;stroke:#ff0000;" x="346.500107" xlink:href="#mcc01e6ad99" y="79.50573"/>
     <use style="fill:#ff0000;stroke:#ff0000;" x="347.56107" xlink:href="#mcc01e6ad99" y="79.50573"/>
     <use style="fill:#ff0000;stroke:#ff0000;" x="348.622032" xlink:href="#mcc01e6ad99" y="79.50573"/>
     <use style="fill:#ff0000;stroke:#ff0000;" x="349.682995" xlink:href="#mcc01e6ad99" y="79.50573"/>
     <use style="fill:#ff0000;stroke:#ff0000;" x="350.743957" xlink:href="#mcc01e6ad99" y="79.50573"/>
     <use style="fill:#ff0000;stroke:#ff0000;" x="351.80492" xlink:href="#mcc01e6ad99" y="79.50573"/>
     <use style="fill:#ff0000;stroke:#ff0000;" x="352.865882" xlink:href="#mcc01e6ad99" y="79.50573"/>
     <use style="fill:#ff0000;stroke:#ff0000;" x="353.926845" xlink:href="#mcc01e6ad99" y="79.50573"/>
     <use style="fill:#ff0000;stroke:#ff0000;" x="354.987807" xlink:href="#mcc01e6ad99" y="79.50573"/>
     <use style="fill:#ff0000;stroke:#ff0000;" x="356.04877" xlink:href="#mcc01e6ad99" y="79.50573"/>
     <use style="fill:#ff0000;stroke:#ff0000;" x="357.109733" xlink:href="#mcc01e6ad99" y="79.50573"/>
     <use style="fill:#ff0000;stroke:#ff0000;" x="358.170695" xlink:href="#mcc01e6ad99" y="79.50573"/>
     <use style="fill:#ff0000;stroke:#ff0000;" x="359.231658" xlink:href="#mcc01e6ad99" y="79.50573"/>
     <use style="fill:#ff0000;stroke:#ff0000;" x="360.29262" xlink:href="#mcc01e6ad99" y="79.50573"/>
     <use style="fill:#ff0000;stroke:#ff0000;" x="361.353583" xlink:href="#mcc01e6ad99" y="79.50573"/>
     <use style="fill:#ff0000;stroke:#ff0000;" x="362.414545" xlink:href="#mcc01e6ad99" y="79.50573"/>
     <use style="fill:#ff0000;stroke:#ff0000;" x="363.475508" xlink:href="#mcc01e6ad99" y="79.50573"/>
     <use style="fill:#ff0000;stroke:#ff0000;" x="364.536471" xlink:href="#mcc01e6ad99" y="79.50573"/>
     <use style="fill:#ff0000;stroke:#ff0000;" x="365.597433" xlink:href="#mcc01e6ad99" y="79.50573"/>
     <use style="fill:#ff0000;stroke:#ff0000;" x="366.658396" xlink:href="#mcc01e6ad99" y="79.50573"/>
     <use style="fill:#ff0000;stroke:#ff0000;" x="367.719358" xlink:href="#mcc01e6ad99" y="79.50573"/>
     <use style="fill:#ff0000;stroke:#ff0000;" x="368.780321" xlink:href="#mcc01e6ad99" y="79.50573"/>
     <use style="fill:#ff0000;stroke:#ff0000;" x="369.841283" xlink:href="#mcc01e6ad99" y="79.50573"/>
     <use style="fill:#ff0000;stroke:#ff0000;" x="370.902246" xlink:href="#mcc01e6ad99" y="79.50573"/>
     <use style="fill:#ff0000;stroke:#ff0000;" x="371.963209" xlink:href="#mcc01e6ad99" y="79.50573"/>
     <use style="fill:#ff0000;stroke:#ff0000;" x="373.024171" xlink:href="#mcc01e6ad99" y="79.50573"/>
     <use style="fill:#ff0000;stroke:#ff0000;" x="374.085134" xlink:href="#mcc01e6ad99" y="79.50573"/>
     <use style="fill:#ff0000;stroke:#ff0000;" x="375.146096" xlink:href="#mcc01e6ad99" y="79.50573"/>
     <use style="fill:#ff0000;stroke:#ff0000;" x="376.207059" xlink:href="#mcc01e6ad99" y="79.50573"/>
     <use style="fill:#ff0000;stroke:#ff0000;" x="377.268021" xlink:href="#mcc01e6ad99" y="79.50573"/>
     <use style="fill:#ff0000;stroke:#ff0000;" x="378.328984" xlink:href="#mcc01e6ad99" y="79.50573"/>
     <use style="fill:#ff0000;stroke:#ff0000;" x="379.389947" xlink:href="#mcc01e6ad99" y="79.50573"/>
     <use style="fill:#ff0000;stroke:#ff0000;" x="380.450909" xlink:href="#mcc01e6ad99" y="79.50573"/>
     <use style="fill:#ff0000;stroke:#ff0000;" x="381.511872" xlink:href="#mcc01e6ad99" y="79.50573"/>
     <use style="fill:#ff0000;stroke:#ff0000;" x="382.572834" xlink:href="#mcc01e6ad99" y="79.50573"/>
     <use style="fill:#ff0000;stroke:#ff0000;" x="383.633797" xlink:href="#mcc01e6ad99" y="79.50573"/>
     <use style="fill:#ff0000;stroke:#ff0000;" x="384.694759" xlink:href="#mcc01e6ad99" y="79.50573"/>
     <use style="fill:#ff0000;stroke:#ff0000;" x="385.755722" xlink:href="#mcc01e6ad99" y="79.50573"/>
     <use style="fill:#ff0000;stroke:#ff0000;" x="386.816684" xlink:href="#mcc01e6ad99" y="79.50573"/>
     <use style="fill:#ff0000;stroke:#ff0000;" x="387.877647" xlink:href="#mcc01e6ad99" y="79.50573"/>
     <use style="fill:#ff0000;stroke:#ff0000;" x="388.93861" xlink:href="#mcc01e6ad99" y="79.50573"/>
     <use style="fill:#ff0000;stroke:#ff0000;" x="389.999572" xlink:href="#mcc01e6ad99" y="79.50573"/>
     <use style="fill:#ff0000;stroke:#ff0000;" x="391.060535" xlink:href="#mcc01e6ad99" y="79.50573"/>
     <use style="fill:#ff0000;stroke:#ff0000;" x="392.121497" xlink:href="#mcc01e6ad99" y="79.50573"/>
     <use style="fill:#ff0000;stroke:#ff0000;" x="393.18246" xlink:href="#mcc01e6ad99" y="79.50573"/>
     <use style="fill:#ff0000;stroke:#ff0000;" x="394.243422" xlink:href="#mcc01e6ad99" y="79.50573"/>
     <use style="fill:#ff0000;stroke:#ff0000;" x="395.304385" xlink:href="#mcc01e6ad99" y="79.50573"/>
     <use style="fill:#ff0000;stroke:#ff0000;" x="396.365348" xlink:href="#mcc01e6ad99" y="79.50573"/>
     <use style="fill:#ff0000;stroke:#ff0000;" x="397.42631" xlink:href="#mcc01e6ad99" y="79.50573"/>
     <use style="fill:#ff0000;stroke:#ff0000;" x="398.487273" xlink:href="#mcc01e6ad99" y="79.50573"/>
    </g>
   </g>
   <g id="patch_3">
    <path d="M 57.6 307.584 
L 57.6 41.472 
" style="fill:none;stroke:#000000;stroke-linecap:square;stroke-linejoin:miter;stroke-width:0.8;"/>
   </g>
   <g id="patch_4">
    <path d="M 414.72 307.584 
L 414.72 41.472 
" style="fill:none;stroke:#000000;stroke-linecap:square;stroke-linejoin:miter;stroke-width:0.8;"/>
   </g>
   <g id="patch_5">
    <path d="M 57.6 307.584 
L 414.72 307.584 
" style="fill:none;stroke:#000000;stroke-linecap:square;stroke-linejoin:miter;stroke-width:0.8;"/>
   </g>
   <g id="patch_6">
    <path d="M 57.6 41.472 
L 414.72 41.472 
" style="fill:none;stroke:#000000;stroke-linecap:square;stroke-linejoin:miter;stroke-width:0.8;"/>
   </g>
  </g>
 </g>
 <defs>
  <clipPath id="pc44b54ff3a">
   <rect height="266.112" width="357.12" x="57.6" y="41.472"/>
  </clipPath>
 </defs>
</svg>
