<?xml version="1.0" encoding="utf-8" standalone="no"?>
<!DOCTYPE svg PUBLIC "-//W3C//DTD SVG 1.1//EN"
  "http://www.w3.org/Graphics/SVG/1.1/DTD/svg11.dtd">
<!-- Created with matplotlib (https://matplotlib.org/) -->
<svg height="345.6pt" version="1.1" viewBox="0 0 460.8 345.6" width="460.8pt" xmlns="http://www.w3.org/2000/svg" xmlns:xlink="http://www.w3.org/1999/xlink">
 <defs>
  <style type="text/css">
*{stroke-linecap:butt;stroke-linejoin:round;}
  </style>
 </defs>
 <g id="figure_1">
  <g id="patch_1">
   <path d="M 0 345.6 
L 460.8 345.6 
L 460.8 0 
L 0 0 
z
" style="fill:#ffffff;"/>
  </g>
  <g id="axes_1">
   <g id="patch_2">
    <path d="M 57.6 307.584 
L 414.72 307.584 
L 414.72 41.472 
L 57.6 41.472 
z
" style="fill:#ffffff;"/>
   </g>
   <g id="line2d_1">
    <path clip-path="url(#pcd4523b824)" d="M 73.832727 295.488 
L 75.030715 259.797833 
L 78.624676 259.797833 
L 79.822664 224.268203 
L 82.218638 224.268203 
L 83.416625 190.868487 
L 84.614613 190.868487 
L 85.8126 159.010649 
L 89.406562 159.010649 
L 90.604549 195.927442 
L 91.802536 204.856524 
L 93.000523 204.856524 
L 94.198511 212.917622 
L 96.594485 212.917622 
L 97.792472 178.194328 
L 98.99046 178.194328 
L 100.188447 146.451485 
L 101.386434 146.451485 
L 102.584421 158.557366 
L 104.980396 158.557366 
L 106.178383 147.557254 
L 109.772345 147.557254 
L 110.970332 158.777144 
L 112.168319 158.777144 
L 113.366307 157.055132 
L 115.762281 157.055132 
L 116.960268 169.571669 
L 118.158256 169.571669 
L 119.356243 157.874006 
L 120.55423 147.465043 
L 122.950205 147.465043 
L 124.148192 159.265157 
L 125.346179 159.265157 
L 126.544166 162.300237 
L 127.742154 151.458558 
L 131.336115 151.458558 
L 132.534103 155.847082 
L 133.73209 155.847082 
L 134.930077 154.118995 
L 136.128064 142.800563 
L 137.326052 142.800563 
L 138.524039 154.533394 
L 140.920013 154.533394 
L 142.118001 155.261435 
L 143.315988 155.261435 
L 144.513975 168.950278 
L 146.90995 168.950278 
L 148.107937 182.251279 
L 149.305924 182.251279 
L 150.503911 193.252377 
L 151.701899 193.252377 
L 152.899886 181.10645 
L 154.097873 179.741872 
L 155.29586 179.741872 
L 156.493848 168.851604 
L 158.889822 168.851604 
L 160.087809 180.956907 
L 161.285797 180.956907 
L 162.483784 192.765227 
L 163.681771 181.038976 
L 166.077746 181.038976 
L 167.275733 170.013977 
L 168.47372 170.013977 
L 169.671707 157.998174 
L 170.869695 170.650043 
L 174.463656 170.650043 
L 175.661644 183.348891 
L 176.859631 183.348891 
L 178.057618 181.269532 
L 180.453593 181.269532 
L 181.65158 170.745827 
L 182.849567 170.745827 
L 184.047555 159.048745 
L 185.245542 159.048745 
L 186.443529 147.850725 
L 188.839504 147.850725 
L 190.037491 136.548687 
L 191.235478 136.548687 
L 192.433465 148.537151 
L 193.631453 148.537151 
L 194.82944 136.658133 
L 196.027427 136.658133 
L 197.225414 139.400129 
L 198.423402 139.400129 
L 199.621389 152.991941 
L 200.819376 142.357197 
L 202.017363 142.357197 
L 203.215351 155.845596 
L 216.39321 155.787297 
L 217.591198 159.58241 
L 219.987172 159.58241 
L 221.185159 148.396461 
L 222.383147 148.396461 
L 223.581134 136.801093 
L 224.779121 138.666579 
L 227.175096 138.666579 
L 228.373083 138.472719 
L 229.57107 136.921682 
L 230.769057 136.921682 
L 231.967045 126.573791 
L 234.363019 126.573791 
L 236.758994 107.529889 
L 237.956981 107.529889 
L 239.154968 105.219631 
L 240.352955 105.219631 
L 241.550943 106.428716 
L 243.946917 106.428716 
L 245.144904 107.214282 
L 247.540879 107.214282 
L 248.738866 95.551365 
L 249.936853 95.551365 
L 251.134841 82.868101 
L 252.332828 82.868101 
L 253.530815 73.258816 
L 255.92679 73.258816 
L 257.124777 71.59293 
L 258.322764 71.59293 
L 259.520751 62.25439 
L 260.718739 62.25439 
L 261.916726 53.568 
L 263.114713 66.018199 
L 264.3127 66.018199 
L 265.510688 78.961457 
L 266.708675 78.961457 
L 267.906662 91.301583 
L 269.104649 91.301583 
L 270.302637 89.910859 
L 272.698611 89.910859 
L 273.896598 78.844095 
L 275.094586 78.844095 
L 276.292573 69.599786 
L 277.49056 69.599786 
L 278.688547 60.076953 
L 279.886535 60.076953 
L 281.084522 70.698031 
L 282.282509 70.698031 
L 283.480496 61.705416 
L 285.876471 61.705416 
L 288.272445 90.361907 
L 289.470433 90.361907 
L 290.66842 79.431129 
L 291.866407 79.431129 
L 293.064394 68.960745 
L 294.262382 68.960745 
L 295.460369 79.50573 
L 398.487273 79.50573 
L 398.487273 79.50573 
" style="fill:none;stroke:#ff0000;stroke-linecap:square;stroke-width:12;"/>
    <defs>
     <path d="M 0 3 
C 0.795609 3 1.55874 2.683901 2.12132 2.12132 
C 2.683901 1.55874 3 0.795609 3 0 
C 3 -0.795609 2.683901 -1.55874 2.12132 -2.12132 
C 1.55874 -2.683901 0.795609 -3 0 -3 
C -0.795609 -3 -1.55874 -2.683901 -2.12132 -2.12132 
C -2.683901 -1.55874 -3 -0.795609 -3 0 
C -3 0.795609 -2.683901 1.55874 -2.12132 2.12132 
C -1.55874 2.683901 -0.795609 3 0 3 
z
" id="m900058640b" style="stroke:#ff0000;"/>
    </defs>
    <g clip-path="url(#pcd4523b824)">
     <use style="fill:#ff0000;stroke:#ff0000;" x="73.832727" xlink:href="#m900058640b" y="295.488"/>
     <use style="fill:#ff0000;stroke:#ff0000;" x="75.030715" xlink:href="#m900058640b" y="259.797833"/>
     <use style="fill:#ff0000;stroke:#ff0000;" x="76.228702" xlink:href="#m900058640b" y="259.797833"/>
     <use style="fill:#ff0000;stroke:#ff0000;" x="77.426689" xlink:href="#m900058640b" y="259.797833"/>
     <use style="fill:#ff0000;stroke:#ff0000;" x="78.624676" xlink:href="#m900058640b" y="259.797833"/>
     <use style="fill:#ff0000;stroke:#ff0000;" x="79.822664" xlink:href="#m900058640b" y="224.268203"/>
     <use style="fill:#ff0000;stroke:#ff0000;" x="81.020651" xlink:href="#m900058640b" y="224.268203"/>
     <use style="fill:#ff0000;stroke:#ff0000;" x="82.218638" xlink:href="#m900058640b" y="224.268203"/>
     <use style="fill:#ff0000;stroke:#ff0000;" x="83.416625" xlink:href="#m900058640b" y="190.868487"/>
     <use style="fill:#ff0000;stroke:#ff0000;" x="84.614613" xlink:href="#m900058640b" y="190.868487"/>
     <use style="fill:#ff0000;stroke:#ff0000;" x="85.8126" xlink:href="#m900058640b" y="159.010649"/>
     <use style="fill:#ff0000;stroke:#ff0000;" x="87.010587" xlink:href="#m900058640b" y="159.010649"/>
     <use style="fill:#ff0000;stroke:#ff0000;" x="88.208574" xlink:href="#m900058640b" y="159.010649"/>
     <use style="fill:#ff0000;stroke:#ff0000;" x="89.406562" xlink:href="#m900058640b" y="159.010649"/>
     <use style="fill:#ff0000;stroke:#ff0000;" x="90.604549" xlink:href="#m900058640b" y="195.927442"/>
     <use style="fill:#ff0000;stroke:#ff0000;" x="91.802536" xlink:href="#m900058640b" y="204.856524"/>
     <use style="fill:#ff0000;stroke:#ff0000;" x="93.000523" xlink:href="#m900058640b" y="204.856524"/>
     <use style="fill:#ff0000;stroke:#ff0000;" x="94.198511" xlink:href="#m900058640b" y="212.917622"/>
     <use style="fill:#ff0000;stroke:#ff0000;" x="95.396498" xlink:href="#m900058640b" y="212.917622"/>
     <use style="fill:#ff0000;stroke:#ff0000;" x="96.594485" xlink:href="#m900058640b" y="212.917622"/>
     <use style="fill:#ff0000;stroke:#ff0000;" x="97.792472" xlink:href="#m900058640b" y="178.194328"/>
     <use style="fill:#ff0000;stroke:#ff0000;" x="98.99046" xlink:href="#m900058640b" y="178.194328"/>
     <use style="fill:#ff0000;stroke:#ff0000;" x="100.188447" xlink:href="#m900058640b" y="146.451485"/>
     <use style="fill:#ff0000;stroke:#ff0000;" x="101.386434" xlink:href="#m900058640b" y="146.451485"/>
     <use style="fill:#ff0000;stroke:#ff0000;" x="102.584421" xlink:href="#m900058640b" y="158.557366"/>
     <use style="fill:#ff0000;stroke:#ff0000;" x="103.782409" xlink:href="#m900058640b" y="158.557366"/>
     <use style="fill:#ff0000;stroke:#ff0000;" x="104.980396" xlink:href="#m900058640b" y="158.557366"/>
     <use style="fill:#ff0000;stroke:#ff0000;" x="106.178383" xlink:href="#m900058640b" y="147.557254"/>
     <use style="fill:#ff0000;stroke:#ff0000;" x="107.37637" xlink:href="#m900058640b" y="147.557254"/>
     <use style="fill:#ff0000;stroke:#ff0000;" x="108.574358" xlink:href="#m900058640b" y="147.557254"/>
     <use style="fill:#ff0000;stroke:#ff0000;" x="109.772345" xlink:href="#m900058640b" y="147.557254"/>
     <use style="fill:#ff0000;stroke:#ff0000;" x="110.970332" xlink:href="#m900058640b" y="158.777144"/>
     <use style="fill:#ff0000;stroke:#ff0000;" x="112.168319" xlink:href="#m900058640b" y="158.777144"/>
     <use style="fill:#ff0000;stroke:#ff0000;" x="113.366307" xlink:href="#m900058640b" y="157.055132"/>
     <use style="fill:#ff0000;stroke:#ff0000;" x="114.564294" xlink:href="#m900058640b" y="157.055132"/>
     <use style="fill:#ff0000;stroke:#ff0000;" x="115.762281" xlink:href="#m900058640b" y="157.055132"/>
     <use style="fill:#ff0000;stroke:#ff0000;" x="116.960268" xlink:href="#m900058640b" y="169.571669"/>
     <use style="fill:#ff0000;stroke:#ff0000;" x="118.158256" xlink:href="#m900058640b" y="169.571669"/>
     <use style="fill:#ff0000;stroke:#ff0000;" x="119.356243" xlink:href="#m900058640b" y="157.874006"/>
     <use style="fill:#ff0000;stroke:#ff0000;" x="120.55423" xlink:href="#m900058640b" y="147.465043"/>
     <use style="fill:#ff0000;stroke:#ff0000;" x="121.752217" xlink:href="#m900058640b" y="147.465043"/>
     <use style="fill:#ff0000;stroke:#ff0000;" x="122.950205" xlink:href="#m900058640b" y="147.465043"/>
     <use style="fill:#ff0000;stroke:#ff0000;" x="124.148192" xlink:href="#m900058640b" y="159.265157"/>
     <use style="fill:#ff0000;stroke:#ff0000;" x="125.346179" xlink:href="#m900058640b" y="159.265157"/>
     <use style="fill:#ff0000;stroke:#ff0000;" x="126.544166" xlink:href="#m900058640b" y="162.300237"/>
     <use style="fill:#ff0000;stroke:#ff0000;" x="127.742154" xlink:href="#m900058640b" y="151.458558"/>
     <use style="fill:#ff0000;stroke:#ff0000;" x="128.940141" xlink:href="#m900058640b" y="151.458558"/>
     <use style="fill:#ff0000;stroke:#ff0000;" x="130.138128" xlink:href="#m900058640b" y="151.458558"/>
     <use style="fill:#ff0000;stroke:#ff0000;" x="131.336115" xlink:href="#m900058640b" y="151.458558"/>
     <use style="fill:#ff0000;stroke:#ff0000;" x="132.534103" xlink:href="#m900058640b" y="155.847082"/>
     <use style="fill:#ff0000;stroke:#ff0000;" x="133.73209" xlink:href="#m900058640b" y="155.847082"/>
     <use style="fill:#ff0000;stroke:#ff0000;" x="134.930077" xlink:href="#m900058640b" y="154.118995"/>
     <use style="fill:#ff0000;stroke:#ff0000;" x="136.128064" xlink:href="#m900058640b" y="142.800563"/>
     <use style="fill:#ff0000;stroke:#ff0000;" x="137.326052" xlink:href="#m900058640b" y="142.800563"/>
     <use style="fill:#ff0000;stroke:#ff0000;" x="138.524039" xlink:href="#m900058640b" y="154.533394"/>
     <use style="fill:#ff0000;stroke:#ff0000;" x="139.722026" xlink:href="#m900058640b" y="154.533394"/>
     <use style="fill:#ff0000;stroke:#ff0000;" x="140.920013" xlink:href="#m900058640b" y="154.533394"/>
     <use style="fill:#ff0000;stroke:#ff0000;" x="142.118001" xlink:href="#m900058640b" y="155.261435"/>
     <use style="fill:#ff0000;stroke:#ff0000;" x="143.315988" xlink:href="#m900058640b" y="155.261435"/>
     <use style="fill:#ff0000;stroke:#ff0000;" x="144.513975" xlink:href="#m900058640b" y="168.950278"/>
     <use style="fill:#ff0000;stroke:#ff0000;" x="145.711962" xlink:href="#m900058640b" y="168.950278"/>
     <use style="fill:#ff0000;stroke:#ff0000;" x="146.90995" xlink:href="#m900058640b" y="168.950278"/>
     <use style="fill:#ff0000;stroke:#ff0000;" x="148.107937" xlink:href="#m900058640b" y="182.251279"/>
     <use style="fill:#ff0000;stroke:#ff0000;" x="149.305924" xlink:href="#m900058640b" y="182.251279"/>
     <use style="fill:#ff0000;stroke:#ff0000;" x="150.503911" xlink:href="#m900058640b" y="193.252377"/>
     <use style="fill:#ff0000;stroke:#ff0000;" x="151.701899" xlink:href="#m900058640b" y="193.252377"/>
     <use style="fill:#ff0000;stroke:#ff0000;" x="152.899886" xlink:href="#m900058640b" y="181.10645"/>
     <use style="fill:#ff0000;stroke:#ff0000;" x="154.097873" xlink:href="#m900058640b" y="179.741872"/>
     <use style="fill:#ff0000;stroke:#ff0000;" x="155.29586" xlink:href="#m900058640b" y="179.741872"/>
     <use style="fill:#ff0000;stroke:#ff0000;" x="156.493848" xlink:href="#m900058640b" y="168.851604"/>
     <use style="fill:#ff0000;stroke:#ff0000;" x="157.691835" xlink:href="#m900058640b" y="168.851604"/>
     <use style="fill:#ff0000;stroke:#ff0000;" x="158.889822" xlink:href="#m900058640b" y="168.851604"/>
     <use style="fill:#ff0000;stroke:#ff0000;" x="160.087809" xlink:href="#m900058640b" y="180.956907"/>
     <use style="fill:#ff0000;stroke:#ff0000;" x="161.285797" xlink:href="#m900058640b" y="180.956907"/>
     <use style="fill:#ff0000;stroke:#ff0000;" x="162.483784" xlink:href="#m900058640b" y="192.765227"/>
     <use style="fill:#ff0000;stroke:#ff0000;" x="163.681771" xlink:href="#m900058640b" y="181.038976"/>
     <use style="fill:#ff0000;stroke:#ff0000;" x="164.879758" xlink:href="#m900058640b" y="181.038976"/>
     <use style="fill:#ff0000;stroke:#ff0000;" x="166.077746" xlink:href="#m900058640b" y="181.038976"/>
     <use style="fill:#ff0000;stroke:#ff0000;" x="167.275733" xlink:href="#m900058640b" y="170.013977"/>
     <use style="fill:#ff0000;stroke:#ff0000;" x="168.47372" xlink:href="#m900058640b" y="170.013977"/>
     <use style="fill:#ff0000;stroke:#ff0000;" x="169.671707" xlink:href="#m900058640b" y="157.998174"/>
     <use style="fill:#ff0000;stroke:#ff0000;" x="170.869695" xlink:href="#m900058640b" y="170.650043"/>
     <use style="fill:#ff0000;stroke:#ff0000;" x="172.067682" xlink:href="#m900058640b" y="170.650043"/>
     <use style="fill:#ff0000;stroke:#ff0000;" x="173.265669" xlink:href="#m900058640b" y="170.650043"/>
     <use style="fill:#ff0000;stroke:#ff0000;" x="174.463656" xlink:href="#m900058640b" y="170.650043"/>
     <use style="fill:#ff0000;stroke:#ff0000;" x="175.661644" xlink:href="#m900058640b" y="183.348891"/>
     <use style="fill:#ff0000;stroke:#ff0000;" x="176.859631" xlink:href="#m900058640b" y="183.348891"/>
     <use style="fill:#ff0000;stroke:#ff0000;" x="178.057618" xlink:href="#m900058640b" y="181.269532"/>
     <use style="fill:#ff0000;stroke:#ff0000;" x="179.255606" xlink:href="#m900058640b" y="181.269532"/>
     <use style="fill:#ff0000;stroke:#ff0000;" x="180.453593" xlink:href="#m900058640b" y="181.269532"/>
     <use style="fill:#ff0000;stroke:#ff0000;" x="181.65158" xlink:href="#m900058640b" y="170.745827"/>
     <use style="fill:#ff0000;stroke:#ff0000;" x="182.849567" xlink:href="#m900058640b" y="170.745827"/>
     <use style="fill:#ff0000;stroke:#ff0000;" x="184.047555" xlink:href="#m900058640b" y="159.048745"/>
     <use style="fill:#ff0000;stroke:#ff0000;" x="185.245542" xlink:href="#m900058640b" y="159.048745"/>
     <use style="fill:#ff0000;stroke:#ff0000;" x="186.443529" xlink:href="#m900058640b" y="147.850725"/>
     <use style="fill:#ff0000;stroke:#ff0000;" x="187.641516" xlink:href="#m900058640b" y="147.850725"/>
     <use style="fill:#ff0000;stroke:#ff0000;" x="188.839504" xlink:href="#m900058640b" y="147.850725"/>
     <use style="fill:#ff0000;stroke:#ff0000;" x="190.037491" xlink:href="#m900058640b" y="136.548687"/>
     <use style="fill:#ff0000;stroke:#ff0000;" x="191.235478" xlink:href="#m900058640b" y="136.548687"/>
     <use style="fill:#ff0000;stroke:#ff0000;" x="192.433465" xlink:href="#m900058640b" y="148.537151"/>
     <use style="fill:#ff0000;stroke:#ff0000;" x="193.631453" xlink:href="#m900058640b" y="148.537151"/>
     <use style="fill:#ff0000;stroke:#ff0000;" x="194.82944" xlink:href="#m900058640b" y="136.658133"/>
     <use style="fill:#ff0000;stroke:#ff0000;" x="196.027427" xlink:href="#m900058640b" y="136.658133"/>
     <use style="fill:#ff0000;stroke:#ff0000;" x="197.225414" xlink:href="#m900058640b" y="139.400129"/>
     <use style="fill:#ff0000;stroke:#ff0000;" x="198.423402" xlink:href="#m900058640b" y="139.400129"/>
     <use style="fill:#ff0000;stroke:#ff0000;" x="199.621389" xlink:href="#m900058640b" y="152.991941"/>
     <use style="fill:#ff0000;stroke:#ff0000;" x="200.819376" xlink:href="#m900058640b" y="142.357197"/>
     <use style="fill:#ff0000;stroke:#ff0000;" x="202.017363" xlink:href="#m900058640b" y="142.357197"/>
     <use style="fill:#ff0000;stroke:#ff0000;" x="203.215351" xlink:href="#m900058640b" y="155.845596"/>
     <use style="fill:#ff0000;stroke:#ff0000;" x="204.413338" xlink:href="#m900058640b" y="155.845596"/>
     <use style="fill:#ff0000;stroke:#ff0000;" x="205.611325" xlink:href="#m900058640b" y="155.845596"/>
     <use style="fill:#ff0000;stroke:#ff0000;" x="206.809312" xlink:href="#m900058640b" y="155.845596"/>
     <use style="fill:#ff0000;stroke:#ff0000;" x="208.0073" xlink:href="#m900058640b" y="155.845596"/>
     <use style="fill:#ff0000;stroke:#ff0000;" x="209.205287" xlink:href="#m900058640b" y="155.845596"/>
     <use style="fill:#ff0000;stroke:#ff0000;" x="210.403274" xlink:href="#m900058640b" y="155.845596"/>
     <use style="fill:#ff0000;stroke:#ff0000;" x="211.601261" xlink:href="#m900058640b" y="155.845596"/>
     <use style="fill:#ff0000;stroke:#ff0000;" x="212.799249" xlink:href="#m900058640b" y="155.845596"/>
     <use style="fill:#ff0000;stroke:#ff0000;" x="213.997236" xlink:href="#m900058640b" y="155.845596"/>
     <use style="fill:#ff0000;stroke:#ff0000;" x="215.195223" xlink:href="#m900058640b" y="155.787297"/>
     <use style="fill:#ff0000;stroke:#ff0000;" x="216.39321" xlink:href="#m900058640b" y="155.787297"/>
     <use style="fill:#ff0000;stroke:#ff0000;" x="217.591198" xlink:href="#m900058640b" y="159.58241"/>
     <use style="fill:#ff0000;stroke:#ff0000;" x="218.789185" xlink:href="#m900058640b" y="159.58241"/>
     <use style="fill:#ff0000;stroke:#ff0000;" x="219.987172" xlink:href="#m900058640b" y="159.58241"/>
     <use style="fill:#ff0000;stroke:#ff0000;" x="221.185159" xlink:href="#m900058640b" y="148.396461"/>
     <use style="fill:#ff0000;stroke:#ff0000;" x="222.383147" xlink:href="#m900058640b" y="148.396461"/>
     <use style="fill:#ff0000;stroke:#ff0000;" x="223.581134" xlink:href="#m900058640b" y="136.801093"/>
     <use style="fill:#ff0000;stroke:#ff0000;" x="224.779121" xlink:href="#m900058640b" y="138.666579"/>
     <use style="fill:#ff0000;stroke:#ff0000;" x="225.977108" xlink:href="#m900058640b" y="138.666579"/>
     <use style="fill:#ff0000;stroke:#ff0000;" x="227.175096" xlink:href="#m900058640b" y="138.666579"/>
     <use style="fill:#ff0000;stroke:#ff0000;" x="228.373083" xlink:href="#m900058640b" y="138.472719"/>
     <use style="fill:#ff0000;stroke:#ff0000;" x="229.57107" xlink:href="#m900058640b" y="136.921682"/>
     <use style="fill:#ff0000;stroke:#ff0000;" x="230.769057" xlink:href="#m900058640b" y="136.921682"/>
     <use style="fill:#ff0000;stroke:#ff0000;" x="231.967045" xlink:href="#m900058640b" y="126.573791"/>
     <use style="fill:#ff0000;stroke:#ff0000;" x="233.165032" xlink:href="#m900058640b" y="126.573791"/>
     <use style="fill:#ff0000;stroke:#ff0000;" x="234.363019" xlink:href="#m900058640b" y="126.573791"/>
     <use style="fill:#ff0000;stroke:#ff0000;" x="235.561006" xlink:href="#m900058640b" y="116.822402"/>
     <use style="fill:#ff0000;stroke:#ff0000;" x="236.758994" xlink:href="#m900058640b" y="107.529889"/>
     <use style="fill:#ff0000;stroke:#ff0000;" x="237.956981" xlink:href="#m900058640b" y="107.529889"/>
     <use style="fill:#ff0000;stroke:#ff0000;" x="239.154968" xlink:href="#m900058640b" y="105.219631"/>
     <use style="fill:#ff0000;stroke:#ff0000;" x="240.352955" xlink:href="#m900058640b" y="105.219631"/>
     <use style="fill:#ff0000;stroke:#ff0000;" x="241.550943" xlink:href="#m900058640b" y="106.428716"/>
     <use style="fill:#ff0000;stroke:#ff0000;" x="242.74893" xlink:href="#m900058640b" y="106.428716"/>
     <use style="fill:#ff0000;stroke:#ff0000;" x="243.946917" xlink:href="#m900058640b" y="106.428716"/>
     <use style="fill:#ff0000;stroke:#ff0000;" x="245.144904" xlink:href="#m900058640b" y="107.214282"/>
     <use style="fill:#ff0000;stroke:#ff0000;" x="246.342892" xlink:href="#m900058640b" y="107.214282"/>
     <use style="fill:#ff0000;stroke:#ff0000;" x="247.540879" xlink:href="#m900058640b" y="107.214282"/>
     <use style="fill:#ff0000;stroke:#ff0000;" x="248.738866" xlink:href="#m900058640b" y="95.551365"/>
     <use style="fill:#ff0000;stroke:#ff0000;" x="249.936853" xlink:href="#m900058640b" y="95.551365"/>
     <use style="fill:#ff0000;stroke:#ff0000;" x="251.134841" xlink:href="#m900058640b" y="82.868101"/>
     <use style="fill:#ff0000;stroke:#ff0000;" x="252.332828" xlink:href="#m900058640b" y="82.868101"/>
     <use style="fill:#ff0000;stroke:#ff0000;" x="253.530815" xlink:href="#m900058640b" y="73.258816"/>
     <use style="fill:#ff0000;stroke:#ff0000;" x="254.728802" xlink:href="#m900058640b" y="73.258816"/>
     <use style="fill:#ff0000;stroke:#ff0000;" x="255.92679" xlink:href="#m900058640b" y="73.258816"/>
     <use style="fill:#ff0000;stroke:#ff0000;" x="257.124777" xlink:href="#m900058640b" y="71.59293"/>
     <use style="fill:#ff0000;stroke:#ff0000;" x="258.322764" xlink:href="#m900058640b" y="71.59293"/>
     <use style="fill:#ff0000;stroke:#ff0000;" x="259.520751" xlink:href="#m900058640b" y="62.25439"/>
     <use style="fill:#ff0000;stroke:#ff0000;" x="260.718739" xlink:href="#m900058640b" y="62.25439"/>
     <use style="fill:#ff0000;stroke:#ff0000;" x="261.916726" xlink:href="#m900058640b" y="53.568"/>
     <use style="fill:#ff0000;stroke:#ff0000;" x="263.114713" xlink:href="#m900058640b" y="66.018199"/>
     <use style="fill:#ff0000;stroke:#ff0000;" x="264.3127" xlink:href="#m900058640b" y="66.018199"/>
     <use style="fill:#ff0000;stroke:#ff0000;" x="265.510688" xlink:href="#m900058640b" y="78.961457"/>
     <use style="fill:#ff0000;stroke:#ff0000;" x="266.708675" xlink:href="#m900058640b" y="78.961457"/>
     <use style="fill:#ff0000;stroke:#ff0000;" x="267.906662" xlink:href="#m900058640b" y="91.301583"/>
     <use style="fill:#ff0000;stroke:#ff0000;" x="269.104649" xlink:href="#m900058640b" y="91.301583"/>
     <use style="fill:#ff0000;stroke:#ff0000;" x="270.302637" xlink:href="#m900058640b" y="89.910859"/>
     <use style="fill:#ff0000;stroke:#ff0000;" x="271.500624" xlink:href="#m900058640b" y="89.910859"/>
     <use style="fill:#ff0000;stroke:#ff0000;" x="272.698611" xlink:href="#m900058640b" y="89.910859"/>
     <use style="fill:#ff0000;stroke:#ff0000;" x="273.896598" xlink:href="#m900058640b" y="78.844095"/>
     <use style="fill:#ff0000;stroke:#ff0000;" x="275.094586" xlink:href="#m900058640b" y="78.844095"/>
     <use style="fill:#ff0000;stroke:#ff0000;" x="276.292573" xlink:href="#m900058640b" y="69.599786"/>
     <use style="fill:#ff0000;stroke:#ff0000;" x="277.49056" xlink:href="#m900058640b" y="69.599786"/>
     <use style="fill:#ff0000;stroke:#ff0000;" x="278.688547" xlink:href="#m900058640b" y="60.076953"/>
     <use style="fill:#ff0000;stroke:#ff0000;" x="279.886535" xlink:href="#m900058640b" y="60.076953"/>
     <use style="fill:#ff0000;stroke:#ff0000;" x="281.084522" xlink:href="#m900058640b" y="70.698031"/>
     <use style="fill:#ff0000;stroke:#ff0000;" x="282.282509" xlink:href="#m900058640b" y="70.698031"/>
     <use style="fill:#ff0000;stroke:#ff0000;" x="283.480496" xlink:href="#m900058640b" y="61.705416"/>
     <use style="fill:#ff0000;stroke:#ff0000;" x="284.678484" xlink:href="#m900058640b" y="61.705416"/>
     <use style="fill:#ff0000;stroke:#ff0000;" x="285.876471" xlink:href="#m900058640b" y="61.705416"/>
     <use style="fill:#ff0000;stroke:#ff0000;" x="287.074458" xlink:href="#m900058640b" y="75.65616"/>
     <use style="fill:#ff0000;stroke:#ff0000;" x="288.272445" xlink:href="#m900058640b" y="90.361907"/>
     <use style="fill:#ff0000;stroke:#ff0000;" x="289.470433" xlink:href="#m900058640b" y="90.361907"/>
     <use style="fill:#ff0000;stroke:#ff0000;" x="290.66842" xlink:href="#m900058640b" y="79.431129"/>
     <use style="fill:#ff0000;stroke:#ff0000;" x="291.866407" xlink:href="#m900058640b" y="79.431129"/>
     <use style="fill:#ff0000;stroke:#ff0000;" x="293.064394" xlink:href="#m900058640b" y="68.960745"/>
     <use style="fill:#ff0000;stroke:#ff0000;" x="294.262382" xlink:href="#m900058640b" y="68.960745"/>
     <use style="fill:#ff0000;stroke:#ff0000;" x="295.460369" xlink:href="#m900058640b" y="79.50573"/>
     <use style="fill:#ff0000;stroke:#ff0000;" x="296.658356" xlink:href="#m900058640b" y="79.50573"/>
     <use style="fill:#ff0000;stroke:#ff0000;" x="297.856344" xlink:href="#m900058640b" y="79.50573"/>
     <use style="fill:#ff0000;stroke:#ff0000;" x="299.054331" xlink:href="#m900058640b" y="79.50573"/>
     <use style="fill:#ff0000;stroke:#ff0000;" x="300.252318" xlink:href="#m900058640b" y="79.50573"/>
     <use style="fill:#ff0000;stroke:#ff0000;" x="301.450305" xlink:href="#m900058640b" y="79.50573"/>
     <use style="fill:#ff0000;stroke:#ff0000;" x="302.648293" xlink:href="#m900058640b" y="79.50573"/>
     <use style="fill:#ff0000;stroke:#ff0000;" x="303.84628" xlink:href="#m900058640b" y="79.50573"/>
     <use style="fill:#ff0000;stroke:#ff0000;" x="305.044267" xlink:href="#m900058640b" y="79.50573"/>
     <use style="fill:#ff0000;stroke:#ff0000;" x="306.242254" xlink:href="#m900058640b" y="79.50573"/>
     <use style="fill:#ff0000;stroke:#ff0000;" x="307.440242" xlink:href="#m900058640b" y="79.50573"/>
     <use style="fill:#ff0000;stroke:#ff0000;" x="308.638229" xlink:href="#m900058640b" y="79.50573"/>
     <use style="fill:#ff0000;stroke:#ff0000;" x="309.836216" xlink:href="#m900058640b" y="79.50573"/>
     <use style="fill:#ff0000;stroke:#ff0000;" x="311.034203" xlink:href="#m900058640b" y="79.50573"/>
     <use style="fill:#ff0000;stroke:#ff0000;" x="312.232191" xlink:href="#m900058640b" y="79.50573"/>
     <use style="fill:#ff0000;stroke:#ff0000;" x="313.430178" xlink:href="#m900058640b" y="79.50573"/>
     <use style="fill:#ff0000;stroke:#ff0000;" x="314.628165" xlink:href="#m900058640b" y="79.50573"/>
     <use style="fill:#ff0000;stroke:#ff0000;" x="315.826152" xlink:href="#m900058640b" y="79.50573"/>
     <use style="fill:#ff0000;stroke:#ff0000;" x="317.02414" xlink:href="#m900058640b" y="79.50573"/>
     <use style="fill:#ff0000;stroke:#ff0000;" x="318.222127" xlink:href="#m900058640b" y="79.50573"/>
     <use style="fill:#ff0000;stroke:#ff0000;" x="319.420114" xlink:href="#m900058640b" y="79.50573"/>
     <use style="fill:#ff0000;stroke:#ff0000;" x="320.618101" xlink:href="#m900058640b" y="79.50573"/>
     <use style="fill:#ff0000;stroke:#ff0000;" x="321.816089" xlink:href="#m900058640b" y="79.50573"/>
     <use style="fill:#ff0000;stroke:#ff0000;" x="323.014076" xlink:href="#m900058640b" y="79.50573"/>
     <use style="fill:#ff0000;stroke:#ff0000;" x="324.212063" xlink:href="#m900058640b" y="79.50573"/>
     <use style="fill:#ff0000;stroke:#ff0000;" x="325.41005" xlink:href="#m900058640b" y="79.50573"/>
     <use style="fill:#ff0000;stroke:#ff0000;" x="326.608038" xlink:href="#m900058640b" y="79.50573"/>
     <use style="fill:#ff0000;stroke:#ff0000;" x="327.806025" xlink:href="#m900058640b" y="79.50573"/>
     <use style="fill:#ff0000;stroke:#ff0000;" x="329.004012" xlink:href="#m900058640b" y="79.50573"/>
     <use style="fill:#ff0000;stroke:#ff0000;" x="330.201999" xlink:href="#m900058640b" y="79.50573"/>
     <use style="fill:#ff0000;stroke:#ff0000;" x="331.399987" xlink:href="#m900058640b" y="79.50573"/>
     <use style="fill:#ff0000;stroke:#ff0000;" x="332.597974" xlink:href="#m900058640b" y="79.50573"/>
     <use style="fill:#ff0000;stroke:#ff0000;" x="333.795961" xlink:href="#m900058640b" y="79.50573"/>
     <use style="fill:#ff0000;stroke:#ff0000;" x="334.993948" xlink:href="#m900058640b" y="79.50573"/>
     <use style="fill:#ff0000;stroke:#ff0000;" x="336.191936" xlink:href="#m900058640b" y="79.50573"/>
     <use style="fill:#ff0000;stroke:#ff0000;" x="337.389923" xlink:href="#m900058640b" y="79.50573"/>
     <use style="fill:#ff0000;stroke:#ff0000;" x="338.58791" xlink:href="#m900058640b" y="79.50573"/>
     <use style="fill:#ff0000;stroke:#ff0000;" x="339.785897" xlink:href="#m900058640b" y="79.50573"/>
     <use style="fill:#ff0000;stroke:#ff0000;" x="340.983885" xlink:href="#m900058640b" y="79.50573"/>
     <use style="fill:#ff0000;stroke:#ff0000;" x="342.181872" xlink:href="#m900058640b" y="79.50573"/>
     <use style="fill:#ff0000;stroke:#ff0000;" x="343.379859" xlink:href="#m900058640b" y="79.50573"/>
     <use style="fill:#ff0000;stroke:#ff0000;" x="344.577846" xlink:href="#m900058640b" y="79.50573"/>
     <use style="fill:#ff0000;stroke:#ff0000;" x="345.775834" xlink:href="#m900058640b" y="79.50573"/>
     <use style="fill:#ff0000;stroke:#ff0000;" x="346.973821" xlink:href="#m900058640b" y="79.50573"/>
     <use style="fill:#ff0000;stroke:#ff0000;" x="348.171808" xlink:href="#m900058640b" y="79.50573"/>
     <use style="fill:#ff0000;stroke:#ff0000;" x="349.369795" xlink:href="#m900058640b" y="79.50573"/>
     <use style="fill:#ff0000;stroke:#ff0000;" x="350.567783" xlink:href="#m900058640b" y="79.50573"/>
     <use style="fill:#ff0000;stroke:#ff0000;" x="351.76577" xlink:href="#m900058640b" y="79.50573"/>
     <use style="fill:#ff0000;stroke:#ff0000;" x="352.963757" xlink:href="#m900058640b" y="79.50573"/>
     <use style="fill:#ff0000;stroke:#ff0000;" x="354.161744" xlink:href="#m900058640b" y="79.50573"/>
     <use style="fill:#ff0000;stroke:#ff0000;" x="355.359732" xlink:href="#m900058640b" y="79.50573"/>
     <use style="fill:#ff0000;stroke:#ff0000;" x="356.557719" xlink:href="#m900058640b" y="79.50573"/>
     <use style="fill:#ff0000;stroke:#ff0000;" x="357.755706" xlink:href="#m900058640b" y="79.50573"/>
     <use style="fill:#ff0000;stroke:#ff0000;" x="358.953693" xlink:href="#m900058640b" y="79.50573"/>
     <use style="fill:#ff0000;stroke:#ff0000;" x="360.151681" xlink:href="#m900058640b" y="79.50573"/>
     <use style="fill:#ff0000;stroke:#ff0000;" x="361.349668" xlink:href="#m900058640b" y="79.50573"/>
     <use style="fill:#ff0000;stroke:#ff0000;" x="362.547655" xlink:href="#m900058640b" y="79.50573"/>
     <use style="fill:#ff0000;stroke:#ff0000;" x="363.745642" xlink:href="#m900058640b" y="79.50573"/>
     <use style="fill:#ff0000;stroke:#ff0000;" x="364.94363" xlink:href="#m900058640b" y="79.50573"/>
     <use style="fill:#ff0000;stroke:#ff0000;" x="366.141617" xlink:href="#m900058640b" y="79.50573"/>
     <use style="fill:#ff0000;stroke:#ff0000;" x="367.339604" xlink:href="#m900058640b" y="79.50573"/>
     <use style="fill:#ff0000;stroke:#ff0000;" x="368.537591" xlink:href="#m900058640b" y="79.50573"/>
     <use style="fill:#ff0000;stroke:#ff0000;" x="369.735579" xlink:href="#m900058640b" y="79.50573"/>
     <use style="fill:#ff0000;stroke:#ff0000;" x="370.933566" xlink:href="#m900058640b" y="79.50573"/>
     <use style="fill:#ff0000;stroke:#ff0000;" x="372.131553" xlink:href="#m900058640b" y="79.50573"/>
     <use style="fill:#ff0000;stroke:#ff0000;" x="373.32954" xlink:href="#m900058640b" y="79.50573"/>
     <use style="fill:#ff0000;stroke:#ff0000;" x="374.527528" xlink:href="#m900058640b" y="79.50573"/>
     <use style="fill:#ff0000;stroke:#ff0000;" x="375.725515" xlink:href="#m900058640b" y="79.50573"/>
     <use style="fill:#ff0000;stroke:#ff0000;" x="376.923502" xlink:href="#m900058640b" y="79.50573"/>
     <use style="fill:#ff0000;stroke:#ff0000;" x="378.121489" xlink:href="#m900058640b" y="79.50573"/>
     <use style="fill:#ff0000;stroke:#ff0000;" x="379.319477" xlink:href="#m900058640b" y="79.50573"/>
     <use style="fill:#ff0000;stroke:#ff0000;" x="380.517464" xlink:href="#m900058640b" y="79.50573"/>
     <use style="fill:#ff0000;stroke:#ff0000;" x="381.715451" xlink:href="#m900058640b" y="79.50573"/>
     <use style="fill:#ff0000;stroke:#ff0000;" x="382.913438" xlink:href="#m900058640b" y="79.50573"/>
     <use style="fill:#ff0000;stroke:#ff0000;" x="384.111426" xlink:href="#m900058640b" y="79.50573"/>
     <use style="fill:#ff0000;stroke:#ff0000;" x="385.309413" xlink:href="#m900058640b" y="79.50573"/>
     <use style="fill:#ff0000;stroke:#ff0000;" x="386.5074" xlink:href="#m900058640b" y="79.50573"/>
     <use style="fill:#ff0000;stroke:#ff0000;" x="387.705387" xlink:href="#m900058640b" y="79.50573"/>
     <use style="fill:#ff0000;stroke:#ff0000;" x="388.903375" xlink:href="#m900058640b" y="79.50573"/>
     <use style="fill:#ff0000;stroke:#ff0000;" x="390.101362" xlink:href="#m900058640b" y="79.50573"/>
     <use style="fill:#ff0000;stroke:#ff0000;" x="391.299349" xlink:href="#m900058640b" y="79.50573"/>
     <use style="fill:#ff0000;stroke:#ff0000;" x="392.497336" xlink:href="#m900058640b" y="79.50573"/>
     <use style="fill:#ff0000;stroke:#ff0000;" x="393.695324" xlink:href="#m900058640b" y="79.50573"/>
     <use style="fill:#ff0000;stroke:#ff0000;" x="394.893311" xlink:href="#m900058640b" y="79.50573"/>
     <use style="fill:#ff0000;stroke:#ff0000;" x="396.091298" xlink:href="#m900058640b" y="79.50573"/>
     <use style="fill:#ff0000;stroke:#ff0000;" x="397.289285" xlink:href="#m900058640b" y="79.50573"/>
     <use style="fill:#ff0000;stroke:#ff0000;" x="398.487273" xlink:href="#m900058640b" y="79.50573"/>
    </g>
   </g>
   <g id="patch_3">
    <path d="M 57.6 307.584 
L 57.6 41.472 
" style="fill:none;stroke:#000000;stroke-linecap:square;stroke-linejoin:miter;stroke-width:0.8;"/>
   </g>
   <g id="patch_4">
    <path d="M 414.72 307.584 
L 414.72 41.472 
" style="fill:none;stroke:#000000;stroke-linecap:square;stroke-linejoin:miter;stroke-width:0.8;"/>
   </g>
   <g id="patch_5">
    <path d="M 57.6 307.584 
L 414.72 307.584 
" style="fill:none;stroke:#000000;stroke-linecap:square;stroke-linejoin:miter;stroke-width:0.8;"/>
   </g>
   <g id="patch_6">
    <path d="M 57.6 41.472 
L 414.72 41.472 
" style="fill:none;stroke:#000000;stroke-linecap:square;stroke-linejoin:miter;stroke-width:0.8;"/>
   </g>
  </g>
 </g>
 <defs>
  <clipPath id="pcd4523b824">
   <rect height="266.112" width="357.12" x="57.6" y="41.472"/>
  </clipPath>
 </defs>
</svg>
