<?xml version="1.0" encoding="utf-8" standalone="no"?>
<!DOCTYPE svg PUBLIC "-//W3C//DTD SVG 1.1//EN"
  "http://www.w3.org/Graphics/SVG/1.1/DTD/svg11.dtd">
<!-- Created with matplotlib (https://matplotlib.org/) -->
<svg height="345.6pt" version="1.1" viewBox="0 0 460.8 345.6" width="460.8pt" xmlns="http://www.w3.org/2000/svg" xmlns:xlink="http://www.w3.org/1999/xlink">
 <defs>
  <style type="text/css">
*{stroke-linecap:butt;stroke-linejoin:round;}
  </style>
 </defs>
 <g id="figure_1">
  <g id="patch_1">
   <path d="M 0 345.6 
L 460.8 345.6 
L 460.8 0 
L 0 0 
z
" style="fill:#ffffff;"/>
  </g>
  <g id="axes_1">
   <g id="patch_2">
    <path d="M 57.6 307.584 
L 414.72 307.584 
L 414.72 41.472 
L 57.6 41.472 
z
" style="fill:#ffffff;"/>
   </g>
   <g id="line2d_1">
    <path clip-path="url(#pe7b0d8c1ce)" d="M 73.832727 216.055468 
L 80.076084 283.676519 
L 86.319441 283.676519 
L 92.562797 217.453284 
L 98.806154 217.453284 
L 105.04951 152.659384 
L 111.292867 152.659384 
L 117.536224 152.659384 
L 123.77958 218.877942 
L 130.022937 218.877942 
L 136.266294 155.301013 
L 142.50965 155.301013 
L 148.753007 155.301013 
L 154.996364 226.780824 
L 161.23972 226.780824 
L 167.483077 295.488 
L 173.726434 295.488 
L 179.96979 230.74064 
L 186.213147 161.926176 
L 192.456503 161.926176 
L 198.69986 161.926176 
L 204.943217 161.926176 
L 211.186573 93.375676 
L 217.42993 93.375676 
L 223.673287 98.653932 
L 229.916643 98.653932 
L 236.16 98.653932 
L 242.403357 104.061966 
L 248.646713 104.061966 
L 254.89007 127.588643 
L 261.133427 127.588643 
L 267.376783 106.649651 
L 273.62014 131.738896 
L 279.863497 131.738896 
L 286.106853 131.738896 
L 292.35021 131.738896 
L 298.593566 127.112897 
L 304.836923 127.112897 
L 311.08028 127.824659 
L 317.323636 127.824659 
L 323.566993 127.824659 
L 329.81035 104.445676 
L 336.053706 104.445676 
L 342.297063 104.445676 
L 348.54042 103.985504 
L 354.783776 81.228381 
L 361.027133 81.228381 
L 367.27049 77.630013 
L 373.513846 77.630013 
L 379.757203 57.702563 
L 386.000559 57.702563 
L 392.243916 53.568 
L 398.487273 53.568 
" style="fill:none;stroke:#ff0000;stroke-linecap:square;stroke-width:12;"/>
    <defs>
     <path d="M 0 3 
C 0.795609 3 1.55874 2.683901 2.12132 2.12132 
C 2.683901 1.55874 3 0.795609 3 0 
C 3 -0.795609 2.683901 -1.55874 2.12132 -2.12132 
C 1.55874 -2.683901 0.795609 -3 0 -3 
C -0.795609 -3 -1.55874 -2.683901 -2.12132 -2.12132 
C -2.683901 -1.55874 -3 -0.795609 -3 0 
C -3 0.795609 -2.683901 1.55874 -2.12132 2.12132 
C -1.55874 2.683901 -0.795609 3 0 3 
z
" id="m9d378bea2a" style="stroke:#ff0000;"/>
    </defs>
    <g clip-path="url(#pe7b0d8c1ce)">
     <use style="fill:#ff0000;stroke:#ff0000;" x="73.832727" xlink:href="#m9d378bea2a" y="216.055468"/>
     <use style="fill:#ff0000;stroke:#ff0000;" x="80.076084" xlink:href="#m9d378bea2a" y="283.676519"/>
     <use style="fill:#ff0000;stroke:#ff0000;" x="86.319441" xlink:href="#m9d378bea2a" y="283.676519"/>
     <use style="fill:#ff0000;stroke:#ff0000;" x="92.562797" xlink:href="#m9d378bea2a" y="217.453284"/>
     <use style="fill:#ff0000;stroke:#ff0000;" x="98.806154" xlink:href="#m9d378bea2a" y="217.453284"/>
     <use style="fill:#ff0000;stroke:#ff0000;" x="105.04951" xlink:href="#m9d378bea2a" y="152.659384"/>
     <use style="fill:#ff0000;stroke:#ff0000;" x="111.292867" xlink:href="#m9d378bea2a" y="152.659384"/>
     <use style="fill:#ff0000;stroke:#ff0000;" x="117.536224" xlink:href="#m9d378bea2a" y="152.659384"/>
     <use style="fill:#ff0000;stroke:#ff0000;" x="123.77958" xlink:href="#m9d378bea2a" y="218.877942"/>
     <use style="fill:#ff0000;stroke:#ff0000;" x="130.022937" xlink:href="#m9d378bea2a" y="218.877942"/>
     <use style="fill:#ff0000;stroke:#ff0000;" x="136.266294" xlink:href="#m9d378bea2a" y="155.301013"/>
     <use style="fill:#ff0000;stroke:#ff0000;" x="142.50965" xlink:href="#m9d378bea2a" y="155.301013"/>
     <use style="fill:#ff0000;stroke:#ff0000;" x="148.753007" xlink:href="#m9d378bea2a" y="155.301013"/>
     <use style="fill:#ff0000;stroke:#ff0000;" x="154.996364" xlink:href="#m9d378bea2a" y="226.780824"/>
     <use style="fill:#ff0000;stroke:#ff0000;" x="161.23972" xlink:href="#m9d378bea2a" y="226.780824"/>
     <use style="fill:#ff0000;stroke:#ff0000;" x="167.483077" xlink:href="#m9d378bea2a" y="295.488"/>
     <use style="fill:#ff0000;stroke:#ff0000;" x="173.726434" xlink:href="#m9d378bea2a" y="295.488"/>
     <use style="fill:#ff0000;stroke:#ff0000;" x="179.96979" xlink:href="#m9d378bea2a" y="230.74064"/>
     <use style="fill:#ff0000;stroke:#ff0000;" x="186.213147" xlink:href="#m9d378bea2a" y="161.926176"/>
     <use style="fill:#ff0000;stroke:#ff0000;" x="192.456503" xlink:href="#m9d378bea2a" y="161.926176"/>
     <use style="fill:#ff0000;stroke:#ff0000;" x="198.69986" xlink:href="#m9d378bea2a" y="161.926176"/>
     <use style="fill:#ff0000;stroke:#ff0000;" x="204.943217" xlink:href="#m9d378bea2a" y="161.926176"/>
     <use style="fill:#ff0000;stroke:#ff0000;" x="211.186573" xlink:href="#m9d378bea2a" y="93.375676"/>
     <use style="fill:#ff0000;stroke:#ff0000;" x="217.42993" xlink:href="#m9d378bea2a" y="93.375676"/>
     <use style="fill:#ff0000;stroke:#ff0000;" x="223.673287" xlink:href="#m9d378bea2a" y="98.653932"/>
     <use style="fill:#ff0000;stroke:#ff0000;" x="229.916643" xlink:href="#m9d378bea2a" y="98.653932"/>
     <use style="fill:#ff0000;stroke:#ff0000;" x="236.16" xlink:href="#m9d378bea2a" y="98.653932"/>
     <use style="fill:#ff0000;stroke:#ff0000;" x="242.403357" xlink:href="#m9d378bea2a" y="104.061966"/>
     <use style="fill:#ff0000;stroke:#ff0000;" x="248.646713" xlink:href="#m9d378bea2a" y="104.061966"/>
     <use style="fill:#ff0000;stroke:#ff0000;" x="254.89007" xlink:href="#m9d378bea2a" y="127.588643"/>
     <use style="fill:#ff0000;stroke:#ff0000;" x="261.133427" xlink:href="#m9d378bea2a" y="127.588643"/>
     <use style="fill:#ff0000;stroke:#ff0000;" x="267.376783" xlink:href="#m9d378bea2a" y="106.649651"/>
     <use style="fill:#ff0000;stroke:#ff0000;" x="273.62014" xlink:href="#m9d378bea2a" y="131.738896"/>
     <use style="fill:#ff0000;stroke:#ff0000;" x="279.863497" xlink:href="#m9d378bea2a" y="131.738896"/>
     <use style="fill:#ff0000;stroke:#ff0000;" x="286.106853" xlink:href="#m9d378bea2a" y="131.738896"/>
     <use style="fill:#ff0000;stroke:#ff0000;" x="292.35021" xlink:href="#m9d378bea2a" y="131.738896"/>
     <use style="fill:#ff0000;stroke:#ff0000;" x="298.593566" xlink:href="#m9d378bea2a" y="127.112897"/>
     <use style="fill:#ff0000;stroke:#ff0000;" x="304.836923" xlink:href="#m9d378bea2a" y="127.112897"/>
     <use style="fill:#ff0000;stroke:#ff0000;" x="311.08028" xlink:href="#m9d378bea2a" y="127.824659"/>
     <use style="fill:#ff0000;stroke:#ff0000;" x="317.323636" xlink:href="#m9d378bea2a" y="127.824659"/>
     <use style="fill:#ff0000;stroke:#ff0000;" x="323.566993" xlink:href="#m9d378bea2a" y="127.824659"/>
     <use style="fill:#ff0000;stroke:#ff0000;" x="329.81035" xlink:href="#m9d378bea2a" y="104.445676"/>
     <use style="fill:#ff0000;stroke:#ff0000;" x="336.053706" xlink:href="#m9d378bea2a" y="104.445676"/>
     <use style="fill:#ff0000;stroke:#ff0000;" x="342.297063" xlink:href="#m9d378bea2a" y="104.445676"/>
     <use style="fill:#ff0000;stroke:#ff0000;" x="348.54042" xlink:href="#m9d378bea2a" y="103.985504"/>
     <use style="fill:#ff0000;stroke:#ff0000;" x="354.783776" xlink:href="#m9d378bea2a" y="81.228381"/>
     <use style="fill:#ff0000;stroke:#ff0000;" x="361.027133" xlink:href="#m9d378bea2a" y="81.228381"/>
     <use style="fill:#ff0000;stroke:#ff0000;" x="367.27049" xlink:href="#m9d378bea2a" y="77.630013"/>
     <use style="fill:#ff0000;stroke:#ff0000;" x="373.513846" xlink:href="#m9d378bea2a" y="77.630013"/>
     <use style="fill:#ff0000;stroke:#ff0000;" x="379.757203" xlink:href="#m9d378bea2a" y="57.702563"/>
     <use style="fill:#ff0000;stroke:#ff0000;" x="386.000559" xlink:href="#m9d378bea2a" y="57.702563"/>
     <use style="fill:#ff0000;stroke:#ff0000;" x="392.243916" xlink:href="#m9d378bea2a" y="53.568"/>
     <use style="fill:#ff0000;stroke:#ff0000;" x="398.487273" xlink:href="#m9d378bea2a" y="53.568"/>
    </g>
   </g>
   <g id="patch_3">
    <path d="M 57.6 307.584 
L 57.6 41.472 
" style="fill:none;stroke:#000000;stroke-linecap:square;stroke-linejoin:miter;stroke-width:0.8;"/>
   </g>
   <g id="patch_4">
    <path d="M 414.72 307.584 
L 414.72 41.472 
" style="fill:none;stroke:#000000;stroke-linecap:square;stroke-linejoin:miter;stroke-width:0.8;"/>
   </g>
   <g id="patch_5">
    <path d="M 57.6 307.584 
L 414.72 307.584 
" style="fill:none;stroke:#000000;stroke-linecap:square;stroke-linejoin:miter;stroke-width:0.8;"/>
   </g>
   <g id="patch_6">
    <path d="M 57.6 41.472 
L 414.72 41.472 
" style="fill:none;stroke:#000000;stroke-linecap:square;stroke-linejoin:miter;stroke-width:0.8;"/>
   </g>
  </g>
 </g>
 <defs>
  <clipPath id="pe7b0d8c1ce">
   <rect height="266.112" width="357.12" x="57.6" y="41.472"/>
  </clipPath>
 </defs>
</svg>
