<?xml version="1.0" encoding="utf-8" standalone="no"?>
<!DOCTYPE svg PUBLIC "-//W3C//DTD SVG 1.1//EN"
  "http://www.w3.org/Graphics/SVG/1.1/DTD/svg11.dtd">
<!-- Created with matplotlib (https://matplotlib.org/) -->
<svg height="345.6pt" version="1.1" viewBox="0 0 460.8 345.6" width="460.8pt" xmlns="http://www.w3.org/2000/svg" xmlns:xlink="http://www.w3.org/1999/xlink">
 <defs>
  <style type="text/css">
*{stroke-linecap:butt;stroke-linejoin:round;}
  </style>
 </defs>
 <g id="figure_1">
  <g id="patch_1">
   <path d="M 0 345.6 
L 460.8 345.6 
L 460.8 0 
L 0 0 
z
" style="fill:#ffffff;"/>
  </g>
  <g id="axes_1">
   <g id="patch_2">
    <path d="M 57.6 307.584 
L 414.72 307.584 
L 414.72 41.472 
L 57.6 41.472 
z
" style="fill:#ffffff;"/>
   </g>
   <g id="line2d_1">
    <path clip-path="url(#p9e1f094f62)" d="M 73.832727 129.443993 
L 75.550476 160.991416 
L 77.268225 160.991416 
L 78.985974 130.096119 
L 80.703723 130.096119 
L 82.421472 99.867654 
L 85.85697 99.867654 
L 87.574719 130.760769 
L 89.292468 130.760769 
L 91.010216 101.100061 
L 94.445714 101.100061 
L 96.163463 134.44772 
L 97.881212 134.44772 
L 99.598961 166.501856 
L 101.31671 166.501856 
L 104.752208 104.190915 
L 109.905455 104.190915 
L 111.623203 72.209873 
L 113.340952 72.209873 
L 115.058701 74.672352 
L 118.494199 74.672352 
L 120.211948 77.195376 
L 121.929697 77.195376 
L 123.647446 88.171337 
L 125.365195 88.171337 
L 127.082944 78.402615 
L 128.800693 90.107565 
L 133.953939 90.107565 
L 135.671688 87.949386 
L 137.389437 87.949386 
L 139.107186 88.281446 
L 142.542684 88.281446 
L 144.260433 77.374389 
L 147.695931 77.374389 
L 149.41368 77.159704 
L 151.131429 66.542765 
L 152.849177 66.542765 
L 154.566926 64.864009 
L 156.284675 64.864009 
L 158.002424 55.567204 
L 159.720173 55.567204 
L 161.437922 53.638296 
L 163.155671 55.351736 
L 166.591169 55.351736 
L 168.308918 53.568 
L 170.026667 53.568 
L 171.744416 63.461925 
L 173.462165 66.901372 
L 176.897662 66.901372 
L 178.615411 76.504464 
L 180.33316 78.055813 
L 185.486407 78.055813 
L 187.204156 89.312391 
L 190.639654 89.312391 
L 192.357403 88.847774 
L 194.075152 88.847774 
L 195.7929 79.069502 
L 199.228398 79.105808 
L 200.946147 68.668142 
L 202.663896 68.668142 
L 204.381645 80.365872 
L 207.817143 80.365872 
L 209.534892 90.761341 
L 211.252641 80.859139 
L 218.123636 80.859139 
L 219.841385 91.882854 
L 221.559134 91.882854 
L 223.276883 93.720852 
L 224.994632 93.720852 
L 226.712381 104.020137 
L 230.147879 104.020137 
L 231.865628 94.704402 
L 233.583377 94.704402 
L 235.301126 104.602609 
L 238.736623 104.602609 
L 240.454372 94.767302 
L 243.88987 94.767302 
L 245.607619 105.312714 
L 247.325368 114.174521 
L 249.043117 114.174521 
L 250.760866 124.920664 
L 252.478615 124.920664 
L 254.196364 122.081149 
L 255.914113 122.081149 
L 257.631861 132.828562 
L 274.809351 132.828562 
L 276.5271 122.211792 
L 278.244848 132.716816 
L 279.962597 132.716816 
L 281.680346 143.606616 
L 286.833593 143.606616 
L 288.551342 143.223095 
L 290.269091 143.223095 
L 291.98684 144.974836 
L 293.704589 144.974836 
L 295.422338 135.984644 
L 297.140087 145.558018 
L 298.857835 145.558018 
L 300.575584 134.479706 
L 304.011082 134.479706 
L 305.728831 145.641093 
L 307.44658 145.641093 
L 309.164329 156.459997 
L 310.882078 156.459997 
L 312.599827 167.449266 
L 314.317576 167.449266 
L 316.035325 165.198591 
L 317.753074 165.198591 
L 319.470823 154.293079 
L 321.188571 154.293079 
L 322.90632 163.544354 
L 324.624069 174.061876 
L 328.059567 174.061876 
L 329.777316 171.130075 
L 331.495065 180.20975 
L 333.212814 180.20975 
L 334.930563 190.70567 
L 338.366061 190.70567 
L 340.08381 190.831785 
L 341.801558 190.831785 
L 343.519307 200.622416 
L 346.954805 200.622416 
L 348.672554 210.336598 
L 350.390303 210.336598 
L 352.108052 219.298883 
L 353.825801 219.298883 
L 355.54355 228.364189 
L 357.261299 227.420714 
L 360.696797 227.420714 
L 362.414545 236.179253 
L 365.850043 236.179253 
L 367.567792 245.267957 
L 369.285541 245.267957 
L 372.721039 266.622938 
L 374.438788 266.622938 
L 376.156537 269.386576 
L 377.874286 269.386576 
L 381.309784 286.967913 
L 383.027532 286.967913 
L 384.745281 295.488 
L 386.46303 295.488 
L 388.180779 285.334951 
L 389.898528 285.334951 
L 391.616277 275.388087 
L 398.487273 275.388087 
L 398.487273 275.388087 
" style="fill:none;stroke:#ff0000;stroke-linecap:square;stroke-width:12;"/>
    <defs>
     <path d="M 0 3 
C 0.795609 3 1.55874 2.683901 2.12132 2.12132 
C 2.683901 1.55874 3 0.795609 3 0 
C 3 -0.795609 2.683901 -1.55874 2.12132 -2.12132 
C 1.55874 -2.683901 0.795609 -3 0 -3 
C -0.795609 -3 -1.55874 -2.683901 -2.12132 -2.12132 
C -2.683901 -1.55874 -3 -0.795609 -3 0 
C -3 0.795609 -2.683901 1.55874 -2.12132 2.12132 
C -1.55874 2.683901 -0.795609 3 0 3 
z
" id="mb36c4e15f3" style="stroke:#ff0000;"/>
    </defs>
    <g clip-path="url(#p9e1f094f62)">
     <use style="fill:#ff0000;stroke:#ff0000;" x="73.832727" xlink:href="#mb36c4e15f3" y="129.443993"/>
     <use style="fill:#ff0000;stroke:#ff0000;" x="75.550476" xlink:href="#mb36c4e15f3" y="160.991416"/>
     <use style="fill:#ff0000;stroke:#ff0000;" x="77.268225" xlink:href="#mb36c4e15f3" y="160.991416"/>
     <use style="fill:#ff0000;stroke:#ff0000;" x="78.985974" xlink:href="#mb36c4e15f3" y="130.096119"/>
     <use style="fill:#ff0000;stroke:#ff0000;" x="80.703723" xlink:href="#mb36c4e15f3" y="130.096119"/>
     <use style="fill:#ff0000;stroke:#ff0000;" x="82.421472" xlink:href="#mb36c4e15f3" y="99.867654"/>
     <use style="fill:#ff0000;stroke:#ff0000;" x="84.139221" xlink:href="#mb36c4e15f3" y="99.867654"/>
     <use style="fill:#ff0000;stroke:#ff0000;" x="85.85697" xlink:href="#mb36c4e15f3" y="99.867654"/>
     <use style="fill:#ff0000;stroke:#ff0000;" x="87.574719" xlink:href="#mb36c4e15f3" y="130.760769"/>
     <use style="fill:#ff0000;stroke:#ff0000;" x="89.292468" xlink:href="#mb36c4e15f3" y="130.760769"/>
     <use style="fill:#ff0000;stroke:#ff0000;" x="91.010216" xlink:href="#mb36c4e15f3" y="101.100061"/>
     <use style="fill:#ff0000;stroke:#ff0000;" x="92.727965" xlink:href="#mb36c4e15f3" y="101.100061"/>
     <use style="fill:#ff0000;stroke:#ff0000;" x="94.445714" xlink:href="#mb36c4e15f3" y="101.100061"/>
     <use style="fill:#ff0000;stroke:#ff0000;" x="96.163463" xlink:href="#mb36c4e15f3" y="134.44772"/>
     <use style="fill:#ff0000;stroke:#ff0000;" x="97.881212" xlink:href="#mb36c4e15f3" y="134.44772"/>
     <use style="fill:#ff0000;stroke:#ff0000;" x="99.598961" xlink:href="#mb36c4e15f3" y="166.501856"/>
     <use style="fill:#ff0000;stroke:#ff0000;" x="101.31671" xlink:href="#mb36c4e15f3" y="166.501856"/>
     <use style="fill:#ff0000;stroke:#ff0000;" x="103.034459" xlink:href="#mb36c4e15f3" y="136.295104"/>
     <use style="fill:#ff0000;stroke:#ff0000;" x="104.752208" xlink:href="#mb36c4e15f3" y="104.190915"/>
     <use style="fill:#ff0000;stroke:#ff0000;" x="106.469957" xlink:href="#mb36c4e15f3" y="104.190915"/>
     <use style="fill:#ff0000;stroke:#ff0000;" x="108.187706" xlink:href="#mb36c4e15f3" y="104.190915"/>
     <use style="fill:#ff0000;stroke:#ff0000;" x="109.905455" xlink:href="#mb36c4e15f3" y="104.190915"/>
     <use style="fill:#ff0000;stroke:#ff0000;" x="111.623203" xlink:href="#mb36c4e15f3" y="72.209873"/>
     <use style="fill:#ff0000;stroke:#ff0000;" x="113.340952" xlink:href="#mb36c4e15f3" y="72.209873"/>
     <use style="fill:#ff0000;stroke:#ff0000;" x="115.058701" xlink:href="#mb36c4e15f3" y="74.672352"/>
     <use style="fill:#ff0000;stroke:#ff0000;" x="116.77645" xlink:href="#mb36c4e15f3" y="74.672352"/>
     <use style="fill:#ff0000;stroke:#ff0000;" x="118.494199" xlink:href="#mb36c4e15f3" y="74.672352"/>
     <use style="fill:#ff0000;stroke:#ff0000;" x="120.211948" xlink:href="#mb36c4e15f3" y="77.195376"/>
     <use style="fill:#ff0000;stroke:#ff0000;" x="121.929697" xlink:href="#mb36c4e15f3" y="77.195376"/>
     <use style="fill:#ff0000;stroke:#ff0000;" x="123.647446" xlink:href="#mb36c4e15f3" y="88.171337"/>
     <use style="fill:#ff0000;stroke:#ff0000;" x="125.365195" xlink:href="#mb36c4e15f3" y="88.171337"/>
     <use style="fill:#ff0000;stroke:#ff0000;" x="127.082944" xlink:href="#mb36c4e15f3" y="78.402615"/>
     <use style="fill:#ff0000;stroke:#ff0000;" x="128.800693" xlink:href="#mb36c4e15f3" y="90.107565"/>
     <use style="fill:#ff0000;stroke:#ff0000;" x="130.518442" xlink:href="#mb36c4e15f3" y="90.107565"/>
     <use style="fill:#ff0000;stroke:#ff0000;" x="132.23619" xlink:href="#mb36c4e15f3" y="90.107565"/>
     <use style="fill:#ff0000;stroke:#ff0000;" x="133.953939" xlink:href="#mb36c4e15f3" y="90.107565"/>
     <use style="fill:#ff0000;stroke:#ff0000;" x="135.671688" xlink:href="#mb36c4e15f3" y="87.949386"/>
     <use style="fill:#ff0000;stroke:#ff0000;" x="137.389437" xlink:href="#mb36c4e15f3" y="87.949386"/>
     <use style="fill:#ff0000;stroke:#ff0000;" x="139.107186" xlink:href="#mb36c4e15f3" y="88.281446"/>
     <use style="fill:#ff0000;stroke:#ff0000;" x="140.824935" xlink:href="#mb36c4e15f3" y="88.281446"/>
     <use style="fill:#ff0000;stroke:#ff0000;" x="142.542684" xlink:href="#mb36c4e15f3" y="88.281446"/>
     <use style="fill:#ff0000;stroke:#ff0000;" x="144.260433" xlink:href="#mb36c4e15f3" y="77.374389"/>
     <use style="fill:#ff0000;stroke:#ff0000;" x="145.978182" xlink:href="#mb36c4e15f3" y="77.374389"/>
     <use style="fill:#ff0000;stroke:#ff0000;" x="147.695931" xlink:href="#mb36c4e15f3" y="77.374389"/>
     <use style="fill:#ff0000;stroke:#ff0000;" x="149.41368" xlink:href="#mb36c4e15f3" y="77.159704"/>
     <use style="fill:#ff0000;stroke:#ff0000;" x="151.131429" xlink:href="#mb36c4e15f3" y="66.542765"/>
     <use style="fill:#ff0000;stroke:#ff0000;" x="152.849177" xlink:href="#mb36c4e15f3" y="66.542765"/>
     <use style="fill:#ff0000;stroke:#ff0000;" x="154.566926" xlink:href="#mb36c4e15f3" y="64.864009"/>
     <use style="fill:#ff0000;stroke:#ff0000;" x="156.284675" xlink:href="#mb36c4e15f3" y="64.864009"/>
     <use style="fill:#ff0000;stroke:#ff0000;" x="158.002424" xlink:href="#mb36c4e15f3" y="55.567204"/>
     <use style="fill:#ff0000;stroke:#ff0000;" x="159.720173" xlink:href="#mb36c4e15f3" y="55.567204"/>
     <use style="fill:#ff0000;stroke:#ff0000;" x="161.437922" xlink:href="#mb36c4e15f3" y="53.638296"/>
     <use style="fill:#ff0000;stroke:#ff0000;" x="163.155671" xlink:href="#mb36c4e15f3" y="55.351736"/>
     <use style="fill:#ff0000;stroke:#ff0000;" x="164.87342" xlink:href="#mb36c4e15f3" y="55.351736"/>
     <use style="fill:#ff0000;stroke:#ff0000;" x="166.591169" xlink:href="#mb36c4e15f3" y="55.351736"/>
     <use style="fill:#ff0000;stroke:#ff0000;" x="168.308918" xlink:href="#mb36c4e15f3" y="53.568"/>
     <use style="fill:#ff0000;stroke:#ff0000;" x="170.026667" xlink:href="#mb36c4e15f3" y="53.568"/>
     <use style="fill:#ff0000;stroke:#ff0000;" x="171.744416" xlink:href="#mb36c4e15f3" y="63.461925"/>
     <use style="fill:#ff0000;stroke:#ff0000;" x="173.462165" xlink:href="#mb36c4e15f3" y="66.901372"/>
     <use style="fill:#ff0000;stroke:#ff0000;" x="175.179913" xlink:href="#mb36c4e15f3" y="66.901372"/>
     <use style="fill:#ff0000;stroke:#ff0000;" x="176.897662" xlink:href="#mb36c4e15f3" y="66.901372"/>
     <use style="fill:#ff0000;stroke:#ff0000;" x="178.615411" xlink:href="#mb36c4e15f3" y="76.504464"/>
     <use style="fill:#ff0000;stroke:#ff0000;" x="180.33316" xlink:href="#mb36c4e15f3" y="78.055813"/>
     <use style="fill:#ff0000;stroke:#ff0000;" x="182.050909" xlink:href="#mb36c4e15f3" y="78.055813"/>
     <use style="fill:#ff0000;stroke:#ff0000;" x="183.768658" xlink:href="#mb36c4e15f3" y="78.055813"/>
     <use style="fill:#ff0000;stroke:#ff0000;" x="185.486407" xlink:href="#mb36c4e15f3" y="78.055813"/>
     <use style="fill:#ff0000;stroke:#ff0000;" x="187.204156" xlink:href="#mb36c4e15f3" y="89.312391"/>
     <use style="fill:#ff0000;stroke:#ff0000;" x="188.921905" xlink:href="#mb36c4e15f3" y="89.312391"/>
     <use style="fill:#ff0000;stroke:#ff0000;" x="190.639654" xlink:href="#mb36c4e15f3" y="89.312391"/>
     <use style="fill:#ff0000;stroke:#ff0000;" x="192.357403" xlink:href="#mb36c4e15f3" y="88.847774"/>
     <use style="fill:#ff0000;stroke:#ff0000;" x="194.075152" xlink:href="#mb36c4e15f3" y="88.847774"/>
     <use style="fill:#ff0000;stroke:#ff0000;" x="195.7929" xlink:href="#mb36c4e15f3" y="79.069502"/>
     <use style="fill:#ff0000;stroke:#ff0000;" x="197.510649" xlink:href="#mb36c4e15f3" y="79.069502"/>
     <use style="fill:#ff0000;stroke:#ff0000;" x="199.228398" xlink:href="#mb36c4e15f3" y="79.105808"/>
     <use style="fill:#ff0000;stroke:#ff0000;" x="200.946147" xlink:href="#mb36c4e15f3" y="68.668142"/>
     <use style="fill:#ff0000;stroke:#ff0000;" x="202.663896" xlink:href="#mb36c4e15f3" y="68.668142"/>
     <use style="fill:#ff0000;stroke:#ff0000;" x="204.381645" xlink:href="#mb36c4e15f3" y="80.365872"/>
     <use style="fill:#ff0000;stroke:#ff0000;" x="206.099394" xlink:href="#mb36c4e15f3" y="80.365872"/>
     <use style="fill:#ff0000;stroke:#ff0000;" x="207.817143" xlink:href="#mb36c4e15f3" y="80.365872"/>
     <use style="fill:#ff0000;stroke:#ff0000;" x="209.534892" xlink:href="#mb36c4e15f3" y="90.761341"/>
     <use style="fill:#ff0000;stroke:#ff0000;" x="211.252641" xlink:href="#mb36c4e15f3" y="80.859139"/>
     <use style="fill:#ff0000;stroke:#ff0000;" x="212.97039" xlink:href="#mb36c4e15f3" y="80.859139"/>
     <use style="fill:#ff0000;stroke:#ff0000;" x="214.688139" xlink:href="#mb36c4e15f3" y="80.859139"/>
     <use style="fill:#ff0000;stroke:#ff0000;" x="216.405887" xlink:href="#mb36c4e15f3" y="80.859139"/>
     <use style="fill:#ff0000;stroke:#ff0000;" x="218.123636" xlink:href="#mb36c4e15f3" y="80.859139"/>
     <use style="fill:#ff0000;stroke:#ff0000;" x="219.841385" xlink:href="#mb36c4e15f3" y="91.882854"/>
     <use style="fill:#ff0000;stroke:#ff0000;" x="221.559134" xlink:href="#mb36c4e15f3" y="91.882854"/>
     <use style="fill:#ff0000;stroke:#ff0000;" x="223.276883" xlink:href="#mb36c4e15f3" y="93.720852"/>
     <use style="fill:#ff0000;stroke:#ff0000;" x="224.994632" xlink:href="#mb36c4e15f3" y="93.720852"/>
     <use style="fill:#ff0000;stroke:#ff0000;" x="226.712381" xlink:href="#mb36c4e15f3" y="104.020137"/>
     <use style="fill:#ff0000;stroke:#ff0000;" x="228.43013" xlink:href="#mb36c4e15f3" y="104.020137"/>
     <use style="fill:#ff0000;stroke:#ff0000;" x="230.147879" xlink:href="#mb36c4e15f3" y="104.020137"/>
     <use style="fill:#ff0000;stroke:#ff0000;" x="231.865628" xlink:href="#mb36c4e15f3" y="94.704402"/>
     <use style="fill:#ff0000;stroke:#ff0000;" x="233.583377" xlink:href="#mb36c4e15f3" y="94.704402"/>
     <use style="fill:#ff0000;stroke:#ff0000;" x="235.301126" xlink:href="#mb36c4e15f3" y="104.602609"/>
     <use style="fill:#ff0000;stroke:#ff0000;" x="237.018874" xlink:href="#mb36c4e15f3" y="104.602609"/>
     <use style="fill:#ff0000;stroke:#ff0000;" x="238.736623" xlink:href="#mb36c4e15f3" y="104.602609"/>
     <use style="fill:#ff0000;stroke:#ff0000;" x="240.454372" xlink:href="#mb36c4e15f3" y="94.767302"/>
     <use style="fill:#ff0000;stroke:#ff0000;" x="242.172121" xlink:href="#mb36c4e15f3" y="94.767302"/>
     <use style="fill:#ff0000;stroke:#ff0000;" x="243.88987" xlink:href="#mb36c4e15f3" y="94.767302"/>
     <use style="fill:#ff0000;stroke:#ff0000;" x="245.607619" xlink:href="#mb36c4e15f3" y="105.312714"/>
     <use style="fill:#ff0000;stroke:#ff0000;" x="247.325368" xlink:href="#mb36c4e15f3" y="114.174521"/>
     <use style="fill:#ff0000;stroke:#ff0000;" x="249.043117" xlink:href="#mb36c4e15f3" y="114.174521"/>
     <use style="fill:#ff0000;stroke:#ff0000;" x="250.760866" xlink:href="#mb36c4e15f3" y="124.920664"/>
     <use style="fill:#ff0000;stroke:#ff0000;" x="252.478615" xlink:href="#mb36c4e15f3" y="124.920664"/>
     <use style="fill:#ff0000;stroke:#ff0000;" x="254.196364" xlink:href="#mb36c4e15f3" y="122.081149"/>
     <use style="fill:#ff0000;stroke:#ff0000;" x="255.914113" xlink:href="#mb36c4e15f3" y="122.081149"/>
     <use style="fill:#ff0000;stroke:#ff0000;" x="257.631861" xlink:href="#mb36c4e15f3" y="132.828562"/>
     <use style="fill:#ff0000;stroke:#ff0000;" x="259.34961" xlink:href="#mb36c4e15f3" y="132.828562"/>
     <use style="fill:#ff0000;stroke:#ff0000;" x="261.067359" xlink:href="#mb36c4e15f3" y="132.828562"/>
     <use style="fill:#ff0000;stroke:#ff0000;" x="262.785108" xlink:href="#mb36c4e15f3" y="132.828562"/>
     <use style="fill:#ff0000;stroke:#ff0000;" x="264.502857" xlink:href="#mb36c4e15f3" y="132.828562"/>
     <use style="fill:#ff0000;stroke:#ff0000;" x="266.220606" xlink:href="#mb36c4e15f3" y="132.828562"/>
     <use style="fill:#ff0000;stroke:#ff0000;" x="267.938355" xlink:href="#mb36c4e15f3" y="132.828562"/>
     <use style="fill:#ff0000;stroke:#ff0000;" x="269.656104" xlink:href="#mb36c4e15f3" y="132.828562"/>
     <use style="fill:#ff0000;stroke:#ff0000;" x="271.373853" xlink:href="#mb36c4e15f3" y="132.828562"/>
     <use style="fill:#ff0000;stroke:#ff0000;" x="273.091602" xlink:href="#mb36c4e15f3" y="132.828562"/>
     <use style="fill:#ff0000;stroke:#ff0000;" x="274.809351" xlink:href="#mb36c4e15f3" y="132.828562"/>
     <use style="fill:#ff0000;stroke:#ff0000;" x="276.5271" xlink:href="#mb36c4e15f3" y="122.211792"/>
     <use style="fill:#ff0000;stroke:#ff0000;" x="278.244848" xlink:href="#mb36c4e15f3" y="132.716816"/>
     <use style="fill:#ff0000;stroke:#ff0000;" x="279.962597" xlink:href="#mb36c4e15f3" y="132.716816"/>
     <use style="fill:#ff0000;stroke:#ff0000;" x="281.680346" xlink:href="#mb36c4e15f3" y="143.606616"/>
     <use style="fill:#ff0000;stroke:#ff0000;" x="283.398095" xlink:href="#mb36c4e15f3" y="143.606616"/>
     <use style="fill:#ff0000;stroke:#ff0000;" x="285.115844" xlink:href="#mb36c4e15f3" y="143.606616"/>
     <use style="fill:#ff0000;stroke:#ff0000;" x="286.833593" xlink:href="#mb36c4e15f3" y="143.606616"/>
     <use style="fill:#ff0000;stroke:#ff0000;" x="288.551342" xlink:href="#mb36c4e15f3" y="143.223095"/>
     <use style="fill:#ff0000;stroke:#ff0000;" x="290.269091" xlink:href="#mb36c4e15f3" y="143.223095"/>
     <use style="fill:#ff0000;stroke:#ff0000;" x="291.98684" xlink:href="#mb36c4e15f3" y="144.974836"/>
     <use style="fill:#ff0000;stroke:#ff0000;" x="293.704589" xlink:href="#mb36c4e15f3" y="144.974836"/>
     <use style="fill:#ff0000;stroke:#ff0000;" x="295.422338" xlink:href="#mb36c4e15f3" y="135.984644"/>
     <use style="fill:#ff0000;stroke:#ff0000;" x="297.140087" xlink:href="#mb36c4e15f3" y="145.558018"/>
     <use style="fill:#ff0000;stroke:#ff0000;" x="298.857835" xlink:href="#mb36c4e15f3" y="145.558018"/>
     <use style="fill:#ff0000;stroke:#ff0000;" x="300.575584" xlink:href="#mb36c4e15f3" y="134.479706"/>
     <use style="fill:#ff0000;stroke:#ff0000;" x="302.293333" xlink:href="#mb36c4e15f3" y="134.479706"/>
     <use style="fill:#ff0000;stroke:#ff0000;" x="304.011082" xlink:href="#mb36c4e15f3" y="134.479706"/>
     <use style="fill:#ff0000;stroke:#ff0000;" x="305.728831" xlink:href="#mb36c4e15f3" y="145.641093"/>
     <use style="fill:#ff0000;stroke:#ff0000;" x="307.44658" xlink:href="#mb36c4e15f3" y="145.641093"/>
     <use style="fill:#ff0000;stroke:#ff0000;" x="309.164329" xlink:href="#mb36c4e15f3" y="156.459997"/>
     <use style="fill:#ff0000;stroke:#ff0000;" x="310.882078" xlink:href="#mb36c4e15f3" y="156.459997"/>
     <use style="fill:#ff0000;stroke:#ff0000;" x="312.599827" xlink:href="#mb36c4e15f3" y="167.449266"/>
     <use style="fill:#ff0000;stroke:#ff0000;" x="314.317576" xlink:href="#mb36c4e15f3" y="167.449266"/>
     <use style="fill:#ff0000;stroke:#ff0000;" x="316.035325" xlink:href="#mb36c4e15f3" y="165.198591"/>
     <use style="fill:#ff0000;stroke:#ff0000;" x="317.753074" xlink:href="#mb36c4e15f3" y="165.198591"/>
     <use style="fill:#ff0000;stroke:#ff0000;" x="319.470823" xlink:href="#mb36c4e15f3" y="154.293079"/>
     <use style="fill:#ff0000;stroke:#ff0000;" x="321.188571" xlink:href="#mb36c4e15f3" y="154.293079"/>
     <use style="fill:#ff0000;stroke:#ff0000;" x="322.90632" xlink:href="#mb36c4e15f3" y="163.544354"/>
     <use style="fill:#ff0000;stroke:#ff0000;" x="324.624069" xlink:href="#mb36c4e15f3" y="174.061876"/>
     <use style="fill:#ff0000;stroke:#ff0000;" x="326.341818" xlink:href="#mb36c4e15f3" y="174.061876"/>
     <use style="fill:#ff0000;stroke:#ff0000;" x="328.059567" xlink:href="#mb36c4e15f3" y="174.061876"/>
     <use style="fill:#ff0000;stroke:#ff0000;" x="329.777316" xlink:href="#mb36c4e15f3" y="171.130075"/>
     <use style="fill:#ff0000;stroke:#ff0000;" x="331.495065" xlink:href="#mb36c4e15f3" y="180.20975"/>
     <use style="fill:#ff0000;stroke:#ff0000;" x="333.212814" xlink:href="#mb36c4e15f3" y="180.20975"/>
     <use style="fill:#ff0000;stroke:#ff0000;" x="334.930563" xlink:href="#mb36c4e15f3" y="190.70567"/>
     <use style="fill:#ff0000;stroke:#ff0000;" x="336.648312" xlink:href="#mb36c4e15f3" y="190.70567"/>
     <use style="fill:#ff0000;stroke:#ff0000;" x="338.366061" xlink:href="#mb36c4e15f3" y="190.70567"/>
     <use style="fill:#ff0000;stroke:#ff0000;" x="340.08381" xlink:href="#mb36c4e15f3" y="190.831785"/>
     <use style="fill:#ff0000;stroke:#ff0000;" x="341.801558" xlink:href="#mb36c4e15f3" y="190.831785"/>
     <use style="fill:#ff0000;stroke:#ff0000;" x="343.519307" xlink:href="#mb36c4e15f3" y="200.622416"/>
     <use style="fill:#ff0000;stroke:#ff0000;" x="345.237056" xlink:href="#mb36c4e15f3" y="200.622416"/>
     <use style="fill:#ff0000;stroke:#ff0000;" x="346.954805" xlink:href="#mb36c4e15f3" y="200.622416"/>
     <use style="fill:#ff0000;stroke:#ff0000;" x="348.672554" xlink:href="#mb36c4e15f3" y="210.336598"/>
     <use style="fill:#ff0000;stroke:#ff0000;" x="350.390303" xlink:href="#mb36c4e15f3" y="210.336598"/>
     <use style="fill:#ff0000;stroke:#ff0000;" x="352.108052" xlink:href="#mb36c4e15f3" y="219.298883"/>
     <use style="fill:#ff0000;stroke:#ff0000;" x="353.825801" xlink:href="#mb36c4e15f3" y="219.298883"/>
     <use style="fill:#ff0000;stroke:#ff0000;" x="355.54355" xlink:href="#mb36c4e15f3" y="228.364189"/>
     <use style="fill:#ff0000;stroke:#ff0000;" x="357.261299" xlink:href="#mb36c4e15f3" y="227.420714"/>
     <use style="fill:#ff0000;stroke:#ff0000;" x="358.979048" xlink:href="#mb36c4e15f3" y="227.420714"/>
     <use style="fill:#ff0000;stroke:#ff0000;" x="360.696797" xlink:href="#mb36c4e15f3" y="227.420714"/>
     <use style="fill:#ff0000;stroke:#ff0000;" x="362.414545" xlink:href="#mb36c4e15f3" y="236.179253"/>
     <use style="fill:#ff0000;stroke:#ff0000;" x="364.132294" xlink:href="#mb36c4e15f3" y="236.179253"/>
     <use style="fill:#ff0000;stroke:#ff0000;" x="365.850043" xlink:href="#mb36c4e15f3" y="236.179253"/>
     <use style="fill:#ff0000;stroke:#ff0000;" x="367.567792" xlink:href="#mb36c4e15f3" y="245.267957"/>
     <use style="fill:#ff0000;stroke:#ff0000;" x="369.285541" xlink:href="#mb36c4e15f3" y="245.267957"/>
     <use style="fill:#ff0000;stroke:#ff0000;" x="371.00329" xlink:href="#mb36c4e15f3" y="255.778609"/>
     <use style="fill:#ff0000;stroke:#ff0000;" x="372.721039" xlink:href="#mb36c4e15f3" y="266.622938"/>
     <use style="fill:#ff0000;stroke:#ff0000;" x="374.438788" xlink:href="#mb36c4e15f3" y="266.622938"/>
     <use style="fill:#ff0000;stroke:#ff0000;" x="376.156537" xlink:href="#mb36c4e15f3" y="269.386576"/>
     <use style="fill:#ff0000;stroke:#ff0000;" x="377.874286" xlink:href="#mb36c4e15f3" y="269.386576"/>
     <use style="fill:#ff0000;stroke:#ff0000;" x="379.592035" xlink:href="#mb36c4e15f3" y="278.120819"/>
     <use style="fill:#ff0000;stroke:#ff0000;" x="381.309784" xlink:href="#mb36c4e15f3" y="286.967913"/>
     <use style="fill:#ff0000;stroke:#ff0000;" x="383.027532" xlink:href="#mb36c4e15f3" y="286.967913"/>
     <use style="fill:#ff0000;stroke:#ff0000;" x="384.745281" xlink:href="#mb36c4e15f3" y="295.488"/>
     <use style="fill:#ff0000;stroke:#ff0000;" x="386.46303" xlink:href="#mb36c4e15f3" y="295.488"/>
     <use style="fill:#ff0000;stroke:#ff0000;" x="388.180779" xlink:href="#mb36c4e15f3" y="285.334951"/>
     <use style="fill:#ff0000;stroke:#ff0000;" x="389.898528" xlink:href="#mb36c4e15f3" y="285.334951"/>
     <use style="fill:#ff0000;stroke:#ff0000;" x="391.616277" xlink:href="#mb36c4e15f3" y="275.388087"/>
     <use style="fill:#ff0000;stroke:#ff0000;" x="393.334026" xlink:href="#mb36c4e15f3" y="275.388087"/>
     <use style="fill:#ff0000;stroke:#ff0000;" x="395.051775" xlink:href="#mb36c4e15f3" y="275.388087"/>
     <use style="fill:#ff0000;stroke:#ff0000;" x="396.769524" xlink:href="#mb36c4e15f3" y="275.388087"/>
     <use style="fill:#ff0000;stroke:#ff0000;" x="398.487273" xlink:href="#mb36c4e15f3" y="275.388087"/>
    </g>
   </g>
   <g id="patch_3">
    <path d="M 57.6 307.584 
L 57.6 41.472 
" style="fill:none;stroke:#000000;stroke-linecap:square;stroke-linejoin:miter;stroke-width:0.8;"/>
   </g>
   <g id="patch_4">
    <path d="M 414.72 307.584 
L 414.72 41.472 
" style="fill:none;stroke:#000000;stroke-linecap:square;stroke-linejoin:miter;stroke-width:0.8;"/>
   </g>
   <g id="patch_5">
    <path d="M 57.6 307.584 
L 414.72 307.584 
" style="fill:none;stroke:#000000;stroke-linecap:square;stroke-linejoin:miter;stroke-width:0.8;"/>
   </g>
   <g id="patch_6">
    <path d="M 57.6 41.472 
L 414.72 41.472 
" style="fill:none;stroke:#000000;stroke-linecap:square;stroke-linejoin:miter;stroke-width:0.8;"/>
   </g>
  </g>
 </g>
 <defs>
  <clipPath id="p9e1f094f62">
   <rect height="266.112" width="357.12" x="57.6" y="41.472"/>
  </clipPath>
 </defs>
</svg>
