<?xml version="1.0" encoding="utf-8" standalone="no"?>
<!DOCTYPE svg PUBLIC "-//W3C//DTD SVG 1.1//EN"
  "http://www.w3.org/Graphics/SVG/1.1/DTD/svg11.dtd">
<!-- Created with matplotlib (https://matplotlib.org/) -->
<svg height="345.6pt" version="1.1" viewBox="0 0 460.8 345.6" width="460.8pt" xmlns="http://www.w3.org/2000/svg" xmlns:xlink="http://www.w3.org/1999/xlink">
 <defs>
  <style type="text/css">
*{stroke-linecap:butt;stroke-linejoin:round;}
  </style>
 </defs>
 <g id="figure_1">
  <g id="patch_1">
   <path d="M 0 345.6 
L 460.8 345.6 
L 460.8 0 
L 0 0 
z
" style="fill:#ffffff;"/>
  </g>
  <g id="axes_1">
   <g id="patch_2">
    <path d="M 57.6 307.584 
L 414.72 307.584 
L 414.72 41.472 
L 57.6 41.472 
z
" style="fill:#ffffff;"/>
   </g>
   <g id="line2d_1">
    <path clip-path="url(#p089f750703)" d="M 73.832727 200.410581 
L 81.047273 281.350152 
L 88.261818 281.350152 
L 95.476364 202.083708 
L 102.690909 202.083708 
L 109.905455 124.52812 
L 117.12 124.52812 
L 124.334545 124.52812 
L 131.549091 203.788964 
L 138.763636 203.788964 
L 145.978182 127.69004 
L 153.192727 127.69004 
L 160.407273 127.69004 
L 167.621818 213.248383 
L 174.836364 213.248383 
L 182.050909 295.488 
L 189.265455 295.488 
L 196.48 217.988118 
L 203.694545 135.620082 
L 210.909091 135.620082 
L 218.123636 135.620082 
L 225.338182 135.620082 
L 232.552727 53.568 
L 239.767273 53.568 
L 246.981818 59.885852 
L 254.196364 59.885852 
L 261.410909 59.885852 
L 268.625455 66.359043 
L 275.84 66.359043 
L 283.054545 94.519491 
L 290.269091 94.519491 
L 297.483636 69.456394 
L 304.698182 99.487171 
L 311.912727 99.487171 
L 319.127273 99.487171 
L 326.341818 99.487171 
L 333.556364 93.950043 
L 340.770909 93.950043 
L 347.985455 94.801992 
L 355.2 94.801992 
L 362.414545 94.801992 
L 369.629091 66.818327 
L 376.843636 66.818327 
L 384.058182 66.818327 
L 391.272727 66.267521 
L 398.487273 66.267521 
" style="fill:none;stroke:#ff0000;stroke-linecap:square;stroke-width:12;"/>
    <defs>
     <path d="M 0 3 
C 0.795609 3 1.55874 2.683901 2.12132 2.12132 
C 2.683901 1.55874 3 0.795609 3 0 
C 3 -0.795609 2.683901 -1.55874 2.12132 -2.12132 
C 1.55874 -2.683901 0.795609 -3 0 -3 
C -0.795609 -3 -1.55874 -2.683901 -2.12132 -2.12132 
C -2.683901 -1.55874 -3 -0.795609 -3 0 
C -3 0.795609 -2.683901 1.55874 -2.12132 2.12132 
C -1.55874 2.683901 -0.795609 3 0 3 
z
" id="m6c1ab43045" style="stroke:#ff0000;"/>
    </defs>
    <g clip-path="url(#p089f750703)">
     <use style="fill:#ff0000;stroke:#ff0000;" x="73.832727" xlink:href="#m6c1ab43045" y="200.410581"/>
     <use style="fill:#ff0000;stroke:#ff0000;" x="81.047273" xlink:href="#m6c1ab43045" y="281.350152"/>
     <use style="fill:#ff0000;stroke:#ff0000;" x="88.261818" xlink:href="#m6c1ab43045" y="281.350152"/>
     <use style="fill:#ff0000;stroke:#ff0000;" x="95.476364" xlink:href="#m6c1ab43045" y="202.083708"/>
     <use style="fill:#ff0000;stroke:#ff0000;" x="102.690909" xlink:href="#m6c1ab43045" y="202.083708"/>
     <use style="fill:#ff0000;stroke:#ff0000;" x="109.905455" xlink:href="#m6c1ab43045" y="124.52812"/>
     <use style="fill:#ff0000;stroke:#ff0000;" x="117.12" xlink:href="#m6c1ab43045" y="124.52812"/>
     <use style="fill:#ff0000;stroke:#ff0000;" x="124.334545" xlink:href="#m6c1ab43045" y="124.52812"/>
     <use style="fill:#ff0000;stroke:#ff0000;" x="131.549091" xlink:href="#m6c1ab43045" y="203.788964"/>
     <use style="fill:#ff0000;stroke:#ff0000;" x="138.763636" xlink:href="#m6c1ab43045" y="203.788964"/>
     <use style="fill:#ff0000;stroke:#ff0000;" x="145.978182" xlink:href="#m6c1ab43045" y="127.69004"/>
     <use style="fill:#ff0000;stroke:#ff0000;" x="153.192727" xlink:href="#m6c1ab43045" y="127.69004"/>
     <use style="fill:#ff0000;stroke:#ff0000;" x="160.407273" xlink:href="#m6c1ab43045" y="127.69004"/>
     <use style="fill:#ff0000;stroke:#ff0000;" x="167.621818" xlink:href="#m6c1ab43045" y="213.248383"/>
     <use style="fill:#ff0000;stroke:#ff0000;" x="174.836364" xlink:href="#m6c1ab43045" y="213.248383"/>
     <use style="fill:#ff0000;stroke:#ff0000;" x="182.050909" xlink:href="#m6c1ab43045" y="295.488"/>
     <use style="fill:#ff0000;stroke:#ff0000;" x="189.265455" xlink:href="#m6c1ab43045" y="295.488"/>
     <use style="fill:#ff0000;stroke:#ff0000;" x="196.48" xlink:href="#m6c1ab43045" y="217.988118"/>
     <use style="fill:#ff0000;stroke:#ff0000;" x="203.694545" xlink:href="#m6c1ab43045" y="135.620082"/>
     <use style="fill:#ff0000;stroke:#ff0000;" x="210.909091" xlink:href="#m6c1ab43045" y="135.620082"/>
     <use style="fill:#ff0000;stroke:#ff0000;" x="218.123636" xlink:href="#m6c1ab43045" y="135.620082"/>
     <use style="fill:#ff0000;stroke:#ff0000;" x="225.338182" xlink:href="#m6c1ab43045" y="135.620082"/>
     <use style="fill:#ff0000;stroke:#ff0000;" x="232.552727" xlink:href="#m6c1ab43045" y="53.568"/>
     <use style="fill:#ff0000;stroke:#ff0000;" x="239.767273" xlink:href="#m6c1ab43045" y="53.568"/>
     <use style="fill:#ff0000;stroke:#ff0000;" x="246.981818" xlink:href="#m6c1ab43045" y="59.885852"/>
     <use style="fill:#ff0000;stroke:#ff0000;" x="254.196364" xlink:href="#m6c1ab43045" y="59.885852"/>
     <use style="fill:#ff0000;stroke:#ff0000;" x="261.410909" xlink:href="#m6c1ab43045" y="59.885852"/>
     <use style="fill:#ff0000;stroke:#ff0000;" x="268.625455" xlink:href="#m6c1ab43045" y="66.359043"/>
     <use style="fill:#ff0000;stroke:#ff0000;" x="275.84" xlink:href="#m6c1ab43045" y="66.359043"/>
     <use style="fill:#ff0000;stroke:#ff0000;" x="283.054545" xlink:href="#m6c1ab43045" y="94.519491"/>
     <use style="fill:#ff0000;stroke:#ff0000;" x="290.269091" xlink:href="#m6c1ab43045" y="94.519491"/>
     <use style="fill:#ff0000;stroke:#ff0000;" x="297.483636" xlink:href="#m6c1ab43045" y="69.456394"/>
     <use style="fill:#ff0000;stroke:#ff0000;" x="304.698182" xlink:href="#m6c1ab43045" y="99.487171"/>
     <use style="fill:#ff0000;stroke:#ff0000;" x="311.912727" xlink:href="#m6c1ab43045" y="99.487171"/>
     <use style="fill:#ff0000;stroke:#ff0000;" x="319.127273" xlink:href="#m6c1ab43045" y="99.487171"/>
     <use style="fill:#ff0000;stroke:#ff0000;" x="326.341818" xlink:href="#m6c1ab43045" y="99.487171"/>
     <use style="fill:#ff0000;stroke:#ff0000;" x="333.556364" xlink:href="#m6c1ab43045" y="93.950043"/>
     <use style="fill:#ff0000;stroke:#ff0000;" x="340.770909" xlink:href="#m6c1ab43045" y="93.950043"/>
     <use style="fill:#ff0000;stroke:#ff0000;" x="347.985455" xlink:href="#m6c1ab43045" y="94.801992"/>
     <use style="fill:#ff0000;stroke:#ff0000;" x="355.2" xlink:href="#m6c1ab43045" y="94.801992"/>
     <use style="fill:#ff0000;stroke:#ff0000;" x="362.414545" xlink:href="#m6c1ab43045" y="94.801992"/>
     <use style="fill:#ff0000;stroke:#ff0000;" x="369.629091" xlink:href="#m6c1ab43045" y="66.818327"/>
     <use style="fill:#ff0000;stroke:#ff0000;" x="376.843636" xlink:href="#m6c1ab43045" y="66.818327"/>
     <use style="fill:#ff0000;stroke:#ff0000;" x="384.058182" xlink:href="#m6c1ab43045" y="66.818327"/>
     <use style="fill:#ff0000;stroke:#ff0000;" x="391.272727" xlink:href="#m6c1ab43045" y="66.267521"/>
     <use style="fill:#ff0000;stroke:#ff0000;" x="398.487273" xlink:href="#m6c1ab43045" y="66.267521"/>
    </g>
   </g>
   <g id="patch_3">
    <path d="M 57.6 307.584 
L 57.6 41.472 
" style="fill:none;stroke:#000000;stroke-linecap:square;stroke-linejoin:miter;stroke-width:0.8;"/>
   </g>
   <g id="patch_4">
    <path d="M 414.72 307.584 
L 414.72 41.472 
" style="fill:none;stroke:#000000;stroke-linecap:square;stroke-linejoin:miter;stroke-width:0.8;"/>
   </g>
   <g id="patch_5">
    <path d="M 57.6 307.584 
L 414.72 307.584 
" style="fill:none;stroke:#000000;stroke-linecap:square;stroke-linejoin:miter;stroke-width:0.8;"/>
   </g>
   <g id="patch_6">
    <path d="M 57.6 41.472 
L 414.72 41.472 
" style="fill:none;stroke:#000000;stroke-linecap:square;stroke-linejoin:miter;stroke-width:0.8;"/>
   </g>
  </g>
 </g>
 <defs>
  <clipPath id="p089f750703">
   <rect height="266.112" width="357.12" x="57.6" y="41.472"/>
  </clipPath>
 </defs>
</svg>
