<?xml version="1.0" encoding="utf-8" standalone="no"?>
<!DOCTYPE svg PUBLIC "-//W3C//DTD SVG 1.1//EN"
  "http://www.w3.org/Graphics/SVG/1.1/DTD/svg11.dtd">
<!-- Created with matplotlib (https://matplotlib.org/) -->
<svg height="345.6pt" version="1.1" viewBox="0 0 460.8 345.6" width="460.8pt" xmlns="http://www.w3.org/2000/svg" xmlns:xlink="http://www.w3.org/1999/xlink">
 <defs>
  <style type="text/css">
*{stroke-linecap:butt;stroke-linejoin:round;}
  </style>
 </defs>
 <g id="figure_1">
  <g id="patch_1">
   <path d="M 0 345.6 
L 460.8 345.6 
L 460.8 0 
L 0 0 
z
" style="fill:#ffffff;"/>
  </g>
  <g id="axes_1">
   <g id="patch_2">
    <path d="M 57.6 307.584 
L 414.72 307.584 
L 414.72 41.472 
L 57.6 41.472 
z
" style="fill:#ffffff;"/>
   </g>
   <g id="line2d_1">
    <path clip-path="url(#p9d9925deb2)" d="M 73.832727 129.443993 
L 74.700788 160.991416 
L 75.568848 160.991416 
L 76.436908 130.096119 
L 77.304968 130.096119 
L 78.173029 99.867654 
L 79.909149 99.867654 
L 80.77721 130.760769 
L 81.64527 130.760769 
L 82.51333 101.100061 
L 84.249451 101.100061 
L 85.117511 134.44772 
L 85.985571 134.44772 
L 86.853632 166.501856 
L 87.721692 166.501856 
L 89.457812 104.190915 
L 92.061993 104.190915 
L 92.930053 72.209873 
L 93.798114 72.209873 
L 94.666174 74.672352 
L 96.402295 74.672352 
L 97.270355 77.195376 
L 98.138415 77.195376 
L 99.006475 88.171337 
L 99.874536 88.171337 
L 100.742596 78.402615 
L 101.610656 90.107565 
L 104.214837 90.107565 
L 105.082897 87.949386 
L 105.950958 87.949386 
L 106.819018 88.281446 
L 108.555139 88.281446 
L 109.423199 77.374389 
L 111.159319 77.374389 
L 112.02738 77.159704 
L 112.89544 66.542765 
L 113.7635 66.542765 
L 114.631561 64.864009 
L 115.499621 64.864009 
L 116.367681 55.567204 
L 117.235741 55.567204 
L 118.103802 53.638296 
L 118.971862 55.351736 
L 120.707982 55.351736 
L 121.576043 53.568 
L 122.444103 53.568 
L 123.312163 63.461925 
L 124.180224 66.901372 
L 125.916344 66.901372 
L 126.784404 76.504464 
L 127.652465 78.055813 
L 130.256646 78.055813 
L 131.124706 89.312391 
L 132.860826 89.312391 
L 133.728887 88.847774 
L 134.596947 88.847774 
L 135.465007 79.069502 
L 137.201128 79.105808 
L 138.069188 68.668142 
L 138.937248 68.668142 
L 139.805309 80.365872 
L 141.541429 80.365872 
L 142.40949 90.761341 
L 143.27755 80.859139 
L 146.749791 80.859139 
L 147.617851 91.882854 
L 148.485912 91.882854 
L 149.353972 93.720852 
L 150.222032 93.720852 
L 151.090092 104.020137 
L 152.826213 104.020137 
L 153.694273 94.704402 
L 154.562333 94.704402 
L 155.430394 104.602609 
L 157.166514 104.602609 
L 158.034575 94.767302 
L 159.770695 94.767302 
L 160.638755 105.312714 
L 161.506816 114.174521 
L 162.374876 114.174521 
L 163.242936 124.920664 
L 164.110997 124.920664 
L 164.979057 122.081149 
L 165.847117 122.081149 
L 166.715177 132.828562 
L 175.39578 132.828562 
L 176.263841 122.211792 
L 177.131901 132.716816 
L 177.999961 132.716816 
L 178.868021 143.606616 
L 181.472202 143.606616 
L 182.340263 143.223095 
L 183.208323 143.223095 
L 184.076383 144.974836 
L 184.944443 144.974836 
L 185.812504 135.984644 
L 186.680564 145.558018 
L 187.548624 145.558018 
L 188.416684 134.479706 
L 190.152805 134.479706 
L 191.020865 145.641093 
L 191.888926 145.641093 
L 192.756986 156.459997 
L 193.625046 156.459997 
L 194.493106 167.449266 
L 195.361167 167.449266 
L 196.229227 165.198591 
L 197.097287 165.198591 
L 197.965348 154.293079 
L 198.833408 154.293079 
L 199.701468 163.544354 
L 200.569528 174.061876 
L 202.305649 174.061876 
L 203.173709 171.130075 
L 204.04177 180.20975 
L 204.90983 180.20975 
L 205.77789 190.70567 
L 207.514011 190.70567 
L 208.382071 190.831785 
L 209.250131 190.831785 
L 210.118192 200.622416 
L 211.854312 200.622416 
L 212.722372 210.336598 
L 213.590433 210.336598 
L 214.458493 219.298883 
L 215.326553 219.298883 
L 216.194614 228.364189 
L 217.062674 227.420714 
L 218.798794 227.420714 
L 219.666855 236.179253 
L 221.402975 236.179253 
L 222.271035 245.267957 
L 223.139096 245.267957 
L 224.875216 266.622938 
L 225.743277 266.622938 
L 226.611337 269.386576 
L 227.479397 269.386576 
L 229.215518 286.967913 
L 230.083578 286.967913 
L 230.951638 295.488 
L 231.819699 295.488 
L 232.687759 285.334951 
L 233.555819 285.334951 
L 234.423879 275.388087 
L 398.487273 275.388087 
L 398.487273 275.388087 
" style="fill:none;stroke:#ff0000;stroke-linecap:square;stroke-width:12;"/>
    <defs>
     <path d="M 0 3 
C 0.795609 3 1.55874 2.683901 2.12132 2.12132 
C 2.683901 1.55874 3 0.795609 3 0 
C 3 -0.795609 2.683901 -1.55874 2.12132 -2.12132 
C 1.55874 -2.683901 0.795609 -3 0 -3 
C -0.795609 -3 -1.55874 -2.683901 -2.12132 -2.12132 
C -2.683901 -1.55874 -3 -0.795609 -3 0 
C -3 0.795609 -2.683901 1.55874 -2.12132 2.12132 
C -1.55874 2.683901 -0.795609 3 0 3 
z
" id="ma10f869c29" style="stroke:#ff0000;"/>
    </defs>
    <g clip-path="url(#p9d9925deb2)">
     <use style="fill:#ff0000;stroke:#ff0000;" x="73.832727" xlink:href="#ma10f869c29" y="129.443993"/>
     <use style="fill:#ff0000;stroke:#ff0000;" x="74.700788" xlink:href="#ma10f869c29" y="160.991416"/>
     <use style="fill:#ff0000;stroke:#ff0000;" x="75.568848" xlink:href="#ma10f869c29" y="160.991416"/>
     <use style="fill:#ff0000;stroke:#ff0000;" x="76.436908" xlink:href="#ma10f869c29" y="130.096119"/>
     <use style="fill:#ff0000;stroke:#ff0000;" x="77.304968" xlink:href="#ma10f869c29" y="130.096119"/>
     <use style="fill:#ff0000;stroke:#ff0000;" x="78.173029" xlink:href="#ma10f869c29" y="99.867654"/>
     <use style="fill:#ff0000;stroke:#ff0000;" x="79.041089" xlink:href="#ma10f869c29" y="99.867654"/>
     <use style="fill:#ff0000;stroke:#ff0000;" x="79.909149" xlink:href="#ma10f869c29" y="99.867654"/>
     <use style="fill:#ff0000;stroke:#ff0000;" x="80.77721" xlink:href="#ma10f869c29" y="130.760769"/>
     <use style="fill:#ff0000;stroke:#ff0000;" x="81.64527" xlink:href="#ma10f869c29" y="130.760769"/>
     <use style="fill:#ff0000;stroke:#ff0000;" x="82.51333" xlink:href="#ma10f869c29" y="101.100061"/>
     <use style="fill:#ff0000;stroke:#ff0000;" x="83.38139" xlink:href="#ma10f869c29" y="101.100061"/>
     <use style="fill:#ff0000;stroke:#ff0000;" x="84.249451" xlink:href="#ma10f869c29" y="101.100061"/>
     <use style="fill:#ff0000;stroke:#ff0000;" x="85.117511" xlink:href="#ma10f869c29" y="134.44772"/>
     <use style="fill:#ff0000;stroke:#ff0000;" x="85.985571" xlink:href="#ma10f869c29" y="134.44772"/>
     <use style="fill:#ff0000;stroke:#ff0000;" x="86.853632" xlink:href="#ma10f869c29" y="166.501856"/>
     <use style="fill:#ff0000;stroke:#ff0000;" x="87.721692" xlink:href="#ma10f869c29" y="166.501856"/>
     <use style="fill:#ff0000;stroke:#ff0000;" x="88.589752" xlink:href="#ma10f869c29" y="136.295104"/>
     <use style="fill:#ff0000;stroke:#ff0000;" x="89.457812" xlink:href="#ma10f869c29" y="104.190915"/>
     <use style="fill:#ff0000;stroke:#ff0000;" x="90.325873" xlink:href="#ma10f869c29" y="104.190915"/>
     <use style="fill:#ff0000;stroke:#ff0000;" x="91.193933" xlink:href="#ma10f869c29" y="104.190915"/>
     <use style="fill:#ff0000;stroke:#ff0000;" x="92.061993" xlink:href="#ma10f869c29" y="104.190915"/>
     <use style="fill:#ff0000;stroke:#ff0000;" x="92.930053" xlink:href="#ma10f869c29" y="72.209873"/>
     <use style="fill:#ff0000;stroke:#ff0000;" x="93.798114" xlink:href="#ma10f869c29" y="72.209873"/>
     <use style="fill:#ff0000;stroke:#ff0000;" x="94.666174" xlink:href="#ma10f869c29" y="74.672352"/>
     <use style="fill:#ff0000;stroke:#ff0000;" x="95.534234" xlink:href="#ma10f869c29" y="74.672352"/>
     <use style="fill:#ff0000;stroke:#ff0000;" x="96.402295" xlink:href="#ma10f869c29" y="74.672352"/>
     <use style="fill:#ff0000;stroke:#ff0000;" x="97.270355" xlink:href="#ma10f869c29" y="77.195376"/>
     <use style="fill:#ff0000;stroke:#ff0000;" x="98.138415" xlink:href="#ma10f869c29" y="77.195376"/>
     <use style="fill:#ff0000;stroke:#ff0000;" x="99.006475" xlink:href="#ma10f869c29" y="88.171337"/>
     <use style="fill:#ff0000;stroke:#ff0000;" x="99.874536" xlink:href="#ma10f869c29" y="88.171337"/>
     <use style="fill:#ff0000;stroke:#ff0000;" x="100.742596" xlink:href="#ma10f869c29" y="78.402615"/>
     <use style="fill:#ff0000;stroke:#ff0000;" x="101.610656" xlink:href="#ma10f869c29" y="90.107565"/>
     <use style="fill:#ff0000;stroke:#ff0000;" x="102.478717" xlink:href="#ma10f869c29" y="90.107565"/>
     <use style="fill:#ff0000;stroke:#ff0000;" x="103.346777" xlink:href="#ma10f869c29" y="90.107565"/>
     <use style="fill:#ff0000;stroke:#ff0000;" x="104.214837" xlink:href="#ma10f869c29" y="90.107565"/>
     <use style="fill:#ff0000;stroke:#ff0000;" x="105.082897" xlink:href="#ma10f869c29" y="87.949386"/>
     <use style="fill:#ff0000;stroke:#ff0000;" x="105.950958" xlink:href="#ma10f869c29" y="87.949386"/>
     <use style="fill:#ff0000;stroke:#ff0000;" x="106.819018" xlink:href="#ma10f869c29" y="88.281446"/>
     <use style="fill:#ff0000;stroke:#ff0000;" x="107.687078" xlink:href="#ma10f869c29" y="88.281446"/>
     <use style="fill:#ff0000;stroke:#ff0000;" x="108.555139" xlink:href="#ma10f869c29" y="88.281446"/>
     <use style="fill:#ff0000;stroke:#ff0000;" x="109.423199" xlink:href="#ma10f869c29" y="77.374389"/>
     <use style="fill:#ff0000;stroke:#ff0000;" x="110.291259" xlink:href="#ma10f869c29" y="77.374389"/>
     <use style="fill:#ff0000;stroke:#ff0000;" x="111.159319" xlink:href="#ma10f869c29" y="77.374389"/>
     <use style="fill:#ff0000;stroke:#ff0000;" x="112.02738" xlink:href="#ma10f869c29" y="77.159704"/>
     <use style="fill:#ff0000;stroke:#ff0000;" x="112.89544" xlink:href="#ma10f869c29" y="66.542765"/>
     <use style="fill:#ff0000;stroke:#ff0000;" x="113.7635" xlink:href="#ma10f869c29" y="66.542765"/>
     <use style="fill:#ff0000;stroke:#ff0000;" x="114.631561" xlink:href="#ma10f869c29" y="64.864009"/>
     <use style="fill:#ff0000;stroke:#ff0000;" x="115.499621" xlink:href="#ma10f869c29" y="64.864009"/>
     <use style="fill:#ff0000;stroke:#ff0000;" x="116.367681" xlink:href="#ma10f869c29" y="55.567204"/>
     <use style="fill:#ff0000;stroke:#ff0000;" x="117.235741" xlink:href="#ma10f869c29" y="55.567204"/>
     <use style="fill:#ff0000;stroke:#ff0000;" x="118.103802" xlink:href="#ma10f869c29" y="53.638296"/>
     <use style="fill:#ff0000;stroke:#ff0000;" x="118.971862" xlink:href="#ma10f869c29" y="55.351736"/>
     <use style="fill:#ff0000;stroke:#ff0000;" x="119.839922" xlink:href="#ma10f869c29" y="55.351736"/>
     <use style="fill:#ff0000;stroke:#ff0000;" x="120.707982" xlink:href="#ma10f869c29" y="55.351736"/>
     <use style="fill:#ff0000;stroke:#ff0000;" x="121.576043" xlink:href="#ma10f869c29" y="53.568"/>
     <use style="fill:#ff0000;stroke:#ff0000;" x="122.444103" xlink:href="#ma10f869c29" y="53.568"/>
     <use style="fill:#ff0000;stroke:#ff0000;" x="123.312163" xlink:href="#ma10f869c29" y="63.461925"/>
     <use style="fill:#ff0000;stroke:#ff0000;" x="124.180224" xlink:href="#ma10f869c29" y="66.901372"/>
     <use style="fill:#ff0000;stroke:#ff0000;" x="125.048284" xlink:href="#ma10f869c29" y="66.901372"/>
     <use style="fill:#ff0000;stroke:#ff0000;" x="125.916344" xlink:href="#ma10f869c29" y="66.901372"/>
     <use style="fill:#ff0000;stroke:#ff0000;" x="126.784404" xlink:href="#ma10f869c29" y="76.504464"/>
     <use style="fill:#ff0000;stroke:#ff0000;" x="127.652465" xlink:href="#ma10f869c29" y="78.055813"/>
     <use style="fill:#ff0000;stroke:#ff0000;" x="128.520525" xlink:href="#ma10f869c29" y="78.055813"/>
     <use style="fill:#ff0000;stroke:#ff0000;" x="129.388585" xlink:href="#ma10f869c29" y="78.055813"/>
     <use style="fill:#ff0000;stroke:#ff0000;" x="130.256646" xlink:href="#ma10f869c29" y="78.055813"/>
     <use style="fill:#ff0000;stroke:#ff0000;" x="131.124706" xlink:href="#ma10f869c29" y="89.312391"/>
     <use style="fill:#ff0000;stroke:#ff0000;" x="131.992766" xlink:href="#ma10f869c29" y="89.312391"/>
     <use style="fill:#ff0000;stroke:#ff0000;" x="132.860826" xlink:href="#ma10f869c29" y="89.312391"/>
     <use style="fill:#ff0000;stroke:#ff0000;" x="133.728887" xlink:href="#ma10f869c29" y="88.847774"/>
     <use style="fill:#ff0000;stroke:#ff0000;" x="134.596947" xlink:href="#ma10f869c29" y="88.847774"/>
     <use style="fill:#ff0000;stroke:#ff0000;" x="135.465007" xlink:href="#ma10f869c29" y="79.069502"/>
     <use style="fill:#ff0000;stroke:#ff0000;" x="136.333068" xlink:href="#ma10f869c29" y="79.069502"/>
     <use style="fill:#ff0000;stroke:#ff0000;" x="137.201128" xlink:href="#ma10f869c29" y="79.105808"/>
     <use style="fill:#ff0000;stroke:#ff0000;" x="138.069188" xlink:href="#ma10f869c29" y="68.668142"/>
     <use style="fill:#ff0000;stroke:#ff0000;" x="138.937248" xlink:href="#ma10f869c29" y="68.668142"/>
     <use style="fill:#ff0000;stroke:#ff0000;" x="139.805309" xlink:href="#ma10f869c29" y="80.365872"/>
     <use style="fill:#ff0000;stroke:#ff0000;" x="140.673369" xlink:href="#ma10f869c29" y="80.365872"/>
     <use style="fill:#ff0000;stroke:#ff0000;" x="141.541429" xlink:href="#ma10f869c29" y="80.365872"/>
     <use style="fill:#ff0000;stroke:#ff0000;" x="142.40949" xlink:href="#ma10f869c29" y="90.761341"/>
     <use style="fill:#ff0000;stroke:#ff0000;" x="143.27755" xlink:href="#ma10f869c29" y="80.859139"/>
     <use style="fill:#ff0000;stroke:#ff0000;" x="144.14561" xlink:href="#ma10f869c29" y="80.859139"/>
     <use style="fill:#ff0000;stroke:#ff0000;" x="145.01367" xlink:href="#ma10f869c29" y="80.859139"/>
     <use style="fill:#ff0000;stroke:#ff0000;" x="145.881731" xlink:href="#ma10f869c29" y="80.859139"/>
     <use style="fill:#ff0000;stroke:#ff0000;" x="146.749791" xlink:href="#ma10f869c29" y="80.859139"/>
     <use style="fill:#ff0000;stroke:#ff0000;" x="147.617851" xlink:href="#ma10f869c29" y="91.882854"/>
     <use style="fill:#ff0000;stroke:#ff0000;" x="148.485912" xlink:href="#ma10f869c29" y="91.882854"/>
     <use style="fill:#ff0000;stroke:#ff0000;" x="149.353972" xlink:href="#ma10f869c29" y="93.720852"/>
     <use style="fill:#ff0000;stroke:#ff0000;" x="150.222032" xlink:href="#ma10f869c29" y="93.720852"/>
     <use style="fill:#ff0000;stroke:#ff0000;" x="151.090092" xlink:href="#ma10f869c29" y="104.020137"/>
     <use style="fill:#ff0000;stroke:#ff0000;" x="151.958153" xlink:href="#ma10f869c29" y="104.020137"/>
     <use style="fill:#ff0000;stroke:#ff0000;" x="152.826213" xlink:href="#ma10f869c29" y="104.020137"/>
     <use style="fill:#ff0000;stroke:#ff0000;" x="153.694273" xlink:href="#ma10f869c29" y="94.704402"/>
     <use style="fill:#ff0000;stroke:#ff0000;" x="154.562333" xlink:href="#ma10f869c29" y="94.704402"/>
     <use style="fill:#ff0000;stroke:#ff0000;" x="155.430394" xlink:href="#ma10f869c29" y="104.602609"/>
     <use style="fill:#ff0000;stroke:#ff0000;" x="156.298454" xlink:href="#ma10f869c29" y="104.602609"/>
     <use style="fill:#ff0000;stroke:#ff0000;" x="157.166514" xlink:href="#ma10f869c29" y="104.602609"/>
     <use style="fill:#ff0000;stroke:#ff0000;" x="158.034575" xlink:href="#ma10f869c29" y="94.767302"/>
     <use style="fill:#ff0000;stroke:#ff0000;" x="158.902635" xlink:href="#ma10f869c29" y="94.767302"/>
     <use style="fill:#ff0000;stroke:#ff0000;" x="159.770695" xlink:href="#ma10f869c29" y="94.767302"/>
     <use style="fill:#ff0000;stroke:#ff0000;" x="160.638755" xlink:href="#ma10f869c29" y="105.312714"/>
     <use style="fill:#ff0000;stroke:#ff0000;" x="161.506816" xlink:href="#ma10f869c29" y="114.174521"/>
     <use style="fill:#ff0000;stroke:#ff0000;" x="162.374876" xlink:href="#ma10f869c29" y="114.174521"/>
     <use style="fill:#ff0000;stroke:#ff0000;" x="163.242936" xlink:href="#ma10f869c29" y="124.920664"/>
     <use style="fill:#ff0000;stroke:#ff0000;" x="164.110997" xlink:href="#ma10f869c29" y="124.920664"/>
     <use style="fill:#ff0000;stroke:#ff0000;" x="164.979057" xlink:href="#ma10f869c29" y="122.081149"/>
     <use style="fill:#ff0000;stroke:#ff0000;" x="165.847117" xlink:href="#ma10f869c29" y="122.081149"/>
     <use style="fill:#ff0000;stroke:#ff0000;" x="166.715177" xlink:href="#ma10f869c29" y="132.828562"/>
     <use style="fill:#ff0000;stroke:#ff0000;" x="167.583238" xlink:href="#ma10f869c29" y="132.828562"/>
     <use style="fill:#ff0000;stroke:#ff0000;" x="168.451298" xlink:href="#ma10f869c29" y="132.828562"/>
     <use style="fill:#ff0000;stroke:#ff0000;" x="169.319358" xlink:href="#ma10f869c29" y="132.828562"/>
     <use style="fill:#ff0000;stroke:#ff0000;" x="170.187419" xlink:href="#ma10f869c29" y="132.828562"/>
     <use style="fill:#ff0000;stroke:#ff0000;" x="171.055479" xlink:href="#ma10f869c29" y="132.828562"/>
     <use style="fill:#ff0000;stroke:#ff0000;" x="171.923539" xlink:href="#ma10f869c29" y="132.828562"/>
     <use style="fill:#ff0000;stroke:#ff0000;" x="172.791599" xlink:href="#ma10f869c29" y="132.828562"/>
     <use style="fill:#ff0000;stroke:#ff0000;" x="173.65966" xlink:href="#ma10f869c29" y="132.828562"/>
     <use style="fill:#ff0000;stroke:#ff0000;" x="174.52772" xlink:href="#ma10f869c29" y="132.828562"/>
     <use style="fill:#ff0000;stroke:#ff0000;" x="175.39578" xlink:href="#ma10f869c29" y="132.828562"/>
     <use style="fill:#ff0000;stroke:#ff0000;" x="176.263841" xlink:href="#ma10f869c29" y="122.211792"/>
     <use style="fill:#ff0000;stroke:#ff0000;" x="177.131901" xlink:href="#ma10f869c29" y="132.716816"/>
     <use style="fill:#ff0000;stroke:#ff0000;" x="177.999961" xlink:href="#ma10f869c29" y="132.716816"/>
     <use style="fill:#ff0000;stroke:#ff0000;" x="178.868021" xlink:href="#ma10f869c29" y="143.606616"/>
     <use style="fill:#ff0000;stroke:#ff0000;" x="179.736082" xlink:href="#ma10f869c29" y="143.606616"/>
     <use style="fill:#ff0000;stroke:#ff0000;" x="180.604142" xlink:href="#ma10f869c29" y="143.606616"/>
     <use style="fill:#ff0000;stroke:#ff0000;" x="181.472202" xlink:href="#ma10f869c29" y="143.606616"/>
     <use style="fill:#ff0000;stroke:#ff0000;" x="182.340263" xlink:href="#ma10f869c29" y="143.223095"/>
     <use style="fill:#ff0000;stroke:#ff0000;" x="183.208323" xlink:href="#ma10f869c29" y="143.223095"/>
     <use style="fill:#ff0000;stroke:#ff0000;" x="184.076383" xlink:href="#ma10f869c29" y="144.974836"/>
     <use style="fill:#ff0000;stroke:#ff0000;" x="184.944443" xlink:href="#ma10f869c29" y="144.974836"/>
     <use style="fill:#ff0000;stroke:#ff0000;" x="185.812504" xlink:href="#ma10f869c29" y="135.984644"/>
     <use style="fill:#ff0000;stroke:#ff0000;" x="186.680564" xlink:href="#ma10f869c29" y="145.558018"/>
     <use style="fill:#ff0000;stroke:#ff0000;" x="187.548624" xlink:href="#ma10f869c29" y="145.558018"/>
     <use style="fill:#ff0000;stroke:#ff0000;" x="188.416684" xlink:href="#ma10f869c29" y="134.479706"/>
     <use style="fill:#ff0000;stroke:#ff0000;" x="189.284745" xlink:href="#ma10f869c29" y="134.479706"/>
     <use style="fill:#ff0000;stroke:#ff0000;" x="190.152805" xlink:href="#ma10f869c29" y="134.479706"/>
     <use style="fill:#ff0000;stroke:#ff0000;" x="191.020865" xlink:href="#ma10f869c29" y="145.641093"/>
     <use style="fill:#ff0000;stroke:#ff0000;" x="191.888926" xlink:href="#ma10f869c29" y="145.641093"/>
     <use style="fill:#ff0000;stroke:#ff0000;" x="192.756986" xlink:href="#ma10f869c29" y="156.459997"/>
     <use style="fill:#ff0000;stroke:#ff0000;" x="193.625046" xlink:href="#ma10f869c29" y="156.459997"/>
     <use style="fill:#ff0000;stroke:#ff0000;" x="194.493106" xlink:href="#ma10f869c29" y="167.449266"/>
     <use style="fill:#ff0000;stroke:#ff0000;" x="195.361167" xlink:href="#ma10f869c29" y="167.449266"/>
     <use style="fill:#ff0000;stroke:#ff0000;" x="196.229227" xlink:href="#ma10f869c29" y="165.198591"/>
     <use style="fill:#ff0000;stroke:#ff0000;" x="197.097287" xlink:href="#ma10f869c29" y="165.198591"/>
     <use style="fill:#ff0000;stroke:#ff0000;" x="197.965348" xlink:href="#ma10f869c29" y="154.293079"/>
     <use style="fill:#ff0000;stroke:#ff0000;" x="198.833408" xlink:href="#ma10f869c29" y="154.293079"/>
     <use style="fill:#ff0000;stroke:#ff0000;" x="199.701468" xlink:href="#ma10f869c29" y="163.544354"/>
     <use style="fill:#ff0000;stroke:#ff0000;" x="200.569528" xlink:href="#ma10f869c29" y="174.061876"/>
     <use style="fill:#ff0000;stroke:#ff0000;" x="201.437589" xlink:href="#ma10f869c29" y="174.061876"/>
     <use style="fill:#ff0000;stroke:#ff0000;" x="202.305649" xlink:href="#ma10f869c29" y="174.061876"/>
     <use style="fill:#ff0000;stroke:#ff0000;" x="203.173709" xlink:href="#ma10f869c29" y="171.130075"/>
     <use style="fill:#ff0000;stroke:#ff0000;" x="204.04177" xlink:href="#ma10f869c29" y="180.20975"/>
     <use style="fill:#ff0000;stroke:#ff0000;" x="204.90983" xlink:href="#ma10f869c29" y="180.20975"/>
     <use style="fill:#ff0000;stroke:#ff0000;" x="205.77789" xlink:href="#ma10f869c29" y="190.70567"/>
     <use style="fill:#ff0000;stroke:#ff0000;" x="206.64595" xlink:href="#ma10f869c29" y="190.70567"/>
     <use style="fill:#ff0000;stroke:#ff0000;" x="207.514011" xlink:href="#ma10f869c29" y="190.70567"/>
     <use style="fill:#ff0000;stroke:#ff0000;" x="208.382071" xlink:href="#ma10f869c29" y="190.831785"/>
     <use style="fill:#ff0000;stroke:#ff0000;" x="209.250131" xlink:href="#ma10f869c29" y="190.831785"/>
     <use style="fill:#ff0000;stroke:#ff0000;" x="210.118192" xlink:href="#ma10f869c29" y="200.622416"/>
     <use style="fill:#ff0000;stroke:#ff0000;" x="210.986252" xlink:href="#ma10f869c29" y="200.622416"/>
     <use style="fill:#ff0000;stroke:#ff0000;" x="211.854312" xlink:href="#ma10f869c29" y="200.622416"/>
     <use style="fill:#ff0000;stroke:#ff0000;" x="212.722372" xlink:href="#ma10f869c29" y="210.336598"/>
     <use style="fill:#ff0000;stroke:#ff0000;" x="213.590433" xlink:href="#ma10f869c29" y="210.336598"/>
     <use style="fill:#ff0000;stroke:#ff0000;" x="214.458493" xlink:href="#ma10f869c29" y="219.298883"/>
     <use style="fill:#ff0000;stroke:#ff0000;" x="215.326553" xlink:href="#ma10f869c29" y="219.298883"/>
     <use style="fill:#ff0000;stroke:#ff0000;" x="216.194614" xlink:href="#ma10f869c29" y="228.364189"/>
     <use style="fill:#ff0000;stroke:#ff0000;" x="217.062674" xlink:href="#ma10f869c29" y="227.420714"/>
     <use style="fill:#ff0000;stroke:#ff0000;" x="217.930734" xlink:href="#ma10f869c29" y="227.420714"/>
     <use style="fill:#ff0000;stroke:#ff0000;" x="218.798794" xlink:href="#ma10f869c29" y="227.420714"/>
     <use style="fill:#ff0000;stroke:#ff0000;" x="219.666855" xlink:href="#ma10f869c29" y="236.179253"/>
     <use style="fill:#ff0000;stroke:#ff0000;" x="220.534915" xlink:href="#ma10f869c29" y="236.179253"/>
     <use style="fill:#ff0000;stroke:#ff0000;" x="221.402975" xlink:href="#ma10f869c29" y="236.179253"/>
     <use style="fill:#ff0000;stroke:#ff0000;" x="222.271035" xlink:href="#ma10f869c29" y="245.267957"/>
     <use style="fill:#ff0000;stroke:#ff0000;" x="223.139096" xlink:href="#ma10f869c29" y="245.267957"/>
     <use style="fill:#ff0000;stroke:#ff0000;" x="224.007156" xlink:href="#ma10f869c29" y="255.778609"/>
     <use style="fill:#ff0000;stroke:#ff0000;" x="224.875216" xlink:href="#ma10f869c29" y="266.622938"/>
     <use style="fill:#ff0000;stroke:#ff0000;" x="225.743277" xlink:href="#ma10f869c29" y="266.622938"/>
     <use style="fill:#ff0000;stroke:#ff0000;" x="226.611337" xlink:href="#ma10f869c29" y="269.386576"/>
     <use style="fill:#ff0000;stroke:#ff0000;" x="227.479397" xlink:href="#ma10f869c29" y="269.386576"/>
     <use style="fill:#ff0000;stroke:#ff0000;" x="228.347457" xlink:href="#ma10f869c29" y="278.120819"/>
     <use style="fill:#ff0000;stroke:#ff0000;" x="229.215518" xlink:href="#ma10f869c29" y="286.967913"/>
     <use style="fill:#ff0000;stroke:#ff0000;" x="230.083578" xlink:href="#ma10f869c29" y="286.967913"/>
     <use style="fill:#ff0000;stroke:#ff0000;" x="230.951638" xlink:href="#ma10f869c29" y="295.488"/>
     <use style="fill:#ff0000;stroke:#ff0000;" x="231.819699" xlink:href="#ma10f869c29" y="295.488"/>
     <use style="fill:#ff0000;stroke:#ff0000;" x="232.687759" xlink:href="#ma10f869c29" y="285.334951"/>
     <use style="fill:#ff0000;stroke:#ff0000;" x="233.555819" xlink:href="#ma10f869c29" y="285.334951"/>
     <use style="fill:#ff0000;stroke:#ff0000;" x="234.423879" xlink:href="#ma10f869c29" y="275.388087"/>
     <use style="fill:#ff0000;stroke:#ff0000;" x="235.29194" xlink:href="#ma10f869c29" y="275.388087"/>
     <use style="fill:#ff0000;stroke:#ff0000;" x="236.16" xlink:href="#ma10f869c29" y="275.388087"/>
     <use style="fill:#ff0000;stroke:#ff0000;" x="237.02806" xlink:href="#ma10f869c29" y="275.388087"/>
     <use style="fill:#ff0000;stroke:#ff0000;" x="237.896121" xlink:href="#ma10f869c29" y="275.388087"/>
     <use style="fill:#ff0000;stroke:#ff0000;" x="238.764181" xlink:href="#ma10f869c29" y="275.388087"/>
     <use style="fill:#ff0000;stroke:#ff0000;" x="239.632241" xlink:href="#ma10f869c29" y="275.388087"/>
     <use style="fill:#ff0000;stroke:#ff0000;" x="240.500301" xlink:href="#ma10f869c29" y="275.388087"/>
     <use style="fill:#ff0000;stroke:#ff0000;" x="241.368362" xlink:href="#ma10f869c29" y="275.388087"/>
     <use style="fill:#ff0000;stroke:#ff0000;" x="242.236422" xlink:href="#ma10f869c29" y="275.388087"/>
     <use style="fill:#ff0000;stroke:#ff0000;" x="243.104482" xlink:href="#ma10f869c29" y="275.388087"/>
     <use style="fill:#ff0000;stroke:#ff0000;" x="243.972543" xlink:href="#ma10f869c29" y="275.388087"/>
     <use style="fill:#ff0000;stroke:#ff0000;" x="244.840603" xlink:href="#ma10f869c29" y="275.388087"/>
     <use style="fill:#ff0000;stroke:#ff0000;" x="245.708663" xlink:href="#ma10f869c29" y="275.388087"/>
     <use style="fill:#ff0000;stroke:#ff0000;" x="246.576723" xlink:href="#ma10f869c29" y="275.388087"/>
     <use style="fill:#ff0000;stroke:#ff0000;" x="247.444784" xlink:href="#ma10f869c29" y="275.388087"/>
     <use style="fill:#ff0000;stroke:#ff0000;" x="248.312844" xlink:href="#ma10f869c29" y="275.388087"/>
     <use style="fill:#ff0000;stroke:#ff0000;" x="249.180904" xlink:href="#ma10f869c29" y="275.388087"/>
     <use style="fill:#ff0000;stroke:#ff0000;" x="250.048965" xlink:href="#ma10f869c29" y="275.388087"/>
     <use style="fill:#ff0000;stroke:#ff0000;" x="250.917025" xlink:href="#ma10f869c29" y="275.388087"/>
     <use style="fill:#ff0000;stroke:#ff0000;" x="251.785085" xlink:href="#ma10f869c29" y="275.388087"/>
     <use style="fill:#ff0000;stroke:#ff0000;" x="252.653145" xlink:href="#ma10f869c29" y="275.388087"/>
     <use style="fill:#ff0000;stroke:#ff0000;" x="253.521206" xlink:href="#ma10f869c29" y="275.388087"/>
     <use style="fill:#ff0000;stroke:#ff0000;" x="254.389266" xlink:href="#ma10f869c29" y="275.388087"/>
     <use style="fill:#ff0000;stroke:#ff0000;" x="255.257326" xlink:href="#ma10f869c29" y="275.388087"/>
     <use style="fill:#ff0000;stroke:#ff0000;" x="256.125386" xlink:href="#ma10f869c29" y="275.388087"/>
     <use style="fill:#ff0000;stroke:#ff0000;" x="256.993447" xlink:href="#ma10f869c29" y="275.388087"/>
     <use style="fill:#ff0000;stroke:#ff0000;" x="257.861507" xlink:href="#ma10f869c29" y="275.388087"/>
     <use style="fill:#ff0000;stroke:#ff0000;" x="258.729567" xlink:href="#ma10f869c29" y="275.388087"/>
     <use style="fill:#ff0000;stroke:#ff0000;" x="259.597628" xlink:href="#ma10f869c29" y="275.388087"/>
     <use style="fill:#ff0000;stroke:#ff0000;" x="260.465688" xlink:href="#ma10f869c29" y="275.388087"/>
     <use style="fill:#ff0000;stroke:#ff0000;" x="261.333748" xlink:href="#ma10f869c29" y="275.388087"/>
     <use style="fill:#ff0000;stroke:#ff0000;" x="262.201808" xlink:href="#ma10f869c29" y="275.388087"/>
     <use style="fill:#ff0000;stroke:#ff0000;" x="263.069869" xlink:href="#ma10f869c29" y="275.388087"/>
     <use style="fill:#ff0000;stroke:#ff0000;" x="263.937929" xlink:href="#ma10f869c29" y="275.388087"/>
     <use style="fill:#ff0000;stroke:#ff0000;" x="264.805989" xlink:href="#ma10f869c29" y="275.388087"/>
     <use style="fill:#ff0000;stroke:#ff0000;" x="265.67405" xlink:href="#ma10f869c29" y="275.388087"/>
     <use style="fill:#ff0000;stroke:#ff0000;" x="266.54211" xlink:href="#ma10f869c29" y="275.388087"/>
     <use style="fill:#ff0000;stroke:#ff0000;" x="267.41017" xlink:href="#ma10f869c29" y="275.388087"/>
     <use style="fill:#ff0000;stroke:#ff0000;" x="268.27823" xlink:href="#ma10f869c29" y="275.388087"/>
     <use style="fill:#ff0000;stroke:#ff0000;" x="269.146291" xlink:href="#ma10f869c29" y="275.388087"/>
     <use style="fill:#ff0000;stroke:#ff0000;" x="270.014351" xlink:href="#ma10f869c29" y="275.388087"/>
     <use style="fill:#ff0000;stroke:#ff0000;" x="270.882411" xlink:href="#ma10f869c29" y="275.388087"/>
     <use style="fill:#ff0000;stroke:#ff0000;" x="271.750472" xlink:href="#ma10f869c29" y="275.388087"/>
     <use style="fill:#ff0000;stroke:#ff0000;" x="272.618532" xlink:href="#ma10f869c29" y="275.388087"/>
     <use style="fill:#ff0000;stroke:#ff0000;" x="273.486592" xlink:href="#ma10f869c29" y="275.388087"/>
     <use style="fill:#ff0000;stroke:#ff0000;" x="274.354652" xlink:href="#ma10f869c29" y="275.388087"/>
     <use style="fill:#ff0000;stroke:#ff0000;" x="275.222713" xlink:href="#ma10f869c29" y="275.388087"/>
     <use style="fill:#ff0000;stroke:#ff0000;" x="276.090773" xlink:href="#ma10f869c29" y="275.388087"/>
     <use style="fill:#ff0000;stroke:#ff0000;" x="276.958833" xlink:href="#ma10f869c29" y="275.388087"/>
     <use style="fill:#ff0000;stroke:#ff0000;" x="277.826894" xlink:href="#ma10f869c29" y="275.388087"/>
     <use style="fill:#ff0000;stroke:#ff0000;" x="278.694954" xlink:href="#ma10f869c29" y="275.388087"/>
     <use style="fill:#ff0000;stroke:#ff0000;" x="279.563014" xlink:href="#ma10f869c29" y="275.388087"/>
     <use style="fill:#ff0000;stroke:#ff0000;" x="280.431074" xlink:href="#ma10f869c29" y="275.388087"/>
     <use style="fill:#ff0000;stroke:#ff0000;" x="281.299135" xlink:href="#ma10f869c29" y="275.388087"/>
     <use style="fill:#ff0000;stroke:#ff0000;" x="282.167195" xlink:href="#ma10f869c29" y="275.388087"/>
     <use style="fill:#ff0000;stroke:#ff0000;" x="283.035255" xlink:href="#ma10f869c29" y="275.388087"/>
     <use style="fill:#ff0000;stroke:#ff0000;" x="283.903316" xlink:href="#ma10f869c29" y="275.388087"/>
     <use style="fill:#ff0000;stroke:#ff0000;" x="284.771376" xlink:href="#ma10f869c29" y="275.388087"/>
     <use style="fill:#ff0000;stroke:#ff0000;" x="285.639436" xlink:href="#ma10f869c29" y="275.388087"/>
     <use style="fill:#ff0000;stroke:#ff0000;" x="286.507496" xlink:href="#ma10f869c29" y="275.388087"/>
     <use style="fill:#ff0000;stroke:#ff0000;" x="287.375557" xlink:href="#ma10f869c29" y="275.388087"/>
     <use style="fill:#ff0000;stroke:#ff0000;" x="288.243617" xlink:href="#ma10f869c29" y="275.388087"/>
     <use style="fill:#ff0000;stroke:#ff0000;" x="289.111677" xlink:href="#ma10f869c29" y="275.388087"/>
     <use style="fill:#ff0000;stroke:#ff0000;" x="289.979737" xlink:href="#ma10f869c29" y="275.388087"/>
     <use style="fill:#ff0000;stroke:#ff0000;" x="290.847798" xlink:href="#ma10f869c29" y="275.388087"/>
     <use style="fill:#ff0000;stroke:#ff0000;" x="291.715858" xlink:href="#ma10f869c29" y="275.388087"/>
     <use style="fill:#ff0000;stroke:#ff0000;" x="292.583918" xlink:href="#ma10f869c29" y="275.388087"/>
     <use style="fill:#ff0000;stroke:#ff0000;" x="293.451979" xlink:href="#ma10f869c29" y="275.388087"/>
     <use style="fill:#ff0000;stroke:#ff0000;" x="294.320039" xlink:href="#ma10f869c29" y="275.388087"/>
     <use style="fill:#ff0000;stroke:#ff0000;" x="295.188099" xlink:href="#ma10f869c29" y="275.388087"/>
     <use style="fill:#ff0000;stroke:#ff0000;" x="296.056159" xlink:href="#ma10f869c29" y="275.388087"/>
     <use style="fill:#ff0000;stroke:#ff0000;" x="296.92422" xlink:href="#ma10f869c29" y="275.388087"/>
     <use style="fill:#ff0000;stroke:#ff0000;" x="297.79228" xlink:href="#ma10f869c29" y="275.388087"/>
     <use style="fill:#ff0000;stroke:#ff0000;" x="298.66034" xlink:href="#ma10f869c29" y="275.388087"/>
     <use style="fill:#ff0000;stroke:#ff0000;" x="299.528401" xlink:href="#ma10f869c29" y="275.388087"/>
     <use style="fill:#ff0000;stroke:#ff0000;" x="300.396461" xlink:href="#ma10f869c29" y="275.388087"/>
     <use style="fill:#ff0000;stroke:#ff0000;" x="301.264521" xlink:href="#ma10f869c29" y="275.388087"/>
     <use style="fill:#ff0000;stroke:#ff0000;" x="302.132581" xlink:href="#ma10f869c29" y="275.388087"/>
     <use style="fill:#ff0000;stroke:#ff0000;" x="303.000642" xlink:href="#ma10f869c29" y="275.388087"/>
     <use style="fill:#ff0000;stroke:#ff0000;" x="303.868702" xlink:href="#ma10f869c29" y="275.388087"/>
     <use style="fill:#ff0000;stroke:#ff0000;" x="304.736762" xlink:href="#ma10f869c29" y="275.388087"/>
     <use style="fill:#ff0000;stroke:#ff0000;" x="305.604823" xlink:href="#ma10f869c29" y="275.388087"/>
     <use style="fill:#ff0000;stroke:#ff0000;" x="306.472883" xlink:href="#ma10f869c29" y="275.388087"/>
     <use style="fill:#ff0000;stroke:#ff0000;" x="307.340943" xlink:href="#ma10f869c29" y="275.388087"/>
     <use style="fill:#ff0000;stroke:#ff0000;" x="308.209003" xlink:href="#ma10f869c29" y="275.388087"/>
     <use style="fill:#ff0000;stroke:#ff0000;" x="309.077064" xlink:href="#ma10f869c29" y="275.388087"/>
     <use style="fill:#ff0000;stroke:#ff0000;" x="309.945124" xlink:href="#ma10f869c29" y="275.388087"/>
     <use style="fill:#ff0000;stroke:#ff0000;" x="310.813184" xlink:href="#ma10f869c29" y="275.388087"/>
     <use style="fill:#ff0000;stroke:#ff0000;" x="311.681245" xlink:href="#ma10f869c29" y="275.388087"/>
     <use style="fill:#ff0000;stroke:#ff0000;" x="312.549305" xlink:href="#ma10f869c29" y="275.388087"/>
     <use style="fill:#ff0000;stroke:#ff0000;" x="313.417365" xlink:href="#ma10f869c29" y="275.388087"/>
     <use style="fill:#ff0000;stroke:#ff0000;" x="314.285425" xlink:href="#ma10f869c29" y="275.388087"/>
     <use style="fill:#ff0000;stroke:#ff0000;" x="315.153486" xlink:href="#ma10f869c29" y="275.388087"/>
     <use style="fill:#ff0000;stroke:#ff0000;" x="316.021546" xlink:href="#ma10f869c29" y="275.388087"/>
     <use style="fill:#ff0000;stroke:#ff0000;" x="316.889606" xlink:href="#ma10f869c29" y="275.388087"/>
     <use style="fill:#ff0000;stroke:#ff0000;" x="317.757667" xlink:href="#ma10f869c29" y="275.388087"/>
     <use style="fill:#ff0000;stroke:#ff0000;" x="318.625727" xlink:href="#ma10f869c29" y="275.388087"/>
     <use style="fill:#ff0000;stroke:#ff0000;" x="319.493787" xlink:href="#ma10f869c29" y="275.388087"/>
     <use style="fill:#ff0000;stroke:#ff0000;" x="320.361847" xlink:href="#ma10f869c29" y="275.388087"/>
     <use style="fill:#ff0000;stroke:#ff0000;" x="321.229908" xlink:href="#ma10f869c29" y="275.388087"/>
     <use style="fill:#ff0000;stroke:#ff0000;" x="322.097968" xlink:href="#ma10f869c29" y="275.388087"/>
     <use style="fill:#ff0000;stroke:#ff0000;" x="322.966028" xlink:href="#ma10f869c29" y="275.388087"/>
     <use style="fill:#ff0000;stroke:#ff0000;" x="323.834088" xlink:href="#ma10f869c29" y="275.388087"/>
     <use style="fill:#ff0000;stroke:#ff0000;" x="324.702149" xlink:href="#ma10f869c29" y="275.388087"/>
     <use style="fill:#ff0000;stroke:#ff0000;" x="325.570209" xlink:href="#ma10f869c29" y="275.388087"/>
     <use style="fill:#ff0000;stroke:#ff0000;" x="326.438269" xlink:href="#ma10f869c29" y="275.388087"/>
     <use style="fill:#ff0000;stroke:#ff0000;" x="327.30633" xlink:href="#ma10f869c29" y="275.388087"/>
     <use style="fill:#ff0000;stroke:#ff0000;" x="328.17439" xlink:href="#ma10f869c29" y="275.388087"/>
     <use style="fill:#ff0000;stroke:#ff0000;" x="329.04245" xlink:href="#ma10f869c29" y="275.388087"/>
     <use style="fill:#ff0000;stroke:#ff0000;" x="329.91051" xlink:href="#ma10f869c29" y="275.388087"/>
     <use style="fill:#ff0000;stroke:#ff0000;" x="330.778571" xlink:href="#ma10f869c29" y="275.388087"/>
     <use style="fill:#ff0000;stroke:#ff0000;" x="331.646631" xlink:href="#ma10f869c29" y="275.388087"/>
     <use style="fill:#ff0000;stroke:#ff0000;" x="332.514691" xlink:href="#ma10f869c29" y="275.388087"/>
     <use style="fill:#ff0000;stroke:#ff0000;" x="333.382752" xlink:href="#ma10f869c29" y="275.388087"/>
     <use style="fill:#ff0000;stroke:#ff0000;" x="334.250812" xlink:href="#ma10f869c29" y="275.388087"/>
     <use style="fill:#ff0000;stroke:#ff0000;" x="335.118872" xlink:href="#ma10f869c29" y="275.388087"/>
     <use style="fill:#ff0000;stroke:#ff0000;" x="335.986932" xlink:href="#ma10f869c29" y="275.388087"/>
     <use style="fill:#ff0000;stroke:#ff0000;" x="336.854993" xlink:href="#ma10f869c29" y="275.388087"/>
     <use style="fill:#ff0000;stroke:#ff0000;" x="337.723053" xlink:href="#ma10f869c29" y="275.388087"/>
     <use style="fill:#ff0000;stroke:#ff0000;" x="338.591113" xlink:href="#ma10f869c29" y="275.388087"/>
     <use style="fill:#ff0000;stroke:#ff0000;" x="339.459174" xlink:href="#ma10f869c29" y="275.388087"/>
     <use style="fill:#ff0000;stroke:#ff0000;" x="340.327234" xlink:href="#ma10f869c29" y="275.388087"/>
     <use style="fill:#ff0000;stroke:#ff0000;" x="341.195294" xlink:href="#ma10f869c29" y="275.388087"/>
     <use style="fill:#ff0000;stroke:#ff0000;" x="342.063354" xlink:href="#ma10f869c29" y="275.388087"/>
     <use style="fill:#ff0000;stroke:#ff0000;" x="342.931415" xlink:href="#ma10f869c29" y="275.388087"/>
     <use style="fill:#ff0000;stroke:#ff0000;" x="343.799475" xlink:href="#ma10f869c29" y="275.388087"/>
     <use style="fill:#ff0000;stroke:#ff0000;" x="344.667535" xlink:href="#ma10f869c29" y="275.388087"/>
     <use style="fill:#ff0000;stroke:#ff0000;" x="345.535596" xlink:href="#ma10f869c29" y="275.388087"/>
     <use style="fill:#ff0000;stroke:#ff0000;" x="346.403656" xlink:href="#ma10f869c29" y="275.388087"/>
     <use style="fill:#ff0000;stroke:#ff0000;" x="347.271716" xlink:href="#ma10f869c29" y="275.388087"/>
     <use style="fill:#ff0000;stroke:#ff0000;" x="348.139776" xlink:href="#ma10f869c29" y="275.388087"/>
     <use style="fill:#ff0000;stroke:#ff0000;" x="349.007837" xlink:href="#ma10f869c29" y="275.388087"/>
     <use style="fill:#ff0000;stroke:#ff0000;" x="349.875897" xlink:href="#ma10f869c29" y="275.388087"/>
     <use style="fill:#ff0000;stroke:#ff0000;" x="350.743957" xlink:href="#ma10f869c29" y="275.388087"/>
     <use style="fill:#ff0000;stroke:#ff0000;" x="351.612018" xlink:href="#ma10f869c29" y="275.388087"/>
     <use style="fill:#ff0000;stroke:#ff0000;" x="352.480078" xlink:href="#ma10f869c29" y="275.388087"/>
     <use style="fill:#ff0000;stroke:#ff0000;" x="353.348138" xlink:href="#ma10f869c29" y="275.388087"/>
     <use style="fill:#ff0000;stroke:#ff0000;" x="354.216198" xlink:href="#ma10f869c29" y="275.388087"/>
     <use style="fill:#ff0000;stroke:#ff0000;" x="355.084259" xlink:href="#ma10f869c29" y="275.388087"/>
     <use style="fill:#ff0000;stroke:#ff0000;" x="355.952319" xlink:href="#ma10f869c29" y="275.388087"/>
     <use style="fill:#ff0000;stroke:#ff0000;" x="356.820379" xlink:href="#ma10f869c29" y="275.388087"/>
     <use style="fill:#ff0000;stroke:#ff0000;" x="357.688439" xlink:href="#ma10f869c29" y="275.388087"/>
     <use style="fill:#ff0000;stroke:#ff0000;" x="358.5565" xlink:href="#ma10f869c29" y="275.388087"/>
     <use style="fill:#ff0000;stroke:#ff0000;" x="359.42456" xlink:href="#ma10f869c29" y="275.388087"/>
     <use style="fill:#ff0000;stroke:#ff0000;" x="360.29262" xlink:href="#ma10f869c29" y="275.388087"/>
     <use style="fill:#ff0000;stroke:#ff0000;" x="361.160681" xlink:href="#ma10f869c29" y="275.388087"/>
     <use style="fill:#ff0000;stroke:#ff0000;" x="362.028741" xlink:href="#ma10f869c29" y="275.388087"/>
     <use style="fill:#ff0000;stroke:#ff0000;" x="362.896801" xlink:href="#ma10f869c29" y="275.388087"/>
     <use style="fill:#ff0000;stroke:#ff0000;" x="363.764861" xlink:href="#ma10f869c29" y="275.388087"/>
     <use style="fill:#ff0000;stroke:#ff0000;" x="364.632922" xlink:href="#ma10f869c29" y="275.388087"/>
     <use style="fill:#ff0000;stroke:#ff0000;" x="365.500982" xlink:href="#ma10f869c29" y="275.388087"/>
     <use style="fill:#ff0000;stroke:#ff0000;" x="366.369042" xlink:href="#ma10f869c29" y="275.388087"/>
     <use style="fill:#ff0000;stroke:#ff0000;" x="367.237103" xlink:href="#ma10f869c29" y="275.388087"/>
     <use style="fill:#ff0000;stroke:#ff0000;" x="368.105163" xlink:href="#ma10f869c29" y="275.388087"/>
     <use style="fill:#ff0000;stroke:#ff0000;" x="368.973223" xlink:href="#ma10f869c29" y="275.388087"/>
     <use style="fill:#ff0000;stroke:#ff0000;" x="369.841283" xlink:href="#ma10f869c29" y="275.388087"/>
     <use style="fill:#ff0000;stroke:#ff0000;" x="370.709344" xlink:href="#ma10f869c29" y="275.388087"/>
     <use style="fill:#ff0000;stroke:#ff0000;" x="371.577404" xlink:href="#ma10f869c29" y="275.388087"/>
     <use style="fill:#ff0000;stroke:#ff0000;" x="372.445464" xlink:href="#ma10f869c29" y="275.388087"/>
     <use style="fill:#ff0000;stroke:#ff0000;" x="373.313525" xlink:href="#ma10f869c29" y="275.388087"/>
     <use style="fill:#ff0000;stroke:#ff0000;" x="374.181585" xlink:href="#ma10f869c29" y="275.388087"/>
     <use style="fill:#ff0000;stroke:#ff0000;" x="375.049645" xlink:href="#ma10f869c29" y="275.388087"/>
     <use style="fill:#ff0000;stroke:#ff0000;" x="375.917705" xlink:href="#ma10f869c29" y="275.388087"/>
     <use style="fill:#ff0000;stroke:#ff0000;" x="376.785766" xlink:href="#ma10f869c29" y="275.388087"/>
     <use style="fill:#ff0000;stroke:#ff0000;" x="377.653826" xlink:href="#ma10f869c29" y="275.388087"/>
     <use style="fill:#ff0000;stroke:#ff0000;" x="378.521886" xlink:href="#ma10f869c29" y="275.388087"/>
     <use style="fill:#ff0000;stroke:#ff0000;" x="379.389947" xlink:href="#ma10f869c29" y="275.388087"/>
     <use style="fill:#ff0000;stroke:#ff0000;" x="380.258007" xlink:href="#ma10f869c29" y="275.388087"/>
     <use style="fill:#ff0000;stroke:#ff0000;" x="381.126067" xlink:href="#ma10f869c29" y="275.388087"/>
     <use style="fill:#ff0000;stroke:#ff0000;" x="381.994127" xlink:href="#ma10f869c29" y="275.388087"/>
     <use style="fill:#ff0000;stroke:#ff0000;" x="382.862188" xlink:href="#ma10f869c29" y="275.388087"/>
     <use style="fill:#ff0000;stroke:#ff0000;" x="383.730248" xlink:href="#ma10f869c29" y="275.388087"/>
     <use style="fill:#ff0000;stroke:#ff0000;" x="384.598308" xlink:href="#ma10f869c29" y="275.388087"/>
     <use style="fill:#ff0000;stroke:#ff0000;" x="385.466368" xlink:href="#ma10f869c29" y="275.388087"/>
     <use style="fill:#ff0000;stroke:#ff0000;" x="386.334429" xlink:href="#ma10f869c29" y="275.388087"/>
     <use style="fill:#ff0000;stroke:#ff0000;" x="387.202489" xlink:href="#ma10f869c29" y="275.388087"/>
     <use style="fill:#ff0000;stroke:#ff0000;" x="388.070549" xlink:href="#ma10f869c29" y="275.388087"/>
     <use style="fill:#ff0000;stroke:#ff0000;" x="388.93861" xlink:href="#ma10f869c29" y="275.388087"/>
     <use style="fill:#ff0000;stroke:#ff0000;" x="389.80667" xlink:href="#ma10f869c29" y="275.388087"/>
     <use style="fill:#ff0000;stroke:#ff0000;" x="390.67473" xlink:href="#ma10f869c29" y="275.388087"/>
     <use style="fill:#ff0000;stroke:#ff0000;" x="391.54279" xlink:href="#ma10f869c29" y="275.388087"/>
     <use style="fill:#ff0000;stroke:#ff0000;" x="392.410851" xlink:href="#ma10f869c29" y="275.388087"/>
     <use style="fill:#ff0000;stroke:#ff0000;" x="393.278911" xlink:href="#ma10f869c29" y="275.388087"/>
     <use style="fill:#ff0000;stroke:#ff0000;" x="394.146971" xlink:href="#ma10f869c29" y="275.388087"/>
     <use style="fill:#ff0000;stroke:#ff0000;" x="395.015032" xlink:href="#ma10f869c29" y="275.388087"/>
     <use style="fill:#ff0000;stroke:#ff0000;" x="395.883092" xlink:href="#ma10f869c29" y="275.388087"/>
     <use style="fill:#ff0000;stroke:#ff0000;" x="396.751152" xlink:href="#ma10f869c29" y="275.388087"/>
     <use style="fill:#ff0000;stroke:#ff0000;" x="397.619212" xlink:href="#ma10f869c29" y="275.388087"/>
     <use style="fill:#ff0000;stroke:#ff0000;" x="398.487273" xlink:href="#ma10f869c29" y="275.388087"/>
    </g>
   </g>
   <g id="patch_3">
    <path d="M 57.6 307.584 
L 57.6 41.472 
" style="fill:none;stroke:#000000;stroke-linecap:square;stroke-linejoin:miter;stroke-width:0.8;"/>
   </g>
   <g id="patch_4">
    <path d="M 414.72 307.584 
L 414.72 41.472 
" style="fill:none;stroke:#000000;stroke-linecap:square;stroke-linejoin:miter;stroke-width:0.8;"/>
   </g>
   <g id="patch_5">
    <path d="M 57.6 307.584 
L 414.72 307.584 
" style="fill:none;stroke:#000000;stroke-linecap:square;stroke-linejoin:miter;stroke-width:0.8;"/>
   </g>
   <g id="patch_6">
    <path d="M 57.6 41.472 
L 414.72 41.472 
" style="fill:none;stroke:#000000;stroke-linecap:square;stroke-linejoin:miter;stroke-width:0.8;"/>
   </g>
  </g>
 </g>
 <defs>
  <clipPath id="p9d9925deb2">
   <rect height="266.112" width="357.12" x="57.6" y="41.472"/>
  </clipPath>
 </defs>
</svg>
