<?xml version="1.0" encoding="utf-8" standalone="no"?>
<!DOCTYPE svg PUBLIC "-//W3C//DTD SVG 1.1//EN"
  "http://www.w3.org/Graphics/SVG/1.1/DTD/svg11.dtd">
<!-- Created with matplotlib (https://matplotlib.org/) -->
<svg height="345.6pt" version="1.1" viewBox="0 0 460.8 345.6" width="460.8pt" xmlns="http://www.w3.org/2000/svg" xmlns:xlink="http://www.w3.org/1999/xlink">
 <defs>
  <style type="text/css">
*{stroke-linecap:butt;stroke-linejoin:round;}
  </style>
 </defs>
 <g id="figure_1">
  <g id="patch_1">
   <path d="M 0 345.6 
L 460.8 345.6 
L 460.8 0 
L 0 0 
z
" style="fill:#ffffff;"/>
  </g>
  <g id="axes_1">
   <g id="patch_2">
    <path d="M 57.6 307.584 
L 414.72 307.584 
L 414.72 41.472 
L 57.6 41.472 
z
" style="fill:#ffffff;"/>
   </g>
   <g id="line2d_1">
    <path clip-path="url(#p1cefa7a01f)" d="M 73.832727 129.443993 
L 74.779242 160.991416 
L 75.725757 160.991416 
L 76.672271 130.096119 
L 77.618786 130.096119 
L 78.565301 99.867654 
L 80.45833 99.867654 
L 81.404845 130.760769 
L 82.35136 130.760769 
L 83.297874 101.100061 
L 85.190904 101.100061 
L 86.137418 134.44772 
L 87.083933 134.44772 
L 88.030448 166.501856 
L 88.976963 166.501856 
L 90.869992 104.190915 
L 93.709536 104.190915 
L 94.656051 72.209873 
L 95.602566 72.209873 
L 96.54908 74.672352 
L 98.44211 74.672352 
L 99.388624 77.195376 
L 100.335139 77.195376 
L 101.281654 88.171337 
L 102.228169 88.171337 
L 103.174683 78.402615 
L 104.121198 90.107565 
L 106.960742 90.107565 
L 107.907257 87.949386 
L 108.853772 87.949386 
L 109.800286 88.281446 
L 111.693316 88.281446 
L 112.63983 77.374389 
L 114.53286 77.374389 
L 115.479375 77.159704 
L 116.425889 66.542765 
L 117.372404 66.542765 
L 118.318919 64.864009 
L 119.265433 64.864009 
L 120.211948 55.567204 
L 121.158463 55.567204 
L 122.104977 53.638296 
L 123.051492 55.351736 
L 124.944522 55.351736 
L 125.891036 53.568 
L 126.837551 53.568 
L 127.784066 63.461925 
L 128.73058 66.901372 
L 130.62361 66.901372 
L 131.570125 76.504464 
L 132.516639 78.055813 
L 135.356183 78.055813 
L 136.302698 89.312391 
L 138.195728 89.312391 
L 139.142242 88.847774 
L 140.088757 88.847774 
L 141.035272 79.069502 
L 142.928301 79.105808 
L 143.874816 68.668142 
L 144.821331 68.668142 
L 145.767845 80.365872 
L 147.660875 80.365872 
L 148.607389 90.761341 
L 149.553904 80.859139 
L 153.339963 80.859139 
L 154.286478 91.882854 
L 155.232992 91.882854 
L 156.179507 93.720852 
L 157.126022 93.720852 
L 158.072536 104.020137 
L 159.965566 104.020137 
L 160.912081 94.704402 
L 161.858595 94.704402 
L 162.80511 104.602609 
L 164.698139 104.602609 
L 165.644654 94.767302 
L 167.537684 94.767302 
L 168.484198 105.312714 
L 169.430713 114.174521 
L 170.377228 114.174521 
L 171.323742 124.920664 
L 172.270257 124.920664 
L 173.216772 122.081149 
L 174.163287 122.081149 
L 175.109801 132.828562 
L 184.574948 132.828562 
L 185.521463 122.211792 
L 186.467978 132.716816 
L 187.414492 132.716816 
L 188.361007 143.606616 
L 191.200551 143.606616 
L 192.147066 143.223095 
L 193.093581 143.223095 
L 194.040095 144.974836 
L 194.98661 144.974836 
L 195.933125 135.984644 
L 196.87964 145.558018 
L 197.826154 145.558018 
L 198.772669 134.479706 
L 200.665698 134.479706 
L 201.612213 145.641093 
L 202.558728 145.641093 
L 203.505243 156.459997 
L 204.451757 156.459997 
L 205.398272 167.449266 
L 206.344787 167.449266 
L 207.291301 165.198591 
L 208.237816 165.198591 
L 209.184331 154.293079 
L 210.130845 154.293079 
L 211.07736 163.544354 
L 212.023875 174.061876 
L 213.916904 174.061876 
L 214.863419 171.130075 
L 215.809934 180.20975 
L 216.756448 180.20975 
L 217.702963 190.70567 
L 219.595993 190.70567 
L 220.542507 190.831785 
L 221.489022 190.831785 
L 222.435537 200.622416 
L 224.328566 200.622416 
L 225.275081 210.336598 
L 226.221596 210.336598 
L 227.16811 219.298883 
L 228.114625 219.298883 
L 229.06114 228.364189 
L 230.007654 227.420714 
L 231.900684 227.420714 
L 232.847199 236.179253 
L 234.740228 236.179253 
L 235.686743 245.267957 
L 236.633257 245.267957 
L 238.526287 266.622938 
L 239.472801 266.622938 
L 240.419316 269.386576 
L 241.365831 269.386576 
L 243.25886 286.967913 
L 244.205375 286.967913 
L 245.15189 295.488 
L 246.098404 295.488 
L 247.044919 285.334951 
L 247.991434 285.334951 
L 248.937949 275.388087 
L 398.487273 275.388087 
L 398.487273 275.388087 
" style="fill:none;stroke:#ff0000;stroke-linecap:square;stroke-width:12;"/>
    <defs>
     <path d="M 0 3 
C 0.795609 3 1.55874 2.683901 2.12132 2.12132 
C 2.683901 1.55874 3 0.795609 3 0 
C 3 -0.795609 2.683901 -1.55874 2.12132 -2.12132 
C 1.55874 -2.683901 0.795609 -3 0 -3 
C -0.795609 -3 -1.55874 -2.683901 -2.12132 -2.12132 
C -2.683901 -1.55874 -3 -0.795609 -3 0 
C -3 0.795609 -2.683901 1.55874 -2.12132 2.12132 
C -1.55874 2.683901 -0.795609 3 0 3 
z
" id="m89adb76382" style="stroke:#ff0000;"/>
    </defs>
    <g clip-path="url(#p1cefa7a01f)">
     <use style="fill:#ff0000;stroke:#ff0000;" x="73.832727" xlink:href="#m89adb76382" y="129.443993"/>
     <use style="fill:#ff0000;stroke:#ff0000;" x="74.779242" xlink:href="#m89adb76382" y="160.991416"/>
     <use style="fill:#ff0000;stroke:#ff0000;" x="75.725757" xlink:href="#m89adb76382" y="160.991416"/>
     <use style="fill:#ff0000;stroke:#ff0000;" x="76.672271" xlink:href="#m89adb76382" y="130.096119"/>
     <use style="fill:#ff0000;stroke:#ff0000;" x="77.618786" xlink:href="#m89adb76382" y="130.096119"/>
     <use style="fill:#ff0000;stroke:#ff0000;" x="78.565301" xlink:href="#m89adb76382" y="99.867654"/>
     <use style="fill:#ff0000;stroke:#ff0000;" x="79.511816" xlink:href="#m89adb76382" y="99.867654"/>
     <use style="fill:#ff0000;stroke:#ff0000;" x="80.45833" xlink:href="#m89adb76382" y="99.867654"/>
     <use style="fill:#ff0000;stroke:#ff0000;" x="81.404845" xlink:href="#m89adb76382" y="130.760769"/>
     <use style="fill:#ff0000;stroke:#ff0000;" x="82.35136" xlink:href="#m89adb76382" y="130.760769"/>
     <use style="fill:#ff0000;stroke:#ff0000;" x="83.297874" xlink:href="#m89adb76382" y="101.100061"/>
     <use style="fill:#ff0000;stroke:#ff0000;" x="84.244389" xlink:href="#m89adb76382" y="101.100061"/>
     <use style="fill:#ff0000;stroke:#ff0000;" x="85.190904" xlink:href="#m89adb76382" y="101.100061"/>
     <use style="fill:#ff0000;stroke:#ff0000;" x="86.137418" xlink:href="#m89adb76382" y="134.44772"/>
     <use style="fill:#ff0000;stroke:#ff0000;" x="87.083933" xlink:href="#m89adb76382" y="134.44772"/>
     <use style="fill:#ff0000;stroke:#ff0000;" x="88.030448" xlink:href="#m89adb76382" y="166.501856"/>
     <use style="fill:#ff0000;stroke:#ff0000;" x="88.976963" xlink:href="#m89adb76382" y="166.501856"/>
     <use style="fill:#ff0000;stroke:#ff0000;" x="89.923477" xlink:href="#m89adb76382" y="136.295104"/>
     <use style="fill:#ff0000;stroke:#ff0000;" x="90.869992" xlink:href="#m89adb76382" y="104.190915"/>
     <use style="fill:#ff0000;stroke:#ff0000;" x="91.816507" xlink:href="#m89adb76382" y="104.190915"/>
     <use style="fill:#ff0000;stroke:#ff0000;" x="92.763021" xlink:href="#m89adb76382" y="104.190915"/>
     <use style="fill:#ff0000;stroke:#ff0000;" x="93.709536" xlink:href="#m89adb76382" y="104.190915"/>
     <use style="fill:#ff0000;stroke:#ff0000;" x="94.656051" xlink:href="#m89adb76382" y="72.209873"/>
     <use style="fill:#ff0000;stroke:#ff0000;" x="95.602566" xlink:href="#m89adb76382" y="72.209873"/>
     <use style="fill:#ff0000;stroke:#ff0000;" x="96.54908" xlink:href="#m89adb76382" y="74.672352"/>
     <use style="fill:#ff0000;stroke:#ff0000;" x="97.495595" xlink:href="#m89adb76382" y="74.672352"/>
     <use style="fill:#ff0000;stroke:#ff0000;" x="98.44211" xlink:href="#m89adb76382" y="74.672352"/>
     <use style="fill:#ff0000;stroke:#ff0000;" x="99.388624" xlink:href="#m89adb76382" y="77.195376"/>
     <use style="fill:#ff0000;stroke:#ff0000;" x="100.335139" xlink:href="#m89adb76382" y="77.195376"/>
     <use style="fill:#ff0000;stroke:#ff0000;" x="101.281654" xlink:href="#m89adb76382" y="88.171337"/>
     <use style="fill:#ff0000;stroke:#ff0000;" x="102.228169" xlink:href="#m89adb76382" y="88.171337"/>
     <use style="fill:#ff0000;stroke:#ff0000;" x="103.174683" xlink:href="#m89adb76382" y="78.402615"/>
     <use style="fill:#ff0000;stroke:#ff0000;" x="104.121198" xlink:href="#m89adb76382" y="90.107565"/>
     <use style="fill:#ff0000;stroke:#ff0000;" x="105.067713" xlink:href="#m89adb76382" y="90.107565"/>
     <use style="fill:#ff0000;stroke:#ff0000;" x="106.014227" xlink:href="#m89adb76382" y="90.107565"/>
     <use style="fill:#ff0000;stroke:#ff0000;" x="106.960742" xlink:href="#m89adb76382" y="90.107565"/>
     <use style="fill:#ff0000;stroke:#ff0000;" x="107.907257" xlink:href="#m89adb76382" y="87.949386"/>
     <use style="fill:#ff0000;stroke:#ff0000;" x="108.853772" xlink:href="#m89adb76382" y="87.949386"/>
     <use style="fill:#ff0000;stroke:#ff0000;" x="109.800286" xlink:href="#m89adb76382" y="88.281446"/>
     <use style="fill:#ff0000;stroke:#ff0000;" x="110.746801" xlink:href="#m89adb76382" y="88.281446"/>
     <use style="fill:#ff0000;stroke:#ff0000;" x="111.693316" xlink:href="#m89adb76382" y="88.281446"/>
     <use style="fill:#ff0000;stroke:#ff0000;" x="112.63983" xlink:href="#m89adb76382" y="77.374389"/>
     <use style="fill:#ff0000;stroke:#ff0000;" x="113.586345" xlink:href="#m89adb76382" y="77.374389"/>
     <use style="fill:#ff0000;stroke:#ff0000;" x="114.53286" xlink:href="#m89adb76382" y="77.374389"/>
     <use style="fill:#ff0000;stroke:#ff0000;" x="115.479375" xlink:href="#m89adb76382" y="77.159704"/>
     <use style="fill:#ff0000;stroke:#ff0000;" x="116.425889" xlink:href="#m89adb76382" y="66.542765"/>
     <use style="fill:#ff0000;stroke:#ff0000;" x="117.372404" xlink:href="#m89adb76382" y="66.542765"/>
     <use style="fill:#ff0000;stroke:#ff0000;" x="118.318919" xlink:href="#m89adb76382" y="64.864009"/>
     <use style="fill:#ff0000;stroke:#ff0000;" x="119.265433" xlink:href="#m89adb76382" y="64.864009"/>
     <use style="fill:#ff0000;stroke:#ff0000;" x="120.211948" xlink:href="#m89adb76382" y="55.567204"/>
     <use style="fill:#ff0000;stroke:#ff0000;" x="121.158463" xlink:href="#m89adb76382" y="55.567204"/>
     <use style="fill:#ff0000;stroke:#ff0000;" x="122.104977" xlink:href="#m89adb76382" y="53.638296"/>
     <use style="fill:#ff0000;stroke:#ff0000;" x="123.051492" xlink:href="#m89adb76382" y="55.351736"/>
     <use style="fill:#ff0000;stroke:#ff0000;" x="123.998007" xlink:href="#m89adb76382" y="55.351736"/>
     <use style="fill:#ff0000;stroke:#ff0000;" x="124.944522" xlink:href="#m89adb76382" y="55.351736"/>
     <use style="fill:#ff0000;stroke:#ff0000;" x="125.891036" xlink:href="#m89adb76382" y="53.568"/>
     <use style="fill:#ff0000;stroke:#ff0000;" x="126.837551" xlink:href="#m89adb76382" y="53.568"/>
     <use style="fill:#ff0000;stroke:#ff0000;" x="127.784066" xlink:href="#m89adb76382" y="63.461925"/>
     <use style="fill:#ff0000;stroke:#ff0000;" x="128.73058" xlink:href="#m89adb76382" y="66.901372"/>
     <use style="fill:#ff0000;stroke:#ff0000;" x="129.677095" xlink:href="#m89adb76382" y="66.901372"/>
     <use style="fill:#ff0000;stroke:#ff0000;" x="130.62361" xlink:href="#m89adb76382" y="66.901372"/>
     <use style="fill:#ff0000;stroke:#ff0000;" x="131.570125" xlink:href="#m89adb76382" y="76.504464"/>
     <use style="fill:#ff0000;stroke:#ff0000;" x="132.516639" xlink:href="#m89adb76382" y="78.055813"/>
     <use style="fill:#ff0000;stroke:#ff0000;" x="133.463154" xlink:href="#m89adb76382" y="78.055813"/>
     <use style="fill:#ff0000;stroke:#ff0000;" x="134.409669" xlink:href="#m89adb76382" y="78.055813"/>
     <use style="fill:#ff0000;stroke:#ff0000;" x="135.356183" xlink:href="#m89adb76382" y="78.055813"/>
     <use style="fill:#ff0000;stroke:#ff0000;" x="136.302698" xlink:href="#m89adb76382" y="89.312391"/>
     <use style="fill:#ff0000;stroke:#ff0000;" x="137.249213" xlink:href="#m89adb76382" y="89.312391"/>
     <use style="fill:#ff0000;stroke:#ff0000;" x="138.195728" xlink:href="#m89adb76382" y="89.312391"/>
     <use style="fill:#ff0000;stroke:#ff0000;" x="139.142242" xlink:href="#m89adb76382" y="88.847774"/>
     <use style="fill:#ff0000;stroke:#ff0000;" x="140.088757" xlink:href="#m89adb76382" y="88.847774"/>
     <use style="fill:#ff0000;stroke:#ff0000;" x="141.035272" xlink:href="#m89adb76382" y="79.069502"/>
     <use style="fill:#ff0000;stroke:#ff0000;" x="141.981786" xlink:href="#m89adb76382" y="79.069502"/>
     <use style="fill:#ff0000;stroke:#ff0000;" x="142.928301" xlink:href="#m89adb76382" y="79.105808"/>
     <use style="fill:#ff0000;stroke:#ff0000;" x="143.874816" xlink:href="#m89adb76382" y="68.668142"/>
     <use style="fill:#ff0000;stroke:#ff0000;" x="144.821331" xlink:href="#m89adb76382" y="68.668142"/>
     <use style="fill:#ff0000;stroke:#ff0000;" x="145.767845" xlink:href="#m89adb76382" y="80.365872"/>
     <use style="fill:#ff0000;stroke:#ff0000;" x="146.71436" xlink:href="#m89adb76382" y="80.365872"/>
     <use style="fill:#ff0000;stroke:#ff0000;" x="147.660875" xlink:href="#m89adb76382" y="80.365872"/>
     <use style="fill:#ff0000;stroke:#ff0000;" x="148.607389" xlink:href="#m89adb76382" y="90.761341"/>
     <use style="fill:#ff0000;stroke:#ff0000;" x="149.553904" xlink:href="#m89adb76382" y="80.859139"/>
     <use style="fill:#ff0000;stroke:#ff0000;" x="150.500419" xlink:href="#m89adb76382" y="80.859139"/>
     <use style="fill:#ff0000;stroke:#ff0000;" x="151.446933" xlink:href="#m89adb76382" y="80.859139"/>
     <use style="fill:#ff0000;stroke:#ff0000;" x="152.393448" xlink:href="#m89adb76382" y="80.859139"/>
     <use style="fill:#ff0000;stroke:#ff0000;" x="153.339963" xlink:href="#m89adb76382" y="80.859139"/>
     <use style="fill:#ff0000;stroke:#ff0000;" x="154.286478" xlink:href="#m89adb76382" y="91.882854"/>
     <use style="fill:#ff0000;stroke:#ff0000;" x="155.232992" xlink:href="#m89adb76382" y="91.882854"/>
     <use style="fill:#ff0000;stroke:#ff0000;" x="156.179507" xlink:href="#m89adb76382" y="93.720852"/>
     <use style="fill:#ff0000;stroke:#ff0000;" x="157.126022" xlink:href="#m89adb76382" y="93.720852"/>
     <use style="fill:#ff0000;stroke:#ff0000;" x="158.072536" xlink:href="#m89adb76382" y="104.020137"/>
     <use style="fill:#ff0000;stroke:#ff0000;" x="159.019051" xlink:href="#m89adb76382" y="104.020137"/>
     <use style="fill:#ff0000;stroke:#ff0000;" x="159.965566" xlink:href="#m89adb76382" y="104.020137"/>
     <use style="fill:#ff0000;stroke:#ff0000;" x="160.912081" xlink:href="#m89adb76382" y="94.704402"/>
     <use style="fill:#ff0000;stroke:#ff0000;" x="161.858595" xlink:href="#m89adb76382" y="94.704402"/>
     <use style="fill:#ff0000;stroke:#ff0000;" x="162.80511" xlink:href="#m89adb76382" y="104.602609"/>
     <use style="fill:#ff0000;stroke:#ff0000;" x="163.751625" xlink:href="#m89adb76382" y="104.602609"/>
     <use style="fill:#ff0000;stroke:#ff0000;" x="164.698139" xlink:href="#m89adb76382" y="104.602609"/>
     <use style="fill:#ff0000;stroke:#ff0000;" x="165.644654" xlink:href="#m89adb76382" y="94.767302"/>
     <use style="fill:#ff0000;stroke:#ff0000;" x="166.591169" xlink:href="#m89adb76382" y="94.767302"/>
     <use style="fill:#ff0000;stroke:#ff0000;" x="167.537684" xlink:href="#m89adb76382" y="94.767302"/>
     <use style="fill:#ff0000;stroke:#ff0000;" x="168.484198" xlink:href="#m89adb76382" y="105.312714"/>
     <use style="fill:#ff0000;stroke:#ff0000;" x="169.430713" xlink:href="#m89adb76382" y="114.174521"/>
     <use style="fill:#ff0000;stroke:#ff0000;" x="170.377228" xlink:href="#m89adb76382" y="114.174521"/>
     <use style="fill:#ff0000;stroke:#ff0000;" x="171.323742" xlink:href="#m89adb76382" y="124.920664"/>
     <use style="fill:#ff0000;stroke:#ff0000;" x="172.270257" xlink:href="#m89adb76382" y="124.920664"/>
     <use style="fill:#ff0000;stroke:#ff0000;" x="173.216772" xlink:href="#m89adb76382" y="122.081149"/>
     <use style="fill:#ff0000;stroke:#ff0000;" x="174.163287" xlink:href="#m89adb76382" y="122.081149"/>
     <use style="fill:#ff0000;stroke:#ff0000;" x="175.109801" xlink:href="#m89adb76382" y="132.828562"/>
     <use style="fill:#ff0000;stroke:#ff0000;" x="176.056316" xlink:href="#m89adb76382" y="132.828562"/>
     <use style="fill:#ff0000;stroke:#ff0000;" x="177.002831" xlink:href="#m89adb76382" y="132.828562"/>
     <use style="fill:#ff0000;stroke:#ff0000;" x="177.949345" xlink:href="#m89adb76382" y="132.828562"/>
     <use style="fill:#ff0000;stroke:#ff0000;" x="178.89586" xlink:href="#m89adb76382" y="132.828562"/>
     <use style="fill:#ff0000;stroke:#ff0000;" x="179.842375" xlink:href="#m89adb76382" y="132.828562"/>
     <use style="fill:#ff0000;stroke:#ff0000;" x="180.788889" xlink:href="#m89adb76382" y="132.828562"/>
     <use style="fill:#ff0000;stroke:#ff0000;" x="181.735404" xlink:href="#m89adb76382" y="132.828562"/>
     <use style="fill:#ff0000;stroke:#ff0000;" x="182.681919" xlink:href="#m89adb76382" y="132.828562"/>
     <use style="fill:#ff0000;stroke:#ff0000;" x="183.628434" xlink:href="#m89adb76382" y="132.828562"/>
     <use style="fill:#ff0000;stroke:#ff0000;" x="184.574948" xlink:href="#m89adb76382" y="132.828562"/>
     <use style="fill:#ff0000;stroke:#ff0000;" x="185.521463" xlink:href="#m89adb76382" y="122.211792"/>
     <use style="fill:#ff0000;stroke:#ff0000;" x="186.467978" xlink:href="#m89adb76382" y="132.716816"/>
     <use style="fill:#ff0000;stroke:#ff0000;" x="187.414492" xlink:href="#m89adb76382" y="132.716816"/>
     <use style="fill:#ff0000;stroke:#ff0000;" x="188.361007" xlink:href="#m89adb76382" y="143.606616"/>
     <use style="fill:#ff0000;stroke:#ff0000;" x="189.307522" xlink:href="#m89adb76382" y="143.606616"/>
     <use style="fill:#ff0000;stroke:#ff0000;" x="190.254037" xlink:href="#m89adb76382" y="143.606616"/>
     <use style="fill:#ff0000;stroke:#ff0000;" x="191.200551" xlink:href="#m89adb76382" y="143.606616"/>
     <use style="fill:#ff0000;stroke:#ff0000;" x="192.147066" xlink:href="#m89adb76382" y="143.223095"/>
     <use style="fill:#ff0000;stroke:#ff0000;" x="193.093581" xlink:href="#m89adb76382" y="143.223095"/>
     <use style="fill:#ff0000;stroke:#ff0000;" x="194.040095" xlink:href="#m89adb76382" y="144.974836"/>
     <use style="fill:#ff0000;stroke:#ff0000;" x="194.98661" xlink:href="#m89adb76382" y="144.974836"/>
     <use style="fill:#ff0000;stroke:#ff0000;" x="195.933125" xlink:href="#m89adb76382" y="135.984644"/>
     <use style="fill:#ff0000;stroke:#ff0000;" x="196.87964" xlink:href="#m89adb76382" y="145.558018"/>
     <use style="fill:#ff0000;stroke:#ff0000;" x="197.826154" xlink:href="#m89adb76382" y="145.558018"/>
     <use style="fill:#ff0000;stroke:#ff0000;" x="198.772669" xlink:href="#m89adb76382" y="134.479706"/>
     <use style="fill:#ff0000;stroke:#ff0000;" x="199.719184" xlink:href="#m89adb76382" y="134.479706"/>
     <use style="fill:#ff0000;stroke:#ff0000;" x="200.665698" xlink:href="#m89adb76382" y="134.479706"/>
     <use style="fill:#ff0000;stroke:#ff0000;" x="201.612213" xlink:href="#m89adb76382" y="145.641093"/>
     <use style="fill:#ff0000;stroke:#ff0000;" x="202.558728" xlink:href="#m89adb76382" y="145.641093"/>
     <use style="fill:#ff0000;stroke:#ff0000;" x="203.505243" xlink:href="#m89adb76382" y="156.459997"/>
     <use style="fill:#ff0000;stroke:#ff0000;" x="204.451757" xlink:href="#m89adb76382" y="156.459997"/>
     <use style="fill:#ff0000;stroke:#ff0000;" x="205.398272" xlink:href="#m89adb76382" y="167.449266"/>
     <use style="fill:#ff0000;stroke:#ff0000;" x="206.344787" xlink:href="#m89adb76382" y="167.449266"/>
     <use style="fill:#ff0000;stroke:#ff0000;" x="207.291301" xlink:href="#m89adb76382" y="165.198591"/>
     <use style="fill:#ff0000;stroke:#ff0000;" x="208.237816" xlink:href="#m89adb76382" y="165.198591"/>
     <use style="fill:#ff0000;stroke:#ff0000;" x="209.184331" xlink:href="#m89adb76382" y="154.293079"/>
     <use style="fill:#ff0000;stroke:#ff0000;" x="210.130845" xlink:href="#m89adb76382" y="154.293079"/>
     <use style="fill:#ff0000;stroke:#ff0000;" x="211.07736" xlink:href="#m89adb76382" y="163.544354"/>
     <use style="fill:#ff0000;stroke:#ff0000;" x="212.023875" xlink:href="#m89adb76382" y="174.061876"/>
     <use style="fill:#ff0000;stroke:#ff0000;" x="212.97039" xlink:href="#m89adb76382" y="174.061876"/>
     <use style="fill:#ff0000;stroke:#ff0000;" x="213.916904" xlink:href="#m89adb76382" y="174.061876"/>
     <use style="fill:#ff0000;stroke:#ff0000;" x="214.863419" xlink:href="#m89adb76382" y="171.130075"/>
     <use style="fill:#ff0000;stroke:#ff0000;" x="215.809934" xlink:href="#m89adb76382" y="180.20975"/>
     <use style="fill:#ff0000;stroke:#ff0000;" x="216.756448" xlink:href="#m89adb76382" y="180.20975"/>
     <use style="fill:#ff0000;stroke:#ff0000;" x="217.702963" xlink:href="#m89adb76382" y="190.70567"/>
     <use style="fill:#ff0000;stroke:#ff0000;" x="218.649478" xlink:href="#m89adb76382" y="190.70567"/>
     <use style="fill:#ff0000;stroke:#ff0000;" x="219.595993" xlink:href="#m89adb76382" y="190.70567"/>
     <use style="fill:#ff0000;stroke:#ff0000;" x="220.542507" xlink:href="#m89adb76382" y="190.831785"/>
     <use style="fill:#ff0000;stroke:#ff0000;" x="221.489022" xlink:href="#m89adb76382" y="190.831785"/>
     <use style="fill:#ff0000;stroke:#ff0000;" x="222.435537" xlink:href="#m89adb76382" y="200.622416"/>
     <use style="fill:#ff0000;stroke:#ff0000;" x="223.382051" xlink:href="#m89adb76382" y="200.622416"/>
     <use style="fill:#ff0000;stroke:#ff0000;" x="224.328566" xlink:href="#m89adb76382" y="200.622416"/>
     <use style="fill:#ff0000;stroke:#ff0000;" x="225.275081" xlink:href="#m89adb76382" y="210.336598"/>
     <use style="fill:#ff0000;stroke:#ff0000;" x="226.221596" xlink:href="#m89adb76382" y="210.336598"/>
     <use style="fill:#ff0000;stroke:#ff0000;" x="227.16811" xlink:href="#m89adb76382" y="219.298883"/>
     <use style="fill:#ff0000;stroke:#ff0000;" x="228.114625" xlink:href="#m89adb76382" y="219.298883"/>
     <use style="fill:#ff0000;stroke:#ff0000;" x="229.06114" xlink:href="#m89adb76382" y="228.364189"/>
     <use style="fill:#ff0000;stroke:#ff0000;" x="230.007654" xlink:href="#m89adb76382" y="227.420714"/>
     <use style="fill:#ff0000;stroke:#ff0000;" x="230.954169" xlink:href="#m89adb76382" y="227.420714"/>
     <use style="fill:#ff0000;stroke:#ff0000;" x="231.900684" xlink:href="#m89adb76382" y="227.420714"/>
     <use style="fill:#ff0000;stroke:#ff0000;" x="232.847199" xlink:href="#m89adb76382" y="236.179253"/>
     <use style="fill:#ff0000;stroke:#ff0000;" x="233.793713" xlink:href="#m89adb76382" y="236.179253"/>
     <use style="fill:#ff0000;stroke:#ff0000;" x="234.740228" xlink:href="#m89adb76382" y="236.179253"/>
     <use style="fill:#ff0000;stroke:#ff0000;" x="235.686743" xlink:href="#m89adb76382" y="245.267957"/>
     <use style="fill:#ff0000;stroke:#ff0000;" x="236.633257" xlink:href="#m89adb76382" y="245.267957"/>
     <use style="fill:#ff0000;stroke:#ff0000;" x="237.579772" xlink:href="#m89adb76382" y="255.778609"/>
     <use style="fill:#ff0000;stroke:#ff0000;" x="238.526287" xlink:href="#m89adb76382" y="266.622938"/>
     <use style="fill:#ff0000;stroke:#ff0000;" x="239.472801" xlink:href="#m89adb76382" y="266.622938"/>
     <use style="fill:#ff0000;stroke:#ff0000;" x="240.419316" xlink:href="#m89adb76382" y="269.386576"/>
     <use style="fill:#ff0000;stroke:#ff0000;" x="241.365831" xlink:href="#m89adb76382" y="269.386576"/>
     <use style="fill:#ff0000;stroke:#ff0000;" x="242.312346" xlink:href="#m89adb76382" y="278.120819"/>
     <use style="fill:#ff0000;stroke:#ff0000;" x="243.25886" xlink:href="#m89adb76382" y="286.967913"/>
     <use style="fill:#ff0000;stroke:#ff0000;" x="244.205375" xlink:href="#m89adb76382" y="286.967913"/>
     <use style="fill:#ff0000;stroke:#ff0000;" x="245.15189" xlink:href="#m89adb76382" y="295.488"/>
     <use style="fill:#ff0000;stroke:#ff0000;" x="246.098404" xlink:href="#m89adb76382" y="295.488"/>
     <use style="fill:#ff0000;stroke:#ff0000;" x="247.044919" xlink:href="#m89adb76382" y="285.334951"/>
     <use style="fill:#ff0000;stroke:#ff0000;" x="247.991434" xlink:href="#m89adb76382" y="285.334951"/>
     <use style="fill:#ff0000;stroke:#ff0000;" x="248.937949" xlink:href="#m89adb76382" y="275.388087"/>
     <use style="fill:#ff0000;stroke:#ff0000;" x="249.884463" xlink:href="#m89adb76382" y="275.388087"/>
     <use style="fill:#ff0000;stroke:#ff0000;" x="250.830978" xlink:href="#m89adb76382" y="275.388087"/>
     <use style="fill:#ff0000;stroke:#ff0000;" x="251.777493" xlink:href="#m89adb76382" y="275.388087"/>
     <use style="fill:#ff0000;stroke:#ff0000;" x="252.724007" xlink:href="#m89adb76382" y="275.388087"/>
     <use style="fill:#ff0000;stroke:#ff0000;" x="253.670522" xlink:href="#m89adb76382" y="275.388087"/>
     <use style="fill:#ff0000;stroke:#ff0000;" x="254.617037" xlink:href="#m89adb76382" y="275.388087"/>
     <use style="fill:#ff0000;stroke:#ff0000;" x="255.563552" xlink:href="#m89adb76382" y="275.388087"/>
     <use style="fill:#ff0000;stroke:#ff0000;" x="256.510066" xlink:href="#m89adb76382" y="275.388087"/>
     <use style="fill:#ff0000;stroke:#ff0000;" x="257.456581" xlink:href="#m89adb76382" y="275.388087"/>
     <use style="fill:#ff0000;stroke:#ff0000;" x="258.403096" xlink:href="#m89adb76382" y="275.388087"/>
     <use style="fill:#ff0000;stroke:#ff0000;" x="259.34961" xlink:href="#m89adb76382" y="275.388087"/>
     <use style="fill:#ff0000;stroke:#ff0000;" x="260.296125" xlink:href="#m89adb76382" y="275.388087"/>
     <use style="fill:#ff0000;stroke:#ff0000;" x="261.24264" xlink:href="#m89adb76382" y="275.388087"/>
     <use style="fill:#ff0000;stroke:#ff0000;" x="262.189155" xlink:href="#m89adb76382" y="275.388087"/>
     <use style="fill:#ff0000;stroke:#ff0000;" x="263.135669" xlink:href="#m89adb76382" y="275.388087"/>
     <use style="fill:#ff0000;stroke:#ff0000;" x="264.082184" xlink:href="#m89adb76382" y="275.388087"/>
     <use style="fill:#ff0000;stroke:#ff0000;" x="265.028699" xlink:href="#m89adb76382" y="275.388087"/>
     <use style="fill:#ff0000;stroke:#ff0000;" x="265.975213" xlink:href="#m89adb76382" y="275.388087"/>
     <use style="fill:#ff0000;stroke:#ff0000;" x="266.921728" xlink:href="#m89adb76382" y="275.388087"/>
     <use style="fill:#ff0000;stroke:#ff0000;" x="267.868243" xlink:href="#m89adb76382" y="275.388087"/>
     <use style="fill:#ff0000;stroke:#ff0000;" x="268.814757" xlink:href="#m89adb76382" y="275.388087"/>
     <use style="fill:#ff0000;stroke:#ff0000;" x="269.761272" xlink:href="#m89adb76382" y="275.388087"/>
     <use style="fill:#ff0000;stroke:#ff0000;" x="270.707787" xlink:href="#m89adb76382" y="275.388087"/>
     <use style="fill:#ff0000;stroke:#ff0000;" x="271.654302" xlink:href="#m89adb76382" y="275.388087"/>
     <use style="fill:#ff0000;stroke:#ff0000;" x="272.600816" xlink:href="#m89adb76382" y="275.388087"/>
     <use style="fill:#ff0000;stroke:#ff0000;" x="273.547331" xlink:href="#m89adb76382" y="275.388087"/>
     <use style="fill:#ff0000;stroke:#ff0000;" x="274.493846" xlink:href="#m89adb76382" y="275.388087"/>
     <use style="fill:#ff0000;stroke:#ff0000;" x="275.44036" xlink:href="#m89adb76382" y="275.388087"/>
     <use style="fill:#ff0000;stroke:#ff0000;" x="276.386875" xlink:href="#m89adb76382" y="275.388087"/>
     <use style="fill:#ff0000;stroke:#ff0000;" x="277.33339" xlink:href="#m89adb76382" y="275.388087"/>
     <use style="fill:#ff0000;stroke:#ff0000;" x="278.279905" xlink:href="#m89adb76382" y="275.388087"/>
     <use style="fill:#ff0000;stroke:#ff0000;" x="279.226419" xlink:href="#m89adb76382" y="275.388087"/>
     <use style="fill:#ff0000;stroke:#ff0000;" x="280.172934" xlink:href="#m89adb76382" y="275.388087"/>
     <use style="fill:#ff0000;stroke:#ff0000;" x="281.119449" xlink:href="#m89adb76382" y="275.388087"/>
     <use style="fill:#ff0000;stroke:#ff0000;" x="282.065963" xlink:href="#m89adb76382" y="275.388087"/>
     <use style="fill:#ff0000;stroke:#ff0000;" x="283.012478" xlink:href="#m89adb76382" y="275.388087"/>
     <use style="fill:#ff0000;stroke:#ff0000;" x="283.958993" xlink:href="#m89adb76382" y="275.388087"/>
     <use style="fill:#ff0000;stroke:#ff0000;" x="284.905508" xlink:href="#m89adb76382" y="275.388087"/>
     <use style="fill:#ff0000;stroke:#ff0000;" x="285.852022" xlink:href="#m89adb76382" y="275.388087"/>
     <use style="fill:#ff0000;stroke:#ff0000;" x="286.798537" xlink:href="#m89adb76382" y="275.388087"/>
     <use style="fill:#ff0000;stroke:#ff0000;" x="287.745052" xlink:href="#m89adb76382" y="275.388087"/>
     <use style="fill:#ff0000;stroke:#ff0000;" x="288.691566" xlink:href="#m89adb76382" y="275.388087"/>
     <use style="fill:#ff0000;stroke:#ff0000;" x="289.638081" xlink:href="#m89adb76382" y="275.388087"/>
     <use style="fill:#ff0000;stroke:#ff0000;" x="290.584596" xlink:href="#m89adb76382" y="275.388087"/>
     <use style="fill:#ff0000;stroke:#ff0000;" x="291.531111" xlink:href="#m89adb76382" y="275.388087"/>
     <use style="fill:#ff0000;stroke:#ff0000;" x="292.477625" xlink:href="#m89adb76382" y="275.388087"/>
     <use style="fill:#ff0000;stroke:#ff0000;" x="293.42414" xlink:href="#m89adb76382" y="275.388087"/>
     <use style="fill:#ff0000;stroke:#ff0000;" x="294.370655" xlink:href="#m89adb76382" y="275.388087"/>
     <use style="fill:#ff0000;stroke:#ff0000;" x="295.317169" xlink:href="#m89adb76382" y="275.388087"/>
     <use style="fill:#ff0000;stroke:#ff0000;" x="296.263684" xlink:href="#m89adb76382" y="275.388087"/>
     <use style="fill:#ff0000;stroke:#ff0000;" x="297.210199" xlink:href="#m89adb76382" y="275.388087"/>
     <use style="fill:#ff0000;stroke:#ff0000;" x="298.156713" xlink:href="#m89adb76382" y="275.388087"/>
     <use style="fill:#ff0000;stroke:#ff0000;" x="299.103228" xlink:href="#m89adb76382" y="275.388087"/>
     <use style="fill:#ff0000;stroke:#ff0000;" x="300.049743" xlink:href="#m89adb76382" y="275.388087"/>
     <use style="fill:#ff0000;stroke:#ff0000;" x="300.996258" xlink:href="#m89adb76382" y="275.388087"/>
     <use style="fill:#ff0000;stroke:#ff0000;" x="301.942772" xlink:href="#m89adb76382" y="275.388087"/>
     <use style="fill:#ff0000;stroke:#ff0000;" x="302.889287" xlink:href="#m89adb76382" y="275.388087"/>
     <use style="fill:#ff0000;stroke:#ff0000;" x="303.835802" xlink:href="#m89adb76382" y="275.388087"/>
     <use style="fill:#ff0000;stroke:#ff0000;" x="304.782316" xlink:href="#m89adb76382" y="275.388087"/>
     <use style="fill:#ff0000;stroke:#ff0000;" x="305.728831" xlink:href="#m89adb76382" y="275.388087"/>
     <use style="fill:#ff0000;stroke:#ff0000;" x="306.675346" xlink:href="#m89adb76382" y="275.388087"/>
     <use style="fill:#ff0000;stroke:#ff0000;" x="307.621861" xlink:href="#m89adb76382" y="275.388087"/>
     <use style="fill:#ff0000;stroke:#ff0000;" x="308.568375" xlink:href="#m89adb76382" y="275.388087"/>
     <use style="fill:#ff0000;stroke:#ff0000;" x="309.51489" xlink:href="#m89adb76382" y="275.388087"/>
     <use style="fill:#ff0000;stroke:#ff0000;" x="310.461405" xlink:href="#m89adb76382" y="275.388087"/>
     <use style="fill:#ff0000;stroke:#ff0000;" x="311.407919" xlink:href="#m89adb76382" y="275.388087"/>
     <use style="fill:#ff0000;stroke:#ff0000;" x="312.354434" xlink:href="#m89adb76382" y="275.388087"/>
     <use style="fill:#ff0000;stroke:#ff0000;" x="313.300949" xlink:href="#m89adb76382" y="275.388087"/>
     <use style="fill:#ff0000;stroke:#ff0000;" x="314.247464" xlink:href="#m89adb76382" y="275.388087"/>
     <use style="fill:#ff0000;stroke:#ff0000;" x="315.193978" xlink:href="#m89adb76382" y="275.388087"/>
     <use style="fill:#ff0000;stroke:#ff0000;" x="316.140493" xlink:href="#m89adb76382" y="275.388087"/>
     <use style="fill:#ff0000;stroke:#ff0000;" x="317.087008" xlink:href="#m89adb76382" y="275.388087"/>
     <use style="fill:#ff0000;stroke:#ff0000;" x="318.033522" xlink:href="#m89adb76382" y="275.388087"/>
     <use style="fill:#ff0000;stroke:#ff0000;" x="318.980037" xlink:href="#m89adb76382" y="275.388087"/>
     <use style="fill:#ff0000;stroke:#ff0000;" x="319.926552" xlink:href="#m89adb76382" y="275.388087"/>
     <use style="fill:#ff0000;stroke:#ff0000;" x="320.873067" xlink:href="#m89adb76382" y="275.388087"/>
     <use style="fill:#ff0000;stroke:#ff0000;" x="321.819581" xlink:href="#m89adb76382" y="275.388087"/>
     <use style="fill:#ff0000;stroke:#ff0000;" x="322.766096" xlink:href="#m89adb76382" y="275.388087"/>
     <use style="fill:#ff0000;stroke:#ff0000;" x="323.712611" xlink:href="#m89adb76382" y="275.388087"/>
     <use style="fill:#ff0000;stroke:#ff0000;" x="324.659125" xlink:href="#m89adb76382" y="275.388087"/>
     <use style="fill:#ff0000;stroke:#ff0000;" x="325.60564" xlink:href="#m89adb76382" y="275.388087"/>
     <use style="fill:#ff0000;stroke:#ff0000;" x="326.552155" xlink:href="#m89adb76382" y="275.388087"/>
     <use style="fill:#ff0000;stroke:#ff0000;" x="327.498669" xlink:href="#m89adb76382" y="275.388087"/>
     <use style="fill:#ff0000;stroke:#ff0000;" x="328.445184" xlink:href="#m89adb76382" y="275.388087"/>
     <use style="fill:#ff0000;stroke:#ff0000;" x="329.391699" xlink:href="#m89adb76382" y="275.388087"/>
     <use style="fill:#ff0000;stroke:#ff0000;" x="330.338214" xlink:href="#m89adb76382" y="275.388087"/>
     <use style="fill:#ff0000;stroke:#ff0000;" x="331.284728" xlink:href="#m89adb76382" y="275.388087"/>
     <use style="fill:#ff0000;stroke:#ff0000;" x="332.231243" xlink:href="#m89adb76382" y="275.388087"/>
     <use style="fill:#ff0000;stroke:#ff0000;" x="333.177758" xlink:href="#m89adb76382" y="275.388087"/>
     <use style="fill:#ff0000;stroke:#ff0000;" x="334.124272" xlink:href="#m89adb76382" y="275.388087"/>
     <use style="fill:#ff0000;stroke:#ff0000;" x="335.070787" xlink:href="#m89adb76382" y="275.388087"/>
     <use style="fill:#ff0000;stroke:#ff0000;" x="336.017302" xlink:href="#m89adb76382" y="275.388087"/>
     <use style="fill:#ff0000;stroke:#ff0000;" x="336.963817" xlink:href="#m89adb76382" y="275.388087"/>
     <use style="fill:#ff0000;stroke:#ff0000;" x="337.910331" xlink:href="#m89adb76382" y="275.388087"/>
     <use style="fill:#ff0000;stroke:#ff0000;" x="338.856846" xlink:href="#m89adb76382" y="275.388087"/>
     <use style="fill:#ff0000;stroke:#ff0000;" x="339.803361" xlink:href="#m89adb76382" y="275.388087"/>
     <use style="fill:#ff0000;stroke:#ff0000;" x="340.749875" xlink:href="#m89adb76382" y="275.388087"/>
     <use style="fill:#ff0000;stroke:#ff0000;" x="341.69639" xlink:href="#m89adb76382" y="275.388087"/>
     <use style="fill:#ff0000;stroke:#ff0000;" x="342.642905" xlink:href="#m89adb76382" y="275.388087"/>
     <use style="fill:#ff0000;stroke:#ff0000;" x="343.58942" xlink:href="#m89adb76382" y="275.388087"/>
     <use style="fill:#ff0000;stroke:#ff0000;" x="344.535934" xlink:href="#m89adb76382" y="275.388087"/>
     <use style="fill:#ff0000;stroke:#ff0000;" x="345.482449" xlink:href="#m89adb76382" y="275.388087"/>
     <use style="fill:#ff0000;stroke:#ff0000;" x="346.428964" xlink:href="#m89adb76382" y="275.388087"/>
     <use style="fill:#ff0000;stroke:#ff0000;" x="347.375478" xlink:href="#m89adb76382" y="275.388087"/>
     <use style="fill:#ff0000;stroke:#ff0000;" x="348.321993" xlink:href="#m89adb76382" y="275.388087"/>
     <use style="fill:#ff0000;stroke:#ff0000;" x="349.268508" xlink:href="#m89adb76382" y="275.388087"/>
     <use style="fill:#ff0000;stroke:#ff0000;" x="350.215023" xlink:href="#m89adb76382" y="275.388087"/>
     <use style="fill:#ff0000;stroke:#ff0000;" x="351.161537" xlink:href="#m89adb76382" y="275.388087"/>
     <use style="fill:#ff0000;stroke:#ff0000;" x="352.108052" xlink:href="#m89adb76382" y="275.388087"/>
     <use style="fill:#ff0000;stroke:#ff0000;" x="353.054567" xlink:href="#m89adb76382" y="275.388087"/>
     <use style="fill:#ff0000;stroke:#ff0000;" x="354.001081" xlink:href="#m89adb76382" y="275.388087"/>
     <use style="fill:#ff0000;stroke:#ff0000;" x="354.947596" xlink:href="#m89adb76382" y="275.388087"/>
     <use style="fill:#ff0000;stroke:#ff0000;" x="355.894111" xlink:href="#m89adb76382" y="275.388087"/>
     <use style="fill:#ff0000;stroke:#ff0000;" x="356.840625" xlink:href="#m89adb76382" y="275.388087"/>
     <use style="fill:#ff0000;stroke:#ff0000;" x="357.78714" xlink:href="#m89adb76382" y="275.388087"/>
     <use style="fill:#ff0000;stroke:#ff0000;" x="358.733655" xlink:href="#m89adb76382" y="275.388087"/>
     <use style="fill:#ff0000;stroke:#ff0000;" x="359.68017" xlink:href="#m89adb76382" y="275.388087"/>
     <use style="fill:#ff0000;stroke:#ff0000;" x="360.626684" xlink:href="#m89adb76382" y="275.388087"/>
     <use style="fill:#ff0000;stroke:#ff0000;" x="361.573199" xlink:href="#m89adb76382" y="275.388087"/>
     <use style="fill:#ff0000;stroke:#ff0000;" x="362.519714" xlink:href="#m89adb76382" y="275.388087"/>
     <use style="fill:#ff0000;stroke:#ff0000;" x="363.466228" xlink:href="#m89adb76382" y="275.388087"/>
     <use style="fill:#ff0000;stroke:#ff0000;" x="364.412743" xlink:href="#m89adb76382" y="275.388087"/>
     <use style="fill:#ff0000;stroke:#ff0000;" x="365.359258" xlink:href="#m89adb76382" y="275.388087"/>
     <use style="fill:#ff0000;stroke:#ff0000;" x="366.305773" xlink:href="#m89adb76382" y="275.388087"/>
     <use style="fill:#ff0000;stroke:#ff0000;" x="367.252287" xlink:href="#m89adb76382" y="275.388087"/>
     <use style="fill:#ff0000;stroke:#ff0000;" x="368.198802" xlink:href="#m89adb76382" y="275.388087"/>
     <use style="fill:#ff0000;stroke:#ff0000;" x="369.145317" xlink:href="#m89adb76382" y="275.388087"/>
     <use style="fill:#ff0000;stroke:#ff0000;" x="370.091831" xlink:href="#m89adb76382" y="275.388087"/>
     <use style="fill:#ff0000;stroke:#ff0000;" x="371.038346" xlink:href="#m89adb76382" y="275.388087"/>
     <use style="fill:#ff0000;stroke:#ff0000;" x="371.984861" xlink:href="#m89adb76382" y="275.388087"/>
     <use style="fill:#ff0000;stroke:#ff0000;" x="372.931376" xlink:href="#m89adb76382" y="275.388087"/>
     <use style="fill:#ff0000;stroke:#ff0000;" x="373.87789" xlink:href="#m89adb76382" y="275.388087"/>
     <use style="fill:#ff0000;stroke:#ff0000;" x="374.824405" xlink:href="#m89adb76382" y="275.388087"/>
     <use style="fill:#ff0000;stroke:#ff0000;" x="375.77092" xlink:href="#m89adb76382" y="275.388087"/>
     <use style="fill:#ff0000;stroke:#ff0000;" x="376.717434" xlink:href="#m89adb76382" y="275.388087"/>
     <use style="fill:#ff0000;stroke:#ff0000;" x="377.663949" xlink:href="#m89adb76382" y="275.388087"/>
     <use style="fill:#ff0000;stroke:#ff0000;" x="378.610464" xlink:href="#m89adb76382" y="275.388087"/>
     <use style="fill:#ff0000;stroke:#ff0000;" x="379.556979" xlink:href="#m89adb76382" y="275.388087"/>
     <use style="fill:#ff0000;stroke:#ff0000;" x="380.503493" xlink:href="#m89adb76382" y="275.388087"/>
     <use style="fill:#ff0000;stroke:#ff0000;" x="381.450008" xlink:href="#m89adb76382" y="275.388087"/>
     <use style="fill:#ff0000;stroke:#ff0000;" x="382.396523" xlink:href="#m89adb76382" y="275.388087"/>
     <use style="fill:#ff0000;stroke:#ff0000;" x="383.343037" xlink:href="#m89adb76382" y="275.388087"/>
     <use style="fill:#ff0000;stroke:#ff0000;" x="384.289552" xlink:href="#m89adb76382" y="275.388087"/>
     <use style="fill:#ff0000;stroke:#ff0000;" x="385.236067" xlink:href="#m89adb76382" y="275.388087"/>
     <use style="fill:#ff0000;stroke:#ff0000;" x="386.182582" xlink:href="#m89adb76382" y="275.388087"/>
     <use style="fill:#ff0000;stroke:#ff0000;" x="387.129096" xlink:href="#m89adb76382" y="275.388087"/>
     <use style="fill:#ff0000;stroke:#ff0000;" x="388.075611" xlink:href="#m89adb76382" y="275.388087"/>
     <use style="fill:#ff0000;stroke:#ff0000;" x="389.022126" xlink:href="#m89adb76382" y="275.388087"/>
     <use style="fill:#ff0000;stroke:#ff0000;" x="389.96864" xlink:href="#m89adb76382" y="275.388087"/>
     <use style="fill:#ff0000;stroke:#ff0000;" x="390.915155" xlink:href="#m89adb76382" y="275.388087"/>
     <use style="fill:#ff0000;stroke:#ff0000;" x="391.86167" xlink:href="#m89adb76382" y="275.388087"/>
     <use style="fill:#ff0000;stroke:#ff0000;" x="392.808184" xlink:href="#m89adb76382" y="275.388087"/>
     <use style="fill:#ff0000;stroke:#ff0000;" x="393.754699" xlink:href="#m89adb76382" y="275.388087"/>
     <use style="fill:#ff0000;stroke:#ff0000;" x="394.701214" xlink:href="#m89adb76382" y="275.388087"/>
     <use style="fill:#ff0000;stroke:#ff0000;" x="395.647729" xlink:href="#m89adb76382" y="275.388087"/>
     <use style="fill:#ff0000;stroke:#ff0000;" x="396.594243" xlink:href="#m89adb76382" y="275.388087"/>
     <use style="fill:#ff0000;stroke:#ff0000;" x="397.540758" xlink:href="#m89adb76382" y="275.388087"/>
     <use style="fill:#ff0000;stroke:#ff0000;" x="398.487273" xlink:href="#m89adb76382" y="275.388087"/>
    </g>
   </g>
   <g id="patch_3">
    <path d="M 57.6 307.584 
L 57.6 41.472 
" style="fill:none;stroke:#000000;stroke-linecap:square;stroke-linejoin:miter;stroke-width:0.8;"/>
   </g>
   <g id="patch_4">
    <path d="M 414.72 307.584 
L 414.72 41.472 
" style="fill:none;stroke:#000000;stroke-linecap:square;stroke-linejoin:miter;stroke-width:0.8;"/>
   </g>
   <g id="patch_5">
    <path d="M 57.6 307.584 
L 414.72 307.584 
" style="fill:none;stroke:#000000;stroke-linecap:square;stroke-linejoin:miter;stroke-width:0.8;"/>
   </g>
   <g id="patch_6">
    <path d="M 57.6 41.472 
L 414.72 41.472 
" style="fill:none;stroke:#000000;stroke-linecap:square;stroke-linejoin:miter;stroke-width:0.8;"/>
   </g>
  </g>
 </g>
 <defs>
  <clipPath id="p1cefa7a01f">
   <rect height="266.112" width="357.12" x="57.6" y="41.472"/>
  </clipPath>
 </defs>
</svg>
