<?xml version="1.0" encoding="utf-8" standalone="no"?>
<!DOCTYPE svg PUBLIC "-//W3C//DTD SVG 1.1//EN"
  "http://www.w3.org/Graphics/SVG/1.1/DTD/svg11.dtd">
<!-- Created with matplotlib (https://matplotlib.org/) -->
<svg height="345.6pt" version="1.1" viewBox="0 0 460.8 345.6" width="460.8pt" xmlns="http://www.w3.org/2000/svg" xmlns:xlink="http://www.w3.org/1999/xlink">
 <defs>
  <style type="text/css">
*{stroke-linecap:butt;stroke-linejoin:round;}
  </style>
 </defs>
 <g id="figure_1">
  <g id="patch_1">
   <path d="M 0 345.6 
L 460.8 345.6 
L 460.8 0 
L 0 0 
z
" style="fill:#ffffff;"/>
  </g>
  <g id="axes_1">
   <g id="patch_2">
    <path d="M 57.6 307.584 
L 414.72 307.584 
L 414.72 41.472 
L 57.6 41.472 
z
" style="fill:#ffffff;"/>
   </g>
   <g id="line2d_1">
    <path clip-path="url(#pd5b7b04630)" d="M 73.832727 129.443993 
L 75.401107 160.991416 
L 76.969486 160.991416 
L 78.537866 130.096119 
L 80.106245 130.096119 
L 81.674625 99.867654 
L 84.811383 99.867654 
L 86.379763 130.760769 
L 87.948142 130.760769 
L 89.516522 101.100061 
L 92.653281 101.100061 
L 94.22166 134.44772 
L 95.79004 134.44772 
L 97.358419 166.501856 
L 98.926798 166.501856 
L 102.063557 104.190915 
L 106.768696 104.190915 
L 108.337075 72.209873 
L 109.905455 72.209873 
L 111.473834 74.672352 
L 114.610593 74.672352 
L 116.178972 77.195376 
L 117.747352 77.195376 
L 119.315731 88.171337 
L 120.884111 88.171337 
L 122.45249 78.402615 
L 124.02087 90.107565 
L 128.726008 90.107565 
L 130.294387 87.949386 
L 131.862767 87.949386 
L 133.431146 88.281446 
L 136.567905 88.281446 
L 138.136285 77.374389 
L 141.273043 77.374389 
L 142.841423 77.159704 
L 144.409802 66.542765 
L 145.978182 66.542765 
L 147.546561 64.864009 
L 149.114941 64.864009 
L 150.68332 55.567204 
L 152.2517 55.567204 
L 153.820079 53.638296 
L 155.388458 55.351736 
L 158.525217 55.351736 
L 160.093597 53.568 
L 161.661976 53.568 
L 163.230356 63.461925 
L 164.798735 66.901372 
L 167.935494 66.901372 
L 169.503874 76.504464 
L 171.072253 78.055813 
L 175.777391 78.055813 
L 177.345771 89.312391 
L 180.48253 89.312391 
L 182.050909 88.847774 
L 183.619289 88.847774 
L 185.187668 79.069502 
L 188.324427 79.105808 
L 189.892806 68.668142 
L 191.461186 68.668142 
L 193.029565 80.365872 
L 196.166324 80.365872 
L 197.734704 90.761341 
L 199.303083 80.859139 
L 205.576601 80.859139 
L 207.14498 91.882854 
L 208.71336 91.882854 
L 210.281739 93.720852 
L 211.850119 93.720852 
L 213.418498 104.020137 
L 216.555257 104.020137 
L 218.123636 94.704402 
L 219.692016 94.704402 
L 221.260395 104.602609 
L 224.397154 104.602609 
L 225.965534 94.767302 
L 229.102292 94.767302 
L 230.670672 105.312714 
L 232.239051 114.174521 
L 233.807431 114.174521 
L 235.37581 124.920664 
L 236.94419 124.920664 
L 238.512569 122.081149 
L 240.080949 122.081149 
L 241.649328 132.828562 
L 257.333123 132.828562 
L 258.901502 122.211792 
L 260.469881 132.716816 
L 262.038261 132.716816 
L 263.60664 143.606616 
L 268.311779 143.606616 
L 269.880158 143.223095 
L 271.448538 143.223095 
L 273.016917 144.974836 
L 274.585296 144.974836 
L 276.153676 135.984644 
L 277.722055 145.558018 
L 279.290435 145.558018 
L 280.858814 134.479706 
L 283.995573 134.479706 
L 285.563953 145.641093 
L 287.132332 145.641093 
L 288.700711 156.459997 
L 290.269091 156.459997 
L 291.83747 167.449266 
L 293.40585 167.449266 
L 294.974229 165.198591 
L 296.542609 165.198591 
L 298.110988 154.293079 
L 299.679368 154.293079 
L 301.247747 163.544354 
L 302.816126 174.061876 
L 305.952885 174.061876 
L 307.521265 171.130075 
L 309.089644 180.20975 
L 310.658024 180.20975 
L 312.226403 190.70567 
L 315.363162 190.70567 
L 316.931542 190.831785 
L 318.499921 190.831785 
L 320.0683 200.622416 
L 323.205059 200.622416 
L 324.773439 210.336598 
L 326.341818 210.336598 
L 327.910198 219.298883 
L 329.478577 219.298883 
L 331.046957 228.364189 
L 332.615336 227.420714 
L 335.752095 227.420714 
L 337.320474 236.179253 
L 340.457233 236.179253 
L 342.025613 245.267957 
L 343.593992 245.267957 
L 346.730751 266.622938 
L 348.29913 266.622938 
L 349.86751 269.386576 
L 351.435889 269.386576 
L 354.572648 286.967913 
L 356.141028 286.967913 
L 357.709407 295.488 
L 359.277787 295.488 
L 360.846166 285.334951 
L 362.414545 285.334951 
L 363.982925 275.388087 
L 398.487273 275.388087 
L 398.487273 275.388087 
" style="fill:none;stroke:#ff0000;stroke-linecap:square;stroke-width:12;"/>
    <defs>
     <path d="M 0 3 
C 0.795609 3 1.55874 2.683901 2.12132 2.12132 
C 2.683901 1.55874 3 0.795609 3 0 
C 3 -0.795609 2.683901 -1.55874 2.12132 -2.12132 
C 1.55874 -2.683901 0.795609 -3 0 -3 
C -0.795609 -3 -1.55874 -2.683901 -2.12132 -2.12132 
C -2.683901 -1.55874 -3 -0.795609 -3 0 
C -3 0.795609 -2.683901 1.55874 -2.12132 2.12132 
C -1.55874 2.683901 -0.795609 3 0 3 
z
" id="m35eebc05d9" style="stroke:#ff0000;"/>
    </defs>
    <g clip-path="url(#pd5b7b04630)">
     <use style="fill:#ff0000;stroke:#ff0000;" x="73.832727" xlink:href="#m35eebc05d9" y="129.443993"/>
     <use style="fill:#ff0000;stroke:#ff0000;" x="75.401107" xlink:href="#m35eebc05d9" y="160.991416"/>
     <use style="fill:#ff0000;stroke:#ff0000;" x="76.969486" xlink:href="#m35eebc05d9" y="160.991416"/>
     <use style="fill:#ff0000;stroke:#ff0000;" x="78.537866" xlink:href="#m35eebc05d9" y="130.096119"/>
     <use style="fill:#ff0000;stroke:#ff0000;" x="80.106245" xlink:href="#m35eebc05d9" y="130.096119"/>
     <use style="fill:#ff0000;stroke:#ff0000;" x="81.674625" xlink:href="#m35eebc05d9" y="99.867654"/>
     <use style="fill:#ff0000;stroke:#ff0000;" x="83.243004" xlink:href="#m35eebc05d9" y="99.867654"/>
     <use style="fill:#ff0000;stroke:#ff0000;" x="84.811383" xlink:href="#m35eebc05d9" y="99.867654"/>
     <use style="fill:#ff0000;stroke:#ff0000;" x="86.379763" xlink:href="#m35eebc05d9" y="130.760769"/>
     <use style="fill:#ff0000;stroke:#ff0000;" x="87.948142" xlink:href="#m35eebc05d9" y="130.760769"/>
     <use style="fill:#ff0000;stroke:#ff0000;" x="89.516522" xlink:href="#m35eebc05d9" y="101.100061"/>
     <use style="fill:#ff0000;stroke:#ff0000;" x="91.084901" xlink:href="#m35eebc05d9" y="101.100061"/>
     <use style="fill:#ff0000;stroke:#ff0000;" x="92.653281" xlink:href="#m35eebc05d9" y="101.100061"/>
     <use style="fill:#ff0000;stroke:#ff0000;" x="94.22166" xlink:href="#m35eebc05d9" y="134.44772"/>
     <use style="fill:#ff0000;stroke:#ff0000;" x="95.79004" xlink:href="#m35eebc05d9" y="134.44772"/>
     <use style="fill:#ff0000;stroke:#ff0000;" x="97.358419" xlink:href="#m35eebc05d9" y="166.501856"/>
     <use style="fill:#ff0000;stroke:#ff0000;" x="98.926798" xlink:href="#m35eebc05d9" y="166.501856"/>
     <use style="fill:#ff0000;stroke:#ff0000;" x="100.495178" xlink:href="#m35eebc05d9" y="136.295104"/>
     <use style="fill:#ff0000;stroke:#ff0000;" x="102.063557" xlink:href="#m35eebc05d9" y="104.190915"/>
     <use style="fill:#ff0000;stroke:#ff0000;" x="103.631937" xlink:href="#m35eebc05d9" y="104.190915"/>
     <use style="fill:#ff0000;stroke:#ff0000;" x="105.200316" xlink:href="#m35eebc05d9" y="104.190915"/>
     <use style="fill:#ff0000;stroke:#ff0000;" x="106.768696" xlink:href="#m35eebc05d9" y="104.190915"/>
     <use style="fill:#ff0000;stroke:#ff0000;" x="108.337075" xlink:href="#m35eebc05d9" y="72.209873"/>
     <use style="fill:#ff0000;stroke:#ff0000;" x="109.905455" xlink:href="#m35eebc05d9" y="72.209873"/>
     <use style="fill:#ff0000;stroke:#ff0000;" x="111.473834" xlink:href="#m35eebc05d9" y="74.672352"/>
     <use style="fill:#ff0000;stroke:#ff0000;" x="113.042213" xlink:href="#m35eebc05d9" y="74.672352"/>
     <use style="fill:#ff0000;stroke:#ff0000;" x="114.610593" xlink:href="#m35eebc05d9" y="74.672352"/>
     <use style="fill:#ff0000;stroke:#ff0000;" x="116.178972" xlink:href="#m35eebc05d9" y="77.195376"/>
     <use style="fill:#ff0000;stroke:#ff0000;" x="117.747352" xlink:href="#m35eebc05d9" y="77.195376"/>
     <use style="fill:#ff0000;stroke:#ff0000;" x="119.315731" xlink:href="#m35eebc05d9" y="88.171337"/>
     <use style="fill:#ff0000;stroke:#ff0000;" x="120.884111" xlink:href="#m35eebc05d9" y="88.171337"/>
     <use style="fill:#ff0000;stroke:#ff0000;" x="122.45249" xlink:href="#m35eebc05d9" y="78.402615"/>
     <use style="fill:#ff0000;stroke:#ff0000;" x="124.02087" xlink:href="#m35eebc05d9" y="90.107565"/>
     <use style="fill:#ff0000;stroke:#ff0000;" x="125.589249" xlink:href="#m35eebc05d9" y="90.107565"/>
     <use style="fill:#ff0000;stroke:#ff0000;" x="127.157628" xlink:href="#m35eebc05d9" y="90.107565"/>
     <use style="fill:#ff0000;stroke:#ff0000;" x="128.726008" xlink:href="#m35eebc05d9" y="90.107565"/>
     <use style="fill:#ff0000;stroke:#ff0000;" x="130.294387" xlink:href="#m35eebc05d9" y="87.949386"/>
     <use style="fill:#ff0000;stroke:#ff0000;" x="131.862767" xlink:href="#m35eebc05d9" y="87.949386"/>
     <use style="fill:#ff0000;stroke:#ff0000;" x="133.431146" xlink:href="#m35eebc05d9" y="88.281446"/>
     <use style="fill:#ff0000;stroke:#ff0000;" x="134.999526" xlink:href="#m35eebc05d9" y="88.281446"/>
     <use style="fill:#ff0000;stroke:#ff0000;" x="136.567905" xlink:href="#m35eebc05d9" y="88.281446"/>
     <use style="fill:#ff0000;stroke:#ff0000;" x="138.136285" xlink:href="#m35eebc05d9" y="77.374389"/>
     <use style="fill:#ff0000;stroke:#ff0000;" x="139.704664" xlink:href="#m35eebc05d9" y="77.374389"/>
     <use style="fill:#ff0000;stroke:#ff0000;" x="141.273043" xlink:href="#m35eebc05d9" y="77.374389"/>
     <use style="fill:#ff0000;stroke:#ff0000;" x="142.841423" xlink:href="#m35eebc05d9" y="77.159704"/>
     <use style="fill:#ff0000;stroke:#ff0000;" x="144.409802" xlink:href="#m35eebc05d9" y="66.542765"/>
     <use style="fill:#ff0000;stroke:#ff0000;" x="145.978182" xlink:href="#m35eebc05d9" y="66.542765"/>
     <use style="fill:#ff0000;stroke:#ff0000;" x="147.546561" xlink:href="#m35eebc05d9" y="64.864009"/>
     <use style="fill:#ff0000;stroke:#ff0000;" x="149.114941" xlink:href="#m35eebc05d9" y="64.864009"/>
     <use style="fill:#ff0000;stroke:#ff0000;" x="150.68332" xlink:href="#m35eebc05d9" y="55.567204"/>
     <use style="fill:#ff0000;stroke:#ff0000;" x="152.2517" xlink:href="#m35eebc05d9" y="55.567204"/>
     <use style="fill:#ff0000;stroke:#ff0000;" x="153.820079" xlink:href="#m35eebc05d9" y="53.638296"/>
     <use style="fill:#ff0000;stroke:#ff0000;" x="155.388458" xlink:href="#m35eebc05d9" y="55.351736"/>
     <use style="fill:#ff0000;stroke:#ff0000;" x="156.956838" xlink:href="#m35eebc05d9" y="55.351736"/>
     <use style="fill:#ff0000;stroke:#ff0000;" x="158.525217" xlink:href="#m35eebc05d9" y="55.351736"/>
     <use style="fill:#ff0000;stroke:#ff0000;" x="160.093597" xlink:href="#m35eebc05d9" y="53.568"/>
     <use style="fill:#ff0000;stroke:#ff0000;" x="161.661976" xlink:href="#m35eebc05d9" y="53.568"/>
     <use style="fill:#ff0000;stroke:#ff0000;" x="163.230356" xlink:href="#m35eebc05d9" y="63.461925"/>
     <use style="fill:#ff0000;stroke:#ff0000;" x="164.798735" xlink:href="#m35eebc05d9" y="66.901372"/>
     <use style="fill:#ff0000;stroke:#ff0000;" x="166.367115" xlink:href="#m35eebc05d9" y="66.901372"/>
     <use style="fill:#ff0000;stroke:#ff0000;" x="167.935494" xlink:href="#m35eebc05d9" y="66.901372"/>
     <use style="fill:#ff0000;stroke:#ff0000;" x="169.503874" xlink:href="#m35eebc05d9" y="76.504464"/>
     <use style="fill:#ff0000;stroke:#ff0000;" x="171.072253" xlink:href="#m35eebc05d9" y="78.055813"/>
     <use style="fill:#ff0000;stroke:#ff0000;" x="172.640632" xlink:href="#m35eebc05d9" y="78.055813"/>
     <use style="fill:#ff0000;stroke:#ff0000;" x="174.209012" xlink:href="#m35eebc05d9" y="78.055813"/>
     <use style="fill:#ff0000;stroke:#ff0000;" x="175.777391" xlink:href="#m35eebc05d9" y="78.055813"/>
     <use style="fill:#ff0000;stroke:#ff0000;" x="177.345771" xlink:href="#m35eebc05d9" y="89.312391"/>
     <use style="fill:#ff0000;stroke:#ff0000;" x="178.91415" xlink:href="#m35eebc05d9" y="89.312391"/>
     <use style="fill:#ff0000;stroke:#ff0000;" x="180.48253" xlink:href="#m35eebc05d9" y="89.312391"/>
     <use style="fill:#ff0000;stroke:#ff0000;" x="182.050909" xlink:href="#m35eebc05d9" y="88.847774"/>
     <use style="fill:#ff0000;stroke:#ff0000;" x="183.619289" xlink:href="#m35eebc05d9" y="88.847774"/>
     <use style="fill:#ff0000;stroke:#ff0000;" x="185.187668" xlink:href="#m35eebc05d9" y="79.069502"/>
     <use style="fill:#ff0000;stroke:#ff0000;" x="186.756047" xlink:href="#m35eebc05d9" y="79.069502"/>
     <use style="fill:#ff0000;stroke:#ff0000;" x="188.324427" xlink:href="#m35eebc05d9" y="79.105808"/>
     <use style="fill:#ff0000;stroke:#ff0000;" x="189.892806" xlink:href="#m35eebc05d9" y="68.668142"/>
     <use style="fill:#ff0000;stroke:#ff0000;" x="191.461186" xlink:href="#m35eebc05d9" y="68.668142"/>
     <use style="fill:#ff0000;stroke:#ff0000;" x="193.029565" xlink:href="#m35eebc05d9" y="80.365872"/>
     <use style="fill:#ff0000;stroke:#ff0000;" x="194.597945" xlink:href="#m35eebc05d9" y="80.365872"/>
     <use style="fill:#ff0000;stroke:#ff0000;" x="196.166324" xlink:href="#m35eebc05d9" y="80.365872"/>
     <use style="fill:#ff0000;stroke:#ff0000;" x="197.734704" xlink:href="#m35eebc05d9" y="90.761341"/>
     <use style="fill:#ff0000;stroke:#ff0000;" x="199.303083" xlink:href="#m35eebc05d9" y="80.859139"/>
     <use style="fill:#ff0000;stroke:#ff0000;" x="200.871462" xlink:href="#m35eebc05d9" y="80.859139"/>
     <use style="fill:#ff0000;stroke:#ff0000;" x="202.439842" xlink:href="#m35eebc05d9" y="80.859139"/>
     <use style="fill:#ff0000;stroke:#ff0000;" x="204.008221" xlink:href="#m35eebc05d9" y="80.859139"/>
     <use style="fill:#ff0000;stroke:#ff0000;" x="205.576601" xlink:href="#m35eebc05d9" y="80.859139"/>
     <use style="fill:#ff0000;stroke:#ff0000;" x="207.14498" xlink:href="#m35eebc05d9" y="91.882854"/>
     <use style="fill:#ff0000;stroke:#ff0000;" x="208.71336" xlink:href="#m35eebc05d9" y="91.882854"/>
     <use style="fill:#ff0000;stroke:#ff0000;" x="210.281739" xlink:href="#m35eebc05d9" y="93.720852"/>
     <use style="fill:#ff0000;stroke:#ff0000;" x="211.850119" xlink:href="#m35eebc05d9" y="93.720852"/>
     <use style="fill:#ff0000;stroke:#ff0000;" x="213.418498" xlink:href="#m35eebc05d9" y="104.020137"/>
     <use style="fill:#ff0000;stroke:#ff0000;" x="214.986877" xlink:href="#m35eebc05d9" y="104.020137"/>
     <use style="fill:#ff0000;stroke:#ff0000;" x="216.555257" xlink:href="#m35eebc05d9" y="104.020137"/>
     <use style="fill:#ff0000;stroke:#ff0000;" x="218.123636" xlink:href="#m35eebc05d9" y="94.704402"/>
     <use style="fill:#ff0000;stroke:#ff0000;" x="219.692016" xlink:href="#m35eebc05d9" y="94.704402"/>
     <use style="fill:#ff0000;stroke:#ff0000;" x="221.260395" xlink:href="#m35eebc05d9" y="104.602609"/>
     <use style="fill:#ff0000;stroke:#ff0000;" x="222.828775" xlink:href="#m35eebc05d9" y="104.602609"/>
     <use style="fill:#ff0000;stroke:#ff0000;" x="224.397154" xlink:href="#m35eebc05d9" y="104.602609"/>
     <use style="fill:#ff0000;stroke:#ff0000;" x="225.965534" xlink:href="#m35eebc05d9" y="94.767302"/>
     <use style="fill:#ff0000;stroke:#ff0000;" x="227.533913" xlink:href="#m35eebc05d9" y="94.767302"/>
     <use style="fill:#ff0000;stroke:#ff0000;" x="229.102292" xlink:href="#m35eebc05d9" y="94.767302"/>
     <use style="fill:#ff0000;stroke:#ff0000;" x="230.670672" xlink:href="#m35eebc05d9" y="105.312714"/>
     <use style="fill:#ff0000;stroke:#ff0000;" x="232.239051" xlink:href="#m35eebc05d9" y="114.174521"/>
     <use style="fill:#ff0000;stroke:#ff0000;" x="233.807431" xlink:href="#m35eebc05d9" y="114.174521"/>
     <use style="fill:#ff0000;stroke:#ff0000;" x="235.37581" xlink:href="#m35eebc05d9" y="124.920664"/>
     <use style="fill:#ff0000;stroke:#ff0000;" x="236.94419" xlink:href="#m35eebc05d9" y="124.920664"/>
     <use style="fill:#ff0000;stroke:#ff0000;" x="238.512569" xlink:href="#m35eebc05d9" y="122.081149"/>
     <use style="fill:#ff0000;stroke:#ff0000;" x="240.080949" xlink:href="#m35eebc05d9" y="122.081149"/>
     <use style="fill:#ff0000;stroke:#ff0000;" x="241.649328" xlink:href="#m35eebc05d9" y="132.828562"/>
     <use style="fill:#ff0000;stroke:#ff0000;" x="243.217708" xlink:href="#m35eebc05d9" y="132.828562"/>
     <use style="fill:#ff0000;stroke:#ff0000;" x="244.786087" xlink:href="#m35eebc05d9" y="132.828562"/>
     <use style="fill:#ff0000;stroke:#ff0000;" x="246.354466" xlink:href="#m35eebc05d9" y="132.828562"/>
     <use style="fill:#ff0000;stroke:#ff0000;" x="247.922846" xlink:href="#m35eebc05d9" y="132.828562"/>
     <use style="fill:#ff0000;stroke:#ff0000;" x="249.491225" xlink:href="#m35eebc05d9" y="132.828562"/>
     <use style="fill:#ff0000;stroke:#ff0000;" x="251.059605" xlink:href="#m35eebc05d9" y="132.828562"/>
     <use style="fill:#ff0000;stroke:#ff0000;" x="252.627984" xlink:href="#m35eebc05d9" y="132.828562"/>
     <use style="fill:#ff0000;stroke:#ff0000;" x="254.196364" xlink:href="#m35eebc05d9" y="132.828562"/>
     <use style="fill:#ff0000;stroke:#ff0000;" x="255.764743" xlink:href="#m35eebc05d9" y="132.828562"/>
     <use style="fill:#ff0000;stroke:#ff0000;" x="257.333123" xlink:href="#m35eebc05d9" y="132.828562"/>
     <use style="fill:#ff0000;stroke:#ff0000;" x="258.901502" xlink:href="#m35eebc05d9" y="122.211792"/>
     <use style="fill:#ff0000;stroke:#ff0000;" x="260.469881" xlink:href="#m35eebc05d9" y="132.716816"/>
     <use style="fill:#ff0000;stroke:#ff0000;" x="262.038261" xlink:href="#m35eebc05d9" y="132.716816"/>
     <use style="fill:#ff0000;stroke:#ff0000;" x="263.60664" xlink:href="#m35eebc05d9" y="143.606616"/>
     <use style="fill:#ff0000;stroke:#ff0000;" x="265.17502" xlink:href="#m35eebc05d9" y="143.606616"/>
     <use style="fill:#ff0000;stroke:#ff0000;" x="266.743399" xlink:href="#m35eebc05d9" y="143.606616"/>
     <use style="fill:#ff0000;stroke:#ff0000;" x="268.311779" xlink:href="#m35eebc05d9" y="143.606616"/>
     <use style="fill:#ff0000;stroke:#ff0000;" x="269.880158" xlink:href="#m35eebc05d9" y="143.223095"/>
     <use style="fill:#ff0000;stroke:#ff0000;" x="271.448538" xlink:href="#m35eebc05d9" y="143.223095"/>
     <use style="fill:#ff0000;stroke:#ff0000;" x="273.016917" xlink:href="#m35eebc05d9" y="144.974836"/>
     <use style="fill:#ff0000;stroke:#ff0000;" x="274.585296" xlink:href="#m35eebc05d9" y="144.974836"/>
     <use style="fill:#ff0000;stroke:#ff0000;" x="276.153676" xlink:href="#m35eebc05d9" y="135.984644"/>
     <use style="fill:#ff0000;stroke:#ff0000;" x="277.722055" xlink:href="#m35eebc05d9" y="145.558018"/>
     <use style="fill:#ff0000;stroke:#ff0000;" x="279.290435" xlink:href="#m35eebc05d9" y="145.558018"/>
     <use style="fill:#ff0000;stroke:#ff0000;" x="280.858814" xlink:href="#m35eebc05d9" y="134.479706"/>
     <use style="fill:#ff0000;stroke:#ff0000;" x="282.427194" xlink:href="#m35eebc05d9" y="134.479706"/>
     <use style="fill:#ff0000;stroke:#ff0000;" x="283.995573" xlink:href="#m35eebc05d9" y="134.479706"/>
     <use style="fill:#ff0000;stroke:#ff0000;" x="285.563953" xlink:href="#m35eebc05d9" y="145.641093"/>
     <use style="fill:#ff0000;stroke:#ff0000;" x="287.132332" xlink:href="#m35eebc05d9" y="145.641093"/>
     <use style="fill:#ff0000;stroke:#ff0000;" x="288.700711" xlink:href="#m35eebc05d9" y="156.459997"/>
     <use style="fill:#ff0000;stroke:#ff0000;" x="290.269091" xlink:href="#m35eebc05d9" y="156.459997"/>
     <use style="fill:#ff0000;stroke:#ff0000;" x="291.83747" xlink:href="#m35eebc05d9" y="167.449266"/>
     <use style="fill:#ff0000;stroke:#ff0000;" x="293.40585" xlink:href="#m35eebc05d9" y="167.449266"/>
     <use style="fill:#ff0000;stroke:#ff0000;" x="294.974229" xlink:href="#m35eebc05d9" y="165.198591"/>
     <use style="fill:#ff0000;stroke:#ff0000;" x="296.542609" xlink:href="#m35eebc05d9" y="165.198591"/>
     <use style="fill:#ff0000;stroke:#ff0000;" x="298.110988" xlink:href="#m35eebc05d9" y="154.293079"/>
     <use style="fill:#ff0000;stroke:#ff0000;" x="299.679368" xlink:href="#m35eebc05d9" y="154.293079"/>
     <use style="fill:#ff0000;stroke:#ff0000;" x="301.247747" xlink:href="#m35eebc05d9" y="163.544354"/>
     <use style="fill:#ff0000;stroke:#ff0000;" x="302.816126" xlink:href="#m35eebc05d9" y="174.061876"/>
     <use style="fill:#ff0000;stroke:#ff0000;" x="304.384506" xlink:href="#m35eebc05d9" y="174.061876"/>
     <use style="fill:#ff0000;stroke:#ff0000;" x="305.952885" xlink:href="#m35eebc05d9" y="174.061876"/>
     <use style="fill:#ff0000;stroke:#ff0000;" x="307.521265" xlink:href="#m35eebc05d9" y="171.130075"/>
     <use style="fill:#ff0000;stroke:#ff0000;" x="309.089644" xlink:href="#m35eebc05d9" y="180.20975"/>
     <use style="fill:#ff0000;stroke:#ff0000;" x="310.658024" xlink:href="#m35eebc05d9" y="180.20975"/>
     <use style="fill:#ff0000;stroke:#ff0000;" x="312.226403" xlink:href="#m35eebc05d9" y="190.70567"/>
     <use style="fill:#ff0000;stroke:#ff0000;" x="313.794783" xlink:href="#m35eebc05d9" y="190.70567"/>
     <use style="fill:#ff0000;stroke:#ff0000;" x="315.363162" xlink:href="#m35eebc05d9" y="190.70567"/>
     <use style="fill:#ff0000;stroke:#ff0000;" x="316.931542" xlink:href="#m35eebc05d9" y="190.831785"/>
     <use style="fill:#ff0000;stroke:#ff0000;" x="318.499921" xlink:href="#m35eebc05d9" y="190.831785"/>
     <use style="fill:#ff0000;stroke:#ff0000;" x="320.0683" xlink:href="#m35eebc05d9" y="200.622416"/>
     <use style="fill:#ff0000;stroke:#ff0000;" x="321.63668" xlink:href="#m35eebc05d9" y="200.622416"/>
     <use style="fill:#ff0000;stroke:#ff0000;" x="323.205059" xlink:href="#m35eebc05d9" y="200.622416"/>
     <use style="fill:#ff0000;stroke:#ff0000;" x="324.773439" xlink:href="#m35eebc05d9" y="210.336598"/>
     <use style="fill:#ff0000;stroke:#ff0000;" x="326.341818" xlink:href="#m35eebc05d9" y="210.336598"/>
     <use style="fill:#ff0000;stroke:#ff0000;" x="327.910198" xlink:href="#m35eebc05d9" y="219.298883"/>
     <use style="fill:#ff0000;stroke:#ff0000;" x="329.478577" xlink:href="#m35eebc05d9" y="219.298883"/>
     <use style="fill:#ff0000;stroke:#ff0000;" x="331.046957" xlink:href="#m35eebc05d9" y="228.364189"/>
     <use style="fill:#ff0000;stroke:#ff0000;" x="332.615336" xlink:href="#m35eebc05d9" y="227.420714"/>
     <use style="fill:#ff0000;stroke:#ff0000;" x="334.183715" xlink:href="#m35eebc05d9" y="227.420714"/>
     <use style="fill:#ff0000;stroke:#ff0000;" x="335.752095" xlink:href="#m35eebc05d9" y="227.420714"/>
     <use style="fill:#ff0000;stroke:#ff0000;" x="337.320474" xlink:href="#m35eebc05d9" y="236.179253"/>
     <use style="fill:#ff0000;stroke:#ff0000;" x="338.888854" xlink:href="#m35eebc05d9" y="236.179253"/>
     <use style="fill:#ff0000;stroke:#ff0000;" x="340.457233" xlink:href="#m35eebc05d9" y="236.179253"/>
     <use style="fill:#ff0000;stroke:#ff0000;" x="342.025613" xlink:href="#m35eebc05d9" y="245.267957"/>
     <use style="fill:#ff0000;stroke:#ff0000;" x="343.593992" xlink:href="#m35eebc05d9" y="245.267957"/>
     <use style="fill:#ff0000;stroke:#ff0000;" x="345.162372" xlink:href="#m35eebc05d9" y="255.778609"/>
     <use style="fill:#ff0000;stroke:#ff0000;" x="346.730751" xlink:href="#m35eebc05d9" y="266.622938"/>
     <use style="fill:#ff0000;stroke:#ff0000;" x="348.29913" xlink:href="#m35eebc05d9" y="266.622938"/>
     <use style="fill:#ff0000;stroke:#ff0000;" x="349.86751" xlink:href="#m35eebc05d9" y="269.386576"/>
     <use style="fill:#ff0000;stroke:#ff0000;" x="351.435889" xlink:href="#m35eebc05d9" y="269.386576"/>
     <use style="fill:#ff0000;stroke:#ff0000;" x="353.004269" xlink:href="#m35eebc05d9" y="278.120819"/>
     <use style="fill:#ff0000;stroke:#ff0000;" x="354.572648" xlink:href="#m35eebc05d9" y="286.967913"/>
     <use style="fill:#ff0000;stroke:#ff0000;" x="356.141028" xlink:href="#m35eebc05d9" y="286.967913"/>
     <use style="fill:#ff0000;stroke:#ff0000;" x="357.709407" xlink:href="#m35eebc05d9" y="295.488"/>
     <use style="fill:#ff0000;stroke:#ff0000;" x="359.277787" xlink:href="#m35eebc05d9" y="295.488"/>
     <use style="fill:#ff0000;stroke:#ff0000;" x="360.846166" xlink:href="#m35eebc05d9" y="285.334951"/>
     <use style="fill:#ff0000;stroke:#ff0000;" x="362.414545" xlink:href="#m35eebc05d9" y="285.334951"/>
     <use style="fill:#ff0000;stroke:#ff0000;" x="363.982925" xlink:href="#m35eebc05d9" y="275.388087"/>
     <use style="fill:#ff0000;stroke:#ff0000;" x="365.551304" xlink:href="#m35eebc05d9" y="275.388087"/>
     <use style="fill:#ff0000;stroke:#ff0000;" x="367.119684" xlink:href="#m35eebc05d9" y="275.388087"/>
     <use style="fill:#ff0000;stroke:#ff0000;" x="368.688063" xlink:href="#m35eebc05d9" y="275.388087"/>
     <use style="fill:#ff0000;stroke:#ff0000;" x="370.256443" xlink:href="#m35eebc05d9" y="275.388087"/>
     <use style="fill:#ff0000;stroke:#ff0000;" x="371.824822" xlink:href="#m35eebc05d9" y="275.388087"/>
     <use style="fill:#ff0000;stroke:#ff0000;" x="373.393202" xlink:href="#m35eebc05d9" y="275.388087"/>
     <use style="fill:#ff0000;stroke:#ff0000;" x="374.961581" xlink:href="#m35eebc05d9" y="275.388087"/>
     <use style="fill:#ff0000;stroke:#ff0000;" x="376.52996" xlink:href="#m35eebc05d9" y="275.388087"/>
     <use style="fill:#ff0000;stroke:#ff0000;" x="378.09834" xlink:href="#m35eebc05d9" y="275.388087"/>
     <use style="fill:#ff0000;stroke:#ff0000;" x="379.666719" xlink:href="#m35eebc05d9" y="275.388087"/>
     <use style="fill:#ff0000;stroke:#ff0000;" x="381.235099" xlink:href="#m35eebc05d9" y="275.388087"/>
     <use style="fill:#ff0000;stroke:#ff0000;" x="382.803478" xlink:href="#m35eebc05d9" y="275.388087"/>
     <use style="fill:#ff0000;stroke:#ff0000;" x="384.371858" xlink:href="#m35eebc05d9" y="275.388087"/>
     <use style="fill:#ff0000;stroke:#ff0000;" x="385.940237" xlink:href="#m35eebc05d9" y="275.388087"/>
     <use style="fill:#ff0000;stroke:#ff0000;" x="387.508617" xlink:href="#m35eebc05d9" y="275.388087"/>
     <use style="fill:#ff0000;stroke:#ff0000;" x="389.076996" xlink:href="#m35eebc05d9" y="275.388087"/>
     <use style="fill:#ff0000;stroke:#ff0000;" x="390.645375" xlink:href="#m35eebc05d9" y="275.388087"/>
     <use style="fill:#ff0000;stroke:#ff0000;" x="392.213755" xlink:href="#m35eebc05d9" y="275.388087"/>
     <use style="fill:#ff0000;stroke:#ff0000;" x="393.782134" xlink:href="#m35eebc05d9" y="275.388087"/>
     <use style="fill:#ff0000;stroke:#ff0000;" x="395.350514" xlink:href="#m35eebc05d9" y="275.388087"/>
     <use style="fill:#ff0000;stroke:#ff0000;" x="396.918893" xlink:href="#m35eebc05d9" y="275.388087"/>
     <use style="fill:#ff0000;stroke:#ff0000;" x="398.487273" xlink:href="#m35eebc05d9" y="275.388087"/>
    </g>
   </g>
   <g id="patch_3">
    <path d="M 57.6 307.584 
L 57.6 41.472 
" style="fill:none;stroke:#000000;stroke-linecap:square;stroke-linejoin:miter;stroke-width:0.8;"/>
   </g>
   <g id="patch_4">
    <path d="M 414.72 307.584 
L 414.72 41.472 
" style="fill:none;stroke:#000000;stroke-linecap:square;stroke-linejoin:miter;stroke-width:0.8;"/>
   </g>
   <g id="patch_5">
    <path d="M 57.6 307.584 
L 414.72 307.584 
" style="fill:none;stroke:#000000;stroke-linecap:square;stroke-linejoin:miter;stroke-width:0.8;"/>
   </g>
   <g id="patch_6">
    <path d="M 57.6 41.472 
L 414.72 41.472 
" style="fill:none;stroke:#000000;stroke-linecap:square;stroke-linejoin:miter;stroke-width:0.8;"/>
   </g>
  </g>
 </g>
 <defs>
  <clipPath id="pd5b7b04630">
   <rect height="266.112" width="357.12" x="57.6" y="41.472"/>
  </clipPath>
 </defs>
</svg>
