<?xml version="1.0" encoding="utf-8" standalone="no"?>
<!DOCTYPE svg PUBLIC "-//W3C//DTD SVG 1.1//EN"
  "http://www.w3.org/Graphics/SVG/1.1/DTD/svg11.dtd">
<!-- Created with matplotlib (https://matplotlib.org/) -->
<svg height="345.6pt" version="1.1" viewBox="0 0 460.8 345.6" width="460.8pt" xmlns="http://www.w3.org/2000/svg" xmlns:xlink="http://www.w3.org/1999/xlink">
 <defs>
  <style type="text/css">
*{stroke-linecap:butt;stroke-linejoin:round;}
  </style>
 </defs>
 <g id="figure_1">
  <g id="patch_1">
   <path d="M 0 345.6 
L 460.8 345.6 
L 460.8 0 
L 0 0 
z
" style="fill:#ffffff;"/>
  </g>
  <g id="axes_1">
   <g id="patch_2">
    <path d="M 57.6 307.584 
L 414.72 307.584 
L 414.72 41.472 
L 57.6 41.472 
z
" style="fill:#ffffff;"/>
   </g>
   <g id="line2d_1">
    <path clip-path="url(#p9b3ca93e35)" d="M 73.832727 294.500329 
L 76.838788 294.500329 
L 78.341818 220.66138 
L 84.353939 220.66138 
L 85.85697 295.488 
L 87.36 295.488 
L 88.86303 294.88779 
L 90.366061 294.88779 
L 91.869091 226.139037 
L 93.372121 226.139037 
L 94.875152 156.17765 
L 97.881212 156.17765 
L 99.384242 172.118343 
L 102.390303 172.118343 
L 103.893333 99.21792 
L 105.396364 99.21792 
L 106.899394 174.997758 
L 108.402424 174.997758 
L 109.905455 98.931156 
L 112.911515 98.931156 
L 114.414545 124.761953 
L 115.917576 124.761953 
L 117.420606 101.610969 
L 118.923636 101.610969 
L 120.426667 125.444047 
L 121.929697 125.444047 
L 123.432727 126.135404 
L 124.935758 153.906219 
L 126.438788 153.906219 
L 127.941818 159.020076 
L 129.444848 159.020076 
L 130.947879 136.384679 
L 133.953939 136.384679 
L 135.45697 161.908562 
L 136.96 161.908562 
L 138.46303 138.325756 
L 139.966061 138.325756 
L 141.469091 115.549709 
L 142.972121 115.549709 
L 144.475152 121.847986 
L 145.978182 121.847986 
L 147.481212 147.564965 
L 148.984242 147.564965 
L 150.487273 152.135558 
L 151.990303 175.841797 
L 154.996364 175.841797 
L 156.499394 200.985424 
L 161.008485 200.985424 
L 162.511515 179.008524 
L 164.014545 203.894748 
L 165.517576 203.894748 
L 167.020606 180.590264 
L 168.523636 180.590264 
L 170.026667 157.620267 
L 173.032727 157.620267 
L 174.535758 135.633104 
L 176.038788 135.633104 
L 177.541818 160.187187 
L 179.044848 160.187187 
L 180.547879 136.875814 
L 182.050909 136.875814 
L 183.553939 114.346549 
L 185.05697 114.346549 
L 186.56 138.906955 
L 188.06303 138.906955 
L 189.566061 162.384018 
L 191.069091 139.84896 
L 192.572121 139.84896 
L 194.075152 136.070594 
L 201.590303 136.070594 
L 203.093333 114.605568 
L 204.596364 136.773064 
L 206.099394 136.773064 
L 207.602424 132.969385 
L 210.608485 132.969385 
L 212.111515 110.398259 
L 213.614545 110.398259 
L 215.117576 134.19473 
L 216.620606 134.19473 
L 218.123636 158.832007 
L 219.626667 138.761248 
L 221.129697 138.761248 
L 222.632727 165.199814 
L 224.135758 165.199814 
L 225.638788 140.615829 
L 227.141818 140.615829 
L 228.644848 134.872769 
L 230.147879 114.017197 
L 233.153939 114.017197 
L 234.65697 89.75753 
L 236.16 117.578273 
L 240.669091 117.578273 
L 242.172121 95.017076 
L 255.699394 95.017076 
L 257.202424 102.359914 
L 258.705455 99.940938 
L 260.208485 99.940938 
L 261.711515 78.491913 
L 263.214545 78.491913 
L 264.717576 53.568 
L 266.220606 53.568 
L 267.723636 57.908333 
L 273.735758 57.908333 
L 275.238788 82.162078 
L 276.741818 82.162078 
L 278.244848 103.657717 
L 279.747879 131.6037 
L 281.250909 131.6037 
L 282.753939 107.566697 
L 284.25697 107.566697 
L 285.76 85.413754 
L 287.26303 85.413754 
L 288.766061 109.321342 
L 290.269091 109.321342 
L 291.772121 136.43565 
L 293.275152 116.776589 
L 296.281212 116.776589 
L 297.784242 95.443365 
L 299.287273 119.89838 
L 302.293333 119.89838 
L 303.796364 99.941596 
L 305.299394 99.941596 
L 306.802424 123.14122 
L 308.305455 150.972885 
L 312.814545 150.972885 
L 314.317576 131.751068 
L 315.820606 131.751068 
L 317.323636 155.832328 
L 318.826667 155.832328 
L 320.329697 181.885868 
L 323.335758 181.885868 
L 324.838788 158.874978 
L 326.341818 158.874978 
L 327.844848 134.162526 
L 329.347879 134.162526 
L 330.850909 112.626626 
L 332.353939 117.140863 
L 333.85697 117.140863 
L 335.36 95.814143 
L 336.86303 95.814143 
L 338.366061 120.977591 
L 339.869091 120.977591 
L 341.372121 96.172288 
L 344.378182 96.172288 
L 345.881212 67.887523 
L 347.384242 67.887523 
L 348.887273 92.019322 
L 350.390303 92.019322 
L 351.893333 91.551021 
L 398.487273 91.551021 
L 398.487273 91.551021 
" style="fill:none;stroke:#ff0000;stroke-linecap:square;stroke-width:12;"/>
    <defs>
     <path d="M 0 3 
C 0.795609 3 1.55874 2.683901 2.12132 2.12132 
C 2.683901 1.55874 3 0.795609 3 0 
C 3 -0.795609 2.683901 -1.55874 2.12132 -2.12132 
C 1.55874 -2.683901 0.795609 -3 0 -3 
C -0.795609 -3 -1.55874 -2.683901 -2.12132 -2.12132 
C -2.683901 -1.55874 -3 -0.795609 -3 0 
C -3 0.795609 -2.683901 1.55874 -2.12132 2.12132 
C -1.55874 2.683901 -0.795609 3 0 3 
z
" id="m80681ea2ba" style="stroke:#ff0000;"/>
    </defs>
    <g clip-path="url(#p9b3ca93e35)">
     <use style="fill:#ff0000;stroke:#ff0000;" x="73.832727" xlink:href="#m80681ea2ba" y="294.500329"/>
     <use style="fill:#ff0000;stroke:#ff0000;" x="75.335758" xlink:href="#m80681ea2ba" y="294.500329"/>
     <use style="fill:#ff0000;stroke:#ff0000;" x="76.838788" xlink:href="#m80681ea2ba" y="294.500329"/>
     <use style="fill:#ff0000;stroke:#ff0000;" x="78.341818" xlink:href="#m80681ea2ba" y="220.66138"/>
     <use style="fill:#ff0000;stroke:#ff0000;" x="79.844848" xlink:href="#m80681ea2ba" y="220.66138"/>
     <use style="fill:#ff0000;stroke:#ff0000;" x="81.347879" xlink:href="#m80681ea2ba" y="220.66138"/>
     <use style="fill:#ff0000;stroke:#ff0000;" x="82.850909" xlink:href="#m80681ea2ba" y="220.66138"/>
     <use style="fill:#ff0000;stroke:#ff0000;" x="84.353939" xlink:href="#m80681ea2ba" y="220.66138"/>
     <use style="fill:#ff0000;stroke:#ff0000;" x="85.85697" xlink:href="#m80681ea2ba" y="295.488"/>
     <use style="fill:#ff0000;stroke:#ff0000;" x="87.36" xlink:href="#m80681ea2ba" y="295.488"/>
     <use style="fill:#ff0000;stroke:#ff0000;" x="88.86303" xlink:href="#m80681ea2ba" y="294.88779"/>
     <use style="fill:#ff0000;stroke:#ff0000;" x="90.366061" xlink:href="#m80681ea2ba" y="294.88779"/>
     <use style="fill:#ff0000;stroke:#ff0000;" x="91.869091" xlink:href="#m80681ea2ba" y="226.139037"/>
     <use style="fill:#ff0000;stroke:#ff0000;" x="93.372121" xlink:href="#m80681ea2ba" y="226.139037"/>
     <use style="fill:#ff0000;stroke:#ff0000;" x="94.875152" xlink:href="#m80681ea2ba" y="156.17765"/>
     <use style="fill:#ff0000;stroke:#ff0000;" x="96.378182" xlink:href="#m80681ea2ba" y="156.17765"/>
     <use style="fill:#ff0000;stroke:#ff0000;" x="97.881212" xlink:href="#m80681ea2ba" y="156.17765"/>
     <use style="fill:#ff0000;stroke:#ff0000;" x="99.384242" xlink:href="#m80681ea2ba" y="172.118343"/>
     <use style="fill:#ff0000;stroke:#ff0000;" x="100.887273" xlink:href="#m80681ea2ba" y="172.118343"/>
     <use style="fill:#ff0000;stroke:#ff0000;" x="102.390303" xlink:href="#m80681ea2ba" y="172.118343"/>
     <use style="fill:#ff0000;stroke:#ff0000;" x="103.893333" xlink:href="#m80681ea2ba" y="99.21792"/>
     <use style="fill:#ff0000;stroke:#ff0000;" x="105.396364" xlink:href="#m80681ea2ba" y="99.21792"/>
     <use style="fill:#ff0000;stroke:#ff0000;" x="106.899394" xlink:href="#m80681ea2ba" y="174.997758"/>
     <use style="fill:#ff0000;stroke:#ff0000;" x="108.402424" xlink:href="#m80681ea2ba" y="174.997758"/>
     <use style="fill:#ff0000;stroke:#ff0000;" x="109.905455" xlink:href="#m80681ea2ba" y="98.931156"/>
     <use style="fill:#ff0000;stroke:#ff0000;" x="111.408485" xlink:href="#m80681ea2ba" y="98.931156"/>
     <use style="fill:#ff0000;stroke:#ff0000;" x="112.911515" xlink:href="#m80681ea2ba" y="98.931156"/>
     <use style="fill:#ff0000;stroke:#ff0000;" x="114.414545" xlink:href="#m80681ea2ba" y="124.761953"/>
     <use style="fill:#ff0000;stroke:#ff0000;" x="115.917576" xlink:href="#m80681ea2ba" y="124.761953"/>
     <use style="fill:#ff0000;stroke:#ff0000;" x="117.420606" xlink:href="#m80681ea2ba" y="101.610969"/>
     <use style="fill:#ff0000;stroke:#ff0000;" x="118.923636" xlink:href="#m80681ea2ba" y="101.610969"/>
     <use style="fill:#ff0000;stroke:#ff0000;" x="120.426667" xlink:href="#m80681ea2ba" y="125.444047"/>
     <use style="fill:#ff0000;stroke:#ff0000;" x="121.929697" xlink:href="#m80681ea2ba" y="125.444047"/>
     <use style="fill:#ff0000;stroke:#ff0000;" x="123.432727" xlink:href="#m80681ea2ba" y="126.135404"/>
     <use style="fill:#ff0000;stroke:#ff0000;" x="124.935758" xlink:href="#m80681ea2ba" y="153.906219"/>
     <use style="fill:#ff0000;stroke:#ff0000;" x="126.438788" xlink:href="#m80681ea2ba" y="153.906219"/>
     <use style="fill:#ff0000;stroke:#ff0000;" x="127.941818" xlink:href="#m80681ea2ba" y="159.020076"/>
     <use style="fill:#ff0000;stroke:#ff0000;" x="129.444848" xlink:href="#m80681ea2ba" y="159.020076"/>
     <use style="fill:#ff0000;stroke:#ff0000;" x="130.947879" xlink:href="#m80681ea2ba" y="136.384679"/>
     <use style="fill:#ff0000;stroke:#ff0000;" x="132.450909" xlink:href="#m80681ea2ba" y="136.384679"/>
     <use style="fill:#ff0000;stroke:#ff0000;" x="133.953939" xlink:href="#m80681ea2ba" y="136.384679"/>
     <use style="fill:#ff0000;stroke:#ff0000;" x="135.45697" xlink:href="#m80681ea2ba" y="161.908562"/>
     <use style="fill:#ff0000;stroke:#ff0000;" x="136.96" xlink:href="#m80681ea2ba" y="161.908562"/>
     <use style="fill:#ff0000;stroke:#ff0000;" x="138.46303" xlink:href="#m80681ea2ba" y="138.325756"/>
     <use style="fill:#ff0000;stroke:#ff0000;" x="139.966061" xlink:href="#m80681ea2ba" y="138.325756"/>
     <use style="fill:#ff0000;stroke:#ff0000;" x="141.469091" xlink:href="#m80681ea2ba" y="115.549709"/>
     <use style="fill:#ff0000;stroke:#ff0000;" x="142.972121" xlink:href="#m80681ea2ba" y="115.549709"/>
     <use style="fill:#ff0000;stroke:#ff0000;" x="144.475152" xlink:href="#m80681ea2ba" y="121.847986"/>
     <use style="fill:#ff0000;stroke:#ff0000;" x="145.978182" xlink:href="#m80681ea2ba" y="121.847986"/>
     <use style="fill:#ff0000;stroke:#ff0000;" x="147.481212" xlink:href="#m80681ea2ba" y="147.564965"/>
     <use style="fill:#ff0000;stroke:#ff0000;" x="148.984242" xlink:href="#m80681ea2ba" y="147.564965"/>
     <use style="fill:#ff0000;stroke:#ff0000;" x="150.487273" xlink:href="#m80681ea2ba" y="152.135558"/>
     <use style="fill:#ff0000;stroke:#ff0000;" x="151.990303" xlink:href="#m80681ea2ba" y="175.841797"/>
     <use style="fill:#ff0000;stroke:#ff0000;" x="153.493333" xlink:href="#m80681ea2ba" y="175.841797"/>
     <use style="fill:#ff0000;stroke:#ff0000;" x="154.996364" xlink:href="#m80681ea2ba" y="175.841797"/>
     <use style="fill:#ff0000;stroke:#ff0000;" x="156.499394" xlink:href="#m80681ea2ba" y="200.985424"/>
     <use style="fill:#ff0000;stroke:#ff0000;" x="158.002424" xlink:href="#m80681ea2ba" y="200.985424"/>
     <use style="fill:#ff0000;stroke:#ff0000;" x="159.505455" xlink:href="#m80681ea2ba" y="200.985424"/>
     <use style="fill:#ff0000;stroke:#ff0000;" x="161.008485" xlink:href="#m80681ea2ba" y="200.985424"/>
     <use style="fill:#ff0000;stroke:#ff0000;" x="162.511515" xlink:href="#m80681ea2ba" y="179.008524"/>
     <use style="fill:#ff0000;stroke:#ff0000;" x="164.014545" xlink:href="#m80681ea2ba" y="203.894748"/>
     <use style="fill:#ff0000;stroke:#ff0000;" x="165.517576" xlink:href="#m80681ea2ba" y="203.894748"/>
     <use style="fill:#ff0000;stroke:#ff0000;" x="167.020606" xlink:href="#m80681ea2ba" y="180.590264"/>
     <use style="fill:#ff0000;stroke:#ff0000;" x="168.523636" xlink:href="#m80681ea2ba" y="180.590264"/>
     <use style="fill:#ff0000;stroke:#ff0000;" x="170.026667" xlink:href="#m80681ea2ba" y="157.620267"/>
     <use style="fill:#ff0000;stroke:#ff0000;" x="171.529697" xlink:href="#m80681ea2ba" y="157.620267"/>
     <use style="fill:#ff0000;stroke:#ff0000;" x="173.032727" xlink:href="#m80681ea2ba" y="157.620267"/>
     <use style="fill:#ff0000;stroke:#ff0000;" x="174.535758" xlink:href="#m80681ea2ba" y="135.633104"/>
     <use style="fill:#ff0000;stroke:#ff0000;" x="176.038788" xlink:href="#m80681ea2ba" y="135.633104"/>
     <use style="fill:#ff0000;stroke:#ff0000;" x="177.541818" xlink:href="#m80681ea2ba" y="160.187187"/>
     <use style="fill:#ff0000;stroke:#ff0000;" x="179.044848" xlink:href="#m80681ea2ba" y="160.187187"/>
     <use style="fill:#ff0000;stroke:#ff0000;" x="180.547879" xlink:href="#m80681ea2ba" y="136.875814"/>
     <use style="fill:#ff0000;stroke:#ff0000;" x="182.050909" xlink:href="#m80681ea2ba" y="136.875814"/>
     <use style="fill:#ff0000;stroke:#ff0000;" x="183.553939" xlink:href="#m80681ea2ba" y="114.346549"/>
     <use style="fill:#ff0000;stroke:#ff0000;" x="185.05697" xlink:href="#m80681ea2ba" y="114.346549"/>
     <use style="fill:#ff0000;stroke:#ff0000;" x="186.56" xlink:href="#m80681ea2ba" y="138.906955"/>
     <use style="fill:#ff0000;stroke:#ff0000;" x="188.06303" xlink:href="#m80681ea2ba" y="138.906955"/>
     <use style="fill:#ff0000;stroke:#ff0000;" x="189.566061" xlink:href="#m80681ea2ba" y="162.384018"/>
     <use style="fill:#ff0000;stroke:#ff0000;" x="191.069091" xlink:href="#m80681ea2ba" y="139.84896"/>
     <use style="fill:#ff0000;stroke:#ff0000;" x="192.572121" xlink:href="#m80681ea2ba" y="139.84896"/>
     <use style="fill:#ff0000;stroke:#ff0000;" x="194.075152" xlink:href="#m80681ea2ba" y="136.070594"/>
     <use style="fill:#ff0000;stroke:#ff0000;" x="195.578182" xlink:href="#m80681ea2ba" y="136.070594"/>
     <use style="fill:#ff0000;stroke:#ff0000;" x="197.081212" xlink:href="#m80681ea2ba" y="136.070594"/>
     <use style="fill:#ff0000;stroke:#ff0000;" x="198.584242" xlink:href="#m80681ea2ba" y="136.070594"/>
     <use style="fill:#ff0000;stroke:#ff0000;" x="200.087273" xlink:href="#m80681ea2ba" y="136.070594"/>
     <use style="fill:#ff0000;stroke:#ff0000;" x="201.590303" xlink:href="#m80681ea2ba" y="136.070594"/>
     <use style="fill:#ff0000;stroke:#ff0000;" x="203.093333" xlink:href="#m80681ea2ba" y="114.605568"/>
     <use style="fill:#ff0000;stroke:#ff0000;" x="204.596364" xlink:href="#m80681ea2ba" y="136.773064"/>
     <use style="fill:#ff0000;stroke:#ff0000;" x="206.099394" xlink:href="#m80681ea2ba" y="136.773064"/>
     <use style="fill:#ff0000;stroke:#ff0000;" x="207.602424" xlink:href="#m80681ea2ba" y="132.969385"/>
     <use style="fill:#ff0000;stroke:#ff0000;" x="209.105455" xlink:href="#m80681ea2ba" y="132.969385"/>
     <use style="fill:#ff0000;stroke:#ff0000;" x="210.608485" xlink:href="#m80681ea2ba" y="132.969385"/>
     <use style="fill:#ff0000;stroke:#ff0000;" x="212.111515" xlink:href="#m80681ea2ba" y="110.398259"/>
     <use style="fill:#ff0000;stroke:#ff0000;" x="213.614545" xlink:href="#m80681ea2ba" y="110.398259"/>
     <use style="fill:#ff0000;stroke:#ff0000;" x="215.117576" xlink:href="#m80681ea2ba" y="134.19473"/>
     <use style="fill:#ff0000;stroke:#ff0000;" x="216.620606" xlink:href="#m80681ea2ba" y="134.19473"/>
     <use style="fill:#ff0000;stroke:#ff0000;" x="218.123636" xlink:href="#m80681ea2ba" y="158.832007"/>
     <use style="fill:#ff0000;stroke:#ff0000;" x="219.626667" xlink:href="#m80681ea2ba" y="138.761248"/>
     <use style="fill:#ff0000;stroke:#ff0000;" x="221.129697" xlink:href="#m80681ea2ba" y="138.761248"/>
     <use style="fill:#ff0000;stroke:#ff0000;" x="222.632727" xlink:href="#m80681ea2ba" y="165.199814"/>
     <use style="fill:#ff0000;stroke:#ff0000;" x="224.135758" xlink:href="#m80681ea2ba" y="165.199814"/>
     <use style="fill:#ff0000;stroke:#ff0000;" x="225.638788" xlink:href="#m80681ea2ba" y="140.615829"/>
     <use style="fill:#ff0000;stroke:#ff0000;" x="227.141818" xlink:href="#m80681ea2ba" y="140.615829"/>
     <use style="fill:#ff0000;stroke:#ff0000;" x="228.644848" xlink:href="#m80681ea2ba" y="134.872769"/>
     <use style="fill:#ff0000;stroke:#ff0000;" x="230.147879" xlink:href="#m80681ea2ba" y="114.017197"/>
     <use style="fill:#ff0000;stroke:#ff0000;" x="231.650909" xlink:href="#m80681ea2ba" y="114.017197"/>
     <use style="fill:#ff0000;stroke:#ff0000;" x="233.153939" xlink:href="#m80681ea2ba" y="114.017197"/>
     <use style="fill:#ff0000;stroke:#ff0000;" x="234.65697" xlink:href="#m80681ea2ba" y="89.75753"/>
     <use style="fill:#ff0000;stroke:#ff0000;" x="236.16" xlink:href="#m80681ea2ba" y="117.578273"/>
     <use style="fill:#ff0000;stroke:#ff0000;" x="237.66303" xlink:href="#m80681ea2ba" y="117.578273"/>
     <use style="fill:#ff0000;stroke:#ff0000;" x="239.166061" xlink:href="#m80681ea2ba" y="117.578273"/>
     <use style="fill:#ff0000;stroke:#ff0000;" x="240.669091" xlink:href="#m80681ea2ba" y="117.578273"/>
     <use style="fill:#ff0000;stroke:#ff0000;" x="242.172121" xlink:href="#m80681ea2ba" y="95.017076"/>
     <use style="fill:#ff0000;stroke:#ff0000;" x="243.675152" xlink:href="#m80681ea2ba" y="95.017076"/>
     <use style="fill:#ff0000;stroke:#ff0000;" x="245.178182" xlink:href="#m80681ea2ba" y="95.017076"/>
     <use style="fill:#ff0000;stroke:#ff0000;" x="246.681212" xlink:href="#m80681ea2ba" y="95.017076"/>
     <use style="fill:#ff0000;stroke:#ff0000;" x="248.184242" xlink:href="#m80681ea2ba" y="95.017076"/>
     <use style="fill:#ff0000;stroke:#ff0000;" x="249.687273" xlink:href="#m80681ea2ba" y="95.017076"/>
     <use style="fill:#ff0000;stroke:#ff0000;" x="251.190303" xlink:href="#m80681ea2ba" y="95.017076"/>
     <use style="fill:#ff0000;stroke:#ff0000;" x="252.693333" xlink:href="#m80681ea2ba" y="95.017076"/>
     <use style="fill:#ff0000;stroke:#ff0000;" x="254.196364" xlink:href="#m80681ea2ba" y="95.017076"/>
     <use style="fill:#ff0000;stroke:#ff0000;" x="255.699394" xlink:href="#m80681ea2ba" y="95.017076"/>
     <use style="fill:#ff0000;stroke:#ff0000;" x="257.202424" xlink:href="#m80681ea2ba" y="102.359914"/>
     <use style="fill:#ff0000;stroke:#ff0000;" x="258.705455" xlink:href="#m80681ea2ba" y="99.940938"/>
     <use style="fill:#ff0000;stroke:#ff0000;" x="260.208485" xlink:href="#m80681ea2ba" y="99.940938"/>
     <use style="fill:#ff0000;stroke:#ff0000;" x="261.711515" xlink:href="#m80681ea2ba" y="78.491913"/>
     <use style="fill:#ff0000;stroke:#ff0000;" x="263.214545" xlink:href="#m80681ea2ba" y="78.491913"/>
     <use style="fill:#ff0000;stroke:#ff0000;" x="264.717576" xlink:href="#m80681ea2ba" y="53.568"/>
     <use style="fill:#ff0000;stroke:#ff0000;" x="266.220606" xlink:href="#m80681ea2ba" y="53.568"/>
     <use style="fill:#ff0000;stroke:#ff0000;" x="267.723636" xlink:href="#m80681ea2ba" y="57.908333"/>
     <use style="fill:#ff0000;stroke:#ff0000;" x="269.226667" xlink:href="#m80681ea2ba" y="57.908333"/>
     <use style="fill:#ff0000;stroke:#ff0000;" x="270.729697" xlink:href="#m80681ea2ba" y="57.908333"/>
     <use style="fill:#ff0000;stroke:#ff0000;" x="272.232727" xlink:href="#m80681ea2ba" y="57.908333"/>
     <use style="fill:#ff0000;stroke:#ff0000;" x="273.735758" xlink:href="#m80681ea2ba" y="57.908333"/>
     <use style="fill:#ff0000;stroke:#ff0000;" x="275.238788" xlink:href="#m80681ea2ba" y="82.162078"/>
     <use style="fill:#ff0000;stroke:#ff0000;" x="276.741818" xlink:href="#m80681ea2ba" y="82.162078"/>
     <use style="fill:#ff0000;stroke:#ff0000;" x="278.244848" xlink:href="#m80681ea2ba" y="103.657717"/>
     <use style="fill:#ff0000;stroke:#ff0000;" x="279.747879" xlink:href="#m80681ea2ba" y="131.6037"/>
     <use style="fill:#ff0000;stroke:#ff0000;" x="281.250909" xlink:href="#m80681ea2ba" y="131.6037"/>
     <use style="fill:#ff0000;stroke:#ff0000;" x="282.753939" xlink:href="#m80681ea2ba" y="107.566697"/>
     <use style="fill:#ff0000;stroke:#ff0000;" x="284.25697" xlink:href="#m80681ea2ba" y="107.566697"/>
     <use style="fill:#ff0000;stroke:#ff0000;" x="285.76" xlink:href="#m80681ea2ba" y="85.413754"/>
     <use style="fill:#ff0000;stroke:#ff0000;" x="287.26303" xlink:href="#m80681ea2ba" y="85.413754"/>
     <use style="fill:#ff0000;stroke:#ff0000;" x="288.766061" xlink:href="#m80681ea2ba" y="109.321342"/>
     <use style="fill:#ff0000;stroke:#ff0000;" x="290.269091" xlink:href="#m80681ea2ba" y="109.321342"/>
     <use style="fill:#ff0000;stroke:#ff0000;" x="291.772121" xlink:href="#m80681ea2ba" y="136.43565"/>
     <use style="fill:#ff0000;stroke:#ff0000;" x="293.275152" xlink:href="#m80681ea2ba" y="116.776589"/>
     <use style="fill:#ff0000;stroke:#ff0000;" x="294.778182" xlink:href="#m80681ea2ba" y="116.776589"/>
     <use style="fill:#ff0000;stroke:#ff0000;" x="296.281212" xlink:href="#m80681ea2ba" y="116.776589"/>
     <use style="fill:#ff0000;stroke:#ff0000;" x="297.784242" xlink:href="#m80681ea2ba" y="95.443365"/>
     <use style="fill:#ff0000;stroke:#ff0000;" x="299.287273" xlink:href="#m80681ea2ba" y="119.89838"/>
     <use style="fill:#ff0000;stroke:#ff0000;" x="300.790303" xlink:href="#m80681ea2ba" y="119.89838"/>
     <use style="fill:#ff0000;stroke:#ff0000;" x="302.293333" xlink:href="#m80681ea2ba" y="119.89838"/>
     <use style="fill:#ff0000;stroke:#ff0000;" x="303.796364" xlink:href="#m80681ea2ba" y="99.941596"/>
     <use style="fill:#ff0000;stroke:#ff0000;" x="305.299394" xlink:href="#m80681ea2ba" y="99.941596"/>
     <use style="fill:#ff0000;stroke:#ff0000;" x="306.802424" xlink:href="#m80681ea2ba" y="123.14122"/>
     <use style="fill:#ff0000;stroke:#ff0000;" x="308.305455" xlink:href="#m80681ea2ba" y="150.972885"/>
     <use style="fill:#ff0000;stroke:#ff0000;" x="309.808485" xlink:href="#m80681ea2ba" y="150.972885"/>
     <use style="fill:#ff0000;stroke:#ff0000;" x="311.311515" xlink:href="#m80681ea2ba" y="150.972885"/>
     <use style="fill:#ff0000;stroke:#ff0000;" x="312.814545" xlink:href="#m80681ea2ba" y="150.972885"/>
     <use style="fill:#ff0000;stroke:#ff0000;" x="314.317576" xlink:href="#m80681ea2ba" y="131.751068"/>
     <use style="fill:#ff0000;stroke:#ff0000;" x="315.820606" xlink:href="#m80681ea2ba" y="131.751068"/>
     <use style="fill:#ff0000;stroke:#ff0000;" x="317.323636" xlink:href="#m80681ea2ba" y="155.832328"/>
     <use style="fill:#ff0000;stroke:#ff0000;" x="318.826667" xlink:href="#m80681ea2ba" y="155.832328"/>
     <use style="fill:#ff0000;stroke:#ff0000;" x="320.329697" xlink:href="#m80681ea2ba" y="181.885868"/>
     <use style="fill:#ff0000;stroke:#ff0000;" x="321.832727" xlink:href="#m80681ea2ba" y="181.885868"/>
     <use style="fill:#ff0000;stroke:#ff0000;" x="323.335758" xlink:href="#m80681ea2ba" y="181.885868"/>
     <use style="fill:#ff0000;stroke:#ff0000;" x="324.838788" xlink:href="#m80681ea2ba" y="158.874978"/>
     <use style="fill:#ff0000;stroke:#ff0000;" x="326.341818" xlink:href="#m80681ea2ba" y="158.874978"/>
     <use style="fill:#ff0000;stroke:#ff0000;" x="327.844848" xlink:href="#m80681ea2ba" y="134.162526"/>
     <use style="fill:#ff0000;stroke:#ff0000;" x="329.347879" xlink:href="#m80681ea2ba" y="134.162526"/>
     <use style="fill:#ff0000;stroke:#ff0000;" x="330.850909" xlink:href="#m80681ea2ba" y="112.626626"/>
     <use style="fill:#ff0000;stroke:#ff0000;" x="332.353939" xlink:href="#m80681ea2ba" y="117.140863"/>
     <use style="fill:#ff0000;stroke:#ff0000;" x="333.85697" xlink:href="#m80681ea2ba" y="117.140863"/>
     <use style="fill:#ff0000;stroke:#ff0000;" x="335.36" xlink:href="#m80681ea2ba" y="95.814143"/>
     <use style="fill:#ff0000;stroke:#ff0000;" x="336.86303" xlink:href="#m80681ea2ba" y="95.814143"/>
     <use style="fill:#ff0000;stroke:#ff0000;" x="338.366061" xlink:href="#m80681ea2ba" y="120.977591"/>
     <use style="fill:#ff0000;stroke:#ff0000;" x="339.869091" xlink:href="#m80681ea2ba" y="120.977591"/>
     <use style="fill:#ff0000;stroke:#ff0000;" x="341.372121" xlink:href="#m80681ea2ba" y="96.172288"/>
     <use style="fill:#ff0000;stroke:#ff0000;" x="342.875152" xlink:href="#m80681ea2ba" y="96.172288"/>
     <use style="fill:#ff0000;stroke:#ff0000;" x="344.378182" xlink:href="#m80681ea2ba" y="96.172288"/>
     <use style="fill:#ff0000;stroke:#ff0000;" x="345.881212" xlink:href="#m80681ea2ba" y="67.887523"/>
     <use style="fill:#ff0000;stroke:#ff0000;" x="347.384242" xlink:href="#m80681ea2ba" y="67.887523"/>
     <use style="fill:#ff0000;stroke:#ff0000;" x="348.887273" xlink:href="#m80681ea2ba" y="92.019322"/>
     <use style="fill:#ff0000;stroke:#ff0000;" x="350.390303" xlink:href="#m80681ea2ba" y="92.019322"/>
     <use style="fill:#ff0000;stroke:#ff0000;" x="351.893333" xlink:href="#m80681ea2ba" y="91.551021"/>
     <use style="fill:#ff0000;stroke:#ff0000;" x="353.396364" xlink:href="#m80681ea2ba" y="91.551021"/>
     <use style="fill:#ff0000;stroke:#ff0000;" x="354.899394" xlink:href="#m80681ea2ba" y="91.551021"/>
     <use style="fill:#ff0000;stroke:#ff0000;" x="356.402424" xlink:href="#m80681ea2ba" y="91.551021"/>
     <use style="fill:#ff0000;stroke:#ff0000;" x="357.905455" xlink:href="#m80681ea2ba" y="91.551021"/>
     <use style="fill:#ff0000;stroke:#ff0000;" x="359.408485" xlink:href="#m80681ea2ba" y="91.551021"/>
     <use style="fill:#ff0000;stroke:#ff0000;" x="360.911515" xlink:href="#m80681ea2ba" y="91.551021"/>
     <use style="fill:#ff0000;stroke:#ff0000;" x="362.414545" xlink:href="#m80681ea2ba" y="91.551021"/>
     <use style="fill:#ff0000;stroke:#ff0000;" x="363.917576" xlink:href="#m80681ea2ba" y="91.551021"/>
     <use style="fill:#ff0000;stroke:#ff0000;" x="365.420606" xlink:href="#m80681ea2ba" y="91.551021"/>
     <use style="fill:#ff0000;stroke:#ff0000;" x="366.923636" xlink:href="#m80681ea2ba" y="91.551021"/>
     <use style="fill:#ff0000;stroke:#ff0000;" x="368.426667" xlink:href="#m80681ea2ba" y="91.551021"/>
     <use style="fill:#ff0000;stroke:#ff0000;" x="369.929697" xlink:href="#m80681ea2ba" y="91.551021"/>
     <use style="fill:#ff0000;stroke:#ff0000;" x="371.432727" xlink:href="#m80681ea2ba" y="91.551021"/>
     <use style="fill:#ff0000;stroke:#ff0000;" x="372.935758" xlink:href="#m80681ea2ba" y="91.551021"/>
     <use style="fill:#ff0000;stroke:#ff0000;" x="374.438788" xlink:href="#m80681ea2ba" y="91.551021"/>
     <use style="fill:#ff0000;stroke:#ff0000;" x="375.941818" xlink:href="#m80681ea2ba" y="91.551021"/>
     <use style="fill:#ff0000;stroke:#ff0000;" x="377.444848" xlink:href="#m80681ea2ba" y="91.551021"/>
     <use style="fill:#ff0000;stroke:#ff0000;" x="378.947879" xlink:href="#m80681ea2ba" y="91.551021"/>
     <use style="fill:#ff0000;stroke:#ff0000;" x="380.450909" xlink:href="#m80681ea2ba" y="91.551021"/>
     <use style="fill:#ff0000;stroke:#ff0000;" x="381.953939" xlink:href="#m80681ea2ba" y="91.551021"/>
     <use style="fill:#ff0000;stroke:#ff0000;" x="383.45697" xlink:href="#m80681ea2ba" y="91.551021"/>
     <use style="fill:#ff0000;stroke:#ff0000;" x="384.96" xlink:href="#m80681ea2ba" y="91.551021"/>
     <use style="fill:#ff0000;stroke:#ff0000;" x="386.46303" xlink:href="#m80681ea2ba" y="91.551021"/>
     <use style="fill:#ff0000;stroke:#ff0000;" x="387.966061" xlink:href="#m80681ea2ba" y="91.551021"/>
     <use style="fill:#ff0000;stroke:#ff0000;" x="389.469091" xlink:href="#m80681ea2ba" y="91.551021"/>
     <use style="fill:#ff0000;stroke:#ff0000;" x="390.972121" xlink:href="#m80681ea2ba" y="91.551021"/>
     <use style="fill:#ff0000;stroke:#ff0000;" x="392.475152" xlink:href="#m80681ea2ba" y="91.551021"/>
     <use style="fill:#ff0000;stroke:#ff0000;" x="393.978182" xlink:href="#m80681ea2ba" y="91.551021"/>
     <use style="fill:#ff0000;stroke:#ff0000;" x="395.481212" xlink:href="#m80681ea2ba" y="91.551021"/>
     <use style="fill:#ff0000;stroke:#ff0000;" x="396.984242" xlink:href="#m80681ea2ba" y="91.551021"/>
     <use style="fill:#ff0000;stroke:#ff0000;" x="398.487273" xlink:href="#m80681ea2ba" y="91.551021"/>
    </g>
   </g>
   <g id="patch_3">
    <path d="M 57.6 307.584 
L 57.6 41.472 
" style="fill:none;stroke:#000000;stroke-linecap:square;stroke-linejoin:miter;stroke-width:0.8;"/>
   </g>
   <g id="patch_4">
    <path d="M 414.72 307.584 
L 414.72 41.472 
" style="fill:none;stroke:#000000;stroke-linecap:square;stroke-linejoin:miter;stroke-width:0.8;"/>
   </g>
   <g id="patch_5">
    <path d="M 57.6 307.584 
L 414.72 307.584 
" style="fill:none;stroke:#000000;stroke-linecap:square;stroke-linejoin:miter;stroke-width:0.8;"/>
   </g>
   <g id="patch_6">
    <path d="M 57.6 41.472 
L 414.72 41.472 
" style="fill:none;stroke:#000000;stroke-linecap:square;stroke-linejoin:miter;stroke-width:0.8;"/>
   </g>
  </g>
 </g>
 <defs>
  <clipPath id="p9b3ca93e35">
   <rect height="266.112" width="357.12" x="57.6" y="41.472"/>
  </clipPath>
 </defs>
</svg>
