<?xml version="1.0" encoding="utf-8" standalone="no"?>
<!DOCTYPE svg PUBLIC "-//W3C//DTD SVG 1.1//EN"
  "http://www.w3.org/Graphics/SVG/1.1/DTD/svg11.dtd">
<!-- Created with matplotlib (https://matplotlib.org/) -->
<svg height="345.6pt" version="1.1" viewBox="0 0 460.8 345.6" width="460.8pt" xmlns="http://www.w3.org/2000/svg" xmlns:xlink="http://www.w3.org/1999/xlink">
 <defs>
  <style type="text/css">
*{stroke-linecap:butt;stroke-linejoin:round;}
  </style>
 </defs>
 <g id="figure_1">
  <g id="patch_1">
   <path d="M 0 345.6 
L 460.8 345.6 
L 460.8 0 
L 0 0 
z
" style="fill:#ffffff;"/>
  </g>
  <g id="axes_1">
   <g id="patch_2">
    <path d="M 57.6 307.584 
L 414.72 307.584 
L 414.72 41.472 
L 57.6 41.472 
z
" style="fill:#ffffff;"/>
   </g>
   <g id="line2d_1">
    <path clip-path="url(#p23243fbd31)" d="M 73.832727 294.272385 
L 83.670744 294.272385 
L 93.50876 294.272385 
L 103.346777 203.392219 
L 113.184793 203.392219 
L 123.02281 203.392219 
L 132.860826 203.392219 
L 142.698843 203.392219 
L 152.53686 295.488 
L 162.374876 295.488 
L 172.212893 294.749268 
L 182.050909 294.749268 
L 191.888926 210.13406 
L 201.726942 210.13406 
L 211.564959 124.026355 
L 221.402975 124.026355 
L 231.240992 124.026355 
L 241.079008 143.645985 
L 250.917025 143.645985 
L 260.755041 143.645985 
L 270.593058 53.920946 
L 280.431074 53.920946 
L 290.269091 147.189937 
L 300.107107 147.189937 
L 309.945124 53.568 
L 319.78314 53.568 
L 329.621157 53.568 
L 339.459174 85.360261 
L 349.29719 85.360261 
L 359.135207 56.866284 
L 368.973223 56.866284 
L 378.81124 86.199775 
L 388.649256 86.199775 
L 398.487273 86.199775 
" style="fill:none;stroke:#ff0000;stroke-linecap:square;stroke-width:12;"/>
    <defs>
     <path d="M 0 3 
C 0.795609 3 1.55874 2.683901 2.12132 2.12132 
C 2.683901 1.55874 3 0.795609 3 0 
C 3 -0.795609 2.683901 -1.55874 2.12132 -2.12132 
C 1.55874 -2.683901 0.795609 -3 0 -3 
C -0.795609 -3 -1.55874 -2.683901 -2.12132 -2.12132 
C -2.683901 -1.55874 -3 -0.795609 -3 0 
C -3 0.795609 -2.683901 1.55874 -2.12132 2.12132 
C -1.55874 2.683901 -0.795609 3 0 3 
z
" id="m4182067215" style="stroke:#ff0000;"/>
    </defs>
    <g clip-path="url(#p23243fbd31)">
     <use style="fill:#ff0000;stroke:#ff0000;" x="73.832727" xlink:href="#m4182067215" y="294.272385"/>
     <use style="fill:#ff0000;stroke:#ff0000;" x="83.670744" xlink:href="#m4182067215" y="294.272385"/>
     <use style="fill:#ff0000;stroke:#ff0000;" x="93.50876" xlink:href="#m4182067215" y="294.272385"/>
     <use style="fill:#ff0000;stroke:#ff0000;" x="103.346777" xlink:href="#m4182067215" y="203.392219"/>
     <use style="fill:#ff0000;stroke:#ff0000;" x="113.184793" xlink:href="#m4182067215" y="203.392219"/>
     <use style="fill:#ff0000;stroke:#ff0000;" x="123.02281" xlink:href="#m4182067215" y="203.392219"/>
     <use style="fill:#ff0000;stroke:#ff0000;" x="132.860826" xlink:href="#m4182067215" y="203.392219"/>
     <use style="fill:#ff0000;stroke:#ff0000;" x="142.698843" xlink:href="#m4182067215" y="203.392219"/>
     <use style="fill:#ff0000;stroke:#ff0000;" x="152.53686" xlink:href="#m4182067215" y="295.488"/>
     <use style="fill:#ff0000;stroke:#ff0000;" x="162.374876" xlink:href="#m4182067215" y="295.488"/>
     <use style="fill:#ff0000;stroke:#ff0000;" x="172.212893" xlink:href="#m4182067215" y="294.749268"/>
     <use style="fill:#ff0000;stroke:#ff0000;" x="182.050909" xlink:href="#m4182067215" y="294.749268"/>
     <use style="fill:#ff0000;stroke:#ff0000;" x="191.888926" xlink:href="#m4182067215" y="210.13406"/>
     <use style="fill:#ff0000;stroke:#ff0000;" x="201.726942" xlink:href="#m4182067215" y="210.13406"/>
     <use style="fill:#ff0000;stroke:#ff0000;" x="211.564959" xlink:href="#m4182067215" y="124.026355"/>
     <use style="fill:#ff0000;stroke:#ff0000;" x="221.402975" xlink:href="#m4182067215" y="124.026355"/>
     <use style="fill:#ff0000;stroke:#ff0000;" x="231.240992" xlink:href="#m4182067215" y="124.026355"/>
     <use style="fill:#ff0000;stroke:#ff0000;" x="241.079008" xlink:href="#m4182067215" y="143.645985"/>
     <use style="fill:#ff0000;stroke:#ff0000;" x="250.917025" xlink:href="#m4182067215" y="143.645985"/>
     <use style="fill:#ff0000;stroke:#ff0000;" x="260.755041" xlink:href="#m4182067215" y="143.645985"/>
     <use style="fill:#ff0000;stroke:#ff0000;" x="270.593058" xlink:href="#m4182067215" y="53.920946"/>
     <use style="fill:#ff0000;stroke:#ff0000;" x="280.431074" xlink:href="#m4182067215" y="53.920946"/>
     <use style="fill:#ff0000;stroke:#ff0000;" x="290.269091" xlink:href="#m4182067215" y="147.189937"/>
     <use style="fill:#ff0000;stroke:#ff0000;" x="300.107107" xlink:href="#m4182067215" y="147.189937"/>
     <use style="fill:#ff0000;stroke:#ff0000;" x="309.945124" xlink:href="#m4182067215" y="53.568"/>
     <use style="fill:#ff0000;stroke:#ff0000;" x="319.78314" xlink:href="#m4182067215" y="53.568"/>
     <use style="fill:#ff0000;stroke:#ff0000;" x="329.621157" xlink:href="#m4182067215" y="53.568"/>
     <use style="fill:#ff0000;stroke:#ff0000;" x="339.459174" xlink:href="#m4182067215" y="85.360261"/>
     <use style="fill:#ff0000;stroke:#ff0000;" x="349.29719" xlink:href="#m4182067215" y="85.360261"/>
     <use style="fill:#ff0000;stroke:#ff0000;" x="359.135207" xlink:href="#m4182067215" y="56.866284"/>
     <use style="fill:#ff0000;stroke:#ff0000;" x="368.973223" xlink:href="#m4182067215" y="56.866284"/>
     <use style="fill:#ff0000;stroke:#ff0000;" x="378.81124" xlink:href="#m4182067215" y="86.199775"/>
     <use style="fill:#ff0000;stroke:#ff0000;" x="388.649256" xlink:href="#m4182067215" y="86.199775"/>
     <use style="fill:#ff0000;stroke:#ff0000;" x="398.487273" xlink:href="#m4182067215" y="86.199775"/>
    </g>
   </g>
   <g id="patch_3">
    <path d="M 57.6 307.584 
L 57.6 41.472 
" style="fill:none;stroke:#000000;stroke-linecap:square;stroke-linejoin:miter;stroke-width:0.8;"/>
   </g>
   <g id="patch_4">
    <path d="M 414.72 307.584 
L 414.72 41.472 
" style="fill:none;stroke:#000000;stroke-linecap:square;stroke-linejoin:miter;stroke-width:0.8;"/>
   </g>
   <g id="patch_5">
    <path d="M 57.6 307.584 
L 414.72 307.584 
" style="fill:none;stroke:#000000;stroke-linecap:square;stroke-linejoin:miter;stroke-width:0.8;"/>
   </g>
   <g id="patch_6">
    <path d="M 57.6 41.472 
L 414.72 41.472 
" style="fill:none;stroke:#000000;stroke-linecap:square;stroke-linejoin:miter;stroke-width:0.8;"/>
   </g>
  </g>
 </g>
 <defs>
  <clipPath id="p23243fbd31">
   <rect height="266.112" width="357.12" x="57.6" y="41.472"/>
  </clipPath>
 </defs>
</svg>
