<?xml version="1.0" encoding="utf-8" standalone="no"?>
<!DOCTYPE svg PUBLIC "-//W3C//DTD SVG 1.1//EN"
  "http://www.w3.org/Graphics/SVG/1.1/DTD/svg11.dtd">
<!-- Created with matplotlib (https://matplotlib.org/) -->
<svg height="345.6pt" version="1.1" viewBox="0 0 460.8 345.6" width="460.8pt" xmlns="http://www.w3.org/2000/svg" xmlns:xlink="http://www.w3.org/1999/xlink">
 <defs>
  <style type="text/css">
*{stroke-linecap:butt;stroke-linejoin:round;}
  </style>
 </defs>
 <g id="figure_1">
  <g id="patch_1">
   <path d="M 0 345.6 
L 460.8 345.6 
L 460.8 0 
L 0 0 
z
" style="fill:#ffffff;"/>
  </g>
  <g id="axes_1">
   <g id="patch_2">
    <path d="M 57.6 307.584 
L 414.72 307.584 
L 414.72 41.472 
L 57.6 41.472 
z
" style="fill:#ffffff;"/>
   </g>
   <g id="line2d_1">
    <path clip-path="url(#peb4b48df1c)" d="M 73.832727 294.500329 
L 75.64644 294.500329 
L 76.553296 220.66138 
L 80.180721 220.66138 
L 81.087577 295.488 
L 81.994434 295.488 
L 82.90129 294.88779 
L 83.808146 294.88779 
L 84.715003 226.139037 
L 85.621859 226.139037 
L 86.528715 156.17765 
L 88.342428 156.17765 
L 89.249284 172.118343 
L 91.062996 172.118343 
L 91.969853 99.21792 
L 92.876709 99.21792 
L 93.783565 174.997758 
L 94.690422 174.997758 
L 95.597278 98.931156 
L 97.41099 98.931156 
L 98.317847 124.761953 
L 99.224703 124.761953 
L 100.131559 101.610969 
L 101.038415 101.610969 
L 101.945272 125.444047 
L 102.852128 125.444047 
L 103.758984 126.135404 
L 104.665841 153.906219 
L 105.572697 153.906219 
L 106.479553 159.020076 
L 107.386409 159.020076 
L 108.293266 136.384679 
L 110.106978 136.384679 
L 111.013834 161.908562 
L 111.920691 161.908562 
L 112.827547 138.325756 
L 113.734403 138.325756 
L 114.64126 115.549709 
L 115.548116 115.549709 
L 116.454972 121.847986 
L 117.361828 121.847986 
L 118.268685 147.564965 
L 119.175541 147.564965 
L 120.082397 152.135558 
L 120.989253 175.841797 
L 122.802966 175.841797 
L 123.709822 200.985424 
L 126.430391 200.985424 
L 127.337247 179.008524 
L 128.244104 203.894748 
L 129.15096 203.894748 
L 130.057816 180.590264 
L 130.964672 180.590264 
L 131.871529 157.620267 
L 133.685241 157.620267 
L 134.592098 135.633104 
L 135.498954 135.633104 
L 136.40581 160.187187 
L 137.312666 160.187187 
L 138.219523 136.875814 
L 139.126379 136.875814 
L 140.033235 114.346549 
L 140.940091 114.346549 
L 141.846948 138.906955 
L 142.753804 138.906955 
L 143.66066 162.384018 
L 144.567517 139.84896 
L 145.474373 139.84896 
L 146.381229 136.070594 
L 150.91551 136.070594 
L 151.822367 114.605568 
L 152.729223 136.773064 
L 153.636079 136.773064 
L 154.542936 132.969385 
L 156.356648 132.969385 
L 157.263504 110.398259 
L 158.170361 110.398259 
L 159.077217 134.19473 
L 159.984073 134.19473 
L 160.890929 158.832007 
L 161.797786 138.761248 
L 162.704642 138.761248 
L 163.611498 165.199814 
L 164.518354 165.199814 
L 165.425211 140.615829 
L 166.332067 140.615829 
L 167.238923 134.872769 
L 168.14578 114.017197 
L 169.959492 114.017197 
L 170.866348 89.75753 
L 171.773205 117.578273 
L 174.493773 117.578273 
L 175.40063 95.017076 
L 183.562336 95.017076 
L 184.469192 102.359914 
L 185.376049 99.940938 
L 186.282905 99.940938 
L 187.189761 78.491913 
L 188.096618 78.491913 
L 189.003474 53.568 
L 189.91033 53.568 
L 190.817186 57.908333 
L 194.444611 57.908333 
L 195.351468 82.162078 
L 196.258324 82.162078 
L 197.16518 103.657717 
L 198.072037 131.6037 
L 198.978893 131.6037 
L 199.885749 107.566697 
L 200.792605 107.566697 
L 201.699462 85.413754 
L 202.606318 85.413754 
L 203.513174 109.321342 
L 204.42003 109.321342 
L 205.326887 136.43565 
L 206.233743 116.776589 
L 208.047456 116.776589 
L 208.954312 95.443365 
L 209.861168 119.89838 
L 211.674881 119.89838 
L 212.581737 99.941596 
L 213.488593 99.941596 
L 214.395449 123.14122 
L 215.302306 150.972885 
L 218.022875 150.972885 
L 218.929731 131.751068 
L 219.836587 131.751068 
L 220.743443 155.832328 
L 221.6503 155.832328 
L 222.557156 181.885868 
L 224.370868 181.885868 
L 225.277725 158.874978 
L 226.184581 158.874978 
L 227.091437 134.162526 
L 227.998294 134.162526 
L 228.90515 112.626626 
L 229.812006 117.140863 
L 230.718862 117.140863 
L 231.625719 95.814143 
L 232.532575 95.814143 
L 233.439431 120.977591 
L 234.346287 120.977591 
L 235.253144 96.172288 
L 237.066856 96.172288 
L 237.973713 67.887523 
L 238.880569 67.887523 
L 239.787425 92.019322 
L 240.694281 92.019322 
L 241.601138 91.551021 
L 398.487273 91.551021 
L 398.487273 91.551021 
" style="fill:none;stroke:#ff0000;stroke-linecap:square;stroke-width:12;"/>
    <defs>
     <path d="M 0 3 
C 0.795609 3 1.55874 2.683901 2.12132 2.12132 
C 2.683901 1.55874 3 0.795609 3 0 
C 3 -0.795609 2.683901 -1.55874 2.12132 -2.12132 
C 1.55874 -2.683901 0.795609 -3 0 -3 
C -0.795609 -3 -1.55874 -2.683901 -2.12132 -2.12132 
C -2.683901 -1.55874 -3 -0.795609 -3 0 
C -3 0.795609 -2.683901 1.55874 -2.12132 2.12132 
C -1.55874 2.683901 -0.795609 3 0 3 
z
" id="m98216b5aea" style="stroke:#ff0000;"/>
    </defs>
    <g clip-path="url(#peb4b48df1c)">
     <use style="fill:#ff0000;stroke:#ff0000;" x="73.832727" xlink:href="#m98216b5aea" y="294.500329"/>
     <use style="fill:#ff0000;stroke:#ff0000;" x="74.739584" xlink:href="#m98216b5aea" y="294.500329"/>
     <use style="fill:#ff0000;stroke:#ff0000;" x="75.64644" xlink:href="#m98216b5aea" y="294.500329"/>
     <use style="fill:#ff0000;stroke:#ff0000;" x="76.553296" xlink:href="#m98216b5aea" y="220.66138"/>
     <use style="fill:#ff0000;stroke:#ff0000;" x="77.460152" xlink:href="#m98216b5aea" y="220.66138"/>
     <use style="fill:#ff0000;stroke:#ff0000;" x="78.367009" xlink:href="#m98216b5aea" y="220.66138"/>
     <use style="fill:#ff0000;stroke:#ff0000;" x="79.273865" xlink:href="#m98216b5aea" y="220.66138"/>
     <use style="fill:#ff0000;stroke:#ff0000;" x="80.180721" xlink:href="#m98216b5aea" y="220.66138"/>
     <use style="fill:#ff0000;stroke:#ff0000;" x="81.087577" xlink:href="#m98216b5aea" y="295.488"/>
     <use style="fill:#ff0000;stroke:#ff0000;" x="81.994434" xlink:href="#m98216b5aea" y="295.488"/>
     <use style="fill:#ff0000;stroke:#ff0000;" x="82.90129" xlink:href="#m98216b5aea" y="294.88779"/>
     <use style="fill:#ff0000;stroke:#ff0000;" x="83.808146" xlink:href="#m98216b5aea" y="294.88779"/>
     <use style="fill:#ff0000;stroke:#ff0000;" x="84.715003" xlink:href="#m98216b5aea" y="226.139037"/>
     <use style="fill:#ff0000;stroke:#ff0000;" x="85.621859" xlink:href="#m98216b5aea" y="226.139037"/>
     <use style="fill:#ff0000;stroke:#ff0000;" x="86.528715" xlink:href="#m98216b5aea" y="156.17765"/>
     <use style="fill:#ff0000;stroke:#ff0000;" x="87.435571" xlink:href="#m98216b5aea" y="156.17765"/>
     <use style="fill:#ff0000;stroke:#ff0000;" x="88.342428" xlink:href="#m98216b5aea" y="156.17765"/>
     <use style="fill:#ff0000;stroke:#ff0000;" x="89.249284" xlink:href="#m98216b5aea" y="172.118343"/>
     <use style="fill:#ff0000;stroke:#ff0000;" x="90.15614" xlink:href="#m98216b5aea" y="172.118343"/>
     <use style="fill:#ff0000;stroke:#ff0000;" x="91.062996" xlink:href="#m98216b5aea" y="172.118343"/>
     <use style="fill:#ff0000;stroke:#ff0000;" x="91.969853" xlink:href="#m98216b5aea" y="99.21792"/>
     <use style="fill:#ff0000;stroke:#ff0000;" x="92.876709" xlink:href="#m98216b5aea" y="99.21792"/>
     <use style="fill:#ff0000;stroke:#ff0000;" x="93.783565" xlink:href="#m98216b5aea" y="174.997758"/>
     <use style="fill:#ff0000;stroke:#ff0000;" x="94.690422" xlink:href="#m98216b5aea" y="174.997758"/>
     <use style="fill:#ff0000;stroke:#ff0000;" x="95.597278" xlink:href="#m98216b5aea" y="98.931156"/>
     <use style="fill:#ff0000;stroke:#ff0000;" x="96.504134" xlink:href="#m98216b5aea" y="98.931156"/>
     <use style="fill:#ff0000;stroke:#ff0000;" x="97.41099" xlink:href="#m98216b5aea" y="98.931156"/>
     <use style="fill:#ff0000;stroke:#ff0000;" x="98.317847" xlink:href="#m98216b5aea" y="124.761953"/>
     <use style="fill:#ff0000;stroke:#ff0000;" x="99.224703" xlink:href="#m98216b5aea" y="124.761953"/>
     <use style="fill:#ff0000;stroke:#ff0000;" x="100.131559" xlink:href="#m98216b5aea" y="101.610969"/>
     <use style="fill:#ff0000;stroke:#ff0000;" x="101.038415" xlink:href="#m98216b5aea" y="101.610969"/>
     <use style="fill:#ff0000;stroke:#ff0000;" x="101.945272" xlink:href="#m98216b5aea" y="125.444047"/>
     <use style="fill:#ff0000;stroke:#ff0000;" x="102.852128" xlink:href="#m98216b5aea" y="125.444047"/>
     <use style="fill:#ff0000;stroke:#ff0000;" x="103.758984" xlink:href="#m98216b5aea" y="126.135404"/>
     <use style="fill:#ff0000;stroke:#ff0000;" x="104.665841" xlink:href="#m98216b5aea" y="153.906219"/>
     <use style="fill:#ff0000;stroke:#ff0000;" x="105.572697" xlink:href="#m98216b5aea" y="153.906219"/>
     <use style="fill:#ff0000;stroke:#ff0000;" x="106.479553" xlink:href="#m98216b5aea" y="159.020076"/>
     <use style="fill:#ff0000;stroke:#ff0000;" x="107.386409" xlink:href="#m98216b5aea" y="159.020076"/>
     <use style="fill:#ff0000;stroke:#ff0000;" x="108.293266" xlink:href="#m98216b5aea" y="136.384679"/>
     <use style="fill:#ff0000;stroke:#ff0000;" x="109.200122" xlink:href="#m98216b5aea" y="136.384679"/>
     <use style="fill:#ff0000;stroke:#ff0000;" x="110.106978" xlink:href="#m98216b5aea" y="136.384679"/>
     <use style="fill:#ff0000;stroke:#ff0000;" x="111.013834" xlink:href="#m98216b5aea" y="161.908562"/>
     <use style="fill:#ff0000;stroke:#ff0000;" x="111.920691" xlink:href="#m98216b5aea" y="161.908562"/>
     <use style="fill:#ff0000;stroke:#ff0000;" x="112.827547" xlink:href="#m98216b5aea" y="138.325756"/>
     <use style="fill:#ff0000;stroke:#ff0000;" x="113.734403" xlink:href="#m98216b5aea" y="138.325756"/>
     <use style="fill:#ff0000;stroke:#ff0000;" x="114.64126" xlink:href="#m98216b5aea" y="115.549709"/>
     <use style="fill:#ff0000;stroke:#ff0000;" x="115.548116" xlink:href="#m98216b5aea" y="115.549709"/>
     <use style="fill:#ff0000;stroke:#ff0000;" x="116.454972" xlink:href="#m98216b5aea" y="121.847986"/>
     <use style="fill:#ff0000;stroke:#ff0000;" x="117.361828" xlink:href="#m98216b5aea" y="121.847986"/>
     <use style="fill:#ff0000;stroke:#ff0000;" x="118.268685" xlink:href="#m98216b5aea" y="147.564965"/>
     <use style="fill:#ff0000;stroke:#ff0000;" x="119.175541" xlink:href="#m98216b5aea" y="147.564965"/>
     <use style="fill:#ff0000;stroke:#ff0000;" x="120.082397" xlink:href="#m98216b5aea" y="152.135558"/>
     <use style="fill:#ff0000;stroke:#ff0000;" x="120.989253" xlink:href="#m98216b5aea" y="175.841797"/>
     <use style="fill:#ff0000;stroke:#ff0000;" x="121.89611" xlink:href="#m98216b5aea" y="175.841797"/>
     <use style="fill:#ff0000;stroke:#ff0000;" x="122.802966" xlink:href="#m98216b5aea" y="175.841797"/>
     <use style="fill:#ff0000;stroke:#ff0000;" x="123.709822" xlink:href="#m98216b5aea" y="200.985424"/>
     <use style="fill:#ff0000;stroke:#ff0000;" x="124.616679" xlink:href="#m98216b5aea" y="200.985424"/>
     <use style="fill:#ff0000;stroke:#ff0000;" x="125.523535" xlink:href="#m98216b5aea" y="200.985424"/>
     <use style="fill:#ff0000;stroke:#ff0000;" x="126.430391" xlink:href="#m98216b5aea" y="200.985424"/>
     <use style="fill:#ff0000;stroke:#ff0000;" x="127.337247" xlink:href="#m98216b5aea" y="179.008524"/>
     <use style="fill:#ff0000;stroke:#ff0000;" x="128.244104" xlink:href="#m98216b5aea" y="203.894748"/>
     <use style="fill:#ff0000;stroke:#ff0000;" x="129.15096" xlink:href="#m98216b5aea" y="203.894748"/>
     <use style="fill:#ff0000;stroke:#ff0000;" x="130.057816" xlink:href="#m98216b5aea" y="180.590264"/>
     <use style="fill:#ff0000;stroke:#ff0000;" x="130.964672" xlink:href="#m98216b5aea" y="180.590264"/>
     <use style="fill:#ff0000;stroke:#ff0000;" x="131.871529" xlink:href="#m98216b5aea" y="157.620267"/>
     <use style="fill:#ff0000;stroke:#ff0000;" x="132.778385" xlink:href="#m98216b5aea" y="157.620267"/>
     <use style="fill:#ff0000;stroke:#ff0000;" x="133.685241" xlink:href="#m98216b5aea" y="157.620267"/>
     <use style="fill:#ff0000;stroke:#ff0000;" x="134.592098" xlink:href="#m98216b5aea" y="135.633104"/>
     <use style="fill:#ff0000;stroke:#ff0000;" x="135.498954" xlink:href="#m98216b5aea" y="135.633104"/>
     <use style="fill:#ff0000;stroke:#ff0000;" x="136.40581" xlink:href="#m98216b5aea" y="160.187187"/>
     <use style="fill:#ff0000;stroke:#ff0000;" x="137.312666" xlink:href="#m98216b5aea" y="160.187187"/>
     <use style="fill:#ff0000;stroke:#ff0000;" x="138.219523" xlink:href="#m98216b5aea" y="136.875814"/>
     <use style="fill:#ff0000;stroke:#ff0000;" x="139.126379" xlink:href="#m98216b5aea" y="136.875814"/>
     <use style="fill:#ff0000;stroke:#ff0000;" x="140.033235" xlink:href="#m98216b5aea" y="114.346549"/>
     <use style="fill:#ff0000;stroke:#ff0000;" x="140.940091" xlink:href="#m98216b5aea" y="114.346549"/>
     <use style="fill:#ff0000;stroke:#ff0000;" x="141.846948" xlink:href="#m98216b5aea" y="138.906955"/>
     <use style="fill:#ff0000;stroke:#ff0000;" x="142.753804" xlink:href="#m98216b5aea" y="138.906955"/>
     <use style="fill:#ff0000;stroke:#ff0000;" x="143.66066" xlink:href="#m98216b5aea" y="162.384018"/>
     <use style="fill:#ff0000;stroke:#ff0000;" x="144.567517" xlink:href="#m98216b5aea" y="139.84896"/>
     <use style="fill:#ff0000;stroke:#ff0000;" x="145.474373" xlink:href="#m98216b5aea" y="139.84896"/>
     <use style="fill:#ff0000;stroke:#ff0000;" x="146.381229" xlink:href="#m98216b5aea" y="136.070594"/>
     <use style="fill:#ff0000;stroke:#ff0000;" x="147.288085" xlink:href="#m98216b5aea" y="136.070594"/>
     <use style="fill:#ff0000;stroke:#ff0000;" x="148.194942" xlink:href="#m98216b5aea" y="136.070594"/>
     <use style="fill:#ff0000;stroke:#ff0000;" x="149.101798" xlink:href="#m98216b5aea" y="136.070594"/>
     <use style="fill:#ff0000;stroke:#ff0000;" x="150.008654" xlink:href="#m98216b5aea" y="136.070594"/>
     <use style="fill:#ff0000;stroke:#ff0000;" x="150.91551" xlink:href="#m98216b5aea" y="136.070594"/>
     <use style="fill:#ff0000;stroke:#ff0000;" x="151.822367" xlink:href="#m98216b5aea" y="114.605568"/>
     <use style="fill:#ff0000;stroke:#ff0000;" x="152.729223" xlink:href="#m98216b5aea" y="136.773064"/>
     <use style="fill:#ff0000;stroke:#ff0000;" x="153.636079" xlink:href="#m98216b5aea" y="136.773064"/>
     <use style="fill:#ff0000;stroke:#ff0000;" x="154.542936" xlink:href="#m98216b5aea" y="132.969385"/>
     <use style="fill:#ff0000;stroke:#ff0000;" x="155.449792" xlink:href="#m98216b5aea" y="132.969385"/>
     <use style="fill:#ff0000;stroke:#ff0000;" x="156.356648" xlink:href="#m98216b5aea" y="132.969385"/>
     <use style="fill:#ff0000;stroke:#ff0000;" x="157.263504" xlink:href="#m98216b5aea" y="110.398259"/>
     <use style="fill:#ff0000;stroke:#ff0000;" x="158.170361" xlink:href="#m98216b5aea" y="110.398259"/>
     <use style="fill:#ff0000;stroke:#ff0000;" x="159.077217" xlink:href="#m98216b5aea" y="134.19473"/>
     <use style="fill:#ff0000;stroke:#ff0000;" x="159.984073" xlink:href="#m98216b5aea" y="134.19473"/>
     <use style="fill:#ff0000;stroke:#ff0000;" x="160.890929" xlink:href="#m98216b5aea" y="158.832007"/>
     <use style="fill:#ff0000;stroke:#ff0000;" x="161.797786" xlink:href="#m98216b5aea" y="138.761248"/>
     <use style="fill:#ff0000;stroke:#ff0000;" x="162.704642" xlink:href="#m98216b5aea" y="138.761248"/>
     <use style="fill:#ff0000;stroke:#ff0000;" x="163.611498" xlink:href="#m98216b5aea" y="165.199814"/>
     <use style="fill:#ff0000;stroke:#ff0000;" x="164.518354" xlink:href="#m98216b5aea" y="165.199814"/>
     <use style="fill:#ff0000;stroke:#ff0000;" x="165.425211" xlink:href="#m98216b5aea" y="140.615829"/>
     <use style="fill:#ff0000;stroke:#ff0000;" x="166.332067" xlink:href="#m98216b5aea" y="140.615829"/>
     <use style="fill:#ff0000;stroke:#ff0000;" x="167.238923" xlink:href="#m98216b5aea" y="134.872769"/>
     <use style="fill:#ff0000;stroke:#ff0000;" x="168.14578" xlink:href="#m98216b5aea" y="114.017197"/>
     <use style="fill:#ff0000;stroke:#ff0000;" x="169.052636" xlink:href="#m98216b5aea" y="114.017197"/>
     <use style="fill:#ff0000;stroke:#ff0000;" x="169.959492" xlink:href="#m98216b5aea" y="114.017197"/>
     <use style="fill:#ff0000;stroke:#ff0000;" x="170.866348" xlink:href="#m98216b5aea" y="89.75753"/>
     <use style="fill:#ff0000;stroke:#ff0000;" x="171.773205" xlink:href="#m98216b5aea" y="117.578273"/>
     <use style="fill:#ff0000;stroke:#ff0000;" x="172.680061" xlink:href="#m98216b5aea" y="117.578273"/>
     <use style="fill:#ff0000;stroke:#ff0000;" x="173.586917" xlink:href="#m98216b5aea" y="117.578273"/>
     <use style="fill:#ff0000;stroke:#ff0000;" x="174.493773" xlink:href="#m98216b5aea" y="117.578273"/>
     <use style="fill:#ff0000;stroke:#ff0000;" x="175.40063" xlink:href="#m98216b5aea" y="95.017076"/>
     <use style="fill:#ff0000;stroke:#ff0000;" x="176.307486" xlink:href="#m98216b5aea" y="95.017076"/>
     <use style="fill:#ff0000;stroke:#ff0000;" x="177.214342" xlink:href="#m98216b5aea" y="95.017076"/>
     <use style="fill:#ff0000;stroke:#ff0000;" x="178.121199" xlink:href="#m98216b5aea" y="95.017076"/>
     <use style="fill:#ff0000;stroke:#ff0000;" x="179.028055" xlink:href="#m98216b5aea" y="95.017076"/>
     <use style="fill:#ff0000;stroke:#ff0000;" x="179.934911" xlink:href="#m98216b5aea" y="95.017076"/>
     <use style="fill:#ff0000;stroke:#ff0000;" x="180.841767" xlink:href="#m98216b5aea" y="95.017076"/>
     <use style="fill:#ff0000;stroke:#ff0000;" x="181.748624" xlink:href="#m98216b5aea" y="95.017076"/>
     <use style="fill:#ff0000;stroke:#ff0000;" x="182.65548" xlink:href="#m98216b5aea" y="95.017076"/>
     <use style="fill:#ff0000;stroke:#ff0000;" x="183.562336" xlink:href="#m98216b5aea" y="95.017076"/>
     <use style="fill:#ff0000;stroke:#ff0000;" x="184.469192" xlink:href="#m98216b5aea" y="102.359914"/>
     <use style="fill:#ff0000;stroke:#ff0000;" x="185.376049" xlink:href="#m98216b5aea" y="99.940938"/>
     <use style="fill:#ff0000;stroke:#ff0000;" x="186.282905" xlink:href="#m98216b5aea" y="99.940938"/>
     <use style="fill:#ff0000;stroke:#ff0000;" x="187.189761" xlink:href="#m98216b5aea" y="78.491913"/>
     <use style="fill:#ff0000;stroke:#ff0000;" x="188.096618" xlink:href="#m98216b5aea" y="78.491913"/>
     <use style="fill:#ff0000;stroke:#ff0000;" x="189.003474" xlink:href="#m98216b5aea" y="53.568"/>
     <use style="fill:#ff0000;stroke:#ff0000;" x="189.91033" xlink:href="#m98216b5aea" y="53.568"/>
     <use style="fill:#ff0000;stroke:#ff0000;" x="190.817186" xlink:href="#m98216b5aea" y="57.908333"/>
     <use style="fill:#ff0000;stroke:#ff0000;" x="191.724043" xlink:href="#m98216b5aea" y="57.908333"/>
     <use style="fill:#ff0000;stroke:#ff0000;" x="192.630899" xlink:href="#m98216b5aea" y="57.908333"/>
     <use style="fill:#ff0000;stroke:#ff0000;" x="193.537755" xlink:href="#m98216b5aea" y="57.908333"/>
     <use style="fill:#ff0000;stroke:#ff0000;" x="194.444611" xlink:href="#m98216b5aea" y="57.908333"/>
     <use style="fill:#ff0000;stroke:#ff0000;" x="195.351468" xlink:href="#m98216b5aea" y="82.162078"/>
     <use style="fill:#ff0000;stroke:#ff0000;" x="196.258324" xlink:href="#m98216b5aea" y="82.162078"/>
     <use style="fill:#ff0000;stroke:#ff0000;" x="197.16518" xlink:href="#m98216b5aea" y="103.657717"/>
     <use style="fill:#ff0000;stroke:#ff0000;" x="198.072037" xlink:href="#m98216b5aea" y="131.6037"/>
     <use style="fill:#ff0000;stroke:#ff0000;" x="198.978893" xlink:href="#m98216b5aea" y="131.6037"/>
     <use style="fill:#ff0000;stroke:#ff0000;" x="199.885749" xlink:href="#m98216b5aea" y="107.566697"/>
     <use style="fill:#ff0000;stroke:#ff0000;" x="200.792605" xlink:href="#m98216b5aea" y="107.566697"/>
     <use style="fill:#ff0000;stroke:#ff0000;" x="201.699462" xlink:href="#m98216b5aea" y="85.413754"/>
     <use style="fill:#ff0000;stroke:#ff0000;" x="202.606318" xlink:href="#m98216b5aea" y="85.413754"/>
     <use style="fill:#ff0000;stroke:#ff0000;" x="203.513174" xlink:href="#m98216b5aea" y="109.321342"/>
     <use style="fill:#ff0000;stroke:#ff0000;" x="204.42003" xlink:href="#m98216b5aea" y="109.321342"/>
     <use style="fill:#ff0000;stroke:#ff0000;" x="205.326887" xlink:href="#m98216b5aea" y="136.43565"/>
     <use style="fill:#ff0000;stroke:#ff0000;" x="206.233743" xlink:href="#m98216b5aea" y="116.776589"/>
     <use style="fill:#ff0000;stroke:#ff0000;" x="207.140599" xlink:href="#m98216b5aea" y="116.776589"/>
     <use style="fill:#ff0000;stroke:#ff0000;" x="208.047456" xlink:href="#m98216b5aea" y="116.776589"/>
     <use style="fill:#ff0000;stroke:#ff0000;" x="208.954312" xlink:href="#m98216b5aea" y="95.443365"/>
     <use style="fill:#ff0000;stroke:#ff0000;" x="209.861168" xlink:href="#m98216b5aea" y="119.89838"/>
     <use style="fill:#ff0000;stroke:#ff0000;" x="210.768024" xlink:href="#m98216b5aea" y="119.89838"/>
     <use style="fill:#ff0000;stroke:#ff0000;" x="211.674881" xlink:href="#m98216b5aea" y="119.89838"/>
     <use style="fill:#ff0000;stroke:#ff0000;" x="212.581737" xlink:href="#m98216b5aea" y="99.941596"/>
     <use style="fill:#ff0000;stroke:#ff0000;" x="213.488593" xlink:href="#m98216b5aea" y="99.941596"/>
     <use style="fill:#ff0000;stroke:#ff0000;" x="214.395449" xlink:href="#m98216b5aea" y="123.14122"/>
     <use style="fill:#ff0000;stroke:#ff0000;" x="215.302306" xlink:href="#m98216b5aea" y="150.972885"/>
     <use style="fill:#ff0000;stroke:#ff0000;" x="216.209162" xlink:href="#m98216b5aea" y="150.972885"/>
     <use style="fill:#ff0000;stroke:#ff0000;" x="217.116018" xlink:href="#m98216b5aea" y="150.972885"/>
     <use style="fill:#ff0000;stroke:#ff0000;" x="218.022875" xlink:href="#m98216b5aea" y="150.972885"/>
     <use style="fill:#ff0000;stroke:#ff0000;" x="218.929731" xlink:href="#m98216b5aea" y="131.751068"/>
     <use style="fill:#ff0000;stroke:#ff0000;" x="219.836587" xlink:href="#m98216b5aea" y="131.751068"/>
     <use style="fill:#ff0000;stroke:#ff0000;" x="220.743443" xlink:href="#m98216b5aea" y="155.832328"/>
     <use style="fill:#ff0000;stroke:#ff0000;" x="221.6503" xlink:href="#m98216b5aea" y="155.832328"/>
     <use style="fill:#ff0000;stroke:#ff0000;" x="222.557156" xlink:href="#m98216b5aea" y="181.885868"/>
     <use style="fill:#ff0000;stroke:#ff0000;" x="223.464012" xlink:href="#m98216b5aea" y="181.885868"/>
     <use style="fill:#ff0000;stroke:#ff0000;" x="224.370868" xlink:href="#m98216b5aea" y="181.885868"/>
     <use style="fill:#ff0000;stroke:#ff0000;" x="225.277725" xlink:href="#m98216b5aea" y="158.874978"/>
     <use style="fill:#ff0000;stroke:#ff0000;" x="226.184581" xlink:href="#m98216b5aea" y="158.874978"/>
     <use style="fill:#ff0000;stroke:#ff0000;" x="227.091437" xlink:href="#m98216b5aea" y="134.162526"/>
     <use style="fill:#ff0000;stroke:#ff0000;" x="227.998294" xlink:href="#m98216b5aea" y="134.162526"/>
     <use style="fill:#ff0000;stroke:#ff0000;" x="228.90515" xlink:href="#m98216b5aea" y="112.626626"/>
     <use style="fill:#ff0000;stroke:#ff0000;" x="229.812006" xlink:href="#m98216b5aea" y="117.140863"/>
     <use style="fill:#ff0000;stroke:#ff0000;" x="230.718862" xlink:href="#m98216b5aea" y="117.140863"/>
     <use style="fill:#ff0000;stroke:#ff0000;" x="231.625719" xlink:href="#m98216b5aea" y="95.814143"/>
     <use style="fill:#ff0000;stroke:#ff0000;" x="232.532575" xlink:href="#m98216b5aea" y="95.814143"/>
     <use style="fill:#ff0000;stroke:#ff0000;" x="233.439431" xlink:href="#m98216b5aea" y="120.977591"/>
     <use style="fill:#ff0000;stroke:#ff0000;" x="234.346287" xlink:href="#m98216b5aea" y="120.977591"/>
     <use style="fill:#ff0000;stroke:#ff0000;" x="235.253144" xlink:href="#m98216b5aea" y="96.172288"/>
     <use style="fill:#ff0000;stroke:#ff0000;" x="236.16" xlink:href="#m98216b5aea" y="96.172288"/>
     <use style="fill:#ff0000;stroke:#ff0000;" x="237.066856" xlink:href="#m98216b5aea" y="96.172288"/>
     <use style="fill:#ff0000;stroke:#ff0000;" x="237.973713" xlink:href="#m98216b5aea" y="67.887523"/>
     <use style="fill:#ff0000;stroke:#ff0000;" x="238.880569" xlink:href="#m98216b5aea" y="67.887523"/>
     <use style="fill:#ff0000;stroke:#ff0000;" x="239.787425" xlink:href="#m98216b5aea" y="92.019322"/>
     <use style="fill:#ff0000;stroke:#ff0000;" x="240.694281" xlink:href="#m98216b5aea" y="92.019322"/>
     <use style="fill:#ff0000;stroke:#ff0000;" x="241.601138" xlink:href="#m98216b5aea" y="91.551021"/>
     <use style="fill:#ff0000;stroke:#ff0000;" x="242.507994" xlink:href="#m98216b5aea" y="91.551021"/>
     <use style="fill:#ff0000;stroke:#ff0000;" x="243.41485" xlink:href="#m98216b5aea" y="91.551021"/>
     <use style="fill:#ff0000;stroke:#ff0000;" x="244.321706" xlink:href="#m98216b5aea" y="91.551021"/>
     <use style="fill:#ff0000;stroke:#ff0000;" x="245.228563" xlink:href="#m98216b5aea" y="91.551021"/>
     <use style="fill:#ff0000;stroke:#ff0000;" x="246.135419" xlink:href="#m98216b5aea" y="91.551021"/>
     <use style="fill:#ff0000;stroke:#ff0000;" x="247.042275" xlink:href="#m98216b5aea" y="91.551021"/>
     <use style="fill:#ff0000;stroke:#ff0000;" x="247.949132" xlink:href="#m98216b5aea" y="91.551021"/>
     <use style="fill:#ff0000;stroke:#ff0000;" x="248.855988" xlink:href="#m98216b5aea" y="91.551021"/>
     <use style="fill:#ff0000;stroke:#ff0000;" x="249.762844" xlink:href="#m98216b5aea" y="91.551021"/>
     <use style="fill:#ff0000;stroke:#ff0000;" x="250.6697" xlink:href="#m98216b5aea" y="91.551021"/>
     <use style="fill:#ff0000;stroke:#ff0000;" x="251.576557" xlink:href="#m98216b5aea" y="91.551021"/>
     <use style="fill:#ff0000;stroke:#ff0000;" x="252.483413" xlink:href="#m98216b5aea" y="91.551021"/>
     <use style="fill:#ff0000;stroke:#ff0000;" x="253.390269" xlink:href="#m98216b5aea" y="91.551021"/>
     <use style="fill:#ff0000;stroke:#ff0000;" x="254.297125" xlink:href="#m98216b5aea" y="91.551021"/>
     <use style="fill:#ff0000;stroke:#ff0000;" x="255.203982" xlink:href="#m98216b5aea" y="91.551021"/>
     <use style="fill:#ff0000;stroke:#ff0000;" x="256.110838" xlink:href="#m98216b5aea" y="91.551021"/>
     <use style="fill:#ff0000;stroke:#ff0000;" x="257.017694" xlink:href="#m98216b5aea" y="91.551021"/>
     <use style="fill:#ff0000;stroke:#ff0000;" x="257.924551" xlink:href="#m98216b5aea" y="91.551021"/>
     <use style="fill:#ff0000;stroke:#ff0000;" x="258.831407" xlink:href="#m98216b5aea" y="91.551021"/>
     <use style="fill:#ff0000;stroke:#ff0000;" x="259.738263" xlink:href="#m98216b5aea" y="91.551021"/>
     <use style="fill:#ff0000;stroke:#ff0000;" x="260.645119" xlink:href="#m98216b5aea" y="91.551021"/>
     <use style="fill:#ff0000;stroke:#ff0000;" x="261.551976" xlink:href="#m98216b5aea" y="91.551021"/>
     <use style="fill:#ff0000;stroke:#ff0000;" x="262.458832" xlink:href="#m98216b5aea" y="91.551021"/>
     <use style="fill:#ff0000;stroke:#ff0000;" x="263.365688" xlink:href="#m98216b5aea" y="91.551021"/>
     <use style="fill:#ff0000;stroke:#ff0000;" x="264.272544" xlink:href="#m98216b5aea" y="91.551021"/>
     <use style="fill:#ff0000;stroke:#ff0000;" x="265.179401" xlink:href="#m98216b5aea" y="91.551021"/>
     <use style="fill:#ff0000;stroke:#ff0000;" x="266.086257" xlink:href="#m98216b5aea" y="91.551021"/>
     <use style="fill:#ff0000;stroke:#ff0000;" x="266.993113" xlink:href="#m98216b5aea" y="91.551021"/>
     <use style="fill:#ff0000;stroke:#ff0000;" x="267.89997" xlink:href="#m98216b5aea" y="91.551021"/>
     <use style="fill:#ff0000;stroke:#ff0000;" x="268.806826" xlink:href="#m98216b5aea" y="91.551021"/>
     <use style="fill:#ff0000;stroke:#ff0000;" x="269.713682" xlink:href="#m98216b5aea" y="91.551021"/>
     <use style="fill:#ff0000;stroke:#ff0000;" x="270.620538" xlink:href="#m98216b5aea" y="91.551021"/>
     <use style="fill:#ff0000;stroke:#ff0000;" x="271.527395" xlink:href="#m98216b5aea" y="91.551021"/>
     <use style="fill:#ff0000;stroke:#ff0000;" x="272.434251" xlink:href="#m98216b5aea" y="91.551021"/>
     <use style="fill:#ff0000;stroke:#ff0000;" x="273.341107" xlink:href="#m98216b5aea" y="91.551021"/>
     <use style="fill:#ff0000;stroke:#ff0000;" x="274.247963" xlink:href="#m98216b5aea" y="91.551021"/>
     <use style="fill:#ff0000;stroke:#ff0000;" x="275.15482" xlink:href="#m98216b5aea" y="91.551021"/>
     <use style="fill:#ff0000;stroke:#ff0000;" x="276.061676" xlink:href="#m98216b5aea" y="91.551021"/>
     <use style="fill:#ff0000;stroke:#ff0000;" x="276.968532" xlink:href="#m98216b5aea" y="91.551021"/>
     <use style="fill:#ff0000;stroke:#ff0000;" x="277.875389" xlink:href="#m98216b5aea" y="91.551021"/>
     <use style="fill:#ff0000;stroke:#ff0000;" x="278.782245" xlink:href="#m98216b5aea" y="91.551021"/>
     <use style="fill:#ff0000;stroke:#ff0000;" x="279.689101" xlink:href="#m98216b5aea" y="91.551021"/>
     <use style="fill:#ff0000;stroke:#ff0000;" x="280.595957" xlink:href="#m98216b5aea" y="91.551021"/>
     <use style="fill:#ff0000;stroke:#ff0000;" x="281.502814" xlink:href="#m98216b5aea" y="91.551021"/>
     <use style="fill:#ff0000;stroke:#ff0000;" x="282.40967" xlink:href="#m98216b5aea" y="91.551021"/>
     <use style="fill:#ff0000;stroke:#ff0000;" x="283.316526" xlink:href="#m98216b5aea" y="91.551021"/>
     <use style="fill:#ff0000;stroke:#ff0000;" x="284.223382" xlink:href="#m98216b5aea" y="91.551021"/>
     <use style="fill:#ff0000;stroke:#ff0000;" x="285.130239" xlink:href="#m98216b5aea" y="91.551021"/>
     <use style="fill:#ff0000;stroke:#ff0000;" x="286.037095" xlink:href="#m98216b5aea" y="91.551021"/>
     <use style="fill:#ff0000;stroke:#ff0000;" x="286.943951" xlink:href="#m98216b5aea" y="91.551021"/>
     <use style="fill:#ff0000;stroke:#ff0000;" x="287.850808" xlink:href="#m98216b5aea" y="91.551021"/>
     <use style="fill:#ff0000;stroke:#ff0000;" x="288.757664" xlink:href="#m98216b5aea" y="91.551021"/>
     <use style="fill:#ff0000;stroke:#ff0000;" x="289.66452" xlink:href="#m98216b5aea" y="91.551021"/>
     <use style="fill:#ff0000;stroke:#ff0000;" x="290.571376" xlink:href="#m98216b5aea" y="91.551021"/>
     <use style="fill:#ff0000;stroke:#ff0000;" x="291.478233" xlink:href="#m98216b5aea" y="91.551021"/>
     <use style="fill:#ff0000;stroke:#ff0000;" x="292.385089" xlink:href="#m98216b5aea" y="91.551021"/>
     <use style="fill:#ff0000;stroke:#ff0000;" x="293.291945" xlink:href="#m98216b5aea" y="91.551021"/>
     <use style="fill:#ff0000;stroke:#ff0000;" x="294.198801" xlink:href="#m98216b5aea" y="91.551021"/>
     <use style="fill:#ff0000;stroke:#ff0000;" x="295.105658" xlink:href="#m98216b5aea" y="91.551021"/>
     <use style="fill:#ff0000;stroke:#ff0000;" x="296.012514" xlink:href="#m98216b5aea" y="91.551021"/>
     <use style="fill:#ff0000;stroke:#ff0000;" x="296.91937" xlink:href="#m98216b5aea" y="91.551021"/>
     <use style="fill:#ff0000;stroke:#ff0000;" x="297.826227" xlink:href="#m98216b5aea" y="91.551021"/>
     <use style="fill:#ff0000;stroke:#ff0000;" x="298.733083" xlink:href="#m98216b5aea" y="91.551021"/>
     <use style="fill:#ff0000;stroke:#ff0000;" x="299.639939" xlink:href="#m98216b5aea" y="91.551021"/>
     <use style="fill:#ff0000;stroke:#ff0000;" x="300.546795" xlink:href="#m98216b5aea" y="91.551021"/>
     <use style="fill:#ff0000;stroke:#ff0000;" x="301.453652" xlink:href="#m98216b5aea" y="91.551021"/>
     <use style="fill:#ff0000;stroke:#ff0000;" x="302.360508" xlink:href="#m98216b5aea" y="91.551021"/>
     <use style="fill:#ff0000;stroke:#ff0000;" x="303.267364" xlink:href="#m98216b5aea" y="91.551021"/>
     <use style="fill:#ff0000;stroke:#ff0000;" x="304.17422" xlink:href="#m98216b5aea" y="91.551021"/>
     <use style="fill:#ff0000;stroke:#ff0000;" x="305.081077" xlink:href="#m98216b5aea" y="91.551021"/>
     <use style="fill:#ff0000;stroke:#ff0000;" x="305.987933" xlink:href="#m98216b5aea" y="91.551021"/>
     <use style="fill:#ff0000;stroke:#ff0000;" x="306.894789" xlink:href="#m98216b5aea" y="91.551021"/>
     <use style="fill:#ff0000;stroke:#ff0000;" x="307.801646" xlink:href="#m98216b5aea" y="91.551021"/>
     <use style="fill:#ff0000;stroke:#ff0000;" x="308.708502" xlink:href="#m98216b5aea" y="91.551021"/>
     <use style="fill:#ff0000;stroke:#ff0000;" x="309.615358" xlink:href="#m98216b5aea" y="91.551021"/>
     <use style="fill:#ff0000;stroke:#ff0000;" x="310.522214" xlink:href="#m98216b5aea" y="91.551021"/>
     <use style="fill:#ff0000;stroke:#ff0000;" x="311.429071" xlink:href="#m98216b5aea" y="91.551021"/>
     <use style="fill:#ff0000;stroke:#ff0000;" x="312.335927" xlink:href="#m98216b5aea" y="91.551021"/>
     <use style="fill:#ff0000;stroke:#ff0000;" x="313.242783" xlink:href="#m98216b5aea" y="91.551021"/>
     <use style="fill:#ff0000;stroke:#ff0000;" x="314.149639" xlink:href="#m98216b5aea" y="91.551021"/>
     <use style="fill:#ff0000;stroke:#ff0000;" x="315.056496" xlink:href="#m98216b5aea" y="91.551021"/>
     <use style="fill:#ff0000;stroke:#ff0000;" x="315.963352" xlink:href="#m98216b5aea" y="91.551021"/>
     <use style="fill:#ff0000;stroke:#ff0000;" x="316.870208" xlink:href="#m98216b5aea" y="91.551021"/>
     <use style="fill:#ff0000;stroke:#ff0000;" x="317.777064" xlink:href="#m98216b5aea" y="91.551021"/>
     <use style="fill:#ff0000;stroke:#ff0000;" x="318.683921" xlink:href="#m98216b5aea" y="91.551021"/>
     <use style="fill:#ff0000;stroke:#ff0000;" x="319.590777" xlink:href="#m98216b5aea" y="91.551021"/>
     <use style="fill:#ff0000;stroke:#ff0000;" x="320.497633" xlink:href="#m98216b5aea" y="91.551021"/>
     <use style="fill:#ff0000;stroke:#ff0000;" x="321.40449" xlink:href="#m98216b5aea" y="91.551021"/>
     <use style="fill:#ff0000;stroke:#ff0000;" x="322.311346" xlink:href="#m98216b5aea" y="91.551021"/>
     <use style="fill:#ff0000;stroke:#ff0000;" x="323.218202" xlink:href="#m98216b5aea" y="91.551021"/>
     <use style="fill:#ff0000;stroke:#ff0000;" x="324.125058" xlink:href="#m98216b5aea" y="91.551021"/>
     <use style="fill:#ff0000;stroke:#ff0000;" x="325.031915" xlink:href="#m98216b5aea" y="91.551021"/>
     <use style="fill:#ff0000;stroke:#ff0000;" x="325.938771" xlink:href="#m98216b5aea" y="91.551021"/>
     <use style="fill:#ff0000;stroke:#ff0000;" x="326.845627" xlink:href="#m98216b5aea" y="91.551021"/>
     <use style="fill:#ff0000;stroke:#ff0000;" x="327.752483" xlink:href="#m98216b5aea" y="91.551021"/>
     <use style="fill:#ff0000;stroke:#ff0000;" x="328.65934" xlink:href="#m98216b5aea" y="91.551021"/>
     <use style="fill:#ff0000;stroke:#ff0000;" x="329.566196" xlink:href="#m98216b5aea" y="91.551021"/>
     <use style="fill:#ff0000;stroke:#ff0000;" x="330.473052" xlink:href="#m98216b5aea" y="91.551021"/>
     <use style="fill:#ff0000;stroke:#ff0000;" x="331.379909" xlink:href="#m98216b5aea" y="91.551021"/>
     <use style="fill:#ff0000;stroke:#ff0000;" x="332.286765" xlink:href="#m98216b5aea" y="91.551021"/>
     <use style="fill:#ff0000;stroke:#ff0000;" x="333.193621" xlink:href="#m98216b5aea" y="91.551021"/>
     <use style="fill:#ff0000;stroke:#ff0000;" x="334.100477" xlink:href="#m98216b5aea" y="91.551021"/>
     <use style="fill:#ff0000;stroke:#ff0000;" x="335.007334" xlink:href="#m98216b5aea" y="91.551021"/>
     <use style="fill:#ff0000;stroke:#ff0000;" x="335.91419" xlink:href="#m98216b5aea" y="91.551021"/>
     <use style="fill:#ff0000;stroke:#ff0000;" x="336.821046" xlink:href="#m98216b5aea" y="91.551021"/>
     <use style="fill:#ff0000;stroke:#ff0000;" x="337.727902" xlink:href="#m98216b5aea" y="91.551021"/>
     <use style="fill:#ff0000;stroke:#ff0000;" x="338.634759" xlink:href="#m98216b5aea" y="91.551021"/>
     <use style="fill:#ff0000;stroke:#ff0000;" x="339.541615" xlink:href="#m98216b5aea" y="91.551021"/>
     <use style="fill:#ff0000;stroke:#ff0000;" x="340.448471" xlink:href="#m98216b5aea" y="91.551021"/>
     <use style="fill:#ff0000;stroke:#ff0000;" x="341.355328" xlink:href="#m98216b5aea" y="91.551021"/>
     <use style="fill:#ff0000;stroke:#ff0000;" x="342.262184" xlink:href="#m98216b5aea" y="91.551021"/>
     <use style="fill:#ff0000;stroke:#ff0000;" x="343.16904" xlink:href="#m98216b5aea" y="91.551021"/>
     <use style="fill:#ff0000;stroke:#ff0000;" x="344.075896" xlink:href="#m98216b5aea" y="91.551021"/>
     <use style="fill:#ff0000;stroke:#ff0000;" x="344.982753" xlink:href="#m98216b5aea" y="91.551021"/>
     <use style="fill:#ff0000;stroke:#ff0000;" x="345.889609" xlink:href="#m98216b5aea" y="91.551021"/>
     <use style="fill:#ff0000;stroke:#ff0000;" x="346.796465" xlink:href="#m98216b5aea" y="91.551021"/>
     <use style="fill:#ff0000;stroke:#ff0000;" x="347.703321" xlink:href="#m98216b5aea" y="91.551021"/>
     <use style="fill:#ff0000;stroke:#ff0000;" x="348.610178" xlink:href="#m98216b5aea" y="91.551021"/>
     <use style="fill:#ff0000;stroke:#ff0000;" x="349.517034" xlink:href="#m98216b5aea" y="91.551021"/>
     <use style="fill:#ff0000;stroke:#ff0000;" x="350.42389" xlink:href="#m98216b5aea" y="91.551021"/>
     <use style="fill:#ff0000;stroke:#ff0000;" x="351.330747" xlink:href="#m98216b5aea" y="91.551021"/>
     <use style="fill:#ff0000;stroke:#ff0000;" x="352.237603" xlink:href="#m98216b5aea" y="91.551021"/>
     <use style="fill:#ff0000;stroke:#ff0000;" x="353.144459" xlink:href="#m98216b5aea" y="91.551021"/>
     <use style="fill:#ff0000;stroke:#ff0000;" x="354.051315" xlink:href="#m98216b5aea" y="91.551021"/>
     <use style="fill:#ff0000;stroke:#ff0000;" x="354.958172" xlink:href="#m98216b5aea" y="91.551021"/>
     <use style="fill:#ff0000;stroke:#ff0000;" x="355.865028" xlink:href="#m98216b5aea" y="91.551021"/>
     <use style="fill:#ff0000;stroke:#ff0000;" x="356.771884" xlink:href="#m98216b5aea" y="91.551021"/>
     <use style="fill:#ff0000;stroke:#ff0000;" x="357.67874" xlink:href="#m98216b5aea" y="91.551021"/>
     <use style="fill:#ff0000;stroke:#ff0000;" x="358.585597" xlink:href="#m98216b5aea" y="91.551021"/>
     <use style="fill:#ff0000;stroke:#ff0000;" x="359.492453" xlink:href="#m98216b5aea" y="91.551021"/>
     <use style="fill:#ff0000;stroke:#ff0000;" x="360.399309" xlink:href="#m98216b5aea" y="91.551021"/>
     <use style="fill:#ff0000;stroke:#ff0000;" x="361.306166" xlink:href="#m98216b5aea" y="91.551021"/>
     <use style="fill:#ff0000;stroke:#ff0000;" x="362.213022" xlink:href="#m98216b5aea" y="91.551021"/>
     <use style="fill:#ff0000;stroke:#ff0000;" x="363.119878" xlink:href="#m98216b5aea" y="91.551021"/>
     <use style="fill:#ff0000;stroke:#ff0000;" x="364.026734" xlink:href="#m98216b5aea" y="91.551021"/>
     <use style="fill:#ff0000;stroke:#ff0000;" x="364.933591" xlink:href="#m98216b5aea" y="91.551021"/>
     <use style="fill:#ff0000;stroke:#ff0000;" x="365.840447" xlink:href="#m98216b5aea" y="91.551021"/>
     <use style="fill:#ff0000;stroke:#ff0000;" x="366.747303" xlink:href="#m98216b5aea" y="91.551021"/>
     <use style="fill:#ff0000;stroke:#ff0000;" x="367.654159" xlink:href="#m98216b5aea" y="91.551021"/>
     <use style="fill:#ff0000;stroke:#ff0000;" x="368.561016" xlink:href="#m98216b5aea" y="91.551021"/>
     <use style="fill:#ff0000;stroke:#ff0000;" x="369.467872" xlink:href="#m98216b5aea" y="91.551021"/>
     <use style="fill:#ff0000;stroke:#ff0000;" x="370.374728" xlink:href="#m98216b5aea" y="91.551021"/>
     <use style="fill:#ff0000;stroke:#ff0000;" x="371.281585" xlink:href="#m98216b5aea" y="91.551021"/>
     <use style="fill:#ff0000;stroke:#ff0000;" x="372.188441" xlink:href="#m98216b5aea" y="91.551021"/>
     <use style="fill:#ff0000;stroke:#ff0000;" x="373.095297" xlink:href="#m98216b5aea" y="91.551021"/>
     <use style="fill:#ff0000;stroke:#ff0000;" x="374.002153" xlink:href="#m98216b5aea" y="91.551021"/>
     <use style="fill:#ff0000;stroke:#ff0000;" x="374.90901" xlink:href="#m98216b5aea" y="91.551021"/>
     <use style="fill:#ff0000;stroke:#ff0000;" x="375.815866" xlink:href="#m98216b5aea" y="91.551021"/>
     <use style="fill:#ff0000;stroke:#ff0000;" x="376.722722" xlink:href="#m98216b5aea" y="91.551021"/>
     <use style="fill:#ff0000;stroke:#ff0000;" x="377.629578" xlink:href="#m98216b5aea" y="91.551021"/>
     <use style="fill:#ff0000;stroke:#ff0000;" x="378.536435" xlink:href="#m98216b5aea" y="91.551021"/>
     <use style="fill:#ff0000;stroke:#ff0000;" x="379.443291" xlink:href="#m98216b5aea" y="91.551021"/>
     <use style="fill:#ff0000;stroke:#ff0000;" x="380.350147" xlink:href="#m98216b5aea" y="91.551021"/>
     <use style="fill:#ff0000;stroke:#ff0000;" x="381.257004" xlink:href="#m98216b5aea" y="91.551021"/>
     <use style="fill:#ff0000;stroke:#ff0000;" x="382.16386" xlink:href="#m98216b5aea" y="91.551021"/>
     <use style="fill:#ff0000;stroke:#ff0000;" x="383.070716" xlink:href="#m98216b5aea" y="91.551021"/>
     <use style="fill:#ff0000;stroke:#ff0000;" x="383.977572" xlink:href="#m98216b5aea" y="91.551021"/>
     <use style="fill:#ff0000;stroke:#ff0000;" x="384.884429" xlink:href="#m98216b5aea" y="91.551021"/>
     <use style="fill:#ff0000;stroke:#ff0000;" x="385.791285" xlink:href="#m98216b5aea" y="91.551021"/>
     <use style="fill:#ff0000;stroke:#ff0000;" x="386.698141" xlink:href="#m98216b5aea" y="91.551021"/>
     <use style="fill:#ff0000;stroke:#ff0000;" x="387.604997" xlink:href="#m98216b5aea" y="91.551021"/>
     <use style="fill:#ff0000;stroke:#ff0000;" x="388.511854" xlink:href="#m98216b5aea" y="91.551021"/>
     <use style="fill:#ff0000;stroke:#ff0000;" x="389.41871" xlink:href="#m98216b5aea" y="91.551021"/>
     <use style="fill:#ff0000;stroke:#ff0000;" x="390.325566" xlink:href="#m98216b5aea" y="91.551021"/>
     <use style="fill:#ff0000;stroke:#ff0000;" x="391.232423" xlink:href="#m98216b5aea" y="91.551021"/>
     <use style="fill:#ff0000;stroke:#ff0000;" x="392.139279" xlink:href="#m98216b5aea" y="91.551021"/>
     <use style="fill:#ff0000;stroke:#ff0000;" x="393.046135" xlink:href="#m98216b5aea" y="91.551021"/>
     <use style="fill:#ff0000;stroke:#ff0000;" x="393.952991" xlink:href="#m98216b5aea" y="91.551021"/>
     <use style="fill:#ff0000;stroke:#ff0000;" x="394.859848" xlink:href="#m98216b5aea" y="91.551021"/>
     <use style="fill:#ff0000;stroke:#ff0000;" x="395.766704" xlink:href="#m98216b5aea" y="91.551021"/>
     <use style="fill:#ff0000;stroke:#ff0000;" x="396.67356" xlink:href="#m98216b5aea" y="91.551021"/>
     <use style="fill:#ff0000;stroke:#ff0000;" x="397.580416" xlink:href="#m98216b5aea" y="91.551021"/>
     <use style="fill:#ff0000;stroke:#ff0000;" x="398.487273" xlink:href="#m98216b5aea" y="91.551021"/>
    </g>
   </g>
   <g id="patch_3">
    <path d="M 57.6 307.584 
L 57.6 41.472 
" style="fill:none;stroke:#000000;stroke-linecap:square;stroke-linejoin:miter;stroke-width:0.8;"/>
   </g>
   <g id="patch_4">
    <path d="M 414.72 307.584 
L 414.72 41.472 
" style="fill:none;stroke:#000000;stroke-linecap:square;stroke-linejoin:miter;stroke-width:0.8;"/>
   </g>
   <g id="patch_5">
    <path d="M 57.6 307.584 
L 414.72 307.584 
" style="fill:none;stroke:#000000;stroke-linecap:square;stroke-linejoin:miter;stroke-width:0.8;"/>
   </g>
   <g id="patch_6">
    <path d="M 57.6 41.472 
L 414.72 41.472 
" style="fill:none;stroke:#000000;stroke-linecap:square;stroke-linejoin:miter;stroke-width:0.8;"/>
   </g>
  </g>
 </g>
 <defs>
  <clipPath id="peb4b48df1c">
   <rect height="266.112" width="357.12" x="57.6" y="41.472"/>
  </clipPath>
 </defs>
</svg>
