<?xml version="1.0" encoding="utf-8" standalone="no"?>
<!DOCTYPE svg PUBLIC "-//W3C//DTD SVG 1.1//EN"
  "http://www.w3.org/Graphics/SVG/1.1/DTD/svg11.dtd">
<!-- Created with matplotlib (https://matplotlib.org/) -->
<svg height="345.6pt" version="1.1" viewBox="0 0 460.8 345.6" width="460.8pt" xmlns="http://www.w3.org/2000/svg" xmlns:xlink="http://www.w3.org/1999/xlink">
 <defs>
  <style type="text/css">
*{stroke-linecap:butt;stroke-linejoin:round;}
  </style>
 </defs>
 <g id="figure_1">
  <g id="patch_1">
   <path d="M 0 345.6 
L 460.8 345.6 
L 460.8 0 
L 0 0 
z
" style="fill:#ffffff;"/>
  </g>
  <g id="axes_1">
   <g id="patch_2">
    <path d="M 57.6 307.584 
L 414.72 307.584 
L 414.72 41.472 
L 57.6 41.472 
z
" style="fill:#ffffff;"/>
   </g>
   <g id="line2d_1">
    <path clip-path="url(#p63358d46ec)" d="M 73.832727 294.500329 
L 76.119027 294.500329 
L 77.262177 220.66138 
L 81.834776 220.66138 
L 82.977926 295.488 
L 84.121076 295.488 
L 85.264225 294.88779 
L 86.407375 294.88779 
L 87.550525 226.139037 
L 88.693675 226.139037 
L 89.836825 156.17765 
L 92.123124 156.17765 
L 93.266274 172.118343 
L 95.552574 172.118343 
L 96.695723 99.21792 
L 97.838873 99.21792 
L 98.982023 174.997758 
L 100.125173 174.997758 
L 101.268323 98.931156 
L 103.554622 98.931156 
L 104.697772 124.761953 
L 105.840922 124.761953 
L 106.984072 101.610969 
L 108.127222 101.610969 
L 109.270371 125.444047 
L 110.413521 125.444047 
L 111.556671 126.135404 
L 112.699821 153.906219 
L 113.842971 153.906219 
L 114.98612 159.020076 
L 116.12927 159.020076 
L 117.27242 136.384679 
L 119.55872 136.384679 
L 120.701869 161.908562 
L 121.845019 161.908562 
L 122.988169 138.325756 
L 124.131319 138.325756 
L 125.274469 115.549709 
L 126.417618 115.549709 
L 127.560768 121.847986 
L 128.703918 121.847986 
L 129.847068 147.564965 
L 130.990218 147.564965 
L 132.133367 152.135558 
L 133.276517 175.841797 
L 135.562817 175.841797 
L 136.705967 200.985424 
L 140.135416 200.985424 
L 141.278566 179.008524 
L 142.421716 203.894748 
L 143.564866 203.894748 
L 144.708015 180.590264 
L 145.851165 180.590264 
L 146.994315 157.620267 
L 149.280615 157.620267 
L 150.423764 135.633104 
L 151.566914 135.633104 
L 152.710064 160.187187 
L 153.853214 160.187187 
L 154.996364 136.875814 
L 156.139513 136.875814 
L 157.282663 114.346549 
L 158.425813 114.346549 
L 159.568963 138.906955 
L 160.712113 138.906955 
L 161.855262 162.384018 
L 162.998412 139.84896 
L 164.141562 139.84896 
L 165.284712 136.070594 
L 171.000461 136.070594 
L 172.143611 114.605568 
L 173.286761 136.773064 
L 174.42991 136.773064 
L 175.57306 132.969385 
L 177.85936 132.969385 
L 179.00251 110.398259 
L 180.145659 110.398259 
L 181.288809 134.19473 
L 182.431959 134.19473 
L 183.575109 158.832007 
L 184.718259 138.761248 
L 185.861408 138.761248 
L 187.004558 165.199814 
L 188.147708 165.199814 
L 189.290858 140.615829 
L 190.434008 140.615829 
L 191.577157 134.872769 
L 192.720307 114.017197 
L 195.006607 114.017197 
L 196.149757 89.75753 
L 197.292907 117.578273 
L 200.722356 117.578273 
L 201.865506 95.017076 
L 212.153854 95.017076 
L 213.297004 102.359914 
L 214.440154 99.940938 
L 215.583303 99.940938 
L 216.726453 78.491913 
L 217.869603 78.491913 
L 219.012753 53.568 
L 220.155903 53.568 
L 221.299052 57.908333 
L 225.871652 57.908333 
L 227.014802 82.162078 
L 228.157951 82.162078 
L 229.301101 103.657717 
L 230.444251 131.6037 
L 231.587401 131.6037 
L 232.730551 107.566697 
L 233.8737 107.566697 
L 235.01685 85.413754 
L 236.16 85.413754 
L 237.30315 109.321342 
L 238.4463 109.321342 
L 239.589449 136.43565 
L 240.732599 116.776589 
L 243.018899 116.776589 
L 244.162049 95.443365 
L 245.305198 119.89838 
L 247.591498 119.89838 
L 248.734648 99.941596 
L 249.877798 99.941596 
L 251.020948 123.14122 
L 252.164097 150.972885 
L 255.593547 150.972885 
L 256.736697 131.751068 
L 257.879846 131.751068 
L 259.022996 155.832328 
L 260.166146 155.832328 
L 261.309296 181.885868 
L 263.595595 181.885868 
L 264.738745 158.874978 
L 265.881895 158.874978 
L 267.025045 134.162526 
L 268.168195 134.162526 
L 269.311344 112.626626 
L 270.454494 117.140863 
L 271.597644 117.140863 
L 272.740794 95.814143 
L 273.883944 95.814143 
L 275.027093 120.977591 
L 276.170243 120.977591 
L 277.313393 96.172288 
L 279.599693 96.172288 
L 280.742843 67.887523 
L 281.885992 67.887523 
L 283.029142 92.019322 
L 284.172292 92.019322 
L 285.315442 91.551021 
L 398.487273 91.551021 
L 398.487273 91.551021 
" style="fill:none;stroke:#ff0000;stroke-linecap:square;stroke-width:12;"/>
    <defs>
     <path d="M 0 3 
C 0.795609 3 1.55874 2.683901 2.12132 2.12132 
C 2.683901 1.55874 3 0.795609 3 0 
C 3 -0.795609 2.683901 -1.55874 2.12132 -2.12132 
C 1.55874 -2.683901 0.795609 -3 0 -3 
C -0.795609 -3 -1.55874 -2.683901 -2.12132 -2.12132 
C -2.683901 -1.55874 -3 -0.795609 -3 0 
C -3 0.795609 -2.683901 1.55874 -2.12132 2.12132 
C -1.55874 2.683901 -0.795609 3 0 3 
z
" id="m4fd2584871" style="stroke:#ff0000;"/>
    </defs>
    <g clip-path="url(#p63358d46ec)">
     <use style="fill:#ff0000;stroke:#ff0000;" x="73.832727" xlink:href="#m4fd2584871" y="294.500329"/>
     <use style="fill:#ff0000;stroke:#ff0000;" x="74.975877" xlink:href="#m4fd2584871" y="294.500329"/>
     <use style="fill:#ff0000;stroke:#ff0000;" x="76.119027" xlink:href="#m4fd2584871" y="294.500329"/>
     <use style="fill:#ff0000;stroke:#ff0000;" x="77.262177" xlink:href="#m4fd2584871" y="220.66138"/>
     <use style="fill:#ff0000;stroke:#ff0000;" x="78.405327" xlink:href="#m4fd2584871" y="220.66138"/>
     <use style="fill:#ff0000;stroke:#ff0000;" x="79.548476" xlink:href="#m4fd2584871" y="220.66138"/>
     <use style="fill:#ff0000;stroke:#ff0000;" x="80.691626" xlink:href="#m4fd2584871" y="220.66138"/>
     <use style="fill:#ff0000;stroke:#ff0000;" x="81.834776" xlink:href="#m4fd2584871" y="220.66138"/>
     <use style="fill:#ff0000;stroke:#ff0000;" x="82.977926" xlink:href="#m4fd2584871" y="295.488"/>
     <use style="fill:#ff0000;stroke:#ff0000;" x="84.121076" xlink:href="#m4fd2584871" y="295.488"/>
     <use style="fill:#ff0000;stroke:#ff0000;" x="85.264225" xlink:href="#m4fd2584871" y="294.88779"/>
     <use style="fill:#ff0000;stroke:#ff0000;" x="86.407375" xlink:href="#m4fd2584871" y="294.88779"/>
     <use style="fill:#ff0000;stroke:#ff0000;" x="87.550525" xlink:href="#m4fd2584871" y="226.139037"/>
     <use style="fill:#ff0000;stroke:#ff0000;" x="88.693675" xlink:href="#m4fd2584871" y="226.139037"/>
     <use style="fill:#ff0000;stroke:#ff0000;" x="89.836825" xlink:href="#m4fd2584871" y="156.17765"/>
     <use style="fill:#ff0000;stroke:#ff0000;" x="90.979974" xlink:href="#m4fd2584871" y="156.17765"/>
     <use style="fill:#ff0000;stroke:#ff0000;" x="92.123124" xlink:href="#m4fd2584871" y="156.17765"/>
     <use style="fill:#ff0000;stroke:#ff0000;" x="93.266274" xlink:href="#m4fd2584871" y="172.118343"/>
     <use style="fill:#ff0000;stroke:#ff0000;" x="94.409424" xlink:href="#m4fd2584871" y="172.118343"/>
     <use style="fill:#ff0000;stroke:#ff0000;" x="95.552574" xlink:href="#m4fd2584871" y="172.118343"/>
     <use style="fill:#ff0000;stroke:#ff0000;" x="96.695723" xlink:href="#m4fd2584871" y="99.21792"/>
     <use style="fill:#ff0000;stroke:#ff0000;" x="97.838873" xlink:href="#m4fd2584871" y="99.21792"/>
     <use style="fill:#ff0000;stroke:#ff0000;" x="98.982023" xlink:href="#m4fd2584871" y="174.997758"/>
     <use style="fill:#ff0000;stroke:#ff0000;" x="100.125173" xlink:href="#m4fd2584871" y="174.997758"/>
     <use style="fill:#ff0000;stroke:#ff0000;" x="101.268323" xlink:href="#m4fd2584871" y="98.931156"/>
     <use style="fill:#ff0000;stroke:#ff0000;" x="102.411472" xlink:href="#m4fd2584871" y="98.931156"/>
     <use style="fill:#ff0000;stroke:#ff0000;" x="103.554622" xlink:href="#m4fd2584871" y="98.931156"/>
     <use style="fill:#ff0000;stroke:#ff0000;" x="104.697772" xlink:href="#m4fd2584871" y="124.761953"/>
     <use style="fill:#ff0000;stroke:#ff0000;" x="105.840922" xlink:href="#m4fd2584871" y="124.761953"/>
     <use style="fill:#ff0000;stroke:#ff0000;" x="106.984072" xlink:href="#m4fd2584871" y="101.610969"/>
     <use style="fill:#ff0000;stroke:#ff0000;" x="108.127222" xlink:href="#m4fd2584871" y="101.610969"/>
     <use style="fill:#ff0000;stroke:#ff0000;" x="109.270371" xlink:href="#m4fd2584871" y="125.444047"/>
     <use style="fill:#ff0000;stroke:#ff0000;" x="110.413521" xlink:href="#m4fd2584871" y="125.444047"/>
     <use style="fill:#ff0000;stroke:#ff0000;" x="111.556671" xlink:href="#m4fd2584871" y="126.135404"/>
     <use style="fill:#ff0000;stroke:#ff0000;" x="112.699821" xlink:href="#m4fd2584871" y="153.906219"/>
     <use style="fill:#ff0000;stroke:#ff0000;" x="113.842971" xlink:href="#m4fd2584871" y="153.906219"/>
     <use style="fill:#ff0000;stroke:#ff0000;" x="114.98612" xlink:href="#m4fd2584871" y="159.020076"/>
     <use style="fill:#ff0000;stroke:#ff0000;" x="116.12927" xlink:href="#m4fd2584871" y="159.020076"/>
     <use style="fill:#ff0000;stroke:#ff0000;" x="117.27242" xlink:href="#m4fd2584871" y="136.384679"/>
     <use style="fill:#ff0000;stroke:#ff0000;" x="118.41557" xlink:href="#m4fd2584871" y="136.384679"/>
     <use style="fill:#ff0000;stroke:#ff0000;" x="119.55872" xlink:href="#m4fd2584871" y="136.384679"/>
     <use style="fill:#ff0000;stroke:#ff0000;" x="120.701869" xlink:href="#m4fd2584871" y="161.908562"/>
     <use style="fill:#ff0000;stroke:#ff0000;" x="121.845019" xlink:href="#m4fd2584871" y="161.908562"/>
     <use style="fill:#ff0000;stroke:#ff0000;" x="122.988169" xlink:href="#m4fd2584871" y="138.325756"/>
     <use style="fill:#ff0000;stroke:#ff0000;" x="124.131319" xlink:href="#m4fd2584871" y="138.325756"/>
     <use style="fill:#ff0000;stroke:#ff0000;" x="125.274469" xlink:href="#m4fd2584871" y="115.549709"/>
     <use style="fill:#ff0000;stroke:#ff0000;" x="126.417618" xlink:href="#m4fd2584871" y="115.549709"/>
     <use style="fill:#ff0000;stroke:#ff0000;" x="127.560768" xlink:href="#m4fd2584871" y="121.847986"/>
     <use style="fill:#ff0000;stroke:#ff0000;" x="128.703918" xlink:href="#m4fd2584871" y="121.847986"/>
     <use style="fill:#ff0000;stroke:#ff0000;" x="129.847068" xlink:href="#m4fd2584871" y="147.564965"/>
     <use style="fill:#ff0000;stroke:#ff0000;" x="130.990218" xlink:href="#m4fd2584871" y="147.564965"/>
     <use style="fill:#ff0000;stroke:#ff0000;" x="132.133367" xlink:href="#m4fd2584871" y="152.135558"/>
     <use style="fill:#ff0000;stroke:#ff0000;" x="133.276517" xlink:href="#m4fd2584871" y="175.841797"/>
     <use style="fill:#ff0000;stroke:#ff0000;" x="134.419667" xlink:href="#m4fd2584871" y="175.841797"/>
     <use style="fill:#ff0000;stroke:#ff0000;" x="135.562817" xlink:href="#m4fd2584871" y="175.841797"/>
     <use style="fill:#ff0000;stroke:#ff0000;" x="136.705967" xlink:href="#m4fd2584871" y="200.985424"/>
     <use style="fill:#ff0000;stroke:#ff0000;" x="137.849117" xlink:href="#m4fd2584871" y="200.985424"/>
     <use style="fill:#ff0000;stroke:#ff0000;" x="138.992266" xlink:href="#m4fd2584871" y="200.985424"/>
     <use style="fill:#ff0000;stroke:#ff0000;" x="140.135416" xlink:href="#m4fd2584871" y="200.985424"/>
     <use style="fill:#ff0000;stroke:#ff0000;" x="141.278566" xlink:href="#m4fd2584871" y="179.008524"/>
     <use style="fill:#ff0000;stroke:#ff0000;" x="142.421716" xlink:href="#m4fd2584871" y="203.894748"/>
     <use style="fill:#ff0000;stroke:#ff0000;" x="143.564866" xlink:href="#m4fd2584871" y="203.894748"/>
     <use style="fill:#ff0000;stroke:#ff0000;" x="144.708015" xlink:href="#m4fd2584871" y="180.590264"/>
     <use style="fill:#ff0000;stroke:#ff0000;" x="145.851165" xlink:href="#m4fd2584871" y="180.590264"/>
     <use style="fill:#ff0000;stroke:#ff0000;" x="146.994315" xlink:href="#m4fd2584871" y="157.620267"/>
     <use style="fill:#ff0000;stroke:#ff0000;" x="148.137465" xlink:href="#m4fd2584871" y="157.620267"/>
     <use style="fill:#ff0000;stroke:#ff0000;" x="149.280615" xlink:href="#m4fd2584871" y="157.620267"/>
     <use style="fill:#ff0000;stroke:#ff0000;" x="150.423764" xlink:href="#m4fd2584871" y="135.633104"/>
     <use style="fill:#ff0000;stroke:#ff0000;" x="151.566914" xlink:href="#m4fd2584871" y="135.633104"/>
     <use style="fill:#ff0000;stroke:#ff0000;" x="152.710064" xlink:href="#m4fd2584871" y="160.187187"/>
     <use style="fill:#ff0000;stroke:#ff0000;" x="153.853214" xlink:href="#m4fd2584871" y="160.187187"/>
     <use style="fill:#ff0000;stroke:#ff0000;" x="154.996364" xlink:href="#m4fd2584871" y="136.875814"/>
     <use style="fill:#ff0000;stroke:#ff0000;" x="156.139513" xlink:href="#m4fd2584871" y="136.875814"/>
     <use style="fill:#ff0000;stroke:#ff0000;" x="157.282663" xlink:href="#m4fd2584871" y="114.346549"/>
     <use style="fill:#ff0000;stroke:#ff0000;" x="158.425813" xlink:href="#m4fd2584871" y="114.346549"/>
     <use style="fill:#ff0000;stroke:#ff0000;" x="159.568963" xlink:href="#m4fd2584871" y="138.906955"/>
     <use style="fill:#ff0000;stroke:#ff0000;" x="160.712113" xlink:href="#m4fd2584871" y="138.906955"/>
     <use style="fill:#ff0000;stroke:#ff0000;" x="161.855262" xlink:href="#m4fd2584871" y="162.384018"/>
     <use style="fill:#ff0000;stroke:#ff0000;" x="162.998412" xlink:href="#m4fd2584871" y="139.84896"/>
     <use style="fill:#ff0000;stroke:#ff0000;" x="164.141562" xlink:href="#m4fd2584871" y="139.84896"/>
     <use style="fill:#ff0000;stroke:#ff0000;" x="165.284712" xlink:href="#m4fd2584871" y="136.070594"/>
     <use style="fill:#ff0000;stroke:#ff0000;" x="166.427862" xlink:href="#m4fd2584871" y="136.070594"/>
     <use style="fill:#ff0000;stroke:#ff0000;" x="167.571012" xlink:href="#m4fd2584871" y="136.070594"/>
     <use style="fill:#ff0000;stroke:#ff0000;" x="168.714161" xlink:href="#m4fd2584871" y="136.070594"/>
     <use style="fill:#ff0000;stroke:#ff0000;" x="169.857311" xlink:href="#m4fd2584871" y="136.070594"/>
     <use style="fill:#ff0000;stroke:#ff0000;" x="171.000461" xlink:href="#m4fd2584871" y="136.070594"/>
     <use style="fill:#ff0000;stroke:#ff0000;" x="172.143611" xlink:href="#m4fd2584871" y="114.605568"/>
     <use style="fill:#ff0000;stroke:#ff0000;" x="173.286761" xlink:href="#m4fd2584871" y="136.773064"/>
     <use style="fill:#ff0000;stroke:#ff0000;" x="174.42991" xlink:href="#m4fd2584871" y="136.773064"/>
     <use style="fill:#ff0000;stroke:#ff0000;" x="175.57306" xlink:href="#m4fd2584871" y="132.969385"/>
     <use style="fill:#ff0000;stroke:#ff0000;" x="176.71621" xlink:href="#m4fd2584871" y="132.969385"/>
     <use style="fill:#ff0000;stroke:#ff0000;" x="177.85936" xlink:href="#m4fd2584871" y="132.969385"/>
     <use style="fill:#ff0000;stroke:#ff0000;" x="179.00251" xlink:href="#m4fd2584871" y="110.398259"/>
     <use style="fill:#ff0000;stroke:#ff0000;" x="180.145659" xlink:href="#m4fd2584871" y="110.398259"/>
     <use style="fill:#ff0000;stroke:#ff0000;" x="181.288809" xlink:href="#m4fd2584871" y="134.19473"/>
     <use style="fill:#ff0000;stroke:#ff0000;" x="182.431959" xlink:href="#m4fd2584871" y="134.19473"/>
     <use style="fill:#ff0000;stroke:#ff0000;" x="183.575109" xlink:href="#m4fd2584871" y="158.832007"/>
     <use style="fill:#ff0000;stroke:#ff0000;" x="184.718259" xlink:href="#m4fd2584871" y="138.761248"/>
     <use style="fill:#ff0000;stroke:#ff0000;" x="185.861408" xlink:href="#m4fd2584871" y="138.761248"/>
     <use style="fill:#ff0000;stroke:#ff0000;" x="187.004558" xlink:href="#m4fd2584871" y="165.199814"/>
     <use style="fill:#ff0000;stroke:#ff0000;" x="188.147708" xlink:href="#m4fd2584871" y="165.199814"/>
     <use style="fill:#ff0000;stroke:#ff0000;" x="189.290858" xlink:href="#m4fd2584871" y="140.615829"/>
     <use style="fill:#ff0000;stroke:#ff0000;" x="190.434008" xlink:href="#m4fd2584871" y="140.615829"/>
     <use style="fill:#ff0000;stroke:#ff0000;" x="191.577157" xlink:href="#m4fd2584871" y="134.872769"/>
     <use style="fill:#ff0000;stroke:#ff0000;" x="192.720307" xlink:href="#m4fd2584871" y="114.017197"/>
     <use style="fill:#ff0000;stroke:#ff0000;" x="193.863457" xlink:href="#m4fd2584871" y="114.017197"/>
     <use style="fill:#ff0000;stroke:#ff0000;" x="195.006607" xlink:href="#m4fd2584871" y="114.017197"/>
     <use style="fill:#ff0000;stroke:#ff0000;" x="196.149757" xlink:href="#m4fd2584871" y="89.75753"/>
     <use style="fill:#ff0000;stroke:#ff0000;" x="197.292907" xlink:href="#m4fd2584871" y="117.578273"/>
     <use style="fill:#ff0000;stroke:#ff0000;" x="198.436056" xlink:href="#m4fd2584871" y="117.578273"/>
     <use style="fill:#ff0000;stroke:#ff0000;" x="199.579206" xlink:href="#m4fd2584871" y="117.578273"/>
     <use style="fill:#ff0000;stroke:#ff0000;" x="200.722356" xlink:href="#m4fd2584871" y="117.578273"/>
     <use style="fill:#ff0000;stroke:#ff0000;" x="201.865506" xlink:href="#m4fd2584871" y="95.017076"/>
     <use style="fill:#ff0000;stroke:#ff0000;" x="203.008656" xlink:href="#m4fd2584871" y="95.017076"/>
     <use style="fill:#ff0000;stroke:#ff0000;" x="204.151805" xlink:href="#m4fd2584871" y="95.017076"/>
     <use style="fill:#ff0000;stroke:#ff0000;" x="205.294955" xlink:href="#m4fd2584871" y="95.017076"/>
     <use style="fill:#ff0000;stroke:#ff0000;" x="206.438105" xlink:href="#m4fd2584871" y="95.017076"/>
     <use style="fill:#ff0000;stroke:#ff0000;" x="207.581255" xlink:href="#m4fd2584871" y="95.017076"/>
     <use style="fill:#ff0000;stroke:#ff0000;" x="208.724405" xlink:href="#m4fd2584871" y="95.017076"/>
     <use style="fill:#ff0000;stroke:#ff0000;" x="209.867554" xlink:href="#m4fd2584871" y="95.017076"/>
     <use style="fill:#ff0000;stroke:#ff0000;" x="211.010704" xlink:href="#m4fd2584871" y="95.017076"/>
     <use style="fill:#ff0000;stroke:#ff0000;" x="212.153854" xlink:href="#m4fd2584871" y="95.017076"/>
     <use style="fill:#ff0000;stroke:#ff0000;" x="213.297004" xlink:href="#m4fd2584871" y="102.359914"/>
     <use style="fill:#ff0000;stroke:#ff0000;" x="214.440154" xlink:href="#m4fd2584871" y="99.940938"/>
     <use style="fill:#ff0000;stroke:#ff0000;" x="215.583303" xlink:href="#m4fd2584871" y="99.940938"/>
     <use style="fill:#ff0000;stroke:#ff0000;" x="216.726453" xlink:href="#m4fd2584871" y="78.491913"/>
     <use style="fill:#ff0000;stroke:#ff0000;" x="217.869603" xlink:href="#m4fd2584871" y="78.491913"/>
     <use style="fill:#ff0000;stroke:#ff0000;" x="219.012753" xlink:href="#m4fd2584871" y="53.568"/>
     <use style="fill:#ff0000;stroke:#ff0000;" x="220.155903" xlink:href="#m4fd2584871" y="53.568"/>
     <use style="fill:#ff0000;stroke:#ff0000;" x="221.299052" xlink:href="#m4fd2584871" y="57.908333"/>
     <use style="fill:#ff0000;stroke:#ff0000;" x="222.442202" xlink:href="#m4fd2584871" y="57.908333"/>
     <use style="fill:#ff0000;stroke:#ff0000;" x="223.585352" xlink:href="#m4fd2584871" y="57.908333"/>
     <use style="fill:#ff0000;stroke:#ff0000;" x="224.728502" xlink:href="#m4fd2584871" y="57.908333"/>
     <use style="fill:#ff0000;stroke:#ff0000;" x="225.871652" xlink:href="#m4fd2584871" y="57.908333"/>
     <use style="fill:#ff0000;stroke:#ff0000;" x="227.014802" xlink:href="#m4fd2584871" y="82.162078"/>
     <use style="fill:#ff0000;stroke:#ff0000;" x="228.157951" xlink:href="#m4fd2584871" y="82.162078"/>
     <use style="fill:#ff0000;stroke:#ff0000;" x="229.301101" xlink:href="#m4fd2584871" y="103.657717"/>
     <use style="fill:#ff0000;stroke:#ff0000;" x="230.444251" xlink:href="#m4fd2584871" y="131.6037"/>
     <use style="fill:#ff0000;stroke:#ff0000;" x="231.587401" xlink:href="#m4fd2584871" y="131.6037"/>
     <use style="fill:#ff0000;stroke:#ff0000;" x="232.730551" xlink:href="#m4fd2584871" y="107.566697"/>
     <use style="fill:#ff0000;stroke:#ff0000;" x="233.8737" xlink:href="#m4fd2584871" y="107.566697"/>
     <use style="fill:#ff0000;stroke:#ff0000;" x="235.01685" xlink:href="#m4fd2584871" y="85.413754"/>
     <use style="fill:#ff0000;stroke:#ff0000;" x="236.16" xlink:href="#m4fd2584871" y="85.413754"/>
     <use style="fill:#ff0000;stroke:#ff0000;" x="237.30315" xlink:href="#m4fd2584871" y="109.321342"/>
     <use style="fill:#ff0000;stroke:#ff0000;" x="238.4463" xlink:href="#m4fd2584871" y="109.321342"/>
     <use style="fill:#ff0000;stroke:#ff0000;" x="239.589449" xlink:href="#m4fd2584871" y="136.43565"/>
     <use style="fill:#ff0000;stroke:#ff0000;" x="240.732599" xlink:href="#m4fd2584871" y="116.776589"/>
     <use style="fill:#ff0000;stroke:#ff0000;" x="241.875749" xlink:href="#m4fd2584871" y="116.776589"/>
     <use style="fill:#ff0000;stroke:#ff0000;" x="243.018899" xlink:href="#m4fd2584871" y="116.776589"/>
     <use style="fill:#ff0000;stroke:#ff0000;" x="244.162049" xlink:href="#m4fd2584871" y="95.443365"/>
     <use style="fill:#ff0000;stroke:#ff0000;" x="245.305198" xlink:href="#m4fd2584871" y="119.89838"/>
     <use style="fill:#ff0000;stroke:#ff0000;" x="246.448348" xlink:href="#m4fd2584871" y="119.89838"/>
     <use style="fill:#ff0000;stroke:#ff0000;" x="247.591498" xlink:href="#m4fd2584871" y="119.89838"/>
     <use style="fill:#ff0000;stroke:#ff0000;" x="248.734648" xlink:href="#m4fd2584871" y="99.941596"/>
     <use style="fill:#ff0000;stroke:#ff0000;" x="249.877798" xlink:href="#m4fd2584871" y="99.941596"/>
     <use style="fill:#ff0000;stroke:#ff0000;" x="251.020948" xlink:href="#m4fd2584871" y="123.14122"/>
     <use style="fill:#ff0000;stroke:#ff0000;" x="252.164097" xlink:href="#m4fd2584871" y="150.972885"/>
     <use style="fill:#ff0000;stroke:#ff0000;" x="253.307247" xlink:href="#m4fd2584871" y="150.972885"/>
     <use style="fill:#ff0000;stroke:#ff0000;" x="254.450397" xlink:href="#m4fd2584871" y="150.972885"/>
     <use style="fill:#ff0000;stroke:#ff0000;" x="255.593547" xlink:href="#m4fd2584871" y="150.972885"/>
     <use style="fill:#ff0000;stroke:#ff0000;" x="256.736697" xlink:href="#m4fd2584871" y="131.751068"/>
     <use style="fill:#ff0000;stroke:#ff0000;" x="257.879846" xlink:href="#m4fd2584871" y="131.751068"/>
     <use style="fill:#ff0000;stroke:#ff0000;" x="259.022996" xlink:href="#m4fd2584871" y="155.832328"/>
     <use style="fill:#ff0000;stroke:#ff0000;" x="260.166146" xlink:href="#m4fd2584871" y="155.832328"/>
     <use style="fill:#ff0000;stroke:#ff0000;" x="261.309296" xlink:href="#m4fd2584871" y="181.885868"/>
     <use style="fill:#ff0000;stroke:#ff0000;" x="262.452446" xlink:href="#m4fd2584871" y="181.885868"/>
     <use style="fill:#ff0000;stroke:#ff0000;" x="263.595595" xlink:href="#m4fd2584871" y="181.885868"/>
     <use style="fill:#ff0000;stroke:#ff0000;" x="264.738745" xlink:href="#m4fd2584871" y="158.874978"/>
     <use style="fill:#ff0000;stroke:#ff0000;" x="265.881895" xlink:href="#m4fd2584871" y="158.874978"/>
     <use style="fill:#ff0000;stroke:#ff0000;" x="267.025045" xlink:href="#m4fd2584871" y="134.162526"/>
     <use style="fill:#ff0000;stroke:#ff0000;" x="268.168195" xlink:href="#m4fd2584871" y="134.162526"/>
     <use style="fill:#ff0000;stroke:#ff0000;" x="269.311344" xlink:href="#m4fd2584871" y="112.626626"/>
     <use style="fill:#ff0000;stroke:#ff0000;" x="270.454494" xlink:href="#m4fd2584871" y="117.140863"/>
     <use style="fill:#ff0000;stroke:#ff0000;" x="271.597644" xlink:href="#m4fd2584871" y="117.140863"/>
     <use style="fill:#ff0000;stroke:#ff0000;" x="272.740794" xlink:href="#m4fd2584871" y="95.814143"/>
     <use style="fill:#ff0000;stroke:#ff0000;" x="273.883944" xlink:href="#m4fd2584871" y="95.814143"/>
     <use style="fill:#ff0000;stroke:#ff0000;" x="275.027093" xlink:href="#m4fd2584871" y="120.977591"/>
     <use style="fill:#ff0000;stroke:#ff0000;" x="276.170243" xlink:href="#m4fd2584871" y="120.977591"/>
     <use style="fill:#ff0000;stroke:#ff0000;" x="277.313393" xlink:href="#m4fd2584871" y="96.172288"/>
     <use style="fill:#ff0000;stroke:#ff0000;" x="278.456543" xlink:href="#m4fd2584871" y="96.172288"/>
     <use style="fill:#ff0000;stroke:#ff0000;" x="279.599693" xlink:href="#m4fd2584871" y="96.172288"/>
     <use style="fill:#ff0000;stroke:#ff0000;" x="280.742843" xlink:href="#m4fd2584871" y="67.887523"/>
     <use style="fill:#ff0000;stroke:#ff0000;" x="281.885992" xlink:href="#m4fd2584871" y="67.887523"/>
     <use style="fill:#ff0000;stroke:#ff0000;" x="283.029142" xlink:href="#m4fd2584871" y="92.019322"/>
     <use style="fill:#ff0000;stroke:#ff0000;" x="284.172292" xlink:href="#m4fd2584871" y="92.019322"/>
     <use style="fill:#ff0000;stroke:#ff0000;" x="285.315442" xlink:href="#m4fd2584871" y="91.551021"/>
     <use style="fill:#ff0000;stroke:#ff0000;" x="286.458592" xlink:href="#m4fd2584871" y="91.551021"/>
     <use style="fill:#ff0000;stroke:#ff0000;" x="287.601741" xlink:href="#m4fd2584871" y="91.551021"/>
     <use style="fill:#ff0000;stroke:#ff0000;" x="288.744891" xlink:href="#m4fd2584871" y="91.551021"/>
     <use style="fill:#ff0000;stroke:#ff0000;" x="289.888041" xlink:href="#m4fd2584871" y="91.551021"/>
     <use style="fill:#ff0000;stroke:#ff0000;" x="291.031191" xlink:href="#m4fd2584871" y="91.551021"/>
     <use style="fill:#ff0000;stroke:#ff0000;" x="292.174341" xlink:href="#m4fd2584871" y="91.551021"/>
     <use style="fill:#ff0000;stroke:#ff0000;" x="293.31749" xlink:href="#m4fd2584871" y="91.551021"/>
     <use style="fill:#ff0000;stroke:#ff0000;" x="294.46064" xlink:href="#m4fd2584871" y="91.551021"/>
     <use style="fill:#ff0000;stroke:#ff0000;" x="295.60379" xlink:href="#m4fd2584871" y="91.551021"/>
     <use style="fill:#ff0000;stroke:#ff0000;" x="296.74694" xlink:href="#m4fd2584871" y="91.551021"/>
     <use style="fill:#ff0000;stroke:#ff0000;" x="297.89009" xlink:href="#m4fd2584871" y="91.551021"/>
     <use style="fill:#ff0000;stroke:#ff0000;" x="299.033239" xlink:href="#m4fd2584871" y="91.551021"/>
     <use style="fill:#ff0000;stroke:#ff0000;" x="300.176389" xlink:href="#m4fd2584871" y="91.551021"/>
     <use style="fill:#ff0000;stroke:#ff0000;" x="301.319539" xlink:href="#m4fd2584871" y="91.551021"/>
     <use style="fill:#ff0000;stroke:#ff0000;" x="302.462689" xlink:href="#m4fd2584871" y="91.551021"/>
     <use style="fill:#ff0000;stroke:#ff0000;" x="303.605839" xlink:href="#m4fd2584871" y="91.551021"/>
     <use style="fill:#ff0000;stroke:#ff0000;" x="304.748988" xlink:href="#m4fd2584871" y="91.551021"/>
     <use style="fill:#ff0000;stroke:#ff0000;" x="305.892138" xlink:href="#m4fd2584871" y="91.551021"/>
     <use style="fill:#ff0000;stroke:#ff0000;" x="307.035288" xlink:href="#m4fd2584871" y="91.551021"/>
     <use style="fill:#ff0000;stroke:#ff0000;" x="308.178438" xlink:href="#m4fd2584871" y="91.551021"/>
     <use style="fill:#ff0000;stroke:#ff0000;" x="309.321588" xlink:href="#m4fd2584871" y="91.551021"/>
     <use style="fill:#ff0000;stroke:#ff0000;" x="310.464738" xlink:href="#m4fd2584871" y="91.551021"/>
     <use style="fill:#ff0000;stroke:#ff0000;" x="311.607887" xlink:href="#m4fd2584871" y="91.551021"/>
     <use style="fill:#ff0000;stroke:#ff0000;" x="312.751037" xlink:href="#m4fd2584871" y="91.551021"/>
     <use style="fill:#ff0000;stroke:#ff0000;" x="313.894187" xlink:href="#m4fd2584871" y="91.551021"/>
     <use style="fill:#ff0000;stroke:#ff0000;" x="315.037337" xlink:href="#m4fd2584871" y="91.551021"/>
     <use style="fill:#ff0000;stroke:#ff0000;" x="316.180487" xlink:href="#m4fd2584871" y="91.551021"/>
     <use style="fill:#ff0000;stroke:#ff0000;" x="317.323636" xlink:href="#m4fd2584871" y="91.551021"/>
     <use style="fill:#ff0000;stroke:#ff0000;" x="318.466786" xlink:href="#m4fd2584871" y="91.551021"/>
     <use style="fill:#ff0000;stroke:#ff0000;" x="319.609936" xlink:href="#m4fd2584871" y="91.551021"/>
     <use style="fill:#ff0000;stroke:#ff0000;" x="320.753086" xlink:href="#m4fd2584871" y="91.551021"/>
     <use style="fill:#ff0000;stroke:#ff0000;" x="321.896236" xlink:href="#m4fd2584871" y="91.551021"/>
     <use style="fill:#ff0000;stroke:#ff0000;" x="323.039385" xlink:href="#m4fd2584871" y="91.551021"/>
     <use style="fill:#ff0000;stroke:#ff0000;" x="324.182535" xlink:href="#m4fd2584871" y="91.551021"/>
     <use style="fill:#ff0000;stroke:#ff0000;" x="325.325685" xlink:href="#m4fd2584871" y="91.551021"/>
     <use style="fill:#ff0000;stroke:#ff0000;" x="326.468835" xlink:href="#m4fd2584871" y="91.551021"/>
     <use style="fill:#ff0000;stroke:#ff0000;" x="327.611985" xlink:href="#m4fd2584871" y="91.551021"/>
     <use style="fill:#ff0000;stroke:#ff0000;" x="328.755134" xlink:href="#m4fd2584871" y="91.551021"/>
     <use style="fill:#ff0000;stroke:#ff0000;" x="329.898284" xlink:href="#m4fd2584871" y="91.551021"/>
     <use style="fill:#ff0000;stroke:#ff0000;" x="331.041434" xlink:href="#m4fd2584871" y="91.551021"/>
     <use style="fill:#ff0000;stroke:#ff0000;" x="332.184584" xlink:href="#m4fd2584871" y="91.551021"/>
     <use style="fill:#ff0000;stroke:#ff0000;" x="333.327734" xlink:href="#m4fd2584871" y="91.551021"/>
     <use style="fill:#ff0000;stroke:#ff0000;" x="334.470883" xlink:href="#m4fd2584871" y="91.551021"/>
     <use style="fill:#ff0000;stroke:#ff0000;" x="335.614033" xlink:href="#m4fd2584871" y="91.551021"/>
     <use style="fill:#ff0000;stroke:#ff0000;" x="336.757183" xlink:href="#m4fd2584871" y="91.551021"/>
     <use style="fill:#ff0000;stroke:#ff0000;" x="337.900333" xlink:href="#m4fd2584871" y="91.551021"/>
     <use style="fill:#ff0000;stroke:#ff0000;" x="339.043483" xlink:href="#m4fd2584871" y="91.551021"/>
     <use style="fill:#ff0000;stroke:#ff0000;" x="340.186633" xlink:href="#m4fd2584871" y="91.551021"/>
     <use style="fill:#ff0000;stroke:#ff0000;" x="341.329782" xlink:href="#m4fd2584871" y="91.551021"/>
     <use style="fill:#ff0000;stroke:#ff0000;" x="342.472932" xlink:href="#m4fd2584871" y="91.551021"/>
     <use style="fill:#ff0000;stroke:#ff0000;" x="343.616082" xlink:href="#m4fd2584871" y="91.551021"/>
     <use style="fill:#ff0000;stroke:#ff0000;" x="344.759232" xlink:href="#m4fd2584871" y="91.551021"/>
     <use style="fill:#ff0000;stroke:#ff0000;" x="345.902382" xlink:href="#m4fd2584871" y="91.551021"/>
     <use style="fill:#ff0000;stroke:#ff0000;" x="347.045531" xlink:href="#m4fd2584871" y="91.551021"/>
     <use style="fill:#ff0000;stroke:#ff0000;" x="348.188681" xlink:href="#m4fd2584871" y="91.551021"/>
     <use style="fill:#ff0000;stroke:#ff0000;" x="349.331831" xlink:href="#m4fd2584871" y="91.551021"/>
     <use style="fill:#ff0000;stroke:#ff0000;" x="350.474981" xlink:href="#m4fd2584871" y="91.551021"/>
     <use style="fill:#ff0000;stroke:#ff0000;" x="351.618131" xlink:href="#m4fd2584871" y="91.551021"/>
     <use style="fill:#ff0000;stroke:#ff0000;" x="352.76128" xlink:href="#m4fd2584871" y="91.551021"/>
     <use style="fill:#ff0000;stroke:#ff0000;" x="353.90443" xlink:href="#m4fd2584871" y="91.551021"/>
     <use style="fill:#ff0000;stroke:#ff0000;" x="355.04758" xlink:href="#m4fd2584871" y="91.551021"/>
     <use style="fill:#ff0000;stroke:#ff0000;" x="356.19073" xlink:href="#m4fd2584871" y="91.551021"/>
     <use style="fill:#ff0000;stroke:#ff0000;" x="357.33388" xlink:href="#m4fd2584871" y="91.551021"/>
     <use style="fill:#ff0000;stroke:#ff0000;" x="358.477029" xlink:href="#m4fd2584871" y="91.551021"/>
     <use style="fill:#ff0000;stroke:#ff0000;" x="359.620179" xlink:href="#m4fd2584871" y="91.551021"/>
     <use style="fill:#ff0000;stroke:#ff0000;" x="360.763329" xlink:href="#m4fd2584871" y="91.551021"/>
     <use style="fill:#ff0000;stroke:#ff0000;" x="361.906479" xlink:href="#m4fd2584871" y="91.551021"/>
     <use style="fill:#ff0000;stroke:#ff0000;" x="363.049629" xlink:href="#m4fd2584871" y="91.551021"/>
     <use style="fill:#ff0000;stroke:#ff0000;" x="364.192778" xlink:href="#m4fd2584871" y="91.551021"/>
     <use style="fill:#ff0000;stroke:#ff0000;" x="365.335928" xlink:href="#m4fd2584871" y="91.551021"/>
     <use style="fill:#ff0000;stroke:#ff0000;" x="366.479078" xlink:href="#m4fd2584871" y="91.551021"/>
     <use style="fill:#ff0000;stroke:#ff0000;" x="367.622228" xlink:href="#m4fd2584871" y="91.551021"/>
     <use style="fill:#ff0000;stroke:#ff0000;" x="368.765378" xlink:href="#m4fd2584871" y="91.551021"/>
     <use style="fill:#ff0000;stroke:#ff0000;" x="369.908528" xlink:href="#m4fd2584871" y="91.551021"/>
     <use style="fill:#ff0000;stroke:#ff0000;" x="371.051677" xlink:href="#m4fd2584871" y="91.551021"/>
     <use style="fill:#ff0000;stroke:#ff0000;" x="372.194827" xlink:href="#m4fd2584871" y="91.551021"/>
     <use style="fill:#ff0000;stroke:#ff0000;" x="373.337977" xlink:href="#m4fd2584871" y="91.551021"/>
     <use style="fill:#ff0000;stroke:#ff0000;" x="374.481127" xlink:href="#m4fd2584871" y="91.551021"/>
     <use style="fill:#ff0000;stroke:#ff0000;" x="375.624277" xlink:href="#m4fd2584871" y="91.551021"/>
     <use style="fill:#ff0000;stroke:#ff0000;" x="376.767426" xlink:href="#m4fd2584871" y="91.551021"/>
     <use style="fill:#ff0000;stroke:#ff0000;" x="377.910576" xlink:href="#m4fd2584871" y="91.551021"/>
     <use style="fill:#ff0000;stroke:#ff0000;" x="379.053726" xlink:href="#m4fd2584871" y="91.551021"/>
     <use style="fill:#ff0000;stroke:#ff0000;" x="380.196876" xlink:href="#m4fd2584871" y="91.551021"/>
     <use style="fill:#ff0000;stroke:#ff0000;" x="381.340026" xlink:href="#m4fd2584871" y="91.551021"/>
     <use style="fill:#ff0000;stroke:#ff0000;" x="382.483175" xlink:href="#m4fd2584871" y="91.551021"/>
     <use style="fill:#ff0000;stroke:#ff0000;" x="383.626325" xlink:href="#m4fd2584871" y="91.551021"/>
     <use style="fill:#ff0000;stroke:#ff0000;" x="384.769475" xlink:href="#m4fd2584871" y="91.551021"/>
     <use style="fill:#ff0000;stroke:#ff0000;" x="385.912625" xlink:href="#m4fd2584871" y="91.551021"/>
     <use style="fill:#ff0000;stroke:#ff0000;" x="387.055775" xlink:href="#m4fd2584871" y="91.551021"/>
     <use style="fill:#ff0000;stroke:#ff0000;" x="388.198924" xlink:href="#m4fd2584871" y="91.551021"/>
     <use style="fill:#ff0000;stroke:#ff0000;" x="389.342074" xlink:href="#m4fd2584871" y="91.551021"/>
     <use style="fill:#ff0000;stroke:#ff0000;" x="390.485224" xlink:href="#m4fd2584871" y="91.551021"/>
     <use style="fill:#ff0000;stroke:#ff0000;" x="391.628374" xlink:href="#m4fd2584871" y="91.551021"/>
     <use style="fill:#ff0000;stroke:#ff0000;" x="392.771524" xlink:href="#m4fd2584871" y="91.551021"/>
     <use style="fill:#ff0000;stroke:#ff0000;" x="393.914673" xlink:href="#m4fd2584871" y="91.551021"/>
     <use style="fill:#ff0000;stroke:#ff0000;" x="395.057823" xlink:href="#m4fd2584871" y="91.551021"/>
     <use style="fill:#ff0000;stroke:#ff0000;" x="396.200973" xlink:href="#m4fd2584871" y="91.551021"/>
     <use style="fill:#ff0000;stroke:#ff0000;" x="397.344123" xlink:href="#m4fd2584871" y="91.551021"/>
     <use style="fill:#ff0000;stroke:#ff0000;" x="398.487273" xlink:href="#m4fd2584871" y="91.551021"/>
    </g>
   </g>
   <g id="patch_3">
    <path d="M 57.6 307.584 
L 57.6 41.472 
" style="fill:none;stroke:#000000;stroke-linecap:square;stroke-linejoin:miter;stroke-width:0.8;"/>
   </g>
   <g id="patch_4">
    <path d="M 414.72 307.584 
L 414.72 41.472 
" style="fill:none;stroke:#000000;stroke-linecap:square;stroke-linejoin:miter;stroke-width:0.8;"/>
   </g>
   <g id="patch_5">
    <path d="M 57.6 307.584 
L 414.72 307.584 
" style="fill:none;stroke:#000000;stroke-linecap:square;stroke-linejoin:miter;stroke-width:0.8;"/>
   </g>
   <g id="patch_6">
    <path d="M 57.6 41.472 
L 414.72 41.472 
" style="fill:none;stroke:#000000;stroke-linecap:square;stroke-linejoin:miter;stroke-width:0.8;"/>
   </g>
  </g>
 </g>
 <defs>
  <clipPath id="p63358d46ec">
   <rect height="266.112" width="357.12" x="57.6" y="41.472"/>
  </clipPath>
 </defs>
</svg>
