<?xml version="1.0" encoding="utf-8" standalone="no"?>
<!DOCTYPE svg PUBLIC "-//W3C//DTD SVG 1.1//EN"
  "http://www.w3.org/Graphics/SVG/1.1/DTD/svg11.dtd">
<!-- Created with matplotlib (https://matplotlib.org/) -->
<svg height="345.6pt" version="1.1" viewBox="0 0 460.8 345.6" width="460.8pt" xmlns="http://www.w3.org/2000/svg" xmlns:xlink="http://www.w3.org/1999/xlink">
 <defs>
  <style type="text/css">
*{stroke-linecap:butt;stroke-linejoin:round;}
  </style>
 </defs>
 <g id="figure_1">
  <g id="patch_1">
   <path d="M 0 345.6 
L 460.8 345.6 
L 460.8 0 
L 0 0 
z
" style="fill:#ffffff;"/>
  </g>
  <g id="axes_1">
   <g id="patch_2">
    <path d="M 57.6 307.584 
L 414.72 307.584 
L 414.72 41.472 
L 57.6 41.472 
z
" style="fill:#ffffff;"/>
   </g>
   <g id="line2d_1">
    <path clip-path="url(#pd33a0cb9b7)" d="M 73.832727 294.500329 
L 76.549502 294.500329 
L 77.907889 220.66138 
L 83.341438 220.66138 
L 84.699825 295.488 
L 86.058212 295.488 
L 87.416599 294.88779 
L 88.774987 294.88779 
L 90.133374 226.139037 
L 91.491761 226.139037 
L 92.850148 156.17765 
L 95.566923 156.17765 
L 96.92531 172.118343 
L 99.642084 172.118343 
L 101.000472 99.21792 
L 102.358859 99.21792 
L 103.717246 174.997758 
L 105.075633 174.997758 
L 106.434021 98.931156 
L 109.150795 98.931156 
L 110.509182 124.761953 
L 111.867569 124.761953 
L 113.225957 101.610969 
L 114.584344 101.610969 
L 115.942731 125.444047 
L 117.301118 125.444047 
L 118.659506 126.135404 
L 120.017893 153.906219 
L 121.37628 153.906219 
L 122.734667 159.020076 
L 124.093054 159.020076 
L 125.451442 136.384679 
L 128.168216 136.384679 
L 129.526603 161.908562 
L 130.88499 161.908562 
L 132.243378 138.325756 
L 133.601765 138.325756 
L 134.960152 115.549709 
L 136.318539 115.549709 
L 137.676927 121.847986 
L 139.035314 121.847986 
L 140.393701 147.564965 
L 141.752088 147.564965 
L 143.110475 152.135558 
L 144.468863 175.841797 
L 147.185637 175.841797 
L 148.544024 200.985424 
L 152.619186 200.985424 
L 153.977573 179.008524 
L 155.33596 203.894748 
L 156.694348 203.894748 
L 158.052735 180.590264 
L 159.411122 180.590264 
L 160.769509 157.620267 
L 163.486284 157.620267 
L 164.844671 135.633104 
L 166.203058 135.633104 
L 167.561445 160.187187 
L 168.919833 160.187187 
L 170.27822 136.875814 
L 171.636607 136.875814 
L 172.994994 114.346549 
L 174.353382 114.346549 
L 175.711769 138.906955 
L 177.070156 138.906955 
L 178.428543 162.384018 
L 179.78693 139.84896 
L 181.145318 139.84896 
L 182.503705 136.070594 
L 189.295641 136.070594 
L 190.654028 114.605568 
L 192.012415 136.773064 
L 193.370803 136.773064 
L 194.72919 132.969385 
L 197.445964 132.969385 
L 198.804351 110.398259 
L 200.162739 110.398259 
L 201.521126 134.19473 
L 202.879513 134.19473 
L 204.2379 158.832007 
L 205.596288 138.761248 
L 206.954675 138.761248 
L 208.313062 165.199814 
L 209.671449 165.199814 
L 211.029836 140.615829 
L 212.388224 140.615829 
L 213.746611 134.872769 
L 215.104998 114.017197 
L 217.821773 114.017197 
L 219.18016 89.75753 
L 220.538547 117.578273 
L 224.613709 117.578273 
L 225.972096 95.017076 
L 238.197581 95.017076 
L 239.555968 102.359914 
L 240.914355 99.940938 
L 242.272742 99.940938 
L 243.63113 78.491913 
L 244.989517 78.491913 
L 246.347904 53.568 
L 247.706291 53.568 
L 249.064679 57.908333 
L 254.498227 57.908333 
L 255.856615 82.162078 
L 257.215002 82.162078 
L 258.573389 103.657717 
L 259.931776 131.6037 
L 261.290164 131.6037 
L 262.648551 107.566697 
L 264.006938 107.566697 
L 265.365325 85.413754 
L 266.723712 85.413754 
L 268.0821 109.321342 
L 269.440487 109.321342 
L 270.798874 136.43565 
L 272.157261 116.776589 
L 274.874036 116.776589 
L 276.232423 95.443365 
L 277.59081 119.89838 
L 280.307585 119.89838 
L 281.665972 99.941596 
L 283.024359 99.941596 
L 284.382746 123.14122 
L 285.741134 150.972885 
L 289.816295 150.972885 
L 291.174682 131.751068 
L 292.53307 131.751068 
L 293.891457 155.832328 
L 295.249844 155.832328 
L 296.608231 181.885868 
L 299.325006 181.885868 
L 300.683393 158.874978 
L 302.04178 158.874978 
L 303.400167 134.162526 
L 304.758555 134.162526 
L 306.116942 112.626626 
L 307.475329 117.140863 
L 308.833716 117.140863 
L 310.192103 95.814143 
L 311.550491 95.814143 
L 312.908878 120.977591 
L 314.267265 120.977591 
L 315.625652 96.172288 
L 318.342427 96.172288 
L 319.700814 67.887523 
L 321.059201 67.887523 
L 322.417588 92.019322 
L 323.775976 92.019322 
L 325.134363 91.551021 
L 398.487273 91.551021 
L 398.487273 91.551021 
" style="fill:none;stroke:#ff0000;stroke-linecap:square;stroke-width:12;"/>
    <defs>
     <path d="M 0 3 
C 0.795609 3 1.55874 2.683901 2.12132 2.12132 
C 2.683901 1.55874 3 0.795609 3 0 
C 3 -0.795609 2.683901 -1.55874 2.12132 -2.12132 
C 1.55874 -2.683901 0.795609 -3 0 -3 
C -0.795609 -3 -1.55874 -2.683901 -2.12132 -2.12132 
C -2.683901 -1.55874 -3 -0.795609 -3 0 
C -3 0.795609 -2.683901 1.55874 -2.12132 2.12132 
C -1.55874 2.683901 -0.795609 3 0 3 
z
" id="m989873b1d9" style="stroke:#ff0000;"/>
    </defs>
    <g clip-path="url(#pd33a0cb9b7)">
     <use style="fill:#ff0000;stroke:#ff0000;" x="73.832727" xlink:href="#m989873b1d9" y="294.500329"/>
     <use style="fill:#ff0000;stroke:#ff0000;" x="75.191114" xlink:href="#m989873b1d9" y="294.500329"/>
     <use style="fill:#ff0000;stroke:#ff0000;" x="76.549502" xlink:href="#m989873b1d9" y="294.500329"/>
     <use style="fill:#ff0000;stroke:#ff0000;" x="77.907889" xlink:href="#m989873b1d9" y="220.66138"/>
     <use style="fill:#ff0000;stroke:#ff0000;" x="79.266276" xlink:href="#m989873b1d9" y="220.66138"/>
     <use style="fill:#ff0000;stroke:#ff0000;" x="80.624663" xlink:href="#m989873b1d9" y="220.66138"/>
     <use style="fill:#ff0000;stroke:#ff0000;" x="81.983051" xlink:href="#m989873b1d9" y="220.66138"/>
     <use style="fill:#ff0000;stroke:#ff0000;" x="83.341438" xlink:href="#m989873b1d9" y="220.66138"/>
     <use style="fill:#ff0000;stroke:#ff0000;" x="84.699825" xlink:href="#m989873b1d9" y="295.488"/>
     <use style="fill:#ff0000;stroke:#ff0000;" x="86.058212" xlink:href="#m989873b1d9" y="295.488"/>
     <use style="fill:#ff0000;stroke:#ff0000;" x="87.416599" xlink:href="#m989873b1d9" y="294.88779"/>
     <use style="fill:#ff0000;stroke:#ff0000;" x="88.774987" xlink:href="#m989873b1d9" y="294.88779"/>
     <use style="fill:#ff0000;stroke:#ff0000;" x="90.133374" xlink:href="#m989873b1d9" y="226.139037"/>
     <use style="fill:#ff0000;stroke:#ff0000;" x="91.491761" xlink:href="#m989873b1d9" y="226.139037"/>
     <use style="fill:#ff0000;stroke:#ff0000;" x="92.850148" xlink:href="#m989873b1d9" y="156.17765"/>
     <use style="fill:#ff0000;stroke:#ff0000;" x="94.208536" xlink:href="#m989873b1d9" y="156.17765"/>
     <use style="fill:#ff0000;stroke:#ff0000;" x="95.566923" xlink:href="#m989873b1d9" y="156.17765"/>
     <use style="fill:#ff0000;stroke:#ff0000;" x="96.92531" xlink:href="#m989873b1d9" y="172.118343"/>
     <use style="fill:#ff0000;stroke:#ff0000;" x="98.283697" xlink:href="#m989873b1d9" y="172.118343"/>
     <use style="fill:#ff0000;stroke:#ff0000;" x="99.642084" xlink:href="#m989873b1d9" y="172.118343"/>
     <use style="fill:#ff0000;stroke:#ff0000;" x="101.000472" xlink:href="#m989873b1d9" y="99.21792"/>
     <use style="fill:#ff0000;stroke:#ff0000;" x="102.358859" xlink:href="#m989873b1d9" y="99.21792"/>
     <use style="fill:#ff0000;stroke:#ff0000;" x="103.717246" xlink:href="#m989873b1d9" y="174.997758"/>
     <use style="fill:#ff0000;stroke:#ff0000;" x="105.075633" xlink:href="#m989873b1d9" y="174.997758"/>
     <use style="fill:#ff0000;stroke:#ff0000;" x="106.434021" xlink:href="#m989873b1d9" y="98.931156"/>
     <use style="fill:#ff0000;stroke:#ff0000;" x="107.792408" xlink:href="#m989873b1d9" y="98.931156"/>
     <use style="fill:#ff0000;stroke:#ff0000;" x="109.150795" xlink:href="#m989873b1d9" y="98.931156"/>
     <use style="fill:#ff0000;stroke:#ff0000;" x="110.509182" xlink:href="#m989873b1d9" y="124.761953"/>
     <use style="fill:#ff0000;stroke:#ff0000;" x="111.867569" xlink:href="#m989873b1d9" y="124.761953"/>
     <use style="fill:#ff0000;stroke:#ff0000;" x="113.225957" xlink:href="#m989873b1d9" y="101.610969"/>
     <use style="fill:#ff0000;stroke:#ff0000;" x="114.584344" xlink:href="#m989873b1d9" y="101.610969"/>
     <use style="fill:#ff0000;stroke:#ff0000;" x="115.942731" xlink:href="#m989873b1d9" y="125.444047"/>
     <use style="fill:#ff0000;stroke:#ff0000;" x="117.301118" xlink:href="#m989873b1d9" y="125.444047"/>
     <use style="fill:#ff0000;stroke:#ff0000;" x="118.659506" xlink:href="#m989873b1d9" y="126.135404"/>
     <use style="fill:#ff0000;stroke:#ff0000;" x="120.017893" xlink:href="#m989873b1d9" y="153.906219"/>
     <use style="fill:#ff0000;stroke:#ff0000;" x="121.37628" xlink:href="#m989873b1d9" y="153.906219"/>
     <use style="fill:#ff0000;stroke:#ff0000;" x="122.734667" xlink:href="#m989873b1d9" y="159.020076"/>
     <use style="fill:#ff0000;stroke:#ff0000;" x="124.093054" xlink:href="#m989873b1d9" y="159.020076"/>
     <use style="fill:#ff0000;stroke:#ff0000;" x="125.451442" xlink:href="#m989873b1d9" y="136.384679"/>
     <use style="fill:#ff0000;stroke:#ff0000;" x="126.809829" xlink:href="#m989873b1d9" y="136.384679"/>
     <use style="fill:#ff0000;stroke:#ff0000;" x="128.168216" xlink:href="#m989873b1d9" y="136.384679"/>
     <use style="fill:#ff0000;stroke:#ff0000;" x="129.526603" xlink:href="#m989873b1d9" y="161.908562"/>
     <use style="fill:#ff0000;stroke:#ff0000;" x="130.88499" xlink:href="#m989873b1d9" y="161.908562"/>
     <use style="fill:#ff0000;stroke:#ff0000;" x="132.243378" xlink:href="#m989873b1d9" y="138.325756"/>
     <use style="fill:#ff0000;stroke:#ff0000;" x="133.601765" xlink:href="#m989873b1d9" y="138.325756"/>
     <use style="fill:#ff0000;stroke:#ff0000;" x="134.960152" xlink:href="#m989873b1d9" y="115.549709"/>
     <use style="fill:#ff0000;stroke:#ff0000;" x="136.318539" xlink:href="#m989873b1d9" y="115.549709"/>
     <use style="fill:#ff0000;stroke:#ff0000;" x="137.676927" xlink:href="#m989873b1d9" y="121.847986"/>
     <use style="fill:#ff0000;stroke:#ff0000;" x="139.035314" xlink:href="#m989873b1d9" y="121.847986"/>
     <use style="fill:#ff0000;stroke:#ff0000;" x="140.393701" xlink:href="#m989873b1d9" y="147.564965"/>
     <use style="fill:#ff0000;stroke:#ff0000;" x="141.752088" xlink:href="#m989873b1d9" y="147.564965"/>
     <use style="fill:#ff0000;stroke:#ff0000;" x="143.110475" xlink:href="#m989873b1d9" y="152.135558"/>
     <use style="fill:#ff0000;stroke:#ff0000;" x="144.468863" xlink:href="#m989873b1d9" y="175.841797"/>
     <use style="fill:#ff0000;stroke:#ff0000;" x="145.82725" xlink:href="#m989873b1d9" y="175.841797"/>
     <use style="fill:#ff0000;stroke:#ff0000;" x="147.185637" xlink:href="#m989873b1d9" y="175.841797"/>
     <use style="fill:#ff0000;stroke:#ff0000;" x="148.544024" xlink:href="#m989873b1d9" y="200.985424"/>
     <use style="fill:#ff0000;stroke:#ff0000;" x="149.902412" xlink:href="#m989873b1d9" y="200.985424"/>
     <use style="fill:#ff0000;stroke:#ff0000;" x="151.260799" xlink:href="#m989873b1d9" y="200.985424"/>
     <use style="fill:#ff0000;stroke:#ff0000;" x="152.619186" xlink:href="#m989873b1d9" y="200.985424"/>
     <use style="fill:#ff0000;stroke:#ff0000;" x="153.977573" xlink:href="#m989873b1d9" y="179.008524"/>
     <use style="fill:#ff0000;stroke:#ff0000;" x="155.33596" xlink:href="#m989873b1d9" y="203.894748"/>
     <use style="fill:#ff0000;stroke:#ff0000;" x="156.694348" xlink:href="#m989873b1d9" y="203.894748"/>
     <use style="fill:#ff0000;stroke:#ff0000;" x="158.052735" xlink:href="#m989873b1d9" y="180.590264"/>
     <use style="fill:#ff0000;stroke:#ff0000;" x="159.411122" xlink:href="#m989873b1d9" y="180.590264"/>
     <use style="fill:#ff0000;stroke:#ff0000;" x="160.769509" xlink:href="#m989873b1d9" y="157.620267"/>
     <use style="fill:#ff0000;stroke:#ff0000;" x="162.127897" xlink:href="#m989873b1d9" y="157.620267"/>
     <use style="fill:#ff0000;stroke:#ff0000;" x="163.486284" xlink:href="#m989873b1d9" y="157.620267"/>
     <use style="fill:#ff0000;stroke:#ff0000;" x="164.844671" xlink:href="#m989873b1d9" y="135.633104"/>
     <use style="fill:#ff0000;stroke:#ff0000;" x="166.203058" xlink:href="#m989873b1d9" y="135.633104"/>
     <use style="fill:#ff0000;stroke:#ff0000;" x="167.561445" xlink:href="#m989873b1d9" y="160.187187"/>
     <use style="fill:#ff0000;stroke:#ff0000;" x="168.919833" xlink:href="#m989873b1d9" y="160.187187"/>
     <use style="fill:#ff0000;stroke:#ff0000;" x="170.27822" xlink:href="#m989873b1d9" y="136.875814"/>
     <use style="fill:#ff0000;stroke:#ff0000;" x="171.636607" xlink:href="#m989873b1d9" y="136.875814"/>
     <use style="fill:#ff0000;stroke:#ff0000;" x="172.994994" xlink:href="#m989873b1d9" y="114.346549"/>
     <use style="fill:#ff0000;stroke:#ff0000;" x="174.353382" xlink:href="#m989873b1d9" y="114.346549"/>
     <use style="fill:#ff0000;stroke:#ff0000;" x="175.711769" xlink:href="#m989873b1d9" y="138.906955"/>
     <use style="fill:#ff0000;stroke:#ff0000;" x="177.070156" xlink:href="#m989873b1d9" y="138.906955"/>
     <use style="fill:#ff0000;stroke:#ff0000;" x="178.428543" xlink:href="#m989873b1d9" y="162.384018"/>
     <use style="fill:#ff0000;stroke:#ff0000;" x="179.78693" xlink:href="#m989873b1d9" y="139.84896"/>
     <use style="fill:#ff0000;stroke:#ff0000;" x="181.145318" xlink:href="#m989873b1d9" y="139.84896"/>
     <use style="fill:#ff0000;stroke:#ff0000;" x="182.503705" xlink:href="#m989873b1d9" y="136.070594"/>
     <use style="fill:#ff0000;stroke:#ff0000;" x="183.862092" xlink:href="#m989873b1d9" y="136.070594"/>
     <use style="fill:#ff0000;stroke:#ff0000;" x="185.220479" xlink:href="#m989873b1d9" y="136.070594"/>
     <use style="fill:#ff0000;stroke:#ff0000;" x="186.578866" xlink:href="#m989873b1d9" y="136.070594"/>
     <use style="fill:#ff0000;stroke:#ff0000;" x="187.937254" xlink:href="#m989873b1d9" y="136.070594"/>
     <use style="fill:#ff0000;stroke:#ff0000;" x="189.295641" xlink:href="#m989873b1d9" y="136.070594"/>
     <use style="fill:#ff0000;stroke:#ff0000;" x="190.654028" xlink:href="#m989873b1d9" y="114.605568"/>
     <use style="fill:#ff0000;stroke:#ff0000;" x="192.012415" xlink:href="#m989873b1d9" y="136.773064"/>
     <use style="fill:#ff0000;stroke:#ff0000;" x="193.370803" xlink:href="#m989873b1d9" y="136.773064"/>
     <use style="fill:#ff0000;stroke:#ff0000;" x="194.72919" xlink:href="#m989873b1d9" y="132.969385"/>
     <use style="fill:#ff0000;stroke:#ff0000;" x="196.087577" xlink:href="#m989873b1d9" y="132.969385"/>
     <use style="fill:#ff0000;stroke:#ff0000;" x="197.445964" xlink:href="#m989873b1d9" y="132.969385"/>
     <use style="fill:#ff0000;stroke:#ff0000;" x="198.804351" xlink:href="#m989873b1d9" y="110.398259"/>
     <use style="fill:#ff0000;stroke:#ff0000;" x="200.162739" xlink:href="#m989873b1d9" y="110.398259"/>
     <use style="fill:#ff0000;stroke:#ff0000;" x="201.521126" xlink:href="#m989873b1d9" y="134.19473"/>
     <use style="fill:#ff0000;stroke:#ff0000;" x="202.879513" xlink:href="#m989873b1d9" y="134.19473"/>
     <use style="fill:#ff0000;stroke:#ff0000;" x="204.2379" xlink:href="#m989873b1d9" y="158.832007"/>
     <use style="fill:#ff0000;stroke:#ff0000;" x="205.596288" xlink:href="#m989873b1d9" y="138.761248"/>
     <use style="fill:#ff0000;stroke:#ff0000;" x="206.954675" xlink:href="#m989873b1d9" y="138.761248"/>
     <use style="fill:#ff0000;stroke:#ff0000;" x="208.313062" xlink:href="#m989873b1d9" y="165.199814"/>
     <use style="fill:#ff0000;stroke:#ff0000;" x="209.671449" xlink:href="#m989873b1d9" y="165.199814"/>
     <use style="fill:#ff0000;stroke:#ff0000;" x="211.029836" xlink:href="#m989873b1d9" y="140.615829"/>
     <use style="fill:#ff0000;stroke:#ff0000;" x="212.388224" xlink:href="#m989873b1d9" y="140.615829"/>
     <use style="fill:#ff0000;stroke:#ff0000;" x="213.746611" xlink:href="#m989873b1d9" y="134.872769"/>
     <use style="fill:#ff0000;stroke:#ff0000;" x="215.104998" xlink:href="#m989873b1d9" y="114.017197"/>
     <use style="fill:#ff0000;stroke:#ff0000;" x="216.463385" xlink:href="#m989873b1d9" y="114.017197"/>
     <use style="fill:#ff0000;stroke:#ff0000;" x="217.821773" xlink:href="#m989873b1d9" y="114.017197"/>
     <use style="fill:#ff0000;stroke:#ff0000;" x="219.18016" xlink:href="#m989873b1d9" y="89.75753"/>
     <use style="fill:#ff0000;stroke:#ff0000;" x="220.538547" xlink:href="#m989873b1d9" y="117.578273"/>
     <use style="fill:#ff0000;stroke:#ff0000;" x="221.896934" xlink:href="#m989873b1d9" y="117.578273"/>
     <use style="fill:#ff0000;stroke:#ff0000;" x="223.255321" xlink:href="#m989873b1d9" y="117.578273"/>
     <use style="fill:#ff0000;stroke:#ff0000;" x="224.613709" xlink:href="#m989873b1d9" y="117.578273"/>
     <use style="fill:#ff0000;stroke:#ff0000;" x="225.972096" xlink:href="#m989873b1d9" y="95.017076"/>
     <use style="fill:#ff0000;stroke:#ff0000;" x="227.330483" xlink:href="#m989873b1d9" y="95.017076"/>
     <use style="fill:#ff0000;stroke:#ff0000;" x="228.68887" xlink:href="#m989873b1d9" y="95.017076"/>
     <use style="fill:#ff0000;stroke:#ff0000;" x="230.047258" xlink:href="#m989873b1d9" y="95.017076"/>
     <use style="fill:#ff0000;stroke:#ff0000;" x="231.405645" xlink:href="#m989873b1d9" y="95.017076"/>
     <use style="fill:#ff0000;stroke:#ff0000;" x="232.764032" xlink:href="#m989873b1d9" y="95.017076"/>
     <use style="fill:#ff0000;stroke:#ff0000;" x="234.122419" xlink:href="#m989873b1d9" y="95.017076"/>
     <use style="fill:#ff0000;stroke:#ff0000;" x="235.480806" xlink:href="#m989873b1d9" y="95.017076"/>
     <use style="fill:#ff0000;stroke:#ff0000;" x="236.839194" xlink:href="#m989873b1d9" y="95.017076"/>
     <use style="fill:#ff0000;stroke:#ff0000;" x="238.197581" xlink:href="#m989873b1d9" y="95.017076"/>
     <use style="fill:#ff0000;stroke:#ff0000;" x="239.555968" xlink:href="#m989873b1d9" y="102.359914"/>
     <use style="fill:#ff0000;stroke:#ff0000;" x="240.914355" xlink:href="#m989873b1d9" y="99.940938"/>
     <use style="fill:#ff0000;stroke:#ff0000;" x="242.272742" xlink:href="#m989873b1d9" y="99.940938"/>
     <use style="fill:#ff0000;stroke:#ff0000;" x="243.63113" xlink:href="#m989873b1d9" y="78.491913"/>
     <use style="fill:#ff0000;stroke:#ff0000;" x="244.989517" xlink:href="#m989873b1d9" y="78.491913"/>
     <use style="fill:#ff0000;stroke:#ff0000;" x="246.347904" xlink:href="#m989873b1d9" y="53.568"/>
     <use style="fill:#ff0000;stroke:#ff0000;" x="247.706291" xlink:href="#m989873b1d9" y="53.568"/>
     <use style="fill:#ff0000;stroke:#ff0000;" x="249.064679" xlink:href="#m989873b1d9" y="57.908333"/>
     <use style="fill:#ff0000;stroke:#ff0000;" x="250.423066" xlink:href="#m989873b1d9" y="57.908333"/>
     <use style="fill:#ff0000;stroke:#ff0000;" x="251.781453" xlink:href="#m989873b1d9" y="57.908333"/>
     <use style="fill:#ff0000;stroke:#ff0000;" x="253.13984" xlink:href="#m989873b1d9" y="57.908333"/>
     <use style="fill:#ff0000;stroke:#ff0000;" x="254.498227" xlink:href="#m989873b1d9" y="57.908333"/>
     <use style="fill:#ff0000;stroke:#ff0000;" x="255.856615" xlink:href="#m989873b1d9" y="82.162078"/>
     <use style="fill:#ff0000;stroke:#ff0000;" x="257.215002" xlink:href="#m989873b1d9" y="82.162078"/>
     <use style="fill:#ff0000;stroke:#ff0000;" x="258.573389" xlink:href="#m989873b1d9" y="103.657717"/>
     <use style="fill:#ff0000;stroke:#ff0000;" x="259.931776" xlink:href="#m989873b1d9" y="131.6037"/>
     <use style="fill:#ff0000;stroke:#ff0000;" x="261.290164" xlink:href="#m989873b1d9" y="131.6037"/>
     <use style="fill:#ff0000;stroke:#ff0000;" x="262.648551" xlink:href="#m989873b1d9" y="107.566697"/>
     <use style="fill:#ff0000;stroke:#ff0000;" x="264.006938" xlink:href="#m989873b1d9" y="107.566697"/>
     <use style="fill:#ff0000;stroke:#ff0000;" x="265.365325" xlink:href="#m989873b1d9" y="85.413754"/>
     <use style="fill:#ff0000;stroke:#ff0000;" x="266.723712" xlink:href="#m989873b1d9" y="85.413754"/>
     <use style="fill:#ff0000;stroke:#ff0000;" x="268.0821" xlink:href="#m989873b1d9" y="109.321342"/>
     <use style="fill:#ff0000;stroke:#ff0000;" x="269.440487" xlink:href="#m989873b1d9" y="109.321342"/>
     <use style="fill:#ff0000;stroke:#ff0000;" x="270.798874" xlink:href="#m989873b1d9" y="136.43565"/>
     <use style="fill:#ff0000;stroke:#ff0000;" x="272.157261" xlink:href="#m989873b1d9" y="116.776589"/>
     <use style="fill:#ff0000;stroke:#ff0000;" x="273.515649" xlink:href="#m989873b1d9" y="116.776589"/>
     <use style="fill:#ff0000;stroke:#ff0000;" x="274.874036" xlink:href="#m989873b1d9" y="116.776589"/>
     <use style="fill:#ff0000;stroke:#ff0000;" x="276.232423" xlink:href="#m989873b1d9" y="95.443365"/>
     <use style="fill:#ff0000;stroke:#ff0000;" x="277.59081" xlink:href="#m989873b1d9" y="119.89838"/>
     <use style="fill:#ff0000;stroke:#ff0000;" x="278.949197" xlink:href="#m989873b1d9" y="119.89838"/>
     <use style="fill:#ff0000;stroke:#ff0000;" x="280.307585" xlink:href="#m989873b1d9" y="119.89838"/>
     <use style="fill:#ff0000;stroke:#ff0000;" x="281.665972" xlink:href="#m989873b1d9" y="99.941596"/>
     <use style="fill:#ff0000;stroke:#ff0000;" x="283.024359" xlink:href="#m989873b1d9" y="99.941596"/>
     <use style="fill:#ff0000;stroke:#ff0000;" x="284.382746" xlink:href="#m989873b1d9" y="123.14122"/>
     <use style="fill:#ff0000;stroke:#ff0000;" x="285.741134" xlink:href="#m989873b1d9" y="150.972885"/>
     <use style="fill:#ff0000;stroke:#ff0000;" x="287.099521" xlink:href="#m989873b1d9" y="150.972885"/>
     <use style="fill:#ff0000;stroke:#ff0000;" x="288.457908" xlink:href="#m989873b1d9" y="150.972885"/>
     <use style="fill:#ff0000;stroke:#ff0000;" x="289.816295" xlink:href="#m989873b1d9" y="150.972885"/>
     <use style="fill:#ff0000;stroke:#ff0000;" x="291.174682" xlink:href="#m989873b1d9" y="131.751068"/>
     <use style="fill:#ff0000;stroke:#ff0000;" x="292.53307" xlink:href="#m989873b1d9" y="131.751068"/>
     <use style="fill:#ff0000;stroke:#ff0000;" x="293.891457" xlink:href="#m989873b1d9" y="155.832328"/>
     <use style="fill:#ff0000;stroke:#ff0000;" x="295.249844" xlink:href="#m989873b1d9" y="155.832328"/>
     <use style="fill:#ff0000;stroke:#ff0000;" x="296.608231" xlink:href="#m989873b1d9" y="181.885868"/>
     <use style="fill:#ff0000;stroke:#ff0000;" x="297.966618" xlink:href="#m989873b1d9" y="181.885868"/>
     <use style="fill:#ff0000;stroke:#ff0000;" x="299.325006" xlink:href="#m989873b1d9" y="181.885868"/>
     <use style="fill:#ff0000;stroke:#ff0000;" x="300.683393" xlink:href="#m989873b1d9" y="158.874978"/>
     <use style="fill:#ff0000;stroke:#ff0000;" x="302.04178" xlink:href="#m989873b1d9" y="158.874978"/>
     <use style="fill:#ff0000;stroke:#ff0000;" x="303.400167" xlink:href="#m989873b1d9" y="134.162526"/>
     <use style="fill:#ff0000;stroke:#ff0000;" x="304.758555" xlink:href="#m989873b1d9" y="134.162526"/>
     <use style="fill:#ff0000;stroke:#ff0000;" x="306.116942" xlink:href="#m989873b1d9" y="112.626626"/>
     <use style="fill:#ff0000;stroke:#ff0000;" x="307.475329" xlink:href="#m989873b1d9" y="117.140863"/>
     <use style="fill:#ff0000;stroke:#ff0000;" x="308.833716" xlink:href="#m989873b1d9" y="117.140863"/>
     <use style="fill:#ff0000;stroke:#ff0000;" x="310.192103" xlink:href="#m989873b1d9" y="95.814143"/>
     <use style="fill:#ff0000;stroke:#ff0000;" x="311.550491" xlink:href="#m989873b1d9" y="95.814143"/>
     <use style="fill:#ff0000;stroke:#ff0000;" x="312.908878" xlink:href="#m989873b1d9" y="120.977591"/>
     <use style="fill:#ff0000;stroke:#ff0000;" x="314.267265" xlink:href="#m989873b1d9" y="120.977591"/>
     <use style="fill:#ff0000;stroke:#ff0000;" x="315.625652" xlink:href="#m989873b1d9" y="96.172288"/>
     <use style="fill:#ff0000;stroke:#ff0000;" x="316.98404" xlink:href="#m989873b1d9" y="96.172288"/>
     <use style="fill:#ff0000;stroke:#ff0000;" x="318.342427" xlink:href="#m989873b1d9" y="96.172288"/>
     <use style="fill:#ff0000;stroke:#ff0000;" x="319.700814" xlink:href="#m989873b1d9" y="67.887523"/>
     <use style="fill:#ff0000;stroke:#ff0000;" x="321.059201" xlink:href="#m989873b1d9" y="67.887523"/>
     <use style="fill:#ff0000;stroke:#ff0000;" x="322.417588" xlink:href="#m989873b1d9" y="92.019322"/>
     <use style="fill:#ff0000;stroke:#ff0000;" x="323.775976" xlink:href="#m989873b1d9" y="92.019322"/>
     <use style="fill:#ff0000;stroke:#ff0000;" x="325.134363" xlink:href="#m989873b1d9" y="91.551021"/>
     <use style="fill:#ff0000;stroke:#ff0000;" x="326.49275" xlink:href="#m989873b1d9" y="91.551021"/>
     <use style="fill:#ff0000;stroke:#ff0000;" x="327.851137" xlink:href="#m989873b1d9" y="91.551021"/>
     <use style="fill:#ff0000;stroke:#ff0000;" x="329.209525" xlink:href="#m989873b1d9" y="91.551021"/>
     <use style="fill:#ff0000;stroke:#ff0000;" x="330.567912" xlink:href="#m989873b1d9" y="91.551021"/>
     <use style="fill:#ff0000;stroke:#ff0000;" x="331.926299" xlink:href="#m989873b1d9" y="91.551021"/>
     <use style="fill:#ff0000;stroke:#ff0000;" x="333.284686" xlink:href="#m989873b1d9" y="91.551021"/>
     <use style="fill:#ff0000;stroke:#ff0000;" x="334.643073" xlink:href="#m989873b1d9" y="91.551021"/>
     <use style="fill:#ff0000;stroke:#ff0000;" x="336.001461" xlink:href="#m989873b1d9" y="91.551021"/>
     <use style="fill:#ff0000;stroke:#ff0000;" x="337.359848" xlink:href="#m989873b1d9" y="91.551021"/>
     <use style="fill:#ff0000;stroke:#ff0000;" x="338.718235" xlink:href="#m989873b1d9" y="91.551021"/>
     <use style="fill:#ff0000;stroke:#ff0000;" x="340.076622" xlink:href="#m989873b1d9" y="91.551021"/>
     <use style="fill:#ff0000;stroke:#ff0000;" x="341.43501" xlink:href="#m989873b1d9" y="91.551021"/>
     <use style="fill:#ff0000;stroke:#ff0000;" x="342.793397" xlink:href="#m989873b1d9" y="91.551021"/>
     <use style="fill:#ff0000;stroke:#ff0000;" x="344.151784" xlink:href="#m989873b1d9" y="91.551021"/>
     <use style="fill:#ff0000;stroke:#ff0000;" x="345.510171" xlink:href="#m989873b1d9" y="91.551021"/>
     <use style="fill:#ff0000;stroke:#ff0000;" x="346.868558" xlink:href="#m989873b1d9" y="91.551021"/>
     <use style="fill:#ff0000;stroke:#ff0000;" x="348.226946" xlink:href="#m989873b1d9" y="91.551021"/>
     <use style="fill:#ff0000;stroke:#ff0000;" x="349.585333" xlink:href="#m989873b1d9" y="91.551021"/>
     <use style="fill:#ff0000;stroke:#ff0000;" x="350.94372" xlink:href="#m989873b1d9" y="91.551021"/>
     <use style="fill:#ff0000;stroke:#ff0000;" x="352.302107" xlink:href="#m989873b1d9" y="91.551021"/>
     <use style="fill:#ff0000;stroke:#ff0000;" x="353.660494" xlink:href="#m989873b1d9" y="91.551021"/>
     <use style="fill:#ff0000;stroke:#ff0000;" x="355.018882" xlink:href="#m989873b1d9" y="91.551021"/>
     <use style="fill:#ff0000;stroke:#ff0000;" x="356.377269" xlink:href="#m989873b1d9" y="91.551021"/>
     <use style="fill:#ff0000;stroke:#ff0000;" x="357.735656" xlink:href="#m989873b1d9" y="91.551021"/>
     <use style="fill:#ff0000;stroke:#ff0000;" x="359.094043" xlink:href="#m989873b1d9" y="91.551021"/>
     <use style="fill:#ff0000;stroke:#ff0000;" x="360.452431" xlink:href="#m989873b1d9" y="91.551021"/>
     <use style="fill:#ff0000;stroke:#ff0000;" x="361.810818" xlink:href="#m989873b1d9" y="91.551021"/>
     <use style="fill:#ff0000;stroke:#ff0000;" x="363.169205" xlink:href="#m989873b1d9" y="91.551021"/>
     <use style="fill:#ff0000;stroke:#ff0000;" x="364.527592" xlink:href="#m989873b1d9" y="91.551021"/>
     <use style="fill:#ff0000;stroke:#ff0000;" x="365.885979" xlink:href="#m989873b1d9" y="91.551021"/>
     <use style="fill:#ff0000;stroke:#ff0000;" x="367.244367" xlink:href="#m989873b1d9" y="91.551021"/>
     <use style="fill:#ff0000;stroke:#ff0000;" x="368.602754" xlink:href="#m989873b1d9" y="91.551021"/>
     <use style="fill:#ff0000;stroke:#ff0000;" x="369.961141" xlink:href="#m989873b1d9" y="91.551021"/>
     <use style="fill:#ff0000;stroke:#ff0000;" x="371.319528" xlink:href="#m989873b1d9" y="91.551021"/>
     <use style="fill:#ff0000;stroke:#ff0000;" x="372.677916" xlink:href="#m989873b1d9" y="91.551021"/>
     <use style="fill:#ff0000;stroke:#ff0000;" x="374.036303" xlink:href="#m989873b1d9" y="91.551021"/>
     <use style="fill:#ff0000;stroke:#ff0000;" x="375.39469" xlink:href="#m989873b1d9" y="91.551021"/>
     <use style="fill:#ff0000;stroke:#ff0000;" x="376.753077" xlink:href="#m989873b1d9" y="91.551021"/>
     <use style="fill:#ff0000;stroke:#ff0000;" x="378.111464" xlink:href="#m989873b1d9" y="91.551021"/>
     <use style="fill:#ff0000;stroke:#ff0000;" x="379.469852" xlink:href="#m989873b1d9" y="91.551021"/>
     <use style="fill:#ff0000;stroke:#ff0000;" x="380.828239" xlink:href="#m989873b1d9" y="91.551021"/>
     <use style="fill:#ff0000;stroke:#ff0000;" x="382.186626" xlink:href="#m989873b1d9" y="91.551021"/>
     <use style="fill:#ff0000;stroke:#ff0000;" x="383.545013" xlink:href="#m989873b1d9" y="91.551021"/>
     <use style="fill:#ff0000;stroke:#ff0000;" x="384.903401" xlink:href="#m989873b1d9" y="91.551021"/>
     <use style="fill:#ff0000;stroke:#ff0000;" x="386.261788" xlink:href="#m989873b1d9" y="91.551021"/>
     <use style="fill:#ff0000;stroke:#ff0000;" x="387.620175" xlink:href="#m989873b1d9" y="91.551021"/>
     <use style="fill:#ff0000;stroke:#ff0000;" x="388.978562" xlink:href="#m989873b1d9" y="91.551021"/>
     <use style="fill:#ff0000;stroke:#ff0000;" x="390.336949" xlink:href="#m989873b1d9" y="91.551021"/>
     <use style="fill:#ff0000;stroke:#ff0000;" x="391.695337" xlink:href="#m989873b1d9" y="91.551021"/>
     <use style="fill:#ff0000;stroke:#ff0000;" x="393.053724" xlink:href="#m989873b1d9" y="91.551021"/>
     <use style="fill:#ff0000;stroke:#ff0000;" x="394.412111" xlink:href="#m989873b1d9" y="91.551021"/>
     <use style="fill:#ff0000;stroke:#ff0000;" x="395.770498" xlink:href="#m989873b1d9" y="91.551021"/>
     <use style="fill:#ff0000;stroke:#ff0000;" x="397.128886" xlink:href="#m989873b1d9" y="91.551021"/>
     <use style="fill:#ff0000;stroke:#ff0000;" x="398.487273" xlink:href="#m989873b1d9" y="91.551021"/>
    </g>
   </g>
   <g id="patch_3">
    <path d="M 57.6 307.584 
L 57.6 41.472 
" style="fill:none;stroke:#000000;stroke-linecap:square;stroke-linejoin:miter;stroke-width:0.8;"/>
   </g>
   <g id="patch_4">
    <path d="M 414.72 307.584 
L 414.72 41.472 
" style="fill:none;stroke:#000000;stroke-linecap:square;stroke-linejoin:miter;stroke-width:0.8;"/>
   </g>
   <g id="patch_5">
    <path d="M 57.6 307.584 
L 414.72 307.584 
" style="fill:none;stroke:#000000;stroke-linecap:square;stroke-linejoin:miter;stroke-width:0.8;"/>
   </g>
   <g id="patch_6">
    <path d="M 57.6 41.472 
L 414.72 41.472 
" style="fill:none;stroke:#000000;stroke-linecap:square;stroke-linejoin:miter;stroke-width:0.8;"/>
   </g>
  </g>
 </g>
 <defs>
  <clipPath id="pd33a0cb9b7">
   <rect height="266.112" width="357.12" x="57.6" y="41.472"/>
  </clipPath>
 </defs>
</svg>
