<?xml version="1.0" encoding="utf-8" standalone="no"?>
<!DOCTYPE svg PUBLIC "-//W3C//DTD SVG 1.1//EN"
  "http://www.w3.org/Graphics/SVG/1.1/DTD/svg11.dtd">
<!-- Created with matplotlib (https://matplotlib.org/) -->
<svg height="345.6pt" version="1.1" viewBox="0 0 460.8 345.6" width="460.8pt" xmlns="http://www.w3.org/2000/svg" xmlns:xlink="http://www.w3.org/1999/xlink">
 <defs>
  <style type="text/css">
*{stroke-linecap:butt;stroke-linejoin:round;}
  </style>
 </defs>
 <g id="figure_1">
  <g id="patch_1">
   <path d="M 0 345.6 
L 460.8 345.6 
L 460.8 0 
L 0 0 
z
" style="fill:#ffffff;"/>
  </g>
  <g id="axes_1">
   <g id="patch_2">
    <path d="M 57.6 307.584 
L 414.72 307.584 
L 414.72 41.472 
L 57.6 41.472 
z
" style="fill:#ffffff;"/>
   </g>
   <g id="line2d_1">
    <path clip-path="url(#p2e71ca1dee)" d="M 73.832727 294.500329 
L 76.273739 294.500329 
L 77.494245 220.66138 
L 82.376268 220.66138 
L 83.596774 295.488 
L 84.81728 295.488 
L 86.037785 294.88779 
L 87.258291 294.88779 
L 88.478797 226.139037 
L 89.699303 226.139037 
L 90.919809 156.17765 
L 93.36082 156.17765 
L 94.581326 172.118343 
L 97.022338 172.118343 
L 98.242843 99.21792 
L 99.463349 99.21792 
L 100.683855 174.997758 
L 101.904361 174.997758 
L 103.124867 98.931156 
L 105.565878 98.931156 
L 106.786384 124.761953 
L 108.00689 124.761953 
L 109.227396 101.610969 
L 110.447902 101.610969 
L 111.668407 125.444047 
L 112.888913 125.444047 
L 114.109419 126.135404 
L 115.329925 153.906219 
L 116.550431 153.906219 
L 117.770936 159.020076 
L 118.991442 159.020076 
L 120.211948 136.384679 
L 122.65296 136.384679 
L 123.873465 161.908562 
L 125.093971 161.908562 
L 126.314477 138.325756 
L 127.534983 138.325756 
L 128.755489 115.549709 
L 129.975995 115.549709 
L 131.1965 121.847986 
L 132.417006 121.847986 
L 133.637512 147.564965 
L 134.858018 147.564965 
L 136.078524 152.135558 
L 137.299029 175.841797 
L 139.740041 175.841797 
L 140.960547 200.985424 
L 144.622064 200.985424 
L 145.84257 179.008524 
L 147.063076 203.894748 
L 148.283582 203.894748 
L 149.504087 180.590264 
L 150.724593 180.590264 
L 151.945099 157.620267 
L 154.386111 157.620267 
L 155.606617 135.633104 
L 156.827122 135.633104 
L 158.047628 160.187187 
L 159.268134 160.187187 
L 160.48864 136.875814 
L 161.709146 136.875814 
L 162.929651 114.346549 
L 164.150157 114.346549 
L 165.370663 138.906955 
L 166.591169 138.906955 
L 167.811675 162.384018 
L 169.03218 139.84896 
L 170.252686 139.84896 
L 171.473192 136.070594 
L 177.575721 136.070594 
L 178.796227 114.605568 
L 180.016733 136.773064 
L 181.237239 136.773064 
L 182.457744 132.969385 
L 184.898756 132.969385 
L 186.119262 110.398259 
L 187.339768 110.398259 
L 188.560273 134.19473 
L 189.780779 134.19473 
L 191.001285 158.832007 
L 192.221791 138.761248 
L 193.442297 138.761248 
L 194.662802 165.199814 
L 195.883308 165.199814 
L 197.103814 140.615829 
L 198.32432 140.615829 
L 199.544826 134.872769 
L 200.765332 114.017197 
L 203.206343 114.017197 
L 204.426849 89.75753 
L 205.647355 117.578273 
L 209.308872 117.578273 
L 210.529378 95.017076 
L 221.51393 95.017076 
L 222.734436 102.359914 
L 223.954942 99.940938 
L 225.175448 99.940938 
L 226.395954 78.491913 
L 227.616459 78.491913 
L 228.836965 53.568 
L 230.057471 53.568 
L 231.277977 57.908333 
L 236.16 57.908333 
L 237.380506 82.162078 
L 238.601012 82.162078 
L 239.821517 103.657717 
L 241.042023 131.6037 
L 242.262529 131.6037 
L 243.483035 107.566697 
L 244.703541 107.566697 
L 245.924046 85.413754 
L 247.144552 85.413754 
L 248.365058 109.321342 
L 249.585564 109.321342 
L 250.80607 136.43565 
L 252.026576 116.776589 
L 254.467587 116.776589 
L 255.688093 95.443365 
L 256.908599 119.89838 
L 259.34961 119.89838 
L 260.570116 99.941596 
L 261.790622 99.941596 
L 263.011128 123.14122 
L 264.231634 150.972885 
L 267.893151 150.972885 
L 269.113657 131.751068 
L 270.334163 131.751068 
L 271.554668 155.832328 
L 272.775174 155.832328 
L 273.99568 181.885868 
L 276.436692 181.885868 
L 277.657198 158.874978 
L 278.877703 158.874978 
L 280.098209 134.162526 
L 281.318715 134.162526 
L 282.539221 112.626626 
L 283.759727 117.140863 
L 284.980232 117.140863 
L 286.200738 95.814143 
L 287.421244 95.814143 
L 288.64175 120.977591 
L 289.862256 120.977591 
L 291.082761 96.172288 
L 293.523773 96.172288 
L 294.744279 67.887523 
L 295.964785 67.887523 
L 297.18529 92.019322 
L 298.405796 92.019322 
L 299.626302 91.551021 
L 398.487273 91.551021 
L 398.487273 91.551021 
" style="fill:none;stroke:#ff0000;stroke-linecap:square;stroke-width:12;"/>
    <defs>
     <path d="M 0 3 
C 0.795609 3 1.55874 2.683901 2.12132 2.12132 
C 2.683901 1.55874 3 0.795609 3 0 
C 3 -0.795609 2.683901 -1.55874 2.12132 -2.12132 
C 1.55874 -2.683901 0.795609 -3 0 -3 
C -0.795609 -3 -1.55874 -2.683901 -2.12132 -2.12132 
C -2.683901 -1.55874 -3 -0.795609 -3 0 
C -3 0.795609 -2.683901 1.55874 -2.12132 2.12132 
C -1.55874 2.683901 -0.795609 3 0 3 
z
" id="m3220a3884a" style="stroke:#ff0000;"/>
    </defs>
    <g clip-path="url(#p2e71ca1dee)">
     <use style="fill:#ff0000;stroke:#ff0000;" x="73.832727" xlink:href="#m3220a3884a" y="294.500329"/>
     <use style="fill:#ff0000;stroke:#ff0000;" x="75.053233" xlink:href="#m3220a3884a" y="294.500329"/>
     <use style="fill:#ff0000;stroke:#ff0000;" x="76.273739" xlink:href="#m3220a3884a" y="294.500329"/>
     <use style="fill:#ff0000;stroke:#ff0000;" x="77.494245" xlink:href="#m3220a3884a" y="220.66138"/>
     <use style="fill:#ff0000;stroke:#ff0000;" x="78.714751" xlink:href="#m3220a3884a" y="220.66138"/>
     <use style="fill:#ff0000;stroke:#ff0000;" x="79.935256" xlink:href="#m3220a3884a" y="220.66138"/>
     <use style="fill:#ff0000;stroke:#ff0000;" x="81.155762" xlink:href="#m3220a3884a" y="220.66138"/>
     <use style="fill:#ff0000;stroke:#ff0000;" x="82.376268" xlink:href="#m3220a3884a" y="220.66138"/>
     <use style="fill:#ff0000;stroke:#ff0000;" x="83.596774" xlink:href="#m3220a3884a" y="295.488"/>
     <use style="fill:#ff0000;stroke:#ff0000;" x="84.81728" xlink:href="#m3220a3884a" y="295.488"/>
     <use style="fill:#ff0000;stroke:#ff0000;" x="86.037785" xlink:href="#m3220a3884a" y="294.88779"/>
     <use style="fill:#ff0000;stroke:#ff0000;" x="87.258291" xlink:href="#m3220a3884a" y="294.88779"/>
     <use style="fill:#ff0000;stroke:#ff0000;" x="88.478797" xlink:href="#m3220a3884a" y="226.139037"/>
     <use style="fill:#ff0000;stroke:#ff0000;" x="89.699303" xlink:href="#m3220a3884a" y="226.139037"/>
     <use style="fill:#ff0000;stroke:#ff0000;" x="90.919809" xlink:href="#m3220a3884a" y="156.17765"/>
     <use style="fill:#ff0000;stroke:#ff0000;" x="92.140314" xlink:href="#m3220a3884a" y="156.17765"/>
     <use style="fill:#ff0000;stroke:#ff0000;" x="93.36082" xlink:href="#m3220a3884a" y="156.17765"/>
     <use style="fill:#ff0000;stroke:#ff0000;" x="94.581326" xlink:href="#m3220a3884a" y="172.118343"/>
     <use style="fill:#ff0000;stroke:#ff0000;" x="95.801832" xlink:href="#m3220a3884a" y="172.118343"/>
     <use style="fill:#ff0000;stroke:#ff0000;" x="97.022338" xlink:href="#m3220a3884a" y="172.118343"/>
     <use style="fill:#ff0000;stroke:#ff0000;" x="98.242843" xlink:href="#m3220a3884a" y="99.21792"/>
     <use style="fill:#ff0000;stroke:#ff0000;" x="99.463349" xlink:href="#m3220a3884a" y="99.21792"/>
     <use style="fill:#ff0000;stroke:#ff0000;" x="100.683855" xlink:href="#m3220a3884a" y="174.997758"/>
     <use style="fill:#ff0000;stroke:#ff0000;" x="101.904361" xlink:href="#m3220a3884a" y="174.997758"/>
     <use style="fill:#ff0000;stroke:#ff0000;" x="103.124867" xlink:href="#m3220a3884a" y="98.931156"/>
     <use style="fill:#ff0000;stroke:#ff0000;" x="104.345373" xlink:href="#m3220a3884a" y="98.931156"/>
     <use style="fill:#ff0000;stroke:#ff0000;" x="105.565878" xlink:href="#m3220a3884a" y="98.931156"/>
     <use style="fill:#ff0000;stroke:#ff0000;" x="106.786384" xlink:href="#m3220a3884a" y="124.761953"/>
     <use style="fill:#ff0000;stroke:#ff0000;" x="108.00689" xlink:href="#m3220a3884a" y="124.761953"/>
     <use style="fill:#ff0000;stroke:#ff0000;" x="109.227396" xlink:href="#m3220a3884a" y="101.610969"/>
     <use style="fill:#ff0000;stroke:#ff0000;" x="110.447902" xlink:href="#m3220a3884a" y="101.610969"/>
     <use style="fill:#ff0000;stroke:#ff0000;" x="111.668407" xlink:href="#m3220a3884a" y="125.444047"/>
     <use style="fill:#ff0000;stroke:#ff0000;" x="112.888913" xlink:href="#m3220a3884a" y="125.444047"/>
     <use style="fill:#ff0000;stroke:#ff0000;" x="114.109419" xlink:href="#m3220a3884a" y="126.135404"/>
     <use style="fill:#ff0000;stroke:#ff0000;" x="115.329925" xlink:href="#m3220a3884a" y="153.906219"/>
     <use style="fill:#ff0000;stroke:#ff0000;" x="116.550431" xlink:href="#m3220a3884a" y="153.906219"/>
     <use style="fill:#ff0000;stroke:#ff0000;" x="117.770936" xlink:href="#m3220a3884a" y="159.020076"/>
     <use style="fill:#ff0000;stroke:#ff0000;" x="118.991442" xlink:href="#m3220a3884a" y="159.020076"/>
     <use style="fill:#ff0000;stroke:#ff0000;" x="120.211948" xlink:href="#m3220a3884a" y="136.384679"/>
     <use style="fill:#ff0000;stroke:#ff0000;" x="121.432454" xlink:href="#m3220a3884a" y="136.384679"/>
     <use style="fill:#ff0000;stroke:#ff0000;" x="122.65296" xlink:href="#m3220a3884a" y="136.384679"/>
     <use style="fill:#ff0000;stroke:#ff0000;" x="123.873465" xlink:href="#m3220a3884a" y="161.908562"/>
     <use style="fill:#ff0000;stroke:#ff0000;" x="125.093971" xlink:href="#m3220a3884a" y="161.908562"/>
     <use style="fill:#ff0000;stroke:#ff0000;" x="126.314477" xlink:href="#m3220a3884a" y="138.325756"/>
     <use style="fill:#ff0000;stroke:#ff0000;" x="127.534983" xlink:href="#m3220a3884a" y="138.325756"/>
     <use style="fill:#ff0000;stroke:#ff0000;" x="128.755489" xlink:href="#m3220a3884a" y="115.549709"/>
     <use style="fill:#ff0000;stroke:#ff0000;" x="129.975995" xlink:href="#m3220a3884a" y="115.549709"/>
     <use style="fill:#ff0000;stroke:#ff0000;" x="131.1965" xlink:href="#m3220a3884a" y="121.847986"/>
     <use style="fill:#ff0000;stroke:#ff0000;" x="132.417006" xlink:href="#m3220a3884a" y="121.847986"/>
     <use style="fill:#ff0000;stroke:#ff0000;" x="133.637512" xlink:href="#m3220a3884a" y="147.564965"/>
     <use style="fill:#ff0000;stroke:#ff0000;" x="134.858018" xlink:href="#m3220a3884a" y="147.564965"/>
     <use style="fill:#ff0000;stroke:#ff0000;" x="136.078524" xlink:href="#m3220a3884a" y="152.135558"/>
     <use style="fill:#ff0000;stroke:#ff0000;" x="137.299029" xlink:href="#m3220a3884a" y="175.841797"/>
     <use style="fill:#ff0000;stroke:#ff0000;" x="138.519535" xlink:href="#m3220a3884a" y="175.841797"/>
     <use style="fill:#ff0000;stroke:#ff0000;" x="139.740041" xlink:href="#m3220a3884a" y="175.841797"/>
     <use style="fill:#ff0000;stroke:#ff0000;" x="140.960547" xlink:href="#m3220a3884a" y="200.985424"/>
     <use style="fill:#ff0000;stroke:#ff0000;" x="142.181053" xlink:href="#m3220a3884a" y="200.985424"/>
     <use style="fill:#ff0000;stroke:#ff0000;" x="143.401558" xlink:href="#m3220a3884a" y="200.985424"/>
     <use style="fill:#ff0000;stroke:#ff0000;" x="144.622064" xlink:href="#m3220a3884a" y="200.985424"/>
     <use style="fill:#ff0000;stroke:#ff0000;" x="145.84257" xlink:href="#m3220a3884a" y="179.008524"/>
     <use style="fill:#ff0000;stroke:#ff0000;" x="147.063076" xlink:href="#m3220a3884a" y="203.894748"/>
     <use style="fill:#ff0000;stroke:#ff0000;" x="148.283582" xlink:href="#m3220a3884a" y="203.894748"/>
     <use style="fill:#ff0000;stroke:#ff0000;" x="149.504087" xlink:href="#m3220a3884a" y="180.590264"/>
     <use style="fill:#ff0000;stroke:#ff0000;" x="150.724593" xlink:href="#m3220a3884a" y="180.590264"/>
     <use style="fill:#ff0000;stroke:#ff0000;" x="151.945099" xlink:href="#m3220a3884a" y="157.620267"/>
     <use style="fill:#ff0000;stroke:#ff0000;" x="153.165605" xlink:href="#m3220a3884a" y="157.620267"/>
     <use style="fill:#ff0000;stroke:#ff0000;" x="154.386111" xlink:href="#m3220a3884a" y="157.620267"/>
     <use style="fill:#ff0000;stroke:#ff0000;" x="155.606617" xlink:href="#m3220a3884a" y="135.633104"/>
     <use style="fill:#ff0000;stroke:#ff0000;" x="156.827122" xlink:href="#m3220a3884a" y="135.633104"/>
     <use style="fill:#ff0000;stroke:#ff0000;" x="158.047628" xlink:href="#m3220a3884a" y="160.187187"/>
     <use style="fill:#ff0000;stroke:#ff0000;" x="159.268134" xlink:href="#m3220a3884a" y="160.187187"/>
     <use style="fill:#ff0000;stroke:#ff0000;" x="160.48864" xlink:href="#m3220a3884a" y="136.875814"/>
     <use style="fill:#ff0000;stroke:#ff0000;" x="161.709146" xlink:href="#m3220a3884a" y="136.875814"/>
     <use style="fill:#ff0000;stroke:#ff0000;" x="162.929651" xlink:href="#m3220a3884a" y="114.346549"/>
     <use style="fill:#ff0000;stroke:#ff0000;" x="164.150157" xlink:href="#m3220a3884a" y="114.346549"/>
     <use style="fill:#ff0000;stroke:#ff0000;" x="165.370663" xlink:href="#m3220a3884a" y="138.906955"/>
     <use style="fill:#ff0000;stroke:#ff0000;" x="166.591169" xlink:href="#m3220a3884a" y="138.906955"/>
     <use style="fill:#ff0000;stroke:#ff0000;" x="167.811675" xlink:href="#m3220a3884a" y="162.384018"/>
     <use style="fill:#ff0000;stroke:#ff0000;" x="169.03218" xlink:href="#m3220a3884a" y="139.84896"/>
     <use style="fill:#ff0000;stroke:#ff0000;" x="170.252686" xlink:href="#m3220a3884a" y="139.84896"/>
     <use style="fill:#ff0000;stroke:#ff0000;" x="171.473192" xlink:href="#m3220a3884a" y="136.070594"/>
     <use style="fill:#ff0000;stroke:#ff0000;" x="172.693698" xlink:href="#m3220a3884a" y="136.070594"/>
     <use style="fill:#ff0000;stroke:#ff0000;" x="173.914204" xlink:href="#m3220a3884a" y="136.070594"/>
     <use style="fill:#ff0000;stroke:#ff0000;" x="175.13471" xlink:href="#m3220a3884a" y="136.070594"/>
     <use style="fill:#ff0000;stroke:#ff0000;" x="176.355215" xlink:href="#m3220a3884a" y="136.070594"/>
     <use style="fill:#ff0000;stroke:#ff0000;" x="177.575721" xlink:href="#m3220a3884a" y="136.070594"/>
     <use style="fill:#ff0000;stroke:#ff0000;" x="178.796227" xlink:href="#m3220a3884a" y="114.605568"/>
     <use style="fill:#ff0000;stroke:#ff0000;" x="180.016733" xlink:href="#m3220a3884a" y="136.773064"/>
     <use style="fill:#ff0000;stroke:#ff0000;" x="181.237239" xlink:href="#m3220a3884a" y="136.773064"/>
     <use style="fill:#ff0000;stroke:#ff0000;" x="182.457744" xlink:href="#m3220a3884a" y="132.969385"/>
     <use style="fill:#ff0000;stroke:#ff0000;" x="183.67825" xlink:href="#m3220a3884a" y="132.969385"/>
     <use style="fill:#ff0000;stroke:#ff0000;" x="184.898756" xlink:href="#m3220a3884a" y="132.969385"/>
     <use style="fill:#ff0000;stroke:#ff0000;" x="186.119262" xlink:href="#m3220a3884a" y="110.398259"/>
     <use style="fill:#ff0000;stroke:#ff0000;" x="187.339768" xlink:href="#m3220a3884a" y="110.398259"/>
     <use style="fill:#ff0000;stroke:#ff0000;" x="188.560273" xlink:href="#m3220a3884a" y="134.19473"/>
     <use style="fill:#ff0000;stroke:#ff0000;" x="189.780779" xlink:href="#m3220a3884a" y="134.19473"/>
     <use style="fill:#ff0000;stroke:#ff0000;" x="191.001285" xlink:href="#m3220a3884a" y="158.832007"/>
     <use style="fill:#ff0000;stroke:#ff0000;" x="192.221791" xlink:href="#m3220a3884a" y="138.761248"/>
     <use style="fill:#ff0000;stroke:#ff0000;" x="193.442297" xlink:href="#m3220a3884a" y="138.761248"/>
     <use style="fill:#ff0000;stroke:#ff0000;" x="194.662802" xlink:href="#m3220a3884a" y="165.199814"/>
     <use style="fill:#ff0000;stroke:#ff0000;" x="195.883308" xlink:href="#m3220a3884a" y="165.199814"/>
     <use style="fill:#ff0000;stroke:#ff0000;" x="197.103814" xlink:href="#m3220a3884a" y="140.615829"/>
     <use style="fill:#ff0000;stroke:#ff0000;" x="198.32432" xlink:href="#m3220a3884a" y="140.615829"/>
     <use style="fill:#ff0000;stroke:#ff0000;" x="199.544826" xlink:href="#m3220a3884a" y="134.872769"/>
     <use style="fill:#ff0000;stroke:#ff0000;" x="200.765332" xlink:href="#m3220a3884a" y="114.017197"/>
     <use style="fill:#ff0000;stroke:#ff0000;" x="201.985837" xlink:href="#m3220a3884a" y="114.017197"/>
     <use style="fill:#ff0000;stroke:#ff0000;" x="203.206343" xlink:href="#m3220a3884a" y="114.017197"/>
     <use style="fill:#ff0000;stroke:#ff0000;" x="204.426849" xlink:href="#m3220a3884a" y="89.75753"/>
     <use style="fill:#ff0000;stroke:#ff0000;" x="205.647355" xlink:href="#m3220a3884a" y="117.578273"/>
     <use style="fill:#ff0000;stroke:#ff0000;" x="206.867861" xlink:href="#m3220a3884a" y="117.578273"/>
     <use style="fill:#ff0000;stroke:#ff0000;" x="208.088366" xlink:href="#m3220a3884a" y="117.578273"/>
     <use style="fill:#ff0000;stroke:#ff0000;" x="209.308872" xlink:href="#m3220a3884a" y="117.578273"/>
     <use style="fill:#ff0000;stroke:#ff0000;" x="210.529378" xlink:href="#m3220a3884a" y="95.017076"/>
     <use style="fill:#ff0000;stroke:#ff0000;" x="211.749884" xlink:href="#m3220a3884a" y="95.017076"/>
     <use style="fill:#ff0000;stroke:#ff0000;" x="212.97039" xlink:href="#m3220a3884a" y="95.017076"/>
     <use style="fill:#ff0000;stroke:#ff0000;" x="214.190895" xlink:href="#m3220a3884a" y="95.017076"/>
     <use style="fill:#ff0000;stroke:#ff0000;" x="215.411401" xlink:href="#m3220a3884a" y="95.017076"/>
     <use style="fill:#ff0000;stroke:#ff0000;" x="216.631907" xlink:href="#m3220a3884a" y="95.017076"/>
     <use style="fill:#ff0000;stroke:#ff0000;" x="217.852413" xlink:href="#m3220a3884a" y="95.017076"/>
     <use style="fill:#ff0000;stroke:#ff0000;" x="219.072919" xlink:href="#m3220a3884a" y="95.017076"/>
     <use style="fill:#ff0000;stroke:#ff0000;" x="220.293424" xlink:href="#m3220a3884a" y="95.017076"/>
     <use style="fill:#ff0000;stroke:#ff0000;" x="221.51393" xlink:href="#m3220a3884a" y="95.017076"/>
     <use style="fill:#ff0000;stroke:#ff0000;" x="222.734436" xlink:href="#m3220a3884a" y="102.359914"/>
     <use style="fill:#ff0000;stroke:#ff0000;" x="223.954942" xlink:href="#m3220a3884a" y="99.940938"/>
     <use style="fill:#ff0000;stroke:#ff0000;" x="225.175448" xlink:href="#m3220a3884a" y="99.940938"/>
     <use style="fill:#ff0000;stroke:#ff0000;" x="226.395954" xlink:href="#m3220a3884a" y="78.491913"/>
     <use style="fill:#ff0000;stroke:#ff0000;" x="227.616459" xlink:href="#m3220a3884a" y="78.491913"/>
     <use style="fill:#ff0000;stroke:#ff0000;" x="228.836965" xlink:href="#m3220a3884a" y="53.568"/>
     <use style="fill:#ff0000;stroke:#ff0000;" x="230.057471" xlink:href="#m3220a3884a" y="53.568"/>
     <use style="fill:#ff0000;stroke:#ff0000;" x="231.277977" xlink:href="#m3220a3884a" y="57.908333"/>
     <use style="fill:#ff0000;stroke:#ff0000;" x="232.498483" xlink:href="#m3220a3884a" y="57.908333"/>
     <use style="fill:#ff0000;stroke:#ff0000;" x="233.718988" xlink:href="#m3220a3884a" y="57.908333"/>
     <use style="fill:#ff0000;stroke:#ff0000;" x="234.939494" xlink:href="#m3220a3884a" y="57.908333"/>
     <use style="fill:#ff0000;stroke:#ff0000;" x="236.16" xlink:href="#m3220a3884a" y="57.908333"/>
     <use style="fill:#ff0000;stroke:#ff0000;" x="237.380506" xlink:href="#m3220a3884a" y="82.162078"/>
     <use style="fill:#ff0000;stroke:#ff0000;" x="238.601012" xlink:href="#m3220a3884a" y="82.162078"/>
     <use style="fill:#ff0000;stroke:#ff0000;" x="239.821517" xlink:href="#m3220a3884a" y="103.657717"/>
     <use style="fill:#ff0000;stroke:#ff0000;" x="241.042023" xlink:href="#m3220a3884a" y="131.6037"/>
     <use style="fill:#ff0000;stroke:#ff0000;" x="242.262529" xlink:href="#m3220a3884a" y="131.6037"/>
     <use style="fill:#ff0000;stroke:#ff0000;" x="243.483035" xlink:href="#m3220a3884a" y="107.566697"/>
     <use style="fill:#ff0000;stroke:#ff0000;" x="244.703541" xlink:href="#m3220a3884a" y="107.566697"/>
     <use style="fill:#ff0000;stroke:#ff0000;" x="245.924046" xlink:href="#m3220a3884a" y="85.413754"/>
     <use style="fill:#ff0000;stroke:#ff0000;" x="247.144552" xlink:href="#m3220a3884a" y="85.413754"/>
     <use style="fill:#ff0000;stroke:#ff0000;" x="248.365058" xlink:href="#m3220a3884a" y="109.321342"/>
     <use style="fill:#ff0000;stroke:#ff0000;" x="249.585564" xlink:href="#m3220a3884a" y="109.321342"/>
     <use style="fill:#ff0000;stroke:#ff0000;" x="250.80607" xlink:href="#m3220a3884a" y="136.43565"/>
     <use style="fill:#ff0000;stroke:#ff0000;" x="252.026576" xlink:href="#m3220a3884a" y="116.776589"/>
     <use style="fill:#ff0000;stroke:#ff0000;" x="253.247081" xlink:href="#m3220a3884a" y="116.776589"/>
     <use style="fill:#ff0000;stroke:#ff0000;" x="254.467587" xlink:href="#m3220a3884a" y="116.776589"/>
     <use style="fill:#ff0000;stroke:#ff0000;" x="255.688093" xlink:href="#m3220a3884a" y="95.443365"/>
     <use style="fill:#ff0000;stroke:#ff0000;" x="256.908599" xlink:href="#m3220a3884a" y="119.89838"/>
     <use style="fill:#ff0000;stroke:#ff0000;" x="258.129105" xlink:href="#m3220a3884a" y="119.89838"/>
     <use style="fill:#ff0000;stroke:#ff0000;" x="259.34961" xlink:href="#m3220a3884a" y="119.89838"/>
     <use style="fill:#ff0000;stroke:#ff0000;" x="260.570116" xlink:href="#m3220a3884a" y="99.941596"/>
     <use style="fill:#ff0000;stroke:#ff0000;" x="261.790622" xlink:href="#m3220a3884a" y="99.941596"/>
     <use style="fill:#ff0000;stroke:#ff0000;" x="263.011128" xlink:href="#m3220a3884a" y="123.14122"/>
     <use style="fill:#ff0000;stroke:#ff0000;" x="264.231634" xlink:href="#m3220a3884a" y="150.972885"/>
     <use style="fill:#ff0000;stroke:#ff0000;" x="265.452139" xlink:href="#m3220a3884a" y="150.972885"/>
     <use style="fill:#ff0000;stroke:#ff0000;" x="266.672645" xlink:href="#m3220a3884a" y="150.972885"/>
     <use style="fill:#ff0000;stroke:#ff0000;" x="267.893151" xlink:href="#m3220a3884a" y="150.972885"/>
     <use style="fill:#ff0000;stroke:#ff0000;" x="269.113657" xlink:href="#m3220a3884a" y="131.751068"/>
     <use style="fill:#ff0000;stroke:#ff0000;" x="270.334163" xlink:href="#m3220a3884a" y="131.751068"/>
     <use style="fill:#ff0000;stroke:#ff0000;" x="271.554668" xlink:href="#m3220a3884a" y="155.832328"/>
     <use style="fill:#ff0000;stroke:#ff0000;" x="272.775174" xlink:href="#m3220a3884a" y="155.832328"/>
     <use style="fill:#ff0000;stroke:#ff0000;" x="273.99568" xlink:href="#m3220a3884a" y="181.885868"/>
     <use style="fill:#ff0000;stroke:#ff0000;" x="275.216186" xlink:href="#m3220a3884a" y="181.885868"/>
     <use style="fill:#ff0000;stroke:#ff0000;" x="276.436692" xlink:href="#m3220a3884a" y="181.885868"/>
     <use style="fill:#ff0000;stroke:#ff0000;" x="277.657198" xlink:href="#m3220a3884a" y="158.874978"/>
     <use style="fill:#ff0000;stroke:#ff0000;" x="278.877703" xlink:href="#m3220a3884a" y="158.874978"/>
     <use style="fill:#ff0000;stroke:#ff0000;" x="280.098209" xlink:href="#m3220a3884a" y="134.162526"/>
     <use style="fill:#ff0000;stroke:#ff0000;" x="281.318715" xlink:href="#m3220a3884a" y="134.162526"/>
     <use style="fill:#ff0000;stroke:#ff0000;" x="282.539221" xlink:href="#m3220a3884a" y="112.626626"/>
     <use style="fill:#ff0000;stroke:#ff0000;" x="283.759727" xlink:href="#m3220a3884a" y="117.140863"/>
     <use style="fill:#ff0000;stroke:#ff0000;" x="284.980232" xlink:href="#m3220a3884a" y="117.140863"/>
     <use style="fill:#ff0000;stroke:#ff0000;" x="286.200738" xlink:href="#m3220a3884a" y="95.814143"/>
     <use style="fill:#ff0000;stroke:#ff0000;" x="287.421244" xlink:href="#m3220a3884a" y="95.814143"/>
     <use style="fill:#ff0000;stroke:#ff0000;" x="288.64175" xlink:href="#m3220a3884a" y="120.977591"/>
     <use style="fill:#ff0000;stroke:#ff0000;" x="289.862256" xlink:href="#m3220a3884a" y="120.977591"/>
     <use style="fill:#ff0000;stroke:#ff0000;" x="291.082761" xlink:href="#m3220a3884a" y="96.172288"/>
     <use style="fill:#ff0000;stroke:#ff0000;" x="292.303267" xlink:href="#m3220a3884a" y="96.172288"/>
     <use style="fill:#ff0000;stroke:#ff0000;" x="293.523773" xlink:href="#m3220a3884a" y="96.172288"/>
     <use style="fill:#ff0000;stroke:#ff0000;" x="294.744279" xlink:href="#m3220a3884a" y="67.887523"/>
     <use style="fill:#ff0000;stroke:#ff0000;" x="295.964785" xlink:href="#m3220a3884a" y="67.887523"/>
     <use style="fill:#ff0000;stroke:#ff0000;" x="297.18529" xlink:href="#m3220a3884a" y="92.019322"/>
     <use style="fill:#ff0000;stroke:#ff0000;" x="298.405796" xlink:href="#m3220a3884a" y="92.019322"/>
     <use style="fill:#ff0000;stroke:#ff0000;" x="299.626302" xlink:href="#m3220a3884a" y="91.551021"/>
     <use style="fill:#ff0000;stroke:#ff0000;" x="300.846808" xlink:href="#m3220a3884a" y="91.551021"/>
     <use style="fill:#ff0000;stroke:#ff0000;" x="302.067314" xlink:href="#m3220a3884a" y="91.551021"/>
     <use style="fill:#ff0000;stroke:#ff0000;" x="303.28782" xlink:href="#m3220a3884a" y="91.551021"/>
     <use style="fill:#ff0000;stroke:#ff0000;" x="304.508325" xlink:href="#m3220a3884a" y="91.551021"/>
     <use style="fill:#ff0000;stroke:#ff0000;" x="305.728831" xlink:href="#m3220a3884a" y="91.551021"/>
     <use style="fill:#ff0000;stroke:#ff0000;" x="306.949337" xlink:href="#m3220a3884a" y="91.551021"/>
     <use style="fill:#ff0000;stroke:#ff0000;" x="308.169843" xlink:href="#m3220a3884a" y="91.551021"/>
     <use style="fill:#ff0000;stroke:#ff0000;" x="309.390349" xlink:href="#m3220a3884a" y="91.551021"/>
     <use style="fill:#ff0000;stroke:#ff0000;" x="310.610854" xlink:href="#m3220a3884a" y="91.551021"/>
     <use style="fill:#ff0000;stroke:#ff0000;" x="311.83136" xlink:href="#m3220a3884a" y="91.551021"/>
     <use style="fill:#ff0000;stroke:#ff0000;" x="313.051866" xlink:href="#m3220a3884a" y="91.551021"/>
     <use style="fill:#ff0000;stroke:#ff0000;" x="314.272372" xlink:href="#m3220a3884a" y="91.551021"/>
     <use style="fill:#ff0000;stroke:#ff0000;" x="315.492878" xlink:href="#m3220a3884a" y="91.551021"/>
     <use style="fill:#ff0000;stroke:#ff0000;" x="316.713383" xlink:href="#m3220a3884a" y="91.551021"/>
     <use style="fill:#ff0000;stroke:#ff0000;" x="317.933889" xlink:href="#m3220a3884a" y="91.551021"/>
     <use style="fill:#ff0000;stroke:#ff0000;" x="319.154395" xlink:href="#m3220a3884a" y="91.551021"/>
     <use style="fill:#ff0000;stroke:#ff0000;" x="320.374901" xlink:href="#m3220a3884a" y="91.551021"/>
     <use style="fill:#ff0000;stroke:#ff0000;" x="321.595407" xlink:href="#m3220a3884a" y="91.551021"/>
     <use style="fill:#ff0000;stroke:#ff0000;" x="322.815913" xlink:href="#m3220a3884a" y="91.551021"/>
     <use style="fill:#ff0000;stroke:#ff0000;" x="324.036418" xlink:href="#m3220a3884a" y="91.551021"/>
     <use style="fill:#ff0000;stroke:#ff0000;" x="325.256924" xlink:href="#m3220a3884a" y="91.551021"/>
     <use style="fill:#ff0000;stroke:#ff0000;" x="326.47743" xlink:href="#m3220a3884a" y="91.551021"/>
     <use style="fill:#ff0000;stroke:#ff0000;" x="327.697936" xlink:href="#m3220a3884a" y="91.551021"/>
     <use style="fill:#ff0000;stroke:#ff0000;" x="328.918442" xlink:href="#m3220a3884a" y="91.551021"/>
     <use style="fill:#ff0000;stroke:#ff0000;" x="330.138947" xlink:href="#m3220a3884a" y="91.551021"/>
     <use style="fill:#ff0000;stroke:#ff0000;" x="331.359453" xlink:href="#m3220a3884a" y="91.551021"/>
     <use style="fill:#ff0000;stroke:#ff0000;" x="332.579959" xlink:href="#m3220a3884a" y="91.551021"/>
     <use style="fill:#ff0000;stroke:#ff0000;" x="333.800465" xlink:href="#m3220a3884a" y="91.551021"/>
     <use style="fill:#ff0000;stroke:#ff0000;" x="335.020971" xlink:href="#m3220a3884a" y="91.551021"/>
     <use style="fill:#ff0000;stroke:#ff0000;" x="336.241476" xlink:href="#m3220a3884a" y="91.551021"/>
     <use style="fill:#ff0000;stroke:#ff0000;" x="337.461982" xlink:href="#m3220a3884a" y="91.551021"/>
     <use style="fill:#ff0000;stroke:#ff0000;" x="338.682488" xlink:href="#m3220a3884a" y="91.551021"/>
     <use style="fill:#ff0000;stroke:#ff0000;" x="339.902994" xlink:href="#m3220a3884a" y="91.551021"/>
     <use style="fill:#ff0000;stroke:#ff0000;" x="341.1235" xlink:href="#m3220a3884a" y="91.551021"/>
     <use style="fill:#ff0000;stroke:#ff0000;" x="342.344005" xlink:href="#m3220a3884a" y="91.551021"/>
     <use style="fill:#ff0000;stroke:#ff0000;" x="343.564511" xlink:href="#m3220a3884a" y="91.551021"/>
     <use style="fill:#ff0000;stroke:#ff0000;" x="344.785017" xlink:href="#m3220a3884a" y="91.551021"/>
     <use style="fill:#ff0000;stroke:#ff0000;" x="346.005523" xlink:href="#m3220a3884a" y="91.551021"/>
     <use style="fill:#ff0000;stroke:#ff0000;" x="347.226029" xlink:href="#m3220a3884a" y="91.551021"/>
     <use style="fill:#ff0000;stroke:#ff0000;" x="348.446535" xlink:href="#m3220a3884a" y="91.551021"/>
     <use style="fill:#ff0000;stroke:#ff0000;" x="349.66704" xlink:href="#m3220a3884a" y="91.551021"/>
     <use style="fill:#ff0000;stroke:#ff0000;" x="350.887546" xlink:href="#m3220a3884a" y="91.551021"/>
     <use style="fill:#ff0000;stroke:#ff0000;" x="352.108052" xlink:href="#m3220a3884a" y="91.551021"/>
     <use style="fill:#ff0000;stroke:#ff0000;" x="353.328558" xlink:href="#m3220a3884a" y="91.551021"/>
     <use style="fill:#ff0000;stroke:#ff0000;" x="354.549064" xlink:href="#m3220a3884a" y="91.551021"/>
     <use style="fill:#ff0000;stroke:#ff0000;" x="355.769569" xlink:href="#m3220a3884a" y="91.551021"/>
     <use style="fill:#ff0000;stroke:#ff0000;" x="356.990075" xlink:href="#m3220a3884a" y="91.551021"/>
     <use style="fill:#ff0000;stroke:#ff0000;" x="358.210581" xlink:href="#m3220a3884a" y="91.551021"/>
     <use style="fill:#ff0000;stroke:#ff0000;" x="359.431087" xlink:href="#m3220a3884a" y="91.551021"/>
     <use style="fill:#ff0000;stroke:#ff0000;" x="360.651593" xlink:href="#m3220a3884a" y="91.551021"/>
     <use style="fill:#ff0000;stroke:#ff0000;" x="361.872098" xlink:href="#m3220a3884a" y="91.551021"/>
     <use style="fill:#ff0000;stroke:#ff0000;" x="363.092604" xlink:href="#m3220a3884a" y="91.551021"/>
     <use style="fill:#ff0000;stroke:#ff0000;" x="364.31311" xlink:href="#m3220a3884a" y="91.551021"/>
     <use style="fill:#ff0000;stroke:#ff0000;" x="365.533616" xlink:href="#m3220a3884a" y="91.551021"/>
     <use style="fill:#ff0000;stroke:#ff0000;" x="366.754122" xlink:href="#m3220a3884a" y="91.551021"/>
     <use style="fill:#ff0000;stroke:#ff0000;" x="367.974627" xlink:href="#m3220a3884a" y="91.551021"/>
     <use style="fill:#ff0000;stroke:#ff0000;" x="369.195133" xlink:href="#m3220a3884a" y="91.551021"/>
     <use style="fill:#ff0000;stroke:#ff0000;" x="370.415639" xlink:href="#m3220a3884a" y="91.551021"/>
     <use style="fill:#ff0000;stroke:#ff0000;" x="371.636145" xlink:href="#m3220a3884a" y="91.551021"/>
     <use style="fill:#ff0000;stroke:#ff0000;" x="372.856651" xlink:href="#m3220a3884a" y="91.551021"/>
     <use style="fill:#ff0000;stroke:#ff0000;" x="374.077157" xlink:href="#m3220a3884a" y="91.551021"/>
     <use style="fill:#ff0000;stroke:#ff0000;" x="375.297662" xlink:href="#m3220a3884a" y="91.551021"/>
     <use style="fill:#ff0000;stroke:#ff0000;" x="376.518168" xlink:href="#m3220a3884a" y="91.551021"/>
     <use style="fill:#ff0000;stroke:#ff0000;" x="377.738674" xlink:href="#m3220a3884a" y="91.551021"/>
     <use style="fill:#ff0000;stroke:#ff0000;" x="378.95918" xlink:href="#m3220a3884a" y="91.551021"/>
     <use style="fill:#ff0000;stroke:#ff0000;" x="380.179686" xlink:href="#m3220a3884a" y="91.551021"/>
     <use style="fill:#ff0000;stroke:#ff0000;" x="381.400191" xlink:href="#m3220a3884a" y="91.551021"/>
     <use style="fill:#ff0000;stroke:#ff0000;" x="382.620697" xlink:href="#m3220a3884a" y="91.551021"/>
     <use style="fill:#ff0000;stroke:#ff0000;" x="383.841203" xlink:href="#m3220a3884a" y="91.551021"/>
     <use style="fill:#ff0000;stroke:#ff0000;" x="385.061709" xlink:href="#m3220a3884a" y="91.551021"/>
     <use style="fill:#ff0000;stroke:#ff0000;" x="386.282215" xlink:href="#m3220a3884a" y="91.551021"/>
     <use style="fill:#ff0000;stroke:#ff0000;" x="387.50272" xlink:href="#m3220a3884a" y="91.551021"/>
     <use style="fill:#ff0000;stroke:#ff0000;" x="388.723226" xlink:href="#m3220a3884a" y="91.551021"/>
     <use style="fill:#ff0000;stroke:#ff0000;" x="389.943732" xlink:href="#m3220a3884a" y="91.551021"/>
     <use style="fill:#ff0000;stroke:#ff0000;" x="391.164238" xlink:href="#m3220a3884a" y="91.551021"/>
     <use style="fill:#ff0000;stroke:#ff0000;" x="392.384744" xlink:href="#m3220a3884a" y="91.551021"/>
     <use style="fill:#ff0000;stroke:#ff0000;" x="393.605249" xlink:href="#m3220a3884a" y="91.551021"/>
     <use style="fill:#ff0000;stroke:#ff0000;" x="394.825755" xlink:href="#m3220a3884a" y="91.551021"/>
     <use style="fill:#ff0000;stroke:#ff0000;" x="396.046261" xlink:href="#m3220a3884a" y="91.551021"/>
     <use style="fill:#ff0000;stroke:#ff0000;" x="397.266767" xlink:href="#m3220a3884a" y="91.551021"/>
     <use style="fill:#ff0000;stroke:#ff0000;" x="398.487273" xlink:href="#m3220a3884a" y="91.551021"/>
    </g>
   </g>
   <g id="patch_3">
    <path d="M 57.6 307.584 
L 57.6 41.472 
" style="fill:none;stroke:#000000;stroke-linecap:square;stroke-linejoin:miter;stroke-width:0.8;"/>
   </g>
   <g id="patch_4">
    <path d="M 414.72 307.584 
L 414.72 41.472 
" style="fill:none;stroke:#000000;stroke-linecap:square;stroke-linejoin:miter;stroke-width:0.8;"/>
   </g>
   <g id="patch_5">
    <path d="M 57.6 307.584 
L 414.72 307.584 
" style="fill:none;stroke:#000000;stroke-linecap:square;stroke-linejoin:miter;stroke-width:0.8;"/>
   </g>
   <g id="patch_6">
    <path d="M 57.6 41.472 
L 414.72 41.472 
" style="fill:none;stroke:#000000;stroke-linecap:square;stroke-linejoin:miter;stroke-width:0.8;"/>
   </g>
  </g>
 </g>
 <defs>
  <clipPath id="p2e71ca1dee">
   <rect height="266.112" width="357.12" x="57.6" y="41.472"/>
  </clipPath>
 </defs>
</svg>
