<?xml version="1.0" encoding="utf-8" standalone="no"?>
<!DOCTYPE svg PUBLIC "-//W3C//DTD SVG 1.1//EN"
  "http://www.w3.org/Graphics/SVG/1.1/DTD/svg11.dtd">
<!-- Created with matplotlib (https://matplotlib.org/) -->
<svg height="345.6pt" version="1.1" viewBox="0 0 460.8 345.6" width="460.8pt" xmlns="http://www.w3.org/2000/svg" xmlns:xlink="http://www.w3.org/1999/xlink">
 <defs>
  <style type="text/css">
*{stroke-linecap:butt;stroke-linejoin:round;}
  </style>
 </defs>
 <g id="figure_1">
  <g id="patch_1">
   <path d="M 0 345.6 
L 460.8 345.6 
L 460.8 0 
L 0 0 
z
" style="fill:#ffffff;"/>
  </g>
  <g id="axes_1">
   <g id="patch_2">
    <path d="M 57.6 307.584 
L 414.72 307.584 
L 414.72 41.472 
L 57.6 41.472 
z
" style="fill:#ffffff;"/>
   </g>
   <g id="line2d_1">
    <path clip-path="url(#paacfc3c6da)" d="M 73.832727 294.500329 
L 76.301583 294.500329 
L 77.536011 220.66138 
L 82.473723 220.66138 
L 83.708151 295.488 
L 84.942579 295.488 
L 86.177007 294.88779 
L 87.411434 294.88779 
L 88.645862 226.139037 
L 89.88029 226.139037 
L 91.114718 156.17765 
L 93.583574 156.17765 
L 94.818002 172.118343 
L 97.286858 172.118343 
L 98.521286 99.21792 
L 99.755714 99.21792 
L 100.990142 174.997758 
L 102.22457 174.997758 
L 103.458998 98.931156 
L 105.927853 98.931156 
L 107.162281 124.761953 
L 108.396709 124.761953 
L 109.631137 101.610969 
L 110.865565 101.610969 
L 112.099993 125.444047 
L 113.334421 125.444047 
L 114.568849 126.135404 
L 115.803277 153.906219 
L 117.037705 153.906219 
L 118.272133 159.020076 
L 119.506561 159.020076 
L 120.740989 136.384679 
L 123.209844 136.384679 
L 124.444272 161.908562 
L 125.6787 161.908562 
L 126.913128 138.325756 
L 128.147556 138.325756 
L 129.381984 115.549709 
L 130.616412 115.549709 
L 131.85084 121.847986 
L 133.085268 121.847986 
L 134.319696 147.564965 
L 135.554124 147.564965 
L 136.788552 152.135558 
L 138.02298 175.841797 
L 140.491835 175.841797 
L 141.726263 200.985424 
L 145.429547 200.985424 
L 146.663975 179.008524 
L 147.898403 203.894748 
L 149.132831 203.894748 
L 150.367259 180.590264 
L 151.601687 180.590264 
L 152.836115 157.620267 
L 155.304971 157.620267 
L 156.539399 135.633104 
L 157.773826 135.633104 
L 159.008254 160.187187 
L 160.242682 160.187187 
L 161.47711 136.875814 
L 162.711538 136.875814 
L 163.945966 114.346549 
L 165.180394 114.346549 
L 166.414822 138.906955 
L 167.64925 138.906955 
L 168.883678 162.384018 
L 170.118106 139.84896 
L 171.352534 139.84896 
L 172.586962 136.070594 
L 178.759101 136.070594 
L 179.993529 114.605568 
L 181.227957 136.773064 
L 182.462385 136.773064 
L 183.696813 132.969385 
L 186.165669 132.969385 
L 187.400097 110.398259 
L 188.634525 110.398259 
L 189.868953 134.19473 
L 191.103381 134.19473 
L 192.337809 158.832007 
L 193.572236 138.761248 
L 194.806664 138.761248 
L 196.041092 165.199814 
L 197.27552 165.199814 
L 198.509948 140.615829 
L 199.744376 140.615829 
L 200.978804 134.872769 
L 202.213232 114.017197 
L 204.682088 114.017197 
L 205.916516 89.75753 
L 207.150944 117.578273 
L 210.854227 117.578273 
L 212.088655 95.017076 
L 223.198507 95.017076 
L 224.432935 102.359914 
L 225.667363 99.940938 
L 226.901791 99.940938 
L 228.136218 78.491913 
L 229.370646 78.491913 
L 230.605074 53.568 
L 231.839502 53.568 
L 233.07393 57.908333 
L 238.011642 57.908333 
L 239.24607 82.162078 
L 240.480498 82.162078 
L 241.714926 103.657717 
L 242.949354 131.6037 
L 244.183782 131.6037 
L 245.418209 107.566697 
L 246.652637 107.566697 
L 247.887065 85.413754 
L 249.121493 85.413754 
L 250.355921 109.321342 
L 251.590349 109.321342 
L 252.824777 136.43565 
L 254.059205 116.776589 
L 256.528061 116.776589 
L 257.762489 95.443365 
L 258.996917 119.89838 
L 261.465773 119.89838 
L 262.7002 99.941596 
L 263.934628 99.941596 
L 265.169056 123.14122 
L 266.403484 150.972885 
L 270.106768 150.972885 
L 271.341196 131.751068 
L 272.575624 131.751068 
L 273.810052 155.832328 
L 275.04448 155.832328 
L 276.278908 181.885868 
L 278.747764 181.885868 
L 279.982191 158.874978 
L 281.216619 158.874978 
L 282.451047 134.162526 
L 283.685475 134.162526 
L 284.919903 112.626626 
L 286.154331 117.140863 
L 287.388759 117.140863 
L 288.623187 95.814143 
L 289.857615 95.814143 
L 291.092043 120.977591 
L 292.326471 120.977591 
L 293.560899 96.172288 
L 296.029755 96.172288 
L 297.264183 67.887523 
L 298.49861 67.887523 
L 299.733038 92.019322 
L 300.967466 92.019322 
L 302.201894 91.551021 
L 398.487273 91.551021 
L 398.487273 91.551021 
" style="fill:none;stroke:#ff0000;stroke-linecap:square;stroke-width:12;"/>
    <defs>
     <path d="M 0 3 
C 0.795609 3 1.55874 2.683901 2.12132 2.12132 
C 2.683901 1.55874 3 0.795609 3 0 
C 3 -0.795609 2.683901 -1.55874 2.12132 -2.12132 
C 1.55874 -2.683901 0.795609 -3 0 -3 
C -0.795609 -3 -1.55874 -2.683901 -2.12132 -2.12132 
C -2.683901 -1.55874 -3 -0.795609 -3 0 
C -3 0.795609 -2.683901 1.55874 -2.12132 2.12132 
C -1.55874 2.683901 -0.795609 3 0 3 
z
" id="m97986b8252" style="stroke:#ff0000;"/>
    </defs>
    <g clip-path="url(#paacfc3c6da)">
     <use style="fill:#ff0000;stroke:#ff0000;" x="73.832727" xlink:href="#m97986b8252" y="294.500329"/>
     <use style="fill:#ff0000;stroke:#ff0000;" x="75.067155" xlink:href="#m97986b8252" y="294.500329"/>
     <use style="fill:#ff0000;stroke:#ff0000;" x="76.301583" xlink:href="#m97986b8252" y="294.500329"/>
     <use style="fill:#ff0000;stroke:#ff0000;" x="77.536011" xlink:href="#m97986b8252" y="220.66138"/>
     <use style="fill:#ff0000;stroke:#ff0000;" x="78.770439" xlink:href="#m97986b8252" y="220.66138"/>
     <use style="fill:#ff0000;stroke:#ff0000;" x="80.004867" xlink:href="#m97986b8252" y="220.66138"/>
     <use style="fill:#ff0000;stroke:#ff0000;" x="81.239295" xlink:href="#m97986b8252" y="220.66138"/>
     <use style="fill:#ff0000;stroke:#ff0000;" x="82.473723" xlink:href="#m97986b8252" y="220.66138"/>
     <use style="fill:#ff0000;stroke:#ff0000;" x="83.708151" xlink:href="#m97986b8252" y="295.488"/>
     <use style="fill:#ff0000;stroke:#ff0000;" x="84.942579" xlink:href="#m97986b8252" y="295.488"/>
     <use style="fill:#ff0000;stroke:#ff0000;" x="86.177007" xlink:href="#m97986b8252" y="294.88779"/>
     <use style="fill:#ff0000;stroke:#ff0000;" x="87.411434" xlink:href="#m97986b8252" y="294.88779"/>
     <use style="fill:#ff0000;stroke:#ff0000;" x="88.645862" xlink:href="#m97986b8252" y="226.139037"/>
     <use style="fill:#ff0000;stroke:#ff0000;" x="89.88029" xlink:href="#m97986b8252" y="226.139037"/>
     <use style="fill:#ff0000;stroke:#ff0000;" x="91.114718" xlink:href="#m97986b8252" y="156.17765"/>
     <use style="fill:#ff0000;stroke:#ff0000;" x="92.349146" xlink:href="#m97986b8252" y="156.17765"/>
     <use style="fill:#ff0000;stroke:#ff0000;" x="93.583574" xlink:href="#m97986b8252" y="156.17765"/>
     <use style="fill:#ff0000;stroke:#ff0000;" x="94.818002" xlink:href="#m97986b8252" y="172.118343"/>
     <use style="fill:#ff0000;stroke:#ff0000;" x="96.05243" xlink:href="#m97986b8252" y="172.118343"/>
     <use style="fill:#ff0000;stroke:#ff0000;" x="97.286858" xlink:href="#m97986b8252" y="172.118343"/>
     <use style="fill:#ff0000;stroke:#ff0000;" x="98.521286" xlink:href="#m97986b8252" y="99.21792"/>
     <use style="fill:#ff0000;stroke:#ff0000;" x="99.755714" xlink:href="#m97986b8252" y="99.21792"/>
     <use style="fill:#ff0000;stroke:#ff0000;" x="100.990142" xlink:href="#m97986b8252" y="174.997758"/>
     <use style="fill:#ff0000;stroke:#ff0000;" x="102.22457" xlink:href="#m97986b8252" y="174.997758"/>
     <use style="fill:#ff0000;stroke:#ff0000;" x="103.458998" xlink:href="#m97986b8252" y="98.931156"/>
     <use style="fill:#ff0000;stroke:#ff0000;" x="104.693426" xlink:href="#m97986b8252" y="98.931156"/>
     <use style="fill:#ff0000;stroke:#ff0000;" x="105.927853" xlink:href="#m97986b8252" y="98.931156"/>
     <use style="fill:#ff0000;stroke:#ff0000;" x="107.162281" xlink:href="#m97986b8252" y="124.761953"/>
     <use style="fill:#ff0000;stroke:#ff0000;" x="108.396709" xlink:href="#m97986b8252" y="124.761953"/>
     <use style="fill:#ff0000;stroke:#ff0000;" x="109.631137" xlink:href="#m97986b8252" y="101.610969"/>
     <use style="fill:#ff0000;stroke:#ff0000;" x="110.865565" xlink:href="#m97986b8252" y="101.610969"/>
     <use style="fill:#ff0000;stroke:#ff0000;" x="112.099993" xlink:href="#m97986b8252" y="125.444047"/>
     <use style="fill:#ff0000;stroke:#ff0000;" x="113.334421" xlink:href="#m97986b8252" y="125.444047"/>
     <use style="fill:#ff0000;stroke:#ff0000;" x="114.568849" xlink:href="#m97986b8252" y="126.135404"/>
     <use style="fill:#ff0000;stroke:#ff0000;" x="115.803277" xlink:href="#m97986b8252" y="153.906219"/>
     <use style="fill:#ff0000;stroke:#ff0000;" x="117.037705" xlink:href="#m97986b8252" y="153.906219"/>
     <use style="fill:#ff0000;stroke:#ff0000;" x="118.272133" xlink:href="#m97986b8252" y="159.020076"/>
     <use style="fill:#ff0000;stroke:#ff0000;" x="119.506561" xlink:href="#m97986b8252" y="159.020076"/>
     <use style="fill:#ff0000;stroke:#ff0000;" x="120.740989" xlink:href="#m97986b8252" y="136.384679"/>
     <use style="fill:#ff0000;stroke:#ff0000;" x="121.975417" xlink:href="#m97986b8252" y="136.384679"/>
     <use style="fill:#ff0000;stroke:#ff0000;" x="123.209844" xlink:href="#m97986b8252" y="136.384679"/>
     <use style="fill:#ff0000;stroke:#ff0000;" x="124.444272" xlink:href="#m97986b8252" y="161.908562"/>
     <use style="fill:#ff0000;stroke:#ff0000;" x="125.6787" xlink:href="#m97986b8252" y="161.908562"/>
     <use style="fill:#ff0000;stroke:#ff0000;" x="126.913128" xlink:href="#m97986b8252" y="138.325756"/>
     <use style="fill:#ff0000;stroke:#ff0000;" x="128.147556" xlink:href="#m97986b8252" y="138.325756"/>
     <use style="fill:#ff0000;stroke:#ff0000;" x="129.381984" xlink:href="#m97986b8252" y="115.549709"/>
     <use style="fill:#ff0000;stroke:#ff0000;" x="130.616412" xlink:href="#m97986b8252" y="115.549709"/>
     <use style="fill:#ff0000;stroke:#ff0000;" x="131.85084" xlink:href="#m97986b8252" y="121.847986"/>
     <use style="fill:#ff0000;stroke:#ff0000;" x="133.085268" xlink:href="#m97986b8252" y="121.847986"/>
     <use style="fill:#ff0000;stroke:#ff0000;" x="134.319696" xlink:href="#m97986b8252" y="147.564965"/>
     <use style="fill:#ff0000;stroke:#ff0000;" x="135.554124" xlink:href="#m97986b8252" y="147.564965"/>
     <use style="fill:#ff0000;stroke:#ff0000;" x="136.788552" xlink:href="#m97986b8252" y="152.135558"/>
     <use style="fill:#ff0000;stroke:#ff0000;" x="138.02298" xlink:href="#m97986b8252" y="175.841797"/>
     <use style="fill:#ff0000;stroke:#ff0000;" x="139.257408" xlink:href="#m97986b8252" y="175.841797"/>
     <use style="fill:#ff0000;stroke:#ff0000;" x="140.491835" xlink:href="#m97986b8252" y="175.841797"/>
     <use style="fill:#ff0000;stroke:#ff0000;" x="141.726263" xlink:href="#m97986b8252" y="200.985424"/>
     <use style="fill:#ff0000;stroke:#ff0000;" x="142.960691" xlink:href="#m97986b8252" y="200.985424"/>
     <use style="fill:#ff0000;stroke:#ff0000;" x="144.195119" xlink:href="#m97986b8252" y="200.985424"/>
     <use style="fill:#ff0000;stroke:#ff0000;" x="145.429547" xlink:href="#m97986b8252" y="200.985424"/>
     <use style="fill:#ff0000;stroke:#ff0000;" x="146.663975" xlink:href="#m97986b8252" y="179.008524"/>
     <use style="fill:#ff0000;stroke:#ff0000;" x="147.898403" xlink:href="#m97986b8252" y="203.894748"/>
     <use style="fill:#ff0000;stroke:#ff0000;" x="149.132831" xlink:href="#m97986b8252" y="203.894748"/>
     <use style="fill:#ff0000;stroke:#ff0000;" x="150.367259" xlink:href="#m97986b8252" y="180.590264"/>
     <use style="fill:#ff0000;stroke:#ff0000;" x="151.601687" xlink:href="#m97986b8252" y="180.590264"/>
     <use style="fill:#ff0000;stroke:#ff0000;" x="152.836115" xlink:href="#m97986b8252" y="157.620267"/>
     <use style="fill:#ff0000;stroke:#ff0000;" x="154.070543" xlink:href="#m97986b8252" y="157.620267"/>
     <use style="fill:#ff0000;stroke:#ff0000;" x="155.304971" xlink:href="#m97986b8252" y="157.620267"/>
     <use style="fill:#ff0000;stroke:#ff0000;" x="156.539399" xlink:href="#m97986b8252" y="135.633104"/>
     <use style="fill:#ff0000;stroke:#ff0000;" x="157.773826" xlink:href="#m97986b8252" y="135.633104"/>
     <use style="fill:#ff0000;stroke:#ff0000;" x="159.008254" xlink:href="#m97986b8252" y="160.187187"/>
     <use style="fill:#ff0000;stroke:#ff0000;" x="160.242682" xlink:href="#m97986b8252" y="160.187187"/>
     <use style="fill:#ff0000;stroke:#ff0000;" x="161.47711" xlink:href="#m97986b8252" y="136.875814"/>
     <use style="fill:#ff0000;stroke:#ff0000;" x="162.711538" xlink:href="#m97986b8252" y="136.875814"/>
     <use style="fill:#ff0000;stroke:#ff0000;" x="163.945966" xlink:href="#m97986b8252" y="114.346549"/>
     <use style="fill:#ff0000;stroke:#ff0000;" x="165.180394" xlink:href="#m97986b8252" y="114.346549"/>
     <use style="fill:#ff0000;stroke:#ff0000;" x="166.414822" xlink:href="#m97986b8252" y="138.906955"/>
     <use style="fill:#ff0000;stroke:#ff0000;" x="167.64925" xlink:href="#m97986b8252" y="138.906955"/>
     <use style="fill:#ff0000;stroke:#ff0000;" x="168.883678" xlink:href="#m97986b8252" y="162.384018"/>
     <use style="fill:#ff0000;stroke:#ff0000;" x="170.118106" xlink:href="#m97986b8252" y="139.84896"/>
     <use style="fill:#ff0000;stroke:#ff0000;" x="171.352534" xlink:href="#m97986b8252" y="139.84896"/>
     <use style="fill:#ff0000;stroke:#ff0000;" x="172.586962" xlink:href="#m97986b8252" y="136.070594"/>
     <use style="fill:#ff0000;stroke:#ff0000;" x="173.82139" xlink:href="#m97986b8252" y="136.070594"/>
     <use style="fill:#ff0000;stroke:#ff0000;" x="175.055817" xlink:href="#m97986b8252" y="136.070594"/>
     <use style="fill:#ff0000;stroke:#ff0000;" x="176.290245" xlink:href="#m97986b8252" y="136.070594"/>
     <use style="fill:#ff0000;stroke:#ff0000;" x="177.524673" xlink:href="#m97986b8252" y="136.070594"/>
     <use style="fill:#ff0000;stroke:#ff0000;" x="178.759101" xlink:href="#m97986b8252" y="136.070594"/>
     <use style="fill:#ff0000;stroke:#ff0000;" x="179.993529" xlink:href="#m97986b8252" y="114.605568"/>
     <use style="fill:#ff0000;stroke:#ff0000;" x="181.227957" xlink:href="#m97986b8252" y="136.773064"/>
     <use style="fill:#ff0000;stroke:#ff0000;" x="182.462385" xlink:href="#m97986b8252" y="136.773064"/>
     <use style="fill:#ff0000;stroke:#ff0000;" x="183.696813" xlink:href="#m97986b8252" y="132.969385"/>
     <use style="fill:#ff0000;stroke:#ff0000;" x="184.931241" xlink:href="#m97986b8252" y="132.969385"/>
     <use style="fill:#ff0000;stroke:#ff0000;" x="186.165669" xlink:href="#m97986b8252" y="132.969385"/>
     <use style="fill:#ff0000;stroke:#ff0000;" x="187.400097" xlink:href="#m97986b8252" y="110.398259"/>
     <use style="fill:#ff0000;stroke:#ff0000;" x="188.634525" xlink:href="#m97986b8252" y="110.398259"/>
     <use style="fill:#ff0000;stroke:#ff0000;" x="189.868953" xlink:href="#m97986b8252" y="134.19473"/>
     <use style="fill:#ff0000;stroke:#ff0000;" x="191.103381" xlink:href="#m97986b8252" y="134.19473"/>
     <use style="fill:#ff0000;stroke:#ff0000;" x="192.337809" xlink:href="#m97986b8252" y="158.832007"/>
     <use style="fill:#ff0000;stroke:#ff0000;" x="193.572236" xlink:href="#m97986b8252" y="138.761248"/>
     <use style="fill:#ff0000;stroke:#ff0000;" x="194.806664" xlink:href="#m97986b8252" y="138.761248"/>
     <use style="fill:#ff0000;stroke:#ff0000;" x="196.041092" xlink:href="#m97986b8252" y="165.199814"/>
     <use style="fill:#ff0000;stroke:#ff0000;" x="197.27552" xlink:href="#m97986b8252" y="165.199814"/>
     <use style="fill:#ff0000;stroke:#ff0000;" x="198.509948" xlink:href="#m97986b8252" y="140.615829"/>
     <use style="fill:#ff0000;stroke:#ff0000;" x="199.744376" xlink:href="#m97986b8252" y="140.615829"/>
     <use style="fill:#ff0000;stroke:#ff0000;" x="200.978804" xlink:href="#m97986b8252" y="134.872769"/>
     <use style="fill:#ff0000;stroke:#ff0000;" x="202.213232" xlink:href="#m97986b8252" y="114.017197"/>
     <use style="fill:#ff0000;stroke:#ff0000;" x="203.44766" xlink:href="#m97986b8252" y="114.017197"/>
     <use style="fill:#ff0000;stroke:#ff0000;" x="204.682088" xlink:href="#m97986b8252" y="114.017197"/>
     <use style="fill:#ff0000;stroke:#ff0000;" x="205.916516" xlink:href="#m97986b8252" y="89.75753"/>
     <use style="fill:#ff0000;stroke:#ff0000;" x="207.150944" xlink:href="#m97986b8252" y="117.578273"/>
     <use style="fill:#ff0000;stroke:#ff0000;" x="208.385372" xlink:href="#m97986b8252" y="117.578273"/>
     <use style="fill:#ff0000;stroke:#ff0000;" x="209.6198" xlink:href="#m97986b8252" y="117.578273"/>
     <use style="fill:#ff0000;stroke:#ff0000;" x="210.854227" xlink:href="#m97986b8252" y="117.578273"/>
     <use style="fill:#ff0000;stroke:#ff0000;" x="212.088655" xlink:href="#m97986b8252" y="95.017076"/>
     <use style="fill:#ff0000;stroke:#ff0000;" x="213.323083" xlink:href="#m97986b8252" y="95.017076"/>
     <use style="fill:#ff0000;stroke:#ff0000;" x="214.557511" xlink:href="#m97986b8252" y="95.017076"/>
     <use style="fill:#ff0000;stroke:#ff0000;" x="215.791939" xlink:href="#m97986b8252" y="95.017076"/>
     <use style="fill:#ff0000;stroke:#ff0000;" x="217.026367" xlink:href="#m97986b8252" y="95.017076"/>
     <use style="fill:#ff0000;stroke:#ff0000;" x="218.260795" xlink:href="#m97986b8252" y="95.017076"/>
     <use style="fill:#ff0000;stroke:#ff0000;" x="219.495223" xlink:href="#m97986b8252" y="95.017076"/>
     <use style="fill:#ff0000;stroke:#ff0000;" x="220.729651" xlink:href="#m97986b8252" y="95.017076"/>
     <use style="fill:#ff0000;stroke:#ff0000;" x="221.964079" xlink:href="#m97986b8252" y="95.017076"/>
     <use style="fill:#ff0000;stroke:#ff0000;" x="223.198507" xlink:href="#m97986b8252" y="95.017076"/>
     <use style="fill:#ff0000;stroke:#ff0000;" x="224.432935" xlink:href="#m97986b8252" y="102.359914"/>
     <use style="fill:#ff0000;stroke:#ff0000;" x="225.667363" xlink:href="#m97986b8252" y="99.940938"/>
     <use style="fill:#ff0000;stroke:#ff0000;" x="226.901791" xlink:href="#m97986b8252" y="99.940938"/>
     <use style="fill:#ff0000;stroke:#ff0000;" x="228.136218" xlink:href="#m97986b8252" y="78.491913"/>
     <use style="fill:#ff0000;stroke:#ff0000;" x="229.370646" xlink:href="#m97986b8252" y="78.491913"/>
     <use style="fill:#ff0000;stroke:#ff0000;" x="230.605074" xlink:href="#m97986b8252" y="53.568"/>
     <use style="fill:#ff0000;stroke:#ff0000;" x="231.839502" xlink:href="#m97986b8252" y="53.568"/>
     <use style="fill:#ff0000;stroke:#ff0000;" x="233.07393" xlink:href="#m97986b8252" y="57.908333"/>
     <use style="fill:#ff0000;stroke:#ff0000;" x="234.308358" xlink:href="#m97986b8252" y="57.908333"/>
     <use style="fill:#ff0000;stroke:#ff0000;" x="235.542786" xlink:href="#m97986b8252" y="57.908333"/>
     <use style="fill:#ff0000;stroke:#ff0000;" x="236.777214" xlink:href="#m97986b8252" y="57.908333"/>
     <use style="fill:#ff0000;stroke:#ff0000;" x="238.011642" xlink:href="#m97986b8252" y="57.908333"/>
     <use style="fill:#ff0000;stroke:#ff0000;" x="239.24607" xlink:href="#m97986b8252" y="82.162078"/>
     <use style="fill:#ff0000;stroke:#ff0000;" x="240.480498" xlink:href="#m97986b8252" y="82.162078"/>
     <use style="fill:#ff0000;stroke:#ff0000;" x="241.714926" xlink:href="#m97986b8252" y="103.657717"/>
     <use style="fill:#ff0000;stroke:#ff0000;" x="242.949354" xlink:href="#m97986b8252" y="131.6037"/>
     <use style="fill:#ff0000;stroke:#ff0000;" x="244.183782" xlink:href="#m97986b8252" y="131.6037"/>
     <use style="fill:#ff0000;stroke:#ff0000;" x="245.418209" xlink:href="#m97986b8252" y="107.566697"/>
     <use style="fill:#ff0000;stroke:#ff0000;" x="246.652637" xlink:href="#m97986b8252" y="107.566697"/>
     <use style="fill:#ff0000;stroke:#ff0000;" x="247.887065" xlink:href="#m97986b8252" y="85.413754"/>
     <use style="fill:#ff0000;stroke:#ff0000;" x="249.121493" xlink:href="#m97986b8252" y="85.413754"/>
     <use style="fill:#ff0000;stroke:#ff0000;" x="250.355921" xlink:href="#m97986b8252" y="109.321342"/>
     <use style="fill:#ff0000;stroke:#ff0000;" x="251.590349" xlink:href="#m97986b8252" y="109.321342"/>
     <use style="fill:#ff0000;stroke:#ff0000;" x="252.824777" xlink:href="#m97986b8252" y="136.43565"/>
     <use style="fill:#ff0000;stroke:#ff0000;" x="254.059205" xlink:href="#m97986b8252" y="116.776589"/>
     <use style="fill:#ff0000;stroke:#ff0000;" x="255.293633" xlink:href="#m97986b8252" y="116.776589"/>
     <use style="fill:#ff0000;stroke:#ff0000;" x="256.528061" xlink:href="#m97986b8252" y="116.776589"/>
     <use style="fill:#ff0000;stroke:#ff0000;" x="257.762489" xlink:href="#m97986b8252" y="95.443365"/>
     <use style="fill:#ff0000;stroke:#ff0000;" x="258.996917" xlink:href="#m97986b8252" y="119.89838"/>
     <use style="fill:#ff0000;stroke:#ff0000;" x="260.231345" xlink:href="#m97986b8252" y="119.89838"/>
     <use style="fill:#ff0000;stroke:#ff0000;" x="261.465773" xlink:href="#m97986b8252" y="119.89838"/>
     <use style="fill:#ff0000;stroke:#ff0000;" x="262.7002" xlink:href="#m97986b8252" y="99.941596"/>
     <use style="fill:#ff0000;stroke:#ff0000;" x="263.934628" xlink:href="#m97986b8252" y="99.941596"/>
     <use style="fill:#ff0000;stroke:#ff0000;" x="265.169056" xlink:href="#m97986b8252" y="123.14122"/>
     <use style="fill:#ff0000;stroke:#ff0000;" x="266.403484" xlink:href="#m97986b8252" y="150.972885"/>
     <use style="fill:#ff0000;stroke:#ff0000;" x="267.637912" xlink:href="#m97986b8252" y="150.972885"/>
     <use style="fill:#ff0000;stroke:#ff0000;" x="268.87234" xlink:href="#m97986b8252" y="150.972885"/>
     <use style="fill:#ff0000;stroke:#ff0000;" x="270.106768" xlink:href="#m97986b8252" y="150.972885"/>
     <use style="fill:#ff0000;stroke:#ff0000;" x="271.341196" xlink:href="#m97986b8252" y="131.751068"/>
     <use style="fill:#ff0000;stroke:#ff0000;" x="272.575624" xlink:href="#m97986b8252" y="131.751068"/>
     <use style="fill:#ff0000;stroke:#ff0000;" x="273.810052" xlink:href="#m97986b8252" y="155.832328"/>
     <use style="fill:#ff0000;stroke:#ff0000;" x="275.04448" xlink:href="#m97986b8252" y="155.832328"/>
     <use style="fill:#ff0000;stroke:#ff0000;" x="276.278908" xlink:href="#m97986b8252" y="181.885868"/>
     <use style="fill:#ff0000;stroke:#ff0000;" x="277.513336" xlink:href="#m97986b8252" y="181.885868"/>
     <use style="fill:#ff0000;stroke:#ff0000;" x="278.747764" xlink:href="#m97986b8252" y="181.885868"/>
     <use style="fill:#ff0000;stroke:#ff0000;" x="279.982191" xlink:href="#m97986b8252" y="158.874978"/>
     <use style="fill:#ff0000;stroke:#ff0000;" x="281.216619" xlink:href="#m97986b8252" y="158.874978"/>
     <use style="fill:#ff0000;stroke:#ff0000;" x="282.451047" xlink:href="#m97986b8252" y="134.162526"/>
     <use style="fill:#ff0000;stroke:#ff0000;" x="283.685475" xlink:href="#m97986b8252" y="134.162526"/>
     <use style="fill:#ff0000;stroke:#ff0000;" x="284.919903" xlink:href="#m97986b8252" y="112.626626"/>
     <use style="fill:#ff0000;stroke:#ff0000;" x="286.154331" xlink:href="#m97986b8252" y="117.140863"/>
     <use style="fill:#ff0000;stroke:#ff0000;" x="287.388759" xlink:href="#m97986b8252" y="117.140863"/>
     <use style="fill:#ff0000;stroke:#ff0000;" x="288.623187" xlink:href="#m97986b8252" y="95.814143"/>
     <use style="fill:#ff0000;stroke:#ff0000;" x="289.857615" xlink:href="#m97986b8252" y="95.814143"/>
     <use style="fill:#ff0000;stroke:#ff0000;" x="291.092043" xlink:href="#m97986b8252" y="120.977591"/>
     <use style="fill:#ff0000;stroke:#ff0000;" x="292.326471" xlink:href="#m97986b8252" y="120.977591"/>
     <use style="fill:#ff0000;stroke:#ff0000;" x="293.560899" xlink:href="#m97986b8252" y="96.172288"/>
     <use style="fill:#ff0000;stroke:#ff0000;" x="294.795327" xlink:href="#m97986b8252" y="96.172288"/>
     <use style="fill:#ff0000;stroke:#ff0000;" x="296.029755" xlink:href="#m97986b8252" y="96.172288"/>
     <use style="fill:#ff0000;stroke:#ff0000;" x="297.264183" xlink:href="#m97986b8252" y="67.887523"/>
     <use style="fill:#ff0000;stroke:#ff0000;" x="298.49861" xlink:href="#m97986b8252" y="67.887523"/>
     <use style="fill:#ff0000;stroke:#ff0000;" x="299.733038" xlink:href="#m97986b8252" y="92.019322"/>
     <use style="fill:#ff0000;stroke:#ff0000;" x="300.967466" xlink:href="#m97986b8252" y="92.019322"/>
     <use style="fill:#ff0000;stroke:#ff0000;" x="302.201894" xlink:href="#m97986b8252" y="91.551021"/>
     <use style="fill:#ff0000;stroke:#ff0000;" x="303.436322" xlink:href="#m97986b8252" y="91.551021"/>
     <use style="fill:#ff0000;stroke:#ff0000;" x="304.67075" xlink:href="#m97986b8252" y="91.551021"/>
     <use style="fill:#ff0000;stroke:#ff0000;" x="305.905178" xlink:href="#m97986b8252" y="91.551021"/>
     <use style="fill:#ff0000;stroke:#ff0000;" x="307.139606" xlink:href="#m97986b8252" y="91.551021"/>
     <use style="fill:#ff0000;stroke:#ff0000;" x="308.374034" xlink:href="#m97986b8252" y="91.551021"/>
     <use style="fill:#ff0000;stroke:#ff0000;" x="309.608462" xlink:href="#m97986b8252" y="91.551021"/>
     <use style="fill:#ff0000;stroke:#ff0000;" x="310.84289" xlink:href="#m97986b8252" y="91.551021"/>
     <use style="fill:#ff0000;stroke:#ff0000;" x="312.077318" xlink:href="#m97986b8252" y="91.551021"/>
     <use style="fill:#ff0000;stroke:#ff0000;" x="313.311746" xlink:href="#m97986b8252" y="91.551021"/>
     <use style="fill:#ff0000;stroke:#ff0000;" x="314.546174" xlink:href="#m97986b8252" y="91.551021"/>
     <use style="fill:#ff0000;stroke:#ff0000;" x="315.780601" xlink:href="#m97986b8252" y="91.551021"/>
     <use style="fill:#ff0000;stroke:#ff0000;" x="317.015029" xlink:href="#m97986b8252" y="91.551021"/>
     <use style="fill:#ff0000;stroke:#ff0000;" x="318.249457" xlink:href="#m97986b8252" y="91.551021"/>
     <use style="fill:#ff0000;stroke:#ff0000;" x="319.483885" xlink:href="#m97986b8252" y="91.551021"/>
     <use style="fill:#ff0000;stroke:#ff0000;" x="320.718313" xlink:href="#m97986b8252" y="91.551021"/>
     <use style="fill:#ff0000;stroke:#ff0000;" x="321.952741" xlink:href="#m97986b8252" y="91.551021"/>
     <use style="fill:#ff0000;stroke:#ff0000;" x="323.187169" xlink:href="#m97986b8252" y="91.551021"/>
     <use style="fill:#ff0000;stroke:#ff0000;" x="324.421597" xlink:href="#m97986b8252" y="91.551021"/>
     <use style="fill:#ff0000;stroke:#ff0000;" x="325.656025" xlink:href="#m97986b8252" y="91.551021"/>
     <use style="fill:#ff0000;stroke:#ff0000;" x="326.890453" xlink:href="#m97986b8252" y="91.551021"/>
     <use style="fill:#ff0000;stroke:#ff0000;" x="328.124881" xlink:href="#m97986b8252" y="91.551021"/>
     <use style="fill:#ff0000;stroke:#ff0000;" x="329.359309" xlink:href="#m97986b8252" y="91.551021"/>
     <use style="fill:#ff0000;stroke:#ff0000;" x="330.593737" xlink:href="#m97986b8252" y="91.551021"/>
     <use style="fill:#ff0000;stroke:#ff0000;" x="331.828165" xlink:href="#m97986b8252" y="91.551021"/>
     <use style="fill:#ff0000;stroke:#ff0000;" x="333.062592" xlink:href="#m97986b8252" y="91.551021"/>
     <use style="fill:#ff0000;stroke:#ff0000;" x="334.29702" xlink:href="#m97986b8252" y="91.551021"/>
     <use style="fill:#ff0000;stroke:#ff0000;" x="335.531448" xlink:href="#m97986b8252" y="91.551021"/>
     <use style="fill:#ff0000;stroke:#ff0000;" x="336.765876" xlink:href="#m97986b8252" y="91.551021"/>
     <use style="fill:#ff0000;stroke:#ff0000;" x="338.000304" xlink:href="#m97986b8252" y="91.551021"/>
     <use style="fill:#ff0000;stroke:#ff0000;" x="339.234732" xlink:href="#m97986b8252" y="91.551021"/>
     <use style="fill:#ff0000;stroke:#ff0000;" x="340.46916" xlink:href="#m97986b8252" y="91.551021"/>
     <use style="fill:#ff0000;stroke:#ff0000;" x="341.703588" xlink:href="#m97986b8252" y="91.551021"/>
     <use style="fill:#ff0000;stroke:#ff0000;" x="342.938016" xlink:href="#m97986b8252" y="91.551021"/>
     <use style="fill:#ff0000;stroke:#ff0000;" x="344.172444" xlink:href="#m97986b8252" y="91.551021"/>
     <use style="fill:#ff0000;stroke:#ff0000;" x="345.406872" xlink:href="#m97986b8252" y="91.551021"/>
     <use style="fill:#ff0000;stroke:#ff0000;" x="346.6413" xlink:href="#m97986b8252" y="91.551021"/>
     <use style="fill:#ff0000;stroke:#ff0000;" x="347.875728" xlink:href="#m97986b8252" y="91.551021"/>
     <use style="fill:#ff0000;stroke:#ff0000;" x="349.110156" xlink:href="#m97986b8252" y="91.551021"/>
     <use style="fill:#ff0000;stroke:#ff0000;" x="350.344583" xlink:href="#m97986b8252" y="91.551021"/>
     <use style="fill:#ff0000;stroke:#ff0000;" x="351.579011" xlink:href="#m97986b8252" y="91.551021"/>
     <use style="fill:#ff0000;stroke:#ff0000;" x="352.813439" xlink:href="#m97986b8252" y="91.551021"/>
     <use style="fill:#ff0000;stroke:#ff0000;" x="354.047867" xlink:href="#m97986b8252" y="91.551021"/>
     <use style="fill:#ff0000;stroke:#ff0000;" x="355.282295" xlink:href="#m97986b8252" y="91.551021"/>
     <use style="fill:#ff0000;stroke:#ff0000;" x="356.516723" xlink:href="#m97986b8252" y="91.551021"/>
     <use style="fill:#ff0000;stroke:#ff0000;" x="357.751151" xlink:href="#m97986b8252" y="91.551021"/>
     <use style="fill:#ff0000;stroke:#ff0000;" x="358.985579" xlink:href="#m97986b8252" y="91.551021"/>
     <use style="fill:#ff0000;stroke:#ff0000;" x="360.220007" xlink:href="#m97986b8252" y="91.551021"/>
     <use style="fill:#ff0000;stroke:#ff0000;" x="361.454435" xlink:href="#m97986b8252" y="91.551021"/>
     <use style="fill:#ff0000;stroke:#ff0000;" x="362.688863" xlink:href="#m97986b8252" y="91.551021"/>
     <use style="fill:#ff0000;stroke:#ff0000;" x="363.923291" xlink:href="#m97986b8252" y="91.551021"/>
     <use style="fill:#ff0000;stroke:#ff0000;" x="365.157719" xlink:href="#m97986b8252" y="91.551021"/>
     <use style="fill:#ff0000;stroke:#ff0000;" x="366.392147" xlink:href="#m97986b8252" y="91.551021"/>
     <use style="fill:#ff0000;stroke:#ff0000;" x="367.626574" xlink:href="#m97986b8252" y="91.551021"/>
     <use style="fill:#ff0000;stroke:#ff0000;" x="368.861002" xlink:href="#m97986b8252" y="91.551021"/>
     <use style="fill:#ff0000;stroke:#ff0000;" x="370.09543" xlink:href="#m97986b8252" y="91.551021"/>
     <use style="fill:#ff0000;stroke:#ff0000;" x="371.329858" xlink:href="#m97986b8252" y="91.551021"/>
     <use style="fill:#ff0000;stroke:#ff0000;" x="372.564286" xlink:href="#m97986b8252" y="91.551021"/>
     <use style="fill:#ff0000;stroke:#ff0000;" x="373.798714" xlink:href="#m97986b8252" y="91.551021"/>
     <use style="fill:#ff0000;stroke:#ff0000;" x="375.033142" xlink:href="#m97986b8252" y="91.551021"/>
     <use style="fill:#ff0000;stroke:#ff0000;" x="376.26757" xlink:href="#m97986b8252" y="91.551021"/>
     <use style="fill:#ff0000;stroke:#ff0000;" x="377.501998" xlink:href="#m97986b8252" y="91.551021"/>
     <use style="fill:#ff0000;stroke:#ff0000;" x="378.736426" xlink:href="#m97986b8252" y="91.551021"/>
     <use style="fill:#ff0000;stroke:#ff0000;" x="379.970854" xlink:href="#m97986b8252" y="91.551021"/>
     <use style="fill:#ff0000;stroke:#ff0000;" x="381.205282" xlink:href="#m97986b8252" y="91.551021"/>
     <use style="fill:#ff0000;stroke:#ff0000;" x="382.43971" xlink:href="#m97986b8252" y="91.551021"/>
     <use style="fill:#ff0000;stroke:#ff0000;" x="383.674138" xlink:href="#m97986b8252" y="91.551021"/>
     <use style="fill:#ff0000;stroke:#ff0000;" x="384.908566" xlink:href="#m97986b8252" y="91.551021"/>
     <use style="fill:#ff0000;stroke:#ff0000;" x="386.142993" xlink:href="#m97986b8252" y="91.551021"/>
     <use style="fill:#ff0000;stroke:#ff0000;" x="387.377421" xlink:href="#m97986b8252" y="91.551021"/>
     <use style="fill:#ff0000;stroke:#ff0000;" x="388.611849" xlink:href="#m97986b8252" y="91.551021"/>
     <use style="fill:#ff0000;stroke:#ff0000;" x="389.846277" xlink:href="#m97986b8252" y="91.551021"/>
     <use style="fill:#ff0000;stroke:#ff0000;" x="391.080705" xlink:href="#m97986b8252" y="91.551021"/>
     <use style="fill:#ff0000;stroke:#ff0000;" x="392.315133" xlink:href="#m97986b8252" y="91.551021"/>
     <use style="fill:#ff0000;stroke:#ff0000;" x="393.549561" xlink:href="#m97986b8252" y="91.551021"/>
     <use style="fill:#ff0000;stroke:#ff0000;" x="394.783989" xlink:href="#m97986b8252" y="91.551021"/>
     <use style="fill:#ff0000;stroke:#ff0000;" x="396.018417" xlink:href="#m97986b8252" y="91.551021"/>
     <use style="fill:#ff0000;stroke:#ff0000;" x="397.252845" xlink:href="#m97986b8252" y="91.551021"/>
     <use style="fill:#ff0000;stroke:#ff0000;" x="398.487273" xlink:href="#m97986b8252" y="91.551021"/>
    </g>
   </g>
   <g id="patch_3">
    <path d="M 57.6 307.584 
L 57.6 41.472 
" style="fill:none;stroke:#000000;stroke-linecap:square;stroke-linejoin:miter;stroke-width:0.8;"/>
   </g>
   <g id="patch_4">
    <path d="M 414.72 307.584 
L 414.72 41.472 
" style="fill:none;stroke:#000000;stroke-linecap:square;stroke-linejoin:miter;stroke-width:0.8;"/>
   </g>
   <g id="patch_5">
    <path d="M 57.6 307.584 
L 414.72 307.584 
" style="fill:none;stroke:#000000;stroke-linecap:square;stroke-linejoin:miter;stroke-width:0.8;"/>
   </g>
   <g id="patch_6">
    <path d="M 57.6 41.472 
L 414.72 41.472 
" style="fill:none;stroke:#000000;stroke-linecap:square;stroke-linejoin:miter;stroke-width:0.8;"/>
   </g>
  </g>
 </g>
 <defs>
  <clipPath id="paacfc3c6da">
   <rect height="266.112" width="357.12" x="57.6" y="41.472"/>
  </clipPath>
 </defs>
</svg>
