<?xml version="1.0" encoding="utf-8" standalone="no"?>
<!DOCTYPE svg PUBLIC "-//W3C//DTD SVG 1.1//EN"
  "http://www.w3.org/Graphics/SVG/1.1/DTD/svg11.dtd">
<!-- Created with matplotlib (https://matplotlib.org/) -->
<svg height="345.6pt" version="1.1" viewBox="0 0 460.8 345.6" width="460.8pt" xmlns="http://www.w3.org/2000/svg" xmlns:xlink="http://www.w3.org/1999/xlink">
 <defs>
  <style type="text/css">
*{stroke-linecap:butt;stroke-linejoin:round;}
  </style>
 </defs>
 <g id="figure_1">
  <g id="patch_1">
   <path d="M 0 345.6 
L 460.8 345.6 
L 460.8 0 
L 0 0 
z
" style="fill:#ffffff;"/>
  </g>
  <g id="axes_1">
   <g id="patch_2">
    <path d="M 57.6 307.584 
L 414.72 307.584 
L 414.72 41.472 
L 57.6 41.472 
z
" style="fill:#ffffff;"/>
   </g>
   <g id="line2d_1">
    <path clip-path="url(#pd6365bc090)" d="M 73.832727 294.500329 
L 75.545944 294.500329 
L 76.402552 220.66138 
L 79.828985 220.66138 
L 80.685594 295.488 
L 81.542202 295.488 
L 82.39881 294.88779 
L 83.255419 294.88779 
L 84.112027 226.139037 
L 84.968635 226.139037 
L 85.825243 156.17765 
L 87.53846 156.17765 
L 88.395068 172.118343 
L 90.108285 172.118343 
L 90.964893 99.21792 
L 91.821502 99.21792 
L 92.67811 174.997758 
L 93.534718 174.997758 
L 94.391326 98.931156 
L 96.104543 98.931156 
L 96.961151 124.761953 
L 97.81776 124.761953 
L 98.674368 101.610969 
L 99.530976 101.610969 
L 100.387585 125.444047 
L 101.244193 125.444047 
L 102.100801 126.135404 
L 102.957409 153.906219 
L 103.814018 153.906219 
L 104.670626 159.020076 
L 105.527234 159.020076 
L 106.383843 136.384679 
L 108.097059 136.384679 
L 108.953668 161.908562 
L 109.810276 161.908562 
L 110.666884 138.325756 
L 111.523492 138.325756 
L 112.380101 115.549709 
L 113.236709 115.549709 
L 114.093317 121.847986 
L 114.949926 121.847986 
L 115.806534 147.564965 
L 116.663142 147.564965 
L 117.519751 152.135558 
L 118.376359 175.841797 
L 120.089575 175.841797 
L 120.946184 200.985424 
L 123.516009 200.985424 
L 124.372617 179.008524 
L 125.229225 203.894748 
L 126.085834 203.894748 
L 126.942442 180.590264 
L 127.79905 180.590264 
L 128.655658 157.620267 
L 130.368875 157.620267 
L 131.225483 135.633104 
L 132.082092 135.633104 
L 132.9387 160.187187 
L 133.795308 160.187187 
L 134.651917 136.875814 
L 135.508525 136.875814 
L 136.365133 114.346549 
L 137.221741 114.346549 
L 138.07835 138.906955 
L 138.934958 138.906955 
L 139.791566 162.384018 
L 140.648175 139.84896 
L 141.504783 139.84896 
L 142.361391 136.070594 
L 146.644433 136.070594 
L 147.501041 114.605568 
L 148.357649 136.773064 
L 149.214258 136.773064 
L 150.070866 132.969385 
L 151.784083 132.969385 
L 152.640691 110.398259 
L 153.497299 110.398259 
L 154.353907 134.19473 
L 155.210516 134.19473 
L 156.067124 158.832007 
L 156.923732 138.761248 
L 157.780341 138.761248 
L 158.636949 165.199814 
L 159.493557 165.199814 
L 160.350166 140.615829 
L 161.206774 140.615829 
L 162.063382 134.872769 
L 162.91999 114.017197 
L 164.633207 114.017197 
L 165.489815 89.75753 
L 166.346424 117.578273 
L 168.916249 117.578273 
L 169.772857 95.017076 
L 177.482331 95.017076 
L 178.33894 102.359914 
L 179.195548 99.940938 
L 180.052156 99.940938 
L 180.908765 78.491913 
L 181.765373 78.491913 
L 182.621981 53.568 
L 183.47859 53.568 
L 184.335198 57.908333 
L 187.761631 57.908333 
L 188.618239 82.162078 
L 189.474848 82.162078 
L 190.331456 103.657717 
L 191.188064 131.6037 
L 192.044673 131.6037 
L 192.901281 107.566697 
L 193.757889 107.566697 
L 194.614497 85.413754 
L 195.471106 85.413754 
L 196.327714 109.321342 
L 197.184322 109.321342 
L 198.040931 136.43565 
L 198.897539 116.776589 
L 200.610756 116.776589 
L 201.467364 95.443365 
L 202.323972 119.89838 
L 204.037189 119.89838 
L 204.893797 99.941596 
L 205.750405 99.941596 
L 206.607014 123.14122 
L 207.463622 150.972885 
L 210.033447 150.972885 
L 210.890055 131.751068 
L 211.746663 131.751068 
L 212.603272 155.832328 
L 213.45988 155.832328 
L 214.316488 181.885868 
L 216.029705 181.885868 
L 216.886313 158.874978 
L 217.742922 158.874978 
L 218.59953 134.162526 
L 219.456138 134.162526 
L 220.312746 112.626626 
L 221.169355 117.140863 
L 222.025963 117.140863 
L 222.882571 95.814143 
L 223.73918 95.814143 
L 224.595788 120.977591 
L 225.452396 120.977591 
L 226.309005 96.172288 
L 228.022221 96.172288 
L 228.878829 67.887523 
L 229.735438 67.887523 
L 230.592046 92.019322 
L 231.448654 92.019322 
L 232.305263 91.551021 
L 398.487273 91.551021 
L 398.487273 91.551021 
" style="fill:none;stroke:#ff0000;stroke-linecap:square;stroke-width:12;"/>
    <defs>
     <path d="M 0 3 
C 0.795609 3 1.55874 2.683901 2.12132 2.12132 
C 2.683901 1.55874 3 0.795609 3 0 
C 3 -0.795609 2.683901 -1.55874 2.12132 -2.12132 
C 1.55874 -2.683901 0.795609 -3 0 -3 
C -0.795609 -3 -1.55874 -2.683901 -2.12132 -2.12132 
C -2.683901 -1.55874 -3 -0.795609 -3 0 
C -3 0.795609 -2.683901 1.55874 -2.12132 2.12132 
C -1.55874 2.683901 -0.795609 3 0 3 
z
" id="mcad4c2693b" style="stroke:#ff0000;"/>
    </defs>
    <g clip-path="url(#pd6365bc090)">
     <use style="fill:#ff0000;stroke:#ff0000;" x="73.832727" xlink:href="#mcad4c2693b" y="294.500329"/>
     <use style="fill:#ff0000;stroke:#ff0000;" x="74.689336" xlink:href="#mcad4c2693b" y="294.500329"/>
     <use style="fill:#ff0000;stroke:#ff0000;" x="75.545944" xlink:href="#mcad4c2693b" y="294.500329"/>
     <use style="fill:#ff0000;stroke:#ff0000;" x="76.402552" xlink:href="#mcad4c2693b" y="220.66138"/>
     <use style="fill:#ff0000;stroke:#ff0000;" x="77.25916" xlink:href="#mcad4c2693b" y="220.66138"/>
     <use style="fill:#ff0000;stroke:#ff0000;" x="78.115769" xlink:href="#mcad4c2693b" y="220.66138"/>
     <use style="fill:#ff0000;stroke:#ff0000;" x="78.972377" xlink:href="#mcad4c2693b" y="220.66138"/>
     <use style="fill:#ff0000;stroke:#ff0000;" x="79.828985" xlink:href="#mcad4c2693b" y="220.66138"/>
     <use style="fill:#ff0000;stroke:#ff0000;" x="80.685594" xlink:href="#mcad4c2693b" y="295.488"/>
     <use style="fill:#ff0000;stroke:#ff0000;" x="81.542202" xlink:href="#mcad4c2693b" y="295.488"/>
     <use style="fill:#ff0000;stroke:#ff0000;" x="82.39881" xlink:href="#mcad4c2693b" y="294.88779"/>
     <use style="fill:#ff0000;stroke:#ff0000;" x="83.255419" xlink:href="#mcad4c2693b" y="294.88779"/>
     <use style="fill:#ff0000;stroke:#ff0000;" x="84.112027" xlink:href="#mcad4c2693b" y="226.139037"/>
     <use style="fill:#ff0000;stroke:#ff0000;" x="84.968635" xlink:href="#mcad4c2693b" y="226.139037"/>
     <use style="fill:#ff0000;stroke:#ff0000;" x="85.825243" xlink:href="#mcad4c2693b" y="156.17765"/>
     <use style="fill:#ff0000;stroke:#ff0000;" x="86.681852" xlink:href="#mcad4c2693b" y="156.17765"/>
     <use style="fill:#ff0000;stroke:#ff0000;" x="87.53846" xlink:href="#mcad4c2693b" y="156.17765"/>
     <use style="fill:#ff0000;stroke:#ff0000;" x="88.395068" xlink:href="#mcad4c2693b" y="172.118343"/>
     <use style="fill:#ff0000;stroke:#ff0000;" x="89.251677" xlink:href="#mcad4c2693b" y="172.118343"/>
     <use style="fill:#ff0000;stroke:#ff0000;" x="90.108285" xlink:href="#mcad4c2693b" y="172.118343"/>
     <use style="fill:#ff0000;stroke:#ff0000;" x="90.964893" xlink:href="#mcad4c2693b" y="99.21792"/>
     <use style="fill:#ff0000;stroke:#ff0000;" x="91.821502" xlink:href="#mcad4c2693b" y="99.21792"/>
     <use style="fill:#ff0000;stroke:#ff0000;" x="92.67811" xlink:href="#mcad4c2693b" y="174.997758"/>
     <use style="fill:#ff0000;stroke:#ff0000;" x="93.534718" xlink:href="#mcad4c2693b" y="174.997758"/>
     <use style="fill:#ff0000;stroke:#ff0000;" x="94.391326" xlink:href="#mcad4c2693b" y="98.931156"/>
     <use style="fill:#ff0000;stroke:#ff0000;" x="95.247935" xlink:href="#mcad4c2693b" y="98.931156"/>
     <use style="fill:#ff0000;stroke:#ff0000;" x="96.104543" xlink:href="#mcad4c2693b" y="98.931156"/>
     <use style="fill:#ff0000;stroke:#ff0000;" x="96.961151" xlink:href="#mcad4c2693b" y="124.761953"/>
     <use style="fill:#ff0000;stroke:#ff0000;" x="97.81776" xlink:href="#mcad4c2693b" y="124.761953"/>
     <use style="fill:#ff0000;stroke:#ff0000;" x="98.674368" xlink:href="#mcad4c2693b" y="101.610969"/>
     <use style="fill:#ff0000;stroke:#ff0000;" x="99.530976" xlink:href="#mcad4c2693b" y="101.610969"/>
     <use style="fill:#ff0000;stroke:#ff0000;" x="100.387585" xlink:href="#mcad4c2693b" y="125.444047"/>
     <use style="fill:#ff0000;stroke:#ff0000;" x="101.244193" xlink:href="#mcad4c2693b" y="125.444047"/>
     <use style="fill:#ff0000;stroke:#ff0000;" x="102.100801" xlink:href="#mcad4c2693b" y="126.135404"/>
     <use style="fill:#ff0000;stroke:#ff0000;" x="102.957409" xlink:href="#mcad4c2693b" y="153.906219"/>
     <use style="fill:#ff0000;stroke:#ff0000;" x="103.814018" xlink:href="#mcad4c2693b" y="153.906219"/>
     <use style="fill:#ff0000;stroke:#ff0000;" x="104.670626" xlink:href="#mcad4c2693b" y="159.020076"/>
     <use style="fill:#ff0000;stroke:#ff0000;" x="105.527234" xlink:href="#mcad4c2693b" y="159.020076"/>
     <use style="fill:#ff0000;stroke:#ff0000;" x="106.383843" xlink:href="#mcad4c2693b" y="136.384679"/>
     <use style="fill:#ff0000;stroke:#ff0000;" x="107.240451" xlink:href="#mcad4c2693b" y="136.384679"/>
     <use style="fill:#ff0000;stroke:#ff0000;" x="108.097059" xlink:href="#mcad4c2693b" y="136.384679"/>
     <use style="fill:#ff0000;stroke:#ff0000;" x="108.953668" xlink:href="#mcad4c2693b" y="161.908562"/>
     <use style="fill:#ff0000;stroke:#ff0000;" x="109.810276" xlink:href="#mcad4c2693b" y="161.908562"/>
     <use style="fill:#ff0000;stroke:#ff0000;" x="110.666884" xlink:href="#mcad4c2693b" y="138.325756"/>
     <use style="fill:#ff0000;stroke:#ff0000;" x="111.523492" xlink:href="#mcad4c2693b" y="138.325756"/>
     <use style="fill:#ff0000;stroke:#ff0000;" x="112.380101" xlink:href="#mcad4c2693b" y="115.549709"/>
     <use style="fill:#ff0000;stroke:#ff0000;" x="113.236709" xlink:href="#mcad4c2693b" y="115.549709"/>
     <use style="fill:#ff0000;stroke:#ff0000;" x="114.093317" xlink:href="#mcad4c2693b" y="121.847986"/>
     <use style="fill:#ff0000;stroke:#ff0000;" x="114.949926" xlink:href="#mcad4c2693b" y="121.847986"/>
     <use style="fill:#ff0000;stroke:#ff0000;" x="115.806534" xlink:href="#mcad4c2693b" y="147.564965"/>
     <use style="fill:#ff0000;stroke:#ff0000;" x="116.663142" xlink:href="#mcad4c2693b" y="147.564965"/>
     <use style="fill:#ff0000;stroke:#ff0000;" x="117.519751" xlink:href="#mcad4c2693b" y="152.135558"/>
     <use style="fill:#ff0000;stroke:#ff0000;" x="118.376359" xlink:href="#mcad4c2693b" y="175.841797"/>
     <use style="fill:#ff0000;stroke:#ff0000;" x="119.232967" xlink:href="#mcad4c2693b" y="175.841797"/>
     <use style="fill:#ff0000;stroke:#ff0000;" x="120.089575" xlink:href="#mcad4c2693b" y="175.841797"/>
     <use style="fill:#ff0000;stroke:#ff0000;" x="120.946184" xlink:href="#mcad4c2693b" y="200.985424"/>
     <use style="fill:#ff0000;stroke:#ff0000;" x="121.802792" xlink:href="#mcad4c2693b" y="200.985424"/>
     <use style="fill:#ff0000;stroke:#ff0000;" x="122.6594" xlink:href="#mcad4c2693b" y="200.985424"/>
     <use style="fill:#ff0000;stroke:#ff0000;" x="123.516009" xlink:href="#mcad4c2693b" y="200.985424"/>
     <use style="fill:#ff0000;stroke:#ff0000;" x="124.372617" xlink:href="#mcad4c2693b" y="179.008524"/>
     <use style="fill:#ff0000;stroke:#ff0000;" x="125.229225" xlink:href="#mcad4c2693b" y="203.894748"/>
     <use style="fill:#ff0000;stroke:#ff0000;" x="126.085834" xlink:href="#mcad4c2693b" y="203.894748"/>
     <use style="fill:#ff0000;stroke:#ff0000;" x="126.942442" xlink:href="#mcad4c2693b" y="180.590264"/>
     <use style="fill:#ff0000;stroke:#ff0000;" x="127.79905" xlink:href="#mcad4c2693b" y="180.590264"/>
     <use style="fill:#ff0000;stroke:#ff0000;" x="128.655658" xlink:href="#mcad4c2693b" y="157.620267"/>
     <use style="fill:#ff0000;stroke:#ff0000;" x="129.512267" xlink:href="#mcad4c2693b" y="157.620267"/>
     <use style="fill:#ff0000;stroke:#ff0000;" x="130.368875" xlink:href="#mcad4c2693b" y="157.620267"/>
     <use style="fill:#ff0000;stroke:#ff0000;" x="131.225483" xlink:href="#mcad4c2693b" y="135.633104"/>
     <use style="fill:#ff0000;stroke:#ff0000;" x="132.082092" xlink:href="#mcad4c2693b" y="135.633104"/>
     <use style="fill:#ff0000;stroke:#ff0000;" x="132.9387" xlink:href="#mcad4c2693b" y="160.187187"/>
     <use style="fill:#ff0000;stroke:#ff0000;" x="133.795308" xlink:href="#mcad4c2693b" y="160.187187"/>
     <use style="fill:#ff0000;stroke:#ff0000;" x="134.651917" xlink:href="#mcad4c2693b" y="136.875814"/>
     <use style="fill:#ff0000;stroke:#ff0000;" x="135.508525" xlink:href="#mcad4c2693b" y="136.875814"/>
     <use style="fill:#ff0000;stroke:#ff0000;" x="136.365133" xlink:href="#mcad4c2693b" y="114.346549"/>
     <use style="fill:#ff0000;stroke:#ff0000;" x="137.221741" xlink:href="#mcad4c2693b" y="114.346549"/>
     <use style="fill:#ff0000;stroke:#ff0000;" x="138.07835" xlink:href="#mcad4c2693b" y="138.906955"/>
     <use style="fill:#ff0000;stroke:#ff0000;" x="138.934958" xlink:href="#mcad4c2693b" y="138.906955"/>
     <use style="fill:#ff0000;stroke:#ff0000;" x="139.791566" xlink:href="#mcad4c2693b" y="162.384018"/>
     <use style="fill:#ff0000;stroke:#ff0000;" x="140.648175" xlink:href="#mcad4c2693b" y="139.84896"/>
     <use style="fill:#ff0000;stroke:#ff0000;" x="141.504783" xlink:href="#mcad4c2693b" y="139.84896"/>
     <use style="fill:#ff0000;stroke:#ff0000;" x="142.361391" xlink:href="#mcad4c2693b" y="136.070594"/>
     <use style="fill:#ff0000;stroke:#ff0000;" x="143.218" xlink:href="#mcad4c2693b" y="136.070594"/>
     <use style="fill:#ff0000;stroke:#ff0000;" x="144.074608" xlink:href="#mcad4c2693b" y="136.070594"/>
     <use style="fill:#ff0000;stroke:#ff0000;" x="144.931216" xlink:href="#mcad4c2693b" y="136.070594"/>
     <use style="fill:#ff0000;stroke:#ff0000;" x="145.787824" xlink:href="#mcad4c2693b" y="136.070594"/>
     <use style="fill:#ff0000;stroke:#ff0000;" x="146.644433" xlink:href="#mcad4c2693b" y="136.070594"/>
     <use style="fill:#ff0000;stroke:#ff0000;" x="147.501041" xlink:href="#mcad4c2693b" y="114.605568"/>
     <use style="fill:#ff0000;stroke:#ff0000;" x="148.357649" xlink:href="#mcad4c2693b" y="136.773064"/>
     <use style="fill:#ff0000;stroke:#ff0000;" x="149.214258" xlink:href="#mcad4c2693b" y="136.773064"/>
     <use style="fill:#ff0000;stroke:#ff0000;" x="150.070866" xlink:href="#mcad4c2693b" y="132.969385"/>
     <use style="fill:#ff0000;stroke:#ff0000;" x="150.927474" xlink:href="#mcad4c2693b" y="132.969385"/>
     <use style="fill:#ff0000;stroke:#ff0000;" x="151.784083" xlink:href="#mcad4c2693b" y="132.969385"/>
     <use style="fill:#ff0000;stroke:#ff0000;" x="152.640691" xlink:href="#mcad4c2693b" y="110.398259"/>
     <use style="fill:#ff0000;stroke:#ff0000;" x="153.497299" xlink:href="#mcad4c2693b" y="110.398259"/>
     <use style="fill:#ff0000;stroke:#ff0000;" x="154.353907" xlink:href="#mcad4c2693b" y="134.19473"/>
     <use style="fill:#ff0000;stroke:#ff0000;" x="155.210516" xlink:href="#mcad4c2693b" y="134.19473"/>
     <use style="fill:#ff0000;stroke:#ff0000;" x="156.067124" xlink:href="#mcad4c2693b" y="158.832007"/>
     <use style="fill:#ff0000;stroke:#ff0000;" x="156.923732" xlink:href="#mcad4c2693b" y="138.761248"/>
     <use style="fill:#ff0000;stroke:#ff0000;" x="157.780341" xlink:href="#mcad4c2693b" y="138.761248"/>
     <use style="fill:#ff0000;stroke:#ff0000;" x="158.636949" xlink:href="#mcad4c2693b" y="165.199814"/>
     <use style="fill:#ff0000;stroke:#ff0000;" x="159.493557" xlink:href="#mcad4c2693b" y="165.199814"/>
     <use style="fill:#ff0000;stroke:#ff0000;" x="160.350166" xlink:href="#mcad4c2693b" y="140.615829"/>
     <use style="fill:#ff0000;stroke:#ff0000;" x="161.206774" xlink:href="#mcad4c2693b" y="140.615829"/>
     <use style="fill:#ff0000;stroke:#ff0000;" x="162.063382" xlink:href="#mcad4c2693b" y="134.872769"/>
     <use style="fill:#ff0000;stroke:#ff0000;" x="162.91999" xlink:href="#mcad4c2693b" y="114.017197"/>
     <use style="fill:#ff0000;stroke:#ff0000;" x="163.776599" xlink:href="#mcad4c2693b" y="114.017197"/>
     <use style="fill:#ff0000;stroke:#ff0000;" x="164.633207" xlink:href="#mcad4c2693b" y="114.017197"/>
     <use style="fill:#ff0000;stroke:#ff0000;" x="165.489815" xlink:href="#mcad4c2693b" y="89.75753"/>
     <use style="fill:#ff0000;stroke:#ff0000;" x="166.346424" xlink:href="#mcad4c2693b" y="117.578273"/>
     <use style="fill:#ff0000;stroke:#ff0000;" x="167.203032" xlink:href="#mcad4c2693b" y="117.578273"/>
     <use style="fill:#ff0000;stroke:#ff0000;" x="168.05964" xlink:href="#mcad4c2693b" y="117.578273"/>
     <use style="fill:#ff0000;stroke:#ff0000;" x="168.916249" xlink:href="#mcad4c2693b" y="117.578273"/>
     <use style="fill:#ff0000;stroke:#ff0000;" x="169.772857" xlink:href="#mcad4c2693b" y="95.017076"/>
     <use style="fill:#ff0000;stroke:#ff0000;" x="170.629465" xlink:href="#mcad4c2693b" y="95.017076"/>
     <use style="fill:#ff0000;stroke:#ff0000;" x="171.486073" xlink:href="#mcad4c2693b" y="95.017076"/>
     <use style="fill:#ff0000;stroke:#ff0000;" x="172.342682" xlink:href="#mcad4c2693b" y="95.017076"/>
     <use style="fill:#ff0000;stroke:#ff0000;" x="173.19929" xlink:href="#mcad4c2693b" y="95.017076"/>
     <use style="fill:#ff0000;stroke:#ff0000;" x="174.055898" xlink:href="#mcad4c2693b" y="95.017076"/>
     <use style="fill:#ff0000;stroke:#ff0000;" x="174.912507" xlink:href="#mcad4c2693b" y="95.017076"/>
     <use style="fill:#ff0000;stroke:#ff0000;" x="175.769115" xlink:href="#mcad4c2693b" y="95.017076"/>
     <use style="fill:#ff0000;stroke:#ff0000;" x="176.625723" xlink:href="#mcad4c2693b" y="95.017076"/>
     <use style="fill:#ff0000;stroke:#ff0000;" x="177.482331" xlink:href="#mcad4c2693b" y="95.017076"/>
     <use style="fill:#ff0000;stroke:#ff0000;" x="178.33894" xlink:href="#mcad4c2693b" y="102.359914"/>
     <use style="fill:#ff0000;stroke:#ff0000;" x="179.195548" xlink:href="#mcad4c2693b" y="99.940938"/>
     <use style="fill:#ff0000;stroke:#ff0000;" x="180.052156" xlink:href="#mcad4c2693b" y="99.940938"/>
     <use style="fill:#ff0000;stroke:#ff0000;" x="180.908765" xlink:href="#mcad4c2693b" y="78.491913"/>
     <use style="fill:#ff0000;stroke:#ff0000;" x="181.765373" xlink:href="#mcad4c2693b" y="78.491913"/>
     <use style="fill:#ff0000;stroke:#ff0000;" x="182.621981" xlink:href="#mcad4c2693b" y="53.568"/>
     <use style="fill:#ff0000;stroke:#ff0000;" x="183.47859" xlink:href="#mcad4c2693b" y="53.568"/>
     <use style="fill:#ff0000;stroke:#ff0000;" x="184.335198" xlink:href="#mcad4c2693b" y="57.908333"/>
     <use style="fill:#ff0000;stroke:#ff0000;" x="185.191806" xlink:href="#mcad4c2693b" y="57.908333"/>
     <use style="fill:#ff0000;stroke:#ff0000;" x="186.048414" xlink:href="#mcad4c2693b" y="57.908333"/>
     <use style="fill:#ff0000;stroke:#ff0000;" x="186.905023" xlink:href="#mcad4c2693b" y="57.908333"/>
     <use style="fill:#ff0000;stroke:#ff0000;" x="187.761631" xlink:href="#mcad4c2693b" y="57.908333"/>
     <use style="fill:#ff0000;stroke:#ff0000;" x="188.618239" xlink:href="#mcad4c2693b" y="82.162078"/>
     <use style="fill:#ff0000;stroke:#ff0000;" x="189.474848" xlink:href="#mcad4c2693b" y="82.162078"/>
     <use style="fill:#ff0000;stroke:#ff0000;" x="190.331456" xlink:href="#mcad4c2693b" y="103.657717"/>
     <use style="fill:#ff0000;stroke:#ff0000;" x="191.188064" xlink:href="#mcad4c2693b" y="131.6037"/>
     <use style="fill:#ff0000;stroke:#ff0000;" x="192.044673" xlink:href="#mcad4c2693b" y="131.6037"/>
     <use style="fill:#ff0000;stroke:#ff0000;" x="192.901281" xlink:href="#mcad4c2693b" y="107.566697"/>
     <use style="fill:#ff0000;stroke:#ff0000;" x="193.757889" xlink:href="#mcad4c2693b" y="107.566697"/>
     <use style="fill:#ff0000;stroke:#ff0000;" x="194.614497" xlink:href="#mcad4c2693b" y="85.413754"/>
     <use style="fill:#ff0000;stroke:#ff0000;" x="195.471106" xlink:href="#mcad4c2693b" y="85.413754"/>
     <use style="fill:#ff0000;stroke:#ff0000;" x="196.327714" xlink:href="#mcad4c2693b" y="109.321342"/>
     <use style="fill:#ff0000;stroke:#ff0000;" x="197.184322" xlink:href="#mcad4c2693b" y="109.321342"/>
     <use style="fill:#ff0000;stroke:#ff0000;" x="198.040931" xlink:href="#mcad4c2693b" y="136.43565"/>
     <use style="fill:#ff0000;stroke:#ff0000;" x="198.897539" xlink:href="#mcad4c2693b" y="116.776589"/>
     <use style="fill:#ff0000;stroke:#ff0000;" x="199.754147" xlink:href="#mcad4c2693b" y="116.776589"/>
     <use style="fill:#ff0000;stroke:#ff0000;" x="200.610756" xlink:href="#mcad4c2693b" y="116.776589"/>
     <use style="fill:#ff0000;stroke:#ff0000;" x="201.467364" xlink:href="#mcad4c2693b" y="95.443365"/>
     <use style="fill:#ff0000;stroke:#ff0000;" x="202.323972" xlink:href="#mcad4c2693b" y="119.89838"/>
     <use style="fill:#ff0000;stroke:#ff0000;" x="203.18058" xlink:href="#mcad4c2693b" y="119.89838"/>
     <use style="fill:#ff0000;stroke:#ff0000;" x="204.037189" xlink:href="#mcad4c2693b" y="119.89838"/>
     <use style="fill:#ff0000;stroke:#ff0000;" x="204.893797" xlink:href="#mcad4c2693b" y="99.941596"/>
     <use style="fill:#ff0000;stroke:#ff0000;" x="205.750405" xlink:href="#mcad4c2693b" y="99.941596"/>
     <use style="fill:#ff0000;stroke:#ff0000;" x="206.607014" xlink:href="#mcad4c2693b" y="123.14122"/>
     <use style="fill:#ff0000;stroke:#ff0000;" x="207.463622" xlink:href="#mcad4c2693b" y="150.972885"/>
     <use style="fill:#ff0000;stroke:#ff0000;" x="208.32023" xlink:href="#mcad4c2693b" y="150.972885"/>
     <use style="fill:#ff0000;stroke:#ff0000;" x="209.176839" xlink:href="#mcad4c2693b" y="150.972885"/>
     <use style="fill:#ff0000;stroke:#ff0000;" x="210.033447" xlink:href="#mcad4c2693b" y="150.972885"/>
     <use style="fill:#ff0000;stroke:#ff0000;" x="210.890055" xlink:href="#mcad4c2693b" y="131.751068"/>
     <use style="fill:#ff0000;stroke:#ff0000;" x="211.746663" xlink:href="#mcad4c2693b" y="131.751068"/>
     <use style="fill:#ff0000;stroke:#ff0000;" x="212.603272" xlink:href="#mcad4c2693b" y="155.832328"/>
     <use style="fill:#ff0000;stroke:#ff0000;" x="213.45988" xlink:href="#mcad4c2693b" y="155.832328"/>
     <use style="fill:#ff0000;stroke:#ff0000;" x="214.316488" xlink:href="#mcad4c2693b" y="181.885868"/>
     <use style="fill:#ff0000;stroke:#ff0000;" x="215.173097" xlink:href="#mcad4c2693b" y="181.885868"/>
     <use style="fill:#ff0000;stroke:#ff0000;" x="216.029705" xlink:href="#mcad4c2693b" y="181.885868"/>
     <use style="fill:#ff0000;stroke:#ff0000;" x="216.886313" xlink:href="#mcad4c2693b" y="158.874978"/>
     <use style="fill:#ff0000;stroke:#ff0000;" x="217.742922" xlink:href="#mcad4c2693b" y="158.874978"/>
     <use style="fill:#ff0000;stroke:#ff0000;" x="218.59953" xlink:href="#mcad4c2693b" y="134.162526"/>
     <use style="fill:#ff0000;stroke:#ff0000;" x="219.456138" xlink:href="#mcad4c2693b" y="134.162526"/>
     <use style="fill:#ff0000;stroke:#ff0000;" x="220.312746" xlink:href="#mcad4c2693b" y="112.626626"/>
     <use style="fill:#ff0000;stroke:#ff0000;" x="221.169355" xlink:href="#mcad4c2693b" y="117.140863"/>
     <use style="fill:#ff0000;stroke:#ff0000;" x="222.025963" xlink:href="#mcad4c2693b" y="117.140863"/>
     <use style="fill:#ff0000;stroke:#ff0000;" x="222.882571" xlink:href="#mcad4c2693b" y="95.814143"/>
     <use style="fill:#ff0000;stroke:#ff0000;" x="223.73918" xlink:href="#mcad4c2693b" y="95.814143"/>
     <use style="fill:#ff0000;stroke:#ff0000;" x="224.595788" xlink:href="#mcad4c2693b" y="120.977591"/>
     <use style="fill:#ff0000;stroke:#ff0000;" x="225.452396" xlink:href="#mcad4c2693b" y="120.977591"/>
     <use style="fill:#ff0000;stroke:#ff0000;" x="226.309005" xlink:href="#mcad4c2693b" y="96.172288"/>
     <use style="fill:#ff0000;stroke:#ff0000;" x="227.165613" xlink:href="#mcad4c2693b" y="96.172288"/>
     <use style="fill:#ff0000;stroke:#ff0000;" x="228.022221" xlink:href="#mcad4c2693b" y="96.172288"/>
     <use style="fill:#ff0000;stroke:#ff0000;" x="228.878829" xlink:href="#mcad4c2693b" y="67.887523"/>
     <use style="fill:#ff0000;stroke:#ff0000;" x="229.735438" xlink:href="#mcad4c2693b" y="67.887523"/>
     <use style="fill:#ff0000;stroke:#ff0000;" x="230.592046" xlink:href="#mcad4c2693b" y="92.019322"/>
     <use style="fill:#ff0000;stroke:#ff0000;" x="231.448654" xlink:href="#mcad4c2693b" y="92.019322"/>
     <use style="fill:#ff0000;stroke:#ff0000;" x="232.305263" xlink:href="#mcad4c2693b" y="91.551021"/>
     <use style="fill:#ff0000;stroke:#ff0000;" x="233.161871" xlink:href="#mcad4c2693b" y="91.551021"/>
     <use style="fill:#ff0000;stroke:#ff0000;" x="234.018479" xlink:href="#mcad4c2693b" y="91.551021"/>
     <use style="fill:#ff0000;stroke:#ff0000;" x="234.875088" xlink:href="#mcad4c2693b" y="91.551021"/>
     <use style="fill:#ff0000;stroke:#ff0000;" x="235.731696" xlink:href="#mcad4c2693b" y="91.551021"/>
     <use style="fill:#ff0000;stroke:#ff0000;" x="236.588304" xlink:href="#mcad4c2693b" y="91.551021"/>
     <use style="fill:#ff0000;stroke:#ff0000;" x="237.444912" xlink:href="#mcad4c2693b" y="91.551021"/>
     <use style="fill:#ff0000;stroke:#ff0000;" x="238.301521" xlink:href="#mcad4c2693b" y="91.551021"/>
     <use style="fill:#ff0000;stroke:#ff0000;" x="239.158129" xlink:href="#mcad4c2693b" y="91.551021"/>
     <use style="fill:#ff0000;stroke:#ff0000;" x="240.014737" xlink:href="#mcad4c2693b" y="91.551021"/>
     <use style="fill:#ff0000;stroke:#ff0000;" x="240.871346" xlink:href="#mcad4c2693b" y="91.551021"/>
     <use style="fill:#ff0000;stroke:#ff0000;" x="241.727954" xlink:href="#mcad4c2693b" y="91.551021"/>
     <use style="fill:#ff0000;stroke:#ff0000;" x="242.584562" xlink:href="#mcad4c2693b" y="91.551021"/>
     <use style="fill:#ff0000;stroke:#ff0000;" x="243.441171" xlink:href="#mcad4c2693b" y="91.551021"/>
     <use style="fill:#ff0000;stroke:#ff0000;" x="244.297779" xlink:href="#mcad4c2693b" y="91.551021"/>
     <use style="fill:#ff0000;stroke:#ff0000;" x="245.154387" xlink:href="#mcad4c2693b" y="91.551021"/>
     <use style="fill:#ff0000;stroke:#ff0000;" x="246.010995" xlink:href="#mcad4c2693b" y="91.551021"/>
     <use style="fill:#ff0000;stroke:#ff0000;" x="246.867604" xlink:href="#mcad4c2693b" y="91.551021"/>
     <use style="fill:#ff0000;stroke:#ff0000;" x="247.724212" xlink:href="#mcad4c2693b" y="91.551021"/>
     <use style="fill:#ff0000;stroke:#ff0000;" x="248.58082" xlink:href="#mcad4c2693b" y="91.551021"/>
     <use style="fill:#ff0000;stroke:#ff0000;" x="249.437429" xlink:href="#mcad4c2693b" y="91.551021"/>
     <use style="fill:#ff0000;stroke:#ff0000;" x="250.294037" xlink:href="#mcad4c2693b" y="91.551021"/>
     <use style="fill:#ff0000;stroke:#ff0000;" x="251.150645" xlink:href="#mcad4c2693b" y="91.551021"/>
     <use style="fill:#ff0000;stroke:#ff0000;" x="252.007254" xlink:href="#mcad4c2693b" y="91.551021"/>
     <use style="fill:#ff0000;stroke:#ff0000;" x="252.863862" xlink:href="#mcad4c2693b" y="91.551021"/>
     <use style="fill:#ff0000;stroke:#ff0000;" x="253.72047" xlink:href="#mcad4c2693b" y="91.551021"/>
     <use style="fill:#ff0000;stroke:#ff0000;" x="254.577078" xlink:href="#mcad4c2693b" y="91.551021"/>
     <use style="fill:#ff0000;stroke:#ff0000;" x="255.433687" xlink:href="#mcad4c2693b" y="91.551021"/>
     <use style="fill:#ff0000;stroke:#ff0000;" x="256.290295" xlink:href="#mcad4c2693b" y="91.551021"/>
     <use style="fill:#ff0000;stroke:#ff0000;" x="257.146903" xlink:href="#mcad4c2693b" y="91.551021"/>
     <use style="fill:#ff0000;stroke:#ff0000;" x="258.003512" xlink:href="#mcad4c2693b" y="91.551021"/>
     <use style="fill:#ff0000;stroke:#ff0000;" x="258.86012" xlink:href="#mcad4c2693b" y="91.551021"/>
     <use style="fill:#ff0000;stroke:#ff0000;" x="259.716728" xlink:href="#mcad4c2693b" y="91.551021"/>
     <use style="fill:#ff0000;stroke:#ff0000;" x="260.573337" xlink:href="#mcad4c2693b" y="91.551021"/>
     <use style="fill:#ff0000;stroke:#ff0000;" x="261.429945" xlink:href="#mcad4c2693b" y="91.551021"/>
     <use style="fill:#ff0000;stroke:#ff0000;" x="262.286553" xlink:href="#mcad4c2693b" y="91.551021"/>
     <use style="fill:#ff0000;stroke:#ff0000;" x="263.143161" xlink:href="#mcad4c2693b" y="91.551021"/>
     <use style="fill:#ff0000;stroke:#ff0000;" x="263.99977" xlink:href="#mcad4c2693b" y="91.551021"/>
     <use style="fill:#ff0000;stroke:#ff0000;" x="264.856378" xlink:href="#mcad4c2693b" y="91.551021"/>
     <use style="fill:#ff0000;stroke:#ff0000;" x="265.712986" xlink:href="#mcad4c2693b" y="91.551021"/>
     <use style="fill:#ff0000;stroke:#ff0000;" x="266.569595" xlink:href="#mcad4c2693b" y="91.551021"/>
     <use style="fill:#ff0000;stroke:#ff0000;" x="267.426203" xlink:href="#mcad4c2693b" y="91.551021"/>
     <use style="fill:#ff0000;stroke:#ff0000;" x="268.282811" xlink:href="#mcad4c2693b" y="91.551021"/>
     <use style="fill:#ff0000;stroke:#ff0000;" x="269.13942" xlink:href="#mcad4c2693b" y="91.551021"/>
     <use style="fill:#ff0000;stroke:#ff0000;" x="269.996028" xlink:href="#mcad4c2693b" y="91.551021"/>
     <use style="fill:#ff0000;stroke:#ff0000;" x="270.852636" xlink:href="#mcad4c2693b" y="91.551021"/>
     <use style="fill:#ff0000;stroke:#ff0000;" x="271.709244" xlink:href="#mcad4c2693b" y="91.551021"/>
     <use style="fill:#ff0000;stroke:#ff0000;" x="272.565853" xlink:href="#mcad4c2693b" y="91.551021"/>
     <use style="fill:#ff0000;stroke:#ff0000;" x="273.422461" xlink:href="#mcad4c2693b" y="91.551021"/>
     <use style="fill:#ff0000;stroke:#ff0000;" x="274.279069" xlink:href="#mcad4c2693b" y="91.551021"/>
     <use style="fill:#ff0000;stroke:#ff0000;" x="275.135678" xlink:href="#mcad4c2693b" y="91.551021"/>
     <use style="fill:#ff0000;stroke:#ff0000;" x="275.992286" xlink:href="#mcad4c2693b" y="91.551021"/>
     <use style="fill:#ff0000;stroke:#ff0000;" x="276.848894" xlink:href="#mcad4c2693b" y="91.551021"/>
     <use style="fill:#ff0000;stroke:#ff0000;" x="277.705503" xlink:href="#mcad4c2693b" y="91.551021"/>
     <use style="fill:#ff0000;stroke:#ff0000;" x="278.562111" xlink:href="#mcad4c2693b" y="91.551021"/>
     <use style="fill:#ff0000;stroke:#ff0000;" x="279.418719" xlink:href="#mcad4c2693b" y="91.551021"/>
     <use style="fill:#ff0000;stroke:#ff0000;" x="280.275327" xlink:href="#mcad4c2693b" y="91.551021"/>
     <use style="fill:#ff0000;stroke:#ff0000;" x="281.131936" xlink:href="#mcad4c2693b" y="91.551021"/>
     <use style="fill:#ff0000;stroke:#ff0000;" x="281.988544" xlink:href="#mcad4c2693b" y="91.551021"/>
     <use style="fill:#ff0000;stroke:#ff0000;" x="282.845152" xlink:href="#mcad4c2693b" y="91.551021"/>
     <use style="fill:#ff0000;stroke:#ff0000;" x="283.701761" xlink:href="#mcad4c2693b" y="91.551021"/>
     <use style="fill:#ff0000;stroke:#ff0000;" x="284.558369" xlink:href="#mcad4c2693b" y="91.551021"/>
     <use style="fill:#ff0000;stroke:#ff0000;" x="285.414977" xlink:href="#mcad4c2693b" y="91.551021"/>
     <use style="fill:#ff0000;stroke:#ff0000;" x="286.271586" xlink:href="#mcad4c2693b" y="91.551021"/>
     <use style="fill:#ff0000;stroke:#ff0000;" x="287.128194" xlink:href="#mcad4c2693b" y="91.551021"/>
     <use style="fill:#ff0000;stroke:#ff0000;" x="287.984802" xlink:href="#mcad4c2693b" y="91.551021"/>
     <use style="fill:#ff0000;stroke:#ff0000;" x="288.84141" xlink:href="#mcad4c2693b" y="91.551021"/>
     <use style="fill:#ff0000;stroke:#ff0000;" x="289.698019" xlink:href="#mcad4c2693b" y="91.551021"/>
     <use style="fill:#ff0000;stroke:#ff0000;" x="290.554627" xlink:href="#mcad4c2693b" y="91.551021"/>
     <use style="fill:#ff0000;stroke:#ff0000;" x="291.411235" xlink:href="#mcad4c2693b" y="91.551021"/>
     <use style="fill:#ff0000;stroke:#ff0000;" x="292.267844" xlink:href="#mcad4c2693b" y="91.551021"/>
     <use style="fill:#ff0000;stroke:#ff0000;" x="293.124452" xlink:href="#mcad4c2693b" y="91.551021"/>
     <use style="fill:#ff0000;stroke:#ff0000;" x="293.98106" xlink:href="#mcad4c2693b" y="91.551021"/>
     <use style="fill:#ff0000;stroke:#ff0000;" x="294.837669" xlink:href="#mcad4c2693b" y="91.551021"/>
     <use style="fill:#ff0000;stroke:#ff0000;" x="295.694277" xlink:href="#mcad4c2693b" y="91.551021"/>
     <use style="fill:#ff0000;stroke:#ff0000;" x="296.550885" xlink:href="#mcad4c2693b" y="91.551021"/>
     <use style="fill:#ff0000;stroke:#ff0000;" x="297.407493" xlink:href="#mcad4c2693b" y="91.551021"/>
     <use style="fill:#ff0000;stroke:#ff0000;" x="298.264102" xlink:href="#mcad4c2693b" y="91.551021"/>
     <use style="fill:#ff0000;stroke:#ff0000;" x="299.12071" xlink:href="#mcad4c2693b" y="91.551021"/>
     <use style="fill:#ff0000;stroke:#ff0000;" x="299.977318" xlink:href="#mcad4c2693b" y="91.551021"/>
     <use style="fill:#ff0000;stroke:#ff0000;" x="300.833927" xlink:href="#mcad4c2693b" y="91.551021"/>
     <use style="fill:#ff0000;stroke:#ff0000;" x="301.690535" xlink:href="#mcad4c2693b" y="91.551021"/>
     <use style="fill:#ff0000;stroke:#ff0000;" x="302.547143" xlink:href="#mcad4c2693b" y="91.551021"/>
     <use style="fill:#ff0000;stroke:#ff0000;" x="303.403751" xlink:href="#mcad4c2693b" y="91.551021"/>
     <use style="fill:#ff0000;stroke:#ff0000;" x="304.26036" xlink:href="#mcad4c2693b" y="91.551021"/>
     <use style="fill:#ff0000;stroke:#ff0000;" x="305.116968" xlink:href="#mcad4c2693b" y="91.551021"/>
     <use style="fill:#ff0000;stroke:#ff0000;" x="305.973576" xlink:href="#mcad4c2693b" y="91.551021"/>
     <use style="fill:#ff0000;stroke:#ff0000;" x="306.830185" xlink:href="#mcad4c2693b" y="91.551021"/>
     <use style="fill:#ff0000;stroke:#ff0000;" x="307.686793" xlink:href="#mcad4c2693b" y="91.551021"/>
     <use style="fill:#ff0000;stroke:#ff0000;" x="308.543401" xlink:href="#mcad4c2693b" y="91.551021"/>
     <use style="fill:#ff0000;stroke:#ff0000;" x="309.40001" xlink:href="#mcad4c2693b" y="91.551021"/>
     <use style="fill:#ff0000;stroke:#ff0000;" x="310.256618" xlink:href="#mcad4c2693b" y="91.551021"/>
     <use style="fill:#ff0000;stroke:#ff0000;" x="311.113226" xlink:href="#mcad4c2693b" y="91.551021"/>
     <use style="fill:#ff0000;stroke:#ff0000;" x="311.969834" xlink:href="#mcad4c2693b" y="91.551021"/>
     <use style="fill:#ff0000;stroke:#ff0000;" x="312.826443" xlink:href="#mcad4c2693b" y="91.551021"/>
     <use style="fill:#ff0000;stroke:#ff0000;" x="313.683051" xlink:href="#mcad4c2693b" y="91.551021"/>
     <use style="fill:#ff0000;stroke:#ff0000;" x="314.539659" xlink:href="#mcad4c2693b" y="91.551021"/>
     <use style="fill:#ff0000;stroke:#ff0000;" x="315.396268" xlink:href="#mcad4c2693b" y="91.551021"/>
     <use style="fill:#ff0000;stroke:#ff0000;" x="316.252876" xlink:href="#mcad4c2693b" y="91.551021"/>
     <use style="fill:#ff0000;stroke:#ff0000;" x="317.109484" xlink:href="#mcad4c2693b" y="91.551021"/>
     <use style="fill:#ff0000;stroke:#ff0000;" x="317.966093" xlink:href="#mcad4c2693b" y="91.551021"/>
     <use style="fill:#ff0000;stroke:#ff0000;" x="318.822701" xlink:href="#mcad4c2693b" y="91.551021"/>
     <use style="fill:#ff0000;stroke:#ff0000;" x="319.679309" xlink:href="#mcad4c2693b" y="91.551021"/>
     <use style="fill:#ff0000;stroke:#ff0000;" x="320.535917" xlink:href="#mcad4c2693b" y="91.551021"/>
     <use style="fill:#ff0000;stroke:#ff0000;" x="321.392526" xlink:href="#mcad4c2693b" y="91.551021"/>
     <use style="fill:#ff0000;stroke:#ff0000;" x="322.249134" xlink:href="#mcad4c2693b" y="91.551021"/>
     <use style="fill:#ff0000;stroke:#ff0000;" x="323.105742" xlink:href="#mcad4c2693b" y="91.551021"/>
     <use style="fill:#ff0000;stroke:#ff0000;" x="323.962351" xlink:href="#mcad4c2693b" y="91.551021"/>
     <use style="fill:#ff0000;stroke:#ff0000;" x="324.818959" xlink:href="#mcad4c2693b" y="91.551021"/>
     <use style="fill:#ff0000;stroke:#ff0000;" x="325.675567" xlink:href="#mcad4c2693b" y="91.551021"/>
     <use style="fill:#ff0000;stroke:#ff0000;" x="326.532176" xlink:href="#mcad4c2693b" y="91.551021"/>
     <use style="fill:#ff0000;stroke:#ff0000;" x="327.388784" xlink:href="#mcad4c2693b" y="91.551021"/>
     <use style="fill:#ff0000;stroke:#ff0000;" x="328.245392" xlink:href="#mcad4c2693b" y="91.551021"/>
     <use style="fill:#ff0000;stroke:#ff0000;" x="329.102" xlink:href="#mcad4c2693b" y="91.551021"/>
     <use style="fill:#ff0000;stroke:#ff0000;" x="329.958609" xlink:href="#mcad4c2693b" y="91.551021"/>
     <use style="fill:#ff0000;stroke:#ff0000;" x="330.815217" xlink:href="#mcad4c2693b" y="91.551021"/>
     <use style="fill:#ff0000;stroke:#ff0000;" x="331.671825" xlink:href="#mcad4c2693b" y="91.551021"/>
     <use style="fill:#ff0000;stroke:#ff0000;" x="332.528434" xlink:href="#mcad4c2693b" y="91.551021"/>
     <use style="fill:#ff0000;stroke:#ff0000;" x="333.385042" xlink:href="#mcad4c2693b" y="91.551021"/>
     <use style="fill:#ff0000;stroke:#ff0000;" x="334.24165" xlink:href="#mcad4c2693b" y="91.551021"/>
     <use style="fill:#ff0000;stroke:#ff0000;" x="335.098259" xlink:href="#mcad4c2693b" y="91.551021"/>
     <use style="fill:#ff0000;stroke:#ff0000;" x="335.954867" xlink:href="#mcad4c2693b" y="91.551021"/>
     <use style="fill:#ff0000;stroke:#ff0000;" x="336.811475" xlink:href="#mcad4c2693b" y="91.551021"/>
     <use style="fill:#ff0000;stroke:#ff0000;" x="337.668083" xlink:href="#mcad4c2693b" y="91.551021"/>
     <use style="fill:#ff0000;stroke:#ff0000;" x="338.524692" xlink:href="#mcad4c2693b" y="91.551021"/>
     <use style="fill:#ff0000;stroke:#ff0000;" x="339.3813" xlink:href="#mcad4c2693b" y="91.551021"/>
     <use style="fill:#ff0000;stroke:#ff0000;" x="340.237908" xlink:href="#mcad4c2693b" y="91.551021"/>
     <use style="fill:#ff0000;stroke:#ff0000;" x="341.094517" xlink:href="#mcad4c2693b" y="91.551021"/>
     <use style="fill:#ff0000;stroke:#ff0000;" x="341.951125" xlink:href="#mcad4c2693b" y="91.551021"/>
     <use style="fill:#ff0000;stroke:#ff0000;" x="342.807733" xlink:href="#mcad4c2693b" y="91.551021"/>
     <use style="fill:#ff0000;stroke:#ff0000;" x="343.664342" xlink:href="#mcad4c2693b" y="91.551021"/>
     <use style="fill:#ff0000;stroke:#ff0000;" x="344.52095" xlink:href="#mcad4c2693b" y="91.551021"/>
     <use style="fill:#ff0000;stroke:#ff0000;" x="345.377558" xlink:href="#mcad4c2693b" y="91.551021"/>
     <use style="fill:#ff0000;stroke:#ff0000;" x="346.234166" xlink:href="#mcad4c2693b" y="91.551021"/>
     <use style="fill:#ff0000;stroke:#ff0000;" x="347.090775" xlink:href="#mcad4c2693b" y="91.551021"/>
     <use style="fill:#ff0000;stroke:#ff0000;" x="347.947383" xlink:href="#mcad4c2693b" y="91.551021"/>
     <use style="fill:#ff0000;stroke:#ff0000;" x="348.803991" xlink:href="#mcad4c2693b" y="91.551021"/>
     <use style="fill:#ff0000;stroke:#ff0000;" x="349.6606" xlink:href="#mcad4c2693b" y="91.551021"/>
     <use style="fill:#ff0000;stroke:#ff0000;" x="350.517208" xlink:href="#mcad4c2693b" y="91.551021"/>
     <use style="fill:#ff0000;stroke:#ff0000;" x="351.373816" xlink:href="#mcad4c2693b" y="91.551021"/>
     <use style="fill:#ff0000;stroke:#ff0000;" x="352.230425" xlink:href="#mcad4c2693b" y="91.551021"/>
     <use style="fill:#ff0000;stroke:#ff0000;" x="353.087033" xlink:href="#mcad4c2693b" y="91.551021"/>
     <use style="fill:#ff0000;stroke:#ff0000;" x="353.943641" xlink:href="#mcad4c2693b" y="91.551021"/>
     <use style="fill:#ff0000;stroke:#ff0000;" x="354.800249" xlink:href="#mcad4c2693b" y="91.551021"/>
     <use style="fill:#ff0000;stroke:#ff0000;" x="355.656858" xlink:href="#mcad4c2693b" y="91.551021"/>
     <use style="fill:#ff0000;stroke:#ff0000;" x="356.513466" xlink:href="#mcad4c2693b" y="91.551021"/>
     <use style="fill:#ff0000;stroke:#ff0000;" x="357.370074" xlink:href="#mcad4c2693b" y="91.551021"/>
     <use style="fill:#ff0000;stroke:#ff0000;" x="358.226683" xlink:href="#mcad4c2693b" y="91.551021"/>
     <use style="fill:#ff0000;stroke:#ff0000;" x="359.083291" xlink:href="#mcad4c2693b" y="91.551021"/>
     <use style="fill:#ff0000;stroke:#ff0000;" x="359.939899" xlink:href="#mcad4c2693b" y="91.551021"/>
     <use style="fill:#ff0000;stroke:#ff0000;" x="360.796508" xlink:href="#mcad4c2693b" y="91.551021"/>
     <use style="fill:#ff0000;stroke:#ff0000;" x="361.653116" xlink:href="#mcad4c2693b" y="91.551021"/>
     <use style="fill:#ff0000;stroke:#ff0000;" x="362.509724" xlink:href="#mcad4c2693b" y="91.551021"/>
     <use style="fill:#ff0000;stroke:#ff0000;" x="363.366332" xlink:href="#mcad4c2693b" y="91.551021"/>
     <use style="fill:#ff0000;stroke:#ff0000;" x="364.222941" xlink:href="#mcad4c2693b" y="91.551021"/>
     <use style="fill:#ff0000;stroke:#ff0000;" x="365.079549" xlink:href="#mcad4c2693b" y="91.551021"/>
     <use style="fill:#ff0000;stroke:#ff0000;" x="365.936157" xlink:href="#mcad4c2693b" y="91.551021"/>
     <use style="fill:#ff0000;stroke:#ff0000;" x="366.792766" xlink:href="#mcad4c2693b" y="91.551021"/>
     <use style="fill:#ff0000;stroke:#ff0000;" x="367.649374" xlink:href="#mcad4c2693b" y="91.551021"/>
     <use style="fill:#ff0000;stroke:#ff0000;" x="368.505982" xlink:href="#mcad4c2693b" y="91.551021"/>
     <use style="fill:#ff0000;stroke:#ff0000;" x="369.362591" xlink:href="#mcad4c2693b" y="91.551021"/>
     <use style="fill:#ff0000;stroke:#ff0000;" x="370.219199" xlink:href="#mcad4c2693b" y="91.551021"/>
     <use style="fill:#ff0000;stroke:#ff0000;" x="371.075807" xlink:href="#mcad4c2693b" y="91.551021"/>
     <use style="fill:#ff0000;stroke:#ff0000;" x="371.932415" xlink:href="#mcad4c2693b" y="91.551021"/>
     <use style="fill:#ff0000;stroke:#ff0000;" x="372.789024" xlink:href="#mcad4c2693b" y="91.551021"/>
     <use style="fill:#ff0000;stroke:#ff0000;" x="373.645632" xlink:href="#mcad4c2693b" y="91.551021"/>
     <use style="fill:#ff0000;stroke:#ff0000;" x="374.50224" xlink:href="#mcad4c2693b" y="91.551021"/>
     <use style="fill:#ff0000;stroke:#ff0000;" x="375.358849" xlink:href="#mcad4c2693b" y="91.551021"/>
     <use style="fill:#ff0000;stroke:#ff0000;" x="376.215457" xlink:href="#mcad4c2693b" y="91.551021"/>
     <use style="fill:#ff0000;stroke:#ff0000;" x="377.072065" xlink:href="#mcad4c2693b" y="91.551021"/>
     <use style="fill:#ff0000;stroke:#ff0000;" x="377.928674" xlink:href="#mcad4c2693b" y="91.551021"/>
     <use style="fill:#ff0000;stroke:#ff0000;" x="378.785282" xlink:href="#mcad4c2693b" y="91.551021"/>
     <use style="fill:#ff0000;stroke:#ff0000;" x="379.64189" xlink:href="#mcad4c2693b" y="91.551021"/>
     <use style="fill:#ff0000;stroke:#ff0000;" x="380.498498" xlink:href="#mcad4c2693b" y="91.551021"/>
     <use style="fill:#ff0000;stroke:#ff0000;" x="381.355107" xlink:href="#mcad4c2693b" y="91.551021"/>
     <use style="fill:#ff0000;stroke:#ff0000;" x="382.211715" xlink:href="#mcad4c2693b" y="91.551021"/>
     <use style="fill:#ff0000;stroke:#ff0000;" x="383.068323" xlink:href="#mcad4c2693b" y="91.551021"/>
     <use style="fill:#ff0000;stroke:#ff0000;" x="383.924932" xlink:href="#mcad4c2693b" y="91.551021"/>
     <use style="fill:#ff0000;stroke:#ff0000;" x="384.78154" xlink:href="#mcad4c2693b" y="91.551021"/>
     <use style="fill:#ff0000;stroke:#ff0000;" x="385.638148" xlink:href="#mcad4c2693b" y="91.551021"/>
     <use style="fill:#ff0000;stroke:#ff0000;" x="386.494757" xlink:href="#mcad4c2693b" y="91.551021"/>
     <use style="fill:#ff0000;stroke:#ff0000;" x="387.351365" xlink:href="#mcad4c2693b" y="91.551021"/>
     <use style="fill:#ff0000;stroke:#ff0000;" x="388.207973" xlink:href="#mcad4c2693b" y="91.551021"/>
     <use style="fill:#ff0000;stroke:#ff0000;" x="389.064581" xlink:href="#mcad4c2693b" y="91.551021"/>
     <use style="fill:#ff0000;stroke:#ff0000;" x="389.92119" xlink:href="#mcad4c2693b" y="91.551021"/>
     <use style="fill:#ff0000;stroke:#ff0000;" x="390.777798" xlink:href="#mcad4c2693b" y="91.551021"/>
     <use style="fill:#ff0000;stroke:#ff0000;" x="391.634406" xlink:href="#mcad4c2693b" y="91.551021"/>
     <use style="fill:#ff0000;stroke:#ff0000;" x="392.491015" xlink:href="#mcad4c2693b" y="91.551021"/>
     <use style="fill:#ff0000;stroke:#ff0000;" x="393.347623" xlink:href="#mcad4c2693b" y="91.551021"/>
     <use style="fill:#ff0000;stroke:#ff0000;" x="394.204231" xlink:href="#mcad4c2693b" y="91.551021"/>
     <use style="fill:#ff0000;stroke:#ff0000;" x="395.06084" xlink:href="#mcad4c2693b" y="91.551021"/>
     <use style="fill:#ff0000;stroke:#ff0000;" x="395.917448" xlink:href="#mcad4c2693b" y="91.551021"/>
     <use style="fill:#ff0000;stroke:#ff0000;" x="396.774056" xlink:href="#mcad4c2693b" y="91.551021"/>
     <use style="fill:#ff0000;stroke:#ff0000;" x="397.630664" xlink:href="#mcad4c2693b" y="91.551021"/>
     <use style="fill:#ff0000;stroke:#ff0000;" x="398.487273" xlink:href="#mcad4c2693b" y="91.551021"/>
    </g>
   </g>
   <g id="patch_3">
    <path d="M 57.6 307.584 
L 57.6 41.472 
" style="fill:none;stroke:#000000;stroke-linecap:square;stroke-linejoin:miter;stroke-width:0.8;"/>
   </g>
   <g id="patch_4">
    <path d="M 414.72 307.584 
L 414.72 41.472 
" style="fill:none;stroke:#000000;stroke-linecap:square;stroke-linejoin:miter;stroke-width:0.8;"/>
   </g>
   <g id="patch_5">
    <path d="M 57.6 307.584 
L 414.72 307.584 
" style="fill:none;stroke:#000000;stroke-linecap:square;stroke-linejoin:miter;stroke-width:0.8;"/>
   </g>
   <g id="patch_6">
    <path d="M 57.6 41.472 
L 414.72 41.472 
" style="fill:none;stroke:#000000;stroke-linecap:square;stroke-linejoin:miter;stroke-width:0.8;"/>
   </g>
  </g>
 </g>
 <defs>
  <clipPath id="pd6365bc090">
   <rect height="266.112" width="357.12" x="57.6" y="41.472"/>
  </clipPath>
 </defs>
</svg>
