<?xml version="1.0" encoding="utf-8" standalone="no"?>
<!DOCTYPE svg PUBLIC "-//W3C//DTD SVG 1.1//EN"
  "http://www.w3.org/Graphics/SVG/1.1/DTD/svg11.dtd">
<!-- Created with matplotlib (https://matplotlib.org/) -->
<svg height="345.6pt" version="1.1" viewBox="0 0 460.8 345.6" width="460.8pt" xmlns="http://www.w3.org/2000/svg" xmlns:xlink="http://www.w3.org/1999/xlink">
 <defs>
  <style type="text/css">
*{stroke-linecap:butt;stroke-linejoin:round;}
  </style>
 </defs>
 <g id="figure_1">
  <g id="patch_1">
   <path d="M 0 345.6 
L 460.8 345.6 
L 460.8 0 
L 0 0 
z
" style="fill:#ffffff;"/>
  </g>
  <g id="axes_1">
   <g id="patch_2">
    <path d="M 57.6 307.584 
L 414.72 307.584 
L 414.72 41.472 
L 57.6 41.472 
z
" style="fill:#ffffff;"/>
   </g>
   <g id="line2d_1">
    <path clip-path="url(#p029f53d5d5)" d="M 73.832727 294.272385 
L 85.027712 294.272385 
L 96.222696 294.272385 
L 107.41768 203.392219 
L 118.612665 203.392219 
L 129.807649 203.392219 
L 141.002633 203.392219 
L 152.197618 203.392219 
L 163.392602 295.488 
L 174.587586 295.488 
L 185.782571 294.749268 
L 196.977555 294.749268 
L 208.172539 210.13406 
L 219.367524 210.13406 
L 230.562508 124.026355 
L 241.757492 124.026355 
L 252.952476 124.026355 
L 264.147461 143.645985 
L 275.342445 143.645985 
L 286.537429 143.645985 
L 297.732414 53.920946 
L 308.927398 53.920946 
L 320.122382 147.189937 
L 331.317367 147.189937 
L 342.512351 53.568 
L 353.707335 53.568 
L 364.90232 53.568 
L 376.097304 85.360261 
L 387.292288 85.360261 
L 398.487273 85.360261 
" style="fill:none;stroke:#ff0000;stroke-linecap:square;stroke-width:12;"/>
    <defs>
     <path d="M 0 3 
C 0.795609 3 1.55874 2.683901 2.12132 2.12132 
C 2.683901 1.55874 3 0.795609 3 0 
C 3 -0.795609 2.683901 -1.55874 2.12132 -2.12132 
C 1.55874 -2.683901 0.795609 -3 0 -3 
C -0.795609 -3 -1.55874 -2.683901 -2.12132 -2.12132 
C -2.683901 -1.55874 -3 -0.795609 -3 0 
C -3 0.795609 -2.683901 1.55874 -2.12132 2.12132 
C -1.55874 2.683901 -0.795609 3 0 3 
z
" id="mef2a0cd014" style="stroke:#ff0000;"/>
    </defs>
    <g clip-path="url(#p029f53d5d5)">
     <use style="fill:#ff0000;stroke:#ff0000;" x="73.832727" xlink:href="#mef2a0cd014" y="294.272385"/>
     <use style="fill:#ff0000;stroke:#ff0000;" x="85.027712" xlink:href="#mef2a0cd014" y="294.272385"/>
     <use style="fill:#ff0000;stroke:#ff0000;" x="96.222696" xlink:href="#mef2a0cd014" y="294.272385"/>
     <use style="fill:#ff0000;stroke:#ff0000;" x="107.41768" xlink:href="#mef2a0cd014" y="203.392219"/>
     <use style="fill:#ff0000;stroke:#ff0000;" x="118.612665" xlink:href="#mef2a0cd014" y="203.392219"/>
     <use style="fill:#ff0000;stroke:#ff0000;" x="129.807649" xlink:href="#mef2a0cd014" y="203.392219"/>
     <use style="fill:#ff0000;stroke:#ff0000;" x="141.002633" xlink:href="#mef2a0cd014" y="203.392219"/>
     <use style="fill:#ff0000;stroke:#ff0000;" x="152.197618" xlink:href="#mef2a0cd014" y="203.392219"/>
     <use style="fill:#ff0000;stroke:#ff0000;" x="163.392602" xlink:href="#mef2a0cd014" y="295.488"/>
     <use style="fill:#ff0000;stroke:#ff0000;" x="174.587586" xlink:href="#mef2a0cd014" y="295.488"/>
     <use style="fill:#ff0000;stroke:#ff0000;" x="185.782571" xlink:href="#mef2a0cd014" y="294.749268"/>
     <use style="fill:#ff0000;stroke:#ff0000;" x="196.977555" xlink:href="#mef2a0cd014" y="294.749268"/>
     <use style="fill:#ff0000;stroke:#ff0000;" x="208.172539" xlink:href="#mef2a0cd014" y="210.13406"/>
     <use style="fill:#ff0000;stroke:#ff0000;" x="219.367524" xlink:href="#mef2a0cd014" y="210.13406"/>
     <use style="fill:#ff0000;stroke:#ff0000;" x="230.562508" xlink:href="#mef2a0cd014" y="124.026355"/>
     <use style="fill:#ff0000;stroke:#ff0000;" x="241.757492" xlink:href="#mef2a0cd014" y="124.026355"/>
     <use style="fill:#ff0000;stroke:#ff0000;" x="252.952476" xlink:href="#mef2a0cd014" y="124.026355"/>
     <use style="fill:#ff0000;stroke:#ff0000;" x="264.147461" xlink:href="#mef2a0cd014" y="143.645985"/>
     <use style="fill:#ff0000;stroke:#ff0000;" x="275.342445" xlink:href="#mef2a0cd014" y="143.645985"/>
     <use style="fill:#ff0000;stroke:#ff0000;" x="286.537429" xlink:href="#mef2a0cd014" y="143.645985"/>
     <use style="fill:#ff0000;stroke:#ff0000;" x="297.732414" xlink:href="#mef2a0cd014" y="53.920946"/>
     <use style="fill:#ff0000;stroke:#ff0000;" x="308.927398" xlink:href="#mef2a0cd014" y="53.920946"/>
     <use style="fill:#ff0000;stroke:#ff0000;" x="320.122382" xlink:href="#mef2a0cd014" y="147.189937"/>
     <use style="fill:#ff0000;stroke:#ff0000;" x="331.317367" xlink:href="#mef2a0cd014" y="147.189937"/>
     <use style="fill:#ff0000;stroke:#ff0000;" x="342.512351" xlink:href="#mef2a0cd014" y="53.568"/>
     <use style="fill:#ff0000;stroke:#ff0000;" x="353.707335" xlink:href="#mef2a0cd014" y="53.568"/>
     <use style="fill:#ff0000;stroke:#ff0000;" x="364.90232" xlink:href="#mef2a0cd014" y="53.568"/>
     <use style="fill:#ff0000;stroke:#ff0000;" x="376.097304" xlink:href="#mef2a0cd014" y="85.360261"/>
     <use style="fill:#ff0000;stroke:#ff0000;" x="387.292288" xlink:href="#mef2a0cd014" y="85.360261"/>
     <use style="fill:#ff0000;stroke:#ff0000;" x="398.487273" xlink:href="#mef2a0cd014" y="85.360261"/>
    </g>
   </g>
   <g id="patch_3">
    <path d="M 57.6 307.584 
L 57.6 41.472 
" style="fill:none;stroke:#000000;stroke-linecap:square;stroke-linejoin:miter;stroke-width:0.8;"/>
   </g>
   <g id="patch_4">
    <path d="M 414.72 307.584 
L 414.72 41.472 
" style="fill:none;stroke:#000000;stroke-linecap:square;stroke-linejoin:miter;stroke-width:0.8;"/>
   </g>
   <g id="patch_5">
    <path d="M 57.6 307.584 
L 414.72 307.584 
" style="fill:none;stroke:#000000;stroke-linecap:square;stroke-linejoin:miter;stroke-width:0.8;"/>
   </g>
   <g id="patch_6">
    <path d="M 57.6 41.472 
L 414.72 41.472 
" style="fill:none;stroke:#000000;stroke-linecap:square;stroke-linejoin:miter;stroke-width:0.8;"/>
   </g>
  </g>
 </g>
 <defs>
  <clipPath id="p029f53d5d5">
   <rect height="266.112" width="357.12" x="57.6" y="41.472"/>
  </clipPath>
 </defs>
</svg>
