<?xml version="1.0" encoding="utf-8" standalone="no"?>
<!DOCTYPE svg PUBLIC "-//W3C//DTD SVG 1.1//EN"
  "http://www.w3.org/Graphics/SVG/1.1/DTD/svg11.dtd">
<!-- Created with matplotlib (https://matplotlib.org/) -->
<svg height="345.6pt" version="1.1" viewBox="0 0 460.8 345.6" width="460.8pt" xmlns="http://www.w3.org/2000/svg" xmlns:xlink="http://www.w3.org/1999/xlink">
 <defs>
  <style type="text/css">
*{stroke-linecap:butt;stroke-linejoin:round;}
  </style>
 </defs>
 <g id="figure_1">
  <g id="patch_1">
   <path d="M 0 345.6 
L 460.8 345.6 
L 460.8 0 
L 0 0 
z
" style="fill:#ffffff;"/>
  </g>
  <g id="axes_1">
   <g id="patch_2">
    <path d="M 57.6 307.584 
L 414.72 307.584 
L 414.72 41.472 
L 57.6 41.472 
z
" style="fill:#ffffff;"/>
   </g>
   <g id="line2d_1">
    <path clip-path="url(#pa259cf330d)" d="M 73.832727 294.272385 
L 78.827413 294.272385 
L 83.822098 294.272385 
L 88.816783 203.392219 
L 93.811469 203.392219 
L 98.806154 203.392219 
L 103.800839 203.392219 
L 108.795524 203.392219 
L 113.79021 295.488 
L 118.784895 295.488 
L 123.77958 294.749268 
L 128.774266 294.749268 
L 133.768951 210.13406 
L 138.763636 210.13406 
L 143.758322 124.026355 
L 148.753007 124.026355 
L 153.747692 124.026355 
L 158.742378 143.645985 
L 163.737063 143.645985 
L 168.731748 143.645985 
L 173.726434 53.920946 
L 178.721119 53.920946 
L 183.715804 147.189937 
L 188.71049 147.189937 
L 193.705175 53.568 
L 198.69986 53.568 
L 203.694545 53.568 
L 208.689231 85.360261 
L 213.683916 85.360261 
L 218.678601 56.866284 
L 223.673287 56.866284 
L 228.667972 86.199775 
L 233.662657 86.199775 
L 238.657343 87.050689 
L 243.652028 121.230703 
L 248.646713 121.230703 
L 253.641399 127.524782 
L 258.636084 127.524782 
L 263.630769 99.665385 
L 268.625455 99.665385 
L 273.62014 99.665385 
L 278.614825 131.079899 
L 283.60951 131.079899 
L 288.604196 102.054441 
L 293.598881 102.054441 
L 298.593566 74.021932 
L 303.588252 74.021932 
L 308.582937 81.773782 
L 313.577622 81.773782 
L 318.572308 113.425957 
L 323.566993 113.425957 
L 328.561678 119.051393 
L 333.556364 148.22877 
L 338.551049 148.22877 
L 343.545734 148.22877 
L 348.54042 179.17527 
L 353.535105 179.17527 
L 358.52979 179.17527 
L 363.524476 179.17527 
L 368.519161 152.126344 
L 373.513846 182.756035 
L 378.508531 182.756035 
L 383.503217 154.073132 
L 388.497902 154.073132 
L 393.492587 125.801912 
L 398.487273 125.801912 
" style="fill:none;stroke:#ff0000;stroke-linecap:square;stroke-width:12;"/>
    <defs>
     <path d="M 0 3 
C 0.795609 3 1.55874 2.683901 2.12132 2.12132 
C 2.683901 1.55874 3 0.795609 3 0 
C 3 -0.795609 2.683901 -1.55874 2.12132 -2.12132 
C 1.55874 -2.683901 0.795609 -3 0 -3 
C -0.795609 -3 -1.55874 -2.683901 -2.12132 -2.12132 
C -2.683901 -1.55874 -3 -0.795609 -3 0 
C -3 0.795609 -2.683901 1.55874 -2.12132 2.12132 
C -1.55874 2.683901 -0.795609 3 0 3 
z
" id="m60acadef41" style="stroke:#ff0000;"/>
    </defs>
    <g clip-path="url(#pa259cf330d)">
     <use style="fill:#ff0000;stroke:#ff0000;" x="73.832727" xlink:href="#m60acadef41" y="294.272385"/>
     <use style="fill:#ff0000;stroke:#ff0000;" x="78.827413" xlink:href="#m60acadef41" y="294.272385"/>
     <use style="fill:#ff0000;stroke:#ff0000;" x="83.822098" xlink:href="#m60acadef41" y="294.272385"/>
     <use style="fill:#ff0000;stroke:#ff0000;" x="88.816783" xlink:href="#m60acadef41" y="203.392219"/>
     <use style="fill:#ff0000;stroke:#ff0000;" x="93.811469" xlink:href="#m60acadef41" y="203.392219"/>
     <use style="fill:#ff0000;stroke:#ff0000;" x="98.806154" xlink:href="#m60acadef41" y="203.392219"/>
     <use style="fill:#ff0000;stroke:#ff0000;" x="103.800839" xlink:href="#m60acadef41" y="203.392219"/>
     <use style="fill:#ff0000;stroke:#ff0000;" x="108.795524" xlink:href="#m60acadef41" y="203.392219"/>
     <use style="fill:#ff0000;stroke:#ff0000;" x="113.79021" xlink:href="#m60acadef41" y="295.488"/>
     <use style="fill:#ff0000;stroke:#ff0000;" x="118.784895" xlink:href="#m60acadef41" y="295.488"/>
     <use style="fill:#ff0000;stroke:#ff0000;" x="123.77958" xlink:href="#m60acadef41" y="294.749268"/>
     <use style="fill:#ff0000;stroke:#ff0000;" x="128.774266" xlink:href="#m60acadef41" y="294.749268"/>
     <use style="fill:#ff0000;stroke:#ff0000;" x="133.768951" xlink:href="#m60acadef41" y="210.13406"/>
     <use style="fill:#ff0000;stroke:#ff0000;" x="138.763636" xlink:href="#m60acadef41" y="210.13406"/>
     <use style="fill:#ff0000;stroke:#ff0000;" x="143.758322" xlink:href="#m60acadef41" y="124.026355"/>
     <use style="fill:#ff0000;stroke:#ff0000;" x="148.753007" xlink:href="#m60acadef41" y="124.026355"/>
     <use style="fill:#ff0000;stroke:#ff0000;" x="153.747692" xlink:href="#m60acadef41" y="124.026355"/>
     <use style="fill:#ff0000;stroke:#ff0000;" x="158.742378" xlink:href="#m60acadef41" y="143.645985"/>
     <use style="fill:#ff0000;stroke:#ff0000;" x="163.737063" xlink:href="#m60acadef41" y="143.645985"/>
     <use style="fill:#ff0000;stroke:#ff0000;" x="168.731748" xlink:href="#m60acadef41" y="143.645985"/>
     <use style="fill:#ff0000;stroke:#ff0000;" x="173.726434" xlink:href="#m60acadef41" y="53.920946"/>
     <use style="fill:#ff0000;stroke:#ff0000;" x="178.721119" xlink:href="#m60acadef41" y="53.920946"/>
     <use style="fill:#ff0000;stroke:#ff0000;" x="183.715804" xlink:href="#m60acadef41" y="147.189937"/>
     <use style="fill:#ff0000;stroke:#ff0000;" x="188.71049" xlink:href="#m60acadef41" y="147.189937"/>
     <use style="fill:#ff0000;stroke:#ff0000;" x="193.705175" xlink:href="#m60acadef41" y="53.568"/>
     <use style="fill:#ff0000;stroke:#ff0000;" x="198.69986" xlink:href="#m60acadef41" y="53.568"/>
     <use style="fill:#ff0000;stroke:#ff0000;" x="203.694545" xlink:href="#m60acadef41" y="53.568"/>
     <use style="fill:#ff0000;stroke:#ff0000;" x="208.689231" xlink:href="#m60acadef41" y="85.360261"/>
     <use style="fill:#ff0000;stroke:#ff0000;" x="213.683916" xlink:href="#m60acadef41" y="85.360261"/>
     <use style="fill:#ff0000;stroke:#ff0000;" x="218.678601" xlink:href="#m60acadef41" y="56.866284"/>
     <use style="fill:#ff0000;stroke:#ff0000;" x="223.673287" xlink:href="#m60acadef41" y="56.866284"/>
     <use style="fill:#ff0000;stroke:#ff0000;" x="228.667972" xlink:href="#m60acadef41" y="86.199775"/>
     <use style="fill:#ff0000;stroke:#ff0000;" x="233.662657" xlink:href="#m60acadef41" y="86.199775"/>
     <use style="fill:#ff0000;stroke:#ff0000;" x="238.657343" xlink:href="#m60acadef41" y="87.050689"/>
     <use style="fill:#ff0000;stroke:#ff0000;" x="243.652028" xlink:href="#m60acadef41" y="121.230703"/>
     <use style="fill:#ff0000;stroke:#ff0000;" x="248.646713" xlink:href="#m60acadef41" y="121.230703"/>
     <use style="fill:#ff0000;stroke:#ff0000;" x="253.641399" xlink:href="#m60acadef41" y="127.524782"/>
     <use style="fill:#ff0000;stroke:#ff0000;" x="258.636084" xlink:href="#m60acadef41" y="127.524782"/>
     <use style="fill:#ff0000;stroke:#ff0000;" x="263.630769" xlink:href="#m60acadef41" y="99.665385"/>
     <use style="fill:#ff0000;stroke:#ff0000;" x="268.625455" xlink:href="#m60acadef41" y="99.665385"/>
     <use style="fill:#ff0000;stroke:#ff0000;" x="273.62014" xlink:href="#m60acadef41" y="99.665385"/>
     <use style="fill:#ff0000;stroke:#ff0000;" x="278.614825" xlink:href="#m60acadef41" y="131.079899"/>
     <use style="fill:#ff0000;stroke:#ff0000;" x="283.60951" xlink:href="#m60acadef41" y="131.079899"/>
     <use style="fill:#ff0000;stroke:#ff0000;" x="288.604196" xlink:href="#m60acadef41" y="102.054441"/>
     <use style="fill:#ff0000;stroke:#ff0000;" x="293.598881" xlink:href="#m60acadef41" y="102.054441"/>
     <use style="fill:#ff0000;stroke:#ff0000;" x="298.593566" xlink:href="#m60acadef41" y="74.021932"/>
     <use style="fill:#ff0000;stroke:#ff0000;" x="303.588252" xlink:href="#m60acadef41" y="74.021932"/>
     <use style="fill:#ff0000;stroke:#ff0000;" x="308.582937" xlink:href="#m60acadef41" y="81.773782"/>
     <use style="fill:#ff0000;stroke:#ff0000;" x="313.577622" xlink:href="#m60acadef41" y="81.773782"/>
     <use style="fill:#ff0000;stroke:#ff0000;" x="318.572308" xlink:href="#m60acadef41" y="113.425957"/>
     <use style="fill:#ff0000;stroke:#ff0000;" x="323.566993" xlink:href="#m60acadef41" y="113.425957"/>
     <use style="fill:#ff0000;stroke:#ff0000;" x="328.561678" xlink:href="#m60acadef41" y="119.051393"/>
     <use style="fill:#ff0000;stroke:#ff0000;" x="333.556364" xlink:href="#m60acadef41" y="148.22877"/>
     <use style="fill:#ff0000;stroke:#ff0000;" x="338.551049" xlink:href="#m60acadef41" y="148.22877"/>
     <use style="fill:#ff0000;stroke:#ff0000;" x="343.545734" xlink:href="#m60acadef41" y="148.22877"/>
     <use style="fill:#ff0000;stroke:#ff0000;" x="348.54042" xlink:href="#m60acadef41" y="179.17527"/>
     <use style="fill:#ff0000;stroke:#ff0000;" x="353.535105" xlink:href="#m60acadef41" y="179.17527"/>
     <use style="fill:#ff0000;stroke:#ff0000;" x="358.52979" xlink:href="#m60acadef41" y="179.17527"/>
     <use style="fill:#ff0000;stroke:#ff0000;" x="363.524476" xlink:href="#m60acadef41" y="179.17527"/>
     <use style="fill:#ff0000;stroke:#ff0000;" x="368.519161" xlink:href="#m60acadef41" y="152.126344"/>
     <use style="fill:#ff0000;stroke:#ff0000;" x="373.513846" xlink:href="#m60acadef41" y="182.756035"/>
     <use style="fill:#ff0000;stroke:#ff0000;" x="378.508531" xlink:href="#m60acadef41" y="182.756035"/>
     <use style="fill:#ff0000;stroke:#ff0000;" x="383.503217" xlink:href="#m60acadef41" y="154.073132"/>
     <use style="fill:#ff0000;stroke:#ff0000;" x="388.497902" xlink:href="#m60acadef41" y="154.073132"/>
     <use style="fill:#ff0000;stroke:#ff0000;" x="393.492587" xlink:href="#m60acadef41" y="125.801912"/>
     <use style="fill:#ff0000;stroke:#ff0000;" x="398.487273" xlink:href="#m60acadef41" y="125.801912"/>
    </g>
   </g>
   <g id="patch_3">
    <path d="M 57.6 307.584 
L 57.6 41.472 
" style="fill:none;stroke:#000000;stroke-linecap:square;stroke-linejoin:miter;stroke-width:0.8;"/>
   </g>
   <g id="patch_4">
    <path d="M 414.72 307.584 
L 414.72 41.472 
" style="fill:none;stroke:#000000;stroke-linecap:square;stroke-linejoin:miter;stroke-width:0.8;"/>
   </g>
   <g id="patch_5">
    <path d="M 57.6 307.584 
L 414.72 307.584 
" style="fill:none;stroke:#000000;stroke-linecap:square;stroke-linejoin:miter;stroke-width:0.8;"/>
   </g>
   <g id="patch_6">
    <path d="M 57.6 41.472 
L 414.72 41.472 
" style="fill:none;stroke:#000000;stroke-linecap:square;stroke-linejoin:miter;stroke-width:0.8;"/>
   </g>
  </g>
 </g>
 <defs>
  <clipPath id="pa259cf330d">
   <rect height="266.112" width="357.12" x="57.6" y="41.472"/>
  </clipPath>
 </defs>
</svg>
