<?xml version="1.0" encoding="utf-8" standalone="no"?>
<!DOCTYPE svg PUBLIC "-//W3C//DTD SVG 1.1//EN"
  "http://www.w3.org/Graphics/SVG/1.1/DTD/svg11.dtd">
<!-- Created with matplotlib (https://matplotlib.org/) -->
<svg height="345.6pt" version="1.1" viewBox="0 0 460.8 345.6" width="460.8pt" xmlns="http://www.w3.org/2000/svg" xmlns:xlink="http://www.w3.org/1999/xlink">
 <defs>
  <style type="text/css">
*{stroke-linecap:butt;stroke-linejoin:round;}
  </style>
 </defs>
 <g id="figure_1">
  <g id="patch_1">
   <path d="M 0 345.6 
L 460.8 345.6 
L 460.8 0 
L 0 0 
z
" style="fill:#ffffff;"/>
  </g>
  <g id="axes_1">
   <g id="patch_2">
    <path d="M 57.6 307.584 
L 414.72 307.584 
L 414.72 41.472 
L 57.6 41.472 
z
" style="fill:#ffffff;"/>
   </g>
   <g id="line2d_1">
    <path clip-path="url(#pceba9612f0)" d="M 73.832727 294.272385 
L 81.949091 294.272385 
L 90.065455 294.272385 
L 98.181818 203.392219 
L 106.298182 203.392219 
L 114.414545 203.392219 
L 122.530909 203.392219 
L 130.647273 203.392219 
L 138.763636 295.488 
L 146.88 295.488 
L 154.996364 294.749268 
L 163.112727 294.749268 
L 171.229091 210.13406 
L 179.345455 210.13406 
L 187.461818 124.026355 
L 195.578182 124.026355 
L 203.694545 124.026355 
L 211.810909 143.645985 
L 219.927273 143.645985 
L 228.043636 143.645985 
L 236.16 53.920946 
L 244.276364 53.920946 
L 252.392727 147.189937 
L 260.509091 147.189937 
L 268.625455 53.568 
L 276.741818 53.568 
L 284.858182 53.568 
L 292.974545 85.360261 
L 301.090909 85.360261 
L 309.207273 56.866284 
L 317.323636 56.866284 
L 325.44 86.199775 
L 333.556364 86.199775 
L 341.672727 87.050689 
L 349.789091 121.230703 
L 357.905455 121.230703 
L 366.021818 127.524782 
L 374.138182 127.524782 
L 382.254545 99.665385 
L 390.370909 99.665385 
L 398.487273 99.665385 
" style="fill:none;stroke:#ff0000;stroke-linecap:square;stroke-width:12;"/>
    <defs>
     <path d="M 0 3 
C 0.795609 3 1.55874 2.683901 2.12132 2.12132 
C 2.683901 1.55874 3 0.795609 3 0 
C 3 -0.795609 2.683901 -1.55874 2.12132 -2.12132 
C 1.55874 -2.683901 0.795609 -3 0 -3 
C -0.795609 -3 -1.55874 -2.683901 -2.12132 -2.12132 
C -2.683901 -1.55874 -3 -0.795609 -3 0 
C -3 0.795609 -2.683901 1.55874 -2.12132 2.12132 
C -1.55874 2.683901 -0.795609 3 0 3 
z
" id="m7a2e1ac775" style="stroke:#ff0000;"/>
    </defs>
    <g clip-path="url(#pceba9612f0)">
     <use style="fill:#ff0000;stroke:#ff0000;" x="73.832727" xlink:href="#m7a2e1ac775" y="294.272385"/>
     <use style="fill:#ff0000;stroke:#ff0000;" x="81.949091" xlink:href="#m7a2e1ac775" y="294.272385"/>
     <use style="fill:#ff0000;stroke:#ff0000;" x="90.065455" xlink:href="#m7a2e1ac775" y="294.272385"/>
     <use style="fill:#ff0000;stroke:#ff0000;" x="98.181818" xlink:href="#m7a2e1ac775" y="203.392219"/>
     <use style="fill:#ff0000;stroke:#ff0000;" x="106.298182" xlink:href="#m7a2e1ac775" y="203.392219"/>
     <use style="fill:#ff0000;stroke:#ff0000;" x="114.414545" xlink:href="#m7a2e1ac775" y="203.392219"/>
     <use style="fill:#ff0000;stroke:#ff0000;" x="122.530909" xlink:href="#m7a2e1ac775" y="203.392219"/>
     <use style="fill:#ff0000;stroke:#ff0000;" x="130.647273" xlink:href="#m7a2e1ac775" y="203.392219"/>
     <use style="fill:#ff0000;stroke:#ff0000;" x="138.763636" xlink:href="#m7a2e1ac775" y="295.488"/>
     <use style="fill:#ff0000;stroke:#ff0000;" x="146.88" xlink:href="#m7a2e1ac775" y="295.488"/>
     <use style="fill:#ff0000;stroke:#ff0000;" x="154.996364" xlink:href="#m7a2e1ac775" y="294.749268"/>
     <use style="fill:#ff0000;stroke:#ff0000;" x="163.112727" xlink:href="#m7a2e1ac775" y="294.749268"/>
     <use style="fill:#ff0000;stroke:#ff0000;" x="171.229091" xlink:href="#m7a2e1ac775" y="210.13406"/>
     <use style="fill:#ff0000;stroke:#ff0000;" x="179.345455" xlink:href="#m7a2e1ac775" y="210.13406"/>
     <use style="fill:#ff0000;stroke:#ff0000;" x="187.461818" xlink:href="#m7a2e1ac775" y="124.026355"/>
     <use style="fill:#ff0000;stroke:#ff0000;" x="195.578182" xlink:href="#m7a2e1ac775" y="124.026355"/>
     <use style="fill:#ff0000;stroke:#ff0000;" x="203.694545" xlink:href="#m7a2e1ac775" y="124.026355"/>
     <use style="fill:#ff0000;stroke:#ff0000;" x="211.810909" xlink:href="#m7a2e1ac775" y="143.645985"/>
     <use style="fill:#ff0000;stroke:#ff0000;" x="219.927273" xlink:href="#m7a2e1ac775" y="143.645985"/>
     <use style="fill:#ff0000;stroke:#ff0000;" x="228.043636" xlink:href="#m7a2e1ac775" y="143.645985"/>
     <use style="fill:#ff0000;stroke:#ff0000;" x="236.16" xlink:href="#m7a2e1ac775" y="53.920946"/>
     <use style="fill:#ff0000;stroke:#ff0000;" x="244.276364" xlink:href="#m7a2e1ac775" y="53.920946"/>
     <use style="fill:#ff0000;stroke:#ff0000;" x="252.392727" xlink:href="#m7a2e1ac775" y="147.189937"/>
     <use style="fill:#ff0000;stroke:#ff0000;" x="260.509091" xlink:href="#m7a2e1ac775" y="147.189937"/>
     <use style="fill:#ff0000;stroke:#ff0000;" x="268.625455" xlink:href="#m7a2e1ac775" y="53.568"/>
     <use style="fill:#ff0000;stroke:#ff0000;" x="276.741818" xlink:href="#m7a2e1ac775" y="53.568"/>
     <use style="fill:#ff0000;stroke:#ff0000;" x="284.858182" xlink:href="#m7a2e1ac775" y="53.568"/>
     <use style="fill:#ff0000;stroke:#ff0000;" x="292.974545" xlink:href="#m7a2e1ac775" y="85.360261"/>
     <use style="fill:#ff0000;stroke:#ff0000;" x="301.090909" xlink:href="#m7a2e1ac775" y="85.360261"/>
     <use style="fill:#ff0000;stroke:#ff0000;" x="309.207273" xlink:href="#m7a2e1ac775" y="56.866284"/>
     <use style="fill:#ff0000;stroke:#ff0000;" x="317.323636" xlink:href="#m7a2e1ac775" y="56.866284"/>
     <use style="fill:#ff0000;stroke:#ff0000;" x="325.44" xlink:href="#m7a2e1ac775" y="86.199775"/>
     <use style="fill:#ff0000;stroke:#ff0000;" x="333.556364" xlink:href="#m7a2e1ac775" y="86.199775"/>
     <use style="fill:#ff0000;stroke:#ff0000;" x="341.672727" xlink:href="#m7a2e1ac775" y="87.050689"/>
     <use style="fill:#ff0000;stroke:#ff0000;" x="349.789091" xlink:href="#m7a2e1ac775" y="121.230703"/>
     <use style="fill:#ff0000;stroke:#ff0000;" x="357.905455" xlink:href="#m7a2e1ac775" y="121.230703"/>
     <use style="fill:#ff0000;stroke:#ff0000;" x="366.021818" xlink:href="#m7a2e1ac775" y="127.524782"/>
     <use style="fill:#ff0000;stroke:#ff0000;" x="374.138182" xlink:href="#m7a2e1ac775" y="127.524782"/>
     <use style="fill:#ff0000;stroke:#ff0000;" x="382.254545" xlink:href="#m7a2e1ac775" y="99.665385"/>
     <use style="fill:#ff0000;stroke:#ff0000;" x="390.370909" xlink:href="#m7a2e1ac775" y="99.665385"/>
     <use style="fill:#ff0000;stroke:#ff0000;" x="398.487273" xlink:href="#m7a2e1ac775" y="99.665385"/>
    </g>
   </g>
   <g id="patch_3">
    <path d="M 57.6 307.584 
L 57.6 41.472 
" style="fill:none;stroke:#000000;stroke-linecap:square;stroke-linejoin:miter;stroke-width:0.8;"/>
   </g>
   <g id="patch_4">
    <path d="M 414.72 307.584 
L 414.72 41.472 
" style="fill:none;stroke:#000000;stroke-linecap:square;stroke-linejoin:miter;stroke-width:0.8;"/>
   </g>
   <g id="patch_5">
    <path d="M 57.6 307.584 
L 414.72 307.584 
" style="fill:none;stroke:#000000;stroke-linecap:square;stroke-linejoin:miter;stroke-width:0.8;"/>
   </g>
   <g id="patch_6">
    <path d="M 57.6 41.472 
L 414.72 41.472 
" style="fill:none;stroke:#000000;stroke-linecap:square;stroke-linejoin:miter;stroke-width:0.8;"/>
   </g>
  </g>
 </g>
 <defs>
  <clipPath id="pceba9612f0">
   <rect height="266.112" width="357.12" x="57.6" y="41.472"/>
  </clipPath>
 </defs>
</svg>
