<?xml version="1.0" encoding="utf-8" standalone="no"?>
<!DOCTYPE svg PUBLIC "-//W3C//DTD SVG 1.1//EN"
  "http://www.w3.org/Graphics/SVG/1.1/DTD/svg11.dtd">
<!-- Created with matplotlib (https://matplotlib.org/) -->
<svg height="345.6pt" version="1.1" viewBox="0 0 460.8 345.6" width="460.8pt" xmlns="http://www.w3.org/2000/svg" xmlns:xlink="http://www.w3.org/1999/xlink">
 <defs>
  <style type="text/css">
*{stroke-linecap:butt;stroke-linejoin:round;}
  </style>
 </defs>
 <g id="figure_1">
  <g id="patch_1">
   <path d="M 0 345.6 
L 460.8 345.6 
L 460.8 0 
L 0 0 
z
" style="fill:#ffffff;"/>
  </g>
  <g id="axes_1">
   <g id="patch_2">
    <path d="M 57.6 307.584 
L 414.72 307.584 
L 414.72 41.472 
L 57.6 41.472 
z
" style="fill:#ffffff;"/>
   </g>
   <g id="line2d_1">
    <path clip-path="url(#p5175000c37)" d="M 73.832727 86.339119 
L 75.342748 92.40083 
L 76.85277 92.40083 
L 78.362791 61.830574 
L 79.872812 61.830574 
L 81.382833 92.65402 
L 82.892854 92.65402 
L 84.402875 123.505571 
L 87.422918 123.505571 
L 88.932939 91.882157 
L 90.44296 91.882157 
L 91.952981 60.170697 
L 97.993066 60.170697 
L 99.503087 53.568 
L 102.523129 53.568 
L 104.03315 83.691916 
L 107.053192 83.691916 
L 108.563214 111.801123 
L 110.073235 111.801123 
L 111.583256 118.308957 
L 113.093277 118.308957 
L 114.603298 128.26362 
L 116.113319 128.26362 
L 117.62334 117.491088 
L 119.133362 117.491088 
L 120.643383 127.078756 
L 122.153404 127.977377 
L 123.663425 127.977377 
L 125.173446 117.489387 
L 126.683467 117.489387 
L 128.193488 127.8106 
L 129.70351 127.8106 
L 131.213531 116.440764 
L 132.723552 127.124552 
L 137.253615 127.124552 
L 138.763636 117.80711 
L 140.273658 117.80711 
L 141.783679 107.331495 
L 143.2937 107.331495 
L 144.803721 118.069224 
L 146.313742 118.069224 
L 147.823763 127.411861 
L 149.333784 127.411861 
L 150.843805 137.2593 
L 153.863848 137.2593 
L 155.373869 147.768937 
L 156.88389 137.807393 
L 158.393911 137.807393 
L 159.903932 128.031864 
L 161.413953 128.031864 
L 162.923975 117.457811 
L 165.944017 117.457811 
L 167.454038 127.110618 
L 168.964059 127.110618 
L 170.47408 136.624879 
L 171.984101 136.624879 
L 173.494123 133.969402 
L 175.004144 135.153231 
L 176.514165 135.153231 
L 178.024186 143.888581 
L 181.044228 143.888581 
L 182.554249 134.490214 
L 184.064271 143.821922 
L 185.574292 143.821922 
L 187.084313 140.316859 
L 191.614376 140.316859 
L 193.124397 150.390823 
L 194.634419 159.714272 
L 202.184524 159.714272 
L 205.204567 178.24463 
L 206.714588 178.24463 
L 208.224609 187.346814 
L 209.73463 187.346814 
L 211.244651 188.969853 
L 214.264693 188.969853 
L 217.284736 207.454141 
L 220.304778 207.454141 
L 221.814799 204.971699 
L 223.32482 195.2946 
L 224.834841 195.2946 
L 226.344863 203.802522 
L 230.874926 203.802522 
L 232.384947 192.43654 
L 233.894968 192.43654 
L 235.404989 181.502584 
L 236.915011 191.194832 
L 239.935053 191.194832 
L 241.445074 200.888822 
L 255.035264 200.888822 
L 256.545285 209.628707 
L 258.055307 220.253561 
L 262.58537 220.253561 
L 264.095391 228.574243 
L 265.605412 218.20021 
L 267.115433 218.20021 
L 268.625455 206.417619 
L 271.645497 206.417619 
L 273.155518 215.45782 
L 274.665539 215.45782 
L 276.17556 226.066613 
L 277.685581 226.066613 
L 279.195603 222.344243 
L 280.705624 222.344243 
L 282.215645 231.888699 
L 285.235687 231.888699 
L 286.745708 241.563608 
L 288.255729 250.333742 
L 289.765751 250.333742 
L 291.275772 258.283726 
L 292.785793 258.283726 
L 294.295814 266.881928 
L 295.805835 266.881928 
L 297.315856 276.391291 
L 298.825877 276.391291 
L 300.335899 283.377856 
L 301.84592 272.624994 
L 303.355941 272.624994 
L 304.865962 270.773312 
L 306.375983 270.773312 
L 307.886004 279.050248 
L 309.396025 279.050248 
L 310.906047 286.586056 
L 312.416068 286.586056 
L 313.926089 295.488 
L 316.946131 295.488 
L 318.456152 283.659561 
L 319.966173 283.659561 
L 321.476195 271.190808 
L 326.006258 271.190808 
L 327.516279 280.718869 
L 329.0263 288.413478 
L 330.536321 288.413478 
L 332.046342 285.517575 
L 335.066385 285.517575 
L 336.576406 274.874237 
L 338.086427 274.874237 
L 339.596448 284.47544 
L 341.106469 284.47544 
L 342.61649 272.076787 
L 344.126512 272.076787 
L 345.636533 278.847091 
L 347.146554 278.847091 
L 348.656575 268.482739 
L 350.166596 278.44761 
L 351.676617 278.44761 
L 353.186638 286.823039 
L 398.487273 286.823039 
L 398.487273 286.823039 
" style="fill:none;stroke:#ff0000;stroke-linecap:square;stroke-width:12;"/>
    <defs>
     <path d="M 0 3 
C 0.795609 3 1.55874 2.683901 2.12132 2.12132 
C 2.683901 1.55874 3 0.795609 3 0 
C 3 -0.795609 2.683901 -1.55874 2.12132 -2.12132 
C 1.55874 -2.683901 0.795609 -3 0 -3 
C -0.795609 -3 -1.55874 -2.683901 -2.12132 -2.12132 
C -2.683901 -1.55874 -3 -0.795609 -3 0 
C -3 0.795609 -2.683901 1.55874 -2.12132 2.12132 
C -1.55874 2.683901 -0.795609 3 0 3 
z
" id="m210c81e040" style="stroke:#ff0000;"/>
    </defs>
    <g clip-path="url(#p5175000c37)">
     <use style="fill:#ff0000;stroke:#ff0000;" x="73.832727" xlink:href="#m210c81e040" y="86.339119"/>
     <use style="fill:#ff0000;stroke:#ff0000;" x="75.342748" xlink:href="#m210c81e040" y="92.40083"/>
     <use style="fill:#ff0000;stroke:#ff0000;" x="76.85277" xlink:href="#m210c81e040" y="92.40083"/>
     <use style="fill:#ff0000;stroke:#ff0000;" x="78.362791" xlink:href="#m210c81e040" y="61.830574"/>
     <use style="fill:#ff0000;stroke:#ff0000;" x="79.872812" xlink:href="#m210c81e040" y="61.830574"/>
     <use style="fill:#ff0000;stroke:#ff0000;" x="81.382833" xlink:href="#m210c81e040" y="92.65402"/>
     <use style="fill:#ff0000;stroke:#ff0000;" x="82.892854" xlink:href="#m210c81e040" y="92.65402"/>
     <use style="fill:#ff0000;stroke:#ff0000;" x="84.402875" xlink:href="#m210c81e040" y="123.505571"/>
     <use style="fill:#ff0000;stroke:#ff0000;" x="85.912896" xlink:href="#m210c81e040" y="123.505571"/>
     <use style="fill:#ff0000;stroke:#ff0000;" x="87.422918" xlink:href="#m210c81e040" y="123.505571"/>
     <use style="fill:#ff0000;stroke:#ff0000;" x="88.932939" xlink:href="#m210c81e040" y="91.882157"/>
     <use style="fill:#ff0000;stroke:#ff0000;" x="90.44296" xlink:href="#m210c81e040" y="91.882157"/>
     <use style="fill:#ff0000;stroke:#ff0000;" x="91.952981" xlink:href="#m210c81e040" y="60.170697"/>
     <use style="fill:#ff0000;stroke:#ff0000;" x="93.463002" xlink:href="#m210c81e040" y="60.170697"/>
     <use style="fill:#ff0000;stroke:#ff0000;" x="94.973023" xlink:href="#m210c81e040" y="60.170697"/>
     <use style="fill:#ff0000;stroke:#ff0000;" x="96.483044" xlink:href="#m210c81e040" y="60.170697"/>
     <use style="fill:#ff0000;stroke:#ff0000;" x="97.993066" xlink:href="#m210c81e040" y="60.170697"/>
     <use style="fill:#ff0000;stroke:#ff0000;" x="99.503087" xlink:href="#m210c81e040" y="53.568"/>
     <use style="fill:#ff0000;stroke:#ff0000;" x="101.013108" xlink:href="#m210c81e040" y="53.568"/>
     <use style="fill:#ff0000;stroke:#ff0000;" x="102.523129" xlink:href="#m210c81e040" y="53.568"/>
     <use style="fill:#ff0000;stroke:#ff0000;" x="104.03315" xlink:href="#m210c81e040" y="83.691916"/>
     <use style="fill:#ff0000;stroke:#ff0000;" x="105.543171" xlink:href="#m210c81e040" y="83.691916"/>
     <use style="fill:#ff0000;stroke:#ff0000;" x="107.053192" xlink:href="#m210c81e040" y="83.691916"/>
     <use style="fill:#ff0000;stroke:#ff0000;" x="108.563214" xlink:href="#m210c81e040" y="111.801123"/>
     <use style="fill:#ff0000;stroke:#ff0000;" x="110.073235" xlink:href="#m210c81e040" y="111.801123"/>
     <use style="fill:#ff0000;stroke:#ff0000;" x="111.583256" xlink:href="#m210c81e040" y="118.308957"/>
     <use style="fill:#ff0000;stroke:#ff0000;" x="113.093277" xlink:href="#m210c81e040" y="118.308957"/>
     <use style="fill:#ff0000;stroke:#ff0000;" x="114.603298" xlink:href="#m210c81e040" y="128.26362"/>
     <use style="fill:#ff0000;stroke:#ff0000;" x="116.113319" xlink:href="#m210c81e040" y="128.26362"/>
     <use style="fill:#ff0000;stroke:#ff0000;" x="117.62334" xlink:href="#m210c81e040" y="117.491088"/>
     <use style="fill:#ff0000;stroke:#ff0000;" x="119.133362" xlink:href="#m210c81e040" y="117.491088"/>
     <use style="fill:#ff0000;stroke:#ff0000;" x="120.643383" xlink:href="#m210c81e040" y="127.078756"/>
     <use style="fill:#ff0000;stroke:#ff0000;" x="122.153404" xlink:href="#m210c81e040" y="127.977377"/>
     <use style="fill:#ff0000;stroke:#ff0000;" x="123.663425" xlink:href="#m210c81e040" y="127.977377"/>
     <use style="fill:#ff0000;stroke:#ff0000;" x="125.173446" xlink:href="#m210c81e040" y="117.489387"/>
     <use style="fill:#ff0000;stroke:#ff0000;" x="126.683467" xlink:href="#m210c81e040" y="117.489387"/>
     <use style="fill:#ff0000;stroke:#ff0000;" x="128.193488" xlink:href="#m210c81e040" y="127.8106"/>
     <use style="fill:#ff0000;stroke:#ff0000;" x="129.70351" xlink:href="#m210c81e040" y="127.8106"/>
     <use style="fill:#ff0000;stroke:#ff0000;" x="131.213531" xlink:href="#m210c81e040" y="116.440764"/>
     <use style="fill:#ff0000;stroke:#ff0000;" x="132.723552" xlink:href="#m210c81e040" y="127.124552"/>
     <use style="fill:#ff0000;stroke:#ff0000;" x="134.233573" xlink:href="#m210c81e040" y="127.124552"/>
     <use style="fill:#ff0000;stroke:#ff0000;" x="135.743594" xlink:href="#m210c81e040" y="127.124552"/>
     <use style="fill:#ff0000;stroke:#ff0000;" x="137.253615" xlink:href="#m210c81e040" y="127.124552"/>
     <use style="fill:#ff0000;stroke:#ff0000;" x="138.763636" xlink:href="#m210c81e040" y="117.80711"/>
     <use style="fill:#ff0000;stroke:#ff0000;" x="140.273658" xlink:href="#m210c81e040" y="117.80711"/>
     <use style="fill:#ff0000;stroke:#ff0000;" x="141.783679" xlink:href="#m210c81e040" y="107.331495"/>
     <use style="fill:#ff0000;stroke:#ff0000;" x="143.2937" xlink:href="#m210c81e040" y="107.331495"/>
     <use style="fill:#ff0000;stroke:#ff0000;" x="144.803721" xlink:href="#m210c81e040" y="118.069224"/>
     <use style="fill:#ff0000;stroke:#ff0000;" x="146.313742" xlink:href="#m210c81e040" y="118.069224"/>
     <use style="fill:#ff0000;stroke:#ff0000;" x="147.823763" xlink:href="#m210c81e040" y="127.411861"/>
     <use style="fill:#ff0000;stroke:#ff0000;" x="149.333784" xlink:href="#m210c81e040" y="127.411861"/>
     <use style="fill:#ff0000;stroke:#ff0000;" x="150.843805" xlink:href="#m210c81e040" y="137.2593"/>
     <use style="fill:#ff0000;stroke:#ff0000;" x="152.353827" xlink:href="#m210c81e040" y="137.2593"/>
     <use style="fill:#ff0000;stroke:#ff0000;" x="153.863848" xlink:href="#m210c81e040" y="137.2593"/>
     <use style="fill:#ff0000;stroke:#ff0000;" x="155.373869" xlink:href="#m210c81e040" y="147.768937"/>
     <use style="fill:#ff0000;stroke:#ff0000;" x="156.88389" xlink:href="#m210c81e040" y="137.807393"/>
     <use style="fill:#ff0000;stroke:#ff0000;" x="158.393911" xlink:href="#m210c81e040" y="137.807393"/>
     <use style="fill:#ff0000;stroke:#ff0000;" x="159.903932" xlink:href="#m210c81e040" y="128.031864"/>
     <use style="fill:#ff0000;stroke:#ff0000;" x="161.413953" xlink:href="#m210c81e040" y="128.031864"/>
     <use style="fill:#ff0000;stroke:#ff0000;" x="162.923975" xlink:href="#m210c81e040" y="117.457811"/>
     <use style="fill:#ff0000;stroke:#ff0000;" x="164.433996" xlink:href="#m210c81e040" y="117.457811"/>
     <use style="fill:#ff0000;stroke:#ff0000;" x="165.944017" xlink:href="#m210c81e040" y="117.457811"/>
     <use style="fill:#ff0000;stroke:#ff0000;" x="167.454038" xlink:href="#m210c81e040" y="127.110618"/>
     <use style="fill:#ff0000;stroke:#ff0000;" x="168.964059" xlink:href="#m210c81e040" y="127.110618"/>
     <use style="fill:#ff0000;stroke:#ff0000;" x="170.47408" xlink:href="#m210c81e040" y="136.624879"/>
     <use style="fill:#ff0000;stroke:#ff0000;" x="171.984101" xlink:href="#m210c81e040" y="136.624879"/>
     <use style="fill:#ff0000;stroke:#ff0000;" x="173.494123" xlink:href="#m210c81e040" y="133.969402"/>
     <use style="fill:#ff0000;stroke:#ff0000;" x="175.004144" xlink:href="#m210c81e040" y="135.153231"/>
     <use style="fill:#ff0000;stroke:#ff0000;" x="176.514165" xlink:href="#m210c81e040" y="135.153231"/>
     <use style="fill:#ff0000;stroke:#ff0000;" x="178.024186" xlink:href="#m210c81e040" y="143.888581"/>
     <use style="fill:#ff0000;stroke:#ff0000;" x="179.534207" xlink:href="#m210c81e040" y="143.888581"/>
     <use style="fill:#ff0000;stroke:#ff0000;" x="181.044228" xlink:href="#m210c81e040" y="143.888581"/>
     <use style="fill:#ff0000;stroke:#ff0000;" x="182.554249" xlink:href="#m210c81e040" y="134.490214"/>
     <use style="fill:#ff0000;stroke:#ff0000;" x="184.064271" xlink:href="#m210c81e040" y="143.821922"/>
     <use style="fill:#ff0000;stroke:#ff0000;" x="185.574292" xlink:href="#m210c81e040" y="143.821922"/>
     <use style="fill:#ff0000;stroke:#ff0000;" x="187.084313" xlink:href="#m210c81e040" y="140.316859"/>
     <use style="fill:#ff0000;stroke:#ff0000;" x="188.594334" xlink:href="#m210c81e040" y="140.316859"/>
     <use style="fill:#ff0000;stroke:#ff0000;" x="190.104355" xlink:href="#m210c81e040" y="140.316859"/>
     <use style="fill:#ff0000;stroke:#ff0000;" x="191.614376" xlink:href="#m210c81e040" y="140.316859"/>
     <use style="fill:#ff0000;stroke:#ff0000;" x="193.124397" xlink:href="#m210c81e040" y="150.390823"/>
     <use style="fill:#ff0000;stroke:#ff0000;" x="194.634419" xlink:href="#m210c81e040" y="159.714272"/>
     <use style="fill:#ff0000;stroke:#ff0000;" x="196.14444" xlink:href="#m210c81e040" y="159.714272"/>
     <use style="fill:#ff0000;stroke:#ff0000;" x="197.654461" xlink:href="#m210c81e040" y="159.714272"/>
     <use style="fill:#ff0000;stroke:#ff0000;" x="199.164482" xlink:href="#m210c81e040" y="159.714272"/>
     <use style="fill:#ff0000;stroke:#ff0000;" x="200.674503" xlink:href="#m210c81e040" y="159.714272"/>
     <use style="fill:#ff0000;stroke:#ff0000;" x="202.184524" xlink:href="#m210c81e040" y="159.714272"/>
     <use style="fill:#ff0000;stroke:#ff0000;" x="203.694545" xlink:href="#m210c81e040" y="169.190095"/>
     <use style="fill:#ff0000;stroke:#ff0000;" x="205.204567" xlink:href="#m210c81e040" y="178.24463"/>
     <use style="fill:#ff0000;stroke:#ff0000;" x="206.714588" xlink:href="#m210c81e040" y="178.24463"/>
     <use style="fill:#ff0000;stroke:#ff0000;" x="208.224609" xlink:href="#m210c81e040" y="187.346814"/>
     <use style="fill:#ff0000;stroke:#ff0000;" x="209.73463" xlink:href="#m210c81e040" y="187.346814"/>
     <use style="fill:#ff0000;stroke:#ff0000;" x="211.244651" xlink:href="#m210c81e040" y="188.969853"/>
     <use style="fill:#ff0000;stroke:#ff0000;" x="212.754672" xlink:href="#m210c81e040" y="188.969853"/>
     <use style="fill:#ff0000;stroke:#ff0000;" x="214.264693" xlink:href="#m210c81e040" y="188.969853"/>
     <use style="fill:#ff0000;stroke:#ff0000;" x="215.774715" xlink:href="#m210c81e040" y="198.070851"/>
     <use style="fill:#ff0000;stroke:#ff0000;" x="217.284736" xlink:href="#m210c81e040" y="207.454141"/>
     <use style="fill:#ff0000;stroke:#ff0000;" x="218.794757" xlink:href="#m210c81e040" y="207.454141"/>
     <use style="fill:#ff0000;stroke:#ff0000;" x="220.304778" xlink:href="#m210c81e040" y="207.454141"/>
     <use style="fill:#ff0000;stroke:#ff0000;" x="221.814799" xlink:href="#m210c81e040" y="204.971699"/>
     <use style="fill:#ff0000;stroke:#ff0000;" x="223.32482" xlink:href="#m210c81e040" y="195.2946"/>
     <use style="fill:#ff0000;stroke:#ff0000;" x="224.834841" xlink:href="#m210c81e040" y="195.2946"/>
     <use style="fill:#ff0000;stroke:#ff0000;" x="226.344863" xlink:href="#m210c81e040" y="203.802522"/>
     <use style="fill:#ff0000;stroke:#ff0000;" x="227.854884" xlink:href="#m210c81e040" y="203.802522"/>
     <use style="fill:#ff0000;stroke:#ff0000;" x="229.364905" xlink:href="#m210c81e040" y="203.802522"/>
     <use style="fill:#ff0000;stroke:#ff0000;" x="230.874926" xlink:href="#m210c81e040" y="203.802522"/>
     <use style="fill:#ff0000;stroke:#ff0000;" x="232.384947" xlink:href="#m210c81e040" y="192.43654"/>
     <use style="fill:#ff0000;stroke:#ff0000;" x="233.894968" xlink:href="#m210c81e040" y="192.43654"/>
     <use style="fill:#ff0000;stroke:#ff0000;" x="235.404989" xlink:href="#m210c81e040" y="181.502584"/>
     <use style="fill:#ff0000;stroke:#ff0000;" x="236.915011" xlink:href="#m210c81e040" y="191.194832"/>
     <use style="fill:#ff0000;stroke:#ff0000;" x="238.425032" xlink:href="#m210c81e040" y="191.194832"/>
     <use style="fill:#ff0000;stroke:#ff0000;" x="239.935053" xlink:href="#m210c81e040" y="191.194832"/>
     <use style="fill:#ff0000;stroke:#ff0000;" x="241.445074" xlink:href="#m210c81e040" y="200.888822"/>
     <use style="fill:#ff0000;stroke:#ff0000;" x="242.955095" xlink:href="#m210c81e040" y="200.888822"/>
     <use style="fill:#ff0000;stroke:#ff0000;" x="244.465116" xlink:href="#m210c81e040" y="200.888822"/>
     <use style="fill:#ff0000;stroke:#ff0000;" x="245.975137" xlink:href="#m210c81e040" y="200.888822"/>
     <use style="fill:#ff0000;stroke:#ff0000;" x="247.485159" xlink:href="#m210c81e040" y="200.888822"/>
     <use style="fill:#ff0000;stroke:#ff0000;" x="248.99518" xlink:href="#m210c81e040" y="200.888822"/>
     <use style="fill:#ff0000;stroke:#ff0000;" x="250.505201" xlink:href="#m210c81e040" y="200.888822"/>
     <use style="fill:#ff0000;stroke:#ff0000;" x="252.015222" xlink:href="#m210c81e040" y="200.888822"/>
     <use style="fill:#ff0000;stroke:#ff0000;" x="253.525243" xlink:href="#m210c81e040" y="200.888822"/>
     <use style="fill:#ff0000;stroke:#ff0000;" x="255.035264" xlink:href="#m210c81e040" y="200.888822"/>
     <use style="fill:#ff0000;stroke:#ff0000;" x="256.545285" xlink:href="#m210c81e040" y="209.628707"/>
     <use style="fill:#ff0000;stroke:#ff0000;" x="258.055307" xlink:href="#m210c81e040" y="220.253561"/>
     <use style="fill:#ff0000;stroke:#ff0000;" x="259.565328" xlink:href="#m210c81e040" y="220.253561"/>
     <use style="fill:#ff0000;stroke:#ff0000;" x="261.075349" xlink:href="#m210c81e040" y="220.253561"/>
     <use style="fill:#ff0000;stroke:#ff0000;" x="262.58537" xlink:href="#m210c81e040" y="220.253561"/>
     <use style="fill:#ff0000;stroke:#ff0000;" x="264.095391" xlink:href="#m210c81e040" y="228.574243"/>
     <use style="fill:#ff0000;stroke:#ff0000;" x="265.605412" xlink:href="#m210c81e040" y="218.20021"/>
     <use style="fill:#ff0000;stroke:#ff0000;" x="267.115433" xlink:href="#m210c81e040" y="218.20021"/>
     <use style="fill:#ff0000;stroke:#ff0000;" x="268.625455" xlink:href="#m210c81e040" y="206.417619"/>
     <use style="fill:#ff0000;stroke:#ff0000;" x="270.135476" xlink:href="#m210c81e040" y="206.417619"/>
     <use style="fill:#ff0000;stroke:#ff0000;" x="271.645497" xlink:href="#m210c81e040" y="206.417619"/>
     <use style="fill:#ff0000;stroke:#ff0000;" x="273.155518" xlink:href="#m210c81e040" y="215.45782"/>
     <use style="fill:#ff0000;stroke:#ff0000;" x="274.665539" xlink:href="#m210c81e040" y="215.45782"/>
     <use style="fill:#ff0000;stroke:#ff0000;" x="276.17556" xlink:href="#m210c81e040" y="226.066613"/>
     <use style="fill:#ff0000;stroke:#ff0000;" x="277.685581" xlink:href="#m210c81e040" y="226.066613"/>
     <use style="fill:#ff0000;stroke:#ff0000;" x="279.195603" xlink:href="#m210c81e040" y="222.344243"/>
     <use style="fill:#ff0000;stroke:#ff0000;" x="280.705624" xlink:href="#m210c81e040" y="222.344243"/>
     <use style="fill:#ff0000;stroke:#ff0000;" x="282.215645" xlink:href="#m210c81e040" y="231.888699"/>
     <use style="fill:#ff0000;stroke:#ff0000;" x="283.725666" xlink:href="#m210c81e040" y="231.888699"/>
     <use style="fill:#ff0000;stroke:#ff0000;" x="285.235687" xlink:href="#m210c81e040" y="231.888699"/>
     <use style="fill:#ff0000;stroke:#ff0000;" x="286.745708" xlink:href="#m210c81e040" y="241.563608"/>
     <use style="fill:#ff0000;stroke:#ff0000;" x="288.255729" xlink:href="#m210c81e040" y="250.333742"/>
     <use style="fill:#ff0000;stroke:#ff0000;" x="289.765751" xlink:href="#m210c81e040" y="250.333742"/>
     <use style="fill:#ff0000;stroke:#ff0000;" x="291.275772" xlink:href="#m210c81e040" y="258.283726"/>
     <use style="fill:#ff0000;stroke:#ff0000;" x="292.785793" xlink:href="#m210c81e040" y="258.283726"/>
     <use style="fill:#ff0000;stroke:#ff0000;" x="294.295814" xlink:href="#m210c81e040" y="266.881928"/>
     <use style="fill:#ff0000;stroke:#ff0000;" x="295.805835" xlink:href="#m210c81e040" y="266.881928"/>
     <use style="fill:#ff0000;stroke:#ff0000;" x="297.315856" xlink:href="#m210c81e040" y="276.391291"/>
     <use style="fill:#ff0000;stroke:#ff0000;" x="298.825877" xlink:href="#m210c81e040" y="276.391291"/>
     <use style="fill:#ff0000;stroke:#ff0000;" x="300.335899" xlink:href="#m210c81e040" y="283.377856"/>
     <use style="fill:#ff0000;stroke:#ff0000;" x="301.84592" xlink:href="#m210c81e040" y="272.624994"/>
     <use style="fill:#ff0000;stroke:#ff0000;" x="303.355941" xlink:href="#m210c81e040" y="272.624994"/>
     <use style="fill:#ff0000;stroke:#ff0000;" x="304.865962" xlink:href="#m210c81e040" y="270.773312"/>
     <use style="fill:#ff0000;stroke:#ff0000;" x="306.375983" xlink:href="#m210c81e040" y="270.773312"/>
     <use style="fill:#ff0000;stroke:#ff0000;" x="307.886004" xlink:href="#m210c81e040" y="279.050248"/>
     <use style="fill:#ff0000;stroke:#ff0000;" x="309.396025" xlink:href="#m210c81e040" y="279.050248"/>
     <use style="fill:#ff0000;stroke:#ff0000;" x="310.906047" xlink:href="#m210c81e040" y="286.586056"/>
     <use style="fill:#ff0000;stroke:#ff0000;" x="312.416068" xlink:href="#m210c81e040" y="286.586056"/>
     <use style="fill:#ff0000;stroke:#ff0000;" x="313.926089" xlink:href="#m210c81e040" y="295.488"/>
     <use style="fill:#ff0000;stroke:#ff0000;" x="315.43611" xlink:href="#m210c81e040" y="295.488"/>
     <use style="fill:#ff0000;stroke:#ff0000;" x="316.946131" xlink:href="#m210c81e040" y="295.488"/>
     <use style="fill:#ff0000;stroke:#ff0000;" x="318.456152" xlink:href="#m210c81e040" y="283.659561"/>
     <use style="fill:#ff0000;stroke:#ff0000;" x="319.966173" xlink:href="#m210c81e040" y="283.659561"/>
     <use style="fill:#ff0000;stroke:#ff0000;" x="321.476195" xlink:href="#m210c81e040" y="271.190808"/>
     <use style="fill:#ff0000;stroke:#ff0000;" x="322.986216" xlink:href="#m210c81e040" y="271.190808"/>
     <use style="fill:#ff0000;stroke:#ff0000;" x="324.496237" xlink:href="#m210c81e040" y="271.190808"/>
     <use style="fill:#ff0000;stroke:#ff0000;" x="326.006258" xlink:href="#m210c81e040" y="271.190808"/>
     <use style="fill:#ff0000;stroke:#ff0000;" x="327.516279" xlink:href="#m210c81e040" y="280.718869"/>
     <use style="fill:#ff0000;stroke:#ff0000;" x="329.0263" xlink:href="#m210c81e040" y="288.413478"/>
     <use style="fill:#ff0000;stroke:#ff0000;" x="330.536321" xlink:href="#m210c81e040" y="288.413478"/>
     <use style="fill:#ff0000;stroke:#ff0000;" x="332.046342" xlink:href="#m210c81e040" y="285.517575"/>
     <use style="fill:#ff0000;stroke:#ff0000;" x="333.556364" xlink:href="#m210c81e040" y="285.517575"/>
     <use style="fill:#ff0000;stroke:#ff0000;" x="335.066385" xlink:href="#m210c81e040" y="285.517575"/>
     <use style="fill:#ff0000;stroke:#ff0000;" x="336.576406" xlink:href="#m210c81e040" y="274.874237"/>
     <use style="fill:#ff0000;stroke:#ff0000;" x="338.086427" xlink:href="#m210c81e040" y="274.874237"/>
     <use style="fill:#ff0000;stroke:#ff0000;" x="339.596448" xlink:href="#m210c81e040" y="284.47544"/>
     <use style="fill:#ff0000;stroke:#ff0000;" x="341.106469" xlink:href="#m210c81e040" y="284.47544"/>
     <use style="fill:#ff0000;stroke:#ff0000;" x="342.61649" xlink:href="#m210c81e040" y="272.076787"/>
     <use style="fill:#ff0000;stroke:#ff0000;" x="344.126512" xlink:href="#m210c81e040" y="272.076787"/>
     <use style="fill:#ff0000;stroke:#ff0000;" x="345.636533" xlink:href="#m210c81e040" y="278.847091"/>
     <use style="fill:#ff0000;stroke:#ff0000;" x="347.146554" xlink:href="#m210c81e040" y="278.847091"/>
     <use style="fill:#ff0000;stroke:#ff0000;" x="348.656575" xlink:href="#m210c81e040" y="268.482739"/>
     <use style="fill:#ff0000;stroke:#ff0000;" x="350.166596" xlink:href="#m210c81e040" y="278.44761"/>
     <use style="fill:#ff0000;stroke:#ff0000;" x="351.676617" xlink:href="#m210c81e040" y="278.44761"/>
     <use style="fill:#ff0000;stroke:#ff0000;" x="353.186638" xlink:href="#m210c81e040" y="286.823039"/>
     <use style="fill:#ff0000;stroke:#ff0000;" x="354.69666" xlink:href="#m210c81e040" y="286.823039"/>
     <use style="fill:#ff0000;stroke:#ff0000;" x="356.206681" xlink:href="#m210c81e040" y="286.823039"/>
     <use style="fill:#ff0000;stroke:#ff0000;" x="357.716702" xlink:href="#m210c81e040" y="286.823039"/>
     <use style="fill:#ff0000;stroke:#ff0000;" x="359.226723" xlink:href="#m210c81e040" y="286.823039"/>
     <use style="fill:#ff0000;stroke:#ff0000;" x="360.736744" xlink:href="#m210c81e040" y="286.823039"/>
     <use style="fill:#ff0000;stroke:#ff0000;" x="362.246765" xlink:href="#m210c81e040" y="286.823039"/>
     <use style="fill:#ff0000;stroke:#ff0000;" x="363.756786" xlink:href="#m210c81e040" y="286.823039"/>
     <use style="fill:#ff0000;stroke:#ff0000;" x="365.266808" xlink:href="#m210c81e040" y="286.823039"/>
     <use style="fill:#ff0000;stroke:#ff0000;" x="366.776829" xlink:href="#m210c81e040" y="286.823039"/>
     <use style="fill:#ff0000;stroke:#ff0000;" x="368.28685" xlink:href="#m210c81e040" y="286.823039"/>
     <use style="fill:#ff0000;stroke:#ff0000;" x="369.796871" xlink:href="#m210c81e040" y="286.823039"/>
     <use style="fill:#ff0000;stroke:#ff0000;" x="371.306892" xlink:href="#m210c81e040" y="286.823039"/>
     <use style="fill:#ff0000;stroke:#ff0000;" x="372.816913" xlink:href="#m210c81e040" y="286.823039"/>
     <use style="fill:#ff0000;stroke:#ff0000;" x="374.326934" xlink:href="#m210c81e040" y="286.823039"/>
     <use style="fill:#ff0000;stroke:#ff0000;" x="375.836956" xlink:href="#m210c81e040" y="286.823039"/>
     <use style="fill:#ff0000;stroke:#ff0000;" x="377.346977" xlink:href="#m210c81e040" y="286.823039"/>
     <use style="fill:#ff0000;stroke:#ff0000;" x="378.856998" xlink:href="#m210c81e040" y="286.823039"/>
     <use style="fill:#ff0000;stroke:#ff0000;" x="380.367019" xlink:href="#m210c81e040" y="286.823039"/>
     <use style="fill:#ff0000;stroke:#ff0000;" x="381.87704" xlink:href="#m210c81e040" y="286.823039"/>
     <use style="fill:#ff0000;stroke:#ff0000;" x="383.387061" xlink:href="#m210c81e040" y="286.823039"/>
     <use style="fill:#ff0000;stroke:#ff0000;" x="384.897082" xlink:href="#m210c81e040" y="286.823039"/>
     <use style="fill:#ff0000;stroke:#ff0000;" x="386.407104" xlink:href="#m210c81e040" y="286.823039"/>
     <use style="fill:#ff0000;stroke:#ff0000;" x="387.917125" xlink:href="#m210c81e040" y="286.823039"/>
     <use style="fill:#ff0000;stroke:#ff0000;" x="389.427146" xlink:href="#m210c81e040" y="286.823039"/>
     <use style="fill:#ff0000;stroke:#ff0000;" x="390.937167" xlink:href="#m210c81e040" y="286.823039"/>
     <use style="fill:#ff0000;stroke:#ff0000;" x="392.447188" xlink:href="#m210c81e040" y="286.823039"/>
     <use style="fill:#ff0000;stroke:#ff0000;" x="393.957209" xlink:href="#m210c81e040" y="286.823039"/>
     <use style="fill:#ff0000;stroke:#ff0000;" x="395.46723" xlink:href="#m210c81e040" y="286.823039"/>
     <use style="fill:#ff0000;stroke:#ff0000;" x="396.977252" xlink:href="#m210c81e040" y="286.823039"/>
     <use style="fill:#ff0000;stroke:#ff0000;" x="398.487273" xlink:href="#m210c81e040" y="286.823039"/>
    </g>
   </g>
   <g id="patch_3">
    <path d="M 57.6 307.584 
L 57.6 41.472 
" style="fill:none;stroke:#000000;stroke-linecap:square;stroke-linejoin:miter;stroke-width:0.8;"/>
   </g>
   <g id="patch_4">
    <path d="M 414.72 307.584 
L 414.72 41.472 
" style="fill:none;stroke:#000000;stroke-linecap:square;stroke-linejoin:miter;stroke-width:0.8;"/>
   </g>
   <g id="patch_5">
    <path d="M 57.6 307.584 
L 414.72 307.584 
" style="fill:none;stroke:#000000;stroke-linecap:square;stroke-linejoin:miter;stroke-width:0.8;"/>
   </g>
   <g id="patch_6">
    <path d="M 57.6 41.472 
L 414.72 41.472 
" style="fill:none;stroke:#000000;stroke-linecap:square;stroke-linejoin:miter;stroke-width:0.8;"/>
   </g>
  </g>
 </g>
 <defs>
  <clipPath id="p5175000c37">
   <rect height="266.112" width="357.12" x="57.6" y="41.472"/>
  </clipPath>
 </defs>
</svg>
