<?xml version="1.0" encoding="utf-8" standalone="no"?>
<!DOCTYPE svg PUBLIC "-//W3C//DTD SVG 1.1//EN"
  "http://www.w3.org/Graphics/SVG/1.1/DTD/svg11.dtd">
<!-- Created with matplotlib (https://matplotlib.org/) -->
<svg height="345.6pt" version="1.1" viewBox="0 0 460.8 345.6" width="460.8pt" xmlns="http://www.w3.org/2000/svg" xmlns:xlink="http://www.w3.org/1999/xlink">
 <defs>
  <style type="text/css">
*{stroke-linecap:butt;stroke-linejoin:round;}
  </style>
 </defs>
 <g id="figure_1">
  <g id="patch_1">
   <path d="M 0 345.6 
L 460.8 345.6 
L 460.8 0 
L 0 0 
z
" style="fill:#ffffff;"/>
  </g>
  <g id="axes_1">
   <g id="patch_2">
    <path d="M 57.6 307.584 
L 414.72 307.584 
L 414.72 41.472 
L 57.6 41.472 
z
" style="fill:#ffffff;"/>
   </g>
   <g id="line2d_1">
    <path clip-path="url(#p42976cc1d3)" d="M 73.832727 86.339119 
L 75.256651 92.40083 
L 76.680574 92.40083 
L 78.104498 61.830574 
L 79.528421 61.830574 
L 80.952344 92.65402 
L 82.376268 92.65402 
L 83.800191 123.505571 
L 86.648038 123.505571 
L 88.071962 91.882157 
L 89.495885 91.882157 
L 90.919809 60.170697 
L 96.615502 60.170697 
L 98.039426 53.568 
L 100.887273 53.568 
L 102.311196 83.691916 
L 105.159043 83.691916 
L 106.582967 111.801123 
L 108.00689 111.801123 
L 109.430813 118.308957 
L 110.854737 118.308957 
L 112.27866 128.26362 
L 113.702584 128.26362 
L 115.126507 117.491088 
L 116.550431 117.491088 
L 117.974354 127.078756 
L 119.398278 127.977377 
L 120.822201 127.977377 
L 122.246124 117.489387 
L 123.670048 117.489387 
L 125.093971 127.8106 
L 126.517895 127.8106 
L 127.941818 116.440764 
L 129.365742 127.124552 
L 133.637512 127.124552 
L 135.061435 117.80711 
L 136.485359 117.80711 
L 137.909282 107.331495 
L 139.333206 107.331495 
L 140.757129 118.069224 
L 142.181053 118.069224 
L 143.604976 127.411861 
L 145.0289 127.411861 
L 146.452823 137.2593 
L 149.30067 137.2593 
L 150.724593 147.768937 
L 152.148517 137.807393 
L 153.57244 137.807393 
L 154.996364 128.031864 
L 156.420287 128.031864 
L 157.844211 117.457811 
L 160.692057 117.457811 
L 162.115981 127.110618 
L 163.539904 127.110618 
L 164.963828 136.624879 
L 166.387751 136.624879 
L 167.811675 133.969402 
L 169.235598 135.153231 
L 170.659522 135.153231 
L 172.083445 143.888581 
L 174.931292 143.888581 
L 176.355215 134.490214 
L 177.779139 143.821922 
L 179.203062 143.821922 
L 180.626986 140.316859 
L 184.898756 140.316859 
L 187.746603 159.714272 
L 194.86622 159.714272 
L 197.714067 178.24463 
L 199.13799 178.24463 
L 200.561914 187.346814 
L 201.985837 187.346814 
L 203.409761 188.969853 
L 206.257608 188.969853 
L 209.105455 207.454141 
L 211.953301 207.454141 
L 213.377225 204.971699 
L 214.801148 195.2946 
L 216.225072 195.2946 
L 217.648995 203.802522 
L 221.920766 203.802522 
L 223.344689 192.43654 
L 224.768612 192.43654 
L 226.192536 181.502584 
L 227.616459 191.194832 
L 230.464306 191.194832 
L 231.88823 200.888822 
L 244.703541 200.888822 
L 246.127464 209.628707 
L 247.551388 220.253561 
L 251.823158 220.253561 
L 253.247081 228.574243 
L 254.671005 218.20021 
L 256.094928 218.20021 
L 257.518852 206.417619 
L 260.366699 206.417619 
L 261.790622 215.45782 
L 263.214545 215.45782 
L 264.638469 226.066613 
L 266.062392 226.066613 
L 267.486316 222.344243 
L 268.910239 222.344243 
L 270.334163 231.888699 
L 273.18201 231.888699 
L 274.605933 241.563608 
L 276.029856 250.333742 
L 277.45378 250.333742 
L 278.877703 258.283726 
L 280.301627 258.283726 
L 281.72555 266.881928 
L 283.149474 266.881928 
L 284.573397 276.391291 
L 285.997321 276.391291 
L 287.421244 283.377856 
L 288.845167 272.624994 
L 290.269091 272.624994 
L 291.693014 270.773312 
L 293.116938 270.773312 
L 294.540861 279.050248 
L 295.964785 279.050248 
L 297.388708 286.586056 
L 298.812632 286.586056 
L 300.236555 295.488 
L 303.084402 295.488 
L 304.508325 283.659561 
L 305.932249 283.659561 
L 307.356172 271.190808 
L 311.627943 271.190808 
L 313.051866 280.718869 
L 314.475789 288.413478 
L 315.899713 288.413478 
L 317.323636 285.517575 
L 320.171483 285.517575 
L 321.595407 274.874237 
L 323.01933 274.874237 
L 324.443254 284.47544 
L 325.867177 284.47544 
L 327.2911 272.076787 
L 328.715024 272.076787 
L 330.138947 278.847091 
L 331.562871 278.847091 
L 332.986794 268.482739 
L 334.410718 278.44761 
L 335.834641 278.44761 
L 337.258565 286.823039 
L 398.487273 286.823039 
L 398.487273 286.823039 
" style="fill:none;stroke:#ff0000;stroke-linecap:square;stroke-width:12;"/>
    <defs>
     <path d="M 0 3 
C 0.795609 3 1.55874 2.683901 2.12132 2.12132 
C 2.683901 1.55874 3 0.795609 3 0 
C 3 -0.795609 2.683901 -1.55874 2.12132 -2.12132 
C 1.55874 -2.683901 0.795609 -3 0 -3 
C -0.795609 -3 -1.55874 -2.683901 -2.12132 -2.12132 
C -2.683901 -1.55874 -3 -0.795609 -3 0 
C -3 0.795609 -2.683901 1.55874 -2.12132 2.12132 
C -1.55874 2.683901 -0.795609 3 0 3 
z
" id="mbc1ff88ddb" style="stroke:#ff0000;"/>
    </defs>
    <g clip-path="url(#p42976cc1d3)">
     <use style="fill:#ff0000;stroke:#ff0000;" x="73.832727" xlink:href="#mbc1ff88ddb" y="86.339119"/>
     <use style="fill:#ff0000;stroke:#ff0000;" x="75.256651" xlink:href="#mbc1ff88ddb" y="92.40083"/>
     <use style="fill:#ff0000;stroke:#ff0000;" x="76.680574" xlink:href="#mbc1ff88ddb" y="92.40083"/>
     <use style="fill:#ff0000;stroke:#ff0000;" x="78.104498" xlink:href="#mbc1ff88ddb" y="61.830574"/>
     <use style="fill:#ff0000;stroke:#ff0000;" x="79.528421" xlink:href="#mbc1ff88ddb" y="61.830574"/>
     <use style="fill:#ff0000;stroke:#ff0000;" x="80.952344" xlink:href="#mbc1ff88ddb" y="92.65402"/>
     <use style="fill:#ff0000;stroke:#ff0000;" x="82.376268" xlink:href="#mbc1ff88ddb" y="92.65402"/>
     <use style="fill:#ff0000;stroke:#ff0000;" x="83.800191" xlink:href="#mbc1ff88ddb" y="123.505571"/>
     <use style="fill:#ff0000;stroke:#ff0000;" x="85.224115" xlink:href="#mbc1ff88ddb" y="123.505571"/>
     <use style="fill:#ff0000;stroke:#ff0000;" x="86.648038" xlink:href="#mbc1ff88ddb" y="123.505571"/>
     <use style="fill:#ff0000;stroke:#ff0000;" x="88.071962" xlink:href="#mbc1ff88ddb" y="91.882157"/>
     <use style="fill:#ff0000;stroke:#ff0000;" x="89.495885" xlink:href="#mbc1ff88ddb" y="91.882157"/>
     <use style="fill:#ff0000;stroke:#ff0000;" x="90.919809" xlink:href="#mbc1ff88ddb" y="60.170697"/>
     <use style="fill:#ff0000;stroke:#ff0000;" x="92.343732" xlink:href="#mbc1ff88ddb" y="60.170697"/>
     <use style="fill:#ff0000;stroke:#ff0000;" x="93.767656" xlink:href="#mbc1ff88ddb" y="60.170697"/>
     <use style="fill:#ff0000;stroke:#ff0000;" x="95.191579" xlink:href="#mbc1ff88ddb" y="60.170697"/>
     <use style="fill:#ff0000;stroke:#ff0000;" x="96.615502" xlink:href="#mbc1ff88ddb" y="60.170697"/>
     <use style="fill:#ff0000;stroke:#ff0000;" x="98.039426" xlink:href="#mbc1ff88ddb" y="53.568"/>
     <use style="fill:#ff0000;stroke:#ff0000;" x="99.463349" xlink:href="#mbc1ff88ddb" y="53.568"/>
     <use style="fill:#ff0000;stroke:#ff0000;" x="100.887273" xlink:href="#mbc1ff88ddb" y="53.568"/>
     <use style="fill:#ff0000;stroke:#ff0000;" x="102.311196" xlink:href="#mbc1ff88ddb" y="83.691916"/>
     <use style="fill:#ff0000;stroke:#ff0000;" x="103.73512" xlink:href="#mbc1ff88ddb" y="83.691916"/>
     <use style="fill:#ff0000;stroke:#ff0000;" x="105.159043" xlink:href="#mbc1ff88ddb" y="83.691916"/>
     <use style="fill:#ff0000;stroke:#ff0000;" x="106.582967" xlink:href="#mbc1ff88ddb" y="111.801123"/>
     <use style="fill:#ff0000;stroke:#ff0000;" x="108.00689" xlink:href="#mbc1ff88ddb" y="111.801123"/>
     <use style="fill:#ff0000;stroke:#ff0000;" x="109.430813" xlink:href="#mbc1ff88ddb" y="118.308957"/>
     <use style="fill:#ff0000;stroke:#ff0000;" x="110.854737" xlink:href="#mbc1ff88ddb" y="118.308957"/>
     <use style="fill:#ff0000;stroke:#ff0000;" x="112.27866" xlink:href="#mbc1ff88ddb" y="128.26362"/>
     <use style="fill:#ff0000;stroke:#ff0000;" x="113.702584" xlink:href="#mbc1ff88ddb" y="128.26362"/>
     <use style="fill:#ff0000;stroke:#ff0000;" x="115.126507" xlink:href="#mbc1ff88ddb" y="117.491088"/>
     <use style="fill:#ff0000;stroke:#ff0000;" x="116.550431" xlink:href="#mbc1ff88ddb" y="117.491088"/>
     <use style="fill:#ff0000;stroke:#ff0000;" x="117.974354" xlink:href="#mbc1ff88ddb" y="127.078756"/>
     <use style="fill:#ff0000;stroke:#ff0000;" x="119.398278" xlink:href="#mbc1ff88ddb" y="127.977377"/>
     <use style="fill:#ff0000;stroke:#ff0000;" x="120.822201" xlink:href="#mbc1ff88ddb" y="127.977377"/>
     <use style="fill:#ff0000;stroke:#ff0000;" x="122.246124" xlink:href="#mbc1ff88ddb" y="117.489387"/>
     <use style="fill:#ff0000;stroke:#ff0000;" x="123.670048" xlink:href="#mbc1ff88ddb" y="117.489387"/>
     <use style="fill:#ff0000;stroke:#ff0000;" x="125.093971" xlink:href="#mbc1ff88ddb" y="127.8106"/>
     <use style="fill:#ff0000;stroke:#ff0000;" x="126.517895" xlink:href="#mbc1ff88ddb" y="127.8106"/>
     <use style="fill:#ff0000;stroke:#ff0000;" x="127.941818" xlink:href="#mbc1ff88ddb" y="116.440764"/>
     <use style="fill:#ff0000;stroke:#ff0000;" x="129.365742" xlink:href="#mbc1ff88ddb" y="127.124552"/>
     <use style="fill:#ff0000;stroke:#ff0000;" x="130.789665" xlink:href="#mbc1ff88ddb" y="127.124552"/>
     <use style="fill:#ff0000;stroke:#ff0000;" x="132.213589" xlink:href="#mbc1ff88ddb" y="127.124552"/>
     <use style="fill:#ff0000;stroke:#ff0000;" x="133.637512" xlink:href="#mbc1ff88ddb" y="127.124552"/>
     <use style="fill:#ff0000;stroke:#ff0000;" x="135.061435" xlink:href="#mbc1ff88ddb" y="117.80711"/>
     <use style="fill:#ff0000;stroke:#ff0000;" x="136.485359" xlink:href="#mbc1ff88ddb" y="117.80711"/>
     <use style="fill:#ff0000;stroke:#ff0000;" x="137.909282" xlink:href="#mbc1ff88ddb" y="107.331495"/>
     <use style="fill:#ff0000;stroke:#ff0000;" x="139.333206" xlink:href="#mbc1ff88ddb" y="107.331495"/>
     <use style="fill:#ff0000;stroke:#ff0000;" x="140.757129" xlink:href="#mbc1ff88ddb" y="118.069224"/>
     <use style="fill:#ff0000;stroke:#ff0000;" x="142.181053" xlink:href="#mbc1ff88ddb" y="118.069224"/>
     <use style="fill:#ff0000;stroke:#ff0000;" x="143.604976" xlink:href="#mbc1ff88ddb" y="127.411861"/>
     <use style="fill:#ff0000;stroke:#ff0000;" x="145.0289" xlink:href="#mbc1ff88ddb" y="127.411861"/>
     <use style="fill:#ff0000;stroke:#ff0000;" x="146.452823" xlink:href="#mbc1ff88ddb" y="137.2593"/>
     <use style="fill:#ff0000;stroke:#ff0000;" x="147.876746" xlink:href="#mbc1ff88ddb" y="137.2593"/>
     <use style="fill:#ff0000;stroke:#ff0000;" x="149.30067" xlink:href="#mbc1ff88ddb" y="137.2593"/>
     <use style="fill:#ff0000;stroke:#ff0000;" x="150.724593" xlink:href="#mbc1ff88ddb" y="147.768937"/>
     <use style="fill:#ff0000;stroke:#ff0000;" x="152.148517" xlink:href="#mbc1ff88ddb" y="137.807393"/>
     <use style="fill:#ff0000;stroke:#ff0000;" x="153.57244" xlink:href="#mbc1ff88ddb" y="137.807393"/>
     <use style="fill:#ff0000;stroke:#ff0000;" x="154.996364" xlink:href="#mbc1ff88ddb" y="128.031864"/>
     <use style="fill:#ff0000;stroke:#ff0000;" x="156.420287" xlink:href="#mbc1ff88ddb" y="128.031864"/>
     <use style="fill:#ff0000;stroke:#ff0000;" x="157.844211" xlink:href="#mbc1ff88ddb" y="117.457811"/>
     <use style="fill:#ff0000;stroke:#ff0000;" x="159.268134" xlink:href="#mbc1ff88ddb" y="117.457811"/>
     <use style="fill:#ff0000;stroke:#ff0000;" x="160.692057" xlink:href="#mbc1ff88ddb" y="117.457811"/>
     <use style="fill:#ff0000;stroke:#ff0000;" x="162.115981" xlink:href="#mbc1ff88ddb" y="127.110618"/>
     <use style="fill:#ff0000;stroke:#ff0000;" x="163.539904" xlink:href="#mbc1ff88ddb" y="127.110618"/>
     <use style="fill:#ff0000;stroke:#ff0000;" x="164.963828" xlink:href="#mbc1ff88ddb" y="136.624879"/>
     <use style="fill:#ff0000;stroke:#ff0000;" x="166.387751" xlink:href="#mbc1ff88ddb" y="136.624879"/>
     <use style="fill:#ff0000;stroke:#ff0000;" x="167.811675" xlink:href="#mbc1ff88ddb" y="133.969402"/>
     <use style="fill:#ff0000;stroke:#ff0000;" x="169.235598" xlink:href="#mbc1ff88ddb" y="135.153231"/>
     <use style="fill:#ff0000;stroke:#ff0000;" x="170.659522" xlink:href="#mbc1ff88ddb" y="135.153231"/>
     <use style="fill:#ff0000;stroke:#ff0000;" x="172.083445" xlink:href="#mbc1ff88ddb" y="143.888581"/>
     <use style="fill:#ff0000;stroke:#ff0000;" x="173.507368" xlink:href="#mbc1ff88ddb" y="143.888581"/>
     <use style="fill:#ff0000;stroke:#ff0000;" x="174.931292" xlink:href="#mbc1ff88ddb" y="143.888581"/>
     <use style="fill:#ff0000;stroke:#ff0000;" x="176.355215" xlink:href="#mbc1ff88ddb" y="134.490214"/>
     <use style="fill:#ff0000;stroke:#ff0000;" x="177.779139" xlink:href="#mbc1ff88ddb" y="143.821922"/>
     <use style="fill:#ff0000;stroke:#ff0000;" x="179.203062" xlink:href="#mbc1ff88ddb" y="143.821922"/>
     <use style="fill:#ff0000;stroke:#ff0000;" x="180.626986" xlink:href="#mbc1ff88ddb" y="140.316859"/>
     <use style="fill:#ff0000;stroke:#ff0000;" x="182.050909" xlink:href="#mbc1ff88ddb" y="140.316859"/>
     <use style="fill:#ff0000;stroke:#ff0000;" x="183.474833" xlink:href="#mbc1ff88ddb" y="140.316859"/>
     <use style="fill:#ff0000;stroke:#ff0000;" x="184.898756" xlink:href="#mbc1ff88ddb" y="140.316859"/>
     <use style="fill:#ff0000;stroke:#ff0000;" x="186.322679" xlink:href="#mbc1ff88ddb" y="150.390823"/>
     <use style="fill:#ff0000;stroke:#ff0000;" x="187.746603" xlink:href="#mbc1ff88ddb" y="159.714272"/>
     <use style="fill:#ff0000;stroke:#ff0000;" x="189.170526" xlink:href="#mbc1ff88ddb" y="159.714272"/>
     <use style="fill:#ff0000;stroke:#ff0000;" x="190.59445" xlink:href="#mbc1ff88ddb" y="159.714272"/>
     <use style="fill:#ff0000;stroke:#ff0000;" x="192.018373" xlink:href="#mbc1ff88ddb" y="159.714272"/>
     <use style="fill:#ff0000;stroke:#ff0000;" x="193.442297" xlink:href="#mbc1ff88ddb" y="159.714272"/>
     <use style="fill:#ff0000;stroke:#ff0000;" x="194.86622" xlink:href="#mbc1ff88ddb" y="159.714272"/>
     <use style="fill:#ff0000;stroke:#ff0000;" x="196.290144" xlink:href="#mbc1ff88ddb" y="169.190095"/>
     <use style="fill:#ff0000;stroke:#ff0000;" x="197.714067" xlink:href="#mbc1ff88ddb" y="178.24463"/>
     <use style="fill:#ff0000;stroke:#ff0000;" x="199.13799" xlink:href="#mbc1ff88ddb" y="178.24463"/>
     <use style="fill:#ff0000;stroke:#ff0000;" x="200.561914" xlink:href="#mbc1ff88ddb" y="187.346814"/>
     <use style="fill:#ff0000;stroke:#ff0000;" x="201.985837" xlink:href="#mbc1ff88ddb" y="187.346814"/>
     <use style="fill:#ff0000;stroke:#ff0000;" x="203.409761" xlink:href="#mbc1ff88ddb" y="188.969853"/>
     <use style="fill:#ff0000;stroke:#ff0000;" x="204.833684" xlink:href="#mbc1ff88ddb" y="188.969853"/>
     <use style="fill:#ff0000;stroke:#ff0000;" x="206.257608" xlink:href="#mbc1ff88ddb" y="188.969853"/>
     <use style="fill:#ff0000;stroke:#ff0000;" x="207.681531" xlink:href="#mbc1ff88ddb" y="198.070851"/>
     <use style="fill:#ff0000;stroke:#ff0000;" x="209.105455" xlink:href="#mbc1ff88ddb" y="207.454141"/>
     <use style="fill:#ff0000;stroke:#ff0000;" x="210.529378" xlink:href="#mbc1ff88ddb" y="207.454141"/>
     <use style="fill:#ff0000;stroke:#ff0000;" x="211.953301" xlink:href="#mbc1ff88ddb" y="207.454141"/>
     <use style="fill:#ff0000;stroke:#ff0000;" x="213.377225" xlink:href="#mbc1ff88ddb" y="204.971699"/>
     <use style="fill:#ff0000;stroke:#ff0000;" x="214.801148" xlink:href="#mbc1ff88ddb" y="195.2946"/>
     <use style="fill:#ff0000;stroke:#ff0000;" x="216.225072" xlink:href="#mbc1ff88ddb" y="195.2946"/>
     <use style="fill:#ff0000;stroke:#ff0000;" x="217.648995" xlink:href="#mbc1ff88ddb" y="203.802522"/>
     <use style="fill:#ff0000;stroke:#ff0000;" x="219.072919" xlink:href="#mbc1ff88ddb" y="203.802522"/>
     <use style="fill:#ff0000;stroke:#ff0000;" x="220.496842" xlink:href="#mbc1ff88ddb" y="203.802522"/>
     <use style="fill:#ff0000;stroke:#ff0000;" x="221.920766" xlink:href="#mbc1ff88ddb" y="203.802522"/>
     <use style="fill:#ff0000;stroke:#ff0000;" x="223.344689" xlink:href="#mbc1ff88ddb" y="192.43654"/>
     <use style="fill:#ff0000;stroke:#ff0000;" x="224.768612" xlink:href="#mbc1ff88ddb" y="192.43654"/>
     <use style="fill:#ff0000;stroke:#ff0000;" x="226.192536" xlink:href="#mbc1ff88ddb" y="181.502584"/>
     <use style="fill:#ff0000;stroke:#ff0000;" x="227.616459" xlink:href="#mbc1ff88ddb" y="191.194832"/>
     <use style="fill:#ff0000;stroke:#ff0000;" x="229.040383" xlink:href="#mbc1ff88ddb" y="191.194832"/>
     <use style="fill:#ff0000;stroke:#ff0000;" x="230.464306" xlink:href="#mbc1ff88ddb" y="191.194832"/>
     <use style="fill:#ff0000;stroke:#ff0000;" x="231.88823" xlink:href="#mbc1ff88ddb" y="200.888822"/>
     <use style="fill:#ff0000;stroke:#ff0000;" x="233.312153" xlink:href="#mbc1ff88ddb" y="200.888822"/>
     <use style="fill:#ff0000;stroke:#ff0000;" x="234.736077" xlink:href="#mbc1ff88ddb" y="200.888822"/>
     <use style="fill:#ff0000;stroke:#ff0000;" x="236.16" xlink:href="#mbc1ff88ddb" y="200.888822"/>
     <use style="fill:#ff0000;stroke:#ff0000;" x="237.583923" xlink:href="#mbc1ff88ddb" y="200.888822"/>
     <use style="fill:#ff0000;stroke:#ff0000;" x="239.007847" xlink:href="#mbc1ff88ddb" y="200.888822"/>
     <use style="fill:#ff0000;stroke:#ff0000;" x="240.43177" xlink:href="#mbc1ff88ddb" y="200.888822"/>
     <use style="fill:#ff0000;stroke:#ff0000;" x="241.855694" xlink:href="#mbc1ff88ddb" y="200.888822"/>
     <use style="fill:#ff0000;stroke:#ff0000;" x="243.279617" xlink:href="#mbc1ff88ddb" y="200.888822"/>
     <use style="fill:#ff0000;stroke:#ff0000;" x="244.703541" xlink:href="#mbc1ff88ddb" y="200.888822"/>
     <use style="fill:#ff0000;stroke:#ff0000;" x="246.127464" xlink:href="#mbc1ff88ddb" y="209.628707"/>
     <use style="fill:#ff0000;stroke:#ff0000;" x="247.551388" xlink:href="#mbc1ff88ddb" y="220.253561"/>
     <use style="fill:#ff0000;stroke:#ff0000;" x="248.975311" xlink:href="#mbc1ff88ddb" y="220.253561"/>
     <use style="fill:#ff0000;stroke:#ff0000;" x="250.399234" xlink:href="#mbc1ff88ddb" y="220.253561"/>
     <use style="fill:#ff0000;stroke:#ff0000;" x="251.823158" xlink:href="#mbc1ff88ddb" y="220.253561"/>
     <use style="fill:#ff0000;stroke:#ff0000;" x="253.247081" xlink:href="#mbc1ff88ddb" y="228.574243"/>
     <use style="fill:#ff0000;stroke:#ff0000;" x="254.671005" xlink:href="#mbc1ff88ddb" y="218.20021"/>
     <use style="fill:#ff0000;stroke:#ff0000;" x="256.094928" xlink:href="#mbc1ff88ddb" y="218.20021"/>
     <use style="fill:#ff0000;stroke:#ff0000;" x="257.518852" xlink:href="#mbc1ff88ddb" y="206.417619"/>
     <use style="fill:#ff0000;stroke:#ff0000;" x="258.942775" xlink:href="#mbc1ff88ddb" y="206.417619"/>
     <use style="fill:#ff0000;stroke:#ff0000;" x="260.366699" xlink:href="#mbc1ff88ddb" y="206.417619"/>
     <use style="fill:#ff0000;stroke:#ff0000;" x="261.790622" xlink:href="#mbc1ff88ddb" y="215.45782"/>
     <use style="fill:#ff0000;stroke:#ff0000;" x="263.214545" xlink:href="#mbc1ff88ddb" y="215.45782"/>
     <use style="fill:#ff0000;stroke:#ff0000;" x="264.638469" xlink:href="#mbc1ff88ddb" y="226.066613"/>
     <use style="fill:#ff0000;stroke:#ff0000;" x="266.062392" xlink:href="#mbc1ff88ddb" y="226.066613"/>
     <use style="fill:#ff0000;stroke:#ff0000;" x="267.486316" xlink:href="#mbc1ff88ddb" y="222.344243"/>
     <use style="fill:#ff0000;stroke:#ff0000;" x="268.910239" xlink:href="#mbc1ff88ddb" y="222.344243"/>
     <use style="fill:#ff0000;stroke:#ff0000;" x="270.334163" xlink:href="#mbc1ff88ddb" y="231.888699"/>
     <use style="fill:#ff0000;stroke:#ff0000;" x="271.758086" xlink:href="#mbc1ff88ddb" y="231.888699"/>
     <use style="fill:#ff0000;stroke:#ff0000;" x="273.18201" xlink:href="#mbc1ff88ddb" y="231.888699"/>
     <use style="fill:#ff0000;stroke:#ff0000;" x="274.605933" xlink:href="#mbc1ff88ddb" y="241.563608"/>
     <use style="fill:#ff0000;stroke:#ff0000;" x="276.029856" xlink:href="#mbc1ff88ddb" y="250.333742"/>
     <use style="fill:#ff0000;stroke:#ff0000;" x="277.45378" xlink:href="#mbc1ff88ddb" y="250.333742"/>
     <use style="fill:#ff0000;stroke:#ff0000;" x="278.877703" xlink:href="#mbc1ff88ddb" y="258.283726"/>
     <use style="fill:#ff0000;stroke:#ff0000;" x="280.301627" xlink:href="#mbc1ff88ddb" y="258.283726"/>
     <use style="fill:#ff0000;stroke:#ff0000;" x="281.72555" xlink:href="#mbc1ff88ddb" y="266.881928"/>
     <use style="fill:#ff0000;stroke:#ff0000;" x="283.149474" xlink:href="#mbc1ff88ddb" y="266.881928"/>
     <use style="fill:#ff0000;stroke:#ff0000;" x="284.573397" xlink:href="#mbc1ff88ddb" y="276.391291"/>
     <use style="fill:#ff0000;stroke:#ff0000;" x="285.997321" xlink:href="#mbc1ff88ddb" y="276.391291"/>
     <use style="fill:#ff0000;stroke:#ff0000;" x="287.421244" xlink:href="#mbc1ff88ddb" y="283.377856"/>
     <use style="fill:#ff0000;stroke:#ff0000;" x="288.845167" xlink:href="#mbc1ff88ddb" y="272.624994"/>
     <use style="fill:#ff0000;stroke:#ff0000;" x="290.269091" xlink:href="#mbc1ff88ddb" y="272.624994"/>
     <use style="fill:#ff0000;stroke:#ff0000;" x="291.693014" xlink:href="#mbc1ff88ddb" y="270.773312"/>
     <use style="fill:#ff0000;stroke:#ff0000;" x="293.116938" xlink:href="#mbc1ff88ddb" y="270.773312"/>
     <use style="fill:#ff0000;stroke:#ff0000;" x="294.540861" xlink:href="#mbc1ff88ddb" y="279.050248"/>
     <use style="fill:#ff0000;stroke:#ff0000;" x="295.964785" xlink:href="#mbc1ff88ddb" y="279.050248"/>
     <use style="fill:#ff0000;stroke:#ff0000;" x="297.388708" xlink:href="#mbc1ff88ddb" y="286.586056"/>
     <use style="fill:#ff0000;stroke:#ff0000;" x="298.812632" xlink:href="#mbc1ff88ddb" y="286.586056"/>
     <use style="fill:#ff0000;stroke:#ff0000;" x="300.236555" xlink:href="#mbc1ff88ddb" y="295.488"/>
     <use style="fill:#ff0000;stroke:#ff0000;" x="301.660478" xlink:href="#mbc1ff88ddb" y="295.488"/>
     <use style="fill:#ff0000;stroke:#ff0000;" x="303.084402" xlink:href="#mbc1ff88ddb" y="295.488"/>
     <use style="fill:#ff0000;stroke:#ff0000;" x="304.508325" xlink:href="#mbc1ff88ddb" y="283.659561"/>
     <use style="fill:#ff0000;stroke:#ff0000;" x="305.932249" xlink:href="#mbc1ff88ddb" y="283.659561"/>
     <use style="fill:#ff0000;stroke:#ff0000;" x="307.356172" xlink:href="#mbc1ff88ddb" y="271.190808"/>
     <use style="fill:#ff0000;stroke:#ff0000;" x="308.780096" xlink:href="#mbc1ff88ddb" y="271.190808"/>
     <use style="fill:#ff0000;stroke:#ff0000;" x="310.204019" xlink:href="#mbc1ff88ddb" y="271.190808"/>
     <use style="fill:#ff0000;stroke:#ff0000;" x="311.627943" xlink:href="#mbc1ff88ddb" y="271.190808"/>
     <use style="fill:#ff0000;stroke:#ff0000;" x="313.051866" xlink:href="#mbc1ff88ddb" y="280.718869"/>
     <use style="fill:#ff0000;stroke:#ff0000;" x="314.475789" xlink:href="#mbc1ff88ddb" y="288.413478"/>
     <use style="fill:#ff0000;stroke:#ff0000;" x="315.899713" xlink:href="#mbc1ff88ddb" y="288.413478"/>
     <use style="fill:#ff0000;stroke:#ff0000;" x="317.323636" xlink:href="#mbc1ff88ddb" y="285.517575"/>
     <use style="fill:#ff0000;stroke:#ff0000;" x="318.74756" xlink:href="#mbc1ff88ddb" y="285.517575"/>
     <use style="fill:#ff0000;stroke:#ff0000;" x="320.171483" xlink:href="#mbc1ff88ddb" y="285.517575"/>
     <use style="fill:#ff0000;stroke:#ff0000;" x="321.595407" xlink:href="#mbc1ff88ddb" y="274.874237"/>
     <use style="fill:#ff0000;stroke:#ff0000;" x="323.01933" xlink:href="#mbc1ff88ddb" y="274.874237"/>
     <use style="fill:#ff0000;stroke:#ff0000;" x="324.443254" xlink:href="#mbc1ff88ddb" y="284.47544"/>
     <use style="fill:#ff0000;stroke:#ff0000;" x="325.867177" xlink:href="#mbc1ff88ddb" y="284.47544"/>
     <use style="fill:#ff0000;stroke:#ff0000;" x="327.2911" xlink:href="#mbc1ff88ddb" y="272.076787"/>
     <use style="fill:#ff0000;stroke:#ff0000;" x="328.715024" xlink:href="#mbc1ff88ddb" y="272.076787"/>
     <use style="fill:#ff0000;stroke:#ff0000;" x="330.138947" xlink:href="#mbc1ff88ddb" y="278.847091"/>
     <use style="fill:#ff0000;stroke:#ff0000;" x="331.562871" xlink:href="#mbc1ff88ddb" y="278.847091"/>
     <use style="fill:#ff0000;stroke:#ff0000;" x="332.986794" xlink:href="#mbc1ff88ddb" y="268.482739"/>
     <use style="fill:#ff0000;stroke:#ff0000;" x="334.410718" xlink:href="#mbc1ff88ddb" y="278.44761"/>
     <use style="fill:#ff0000;stroke:#ff0000;" x="335.834641" xlink:href="#mbc1ff88ddb" y="278.44761"/>
     <use style="fill:#ff0000;stroke:#ff0000;" x="337.258565" xlink:href="#mbc1ff88ddb" y="286.823039"/>
     <use style="fill:#ff0000;stroke:#ff0000;" x="338.682488" xlink:href="#mbc1ff88ddb" y="286.823039"/>
     <use style="fill:#ff0000;stroke:#ff0000;" x="340.106411" xlink:href="#mbc1ff88ddb" y="286.823039"/>
     <use style="fill:#ff0000;stroke:#ff0000;" x="341.530335" xlink:href="#mbc1ff88ddb" y="286.823039"/>
     <use style="fill:#ff0000;stroke:#ff0000;" x="342.954258" xlink:href="#mbc1ff88ddb" y="286.823039"/>
     <use style="fill:#ff0000;stroke:#ff0000;" x="344.378182" xlink:href="#mbc1ff88ddb" y="286.823039"/>
     <use style="fill:#ff0000;stroke:#ff0000;" x="345.802105" xlink:href="#mbc1ff88ddb" y="286.823039"/>
     <use style="fill:#ff0000;stroke:#ff0000;" x="347.226029" xlink:href="#mbc1ff88ddb" y="286.823039"/>
     <use style="fill:#ff0000;stroke:#ff0000;" x="348.649952" xlink:href="#mbc1ff88ddb" y="286.823039"/>
     <use style="fill:#ff0000;stroke:#ff0000;" x="350.073876" xlink:href="#mbc1ff88ddb" y="286.823039"/>
     <use style="fill:#ff0000;stroke:#ff0000;" x="351.497799" xlink:href="#mbc1ff88ddb" y="286.823039"/>
     <use style="fill:#ff0000;stroke:#ff0000;" x="352.921722" xlink:href="#mbc1ff88ddb" y="286.823039"/>
     <use style="fill:#ff0000;stroke:#ff0000;" x="354.345646" xlink:href="#mbc1ff88ddb" y="286.823039"/>
     <use style="fill:#ff0000;stroke:#ff0000;" x="355.769569" xlink:href="#mbc1ff88ddb" y="286.823039"/>
     <use style="fill:#ff0000;stroke:#ff0000;" x="357.193493" xlink:href="#mbc1ff88ddb" y="286.823039"/>
     <use style="fill:#ff0000;stroke:#ff0000;" x="358.617416" xlink:href="#mbc1ff88ddb" y="286.823039"/>
     <use style="fill:#ff0000;stroke:#ff0000;" x="360.04134" xlink:href="#mbc1ff88ddb" y="286.823039"/>
     <use style="fill:#ff0000;stroke:#ff0000;" x="361.465263" xlink:href="#mbc1ff88ddb" y="286.823039"/>
     <use style="fill:#ff0000;stroke:#ff0000;" x="362.889187" xlink:href="#mbc1ff88ddb" y="286.823039"/>
     <use style="fill:#ff0000;stroke:#ff0000;" x="364.31311" xlink:href="#mbc1ff88ddb" y="286.823039"/>
     <use style="fill:#ff0000;stroke:#ff0000;" x="365.737033" xlink:href="#mbc1ff88ddb" y="286.823039"/>
     <use style="fill:#ff0000;stroke:#ff0000;" x="367.160957" xlink:href="#mbc1ff88ddb" y="286.823039"/>
     <use style="fill:#ff0000;stroke:#ff0000;" x="368.58488" xlink:href="#mbc1ff88ddb" y="286.823039"/>
     <use style="fill:#ff0000;stroke:#ff0000;" x="370.008804" xlink:href="#mbc1ff88ddb" y="286.823039"/>
     <use style="fill:#ff0000;stroke:#ff0000;" x="371.432727" xlink:href="#mbc1ff88ddb" y="286.823039"/>
     <use style="fill:#ff0000;stroke:#ff0000;" x="372.856651" xlink:href="#mbc1ff88ddb" y="286.823039"/>
     <use style="fill:#ff0000;stroke:#ff0000;" x="374.280574" xlink:href="#mbc1ff88ddb" y="286.823039"/>
     <use style="fill:#ff0000;stroke:#ff0000;" x="375.704498" xlink:href="#mbc1ff88ddb" y="286.823039"/>
     <use style="fill:#ff0000;stroke:#ff0000;" x="377.128421" xlink:href="#mbc1ff88ddb" y="286.823039"/>
     <use style="fill:#ff0000;stroke:#ff0000;" x="378.552344" xlink:href="#mbc1ff88ddb" y="286.823039"/>
     <use style="fill:#ff0000;stroke:#ff0000;" x="379.976268" xlink:href="#mbc1ff88ddb" y="286.823039"/>
     <use style="fill:#ff0000;stroke:#ff0000;" x="381.400191" xlink:href="#mbc1ff88ddb" y="286.823039"/>
     <use style="fill:#ff0000;stroke:#ff0000;" x="382.824115" xlink:href="#mbc1ff88ddb" y="286.823039"/>
     <use style="fill:#ff0000;stroke:#ff0000;" x="384.248038" xlink:href="#mbc1ff88ddb" y="286.823039"/>
     <use style="fill:#ff0000;stroke:#ff0000;" x="385.671962" xlink:href="#mbc1ff88ddb" y="286.823039"/>
     <use style="fill:#ff0000;stroke:#ff0000;" x="387.095885" xlink:href="#mbc1ff88ddb" y="286.823039"/>
     <use style="fill:#ff0000;stroke:#ff0000;" x="388.519809" xlink:href="#mbc1ff88ddb" y="286.823039"/>
     <use style="fill:#ff0000;stroke:#ff0000;" x="389.943732" xlink:href="#mbc1ff88ddb" y="286.823039"/>
     <use style="fill:#ff0000;stroke:#ff0000;" x="391.367656" xlink:href="#mbc1ff88ddb" y="286.823039"/>
     <use style="fill:#ff0000;stroke:#ff0000;" x="392.791579" xlink:href="#mbc1ff88ddb" y="286.823039"/>
     <use style="fill:#ff0000;stroke:#ff0000;" x="394.215502" xlink:href="#mbc1ff88ddb" y="286.823039"/>
     <use style="fill:#ff0000;stroke:#ff0000;" x="395.639426" xlink:href="#mbc1ff88ddb" y="286.823039"/>
     <use style="fill:#ff0000;stroke:#ff0000;" x="397.063349" xlink:href="#mbc1ff88ddb" y="286.823039"/>
     <use style="fill:#ff0000;stroke:#ff0000;" x="398.487273" xlink:href="#mbc1ff88ddb" y="286.823039"/>
    </g>
   </g>
   <g id="patch_3">
    <path d="M 57.6 307.584 
L 57.6 41.472 
" style="fill:none;stroke:#000000;stroke-linecap:square;stroke-linejoin:miter;stroke-width:0.8;"/>
   </g>
   <g id="patch_4">
    <path d="M 414.72 307.584 
L 414.72 41.472 
" style="fill:none;stroke:#000000;stroke-linecap:square;stroke-linejoin:miter;stroke-width:0.8;"/>
   </g>
   <g id="patch_5">
    <path d="M 57.6 307.584 
L 414.72 307.584 
" style="fill:none;stroke:#000000;stroke-linecap:square;stroke-linejoin:miter;stroke-width:0.8;"/>
   </g>
   <g id="patch_6">
    <path d="M 57.6 41.472 
L 414.72 41.472 
" style="fill:none;stroke:#000000;stroke-linecap:square;stroke-linejoin:miter;stroke-width:0.8;"/>
   </g>
  </g>
 </g>
 <defs>
  <clipPath id="p42976cc1d3">
   <rect height="266.112" width="357.12" x="57.6" y="41.472"/>
  </clipPath>
 </defs>
</svg>
