<?xml version="1.0" encoding="utf-8" standalone="no"?>
<!DOCTYPE svg PUBLIC "-//W3C//DTD SVG 1.1//EN"
  "http://www.w3.org/Graphics/SVG/1.1/DTD/svg11.dtd">
<!-- Created with matplotlib (https://matplotlib.org/) -->
<svg height="345.6pt" version="1.1" viewBox="0 0 460.8 345.6" width="460.8pt" xmlns="http://www.w3.org/2000/svg" xmlns:xlink="http://www.w3.org/1999/xlink">
 <defs>
  <style type="text/css">
*{stroke-linecap:butt;stroke-linejoin:round;}
  </style>
 </defs>
 <g id="figure_1">
  <g id="patch_1">
   <path d="M 0 345.6 
L 460.8 345.6 
L 460.8 0 
L 0 0 
z
" style="fill:#ffffff;"/>
  </g>
  <g id="axes_1">
   <g id="patch_2">
    <path d="M 57.6 307.584 
L 414.72 307.584 
L 414.72 41.472 
L 57.6 41.472 
z
" style="fill:#ffffff;"/>
   </g>
   <g id="line2d_1">
    <path clip-path="url(#paa6c2edcf4)" d="M 73.832727 86.339119 
L 75.456 92.40083 
L 77.079273 92.40083 
L 78.702545 61.830574 
L 80.325818 61.830574 
L 81.949091 92.65402 
L 83.572364 92.65402 
L 85.195636 123.505571 
L 88.442182 123.505571 
L 90.065455 91.882157 
L 91.688727 91.882157 
L 93.312 60.170697 
L 99.805091 60.170697 
L 101.428364 53.568 
L 104.674909 53.568 
L 106.298182 83.691916 
L 109.544727 83.691916 
L 111.168 111.801123 
L 112.791273 111.801123 
L 114.414545 118.308957 
L 116.037818 118.308957 
L 117.661091 128.26362 
L 119.284364 128.26362 
L 120.907636 117.491088 
L 122.530909 117.491088 
L 124.154182 127.078756 
L 125.777455 127.977377 
L 127.400727 127.977377 
L 129.024 117.489387 
L 130.647273 117.489387 
L 132.270545 127.8106 
L 133.893818 127.8106 
L 135.517091 116.440764 
L 137.140364 127.124552 
L 142.010182 127.124552 
L 143.633455 117.80711 
L 145.256727 117.80711 
L 146.88 107.331495 
L 148.503273 107.331495 
L 150.126545 118.069224 
L 151.749818 118.069224 
L 153.373091 127.411861 
L 154.996364 127.411861 
L 156.619636 137.2593 
L 159.866182 137.2593 
L 161.489455 147.768937 
L 163.112727 137.807393 
L 164.736 137.807393 
L 166.359273 128.031864 
L 167.982545 128.031864 
L 169.605818 117.457811 
L 172.852364 117.457811 
L 174.475636 127.110618 
L 176.098909 127.110618 
L 177.722182 136.624879 
L 179.345455 136.624879 
L 180.968727 133.969402 
L 182.592 135.153231 
L 184.215273 135.153231 
L 185.838545 143.888581 
L 189.085091 143.888581 
L 190.708364 134.490214 
L 192.331636 143.821922 
L 193.954909 143.821922 
L 195.578182 140.316859 
L 200.448 140.316859 
L 202.071273 150.390823 
L 203.694545 159.714272 
L 211.810909 159.714272 
L 215.057455 178.24463 
L 216.680727 178.24463 
L 218.304 187.346814 
L 219.927273 187.346814 
L 221.550545 188.969853 
L 224.797091 188.969853 
L 228.043636 207.454141 
L 231.290182 207.454141 
L 232.913455 204.971699 
L 234.536727 195.2946 
L 236.16 195.2946 
L 237.783273 203.802522 
L 242.653091 203.802522 
L 244.276364 192.43654 
L 245.899636 192.43654 
L 247.522909 181.502584 
L 249.146182 191.194832 
L 252.392727 191.194832 
L 254.016 200.888822 
L 268.625455 200.888822 
L 270.248727 209.628707 
L 271.872 220.253561 
L 276.741818 220.253561 
L 278.365091 228.574243 
L 279.988364 218.20021 
L 281.611636 218.20021 
L 283.234909 206.417619 
L 286.481455 206.417619 
L 288.104727 215.45782 
L 289.728 215.45782 
L 291.351273 226.066613 
L 292.974545 226.066613 
L 294.597818 222.344243 
L 296.221091 222.344243 
L 297.844364 231.888699 
L 301.090909 231.888699 
L 302.714182 241.563608 
L 304.337455 250.333742 
L 305.960727 250.333742 
L 307.584 258.283726 
L 309.207273 258.283726 
L 310.830545 266.881928 
L 312.453818 266.881928 
L 314.077091 276.391291 
L 315.700364 276.391291 
L 317.323636 283.377856 
L 318.946909 272.624994 
L 320.570182 272.624994 
L 322.193455 270.773312 
L 323.816727 270.773312 
L 325.44 279.050248 
L 327.063273 279.050248 
L 328.686545 286.586056 
L 330.309818 286.586056 
L 331.933091 295.488 
L 335.179636 295.488 
L 336.802909 283.659561 
L 338.426182 283.659561 
L 340.049455 271.190808 
L 344.919273 271.190808 
L 346.542545 280.718869 
L 348.165818 288.413478 
L 349.789091 288.413478 
L 351.412364 285.517575 
L 354.658909 285.517575 
L 356.282182 274.874237 
L 357.905455 274.874237 
L 359.528727 284.47544 
L 361.152 284.47544 
L 362.775273 272.076787 
L 364.398545 272.076787 
L 366.021818 278.847091 
L 367.645091 278.847091 
L 369.268364 268.482739 
L 370.891636 278.44761 
L 372.514909 278.44761 
L 374.138182 286.823039 
L 398.487273 286.823039 
L 398.487273 286.823039 
" style="fill:none;stroke:#ff0000;stroke-linecap:square;stroke-width:12;"/>
    <defs>
     <path d="M 0 3 
C 0.795609 3 1.55874 2.683901 2.12132 2.12132 
C 2.683901 1.55874 3 0.795609 3 0 
C 3 -0.795609 2.683901 -1.55874 2.12132 -2.12132 
C 1.55874 -2.683901 0.795609 -3 0 -3 
C -0.795609 -3 -1.55874 -2.683901 -2.12132 -2.12132 
C -2.683901 -1.55874 -3 -0.795609 -3 0 
C -3 0.795609 -2.683901 1.55874 -2.12132 2.12132 
C -1.55874 2.683901 -0.795609 3 0 3 
z
" id="mc035c3df72" style="stroke:#ff0000;"/>
    </defs>
    <g clip-path="url(#paa6c2edcf4)">
     <use style="fill:#ff0000;stroke:#ff0000;" x="73.832727" xlink:href="#mc035c3df72" y="86.339119"/>
     <use style="fill:#ff0000;stroke:#ff0000;" x="75.456" xlink:href="#mc035c3df72" y="92.40083"/>
     <use style="fill:#ff0000;stroke:#ff0000;" x="77.079273" xlink:href="#mc035c3df72" y="92.40083"/>
     <use style="fill:#ff0000;stroke:#ff0000;" x="78.702545" xlink:href="#mc035c3df72" y="61.830574"/>
     <use style="fill:#ff0000;stroke:#ff0000;" x="80.325818" xlink:href="#mc035c3df72" y="61.830574"/>
     <use style="fill:#ff0000;stroke:#ff0000;" x="81.949091" xlink:href="#mc035c3df72" y="92.65402"/>
     <use style="fill:#ff0000;stroke:#ff0000;" x="83.572364" xlink:href="#mc035c3df72" y="92.65402"/>
     <use style="fill:#ff0000;stroke:#ff0000;" x="85.195636" xlink:href="#mc035c3df72" y="123.505571"/>
     <use style="fill:#ff0000;stroke:#ff0000;" x="86.818909" xlink:href="#mc035c3df72" y="123.505571"/>
     <use style="fill:#ff0000;stroke:#ff0000;" x="88.442182" xlink:href="#mc035c3df72" y="123.505571"/>
     <use style="fill:#ff0000;stroke:#ff0000;" x="90.065455" xlink:href="#mc035c3df72" y="91.882157"/>
     <use style="fill:#ff0000;stroke:#ff0000;" x="91.688727" xlink:href="#mc035c3df72" y="91.882157"/>
     <use style="fill:#ff0000;stroke:#ff0000;" x="93.312" xlink:href="#mc035c3df72" y="60.170697"/>
     <use style="fill:#ff0000;stroke:#ff0000;" x="94.935273" xlink:href="#mc035c3df72" y="60.170697"/>
     <use style="fill:#ff0000;stroke:#ff0000;" x="96.558545" xlink:href="#mc035c3df72" y="60.170697"/>
     <use style="fill:#ff0000;stroke:#ff0000;" x="98.181818" xlink:href="#mc035c3df72" y="60.170697"/>
     <use style="fill:#ff0000;stroke:#ff0000;" x="99.805091" xlink:href="#mc035c3df72" y="60.170697"/>
     <use style="fill:#ff0000;stroke:#ff0000;" x="101.428364" xlink:href="#mc035c3df72" y="53.568"/>
     <use style="fill:#ff0000;stroke:#ff0000;" x="103.051636" xlink:href="#mc035c3df72" y="53.568"/>
     <use style="fill:#ff0000;stroke:#ff0000;" x="104.674909" xlink:href="#mc035c3df72" y="53.568"/>
     <use style="fill:#ff0000;stroke:#ff0000;" x="106.298182" xlink:href="#mc035c3df72" y="83.691916"/>
     <use style="fill:#ff0000;stroke:#ff0000;" x="107.921455" xlink:href="#mc035c3df72" y="83.691916"/>
     <use style="fill:#ff0000;stroke:#ff0000;" x="109.544727" xlink:href="#mc035c3df72" y="83.691916"/>
     <use style="fill:#ff0000;stroke:#ff0000;" x="111.168" xlink:href="#mc035c3df72" y="111.801123"/>
     <use style="fill:#ff0000;stroke:#ff0000;" x="112.791273" xlink:href="#mc035c3df72" y="111.801123"/>
     <use style="fill:#ff0000;stroke:#ff0000;" x="114.414545" xlink:href="#mc035c3df72" y="118.308957"/>
     <use style="fill:#ff0000;stroke:#ff0000;" x="116.037818" xlink:href="#mc035c3df72" y="118.308957"/>
     <use style="fill:#ff0000;stroke:#ff0000;" x="117.661091" xlink:href="#mc035c3df72" y="128.26362"/>
     <use style="fill:#ff0000;stroke:#ff0000;" x="119.284364" xlink:href="#mc035c3df72" y="128.26362"/>
     <use style="fill:#ff0000;stroke:#ff0000;" x="120.907636" xlink:href="#mc035c3df72" y="117.491088"/>
     <use style="fill:#ff0000;stroke:#ff0000;" x="122.530909" xlink:href="#mc035c3df72" y="117.491088"/>
     <use style="fill:#ff0000;stroke:#ff0000;" x="124.154182" xlink:href="#mc035c3df72" y="127.078756"/>
     <use style="fill:#ff0000;stroke:#ff0000;" x="125.777455" xlink:href="#mc035c3df72" y="127.977377"/>
     <use style="fill:#ff0000;stroke:#ff0000;" x="127.400727" xlink:href="#mc035c3df72" y="127.977377"/>
     <use style="fill:#ff0000;stroke:#ff0000;" x="129.024" xlink:href="#mc035c3df72" y="117.489387"/>
     <use style="fill:#ff0000;stroke:#ff0000;" x="130.647273" xlink:href="#mc035c3df72" y="117.489387"/>
     <use style="fill:#ff0000;stroke:#ff0000;" x="132.270545" xlink:href="#mc035c3df72" y="127.8106"/>
     <use style="fill:#ff0000;stroke:#ff0000;" x="133.893818" xlink:href="#mc035c3df72" y="127.8106"/>
     <use style="fill:#ff0000;stroke:#ff0000;" x="135.517091" xlink:href="#mc035c3df72" y="116.440764"/>
     <use style="fill:#ff0000;stroke:#ff0000;" x="137.140364" xlink:href="#mc035c3df72" y="127.124552"/>
     <use style="fill:#ff0000;stroke:#ff0000;" x="138.763636" xlink:href="#mc035c3df72" y="127.124552"/>
     <use style="fill:#ff0000;stroke:#ff0000;" x="140.386909" xlink:href="#mc035c3df72" y="127.124552"/>
     <use style="fill:#ff0000;stroke:#ff0000;" x="142.010182" xlink:href="#mc035c3df72" y="127.124552"/>
     <use style="fill:#ff0000;stroke:#ff0000;" x="143.633455" xlink:href="#mc035c3df72" y="117.80711"/>
     <use style="fill:#ff0000;stroke:#ff0000;" x="145.256727" xlink:href="#mc035c3df72" y="117.80711"/>
     <use style="fill:#ff0000;stroke:#ff0000;" x="146.88" xlink:href="#mc035c3df72" y="107.331495"/>
     <use style="fill:#ff0000;stroke:#ff0000;" x="148.503273" xlink:href="#mc035c3df72" y="107.331495"/>
     <use style="fill:#ff0000;stroke:#ff0000;" x="150.126545" xlink:href="#mc035c3df72" y="118.069224"/>
     <use style="fill:#ff0000;stroke:#ff0000;" x="151.749818" xlink:href="#mc035c3df72" y="118.069224"/>
     <use style="fill:#ff0000;stroke:#ff0000;" x="153.373091" xlink:href="#mc035c3df72" y="127.411861"/>
     <use style="fill:#ff0000;stroke:#ff0000;" x="154.996364" xlink:href="#mc035c3df72" y="127.411861"/>
     <use style="fill:#ff0000;stroke:#ff0000;" x="156.619636" xlink:href="#mc035c3df72" y="137.2593"/>
     <use style="fill:#ff0000;stroke:#ff0000;" x="158.242909" xlink:href="#mc035c3df72" y="137.2593"/>
     <use style="fill:#ff0000;stroke:#ff0000;" x="159.866182" xlink:href="#mc035c3df72" y="137.2593"/>
     <use style="fill:#ff0000;stroke:#ff0000;" x="161.489455" xlink:href="#mc035c3df72" y="147.768937"/>
     <use style="fill:#ff0000;stroke:#ff0000;" x="163.112727" xlink:href="#mc035c3df72" y="137.807393"/>
     <use style="fill:#ff0000;stroke:#ff0000;" x="164.736" xlink:href="#mc035c3df72" y="137.807393"/>
     <use style="fill:#ff0000;stroke:#ff0000;" x="166.359273" xlink:href="#mc035c3df72" y="128.031864"/>
     <use style="fill:#ff0000;stroke:#ff0000;" x="167.982545" xlink:href="#mc035c3df72" y="128.031864"/>
     <use style="fill:#ff0000;stroke:#ff0000;" x="169.605818" xlink:href="#mc035c3df72" y="117.457811"/>
     <use style="fill:#ff0000;stroke:#ff0000;" x="171.229091" xlink:href="#mc035c3df72" y="117.457811"/>
     <use style="fill:#ff0000;stroke:#ff0000;" x="172.852364" xlink:href="#mc035c3df72" y="117.457811"/>
     <use style="fill:#ff0000;stroke:#ff0000;" x="174.475636" xlink:href="#mc035c3df72" y="127.110618"/>
     <use style="fill:#ff0000;stroke:#ff0000;" x="176.098909" xlink:href="#mc035c3df72" y="127.110618"/>
     <use style="fill:#ff0000;stroke:#ff0000;" x="177.722182" xlink:href="#mc035c3df72" y="136.624879"/>
     <use style="fill:#ff0000;stroke:#ff0000;" x="179.345455" xlink:href="#mc035c3df72" y="136.624879"/>
     <use style="fill:#ff0000;stroke:#ff0000;" x="180.968727" xlink:href="#mc035c3df72" y="133.969402"/>
     <use style="fill:#ff0000;stroke:#ff0000;" x="182.592" xlink:href="#mc035c3df72" y="135.153231"/>
     <use style="fill:#ff0000;stroke:#ff0000;" x="184.215273" xlink:href="#mc035c3df72" y="135.153231"/>
     <use style="fill:#ff0000;stroke:#ff0000;" x="185.838545" xlink:href="#mc035c3df72" y="143.888581"/>
     <use style="fill:#ff0000;stroke:#ff0000;" x="187.461818" xlink:href="#mc035c3df72" y="143.888581"/>
     <use style="fill:#ff0000;stroke:#ff0000;" x="189.085091" xlink:href="#mc035c3df72" y="143.888581"/>
     <use style="fill:#ff0000;stroke:#ff0000;" x="190.708364" xlink:href="#mc035c3df72" y="134.490214"/>
     <use style="fill:#ff0000;stroke:#ff0000;" x="192.331636" xlink:href="#mc035c3df72" y="143.821922"/>
     <use style="fill:#ff0000;stroke:#ff0000;" x="193.954909" xlink:href="#mc035c3df72" y="143.821922"/>
     <use style="fill:#ff0000;stroke:#ff0000;" x="195.578182" xlink:href="#mc035c3df72" y="140.316859"/>
     <use style="fill:#ff0000;stroke:#ff0000;" x="197.201455" xlink:href="#mc035c3df72" y="140.316859"/>
     <use style="fill:#ff0000;stroke:#ff0000;" x="198.824727" xlink:href="#mc035c3df72" y="140.316859"/>
     <use style="fill:#ff0000;stroke:#ff0000;" x="200.448" xlink:href="#mc035c3df72" y="140.316859"/>
     <use style="fill:#ff0000;stroke:#ff0000;" x="202.071273" xlink:href="#mc035c3df72" y="150.390823"/>
     <use style="fill:#ff0000;stroke:#ff0000;" x="203.694545" xlink:href="#mc035c3df72" y="159.714272"/>
     <use style="fill:#ff0000;stroke:#ff0000;" x="205.317818" xlink:href="#mc035c3df72" y="159.714272"/>
     <use style="fill:#ff0000;stroke:#ff0000;" x="206.941091" xlink:href="#mc035c3df72" y="159.714272"/>
     <use style="fill:#ff0000;stroke:#ff0000;" x="208.564364" xlink:href="#mc035c3df72" y="159.714272"/>
     <use style="fill:#ff0000;stroke:#ff0000;" x="210.187636" xlink:href="#mc035c3df72" y="159.714272"/>
     <use style="fill:#ff0000;stroke:#ff0000;" x="211.810909" xlink:href="#mc035c3df72" y="159.714272"/>
     <use style="fill:#ff0000;stroke:#ff0000;" x="213.434182" xlink:href="#mc035c3df72" y="169.190095"/>
     <use style="fill:#ff0000;stroke:#ff0000;" x="215.057455" xlink:href="#mc035c3df72" y="178.24463"/>
     <use style="fill:#ff0000;stroke:#ff0000;" x="216.680727" xlink:href="#mc035c3df72" y="178.24463"/>
     <use style="fill:#ff0000;stroke:#ff0000;" x="218.304" xlink:href="#mc035c3df72" y="187.346814"/>
     <use style="fill:#ff0000;stroke:#ff0000;" x="219.927273" xlink:href="#mc035c3df72" y="187.346814"/>
     <use style="fill:#ff0000;stroke:#ff0000;" x="221.550545" xlink:href="#mc035c3df72" y="188.969853"/>
     <use style="fill:#ff0000;stroke:#ff0000;" x="223.173818" xlink:href="#mc035c3df72" y="188.969853"/>
     <use style="fill:#ff0000;stroke:#ff0000;" x="224.797091" xlink:href="#mc035c3df72" y="188.969853"/>
     <use style="fill:#ff0000;stroke:#ff0000;" x="226.420364" xlink:href="#mc035c3df72" y="198.070851"/>
     <use style="fill:#ff0000;stroke:#ff0000;" x="228.043636" xlink:href="#mc035c3df72" y="207.454141"/>
     <use style="fill:#ff0000;stroke:#ff0000;" x="229.666909" xlink:href="#mc035c3df72" y="207.454141"/>
     <use style="fill:#ff0000;stroke:#ff0000;" x="231.290182" xlink:href="#mc035c3df72" y="207.454141"/>
     <use style="fill:#ff0000;stroke:#ff0000;" x="232.913455" xlink:href="#mc035c3df72" y="204.971699"/>
     <use style="fill:#ff0000;stroke:#ff0000;" x="234.536727" xlink:href="#mc035c3df72" y="195.2946"/>
     <use style="fill:#ff0000;stroke:#ff0000;" x="236.16" xlink:href="#mc035c3df72" y="195.2946"/>
     <use style="fill:#ff0000;stroke:#ff0000;" x="237.783273" xlink:href="#mc035c3df72" y="203.802522"/>
     <use style="fill:#ff0000;stroke:#ff0000;" x="239.406545" xlink:href="#mc035c3df72" y="203.802522"/>
     <use style="fill:#ff0000;stroke:#ff0000;" x="241.029818" xlink:href="#mc035c3df72" y="203.802522"/>
     <use style="fill:#ff0000;stroke:#ff0000;" x="242.653091" xlink:href="#mc035c3df72" y="203.802522"/>
     <use style="fill:#ff0000;stroke:#ff0000;" x="244.276364" xlink:href="#mc035c3df72" y="192.43654"/>
     <use style="fill:#ff0000;stroke:#ff0000;" x="245.899636" xlink:href="#mc035c3df72" y="192.43654"/>
     <use style="fill:#ff0000;stroke:#ff0000;" x="247.522909" xlink:href="#mc035c3df72" y="181.502584"/>
     <use style="fill:#ff0000;stroke:#ff0000;" x="249.146182" xlink:href="#mc035c3df72" y="191.194832"/>
     <use style="fill:#ff0000;stroke:#ff0000;" x="250.769455" xlink:href="#mc035c3df72" y="191.194832"/>
     <use style="fill:#ff0000;stroke:#ff0000;" x="252.392727" xlink:href="#mc035c3df72" y="191.194832"/>
     <use style="fill:#ff0000;stroke:#ff0000;" x="254.016" xlink:href="#mc035c3df72" y="200.888822"/>
     <use style="fill:#ff0000;stroke:#ff0000;" x="255.639273" xlink:href="#mc035c3df72" y="200.888822"/>
     <use style="fill:#ff0000;stroke:#ff0000;" x="257.262545" xlink:href="#mc035c3df72" y="200.888822"/>
     <use style="fill:#ff0000;stroke:#ff0000;" x="258.885818" xlink:href="#mc035c3df72" y="200.888822"/>
     <use style="fill:#ff0000;stroke:#ff0000;" x="260.509091" xlink:href="#mc035c3df72" y="200.888822"/>
     <use style="fill:#ff0000;stroke:#ff0000;" x="262.132364" xlink:href="#mc035c3df72" y="200.888822"/>
     <use style="fill:#ff0000;stroke:#ff0000;" x="263.755636" xlink:href="#mc035c3df72" y="200.888822"/>
     <use style="fill:#ff0000;stroke:#ff0000;" x="265.378909" xlink:href="#mc035c3df72" y="200.888822"/>
     <use style="fill:#ff0000;stroke:#ff0000;" x="267.002182" xlink:href="#mc035c3df72" y="200.888822"/>
     <use style="fill:#ff0000;stroke:#ff0000;" x="268.625455" xlink:href="#mc035c3df72" y="200.888822"/>
     <use style="fill:#ff0000;stroke:#ff0000;" x="270.248727" xlink:href="#mc035c3df72" y="209.628707"/>
     <use style="fill:#ff0000;stroke:#ff0000;" x="271.872" xlink:href="#mc035c3df72" y="220.253561"/>
     <use style="fill:#ff0000;stroke:#ff0000;" x="273.495273" xlink:href="#mc035c3df72" y="220.253561"/>
     <use style="fill:#ff0000;stroke:#ff0000;" x="275.118545" xlink:href="#mc035c3df72" y="220.253561"/>
     <use style="fill:#ff0000;stroke:#ff0000;" x="276.741818" xlink:href="#mc035c3df72" y="220.253561"/>
     <use style="fill:#ff0000;stroke:#ff0000;" x="278.365091" xlink:href="#mc035c3df72" y="228.574243"/>
     <use style="fill:#ff0000;stroke:#ff0000;" x="279.988364" xlink:href="#mc035c3df72" y="218.20021"/>
     <use style="fill:#ff0000;stroke:#ff0000;" x="281.611636" xlink:href="#mc035c3df72" y="218.20021"/>
     <use style="fill:#ff0000;stroke:#ff0000;" x="283.234909" xlink:href="#mc035c3df72" y="206.417619"/>
     <use style="fill:#ff0000;stroke:#ff0000;" x="284.858182" xlink:href="#mc035c3df72" y="206.417619"/>
     <use style="fill:#ff0000;stroke:#ff0000;" x="286.481455" xlink:href="#mc035c3df72" y="206.417619"/>
     <use style="fill:#ff0000;stroke:#ff0000;" x="288.104727" xlink:href="#mc035c3df72" y="215.45782"/>
     <use style="fill:#ff0000;stroke:#ff0000;" x="289.728" xlink:href="#mc035c3df72" y="215.45782"/>
     <use style="fill:#ff0000;stroke:#ff0000;" x="291.351273" xlink:href="#mc035c3df72" y="226.066613"/>
     <use style="fill:#ff0000;stroke:#ff0000;" x="292.974545" xlink:href="#mc035c3df72" y="226.066613"/>
     <use style="fill:#ff0000;stroke:#ff0000;" x="294.597818" xlink:href="#mc035c3df72" y="222.344243"/>
     <use style="fill:#ff0000;stroke:#ff0000;" x="296.221091" xlink:href="#mc035c3df72" y="222.344243"/>
     <use style="fill:#ff0000;stroke:#ff0000;" x="297.844364" xlink:href="#mc035c3df72" y="231.888699"/>
     <use style="fill:#ff0000;stroke:#ff0000;" x="299.467636" xlink:href="#mc035c3df72" y="231.888699"/>
     <use style="fill:#ff0000;stroke:#ff0000;" x="301.090909" xlink:href="#mc035c3df72" y="231.888699"/>
     <use style="fill:#ff0000;stroke:#ff0000;" x="302.714182" xlink:href="#mc035c3df72" y="241.563608"/>
     <use style="fill:#ff0000;stroke:#ff0000;" x="304.337455" xlink:href="#mc035c3df72" y="250.333742"/>
     <use style="fill:#ff0000;stroke:#ff0000;" x="305.960727" xlink:href="#mc035c3df72" y="250.333742"/>
     <use style="fill:#ff0000;stroke:#ff0000;" x="307.584" xlink:href="#mc035c3df72" y="258.283726"/>
     <use style="fill:#ff0000;stroke:#ff0000;" x="309.207273" xlink:href="#mc035c3df72" y="258.283726"/>
     <use style="fill:#ff0000;stroke:#ff0000;" x="310.830545" xlink:href="#mc035c3df72" y="266.881928"/>
     <use style="fill:#ff0000;stroke:#ff0000;" x="312.453818" xlink:href="#mc035c3df72" y="266.881928"/>
     <use style="fill:#ff0000;stroke:#ff0000;" x="314.077091" xlink:href="#mc035c3df72" y="276.391291"/>
     <use style="fill:#ff0000;stroke:#ff0000;" x="315.700364" xlink:href="#mc035c3df72" y="276.391291"/>
     <use style="fill:#ff0000;stroke:#ff0000;" x="317.323636" xlink:href="#mc035c3df72" y="283.377856"/>
     <use style="fill:#ff0000;stroke:#ff0000;" x="318.946909" xlink:href="#mc035c3df72" y="272.624994"/>
     <use style="fill:#ff0000;stroke:#ff0000;" x="320.570182" xlink:href="#mc035c3df72" y="272.624994"/>
     <use style="fill:#ff0000;stroke:#ff0000;" x="322.193455" xlink:href="#mc035c3df72" y="270.773312"/>
     <use style="fill:#ff0000;stroke:#ff0000;" x="323.816727" xlink:href="#mc035c3df72" y="270.773312"/>
     <use style="fill:#ff0000;stroke:#ff0000;" x="325.44" xlink:href="#mc035c3df72" y="279.050248"/>
     <use style="fill:#ff0000;stroke:#ff0000;" x="327.063273" xlink:href="#mc035c3df72" y="279.050248"/>
     <use style="fill:#ff0000;stroke:#ff0000;" x="328.686545" xlink:href="#mc035c3df72" y="286.586056"/>
     <use style="fill:#ff0000;stroke:#ff0000;" x="330.309818" xlink:href="#mc035c3df72" y="286.586056"/>
     <use style="fill:#ff0000;stroke:#ff0000;" x="331.933091" xlink:href="#mc035c3df72" y="295.488"/>
     <use style="fill:#ff0000;stroke:#ff0000;" x="333.556364" xlink:href="#mc035c3df72" y="295.488"/>
     <use style="fill:#ff0000;stroke:#ff0000;" x="335.179636" xlink:href="#mc035c3df72" y="295.488"/>
     <use style="fill:#ff0000;stroke:#ff0000;" x="336.802909" xlink:href="#mc035c3df72" y="283.659561"/>
     <use style="fill:#ff0000;stroke:#ff0000;" x="338.426182" xlink:href="#mc035c3df72" y="283.659561"/>
     <use style="fill:#ff0000;stroke:#ff0000;" x="340.049455" xlink:href="#mc035c3df72" y="271.190808"/>
     <use style="fill:#ff0000;stroke:#ff0000;" x="341.672727" xlink:href="#mc035c3df72" y="271.190808"/>
     <use style="fill:#ff0000;stroke:#ff0000;" x="343.296" xlink:href="#mc035c3df72" y="271.190808"/>
     <use style="fill:#ff0000;stroke:#ff0000;" x="344.919273" xlink:href="#mc035c3df72" y="271.190808"/>
     <use style="fill:#ff0000;stroke:#ff0000;" x="346.542545" xlink:href="#mc035c3df72" y="280.718869"/>
     <use style="fill:#ff0000;stroke:#ff0000;" x="348.165818" xlink:href="#mc035c3df72" y="288.413478"/>
     <use style="fill:#ff0000;stroke:#ff0000;" x="349.789091" xlink:href="#mc035c3df72" y="288.413478"/>
     <use style="fill:#ff0000;stroke:#ff0000;" x="351.412364" xlink:href="#mc035c3df72" y="285.517575"/>
     <use style="fill:#ff0000;stroke:#ff0000;" x="353.035636" xlink:href="#mc035c3df72" y="285.517575"/>
     <use style="fill:#ff0000;stroke:#ff0000;" x="354.658909" xlink:href="#mc035c3df72" y="285.517575"/>
     <use style="fill:#ff0000;stroke:#ff0000;" x="356.282182" xlink:href="#mc035c3df72" y="274.874237"/>
     <use style="fill:#ff0000;stroke:#ff0000;" x="357.905455" xlink:href="#mc035c3df72" y="274.874237"/>
     <use style="fill:#ff0000;stroke:#ff0000;" x="359.528727" xlink:href="#mc035c3df72" y="284.47544"/>
     <use style="fill:#ff0000;stroke:#ff0000;" x="361.152" xlink:href="#mc035c3df72" y="284.47544"/>
     <use style="fill:#ff0000;stroke:#ff0000;" x="362.775273" xlink:href="#mc035c3df72" y="272.076787"/>
     <use style="fill:#ff0000;stroke:#ff0000;" x="364.398545" xlink:href="#mc035c3df72" y="272.076787"/>
     <use style="fill:#ff0000;stroke:#ff0000;" x="366.021818" xlink:href="#mc035c3df72" y="278.847091"/>
     <use style="fill:#ff0000;stroke:#ff0000;" x="367.645091" xlink:href="#mc035c3df72" y="278.847091"/>
     <use style="fill:#ff0000;stroke:#ff0000;" x="369.268364" xlink:href="#mc035c3df72" y="268.482739"/>
     <use style="fill:#ff0000;stroke:#ff0000;" x="370.891636" xlink:href="#mc035c3df72" y="278.44761"/>
     <use style="fill:#ff0000;stroke:#ff0000;" x="372.514909" xlink:href="#mc035c3df72" y="278.44761"/>
     <use style="fill:#ff0000;stroke:#ff0000;" x="374.138182" xlink:href="#mc035c3df72" y="286.823039"/>
     <use style="fill:#ff0000;stroke:#ff0000;" x="375.761455" xlink:href="#mc035c3df72" y="286.823039"/>
     <use style="fill:#ff0000;stroke:#ff0000;" x="377.384727" xlink:href="#mc035c3df72" y="286.823039"/>
     <use style="fill:#ff0000;stroke:#ff0000;" x="379.008" xlink:href="#mc035c3df72" y="286.823039"/>
     <use style="fill:#ff0000;stroke:#ff0000;" x="380.631273" xlink:href="#mc035c3df72" y="286.823039"/>
     <use style="fill:#ff0000;stroke:#ff0000;" x="382.254545" xlink:href="#mc035c3df72" y="286.823039"/>
     <use style="fill:#ff0000;stroke:#ff0000;" x="383.877818" xlink:href="#mc035c3df72" y="286.823039"/>
     <use style="fill:#ff0000;stroke:#ff0000;" x="385.501091" xlink:href="#mc035c3df72" y="286.823039"/>
     <use style="fill:#ff0000;stroke:#ff0000;" x="387.124364" xlink:href="#mc035c3df72" y="286.823039"/>
     <use style="fill:#ff0000;stroke:#ff0000;" x="388.747636" xlink:href="#mc035c3df72" y="286.823039"/>
     <use style="fill:#ff0000;stroke:#ff0000;" x="390.370909" xlink:href="#mc035c3df72" y="286.823039"/>
     <use style="fill:#ff0000;stroke:#ff0000;" x="391.994182" xlink:href="#mc035c3df72" y="286.823039"/>
     <use style="fill:#ff0000;stroke:#ff0000;" x="393.617455" xlink:href="#mc035c3df72" y="286.823039"/>
     <use style="fill:#ff0000;stroke:#ff0000;" x="395.240727" xlink:href="#mc035c3df72" y="286.823039"/>
     <use style="fill:#ff0000;stroke:#ff0000;" x="396.864" xlink:href="#mc035c3df72" y="286.823039"/>
     <use style="fill:#ff0000;stroke:#ff0000;" x="398.487273" xlink:href="#mc035c3df72" y="286.823039"/>
    </g>
   </g>
   <g id="patch_3">
    <path d="M 57.6 307.584 
L 57.6 41.472 
" style="fill:none;stroke:#000000;stroke-linecap:square;stroke-linejoin:miter;stroke-width:0.8;"/>
   </g>
   <g id="patch_4">
    <path d="M 414.72 307.584 
L 414.72 41.472 
" style="fill:none;stroke:#000000;stroke-linecap:square;stroke-linejoin:miter;stroke-width:0.8;"/>
   </g>
   <g id="patch_5">
    <path d="M 57.6 307.584 
L 414.72 307.584 
" style="fill:none;stroke:#000000;stroke-linecap:square;stroke-linejoin:miter;stroke-width:0.8;"/>
   </g>
   <g id="patch_6">
    <path d="M 57.6 41.472 
L 414.72 41.472 
" style="fill:none;stroke:#000000;stroke-linecap:square;stroke-linejoin:miter;stroke-width:0.8;"/>
   </g>
  </g>
 </g>
 <defs>
  <clipPath id="paa6c2edcf4">
   <rect height="266.112" width="357.12" x="57.6" y="41.472"/>
  </clipPath>
 </defs>
</svg>
